  0
SECTION
  2
HEADER
  9
$ACADVER
  1
AC1014
  9
$HANDSEED
  5
FFFF
  9
$INSUNITS
 70
     4
  9
$MEASUREMENT
 70
     1
  0
ENDSEC
  0
SECTION
  2
TABLES
  0
TABLE
  2
VPORT
  5
8
330
0
100
AcDbSymbolTable
 70
     4
  0
VPORT
  5
2E
330
8
100
AcDbSymbolTableRecord
100
AcDbViewportTableRecord
  2
*ACTIVE
 70
     0
 10
0.0
 20
0.0
 11
1.0
 21
1.0
 12
210.0
 22
148.5
 13
0.0
 23
0.0
 14
10.0
 24
10.0
 15
10.0
 25
10.0
 16
0.0
 26
0.0
 36
1.0
 17
0.0
 27
0.0
 37
0.0
 40
341.0
 41
1.24
 42
50.0
 43
0.0
 44
0.0
 50
0.0
 51
0.0
 71
     0
 72
   100
 73
     1
 74
     3
 75
     0
 76
     0
 77
     0
 78
     0
  0
ENDTAB
  0
TABLE
  2
LTYPE
  5
5
330
0
100
AcDbSymbolTable
 70
     1
  0
LTYPE
  5
14
330
5
100
AcDbSymbolTableRecord
100
AcDbLinetypeTableRecord
  2
BYBLOCK
 70
     0
  3

 72
    65
 73
     0
 40
0.0
  0
LTYPE
  5
15
330
5
100
AcDbSymbolTableRecord
100
AcDbLinetypeTableRecord
  2
BYLAYER
 70
     0
  3

 72
    65
 73
     0
 40
0.0
  0
LTYPE
  5
16
330
5
100
AcDbSymbolTableRecord
100
AcDbLinetypeTableRecord
  2
CONTINUOUS
 70
     0
  3
Solid line
 72
    65
 73
     0
 40
0.0
  0
ENDTAB
  0
TABLE
  2
LAYER
  5
2
100
AcDbSymbolTable
 70
3
  0
LAYER
  5
50
100
AcDbSymbolTableRecord
100
AcDbLayerTableRecord
  2
0
 70
0
  6
CONTINUOUS
  0
LAYER
  5
51
100
AcDbSymbolTableRecord
100
AcDbLayerTableRecord
  2
Original
 70
0
  6
CONTINUOUS
  0
LAYER
  5
52
100
AcDbSymbolTableRecord
100
AcDbLayerTableRecord
  2
Layer_1
 70
0
  6
CONTINUOUS
  0
ENDTAB
  0
TABLE
  2
STYLE
  5
3
330
0
100
AcDbSymbolTable
 70
     1
  0
STYLE
  5
11
330
3
100
AcDbSymbolTableRecord
100
AcDbTextStyleTableRecord
  2
STANDARD
 70
     0
 40
0.0
 41
1.0
 50
0.0
 71
     0
 42
2.5
  3
txt
  4

  0
ENDTAB
  0
TABLE
  2
VIEW
  5
6
330
0
100
AcDbSymbolTable
 70
     0
  0
ENDTAB
  0
TABLE
  2
UCS
  5
7
330
0
100
AcDbSymbolTable
 70
     0
  0
ENDTAB
  0
TABLE
  2
APPID
  5
9
330
0
100
AcDbSymbolTable
 70
     2
  0
APPID
  5
12
330
9
100
AcDbSymbolTableRecord
100
AcDbRegAppTableRecord
  2
ACAD
 70
     0
  0
ENDTAB
  0
TABLE
  2
DIMSTYLE
  5
A
330
0
100
AcDbSymbolTable
 70
     1
  0
DIMSTYLE
105
27
330
A
100
AcDbSymbolTableRecord
100
AcDbDimStyleTableRecord
  2
ISO-25
 70
     0
  3

  4

  5

  6

  7

 40
1.0
 41
2.5
 42
0.625
 43
3.75
 44
1.25
 45
0.0
 46
0.0
 47
0.0
 48
0.0
140
2.5
141
2.5
142
0.0
143
0.03937007874016
144
1.0
145
0.0
146
1.0
147
0.625
 71
     0
 72
     0
 73
     0
 74
     0
 75
     0
 76
     0
 77
     1
 78
     8
170
     0
171
     3
172
     1
173
     0
174
     0
175
     0
176
     0
177
     0
178
     0
270
     2
271
     2
272
     2
273
     2
274
     3
340
11
275
     0
280
     0
281
     0
282
     0
283
     0
284
     8
285
     0
286
     0
287
     3
288
     0
  0
ENDTAB
  0
TABLE
  2
BLOCK_RECORD
  5
1
330
0
100
AcDbSymbolTable
 70
     1
  0
BLOCK_RECORD
  5
1F
330
1
100
AcDbSymbolTableRecord
100
AcDbBlockTableRecord
  2
*MODEL_SPACE
  0
BLOCK_RECORD
  5
1B
330
1
100
AcDbSymbolTableRecord
100
AcDbBlockTableRecord
  2
*PAPER_SPACE
  0
ENDTAB
  0
ENDSEC
  0
SECTION
  2
BLOCKS
  0
BLOCK
  5
20
330
1F
100
AcDbEntity
  8
0
100
AcDbBlockBegin
  2
*MODEL_SPACE
 70
     0
 10
0.0
 20
0.0
 30
0.0
  3
*MODEL_SPACE
  1

  0
ENDBLK
  5
21
330
1F
100
AcDbEntity
  8
0
100
AcDbBlockEnd
  0
BLOCK
  5
1C
330
1B
100
AcDbEntity
 67
     1
  8
0
100
AcDbBlockBegin
  2
*PAPER_SPACE
  1

  0
ENDBLK
  5
1D
330
1B
100
AcDbEntity
 67
     1
  8
0
100
AcDbBlockEnd
  0
ENDSEC
  0
SECTION
  2
ENTITIES
  0
LWPOLYLINE
  5
100
100
AcDbEntity
  8
Layer_1
 62
1
100
AcDbPolyline
 90
5
 70
1
 10
155.325231
 20
266.187468
 30
0.0
 10
126.496764
 20
266.187467
 30
0.0
 10
117.588279
 20
293.604963
 30
0.0
 10
140.910989
 20
310.549910
 30
0.0
 10
164.233712
 20
293.604965
 30
0.0
  0
LWPOLYLINE
  5
101
100
AcDbEntity
  8
Layer_1
 62
1
100
AcDbPolyline
 90
5
 70
1
 10
187.558508
 20
310.552631
 30
0.0
 10
164.236510
 20
293.606693
 30
0.0
 10
140.913076
 20
310.550646
 30
0.0
 10
149.820390
 20
337.968518
 30
0.0
 10
178.648857
 20
337.969747
 30
0.0
  0
LWPOLYLINE
  5
102
100
AcDbEntity
  8
Layer_1
 62
1
100
AcDbPolyline
 90
5
 70
1
 10
140.910668
 20
310.550411
 30
0.0
 10
117.588670
 20
293.604473
 30
0.0
 10
94.265236
 20
310.548426
 30
0.0
 10
103.172550
 20
337.966298
 30
0.0
 10
132.001017
 20
337.967527
 30
0.0
  0
LWPOLYLINE
  5
103
100
AcDbEntity
  8
Layer_1
 62
1
100
AcDbPolyline
 90
5
 70
1
 10
132.001031
 20
337.966135
 30
0.0
 10
103.172564
 20
337.966133
 30
0.0
 10
94.264079
 20
365.383630
 30
0.0
 10
117.586789
 20
382.328577
 30
0.0
 10
140.909512
 20
365.383632
 30
0.0
  0
LWPOLYLINE
  5
104
100
AcDbEntity
  8
Layer_1
 62
1
100
AcDbPolyline
 90
5
 70
1
 10
164.232738
 20
238.772051
 30
0.0
 10
140.910740
 20
221.826113
 30
0.0
 10
117.587306
 20
238.770066
 30
0.0
 10
126.494620
 20
266.187938
 30
0.0
 10
155.323087
 20
266.189167
 30
0.0
  0
LWPOLYLINE
  5
105
100
AcDbEntity
  8
Layer_1
 62
1
100
AcDbPolyline
 90
5
 70
1
 10
178.648881
 20
194.408822
 30
0.0
 10
149.820414
 20
194.408821
 30
0.0
 10
140.911929
 20
221.826317
 30
0.0
 10
164.234639
 20
238.771264
 30
0.0
 10
187.557362
 20
221.826319
 30
0.0
  0
LWPOLYLINE
  5
106
100
AcDbEntity
  8
Layer_1
 62
1
100
AcDbPolyline
 90
5
 70
1
 10
131.929891
 20
194.187192
 30
0.0
 10
103.101424
 20
194.187191
 30
0.0
 10
94.192939
 20
221.604687
 30
0.0
 10
117.515649
 20
238.549634
 30
0.0
 10
140.838372
 20
221.604689
 30
0.0
  0
LWPOLYLINE
  5
107
100
AcDbEntity
  8
Layer_1
 62
1
100
AcDbPolyline
 90
5
 70
1
 10
1251.071728
 20
310.801781
 30
0.0
 10
1227.749730
 20
293.855843
 30
0.0
 10
1204.426296
 20
310.799796
 30
0.0
 10
1213.333610
 20
338.217668
 30
0.0
 10
1242.162077
 20
338.218897
 30
0.0
  0
LWPOLYLINE
  5
108
100
AcDbEntity
  8
Layer_1
 62
1
100
AcDbPolyline
 90
5
 70
1
 10
1242.162101
 20
338.218281
 30
0.0
 10
1213.333634
 20
338.218279
 30
0.0
 10
1204.425149
 20
365.635776
 30
0.0
 10
1227.747859
 20
382.580723
 30
0.0
 10
1251.070582
 20
365.635778
 30
0.0
  0
LWPOLYLINE
  5
109
100
AcDbEntity
  8
Layer_1
 62
1
100
AcDbPolyline
 90
5
 70
1
 10
178.646981
 20
337.902004
 30
0.0
 10
149.818514
 20
337.902002
 30
0.0
 10
140.910029
 20
365.319499
 30
0.0
 10
164.232739
 20
382.264446
 30
0.0
 10
187.555462
 20
365.319501
 30
0.0
  0
LWPOLYLINE
  5
10a
100
AcDbEntity
  8
Layer_1
 62
5
100
AcDbPolyline
 90
108
 70
1
 10
157.691070
 20
243.375730
 30
0.0
 10
157.691070
 20
208.246090
 30
0.0
 10
185.918290
 20
208.245580
 30
0.0
 10
162.600330
 20
191.303970
 30
0.0
 10
157.691070
 20
191.303970
 30
0.0
 10
157.691070
 20
99.675460
 30
0.0
 10
191.925160
 20
99.675460
 30
0.0
 10
185.455780
 20
119.110960
 30
0.0
 10
208.925150
 20
102.037070
 30
0.0
 10
232.395040
 20
119.113030
 30
0.0
 10
225.950470
 20
99.679590
 30
0.0
 10
301.282820
 20
99.679080
 30
0.0
 10
307.722740
 20
119.501640
 30
0.0
 10
314.163690
 20
99.679080
 30
0.0
 10
389.524460
 20
99.679080
 30
0.0
 10
383.195650
 20
119.153340
 30
0.0
 10
406.518260
 20
102.210700
 30
0.0
 10
429.837250
 20
119.143520
 30
0.0
 10
423.513090
 20
99.678560
 30
0.0
 10
498.871274
 20
99.678560
 30
0.0
 10
505.311191
 20
119.501640
 30
0.0
 10
511.752141
 20
99.678560
 30
0.0
 10
587.117050
 20
99.678560
 30
0.0
 10
580.789271
 20
119.161610
 30
0.0
 10
604.111879
 20
102.218970
 30
0.0
 10
627.430869
 20
119.151790
 30
0.0
 10
621.106707
 20
99.686310
 30
0.0
 10
696.463870
 20
99.678310
 30
0.0
 10
702.904820
 20
119.501910
 30
0.0
 10
709.345770
 20
99.677790
 30
0.0
 10
784.730320
 20
99.677790
 30
0.0
 10
778.400990
 20
119.154120
 30
0.0
 10
801.723580
 20
102.210970
 30
0.0
 10
825.042570
 20
119.144300
 30
0.0
 10
818.717900
 20
99.677280
 30
0.0
 10
894.057480
 20
99.677280
 30
0.0
 10
900.497920
 20
119.501910
 30
0.0
 10
906.939380
 20
99.677280
 30
0.0
 10
982.332730
 20
99.677280
 30
0.0
 10
976.003910
 20
119.152060
 30
0.0
 10
999.326520
 20
102.209420
 30
0.0
 10
1022.645500
 20
119.142240
 30
0.0
 10
1016.321340
 20
99.676760
 30
0.0
 10
1091.650080
 20
99.676760
 30
0.0
 10
1098.091030
 20
119.501910
 30
0.0
 10
1104.533020
 20
99.676240
 30
0.0
 10
1157.691010
 20
99.676240
 30
0.0
 10
1157.690500
 20
196.258980
 30
0.0
 10
1150.870760
 20
191.303720
 30
0.0
 10
1122.051330
 20
191.303720
 30
0.0
 10
1145.363080
 20
208.246360
 30
0.0
 10
1157.689980
 20
208.245360
 30
0.0
 10
1157.690980
 20
243.375510
 30
0.0
 10
1147.407370
 20
243.375510
 30
0.0
 10
1135.871640
 20
234.995140
 30
0.0
 10
1138.594990
 20
243.375510
 30
0.0
 10
1104.362970
 20
243.373510
 30
0.0
 10
1106.998990
 20
235.259800
 30
0.0
 10
1098.093590
 20
207.851650
 30
0.0
 10
1089.184050
 20
235.257210
 30
0.0
 10
1091.822140
 20
243.375070
 30
0.0
 10
982.189030
 20
243.374070
 30
0.0
 10
984.907730
 20
235.005590
 30
0.0
 10
973.382850
 20
243.374070
 30
0.0
 10
949.799800
 20
243.374070
 30
0.0
 10
938.266130
 20
234.995770
 30
0.0
 10
940.988450
 20
243.374070
 30
0.0
 10
906.769350
 20
243.374070
 30
0.0
 10
909.405880
 20
235.260870
 30
0.0
 10
900.499960
 20
207.851690
 30
0.0
 10
891.590950
 20
235.258290
 30
0.0
 10
894.228510
 20
243.375110
 30
0.0
 10
784.584070
 20
243.375110
 30
0.0
 10
787.303290
 20
235.005590
 30
0.0
 10
775.776860
 20
243.375110
 30
0.0
 10
752.196380
 20
243.375110
 30
0.0
 10
740.661690
 20
234.995770
 30
0.0
 10
743.384520
 20
243.375110
 30
0.0
 10
709.176270
 20
243.375110
 30
0.0
 10
711.812800
 20
235.260870
 30
0.0
 10
702.906890
 20
207.852210
 30
0.0
 10
693.997350
 20
235.258290
 30
0.0
 10
696.635440
 20
243.375110
 30
0.0
 10
586.978041
 20
243.375110
 30
0.0
 10
589.697255
 20
235.005590
 30
0.0
 10
578.171343
 20
243.375110
 30
0.0
 10
554.590354
 20
243.375110
 30
0.0
 10
543.056174
 20
234.995770
 30
0.0
 10
545.779005
 20
243.375110
 30
0.0
 10
511.583160
 20
243.375110
 30
0.0
 10
514.219174
 20
235.260870
 30
0.0
 10
505.313775
 20
207.852210
 30
0.0
 10
496.404241
 20
235.258290
 30
0.0
 10
499.041806
 20
243.375110
 30
0.0
 10
389.372020
 20
243.375110
 30
0.0
 10
392.091230
 20
235.005070
 30
0.0
 10
380.564810
 20
243.375110
 30
0.0
 10
356.984850
 20
243.375110
 30
0.0
 10
345.449640
 20
234.995250
 30
0.0
 10
348.172980
 20
243.375110
 30
0.0
 10
313.990060
 20
243.375110
 30
0.0
 10
316.626070
 20
235.260870
 30
0.0
 10
307.720670
 20
207.852210
 30
0.0
 10
298.811140
 20
235.258290
 30
0.0
 10
301.448700
 20
243.375620
 30
0.0
 10
191.601150
 20
243.375620
 30
0.0
 10
194.223210
 20
235.305310
 30
0.0
 10
183.112260
 20
243.375620
 30
0.0
  0
LWPOLYLINE
  5
10b
100
AcDbEntity
  8
Layer_1
 62
5
100
AcDbPolyline
 90
10
 70
1
 10
255.952020
 20
191.295510
 30
0.0
 10
284.786630
 20
191.295510
 30
0.0
 10
261.461040
 20
208.250060
 30
0.0
 10
270.364540
 20
235.656150
 30
0.0
 10
247.045690
 20
218.723060
 30
0.0
 10
223.723020
 20
235.665860
 30
0.0
 10
232.632620
 20
208.248870
 30
0.0
 10
209.324380
 20
191.312940
 30
0.0
 10
238.137850
 20
191.303940
 30
0.0
 10
247.041560
 20
163.905150
 30
0.0
  0
LWPOLYLINE
  5
10c
100
AcDbEntity
  8
Layer_1
 62
5
100
AcDbPolyline
 90
4
 70
1
 10
200.396730
 20
163.884380
 30
0.0
 10
223.716130
 20
146.940150
 30
0.0
 10
194.893750
 20
146.940150
 30
0.0
 10
171.578430
 20
163.879720
 30
0.0
  0
LWPOLYLINE
  5
10d
100
AcDbEntity
  8
Layer_1
 62
5
100
AcDbPolyline
 90
4
 70
1
 10
270.249660
 20
146.940890
 30
0.0
 10
293.570670
 20
163.882910
 30
0.0
 10
284.664070
 20
136.471190
 30
0.0
 10
261.348750
 20
119.531620
 30
0.0
  0
LWPOLYLINE
  5
10e
100
AcDbEntity
  8
Layer_1
 62
5
100
AcDbPolyline
 90
4
 70
1
 10
331.522870
 20
136.579960
 30
0.0
 10
322.616640
 20
163.994930
 30
0.0
 10
345.934450
 20
147.053570
 30
0.0
 10
354.840110
 20
119.644760
 30
0.0
  0
LWPOLYLINE
  5
10f
100
AcDbEntity
  8
Layer_1
 62
5
100
AcDbPolyline
 90
4
 70
1
 10
397.992340
 20
163.790360
 30
0.0
 10
421.311740
 20
146.846130
 30
0.0
 10
392.489360
 20
146.846130
 30
0.0
 10
369.174040
 20
163.785700
 30
0.0
  0
LWPOLYLINE
  5
110
100
AcDbEntity
  8
Layer_1
 62
5
100
AcDbPolyline
 90
4
 70
1
 10
467.845268
 20
146.846870
 30
0.0
 10
491.166278
 20
163.788890
 30
0.0
 10
482.259678
 20
136.377170
 30
0.0
 10
458.944358
 20
119.437600
 30
0.0
  0
LWPOLYLINE
  5
111
100
AcDbEntity
  8
Layer_1
 62
5
100
AcDbPolyline
 90
4
 70
1
 10
529.118478
 20
136.485940
 30
0.0
 10
520.212248
 20
163.900910
 30
0.0
 10
543.530058
 20
146.959550
 30
0.0
 10
552.435718
 20
119.550740
 30
0.0
  0
LWPOLYLINE
  5
112
100
AcDbEntity
  8
Layer_1
 62
5
100
AcDbPolyline
 90
4
 70
1
 10
595.584956
 20
163.796330
 30
0.0
 10
618.904359
 20
146.852100
 30
0.0
 10
590.081976
 20
146.852100
 30
0.0
 10
566.766656
 20
163.791670
 30
0.0
  0
LWPOLYLINE
  5
113
100
AcDbEntity
  8
Layer_1
 62
5
100
AcDbPolyline
 90
4
 70
1
 10
665.437890
 20
146.852840
 30
0.0
 10
688.758900
 20
163.794860
 30
0.0
 10
679.852300
 20
136.383140
 30
0.0
 10
656.536980
 20
119.443570
 30
0.0
  0
LWPOLYLINE
  5
114
100
AcDbEntity
  8
Layer_1
 62
5
100
AcDbPolyline
 90
4
 70
1
 10
726.711100
 20
136.491910
 30
0.0
 10
717.804870
 20
163.906880
 30
0.0
 10
741.122680
 20
146.965520
 30
0.0
 10
750.028350
 20
119.556710
 30
0.0
  0
LWPOLYLINE
  5
115
100
AcDbEntity
  8
Layer_1
 62
5
100
AcDbPolyline
 90
4
 70
1
 10
793.176860
 20
163.974910
 30
0.0
 10
816.496260
 20
147.030680
 30
0.0
 10
787.673880
 20
147.030680
 30
0.0
 10
764.358560
 20
163.970250
 30
0.0
  0
LWPOLYLINE
  5
116
100
AcDbEntity
  8
Layer_1
 62
5
100
AcDbPolyline
 90
4
 70
1
 10
863.029810
 20
147.031420
 30
0.0
 10
886.350820
 20
163.973440
 30
0.0
 10
877.444210
 20
136.561720
 30
0.0
 10
854.128890
 20
119.622150
 30
0.0
  0
LWPOLYLINE
  5
117
100
AcDbEntity
  8
Layer_1
 62
5
100
AcDbPolyline
 90
4
 70
1
 10
924.303010
 20
136.670490
 30
0.0
 10
915.396780
 20
164.085460
 30
0.0
 10
938.714590
 20
147.144100
 30
0.0
 10
947.620250
 20
119.735290
 30
0.0
  0
LWPOLYLINE
  5
118
100
AcDbEntity
  8
Layer_1
 62
5
100
AcDbPolyline
 90
4
 70
1
 10
990.843820
 20
163.999210
 30
0.0
 10
1014.163230
 20
147.054980
 30
0.0
 10
985.340850
 20
147.054980
 30
0.0
 10
962.025530
 20
163.994550
 30
0.0
  0
LWPOLYLINE
  5
119
100
AcDbEntity
  8
Layer_1
 62
5
100
AcDbPolyline
 90
4
 70
1
 10
1060.696770
 20
147.055720
 30
0.0
 10
1084.017780
 20
163.997740
 30
0.0
 10
1075.111180
 20
136.586020
 30
0.0
 10
1051.795860
 20
119.646450
 30
0.0
  0
LWPOLYLINE
  5
11a
100
AcDbEntity
  8
Layer_1
 62
5
100
AcDbPolyline
 90
4
 70
1
 10
1121.969980
 20
136.694790
 30
0.0
 10
1113.063730
 20
164.109760
 30
0.0
 10
1136.381550
 20
147.168400
 30
0.0
 10
1145.287210
 20
119.759590
 30
0.0
  0
LWPOLYLINE
  5
11b
100
AcDbEntity
  8
Layer_1
 62
5
100
AcDbPolyline
 90
4
 70
1
 10
354.687510
 20
208.256700
 30
0.0
 10
383.512880
 20
208.255700
 30
0.0
 10
360.195070
 20
191.314320
 30
0.0
 10
331.375750
 20
191.314320
 30
0.0
  0
LWPOLYLINE
  5
11c
100
AcDbEntity
  8
Layer_1
 62
5
100
AcDbPolyline
 90
4
 70
1
 10
552.283749
 20
208.256700
 30
0.0
 10
581.109119
 20
208.255700
 30
0.0
 10
557.791319
 20
191.314320
 30
0.0
 10
528.971999
 20
191.314320
 30
0.0
  0
LWPOLYLINE
  5
11d
100
AcDbEntity
  8
Layer_1
 62
5
100
AcDbPolyline
 90
4
 70
1
 10
749.190570
 20
208.256700
 30
0.0
 10
778.015940
 20
208.255700
 30
0.0
 10
754.698140
 20
191.314320
 30
0.0
 10
725.878820
 20
191.314320
 30
0.0
  0
LWPOLYLINE
  5
11e
100
AcDbEntity
  8
Layer_1
 62
5
100
AcDbPolyline
 90
4
 70
1
 10
946.786820
 20
208.256700
 30
0.0
 10
975.612190
 20
208.255700
 30
0.0
 10
952.294400
 20
191.314320
 30
0.0
 10
923.475080
 20
191.314320
 30
0.0
  0
LWPOLYLINE
  5
11f
100
AcDbEntity
  8
Layer_1
 62
5
100
AcDbPolyline
 90
10
 70
1
 10
453.750215
 20
191.295510
 30
0.0
 10
482.584821
 20
191.295510
 30
0.0
 10
459.259231
 20
208.250060
 30
0.0
 10
468.162731
 20
235.656150
 30
0.0
 10
444.843895
 20
218.723060
 30
0.0
 10
421.521220
 20
235.665860
 30
0.0
 10
430.430830
 20
208.248870
 30
0.0
 10
407.122590
 20
191.312940
 30
0.0
 10
435.936060
 20
191.303940
 30
0.0
 10
444.839765
 20
163.905150
 30
0.0
  0
LWPOLYLINE
  5
120
100
AcDbEntity
  8
Layer_1
 62
5
100
AcDbPolyline
 90
10
 70
1
 10
651.342830
 20
191.295510
 30
0.0
 10
680.177440
 20
191.295510
 30
0.0
 10
656.851850
 20
208.250060
 30
0.0
 10
665.755350
 20
235.656150
 30
0.0
 10
642.436510
 20
218.723060
 30
0.0
 10
619.113829
 20
235.665860
 30
0.0
 10
628.023439
 20
208.248870
 30
0.0
 10
604.715204
 20
191.312940
 30
0.0
 10
633.528675
 20
191.303940
 30
0.0
 10
642.432380
 20
163.905150
 30
0.0
  0
LWPOLYLINE
  5
121
100
AcDbEntity
  8
Layer_1
 62
5
100
AcDbPolyline
 90
10
 70
1
 10
848.439290
 20
191.295500
 30
0.0
 10
877.273900
 20
191.295500
 30
0.0
 10
853.948310
 20
208.250050
 30
0.0
 10
862.851810
 20
235.656150
 30
0.0
 10
839.532970
 20
218.723050
 30
0.0
 10
816.210290
 20
235.665860
 30
0.0
 10
825.119900
 20
208.248860
 30
0.0
 10
801.811660
 20
191.312930
 30
0.0
 10
830.625130
 20
191.303930
 30
0.0
 10
839.528840
 20
163.905140
 30
0.0
  0
LWPOLYLINE
  5
122
100
AcDbEntity
  8
Layer_1
 62
5
100
AcDbPolyline
 90
10
 70
1
 10
1046.032850
 20
191.295500
 30
0.0
 10
1074.867460
 20
191.295500
 30
0.0
 10
1051.541870
 20
208.250050
 30
0.0
 10
1060.445370
 20
235.656150
 30
0.0
 10
1037.126530
 20
218.723050
 30
0.0
 10
1013.803850
 20
235.665860
 30
0.0
 10
1022.713460
 20
208.248860
 30
0.0
 10
999.405220
 20
191.312930
 30
0.0
 10
1028.218690
 20
191.303930
 30
0.0
 10
1037.122400
 20
163.905140
 30
0.0
  0
LWPOLYLINE
  5
123
100
AcDbEntity
  8
Layer_1
 62
5
100
AcDbPolyline
 90
108
 70
1
 10
157.691120
 20
652.934550
 30
0.0
 10
157.691120
 20
617.804910
 30
0.0
 10
185.918340
 20
617.804400
 30
0.0
 10
162.600380
 20
600.862790
 30
0.0
 10
157.691120
 20
600.862790
 30
0.0
 10
157.691120
 20
509.234287
 30
0.0
 10
191.925210
 20
509.234287
 30
0.0
 10
185.455830
 20
528.669790
 30
0.0
 10
208.925200
 20
511.595897
 30
0.0
 10
232.395090
 20
528.671860
 30
0.0
 10
225.950520
 20
509.238417
 30
0.0
 10
301.282870
 20
509.237907
 30
0.0
 10
307.722790
 20
529.060470
 30
0.0
 10
314.163740
 20
509.237907
 30
0.0
 10
389.524510
 20
509.237907
 30
0.0
 10
383.195700
 20
528.712170
 30
0.0
 10
406.518310
 20
511.769527
 30
0.0
 10
429.837300
 20
528.702350
 30
0.0
 10
423.513140
 20
509.237387
 30
0.0
 10
498.871323
 20
509.237387
 30
0.0
 10
505.311240
 20
529.060470
 30
0.0
 10
511.752190
 20
509.237387
 30
0.0
 10
587.117099
 20
509.237387
 30
0.0
 10
580.789320
 20
528.720440
 30
0.0
 10
604.111928
 20
511.777797
 30
0.0
 10
627.430918
 20
528.710620
 30
0.0
 10
621.106756
 20
509.245137
 30
0.0
 10
696.463920
 20
509.237137
 30
0.0
 10
702.904870
 20
529.060740
 30
0.0
 10
709.345820
 20
509.236617
 30
0.0
 10
784.730370
 20
509.236617
 30
0.0
 10
778.401040
 20
528.712950
 30
0.0
 10
801.723640
 20
511.769797
 30
0.0
 10
825.042630
 20
528.703130
 30
0.0
 10
818.717960
 20
509.236107
 30
0.0
 10
894.057540
 20
509.236107
 30
0.0
 10
900.497980
 20
529.060740
 30
0.0
 10
906.939440
 20
509.236107
 30
0.0
 10
982.332780
 20
509.236107
 30
0.0
 10
976.003960
 20
528.710890
 30
0.0
 10
999.326570
 20
511.768247
 30
0.0
 10
1022.645560
 20
528.701070
 30
0.0
 10
1016.321400
 20
509.235587
 30
0.0
 10
1091.650130
 20
509.235587
 30
0.0
 10
1098.091080
 20
529.060740
 30
0.0
 10
1104.533070
 20
509.235067
 30
0.0
 10
1157.691060
 20
509.235067
 30
0.0
 10
1157.690550
 20
605.817800
 30
0.0
 10
1150.870810
 20
600.862540
 30
0.0
 10
1122.051380
 20
600.862540
 30
0.0
 10
1145.363130
 20
617.805180
 30
0.0
 10
1157.690030
 20
617.804180
 30
0.0
 10
1157.691030
 20
652.934330
 30
0.0
 10
1147.407420
 20
652.934330
 30
0.0
 10
1135.871690
 20
644.553970
 30
0.0
 10
1138.595040
 20
652.934330
 30
0.0
 10
1104.363020
 20
652.932330
 30
0.0
 10
1106.999040
 20
644.818620
 30
0.0
 10
1098.093640
 20
617.410470
 30
0.0
 10
1089.184100
 20
644.816030
 30
0.0
 10
1091.822190
 20
652.933880
 30
0.0
 10
982.189080
 20
652.932880
 30
0.0
 10
984.907780
 20
644.564400
 30
0.0
 10
973.382900
 20
652.932880
 30
0.0
 10
949.799850
 20
652.932880
 30
0.0
 10
938.266180
 20
644.554580
 30
0.0
 10
940.988500
 20
652.932880
 30
0.0
 10
906.769400
 20
652.932880
 30
0.0
 10
909.405930
 20
644.819680
 30
0.0
 10
900.500010
 20
617.410500
 30
0.0
 10
891.591000
 20
644.817100
 30
0.0
 10
894.228560
 20
652.933920
 30
0.0
 10
784.584120
 20
652.933920
 30
0.0
 10
787.303340
 20
644.564400
 30
0.0
 10
775.776910
 20
652.933920
 30
0.0
 10
752.196430
 20
652.933920
 30
0.0
 10
740.661740
 20
644.554580
 30
0.0
 10
743.384570
 20
652.933920
 30
0.0
 10
709.176320
 20
652.933920
 30
0.0
 10
711.812850
 20
644.819680
 30
0.0
 10
702.906940
 20
617.411020
 30
0.0
 10
693.997400
 20
644.817100
 30
0.0
 10
696.635490
 20
652.933920
 30
0.0
 10
586.978090
 20
652.933920
 30
0.0
 10
589.697304
 20
644.564620
 30
0.0
 10
578.171392
 20
652.934140
 30
0.0
 10
554.590403
 20
652.934140
 30
0.0
 10
543.056223
 20
644.554800
 30
0.0
 10
545.779054
 20
652.934140
 30
0.0
 10
511.583209
 20
652.934140
 30
0.0
 10
514.219223
 20
644.819900
 30
0.0
 10
505.313824
 20
617.411240
 30
0.0
 10
496.404290
 20
644.817320
 30
0.0
 10
499.041855
 20
652.934140
 30
0.0
 10
389.372070
 20
652.934140
 30
0.0
 10
392.091280
 20
644.564100
 30
0.0
 10
380.564860
 20
652.934140
 30
0.0
 10
356.984900
 20
652.934140
 30
0.0
 10
345.449690
 20
644.554290
 30
0.0
 10
348.173030
 20
652.934140
 30
0.0
 10
313.990110
 20
652.934140
 30
0.0
 10
316.626120
 20
644.819900
 30
0.0
 10
307.720720
 20
617.411240
 30
0.0
 10
298.811190
 20
644.817320
 30
0.0
 10
301.448750
 20
652.934650
 30
0.0
 10
191.601200
 20
652.934650
 30
0.0
 10
194.223260
 20
644.864340
 30
0.0
 10
183.112310
 20
652.934650
 30
0.0
  0
LWPOLYLINE
  5
124
100
AcDbEntity
  8
Layer_1
 62
5
100
AcDbPolyline
 90
10
 70
1
 10
255.952070
 20
600.854330
 30
0.0
 10
284.786680
 20
600.854330
 30
0.0
 10
261.461090
 20
617.808880
 30
0.0
 10
270.364590
 20
645.214970
 30
0.0
 10
247.045740
 20
628.281880
 30
0.0
 10
223.723070
 20
645.224680
 30
0.0
 10
232.632670
 20
617.807690
 30
0.0
 10
209.324430
 20
600.871760
 30
0.0
 10
238.137900
 20
600.862760
 30
0.0
 10
247.041610
 20
573.463970
 30
0.0
  0
LWPOLYLINE
  5
125
100
AcDbEntity
  8
Layer_1
 62
5
100
AcDbPolyline
 90
4
 70
1
 10
200.396780
 20
573.443200
 30
0.0
 10
223.716180
 20
556.498970
 30
0.0
 10
194.893800
 20
556.498970
 30
0.0
 10
171.578480
 20
573.438540
 30
0.0
  0
LWPOLYLINE
  5
126
100
AcDbEntity
  8
Layer_1
 62
5
100
AcDbPolyline
 90
4
 70
1
 10
270.249710
 20
556.499710
 30
0.0
 10
293.570720
 20
573.441730
 30
0.0
 10
284.664120
 20
546.030020
 30
0.0
 10
261.348800
 20
529.090450
 30
0.0
  0
LWPOLYLINE
  5
127
100
AcDbEntity
  8
Layer_1
 62
5
100
AcDbPolyline
 90
4
 70
1
 10
331.522920
 20
546.138790
 30
0.0
 10
322.616690
 20
573.553750
 30
0.0
 10
345.934500
 20
556.612390
 30
0.0
 10
354.840160
 20
529.203590
 30
0.0
  0
LWPOLYLINE
  5
128
100
AcDbEntity
  8
Layer_1
 62
5
100
AcDbPolyline
 90
4
 70
1
 10
397.992390
 20
573.349180
 30
0.0
 10
421.311790
 20
556.404950
 30
0.0
 10
392.489410
 20
556.404950
 30
0.0
 10
369.174090
 20
573.344520
 30
0.0
  0
LWPOLYLINE
  5
129
100
AcDbEntity
  8
Layer_1
 62
5
100
AcDbPolyline
 90
4
 70
1
 10
467.845317
 20
556.405690
 30
0.0
 10
491.166327
 20
573.347710
 30
0.0
 10
482.259727
 20
545.936000
 30
0.0
 10
458.944407
 20
528.996430
 30
0.0
  0
LWPOLYLINE
  5
12a
100
AcDbEntity
  8
Layer_1
 62
5
100
AcDbPolyline
 90
4
 70
1
 10
529.118527
 20
546.044770
 30
0.0
 10
520.212297
 20
573.459730
 30
0.0
 10
543.530107
 20
556.518370
 30
0.0
 10
552.435767
 20
529.109570
 30
0.0
  0
LWPOLYLINE
  5
12b
100
AcDbEntity
  8
Layer_1
 62
5
100
AcDbPolyline
 90
4
 70
1
 10
595.585005
 20
573.355150
 30
0.0
 10
618.904408
 20
556.410920
 30
0.0
 10
590.082025
 20
556.410920
 30
0.0
 10
566.766705
 20
573.350490
 30
0.0
  0
LWPOLYLINE
  5
12c
100
AcDbEntity
  8
Layer_1
 62
5
100
AcDbPolyline
 90
4
 70
1
 10
665.437940
 20
556.411660
 30
0.0
 10
688.758950
 20
573.353680
 30
0.0
 10
679.852350
 20
545.941970
 30
0.0
 10
656.537030
 20
529.002400
 30
0.0
  0
LWPOLYLINE
  5
12d
100
AcDbEntity
  8
Layer_1
 62
5
100
AcDbPolyline
 90
4
 70
1
 10
726.711150
 20
546.050740
 30
0.0
 10
717.804920
 20
573.465700
 30
0.0
 10
741.122730
 20
556.524340
 30
0.0
 10
750.028400
 20
529.115540
 30
0.0
  0
LWPOLYLINE
  5
12e
100
AcDbEntity
  8
Layer_1
 62
5
100
AcDbPolyline
 90
5
 70
1
 10
793.176910
 20
573.533730
 30
0.0
 10
816.496310
 20
556.589500
 30
0.0
 10
787.673930
 20
556.589500
 30
0.0
 10
764.428470
 20
573.478320
 30
0.0
 10
764.358570
 20
573.529020
 30
0.0
  0
LWPOLYLINE
  5
12f
100
AcDbEntity
  8
Layer_1
 62
5
100
AcDbPolyline
 90
4
 70
1
 10
863.029860
 20
556.590240
 30
0.0
 10
886.350870
 20
573.532260
 30
0.0
 10
877.444260
 20
546.120550
 30
0.0
 10
854.128940
 20
529.180980
 30
0.0
  0
LWPOLYLINE
  5
130
100
AcDbEntity
  8
Layer_1
 62
5
100
AcDbPolyline
 90
4
 70
1
 10
924.303060
 20
546.229320
 30
0.0
 10
915.396830
 20
573.644280
 30
0.0
 10
938.714640
 20
556.702920
 30
0.0
 10
947.620300
 20
529.294120
 30
0.0
  0
LWPOLYLINE
  5
131
100
AcDbEntity
  8
Layer_1
 62
5
100
AcDbPolyline
 90
4
 70
1
 10
990.843870
 20
573.558030
 30
0.0
 10
1014.163280
 20
556.613800
 30
0.0
 10
985.340900
 20
556.613800
 30
0.0
 10
962.025580
 20
573.553370
 30
0.0
  0
LWPOLYLINE
  5
132
100
AcDbEntity
  8
Layer_1
 62
5
100
AcDbPolyline
 90
4
 70
1
 10
1060.696820
 20
556.614540
 30
0.0
 10
1084.017830
 20
573.556560
 30
0.0
 10
1075.111230
 20
546.144850
 30
0.0
 10
1051.795910
 20
529.205280
 30
0.0
  0
LWPOLYLINE
  5
133
100
AcDbEntity
  8
Layer_1
 62
5
100
AcDbPolyline
 90
4
 70
1
 10
1121.970030
 20
546.253620
 30
0.0
 10
1113.063790
 20
573.668580
 30
0.0
 10
1136.381600
 20
556.727220
 30
0.0
 10
1145.287270
 20
529.318420
 30
0.0
  0
LWPOLYLINE
  5
134
100
AcDbEntity
  8
Layer_1
 62
5
100
AcDbPolyline
 90
4
 70
1
 10
354.687560
 20
617.815520
 30
0.0
 10
383.512930
 20
617.814520
 30
0.0
 10
360.195120
 20
600.873140
 30
0.0
 10
331.375800
 20
600.873140
 30
0.0
  0
LWPOLYLINE
  5
135
100
AcDbEntity
  8
Layer_1
 62
5
100
AcDbPolyline
 90
4
 70
1
 10
552.283798
 20
617.815520
 30
0.0
 10
581.109168
 20
617.814520
 30
0.0
 10
557.791368
 20
600.873140
 30
0.0
 10
528.972048
 20
600.873140
 30
0.0
  0
LWPOLYLINE
  5
136
100
AcDbEntity
  8
Layer_1
 62
5
100
AcDbPolyline
 90
4
 70
1
 10
749.190620
 20
617.815520
 30
0.0
 10
778.015990
 20
617.814520
 30
0.0
 10
754.698190
 20
600.873140
 30
0.0
 10
725.878870
 20
600.873140
 30
0.0
  0
LWPOLYLINE
  5
137
100
AcDbEntity
  8
Layer_1
 62
5
100
AcDbPolyline
 90
4
 70
1
 10
946.786870
 20
617.815520
 30
0.0
 10
975.612240
 20
617.814520
 30
0.0
 10
952.294450
 20
600.873140
 30
0.0
 10
923.475130
 20
600.873140
 30
0.0
  0
LWPOLYLINE
  5
138
100
AcDbEntity
  8
Layer_1
 62
5
100
AcDbPolyline
 90
10
 70
1
 10
453.750260
 20
600.854330
 30
0.0
 10
482.584870
 20
600.854330
 30
0.0
 10
459.259280
 20
617.808880
 30
0.0
 10
468.162780
 20
645.214970
 30
0.0
 10
444.843940
 20
628.281880
 30
0.0
 10
421.521270
 20
645.224680
 30
0.0
 10
430.430880
 20
617.807690
 30
0.0
 10
407.122640
 20
600.871760
 30
0.0
 10
435.936100
 20
600.862760
 30
0.0
 10
444.839810
 20
573.463970
 30
0.0
  0
LWPOLYLINE
  5
139
100
AcDbEntity
  8
Layer_1
 62
5
100
AcDbPolyline
 90
10
 70
1
 10
651.342880
 20
600.854330
 30
0.0
 10
680.177490
 20
600.854330
 30
0.0
 10
656.851900
 20
617.808880
 30
0.0
 10
665.755400
 20
645.214970
 30
0.0
 10
642.436560
 20
628.281880
 30
0.0
 10
619.113878
 20
645.224680
 30
0.0
 10
628.023488
 20
617.807690
 30
0.0
 10
604.715253
 20
600.871760
 30
0.0
 10
633.528730
 20
600.862760
 30
0.0
 10
642.432430
 20
573.463970
 30
0.0
  0
LWPOLYLINE
  5
13a
100
AcDbEntity
  8
Layer_1
 62
5
100
AcDbPolyline
 90
10
 70
1
 10
848.439340
 20
600.854320
 30
0.0
 10
877.273950
 20
600.854320
 30
0.0
 10
853.948360
 20
617.808870
 30
0.0
 10
862.851860
 20
645.214970
 30
0.0
 10
839.533020
 20
628.281870
 30
0.0
 10
816.210340
 20
645.224680
 30
0.0
 10
825.119950
 20
617.807680
 30
0.0
 10
801.811710
 20
600.871750
 30
0.0
 10
830.625180
 20
600.862750
 30
0.0
 10
839.528890
 20
573.463960
 30
0.0
  0
LWPOLYLINE
  5
13b
100
AcDbEntity
  8
Layer_1
 62
5
100
AcDbPolyline
 90
10
 70
1
 10
1046.032900
 20
600.854320
 30
0.0
 10
1074.867510
 20
600.854320
 30
0.0
 10
1051.541920
 20
617.808870
 30
0.0
 10
1060.445420
 20
645.214970
 30
0.0
 10
1037.126580
 20
628.281870
 30
0.0
 10
1013.803900
 20
645.224680
 30
0.0
 10
1022.713510
 20
617.807680
 30
0.0
 10
999.405270
 20
600.871750
 30
0.0
 10
1028.218740
 20
600.862750
 30
0.0
 10
1037.122450
 20
573.463960
 30
0.0
  0
LWPOLYLINE
  5
13c
100
AcDbEntity
  8
Layer_1
 62
1
100
AcDbPolyline
 90
6
 70
0
 10
225.910520
 20
652.934550
 30
0.0
 10
223.748640
 20
645.199130
 30
0.0
 10
194.219810
 20
644.866590
 30
0.0
 10
185.907650
 20
617.790560
 30
0.0
 10
209.324900
 20
600.874910
 30
0.0
 10
200.397980
 20
573.445930
 30
0.0
  0
LWPOLYLINE
  5
13d
100
AcDbEntity
  8
Layer_1
 62
1
100
AcDbPolyline
 90
3
 70
0
 10
162.599420
 20
600.862790
 30
0.0
 10
171.577860
 20
573.433040
 30
0.0
 10
157.691090
 20
563.272990
 30
0.0
  0
LWPOLYLINE
  5
13e
100
AcDbEntity
  8
Layer_1
 62
1
100
AcDbPolyline
 90
3
 70
0
 10
194.893060
 20
556.498570
 30
0.0
 10
185.455750
 20
528.680080
 30
0.0
 10
157.691090
 20
528.680080
 30
0.0
  0
LWPOLYLINE
  5
13f
100
AcDbEntity
  8
Layer_1
 62
1
100
AcDbPolyline
 90
6
 70
0
 10
270.249230
 20
556.498170
 30
0.0
 10
247.041910
 20
573.466060
 30
0.0
 10
223.717510
 20
556.498470
 30
0.0
 10
232.395070
 20
528.671320
 30
0.0
 10
261.315070
 20
528.996440
 30
0.0
 10
267.737990
 20
509.234287
 30
0.0
  0
LWPOLYLINE
  5
140
100
AcDbEntity
  8
Layer_1
 62
1
100
AcDbPolyline
 90
3
 70
0
 10
496.402949
 20
644.814970
 30
0.0
 10
468.162884
 20
645.213140
 30
0.0
 10
465.081882
 20
652.928350
 30
0.0
  0
LWPOLYLINE
  5
141
100
AcDbEntity
  8
Layer_1
 62
1
100
AcDbPolyline
 90
5
 70
1
 10
284.786680
 20
600.873140
 30
0.0
 10
293.570720
 20
573.441750
 30
0.0
 10
322.616680
 20
573.553750
 30
0.0
 10
331.375790
 20
600.873140
 30
0.0
 10
307.715850
 20
617.426130
 30
0.0
  0
LWPOLYLINE
  5
142
100
AcDbEntity
  8
Layer_1
 62
1
100
AcDbPolyline
 90
3
 70
0
 10
514.220899
 20
644.817600
 30
0.0
 10
543.057875
 20
644.557150
 30
0.0
 10
552.285483
 20
617.815520
 30
0.0
  0
LWPOLYLINE
  5
143
100
AcDbEntity
  8
Layer_1
 62
1
100
AcDbPolyline
 90
3
 70
0
 10
284.664130
 20
546.030020
 30
0.0
 10
307.723860
 20
529.057140
 30
0.0
 10
331.522920
 20
546.138790
 30
0.0
  0
LWPOLYLINE
  5
144
100
AcDbEntity
  8
Layer_1
 62
1
100
AcDbPolyline
 90
3
 70
0
 10
360.195100
 20
600.873140
 30
0.0
 10
369.174080
 20
573.349200
 30
0.0
 10
345.935300
 20
556.609880
 30
0.0
  0
LWPOLYLINE
  5
145
100
AcDbEntity
  8
Layer_1
 62
1
100
AcDbPolyline
 90
4
 70
0
 10
392.486710
 20
556.404950
 30
0.0
 10
383.197040
 20
528.709330
 30
0.0
 10
354.839800
 20
529.203030
 30
0.0
 10
348.281060
 20
509.322827
 30
0.0
  0
LWPOLYLINE
  5
146
100
AcDbEntity
  8
Layer_1
 62
1
100
AcDbPolyline
 90
6
 70
0
 10
423.825700
 20
652.934550
 30
0.0
 10
421.518950
 20
645.224680
 30
0.0
 10
392.092910
 20
644.562160
 30
0.0
 10
383.512940
 20
617.815500
 30
0.0
 10
407.122640
 20
600.873120
 30
0.0
 10
397.986590
 20
573.349160
 30
0.0
  0
LWPOLYLINE
  5
147
100
AcDbEntity
  8
Layer_1
 62
1
100
AcDbPolyline
 90
5
 70
1
 10
482.584870
 20
600.854990
 30
0.0
 10
491.166327
 20
573.347710
 30
0.0
 10
520.212297
 20
573.459730
 30
0.0
 10
528.972048
 20
600.873140
 30
0.0
 10
505.314221
 20
617.407230
 30
0.0
  0
LWPOLYLINE
  5
148
100
AcDbEntity
  8
Layer_1
 62
1
100
AcDbPolyline
 90
3
 70
0
 10
298.790310
 20
644.888910
 30
0.0
 10
270.360840
 20
645.203850
 30
0.0
 10
267.192110
 20
652.934550
 30
0.0
  0
LWPOLYLINE
  5
149
100
AcDbEntity
  8
Layer_1
 62
1
100
AcDbPolyline
 90
3
 70
0
 10
316.621340
 20
644.816770
 30
0.0
 10
345.470440
 20
644.564220
 30
0.0
 10
354.623270
 20
617.815520
 30
0.0
  0
LWPOLYLINE
  5
14a
100
AcDbEntity
  8
Layer_1
 62
1
100
AcDbPolyline
 90
3
 70
0
 10
557.828487
 20
600.873140
 30
0.0
 10
566.766705
 20
573.348310
 30
0.0
 10
543.520774
 20
556.510390
 30
0.0
  0
LWPOLYLINE
  5
14b
100
AcDbEntity
  8
Layer_1
 62
1
100
AcDbPolyline
 90
4
 70
0
 10
590.101717
 20
556.410920
 30
0.0
 10
580.794804
 20
528.712060
 30
0.0
 10
552.435767
 20
529.109570
 30
0.0
 10
546.089352
 20
509.247297
 30
0.0
  0
LWPOLYLINE
  5
14c
100
AcDbEntity
  8
Layer_1
 62
1
100
AcDbPolyline
 90
6
 70
0
 10
621.401984
 20
652.924830
 30
0.0
 10
619.112767
 20
645.224680
 30
0.0
 10
589.697937
 20
644.565160
 30
0.0
 10
581.109168
 20
617.815520
 30
0.0
 10
604.715253
 20
600.872660
 30
0.0
 10
595.583761
 20
573.355150
 30
0.0
  0
LWPOLYLINE
  5
14d
100
AcDbEntity
  8
Layer_1
 62
1
100
AcDbPolyline
 90
3
 70
0
 10
482.286278
 20
545.955470
 30
0.0
 10
505.310924
 20
529.063570
 30
0.0
 10
529.119772
 20
546.025950
 30
0.0
  0
LWPOLYLINE
  5
14e
100
AcDbEntity
  8
Layer_1
 62
1
100
AcDbPolyline
 90
6
 70
0
 10
467.845344
 20
556.402900
 30
0.0
 10
444.840596
 20
573.463800
 30
0.0
 10
421.329110
 20
556.395330
 30
0.0
 10
429.837000
 20
528.700220
 30
0.0
 10
458.944407
 20
528.996430
 30
0.0
 10
465.250196
 20
509.242237
 30
0.0
  0
SPLINE
  5
14f
100
AcDbEntity
  8
Layer_1
 62
1
100
AcDbSpline
 70
8
 71
3
 72
8
 73
4
 74
0
 40
0
 40
0
 40
0
 40
0
 40
1
 40
1
 40
1
 40
1
 10
665.754820
 20
645.213170
 30
0.0
 10
664.823050
 20
647.527000
 30
0.0
 10
663.621810
 20
650.312410
 30
0.0
 10
662.555300
 20
652.862030
 30
0.0
  0
LWPOLYLINE
  5
150
100
AcDbEntity
  8
Layer_1
 62
1
100
AcDbPolyline
 90
2
 70
0
 10
693.997160
 20
644.818230
 30
0.0
 10
665.754820
 20
645.213170
 30
0.0
  0
LWPOLYLINE
  5
151
100
AcDbEntity
  8
Layer_1
 62
1
100
AcDbPolyline
 90
3
 70
0
 10
711.808630
 20
644.834060
 30
0.0
 10
740.661050
 20
644.556160
 30
0.0
 10
749.191630
 20
617.815520
 30
0.0
  0
LWPOLYLINE
  5
152
100
AcDbEntity
  8
Layer_1
 62
1
100
AcDbPolyline
 90
5
 70
1
 10
680.177490
 20
600.854680
 30
0.0
 10
688.758950
 20
573.353680
 30
0.0
 10
717.804920
 20
573.465700
 30
0.0
 10
725.878870
 20
600.873140
 30
0.0
 10
702.907860
 20
617.405460
 30
0.0
  0
LWPOLYLINE
  5
153
100
AcDbEntity
  8
Layer_1
 62
1
100
AcDbPolyline
 90
3
 70
0
 10
679.852930
 20
545.942640
 30
0.0
 10
702.905520
 20
529.063490
 30
0.0
 10
726.708570
 20
546.049020
 30
0.0
  0
LWPOLYLINE
  5
154
100
AcDbEntity
  8
Layer_1
 62
1
100
AcDbPolyline
 90
6
 70
0
 10
665.437640
 20
556.409720
 30
0.0
 10
642.597170
 20
573.226650
 30
0.0
 10
618.904408
 20
556.410920
 30
0.0
 10
627.431164
 20
528.710800
 30
0.0
 10
656.537030
 20
529.002400
 30
0.0
 10
662.774100
 20
509.273767
 30
0.0
  0
LWPOLYLINE
  5
155
100
AcDbEntity
  8
Layer_1
 62
1
100
AcDbPolyline
 90
3
 70
0
 10
754.699990
 20
600.873140
 30
0.0
 10
764.358610
 20
573.526770
 30
0.0
 10
741.125150
 20
556.524490
 30
0.0
  0
LWPOLYLINE
  5
156
100
AcDbEntity
  8
Layer_1
 62
1
100
AcDbPolyline
 90
4
 70
0
 10
787.674050
 20
556.589500
 30
0.0
 10
778.399710
 20
528.714480
 30
0.0
 10
750.028400
 20
529.115540
 30
0.0
 10
743.639880
 20
509.436627
 30
0.0
  0
LWPOLYLINE
  5
157
100
AcDbEntity
  8
Layer_1
 62
1
100
AcDbPolyline
 90
6
 70
0
 10
818.733470
 20
652.838110
 30
0.0
 10
816.210070
 20
645.224680
 30
0.0
 10
787.303840
 20
644.564400
 30
0.0
 10
778.015990
 20
617.815520
 30
0.0
 10
801.811710
 20
600.867290
 30
0.0
 10
793.174990
 20
573.533420
 30
0.0
  0
LWPOLYLINE
  5
158
100
AcDbEntity
  8
Layer_1
 62
1
100
AcDbPolyline
 90
3
 70
0
 10
891.592170
 20
644.816870
 30
0.0
 10
862.851430
 20
645.212690
 30
0.0
 10
860.045240
 20
652.862030
 30
0.0
  0
LWPOLYLINE
  5
159
100
AcDbEntity
  8
Layer_1
 62
1
100
AcDbPolyline
 90
3
 70
0
 10
909.405670
 20
644.818810
 30
0.0
 10
938.266490
 20
644.552150
 30
0.0
 10
946.787060
 20
617.815520
 30
0.0
  0
LWPOLYLINE
  5
15a
100
AcDbEntity
  8
Layer_1
 62
1
100
AcDbPolyline
 90
5
 70
1
 10
877.273950
 20
600.853620
 30
0.0
 10
886.350870
 20
573.532260
 30
0.0
 10
915.396830
 20
573.644280
 30
0.0
 10
923.475130
 20
600.873140
 30
0.0
 10
900.499620
 20
617.407730
 30
0.0
  0
LWPOLYLINE
  5
15b
100
AcDbEntity
  8
Layer_1
 62
1
100
AcDbPolyline
 90
3
 70
0
 10
877.443710
 20
546.119600
 30
0.0
 10
900.498510
 20
529.061370
 30
0.0
 10
924.300970
 20
546.226780
 30
0.0
  0
LWPOLYLINE
  5
15c
100
AcDbEntity
  8
Layer_1
 62
1
100
AcDbPolyline
 90
6
 70
0
 10
863.025640
 20
556.588840
 30
0.0
 10
839.528550
 20
573.463960
 30
0.0
 10
816.496310
 20
556.589500
 30
0.0
 10
825.041880
 20
528.701390
 30
0.0
 10
854.128940
 20
529.180980
 30
0.0
 10
860.133610
 20
509.323377
 30
0.0
  0
LWPOLYLINE
  5
15d
100
AcDbEntity
  8
Layer_1
 62
1
100
AcDbPolyline
 90
3
 70
0
 10
952.497010
 20
600.873140
 30
0.0
 10
962.025580
 20
573.558030
 30
0.0
 10
938.717910
 20
556.657530
 30
0.0
  0
LWPOLYLINE
  5
15e
100
AcDbEntity
  8
Layer_1
 62
1
100
AcDbPolyline
 90
4
 70
0
 10
985.342490
 20
556.613800
 30
0.0
 10
976.004350
 20
528.711060
 30
0.0
 10
947.620300
 20
529.294120
 30
0.0
 10
941.129820
 20
509.436627
 30
0.0
  0
SPLINE
  5
15f
100
AcDbEntity
  8
Layer_1
 62
1
100
AcDbSpline
 70
8
 71
3
 72
8
 73
4
 74
0
 40
0
 40
0
 40
0
 40
0
 40
1
 40
1
 40
1
 40
1
 10
975.603010
 20
617.820880
 30
0.0
 10
983.375720
 20
612.157760
 30
0.0
 10
990.965160
 20
606.945620
 30
0.0
 10
999.401380
 20
600.879150
 30
0.0
  0
LWPOLYLINE
  5
160
100
AcDbEntity
  8
Layer_1
 62
1
100
AcDbPolyline
 90
4
 70
0
 10
1016.328760
 20
652.920320
 30
0.0
 10
1013.804030
 20
645.224680
 30
0.0
 10
984.907510
 20
644.562830
 30
0.0
 10
975.603010
 20
617.820880
 30
0.0
  0
LWPOLYLINE
  5
161
100
AcDbEntity
  8
Layer_1
 62
1
100
AcDbPolyline
 90
2
 70
0
 10
999.401380
 20
600.879150
 30
0.0
 10
990.833580
 20
573.563390
 30
0.0
  0
LWPOLYLINE
  5
162
100
AcDbEntity
  8
Layer_1
 62
1
100
AcDbPolyline
 90
3
 70
0
 10
1088.771090
 20
644.742080
 30
0.0
 10
1060.315630
 20
645.134190
 30
0.0
 10
1057.332090
 20
652.862030
 30
0.0
  0
LWPOLYLINE
  5
163
100
AcDbEntity
  8
Layer_1
 62
1
100
AcDbPolyline
 90
5
 70
1
 10
1074.867510
 20
600.853330
 30
0.0
 10
1084.017830
 20
573.556560
 30
0.0
 10
1113.063790
 20
573.668580
 30
0.0
 10
1122.053380
 20
600.863800
 30
0.0
 10
1098.093720
 20
617.409260
 30
0.0
  0
LWPOLYLINE
  5
164
100
AcDbEntity
  8
Layer_1
 62
1
100
AcDbPolyline
 90
3
 70
0
 10
1075.112320
 20
546.144150
 30
0.0
 10
1098.091290
 20
529.059560
 30
0.0
 10
1121.967840
 20
546.250960
 30
0.0
  0
LWPOLYLINE
  5
165
100
AcDbEntity
  8
Layer_1
 62
1
100
AcDbPolyline
 90
6
 70
0
 10
1060.695380
 20
556.612400
 30
0.0
 10
1037.122760
 20
573.463960
 30
0.0
 10
1014.163280
 20
556.613800
 30
0.0
 10
1022.646380
 20
528.700080
 30
0.0
 10
1051.795910
 20
529.205280
 30
0.0
 10
1058.059440
 20
509.737417
 30
0.0
  0
LWPOLYLINE
  5
166
100
AcDbEntity
  8
Layer_1
 62
1
100
AcDbPolyline
 90
3
 70
0
 10
1107.000980
 20
644.724700
 30
0.0
 10
1135.824560
 20
644.459090
 30
0.0
 10
1145.062430
 20
617.720420
 30
0.0
  0
LWPOLYLINE
  5
167
100
AcDbEntity
  8
Layer_1
 62
1
100
AcDbPolyline
 90
4
 70
0
 10
1150.869410
 20
600.862720
 30
0.0
 10
1156.991230
 20
581.178390
 30
0.0
 10
1156.972930
 20
571.469790
 30
0.0
 10
1136.378520
 20
556.725910
 30
0.0
  0
LWPOLYLINE
  5
168
100
AcDbEntity
  8
Layer_1
 62
1
100
AcDbPolyline
 90
3
 70
0
 10
1157.568560
 20
529.302090
 30
0.0
 10
1145.287270
 20
529.318390
 30
0.0
 10
1138.885300
 20
509.333477
 30
0.0
  0
LWPOLYLINE
  5
169
100
AcDbEntity
  8
Layer_1
 62
1
100
AcDbPolyline
 90
5
 70
1
 10
124.602461
 20
290.179672
 30
0.0
 10
95.773994
 20
290.179671
 30
0.0
 10
86.865509
 20
317.597167
 30
0.0
 10
110.188219
 20
334.542114
 30
0.0
 10
133.510942
 20
317.597169
 30
0.0
  0
LWPOLYLINE
  5
16a
100
AcDbEntity
  8
Layer_1
 62
1
100
AcDbPolyline
 90
5
 70
1
 10
156.835738
 20
334.544831
 30
0.0
 10
133.513740
 20
317.598893
 30
0.0
 10
110.190306
 20
334.542846
 30
0.0
 10
119.097620
 20
361.960718
 30
0.0
 10
147.926087
 20
361.961947
 30
0.0
  0
LWPOLYLINE
  5
16b
100
AcDbEntity
  8
Layer_1
 62
1
100
AcDbPolyline
 90
5
 70
1
 10
110.187898
 20
334.542611
 30
0.0
 10
86.865900
 20
317.596673
 30
0.0
 10
63.542466
 20
334.540626
 30
0.0
 10
72.449780
 20
361.958498
 30
0.0
 10
101.278247
 20
361.959727
 30
0.0
  0
LWPOLYLINE
  5
16c
100
AcDbEntity
  8
Layer_1
 62
1
100
AcDbPolyline
 90
5
 70
1
 10
101.278261
 20
361.958332
 30
0.0
 10
72.449794
 20
361.958331
 30
0.0
 10
63.541309
 20
389.375827
 30
0.0
 10
86.864019
 20
406.320774
 30
0.0
 10
110.186742
 20
389.375829
 30
0.0
  0
LWPOLYLINE
  5
16d
100
AcDbEntity
  8
Layer_1
 62
1
100
AcDbPolyline
 90
5
 70
1
 10
133.509968
 20
262.764251
 30
0.0
 10
110.187970
 20
245.818313
 30
0.0
 10
86.864536
 20
262.762266
 30
0.0
 10
95.771850
 20
290.180138
 30
0.0
 10
124.600317
 20
290.181367
 30
0.0
  0
LWPOLYLINE
  5
16e
100
AcDbEntity
  8
Layer_1
 62
1
100
AcDbPolyline
 90
5
 70
1
 10
147.926111
 20
218.401022
 30
0.0
 10
119.097644
 20
218.401021
 30
0.0
 10
110.189159
 20
245.818517
 30
0.0
 10
133.511869
 20
262.763464
 30
0.0
 10
156.834592
 20
245.818519
 30
0.0
  0
LWPOLYLINE
  5
16f
100
AcDbEntity
  8
Layer_1
 62
1
100
AcDbPolyline
 90
5
 70
1
 10
101.207121
 20
218.179392
 30
0.0
 10
72.378654
 20
218.179391
 30
0.0
 10
63.470169
 20
245.596887
 30
0.0
 10
86.792879
 20
262.541834
 30
0.0
 10
110.115602
 20
245.596889
 30
0.0
  0
LWPOLYLINE
  5
170
100
AcDbEntity
  8
Layer_1
 62
1
100
AcDbPolyline
 90
5
 70
1
 10
1220.348958
 20
334.793981
 30
0.0
 10
1197.026960
 20
317.848043
 30
0.0
 10
1173.703526
 20
334.791996
 30
0.0
 10
1182.610840
 20
362.209868
 30
0.0
 10
1211.439307
 20
362.211097
 30
0.0
  0
LWPOLYLINE
  5
171
100
AcDbEntity
  8
Layer_1
 62
1
100
AcDbPolyline
 90
5
 70
1
 10
1211.439331
 20
362.210482
 30
0.0
 10
1182.610864
 20
362.210481
 30
0.0
 10
1173.702379
 20
389.627977
 30
0.0
 10
1197.025089
 20
406.572924
 30
0.0
 10
1220.347812
 20
389.627979
 30
0.0
  0
LWPOLYLINE
  5
172
100
AcDbEntity
  8
Layer_1
 62
1
100
AcDbPolyline
 90
5
 70
1
 10
147.924211
 20
361.894202
 30
0.0
 10
119.095744
 20
361.894201
 30
0.0
 10
110.187259
 20
389.311697
 30
0.0
 10
133.509969
 20
406.256644
 30
0.0
 10
156.832692
 20
389.311699
 30
0.0
  0
LWPOLYLINE
  5
173
100
AcDbEntity
  8
Layer_1
 62
1
100
AcDbPolyline
 90
6
 70
0
 10
225.971550
 20
448.154770
 30
0.0
 10
223.809670
 20
440.419340
 30
0.0
 10
194.280840
 20
440.086800
 30
0.0
 10
185.968680
 20
413.010770
 30
0.0
 10
209.385930
 20
396.095120
 30
0.0
 10
200.459010
 20
368.666140
 30
0.0
  0
LWPOLYLINE
  5
174
100
AcDbEntity
  8
Layer_1
 62
1
100
AcDbPolyline
 90
3
 70
0
 10
162.660450
 20
396.083000
 30
0.0
 10
171.638890
 20
368.653260
 30
0.0
 10
157.752120
 20
358.493210
 30
0.0
  0
LWPOLYLINE
  5
175
100
AcDbEntity
  8
Layer_1
 62
1
100
AcDbPolyline
 90
3
 70
0
 10
194.954090
 20
351.718780
 30
0.0
 10
185.516780
 20
323.900290
 30
0.0
 10
157.752120
 20
323.900290
 30
0.0
  0
LWPOLYLINE
  5
176
100
AcDbEntity
  8
Layer_1
 62
1
100
AcDbPolyline
 90
6
 70
0
 10
270.310260
 20
351.718380
 30
0.0
 10
247.102940
 20
368.686270
 30
0.0
 10
223.778540
 20
351.718680
 30
0.0
 10
232.456100
 20
323.891530
 30
0.0
 10
261.376100
 20
324.216650
 30
0.0
 10
267.799020
 20
304.454500
 30
0.0
  0
LWPOLYLINE
  5
177
100
AcDbEntity
  8
Layer_1
 62
1
100
AcDbPolyline
 90
3
 70
0
 10
496.463980
 20
440.035180
 30
0.0
 10
468.223920
 20
440.433360
 30
0.0
 10
465.142920
 20
448.148570
 30
0.0
  0
LWPOLYLINE
  5
178
100
AcDbEntity
  8
Layer_1
 62
1
100
AcDbPolyline
 90
5
 70
1
 10
284.847710
 20
396.093350
 30
0.0
 10
293.631750
 20
368.661960
 30
0.0
 10
322.677710
 20
368.773960
 30
0.0
 10
331.436820
 20
396.093350
 30
0.0
 10
307.776880
 20
412.646340
 30
0.0
  0
LWPOLYLINE
  5
179
100
AcDbEntity
  8
Layer_1
 62
1
100
AcDbPolyline
 90
3
 70
0
 10
514.281930
 20
440.037810
 30
0.0
 10
543.118910
 20
439.777360
 30
0.0
 10
552.346520
 20
413.035740
 30
0.0
  0
LWPOLYLINE
  5
17a
100
AcDbEntity
  8
Layer_1
 62
1
100
AcDbPolyline
 90
3
 70
0
 10
284.725160
 20
341.250230
 30
0.0
 10
307.784890
 20
324.277350
 30
0.0
 10
331.583950
 20
341.359000
 30
0.0
  0
LWPOLYLINE
  5
17b
100
AcDbEntity
  8
Layer_1
 62
1
100
AcDbPolyline
 90
3
 70
0
 10
360.256130
 20
396.093350
 30
0.0
 10
369.235110
 20
368.569420
 30
0.0
 10
345.996330
 20
351.830090
 30
0.0
  0
LWPOLYLINE
  5
17c
100
AcDbEntity
  8
Layer_1
 62
1
100
AcDbPolyline
 90
4
 70
0
 10
392.547740
 20
351.625170
 30
0.0
 10
383.258070
 20
323.929540
 30
0.0
 10
354.900830
 20
324.423240
 30
0.0
 10
348.342090
 20
304.543040
 30
0.0
  0
LWPOLYLINE
  5
17d
100
AcDbEntity
  8
Layer_1
 62
1
100
AcDbPolyline
 90
6
 70
0
 10
423.886730
 20
448.154770
 30
0.0
 10
421.579980
 20
440.444900
 30
0.0
 10
392.153940
 20
439.782370
 30
0.0
 10
383.573970
 20
413.035720
 30
0.0
 10
407.183670
 20
396.093330
 30
0.0
 10
398.047620
 20
368.569380
 30
0.0
  0
LWPOLYLINE
  5
17e
100
AcDbEntity
  8
Layer_1
 62
1
100
AcDbPolyline
 90
5
 70
1
 10
482.645900
 20
396.075210
 30
0.0
 10
491.227360
 20
368.567920
 30
0.0
 10
520.273330
 20
368.679950
 30
0.0
 10
529.033080
 20
396.093350
 30
0.0
 10
505.375250
 20
412.627440
 30
0.0
  0
LWPOLYLINE
  5
17f
100
AcDbEntity
  8
Layer_1
 62
1
100
AcDbPolyline
 90
3
 70
0
 10
298.851340
 20
440.109130
 30
0.0
 10
270.421870
 20
440.424070
 30
0.0
 10
267.253140
 20
448.154760
 30
0.0
  0
LWPOLYLINE
  5
180
100
AcDbEntity
  8
Layer_1
 62
1
100
AcDbPolyline
 90
3
 70
0
 10
316.682370
 20
440.036990
 30
0.0
 10
345.531470
 20
439.784440
 30
0.0
 10
354.684300
 20
413.035740
 30
0.0
  0
LWPOLYLINE
  5
181
100
AcDbEntity
  8
Layer_1
 62
1
100
AcDbPolyline
 90
3
 70
0
 10
557.889520
 20
396.093350
 30
0.0
 10
566.827738
 20
368.568520
 30
0.0
 10
543.581810
 20
351.730600
 30
0.0
  0
LWPOLYLINE
  5
182
100
AcDbEntity
  8
Layer_1
 62
1
100
AcDbPolyline
 90
4
 70
0
 10
590.162750
 20
351.631130
 30
0.0
 10
580.855837
 20
323.932270
 30
0.0
 10
552.496800
 20
324.329780
 30
0.0
 10
546.150390
 20
304.467510
 30
0.0
  0
LWPOLYLINE
  5
183
100
AcDbEntity
  8
Layer_1
 62
1
100
AcDbPolyline
 90
6
 70
0
 10
621.463017
 20
448.145040
 30
0.0
 10
619.173800
 20
440.444900
 30
0.0
 10
589.758970
 20
439.785370
 30
0.0
 10
581.170201
 20
413.035740
 30
0.0
 10
604.776286
 20
396.092880
 30
0.0
 10
595.644794
 20
368.575370
 30
0.0
  0
LWPOLYLINE
  5
184
100
AcDbEntity
  8
Layer_1
 62
1
100
AcDbPolyline
 90
3
 70
0
 10
482.347310
 20
341.175680
 30
0.0
 10
505.371960
 20
324.283780
 30
0.0
 10
529.180800
 20
341.246160
 30
0.0
  0
LWPOLYLINE
  5
185
100
AcDbEntity
  8
Layer_1
 62
1
100
AcDbPolyline
 90
6
 70
0
 10
467.906380
 20
351.623110
 30
0.0
 10
444.901630
 20
368.684020
 30
0.0
 10
421.390140
 20
351.615540
 30
0.0
 10
429.898030
 20
323.920430
 30
0.0
 10
459.005440
 20
324.216640
 30
0.0
 10
465.311230
 20
304.462450
 30
0.0
  0
SPLINE
  5
186
100
AcDbEntity
  8
Layer_1
 62
1
100
AcDbSpline
 70
8
 71
3
 72
8
 73
4
 74
0
 40
0
 40
0
 40
0
 40
0
 40
1
 40
1
 40
1
 40
1
 10
665.815850
 20
440.433380
 30
0.0
 10
664.884080
 20
442.747210
 30
0.0
 10
663.682840
 20
445.532620
 30
0.0
 10
662.616330
 20
448.082240
 30
0.0
  0
LWPOLYLINE
  5
187
100
AcDbEntity
  8
Layer_1
 62
1
100
AcDbPolyline
 90
2
 70
0
 10
694.058190
 20
440.038440
 30
0.0
 10
665.815850
 20
440.433380
 30
0.0
  0
LWPOLYLINE
  5
188
100
AcDbEntity
  8
Layer_1
 62
1
100
AcDbPolyline
 90
3
 70
0
 10
711.869660
 20
440.054270
 30
0.0
 10
740.722080
 20
439.776370
 30
0.0
 10
749.252660
 20
413.035740
 30
0.0
  0
LWPOLYLINE
  5
189
100
AcDbEntity
  8
Layer_1
 62
1
100
AcDbPolyline
 90
5
 70
1
 10
680.238520
 20
396.074890
 30
0.0
 10
688.819980
 20
368.573890
 30
0.0
 10
717.865950
 20
368.685910
 30
0.0
 10
725.939900
 20
396.093350
 30
0.0
 10
702.968890
 20
412.625670
 30
0.0
  0
LWPOLYLINE
  5
18a
100
AcDbEntity
  8
Layer_1
 62
1
100
AcDbPolyline
 90
3
 70
0
 10
679.913960
 20
341.162850
 30
0.0
 10
702.966550
 20
324.283700
 30
0.0
 10
726.769600
 20
341.269230
 30
0.0
  0
LWPOLYLINE
  5
18b
100
AcDbEntity
  8
Layer_1
 62
1
100
AcDbPolyline
 90
6
 70
0
 10
665.498670
 20
351.629940
 30
0.0
 10
642.658200
 20
368.446860
 30
0.0
 10
618.965441
 20
351.631130
 30
0.0
 10
627.492197
 20
323.931010
 30
0.0
 10
656.598060
 20
324.222610
 30
0.0
 10
662.835130
 20
304.493980
 30
0.0
  0
LWPOLYLINE
  5
18c
100
AcDbEntity
  8
Layer_1
 62
1
100
AcDbPolyline
 90
3
 70
0
 10
754.761020
 20
396.093350
 30
0.0
 10
764.419640
 20
368.746980
 30
0.0
 10
741.186180
 20
351.744700
 30
0.0
  0
LWPOLYLINE
  5
18d
100
AcDbEntity
  8
Layer_1
 62
1
100
AcDbPolyline
 90
4
 70
0
 10
787.735080
 20
351.809710
 30
0.0
 10
778.460740
 20
323.934690
 30
0.0
 10
750.089430
 20
324.335750
 30
0.0
 10
743.700910
 20
304.656840
 30
0.0
  0
LWPOLYLINE
  5
18e
100
AcDbEntity
  8
Layer_1
 62
1
100
AcDbPolyline
 90
6
 70
0
 10
818.794500
 20
448.058330
 30
0.0
 10
816.271100
 20
440.444900
 30
0.0
 10
787.364870
 20
439.784620
 30
0.0
 10
778.077020
 20
413.035740
 30
0.0
 10
801.872740
 20
396.087500
 30
0.0
 10
793.236020
 20
368.753630
 30
0.0
  0
LWPOLYLINE
  5
18f
100
AcDbEntity
  8
Layer_1
 62
1
100
AcDbPolyline
 90
3
 70
0
 10
891.653200
 20
440.037080
 30
0.0
 10
862.912460
 20
440.432900
 30
0.0
 10
860.106270
 20
448.082240
 30
0.0
  0
LWPOLYLINE
  5
190
100
AcDbEntity
  8
Layer_1
 62
1
100
AcDbPolyline
 90
3
 70
0
 10
909.466700
 20
440.039020
 30
0.0
 10
938.327520
 20
439.772370
 30
0.0
 10
946.848090
 20
413.035740
 30
0.0
  0
LWPOLYLINE
  5
191
100
AcDbEntity
  8
Layer_1
 62
1
100
AcDbPolyline
 90
5
 70
1
 10
877.334980
 20
396.073830
 30
0.0
 10
886.411900
 20
368.752470
 30
0.0
 10
915.457860
 20
368.864500
 30
0.0
 10
923.536160
 20
396.093350
 30
0.0
 10
900.560650
 20
412.627940
 30
0.0
  0
LWPOLYLINE
  5
192
100
AcDbEntity
  8
Layer_1
 62
1
100
AcDbPolyline
 90
3
 70
0
 10
877.504740
 20
341.339810
 30
0.0
 10
900.559540
 20
324.281580
 30
0.0
 10
924.362000
 20
341.446990
 30
0.0
  0
LWPOLYLINE
  5
193
100
AcDbEntity
  8
Layer_1
 62
1
100
AcDbPolyline
 90
6
 70
0
 10
863.086670
 20
351.809050
 30
0.0
 10
839.589580
 20
368.684170
 30
0.0
 10
816.557340
 20
351.809710
 30
0.0
 10
825.102910
 20
323.921600
 30
0.0
 10
854.189970
 20
324.401190
 30
0.0
 10
860.194640
 20
304.543590
 30
0.0
  0
LWPOLYLINE
  5
194
100
AcDbEntity
  8
Layer_1
 62
1
100
AcDbPolyline
 90
3
 70
0
 10
952.558040
 20
396.093350
 30
0.0
 10
962.086610
 20
368.778240
 30
0.0
 10
938.778940
 20
351.877740
 30
0.0
  0
LWPOLYLINE
  5
195
100
AcDbEntity
  8
Layer_1
 62
1
100
AcDbPolyline
 90
4
 70
0
 10
985.403520
 20
351.834010
 30
0.0
 10
976.065380
 20
323.931270
 30
0.0
 10
947.681330
 20
324.514330
 30
0.0
 10
941.190850
 20
304.656840
 30
0.0
  0
SPLINE
  5
196
100
AcDbEntity
  8
Layer_1
 62
1
100
AcDbSpline
 70
8
 71
3
 72
8
 73
4
 74
0
 40
0
 40
0
 40
0
 40
0
 40
1
 40
1
 40
1
 40
1
 10
975.664040
 20
413.041100
 30
0.0
 10
983.436750
 20
407.377970
 30
0.0
 10
991.026190
 20
402.165830
 30
0.0
 10
999.462410
 20
396.099370
 30
0.0
  0
LWPOLYLINE
  5
197
100
AcDbEntity
  8
Layer_1
 62
1
100
AcDbPolyline
 90
4
 70
0
 10
1016.389790
 20
448.140540
 30
0.0
 10
1013.865060
 20
440.444900
 30
0.0
 10
984.968540
 20
439.783040
 30
0.0
 10
975.664040
 20
413.041100
 30
0.0
  0
LWPOLYLINE
  5
198
100
AcDbEntity
  8
Layer_1
 62
1
100
AcDbPolyline
 90
2
 70
0
 10
999.462410
 20
396.099370
 30
0.0
 10
990.894610
 20
368.783600
 30
0.0
  0
LWPOLYLINE
  5
199
100
AcDbEntity
  8
Layer_1
 62
1
100
AcDbPolyline
 90
3
 70
0
 10
1088.832120
 20
439.962300
 30
0.0
 10
1060.376660
 20
440.354400
 30
0.0
 10
1057.393120
 20
448.082240
 30
0.0
  0
LWPOLYLINE
  5
19a
100
AcDbEntity
  8
Layer_1
 62
1
100
AcDbPolyline
 90
5
 70
1
 10
1074.928540
 20
396.073540
 30
0.0
 10
1084.078860
 20
368.776780
 30
0.0
 10
1113.124820
 20
368.888790
 30
0.0
 10
1122.114410
 20
396.084010
 30
0.0
 10
1098.154750
 20
412.629470
 30
0.0
  0
LWPOLYLINE
  5
19b
100
AcDbEntity
  8
Layer_1
 62
1
100
AcDbPolyline
 90
3
 70
0
 10
1075.173350
 20
341.364360
 30
0.0
 10
1098.152320
 20
324.279770
 30
0.0
 10
1122.028870
 20
341.471170
 30
0.0
  0
LWPOLYLINE
  5
19c
100
AcDbEntity
  8
Layer_1
 62
1
100
AcDbPolyline
 90
6
 70
0
 10
1060.756410
 20
351.832620
 30
0.0
 10
1037.183790
 20
368.684170
 30
0.0
 10
1014.224310
 20
351.834010
 30
0.0
 10
1022.707410
 20
323.920290
 30
0.0
 10
1051.856940
 20
324.425490
 30
0.0
 10
1058.120470
 20
304.957630
 30
0.0
  0
LWPOLYLINE
  5
19d
100
AcDbEntity
  8
Layer_1
 62
1
100
AcDbPolyline
 90
3
 70
0
 10
1107.062010
 20
439.944920
 30
0.0
 10
1135.885590
 20
439.679300
 30
0.0
 10
1145.123460
 20
412.940640
 30
0.0
  0
LWPOLYLINE
  5
19e
100
AcDbEntity
  8
Layer_1
 62
1
100
AcDbPolyline
 90
4
 70
0
 10
1150.930440
 20
396.082930
 30
0.0
 10
1157.052260
 20
376.398610
 30
0.0
 10
1157.033960
 20
366.690010
 30
0.0
 10
1136.439550
 20
351.946120
 30
0.0
  0
LWPOLYLINE
  5
19f
100
AcDbEntity
  8
Layer_1
 62
1
100
AcDbPolyline
 90
3
 70
0
 10
1157.629590
 20
324.522300
 30
0.0
 10
1145.348300
 20
324.538600
 30
0.0
 10
1138.946330
 20
304.553690
 30
0.0
  0
LWPOLYLINE
  5
1a0
100
AcDbEntity
  8
Layer_1
 62
5
100
AcDbPolyline
 90
4
 70
1
 10
157.691060
 20
448.155078
 30
0.0
 10
1157.691060
 20
448.155078
 30
0.0
 10
1157.691060
 20
304.455078
 30
0.0
 10
157.691060
 20
304.455078
 30
0.0
  0
ENDSEC
  0
SECTION
  2
OBJECTS
  0
DICTIONARY
  5
C
330
0
100
AcDbDictionary
  3
ACAD_GROUP
350
D
  3
ACAD_MLINESTYLE
350
17
  0
DICTIONARY
  5
D
330
C
100
AcDbDictionary
  0
DICTIONARY
  5
1A
330
C
100
AcDbDictionary
  0
DICTIONARY
  5
17
330
C
100
AcDbDictionary
  3
STANDARD
350
18
  0
DICTIONARY
  5
19
330
C
100
AcDbDictionary
  0
ENDSEC
  0
EOF
