<?xml version="1.0" encoding="UTF-8" standalone="no"?>
<svg
   height="300mm"
   version="1.1"
   viewBox="0 0 1200 300"
   width="1200mm"
   id="svg202"
   sodipodi:docname="tabica_2.8.svg"
   inkscape:version="1.4.2 (1:1.4.2+202505120737+ebf0e940d0)"
   xmlns:inkscape="http://www.inkscape.org/namespaces/inkscape"
   xmlns:sodipodi="http://sodipodi.sourceforge.net/DTD/sodipodi-0.dtd"
   xmlns="http://www.w3.org/2000/svg"
   xmlns:svg="http://www.w3.org/2000/svg">
  <sodipodi:namedview
     id="namedview202"
     pagecolor="#ffffff"
     bordercolor="#666666"
     borderopacity="1.0"
     inkscape:showpageshadow="2"
     inkscape:pageopacity="0.0"
     inkscape:pagecheckerboard="0"
     inkscape:deskcolor="#d1d1d1"
     inkscape:document-units="mm"
     showgrid="false"
     inkscape:zoom="0.25598437"
     inkscape:cx="2267.7165"
     inkscape:cy="566.44082"
     inkscape:window-width="1920"
     inkscape:window-height="1011"
     inkscape:window-x="0"
     inkscape:window-y="0"
     inkscape:window-maximized="1"
     inkscape:current-layer="svg202" />
  <defs
     id="defs1" />
  <g
     fill="none"
     stroke="blue"
     stroke-width="0.5"
     transform="translate(107.86671601283683,55.000000000000014)"
     id="g202"
     style="vector-effect:non-scaling-stroke;-inkscape-stroke:hairline;stroke-width:0.26458333;stroke-dasharray:none">
    <path
       d="M 78.50517614366132,174.99999999999997 L 61.63328398716317,174.99999999999997 L 61.63328398716317,146.4749907475931 L 72.66913963698862,146.4749907475931 L 83.8216187755818,165.7916512459885 L 78.50517614366132,174.99999999999997 Z"
       id="path1"
       style="vector-effect:non-scaling-stroke;-inkscape-stroke:hairline;stroke-width:0.26458333;stroke-dasharray:none" />
    <path
       d="M 90.63332099679079,130.2749907475931 L 77.7166604983954,137.73242816337267 L 77.71666049839541,122.81755333181351 L 90.63332099679079,130.2749907475931 Z"
       id="path2"
       style="vector-effect:non-scaling-stroke;-inkscape-stroke:hairline;stroke-width:0.26458333;stroke-dasharray:none" />
    <path
       d="M 71.3166604983954,140.07499074759312 L 61.63328398716317,140.07499074759312 L 61.63328398716317,120.4749907475931 L 71.3166604983954,120.4749907475931 L 71.3166604983954,140.07499074759312 Z"
       id="path3"
       style="vector-effect:non-scaling-stroke;-inkscape-stroke:hairline;stroke-width:0.26458333;stroke-dasharray:none" />
    <path
       d="M 95.86203970468063,125.9037094554829 L 78.88794179050561,116.10370945548289 L 88.6879417905056,99.1296115413079 L 105.66203970468062,108.9296115413079 L 95.86203970468063,125.9037094554829 Z"
       id="path4"
       style="vector-effect:non-scaling-stroke;-inkscape-stroke:hairline;stroke-width:0.26458333;stroke-dasharray:none" />
    <path
       d="M 72.66913963698858,114.07499074759312 L 61.63328398716317,114.07499074759312 L 61.63328398716317,75.4416697508023 L 72.6691396369886,75.4416697508023 L 83.8216187755818,94.75833024919768 L 72.66913963698858,114.07499074759312 Z"
       id="path5"
       style="vector-effect:non-scaling-stroke;-inkscape-stroke:hairline;stroke-width:0.26458333;stroke-dasharray:none" />
    <path
       d="M 90.63332099679079,59.24166975080226 L 77.7166604983954,66.69910716658183 L 77.71666049839541,51.784232335022665 L 90.63332099679079,59.24166975080226 Z"
       id="path6"
       style="vector-effect:non-scaling-stroke;-inkscape-stroke:hairline;stroke-width:0.26458333;stroke-dasharray:none" />
    <path
       d="M 71.3166604983954,69.04166975080227 L 61.63328398716317,69.04166975080227 L 61.63328398716317,49.44166975080225 L 71.3166604983954,49.44166975080225 L 71.3166604983954,69.04166975080227 Z"
       id="path7"
       style="vector-effect:non-scaling-stroke;-inkscape-stroke:hairline;stroke-width:0.26458333;stroke-dasharray:none" />
    <path
       d="M 95.86203970468063,54.87038845869205 L 78.88794179050562,45.07038845869204 L 88.6879417905056,28.096290544517103 L 105.66203970468061,37.896290544517115 L 95.86203970468063,54.87038845869205 Z"
       id="path8"
       style="vector-effect:non-scaling-stroke;-inkscape-stroke:hairline;stroke-width:0.26458333;stroke-dasharray:none" />
    <path
       d="M 72.66913963698858,43.04166975080233 L 61.63328398716317,43.0416697508023 L 61.63328398716317,15.0 L 78.78423233502271,15.0 L 83.8216187755818,23.725009252406892 L 72.66913963698858,43.04166975080233 Z"
       id="path9"
       style="vector-effect:non-scaling-stroke;-inkscape-stroke:hairline;stroke-width:0.26458333;stroke-dasharray:none" />
    <path
       d="M 106.8333209967908,158.3342138302089 L 106.83332099679079,173.2490886617681 L 93.91666049839539,165.79165124598853 L 106.8333209967908,158.3342138302089 Z"
       id="path10"
       style="vector-effect:non-scaling-stroke;-inkscape-stroke:hairline;stroke-width:0.26458333;stroke-dasharray:none" />
    <path
       d="M 152.1499814951862,165.79165124598853 L 139.23332099679078,173.24908866176813 L 139.2333209967908,158.3342138302089 L 152.1499814951862,165.79165124598853 Z"
       id="path11"
       style="vector-effect:non-scaling-stroke;-inkscape-stroke:hairline;stroke-width:0.26458333;stroke-dasharray:none" />
    <path
       d="M 132.8333209967908,174.99999999999997 L 113.23332099679081,174.99999999999997 L 113.23332099679081,155.99165124598852 L 132.8333209967908,155.99165124598852 L 132.8333209967908,174.99999999999997 Z"
       id="path12"
       style="vector-effect:non-scaling-stroke;-inkscape-stroke:hairline;stroke-width:0.26458333;stroke-dasharray:none" />
    <path
       d="M 78.8879417905056,144.44627203970333 L 95.86203970468063,134.64627203970332 L 105.6620397046806,151.6203699538783 L 88.6879417905056,161.42036995387832 L 78.8879417905056,144.44627203970333 Z"
       id="path13"
       style="vector-effect:non-scaling-stroke;-inkscape-stroke:hairline;stroke-width:0.26458333;stroke-dasharray:none" />
    <path
       d="M 157.378700203076,161.42036995387832 L 140.40460228890103,151.6203699538783 L 150.20460228890101,134.64627203970332 L 167.178700203076,144.4462720397033 L 157.378700203076,161.42036995387832 Z"
       id="path14"
       style="vector-effect:non-scaling-stroke;-inkscape-stroke:hairline;stroke-width:0.26458333;stroke-dasharray:none" />
    <path
       d="M 145.33827927397718,130.2749907475931 L 134.18580013538397,149.59165124598852 L 111.88084185819758,149.59165124598852 L 100.7283627196044,130.2749907475931 L 111.88084185819763,110.95833024919773 L 134.185800135384,110.95833024919773 L 145.33827927397718,130.2749907475931 Z"
       id="path15"
       style="vector-effect:non-scaling-stroke;-inkscape-stroke:hairline;stroke-width:0.26458333;stroke-dasharray:none" />
    <path
       d="M 106.8333209967908,87.30089283341812 L 106.83332099679079,102.21576766497728 L 93.91666049839542,94.75833024919768 L 106.8333209967908,87.30089283341812 Z"
       id="path16"
       style="vector-effect:non-scaling-stroke;-inkscape-stroke:hairline;stroke-width:0.26458333;stroke-dasharray:none" />
    <path
       d="M 152.1499814951862,94.75833024919768 L 139.23332099679078,102.21576766497728 L 139.2333209967908,87.30089283341809 L 152.1499814951862,94.75833024919768 Z"
       id="path17"
       style="vector-effect:non-scaling-stroke;-inkscape-stroke:hairline;stroke-width:0.26458333;stroke-dasharray:none" />
    <path
       d="M 132.8333209967908,84.95833024919767 L 132.8333209967908,104.5583302491977 L 113.23332099679081,104.5583302491977 L 113.23332099679081,84.95833024919767 L 132.8333209967908,84.95833024919767 Z"
       id="path18"
       style="vector-effect:non-scaling-stroke;-inkscape-stroke:hairline;stroke-width:0.26458333;stroke-dasharray:none" />
    <path
       d="M 78.88794179050561,73.41295104291254 L 95.86203970468063,63.61295104291253 L 105.6620397046806,80.58704895708752 L 88.68794179050559,90.38704895708747 L 78.88794179050561,73.41295104291254 Z"
       id="path19"
       style="vector-effect:non-scaling-stroke;-inkscape-stroke:hairline;stroke-width:0.26458333;stroke-dasharray:none" />
    <path
       d="M 157.37870020307602,90.38704895708747 L 140.404602288901,80.58704895708746 L 150.20460228890101,63.61295104291253 L 167.17870020307603,73.41295104291254 L 157.37870020307602,90.38704895708747 Z"
       id="path20"
       style="vector-effect:non-scaling-stroke;-inkscape-stroke:hairline;stroke-width:0.26458333;stroke-dasharray:none" />
    <path
       d="M 145.33827927397718,59.241669750802316 L 134.18580013538397,78.55833024919775 L 111.8808418581976,78.5583302491977 L 100.7283627196044,59.241669750802316 L 111.88084185819763,39.92500925240688 L 134.185800135384,39.92500925240688 L 145.33827927397718,59.241669750802316 Z"
       id="path21"
       style="vector-effect:non-scaling-stroke;-inkscape-stroke:hairline;stroke-width:0.26458333;stroke-dasharray:none" />
    <path
       d="M 106.8333209967908,16.26757183662727 L 106.83332099679079,31.182446668186486 L 93.9166604983954,23.725009252406892 L 106.8333209967908,16.26757183662727 Z"
       id="path22"
       style="vector-effect:non-scaling-stroke;-inkscape-stroke:hairline;stroke-width:0.26458333;stroke-dasharray:none" />
    <path
       d="M 152.1499814951862,23.725009252406892 L 139.23332099679078,31.182446668186486 L 139.2333209967908,16.26757183662727 L 152.1499814951862,23.725009252406892 Z"
       id="path23"
       style="vector-effect:non-scaling-stroke;-inkscape-stroke:hairline;stroke-width:0.26458333;stroke-dasharray:none" />
    <path
       d="M 132.8333209967908,33.5250092524069 L 113.23332099679081,33.5250092524069 L 113.23332099679081,15.0 L 132.8333209967908,15.0 L 132.8333209967908,33.5250092524069 Z"
       id="path24"
       style="vector-effect:non-scaling-stroke;-inkscape-stroke:hairline;stroke-width:0.26458333;stroke-dasharray:none" />
    <path
       d="M 201.5384971404521,174.99999999999997 L 167.5614658499203,174.99999999999997 L 162.24502321799983,165.79165124598853 L 173.39750235659304,146.4749907475931 L 195.7024606337794,146.4749907475931 L 206.85493977237257,165.79165124598853 L 201.5384971404521,174.99999999999997 Z"
       id="path25"
       style="vector-effect:non-scaling-stroke;-inkscape-stroke:hairline;stroke-width:0.26458333;stroke-dasharray:none" />
    <path
       d="M 168.34998149518623,122.81755333181351 L 168.3499814951862,137.7324281633727 L 155.4333209967908,130.2749907475931 L 168.34998149518623,122.81755333181351 Z"
       id="path26"
       style="vector-effect:non-scaling-stroke;-inkscape-stroke:hairline;stroke-width:0.26458333;stroke-dasharray:none" />
    <path
       d="M 213.6666419935816,130.2749907475931 L 200.74998149518618,137.7324281633727 L 200.7499814951862,122.81755333181351 L 213.6666419935816,130.2749907475931 Z"
       id="path27"
       style="vector-effect:non-scaling-stroke;-inkscape-stroke:hairline;stroke-width:0.26458333;stroke-dasharray:none" />
    <path
       d="M 194.3499814951862,120.4749907475931 L 194.3499814951862,140.07499074759312 L 174.7499814951862,140.07499074759312 L 174.7499814951862,120.4749907475931 L 194.3499814951862,120.4749907475931 Z"
       id="path28"
       style="vector-effect:non-scaling-stroke;-inkscape-stroke:hairline;stroke-width:0.26458333;stroke-dasharray:none" />
    <path
       d="M 140.404602288901,108.9296115413079 L 157.378700203076,99.1296115413079 L 167.17870020307598,116.10370945548289 L 150.204602288901,125.9037094554829 L 140.404602288901,108.9296115413079 Z"
       id="path29"
       style="vector-effect:non-scaling-stroke;-inkscape-stroke:hairline;stroke-width:0.26458333;stroke-dasharray:none" />
    <path
       d="M 218.89536070147142,125.9037094554829 L 201.92126278729643,116.10370945548291 L 211.7212627872964,99.1296115413079 L 228.6953607014714,108.92961154130788 L 218.89536070147142,125.9037094554829 Z"
       id="path30"
       style="vector-effect:non-scaling-stroke;-inkscape-stroke:hairline;stroke-width:0.26458333;stroke-dasharray:none" />
    <path
       d="M 206.85493977237257,94.75833024919768 L 195.70246063377937,114.07499074759312 L 173.397502356593,114.07499074759312 L 162.24502321799983,94.75833024919766 L 173.397502356593,75.4416697508023 L 195.7024606337794,75.4416697508023 L 206.85493977237257,94.75833024919768 Z"
       id="path31"
       style="vector-effect:non-scaling-stroke;-inkscape-stroke:hairline;stroke-width:0.26458333;stroke-dasharray:none" />
    <path
       d="M 168.34998149518623,51.784232335022665 L 168.3499814951862,66.69910716658185 L 155.4333209967908,59.24166975080226 L 168.34998149518623,51.784232335022665 Z"
       id="path32"
       style="vector-effect:non-scaling-stroke;-inkscape-stroke:hairline;stroke-width:0.26458333;stroke-dasharray:none" />
    <path
       d="M 213.6666419935816,59.24166975080226 L 200.74998149518618,66.69910716658185 L 200.7499814951862,51.784232335022665 L 213.6666419935816,59.24166975080226 Z"
       id="path33"
       style="vector-effect:non-scaling-stroke;-inkscape-stroke:hairline;stroke-width:0.26458333;stroke-dasharray:none" />
    <path
       d="M 194.3499814951862,49.44166975080225 L 194.3499814951862,69.04166975080227 L 174.7499814951862,69.04166975080227 L 174.7499814951862,49.44166975080225 L 194.3499814951862,49.44166975080225 Z"
       id="path34"
       style="vector-effect:non-scaling-stroke;-inkscape-stroke:hairline;stroke-width:0.26458333;stroke-dasharray:none" />
    <path
       d="M 140.40460228890097,37.896290544517115 L 157.378700203076,28.096290544517103 L 167.17870020307598,45.07038845869209 L 150.204602288901,54.87038845869205 L 140.40460228890097,37.896290544517115 Z"
       id="path35"
       style="vector-effect:non-scaling-stroke;-inkscape-stroke:hairline;stroke-width:0.26458333;stroke-dasharray:none" />
    <path
       d="M 218.89536070147142,54.87038845869205 L 201.9212627872964,45.07038845869204 L 211.7212627872964,28.096290544517103 L 228.69536070147143,37.896290544517115 L 218.89536070147142,54.87038845869205 Z"
       id="path36"
       style="vector-effect:non-scaling-stroke;-inkscape-stroke:hairline;stroke-width:0.26458333;stroke-dasharray:none" />
    <path
       d="M 195.70246063377937,43.04166975080233 L 173.397502356593,43.04166975080227 L 162.24502321799983,23.725009252406892 L 167.28240965855895,15.0 L 201.81755333181349,15.0 L 206.85493977237257,23.725009252406892 L 195.70246063377937,43.04166975080233 Z"
       id="path37"
       style="vector-effect:non-scaling-stroke;-inkscape-stroke:hairline;stroke-width:0.26458333;stroke-dasharray:none" />
    <path
       d="M 229.86664199358162,158.3342138302089 L 229.8666419935816,173.24908866176813 L 216.9499814951862,165.79165124598853 L 229.86664199358162,158.3342138302089 Z"
       id="path38"
       style="vector-effect:non-scaling-stroke;-inkscape-stroke:hairline;stroke-width:0.26458333;stroke-dasharray:none" />
    <path
       d="M 275.183302491977,165.79165124598853 L 262.2666419935816,173.2490886617681 L 262.26664199358163,158.3342138302089 L 275.183302491977,165.79165124598853 Z"
       id="path39"
       style="vector-effect:non-scaling-stroke;-inkscape-stroke:hairline;stroke-width:0.26458333;stroke-dasharray:none" />
    <path
       d="M 255.8666419935816,174.99999999999997 L 236.2666419935816,174.99999999999997 L 236.2666419935816,155.99165124598852 L 255.8666419935816,155.99165124598852 L 255.8666419935816,174.99999999999997 Z"
       id="path40"
       style="vector-effect:non-scaling-stroke;-inkscape-stroke:hairline;stroke-width:0.26458333;stroke-dasharray:none" />
    <path
       d="M 201.9212627872964,144.4462720397033 L 218.8953607014714,134.64627203970332 L 228.69536070147137,151.6203699538783 L 211.7212627872964,161.42036995387832 L 201.9212627872964,144.4462720397033 Z"
       id="path41"
       style="vector-effect:non-scaling-stroke;-inkscape-stroke:hairline;stroke-width:0.26458333;stroke-dasharray:none" />
    <path
       d="M 280.41202119986684,161.42036995387832 L 263.43792328569185,151.6203699538783 L 273.2379232856918,134.64627203970332 L 290.2120211998668,144.44627203970333 L 280.41202119986684,161.42036995387832 Z"
       id="path42"
       style="vector-effect:non-scaling-stroke;-inkscape-stroke:hairline;stroke-width:0.26458333;stroke-dasharray:none" />
    <path
       d="M 268.371600270768,130.2749907475931 L 257.2191211321748,149.59165124598852 L 234.9141628549884,149.59165124598852 L 223.76168371639523,130.27499074759308 L 234.9141628549884,110.95833024919773 L 257.21912113217485,110.95833024919773 L 268.371600270768,130.2749907475931 Z"
       id="path43"
       style="vector-effect:non-scaling-stroke;-inkscape-stroke:hairline;stroke-width:0.26458333;stroke-dasharray:none" />
    <path
       d="M 229.86664199358162,87.30089283341809 L 229.8666419935816,102.21576766497728 L 216.9499814951862,94.75833024919768 L 229.86664199358162,87.30089283341809 Z"
       id="path44"
       style="vector-effect:non-scaling-stroke;-inkscape-stroke:hairline;stroke-width:0.26458333;stroke-dasharray:none" />
    <path
       d="M 275.183302491977,94.75833024919766 L 262.2666419935816,102.21576766497725 L 262.26664199358163,87.30089283341809 L 275.183302491977,94.75833024919766 Z"
       id="path45"
       style="vector-effect:non-scaling-stroke;-inkscape-stroke:hairline;stroke-width:0.26458333;stroke-dasharray:none" />
    <path
       d="M 255.8666419935816,84.95833024919767 L 255.8666419935816,104.5583302491977 L 236.2666419935816,104.5583302491977 L 236.2666419935816,84.95833024919767 L 255.8666419935816,84.95833024919767 Z"
       id="path46"
       style="vector-effect:non-scaling-stroke;-inkscape-stroke:hairline;stroke-width:0.26458333;stroke-dasharray:none" />
    <path
       d="M 201.92126278729637,73.41295104291254 L 218.8953607014714,63.61295104291253 L 228.69536070147137,80.58704895708752 L 211.72126278729638,90.38704895708747 L 201.92126278729637,73.41295104291254 Z"
       id="path47"
       style="vector-effect:non-scaling-stroke;-inkscape-stroke:hairline;stroke-width:0.26458333;stroke-dasharray:none" />
    <path
       d="M 280.41202119986684,90.3870489570875 L 263.43792328569185,80.58704895708749 L 273.2379232856918,63.6129510429125 L 290.2120211998668,73.41295104291251 L 280.41202119986684,90.3870489570875 Z"
       id="path48"
       style="vector-effect:non-scaling-stroke;-inkscape-stroke:hairline;stroke-width:0.26458333;stroke-dasharray:none" />
    <path
       d="M 268.371600270768,59.241669750802316 L 257.2191211321748,78.55833024919775 L 234.9141628549884,78.5583302491977 L 223.76168371639523,59.241669750802316 L 234.91416285498843,39.92500925240688 L 257.21912113217485,39.92500925240688 L 268.371600270768,59.241669750802316 Z"
       id="path49"
       style="vector-effect:non-scaling-stroke;-inkscape-stroke:hairline;stroke-width:0.26458333;stroke-dasharray:none" />
    <path
       d="M 229.86664199358162,16.26757183662727 L 229.8666419935816,31.182446668186486 L 216.9499814951862,23.725009252406892 L 229.86664199358162,16.26757183662727 Z"
       id="path50"
       style="vector-effect:non-scaling-stroke;-inkscape-stroke:hairline;stroke-width:0.26458333;stroke-dasharray:none" />
    <path
       d="M 275.183302491977,23.725009252406863 L 262.2666419935816,31.182446668186458 L 262.26664199358163,16.26757183662727 L 275.183302491977,23.725009252406863 Z"
       id="path51"
       style="vector-effect:non-scaling-stroke;-inkscape-stroke:hairline;stroke-width:0.26458333;stroke-dasharray:none" />
    <path
       d="M 255.8666419935816,33.5250092524069 L 236.2666419935816,33.5250092524069 L 236.2666419935816,15.0 L 255.8666419935816,15.0 L 255.8666419935816,33.5250092524069 Z"
       id="path52"
       style="vector-effect:non-scaling-stroke;-inkscape-stroke:hairline;stroke-width:0.26458333;stroke-dasharray:none" />
    <path
       d="M 324.57181813724293,174.99999999999997 L 290.5947868467111,174.99999999999997 L 285.2783442147906,165.79165124598853 L 296.4308233533838,146.4749907475931 L 318.7357816305703,146.4749907475931 L 329.8882607691634,165.79165124598853 L 324.57181813724293,174.99999999999997 Z"
       id="path53"
       style="vector-effect:non-scaling-stroke;-inkscape-stroke:hairline;stroke-width:0.26458333;stroke-dasharray:none" />
    <path
       d="M 291.383302491977,122.81755333181354 L 291.383302491977,137.73242816337267 L 278.4666419935816,130.2749907475931 L 291.383302491977,122.81755333181354 Z"
       id="path54"
       style="vector-effect:non-scaling-stroke;-inkscape-stroke:hairline;stroke-width:0.26458333;stroke-dasharray:none" />
    <path
       d="M 336.6999629903724,130.27499074759308 L 323.783302491977,137.73242816337267 L 323.78330249197705,122.81755333181351 L 336.6999629903724,130.27499074759308 Z"
       id="path55"
       style="vector-effect:non-scaling-stroke;-inkscape-stroke:hairline;stroke-width:0.26458333;stroke-dasharray:none" />
    <path
       d="M 317.383302491977,120.4749907475931 L 317.383302491977,140.07499074759312 L 297.783302491977,140.07499074759312 L 297.783302491977,120.4749907475931 L 317.383302491977,120.4749907475931 Z"
       id="path56"
       style="vector-effect:non-scaling-stroke;-inkscape-stroke:hairline;stroke-width:0.26458333;stroke-dasharray:none" />
    <path
       d="M 263.4379232856918,108.9296115413079 L 280.41202119986684,99.1296115413079 L 290.2120211998668,116.10370945548289 L 273.23792328569175,125.9037094554829 L 263.4379232856918,108.9296115413079 Z"
       id="path57"
       style="vector-effect:non-scaling-stroke;-inkscape-stroke:hairline;stroke-width:0.26458333;stroke-dasharray:none" />
    <path
       d="M 341.92868169826227,125.90370945548293 L 324.9545837840873,116.10370945548289 L 334.75458378408723,99.12961154130787 L 351.7286816982622,108.9296115413079 L 341.92868169826227,125.90370945548293 Z"
       id="path58"
       style="vector-effect:non-scaling-stroke;-inkscape-stroke:hairline;stroke-width:0.26458333;stroke-dasharray:none" />
    <path
       d="M 329.8882607691634,94.75833024919768 L 318.7357816305702,114.07499074759312 L 296.4308233533838,114.07499074759312 L 285.2783442147906,94.75833024919768 L 296.4308233533838,75.4416697508023 L 318.7357816305703,75.4416697508023 L 329.8882607691634,94.75833024919768 Z"
       id="path59"
       style="vector-effect:non-scaling-stroke;-inkscape-stroke:hairline;stroke-width:0.26458333;stroke-dasharray:none" />
    <path
       d="M 291.383302491977,51.78423233502269 L 291.383302491977,66.69910716658183 L 278.4666419935816,59.24166975080226 L 291.383302491977,51.78423233502269 Z"
       id="path60"
       style="vector-effect:non-scaling-stroke;-inkscape-stroke:hairline;stroke-width:0.26458333;stroke-dasharray:none" />
    <path
       d="M 336.6999629903724,59.24166975080223 L 323.783302491977,66.69910716658183 L 323.78330249197705,51.784232335022665 L 336.6999629903724,59.24166975080223 Z"
       id="path61"
       style="vector-effect:non-scaling-stroke;-inkscape-stroke:hairline;stroke-width:0.26458333;stroke-dasharray:none" />
    <path
       d="M 317.383302491977,49.44166975080225 L 317.383302491977,69.04166975080227 L 297.783302491977,69.04166975080227 L 297.783302491977,49.44166975080225 L 317.383302491977,49.44166975080225 Z"
       id="path62"
       style="vector-effect:non-scaling-stroke;-inkscape-stroke:hairline;stroke-width:0.26458333;stroke-dasharray:none" />
    <path
       d="M 263.4379232856918,37.896290544517115 L 280.41202119986684,28.096290544517103 L 290.2120211998668,45.07038845869209 L 273.2379232856918,54.87038845869208 L 263.4379232856918,37.896290544517115 Z"
       id="path63"
       style="vector-effect:non-scaling-stroke;-inkscape-stroke:hairline;stroke-width:0.26458333;stroke-dasharray:none" />
    <path
       d="M 341.92868169826227,54.87038845869208 L 324.9545837840873,45.070388458692065 L 334.75458378408723,28.096290544517075 L 351.7286816982622,37.896290544517086 L 341.92868169826227,54.87038845869208 Z"
       id="path64"
       style="vector-effect:non-scaling-stroke;-inkscape-stroke:hairline;stroke-width:0.26458333;stroke-dasharray:none" />
    <path
       d="M 318.7357816305702,43.04166975080233 L 296.4308233533838,43.04166975080227 L 285.2783442147906,23.725009252406892 L 290.3157306553497,15.0 L 324.85087432860433,15.0 L 329.8882607691634,23.725009252406892 L 318.7357816305702,43.04166975080233 Z"
       id="path65"
       style="vector-effect:non-scaling-stroke;-inkscape-stroke:hairline;stroke-width:0.26458333;stroke-dasharray:none" />
    <path
       d="M 352.89996299037244,158.3342138302089 L 352.89996299037244,173.2490886617681 L 339.98330249197704,165.79165124598853 L 352.89996299037244,158.3342138302089 Z"
       id="path66"
       style="vector-effect:non-scaling-stroke;-inkscape-stroke:hairline;stroke-width:0.26458333;stroke-dasharray:none" />
    <path
       d="M 398.2166234887678,165.79165124598853 L 385.2999629903724,173.2490886617681 L 385.2999629903725,158.3342138302089 L 398.2166234887678,165.79165124598853 Z"
       id="path67"
       style="vector-effect:non-scaling-stroke;-inkscape-stroke:hairline;stroke-width:0.26458333;stroke-dasharray:none" />
    <path
       d="M 378.89996299037244,174.99999999999997 L 359.2999629903724,174.99999999999997 L 359.2999629903724,155.99165124598852 L 378.89996299037244,155.99165124598852 L 378.89996299037244,174.99999999999997 Z"
       id="path68"
       style="vector-effect:non-scaling-stroke;-inkscape-stroke:hairline;stroke-width:0.26458333;stroke-dasharray:none" />
    <path
       d="M 324.9545837840872,144.44627203970333 L 341.92868169826227,134.64627203970332 L 351.7286816982622,151.6203699538783 L 334.7545837840872,161.42036995387832 L 324.9545837840872,144.44627203970333 Z"
       id="path69"
       style="vector-effect:non-scaling-stroke;-inkscape-stroke:hairline;stroke-width:0.26458333;stroke-dasharray:none" />
    <path
       d="M 403.4453421966577,161.42036995387832 L 386.4712442824827,151.6203699538783 L 396.27124428248266,134.64627203970332 L 413.24534219665765,144.44627203970333 L 403.4453421966577,161.42036995387832 Z"
       id="path70"
       style="vector-effect:non-scaling-stroke;-inkscape-stroke:hairline;stroke-width:0.26458333;stroke-dasharray:none" />
    <path
       d="M 391.40492126755885,130.2749907475931 L 380.25244212896564,149.59165124598852 L 357.9474838517792,149.59165124598852 L 346.795004713186,130.2749907475931 L 357.9474838517792,110.95833024919773 L 380.2524421289657,110.95833024919773 L 391.40492126755885,130.2749907475931 Z"
       id="path71"
       style="vector-effect:non-scaling-stroke;-inkscape-stroke:hairline;stroke-width:0.26458333;stroke-dasharray:none" />
    <path
       d="M 352.89996299037244,87.30089283341812 L 352.89996299037244,102.21576766497725 L 339.98330249197704,94.75833024919768 L 352.89996299037244,87.30089283341812 Z"
       id="path72"
       style="vector-effect:non-scaling-stroke;-inkscape-stroke:hairline;stroke-width:0.26458333;stroke-dasharray:none" />
    <path
       d="M 398.2166234887678,94.75833024919766 L 385.2999629903724,102.21576766497725 L 385.2999629903725,87.30089283341809 L 398.2166234887678,94.75833024919766 Z"
       id="path73"
       style="vector-effect:non-scaling-stroke;-inkscape-stroke:hairline;stroke-width:0.26458333;stroke-dasharray:none" />
    <path
       d="M 378.89996299037244,84.95833024919767 L 378.89996299037244,104.5583302491977 L 359.2999629903724,104.5583302491977 L 359.2999629903724,84.95833024919767 L 378.89996299037244,84.95833024919767 Z"
       id="path74"
       style="vector-effect:non-scaling-stroke;-inkscape-stroke:hairline;stroke-width:0.26458333;stroke-dasharray:none" />
    <path
       d="M 324.9545837840872,73.41295104291254 L 341.92868169826227,63.61295104291253 L 351.7286816982622,80.58704895708752 L 334.75458378408723,90.3870489570875 L 324.9545837840872,73.41295104291254 Z"
       id="path75"
       style="vector-effect:non-scaling-stroke;-inkscape-stroke:hairline;stroke-width:0.26458333;stroke-dasharray:none" />
    <path
       d="M 403.4453421966577,90.3870489570875 L 386.4712442824827,80.58704895708749 L 396.27124428248266,63.6129510429125 L 413.24534219665765,73.41295104291251 L 403.4453421966577,90.3870489570875 Z"
       id="path76"
       style="vector-effect:non-scaling-stroke;-inkscape-stroke:hairline;stroke-width:0.26458333;stroke-dasharray:none" />
    <path
       d="M 391.40492126755885,59.241669750802316 L 380.25244212896564,78.55833024919775 L 357.9474838517792,78.5583302491977 L 346.795004713186,59.241669750802316 L 357.9474838517792,39.92500925240688 L 380.2524421289657,39.92500925240688 L 391.40492126755885,59.241669750802316 Z"
       id="path77"
       style="vector-effect:non-scaling-stroke;-inkscape-stroke:hairline;stroke-width:0.26458333;stroke-dasharray:none" />
    <path
       d="M 352.89996299037244,16.26757183662727 L 352.89996299037244,31.182446668186458 L 339.98330249197704,23.725009252406892 L 352.89996299037244,16.26757183662727 Z"
       id="path78"
       style="vector-effect:non-scaling-stroke;-inkscape-stroke:hairline;stroke-width:0.26458333;stroke-dasharray:none" />
    <path
       d="M 398.2166234887678,23.725009252406863 L 385.2999629903724,31.182446668186458 L 385.2999629903725,16.26757183662727 L 398.2166234887678,23.725009252406863 Z"
       id="path79"
       style="vector-effect:non-scaling-stroke;-inkscape-stroke:hairline;stroke-width:0.26458333;stroke-dasharray:none" />
    <path
       d="M 378.89996299037244,33.5250092524069 L 359.2999629903724,33.5250092524069 L 359.2999629903724,15.0 L 378.89996299037244,15.0 L 378.89996299037244,33.5250092524069 Z"
       id="path80"
       style="vector-effect:non-scaling-stroke;-inkscape-stroke:hairline;stroke-width:0.26458333;stroke-dasharray:none" />
    <path
       d="M 447.6051391340338,174.99999999999997 L 413.62810784350194,174.99999999999997 L 408.31166521158144,165.79165124598853 L 419.46414435017465,146.4749907475931 L 441.7691026273611,146.4749907475931 L 452.9215817659543,165.79165124598853 L 447.6051391340338,174.99999999999997 Z"
       id="path81"
       style="vector-effect:non-scaling-stroke;-inkscape-stroke:hairline;stroke-width:0.26458333;stroke-dasharray:none" />
    <path
       d="M 414.41662348876787,122.81755333181354 L 414.41662348876787,137.73242816337267 L 401.49996299037247,130.2749907475931 L 414.41662348876787,122.81755333181354 Z"
       id="path82"
       style="vector-effect:non-scaling-stroke;-inkscape-stroke:hairline;stroke-width:0.26458333;stroke-dasharray:none" />
    <path
       d="M 459.73328398716325,130.27499074759308 L 446.81662348876785,137.73242816337267 L 446.8166234887679,122.81755333181351 L 459.73328398716325,130.27499074759308 Z"
       id="path83"
       style="vector-effect:non-scaling-stroke;-inkscape-stroke:hairline;stroke-width:0.26458333;stroke-dasharray:none" />
    <path
       d="M 440.41662348876787,120.4749907475931 L 440.41662348876787,140.07499074759312 L 420.81662348876785,140.07499074759312 L 420.81662348876785,120.4749907475931 L 440.41662348876787,120.4749907475931 Z"
       id="path84"
       style="vector-effect:non-scaling-stroke;-inkscape-stroke:hairline;stroke-width:0.26458333;stroke-dasharray:none" />
    <path
       d="M 386.47124428248264,108.9296115413079 L 403.4453421966577,99.1296115413079 L 413.24534219665765,116.10370945548289 L 396.2712442824826,125.9037094554829 L 386.47124428248264,108.9296115413079 Z"
       id="path85"
       style="vector-effect:non-scaling-stroke;-inkscape-stroke:hairline;stroke-width:0.26458333;stroke-dasharray:none" />
    <path
       d="M 464.9620026950531,125.90370945548293 L 447.9879047808781,116.10370945548289 L 457.7879047808781,99.12961154130787 L 474.76200269505307,108.9296115413079 L 464.9620026950531,125.90370945548293 Z"
       id="path86"
       style="vector-effect:non-scaling-stroke;-inkscape-stroke:hairline;stroke-width:0.26458333;stroke-dasharray:none" />
    <path
       d="M 452.9215817659543,94.75833024919768 L 441.76910262736106,114.07499074759312 L 419.46414435017465,114.07499074759312 L 408.31166521158144,94.75833024919768 L 419.46414435017465,75.4416697508023 L 441.7691026273611,75.4416697508023 L 452.9215817659543,94.75833024919768 Z"
       id="path87"
       style="vector-effect:non-scaling-stroke;-inkscape-stroke:hairline;stroke-width:0.26458333;stroke-dasharray:none" />
    <path
       d="M 414.41662348876787,51.78423233502269 L 414.41662348876787,66.69910716658183 L 401.49996299037247,59.24166975080226 L 414.41662348876787,51.78423233502269 Z"
       id="path88"
       style="vector-effect:non-scaling-stroke;-inkscape-stroke:hairline;stroke-width:0.26458333;stroke-dasharray:none" />
    <path
       d="M 459.73328398716325,59.24166975080223 L 446.81662348876785,66.69910716658183 L 446.8166234887679,51.784232335022665 L 459.73328398716325,59.24166975080223 Z"
       id="path89"
       style="vector-effect:non-scaling-stroke;-inkscape-stroke:hairline;stroke-width:0.26458333;stroke-dasharray:none" />
    <path
       d="M 440.41662348876787,49.44166975080225 L 440.41662348876787,69.04166975080227 L 420.81662348876785,69.04166975080227 L 420.81662348876785,49.44166975080225 L 440.41662348876787,49.44166975080225 Z"
       id="path90"
       style="vector-effect:non-scaling-stroke;-inkscape-stroke:hairline;stroke-width:0.26458333;stroke-dasharray:none" />
    <path
       d="M 386.47124428248264,37.896290544517115 L 403.4453421966577,28.096290544517103 L 413.24534219665765,45.07038845869209 L 396.27124428248266,54.87038845869208 L 386.47124428248264,37.896290544517115 Z"
       id="path91"
       style="vector-effect:non-scaling-stroke;-inkscape-stroke:hairline;stroke-width:0.26458333;stroke-dasharray:none" />
    <path
       d="M 464.9620026950531,54.87038845869208 L 447.9879047808781,45.070388458692065 L 457.7879047808781,28.096290544517075 L 474.76200269505307,37.896290544517086 L 464.9620026950531,54.87038845869208 Z"
       id="path92"
       style="vector-effect:non-scaling-stroke;-inkscape-stroke:hairline;stroke-width:0.26458333;stroke-dasharray:none" />
    <path
       d="M 441.76910262736106,43.04166975080233 L 419.46414435017465,43.04166975080227 L 408.31166521158144,23.725009252406892 L 413.34905165214053,15.0 L 447.8841953253952,15.0 L 452.9215817659543,23.725009252406892 L 441.76910262736106,43.04166975080233 Z"
       id="path93"
       style="vector-effect:non-scaling-stroke;-inkscape-stroke:hairline;stroke-width:0.26458333;stroke-dasharray:none" />
    <path
       d="M 475.9332839871633,158.3342138302089 L 475.9332839871633,173.2490886617681 L 463.0166234887679,165.79165124598853 L 475.9332839871633,158.3342138302089 Z"
       id="path94"
       style="vector-effect:non-scaling-stroke;-inkscape-stroke:hairline;stroke-width:0.26458333;stroke-dasharray:none" />
    <path
       d="M 521.2499444855587,165.79165124598853 L 508.33328398716327,173.2490886617681 L 508.3332839871633,158.33421383020894 L 521.2499444855587,165.79165124598853 Z"
       id="path95"
       style="vector-effect:non-scaling-stroke;-inkscape-stroke:hairline;stroke-width:0.26458333;stroke-dasharray:none" />
    <path
       d="M 501.9332839871633,174.99999999999997 L 482.33328398716327,174.99999999999997 L 482.33328398716327,155.99165124598852 L 501.9332839871633,155.99165124598852 L 501.9332839871633,174.99999999999997 Z"
       id="path96"
       style="vector-effect:non-scaling-stroke;-inkscape-stroke:hairline;stroke-width:0.26458333;stroke-dasharray:none" />
    <path
       d="M 447.98790478087807,144.44627203970333 L 464.9620026950531,134.64627203970332 L 474.76200269505307,151.6203699538783 L 457.787904780878,161.42036995387832 L 447.98790478087807,144.44627203970333 Z"
       id="path97"
       style="vector-effect:non-scaling-stroke;-inkscape-stroke:hairline;stroke-width:0.26458333;stroke-dasharray:none" />
    <path
       d="M 526.4786631934485,161.42036995387832 L 509.50456527927355,151.6203699538783 L 519.3045652792734,134.64627203970332 L 536.2786631934484,144.44627203970333 L 526.4786631934485,161.42036995387832 Z"
       id="path98"
       style="vector-effect:non-scaling-stroke;-inkscape-stroke:hairline;stroke-width:0.26458333;stroke-dasharray:none" />
    <path
       d="M 514.4382422643497,130.2749907475931 L 503.2857631257565,149.59165124598852 L 480.9808048485701,149.59165124598852 L 469.82832570997687,130.2749907475931 L 480.9808048485701,110.95833024919773 L 503.28576312575655,110.95833024919773 L 514.4382422643497,130.2749907475931 Z"
       id="path99"
       style="vector-effect:non-scaling-stroke;-inkscape-stroke:hairline;stroke-width:0.26458333;stroke-dasharray:none" />
    <path
       d="M 475.9332839871633,87.30089283341812 L 475.9332839871633,102.21576766497725 L 463.0166234887679,94.75833024919768 L 475.9332839871633,87.30089283341812 Z"
       id="path100"
       style="vector-effect:non-scaling-stroke;-inkscape-stroke:hairline;stroke-width:0.26458333;stroke-dasharray:none" />
    <path
       d="M 521.2499444855587,94.75833024919768 L 508.33328398716327,102.21576766497728 L 508.3332839871633,87.30089283341809 L 521.2499444855587,94.75833024919768 Z"
       id="path101"
       style="vector-effect:non-scaling-stroke;-inkscape-stroke:hairline;stroke-width:0.26458333;stroke-dasharray:none" />
    <path
       d="M 501.9332839871633,84.95833024919767 L 501.9332839871633,104.5583302491977 L 482.33328398716327,104.5583302491977 L 482.33328398716327,84.95833024919767 L 501.9332839871633,84.95833024919767 Z"
       id="path102"
       style="vector-effect:non-scaling-stroke;-inkscape-stroke:hairline;stroke-width:0.26458333;stroke-dasharray:none" />
    <path
       d="M 447.98790478087807,73.41295104291254 L 464.9620026950531,63.61295104291253 L 474.76200269505307,80.58704895708752 L 457.7879047808781,90.3870489570875 L 447.98790478087807,73.41295104291254 Z"
       id="path103"
       style="vector-effect:non-scaling-stroke;-inkscape-stroke:hairline;stroke-width:0.26458333;stroke-dasharray:none" />
    <path
       d="M 526.4786631934485,90.38704895708747 L 509.5045652792735,80.58704895708749 L 519.3045652792734,63.61295104291253 L 536.2786631934484,73.41295104291251 L 526.4786631934485,90.38704895708747 Z"
       id="path104"
       style="vector-effect:non-scaling-stroke;-inkscape-stroke:hairline;stroke-width:0.26458333;stroke-dasharray:none" />
    <path
       d="M 514.4382422643497,59.241669750802316 L 503.2857631257565,78.55833024919775 L 480.9808048485701,78.5583302491977 L 469.82832570997687,59.241669750802316 L 480.9808048485701,39.92500925240688 L 503.28576312575655,39.92500925240688 L 514.4382422643497,59.241669750802316 Z"
       id="path105"
       style="vector-effect:non-scaling-stroke;-inkscape-stroke:hairline;stroke-width:0.26458333;stroke-dasharray:none" />
    <path
       d="M 475.9332839871633,16.26757183662727 L 475.9332839871633,31.182446668186458 L 463.0166234887679,23.725009252406892 L 475.9332839871633,16.26757183662727 Z"
       id="path106"
       style="vector-effect:non-scaling-stroke;-inkscape-stroke:hairline;stroke-width:0.26458333;stroke-dasharray:none" />
    <path
       d="M 521.2499444855587,23.725009252406892 L 508.33328398716327,31.182446668186486 L 508.3332839871633,16.26757183662727 L 521.2499444855587,23.725009252406892 Z"
       id="path107"
       style="vector-effect:non-scaling-stroke;-inkscape-stroke:hairline;stroke-width:0.26458333;stroke-dasharray:none" />
    <path
       d="M 501.9332839871633,33.5250092524069 L 482.33328398716327,33.5250092524069 L 482.33328398716327,15.0 L 501.9332839871633,15.0 L 501.9332839871633,33.5250092524069 Z"
       id="path108"
       style="vector-effect:non-scaling-stroke;-inkscape-stroke:hairline;stroke-width:0.26458333;stroke-dasharray:none" />
    <path
       d="M 570.6384601308246,174.99999999999997 L 536.6614288402927,174.99999999999997 L 531.3449862083722,165.79165124598853 L 542.4974653469654,146.4749907475931 L 564.802423624152,146.4749907475931 L 575.9549027627451,165.79165124598853 L 570.6384601308246,174.99999999999997 Z"
       id="path109"
       style="vector-effect:non-scaling-stroke;-inkscape-stroke:hairline;stroke-width:0.26458333;stroke-dasharray:none" />
    <path
       d="M 537.4499444855586,122.81755333181354 L 537.4499444855586,137.73242816337267 L 524.5332839871633,130.2749907475931 L 537.4499444855586,122.81755333181354 Z"
       id="path110"
       style="vector-effect:non-scaling-stroke;-inkscape-stroke:hairline;stroke-width:0.26458333;stroke-dasharray:none" />
    <path
       d="M 582.766604983954,130.2749907475931 L 569.8499444855587,137.73242816337265 L 569.8499444855588,122.81755333181354 L 582.766604983954,130.2749907475931 Z"
       id="path111"
       style="vector-effect:non-scaling-stroke;-inkscape-stroke:hairline;stroke-width:0.26458333;stroke-dasharray:none" />
    <path
       d="M 563.4499444855586,120.4749907475931 L 563.4499444855586,140.07499074759312 L 543.8499444855587,140.07499074759312 L 543.8499444855587,120.4749907475931 L 563.4499444855586,120.4749907475931 Z"
       id="path112"
       style="vector-effect:non-scaling-stroke;-inkscape-stroke:hairline;stroke-width:0.26458333;stroke-dasharray:none" />
    <path
       d="M 509.5045652792735,108.9296115413079 L 526.4786631934485,99.12961154130787 L 536.2786631934484,116.10370945548289 L 519.3045652792734,125.90370945548293 L 509.5045652792735,108.9296115413079 Z"
       id="path113"
       style="vector-effect:non-scaling-stroke;-inkscape-stroke:hairline;stroke-width:0.26458333;stroke-dasharray:none" />
    <path
       d="M 587.9953236918439,125.9037094554829 L 571.021225777669,116.10370945548289 L 580.8212257776688,99.1296115413079 L 597.7953236918438,108.9296115413079 L 587.9953236918439,125.9037094554829 Z"
       id="path114"
       style="vector-effect:non-scaling-stroke;-inkscape-stroke:hairline;stroke-width:0.26458333;stroke-dasharray:none" />
    <path
       d="M 575.9549027627451,94.75833024919768 L 564.8024236241519,114.07499074759312 L 542.4974653469654,114.07499074759312 L 531.3449862083722,94.75833024919768 L 542.4974653469654,75.4416697508023 L 564.802423624152,75.4416697508023 L 575.9549027627451,94.75833024919768 Z"
       id="path115"
       style="vector-effect:non-scaling-stroke;-inkscape-stroke:hairline;stroke-width:0.26458333;stroke-dasharray:none" />
    <path
       d="M 537.4499444855586,51.78423233502269 L 537.4499444855586,66.69910716658183 L 524.5332839871633,59.24166975080226 L 537.4499444855586,51.78423233502269 Z"
       id="path116"
       style="vector-effect:non-scaling-stroke;-inkscape-stroke:hairline;stroke-width:0.26458333;stroke-dasharray:none" />
    <path
       d="M 582.766604983954,59.24166975080226 L 569.8499444855587,66.6991071665818 L 569.8499444855588,51.78423233502269 L 582.766604983954,59.24166975080226 Z"
       id="path117"
       style="vector-effect:non-scaling-stroke;-inkscape-stroke:hairline;stroke-width:0.26458333;stroke-dasharray:none" />
    <path
       d="M 563.4499444855586,49.44166975080225 L 563.4499444855586,69.04166975080227 L 543.8499444855587,69.04166975080227 L 543.8499444855587,49.44166975080225 L 563.4499444855586,49.44166975080225 Z"
       id="path118"
       style="vector-effect:non-scaling-stroke;-inkscape-stroke:hairline;stroke-width:0.26458333;stroke-dasharray:none" />
    <path
       d="M 509.5045652792735,37.896290544517086 L 526.4786631934485,28.096290544517075 L 536.2786631934484,45.07038845869209 L 519.3045652792734,54.87038845869205 L 509.5045652792735,37.896290544517086 Z"
       id="path119"
       style="vector-effect:non-scaling-stroke;-inkscape-stroke:hairline;stroke-width:0.26458333;stroke-dasharray:none" />
    <path
       d="M 587.9953236918439,54.87038845869205 L 571.021225777669,45.070388458692065 L 580.8212257776688,28.096290544517103 L 597.7953236918438,37.896290544517086 L 587.9953236918439,54.87038845869205 Z"
       id="path120"
       style="vector-effect:non-scaling-stroke;-inkscape-stroke:hairline;stroke-width:0.26458333;stroke-dasharray:none" />
    <path
       d="M 564.8024236241519,43.04166975080233 L 542.4974653469654,43.04166975080227 L 531.3449862083722,23.725009252406892 L 536.3823726489313,15.0 L 570.917516322186,15.0 L 575.9549027627451,23.725009252406892 L 564.8024236241519,43.04166975080233 Z"
       id="path121"
       style="vector-effect:non-scaling-stroke;-inkscape-stroke:hairline;stroke-width:0.26458333;stroke-dasharray:none" />
    <path
       d="M 598.966604983954,158.33421383020897 L 598.966604983954,173.24908866176807 L 586.0499444855586,165.79165124598853 L 598.966604983954,158.33421383020897 Z"
       id="path122"
       style="vector-effect:non-scaling-stroke;-inkscape-stroke:hairline;stroke-width:0.26458333;stroke-dasharray:none" />
    <path
       d="M 644.2832654823494,165.79165124598853 L 631.3666049839541,173.24908866176804 L 631.3666049839542,158.33421383020897 L 644.2832654823494,165.79165124598853 Z"
       id="path123"
       style="vector-effect:non-scaling-stroke;-inkscape-stroke:hairline;stroke-width:0.26458333;stroke-dasharray:none" />
    <path
       d="M 624.966604983954,174.99999999999997 L 605.3666049839541,174.99999999999997 L 605.3666049839541,155.99165124598852 L 624.966604983954,155.99165124598852 L 624.966604983954,174.99999999999997 Z"
       id="path124"
       style="vector-effect:non-scaling-stroke;-inkscape-stroke:hairline;stroke-width:0.26458333;stroke-dasharray:none" />
    <path
       d="M 571.0212257776689,144.44627203970333 L 587.9953236918439,134.64627203970332 L 597.7953236918438,151.6203699538783 L 580.8212257776688,161.42036995387832 L 571.0212257776689,144.44627203970333 Z"
       id="path125"
       style="vector-effect:non-scaling-stroke;-inkscape-stroke:hairline;stroke-width:0.26458333;stroke-dasharray:none" />
    <path
       d="M 649.5119841902392,161.42036995387832 L 632.5378862760643,151.6203699538783 L 642.3378862760642,134.64627203970332 L 659.3119841902392,144.44627203970333 L 649.5119841902392,161.42036995387832 Z"
       id="path126"
       style="vector-effect:non-scaling-stroke;-inkscape-stroke:hairline;stroke-width:0.26458333;stroke-dasharray:none" />
    <path
       d="M 637.4715632611404,130.2749907475931 L 626.3190841225472,149.59165124598852 L 604.0141258453608,149.59165124598852 L 592.8616467067676,130.2749907475931 L 604.0141258453608,110.95833024919773 L 626.3190841225473,110.95833024919773 L 637.4715632611404,130.2749907475931 Z"
       id="path127"
       style="vector-effect:non-scaling-stroke;-inkscape-stroke:hairline;stroke-width:0.26458333;stroke-dasharray:none" />
    <path
       d="M 598.966604983954,87.30089283341812 L 598.966604983954,102.21576766497725 L 586.0499444855586,94.75833024919768 L 598.966604983954,87.30089283341812 Z"
       id="path128"
       style="vector-effect:non-scaling-stroke;-inkscape-stroke:hairline;stroke-width:0.26458333;stroke-dasharray:none" />
    <path
       d="M 644.2832654823494,94.75833024919768 L 631.3666049839541,102.21576766497722 L 631.3666049839542,87.30089283341812 L 644.2832654823494,94.75833024919768 Z"
       id="path129"
       style="vector-effect:non-scaling-stroke;-inkscape-stroke:hairline;stroke-width:0.26458333;stroke-dasharray:none" />
    <path
       d="M 624.966604983954,84.95833024919767 L 624.966604983954,104.5583302491977 L 605.3666049839541,104.5583302491977 L 605.3666049839541,84.95833024919767 L 624.966604983954,84.95833024919767 Z"
       id="path130"
       style="vector-effect:non-scaling-stroke;-inkscape-stroke:hairline;stroke-width:0.26458333;stroke-dasharray:none" />
    <path
       d="M 571.0212257776689,73.41295104291251 L 587.9953236918439,63.6129510429125 L 597.7953236918438,80.58704895708752 L 580.8212257776688,90.38704895708747 L 571.0212257776689,73.41295104291251 Z"
       id="path131"
       style="vector-effect:non-scaling-stroke;-inkscape-stroke:hairline;stroke-width:0.26458333;stroke-dasharray:none" />
    <path
       d="M 649.5119841902392,90.38704895708747 L 632.5378862760643,80.58704895708749 L 642.3378862760642,63.61295104291253 L 659.3119841902392,73.41295104291251 L 649.5119841902392,90.38704895708747 Z"
       id="path132"
       style="vector-effect:non-scaling-stroke;-inkscape-stroke:hairline;stroke-width:0.26458333;stroke-dasharray:none" />
    <path
       d="M 637.4715632611404,59.241669750802316 L 626.3190841225472,78.55833024919775 L 604.0141258453608,78.5583302491977 L 592.8616467067676,59.241669750802316 L 604.0141258453608,39.92500925240688 L 626.3190841225473,39.92500925240688 L 637.4715632611404,59.241669750802316 Z"
       id="path133"
       style="vector-effect:non-scaling-stroke;-inkscape-stroke:hairline;stroke-width:0.26458333;stroke-dasharray:none" />
    <path
       d="M 598.966604983954,16.267571836627326 L 598.966604983954,31.182446668186458 L 586.0499444855586,23.725009252406892 L 598.966604983954,16.267571836627326 Z"
       id="path134"
       style="vector-effect:non-scaling-stroke;-inkscape-stroke:hairline;stroke-width:0.26458333;stroke-dasharray:none" />
    <path
       d="M 644.2832654823494,23.725009252406892 L 631.3666049839541,31.18244666818643 L 631.3666049839542,16.267571836627326 L 644.2832654823494,23.725009252406892 Z"
       id="path135"
       style="vector-effect:non-scaling-stroke;-inkscape-stroke:hairline;stroke-width:0.26458333;stroke-dasharray:none" />
    <path
       d="M 624.966604983954,33.5250092524069 L 605.3666049839541,33.5250092524069 L 605.3666049839541,15.0 L 624.966604983954,15.0 L 624.966604983954,33.5250092524069 Z"
       id="path136"
       style="vector-effect:non-scaling-stroke;-inkscape-stroke:hairline;stroke-width:0.26458333;stroke-dasharray:none" />
    <path
       d="M 693.6717811276153,174.99999999999997 L 659.6947498370835,174.99999999999997 L 654.378307205163,165.79165124598853 L 665.5307863437562,146.4749907475931 L 687.8357446209427,146.4749907475931 L 698.9882237595358,165.79165124598853 L 693.6717811276153,174.99999999999997 Z"
       id="path137"
       style="vector-effect:non-scaling-stroke;-inkscape-stroke:hairline;stroke-width:0.26458333;stroke-dasharray:none" />
    <path
       d="M 660.4832654823493,122.81755333181354 L 660.4832654823493,137.73242816337267 L 647.566604983954,130.2749907475931 L 660.4832654823493,122.81755333181354 Z"
       id="path138"
       style="vector-effect:non-scaling-stroke;-inkscape-stroke:hairline;stroke-width:0.26458333;stroke-dasharray:none" />
    <path
       d="M 705.7999259807448,130.2749907475931 L 692.8832654823494,137.73242816337265 L 692.8832654823495,122.81755333181354 L 705.7999259807448,130.2749907475931 Z"
       id="path139"
       style="vector-effect:non-scaling-stroke;-inkscape-stroke:hairline;stroke-width:0.26458333;stroke-dasharray:none" />
    <path
       d="M 686.4832654823493,120.4749907475931 L 686.4832654823493,140.07499074759312 L 666.8832654823494,140.07499074759312 L 666.8832654823494,120.4749907475931 L 686.4832654823493,120.4749907475931 Z"
       id="path140"
       style="vector-effect:non-scaling-stroke;-inkscape-stroke:hairline;stroke-width:0.26458333;stroke-dasharray:none" />
    <path
       d="M 632.5378862760642,108.9296115413079 L 649.5119841902392,99.12961154130787 L 659.3119841902392,116.10370945548289 L 642.3378862760642,125.90370945548293 L 632.5378862760642,108.9296115413079 Z"
       id="path141"
       style="vector-effect:non-scaling-stroke;-inkscape-stroke:hairline;stroke-width:0.26458333;stroke-dasharray:none" />
    <path
       d="M 711.0286446886346,125.9037094554829 L 694.0545467744597,116.10370945548289 L 703.8545467744595,99.1296115413079 L 720.8286446886345,108.9296115413079 L 711.0286446886346,125.9037094554829 Z"
       id="path142"
       style="vector-effect:non-scaling-stroke;-inkscape-stroke:hairline;stroke-width:0.26458333;stroke-dasharray:none" />
    <path
       d="M 698.9882237595358,94.75833024919768 L 687.8357446209426,114.07499074759312 L 665.5307863437562,114.07499074759312 L 654.378307205163,94.75833024919768 L 665.5307863437562,75.4416697508023 L 687.8357446209427,75.4416697508023 L 698.9882237595358,94.75833024919768 Z"
       id="path143"
       style="vector-effect:non-scaling-stroke;-inkscape-stroke:hairline;stroke-width:0.26458333;stroke-dasharray:none" />
    <path
       d="M 660.4832654823493,51.78423233502269 L 660.4832654823493,66.69910716658183 L 647.566604983954,59.24166975080226 L 660.4832654823493,51.78423233502269 Z"
       id="path144"
       style="vector-effect:non-scaling-stroke;-inkscape-stroke:hairline;stroke-width:0.26458333;stroke-dasharray:none" />
    <path
       d="M 705.7999259807448,59.24166975080226 L 692.8832654823494,66.6991071665818 L 692.8832654823495,51.78423233502269 L 705.7999259807448,59.24166975080226 Z"
       id="path145"
       style="vector-effect:non-scaling-stroke;-inkscape-stroke:hairline;stroke-width:0.26458333;stroke-dasharray:none" />
    <path
       d="M 686.4832654823493,49.44166975080225 L 686.4832654823493,69.04166975080227 L 666.8832654823494,69.04166975080227 L 666.8832654823494,49.44166975080225 L 686.4832654823493,49.44166975080225 Z"
       id="path146"
       style="vector-effect:non-scaling-stroke;-inkscape-stroke:hairline;stroke-width:0.26458333;stroke-dasharray:none" />
    <path
       d="M 632.5378862760642,37.896290544517086 L 649.5119841902392,28.096290544517075 L 659.3119841902392,45.07038845869209 L 642.3378862760642,54.87038845869205 L 632.5378862760642,37.896290544517086 Z"
       id="path147"
       style="vector-effect:non-scaling-stroke;-inkscape-stroke:hairline;stroke-width:0.26458333;stroke-dasharray:none" />
    <path
       d="M 711.0286446886346,54.87038845869205 L 694.0545467744597,45.070388458692065 L 703.8545467744595,28.096290544517103 L 720.8286446886345,37.896290544517086 L 711.0286446886346,54.87038845869205 Z"
       id="path148"
       style="vector-effect:non-scaling-stroke;-inkscape-stroke:hairline;stroke-width:0.26458333;stroke-dasharray:none" />
    <path
       d="M 687.8357446209426,43.04166975080233 L 665.5307863437562,43.04166975080227 L 654.378307205163,23.725009252406892 L 659.4156936457221,15.0 L 693.9508373189767,15.0 L 698.9882237595358,23.725009252406892 L 687.8357446209426,43.04166975080233 Z"
       id="path149"
       style="vector-effect:non-scaling-stroke;-inkscape-stroke:hairline;stroke-width:0.26458333;stroke-dasharray:none" />
    <path
       d="M 721.9999259807447,158.33421383020897 L 721.9999259807447,173.24908866176807 L 709.0832654823494,165.79165124598853 L 721.9999259807447,158.33421383020897 Z"
       id="path150"
       style="vector-effect:non-scaling-stroke;-inkscape-stroke:hairline;stroke-width:0.26458333;stroke-dasharray:none" />
    <path
       d="M 767.3165864791401,165.79165124598853 L 754.3999259807448,173.24908866176804 L 754.3999259807449,158.33421383020897 L 767.3165864791401,165.79165124598853 Z"
       id="path151"
       style="vector-effect:non-scaling-stroke;-inkscape-stroke:hairline;stroke-width:0.26458333;stroke-dasharray:none" />
    <path
       d="M 747.9999259807447,174.99999999999997 L 728.3999259807448,174.99999999999997 L 728.3999259807448,155.99165124598852 L 747.9999259807447,155.99165124598852 L 747.9999259807447,174.99999999999997 Z"
       id="path152"
       style="vector-effect:non-scaling-stroke;-inkscape-stroke:hairline;stroke-width:0.26458333;stroke-dasharray:none" />
    <path
       d="M 694.0545467744596,144.44627203970333 L 711.0286446886346,134.64627203970332 L 720.8286446886345,151.6203699538783 L 703.8545467744595,161.42036995387832 L 694.0545467744596,144.44627203970333 Z"
       id="path153"
       style="vector-effect:non-scaling-stroke;-inkscape-stroke:hairline;stroke-width:0.26458333;stroke-dasharray:none" />
    <path
       d="M 772.54530518703,161.42036995387832 L 755.5712072728551,151.6203699538783 L 765.3712072728549,134.64627203970332 L 782.3453051870299,144.44627203970333 L 772.54530518703,161.42036995387832 Z"
       id="path154"
       style="vector-effect:non-scaling-stroke;-inkscape-stroke:hairline;stroke-width:0.26458333;stroke-dasharray:none" />
    <path
       d="M 760.5048842579312,130.2749907475931 L 749.352405119338,149.59165124598852 L 727.0474468421515,149.59165124598852 L 715.8949677035583,130.2749907475931 L 727.0474468421515,110.95833024919773 L 749.3524051193381,110.95833024919773 L 760.5048842579312,130.2749907475931 Z"
       id="path155"
       style="vector-effect:non-scaling-stroke;-inkscape-stroke:hairline;stroke-width:0.26458333;stroke-dasharray:none" />
    <path
       d="M 721.9999259807447,87.30089283341812 L 721.9999259807447,102.21576766497725 L 709.0832654823494,94.75833024919768 L 721.9999259807447,87.30089283341812 Z"
       id="path156"
       style="vector-effect:non-scaling-stroke;-inkscape-stroke:hairline;stroke-width:0.26458333;stroke-dasharray:none" />
    <path
       d="M 767.3165864791401,94.75833024919768 L 754.3999259807448,102.21576766497722 L 754.3999259807449,87.30089283341812 L 767.3165864791401,94.75833024919768 Z"
       id="path157"
       style="vector-effect:non-scaling-stroke;-inkscape-stroke:hairline;stroke-width:0.26458333;stroke-dasharray:none" />
    <path
       d="M 747.9999259807447,84.95833024919767 L 747.9999259807447,104.5583302491977 L 728.3999259807448,104.5583302491977 L 728.3999259807448,84.95833024919767 L 747.9999259807447,84.95833024919767 Z"
       id="path158"
       style="vector-effect:non-scaling-stroke;-inkscape-stroke:hairline;stroke-width:0.26458333;stroke-dasharray:none" />
    <path
       d="M 694.0545467744596,73.41295104291251 L 711.0286446886346,63.6129510429125 L 720.8286446886345,80.58704895708752 L 703.8545467744595,90.38704895708747 L 694.0545467744596,73.41295104291251 Z"
       id="path159"
       style="vector-effect:non-scaling-stroke;-inkscape-stroke:hairline;stroke-width:0.26458333;stroke-dasharray:none" />
    <path
       d="M 772.54530518703,90.38704895708747 L 755.5712072728551,80.58704895708749 L 765.3712072728549,63.61295104291253 L 782.3453051870299,73.41295104291251 L 772.54530518703,90.38704895708747 Z"
       id="path160"
       style="vector-effect:non-scaling-stroke;-inkscape-stroke:hairline;stroke-width:0.26458333;stroke-dasharray:none" />
    <path
       d="M 760.5048842579312,59.241669750802316 L 749.352405119338,78.55833024919775 L 727.0474468421515,78.5583302491977 L 715.8949677035583,59.241669750802316 L 727.0474468421515,39.92500925240688 L 749.3524051193381,39.92500925240688 L 760.5048842579312,59.241669750802316 Z"
       id="path161"
       style="vector-effect:non-scaling-stroke;-inkscape-stroke:hairline;stroke-width:0.26458333;stroke-dasharray:none" />
    <path
       d="M 721.9999259807447,16.267571836627326 L 721.9999259807447,31.182446668186458 L 709.0832654823494,23.725009252406892 L 721.9999259807447,16.267571836627326 Z"
       id="path162"
       style="vector-effect:non-scaling-stroke;-inkscape-stroke:hairline;stroke-width:0.26458333;stroke-dasharray:none" />
    <path
       d="M 767.3165864791401,23.725009252406892 L 754.3999259807448,31.18244666818643 L 754.3999259807449,16.267571836627326 L 767.3165864791401,23.725009252406892 Z"
       id="path163"
       style="vector-effect:non-scaling-stroke;-inkscape-stroke:hairline;stroke-width:0.26458333;stroke-dasharray:none" />
    <path
       d="M 747.9999259807447,33.5250092524069 L 728.3999259807448,33.5250092524069 L 728.3999259807448,15.0 L 747.9999259807447,15.0 L 747.9999259807447,33.5250092524069 Z"
       id="path164"
       style="vector-effect:non-scaling-stroke;-inkscape-stroke:hairline;stroke-width:0.26458333;stroke-dasharray:none" />
    <path
       d="M 816.705102124406,174.99999999999997 L 782.7280708338742,174.99999999999997 L 777.4116282019537,165.79165124598853 L 788.5641073405469,146.4749907475931 L 810.8690656177334,146.4749907475931 L 822.0215447563265,165.79165124598853 L 816.705102124406,174.99999999999997 Z"
       id="path165"
       style="vector-effect:non-scaling-stroke;-inkscape-stroke:hairline;stroke-width:0.26458333;stroke-dasharray:none" />
    <path
       d="M 783.5165864791401,122.81755333181354 L 783.5165864791401,137.73242816337267 L 770.5999259807447,130.2749907475931 L 783.5165864791401,122.81755333181354 Z"
       id="path166"
       style="vector-effect:non-scaling-stroke;-inkscape-stroke:hairline;stroke-width:0.26458333;stroke-dasharray:none" />
    <path
       d="M 828.8332469775355,130.2749907475931 L 815.9165864791402,137.73242816337265 L 815.9165864791403,122.81755333181354 L 828.8332469775355,130.2749907475931 Z"
       id="path167"
       style="vector-effect:non-scaling-stroke;-inkscape-stroke:hairline;stroke-width:0.26458333;stroke-dasharray:none" />
    <path
       d="M 809.5165864791401,120.4749907475931 L 809.5165864791401,140.07499074759312 L 789.9165864791402,140.07499074759312 L 789.9165864791402,120.4749907475931 L 809.5165864791401,120.4749907475931 Z"
       id="path168"
       style="vector-effect:non-scaling-stroke;-inkscape-stroke:hairline;stroke-width:0.26458333;stroke-dasharray:none" />
    <path
       d="M 755.571207272855,108.9296115413079 L 772.54530518703,99.12961154130787 L 782.3453051870299,116.10370945548289 L 765.3712072728549,125.90370945548293 L 755.571207272855,108.9296115413079 Z"
       id="path169"
       style="vector-effect:non-scaling-stroke;-inkscape-stroke:hairline;stroke-width:0.26458333;stroke-dasharray:none" />
    <path
       d="M 834.0619656854253,125.9037094554829 L 817.0878677712504,116.10370945548289 L 826.8878677712503,99.1296115413079 L 843.8619656854253,108.9296115413079 L 834.0619656854253,125.9037094554829 Z"
       id="path170"
       style="vector-effect:non-scaling-stroke;-inkscape-stroke:hairline;stroke-width:0.26458333;stroke-dasharray:none" />
    <path
       d="M 822.0215447563265,94.75833024919768 L 810.8690656177333,114.07499074759312 L 788.5641073405469,114.07499074759312 L 777.4116282019537,94.75833024919768 L 788.5641073405469,75.4416697508023 L 810.8690656177334,75.4416697508023 L 822.0215447563265,94.75833024919768 Z"
       id="path171"
       style="vector-effect:non-scaling-stroke;-inkscape-stroke:hairline;stroke-width:0.26458333;stroke-dasharray:none" />
    <path
       d="M 783.5165864791401,51.78423233502269 L 783.5165864791401,66.69910716658183 L 770.5999259807447,59.24166975080226 L 783.5165864791401,51.78423233502269 Z"
       id="path172"
       style="vector-effect:non-scaling-stroke;-inkscape-stroke:hairline;stroke-width:0.26458333;stroke-dasharray:none" />
    <path
       d="M 828.8332469775355,59.24166975080226 L 815.9165864791402,66.6991071665818 L 815.9165864791403,51.78423233502269 L 828.8332469775355,59.24166975080226 Z"
       id="path173"
       style="vector-effect:non-scaling-stroke;-inkscape-stroke:hairline;stroke-width:0.26458333;stroke-dasharray:none" />
    <path
       d="M 809.5165864791401,49.44166975080225 L 809.5165864791401,69.04166975080227 L 789.9165864791402,69.04166975080227 L 789.9165864791402,49.44166975080225 L 809.5165864791401,49.44166975080225 Z"
       id="path174"
       style="vector-effect:non-scaling-stroke;-inkscape-stroke:hairline;stroke-width:0.26458333;stroke-dasharray:none" />
    <path
       d="M 755.571207272855,37.896290544517086 L 772.54530518703,28.096290544517075 L 782.3453051870299,45.07038845869209 L 765.3712072728549,54.87038845869205 L 755.571207272855,37.896290544517086 Z"
       id="path175"
       style="vector-effect:non-scaling-stroke;-inkscape-stroke:hairline;stroke-width:0.26458333;stroke-dasharray:none" />
    <path
       d="M 834.0619656854253,54.87038845869205 L 817.0878677712504,45.070388458692065 L 826.8878677712503,28.096290544517103 L 843.8619656854253,37.896290544517086 L 834.0619656854253,54.87038845869205 Z"
       id="path176"
       style="vector-effect:non-scaling-stroke;-inkscape-stroke:hairline;stroke-width:0.26458333;stroke-dasharray:none" />
    <path
       d="M 810.8690656177333,43.04166975080233 L 788.5641073405469,43.04166975080227 L 777.4116282019537,23.725009252406892 L 782.4490146425128,15.0 L 816.9841583157674,15.0 L 822.0215447563265,23.725009252406892 L 810.8690656177333,43.04166975080233 Z"
       id="path177"
       style="vector-effect:non-scaling-stroke;-inkscape-stroke:hairline;stroke-width:0.26458333;stroke-dasharray:none" />
    <path
       d="M 845.0332469775354,158.33421383020897 L 845.0332469775354,173.24908866176807 L 832.1165864791401,165.79165124598853 L 845.0332469775354,158.33421383020897 Z"
       id="path178"
       style="vector-effect:non-scaling-stroke;-inkscape-stroke:hairline;stroke-width:0.26458333;stroke-dasharray:none" />
    <path
       d="M 890.3499074759309,165.79165124598853 L 877.4332469775355,173.24908866176804 L 877.4332469775356,158.33421383020897 L 890.3499074759309,165.79165124598853 Z"
       id="path179"
       style="vector-effect:non-scaling-stroke;-inkscape-stroke:hairline;stroke-width:0.26458333;stroke-dasharray:none" />
    <path
       d="M 871.0332469775354,174.99999999999997 L 851.4332469775355,174.99999999999997 L 851.4332469775355,155.99165124598852 L 871.0332469775354,155.99165124598852 L 871.0332469775354,174.99999999999997 Z"
       id="path180"
       style="vector-effect:non-scaling-stroke;-inkscape-stroke:hairline;stroke-width:0.26458333;stroke-dasharray:none" />
    <path
       d="M 817.0878677712503,144.44627203970333 L 834.0619656854253,134.64627203970332 L 843.8619656854253,151.6203699538783 L 826.8878677712503,161.42036995387832 L 817.0878677712503,144.44627203970333 Z"
       id="path181"
       style="vector-effect:non-scaling-stroke;-inkscape-stroke:hairline;stroke-width:0.26458333;stroke-dasharray:none" />
    <path
       d="M 895.5786261838207,161.42036995387832 L 878.6045282696458,151.6203699538783 L 888.4045282696457,134.64627203970332 L 905.3786261838206,144.44627203970333 L 895.5786261838207,161.42036995387832 Z"
       id="path182"
       style="vector-effect:non-scaling-stroke;-inkscape-stroke:hairline;stroke-width:0.26458333;stroke-dasharray:none" />
    <path
       d="M 883.5382052547219,130.2749907475931 L 872.3857261161287,149.59165124598852 L 850.0807678389423,149.59165124598852 L 838.9282887003491,130.2749907475931 L 850.0807678389423,110.95833024919773 L 872.3857261161288,110.95833024919773 L 883.5382052547219,130.2749907475931 Z"
       id="path183"
       style="vector-effect:non-scaling-stroke;-inkscape-stroke:hairline;stroke-width:0.26458333;stroke-dasharray:none" />
    <path
       d="M 845.0332469775354,87.30089283341812 L 845.0332469775354,102.21576766497725 L 832.1165864791401,94.75833024919768 L 845.0332469775354,87.30089283341812 Z"
       id="path184"
       style="vector-effect:non-scaling-stroke;-inkscape-stroke:hairline;stroke-width:0.26458333;stroke-dasharray:none" />
    <path
       d="M 890.3499074759309,94.75833024919768 L 877.4332469775355,102.21576766497722 L 877.4332469775356,87.30089283341812 L 890.3499074759309,94.75833024919768 Z"
       id="path185"
       style="vector-effect:non-scaling-stroke;-inkscape-stroke:hairline;stroke-width:0.26458333;stroke-dasharray:none" />
    <path
       d="M 871.0332469775354,84.95833024919767 L 871.0332469775354,104.5583302491977 L 851.4332469775355,104.5583302491977 L 851.4332469775355,84.95833024919767 L 871.0332469775354,84.95833024919767 Z"
       id="path186"
       style="vector-effect:non-scaling-stroke;-inkscape-stroke:hairline;stroke-width:0.26458333;stroke-dasharray:none" />
    <path
       d="M 817.0878677712503,73.41295104291251 L 834.0619656854253,63.6129510429125 L 843.8619656854253,80.58704895708752 L 826.8878677712503,90.38704895708747 L 817.0878677712503,73.41295104291251 Z"
       id="path187"
       style="vector-effect:non-scaling-stroke;-inkscape-stroke:hairline;stroke-width:0.26458333;stroke-dasharray:none" />
    <path
       d="M 895.5786261838207,90.38704895708747 L 878.6045282696458,80.58704895708749 L 888.4045282696457,63.61295104291253 L 905.3786261838206,73.41295104291251 L 895.5786261838207,90.38704895708747 Z"
       id="path188"
       style="vector-effect:non-scaling-stroke;-inkscape-stroke:hairline;stroke-width:0.26458333;stroke-dasharray:none" />
    <path
       d="M 883.5382052547219,59.241669750802316 L 872.3857261161287,78.55833024919775 L 850.0807678389423,78.5583302491977 L 838.9282887003491,59.241669750802316 L 850.0807678389423,39.92500925240688 L 872.3857261161288,39.92500925240688 L 883.5382052547219,59.241669750802316 Z"
       id="path189"
       style="vector-effect:non-scaling-stroke;-inkscape-stroke:hairline;stroke-width:0.26458333;stroke-dasharray:none" />
    <path
       d="M 845.0332469775354,16.267571836627326 L 845.0332469775354,31.182446668186458 L 832.1165864791401,23.725009252406892 L 845.0332469775354,16.267571836627326 Z"
       id="path190"
       style="vector-effect:non-scaling-stroke;-inkscape-stroke:hairline;stroke-width:0.26458333;stroke-dasharray:none" />
    <path
       d="M 890.3499074759309,23.725009252406892 L 877.4332469775355,31.18244666818643 L 877.4332469775356,16.267571836627326 L 890.3499074759309,23.725009252406892 Z"
       id="path191"
       style="vector-effect:non-scaling-stroke;-inkscape-stroke:hairline;stroke-width:0.26458333;stroke-dasharray:none" />
    <path
       d="M 871.0332469775354,33.5250092524069 L 851.4332469775355,33.5250092524069 L 851.4332469775355,15.0 L 871.0332469775354,15.0 L 871.0332469775354,33.5250092524069 Z"
       id="path192"
       style="vector-effect:non-scaling-stroke;-inkscape-stroke:hairline;stroke-width:0.26458333;stroke-dasharray:none" />
    <path
       d="M 900.4449491987444,165.79165124598853 L 911.5974283373376,146.4749907475931 L 922.6332839871632,146.4749907475931 L 922.6332839871632,174.99999999999997 L 905.7613918306649,174.99999999999997 L 900.4449491987444,165.79165124598853 Z"
       id="path193"
       style="vector-effect:non-scaling-stroke;-inkscape-stroke:hairline;stroke-width:0.26458333;stroke-dasharray:none" />
    <path
       d="M 906.5499074759308,122.81755333181354 L 906.5499074759308,137.73242816337267 L 893.6332469775355,130.2749907475931 L 906.5499074759308,122.81755333181354 Z"
       id="path194"
       style="vector-effect:non-scaling-stroke;-inkscape-stroke:hairline;stroke-width:0.26458333;stroke-dasharray:none" />
    <path
       d="M 912.9499074759309,140.07499074759312 L 912.9499074759309,120.4749907475931 L 922.6332839871632,120.4749907475931 L 922.6332839871632,140.07499074759312 L 912.9499074759309,140.07499074759312 Z"
       id="path195"
       style="vector-effect:non-scaling-stroke;-inkscape-stroke:hairline;stroke-width:0.26458333;stroke-dasharray:none" />
    <path
       d="M 878.6045282696457,108.9296115413079 L 895.5786261838207,99.12961154130787 L 905.3786261838206,116.10370945548289 L 888.4045282696457,125.90370945548293 L 878.6045282696457,108.9296115413079 Z"
       id="path196"
       style="vector-effect:non-scaling-stroke;-inkscape-stroke:hairline;stroke-width:0.26458333;stroke-dasharray:none" />
    <path
       d="M 911.5974283373376,114.07499074759312 L 900.4449491987444,94.75833024919768 L 911.5974283373376,75.4416697508023 L 922.6332839871632,75.4416697508023 L 922.6332839871632,114.07499074759312 L 911.5974283373376,114.07499074759312 Z"
       id="path197"
       style="vector-effect:non-scaling-stroke;-inkscape-stroke:hairline;stroke-width:0.26458333;stroke-dasharray:none" />
    <path
       d="M 906.5499074759308,51.78423233502269 L 906.5499074759308,66.69910716658183 L 893.6332469775355,59.24166975080226 L 906.5499074759308,51.78423233502269 Z"
       id="path198"
       style="vector-effect:non-scaling-stroke;-inkscape-stroke:hairline;stroke-width:0.26458333;stroke-dasharray:none" />
    <path
       d="M 912.9499074759309,69.04166975080227 L 912.9499074759309,49.44166975080225 L 922.6332839871632,49.44166975080225 L 922.6332839871632,69.04166975080227 L 912.9499074759309,69.04166975080227 Z"
       id="path199"
       style="vector-effect:non-scaling-stroke;-inkscape-stroke:hairline;stroke-width:0.26458333;stroke-dasharray:none" />
    <path
       d="M 878.6045282696457,37.896290544517086 L 895.5786261838207,28.096290544517075 L 905.3786261838206,45.07038845869209 L 888.4045282696457,54.87038845869205 L 878.6045282696457,37.896290544517086 Z"
       id="path200"
       style="vector-effect:non-scaling-stroke;-inkscape-stroke:hairline;stroke-width:0.26458333;stroke-dasharray:none" />
    <path
       d="M 911.5974283373376,43.04166975080227 L 900.4449491987444,23.725009252406892 L 905.4823356393035,15.0 L 922.6332839871632,15.0 L 922.6332839871632,43.0416697508023 L 911.5974283373376,43.04166975080227 Z"
       id="path201"
       style="vector-effect:non-scaling-stroke;-inkscape-stroke:hairline;stroke-width:0.26458333;stroke-dasharray:none" />
    <path
       d="M 39.63328398716317,189.99999999999997 L 944.6332839871632,189.99999999999997 L 944.6332839871632,0.0 L 39.63328398716317,0.0 L 39.63328398716317,189.99999999999997 Z"
       id="path202"
       style="vector-effect:non-scaling-stroke;-inkscape-stroke:hairline;stroke-width:0.26458333;stroke-dasharray:none" />
  </g>
</svg>
