  0
SECTION
  2
HEADER
  9
$ACADVER
  1
AC1014
  9
$HANDSEED
  5
FFFF
  9
$INSUNITS
 70
     4
  9
$MEASUREMENT
 70
     1
  0
ENDSEC
  0
SECTION
  2
TABLES
  0
TABLE
  2
VPORT
  5
8
330
0
100
AcDbSymbolTable
 70
     4
  0
VPORT
  5
2E
330
8
100
AcDbSymbolTableRecord
100
AcDbViewportTableRecord
  2
*ACTIVE
 70
     0
 10
0.0
 20
0.0
 11
1.0
 21
1.0
 12
210.0
 22
148.5
 13
0.0
 23
0.0
 14
10.0
 24
10.0
 15
10.0
 25
10.0
 16
0.0
 26
0.0
 36
1.0
 17
0.0
 27
0.0
 37
0.0
 40
341.0
 41
1.24
 42
50.0
 43
0.0
 44
0.0
 50
0.0
 51
0.0
 71
     0
 72
   100
 73
     1
 74
     3
 75
     0
 76
     0
 77
     0
 78
     0
  0
ENDTAB
  0
TABLE
  2
LTYPE
  5
5
330
0
100
AcDbSymbolTable
 70
     1
  0
LTYPE
  5
14
330
5
100
AcDbSymbolTableRecord
100
AcDbLinetypeTableRecord
  2
BYBLOCK
 70
     0
  3

 72
    65
 73
     0
 40
0.0
  0
LTYPE
  5
15
330
5
100
AcDbSymbolTableRecord
100
AcDbLinetypeTableRecord
  2
BYLAYER
 70
     0
  3

 72
    65
 73
     0
 40
0.0
  0
LTYPE
  5
16
330
5
100
AcDbSymbolTableRecord
100
AcDbLinetypeTableRecord
  2
CONTINUOUS
 70
     0
  3
Solid line
 72
    65
 73
     0
 40
0.0
  0
ENDTAB
  0
TABLE
  2
LAYER
  5
2
100
AcDbSymbolTable
 70
1
  0
LAYER
  5
50
100
AcDbSymbolTableRecord
100
AcDbLayerTableRecord
  2
0
 70
0
  6
CONTINUOUS
  0
ENDTAB
  0
TABLE
  2
STYLE
  5
3
330
0
100
AcDbSymbolTable
 70
     1
  0
STYLE
  5
11
330
3
100
AcDbSymbolTableRecord
100
AcDbTextStyleTableRecord
  2
STANDARD
 70
     0
 40
0.0
 41
1.0
 50
0.0
 71
     0
 42
2.5
  3
txt
  4

  0
ENDTAB
  0
TABLE
  2
VIEW
  5
6
330
0
100
AcDbSymbolTable
 70
     0
  0
ENDTAB
  0
TABLE
  2
UCS
  5
7
330
0
100
AcDbSymbolTable
 70
     0
  0
ENDTAB
  0
TABLE
  2
APPID
  5
9
330
0
100
AcDbSymbolTable
 70
     2
  0
APPID
  5
12
330
9
100
AcDbSymbolTableRecord
100
AcDbRegAppTableRecord
  2
ACAD
 70
     0
  0
ENDTAB
  0
TABLE
  2
DIMSTYLE
  5
A
330
0
100
AcDbSymbolTable
 70
     1
  0
DIMSTYLE
105
27
330
A
100
AcDbSymbolTableRecord
100
AcDbDimStyleTableRecord
  2
ISO-25
 70
     0
  3

  4

  5

  6

  7

 40
1.0
 41
2.5
 42
0.625
 43
3.75
 44
1.25
 45
0.0
 46
0.0
 47
0.0
 48
0.0
140
2.5
141
2.5
142
0.0
143
0.03937007874016
144
1.0
145
0.0
146
1.0
147
0.625
 71
     0
 72
     0
 73
     0
 74
     0
 75
     0
 76
     0
 77
     1
 78
     8
170
     0
171
     3
172
     1
173
     0
174
     0
175
     0
176
     0
177
     0
178
     0
270
     2
271
     2
272
     2
273
     2
274
     3
340
11
275
     0
280
     0
281
     0
282
     0
283
     0
284
     8
285
     0
286
     0
287
     3
288
     0
  0
ENDTAB
  0
TABLE
  2
BLOCK_RECORD
  5
1
330
0
100
AcDbSymbolTable
 70
     1
  0
BLOCK_RECORD
  5
1F
330
1
100
AcDbSymbolTableRecord
100
AcDbBlockTableRecord
  2
*MODEL_SPACE
  0
BLOCK_RECORD
  5
1B
330
1
100
AcDbSymbolTableRecord
100
AcDbBlockTableRecord
  2
*PAPER_SPACE
  0
ENDTAB
  0
ENDSEC
  0
SECTION
  2
BLOCKS
  0
BLOCK
  5
20
330
1F
100
AcDbEntity
  8
0
100
AcDbBlockBegin
  2
*MODEL_SPACE
 70
     0
 10
0.0
 20
0.0
 30
0.0
  3
*MODEL_SPACE
  1

  0
ENDBLK
  5
21
330
1F
100
AcDbEntity
  8
0
100
AcDbBlockEnd
  0
BLOCK
  5
1C
330
1B
100
AcDbEntity
 67
     1
  8
0
100
AcDbBlockBegin
  2
*PAPER_SPACE
  1

  0
ENDBLK
  5
1D
330
1B
100
AcDbEntity
 67
     1
  8
0
100
AcDbBlockEnd
  0
ENDSEC
  0
SECTION
  2
ENTITIES
  0
LWPOLYLINE
  5
100
100
AcDbEntity
  8
0
 62
7
100
AcDbPolyline
 90
6
 70
1
 10
186.372176
 20
70.000000
 30
0.0
 10
169.500284
 20
70.000000
 30
0.0
 10
169.500284
 20
98.525009
 30
0.0
 10
180.536140
 20
98.525009
 30
0.0
 10
191.688619
 20
79.208349
 30
0.0
 10
186.372176
 20
70.000000
 30
0.0
  0
LWPOLYLINE
  5
101
100
AcDbEntity
  8
0
 62
7
100
AcDbPolyline
 90
4
 70
1
 10
198.500321
 20
114.725009
 30
0.0
 10
185.583660
 20
107.267572
 30
0.0
 10
185.583660
 20
122.182447
 30
0.0
 10
198.500321
 20
114.725009
 30
0.0
  0
LWPOLYLINE
  5
102
100
AcDbEntity
  8
0
 62
7
100
AcDbPolyline
 90
5
 70
1
 10
179.183660
 20
104.925009
 30
0.0
 10
169.500284
 20
104.925009
 30
0.0
 10
169.500284
 20
124.525009
 30
0.0
 10
179.183660
 20
124.525009
 30
0.0
 10
179.183660
 20
104.925009
 30
0.0
  0
LWPOLYLINE
  5
103
100
AcDbEntity
  8
0
 62
7
100
AcDbPolyline
 90
5
 70
1
 10
203.729040
 20
119.096291
 30
0.0
 10
186.754942
 20
128.896291
 30
0.0
 10
196.554942
 20
145.870388
 30
0.0
 10
213.529040
 20
136.070388
 30
0.0
 10
203.729040
 20
119.096291
 30
0.0
  0
LWPOLYLINE
  5
104
100
AcDbEntity
  8
0
 62
7
100
AcDbPolyline
 90
6
 70
1
 10
180.536140
 20
130.925009
 30
0.0
 10
169.500284
 20
130.925009
 30
0.0
 10
169.500284
 20
169.558330
 30
0.0
 10
180.536140
 20
169.558330
 30
0.0
 10
191.688619
 20
150.241670
 30
0.0
 10
180.536140
 20
130.925009
 30
0.0
  0
LWPOLYLINE
  5
105
100
AcDbEntity
  8
0
 62
7
100
AcDbPolyline
 90
4
 70
1
 10
198.500321
 20
185.758330
 30
0.0
 10
185.583660
 20
178.300893
 30
0.0
 10
185.583660
 20
193.215768
 30
0.0
 10
198.500321
 20
185.758330
 30
0.0
  0
LWPOLYLINE
  5
106
100
AcDbEntity
  8
0
 62
7
100
AcDbPolyline
 90
5
 70
1
 10
179.183660
 20
175.958330
 30
0.0
 10
169.500284
 20
175.958330
 30
0.0
 10
169.500284
 20
195.558330
 30
0.0
 10
179.183660
 20
195.558330
 30
0.0
 10
179.183660
 20
175.958330
 30
0.0
  0
LWPOLYLINE
  5
107
100
AcDbEntity
  8
0
 62
7
100
AcDbPolyline
 90
5
 70
1
 10
203.729040
 20
190.129612
 30
0.0
 10
186.754942
 20
199.929612
 30
0.0
 10
196.554942
 20
216.903709
 30
0.0
 10
213.529040
 20
207.103709
 30
0.0
 10
203.729040
 20
190.129612
 30
0.0
  0
LWPOLYLINE
  5
108
100
AcDbEntity
  8
0
 62
7
100
AcDbPolyline
 90
6
 70
1
 10
180.536140
 20
201.958330
 30
0.0
 10
169.500284
 20
201.958330
 30
0.0
 10
169.500284
 20
230.000000
 30
0.0
 10
186.651232
 20
230.000000
 30
0.0
 10
191.688619
 20
221.274991
 30
0.0
 10
180.536140
 20
201.958330
 30
0.0
  0
LWPOLYLINE
  5
109
100
AcDbEntity
  8
0
 62
7
100
AcDbPolyline
 90
4
 70
1
 10
214.700321
 20
86.665786
 30
0.0
 10
214.700321
 20
71.750911
 30
0.0
 10
201.783660
 20
79.208349
 30
0.0
 10
214.700321
 20
86.665786
 30
0.0
  0
LWPOLYLINE
  5
10a
100
AcDbEntity
  8
0
 62
7
100
AcDbPolyline
 90
4
 70
1
 10
260.016981
 20
79.208349
 30
0.0
 10
247.100321
 20
71.750911
 30
0.0
 10
247.100321
 20
86.665786
 30
0.0
 10
260.016981
 20
79.208349
 30
0.0
  0
LWPOLYLINE
  5
10b
100
AcDbEntity
  8
0
 62
7
100
AcDbPolyline
 90
5
 70
1
 10
240.700321
 20
70.000000
 30
0.0
 10
221.100321
 20
70.000000
 30
0.0
 10
221.100321
 20
89.008349
 30
0.0
 10
240.700321
 20
89.008349
 30
0.0
 10
240.700321
 20
70.000000
 30
0.0
  0
LWPOLYLINE
  5
10c
100
AcDbEntity
  8
0
 62
7
100
AcDbPolyline
 90
5
 70
1
 10
186.754942
 20
100.553728
 30
0.0
 10
203.729040
 20
110.353728
 30
0.0
 10
213.529040
 20
93.379630
 30
0.0
 10
196.554942
 20
83.579630
 30
0.0
 10
186.754942
 20
100.553728
 30
0.0
  0
LWPOLYLINE
  5
10d
100
AcDbEntity
  8
0
 62
7
100
AcDbPolyline
 90
5
 70
1
 10
265.245700
 20
83.579630
 30
0.0
 10
248.271602
 20
93.379630
 30
0.0
 10
258.071602
 20
110.353728
 30
0.0
 10
275.045700
 20
100.553728
 30
0.0
 10
265.245700
 20
83.579630
 30
0.0
  0
LWPOLYLINE
  5
10e
100
AcDbEntity
  8
0
 62
7
100
AcDbPolyline
 90
7
 70
1
 10
253.205279
 20
114.725009
 30
0.0
 10
242.052800
 20
95.408349
 30
0.0
 10
219.747842
 20
95.408349
 30
0.0
 10
208.595363
 20
114.725009
 30
0.0
 10
219.747842
 20
134.041670
 30
0.0
 10
242.052800
 20
134.041670
 30
0.0
 10
253.205279
 20
114.725009
 30
0.0
  0
LWPOLYLINE
  5
10f
100
AcDbEntity
  8
0
 62
7
100
AcDbPolyline
 90
4
 70
1
 10
214.700321
 20
157.699107
 30
0.0
 10
214.700321
 20
142.784232
 30
0.0
 10
201.783660
 20
150.241670
 30
0.0
 10
214.700321
 20
157.699107
 30
0.0
  0
LWPOLYLINE
  5
110
100
AcDbEntity
  8
0
 62
7
100
AcDbPolyline
 90
4
 70
1
 10
260.016981
 20
150.241670
 30
0.0
 10
247.100321
 20
142.784232
 30
0.0
 10
247.100321
 20
157.699107
 30
0.0
 10
260.016981
 20
150.241670
 30
0.0
  0
LWPOLYLINE
  5
111
100
AcDbEntity
  8
0
 62
7
100
AcDbPolyline
 90
5
 70
1
 10
240.700321
 20
160.041670
 30
0.0
 10
240.700321
 20
140.441670
 30
0.0
 10
221.100321
 20
140.441670
 30
0.0
 10
221.100321
 20
160.041670
 30
0.0
 10
240.700321
 20
160.041670
 30
0.0
  0
LWPOLYLINE
  5
112
100
AcDbEntity
  8
0
 62
7
100
AcDbPolyline
 90
5
 70
1
 10
186.754942
 20
171.587049
 30
0.0
 10
203.729040
 20
181.387049
 30
0.0
 10
213.529040
 20
164.412951
 30
0.0
 10
196.554942
 20
154.612951
 30
0.0
 10
186.754942
 20
171.587049
 30
0.0
  0
LWPOLYLINE
  5
113
100
AcDbEntity
  8
0
 62
7
100
AcDbPolyline
 90
5
 70
1
 10
265.245700
 20
154.612951
 30
0.0
 10
248.271602
 20
164.412951
 30
0.0
 10
258.071602
 20
181.387049
 30
0.0
 10
275.045700
 20
171.587049
 30
0.0
 10
265.245700
 20
154.612951
 30
0.0
  0
LWPOLYLINE
  5
114
100
AcDbEntity
  8
0
 62
7
100
AcDbPolyline
 90
7
 70
1
 10
253.205279
 20
185.758330
 30
0.0
 10
242.052800
 20
166.441670
 30
0.0
 10
219.747842
 20
166.441670
 30
0.0
 10
208.595363
 20
185.758330
 30
0.0
 10
219.747842
 20
205.074991
 30
0.0
 10
242.052800
 20
205.074991
 30
0.0
 10
253.205279
 20
185.758330
 30
0.0
  0
LWPOLYLINE
  5
115
100
AcDbEntity
  8
0
 62
7
100
AcDbPolyline
 90
4
 70
1
 10
214.700321
 20
228.732428
 30
0.0
 10
214.700321
 20
213.817553
 30
0.0
 10
201.783660
 20
221.274991
 30
0.0
 10
214.700321
 20
228.732428
 30
0.0
  0
LWPOLYLINE
  5
116
100
AcDbEntity
  8
0
 62
7
100
AcDbPolyline
 90
4
 70
1
 10
260.016981
 20
221.274991
 30
0.0
 10
247.100321
 20
213.817553
 30
0.0
 10
247.100321
 20
228.732428
 30
0.0
 10
260.016981
 20
221.274991
 30
0.0
  0
LWPOLYLINE
  5
117
100
AcDbEntity
  8
0
 62
7
100
AcDbPolyline
 90
5
 70
1
 10
240.700321
 20
211.474991
 30
0.0
 10
221.100321
 20
211.474991
 30
0.0
 10
221.100321
 20
230.000000
 30
0.0
 10
240.700321
 20
230.000000
 30
0.0
 10
240.700321
 20
211.474991
 30
0.0
  0
LWPOLYLINE
  5
118
100
AcDbEntity
  8
0
 62
7
100
AcDbPolyline
 90
7
 70
1
 10
309.405497
 20
70.000000
 30
0.0
 10
275.428466
 20
70.000000
 30
0.0
 10
270.112023
 20
79.208349
 30
0.0
 10
281.264502
 20
98.525009
 30
0.0
 10
303.569461
 20
98.525009
 30
0.0
 10
314.721940
 20
79.208349
 30
0.0
 10
309.405497
 20
70.000000
 30
0.0
  0
LWPOLYLINE
  5
119
100
AcDbEntity
  8
0
 62
7
100
AcDbPolyline
 90
4
 70
1
 10
276.216981
 20
122.182447
 30
0.0
 10
276.216981
 20
107.267572
 30
0.0
 10
263.300321
 20
114.725009
 30
0.0
 10
276.216981
 20
122.182447
 30
0.0
  0
LWPOLYLINE
  5
11a
100
AcDbEntity
  8
0
 62
7
100
AcDbPolyline
 90
4
 70
1
 10
321.533642
 20
114.725009
 30
0.0
 10
308.616981
 20
107.267572
 30
0.0
 10
308.616981
 20
122.182447
 30
0.0
 10
321.533642
 20
114.725009
 30
0.0
  0
LWPOLYLINE
  5
11b
100
AcDbEntity
  8
0
 62
7
100
AcDbPolyline
 90
5
 70
1
 10
302.216981
 20
124.525009
 30
0.0
 10
302.216981
 20
104.925009
 30
0.0
 10
282.616981
 20
104.925009
 30
0.0
 10
282.616981
 20
124.525009
 30
0.0
 10
302.216981
 20
124.525009
 30
0.0
  0
LWPOLYLINE
  5
11c
100
AcDbEntity
  8
0
 62
7
100
AcDbPolyline
 90
5
 70
1
 10
248.271602
 20
136.070388
 30
0.0
 10
265.245700
 20
145.870388
 30
0.0
 10
275.045700
 20
128.896291
 30
0.0
 10
258.071602
 20
119.096291
 30
0.0
 10
248.271602
 20
136.070388
 30
0.0
  0
LWPOLYLINE
  5
11d
100
AcDbEntity
  8
0
 62
7
100
AcDbPolyline
 90
5
 70
1
 10
326.762361
 20
119.096291
 30
0.0
 10
309.788263
 20
128.896291
 30
0.0
 10
319.588263
 20
145.870388
 30
0.0
 10
336.562361
 20
136.070388
 30
0.0
 10
326.762361
 20
119.096291
 30
0.0
  0
LWPOLYLINE
  5
11e
100
AcDbEntity
  8
0
 62
7
100
AcDbPolyline
 90
7
 70
1
 10
314.721940
 20
150.241670
 30
0.0
 10
303.569461
 20
130.925009
 30
0.0
 10
281.264502
 20
130.925009
 30
0.0
 10
270.112023
 20
150.241670
 30
0.0
 10
281.264502
 20
169.558330
 30
0.0
 10
303.569461
 20
169.558330
 30
0.0
 10
314.721940
 20
150.241670
 30
0.0
  0
LWPOLYLINE
  5
11f
100
AcDbEntity
  8
0
 62
7
100
AcDbPolyline
 90
4
 70
1
 10
276.216981
 20
193.215768
 30
0.0
 10
276.216981
 20
178.300893
 30
0.0
 10
263.300321
 20
185.758330
 30
0.0
 10
276.216981
 20
193.215768
 30
0.0
  0
LWPOLYLINE
  5
120
100
AcDbEntity
  8
0
 62
7
100
AcDbPolyline
 90
4
 70
1
 10
321.533642
 20
185.758330
 30
0.0
 10
308.616981
 20
178.300893
 30
0.0
 10
308.616981
 20
193.215768
 30
0.0
 10
321.533642
 20
185.758330
 30
0.0
  0
LWPOLYLINE
  5
121
100
AcDbEntity
  8
0
 62
7
100
AcDbPolyline
 90
5
 70
1
 10
302.216981
 20
195.558330
 30
0.0
 10
302.216981
 20
175.958330
 30
0.0
 10
282.616981
 20
175.958330
 30
0.0
 10
282.616981
 20
195.558330
 30
0.0
 10
302.216981
 20
195.558330
 30
0.0
  0
LWPOLYLINE
  5
122
100
AcDbEntity
  8
0
 62
7
100
AcDbPolyline
 90
5
 70
1
 10
248.271602
 20
207.103709
 30
0.0
 10
265.245700
 20
216.903709
 30
0.0
 10
275.045700
 20
199.929612
 30
0.0
 10
258.071602
 20
190.129612
 30
0.0
 10
248.271602
 20
207.103709
 30
0.0
  0
LWPOLYLINE
  5
123
100
AcDbEntity
  8
0
 62
7
100
AcDbPolyline
 90
5
 70
1
 10
326.762361
 20
190.129612
 30
0.0
 10
309.788263
 20
199.929612
 30
0.0
 10
319.588263
 20
216.903709
 30
0.0
 10
336.562361
 20
207.103709
 30
0.0
 10
326.762361
 20
190.129612
 30
0.0
  0
LWPOLYLINE
  5
124
100
AcDbEntity
  8
0
 62
7
100
AcDbPolyline
 90
7
 70
1
 10
303.569461
 20
201.958330
 30
0.0
 10
281.264502
 20
201.958330
 30
0.0
 10
270.112023
 20
221.274991
 30
0.0
 10
275.149410
 20
230.000000
 30
0.0
 10
309.684553
 20
230.000000
 30
0.0
 10
314.721940
 20
221.274991
 30
0.0
 10
303.569461
 20
201.958330
 30
0.0
  0
LWPOLYLINE
  5
125
100
AcDbEntity
  8
0
 62
7
100
AcDbPolyline
 90
4
 70
1
 10
337.733642
 20
86.665786
 30
0.0
 10
337.733642
 20
71.750911
 30
0.0
 10
324.816981
 20
79.208349
 30
0.0
 10
337.733642
 20
86.665786
 30
0.0
  0
LWPOLYLINE
  5
126
100
AcDbEntity
  8
0
 62
7
100
AcDbPolyline
 90
4
 70
1
 10
383.050302
 20
79.208349
 30
0.0
 10
370.133642
 20
71.750911
 30
0.0
 10
370.133642
 20
86.665786
 30
0.0
 10
383.050302
 20
79.208349
 30
0.0
  0
LWPOLYLINE
  5
127
100
AcDbEntity
  8
0
 62
7
100
AcDbPolyline
 90
5
 70
1
 10
363.733642
 20
70.000000
 30
0.0
 10
344.133642
 20
70.000000
 30
0.0
 10
344.133642
 20
89.008349
 30
0.0
 10
363.733642
 20
89.008349
 30
0.0
 10
363.733642
 20
70.000000
 30
0.0
  0
LWPOLYLINE
  5
128
100
AcDbEntity
  8
0
 62
7
100
AcDbPolyline
 90
5
 70
1
 10
309.788263
 20
100.553728
 30
0.0
 10
326.762361
 20
110.353728
 30
0.0
 10
336.562361
 20
93.379630
 30
0.0
 10
319.588263
 20
83.579630
 30
0.0
 10
309.788263
 20
100.553728
 30
0.0
  0
LWPOLYLINE
  5
129
100
AcDbEntity
  8
0
 62
7
100
AcDbPolyline
 90
5
 70
1
 10
388.279021
 20
83.579630
 30
0.0
 10
371.304923
 20
93.379630
 30
0.0
 10
381.104923
 20
110.353728
 30
0.0
 10
398.079021
 20
100.553728
 30
0.0
 10
388.279021
 20
83.579630
 30
0.0
  0
LWPOLYLINE
  5
12a
100
AcDbEntity
  8
0
 62
7
100
AcDbPolyline
 90
7
 70
1
 10
376.238600
 20
114.725009
 30
0.0
 10
365.086121
 20
95.408349
 30
0.0
 10
342.781163
 20
95.408349
 30
0.0
 10
331.628684
 20
114.725009
 30
0.0
 10
342.781163
 20
134.041670
 30
0.0
 10
365.086121
 20
134.041670
 30
0.0
 10
376.238600
 20
114.725009
 30
0.0
  0
LWPOLYLINE
  5
12b
100
AcDbEntity
  8
0
 62
7
100
AcDbPolyline
 90
4
 70
1
 10
337.733642
 20
157.699107
 30
0.0
 10
337.733642
 20
142.784232
 30
0.0
 10
324.816981
 20
150.241670
 30
0.0
 10
337.733642
 20
157.699107
 30
0.0
  0
LWPOLYLINE
  5
12c
100
AcDbEntity
  8
0
 62
7
100
AcDbPolyline
 90
4
 70
1
 10
383.050302
 20
150.241670
 30
0.0
 10
370.133642
 20
142.784232
 30
0.0
 10
370.133642
 20
157.699107
 30
0.0
 10
383.050302
 20
150.241670
 30
0.0
  0
LWPOLYLINE
  5
12d
100
AcDbEntity
  8
0
 62
7
100
AcDbPolyline
 90
5
 70
1
 10
363.733642
 20
160.041670
 30
0.0
 10
363.733642
 20
140.441670
 30
0.0
 10
344.133642
 20
140.441670
 30
0.0
 10
344.133642
 20
160.041670
 30
0.0
 10
363.733642
 20
160.041670
 30
0.0
  0
LWPOLYLINE
  5
12e
100
AcDbEntity
  8
0
 62
7
100
AcDbPolyline
 90
5
 70
1
 10
309.788263
 20
171.587049
 30
0.0
 10
326.762361
 20
181.387049
 30
0.0
 10
336.562361
 20
164.412951
 30
0.0
 10
319.588263
 20
154.612951
 30
0.0
 10
309.788263
 20
171.587049
 30
0.0
  0
LWPOLYLINE
  5
12f
100
AcDbEntity
  8
0
 62
7
100
AcDbPolyline
 90
5
 70
1
 10
388.279021
 20
154.612951
 30
0.0
 10
371.304923
 20
164.412951
 30
0.0
 10
381.104923
 20
181.387049
 30
0.0
 10
398.079021
 20
171.587049
 30
0.0
 10
388.279021
 20
154.612951
 30
0.0
  0
LWPOLYLINE
  5
130
100
AcDbEntity
  8
0
 62
7
100
AcDbPolyline
 90
7
 70
1
 10
376.238600
 20
185.758330
 30
0.0
 10
365.086121
 20
166.441670
 30
0.0
 10
342.781163
 20
166.441670
 30
0.0
 10
331.628684
 20
185.758330
 30
0.0
 10
342.781163
 20
205.074991
 30
0.0
 10
365.086121
 20
205.074991
 30
0.0
 10
376.238600
 20
185.758330
 30
0.0
  0
LWPOLYLINE
  5
131
100
AcDbEntity
  8
0
 62
7
100
AcDbPolyline
 90
4
 70
1
 10
337.733642
 20
228.732428
 30
0.0
 10
337.733642
 20
213.817553
 30
0.0
 10
324.816981
 20
221.274991
 30
0.0
 10
337.733642
 20
228.732428
 30
0.0
  0
LWPOLYLINE
  5
132
100
AcDbEntity
  8
0
 62
7
100
AcDbPolyline
 90
4
 70
1
 10
383.050302
 20
221.274991
 30
0.0
 10
370.133642
 20
213.817553
 30
0.0
 10
370.133642
 20
228.732428
 30
0.0
 10
383.050302
 20
221.274991
 30
0.0
  0
LWPOLYLINE
  5
133
100
AcDbEntity
  8
0
 62
7
100
AcDbPolyline
 90
5
 70
1
 10
363.733642
 20
211.474991
 30
0.0
 10
344.133642
 20
211.474991
 30
0.0
 10
344.133642
 20
230.000000
 30
0.0
 10
363.733642
 20
230.000000
 30
0.0
 10
363.733642
 20
211.474991
 30
0.0
  0
LWPOLYLINE
  5
134
100
AcDbEntity
  8
0
 62
7
100
AcDbPolyline
 90
7
 70
1
 10
432.438818
 20
70.000000
 30
0.0
 10
398.461787
 20
70.000000
 30
0.0
 10
393.145344
 20
79.208349
 30
0.0
 10
404.297823
 20
98.525009
 30
0.0
 10
426.602782
 20
98.525009
 30
0.0
 10
437.755261
 20
79.208349
 30
0.0
 10
432.438818
 20
70.000000
 30
0.0
  0
LWPOLYLINE
  5
135
100
AcDbEntity
  8
0
 62
7
100
AcDbPolyline
 90
4
 70
1
 10
399.250302
 20
122.182447
 30
0.0
 10
399.250302
 20
107.267572
 30
0.0
 10
386.333642
 20
114.725009
 30
0.0
 10
399.250302
 20
122.182447
 30
0.0
  0
LWPOLYLINE
  5
136
100
AcDbEntity
  8
0
 62
7
100
AcDbPolyline
 90
4
 70
1
 10
444.566963
 20
114.725009
 30
0.0
 10
431.650302
 20
107.267572
 30
0.0
 10
431.650302
 20
122.182447
 30
0.0
 10
444.566963
 20
114.725009
 30
0.0
  0
LWPOLYLINE
  5
137
100
AcDbEntity
  8
0
 62
7
100
AcDbPolyline
 90
5
 70
1
 10
425.250302
 20
124.525009
 30
0.0
 10
425.250302
 20
104.925009
 30
0.0
 10
405.650302
 20
104.925009
 30
0.0
 10
405.650302
 20
124.525009
 30
0.0
 10
425.250302
 20
124.525009
 30
0.0
  0
LWPOLYLINE
  5
138
100
AcDbEntity
  8
0
 62
7
100
AcDbPolyline
 90
5
 70
1
 10
371.304923
 20
136.070388
 30
0.0
 10
388.279021
 20
145.870388
 30
0.0
 10
398.079021
 20
128.896291
 30
0.0
 10
381.104923
 20
119.096291
 30
0.0
 10
371.304923
 20
136.070388
 30
0.0
  0
LWPOLYLINE
  5
139
100
AcDbEntity
  8
0
 62
7
100
AcDbPolyline
 90
5
 70
1
 10
449.795682
 20
119.096291
 30
0.0
 10
432.821584
 20
128.896291
 30
0.0
 10
442.621584
 20
145.870388
 30
0.0
 10
459.595682
 20
136.070388
 30
0.0
 10
449.795682
 20
119.096291
 30
0.0
  0
LWPOLYLINE
  5
13a
100
AcDbEntity
  8
0
 62
7
100
AcDbPolyline
 90
7
 70
1
 10
437.755261
 20
150.241670
 30
0.0
 10
426.602782
 20
130.925009
 30
0.0
 10
404.297823
 20
130.925009
 30
0.0
 10
393.145344
 20
150.241670
 30
0.0
 10
404.297823
 20
169.558330
 30
0.0
 10
426.602782
 20
169.558330
 30
0.0
 10
437.755261
 20
150.241670
 30
0.0
  0
LWPOLYLINE
  5
13b
100
AcDbEntity
  8
0
 62
7
100
AcDbPolyline
 90
4
 70
1
 10
399.250302
 20
193.215768
 30
0.0
 10
399.250302
 20
178.300893
 30
0.0
 10
386.333642
 20
185.758330
 30
0.0
 10
399.250302
 20
193.215768
 30
0.0
  0
LWPOLYLINE
  5
13c
100
AcDbEntity
  8
0
 62
7
100
AcDbPolyline
 90
4
 70
1
 10
444.566963
 20
185.758330
 30
0.0
 10
431.650302
 20
178.300893
 30
0.0
 10
431.650302
 20
193.215768
 30
0.0
 10
444.566963
 20
185.758330
 30
0.0
  0
LWPOLYLINE
  5
13d
100
AcDbEntity
  8
0
 62
7
100
AcDbPolyline
 90
5
 70
1
 10
425.250302
 20
195.558330
 30
0.0
 10
425.250302
 20
175.958330
 30
0.0
 10
405.650302
 20
175.958330
 30
0.0
 10
405.650302
 20
195.558330
 30
0.0
 10
425.250302
 20
195.558330
 30
0.0
  0
LWPOLYLINE
  5
13e
100
AcDbEntity
  8
0
 62
7
100
AcDbPolyline
 90
5
 70
1
 10
371.304923
 20
207.103709
 30
0.0
 10
388.279021
 20
216.903709
 30
0.0
 10
398.079021
 20
199.929612
 30
0.0
 10
381.104923
 20
190.129612
 30
0.0
 10
371.304923
 20
207.103709
 30
0.0
  0
LWPOLYLINE
  5
13f
100
AcDbEntity
  8
0
 62
7
100
AcDbPolyline
 90
5
 70
1
 10
449.795682
 20
190.129612
 30
0.0
 10
432.821584
 20
199.929612
 30
0.0
 10
442.621584
 20
216.903709
 30
0.0
 10
459.595682
 20
207.103709
 30
0.0
 10
449.795682
 20
190.129612
 30
0.0
  0
LWPOLYLINE
  5
140
100
AcDbEntity
  8
0
 62
7
100
AcDbPolyline
 90
7
 70
1
 10
426.602782
 20
201.958330
 30
0.0
 10
404.297823
 20
201.958330
 30
0.0
 10
393.145344
 20
221.274991
 30
0.0
 10
398.182731
 20
230.000000
 30
0.0
 10
432.717874
 20
230.000000
 30
0.0
 10
437.755261
 20
221.274991
 30
0.0
 10
426.602782
 20
201.958330
 30
0.0
  0
LWPOLYLINE
  5
141
100
AcDbEntity
  8
0
 62
7
100
AcDbPolyline
 90
4
 70
1
 10
460.766963
 20
86.665786
 30
0.0
 10
460.766963
 20
71.750911
 30
0.0
 10
447.850302
 20
79.208349
 30
0.0
 10
460.766963
 20
86.665786
 30
0.0
  0
LWPOLYLINE
  5
142
100
AcDbEntity
  8
0
 62
7
100
AcDbPolyline
 90
4
 70
1
 10
506.083623
 20
79.208349
 30
0.0
 10
493.166963
 20
71.750911
 30
0.0
 10
493.166963
 20
86.665786
 30
0.0
 10
506.083623
 20
79.208349
 30
0.0
  0
LWPOLYLINE
  5
143
100
AcDbEntity
  8
0
 62
7
100
AcDbPolyline
 90
5
 70
1
 10
486.766963
 20
70.000000
 30
0.0
 10
467.166963
 20
70.000000
 30
0.0
 10
467.166963
 20
89.008349
 30
0.0
 10
486.766963
 20
89.008349
 30
0.0
 10
486.766963
 20
70.000000
 30
0.0
  0
LWPOLYLINE
  5
144
100
AcDbEntity
  8
0
 62
7
100
AcDbPolyline
 90
5
 70
1
 10
432.821584
 20
100.553728
 30
0.0
 10
449.795682
 20
110.353728
 30
0.0
 10
459.595682
 20
93.379630
 30
0.0
 10
442.621584
 20
83.579630
 30
0.0
 10
432.821584
 20
100.553728
 30
0.0
  0
LWPOLYLINE
  5
145
100
AcDbEntity
  8
0
 62
7
100
AcDbPolyline
 90
5
 70
1
 10
511.312342
 20
83.579630
 30
0.0
 10
494.338244
 20
93.379630
 30
0.0
 10
504.138244
 20
110.353728
 30
0.0
 10
521.112342
 20
100.553728
 30
0.0
 10
511.312342
 20
83.579630
 30
0.0
  0
LWPOLYLINE
  5
146
100
AcDbEntity
  8
0
 62
7
100
AcDbPolyline
 90
7
 70
1
 10
499.271921
 20
114.725009
 30
0.0
 10
488.119442
 20
95.408349
 30
0.0
 10
465.814484
 20
95.408349
 30
0.0
 10
454.662005
 20
114.725009
 30
0.0
 10
465.814484
 20
134.041670
 30
0.0
 10
488.119442
 20
134.041670
 30
0.0
 10
499.271921
 20
114.725009
 30
0.0
  0
LWPOLYLINE
  5
147
100
AcDbEntity
  8
0
 62
7
100
AcDbPolyline
 90
4
 70
1
 10
460.766963
 20
157.699107
 30
0.0
 10
460.766963
 20
142.784232
 30
0.0
 10
447.850302
 20
150.241670
 30
0.0
 10
460.766963
 20
157.699107
 30
0.0
  0
LWPOLYLINE
  5
148
100
AcDbEntity
  8
0
 62
7
100
AcDbPolyline
 90
4
 70
1
 10
506.083623
 20
150.241670
 30
0.0
 10
493.166963
 20
142.784232
 30
0.0
 10
493.166963
 20
157.699107
 30
0.0
 10
506.083623
 20
150.241670
 30
0.0
  0
LWPOLYLINE
  5
149
100
AcDbEntity
  8
0
 62
7
100
AcDbPolyline
 90
5
 70
1
 10
486.766963
 20
160.041670
 30
0.0
 10
486.766963
 20
140.441670
 30
0.0
 10
467.166963
 20
140.441670
 30
0.0
 10
467.166963
 20
160.041670
 30
0.0
 10
486.766963
 20
160.041670
 30
0.0
  0
LWPOLYLINE
  5
14a
100
AcDbEntity
  8
0
 62
7
100
AcDbPolyline
 90
5
 70
1
 10
432.821584
 20
171.587049
 30
0.0
 10
449.795682
 20
181.387049
 30
0.0
 10
459.595682
 20
164.412951
 30
0.0
 10
442.621584
 20
154.612951
 30
0.0
 10
432.821584
 20
171.587049
 30
0.0
  0
LWPOLYLINE
  5
14b
100
AcDbEntity
  8
0
 62
7
100
AcDbPolyline
 90
5
 70
1
 10
511.312342
 20
154.612951
 30
0.0
 10
494.338244
 20
164.412951
 30
0.0
 10
504.138244
 20
181.387049
 30
0.0
 10
521.112342
 20
171.587049
 30
0.0
 10
511.312342
 20
154.612951
 30
0.0
  0
LWPOLYLINE
  5
14c
100
AcDbEntity
  8
0
 62
7
100
AcDbPolyline
 90
7
 70
1
 10
499.271921
 20
185.758330
 30
0.0
 10
488.119442
 20
166.441670
 30
0.0
 10
465.814484
 20
166.441670
 30
0.0
 10
454.662005
 20
185.758330
 30
0.0
 10
465.814484
 20
205.074991
 30
0.0
 10
488.119442
 20
205.074991
 30
0.0
 10
499.271921
 20
185.758330
 30
0.0
  0
LWPOLYLINE
  5
14d
100
AcDbEntity
  8
0
 62
7
100
AcDbPolyline
 90
4
 70
1
 10
460.766963
 20
228.732428
 30
0.0
 10
460.766963
 20
213.817553
 30
0.0
 10
447.850302
 20
221.274991
 30
0.0
 10
460.766963
 20
228.732428
 30
0.0
  0
LWPOLYLINE
  5
14e
100
AcDbEntity
  8
0
 62
7
100
AcDbPolyline
 90
4
 70
1
 10
506.083623
 20
221.274991
 30
0.0
 10
493.166963
 20
213.817553
 30
0.0
 10
493.166963
 20
228.732428
 30
0.0
 10
506.083623
 20
221.274991
 30
0.0
  0
LWPOLYLINE
  5
14f
100
AcDbEntity
  8
0
 62
7
100
AcDbPolyline
 90
5
 70
1
 10
486.766963
 20
211.474991
 30
0.0
 10
467.166963
 20
211.474991
 30
0.0
 10
467.166963
 20
230.000000
 30
0.0
 10
486.766963
 20
230.000000
 30
0.0
 10
486.766963
 20
211.474991
 30
0.0
  0
LWPOLYLINE
  5
150
100
AcDbEntity
  8
0
 62
7
100
AcDbPolyline
 90
7
 70
1
 10
555.472139
 20
70.000000
 30
0.0
 10
521.495108
 20
70.000000
 30
0.0
 10
516.178665
 20
79.208349
 30
0.0
 10
527.331144
 20
98.525009
 30
0.0
 10
549.636103
 20
98.525009
 30
0.0
 10
560.788582
 20
79.208349
 30
0.0
 10
555.472139
 20
70.000000
 30
0.0
  0
LWPOLYLINE
  5
151
100
AcDbEntity
  8
0
 62
7
100
AcDbPolyline
 90
4
 70
1
 10
522.283623
 20
122.182447
 30
0.0
 10
522.283623
 20
107.267572
 30
0.0
 10
509.366963
 20
114.725009
 30
0.0
 10
522.283623
 20
122.182447
 30
0.0
  0
LWPOLYLINE
  5
152
100
AcDbEntity
  8
0
 62
7
100
AcDbPolyline
 90
4
 70
1
 10
567.600284
 20
114.725009
 30
0.0
 10
554.683623
 20
107.267572
 30
0.0
 10
554.683623
 20
122.182447
 30
0.0
 10
567.600284
 20
114.725009
 30
0.0
  0
LWPOLYLINE
  5
153
100
AcDbEntity
  8
0
 62
7
100
AcDbPolyline
 90
5
 70
1
 10
548.283623
 20
124.525009
 30
0.0
 10
548.283623
 20
104.925009
 30
0.0
 10
528.683623
 20
104.925009
 30
0.0
 10
528.683623
 20
124.525009
 30
0.0
 10
548.283623
 20
124.525009
 30
0.0
  0
LWPOLYLINE
  5
154
100
AcDbEntity
  8
0
 62
7
100
AcDbPolyline
 90
5
 70
1
 10
494.338244
 20
136.070388
 30
0.0
 10
511.312342
 20
145.870388
 30
0.0
 10
521.112342
 20
128.896291
 30
0.0
 10
504.138244
 20
119.096291
 30
0.0
 10
494.338244
 20
136.070388
 30
0.0
  0
LWPOLYLINE
  5
155
100
AcDbEntity
  8
0
 62
7
100
AcDbPolyline
 90
5
 70
1
 10
572.829003
 20
119.096291
 30
0.0
 10
555.854905
 20
128.896291
 30
0.0
 10
565.654905
 20
145.870388
 30
0.0
 10
582.629003
 20
136.070388
 30
0.0
 10
572.829003
 20
119.096291
 30
0.0
  0
LWPOLYLINE
  5
156
100
AcDbEntity
  8
0
 62
7
100
AcDbPolyline
 90
7
 70
1
 10
560.788582
 20
150.241670
 30
0.0
 10
549.636103
 20
130.925009
 30
0.0
 10
527.331144
 20
130.925009
 30
0.0
 10
516.178665
 20
150.241670
 30
0.0
 10
527.331144
 20
169.558330
 30
0.0
 10
549.636103
 20
169.558330
 30
0.0
 10
560.788582
 20
150.241670
 30
0.0
  0
LWPOLYLINE
  5
157
100
AcDbEntity
  8
0
 62
7
100
AcDbPolyline
 90
4
 70
1
 10
522.283623
 20
193.215768
 30
0.0
 10
522.283623
 20
178.300893
 30
0.0
 10
509.366963
 20
185.758330
 30
0.0
 10
522.283623
 20
193.215768
 30
0.0
  0
LWPOLYLINE
  5
158
100
AcDbEntity
  8
0
 62
7
100
AcDbPolyline
 90
4
 70
1
 10
567.600284
 20
185.758330
 30
0.0
 10
554.683623
 20
178.300893
 30
0.0
 10
554.683623
 20
193.215768
 30
0.0
 10
567.600284
 20
185.758330
 30
0.0
  0
LWPOLYLINE
  5
159
100
AcDbEntity
  8
0
 62
7
100
AcDbPolyline
 90
5
 70
1
 10
548.283623
 20
195.558330
 30
0.0
 10
548.283623
 20
175.958330
 30
0.0
 10
528.683623
 20
175.958330
 30
0.0
 10
528.683623
 20
195.558330
 30
0.0
 10
548.283623
 20
195.558330
 30
0.0
  0
LWPOLYLINE
  5
15a
100
AcDbEntity
  8
0
 62
7
100
AcDbPolyline
 90
5
 70
1
 10
494.338244
 20
207.103709
 30
0.0
 10
511.312342
 20
216.903709
 30
0.0
 10
521.112342
 20
199.929612
 30
0.0
 10
504.138244
 20
190.129612
 30
0.0
 10
494.338244
 20
207.103709
 30
0.0
  0
LWPOLYLINE
  5
15b
100
AcDbEntity
  8
0
 62
7
100
AcDbPolyline
 90
5
 70
1
 10
572.829003
 20
190.129612
 30
0.0
 10
555.854905
 20
199.929612
 30
0.0
 10
565.654905
 20
216.903709
 30
0.0
 10
582.629003
 20
207.103709
 30
0.0
 10
572.829003
 20
190.129612
 30
0.0
  0
LWPOLYLINE
  5
15c
100
AcDbEntity
  8
0
 62
7
100
AcDbPolyline
 90
7
 70
1
 10
549.636103
 20
201.958330
 30
0.0
 10
527.331144
 20
201.958330
 30
0.0
 10
516.178665
 20
221.274991
 30
0.0
 10
521.216052
 20
230.000000
 30
0.0
 10
555.751195
 20
230.000000
 30
0.0
 10
560.788582
 20
221.274991
 30
0.0
 10
549.636103
 20
201.958330
 30
0.0
  0
LWPOLYLINE
  5
15d
100
AcDbEntity
  8
0
 62
7
100
AcDbPolyline
 90
4
 70
1
 10
583.800284
 20
86.665786
 30
0.0
 10
583.800284
 20
71.750911
 30
0.0
 10
570.883623
 20
79.208349
 30
0.0
 10
583.800284
 20
86.665786
 30
0.0
  0
LWPOLYLINE
  5
15e
100
AcDbEntity
  8
0
 62
7
100
AcDbPolyline
 90
4
 70
1
 10
629.116944
 20
79.208349
 30
0.0
 10
616.200284
 20
71.750911
 30
0.0
 10
616.200284
 20
86.665786
 30
0.0
 10
629.116944
 20
79.208349
 30
0.0
  0
LWPOLYLINE
  5
15f
100
AcDbEntity
  8
0
 62
7
100
AcDbPolyline
 90
5
 70
1
 10
609.800284
 20
70.000000
 30
0.0
 10
590.200284
 20
70.000000
 30
0.0
 10
590.200284
 20
89.008349
 30
0.0
 10
609.800284
 20
89.008349
 30
0.0
 10
609.800284
 20
70.000000
 30
0.0
  0
LWPOLYLINE
  5
160
100
AcDbEntity
  8
0
 62
7
100
AcDbPolyline
 90
5
 70
1
 10
555.854905
 20
100.553728
 30
0.0
 10
572.829003
 20
110.353728
 30
0.0
 10
582.629003
 20
93.379630
 30
0.0
 10
565.654905
 20
83.579630
 30
0.0
 10
555.854905
 20
100.553728
 30
0.0
  0
LWPOLYLINE
  5
161
100
AcDbEntity
  8
0
 62
7
100
AcDbPolyline
 90
5
 70
1
 10
634.345663
 20
83.579630
 30
0.0
 10
617.371565
 20
93.379630
 30
0.0
 10
627.171565
 20
110.353728
 30
0.0
 10
644.145663
 20
100.553728
 30
0.0
 10
634.345663
 20
83.579630
 30
0.0
  0
LWPOLYLINE
  5
162
100
AcDbEntity
  8
0
 62
7
100
AcDbPolyline
 90
7
 70
1
 10
622.305242
 20
114.725009
 30
0.0
 10
611.152763
 20
95.408349
 30
0.0
 10
588.847805
 20
95.408349
 30
0.0
 10
577.695326
 20
114.725009
 30
0.0
 10
588.847805
 20
134.041670
 30
0.0
 10
611.152763
 20
134.041670
 30
0.0
 10
622.305242
 20
114.725009
 30
0.0
  0
LWPOLYLINE
  5
163
100
AcDbEntity
  8
0
 62
7
100
AcDbPolyline
 90
4
 70
1
 10
583.800284
 20
157.699107
 30
0.0
 10
583.800284
 20
142.784232
 30
0.0
 10
570.883623
 20
150.241670
 30
0.0
 10
583.800284
 20
157.699107
 30
0.0
  0
LWPOLYLINE
  5
164
100
AcDbEntity
  8
0
 62
7
100
AcDbPolyline
 90
4
 70
1
 10
629.116944
 20
150.241670
 30
0.0
 10
616.200284
 20
142.784232
 30
0.0
 10
616.200284
 20
157.699107
 30
0.0
 10
629.116944
 20
150.241670
 30
0.0
  0
LWPOLYLINE
  5
165
100
AcDbEntity
  8
0
 62
7
100
AcDbPolyline
 90
5
 70
1
 10
609.800284
 20
160.041670
 30
0.0
 10
609.800284
 20
140.441670
 30
0.0
 10
590.200284
 20
140.441670
 30
0.0
 10
590.200284
 20
160.041670
 30
0.0
 10
609.800284
 20
160.041670
 30
0.0
  0
LWPOLYLINE
  5
166
100
AcDbEntity
  8
0
 62
7
100
AcDbPolyline
 90
5
 70
1
 10
555.854905
 20
171.587049
 30
0.0
 10
572.829003
 20
181.387049
 30
0.0
 10
582.629003
 20
164.412951
 30
0.0
 10
565.654905
 20
154.612951
 30
0.0
 10
555.854905
 20
171.587049
 30
0.0
  0
LWPOLYLINE
  5
167
100
AcDbEntity
  8
0
 62
7
100
AcDbPolyline
 90
5
 70
1
 10
634.345663
 20
154.612951
 30
0.0
 10
617.371565
 20
164.412951
 30
0.0
 10
627.171565
 20
181.387049
 30
0.0
 10
644.145663
 20
171.587049
 30
0.0
 10
634.345663
 20
154.612951
 30
0.0
  0
LWPOLYLINE
  5
168
100
AcDbEntity
  8
0
 62
7
100
AcDbPolyline
 90
7
 70
1
 10
622.305242
 20
185.758330
 30
0.0
 10
611.152763
 20
166.441670
 30
0.0
 10
588.847805
 20
166.441670
 30
0.0
 10
577.695326
 20
185.758330
 30
0.0
 10
588.847805
 20
205.074991
 30
0.0
 10
611.152763
 20
205.074991
 30
0.0
 10
622.305242
 20
185.758330
 30
0.0
  0
LWPOLYLINE
  5
169
100
AcDbEntity
  8
0
 62
7
100
AcDbPolyline
 90
4
 70
1
 10
583.800284
 20
228.732428
 30
0.0
 10
583.800284
 20
213.817553
 30
0.0
 10
570.883623
 20
221.274991
 30
0.0
 10
583.800284
 20
228.732428
 30
0.0
  0
LWPOLYLINE
  5
16a
100
AcDbEntity
  8
0
 62
7
100
AcDbPolyline
 90
4
 70
1
 10
629.116944
 20
221.274991
 30
0.0
 10
616.200284
 20
213.817553
 30
0.0
 10
616.200284
 20
228.732428
 30
0.0
 10
629.116944
 20
221.274991
 30
0.0
  0
LWPOLYLINE
  5
16b
100
AcDbEntity
  8
0
 62
7
100
AcDbPolyline
 90
5
 70
1
 10
609.800284
 20
211.474991
 30
0.0
 10
590.200284
 20
211.474991
 30
0.0
 10
590.200284
 20
230.000000
 30
0.0
 10
609.800284
 20
230.000000
 30
0.0
 10
609.800284
 20
211.474991
 30
0.0
  0
LWPOLYLINE
  5
16c
100
AcDbEntity
  8
0
 62
7
100
AcDbPolyline
 90
7
 70
1
 10
678.505460
 20
70.000000
 30
0.0
 10
644.528429
 20
70.000000
 30
0.0
 10
639.211986
 20
79.208349
 30
0.0
 10
650.364465
 20
98.525009
 30
0.0
 10
672.669424
 20
98.525009
 30
0.0
 10
683.821903
 20
79.208349
 30
0.0
 10
678.505460
 20
70.000000
 30
0.0
  0
LWPOLYLINE
  5
16d
100
AcDbEntity
  8
0
 62
7
100
AcDbPolyline
 90
4
 70
1
 10
645.316944
 20
122.182447
 30
0.0
 10
645.316944
 20
107.267572
 30
0.0
 10
632.400284
 20
114.725009
 30
0.0
 10
645.316944
 20
122.182447
 30
0.0
  0
LWPOLYLINE
  5
16e
100
AcDbEntity
  8
0
 62
7
100
AcDbPolyline
 90
4
 70
1
 10
690.633605
 20
114.725009
 30
0.0
 10
677.716944
 20
107.267572
 30
0.0
 10
677.716944
 20
122.182447
 30
0.0
 10
690.633605
 20
114.725009
 30
0.0
  0
LWPOLYLINE
  5
16f
100
AcDbEntity
  8
0
 62
7
100
AcDbPolyline
 90
5
 70
1
 10
671.316944
 20
124.525009
 30
0.0
 10
671.316944
 20
104.925009
 30
0.0
 10
651.716944
 20
104.925009
 30
0.0
 10
651.716944
 20
124.525009
 30
0.0
 10
671.316944
 20
124.525009
 30
0.0
  0
LWPOLYLINE
  5
170
100
AcDbEntity
  8
0
 62
7
100
AcDbPolyline
 90
5
 70
1
 10
617.371565
 20
136.070388
 30
0.0
 10
634.345663
 20
145.870388
 30
0.0
 10
644.145663
 20
128.896291
 30
0.0
 10
627.171565
 20
119.096291
 30
0.0
 10
617.371565
 20
136.070388
 30
0.0
  0
LWPOLYLINE
  5
171
100
AcDbEntity
  8
0
 62
7
100
AcDbPolyline
 90
5
 70
1
 10
695.862324
 20
119.096291
 30
0.0
 10
678.888226
 20
128.896291
 30
0.0
 10
688.688226
 20
145.870388
 30
0.0
 10
705.662324
 20
136.070388
 30
0.0
 10
695.862324
 20
119.096291
 30
0.0
  0
LWPOLYLINE
  5
172
100
AcDbEntity
  8
0
 62
7
100
AcDbPolyline
 90
7
 70
1
 10
683.821903
 20
150.241670
 30
0.0
 10
672.669424
 20
130.925009
 30
0.0
 10
650.364465
 20
130.925009
 30
0.0
 10
639.211986
 20
150.241670
 30
0.0
 10
650.364465
 20
169.558330
 30
0.0
 10
672.669424
 20
169.558330
 30
0.0
 10
683.821903
 20
150.241670
 30
0.0
  0
LWPOLYLINE
  5
173
100
AcDbEntity
  8
0
 62
7
100
AcDbPolyline
 90
4
 70
1
 10
645.316944
 20
193.215768
 30
0.0
 10
645.316944
 20
178.300893
 30
0.0
 10
632.400284
 20
185.758330
 30
0.0
 10
645.316944
 20
193.215768
 30
0.0
  0
LWPOLYLINE
  5
174
100
AcDbEntity
  8
0
 62
7
100
AcDbPolyline
 90
4
 70
1
 10
690.633605
 20
185.758330
 30
0.0
 10
677.716944
 20
178.300893
 30
0.0
 10
677.716944
 20
193.215768
 30
0.0
 10
690.633605
 20
185.758330
 30
0.0
  0
LWPOLYLINE
  5
175
100
AcDbEntity
  8
0
 62
7
100
AcDbPolyline
 90
5
 70
1
 10
671.316944
 20
195.558330
 30
0.0
 10
671.316944
 20
175.958330
 30
0.0
 10
651.716944
 20
175.958330
 30
0.0
 10
651.716944
 20
195.558330
 30
0.0
 10
671.316944
 20
195.558330
 30
0.0
  0
LWPOLYLINE
  5
176
100
AcDbEntity
  8
0
 62
7
100
AcDbPolyline
 90
5
 70
1
 10
617.371565
 20
207.103709
 30
0.0
 10
634.345663
 20
216.903709
 30
0.0
 10
644.145663
 20
199.929612
 30
0.0
 10
627.171565
 20
190.129612
 30
0.0
 10
617.371565
 20
207.103709
 30
0.0
  0
LWPOLYLINE
  5
177
100
AcDbEntity
  8
0
 62
7
100
AcDbPolyline
 90
5
 70
1
 10
695.862324
 20
190.129612
 30
0.0
 10
678.888226
 20
199.929612
 30
0.0
 10
688.688226
 20
216.903709
 30
0.0
 10
705.662324
 20
207.103709
 30
0.0
 10
695.862324
 20
190.129612
 30
0.0
  0
LWPOLYLINE
  5
178
100
AcDbEntity
  8
0
 62
7
100
AcDbPolyline
 90
7
 70
1
 10
672.669424
 20
201.958330
 30
0.0
 10
650.364465
 20
201.958330
 30
0.0
 10
639.211986
 20
221.274991
 30
0.0
 10
644.249373
 20
230.000000
 30
0.0
 10
678.784516
 20
230.000000
 30
0.0
 10
683.821903
 20
221.274991
 30
0.0
 10
672.669424
 20
201.958330
 30
0.0
  0
LWPOLYLINE
  5
179
100
AcDbEntity
  8
0
 62
7
100
AcDbPolyline
 90
4
 70
1
 10
706.833605
 20
86.665786
 30
0.0
 10
706.833605
 20
71.750911
 30
0.0
 10
693.916944
 20
79.208349
 30
0.0
 10
706.833605
 20
86.665786
 30
0.0
  0
LWPOLYLINE
  5
17a
100
AcDbEntity
  8
0
 62
7
100
AcDbPolyline
 90
4
 70
1
 10
752.150265
 20
79.208349
 30
0.0
 10
739.233605
 20
71.750911
 30
0.0
 10
739.233605
 20
86.665786
 30
0.0
 10
752.150265
 20
79.208349
 30
0.0
  0
LWPOLYLINE
  5
17b
100
AcDbEntity
  8
0
 62
7
100
AcDbPolyline
 90
5
 70
1
 10
732.833605
 20
70.000000
 30
0.0
 10
713.233605
 20
70.000000
 30
0.0
 10
713.233605
 20
89.008349
 30
0.0
 10
732.833605
 20
89.008349
 30
0.0
 10
732.833605
 20
70.000000
 30
0.0
  0
LWPOLYLINE
  5
17c
100
AcDbEntity
  8
0
 62
7
100
AcDbPolyline
 90
5
 70
1
 10
678.888226
 20
100.553728
 30
0.0
 10
695.862324
 20
110.353728
 30
0.0
 10
705.662324
 20
93.379630
 30
0.0
 10
688.688226
 20
83.579630
 30
0.0
 10
678.888226
 20
100.553728
 30
0.0
  0
LWPOLYLINE
  5
17d
100
AcDbEntity
  8
0
 62
7
100
AcDbPolyline
 90
5
 70
1
 10
757.378984
 20
83.579630
 30
0.0
 10
740.404886
 20
93.379630
 30
0.0
 10
750.204886
 20
110.353728
 30
0.0
 10
767.178984
 20
100.553728
 30
0.0
 10
757.378984
 20
83.579630
 30
0.0
  0
LWPOLYLINE
  5
17e
100
AcDbEntity
  8
0
 62
7
100
AcDbPolyline
 90
7
 70
1
 10
745.338563
 20
114.725009
 30
0.0
 10
734.186084
 20
95.408349
 30
0.0
 10
711.881126
 20
95.408349
 30
0.0
 10
700.728647
 20
114.725009
 30
0.0
 10
711.881126
 20
134.041670
 30
0.0
 10
734.186084
 20
134.041670
 30
0.0
 10
745.338563
 20
114.725009
 30
0.0
  0
LWPOLYLINE
  5
17f
100
AcDbEntity
  8
0
 62
7
100
AcDbPolyline
 90
4
 70
1
 10
706.833605
 20
157.699107
 30
0.0
 10
706.833605
 20
142.784232
 30
0.0
 10
693.916944
 20
150.241670
 30
0.0
 10
706.833605
 20
157.699107
 30
0.0
  0
LWPOLYLINE
  5
180
100
AcDbEntity
  8
0
 62
7
100
AcDbPolyline
 90
4
 70
1
 10
752.150265
 20
150.241670
 30
0.0
 10
739.233605
 20
142.784232
 30
0.0
 10
739.233605
 20
157.699107
 30
0.0
 10
752.150265
 20
150.241670
 30
0.0
  0
LWPOLYLINE
  5
181
100
AcDbEntity
  8
0
 62
7
100
AcDbPolyline
 90
5
 70
1
 10
732.833605
 20
160.041670
 30
0.0
 10
732.833605
 20
140.441670
 30
0.0
 10
713.233605
 20
140.441670
 30
0.0
 10
713.233605
 20
160.041670
 30
0.0
 10
732.833605
 20
160.041670
 30
0.0
  0
LWPOLYLINE
  5
182
100
AcDbEntity
  8
0
 62
7
100
AcDbPolyline
 90
5
 70
1
 10
678.888226
 20
171.587049
 30
0.0
 10
695.862324
 20
181.387049
 30
0.0
 10
705.662324
 20
164.412951
 30
0.0
 10
688.688226
 20
154.612951
 30
0.0
 10
678.888226
 20
171.587049
 30
0.0
  0
LWPOLYLINE
  5
183
100
AcDbEntity
  8
0
 62
7
100
AcDbPolyline
 90
5
 70
1
 10
757.378984
 20
154.612951
 30
0.0
 10
740.404886
 20
164.412951
 30
0.0
 10
750.204886
 20
181.387049
 30
0.0
 10
767.178984
 20
171.587049
 30
0.0
 10
757.378984
 20
154.612951
 30
0.0
  0
LWPOLYLINE
  5
184
100
AcDbEntity
  8
0
 62
7
100
AcDbPolyline
 90
7
 70
1
 10
745.338563
 20
185.758330
 30
0.0
 10
734.186084
 20
166.441670
 30
0.0
 10
711.881126
 20
166.441670
 30
0.0
 10
700.728647
 20
185.758330
 30
0.0
 10
711.881126
 20
205.074991
 30
0.0
 10
734.186084
 20
205.074991
 30
0.0
 10
745.338563
 20
185.758330
 30
0.0
  0
LWPOLYLINE
  5
185
100
AcDbEntity
  8
0
 62
7
100
AcDbPolyline
 90
4
 70
1
 10
706.833605
 20
228.732428
 30
0.0
 10
706.833605
 20
213.817553
 30
0.0
 10
693.916944
 20
221.274991
 30
0.0
 10
706.833605
 20
228.732428
 30
0.0
  0
LWPOLYLINE
  5
186
100
AcDbEntity
  8
0
 62
7
100
AcDbPolyline
 90
4
 70
1
 10
752.150265
 20
221.274991
 30
0.0
 10
739.233605
 20
213.817553
 30
0.0
 10
739.233605
 20
228.732428
 30
0.0
 10
752.150265
 20
221.274991
 30
0.0
  0
LWPOLYLINE
  5
187
100
AcDbEntity
  8
0
 62
7
100
AcDbPolyline
 90
5
 70
1
 10
732.833605
 20
211.474991
 30
0.0
 10
713.233605
 20
211.474991
 30
0.0
 10
713.233605
 20
230.000000
 30
0.0
 10
732.833605
 20
230.000000
 30
0.0
 10
732.833605
 20
211.474991
 30
0.0
  0
LWPOLYLINE
  5
188
100
AcDbEntity
  8
0
 62
7
100
AcDbPolyline
 90
7
 70
1
 10
801.538781
 20
70.000000
 30
0.0
 10
767.561750
 20
70.000000
 30
0.0
 10
762.245307
 20
79.208349
 30
0.0
 10
773.397786
 20
98.525009
 30
0.0
 10
795.702745
 20
98.525009
 30
0.0
 10
806.855224
 20
79.208349
 30
0.0
 10
801.538781
 20
70.000000
 30
0.0
  0
LWPOLYLINE
  5
189
100
AcDbEntity
  8
0
 62
7
100
AcDbPolyline
 90
4
 70
1
 10
768.350265
 20
122.182447
 30
0.0
 10
768.350265
 20
107.267572
 30
0.0
 10
755.433605
 20
114.725009
 30
0.0
 10
768.350265
 20
122.182447
 30
0.0
  0
LWPOLYLINE
  5
18a
100
AcDbEntity
  8
0
 62
7
100
AcDbPolyline
 90
4
 70
1
 10
813.666926
 20
114.725009
 30
0.0
 10
800.750265
 20
107.267572
 30
0.0
 10
800.750265
 20
122.182447
 30
0.0
 10
813.666926
 20
114.725009
 30
0.0
  0
LWPOLYLINE
  5
18b
100
AcDbEntity
  8
0
 62
7
100
AcDbPolyline
 90
5
 70
1
 10
794.350265
 20
124.525009
 30
0.0
 10
794.350265
 20
104.925009
 30
0.0
 10
774.750265
 20
104.925009
 30
0.0
 10
774.750265
 20
124.525009
 30
0.0
 10
794.350265
 20
124.525009
 30
0.0
  0
LWPOLYLINE
  5
18c
100
AcDbEntity
  8
0
 62
7
100
AcDbPolyline
 90
5
 70
1
 10
740.404886
 20
136.070388
 30
0.0
 10
757.378984
 20
145.870388
 30
0.0
 10
767.178984
 20
128.896291
 30
0.0
 10
750.204886
 20
119.096291
 30
0.0
 10
740.404886
 20
136.070388
 30
0.0
  0
LWPOLYLINE
  5
18d
100
AcDbEntity
  8
0
 62
7
100
AcDbPolyline
 90
5
 70
1
 10
818.895645
 20
119.096291
 30
0.0
 10
801.921547
 20
128.896291
 30
0.0
 10
811.721547
 20
145.870388
 30
0.0
 10
828.695645
 20
136.070388
 30
0.0
 10
818.895645
 20
119.096291
 30
0.0
  0
LWPOLYLINE
  5
18e
100
AcDbEntity
  8
0
 62
7
100
AcDbPolyline
 90
7
 70
1
 10
806.855224
 20
150.241670
 30
0.0
 10
795.702745
 20
130.925009
 30
0.0
 10
773.397786
 20
130.925009
 30
0.0
 10
762.245307
 20
150.241670
 30
0.0
 10
773.397786
 20
169.558330
 30
0.0
 10
795.702745
 20
169.558330
 30
0.0
 10
806.855224
 20
150.241670
 30
0.0
  0
LWPOLYLINE
  5
18f
100
AcDbEntity
  8
0
 62
7
100
AcDbPolyline
 90
4
 70
1
 10
768.350265
 20
193.215768
 30
0.0
 10
768.350265
 20
178.300893
 30
0.0
 10
755.433605
 20
185.758330
 30
0.0
 10
768.350265
 20
193.215768
 30
0.0
  0
LWPOLYLINE
  5
190
100
AcDbEntity
  8
0
 62
7
100
AcDbPolyline
 90
4
 70
1
 10
813.666926
 20
185.758330
 30
0.0
 10
800.750265
 20
178.300893
 30
0.0
 10
800.750265
 20
193.215768
 30
0.0
 10
813.666926
 20
185.758330
 30
0.0
  0
LWPOLYLINE
  5
191
100
AcDbEntity
  8
0
 62
7
100
AcDbPolyline
 90
5
 70
1
 10
794.350265
 20
195.558330
 30
0.0
 10
794.350265
 20
175.958330
 30
0.0
 10
774.750265
 20
175.958330
 30
0.0
 10
774.750265
 20
195.558330
 30
0.0
 10
794.350265
 20
195.558330
 30
0.0
  0
LWPOLYLINE
  5
192
100
AcDbEntity
  8
0
 62
7
100
AcDbPolyline
 90
5
 70
1
 10
740.404886
 20
207.103709
 30
0.0
 10
757.378984
 20
216.903709
 30
0.0
 10
767.178984
 20
199.929612
 30
0.0
 10
750.204886
 20
190.129612
 30
0.0
 10
740.404886
 20
207.103709
 30
0.0
  0
LWPOLYLINE
  5
193
100
AcDbEntity
  8
0
 62
7
100
AcDbPolyline
 90
5
 70
1
 10
818.895645
 20
190.129612
 30
0.0
 10
801.921547
 20
199.929612
 30
0.0
 10
811.721547
 20
216.903709
 30
0.0
 10
828.695645
 20
207.103709
 30
0.0
 10
818.895645
 20
190.129612
 30
0.0
  0
LWPOLYLINE
  5
194
100
AcDbEntity
  8
0
 62
7
100
AcDbPolyline
 90
7
 70
1
 10
795.702745
 20
201.958330
 30
0.0
 10
773.397786
 20
201.958330
 30
0.0
 10
762.245307
 20
221.274991
 30
0.0
 10
767.282694
 20
230.000000
 30
0.0
 10
801.817837
 20
230.000000
 30
0.0
 10
806.855224
 20
221.274991
 30
0.0
 10
795.702745
 20
201.958330
 30
0.0
  0
LWPOLYLINE
  5
195
100
AcDbEntity
  8
0
 62
7
100
AcDbPolyline
 90
4
 70
1
 10
829.866926
 20
86.665786
 30
0.0
 10
829.866926
 20
71.750911
 30
0.0
 10
816.950265
 20
79.208349
 30
0.0
 10
829.866926
 20
86.665786
 30
0.0
  0
LWPOLYLINE
  5
196
100
AcDbEntity
  8
0
 62
7
100
AcDbPolyline
 90
4
 70
1
 10
875.183586
 20
79.208349
 30
0.0
 10
862.266926
 20
71.750911
 30
0.0
 10
862.266926
 20
86.665786
 30
0.0
 10
875.183586
 20
79.208349
 30
0.0
  0
LWPOLYLINE
  5
197
100
AcDbEntity
  8
0
 62
7
100
AcDbPolyline
 90
5
 70
1
 10
855.866926
 20
70.000000
 30
0.0
 10
836.266926
 20
70.000000
 30
0.0
 10
836.266926
 20
89.008349
 30
0.0
 10
855.866926
 20
89.008349
 30
0.0
 10
855.866926
 20
70.000000
 30
0.0
  0
LWPOLYLINE
  5
198
100
AcDbEntity
  8
0
 62
7
100
AcDbPolyline
 90
5
 70
1
 10
801.921547
 20
100.553728
 30
0.0
 10
818.895645
 20
110.353728
 30
0.0
 10
828.695645
 20
93.379630
 30
0.0
 10
811.721547
 20
83.579630
 30
0.0
 10
801.921547
 20
100.553728
 30
0.0
  0
LWPOLYLINE
  5
199
100
AcDbEntity
  8
0
 62
7
100
AcDbPolyline
 90
5
 70
1
 10
880.412305
 20
83.579630
 30
0.0
 10
863.438207
 20
93.379630
 30
0.0
 10
873.238207
 20
110.353728
 30
0.0
 10
890.212305
 20
100.553728
 30
0.0
 10
880.412305
 20
83.579630
 30
0.0
  0
LWPOLYLINE
  5
19a
100
AcDbEntity
  8
0
 62
7
100
AcDbPolyline
 90
7
 70
1
 10
868.371884
 20
114.725009
 30
0.0
 10
857.219405
 20
95.408349
 30
0.0
 10
834.914447
 20
95.408349
 30
0.0
 10
823.761968
 20
114.725009
 30
0.0
 10
834.914447
 20
134.041670
 30
0.0
 10
857.219405
 20
134.041670
 30
0.0
 10
868.371884
 20
114.725009
 30
0.0
  0
LWPOLYLINE
  5
19b
100
AcDbEntity
  8
0
 62
7
100
AcDbPolyline
 90
4
 70
1
 10
829.866926
 20
157.699107
 30
0.0
 10
829.866926
 20
142.784232
 30
0.0
 10
816.950265
 20
150.241670
 30
0.0
 10
829.866926
 20
157.699107
 30
0.0
  0
LWPOLYLINE
  5
19c
100
AcDbEntity
  8
0
 62
7
100
AcDbPolyline
 90
4
 70
1
 10
875.183586
 20
150.241670
 30
0.0
 10
862.266926
 20
142.784232
 30
0.0
 10
862.266926
 20
157.699107
 30
0.0
 10
875.183586
 20
150.241670
 30
0.0
  0
LWPOLYLINE
  5
19d
100
AcDbEntity
  8
0
 62
7
100
AcDbPolyline
 90
5
 70
1
 10
855.866926
 20
160.041670
 30
0.0
 10
855.866926
 20
140.441670
 30
0.0
 10
836.266926
 20
140.441670
 30
0.0
 10
836.266926
 20
160.041670
 30
0.0
 10
855.866926
 20
160.041670
 30
0.0
  0
LWPOLYLINE
  5
19e
100
AcDbEntity
  8
0
 62
7
100
AcDbPolyline
 90
5
 70
1
 10
801.921547
 20
171.587049
 30
0.0
 10
818.895645
 20
181.387049
 30
0.0
 10
828.695645
 20
164.412951
 30
0.0
 10
811.721547
 20
154.612951
 30
0.0
 10
801.921547
 20
171.587049
 30
0.0
  0
LWPOLYLINE
  5
19f
100
AcDbEntity
  8
0
 62
7
100
AcDbPolyline
 90
5
 70
1
 10
880.412305
 20
154.612951
 30
0.0
 10
863.438207
 20
164.412951
 30
0.0
 10
873.238207
 20
181.387049
 30
0.0
 10
890.212305
 20
171.587049
 30
0.0
 10
880.412305
 20
154.612951
 30
0.0
  0
LWPOLYLINE
  5
1a0
100
AcDbEntity
  8
0
 62
7
100
AcDbPolyline
 90
7
 70
1
 10
868.371884
 20
185.758330
 30
0.0
 10
857.219405
 20
166.441670
 30
0.0
 10
834.914447
 20
166.441670
 30
0.0
 10
823.761968
 20
185.758330
 30
0.0
 10
834.914447
 20
205.074991
 30
0.0
 10
857.219405
 20
205.074991
 30
0.0
 10
868.371884
 20
185.758330
 30
0.0
  0
LWPOLYLINE
  5
1a1
100
AcDbEntity
  8
0
 62
7
100
AcDbPolyline
 90
4
 70
1
 10
829.866926
 20
228.732428
 30
0.0
 10
829.866926
 20
213.817553
 30
0.0
 10
816.950265
 20
221.274991
 30
0.0
 10
829.866926
 20
228.732428
 30
0.0
  0
LWPOLYLINE
  5
1a2
100
AcDbEntity
  8
0
 62
7
100
AcDbPolyline
 90
4
 70
1
 10
875.183586
 20
221.274991
 30
0.0
 10
862.266926
 20
213.817553
 30
0.0
 10
862.266926
 20
228.732428
 30
0.0
 10
875.183586
 20
221.274991
 30
0.0
  0
LWPOLYLINE
  5
1a3
100
AcDbEntity
  8
0
 62
7
100
AcDbPolyline
 90
5
 70
1
 10
855.866926
 20
211.474991
 30
0.0
 10
836.266926
 20
211.474991
 30
0.0
 10
836.266926
 20
230.000000
 30
0.0
 10
855.866926
 20
230.000000
 30
0.0
 10
855.866926
 20
211.474991
 30
0.0
  0
LWPOLYLINE
  5
1a4
100
AcDbEntity
  8
0
 62
7
100
AcDbPolyline
 90
7
 70
1
 10
924.572102
 20
70.000000
 30
0.0
 10
890.595071
 20
70.000000
 30
0.0
 10
885.278628
 20
79.208349
 30
0.0
 10
896.431107
 20
98.525009
 30
0.0
 10
918.736066
 20
98.525009
 30
0.0
 10
929.888545
 20
79.208349
 30
0.0
 10
924.572102
 20
70.000000
 30
0.0
  0
LWPOLYLINE
  5
1a5
100
AcDbEntity
  8
0
 62
7
100
AcDbPolyline
 90
4
 70
1
 10
891.383586
 20
122.182447
 30
0.0
 10
891.383586
 20
107.267572
 30
0.0
 10
878.466926
 20
114.725009
 30
0.0
 10
891.383586
 20
122.182447
 30
0.0
  0
LWPOLYLINE
  5
1a6
100
AcDbEntity
  8
0
 62
7
100
AcDbPolyline
 90
4
 70
1
 10
936.700247
 20
114.725009
 30
0.0
 10
923.783586
 20
107.267572
 30
0.0
 10
923.783586
 20
122.182447
 30
0.0
 10
936.700247
 20
114.725009
 30
0.0
  0
LWPOLYLINE
  5
1a7
100
AcDbEntity
  8
0
 62
7
100
AcDbPolyline
 90
5
 70
1
 10
917.383586
 20
124.525009
 30
0.0
 10
917.383586
 20
104.925009
 30
0.0
 10
897.783586
 20
104.925009
 30
0.0
 10
897.783586
 20
124.525009
 30
0.0
 10
917.383586
 20
124.525009
 30
0.0
  0
LWPOLYLINE
  5
1a8
100
AcDbEntity
  8
0
 62
7
100
AcDbPolyline
 90
5
 70
1
 10
863.438207
 20
136.070388
 30
0.0
 10
880.412305
 20
145.870388
 30
0.0
 10
890.212305
 20
128.896291
 30
0.0
 10
873.238207
 20
119.096291
 30
0.0
 10
863.438207
 20
136.070388
 30
0.0
  0
LWPOLYLINE
  5
1a9
100
AcDbEntity
  8
0
 62
7
100
AcDbPolyline
 90
5
 70
1
 10
941.928966
 20
119.096291
 30
0.0
 10
924.954868
 20
128.896291
 30
0.0
 10
934.754868
 20
145.870388
 30
0.0
 10
951.728966
 20
136.070388
 30
0.0
 10
941.928966
 20
119.096291
 30
0.0
  0
LWPOLYLINE
  5
1aa
100
AcDbEntity
  8
0
 62
7
100
AcDbPolyline
 90
7
 70
1
 10
929.888545
 20
150.241670
 30
0.0
 10
918.736066
 20
130.925009
 30
0.0
 10
896.431107
 20
130.925009
 30
0.0
 10
885.278628
 20
150.241670
 30
0.0
 10
896.431107
 20
169.558330
 30
0.0
 10
918.736066
 20
169.558330
 30
0.0
 10
929.888545
 20
150.241670
 30
0.0
  0
LWPOLYLINE
  5
1ab
100
AcDbEntity
  8
0
 62
7
100
AcDbPolyline
 90
4
 70
1
 10
891.383586
 20
193.215768
 30
0.0
 10
891.383586
 20
178.300893
 30
0.0
 10
878.466926
 20
185.758330
 30
0.0
 10
891.383586
 20
193.215768
 30
0.0
  0
LWPOLYLINE
  5
1ac
100
AcDbEntity
  8
0
 62
7
100
AcDbPolyline
 90
4
 70
1
 10
936.700247
 20
185.758330
 30
0.0
 10
923.783586
 20
178.300893
 30
0.0
 10
923.783586
 20
193.215768
 30
0.0
 10
936.700247
 20
185.758330
 30
0.0
  0
LWPOLYLINE
  5
1ad
100
AcDbEntity
  8
0
 62
7
100
AcDbPolyline
 90
5
 70
1
 10
917.383586
 20
195.558330
 30
0.0
 10
917.383586
 20
175.958330
 30
0.0
 10
897.783586
 20
175.958330
 30
0.0
 10
897.783586
 20
195.558330
 30
0.0
 10
917.383586
 20
195.558330
 30
0.0
  0
LWPOLYLINE
  5
1ae
100
AcDbEntity
  8
0
 62
7
100
AcDbPolyline
 90
5
 70
1
 10
863.438207
 20
207.103709
 30
0.0
 10
880.412305
 20
216.903709
 30
0.0
 10
890.212305
 20
199.929612
 30
0.0
 10
873.238207
 20
190.129612
 30
0.0
 10
863.438207
 20
207.103709
 30
0.0
  0
LWPOLYLINE
  5
1af
100
AcDbEntity
  8
0
 62
7
100
AcDbPolyline
 90
5
 70
1
 10
941.928966
 20
190.129612
 30
0.0
 10
924.954868
 20
199.929612
 30
0.0
 10
934.754868
 20
216.903709
 30
0.0
 10
951.728966
 20
207.103709
 30
0.0
 10
941.928966
 20
190.129612
 30
0.0
  0
LWPOLYLINE
  5
1b0
100
AcDbEntity
  8
0
 62
7
100
AcDbPolyline
 90
7
 70
1
 10
918.736066
 20
201.958330
 30
0.0
 10
896.431107
 20
201.958330
 30
0.0
 10
885.278628
 20
221.274991
 30
0.0
 10
890.316015
 20
230.000000
 30
0.0
 10
924.851158
 20
230.000000
 30
0.0
 10
929.888545
 20
221.274991
 30
0.0
 10
918.736066
 20
201.958330
 30
0.0
  0
LWPOLYLINE
  5
1b1
100
AcDbEntity
  8
0
 62
7
100
AcDbPolyline
 90
4
 70
1
 10
952.900247
 20
86.665786
 30
0.0
 10
952.900247
 20
71.750911
 30
0.0
 10
939.983586
 20
79.208349
 30
0.0
 10
952.900247
 20
86.665786
 30
0.0
  0
LWPOLYLINE
  5
1b2
100
AcDbEntity
  8
0
 62
7
100
AcDbPolyline
 90
4
 70
1
 10
998.216907
 20
79.208349
 30
0.0
 10
985.300247
 20
71.750911
 30
0.0
 10
985.300247
 20
86.665786
 30
0.0
 10
998.216907
 20
79.208349
 30
0.0
  0
LWPOLYLINE
  5
1b3
100
AcDbEntity
  8
0
 62
7
100
AcDbPolyline
 90
5
 70
1
 10
978.900247
 20
70.000000
 30
0.0
 10
959.300247
 20
70.000000
 30
0.0
 10
959.300247
 20
89.008349
 30
0.0
 10
978.900247
 20
89.008349
 30
0.0
 10
978.900247
 20
70.000000
 30
0.0
  0
LWPOLYLINE
  5
1b4
100
AcDbEntity
  8
0
 62
7
100
AcDbPolyline
 90
5
 70
1
 10
924.954868
 20
100.553728
 30
0.0
 10
941.928966
 20
110.353728
 30
0.0
 10
951.728966
 20
93.379630
 30
0.0
 10
934.754868
 20
83.579630
 30
0.0
 10
924.954868
 20
100.553728
 30
0.0
  0
LWPOLYLINE
  5
1b5
100
AcDbEntity
  8
0
 62
7
100
AcDbPolyline
 90
5
 70
1
 10
1003.445626
 20
83.579630
 30
0.0
 10
986.471528
 20
93.379630
 30
0.0
 10
996.271528
 20
110.353728
 30
0.0
 10
1013.245626
 20
100.553728
 30
0.0
 10
1003.445626
 20
83.579630
 30
0.0
  0
LWPOLYLINE
  5
1b6
100
AcDbEntity
  8
0
 62
7
100
AcDbPolyline
 90
7
 70
1
 10
991.405205
 20
114.725009
 30
0.0
 10
980.252726
 20
95.408349
 30
0.0
 10
957.947768
 20
95.408349
 30
0.0
 10
946.795289
 20
114.725009
 30
0.0
 10
957.947768
 20
134.041670
 30
0.0
 10
980.252726
 20
134.041670
 30
0.0
 10
991.405205
 20
114.725009
 30
0.0
  0
LWPOLYLINE
  5
1b7
100
AcDbEntity
  8
0
 62
7
100
AcDbPolyline
 90
4
 70
1
 10
952.900247
 20
157.699107
 30
0.0
 10
952.900247
 20
142.784232
 30
0.0
 10
939.983586
 20
150.241670
 30
0.0
 10
952.900247
 20
157.699107
 30
0.0
  0
LWPOLYLINE
  5
1b8
100
AcDbEntity
  8
0
 62
7
100
AcDbPolyline
 90
4
 70
1
 10
998.216907
 20
150.241670
 30
0.0
 10
985.300247
 20
142.784232
 30
0.0
 10
985.300247
 20
157.699107
 30
0.0
 10
998.216907
 20
150.241670
 30
0.0
  0
LWPOLYLINE
  5
1b9
100
AcDbEntity
  8
0
 62
7
100
AcDbPolyline
 90
5
 70
1
 10
978.900247
 20
160.041670
 30
0.0
 10
978.900247
 20
140.441670
 30
0.0
 10
959.300247
 20
140.441670
 30
0.0
 10
959.300247
 20
160.041670
 30
0.0
 10
978.900247
 20
160.041670
 30
0.0
  0
LWPOLYLINE
  5
1ba
100
AcDbEntity
  8
0
 62
7
100
AcDbPolyline
 90
5
 70
1
 10
924.954868
 20
171.587049
 30
0.0
 10
941.928966
 20
181.387049
 30
0.0
 10
951.728966
 20
164.412951
 30
0.0
 10
934.754868
 20
154.612951
 30
0.0
 10
924.954868
 20
171.587049
 30
0.0
  0
LWPOLYLINE
  5
1bb
100
AcDbEntity
  8
0
 62
7
100
AcDbPolyline
 90
5
 70
1
 10
1003.445626
 20
154.612951
 30
0.0
 10
986.471528
 20
164.412951
 30
0.0
 10
996.271528
 20
181.387049
 30
0.0
 10
1013.245626
 20
171.587049
 30
0.0
 10
1003.445626
 20
154.612951
 30
0.0
  0
LWPOLYLINE
  5
1bc
100
AcDbEntity
  8
0
 62
7
100
AcDbPolyline
 90
7
 70
1
 10
991.405205
 20
185.758330
 30
0.0
 10
980.252726
 20
166.441670
 30
0.0
 10
957.947768
 20
166.441670
 30
0.0
 10
946.795289
 20
185.758330
 30
0.0
 10
957.947768
 20
205.074991
 30
0.0
 10
980.252726
 20
205.074991
 30
0.0
 10
991.405205
 20
185.758330
 30
0.0
  0
LWPOLYLINE
  5
1bd
100
AcDbEntity
  8
0
 62
7
100
AcDbPolyline
 90
4
 70
1
 10
952.900247
 20
228.732428
 30
0.0
 10
952.900247
 20
213.817553
 30
0.0
 10
939.983586
 20
221.274991
 30
0.0
 10
952.900247
 20
228.732428
 30
0.0
  0
LWPOLYLINE
  5
1be
100
AcDbEntity
  8
0
 62
7
100
AcDbPolyline
 90
4
 70
1
 10
998.216907
 20
221.274991
 30
0.0
 10
985.300247
 20
213.817553
 30
0.0
 10
985.300247
 20
228.732428
 30
0.0
 10
998.216907
 20
221.274991
 30
0.0
  0
LWPOLYLINE
  5
1bf
100
AcDbEntity
  8
0
 62
7
100
AcDbPolyline
 90
5
 70
1
 10
978.900247
 20
211.474991
 30
0.0
 10
959.300247
 20
211.474991
 30
0.0
 10
959.300247
 20
230.000000
 30
0.0
 10
978.900247
 20
230.000000
 30
0.0
 10
978.900247
 20
211.474991
 30
0.0
  0
LWPOLYLINE
  5
1c0
100
AcDbEntity
  8
0
 62
7
100
AcDbPolyline
 90
6
 70
1
 10
1008.311949
 20
79.208349
 30
0.0
 10
1019.464428
 20
98.525009
 30
0.0
 10
1030.500284
 20
98.525009
 30
0.0
 10
1030.500284
 20
70.000000
 30
0.0
 10
1013.628392
 20
70.000000
 30
0.0
 10
1008.311949
 20
79.208349
 30
0.0
  0
LWPOLYLINE
  5
1c1
100
AcDbEntity
  8
0
 62
7
100
AcDbPolyline
 90
4
 70
1
 10
1014.416907
 20
122.182447
 30
0.0
 10
1014.416907
 20
107.267572
 30
0.0
 10
1001.500247
 20
114.725009
 30
0.0
 10
1014.416907
 20
122.182447
 30
0.0
  0
LWPOLYLINE
  5
1c2
100
AcDbEntity
  8
0
 62
7
100
AcDbPolyline
 90
5
 70
1
 10
1020.816907
 20
104.925009
 30
0.0
 10
1020.816907
 20
124.525009
 30
0.0
 10
1030.500284
 20
124.525009
 30
0.0
 10
1030.500284
 20
104.925009
 30
0.0
 10
1020.816907
 20
104.925009
 30
0.0
  0
LWPOLYLINE
  5
1c3
100
AcDbEntity
  8
0
 62
7
100
AcDbPolyline
 90
5
 70
1
 10
986.471528
 20
136.070388
 30
0.0
 10
1003.445626
 20
145.870388
 30
0.0
 10
1013.245626
 20
128.896291
 30
0.0
 10
996.271528
 20
119.096291
 30
0.0
 10
986.471528
 20
136.070388
 30
0.0
  0
LWPOLYLINE
  5
1c4
100
AcDbEntity
  8
0
 62
7
100
AcDbPolyline
 90
6
 70
1
 10
1019.464428
 20
130.925009
 30
0.0
 10
1008.311949
 20
150.241670
 30
0.0
 10
1019.464428
 20
169.558330
 30
0.0
 10
1030.500284
 20
169.558330
 30
0.0
 10
1030.500284
 20
130.925009
 30
0.0
 10
1019.464428
 20
130.925009
 30
0.0
  0
LWPOLYLINE
  5
1c5
100
AcDbEntity
  8
0
 62
7
100
AcDbPolyline
 90
4
 70
1
 10
1014.416907
 20
193.215768
 30
0.0
 10
1014.416907
 20
178.300893
 30
0.0
 10
1001.500247
 20
185.758330
 30
0.0
 10
1014.416907
 20
193.215768
 30
0.0
  0
LWPOLYLINE
  5
1c6
100
AcDbEntity
  8
0
 62
7
100
AcDbPolyline
 90
5
 70
1
 10
1020.816907
 20
175.958330
 30
0.0
 10
1020.816907
 20
195.558330
 30
0.0
 10
1030.500284
 20
195.558330
 30
0.0
 10
1030.500284
 20
175.958330
 30
0.0
 10
1020.816907
 20
175.958330
 30
0.0
  0
LWPOLYLINE
  5
1c7
100
AcDbEntity
  8
0
 62
7
100
AcDbPolyline
 90
5
 70
1
 10
986.471528
 20
207.103709
 30
0.0
 10
1003.445626
 20
216.903709
 30
0.0
 10
1013.245626
 20
199.929612
 30
0.0
 10
996.271528
 20
190.129612
 30
0.0
 10
986.471528
 20
207.103709
 30
0.0
  0
LWPOLYLINE
  5
1c8
100
AcDbEntity
  8
0
 62
7
100
AcDbPolyline
 90
6
 70
1
 10
1019.464428
 20
201.958330
 30
0.0
 10
1008.311949
 20
221.274991
 30
0.0
 10
1013.349336
 20
230.000000
 30
0.0
 10
1030.500284
 20
230.000000
 30
0.0
 10
1030.500284
 20
201.958330
 30
0.0
 10
1019.464428
 20
201.958330
 30
0.0
  0
LWPOLYLINE
  5
1c9
100
AcDbEntity
  8
0
 62
7
100
AcDbPolyline
 90
5
 70
1
 10
147.500284
 20
55.000000
 30
0.0
 10
1052.500284
 20
55.000000
 30
0.0
 10
1052.500284
 20
245.000000
 30
0.0
 10
147.500284
 20
245.000000
 30
0.0
 10
147.500284
 20
55.000000
 30
0.0
  0
ENDSEC
  0
SECTION
  2
OBJECTS
  0
DICTIONARY
  5
C
330
0
100
AcDbDictionary
  3
ACAD_GROUP
350
D
  3
ACAD_MLINESTYLE
350
17
  0
DICTIONARY
  5
D
330
C
100
AcDbDictionary
  0
DICTIONARY
  5
1A
330
C
100
AcDbDictionary
  0
DICTIONARY
  5
17
330
C
100
AcDbDictionary
  3
STANDARD
350
18
  0
DICTIONARY
  5
19
330
C
100
AcDbDictionary
  0
ENDSEC
  0
EOF
