  0
SECTION
  2
HEADER
  9
$ACADVER
  1
AC1014
  9
$HANDSEED
  5
FFFF
  9
$INSUNITS
 70
     4
  9
$MEASUREMENT
 70
     1
  0
ENDSEC
  0
SECTION
  2
TABLES
  0
TABLE
  2
VPORT
  5
8
330
0
100
AcDbSymbolTable
 70
     4
  0
VPORT
  5
2E
330
8
100
AcDbSymbolTableRecord
100
AcDbViewportTableRecord
  2
*ACTIVE
 70
     0
 10
0.0
 20
0.0
 11
1.0
 21
1.0
 12
210.0
 22
148.5
 13
0.0
 23
0.0
 14
10.0
 24
10.0
 15
10.0
 25
10.0
 16
0.0
 26
0.0
 36
1.0
 17
0.0
 27
0.0
 37
0.0
 40
341.0
 41
1.24
 42
50.0
 43
0.0
 44
0.0
 50
0.0
 51
0.0
 71
     0
 72
   100
 73
     1
 74
     3
 75
     0
 76
     0
 77
     0
 78
     0
  0
ENDTAB
  0
TABLE
  2
LTYPE
  5
5
330
0
100
AcDbSymbolTable
 70
     1
  0
LTYPE
  5
14
330
5
100
AcDbSymbolTableRecord
100
AcDbLinetypeTableRecord
  2
BYBLOCK
 70
     0
  3

 72
    65
 73
     0
 40
0.0
  0
LTYPE
  5
15
330
5
100
AcDbSymbolTableRecord
100
AcDbLinetypeTableRecord
  2
BYLAYER
 70
     0
  3

 72
    65
 73
     0
 40
0.0
  0
LTYPE
  5
16
330
5
100
AcDbSymbolTableRecord
100
AcDbLinetypeTableRecord
  2
CONTINUOUS
 70
     0
  3
Solid line
 72
    65
 73
     0
 40
0.0
  0
ENDTAB
  0
TABLE
  2
LAYER
  5
2
100
AcDbSymbolTable
 70
1
  0
LAYER
  5
50
100
AcDbSymbolTableRecord
100
AcDbLayerTableRecord
  2
0
 70
0
  6
CONTINUOUS
  0
ENDTAB
  0
TABLE
  2
STYLE
  5
3
330
0
100
AcDbSymbolTable
 70
     1
  0
STYLE
  5
11
330
3
100
AcDbSymbolTableRecord
100
AcDbTextStyleTableRecord
  2
STANDARD
 70
     0
 40
0.0
 41
1.0
 50
0.0
 71
     0
 42
2.5
  3
txt
  4

  0
ENDTAB
  0
TABLE
  2
VIEW
  5
6
330
0
100
AcDbSymbolTable
 70
     0
  0
ENDTAB
  0
TABLE
  2
UCS
  5
7
330
0
100
AcDbSymbolTable
 70
     0
  0
ENDTAB
  0
TABLE
  2
APPID
  5
9
330
0
100
AcDbSymbolTable
 70
     2
  0
APPID
  5
12
330
9
100
AcDbSymbolTableRecord
100
AcDbRegAppTableRecord
  2
ACAD
 70
     0
  0
ENDTAB
  0
TABLE
  2
DIMSTYLE
  5
A
330
0
100
AcDbSymbolTable
 70
     1
  0
DIMSTYLE
105
27
330
A
100
AcDbSymbolTableRecord
100
AcDbDimStyleTableRecord
  2
ISO-25
 70
     0
  3

  4

  5

  6

  7

 40
1.0
 41
2.5
 42
0.625
 43
3.75
 44
1.25
 45
0.0
 46
0.0
 47
0.0
 48
0.0
140
2.5
141
2.5
142
0.0
143
0.03937007874016
144
1.0
145
0.0
146
1.0
147
0.625
 71
     0
 72
     0
 73
     0
 74
     0
 75
     0
 76
     0
 77
     1
 78
     8
170
     0
171
     3
172
     1
173
     0
174
     0
175
     0
176
     0
177
     0
178
     0
270
     2
271
     2
272
     2
273
     2
274
     3
340
11
275
     0
280
     0
281
     0
282
     0
283
     0
284
     8
285
     0
286
     0
287
     3
288
     0
  0
ENDTAB
  0
TABLE
  2
BLOCK_RECORD
  5
1
330
0
100
AcDbSymbolTable
 70
     1
  0
BLOCK_RECORD
  5
1F
330
1
100
AcDbSymbolTableRecord
100
AcDbBlockTableRecord
  2
*MODEL_SPACE
  0
BLOCK_RECORD
  5
1B
330
1
100
AcDbSymbolTableRecord
100
AcDbBlockTableRecord
  2
*PAPER_SPACE
  0
ENDTAB
  0
ENDSEC
  0
SECTION
  2
BLOCKS
  0
BLOCK
  5
20
330
1F
100
AcDbEntity
  8
0
100
AcDbBlockBegin
  2
*MODEL_SPACE
 70
     0
 10
0.0
 20
0.0
 30
0.0
  3
*MODEL_SPACE
  1

  0
ENDBLK
  5
21
330
1F
100
AcDbEntity
  8
0
100
AcDbBlockEnd
  0
BLOCK
  5
1C
330
1B
100
AcDbEntity
 67
     1
  8
0
100
AcDbBlockBegin
  2
*PAPER_SPACE
  1

  0
ENDBLK
  5
1D
330
1B
100
AcDbEntity
 67
     1
  8
0
100
AcDbBlockEnd
  0
ENDSEC
  0
SECTION
  2
ENTITIES
  0
LWPOLYLINE
  5
100
100
AcDbEntity
  8
0
 62
7
100
AcDbPolyline
 90
4
 70
1
 10
207.929434
 20
88.290685
 30
0.0
 10
195.484027
 20
95.476044
 30
0.0
 10
207.929434
 20
102.661404
 30
0.0
 10
207.929434
 20
88.290685
 30
0.0
  0
LWPOLYLINE
  5
101
100
AcDbEntity
  8
0
 62
7
100
AcDbPolyline
 90
5
 70
1
 10
206.758153
 20
109.375248
 30
0.0
 10
190.255308
 20
99.847326
 30
0.0
 10
180.727386
 20
116.350171
 30
0.0
 10
197.230231
 20
125.878093
 30
0.0
 10
206.758153
 20
109.375248
 30
0.0
  0
LWPOLYLINE
  5
102
100
AcDbEntity
  8
0
 62
7
100
AcDbPolyline
 90
5
 70
1
 10
206.758153
 20
151.123500
 30
0.0
 10
197.230231
 20
134.620655
 30
0.0
 10
180.727386
 20
144.148577
 30
0.0
 10
190.255308
 20
160.651423
 30
0.0
 10
206.758153
 20
151.123500
 30
0.0
  0
LWPOLYLINE
  5
103
100
AcDbEntity
  8
0
 62
7
100
AcDbPolyline
 90
4
 70
1
 10
179.556105
 20
137.434734
 30
0.0
 10
192.001512
 20
130.249374
 30
0.0
 10
179.556105
 20
123.064015
 30
0.0
 10
179.556105
 20
137.434734
 30
0.0
  0
LWPOLYLINE
  5
104
100
AcDbEntity
  8
0
 62
7
100
AcDbPolyline
 90
4
 70
1
 10
218.314794
 20
127.049374
 30
0.0
 10
211.129434
 20
114.603966
 30
0.0
 10
203.944075
 20
127.049374
 30
0.0
 10
218.314794
 20
127.049374
 30
0.0
  0
LWPOLYLINE
  5
105
100
AcDbEntity
  8
0
 62
7
100
AcDbPolyline
 90
4
 70
1
 10
211.129434
 20
145.894782
 30
0.0
 10
218.314794
 20
133.449374
 30
0.0
 10
203.944075
 20
133.449374
 30
0.0
 10
211.129434
 20
145.894782
 30
0.0
  0
LWPOLYLINE
  5
106
100
AcDbEntity
  8
0
 62
7
100
AcDbPolyline
 90
4
 70
1
 10
207.929434
 20
157.837344
 30
0.0
 10
195.484027
 20
165.022704
 30
0.0
 10
207.929434
 20
172.208063
 30
0.0
 10
207.929434
 20
157.837344
 30
0.0
  0
LWPOLYLINE
  5
107
100
AcDbEntity
  8
0
 62
7
100
AcDbPolyline
 90
5
 70
1
 10
241.531483
 20
116.350171
 30
0.0
 10
232.003561
 20
99.847326
 30
0.0
 10
215.500716
 20
109.375248
 30
0.0
 10
225.028638
 20
125.878093
 30
0.0
 10
241.531483
 20
116.350171
 30
0.0
  0
LWPOLYLINE
  5
108
100
AcDbEntity
  8
0
 62
7
100
AcDbPolyline
 90
4
 70
1
 10
214.329434
 20
102.661404
 30
0.0
 10
226.774842
 20
95.476044
 30
0.0
 10
214.329434
 20
88.290685
 30
0.0
 10
214.329434
 20
102.661404
 30
0.0
  0
LWPOLYLINE
  5
109
100
AcDbEntity
  8
0
 62
7
100
AcDbPolyline
 90
4
 70
1
 10
245.902764
 20
111.121452
 30
0.0
 10
253.088124
 20
98.676044
 30
0.0
 10
238.717405
 20
98.676044
 30
0.0
 10
245.902764
 20
111.121452
 30
0.0
  0
LWPOLYLINE
  5
10a
100
AcDbEntity
  8
0
 62
7
100
AcDbPolyline
 90
4
 70
1
 10
242.702764
 20
123.064015
 30
0.0
 10
230.257356
 20
130.249374
 30
0.0
 10
242.702764
 20
137.434734
 30
0.0
 10
242.702764
 20
123.064015
 30
0.0
  0
LWPOLYLINE
  5
10b
100
AcDbEntity
  8
0
 62
7
100
AcDbPolyline
 90
4
 70
1
 10
277.476094
 20
88.290685
 30
0.0
 10
265.030686
 20
95.476044
 30
0.0
 10
277.476094
 20
102.661404
 30
0.0
 10
277.476094
 20
88.290685
 30
0.0
  0
LWPOLYLINE
  5
10c
100
AcDbEntity
  8
0
 62
7
100
AcDbPolyline
 90
5
 70
1
 10
206.758153
 20
178.921907
 30
0.0
 10
190.255308
 20
169.393985
 30
0.0
 10
180.727386
 20
185.896830
 30
0.0
 10
197.230231
 20
195.424752
 30
0.0
 10
206.758153
 20
178.921907
 30
0.0
  0
LWPOLYLINE
  5
10d
100
AcDbEntity
  8
0
 62
7
100
AcDbPolyline
 90
4
 70
1
 10
179.556105
 20
206.981393
 30
0.0
 10
192.001512
 20
199.796034
 30
0.0
 10
179.556105
 20
192.610674
 30
0.0
 10
179.556105
 20
206.981393
 30
0.0
  0
LWPOLYLINE
  5
10e
100
AcDbEntity
  8
0
 62
7
100
AcDbPolyline
 90
4
 70
1
 10
218.314794
 20
196.596034
 30
0.0
 10
211.129434
 20
184.150626
 30
0.0
 10
203.944075
 20
196.596034
 30
0.0
 10
218.314794
 20
196.596034
 30
0.0
  0
LWPOLYLINE
  5
10f
100
AcDbEntity
  8
0
 62
7
100
AcDbPolyline
 90
5
 70
1
 10
241.531483
 20
144.148577
 30
0.0
 10
225.028638
 20
134.620655
 30
0.0
 10
215.500716
 20
151.123500
 30
0.0
 10
232.003561
 20
160.651423
 30
0.0
 10
241.531483
 20
144.148577
 30
0.0
  0
LWPOLYLINE
  5
110
100
AcDbEntity
  8
0
 62
7
100
AcDbPolyline
 90
5
 70
1
 10
241.531483
 20
185.896830
 30
0.0
 10
232.003561
 20
169.393985
 30
0.0
 10
215.500716
 20
178.921907
 30
0.0
 10
225.028638
 20
195.424752
 30
0.0
 10
241.531483
 20
185.896830
 30
0.0
  0
LWPOLYLINE
  5
111
100
AcDbEntity
  8
0
 62
7
100
AcDbPolyline
 90
4
 70
1
 10
214.329434
 20
172.208063
 30
0.0
 10
226.774842
 20
165.022704
 30
0.0
 10
214.329434
 20
157.837344
 30
0.0
 10
214.329434
 20
172.208063
 30
0.0
  0
LWPOLYLINE
  5
112
100
AcDbEntity
  8
0
 62
7
100
AcDbPolyline
 90
4
 70
1
 10
253.088124
 20
161.822704
 30
0.0
 10
245.902764
 20
149.377296
 30
0.0
 10
238.717405
 20
161.822704
 30
0.0
 10
253.088124
 20
161.822704
 30
0.0
  0
LWPOLYLINE
  5
113
100
AcDbEntity
  8
0
 62
7
100
AcDbPolyline
 90
4
 70
1
 10
245.902764
 20
180.668112
 30
0.0
 10
253.088124
 20
168.222704
 30
0.0
 10
238.717405
 20
168.222704
 30
0.0
 10
245.902764
 20
180.668112
 30
0.0
  0
LWPOLYLINE
  5
114
100
AcDbEntity
  8
0
 62
7
100
AcDbPolyline
 90
4
 70
1
 10
242.702764
 20
192.610674
 30
0.0
 10
230.257356
 20
199.796034
 30
0.0
 10
242.702764
 20
206.981393
 30
0.0
 10
242.702764
 20
192.610674
 30
0.0
  0
LWPOLYLINE
  5
115
100
AcDbEntity
  8
0
 62
7
100
AcDbPolyline
 90
5
 70
1
 10
276.304813
 20
109.375248
 30
0.0
 10
259.801967
 20
99.847326
 30
0.0
 10
250.274045
 20
116.350171
 30
0.0
 10
266.776890
 20
125.878093
 30
0.0
 10
276.304813
 20
109.375248
 30
0.0
  0
LWPOLYLINE
  5
116
100
AcDbEntity
  8
0
 62
7
100
AcDbPolyline
 90
5
 70
1
 10
276.304813
 20
151.123500
 30
0.0
 10
266.776890
 20
134.620655
 30
0.0
 10
250.274045
 20
144.148577
 30
0.0
 10
259.801967
 20
160.651423
 30
0.0
 10
276.304813
 20
151.123500
 30
0.0
  0
LWPOLYLINE
  5
117
100
AcDbEntity
  8
0
 62
7
100
AcDbPolyline
 90
4
 70
1
 10
249.102764
 20
137.434734
 30
0.0
 10
261.548172
 20
130.249374
 30
0.0
 10
249.102764
 20
123.064015
 30
0.0
 10
249.102764
 20
137.434734
 30
0.0
  0
LWPOLYLINE
  5
118
100
AcDbEntity
  8
0
 62
7
100
AcDbPolyline
 90
4
 70
1
 10
287.861453
 20
127.049374
 30
0.0
 10
280.676094
 20
114.603966
 30
0.0
 10
273.490734
 20
127.049374
 30
0.0
 10
287.861453
 20
127.049374
 30
0.0
  0
LWPOLYLINE
  5
119
100
AcDbEntity
  8
0
 62
7
100
AcDbPolyline
 90
4
 70
1
 10
280.676094
 20
145.894782
 30
0.0
 10
287.861453
 20
133.449374
 30
0.0
 10
273.490734
 20
133.449374
 30
0.0
 10
280.676094
 20
145.894782
 30
0.0
  0
LWPOLYLINE
  5
11a
100
AcDbEntity
  8
0
 62
7
100
AcDbPolyline
 90
4
 70
1
 10
277.476094
 20
157.837344
 30
0.0
 10
265.030686
 20
165.022704
 30
0.0
 10
277.476094
 20
172.208063
 30
0.0
 10
277.476094
 20
157.837344
 30
0.0
  0
LWPOLYLINE
  5
11b
100
AcDbEntity
  8
0
 62
7
100
AcDbPolyline
 90
5
 70
1
 10
311.078142
 20
116.350171
 30
0.0
 10
301.550220
 20
99.847326
 30
0.0
 10
285.047375
 20
109.375248
 30
0.0
 10
294.575297
 20
125.878093
 30
0.0
 10
311.078142
 20
116.350171
 30
0.0
  0
LWPOLYLINE
  5
11c
100
AcDbEntity
  8
0
 62
7
100
AcDbPolyline
 90
4
 70
1
 10
283.876094
 20
102.661404
 30
0.0
 10
296.321502
 20
95.476044
 30
0.0
 10
283.876094
 20
88.290685
 30
0.0
 10
283.876094
 20
102.661404
 30
0.0
  0
LWPOLYLINE
  5
11d
100
AcDbEntity
  8
0
 62
7
100
AcDbPolyline
 90
4
 70
1
 10
315.449424
 20
111.121452
 30
0.0
 10
322.634783
 20
98.676044
 30
0.0
 10
308.264064
 20
98.676044
 30
0.0
 10
315.449424
 20
111.121452
 30
0.0
  0
LWPOLYLINE
  5
11e
100
AcDbEntity
  8
0
 62
7
100
AcDbPolyline
 90
4
 70
1
 10
312.249424
 20
123.064015
 30
0.0
 10
299.804016
 20
130.249374
 30
0.0
 10
312.249424
 20
137.434734
 30
0.0
 10
312.249424
 20
123.064015
 30
0.0
  0
LWPOLYLINE
  5
11f
100
AcDbEntity
  8
0
 62
7
100
AcDbPolyline
 90
4
 70
1
 10
347.022753
 20
88.290685
 30
0.0
 10
334.577346
 20
95.476044
 30
0.0
 10
347.022753
 20
102.661404
 30
0.0
 10
347.022753
 20
88.290685
 30
0.0
  0
LWPOLYLINE
  5
120
100
AcDbEntity
  8
0
 62
7
100
AcDbPolyline
 90
5
 70
1
 10
276.304813
 20
178.921907
 30
0.0
 10
259.801967
 20
169.393985
 30
0.0
 10
250.274045
 20
185.896830
 30
0.0
 10
266.776890
 20
195.424752
 30
0.0
 10
276.304813
 20
178.921907
 30
0.0
  0
LWPOLYLINE
  5
121
100
AcDbEntity
  8
0
 62
7
100
AcDbPolyline
 90
4
 70
1
 10
249.102764
 20
206.981393
 30
0.0
 10
261.548172
 20
199.796034
 30
0.0
 10
249.102764
 20
192.610674
 30
0.0
 10
249.102764
 20
206.981393
 30
0.0
  0
LWPOLYLINE
  5
122
100
AcDbEntity
  8
0
 62
7
100
AcDbPolyline
 90
4
 70
1
 10
287.861453
 20
196.596034
 30
0.0
 10
280.676094
 20
184.150626
 30
0.0
 10
273.490734
 20
196.596034
 30
0.0
 10
287.861453
 20
196.596034
 30
0.0
  0
LWPOLYLINE
  5
123
100
AcDbEntity
  8
0
 62
7
100
AcDbPolyline
 90
5
 70
1
 10
311.078142
 20
144.148577
 30
0.0
 10
294.575297
 20
134.620655
 30
0.0
 10
285.047375
 20
151.123500
 30
0.0
 10
301.550220
 20
160.651423
 30
0.0
 10
311.078142
 20
144.148577
 30
0.0
  0
LWPOLYLINE
  5
124
100
AcDbEntity
  8
0
 62
7
100
AcDbPolyline
 90
5
 70
1
 10
311.078142
 20
185.896830
 30
0.0
 10
301.550220
 20
169.393985
 30
0.0
 10
285.047375
 20
178.921907
 30
0.0
 10
294.575297
 20
195.424752
 30
0.0
 10
311.078142
 20
185.896830
 30
0.0
  0
LWPOLYLINE
  5
125
100
AcDbEntity
  8
0
 62
7
100
AcDbPolyline
 90
4
 70
1
 10
283.876094
 20
172.208063
 30
0.0
 10
296.321502
 20
165.022704
 30
0.0
 10
283.876094
 20
157.837344
 30
0.0
 10
283.876094
 20
172.208063
 30
0.0
  0
LWPOLYLINE
  5
126
100
AcDbEntity
  8
0
 62
7
100
AcDbPolyline
 90
4
 70
1
 10
322.634783
 20
161.822704
 30
0.0
 10
315.449424
 20
149.377296
 30
0.0
 10
308.264064
 20
161.822704
 30
0.0
 10
322.634783
 20
161.822704
 30
0.0
  0
LWPOLYLINE
  5
127
100
AcDbEntity
  8
0
 62
7
100
AcDbPolyline
 90
4
 70
1
 10
315.449424
 20
180.668112
 30
0.0
 10
322.634783
 20
168.222704
 30
0.0
 10
308.264064
 20
168.222704
 30
0.0
 10
315.449424
 20
180.668112
 30
0.0
  0
LWPOLYLINE
  5
128
100
AcDbEntity
  8
0
 62
7
100
AcDbPolyline
 90
4
 70
1
 10
312.249424
 20
192.610674
 30
0.0
 10
299.804016
 20
199.796034
 30
0.0
 10
312.249424
 20
206.981393
 30
0.0
 10
312.249424
 20
192.610674
 30
0.0
  0
LWPOLYLINE
  5
129
100
AcDbEntity
  8
0
 62
7
100
AcDbPolyline
 90
5
 70
1
 10
345.851472
 20
109.375248
 30
0.0
 10
329.348627
 20
99.847326
 30
0.0
 10
319.820705
 20
116.350171
 30
0.0
 10
336.323550
 20
125.878093
 30
0.0
 10
345.851472
 20
109.375248
 30
0.0
  0
LWPOLYLINE
  5
12a
100
AcDbEntity
  8
0
 62
7
100
AcDbPolyline
 90
5
 70
1
 10
345.851472
 20
151.123500
 30
0.0
 10
336.323550
 20
134.620655
 30
0.0
 10
319.820705
 20
144.148577
 30
0.0
 10
329.348627
 20
160.651423
 30
0.0
 10
345.851472
 20
151.123500
 30
0.0
  0
LWPOLYLINE
  5
12b
100
AcDbEntity
  8
0
 62
7
100
AcDbPolyline
 90
4
 70
1
 10
318.649424
 20
137.434734
 30
0.0
 10
331.094831
 20
130.249374
 30
0.0
 10
318.649424
 20
123.064015
 30
0.0
 10
318.649424
 20
137.434734
 30
0.0
  0
LWPOLYLINE
  5
12c
100
AcDbEntity
  8
0
 62
7
100
AcDbPolyline
 90
4
 70
1
 10
357.408113
 20
127.049374
 30
0.0
 10
350.222753
 20
114.603966
 30
0.0
 10
343.037394
 20
127.049374
 30
0.0
 10
357.408113
 20
127.049374
 30
0.0
  0
LWPOLYLINE
  5
12d
100
AcDbEntity
  8
0
 62
7
100
AcDbPolyline
 90
4
 70
1
 10
350.222753
 20
145.894782
 30
0.0
 10
357.408113
 20
133.449374
 30
0.0
 10
343.037394
 20
133.449374
 30
0.0
 10
350.222753
 20
145.894782
 30
0.0
  0
LWPOLYLINE
  5
12e
100
AcDbEntity
  8
0
 62
7
100
AcDbPolyline
 90
4
 70
1
 10
347.022753
 20
157.837344
 30
0.0
 10
334.577346
 20
165.022704
 30
0.0
 10
347.022753
 20
172.208063
 30
0.0
 10
347.022753
 20
157.837344
 30
0.0
  0
LWPOLYLINE
  5
12f
100
AcDbEntity
  8
0
 62
7
100
AcDbPolyline
 90
5
 70
1
 10
380.624802
 20
116.350171
 30
0.0
 10
371.096880
 20
99.847326
 30
0.0
 10
354.594035
 20
109.375248
 30
0.0
 10
364.121957
 20
125.878093
 30
0.0
 10
380.624802
 20
116.350171
 30
0.0
  0
LWPOLYLINE
  5
130
100
AcDbEntity
  8
0
 62
7
100
AcDbPolyline
 90
4
 70
1
 10
353.422753
 20
102.661404
 30
0.0
 10
365.868161
 20
95.476044
 30
0.0
 10
353.422753
 20
88.290685
 30
0.0
 10
353.422753
 20
102.661404
 30
0.0
  0
LWPOLYLINE
  5
131
100
AcDbEntity
  8
0
 62
7
100
AcDbPolyline
 90
4
 70
1
 10
384.996083
 20
111.121452
 30
0.0
 10
392.181443
 20
98.676044
 30
0.0
 10
377.810724
 20
98.676044
 30
0.0
 10
384.996083
 20
111.121452
 30
0.0
  0
LWPOLYLINE
  5
132
100
AcDbEntity
  8
0
 62
7
100
AcDbPolyline
 90
4
 70
1
 10
381.796083
 20
123.064015
 30
0.0
 10
369.350675
 20
130.249374
 30
0.0
 10
381.796083
 20
137.434734
 30
0.0
 10
381.796083
 20
123.064015
 30
0.0
  0
LWPOLYLINE
  5
133
100
AcDbEntity
  8
0
 62
7
100
AcDbPolyline
 90
4
 70
1
 10
416.569413
 20
88.290685
 30
0.0
 10
404.124005
 20
95.476044
 30
0.0
 10
416.569413
 20
102.661404
 30
0.0
 10
416.569413
 20
88.290685
 30
0.0
  0
LWPOLYLINE
  5
134
100
AcDbEntity
  8
0
 62
7
100
AcDbPolyline
 90
5
 70
1
 10
345.851472
 20
178.921907
 30
0.0
 10
329.348627
 20
169.393985
 30
0.0
 10
319.820705
 20
185.896830
 30
0.0
 10
336.323550
 20
195.424752
 30
0.0
 10
345.851472
 20
178.921907
 30
0.0
  0
LWPOLYLINE
  5
135
100
AcDbEntity
  8
0
 62
7
100
AcDbPolyline
 90
4
 70
1
 10
318.649424
 20
206.981393
 30
0.0
 10
331.094831
 20
199.796034
 30
0.0
 10
318.649424
 20
192.610674
 30
0.0
 10
318.649424
 20
206.981393
 30
0.0
  0
LWPOLYLINE
  5
136
100
AcDbEntity
  8
0
 62
7
100
AcDbPolyline
 90
4
 70
1
 10
357.408113
 20
196.596034
 30
0.0
 10
350.222753
 20
184.150626
 30
0.0
 10
343.037394
 20
196.596034
 30
0.0
 10
357.408113
 20
196.596034
 30
0.0
  0
LWPOLYLINE
  5
137
100
AcDbEntity
  8
0
 62
7
100
AcDbPolyline
 90
5
 70
1
 10
380.624802
 20
144.148577
 30
0.0
 10
364.121957
 20
134.620655
 30
0.0
 10
354.594035
 20
151.123500
 30
0.0
 10
371.096880
 20
160.651423
 30
0.0
 10
380.624802
 20
144.148577
 30
0.0
  0
LWPOLYLINE
  5
138
100
AcDbEntity
  8
0
 62
7
100
AcDbPolyline
 90
5
 70
1
 10
380.624802
 20
185.896830
 30
0.0
 10
371.096880
 20
169.393985
 30
0.0
 10
354.594035
 20
178.921907
 30
0.0
 10
364.121957
 20
195.424752
 30
0.0
 10
380.624802
 20
185.896830
 30
0.0
  0
LWPOLYLINE
  5
139
100
AcDbEntity
  8
0
 62
7
100
AcDbPolyline
 90
4
 70
1
 10
353.422753
 20
172.208063
 30
0.0
 10
365.868161
 20
165.022704
 30
0.0
 10
353.422753
 20
157.837344
 30
0.0
 10
353.422753
 20
172.208063
 30
0.0
  0
LWPOLYLINE
  5
13a
100
AcDbEntity
  8
0
 62
7
100
AcDbPolyline
 90
4
 70
1
 10
392.181443
 20
161.822704
 30
0.0
 10
384.996083
 20
149.377296
 30
0.0
 10
377.810724
 20
161.822704
 30
0.0
 10
392.181443
 20
161.822704
 30
0.0
  0
LWPOLYLINE
  5
13b
100
AcDbEntity
  8
0
 62
7
100
AcDbPolyline
 90
4
 70
1
 10
384.996083
 20
180.668112
 30
0.0
 10
392.181443
 20
168.222704
 30
0.0
 10
377.810724
 20
168.222704
 30
0.0
 10
384.996083
 20
180.668112
 30
0.0
  0
LWPOLYLINE
  5
13c
100
AcDbEntity
  8
0
 62
7
100
AcDbPolyline
 90
4
 70
1
 10
381.796083
 20
192.610674
 30
0.0
 10
369.350675
 20
199.796034
 30
0.0
 10
381.796083
 20
206.981393
 30
0.0
 10
381.796083
 20
192.610674
 30
0.0
  0
LWPOLYLINE
  5
13d
100
AcDbEntity
  8
0
 62
7
100
AcDbPolyline
 90
5
 70
1
 10
415.398132
 20
109.375248
 30
0.0
 10
398.895286
 20
99.847326
 30
0.0
 10
389.367364
 20
116.350171
 30
0.0
 10
405.870209
 20
125.878093
 30
0.0
 10
415.398132
 20
109.375248
 30
0.0
  0
LWPOLYLINE
  5
13e
100
AcDbEntity
  8
0
 62
7
100
AcDbPolyline
 90
5
 70
1
 10
415.398132
 20
151.123500
 30
0.0
 10
405.870209
 20
134.620655
 30
0.0
 10
389.367364
 20
144.148577
 30
0.0
 10
398.895286
 20
160.651423
 30
0.0
 10
415.398132
 20
151.123500
 30
0.0
  0
LWPOLYLINE
  5
13f
100
AcDbEntity
  8
0
 62
7
100
AcDbPolyline
 90
4
 70
1
 10
388.196083
 20
137.434734
 30
0.0
 10
400.641491
 20
130.249374
 30
0.0
 10
388.196083
 20
123.064015
 30
0.0
 10
388.196083
 20
137.434734
 30
0.0
  0
LWPOLYLINE
  5
140
100
AcDbEntity
  8
0
 62
7
100
AcDbPolyline
 90
4
 70
1
 10
426.954772
 20
127.049374
 30
0.0
 10
419.769413
 20
114.603966
 30
0.0
 10
412.584053
 20
127.049374
 30
0.0
 10
426.954772
 20
127.049374
 30
0.0
  0
LWPOLYLINE
  5
141
100
AcDbEntity
  8
0
 62
7
100
AcDbPolyline
 90
4
 70
1
 10
419.769413
 20
145.894782
 30
0.0
 10
426.954772
 20
133.449374
 30
0.0
 10
412.584053
 20
133.449374
 30
0.0
 10
419.769413
 20
145.894782
 30
0.0
  0
LWPOLYLINE
  5
142
100
AcDbEntity
  8
0
 62
7
100
AcDbPolyline
 90
4
 70
1
 10
416.569413
 20
157.837344
 30
0.0
 10
404.124005
 20
165.022704
 30
0.0
 10
416.569413
 20
172.208063
 30
0.0
 10
416.569413
 20
157.837344
 30
0.0
  0
LWPOLYLINE
  5
143
100
AcDbEntity
  8
0
 62
7
100
AcDbPolyline
 90
5
 70
1
 10
450.171461
 20
116.350171
 30
0.0
 10
440.643539
 20
99.847326
 30
0.0
 10
424.140694
 20
109.375248
 30
0.0
 10
433.668616
 20
125.878093
 30
0.0
 10
450.171461
 20
116.350171
 30
0.0
  0
LWPOLYLINE
  5
144
100
AcDbEntity
  8
0
 62
7
100
AcDbPolyline
 90
4
 70
1
 10
422.969413
 20
102.661404
 30
0.0
 10
435.414821
 20
95.476044
 30
0.0
 10
422.969413
 20
88.290685
 30
0.0
 10
422.969413
 20
102.661404
 30
0.0
  0
LWPOLYLINE
  5
145
100
AcDbEntity
  8
0
 62
7
100
AcDbPolyline
 90
4
 70
1
 10
454.542743
 20
111.121452
 30
0.0
 10
461.728102
 20
98.676044
 30
0.0
 10
447.357383
 20
98.676044
 30
0.0
 10
454.542743
 20
111.121452
 30
0.0
  0
LWPOLYLINE
  5
146
100
AcDbEntity
  8
0
 62
7
100
AcDbPolyline
 90
4
 70
1
 10
451.342743
 20
123.064015
 30
0.0
 10
438.897335
 20
130.249374
 30
0.0
 10
451.342743
 20
137.434734
 30
0.0
 10
451.342743
 20
123.064015
 30
0.0
  0
LWPOLYLINE
  5
147
100
AcDbEntity
  8
0
 62
7
100
AcDbPolyline
 90
4
 70
1
 10
486.116072
 20
88.290685
 30
0.0
 10
473.670665
 20
95.476044
 30
0.0
 10
486.116072
 20
102.661404
 30
0.0
 10
486.116072
 20
88.290685
 30
0.0
  0
LWPOLYLINE
  5
148
100
AcDbEntity
  8
0
 62
7
100
AcDbPolyline
 90
5
 70
1
 10
415.398132
 20
178.921907
 30
0.0
 10
398.895286
 20
169.393985
 30
0.0
 10
389.367364
 20
185.896830
 30
0.0
 10
405.870209
 20
195.424752
 30
0.0
 10
415.398132
 20
178.921907
 30
0.0
  0
LWPOLYLINE
  5
149
100
AcDbEntity
  8
0
 62
7
100
AcDbPolyline
 90
4
 70
1
 10
388.196083
 20
206.981393
 30
0.0
 10
400.641491
 20
199.796034
 30
0.0
 10
388.196083
 20
192.610674
 30
0.0
 10
388.196083
 20
206.981393
 30
0.0
  0
LWPOLYLINE
  5
14a
100
AcDbEntity
  8
0
 62
7
100
AcDbPolyline
 90
4
 70
1
 10
426.954772
 20
196.596034
 30
0.0
 10
419.769413
 20
184.150626
 30
0.0
 10
412.584053
 20
196.596034
 30
0.0
 10
426.954772
 20
196.596034
 30
0.0
  0
LWPOLYLINE
  5
14b
100
AcDbEntity
  8
0
 62
7
100
AcDbPolyline
 90
5
 70
1
 10
450.171461
 20
144.148577
 30
0.0
 10
433.668616
 20
134.620655
 30
0.0
 10
424.140694
 20
151.123500
 30
0.0
 10
440.643539
 20
160.651423
 30
0.0
 10
450.171461
 20
144.148577
 30
0.0
  0
LWPOLYLINE
  5
14c
100
AcDbEntity
  8
0
 62
7
100
AcDbPolyline
 90
5
 70
1
 10
450.171461
 20
185.896830
 30
0.0
 10
440.643539
 20
169.393985
 30
0.0
 10
424.140694
 20
178.921907
 30
0.0
 10
433.668616
 20
195.424752
 30
0.0
 10
450.171461
 20
185.896830
 30
0.0
  0
LWPOLYLINE
  5
14d
100
AcDbEntity
  8
0
 62
7
100
AcDbPolyline
 90
4
 70
1
 10
422.969413
 20
172.208063
 30
0.0
 10
435.414821
 20
165.022704
 30
0.0
 10
422.969413
 20
157.837344
 30
0.0
 10
422.969413
 20
172.208063
 30
0.0
  0
LWPOLYLINE
  5
14e
100
AcDbEntity
  8
0
 62
7
100
AcDbPolyline
 90
4
 70
1
 10
461.728102
 20
161.822704
 30
0.0
 10
454.542743
 20
149.377296
 30
0.0
 10
447.357383
 20
161.822704
 30
0.0
 10
461.728102
 20
161.822704
 30
0.0
  0
LWPOLYLINE
  5
14f
100
AcDbEntity
  8
0
 62
7
100
AcDbPolyline
 90
4
 70
1
 10
454.542743
 20
180.668112
 30
0.0
 10
461.728102
 20
168.222704
 30
0.0
 10
447.357383
 20
168.222704
 30
0.0
 10
454.542743
 20
180.668112
 30
0.0
  0
LWPOLYLINE
  5
150
100
AcDbEntity
  8
0
 62
7
100
AcDbPolyline
 90
4
 70
1
 10
451.342743
 20
192.610674
 30
0.0
 10
438.897335
 20
199.796034
 30
0.0
 10
451.342743
 20
206.981393
 30
0.0
 10
451.342743
 20
192.610674
 30
0.0
  0
LWPOLYLINE
  5
151
100
AcDbEntity
  8
0
 62
7
100
AcDbPolyline
 90
5
 70
1
 10
484.944791
 20
109.375248
 30
0.0
 10
468.441946
 20
99.847326
 30
0.0
 10
458.914024
 20
116.350171
 30
0.0
 10
475.416869
 20
125.878093
 30
0.0
 10
484.944791
 20
109.375248
 30
0.0
  0
LWPOLYLINE
  5
152
100
AcDbEntity
  8
0
 62
7
100
AcDbPolyline
 90
5
 70
1
 10
484.944791
 20
151.123500
 30
0.0
 10
475.416869
 20
134.620655
 30
0.0
 10
458.914024
 20
144.148577
 30
0.0
 10
468.441946
 20
160.651423
 30
0.0
 10
484.944791
 20
151.123500
 30
0.0
  0
LWPOLYLINE
  5
153
100
AcDbEntity
  8
0
 62
7
100
AcDbPolyline
 90
4
 70
1
 10
457.742743
 20
137.434734
 30
0.0
 10
470.188150
 20
130.249374
 30
0.0
 10
457.742743
 20
123.064015
 30
0.0
 10
457.742743
 20
137.434734
 30
0.0
  0
LWPOLYLINE
  5
154
100
AcDbEntity
  8
0
 62
7
100
AcDbPolyline
 90
4
 70
1
 10
496.501432
 20
127.049374
 30
0.0
 10
489.316072
 20
114.603966
 30
0.0
 10
482.130713
 20
127.049374
 30
0.0
 10
496.501432
 20
127.049374
 30
0.0
  0
LWPOLYLINE
  5
155
100
AcDbEntity
  8
0
 62
7
100
AcDbPolyline
 90
4
 70
1
 10
489.316072
 20
145.894782
 30
0.0
 10
496.501432
 20
133.449374
 30
0.0
 10
482.130713
 20
133.449374
 30
0.0
 10
489.316072
 20
145.894782
 30
0.0
  0
LWPOLYLINE
  5
156
100
AcDbEntity
  8
0
 62
7
100
AcDbPolyline
 90
4
 70
1
 10
486.116072
 20
157.837344
 30
0.0
 10
473.670665
 20
165.022704
 30
0.0
 10
486.116072
 20
172.208063
 30
0.0
 10
486.116072
 20
157.837344
 30
0.0
  0
LWPOLYLINE
  5
157
100
AcDbEntity
  8
0
 62
7
100
AcDbPolyline
 90
5
 70
1
 10
519.718121
 20
116.350171
 30
0.0
 10
510.190199
 20
99.847326
 30
0.0
 10
493.687354
 20
109.375248
 30
0.0
 10
503.215276
 20
125.878093
 30
0.0
 10
519.718121
 20
116.350171
 30
0.0
  0
LWPOLYLINE
  5
158
100
AcDbEntity
  8
0
 62
7
100
AcDbPolyline
 90
4
 70
1
 10
492.516072
 20
102.661404
 30
0.0
 10
504.961480
 20
95.476044
 30
0.0
 10
492.516072
 20
88.290685
 30
0.0
 10
492.516072
 20
102.661404
 30
0.0
  0
LWPOLYLINE
  5
159
100
AcDbEntity
  8
0
 62
7
100
AcDbPolyline
 90
4
 70
1
 10
524.089402
 20
111.121452
 30
0.0
 10
531.274762
 20
98.676044
 30
0.0
 10
516.904043
 20
98.676044
 30
0.0
 10
524.089402
 20
111.121452
 30
0.0
  0
LWPOLYLINE
  5
15a
100
AcDbEntity
  8
0
 62
7
100
AcDbPolyline
 90
4
 70
1
 10
520.889402
 20
123.064015
 30
0.0
 10
508.443994
 20
130.249374
 30
0.0
 10
520.889402
 20
137.434734
 30
0.0
 10
520.889402
 20
123.064015
 30
0.0
  0
LWPOLYLINE
  5
15b
100
AcDbEntity
  8
0
 62
7
100
AcDbPolyline
 90
4
 70
1
 10
555.662732
 20
88.290685
 30
0.0
 10
543.217324
 20
95.476044
 30
0.0
 10
555.662732
 20
102.661404
 30
0.0
 10
555.662732
 20
88.290685
 30
0.0
  0
LWPOLYLINE
  5
15c
100
AcDbEntity
  8
0
 62
7
100
AcDbPolyline
 90
5
 70
1
 10
484.944791
 20
178.921907
 30
0.0
 10
468.441946
 20
169.393985
 30
0.0
 10
458.914024
 20
185.896830
 30
0.0
 10
475.416869
 20
195.424752
 30
0.0
 10
484.944791
 20
178.921907
 30
0.0
  0
LWPOLYLINE
  5
15d
100
AcDbEntity
  8
0
 62
7
100
AcDbPolyline
 90
4
 70
1
 10
457.742743
 20
206.981393
 30
0.0
 10
470.188150
 20
199.796034
 30
0.0
 10
457.742743
 20
192.610674
 30
0.0
 10
457.742743
 20
206.981393
 30
0.0
  0
LWPOLYLINE
  5
15e
100
AcDbEntity
  8
0
 62
7
100
AcDbPolyline
 90
4
 70
1
 10
496.501432
 20
196.596034
 30
0.0
 10
489.316072
 20
184.150626
 30
0.0
 10
482.130713
 20
196.596034
 30
0.0
 10
496.501432
 20
196.596034
 30
0.0
  0
LWPOLYLINE
  5
15f
100
AcDbEntity
  8
0
 62
7
100
AcDbPolyline
 90
5
 70
1
 10
519.718121
 20
144.148577
 30
0.0
 10
503.215276
 20
134.620655
 30
0.0
 10
493.687354
 20
151.123500
 30
0.0
 10
510.190199
 20
160.651423
 30
0.0
 10
519.718121
 20
144.148577
 30
0.0
  0
LWPOLYLINE
  5
160
100
AcDbEntity
  8
0
 62
7
100
AcDbPolyline
 90
5
 70
1
 10
519.718121
 20
185.896830
 30
0.0
 10
510.190199
 20
169.393985
 30
0.0
 10
493.687354
 20
178.921907
 30
0.0
 10
503.215276
 20
195.424752
 30
0.0
 10
519.718121
 20
185.896830
 30
0.0
  0
LWPOLYLINE
  5
161
100
AcDbEntity
  8
0
 62
7
100
AcDbPolyline
 90
4
 70
1
 10
492.516072
 20
172.208063
 30
0.0
 10
504.961480
 20
165.022704
 30
0.0
 10
492.516072
 20
157.837344
 30
0.0
 10
492.516072
 20
172.208063
 30
0.0
  0
LWPOLYLINE
  5
162
100
AcDbEntity
  8
0
 62
7
100
AcDbPolyline
 90
4
 70
1
 10
531.274762
 20
161.822704
 30
0.0
 10
524.089402
 20
149.377296
 30
0.0
 10
516.904043
 20
161.822704
 30
0.0
 10
531.274762
 20
161.822704
 30
0.0
  0
LWPOLYLINE
  5
163
100
AcDbEntity
  8
0
 62
7
100
AcDbPolyline
 90
4
 70
1
 10
524.089402
 20
180.668112
 30
0.0
 10
531.274762
 20
168.222704
 30
0.0
 10
516.904043
 20
168.222704
 30
0.0
 10
524.089402
 20
180.668112
 30
0.0
  0
LWPOLYLINE
  5
164
100
AcDbEntity
  8
0
 62
7
100
AcDbPolyline
 90
4
 70
1
 10
520.889402
 20
192.610674
 30
0.0
 10
508.443994
 20
199.796034
 30
0.0
 10
520.889402
 20
206.981393
 30
0.0
 10
520.889402
 20
192.610674
 30
0.0
  0
LWPOLYLINE
  5
165
100
AcDbEntity
  8
0
 62
7
100
AcDbPolyline
 90
5
 70
1
 10
554.491451
 20
109.375248
 30
0.0
 10
537.988605
 20
99.847326
 30
0.0
 10
528.460683
 20
116.350171
 30
0.0
 10
544.963528
 20
125.878093
 30
0.0
 10
554.491451
 20
109.375248
 30
0.0
  0
LWPOLYLINE
  5
166
100
AcDbEntity
  8
0
 62
7
100
AcDbPolyline
 90
5
 70
1
 10
554.491451
 20
151.123500
 30
0.0
 10
544.963528
 20
134.620655
 30
0.0
 10
528.460683
 20
144.148577
 30
0.0
 10
537.988605
 20
160.651423
 30
0.0
 10
554.491451
 20
151.123500
 30
0.0
  0
LWPOLYLINE
  5
167
100
AcDbEntity
  8
0
 62
7
100
AcDbPolyline
 90
4
 70
1
 10
527.289402
 20
137.434734
 30
0.0
 10
539.734810
 20
130.249374
 30
0.0
 10
527.289402
 20
123.064015
 30
0.0
 10
527.289402
 20
137.434734
 30
0.0
  0
LWPOLYLINE
  5
168
100
AcDbEntity
  8
0
 62
7
100
AcDbPolyline
 90
4
 70
1
 10
566.048091
 20
127.049374
 30
0.0
 10
558.862732
 20
114.603966
 30
0.0
 10
551.677372
 20
127.049374
 30
0.0
 10
566.048091
 20
127.049374
 30
0.0
  0
LWPOLYLINE
  5
169
100
AcDbEntity
  8
0
 62
7
100
AcDbPolyline
 90
4
 70
1
 10
558.862732
 20
145.894782
 30
0.0
 10
566.048091
 20
133.449374
 30
0.0
 10
551.677372
 20
133.449374
 30
0.0
 10
558.862732
 20
145.894782
 30
0.0
  0
LWPOLYLINE
  5
16a
100
AcDbEntity
  8
0
 62
7
100
AcDbPolyline
 90
4
 70
1
 10
555.662732
 20
157.837344
 30
0.0
 10
543.217324
 20
165.022704
 30
0.0
 10
555.662732
 20
172.208063
 30
0.0
 10
555.662732
 20
157.837344
 30
0.0
  0
LWPOLYLINE
  5
16b
100
AcDbEntity
  8
0
 62
7
100
AcDbPolyline
 90
5
 70
1
 10
589.264780
 20
116.350171
 30
0.0
 10
579.736858
 20
99.847326
 30
0.0
 10
563.234013
 20
109.375248
 30
0.0
 10
572.761935
 20
125.878093
 30
0.0
 10
589.264780
 20
116.350171
 30
0.0
  0
LWPOLYLINE
  5
16c
100
AcDbEntity
  8
0
 62
7
100
AcDbPolyline
 90
4
 70
1
 10
562.062732
 20
102.661404
 30
0.0
 10
574.508140
 20
95.476044
 30
0.0
 10
562.062732
 20
88.290685
 30
0.0
 10
562.062732
 20
102.661404
 30
0.0
  0
LWPOLYLINE
  5
16d
100
AcDbEntity
  8
0
 62
7
100
AcDbPolyline
 90
4
 70
1
 10
593.636062
 20
111.121452
 30
0.0
 10
600.821421
 20
98.676044
 30
0.0
 10
586.450702
 20
98.676044
 30
0.0
 10
593.636062
 20
111.121452
 30
0.0
  0
LWPOLYLINE
  5
16e
100
AcDbEntity
  8
0
 62
7
100
AcDbPolyline
 90
4
 70
1
 10
590.436062
 20
123.064015
 30
0.0
 10
577.990654
 20
130.249374
 30
0.0
 10
590.436062
 20
137.434734
 30
0.0
 10
590.436062
 20
123.064015
 30
0.0
  0
LWPOLYLINE
  5
16f
100
AcDbEntity
  8
0
 62
7
100
AcDbPolyline
 90
4
 70
1
 10
625.209391
 20
88.290685
 30
0.0
 10
612.763984
 20
95.476044
 30
0.0
 10
625.209391
 20
102.661404
 30
0.0
 10
625.209391
 20
88.290685
 30
0.0
  0
LWPOLYLINE
  5
170
100
AcDbEntity
  8
0
 62
7
100
AcDbPolyline
 90
5
 70
1
 10
554.491451
 20
178.921907
 30
0.0
 10
537.988605
 20
169.393985
 30
0.0
 10
528.460683
 20
185.896830
 30
0.0
 10
544.963528
 20
195.424752
 30
0.0
 10
554.491451
 20
178.921907
 30
0.0
  0
LWPOLYLINE
  5
171
100
AcDbEntity
  8
0
 62
7
100
AcDbPolyline
 90
4
 70
1
 10
527.289402
 20
206.981393
 30
0.0
 10
539.734810
 20
199.796034
 30
0.0
 10
527.289402
 20
192.610674
 30
0.0
 10
527.289402
 20
206.981393
 30
0.0
  0
LWPOLYLINE
  5
172
100
AcDbEntity
  8
0
 62
7
100
AcDbPolyline
 90
4
 70
1
 10
566.048091
 20
196.596034
 30
0.0
 10
558.862732
 20
184.150626
 30
0.0
 10
551.677372
 20
196.596034
 30
0.0
 10
566.048091
 20
196.596034
 30
0.0
  0
LWPOLYLINE
  5
173
100
AcDbEntity
  8
0
 62
7
100
AcDbPolyline
 90
5
 70
1
 10
589.264780
 20
144.148577
 30
0.0
 10
572.761935
 20
134.620655
 30
0.0
 10
563.234013
 20
151.123500
 30
0.0
 10
579.736858
 20
160.651423
 30
0.0
 10
589.264780
 20
144.148577
 30
0.0
  0
LWPOLYLINE
  5
174
100
AcDbEntity
  8
0
 62
7
100
AcDbPolyline
 90
5
 70
1
 10
589.264780
 20
185.896830
 30
0.0
 10
579.736858
 20
169.393985
 30
0.0
 10
563.234013
 20
178.921907
 30
0.0
 10
572.761935
 20
195.424752
 30
0.0
 10
589.264780
 20
185.896830
 30
0.0
  0
LWPOLYLINE
  5
175
100
AcDbEntity
  8
0
 62
7
100
AcDbPolyline
 90
4
 70
1
 10
562.062732
 20
172.208063
 30
0.0
 10
574.508140
 20
165.022704
 30
0.0
 10
562.062732
 20
157.837344
 30
0.0
 10
562.062732
 20
172.208063
 30
0.0
  0
LWPOLYLINE
  5
176
100
AcDbEntity
  8
0
 62
7
100
AcDbPolyline
 90
4
 70
1
 10
600.821421
 20
161.822704
 30
0.0
 10
593.636062
 20
149.377296
 30
0.0
 10
586.450702
 20
161.822704
 30
0.0
 10
600.821421
 20
161.822704
 30
0.0
  0
LWPOLYLINE
  5
177
100
AcDbEntity
  8
0
 62
7
100
AcDbPolyline
 90
4
 70
1
 10
593.636062
 20
180.668112
 30
0.0
 10
600.821421
 20
168.222704
 30
0.0
 10
586.450702
 20
168.222704
 30
0.0
 10
593.636062
 20
180.668112
 30
0.0
  0
LWPOLYLINE
  5
178
100
AcDbEntity
  8
0
 62
7
100
AcDbPolyline
 90
4
 70
1
 10
590.436062
 20
192.610674
 30
0.0
 10
577.990654
 20
199.796034
 30
0.0
 10
590.436062
 20
206.981393
 30
0.0
 10
590.436062
 20
192.610674
 30
0.0
  0
LWPOLYLINE
  5
179
100
AcDbEntity
  8
0
 62
7
100
AcDbPolyline
 90
5
 70
1
 10
624.038110
 20
109.375248
 30
0.0
 10
607.535265
 20
99.847326
 30
0.0
 10
598.007343
 20
116.350171
 30
0.0
 10
614.510188
 20
125.878093
 30
0.0
 10
624.038110
 20
109.375248
 30
0.0
  0
LWPOLYLINE
  5
17a
100
AcDbEntity
  8
0
 62
7
100
AcDbPolyline
 90
5
 70
1
 10
624.038110
 20
151.123500
 30
0.0
 10
614.510188
 20
134.620655
 30
0.0
 10
598.007343
 20
144.148577
 30
0.0
 10
607.535265
 20
160.651423
 30
0.0
 10
624.038110
 20
151.123500
 30
0.0
  0
LWPOLYLINE
  5
17b
100
AcDbEntity
  8
0
 62
7
100
AcDbPolyline
 90
4
 70
1
 10
596.836062
 20
137.434734
 30
0.0
 10
609.281469
 20
130.249374
 30
0.0
 10
596.836062
 20
123.064015
 30
0.0
 10
596.836062
 20
137.434734
 30
0.0
  0
LWPOLYLINE
  5
17c
100
AcDbEntity
  8
0
 62
7
100
AcDbPolyline
 90
4
 70
1
 10
635.594751
 20
127.049374
 30
0.0
 10
628.409391
 20
114.603966
 30
0.0
 10
621.224032
 20
127.049374
 30
0.0
 10
635.594751
 20
127.049374
 30
0.0
  0
LWPOLYLINE
  5
17d
100
AcDbEntity
  8
0
 62
7
100
AcDbPolyline
 90
4
 70
1
 10
628.409391
 20
145.894782
 30
0.0
 10
635.594751
 20
133.449374
 30
0.0
 10
621.224032
 20
133.449374
 30
0.0
 10
628.409391
 20
145.894782
 30
0.0
  0
LWPOLYLINE
  5
17e
100
AcDbEntity
  8
0
 62
7
100
AcDbPolyline
 90
4
 70
1
 10
625.209391
 20
157.837344
 30
0.0
 10
612.763984
 20
165.022704
 30
0.0
 10
625.209391
 20
172.208063
 30
0.0
 10
625.209391
 20
157.837344
 30
0.0
  0
LWPOLYLINE
  5
17f
100
AcDbEntity
  8
0
 62
7
100
AcDbPolyline
 90
5
 70
1
 10
658.811440
 20
116.350171
 30
0.0
 10
649.283518
 20
99.847326
 30
0.0
 10
632.780673
 20
109.375248
 30
0.0
 10
642.308595
 20
125.878093
 30
0.0
 10
658.811440
 20
116.350171
 30
0.0
  0
LWPOLYLINE
  5
180
100
AcDbEntity
  8
0
 62
7
100
AcDbPolyline
 90
4
 70
1
 10
631.609391
 20
102.661404
 30
0.0
 10
644.054799
 20
95.476044
 30
0.0
 10
631.609391
 20
88.290685
 30
0.0
 10
631.609391
 20
102.661404
 30
0.0
  0
LWPOLYLINE
  5
181
100
AcDbEntity
  8
0
 62
7
100
AcDbPolyline
 90
4
 70
1
 10
663.182721
 20
111.121452
 30
0.0
 10
670.368081
 20
98.676044
 30
0.0
 10
655.997362
 20
98.676044
 30
0.0
 10
663.182721
 20
111.121452
 30
0.0
  0
LWPOLYLINE
  5
182
100
AcDbEntity
  8
0
 62
7
100
AcDbPolyline
 90
4
 70
1
 10
659.982721
 20
123.064015
 30
0.0
 10
647.537313
 20
130.249374
 30
0.0
 10
659.982721
 20
137.434734
 30
0.0
 10
659.982721
 20
123.064015
 30
0.0
  0
LWPOLYLINE
  5
183
100
AcDbEntity
  8
0
 62
7
100
AcDbPolyline
 90
4
 70
1
 10
694.756051
 20
88.290685
 30
0.0
 10
682.310643
 20
95.476044
 30
0.0
 10
694.756051
 20
102.661404
 30
0.0
 10
694.756051
 20
88.290685
 30
0.0
  0
LWPOLYLINE
  5
184
100
AcDbEntity
  8
0
 62
7
100
AcDbPolyline
 90
5
 70
1
 10
624.038110
 20
178.921907
 30
0.0
 10
607.535265
 20
169.393985
 30
0.0
 10
598.007343
 20
185.896830
 30
0.0
 10
614.510188
 20
195.424752
 30
0.0
 10
624.038110
 20
178.921907
 30
0.0
  0
LWPOLYLINE
  5
185
100
AcDbEntity
  8
0
 62
7
100
AcDbPolyline
 90
4
 70
1
 10
596.836062
 20
206.981393
 30
0.0
 10
609.281469
 20
199.796034
 30
0.0
 10
596.836062
 20
192.610674
 30
0.0
 10
596.836062
 20
206.981393
 30
0.0
  0
LWPOLYLINE
  5
186
100
AcDbEntity
  8
0
 62
7
100
AcDbPolyline
 90
4
 70
1
 10
635.594751
 20
196.596034
 30
0.0
 10
628.409391
 20
184.150626
 30
0.0
 10
621.224032
 20
196.596034
 30
0.0
 10
635.594751
 20
196.596034
 30
0.0
  0
LWPOLYLINE
  5
187
100
AcDbEntity
  8
0
 62
7
100
AcDbPolyline
 90
5
 70
1
 10
658.811440
 20
144.148577
 30
0.0
 10
642.308595
 20
134.620655
 30
0.0
 10
632.780673
 20
151.123500
 30
0.0
 10
649.283518
 20
160.651423
 30
0.0
 10
658.811440
 20
144.148577
 30
0.0
  0
LWPOLYLINE
  5
188
100
AcDbEntity
  8
0
 62
7
100
AcDbPolyline
 90
5
 70
1
 10
658.811440
 20
185.896830
 30
0.0
 10
649.283518
 20
169.393985
 30
0.0
 10
632.780673
 20
178.921907
 30
0.0
 10
642.308595
 20
195.424752
 30
0.0
 10
658.811440
 20
185.896830
 30
0.0
  0
LWPOLYLINE
  5
189
100
AcDbEntity
  8
0
 62
7
100
AcDbPolyline
 90
4
 70
1
 10
631.609391
 20
172.208063
 30
0.0
 10
644.054799
 20
165.022704
 30
0.0
 10
631.609391
 20
157.837344
 30
0.0
 10
631.609391
 20
172.208063
 30
0.0
  0
LWPOLYLINE
  5
18a
100
AcDbEntity
  8
0
 62
7
100
AcDbPolyline
 90
4
 70
1
 10
670.368081
 20
161.822704
 30
0.0
 10
663.182721
 20
149.377296
 30
0.0
 10
655.997362
 20
161.822704
 30
0.0
 10
670.368081
 20
161.822704
 30
0.0
  0
LWPOLYLINE
  5
18b
100
AcDbEntity
  8
0
 62
7
100
AcDbPolyline
 90
4
 70
1
 10
663.182721
 20
180.668112
 30
0.0
 10
670.368081
 20
168.222704
 30
0.0
 10
655.997362
 20
168.222704
 30
0.0
 10
663.182721
 20
180.668112
 30
0.0
  0
LWPOLYLINE
  5
18c
100
AcDbEntity
  8
0
 62
7
100
AcDbPolyline
 90
4
 70
1
 10
659.982721
 20
192.610674
 30
0.0
 10
647.537313
 20
199.796034
 30
0.0
 10
659.982721
 20
206.981393
 30
0.0
 10
659.982721
 20
192.610674
 30
0.0
  0
LWPOLYLINE
  5
18d
100
AcDbEntity
  8
0
 62
7
100
AcDbPolyline
 90
5
 70
1
 10
693.584770
 20
109.375248
 30
0.0
 10
677.081924
 20
99.847326
 30
0.0
 10
667.554002
 20
116.350171
 30
0.0
 10
684.056847
 20
125.878093
 30
0.0
 10
693.584770
 20
109.375248
 30
0.0
  0
LWPOLYLINE
  5
18e
100
AcDbEntity
  8
0
 62
7
100
AcDbPolyline
 90
5
 70
1
 10
693.584770
 20
151.123500
 30
0.0
 10
684.056847
 20
134.620655
 30
0.0
 10
667.554002
 20
144.148577
 30
0.0
 10
677.081924
 20
160.651423
 30
0.0
 10
693.584770
 20
151.123500
 30
0.0
  0
LWPOLYLINE
  5
18f
100
AcDbEntity
  8
0
 62
7
100
AcDbPolyline
 90
4
 70
1
 10
666.382721
 20
137.434734
 30
0.0
 10
678.828129
 20
130.249374
 30
0.0
 10
666.382721
 20
123.064015
 30
0.0
 10
666.382721
 20
137.434734
 30
0.0
  0
LWPOLYLINE
  5
190
100
AcDbEntity
  8
0
 62
7
100
AcDbPolyline
 90
4
 70
1
 10
705.141410
 20
127.049374
 30
0.0
 10
697.956051
 20
114.603966
 30
0.0
 10
690.770691
 20
127.049374
 30
0.0
 10
705.141410
 20
127.049374
 30
0.0
  0
LWPOLYLINE
  5
191
100
AcDbEntity
  8
0
 62
7
100
AcDbPolyline
 90
4
 70
1
 10
697.956051
 20
145.894782
 30
0.0
 10
705.141410
 20
133.449374
 30
0.0
 10
690.770691
 20
133.449374
 30
0.0
 10
697.956051
 20
145.894782
 30
0.0
  0
LWPOLYLINE
  5
192
100
AcDbEntity
  8
0
 62
7
100
AcDbPolyline
 90
4
 70
1
 10
694.756051
 20
157.837344
 30
0.0
 10
682.310643
 20
165.022704
 30
0.0
 10
694.756051
 20
172.208063
 30
0.0
 10
694.756051
 20
157.837344
 30
0.0
  0
LWPOLYLINE
  5
193
100
AcDbEntity
  8
0
 62
7
100
AcDbPolyline
 90
5
 70
1
 10
728.358099
 20
116.350171
 30
0.0
 10
718.830177
 20
99.847326
 30
0.0
 10
702.327332
 20
109.375248
 30
0.0
 10
711.855254
 20
125.878093
 30
0.0
 10
728.358099
 20
116.350171
 30
0.0
  0
LWPOLYLINE
  5
194
100
AcDbEntity
  8
0
 62
7
100
AcDbPolyline
 90
4
 70
1
 10
701.156051
 20
102.661404
 30
0.0
 10
713.601458
 20
95.476044
 30
0.0
 10
701.156051
 20
88.290685
 30
0.0
 10
701.156051
 20
102.661404
 30
0.0
  0
LWPOLYLINE
  5
195
100
AcDbEntity
  8
0
 62
7
100
AcDbPolyline
 90
4
 70
1
 10
732.729381
 20
111.121452
 30
0.0
 10
739.914740
 20
98.676044
 30
0.0
 10
725.544021
 20
98.676044
 30
0.0
 10
732.729381
 20
111.121452
 30
0.0
  0
LWPOLYLINE
  5
196
100
AcDbEntity
  8
0
 62
7
100
AcDbPolyline
 90
4
 70
1
 10
729.529381
 20
123.064015
 30
0.0
 10
717.083973
 20
130.249374
 30
0.0
 10
729.529381
 20
137.434734
 30
0.0
 10
729.529381
 20
123.064015
 30
0.0
  0
LWPOLYLINE
  5
197
100
AcDbEntity
  8
0
 62
7
100
AcDbPolyline
 90
4
 70
1
 10
764.302710
 20
88.290685
 30
0.0
 10
751.857303
 20
95.476044
 30
0.0
 10
764.302710
 20
102.661404
 30
0.0
 10
764.302710
 20
88.290685
 30
0.0
  0
LWPOLYLINE
  5
198
100
AcDbEntity
  8
0
 62
7
100
AcDbPolyline
 90
5
 70
1
 10
693.584770
 20
178.921907
 30
0.0
 10
677.081924
 20
169.393985
 30
0.0
 10
667.554002
 20
185.896830
 30
0.0
 10
684.056847
 20
195.424752
 30
0.0
 10
693.584770
 20
178.921907
 30
0.0
  0
LWPOLYLINE
  5
199
100
AcDbEntity
  8
0
 62
7
100
AcDbPolyline
 90
4
 70
1
 10
666.382721
 20
206.981393
 30
0.0
 10
678.828129
 20
199.796034
 30
0.0
 10
666.382721
 20
192.610674
 30
0.0
 10
666.382721
 20
206.981393
 30
0.0
  0
LWPOLYLINE
  5
19a
100
AcDbEntity
  8
0
 62
7
100
AcDbPolyline
 90
4
 70
1
 10
705.141410
 20
196.596034
 30
0.0
 10
697.956051
 20
184.150626
 30
0.0
 10
690.770691
 20
196.596034
 30
0.0
 10
705.141410
 20
196.596034
 30
0.0
  0
LWPOLYLINE
  5
19b
100
AcDbEntity
  8
0
 62
7
100
AcDbPolyline
 90
5
 70
1
 10
728.358099
 20
144.148577
 30
0.0
 10
711.855254
 20
134.620655
 30
0.0
 10
702.327332
 20
151.123500
 30
0.0
 10
718.830177
 20
160.651423
 30
0.0
 10
728.358099
 20
144.148577
 30
0.0
  0
LWPOLYLINE
  5
19c
100
AcDbEntity
  8
0
 62
7
100
AcDbPolyline
 90
5
 70
1
 10
728.358099
 20
185.896830
 30
0.0
 10
718.830177
 20
169.393985
 30
0.0
 10
702.327332
 20
178.921907
 30
0.0
 10
711.855254
 20
195.424752
 30
0.0
 10
728.358099
 20
185.896830
 30
0.0
  0
LWPOLYLINE
  5
19d
100
AcDbEntity
  8
0
 62
7
100
AcDbPolyline
 90
4
 70
1
 10
701.156051
 20
172.208063
 30
0.0
 10
713.601458
 20
165.022704
 30
0.0
 10
701.156051
 20
157.837344
 30
0.0
 10
701.156051
 20
172.208063
 30
0.0
  0
LWPOLYLINE
  5
19e
100
AcDbEntity
  8
0
 62
7
100
AcDbPolyline
 90
4
 70
1
 10
739.914740
 20
161.822704
 30
0.0
 10
732.729381
 20
149.377296
 30
0.0
 10
725.544021
 20
161.822704
 30
0.0
 10
739.914740
 20
161.822704
 30
0.0
  0
LWPOLYLINE
  5
19f
100
AcDbEntity
  8
0
 62
7
100
AcDbPolyline
 90
4
 70
1
 10
732.729381
 20
180.668112
 30
0.0
 10
739.914740
 20
168.222704
 30
0.0
 10
725.544021
 20
168.222704
 30
0.0
 10
732.729381
 20
180.668112
 30
0.0
  0
LWPOLYLINE
  5
1a0
100
AcDbEntity
  8
0
 62
7
100
AcDbPolyline
 90
4
 70
1
 10
729.529381
 20
192.610674
 30
0.0
 10
717.083973
 20
199.796034
 30
0.0
 10
729.529381
 20
206.981393
 30
0.0
 10
729.529381
 20
192.610674
 30
0.0
  0
LWPOLYLINE
  5
1a1
100
AcDbEntity
  8
0
 62
7
100
AcDbPolyline
 90
5
 70
1
 10
763.131429
 20
109.375248
 30
0.0
 10
746.628584
 20
99.847326
 30
0.0
 10
737.100662
 20
116.350171
 30
0.0
 10
753.603507
 20
125.878093
 30
0.0
 10
763.131429
 20
109.375248
 30
0.0
  0
LWPOLYLINE
  5
1a2
100
AcDbEntity
  8
0
 62
7
100
AcDbPolyline
 90
5
 70
1
 10
763.131429
 20
151.123500
 30
0.0
 10
753.603507
 20
134.620655
 30
0.0
 10
737.100662
 20
144.148577
 30
0.0
 10
746.628584
 20
160.651423
 30
0.0
 10
763.131429
 20
151.123500
 30
0.0
  0
LWPOLYLINE
  5
1a3
100
AcDbEntity
  8
0
 62
7
100
AcDbPolyline
 90
4
 70
1
 10
735.929381
 20
137.434734
 30
0.0
 10
748.374788
 20
130.249374
 30
0.0
 10
735.929381
 20
123.064015
 30
0.0
 10
735.929381
 20
137.434734
 30
0.0
  0
LWPOLYLINE
  5
1a4
100
AcDbEntity
  8
0
 62
7
100
AcDbPolyline
 90
4
 70
1
 10
774.688070
 20
127.049374
 30
0.0
 10
767.502710
 20
114.603966
 30
0.0
 10
760.317351
 20
127.049374
 30
0.0
 10
774.688070
 20
127.049374
 30
0.0
  0
LWPOLYLINE
  5
1a5
100
AcDbEntity
  8
0
 62
7
100
AcDbPolyline
 90
4
 70
1
 10
767.502710
 20
145.894782
 30
0.0
 10
774.688070
 20
133.449374
 30
0.0
 10
760.317351
 20
133.449374
 30
0.0
 10
767.502710
 20
145.894782
 30
0.0
  0
LWPOLYLINE
  5
1a6
100
AcDbEntity
  8
0
 62
7
100
AcDbPolyline
 90
4
 70
1
 10
764.302710
 20
157.837344
 30
0.0
 10
751.857303
 20
165.022704
 30
0.0
 10
764.302710
 20
172.208063
 30
0.0
 10
764.302710
 20
157.837344
 30
0.0
  0
LWPOLYLINE
  5
1a7
100
AcDbEntity
  8
0
 62
7
100
AcDbPolyline
 90
5
 70
1
 10
797.904759
 20
116.350171
 30
0.0
 10
788.376837
 20
99.847326
 30
0.0
 10
771.873992
 20
109.375248
 30
0.0
 10
781.401914
 20
125.878093
 30
0.0
 10
797.904759
 20
116.350171
 30
0.0
  0
LWPOLYLINE
  5
1a8
100
AcDbEntity
  8
0
 62
7
100
AcDbPolyline
 90
4
 70
1
 10
770.702710
 20
102.661404
 30
0.0
 10
783.148118
 20
95.476044
 30
0.0
 10
770.702710
 20
88.290685
 30
0.0
 10
770.702710
 20
102.661404
 30
0.0
  0
LWPOLYLINE
  5
1a9
100
AcDbEntity
  8
0
 62
7
100
AcDbPolyline
 90
4
 70
1
 10
802.276040
 20
111.121452
 30
0.0
 10
809.461400
 20
98.676044
 30
0.0
 10
795.090681
 20
98.676044
 30
0.0
 10
802.276040
 20
111.121452
 30
0.0
  0
LWPOLYLINE
  5
1aa
100
AcDbEntity
  8
0
 62
7
100
AcDbPolyline
 90
4
 70
1
 10
799.076040
 20
123.064015
 30
0.0
 10
786.630632
 20
130.249374
 30
0.0
 10
799.076040
 20
137.434734
 30
0.0
 10
799.076040
 20
123.064015
 30
0.0
  0
LWPOLYLINE
  5
1ab
100
AcDbEntity
  8
0
 62
7
100
AcDbPolyline
 90
4
 70
1
 10
833.849370
 20
88.290685
 30
0.0
 10
821.403962
 20
95.476044
 30
0.0
 10
833.849370
 20
102.661404
 30
0.0
 10
833.849370
 20
88.290685
 30
0.0
  0
LWPOLYLINE
  5
1ac
100
AcDbEntity
  8
0
 62
7
100
AcDbPolyline
 90
5
 70
1
 10
763.131429
 20
178.921907
 30
0.0
 10
746.628584
 20
169.393985
 30
0.0
 10
737.100662
 20
185.896830
 30
0.0
 10
753.603507
 20
195.424752
 30
0.0
 10
763.131429
 20
178.921907
 30
0.0
  0
LWPOLYLINE
  5
1ad
100
AcDbEntity
  8
0
 62
7
100
AcDbPolyline
 90
4
 70
1
 10
735.929381
 20
206.981393
 30
0.0
 10
748.374788
 20
199.796034
 30
0.0
 10
735.929381
 20
192.610674
 30
0.0
 10
735.929381
 20
206.981393
 30
0.0
  0
LWPOLYLINE
  5
1ae
100
AcDbEntity
  8
0
 62
7
100
AcDbPolyline
 90
4
 70
1
 10
774.688070
 20
196.596034
 30
0.0
 10
767.502710
 20
184.150626
 30
0.0
 10
760.317351
 20
196.596034
 30
0.0
 10
774.688070
 20
196.596034
 30
0.0
  0
LWPOLYLINE
  5
1af
100
AcDbEntity
  8
0
 62
7
100
AcDbPolyline
 90
5
 70
1
 10
797.904759
 20
144.148577
 30
0.0
 10
781.401914
 20
134.620655
 30
0.0
 10
771.873992
 20
151.123500
 30
0.0
 10
788.376837
 20
160.651423
 30
0.0
 10
797.904759
 20
144.148577
 30
0.0
  0
LWPOLYLINE
  5
1b0
100
AcDbEntity
  8
0
 62
7
100
AcDbPolyline
 90
5
 70
1
 10
797.904759
 20
185.896830
 30
0.0
 10
788.376837
 20
169.393985
 30
0.0
 10
771.873992
 20
178.921907
 30
0.0
 10
781.401914
 20
195.424752
 30
0.0
 10
797.904759
 20
185.896830
 30
0.0
  0
LWPOLYLINE
  5
1b1
100
AcDbEntity
  8
0
 62
7
100
AcDbPolyline
 90
4
 70
1
 10
770.702710
 20
172.208063
 30
0.0
 10
783.148118
 20
165.022704
 30
0.0
 10
770.702710
 20
157.837344
 30
0.0
 10
770.702710
 20
172.208063
 30
0.0
  0
LWPOLYLINE
  5
1b2
100
AcDbEntity
  8
0
 62
7
100
AcDbPolyline
 90
4
 70
1
 10
809.461400
 20
161.822704
 30
0.0
 10
802.276040
 20
149.377296
 30
0.0
 10
795.090681
 20
161.822704
 30
0.0
 10
809.461400
 20
161.822704
 30
0.0
  0
LWPOLYLINE
  5
1b3
100
AcDbEntity
  8
0
 62
7
100
AcDbPolyline
 90
4
 70
1
 10
802.276040
 20
180.668112
 30
0.0
 10
809.461400
 20
168.222704
 30
0.0
 10
795.090681
 20
168.222704
 30
0.0
 10
802.276040
 20
180.668112
 30
0.0
  0
LWPOLYLINE
  5
1b4
100
AcDbEntity
  8
0
 62
7
100
AcDbPolyline
 90
4
 70
1
 10
799.076040
 20
192.610674
 30
0.0
 10
786.630632
 20
199.796034
 30
0.0
 10
799.076040
 20
206.981393
 30
0.0
 10
799.076040
 20
192.610674
 30
0.0
  0
LWPOLYLINE
  5
1b5
100
AcDbEntity
  8
0
 62
7
100
AcDbPolyline
 90
5
 70
1
 10
832.678088
 20
109.375248
 30
0.0
 10
816.175243
 20
99.847326
 30
0.0
 10
806.647321
 20
116.350171
 30
0.0
 10
823.150166
 20
125.878093
 30
0.0
 10
832.678088
 20
109.375248
 30
0.0
  0
LWPOLYLINE
  5
1b6
100
AcDbEntity
  8
0
 62
7
100
AcDbPolyline
 90
5
 70
1
 10
832.678088
 20
151.123500
 30
0.0
 10
823.150166
 20
134.620655
 30
0.0
 10
806.647321
 20
144.148577
 30
0.0
 10
816.175243
 20
160.651423
 30
0.0
 10
832.678088
 20
151.123500
 30
0.0
  0
LWPOLYLINE
  5
1b7
100
AcDbEntity
  8
0
 62
7
100
AcDbPolyline
 90
4
 70
1
 10
805.476040
 20
137.434734
 30
0.0
 10
817.921448
 20
130.249374
 30
0.0
 10
805.476040
 20
123.064015
 30
0.0
 10
805.476040
 20
137.434734
 30
0.0
  0
LWPOLYLINE
  5
1b8
100
AcDbEntity
  8
0
 62
7
100
AcDbPolyline
 90
4
 70
1
 10
844.234729
 20
127.049374
 30
0.0
 10
837.049370
 20
114.603966
 30
0.0
 10
829.864010
 20
127.049374
 30
0.0
 10
844.234729
 20
127.049374
 30
0.0
  0
LWPOLYLINE
  5
1b9
100
AcDbEntity
  8
0
 62
7
100
AcDbPolyline
 90
4
 70
1
 10
837.049370
 20
145.894782
 30
0.0
 10
844.234729
 20
133.449374
 30
0.0
 10
829.864010
 20
133.449374
 30
0.0
 10
837.049370
 20
145.894782
 30
0.0
  0
LWPOLYLINE
  5
1ba
100
AcDbEntity
  8
0
 62
7
100
AcDbPolyline
 90
4
 70
1
 10
833.849370
 20
157.837344
 30
0.0
 10
821.403962
 20
165.022704
 30
0.0
 10
833.849370
 20
172.208063
 30
0.0
 10
833.849370
 20
157.837344
 30
0.0
  0
LWPOLYLINE
  5
1bb
100
AcDbEntity
  8
0
 62
7
100
AcDbPolyline
 90
5
 70
1
 10
867.451418
 20
116.350171
 30
0.0
 10
857.923496
 20
99.847326
 30
0.0
 10
841.420651
 20
109.375248
 30
0.0
 10
850.948573
 20
125.878093
 30
0.0
 10
867.451418
 20
116.350171
 30
0.0
  0
LWPOLYLINE
  5
1bc
100
AcDbEntity
  8
0
 62
7
100
AcDbPolyline
 90
4
 70
1
 10
840.249370
 20
102.661404
 30
0.0
 10
852.694777
 20
95.476044
 30
0.0
 10
840.249370
 20
88.290685
 30
0.0
 10
840.249370
 20
102.661404
 30
0.0
  0
LWPOLYLINE
  5
1bd
100
AcDbEntity
  8
0
 62
7
100
AcDbPolyline
 90
4
 70
1
 10
871.822700
 20
111.121452
 30
0.0
 10
879.008059
 20
98.676044
 30
0.0
 10
864.637340
 20
98.676044
 30
0.0
 10
871.822700
 20
111.121452
 30
0.0
  0
LWPOLYLINE
  5
1be
100
AcDbEntity
  8
0
 62
7
100
AcDbPolyline
 90
4
 70
1
 10
868.622700
 20
123.064015
 30
0.0
 10
856.177292
 20
130.249374
 30
0.0
 10
868.622700
 20
137.434734
 30
0.0
 10
868.622700
 20
123.064015
 30
0.0
  0
LWPOLYLINE
  5
1bf
100
AcDbEntity
  8
0
 62
7
100
AcDbPolyline
 90
4
 70
1
 10
903.396029
 20
88.290685
 30
0.0
 10
890.950622
 20
95.476044
 30
0.0
 10
903.396029
 20
102.661404
 30
0.0
 10
903.396029
 20
88.290685
 30
0.0
  0
LWPOLYLINE
  5
1c0
100
AcDbEntity
  8
0
 62
7
100
AcDbPolyline
 90
5
 70
1
 10
832.678088
 20
178.921907
 30
0.0
 10
816.175243
 20
169.393985
 30
0.0
 10
806.647321
 20
185.896830
 30
0.0
 10
823.150166
 20
195.424752
 30
0.0
 10
832.678088
 20
178.921907
 30
0.0
  0
LWPOLYLINE
  5
1c1
100
AcDbEntity
  8
0
 62
7
100
AcDbPolyline
 90
4
 70
1
 10
805.476040
 20
206.981393
 30
0.0
 10
817.921448
 20
199.796034
 30
0.0
 10
805.476040
 20
192.610674
 30
0.0
 10
805.476040
 20
206.981393
 30
0.0
  0
LWPOLYLINE
  5
1c2
100
AcDbEntity
  8
0
 62
7
100
AcDbPolyline
 90
4
 70
1
 10
844.234729
 20
196.596034
 30
0.0
 10
837.049370
 20
184.150626
 30
0.0
 10
829.864010
 20
196.596034
 30
0.0
 10
844.234729
 20
196.596034
 30
0.0
  0
LWPOLYLINE
  5
1c3
100
AcDbEntity
  8
0
 62
7
100
AcDbPolyline
 90
5
 70
1
 10
867.451418
 20
144.148577
 30
0.0
 10
850.948573
 20
134.620655
 30
0.0
 10
841.420651
 20
151.123500
 30
0.0
 10
857.923496
 20
160.651423
 30
0.0
 10
867.451418
 20
144.148577
 30
0.0
  0
LWPOLYLINE
  5
1c4
100
AcDbEntity
  8
0
 62
7
100
AcDbPolyline
 90
5
 70
1
 10
867.451418
 20
185.896830
 30
0.0
 10
857.923496
 20
169.393985
 30
0.0
 10
841.420651
 20
178.921907
 30
0.0
 10
850.948573
 20
195.424752
 30
0.0
 10
867.451418
 20
185.896830
 30
0.0
  0
LWPOLYLINE
  5
1c5
100
AcDbEntity
  8
0
 62
7
100
AcDbPolyline
 90
4
 70
1
 10
840.249370
 20
172.208063
 30
0.0
 10
852.694777
 20
165.022704
 30
0.0
 10
840.249370
 20
157.837344
 30
0.0
 10
840.249370
 20
172.208063
 30
0.0
  0
LWPOLYLINE
  5
1c6
100
AcDbEntity
  8
0
 62
7
100
AcDbPolyline
 90
4
 70
1
 10
879.008059
 20
161.822704
 30
0.0
 10
871.822700
 20
149.377296
 30
0.0
 10
864.637340
 20
161.822704
 30
0.0
 10
879.008059
 20
161.822704
 30
0.0
  0
LWPOLYLINE
  5
1c7
100
AcDbEntity
  8
0
 62
7
100
AcDbPolyline
 90
4
 70
1
 10
871.822700
 20
180.668112
 30
0.0
 10
879.008059
 20
168.222704
 30
0.0
 10
864.637340
 20
168.222704
 30
0.0
 10
871.822700
 20
180.668112
 30
0.0
  0
LWPOLYLINE
  5
1c8
100
AcDbEntity
  8
0
 62
7
100
AcDbPolyline
 90
4
 70
1
 10
868.622700
 20
192.610674
 30
0.0
 10
856.177292
 20
199.796034
 30
0.0
 10
868.622700
 20
206.981393
 30
0.0
 10
868.622700
 20
192.610674
 30
0.0
  0
LWPOLYLINE
  5
1c9
100
AcDbEntity
  8
0
 62
7
100
AcDbPolyline
 90
5
 70
1
 10
902.224748
 20
109.375248
 30
0.0
 10
885.721903
 20
99.847326
 30
0.0
 10
876.193981
 20
116.350171
 30
0.0
 10
892.696826
 20
125.878093
 30
0.0
 10
902.224748
 20
109.375248
 30
0.0
  0
LWPOLYLINE
  5
1ca
100
AcDbEntity
  8
0
 62
7
100
AcDbPolyline
 90
5
 70
1
 10
902.224748
 20
151.123500
 30
0.0
 10
892.696826
 20
134.620655
 30
0.0
 10
876.193981
 20
144.148577
 30
0.0
 10
885.721903
 20
160.651423
 30
0.0
 10
902.224748
 20
151.123500
 30
0.0
  0
LWPOLYLINE
  5
1cb
100
AcDbEntity
  8
0
 62
7
100
AcDbPolyline
 90
4
 70
1
 10
875.022700
 20
137.434734
 30
0.0
 10
887.468107
 20
130.249374
 30
0.0
 10
875.022700
 20
123.064015
 30
0.0
 10
875.022700
 20
137.434734
 30
0.0
  0
LWPOLYLINE
  5
1cc
100
AcDbEntity
  8
0
 62
7
100
AcDbPolyline
 90
4
 70
1
 10
913.781389
 20
127.049374
 30
0.0
 10
906.596029
 20
114.603966
 30
0.0
 10
899.410670
 20
127.049374
 30
0.0
 10
913.781389
 20
127.049374
 30
0.0
  0
LWPOLYLINE
  5
1cd
100
AcDbEntity
  8
0
 62
7
100
AcDbPolyline
 90
4
 70
1
 10
906.596029
 20
145.894782
 30
0.0
 10
913.781389
 20
133.449374
 30
0.0
 10
899.410670
 20
133.449374
 30
0.0
 10
906.596029
 20
145.894782
 30
0.0
  0
LWPOLYLINE
  5
1ce
100
AcDbEntity
  8
0
 62
7
100
AcDbPolyline
 90
4
 70
1
 10
903.396029
 20
157.837344
 30
0.0
 10
890.950622
 20
165.022704
 30
0.0
 10
903.396029
 20
172.208063
 30
0.0
 10
903.396029
 20
157.837344
 30
0.0
  0
LWPOLYLINE
  5
1cf
100
AcDbEntity
  8
0
 62
7
100
AcDbPolyline
 90
5
 70
1
 10
936.998078
 20
116.350171
 30
0.0
 10
927.470156
 20
99.847326
 30
0.0
 10
910.967311
 20
109.375248
 30
0.0
 10
920.495233
 20
125.878093
 30
0.0
 10
936.998078
 20
116.350171
 30
0.0
  0
LWPOLYLINE
  5
1d0
100
AcDbEntity
  8
0
 62
7
100
AcDbPolyline
 90
4
 70
1
 10
909.796029
 20
102.661404
 30
0.0
 10
922.241437
 20
95.476044
 30
0.0
 10
909.796029
 20
88.290685
 30
0.0
 10
909.796029
 20
102.661404
 30
0.0
  0
LWPOLYLINE
  5
1d1
100
AcDbEntity
  8
0
 62
7
100
AcDbPolyline
 90
4
 70
1
 10
941.369359
 20
111.121452
 30
0.0
 10
948.554719
 20
98.676044
 30
0.0
 10
934.184000
 20
98.676044
 30
0.0
 10
941.369359
 20
111.121452
 30
0.0
  0
LWPOLYLINE
  5
1d2
100
AcDbEntity
  8
0
 62
7
100
AcDbPolyline
 90
4
 70
1
 10
938.169359
 20
123.064015
 30
0.0
 10
925.723951
 20
130.249374
 30
0.0
 10
938.169359
 20
137.434734
 30
0.0
 10
938.169359
 20
123.064015
 30
0.0
  0
LWPOLYLINE
  5
1d3
100
AcDbEntity
  8
0
 62
7
100
AcDbPolyline
 90
4
 70
1
 10
972.942689
 20
88.290685
 30
0.0
 10
960.497281
 20
95.476044
 30
0.0
 10
972.942689
 20
102.661404
 30
0.0
 10
972.942689
 20
88.290685
 30
0.0
  0
LWPOLYLINE
  5
1d4
100
AcDbEntity
  8
0
 62
7
100
AcDbPolyline
 90
5
 70
1
 10
902.224748
 20
178.921907
 30
0.0
 10
885.721903
 20
169.393985
 30
0.0
 10
876.193981
 20
185.896830
 30
0.0
 10
892.696826
 20
195.424752
 30
0.0
 10
902.224748
 20
178.921907
 30
0.0
  0
LWPOLYLINE
  5
1d5
100
AcDbEntity
  8
0
 62
7
100
AcDbPolyline
 90
4
 70
1
 10
875.022700
 20
206.981393
 30
0.0
 10
887.468107
 20
199.796034
 30
0.0
 10
875.022700
 20
192.610674
 30
0.0
 10
875.022700
 20
206.981393
 30
0.0
  0
LWPOLYLINE
  5
1d6
100
AcDbEntity
  8
0
 62
7
100
AcDbPolyline
 90
4
 70
1
 10
913.781389
 20
196.596034
 30
0.0
 10
906.596029
 20
184.150626
 30
0.0
 10
899.410670
 20
196.596034
 30
0.0
 10
913.781389
 20
196.596034
 30
0.0
  0
LWPOLYLINE
  5
1d7
100
AcDbEntity
  8
0
 62
7
100
AcDbPolyline
 90
5
 70
1
 10
936.998078
 20
144.148577
 30
0.0
 10
920.495233
 20
134.620655
 30
0.0
 10
910.967311
 20
151.123500
 30
0.0
 10
927.470156
 20
160.651423
 30
0.0
 10
936.998078
 20
144.148577
 30
0.0
  0
LWPOLYLINE
  5
1d8
100
AcDbEntity
  8
0
 62
7
100
AcDbPolyline
 90
5
 70
1
 10
936.998078
 20
185.896830
 30
0.0
 10
927.470156
 20
169.393985
 30
0.0
 10
910.967311
 20
178.921907
 30
0.0
 10
920.495233
 20
195.424752
 30
0.0
 10
936.998078
 20
185.896830
 30
0.0
  0
LWPOLYLINE
  5
1d9
100
AcDbEntity
  8
0
 62
7
100
AcDbPolyline
 90
4
 70
1
 10
909.796029
 20
172.208063
 30
0.0
 10
922.241437
 20
165.022704
 30
0.0
 10
909.796029
 20
157.837344
 30
0.0
 10
909.796029
 20
172.208063
 30
0.0
  0
LWPOLYLINE
  5
1da
100
AcDbEntity
  8
0
 62
7
100
AcDbPolyline
 90
4
 70
1
 10
948.554719
 20
161.822704
 30
0.0
 10
941.369359
 20
149.377296
 30
0.0
 10
934.184000
 20
161.822704
 30
0.0
 10
948.554719
 20
161.822704
 30
0.0
  0
LWPOLYLINE
  5
1db
100
AcDbEntity
  8
0
 62
7
100
AcDbPolyline
 90
4
 70
1
 10
941.369359
 20
180.668112
 30
0.0
 10
948.554719
 20
168.222704
 30
0.0
 10
934.184000
 20
168.222704
 30
0.0
 10
941.369359
 20
180.668112
 30
0.0
  0
LWPOLYLINE
  5
1dc
100
AcDbEntity
  8
0
 62
7
100
AcDbPolyline
 90
4
 70
1
 10
938.169359
 20
192.610674
 30
0.0
 10
925.723951
 20
199.796034
 30
0.0
 10
938.169359
 20
206.981393
 30
0.0
 10
938.169359
 20
192.610674
 30
0.0
  0
LWPOLYLINE
  5
1dd
100
AcDbEntity
  8
0
 62
7
100
AcDbPolyline
 90
5
 70
1
 10
971.771407
 20
109.375248
 30
0.0
 10
955.268562
 20
99.847326
 30
0.0
 10
945.740640
 20
116.350171
 30
0.0
 10
962.243485
 20
125.878093
 30
0.0
 10
971.771407
 20
109.375248
 30
0.0
  0
LWPOLYLINE
  5
1de
100
AcDbEntity
  8
0
 62
7
100
AcDbPolyline
 90
5
 70
1
 10
971.771407
 20
151.123500
 30
0.0
 10
962.243485
 20
134.620655
 30
0.0
 10
945.740640
 20
144.148577
 30
0.0
 10
955.268562
 20
160.651423
 30
0.0
 10
971.771407
 20
151.123500
 30
0.0
  0
LWPOLYLINE
  5
1df
100
AcDbEntity
  8
0
 62
7
100
AcDbPolyline
 90
4
 70
1
 10
944.569359
 20
137.434734
 30
0.0
 10
957.014767
 20
130.249374
 30
0.0
 10
944.569359
 20
123.064015
 30
0.0
 10
944.569359
 20
137.434734
 30
0.0
  0
LWPOLYLINE
  5
1e0
100
AcDbEntity
  8
0
 62
7
100
AcDbPolyline
 90
4
 70
1
 10
983.328048
 20
127.049374
 30
0.0
 10
976.142689
 20
114.603966
 30
0.0
 10
968.957329
 20
127.049374
 30
0.0
 10
983.328048
 20
127.049374
 30
0.0
  0
LWPOLYLINE
  5
1e1
100
AcDbEntity
  8
0
 62
7
100
AcDbPolyline
 90
4
 70
1
 10
976.142689
 20
145.894782
 30
0.0
 10
983.328048
 20
133.449374
 30
0.0
 10
968.957329
 20
133.449374
 30
0.0
 10
976.142689
 20
145.894782
 30
0.0
  0
LWPOLYLINE
  5
1e2
100
AcDbEntity
  8
0
 62
7
100
AcDbPolyline
 90
4
 70
1
 10
972.942689
 20
157.837344
 30
0.0
 10
960.497281
 20
165.022704
 30
0.0
 10
972.942689
 20
172.208063
 30
0.0
 10
972.942689
 20
157.837344
 30
0.0
  0
LWPOLYLINE
  5
1e3
100
AcDbEntity
  8
0
 62
7
100
AcDbPolyline
 90
5
 70
1
 10
1006.544737
 20
116.350171
 30
0.0
 10
997.016815
 20
99.847326
 30
0.0
 10
980.513970
 20
109.375248
 30
0.0
 10
990.041892
 20
125.878093
 30
0.0
 10
1006.544737
 20
116.350171
 30
0.0
  0
LWPOLYLINE
  5
1e4
100
AcDbEntity
  8
0
 62
7
100
AcDbPolyline
 90
4
 70
1
 10
979.342689
 20
102.661404
 30
0.0
 10
991.788096
 20
95.476044
 30
0.0
 10
979.342689
 20
88.290685
 30
0.0
 10
979.342689
 20
102.661404
 30
0.0
  0
LWPOLYLINE
  5
1e5
100
AcDbEntity
  8
0
 62
7
100
AcDbPolyline
 90
4
 70
1
 10
1010.916019
 20
111.121452
 30
0.0
 10
1018.101378
 20
98.676044
 30
0.0
 10
1003.730659
 20
98.676044
 30
0.0
 10
1010.916019
 20
111.121452
 30
0.0
  0
LWPOLYLINE
  5
1e6
100
AcDbEntity
  8
0
 62
7
100
AcDbPolyline
 90
4
 70
1
 10
1007.716019
 20
123.064015
 30
0.0
 10
995.270611
 20
130.249374
 30
0.0
 10
1007.716019
 20
137.434734
 30
0.0
 10
1007.716019
 20
123.064015
 30
0.0
  0
LWPOLYLINE
  5
1e7
100
AcDbEntity
  8
0
 62
7
100
AcDbPolyline
 90
5
 70
1
 10
971.771407
 20
178.921907
 30
0.0
 10
955.268562
 20
169.393985
 30
0.0
 10
945.740640
 20
185.896830
 30
0.0
 10
962.243485
 20
195.424752
 30
0.0
 10
971.771407
 20
178.921907
 30
0.0
  0
LWPOLYLINE
  5
1e8
100
AcDbEntity
  8
0
 62
7
100
AcDbPolyline
 90
4
 70
1
 10
944.569359
 20
206.981393
 30
0.0
 10
957.014767
 20
199.796034
 30
0.0
 10
944.569359
 20
192.610674
 30
0.0
 10
944.569359
 20
206.981393
 30
0.0
  0
LWPOLYLINE
  5
1e9
100
AcDbEntity
  8
0
 62
7
100
AcDbPolyline
 90
4
 70
1
 10
983.328048
 20
196.596034
 30
0.0
 10
976.142689
 20
184.150626
 30
0.0
 10
968.957329
 20
196.596034
 30
0.0
 10
983.328048
 20
196.596034
 30
0.0
  0
LWPOLYLINE
  5
1ea
100
AcDbEntity
  8
0
 62
7
100
AcDbPolyline
 90
5
 70
1
 10
1006.544737
 20
144.148577
 30
0.0
 10
990.041892
 20
134.620655
 30
0.0
 10
980.513970
 20
151.123500
 30
0.0
 10
997.016815
 20
160.651423
 30
0.0
 10
1006.544737
 20
144.148577
 30
0.0
  0
LWPOLYLINE
  5
1eb
100
AcDbEntity
  8
0
 62
7
100
AcDbPolyline
 90
5
 70
1
 10
1006.544737
 20
185.896830
 30
0.0
 10
997.016815
 20
169.393985
 30
0.0
 10
980.513970
 20
178.921907
 30
0.0
 10
990.041892
 20
195.424752
 30
0.0
 10
1006.544737
 20
185.896830
 30
0.0
  0
LWPOLYLINE
  5
1ec
100
AcDbEntity
  8
0
 62
7
100
AcDbPolyline
 90
4
 70
1
 10
979.342689
 20
172.208063
 30
0.0
 10
991.788096
 20
165.022704
 30
0.0
 10
979.342689
 20
157.837344
 30
0.0
 10
979.342689
 20
172.208063
 30
0.0
  0
LWPOLYLINE
  5
1ed
100
AcDbEntity
  8
0
 62
7
100
AcDbPolyline
 90
4
 70
1
 10
1018.101378
 20
161.822704
 30
0.0
 10
1010.916019
 20
149.377296
 30
0.0
 10
1003.730659
 20
161.822704
 30
0.0
 10
1018.101378
 20
161.822704
 30
0.0
  0
LWPOLYLINE
  5
1ee
100
AcDbEntity
  8
0
 62
7
100
AcDbPolyline
 90
4
 70
1
 10
1010.916019
 20
180.668112
 30
0.0
 10
1018.101378
 20
168.222704
 30
0.0
 10
1003.730659
 20
168.222704
 30
0.0
 10
1010.916019
 20
180.668112
 30
0.0
  0
LWPOLYLINE
  5
1ef
100
AcDbEntity
  8
0
 62
7
100
AcDbPolyline
 90
4
 70
1
 10
1007.716019
 20
192.610674
 30
0.0
 10
995.270611
 20
199.796034
 30
0.0
 10
1007.716019
 20
206.981393
 30
0.0
 10
1007.716019
 20
192.610674
 30
0.0
  0
LWPOLYLINE
  5
1f0
100
AcDbEntity
  8
0
 62
7
100
AcDbPolyline
 90
4
 70
1
 10
1014.116019
 20
137.434734
 30
0.0
 10
1026.561426
 20
130.249374
 30
0.0
 10
1014.116019
 20
123.064015
 30
0.0
 10
1014.116019
 20
137.434734
 30
0.0
  0
LWPOLYLINE
  5
1f1
100
AcDbEntity
  8
0
 62
7
100
AcDbPolyline
 90
4
 70
1
 10
1014.116019
 20
206.981393
 30
0.0
 10
1026.561426
 20
199.796034
 30
0.0
 10
1014.116019
 20
192.610674
 30
0.0
 10
1014.116019
 20
206.981393
 30
0.0
  0
LWPOLYLINE
  5
1f2
100
AcDbEntity
  8
0
 62
7
100
AcDbPolyline
 90
4
 70
1
 10
363.987222
 20
87.000000
 30
0.0
 10
371.096880
 20
91.104763
 30
0.0
 10
373.466766
 20
87.000000
 30
0.0
 10
363.987222
 20
87.000000
 30
0.0
  0
LWPOLYLINE
  5
1f3
100
AcDbEntity
  8
0
 62
7
100
AcDbPolyline
 90
5
 70
1
 10
424.643081
 20
207.000000
 30
0.0
 10
426.954772
 20
202.996034
 30
0.0
 10
412.584053
 20
202.996034
 30
0.0
 10
414.895744
 20
207.000000
 30
0.0
 10
424.643081
 20
207.000000
 30
0.0
  0
LWPOLYLINE
  5
1f4
100
AcDbEntity
  8
0
 62
7
100
AcDbPolyline
 90
4
 70
1
 10
466.072060
 20
87.000000
 30
0.0
 10
468.441946
 20
91.104763
 30
0.0
 10
475.551604
 20
87.000000
 30
0.0
 10
466.072060
 20
87.000000
 30
0.0
  0
LWPOLYLINE
  5
1f5
100
AcDbEntity
  8
0
 62
7
100
AcDbPolyline
 90
5
 70
1
 10
285.549762
 20
207.000000
 30
0.0
 10
287.861453
 20
202.996034
 30
0.0
 10
273.490734
 20
202.996034
 30
0.0
 10
275.802425
 20
207.000000
 30
0.0
 10
285.549762
 20
207.000000
 30
0.0
  0
LWPOLYLINE
  5
1f6
100
AcDbEntity
  8
0
 62
7
100
AcDbPolyline
 90
5
 70
1
 10
667.321955
 20
87.000000
 30
0.0
 10
659.043487
 20
87.000000
 30
0.0
 10
655.997362
 20
92.276044
 30
0.0
 10
670.368081
 20
92.276044
 30
0.0
 10
667.321955
 20
87.000000
 30
0.0
  0
LWPOLYLINE
  5
1f7
100
AcDbEntity
  8
0
 62
7
100
AcDbPolyline
 90
4
 70
1
 10
433.533881
 20
87.000000
 30
0.0
 10
440.643539
 20
91.104763
 30
0.0
 10
443.013425
 20
87.000000
 30
0.0
 10
433.533881
 20
87.000000
 30
0.0
  0
LWPOLYLINE
  5
1f8
100
AcDbEntity
  8
0
 62
7
100
AcDbPolyline
 90
4
 70
1
 10
433.668616
 20
204.167315
 30
0.0
 10
432.033165
 20
207.000000
 30
0.0
 10
438.574971
 20
207.000000
 30
0.0
 10
433.668616
 20
204.167315
 30
0.0
  0
LWPOLYLINE
  5
1f9
100
AcDbEntity
  8
0
 62
7
100
AcDbPolyline
 90
4
 70
1
 10
605.165379
 20
87.000000
 30
0.0
 10
607.535265
 20
91.104763
 30
0.0
 10
614.644923
 20
87.000000
 30
0.0
 10
605.165379
 20
87.000000
 30
0.0
  0
LWPOLYLINE
  5
1fa
100
AcDbEntity
  8
0
 62
7
100
AcDbPolyline
 90
5
 70
1
 10
945.508593
 20
87.000000
 30
0.0
 10
937.230125
 20
87.000000
 30
0.0
 10
934.184000
 20
92.276044
 30
0.0
 10
948.554719
 20
92.276044
 30
0.0
 10
945.508593
 20
87.000000
 30
0.0
  0
LWPOLYLINE
  5
1fb
100
AcDbEntity
  8
0
 62
7
100
AcDbPolyline
 90
5
 70
1
 10
772.376379
 20
207.000000
 30
0.0
 10
774.688070
 20
202.996034
 30
0.0
 10
760.317351
 20
202.996034
 30
0.0
 10
762.629042
 20
207.000000
 30
0.0
 10
772.376379
 20
207.000000
 30
0.0
  0
LWPOLYLINE
  5
1fc
100
AcDbEntity
  8
0
 62
7
100
AcDbPolyline
 90
5
 70
1
 10
563.736400
 20
207.000000
 30
0.0
 10
566.048091
 20
202.996034
 30
0.0
 10
551.677372
 20
202.996034
 30
0.0
 10
553.989063
 20
207.000000
 30
0.0
 10
563.736400
 20
207.000000
 30
0.0
  0
LWPOLYLINE
  5
1fd
100
AcDbEntity
  8
0
 62
7
100
AcDbPolyline
 90
4
 70
1
 10
642.173860
 20
87.000000
 30
0.0
 10
649.283518
 20
91.104763
 30
0.0
 10
651.653404
 20
87.000000
 30
0.0
 10
642.173860
 20
87.000000
 30
0.0
  0
LWPOLYLINE
  5
1fe
100
AcDbEntity
  8
0
 62
7
100
AcDbPolyline
 90
4
 70
1
 10
823.150166
 20
204.167315
 30
0.0
 10
818.243812
 20
207.000000
 30
0.0
 10
824.785618
 20
207.000000
 30
0.0
 10
823.150166
 20
204.167315
 30
0.0
  0
LWPOLYLINE
  5
1ff
100
AcDbEntity
  8
0
 62
7
100
AcDbPolyline
 90
4
 70
1
 10
892.696826
 20
204.167315
 30
0.0
 10
887.790471
 20
207.000000
 30
0.0
 10
894.332277
 20
207.000000
 30
0.0
 10
892.696826
 20
204.167315
 30
0.0
  0
LWPOLYLINE
  5
200
100
AcDbEntity
  8
0
 62
7
100
AcDbPolyline
 90
4
 70
1
 10
952.898676
 20
87.000000
 30
0.0
 10
955.268562
 20
91.104763
 30
0.0
 10
962.378221
 20
87.000000
 30
0.0
 10
952.898676
 20
87.000000
 30
0.0
  0
LWPOLYLINE
  5
201
100
AcDbEntity
  8
0
 62
7
100
AcDbPolyline
 90
4
 70
1
 10
503.215276
 20
204.167315
 30
0.0
 10
501.579824
 20
207.000000
 30
0.0
 10
508.121630
 20
207.000000
 30
0.0
 10
503.215276
 20
204.167315
 30
0.0
  0
LWPOLYLINE
  5
202
100
AcDbEntity
  8
0
 62
7
100
AcDbPolyline
 90
4
 70
1
 10
197.230231
 20
204.167315
 30
0.0
 10
192.323876
 20
207.000000
 30
0.0
 10
198.865683
 20
207.000000
 30
0.0
 10
197.230231
 20
204.167315
 30
0.0
  0
LWPOLYLINE
  5
203
100
AcDbEntity
  8
0
 62
7
100
AcDbPolyline
 90
5
 70
1
 10
1015.055252
 20
87.000000
 30
0.0
 10
1006.776785
 20
87.000000
 30
0.0
 10
1003.730659
 20
92.276044
 30
0.0
 10
1018.101378
 20
92.276044
 30
0.0
 10
1015.055252
 20
87.000000
 30
0.0
  0
LWPOLYLINE
  5
204
100
AcDbEntity
  8
0
 62
7
100
AcDbPolyline
 90
4
 70
1
 10
753.603507
 20
204.167315
 30
0.0
 10
748.697152
 20
207.000000
 30
0.0
 10
755.238958
 20
207.000000
 30
0.0
 10
753.603507
 20
204.167315
 30
0.0
  0
LWPOLYLINE
  5
205
100
AcDbEntity
  8
0
 62
7
100
AcDbPolyline
 90
4
 70
1
 10
535.618719
 20
87.000000
 30
0.0
 10
537.988605
 20
91.104763
 30
0.0
 10
545.098264
 20
87.000000
 30
0.0
 10
535.618719
 20
87.000000
 30
0.0
  0
LWPOLYLINE
  5
206
100
AcDbEntity
  8
0
 62
7
100
AcDbPolyline
 90
4
 70
1
 10
744.258698
 20
87.000000
 30
0.0
 10
746.628584
 20
91.104763
 30
0.0
 10
753.738242
 20
87.000000
 30
0.0
 10
744.258698
 20
87.000000
 30
0.0
  0
LWPOLYLINE
  5
207
100
AcDbEntity
  8
0
 62
7
100
AcDbPolyline
 90
5
 70
1
 10
841.923038
 20
207.000000
 30
0.0
 10
844.234729
 20
202.996034
 30
0.0
 10
829.864010
 20
202.996034
 30
0.0
 10
832.175701
 20
207.000000
 30
0.0
 10
841.923038
 20
207.000000
 30
0.0
  0
LWPOLYLINE
  5
208
100
AcDbEntity
  8
0
 62
7
100
AcDbPolyline
 90
4
 70
1
 10
850.813838
 20
87.000000
 30
0.0
 10
857.923496
 20
91.104763
 30
0.0
 10
860.293382
 20
87.000000
 30
0.0
 10
850.813838
 20
87.000000
 30
0.0
  0
LWPOLYLINE
  5
209
100
AcDbEntity
  8
0
 62
7
100
AcDbPolyline
 90
4
 70
1
 10
187.885422
 20
87.000000
 30
0.0
 10
190.255308
 20
91.104763
 30
0.0
 10
197.364966
 20
87.000000
 30
0.0
 10
187.885422
 20
87.000000
 30
0.0
  0
LWPOLYLINE
  5
20a
100
AcDbEntity
  8
0
 62
7
100
AcDbPolyline
 90
5
 70
1
 10
458.681976
 20
87.000000
 30
0.0
 10
450.403509
 20
87.000000
 30
0.0
 10
447.357383
 20
92.276044
 30
0.0
 10
461.728102
 20
92.276044
 30
0.0
 10
458.681976
 20
87.000000
 30
0.0
  0
LWPOLYLINE
  5
20b
100
AcDbEntity
  8
0
 62
7
100
AcDbPolyline
 90
5
 70
1
 10
180.495338
 20
87.000000
 30
0.0
 10
173.000023
 20
87.000000
 30
0.0
 10
173.000023
 20
92.276044
 30
0.0
 10
183.541464
 20
92.276044
 30
0.0
 10
180.495338
 20
87.000000
 30
0.0
  0
LWPOLYLINE
  5
20c
100
AcDbEntity
  8
0
 62
7
100
AcDbPolyline
 90
4
 70
1
 10
781.401914
 20
204.167315
 30
0.0
 10
779.766462
 20
207.000000
 30
0.0
 10
786.308268
 20
207.000000
 30
0.0
 10
781.401914
 20
204.167315
 30
0.0
  0
LWPOLYLINE
  5
20d
100
AcDbEntity
  8
0
 62
7
100
AcDbPolyline
 90
5
 70
1
 10
183.541464
 20
168.222704
 30
0.0
 10
173.000023
 20
168.222704
 30
0.0
 10
173.000023
 20
174.855207
 30
0.0
 10
176.356105
 20
180.668112
 30
0.0
 10
183.541464
 20
168.222704
 30
0.0
  0
LWPOLYLINE
  5
20e
100
AcDbEntity
  8
0
 62
7
100
AcDbPolyline
 90
4
 70
1
 10
990.041892
 20
204.167315
 30
0.0
 10
988.406441
 20
207.000000
 30
0.0
 10
994.948247
 20
207.000000
 30
0.0
 10
990.041892
 20
204.167315
 30
0.0
  0
LWPOLYLINE
  5
20f
100
AcDbEntity
  8
0
 62
7
100
AcDbPolyline
 90
5
 70
1
 10
183.541464
 20
98.676044
 30
0.0
 10
173.000023
 20
98.676044
 30
0.0
 10
173.000023
 20
105.308547
 30
0.0
 10
176.356105
 20
111.121452
 30
0.0
 10
183.541464
 20
98.676044
 30
0.0
  0
LWPOLYLINE
  5
210
100
AcDbEntity
  8
0
 62
7
100
AcDbPolyline
 90
4
 70
1
 10
336.323550
 20
204.167315
 30
0.0
 10
331.417195
 20
207.000000
 30
0.0
 10
337.959002
 20
207.000000
 30
0.0
 10
336.323550
 20
204.167315
 30
0.0
  0
LWPOLYLINE
  5
211
100
AcDbEntity
  8
0
 62
7
100
AcDbPolyline
 90
5
 70
1
 10
1024.815222
 20
99.847326
 30
0.0
 10
1015.287300
 20
116.350171
 30
0.0
 10
1027.000023
 20
123.112514
 30
0.0
 10
1027.000023
 20
101.108721
 30
0.0
 10
1024.815222
 20
99.847326
 30
0.0
  0
LWPOLYLINE
  5
212
100
AcDbEntity
  8
0
 62
7
100
AcDbPolyline
 90
4
 70
1
 10
326.978741
 20
87.000000
 30
0.0
 10
329.348627
 20
91.104763
 30
0.0
 10
336.458285
 20
87.000000
 30
0.0
 10
326.978741
 20
87.000000
 30
0.0
  0
LWPOLYLINE
  5
213
100
AcDbEntity
  8
0
 62
7
100
AcDbPolyline
 90
5
 70
1
 10
806.415274
 20
87.000000
 30
0.0
 10
798.136806
 20
87.000000
 30
0.0
 10
795.090681
 20
92.276044
 30
0.0
 10
809.461400
 20
92.276044
 30
0.0
 10
806.415274
 20
87.000000
 30
0.0
  0
LWPOLYLINE
  5
214
100
AcDbEntity
  8
0
 62
7
100
AcDbPolyline
 90
5
 70
1
 10
981.016357
 20
207.000000
 30
0.0
 10
983.328048
 20
202.996034
 30
0.0
 10
968.957329
 20
202.996034
 30
0.0
 10
971.269020
 20
207.000000
 30
0.0
 10
981.016357
 20
207.000000
 30
0.0
  0
LWPOLYLINE
  5
215
100
AcDbEntity
  8
0
 62
7
100
AcDbPolyline
 90
5
 70
1
 10
1027.000023
 20
159.390027
 30
0.0
 10
1027.000023
 20
137.386234
 30
0.0
 10
1015.287300
 20
144.148577
 30
0.0
 10
1024.815222
 20
160.651423
 30
0.0
 10
1027.000023
 20
159.390027
 30
0.0
  0
LWPOLYLINE
  5
216
100
AcDbEntity
  8
0
 62
7
100
AcDbPolyline
 90
4
 70
1
 10
920.495233
 20
204.167315
 30
0.0
 10
918.859781
 20
207.000000
 30
0.0
 10
925.401587
 20
207.000000
 30
0.0
 10
920.495233
 20
204.167315
 30
0.0
  0
LWPOLYLINE
  5
217
100
AcDbEntity
  8
0
 62
7
100
AcDbPolyline
 90
5
 70
1
 10
1024.815222
 20
169.393985
 30
0.0
 10
1015.287300
 20
185.896830
 30
0.0
 10
1027.000023
 20
192.659174
 30
0.0
 10
1027.000023
 20
170.655380
 30
0.0
 10
1024.815222
 20
169.393985
 30
0.0
  0
LWPOLYLINE
  5
218
100
AcDbEntity
  8
0
 62
7
100
AcDbPolyline
 90
5
 70
1
 10
355.096422
 20
207.000000
 30
0.0
 10
357.408113
 20
202.996034
 30
0.0
 10
343.037394
 20
202.996034
 30
0.0
 10
345.349085
 20
207.000000
 30
0.0
 10
355.096422
 20
207.000000
 30
0.0
  0
LWPOLYLINE
  5
219
100
AcDbEntity
  8
0
 62
7
100
AcDbPolyline
 90
4
 70
1
 10
962.243485
 20
204.167315
 30
0.0
 10
957.337131
 20
207.000000
 30
0.0
 10
963.878937
 20
207.000000
 30
0.0
 10
962.243485
 20
204.167315
 30
0.0
  0
LWPOLYLINE
  5
21a
100
AcDbEntity
  8
0
 62
7
100
AcDbPolyline
 90
5
 70
1
 10
736.868614
 20
87.000000
 30
0.0
 10
728.590147
 20
87.000000
 30
0.0
 10
725.544021
 20
92.276044
 30
0.0
 10
739.914740
 20
92.276044
 30
0.0
 10
736.868614
 20
87.000000
 30
0.0
  0
LWPOLYLINE
  5
21b
100
AcDbEntity
  8
0
 62
7
100
AcDbPolyline
 90
5
 70
1
 10
216.003103
 20
207.000000
 30
0.0
 10
218.314794
 20
202.996034
 30
0.0
 10
203.944075
 20
202.996034
 30
0.0
 10
206.255766
 20
207.000000
 30
0.0
 10
216.003103
 20
207.000000
 30
0.0
  0
LWPOLYLINE
  5
21c
100
AcDbEntity
  8
0
 62
7
100
AcDbPolyline
 90
4
 70
1
 10
224.893903
 20
87.000000
 30
0.0
 10
232.003561
 20
91.104763
 30
0.0
 10
234.373447
 20
87.000000
 30
0.0
 10
224.893903
 20
87.000000
 30
0.0
  0
LWPOLYLINE
  5
21d
100
AcDbEntity
  8
0
 62
7
100
AcDbPolyline
 90
4
 70
1
 10
781.267179
 20
87.000000
 30
0.0
 10
788.376837
 20
91.104763
 30
0.0
 10
790.746723
 20
87.000000
 30
0.0
 10
781.267179
 20
87.000000
 30
0.0
  0
LWPOLYLINE
  5
21e
100
AcDbEntity
  8
0
 62
7
100
AcDbPolyline
 90
4
 70
1
 10
642.308595
 20
204.167315
 30
0.0
 10
640.673143
 20
207.000000
 30
0.0
 10
647.214949
 20
207.000000
 30
0.0
 10
642.308595
 20
204.167315
 30
0.0
  0
LWPOLYLINE
  5
21f
100
AcDbEntity
  8
0
 62
7
100
AcDbPolyline
 90
5
 70
1
 10
176.356105
 20
149.377296
 30
0.0
 10
173.000023
 20
155.190201
 30
0.0
 10
173.000023
 20
161.822704
 30
0.0
 10
183.541464
 20
161.822704
 30
0.0
 10
176.356105
 20
149.377296
 30
0.0
  0
LWPOLYLINE
  5
220
100
AcDbEntity
  8
0
 62
7
100
AcDbPolyline
 90
4
 70
1
 10
503.080541
 20
87.000000
 30
0.0
 10
510.190199
 20
91.104763
 30
0.0
 10
512.560085
 20
87.000000
 30
0.0
 10
503.080541
 20
87.000000
 30
0.0
  0
LWPOLYLINE
  5
221
100
AcDbEntity
  8
0
 62
7
100
AcDbPolyline
 90
4
 70
1
 10
364.121957
 20
204.167315
 30
0.0
 10
362.486505
 20
207.000000
 30
0.0
 10
369.028311
 20
207.000000
 30
0.0
 10
364.121957
 20
204.167315
 30
0.0
  0
LWPOLYLINE
  5
222
100
AcDbEntity
  8
0
 62
7
100
AcDbPolyline
 90
4
 70
1
 10
850.948573
 20
204.167315
 30
0.0
 10
849.313122
 20
207.000000
 30
0.0
 10
855.854928
 20
207.000000
 30
0.0
 10
850.948573
 20
204.167315
 30
0.0
  0
LWPOLYLINE
  5
223
100
AcDbEntity
  8
0
 62
7
100
AcDbPolyline
 90
4
 70
1
 10
572.761935
 20
204.167315
 30
0.0
 10
571.126484
 20
207.000000
 30
0.0
 10
577.668290
 20
207.000000
 30
0.0
 10
572.761935
 20
204.167315
 30
0.0
  0
LWPOLYLINE
  5
224
100
AcDbEntity
  8
0
 62
7
100
AcDbPolyline
 90
4
 70
1
 10
544.963528
 20
204.167315
 30
0.0
 10
540.057174
 20
207.000000
 30
0.0
 10
546.598980
 20
207.000000
 30
0.0
 10
544.963528
 20
204.167315
 30
0.0
  0
LWPOLYLINE
  5
225
100
AcDbEntity
  8
0
 62
7
100
AcDbPolyline
 90
4
 70
1
 10
813.805357
 20
87.000000
 30
0.0
 10
816.175243
 20
91.104763
 30
0.0
 10
823.284902
 20
87.000000
 30
0.0
 10
813.805357
 20
87.000000
 30
0.0
  0
LWPOLYLINE
  5
226
100
AcDbEntity
  8
0
 62
7
100
AcDbPolyline
 90
4
 70
1
 10
266.776890
 20
204.167315
 30
0.0
 10
261.870536
 20
207.000000
 30
0.0
 10
268.412342
 20
207.000000
 30
0.0
 10
266.776890
 20
204.167315
 30
0.0
  0
LWPOLYLINE
  5
227
100
AcDbEntity
  8
0
 62
7
100
AcDbPolyline
 90
4
 70
1
 10
711.720519
 20
87.000000
 30
0.0
 10
718.830177
 20
91.104763
 30
0.0
 10
721.200063
 20
87.000000
 30
0.0
 10
711.720519
 20
87.000000
 30
0.0
  0
LWPOLYLINE
  5
228
100
AcDbEntity
  8
0
 62
7
100
AcDbPolyline
 90
4
 70
1
 10
920.360498
 20
87.000000
 30
0.0
 10
927.470156
 20
91.104763
 30
0.0
 10
929.840042
 20
87.000000
 30
0.0
 10
920.360498
 20
87.000000
 30
0.0
  0
LWPOLYLINE
  5
229
100
AcDbEntity
  8
0
 62
7
100
AcDbPolyline
 90
4
 70
1
 10
405.870209
 20
204.167315
 30
0.0
 10
400.963855
 20
207.000000
 30
0.0
 10
407.505661
 20
207.000000
 30
0.0
 10
405.870209
 20
204.167315
 30
0.0
  0
LWPOLYLINE
  5
22a
100
AcDbEntity
  8
0
 62
7
100
AcDbPolyline
 90
4
 70
1
 10
475.416869
 20
204.167315
 30
0.0
 10
470.510514
 20
207.000000
 30
0.0
 10
477.052320
 20
207.000000
 30
0.0
 10
475.416869
 20
204.167315
 30
0.0
  0
LWPOLYLINE
  5
22b
100
AcDbEntity
  8
0
 62
7
100
AcDbPolyline
 90
5
 70
1
 10
702.829719
 20
207.000000
 30
0.0
 10
705.141410
 20
202.996034
 30
0.0
 10
690.770691
 20
202.996034
 30
0.0
 10
693.082382
 20
207.000000
 30
0.0
 10
702.829719
 20
207.000000
 30
0.0
  0
LWPOLYLINE
  5
22c
100
AcDbEntity
  8
0
 62
7
100
AcDbPolyline
 90
4
 70
1
 10
883.352017
 20
87.000000
 30
0.0
 10
885.721903
 20
91.104763
 30
0.0
 10
892.831561
 20
87.000000
 30
0.0
 10
883.352017
 20
87.000000
 30
0.0
  0
LWPOLYLINE
  5
22d
100
AcDbEntity
  8
0
 62
7
100
AcDbPolyline
 90
5
 70
1
 10
494.189741
 20
207.000000
 30
0.0
 10
496.501432
 20
202.996034
 30
0.0
 10
482.130713
 20
202.996034
 30
0.0
 10
484.442404
 20
207.000000
 30
0.0
 10
494.189741
 20
207.000000
 30
0.0
  0
LWPOLYLINE
  5
22e
100
AcDbEntity
  8
0
 62
7
100
AcDbPolyline
 90
4
 70
1
 10
294.440562
 20
87.000000
 30
0.0
 10
301.550220
 20
91.104763
 30
0.0
 10
303.920106
 20
87.000000
 30
0.0
 10
294.440562
 20
87.000000
 30
0.0
  0
LWPOLYLINE
  5
22f
100
AcDbEntity
  8
0
 62
7
100
AcDbPolyline
 90
5
 70
1
 10
319.588657
 20
87.000000
 30
0.0
 10
311.310190
 20
87.000000
 30
0.0
 10
308.264064
 20
92.276044
 30
0.0
 10
322.634783
 20
92.276044
 30
0.0
 10
319.588657
 20
87.000000
 30
0.0
  0
LWPOLYLINE
  5
230
100
AcDbEntity
  8
0
 62
7
100
AcDbPolyline
 90
5
 70
1
 10
528.228636
 20
87.000000
 30
0.0
 10
519.950168
 20
87.000000
 30
0.0
 10
516.904043
 20
92.276044
 30
0.0
 10
531.274762
 20
92.276044
 30
0.0
 10
528.228636
 20
87.000000
 30
0.0
  0
LWPOLYLINE
  5
231
100
AcDbEntity
  8
0
 62
7
100
AcDbPolyline
 90
5
 70
1
 10
597.775295
 20
87.000000
 30
0.0
 10
589.496828
 20
87.000000
 30
0.0
 10
586.450702
 20
92.276044
 30
0.0
 10
600.821421
 20
92.276044
 30
0.0
 10
597.775295
 20
87.000000
 30
0.0
  0
LWPOLYLINE
  5
232
100
AcDbEntity
  8
0
 62
7
100
AcDbPolyline
 90
5
 70
1
 10
1022.445336
 20
87.000000
 30
0.0
 10
1024.815222
 20
91.104763
 30
0.0
 10
1027.000023
 20
89.843368
 30
0.0
 10
1027.000023
 20
87.000000
 30
0.0
 10
1022.445336
 20
87.000000
 30
0.0
  0
LWPOLYLINE
  5
233
100
AcDbEntity
  8
0
 62
7
100
AcDbPolyline
 90
4
 70
1
 10
572.627200
 20
87.000000
 30
0.0
 10
579.736858
 20
91.104763
 30
0.0
 10
582.106744
 20
87.000000
 30
0.0
 10
572.627200
 20
87.000000
 30
0.0
  0
LWPOLYLINE
  5
234
100
AcDbEntity
  8
0
 62
7
100
AcDbPolyline
 90
4
 70
1
 10
614.510188
 20
204.167315
 30
0.0
 10
609.603833
 20
207.000000
 30
0.0
 10
616.145639
 20
207.000000
 30
0.0
 10
614.510188
 20
204.167315
 30
0.0
  0
LWPOLYLINE
  5
235
100
AcDbEntity
  8
0
 62
7
100
AcDbPolyline
 90
5
 70
1
 10
911.469698
 20
207.000000
 30
0.0
 10
913.781389
 20
202.996034
 30
0.0
 10
899.410670
 20
202.996034
 30
0.0
 10
901.722361
 20
207.000000
 30
0.0
 10
911.469698
 20
207.000000
 30
0.0
  0
LWPOLYLINE
  5
236
100
AcDbEntity
  8
0
 62
7
100
AcDbPolyline
 90
4
 70
1
 10
989.907157
 20
87.000000
 30
0.0
 10
997.016815
 20
91.104763
 30
0.0
 10
999.386701
 20
87.000000
 30
0.0
 10
989.907157
 20
87.000000
 30
0.0
  0
LWPOLYLINE
  5
237
100
AcDbEntity
  8
0
 62
7
100
AcDbPolyline
 90
5
 70
1
 10
389.135317
 20
87.000000
 30
0.0
 10
380.856849
 20
87.000000
 30
0.0
 10
377.810724
 20
92.276044
 30
0.0
 10
392.181443
 20
92.276044
 30
0.0
 10
389.135317
 20
87.000000
 30
0.0
  0
LWPOLYLINE
  5
238
100
AcDbEntity
  8
0
 62
7
100
AcDbPolyline
 90
4
 70
1
 10
294.575297
 20
204.167315
 30
0.0
 10
292.939846
 20
207.000000
 30
0.0
 10
299.481652
 20
207.000000
 30
0.0
 10
294.575297
 20
204.167315
 30
0.0
  0
LWPOLYLINE
  5
239
100
AcDbEntity
  8
0
 62
7
100
AcDbPolyline
 90
4
 70
1
 10
396.525400
 20
87.000000
 30
0.0
 10
398.895286
 20
91.104763
 30
0.0
 10
406.004945
 20
87.000000
 30
0.0
 10
396.525400
 20
87.000000
 30
0.0
  0
LWPOLYLINE
  5
23a
100
AcDbEntity
  8
0
 62
7
100
AcDbPolyline
 90
5
 70
1
 10
875.961933
 20
87.000000
 30
0.0
 10
867.683466
 20
87.000000
 30
0.0
 10
864.637340
 20
92.276044
 30
0.0
 10
879.008059
 20
92.276044
 30
0.0
 10
875.961933
 20
87.000000
 30
0.0
  0
LWPOLYLINE
  5
23b
100
AcDbEntity
  8
0
 62
7
100
AcDbPolyline
 90
4
 70
1
 10
225.028638
 20
204.167315
 30
0.0
 10
223.393186
 20
207.000000
 30
0.0
 10
229.934992
 20
207.000000
 30
0.0
 10
225.028638
 20
204.167315
 30
0.0
  0
LWPOLYLINE
  5
23c
100
AcDbEntity
  8
0
 62
7
100
AcDbPolyline
 90
4
 70
1
 10
674.712038
 20
87.000000
 30
0.0
 10
677.081924
 20
91.104763
 30
0.0
 10
684.191583
 20
87.000000
 30
0.0
 10
674.712038
 20
87.000000
 30
0.0
  0
LWPOLYLINE
  5
23d
100
AcDbEntity
  8
0
 62
7
100
AcDbPolyline
 90
5
 70
1
 10
633.283060
 20
207.000000
 30
0.0
 10
635.594751
 20
202.996034
 30
0.0
 10
621.224032
 20
202.996034
 30
0.0
 10
623.535723
 20
207.000000
 30
0.0
 10
633.283060
 20
207.000000
 30
0.0
  0
LWPOLYLINE
  5
23e
100
AcDbEntity
  8
0
 62
7
100
AcDbPolyline
 90
4
 70
1
 10
257.432081
 20
87.000000
 30
0.0
 10
259.801967
 20
91.104763
 30
0.0
 10
266.911626
 20
87.000000
 30
0.0
 10
257.432081
 20
87.000000
 30
0.0
  0
LWPOLYLINE
  5
23f
100
AcDbEntity
  8
0
 62
7
100
AcDbPolyline
 90
4
 70
1
 10
711.855254
 20
204.167315
 30
0.0
 10
710.219803
 20
207.000000
 30
0.0
 10
716.761609
 20
207.000000
 30
0.0
 10
711.855254
 20
204.167315
 30
0.0
  0
LWPOLYLINE
  5
240
100
AcDbEntity
  8
0
 62
7
100
AcDbPolyline
 90
4
 70
1
 10
684.056847
 20
204.167315
 30
0.0
 10
679.150493
 20
207.000000
 30
0.0
 10
685.692299
 20
207.000000
 30
0.0
 10
684.056847
 20
204.167315
 30
0.0
  0
LWPOLYLINE
  5
241
100
AcDbEntity
  8
0
 62
7
100
AcDbPolyline
 90
5
 70
1
 10
250.041998
 20
87.000000
 30
0.0
 10
241.763530
 20
87.000000
 30
0.0
 10
238.717405
 20
92.276044
 30
0.0
 10
253.088124
 20
92.276044
 30
0.0
 10
250.041998
 20
87.000000
 30
0.0
  0
LWPOLYLINE
  5
242
100
AcDbEntity
  8
0
 62
7
100
AcDbPolyline
 90
5
 70
1
 10
147.000023
 20
61.000000
 30
0.0
 10
1053.000023
 20
61.000000
 30
0.0
 10
1053.000023
 20
239.000000
 30
0.0
 10
147.000023
 20
239.000000
 30
0.0
 10
147.000023
 20
61.000000
 30
0.0
  0
ENDSEC
  0
SECTION
  2
OBJECTS
  0
DICTIONARY
  5
C
330
0
100
AcDbDictionary
  3
ACAD_GROUP
350
D
  3
ACAD_MLINESTYLE
350
17
  0
DICTIONARY
  5
D
330
C
100
AcDbDictionary
  0
DICTIONARY
  5
1A
330
C
100
AcDbDictionary
  0
DICTIONARY
  5
17
330
C
100
AcDbDictionary
  3
STANDARD
350
18
  0
DICTIONARY
  5
19
330
C
100
AcDbDictionary
  0
ENDSEC
  0
EOF
