<?xml version="1.0" encoding="UTF-8" standalone="no"?>
<svg
   height="300mm"
   version="1.1"
   viewBox="0 0 1200 300"
   width="1200mm"
   id="svg294"
   sodipodi:docname="tabica_2.2.svg"
   inkscape:version="1.4.2 (1:1.4.2+202505120737+ebf0e940d0)"
   xmlns:inkscape="http://www.inkscape.org/namespaces/inkscape"
   xmlns:sodipodi="http://sodipodi.sourceforge.net/DTD/sodipodi-0.dtd"
   xmlns="http://www.w3.org/2000/svg"
   xmlns:svg="http://www.w3.org/2000/svg">
  <sodipodi:namedview
     id="namedview294"
     pagecolor="#ffffff"
     bordercolor="#666666"
     borderopacity="1.0"
     inkscape:showpageshadow="2"
     inkscape:pageopacity="0.0"
     inkscape:pagecheckerboard="0"
     inkscape:deskcolor="#d1d1d1"
     inkscape:document-units="mm"
     showgrid="false"
     inkscape:zoom="0.26744965"
     inkscape:cx="2245.2824"
     inkscape:cy="557.1142"
     inkscape:window-width="1920"
     inkscape:window-height="1011"
     inkscape:window-x="0"
     inkscape:window-y="0"
     inkscape:window-maximized="1"
     inkscape:current-layer="svg294" />
  <defs
     id="defs1" />
  <g
     fill="none"
     stroke="blue"
     stroke-width="0.5"
     transform="translate(28.945277403126966,65.0)"
     id="g294"
     style="vector-effect:non-scaling-stroke;-inkscape-stroke:hairline;stroke-width:0.26458333;stroke-dasharray:none">
    <path
       d="M 134.51160125584852,139.15267435817842 L 132.05472259687303,137.73419480305267 L 132.05472259687303,115.73040133528173 L 144.03952331720637,122.6498292573502 L 134.51160125584852,139.15267435817842 Z"
       id="path1"
       style="vector-effect:non-scaling-stroke;-inkscape-stroke:hairline;stroke-width:0.26458333;stroke-dasharray:none" />
    <path
       d="M 148.41080460931656,127.87854796524 L 155.59616408645402,140.3239556502886 L 141.22544513217912,140.3239556502886 L 148.41080460931656,127.87854796524 Z"
       id="path2"
       style="vector-effect:non-scaling-stroke;-inkscape-stroke:hairline;stroke-width:0.26458333;stroke-dasharray:none" />
    <path
       d="M 145.21080460931663,115.9359853810196 L 132.765396924268,108.75062590388212 L 145.21080460931663,101.56526642674469 L 145.21080460931663,115.9359853810196 Z"
       id="path3"
       style="vector-effect:non-scaling-stroke;-inkscape-stroke:hairline;stroke-width:0.26458333;stroke-dasharray:none" />
    <path
       d="M 167.53872667067444,143.52395565028863 L 179.98413435572309,136.3385961731512 L 179.98413435572306,144.0 L 168.36325967103062,144.0 L 167.53872667067444,143.52395565028863 Z"
       id="path4"
       style="vector-effect:non-scaling-stroke;-inkscape-stroke:hairline;stroke-width:0.26458333;stroke-dasharray:none" />
    <path
       d="M 132.05472259687303,101.77085047248255 L 132.05472259687303,79.76705700471163 L 134.51160125584852,78.34857744958589 L 144.03952331720637,94.85142255041407 L 132.05472259687303,101.77085047248255 Z"
       id="path5"
       style="vector-effect:non-scaling-stroke;-inkscape-stroke:hairline;stroke-width:0.26458333;stroke-dasharray:none" />
    <path
       d="M 134.51160125584852,69.60601486536547 L 132.05472259687303,68.18753531023972 L 132.05472259687303,46.18374184246879 L 144.03952331720637,53.103169764537256 L 134.51160125584852,69.60601486536547 Z"
       id="path6"
       style="vector-effect:non-scaling-stroke;-inkscape-stroke:hairline;stroke-width:0.26458333;stroke-dasharray:none" />
    <path
       d="M 155.59616408645405,77.1772961574757 L 148.4108046093166,89.62270384252427 L 141.22544513217917,77.17729615747568 L 155.59616408645405,77.1772961574757 Z"
       id="path7"
       style="vector-effect:non-scaling-stroke;-inkscape-stroke:hairline;stroke-width:0.26458333;stroke-dasharray:none" />
    <path
       d="M 148.41080460931656,58.33188847242705 L 155.59616408645402,70.77729615747569 L 141.22544513217912,70.77729615747566 L 148.41080460931656,58.33188847242705 Z"
       id="path8"
       style="vector-effect:non-scaling-stroke;-inkscape-stroke:hairline;stroke-width:0.26458333;stroke-dasharray:none" />
    <path
       d="M 145.2108046093166,46.38932588820666 L 132.765396924268,39.2039664110692 L 145.21080460931663,32.018606933931764 L 145.2108046093166,46.38932588820666 Z"
       id="path9"
       style="vector-effect:non-scaling-stroke;-inkscape-stroke:hairline;stroke-width:0.26458333;stroke-dasharray:none" />
    <path
       d="M 178.81285306361283,129.6247522968206 L 162.31000796278468,139.15267435817842 L 152.78208590142683,122.64982925735023 L 169.28493100225498,113.12190719599239 L 178.81285306361283,129.6247522968206 Z"
       id="path10"
       style="vector-effect:non-scaling-stroke;-inkscape-stroke:hairline;stroke-width:0.26458333;stroke-dasharray:none" />
    <path
       d="M 178.81285306361283,87.87649951094376 L 169.28493100225498,104.37934461177198 L 152.78208590142683,94.8514225504141 L 162.31000796278468,78.3485774495859 L 178.81285306361283,87.87649951094376 Z"
       id="path11"
       style="vector-effect:non-scaling-stroke;-inkscape-stroke:hairline;stroke-width:0.26458333;stroke-dasharray:none" />
    <path
       d="M 151.6108046093166,101.5652664267447 L 164.05621229436522,108.75062590388218 L 151.61080460931657,115.93598538101962 L 151.6108046093166,101.5652664267447 Z"
       id="path12"
       style="vector-effect:non-scaling-stroke;-inkscape-stroke:hairline;stroke-width:0.26458333;stroke-dasharray:none" />
    <path
       d="M 190.3694938328605,111.95062590388218 L 183.18413435572305,124.39603358893076 L 175.9987748785856,111.95062590388218 L 190.3694938328605,111.95062590388218 Z"
       id="path13"
       style="vector-effect:non-scaling-stroke;-inkscape-stroke:hairline;stroke-width:0.26458333;stroke-dasharray:none" />
    <path
       d="M 183.18413435572305,93.10521821883358 L 190.36949383286048,105.55062590388218 L 175.9987748785856,105.55062590388215 L 183.18413435572305,93.10521821883358 Z"
       id="path14"
       style="vector-effect:non-scaling-stroke;-inkscape-stroke:hairline;stroke-width:0.26458333;stroke-dasharray:none" />
    <path
       d="M 179.98413435572306,81.16265563461316 L 167.53872667067444,73.97729615747568 L 179.98413435572306,66.79193668033825 L 179.98413435572306,81.16265563461316 Z"
       id="path15"
       style="vector-effect:non-scaling-stroke;-inkscape-stroke:hairline;stroke-width:0.26458333;stroke-dasharray:none" />
    <path
       d="M 213.58618281001932,122.64982925735025 L 204.05826074866147,139.15267435817844 L 187.55541564783329,129.6247522968206 L 197.08333770919114,113.12190719599239 L 213.58618281001932,122.64982925735025 Z"
       id="path16"
       style="vector-effect:non-scaling-stroke;-inkscape-stroke:hairline;stroke-width:0.26458333;stroke-dasharray:none" />
    <path
       d="M 198.82954204077168,143.52395565028866 L 198.00500904041553,144.0 L 186.38413435572303,144.0 L 186.38413435572306,136.33859617315116 L 198.82954204077168,143.52395565028866 Z"
       id="path17"
       style="vector-effect:non-scaling-stroke;-inkscape-stroke:hairline;stroke-width:0.26458333;stroke-dasharray:none" />
    <path
       d="M 217.95746410212953,127.87854796524007 L 225.14282357926695,140.32395565028864 L 210.7721046249921,140.3239556502886 L 217.95746410212953,127.87854796524007 Z"
       id="path18"
       style="vector-effect:non-scaling-stroke;-inkscape-stroke:hairline;stroke-width:0.26458333;stroke-dasharray:none" />
    <path
       d="M 214.75746410212955,115.93598538101965 L 202.31205641708092,108.75062590388218 L 214.75746410212955,101.56526642674471 L 214.75746410212955,115.93598538101965 Z"
       id="path19"
       style="vector-effect:non-scaling-stroke;-inkscape-stroke:hairline;stroke-width:0.26458333;stroke-dasharray:none" />
    <path
       d="M 237.08538616348733,143.52395565028863 L 249.53079384853598,136.3385961731512 L 249.53079384853598,144.0 L 237.9099191638435,144.0 L 237.08538616348733,143.52395565028863 Z"
       id="path20"
       style="vector-effect:non-scaling-stroke;-inkscape-stroke:hairline;stroke-width:0.26458333;stroke-dasharray:none" />
    <path
       d="M 132.05472259687303,32.224190979669665 L 132.05472259687303,24.0 L 143.28621801467168,24.0 L 144.0395233172064,25.304763057601185 L 132.05472259687303,32.224190979669665 Z"
       id="path21"
       style="vector-effect:non-scaling-stroke;-inkscape-stroke:hairline;stroke-width:0.26458333;stroke-dasharray:none" />
    <path
       d="M 178.81285306361283,60.078092804007625 L 162.31000796278465,69.60601486536547 L 152.7820859014268,53.10316976453727 L 169.28493100225498,43.575247703179436 L 178.81285306361283,60.078092804007625 Z"
       id="path22"
       style="vector-effect:non-scaling-stroke;-inkscape-stroke:hairline;stroke-width:0.26458333;stroke-dasharray:none" />
    <path
       d="M 169.28493100225498,34.83268511895902 L 152.78208590142677,25.30476305760115 L 153.53539120396147,24.0 L 175.53918467173244,24.0 L 169.28493100225498,34.83268511895902 Z"
       id="path23"
       style="vector-effect:non-scaling-stroke;-inkscape-stroke:hairline;stroke-width:0.26458333;stroke-dasharray:none" />
    <path
       d="M 151.61080460931657,32.01860693393176 L 164.0562122943652,39.20396641106922 L 151.61080460931657,46.389325888206656 L 151.61080460931657,32.01860693393176 Z"
       id="path24"
       style="vector-effect:non-scaling-stroke;-inkscape-stroke:hairline;stroke-width:0.26458333;stroke-dasharray:none" />
    <path
       d="M 190.36949383286048,42.40396641106922 L 183.18413435572305,54.8493740961178 L 175.9987748785856,42.40396641106922 L 190.36949383286048,42.40396641106922 Z"
       id="path25"
       style="vector-effect:non-scaling-stroke;-inkscape-stroke:hairline;stroke-width:0.26458333;stroke-dasharray:none" />
    <path
       d="M 190.3694938328605,36.00396641106921 L 175.99877487858558,36.0039664110692 L 182.9292681173596,24.0 L 183.43900059408648,24.0 L 190.3694938328605,36.00396641106921 Z"
       id="path26"
       style="vector-effect:non-scaling-stroke;-inkscape-stroke:hairline;stroke-width:0.26458333;stroke-dasharray:none" />
    <path
       d="M 213.5861828100193,94.8514225504141 L 197.0833377091911,104.37934461177194 L 187.55541564783326,87.87649951094376 L 204.05826074866144,78.34857744958592 L 213.5861828100193,94.8514225504141 Z"
       id="path27"
       style="vector-effect:non-scaling-stroke;-inkscape-stroke:hairline;stroke-width:0.26458333;stroke-dasharray:none" />
    <path
       d="M 213.58618281001932,53.10316976453727 L 204.05826074866144,69.6060148653655 L 187.55541564783326,60.07809280400765 L 197.08333770919114,43.57524770317942 L 213.58618281001932,53.10316976453727 Z"
       id="path28"
       style="vector-effect:non-scaling-stroke;-inkscape-stroke:hairline;stroke-width:0.26458333;stroke-dasharray:none" />
    <path
       d="M 186.38413435572303,66.79193668033824 L 198.82954204077166,73.9772961574757 L 186.38413435572303,81.16265563461315 L 186.38413435572303,66.79193668033824 Z"
       id="path29"
       style="vector-effect:non-scaling-stroke;-inkscape-stroke:hairline;stroke-width:0.26458333;stroke-dasharray:none" />
    <path
       d="M 225.14282357926695,77.1772961574757 L 217.9574641021295,89.62270384252429 L 210.7721046249921,77.17729615747571 L 225.14282357926695,77.1772961574757 Z"
       id="path30"
       style="vector-effect:non-scaling-stroke;-inkscape-stroke:hairline;stroke-width:0.26458333;stroke-dasharray:none" />
    <path
       d="M 217.9574641021295,58.33188847242707 L 225.14282357926695,70.77729615747569 L 210.77210462499204,70.77729615747569 L 217.9574641021295,58.33188847242707 Z"
       id="path31"
       style="vector-effect:non-scaling-stroke;-inkscape-stroke:hairline;stroke-width:0.26458333;stroke-dasharray:none" />
    <path
       d="M 214.75746410212955,46.38932588820667 L 202.31205641708092,39.2039664110692 L 214.75746410212955,32.01860693393177 L 214.75746410212955,46.38932588820667 Z"
       id="path32"
       style="vector-effect:non-scaling-stroke;-inkscape-stroke:hairline;stroke-width:0.26458333;stroke-dasharray:none" />
    <path
       d="M 248.35951255642576,129.6247522968206 L 231.8566674555976,139.15267435817844 L 222.32874539423975,122.64982925735025 L 238.83159049506793,113.12190719599239 L 248.35951255642576,129.6247522968206 Z"
       id="path33"
       style="vector-effect:non-scaling-stroke;-inkscape-stroke:hairline;stroke-width:0.26458333;stroke-dasharray:none" />
    <path
       d="M 248.35951255642576,87.87649951094376 L 238.8315904950679,104.37934461177198 L 222.32874539423975,94.85142255041413 L 231.8566674555976,78.3485774495859 L 248.35951255642576,87.87649951094376 Z"
       id="path34"
       style="vector-effect:non-scaling-stroke;-inkscape-stroke:hairline;stroke-width:0.26458333;stroke-dasharray:none" />
    <path
       d="M 221.15746410212952,101.56526642674473 L 233.60287178717812,108.7506259038822 L 221.1574641021295,115.93598538101963 L 221.15746410212952,101.56526642674473 Z"
       id="path35"
       style="vector-effect:non-scaling-stroke;-inkscape-stroke:hairline;stroke-width:0.26458333;stroke-dasharray:none" />
    <path
       d="M 259.9161533256734,111.95062590388218 L 252.73079384853597,124.39603358893076 L 245.54543437139856,111.95062590388218 L 259.9161533256734,111.95062590388218 Z"
       id="path36"
       style="vector-effect:non-scaling-stroke;-inkscape-stroke:hairline;stroke-width:0.26458333;stroke-dasharray:none" />
    <path
       d="M 252.73079384853597,93.10521821883358 L 259.9161533256734,105.55062590388218 L 245.54543437139853,105.55062590388215 L 252.73079384853597,93.10521821883358 Z"
       id="path37"
       style="vector-effect:non-scaling-stroke;-inkscape-stroke:hairline;stroke-width:0.26458333;stroke-dasharray:none" />
    <path
       d="M 249.53079384853598,81.16265563461316 L 237.08538616348739,73.9772961574757 L 249.53079384853598,66.79193668033827 L 249.53079384853598,81.16265563461316 Z"
       id="path38"
       style="vector-effect:non-scaling-stroke;-inkscape-stroke:hairline;stroke-width:0.26458333;stroke-dasharray:none" />
    <path
       d="M 283.1328423028322,122.64982925735023 L 273.60492024147436,139.15267435817842 L 257.10207514064615,129.62475229682056 L 266.62999720200395,113.12190719599234 L 283.1328423028322,122.64982925735023 Z"
       id="path39"
       style="vector-effect:non-scaling-stroke;-inkscape-stroke:hairline;stroke-width:0.26458333;stroke-dasharray:none" />
    <path
       d="M 268.37620153358455,143.52395565028863 L 267.55166853322834,144.0 L 255.93079384853596,144.0 L 255.93079384853596,136.33859617315116 L 268.37620153358455,143.52395565028863 Z"
       id="path40"
       style="vector-effect:non-scaling-stroke;-inkscape-stroke:hairline;stroke-width:0.26458333;stroke-dasharray:none" />
    <path
       d="M 287.5041235949424,127.87854796524 L 294.6894830720799,140.32395565028864 L 280.31876411780496,140.3239556502886 L 287.5041235949424,127.87854796524 Z"
       id="path41"
       style="vector-effect:non-scaling-stroke;-inkscape-stroke:hairline;stroke-width:0.26458333;stroke-dasharray:none" />
    <path
       d="M 284.30412359494244,115.9359853810196 L 271.8587159098938,108.75062590388212 L 284.3041235949424,101.56526642674471 L 284.30412359494244,115.9359853810196 Z"
       id="path42"
       style="vector-effect:non-scaling-stroke;-inkscape-stroke:hairline;stroke-width:0.26458333;stroke-dasharray:none" />
    <path
       d="M 306.6320456563003,143.52395565028866 L 319.07745334134887,136.3385961731512 L 319.0774533413489,144.0 L 307.45657865665646,144.0 L 306.6320456563003,143.52395565028866 Z"
       id="path43"
       style="vector-effect:non-scaling-stroke;-inkscape-stroke:hairline;stroke-width:0.26458333;stroke-dasharray:none" />
    <path
       d="M 197.0833377091911,34.83268511895902 L 190.82908403971368,24.0 L 212.8328775074846,24.0 L 213.5861828100193,25.30476305760116 L 197.0833377091911,34.83268511895902 Z"
       id="path44"
       style="vector-effect:non-scaling-stroke;-inkscape-stroke:hairline;stroke-width:0.26458333;stroke-dasharray:none" />
    <path
       d="M 248.35951255642576,60.07809280400765 L 231.85666745559757,69.6060148653655 L 222.32874539423972,53.10316976453731 L 238.8315904950679,43.575247703179464 L 248.35951255642576,60.07809280400765 Z"
       id="path45"
       style="vector-effect:non-scaling-stroke;-inkscape-stroke:hairline;stroke-width:0.26458333;stroke-dasharray:none" />
    <path
       d="M 238.8315904950679,34.83268511895905 L 222.32874539423975,25.30476305760119 L 223.08205069677447,24.0 L 245.08584416454536,24.0 L 238.8315904950679,34.83268511895905 Z"
       id="path46"
       style="vector-effect:non-scaling-stroke;-inkscape-stroke:hairline;stroke-width:0.26458333;stroke-dasharray:none" />
    <path
       d="M 221.15746410212952,32.01860693393178 L 233.60287178717812,39.203966411069246 L 221.15746410212947,46.38932588820669 L 221.15746410212952,32.01860693393178 Z"
       id="path47"
       style="vector-effect:non-scaling-stroke;-inkscape-stroke:hairline;stroke-width:0.26458333;stroke-dasharray:none" />
    <path
       d="M 259.9161533256734,42.403966411069256 L 252.73079384853597,54.84937409611783 L 245.54543437139853,42.403966411069256 L 259.9161533256734,42.403966411069256 Z"
       id="path48"
       style="vector-effect:non-scaling-stroke;-inkscape-stroke:hairline;stroke-width:0.26458333;stroke-dasharray:none" />
    <path
       d="M 259.9161533256734,36.00396641106925 L 245.54543437139853,36.003966411069236 L 252.4759276101726,24.0 L 252.98566008689934,24.0 L 259.9161533256734,36.00396641106925 Z"
       id="path49"
       style="vector-effect:non-scaling-stroke;-inkscape-stroke:hairline;stroke-width:0.26458333;stroke-dasharray:none" />
    <path
       d="M 283.1328423028322,94.85142255041411 L 266.62999720200395,104.37934461177197 L 257.10207514064615,87.8764995109438 L 273.6049202414744,78.34857744958595 L 283.1328423028322,94.85142255041411 Z"
       id="path50"
       style="vector-effect:non-scaling-stroke;-inkscape-stroke:hairline;stroke-width:0.26458333;stroke-dasharray:none" />
    <path
       d="M 283.1328423028322,53.10316976453734 L 273.6049202414744,69.60601486536555 L 257.10207514064615,60.078092804007674 L 266.62999720200395,43.575247703179464 L 283.1328423028322,53.10316976453734 Z"
       id="path51"
       style="vector-effect:non-scaling-stroke;-inkscape-stroke:hairline;stroke-width:0.26458333;stroke-dasharray:none" />
    <path
       d="M 255.93079384853596,66.79193668033828 L 268.37620153358455,73.97729615747573 L 255.93079384853596,81.16265563461317 L 255.93079384853596,66.79193668033828 Z"
       id="path52"
       style="vector-effect:non-scaling-stroke;-inkscape-stroke:hairline;stroke-width:0.26458333;stroke-dasharray:none" />
    <path
       d="M 294.6894830720799,77.17729615747574 L 287.5041235949424,89.62270384252437 L 280.31876411780496,77.17729615747575 L 294.6894830720799,77.17729615747574 Z"
       id="path53"
       style="vector-effect:non-scaling-stroke;-inkscape-stroke:hairline;stroke-width:0.26458333;stroke-dasharray:none" />
    <path
       d="M 287.5041235949424,58.33188847242708 L 294.6894830720799,70.77729615747573 L 280.3187641178049,70.77729615747572 L 287.5041235949424,58.33188847242708 Z"
       id="path54"
       style="vector-effect:non-scaling-stroke;-inkscape-stroke:hairline;stroke-width:0.26458333;stroke-dasharray:none" />
    <path
       d="M 284.30412359494244,46.3893258882067 L 271.8587159098938,39.203966411069246 L 284.30412359494244,32.01860693393182 L 284.30412359494244,46.3893258882067 Z"
       id="path55"
       style="vector-effect:non-scaling-stroke;-inkscape-stroke:hairline;stroke-width:0.26458333;stroke-dasharray:none" />
    <path
       d="M 317.9061720492386,129.6247522968206 L 301.40332694841044,139.15267435817844 L 291.87540488705264,122.64982925735025 L 308.3782499878808,113.12190719599239 L 317.9061720492386,129.6247522968206 Z"
       id="path56"
       style="vector-effect:non-scaling-stroke;-inkscape-stroke:hairline;stroke-width:0.26458333;stroke-dasharray:none" />
    <path
       d="M 317.90617204923865,87.8764995109438 L 308.3782499878808,104.37934461177197 L 291.8754048870526,94.85142255041409 L 301.4033269484104,78.3485774495859 L 317.90617204923865,87.8764995109438 Z"
       id="path57"
       style="vector-effect:non-scaling-stroke;-inkscape-stroke:hairline;stroke-width:0.26458333;stroke-dasharray:none" />
    <path
       d="M 290.70412359494236,101.56526642674473 L 303.1495312799909,108.75062590388218 L 290.7041235949424,115.93598538101962 L 290.70412359494236,101.56526642674473 Z"
       id="path58"
       style="vector-effect:non-scaling-stroke;-inkscape-stroke:hairline;stroke-width:0.26458333;stroke-dasharray:none" />
    <path
       d="M 329.46281281848627,111.95062590388217 L 322.2774533413488,124.39603358893082 L 315.09209386421134,111.95062590388218 L 329.46281281848627,111.95062590388217 Z"
       id="path59"
       style="vector-effect:non-scaling-stroke;-inkscape-stroke:hairline;stroke-width:0.26458333;stroke-dasharray:none" />
    <path
       d="M 322.27745334134886,93.10521821883354 L 329.4628128184863,105.55062590388216 L 315.0920938642114,105.55062590388218 L 322.27745334134886,93.10521821883354 Z"
       id="path60"
       style="vector-effect:non-scaling-stroke;-inkscape-stroke:hairline;stroke-width:0.26458333;stroke-dasharray:none" />
    <path
       d="M 319.07745334134887,81.16265563461315 L 306.6320456563003,73.97729615747568 L 319.07745334134887,66.79193668033827 L 319.07745334134887,81.16265563461315 Z"
       id="path61"
       style="vector-effect:non-scaling-stroke;-inkscape-stroke:hairline;stroke-width:0.26458333;stroke-dasharray:none" />
    <path
       d="M 352.67950179564514,122.64982925735028 L 343.1515797342873,139.15267435817844 L 326.648734633459,129.6247522968206 L 336.17665669481687,113.12190719599238 L 352.67950179564514,122.64982925735028 Z"
       id="path62"
       style="vector-effect:non-scaling-stroke;-inkscape-stroke:hairline;stroke-width:0.26458333;stroke-dasharray:none" />
    <path
       d="M 337.9228610263974,143.52395565028866 L 337.09832802604126,144.0 L 325.47745334134885,144.0 L 325.4774533413488,136.33859617315122 L 337.9228610263974,143.52395565028866 Z"
       id="path63"
       style="vector-effect:non-scaling-stroke;-inkscape-stroke:hairline;stroke-width:0.26458333;stroke-dasharray:none" />
    <path
       d="M 357.05078308775535,127.87854796524003 L 364.2361425648928,140.32395565028867 L 349.8654236106179,140.32395565028867 L 357.05078308775535,127.87854796524003 Z"
       id="path64"
       style="vector-effect:non-scaling-stroke;-inkscape-stroke:hairline;stroke-width:0.26458333;stroke-dasharray:none" />
    <path
       d="M 353.85078308775536,115.93598538101963 L 341.40537540270674,108.75062590388215 L 353.8507830877553,101.56526642674473 L 353.85078308775536,115.93598538101963 Z"
       id="path65"
       style="vector-effect:non-scaling-stroke;-inkscape-stroke:hairline;stroke-width:0.26458333;stroke-dasharray:none" />
    <path
       d="M 376.1787051491132,143.52395565028866 L 388.6241128341618,136.33859617315122 L 388.6241128341618,144.0 L 377.0032381494694,144.0 L 376.1787051491132,143.52395565028866 Z"
       id="path66"
       style="vector-effect:non-scaling-stroke;-inkscape-stroke:hairline;stroke-width:0.26458333;stroke-dasharray:none" />
    <path
       d="M 266.62999720200395,34.832685118959006 L 260.37574353252654,24.0 L 282.37953700029755,24.0 L 283.1328423028322,25.304763057601132 L 266.62999720200395,34.832685118959006 Z"
       id="path67"
       style="vector-effect:non-scaling-stroke;-inkscape-stroke:hairline;stroke-width:0.26458333;stroke-dasharray:none" />
    <path
       d="M 317.90617204923865,60.07809280400764 L 301.40332694841044,69.6060148653655 L 291.87540488705264,53.10316976453733 L 308.37824998788085,43.57524770317948 L 317.90617204923865,60.07809280400764 Z"
       id="path68"
       style="vector-effect:non-scaling-stroke;-inkscape-stroke:hairline;stroke-width:0.26458333;stroke-dasharray:none" />
    <path
       d="M 308.37824998788085,34.83268511895906 L 291.87540488705264,25.304763057601193 L 292.62871018958737,24.0 L 314.6325036573583,24.0 L 308.37824998788085,34.83268511895906 Z"
       id="path69"
       style="vector-effect:non-scaling-stroke;-inkscape-stroke:hairline;stroke-width:0.26458333;stroke-dasharray:none" />
    <path
       d="M 290.7041235949424,32.01860693393183 L 303.149531279991,39.20396641106927 L 290.7041235949424,46.389325888206685 L 290.7041235949424,32.01860693393183 Z"
       id="path70"
       style="vector-effect:non-scaling-stroke;-inkscape-stroke:hairline;stroke-width:0.26458333;stroke-dasharray:none" />
    <path
       d="M 329.4628128184863,42.40396641106925 L 322.27745334134886,54.84937409611789 L 315.0920938642114,42.40396641106926 L 329.4628128184863,42.40396641106925 Z"
       id="path71"
       style="vector-effect:non-scaling-stroke;-inkscape-stroke:hairline;stroke-width:0.26458333;stroke-dasharray:none" />
    <path
       d="M 329.4628128184864,36.00396641106924 L 315.09209386421145,36.003966411069264 L 322.02258710298554,24.0 L 322.5323195797123,24.0 L 329.4628128184864,36.00396641106924 Z"
       id="path72"
       style="vector-effect:non-scaling-stroke;-inkscape-stroke:hairline;stroke-width:0.26458333;stroke-dasharray:none" />
    <path
       d="M 352.6795017956451,94.85142255041407 L 336.17665669481687,104.37934461177193 L 326.64873463345907,87.87649951094376 L 343.1515797342873,78.34857744958592 L 352.6795017956451,94.85142255041407 Z"
       id="path73"
       style="vector-effect:non-scaling-stroke;-inkscape-stroke:hairline;stroke-width:0.26458333;stroke-dasharray:none" />
    <path
       d="M 352.67950179564514,53.1031697645373 L 343.1515797342873,69.6060148653655 L 326.64873463345907,60.07809280400764 L 336.17665669481687,43.57524770317942 L 352.67950179564514,53.1031697645373 Z"
       id="path74"
       style="vector-effect:non-scaling-stroke;-inkscape-stroke:hairline;stroke-width:0.26458333;stroke-dasharray:none" />
    <path
       d="M 325.47745334134885,66.79193668033827 L 337.9228610263974,73.9772961574757 L 325.47745334134885,81.16265563461312 L 325.47745334134885,66.79193668033827 Z"
       id="path75"
       style="vector-effect:non-scaling-stroke;-inkscape-stroke:hairline;stroke-width:0.26458333;stroke-dasharray:none" />
    <path
       d="M 364.23614256489276,77.1772961574757 L 357.0507830877553,89.62270384252432 L 349.8654236106178,77.1772961574757 L 364.23614256489276,77.1772961574757 Z"
       id="path76"
       style="vector-effect:non-scaling-stroke;-inkscape-stroke:hairline;stroke-width:0.26458333;stroke-dasharray:none" />
    <path
       d="M 357.05078308775535,58.33188847242705 L 364.2361425648928,70.77729615747569 L 349.8654236106179,70.77729615747569 L 357.05078308775535,58.33188847242705 Z"
       id="path77"
       style="vector-effect:non-scaling-stroke;-inkscape-stroke:hairline;stroke-width:0.26458333;stroke-dasharray:none" />
    <path
       d="M 353.85078308775536,46.38932588820666 L 341.4053754027068,39.2039664110692 L 353.85078308775536,32.0186069339318 L 353.85078308775536,46.38932588820666 Z"
       id="path78"
       style="vector-effect:non-scaling-stroke;-inkscape-stroke:hairline;stroke-width:0.26458333;stroke-dasharray:none" />
    <path
       d="M 387.45283154205157,129.62475229682056 L 370.9499864412233,139.15267435817844 L 361.4220643798655,122.64982925735026 L 377.92490948069377,113.12190719599239 L 387.45283154205157,129.62475229682056 Z"
       id="path79"
       style="vector-effect:non-scaling-stroke;-inkscape-stroke:hairline;stroke-width:0.26458333;stroke-dasharray:none" />
    <path
       d="M 387.45283154205157,87.8764995109438 L 377.92490948069377,104.37934461177198 L 361.4220643798655,94.85142255041409 L 370.94998644122336,78.34857744958589 L 387.45283154205157,87.8764995109438 Z"
       id="path80"
       style="vector-effect:non-scaling-stroke;-inkscape-stroke:hairline;stroke-width:0.26458333;stroke-dasharray:none" />
    <path
       d="M 360.2507830877553,101.56526642674471 L 372.6961907728039,108.7506259038822 L 360.2507830877553,115.93598538101963 L 360.2507830877553,101.56526642674471 Z"
       id="path81"
       style="vector-effect:non-scaling-stroke;-inkscape-stroke:hairline;stroke-width:0.26458333;stroke-dasharray:none" />
    <path
       d="M 399.00947231129925,111.95062590388217 L 391.8241128341618,124.3960335889308 L 384.6387533570243,111.9506259038822 L 399.00947231129925,111.95062590388217 Z"
       id="path82"
       style="vector-effect:non-scaling-stroke;-inkscape-stroke:hairline;stroke-width:0.26458333;stroke-dasharray:none" />
    <path
       d="M 391.8241128341618,93.10521821883356 L 399.00947231129925,105.55062590388216 L 384.6387533570243,105.55062590388219 L 391.8241128341618,93.10521821883356 Z"
       id="path83"
       style="vector-effect:non-scaling-stroke;-inkscape-stroke:hairline;stroke-width:0.26458333;stroke-dasharray:none" />
    <path
       d="M 388.6241128341618,81.16265563461315 L 376.1787051491132,73.97729615747568 L 388.6241128341618,66.79193668033824 L 388.6241128341618,81.16265563461315 Z"
       id="path84"
       style="vector-effect:non-scaling-stroke;-inkscape-stroke:hairline;stroke-width:0.26458333;stroke-dasharray:none" />
    <path
       d="M 422.22616128845806,122.64982925735028 L 412.6982392271002,139.15267435817844 L 396.195394126272,129.62475229682056 L 405.7233161876298,113.12190719599238 L 422.22616128845806,122.64982925735028 Z"
       id="path85"
       style="vector-effect:non-scaling-stroke;-inkscape-stroke:hairline;stroke-width:0.26458333;stroke-dasharray:none" />
    <path
       d="M 407.46952051921033,143.52395565028866 L 406.6449875188542,144.0 L 395.02411283416177,144.0 L 395.02411283416177,136.3385961731512 L 407.46952051921033,143.52395565028866 Z"
       id="path86"
       style="vector-effect:non-scaling-stroke;-inkscape-stroke:hairline;stroke-width:0.26458333;stroke-dasharray:none" />
    <path
       d="M 426.59744258056827,127.87854796524003 L 433.78280205770574,140.32395565028867 L 419.4120831034308,140.3239556502886 L 426.59744258056827,127.87854796524003 Z"
       id="path87"
       style="vector-effect:non-scaling-stroke;-inkscape-stroke:hairline;stroke-width:0.26458333;stroke-dasharray:none" />
    <path
       d="M 423.3974425805683,115.93598538101965 L 410.95203489551966,108.75062590388217 L 423.3974425805682,101.56526642674473 L 423.3974425805683,115.93598538101965 Z"
       id="path88"
       style="vector-effect:non-scaling-stroke;-inkscape-stroke:hairline;stroke-width:0.26458333;stroke-dasharray:none" />
    <path
       d="M 445.72536464192615,143.52395565028866 L 458.1707723269747,136.33859617315122 L 458.1707723269747,144.0 L 446.5498976422823,144.0 L 445.72536464192615,143.52395565028866 Z"
       id="path89"
       style="vector-effect:non-scaling-stroke;-inkscape-stroke:hairline;stroke-width:0.26458333;stroke-dasharray:none" />
    <path
       d="M 336.1766566948169,34.832685118959034 L 329.9224030253395,24.0 L 351.9261964931104,24.0 L 352.67950179564514,25.30476305760118 L 336.1766566948169,34.832685118959034 Z"
       id="path90"
       style="vector-effect:non-scaling-stroke;-inkscape-stroke:hairline;stroke-width:0.26458333;stroke-dasharray:none" />
    <path
       d="M 387.45283154205157,60.07809280400761 L 370.94998644122336,69.60601486536547 L 361.42206437986556,53.103169764537306 L 377.92490948069377,43.57524770317945 L 387.45283154205157,60.07809280400761 Z"
       id="path91"
       style="vector-effect:non-scaling-stroke;-inkscape-stroke:hairline;stroke-width:0.26458333;stroke-dasharray:none" />
    <path
       d="M 377.92490948069377,34.832685118959034 L 361.4220643798655,25.30476305760115 L 362.17536968240023,24.0 L 384.17916315017123,24.0 L 377.92490948069377,34.832685118959034 Z"
       id="path92"
       style="vector-effect:non-scaling-stroke;-inkscape-stroke:hairline;stroke-width:0.26458333;stroke-dasharray:none" />
    <path
       d="M 360.2507830877553,32.01860693393179 L 372.6961907728039,39.203966411069246 L 360.25078308775534,46.389325888206685 L 360.2507830877553,32.01860693393179 Z"
       id="path93"
       style="vector-effect:non-scaling-stroke;-inkscape-stroke:hairline;stroke-width:0.26458333;stroke-dasharray:none" />
    <path
       d="M 399.00947231129925,42.40396641106922 L 391.8241128341618,54.84937409611786 L 384.6387533570243,42.403966411069234 L 399.00947231129925,42.40396641106922 Z"
       id="path94"
       style="vector-effect:non-scaling-stroke;-inkscape-stroke:hairline;stroke-width:0.26458333;stroke-dasharray:none" />
    <path
       d="M 399.0094723112993,36.003966411069214 L 384.63875335702437,36.003966411069236 L 391.5692465957984,24.0 L 392.07897907252527,24.0 L 399.0094723112993,36.003966411069214 Z"
       id="path95"
       style="vector-effect:non-scaling-stroke;-inkscape-stroke:hairline;stroke-width:0.26458333;stroke-dasharray:none" />
    <path
       d="M 422.226161288458,94.8514225504141 L 405.7233161876298,104.37934461177196 L 396.195394126272,87.8764995109438 L 412.6982392271002,78.34857744958595 L 422.226161288458,94.8514225504141 Z"
       id="path96"
       style="vector-effect:non-scaling-stroke;-inkscape-stroke:hairline;stroke-width:0.26458333;stroke-dasharray:none" />
    <path
       d="M 422.22616128845806,53.10316976453733 L 412.6982392271002,69.60601486536552 L 396.195394126272,60.078092804007625 L 405.72331618762985,43.57524770317942 L 422.22616128845806,53.10316976453733 Z"
       id="path97"
       style="vector-effect:non-scaling-stroke;-inkscape-stroke:hairline;stroke-width:0.26458333;stroke-dasharray:none" />
    <path
       d="M 395.02411283416177,66.79193668033827 L 407.46952051921033,73.97729615747573 L 395.02411283416177,81.16265563461317 L 395.02411283416177,66.79193668033827 Z"
       id="path98"
       style="vector-effect:non-scaling-stroke;-inkscape-stroke:hairline;stroke-width:0.26458333;stroke-dasharray:none" />
    <path
       d="M 433.7828020577057,77.17729615747572 L 426.5974425805682,89.62270384252434 L 419.41208310343075,77.17729615747572 L 433.7828020577057,77.17729615747572 Z"
       id="path99"
       style="vector-effect:non-scaling-stroke;-inkscape-stroke:hairline;stroke-width:0.26458333;stroke-dasharray:none" />
    <path
       d="M 426.59744258056827,58.33188847242708 L 433.78280205770574,70.77729615747572 L 419.4120831034308,70.77729615747572 L 426.59744258056827,58.33188847242708 Z"
       id="path100"
       style="vector-effect:non-scaling-stroke;-inkscape-stroke:hairline;stroke-width:0.26458333;stroke-dasharray:none" />
    <path
       d="M 423.3974425805683,46.38932588820669 L 410.9520348955197,39.203966411069224 L 423.3974425805683,32.018606933931785 L 423.3974425805683,46.38932588820669 Z"
       id="path101"
       style="vector-effect:non-scaling-stroke;-inkscape-stroke:hairline;stroke-width:0.26458333;stroke-dasharray:none" />
    <path
       d="M 456.99949103486455,129.62475229682056 L 440.4966459340363,139.15267435817844 L 430.9687238726785,122.64982925735029 L 447.47156897350675,113.1219071959924 L 456.99949103486455,129.62475229682056 Z"
       id="path102"
       style="vector-effect:non-scaling-stroke;-inkscape-stroke:hairline;stroke-width:0.26458333;stroke-dasharray:none" />
    <path
       d="M 456.99949103486455,87.87649951094383 L 447.4715689735067,104.37934461177201 L 430.9687238726784,94.85142255041411 L 440.4966459340363,78.34857744958592 L 456.99949103486455,87.87649951094383 Z"
       id="path103"
       style="vector-effect:non-scaling-stroke;-inkscape-stroke:hairline;stroke-width:0.26458333;stroke-dasharray:none" />
    <path
       d="M 429.7974425805682,101.56526642674474 L 442.2428502656168,108.75062590388222 L 429.79744258056826,115.93598538101966 L 429.7974425805682,101.56526642674474 Z"
       id="path104"
       style="vector-effect:non-scaling-stroke;-inkscape-stroke:hairline;stroke-width:0.26458333;stroke-dasharray:none" />
    <path
       d="M 468.55613180411217,111.95062590388217 L 461.3707723269747,124.39603358893082 L 454.1854128498373,111.9506259038822 L 468.55613180411217,111.95062590388217 Z"
       id="path105"
       style="vector-effect:non-scaling-stroke;-inkscape-stroke:hairline;stroke-width:0.26458333;stroke-dasharray:none" />
    <path
       d="M 461.37077232697476,93.10521821883358 L 468.5561318041122,105.55062590388216 L 454.1854128498373,105.55062590388219 L 461.37077232697476,93.10521821883358 Z"
       id="path106"
       style="vector-effect:non-scaling-stroke;-inkscape-stroke:hairline;stroke-width:0.26458333;stroke-dasharray:none" />
    <path
       d="M 458.17077232697477,81.16265563461317 L 445.72536464192615,73.9772961574757 L 458.1707723269747,66.79193668033827 L 458.17077232697477,81.16265563461317 Z"
       id="path107"
       style="vector-effect:non-scaling-stroke;-inkscape-stroke:hairline;stroke-width:0.26458333;stroke-dasharray:none" />
    <path
       d="M 491.772820781271,122.64982925735029 L 482.2448987199132,139.15267435817847 L 465.74205361908497,129.62475229682056 L 475.26997568044277,113.12190719599238 L 491.772820781271,122.64982925735029 Z"
       id="path108"
       style="vector-effect:non-scaling-stroke;-inkscape-stroke:hairline;stroke-width:0.26458333;stroke-dasharray:none" />
    <path
       d="M 477.0161800120233,143.52395565028868 L 476.1916470116672,144.0 L 464.5707723269747,144.0 L 464.57077232697475,136.3385961731512 L 477.0161800120233,143.52395565028868 Z"
       id="path109"
       style="vector-effect:non-scaling-stroke;-inkscape-stroke:hairline;stroke-width:0.26458333;stroke-dasharray:none" />
    <path
       d="M 496.1441020733812,127.87854796524003 L 503.32946155051866,140.32395565028867 L 488.9587425962437,140.32395565028867 L 496.1441020733812,127.87854796524003 Z"
       id="path110"
       style="vector-effect:non-scaling-stroke;-inkscape-stroke:hairline;stroke-width:0.26458333;stroke-dasharray:none" />
    <path
       d="M 492.9441020733812,115.93598538101965 L 480.49869438833264,108.75062590388217 L 492.9441020733812,101.56526642674473 L 492.9441020733812,115.93598538101965 Z"
       id="path111"
       style="vector-effect:non-scaling-stroke;-inkscape-stroke:hairline;stroke-width:0.26458333;stroke-dasharray:none" />
    <path
       d="M 515.2720241347391,143.52395565028866 L 527.7174318197876,136.33859617315125 L 527.7174318197876,144.0 L 516.0965571350953,144.0 L 515.2720241347391,143.52395565028866 Z"
       id="path112"
       style="vector-effect:non-scaling-stroke;-inkscape-stroke:hairline;stroke-width:0.26458333;stroke-dasharray:none" />
    <path
       d="M 405.7233161876298,34.832685118959034 L 399.4690625181524,24.0 L 421.4728559859233,24.0 L 422.226161288458,25.30476305760118 L 405.7233161876298,34.832685118959034 Z"
       id="path113"
       style="vector-effect:non-scaling-stroke;-inkscape-stroke:hairline;stroke-width:0.26458333;stroke-dasharray:none" />
    <path
       d="M 456.9994910348645,60.07809280400764 L 440.4966459340362,69.60601486536552 L 430.9687238726784,53.10316976453736 L 447.4715689735067,43.57524770317947 L 456.9994910348645,60.07809280400764 Z"
       id="path114"
       style="vector-effect:non-scaling-stroke;-inkscape-stroke:hairline;stroke-width:0.26458333;stroke-dasharray:none" />
    <path
       d="M 447.4715689735067,34.83268511895906 L 430.9687238726784,25.30476305760118 L 431.72202917521315,24.0 L 453.72582264298416,24.0 L 447.4715689735067,34.83268511895906 Z"
       id="path115"
       style="vector-effect:non-scaling-stroke;-inkscape-stroke:hairline;stroke-width:0.26458333;stroke-dasharray:none" />
    <path
       d="M 429.7974425805682,32.01860693393181 L 442.2428502656168,39.203966411069274 L 429.7974425805682,46.38932588820673 L 429.7974425805682,32.01860693393181 Z"
       id="path116"
       style="vector-effect:non-scaling-stroke;-inkscape-stroke:hairline;stroke-width:0.26458333;stroke-dasharray:none" />
    <path
       d="M 468.55613180411217,42.40396641106927 L 461.3707723269747,54.849374096117884 L 454.18541284983723,42.40396641106927 L 468.55613180411217,42.40396641106927 Z"
       id="path117"
       style="vector-effect:non-scaling-stroke;-inkscape-stroke:hairline;stroke-width:0.26458333;stroke-dasharray:none" />
    <path
       d="M 468.55613180411217,36.00396641106929 L 454.18541284983723,36.00396641106928 L 461.1159060886113,24.0 L 461.6256385653381,24.0 L 468.55613180411217,36.00396641106929 Z"
       id="path118"
       style="vector-effect:non-scaling-stroke;-inkscape-stroke:hairline;stroke-width:0.26458333;stroke-dasharray:none" />
    <path
       d="M 491.772820781271,94.8514225504141 L 475.2699756804427,104.379344611772 L 465.7420536190849,87.87649951094386 L 482.2448987199132,78.34857744958597 L 491.772820781271,94.8514225504141 Z"
       id="path119"
       style="vector-effect:non-scaling-stroke;-inkscape-stroke:hairline;stroke-width:0.26458333;stroke-dasharray:none" />
    <path
       d="M 491.772820781271,53.10316976453739 L 482.2448987199132,69.60601486536555 L 465.7420536190849,60.078092804007646 L 475.2699756804427,43.57524770317948 L 491.772820781271,53.10316976453739 Z"
       id="path120"
       style="vector-effect:non-scaling-stroke;-inkscape-stroke:hairline;stroke-width:0.26458333;stroke-dasharray:none" />
    <path
       d="M 464.5707723269747,66.79193668033828 L 477.0161800120233,73.97729615747576 L 464.5707723269747,81.16265563461323 L 464.5707723269747,66.79193668033828 Z"
       id="path121"
       style="vector-effect:non-scaling-stroke;-inkscape-stroke:hairline;stroke-width:0.26458333;stroke-dasharray:none" />
    <path
       d="M 503.32946155051866,77.17729615747577 L 496.1441020733812,89.62270384252436 L 488.9587425962437,77.17729615747577 L 503.32946155051866,77.17729615747577 Z"
       id="path122"
       style="vector-effect:non-scaling-stroke;-inkscape-stroke:hairline;stroke-width:0.26458333;stroke-dasharray:none" />
    <path
       d="M 496.1441020733812,58.33188847242714 L 503.32946155051866,70.77729615747576 L 488.9587425962437,70.77729615747576 L 496.1441020733812,58.33188847242714 Z"
       id="path123"
       style="vector-effect:non-scaling-stroke;-inkscape-stroke:hairline;stroke-width:0.26458333;stroke-dasharray:none" />
    <path
       d="M 492.9441020733812,46.38932588820675 L 480.4986943883326,39.203966411069274 L 492.94410207338115,32.018606933931835 L 492.9441020733812,46.38932588820675 Z"
       id="path124"
       style="vector-effect:non-scaling-stroke;-inkscape-stroke:hairline;stroke-width:0.26458333;stroke-dasharray:none" />
    <path
       d="M 526.5461505276775,129.6247522968206 L 510.04330542684926,139.15267435817844 L 500.5153833654914,122.64982925735029 L 517.0182284663197,113.12190719599242 L 526.5461505276775,129.6247522968206 Z"
       id="path125"
       style="vector-effect:non-scaling-stroke;-inkscape-stroke:hairline;stroke-width:0.26458333;stroke-dasharray:none" />
    <path
       d="M 526.5461505276775,87.87649951094389 L 517.0182284663197,104.37934461177201 L 500.5153833654914,94.85142255041411 L 510.04330542684926,78.34857744958597 L 526.5461505276775,87.87649951094389 Z"
       id="path126"
       style="vector-effect:non-scaling-stroke;-inkscape-stroke:hairline;stroke-width:0.26458333;stroke-dasharray:none" />
    <path
       d="M 499.3441020733812,101.56526642674474 L 511.7895097584298,108.75062590388222 L 499.3441020733812,115.93598538101966 L 499.3441020733812,101.56526642674474 Z"
       id="path127"
       style="vector-effect:non-scaling-stroke;-inkscape-stroke:hairline;stroke-width:0.26458333;stroke-dasharray:none" />
    <path
       d="M 538.1027912969251,111.95062590388225 L 530.9174318197877,124.39603358893085 L 523.7320723426502,111.95062590388223 L 538.1027912969251,111.95062590388225 Z"
       id="path128"
       style="vector-effect:non-scaling-stroke;-inkscape-stroke:hairline;stroke-width:0.26458333;stroke-dasharray:none" />
    <path
       d="M 530.9174318197877,93.10521821883364 L 538.1027912969251,105.55062590388225 L 523.7320723426502,105.55062590388222 L 530.9174318197877,93.10521821883364 Z"
       id="path129"
       style="vector-effect:non-scaling-stroke;-inkscape-stroke:hairline;stroke-width:0.26458333;stroke-dasharray:none" />
    <path
       d="M 527.7174318197876,81.16265563461319 L 515.2720241347391,73.97729615747576 L 527.7174318197876,66.79193668033834 L 527.7174318197876,81.16265563461319 Z"
       id="path130"
       style="vector-effect:non-scaling-stroke;-inkscape-stroke:hairline;stroke-width:0.26458333;stroke-dasharray:none" />
    <path
       d="M 561.319480274084,122.64982925735035 L 551.7915582127262,139.1526743581785 L 535.2887131118979,129.6247522968206 L 544.8166351732557,113.12190719599245 L 561.319480274084,122.64982925735035 Z"
       id="path131"
       style="vector-effect:non-scaling-stroke;-inkscape-stroke:hairline;stroke-width:0.26458333;stroke-dasharray:none" />
    <path
       d="M 546.5628395048363,143.5239556502887 L 545.7383065044803,144.0 L 534.1174318197877,144.0 L 534.1174318197877,136.33859617315125 L 546.5628395048363,143.5239556502887 Z"
       id="path132"
       style="vector-effect:non-scaling-stroke;-inkscape-stroke:hairline;stroke-width:0.26458333;stroke-dasharray:none" />
    <path
       d="M 565.6907615661942,127.87854796524007 L 572.8761210433318,140.32395565028872 L 558.5054020890567,140.32395565028872 L 565.6907615661942,127.87854796524007 Z"
       id="path133"
       style="vector-effect:non-scaling-stroke;-inkscape-stroke:hairline;stroke-width:0.26458333;stroke-dasharray:none" />
    <path
       d="M 562.4907615661941,115.93598538101966 L 550.0453538811456,108.75062590388222 L 562.4907615661941,101.56526642674483 L 562.4907615661941,115.93598538101966 Z"
       id="path134"
       style="vector-effect:non-scaling-stroke;-inkscape-stroke:hairline;stroke-width:0.26458333;stroke-dasharray:none" />
    <path
       d="M 584.8186836275521,143.5239556502887 L 597.2640913126006,136.3385961731513 L 597.2640913126006,144.0 L 585.6432166279081,144.0 L 584.8186836275521,143.5239556502887 Z"
       id="path135"
       style="vector-effect:non-scaling-stroke;-inkscape-stroke:hairline;stroke-width:0.26458333;stroke-dasharray:none" />
    <path
       d="M 475.2699756804427,34.83268511895906 L 469.01572201096525,24.0 L 491.01951547873625,24.0 L 491.772820781271,25.30476305760118 L 475.2699756804427,34.83268511895906 Z"
       id="path136"
       style="vector-effect:non-scaling-stroke;-inkscape-stroke:hairline;stroke-width:0.26458333;stroke-dasharray:none" />
    <path
       d="M 526.5461505276775,60.07809280400766 L 510.04330542684926,69.60601486536555 L 500.5153833654914,53.10316976453738 L 517.0182284663198,43.5752477031795 L 526.5461505276775,60.07809280400766 Z"
       id="path137"
       style="vector-effect:non-scaling-stroke;-inkscape-stroke:hairline;stroke-width:0.26458333;stroke-dasharray:none" />
    <path
       d="M 517.0182284663198,34.83268511895909 L 500.5153833654914,25.304763057601175 L 501.26868866802613,24.0 L 523.2724821357972,24.0 L 517.0182284663198,34.83268511895909 Z"
       id="path138"
       style="vector-effect:non-scaling-stroke;-inkscape-stroke:hairline;stroke-width:0.26458333;stroke-dasharray:none" />
    <path
       d="M 499.3441020733812,32.01860693393181 L 511.7895097584299,39.2039664110693 L 499.3441020733812,46.3893258882068 L 499.3441020733812,32.01860693393181 Z"
       id="path139"
       style="vector-effect:non-scaling-stroke;-inkscape-stroke:hairline;stroke-width:0.26458333;stroke-dasharray:none" />
    <path
       d="M 538.1027912969253,42.4039664110693 L 530.9174318197877,54.84937409611791 L 523.7320723426503,42.4039664110693 L 538.1027912969253,42.4039664110693 Z"
       id="path140"
       style="vector-effect:non-scaling-stroke;-inkscape-stroke:hairline;stroke-width:0.26458333;stroke-dasharray:none" />
    <path
       d="M 538.1027912969253,36.0039664110693 L 523.7320723426503,36.0039664110693 L 530.6625655814244,24.0 L 531.172298058151,24.0 L 538.1027912969253,36.0039664110693 Z"
       id="path141"
       style="vector-effect:non-scaling-stroke;-inkscape-stroke:hairline;stroke-width:0.26458333;stroke-dasharray:none" />
    <path
       d="M 561.319480274084,94.85142255041416 L 544.8166351732558,104.37934461177201 L 535.2887131118979,87.87649951094386 L 551.7915582127262,78.348577449586 L 561.319480274084,94.85142255041416 Z"
       id="path142"
       style="vector-effect:non-scaling-stroke;-inkscape-stroke:hairline;stroke-width:0.26458333;stroke-dasharray:none" />
    <path
       d="M 561.319480274084,53.103169764537384 L 551.7915582127262,69.60601486536558 L 535.2887131118979,60.07809280400768 L 544.8166351732558,43.57524770317951 L 561.319480274084,53.103169764537384 Z"
       id="path143"
       style="vector-effect:non-scaling-stroke;-inkscape-stroke:hairline;stroke-width:0.26458333;stroke-dasharray:none" />
    <path
       d="M 534.1174318197877,66.79193668033834 L 546.5628395048363,73.97729615747579 L 534.1174318197877,81.1626556346132 L 534.1174318197877,66.79193668033834 Z"
       id="path144"
       style="vector-effect:non-scaling-stroke;-inkscape-stroke:hairline;stroke-width:0.26458333;stroke-dasharray:none" />
    <path
       d="M 572.8761210433316,77.17729615747578 L 565.6907615661942,89.6227038425244 L 558.5054020890567,77.17729615747578 L 572.8761210433316,77.17729615747578 Z"
       id="path145"
       style="vector-effect:non-scaling-stroke;-inkscape-stroke:hairline;stroke-width:0.26458333;stroke-dasharray:none" />
    <path
       d="M 565.6907615661942,58.33188847242715 L 572.8761210433316,70.77729615747577 L 558.5054020890567,70.77729615747577 L 565.6907615661942,58.33188847242715 Z"
       id="path146"
       style="vector-effect:non-scaling-stroke;-inkscape-stroke:hairline;stroke-width:0.26458333;stroke-dasharray:none" />
    <path
       d="M 562.4907615661941,46.38932588820669 L 550.0453538811456,39.203966411069295 L 562.4907615661941,32.018606933931885 L 562.4907615661941,46.38932588820669 Z"
       id="path147"
       style="vector-effect:non-scaling-stroke;-inkscape-stroke:hairline;stroke-width:0.26458333;stroke-dasharray:none" />
    <path
       d="M 596.0928100204904,129.62475229682065 L 579.5899649196623,139.1526743581785 L 570.0620428583044,122.64982925735033 L 586.5648879591326,113.12190719599248 L 596.0928100204904,129.62475229682065 Z"
       id="path148"
       style="vector-effect:non-scaling-stroke;-inkscape-stroke:hairline;stroke-width:0.26458333;stroke-dasharray:none" />
    <path
       d="M 596.0928100204904,87.87649951094386 L 586.5648879591326,104.37934461177207 L 570.0620428583044,94.85142255041416 L 579.5899649196622,78.34857744958597 L 596.0928100204904,87.87649951094386 Z"
       id="path149"
       style="vector-effect:non-scaling-stroke;-inkscape-stroke:hairline;stroke-width:0.26458333;stroke-dasharray:none" />
    <path
       d="M 568.8907615661942,101.56526642674483 L 581.3361692512428,108.75062590388228 L 568.8907615661942,115.93598538101969 L 568.8907615661942,101.56526642674483 Z"
       id="path150"
       style="vector-effect:non-scaling-stroke;-inkscape-stroke:hairline;stroke-width:0.26458333;stroke-dasharray:none" />
    <path
       d="M 607.6494507897382,111.95062590388224 L 600.4640913126007,124.3960335889309 L 593.2787318354632,111.95062590388227 L 607.6494507897382,111.95062590388224 Z"
       id="path151"
       style="vector-effect:non-scaling-stroke;-inkscape-stroke:hairline;stroke-width:0.26458333;stroke-dasharray:none" />
    <path
       d="M 600.4640913126007,93.1052182188336 L 607.6494507897382,105.55062590388223 L 593.2787318354632,105.55062590388226 L 600.4640913126007,93.1052182188336 Z"
       id="path152"
       style="vector-effect:non-scaling-stroke;-inkscape-stroke:hairline;stroke-width:0.26458333;stroke-dasharray:none" />
    <path
       d="M 597.2640913126006,81.16265563461317 L 584.8186836275521,73.97729615747573 L 597.2640913126006,66.79193668033835 L 597.2640913126006,81.16265563461317 Z"
       id="path153"
       style="vector-effect:non-scaling-stroke;-inkscape-stroke:hairline;stroke-width:0.26458333;stroke-dasharray:none" />
    <path
       d="M 630.8661397668969,122.64982925735033 L 621.338217705539,139.15267435817856 L 604.8353726047109,129.62475229682065 L 614.3632946660687,113.12190719599246 L 630.8661397668969,122.64982925735033 Z"
       id="path154"
       style="vector-effect:non-scaling-stroke;-inkscape-stroke:hairline;stroke-width:0.26458333;stroke-dasharray:none" />
    <path
       d="M 616.1094989976492,143.52395565028877 L 615.2849659972933,144.0 L 603.6640913126007,144.0 L 603.6640913126007,136.33859617315133 L 616.1094989976492,143.52395565028877 Z"
       id="path155"
       style="vector-effect:non-scaling-stroke;-inkscape-stroke:hairline;stroke-width:0.26458333;stroke-dasharray:none" />
    <path
       d="M 635.2374210590071,127.87854796524009 L 642.4227805361446,140.32395565028872 L 628.0520615818696,140.32395565028875 L 635.2374210590071,127.87854796524009 Z"
       id="path156"
       style="vector-effect:non-scaling-stroke;-inkscape-stroke:hairline;stroke-width:0.26458333;stroke-dasharray:none" />
    <path
       d="M 632.0374210590071,115.93598538101966 L 619.5920133739586,108.75062590388224 L 632.0374210590071,101.56526642674486 L 632.0374210590071,115.93598538101966 Z"
       id="path157"
       style="vector-effect:non-scaling-stroke;-inkscape-stroke:hairline;stroke-width:0.26458333;stroke-dasharray:none" />
    <path
       d="M 654.365343120365,143.5239556502886 L 666.8107508054135,136.3385961731512 L 666.8107508054136,144.0 L 655.1898761207212,144.0 L 654.365343120365,143.5239556502886 Z"
       id="path158"
       style="vector-effect:non-scaling-stroke;-inkscape-stroke:hairline;stroke-width:0.26458333;stroke-dasharray:none" />
    <path
       d="M 544.8166351732557,34.832685118959034 L 538.5623815037783,24.0 L 560.5661749715492,24.0 L 561.319480274084,25.30476305760115 L 544.8166351732557,34.832685118959034 Z"
       id="path159"
       style="vector-effect:non-scaling-stroke;-inkscape-stroke:hairline;stroke-width:0.26458333;stroke-dasharray:none" />
    <path
       d="M 596.0928100204904,60.07809280400761 L 579.5899649196622,69.60601486536547 L 570.0620428583044,53.10316976453731 L 586.5648879591326,43.57524770317944 L 596.0928100204904,60.07809280400761 Z"
       id="path160"
       style="vector-effect:non-scaling-stroke;-inkscape-stroke:hairline;stroke-width:0.26458333;stroke-dasharray:none" />
    <path
       d="M 586.5648879591326,34.832685118959034 L 570.0620428583044,25.304763057601157 L 570.8153481608391,24.0 L 592.81914162861,24.0 L 586.5648879591326,34.832685118959034 Z"
       id="path161"
       style="vector-effect:non-scaling-stroke;-inkscape-stroke:hairline;stroke-width:0.26458333;stroke-dasharray:none" />
    <path
       d="M 568.8907615661942,32.018606933931814 L 581.3361692512428,39.20396641106924 L 568.8907615661942,46.38932588820664 L 568.8907615661942,32.018606933931814 Z"
       id="path162"
       style="vector-effect:non-scaling-stroke;-inkscape-stroke:hairline;stroke-width:0.26458333;stroke-dasharray:none" />
    <path
       d="M 607.649450789738,42.403966411069305 L 600.4640913126007,54.84937409611785 L 593.2787318354632,42.40396641106926 L 607.649450789738,42.403966411069305 Z"
       id="path163"
       style="vector-effect:non-scaling-stroke;-inkscape-stroke:hairline;stroke-width:0.26458333;stroke-dasharray:none" />
    <path
       d="M 607.649450789738,36.003966411069314 L 593.2787318354632,36.00396641106926 L 600.2092250742372,24.0 L 600.7189575509639,24.0 L 607.649450789738,36.003966411069314 Z"
       id="path164"
       style="vector-effect:non-scaling-stroke;-inkscape-stroke:hairline;stroke-width:0.26458333;stroke-dasharray:none" />
    <path
       d="M 630.8661397668969,94.85142255041413 L 614.3632946660687,104.37934461177197 L 604.8353726047109,87.8764995109438 L 621.3382177055391,78.34857744958597 L 630.8661397668969,94.85142255041413 Z"
       id="path165"
       style="vector-effect:non-scaling-stroke;-inkscape-stroke:hairline;stroke-width:0.26458333;stroke-dasharray:none" />
    <path
       d="M 630.8661397668969,53.103169764537405 L 621.3382177055391,69.60601486536555 L 604.8353726047109,60.07809280400761 L 614.3632946660686,43.57524770317953 L 630.8661397668969,53.103169764537405 Z"
       id="path166"
       style="vector-effect:non-scaling-stroke;-inkscape-stroke:hairline;stroke-width:0.26458333;stroke-dasharray:none" />
    <path
       d="M 603.6640913126007,66.7919366803383 L 616.1094989976493,73.97729615747575 L 603.6640913126007,81.16265563461315 L 603.6640913126007,66.7919366803383 Z"
       id="path167"
       style="vector-effect:non-scaling-stroke;-inkscape-stroke:hairline;stroke-width:0.26458333;stroke-dasharray:none" />
    <path
       d="M 642.4227805361446,77.17729615747577 L 635.2374210590071,89.62270384252437 L 628.0520615818697,77.17729615747577 L 642.4227805361446,77.17729615747577 Z"
       id="path168"
       style="vector-effect:non-scaling-stroke;-inkscape-stroke:hairline;stroke-width:0.26458333;stroke-dasharray:none" />
    <path
       d="M 635.2374210590071,58.331888472427146 L 642.4227805361446,70.77729615747576 L 628.0520615818697,70.77729615747576 L 635.2374210590071,58.331888472427146 Z"
       id="path169"
       style="vector-effect:non-scaling-stroke;-inkscape-stroke:hairline;stroke-width:0.26458333;stroke-dasharray:none" />
    <path
       d="M 632.0374210590071,46.38932588820672 L 619.5920133739585,39.203966411069274 L 632.0374210590071,32.01860693393186 L 632.0374210590071,46.38932588820672 Z"
       id="path170"
       style="vector-effect:non-scaling-stroke;-inkscape-stroke:hairline;stroke-width:0.26458333;stroke-dasharray:none" />
    <path
       d="M 665.6394695133033,129.62475229682062 L 649.1366244124752,139.15267435817844 L 639.6087023511174,122.64982925735029 L 656.1115474519455,113.12190719599246 L 665.6394695133033,129.62475229682062 Z"
       id="path171"
       style="vector-effect:non-scaling-stroke;-inkscape-stroke:hairline;stroke-width:0.26458333;stroke-dasharray:none" />
    <path
       d="M 665.6394695133034,87.87649951094387 L 656.1115474519455,104.37934461177204 L 639.6087023511174,94.85142255041414 L 649.1366244124752,78.34857744958597 L 665.6394695133034,87.87649951094387 Z"
       id="path172"
       style="vector-effect:non-scaling-stroke;-inkscape-stroke:hairline;stroke-width:0.26458333;stroke-dasharray:none" />
    <path
       d="M 638.4374210590072,101.56526642674481 L 650.8828287440557,108.75062590388224 L 638.4374210590072,115.93598538101962 L 638.4374210590072,101.56526642674481 Z"
       id="path173"
       style="vector-effect:non-scaling-stroke;-inkscape-stroke:hairline;stroke-width:0.26458333;stroke-dasharray:none" />
    <path
       d="M 677.1961102825511,111.95062590388225 L 670.0107508054135,124.39603358893089 L 662.825391328276,111.95062590388225 L 677.1961102825511,111.95062590388225 Z"
       id="path174"
       style="vector-effect:non-scaling-stroke;-inkscape-stroke:hairline;stroke-width:0.26458333;stroke-dasharray:none" />
    <path
       d="M 670.0107508054136,93.10521821883363 L 677.1961102825511,105.55062590388225 L 662.825391328276,105.55062590388225 L 670.0107508054136,93.10521821883363 Z"
       id="path175"
       style="vector-effect:non-scaling-stroke;-inkscape-stroke:hairline;stroke-width:0.26458333;stroke-dasharray:none" />
    <path
       d="M 666.8107508054136,81.1626556346132 L 654.365343120365,73.97729615747576 L 666.8107508054135,66.79193668033835 L 666.8107508054136,81.1626556346132 Z"
       id="path176"
       style="vector-effect:non-scaling-stroke;-inkscape-stroke:hairline;stroke-width:0.26458333;stroke-dasharray:none" />
    <path
       d="M 700.4127992597098,122.64982925735028 L 690.884877198352,139.15267435817842 L 674.3820320975237,129.6247522968205 L 683.9099541588814,113.12190719599239 L 700.4127992597098,122.64982925735028 Z"
       id="path177"
       style="vector-effect:non-scaling-stroke;-inkscape-stroke:hairline;stroke-width:0.26458333;stroke-dasharray:none" />
    <path
       d="M 685.6561584904622,143.52395565028863 L 684.831625490106,144.0 L 673.2107508054136,144.0 L 673.2107508054136,136.3385961731512 L 685.6561584904622,143.52395565028863 Z"
       id="path178"
       style="vector-effect:non-scaling-stroke;-inkscape-stroke:hairline;stroke-width:0.26458333;stroke-dasharray:none" />
    <path
       d="M 704.78408055182,127.87854796524 L 711.9694400289575,140.3239556502886 L 697.5987210746825,140.3239556502886 L 704.78408055182,127.87854796524 Z"
       id="path179"
       style="vector-effect:non-scaling-stroke;-inkscape-stroke:hairline;stroke-width:0.26458333;stroke-dasharray:none" />
    <path
       d="M 701.58408055182,115.93598538101959 L 689.1386728667713,108.75062590388214 L 701.58408055182,101.56526642674473 L 701.58408055182,115.93598538101959 Z"
       id="path180"
       style="vector-effect:non-scaling-stroke;-inkscape-stroke:hairline;stroke-width:0.26458333;stroke-dasharray:none" />
    <path
       d="M 723.9120026131778,143.52395565028863 L 736.3574102982263,136.33859617315122 L 736.3574102982265,144.0 L 724.736535613534,144.0 L 723.9120026131778,143.52395565028863 Z"
       id="path181"
       style="vector-effect:non-scaling-stroke;-inkscape-stroke:hairline;stroke-width:0.26458333;stroke-dasharray:none" />
    <path
       d="M 614.3632946660687,34.83268511895906 L 608.1090409965913,24.0 L 630.1128344643622,24.0 L 630.8661397668969,25.3047630576012 L 614.3632946660687,34.83268511895906 Z"
       id="path182"
       style="vector-effect:non-scaling-stroke;-inkscape-stroke:hairline;stroke-width:0.26458333;stroke-dasharray:none" />
    <path
       d="M 665.6394695133033,60.0780928040077 L 649.1366244124752,69.60601486536555 L 639.6087023511174,53.103169764537384 L 656.1115474519455,43.575247703179535 L 665.6394695133033,60.0780928040077 Z"
       id="path183"
       style="vector-effect:non-scaling-stroke;-inkscape-stroke:hairline;stroke-width:0.26458333;stroke-dasharray:none" />
    <path
       d="M 656.1115474519455,34.83268511895912 L 639.6087023511174,25.304763057601214 L 640.3620076536521,24.0 L 662.365801121423,24.0 L 656.1115474519455,34.83268511895912 Z"
       id="path184"
       style="vector-effect:non-scaling-stroke;-inkscape-stroke:hairline;stroke-width:0.26458333;stroke-dasharray:none" />
    <path
       d="M 638.4374210590072,32.018606933931885 L 650.8828287440557,39.20396641106932 L 638.4374210590072,46.38932588820672 L 638.4374210590072,32.018606933931885 Z"
       id="path185"
       style="vector-effect:non-scaling-stroke;-inkscape-stroke:hairline;stroke-width:0.26458333;stroke-dasharray:none" />
    <path
       d="M 677.1961102825511,42.403966411069284 L 670.0107508054135,54.849374096117955 L 662.825391328276,42.40396641106931 L 677.1961102825511,42.403966411069284 Z"
       id="path186"
       style="vector-effect:non-scaling-stroke;-inkscape-stroke:hairline;stroke-width:0.26458333;stroke-dasharray:none" />
    <path
       d="M 677.1961102825511,36.003966411069285 L 662.825391328276,36.003966411069314 L 669.7558845670502,24.0 L 670.2656170437771,24.0 L 677.1961102825511,36.003966411069285 Z"
       id="path187"
       style="vector-effect:non-scaling-stroke;-inkscape-stroke:hairline;stroke-width:0.26458333;stroke-dasharray:none" />
    <path
       d="M 700.4127992597098,94.85142255041418 L 683.9099541588816,104.37934461177204 L 674.3820320975238,87.87649951094389 L 690.884877198352,78.34857744958603 L 700.4127992597098,94.85142255041418 Z"
       id="path188"
       style="vector-effect:non-scaling-stroke;-inkscape-stroke:hairline;stroke-width:0.26458333;stroke-dasharray:none" />
    <path
       d="M 700.4127992597099,53.1031697645374 L 690.884877198352,69.60601486536561 L 674.3820320975237,60.0780928040077 L 683.9099541588815,43.57524770317953 L 700.4127992597099,53.1031697645374 Z"
       id="path189"
       style="vector-effect:non-scaling-stroke;-inkscape-stroke:hairline;stroke-width:0.26458333;stroke-dasharray:none" />
    <path
       d="M 673.2107508054136,66.79193668033838 L 685.6561584904622,73.97729615747582 L 673.2107508054137,81.16265563461323 L 673.2107508054136,66.79193668033838 Z"
       id="path190"
       style="vector-effect:non-scaling-stroke;-inkscape-stroke:hairline;stroke-width:0.26458333;stroke-dasharray:none" />
    <path
       d="M 711.9694400289576,77.17729615747578 L 704.78408055182,89.62270384252444 L 697.5987210746825,77.17729615747581 L 711.9694400289576,77.17729615747578 Z"
       id="path191"
       style="vector-effect:non-scaling-stroke;-inkscape-stroke:hairline;stroke-width:0.26458333;stroke-dasharray:none" />
    <path
       d="M 704.7840805518201,58.33188847242714 L 711.9694400289576,70.77729615747577 L 697.5987210746825,70.7772961574758 L 704.7840805518201,58.33188847242714 Z"
       id="path192"
       style="vector-effect:non-scaling-stroke;-inkscape-stroke:hairline;stroke-width:0.26458333;stroke-dasharray:none" />
    <path
       d="M 701.5840805518201,46.389325888206706 L 689.1386728667715,39.20396641106927 L 701.58408055182,32.01860693393186 L 701.5840805518201,46.389325888206706 Z"
       id="path193"
       style="vector-effect:non-scaling-stroke;-inkscape-stroke:hairline;stroke-width:0.26458333;stroke-dasharray:none" />
    <path
       d="M 735.1861290061162,129.62475229682056 L 718.683283905288,139.15267435817842 L 709.1553618439302,122.64982925735026 L 725.6582069447584,113.1219071959924 L 735.1861290061162,129.62475229682056 Z"
       id="path194"
       style="vector-effect:non-scaling-stroke;-inkscape-stroke:hairline;stroke-width:0.26458333;stroke-dasharray:none" />
    <path
       d="M 735.1861290061163,87.87649951094376 L 725.6582069447584,104.37934461177198 L 709.1553618439302,94.85142255041409 L 718.683283905288,78.34857744958586 L 735.1861290061163,87.87649951094376 Z"
       id="path195"
       style="vector-effect:non-scaling-stroke;-inkscape-stroke:hairline;stroke-width:0.26458333;stroke-dasharray:none" />
    <path
       d="M 707.98408055182,101.56526642674476 L 720.4294882368686,108.7506259038822 L 707.98408055182,115.93598538101959 L 707.98408055182,101.56526642674476 Z"
       id="path196"
       style="vector-effect:non-scaling-stroke;-inkscape-stroke:hairline;stroke-width:0.26458333;stroke-dasharray:none" />
    <path
       d="M 746.742769775364,111.95062590388216 L 739.5574102982264,124.39603358893082 L 732.3720508210889,111.95062590388218 L 746.742769775364,111.95062590388216 Z"
       id="path197"
       style="vector-effect:non-scaling-stroke;-inkscape-stroke:hairline;stroke-width:0.26458333;stroke-dasharray:none" />
    <path
       d="M 739.5574102982265,93.10521821883351 L 746.742769775364,105.55062590388215 L 732.3720508210889,105.55062590388218 L 739.5574102982265,93.10521821883351 Z"
       id="path198"
       style="vector-effect:non-scaling-stroke;-inkscape-stroke:hairline;stroke-width:0.26458333;stroke-dasharray:none" />
    <path
       d="M 736.3574102982265,81.16265563461309 L 723.9120026131778,73.97729615747565 L 736.3574102982263,66.79193668033824 L 736.3574102982265,81.16265563461309 Z"
       id="path199"
       style="vector-effect:non-scaling-stroke;-inkscape-stroke:hairline;stroke-width:0.26458333;stroke-dasharray:none" />
    <path
       d="M 769.9594587525227,122.64982925735025 L 760.4315366911649,139.15267435817847 L 743.9286915903366,129.6247522968206 L 753.4566136516945,113.12190719599235 L 769.9594587525227,122.64982925735025 Z"
       id="path200"
       style="vector-effect:non-scaling-stroke;-inkscape-stroke:hairline;stroke-width:0.26458333;stroke-dasharray:none" />
    <path
       d="M 755.202817983275,143.52395565028868 L 754.378284982919,144.0 L 742.7574102982265,144.0 L 742.7574102982264,136.33859617315125 L 755.202817983275,143.52395565028868 Z"
       id="path201"
       style="vector-effect:non-scaling-stroke;-inkscape-stroke:hairline;stroke-width:0.26458333;stroke-dasharray:none" />
    <path
       d="M 774.3307400446329,127.87854796524003 L 781.5160995217703,140.3239556502886 L 767.1453805674955,140.3239556502886 L 774.3307400446329,127.87854796524003 Z"
       id="path202"
       style="vector-effect:non-scaling-stroke;-inkscape-stroke:hairline;stroke-width:0.26458333;stroke-dasharray:none" />
    <path
       d="M 771.1307400446328,115.93598538101959 L 758.6853323595843,108.75062590388215 L 771.130740044633,101.56526642674474 L 771.1307400446328,115.93598538101959 Z"
       id="path203"
       style="vector-effect:non-scaling-stroke;-inkscape-stroke:hairline;stroke-width:0.26458333;stroke-dasharray:none" />
    <path
       d="M 793.4586621059907,143.52395565028863 L 805.9040697910393,136.33859617315122 L 805.9040697910393,144.0 L 794.2831951063469,144.0 L 793.4586621059907,143.52395565028863 Z"
       id="path204"
       style="vector-effect:non-scaling-stroke;-inkscape-stroke:hairline;stroke-width:0.26458333;stroke-dasharray:none" />
    <path
       d="M 683.9099541588816,34.83268511895906 L 677.6557004894042,24.0 L 699.6594939571751,24.0 L 700.4127992597098,25.30476305760121 L 683.9099541588816,34.83268511895906 Z"
       id="path205"
       style="vector-effect:non-scaling-stroke;-inkscape-stroke:hairline;stroke-width:0.26458333;stroke-dasharray:none" />
    <path
       d="M 735.1861290061163,60.0780928040077 L 718.6832839052881,69.60601486536555 L 709.1553618439303,53.103169764537384 L 725.6582069447585,43.575247703179535 L 735.1861290061163,60.0780928040077 Z"
       id="path206"
       style="vector-effect:non-scaling-stroke;-inkscape-stroke:hairline;stroke-width:0.26458333;stroke-dasharray:none" />
    <path
       d="M 725.6582069447585,34.83268511895912 L 709.1553618439302,25.304763057601217 L 709.908667146465,24.0 L 731.912460614236,24.0 L 725.6582069447585,34.83268511895912 Z"
       id="path207"
       style="vector-effect:non-scaling-stroke;-inkscape-stroke:hairline;stroke-width:0.26458333;stroke-dasharray:none" />
    <path
       d="M 707.98408055182,32.01860693393189 L 720.4294882368687,39.20396641106933 L 707.9840805518202,46.389325888206734 L 707.98408055182,32.01860693393189 Z"
       id="path208"
       style="vector-effect:non-scaling-stroke;-inkscape-stroke:hairline;stroke-width:0.26458333;stroke-dasharray:none" />
    <path
       d="M 746.742769775364,42.40396641106933 L 739.5574102982265,54.84937409611794 L 732.372050821089,42.40396641106933 L 746.742769775364,42.40396641106933 Z"
       id="path209"
       style="vector-effect:non-scaling-stroke;-inkscape-stroke:hairline;stroke-width:0.26458333;stroke-dasharray:none" />
    <path
       d="M 746.742769775364,36.00396641106933 L 732.372050821089,36.00396641106933 L 739.3025440598632,24.0 L 739.8122765365898,24.0 L 746.742769775364,36.00396641106933 Z"
       id="path210"
       style="vector-effect:non-scaling-stroke;-inkscape-stroke:hairline;stroke-width:0.26458333;stroke-dasharray:none" />
    <path
       d="M 769.9594587525228,94.85142255041407 L 753.4566136516945,104.37934461177194 L 743.9286915903367,87.87649951094377 L 760.431536691165,78.34857744958592 L 769.9594587525228,94.85142255041407 Z"
       id="path211"
       style="vector-effect:non-scaling-stroke;-inkscape-stroke:hairline;stroke-width:0.26458333;stroke-dasharray:none" />
    <path
       d="M 769.9594587525228,53.10316976453734 L 760.431536691165,69.6060148653655 L 743.9286915903366,60.078092804007596 L 753.4566136516945,43.57524770317947 L 769.9594587525228,53.10316976453734 Z"
       id="path212"
       style="vector-effect:non-scaling-stroke;-inkscape-stroke:hairline;stroke-width:0.26458333;stroke-dasharray:none" />
    <path
       d="M 742.7574102982264,66.79193668033825 L 755.202817983275,73.9772961574757 L 742.7574102982265,81.16265563461312 L 742.7574102982264,66.79193668033825 Z"
       id="path213"
       style="vector-effect:non-scaling-stroke;-inkscape-stroke:hairline;stroke-width:0.26458333;stroke-dasharray:none" />
    <path
       d="M 781.5160995217705,77.17729615747571 L 774.330740044633,89.62270384252432 L 767.1453805674955,77.17729615747571 L 781.5160995217705,77.17729615747571 Z"
       id="path214"
       style="vector-effect:non-scaling-stroke;-inkscape-stroke:hairline;stroke-width:0.26458333;stroke-dasharray:none" />
    <path
       d="M 774.330740044633,58.33188847242709 L 781.5160995217705,70.7772961574757 L 767.1453805674955,70.7772961574757 L 774.330740044633,58.33188847242709 Z"
       id="path215"
       style="vector-effect:non-scaling-stroke;-inkscape-stroke:hairline;stroke-width:0.26458333;stroke-dasharray:none" />
    <path
       d="M 771.130740044633,46.38932588820666 L 758.6853323595843,39.20396641106922 L 771.130740044633,32.01860693393181 L 771.130740044633,46.38932588820666 Z"
       id="path216"
       style="vector-effect:non-scaling-stroke;-inkscape-stroke:hairline;stroke-width:0.26458333;stroke-dasharray:none" />
    <path
       d="M 804.7327884989292,129.62475229682056 L 788.2299433981009,139.15267435817844 L 778.7020213367431,122.64982925735026 L 795.2048664375714,113.12190719599239 L 804.7327884989292,129.62475229682056 Z"
       id="path217"
       style="vector-effect:non-scaling-stroke;-inkscape-stroke:hairline;stroke-width:0.26458333;stroke-dasharray:none" />
    <path
       d="M 804.7327884989293,87.87649951094382 L 795.2048664375714,104.37934461177198 L 778.7020213367432,94.85142255041409 L 788.229943398101,78.34857744958592 L 804.7327884989293,87.87649951094382 Z"
       id="path218"
       style="vector-effect:non-scaling-stroke;-inkscape-stroke:hairline;stroke-width:0.26458333;stroke-dasharray:none" />
    <path
       d="M 777.530740044633,101.56526642674474 L 789.9761477296815,108.75062590388218 L 777.5307400446329,115.93598538101959 L 777.530740044633,101.56526642674474 Z"
       id="path219"
       style="vector-effect:non-scaling-stroke;-inkscape-stroke:hairline;stroke-width:0.26458333;stroke-dasharray:none" />
    <path
       d="M 816.289429268177,111.9506259038822 L 809.1040697910394,124.39603358893083 L 801.9187103139019,111.9506259038822 L 816.289429268177,111.9506259038822 Z"
       id="path220"
       style="vector-effect:non-scaling-stroke;-inkscape-stroke:hairline;stroke-width:0.26458333;stroke-dasharray:none" />
    <path
       d="M 809.1040697910395,93.10521821883357 L 816.289429268177,105.55062590388219 L 801.9187103139019,105.55062590388219 L 809.1040697910395,93.10521821883357 Z"
       id="path221"
       style="vector-effect:non-scaling-stroke;-inkscape-stroke:hairline;stroke-width:0.26458333;stroke-dasharray:none" />
    <path
       d="M 805.9040697910394,81.16265563461315 L 793.4586621059908,73.9772961574757 L 805.9040697910393,66.7919366803383 L 805.9040697910394,81.16265563461315 Z"
       id="path222"
       style="vector-effect:non-scaling-stroke;-inkscape-stroke:hairline;stroke-width:0.26458333;stroke-dasharray:none" />
    <path
       d="M 839.5061182453356,122.6498292573503 L 829.9781961839777,139.15267435817847 L 813.4753510831496,129.6247522968206 L 823.0032731445075,113.1219071959924 L 839.5061182453356,122.6498292573503 Z"
       id="path223"
       style="vector-effect:non-scaling-stroke;-inkscape-stroke:hairline;stroke-width:0.26458333;stroke-dasharray:none" />
    <path
       d="M 824.7494774760879,143.52395565028868 L 823.9249444757319,144.0 L 812.3040697910394,144.0 L 812.3040697910394,136.33859617315125 L 824.7494774760879,143.52395565028868 Z"
       id="path224"
       style="vector-effect:non-scaling-stroke;-inkscape-stroke:hairline;stroke-width:0.26458333;stroke-dasharray:none" />
    <path
       d="M 843.8773995374459,127.87854796524007 L 851.0627590145833,140.32395565028867 L 836.6920400603085,140.32395565028864 L 843.8773995374459,127.87854796524007 Z"
       id="path225"
       style="vector-effect:non-scaling-stroke;-inkscape-stroke:hairline;stroke-width:0.26458333;stroke-dasharray:none" />
    <path
       d="M 840.6773995374458,115.93598538101963 L 828.2319918523973,108.7506259038822 L 840.6773995374458,101.5652664267448 L 840.6773995374458,115.93598538101963 Z"
       id="path226"
       style="vector-effect:non-scaling-stroke;-inkscape-stroke:hairline;stroke-width:0.26458333;stroke-dasharray:none" />
    <path
       d="M 863.0053215988037,143.52395565028868 L 875.4507292838523,136.33859617315127 L 875.4507292838523,144.0 L 863.8298545991597,144.0 L 863.0053215988037,143.52395565028868 Z"
       id="path227"
       style="vector-effect:non-scaling-stroke;-inkscape-stroke:hairline;stroke-width:0.26458333;stroke-dasharray:none" />
    <path
       d="M 753.4566136516945,34.83268511895912 L 747.202359982217,24.0 L 769.206153449988,24.0 L 769.9594587525228,25.304763057601257 L 753.4566136516945,34.83268511895912 Z"
       id="path228"
       style="vector-effect:non-scaling-stroke;-inkscape-stroke:hairline;stroke-width:0.26458333;stroke-dasharray:none" />
    <path
       d="M 804.7327884989292,60.078092804007646 L 788.229943398101,69.6060148653655 L 778.7020213367432,53.10316976453733 L 795.2048664375714,43.57524770317948 L 804.7327884989292,60.078092804007646 Z"
       id="path229"
       style="vector-effect:non-scaling-stroke;-inkscape-stroke:hairline;stroke-width:0.26458333;stroke-dasharray:none" />
    <path
       d="M 795.2048664375714,34.83268511895906 L 778.7020213367432,25.304763057601157 L 779.4553266392779,24.0 L 801.4591201070489,24.0 L 795.2048664375714,34.83268511895906 Z"
       id="path230"
       style="vector-effect:non-scaling-stroke;-inkscape-stroke:hairline;stroke-width:0.26458333;stroke-dasharray:none" />
    <path
       d="M 777.530740044633,32.01860693393183 L 789.9761477296815,39.20396641106926 L 777.530740044633,46.38932588820666 L 777.530740044633,32.01860693393183 Z"
       id="path231"
       style="vector-effect:non-scaling-stroke;-inkscape-stroke:hairline;stroke-width:0.26458333;stroke-dasharray:none" />
    <path
       d="M 816.289429268177,42.40396641106923 L 809.1040697910394,54.8493740961179 L 801.9187103139019,42.403966411069256 L 816.289429268177,42.40396641106923 Z"
       id="path232"
       style="vector-effect:non-scaling-stroke;-inkscape-stroke:hairline;stroke-width:0.26458333;stroke-dasharray:none" />
    <path
       d="M 816.289429268177,36.00396641106923 L 801.9187103139019,36.00396641106926 L 808.849203552676,24.0 L 809.3589360294029,24.0 L 816.289429268177,36.00396641106923 Z"
       id="path233"
       style="vector-effect:non-scaling-stroke;-inkscape-stroke:hairline;stroke-width:0.26458333;stroke-dasharray:none" />
    <path
       d="M 839.5061182453356,94.85142255041413 L 823.0032731445075,104.37934461177198 L 813.4753510831497,87.87649951094383 L 829.9781961839778,78.34857744958597 L 839.5061182453356,94.85142255041413 Z"
       id="path234"
       style="vector-effect:non-scaling-stroke;-inkscape-stroke:hairline;stroke-width:0.26458333;stroke-dasharray:none" />
    <path
       d="M 839.5061182453356,53.10316976453733 L 829.9781961839778,69.60601486536555 L 813.4753510831496,60.07809280400765 L 823.0032731445075,43.57524770317942 L 839.5061182453356,53.10316976453733 Z"
       id="path235"
       style="vector-effect:non-scaling-stroke;-inkscape-stroke:hairline;stroke-width:0.26458333;stroke-dasharray:none" />
    <path
       d="M 812.3040697910394,66.79193668033832 L 824.749477476088,73.97729615747576 L 812.3040697910395,81.16265563461317 L 812.3040697910394,66.79193668033832 Z"
       id="path236"
       style="vector-effect:non-scaling-stroke;-inkscape-stroke:hairline;stroke-width:0.26458333;stroke-dasharray:none" />
    <path
       d="M 851.0627590145833,77.17729615747571 L 843.8773995374459,89.62270384252434 L 836.6920400603085,77.17729615747571 L 851.0627590145833,77.17729615747571 Z"
       id="path237"
       style="vector-effect:non-scaling-stroke;-inkscape-stroke:hairline;stroke-width:0.26458333;stroke-dasharray:none" />
    <path
       d="M 843.8773995374459,58.33188847242711 L 851.0627590145833,70.7772961574757 L 836.6920400603085,70.7772961574757 L 843.8773995374459,58.33188847242711 Z"
       id="path238"
       style="vector-effect:non-scaling-stroke;-inkscape-stroke:hairline;stroke-width:0.26458333;stroke-dasharray:none" />
    <path
       d="M 840.6773995374458,46.38932588820667 L 828.2319918523973,39.20396641106923 L 840.6773995374459,32.01860693393182 L 840.6773995374458,46.38932588820667 Z"
       id="path239"
       style="vector-effect:non-scaling-stroke;-inkscape-stroke:hairline;stroke-width:0.26458333;stroke-dasharray:none" />
    <path
       d="M 874.2794479917421,129.62475229682062 L 857.7766028909139,139.1526743581785 L 848.2486808295561,122.64982925735032 L 864.7515259303843,113.12190719599245 L 874.2794479917421,129.62475229682062 Z"
       id="path240"
       style="vector-effect:non-scaling-stroke;-inkscape-stroke:hairline;stroke-width:0.26458333;stroke-dasharray:none" />
    <path
       d="M 874.2794479917422,87.87649951094383 L 864.7515259303843,104.37934461177204 L 848.2486808295561,94.85142255041413 L 857.7766028909139,78.34857744958592 L 874.2794479917422,87.87649951094383 Z"
       id="path241"
       style="vector-effect:non-scaling-stroke;-inkscape-stroke:hairline;stroke-width:0.26458333;stroke-dasharray:none" />
    <path
       d="M 847.0773995374459,101.5652664267448 L 859.5228072224945,108.75062590388225 L 847.0773995374459,115.93598538101966 L 847.0773995374459,101.5652664267448 Z"
       id="path242"
       style="vector-effect:non-scaling-stroke;-inkscape-stroke:hairline;stroke-width:0.26458333;stroke-dasharray:none" />
    <path
       d="M 885.8360887609899,111.95062590388221 L 878.6507292838523,124.39603358893088 L 871.4653698067149,111.95062590388224 L 885.8360887609899,111.95062590388221 Z"
       id="path243"
       style="vector-effect:non-scaling-stroke;-inkscape-stroke:hairline;stroke-width:0.26458333;stroke-dasharray:none" />
    <path
       d="M 878.6507292838525,93.10521821883357 L 885.8360887609899,105.5506259038822 L 871.4653698067149,105.55062590388223 L 878.6507292838525,93.10521821883357 Z"
       id="path244"
       style="vector-effect:non-scaling-stroke;-inkscape-stroke:hairline;stroke-width:0.26458333;stroke-dasharray:none" />
    <path
       d="M 875.4507292838524,81.16265563461316 L 863.0053215988038,73.9772961574757 L 875.4507292838523,66.7919366803383 L 875.4507292838524,81.16265563461316 Z"
       id="path245"
       style="vector-effect:non-scaling-stroke;-inkscape-stroke:hairline;stroke-width:0.26458333;stroke-dasharray:none" />
    <path
       d="M 909.0527777381486,122.64982925735032 L 899.5248556767909,139.1526743581785 L 883.0220105759626,129.62475229682062 L 892.5499326373205,113.1219071959924 L 909.0527777381486,122.64982925735032 Z"
       id="path246"
       style="vector-effect:non-scaling-stroke;-inkscape-stroke:hairline;stroke-width:0.26458333;stroke-dasharray:none" />
    <path
       d="M 894.296136968901,143.52395565028868 L 893.471603968545,144.0 L 881.8507292838524,144.0 L 881.8507292838524,136.33859617315125 L 894.296136968901,143.52395565028868 Z"
       id="path247"
       style="vector-effect:non-scaling-stroke;-inkscape-stroke:hairline;stroke-width:0.26458333;stroke-dasharray:none" />
    <path
       d="M 913.4240590302588,127.87854796524009 L 920.6094185073963,140.32395565028867 L 906.2386995531215,140.32395565028867 L 913.4240590302588,127.87854796524009 Z"
       id="path248"
       style="vector-effect:non-scaling-stroke;-inkscape-stroke:hairline;stroke-width:0.26458333;stroke-dasharray:none" />
    <path
       d="M 910.2240590302588,115.93598538101963 L 897.7786513452103,108.7506259038822 L 910.2240590302588,101.56526642674476 L 910.2240590302588,115.93598538101963 Z"
       id="path249"
       style="vector-effect:non-scaling-stroke;-inkscape-stroke:hairline;stroke-width:0.26458333;stroke-dasharray:none" />
    <path
       d="M 932.5519810916167,143.52395565028868 L 944.9973887766652,136.33859617315127 L 944.9973887766653,144.0 L 933.3765140919727,144.0 L 932.5519810916167,143.52395565028868 Z"
       id="path250"
       style="vector-effect:non-scaling-stroke;-inkscape-stroke:hairline;stroke-width:0.26458333;stroke-dasharray:none" />
    <path
       d="M 823.0032731445074,34.83268511895906 L 816.74901947503,24.0 L 838.7528129428009,24.0 L 839.5061182453356,25.3047630576012 L 823.0032731445074,34.83268511895906 Z"
       id="path251"
       style="vector-effect:non-scaling-stroke;-inkscape-stroke:hairline;stroke-width:0.26458333;stroke-dasharray:none" />
    <path
       d="M 874.279447991742,60.078092804007696 L 857.7766028909138,69.60601486536555 L 848.248680829556,53.1031697645374 L 864.7515259303842,43.57524770317953 L 874.279447991742,60.078092804007696 Z"
       id="path252"
       style="vector-effect:non-scaling-stroke;-inkscape-stroke:hairline;stroke-width:0.26458333;stroke-dasharray:none" />
    <path
       d="M 864.7515259303842,34.83268511895912 L 848.2486808295561,25.304763057601217 L 849.0019861320908,24.0 L 871.0057795998617,24.0 L 864.7515259303842,34.83268511895912 Z"
       id="path253"
       style="vector-effect:non-scaling-stroke;-inkscape-stroke:hairline;stroke-width:0.26458333;stroke-dasharray:none" />
    <path
       d="M 847.0773995374459,32.01860693393187 L 859.5228072224944,39.20396641106931 L 847.0773995374458,46.38932588820671 L 847.0773995374459,32.01860693393187 Z"
       id="path254"
       style="vector-effect:non-scaling-stroke;-inkscape-stroke:hairline;stroke-width:0.26458333;stroke-dasharray:none" />
    <path
       d="M 885.8360887609898,42.40396641106931 L 878.6507292838522,54.84937409611794 L 871.4653698067149,42.403966411069284 L 885.8360887609898,42.40396641106931 Z"
       id="path255"
       style="vector-effect:non-scaling-stroke;-inkscape-stroke:hairline;stroke-width:0.26458333;stroke-dasharray:none" />
    <path
       d="M 885.8360887609898,36.003966411069314 L 871.4653698067149,36.003966411069285 L 878.395863045489,24.0 L 878.9055955222157,24.0 L 885.8360887609898,36.003966411069314 Z"
       id="path256"
       style="vector-effect:non-scaling-stroke;-inkscape-stroke:hairline;stroke-width:0.26458333;stroke-dasharray:none" />
    <path
       d="M 909.0527777381484,94.85142255041418 L 892.5499326373202,104.37934461177204 L 883.0220105759626,87.87649951094389 L 899.5248556767907,78.34857744958603 L 909.0527777381484,94.85142255041418 Z"
       id="path257"
       style="vector-effect:non-scaling-stroke;-inkscape-stroke:hairline;stroke-width:0.26458333;stroke-dasharray:none" />
    <path
       d="M 909.0527777381485,53.10316976453744 L 899.5248556767907,69.60601486536561 L 883.0220105759624,60.07809280400771 L 892.5499326373204,43.575247703179535 L 909.0527777381485,53.10316976453744 Z"
       id="path258"
       style="vector-effect:non-scaling-stroke;-inkscape-stroke:hairline;stroke-width:0.26458333;stroke-dasharray:none" />
    <path
       d="M 881.8507292838523,66.79193668033838 L 894.2961369689009,73.97729615747582 L 881.8507292838524,81.16265563461323 L 881.8507292838523,66.79193668033838 Z"
       id="path259"
       style="vector-effect:non-scaling-stroke;-inkscape-stroke:hairline;stroke-width:0.26458333;stroke-dasharray:none" />
    <path
       d="M 920.6094185073962,77.17729615747582 L 913.4240590302586,89.62270384252443 L 906.2386995531213,77.17729615747582 L 920.6094185073962,77.17729615747582 Z"
       id="path260"
       style="vector-effect:non-scaling-stroke;-inkscape-stroke:hairline;stroke-width:0.26458333;stroke-dasharray:none" />
    <path
       d="M 913.4240590302587,58.3318884724272 L 920.6094185073962,70.77729615747582 L 906.2386995531213,70.77729615747582 L 913.4240590302587,58.3318884724272 Z"
       id="path261"
       style="vector-effect:non-scaling-stroke;-inkscape-stroke:hairline;stroke-width:0.26458333;stroke-dasharray:none" />
    <path
       d="M 910.2240590302587,46.38932588820677 L 897.7786513452102,39.20396641106933 L 910.2240590302587,32.018606933931935 L 910.2240590302587,46.38932588820677 Z"
       id="path262"
       style="vector-effect:non-scaling-stroke;-inkscape-stroke:hairline;stroke-width:0.26458333;stroke-dasharray:none" />
    <path
       d="M 943.826107484555,129.62475229682062 L 927.3232623837268,139.15267435817847 L 917.795340322369,122.64982925735032 L 934.2981854231972,113.12190719599246 L 943.826107484555,129.62475229682062 Z"
       id="path263"
       style="vector-effect:non-scaling-stroke;-inkscape-stroke:hairline;stroke-width:0.26458333;stroke-dasharray:none" />
    <path
       d="M 943.8261074845549,87.87649951094394 L 934.2981854231972,104.37934461177205 L 917.7953403223688,94.85142255041418 L 927.3232623837267,78.34857744958603 L 943.8261074845549,87.87649951094394 Z"
       id="path264"
       style="vector-effect:non-scaling-stroke;-inkscape-stroke:hairline;stroke-width:0.26458333;stroke-dasharray:none" />
    <path
       d="M 916.6240590302586,101.56526642674486 L 929.0694667153073,108.75062590388227 L 916.6240590302589,115.93598538101968 L 916.6240590302586,101.56526642674486 Z"
       id="path265"
       style="vector-effect:non-scaling-stroke;-inkscape-stroke:hairline;stroke-width:0.26458333;stroke-dasharray:none" />
    <path
       d="M 955.3827482538027,111.9506259038823 L 948.1973887766652,124.39603358893088 L 941.0120292995277,111.95062590388227 L 955.3827482538027,111.9506259038823 Z"
       id="path266"
       style="vector-effect:non-scaling-stroke;-inkscape-stroke:hairline;stroke-width:0.26458333;stroke-dasharray:none" />
    <path
       d="M 948.1973887766651,93.10521821883368 L 955.3827482538027,105.55062590388229 L 941.0120292995277,105.55062590388226 L 948.1973887766651,93.10521821883368 Z"
       id="path267"
       style="vector-effect:non-scaling-stroke;-inkscape-stroke:hairline;stroke-width:0.26458333;stroke-dasharray:none" />
    <path
       d="M 944.997388776665,81.16265563461329 L 932.5519810916165,73.97729615747583 L 944.9973887766653,66.79193668033838 L 944.997388776665,81.16265563461329 Z"
       id="path268"
       style="vector-effect:non-scaling-stroke;-inkscape-stroke:hairline;stroke-width:0.26458333;stroke-dasharray:none" />
    <path
       d="M 978.5994372309615,122.64982925735043 L 969.0715151696037,139.15267435817861 L 952.5686700687754,129.62475229682065 L 962.0965921301332,113.12190719599252 L 978.5994372309615,122.64982925735043 Z"
       id="path269"
       style="vector-effect:non-scaling-stroke;-inkscape-stroke:hairline;stroke-width:0.26458333;stroke-dasharray:none" />
    <path
       d="M 963.8427964617139,143.52395565028883 L 963.0182634613581,144.0 L 951.3973887766651,144.0 L 951.3973887766653,136.3385961731513 L 963.8427964617139,143.52395565028883 Z"
       id="path270"
       style="vector-effect:non-scaling-stroke;-inkscape-stroke:hairline;stroke-width:0.26458333;stroke-dasharray:none" />
    <path
       d="M 982.9707185230717,127.87854796524019 L 990.1560780002092,140.3239556502888 L 975.7853590459342,140.32395565028884 L 982.9707185230717,127.87854796524019 Z"
       id="path271"
       style="vector-effect:non-scaling-stroke;-inkscape-stroke:hairline;stroke-width:0.26458333;stroke-dasharray:none" />
    <path
       d="M 979.7707185230717,115.93598538101975 L 967.325310838023,108.75062590388231 L 979.7707185230715,101.5652664267449 L 979.7707185230717,115.93598538101975 Z"
       id="path272"
       style="vector-effect:non-scaling-stroke;-inkscape-stroke:hairline;stroke-width:0.26458333;stroke-dasharray:none" />
    <path
       d="M 1002.0986405844295,143.5239556502888 L 1010.054722596873,138.93050955870976 L 1010.054722596873,144.0 L 1002.9231735847854,144.0 L 1002.0986405844295,143.5239556502888 Z"
       id="path273"
       style="vector-effect:non-scaling-stroke;-inkscape-stroke:hairline;stroke-width:0.26458333;stroke-dasharray:none" />
    <path
       d="M 892.5499326373204,34.83268511895912 L 886.2956789678428,24.0 L 908.2994724356138,24.0 L 909.0527777381485,25.304763057601267 L 892.5499326373204,34.83268511895912 Z"
       id="path274"
       style="vector-effect:non-scaling-stroke;-inkscape-stroke:hairline;stroke-width:0.26458333;stroke-dasharray:none" />
    <path
       d="M 943.826107484555,60.07809280400775 L 927.3232623837267,69.60601486536561 L 917.7953403223689,53.103169764537455 L 934.2981854231972,43.575247703179585 L 943.826107484555,60.07809280400775 Z"
       id="path275"
       style="vector-effect:non-scaling-stroke;-inkscape-stroke:hairline;stroke-width:0.26458333;stroke-dasharray:none" />
    <path
       d="M 934.2981854231972,34.832685118959176 L 917.7953403223689,25.304763057601264 L 918.5486456249037,24.0 L 940.5524390926747,24.0 L 934.2981854231972,34.832685118959176 Z"
       id="path276"
       style="vector-effect:non-scaling-stroke;-inkscape-stroke:hairline;stroke-width:0.26458333;stroke-dasharray:none" />
    <path
       d="M 916.6240590302588,32.018606933931935 L 929.0694667153074,39.20396641106937 L 916.6240590302588,46.389325888206784 L 916.6240590302588,32.018606933931935 Z"
       id="path277"
       style="vector-effect:non-scaling-stroke;-inkscape-stroke:hairline;stroke-width:0.26458333;stroke-dasharray:none" />
    <path
       d="M 955.3827482538028,42.40396641106933 L 948.1973887766652,54.84937409611799 L 941.0120292995279,42.40396641106933 L 955.3827482538028,42.40396641106933 Z"
       id="path278"
       style="vector-effect:non-scaling-stroke;-inkscape-stroke:hairline;stroke-width:0.26458333;stroke-dasharray:none" />
    <path
       d="M 955.3827482538028,36.00396641106933 L 941.0120292995279,36.00396641106933 L 947.942522538302,24.0 L 948.4522550150286,24.0 L 955.3827482538028,36.00396641106933 Z"
       id="path279"
       style="vector-effect:non-scaling-stroke;-inkscape-stroke:hairline;stroke-width:0.26458333;stroke-dasharray:none" />
    <path
       d="M 978.5994372309614,94.85142255041424 L 962.0965921301332,104.3793446117721 L 952.5686700687753,87.87649951094394 L 969.0715151696037,78.34857744958609 L 978.5994372309614,94.85142255041424 Z"
       id="path280"
       style="vector-effect:non-scaling-stroke;-inkscape-stroke:hairline;stroke-width:0.26458333;stroke-dasharray:none" />
    <path
       d="M 978.5994372309615,53.10316976453744 L 969.0715151696037,69.60601486536567 L 952.5686700687755,60.07809280400772 L 962.0965921301333,43.57524770317954 L 978.5994372309615,53.10316976453744 Z"
       id="path281"
       style="vector-effect:non-scaling-stroke;-inkscape-stroke:hairline;stroke-width:0.26458333;stroke-dasharray:none" />
    <path
       d="M 951.3973887766654,66.79193668033835 L 963.8427964617139,73.97729615747585 L 951.3973887766651,81.16265563461326 L 951.3973887766654,66.79193668033835 Z"
       id="path282"
       style="vector-effect:non-scaling-stroke;-inkscape-stroke:hairline;stroke-width:0.26458333;stroke-dasharray:none" />
    <path
       d="M 990.1560780002092,77.17729615747582 L 982.9707185230716,89.62270384252449 L 975.7853590459342,77.17729615747582 L 990.1560780002092,77.17729615747582 Z"
       id="path283"
       style="vector-effect:non-scaling-stroke;-inkscape-stroke:hairline;stroke-width:0.26458333;stroke-dasharray:none" />
    <path
       d="M 982.9707185230717,58.33188847242721 L 990.1560780002092,70.77729615747583 L 975.7853590459342,70.77729615747586 L 982.9707185230717,58.33188847242721 Z"
       id="path284"
       style="vector-effect:non-scaling-stroke;-inkscape-stroke:hairline;stroke-width:0.26458333;stroke-dasharray:none" />
    <path
       d="M 979.7707185230717,46.38932588820677 L 967.3253108380231,39.20396641106933 L 979.7707185230717,32.018606933931935 L 979.7707185230717,46.38932588820677 Z"
       id="path285"
       style="vector-effect:non-scaling-stroke;-inkscape-stroke:hairline;stroke-width:0.26458333;stroke-dasharray:none" />
    <path
       d="M 996.8699218765398,139.15267435817853 L 987.341999815182,122.64982925735038 L 1003.8448449160102,113.12190719599252 L 1010.054722596873,123.87773084803514 L 1010.054722596873,131.5404261130825 L 996.8699218765398,139.15267435817853 Z"
       id="path286"
       style="vector-effect:non-scaling-stroke;-inkscape-stroke:hairline;stroke-width:0.26458333;stroke-dasharray:none" />
    <path
       d="M 1003.8448449160102,104.37934461177211 L 987.3419998151818,94.85142255041424 L 996.8699218765397,78.34857744958603 L 1010.054722596873,85.96082569468211 L 1010.054722596873,93.62352095972948 L 1003.8448449160102,104.37934461177211 Z"
       id="path287"
       style="vector-effect:non-scaling-stroke;-inkscape-stroke:hairline;stroke-width:0.26458333;stroke-dasharray:none" />
    <path
       d="M 986.1707185230716,101.56526642674491 L 998.6161262081202,108.75062590388232 L 986.1707185230719,115.93598538101973 L 986.1707185230716,101.56526642674491 Z"
       id="path288"
       style="vector-effect:non-scaling-stroke;-inkscape-stroke:hairline;stroke-width:0.26458333;stroke-dasharray:none" />
    <path
       d="M 1002.0986405844295,73.97729615747582 L 1010.054722596873,69.38385006589678 L 1010.054722596873,78.57074224905486 L 1002.0986405844295,73.97729615747582 Z"
       id="path289"
       style="vector-effect:non-scaling-stroke;-inkscape-stroke:hairline;stroke-width:0.26458333;stroke-dasharray:none" />
    <path
       d="M 962.0965921301333,34.83268511895912 L 955.8423384606558,24.0 L 977.8461319284268,24.0 L 978.5994372309615,25.304763057601267 L 962.0965921301333,34.83268511895912 Z"
       id="path290"
       style="vector-effect:non-scaling-stroke;-inkscape-stroke:hairline;stroke-width:0.26458333;stroke-dasharray:none" />
    <path
       d="M 996.8699218765398,69.60601486536555 L 987.341999815182,53.103169764537384 L 1003.8448449160102,43.57524770317954 L 1010.054722596873,54.33107135522218 L 1010.054722596873,61.99376662026953 L 996.8699218765398,69.60601486536555 Z"
       id="path291"
       style="vector-effect:non-scaling-stroke;-inkscape-stroke:hairline;stroke-width:0.26458333;stroke-dasharray:none" />
    <path
       d="M 1003.8448449160102,34.83268511895912 L 987.3419998151819,25.304763057601257 L 988.0953051177166,24.0 L 1010.054722596873,24.0 L 1010.054722596873,24.076861466916522 L 1003.8448449160102,34.83268511895912 Z"
       id="path292"
       style="vector-effect:non-scaling-stroke;-inkscape-stroke:hairline;stroke-width:0.26458333;stroke-dasharray:none" />
    <path
       d="M 986.1707185230717,32.018606933931935 L 998.6161262081204,39.20396641106934 L 986.1707185230719,46.389325888206734 L 986.1707185230717,32.018606933931935 Z"
       id="path293"
       style="vector-effect:non-scaling-stroke;-inkscape-stroke:hairline;stroke-width:0.26458333;stroke-dasharray:none" />
    <path
       d="M 117.05472259687303,170.0 L 1025.054722596873,170.0 L 1025.054722596873,0.0 L 117.05472259687303,0.0 L 117.05472259687303,170.0 Z"
       id="path294"
       style="vector-effect:non-scaling-stroke;-inkscape-stroke:hairline;stroke-width:0.26458333;stroke-dasharray:none" />
  </g>
</svg>
