<?xml version="1.0" encoding="utf-8" ?>
<svg baseProfile="full" height="300mm" version="1.1" viewBox="0 0 1200 300" width="1200mm" xmlns="http://www.w3.org/2000/svg" xmlns:ev="http://www.w3.org/2001/xml-events" xmlns:xlink="http://www.w3.org/1999/xlink"><defs /><g fill="none" stroke="blue" stroke-width="0.5" transform="translate(27.945277403126966,61.0)"><path d="M 179.98413435572306,150.7093151274261 L 167.53872667067444,143.52395565028863 L 179.98413435572309,136.3385961731512 L 179.98413435572306,150.7093151274261 Z" /><path d="M 178.81285306361283,129.6247522968206 L 162.31000796278468,139.15267435817842 L 152.78208590142683,122.64982925735023 L 169.28493100225498,113.12190719599239 L 178.81285306361283,129.6247522968206 Z" /><path d="M 178.81285306361283,87.87649951094376 L 169.28493100225498,104.37934461177198 L 152.78208590142683,94.8514225504141 L 162.31000796278468,78.3485774495859 L 178.81285306361283,87.87649951094376 Z" /><path d="M 151.6108046093166,101.5652664267447 L 164.05621229436522,108.75062590388218 L 151.61080460931657,115.93598538101962 L 151.6108046093166,101.5652664267447 Z" /><path d="M 190.3694938328605,111.95062590388218 L 183.18413435572305,124.39603358893076 L 175.9987748785856,111.95062590388218 L 190.3694938328605,111.95062590388218 Z" /><path d="M 183.18413435572305,93.10521821883358 L 190.36949383286048,105.55062590388218 L 175.9987748785856,105.55062590388215 L 183.18413435572305,93.10521821883358 Z" /><path d="M 179.98413435572306,81.16265563461316 L 167.53872667067444,73.97729615747568 L 179.98413435572306,66.79193668033825 L 179.98413435572306,81.16265563461316 Z" /><path d="M 213.58618281001932,122.64982925735025 L 204.05826074866147,139.15267435817844 L 187.55541564783329,129.6247522968206 L 197.08333770919114,113.12190719599239 L 213.58618281001932,122.64982925735025 Z" /><path d="M 186.38413435572306,136.33859617315116 L 198.82954204077168,143.52395565028866 L 186.38413435572303,150.70931512742612 L 186.38413435572306,136.33859617315116 Z" /><path d="M 217.95746410212953,127.87854796524007 L 225.14282357926695,140.32395565028864 L 210.7721046249921,140.3239556502886 L 217.95746410212953,127.87854796524007 Z" /><path d="M 214.75746410212955,115.93598538101965 L 202.31205641708092,108.75062590388218 L 214.75746410212955,101.56526642674471 L 214.75746410212955,115.93598538101965 Z" /><path d="M 249.53079384853598,150.70931512742612 L 237.08538616348733,143.52395565028863 L 249.53079384853598,136.3385961731512 L 249.53079384853598,150.70931512742612 Z" /><path d="M 178.81285306361283,60.078092804007625 L 162.31000796278465,69.60601486536547 L 152.7820859014268,53.10316976453727 L 169.28493100225498,43.575247703179436 L 178.81285306361283,60.078092804007625 Z" /><path d="M 151.61080460931657,32.01860693393176 L 164.0562122943652,39.20396641106922 L 151.61080460931657,46.389325888206656 L 151.61080460931657,32.01860693393176 Z" /><path d="M 190.36949383286048,42.40396641106922 L 183.18413435572305,54.8493740961178 L 175.9987748785856,42.40396641106922 L 190.36949383286048,42.40396641106922 Z" /><path d="M 213.5861828100193,94.8514225504141 L 197.0833377091911,104.37934461177194 L 187.55541564783326,87.87649951094376 L 204.05826074866144,78.34857744958592 L 213.5861828100193,94.8514225504141 Z" /><path d="M 213.58618281001932,53.10316976453727 L 204.05826074866144,69.6060148653655 L 187.55541564783326,60.07809280400765 L 197.08333770919114,43.57524770317942 L 213.58618281001932,53.10316976453727 Z" /><path d="M 186.38413435572303,66.79193668033824 L 198.82954204077166,73.9772961574757 L 186.38413435572303,81.16265563461315 L 186.38413435572303,66.79193668033824 Z" /><path d="M 225.14282357926695,77.1772961574757 L 217.9574641021295,89.62270384252429 L 210.7721046249921,77.17729615747571 L 225.14282357926695,77.1772961574757 Z" /><path d="M 217.9574641021295,58.33188847242707 L 225.14282357926695,70.77729615747569 L 210.77210462499204,70.77729615747569 L 217.9574641021295,58.33188847242707 Z" /><path d="M 214.75746410212955,46.38932588820667 L 202.31205641708092,39.2039664110692 L 214.75746410212955,32.01860693393177 L 214.75746410212955,46.38932588820667 Z" /><path d="M 248.35951255642576,129.6247522968206 L 231.8566674555976,139.15267435817844 L 222.32874539423975,122.64982925735025 L 238.83159049506793,113.12190719599239 L 248.35951255642576,129.6247522968206 Z" /><path d="M 248.35951255642576,87.87649951094376 L 238.8315904950679,104.37934461177198 L 222.32874539423975,94.85142255041413 L 231.8566674555976,78.3485774495859 L 248.35951255642576,87.87649951094376 Z" /><path d="M 221.15746410212952,101.56526642674473 L 233.60287178717812,108.7506259038822 L 221.1574641021295,115.93598538101963 L 221.15746410212952,101.56526642674473 Z" /><path d="M 259.9161533256734,111.95062590388218 L 252.73079384853597,124.39603358893076 L 245.54543437139856,111.95062590388218 L 259.9161533256734,111.95062590388218 Z" /><path d="M 252.73079384853597,93.10521821883358 L 259.9161533256734,105.55062590388218 L 245.54543437139853,105.55062590388215 L 252.73079384853597,93.10521821883358 Z" /><path d="M 249.53079384853598,81.16265563461316 L 237.08538616348739,73.9772961574757 L 249.53079384853598,66.79193668033827 L 249.53079384853598,81.16265563461316 Z" /><path d="M 283.1328423028322,122.64982925735023 L 273.60492024147436,139.15267435817842 L 257.10207514064615,129.62475229682056 L 266.62999720200395,113.12190719599234 L 283.1328423028322,122.64982925735023 Z" /><path d="M 255.93079384853596,136.33859617315116 L 268.37620153358455,143.52395565028863 L 255.93079384853596,150.70931512742607 L 255.93079384853596,136.33859617315116 Z" /><path d="M 287.5041235949424,127.87854796524 L 294.6894830720799,140.32395565028864 L 280.31876411780496,140.3239556502886 L 287.5041235949424,127.87854796524 Z" /><path d="M 284.30412359494244,115.9359853810196 L 271.8587159098938,108.75062590388212 L 284.3041235949424,101.56526642674471 L 284.30412359494244,115.9359853810196 Z" /><path d="M 319.0774533413489,150.70931512742607 L 306.6320456563003,143.52395565028866 L 319.07745334134887,136.3385961731512 L 319.0774533413489,150.70931512742607 Z" /><path d="M 248.35951255642576,60.07809280400765 L 231.85666745559757,69.6060148653655 L 222.32874539423972,53.10316976453731 L 238.8315904950679,43.575247703179464 L 248.35951255642576,60.07809280400765 Z" /><path d="M 221.15746410212952,32.01860693393178 L 233.60287178717812,39.203966411069246 L 221.15746410212947,46.38932588820669 L 221.15746410212952,32.01860693393178 Z" /><path d="M 259.9161533256734,42.403966411069256 L 252.73079384853597,54.84937409611783 L 245.54543437139853,42.403966411069256 L 259.9161533256734,42.403966411069256 Z" /><path d="M 283.1328423028322,94.85142255041411 L 266.62999720200395,104.37934461177197 L 257.10207514064615,87.8764995109438 L 273.6049202414744,78.34857744958595 L 283.1328423028322,94.85142255041411 Z" /><path d="M 283.1328423028322,53.10316976453734 L 273.6049202414744,69.60601486536555 L 257.10207514064615,60.078092804007674 L 266.62999720200395,43.575247703179464 L 283.1328423028322,53.10316976453734 Z" /><path d="M 255.93079384853596,66.79193668033828 L 268.37620153358455,73.97729615747573 L 255.93079384853596,81.16265563461317 L 255.93079384853596,66.79193668033828 Z" /><path d="M 294.6894830720799,77.17729615747574 L 287.5041235949424,89.62270384252437 L 280.31876411780496,77.17729615747575 L 294.6894830720799,77.17729615747574 Z" /><path d="M 287.5041235949424,58.33188847242708 L 294.6894830720799,70.77729615747573 L 280.3187641178049,70.77729615747572 L 287.5041235949424,58.33188847242708 Z" /><path d="M 284.30412359494244,46.3893258882067 L 271.8587159098938,39.203966411069246 L 284.30412359494244,32.01860693393182 L 284.30412359494244,46.3893258882067 Z" /><path d="M 317.9061720492386,129.6247522968206 L 301.40332694841044,139.15267435817844 L 291.87540488705264,122.64982925735025 L 308.3782499878808,113.12190719599239 L 317.9061720492386,129.6247522968206 Z" /><path d="M 317.90617204923865,87.8764995109438 L 308.3782499878808,104.37934461177197 L 291.8754048870526,94.85142255041409 L 301.4033269484104,78.3485774495859 L 317.90617204923865,87.8764995109438 Z" /><path d="M 290.70412359494236,101.56526642674473 L 303.1495312799909,108.75062590388218 L 290.7041235949424,115.93598538101962 L 290.70412359494236,101.56526642674473 Z" /><path d="M 329.46281281848627,111.95062590388217 L 322.2774533413488,124.39603358893082 L 315.09209386421134,111.95062590388218 L 329.46281281848627,111.95062590388217 Z" /><path d="M 322.27745334134886,93.10521821883354 L 329.4628128184863,105.55062590388216 L 315.0920938642114,105.55062590388218 L 322.27745334134886,93.10521821883354 Z" /><path d="M 319.07745334134887,81.16265563461315 L 306.6320456563003,73.97729615747568 L 319.07745334134887,66.79193668033827 L 319.07745334134887,81.16265563461315 Z" /><path d="M 352.67950179564514,122.64982925735028 L 343.1515797342873,139.15267435817844 L 326.648734633459,129.6247522968206 L 336.17665669481687,113.12190719599238 L 352.67950179564514,122.64982925735028 Z" /><path d="M 325.4774533413488,136.33859617315122 L 337.9228610263974,143.52395565028866 L 325.47745334134885,150.70931512742612 L 325.4774533413488,136.33859617315122 Z" /><path d="M 357.05078308775535,127.87854796524003 L 364.2361425648928,140.32395565028867 L 349.8654236106179,140.32395565028867 L 357.05078308775535,127.87854796524003 Z" /><path d="M 353.85078308775536,115.93598538101963 L 341.40537540270674,108.75062590388215 L 353.8507830877553,101.56526642674473 L 353.85078308775536,115.93598538101963 Z" /><path d="M 388.6241128341618,150.70931512742612 L 376.1787051491132,143.52395565028866 L 388.6241128341618,136.33859617315122 L 388.6241128341618,150.70931512742612 Z" /><path d="M 317.90617204923865,60.07809280400764 L 301.40332694841044,69.6060148653655 L 291.87540488705264,53.10316976453733 L 308.37824998788085,43.57524770317948 L 317.90617204923865,60.07809280400764 Z" /><path d="M 290.7041235949424,32.01860693393183 L 303.149531279991,39.20396641106927 L 290.7041235949424,46.389325888206685 L 290.7041235949424,32.01860693393183 Z" /><path d="M 329.4628128184863,42.40396641106925 L 322.27745334134886,54.84937409611789 L 315.0920938642114,42.40396641106926 L 329.4628128184863,42.40396641106925 Z" /><path d="M 352.6795017956451,94.85142255041407 L 336.17665669481687,104.37934461177193 L 326.64873463345907,87.87649951094376 L 343.1515797342873,78.34857744958592 L 352.6795017956451,94.85142255041407 Z" /><path d="M 352.67950179564514,53.1031697645373 L 343.1515797342873,69.6060148653655 L 326.64873463345907,60.07809280400764 L 336.17665669481687,43.57524770317942 L 352.67950179564514,53.1031697645373 Z" /><path d="M 325.47745334134885,66.79193668033827 L 337.9228610263974,73.9772961574757 L 325.47745334134885,81.16265563461312 L 325.47745334134885,66.79193668033827 Z" /><path d="M 364.23614256489276,77.1772961574757 L 357.0507830877553,89.62270384252432 L 349.8654236106178,77.1772961574757 L 364.23614256489276,77.1772961574757 Z" /><path d="M 357.05078308775535,58.33188847242705 L 364.2361425648928,70.77729615747569 L 349.8654236106179,70.77729615747569 L 357.05078308775535,58.33188847242705 Z" /><path d="M 353.85078308775536,46.38932588820666 L 341.4053754027068,39.2039664110692 L 353.85078308775536,32.0186069339318 L 353.85078308775536,46.38932588820666 Z" /><path d="M 387.45283154205157,129.62475229682056 L 370.9499864412233,139.15267435817844 L 361.4220643798655,122.64982925735026 L 377.92490948069377,113.12190719599239 L 387.45283154205157,129.62475229682056 Z" /><path d="M 387.45283154205157,87.8764995109438 L 377.92490948069377,104.37934461177198 L 361.4220643798655,94.85142255041409 L 370.94998644122336,78.34857744958589 L 387.45283154205157,87.8764995109438 Z" /><path d="M 360.2507830877553,101.56526642674471 L 372.6961907728039,108.7506259038822 L 360.2507830877553,115.93598538101963 L 360.2507830877553,101.56526642674471 Z" /><path d="M 399.00947231129925,111.95062590388217 L 391.8241128341618,124.3960335889308 L 384.6387533570243,111.9506259038822 L 399.00947231129925,111.95062590388217 Z" /><path d="M 391.8241128341618,93.10521821883356 L 399.00947231129925,105.55062590388216 L 384.6387533570243,105.55062590388219 L 391.8241128341618,93.10521821883356 Z" /><path d="M 388.6241128341618,81.16265563461315 L 376.1787051491132,73.97729615747568 L 388.6241128341618,66.79193668033824 L 388.6241128341618,81.16265563461315 Z" /><path d="M 422.22616128845806,122.64982925735028 L 412.6982392271002,139.15267435817844 L 396.195394126272,129.62475229682056 L 405.7233161876298,113.12190719599238 L 422.22616128845806,122.64982925735028 Z" /><path d="M 395.02411283416177,136.3385961731512 L 407.46952051921033,143.52395565028866 L 395.02411283416177,150.7093151274261 L 395.02411283416177,136.3385961731512 Z" /><path d="M 426.59744258056827,127.87854796524003 L 433.78280205770574,140.32395565028867 L 419.4120831034308,140.3239556502886 L 426.59744258056827,127.87854796524003 Z" /><path d="M 423.3974425805683,115.93598538101965 L 410.95203489551966,108.75062590388217 L 423.3974425805682,101.56526642674473 L 423.3974425805683,115.93598538101965 Z" /><path d="M 458.1707723269747,150.70931512742612 L 445.72536464192615,143.52395565028866 L 458.1707723269747,136.33859617315122 L 458.1707723269747,150.70931512742612 Z" /><path d="M 387.45283154205157,60.07809280400761 L 370.94998644122336,69.60601486536547 L 361.42206437986556,53.103169764537306 L 377.92490948069377,43.57524770317945 L 387.45283154205157,60.07809280400761 Z" /><path d="M 360.2507830877553,32.01860693393179 L 372.6961907728039,39.203966411069246 L 360.25078308775534,46.389325888206685 L 360.2507830877553,32.01860693393179 Z" /><path d="M 399.00947231129925,42.40396641106922 L 391.8241128341618,54.84937409611786 L 384.6387533570243,42.403966411069234 L 399.00947231129925,42.40396641106922 Z" /><path d="M 422.226161288458,94.8514225504141 L 405.7233161876298,104.37934461177196 L 396.195394126272,87.8764995109438 L 412.6982392271002,78.34857744958595 L 422.226161288458,94.8514225504141 Z" /><path d="M 422.22616128845806,53.10316976453733 L 412.6982392271002,69.60601486536552 L 396.195394126272,60.078092804007625 L 405.72331618762985,43.57524770317942 L 422.22616128845806,53.10316976453733 Z" /><path d="M 395.02411283416177,66.79193668033827 L 407.46952051921033,73.97729615747573 L 395.02411283416177,81.16265563461317 L 395.02411283416177,66.79193668033827 Z" /><path d="M 433.7828020577057,77.17729615747572 L 426.5974425805682,89.62270384252434 L 419.41208310343075,77.17729615747572 L 433.7828020577057,77.17729615747572 Z" /><path d="M 426.59744258056827,58.33188847242708 L 433.78280205770574,70.77729615747572 L 419.4120831034308,70.77729615747572 L 426.59744258056827,58.33188847242708 Z" /><path d="M 423.3974425805683,46.38932588820669 L 410.9520348955197,39.203966411069224 L 423.3974425805683,32.018606933931785 L 423.3974425805683,46.38932588820669 Z" /><path d="M 456.99949103486455,129.62475229682056 L 440.4966459340363,139.15267435817844 L 430.9687238726785,122.64982925735029 L 447.47156897350675,113.1219071959924 L 456.99949103486455,129.62475229682056 Z" /><path d="M 456.99949103486455,87.87649951094383 L 447.4715689735067,104.37934461177201 L 430.9687238726784,94.85142255041411 L 440.4966459340363,78.34857744958592 L 456.99949103486455,87.87649951094383 Z" /><path d="M 429.7974425805682,101.56526642674474 L 442.2428502656168,108.75062590388222 L 429.79744258056826,115.93598538101966 L 429.7974425805682,101.56526642674474 Z" /><path d="M 468.55613180411217,111.95062590388217 L 461.3707723269747,124.39603358893082 L 454.1854128498373,111.9506259038822 L 468.55613180411217,111.95062590388217 Z" /><path d="M 461.37077232697476,93.10521821883358 L 468.5561318041122,105.55062590388216 L 454.1854128498373,105.55062590388219 L 461.37077232697476,93.10521821883358 Z" /><path d="M 458.17077232697477,81.16265563461317 L 445.72536464192615,73.9772961574757 L 458.1707723269747,66.79193668033827 L 458.17077232697477,81.16265563461317 Z" /><path d="M 491.772820781271,122.64982925735029 L 482.2448987199132,139.15267435817847 L 465.74205361908497,129.62475229682056 L 475.26997568044277,113.12190719599238 L 491.772820781271,122.64982925735029 Z" /><path d="M 464.57077232697475,136.3385961731512 L 477.0161800120233,143.52395565028868 L 464.5707723269747,150.70931512742612 L 464.57077232697475,136.3385961731512 Z" /><path d="M 496.1441020733812,127.87854796524003 L 503.32946155051866,140.32395565028867 L 488.9587425962437,140.32395565028867 L 496.1441020733812,127.87854796524003 Z" /><path d="M 492.9441020733812,115.93598538101965 L 480.49869438833264,108.75062590388217 L 492.9441020733812,101.56526642674473 L 492.9441020733812,115.93598538101965 Z" /><path d="M 527.7174318197876,150.7093151274261 L 515.2720241347391,143.52395565028866 L 527.7174318197876,136.33859617315125 L 527.7174318197876,150.7093151274261 Z" /><path d="M 456.9994910348645,60.07809280400764 L 440.4966459340362,69.60601486536552 L 430.9687238726784,53.10316976453736 L 447.4715689735067,43.57524770317947 L 456.9994910348645,60.07809280400764 Z" /><path d="M 429.7974425805682,32.01860693393181 L 442.2428502656168,39.203966411069274 L 429.7974425805682,46.38932588820673 L 429.7974425805682,32.01860693393181 Z" /><path d="M 468.55613180411217,42.40396641106927 L 461.3707723269747,54.849374096117884 L 454.18541284983723,42.40396641106927 L 468.55613180411217,42.40396641106927 Z" /><path d="M 491.772820781271,94.8514225504141 L 475.2699756804427,104.379344611772 L 465.7420536190849,87.87649951094386 L 482.2448987199132,78.34857744958597 L 491.772820781271,94.8514225504141 Z" /><path d="M 491.772820781271,53.10316976453739 L 482.2448987199132,69.60601486536555 L 465.7420536190849,60.078092804007646 L 475.2699756804427,43.57524770317948 L 491.772820781271,53.10316976453739 Z" /><path d="M 464.5707723269747,66.79193668033828 L 477.0161800120233,73.97729615747576 L 464.5707723269747,81.16265563461323 L 464.5707723269747,66.79193668033828 Z" /><path d="M 503.32946155051866,77.17729615747577 L 496.1441020733812,89.62270384252436 L 488.9587425962437,77.17729615747577 L 503.32946155051866,77.17729615747577 Z" /><path d="M 496.1441020733812,58.33188847242714 L 503.32946155051866,70.77729615747576 L 488.9587425962437,70.77729615747576 L 496.1441020733812,58.33188847242714 Z" /><path d="M 492.9441020733812,46.38932588820675 L 480.4986943883326,39.203966411069274 L 492.94410207338115,32.018606933931835 L 492.9441020733812,46.38932588820675 Z" /><path d="M 526.5461505276775,129.6247522968206 L 510.04330542684926,139.15267435817844 L 500.5153833654914,122.64982925735029 L 517.0182284663197,113.12190719599242 L 526.5461505276775,129.6247522968206 Z" /><path d="M 526.5461505276775,87.87649951094389 L 517.0182284663197,104.37934461177201 L 500.5153833654914,94.85142255041411 L 510.04330542684926,78.34857744958597 L 526.5461505276775,87.87649951094389 Z" /><path d="M 499.3441020733812,101.56526642674474 L 511.7895097584298,108.75062590388222 L 499.3441020733812,115.93598538101966 L 499.3441020733812,101.56526642674474 Z" /><path d="M 538.1027912969251,111.95062590388225 L 530.9174318197877,124.39603358893085 L 523.7320723426502,111.95062590388223 L 538.1027912969251,111.95062590388225 Z" /><path d="M 530.9174318197877,93.10521821883364 L 538.1027912969251,105.55062590388225 L 523.7320723426502,105.55062590388222 L 530.9174318197877,93.10521821883364 Z" /><path d="M 527.7174318197876,81.16265563461319 L 515.2720241347391,73.97729615747576 L 527.7174318197876,66.79193668033834 L 527.7174318197876,81.16265563461319 Z" /><path d="M 561.319480274084,122.64982925735035 L 551.7915582127262,139.1526743581785 L 535.2887131118979,129.6247522968206 L 544.8166351732557,113.12190719599245 L 561.319480274084,122.64982925735035 Z" /><path d="M 534.1174318197877,136.33859617315125 L 546.5628395048363,143.5239556502887 L 534.1174318197877,150.70931512742612 L 534.1174318197877,136.33859617315125 Z" /><path d="M 565.6907615661942,127.87854796524007 L 572.8761210433318,140.32395565028872 L 558.5054020890567,140.32395565028872 L 565.6907615661942,127.87854796524007 Z" /><path d="M 562.4907615661941,115.93598538101966 L 550.0453538811456,108.75062590388222 L 562.4907615661941,101.56526642674483 L 562.4907615661941,115.93598538101966 Z" /><path d="M 597.2640913126006,150.70931512742615 L 584.8186836275521,143.5239556502887 L 597.2640913126006,136.3385961731513 L 597.2640913126006,150.70931512742615 Z" /><path d="M 526.5461505276775,60.07809280400766 L 510.04330542684926,69.60601486536555 L 500.5153833654914,53.10316976453738 L 517.0182284663198,43.5752477031795 L 526.5461505276775,60.07809280400766 Z" /><path d="M 499.3441020733812,32.01860693393181 L 511.7895097584299,39.2039664110693 L 499.3441020733812,46.3893258882068 L 499.3441020733812,32.01860693393181 Z" /><path d="M 538.1027912969253,42.4039664110693 L 530.9174318197877,54.84937409611791 L 523.7320723426503,42.4039664110693 L 538.1027912969253,42.4039664110693 Z" /><path d="M 561.319480274084,94.85142255041416 L 544.8166351732558,104.37934461177201 L 535.2887131118979,87.87649951094386 L 551.7915582127262,78.348577449586 L 561.319480274084,94.85142255041416 Z" /><path d="M 561.319480274084,53.103169764537384 L 551.7915582127262,69.60601486536558 L 535.2887131118979,60.07809280400768 L 544.8166351732558,43.57524770317951 L 561.319480274084,53.103169764537384 Z" /><path d="M 534.1174318197877,66.79193668033834 L 546.5628395048363,73.97729615747579 L 534.1174318197877,81.1626556346132 L 534.1174318197877,66.79193668033834 Z" /><path d="M 572.8761210433316,77.17729615747578 L 565.6907615661942,89.6227038425244 L 558.5054020890567,77.17729615747578 L 572.8761210433316,77.17729615747578 Z" /><path d="M 565.6907615661942,58.33188847242715 L 572.8761210433316,70.77729615747577 L 558.5054020890567,70.77729615747577 L 565.6907615661942,58.33188847242715 Z" /><path d="M 562.4907615661941,46.38932588820669 L 550.0453538811456,39.203966411069295 L 562.4907615661941,32.018606933931885 L 562.4907615661941,46.38932588820669 Z" /><path d="M 596.0928100204904,129.62475229682065 L 579.5899649196623,139.1526743581785 L 570.0620428583044,122.64982925735033 L 586.5648879591326,113.12190719599248 L 596.0928100204904,129.62475229682065 Z" /><path d="M 596.0928100204904,87.87649951094386 L 586.5648879591326,104.37934461177207 L 570.0620428583044,94.85142255041416 L 579.5899649196622,78.34857744958597 L 596.0928100204904,87.87649951094386 Z" /><path d="M 568.8907615661942,101.56526642674483 L 581.3361692512428,108.75062590388228 L 568.8907615661942,115.93598538101969 L 568.8907615661942,101.56526642674483 Z" /><path d="M 607.6494507897382,111.95062590388224 L 600.4640913126007,124.3960335889309 L 593.2787318354632,111.95062590388227 L 607.6494507897382,111.95062590388224 Z" /><path d="M 600.4640913126007,93.1052182188336 L 607.6494507897382,105.55062590388223 L 593.2787318354632,105.55062590388226 L 600.4640913126007,93.1052182188336 Z" /><path d="M 597.2640913126006,81.16265563461317 L 584.8186836275521,73.97729615747573 L 597.2640913126006,66.79193668033835 L 597.2640913126006,81.16265563461317 Z" /><path d="M 630.8661397668969,122.64982925735033 L 621.338217705539,139.15267435817856 L 604.8353726047109,129.62475229682065 L 614.3632946660687,113.12190719599246 L 630.8661397668969,122.64982925735033 Z" /><path d="M 603.6640913126007,136.33859617315133 L 616.1094989976492,143.52395565028877 L 603.6640913126007,150.70931512742618 L 603.6640913126007,136.33859617315133 Z" /><path d="M 635.2374210590071,127.87854796524009 L 642.4227805361446,140.32395565028872 L 628.0520615818696,140.32395565028875 L 635.2374210590071,127.87854796524009 Z" /><path d="M 632.0374210590071,115.93598538101966 L 619.5920133739586,108.75062590388224 L 632.0374210590071,101.56526642674486 L 632.0374210590071,115.93598538101966 Z" /><path d="M 666.8107508054136,150.70931512742607 L 654.365343120365,143.5239556502886 L 666.8107508054135,136.3385961731512 L 666.8107508054136,150.70931512742607 Z" /><path d="M 596.0928100204904,60.07809280400761 L 579.5899649196622,69.60601486536547 L 570.0620428583044,53.10316976453731 L 586.5648879591326,43.57524770317944 L 596.0928100204904,60.07809280400761 Z" /><path d="M 568.8907615661942,32.018606933931814 L 581.3361692512428,39.20396641106924 L 568.8907615661942,46.38932588820664 L 568.8907615661942,32.018606933931814 Z" /><path d="M 607.649450789738,42.403966411069305 L 600.4640913126007,54.84937409611785 L 593.2787318354632,42.40396641106926 L 607.649450789738,42.403966411069305 Z" /><path d="M 630.8661397668969,94.85142255041413 L 614.3632946660687,104.37934461177197 L 604.8353726047109,87.8764995109438 L 621.3382177055391,78.34857744958597 L 630.8661397668969,94.85142255041413 Z" /><path d="M 630.8661397668969,53.103169764537405 L 621.3382177055391,69.60601486536555 L 604.8353726047109,60.07809280400761 L 614.3632946660686,43.57524770317953 L 630.8661397668969,53.103169764537405 Z" /><path d="M 603.6640913126007,66.7919366803383 L 616.1094989976493,73.97729615747575 L 603.6640913126007,81.16265563461315 L 603.6640913126007,66.7919366803383 Z" /><path d="M 642.4227805361446,77.17729615747577 L 635.2374210590071,89.62270384252437 L 628.0520615818697,77.17729615747577 L 642.4227805361446,77.17729615747577 Z" /><path d="M 635.2374210590071,58.331888472427146 L 642.4227805361446,70.77729615747576 L 628.0520615818697,70.77729615747576 L 635.2374210590071,58.331888472427146 Z" /><path d="M 632.0374210590071,46.38932588820672 L 619.5920133739585,39.203966411069274 L 632.0374210590071,32.01860693393186 L 632.0374210590071,46.38932588820672 Z" /><path d="M 665.6394695133033,129.62475229682062 L 649.1366244124752,139.15267435817844 L 639.6087023511174,122.64982925735029 L 656.1115474519455,113.12190719599246 L 665.6394695133033,129.62475229682062 Z" /><path d="M 665.6394695133034,87.87649951094387 L 656.1115474519455,104.37934461177204 L 639.6087023511174,94.85142255041414 L 649.1366244124752,78.34857744958597 L 665.6394695133034,87.87649951094387 Z" /><path d="M 638.4374210590072,101.56526642674481 L 650.8828287440557,108.75062590388224 L 638.4374210590072,115.93598538101962 L 638.4374210590072,101.56526642674481 Z" /><path d="M 677.1961102825511,111.95062590388225 L 670.0107508054135,124.39603358893089 L 662.825391328276,111.95062590388225 L 677.1961102825511,111.95062590388225 Z" /><path d="M 670.0107508054136,93.10521821883363 L 677.1961102825511,105.55062590388225 L 662.825391328276,105.55062590388225 L 670.0107508054136,93.10521821883363 Z" /><path d="M 666.8107508054136,81.1626556346132 L 654.365343120365,73.97729615747576 L 666.8107508054135,66.79193668033835 L 666.8107508054136,81.1626556346132 Z" /><path d="M 700.4127992597098,122.64982925735028 L 690.884877198352,139.15267435817842 L 674.3820320975237,129.6247522968205 L 683.9099541588814,113.12190719599239 L 700.4127992597098,122.64982925735028 Z" /><path d="M 673.2107508054136,136.3385961731512 L 685.6561584904622,143.52395565028863 L 673.2107508054136,150.70931512742604 L 673.2107508054136,136.3385961731512 Z" /><path d="M 704.78408055182,127.87854796524 L 711.9694400289575,140.3239556502886 L 697.5987210746825,140.3239556502886 L 704.78408055182,127.87854796524 Z" /><path d="M 701.58408055182,115.93598538101959 L 689.1386728667713,108.75062590388214 L 701.58408055182,101.56526642674473 L 701.58408055182,115.93598538101959 Z" /><path d="M 736.3574102982265,150.70931512742607 L 723.9120026131778,143.52395565028863 L 736.3574102982263,136.33859617315122 L 736.3574102982265,150.70931512742607 Z" /><path d="M 665.6394695133033,60.0780928040077 L 649.1366244124752,69.60601486536555 L 639.6087023511174,53.103169764537384 L 656.1115474519455,43.575247703179535 L 665.6394695133033,60.0780928040077 Z" /><path d="M 638.4374210590072,32.018606933931885 L 650.8828287440557,39.20396641106932 L 638.4374210590072,46.38932588820672 L 638.4374210590072,32.018606933931885 Z" /><path d="M 677.1961102825511,42.403966411069284 L 670.0107508054135,54.849374096117955 L 662.825391328276,42.40396641106931 L 677.1961102825511,42.403966411069284 Z" /><path d="M 700.4127992597098,94.85142255041418 L 683.9099541588816,104.37934461177204 L 674.3820320975238,87.87649951094389 L 690.884877198352,78.34857744958603 L 700.4127992597098,94.85142255041418 Z" /><path d="M 700.4127992597099,53.1031697645374 L 690.884877198352,69.60601486536561 L 674.3820320975237,60.0780928040077 L 683.9099541588815,43.57524770317953 L 700.4127992597099,53.1031697645374 Z" /><path d="M 673.2107508054136,66.79193668033838 L 685.6561584904622,73.97729615747582 L 673.2107508054137,81.16265563461323 L 673.2107508054136,66.79193668033838 Z" /><path d="M 711.9694400289576,77.17729615747578 L 704.78408055182,89.62270384252444 L 697.5987210746825,77.17729615747581 L 711.9694400289576,77.17729615747578 Z" /><path d="M 704.7840805518201,58.33188847242714 L 711.9694400289576,70.77729615747577 L 697.5987210746825,70.7772961574758 L 704.7840805518201,58.33188847242714 Z" /><path d="M 701.5840805518201,46.389325888206706 L 689.1386728667715,39.20396641106927 L 701.58408055182,32.01860693393186 L 701.5840805518201,46.389325888206706 Z" /><path d="M 735.1861290061162,129.62475229682056 L 718.683283905288,139.15267435817842 L 709.1553618439302,122.64982925735026 L 725.6582069447584,113.1219071959924 L 735.1861290061162,129.62475229682056 Z" /><path d="M 735.1861290061163,87.87649951094376 L 725.6582069447584,104.37934461177198 L 709.1553618439302,94.85142255041409 L 718.683283905288,78.34857744958586 L 735.1861290061163,87.87649951094376 Z" /><path d="M 707.98408055182,101.56526642674476 L 720.4294882368686,108.7506259038822 L 707.98408055182,115.93598538101959 L 707.98408055182,101.56526642674476 Z" /><path d="M 746.742769775364,111.95062590388216 L 739.5574102982264,124.39603358893082 L 732.3720508210889,111.95062590388218 L 746.742769775364,111.95062590388216 Z" /><path d="M 739.5574102982265,93.10521821883351 L 746.742769775364,105.55062590388215 L 732.3720508210889,105.55062590388218 L 739.5574102982265,93.10521821883351 Z" /><path d="M 736.3574102982265,81.16265563461309 L 723.9120026131778,73.97729615747565 L 736.3574102982263,66.79193668033824 L 736.3574102982265,81.16265563461309 Z" /><path d="M 769.9594587525227,122.64982925735025 L 760.4315366911649,139.15267435817847 L 743.9286915903366,129.6247522968206 L 753.4566136516945,113.12190719599235 L 769.9594587525227,122.64982925735025 Z" /><path d="M 742.7574102982264,136.33859617315125 L 755.202817983275,143.52395565028868 L 742.7574102982265,150.7093151274261 L 742.7574102982264,136.33859617315125 Z" /><path d="M 774.3307400446329,127.87854796524003 L 781.5160995217703,140.3239556502886 L 767.1453805674955,140.3239556502886 L 774.3307400446329,127.87854796524003 Z" /><path d="M 771.1307400446328,115.93598538101959 L 758.6853323595843,108.75062590388215 L 771.130740044633,101.56526642674474 L 771.1307400446328,115.93598538101959 Z" /><path d="M 805.9040697910393,150.70931512742607 L 793.4586621059907,143.52395565028863 L 805.9040697910393,136.33859617315122 L 805.9040697910393,150.70931512742607 Z" /><path d="M 735.1861290061163,60.0780928040077 L 718.6832839052881,69.60601486536555 L 709.1553618439303,53.103169764537384 L 725.6582069447585,43.575247703179535 L 735.1861290061163,60.0780928040077 Z" /><path d="M 707.98408055182,32.01860693393189 L 720.4294882368687,39.20396641106933 L 707.9840805518202,46.389325888206734 L 707.98408055182,32.01860693393189 Z" /><path d="M 746.742769775364,42.40396641106933 L 739.5574102982265,54.84937409611794 L 732.372050821089,42.40396641106933 L 746.742769775364,42.40396641106933 Z" /><path d="M 769.9594587525228,94.85142255041407 L 753.4566136516945,104.37934461177194 L 743.9286915903367,87.87649951094377 L 760.431536691165,78.34857744958592 L 769.9594587525228,94.85142255041407 Z" /><path d="M 769.9594587525228,53.10316976453734 L 760.431536691165,69.6060148653655 L 743.9286915903366,60.078092804007596 L 753.4566136516945,43.57524770317947 L 769.9594587525228,53.10316976453734 Z" /><path d="M 742.7574102982264,66.79193668033825 L 755.202817983275,73.9772961574757 L 742.7574102982265,81.16265563461312 L 742.7574102982264,66.79193668033825 Z" /><path d="M 781.5160995217705,77.17729615747571 L 774.330740044633,89.62270384252432 L 767.1453805674955,77.17729615747571 L 781.5160995217705,77.17729615747571 Z" /><path d="M 774.330740044633,58.33188847242709 L 781.5160995217705,70.7772961574757 L 767.1453805674955,70.7772961574757 L 774.330740044633,58.33188847242709 Z" /><path d="M 771.130740044633,46.38932588820666 L 758.6853323595843,39.20396641106922 L 771.130740044633,32.01860693393181 L 771.130740044633,46.38932588820666 Z" /><path d="M 804.7327884989292,129.62475229682056 L 788.2299433981009,139.15267435817844 L 778.7020213367431,122.64982925735026 L 795.2048664375714,113.12190719599239 L 804.7327884989292,129.62475229682056 Z" /><path d="M 804.7327884989293,87.87649951094382 L 795.2048664375714,104.37934461177198 L 778.7020213367432,94.85142255041409 L 788.229943398101,78.34857744958592 L 804.7327884989293,87.87649951094382 Z" /><path d="M 777.530740044633,101.56526642674474 L 789.9761477296815,108.75062590388218 L 777.5307400446329,115.93598538101959 L 777.530740044633,101.56526642674474 Z" /><path d="M 816.289429268177,111.9506259038822 L 809.1040697910394,124.39603358893083 L 801.9187103139019,111.9506259038822 L 816.289429268177,111.9506259038822 Z" /><path d="M 809.1040697910395,93.10521821883357 L 816.289429268177,105.55062590388219 L 801.9187103139019,105.55062590388219 L 809.1040697910395,93.10521821883357 Z" /><path d="M 805.9040697910394,81.16265563461315 L 793.4586621059908,73.9772961574757 L 805.9040697910393,66.7919366803383 L 805.9040697910394,81.16265563461315 Z" /><path d="M 839.5061182453356,122.6498292573503 L 829.9781961839777,139.15267435817847 L 813.4753510831496,129.6247522968206 L 823.0032731445075,113.1219071959924 L 839.5061182453356,122.6498292573503 Z" /><path d="M 812.3040697910394,136.33859617315125 L 824.7494774760879,143.52395565028868 L 812.3040697910394,150.70931512742607 L 812.3040697910394,136.33859617315125 Z" /><path d="M 843.8773995374459,127.87854796524007 L 851.0627590145833,140.32395565028867 L 836.6920400603085,140.32395565028864 L 843.8773995374459,127.87854796524007 Z" /><path d="M 840.6773995374458,115.93598538101963 L 828.2319918523973,108.7506259038822 L 840.6773995374458,101.5652664267448 L 840.6773995374458,115.93598538101963 Z" /><path d="M 875.4507292838523,150.70931512742612 L 863.0053215988037,143.52395565028868 L 875.4507292838523,136.33859617315127 L 875.4507292838523,150.70931512742612 Z" /><path d="M 804.7327884989292,60.078092804007646 L 788.229943398101,69.6060148653655 L 778.7020213367432,53.10316976453733 L 795.2048664375714,43.57524770317948 L 804.7327884989292,60.078092804007646 Z" /><path d="M 777.530740044633,32.01860693393183 L 789.9761477296815,39.20396641106926 L 777.530740044633,46.38932588820666 L 777.530740044633,32.01860693393183 Z" /><path d="M 816.289429268177,42.40396641106923 L 809.1040697910394,54.8493740961179 L 801.9187103139019,42.403966411069256 L 816.289429268177,42.40396641106923 Z" /><path d="M 839.5061182453356,94.85142255041413 L 823.0032731445075,104.37934461177198 L 813.4753510831497,87.87649951094383 L 829.9781961839778,78.34857744958597 L 839.5061182453356,94.85142255041413 Z" /><path d="M 839.5061182453356,53.10316976453733 L 829.9781961839778,69.60601486536555 L 813.4753510831496,60.07809280400765 L 823.0032731445075,43.57524770317942 L 839.5061182453356,53.10316976453733 Z" /><path d="M 812.3040697910394,66.79193668033832 L 824.749477476088,73.97729615747576 L 812.3040697910395,81.16265563461317 L 812.3040697910394,66.79193668033832 Z" /><path d="M 851.0627590145833,77.17729615747571 L 843.8773995374459,89.62270384252434 L 836.6920400603085,77.17729615747571 L 851.0627590145833,77.17729615747571 Z" /><path d="M 843.8773995374459,58.33188847242711 L 851.0627590145833,70.7772961574757 L 836.6920400603085,70.7772961574757 L 843.8773995374459,58.33188847242711 Z" /><path d="M 840.6773995374458,46.38932588820667 L 828.2319918523973,39.20396641106923 L 840.6773995374459,32.01860693393182 L 840.6773995374458,46.38932588820667 Z" /><path d="M 874.2794479917421,129.62475229682062 L 857.7766028909139,139.1526743581785 L 848.2486808295561,122.64982925735032 L 864.7515259303843,113.12190719599245 L 874.2794479917421,129.62475229682062 Z" /><path d="M 874.2794479917422,87.87649951094383 L 864.7515259303843,104.37934461177204 L 848.2486808295561,94.85142255041413 L 857.7766028909139,78.34857744958592 L 874.2794479917422,87.87649951094383 Z" /><path d="M 847.0773995374459,101.5652664267448 L 859.5228072224945,108.75062590388225 L 847.0773995374459,115.93598538101966 L 847.0773995374459,101.5652664267448 Z" /><path d="M 885.8360887609899,111.95062590388221 L 878.6507292838523,124.39603358893088 L 871.4653698067149,111.95062590388224 L 885.8360887609899,111.95062590388221 Z" /><path d="M 878.6507292838525,93.10521821883357 L 885.8360887609899,105.5506259038822 L 871.4653698067149,105.55062590388223 L 878.6507292838525,93.10521821883357 Z" /><path d="M 875.4507292838524,81.16265563461316 L 863.0053215988038,73.9772961574757 L 875.4507292838523,66.7919366803383 L 875.4507292838524,81.16265563461316 Z" /><path d="M 909.0527777381486,122.64982925735032 L 899.5248556767909,139.1526743581785 L 883.0220105759626,129.62475229682062 L 892.5499326373205,113.1219071959924 L 909.0527777381486,122.64982925735032 Z" /><path d="M 881.8507292838524,136.33859617315125 L 894.296136968901,143.52395565028868 L 881.8507292838524,150.70931512742612 L 881.8507292838524,136.33859617315125 Z" /><path d="M 913.4240590302588,127.87854796524009 L 920.6094185073963,140.32395565028867 L 906.2386995531215,140.32395565028867 L 913.4240590302588,127.87854796524009 Z" /><path d="M 910.2240590302588,115.93598538101963 L 897.7786513452103,108.7506259038822 L 910.2240590302588,101.56526642674476 L 910.2240590302588,115.93598538101963 Z" /><path d="M 944.9973887766653,150.70931512742618 L 932.5519810916167,143.52395565028868 L 944.9973887766652,136.33859617315127 L 944.9973887766653,150.70931512742618 Z" /><path d="M 874.279447991742,60.078092804007696 L 857.7766028909138,69.60601486536555 L 848.248680829556,53.1031697645374 L 864.7515259303842,43.57524770317953 L 874.279447991742,60.078092804007696 Z" /><path d="M 847.0773995374459,32.01860693393187 L 859.5228072224944,39.20396641106931 L 847.0773995374458,46.38932588820671 L 847.0773995374459,32.01860693393187 Z" /><path d="M 885.8360887609898,42.40396641106931 L 878.6507292838522,54.84937409611794 L 871.4653698067149,42.403966411069284 L 885.8360887609898,42.40396641106931 Z" /><path d="M 909.0527777381484,94.85142255041418 L 892.5499326373202,104.37934461177204 L 883.0220105759626,87.87649951094389 L 899.5248556767907,78.34857744958603 L 909.0527777381484,94.85142255041418 Z" /><path d="M 909.0527777381485,53.10316976453744 L 899.5248556767907,69.60601486536561 L 883.0220105759624,60.07809280400771 L 892.5499326373204,43.575247703179535 L 909.0527777381485,53.10316976453744 Z" /><path d="M 881.8507292838523,66.79193668033838 L 894.2961369689009,73.97729615747582 L 881.8507292838524,81.16265563461323 L 881.8507292838523,66.79193668033838 Z" /><path d="M 920.6094185073962,77.17729615747582 L 913.4240590302586,89.62270384252443 L 906.2386995531213,77.17729615747582 L 920.6094185073962,77.17729615747582 Z" /><path d="M 913.4240590302587,58.3318884724272 L 920.6094185073962,70.77729615747582 L 906.2386995531213,70.77729615747582 L 913.4240590302587,58.3318884724272 Z" /><path d="M 910.2240590302587,46.38932588820677 L 897.7786513452102,39.20396641106933 L 910.2240590302587,32.018606933931935 L 910.2240590302587,46.38932588820677 Z" /><path d="M 943.826107484555,129.62475229682062 L 927.3232623837268,139.15267435817847 L 917.795340322369,122.64982925735032 L 934.2981854231972,113.12190719599246 L 943.826107484555,129.62475229682062 Z" /><path d="M 943.8261074845549,87.87649951094394 L 934.2981854231972,104.37934461177205 L 917.7953403223688,94.85142255041418 L 927.3232623837267,78.34857744958603 L 943.8261074845549,87.87649951094394 Z" /><path d="M 916.6240590302586,101.56526642674486 L 929.0694667153073,108.75062590388227 L 916.6240590302589,115.93598538101968 L 916.6240590302586,101.56526642674486 Z" /><path d="M 955.3827482538027,111.9506259038823 L 948.1973887766652,124.39603358893088 L 941.0120292995277,111.95062590388227 L 955.3827482538027,111.9506259038823 Z" /><path d="M 948.1973887766651,93.10521821883368 L 955.3827482538027,105.55062590388229 L 941.0120292995277,105.55062590388226 L 948.1973887766651,93.10521821883368 Z" /><path d="M 944.997388776665,81.16265563461329 L 932.5519810916165,73.97729615747583 L 944.9973887766653,66.79193668033838 L 944.997388776665,81.16265563461329 Z" /><path d="M 978.5994372309615,122.64982925735043 L 969.0715151696037,139.15267435817861 L 952.5686700687754,129.62475229682065 L 962.0965921301332,113.12190719599252 L 978.5994372309615,122.64982925735043 Z" /><path d="M 951.3973887766653,136.3385961731513 L 963.8427964617139,143.52395565028883 L 951.3973887766651,150.70931512742627 L 951.3973887766653,136.3385961731513 Z" /><path d="M 982.9707185230717,127.87854796524019 L 990.1560780002092,140.3239556502888 L 975.7853590459342,140.32395565028884 L 982.9707185230717,127.87854796524019 Z" /><path d="M 979.7707185230717,115.93598538101975 L 967.325310838023,108.75062590388231 L 979.7707185230715,101.5652664267449 L 979.7707185230717,115.93598538101975 Z" /><path d="M 943.826107484555,60.07809280400775 L 927.3232623837267,69.60601486536561 L 917.7953403223689,53.103169764537455 L 934.2981854231972,43.575247703179585 L 943.826107484555,60.07809280400775 Z" /><path d="M 916.6240590302588,32.018606933931935 L 929.0694667153074,39.20396641106937 L 916.6240590302588,46.389325888206784 L 916.6240590302588,32.018606933931935 Z" /><path d="M 955.3827482538028,42.40396641106933 L 948.1973887766652,54.84937409611799 L 941.0120292995279,42.40396641106933 L 955.3827482538028,42.40396641106933 Z" /><path d="M 978.5994372309614,94.85142255041424 L 962.0965921301332,104.3793446117721 L 952.5686700687753,87.87649951094394 L 969.0715151696037,78.34857744958609 L 978.5994372309614,94.85142255041424 Z" /><path d="M 978.5994372309615,53.10316976453744 L 969.0715151696037,69.60601486536567 L 952.5686700687755,60.07809280400772 L 962.0965921301333,43.57524770317954 L 978.5994372309615,53.10316976453744 Z" /><path d="M 951.3973887766654,66.79193668033835 L 963.8427964617139,73.97729615747585 L 951.3973887766651,81.16265563461326 L 951.3973887766654,66.79193668033835 Z" /><path d="M 990.1560780002092,77.17729615747582 L 982.9707185230716,89.62270384252449 L 975.7853590459342,77.17729615747582 L 990.1560780002092,77.17729615747582 Z" /><path d="M 982.9707185230717,58.33188847242721 L 990.1560780002092,70.77729615747583 L 975.7853590459342,70.77729615747586 L 982.9707185230717,58.33188847242721 Z" /><path d="M 979.7707185230717,46.38932588820677 L 967.3253108380231,39.20396641106933 L 979.7707185230717,32.018606933931935 L 979.7707185230717,46.38932588820677 Z" /><path d="M 986.1707185230716,101.56526642674491 L 998.6161262081202,108.75062590388232 L 986.1707185230719,115.93598538101973 L 986.1707185230716,101.56526642674491 Z" /><path d="M 986.1707185230717,32.018606933931935 L 998.6161262081204,39.20396641106934 L 986.1707185230719,46.389325888206734 L 986.1707185230717,32.018606933931935 Z" /><path d="M 996.8699218765398,139.15267435817853 L 987.341999815182,122.64982925735038 L 999.054722596873,115.88748560639759 L 999.054722596873,137.89127907416844 L 996.8699218765398,139.15267435817853 Z" /><path d="M 430.73667643214344,152.0 L 422.45820872899304,152.0 L 419.4120831034308,146.72395565028864 L 433.78280205770574,146.72395565028864 L 430.73667643214344,152.0 Z" /><path d="M 308.37824998788085,34.83268511895906 L 303.47189543999946,32.0 L 310.01370150384133,32.0 L 308.37824998788085,34.83268511895906 Z" /><path d="M 892.5499326373204,34.83268511895912 L 890.9144811213598,32.0 L 897.4562871852019,32.0 L 892.5499326373204,34.83268511895912 Z" /><path d="M 795.2048664375714,34.83268511895906 L 790.29851188969,32.0 L 796.8403179535318,32.0 L 795.2048664375714,34.83268511895906 Z" /><path d="M 361.1900169393305,152.0 L 352.91154923618006,152.0 L 349.8654236106178,146.72395565028864 L 364.2361425648928,146.72395565028864 L 361.1900169393305,152.0 Z" /><path d="M 999.054722596873,79.60997273359618 L 999.054722596873,101.61376620136707 L 987.3419998151818,94.85142255041424 L 996.8699218765397,78.34857744958603 L 999.054722596873,79.60997273359618 Z" /><path d="M 614.3632946660687,34.83268511895906 L 612.7278431501082,32.0 L 619.2696492139501,32.0 L 614.3632946660687,34.83268511895906 Z" /><path d="M 569.8299954177695,152.0 L 561.5515277146189,152.0 L 558.5054020890567,146.7239556502887 L 572.8761210433318,146.7239556502887 L 569.8299954177695,152.0 Z" /><path d="M 917.5632928818341,152.0 L 909.2848251786837,152.0 L 906.2386995531215,146.7239556502887 L 920.6094185073963,146.7239556502887 L 917.5632928818341,152.0 Z" /><path d="M 377.92490948069377,34.832685118959034 L 373.01855493281244,32.0 L 379.5603609966542,32.0 L 377.92490948069377,34.832685118959034 Z" /><path d="M 544.8166351732557,34.832685118959034 L 543.1811836572953,32.0 L 549.7229897211371,32.0 L 544.8166351732557,34.832685118959034 Z" /><path d="M 924.9533763274612,152.0 L 927.3232623837268,147.8952369423989 L 934.4329205525237,152.0 L 924.9533763274612,152.0 Z" /><path d="M 169.28493100225498,34.83268511895902 L 164.37857645437367,32.0 L 170.9203825182154,32.0 L 169.28493100225498,34.83268511895902 Z" /><path d="M 848.0166333890211,152.0 L 839.7381656858707,152.0 L 836.6920400603085,146.72395565028864 L 851.0627590145833,146.72395565028867 L 848.0166333890211,152.0 Z" /><path d="M 725.6582069447585,34.83268511895912 L 720.751852396877,32.0 L 727.293658460719,32.0 L 725.6582069447585,34.83268511895912 Z" /><path d="M 987.1099523746469,152.0 L 978.8314846714964,152.0 L 975.7853590459342,146.72395565028881 L 990.1560780002092,146.72395565028881 L 987.1099523746469,152.0 Z" /><path d="M 238.8315904950679,34.83268511895905 L 233.92523594718656,32.0 L 240.46704201102835,32.0 L 238.8315904950679,34.83268511895905 Z" /><path d="M 683.7752190295549,152.0 L 690.884877198352,147.8952369423988 L 693.2547632546176,152.0 L 683.7752190295549,152.0 Z" /><path d="M 438.12675987777067,152.0 L 440.4966459340363,147.89523694239887 L 447.6063041028332,152.0 L 438.12675987777067,152.0 Z" /><path d="M 962.0965921301333,34.83268511895912 L 960.4611406141728,32.0 L 967.0029466780148,32.0 L 962.0965921301333,34.83268511895912 Z" /><path d="M 291.6433574465176,152.0 L 283.3648897433672,152.0 L 280.31876411780496,146.72395565028862 L 294.68948307207984,146.72395565028864 L 291.6433574465176,152.0 Z" /><path d="M 188.0578027476035,32.0 L 190.3694938328605,36.00396641106921 L 175.99877487858558,36.0039664110692 L 178.3104659638426,32.0 L 188.0578027476035,32.0 Z" /><path d="M 778.4699738962081,152.0 L 770.1915061930578,152.0 L 767.1453805674955,146.72395565028864 L 781.5160995217703,146.72395565028864 L 778.4699738962081,152.0 Z" /><path d="M 368.5801003849577,152.0 L 370.94998644122336,147.89523694239887 L 378.05964461002026,152.0 L 368.5801003849577,152.0 Z" /><path d="M 197.0833377091911,34.83268511895902 L 195.4478861932307,32.0 L 201.98969225707242,32.0 L 197.0833377091911,34.83268511895902 Z" /><path d="M 405.7233161876298,34.832685118959034 L 404.08786467166937,32.0 L 410.6296707355111,32.0 L 405.7233161876298,34.832685118959034 Z" /><path d="M 336.0419215654904,152.0 L 343.1515797342873,147.89523694239887 L 345.5214657905529,152.0 L 336.0419215654904,152.0 Z" /><path d="M 396.69778122604225,32.0 L 399.0094723112993,36.003966411069214 L 384.63875335702437,36.003966411069236 L 386.9504444422814,32.0 L 396.69778122604225,32.0 Z" /><path d="M 544.6819000439293,152.0 L 551.7915582127262,147.89523694239892 L 554.1614442689918,152.0 L 544.6819000439293,152.0 Z" /><path d="M 222.0966979537047,152.0 L 213.81823025055436,152.0 L 210.77210462499212,146.72395565028864 L 225.14282357926697,146.72395565028864 L 222.0966979537047,152.0 Z" /><path d="M 614.2285595367423,152.0 L 621.338217705539,147.89523694239898 L 623.7081037618046,152.0 L 614.2285595367423,152.0 Z" /><path d="M 864.7515259303842,34.83268511895912 L 859.8451713825028,32.0 L 866.3869774463448,32.0 L 864.7515259303842,34.83268511895912 Z" /><path d="M 953.0710571685457,32.0 L 955.3827482538028,36.00396641106933 L 941.0120292995279,36.00396641106933 L 943.3237203847849,32.0 L 953.0710571685457,32.0 Z" /><path d="M 674.884419197294,32.0 L 677.1961102825511,36.003966411069285 L 662.825391328276,36.003966411069314 L 665.1370824135332,32.0 L 674.884419197294,32.0 Z" /><path d="M 405.58858105830325,152.0 L 412.69823922710026,147.89523694239884 L 415.06812528336593,152.0 L 405.58858105830325,152.0 Z" /><path d="M 475.2699756804427,34.83268511895906 L 473.63452416448223,32.0 L 480.1763302283241,32.0 L 475.2699756804427,34.83268511895906 Z" /><path d="M 507.6734193705836,152.0 L 510.04330542684926,147.89523694239887 L 517.1529635956462,152.0 L 507.6734193705836,152.0 Z" /><path d="M 586.5648879591326,34.832685118959034 L 581.6585334112513,32.0 L 588.2003394750931,32.0 L 586.5648879591326,34.832685118959034 Z" /><path d="M 577.2200788633966,152.0 L 579.5899649196622,147.89523694239895 L 586.699623088459,152.0 L 577.2200788633966,152.0 Z" /><path d="M 475.1352405511163,152.0 L 482.2448987199132,147.8952369423989 L 484.6147847761788,152.0 L 475.1352405511163,152.0 Z" /><path d="M 934.2981854231972,34.832685118959176 L 929.3918308753156,32.0 L 935.9336369391577,32.0 L 934.2981854231972,34.832685118959176 Z" /><path d="M 257.60446224041635,32.0 L 259.9161533256734,36.00396641106925 L 245.54543437139853,36.003966411069236 L 247.85712545665558,32.0 L 257.60446224041635,32.0 Z" /><path d="M 639.3766549105824,152.0 L 631.0981872074318,152.0 L 628.0520615818696,146.72395565028876 L 642.4227805361446,146.72395565028873 L 639.3766549105824,152.0 Z" /><path d="M 994.5000358202741,152.0 L 996.8699218765397,147.895236942399 L 999.054722596873,149.15663222640916 L 999.054722596873,152.0 L 994.5000358202741,152.0 Z" /><path d="M 159.940121906519,152.0 L 162.31000796278468,147.89523694239884 L 169.41966613158164,152.0 L 159.940121906519,152.0 Z" /><path d="M 753.321878522368,152.0 L 760.4315366911649,147.8952369423989 L 762.8014227474305,152.0 L 753.321878522368,152.0 Z" /><path d="M 785.8600573418353,152.0 L 788.2299433981009,147.89523694239884 L 795.3396015668978,152.0 L 785.8600573418353,152.0 Z" /><path d="M 961.961857000807,152.0 L 969.0715151696037,147.89523694239904 L 971.4414012258692,152.0 L 961.961857000807,152.0 Z" /><path d="M 196.94860257986448,152.0 L 204.05826074866147,147.89523694239884 L 206.42814680492714,152.0 L 196.94860257986448,152.0 Z" /><path d="M 517.0182284663198,34.83268511895909 L 512.1118739184383,32.0 L 518.6536799822802,32.0 L 517.0182284663198,34.83268511895909 Z" /><path d="M 646.7667383562094,152.0 L 649.136624412475,147.8952369423988 L 656.2462825812721,152.0 L 646.7667383562094,152.0 Z" /><path d="M 299.03344089214477,152.0 L 301.40332694841044,147.89523694239887 L 308.5129851172074,152.0 L 299.03344089214477,152.0 Z" /><path d="M 500.2833359249564,152.0 L 492.00486822180596,152.0 L 488.9587425962437,146.7239556502887 L 503.32946155051866,146.72395565028864 L 500.2833359249564,152.0 Z" /><path d="M 152.55003846089178,152.0 L 145.05472259687303,152.0 L 145.05472259687303,146.72395565028864 L 155.59616408645405,146.72395565028864 L 152.55003846089178,152.0 Z" /><path d="M 656.1115474519455,34.83268511895912 L 651.2051929040641,32.0 L 657.746998967906,32.0 L 656.1115474519455,34.83268511895912 Z" /><path d="M 336.1766566948169,34.832685118959034 L 334.5412051788565,32.0 L 341.08301124269826,32.0 L 336.1766566948169,34.832685118959034 Z" /><path d="M 855.4067168346483,152.0 L 857.7766028909139,147.8952369423989 L 864.8862610597107,152.0 L 855.4067168346483,152.0 Z" /><path d="M 148.4108046093166,89.62270384252427 L 145.05472259687303,83.80979928260399 L 145.05472259687303,77.1772961574757 L 155.59616408645405,77.1772961574757 L 148.4108046093166,89.62270384252427 Z" /><path d="M 155.59616408645402,70.77729615747569 L 145.05472259687303,70.77729615747566 L 145.05472259687303,64.14479303234725 L 148.41080460931656,58.33188847242705 L 155.59616408645402,70.77729615747569 Z" /><path d="M 266.4952620726774,152.0 L 273.6049202414744,147.8952369423988 L 275.9748062977401,152.0 L 266.4952620726774,152.0 Z" /><path d="M 813.9777381829199,32.0 L 816.289429268177,36.00396641106923 L 801.9187103139019,36.00396641106926 L 804.230401399159,32.0 L 813.9777381829199,32.0 Z" /><path d="M 466.2444407188551,32.0 L 468.55613180411217,36.00396641106929 L 454.18541284983723,36.00396641106928 L 456.4971039350943,32.0 L 466.2444407188551,32.0 Z" /><path d="M 744.4310786901069,32.0 L 746.742769775364,36.00396641106933 L 732.372050821089,36.00396641106933 L 734.6837419063461,32.0 L 744.4310786901069,32.0 Z" /><path d="M 996.8699218765398,69.60601486536555 L 987.341999815182,53.103169764537384 L 999.054722596873,46.340826113584605 L 999.054722596873,68.34461958135547 L 996.8699218765398,69.60601486536555 Z" /><path d="M 822.8685380151809,152.0 L 829.9781961839777,147.8952369423989 L 832.3480822402433,152.0 L 822.8685380151809,152.0 Z" /><path d="M 823.0032731445074,34.83268511895906 L 821.367821628547,32.0 L 827.9096276923888,32.0 L 823.0032731445074,34.83268511895906 Z" /><path d="M 683.9099541588816,34.83268511895906 L 682.2745026429212,32.0 L 688.816308706763,32.0 L 683.9099541588816,34.83268511895906 Z" /><path d="M 883.5243976757328,32.0 L 885.8360887609898,36.003966411069314 L 871.4653698067149,36.003966411069285 L 873.7770608919719,32.0 L 883.5243976757328,32.0 Z" /><path d="M 266.62999720200395,34.832685118959006 L 264.9945456860435,32.0 L 271.5363517498852,32.0 L 266.62999720200395,34.832685118959006 Z" /><path d="M 155.59616408645402,140.3239556502886 L 145.05472259687303,140.3239556502886 L 145.05472259687303,133.69145252516017 L 148.41080460931656,127.87854796524 L 155.59616408645402,140.3239556502886 Z" /><path d="M 716.3133978490224,152.0 L 718.683283905288,147.89523694239884 L 725.792942074085,152.0 L 716.3133978490224,152.0 Z" /><path d="M 535.7911002116681,32.0 L 538.1027912969253,36.0039664110693 L 523.7320723426503,36.0039664110693 L 526.0437634279074,32.0 L 535.7911002116681,32.0 Z" /><path d="M 708.9233144033952,152.0 L 700.6448467002448,152.0 L 697.5987210746825,146.72395565028864 L 711.9694400289575,146.72395565028864 L 708.9233144033952,152.0 Z" /><path d="M 605.337759704481,32.0 L 607.649450789738,36.003966411069314 L 593.2787318354632,36.00396641106926 L 595.5904229207202,32.0 L 605.337759704481,32.0 Z" /><path d="M 447.4715689735067,34.83268511895906 L 442.5652144256253,32.0 L 449.1070204894672,32.0 L 447.4715689735067,34.83268511895906 Z" /><path d="M 229.4867813993319,152.0 L 231.85666745559757,147.8952369423988 L 238.96632562439456,152.0 L 229.4867813993319,152.0 Z" /><path d="M 892.415197507994,152.0 L 899.5248556767909,147.89523694239887 L 901.8947417330565,152.0 L 892.415197507994,152.0 Z" /><path d="M 327.15112173322933,32.0 L 329.4628128184864,36.00396641106924 L 315.09209386421145,36.003966411069264 L 317.4037849494685,32.0 L 327.15112173322933,32.0 Z" /><path d="M 753.4566136516945,34.83268511895912 L 751.821162135734,32.0 L 758.362968199576,32.0 L 753.4566136516945,34.83268511895912 Z" /><path d="M 119.05472259687303,178.0 L 1025.054722596873,178.0 L 1025.054722596873,0.0 L 119.05472259687303,0.0 L 119.05472259687303,178.0 Z" /></g></svg>