  0
SECTION
  2
HEADER
  9
$ACADVER
  1
AC1014
  9
$HANDSEED
  5
FFFF
  9
$INSUNITS
 70
     4
  9
$MEASUREMENT
 70
     1
  0
ENDSEC
  0
SECTION
  2
TABLES
  0
TABLE
  2
VPORT
  5
8
330
0
100
AcDbSymbolTable
 70
     4
  0
VPORT
  5
2E
330
8
100
AcDbSymbolTableRecord
100
AcDbViewportTableRecord
  2
*ACTIVE
 70
     0
 10
0.0
 20
0.0
 11
1.0
 21
1.0
 12
210.0
 22
148.5
 13
0.0
 23
0.0
 14
10.0
 24
10.0
 15
10.0
 25
10.0
 16
0.0
 26
0.0
 36
1.0
 17
0.0
 27
0.0
 37
0.0
 40
341.0
 41
1.24
 42
50.0
 43
0.0
 44
0.0
 50
0.0
 51
0.0
 71
     0
 72
   100
 73
     1
 74
     3
 75
     0
 76
     0
 77
     0
 78
     0
  0
ENDTAB
  0
TABLE
  2
LTYPE
  5
5
330
0
100
AcDbSymbolTable
 70
     1
  0
LTYPE
  5
14
330
5
100
AcDbSymbolTableRecord
100
AcDbLinetypeTableRecord
  2
BYBLOCK
 70
     0
  3

 72
    65
 73
     0
 40
0.0
  0
LTYPE
  5
15
330
5
100
AcDbSymbolTableRecord
100
AcDbLinetypeTableRecord
  2
BYLAYER
 70
     0
  3

 72
    65
 73
     0
 40
0.0
  0
LTYPE
  5
16
330
5
100
AcDbSymbolTableRecord
100
AcDbLinetypeTableRecord
  2
CONTINUOUS
 70
     0
  3
Solid line
 72
    65
 73
     0
 40
0.0
  0
ENDTAB
  0
TABLE
  2
LAYER
  5
2
100
AcDbSymbolTable
 70
1
  0
LAYER
  5
50
100
AcDbSymbolTableRecord
100
AcDbLayerTableRecord
  2
0
 70
0
  6
CONTINUOUS
  0
ENDTAB
  0
TABLE
  2
STYLE
  5
3
330
0
100
AcDbSymbolTable
 70
     1
  0
STYLE
  5
11
330
3
100
AcDbSymbolTableRecord
100
AcDbTextStyleTableRecord
  2
STANDARD
 70
     0
 40
0.0
 41
1.0
 50
0.0
 71
     0
 42
2.5
  3
txt
  4

  0
ENDTAB
  0
TABLE
  2
VIEW
  5
6
330
0
100
AcDbSymbolTable
 70
     0
  0
ENDTAB
  0
TABLE
  2
UCS
  5
7
330
0
100
AcDbSymbolTable
 70
     0
  0
ENDTAB
  0
TABLE
  2
APPID
  5
9
330
0
100
AcDbSymbolTable
 70
     2
  0
APPID
  5
12
330
9
100
AcDbSymbolTableRecord
100
AcDbRegAppTableRecord
  2
ACAD
 70
     0
  0
ENDTAB
  0
TABLE
  2
DIMSTYLE
  5
A
330
0
100
AcDbSymbolTable
 70
     1
  0
DIMSTYLE
105
27
330
A
100
AcDbSymbolTableRecord
100
AcDbDimStyleTableRecord
  2
ISO-25
 70
     0
  3

  4

  5

  6

  7

 40
1.0
 41
2.5
 42
0.625
 43
3.75
 44
1.25
 45
0.0
 46
0.0
 47
0.0
 48
0.0
140
2.5
141
2.5
142
0.0
143
0.03937007874016
144
1.0
145
0.0
146
1.0
147
0.625
 71
     0
 72
     0
 73
     0
 74
     0
 75
     0
 76
     0
 77
     1
 78
     8
170
     0
171
     3
172
     1
173
     0
174
     0
175
     0
176
     0
177
     0
178
     0
270
     2
271
     2
272
     2
273
     2
274
     3
340
11
275
     0
280
     0
281
     0
282
     0
283
     0
284
     8
285
     0
286
     0
287
     3
288
     0
  0
ENDTAB
  0
TABLE
  2
BLOCK_RECORD
  5
1
330
0
100
AcDbSymbolTable
 70
     1
  0
BLOCK_RECORD
  5
1F
330
1
100
AcDbSymbolTableRecord
100
AcDbBlockTableRecord
  2
*MODEL_SPACE
  0
BLOCK_RECORD
  5
1B
330
1
100
AcDbSymbolTableRecord
100
AcDbBlockTableRecord
  2
*PAPER_SPACE
  0
ENDTAB
  0
ENDSEC
  0
SECTION
  2
BLOCKS
  0
BLOCK
  5
20
330
1F
100
AcDbEntity
  8
0
100
AcDbBlockBegin
  2
*MODEL_SPACE
 70
     0
 10
0.0
 20
0.0
 30
0.0
  3
*MODEL_SPACE
  1

  0
ENDBLK
  5
21
330
1F
100
AcDbEntity
  8
0
100
AcDbBlockEnd
  0
BLOCK
  5
1C
330
1B
100
AcDbEntity
 67
     1
  8
0
100
AcDbBlockBegin
  2
*PAPER_SPACE
  1

  0
ENDBLK
  5
1D
330
1B
100
AcDbEntity
 67
     1
  8
0
100
AcDbBlockEnd
  0
ENDSEC
  0
SECTION
  2
ENTITIES
  0
LWPOLYLINE
  5
100
100
AcDbEntity
  8
0
 62
7
100
AcDbPolyline
 90
5
 70
1
 10
163.456901
 20
95.847326
 30
0.0
 10
161.000023
 20
97.265805
 30
0.0
 10
161.000023
 20
119.269599
 30
0.0
 10
172.984823
 20
112.350171
 30
0.0
 10
163.456901
 20
95.847326
 30
0.0
  0
LWPOLYLINE
  5
101
100
AcDbEntity
  8
0
 62
7
100
AcDbPolyline
 90
4
 70
1
 10
177.356105
 20
107.121452
 30
0.0
 10
184.541464
 20
94.676044
 30
0.0
 10
170.170745
 20
94.676044
 30
0.0
 10
177.356105
 20
107.121452
 30
0.0
  0
LWPOLYLINE
  5
102
100
AcDbEntity
  8
0
 62
7
100
AcDbPolyline
 90
4
 70
1
 10
174.156105
 20
119.064015
 30
0.0
 10
161.710697
 20
126.249374
 30
0.0
 10
174.156105
 20
133.434734
 30
0.0
 10
174.156105
 20
119.064015
 30
0.0
  0
LWPOLYLINE
  5
103
100
AcDbEntity
  8
0
 62
7
100
AcDbPolyline
 90
5
 70
1
 10
196.484027
 20
91.476044
 30
0.0
 10
208.929434
 20
98.661404
 30
0.0
 10
208.929434
 20
91.000000
 30
0.0
 10
197.308560
 20
91.000000
 30
0.0
 10
196.484027
 20
91.476044
 30
0.0
  0
LWPOLYLINE
  5
104
100
AcDbEntity
  8
0
 62
7
100
AcDbPolyline
 90
5
 70
1
 10
161.000023
 20
133.229150
 30
0.0
 10
161.000023
 20
155.232943
 30
0.0
 10
163.456901
 20
156.651423
 30
0.0
 10
172.984823
 20
140.148577
 30
0.0
 10
161.000023
 20
133.229150
 30
0.0
  0
LWPOLYLINE
  5
105
100
AcDbEntity
  8
0
 62
7
100
AcDbPolyline
 90
5
 70
1
 10
163.456901
 20
165.393985
 30
0.0
 10
161.000023
 20
166.812465
 30
0.0
 10
161.000023
 20
188.816258
 30
0.0
 10
172.984823
 20
181.896830
 30
0.0
 10
163.456901
 20
165.393985
 30
0.0
  0
LWPOLYLINE
  5
106
100
AcDbEntity
  8
0
 62
7
100
AcDbPolyline
 90
4
 70
1
 10
184.541464
 20
157.822704
 30
0.0
 10
177.356105
 20
145.377296
 30
0.0
 10
170.170745
 20
157.822704
 30
0.0
 10
184.541464
 20
157.822704
 30
0.0
  0
LWPOLYLINE
  5
107
100
AcDbEntity
  8
0
 62
7
100
AcDbPolyline
 90
4
 70
1
 10
177.356105
 20
176.668112
 30
0.0
 10
184.541464
 20
164.222704
 30
0.0
 10
170.170745
 20
164.222704
 30
0.0
 10
177.356105
 20
176.668112
 30
0.0
  0
LWPOLYLINE
  5
108
100
AcDbEntity
  8
0
 62
7
100
AcDbPolyline
 90
4
 70
1
 10
174.156105
 20
188.610674
 30
0.0
 10
161.710697
 20
195.796034
 30
0.0
 10
174.156105
 20
202.981393
 30
0.0
 10
174.156105
 20
188.610674
 30
0.0
  0
LWPOLYLINE
  5
109
100
AcDbEntity
  8
0
 62
7
100
AcDbPolyline
 90
5
 70
1
 10
207.758153
 20
105.375248
 30
0.0
 10
191.255308
 20
95.847326
 30
0.0
 10
181.727386
 20
112.350171
 30
0.0
 10
198.230231
 20
121.878093
 30
0.0
 10
207.758153
 20
105.375248
 30
0.0
  0
LWPOLYLINE
  5
10a
100
AcDbEntity
  8
0
 62
7
100
AcDbPolyline
 90
5
 70
1
 10
207.758153
 20
147.123500
 30
0.0
 10
198.230231
 20
130.620655
 30
0.0
 10
181.727386
 20
140.148577
 30
0.0
 10
191.255308
 20
156.651423
 30
0.0
 10
207.758153
 20
147.123500
 30
0.0
  0
LWPOLYLINE
  5
10b
100
AcDbEntity
  8
0
 62
7
100
AcDbPolyline
 90
4
 70
1
 10
180.556105
 20
133.434734
 30
0.0
 10
193.001512
 20
126.249374
 30
0.0
 10
180.556105
 20
119.064015
 30
0.0
 10
180.556105
 20
133.434734
 30
0.0
  0
LWPOLYLINE
  5
10c
100
AcDbEntity
  8
0
 62
7
100
AcDbPolyline
 90
4
 70
1
 10
219.314794
 20
123.049374
 30
0.0
 10
212.129434
 20
110.603966
 30
0.0
 10
204.944075
 20
123.049374
 30
0.0
 10
219.314794
 20
123.049374
 30
0.0
  0
LWPOLYLINE
  5
10d
100
AcDbEntity
  8
0
 62
7
100
AcDbPolyline
 90
4
 70
1
 10
212.129434
 20
141.894782
 30
0.0
 10
219.314794
 20
129.449374
 30
0.0
 10
204.944075
 20
129.449374
 30
0.0
 10
212.129434
 20
141.894782
 30
0.0
  0
LWPOLYLINE
  5
10e
100
AcDbEntity
  8
0
 62
7
100
AcDbPolyline
 90
4
 70
1
 10
208.929434
 20
153.837344
 30
0.0
 10
196.484027
 20
161.022704
 30
0.0
 10
208.929434
 20
168.208063
 30
0.0
 10
208.929434
 20
153.837344
 30
0.0
  0
LWPOLYLINE
  5
10f
100
AcDbEntity
  8
0
 62
7
100
AcDbPolyline
 90
5
 70
1
 10
242.531483
 20
112.350171
 30
0.0
 10
233.003561
 20
95.847326
 30
0.0
 10
216.500716
 20
105.375248
 30
0.0
 10
226.028638
 20
121.878093
 30
0.0
 10
242.531483
 20
112.350171
 30
0.0
  0
LWPOLYLINE
  5
110
100
AcDbEntity
  8
0
 62
7
100
AcDbPolyline
 90
5
 70
1
 10
227.774842
 20
91.476044
 30
0.0
 10
226.950309
 20
91.000000
 30
0.0
 10
215.329434
 20
91.000000
 30
0.0
 10
215.329434
 20
98.661404
 30
0.0
 10
227.774842
 20
91.476044
 30
0.0
  0
LWPOLYLINE
  5
111
100
AcDbEntity
  8
0
 62
7
100
AcDbPolyline
 90
4
 70
1
 10
246.902764
 20
107.121452
 30
0.0
 10
254.088124
 20
94.676044
 30
0.0
 10
239.717405
 20
94.676044
 30
0.0
 10
246.902764
 20
107.121452
 30
0.0
  0
LWPOLYLINE
  5
112
100
AcDbEntity
  8
0
 62
7
100
AcDbPolyline
 90
4
 70
1
 10
243.702764
 20
119.064015
 30
0.0
 10
231.257356
 20
126.249374
 30
0.0
 10
243.702764
 20
133.434734
 30
0.0
 10
243.702764
 20
119.064015
 30
0.0
  0
LWPOLYLINE
  5
113
100
AcDbEntity
  8
0
 62
7
100
AcDbPolyline
 90
5
 70
1
 10
266.030686
 20
91.476044
 30
0.0
 10
278.476094
 20
98.661404
 30
0.0
 10
278.476094
 20
91.000000
 30
0.0
 10
266.855219
 20
91.000000
 30
0.0
 10
266.030686
 20
91.476044
 30
0.0
  0
LWPOLYLINE
  5
114
100
AcDbEntity
  8
0
 62
7
100
AcDbPolyline
 90
5
 70
1
 10
161.000023
 20
202.775809
 30
0.0
 10
161.000023
 20
211.000000
 30
0.0
 10
172.231518
 20
211.000000
 30
0.0
 10
172.984823
 20
209.695237
 30
0.0
 10
161.000023
 20
202.775809
 30
0.0
  0
LWPOLYLINE
  5
115
100
AcDbEntity
  8
0
 62
7
100
AcDbPolyline
 90
5
 70
1
 10
207.758153
 20
174.921907
 30
0.0
 10
191.255308
 20
165.393985
 30
0.0
 10
181.727386
 20
181.896830
 30
0.0
 10
198.230231
 20
191.424752
 30
0.0
 10
207.758153
 20
174.921907
 30
0.0
  0
LWPOLYLINE
  5
116
100
AcDbEntity
  8
0
 62
7
100
AcDbPolyline
 90
5
 70
1
 10
198.230231
 20
200.167315
 30
0.0
 10
181.727386
 20
209.695237
 30
0.0
 10
182.480691
 20
211.000000
 30
0.0
 10
204.484485
 20
211.000000
 30
0.0
 10
198.230231
 20
200.167315
 30
0.0
  0
LWPOLYLINE
  5
117
100
AcDbEntity
  8
0
 62
7
100
AcDbPolyline
 90
4
 70
1
 10
180.556105
 20
202.981393
 30
0.0
 10
193.001512
 20
195.796034
 30
0.0
 10
180.556105
 20
188.610674
 30
0.0
 10
180.556105
 20
202.981393
 30
0.0
  0
LWPOLYLINE
  5
118
100
AcDbEntity
  8
0
 62
7
100
AcDbPolyline
 90
4
 70
1
 10
219.314794
 20
192.596034
 30
0.0
 10
212.129434
 20
180.150626
 30
0.0
 10
204.944075
 20
192.596034
 30
0.0
 10
219.314794
 20
192.596034
 30
0.0
  0
LWPOLYLINE
  5
119
100
AcDbEntity
  8
0
 62
7
100
AcDbPolyline
 90
5
 70
1
 10
219.314794
 20
198.996034
 30
0.0
 10
204.944075
 20
198.996034
 30
0.0
 10
211.874568
 20
211.000000
 30
0.0
 10
212.384301
 20
211.000000
 30
0.0
 10
219.314794
 20
198.996034
 30
0.0
  0
LWPOLYLINE
  5
11a
100
AcDbEntity
  8
0
 62
7
100
AcDbPolyline
 90
5
 70
1
 10
242.531483
 20
140.148577
 30
0.0
 10
226.028638
 20
130.620655
 30
0.0
 10
216.500716
 20
147.123500
 30
0.0
 10
233.003561
 20
156.651423
 30
0.0
 10
242.531483
 20
140.148577
 30
0.0
  0
LWPOLYLINE
  5
11b
100
AcDbEntity
  8
0
 62
7
100
AcDbPolyline
 90
5
 70
1
 10
242.531483
 20
181.896830
 30
0.0
 10
233.003561
 20
165.393985
 30
0.0
 10
216.500716
 20
174.921907
 30
0.0
 10
226.028638
 20
191.424752
 30
0.0
 10
242.531483
 20
181.896830
 30
0.0
  0
LWPOLYLINE
  5
11c
100
AcDbEntity
  8
0
 62
7
100
AcDbPolyline
 90
4
 70
1
 10
215.329434
 20
168.208063
 30
0.0
 10
227.774842
 20
161.022704
 30
0.0
 10
215.329434
 20
153.837344
 30
0.0
 10
215.329434
 20
168.208063
 30
0.0
  0
LWPOLYLINE
  5
11d
100
AcDbEntity
  8
0
 62
7
100
AcDbPolyline
 90
4
 70
1
 10
254.088124
 20
157.822704
 30
0.0
 10
246.902764
 20
145.377296
 30
0.0
 10
239.717405
 20
157.822704
 30
0.0
 10
254.088124
 20
157.822704
 30
0.0
  0
LWPOLYLINE
  5
11e
100
AcDbEntity
  8
0
 62
7
100
AcDbPolyline
 90
4
 70
1
 10
246.902764
 20
176.668112
 30
0.0
 10
254.088124
 20
164.222704
 30
0.0
 10
239.717405
 20
164.222704
 30
0.0
 10
246.902764
 20
176.668112
 30
0.0
  0
LWPOLYLINE
  5
11f
100
AcDbEntity
  8
0
 62
7
100
AcDbPolyline
 90
4
 70
1
 10
243.702764
 20
188.610674
 30
0.0
 10
231.257356
 20
195.796034
 30
0.0
 10
243.702764
 20
202.981393
 30
0.0
 10
243.702764
 20
188.610674
 30
0.0
  0
LWPOLYLINE
  5
120
100
AcDbEntity
  8
0
 62
7
100
AcDbPolyline
 90
5
 70
1
 10
277.304813
 20
105.375248
 30
0.0
 10
260.801967
 20
95.847326
 30
0.0
 10
251.274045
 20
112.350171
 30
0.0
 10
267.776890
 20
121.878093
 30
0.0
 10
277.304813
 20
105.375248
 30
0.0
  0
LWPOLYLINE
  5
121
100
AcDbEntity
  8
0
 62
7
100
AcDbPolyline
 90
5
 70
1
 10
277.304813
 20
147.123500
 30
0.0
 10
267.776890
 20
130.620655
 30
0.0
 10
251.274045
 20
140.148577
 30
0.0
 10
260.801967
 20
156.651423
 30
0.0
 10
277.304813
 20
147.123500
 30
0.0
  0
LWPOLYLINE
  5
122
100
AcDbEntity
  8
0
 62
7
100
AcDbPolyline
 90
4
 70
1
 10
250.102764
 20
133.434734
 30
0.0
 10
262.548172
 20
126.249374
 30
0.0
 10
250.102764
 20
119.064015
 30
0.0
 10
250.102764
 20
133.434734
 30
0.0
  0
LWPOLYLINE
  5
123
100
AcDbEntity
  8
0
 62
7
100
AcDbPolyline
 90
4
 70
1
 10
288.861453
 20
123.049374
 30
0.0
 10
281.676094
 20
110.603966
 30
0.0
 10
274.490734
 20
123.049374
 30
0.0
 10
288.861453
 20
123.049374
 30
0.0
  0
LWPOLYLINE
  5
124
100
AcDbEntity
  8
0
 62
7
100
AcDbPolyline
 90
4
 70
1
 10
281.676094
 20
141.894782
 30
0.0
 10
288.861453
 20
129.449374
 30
0.0
 10
274.490734
 20
129.449374
 30
0.0
 10
281.676094
 20
141.894782
 30
0.0
  0
LWPOLYLINE
  5
125
100
AcDbEntity
  8
0
 62
7
100
AcDbPolyline
 90
4
 70
1
 10
278.476094
 20
153.837344
 30
0.0
 10
266.030686
 20
161.022704
 30
0.0
 10
278.476094
 20
168.208063
 30
0.0
 10
278.476094
 20
153.837344
 30
0.0
  0
LWPOLYLINE
  5
126
100
AcDbEntity
  8
0
 62
7
100
AcDbPolyline
 90
5
 70
1
 10
312.078142
 20
112.350171
 30
0.0
 10
302.550220
 20
95.847326
 30
0.0
 10
286.047375
 20
105.375248
 30
0.0
 10
295.575297
 20
121.878093
 30
0.0
 10
312.078142
 20
112.350171
 30
0.0
  0
LWPOLYLINE
  5
127
100
AcDbEntity
  8
0
 62
7
100
AcDbPolyline
 90
5
 70
1
 10
297.321502
 20
91.476044
 30
0.0
 10
296.496969
 20
91.000000
 30
0.0
 10
284.876094
 20
91.000000
 30
0.0
 10
284.876094
 20
98.661404
 30
0.0
 10
297.321502
 20
91.476044
 30
0.0
  0
LWPOLYLINE
  5
128
100
AcDbEntity
  8
0
 62
7
100
AcDbPolyline
 90
4
 70
1
 10
316.449424
 20
107.121452
 30
0.0
 10
323.634783
 20
94.676044
 30
0.0
 10
309.264064
 20
94.676044
 30
0.0
 10
316.449424
 20
107.121452
 30
0.0
  0
LWPOLYLINE
  5
129
100
AcDbEntity
  8
0
 62
7
100
AcDbPolyline
 90
4
 70
1
 10
313.249424
 20
119.064015
 30
0.0
 10
300.804016
 20
126.249374
 30
0.0
 10
313.249424
 20
133.434734
 30
0.0
 10
313.249424
 20
119.064015
 30
0.0
  0
LWPOLYLINE
  5
12a
100
AcDbEntity
  8
0
 62
7
100
AcDbPolyline
 90
5
 70
1
 10
335.577346
 20
91.476044
 30
0.0
 10
348.022753
 20
98.661404
 30
0.0
 10
348.022753
 20
91.000000
 30
0.0
 10
336.401879
 20
91.000000
 30
0.0
 10
335.577346
 20
91.476044
 30
0.0
  0
LWPOLYLINE
  5
12b
100
AcDbEntity
  8
0
 62
7
100
AcDbPolyline
 90
5
 70
1
 10
226.028638
 20
200.167315
 30
0.0
 10
219.774384
 20
211.000000
 30
0.0
 10
241.778178
 20
211.000000
 30
0.0
 10
242.531483
 20
209.695237
 30
0.0
 10
226.028638
 20
200.167315
 30
0.0
  0
LWPOLYLINE
  5
12c
100
AcDbEntity
  8
0
 62
7
100
AcDbPolyline
 90
5
 70
1
 10
277.304813
 20
174.921907
 30
0.0
 10
260.801967
 20
165.393985
 30
0.0
 10
251.274045
 20
181.896830
 30
0.0
 10
267.776890
 20
191.424752
 30
0.0
 10
277.304813
 20
174.921907
 30
0.0
  0
LWPOLYLINE
  5
12d
100
AcDbEntity
  8
0
 62
7
100
AcDbPolyline
 90
5
 70
1
 10
267.776890
 20
200.167315
 30
0.0
 10
251.274045
 20
209.695237
 30
0.0
 10
252.027351
 20
211.000000
 30
0.0
 10
274.031144
 20
211.000000
 30
0.0
 10
267.776890
 20
200.167315
 30
0.0
  0
LWPOLYLINE
  5
12e
100
AcDbEntity
  8
0
 62
7
100
AcDbPolyline
 90
4
 70
1
 10
250.102764
 20
202.981393
 30
0.0
 10
262.548172
 20
195.796034
 30
0.0
 10
250.102764
 20
188.610674
 30
0.0
 10
250.102764
 20
202.981393
 30
0.0
  0
LWPOLYLINE
  5
12f
100
AcDbEntity
  8
0
 62
7
100
AcDbPolyline
 90
4
 70
1
 10
288.861453
 20
192.596034
 30
0.0
 10
281.676094
 20
180.150626
 30
0.0
 10
274.490734
 20
192.596034
 30
0.0
 10
288.861453
 20
192.596034
 30
0.0
  0
LWPOLYLINE
  5
130
100
AcDbEntity
  8
0
 62
7
100
AcDbPolyline
 90
5
 70
1
 10
288.861453
 20
198.996034
 30
0.0
 10
274.490734
 20
198.996034
 30
0.0
 10
281.421228
 20
211.000000
 30
0.0
 10
281.930960
 20
211.000000
 30
0.0
 10
288.861453
 20
198.996034
 30
0.0
  0
LWPOLYLINE
  5
131
100
AcDbEntity
  8
0
 62
7
100
AcDbPolyline
 90
5
 70
1
 10
312.078142
 20
140.148577
 30
0.0
 10
295.575297
 20
130.620655
 30
0.0
 10
286.047375
 20
147.123500
 30
0.0
 10
302.550220
 20
156.651423
 30
0.0
 10
312.078142
 20
140.148577
 30
0.0
  0
LWPOLYLINE
  5
132
100
AcDbEntity
  8
0
 62
7
100
AcDbPolyline
 90
5
 70
1
 10
312.078142
 20
181.896830
 30
0.0
 10
302.550220
 20
165.393985
 30
0.0
 10
286.047375
 20
174.921907
 30
0.0
 10
295.575297
 20
191.424752
 30
0.0
 10
312.078142
 20
181.896830
 30
0.0
  0
LWPOLYLINE
  5
133
100
AcDbEntity
  8
0
 62
7
100
AcDbPolyline
 90
4
 70
1
 10
284.876094
 20
168.208063
 30
0.0
 10
297.321502
 20
161.022704
 30
0.0
 10
284.876094
 20
153.837344
 30
0.0
 10
284.876094
 20
168.208063
 30
0.0
  0
LWPOLYLINE
  5
134
100
AcDbEntity
  8
0
 62
7
100
AcDbPolyline
 90
4
 70
1
 10
323.634783
 20
157.822704
 30
0.0
 10
316.449424
 20
145.377296
 30
0.0
 10
309.264064
 20
157.822704
 30
0.0
 10
323.634783
 20
157.822704
 30
0.0
  0
LWPOLYLINE
  5
135
100
AcDbEntity
  8
0
 62
7
100
AcDbPolyline
 90
4
 70
1
 10
316.449424
 20
176.668112
 30
0.0
 10
323.634783
 20
164.222704
 30
0.0
 10
309.264064
 20
164.222704
 30
0.0
 10
316.449424
 20
176.668112
 30
0.0
  0
LWPOLYLINE
  5
136
100
AcDbEntity
  8
0
 62
7
100
AcDbPolyline
 90
4
 70
1
 10
313.249424
 20
188.610674
 30
0.0
 10
300.804016
 20
195.796034
 30
0.0
 10
313.249424
 20
202.981393
 30
0.0
 10
313.249424
 20
188.610674
 30
0.0
  0
LWPOLYLINE
  5
137
100
AcDbEntity
  8
0
 62
7
100
AcDbPolyline
 90
5
 70
1
 10
346.851472
 20
105.375248
 30
0.0
 10
330.348627
 20
95.847326
 30
0.0
 10
320.820705
 20
112.350171
 30
0.0
 10
337.323550
 20
121.878093
 30
0.0
 10
346.851472
 20
105.375248
 30
0.0
  0
LWPOLYLINE
  5
138
100
AcDbEntity
  8
0
 62
7
100
AcDbPolyline
 90
5
 70
1
 10
346.851472
 20
147.123500
 30
0.0
 10
337.323550
 20
130.620655
 30
0.0
 10
320.820705
 20
140.148577
 30
0.0
 10
330.348627
 20
156.651423
 30
0.0
 10
346.851472
 20
147.123500
 30
0.0
  0
LWPOLYLINE
  5
139
100
AcDbEntity
  8
0
 62
7
100
AcDbPolyline
 90
4
 70
1
 10
319.649424
 20
133.434734
 30
0.0
 10
332.094831
 20
126.249374
 30
0.0
 10
319.649424
 20
119.064015
 30
0.0
 10
319.649424
 20
133.434734
 30
0.0
  0
LWPOLYLINE
  5
13a
100
AcDbEntity
  8
0
 62
7
100
AcDbPolyline
 90
4
 70
1
 10
358.408113
 20
123.049374
 30
0.0
 10
351.222753
 20
110.603966
 30
0.0
 10
344.037394
 20
123.049374
 30
0.0
 10
358.408113
 20
123.049374
 30
0.0
  0
LWPOLYLINE
  5
13b
100
AcDbEntity
  8
0
 62
7
100
AcDbPolyline
 90
4
 70
1
 10
351.222753
 20
141.894782
 30
0.0
 10
358.408113
 20
129.449374
 30
0.0
 10
344.037394
 20
129.449374
 30
0.0
 10
351.222753
 20
141.894782
 30
0.0
  0
LWPOLYLINE
  5
13c
100
AcDbEntity
  8
0
 62
7
100
AcDbPolyline
 90
4
 70
1
 10
348.022753
 20
153.837344
 30
0.0
 10
335.577346
 20
161.022704
 30
0.0
 10
348.022753
 20
168.208063
 30
0.0
 10
348.022753
 20
153.837344
 30
0.0
  0
LWPOLYLINE
  5
13d
100
AcDbEntity
  8
0
 62
7
100
AcDbPolyline
 90
5
 70
1
 10
381.624802
 20
112.350171
 30
0.0
 10
372.096880
 20
95.847326
 30
0.0
 10
355.594035
 20
105.375248
 30
0.0
 10
365.121957
 20
121.878093
 30
0.0
 10
381.624802
 20
112.350171
 30
0.0
  0
LWPOLYLINE
  5
13e
100
AcDbEntity
  8
0
 62
7
100
AcDbPolyline
 90
5
 70
1
 10
366.868161
 20
91.476044
 30
0.0
 10
366.043628
 20
91.000000
 30
0.0
 10
354.422753
 20
91.000000
 30
0.0
 10
354.422753
 20
98.661404
 30
0.0
 10
366.868161
 20
91.476044
 30
0.0
  0
LWPOLYLINE
  5
13f
100
AcDbEntity
  8
0
 62
7
100
AcDbPolyline
 90
4
 70
1
 10
385.996083
 20
107.121452
 30
0.0
 10
393.181443
 20
94.676044
 30
0.0
 10
378.810724
 20
94.676044
 30
0.0
 10
385.996083
 20
107.121452
 30
0.0
  0
LWPOLYLINE
  5
140
100
AcDbEntity
  8
0
 62
7
100
AcDbPolyline
 90
4
 70
1
 10
382.796083
 20
119.064015
 30
0.0
 10
370.350675
 20
126.249374
 30
0.0
 10
382.796083
 20
133.434734
 30
0.0
 10
382.796083
 20
119.064015
 30
0.0
  0
LWPOLYLINE
  5
141
100
AcDbEntity
  8
0
 62
7
100
AcDbPolyline
 90
5
 70
1
 10
405.124005
 20
91.476044
 30
0.0
 10
417.569413
 20
98.661404
 30
0.0
 10
417.569413
 20
91.000000
 30
0.0
 10
405.948538
 20
91.000000
 30
0.0
 10
405.124005
 20
91.476044
 30
0.0
  0
LWPOLYLINE
  5
142
100
AcDbEntity
  8
0
 62
7
100
AcDbPolyline
 90
5
 70
1
 10
295.575297
 20
200.167315
 30
0.0
 10
289.321044
 20
211.000000
 30
0.0
 10
311.324837
 20
211.000000
 30
0.0
 10
312.078142
 20
209.695237
 30
0.0
 10
295.575297
 20
200.167315
 30
0.0
  0
LWPOLYLINE
  5
143
100
AcDbEntity
  8
0
 62
7
100
AcDbPolyline
 90
5
 70
1
 10
346.851472
 20
174.921907
 30
0.0
 10
330.348627
 20
165.393985
 30
0.0
 10
320.820705
 20
181.896830
 30
0.0
 10
337.323550
 20
191.424752
 30
0.0
 10
346.851472
 20
174.921907
 30
0.0
  0
LWPOLYLINE
  5
144
100
AcDbEntity
  8
0
 62
7
100
AcDbPolyline
 90
5
 70
1
 10
337.323550
 20
200.167315
 30
0.0
 10
320.820705
 20
209.695237
 30
0.0
 10
321.574010
 20
211.000000
 30
0.0
 10
343.577804
 20
211.000000
 30
0.0
 10
337.323550
 20
200.167315
 30
0.0
  0
LWPOLYLINE
  5
145
100
AcDbEntity
  8
0
 62
7
100
AcDbPolyline
 90
4
 70
1
 10
319.649424
 20
202.981393
 30
0.0
 10
332.094831
 20
195.796034
 30
0.0
 10
319.649424
 20
188.610674
 30
0.0
 10
319.649424
 20
202.981393
 30
0.0
  0
LWPOLYLINE
  5
146
100
AcDbEntity
  8
0
 62
7
100
AcDbPolyline
 90
4
 70
1
 10
358.408113
 20
192.596034
 30
0.0
 10
351.222753
 20
180.150626
 30
0.0
 10
344.037394
 20
192.596034
 30
0.0
 10
358.408113
 20
192.596034
 30
0.0
  0
LWPOLYLINE
  5
147
100
AcDbEntity
  8
0
 62
7
100
AcDbPolyline
 90
5
 70
1
 10
358.408113
 20
198.996034
 30
0.0
 10
344.037394
 20
198.996034
 30
0.0
 10
350.967887
 20
211.000000
 30
0.0
 10
351.477620
 20
211.000000
 30
0.0
 10
358.408113
 20
198.996034
 30
0.0
  0
LWPOLYLINE
  5
148
100
AcDbEntity
  8
0
 62
7
100
AcDbPolyline
 90
5
 70
1
 10
381.624802
 20
140.148577
 30
0.0
 10
365.121957
 20
130.620655
 30
0.0
 10
355.594035
 20
147.123500
 30
0.0
 10
372.096880
 20
156.651423
 30
0.0
 10
381.624802
 20
140.148577
 30
0.0
  0
LWPOLYLINE
  5
149
100
AcDbEntity
  8
0
 62
7
100
AcDbPolyline
 90
5
 70
1
 10
381.624802
 20
181.896830
 30
0.0
 10
372.096880
 20
165.393985
 30
0.0
 10
355.594035
 20
174.921907
 30
0.0
 10
365.121957
 20
191.424752
 30
0.0
 10
381.624802
 20
181.896830
 30
0.0
  0
LWPOLYLINE
  5
14a
100
AcDbEntity
  8
0
 62
7
100
AcDbPolyline
 90
4
 70
1
 10
354.422753
 20
168.208063
 30
0.0
 10
366.868161
 20
161.022704
 30
0.0
 10
354.422753
 20
153.837344
 30
0.0
 10
354.422753
 20
168.208063
 30
0.0
  0
LWPOLYLINE
  5
14b
100
AcDbEntity
  8
0
 62
7
100
AcDbPolyline
 90
4
 70
1
 10
393.181443
 20
157.822704
 30
0.0
 10
385.996083
 20
145.377296
 30
0.0
 10
378.810724
 20
157.822704
 30
0.0
 10
393.181443
 20
157.822704
 30
0.0
  0
LWPOLYLINE
  5
14c
100
AcDbEntity
  8
0
 62
7
100
AcDbPolyline
 90
4
 70
1
 10
385.996083
 20
176.668112
 30
0.0
 10
393.181443
 20
164.222704
 30
0.0
 10
378.810724
 20
164.222704
 30
0.0
 10
385.996083
 20
176.668112
 30
0.0
  0
LWPOLYLINE
  5
14d
100
AcDbEntity
  8
0
 62
7
100
AcDbPolyline
 90
4
 70
1
 10
382.796083
 20
188.610674
 30
0.0
 10
370.350675
 20
195.796034
 30
0.0
 10
382.796083
 20
202.981393
 30
0.0
 10
382.796083
 20
188.610674
 30
0.0
  0
LWPOLYLINE
  5
14e
100
AcDbEntity
  8
0
 62
7
100
AcDbPolyline
 90
5
 70
1
 10
416.398132
 20
105.375248
 30
0.0
 10
399.895286
 20
95.847326
 30
0.0
 10
390.367364
 20
112.350171
 30
0.0
 10
406.870209
 20
121.878093
 30
0.0
 10
416.398132
 20
105.375248
 30
0.0
  0
LWPOLYLINE
  5
14f
100
AcDbEntity
  8
0
 62
7
100
AcDbPolyline
 90
5
 70
1
 10
416.398132
 20
147.123500
 30
0.0
 10
406.870209
 20
130.620655
 30
0.0
 10
390.367364
 20
140.148577
 30
0.0
 10
399.895286
 20
156.651423
 30
0.0
 10
416.398132
 20
147.123500
 30
0.0
  0
LWPOLYLINE
  5
150
100
AcDbEntity
  8
0
 62
7
100
AcDbPolyline
 90
4
 70
1
 10
389.196083
 20
133.434734
 30
0.0
 10
401.641491
 20
126.249374
 30
0.0
 10
389.196083
 20
119.064015
 30
0.0
 10
389.196083
 20
133.434734
 30
0.0
  0
LWPOLYLINE
  5
151
100
AcDbEntity
  8
0
 62
7
100
AcDbPolyline
 90
4
 70
1
 10
427.954772
 20
123.049374
 30
0.0
 10
420.769413
 20
110.603966
 30
0.0
 10
413.584053
 20
123.049374
 30
0.0
 10
427.954772
 20
123.049374
 30
0.0
  0
LWPOLYLINE
  5
152
100
AcDbEntity
  8
0
 62
7
100
AcDbPolyline
 90
4
 70
1
 10
420.769413
 20
141.894782
 30
0.0
 10
427.954772
 20
129.449374
 30
0.0
 10
413.584053
 20
129.449374
 30
0.0
 10
420.769413
 20
141.894782
 30
0.0
  0
LWPOLYLINE
  5
153
100
AcDbEntity
  8
0
 62
7
100
AcDbPolyline
 90
4
 70
1
 10
417.569413
 20
153.837344
 30
0.0
 10
405.124005
 20
161.022704
 30
0.0
 10
417.569413
 20
168.208063
 30
0.0
 10
417.569413
 20
153.837344
 30
0.0
  0
LWPOLYLINE
  5
154
100
AcDbEntity
  8
0
 62
7
100
AcDbPolyline
 90
5
 70
1
 10
451.171461
 20
112.350171
 30
0.0
 10
441.643539
 20
95.847326
 30
0.0
 10
425.140694
 20
105.375248
 30
0.0
 10
434.668616
 20
121.878093
 30
0.0
 10
451.171461
 20
112.350171
 30
0.0
  0
LWPOLYLINE
  5
155
100
AcDbEntity
  8
0
 62
7
100
AcDbPolyline
 90
5
 70
1
 10
436.414821
 20
91.476044
 30
0.0
 10
435.590288
 20
91.000000
 30
0.0
 10
423.969413
 20
91.000000
 30
0.0
 10
423.969413
 20
98.661404
 30
0.0
 10
436.414821
 20
91.476044
 30
0.0
  0
LWPOLYLINE
  5
156
100
AcDbEntity
  8
0
 62
7
100
AcDbPolyline
 90
4
 70
1
 10
455.542743
 20
107.121452
 30
0.0
 10
462.728102
 20
94.676044
 30
0.0
 10
448.357383
 20
94.676044
 30
0.0
 10
455.542743
 20
107.121452
 30
0.0
  0
LWPOLYLINE
  5
157
100
AcDbEntity
  8
0
 62
7
100
AcDbPolyline
 90
4
 70
1
 10
452.342743
 20
119.064015
 30
0.0
 10
439.897335
 20
126.249374
 30
0.0
 10
452.342743
 20
133.434734
 30
0.0
 10
452.342743
 20
119.064015
 30
0.0
  0
LWPOLYLINE
  5
158
100
AcDbEntity
  8
0
 62
7
100
AcDbPolyline
 90
5
 70
1
 10
474.670665
 20
91.476044
 30
0.0
 10
487.116072
 20
98.661404
 30
0.0
 10
487.116072
 20
91.000000
 30
0.0
 10
475.495198
 20
91.000000
 30
0.0
 10
474.670665
 20
91.476044
 30
0.0
  0
LWPOLYLINE
  5
159
100
AcDbEntity
  8
0
 62
7
100
AcDbPolyline
 90
5
 70
1
 10
365.121957
 20
200.167315
 30
0.0
 10
358.867703
 20
211.000000
 30
0.0
 10
380.871496
 20
211.000000
 30
0.0
 10
381.624802
 20
209.695237
 30
0.0
 10
365.121957
 20
200.167315
 30
0.0
  0
LWPOLYLINE
  5
15a
100
AcDbEntity
  8
0
 62
7
100
AcDbPolyline
 90
5
 70
1
 10
416.398132
 20
174.921907
 30
0.0
 10
399.895286
 20
165.393985
 30
0.0
 10
390.367364
 20
181.896830
 30
0.0
 10
406.870209
 20
191.424752
 30
0.0
 10
416.398132
 20
174.921907
 30
0.0
  0
LWPOLYLINE
  5
15b
100
AcDbEntity
  8
0
 62
7
100
AcDbPolyline
 90
5
 70
1
 10
406.870209
 20
200.167315
 30
0.0
 10
390.367364
 20
209.695237
 30
0.0
 10
391.120670
 20
211.000000
 30
0.0
 10
413.124463
 20
211.000000
 30
0.0
 10
406.870209
 20
200.167315
 30
0.0
  0
LWPOLYLINE
  5
15c
100
AcDbEntity
  8
0
 62
7
100
AcDbPolyline
 90
4
 70
1
 10
389.196083
 20
202.981393
 30
0.0
 10
401.641491
 20
195.796034
 30
0.0
 10
389.196083
 20
188.610674
 30
0.0
 10
389.196083
 20
202.981393
 30
0.0
  0
LWPOLYLINE
  5
15d
100
AcDbEntity
  8
0
 62
7
100
AcDbPolyline
 90
4
 70
1
 10
427.954772
 20
192.596034
 30
0.0
 10
420.769413
 20
180.150626
 30
0.0
 10
413.584053
 20
192.596034
 30
0.0
 10
427.954772
 20
192.596034
 30
0.0
  0
LWPOLYLINE
  5
15e
100
AcDbEntity
  8
0
 62
7
100
AcDbPolyline
 90
5
 70
1
 10
427.954772
 20
198.996034
 30
0.0
 10
413.584053
 20
198.996034
 30
0.0
 10
420.514547
 20
211.000000
 30
0.0
 10
421.024279
 20
211.000000
 30
0.0
 10
427.954772
 20
198.996034
 30
0.0
  0
LWPOLYLINE
  5
15f
100
AcDbEntity
  8
0
 62
7
100
AcDbPolyline
 90
5
 70
1
 10
451.171461
 20
140.148577
 30
0.0
 10
434.668616
 20
130.620655
 30
0.0
 10
425.140694
 20
147.123500
 30
0.0
 10
441.643539
 20
156.651423
 30
0.0
 10
451.171461
 20
140.148577
 30
0.0
  0
LWPOLYLINE
  5
160
100
AcDbEntity
  8
0
 62
7
100
AcDbPolyline
 90
5
 70
1
 10
451.171461
 20
181.896830
 30
0.0
 10
441.643539
 20
165.393985
 30
0.0
 10
425.140694
 20
174.921907
 30
0.0
 10
434.668616
 20
191.424752
 30
0.0
 10
451.171461
 20
181.896830
 30
0.0
  0
LWPOLYLINE
  5
161
100
AcDbEntity
  8
0
 62
7
100
AcDbPolyline
 90
4
 70
1
 10
423.969413
 20
168.208063
 30
0.0
 10
436.414821
 20
161.022704
 30
0.0
 10
423.969413
 20
153.837344
 30
0.0
 10
423.969413
 20
168.208063
 30
0.0
  0
LWPOLYLINE
  5
162
100
AcDbEntity
  8
0
 62
7
100
AcDbPolyline
 90
4
 70
1
 10
462.728102
 20
157.822704
 30
0.0
 10
455.542743
 20
145.377296
 30
0.0
 10
448.357383
 20
157.822704
 30
0.0
 10
462.728102
 20
157.822704
 30
0.0
  0
LWPOLYLINE
  5
163
100
AcDbEntity
  8
0
 62
7
100
AcDbPolyline
 90
4
 70
1
 10
455.542743
 20
176.668112
 30
0.0
 10
462.728102
 20
164.222704
 30
0.0
 10
448.357383
 20
164.222704
 30
0.0
 10
455.542743
 20
176.668112
 30
0.0
  0
LWPOLYLINE
  5
164
100
AcDbEntity
  8
0
 62
7
100
AcDbPolyline
 90
4
 70
1
 10
452.342743
 20
188.610674
 30
0.0
 10
439.897335
 20
195.796034
 30
0.0
 10
452.342743
 20
202.981393
 30
0.0
 10
452.342743
 20
188.610674
 30
0.0
  0
LWPOLYLINE
  5
165
100
AcDbEntity
  8
0
 62
7
100
AcDbPolyline
 90
5
 70
1
 10
485.944791
 20
105.375248
 30
0.0
 10
469.441946
 20
95.847326
 30
0.0
 10
459.914024
 20
112.350171
 30
0.0
 10
476.416869
 20
121.878093
 30
0.0
 10
485.944791
 20
105.375248
 30
0.0
  0
LWPOLYLINE
  5
166
100
AcDbEntity
  8
0
 62
7
100
AcDbPolyline
 90
5
 70
1
 10
485.944791
 20
147.123500
 30
0.0
 10
476.416869
 20
130.620655
 30
0.0
 10
459.914024
 20
140.148577
 30
0.0
 10
469.441946
 20
156.651423
 30
0.0
 10
485.944791
 20
147.123500
 30
0.0
  0
LWPOLYLINE
  5
167
100
AcDbEntity
  8
0
 62
7
100
AcDbPolyline
 90
4
 70
1
 10
458.742743
 20
133.434734
 30
0.0
 10
471.188150
 20
126.249374
 30
0.0
 10
458.742743
 20
119.064015
 30
0.0
 10
458.742743
 20
133.434734
 30
0.0
  0
LWPOLYLINE
  5
168
100
AcDbEntity
  8
0
 62
7
100
AcDbPolyline
 90
4
 70
1
 10
497.501432
 20
123.049374
 30
0.0
 10
490.316072
 20
110.603966
 30
0.0
 10
483.130713
 20
123.049374
 30
0.0
 10
497.501432
 20
123.049374
 30
0.0
  0
LWPOLYLINE
  5
169
100
AcDbEntity
  8
0
 62
7
100
AcDbPolyline
 90
4
 70
1
 10
490.316072
 20
141.894782
 30
0.0
 10
497.501432
 20
129.449374
 30
0.0
 10
483.130713
 20
129.449374
 30
0.0
 10
490.316072
 20
141.894782
 30
0.0
  0
LWPOLYLINE
  5
16a
100
AcDbEntity
  8
0
 62
7
100
AcDbPolyline
 90
4
 70
1
 10
487.116072
 20
153.837344
 30
0.0
 10
474.670665
 20
161.022704
 30
0.0
 10
487.116072
 20
168.208063
 30
0.0
 10
487.116072
 20
153.837344
 30
0.0
  0
LWPOLYLINE
  5
16b
100
AcDbEntity
  8
0
 62
7
100
AcDbPolyline
 90
5
 70
1
 10
520.718121
 20
112.350171
 30
0.0
 10
511.190199
 20
95.847326
 30
0.0
 10
494.687354
 20
105.375248
 30
0.0
 10
504.215276
 20
121.878093
 30
0.0
 10
520.718121
 20
112.350171
 30
0.0
  0
LWPOLYLINE
  5
16c
100
AcDbEntity
  8
0
 62
7
100
AcDbPolyline
 90
5
 70
1
 10
505.961480
 20
91.476044
 30
0.0
 10
505.136947
 20
91.000000
 30
0.0
 10
493.516072
 20
91.000000
 30
0.0
 10
493.516072
 20
98.661404
 30
0.0
 10
505.961480
 20
91.476044
 30
0.0
  0
LWPOLYLINE
  5
16d
100
AcDbEntity
  8
0
 62
7
100
AcDbPolyline
 90
4
 70
1
 10
525.089402
 20
107.121452
 30
0.0
 10
532.274762
 20
94.676044
 30
0.0
 10
517.904043
 20
94.676044
 30
0.0
 10
525.089402
 20
107.121452
 30
0.0
  0
LWPOLYLINE
  5
16e
100
AcDbEntity
  8
0
 62
7
100
AcDbPolyline
 90
4
 70
1
 10
521.889402
 20
119.064015
 30
0.0
 10
509.443994
 20
126.249374
 30
0.0
 10
521.889402
 20
133.434734
 30
0.0
 10
521.889402
 20
119.064015
 30
0.0
  0
LWPOLYLINE
  5
16f
100
AcDbEntity
  8
0
 62
7
100
AcDbPolyline
 90
5
 70
1
 10
544.217324
 20
91.476044
 30
0.0
 10
556.662732
 20
98.661404
 30
0.0
 10
556.662732
 20
91.000000
 30
0.0
 10
545.041857
 20
91.000000
 30
0.0
 10
544.217324
 20
91.476044
 30
0.0
  0
LWPOLYLINE
  5
170
100
AcDbEntity
  8
0
 62
7
100
AcDbPolyline
 90
5
 70
1
 10
434.668616
 20
200.167315
 30
0.0
 10
428.414363
 20
211.000000
 30
0.0
 10
450.418156
 20
211.000000
 30
0.0
 10
451.171461
 20
209.695237
 30
0.0
 10
434.668616
 20
200.167315
 30
0.0
  0
LWPOLYLINE
  5
171
100
AcDbEntity
  8
0
 62
7
100
AcDbPolyline
 90
5
 70
1
 10
485.944791
 20
174.921907
 30
0.0
 10
469.441946
 20
165.393985
 30
0.0
 10
459.914024
 20
181.896830
 30
0.0
 10
476.416869
 20
191.424752
 30
0.0
 10
485.944791
 20
174.921907
 30
0.0
  0
LWPOLYLINE
  5
172
100
AcDbEntity
  8
0
 62
7
100
AcDbPolyline
 90
5
 70
1
 10
476.416869
 20
200.167315
 30
0.0
 10
459.914024
 20
209.695237
 30
0.0
 10
460.667329
 20
211.000000
 30
0.0
 10
482.671123
 20
211.000000
 30
0.0
 10
476.416869
 20
200.167315
 30
0.0
  0
LWPOLYLINE
  5
173
100
AcDbEntity
  8
0
 62
7
100
AcDbPolyline
 90
4
 70
1
 10
458.742743
 20
202.981393
 30
0.0
 10
471.188150
 20
195.796034
 30
0.0
 10
458.742743
 20
188.610674
 30
0.0
 10
458.742743
 20
202.981393
 30
0.0
  0
LWPOLYLINE
  5
174
100
AcDbEntity
  8
0
 62
7
100
AcDbPolyline
 90
4
 70
1
 10
497.501432
 20
192.596034
 30
0.0
 10
490.316072
 20
180.150626
 30
0.0
 10
483.130713
 20
192.596034
 30
0.0
 10
497.501432
 20
192.596034
 30
0.0
  0
LWPOLYLINE
  5
175
100
AcDbEntity
  8
0
 62
7
100
AcDbPolyline
 90
5
 70
1
 10
497.501432
 20
198.996034
 30
0.0
 10
483.130713
 20
198.996034
 30
0.0
 10
490.061206
 20
211.000000
 30
0.0
 10
490.570939
 20
211.000000
 30
0.0
 10
497.501432
 20
198.996034
 30
0.0
  0
LWPOLYLINE
  5
176
100
AcDbEntity
  8
0
 62
7
100
AcDbPolyline
 90
5
 70
1
 10
520.718121
 20
140.148577
 30
0.0
 10
504.215276
 20
130.620655
 30
0.0
 10
494.687354
 20
147.123500
 30
0.0
 10
511.190199
 20
156.651423
 30
0.0
 10
520.718121
 20
140.148577
 30
0.0
  0
LWPOLYLINE
  5
177
100
AcDbEntity
  8
0
 62
7
100
AcDbPolyline
 90
5
 70
1
 10
520.718121
 20
181.896830
 30
0.0
 10
511.190199
 20
165.393985
 30
0.0
 10
494.687354
 20
174.921907
 30
0.0
 10
504.215276
 20
191.424752
 30
0.0
 10
520.718121
 20
181.896830
 30
0.0
  0
LWPOLYLINE
  5
178
100
AcDbEntity
  8
0
 62
7
100
AcDbPolyline
 90
4
 70
1
 10
493.516072
 20
168.208063
 30
0.0
 10
505.961480
 20
161.022704
 30
0.0
 10
493.516072
 20
153.837344
 30
0.0
 10
493.516072
 20
168.208063
 30
0.0
  0
LWPOLYLINE
  5
179
100
AcDbEntity
  8
0
 62
7
100
AcDbPolyline
 90
4
 70
1
 10
532.274762
 20
157.822704
 30
0.0
 10
525.089402
 20
145.377296
 30
0.0
 10
517.904043
 20
157.822704
 30
0.0
 10
532.274762
 20
157.822704
 30
0.0
  0
LWPOLYLINE
  5
17a
100
AcDbEntity
  8
0
 62
7
100
AcDbPolyline
 90
4
 70
1
 10
525.089402
 20
176.668112
 30
0.0
 10
532.274762
 20
164.222704
 30
0.0
 10
517.904043
 20
164.222704
 30
0.0
 10
525.089402
 20
176.668112
 30
0.0
  0
LWPOLYLINE
  5
17b
100
AcDbEntity
  8
0
 62
7
100
AcDbPolyline
 90
4
 70
1
 10
521.889402
 20
188.610674
 30
0.0
 10
509.443994
 20
195.796034
 30
0.0
 10
521.889402
 20
202.981393
 30
0.0
 10
521.889402
 20
188.610674
 30
0.0
  0
LWPOLYLINE
  5
17c
100
AcDbEntity
  8
0
 62
7
100
AcDbPolyline
 90
5
 70
1
 10
555.491451
 20
105.375248
 30
0.0
 10
538.988605
 20
95.847326
 30
0.0
 10
529.460683
 20
112.350171
 30
0.0
 10
545.963528
 20
121.878093
 30
0.0
 10
555.491451
 20
105.375248
 30
0.0
  0
LWPOLYLINE
  5
17d
100
AcDbEntity
  8
0
 62
7
100
AcDbPolyline
 90
5
 70
1
 10
555.491451
 20
147.123500
 30
0.0
 10
545.963528
 20
130.620655
 30
0.0
 10
529.460683
 20
140.148577
 30
0.0
 10
538.988605
 20
156.651423
 30
0.0
 10
555.491451
 20
147.123500
 30
0.0
  0
LWPOLYLINE
  5
17e
100
AcDbEntity
  8
0
 62
7
100
AcDbPolyline
 90
4
 70
1
 10
528.289402
 20
133.434734
 30
0.0
 10
540.734810
 20
126.249374
 30
0.0
 10
528.289402
 20
119.064015
 30
0.0
 10
528.289402
 20
133.434734
 30
0.0
  0
LWPOLYLINE
  5
17f
100
AcDbEntity
  8
0
 62
7
100
AcDbPolyline
 90
4
 70
1
 10
567.048091
 20
123.049374
 30
0.0
 10
559.862732
 20
110.603966
 30
0.0
 10
552.677372
 20
123.049374
 30
0.0
 10
567.048091
 20
123.049374
 30
0.0
  0
LWPOLYLINE
  5
180
100
AcDbEntity
  8
0
 62
7
100
AcDbPolyline
 90
4
 70
1
 10
559.862732
 20
141.894782
 30
0.0
 10
567.048091
 20
129.449374
 30
0.0
 10
552.677372
 20
129.449374
 30
0.0
 10
559.862732
 20
141.894782
 30
0.0
  0
LWPOLYLINE
  5
181
100
AcDbEntity
  8
0
 62
7
100
AcDbPolyline
 90
4
 70
1
 10
556.662732
 20
153.837344
 30
0.0
 10
544.217324
 20
161.022704
 30
0.0
 10
556.662732
 20
168.208063
 30
0.0
 10
556.662732
 20
153.837344
 30
0.0
  0
LWPOLYLINE
  5
182
100
AcDbEntity
  8
0
 62
7
100
AcDbPolyline
 90
5
 70
1
 10
590.264780
 20
112.350171
 30
0.0
 10
580.736858
 20
95.847326
 30
0.0
 10
564.234013
 20
105.375248
 30
0.0
 10
573.761935
 20
121.878093
 30
0.0
 10
590.264780
 20
112.350171
 30
0.0
  0
LWPOLYLINE
  5
183
100
AcDbEntity
  8
0
 62
7
100
AcDbPolyline
 90
5
 70
1
 10
575.508140
 20
91.476044
 30
0.0
 10
574.683607
 20
91.000000
 30
0.0
 10
563.062732
 20
91.000000
 30
0.0
 10
563.062732
 20
98.661404
 30
0.0
 10
575.508140
 20
91.476044
 30
0.0
  0
LWPOLYLINE
  5
184
100
AcDbEntity
  8
0
 62
7
100
AcDbPolyline
 90
4
 70
1
 10
594.636062
 20
107.121452
 30
0.0
 10
601.821421
 20
94.676044
 30
0.0
 10
587.450702
 20
94.676044
 30
0.0
 10
594.636062
 20
107.121452
 30
0.0
  0
LWPOLYLINE
  5
185
100
AcDbEntity
  8
0
 62
7
100
AcDbPolyline
 90
4
 70
1
 10
591.436062
 20
119.064015
 30
0.0
 10
578.990654
 20
126.249374
 30
0.0
 10
591.436062
 20
133.434734
 30
0.0
 10
591.436062
 20
119.064015
 30
0.0
  0
LWPOLYLINE
  5
186
100
AcDbEntity
  8
0
 62
7
100
AcDbPolyline
 90
5
 70
1
 10
613.763984
 20
91.476044
 30
0.0
 10
626.209391
 20
98.661404
 30
0.0
 10
626.209391
 20
91.000000
 30
0.0
 10
614.588517
 20
91.000000
 30
0.0
 10
613.763984
 20
91.476044
 30
0.0
  0
LWPOLYLINE
  5
187
100
AcDbEntity
  8
0
 62
7
100
AcDbPolyline
 90
5
 70
1
 10
504.215276
 20
200.167315
 30
0.0
 10
497.961022
 20
211.000000
 30
0.0
 10
519.964815
 20
211.000000
 30
0.0
 10
520.718121
 20
209.695237
 30
0.0
 10
504.215276
 20
200.167315
 30
0.0
  0
LWPOLYLINE
  5
188
100
AcDbEntity
  8
0
 62
7
100
AcDbPolyline
 90
5
 70
1
 10
555.491451
 20
174.921907
 30
0.0
 10
538.988605
 20
165.393985
 30
0.0
 10
529.460683
 20
181.896830
 30
0.0
 10
545.963528
 20
191.424752
 30
0.0
 10
555.491451
 20
174.921907
 30
0.0
  0
LWPOLYLINE
  5
189
100
AcDbEntity
  8
0
 62
7
100
AcDbPolyline
 90
5
 70
1
 10
545.963528
 20
200.167315
 30
0.0
 10
529.460683
 20
209.695237
 30
0.0
 10
530.213989
 20
211.000000
 30
0.0
 10
552.217782
 20
211.000000
 30
0.0
 10
545.963528
 20
200.167315
 30
0.0
  0
LWPOLYLINE
  5
18a
100
AcDbEntity
  8
0
 62
7
100
AcDbPolyline
 90
4
 70
1
 10
528.289402
 20
202.981393
 30
0.0
 10
540.734810
 20
195.796034
 30
0.0
 10
528.289402
 20
188.610674
 30
0.0
 10
528.289402
 20
202.981393
 30
0.0
  0
LWPOLYLINE
  5
18b
100
AcDbEntity
  8
0
 62
7
100
AcDbPolyline
 90
4
 70
1
 10
567.048091
 20
192.596034
 30
0.0
 10
559.862732
 20
180.150626
 30
0.0
 10
552.677372
 20
192.596034
 30
0.0
 10
567.048091
 20
192.596034
 30
0.0
  0
LWPOLYLINE
  5
18c
100
AcDbEntity
  8
0
 62
7
100
AcDbPolyline
 90
5
 70
1
 10
567.048091
 20
198.996034
 30
0.0
 10
552.677372
 20
198.996034
 30
0.0
 10
559.607866
 20
211.000000
 30
0.0
 10
560.117598
 20
211.000000
 30
0.0
 10
567.048091
 20
198.996034
 30
0.0
  0
LWPOLYLINE
  5
18d
100
AcDbEntity
  8
0
 62
7
100
AcDbPolyline
 90
5
 70
1
 10
590.264780
 20
140.148577
 30
0.0
 10
573.761935
 20
130.620655
 30
0.0
 10
564.234013
 20
147.123500
 30
0.0
 10
580.736858
 20
156.651423
 30
0.0
 10
590.264780
 20
140.148577
 30
0.0
  0
LWPOLYLINE
  5
18e
100
AcDbEntity
  8
0
 62
7
100
AcDbPolyline
 90
5
 70
1
 10
590.264780
 20
181.896830
 30
0.0
 10
580.736858
 20
165.393985
 30
0.0
 10
564.234013
 20
174.921907
 30
0.0
 10
573.761935
 20
191.424752
 30
0.0
 10
590.264780
 20
181.896830
 30
0.0
  0
LWPOLYLINE
  5
18f
100
AcDbEntity
  8
0
 62
7
100
AcDbPolyline
 90
4
 70
1
 10
563.062732
 20
168.208063
 30
0.0
 10
575.508140
 20
161.022704
 30
0.0
 10
563.062732
 20
153.837344
 30
0.0
 10
563.062732
 20
168.208063
 30
0.0
  0
LWPOLYLINE
  5
190
100
AcDbEntity
  8
0
 62
7
100
AcDbPolyline
 90
4
 70
1
 10
601.821421
 20
157.822704
 30
0.0
 10
594.636062
 20
145.377296
 30
0.0
 10
587.450702
 20
157.822704
 30
0.0
 10
601.821421
 20
157.822704
 30
0.0
  0
LWPOLYLINE
  5
191
100
AcDbEntity
  8
0
 62
7
100
AcDbPolyline
 90
4
 70
1
 10
594.636062
 20
176.668112
 30
0.0
 10
601.821421
 20
164.222704
 30
0.0
 10
587.450702
 20
164.222704
 30
0.0
 10
594.636062
 20
176.668112
 30
0.0
  0
LWPOLYLINE
  5
192
100
AcDbEntity
  8
0
 62
7
100
AcDbPolyline
 90
4
 70
1
 10
591.436062
 20
188.610674
 30
0.0
 10
578.990654
 20
195.796034
 30
0.0
 10
591.436062
 20
202.981393
 30
0.0
 10
591.436062
 20
188.610674
 30
0.0
  0
LWPOLYLINE
  5
193
100
AcDbEntity
  8
0
 62
7
100
AcDbPolyline
 90
5
 70
1
 10
625.038110
 20
105.375248
 30
0.0
 10
608.535265
 20
95.847326
 30
0.0
 10
599.007343
 20
112.350171
 30
0.0
 10
615.510188
 20
121.878093
 30
0.0
 10
625.038110
 20
105.375248
 30
0.0
  0
LWPOLYLINE
  5
194
100
AcDbEntity
  8
0
 62
7
100
AcDbPolyline
 90
5
 70
1
 10
625.038110
 20
147.123500
 30
0.0
 10
615.510188
 20
130.620655
 30
0.0
 10
599.007343
 20
140.148577
 30
0.0
 10
608.535265
 20
156.651423
 30
0.0
 10
625.038110
 20
147.123500
 30
0.0
  0
LWPOLYLINE
  5
195
100
AcDbEntity
  8
0
 62
7
100
AcDbPolyline
 90
4
 70
1
 10
597.836062
 20
133.434734
 30
0.0
 10
610.281469
 20
126.249374
 30
0.0
 10
597.836062
 20
119.064015
 30
0.0
 10
597.836062
 20
133.434734
 30
0.0
  0
LWPOLYLINE
  5
196
100
AcDbEntity
  8
0
 62
7
100
AcDbPolyline
 90
4
 70
1
 10
636.594751
 20
123.049374
 30
0.0
 10
629.409391
 20
110.603966
 30
0.0
 10
622.224032
 20
123.049374
 30
0.0
 10
636.594751
 20
123.049374
 30
0.0
  0
LWPOLYLINE
  5
197
100
AcDbEntity
  8
0
 62
7
100
AcDbPolyline
 90
4
 70
1
 10
629.409391
 20
141.894782
 30
0.0
 10
636.594751
 20
129.449374
 30
0.0
 10
622.224032
 20
129.449374
 30
0.0
 10
629.409391
 20
141.894782
 30
0.0
  0
LWPOLYLINE
  5
198
100
AcDbEntity
  8
0
 62
7
100
AcDbPolyline
 90
4
 70
1
 10
626.209391
 20
153.837344
 30
0.0
 10
613.763984
 20
161.022704
 30
0.0
 10
626.209391
 20
168.208063
 30
0.0
 10
626.209391
 20
153.837344
 30
0.0
  0
LWPOLYLINE
  5
199
100
AcDbEntity
  8
0
 62
7
100
AcDbPolyline
 90
5
 70
1
 10
659.811440
 20
112.350171
 30
0.0
 10
650.283518
 20
95.847326
 30
0.0
 10
633.780673
 20
105.375248
 30
0.0
 10
643.308595
 20
121.878093
 30
0.0
 10
659.811440
 20
112.350171
 30
0.0
  0
LWPOLYLINE
  5
19a
100
AcDbEntity
  8
0
 62
7
100
AcDbPolyline
 90
5
 70
1
 10
645.054799
 20
91.476044
 30
0.0
 10
644.230266
 20
91.000000
 30
0.0
 10
632.609391
 20
91.000000
 30
0.0
 10
632.609391
 20
98.661404
 30
0.0
 10
645.054799
 20
91.476044
 30
0.0
  0
LWPOLYLINE
  5
19b
100
AcDbEntity
  8
0
 62
7
100
AcDbPolyline
 90
4
 70
1
 10
664.182721
 20
107.121452
 30
0.0
 10
671.368081
 20
94.676044
 30
0.0
 10
656.997362
 20
94.676044
 30
0.0
 10
664.182721
 20
107.121452
 30
0.0
  0
LWPOLYLINE
  5
19c
100
AcDbEntity
  8
0
 62
7
100
AcDbPolyline
 90
4
 70
1
 10
660.982721
 20
119.064015
 30
0.0
 10
648.537313
 20
126.249374
 30
0.0
 10
660.982721
 20
133.434734
 30
0.0
 10
660.982721
 20
119.064015
 30
0.0
  0
LWPOLYLINE
  5
19d
100
AcDbEntity
  8
0
 62
7
100
AcDbPolyline
 90
5
 70
1
 10
683.310643
 20
91.476044
 30
0.0
 10
695.756051
 20
98.661404
 30
0.0
 10
695.756051
 20
91.000000
 30
0.0
 10
684.135176
 20
91.000000
 30
0.0
 10
683.310643
 20
91.476044
 30
0.0
  0
LWPOLYLINE
  5
19e
100
AcDbEntity
  8
0
 62
7
100
AcDbPolyline
 90
5
 70
1
 10
573.761935
 20
200.167315
 30
0.0
 10
567.507682
 20
211.000000
 30
0.0
 10
589.511475
 20
211.000000
 30
0.0
 10
590.264780
 20
209.695237
 30
0.0
 10
573.761935
 20
200.167315
 30
0.0
  0
LWPOLYLINE
  5
19f
100
AcDbEntity
  8
0
 62
7
100
AcDbPolyline
 90
5
 70
1
 10
625.038110
 20
174.921907
 30
0.0
 10
608.535265
 20
165.393985
 30
0.0
 10
599.007343
 20
181.896830
 30
0.0
 10
615.510188
 20
191.424752
 30
0.0
 10
625.038110
 20
174.921907
 30
0.0
  0
LWPOLYLINE
  5
1a0
100
AcDbEntity
  8
0
 62
7
100
AcDbPolyline
 90
5
 70
1
 10
615.510188
 20
200.167315
 30
0.0
 10
599.007343
 20
209.695237
 30
0.0
 10
599.760648
 20
211.000000
 30
0.0
 10
621.764442
 20
211.000000
 30
0.0
 10
615.510188
 20
200.167315
 30
0.0
  0
LWPOLYLINE
  5
1a1
100
AcDbEntity
  8
0
 62
7
100
AcDbPolyline
 90
4
 70
1
 10
597.836062
 20
202.981393
 30
0.0
 10
610.281469
 20
195.796034
 30
0.0
 10
597.836062
 20
188.610674
 30
0.0
 10
597.836062
 20
202.981393
 30
0.0
  0
LWPOLYLINE
  5
1a2
100
AcDbEntity
  8
0
 62
7
100
AcDbPolyline
 90
4
 70
1
 10
636.594751
 20
192.596034
 30
0.0
 10
629.409391
 20
180.150626
 30
0.0
 10
622.224032
 20
192.596034
 30
0.0
 10
636.594751
 20
192.596034
 30
0.0
  0
LWPOLYLINE
  5
1a3
100
AcDbEntity
  8
0
 62
7
100
AcDbPolyline
 90
5
 70
1
 10
636.594751
 20
198.996034
 30
0.0
 10
622.224032
 20
198.996034
 30
0.0
 10
629.154525
 20
211.000000
 30
0.0
 10
629.664258
 20
211.000000
 30
0.0
 10
636.594751
 20
198.996034
 30
0.0
  0
LWPOLYLINE
  5
1a4
100
AcDbEntity
  8
0
 62
7
100
AcDbPolyline
 90
5
 70
1
 10
659.811440
 20
140.148577
 30
0.0
 10
643.308595
 20
130.620655
 30
0.0
 10
633.780673
 20
147.123500
 30
0.0
 10
650.283518
 20
156.651423
 30
0.0
 10
659.811440
 20
140.148577
 30
0.0
  0
LWPOLYLINE
  5
1a5
100
AcDbEntity
  8
0
 62
7
100
AcDbPolyline
 90
5
 70
1
 10
659.811440
 20
181.896830
 30
0.0
 10
650.283518
 20
165.393985
 30
0.0
 10
633.780673
 20
174.921907
 30
0.0
 10
643.308595
 20
191.424752
 30
0.0
 10
659.811440
 20
181.896830
 30
0.0
  0
LWPOLYLINE
  5
1a6
100
AcDbEntity
  8
0
 62
7
100
AcDbPolyline
 90
4
 70
1
 10
632.609391
 20
168.208063
 30
0.0
 10
645.054799
 20
161.022704
 30
0.0
 10
632.609391
 20
153.837344
 30
0.0
 10
632.609391
 20
168.208063
 30
0.0
  0
LWPOLYLINE
  5
1a7
100
AcDbEntity
  8
0
 62
7
100
AcDbPolyline
 90
4
 70
1
 10
671.368081
 20
157.822704
 30
0.0
 10
664.182721
 20
145.377296
 30
0.0
 10
656.997362
 20
157.822704
 30
0.0
 10
671.368081
 20
157.822704
 30
0.0
  0
LWPOLYLINE
  5
1a8
100
AcDbEntity
  8
0
 62
7
100
AcDbPolyline
 90
4
 70
1
 10
664.182721
 20
176.668112
 30
0.0
 10
671.368081
 20
164.222704
 30
0.0
 10
656.997362
 20
164.222704
 30
0.0
 10
664.182721
 20
176.668112
 30
0.0
  0
LWPOLYLINE
  5
1a9
100
AcDbEntity
  8
0
 62
7
100
AcDbPolyline
 90
4
 70
1
 10
660.982721
 20
188.610674
 30
0.0
 10
648.537313
 20
195.796034
 30
0.0
 10
660.982721
 20
202.981393
 30
0.0
 10
660.982721
 20
188.610674
 30
0.0
  0
LWPOLYLINE
  5
1aa
100
AcDbEntity
  8
0
 62
7
100
AcDbPolyline
 90
5
 70
1
 10
694.584770
 20
105.375248
 30
0.0
 10
678.081924
 20
95.847326
 30
0.0
 10
668.554002
 20
112.350171
 30
0.0
 10
685.056847
 20
121.878093
 30
0.0
 10
694.584770
 20
105.375248
 30
0.0
  0
LWPOLYLINE
  5
1ab
100
AcDbEntity
  8
0
 62
7
100
AcDbPolyline
 90
5
 70
1
 10
694.584770
 20
147.123500
 30
0.0
 10
685.056847
 20
130.620655
 30
0.0
 10
668.554002
 20
140.148577
 30
0.0
 10
678.081924
 20
156.651423
 30
0.0
 10
694.584770
 20
147.123500
 30
0.0
  0
LWPOLYLINE
  5
1ac
100
AcDbEntity
  8
0
 62
7
100
AcDbPolyline
 90
4
 70
1
 10
667.382721
 20
133.434734
 30
0.0
 10
679.828129
 20
126.249374
 30
0.0
 10
667.382721
 20
119.064015
 30
0.0
 10
667.382721
 20
133.434734
 30
0.0
  0
LWPOLYLINE
  5
1ad
100
AcDbEntity
  8
0
 62
7
100
AcDbPolyline
 90
4
 70
1
 10
706.141410
 20
123.049374
 30
0.0
 10
698.956051
 20
110.603966
 30
0.0
 10
691.770691
 20
123.049374
 30
0.0
 10
706.141410
 20
123.049374
 30
0.0
  0
LWPOLYLINE
  5
1ae
100
AcDbEntity
  8
0
 62
7
100
AcDbPolyline
 90
4
 70
1
 10
698.956051
 20
141.894782
 30
0.0
 10
706.141410
 20
129.449374
 30
0.0
 10
691.770691
 20
129.449374
 30
0.0
 10
698.956051
 20
141.894782
 30
0.0
  0
LWPOLYLINE
  5
1af
100
AcDbEntity
  8
0
 62
7
100
AcDbPolyline
 90
4
 70
1
 10
695.756051
 20
153.837344
 30
0.0
 10
683.310643
 20
161.022704
 30
0.0
 10
695.756051
 20
168.208063
 30
0.0
 10
695.756051
 20
153.837344
 30
0.0
  0
LWPOLYLINE
  5
1b0
100
AcDbEntity
  8
0
 62
7
100
AcDbPolyline
 90
5
 70
1
 10
729.358099
 20
112.350171
 30
0.0
 10
719.830177
 20
95.847326
 30
0.0
 10
703.327332
 20
105.375248
 30
0.0
 10
712.855254
 20
121.878093
 30
0.0
 10
729.358099
 20
112.350171
 30
0.0
  0
LWPOLYLINE
  5
1b1
100
AcDbEntity
  8
0
 62
7
100
AcDbPolyline
 90
5
 70
1
 10
714.601458
 20
91.476044
 30
0.0
 10
713.776925
 20
91.000000
 30
0.0
 10
702.156051
 20
91.000000
 30
0.0
 10
702.156051
 20
98.661404
 30
0.0
 10
714.601458
 20
91.476044
 30
0.0
  0
LWPOLYLINE
  5
1b2
100
AcDbEntity
  8
0
 62
7
100
AcDbPolyline
 90
4
 70
1
 10
733.729381
 20
107.121452
 30
0.0
 10
740.914740
 20
94.676044
 30
0.0
 10
726.544021
 20
94.676044
 30
0.0
 10
733.729381
 20
107.121452
 30
0.0
  0
LWPOLYLINE
  5
1b3
100
AcDbEntity
  8
0
 62
7
100
AcDbPolyline
 90
4
 70
1
 10
730.529381
 20
119.064015
 30
0.0
 10
718.083973
 20
126.249374
 30
0.0
 10
730.529381
 20
133.434734
 30
0.0
 10
730.529381
 20
119.064015
 30
0.0
  0
LWPOLYLINE
  5
1b4
100
AcDbEntity
  8
0
 62
7
100
AcDbPolyline
 90
5
 70
1
 10
752.857303
 20
91.476044
 30
0.0
 10
765.302710
 20
98.661404
 30
0.0
 10
765.302710
 20
91.000000
 30
0.0
 10
753.681836
 20
91.000000
 30
0.0
 10
752.857303
 20
91.476044
 30
0.0
  0
LWPOLYLINE
  5
1b5
100
AcDbEntity
  8
0
 62
7
100
AcDbPolyline
 90
5
 70
1
 10
643.308595
 20
200.167315
 30
0.0
 10
637.054341
 20
211.000000
 30
0.0
 10
659.058134
 20
211.000000
 30
0.0
 10
659.811440
 20
209.695237
 30
0.0
 10
643.308595
 20
200.167315
 30
0.0
  0
LWPOLYLINE
  5
1b6
100
AcDbEntity
  8
0
 62
7
100
AcDbPolyline
 90
5
 70
1
 10
694.584770
 20
174.921907
 30
0.0
 10
678.081924
 20
165.393985
 30
0.0
 10
668.554002
 20
181.896830
 30
0.0
 10
685.056847
 20
191.424752
 30
0.0
 10
694.584770
 20
174.921907
 30
0.0
  0
LWPOLYLINE
  5
1b7
100
AcDbEntity
  8
0
 62
7
100
AcDbPolyline
 90
5
 70
1
 10
685.056847
 20
200.167315
 30
0.0
 10
668.554002
 20
209.695237
 30
0.0
 10
669.307308
 20
211.000000
 30
0.0
 10
691.311101
 20
211.000000
 30
0.0
 10
685.056847
 20
200.167315
 30
0.0
  0
LWPOLYLINE
  5
1b8
100
AcDbEntity
  8
0
 62
7
100
AcDbPolyline
 90
4
 70
1
 10
667.382721
 20
202.981393
 30
0.0
 10
679.828129
 20
195.796034
 30
0.0
 10
667.382721
 20
188.610674
 30
0.0
 10
667.382721
 20
202.981393
 30
0.0
  0
LWPOLYLINE
  5
1b9
100
AcDbEntity
  8
0
 62
7
100
AcDbPolyline
 90
4
 70
1
 10
706.141410
 20
192.596034
 30
0.0
 10
698.956051
 20
180.150626
 30
0.0
 10
691.770691
 20
192.596034
 30
0.0
 10
706.141410
 20
192.596034
 30
0.0
  0
LWPOLYLINE
  5
1ba
100
AcDbEntity
  8
0
 62
7
100
AcDbPolyline
 90
5
 70
1
 10
706.141410
 20
198.996034
 30
0.0
 10
691.770691
 20
198.996034
 30
0.0
 10
698.701185
 20
211.000000
 30
0.0
 10
699.210917
 20
211.000000
 30
0.0
 10
706.141410
 20
198.996034
 30
0.0
  0
LWPOLYLINE
  5
1bb
100
AcDbEntity
  8
0
 62
7
100
AcDbPolyline
 90
5
 70
1
 10
729.358099
 20
140.148577
 30
0.0
 10
712.855254
 20
130.620655
 30
0.0
 10
703.327332
 20
147.123500
 30
0.0
 10
719.830177
 20
156.651423
 30
0.0
 10
729.358099
 20
140.148577
 30
0.0
  0
LWPOLYLINE
  5
1bc
100
AcDbEntity
  8
0
 62
7
100
AcDbPolyline
 90
5
 70
1
 10
729.358099
 20
181.896830
 30
0.0
 10
719.830177
 20
165.393985
 30
0.0
 10
703.327332
 20
174.921907
 30
0.0
 10
712.855254
 20
191.424752
 30
0.0
 10
729.358099
 20
181.896830
 30
0.0
  0
LWPOLYLINE
  5
1bd
100
AcDbEntity
  8
0
 62
7
100
AcDbPolyline
 90
4
 70
1
 10
702.156051
 20
168.208063
 30
0.0
 10
714.601458
 20
161.022704
 30
0.0
 10
702.156051
 20
153.837344
 30
0.0
 10
702.156051
 20
168.208063
 30
0.0
  0
LWPOLYLINE
  5
1be
100
AcDbEntity
  8
0
 62
7
100
AcDbPolyline
 90
4
 70
1
 10
740.914740
 20
157.822704
 30
0.0
 10
733.729381
 20
145.377296
 30
0.0
 10
726.544021
 20
157.822704
 30
0.0
 10
740.914740
 20
157.822704
 30
0.0
  0
LWPOLYLINE
  5
1bf
100
AcDbEntity
  8
0
 62
7
100
AcDbPolyline
 90
4
 70
1
 10
733.729381
 20
176.668112
 30
0.0
 10
740.914740
 20
164.222704
 30
0.0
 10
726.544021
 20
164.222704
 30
0.0
 10
733.729381
 20
176.668112
 30
0.0
  0
LWPOLYLINE
  5
1c0
100
AcDbEntity
  8
0
 62
7
100
AcDbPolyline
 90
4
 70
1
 10
730.529381
 20
188.610674
 30
0.0
 10
718.083973
 20
195.796034
 30
0.0
 10
730.529381
 20
202.981393
 30
0.0
 10
730.529381
 20
188.610674
 30
0.0
  0
LWPOLYLINE
  5
1c1
100
AcDbEntity
  8
0
 62
7
100
AcDbPolyline
 90
5
 70
1
 10
764.131429
 20
105.375248
 30
0.0
 10
747.628584
 20
95.847326
 30
0.0
 10
738.100662
 20
112.350171
 30
0.0
 10
754.603507
 20
121.878093
 30
0.0
 10
764.131429
 20
105.375248
 30
0.0
  0
LWPOLYLINE
  5
1c2
100
AcDbEntity
  8
0
 62
7
100
AcDbPolyline
 90
5
 70
1
 10
764.131429
 20
147.123500
 30
0.0
 10
754.603507
 20
130.620655
 30
0.0
 10
738.100662
 20
140.148577
 30
0.0
 10
747.628584
 20
156.651423
 30
0.0
 10
764.131429
 20
147.123500
 30
0.0
  0
LWPOLYLINE
  5
1c3
100
AcDbEntity
  8
0
 62
7
100
AcDbPolyline
 90
4
 70
1
 10
736.929381
 20
133.434734
 30
0.0
 10
749.374788
 20
126.249374
 30
0.0
 10
736.929381
 20
119.064015
 30
0.0
 10
736.929381
 20
133.434734
 30
0.0
  0
LWPOLYLINE
  5
1c4
100
AcDbEntity
  8
0
 62
7
100
AcDbPolyline
 90
4
 70
1
 10
775.688070
 20
123.049374
 30
0.0
 10
768.502710
 20
110.603966
 30
0.0
 10
761.317351
 20
123.049374
 30
0.0
 10
775.688070
 20
123.049374
 30
0.0
  0
LWPOLYLINE
  5
1c5
100
AcDbEntity
  8
0
 62
7
100
AcDbPolyline
 90
4
 70
1
 10
768.502710
 20
141.894782
 30
0.0
 10
775.688070
 20
129.449374
 30
0.0
 10
761.317351
 20
129.449374
 30
0.0
 10
768.502710
 20
141.894782
 30
0.0
  0
LWPOLYLINE
  5
1c6
100
AcDbEntity
  8
0
 62
7
100
AcDbPolyline
 90
4
 70
1
 10
765.302710
 20
153.837344
 30
0.0
 10
752.857303
 20
161.022704
 30
0.0
 10
765.302710
 20
168.208063
 30
0.0
 10
765.302710
 20
153.837344
 30
0.0
  0
LWPOLYLINE
  5
1c7
100
AcDbEntity
  8
0
 62
7
100
AcDbPolyline
 90
5
 70
1
 10
798.904759
 20
112.350171
 30
0.0
 10
789.376837
 20
95.847326
 30
0.0
 10
772.873992
 20
105.375248
 30
0.0
 10
782.401914
 20
121.878093
 30
0.0
 10
798.904759
 20
112.350171
 30
0.0
  0
LWPOLYLINE
  5
1c8
100
AcDbEntity
  8
0
 62
7
100
AcDbPolyline
 90
5
 70
1
 10
784.148118
 20
91.476044
 30
0.0
 10
783.323585
 20
91.000000
 30
0.0
 10
771.702710
 20
91.000000
 30
0.0
 10
771.702710
 20
98.661404
 30
0.0
 10
784.148118
 20
91.476044
 30
0.0
  0
LWPOLYLINE
  5
1c9
100
AcDbEntity
  8
0
 62
7
100
AcDbPolyline
 90
4
 70
1
 10
803.276040
 20
107.121452
 30
0.0
 10
810.461400
 20
94.676044
 30
0.0
 10
796.090681
 20
94.676044
 30
0.0
 10
803.276040
 20
107.121452
 30
0.0
  0
LWPOLYLINE
  5
1ca
100
AcDbEntity
  8
0
 62
7
100
AcDbPolyline
 90
4
 70
1
 10
800.076040
 20
119.064015
 30
0.0
 10
787.630632
 20
126.249374
 30
0.0
 10
800.076040
 20
133.434734
 30
0.0
 10
800.076040
 20
119.064015
 30
0.0
  0
LWPOLYLINE
  5
1cb
100
AcDbEntity
  8
0
 62
7
100
AcDbPolyline
 90
5
 70
1
 10
822.403962
 20
91.476044
 30
0.0
 10
834.849370
 20
98.661404
 30
0.0
 10
834.849370
 20
91.000000
 30
0.0
 10
823.228495
 20
91.000000
 30
0.0
 10
822.403962
 20
91.476044
 30
0.0
  0
LWPOLYLINE
  5
1cc
100
AcDbEntity
  8
0
 62
7
100
AcDbPolyline
 90
5
 70
1
 10
712.855254
 20
200.167315
 30
0.0
 10
706.601000
 20
211.000000
 30
0.0
 10
728.604794
 20
211.000000
 30
0.0
 10
729.358099
 20
209.695237
 30
0.0
 10
712.855254
 20
200.167315
 30
0.0
  0
LWPOLYLINE
  5
1cd
100
AcDbEntity
  8
0
 62
7
100
AcDbPolyline
 90
5
 70
1
 10
764.131429
 20
174.921907
 30
0.0
 10
747.628584
 20
165.393985
 30
0.0
 10
738.100662
 20
181.896830
 30
0.0
 10
754.603507
 20
191.424752
 30
0.0
 10
764.131429
 20
174.921907
 30
0.0
  0
LWPOLYLINE
  5
1ce
100
AcDbEntity
  8
0
 62
7
100
AcDbPolyline
 90
5
 70
1
 10
754.603507
 20
200.167315
 30
0.0
 10
738.100662
 20
209.695237
 30
0.0
 10
738.853967
 20
211.000000
 30
0.0
 10
760.857761
 20
211.000000
 30
0.0
 10
754.603507
 20
200.167315
 30
0.0
  0
LWPOLYLINE
  5
1cf
100
AcDbEntity
  8
0
 62
7
100
AcDbPolyline
 90
4
 70
1
 10
736.929381
 20
202.981393
 30
0.0
 10
749.374788
 20
195.796034
 30
0.0
 10
736.929381
 20
188.610674
 30
0.0
 10
736.929381
 20
202.981393
 30
0.0
  0
LWPOLYLINE
  5
1d0
100
AcDbEntity
  8
0
 62
7
100
AcDbPolyline
 90
4
 70
1
 10
775.688070
 20
192.596034
 30
0.0
 10
768.502710
 20
180.150626
 30
0.0
 10
761.317351
 20
192.596034
 30
0.0
 10
775.688070
 20
192.596034
 30
0.0
  0
LWPOLYLINE
  5
1d1
100
AcDbEntity
  8
0
 62
7
100
AcDbPolyline
 90
5
 70
1
 10
775.688070
 20
198.996034
 30
0.0
 10
761.317351
 20
198.996034
 30
0.0
 10
768.247844
 20
211.000000
 30
0.0
 10
768.757577
 20
211.000000
 30
0.0
 10
775.688070
 20
198.996034
 30
0.0
  0
LWPOLYLINE
  5
1d2
100
AcDbEntity
  8
0
 62
7
100
AcDbPolyline
 90
5
 70
1
 10
798.904759
 20
140.148577
 30
0.0
 10
782.401914
 20
130.620655
 30
0.0
 10
772.873992
 20
147.123500
 30
0.0
 10
789.376837
 20
156.651423
 30
0.0
 10
798.904759
 20
140.148577
 30
0.0
  0
LWPOLYLINE
  5
1d3
100
AcDbEntity
  8
0
 62
7
100
AcDbPolyline
 90
5
 70
1
 10
798.904759
 20
181.896830
 30
0.0
 10
789.376837
 20
165.393985
 30
0.0
 10
772.873992
 20
174.921907
 30
0.0
 10
782.401914
 20
191.424752
 30
0.0
 10
798.904759
 20
181.896830
 30
0.0
  0
LWPOLYLINE
  5
1d4
100
AcDbEntity
  8
0
 62
7
100
AcDbPolyline
 90
4
 70
1
 10
771.702710
 20
168.208063
 30
0.0
 10
784.148118
 20
161.022704
 30
0.0
 10
771.702710
 20
153.837344
 30
0.0
 10
771.702710
 20
168.208063
 30
0.0
  0
LWPOLYLINE
  5
1d5
100
AcDbEntity
  8
0
 62
7
100
AcDbPolyline
 90
4
 70
1
 10
810.461400
 20
157.822704
 30
0.0
 10
803.276040
 20
145.377296
 30
0.0
 10
796.090681
 20
157.822704
 30
0.0
 10
810.461400
 20
157.822704
 30
0.0
  0
LWPOLYLINE
  5
1d6
100
AcDbEntity
  8
0
 62
7
100
AcDbPolyline
 90
4
 70
1
 10
803.276040
 20
176.668112
 30
0.0
 10
810.461400
 20
164.222704
 30
0.0
 10
796.090681
 20
164.222704
 30
0.0
 10
803.276040
 20
176.668112
 30
0.0
  0
LWPOLYLINE
  5
1d7
100
AcDbEntity
  8
0
 62
7
100
AcDbPolyline
 90
4
 70
1
 10
800.076040
 20
188.610674
 30
0.0
 10
787.630632
 20
195.796034
 30
0.0
 10
800.076040
 20
202.981393
 30
0.0
 10
800.076040
 20
188.610674
 30
0.0
  0
LWPOLYLINE
  5
1d8
100
AcDbEntity
  8
0
 62
7
100
AcDbPolyline
 90
5
 70
1
 10
833.678088
 20
105.375248
 30
0.0
 10
817.175243
 20
95.847326
 30
0.0
 10
807.647321
 20
112.350171
 30
0.0
 10
824.150166
 20
121.878093
 30
0.0
 10
833.678088
 20
105.375248
 30
0.0
  0
LWPOLYLINE
  5
1d9
100
AcDbEntity
  8
0
 62
7
100
AcDbPolyline
 90
5
 70
1
 10
833.678088
 20
147.123500
 30
0.0
 10
824.150166
 20
130.620655
 30
0.0
 10
807.647321
 20
140.148577
 30
0.0
 10
817.175243
 20
156.651423
 30
0.0
 10
833.678088
 20
147.123500
 30
0.0
  0
LWPOLYLINE
  5
1da
100
AcDbEntity
  8
0
 62
7
100
AcDbPolyline
 90
4
 70
1
 10
806.476040
 20
133.434734
 30
0.0
 10
818.921448
 20
126.249374
 30
0.0
 10
806.476040
 20
119.064015
 30
0.0
 10
806.476040
 20
133.434734
 30
0.0
  0
LWPOLYLINE
  5
1db
100
AcDbEntity
  8
0
 62
7
100
AcDbPolyline
 90
4
 70
1
 10
845.234729
 20
123.049374
 30
0.0
 10
838.049370
 20
110.603966
 30
0.0
 10
830.864010
 20
123.049374
 30
0.0
 10
845.234729
 20
123.049374
 30
0.0
  0
LWPOLYLINE
  5
1dc
100
AcDbEntity
  8
0
 62
7
100
AcDbPolyline
 90
4
 70
1
 10
838.049370
 20
141.894782
 30
0.0
 10
845.234729
 20
129.449374
 30
0.0
 10
830.864010
 20
129.449374
 30
0.0
 10
838.049370
 20
141.894782
 30
0.0
  0
LWPOLYLINE
  5
1dd
100
AcDbEntity
  8
0
 62
7
100
AcDbPolyline
 90
4
 70
1
 10
834.849370
 20
153.837344
 30
0.0
 10
822.403962
 20
161.022704
 30
0.0
 10
834.849370
 20
168.208063
 30
0.0
 10
834.849370
 20
153.837344
 30
0.0
  0
LWPOLYLINE
  5
1de
100
AcDbEntity
  8
0
 62
7
100
AcDbPolyline
 90
5
 70
1
 10
868.451418
 20
112.350171
 30
0.0
 10
858.923496
 20
95.847326
 30
0.0
 10
842.420651
 20
105.375248
 30
0.0
 10
851.948573
 20
121.878093
 30
0.0
 10
868.451418
 20
112.350171
 30
0.0
  0
LWPOLYLINE
  5
1df
100
AcDbEntity
  8
0
 62
7
100
AcDbPolyline
 90
5
 70
1
 10
853.694777
 20
91.476044
 30
0.0
 10
852.870244
 20
91.000000
 30
0.0
 10
841.249370
 20
91.000000
 30
0.0
 10
841.249370
 20
98.661404
 30
0.0
 10
853.694777
 20
91.476044
 30
0.0
  0
LWPOLYLINE
  5
1e0
100
AcDbEntity
  8
0
 62
7
100
AcDbPolyline
 90
4
 70
1
 10
872.822700
 20
107.121452
 30
0.0
 10
880.008059
 20
94.676044
 30
0.0
 10
865.637340
 20
94.676044
 30
0.0
 10
872.822700
 20
107.121452
 30
0.0
  0
LWPOLYLINE
  5
1e1
100
AcDbEntity
  8
0
 62
7
100
AcDbPolyline
 90
4
 70
1
 10
869.622700
 20
119.064015
 30
0.0
 10
857.177292
 20
126.249374
 30
0.0
 10
869.622700
 20
133.434734
 30
0.0
 10
869.622700
 20
119.064015
 30
0.0
  0
LWPOLYLINE
  5
1e2
100
AcDbEntity
  8
0
 62
7
100
AcDbPolyline
 90
5
 70
1
 10
891.950622
 20
91.476044
 30
0.0
 10
904.396029
 20
98.661404
 30
0.0
 10
904.396029
 20
91.000000
 30
0.0
 10
892.775155
 20
91.000000
 30
0.0
 10
891.950622
 20
91.476044
 30
0.0
  0
LWPOLYLINE
  5
1e3
100
AcDbEntity
  8
0
 62
7
100
AcDbPolyline
 90
5
 70
1
 10
782.401914
 20
200.167315
 30
0.0
 10
776.147660
 20
211.000000
 30
0.0
 10
798.151453
 20
211.000000
 30
0.0
 10
798.904759
 20
209.695237
 30
0.0
 10
782.401914
 20
200.167315
 30
0.0
  0
LWPOLYLINE
  5
1e4
100
AcDbEntity
  8
0
 62
7
100
AcDbPolyline
 90
5
 70
1
 10
833.678088
 20
174.921907
 30
0.0
 10
817.175243
 20
165.393985
 30
0.0
 10
807.647321
 20
181.896830
 30
0.0
 10
824.150166
 20
191.424752
 30
0.0
 10
833.678088
 20
174.921907
 30
0.0
  0
LWPOLYLINE
  5
1e5
100
AcDbEntity
  8
0
 62
7
100
AcDbPolyline
 90
5
 70
1
 10
824.150166
 20
200.167315
 30
0.0
 10
807.647321
 20
209.695237
 30
0.0
 10
808.400627
 20
211.000000
 30
0.0
 10
830.404420
 20
211.000000
 30
0.0
 10
824.150166
 20
200.167315
 30
0.0
  0
LWPOLYLINE
  5
1e6
100
AcDbEntity
  8
0
 62
7
100
AcDbPolyline
 90
4
 70
1
 10
806.476040
 20
202.981393
 30
0.0
 10
818.921448
 20
195.796034
 30
0.0
 10
806.476040
 20
188.610674
 30
0.0
 10
806.476040
 20
202.981393
 30
0.0
  0
LWPOLYLINE
  5
1e7
100
AcDbEntity
  8
0
 62
7
100
AcDbPolyline
 90
4
 70
1
 10
845.234729
 20
192.596034
 30
0.0
 10
838.049370
 20
180.150626
 30
0.0
 10
830.864010
 20
192.596034
 30
0.0
 10
845.234729
 20
192.596034
 30
0.0
  0
LWPOLYLINE
  5
1e8
100
AcDbEntity
  8
0
 62
7
100
AcDbPolyline
 90
5
 70
1
 10
845.234729
 20
198.996034
 30
0.0
 10
830.864010
 20
198.996034
 30
0.0
 10
837.794504
 20
211.000000
 30
0.0
 10
838.304236
 20
211.000000
 30
0.0
 10
845.234729
 20
198.996034
 30
0.0
  0
LWPOLYLINE
  5
1e9
100
AcDbEntity
  8
0
 62
7
100
AcDbPolyline
 90
5
 70
1
 10
868.451418
 20
140.148577
 30
0.0
 10
851.948573
 20
130.620655
 30
0.0
 10
842.420651
 20
147.123500
 30
0.0
 10
858.923496
 20
156.651423
 30
0.0
 10
868.451418
 20
140.148577
 30
0.0
  0
LWPOLYLINE
  5
1ea
100
AcDbEntity
  8
0
 62
7
100
AcDbPolyline
 90
5
 70
1
 10
868.451418
 20
181.896830
 30
0.0
 10
858.923496
 20
165.393985
 30
0.0
 10
842.420651
 20
174.921907
 30
0.0
 10
851.948573
 20
191.424752
 30
0.0
 10
868.451418
 20
181.896830
 30
0.0
  0
LWPOLYLINE
  5
1eb
100
AcDbEntity
  8
0
 62
7
100
AcDbPolyline
 90
4
 70
1
 10
841.249370
 20
168.208063
 30
0.0
 10
853.694777
 20
161.022704
 30
0.0
 10
841.249370
 20
153.837344
 30
0.0
 10
841.249370
 20
168.208063
 30
0.0
  0
LWPOLYLINE
  5
1ec
100
AcDbEntity
  8
0
 62
7
100
AcDbPolyline
 90
4
 70
1
 10
880.008059
 20
157.822704
 30
0.0
 10
872.822700
 20
145.377296
 30
0.0
 10
865.637340
 20
157.822704
 30
0.0
 10
880.008059
 20
157.822704
 30
0.0
  0
LWPOLYLINE
  5
1ed
100
AcDbEntity
  8
0
 62
7
100
AcDbPolyline
 90
4
 70
1
 10
872.822700
 20
176.668112
 30
0.0
 10
880.008059
 20
164.222704
 30
0.0
 10
865.637340
 20
164.222704
 30
0.0
 10
872.822700
 20
176.668112
 30
0.0
  0
LWPOLYLINE
  5
1ee
100
AcDbEntity
  8
0
 62
7
100
AcDbPolyline
 90
4
 70
1
 10
869.622700
 20
188.610674
 30
0.0
 10
857.177292
 20
195.796034
 30
0.0
 10
869.622700
 20
202.981393
 30
0.0
 10
869.622700
 20
188.610674
 30
0.0
  0
LWPOLYLINE
  5
1ef
100
AcDbEntity
  8
0
 62
7
100
AcDbPolyline
 90
5
 70
1
 10
903.224748
 20
105.375248
 30
0.0
 10
886.721903
 20
95.847326
 30
0.0
 10
877.193981
 20
112.350171
 30
0.0
 10
893.696826
 20
121.878093
 30
0.0
 10
903.224748
 20
105.375248
 30
0.0
  0
LWPOLYLINE
  5
1f0
100
AcDbEntity
  8
0
 62
7
100
AcDbPolyline
 90
5
 70
1
 10
903.224748
 20
147.123500
 30
0.0
 10
893.696826
 20
130.620655
 30
0.0
 10
877.193981
 20
140.148577
 30
0.0
 10
886.721903
 20
156.651423
 30
0.0
 10
903.224748
 20
147.123500
 30
0.0
  0
LWPOLYLINE
  5
1f1
100
AcDbEntity
  8
0
 62
7
100
AcDbPolyline
 90
4
 70
1
 10
876.022700
 20
133.434734
 30
0.0
 10
888.468107
 20
126.249374
 30
0.0
 10
876.022700
 20
119.064015
 30
0.0
 10
876.022700
 20
133.434734
 30
0.0
  0
LWPOLYLINE
  5
1f2
100
AcDbEntity
  8
0
 62
7
100
AcDbPolyline
 90
4
 70
1
 10
914.781389
 20
123.049374
 30
0.0
 10
907.596029
 20
110.603966
 30
0.0
 10
900.410670
 20
123.049374
 30
0.0
 10
914.781389
 20
123.049374
 30
0.0
  0
LWPOLYLINE
  5
1f3
100
AcDbEntity
  8
0
 62
7
100
AcDbPolyline
 90
4
 70
1
 10
907.596029
 20
141.894782
 30
0.0
 10
914.781389
 20
129.449374
 30
0.0
 10
900.410670
 20
129.449374
 30
0.0
 10
907.596029
 20
141.894782
 30
0.0
  0
LWPOLYLINE
  5
1f4
100
AcDbEntity
  8
0
 62
7
100
AcDbPolyline
 90
4
 70
1
 10
904.396029
 20
153.837344
 30
0.0
 10
891.950622
 20
161.022704
 30
0.0
 10
904.396029
 20
168.208063
 30
0.0
 10
904.396029
 20
153.837344
 30
0.0
  0
LWPOLYLINE
  5
1f5
100
AcDbEntity
  8
0
 62
7
100
AcDbPolyline
 90
5
 70
1
 10
937.998078
 20
112.350171
 30
0.0
 10
928.470156
 20
95.847326
 30
0.0
 10
911.967311
 20
105.375248
 30
0.0
 10
921.495233
 20
121.878093
 30
0.0
 10
937.998078
 20
112.350171
 30
0.0
  0
LWPOLYLINE
  5
1f6
100
AcDbEntity
  8
0
 62
7
100
AcDbPolyline
 90
5
 70
1
 10
923.241437
 20
91.476044
 30
0.0
 10
922.416904
 20
91.000000
 30
0.0
 10
910.796029
 20
91.000000
 30
0.0
 10
910.796029
 20
98.661404
 30
0.0
 10
923.241437
 20
91.476044
 30
0.0
  0
LWPOLYLINE
  5
1f7
100
AcDbEntity
  8
0
 62
7
100
AcDbPolyline
 90
4
 70
1
 10
942.369359
 20
107.121452
 30
0.0
 10
949.554719
 20
94.676044
 30
0.0
 10
935.184000
 20
94.676044
 30
0.0
 10
942.369359
 20
107.121452
 30
0.0
  0
LWPOLYLINE
  5
1f8
100
AcDbEntity
  8
0
 62
7
100
AcDbPolyline
 90
4
 70
1
 10
939.169359
 20
119.064015
 30
0.0
 10
926.723951
 20
126.249374
 30
0.0
 10
939.169359
 20
133.434734
 30
0.0
 10
939.169359
 20
119.064015
 30
0.0
  0
LWPOLYLINE
  5
1f9
100
AcDbEntity
  8
0
 62
7
100
AcDbPolyline
 90
5
 70
1
 10
961.497281
 20
91.476044
 30
0.0
 10
973.942689
 20
98.661404
 30
0.0
 10
973.942689
 20
91.000000
 30
0.0
 10
962.321814
 20
91.000000
 30
0.0
 10
961.497281
 20
91.476044
 30
0.0
  0
LWPOLYLINE
  5
1fa
100
AcDbEntity
  8
0
 62
7
100
AcDbPolyline
 90
5
 70
1
 10
851.948573
 20
200.167315
 30
0.0
 10
845.694319
 20
211.000000
 30
0.0
 10
867.698113
 20
211.000000
 30
0.0
 10
868.451418
 20
209.695237
 30
0.0
 10
851.948573
 20
200.167315
 30
0.0
  0
LWPOLYLINE
  5
1fb
100
AcDbEntity
  8
0
 62
7
100
AcDbPolyline
 90
5
 70
1
 10
903.224748
 20
174.921907
 30
0.0
 10
886.721903
 20
165.393985
 30
0.0
 10
877.193981
 20
181.896830
 30
0.0
 10
893.696826
 20
191.424752
 30
0.0
 10
903.224748
 20
174.921907
 30
0.0
  0
LWPOLYLINE
  5
1fc
100
AcDbEntity
  8
0
 62
7
100
AcDbPolyline
 90
5
 70
1
 10
893.696826
 20
200.167315
 30
0.0
 10
877.193981
 20
209.695237
 30
0.0
 10
877.947286
 20
211.000000
 30
0.0
 10
899.951080
 20
211.000000
 30
0.0
 10
893.696826
 20
200.167315
 30
0.0
  0
LWPOLYLINE
  5
1fd
100
AcDbEntity
  8
0
 62
7
100
AcDbPolyline
 90
4
 70
1
 10
876.022700
 20
202.981393
 30
0.0
 10
888.468107
 20
195.796034
 30
0.0
 10
876.022700
 20
188.610674
 30
0.0
 10
876.022700
 20
202.981393
 30
0.0
  0
LWPOLYLINE
  5
1fe
100
AcDbEntity
  8
0
 62
7
100
AcDbPolyline
 90
4
 70
1
 10
914.781389
 20
192.596034
 30
0.0
 10
907.596029
 20
180.150626
 30
0.0
 10
900.410670
 20
192.596034
 30
0.0
 10
914.781389
 20
192.596034
 30
0.0
  0
LWPOLYLINE
  5
1ff
100
AcDbEntity
  8
0
 62
7
100
AcDbPolyline
 90
5
 70
1
 10
914.781389
 20
198.996034
 30
0.0
 10
900.410670
 20
198.996034
 30
0.0
 10
907.341163
 20
211.000000
 30
0.0
 10
907.850896
 20
211.000000
 30
0.0
 10
914.781389
 20
198.996034
 30
0.0
  0
LWPOLYLINE
  5
200
100
AcDbEntity
  8
0
 62
7
100
AcDbPolyline
 90
5
 70
1
 10
937.998078
 20
140.148577
 30
0.0
 10
921.495233
 20
130.620655
 30
0.0
 10
911.967311
 20
147.123500
 30
0.0
 10
928.470156
 20
156.651423
 30
0.0
 10
937.998078
 20
140.148577
 30
0.0
  0
LWPOLYLINE
  5
201
100
AcDbEntity
  8
0
 62
7
100
AcDbPolyline
 90
5
 70
1
 10
937.998078
 20
181.896830
 30
0.0
 10
928.470156
 20
165.393985
 30
0.0
 10
911.967311
 20
174.921907
 30
0.0
 10
921.495233
 20
191.424752
 30
0.0
 10
937.998078
 20
181.896830
 30
0.0
  0
LWPOLYLINE
  5
202
100
AcDbEntity
  8
0
 62
7
100
AcDbPolyline
 90
4
 70
1
 10
910.796029
 20
168.208063
 30
0.0
 10
923.241437
 20
161.022704
 30
0.0
 10
910.796029
 20
153.837344
 30
0.0
 10
910.796029
 20
168.208063
 30
0.0
  0
LWPOLYLINE
  5
203
100
AcDbEntity
  8
0
 62
7
100
AcDbPolyline
 90
4
 70
1
 10
949.554719
 20
157.822704
 30
0.0
 10
942.369359
 20
145.377296
 30
0.0
 10
935.184000
 20
157.822704
 30
0.0
 10
949.554719
 20
157.822704
 30
0.0
  0
LWPOLYLINE
  5
204
100
AcDbEntity
  8
0
 62
7
100
AcDbPolyline
 90
4
 70
1
 10
942.369359
 20
176.668112
 30
0.0
 10
949.554719
 20
164.222704
 30
0.0
 10
935.184000
 20
164.222704
 30
0.0
 10
942.369359
 20
176.668112
 30
0.0
  0
LWPOLYLINE
  5
205
100
AcDbEntity
  8
0
 62
7
100
AcDbPolyline
 90
4
 70
1
 10
939.169359
 20
188.610674
 30
0.0
 10
926.723951
 20
195.796034
 30
0.0
 10
939.169359
 20
202.981393
 30
0.0
 10
939.169359
 20
188.610674
 30
0.0
  0
LWPOLYLINE
  5
206
100
AcDbEntity
  8
0
 62
7
100
AcDbPolyline
 90
5
 70
1
 10
972.771407
 20
105.375248
 30
0.0
 10
956.268562
 20
95.847326
 30
0.0
 10
946.740640
 20
112.350171
 30
0.0
 10
963.243485
 20
121.878093
 30
0.0
 10
972.771407
 20
105.375248
 30
0.0
  0
LWPOLYLINE
  5
207
100
AcDbEntity
  8
0
 62
7
100
AcDbPolyline
 90
5
 70
1
 10
972.771407
 20
147.123500
 30
0.0
 10
963.243485
 20
130.620655
 30
0.0
 10
946.740640
 20
140.148577
 30
0.0
 10
956.268562
 20
156.651423
 30
0.0
 10
972.771407
 20
147.123500
 30
0.0
  0
LWPOLYLINE
  5
208
100
AcDbEntity
  8
0
 62
7
100
AcDbPolyline
 90
4
 70
1
 10
945.569359
 20
133.434734
 30
0.0
 10
958.014767
 20
126.249374
 30
0.0
 10
945.569359
 20
119.064015
 30
0.0
 10
945.569359
 20
133.434734
 30
0.0
  0
LWPOLYLINE
  5
209
100
AcDbEntity
  8
0
 62
7
100
AcDbPolyline
 90
4
 70
1
 10
984.328048
 20
123.049374
 30
0.0
 10
977.142689
 20
110.603966
 30
0.0
 10
969.957329
 20
123.049374
 30
0.0
 10
984.328048
 20
123.049374
 30
0.0
  0
LWPOLYLINE
  5
20a
100
AcDbEntity
  8
0
 62
7
100
AcDbPolyline
 90
4
 70
1
 10
977.142689
 20
141.894782
 30
0.0
 10
984.328048
 20
129.449374
 30
0.0
 10
969.957329
 20
129.449374
 30
0.0
 10
977.142689
 20
141.894782
 30
0.0
  0
LWPOLYLINE
  5
20b
100
AcDbEntity
  8
0
 62
7
100
AcDbPolyline
 90
4
 70
1
 10
973.942689
 20
153.837344
 30
0.0
 10
961.497281
 20
161.022704
 30
0.0
 10
973.942689
 20
168.208063
 30
0.0
 10
973.942689
 20
153.837344
 30
0.0
  0
LWPOLYLINE
  5
20c
100
AcDbEntity
  8
0
 62
7
100
AcDbPolyline
 90
5
 70
1
 10
1007.544737
 20
112.350171
 30
0.0
 10
998.016815
 20
95.847326
 30
0.0
 10
981.513970
 20
105.375248
 30
0.0
 10
991.041892
 20
121.878093
 30
0.0
 10
1007.544737
 20
112.350171
 30
0.0
  0
LWPOLYLINE
  5
20d
100
AcDbEntity
  8
0
 62
7
100
AcDbPolyline
 90
5
 70
1
 10
992.788096
 20
91.476044
 30
0.0
 10
991.963563
 20
91.000000
 30
0.0
 10
980.342689
 20
91.000000
 30
0.0
 10
980.342689
 20
98.661404
 30
0.0
 10
992.788096
 20
91.476044
 30
0.0
  0
LWPOLYLINE
  5
20e
100
AcDbEntity
  8
0
 62
7
100
AcDbPolyline
 90
4
 70
1
 10
1011.916019
 20
107.121452
 30
0.0
 10
1019.101378
 20
94.676044
 30
0.0
 10
1004.730659
 20
94.676044
 30
0.0
 10
1011.916019
 20
107.121452
 30
0.0
  0
LWPOLYLINE
  5
20f
100
AcDbEntity
  8
0
 62
7
100
AcDbPolyline
 90
4
 70
1
 10
1008.716019
 20
119.064015
 30
0.0
 10
996.270611
 20
126.249374
 30
0.0
 10
1008.716019
 20
133.434734
 30
0.0
 10
1008.716019
 20
119.064015
 30
0.0
  0
LWPOLYLINE
  5
210
100
AcDbEntity
  8
0
 62
7
100
AcDbPolyline
 90
5
 70
1
 10
1031.043941
 20
91.476044
 30
0.0
 10
1039.000023
 20
96.069490
 30
0.0
 10
1039.000023
 20
91.000000
 30
0.0
 10
1031.868474
 20
91.000000
 30
0.0
 10
1031.043941
 20
91.476044
 30
0.0
  0
LWPOLYLINE
  5
211
100
AcDbEntity
  8
0
 62
7
100
AcDbPolyline
 90
5
 70
1
 10
921.495233
 20
200.167315
 30
0.0
 10
915.240979
 20
211.000000
 30
0.0
 10
937.244772
 20
211.000000
 30
0.0
 10
937.998078
 20
209.695237
 30
0.0
 10
921.495233
 20
200.167315
 30
0.0
  0
LWPOLYLINE
  5
212
100
AcDbEntity
  8
0
 62
7
100
AcDbPolyline
 90
5
 70
1
 10
972.771407
 20
174.921907
 30
0.0
 10
956.268562
 20
165.393985
 30
0.0
 10
946.740640
 20
181.896830
 30
0.0
 10
963.243485
 20
191.424752
 30
0.0
 10
972.771407
 20
174.921907
 30
0.0
  0
LWPOLYLINE
  5
213
100
AcDbEntity
  8
0
 62
7
100
AcDbPolyline
 90
5
 70
1
 10
963.243485
 20
200.167315
 30
0.0
 10
946.740640
 20
209.695237
 30
0.0
 10
947.493946
 20
211.000000
 30
0.0
 10
969.497739
 20
211.000000
 30
0.0
 10
963.243485
 20
200.167315
 30
0.0
  0
LWPOLYLINE
  5
214
100
AcDbEntity
  8
0
 62
7
100
AcDbPolyline
 90
4
 70
1
 10
945.569359
 20
202.981393
 30
0.0
 10
958.014767
 20
195.796034
 30
0.0
 10
945.569359
 20
188.610674
 30
0.0
 10
945.569359
 20
202.981393
 30
0.0
  0
LWPOLYLINE
  5
215
100
AcDbEntity
  8
0
 62
7
100
AcDbPolyline
 90
4
 70
1
 10
984.328048
 20
192.596034
 30
0.0
 10
977.142689
 20
180.150626
 30
0.0
 10
969.957329
 20
192.596034
 30
0.0
 10
984.328048
 20
192.596034
 30
0.0
  0
LWPOLYLINE
  5
216
100
AcDbEntity
  8
0
 62
7
100
AcDbPolyline
 90
5
 70
1
 10
984.328048
 20
198.996034
 30
0.0
 10
969.957329
 20
198.996034
 30
0.0
 10
976.887823
 20
211.000000
 30
0.0
 10
977.397555
 20
211.000000
 30
0.0
 10
984.328048
 20
198.996034
 30
0.0
  0
LWPOLYLINE
  5
217
100
AcDbEntity
  8
0
 62
7
100
AcDbPolyline
 90
5
 70
1
 10
1007.544737
 20
140.148577
 30
0.0
 10
991.041892
 20
130.620655
 30
0.0
 10
981.513970
 20
147.123500
 30
0.0
 10
998.016815
 20
156.651423
 30
0.0
 10
1007.544737
 20
140.148577
 30
0.0
  0
LWPOLYLINE
  5
218
100
AcDbEntity
  8
0
 62
7
100
AcDbPolyline
 90
5
 70
1
 10
1007.544737
 20
181.896830
 30
0.0
 10
998.016815
 20
165.393985
 30
0.0
 10
981.513970
 20
174.921907
 30
0.0
 10
991.041892
 20
191.424752
 30
0.0
 10
1007.544737
 20
181.896830
 30
0.0
  0
LWPOLYLINE
  5
219
100
AcDbEntity
  8
0
 62
7
100
AcDbPolyline
 90
4
 70
1
 10
980.342689
 20
168.208063
 30
0.0
 10
992.788096
 20
161.022704
 30
0.0
 10
980.342689
 20
153.837344
 30
0.0
 10
980.342689
 20
168.208063
 30
0.0
  0
LWPOLYLINE
  5
21a
100
AcDbEntity
  8
0
 62
7
100
AcDbPolyline
 90
4
 70
1
 10
1019.101378
 20
157.822704
 30
0.0
 10
1011.916019
 20
145.377296
 30
0.0
 10
1004.730659
 20
157.822704
 30
0.0
 10
1019.101378
 20
157.822704
 30
0.0
  0
LWPOLYLINE
  5
21b
100
AcDbEntity
  8
0
 62
7
100
AcDbPolyline
 90
4
 70
1
 10
1011.916019
 20
176.668112
 30
0.0
 10
1019.101378
 20
164.222704
 30
0.0
 10
1004.730659
 20
164.222704
 30
0.0
 10
1011.916019
 20
176.668112
 30
0.0
  0
LWPOLYLINE
  5
21c
100
AcDbEntity
  8
0
 62
7
100
AcDbPolyline
 90
4
 70
1
 10
1008.716019
 20
188.610674
 30
0.0
 10
996.270611
 20
195.796034
 30
0.0
 10
1008.716019
 20
202.981393
 30
0.0
 10
1008.716019
 20
188.610674
 30
0.0
  0
LWPOLYLINE
  5
21d
100
AcDbEntity
  8
0
 62
7
100
AcDbPolyline
 90
6
 70
1
 10
1025.815222
 20
95.847326
 30
0.0
 10
1016.287300
 20
112.350171
 30
0.0
 10
1032.790145
 20
121.878093
 30
0.0
 10
1039.000023
 20
111.122269
 30
0.0
 10
1039.000023
 20
103.459574
 30
0.0
 10
1025.815222
 20
95.847326
 30
0.0
  0
LWPOLYLINE
  5
21e
100
AcDbEntity
  8
0
 62
7
100
AcDbPolyline
 90
6
 70
1
 10
1032.790145
 20
130.620655
 30
0.0
 10
1016.287300
 20
140.148577
 30
0.0
 10
1025.815222
 20
156.651423
 30
0.0
 10
1039.000023
 20
149.039174
 30
0.0
 10
1039.000023
 20
141.376479
 30
0.0
 10
1032.790145
 20
130.620655
 30
0.0
  0
LWPOLYLINE
  5
21f
100
AcDbEntity
  8
0
 62
7
100
AcDbPolyline
 90
4
 70
1
 10
1015.116019
 20
133.434734
 30
0.0
 10
1027.561426
 20
126.249374
 30
0.0
 10
1015.116019
 20
119.064015
 30
0.0
 10
1015.116019
 20
133.434734
 30
0.0
  0
LWPOLYLINE
  5
220
100
AcDbEntity
  8
0
 62
7
100
AcDbPolyline
 90
4
 70
1
 10
1031.043941
 20
161.022704
 30
0.0
 10
1039.000023
 20
165.616150
 30
0.0
 10
1039.000023
 20
156.429258
 30
0.0
 10
1031.043941
 20
161.022704
 30
0.0
  0
LWPOLYLINE
  5
221
100
AcDbEntity
  8
0
 62
7
100
AcDbPolyline
 90
5
 70
1
 10
991.041892
 20
200.167315
 30
0.0
 10
984.787638
 20
211.000000
 30
0.0
 10
1006.791432
 20
211.000000
 30
0.0
 10
1007.544737
 20
209.695237
 30
0.0
 10
991.041892
 20
200.167315
 30
0.0
  0
LWPOLYLINE
  5
222
100
AcDbEntity
  8
0
 62
7
100
AcDbPolyline
 90
6
 70
1
 10
1025.815222
 20
165.393985
 30
0.0
 10
1016.287300
 20
181.896830
 30
0.0
 10
1032.790145
 20
191.424752
 30
0.0
 10
1039.000023
 20
180.668929
 30
0.0
 10
1039.000023
 20
173.006233
 30
0.0
 10
1025.815222
 20
165.393985
 30
0.0
  0
LWPOLYLINE
  5
223
100
AcDbEntity
  8
0
 62
7
100
AcDbPolyline
 90
6
 70
1
 10
1032.790145
 20
200.167315
 30
0.0
 10
1016.287300
 20
209.695237
 30
0.0
 10
1017.040605
 20
211.000000
 30
0.0
 10
1039.000023
 20
211.000000
 30
0.0
 10
1039.000023
 20
210.923139
 30
0.0
 10
1032.790145
 20
200.167315
 30
0.0
  0
LWPOLYLINE
  5
224
100
AcDbEntity
  8
0
 62
7
100
AcDbPolyline
 90
4
 70
1
 10
1015.116019
 20
202.981393
 30
0.0
 10
1027.561426
 20
195.796034
 30
0.0
 10
1015.116019
 20
188.610674
 30
0.0
 10
1015.116019
 20
202.981393
 30
0.0
  0
LWPOLYLINE
  5
225
100
AcDbEntity
  8
0
 62
7
100
AcDbPolyline
 90
5
 70
1
 10
146.000023
 20
65.000000
 30
0.0
 10
1054.000023
 20
65.000000
 30
0.0
 10
1054.000023
 20
235.000000
 30
0.0
 10
146.000023
 20
235.000000
 30
0.0
 10
146.000023
 20
65.000000
 30
0.0
  0
ENDSEC
  0
SECTION
  2
OBJECTS
  0
DICTIONARY
  5
C
330
0
100
AcDbDictionary
  3
ACAD_GROUP
350
D
  3
ACAD_MLINESTYLE
350
17
  0
DICTIONARY
  5
D
330
C
100
AcDbDictionary
  0
DICTIONARY
  5
1A
330
C
100
AcDbDictionary
  0
DICTIONARY
  5
17
330
C
100
AcDbDictionary
  3
STANDARD
350
18
  0
DICTIONARY
  5
19
330
C
100
AcDbDictionary
  0
ENDSEC
  0
EOF
