<?xml version="1.0" encoding="UTF-8" standalone="no"?>
<!-- Created with Inkscape (http://www.inkscape.org/) -->

<svg
   width="1042.2368mm"
   height="1767.6335mm"
   viewBox="0 0 1042.2368 1767.6335"
   version="1.1"
   id="svg1"
   inkscape:version="1.4.2 (1:1.4.2+202505120737+ebf0e940d0)"
   sodipodi:docname="corte_tabicas_4.svg"
   xmlns:inkscape="http://www.inkscape.org/namespaces/inkscape"
   xmlns:sodipodi="http://sodipodi.sourceforge.net/DTD/sodipodi-0.dtd"
   xmlns="http://www.w3.org/2000/svg"
   xmlns:svg="http://www.w3.org/2000/svg">
  <sodipodi:namedview
     id="namedview1"
     pagecolor="#ffffff"
     bordercolor="#666666"
     borderopacity="1.0"
     inkscape:showpageshadow="2"
     inkscape:pageopacity="0.0"
     inkscape:pagecheckerboard="0"
     inkscape:deskcolor="#d1d1d1"
     inkscape:document-units="mm"
     inkscape:zoom="0.063465264"
     inkscape:cx="2631.3607"
     inkscape:cy="3828.8661"
     inkscape:window-width="1920"
     inkscape:window-height="1011"
     inkscape:window-x="0"
     inkscape:window-y="0"
     inkscape:window-maximized="1"
     inkscape:current-layer="layer1" />
  <defs
     id="defs1" />
  <g
     inkscape:label="Layer 1"
     inkscape:groupmode="layer"
     id="layer1"
     transform="translate(429.40155,737.90369)">
    <rect
       style="display:inline;opacity:0.99434;vector-effect:non-scaling-stroke;fill:none;fill-opacity:0.294118;stroke:#0000ff;stroke-width:0.265021;stroke-linecap:round;stroke-linejoin:bevel;stroke-dasharray:none;stroke-opacity:1;-inkscape-stroke:hairline"
       id="rect60-3"
       width="908"
       height="166"
       x="-363.80215"
       y="763.86475" />
    <rect
       style="display:inline;opacity:0.99434;vector-effect:non-scaling-stroke;fill:none;fill-opacity:0.294118;stroke:#0000ff;stroke-width:0.265021;stroke-linecap:round;stroke-linejoin:bevel;stroke-dasharray:none;stroke-opacity:1;-inkscape-stroke:hairline"
       id="rect61-5"
       width="908"
       height="166"
       x="-363.80215"
       y="587.83423" />
    <rect
       style="display:inline;opacity:0.99434;vector-effect:non-scaling-stroke;fill:none;fill-opacity:0.294118;stroke:#0000ff;stroke-width:0.265021;stroke-linecap:round;stroke-linejoin:bevel;stroke-dasharray:none;stroke-opacity:1;-inkscape-stroke:hairline"
       id="rect62-4"
       width="908"
       height="166"
       x="-363.80215"
       y="412.83423" />
    <rect
       style="display:inline;opacity:0.99434;vector-effect:non-scaling-stroke;fill:none;fill-opacity:0.294118;stroke:#0000ff;stroke-width:0.265021;stroke-linecap:round;stroke-linejoin:bevel;stroke-dasharray:none;stroke-opacity:1;-inkscape-stroke:hairline"
       id="rect63-1"
       width="908"
       height="166"
       x="-363.80215"
       y="237.86475" />
    <rect
       style="display:inline;opacity:0.99434;vector-effect:non-scaling-stroke;fill:none;fill-opacity:0.294118;stroke:#0000ff;stroke-width:0.265021;stroke-linecap:round;stroke-linejoin:bevel;stroke-dasharray:none;stroke-opacity:1;-inkscape-stroke:hairline"
       id="rect64-6"
       width="908"
       height="166"
       x="-363.80215"
       y="60.834106" />
    <rect
       style="display:inline;opacity:0.99434;vector-effect:non-scaling-stroke;fill:none;fill-opacity:0.294118;stroke:#0000ff;stroke-width:0.265021;stroke-linecap:round;stroke-linejoin:bevel;stroke-dasharray:none;stroke-opacity:1;-inkscape-stroke:hairline"
       id="rect65-8"
       width="908"
       height="166"
       x="-363.80215"
       y="-114.16589" />
    <rect
       style="display:inline;opacity:0.99434;vector-effect:non-scaling-stroke;fill:none;fill-opacity:0.294118;stroke:#0000ff;stroke-width:0.265021;stroke-linecap:round;stroke-linejoin:bevel;stroke-dasharray:none;stroke-opacity:1;-inkscape-stroke:hairline"
       id="rect67-1"
       width="908"
       height="166"
       x="-363.80215"
       y="-464.16583" />
    <rect
       style="display:inline;opacity:0.99434;vector-effect:non-scaling-stroke;fill:none;fill-opacity:0.294118;stroke:#0000ff;stroke-width:0.281285;stroke-linecap:round;stroke-linejoin:bevel;stroke-dasharray:none;stroke-opacity:1;-inkscape-stroke:hairline"
       id="rect68-7"
       width="908"
       height="187"
       x="-363.80215"
       y="-660.13544" />
    <path
       id="path68-2-1"
       style="display:inline;opacity:0.99434;vector-effect:non-scaling-stroke;fill:none;fill-opacity:0.294118;stroke:#0000ff;stroke-width:0.264583;stroke-linecap:round;stroke-linejoin:bevel;stroke-dasharray:none;stroke-opacity:1;-inkscape-stroke:hairline"
       d="M -352.3021,919.8649 C -57.3021,919.8649 237.6979,919.8649 532.6979,919.8649 532.6979,871.1982 532.6979,822.5315 532.6979,773.8649 237.6979,773.8649 -57.3021,773.8649 -352.3021,773.8649 -352.3021,822.5315 -352.3021,871.1982 -352.3021,919.8649 Z"
       inkscape:export-filename="tabica41s.png"
       inkscape:export-xdpi="80"
       inkscape:export-ydpi="80" />
    <path
       id="path69-2-2"
       style="display:inline;opacity:0.99434;vector-effect:non-scaling-stroke;fill:none;fill-opacity:0.294118;stroke:#0000ff;stroke-width:0.264583;stroke-linecap:round;stroke-linejoin:bevel;stroke-dasharray:none;stroke-opacity:1;-inkscape-stroke:hairline"
       d="M -352.3021,743.8336 C -57.3021,743.8336 237.6979,743.8336 532.6979,743.8336 532.6979,695.1669 532.6979,646.5003 532.6979,597.8336 237.6979,597.8336 -57.3021,597.8336 -352.3021,597.8336 -352.3021,646.5003 -352.3021,695.1669 -352.3021,743.8336 Z"
       inkscape:export-filename="tabica42s.png"
       inkscape:export-xdpi="90"
       inkscape:export-ydpi="90" />
    <path
       id="path70-5-3"
       style="display:inline;opacity:0.99434;vector-effect:non-scaling-stroke;fill:none;fill-opacity:0.294118;stroke:#0000ff;stroke-width:0.264583;stroke-linecap:round;stroke-linejoin:bevel;stroke-dasharray:none;stroke-opacity:1;-inkscape-stroke:hairline"
       d="M -352.3021,568.8336 C -57.3021,568.8336 237.6979,568.8336 532.6979,568.8336 532.6979,520.1669 532.6979,471.5003 532.6979,422.8336 237.6979,422.8336 -57.3021,422.8336 -352.3021,422.8336 -352.3021,471.5003 -352.3021,520.1669 -352.3021,568.8336 Z"
       inkscape:export-filename="tabica43s.png"
       inkscape:export-xdpi="90"
       inkscape:export-ydpi="90" />
    <path
       id="path71-0-7"
       style="display:inline;opacity:0.99434;vector-effect:non-scaling-stroke;fill:none;fill-opacity:0.294118;stroke:#0000ff;stroke-width:0.264583;stroke-linecap:round;stroke-linejoin:bevel;stroke-dasharray:none;stroke-opacity:1;-inkscape-stroke:hairline"
       d="M -352.3021,393.8649 C -57.3021,393.8649 237.6979,393.8649 532.6979,393.8649 532.6979,345.1982 532.6979,296.5316 532.6979,247.8648 237.6979,247.8648 -57.3021,247.8648 -352.3021,247.8648 -352.3021,296.5316 -352.3021,345.1982 -352.3021,393.8649 Z"
       inkscape:export-filename="tabica44s.png"
       inkscape:export-xdpi="90"
       inkscape:export-ydpi="90" />
    <path
       id="path72-4-1"
       style="display:inline;opacity:0.99434;vector-effect:non-scaling-stroke;fill:none;fill-opacity:0.294118;stroke:#0000ff;stroke-width:0.264583;stroke-linecap:round;stroke-linejoin:bevel;stroke-dasharray:none;stroke-opacity:1;-inkscape-stroke:hairline"
       d="M -352.3021,216.8335 C -57.3021,216.8335 237.6979,216.8335 532.6979,216.8335 532.6979,168.1669 532.6979,119.5002 532.6979,70.8335 237.6979,70.8335 -57.3021,70.8335 -352.3021,70.8335 -352.3021,119.5002 -352.3021,168.1669 -352.3021,216.8335 Z"
       inkscape:export-filename="tabica45s.png"
       inkscape:export-xdpi="90"
       inkscape:export-ydpi="90" />
    <path
       id="path73-6-7"
       style="display:inline;opacity:0.99434;vector-effect:non-scaling-stroke;fill:none;fill-opacity:0.294118;stroke:#0000ff;stroke-width:0.264583;stroke-linecap:round;stroke-linejoin:bevel;stroke-dasharray:none;stroke-opacity:1;-inkscape-stroke:hairline"
       d="M -352.3021,41.8335 C -57.3021,41.8335 237.6979,41.8335 532.6979,41.8335 532.6979,-6.8332 532.6979,-55.4998 532.6979,-104.1665 237.6979,-104.1665 -57.3021,-104.1665 -352.3021,-104.1665 -352.3021,-55.4998 -352.3021,-6.8332 -352.3021,41.8335 Z"
       inkscape:export-filename="tabica46s.png"
       inkscape:export-xdpi="90"
       inkscape:export-ydpi="90" />
    <path
       id="path75-3-1"
       style="display:inline;opacity:0.99434;vector-effect:non-scaling-stroke;fill:none;fill-opacity:0.294118;stroke:#0000ff;stroke-width:0.264583;stroke-linecap:round;stroke-linejoin:bevel;stroke-dasharray:none;stroke-opacity:1;-inkscape-stroke:hairline"
       d="M -352.3021,-308.1665 C -57.3021,-308.1665 237.6979,-308.1665 532.6979,-308.1665 532.6979,-356.8332 532.6979,-405.4998 532.6979,-454.1665 237.6979,-454.1665 -57.3021,-454.1665 -352.3021,-454.1665 -352.3021,-405.4998 -352.3021,-356.8332 -352.3021,-308.1665 Z"
       inkscape:export-filename="tabica48s.png"
       inkscape:export-xdpi="90"
       inkscape:export-ydpi="90" />
    <path
       id="path76-0-0"
       style="display:inline;opacity:0.99434;vector-effect:non-scaling-stroke;fill:none;fill-opacity:0.294118;stroke:#0000ff;stroke-width:0.28082;stroke-linecap:round;stroke-linejoin:bevel;stroke-dasharray:none;stroke-opacity:1;-inkscape-stroke:hairline"
       d="M -352.3021,-483.1353 C -57.3021,-483.1353 237.6979,-483.1353 532.6979,-483.1353 532.6979,-538.8018 532.6979,-594.4685 532.6979,-650.1352 237.6979,-650.1352 -57.3021,-650.1352 -352.3021,-650.1352 -352.3021,-594.4685 -352.3021,-538.8018 -352.3021,-483.1353 Z"
       inkscape:export-filename="tabica49s.png"
       inkscape:export-xdpi="90"
       inkscape:export-ydpi="90" />
    <rect
       style="display:inline;opacity:0.99434;vector-effect:non-scaling-stroke;fill:none;fill-opacity:0.294118;stroke:#0000ff;stroke-width:0.265021;stroke-linecap:round;stroke-linejoin:bevel;stroke-dasharray:none;stroke-opacity:1;-inkscape-stroke:hairline"
       id="rect1"
       width="908"
       height="166"
       x="-363.80215"
       y="-289.16187" />
    <path
       id="path1165"
       style="display:inline;opacity:0.99434;vector-effect:non-scaling-stroke;fill:none;fill-opacity:0.294118;stroke:#0000ff;stroke-width:0.264583;stroke-linecap:round;stroke-linejoin:bevel;stroke-dasharray:none;stroke-opacity:1;-inkscape-stroke:hairline"
       d="M -352.3021,-133.1629 C -57.3021,-133.1629 237.6979,-133.1629 532.6979,-133.1629 532.6979,-181.8296 532.6979,-230.4962 532.6979,-279.1629 237.6979,-279.1629 -57.3021,-279.1629 -352.3021,-279.1629 -352.3021,-230.4962 -352.3021,-181.8296 -352.3021,-133.1629 Z"
       inkscape:export-filename="tabica46s.png"
       inkscape:export-xdpi="90"
       inkscape:export-ydpi="90" />
  </g>
</svg>
