<?xml version="1.0" encoding="utf-8" ?>
<svg baseProfile="full" height="300mm" version="1.1" viewBox="0 0 1200 300" width="1200mm" xmlns="http://www.w3.org/2000/svg" xmlns:ev="http://www.w3.org/2001/xml-events" xmlns:xlink="http://www.w3.org/1999/xlink"><defs /><g fill="none" stroke="blue" stroke-width="0.5" transform="translate(136.0,66.5)"><path d="M 21.732399999999984,44.45100000000002 L 36.24219999999997,58.99000000000001 L 30.234399999999994,65.01350000000002 L 21.732399999999984,65.01150000000007 L 21.732399999999984,44.45100000000002 Z" /><path d="M 71.19619999999998,85.55199999999991 L 65.19619999999998,79.53629999999998 L 65.19619999999998,71.01289999999995 L 73.6825,71.01289999999995 L 79.69029999999998,77.03629999999998 L 71.19619999999998,85.55199999999991 Z" /><path d="M 50.709900000000005,65.01289999999995 L 44.70209999999997,58.989500000000135 L 59.21179999999998,44.450399999999945 L 59.21179999999998,65.01089999999999 L 50.709900000000005,65.01289999999995 Z" /><path d="M 65.19619999999998,29.950399999999945 L 65.19619999999998,21.0 L 74.12856265793611,21.0 L 65.19619999999998,29.950399999999945 Z" /><path d="M 94.1891,71.01289999999995 L 102.67539999999997,71.01289999999995 L 102.67539999999997,79.53629999999998 L 96.67539999999997,85.55199999999991 L 88.18129999999996,77.03629999999998 L 94.1891,71.01289999999995 Z" /><path d="M 108.65979999999996,44.450399999999945 L 123.1696,58.989500000000135 L 117.1617,65.01289999999995 L 108.65979999999996,65.01089999999999 L 108.65979999999996,44.450399999999945 Z" /><path d="M 102.67539999999997,29.950399999999945 L 93.74309890295822,21.0 L 102.67539999999997,21.0 L 102.67539999999997,29.950399999999945 Z" /><path d="M 158.1234,85.55130000000008 L 152.1234,79.5356999999999 L 152.1234,71.0121999999999 L 160.60969999999998,71.0121999999999 L 166.61749999999998,77.0356999999999 L 158.1234,85.55130000000008 Z" /><path d="M 137.63709999999998,65.0121999999999 L 131.6293,58.98880000000008 L 146.13899999999995,44.44970000000012 L 146.13899999999995,65.01029999999992 L 137.63709999999998,65.0121999999999 Z" /><path d="M 152.1234,29.94970000000012 L 152.1234,21.0 L 161.05512550106607,21.0 L 152.1234,29.94970000000012 Z" /><path d="M 30.23449999999997,114.58950000000004 L 36.2423,120.61290000000008 L 21.73249999999996,135.15200000000004 L 21.73249999999996,114.5915 L 30.23449999999997,114.58950000000004 Z" /><path d="M 73.6825,108.59030000000007 L 65.19619999999998,108.59030000000007 L 65.19619999999998,100.06680000000006 L 71.19619999999998,94.05119999999988 L 79.69029999999998,102.56680000000006 L 73.6825,108.59030000000007 Z" /><path d="M 59.21179999999998,135.15280000000007 L 44.702,120.61369999999988 L 50.70979999999997,114.59030000000007 L 59.21179999999998,114.59220000000005 L 59.21179999999998,135.15280000000007 Z" /><path d="M 96.67539999999997,94.0510999999999 L 102.67539999999997,100.06680000000006 L 102.67539999999997,108.5902000000001 L 94.1891,108.5902000000001 L 88.18129999999996,102.56680000000006 L 96.67539999999997,94.0510999999999 Z" /><path d="M 117.1617,114.5902000000001 L 123.1696,120.6135999999999 L 108.65979999999996,135.1527000000001 L 108.65979999999996,114.59220000000005 L 117.1617,114.5902000000001 Z" /><path d="M 160.60979999999995,108.59089999999992 L 152.1234,108.59089999999992 L 152.1234,100.06750000000011 L 158.1234,94.05189999999993 L 166.61759999999998,102.56750000000011 L 160.60979999999995,108.59089999999992 Z" /><path d="M 146.13909999999998,135.15339999999992 L 131.6293,120.61439999999993 L 137.63709999999998,114.59089999999992 L 146.13909999999998,114.5929000000001 L 146.13909999999998,135.15339999999992 Z" /><path d="M 181.11639999999997,71.01430000000005 L 189.60269999999997,71.01430000000005 L 189.60269999999997,79.53780000000006 L 183.60269999999997,85.55340000000001 L 175.10859999999997,77.03780000000006 L 181.11639999999997,71.01430000000005 Z" /><path d="M 195.58709999999996,44.45180000000005 L 210.09679999999997,58.99090000000001 L 204.08899999999997,65.01430000000005 L 195.58709999999996,65.01240000000007 L 195.58709999999996,44.45180000000005 Z" /><path d="M 189.60269999999997,29.95180000000005 L 180.66887871655538,21.0 L 189.60269999999997,21.0 L 189.60269999999997,29.95180000000005 Z" /><path d="M 245.05069999999998,85.55340000000001 L 239.05069999999998,79.53780000000006 L 239.05069999999998,71.01430000000005 L 247.53699999999998,71.01430000000005 L 253.54489999999998,77.03780000000006 L 245.05069999999998,85.55340000000001 Z" /><path d="M 224.56439999999998,65.01430000000005 L 218.55659999999997,58.99090000000001 L 233.06629999999998,44.45180000000005 L 233.06629999999998,65.01240000000007 L 224.56439999999998,65.01430000000005 Z" /><path d="M 239.05069999999998,29.95180000000005 L 239.05069999999998,21.0 L 247.98452128344456,21.0 L 239.05069999999998,29.95180000000005 Z" /><path d="M 183.6025,94.05179999999996 L 189.6025,100.06750000000011 L 189.6025,108.59089999999992 L 181.1162,108.59089999999992 L 175.1084,102.56750000000011 L 183.6025,94.05179999999996 Z" /><path d="M 204.08889999999997,114.59089999999992 L 210.09669999999997,120.61429999999996 L 195.58689999999999,135.15339999999992 L 195.58689999999999,114.5929000000001 L 204.08889999999997,114.59089999999992 Z" /><path d="M 247.53699999999998,108.59089999999992 L 239.05069999999998,108.59089999999992 L 239.05069999999998,100.06750000000011 L 245.05069999999998,94.05189999999993 L 253.54489999999998,102.56750000000011 L 247.53699999999998,108.59089999999992 Z" /><path d="M 233.06629999999998,135.15339999999992 L 218.55659999999997,120.61439999999993 L 224.56439999999998,114.59089999999992 L 233.06629999999998,114.5929000000001 L 233.06629999999998,135.15339999999992 Z" /><path d="M 24.739599999999996,85.01999999999998 L 24.739599999999996,74.0163 L 35.71429999999998,74.0163 L 40.47199999999998,69.2487000000001 L 45.25329999999997,74.06889999999999 L 56.25729999999999,74.06889999999999 L 56.25729999999999,85.04359999999997 L 61.02479999999997,89.80130000000008 L 56.204399999999964,94.58259999999996 L 56.204399999999964,105.58660000000009 L 45.22999999999996,105.58660000000009 L 40.47199999999998,110.30520000000001 L 35.69069999999999,105.53369999999995 L 24.68689999999998,105.53369999999995 L 24.68689999999998,94.5592999999999 L 20.5,90.38074306240173 L 20.5,89.22538556076529 L 24.739599999999996,85.01999999999998 Z" /><path d="M 75.57349999999997,65.01089999999999 L 65.20079999999996,65.01089999999999 L 65.21449999999999,38.434799999999996 L 82.59488415373305,21.0 L 85.26757304238521,21.0 L 102.64609999999999,38.434799999999996 L 102.66179999999997,65.01089999999999 L 91.68709999999999,65.01089999999999 L 83.93129999999996,72.78629999999998 L 77.05429999999996,65.8918000000001 L 75.57349999999997,65.01089999999999 Z" /><path d="M 59.21179999999998,35.95820000000003 L 40.49699999999996,54.733600000000024 L 21.78019999999998,35.95820000000003 L 21.772489036389803,21.0 L 59.220636651728405,21.0 L 59.21179999999998,35.95820000000003 Z" /><path d="M 122.618,105.55880000000002 L 111.61429999999996,105.55880000000002 L 111.61429999999996,94.58439999999996 L 106.8467,89.82639999999992 L 111.6669,85.04510000000005 L 111.6669,74.04140000000007 L 122.64159999999998,74.04140000000007 L 127.39929999999998,69.27379999999994 L 132.18059999999997,74.09400000000005 L 143.1846,74.09400000000005 L 143.1846,85.06870000000004 L 147.95209999999997,89.82639999999992 L 143.13169999999997,94.60770000000002 L 143.13169999999997,105.61169999999993 L 132.15729999999996,105.61169999999993 L 127.39929999999998,110.33030000000008 L 122.618,105.55880000000002 Z" /><path d="M 146.13899999999995,35.95749999999998 L 127.42419999999998,54.73289999999997 L 108.70739999999995,35.95749999999998 L 108.69968939724035,21.0 L 146.14783623819895,21.0 L 146.13899999999995,35.95749999999998 Z" /><path d="M 239.03709999999998,114.58510000000001 L 249.4097,114.58510000000001 L 250.89059999999998,113.7043000000001 L 257.7675,106.80970000000002 L 265.5234,114.58510000000001 L 276.498,114.58510000000001 L 276.4848426471805,137.0 L 239.04857051271435,137.0 L 239.03709999999998,114.58510000000001 Z" /><path d="M 162.52999999999997,65.02019999999993 L 152.1574,65.02019999999993 L 152.17109999999997,38.44399999999996 L 169.56065543956447,21.0 L 172.21500273655954,21.0 L 189.60269999999997,38.44399999999996 L 189.61829999999998,65.02019999999993 L 178.64369999999997,65.02019999999993 L 170.88789999999997,72.79559999999992 L 164.0109,65.90110000000004 L 162.52999999999997,65.02019999999993 Z" /><path d="M 209.54529999999997,105.56089999999995 L 198.5416,105.56089999999995 L 198.5416,94.58649999999989 L 193.77399999999997,89.82850000000008 L 198.59419999999997,85.04719999999998 L 198.59419999999997,74.0435 L 209.56889999999999,74.0435 L 214.32659999999998,69.27600000000007 L 219.10789999999997,74.09609999999998 L 230.1119,74.09609999999998 L 230.1119,85.07079999999996 L 234.87949999999998,89.82850000000008 L 230.05899999999997,94.60979999999995 L 230.05899999999997,105.61380000000008 L 219.08459999999997,105.61380000000008 L 214.32659999999998,110.3324 L 209.54529999999997,105.56089999999995 Z" /><path d="M 233.06629999999998,35.959699999999884 L 214.3515,54.73500000000013 L 195.63469999999998,35.959699999999884 L 195.6269882921561,21.0 L 233.07513750460936,21.0 L 233.06629999999998,35.959699999999884 Z" /><path d="M 40.476699999999994,124.86099999999988 L 52.57651982807286,137.0 L 28.375587096945992,137.0 L 40.476699999999994,124.86099999999988 Z" /><path d="M 65.2301,114.58429999999998 L 75.6028,114.58429999999998 L 77.08359999999999,113.70350000000008 L 83.9606,106.8089 L 91.71639999999996,114.58429999999998 L 102.6911,114.58429999999998 L 102.67785783257197,137.0 L 65.24165526711867,137.0 L 65.2301,114.58429999999998 Z" /><path d="M 127.42419999999998,124.87020000000007 L 139.51491412699588,137.0 L 115.33225838277748,137.0 L 127.42419999999998,124.87020000000007 Z" /><path d="M 152.1574,114.58500000000004 L 162.52999999999997,114.58500000000004 L 164.0109,113.7041999999999 L 170.88789999999997,106.80960000000005 L 178.64369999999997,114.58500000000004 L 189.61829999999998,114.58500000000004 L 189.60514258848139,137.0 L 152.1689549062695,137.0 L 152.1574,114.58500000000004 Z" /><path d="M 214.3515,124.87030000000004 L 226.4420498450099,137.0 L 202.25965807066694,137.0 L 214.3515,124.87030000000004 Z" /><path d="M 249.4371,65.01240000000007 L 239.06439999999998,65.01240000000007 L 239.07809999999998,38.4362000000001 L 256.4598797841858,21.0 L 259.1297775610638,21.0 L 276.50969999999995,38.4362000000001 L 276.5253,65.01240000000007 L 265.5507,65.01240000000007 L 257.7949,72.78780000000006 L 250.91789999999997,65.89319999999998 L 249.4371,65.01240000000007 Z" /><path d="M 268.0526,71.01430000000005 L 276.5389,71.01430000000005 L 276.5389,79.53770000000009 L 270.5389,85.55340000000001 L 262.0448,77.03770000000009 L 268.0526,71.01430000000005 Z" /><path d="M 282.52329999999995,44.45180000000005 L 297.03299999999996,58.99090000000001 L 291.0252,65.01430000000005 L 282.52329999999995,65.01240000000007 L 282.52329999999995,44.45180000000005 Z" /><path d="M 276.5389,29.95180000000005 L 267.6051401634214,21.0 L 276.5389,21.0 L 276.5389,29.95180000000005 Z" /><path d="M 331.9871,85.55279999999993 L 325.9871,79.53719999999998 L 325.9871,71.01369999999997 L 334.47339999999997,71.01369999999997 L 340.48119999999994,77.03719999999998 L 331.9871,85.55279999999993 Z" /><path d="M 311.50079999999997,65.01369999999997 L 305.49289999999996,58.990299999999934 L 320.0027,44.45119999999997 L 320.0027,65.0118 L 311.50079999999997,65.01369999999997 Z" /><path d="M 325.9871,29.95119999999997 L 325.9871,21.0 L 334.92026092165895,21.0 L 325.9871,29.95119999999997 Z" /><path d="M 354.97999999999996,71.01369999999997 L 363.4663,71.01369999999997 L 363.4663,79.53719999999998 L 357.4663,85.55279999999993 L 348.9722,77.03719999999998 L 354.97999999999996,71.01369999999997 Z" /><path d="M 369.4507,44.45119999999997 L 383.9604,58.990299999999934 L 377.95259999999996,65.01369999999997 L 369.4507,65.0118 L 369.4507,44.45119999999997 Z" /><path d="M 363.4663,29.95119999999997 L 354.53307751152073,21.0 L 363.4663,21.0 L 363.4663,29.95119999999997 Z" /><path d="M 418.91429999999997,85.55209999999988 L 412.91429999999997,79.53649999999993 L 412.91429999999997,71.0130999999999 L 421.4006,71.0130999999999 L 427.4084,77.03649999999993 L 418.91429999999997,85.55209999999988 Z" /><path d="M 398.42789999999997,65.0130999999999 L 392.4201,58.98959999999988 L 406.9299,44.45060000000012 L 406.9299,65.01109999999994 L 398.42789999999997,65.0130999999999 Z" /><path d="M 412.91429999999997,29.950600000000122 L 412.91429999999997,21.0 L 421.8468006926151,21.0 L 412.91429999999997,29.950600000000122 Z" /><path d="M 270.539,94.05130000000008 L 276.539,100.06690000000003 L 276.539,108.59030000000007 L 268.05269999999996,108.59030000000007 L 262.0449,102.56690000000003 L 270.539,94.05130000000008 Z" /><path d="M 291.0253,114.59030000000007 L 297.0331,120.61380000000008 L 282.5234,135.15280000000007 L 282.5234,114.59230000000002 L 291.0253,114.59030000000007 Z" /><path d="M 334.4733,108.5911000000001 L 325.98699999999997,108.5911000000001 L 325.98699999999997,100.06770000000006 L 331.98699999999997,94.05199999999991 L 340.48119999999994,102.56770000000006 L 334.4733,108.5911000000001 Z" /><path d="M 320.0027,135.1536000000001 L 305.49289999999996,120.61449999999991 L 311.5007,114.5911000000001 L 320.0027,114.59310000000005 L 320.0027,135.1536000000001 Z" /><path d="M 357.4663,94.05199999999991 L 363.4663,100.06760000000008 L 363.4663,108.5909999999999 L 354.97999999999996,108.5909999999999 L 348.9722,102.56760000000008 L 357.4663,94.05199999999991 Z" /><path d="M 377.95259999999996,114.5909999999999 L 383.9604,120.61449999999991 L 369.4507,135.1534999999999 L 369.4507,114.59300000000007 L 377.95259999999996,114.5909999999999 Z" /><path d="M 421.4006,108.59179999999992 L 412.91429999999997,108.59179999999992 L 412.91429999999997,100.06829999999991 L 418.91429999999997,94.05269999999996 L 427.4084,102.56829999999991 L 421.4006,108.59179999999992 Z" /><path d="M 406.9299,135.15429999999992 L 392.42019999999997,120.61519999999996 L 398.428,114.59179999999992 L 406.9299,114.5936999999999 L 406.9299,135.15429999999992 Z" /><path d="M 441.90729999999996,71.01520000000005 L 450.3936,71.01520000000005 L 450.3936,79.53860000000009 L 444.3936,85.55420000000004 L 435.89939999999996,77.03860000000009 L 441.90729999999996,71.01520000000005 Z" /><path d="M 456.378,44.45270000000005 L 470.8877,58.99170000000004 L 464.87989999999996,65.01520000000005 L 456.378,65.0132000000001 L 456.378,44.45270000000005 Z" /><path d="M 450.3936,29.95270000000005 L 441.4589419771513,21.0 L 450.3936,21.0 L 450.3936,29.95270000000005 Z" /><path d="M 505.84159,85.55420000000004 L 499.84159,79.53860000000009 L 499.84159,71.01520000000005 L 508.32791,71.01520000000005 L 514.33573,77.03860000000009 L 505.84159,85.55420000000004 Z" /><path d="M 485.35526,65.01520000000005 L 479.34745,58.99170000000004 L 493.85721,44.45270000000005 L 493.85721,65.0132000000001 L 485.35526,65.01520000000005 Z" /><path d="M 499.84159,29.95270000000005 L 499.84159,21.0 L 508.77622339216316,21.0 L 499.84159,29.95270000000005 Z" /><path d="M 444.39349999999996,94.05269999999996 L 450.39349999999996,100.06829999999991 L 450.39349999999996,108.59179999999992 L 441.9072,108.59179999999992 L 435.89939999999996,102.56829999999991 L 444.39349999999996,94.05269999999996 Z" /><path d="M 464.8798,114.59179999999992 L 470.88759999999996,120.61519999999996 L 456.37789999999995,135.15429999999992 L 456.37789999999995,114.5936999999999 L 464.8798,114.59179999999992 Z" /><path d="M 508.32791,108.59179999999992 L 499.84159,108.59179999999992 L 499.84159,100.06840000000011 L 505.84159,94.05279999999993 L 514.33573,102.56840000000011 L 508.32791,108.59179999999992 Z" /><path d="M 493.85721,135.15429999999992 L 479.34745,120.61529999999993 L 485.35526,114.59179999999992 L 493.85721,114.5938000000001 L 493.85721,135.15429999999992 Z" /><path d="M 296.48159999999996,105.53449999999998 L 285.4778,105.53449999999998 L 285.4778,94.56009999999992 L 280.71029999999996,89.80209999999988 L 285.53049999999996,85.02089999999998 L 285.53049999999996,74.01710000000003 L 296.50509999999997,74.01710000000003 L 301.26289999999995,69.2496000000001 L 306.0442,74.06979999999999 L 317.04819999999995,74.06979999999999 L 317.04819999999995,85.0444 L 321.8157,89.80209999999988 L 316.9953,94.58339999999998 L 316.9953,105.58750000000009 L 306.0209,105.58750000000009 L 301.26289999999995,110.30600000000004 L 296.48159999999996,105.53449999999998 Z" /><path d="M 336.36429999999996,65.0118 L 325.9917,65.0118 L 326.0054,38.43560000000002 L 343.3865816568489,21.0 L 346.05767562448733,21.0 L 363.43699999999995,38.43560000000002 L 363.45259999999996,65.0118 L 352.47799999999995,65.0118 L 344.7222,72.78719999999998 L 337.8452,65.8925999999999 L 336.36429999999996,65.0118 Z" /><path d="M 320.0027,35.95900000000006 L 301.2879,54.73440000000005 L 282.5711,35.95900000000006 L 282.5633886239892,21.0 L 320.01148083691737,21.0 L 320.0027,35.95900000000006 Z" /><path d="M 383.40889999999996,105.55960000000005 L 372.40509999999995,105.55960000000005 L 372.40509999999995,94.58519999999999 L 367.63759999999996,89.82719999999995 L 372.45779999999996,85.04590000000007 L 372.45779999999996,74.0422000000001 L 383.4324,74.0422000000001 L 388.1902,69.27469999999994 L 392.9715,74.09480000000008 L 403.97549999999995,74.09480000000008 L 403.97549999999995,85.06950000000006 L 408.743,89.82719999999995 L 403.9226,94.60850000000005 L 403.9226,105.61249999999995 L 392.9482,105.61249999999995 L 388.1902,110.3311000000001 L 383.40889999999996,105.55960000000005 Z" /><path d="M 406.9299,35.95839999999998 L 388.2151,54.733799999999974 L 369.4983,35.95839999999998 L 369.4905889623046,21.0 L 406.93868045168233,21.0 L 406.9299,35.95839999999998 Z" /><path d="M 423.3209,65.02099999999996 L 412.94829999999996,65.02099999999996 L 412.96189999999996,38.44489999999996 L 430.3523526305697,21.0 L 433.0049127278247,21.0 L 450.3936,38.44489999999996 L 450.4092,65.02099999999996 L 439.4346,65.02099999999996 L 431.6787,72.79639999999995 L 424.80179999999996,65.90190000000007 L 423.3209,65.02099999999996 Z" /><path d="M 470.33619999999996,105.56169999999997 L 459.3325,105.56169999999997 L 459.3325,94.58729999999991 L 454.56489999999997,89.82940000000008 L 459.38509999999997,85.04809999999998 L 459.38509999999997,74.04430000000002 L 470.35979999999995,74.04430000000002 L 475.11749,69.2768000000001 L 479.89878,74.09699999999998 L 490.90279999999996,74.09699999999998 L 490.90279999999996,85.07159999999999 L 495.67033,89.82940000000008 L 490.84988,94.61059999999998 L 490.84988,105.61470000000008 L 479.8755,105.61470000000008 L 475.11749,110.33320000000003 L 470.33619999999996,105.56169999999997 Z" /><path d="M 493.85722,35.96050000000014 L 475.14238,54.73590000000013 L 456.4256,35.96050000000014 L 456.4178878797571,21.0 L 493.8660185722187,21.0 L 493.85722,35.96050000000014 Z" /><path d="M 301.2675,124.8617999999999 L 313.3665870596633,137.0 L 289.16718460006166,137.0 L 301.2675,124.8617999999999 Z" /><path d="M 326.02099999999996,114.58519999999999 L 336.3936,114.58519999999999 L 337.8745,113.7043000000001 L 344.75149999999996,106.8098 L 352.5073,114.58519999999999 L 363.4819,114.58519999999999 L 363.4687426563717,137.0 L 326.0325548466479,137.0 L 326.02099999999996,114.58519999999999 Z" /><path d="M 388.2151,124.87110000000007 L 400.3049168189056,137.0 L 376.1239911751078,137.0 L 388.2151,124.87110000000007 Z" /><path d="M 412.94829999999996,114.58590000000004 L 423.3209,114.58590000000004 L 424.80179999999996,113.70499999999993 L 431.6787,106.81050000000005 L 439.4346,114.58590000000004 L 450.4092,114.58590000000004 L 450.3960430672672,137.0 L 412.95977014648497,137.0 L 412.94829999999996,114.58590000000004 Z" /><path d="M 475.14238,124.87110000000007 L 487.2321582670941,137.0 L 463.0513484937738,137.0 L 475.14238,124.87110000000007 Z" /><path d="M 510.22792,65.0132000000001 L 499.85526,65.0132000000001 L 499.86892,38.4369999999999 L 517.2515065744537,21.0 L 519.9198122817091,21.0 L 537.30056,38.4369999999999 L 537.3162,65.0132000000001 L 526.34158,65.0132000000001 L 518.58573,72.78860000000009 L 511.70876999999996,65.89409999999998 L 510.22792,65.0132000000001 Z" /><path d="M 499.82605,114.58529999999996 L 510.19871,114.58529999999996 L 511.67956,113.70450000000005 L 518.55652,106.80989999999997 L 526.31237,114.58529999999996 L 537.28699,114.58529999999996 L 537.2737990280777,137.0 L 499.8375710151188,137.0 L 499.82605,114.58529999999996 Z" /><path d="M 528.81416,71.00729999999999 L 537.30048,71.00729999999999 L 537.30048,79.53070000000002 L 531.30048,85.54639999999995 L 522.80634,77.03070000000002 L 528.81416,71.00729999999999 Z" /><path d="M 543.28486,44.44479999999999 L 557.79462,58.98389999999995 L 551.78681,65.00729999999999 L 543.28486,65.00530000000003 L 543.28486,44.44479999999999 Z" /><path d="M 537.30048,29.944799999999987 L 528.3737306655845,21.0 L 537.30048,21.0 L 537.30048,29.944799999999987 Z" /><path d="M 592.74865,85.5458000000001 L 586.74865,79.53019999999992 L 586.74865,71.00669999999991 L 595.23497,71.00669999999991 L 601.24279,77.03019999999992 L 592.74865,85.5458000000001 Z" /><path d="M 572.26232,65.00669999999991 L 566.25451,58.98329999999987 L 580.76427,44.44419999999991 L 580.76427,65.00479999999993 L 572.26232,65.00669999999991 Z" /><path d="M 586.74865,29.94419999999991 L 586.74865,21.0 L 595.6748619397481,21.0 L 586.74865,29.94419999999991 Z" /><path d="M 615.74155,71.00669999999991 L 624.2278699999999,71.00669999999991 L 624.2278699999999,79.53019999999992 L 618.2278699999999,85.5458000000001 L 609.7337299999999,77.03019999999992 L 615.74155,71.00669999999991 Z" /><path d="M 630.21224,44.44419999999991 L 644.722,58.98329999999987 L 638.7141899999999,65.00669999999991 L 630.21224,65.00479999999993 L 630.21224,44.44419999999991 Z" /><path d="M 624.2278699999999,29.94419999999991 L 615.3016580602518,21.0 L 624.2278699999999,21.0 L 624.2278699999999,29.94419999999991 Z" /><path d="M 679.67585,85.54510000000005 L 673.67585,79.5295000000001 L 673.67585,71.00600000000009 L 682.1621700000001,71.00600000000009 L 688.16999,77.0295000000001 L 679.67585,85.54510000000005 Z" /><path d="M 659.18952,65.00600000000009 L 653.18171,58.98260000000005 L 667.69147,44.44349999999986 L 667.69147,65.00410000000011 L 659.18952,65.00600000000009 Z" /><path d="M 673.67585,29.943499999999858 L 673.67585,21.0 L 682.6013633475479,21.0 L 673.67585,29.943499999999858 Z" /><path d="M 531.3005899999999,94.04430000000002 L 537.3005899999999,100.05989999999997 L 537.3005899999999,108.58330000000001 L 528.81427,108.58330000000001 L 522.80645,102.55989999999997 L 531.3005899999999,94.04430000000002 Z" /><path d="M 551.78691,114.58330000000001 L 557.79472,120.60680000000002 L 543.2849699999999,135.1458 L 543.2849699999999,114.58529999999996 L 551.78691,114.58330000000001 Z" /><path d="M 595.23492,108.58410000000003 L 586.7486,108.58410000000003 L 586.7486,100.0607 L 592.7486,94.04500000000007 L 601.2427399999999,102.5607 L 595.23492,108.58410000000003 Z" /><path d="M 580.76422,135.14660000000003 L 566.25446,120.60750000000007 L 572.26227,114.58410000000003 L 580.76422,114.58600000000001 L 580.76422,135.14660000000003 Z" /><path d="M 618.2278699999999,94.04500000000007 L 624.2278699999999,100.06060000000002 L 624.2278699999999,108.58400000000006 L 615.74155,108.58400000000006 L 609.7337299999999,102.56060000000002 L 618.2278699999999,94.04500000000007 Z" /><path d="M 638.7141899999999,114.58400000000006 L 644.722,120.60750000000007 L 630.21224,135.14650000000006 L 630.21224,114.58600000000001 L 638.7141899999999,114.58400000000006 Z" /><path d="M 682.1622,108.58469999999988 L 673.67588,108.58469999999988 L 673.67588,100.06130000000007 L 679.67588,94.0456999999999 L 688.17002,102.56130000000007 L 682.1622,108.58469999999988 Z" /><path d="M 667.6915,135.14719999999988 L 653.18174,120.6081999999999 L 659.1895499999999,114.58469999999988 L 667.6915,114.58670000000006 L 667.6915,135.14719999999988 Z" /><path d="M 702.66882,71.00819999999999 L 711.15514,71.00819999999999 L 711.15514,79.53160000000003 L 705.15514,85.54719999999998 L 696.6610000000001,77.03160000000003 L 702.66882,71.00819999999999 Z" /><path d="M 717.13952,44.44569999999999 L 731.64928,58.984699999999975 L 725.64147,65.00819999999999 L 717.13952,65.00620000000004 L 717.13952,44.44569999999999 Z" /><path d="M 711.15514,29.945699999999988 L 702.2274924817904,21.0 L 711.15514,21.0 L 711.15514,29.945699999999988 Z" /><path d="M 766.60316,85.54719999999998 L 760.60316,79.53160000000003 L 760.60316,71.00819999999999 L 769.08948,71.00819999999999 L 775.0972999999999,77.03160000000003 L 766.60316,85.54719999999998 Z" /><path d="M 746.1168299999999,65.00819999999999 L 740.10902,58.984699999999975 L 754.61878,44.44569999999999 L 754.61878,65.00620000000004 L 746.1168299999999,65.00819999999999 Z" /><path d="M 760.60316,29.945699999999988 L 760.60316,21.0 L 769.5308075182096,21.0 L 760.60316,29.945699999999988 Z" /><path d="M 705.15498,94.04559999999992 L 711.15498,100.06130000000007 L 711.15498,108.58469999999988 L 702.66866,108.58469999999988 L 696.66084,102.56130000000007 L 705.15498,94.04559999999992 Z" /><path d="M 725.64131,114.58469999999988 L 731.64912,120.60809999999992 L 717.1393599999999,135.14719999999988 L 717.1393599999999,114.58670000000006 L 725.64131,114.58469999999988 Z" /><path d="M 769.0895,108.58480000000009 L 760.60318,108.58480000000009 L 760.60318,100.06130000000007 L 766.60318,94.0456999999999 L 775.09732,102.56130000000007 L 769.0895,108.58480000000009 Z" /><path d="M 754.6188,135.1473000000001 L 740.10904,120.6081999999999 L 746.11685,114.58480000000009 L 754.6188,114.58670000000006 L 754.6188,135.1473000000001 Z" /><path d="M 557.24315,105.52749999999992 L 546.23939,105.52749999999992 L 546.23939,94.55310000000009 L 541.47186,89.79510000000005 L 546.2920399999999,85.01389999999992 L 546.2920399999999,74.01009999999997 L 557.2667,74.01009999999997 L 562.0244299999999,69.24260000000004 L 566.80572,74.06279999999992 L 577.8097399999999,74.06279999999992 L 577.8097399999999,85.03739999999993 L 582.57727,89.79510000000005 L 577.75682,94.57639999999992 L 577.75682,105.58040000000005 L 566.78244,105.58040000000005 L 562.0244299999999,110.29899999999998 L 557.24315,105.52749999999992 Z" /><path d="M 597.12592,65.00479999999993 L 586.75326,65.00479999999993 L 586.76693,38.42859999999996 L 604.1411335045857,21.0 L 606.8261859003802,21.0 L 624.19857,38.42859999999996 L 624.2142,65.00479999999993 L 613.2395899999999,65.00479999999993 L 605.4837299999999,72.78019999999992 L 598.60678,65.88560000000007 L 597.12592,65.00479999999993 Z" /><path d="M 580.76427,35.952 L 562.04943,54.72739999999999 L 543.33263,35.952 L 543.3249391108176,21.0 L 580.7730636062854,21.0 L 580.76427,35.952 Z" /><path d="M 644.17046,105.55259999999998 L 633.1667,105.55259999999998 L 633.1667,94.57819999999992 L 628.3991699999999,89.82020000000011 L 633.21935,85.03890000000001 L 633.21935,74.03520000000003 L 644.1940099999999,74.03520000000003 L 648.95174,69.2677000000001 L 653.73303,74.08780000000002 L 664.73705,74.08780000000002 L 664.73705,85.0625 L 669.50458,89.82020000000011 L 664.68413,94.60149999999999 L 664.68413,105.60550000000012 L 653.70975,105.60550000000012 L 648.95174,110.32410000000004 L 644.17046,105.55259999999998 Z" /><path d="M 667.69147,35.95139999999992 L 648.97663,54.72679999999991 L 630.25983,35.95139999999992 L 630.2521394483786,21.0 L 667.7002632203249,21.0 L 667.69147,35.95139999999992 Z" /><path d="M 760.58949,114.57899999999995 L 770.96215,114.57899999999995 L 772.44301,113.69810000000007 L 779.31996,106.80359999999996 L 787.07582,114.57899999999995 L 798.05043,114.57899999999995 L 798.0372437074287,137.0 L 760.60102273317,137.0 L 760.58949,114.57899999999995 Z" /><path d="M 684.08248,65.0139999999999 L 673.70982,65.0139999999999 L 673.72349,38.4378999999999 L 691.1069644783066,21.0 L 693.7734758975042,21.0 L 711.15513,38.4378999999999 L 711.17076,65.0139999999999 L 700.19615,65.0139999999999 L 692.44029,72.78940000000011 L 685.5633399999999,65.8949 L 684.08248,65.0139999999999 Z" /><path d="M 731.09777,105.55469999999991 L 720.09401,105.55469999999991 L 720.09401,94.58030000000008 L 715.32648,89.82230000000004 L 720.14666,85.04109999999991 L 720.14666,74.03729999999996 L 731.12132,74.03729999999996 L 735.87905,69.26980000000003 L 740.6603399999999,74.08999999999992 L 751.66436,74.08999999999992 L 751.66436,85.06459999999993 L 756.43189,89.82230000000004 L 751.6114399999999,94.60359999999991 L 751.6114399999999,105.60770000000002 L 740.63706,105.60770000000002 L 735.87905,110.32619999999997 L 731.09777,105.55469999999991 Z" /><path d="M 754.61878,35.953500000000076 L 735.9039399999999,54.72890000000007 L 717.18714,35.953500000000076 L 717.1794483682016,21.0 L 754.6275744553774,21.0 L 754.61878,35.953500000000076 Z" /><path d="M 562.0291,124.85480000000007 L 574.1351256914899,137.0 L 549.9218064477988,137.0 L 562.0291,124.85480000000007 Z" /><path d="M 586.78256,114.57819999999992 L 597.15522,114.57819999999992 L 598.63608,113.69730000000004 L 605.51303,106.80279999999993 L 613.2688899999999,114.57819999999992 L 624.2435,114.57819999999992 L 624.2303132369309,137.0 L 586.7940931446675,137.0 L 586.78256,114.57819999999992 Z" /><path d="M 648.97666,124.86400000000003 L 661.0735153660642,137.0 L 636.8785377336302,137.0 L 648.97666,124.86400000000003 Z" /><path d="M 673.70982,114.57889999999998 L 684.08248,114.57889999999998 L 685.5633399999999,113.69800000000009 L 692.44029,106.80349999999999 L 700.19615,114.57889999999998 L 711.17076,114.57889999999998 L 711.1575736486166,137.0 L 673.7213527846072,137.0 L 673.70982,114.57889999999998 Z" /><path d="M 735.9039399999999,124.86410000000001 L 748.0006956886139,137.0 L 723.8059174215197,137.0 L 735.9039399999999,124.86410000000001 Z" /><path d="M 770.9894899999999,65.00620000000004 L 760.6168299999999,65.00620000000004 L 760.6305,38.430000000000064 L 778.0060991350384,21.0 L 780.6883604160762,21.0 L 798.06214,38.430000000000064 L 798.07777,65.00620000000004 L 787.10316,65.00620000000004 L 779.3472999999999,72.78160000000003 L 772.47035,65.88709999999992 L 770.9894899999999,65.00620000000004 Z" /><path d="M 789.6050399999999,71.00819999999999 L 798.0913599999999,71.00819999999999 L 798.0913599999999,79.53160000000003 L 792.0913599999999,85.54719999999998 L 783.59722,77.03160000000003 L 789.6050399999999,71.00819999999999 Z" /><path d="M 804.07574,44.44569999999999 L 818.5854999999999,58.984699999999975 L 812.57769,65.00819999999999 L 804.07574,65.00620000000004 L 804.07574,44.44569999999999 Z" /><path d="M 798.0913599999999,29.945699999999988 L 789.1637124817904,21.0 L 798.0913599999999,21.0 L 798.0913599999999,29.945699999999988 Z" /><path d="M 853.53953,85.5465999999999 L 847.53953,79.53099999999995 L 847.53953,71.00759999999991 L 856.02585,71.00759999999991 L 862.03367,77.03099999999995 L 853.53953,85.5465999999999 Z" /><path d="M 833.0532000000001,65.00759999999991 L 827.04539,58.984100000000126 L 841.5551499999999,44.44509999999991 L 841.5551499999999,65.00559999999996 L 833.0532000000001,65.00759999999991 Z" /><path d="M 847.53953,29.94509999999991 L 847.53953,21.0 L 856.4665787290133,21.0 L 847.53953,29.94509999999991 Z" /><path d="M 876.53243,71.00759999999991 L 885.01875,71.00759999999991 L 885.01875,79.53099999999995 L 879.01875,85.5465999999999 L 870.5246099999999,77.03099999999995 L 876.53243,71.00759999999991 Z" /><path d="M 891.00312,44.44509999999991 L 905.5,58.97117402179788 L 905.5,58.99703364659126 L 899.5050699999999,65.00759999999991 L 891.00312,65.00559999999996 L 891.00312,44.44509999999991 Z" /><path d="M 885.01875,29.94509999999991 L 876.0917012709866,21.0 L 885.01875,21.0 L 885.01875,29.94509999999991 Z" /><path d="M 792.09146,94.04510000000005 L 798.09146,100.0607 L 798.09146,108.58420000000001 L 789.60514,108.58420000000001 L 783.59732,102.5607 L 792.09146,94.04510000000005 Z" /><path d="M 812.57779,114.58420000000001 L 818.5856,120.60760000000005 L 804.07584,135.1467 L 804.07584,114.58609999999999 L 812.57779,114.58420000000001 Z" /><path d="M 856.0258,108.58490000000006 L 847.5394799999999,108.58490000000006 L 847.5394799999999,100.06150000000002 L 853.5394799999999,94.04590000000007 L 862.0336199999999,102.56150000000002 L 856.0258,108.58490000000006 Z" /><path d="M 841.5551,135.14740000000006 L 827.0453399999999,120.60840000000007 L 833.05315,114.58490000000006 L 841.5551,114.58690000000001 L 841.5551,135.14740000000006 Z" /><path d="M 879.01875,94.0458000000001 L 885.01875,100.06140000000005 L 885.01875,108.58490000000006 L 876.53243,108.58490000000006 L 870.5246099999999,102.56140000000005 L 879.01875,94.0458000000001 Z" /><path d="M 891.00312,135.14740000000006 L 891.00312,114.58680000000004 L 899.5050699999999,114.58490000000006 L 905.5,120.59536656812884 L 905.5,120.62122606710795 L 891.00312,135.14740000000006 Z" /><path d="M 818.03403,105.52839999999992 L 807.03027,105.52839999999992 L 807.03027,94.55400000000009 L 802.2627399999999,89.79600000000005 L 807.0829200000001,85.01469999999995 L 807.0829200000001,74.01099999999997 L 818.0575799999999,74.01099999999997 L 822.81531,69.24340000000007 L 827.5966,74.06359999999995 L 838.6006199999999,74.06359999999995 L 838.6006199999999,85.03829999999994 L 843.36815,89.79600000000005 L 838.5477,94.57729999999992 L 838.5477,105.58130000000006 L 827.57332,105.58130000000006 L 822.81531,110.29989999999998 L 818.03403,105.52839999999992 Z" /><path d="M 857.9168,65.00559999999996 L 847.54414,65.00559999999996 L 847.55781,38.42949999999996 L 864.932910695591,21.0 L 867.6161688033277,21.0 L 884.98945,38.42949999999996 L 885.0050799999999,65.00559999999996 L 874.0304699999999,65.00559999999996 L 866.2746099999999,72.78099999999995 L 859.39766,65.88650000000007 L 857.9168,65.00559999999996 Z" /><path d="M 841.5551499999999,35.9529 L 822.84031,54.72829999999999 L 804.1235099999999,35.9529 L 804.1158186768236,21.0 L 841.5639441025053,21.0 L 841.5551499999999,35.9529 Z" /><path d="M 904.9612999999999,105.55349999999999 L 893.95758,105.55349999999999 L 893.95758,94.57909999999993 L 889.1900499999999,89.82110000000011 L 894.01023,85.03980000000001 L 894.01023,74.03600000000006 L 904.9848999999999,74.03600000000006 L 905.5,73.51983898732578 L 905.5,106.09109585259239 L 904.9612999999999,105.55349999999999 Z" /><path d="M 891.05071,35.95219999999995 L 891.0430190079431,21.0 L 905.5,21.0 L 905.5,50.44673669491408 L 891.05071,35.95219999999995 Z" /><path d="M 822.81998,124.85570000000007 L 834.9251085944373,137.0 L 810.713583638804,137.0 L 822.81998,124.85570000000007 Z" /><path d="M 847.57344,114.57899999999995 L 857.9461,114.57899999999995 L 859.42696,113.69820000000004 L 866.30391,106.80359999999996 L 874.05977,114.57899999999995 L 885.03438,114.57899999999995 L 885.0211937570457,137.0 L 847.584972689775,137.0 L 847.57344,114.57899999999995 Z" /><path d="M 905.5,129.14577016663134 L 905.5,137.0 L 897.6703007778262,137.0 L 905.5,129.14577016663134 Z" /><path d="M 10.0,167.0 L 918.0,167.0 L 918.0,0.0 L 10.0,0.0 L 10.0,167.0 Z" /></g></svg>