  0
SECTION
  2
HEADER
  9
$ACADVER
  1
AC1014
  9
$HANDSEED
  5
FFFF
  9
$INSUNITS
 70
     4
  9
$MEASUREMENT
 70
     1
  0
ENDSEC
  0
SECTION
  2
TABLES
  0
TABLE
  2
VPORT
  5
8
330
0
100
AcDbSymbolTable
 70
     4
  0
VPORT
  5
2E
330
8
100
AcDbSymbolTableRecord
100
AcDbViewportTableRecord
  2
*ACTIVE
 70
     0
 10
0.0
 20
0.0
 11
1.0
 21
1.0
 12
210.0
 22
148.5
 13
0.0
 23
0.0
 14
10.0
 24
10.0
 15
10.0
 25
10.0
 16
0.0
 26
0.0
 36
1.0
 17
0.0
 27
0.0
 37
0.0
 40
341.0
 41
1.24
 42
50.0
 43
0.0
 44
0.0
 50
0.0
 51
0.0
 71
     0
 72
   100
 73
     1
 74
     3
 75
     0
 76
     0
 77
     0
 78
     0
  0
ENDTAB
  0
TABLE
  2
LTYPE
  5
5
330
0
100
AcDbSymbolTable
 70
     1
  0
LTYPE
  5
14
330
5
100
AcDbSymbolTableRecord
100
AcDbLinetypeTableRecord
  2
BYBLOCK
 70
     0
  3

 72
    65
 73
     0
 40
0.0
  0
LTYPE
  5
15
330
5
100
AcDbSymbolTableRecord
100
AcDbLinetypeTableRecord
  2
BYLAYER
 70
     0
  3

 72
    65
 73
     0
 40
0.0
  0
LTYPE
  5
16
330
5
100
AcDbSymbolTableRecord
100
AcDbLinetypeTableRecord
  2
CONTINUOUS
 70
     0
  3
Solid line
 72
    65
 73
     0
 40
0.0
  0
ENDTAB
  0
TABLE
  2
LAYER
  5
2
100
AcDbSymbolTable
 70
1
  0
LAYER
  5
50
100
AcDbSymbolTableRecord
100
AcDbLayerTableRecord
  2
0
 70
0
  6
CONTINUOUS
  0
ENDTAB
  0
TABLE
  2
STYLE
  5
3
330
0
100
AcDbSymbolTable
 70
     1
  0
STYLE
  5
11
330
3
100
AcDbSymbolTableRecord
100
AcDbTextStyleTableRecord
  2
STANDARD
 70
     0
 40
0.0
 41
1.0
 50
0.0
 71
     0
 42
2.5
  3
txt
  4

  0
ENDTAB
  0
TABLE
  2
VIEW
  5
6
330
0
100
AcDbSymbolTable
 70
     0
  0
ENDTAB
  0
TABLE
  2
UCS
  5
7
330
0
100
AcDbSymbolTable
 70
     0
  0
ENDTAB
  0
TABLE
  2
APPID
  5
9
330
0
100
AcDbSymbolTable
 70
     2
  0
APPID
  5
12
330
9
100
AcDbSymbolTableRecord
100
AcDbRegAppTableRecord
  2
ACAD
 70
     0
  0
ENDTAB
  0
TABLE
  2
DIMSTYLE
  5
A
330
0
100
AcDbSymbolTable
 70
     1
  0
DIMSTYLE
105
27
330
A
100
AcDbSymbolTableRecord
100
AcDbDimStyleTableRecord
  2
ISO-25
 70
     0
  3

  4

  5

  6

  7

 40
1.0
 41
2.5
 42
0.625
 43
3.75
 44
1.25
 45
0.0
 46
0.0
 47
0.0
 48
0.0
140
2.5
141
2.5
142
0.0
143
0.03937007874016
144
1.0
145
0.0
146
1.0
147
0.625
 71
     0
 72
     0
 73
     0
 74
     0
 75
     0
 76
     0
 77
     1
 78
     8
170
     0
171
     3
172
     1
173
     0
174
     0
175
     0
176
     0
177
     0
178
     0
270
     2
271
     2
272
     2
273
     2
274
     3
340
11
275
     0
280
     0
281
     0
282
     0
283
     0
284
     8
285
     0
286
     0
287
     3
288
     0
  0
ENDTAB
  0
TABLE
  2
BLOCK_RECORD
  5
1
330
0
100
AcDbSymbolTable
 70
     1
  0
BLOCK_RECORD
  5
1F
330
1
100
AcDbSymbolTableRecord
100
AcDbBlockTableRecord
  2
*MODEL_SPACE
  0
BLOCK_RECORD
  5
1B
330
1
100
AcDbSymbolTableRecord
100
AcDbBlockTableRecord
  2
*PAPER_SPACE
  0
ENDTAB
  0
ENDSEC
  0
SECTION
  2
BLOCKS
  0
BLOCK
  5
20
330
1F
100
AcDbEntity
  8
0
100
AcDbBlockBegin
  2
*MODEL_SPACE
 70
     0
 10
0.0
 20
0.0
 30
0.0
  3
*MODEL_SPACE
  1

  0
ENDBLK
  5
21
330
1F
100
AcDbEntity
  8
0
100
AcDbBlockEnd
  0
BLOCK
  5
1C
330
1B
100
AcDbEntity
 67
     1
  8
0
100
AcDbBlockBegin
  2
*PAPER_SPACE
  1

  0
ENDBLK
  5
1D
330
1B
100
AcDbEntity
 67
     1
  8
0
100
AcDbBlockEnd
  0
ENDSEC
  0
SECTION
  2
ENTITIES
  0
LWPOLYLINE
  5
100
100
AcDbEntity
  8
0
 62
7
100
AcDbPolyline
 90
8
 70
1
 10
201.561249
 20
98.071378
 30
0.0
 10
201.561249
 20
91.000000
 30
0.0
 10
169.500002
 20
91.000000
 30
0.0
 10
169.500002
 20
114.620073
 30
0.0
 10
171.199035
 20
115.601010
 30
0.0
 10
184.031616
 20
115.601010
 30
0.0
 10
195.144958
 20
109.184719
 30
0.0
 10
201.561249
 20
98.071378
 30
0.0
  0
LWPOLYLINE
  5
101
100
AcDbEntity
  8
0
 62
7
100
AcDbPolyline
 90
5
 70
1
 10
216.055115
 20
91.000000
 30
0.0
 10
207.761249
 20
91.000000
 30
0.0
 10
207.761249
 20
95.802020
 30
0.0
 10
216.055115
 20
95.802020
 30
0.0
 10
216.055115
 20
91.000000
 30
0.0
  0
LWPOLYLINE
  5
102
100
AcDbEntity
  8
0
 62
7
100
AcDbPolyline
 90
9
 70
1
 10
270.146962
 20
98.071378
 30
0.0
 10
270.146962
 20
91.000000
 30
0.0
 10
222.255115
 20
91.000000
 30
0.0
 10
222.255115
 20
98.071378
 30
0.0
 10
228.671406
 20
109.184719
 30
0.0
 10
239.784748
 20
115.601010
 30
0.0
 10
252.617329
 20
115.601010
 30
0.0
 10
263.730671
 20
109.184719
 30
0.0
 10
270.146962
 20
98.071378
 30
0.0
  0
LWPOLYLINE
  5
103
100
AcDbEntity
  8
0
 62
7
100
AcDbPolyline
 90
5
 70
1
 10
284.640828
 20
91.000000
 30
0.0
 10
276.346962
 20
91.000000
 30
0.0
 10
276.346962
 20
95.802020
 30
0.0
 10
284.640828
 20
95.802020
 30
0.0
 10
284.640828
 20
91.000000
 30
0.0
  0
LWPOLYLINE
  5
104
100
AcDbEntity
  8
0
 62
7
100
AcDbPolyline
 90
9
 70
1
 10
338.732674
 20
98.071378
 30
0.0
 10
338.732674
 20
91.000000
 30
0.0
 10
290.840828
 20
91.000000
 30
0.0
 10
290.840828
 20
98.071378
 30
0.0
 10
297.257119
 20
109.184719
 30
0.0
 10
308.370460
 20
115.601010
 30
0.0
 10
321.203042
 20
115.601010
 30
0.0
 10
332.316384
 20
109.184719
 30
0.0
 10
338.732674
 20
98.071378
 30
0.0
  0
LWPOLYLINE
  5
105
100
AcDbEntity
  8
0
 62
7
100
AcDbPolyline
 90
5
 70
1
 10
353.226541
 20
91.000000
 30
0.0
 10
344.932674
 20
91.000000
 30
0.0
 10
344.932674
 20
95.802020
 30
0.0
 10
353.226541
 20
95.802020
 30
0.0
 10
353.226541
 20
91.000000
 30
0.0
  0
LWPOLYLINE
  5
106
100
AcDbEntity
  8
0
 62
7
100
AcDbPolyline
 90
9
 70
1
 10
407.318387
 20
98.071378
 30
0.0
 10
407.318387
 20
91.000000
 30
0.0
 10
359.426541
 20
91.000000
 30
0.0
 10
359.426541
 20
98.071378
 30
0.0
 10
365.842832
 20
109.184719
 30
0.0
 10
376.956173
 20
115.601010
 30
0.0
 10
389.788755
 20
115.601010
 30
0.0
 10
400.902096
 20
109.184719
 30
0.0
 10
407.318387
 20
98.071378
 30
0.0
  0
LWPOLYLINE
  5
107
100
AcDbEntity
  8
0
 62
7
100
AcDbPolyline
 90
5
 70
1
 10
421.812254
 20
91.000000
 30
0.0
 10
413.518387
 20
91.000000
 30
0.0
 10
413.518387
 20
95.802020
 30
0.0
 10
421.812254
 20
95.802020
 30
0.0
 10
421.812254
 20
91.000000
 30
0.0
  0
LWPOLYLINE
  5
108
100
AcDbEntity
  8
0
 62
7
100
AcDbPolyline
 90
9
 70
1
 10
475.904100
 20
98.071378
 30
0.0
 10
475.904100
 20
91.000000
 30
0.0
 10
428.012254
 20
91.000000
 30
0.0
 10
428.012254
 20
98.071378
 30
0.0
 10
434.428544
 20
109.184719
 30
0.0
 10
445.541886
 20
115.601010
 30
0.0
 10
458.374468
 20
115.601010
 30
0.0
 10
469.487809
 20
109.184719
 30
0.0
 10
475.904100
 20
98.071378
 30
0.0
  0
LWPOLYLINE
  5
109
100
AcDbEntity
  8
0
 62
7
100
AcDbPolyline
 90
5
 70
1
 10
490.397966
 20
91.000000
 30
0.0
 10
482.104100
 20
91.000000
 30
0.0
 10
482.104100
 20
95.802020
 30
0.0
 10
490.397966
 20
95.802020
 30
0.0
 10
490.397966
 20
91.000000
 30
0.0
  0
LWPOLYLINE
  5
10a
100
AcDbEntity
  8
0
 62
7
100
AcDbPolyline
 90
9
 70
1
 10
544.489813
 20
98.071378
 30
0.0
 10
544.489813
 20
91.000000
 30
0.0
 10
496.597966
 20
91.000000
 30
0.0
 10
496.597966
 20
98.071378
 30
0.0
 10
503.014257
 20
109.184719
 30
0.0
 10
514.127599
 20
115.601010
 30
0.0
 10
526.960180
 20
115.601010
 30
0.0
 10
538.073522
 20
109.184719
 30
0.0
 10
544.489813
 20
98.071378
 30
0.0
  0
LWPOLYLINE
  5
10b
100
AcDbEntity
  8
0
 62
7
100
AcDbPolyline
 90
5
 70
1
 10
558.983679
 20
91.000000
 30
0.0
 10
550.689813
 20
91.000000
 30
0.0
 10
550.689813
 20
95.802020
 30
0.0
 10
558.983679
 20
95.802020
 30
0.0
 10
558.983679
 20
91.000000
 30
0.0
  0
LWPOLYLINE
  5
10c
100
AcDbEntity
  8
0
 62
7
100
AcDbPolyline
 90
9
 70
1
 10
613.075526
 20
98.071378
 30
0.0
 10
613.075526
 20
91.000000
 30
0.0
 10
565.183679
 20
91.000000
 30
0.0
 10
565.183679
 20
98.071378
 30
0.0
 10
571.599970
 20
109.184719
 30
0.0
 10
582.713312
 20
115.601010
 30
0.0
 10
595.545893
 20
115.601010
 30
0.0
 10
606.659235
 20
109.184719
 30
0.0
 10
613.075526
 20
98.071378
 30
0.0
  0
LWPOLYLINE
  5
10d
100
AcDbEntity
  8
0
 62
7
100
AcDbPolyline
 90
5
 70
1
 10
627.569392
 20
91.000000
 30
0.0
 10
619.275526
 20
91.000000
 30
0.0
 10
619.275526
 20
95.802020
 30
0.0
 10
627.569392
 20
95.802020
 30
0.0
 10
627.569392
 20
91.000000
 30
0.0
  0
LWPOLYLINE
  5
10e
100
AcDbEntity
  8
0
 62
7
100
AcDbPolyline
 90
9
 70
1
 10
681.661238
 20
98.071378
 30
0.0
 10
681.661238
 20
91.000000
 30
0.0
 10
633.769392
 20
91.000000
 30
0.0
 10
633.769392
 20
98.071378
 30
0.0
 10
640.185683
 20
109.184719
 30
0.0
 10
651.299024
 20
115.601010
 30
0.0
 10
664.131606
 20
115.601010
 30
0.0
 10
675.244948
 20
109.184719
 30
0.0
 10
681.661238
 20
98.071378
 30
0.0
  0
LWPOLYLINE
  5
10f
100
AcDbEntity
  8
0
 62
7
100
AcDbPolyline
 90
5
 70
1
 10
696.155105
 20
91.000000
 30
0.0
 10
687.861238
 20
91.000000
 30
0.0
 10
687.861238
 20
95.802020
 30
0.0
 10
696.155105
 20
95.802020
 30
0.0
 10
696.155105
 20
91.000000
 30
0.0
  0
LWPOLYLINE
  5
110
100
AcDbEntity
  8
0
 62
7
100
AcDbPolyline
 90
9
 70
1
 10
750.246951
 20
98.071378
 30
0.0
 10
750.246951
 20
91.000000
 30
0.0
 10
702.355105
 20
91.000000
 30
0.0
 10
702.355105
 20
98.071378
 30
0.0
 10
708.771396
 20
109.184719
 30
0.0
 10
719.884737
 20
115.601010
 30
0.0
 10
732.717319
 20
115.601010
 30
0.0
 10
743.830660
 20
109.184719
 30
0.0
 10
750.246951
 20
98.071378
 30
0.0
  0
LWPOLYLINE
  5
111
100
AcDbEntity
  8
0
 62
7
100
AcDbPolyline
 90
5
 70
1
 10
764.740818
 20
91.000000
 30
0.0
 10
756.446951
 20
91.000000
 30
0.0
 10
756.446951
 20
95.802020
 30
0.0
 10
764.740818
 20
95.802020
 30
0.0
 10
764.740818
 20
91.000000
 30
0.0
  0
LWPOLYLINE
  5
112
100
AcDbEntity
  8
0
 62
7
100
AcDbPolyline
 90
9
 70
1
 10
818.832664
 20
98.071378
 30
0.0
 10
818.832664
 20
91.000000
 30
0.0
 10
770.940818
 20
91.000000
 30
0.0
 10
770.940818
 20
98.071378
 30
0.0
 10
777.357108
 20
109.184719
 30
0.0
 10
788.470450
 20
115.601010
 30
0.0
 10
801.303032
 20
115.601010
 30
0.0
 10
812.416373
 20
109.184719
 30
0.0
 10
818.832664
 20
98.071378
 30
0.0
  0
LWPOLYLINE
  5
113
100
AcDbEntity
  8
0
 62
7
100
AcDbPolyline
 90
5
 70
1
 10
833.326530
 20
91.000000
 30
0.0
 10
825.032664
 20
91.000000
 30
0.0
 10
825.032664
 20
95.802020
 30
0.0
 10
833.326530
 20
95.802020
 30
0.0
 10
833.326530
 20
91.000000
 30
0.0
  0
LWPOLYLINE
  5
114
100
AcDbEntity
  8
0
 62
7
100
AcDbPolyline
 90
9
 70
1
 10
887.418377
 20
98.071378
 30
0.0
 10
887.418377
 20
91.000000
 30
0.0
 10
839.526530
 20
91.000000
 30
0.0
 10
839.526530
 20
98.071378
 30
0.0
 10
845.942821
 20
109.184719
 30
0.0
 10
857.056163
 20
115.601010
 30
0.0
 10
869.888744
 20
115.601010
 30
0.0
 10
881.002086
 20
109.184719
 30
0.0
 10
887.418377
 20
98.071378
 30
0.0
  0
LWPOLYLINE
  5
115
100
AcDbEntity
  8
0
 62
7
100
AcDbPolyline
 90
5
 70
1
 10
901.912243
 20
91.000000
 30
0.0
 10
893.618377
 20
91.000000
 30
0.0
 10
893.618377
 20
95.802020
 30
0.0
 10
901.912243
 20
95.802020
 30
0.0
 10
901.912243
 20
91.000000
 30
0.0
  0
LWPOLYLINE
  5
116
100
AcDbEntity
  8
0
 62
7
100
AcDbPolyline
 90
9
 70
1
 10
956.004090
 20
98.071378
 30
0.0
 10
956.004090
 20
91.000000
 30
0.0
 10
908.112243
 20
91.000000
 30
0.0
 10
908.112243
 20
98.071378
 30
0.0
 10
914.528534
 20
109.184719
 30
0.0
 10
925.641876
 20
115.601010
 30
0.0
 10
938.474457
 20
115.601010
 30
0.0
 10
949.587799
 20
109.184719
 30
0.0
 10
956.004090
 20
98.071378
 30
0.0
  0
LWPOLYLINE
  5
117
100
AcDbEntity
  8
0
 62
7
100
AcDbPolyline
 90
5
 70
1
 10
970.497956
 20
91.000000
 30
0.0
 10
962.204090
 20
91.000000
 30
0.0
 10
962.204090
 20
95.802020
 30
0.0
 10
970.497956
 20
95.802020
 30
0.0
 10
970.497956
 20
91.000000
 30
0.0
  0
LWPOLYLINE
  5
118
100
AcDbEntity
  8
0
 62
7
100
AcDbPolyline
 90
9
 70
1
 10
1024.589802
 20
98.071378
 30
0.0
 10
1024.589802
 20
91.000000
 30
0.0
 10
976.697956
 20
91.000000
 30
0.0
 10
976.697956
 20
98.071378
 30
0.0
 10
983.114247
 20
109.184719
 30
0.0
 10
994.227588
 20
115.601010
 30
0.0
 10
1007.060170
 20
115.601010
 30
0.0
 10
1018.173512
 20
109.184719
 30
0.0
 10
1024.589802
 20
98.071378
 30
0.0
  0
LWPOLYLINE
  5
119
100
AcDbEntity
  8
0
 62
7
100
AcDbPolyline
 90
5
 70
1
 10
181.762259
 20
155.198990
 30
0.0
 10
181.762259
 20
146.905123
 30
0.0
 10
173.468392
 20
146.905123
 30
0.0
 10
173.468392
 20
155.198990
 30
0.0
 10
181.762259
 20
155.198990
 30
0.0
  0
LWPOLYLINE
  5
11a
100
AcDbEntity
  8
0
 62
7
100
AcDbPolyline
 90
8
 70
1
 10
183.072473
 20
121.801010
 30
0.0
 10
172.158178
 20
121.801010
 30
0.0
 10
169.500002
 20
126.405106
 30
0.0
 10
169.500002
 20
136.101028
 30
0.0
 10
172.158178
 20
140.705123
 30
0.0
 10
183.072473
 20
140.705123
 30
0.0
 10
188.529620
 20
131.253067
 30
0.0
 10
183.072473
 20
121.801010
 30
0.0
  0
LWPOLYLINE
  5
11b
100
AcDbEntity
  8
0
 62
7
100
AcDbPolyline
 90
13
 70
1
 10
229.437814
 20
168.581689
 30
0.0
 10
235.854105
 20
157.468347
 30
0.0
 10
235.854105
 20
144.635766
 30
0.0
 10
229.437814
 20
133.522424
 30
0.0
 10
218.324473
 20
127.106133
 30
0.0
 10
205.491891
 20
127.106133
 30
0.0
 10
194.378550
 20
133.522424
 30
0.0
 10
187.962259
 20
144.635766
 30
0.0
 10
187.962259
 20
157.468347
 30
0.0
 10
194.378550
 20
168.581689
 30
0.0
 10
205.491891
 20
174.997980
 30
0.0
 10
218.324473
 20
174.997980
 30
0.0
 10
229.437814
 20
168.581689
 30
0.0
  0
LWPOLYLINE
  5
11c
100
AcDbEntity
  8
0
 62
7
100
AcDbPolyline
 90
5
 70
1
 10
234.719426
 20
119.835689
 30
0.0
 10
227.536727
 20
115.688756
 30
0.0
 10
223.389794
 20
122.871455
 30
0.0
 10
230.572493
 20
127.018388
 30
0.0
 10
234.719426
 20
119.835689
 30
0.0
  0
LWPOLYLINE
  5
11d
100
AcDbEntity
  8
0
 62
7
100
AcDbPolyline
 90
5
 70
1
 10
196.279637
 20
115.688756
 30
0.0
 10
189.096938
 20
119.835689
 30
0.0
 10
193.243871
 20
127.018388
 30
0.0
 10
200.426570
 20
122.871455
 30
0.0
 10
196.279637
 20
115.688756
 30
0.0
  0
LWPOLYLINE
  5
11e
100
AcDbEntity
  8
0
 62
7
100
AcDbPolyline
 90
5
 70
1
 10
250.347972
 20
155.198990
 30
0.0
 10
250.347972
 20
146.905123
 30
0.0
 10
242.054105
 20
146.905123
 30
0.0
 10
242.054105
 20
155.198990
 30
0.0
 10
250.347972
 20
155.198990
 30
0.0
  0
LWPOLYLINE
  5
11f
100
AcDbEntity
  8
0
 62
7
100
AcDbPolyline
 90
7
 70
1
 10
222.822477
 20
111.454077
 30
0.0
 10
217.365329
 20
102.002020
 30
0.0
 10
206.451035
 20
102.002020
 30
0.0
 10
200.993887
 20
111.454077
 30
0.0
 10
206.451035
 20
120.906133
 30
0.0
 10
217.365329
 20
120.906133
 30
0.0
 10
222.822477
 20
111.454077
 30
0.0
  0
LWPOLYLINE
  5
120
100
AcDbEntity
  8
0
 62
7
100
AcDbPolyline
 90
7
 70
1
 10
257.115333
 20
131.253067
 30
0.0
 10
251.658186
 20
121.801010
 30
0.0
 10
240.743891
 20
121.801010
 30
0.0
 10
235.286744
 20
131.253067
 30
0.0
 10
240.743891
 20
140.705123
 30
0.0
 10
251.658186
 20
140.705123
 30
0.0
 10
257.115333
 20
131.253067
 30
0.0
  0
LWPOLYLINE
  5
121
100
AcDbEntity
  8
0
 62
7
100
AcDbPolyline
 90
13
 70
1
 10
298.023527
 20
168.581689
 30
0.0
 10
304.439818
 20
157.468347
 30
0.0
 10
304.439818
 20
144.635766
 30
0.0
 10
298.023527
 20
133.522424
 30
0.0
 10
286.910186
 20
127.106133
 30
0.0
 10
274.077604
 20
127.106133
 30
0.0
 10
262.964262
 20
133.522424
 30
0.0
 10
256.547972
 20
144.635766
 30
0.0
 10
256.547972
 20
157.468347
 30
0.0
 10
262.964262
 20
168.581689
 30
0.0
 10
274.077604
 20
174.997980
 30
0.0
 10
286.910186
 20
174.997980
 30
0.0
 10
298.023527
 20
168.581689
 30
0.0
  0
LWPOLYLINE
  5
122
100
AcDbEntity
  8
0
 62
7
100
AcDbPolyline
 90
5
 70
1
 10
303.305139
 20
119.835689
 30
0.0
 10
296.122440
 20
115.688756
 30
0.0
 10
291.975507
 20
122.871455
 30
0.0
 10
299.158206
 20
127.018388
 30
0.0
 10
303.305139
 20
119.835689
 30
0.0
  0
LWPOLYLINE
  5
123
100
AcDbEntity
  8
0
 62
7
100
AcDbPolyline
 90
5
 70
1
 10
264.865350
 20
115.688756
 30
0.0
 10
257.682650
 20
119.835689
 30
0.0
 10
261.829584
 20
127.018388
 30
0.0
 10
269.012283
 20
122.871455
 30
0.0
 10
264.865350
 20
115.688756
 30
0.0
  0
LWPOLYLINE
  5
124
100
AcDbEntity
  8
0
 62
7
100
AcDbPolyline
 90
5
 70
1
 10
318.933684
 20
155.198990
 30
0.0
 10
318.933684
 20
146.905123
 30
0.0
 10
310.639818
 20
146.905123
 30
0.0
 10
310.639818
 20
155.198990
 30
0.0
 10
318.933684
 20
155.198990
 30
0.0
  0
LWPOLYLINE
  5
125
100
AcDbEntity
  8
0
 62
7
100
AcDbPolyline
 90
7
 70
1
 10
291.408190
 20
111.454077
 30
0.0
 10
285.951042
 20
102.002020
 30
0.0
 10
275.036747
 20
102.002020
 30
0.0
 10
269.579600
 20
111.454077
 30
0.0
 10
275.036747
 20
120.906133
 30
0.0
 10
285.951042
 20
120.906133
 30
0.0
 10
291.408190
 20
111.454077
 30
0.0
  0
LWPOLYLINE
  5
126
100
AcDbEntity
  8
0
 62
7
100
AcDbPolyline
 90
7
 70
1
 10
325.701046
 20
131.253067
 30
0.0
 10
320.243899
 20
121.801010
 30
0.0
 10
309.329604
 20
121.801010
 30
0.0
 10
303.872456
 20
131.253067
 30
0.0
 10
309.329604
 20
140.705123
 30
0.0
 10
320.243899
 20
140.705123
 30
0.0
 10
325.701046
 20
131.253067
 30
0.0
  0
LWPOLYLINE
  5
127
100
AcDbEntity
  8
0
 62
7
100
AcDbPolyline
 90
13
 70
1
 10
366.609240
 20
168.581689
 30
0.0
 10
373.025531
 20
157.468347
 30
0.0
 10
373.025531
 20
144.635766
 30
0.0
 10
366.609240
 20
133.522424
 30
0.0
 10
355.495898
 20
127.106133
 30
0.0
 10
342.663317
 20
127.106133
 30
0.0
 10
331.549975
 20
133.522424
 30
0.0
 10
325.133684
 20
144.635766
 30
0.0
 10
325.133684
 20
157.468347
 30
0.0
 10
331.549975
 20
168.581689
 30
0.0
 10
342.663317
 20
174.997980
 30
0.0
 10
355.495898
 20
174.997980
 30
0.0
 10
366.609240
 20
168.581689
 30
0.0
  0
LWPOLYLINE
  5
128
100
AcDbEntity
  8
0
 62
7
100
AcDbPolyline
 90
5
 70
1
 10
371.890852
 20
119.835689
 30
0.0
 10
364.708153
 20
115.688756
 30
0.0
 10
360.561220
 20
122.871455
 30
0.0
 10
367.743919
 20
127.018388
 30
0.0
 10
371.890852
 20
119.835689
 30
0.0
  0
LWPOLYLINE
  5
129
100
AcDbEntity
  8
0
 62
7
100
AcDbPolyline
 90
5
 70
1
 10
333.451062
 20
115.688756
 30
0.0
 10
326.268363
 20
119.835689
 30
0.0
 10
330.415296
 20
127.018388
 30
0.0
 10
337.597996
 20
122.871455
 30
0.0
 10
333.451062
 20
115.688756
 30
0.0
  0
LWPOLYLINE
  5
12a
100
AcDbEntity
  8
0
 62
7
100
AcDbPolyline
 90
5
 70
1
 10
387.519397
 20
155.198990
 30
0.0
 10
387.519397
 20
146.905123
 30
0.0
 10
379.225531
 20
146.905123
 30
0.0
 10
379.225531
 20
155.198990
 30
0.0
 10
387.519397
 20
155.198990
 30
0.0
  0
LWPOLYLINE
  5
12b
100
AcDbEntity
  8
0
 62
7
100
AcDbPolyline
 90
7
 70
1
 10
359.993902
 20
111.454077
 30
0.0
 10
354.536755
 20
102.002020
 30
0.0
 10
343.622460
 20
102.002020
 30
0.0
 10
338.165313
 20
111.454077
 30
0.0
 10
343.622460
 20
120.906133
 30
0.0
 10
354.536755
 20
120.906133
 30
0.0
 10
359.993902
 20
111.454077
 30
0.0
  0
LWPOLYLINE
  5
12c
100
AcDbEntity
  8
0
 62
7
100
AcDbPolyline
 90
7
 70
1
 10
394.286759
 20
131.253067
 30
0.0
 10
388.829611
 20
121.801010
 30
0.0
 10
377.915317
 20
121.801010
 30
0.0
 10
372.458169
 20
131.253067
 30
0.0
 10
377.915317
 20
140.705123
 30
0.0
 10
388.829611
 20
140.705123
 30
0.0
 10
394.286759
 20
131.253067
 30
0.0
  0
LWPOLYLINE
  5
12d
100
AcDbEntity
  8
0
 62
7
100
AcDbPolyline
 90
13
 70
1
 10
435.194953
 20
168.581689
 30
0.0
 10
441.611244
 20
157.468347
 30
0.0
 10
441.611244
 20
144.635766
 30
0.0
 10
435.194953
 20
133.522424
 30
0.0
 10
424.081611
 20
127.106133
 30
0.0
 10
411.249030
 20
127.106133
 30
0.0
 10
400.135688
 20
133.522424
 30
0.0
 10
393.719397
 20
144.635766
 30
0.0
 10
393.719397
 20
157.468347
 30
0.0
 10
400.135688
 20
168.581689
 30
0.0
 10
411.249030
 20
174.997980
 30
0.0
 10
424.081611
 20
174.997980
 30
0.0
 10
435.194953
 20
168.581689
 30
0.0
  0
LWPOLYLINE
  5
12e
100
AcDbEntity
  8
0
 62
7
100
AcDbPolyline
 90
5
 70
1
 10
440.476565
 20
119.835689
 30
0.0
 10
433.293866
 20
115.688756
 30
0.0
 10
429.146932
 20
122.871455
 30
0.0
 10
436.329632
 20
127.018388
 30
0.0
 10
440.476565
 20
119.835689
 30
0.0
  0
LWPOLYLINE
  5
12f
100
AcDbEntity
  8
0
 62
7
100
AcDbPolyline
 90
5
 70
1
 10
402.036775
 20
115.688756
 30
0.0
 10
394.854076
 20
119.835689
 30
0.0
 10
399.001009
 20
127.018388
 30
0.0
 10
406.183708
 20
122.871455
 30
0.0
 10
402.036775
 20
115.688756
 30
0.0
  0
LWPOLYLINE
  5
130
100
AcDbEntity
  8
0
 62
7
100
AcDbPolyline
 90
5
 70
1
 10
456.105110
 20
155.198990
 30
0.0
 10
456.105110
 20
146.905123
 30
0.0
 10
447.811244
 20
146.905123
 30
0.0
 10
447.811244
 20
155.198990
 30
0.0
 10
456.105110
 20
155.198990
 30
0.0
  0
LWPOLYLINE
  5
131
100
AcDbEntity
  8
0
 62
7
100
AcDbPolyline
 90
7
 70
1
 10
428.579615
 20
111.454077
 30
0.0
 10
423.122468
 20
102.002020
 30
0.0
 10
412.208173
 20
102.002020
 30
0.0
 10
406.751026
 20
111.454077
 30
0.0
 10
412.208173
 20
120.906133
 30
0.0
 10
423.122468
 20
120.906133
 30
0.0
 10
428.579615
 20
111.454077
 30
0.0
  0
LWPOLYLINE
  5
132
100
AcDbEntity
  8
0
 62
7
100
AcDbPolyline
 90
7
 70
1
 10
462.872472
 20
131.253067
 30
0.0
 10
457.415324
 20
121.801010
 30
0.0
 10
446.501029
 20
121.801010
 30
0.0
 10
441.043882
 20
131.253067
 30
0.0
 10
446.501029
 20
140.705123
 30
0.0
 10
457.415324
 20
140.705123
 30
0.0
 10
462.872472
 20
131.253067
 30
0.0
  0
LWPOLYLINE
  5
133
100
AcDbEntity
  8
0
 62
7
100
AcDbPolyline
 90
13
 70
1
 10
503.780666
 20
168.581689
 30
0.0
 10
510.196956
 20
157.468347
 30
0.0
 10
510.196956
 20
144.635766
 30
0.0
 10
503.780666
 20
133.522424
 30
0.0
 10
492.667324
 20
127.106133
 30
0.0
 10
479.834742
 20
127.106133
 30
0.0
 10
468.721401
 20
133.522424
 30
0.0
 10
462.305110
 20
144.635766
 30
0.0
 10
462.305110
 20
157.468347
 30
0.0
 10
468.721401
 20
168.581689
 30
0.0
 10
479.834742
 20
174.997980
 30
0.0
 10
492.667324
 20
174.997980
 30
0.0
 10
503.780666
 20
168.581689
 30
0.0
  0
LWPOLYLINE
  5
134
100
AcDbEntity
  8
0
 62
7
100
AcDbPolyline
 90
5
 70
1
 10
509.062278
 20
119.835689
 30
0.0
 10
501.879578
 20
115.688756
 30
0.0
 10
497.732645
 20
122.871455
 30
0.0
 10
504.915344
 20
127.018388
 30
0.0
 10
509.062278
 20
119.835689
 30
0.0
  0
LWPOLYLINE
  5
135
100
AcDbEntity
  8
0
 62
7
100
AcDbPolyline
 90
5
 70
1
 10
470.622488
 20
115.688756
 30
0.0
 10
463.439789
 20
119.835689
 30
0.0
 10
467.586722
 20
127.018388
 30
0.0
 10
474.769421
 20
122.871455
 30
0.0
 10
470.622488
 20
115.688756
 30
0.0
  0
LWPOLYLINE
  5
136
100
AcDbEntity
  8
0
 62
7
100
AcDbPolyline
 90
5
 70
1
 10
524.690823
 20
155.198990
 30
0.0
 10
524.690823
 20
146.905123
 30
0.0
 10
516.396956
 20
146.905123
 30
0.0
 10
516.396956
 20
155.198990
 30
0.0
 10
524.690823
 20
155.198990
 30
0.0
  0
LWPOLYLINE
  5
137
100
AcDbEntity
  8
0
 62
7
100
AcDbPolyline
 90
7
 70
1
 10
497.165328
 20
111.454077
 30
0.0
 10
491.708181
 20
102.002020
 30
0.0
 10
480.793886
 20
102.002020
 30
0.0
 10
475.336738
 20
111.454077
 30
0.0
 10
480.793886
 20
120.906133
 30
0.0
 10
491.708181
 20
120.906133
 30
0.0
 10
497.165328
 20
111.454077
 30
0.0
  0
LWPOLYLINE
  5
138
100
AcDbEntity
  8
0
 62
7
100
AcDbPolyline
 90
7
 70
1
 10
531.458184
 20
131.253067
 30
0.0
 10
526.001037
 20
121.801010
 30
0.0
 10
515.086742
 20
121.801010
 30
0.0
 10
509.629595
 20
131.253067
 30
0.0
 10
515.086742
 20
140.705123
 30
0.0
 10
526.001037
 20
140.705123
 30
0.0
 10
531.458184
 20
131.253067
 30
0.0
  0
LWPOLYLINE
  5
139
100
AcDbEntity
  8
0
 62
7
100
AcDbPolyline
 90
13
 70
1
 10
572.366378
 20
168.581689
 30
0.0
 10
578.782669
 20
157.468347
 30
0.0
 10
578.782669
 20
144.635766
 30
0.0
 10
572.366378
 20
133.522424
 30
0.0
 10
561.253037
 20
127.106133
 30
0.0
 10
548.420455
 20
127.106133
 30
0.0
 10
537.307114
 20
133.522424
 30
0.0
 10
530.890823
 20
144.635766
 30
0.0
 10
530.890823
 20
157.468347
 30
0.0
 10
537.307114
 20
168.581689
 30
0.0
 10
548.420455
 20
174.997980
 30
0.0
 10
561.253037
 20
174.997980
 30
0.0
 10
572.366378
 20
168.581689
 30
0.0
  0
LWPOLYLINE
  5
13a
100
AcDbEntity
  8
0
 62
7
100
AcDbPolyline
 90
5
 70
1
 10
577.647990
 20
119.835689
 30
0.0
 10
570.465291
 20
115.688756
 30
0.0
 10
566.318358
 20
122.871455
 30
0.0
 10
573.501057
 20
127.018388
 30
0.0
 10
577.647990
 20
119.835689
 30
0.0
  0
LWPOLYLINE
  5
13b
100
AcDbEntity
  8
0
 62
7
100
AcDbPolyline
 90
5
 70
1
 10
539.208201
 20
115.688756
 30
0.0
 10
532.025502
 20
119.835689
 30
0.0
 10
536.172435
 20
127.018388
 30
0.0
 10
543.355134
 20
122.871455
 30
0.0
 10
539.208201
 20
115.688756
 30
0.0
  0
LWPOLYLINE
  5
13c
100
AcDbEntity
  8
0
 62
7
100
AcDbPolyline
 90
5
 70
1
 10
593.276536
 20
155.198990
 30
0.0
 10
593.276536
 20
146.905123
 30
0.0
 10
584.982669
 20
146.905123
 30
0.0
 10
584.982669
 20
155.198990
 30
0.0
 10
593.276536
 20
155.198990
 30
0.0
  0
LWPOLYLINE
  5
13d
100
AcDbEntity
  8
0
 62
7
100
AcDbPolyline
 90
7
 70
1
 10
565.751041
 20
111.454077
 30
0.0
 10
560.293893
 20
102.002020
 30
0.0
 10
549.379599
 20
102.002020
 30
0.0
 10
543.922451
 20
111.454077
 30
0.0
 10
549.379599
 20
120.906133
 30
0.0
 10
560.293893
 20
120.906133
 30
0.0
 10
565.751041
 20
111.454077
 30
0.0
  0
LWPOLYLINE
  5
13e
100
AcDbEntity
  8
0
 62
7
100
AcDbPolyline
 90
7
 70
1
 10
600.043897
 20
131.253067
 30
0.0
 10
594.586750
 20
121.801010
 30
0.0
 10
583.672455
 20
121.801010
 30
0.0
 10
578.215308
 20
131.253067
 30
0.0
 10
583.672455
 20
140.705123
 30
0.0
 10
594.586750
 20
140.705123
 30
0.0
 10
600.043897
 20
131.253067
 30
0.0
  0
LWPOLYLINE
  5
13f
100
AcDbEntity
  8
0
 62
7
100
AcDbPolyline
 90
13
 70
1
 10
640.952091
 20
168.581689
 30
0.0
 10
647.368382
 20
157.468347
 30
0.0
 10
647.368382
 20
144.635766
 30
0.0
 10
640.952091
 20
133.522424
 30
0.0
 10
629.838750
 20
127.106133
 30
0.0
 10
617.006168
 20
127.106133
 30
0.0
 10
605.892826
 20
133.522424
 30
0.0
 10
599.476536
 20
144.635766
 30
0.0
 10
599.476536
 20
157.468347
 30
0.0
 10
605.892826
 20
168.581689
 30
0.0
 10
617.006168
 20
174.997980
 30
0.0
 10
629.838750
 20
174.997980
 30
0.0
 10
640.952091
 20
168.581689
 30
0.0
  0
LWPOLYLINE
  5
140
100
AcDbEntity
  8
0
 62
7
100
AcDbPolyline
 90
5
 70
1
 10
646.233703
 20
119.835689
 30
0.0
 10
639.051004
 20
115.688756
 30
0.0
 10
634.904071
 20
122.871455
 30
0.0
 10
642.086770
 20
127.018388
 30
0.0
 10
646.233703
 20
119.835689
 30
0.0
  0
LWPOLYLINE
  5
141
100
AcDbEntity
  8
0
 62
7
100
AcDbPolyline
 90
5
 70
1
 10
607.793914
 20
115.688756
 30
0.0
 10
600.611214
 20
119.835689
 30
0.0
 10
604.758148
 20
127.018388
 30
0.0
 10
611.940847
 20
122.871455
 30
0.0
 10
607.793914
 20
115.688756
 30
0.0
  0
LWPOLYLINE
  5
142
100
AcDbEntity
  8
0
 62
7
100
AcDbPolyline
 90
5
 70
1
 10
661.862248
 20
155.198990
 30
0.0
 10
661.862248
 20
146.905123
 30
0.0
 10
653.568382
 20
146.905123
 30
0.0
 10
653.568382
 20
155.198990
 30
0.0
 10
661.862248
 20
155.198990
 30
0.0
  0
LWPOLYLINE
  5
143
100
AcDbEntity
  8
0
 62
7
100
AcDbPolyline
 90
7
 70
1
 10
634.336754
 20
111.454077
 30
0.0
 10
628.879606
 20
102.002020
 30
0.0
 10
617.965311
 20
102.002020
 30
0.0
 10
612.508164
 20
111.454077
 30
0.0
 10
617.965311
 20
120.906133
 30
0.0
 10
628.879606
 20
120.906133
 30
0.0
 10
634.336754
 20
111.454077
 30
0.0
  0
LWPOLYLINE
  5
144
100
AcDbEntity
  8
0
 62
7
100
AcDbPolyline
 90
7
 70
1
 10
668.629610
 20
131.253067
 30
0.0
 10
663.172463
 20
121.801010
 30
0.0
 10
652.258168
 20
121.801010
 30
0.0
 10
646.801020
 20
131.253067
 30
0.0
 10
652.258168
 20
140.705123
 30
0.0
 10
663.172463
 20
140.705123
 30
0.0
 10
668.629610
 20
131.253067
 30
0.0
  0
LWPOLYLINE
  5
145
100
AcDbEntity
  8
0
 62
7
100
AcDbPolyline
 90
13
 70
1
 10
709.537804
 20
168.581689
 30
0.0
 10
715.954095
 20
157.468347
 30
0.0
 10
715.954095
 20
144.635766
 30
0.0
 10
709.537804
 20
133.522424
 30
0.0
 10
698.424462
 20
127.106133
 30
0.0
 10
685.591881
 20
127.106133
 30
0.0
 10
674.478539
 20
133.522424
 30
0.0
 10
668.062248
 20
144.635766
 30
0.0
 10
668.062248
 20
157.468347
 30
0.0
 10
674.478539
 20
168.581689
 30
0.0
 10
685.591881
 20
174.997980
 30
0.0
 10
698.424462
 20
174.997980
 30
0.0
 10
709.537804
 20
168.581689
 30
0.0
  0
LWPOLYLINE
  5
146
100
AcDbEntity
  8
0
 62
7
100
AcDbPolyline
 90
5
 70
1
 10
714.819416
 20
119.835689
 30
0.0
 10
707.636717
 20
115.688756
 30
0.0
 10
703.489784
 20
122.871455
 30
0.0
 10
710.672483
 20
127.018388
 30
0.0
 10
714.819416
 20
119.835689
 30
0.0
  0
LWPOLYLINE
  5
147
100
AcDbEntity
  8
0
 62
7
100
AcDbPolyline
 90
5
 70
1
 10
676.379626
 20
115.688756
 30
0.0
 10
669.196927
 20
119.835689
 30
0.0
 10
673.343860
 20
127.018388
 30
0.0
 10
680.526560
 20
122.871455
 30
0.0
 10
676.379626
 20
115.688756
 30
0.0
  0
LWPOLYLINE
  5
148
100
AcDbEntity
  8
0
 62
7
100
AcDbPolyline
 90
5
 70
1
 10
730.447961
 20
155.198990
 30
0.0
 10
730.447961
 20
146.905123
 30
0.0
 10
722.154095
 20
146.905123
 30
0.0
 10
722.154095
 20
155.198990
 30
0.0
 10
730.447961
 20
155.198990
 30
0.0
  0
LWPOLYLINE
  5
149
100
AcDbEntity
  8
0
 62
7
100
AcDbPolyline
 90
7
 70
1
 10
702.922466
 20
111.454077
 30
0.0
 10
697.465319
 20
102.002020
 30
0.0
 10
686.551024
 20
102.002020
 30
0.0
 10
681.093877
 20
111.454077
 30
0.0
 10
686.551024
 20
120.906133
 30
0.0
 10
697.465319
 20
120.906133
 30
0.0
 10
702.922466
 20
111.454077
 30
0.0
  0
LWPOLYLINE
  5
14a
100
AcDbEntity
  8
0
 62
7
100
AcDbPolyline
 90
7
 70
1
 10
737.215323
 20
131.253067
 30
0.0
 10
731.758175
 20
121.801010
 30
0.0
 10
720.843881
 20
121.801010
 30
0.0
 10
715.386733
 20
131.253067
 30
0.0
 10
720.843881
 20
140.705123
 30
0.0
 10
731.758175
 20
140.705123
 30
0.0
 10
737.215323
 20
131.253067
 30
0.0
  0
LWPOLYLINE
  5
14b
100
AcDbEntity
  8
0
 62
7
100
AcDbPolyline
 90
13
 70
1
 10
778.123517
 20
168.581689
 30
0.0
 10
784.539808
 20
157.468347
 30
0.0
 10
784.539808
 20
144.635766
 30
0.0
 10
778.123517
 20
133.522424
 30
0.0
 10
767.010175
 20
127.106133
 30
0.0
 10
754.177594
 20
127.106133
 30
0.0
 10
743.064252
 20
133.522424
 30
0.0
 10
736.647961
 20
144.635766
 30
0.0
 10
736.647961
 20
157.468347
 30
0.0
 10
743.064252
 20
168.581689
 30
0.0
 10
754.177594
 20
174.997980
 30
0.0
 10
767.010175
 20
174.997980
 30
0.0
 10
778.123517
 20
168.581689
 30
0.0
  0
LWPOLYLINE
  5
14c
100
AcDbEntity
  8
0
 62
7
100
AcDbPolyline
 90
5
 70
1
 10
783.405129
 20
119.835689
 30
0.0
 10
776.222430
 20
115.688756
 30
0.0
 10
772.075496
 20
122.871455
 30
0.0
 10
779.258195
 20
127.018388
 30
0.0
 10
783.405129
 20
119.835689
 30
0.0
  0
LWPOLYLINE
  5
14d
100
AcDbEntity
  8
0
 62
7
100
AcDbPolyline
 90
5
 70
1
 10
744.965339
 20
115.688756
 30
0.0
 10
737.782640
 20
119.835689
 30
0.0
 10
741.929573
 20
127.018388
 30
0.0
 10
749.112272
 20
122.871455
 30
0.0
 10
744.965339
 20
115.688756
 30
0.0
  0
LWPOLYLINE
  5
14e
100
AcDbEntity
  8
0
 62
7
100
AcDbPolyline
 90
5
 70
1
 10
799.033674
 20
155.198990
 30
0.0
 10
799.033674
 20
146.905123
 30
0.0
 10
790.739808
 20
146.905123
 30
0.0
 10
790.739808
 20
155.198990
 30
0.0
 10
799.033674
 20
155.198990
 30
0.0
  0
LWPOLYLINE
  5
14f
100
AcDbEntity
  8
0
 62
7
100
AcDbPolyline
 90
7
 70
1
 10
771.508179
 20
111.454077
 30
0.0
 10
766.051032
 20
102.002020
 30
0.0
 10
755.136737
 20
102.002020
 30
0.0
 10
749.679590
 20
111.454077
 30
0.0
 10
755.136737
 20
120.906133
 30
0.0
 10
766.051032
 20
120.906133
 30
0.0
 10
771.508179
 20
111.454077
 30
0.0
  0
LWPOLYLINE
  5
150
100
AcDbEntity
  8
0
 62
7
100
AcDbPolyline
 90
7
 70
1
 10
805.801036
 20
131.253067
 30
0.0
 10
800.343888
 20
121.801010
 30
0.0
 10
789.429593
 20
121.801010
 30
0.0
 10
783.972446
 20
131.253067
 30
0.0
 10
789.429593
 20
140.705123
 30
0.0
 10
800.343888
 20
140.705123
 30
0.0
 10
805.801036
 20
131.253067
 30
0.0
  0
LWPOLYLINE
  5
151
100
AcDbEntity
  8
0
 62
7
100
AcDbPolyline
 90
13
 70
1
 10
846.709230
 20
168.581689
 30
0.0
 10
853.125520
 20
157.468347
 30
0.0
 10
853.125520
 20
144.635766
 30
0.0
 10
846.709230
 20
133.522424
 30
0.0
 10
835.595888
 20
127.106133
 30
0.0
 10
822.763306
 20
127.106133
 30
0.0
 10
811.649965
 20
133.522424
 30
0.0
 10
805.233674
 20
144.635766
 30
0.0
 10
805.233674
 20
157.468347
 30
0.0
 10
811.649965
 20
168.581689
 30
0.0
 10
822.763306
 20
174.997980
 30
0.0
 10
835.595888
 20
174.997980
 30
0.0
 10
846.709230
 20
168.581689
 30
0.0
  0
LWPOLYLINE
  5
152
100
AcDbEntity
  8
0
 62
7
100
AcDbPolyline
 90
5
 70
1
 10
851.990842
 20
119.835689
 30
0.0
 10
844.808142
 20
115.688756
 30
0.0
 10
840.661209
 20
122.871455
 30
0.0
 10
847.843908
 20
127.018388
 30
0.0
 10
851.990842
 20
119.835689
 30
0.0
  0
LWPOLYLINE
  5
153
100
AcDbEntity
  8
0
 62
7
100
AcDbPolyline
 90
5
 70
1
 10
813.551052
 20
115.688756
 30
0.0
 10
806.368353
 20
119.835689
 30
0.0
 10
810.515286
 20
127.018388
 30
0.0
 10
817.697985
 20
122.871455
 30
0.0
 10
813.551052
 20
115.688756
 30
0.0
  0
LWPOLYLINE
  5
154
100
AcDbEntity
  8
0
 62
7
100
AcDbPolyline
 90
5
 70
1
 10
867.619387
 20
155.198990
 30
0.0
 10
867.619387
 20
146.905123
 30
0.0
 10
859.325520
 20
146.905123
 30
0.0
 10
859.325520
 20
155.198990
 30
0.0
 10
867.619387
 20
155.198990
 30
0.0
  0
LWPOLYLINE
  5
155
100
AcDbEntity
  8
0
 62
7
100
AcDbPolyline
 90
7
 70
1
 10
840.093892
 20
111.454077
 30
0.0
 10
834.636745
 20
102.002020
 30
0.0
 10
823.722450
 20
102.002020
 30
0.0
 10
818.265302
 20
111.454077
 30
0.0
 10
823.722450
 20
120.906133
 30
0.0
 10
834.636745
 20
120.906133
 30
0.0
 10
840.093892
 20
111.454077
 30
0.0
  0
LWPOLYLINE
  5
156
100
AcDbEntity
  8
0
 62
7
100
AcDbPolyline
 90
7
 70
1
 10
874.386748
 20
131.253067
 30
0.0
 10
868.929601
 20
121.801010
 30
0.0
 10
858.015306
 20
121.801010
 30
0.0
 10
852.558159
 20
131.253067
 30
0.0
 10
858.015306
 20
140.705123
 30
0.0
 10
868.929601
 20
140.705123
 30
0.0
 10
874.386748
 20
131.253067
 30
0.0
  0
LWPOLYLINE
  5
157
100
AcDbEntity
  8
0
 62
7
100
AcDbPolyline
 90
13
 70
1
 10
915.294942
 20
168.581689
 30
0.0
 10
921.711233
 20
157.468347
 30
0.0
 10
921.711233
 20
144.635766
 30
0.0
 10
915.294942
 20
133.522424
 30
0.0
 10
904.181601
 20
127.106133
 30
0.0
 10
891.349019
 20
127.106133
 30
0.0
 10
880.235678
 20
133.522424
 30
0.0
 10
873.819387
 20
144.635766
 30
0.0
 10
873.819387
 20
157.468347
 30
0.0
 10
880.235678
 20
168.581689
 30
0.0
 10
891.349019
 20
174.997980
 30
0.0
 10
904.181601
 20
174.997980
 30
0.0
 10
915.294942
 20
168.581689
 30
0.0
  0
LWPOLYLINE
  5
158
100
AcDbEntity
  8
0
 62
7
100
AcDbPolyline
 90
5
 70
1
 10
920.576554
 20
119.835689
 30
0.0
 10
913.393855
 20
115.688756
 30
0.0
 10
909.246922
 20
122.871455
 30
0.0
 10
916.429621
 20
127.018388
 30
0.0
 10
920.576554
 20
119.835689
 30
0.0
  0
LWPOLYLINE
  5
159
100
AcDbEntity
  8
0
 62
7
100
AcDbPolyline
 90
5
 70
1
 10
882.136765
 20
115.688756
 30
0.0
 10
874.954066
 20
119.835689
 30
0.0
 10
879.100999
 20
127.018388
 30
0.0
 10
886.283698
 20
122.871455
 30
0.0
 10
882.136765
 20
115.688756
 30
0.0
  0
LWPOLYLINE
  5
15a
100
AcDbEntity
  8
0
 62
7
100
AcDbPolyline
 90
5
 70
1
 10
936.205100
 20
155.198990
 30
0.0
 10
936.205100
 20
146.905123
 30
0.0
 10
927.911233
 20
146.905123
 30
0.0
 10
927.911233
 20
155.198990
 30
0.0
 10
936.205100
 20
155.198990
 30
0.0
  0
LWPOLYLINE
  5
15b
100
AcDbEntity
  8
0
 62
7
100
AcDbPolyline
 90
7
 70
1
 10
908.679605
 20
111.454077
 30
0.0
 10
903.222457
 20
102.002020
 30
0.0
 10
892.308163
 20
102.002020
 30
0.0
 10
886.851015
 20
111.454077
 30
0.0
 10
892.308163
 20
120.906133
 30
0.0
 10
903.222457
 20
120.906133
 30
0.0
 10
908.679605
 20
111.454077
 30
0.0
  0
LWPOLYLINE
  5
15c
100
AcDbEntity
  8
0
 62
7
100
AcDbPolyline
 90
7
 70
1
 10
942.972461
 20
131.253067
 30
0.0
 10
937.515314
 20
121.801010
 30
0.0
 10
926.601019
 20
121.801010
 30
0.0
 10
921.143872
 20
131.253067
 30
0.0
 10
926.601019
 20
140.705123
 30
0.0
 10
937.515314
 20
140.705123
 30
0.0
 10
942.972461
 20
131.253067
 30
0.0
  0
LWPOLYLINE
  5
15d
100
AcDbEntity
  8
0
 62
7
100
AcDbPolyline
 90
13
 70
1
 10
983.880655
 20
168.581689
 30
0.0
 10
990.296946
 20
157.468347
 30
0.0
 10
990.296946
 20
144.635766
 30
0.0
 10
983.880655
 20
133.522424
 30
0.0
 10
972.767314
 20
127.106133
 30
0.0
 10
959.934732
 20
127.106133
 30
0.0
 10
948.821390
 20
133.522424
 30
0.0
 10
942.405100
 20
144.635766
 30
0.0
 10
942.405100
 20
157.468347
 30
0.0
 10
948.821390
 20
168.581689
 30
0.0
 10
959.934732
 20
174.997980
 30
0.0
 10
972.767314
 20
174.997980
 30
0.0
 10
983.880655
 20
168.581689
 30
0.0
  0
LWPOLYLINE
  5
15e
100
AcDbEntity
  8
0
 62
7
100
AcDbPolyline
 90
5
 70
1
 10
989.162267
 20
119.835689
 30
0.0
 10
981.979568
 20
115.688756
 30
0.0
 10
977.832635
 20
122.871455
 30
0.0
 10
985.015334
 20
127.018388
 30
0.0
 10
989.162267
 20
119.835689
 30
0.0
  0
LWPOLYLINE
  5
15f
100
AcDbEntity
  8
0
 62
7
100
AcDbPolyline
 90
5
 70
1
 10
950.722477
 20
115.688756
 30
0.0
 10
943.539778
 20
119.835689
 30
0.0
 10
947.686712
 20
127.018388
 30
0.0
 10
954.869411
 20
122.871455
 30
0.0
 10
950.722477
 20
115.688756
 30
0.0
  0
LWPOLYLINE
  5
160
100
AcDbEntity
  8
0
 62
7
100
AcDbPolyline
 90
5
 70
1
 10
1004.790812
 20
155.198990
 30
0.0
 10
1004.790812
 20
146.905123
 30
0.0
 10
996.496946
 20
146.905123
 30
0.0
 10
996.496946
 20
155.198990
 30
0.0
 10
1004.790812
 20
155.198990
 30
0.0
  0
LWPOLYLINE
  5
161
100
AcDbEntity
  8
0
 62
7
100
AcDbPolyline
 90
7
 70
1
 10
977.265318
 20
111.454077
 30
0.0
 10
971.808170
 20
102.002020
 30
0.0
 10
960.893875
 20
102.002020
 30
0.0
 10
955.436728
 20
111.454077
 30
0.0
 10
960.893875
 20
120.906133
 30
0.0
 10
971.808170
 20
120.906133
 30
0.0
 10
977.265318
 20
111.454077
 30
0.0
  0
LWPOLYLINE
  5
162
100
AcDbEntity
  8
0
 62
7
100
AcDbPolyline
 90
7
 70
1
 10
1011.558174
 20
131.253067
 30
0.0
 10
1006.101027
 20
121.801010
 30
0.0
 10
995.186732
 20
121.801010
 30
0.0
 10
989.729584
 20
131.253067
 30
0.0
 10
995.186732
 20
140.705123
 30
0.0
 10
1006.101027
 20
140.705123
 30
0.0
 10
1011.558174
 20
131.253067
 30
0.0
  0
LWPOLYLINE
  5
163
100
AcDbEntity
  8
0
 62
7
100
AcDbPolyline
 90
9
 70
1
 10
1028.520445
 20
127.106133
 30
0.0
 10
1017.407103
 20
133.522424
 30
0.0
 10
1010.990812
 20
144.635766
 30
0.0
 10
1010.990812
 20
157.468347
 30
0.0
 10
1017.407103
 20
168.581689
 30
0.0
 10
1028.520445
 20
174.997980
 30
0.0
 10
1030.500002
 20
174.997980
 30
0.0
 10
1030.500002
 20
127.106133
 30
0.0
 10
1028.520445
 20
127.106133
 30
0.0
  0
LWPOLYLINE
  5
164
100
AcDbEntity
  8
0
 62
7
100
AcDbPolyline
 90
5
 70
1
 10
1019.308190
 20
115.688756
 30
0.0
 10
1012.125491
 20
119.835689
 30
0.0
 10
1016.272424
 20
127.018388
 30
0.0
 10
1023.455124
 20
122.871455
 30
0.0
 10
1019.308190
 20
115.688756
 30
0.0
  0
LWPOLYLINE
  5
165
100
AcDbEntity
  8
0
 62
7
100
AcDbPolyline
 90
6
 70
1
 10
1029.479588
 20
102.002020
 30
0.0
 10
1024.022441
 20
111.454077
 30
0.0
 10
1029.479588
 20
120.906133
 30
0.0
 10
1030.500002
 20
120.906133
 30
0.0
 10
1030.500002
 20
102.002020
 30
0.0
 10
1029.479588
 20
102.002020
 30
0.0
  0
LWPOLYLINE
  5
166
100
AcDbEntity
  8
0
 62
7
100
AcDbPolyline
 90
8
 70
1
 10
201.561249
 20
204.032735
 30
0.0
 10
195.144958
 20
192.919394
 30
0.0
 10
184.031616
 20
186.503103
 30
0.0
 10
171.199035
 20
186.503103
 30
0.0
 10
169.500002
 20
187.484040
 30
0.0
 10
169.500002
 20
211.000000
 30
0.0
 10
201.561249
 20
211.000000
 30
0.0
 10
201.561249
 20
204.032735
 30
0.0
  0
LWPOLYLINE
  5
167
100
AcDbEntity
  8
0
 62
7
100
AcDbPolyline
 90
5
 70
1
 10
200.426570
 20
179.232658
 30
0.0
 10
193.243871
 20
175.085725
 30
0.0
 10
189.096938
 20
182.268424
 30
0.0
 10
196.279637
 20
186.415358
 30
0.0
 10
200.426570
 20
179.232658
 30
0.0
  0
LWPOLYLINE
  5
168
100
AcDbEntity
  8
0
 62
7
100
AcDbPolyline
 90
5
 70
1
 10
216.055115
 20
206.302093
 30
0.0
 10
207.761249
 20
206.302093
 30
0.0
 10
207.761249
 20
211.000000
 30
0.0
 10
216.055115
 20
211.000000
 30
0.0
 10
216.055115
 20
206.302093
 30
0.0
  0
LWPOLYLINE
  5
169
100
AcDbEntity
  8
0
 62
7
100
AcDbPolyline
 90
8
 70
1
 10
183.072473
 20
161.398990
 30
0.0
 10
172.158178
 20
161.398990
 30
0.0
 10
169.500002
 20
166.003086
 30
0.0
 10
169.500002
 20
175.699007
 30
0.0
 10
172.158178
 20
180.303103
 30
0.0
 10
183.072473
 20
180.303103
 30
0.0
 10
188.529620
 20
170.851046
 30
0.0
 10
183.072473
 20
161.398990
 30
0.0
  0
LWPOLYLINE
  5
16a
100
AcDbEntity
  8
0
 62
7
100
AcDbPolyline
 90
7
 70
1
 10
222.822477
 20
190.650036
 30
0.0
 10
217.365329
 20
181.197980
 30
0.0
 10
206.451035
 20
181.197980
 30
0.0
 10
200.993887
 20
190.650036
 30
0.0
 10
206.451035
 20
200.102093
 30
0.0
 10
217.365329
 20
200.102093
 30
0.0
 10
222.822477
 20
190.650036
 30
0.0
  0
LWPOLYLINE
  5
16b
100
AcDbEntity
  8
0
 62
7
100
AcDbPolyline
 90
9
 70
1
 10
270.146962
 20
204.032735
 30
0.0
 10
263.730671
 20
192.919394
 30
0.0
 10
252.617329
 20
186.503103
 30
0.0
 10
239.784748
 20
186.503103
 30
0.0
 10
228.671406
 20
192.919394
 30
0.0
 10
222.255115
 20
204.032735
 30
0.0
 10
222.255115
 20
211.000000
 30
0.0
 10
270.146962
 20
211.000000
 30
0.0
 10
270.146962
 20
204.032735
 30
0.0
  0
LWPOLYLINE
  5
16c
100
AcDbEntity
  8
0
 62
7
100
AcDbPolyline
 90
5
 70
1
 10
269.012283
 20
179.232658
 30
0.0
 10
261.829584
 20
175.085725
 30
0.0
 10
257.682650
 20
182.268424
 30
0.0
 10
264.865350
 20
186.415358
 30
0.0
 10
269.012283
 20
179.232658
 30
0.0
  0
LWPOLYLINE
  5
16d
100
AcDbEntity
  8
0
 62
7
100
AcDbPolyline
 90
5
 70
1
 10
230.572493
 20
175.085725
 30
0.0
 10
223.389794
 20
179.232658
 30
0.0
 10
227.536727
 20
186.415358
 30
0.0
 10
234.719426
 20
182.268424
 30
0.0
 10
230.572493
 20
175.085725
 30
0.0
  0
LWPOLYLINE
  5
16e
100
AcDbEntity
  8
0
 62
7
100
AcDbPolyline
 90
5
 70
1
 10
284.640828
 20
206.302093
 30
0.0
 10
276.346962
 20
206.302093
 30
0.0
 10
276.346962
 20
211.000000
 30
0.0
 10
284.640828
 20
211.000000
 30
0.0
 10
284.640828
 20
206.302093
 30
0.0
  0
LWPOLYLINE
  5
16f
100
AcDbEntity
  8
0
 62
7
100
AcDbPolyline
 90
7
 70
1
 10
257.115333
 20
170.851046
 30
0.0
 10
251.658186
 20
161.398990
 30
0.0
 10
240.743891
 20
161.398990
 30
0.0
 10
235.286744
 20
170.851046
 30
0.0
 10
240.743891
 20
180.303103
 30
0.0
 10
251.658186
 20
180.303103
 30
0.0
 10
257.115333
 20
170.851046
 30
0.0
  0
LWPOLYLINE
  5
170
100
AcDbEntity
  8
0
 62
7
100
AcDbPolyline
 90
7
 70
1
 10
291.408190
 20
190.650036
 30
0.0
 10
285.951042
 20
181.197980
 30
0.0
 10
275.036747
 20
181.197980
 30
0.0
 10
269.579600
 20
190.650036
 30
0.0
 10
275.036747
 20
200.102093
 30
0.0
 10
285.951042
 20
200.102093
 30
0.0
 10
291.408190
 20
190.650036
 30
0.0
  0
LWPOLYLINE
  5
171
100
AcDbEntity
  8
0
 62
7
100
AcDbPolyline
 90
9
 70
1
 10
338.732674
 20
204.032735
 30
0.0
 10
332.316384
 20
192.919394
 30
0.0
 10
321.203042
 20
186.503103
 30
0.0
 10
308.370460
 20
186.503103
 30
0.0
 10
297.257119
 20
192.919394
 30
0.0
 10
290.840828
 20
204.032735
 30
0.0
 10
290.840828
 20
211.000000
 30
0.0
 10
338.732674
 20
211.000000
 30
0.0
 10
338.732674
 20
204.032735
 30
0.0
  0
LWPOLYLINE
  5
172
100
AcDbEntity
  8
0
 62
7
100
AcDbPolyline
 90
5
 70
1
 10
337.597996
 20
179.232658
 30
0.0
 10
330.415296
 20
175.085725
 30
0.0
 10
326.268363
 20
182.268424
 30
0.0
 10
333.451062
 20
186.415358
 30
0.0
 10
337.597996
 20
179.232658
 30
0.0
  0
LWPOLYLINE
  5
173
100
AcDbEntity
  8
0
 62
7
100
AcDbPolyline
 90
5
 70
1
 10
299.158206
 20
175.085725
 30
0.0
 10
291.975507
 20
179.232658
 30
0.0
 10
296.122440
 20
186.415358
 30
0.0
 10
303.305139
 20
182.268424
 30
0.0
 10
299.158206
 20
175.085725
 30
0.0
  0
LWPOLYLINE
  5
174
100
AcDbEntity
  8
0
 62
7
100
AcDbPolyline
 90
5
 70
1
 10
353.226541
 20
206.302093
 30
0.0
 10
344.932674
 20
206.302093
 30
0.0
 10
344.932674
 20
211.000000
 30
0.0
 10
353.226541
 20
211.000000
 30
0.0
 10
353.226541
 20
206.302093
 30
0.0
  0
LWPOLYLINE
  5
175
100
AcDbEntity
  8
0
 62
7
100
AcDbPolyline
 90
7
 70
1
 10
325.701046
 20
170.851046
 30
0.0
 10
320.243899
 20
161.398990
 30
0.0
 10
309.329604
 20
161.398990
 30
0.0
 10
303.872456
 20
170.851046
 30
0.0
 10
309.329604
 20
180.303103
 30
0.0
 10
320.243899
 20
180.303103
 30
0.0
 10
325.701046
 20
170.851046
 30
0.0
  0
LWPOLYLINE
  5
176
100
AcDbEntity
  8
0
 62
7
100
AcDbPolyline
 90
7
 70
1
 10
359.993902
 20
190.650036
 30
0.0
 10
354.536755
 20
181.197980
 30
0.0
 10
343.622460
 20
181.197980
 30
0.0
 10
338.165313
 20
190.650036
 30
0.0
 10
343.622460
 20
200.102093
 30
0.0
 10
354.536755
 20
200.102093
 30
0.0
 10
359.993902
 20
190.650036
 30
0.0
  0
LWPOLYLINE
  5
177
100
AcDbEntity
  8
0
 62
7
100
AcDbPolyline
 90
9
 70
1
 10
407.318387
 20
204.032735
 30
0.0
 10
400.902096
 20
192.919394
 30
0.0
 10
389.788755
 20
186.503103
 30
0.0
 10
376.956173
 20
186.503103
 30
0.0
 10
365.842832
 20
192.919394
 30
0.0
 10
359.426541
 20
204.032735
 30
0.0
 10
359.426541
 20
211.000000
 30
0.0
 10
407.318387
 20
211.000000
 30
0.0
 10
407.318387
 20
204.032735
 30
0.0
  0
LWPOLYLINE
  5
178
100
AcDbEntity
  8
0
 62
7
100
AcDbPolyline
 90
5
 70
1
 10
406.183708
 20
179.232658
 30
0.0
 10
399.001009
 20
175.085725
 30
0.0
 10
394.854076
 20
182.268424
 30
0.0
 10
402.036775
 20
186.415358
 30
0.0
 10
406.183708
 20
179.232658
 30
0.0
  0
LWPOLYLINE
  5
179
100
AcDbEntity
  8
0
 62
7
100
AcDbPolyline
 90
5
 70
1
 10
367.743919
 20
175.085725
 30
0.0
 10
360.561220
 20
179.232658
 30
0.0
 10
364.708153
 20
186.415358
 30
0.0
 10
371.890852
 20
182.268424
 30
0.0
 10
367.743919
 20
175.085725
 30
0.0
  0
LWPOLYLINE
  5
17a
100
AcDbEntity
  8
0
 62
7
100
AcDbPolyline
 90
5
 70
1
 10
421.812254
 20
206.302093
 30
0.0
 10
413.518387
 20
206.302093
 30
0.0
 10
413.518387
 20
211.000000
 30
0.0
 10
421.812254
 20
211.000000
 30
0.0
 10
421.812254
 20
206.302093
 30
0.0
  0
LWPOLYLINE
  5
17b
100
AcDbEntity
  8
0
 62
7
100
AcDbPolyline
 90
7
 70
1
 10
394.286759
 20
170.851046
 30
0.0
 10
388.829611
 20
161.398990
 30
0.0
 10
377.915317
 20
161.398990
 30
0.0
 10
372.458169
 20
170.851046
 30
0.0
 10
377.915317
 20
180.303103
 30
0.0
 10
388.829611
 20
180.303103
 30
0.0
 10
394.286759
 20
170.851046
 30
0.0
  0
LWPOLYLINE
  5
17c
100
AcDbEntity
  8
0
 62
7
100
AcDbPolyline
 90
7
 70
1
 10
428.579615
 20
190.650036
 30
0.0
 10
423.122468
 20
181.197980
 30
0.0
 10
412.208173
 20
181.197980
 30
0.0
 10
406.751026
 20
190.650036
 30
0.0
 10
412.208173
 20
200.102093
 30
0.0
 10
423.122468
 20
200.102093
 30
0.0
 10
428.579615
 20
190.650036
 30
0.0
  0
LWPOLYLINE
  5
17d
100
AcDbEntity
  8
0
 62
7
100
AcDbPolyline
 90
9
 70
1
 10
475.904100
 20
204.032735
 30
0.0
 10
469.487809
 20
192.919394
 30
0.0
 10
458.374468
 20
186.503103
 30
0.0
 10
445.541886
 20
186.503103
 30
0.0
 10
434.428544
 20
192.919394
 30
0.0
 10
428.012254
 20
204.032735
 30
0.0
 10
428.012254
 20
211.000000
 30
0.0
 10
475.904100
 20
211.000000
 30
0.0
 10
475.904100
 20
204.032735
 30
0.0
  0
LWPOLYLINE
  5
17e
100
AcDbEntity
  8
0
 62
7
100
AcDbPolyline
 90
5
 70
1
 10
474.769421
 20
179.232658
 30
0.0
 10
467.586722
 20
175.085725
 30
0.0
 10
463.439789
 20
182.268424
 30
0.0
 10
470.622488
 20
186.415358
 30
0.0
 10
474.769421
 20
179.232658
 30
0.0
  0
LWPOLYLINE
  5
17f
100
AcDbEntity
  8
0
 62
7
100
AcDbPolyline
 90
5
 70
1
 10
436.329632
 20
175.085725
 30
0.0
 10
429.146932
 20
179.232658
 30
0.0
 10
433.293866
 20
186.415358
 30
0.0
 10
440.476565
 20
182.268424
 30
0.0
 10
436.329632
 20
175.085725
 30
0.0
  0
LWPOLYLINE
  5
180
100
AcDbEntity
  8
0
 62
7
100
AcDbPolyline
 90
5
 70
1
 10
490.397966
 20
206.302093
 30
0.0
 10
482.104100
 20
206.302093
 30
0.0
 10
482.104100
 20
211.000000
 30
0.0
 10
490.397966
 20
211.000000
 30
0.0
 10
490.397966
 20
206.302093
 30
0.0
  0
LWPOLYLINE
  5
181
100
AcDbEntity
  8
0
 62
7
100
AcDbPolyline
 90
7
 70
1
 10
462.872472
 20
170.851046
 30
0.0
 10
457.415324
 20
161.398990
 30
0.0
 10
446.501029
 20
161.398990
 30
0.0
 10
441.043882
 20
170.851046
 30
0.0
 10
446.501029
 20
180.303103
 30
0.0
 10
457.415324
 20
180.303103
 30
0.0
 10
462.872472
 20
170.851046
 30
0.0
  0
LWPOLYLINE
  5
182
100
AcDbEntity
  8
0
 62
7
100
AcDbPolyline
 90
7
 70
1
 10
497.165328
 20
190.650036
 30
0.0
 10
491.708181
 20
181.197980
 30
0.0
 10
480.793886
 20
181.197980
 30
0.0
 10
475.336738
 20
190.650036
 30
0.0
 10
480.793886
 20
200.102093
 30
0.0
 10
491.708181
 20
200.102093
 30
0.0
 10
497.165328
 20
190.650036
 30
0.0
  0
LWPOLYLINE
  5
183
100
AcDbEntity
  8
0
 62
7
100
AcDbPolyline
 90
9
 70
1
 10
544.489813
 20
204.032735
 30
0.0
 10
538.073522
 20
192.919394
 30
0.0
 10
526.960180
 20
186.503103
 30
0.0
 10
514.127599
 20
186.503103
 30
0.0
 10
503.014257
 20
192.919394
 30
0.0
 10
496.597966
 20
204.032735
 30
0.0
 10
496.597966
 20
211.000000
 30
0.0
 10
544.489813
 20
211.000000
 30
0.0
 10
544.489813
 20
204.032735
 30
0.0
  0
LWPOLYLINE
  5
184
100
AcDbEntity
  8
0
 62
7
100
AcDbPolyline
 90
5
 70
1
 10
543.355134
 20
179.232658
 30
0.0
 10
536.172435
 20
175.085725
 30
0.0
 10
532.025502
 20
182.268424
 30
0.0
 10
539.208201
 20
186.415358
 30
0.0
 10
543.355134
 20
179.232658
 30
0.0
  0
LWPOLYLINE
  5
185
100
AcDbEntity
  8
0
 62
7
100
AcDbPolyline
 90
5
 70
1
 10
504.915344
 20
175.085725
 30
0.0
 10
497.732645
 20
179.232658
 30
0.0
 10
501.879578
 20
186.415358
 30
0.0
 10
509.062278
 20
182.268424
 30
0.0
 10
504.915344
 20
175.085725
 30
0.0
  0
LWPOLYLINE
  5
186
100
AcDbEntity
  8
0
 62
7
100
AcDbPolyline
 90
5
 70
1
 10
558.983679
 20
206.302093
 30
0.0
 10
550.689813
 20
206.302093
 30
0.0
 10
550.689813
 20
211.000000
 30
0.0
 10
558.983679
 20
211.000000
 30
0.0
 10
558.983679
 20
206.302093
 30
0.0
  0
LWPOLYLINE
  5
187
100
AcDbEntity
  8
0
 62
7
100
AcDbPolyline
 90
7
 70
1
 10
531.458184
 20
170.851046
 30
0.0
 10
526.001037
 20
161.398990
 30
0.0
 10
515.086742
 20
161.398990
 30
0.0
 10
509.629595
 20
170.851046
 30
0.0
 10
515.086742
 20
180.303103
 30
0.0
 10
526.001037
 20
180.303103
 30
0.0
 10
531.458184
 20
170.851046
 30
0.0
  0
LWPOLYLINE
  5
188
100
AcDbEntity
  8
0
 62
7
100
AcDbPolyline
 90
7
 70
1
 10
565.751041
 20
190.650036
 30
0.0
 10
560.293893
 20
181.197980
 30
0.0
 10
549.379599
 20
181.197980
 30
0.0
 10
543.922451
 20
190.650036
 30
0.0
 10
549.379599
 20
200.102093
 30
0.0
 10
560.293893
 20
200.102093
 30
0.0
 10
565.751041
 20
190.650036
 30
0.0
  0
LWPOLYLINE
  5
189
100
AcDbEntity
  8
0
 62
7
100
AcDbPolyline
 90
9
 70
1
 10
613.075526
 20
204.032735
 30
0.0
 10
606.659235
 20
192.919394
 30
0.0
 10
595.545893
 20
186.503103
 30
0.0
 10
582.713312
 20
186.503103
 30
0.0
 10
571.599970
 20
192.919394
 30
0.0
 10
565.183679
 20
204.032735
 30
0.0
 10
565.183679
 20
211.000000
 30
0.0
 10
613.075526
 20
211.000000
 30
0.0
 10
613.075526
 20
204.032735
 30
0.0
  0
LWPOLYLINE
  5
18a
100
AcDbEntity
  8
0
 62
7
100
AcDbPolyline
 90
5
 70
1
 10
611.940847
 20
179.232658
 30
0.0
 10
604.758148
 20
175.085725
 30
0.0
 10
600.611214
 20
182.268424
 30
0.0
 10
607.793914
 20
186.415358
 30
0.0
 10
611.940847
 20
179.232658
 30
0.0
  0
LWPOLYLINE
  5
18b
100
AcDbEntity
  8
0
 62
7
100
AcDbPolyline
 90
5
 70
1
 10
573.501057
 20
175.085725
 30
0.0
 10
566.318358
 20
179.232658
 30
0.0
 10
570.465291
 20
186.415358
 30
0.0
 10
577.647990
 20
182.268424
 30
0.0
 10
573.501057
 20
175.085725
 30
0.0
  0
LWPOLYLINE
  5
18c
100
AcDbEntity
  8
0
 62
7
100
AcDbPolyline
 90
5
 70
1
 10
627.569392
 20
206.302093
 30
0.0
 10
619.275526
 20
206.302093
 30
0.0
 10
619.275526
 20
211.000000
 30
0.0
 10
627.569392
 20
211.000000
 30
0.0
 10
627.569392
 20
206.302093
 30
0.0
  0
LWPOLYLINE
  5
18d
100
AcDbEntity
  8
0
 62
7
100
AcDbPolyline
 90
7
 70
1
 10
600.043897
 20
170.851046
 30
0.0
 10
594.586750
 20
161.398990
 30
0.0
 10
583.672455
 20
161.398990
 30
0.0
 10
578.215308
 20
170.851046
 30
0.0
 10
583.672455
 20
180.303103
 30
0.0
 10
594.586750
 20
180.303103
 30
0.0
 10
600.043897
 20
170.851046
 30
0.0
  0
LWPOLYLINE
  5
18e
100
AcDbEntity
  8
0
 62
7
100
AcDbPolyline
 90
7
 70
1
 10
634.336754
 20
190.650036
 30
0.0
 10
628.879606
 20
181.197980
 30
0.0
 10
617.965311
 20
181.197980
 30
0.0
 10
612.508164
 20
190.650036
 30
0.0
 10
617.965311
 20
200.102093
 30
0.0
 10
628.879606
 20
200.102093
 30
0.0
 10
634.336754
 20
190.650036
 30
0.0
  0
LWPOLYLINE
  5
18f
100
AcDbEntity
  8
0
 62
7
100
AcDbPolyline
 90
9
 70
1
 10
681.661238
 20
204.032735
 30
0.0
 10
675.244948
 20
192.919394
 30
0.0
 10
664.131606
 20
186.503103
 30
0.0
 10
651.299024
 20
186.503103
 30
0.0
 10
640.185683
 20
192.919394
 30
0.0
 10
633.769392
 20
204.032735
 30
0.0
 10
633.769392
 20
211.000000
 30
0.0
 10
681.661238
 20
211.000000
 30
0.0
 10
681.661238
 20
204.032735
 30
0.0
  0
LWPOLYLINE
  5
190
100
AcDbEntity
  8
0
 62
7
100
AcDbPolyline
 90
5
 70
1
 10
680.526560
 20
179.232658
 30
0.0
 10
673.343860
 20
175.085725
 30
0.0
 10
669.196927
 20
182.268424
 30
0.0
 10
676.379626
 20
186.415358
 30
0.0
 10
680.526560
 20
179.232658
 30
0.0
  0
LWPOLYLINE
  5
191
100
AcDbEntity
  8
0
 62
7
100
AcDbPolyline
 90
5
 70
1
 10
642.086770
 20
175.085725
 30
0.0
 10
634.904071
 20
179.232658
 30
0.0
 10
639.051004
 20
186.415358
 30
0.0
 10
646.233703
 20
182.268424
 30
0.0
 10
642.086770
 20
175.085725
 30
0.0
  0
LWPOLYLINE
  5
192
100
AcDbEntity
  8
0
 62
7
100
AcDbPolyline
 90
5
 70
1
 10
696.155105
 20
206.302093
 30
0.0
 10
687.861238
 20
206.302093
 30
0.0
 10
687.861238
 20
211.000000
 30
0.0
 10
696.155105
 20
211.000000
 30
0.0
 10
696.155105
 20
206.302093
 30
0.0
  0
LWPOLYLINE
  5
193
100
AcDbEntity
  8
0
 62
7
100
AcDbPolyline
 90
7
 70
1
 10
668.629610
 20
170.851046
 30
0.0
 10
663.172463
 20
161.398990
 30
0.0
 10
652.258168
 20
161.398990
 30
0.0
 10
646.801020
 20
170.851046
 30
0.0
 10
652.258168
 20
180.303103
 30
0.0
 10
663.172463
 20
180.303103
 30
0.0
 10
668.629610
 20
170.851046
 30
0.0
  0
LWPOLYLINE
  5
194
100
AcDbEntity
  8
0
 62
7
100
AcDbPolyline
 90
7
 70
1
 10
702.922466
 20
190.650036
 30
0.0
 10
697.465319
 20
181.197980
 30
0.0
 10
686.551024
 20
181.197980
 30
0.0
 10
681.093877
 20
190.650036
 30
0.0
 10
686.551024
 20
200.102093
 30
0.0
 10
697.465319
 20
200.102093
 30
0.0
 10
702.922466
 20
190.650036
 30
0.0
  0
LWPOLYLINE
  5
195
100
AcDbEntity
  8
0
 62
7
100
AcDbPolyline
 90
9
 70
1
 10
750.246951
 20
204.032735
 30
0.0
 10
743.830660
 20
192.919394
 30
0.0
 10
732.717319
 20
186.503103
 30
0.0
 10
719.884737
 20
186.503103
 30
0.0
 10
708.771396
 20
192.919394
 30
0.0
 10
702.355105
 20
204.032735
 30
0.0
 10
702.355105
 20
211.000000
 30
0.0
 10
750.246951
 20
211.000000
 30
0.0
 10
750.246951
 20
204.032735
 30
0.0
  0
LWPOLYLINE
  5
196
100
AcDbEntity
  8
0
 62
7
100
AcDbPolyline
 90
5
 70
1
 10
749.112272
 20
179.232658
 30
0.0
 10
741.929573
 20
175.085725
 30
0.0
 10
737.782640
 20
182.268424
 30
0.0
 10
744.965339
 20
186.415358
 30
0.0
 10
749.112272
 20
179.232658
 30
0.0
  0
LWPOLYLINE
  5
197
100
AcDbEntity
  8
0
 62
7
100
AcDbPolyline
 90
5
 70
1
 10
710.672483
 20
175.085725
 30
0.0
 10
703.489784
 20
179.232658
 30
0.0
 10
707.636717
 20
186.415358
 30
0.0
 10
714.819416
 20
182.268424
 30
0.0
 10
710.672483
 20
175.085725
 30
0.0
  0
LWPOLYLINE
  5
198
100
AcDbEntity
  8
0
 62
7
100
AcDbPolyline
 90
5
 70
1
 10
764.740818
 20
206.302093
 30
0.0
 10
756.446951
 20
206.302093
 30
0.0
 10
756.446951
 20
211.000000
 30
0.0
 10
764.740818
 20
211.000000
 30
0.0
 10
764.740818
 20
206.302093
 30
0.0
  0
LWPOLYLINE
  5
199
100
AcDbEntity
  8
0
 62
7
100
AcDbPolyline
 90
7
 70
1
 10
737.215323
 20
170.851046
 30
0.0
 10
731.758175
 20
161.398990
 30
0.0
 10
720.843881
 20
161.398990
 30
0.0
 10
715.386733
 20
170.851046
 30
0.0
 10
720.843881
 20
180.303103
 30
0.0
 10
731.758175
 20
180.303103
 30
0.0
 10
737.215323
 20
170.851046
 30
0.0
  0
LWPOLYLINE
  5
19a
100
AcDbEntity
  8
0
 62
7
100
AcDbPolyline
 90
7
 70
1
 10
771.508179
 20
190.650036
 30
0.0
 10
766.051032
 20
181.197980
 30
0.0
 10
755.136737
 20
181.197980
 30
0.0
 10
749.679590
 20
190.650036
 30
0.0
 10
755.136737
 20
200.102093
 30
0.0
 10
766.051032
 20
200.102093
 30
0.0
 10
771.508179
 20
190.650036
 30
0.0
  0
LWPOLYLINE
  5
19b
100
AcDbEntity
  8
0
 62
7
100
AcDbPolyline
 90
9
 70
1
 10
818.832664
 20
204.032735
 30
0.0
 10
812.416373
 20
192.919394
 30
0.0
 10
801.303032
 20
186.503103
 30
0.0
 10
788.470450
 20
186.503103
 30
0.0
 10
777.357108
 20
192.919394
 30
0.0
 10
770.940818
 20
204.032735
 30
0.0
 10
770.940818
 20
211.000000
 30
0.0
 10
818.832664
 20
211.000000
 30
0.0
 10
818.832664
 20
204.032735
 30
0.0
  0
LWPOLYLINE
  5
19c
100
AcDbEntity
  8
0
 62
7
100
AcDbPolyline
 90
5
 70
1
 10
817.697985
 20
179.232658
 30
0.0
 10
810.515286
 20
175.085725
 30
0.0
 10
806.368353
 20
182.268424
 30
0.0
 10
813.551052
 20
186.415358
 30
0.0
 10
817.697985
 20
179.232658
 30
0.0
  0
LWPOLYLINE
  5
19d
100
AcDbEntity
  8
0
 62
7
100
AcDbPolyline
 90
5
 70
1
 10
779.258195
 20
175.085725
 30
0.0
 10
772.075496
 20
179.232658
 30
0.0
 10
776.222430
 20
186.415358
 30
0.0
 10
783.405129
 20
182.268424
 30
0.0
 10
779.258195
 20
175.085725
 30
0.0
  0
LWPOLYLINE
  5
19e
100
AcDbEntity
  8
0
 62
7
100
AcDbPolyline
 90
5
 70
1
 10
833.326530
 20
206.302093
 30
0.0
 10
825.032664
 20
206.302093
 30
0.0
 10
825.032664
 20
211.000000
 30
0.0
 10
833.326530
 20
211.000000
 30
0.0
 10
833.326530
 20
206.302093
 30
0.0
  0
LWPOLYLINE
  5
19f
100
AcDbEntity
  8
0
 62
7
100
AcDbPolyline
 90
7
 70
1
 10
805.801036
 20
170.851046
 30
0.0
 10
800.343888
 20
161.398990
 30
0.0
 10
789.429593
 20
161.398990
 30
0.0
 10
783.972446
 20
170.851046
 30
0.0
 10
789.429593
 20
180.303103
 30
0.0
 10
800.343888
 20
180.303103
 30
0.0
 10
805.801036
 20
170.851046
 30
0.0
  0
LWPOLYLINE
  5
1a0
100
AcDbEntity
  8
0
 62
7
100
AcDbPolyline
 90
7
 70
1
 10
840.093892
 20
190.650036
 30
0.0
 10
834.636745
 20
181.197980
 30
0.0
 10
823.722450
 20
181.197980
 30
0.0
 10
818.265302
 20
190.650036
 30
0.0
 10
823.722450
 20
200.102093
 30
0.0
 10
834.636745
 20
200.102093
 30
0.0
 10
840.093892
 20
190.650036
 30
0.0
  0
LWPOLYLINE
  5
1a1
100
AcDbEntity
  8
0
 62
7
100
AcDbPolyline
 90
9
 70
1
 10
887.418377
 20
204.032735
 30
0.0
 10
881.002086
 20
192.919394
 30
0.0
 10
869.888744
 20
186.503103
 30
0.0
 10
857.056163
 20
186.503103
 30
0.0
 10
845.942821
 20
192.919394
 30
0.0
 10
839.526530
 20
204.032735
 30
0.0
 10
839.526530
 20
211.000000
 30
0.0
 10
887.418377
 20
211.000000
 30
0.0
 10
887.418377
 20
204.032735
 30
0.0
  0
LWPOLYLINE
  5
1a2
100
AcDbEntity
  8
0
 62
7
100
AcDbPolyline
 90
5
 70
1
 10
886.283698
 20
179.232658
 30
0.0
 10
879.100999
 20
175.085725
 30
0.0
 10
874.954066
 20
182.268424
 30
0.0
 10
882.136765
 20
186.415358
 30
0.0
 10
886.283698
 20
179.232658
 30
0.0
  0
LWPOLYLINE
  5
1a3
100
AcDbEntity
  8
0
 62
7
100
AcDbPolyline
 90
5
 70
1
 10
847.843908
 20
175.085725
 30
0.0
 10
840.661209
 20
179.232658
 30
0.0
 10
844.808142
 20
186.415358
 30
0.0
 10
851.990842
 20
182.268424
 30
0.0
 10
847.843908
 20
175.085725
 30
0.0
  0
LWPOLYLINE
  5
1a4
100
AcDbEntity
  8
0
 62
7
100
AcDbPolyline
 90
5
 70
1
 10
901.912243
 20
206.302093
 30
0.0
 10
893.618377
 20
206.302093
 30
0.0
 10
893.618377
 20
211.000000
 30
0.0
 10
901.912243
 20
211.000000
 30
0.0
 10
901.912243
 20
206.302093
 30
0.0
  0
LWPOLYLINE
  5
1a5
100
AcDbEntity
  8
0
 62
7
100
AcDbPolyline
 90
7
 70
1
 10
874.386748
 20
170.851046
 30
0.0
 10
868.929601
 20
161.398990
 30
0.0
 10
858.015306
 20
161.398990
 30
0.0
 10
852.558159
 20
170.851046
 30
0.0
 10
858.015306
 20
180.303103
 30
0.0
 10
868.929601
 20
180.303103
 30
0.0
 10
874.386748
 20
170.851046
 30
0.0
  0
LWPOLYLINE
  5
1a6
100
AcDbEntity
  8
0
 62
7
100
AcDbPolyline
 90
7
 70
1
 10
908.679605
 20
190.650036
 30
0.0
 10
903.222457
 20
181.197980
 30
0.0
 10
892.308163
 20
181.197980
 30
0.0
 10
886.851015
 20
190.650036
 30
0.0
 10
892.308163
 20
200.102093
 30
0.0
 10
903.222457
 20
200.102093
 30
0.0
 10
908.679605
 20
190.650036
 30
0.0
  0
LWPOLYLINE
  5
1a7
100
AcDbEntity
  8
0
 62
7
100
AcDbPolyline
 90
9
 70
1
 10
956.004090
 20
204.032735
 30
0.0
 10
949.587799
 20
192.919394
 30
0.0
 10
938.474457
 20
186.503103
 30
0.0
 10
925.641876
 20
186.503103
 30
0.0
 10
914.528534
 20
192.919394
 30
0.0
 10
908.112243
 20
204.032735
 30
0.0
 10
908.112243
 20
211.000000
 30
0.0
 10
956.004090
 20
211.000000
 30
0.0
 10
956.004090
 20
204.032735
 30
0.0
  0
LWPOLYLINE
  5
1a8
100
AcDbEntity
  8
0
 62
7
100
AcDbPolyline
 90
5
 70
1
 10
954.869411
 20
179.232658
 30
0.0
 10
947.686712
 20
175.085725
 30
0.0
 10
943.539778
 20
182.268424
 30
0.0
 10
950.722477
 20
186.415358
 30
0.0
 10
954.869411
 20
179.232658
 30
0.0
  0
LWPOLYLINE
  5
1a9
100
AcDbEntity
  8
0
 62
7
100
AcDbPolyline
 90
5
 70
1
 10
916.429621
 20
175.085725
 30
0.0
 10
909.246922
 20
179.232658
 30
0.0
 10
913.393855
 20
186.415358
 30
0.0
 10
920.576554
 20
182.268424
 30
0.0
 10
916.429621
 20
175.085725
 30
0.0
  0
LWPOLYLINE
  5
1aa
100
AcDbEntity
  8
0
 62
7
100
AcDbPolyline
 90
5
 70
1
 10
970.497956
 20
206.302093
 30
0.0
 10
962.204090
 20
206.302093
 30
0.0
 10
962.204090
 20
211.000000
 30
0.0
 10
970.497956
 20
211.000000
 30
0.0
 10
970.497956
 20
206.302093
 30
0.0
  0
LWPOLYLINE
  5
1ab
100
AcDbEntity
  8
0
 62
7
100
AcDbPolyline
 90
7
 70
1
 10
942.972461
 20
170.851046
 30
0.0
 10
937.515314
 20
161.398990
 30
0.0
 10
926.601019
 20
161.398990
 30
0.0
 10
921.143872
 20
170.851046
 30
0.0
 10
926.601019
 20
180.303103
 30
0.0
 10
937.515314
 20
180.303103
 30
0.0
 10
942.972461
 20
170.851046
 30
0.0
  0
LWPOLYLINE
  5
1ac
100
AcDbEntity
  8
0
 62
7
100
AcDbPolyline
 90
7
 70
1
 10
977.265318
 20
190.650036
 30
0.0
 10
971.808170
 20
181.197980
 30
0.0
 10
960.893875
 20
181.197980
 30
0.0
 10
955.436728
 20
190.650036
 30
0.0
 10
960.893875
 20
200.102093
 30
0.0
 10
971.808170
 20
200.102093
 30
0.0
 10
977.265318
 20
190.650036
 30
0.0
  0
LWPOLYLINE
  5
1ad
100
AcDbEntity
  8
0
 62
7
100
AcDbPolyline
 90
9
 70
1
 10
1024.589802
 20
204.032735
 30
0.0
 10
1018.173512
 20
192.919394
 30
0.0
 10
1007.060170
 20
186.503103
 30
0.0
 10
994.227588
 20
186.503103
 30
0.0
 10
983.114247
 20
192.919394
 30
0.0
 10
976.697956
 20
204.032735
 30
0.0
 10
976.697956
 20
211.000000
 30
0.0
 10
1024.589802
 20
211.000000
 30
0.0
 10
1024.589802
 20
204.032735
 30
0.0
  0
LWPOLYLINE
  5
1ae
100
AcDbEntity
  8
0
 62
7
100
AcDbPolyline
 90
5
 70
1
 10
1023.455124
 20
179.232658
 30
0.0
 10
1016.272424
 20
175.085725
 30
0.0
 10
1012.125491
 20
182.268424
 30
0.0
 10
1019.308190
 20
186.415358
 30
0.0
 10
1023.455124
 20
179.232658
 30
0.0
  0
LWPOLYLINE
  5
1af
100
AcDbEntity
  8
0
 62
7
100
AcDbPolyline
 90
5
 70
1
 10
985.015334
 20
175.085725
 30
0.0
 10
977.832635
 20
179.232658
 30
0.0
 10
981.979568
 20
186.415358
 30
0.0
 10
989.162267
 20
182.268424
 30
0.0
 10
985.015334
 20
175.085725
 30
0.0
  0
LWPOLYLINE
  5
1b0
100
AcDbEntity
  8
0
 62
7
100
AcDbPolyline
 90
7
 70
1
 10
1011.558174
 20
170.851046
 30
0.0
 10
1006.101027
 20
161.398990
 30
0.0
 10
995.186732
 20
161.398990
 30
0.0
 10
989.729584
 20
170.851046
 30
0.0
 10
995.186732
 20
180.303103
 30
0.0
 10
1006.101027
 20
180.303103
 30
0.0
 10
1011.558174
 20
170.851046
 30
0.0
  0
LWPOLYLINE
  5
1b1
100
AcDbEntity
  8
0
 62
7
100
AcDbPolyline
 90
6
 70
1
 10
1029.479588
 20
181.197980
 30
0.0
 10
1024.022441
 20
190.650036
 30
0.0
 10
1029.479588
 20
200.102093
 30
0.0
 10
1030.500002
 20
200.102093
 30
0.0
 10
1030.500002
 20
181.197980
 30
0.0
 10
1029.479588
 20
181.197980
 30
0.0
  0
LWPOLYLINE
  5
1b2
100
AcDbEntity
  8
0
 62
7
100
AcDbPolyline
 90
5
 70
1
 10
147.500002
 20
65.000000
 30
0.0
 10
1052.500002
 20
65.000000
 30
0.0
 10
1052.500002
 20
235.000000
 30
0.0
 10
147.500002
 20
235.000000
 30
0.0
 10
147.500002
 20
65.000000
 30
0.0
  0
ENDSEC
  0
SECTION
  2
OBJECTS
  0
DICTIONARY
  5
C
330
0
100
AcDbDictionary
  3
ACAD_GROUP
350
D
  3
ACAD_MLINESTYLE
350
17
  0
DICTIONARY
  5
D
330
C
100
AcDbDictionary
  0
DICTIONARY
  5
1A
330
C
100
AcDbDictionary
  0
DICTIONARY
  5
17
330
C
100
AcDbDictionary
  3
STANDARD
350
18
  0
DICTIONARY
  5
19
330
C
100
AcDbDictionary
  0
ENDSEC
  0
EOF
