<?xml version="1.0" encoding="UTF-8" standalone="no"?>
<svg
   height="300mm"
   version="1.1"
   viewBox="0 0 1200 300"
   width="1200mm"
   id="svg179"
   sodipodi:docname="tabica_2.7.svg"
   inkscape:version="1.4.2 (1:1.4.2+202505120737+ebf0e940d0)"
   xmlns:inkscape="http://www.inkscape.org/namespaces/inkscape"
   xmlns:sodipodi="http://sodipodi.sourceforge.net/DTD/sodipodi-0.dtd"
   xmlns="http://www.w3.org/2000/svg"
   xmlns:svg="http://www.w3.org/2000/svg">
  <sodipodi:namedview
     id="namedview179"
     pagecolor="#ffffff"
     bordercolor="#666666"
     borderopacity="1.0"
     inkscape:showpageshadow="2"
     inkscape:pageopacity="0.0"
     inkscape:pagecheckerboard="0"
     inkscape:deskcolor="#d1d1d1"
     inkscape:document-units="mm"
     showgrid="false"
     inkscape:zoom="0.18100829"
     inkscape:cx="2494.3609"
     inkscape:cy="408.82106"
     inkscape:window-width="1920"
     inkscape:window-height="1011"
     inkscape:window-x="0"
     inkscape:window-y="0"
     inkscape:window-maximized="1"
     inkscape:current-layer="svg179" />
  <defs
     id="defs1" />
  <g
     fill="none"
     stroke="blue"
     stroke-width="0.5"
     transform="translate(40.44389772226225,65.0)"
     id="g179"
     style="vector-effect:non-scaling-stroke;-inkscape-stroke:hairline;stroke-width:0.26458333;stroke-dasharray:none">
    <path
       d="M 161.1173487319519,136.92862224298315 L 161.1173487319519,144.0 L 129.05610227773775,144.0 L 129.05610227773775,120.379926774359 L 130.75513482952388,119.39898987322334 L 143.58771636219208,119.39898987322334 L 154.7010579656178,125.81528063955746 L 161.1173487319519,136.92862224298315 Z"
       id="path1"
       style="vector-effect:non-scaling-stroke;-inkscape-stroke:hairline;stroke-width:0.26458333;stroke-dasharray:none" />
    <path
       d="M 175.61121525769306,144.0 L 167.31734873195188,144.0 L 167.31734873195188,139.19797974644666 L 175.61121525769306,139.19797974644666 L 175.61121525769306,144.0 Z"
       id="path2"
       style="vector-effect:non-scaling-stroke;-inkscape-stroke:hairline;stroke-width:0.26458333;stroke-dasharray:none" />
    <path
       d="M 229.7030615298809,136.92862224298315 L 229.7030615298809,144.0 L 181.81121525769308,144.0 L 181.81121525769308,136.92862224298315 L 188.22750602402718,125.81528063955746 L 199.3408476274529,119.39898987322334 L 212.1734291601211,119.39898987322334 L 223.2867707635468,125.81528063955746 L 229.7030615298809,136.92862224298315 Z"
       id="path3"
       style="vector-effect:non-scaling-stroke;-inkscape-stroke:hairline;stroke-width:0.26458333;stroke-dasharray:none" />
    <path
       d="M 244.19692805562207,144.0 L 235.9030615298809,144.0 L 235.9030615298809,139.19797974644666 L 244.19692805562207,139.19797974644666 L 244.19692805562207,144.0 Z"
       id="path4"
       style="vector-effect:non-scaling-stroke;-inkscape-stroke:hairline;stroke-width:0.26458333;stroke-dasharray:none" />
    <path
       d="M 298.28877432780985,136.92862224298315 L 298.28877432780985,144.0 L 250.39692805562206,144.0 L 250.39692805562206,136.92862224298315 L 256.8132188219562,125.81528063955743 L 267.92656042538187,119.39898987322334 L 280.75914195805007,119.39898987322334 L 291.87248356147575,125.81528063955744 L 298.28877432780985,136.92862224298315 Z"
       id="path5"
       style="vector-effect:non-scaling-stroke;-inkscape-stroke:hairline;stroke-width:0.26458333;stroke-dasharray:none" />
    <path
       d="M 312.782640853551,144.0 L 304.4887743278099,144.0 L 304.4887743278099,139.19797974644666 L 312.782640853551,139.19797974644666 L 312.782640853551,144.0 Z"
       id="path6"
       style="vector-effect:non-scaling-stroke;-inkscape-stroke:hairline;stroke-width:0.26458333;stroke-dasharray:none" />
    <path
       d="M 366.8744871257388,136.92862224298315 L 366.8744871257388,144.0 L 318.98264085355106,144.0 L 318.98264085355106,136.92862224298315 L 325.39893161988516,125.81528063955743 L 336.51227322331084,119.39898987322334 L 349.34485475597904,119.39898987322334 L 360.4581963594047,125.81528063955744 L 366.8744871257388,136.92862224298315 Z"
       id="path7"
       style="vector-effect:non-scaling-stroke;-inkscape-stroke:hairline;stroke-width:0.26458333;stroke-dasharray:none" />
    <path
       d="M 381.36835365148,144.0 L 373.07448712573887,144.0 L 373.07448712573887,139.19797974644666 L 381.36835365148,139.19797974644666 L 381.36835365148,144.0 Z"
       id="path8"
       style="vector-effect:non-scaling-stroke;-inkscape-stroke:hairline;stroke-width:0.26458333;stroke-dasharray:none" />
    <path
       d="M 435.46019992366786,136.92862224298315 L 435.46019992366786,144.0 L 387.5683536514801,144.0 L 387.5683536514801,136.92862224298315 L 393.9846444178142,125.81528063955743 L 405.0979860212399,119.39898987322334 L 417.9305675539081,119.39898987322334 L 429.04390915733376,125.81528063955744 L 435.46019992366786,136.92862224298315 Z"
       id="path9"
       style="vector-effect:non-scaling-stroke;-inkscape-stroke:hairline;stroke-width:0.26458333;stroke-dasharray:none" />
    <path
       d="M 449.954066449409,144.0 L 441.6601999236679,144.0 L 441.6601999236679,139.19797974644666 L 449.954066449409,139.19797974644666 L 449.954066449409,144.0 Z"
       id="path10"
       style="vector-effect:non-scaling-stroke;-inkscape-stroke:hairline;stroke-width:0.26458333;stroke-dasharray:none" />
    <path
       d="M 504.04591272159684,136.92862224298315 L 504.04591272159684,144.0 L 456.1540664494091,144.0 L 456.1540664494091,136.92862224298315 L 462.5703572157432,125.81528063955743 L 473.68369881916885,119.39898987322334 L 486.51628035183705,119.39898987322334 L 497.62962195526273,125.81528063955744 L 504.04591272159684,136.92862224298315 Z"
       id="path11"
       style="vector-effect:non-scaling-stroke;-inkscape-stroke:hairline;stroke-width:0.26458333;stroke-dasharray:none" />
    <path
       d="M 518.5397792473381,144.0 L 510.2459127215969,144.0 L 510.2459127215969,139.19797974644666 L 518.5397792473381,139.19797974644666 L 518.5397792473381,144.0 Z"
       id="path12"
       style="vector-effect:non-scaling-stroke;-inkscape-stroke:hairline;stroke-width:0.26458333;stroke-dasharray:none" />
    <path
       d="M 572.6316255195259,136.92862224298315 L 572.6316255195258,144.0 L 524.739779247338,144.0 L 524.739779247338,136.92862224298315 L 531.1560700136721,125.81528063955739 L 542.2694116170978,119.39898987322334 L 555.101993149766,119.39898987322334 L 566.2153347531918,125.81528063955739 L 572.6316255195259,136.92862224298315 Z"
       id="path13"
       style="vector-effect:non-scaling-stroke;-inkscape-stroke:hairline;stroke-width:0.26458333;stroke-dasharray:none" />
    <path
       d="M 587.1254920452669,144.0 L 578.8316255195259,144.0 L 578.8316255195259,139.19797974644666 L 587.125492045267,139.19797974644666 L 587.1254920452669,144.0 Z"
       id="path14"
       style="vector-effect:non-scaling-stroke;-inkscape-stroke:hairline;stroke-width:0.26458333;stroke-dasharray:none" />
    <path
       d="M 641.2173383174548,136.92862224298315 L 641.2173383174548,144.0 L 593.325492045267,144.0 L 593.325492045267,136.92862224298315 L 599.7417828116011,125.81528063955739 L 610.8551244150268,119.39898987322334 L 623.687705947695,119.39898987322334 L 634.8010475511207,125.81528063955739 L 641.2173383174548,136.92862224298315 Z"
       id="path15"
       style="vector-effect:non-scaling-stroke;-inkscape-stroke:hairline;stroke-width:0.26458333;stroke-dasharray:none" />
    <path
       d="M 655.711204843196,144.0 L 647.4173383174549,144.0 L 647.4173383174549,139.19797974644666 L 655.711204843196,139.19797974644666 L 655.711204843196,144.0 Z"
       id="path16"
       style="vector-effect:non-scaling-stroke;-inkscape-stroke:hairline;stroke-width:0.26458333;stroke-dasharray:none" />
    <path
       d="M 709.8030511153838,136.92862224298315 L 709.8030511153837,144.0 L 661.911204843196,144.0 L 661.911204843196,136.92862224298315 L 668.32749560953,125.81528063955739 L 679.4408372129558,119.39898987322334 L 692.273418745624,119.39898987322334 L 703.3867603490497,125.81528063955739 L 709.8030511153838,136.92862224298315 Z"
       id="path17"
       style="vector-effect:non-scaling-stroke;-inkscape-stroke:hairline;stroke-width:0.26458333;stroke-dasharray:none" />
    <path
       d="M 724.2969176411249,144.0 L 716.0030511153839,144.0 L 716.0030511153839,139.19797974644666 L 724.296917641125,139.19797974644666 L 724.2969176411249,144.0 Z"
       id="path18"
       style="vector-effect:non-scaling-stroke;-inkscape-stroke:hairline;stroke-width:0.26458333;stroke-dasharray:none" />
    <path
       d="M 778.3887639133128,136.92862224298315 L 778.3887639133128,144.0 L 730.4969176411249,144.0 L 730.4969176411249,136.92862224298315 L 736.913208407459,125.81528063955739 L 748.0265500108848,119.39898987322334 L 760.859131543553,119.39898987322334 L 771.9724731469787,125.81528063955739 L 778.3887639133128,136.92862224298315 Z"
       id="path19"
       style="vector-effect:non-scaling-stroke;-inkscape-stroke:hairline;stroke-width:0.26458333;stroke-dasharray:none" />
    <path
       d="M 792.882630439054,144.0 L 784.5887639133128,144.0 L 784.5887639133128,139.19797974644666 L 792.882630439054,139.19797974644666 L 792.882630439054,144.0 Z"
       id="path20"
       style="vector-effect:non-scaling-stroke;-inkscape-stroke:hairline;stroke-width:0.26458333;stroke-dasharray:none" />
    <path
       d="M 846.9744767112419,136.92862224298315 L 846.9744767112419,144.0 L 799.082630439054,144.0 L 799.082630439054,136.92862224298315 L 805.4989212053881,125.81528063955739 L 816.6122628088139,119.39898987322334 L 829.444844341482,119.39898987322334 L 840.5581859449078,125.81528063955739 L 846.9744767112419,136.92862224298315 Z"
       id="path21"
       style="vector-effect:non-scaling-stroke;-inkscape-stroke:hairline;stroke-width:0.26458333;stroke-dasharray:none" />
    <path
       d="M 861.4683432369831,144.0 L 853.1744767112419,144.0 L 853.1744767112419,139.19797974644666 L 861.4683432369831,139.19797974644666 L 861.4683432369831,144.0 Z"
       id="path22"
       style="vector-effect:non-scaling-stroke;-inkscape-stroke:hairline;stroke-width:0.26458333;stroke-dasharray:none" />
    <path
       d="M 915.5601895091709,136.92862224298315 L 915.5601895091708,144.0 L 867.668343236983,144.0 L 867.668343236983,136.92862224298315 L 874.0846340033171,125.81528063955739 L 885.1979756067428,119.39898987322334 L 898.030557139411,119.39898987322334 L 909.1438987428368,125.81528063955739 L 915.5601895091709,136.92862224298315 Z"
       id="path23"
       style="vector-effect:non-scaling-stroke;-inkscape-stroke:hairline;stroke-width:0.26458333;stroke-dasharray:none" />
    <path
       d="M 930.0540560349119,144.0 L 921.7601895091709,144.0 L 921.7601895091709,139.19797974644666 L 930.054056034912,139.19797974644666 L 930.0540560349119,144.0 Z"
       id="path24"
       style="vector-effect:non-scaling-stroke;-inkscape-stroke:hairline;stroke-width:0.26458333;stroke-dasharray:none" />
    <path
       d="M 984.1459023070998,136.92862224298315 L 984.1459023070998,144.0 L 936.254056034912,144.0 L 936.254056034912,136.92862224298315 L 942.6703468012461,125.81528063955739 L 953.7836884046718,119.39898987322334 L 966.61626993734,119.39898987322334 L 977.7296115407657,125.81528063955739 L 984.1459023070998,136.92862224298315 Z"
       id="path25"
       style="vector-effect:non-scaling-stroke;-inkscape-stroke:hairline;stroke-width:0.26458333;stroke-dasharray:none" />
    <path
       d="M 141.31835885872857,79.80101012677667 L 141.31835885872857,88.09487665251784 L 133.0244923329874,88.09487665251783 L 133.0244923329874,79.80101012677667 L 141.31835885872857,79.80101012677667 Z"
       id="path26"
       style="vector-effect:non-scaling-stroke;-inkscape-stroke:hairline;stroke-width:0.26458333;stroke-dasharray:none" />
    <path
       d="M 142.6285730242407,113.19898987322335 L 131.71427816747524,113.19898987322334 L 129.05610227773775,108.59489417674341 L 129.05610227773775,98.89897234899775 L 131.71427816747521,94.29487665251784 L 142.62857302424072,94.29487665251784 L 148.08572045262346,103.74693326287058 L 142.6285730242407,113.19898987322335 Z"
       id="path27"
       style="vector-effect:non-scaling-stroke;-inkscape-stroke:hairline;stroke-width:0.26458333;stroke-dasharray:none" />
    <path
       d="M 188.99391436458228,66.41831101988745 L 195.41020513091638,77.53165262331316 L 195.41020513091638,90.36423415598138 L 188.99391436458228,101.47757575940706 L 177.88057276115654,107.89386652574117 L 165.04799122848837,107.89386652574117 L 153.93464962506266,101.47757575940705 L 147.51835885872856,90.36423415598135 L 147.51835885872856,77.53165262331314 L 153.93464962506266,66.41831101988745 L 165.04799122848837,60.00202025355334 L 177.88057276115657,60.00202025355334 L 188.99391436458228,66.41831101988745 Z"
       id="path28"
       style="vector-effect:non-scaling-stroke;-inkscape-stroke:hairline;stroke-width:0.26458333;stroke-dasharray:none" />
    <path
       d="M 194.2755263791846,115.16431112149158 L 187.09282727229538,119.31124438436217 L 182.94589400942482,112.12854527747294 L 190.12859311631405,107.98161201460235 L 194.2755263791846,115.16431112149158 Z"
       id="path29"
       style="vector-effect:non-scaling-stroke;-inkscape-stroke:hairline;stroke-width:0.26458333;stroke-dasharray:none" />
    <path
       d="M 155.83573671734956,119.31124438436217 L 148.65303761046033,115.16431112149158 L 152.7999708733309,107.98161201460235 L 159.98266998022012,112.12854527747294 L 155.83573671734956,119.31124438436217 Z"
       id="path30"
       style="vector-effect:non-scaling-stroke;-inkscape-stroke:hairline;stroke-width:0.26458333;stroke-dasharray:none" />
    <path
       d="M 209.90407165665755,79.80101012677667 L 209.90407165665755,88.09487665251784 L 201.61020513091637,88.09487665251783 L 201.61020513091637,79.80101012677667 L 209.90407165665755,79.80101012677667 Z"
       id="path31"
       style="vector-effect:non-scaling-stroke;-inkscape-stroke:hairline;stroke-width:0.26458333;stroke-dasharray:none" />
    <path
       d="M 182.37857685158798,123.54592313609392 L 176.9214294232052,132.99797974644667 L 166.00713456643973,132.99797974644667 L 160.54998713805696,123.54592313609392 L 166.00713456643973,114.09386652574116 L 176.9214294232052,114.09386652574116 L 182.37857685158798,123.54592313609392 Z"
       id="path32"
       style="vector-effect:non-scaling-stroke;-inkscape-stroke:hairline;stroke-width:0.26458333;stroke-dasharray:none" />
    <path
       d="M 216.67143325055247,103.74693326287058 L 211.21428582216967,113.19898987322335 L 200.29999096540422,113.19898987322334 L 194.84284353702145,103.74693326287058 L 200.2999909654042,94.29487665251784 L 211.21428582216973,94.29487665251784 L 216.67143325055247,103.74693326287058 Z"
       id="path33"
       style="vector-effect:non-scaling-stroke;-inkscape-stroke:hairline;stroke-width:0.26458333;stroke-dasharray:none" />
    <path
       d="M 257.57962716251126,66.41831101988743 L 263.99591792884536,77.53165262331316 L 263.99591792884536,90.36423415598138 L 257.57962716251126,101.47757575940707 L 246.46628555908555,107.89386652574117 L 233.63370402641738,107.89386652574117 L 222.52036242299167,101.47757575940705 L 216.10407165665757,90.36423415598135 L 216.10407165665757,77.53165262331314 L 222.52036242299167,66.41831101988745 L 233.63370402641738,60.00202025355334 L 246.46628555908558,60.00202025355334 L 257.57962716251126,66.41831101988743 Z"
       id="path34"
       style="vector-effect:non-scaling-stroke;-inkscape-stroke:hairline;stroke-width:0.26458333;stroke-dasharray:none" />
    <path
       d="M 262.8612391771136,115.16431112149158 L 255.67854007022441,119.31124438436215 L 251.53160680735382,112.12854527747294 L 258.714305914243,107.98161201460236 L 262.8612391771136,115.16431112149158 Z"
       id="path35"
       style="vector-effect:non-scaling-stroke;-inkscape-stroke:hairline;stroke-width:0.26458333;stroke-dasharray:none" />
    <path
       d="M 224.42144951527857,119.31124438436217 L 217.23875040838934,115.16431112149158 L 221.3856836712599,107.98161201460235 L 228.56838277814913,112.12854527747294 L 224.42144951527857,119.31124438436217 Z"
       id="path36"
       style="vector-effect:non-scaling-stroke;-inkscape-stroke:hairline;stroke-width:0.26458333;stroke-dasharray:none" />
    <path
       d="M 278.4897844545865,79.80101012677667 L 278.4897844545865,88.09487665251784 L 270.1959179288454,88.09487665251783 L 270.1959179288454,79.80101012677667 L 278.4897844545865,79.80101012677667 Z"
       id="path37"
       style="vector-effect:non-scaling-stroke;-inkscape-stroke:hairline;stroke-width:0.26458333;stroke-dasharray:none" />
    <path
       d="M 250.96428964951699,123.54592313609392 L 245.50714222113422,132.99797974644667 L 234.59284736436874,132.99797974644667 L 229.13569993598597,123.54592313609392 L 234.59284736436874,114.09386652574116 L 245.50714222113422,114.09386652574116 L 250.96428964951699,123.54592313609392 Z"
       id="path38"
       style="vector-effect:non-scaling-stroke;-inkscape-stroke:hairline;stroke-width:0.26458333;stroke-dasharray:none" />
    <path
       d="M 285.25714604848145,103.74693326287058 L 279.7999986200987,113.19898987322335 L 268.88570376333325,113.19898987322334 L 263.4285563349505,103.74693326287058 L 268.88570376333325,94.29487665251784 L 279.7999986200987,94.29487665251784 L 285.25714604848145,103.74693326287058 Z"
       id="path39"
       style="vector-effect:non-scaling-stroke;-inkscape-stroke:hairline;stroke-width:0.26458333;stroke-dasharray:none" />
    <path
       d="M 326.16533996044024,66.41831101988743 L 332.58163072677434,77.53165262331316 L 332.58163072677434,90.36423415598138 L 326.16533996044024,101.47757575940707 L 315.05199835701455,107.89386652574117 L 302.21941682434635,107.89386652574117 L 291.1060752209207,101.47757575940707 L 284.6897844545866,90.36423415598135 L 284.6897844545866,77.53165262331314 L 291.1060752209207,66.41831101988743 L 302.21941682434635,60.00202025355334 L 315.05199835701455,60.00202025355334 L 326.16533996044024,66.41831101988743 Z"
       id="path40"
       style="vector-effect:non-scaling-stroke;-inkscape-stroke:hairline;stroke-width:0.26458333;stroke-dasharray:none" />
    <path
       d="M 331.44695197504257,115.16431112149158 L 324.2642528681534,119.31124438436215 L 320.11731960528283,112.12854527747292 L 327.300018712172,107.98161201460236 L 331.44695197504257,115.16431112149158 Z"
       id="path41"
       style="vector-effect:non-scaling-stroke;-inkscape-stroke:hairline;stroke-width:0.26458333;stroke-dasharray:none" />
    <path
       d="M 293.0071623132075,119.31124438436215 L 285.82446320631834,115.16431112149158 L 289.9713964691889,107.98161201460238 L 297.1540955760781,112.12854527747294 L 293.0071623132075,119.31124438436215 Z"
       id="path42"
       style="vector-effect:non-scaling-stroke;-inkscape-stroke:hairline;stroke-width:0.26458333;stroke-dasharray:none" />
    <path
       d="M 347.0754972525155,79.80101012677667 L 347.0754972525155,88.09487665251784 L 338.7816307267744,88.09487665251783 L 338.7816307267744,79.80101012677667 L 347.0754972525155,79.80101012677667 Z"
       id="path43"
       style="vector-effect:non-scaling-stroke;-inkscape-stroke:hairline;stroke-width:0.26458333;stroke-dasharray:none" />
    <path
       d="M 319.55000244744593,123.54592313609392 L 314.09285501906317,132.99797974644667 L 303.17856016229774,132.99797974644667 L 297.721412733915,123.54592313609392 L 303.17856016229774,114.09386652574116 L 314.09285501906317,114.09386652574116 L 319.55000244744593,123.54592313609392 Z"
       id="path44"
       style="vector-effect:non-scaling-stroke;-inkscape-stroke:hairline;stroke-width:0.26458333;stroke-dasharray:none" />
    <path
       d="M 353.8428588464104,103.74693326287058 L 348.38571141802765,113.19898987322335 L 337.47141656126223,113.19898987322334 L 332.01426913287946,103.74693326287058 L 337.47141656126223,94.29487665251784 L 348.38571141802765,94.29487665251784 L 353.8428588464104,103.74693326287058 Z"
       id="path45"
       style="vector-effect:non-scaling-stroke;-inkscape-stroke:hairline;stroke-width:0.26458333;stroke-dasharray:none" />
    <path
       d="M 394.7510527583692,66.41831101988743 L 401.1673435247033,77.53165262331316 L 401.1673435247033,90.36423415598138 L 394.7510527583692,101.47757575940707 L 383.63771115494353,107.89386652574117 L 370.80512962227533,107.89386652574117 L 359.69178801884965,101.47757575940707 L 353.27549725251555,90.36423415598135 L 353.27549725251555,77.53165262331314 L 359.69178801884965,66.41831101988743 L 370.80512962227533,60.00202025355334 L 383.63771115494353,60.00202025355334 L 394.7510527583692,66.41831101988743 Z"
       id="path46"
       style="vector-effect:non-scaling-stroke;-inkscape-stroke:hairline;stroke-width:0.26458333;stroke-dasharray:none" />
    <path
       d="M 400.03266477297154,115.16431112149158 L 392.84996566608237,119.31124438436215 L 388.7030324032118,112.12854527747292 L 395.885731510101,107.98161201460236 L 400.03266477297154,115.16431112149158 Z"
       id="path47"
       style="vector-effect:non-scaling-stroke;-inkscape-stroke:hairline;stroke-width:0.26458333;stroke-dasharray:none" />
    <path
       d="M 361.5928751111365,119.31124438436215 L 354.4101760042473,115.16431112149158 L 358.5571092671179,107.98161201460238 L 365.73980837400705,112.12854527747294 L 361.5928751111365,119.31124438436215 Z"
       id="path48"
       style="vector-effect:non-scaling-stroke;-inkscape-stroke:hairline;stroke-width:0.26458333;stroke-dasharray:none" />
    <path
       d="M 415.6612100504445,79.80101012677667 L 415.6612100504445,88.09487665251784 L 407.36734352470336,88.09487665251783 L 407.36734352470336,79.80101012677667 L 415.6612100504445,79.80101012677667 Z"
       id="path49"
       style="vector-effect:non-scaling-stroke;-inkscape-stroke:hairline;stroke-width:0.26458333;stroke-dasharray:none" />
    <path
       d="M 388.1357152453749,123.54592313609392 L 382.67856781699214,132.99797974644667 L 371.7642729602267,132.99797974644667 L 366.30712553184395,123.54592313609392 L 371.7642729602267,114.09386652574116 L 382.67856781699214,114.09386652574116 L 388.1357152453749,123.54592313609392 Z"
       id="path50"
       style="vector-effect:non-scaling-stroke;-inkscape-stroke:hairline;stroke-width:0.26458333;stroke-dasharray:none" />
    <path
       d="M 422.4285716443394,103.74693326287058 L 416.97142421595663,113.19898987322335 L 406.0571293591912,113.19898987322334 L 400.59998193080844,103.74693326287058 L 406.0571293591912,94.29487665251784 L 416.97142421595663,94.29487665251784 L 422.4285716443394,103.74693326287058 Z"
       id="path51"
       style="vector-effect:non-scaling-stroke;-inkscape-stroke:hairline;stroke-width:0.26458333;stroke-dasharray:none" />
    <path
       d="M 463.33676555629825,66.41831101988743 L 469.75305632263235,77.53165262331316 L 469.75305632263235,90.36423415598138 L 463.33676555629825,101.47757575940707 L 452.22342395287257,107.89386652574117 L 439.39084242020436,107.89386652574117 L 428.2775008167787,101.47757575940707 L 421.8612100504446,90.36423415598135 L 421.8612100504446,77.53165262331314 L 428.2775008167787,66.41831101988743 L 439.39084242020436,60.00202025355334 L 452.22342395287257,60.00202025355334 L 463.33676555629825,66.41831101988743 Z"
       id="path52"
       style="vector-effect:non-scaling-stroke;-inkscape-stroke:hairline;stroke-width:0.26458333;stroke-dasharray:none" />
    <path
       d="M 468.6183775709006,115.16431112149158 L 461.4356784640114,119.31124438436215 L 457.28874520114084,112.12854527747292 L 464.47144430803,107.98161201460236 L 468.6183775709006,115.16431112149158 Z"
       id="path53"
       style="vector-effect:non-scaling-stroke;-inkscape-stroke:hairline;stroke-width:0.26458333;stroke-dasharray:none" />
    <path
       d="M 430.1785879090655,119.31124438436215 L 422.99588880217635,115.16431112149158 L 427.1428220650469,107.98161201460238 L 434.3255211719361,112.12854527747294 L 430.1785879090655,119.31124438436215 Z"
       id="path54"
       style="vector-effect:non-scaling-stroke;-inkscape-stroke:hairline;stroke-width:0.26458333;stroke-dasharray:none" />
    <path
       d="M 484.2469228483735,79.80101012677667 L 484.2469228483735,88.09487665251784 L 475.9530563226324,88.09487665251783 L 475.9530563226324,79.80101012677667 L 484.2469228483735,79.80101012677667 Z"
       id="path55"
       style="vector-effect:non-scaling-stroke;-inkscape-stroke:hairline;stroke-width:0.26458333;stroke-dasharray:none" />
    <path
       d="M 456.72142804330394,123.54592313609392 L 451.2642806149212,132.99797974644667 L 440.34998575815575,132.99797974644667 L 434.892838329773,123.54592313609392 L 440.34998575815575,114.09386652574116 L 451.2642806149212,114.09386652574116 L 456.72142804330394,123.54592313609392 Z"
       id="path56"
       style="vector-effect:non-scaling-stroke;-inkscape-stroke:hairline;stroke-width:0.26458333;stroke-dasharray:none" />
    <path
       d="M 491.01428444226843,103.74693326287058 L 485.55713701388567,113.19898987322335 L 474.64284215712024,113.19898987322334 L 469.1856947287375,103.74693326287058 L 474.64284215712024,94.29487665251784 L 485.55713701388567,94.29487665251784 L 491.01428444226843,103.74693326287058 Z"
       id="path57"
       style="vector-effect:non-scaling-stroke;-inkscape-stroke:hairline;stroke-width:0.26458333;stroke-dasharray:none" />
    <path
       d="M 531.9224783542272,66.41831101988738 L 538.3387691205613,77.53165262331316 L 538.3387691205613,90.36423415598138 L 531.9224783542272,101.47757575940713 L 520.8091367508016,107.89386652574117 L 507.97655521813334,107.89386652574117 L 496.86321361470766,101.47757575940707 L 490.44692284837356,90.36423415598135 L 490.44692284837356,77.53165262331314 L 496.86321361470766,66.41831101988743 L 507.97655521813334,60.00202025355334 L 520.8091367508016,60.00202025355334 L 531.9224783542272,66.41831101988738 Z"
       id="path58"
       style="vector-effect:non-scaling-stroke;-inkscape-stroke:hairline;stroke-width:0.26458333;stroke-dasharray:none" />
    <path
       d="M 537.2040903688296,115.16431112149162 L 530.0213912619405,119.31124438436217 L 525.8744579990698,112.1285452774729 L 533.0571571059589,107.98161201460235 L 537.2040903688296,115.16431112149162 Z"
       id="path59"
       style="vector-effect:non-scaling-stroke;-inkscape-stroke:hairline;stroke-width:0.26458333;stroke-dasharray:none" />
    <path
       d="M 498.7643007069945,119.31124438436215 L 491.58160160010533,115.16431112149158 L 495.7285348629759,107.98161201460238 L 502.91123396986507,112.12854527747294 L 498.7643007069945,119.31124438436215 Z"
       id="path60"
       style="vector-effect:non-scaling-stroke;-inkscape-stroke:hairline;stroke-width:0.26458333;stroke-dasharray:none" />
    <path
       d="M 552.8326356463026,79.80101012677667 L 552.8326356463026,88.09487665251784 L 544.5387691205614,88.09487665251783 L 544.5387691205614,79.80101012677667 L 552.8326356463026,79.80101012677667 Z"
       id="path61"
       style="vector-effect:non-scaling-stroke;-inkscape-stroke:hairline;stroke-width:0.26458333;stroke-dasharray:none" />
    <path
       d="M 525.3071408412329,123.54592313609392 L 519.8499934128503,132.99797974644667 L 508.93569855608473,132.99797974644667 L 503.47855112770196,123.54592313609392 L 508.93569855608473,114.09386652574116 L 519.8499934128503,114.09386652574116 L 525.3071408412329,123.54592313609392 Z"
       id="path62"
       style="vector-effect:non-scaling-stroke;-inkscape-stroke:hairline;stroke-width:0.26458333;stroke-dasharray:none" />
    <path
       d="M 559.5999972401975,103.74693326287057 L 554.1428498118147,113.19898987322335 L 543.2285549550492,113.19898987322334 L 537.7714075266665,103.74693326287058 L 543.2285549550492,94.29487665251784 L 554.1428498118148,94.29487665251784 L 559.5999972401975,103.74693326287057 Z"
       id="path63"
       style="vector-effect:non-scaling-stroke;-inkscape-stroke:hairline;stroke-width:0.26458333;stroke-dasharray:none" />
    <path
       d="M 600.5081911521563,66.41831101988741 L 606.9244819184904,77.53165262331315 L 606.9244819184903,90.36423415598139 L 600.5081911521563,101.47757575940713 L 589.3948495487306,107.89386652574117 L 576.5622680160624,107.89386652574117 L 565.4489264126366,101.47757575940712 L 559.0326356463025,90.36423415598135 L 559.0326356463025,77.53165262331314 L 565.4489264126366,66.41831101988741 L 576.5622680160624,60.00202025355334 L 589.3948495487306,60.00202025355334 L 600.5081911521563,66.41831101988741 Z"
       id="path64"
       style="vector-effect:non-scaling-stroke;-inkscape-stroke:hairline;stroke-width:0.26458333;stroke-dasharray:none" />
    <path
       d="M 605.7898031667587,115.16431112149161 L 598.6071040598695,119.31124438436217 L 594.4601707969988,112.12854527747291 L 601.642869903888,107.98161201460233 L 605.7898031667587,115.16431112149161 Z"
       id="path65"
       style="vector-effect:non-scaling-stroke;-inkscape-stroke:hairline;stroke-width:0.26458333;stroke-dasharray:none" />
    <path
       d="M 567.3500135049235,119.31124438436217 L 560.1673143980343,115.16431112149161 L 564.3142476609049,107.98161201460233 L 571.4969467677942,112.12854527747291 L 567.3500135049235,119.31124438436217 Z"
       id="path66"
       style="vector-effect:non-scaling-stroke;-inkscape-stroke:hairline;stroke-width:0.26458333;stroke-dasharray:none" />
    <path
       d="M 621.4183484442316,79.80101012677667 L 621.4183484442315,88.09487665251784 L 613.1244819184905,88.09487665251783 L 613.1244819184905,79.80101012677667 L 621.4183484442316,79.80101012677667 Z"
       id="path67"
       style="vector-effect:non-scaling-stroke;-inkscape-stroke:hairline;stroke-width:0.26458333;stroke-dasharray:none" />
    <path
       d="M 593.8928536391619,123.54592313609392 L 588.4357062107792,132.99797974644667 L 577.5214113540137,132.99797974644667 L 572.064263925631,123.54592313609392 L 577.5214113540137,114.09386652574116 L 588.4357062107792,114.09386652574116 L 593.8928536391619,123.54592313609392 Z"
       id="path68"
       style="vector-effect:non-scaling-stroke;-inkscape-stroke:hairline;stroke-width:0.26458333;stroke-dasharray:none" />
    <path
       d="M 628.1857100381263,103.74693326287058 L 622.7285626097437,113.19898987322335 L 611.8142677529781,113.19898987322334 L 606.3571203245955,103.74693326287061 L 611.8142677529783,94.29487665251784 L 622.7285626097437,94.29487665251784 L 628.1857100381263,103.74693326287058 Z"
       id="path69"
       style="vector-effect:non-scaling-stroke;-inkscape-stroke:hairline;stroke-width:0.26458333;stroke-dasharray:none" />
    <path
       d="M 669.0939039500853,66.41831101988741 L 675.5101947164194,77.53165262331316 L 675.5101947164194,90.36423415598138 L 669.0939039500853,101.47757575940713 L 657.9805623466596,107.89386652574117 L 645.1479808139914,107.89386652574117 L 634.0346392105656,101.47757575940712 L 627.6183484442315,90.36423415598135 L 627.6183484442315,77.53165262331314 L 634.0346392105656,66.41831101988741 L 645.1479808139914,60.00202025355334 L 657.9805623466596,60.00202025355334 L 669.0939039500853,66.41831101988741 Z"
       id="path70"
       style="vector-effect:non-scaling-stroke;-inkscape-stroke:hairline;stroke-width:0.26458333;stroke-dasharray:none" />
    <path
       d="M 674.3755159646877,115.16431112149161 L 667.1928168577984,119.31124438436217 L 663.0458835949278,112.12854527747291 L 670.228582701817,107.98161201460233 L 674.3755159646877,115.16431112149161 Z"
       id="path71"
       style="vector-effect:non-scaling-stroke;-inkscape-stroke:hairline;stroke-width:0.26458333;stroke-dasharray:none" />
    <path
       d="M 635.9357263028525,119.31124438436217 L 628.7530271959632,115.16431112149161 L 632.8999604588339,107.98161201460233 L 640.0826595657231,112.12854527747291 L 635.9357263028525,119.31124438436217 Z"
       id="path72"
       style="vector-effect:non-scaling-stroke;-inkscape-stroke:hairline;stroke-width:0.26458333;stroke-dasharray:none" />
    <path
       d="M 690.0040612421606,79.80101012677667 L 690.0040612421606,88.09487665251784 L 681.7101947164194,88.09487665251783 L 681.7101947164194,79.80101012677667 L 690.0040612421606,79.80101012677667 Z"
       id="path73"
       style="vector-effect:non-scaling-stroke;-inkscape-stroke:hairline;stroke-width:0.26458333;stroke-dasharray:none" />
    <path
       d="M 662.4785664370909,123.54592313609392 L 657.0214190087082,132.99797974644667 L 646.1071241519427,132.99797974644667 L 640.64997672356,123.54592313609392 L 646.1071241519427,114.09386652574116 L 657.0214190087082,114.09386652574116 L 662.4785664370909,123.54592313609392 Z"
       id="path74"
       style="vector-effect:non-scaling-stroke;-inkscape-stroke:hairline;stroke-width:0.26458333;stroke-dasharray:none" />
    <path
       d="M 696.7714228360554,103.74693326287057 L 691.3142754076727,113.19898987322335 L 680.3999805509071,113.19898987322334 L 674.9428331225245,103.74693326287061 L 680.3999805509072,94.29487665251784 L 691.3142754076728,94.29487665251784 L 696.7714228360554,103.74693326287057 Z"
       id="path75"
       style="vector-effect:non-scaling-stroke;-inkscape-stroke:hairline;stroke-width:0.26458333;stroke-dasharray:none" />
    <path
       d="M 737.6796167480143,66.41831101988741 L 744.0959075143484,77.53165262331315 L 744.0959075143483,90.36423415598139 L 737.6796167480143,101.47757575940713 L 726.5662751445885,107.89386652574117 L 713.7336936119203,107.89386652574117 L 702.6203520084946,101.47757575940712 L 696.2040612421605,90.36423415598135 L 696.2040612421605,77.53165262331314 L 702.6203520084946,66.41831101988741 L 713.7336936119203,60.00202025355334 L 726.5662751445885,60.00202025355334 L 737.6796167480143,66.41831101988741 Z"
       id="path76"
       style="vector-effect:non-scaling-stroke;-inkscape-stroke:hairline;stroke-width:0.26458333;stroke-dasharray:none" />
    <path
       d="M 742.9612287626167,115.16431112149161 L 735.7785296557274,119.31124438436217 L 731.6315963928567,112.12854527747291 L 738.814295499746,107.98161201460233 L 742.9612287626167,115.16431112149161 Z"
       id="path77"
       style="vector-effect:non-scaling-stroke;-inkscape-stroke:hairline;stroke-width:0.26458333;stroke-dasharray:none" />
    <path
       d="M 704.5214391007814,119.31124438436217 L 697.3387399938922,115.16431112149161 L 701.4856732567629,107.98161201460233 L 708.6683723636521,112.12854527747291 L 704.5214391007814,119.31124438436217 Z"
       id="path78"
       style="vector-effect:non-scaling-stroke;-inkscape-stroke:hairline;stroke-width:0.26458333;stroke-dasharray:none" />
    <path
       d="M 758.5897740400895,79.80101012677667 L 758.5897740400894,88.09487665251784 L 750.2959075143484,88.09487665251783 L 750.2959075143484,79.80101012677667 L 758.5897740400895,79.80101012677667 Z"
       id="path79"
       style="vector-effect:non-scaling-stroke;-inkscape-stroke:hairline;stroke-width:0.26458333;stroke-dasharray:none" />
    <path
       d="M 731.0642792350199,123.54592313609392 L 725.6071318066372,132.99797974644667 L 714.6928369498717,132.99797974644667 L 709.235689521489,123.54592313609392 L 714.6928369498717,114.09386652574116 L 725.6071318066372,114.09386652574116 L 731.0642792350199,123.54592313609392 Z"
       id="path80"
       style="vector-effect:non-scaling-stroke;-inkscape-stroke:hairline;stroke-width:0.26458333;stroke-dasharray:none" />
    <path
       d="M 765.3571356339843,103.74693326287058 L 759.8999882056016,113.19898987322335 L 748.9856933488361,113.19898987322334 L 743.5285459204534,103.74693326287061 L 748.9856933488362,94.29487665251784 L 759.8999882056016,94.29487665251784 L 765.3571356339843,103.74693326287058 Z"
       id="path81"
       style="vector-effect:non-scaling-stroke;-inkscape-stroke:hairline;stroke-width:0.26458333;stroke-dasharray:none" />
    <path
       d="M 806.2653295459432,66.41831101988741 L 812.6816203122773,77.53165262331316 L 812.6816203122773,90.36423415598138 L 806.2653295459432,101.47757575940713 L 795.1519879425175,107.89386652574117 L 782.3194064098493,107.89386652574117 L 771.2060648064236,101.47757575940712 L 764.7897740400895,90.36423415598135 L 764.7897740400895,77.53165262331314 L 771.2060648064236,66.41831101988741 L 782.3194064098493,60.00202025355334 L 795.1519879425175,60.00202025355334 L 806.2653295459432,66.41831101988741 Z"
       id="path82"
       style="vector-effect:non-scaling-stroke;-inkscape-stroke:hairline;stroke-width:0.26458333;stroke-dasharray:none" />
    <path
       d="M 811.5469415605456,115.16431112149161 L 804.3642424536564,119.31124438436217 L 800.2173091907857,112.12854527747291 L 807.400008297675,107.98161201460233 L 811.5469415605456,115.16431112149161 Z"
       id="path83"
       style="vector-effect:non-scaling-stroke;-inkscape-stroke:hairline;stroke-width:0.26458333;stroke-dasharray:none" />
    <path
       d="M 773.1071518987104,119.31124438436217 L 765.9244527918212,115.16431112149161 L 770.0713860546919,107.98161201460233 L 777.2540851615811,112.12854527747291 L 773.1071518987104,119.31124438436217 Z"
       id="path84"
       style="vector-effect:non-scaling-stroke;-inkscape-stroke:hairline;stroke-width:0.26458333;stroke-dasharray:none" />
    <path
       d="M 827.1754868380185,79.80101012677667 L 827.1754868380185,88.09487665251784 L 818.8816203122774,88.09487665251783 L 818.8816203122774,79.80101012677667 L 827.1754868380185,79.80101012677667 Z"
       id="path85"
       style="vector-effect:non-scaling-stroke;-inkscape-stroke:hairline;stroke-width:0.26458333;stroke-dasharray:none" />
    <path
       d="M 799.6499920329488,123.54592313609392 L 794.1928446045662,132.99797974644667 L 783.2785497478006,132.99797974644667 L 777.821402319418,123.54592313609392 L 783.2785497478006,114.09386652574116 L 794.1928446045662,114.09386652574116 L 799.6499920329488,123.54592313609392 Z"
       id="path86"
       style="vector-effect:non-scaling-stroke;-inkscape-stroke:hairline;stroke-width:0.26458333;stroke-dasharray:none" />
    <path
       d="M 833.9428484319134,103.74693326287057 L 828.4857010035306,113.19898987322335 L 817.5714061467651,113.19898987322334 L 812.1142587183824,103.74693326287061 L 817.5714061467652,94.29487665251784 L 828.4857010035307,94.29487665251784 L 833.9428484319134,103.74693326287057 Z"
       id="path87"
       style="vector-effect:non-scaling-stroke;-inkscape-stroke:hairline;stroke-width:0.26458333;stroke-dasharray:none" />
    <path
       d="M 874.8510423438723,66.41831101988741 L 881.2673331102064,77.53165262331316 L 881.2673331102064,90.36423415598138 L 874.8510423438723,101.47757575940713 L 863.7377007404466,107.89386652574117 L 850.9051192077784,107.89386652574117 L 839.7917776043527,101.47757575940712 L 833.3754868380186,90.36423415598135 L 833.3754868380186,77.53165262331314 L 839.7917776043527,66.41831101988741 L 850.9051192077784,60.00202025355334 L 863.7377007404466,60.00202025355334 L 874.8510423438723,66.41831101988741 Z"
       id="path88"
       style="vector-effect:non-scaling-stroke;-inkscape-stroke:hairline;stroke-width:0.26458333;stroke-dasharray:none" />
    <path
       d="M 880.1326543584747,115.16431112149161 L 872.9499552515855,119.31124438436217 L 868.8030219887148,112.12854527747291 L 875.985721095604,107.98161201460233 L 880.1326543584747,115.16431112149161 Z"
       id="path89"
       style="vector-effect:non-scaling-stroke;-inkscape-stroke:hairline;stroke-width:0.26458333;stroke-dasharray:none" />
    <path
       d="M 841.6928646966395,119.31124438436217 L 834.5101655897503,115.16431112149161 L 838.657098852621,107.98161201460233 L 845.8397979595102,112.12854527747291 L 841.6928646966395,119.31124438436217 Z"
       id="path90"
       style="vector-effect:non-scaling-stroke;-inkscape-stroke:hairline;stroke-width:0.26458333;stroke-dasharray:none" />
    <path
       d="M 895.7611996359476,79.80101012677667 L 895.7611996359476,88.09487665251784 L 887.4673331102065,88.09487665251783 L 887.4673331102065,79.80101012677667 L 895.7611996359476,79.80101012677667 Z"
       id="path91"
       style="vector-effect:non-scaling-stroke;-inkscape-stroke:hairline;stroke-width:0.26458333;stroke-dasharray:none" />
    <path
       d="M 868.2357048308779,123.54592313609392 L 862.7785574024953,132.99797974644667 L 851.8642625457297,132.99797974644667 L 846.4071151173471,123.54592313609392 L 851.8642625457297,114.09386652574116 L 862.7785574024953,114.09386652574116 L 868.2357048308779,123.54592313609392 Z"
       id="path92"
       style="vector-effect:non-scaling-stroke;-inkscape-stroke:hairline;stroke-width:0.26458333;stroke-dasharray:none" />
    <path
       d="M 902.5285612298425,103.74693326287057 L 897.0714138014597,113.19898987322335 L 886.1571189446942,113.19898987322334 L 880.6999715163115,103.74693326287061 L 886.1571189446943,94.29487665251784 L 897.0714138014598,94.29487665251784 L 902.5285612298425,103.74693326287057 Z"
       id="path93"
       style="vector-effect:non-scaling-stroke;-inkscape-stroke:hairline;stroke-width:0.26458333;stroke-dasharray:none" />
    <path
       d="M 943.4367551418013,66.41831101988741 L 949.8530459081354,77.53165262331315 L 949.8530459081353,90.36423415598139 L 943.4367551418013,101.47757575940713 L 932.3234135383756,107.89386652574117 L 919.4908320057074,107.89386652574117 L 908.3774904022816,101.47757575940712 L 901.9611996359475,90.36423415598135 L 901.9611996359475,77.53165262331314 L 908.3774904022816,66.41831101988741 L 919.4908320057074,60.00202025355334 L 932.3234135383756,60.00202025355334 L 943.4367551418013,66.41831101988741 Z"
       id="path94"
       style="vector-effect:non-scaling-stroke;-inkscape-stroke:hairline;stroke-width:0.26458333;stroke-dasharray:none" />
    <path
       d="M 948.7183671564037,115.16431112149161 L 941.5356680495145,119.31124438436217 L 937.3887347866438,112.12854527747291 L 944.571433893533,107.98161201460233 L 948.7183671564037,115.16431112149161 Z"
       id="path95"
       style="vector-effect:non-scaling-stroke;-inkscape-stroke:hairline;stroke-width:0.26458333;stroke-dasharray:none" />
    <path
       d="M 910.2785774945685,119.31124438436217 L 903.0958783876792,115.16431112149161 L 907.2428116505499,107.98161201460233 L 914.4255107574392,112.12854527747291 L 910.2785774945685,119.31124438436217 Z"
       id="path96"
       style="vector-effect:non-scaling-stroke;-inkscape-stroke:hairline;stroke-width:0.26458333;stroke-dasharray:none" />
    <path
       d="M 964.3469124338766,79.80101012677667 L 964.3469124338765,88.09487665251784 L 956.0530459081355,88.09487665251783 L 956.0530459081355,79.80101012677667 L 964.3469124338766,79.80101012677667 Z"
       id="path97"
       style="vector-effect:non-scaling-stroke;-inkscape-stroke:hairline;stroke-width:0.26458333;stroke-dasharray:none" />
    <path
       d="M 936.8214176288069,123.54592313609392 L 931.3642702004242,132.99797974644667 L 920.4499753436587,132.99797974644667 L 914.992827915276,123.54592313609392 L 920.4499753436587,114.09386652574116 L 931.3642702004242,114.09386652574116 L 936.8214176288069,123.54592313609392 Z"
       id="path98"
       style="vector-effect:non-scaling-stroke;-inkscape-stroke:hairline;stroke-width:0.26458333;stroke-dasharray:none" />
    <path
       d="M 971.1142740277713,103.74693326287058 L 965.6571265993887,113.19898987322335 L 954.7428317426231,113.19898987322334 L 949.2856843142405,103.74693326287061 L 954.7428317426233,94.29487665251784 L 965.6571265993887,94.29487665251784 L 971.1142740277713,103.74693326287058 Z"
       id="path99"
       style="vector-effect:non-scaling-stroke;-inkscape-stroke:hairline;stroke-width:0.26458333;stroke-dasharray:none" />
    <path
       d="M 988.0765448036364,107.89386652574117 L 976.9632032002106,101.47757575940712 L 970.5469124338765,90.36423415598135 L 970.5469124338765,77.53165262331314 L 976.9632032002106,66.41831101988741 L 988.0765448036364,60.00202025355334 L 990.0561022777378,60.00202025355334 L 990.0561022777378,107.89386652574117 L 988.0765448036364,107.89386652574117 Z"
       id="path100"
       style="vector-effect:non-scaling-stroke;-inkscape-stroke:hairline;stroke-width:0.26458333;stroke-dasharray:none" />
    <path
       d="M 978.8642902924975,119.31124438436217 L 971.6815911856082,115.16431112149161 L 975.8285244484789,107.98161201460233 L 983.0112235553681,112.12854527747291 L 978.8642902924975,119.31124438436217 Z"
       id="path101"
       style="vector-effect:non-scaling-stroke;-inkscape-stroke:hairline;stroke-width:0.26458333;stroke-dasharray:none" />
    <path
       d="M 989.0356881415877,132.99797974644667 L 983.578540713205,123.54592313609392 L 989.0356881415877,114.09386652574116 L 990.0561022777378,114.09386652574116 L 990.0561022777378,132.99797974644667 L 989.0356881415877,132.99797974644667 Z"
       id="path102"
       style="vector-effect:non-scaling-stroke;-inkscape-stroke:hairline;stroke-width:0.26458333;stroke-dasharray:none" />
    <path
       d="M 161.1173487319519,30.96726453631139 L 154.70105796561782,42.08060613973704 L 143.58771636219203,48.496896906071186 L 130.7551348295239,48.496896906071186 L 129.05610227773775,47.51596000493551 L 129.05610227773775,24.0 L 161.1173487319519,24.0 L 161.1173487319519,30.96726453631139 Z"
       id="path103"
       style="vector-effect:non-scaling-stroke;-inkscape-stroke:hairline;stroke-width:0.26458333;stroke-dasharray:none" />
    <path
       d="M 159.98266998022012,55.767341501821576 L 152.79997087333086,59.914274764692166 L 148.6530376104603,52.73157565780295 L 155.83573671734956,48.58464239493236 L 159.98266998022012,55.767341501821576 Z"
       id="path104"
       style="vector-effect:non-scaling-stroke;-inkscape-stroke:hairline;stroke-width:0.26458333;stroke-dasharray:none" />
    <path
       d="M 175.61121525769306,28.69790703284785 L 167.31734873195188,28.697907032847837 L 167.31734873195188,24.0 L 175.61121525769306,24.0 L 175.61121525769306,28.69790703284785 Z"
       id="path105"
       style="vector-effect:non-scaling-stroke;-inkscape-stroke:hairline;stroke-width:0.26458333;stroke-dasharray:none" />
    <path
       d="M 142.6285730242407,73.60101012677669 L 131.71427816747524,73.60101012677667 L 129.05610227773775,68.99691443029674 L 129.05610227773775,59.300992602551105 L 131.71427816747524,54.696896906071174 L 142.62857302424072,54.696896906071174 L 148.0857204526235,64.14895351642392 L 142.6285730242407,73.60101012677669 Z"
       id="path106"
       style="vector-effect:non-scaling-stroke;-inkscape-stroke:hairline;stroke-width:0.26458333;stroke-dasharray:none" />
    <path
       d="M 182.37857685158795,44.349963643200596 L 176.92142942320518,53.802020253553366 L 166.00713456643973,53.80202025355335 L 160.54998713805696,44.349963643200596 L 166.00713456643973,34.89790703284784 L 176.9214294232052,34.89790703284784 L 182.37857685158795,44.349963643200596 Z"
       id="path107"
       style="vector-effect:non-scaling-stroke;-inkscape-stroke:hairline;stroke-width:0.26458333;stroke-dasharray:none" />
    <path
       d="M 229.70306152988087,30.96726453631139 L 223.2867707635468,42.08060613973704 L 212.173429160121,48.496896906071186 L 199.34084762745286,48.496896906071186 L 188.22750602402715,42.08060613973707 L 181.81121525769305,30.96726453631136 L 181.81121525769305,24.0 L 229.70306152988087,24.0 L 229.70306152988087,30.96726453631139 Z"
       id="path108"
       style="vector-effect:non-scaling-stroke;-inkscape-stroke:hairline;stroke-width:0.26458333;stroke-dasharray:none" />
    <path
       d="M 228.5683827781491,55.76734150182159 L 221.38568367125987,59.914274764692166 L 217.2387504083893,52.731575657802935 L 224.42144951527854,48.58464239493236 L 228.5683827781491,55.76734150182159 Z"
       id="path109"
       style="vector-effect:non-scaling-stroke;-inkscape-stroke:hairline;stroke-width:0.26458333;stroke-dasharray:none" />
    <path
       d="M 190.12859311631405,59.914274764692166 L 182.94589400942482,55.76734150182159 L 187.09282727229538,48.58464239493236 L 194.2755263791846,52.731575657802935 L 190.12859311631405,59.914274764692166 Z"
       id="path110"
       style="vector-effect:non-scaling-stroke;-inkscape-stroke:hairline;stroke-width:0.26458333;stroke-dasharray:none" />
    <path
       d="M 244.19692805562204,28.69790703284785 L 235.90306152988086,28.697907032847837 L 235.90306152988086,24.0 L 244.19692805562204,24.0 L 244.19692805562204,28.69790703284785 Z"
       id="path111"
       style="vector-effect:non-scaling-stroke;-inkscape-stroke:hairline;stroke-width:0.26458333;stroke-dasharray:none" />
    <path
       d="M 216.67143325055247,64.14895351642392 L 211.2142858221697,73.60101012677669 L 200.29999096540422,73.60101012677667 L 194.84284353702145,64.14895351642392 L 200.29999096540422,54.696896906071174 L 211.2142858221697,54.696896906071174 L 216.67143325055247,64.14895351642392 Z"
       id="path112"
       style="vector-effect:non-scaling-stroke;-inkscape-stroke:hairline;stroke-width:0.26458333;stroke-dasharray:none" />
    <path
       d="M 250.96428964951696,44.349963643200596 L 245.50714222113416,53.802020253553366 L 234.5928473643687,53.80202025355335 L 229.13569993598594,44.349963643200596 L 234.5928473643687,34.89790703284784 L 245.5071422211342,34.89790703284784 L 250.96428964951696,44.349963643200596 Z"
       id="path113"
       style="vector-effect:non-scaling-stroke;-inkscape-stroke:hairline;stroke-width:0.26458333;stroke-dasharray:none" />
    <path
       d="M 298.28877432780985,30.96726453631139 L 291.87248356147575,42.0806061397371 L 280.75914195805007,48.496896906071186 L 267.92656042538187,48.496896906071186 L 256.8132188219562,42.0806061397371 L 250.39692805562206,30.96726453631136 L 250.39692805562206,24.0 L 298.28877432780985,24.0 L 298.28877432780985,30.96726453631139 Z"
       id="path114"
       style="vector-effect:non-scaling-stroke;-inkscape-stroke:hairline;stroke-width:0.26458333;stroke-dasharray:none" />
    <path
       d="M 297.1540955760781,55.76734150182159 L 289.9713964691889,59.914274764692166 L 285.82446320631834,52.731575657802935 L 293.0071623132075,48.58464239493236 L 297.1540955760781,55.76734150182159 Z"
       id="path115"
       style="vector-effect:non-scaling-stroke;-inkscape-stroke:hairline;stroke-width:0.26458333;stroke-dasharray:none" />
    <path
       d="M 258.714305914243,59.914274764692166 L 251.53160680735382,55.76734150182159 L 255.67854007022441,48.58464239493236 L 262.8612391771136,52.731575657802935 L 258.714305914243,59.914274764692166 Z"
       id="path116"
       style="vector-effect:non-scaling-stroke;-inkscape-stroke:hairline;stroke-width:0.26458333;stroke-dasharray:none" />
    <path
       d="M 312.782640853551,28.69790703284785 L 304.4887743278099,28.697907032847837 L 304.4887743278099,24.0 L 312.782640853551,24.0 L 312.782640853551,28.69790703284785 Z"
       id="path117"
       style="vector-effect:non-scaling-stroke;-inkscape-stroke:hairline;stroke-width:0.26458333;stroke-dasharray:none" />
    <path
       d="M 285.25714604848145,64.14895351642392 L 279.7999986200987,73.60101012677669 L 268.88570376333325,73.60101012677667 L 263.4285563349505,64.14895351642392 L 268.88570376333325,54.696896906071174 L 279.7999986200987,54.696896906071174 L 285.25714604848145,64.14895351642392 Z"
       id="path118"
       style="vector-effect:non-scaling-stroke;-inkscape-stroke:hairline;stroke-width:0.26458333;stroke-dasharray:none" />
    <path
       d="M 319.55000244744593,44.349963643200596 L 314.09285501906317,53.802020253553366 L 303.17856016229774,53.80202025355335 L 297.721412733915,44.349963643200596 L 303.17856016229774,34.89790703284784 L 314.09285501906317,34.89790703284784 L 319.55000244744593,44.349963643200596 Z"
       id="path119"
       style="vector-effect:non-scaling-stroke;-inkscape-stroke:hairline;stroke-width:0.26458333;stroke-dasharray:none" />
    <path
       d="M 366.8744871257388,30.96726453631139 L 360.4581963594047,42.0806061397371 L 349.34485475597904,48.496896906071186 L 336.51227322331084,48.496896906071186 L 325.39893161988516,42.0806061397371 L 318.98264085355106,30.96726453631136 L 318.98264085355106,24.0 L 366.8744871257388,24.0 L 366.8744871257388,30.96726453631139 Z"
       id="path120"
       style="vector-effect:non-scaling-stroke;-inkscape-stroke:hairline;stroke-width:0.26458333;stroke-dasharray:none" />
    <path
       d="M 365.73980837400705,55.76734150182159 L 358.5571092671179,59.914274764692166 L 354.4101760042473,52.731575657802935 L 361.5928751111365,48.58464239493236 L 365.73980837400705,55.76734150182159 Z"
       id="path121"
       style="vector-effect:non-scaling-stroke;-inkscape-stroke:hairline;stroke-width:0.26458333;stroke-dasharray:none" />
    <path
       d="M 327.300018712172,59.914274764692166 L 320.11731960528283,55.76734150182159 L 324.2642528681534,48.58464239493236 L 331.44695197504257,52.731575657802935 L 327.300018712172,59.914274764692166 Z"
       id="path122"
       style="vector-effect:non-scaling-stroke;-inkscape-stroke:hairline;stroke-width:0.26458333;stroke-dasharray:none" />
    <path
       d="M 381.36835365148,28.69790703284785 L 373.07448712573887,28.697907032847837 L 373.07448712573887,24.0 L 381.36835365148,24.0 L 381.36835365148,28.69790703284785 Z"
       id="path123"
       style="vector-effect:non-scaling-stroke;-inkscape-stroke:hairline;stroke-width:0.26458333;stroke-dasharray:none" />
    <path
       d="M 353.8428588464104,64.14895351642392 L 348.38571141802765,73.60101012677669 L 337.47141656126223,73.60101012677667 L 332.01426913287946,64.14895351642392 L 337.47141656126223,54.696896906071174 L 348.38571141802765,54.696896906071174 L 353.8428588464104,64.14895351642392 Z"
       id="path124"
       style="vector-effect:non-scaling-stroke;-inkscape-stroke:hairline;stroke-width:0.26458333;stroke-dasharray:none" />
    <path
       d="M 388.1357152453749,44.349963643200596 L 382.67856781699214,53.802020253553366 L 371.7642729602267,53.80202025355335 L 366.30712553184395,44.349963643200596 L 371.7642729602267,34.89790703284784 L 382.67856781699214,34.89790703284784 L 388.1357152453749,44.349963643200596 Z"
       id="path125"
       style="vector-effect:non-scaling-stroke;-inkscape-stroke:hairline;stroke-width:0.26458333;stroke-dasharray:none" />
    <path
       d="M 435.4601999236678,30.96726453631139 L 429.0439091573337,42.0806061397371 L 417.930567553908,48.496896906071186 L 405.0979860212398,48.496896906071186 L 393.98464441781414,42.0806061397371 L 387.56835365148004,30.96726453631136 L 387.56835365148004,24.0 L 435.4601999236678,24.0 L 435.4601999236678,30.96726453631139 Z"
       id="path126"
       style="vector-effect:non-scaling-stroke;-inkscape-stroke:hairline;stroke-width:0.26458333;stroke-dasharray:none" />
    <path
       d="M 434.32552117193603,55.76734150182159 L 427.14282206504686,59.914274764692166 L 422.9958888021763,52.731575657802935 L 430.17858790906547,48.58464239493236 L 434.32552117193603,55.76734150182159 Z"
       id="path127"
       style="vector-effect:non-scaling-stroke;-inkscape-stroke:hairline;stroke-width:0.26458333;stroke-dasharray:none" />
    <path
       d="M 395.885731510101,59.914274764692166 L 388.7030324032118,55.76734150182159 L 392.84996566608237,48.58464239493236 L 400.03266477297154,52.731575657802935 L 395.885731510101,59.914274764692166 Z"
       id="path128"
       style="vector-effect:non-scaling-stroke;-inkscape-stroke:hairline;stroke-width:0.26458333;stroke-dasharray:none" />
    <path
       d="M 449.95406644940897,28.69790703284785 L 441.66019992366785,28.697907032847837 L 441.66019992366785,24.0 L 449.95406644940897,24.0 L 449.95406644940897,28.69790703284785 Z"
       id="path129"
       style="vector-effect:non-scaling-stroke;-inkscape-stroke:hairline;stroke-width:0.26458333;stroke-dasharray:none" />
    <path
       d="M 422.4285716443394,64.14895351642392 L 416.97142421595663,73.60101012677669 L 406.0571293591912,73.60101012677667 L 400.59998193080844,64.14895351642392 L 406.0571293591912,54.696896906071174 L 416.97142421595663,54.696896906071174 L 422.4285716443394,64.14895351642392 Z"
       id="path130"
       style="vector-effect:non-scaling-stroke;-inkscape-stroke:hairline;stroke-width:0.26458333;stroke-dasharray:none" />
    <path
       d="M 456.7214280433039,44.349963643200596 L 451.2642806149211,53.802020253553366 L 440.3499857581557,53.80202025355335 L 434.8928383297729,44.349963643200596 L 440.3499857581557,34.89790703284784 L 451.2642806149211,34.89790703284784 L 456.7214280433039,44.349963643200596 Z"
       id="path131"
       style="vector-effect:non-scaling-stroke;-inkscape-stroke:hairline;stroke-width:0.26458333;stroke-dasharray:none" />
    <path
       d="M 504.04591272159684,30.96726453631139 L 497.62962195526273,42.0806061397371 L 486.51628035183705,48.496896906071186 L 473.68369881916885,48.496896906071186 L 462.5703572157432,42.0806061397371 L 456.1540664494091,30.96726453631136 L 456.1540664494091,24.0 L 504.04591272159684,24.0 L 504.04591272159684,30.96726453631139 Z"
       id="path132"
       style="vector-effect:non-scaling-stroke;-inkscape-stroke:hairline;stroke-width:0.26458333;stroke-dasharray:none" />
    <path
       d="M 502.91123396986507,55.76734150182159 L 495.7285348629759,59.914274764692166 L 491.58160160010533,52.731575657802935 L 498.7643007069945,48.58464239493236 L 502.91123396986507,55.76734150182159 Z"
       id="path133"
       style="vector-effect:non-scaling-stroke;-inkscape-stroke:hairline;stroke-width:0.26458333;stroke-dasharray:none" />
    <path
       d="M 464.47144430803,59.914274764692166 L 457.28874520114084,55.76734150182159 L 461.4356784640114,48.58464239493236 L 468.6183775709006,52.731575657802935 L 464.47144430803,59.914274764692166 Z"
       id="path134"
       style="vector-effect:non-scaling-stroke;-inkscape-stroke:hairline;stroke-width:0.26458333;stroke-dasharray:none" />
    <path
       d="M 518.5397792473381,28.69790703284785 L 510.2459127215969,28.697907032847837 L 510.2459127215969,24.0 L 518.5397792473381,24.0 L 518.5397792473381,28.69790703284785 Z"
       id="path135"
       style="vector-effect:non-scaling-stroke;-inkscape-stroke:hairline;stroke-width:0.26458333;stroke-dasharray:none" />
    <path
       d="M 491.01428444226843,64.14895351642392 L 485.55713701388567,73.60101012677669 L 474.64284215712024,73.60101012677667 L 469.1856947287375,64.14895351642392 L 474.64284215712024,54.696896906071174 L 485.55713701388567,54.696896906071174 L 491.01428444226843,64.14895351642392 Z"
       id="path136"
       style="vector-effect:non-scaling-stroke;-inkscape-stroke:hairline;stroke-width:0.26458333;stroke-dasharray:none" />
    <path
       d="M 525.3071408412329,44.349963643200596 L 519.8499934128503,53.802020253553366 L 508.93569855608473,53.80202025355335 L 503.47855112770196,44.349963643200596 L 508.93569855608473,34.89790703284784 L 519.8499934128503,34.89790703284784 L 525.3071408412329,44.349963643200596 Z"
       id="path137"
       style="vector-effect:non-scaling-stroke;-inkscape-stroke:hairline;stroke-width:0.26458333;stroke-dasharray:none" />
    <path
       d="M 572.6316255195259,30.96726453631139 L 566.2153347531918,42.08060613973714 L 555.1019931497661,48.496896906071186 L 542.2694116170978,48.496896906071186 L 531.1560700136722,42.08060613973714 L 524.7397792473381,30.96726453631136 L 524.7397792473381,24.0 L 572.6316255195259,24.0 L 572.6316255195259,30.96726453631139 Z"
       id="path138"
       style="vector-effect:non-scaling-stroke;-inkscape-stroke:hairline;stroke-width:0.26458333;stroke-dasharray:none" />
    <path
       d="M 571.4969467677942,55.76734150182163 L 564.314247660905,59.91427476469218 L 560.1673143980344,52.73157565780289 L 567.3500135049235,48.584642394932345 L 571.4969467677942,55.76734150182163 Z"
       id="path139"
       style="vector-effect:non-scaling-stroke;-inkscape-stroke:hairline;stroke-width:0.26458333;stroke-dasharray:none" />
    <path
       d="M 533.0571571059589,59.91427476469218 L 525.8744579990698,55.76734150182163 L 530.0213912619405,48.584642394932345 L 537.2040903688296,52.73157565780289 L 533.0571571059589,59.91427476469218 Z"
       id="path140"
       style="vector-effect:non-scaling-stroke;-inkscape-stroke:hairline;stroke-width:0.26458333;stroke-dasharray:none" />
    <path
       d="M 587.1254920452672,28.69790703284785 L 578.8316255195259,28.697907032847837 L 578.8316255195259,24.0 L 587.1254920452672,24.0 L 587.1254920452672,28.69790703284785 Z"
       id="path141"
       style="vector-effect:non-scaling-stroke;-inkscape-stroke:hairline;stroke-width:0.26458333;stroke-dasharray:none" />
    <path
       d="M 559.5999972401975,64.14895351642392 L 554.1428498118148,73.60101012677669 L 543.2285549550492,73.60101012677667 L 537.7714075266665,64.14895351642392 L 543.2285549550492,54.696896906071174 L 554.1428498118148,54.696896906071174 L 559.5999972401975,64.14895351642392 Z"
       id="path142"
       style="vector-effect:non-scaling-stroke;-inkscape-stroke:hairline;stroke-width:0.26458333;stroke-dasharray:none" />
    <path
       d="M 593.892853639162,44.34996364320058 L 588.4357062107792,53.802020253553366 L 577.5214113540137,53.80202025355335 L 572.064263925631,44.349963643200596 L 577.5214113540137,34.89790703284784 L 588.4357062107794,34.89790703284784 L 593.892853639162,44.34996364320058 Z"
       id="path143"
       style="vector-effect:non-scaling-stroke;-inkscape-stroke:hairline;stroke-width:0.26458333;stroke-dasharray:none" />
    <path
       d="M 641.2173383174548,30.967264536311404 L 634.8010475511209,42.080606139737114 L 623.6877059476951,48.496896906071186 L 610.8551244150269,48.496896906071186 L 599.7417828116012,42.080606139737114 L 593.3254920452671,30.96726453631136 L 593.3254920452671,24.0 L 641.217338317455,24.0 L 641.2173383174548,30.967264536311404 Z"
       id="path144"
       style="vector-effect:non-scaling-stroke;-inkscape-stroke:hairline;stroke-width:0.26458333;stroke-dasharray:none" />
    <path
       d="M 640.0826595657232,55.767341501821605 L 632.899960458834,59.91427476469218 L 628.7530271959633,52.73157565780292 L 635.9357263028526,48.584642394932345 L 640.0826595657232,55.767341501821605 Z"
       id="path145"
       style="vector-effect:non-scaling-stroke;-inkscape-stroke:hairline;stroke-width:0.26458333;stroke-dasharray:none" />
    <path
       d="M 601.642869903888,59.91427476469218 L 594.4601707969988,55.767341501821605 L 598.6071040598695,48.584642394932345 L 605.7898031667587,52.73157565780292 L 601.642869903888,59.91427476469218 Z"
       id="path146"
       style="vector-effect:non-scaling-stroke;-inkscape-stroke:hairline;stroke-width:0.26458333;stroke-dasharray:none" />
    <path
       d="M 655.711204843196,28.69790703284785 L 647.417338317455,28.697907032847837 L 647.417338317455,24.0 L 655.7112048431961,24.0 L 655.711204843196,28.69790703284785 Z"
       id="path147"
       style="vector-effect:non-scaling-stroke;-inkscape-stroke:hairline;stroke-width:0.26458333;stroke-dasharray:none" />
    <path
       d="M 628.1857100381264,64.14895351642392 L 622.7285626097438,73.60101012677669 L 611.8142677529783,73.60101012677667 L 606.3571203245956,64.14895351642392 L 611.8142677529783,54.696896906071174 L 622.7285626097438,54.696896906071174 L 628.1857100381264,64.14895351642392 Z"
       id="path148"
       style="vector-effect:non-scaling-stroke;-inkscape-stroke:hairline;stroke-width:0.26458333;stroke-dasharray:none" />
    <path
       d="M 662.4785664370909,44.349963643200596 L 657.0214190087082,53.802020253553366 L 646.1071241519427,53.80202025355335 L 640.64997672356,44.34996364320061 L 646.1071241519428,34.89790703284784 L 657.0214190087082,34.89790703284784 L 662.4785664370909,44.349963643200596 Z"
       id="path149"
       style="vector-effect:non-scaling-stroke;-inkscape-stroke:hairline;stroke-width:0.26458333;stroke-dasharray:none" />
    <path
       d="M 709.8030511153839,30.96726453631139 L 703.3867603490498,42.080606139737114 L 692.2734187456241,48.496896906071186 L 679.4408372129559,48.496896906071186 L 668.3274956095302,42.080606139737114 L 661.9112048431961,30.96726453631136 L 661.9112048431961,24.0 L 709.8030511153839,24.0 L 709.8030511153839,30.96726453631139 Z"
       id="path150"
       style="vector-effect:non-scaling-stroke;-inkscape-stroke:hairline;stroke-width:0.26458333;stroke-dasharray:none" />
    <path
       d="M 708.6683723636522,55.767341501821605 L 701.485673256763,59.91427476469218 L 697.3387399938923,52.73157565780292 L 704.5214391007815,48.584642394932345 L 708.6683723636522,55.767341501821605 Z"
       id="path151"
       style="vector-effect:non-scaling-stroke;-inkscape-stroke:hairline;stroke-width:0.26458333;stroke-dasharray:none" />
    <path
       d="M 670.228582701817,59.91427476469218 L 663.0458835949278,55.767341501821605 L 667.1928168577984,48.584642394932345 L 674.3755159646877,52.73157565780292 L 670.228582701817,59.91427476469218 Z"
       id="path152"
       style="vector-effect:non-scaling-stroke;-inkscape-stroke:hairline;stroke-width:0.26458333;stroke-dasharray:none" />
    <path
       d="M 724.2969176411251,28.69790703284785 L 716.003051115384,28.697907032847837 L 716.003051115384,24.0 L 724.2969176411251,24.0 L 724.2969176411251,28.69790703284785 Z"
       id="path153"
       style="vector-effect:non-scaling-stroke;-inkscape-stroke:hairline;stroke-width:0.26458333;stroke-dasharray:none" />
    <path
       d="M 696.7714228360554,64.14895351642392 L 691.3142754076728,73.60101012677669 L 680.3999805509072,73.60101012677667 L 674.9428331225246,64.14895351642392 L 680.3999805509072,54.696896906071174 L 691.3142754076728,54.696896906071174 L 696.7714228360554,64.14895351642392 Z"
       id="path154"
       style="vector-effect:non-scaling-stroke;-inkscape-stroke:hairline;stroke-width:0.26458333;stroke-dasharray:none" />
    <path
       d="M 731.06427923502,44.34996364320058 L 725.6071318066372,53.802020253553366 L 714.6928369498717,53.80202025355335 L 709.235689521489,44.34996364320061 L 714.6928369498718,34.89790703284784 L 725.6071318066373,34.89790703284784 L 731.06427923502,44.34996364320058 Z"
       id="path155"
       style="vector-effect:non-scaling-stroke;-inkscape-stroke:hairline;stroke-width:0.26458333;stroke-dasharray:none" />
    <path
       d="M 778.3887639133128,30.967264536311404 L 771.9724731469788,42.080606139737114 L 760.8591315435531,48.496896906071186 L 748.0265500108849,48.496896906071186 L 736.9132084074591,42.080606139737114 L 730.496917641125,30.96726453631136 L 730.496917641125,24.0 L 778.3887639133129,24.0 L 778.3887639133128,30.967264536311404 Z"
       id="path156"
       style="vector-effect:non-scaling-stroke;-inkscape-stroke:hairline;stroke-width:0.26458333;stroke-dasharray:none" />
    <path
       d="M 777.2540851615812,55.767341501821605 L 770.071386054692,59.91427476469218 L 765.9244527918213,52.73157565780292 L 773.1071518987105,48.584642394932345 L 777.2540851615812,55.767341501821605 Z"
       id="path157"
       style="vector-effect:non-scaling-stroke;-inkscape-stroke:hairline;stroke-width:0.26458333;stroke-dasharray:none" />
    <path
       d="M 738.814295499746,59.91427476469218 L 731.6315963928567,55.767341501821605 L 735.7785296557274,48.584642394932345 L 742.9612287626167,52.73157565780292 L 738.814295499746,59.91427476469218 Z"
       id="path158"
       style="vector-effect:non-scaling-stroke;-inkscape-stroke:hairline;stroke-width:0.26458333;stroke-dasharray:none" />
    <path
       d="M 792.882630439054,28.69790703284785 L 784.588763913313,28.697907032847837 L 784.588763913313,24.0 L 792.8826304390541,24.0 L 792.882630439054,28.69790703284785 Z"
       id="path159"
       style="vector-effect:non-scaling-stroke;-inkscape-stroke:hairline;stroke-width:0.26458333;stroke-dasharray:none" />
    <path
       d="M 765.3571356339844,64.14895351642392 L 759.8999882056017,73.60101012677669 L 748.9856933488362,73.60101012677667 L 743.5285459204536,64.14895351642392 L 748.9856933488362,54.696896906071174 L 759.8999882056017,54.696896906071174 L 765.3571356339844,64.14895351642392 Z"
       id="path160"
       style="vector-effect:non-scaling-stroke;-inkscape-stroke:hairline;stroke-width:0.26458333;stroke-dasharray:none" />
    <path
       d="M 799.6499920329488,44.349963643200596 L 794.1928446045662,53.802020253553366 L 783.2785497478006,53.80202025355335 L 777.821402319418,44.34996364320061 L 783.2785497478008,34.89790703284784 L 794.1928446045662,34.89790703284784 L 799.6499920329488,44.349963643200596 Z"
       id="path161"
       style="vector-effect:non-scaling-stroke;-inkscape-stroke:hairline;stroke-width:0.26458333;stroke-dasharray:none" />
    <path
       d="M 846.9744767112419,30.96726453631139 L 840.5581859449078,42.080606139737114 L 829.444844341482,48.496896906071186 L 816.6122628088139,48.496896906071186 L 805.4989212053881,42.080606139737114 L 799.082630439054,30.96726453631136 L 799.082630439054,24.0 L 846.9744767112419,24.0 L 846.9744767112419,30.96726453631139 Z"
       id="path162"
       style="vector-effect:non-scaling-stroke;-inkscape-stroke:hairline;stroke-width:0.26458333;stroke-dasharray:none" />
    <path
       d="M 845.8397979595102,55.767341501821605 L 838.657098852621,59.91427476469218 L 834.5101655897503,52.73157565780292 L 841.6928646966395,48.584642394932345 L 845.8397979595102,55.767341501821605 Z"
       id="path163"
       style="vector-effect:non-scaling-stroke;-inkscape-stroke:hairline;stroke-width:0.26458333;stroke-dasharray:none" />
    <path
       d="M 807.400008297675,59.91427476469218 L 800.2173091907857,55.767341501821605 L 804.3642424536564,48.584642394932345 L 811.5469415605456,52.73157565780292 L 807.400008297675,59.91427476469218 Z"
       id="path164"
       style="vector-effect:non-scaling-stroke;-inkscape-stroke:hairline;stroke-width:0.26458333;stroke-dasharray:none" />
    <path
       d="M 861.4683432369831,28.69790703284785 L 853.1744767112419,28.697907032847837 L 853.1744767112419,24.0 L 861.4683432369831,24.0 L 861.4683432369831,28.69790703284785 Z"
       id="path165"
       style="vector-effect:non-scaling-stroke;-inkscape-stroke:hairline;stroke-width:0.26458333;stroke-dasharray:none" />
    <path
       d="M 833.9428484319134,64.14895351642392 L 828.4857010035307,73.60101012677669 L 817.5714061467652,73.60101012677667 L 812.1142587183825,64.14895351642392 L 817.5714061467652,54.696896906071174 L 828.4857010035307,54.696896906071174 L 833.9428484319134,64.14895351642392 Z"
       id="path166"
       style="vector-effect:non-scaling-stroke;-inkscape-stroke:hairline;stroke-width:0.26458333;stroke-dasharray:none" />
    <path
       d="M 868.2357048308779,44.34996364320058 L 862.7785574024952,53.802020253553366 L 851.8642625457296,53.80202025355335 L 846.407115117347,44.34996364320061 L 851.8642625457297,34.89790703284784 L 862.7785574024953,34.89790703284784 L 868.2357048308779,44.34996364320058 Z"
       id="path167"
       style="vector-effect:non-scaling-stroke;-inkscape-stroke:hairline;stroke-width:0.26458333;stroke-dasharray:none" />
    <path
       d="M 915.560189509171,30.96726453631139 L 909.1438987428369,42.080606139737114 L 898.0305571394111,48.496896906071186 L 885.197975606743,48.496896906071186 L 874.0846340033172,42.080606139737114 L 867.6683432369831,30.96726453631136 L 867.6683432369831,24.0 L 915.560189509171,24.0 L 915.560189509171,30.96726453631139 Z"
       id="path168"
       style="vector-effect:non-scaling-stroke;-inkscape-stroke:hairline;stroke-width:0.26458333;stroke-dasharray:none" />
    <path
       d="M 914.4255107574393,55.767341501821605 L 907.24281165055,59.91427476469218 L 903.0958783876794,52.73157565780292 L 910.2785774945686,48.584642394932345 L 914.4255107574393,55.767341501821605 Z"
       id="path169"
       style="vector-effect:non-scaling-stroke;-inkscape-stroke:hairline;stroke-width:0.26458333;stroke-dasharray:none" />
    <path
       d="M 875.985721095604,59.91427476469218 L 868.8030219887148,55.767341501821605 L 872.9499552515855,48.584642394932345 L 880.1326543584747,52.73157565780292 L 875.985721095604,59.91427476469218 Z"
       id="path170"
       style="vector-effect:non-scaling-stroke;-inkscape-stroke:hairline;stroke-width:0.26458333;stroke-dasharray:none" />
    <path
       d="M 930.0540560349122,28.69790703284785 L 921.760189509171,28.697907032847837 L 921.760189509171,24.0 L 930.0540560349122,24.0 L 930.0540560349122,28.69790703284785 Z"
       id="path171"
       style="vector-effect:non-scaling-stroke;-inkscape-stroke:hairline;stroke-width:0.26458333;stroke-dasharray:none" />
    <path
       d="M 902.5285612298425,64.14895351642392 L 897.0714138014598,73.60101012677669 L 886.1571189446943,73.60101012677667 L 880.6999715163116,64.14895351642392 L 886.1571189446943,54.696896906071174 L 897.0714138014598,54.696896906071174 L 902.5285612298425,64.14895351642392 Z"
       id="path172"
       style="vector-effect:non-scaling-stroke;-inkscape-stroke:hairline;stroke-width:0.26458333;stroke-dasharray:none" />
    <path
       d="M 936.821417628807,44.34996364320058 L 931.3642702004242,53.802020253553366 L 920.4499753436587,53.80202025355335 L 914.992827915276,44.34996364320061 L 920.4499753436588,34.89790703284784 L 931.3642702004244,34.89790703284784 L 936.821417628807,44.34996364320058 Z"
       id="path173"
       style="vector-effect:non-scaling-stroke;-inkscape-stroke:hairline;stroke-width:0.26458333;stroke-dasharray:none" />
    <path
       d="M 984.1459023070998,30.967264536311404 L 977.7296115407659,42.080606139737114 L 966.6162699373401,48.496896906071186 L 953.7836884046719,48.496896906071186 L 942.6703468012462,42.080606139737114 L 936.2540560349121,30.96726453631136 L 936.2540560349121,24.0 L 984.1459023071,24.0 L 984.1459023070998,30.967264536311404 Z"
       id="path174"
       style="vector-effect:non-scaling-stroke;-inkscape-stroke:hairline;stroke-width:0.26458333;stroke-dasharray:none" />
    <path
       d="M 983.0112235553682,55.767341501821605 L 975.828524448479,59.91427476469218 L 971.6815911856083,52.73157565780292 L 978.8642902924976,48.584642394932345 L 983.0112235553682,55.767341501821605 Z"
       id="path175"
       style="vector-effect:non-scaling-stroke;-inkscape-stroke:hairline;stroke-width:0.26458333;stroke-dasharray:none" />
    <path
       d="M 944.571433893533,59.91427476469218 L 937.3887347866438,55.767341501821605 L 941.5356680495145,48.584642394932345 L 948.7183671564037,52.73157565780292 L 944.571433893533,59.91427476469218 Z"
       id="path176"
       style="vector-effect:non-scaling-stroke;-inkscape-stroke:hairline;stroke-width:0.26458333;stroke-dasharray:none" />
    <path
       d="M 971.1142740277714,64.14895351642392 L 965.6571265993888,73.60101012677669 L 954.7428317426233,73.60101012677667 L 949.2856843142406,64.14895351642392 L 954.7428317426233,54.696896906071174 L 965.6571265993888,54.696896906071174 L 971.1142740277714,64.14895351642392 Z"
       id="path177"
       style="vector-effect:non-scaling-stroke;-inkscape-stroke:hairline;stroke-width:0.26458333;stroke-dasharray:none" />
    <path
       d="M 989.0356881415877,53.80202025355335 L 983.578540713205,44.34996364320061 L 989.0356881415878,34.89790703284784 L 990.0561022777378,34.89790703284784 L 990.0561022777378,53.80202025355335 L 989.0356881415877,53.80202025355335 Z"
       id="path178"
       style="vector-effect:non-scaling-stroke;-inkscape-stroke:hairline;stroke-width:0.26458333;stroke-dasharray:none" />
    <path
       d="M 107.05610227773775,170.0 L 1012.0561022777378,170.0 L 1012.0561022777378,0.0 L 107.05610227773775,0.0 L 107.05610227773775,170.0 Z"
       id="path179"
       style="vector-effect:non-scaling-stroke;-inkscape-stroke:hairline;stroke-width:0.26458333;stroke-dasharray:none" />
  </g>
</svg>
