<?xml version="1.0" encoding="UTF-8" standalone="no"?>
<svg
   height="300mm"
   version="1.1"
   viewBox="0 0 1200 300"
   width="1200mm"
   id="svg286"
   sodipodi:docname="tabica_2.4_MEDIDAS.svg"
   inkscape:version="1.4.2 (1:1.4.2+202505120737+ebf0e940d0)"
   xmlns:inkscape="http://www.inkscape.org/namespaces/inkscape"
   xmlns:sodipodi="http://sodipodi.sourceforge.net/DTD/sodipodi-0.dtd"
   xmlns="http://www.w3.org/2000/svg"
   xmlns:svg="http://www.w3.org/2000/svg">
  <sodipodi:namedview
     id="namedview286"
     pagecolor="#ffffff"
     bordercolor="#666666"
     borderopacity="1.0"
     inkscape:showpageshadow="2"
     inkscape:pageopacity="0.0"
     inkscape:pagecheckerboard="0"
     inkscape:deskcolor="#d1d1d1"
     inkscape:document-units="mm"
     showgrid="false"
     inkscape:zoom="0.18267275"
     inkscape:cx="2353.9363"
     inkscape:cy="1242.6594"
     inkscape:window-width="1920"
     inkscape:window-height="1011"
     inkscape:window-x="0"
     inkscape:window-y="0"
     inkscape:window-maximized="1"
     inkscape:current-layer="g1" />
  <defs
     id="defs1">
    <marker
       style="overflow:visible"
       id="Stop"
       refX="0"
       refY="0"
       orient="auto"
       inkscape:stockid="Stop"
       markerWidth="1"
       markerHeight="1"
       viewBox="0 0 1 1"
       inkscape:isstock="true"
       inkscape:collect="always"
       preserveAspectRatio="xMidYMid">
      <path
         style="fill:none;stroke:context-stroke;stroke-width:1"
         d="M 0,4 V -4"
         id="path203-7" />
    </marker>
  </defs>
  <g
     fill="none"
     stroke="blue"
     stroke-width="0.5"
     transform="translate(-707.9999999999998,65.0)"
     id="g286"
     style="vector-effect:non-scaling-stroke;-inkscape-stroke:hairline;stroke-width:0.26458333;stroke-dasharray:none">
    <path
       d="M 886.267949192431,61.21539030917347 L 877.4999999999998,61.21539030917347 L 877.4999999999998,25.646170927520416 L 886.267949192431,25.646170927520416 L 896.5358983848622,43.430780618346944 L 886.267949192431,61.21539030917347 Z"
       id="path1"
       style="vector-effect:non-scaling-stroke;-inkscape-stroke:hairline;stroke-width:0.26458333;stroke-dasharray:none" />
    <path
       d="M 882.8038475772934,67.21539030917347 L 877.4999999999998,76.40192378864703 L 877.4999999999998,67.21539030917347 L 882.8038475772934,67.21539030917347 Z"
       id="path2"
       style="vector-effect:non-scaling-stroke;-inkscape-stroke:hairline;stroke-width:0.26458333;stroke-dasharray:none" />
    <path
       d="M 887.9999999999999,70.21539030917336 L 894.8038475772934,82.0 L 881.1961524227064,82.0 L 887.9999999999999,70.21539030917336 Z"
       id="path3"
       style="vector-effect:non-scaling-stroke;-inkscape-stroke:hairline;stroke-width:0.26458333;stroke-dasharray:none" />
    <path
       d="M 899.9999999999999,79.00000000000011 L 893.1961524227064,67.21539030917347 L 906.8038475772934,67.21539030917347 L 899.9999999999999,79.00000000000011 Z"
       id="path4"
       style="vector-effect:non-scaling-stroke;-inkscape-stroke:hairline;stroke-width:0.26458333;stroke-dasharray:none" />
    <path
       d="M 899.9999999999999,49.43078061834683 L 906.8038475772934,61.21539030917347 L 893.1961524227064,61.21539030917347 L 899.9999999999999,49.43078061834683 Z"
       id="path5"
       style="vector-effect:non-scaling-stroke;-inkscape-stroke:hairline;stroke-width:0.26458333;stroke-dasharray:none" />
    <path
       d="M 911.9999999999999,58.215390309173586 L 905.1961524227064,46.430780618346944 L 918.8038475772934,46.430780618346944 L 911.9999999999999,58.215390309173586 Z"
       id="path6"
       style="vector-effect:non-scaling-stroke;-inkscape-stroke:hairline;stroke-width:0.26458333;stroke-dasharray:none" />
    <path
       d="M 899.9999999999999,37.43078061834706 L 893.1961524227064,25.646170927520416 L 906.8038475772934,25.646170927520416 L 899.9999999999999,37.43078061834706 Z"
       id="path7"
       style="vector-effect:non-scaling-stroke;-inkscape-stroke:hairline;stroke-width:0.26458333;stroke-dasharray:none" />
    <path
       d="M 911.9999999999999,28.646170927520302 L 918.8038475772934,40.430780618346944 L 905.1961524227064,40.430780618346944 L 911.9999999999999,28.646170927520302 Z"
       id="path8"
       style="vector-effect:non-scaling-stroke;-inkscape-stroke:hairline;stroke-width:0.26458333;stroke-dasharray:none" />
    <path
       d="M 923.9999999999999,37.43078061834706 L 917.1961524227064,25.646170927520416 L 930.8038475772934,25.646170927520416 L 923.9999999999999,37.43078061834706 Z"
       id="path9"
       style="vector-effect:non-scaling-stroke;-inkscape-stroke:hairline;stroke-width:0.26458333;stroke-dasharray:none" />
    <path
       d="M 935.9999999999999,28.646170927520302 L 942.8038475772934,40.430780618346944 L 929.1961524227064,40.430780618346944 L 935.9999999999999,28.646170927520302 Z"
       id="path10"
       style="vector-effect:non-scaling-stroke;-inkscape-stroke:hairline;stroke-width:0.26458333;stroke-dasharray:none" />
    <path
       d="M 947.9999999999999,37.43078061834706 L 941.1961524227064,25.646170927520416 L 954.8038475772934,25.646170927520416 L 947.9999999999999,37.43078061834706 Z"
       id="path11"
       style="vector-effect:non-scaling-stroke;-inkscape-stroke:hairline;stroke-width:0.26458333;stroke-dasharray:none" />
    <path
       d="M 898.267949192431,123.56921938165306 L 877.7320508075687,123.56921938165306 L 877.4999999999998,123.16729559300626 L 877.4999999999998,88.40192378864703 L 877.7320508075688,88.0 L 898.267949192431,88.0 L 908.5358983848622,105.78460969082664 L 898.267949192431,123.56921938165306 Z"
       id="path12"
       style="vector-effect:non-scaling-stroke;-inkscape-stroke:hairline;stroke-width:0.26458333;stroke-dasharray:none" />
    <path
       d="M 882.5995642670501,144.0 L 877.4999999999998,144.0 L 877.4999999999998,135.16729559300603 L 882.5995642670501,144.0 Z"
       id="path13"
       style="vector-effect:non-scaling-stroke;-inkscape-stroke:hairline;stroke-width:0.26458333;stroke-dasharray:none" />
    <path
       d="M 887.9999999999999,141.3538290724797 L 881.1961524227064,129.56921938165306 L 894.8038475772934,129.56921938165306 L 887.9999999999999,141.3538290724797 Z"
       id="path14"
       style="vector-effect:non-scaling-stroke;-inkscape-stroke:hairline;stroke-width:0.26458333;stroke-dasharray:none" />
    <path
       d="M 906.5995642670501,144.0 L 893.4004357329496,144.0 L 899.9999999999999,132.56921938165294 L 906.5995642670501,144.0 Z"
       id="path15"
       style="vector-effect:non-scaling-stroke;-inkscape-stroke:hairline;stroke-width:0.26458333;stroke-dasharray:none" />
    <path
       d="M 911.9999999999999,141.3538290724797 L 905.1961524227064,129.56921938165306 L 918.8038475772934,129.56921938165306 L 911.9999999999999,141.3538290724797 Z"
       id="path16"
       style="vector-effect:non-scaling-stroke;-inkscape-stroke:hairline;stroke-width:0.26458333;stroke-dasharray:none" />
    <path
       d="M 911.9999999999999,111.78460969082641 L 918.8038475772934,123.56921938165306 L 905.1961524227064,123.56921938165306 L 911.9999999999999,111.78460969082641 Z"
       id="path17"
       style="vector-effect:non-scaling-stroke;-inkscape-stroke:hairline;stroke-width:0.26458333;stroke-dasharray:none" />
    <path
       d="M 924.0,120.56921938165294 L 917.1961524227066,108.78460969082653 L 930.8038475772934,108.78460969082653 L 924.0,120.56921938165294 Z"
       id="path18"
       style="vector-effect:non-scaling-stroke;-inkscape-stroke:hairline;stroke-width:0.26458333;stroke-dasharray:none" />
    <path
       d="M 956.5358983848622,64.21539030917359 L 946.267949192431,82.0 L 925.7320508075687,82.0 L 915.4641016151376,64.21539030917347 L 925.7320508075688,46.430780618346944 L 946.267949192431,46.430780618346944 L 956.5358983848622,64.21539030917359 Z"
       id="path19"
       style="vector-effect:non-scaling-stroke;-inkscape-stroke:hairline;stroke-width:0.26458333;stroke-dasharray:none" />
    <path
       d="M 911.9999999999999,70.21539030917336 L 918.8038475772934,82.0 L 905.1961524227064,82.0 L 911.9999999999999,70.21539030917336 Z"
       id="path20"
       style="vector-effect:non-scaling-stroke;-inkscape-stroke:hairline;stroke-width:0.26458333;stroke-dasharray:none" />
    <path
       d="M 911.9999999999999,99.78460969082664 L 905.1961524227064,88.0 L 918.8038475772934,88.0 L 911.9999999999999,99.78460969082664 Z"
       id="path21"
       style="vector-effect:non-scaling-stroke;-inkscape-stroke:hairline;stroke-width:0.26458333;stroke-dasharray:none" />
    <path
       d="M 923.9999999999999,90.99999999999989 L 930.8038475772934,102.78460969082653 L 917.1961524227064,102.78460969082653 L 923.9999999999999,90.99999999999989 Z"
       id="path22"
       style="vector-effect:non-scaling-stroke;-inkscape-stroke:hairline;stroke-width:0.26458333;stroke-dasharray:none" />
    <path
       d="M 935.9999999999999,99.78460969082664 L 929.1961524227064,88.0 L 942.8038475772934,88.0 L 935.9999999999999,99.78460969082664 Z"
       id="path23"
       style="vector-effect:non-scaling-stroke;-inkscape-stroke:hairline;stroke-width:0.26458333;stroke-dasharray:none" />
    <path
       d="M 947.9999999999999,90.99999999999989 L 954.8038475772934,102.78460969082653 L 941.1961524227064,102.78460969082653 L 947.9999999999999,90.99999999999989 Z"
       id="path24"
       style="vector-effect:non-scaling-stroke;-inkscape-stroke:hairline;stroke-width:0.26458333;stroke-dasharray:none" />
    <path
       d="M 959.9999999999999,99.78460969082664 L 953.1961524227064,88.0 L 966.8038475772934,88.0 L 959.9999999999999,99.78460969082664 Z"
       id="path25"
       style="vector-effect:non-scaling-stroke;-inkscape-stroke:hairline;stroke-width:0.26458333;stroke-dasharray:none" />
    <path
       d="M 959.9999999999999,70.21539030917336 L 966.8038475772934,82.0 L 953.1961524227064,82.0 L 959.9999999999999,70.21539030917336 Z"
       id="path26"
       style="vector-effect:non-scaling-stroke;-inkscape-stroke:hairline;stroke-width:0.26458333;stroke-dasharray:none" />
    <path
       d="M 972.0,78.99999999999989 L 965.1961524227066,67.21539030917347 L 978.8038475772934,67.21539030917347 L 972.0,78.99999999999989 Z"
       id="path27"
       style="vector-effect:non-scaling-stroke;-inkscape-stroke:hairline;stroke-width:0.26458333;stroke-dasharray:none" />
    <path
       d="M 994.267949192431,40.430780618346944 L 973.7320508075687,40.430780618346944 L 964.2457351945704,24.0 L 1003.7542648054294,24.0 L 994.267949192431,40.430780618346944 Z"
       id="path28"
       style="vector-effect:non-scaling-stroke;-inkscape-stroke:hairline;stroke-width:0.26458333;stroke-dasharray:none" />
    <path
       d="M 959.9999999999999,28.646170927520302 L 966.8038475772934,40.430780618346944 L 953.1961524227064,40.430780618346944 L 959.9999999999999,28.646170927520302 Z"
       id="path29"
       style="vector-effect:non-scaling-stroke;-inkscape-stroke:hairline;stroke-width:0.26458333;stroke-dasharray:none" />
    <path
       d="M 959.9999999999999,58.215390309173586 L 953.1961524227064,46.430780618346944 L 966.8038475772934,46.430780618346944 L 959.9999999999999,58.215390309173586 Z"
       id="path30"
       style="vector-effect:non-scaling-stroke;-inkscape-stroke:hairline;stroke-width:0.26458333;stroke-dasharray:none" />
    <path
       d="M 971.9999999999999,49.43078061834683 L 978.8038475772934,61.21539030917347 L 965.1961524227064,61.21539030917347 L 971.9999999999999,49.43078061834683 Z"
       id="path31"
       style="vector-effect:non-scaling-stroke;-inkscape-stroke:hairline;stroke-width:0.26458333;stroke-dasharray:none" />
    <path
       d="M 983.9999999999999,58.215390309173586 L 977.1961524227064,46.430780618346944 L 990.8038475772934,46.430780618346944 L 983.9999999999999,58.215390309173586 Z"
       id="path32"
       style="vector-effect:non-scaling-stroke;-inkscape-stroke:hairline;stroke-width:0.26458333;stroke-dasharray:none" />
    <path
       d="M 995.9999999999999,49.43078061834683 L 1002.8038475772934,61.21539030917347 L 989.1961524227064,61.21539030917347 L 995.9999999999999,49.43078061834683 Z"
       id="path33"
       style="vector-effect:non-scaling-stroke;-inkscape-stroke:hairline;stroke-width:0.26458333;stroke-dasharray:none" />
    <path
       d="M 1007.9999999999999,58.215390309173586 L 1001.1961524227064,46.430780618346944 L 1014.8038475772934,46.430780618346944 L 1007.9999999999999,58.215390309173586 Z"
       id="path34"
       style="vector-effect:non-scaling-stroke;-inkscape-stroke:hairline;stroke-width:0.26458333;stroke-dasharray:none" />
    <path
       d="M 1007.9999999999999,28.646170927520302 L 1014.8038475772934,40.430780618346944 L 1001.1961524227064,40.430780618346944 L 1007.9999999999999,28.646170927520302 Z"
       id="path35"
       style="vector-effect:non-scaling-stroke;-inkscape-stroke:hairline;stroke-width:0.26458333;stroke-dasharray:none" />
    <path
       d="M 1020.0,37.43078061834683 L 1013.1961524227066,25.646170927520416 L 1026.8038475772933,25.646170927520416 L 1020.0,37.43078061834683 Z"
       id="path36"
       style="vector-effect:non-scaling-stroke;-inkscape-stroke:hairline;stroke-width:0.26458333;stroke-dasharray:none" />
    <path
       d="M 958.4722325026743,144.0 L 937.5277674973255,144.0 L 927.4641016151376,126.56921938165306 L 937.7320508075688,108.78460969082653 L 958.267949192431,108.78460969082653 L 968.5358983848622,126.56921938165317 L 958.4722325026743,144.0 Z"
       id="path37"
       style="vector-effect:non-scaling-stroke;-inkscape-stroke:hairline;stroke-width:0.26458333;stroke-dasharray:none" />
    <path
       d="M 930.5995642670501,144.0 L 917.4004357329496,144.0 L 923.9999999999999,132.56921938165294 L 930.5995642670501,144.0 Z"
       id="path38"
       style="vector-effect:non-scaling-stroke;-inkscape-stroke:hairline;stroke-width:0.26458333;stroke-dasharray:none" />
    <path
       d="M 978.5995642670501,144.0 L 965.4004357329496,144.0 L 971.9999999999999,132.56921938165294 L 978.5995642670501,144.0 Z"
       id="path39"
       style="vector-effect:non-scaling-stroke;-inkscape-stroke:hairline;stroke-width:0.26458333;stroke-dasharray:none" />
    <path
       d="M 984.0,141.35382907247947 L 977.1961524227066,129.56921938165306 L 990.8038475772934,129.56921938165306 L 984.0,141.35382907247947 Z"
       id="path40"
       style="vector-effect:non-scaling-stroke;-inkscape-stroke:hairline;stroke-width:0.26458333;stroke-dasharray:none" />
    <path
       d="M 1016.5358983848622,85.00000000000011 L 1006.267949192431,102.78460969082653 L 985.7320508075687,102.78460969082653 L 975.4641016151376,85.0 L 985.7320508075688,67.21539030917347 L 1006.267949192431,67.21539030917347 L 1016.5358983848622,85.00000000000011 Z"
       id="path41"
       style="vector-effect:non-scaling-stroke;-inkscape-stroke:hairline;stroke-width:0.26458333;stroke-dasharray:none" />
    <path
       d="M 971.9999999999999,90.99999999999989 L 978.8038475772934,102.78460969082653 L 965.1961524227064,102.78460969082653 L 971.9999999999999,90.99999999999989 Z"
       id="path42"
       style="vector-effect:non-scaling-stroke;-inkscape-stroke:hairline;stroke-width:0.26458333;stroke-dasharray:none" />
    <path
       d="M 971.9999999999999,120.56921938165317 L 965.1961524227064,108.78460969082653 L 978.8038475772934,108.78460969082653 L 971.9999999999999,120.56921938165317 Z"
       id="path43"
       style="vector-effect:non-scaling-stroke;-inkscape-stroke:hairline;stroke-width:0.26458333;stroke-dasharray:none" />
    <path
       d="M 983.9999999999999,111.78460969082641 L 990.8038475772934,123.56921938165306 L 977.1961524227064,123.56921938165306 L 983.9999999999999,111.78460969082641 Z"
       id="path44"
       style="vector-effect:non-scaling-stroke;-inkscape-stroke:hairline;stroke-width:0.26458333;stroke-dasharray:none" />
    <path
       d="M 995.9999999999999,120.56921938165317 L 989.1961524227064,108.78460969082653 L 1002.8038475772934,108.78460969082653 L 995.9999999999999,120.56921938165317 Z"
       id="path45"
       style="vector-effect:non-scaling-stroke;-inkscape-stroke:hairline;stroke-width:0.26458333;stroke-dasharray:none" />
    <path
       d="M 1007.9999999999999,111.78460969082641 L 1014.8038475772934,123.56921938165306 L 1001.1961524227064,123.56921938165306 L 1007.9999999999999,111.78460969082641 Z"
       id="path46"
       style="vector-effect:non-scaling-stroke;-inkscape-stroke:hairline;stroke-width:0.26458333;stroke-dasharray:none" />
    <path
       d="M 1019.9999999999998,120.56921938165306 L 1013.1961524227064,108.78460969082653 L 1026.803847577293,108.78460969082653 L 1019.9999999999998,120.56921938165306 Z"
       id="path47"
       style="vector-effect:non-scaling-stroke;-inkscape-stroke:hairline;stroke-width:0.26458333;stroke-dasharray:none" />
    <path
       d="M 1019.9999999999998,91.0 L 1026.803847577293,102.78460969082653 L 1013.1961524227064,102.78460969082653 L 1019.9999999999998,91.0 Z"
       id="path48"
       style="vector-effect:non-scaling-stroke;-inkscape-stroke:hairline;stroke-width:0.26458333;stroke-dasharray:none" />
    <path
       d="M 1032.0,99.78460969082641 L 1025.1961524227067,88.0 L 1038.8038475772933,88.0 L 1032.0,99.78460969082641 Z"
       id="path49"
       style="vector-effect:non-scaling-stroke;-inkscape-stroke:hairline;stroke-width:0.26458333;stroke-dasharray:none" />
    <path
       d="M 1064.535898384862,43.430780618346944 L 1054.267949192431,61.21539030917347 L 1033.7320508075686,61.21539030917347 L 1023.4641016151377,43.43078061834689 L 1033.7320508075688,25.646170927520416 L 1054.2679491924312,25.646170927520416 L 1064.535898384862,43.430780618346944 Z"
       id="path50"
       style="vector-effect:non-scaling-stroke;-inkscape-stroke:hairline;stroke-width:0.26458333;stroke-dasharray:none" />
    <path
       d="M 1019.9999999999998,49.430780618346944 L 1026.803847577293,61.21539030917347 L 1013.1961524227064,61.21539030917347 L 1019.9999999999998,49.430780618346944 Z"
       id="path51"
       style="vector-effect:non-scaling-stroke;-inkscape-stroke:hairline;stroke-width:0.26458333;stroke-dasharray:none" />
    <path
       d="M 1019.9999999999998,79.0 L 1013.1961524227064,67.21539030917347 L 1026.803847577293,67.21539030917347 L 1019.9999999999998,79.0 Z"
       id="path52"
       style="vector-effect:non-scaling-stroke;-inkscape-stroke:hairline;stroke-width:0.26458333;stroke-dasharray:none" />
    <path
       d="M 1031.9999999999998,70.21539030917359 L 1038.803847577293,82.0 L 1025.1961524227065,82.0 L 1031.9999999999998,70.21539030917359 Z"
       id="path53"
       style="vector-effect:non-scaling-stroke;-inkscape-stroke:hairline;stroke-width:0.26458333;stroke-dasharray:none" />
    <path
       d="M 1043.9999999999998,78.99999999999989 L 1037.1961524227065,67.21539030917347 L 1050.803847577293,67.21539030917347 L 1043.9999999999998,78.99999999999989 Z"
       id="path54"
       style="vector-effect:non-scaling-stroke;-inkscape-stroke:hairline;stroke-width:0.26458333;stroke-dasharray:none" />
    <path
       d="M 1055.9999999999998,70.21539030917359 L 1062.803847577293,82.0 L 1049.1961524227065,82.0 L 1055.9999999999998,70.21539030917359 Z"
       id="path55"
       style="vector-effect:non-scaling-stroke;-inkscape-stroke:hairline;stroke-width:0.26458333;stroke-dasharray:none" />
    <path
       d="M 1067.9999999999998,78.99999999999989 L 1061.1961524227065,67.21539030917347 L 1074.803847577293,67.21539030917347 L 1067.9999999999998,78.99999999999989 Z"
       id="path56"
       style="vector-effect:non-scaling-stroke;-inkscape-stroke:hairline;stroke-width:0.26458333;stroke-dasharray:none" />
    <path
       d="M 1067.9999999999998,49.43078061834706 L 1074.803847577293,61.21539030917347 L 1061.1961524227065,61.21539030917347 L 1067.9999999999998,49.43078061834706 Z"
       id="path57"
       style="vector-effect:non-scaling-stroke;-inkscape-stroke:hairline;stroke-width:0.26458333;stroke-dasharray:none" />
    <path
       d="M 1080.0,58.21539030917336 L 1073.1961524227067,46.430780618346944 L 1086.8038475772933,46.430780618346944 L 1080.0,58.21539030917336 Z"
       id="path58"
       style="vector-effect:non-scaling-stroke;-inkscape-stroke:hairline;stroke-width:0.26458333;stroke-dasharray:none" />
    <path
       d="M 1067.9999999999998,37.43078061834683 L 1061.1961524227065,25.646170927520416 L 1074.803847577293,25.646170927520416 L 1067.9999999999998,37.43078061834683 Z"
       id="path59"
       style="vector-effect:non-scaling-stroke;-inkscape-stroke:hairline;stroke-width:0.26458333;stroke-dasharray:none" />
    <path
       d="M 1079.9999999999998,28.64617092752053 L 1086.803847577293,40.430780618346944 L 1073.1961524227065,40.430780618346944 L 1079.9999999999998,28.64617092752053 Z"
       id="path60"
       style="vector-effect:non-scaling-stroke;-inkscape-stroke:hairline;stroke-width:0.26458333;stroke-dasharray:none" />
    <path
       d="M 1091.9999999999998,37.43078061834683 L 1085.1961524227065,25.646170927520416 L 1098.803847577293,25.646170927520416 L 1091.9999999999998,37.43078061834683 Z"
       id="path61"
       style="vector-effect:non-scaling-stroke;-inkscape-stroke:hairline;stroke-width:0.26458333;stroke-dasharray:none" />
    <path
       d="M 1103.9999999999998,28.64617092752053 L 1110.803847577293,40.430780618346944 L 1097.1961524227065,40.430780618346944 L 1103.9999999999998,28.64617092752053 Z"
       id="path62"
       style="vector-effect:non-scaling-stroke;-inkscape-stroke:hairline;stroke-width:0.26458333;stroke-dasharray:none" />
    <path
       d="M 1115.9999999999998,37.43078061834683 L 1109.1961524227065,25.646170927520416 L 1122.803847577293,25.646170927520416 L 1115.9999999999998,37.43078061834683 Z"
       id="path63"
       style="vector-effect:non-scaling-stroke;-inkscape-stroke:hairline;stroke-width:0.26458333;stroke-dasharray:none" />
    <path
       d="M 997.7320508075688,129.56921938165306 L 1018.267949192431,129.56921938165306 L 1026.59956426705,144.0 L 989.4004357329496,144.0 L 997.7320508075688,129.56921938165306 Z"
       id="path64"
       style="vector-effect:non-scaling-stroke;-inkscape-stroke:hairline;stroke-width:0.26458333;stroke-dasharray:none" />
    <path
       d="M 1076.535898384862,105.78460969082653 L 1066.267949192431,123.56921938165306 L 1045.7320508075686,123.56921938165306 L 1035.4641016151377,105.78460969082653 L 1045.7320508075688,88.0 L 1066.2679491924312,88.0 L 1076.535898384862,105.78460969082653 Z"
       id="path65"
       style="vector-effect:non-scaling-stroke;-inkscape-stroke:hairline;stroke-width:0.26458333;stroke-dasharray:none" />
    <path
       d="M 1031.9999999999998,111.78460969082664 L 1038.803847577293,123.56921938165306 L 1025.1961524227065,123.56921938165306 L 1031.9999999999998,111.78460969082664 Z"
       id="path66"
       style="vector-effect:non-scaling-stroke;-inkscape-stroke:hairline;stroke-width:0.26458333;stroke-dasharray:none" />
    <path
       d="M 1031.9999999999998,141.35382907247947 L 1025.1961524227065,129.56921938165306 L 1038.803847577293,129.56921938165306 L 1031.9999999999998,141.35382907247947 Z"
       id="path67"
       style="vector-effect:non-scaling-stroke;-inkscape-stroke:hairline;stroke-width:0.26458333;stroke-dasharray:none" />
    <path
       d="M 1050.5995642670498,144.0 L 1037.4004357329497,144.0 L 1043.9999999999998,132.56921938165317 L 1050.5995642670498,144.0 Z"
       id="path68"
       style="vector-effect:non-scaling-stroke;-inkscape-stroke:hairline;stroke-width:0.26458333;stroke-dasharray:none" />
    <path
       d="M 1055.9999999999998,141.35382907247947 L 1049.1961524227065,129.56921938165306 L 1062.803847577293,129.56921938165306 L 1055.9999999999998,141.35382907247947 Z"
       id="path69"
       style="vector-effect:non-scaling-stroke;-inkscape-stroke:hairline;stroke-width:0.26458333;stroke-dasharray:none" />
    <path
       d="M 1074.5995642670498,144.0 L 1061.4004357329497,144.0 L 1067.9999999999998,132.56921938165317 L 1074.5995642670498,144.0 Z"
       id="path70"
       style="vector-effect:non-scaling-stroke;-inkscape-stroke:hairline;stroke-width:0.26458333;stroke-dasharray:none" />
    <path
       d="M 1079.9999999999998,141.35382907247947 L 1073.1961524227065,129.56921938165306 L 1086.803847577293,129.56921938165306 L 1079.9999999999998,141.35382907247947 Z"
       id="path71"
       style="vector-effect:non-scaling-stroke;-inkscape-stroke:hairline;stroke-width:0.26458333;stroke-dasharray:none" />
    <path
       d="M 1079.9999999999998,111.78460969082664 L 1086.803847577293,123.56921938165306 L 1073.1961524227065,123.56921938165306 L 1079.9999999999998,111.78460969082664 Z"
       id="path72"
       style="vector-effect:non-scaling-stroke;-inkscape-stroke:hairline;stroke-width:0.26458333;stroke-dasharray:none" />
    <path
       d="M 1092.0,120.56921938165294 L 1085.1961524227067,108.78460969082653 L 1098.8038475772933,108.78460969082653 L 1092.0,120.56921938165294 Z"
       id="path73"
       style="vector-effect:non-scaling-stroke;-inkscape-stroke:hairline;stroke-width:0.26458333;stroke-dasharray:none" />
    <path
       d="M 1124.535898384862,64.21539030917347 L 1114.267949192431,82.0 L 1093.7320508075686,82.0 L 1083.4641016151377,64.21539030917347 L 1093.7320508075688,46.430780618346944 L 1114.2679491924312,46.430780618346944 L 1124.535898384862,64.21539030917347 Z"
       id="path74"
       style="vector-effect:non-scaling-stroke;-inkscape-stroke:hairline;stroke-width:0.26458333;stroke-dasharray:none" />
    <path
       d="M 1079.9999999999998,70.21539030917359 L 1086.803847577293,82.0 L 1073.1961524227065,82.0 L 1079.9999999999998,70.21539030917359 Z"
       id="path75"
       style="vector-effect:non-scaling-stroke;-inkscape-stroke:hairline;stroke-width:0.26458333;stroke-dasharray:none" />
    <path
       d="M 1079.9999999999998,99.78460969082641 L 1073.1961524227065,88.0 L 1086.803847577293,88.0 L 1079.9999999999998,99.78460969082641 Z"
       id="path76"
       style="vector-effect:non-scaling-stroke;-inkscape-stroke:hairline;stroke-width:0.26458333;stroke-dasharray:none" />
    <path
       d="M 1091.9999999999998,91.00000000000011 L 1098.803847577293,102.78460969082653 L 1085.1961524227065,102.78460969082653 L 1091.9999999999998,91.00000000000011 Z"
       id="path77"
       style="vector-effect:non-scaling-stroke;-inkscape-stroke:hairline;stroke-width:0.26458333;stroke-dasharray:none" />
    <path
       d="M 1103.9999999999998,99.78460969082641 L 1097.1961524227065,88.0 L 1110.803847577293,88.0 L 1103.9999999999998,99.78460969082641 Z"
       id="path78"
       style="vector-effect:non-scaling-stroke;-inkscape-stroke:hairline;stroke-width:0.26458333;stroke-dasharray:none" />
    <path
       d="M 1115.9999999999998,91.00000000000011 L 1122.803847577293,102.78460969082653 L 1109.1961524227065,102.78460969082653 L 1115.9999999999998,91.00000000000011 Z"
       id="path79"
       style="vector-effect:non-scaling-stroke;-inkscape-stroke:hairline;stroke-width:0.26458333;stroke-dasharray:none" />
    <path
       d="M 1127.9999999999998,99.78460969082641 L 1121.1961524227065,88.0 L 1134.803847577293,88.0 L 1127.9999999999998,99.78460969082641 Z"
       id="path80"
       style="vector-effect:non-scaling-stroke;-inkscape-stroke:hairline;stroke-width:0.26458333;stroke-dasharray:none" />
    <path
       d="M 1127.9999999999998,70.21539030917359 L 1134.803847577293,82.0 L 1121.1961524227065,82.0 L 1127.9999999999998,70.21539030917359 Z"
       id="path81"
       style="vector-effect:non-scaling-stroke;-inkscape-stroke:hairline;stroke-width:0.26458333;stroke-dasharray:none" />
    <path
       d="M 1140.0,78.99999999999989 L 1133.1961524227067,67.21539030917347 L 1146.8038475772933,67.21539030917347 L 1140.0,78.99999999999989 Z"
       id="path82"
       style="vector-effect:non-scaling-stroke;-inkscape-stroke:hairline;stroke-width:0.26458333;stroke-dasharray:none" />
    <path
       d="M 1162.267949192431,40.430780618346944 L 1141.7320508075686,40.430780618346944 L 1132.2457351945704,24.0 L 1171.7542648054293,24.0 L 1162.267949192431,40.430780618346944 Z"
       id="path83"
       style="vector-effect:non-scaling-stroke;-inkscape-stroke:hairline;stroke-width:0.26458333;stroke-dasharray:none" />
    <path
       d="M 1127.9999999999998,28.64617092752053 L 1134.803847577293,40.430780618346944 L 1121.1961524227065,40.430780618346944 L 1127.9999999999998,28.64617092752053 Z"
       id="path84"
       style="vector-effect:non-scaling-stroke;-inkscape-stroke:hairline;stroke-width:0.26458333;stroke-dasharray:none" />
    <path
       d="M 1127.9999999999998,58.21539030917336 L 1121.1961524227065,46.430780618346944 L 1134.803847577293,46.430780618346944 L 1127.9999999999998,58.21539030917336 Z"
       id="path85"
       style="vector-effect:non-scaling-stroke;-inkscape-stroke:hairline;stroke-width:0.26458333;stroke-dasharray:none" />
    <path
       d="M 1139.9999999999998,49.43078061834706 L 1146.803847577293,61.21539030917347 L 1133.1961524227065,61.21539030917347 L 1139.9999999999998,49.43078061834706 Z"
       id="path86"
       style="vector-effect:non-scaling-stroke;-inkscape-stroke:hairline;stroke-width:0.26458333;stroke-dasharray:none" />
    <path
       d="M 1151.9999999999998,58.21539030917336 L 1145.1961524227065,46.430780618346944 L 1158.803847577293,46.430780618346944 L 1151.9999999999998,58.21539030917336 Z"
       id="path87"
       style="vector-effect:non-scaling-stroke;-inkscape-stroke:hairline;stroke-width:0.26458333;stroke-dasharray:none" />
    <path
       d="M 1163.9999999999998,49.43078061834706 L 1170.803847577293,61.21539030917347 L 1157.1961524227065,61.21539030917347 L 1163.9999999999998,49.43078061834706 Z"
       id="path88"
       style="vector-effect:non-scaling-stroke;-inkscape-stroke:hairline;stroke-width:0.26458333;stroke-dasharray:none" />
    <path
       d="M 1175.9999999999998,58.21539030917336 L 1169.1961524227065,46.430780618346944 L 1182.803847577293,46.430780618346944 L 1175.9999999999998,58.21539030917336 Z"
       id="path89"
       style="vector-effect:non-scaling-stroke;-inkscape-stroke:hairline;stroke-width:0.26458333;stroke-dasharray:none" />
    <path
       d="M 1175.9999999999998,28.64617092752053 L 1182.803847577293,40.430780618346944 L 1169.1961524227065,40.430780618346944 L 1175.9999999999998,28.64617092752053 Z"
       id="path90"
       style="vector-effect:non-scaling-stroke;-inkscape-stroke:hairline;stroke-width:0.26458333;stroke-dasharray:none" />
    <path
       d="M 1188.0,37.43078061834683 L 1181.1961524227067,25.646170927520416 L 1194.8038475772933,25.646170927520416 L 1188.0,37.43078061834683 Z"
       id="path91"
       style="vector-effect:non-scaling-stroke;-inkscape-stroke:hairline;stroke-width:0.26458333;stroke-dasharray:none" />
    <path
       d="M 1126.4722325026742,144.0 L 1105.5277674973254,144.0 L 1095.4641016151377,126.56921938165306 L 1105.7320508075686,108.78460969082653 L 1126.267949192431,108.78460969082653 L 1136.5358983848619,126.56921938165306 L 1126.4722325026742,144.0 Z"
       id="path92"
       style="vector-effect:non-scaling-stroke;-inkscape-stroke:hairline;stroke-width:0.26458333;stroke-dasharray:none" />
    <path
       d="M 1098.5995642670498,144.0 L 1085.4004357329497,144.0 L 1091.9999999999998,132.56921938165317 L 1098.5995642670498,144.0 Z"
       id="path93"
       style="vector-effect:non-scaling-stroke;-inkscape-stroke:hairline;stroke-width:0.26458333;stroke-dasharray:none" />
    <path
       d="M 1146.5995642670498,144.0 L 1133.4004357329497,144.0 L 1139.9999999999998,132.56921938165317 L 1146.5995642670498,144.0 Z"
       id="path94"
       style="vector-effect:non-scaling-stroke;-inkscape-stroke:hairline;stroke-width:0.26458333;stroke-dasharray:none" />
    <path
       d="M 1151.9999999999998,141.35382907247947 L 1145.1961524227065,129.56921938165306 L 1158.803847577293,129.56921938165306 L 1151.9999999999998,141.35382907247947 Z"
       id="path95"
       style="vector-effect:non-scaling-stroke;-inkscape-stroke:hairline;stroke-width:0.26458333;stroke-dasharray:none" />
    <path
       d="M 1184.5358983848619,85.0 L 1174.267949192431,102.78460969082653 L 1153.7320508075686,102.78460969082653 L 1143.4641016151377,85.0 L 1153.7320508075686,67.21539030917347 L 1174.267949192431,67.21539030917347 L 1184.5358983848619,85.0 Z"
       id="path96"
       style="vector-effect:non-scaling-stroke;-inkscape-stroke:hairline;stroke-width:0.26458333;stroke-dasharray:none" />
    <path
       d="M 1139.9999999999998,91.00000000000011 L 1146.803847577293,102.78460969082653 L 1133.1961524227065,102.78460969082653 L 1139.9999999999998,91.00000000000011 Z"
       id="path97"
       style="vector-effect:non-scaling-stroke;-inkscape-stroke:hairline;stroke-width:0.26458333;stroke-dasharray:none" />
    <path
       d="M 1139.9999999999998,120.56921938165294 L 1133.1961524227065,108.78460969082653 L 1146.803847577293,108.78460969082653 L 1139.9999999999998,120.56921938165294 Z"
       id="path98"
       style="vector-effect:non-scaling-stroke;-inkscape-stroke:hairline;stroke-width:0.26458333;stroke-dasharray:none" />
    <path
       d="M 1151.9999999999998,111.78460969082664 L 1158.803847577293,123.56921938165306 L 1145.1961524227065,123.56921938165306 L 1151.9999999999998,111.78460969082664 Z"
       id="path99"
       style="vector-effect:non-scaling-stroke;-inkscape-stroke:hairline;stroke-width:0.26458333;stroke-dasharray:none" />
    <path
       d="M 1163.9999999999998,120.56921938165294 L 1157.1961524227065,108.78460969082653 L 1170.803847577293,108.78460969082653 L 1163.9999999999998,120.56921938165294 Z"
       id="path100"
       style="vector-effect:non-scaling-stroke;-inkscape-stroke:hairline;stroke-width:0.26458333;stroke-dasharray:none" />
    <path
       d="M 1175.9999999999998,111.78460969082664 L 1182.803847577293,123.56921938165306 L 1169.1961524227065,123.56921938165306 L 1175.9999999999998,111.78460969082664 Z"
       id="path101"
       style="vector-effect:non-scaling-stroke;-inkscape-stroke:hairline;stroke-width:0.26458333;stroke-dasharray:none" />
    <path
       d="M 1187.9999999999998,120.56921938165294 L 1181.1961524227065,108.78460969082653 L 1194.803847577293,108.78460969082653 L 1187.9999999999998,120.56921938165294 Z"
       id="path102"
       style="vector-effect:non-scaling-stroke;-inkscape-stroke:hairline;stroke-width:0.26458333;stroke-dasharray:none" />
    <path
       d="M 1187.9999999999998,91.00000000000011 L 1194.803847577293,102.78460969082653 L 1181.1961524227065,102.78460969082653 L 1187.9999999999998,91.00000000000011 Z"
       id="path103"
       style="vector-effect:non-scaling-stroke;-inkscape-stroke:hairline;stroke-width:0.26458333;stroke-dasharray:none" />
    <path
       d="M 1199.9999999999998,99.78460969082641 L 1193.1961524227065,88.0 L 1206.803847577293,88.0 L 1199.9999999999998,99.78460969082641 Z"
       id="path104"
       style="vector-effect:non-scaling-stroke;-inkscape-stroke:hairline;stroke-width:0.26458333;stroke-dasharray:none" />
    <path
       d="M 1232.5358983848619,43.430780618346944 L 1222.267949192431,61.21539030917347 L 1201.7320508075686,61.21539030917347 L 1191.4641016151377,43.430780618346944 L 1201.7320508075686,25.646170927520416 L 1222.267949192431,25.646170927520416 L 1232.5358983848619,43.430780618346944 Z"
       id="path105"
       style="vector-effect:non-scaling-stroke;-inkscape-stroke:hairline;stroke-width:0.26458333;stroke-dasharray:none" />
    <path
       d="M 1187.9999999999998,49.43078061834706 L 1194.803847577293,61.21539030917347 L 1181.1961524227065,61.21539030917347 L 1187.9999999999998,49.43078061834706 Z"
       id="path106"
       style="vector-effect:non-scaling-stroke;-inkscape-stroke:hairline;stroke-width:0.26458333;stroke-dasharray:none" />
    <path
       d="M 1187.9999999999998,78.99999999999989 L 1181.1961524227065,67.21539030917347 L 1194.803847577293,67.21539030917347 L 1187.9999999999998,78.99999999999989 Z"
       id="path107"
       style="vector-effect:non-scaling-stroke;-inkscape-stroke:hairline;stroke-width:0.26458333;stroke-dasharray:none" />
    <path
       d="M 1199.9999999999998,70.21539030917359 L 1206.803847577293,82.0 L 1193.1961524227065,82.0 L 1199.9999999999998,70.21539030917359 Z"
       id="path108"
       style="vector-effect:non-scaling-stroke;-inkscape-stroke:hairline;stroke-width:0.26458333;stroke-dasharray:none" />
    <path
       d="M 1211.9999999999998,78.99999999999989 L 1205.1961524227065,67.21539030917347 L 1218.803847577293,67.21539030917347 L 1211.9999999999998,78.99999999999989 Z"
       id="path109"
       style="vector-effect:non-scaling-stroke;-inkscape-stroke:hairline;stroke-width:0.26458333;stroke-dasharray:none" />
    <path
       d="M 1223.9999999999998,70.21539030917359 L 1230.803847577293,82.0 L 1217.1961524227065,82.0 L 1223.9999999999998,70.21539030917359 Z"
       id="path110"
       style="vector-effect:non-scaling-stroke;-inkscape-stroke:hairline;stroke-width:0.26458333;stroke-dasharray:none" />
    <path
       d="M 1235.9999999999998,78.99999999999989 L 1229.1961524227065,67.21539030917347 L 1242.803847577293,67.21539030917347 L 1235.9999999999998,78.99999999999989 Z"
       id="path111"
       style="vector-effect:non-scaling-stroke;-inkscape-stroke:hairline;stroke-width:0.26458333;stroke-dasharray:none" />
    <path
       d="M 1235.9999999999998,49.43078061834706 L 1242.803847577293,61.21539030917347 L 1229.1961524227065,61.21539030917347 L 1235.9999999999998,49.43078061834706 Z"
       id="path112"
       style="vector-effect:non-scaling-stroke;-inkscape-stroke:hairline;stroke-width:0.26458333;stroke-dasharray:none" />
    <path
       d="M 1247.9999999999998,58.21539030917336 L 1241.1961524227065,46.430780618346944 L 1254.803847577293,46.430780618346944 L 1247.9999999999998,58.21539030917336 Z"
       id="path113"
       style="vector-effect:non-scaling-stroke;-inkscape-stroke:hairline;stroke-width:0.26458333;stroke-dasharray:none" />
    <path
       d="M 1235.9999999999998,37.43078061834683 L 1229.1961524227065,25.646170927520416 L 1242.803847577293,25.646170927520416 L 1235.9999999999998,37.43078061834683 Z"
       id="path114"
       style="vector-effect:non-scaling-stroke;-inkscape-stroke:hairline;stroke-width:0.26458333;stroke-dasharray:none" />
    <path
       d="M 1247.9999999999998,28.64617092752053 L 1254.803847577293,40.430780618346944 L 1241.1961524227065,40.430780618346944 L 1247.9999999999998,28.64617092752053 Z"
       id="path115"
       style="vector-effect:non-scaling-stroke;-inkscape-stroke:hairline;stroke-width:0.26458333;stroke-dasharray:none" />
    <path
       d="M 1259.9999999999998,37.43078061834683 L 1253.1961524227065,25.646170927520416 L 1266.803847577293,25.646170927520416 L 1259.9999999999998,37.43078061834683 Z"
       id="path116"
       style="vector-effect:non-scaling-stroke;-inkscape-stroke:hairline;stroke-width:0.26458333;stroke-dasharray:none" />
    <path
       d="M 1271.9999999999998,28.64617092752053 L 1278.803847577293,40.430780618346944 L 1265.1961524227065,40.430780618346944 L 1271.9999999999998,28.64617092752053 Z"
       id="path117"
       style="vector-effect:non-scaling-stroke;-inkscape-stroke:hairline;stroke-width:0.26458333;stroke-dasharray:none" />
    <path
       d="M 1283.9999999999998,37.43078061834683 L 1277.1961524227065,25.646170927520416 L 1290.803847577293,25.646170927520416 L 1283.9999999999998,37.43078061834683 Z"
       id="path118"
       style="vector-effect:non-scaling-stroke;-inkscape-stroke:hairline;stroke-width:0.26458333;stroke-dasharray:none" />
    <path
       d="M 1165.7320508075686,129.56921938165306 L 1186.267949192431,129.56921938165306 L 1194.5995642670498,144.0 L 1157.4004357329497,144.0 L 1165.7320508075686,129.56921938165306 Z"
       id="path119"
       style="vector-effect:non-scaling-stroke;-inkscape-stroke:hairline;stroke-width:0.26458333;stroke-dasharray:none" />
    <path
       d="M 1244.5358983848619,105.78460969082653 L 1234.267949192431,123.56921938165306 L 1213.7320508075686,123.56921938165306 L 1203.4641016151377,105.78460969082653 L 1213.7320508075686,88.0 L 1234.267949192431,88.0 L 1244.5358983848619,105.78460969082653 Z"
       id="path120"
       style="vector-effect:non-scaling-stroke;-inkscape-stroke:hairline;stroke-width:0.26458333;stroke-dasharray:none" />
    <path
       d="M 1199.9999999999998,111.78460969082664 L 1206.803847577293,123.56921938165306 L 1193.1961524227065,123.56921938165306 L 1199.9999999999998,111.78460969082664 Z"
       id="path121"
       style="vector-effect:non-scaling-stroke;-inkscape-stroke:hairline;stroke-width:0.26458333;stroke-dasharray:none" />
    <path
       d="M 1199.9999999999998,141.35382907247947 L 1193.1961524227065,129.56921938165306 L 1206.803847577293,129.56921938165306 L 1199.9999999999998,141.35382907247947 Z"
       id="path122"
       style="vector-effect:non-scaling-stroke;-inkscape-stroke:hairline;stroke-width:0.26458333;stroke-dasharray:none" />
    <path
       d="M 1218.5995642670498,144.0 L 1205.4004357329497,144.0 L 1211.9999999999998,132.56921938165317 L 1218.5995642670498,144.0 Z"
       id="path123"
       style="vector-effect:non-scaling-stroke;-inkscape-stroke:hairline;stroke-width:0.26458333;stroke-dasharray:none" />
    <path
       d="M 1223.9999999999998,141.35382907247947 L 1217.1961524227065,129.56921938165306 L 1230.803847577293,129.56921938165306 L 1223.9999999999998,141.35382907247947 Z"
       id="path124"
       style="vector-effect:non-scaling-stroke;-inkscape-stroke:hairline;stroke-width:0.26458333;stroke-dasharray:none" />
    <path
       d="M 1242.5995642670498,144.0 L 1229.4004357329497,144.0 L 1235.9999999999998,132.56921938165317 L 1242.5995642670498,144.0 Z"
       id="path125"
       style="vector-effect:non-scaling-stroke;-inkscape-stroke:hairline;stroke-width:0.26458333;stroke-dasharray:none" />
    <path
       d="M 1247.9999999999998,141.35382907247947 L 1241.1961524227065,129.56921938165306 L 1254.803847577293,129.56921938165306 L 1247.9999999999998,141.35382907247947 Z"
       id="path126"
       style="vector-effect:non-scaling-stroke;-inkscape-stroke:hairline;stroke-width:0.26458333;stroke-dasharray:none" />
    <path
       d="M 1247.9999999999998,111.78460969082664 L 1254.803847577293,123.56921938165306 L 1241.1961524227065,123.56921938165306 L 1247.9999999999998,111.78460969082664 Z"
       id="path127"
       style="vector-effect:non-scaling-stroke;-inkscape-stroke:hairline;stroke-width:0.26458333;stroke-dasharray:none" />
    <path
       d="M 1259.9999999999998,120.56921938165294 L 1253.1961524227065,108.78460969082653 L 1266.803847577293,108.78460969082653 L 1259.9999999999998,120.56921938165294 Z"
       id="path128"
       style="vector-effect:non-scaling-stroke;-inkscape-stroke:hairline;stroke-width:0.26458333;stroke-dasharray:none" />
    <path
       d="M 1292.5358983848619,64.21539030917347 L 1282.267949192431,82.0 L 1261.7320508075686,82.0 L 1251.4641016151377,64.21539030917347 L 1261.7320508075686,46.430780618346944 L 1282.267949192431,46.430780618346944 L 1292.5358983848619,64.21539030917347 Z"
       id="path129"
       style="vector-effect:non-scaling-stroke;-inkscape-stroke:hairline;stroke-width:0.26458333;stroke-dasharray:none" />
    <path
       d="M 1247.9999999999998,70.21539030917359 L 1254.803847577293,82.0 L 1241.1961524227065,82.0 L 1247.9999999999998,70.21539030917359 Z"
       id="path130"
       style="vector-effect:non-scaling-stroke;-inkscape-stroke:hairline;stroke-width:0.26458333;stroke-dasharray:none" />
    <path
       d="M 1247.9999999999998,99.78460969082641 L 1241.1961524227065,88.0 L 1254.803847577293,88.0 L 1247.9999999999998,99.78460969082641 Z"
       id="path131"
       style="vector-effect:non-scaling-stroke;-inkscape-stroke:hairline;stroke-width:0.26458333;stroke-dasharray:none" />
    <path
       d="M 1259.9999999999998,91.00000000000011 L 1266.803847577293,102.78460969082653 L 1253.1961524227065,102.78460969082653 L 1259.9999999999998,91.00000000000011 Z"
       id="path132"
       style="vector-effect:non-scaling-stroke;-inkscape-stroke:hairline;stroke-width:0.26458333;stroke-dasharray:none" />
    <path
       d="M 1271.9999999999998,99.78460969082641 L 1265.1961524227065,88.0 L 1278.803847577293,88.0 L 1271.9999999999998,99.78460969082641 Z"
       id="path133"
       style="vector-effect:non-scaling-stroke;-inkscape-stroke:hairline;stroke-width:0.26458333;stroke-dasharray:none" />
    <path
       d="M 1283.9999999999998,91.00000000000011 L 1290.803847577293,102.78460969082653 L 1277.1961524227065,102.78460969082653 L 1283.9999999999998,91.00000000000011 Z"
       id="path134"
       style="vector-effect:non-scaling-stroke;-inkscape-stroke:hairline;stroke-width:0.26458333;stroke-dasharray:none" />
    <path
       d="M 1295.9999999999998,99.78460969082641 L 1289.1961524227065,88.0 L 1302.803847577293,88.0 L 1295.9999999999998,99.78460969082641 Z"
       id="path135"
       style="vector-effect:non-scaling-stroke;-inkscape-stroke:hairline;stroke-width:0.26458333;stroke-dasharray:none" />
    <path
       d="M 1295.9999999999998,70.21539030917359 L 1302.803847577293,82.0 L 1289.1961524227065,82.0 L 1295.9999999999998,70.21539030917359 Z"
       id="path136"
       style="vector-effect:non-scaling-stroke;-inkscape-stroke:hairline;stroke-width:0.26458333;stroke-dasharray:none" />
    <path
       d="M 1307.9999999999998,78.99999999999989 L 1301.1961524227065,67.21539030917347 L 1314.803847577293,67.21539030917347 L 1307.9999999999998,78.99999999999989 Z"
       id="path137"
       style="vector-effect:non-scaling-stroke;-inkscape-stroke:hairline;stroke-width:0.26458333;stroke-dasharray:none" />
    <path
       d="M 1330.267949192431,40.430780618346944 L 1309.7320508075686,40.430780618346944 L 1300.2457351945704,24.0 L 1339.754264805429,24.0 L 1330.267949192431,40.430780618346944 Z"
       id="path138"
       style="vector-effect:non-scaling-stroke;-inkscape-stroke:hairline;stroke-width:0.26458333;stroke-dasharray:none" />
    <path
       d="M 1295.9999999999998,28.64617092752053 L 1302.803847577293,40.430780618346944 L 1289.1961524227065,40.430780618346944 L 1295.9999999999998,28.64617092752053 Z"
       id="path139"
       style="vector-effect:non-scaling-stroke;-inkscape-stroke:hairline;stroke-width:0.26458333;stroke-dasharray:none" />
    <path
       d="M 1295.9999999999998,58.21539030917336 L 1289.1961524227065,46.430780618346944 L 1302.803847577293,46.430780618346944 L 1295.9999999999998,58.21539030917336 Z"
       id="path140"
       style="vector-effect:non-scaling-stroke;-inkscape-stroke:hairline;stroke-width:0.26458333;stroke-dasharray:none" />
    <path
       d="M 1307.9999999999998,49.43078061834706 L 1314.803847577293,61.21539030917347 L 1301.1961524227065,61.21539030917347 L 1307.9999999999998,49.43078061834706 Z"
       id="path141"
       style="vector-effect:non-scaling-stroke;-inkscape-stroke:hairline;stroke-width:0.26458333;stroke-dasharray:none" />
    <path
       d="M 1319.9999999999998,58.21539030917336 L 1313.1961524227065,46.430780618346944 L 1326.803847577293,46.430780618346944 L 1319.9999999999998,58.21539030917336 Z"
       id="path142"
       style="vector-effect:non-scaling-stroke;-inkscape-stroke:hairline;stroke-width:0.26458333;stroke-dasharray:none" />
    <path
       d="M 1331.9999999999998,49.43078061834706 L 1338.803847577293,61.21539030917347 L 1325.1961524227065,61.21539030917347 L 1331.9999999999998,49.43078061834706 Z"
       id="path143"
       style="vector-effect:non-scaling-stroke;-inkscape-stroke:hairline;stroke-width:0.26458333;stroke-dasharray:none" />
    <path
       d="M 1343.9999999999998,58.21539030917336 L 1337.1961524227065,46.430780618346944 L 1350.803847577293,46.430780618346944 L 1343.9999999999998,58.21539030917336 Z"
       id="path144"
       style="vector-effect:non-scaling-stroke;-inkscape-stroke:hairline;stroke-width:0.26458333;stroke-dasharray:none" />
    <path
       d="M 1343.9999999999998,28.64617092752053 L 1350.803847577293,40.430780618346944 L 1337.1961524227065,40.430780618346944 L 1343.9999999999998,28.64617092752053 Z"
       id="path145"
       style="vector-effect:non-scaling-stroke;-inkscape-stroke:hairline;stroke-width:0.26458333;stroke-dasharray:none" />
    <path
       d="M 1355.9999999999998,37.43078061834683 L 1349.1961524227065,25.646170927520416 L 1362.803847577293,25.646170927520416 L 1355.9999999999998,37.43078061834683 Z"
       id="path146"
       style="vector-effect:non-scaling-stroke;-inkscape-stroke:hairline;stroke-width:0.26458333;stroke-dasharray:none" />
    <path
       d="M 1294.4722325026742,144.0 L 1273.5277674973254,144.0 L 1263.4641016151377,126.56921938165306 L 1273.7320508075686,108.78460969082653 L 1294.267949192431,108.78460969082653 L 1304.5358983848619,126.56921938165306 L 1294.4722325026742,144.0 Z"
       id="path147"
       style="vector-effect:non-scaling-stroke;-inkscape-stroke:hairline;stroke-width:0.26458333;stroke-dasharray:none" />
    <path
       d="M 1266.5995642670498,144.0 L 1253.4004357329497,144.0 L 1259.9999999999998,132.56921938165317 L 1266.5995642670498,144.0 Z"
       id="path148"
       style="vector-effect:non-scaling-stroke;-inkscape-stroke:hairline;stroke-width:0.26458333;stroke-dasharray:none" />
    <path
       d="M 1314.5995642670498,144.0 L 1301.4004357329497,144.0 L 1307.9999999999998,132.56921938165317 L 1314.5995642670498,144.0 Z"
       id="path149"
       style="vector-effect:non-scaling-stroke;-inkscape-stroke:hairline;stroke-width:0.26458333;stroke-dasharray:none" />
    <path
       d="M 1319.9999999999998,141.35382907247947 L 1313.1961524227065,129.56921938165306 L 1326.803847577293,129.56921938165306 L 1319.9999999999998,141.35382907247947 Z"
       id="path150"
       style="vector-effect:non-scaling-stroke;-inkscape-stroke:hairline;stroke-width:0.26458333;stroke-dasharray:none" />
    <path
       d="M 1352.5358983848619,85.0 L 1342.267949192431,102.78460969082653 L 1321.7320508075686,102.78460969082653 L 1311.4641016151377,85.0 L 1321.7320508075686,67.21539030917347 L 1342.267949192431,67.21539030917347 L 1352.5358983848619,85.0 Z"
       id="path151"
       style="vector-effect:non-scaling-stroke;-inkscape-stroke:hairline;stroke-width:0.26458333;stroke-dasharray:none" />
    <path
       d="M 1307.9999999999998,91.00000000000011 L 1314.803847577293,102.78460969082653 L 1301.1961524227065,102.78460969082653 L 1307.9999999999998,91.00000000000011 Z"
       id="path152"
       style="vector-effect:non-scaling-stroke;-inkscape-stroke:hairline;stroke-width:0.26458333;stroke-dasharray:none" />
    <path
       d="M 1307.9999999999998,120.56921938165294 L 1301.1961524227065,108.78460969082653 L 1314.803847577293,108.78460969082653 L 1307.9999999999998,120.56921938165294 Z"
       id="path153"
       style="vector-effect:non-scaling-stroke;-inkscape-stroke:hairline;stroke-width:0.26458333;stroke-dasharray:none" />
    <path
       d="M 1319.9999999999998,111.78460969082664 L 1326.803847577293,123.56921938165306 L 1313.1961524227065,123.56921938165306 L 1319.9999999999998,111.78460969082664 Z"
       id="path154"
       style="vector-effect:non-scaling-stroke;-inkscape-stroke:hairline;stroke-width:0.26458333;stroke-dasharray:none" />
    <path
       d="M 1331.9999999999998,120.56921938165294 L 1325.1961524227065,108.78460969082653 L 1338.803847577293,108.78460969082653 L 1331.9999999999998,120.56921938165294 Z"
       id="path155"
       style="vector-effect:non-scaling-stroke;-inkscape-stroke:hairline;stroke-width:0.26458333;stroke-dasharray:none" />
    <path
       d="M 1343.9999999999998,111.78460969082664 L 1350.803847577293,123.56921938165306 L 1337.1961524227065,123.56921938165306 L 1343.9999999999998,111.78460969082664 Z"
       id="path156"
       style="vector-effect:non-scaling-stroke;-inkscape-stroke:hairline;stroke-width:0.26458333;stroke-dasharray:none" />
    <path
       d="M 1355.9999999999998,120.56921938165294 L 1349.1961524227065,108.78460969082653 L 1362.803847577293,108.78460969082653 L 1355.9999999999998,120.56921938165294 Z"
       id="path157"
       style="vector-effect:non-scaling-stroke;-inkscape-stroke:hairline;stroke-width:0.26458333;stroke-dasharray:none" />
    <path
       d="M 1355.9999999999998,91.00000000000011 L 1362.803847577293,102.78460969082653 L 1349.1961524227065,102.78460969082653 L 1355.9999999999998,91.00000000000011 Z"
       id="path158"
       style="vector-effect:non-scaling-stroke;-inkscape-stroke:hairline;stroke-width:0.26458333;stroke-dasharray:none" />
    <path
       d="M 1367.9999999999998,99.78460969082641 L 1361.1961524227065,88.0 L 1374.803847577293,88.0 L 1367.9999999999998,99.78460969082641 Z"
       id="path159"
       style="vector-effect:non-scaling-stroke;-inkscape-stroke:hairline;stroke-width:0.26458333;stroke-dasharray:none" />
    <path
       d="M 1400.5358983848619,43.430780618346944 L 1390.267949192431,61.21539030917347 L 1369.7320508075686,61.21539030917347 L 1359.4641016151377,43.430780618346944 L 1369.7320508075686,25.646170927520416 L 1390.267949192431,25.646170927520416 L 1400.5358983848619,43.430780618346944 Z"
       id="path160"
       style="vector-effect:non-scaling-stroke;-inkscape-stroke:hairline;stroke-width:0.26458333;stroke-dasharray:none" />
    <path
       d="M 1355.9999999999998,49.43078061834706 L 1362.803847577293,61.21539030917347 L 1349.1961524227065,61.21539030917347 L 1355.9999999999998,49.43078061834706 Z"
       id="path161"
       style="vector-effect:non-scaling-stroke;-inkscape-stroke:hairline;stroke-width:0.26458333;stroke-dasharray:none" />
    <path
       d="M 1355.9999999999998,78.99999999999989 L 1349.1961524227065,67.21539030917347 L 1362.803847577293,67.21539030917347 L 1355.9999999999998,78.99999999999989 Z"
       id="path162"
       style="vector-effect:non-scaling-stroke;-inkscape-stroke:hairline;stroke-width:0.26458333;stroke-dasharray:none" />
    <path
       d="M 1367.9999999999998,70.21539030917359 L 1374.803847577293,82.0 L 1361.1961524227065,82.0 L 1367.9999999999998,70.21539030917359 Z"
       id="path163"
       style="vector-effect:non-scaling-stroke;-inkscape-stroke:hairline;stroke-width:0.26458333;stroke-dasharray:none" />
    <path
       d="M 1379.9999999999998,78.99999999999989 L 1373.1961524227065,67.21539030917347 L 1386.803847577293,67.21539030917347 L 1379.9999999999998,78.99999999999989 Z"
       id="path164"
       style="vector-effect:non-scaling-stroke;-inkscape-stroke:hairline;stroke-width:0.26458333;stroke-dasharray:none" />
    <path
       d="M 1391.9999999999998,70.21539030917359 L 1398.803847577293,82.0 L 1385.1961524227065,82.0 L 1391.9999999999998,70.21539030917359 Z"
       id="path165"
       style="vector-effect:non-scaling-stroke;-inkscape-stroke:hairline;stroke-width:0.26458333;stroke-dasharray:none" />
    <path
       d="M 1403.9999999999998,78.99999999999989 L 1397.1961524227065,67.21539030917347 L 1410.803847577293,67.21539030917347 L 1403.9999999999998,78.99999999999989 Z"
       id="path166"
       style="vector-effect:non-scaling-stroke;-inkscape-stroke:hairline;stroke-width:0.26458333;stroke-dasharray:none" />
    <path
       d="M 1403.9999999999998,49.43078061834706 L 1410.803847577293,61.21539030917347 L 1397.1961524227065,61.21539030917347 L 1403.9999999999998,49.43078061834706 Z"
       id="path167"
       style="vector-effect:non-scaling-stroke;-inkscape-stroke:hairline;stroke-width:0.26458333;stroke-dasharray:none" />
    <path
       d="M 1415.9999999999998,58.21539030917336 L 1409.1961524227065,46.430780618346944 L 1422.803847577293,46.430780618346944 L 1415.9999999999998,58.21539030917336 Z"
       id="path168"
       style="vector-effect:non-scaling-stroke;-inkscape-stroke:hairline;stroke-width:0.26458333;stroke-dasharray:none" />
    <path
       d="M 1403.9999999999998,37.43078061834683 L 1397.1961524227065,25.646170927520416 L 1410.803847577293,25.646170927520416 L 1403.9999999999998,37.43078061834683 Z"
       id="path169"
       style="vector-effect:non-scaling-stroke;-inkscape-stroke:hairline;stroke-width:0.26458333;stroke-dasharray:none" />
    <path
       d="M 1415.9999999999998,28.64617092752053 L 1422.803847577293,40.430780618346944 L 1409.1961524227065,40.430780618346944 L 1415.9999999999998,28.64617092752053 Z"
       id="path170"
       style="vector-effect:non-scaling-stroke;-inkscape-stroke:hairline;stroke-width:0.26458333;stroke-dasharray:none" />
    <path
       d="M 1427.9999999999998,37.43078061834683 L 1421.1961524227065,25.646170927520416 L 1434.803847577293,25.646170927520416 L 1427.9999999999998,37.43078061834683 Z"
       id="path171"
       style="vector-effect:non-scaling-stroke;-inkscape-stroke:hairline;stroke-width:0.26458333;stroke-dasharray:none" />
    <path
       d="M 1439.9999999999998,28.64617092752053 L 1446.803847577293,40.430780618346944 L 1433.1961524227065,40.430780618346944 L 1439.9999999999998,28.64617092752053 Z"
       id="path172"
       style="vector-effect:non-scaling-stroke;-inkscape-stroke:hairline;stroke-width:0.26458333;stroke-dasharray:none" />
    <path
       d="M 1451.9999999999998,37.43078061834683 L 1445.1961524227065,25.646170927520416 L 1458.803847577293,25.646170927520416 L 1451.9999999999998,37.43078061834683 Z"
       id="path173"
       style="vector-effect:non-scaling-stroke;-inkscape-stroke:hairline;stroke-width:0.26458333;stroke-dasharray:none" />
    <path
       d="M 1333.7320508075688,129.56921938165306 L 1354.2679491924312,129.56921938165306 L 1362.59956426705,144.0 L 1325.4004357329497,144.0 L 1333.7320508075688,129.56921938165306 Z"
       id="path174"
       style="vector-effect:non-scaling-stroke;-inkscape-stroke:hairline;stroke-width:0.26458333;stroke-dasharray:none" />
    <path
       d="M 1412.535898384862,105.78460969082653 L 1402.267949192431,123.56921938165306 L 1381.7320508075686,123.56921938165306 L 1371.4641016151377,105.78460969082653 L 1381.7320508075688,88.0 L 1402.2679491924312,88.0 L 1412.535898384862,105.78460969082653 Z"
       id="path175"
       style="vector-effect:non-scaling-stroke;-inkscape-stroke:hairline;stroke-width:0.26458333;stroke-dasharray:none" />
    <path
       d="M 1367.9999999999998,111.78460969082664 L 1374.803847577293,123.56921938165306 L 1361.1961524227065,123.56921938165306 L 1367.9999999999998,111.78460969082664 Z"
       id="path176"
       style="vector-effect:non-scaling-stroke;-inkscape-stroke:hairline;stroke-width:0.26458333;stroke-dasharray:none" />
    <path
       d="M 1367.9999999999998,141.35382907247947 L 1361.1961524227065,129.56921938165306 L 1374.803847577293,129.56921938165306 L 1367.9999999999998,141.35382907247947 Z"
       id="path177"
       style="vector-effect:non-scaling-stroke;-inkscape-stroke:hairline;stroke-width:0.26458333;stroke-dasharray:none" />
    <path
       d="M 1386.5995642670498,144.0 L 1373.4004357329497,144.0 L 1379.9999999999998,132.56921938165317 L 1386.5995642670498,144.0 Z"
       id="path178"
       style="vector-effect:non-scaling-stroke;-inkscape-stroke:hairline;stroke-width:0.26458333;stroke-dasharray:none" />
    <path
       d="M 1391.9999999999998,141.35382907247947 L 1385.1961524227065,129.56921938165306 L 1398.803847577293,129.56921938165306 L 1391.9999999999998,141.35382907247947 Z"
       id="path179"
       style="vector-effect:non-scaling-stroke;-inkscape-stroke:hairline;stroke-width:0.26458333;stroke-dasharray:none" />
    <path
       d="M 1410.5995642670498,144.0 L 1397.4004357329497,144.0 L 1403.9999999999998,132.56921938165317 L 1410.5995642670498,144.0 Z"
       id="path180"
       style="vector-effect:non-scaling-stroke;-inkscape-stroke:hairline;stroke-width:0.26458333;stroke-dasharray:none" />
    <path
       d="M 1415.9999999999998,141.35382907247947 L 1409.1961524227065,129.56921938165306 L 1422.803847577293,129.56921938165306 L 1415.9999999999998,141.35382907247947 Z"
       id="path181"
       style="vector-effect:non-scaling-stroke;-inkscape-stroke:hairline;stroke-width:0.26458333;stroke-dasharray:none" />
    <path
       d="M 1415.9999999999998,111.78460969082664 L 1422.803847577293,123.56921938165306 L 1409.1961524227065,123.56921938165306 L 1415.9999999999998,111.78460969082664 Z"
       id="path182"
       style="vector-effect:non-scaling-stroke;-inkscape-stroke:hairline;stroke-width:0.26458333;stroke-dasharray:none" />
    <path
       d="M 1428.0,120.56921938165294 L 1421.1961524227067,108.78460969082653 L 1434.8038475772933,108.78460969082653 L 1428.0,120.56921938165294 Z"
       id="path183"
       style="vector-effect:non-scaling-stroke;-inkscape-stroke:hairline;stroke-width:0.26458333;stroke-dasharray:none" />
    <path
       d="M 1460.535898384862,64.21539030917347 L 1450.267949192431,82.0 L 1429.7320508075686,82.0 L 1419.4641016151377,64.21539030917347 L 1429.7320508075688,46.430780618346944 L 1450.2679491924312,46.430780618346944 L 1460.535898384862,64.21539030917347 Z"
       id="path184"
       style="vector-effect:non-scaling-stroke;-inkscape-stroke:hairline;stroke-width:0.26458333;stroke-dasharray:none" />
    <path
       d="M 1415.9999999999998,70.21539030917359 L 1422.803847577293,82.0 L 1409.1961524227065,82.0 L 1415.9999999999998,70.21539030917359 Z"
       id="path185"
       style="vector-effect:non-scaling-stroke;-inkscape-stroke:hairline;stroke-width:0.26458333;stroke-dasharray:none" />
    <path
       d="M 1415.9999999999998,99.78460969082641 L 1409.1961524227065,88.0 L 1422.803847577293,88.0 L 1415.9999999999998,99.78460969082641 Z"
       id="path186"
       style="vector-effect:non-scaling-stroke;-inkscape-stroke:hairline;stroke-width:0.26458333;stroke-dasharray:none" />
    <path
       d="M 1427.9999999999998,91.00000000000011 L 1434.803847577293,102.78460969082653 L 1421.1961524227065,102.78460969082653 L 1427.9999999999998,91.00000000000011 Z"
       id="path187"
       style="vector-effect:non-scaling-stroke;-inkscape-stroke:hairline;stroke-width:0.26458333;stroke-dasharray:none" />
    <path
       d="M 1439.9999999999998,99.78460969082641 L 1433.1961524227065,88.0 L 1446.803847577293,88.0 L 1439.9999999999998,99.78460969082641 Z"
       id="path188"
       style="vector-effect:non-scaling-stroke;-inkscape-stroke:hairline;stroke-width:0.26458333;stroke-dasharray:none" />
    <path
       d="M 1451.9999999999998,91.00000000000011 L 1458.803847577293,102.78460969082653 L 1445.1961524227065,102.78460969082653 L 1451.9999999999998,91.00000000000011 Z"
       id="path189"
       style="vector-effect:non-scaling-stroke;-inkscape-stroke:hairline;stroke-width:0.26458333;stroke-dasharray:none" />
    <path
       d="M 1463.9999999999998,99.78460969082641 L 1457.1961524227065,88.0 L 1470.803847577293,88.0 L 1463.9999999999998,99.78460969082641 Z"
       id="path190"
       style="vector-effect:non-scaling-stroke;-inkscape-stroke:hairline;stroke-width:0.26458333;stroke-dasharray:none" />
    <path
       d="M 1463.9999999999998,70.21539030917359 L 1470.803847577293,82.0 L 1457.1961524227065,82.0 L 1463.9999999999998,70.21539030917359 Z"
       id="path191"
       style="vector-effect:non-scaling-stroke;-inkscape-stroke:hairline;stroke-width:0.26458333;stroke-dasharray:none" />
    <path
       d="M 1476.0,78.99999999999989 L 1469.1961524227067,67.21539030917347 L 1482.8038475772933,67.21539030917347 L 1476.0,78.99999999999989 Z"
       id="path192"
       style="vector-effect:non-scaling-stroke;-inkscape-stroke:hairline;stroke-width:0.26458333;stroke-dasharray:none" />
    <path
       d="M 1498.267949192431,40.430780618346944 L 1477.7320508075686,40.430780618346944 L 1468.2457351945704,24.0 L 1507.7542648054293,24.0 L 1498.267949192431,40.430780618346944 Z"
       id="path193"
       style="vector-effect:non-scaling-stroke;-inkscape-stroke:hairline;stroke-width:0.26458333;stroke-dasharray:none" />
    <path
       d="M 1463.9999999999998,28.64617092752053 L 1470.803847577293,40.430780618346944 L 1457.1961524227065,40.430780618346944 L 1463.9999999999998,28.64617092752053 Z"
       id="path194"
       style="vector-effect:non-scaling-stroke;-inkscape-stroke:hairline;stroke-width:0.26458333;stroke-dasharray:none" />
    <path
       d="M 1463.9999999999998,58.21539030917336 L 1457.1961524227065,46.430780618346944 L 1470.803847577293,46.430780618346944 L 1463.9999999999998,58.21539030917336 Z"
       id="path195"
       style="vector-effect:non-scaling-stroke;-inkscape-stroke:hairline;stroke-width:0.26458333;stroke-dasharray:none" />
    <path
       d="M 1475.9999999999998,49.43078061834706 L 1482.803847577293,61.21539030917347 L 1469.1961524227065,61.21539030917347 L 1475.9999999999998,49.43078061834706 Z"
       id="path196"
       style="vector-effect:non-scaling-stroke;-inkscape-stroke:hairline;stroke-width:0.26458333;stroke-dasharray:none" />
    <path
       d="M 1487.9999999999998,58.21539030917336 L 1481.1961524227065,46.430780618346944 L 1494.803847577293,46.430780618346944 L 1487.9999999999998,58.21539030917336 Z"
       id="path197"
       style="vector-effect:non-scaling-stroke;-inkscape-stroke:hairline;stroke-width:0.26458333;stroke-dasharray:none" />
    <path
       d="M 1499.9999999999998,49.43078061834706 L 1506.803847577293,61.21539030917347 L 1493.1961524227065,61.21539030917347 L 1499.9999999999998,49.43078061834706 Z"
       id="path198"
       style="vector-effect:non-scaling-stroke;-inkscape-stroke:hairline;stroke-width:0.26458333;stroke-dasharray:none" />
    <path
       d="M 1511.9999999999998,58.21539030917336 L 1505.1961524227065,46.430780618346944 L 1518.803847577293,46.430780618346944 L 1511.9999999999998,58.21539030917336 Z"
       id="path199"
       style="vector-effect:non-scaling-stroke;-inkscape-stroke:hairline;stroke-width:0.26458333;stroke-dasharray:none" />
    <path
       d="M 1511.9999999999998,28.64617092752053 L 1518.803847577293,40.430780618346944 L 1505.1961524227065,40.430780618346944 L 1511.9999999999998,28.64617092752053 Z"
       id="path200"
       style="vector-effect:non-scaling-stroke;-inkscape-stroke:hairline;stroke-width:0.26458333;stroke-dasharray:none" />
    <path
       d="M 1524.0,37.43078061834683 L 1517.1961524227067,25.646170927520416 L 1530.8038475772933,25.646170927520416 L 1524.0,37.43078061834683 Z"
       id="path201"
       style="vector-effect:non-scaling-stroke;-inkscape-stroke:hairline;stroke-width:0.26458333;stroke-dasharray:none" />
    <path
       d="M 1462.4722325026742,144.0 L 1441.5277674973254,144.0 L 1431.4641016151377,126.56921938165306 L 1441.7320508075688,108.78460969082653 L 1462.2679491924312,108.78460969082653 L 1472.535898384862,126.56921938165306 L 1462.4722325026742,144.0 Z"
       id="path202"
       style="vector-effect:non-scaling-stroke;-inkscape-stroke:hairline;stroke-width:0.26458333;stroke-dasharray:none" />
    <path
       d="M 1434.5995642670498,144.0 L 1421.4004357329497,144.0 L 1427.9999999999998,132.56921938165317 L 1434.5995642670498,144.0 Z"
       id="path203"
       style="vector-effect:non-scaling-stroke;-inkscape-stroke:hairline;stroke-width:0.26458333;stroke-dasharray:none" />
    <path
       d="M 1482.5995642670498,144.0 L 1469.4004357329497,144.0 L 1475.9999999999998,132.56921938165317 L 1482.5995642670498,144.0 Z"
       id="path204"
       style="vector-effect:non-scaling-stroke;-inkscape-stroke:hairline;stroke-width:0.26458333;stroke-dasharray:none" />
    <path
       d="M 1488.0,141.35382907247947 L 1481.1961524227067,129.56921938165306 L 1494.8038475772933,129.56921938165306 L 1488.0,141.35382907247947 Z"
       id="path205"
       style="vector-effect:non-scaling-stroke;-inkscape-stroke:hairline;stroke-width:0.26458333;stroke-dasharray:none" />
    <path
       d="M 1520.535898384862,85.0 L 1510.267949192431,102.78460969082653 L 1489.7320508075686,102.78460969082653 L 1479.4641016151377,85.0 L 1489.7320508075688,67.21539030917347 L 1510.2679491924312,67.21539030917347 L 1520.535898384862,85.0 Z"
       id="path206"
       style="vector-effect:non-scaling-stroke;-inkscape-stroke:hairline;stroke-width:0.26458333;stroke-dasharray:none" />
    <path
       d="M 1475.9999999999998,91.00000000000011 L 1482.803847577293,102.78460969082653 L 1469.1961524227065,102.78460969082653 L 1475.9999999999998,91.00000000000011 Z"
       id="path207"
       style="vector-effect:non-scaling-stroke;-inkscape-stroke:hairline;stroke-width:0.26458333;stroke-dasharray:none" />
    <path
       d="M 1475.9999999999998,120.56921938165294 L 1469.1961524227065,108.78460969082653 L 1482.803847577293,108.78460969082653 L 1475.9999999999998,120.56921938165294 Z"
       id="path208"
       style="vector-effect:non-scaling-stroke;-inkscape-stroke:hairline;stroke-width:0.26458333;stroke-dasharray:none" />
    <path
       d="M 1487.9999999999998,111.78460969082664 L 1494.803847577293,123.56921938165306 L 1481.1961524227065,123.56921938165306 L 1487.9999999999998,111.78460969082664 Z"
       id="path209"
       style="vector-effect:non-scaling-stroke;-inkscape-stroke:hairline;stroke-width:0.26458333;stroke-dasharray:none" />
    <path
       d="M 1499.9999999999998,120.56921938165294 L 1493.1961524227065,108.78460969082653 L 1506.803847577293,108.78460969082653 L 1499.9999999999998,120.56921938165294 Z"
       id="path210"
       style="vector-effect:non-scaling-stroke;-inkscape-stroke:hairline;stroke-width:0.26458333;stroke-dasharray:none" />
    <path
       d="M 1511.9999999999998,111.78460969082664 L 1518.803847577293,123.56921938165306 L 1505.1961524227065,123.56921938165306 L 1511.9999999999998,111.78460969082664 Z"
       id="path211"
       style="vector-effect:non-scaling-stroke;-inkscape-stroke:hairline;stroke-width:0.26458333;stroke-dasharray:none" />
    <path
       d="M 1523.9999999999998,120.56921938165294 L 1517.1961524227065,108.78460969082653 L 1530.803847577293,108.78460969082653 L 1523.9999999999998,120.56921938165294 Z"
       id="path212"
       style="vector-effect:non-scaling-stroke;-inkscape-stroke:hairline;stroke-width:0.26458333;stroke-dasharray:none" />
    <path
       d="M 1523.9999999999998,91.00000000000011 L 1530.803847577293,102.78460969082653 L 1517.1961524227065,102.78460969082653 L 1523.9999999999998,91.00000000000011 Z"
       id="path213"
       style="vector-effect:non-scaling-stroke;-inkscape-stroke:hairline;stroke-width:0.26458333;stroke-dasharray:none" />
    <path
       d="M 1536.0,99.78460969082641 L 1529.1961524227067,88.0 L 1542.8038475772933,88.0 L 1536.0,99.78460969082641 Z"
       id="path214"
       style="vector-effect:non-scaling-stroke;-inkscape-stroke:hairline;stroke-width:0.26458333;stroke-dasharray:none" />
    <path
       d="M 1568.535898384862,43.430780618346944 L 1558.267949192431,61.21539030917347 L 1537.7320508075686,61.21539030917347 L 1527.4641016151377,43.430780618346944 L 1537.7320508075688,25.646170927520416 L 1558.2679491924312,25.646170927520416 L 1568.535898384862,43.430780618346944 Z"
       id="path215"
       style="vector-effect:non-scaling-stroke;-inkscape-stroke:hairline;stroke-width:0.26458333;stroke-dasharray:none" />
    <path
       d="M 1523.9999999999998,49.43078061834706 L 1530.803847577293,61.21539030917347 L 1517.1961524227065,61.21539030917347 L 1523.9999999999998,49.43078061834706 Z"
       id="path216"
       style="vector-effect:non-scaling-stroke;-inkscape-stroke:hairline;stroke-width:0.26458333;stroke-dasharray:none" />
    <path
       d="M 1523.9999999999998,78.99999999999989 L 1517.1961524227065,67.21539030917347 L 1530.803847577293,67.21539030917347 L 1523.9999999999998,78.99999999999989 Z"
       id="path217"
       style="vector-effect:non-scaling-stroke;-inkscape-stroke:hairline;stroke-width:0.26458333;stroke-dasharray:none" />
    <path
       d="M 1535.9999999999998,70.21539030917359 L 1542.803847577293,82.0 L 1529.1961524227065,82.0 L 1535.9999999999998,70.21539030917359 Z"
       id="path218"
       style="vector-effect:non-scaling-stroke;-inkscape-stroke:hairline;stroke-width:0.26458333;stroke-dasharray:none" />
    <path
       d="M 1547.9999999999998,78.99999999999989 L 1541.1961524227065,67.21539030917347 L 1554.803847577293,67.21539030917347 L 1547.9999999999998,78.99999999999989 Z"
       id="path219"
       style="vector-effect:non-scaling-stroke;-inkscape-stroke:hairline;stroke-width:0.26458333;stroke-dasharray:none" />
    <path
       d="M 1559.9999999999998,70.21539030917359 L 1566.803847577293,82.0 L 1553.1961524227065,82.0 L 1559.9999999999998,70.21539030917359 Z"
       id="path220"
       style="vector-effect:non-scaling-stroke;-inkscape-stroke:hairline;stroke-width:0.26458333;stroke-dasharray:none" />
    <path
       d="M 1571.9999999999998,78.99999999999989 L 1565.1961524227065,67.21539030917347 L 1578.803847577293,67.21539030917347 L 1571.9999999999998,78.99999999999989 Z"
       id="path221"
       style="vector-effect:non-scaling-stroke;-inkscape-stroke:hairline;stroke-width:0.26458333;stroke-dasharray:none" />
    <path
       d="M 1571.9999999999998,49.43078061834706 L 1578.803847577293,61.21539030917347 L 1565.1961524227065,61.21539030917347 L 1571.9999999999998,49.43078061834706 Z"
       id="path222"
       style="vector-effect:non-scaling-stroke;-inkscape-stroke:hairline;stroke-width:0.26458333;stroke-dasharray:none" />
    <path
       d="M 1584.0,58.21539030917336 L 1577.1961524227067,46.430780618346944 L 1590.8038475772933,46.430780618346944 L 1584.0,58.21539030917336 Z"
       id="path223"
       style="vector-effect:non-scaling-stroke;-inkscape-stroke:hairline;stroke-width:0.26458333;stroke-dasharray:none" />
    <path
       d="M 1571.9999999999998,37.43078061834683 L 1565.1961524227065,25.646170927520416 L 1578.803847577293,25.646170927520416 L 1571.9999999999998,37.43078061834683 Z"
       id="path224"
       style="vector-effect:non-scaling-stroke;-inkscape-stroke:hairline;stroke-width:0.26458333;stroke-dasharray:none" />
    <path
       d="M 1583.9999999999998,28.64617092752053 L 1590.803847577293,40.430780618346944 L 1577.1961524227065,40.430780618346944 L 1583.9999999999998,28.64617092752053 Z"
       id="path225"
       style="vector-effect:non-scaling-stroke;-inkscape-stroke:hairline;stroke-width:0.26458333;stroke-dasharray:none" />
    <path
       d="M 1595.9999999999998,37.43078061834683 L 1589.1961524227065,25.646170927520416 L 1602.803847577293,25.646170927520416 L 1595.9999999999998,37.43078061834683 Z"
       id="path226"
       style="vector-effect:non-scaling-stroke;-inkscape-stroke:hairline;stroke-width:0.26458333;stroke-dasharray:none" />
    <path
       d="M 1607.9999999999998,28.64617092752053 L 1614.803847577293,40.430780618346944 L 1601.1961524227065,40.430780618346944 L 1607.9999999999998,28.64617092752053 Z"
       id="path227"
       style="vector-effect:non-scaling-stroke;-inkscape-stroke:hairline;stroke-width:0.26458333;stroke-dasharray:none" />
    <path
       d="M 1619.9999999999998,37.43078061834683 L 1613.1961524227065,25.646170927520416 L 1626.803847577293,25.646170927520416 L 1619.9999999999998,37.43078061834683 Z"
       id="path228"
       style="vector-effect:non-scaling-stroke;-inkscape-stroke:hairline;stroke-width:0.26458333;stroke-dasharray:none" />
    <path
       d="M 1501.7320508075688,129.56921938165306 L 1522.2679491924312,129.56921938165306 L 1530.59956426705,144.0 L 1493.4004357329497,144.0 L 1501.7320508075688,129.56921938165306 Z"
       id="path229"
       style="vector-effect:non-scaling-stroke;-inkscape-stroke:hairline;stroke-width:0.26458333;stroke-dasharray:none" />
    <path
       d="M 1580.535898384862,105.78460969082653 L 1570.267949192431,123.56921938165306 L 1549.7320508075686,123.56921938165306 L 1539.4641016151377,105.78460969082653 L 1549.7320508075688,88.0 L 1570.2679491924312,88.0 L 1580.535898384862,105.78460969082653 Z"
       id="path230"
       style="vector-effect:non-scaling-stroke;-inkscape-stroke:hairline;stroke-width:0.26458333;stroke-dasharray:none" />
    <path
       d="M 1535.9999999999998,111.78460969082664 L 1542.803847577293,123.56921938165306 L 1529.1961524227065,123.56921938165306 L 1535.9999999999998,111.78460969082664 Z"
       id="path231"
       style="vector-effect:non-scaling-stroke;-inkscape-stroke:hairline;stroke-width:0.26458333;stroke-dasharray:none" />
    <path
       d="M 1535.9999999999998,141.35382907247947 L 1529.1961524227065,129.56921938165306 L 1542.803847577293,129.56921938165306 L 1535.9999999999998,141.35382907247947 Z"
       id="path232"
       style="vector-effect:non-scaling-stroke;-inkscape-stroke:hairline;stroke-width:0.26458333;stroke-dasharray:none" />
    <path
       d="M 1554.5995642670498,144.0 L 1541.4004357329497,144.0 L 1547.9999999999998,132.56921938165317 L 1554.5995642670498,144.0 Z"
       id="path233"
       style="vector-effect:non-scaling-stroke;-inkscape-stroke:hairline;stroke-width:0.26458333;stroke-dasharray:none" />
    <path
       d="M 1559.9999999999998,141.35382907247947 L 1553.1961524227065,129.56921938165306 L 1566.803847577293,129.56921938165306 L 1559.9999999999998,141.35382907247947 Z"
       id="path234"
       style="vector-effect:non-scaling-stroke;-inkscape-stroke:hairline;stroke-width:0.26458333;stroke-dasharray:none" />
    <path
       d="M 1578.5995642670498,144.0 L 1565.4004357329497,144.0 L 1571.9999999999998,132.56921938165317 L 1578.5995642670498,144.0 Z"
       id="path235"
       style="vector-effect:non-scaling-stroke;-inkscape-stroke:hairline;stroke-width:0.26458333;stroke-dasharray:none" />
    <path
       d="M 1583.9999999999998,141.35382907247947 L 1577.1961524227065,129.56921938165306 L 1590.803847577293,129.56921938165306 L 1583.9999999999998,141.35382907247947 Z"
       id="path236"
       style="vector-effect:non-scaling-stroke;-inkscape-stroke:hairline;stroke-width:0.26458333;stroke-dasharray:none" />
    <path
       d="M 1583.9999999999998,111.78460969082664 L 1590.803847577293,123.56921938165306 L 1577.1961524227065,123.56921938165306 L 1583.9999999999998,111.78460969082664 Z"
       id="path237"
       style="vector-effect:non-scaling-stroke;-inkscape-stroke:hairline;stroke-width:0.26458333;stroke-dasharray:none" />
    <path
       d="M 1596.0,120.56921938165294 L 1589.1961524227067,108.78460969082653 L 1602.8038475772933,108.78460969082653 L 1596.0,120.56921938165294 Z"
       id="path238"
       style="vector-effect:non-scaling-stroke;-inkscape-stroke:hairline;stroke-width:0.26458333;stroke-dasharray:none" />
    <path
       d="M 1628.535898384862,64.21539030917347 L 1618.267949192431,82.0 L 1597.7320508075686,82.0 L 1587.4641016151377,64.21539030917347 L 1597.7320508075688,46.430780618346944 L 1618.2679491924312,46.430780618346944 L 1628.535898384862,64.21539030917347 Z"
       id="path239"
       style="vector-effect:non-scaling-stroke;-inkscape-stroke:hairline;stroke-width:0.26458333;stroke-dasharray:none" />
    <path
       d="M 1583.9999999999998,70.21539030917359 L 1590.803847577293,82.0 L 1577.1961524227065,82.0 L 1583.9999999999998,70.21539030917359 Z"
       id="path240"
       style="vector-effect:non-scaling-stroke;-inkscape-stroke:hairline;stroke-width:0.26458333;stroke-dasharray:none" />
    <path
       d="M 1583.9999999999998,99.78460969082641 L 1577.1961524227065,88.0 L 1590.803847577293,88.0 L 1583.9999999999998,99.78460969082641 Z"
       id="path241"
       style="vector-effect:non-scaling-stroke;-inkscape-stroke:hairline;stroke-width:0.26458333;stroke-dasharray:none" />
    <path
       d="M 1595.9999999999998,91.00000000000011 L 1602.803847577293,102.78460969082653 L 1589.1961524227065,102.78460969082653 L 1595.9999999999998,91.00000000000011 Z"
       id="path242"
       style="vector-effect:non-scaling-stroke;-inkscape-stroke:hairline;stroke-width:0.26458333;stroke-dasharray:none" />
    <path
       d="M 1607.9999999999998,99.78460969082641 L 1601.1961524227065,88.0 L 1614.803847577293,88.0 L 1607.9999999999998,99.78460969082641 Z"
       id="path243"
       style="vector-effect:non-scaling-stroke;-inkscape-stroke:hairline;stroke-width:0.26458333;stroke-dasharray:none" />
    <path
       d="M 1619.9999999999998,91.00000000000011 L 1626.803847577293,102.78460969082653 L 1613.1961524227065,102.78460969082653 L 1619.9999999999998,91.00000000000011 Z"
       id="path244"
       style="vector-effect:non-scaling-stroke;-inkscape-stroke:hairline;stroke-width:0.26458333;stroke-dasharray:none" />
    <path
       d="M 1631.9999999999998,99.78460969082641 L 1625.1961524227065,88.0 L 1638.803847577293,88.0 L 1631.9999999999998,99.78460969082641 Z"
       id="path245"
       style="vector-effect:non-scaling-stroke;-inkscape-stroke:hairline;stroke-width:0.26458333;stroke-dasharray:none" />
    <path
       d="M 1631.9999999999998,70.21539030917359 L 1638.803847577293,82.0 L 1625.1961524227065,82.0 L 1631.9999999999998,70.21539030917359 Z"
       id="path246"
       style="vector-effect:non-scaling-stroke;-inkscape-stroke:hairline;stroke-width:0.26458333;stroke-dasharray:none" />
    <path
       d="M 1644.0,78.99999999999989 L 1637.1961524227067,67.21539030917347 L 1650.8038475772933,67.21539030917347 L 1644.0,78.99999999999989 Z"
       id="path247"
       style="vector-effect:non-scaling-stroke;-inkscape-stroke:hairline;stroke-width:0.26458333;stroke-dasharray:none" />
    <path
       d="M 1666.267949192431,40.430780618346944 L 1645.7320508075686,40.430780618346944 L 1636.2457351945704,24.0 L 1675.7542648054293,24.0 L 1666.267949192431,40.430780618346944 Z"
       id="path248"
       style="vector-effect:non-scaling-stroke;-inkscape-stroke:hairline;stroke-width:0.26458333;stroke-dasharray:none" />
    <path
       d="M 1631.9999999999998,28.64617092752053 L 1638.803847577293,40.430780618346944 L 1625.1961524227065,40.430780618346944 L 1631.9999999999998,28.64617092752053 Z"
       id="path249"
       style="vector-effect:non-scaling-stroke;-inkscape-stroke:hairline;stroke-width:0.26458333;stroke-dasharray:none" />
    <path
       d="M 1631.9999999999998,58.21539030917336 L 1625.1961524227065,46.430780618346944 L 1638.803847577293,46.430780618346944 L 1631.9999999999998,58.21539030917336 Z"
       id="path250"
       style="vector-effect:non-scaling-stroke;-inkscape-stroke:hairline;stroke-width:0.26458333;stroke-dasharray:none" />
    <path
       d="M 1643.9999999999998,49.43078061834706 L 1650.803847577293,61.21539030917347 L 1637.1961524227065,61.21539030917347 L 1643.9999999999998,49.43078061834706 Z"
       id="path251"
       style="vector-effect:non-scaling-stroke;-inkscape-stroke:hairline;stroke-width:0.26458333;stroke-dasharray:none" />
    <path
       d="M 1655.9999999999998,58.21539030917336 L 1649.1961524227065,46.430780618346944 L 1662.803847577293,46.430780618346944 L 1655.9999999999998,58.21539030917336 Z"
       id="path252"
       style="vector-effect:non-scaling-stroke;-inkscape-stroke:hairline;stroke-width:0.26458333;stroke-dasharray:none" />
    <path
       d="M 1667.9999999999998,49.43078061834706 L 1674.803847577293,61.21539030917347 L 1661.1961524227065,61.21539030917347 L 1667.9999999999998,49.43078061834706 Z"
       id="path253"
       style="vector-effect:non-scaling-stroke;-inkscape-stroke:hairline;stroke-width:0.26458333;stroke-dasharray:none" />
    <path
       d="M 1679.9999999999998,58.21539030917336 L 1673.1961524227065,46.430780618346944 L 1686.803847577293,46.430780618346944 L 1679.9999999999998,58.21539030917336 Z"
       id="path254"
       style="vector-effect:non-scaling-stroke;-inkscape-stroke:hairline;stroke-width:0.26458333;stroke-dasharray:none" />
    <path
       d="M 1679.9999999999998,28.64617092752053 L 1686.803847577293,40.430780618346944 L 1673.1961524227065,40.430780618346944 L 1679.9999999999998,28.64617092752053 Z"
       id="path255"
       style="vector-effect:non-scaling-stroke;-inkscape-stroke:hairline;stroke-width:0.26458333;stroke-dasharray:none" />
    <path
       d="M 1692.0,37.43078061834683 L 1685.1961524227067,25.646170927520416 L 1698.8038475772933,25.646170927520416 L 1692.0,37.43078061834683 Z"
       id="path256"
       style="vector-effect:non-scaling-stroke;-inkscape-stroke:hairline;stroke-width:0.26458333;stroke-dasharray:none" />
    <path
       d="M 1630.4722325026742,144.0 L 1609.5277674973254,144.0 L 1599.4641016151377,126.56921938165306 L 1609.7320508075688,108.78460969082653 L 1630.2679491924312,108.78460969082653 L 1640.535898384862,126.56921938165306 L 1630.4722325026742,144.0 Z"
       id="path257"
       style="vector-effect:non-scaling-stroke;-inkscape-stroke:hairline;stroke-width:0.26458333;stroke-dasharray:none" />
    <path
       d="M 1602.5995642670498,144.0 L 1589.4004357329497,144.0 L 1595.9999999999998,132.56921938165317 L 1602.5995642670498,144.0 Z"
       id="path258"
       style="vector-effect:non-scaling-stroke;-inkscape-stroke:hairline;stroke-width:0.26458333;stroke-dasharray:none" />
    <path
       d="M 1650.5995642670498,144.0 L 1637.4004357329497,144.0 L 1643.9999999999998,132.56921938165317 L 1650.5995642670498,144.0 Z"
       id="path259"
       style="vector-effect:non-scaling-stroke;-inkscape-stroke:hairline;stroke-width:0.26458333;stroke-dasharray:none" />
    <path
       d="M 1656.0,141.35382907247947 L 1649.1961524227067,129.56921938165306 L 1662.8038475772933,129.56921938165306 L 1656.0,141.35382907247947 Z"
       id="path260"
       style="vector-effect:non-scaling-stroke;-inkscape-stroke:hairline;stroke-width:0.26458333;stroke-dasharray:none" />
    <path
       d="M 1688.535898384862,85.0 L 1678.267949192431,102.78460969082653 L 1657.7320508075686,102.78460969082653 L 1647.4641016151377,85.0 L 1657.7320508075688,67.21539030917347 L 1678.2679491924312,67.21539030917347 L 1688.535898384862,85.0 Z"
       id="path261"
       style="vector-effect:non-scaling-stroke;-inkscape-stroke:hairline;stroke-width:0.26458333;stroke-dasharray:none" />
    <path
       d="M 1643.9999999999998,91.00000000000011 L 1650.803847577293,102.78460969082653 L 1637.1961524227065,102.78460969082653 L 1643.9999999999998,91.00000000000011 Z"
       id="path262"
       style="vector-effect:non-scaling-stroke;-inkscape-stroke:hairline;stroke-width:0.26458333;stroke-dasharray:none" />
    <path
       d="M 1643.9999999999998,120.56921938165294 L 1637.1961524227065,108.78460969082653 L 1650.803847577293,108.78460969082653 L 1643.9999999999998,120.56921938165294 Z"
       id="path263"
       style="vector-effect:non-scaling-stroke;-inkscape-stroke:hairline;stroke-width:0.26458333;stroke-dasharray:none" />
    <path
       d="M 1655.9999999999998,111.78460969082664 L 1662.803847577293,123.56921938165306 L 1649.1961524227065,123.56921938165306 L 1655.9999999999998,111.78460969082664 Z"
       id="path264"
       style="vector-effect:non-scaling-stroke;-inkscape-stroke:hairline;stroke-width:0.26458333;stroke-dasharray:none" />
    <path
       d="M 1667.9999999999998,120.56921938165294 L 1661.1961524227065,108.78460969082653 L 1674.803847577293,108.78460969082653 L 1667.9999999999998,120.56921938165294 Z"
       id="path265"
       style="vector-effect:non-scaling-stroke;-inkscape-stroke:hairline;stroke-width:0.26458333;stroke-dasharray:none" />
    <path
       d="M 1679.9999999999998,111.78460969082664 L 1686.803847577293,123.56921938165306 L 1673.1961524227065,123.56921938165306 L 1679.9999999999998,111.78460969082664 Z"
       id="path266"
       style="vector-effect:non-scaling-stroke;-inkscape-stroke:hairline;stroke-width:0.26458333;stroke-dasharray:none" />
    <path
       d="M 1691.9999999999998,120.56921938165294 L 1685.1961524227065,108.78460969082653 L 1698.803847577293,108.78460969082653 L 1691.9999999999998,120.56921938165294 Z"
       id="path267"
       style="vector-effect:non-scaling-stroke;-inkscape-stroke:hairline;stroke-width:0.26458333;stroke-dasharray:none" />
    <path
       d="M 1691.9999999999998,91.00000000000011 L 1698.803847577293,102.78460969082653 L 1685.1961524227065,102.78460969082653 L 1691.9999999999998,91.00000000000011 Z"
       id="path268"
       style="vector-effect:non-scaling-stroke;-inkscape-stroke:hairline;stroke-width:0.26458333;stroke-dasharray:none" />
    <path
       d="M 1704.0,99.78460969082641 L 1697.1961524227067,88.0 L 1710.8038475772933,88.0 L 1704.0,99.78460969082641 Z"
       id="path269"
       style="vector-effect:non-scaling-stroke;-inkscape-stroke:hairline;stroke-width:0.26458333;stroke-dasharray:none" />
    <path
       d="M 1736.535898384862,43.430780618346944 L 1726.267949192431,61.21539030917347 L 1705.7320508075686,61.21539030917347 L 1695.4641016151377,43.430780618346944 L 1705.7320508075688,25.646170927520416 L 1726.2679491924312,25.646170927520416 L 1736.535898384862,43.430780618346944 Z"
       id="path270"
       style="vector-effect:non-scaling-stroke;-inkscape-stroke:hairline;stroke-width:0.26458333;stroke-dasharray:none" />
    <path
       d="M 1691.9999999999998,49.43078061834706 L 1698.803847577293,61.21539030917347 L 1685.1961524227065,61.21539030917347 L 1691.9999999999998,49.43078061834706 Z"
       id="path271"
       style="vector-effect:non-scaling-stroke;-inkscape-stroke:hairline;stroke-width:0.26458333;stroke-dasharray:none" />
    <path
       d="M 1691.9999999999998,78.99999999999989 L 1685.1961524227065,67.21539030917347 L 1698.803847577293,67.21539030917347 L 1691.9999999999998,78.99999999999989 Z"
       id="path272"
       style="vector-effect:non-scaling-stroke;-inkscape-stroke:hairline;stroke-width:0.26458333;stroke-dasharray:none" />
    <path
       d="M 1703.9999999999998,70.21539030917359 L 1710.803847577293,82.0 L 1697.1961524227065,82.0 L 1703.9999999999998,70.21539030917359 Z"
       id="path273"
       style="vector-effect:non-scaling-stroke;-inkscape-stroke:hairline;stroke-width:0.26458333;stroke-dasharray:none" />
    <path
       d="M 1715.9999999999998,78.99999999999989 L 1709.1961524227065,67.21539030917347 L 1722.803847577293,67.21539030917347 L 1715.9999999999998,78.99999999999989 Z"
       id="path274"
       style="vector-effect:non-scaling-stroke;-inkscape-stroke:hairline;stroke-width:0.26458333;stroke-dasharray:none" />
    <path
       d="M 1727.9999999999998,70.21539030917359 L 1734.803847577293,82.0 L 1721.1961524227065,82.0 L 1727.9999999999998,70.21539030917359 Z"
       id="path275"
       style="vector-effect:non-scaling-stroke;-inkscape-stroke:hairline;stroke-width:0.26458333;stroke-dasharray:none" />
    <path
       d="M 1733.1961524227065,67.21539030917347 L 1738.4999999999998,67.21539030917347 L 1738.4999999999998,76.40192378864657 L 1733.1961524227065,67.21539030917347 Z"
       id="path276"
       style="vector-effect:non-scaling-stroke;-inkscape-stroke:hairline;stroke-width:0.26458333;stroke-dasharray:none" />
    <path
       d="M 1733.1961524227065,61.21539030917347 L 1738.4999999999998,52.02885682970037 L 1738.4999999999998,61.21539030917347 L 1733.1961524227065,61.21539030917347 Z"
       id="path277"
       style="vector-effect:non-scaling-stroke;-inkscape-stroke:hairline;stroke-width:0.26458333;stroke-dasharray:none" />
    <path
       d="M 1733.1961524227065,25.646170927520416 L 1738.4999999999998,25.646170927520416 L 1738.4999999999998,34.832704406993514 L 1733.1961524227065,25.646170927520416 Z"
       id="path278"
       style="vector-effect:non-scaling-stroke;-inkscape-stroke:hairline;stroke-width:0.26458333;stroke-dasharray:none" />
    <path
       d="M 1669.7320508075688,129.56921938165306 L 1690.2679491924312,129.56921938165306 L 1698.59956426705,144.0 L 1661.4004357329497,144.0 L 1669.7320508075688,129.56921938165306 Z"
       id="path279"
       style="vector-effect:non-scaling-stroke;-inkscape-stroke:hairline;stroke-width:0.26458333;stroke-dasharray:none" />
    <path
       d="M 1738.267949192431,123.56921938165306 L 1717.7320508075686,123.56921938165306 L 1707.4641016151377,105.78460969082653 L 1717.7320508075688,88.0 L 1738.2679491924312,88.0 L 1738.4999999999998,88.40192378864623 L 1738.4999999999998,123.16729559300643 L 1738.267949192431,123.56921938165306 Z"
       id="path280"
       style="vector-effect:non-scaling-stroke;-inkscape-stroke:hairline;stroke-width:0.26458333;stroke-dasharray:none" />
    <path
       d="M 1703.9999999999998,111.78460969082664 L 1710.803847577293,123.56921938165306 L 1697.1961524227065,123.56921938165306 L 1703.9999999999998,111.78460969082664 Z"
       id="path281"
       style="vector-effect:non-scaling-stroke;-inkscape-stroke:hairline;stroke-width:0.26458333;stroke-dasharray:none" />
    <path
       d="M 1703.9999999999998,141.35382907247947 L 1697.1961524227065,129.56921938165306 L 1710.803847577293,129.56921938165306 L 1703.9999999999998,141.35382907247947 Z"
       id="path282"
       style="vector-effect:non-scaling-stroke;-inkscape-stroke:hairline;stroke-width:0.26458333;stroke-dasharray:none" />
    <path
       d="M 1722.5995642670498,144.0 L 1709.4004357329497,144.0 L 1715.9999999999998,132.56921938165317 L 1722.5995642670498,144.0 Z"
       id="path283"
       style="vector-effect:non-scaling-stroke;-inkscape-stroke:hairline;stroke-width:0.26458333;stroke-dasharray:none" />
    <path
       d="M 1727.9999999999998,141.35382907247947 L 1721.1961524227065,129.56921938165306 L 1734.803847577293,129.56921938165306 L 1727.9999999999998,141.35382907247947 Z"
       id="path284"
       style="vector-effect:non-scaling-stroke;-inkscape-stroke:hairline;stroke-width:0.26458333;stroke-dasharray:none" />
    <path
       d="M 1738.4999999999998,135.1672955930065 L 1738.4999999999998,144.0 L 1733.4004357329497,144.0 L 1738.4999999999998,135.1672955930065 Z"
       id="path285"
       style="vector-effect:non-scaling-stroke;-inkscape-stroke:hairline;stroke-width:0.26458333;stroke-dasharray:none" />
    <path
       d="M 855.4999999999998,170.0 L 1760.4999999999998,170.0 L 1760.4999999999998,0.0 L 855.4999999999998,0.0 L 855.4999999999998,170.0 Z"
       id="path286"
       style="vector-effect:non-scaling-stroke;-inkscape-stroke:hairline;stroke-width:0.26458333;stroke-dasharray:none" />
  </g>
  <g
     id="g1"
     transform="translate(-16.9871,0.94448495)">
    <path
       style="fill:none;stroke:#000000;stroke-width:1.265;stroke-linecap:butt;stroke-linejoin:miter;stroke-dasharray:none;stroke-opacity:1;marker-start:url(#Stop);marker-end:url(#Stop)"
       d="M 130.97609,64.53827 V 234.56732"
       id="path202-6"
       sodipodi:nodetypes="cc" />
    <text
       xml:space="preserve"
       style="font-size:25.4px;line-height:1.25;font-family:'Noto Mono';-inkscape-font-specification:'Noto Mono';word-spacing:0px;stroke-width:0.264583"
       x="66.370026"
       y="155.38345"
       id="text203"><tspan
         sodipodi:role="line"
         id="tspan203"
         style="stroke-width:0.264583"
         x="66.370026"
         y="155.38345">170</tspan></text>
    <text
       xml:space="preserve"
       style="font-size:25.4px;line-height:1.25;font-family:'Noto Mono';-inkscape-font-specification:'Noto Mono';word-spacing:0px;stroke-width:0.264583"
       x="138.33669"
       y="231.6404"
       id="text203-7"><tspan
         sodipodi:role="line"
         id="tspan203-9"
         style="stroke-width:0.264583"
         x="138.33669"
         y="231.6404">26</tspan></text>
    <text
       xml:space="preserve"
       style="font-size:25.4px;line-height:1.25;font-family:'Noto Mono';-inkscape-font-specification:'Noto Mono';word-spacing:0px;stroke-width:0.264583"
       x="554.61005"
       y="39.340687"
       id="text203-6"><tspan
         sodipodi:role="line"
         id="tspan203-7"
         style="stroke-width:0.264583"
         x="554.61005"
         y="39.340687">Tabica 2.4</tspan></text>
    <path
       style="fill:none;stroke:#000000;stroke-width:1.265;stroke-linecap:butt;stroke-linejoin:miter;stroke-dasharray:none;stroke-opacity:1;marker-start:url(#Stop);marker-end:url(#Stop)"
       d="M 1097.0957,87.75532 V 207.75532"
       id="path204-2"
       sodipodi:nodetypes="cc" />
    <text
       xml:space="preserve"
       style="font-size:25.4px;line-height:1.25;font-family:'Noto Mono';-inkscape-font-specification:'Noto Mono';word-spacing:0px;stroke-width:0.264583"
       x="1120.9218"
       y="155.51367"
       id="text204"><tspan
         sodipodi:role="line"
         id="tspan204"
         style="stroke-width:0.264583"
         x="1120.9218"
         y="155.51367">120</tspan></text>
    <path
       style="fill:none;stroke:#000000;stroke-width:1.265;stroke-linecap:butt;stroke-linejoin:miter;stroke-dasharray:none;stroke-opacity:1;marker-start:url(#Stop);marker-end:url(#Stop)"
       d="M 1076.7525,249.91325 H 172.25143"
       id="path205-6"
       sodipodi:nodetypes="cc" />
    <text
       xml:space="preserve"
       style="font-size:25.4px;line-height:1.25;font-family:'Noto Mono';-inkscape-font-specification:'Noto Mono';word-spacing:0px;stroke-width:0.264583"
       x="601.76196"
       y="277.82034"
       id="text205"><tspan
         sodipodi:role="line"
         id="tspan205"
         style="stroke-width:0.264583"
         x="601.76196"
         y="277.82034">905</tspan></text>
    <path
       style="fill:none;stroke:#000000;stroke-width:1.265;stroke-linecap:butt;stroke-linejoin:miter;stroke-dasharray:none;stroke-opacity:1;marker-start:url(#Stop);marker-end:url(#Stop)"
       d="M 169.5,209 V 235"
       id="path246-6" />
  </g>
</svg>
