<?xml version="1.0" encoding="utf-8" ?>
<svg baseProfile="full" height="300mm" version="1.1" viewBox="0 0 1200 300" width="1200mm" xmlns="http://www.w3.org/2000/svg" xmlns:ev="http://www.w3.org/2001/xml-events" xmlns:xlink="http://www.w3.org/1999/xlink"><defs /><g fill="none" stroke="blue" stroke-width="0.5" transform="translate(-762.5,65.0)"><path d="M 924.5,57.21539030917336 L 924.5,24.182069312382623 L 934.0358983848622,40.69872981077805 L 924.5,57.21539030917336 Z" /><path d="M 932.3038475772934,80.99999999999989 L 924.5,80.99999999999989 L 924.5,69.21539030917342 L 925.0,68.349364905389 L 932.3038475772934,80.99999999999989 Z" /><path d="M 937.5,77.99999999999977 L 930.1961524227066,65.34936490538888 L 944.8038475772934,65.34936490538888 L 937.5,77.99999999999977 Z" /><path d="M 937.5,46.69872981077782 L 944.8038475772934,59.34936490538888 L 930.1961524227066,59.34936490538888 L 937.5,46.69872981077782 Z" /><path d="M 950.0,56.349364905388995 L 942.6961524227066,43.698729810777934 L 957.3038475772934,43.698729810777934 L 950.0,56.349364905388995 Z" /><path d="M 931.3230854637603,24.0 L 943.6769145362397,24.0 L 937.5,34.69872981077782 L 931.3230854637603,24.0 Z" /><path d="M 950.0,25.048094716167043 L 957.3038475772934,37.698729810777934 L 942.6961524227066,37.698729810777934 L 950.0,25.048094716167043 Z" /><path d="M 956.3230854637603,24.0 L 968.6769145362397,24.0 L 962.5,34.69872981077782 L 956.3230854637603,24.0 Z" /><path d="M 975.0,25.048094716167043 L 982.3038475772934,37.698729810777934 L 967.6961524227066,37.698729810777934 L 975.0,25.048094716167043 Z" /><path d="M 981.3230854637603,24.0 L 993.6769145362397,24.0 L 987.5,34.69872981077782 L 981.3230854637603,24.0 Z" /><path d="M 935.7679491924312,124.30127018922178 L 924.5,124.30127018922178 L 924.5,86.99999999999989 L 935.7679491924312,86.99999999999989 L 946.5358983848623,105.65063509461083 L 935.7679491924312,124.30127018922178 Z" /><path d="M 924.5,142.08587988004825 L 924.5,130.30127018922178 L 932.3038475772934,130.30127018922178 L 925.0,142.95190528383267 L 924.5,142.08587988004825 Z" /><path d="M 943.6769145362399,144.0 L 931.3230854637601,144.0 L 937.5,133.3012701892219 L 943.6769145362399,144.0 Z" /><path d="M 950.0,142.95190528383267 L 942.6961524227066,130.30127018922178 L 957.3038475772934,130.30127018922178 L 950.0,142.95190528383267 Z" /><path d="M 950.0,111.65063509461072 L 957.3038475772934,124.30127018922178 L 942.6961524227066,124.30127018922178 L 950.0,111.65063509461072 Z" /><path d="M 962.5,121.3012701892219 L 955.1961524227066,108.65063509461083 L 969.8038475772934,108.65063509461083 L 962.5,121.3012701892219 Z" /><path d="M 996.5358983848623,62.34936490538888 L 985.7679491924312,80.99999999999983 L 964.2320508075688,80.99999999999983 L 953.4641016151377,62.34936490538888 L 964.2320508075688,43.698729810777934 L 985.7679491924312,43.698729810777934 L 996.5358983848623,62.34936490538888 Z" /><path d="M 950.0,68.34936490538877 L 957.3038475772934,80.99999999999983 L 942.6961524227066,80.99999999999983 L 950.0,68.34936490538877 Z" /><path d="M 950.0,99.65063509461072 L 942.6961524227066,86.99999999999983 L 957.3038475772934,86.99999999999983 L 950.0,99.65063509461072 Z" /><path d="M 962.5,89.99999999999994 L 969.8038475772934,102.65063509461083 L 955.1961524227066,102.65063509461083 L 962.5,89.99999999999994 Z" /><path d="M 975.0,99.65063509461072 L 967.6961524227066,86.99999999999983 L 982.3038475772934,86.99999999999983 L 975.0,99.65063509461072 Z" /><path d="M 987.5,89.99999999999994 L 994.8038475772934,102.65063509461083 L 980.1961524227066,102.65063509461083 L 987.5,89.99999999999994 Z" /><path d="M 1000.0,99.65063509461072 L 992.6961524227066,86.99999999999983 L 1007.3038475772934,86.99999999999983 L 1000.0,99.65063509461072 Z" /><path d="M 1000.0,68.34936490538877 L 1007.3038475772934,80.99999999999983 L 992.6961524227066,80.99999999999983 L 1000.0,68.34936490538877 Z" /><path d="M 1012.5,77.99999999999994 L 1005.1961524227066,65.34936490538888 L 1019.8038475772934,65.34936490538888 L 1012.5,77.99999999999994 Z" /><path d="M 1035.7679491924312,37.69872981077788 L 1014.2320508075688,37.69872981077788 L 1006.3230854637602,24.0 L 1043.6769145362396,24.0 L 1035.7679491924312,37.69872981077788 Z" /><path d="M 1000.0,25.048094716166815 L 1007.3038475772934,37.69872981077788 L 992.6961524227066,37.69872981077788 L 1000.0,25.048094716166815 Z" /><path d="M 1000.0,56.34936490538877 L 992.6961524227066,43.69872981077788 L 1007.3038475772934,43.69872981077788 L 1000.0,56.34936490538877 Z" /><path d="M 1012.5,46.69872981077799 L 1019.8038475772934,59.34936490538888 L 1005.1961524227066,59.34936490538888 L 1012.5,46.69872981077799 Z" /><path d="M 1025.0,56.34936490538877 L 1017.6961524227066,43.69872981077788 L 1032.3038475772933,43.69872981077788 L 1025.0,56.34936490538877 Z" /><path d="M 1037.5,46.69872981077799 L 1044.8038475772933,59.34936490538888 L 1030.1961524227067,59.34936490538888 L 1037.5,46.69872981077799 Z" /><path d="M 1050.0,56.34936490538877 L 1042.6961524227067,43.69872981077788 L 1057.3038475772933,43.69872981077788 L 1050.0,56.34936490538877 Z" /><path d="M 1050.0,25.048094716167043 L 1057.3038475772933,37.69872981077788 L 1042.6961524227067,37.69872981077788 L 1050.0,25.048094716167043 Z" /><path d="M 1056.3230854637604,24.0 L 1068.6769145362396,24.0 L 1062.5,34.69872981077776 L 1056.3230854637604,24.0 Z" /><path d="M 999.3948822334845,144.0 L 975.6051177665154,144.0 L 965.9641016151377,127.30127018922178 L 976.7320508075688,108.65063509461083 L 998.2679491924312,108.65063509461083 L 1009.0358983848622,127.30127018922167 L 999.3948822334845,144.0 Z" /><path d="M 968.6769145362398,144.0 L 956.32308546376,144.0 L 962.4999999999999,133.30127018922178 L 968.6769145362398,144.0 Z" /><path d="M 1018.6769145362398,144.0 L 1006.32308546376,144.0 L 1012.4999999999999,133.30127018922178 L 1018.6769145362398,144.0 Z" /><path d="M 1025.0,142.95190528383273 L 1017.6961524227066,130.30127018922178 L 1032.3038475772933,130.30127018922178 L 1025.0,142.95190528383273 Z" /><path d="M 1059.035898384862,83.99999999999983 L 1048.2679491924312,102.65063509461083 L 1026.7320508075688,102.65063509461078 L 1015.9641016151377,83.99999999999983 L 1026.7320508075688,65.34936490538888 L 1048.2679491924312,65.34936490538888 L 1059.035898384862,83.99999999999983 Z" /><path d="M 1012.4999999999999,89.99999999999983 L 1019.8038475772933,102.65063509461083 L 1005.1961524227065,102.65063509461078 L 1012.4999999999999,89.99999999999983 Z" /><path d="M 1012.5,121.30127018922173 L 1005.1961524227066,108.65063509461078 L 1019.8038475772934,108.65063509461083 L 1012.5,121.30127018922173 Z" /><path d="M 1025.0,111.65063509461095 L 1032.3038475772933,124.30127018922184 L 1017.6961524227066,124.30127018922184 L 1025.0,111.65063509461095 Z" /><path d="M 1037.5,121.30127018922173 L 1030.1961524227067,108.65063509461078 L 1044.8038475772933,108.65063509461083 L 1037.5,121.30127018922173 Z" /><path d="M 1050.0,111.65063509461095 L 1057.3038475772933,124.30127018922184 L 1042.6961524227067,124.30127018922184 L 1050.0,111.65063509461095 Z" /><path d="M 1062.5,121.30127018922173 L 1055.1961524227067,108.65063509461078 L 1069.8038475772933,108.65063509461083 L 1062.5,121.30127018922173 Z" /><path d="M 1062.5,89.99999999999994 L 1069.8038475772933,102.65063509461083 L 1055.1961524227067,102.65063509461078 L 1062.5,89.99999999999994 Z" /><path d="M 1075.0,99.65063509461066 L 1067.6961524227067,86.99999999999983 L 1082.3038475772933,86.99999999999983 L 1075.0,99.65063509461066 Z" /><path d="M 1098.2679491924312,59.34936490538888 L 1076.7320508075688,59.349364905388825 L 1065.964101615138,40.69872981077788 L 1075.6051177665151,24.0 L 1099.3948822334849,24.0 L 1109.035898384862,40.69872981077788 L 1098.2679491924312,59.34936490538888 Z" /><path d="M 1062.5,46.69872981077799 L 1069.8038475772933,59.34936490538888 L 1055.1961524227067,59.349364905388825 L 1062.5,46.69872981077799 Z" /><path d="M 1062.5,77.99999999999977 L 1055.1961524227067,65.34936490538882 L 1069.8038475772933,65.34936490538888 L 1062.5,77.99999999999977 Z" /><path d="M 1075.0,68.349364905389 L 1082.3038475772933,80.99999999999989 L 1067.6961524227067,80.99999999999989 L 1075.0,68.349364905389 Z" /><path d="M 1087.5,77.99999999999977 L 1080.1961524227067,65.34936490538882 L 1094.8038475772933,65.34936490538888 L 1087.5,77.99999999999977 Z" /><path d="M 1100.0,68.349364905389 L 1107.3038475772933,80.99999999999989 L 1092.6961524227067,80.99999999999989 L 1100.0,68.349364905389 Z" /><path d="M 1112.5,77.99999999999977 L 1105.1961524227067,65.34936490538882 L 1119.8038475772933,65.34936490538888 L 1112.5,77.99999999999977 Z" /><path d="M 1112.5,46.69872981077799 L 1119.8038475772933,59.34936490538888 L 1105.1961524227067,59.349364905388825 L 1112.5,46.69872981077799 Z" /><path d="M 1125.0,56.34936490538871 L 1117.6961524227067,43.69872981077788 L 1132.3038475772933,43.69872981077788 L 1125.0,56.34936490538871 Z" /><path d="M 1106.3230854637604,24.0 L 1118.6769145362396,24.0 L 1112.5,34.69872981077782 L 1106.3230854637604,24.0 Z" /><path d="M 1125.0,25.048094716167043 L 1132.3038475772933,37.698729810777934 L 1117.6961524227067,37.698729810777934 L 1125.0,25.048094716167043 Z" /><path d="M 1131.3230854637604,24.0 L 1143.6769145362396,24.0 L 1137.5,34.69872981077782 L 1131.3230854637604,24.0 Z" /><path d="M 1150.0,25.048094716167043 L 1157.3038475772933,37.698729810777934 L 1142.6961524227067,37.698729810777934 L 1150.0,25.048094716167043 Z" /><path d="M 1156.3230854637604,24.0 L 1168.6769145362396,24.0 L 1162.5,34.69872981077782 L 1156.3230854637604,24.0 Z" /><path d="M 1039.2320508075688,130.30127018922184 L 1060.7679491924312,130.30127018922184 L 1068.6769145362398,144.0 L 1031.3230854637602,144.0 L 1039.2320508075688,130.30127018922184 Z" /><path d="M 1121.535898384862,105.65063509461083 L 1110.7679491924312,124.30127018922184 L 1089.2320508075688,124.30127018922178 L 1078.464101615138,105.65063509461083 L 1089.2320508075688,86.99999999999989 L 1110.7679491924312,86.99999999999989 L 1121.535898384862,105.65063509461083 Z" /><path d="M 1075.0,111.65063509461095 L 1082.3038475772933,124.30127018922184 L 1067.6961524227067,124.30127018922178 L 1075.0,111.65063509461095 Z" /><path d="M 1075.0,142.95190528383267 L 1067.6961524227067,130.30127018922178 L 1082.3038475772933,130.30127018922184 L 1075.0,142.95190528383267 Z" /><path d="M 1093.6769145362398,144.0 L 1081.3230854637602,144.0 L 1087.5,133.30127018922195 L 1093.6769145362398,144.0 Z" /><path d="M 1100.0,142.95190528383267 L 1092.6961524227067,130.30127018922178 L 1107.3038475772933,130.30127018922184 L 1100.0,142.95190528383267 Z" /><path d="M 1118.6769145362398,144.0 L 1106.3230854637602,144.0 L 1112.5,133.30127018922195 L 1118.6769145362398,144.0 Z" /><path d="M 1125.0,142.95190528383267 L 1117.6961524227067,130.30127018922178 L 1132.3038475772933,130.30127018922184 L 1125.0,142.95190528383267 Z" /><path d="M 1125.0,111.65063509461095 L 1132.3038475772933,124.30127018922184 L 1117.6961524227067,124.30127018922178 L 1125.0,111.65063509461095 Z" /><path d="M 1137.5,121.30127018922167 L 1130.1961524227067,108.65063509461083 L 1144.8038475772933,108.65063509461083 L 1137.5,121.30127018922167 Z" /><path d="M 1171.535898384862,62.34936490538888 L 1160.7679491924312,80.99999999999989 L 1139.2320508075688,80.99999999999983 L 1128.464101615138,62.34936490538888 L 1139.2320508075688,43.698729810777934 L 1160.7679491924312,43.698729810777934 L 1171.535898384862,62.34936490538888 Z" /><path d="M 1125.0,68.349364905389 L 1132.3038475772933,80.99999999999989 L 1117.6961524227067,80.99999999999983 L 1125.0,68.349364905389 Z" /><path d="M 1125.0,99.65063509461072 L 1117.6961524227067,86.99999999999983 L 1132.3038475772933,86.99999999999989 L 1125.0,99.65063509461072 Z" /><path d="M 1137.5,90.0 L 1144.8038475772933,102.65063509461083 L 1130.1961524227067,102.65063509461083 L 1137.5,90.0 Z" /><path d="M 1150.0,99.65063509461072 L 1142.6961524227067,86.99999999999983 L 1157.3038475772933,86.99999999999989 L 1150.0,99.65063509461072 Z" /><path d="M 1162.5,90.0 L 1169.8038475772933,102.65063509461083 L 1155.1961524227067,102.65063509461083 L 1162.5,90.0 Z" /><path d="M 1175.0,99.65063509461072 L 1167.6961524227067,86.99999999999983 L 1182.3038475772933,86.99999999999989 L 1175.0,99.65063509461072 Z" /><path d="M 1175.0,68.349364905389 L 1182.3038475772933,80.99999999999989 L 1167.6961524227067,80.99999999999983 L 1175.0,68.349364905389 Z" /><path d="M 1187.5,77.99999999999972 L 1180.1961524227067,65.34936490538888 L 1194.8038475772933,65.34936490538888 L 1187.5,77.99999999999972 Z" /><path d="M 1210.7679491924312,37.698729810777934 L 1189.2320508075688,37.69872981077788 L 1181.3230854637604,24.0 L 1218.6769145362396,24.0 L 1210.7679491924312,37.698729810777934 Z" /><path d="M 1175.0,25.048094716167043 L 1182.3038475772933,37.698729810777934 L 1167.6961524227067,37.69872981077788 L 1175.0,25.048094716167043 Z" /><path d="M 1175.0,56.34936490538877 L 1167.6961524227067,43.69872981077788 L 1182.3038475772933,43.698729810777934 L 1175.0,56.34936490538877 Z" /><path d="M 1187.5,46.69872981077805 L 1194.8038475772933,59.34936490538888 L 1180.1961524227067,59.34936490538888 L 1187.5,46.69872981077805 Z" /><path d="M 1200.0,56.34936490538877 L 1192.6961524227067,43.69872981077788 L 1207.3038475772933,43.698729810777934 L 1200.0,56.34936490538877 Z" /><path d="M 1212.5,46.69872981077805 L 1219.8038475772933,59.34936490538888 L 1205.1961524227067,59.34936490538888 L 1212.5,46.69872981077805 Z" /><path d="M 1225.0,56.34936490538877 L 1217.6961524227067,43.69872981077788 L 1232.3038475772933,43.698729810777934 L 1225.0,56.34936490538877 Z" /><path d="M 1225.0,25.048094716167043 L 1232.3038475772933,37.698729810777934 L 1217.6961524227067,37.69872981077788 L 1225.0,25.048094716167043 Z" /><path d="M 1231.3230854637604,24.0 L 1243.6769145362396,24.0 L 1237.5,34.69872981077776 L 1231.3230854637604,24.0 Z" /><path d="M 1174.3948822334846,144.0 L 1150.6051177665154,144.0 L 1140.964101615138,127.30127018922178 L 1151.7320508075688,108.65063509461083 L 1173.2679491924312,108.65063509461083 L 1184.035898384862,127.30127018922178 L 1174.3948822334846,144.0 Z" /><path d="M 1143.6769145362398,144.0 L 1131.3230854637602,144.0 L 1137.5,133.3012701892219 L 1143.6769145362398,144.0 Z" /><path d="M 1193.6769145362398,144.0 L 1181.3230854637602,144.0 L 1187.5,133.3012701892219 L 1193.6769145362398,144.0 Z" /><path d="M 1200.0,142.95190528383262 L 1192.6961524227067,130.30127018922178 L 1207.3038475772933,130.30127018922178 L 1200.0,142.95190528383262 Z" /><path d="M 1234.035898384862,83.99999999999983 L 1223.2679491924312,102.65063509461083 L 1201.7320508075688,102.65063509461078 L 1190.964101615138,83.99999999999983 L 1201.7320508075688,65.34936490538888 L 1223.2679491924312,65.34936490538888 L 1234.035898384862,83.99999999999983 Z" /><path d="M 1187.5,89.99999999999994 L 1194.8038475772933,102.65063509461083 L 1180.1961524227067,102.65063509461078 L 1187.5,89.99999999999994 Z" /><path d="M 1187.5,121.30127018922173 L 1180.1961524227067,108.65063509461078 L 1194.8038475772933,108.65063509461083 L 1187.5,121.30127018922173 Z" /><path d="M 1200.0,111.65063509461095 L 1207.3038475772933,124.30127018922184 L 1192.6961524227067,124.30127018922184 L 1200.0,111.65063509461095 Z" /><path d="M 1212.5,121.30127018922173 L 1205.1961524227067,108.65063509461078 L 1219.8038475772933,108.65063509461083 L 1212.5,121.30127018922173 Z" /><path d="M 1225.0,111.65063509461095 L 1232.3038475772933,124.30127018922184 L 1217.6961524227067,124.30127018922184 L 1225.0,111.65063509461095 Z" /><path d="M 1237.5,121.30127018922173 L 1230.1961524227067,108.65063509461078 L 1244.8038475772933,108.65063509461083 L 1237.5,121.30127018922173 Z" /><path d="M 1237.5,89.99999999999994 L 1244.8038475772933,102.65063509461083 L 1230.1961524227067,102.65063509461078 L 1237.5,89.99999999999994 Z" /><path d="M 1250.0,99.65063509461066 L 1242.6961524227067,86.99999999999983 L 1257.3038475772933,86.99999999999983 L 1250.0,99.65063509461066 Z" /><path d="M 1273.2679491924312,59.34936490538888 L 1251.7320508075688,59.349364905388825 L 1240.964101615138,40.69872981077788 L 1250.6051177665151,24.0 L 1274.3948822334849,24.0 L 1284.035898384862,40.69872981077788 L 1273.2679491924312,59.34936490538888 Z" /><path d="M 1237.5,46.69872981077799 L 1244.8038475772933,59.34936490538888 L 1230.1961524227067,59.349364905388825 L 1237.5,46.69872981077799 Z" /><path d="M 1237.5,77.99999999999977 L 1230.1961524227067,65.34936490538882 L 1244.8038475772933,65.34936490538888 L 1237.5,77.99999999999977 Z" /><path d="M 1250.0,68.349364905389 L 1257.3038475772933,80.99999999999989 L 1242.6961524227067,80.99999999999989 L 1250.0,68.349364905389 Z" /><path d="M 1262.5,77.99999999999977 L 1255.1961524227067,65.34936490538882 L 1269.8038475772933,65.34936490538888 L 1262.5,77.99999999999977 Z" /><path d="M 1275.0,68.349364905389 L 1282.3038475772933,80.99999999999989 L 1267.6961524227067,80.99999999999989 L 1275.0,68.349364905389 Z" /><path d="M 1287.5,77.99999999999977 L 1280.1961524227067,65.34936490538882 L 1294.8038475772933,65.34936490538888 L 1287.5,77.99999999999977 Z" /><path d="M 1287.5,46.69872981077799 L 1294.8038475772933,59.34936490538888 L 1280.1961524227067,59.349364905388825 L 1287.5,46.69872981077799 Z" /><path d="M 1300.0,56.34936490538871 L 1292.6961524227067,43.69872981077788 L 1307.3038475772933,43.69872981077788 L 1300.0,56.34936490538871 Z" /><path d="M 1281.3230854637604,24.0 L 1293.6769145362396,24.0 L 1287.5,34.69872981077782 L 1281.3230854637604,24.0 Z" /><path d="M 1300.0,25.048094716167043 L 1307.3038475772933,37.698729810777934 L 1292.6961524227067,37.698729810777934 L 1300.0,25.048094716167043 Z" /><path d="M 1306.3230854637604,24.0 L 1318.6769145362396,24.0 L 1312.5,34.69872981077782 L 1306.3230854637604,24.0 Z" /><path d="M 1325.0,25.048094716167043 L 1332.3038475772933,37.698729810777934 L 1317.6961524227067,37.698729810777934 L 1325.0,25.048094716167043 Z" /><path d="M 1331.3230854637604,24.0 L 1343.6769145362396,24.0 L 1337.5,34.69872981077782 L 1331.3230854637604,24.0 Z" /><path d="M 1214.2320508075688,130.30127018922184 L 1235.7679491924312,130.30127018922184 L 1243.6769145362398,144.0 L 1206.3230854637602,144.0 L 1214.2320508075688,130.30127018922184 Z" /><path d="M 1296.535898384862,105.65063509461083 L 1285.7679491924312,124.30127018922184 L 1264.2320508075688,124.30127018922178 L 1253.464101615138,105.65063509461083 L 1264.2320508075688,86.99999999999989 L 1285.7679491924312,86.99999999999989 L 1296.535898384862,105.65063509461083 Z" /><path d="M 1250.0,111.65063509461095 L 1257.3038475772933,124.30127018922184 L 1242.6961524227067,124.30127018922178 L 1250.0,111.65063509461095 Z" /><path d="M 1250.0,142.95190528383267 L 1242.6961524227067,130.30127018922178 L 1257.3038475772933,130.30127018922184 L 1250.0,142.95190528383267 Z" /><path d="M 1268.6769145362398,144.0 L 1256.3230854637602,144.0 L 1262.5,133.30127018922195 L 1268.6769145362398,144.0 Z" /><path d="M 1275.0,142.95190528383267 L 1267.6961524227067,130.30127018922178 L 1282.3038475772933,130.30127018922184 L 1275.0,142.95190528383267 Z" /><path d="M 1293.6769145362398,144.0 L 1281.3230854637602,144.0 L 1287.5,133.30127018922195 L 1293.6769145362398,144.0 Z" /><path d="M 1300.0,142.95190528383267 L 1292.6961524227067,130.30127018922178 L 1307.3038475772933,130.30127018922184 L 1300.0,142.95190528383267 Z" /><path d="M 1300.0,111.65063509461095 L 1307.3038475772933,124.30127018922184 L 1292.6961524227067,124.30127018922178 L 1300.0,111.65063509461095 Z" /><path d="M 1312.5,121.30127018922167 L 1305.1961524227067,108.65063509461083 L 1319.8038475772933,108.65063509461083 L 1312.5,121.30127018922167 Z" /><path d="M 1346.535898384862,62.34936490538888 L 1335.7679491924312,80.99999999999989 L 1314.2320508075688,80.99999999999983 L 1303.464101615138,62.34936490538888 L 1314.2320508075688,43.698729810777934 L 1335.7679491924312,43.698729810777934 L 1346.535898384862,62.34936490538888 Z" /><path d="M 1300.0,68.349364905389 L 1307.3038475772933,80.99999999999989 L 1292.6961524227067,80.99999999999983 L 1300.0,68.349364905389 Z" /><path d="M 1300.0,99.65063509461072 L 1292.6961524227067,86.99999999999983 L 1307.3038475772933,86.99999999999989 L 1300.0,99.65063509461072 Z" /><path d="M 1312.5,90.0 L 1319.8038475772933,102.65063509461083 L 1305.1961524227067,102.65063509461083 L 1312.5,90.0 Z" /><path d="M 1325.0,99.65063509461072 L 1317.6961524227067,86.99999999999983 L 1332.3038475772933,86.99999999999989 L 1325.0,99.65063509461072 Z" /><path d="M 1337.5,90.0 L 1344.8038475772933,102.65063509461083 L 1330.1961524227067,102.65063509461083 L 1337.5,90.0 Z" /><path d="M 1350.0,99.65063509461072 L 1342.6961524227067,86.99999999999983 L 1357.3038475772933,86.99999999999989 L 1350.0,99.65063509461072 Z" /><path d="M 1350.0,68.349364905389 L 1357.3038475772933,80.99999999999989 L 1342.6961524227067,80.99999999999983 L 1350.0,68.349364905389 Z" /><path d="M 1362.5,77.99999999999972 L 1355.1961524227067,65.34936490538888 L 1369.8038475772933,65.34936490538888 L 1362.5,77.99999999999972 Z" /><path d="M 1385.7679491924312,37.698729810777934 L 1364.2320508075688,37.69872981077788 L 1356.3230854637604,24.0 L 1393.6769145362396,24.0 L 1385.7679491924312,37.698729810777934 Z" /><path d="M 1350.0,25.048094716167043 L 1357.3038475772933,37.698729810777934 L 1342.6961524227067,37.69872981077788 L 1350.0,25.048094716167043 Z" /><path d="M 1350.0,56.34936490538877 L 1342.6961524227067,43.69872981077788 L 1357.3038475772933,43.698729810777934 L 1350.0,56.34936490538877 Z" /><path d="M 1362.5,46.69872981077805 L 1369.8038475772933,59.34936490538888 L 1355.1961524227067,59.34936490538888 L 1362.5,46.69872981077805 Z" /><path d="M 1375.0,56.34936490538877 L 1367.6961524227067,43.69872981077788 L 1382.3038475772933,43.698729810777934 L 1375.0,56.34936490538877 Z" /><path d="M 1387.5,46.69872981077805 L 1394.8038475772933,59.34936490538888 L 1380.1961524227067,59.34936490538888 L 1387.5,46.69872981077805 Z" /><path d="M 1400.0,56.34936490538877 L 1392.6961524227067,43.69872981077788 L 1407.3038475772933,43.698729810777934 L 1400.0,56.34936490538877 Z" /><path d="M 1400.0,25.048094716167043 L 1407.3038475772933,37.698729810777934 L 1392.6961524227067,37.69872981077788 L 1400.0,25.048094716167043 Z" /><path d="M 1406.3230854637604,24.0 L 1418.6769145362396,24.0 L 1412.5,34.69872981077776 L 1406.3230854637604,24.0 Z" /><path d="M 1349.3948822334846,144.0 L 1325.6051177665154,144.0 L 1315.964101615138,127.30127018922178 L 1326.7320508075688,108.65063509461083 L 1348.2679491924312,108.65063509461083 L 1359.035898384862,127.30127018922178 L 1349.3948822334846,144.0 Z" /><path d="M 1318.6769145362398,144.0 L 1306.3230854637602,144.0 L 1312.5,133.3012701892219 L 1318.6769145362398,144.0 Z" /><path d="M 1368.6769145362398,144.0 L 1356.3230854637602,144.0 L 1362.5,133.3012701892219 L 1368.6769145362398,144.0 Z" /><path d="M 1375.0,142.95190528383262 L 1367.6961524227067,130.30127018922178 L 1382.3038475772933,130.30127018922178 L 1375.0,142.95190528383262 Z" /><path d="M 1409.035898384862,83.99999999999983 L 1398.2679491924312,102.65063509461083 L 1376.7320508075688,102.65063509461078 L 1365.964101615138,83.99999999999983 L 1376.7320508075688,65.34936490538888 L 1398.2679491924312,65.34936490538888 L 1409.035898384862,83.99999999999983 Z" /><path d="M 1362.5,89.99999999999994 L 1369.8038475772933,102.65063509461083 L 1355.1961524227067,102.65063509461078 L 1362.5,89.99999999999994 Z" /><path d="M 1362.5,121.30127018922167 L 1355.1961524227067,108.65063509461078 L 1369.8038475772933,108.65063509461083 L 1362.5,121.30127018922167 Z" /><path d="M 1375.0,111.65063509461095 L 1382.3038475772933,124.30127018922178 L 1367.6961524227067,124.30127018922178 L 1375.0,111.65063509461095 Z" /><path d="M 1387.5,121.30127018922167 L 1380.1961524227067,108.65063509461078 L 1394.8038475772933,108.65063509461083 L 1387.5,121.30127018922167 Z" /><path d="M 1400.0,111.65063509461095 L 1407.3038475772933,124.30127018922178 L 1392.6961524227067,124.30127018922178 L 1400.0,111.65063509461095 Z" /><path d="M 1412.5,121.30127018922167 L 1405.1961524227067,108.65063509461078 L 1419.8038475772933,108.65063509461083 L 1412.5,121.30127018922167 Z" /><path d="M 1412.5,89.99999999999994 L 1419.8038475772933,102.65063509461083 L 1405.1961524227067,102.65063509461078 L 1412.5,89.99999999999994 Z" /><path d="M 1425.0,99.65063509461066 L 1417.6961524227067,86.99999999999983 L 1432.3038475772933,86.99999999999983 L 1425.0,99.65063509461066 Z" /><path d="M 1448.2679491924312,59.34936490538888 L 1426.7320508075688,59.349364905388825 L 1415.964101615138,40.69872981077788 L 1425.6051177665151,24.0 L 1449.3948822334849,24.0 L 1459.035898384862,40.69872981077788 L 1448.2679491924312,59.34936490538888 Z" /><path d="M 1412.5,46.69872981077799 L 1419.8038475772933,59.34936490538888 L 1405.1961524227067,59.349364905388825 L 1412.5,46.69872981077799 Z" /><path d="M 1412.5,77.99999999999972 L 1405.1961524227067,65.34936490538882 L 1419.8038475772933,65.34936490538888 L 1412.5,77.99999999999972 Z" /><path d="M 1425.0,68.349364905389 L 1432.3038475772933,80.99999999999983 L 1417.6961524227067,80.99999999999983 L 1425.0,68.349364905389 Z" /><path d="M 1437.5,77.99999999999972 L 1430.1961524227067,65.34936490538882 L 1444.8038475772933,65.34936490538888 L 1437.5,77.99999999999972 Z" /><path d="M 1450.0,68.349364905389 L 1457.3038475772933,80.99999999999983 L 1442.6961524227067,80.99999999999983 L 1450.0,68.349364905389 Z" /><path d="M 1462.5,77.99999999999972 L 1455.1961524227067,65.34936490538882 L 1469.8038475772933,65.34936490538888 L 1462.5,77.99999999999972 Z" /><path d="M 1462.5,46.69872981077799 L 1469.8038475772933,59.34936490538888 L 1455.1961524227067,59.349364905388825 L 1462.5,46.69872981077799 Z" /><path d="M 1475.0,56.34936490538871 L 1467.6961524227067,43.69872981077788 L 1482.3038475772933,43.69872981077788 L 1475.0,56.34936490538871 Z" /><path d="M 1456.3230854637604,24.0 L 1468.6769145362396,24.0 L 1462.5,34.69872981077776 L 1456.3230854637604,24.0 Z" /><path d="M 1475.0,25.048094716167043 L 1482.3038475772933,37.69872981077788 L 1467.6961524227067,37.69872981077788 L 1475.0,25.048094716167043 Z" /><path d="M 1481.3230854637604,24.0 L 1493.6769145362396,24.0 L 1487.5,34.69872981077776 L 1481.3230854637604,24.0 Z" /><path d="M 1500.0,25.048094716167043 L 1507.3038475772933,37.69872981077788 L 1492.6961524227067,37.69872981077788 L 1500.0,25.048094716167043 Z" /><path d="M 1506.3230854637604,24.0 L 1518.6769145362396,24.0 L 1512.5,34.69872981077776 L 1506.3230854637604,24.0 Z" /><path d="M 1389.2320508075688,130.30127018922178 L 1410.7679491924312,130.30127018922178 L 1418.6769145362398,144.0 L 1381.3230854637602,144.0 L 1389.2320508075688,130.30127018922178 Z" /><path d="M 1471.535898384862,105.65063509461078 L 1460.7679491924312,124.30127018922178 L 1439.2320508075688,124.30127018922173 L 1428.464101615138,105.65063509461078 L 1439.2320508075688,86.99999999999983 L 1460.7679491924312,86.99999999999983 L 1471.535898384862,105.65063509461078 Z" /><path d="M 1425.0,111.65063509461089 L 1432.3038475772933,124.30127018922178 L 1417.6961524227067,124.30127018922173 L 1425.0,111.65063509461089 Z" /><path d="M 1425.0,142.95190528383262 L 1417.6961524227067,130.30127018922173 L 1432.3038475772933,130.30127018922178 L 1425.0,142.95190528383262 Z" /><path d="M 1443.6769145362398,144.0 L 1431.3230854637602,144.0 L 1437.5,133.3012701892219 L 1443.6769145362398,144.0 Z" /><path d="M 1450.0,142.95190528383262 L 1442.6961524227067,130.30127018922173 L 1457.3038475772933,130.30127018922178 L 1450.0,142.95190528383262 Z" /><path d="M 1468.6769145362398,144.0 L 1456.3230854637602,144.0 L 1462.5,133.3012701892219 L 1468.6769145362398,144.0 Z" /><path d="M 1475.0,142.95190528383262 L 1467.6961524227067,130.30127018922173 L 1482.3038475772933,130.30127018922178 L 1475.0,142.95190528383262 Z" /><path d="M 1475.0,111.65063509461089 L 1482.3038475772933,124.30127018922178 L 1467.6961524227067,124.30127018922173 L 1475.0,111.65063509461089 Z" /><path d="M 1487.5,121.30127018922161 L 1480.1961524227067,108.65063509461078 L 1494.8038475772933,108.65063509461078 L 1487.5,121.30127018922161 Z" /><path d="M 1521.535898384862,62.349364905388825 L 1510.7679491924312,80.99999999999983 L 1489.2320508075688,80.99999999999977 L 1478.464101615138,62.349364905388825 L 1489.2320508075688,43.69872981077788 L 1510.7679491924312,43.69872981077788 L 1521.535898384862,62.349364905388825 Z" /><path d="M 1475.0,68.34936490538894 L 1482.3038475772933,80.99999999999983 L 1467.6961524227067,80.99999999999977 L 1475.0,68.34936490538894 Z" /><path d="M 1475.0,99.65063509461066 L 1467.6961524227067,86.99999999999977 L 1482.3038475772933,86.99999999999983 L 1475.0,99.65063509461066 Z" /><path d="M 1487.5,89.99999999999994 L 1494.8038475772933,102.65063509461078 L 1480.1961524227067,102.65063509461078 L 1487.5,89.99999999999994 Z" /><path d="M 1500.0,99.65063509461066 L 1492.6961524227067,86.99999999999977 L 1507.3038475772933,86.99999999999983 L 1500.0,99.65063509461066 Z" /><path d="M 1512.5,89.99999999999994 L 1519.8038475772933,102.65063509461078 L 1505.1961524227067,102.65063509461078 L 1512.5,89.99999999999994 Z" /><path d="M 1525.0,99.65063509461066 L 1517.6961524227067,86.99999999999977 L 1532.3038475772933,86.99999999999983 L 1525.0,99.65063509461066 Z" /><path d="M 1525.0,68.34936490538894 L 1532.3038475772933,80.99999999999983 L 1517.6961524227067,80.99999999999977 L 1525.0,68.34936490538894 Z" /><path d="M 1537.5,77.99999999999966 L 1530.1961524227067,65.34936490538882 L 1544.8038475772933,65.34936490538882 L 1537.5,77.99999999999966 Z" /><path d="M 1560.7679491924312,37.69872981077788 L 1539.2320508075688,37.69872981077782 L 1531.3230854637604,24.0 L 1568.6769145362396,24.0 L 1560.7679491924312,37.69872981077788 Z" /><path d="M 1525.0,25.048094716166986 L 1532.3038475772933,37.69872981077788 L 1517.6961524227067,37.69872981077782 L 1525.0,25.048094716166986 Z" /><path d="M 1525.0,56.34936490538871 L 1517.6961524227067,43.69872981077782 L 1532.3038475772933,43.69872981077788 L 1525.0,56.34936490538871 Z" /><path d="M 1537.5,46.69872981077799 L 1544.8038475772933,59.349364905388825 L 1530.1961524227067,59.349364905388825 L 1537.5,46.69872981077799 Z" /><path d="M 1550.0,56.34936490538871 L 1542.6961524227067,43.69872981077782 L 1557.3038475772933,43.69872981077788 L 1550.0,56.34936490538871 Z" /><path d="M 1562.5,46.69872981077799 L 1569.8038475772933,59.349364905388825 L 1555.1961524227067,59.349364905388825 L 1562.5,46.69872981077799 Z" /><path d="M 1575.0,56.34936490538871 L 1567.6961524227067,43.69872981077782 L 1582.3038475772933,43.69872981077788 L 1575.0,56.34936490538871 Z" /><path d="M 1575.0,25.048094716166986 L 1582.3038475772933,37.69872981077788 L 1567.6961524227067,37.69872981077782 L 1575.0,25.048094716166986 Z" /><path d="M 1581.3230854637604,24.0 L 1593.6769145362396,24.0 L 1587.5,34.69872981077771 L 1581.3230854637604,24.0 Z" /><path d="M 1524.3948822334846,144.0 L 1500.6051177665154,144.0 L 1490.964101615138,127.30127018922178 L 1501.7320508075688,108.65063509461083 L 1523.2679491924312,108.65063509461083 L 1534.035898384862,127.30127018922178 L 1524.3948822334846,144.0 Z" /><path d="M 1493.6769145362398,144.0 L 1481.3230854637602,144.0 L 1487.5,133.3012701892219 L 1493.6769145362398,144.0 Z" /><path d="M 1543.6769145362398,144.0 L 1531.3230854637602,144.0 L 1537.5,133.3012701892219 L 1543.6769145362398,144.0 Z" /><path d="M 1550.0,142.95190528383262 L 1542.6961524227067,130.30127018922178 L 1557.3038475772933,130.30127018922178 L 1550.0,142.95190528383262 Z" /><path d="M 1584.035898384862,83.99999999999983 L 1573.2679491924312,102.65063509461083 L 1551.7320508075688,102.65063509461078 L 1540.964101615138,83.99999999999983 L 1551.7320508075688,65.34936490538888 L 1573.2679491924312,65.34936490538888 L 1584.035898384862,83.99999999999983 Z" /><path d="M 1537.5,89.99999999999994 L 1544.8038475772933,102.65063509461083 L 1530.1961524227067,102.65063509461078 L 1537.5,89.99999999999994 Z" /><path d="M 1537.5,121.30127018922167 L 1530.1961524227067,108.65063509461078 L 1544.8038475772933,108.65063509461083 L 1537.5,121.30127018922167 Z" /><path d="M 1550.0,111.65063509461095 L 1557.3038475772933,124.30127018922178 L 1542.6961524227067,124.30127018922178 L 1550.0,111.65063509461095 Z" /><path d="M 1562.5,121.30127018922167 L 1555.1961524227067,108.65063509461078 L 1569.8038475772933,108.65063509461083 L 1562.5,121.30127018922167 Z" /><path d="M 1575.0,111.65063509461095 L 1582.3038475772933,124.30127018922178 L 1567.6961524227067,124.30127018922178 L 1575.0,111.65063509461095 Z" /><path d="M 1587.5,121.30127018922167 L 1580.1961524227067,108.65063509461078 L 1594.8038475772933,108.65063509461083 L 1587.5,121.30127018922167 Z" /><path d="M 1587.5,89.99999999999994 L 1594.8038475772933,102.65063509461083 L 1580.1961524227067,102.65063509461078 L 1587.5,89.99999999999994 Z" /><path d="M 1600.0,99.65063509461066 L 1592.6961524227067,86.99999999999983 L 1607.3038475772933,86.99999999999983 L 1600.0,99.65063509461066 Z" /><path d="M 1623.2679491924312,59.34936490538888 L 1601.7320508075688,59.349364905388825 L 1590.964101615138,40.69872981077788 L 1600.6051177665151,24.0 L 1624.3948822334849,24.0 L 1634.035898384862,40.69872981077788 L 1623.2679491924312,59.34936490538888 Z" /><path d="M 1587.5,46.69872981077799 L 1594.8038475772933,59.34936490538888 L 1580.1961524227067,59.349364905388825 L 1587.5,46.69872981077799 Z" /><path d="M 1587.5,77.99999999999972 L 1580.1961524227067,65.34936490538882 L 1594.8038475772933,65.34936490538888 L 1587.5,77.99999999999972 Z" /><path d="M 1600.0,68.349364905389 L 1607.3038475772933,80.99999999999983 L 1592.6961524227067,80.99999999999983 L 1600.0,68.349364905389 Z" /><path d="M 1612.5,77.99999999999972 L 1605.1961524227067,65.34936490538882 L 1619.8038475772933,65.34936490538888 L 1612.5,77.99999999999972 Z" /><path d="M 1625.0,68.349364905389 L 1632.3038475772933,80.99999999999983 L 1617.6961524227067,80.99999999999983 L 1625.0,68.349364905389 Z" /><path d="M 1637.5,77.99999999999972 L 1630.1961524227067,65.34936490538882 L 1644.8038475772933,65.34936490538888 L 1637.5,77.99999999999972 Z" /><path d="M 1637.5,46.69872981077799 L 1644.8038475772933,59.34936490538888 L 1630.1961524227067,59.349364905388825 L 1637.5,46.69872981077799 Z" /><path d="M 1650.0,56.34936490538871 L 1642.6961524227067,43.69872981077788 L 1657.3038475772933,43.69872981077788 L 1650.0,56.34936490538871 Z" /><path d="M 1631.3230854637604,24.0 L 1643.6769145362396,24.0 L 1637.5,34.69872981077776 L 1631.3230854637604,24.0 Z" /><path d="M 1650.0,25.048094716167043 L 1657.3038475772933,37.69872981077788 L 1642.6961524227067,37.69872981077788 L 1650.0,25.048094716167043 Z" /><path d="M 1656.3230854637604,24.0 L 1668.6769145362396,24.0 L 1662.5,34.69872981077776 L 1656.3230854637604,24.0 Z" /><path d="M 1675.0,25.048094716167043 L 1682.3038475772933,37.69872981077788 L 1667.6961524227067,37.69872981077788 L 1675.0,25.048094716167043 Z" /><path d="M 1681.3230854637604,24.0 L 1693.6769145362396,24.0 L 1687.5,34.69872981077776 L 1681.3230854637604,24.0 Z" /><path d="M 1564.2320508075688,130.30127018922178 L 1585.7679491924312,130.30127018922178 L 1593.6769145362398,144.0 L 1556.3230854637602,144.0 L 1564.2320508075688,130.30127018922178 Z" /><path d="M 1646.535898384862,105.65063509461078 L 1635.7679491924312,124.30127018922178 L 1614.2320508075688,124.30127018922173 L 1603.464101615138,105.65063509461078 L 1614.2320508075688,86.99999999999983 L 1635.7679491924312,86.99999999999983 L 1646.535898384862,105.65063509461078 Z" /><path d="M 1600.0,111.65063509461089 L 1607.3038475772933,124.30127018922178 L 1592.6961524227067,124.30127018922173 L 1600.0,111.65063509461089 Z" /><path d="M 1600.0,142.95190528383262 L 1592.6961524227067,130.30127018922173 L 1607.3038475772933,130.30127018922178 L 1600.0,142.95190528383262 Z" /><path d="M 1618.6769145362398,144.0 L 1606.3230854637602,144.0 L 1612.5,133.3012701892219 L 1618.6769145362398,144.0 Z" /><path d="M 1625.0,142.95190528383262 L 1617.6961524227067,130.30127018922173 L 1632.3038475772933,130.30127018922178 L 1625.0,142.95190528383262 Z" /><path d="M 1643.6769145362398,144.0 L 1631.3230854637602,144.0 L 1637.5,133.3012701892219 L 1643.6769145362398,144.0 Z" /><path d="M 1650.0,142.95190528383262 L 1642.6961524227067,130.30127018922173 L 1657.3038475772933,130.30127018922178 L 1650.0,142.95190528383262 Z" /><path d="M 1650.0,111.65063509461089 L 1657.3038475772933,124.30127018922178 L 1642.6961524227067,124.30127018922173 L 1650.0,111.65063509461089 Z" /><path d="M 1662.5,121.30127018922161 L 1655.1961524227067,108.65063509461078 L 1669.8038475772933,108.65063509461078 L 1662.5,121.30127018922161 Z" /><path d="M 1696.535898384862,62.349364905388825 L 1685.7679491924312,80.99999999999983 L 1664.2320508075688,80.99999999999977 L 1653.464101615138,62.349364905388825 L 1664.2320508075688,43.69872981077788 L 1685.7679491924312,43.69872981077788 L 1696.535898384862,62.349364905388825 Z" /><path d="M 1650.0,68.34936490538894 L 1657.3038475772933,80.99999999999983 L 1642.6961524227067,80.99999999999977 L 1650.0,68.34936490538894 Z" /><path d="M 1650.0,99.65063509461066 L 1642.6961524227067,86.99999999999977 L 1657.3038475772933,86.99999999999983 L 1650.0,99.65063509461066 Z" /><path d="M 1662.5,89.99999999999994 L 1669.8038475772933,102.65063509461078 L 1655.1961524227067,102.65063509461078 L 1662.5,89.99999999999994 Z" /><path d="M 1675.0,99.65063509461066 L 1667.6961524227067,86.99999999999977 L 1682.3038475772933,86.99999999999983 L 1675.0,99.65063509461066 Z" /><path d="M 1687.5,89.99999999999994 L 1694.8038475772933,102.65063509461078 L 1680.1961524227067,102.65063509461078 L 1687.5,89.99999999999994 Z" /><path d="M 1700.0,99.65063509461066 L 1692.6961524227067,86.99999999999977 L 1707.3038475772933,86.99999999999983 L 1700.0,99.65063509461066 Z" /><path d="M 1700.0,68.34936490538894 L 1707.3038475772933,80.99999999999983 L 1692.6961524227067,80.99999999999977 L 1700.0,68.34936490538894 Z" /><path d="M 1712.5,77.99999999999966 L 1705.1961524227067,65.34936490538882 L 1719.8038475772933,65.34936490538882 L 1712.5,77.99999999999966 Z" /><path d="M 1735.7679491924312,37.69872981077788 L 1714.2320508075688,37.69872981077782 L 1706.3230854637604,24.0 L 1743.6769145362396,24.0 L 1735.7679491924312,37.69872981077788 Z" /><path d="M 1700.0,25.048094716166986 L 1707.3038475772933,37.69872981077788 L 1692.6961524227067,37.69872981077782 L 1700.0,25.048094716166986 Z" /><path d="M 1700.0,56.34936490538871 L 1692.6961524227067,43.69872981077782 L 1707.3038475772933,43.69872981077788 L 1700.0,56.34936490538871 Z" /><path d="M 1712.5,46.69872981077799 L 1719.8038475772933,59.349364905388825 L 1705.1961524227067,59.349364905388825 L 1712.5,46.69872981077799 Z" /><path d="M 1725.0,56.34936490538871 L 1717.6961524227067,43.69872981077782 L 1732.3038475772933,43.69872981077788 L 1725.0,56.34936490538871 Z" /><path d="M 1737.5,46.69872981077799 L 1744.8038475772933,59.349364905388825 L 1730.1961524227067,59.349364905388825 L 1737.5,46.69872981077799 Z" /><path d="M 1750.0,56.34936490538871 L 1742.6961524227067,43.69872981077782 L 1757.3038475772933,43.69872981077788 L 1750.0,56.34936490538871 Z" /><path d="M 1750.0,25.048094716166986 L 1757.3038475772933,37.69872981077788 L 1742.6961524227067,37.69872981077782 L 1750.0,25.048094716166986 Z" /><path d="M 1756.3230854637604,24.0 L 1768.6769145362396,24.0 L 1762.5,34.69872981077771 L 1756.3230854637604,24.0 Z" /><path d="M 1699.3948822334846,144.0 L 1675.6051177665154,144.0 L 1665.964101615138,127.30127018922178 L 1676.7320508075688,108.65063509461083 L 1698.2679491924312,108.65063509461083 L 1709.035898384862,127.30127018922178 L 1699.3948822334846,144.0 Z" /><path d="M 1668.6769145362398,144.0 L 1656.3230854637602,144.0 L 1662.5,133.3012701892219 L 1668.6769145362398,144.0 Z" /><path d="M 1718.6769145362398,144.0 L 1706.3230854637602,144.0 L 1712.5,133.3012701892219 L 1718.6769145362398,144.0 Z" /><path d="M 1725.0,142.95190528383262 L 1717.6961524227067,130.30127018922178 L 1732.3038475772933,130.30127018922178 L 1725.0,142.95190528383262 Z" /><path d="M 1759.035898384862,83.99999999999983 L 1748.2679491924312,102.65063509461083 L 1726.7320508075688,102.65063509461078 L 1715.964101615138,83.99999999999983 L 1726.7320508075688,65.34936490538888 L 1748.2679491924312,65.34936490538888 L 1759.035898384862,83.99999999999983 Z" /><path d="M 1712.5,89.99999999999994 L 1719.8038475772933,102.65063509461083 L 1705.1961524227067,102.65063509461078 L 1712.5,89.99999999999994 Z" /><path d="M 1712.5,121.30127018922167 L 1705.1961524227067,108.65063509461078 L 1719.8038475772933,108.65063509461083 L 1712.5,121.30127018922167 Z" /><path d="M 1725.0,111.65063509461095 L 1732.3038475772933,124.30127018922178 L 1717.6961524227067,124.30127018922178 L 1725.0,111.65063509461095 Z" /><path d="M 1737.5,121.30127018922167 L 1730.1961524227067,108.65063509461078 L 1744.8038475772933,108.65063509461083 L 1737.5,121.30127018922167 Z" /><path d="M 1750.0,111.65063509461095 L 1757.3038475772933,124.30127018922178 L 1742.6961524227067,124.30127018922178 L 1750.0,111.65063509461095 Z" /><path d="M 1762.5,121.30127018922167 L 1755.1961524227067,108.65063509461078 L 1769.8038475772933,108.65063509461083 L 1762.5,121.30127018922167 Z" /><path d="M 1762.5,89.99999999999994 L 1769.8038475772933,102.65063509461083 L 1755.1961524227067,102.65063509461078 L 1762.5,89.99999999999994 Z" /><path d="M 1775.0,99.65063509461066 L 1767.6961524227067,86.99999999999983 L 1782.3038475772933,86.99999999999983 L 1775.0,99.65063509461066 Z" /><path d="M 1798.2679491924312,59.34936490538888 L 1776.7320508075688,59.349364905388825 L 1765.964101615138,40.69872981077788 L 1775.6051177665151,24.0 L 1799.3948822334849,24.0 L 1800.5,25.91412011995135 L 1800.5,55.483339501604405 L 1798.2679491924312,59.34936490538888 Z" /><path d="M 1762.5,46.69872981077799 L 1769.8038475772933,59.34936490538888 L 1755.1961524227067,59.349364905388825 L 1762.5,46.69872981077799 Z" /><path d="M 1762.5,77.99999999999972 L 1755.1961524227067,65.34936490538882 L 1769.8038475772933,65.34936490538888 L 1762.5,77.99999999999972 Z" /><path d="M 1775.0,68.349364905389 L 1782.3038475772933,80.99999999999983 L 1767.6961524227067,80.99999999999983 L 1775.0,68.349364905389 Z" /><path d="M 1787.5,77.99999999999972 L 1780.1961524227067,65.34936490538882 L 1794.8038475772933,65.34936490538888 L 1787.5,77.99999999999972 Z" /><path d="M 1800.5,69.21539030917342 L 1800.5,80.99999999999983 L 1792.6961524227067,80.99999999999983 L 1800.0,68.349364905389 L 1800.5,69.21539030917342 Z" /><path d="M 1739.2320508075688,130.30127018922178 L 1760.7679491924312,130.30127018922178 L 1768.6769145362398,144.0 L 1731.3230854637602,144.0 L 1739.2320508075688,130.30127018922178 Z" /><path d="M 1789.2320508075688,124.30127018922173 L 1778.464101615138,105.65063509461078 L 1789.2320508075688,86.99999999999983 L 1800.5,86.99999999999983 L 1800.5,124.30127018922178 L 1789.2320508075688,124.30127018922173 Z" /><path d="M 1775.0,111.65063509461089 L 1782.3038475772933,124.30127018922178 L 1767.6961524227067,124.30127018922173 L 1775.0,111.65063509461089 Z" /><path d="M 1775.0,142.95190528383262 L 1767.6961524227067,130.30127018922173 L 1782.3038475772933,130.30127018922178 L 1775.0,142.95190528383262 Z" /><path d="M 1793.6769145362398,144.0 L 1781.3230854637602,144.0 L 1787.5,133.3012701892219 L 1793.6769145362398,144.0 Z" /><path d="M 1792.6961524227067,130.30127018922173 L 1800.5,130.30127018922178 L 1800.5,142.0858798800482 L 1800.0,142.95190528383262 L 1792.6961524227067,130.30127018922173 Z" /><path d="M 908.5,170.0 L 1816.5,170.0 L 1816.5,0.0 L 908.5,0.0 L 908.5,170.0 Z" /></g></svg>