  0
SECTION
  2
HEADER
  9
$ACADVER
  1
AC1014
  9
$HANDSEED
  5
FFFF
  9
$INSUNITS
 70
     4
  9
$MEASUREMENT
 70
     1
  0
ENDSEC
  0
SECTION
  2
TABLES
  0
TABLE
  2
VPORT
  5
8
330
0
100
AcDbSymbolTable
 70
     4
  0
VPORT
  5
2E
330
8
100
AcDbSymbolTableRecord
100
AcDbViewportTableRecord
  2
*ACTIVE
 70
     0
 10
0.0
 20
0.0
 11
1.0
 21
1.0
 12
210.0
 22
148.5
 13
0.0
 23
0.0
 14
10.0
 24
10.0
 15
10.0
 25
10.0
 16
0.0
 26
0.0
 36
1.0
 17
0.0
 27
0.0
 37
0.0
 40
341.0
 41
1.24
 42
50.0
 43
0.0
 44
0.0
 50
0.0
 51
0.0
 71
     0
 72
   100
 73
     1
 74
     3
 75
     0
 76
     0
 77
     0
 78
     0
  0
ENDTAB
  0
TABLE
  2
LTYPE
  5
5
330
0
100
AcDbSymbolTable
 70
     1
  0
LTYPE
  5
14
330
5
100
AcDbSymbolTableRecord
100
AcDbLinetypeTableRecord
  2
BYBLOCK
 70
     0
  3

 72
    65
 73
     0
 40
0.0
  0
LTYPE
  5
15
330
5
100
AcDbSymbolTableRecord
100
AcDbLinetypeTableRecord
  2
BYLAYER
 70
     0
  3

 72
    65
 73
     0
 40
0.0
  0
LTYPE
  5
16
330
5
100
AcDbSymbolTableRecord
100
AcDbLinetypeTableRecord
  2
CONTINUOUS
 70
     0
  3
Solid line
 72
    65
 73
     0
 40
0.0
  0
ENDTAB
  0
TABLE
  2
LAYER
  5
2
100
AcDbSymbolTable
 70
1
  0
LAYER
  5
50
100
AcDbSymbolTableRecord
100
AcDbLayerTableRecord
  2
0
 70
0
  6
CONTINUOUS
  0
ENDTAB
  0
TABLE
  2
STYLE
  5
3
330
0
100
AcDbSymbolTable
 70
     1
  0
STYLE
  5
11
330
3
100
AcDbSymbolTableRecord
100
AcDbTextStyleTableRecord
  2
STANDARD
 70
     0
 40
0.0
 41
1.0
 50
0.0
 71
     0
 42
2.5
  3
txt
  4

  0
ENDTAB
  0
TABLE
  2
VIEW
  5
6
330
0
100
AcDbSymbolTable
 70
     0
  0
ENDTAB
  0
TABLE
  2
UCS
  5
7
330
0
100
AcDbSymbolTable
 70
     0
  0
ENDTAB
  0
TABLE
  2
APPID
  5
9
330
0
100
AcDbSymbolTable
 70
     2
  0
APPID
  5
12
330
9
100
AcDbSymbolTableRecord
100
AcDbRegAppTableRecord
  2
ACAD
 70
     0
  0
ENDTAB
  0
TABLE
  2
DIMSTYLE
  5
A
330
0
100
AcDbSymbolTable
 70
     1
  0
DIMSTYLE
105
27
330
A
100
AcDbSymbolTableRecord
100
AcDbDimStyleTableRecord
  2
ISO-25
 70
     0
  3

  4

  5

  6

  7

 40
1.0
 41
2.5
 42
0.625
 43
3.75
 44
1.25
 45
0.0
 46
0.0
 47
0.0
 48
0.0
140
2.5
141
2.5
142
0.0
143
0.03937007874016
144
1.0
145
0.0
146
1.0
147
0.625
 71
     0
 72
     0
 73
     0
 74
     0
 75
     0
 76
     0
 77
     1
 78
     8
170
     0
171
     3
172
     1
173
     0
174
     0
175
     0
176
     0
177
     0
178
     0
270
     2
271
     2
272
     2
273
     2
274
     3
340
11
275
     0
280
     0
281
     0
282
     0
283
     0
284
     8
285
     0
286
     0
287
     3
288
     0
  0
ENDTAB
  0
TABLE
  2
BLOCK_RECORD
  5
1
330
0
100
AcDbSymbolTable
 70
     1
  0
BLOCK_RECORD
  5
1F
330
1
100
AcDbSymbolTableRecord
100
AcDbBlockTableRecord
  2
*MODEL_SPACE
  0
BLOCK_RECORD
  5
1B
330
1
100
AcDbSymbolTableRecord
100
AcDbBlockTableRecord
  2
*PAPER_SPACE
  0
ENDTAB
  0
ENDSEC
  0
SECTION
  2
BLOCKS
  0
BLOCK
  5
20
330
1F
100
AcDbEntity
  8
0
100
AcDbBlockBegin
  2
*MODEL_SPACE
 70
     0
 10
0.0
 20
0.0
 30
0.0
  3
*MODEL_SPACE
  1

  0
ENDBLK
  5
21
330
1F
100
AcDbEntity
  8
0
100
AcDbBlockEnd
  0
BLOCK
  5
1C
330
1B
100
AcDbEntity
 67
     1
  8
0
100
AcDbBlockBegin
  2
*PAPER_SPACE
  1

  0
ENDBLK
  5
1D
330
1B
100
AcDbEntity
 67
     1
  8
0
100
AcDbBlockEnd
  0
ENDSEC
  0
SECTION
  2
ENTITIES
  0
LWPOLYLINE
  5
100
100
AcDbEntity
  8
0
 62
7
100
AcDbPolyline
 90
4
 70
1
 10
162.000000
 20
177.784610
 30
0.0
 10
162.000000
 20
210.817931
 30
0.0
 10
171.535898
 20
194.301270
 30
0.0
 10
162.000000
 20
177.784610
 30
0.0
  0
LWPOLYLINE
  5
101
100
AcDbEntity
  8
0
 62
7
100
AcDbPolyline
 90
5
 70
1
 10
169.803848
 20
154.000000
 30
0.0
 10
162.000000
 20
154.000000
 30
0.0
 10
162.000000
 20
165.784610
 30
0.0
 10
162.500000
 20
166.650635
 30
0.0
 10
169.803848
 20
154.000000
 30
0.0
  0
LWPOLYLINE
  5
102
100
AcDbEntity
  8
0
 62
7
100
AcDbPolyline
 90
4
 70
1
 10
175.000000
 20
157.000000
 30
0.0
 10
167.696152
 20
169.650635
 30
0.0
 10
182.303848
 20
169.650635
 30
0.0
 10
175.000000
 20
157.000000
 30
0.0
  0
LWPOLYLINE
  5
103
100
AcDbEntity
  8
0
 62
7
100
AcDbPolyline
 90
4
 70
1
 10
175.000000
 20
188.301270
 30
0.0
 10
182.303848
 20
175.650635
 30
0.0
 10
167.696152
 20
175.650635
 30
0.0
 10
175.000000
 20
188.301270
 30
0.0
  0
LWPOLYLINE
  5
104
100
AcDbEntity
  8
0
 62
7
100
AcDbPolyline
 90
4
 70
1
 10
187.500000
 20
178.650635
 30
0.0
 10
180.196152
 20
191.301270
 30
0.0
 10
194.803848
 20
191.301270
 30
0.0
 10
187.500000
 20
178.650635
 30
0.0
  0
LWPOLYLINE
  5
105
100
AcDbEntity
  8
0
 62
7
100
AcDbPolyline
 90
4
 70
1
 10
168.823085
 20
211.000000
 30
0.0
 10
181.176915
 20
211.000000
 30
0.0
 10
175.000000
 20
200.301270
 30
0.0
 10
168.823085
 20
211.000000
 30
0.0
  0
LWPOLYLINE
  5
106
100
AcDbEntity
  8
0
 62
7
100
AcDbPolyline
 90
4
 70
1
 10
187.500000
 20
209.951905
 30
0.0
 10
194.803848
 20
197.301270
 30
0.0
 10
180.196152
 20
197.301270
 30
0.0
 10
187.500000
 20
209.951905
 30
0.0
  0
LWPOLYLINE
  5
107
100
AcDbEntity
  8
0
 62
7
100
AcDbPolyline
 90
4
 70
1
 10
193.823085
 20
211.000000
 30
0.0
 10
206.176915
 20
211.000000
 30
0.0
 10
200.000000
 20
200.301270
 30
0.0
 10
193.823085
 20
211.000000
 30
0.0
  0
LWPOLYLINE
  5
108
100
AcDbEntity
  8
0
 62
7
100
AcDbPolyline
 90
4
 70
1
 10
212.500000
 20
209.951905
 30
0.0
 10
219.803848
 20
197.301270
 30
0.0
 10
205.196152
 20
197.301270
 30
0.0
 10
212.500000
 20
209.951905
 30
0.0
  0
LWPOLYLINE
  5
109
100
AcDbEntity
  8
0
 62
7
100
AcDbPolyline
 90
4
 70
1
 10
218.823085
 20
211.000000
 30
0.0
 10
231.176915
 20
211.000000
 30
0.0
 10
225.000000
 20
200.301270
 30
0.0
 10
218.823085
 20
211.000000
 30
0.0
  0
LWPOLYLINE
  5
10a
100
AcDbEntity
  8
0
 62
7
100
AcDbPolyline
 90
6
 70
1
 10
173.267949
 20
110.698730
 30
0.0
 10
162.000000
 20
110.698730
 30
0.0
 10
162.000000
 20
148.000000
 30
0.0
 10
173.267949
 20
148.000000
 30
0.0
 10
184.035898
 20
129.349365
 30
0.0
 10
173.267949
 20
110.698730
 30
0.0
  0
LWPOLYLINE
  5
10b
100
AcDbEntity
  8
0
 62
7
100
AcDbPolyline
 90
5
 70
1
 10
162.000000
 20
92.914120
 30
0.0
 10
162.000000
 20
104.698730
 30
0.0
 10
169.803848
 20
104.698730
 30
0.0
 10
162.500000
 20
92.048095
 30
0.0
 10
162.000000
 20
92.914120
 30
0.0
  0
LWPOLYLINE
  5
10c
100
AcDbEntity
  8
0
 62
7
100
AcDbPolyline
 90
4
 70
1
 10
181.176915
 20
91.000000
 30
0.0
 10
168.823085
 20
91.000000
 30
0.0
 10
175.000000
 20
101.698730
 30
0.0
 10
181.176915
 20
91.000000
 30
0.0
  0
LWPOLYLINE
  5
10d
100
AcDbEntity
  8
0
 62
7
100
AcDbPolyline
 90
4
 70
1
 10
187.500000
 20
92.048095
 30
0.0
 10
180.196152
 20
104.698730
 30
0.0
 10
194.803848
 20
104.698730
 30
0.0
 10
187.500000
 20
92.048095
 30
0.0
  0
LWPOLYLINE
  5
10e
100
AcDbEntity
  8
0
 62
7
100
AcDbPolyline
 90
4
 70
1
 10
187.500000
 20
123.349365
 30
0.0
 10
194.803848
 20
110.698730
 30
0.0
 10
180.196152
 20
110.698730
 30
0.0
 10
187.500000
 20
123.349365
 30
0.0
  0
LWPOLYLINE
  5
10f
100
AcDbEntity
  8
0
 62
7
100
AcDbPolyline
 90
4
 70
1
 10
200.000000
 20
113.698730
 30
0.0
 10
192.696152
 20
126.349365
 30
0.0
 10
207.303848
 20
126.349365
 30
0.0
 10
200.000000
 20
113.698730
 30
0.0
  0
LWPOLYLINE
  5
110
100
AcDbEntity
  8
0
 62
7
100
AcDbPolyline
 90
7
 70
1
 10
234.035898
 20
172.650635
 30
0.0
 10
223.267949
 20
154.000000
 30
0.0
 10
201.732051
 20
154.000000
 30
0.0
 10
190.964102
 20
172.650635
 30
0.0
 10
201.732051
 20
191.301270
 30
0.0
 10
223.267949
 20
191.301270
 30
0.0
 10
234.035898
 20
172.650635
 30
0.0
  0
LWPOLYLINE
  5
111
100
AcDbEntity
  8
0
 62
7
100
AcDbPolyline
 90
4
 70
1
 10
187.500000
 20
166.650635
 30
0.0
 10
194.803848
 20
154.000000
 30
0.0
 10
180.196152
 20
154.000000
 30
0.0
 10
187.500000
 20
166.650635
 30
0.0
  0
LWPOLYLINE
  5
112
100
AcDbEntity
  8
0
 62
7
100
AcDbPolyline
 90
4
 70
1
 10
187.500000
 20
135.349365
 30
0.0
 10
180.196152
 20
148.000000
 30
0.0
 10
194.803848
 20
148.000000
 30
0.0
 10
187.500000
 20
135.349365
 30
0.0
  0
LWPOLYLINE
  5
113
100
AcDbEntity
  8
0
 62
7
100
AcDbPolyline
 90
4
 70
1
 10
200.000000
 20
145.000000
 30
0.0
 10
207.303848
 20
132.349365
 30
0.0
 10
192.696152
 20
132.349365
 30
0.0
 10
200.000000
 20
145.000000
 30
0.0
  0
LWPOLYLINE
  5
114
100
AcDbEntity
  8
0
 62
7
100
AcDbPolyline
 90
4
 70
1
 10
212.500000
 20
135.349365
 30
0.0
 10
205.196152
 20
148.000000
 30
0.0
 10
219.803848
 20
148.000000
 30
0.0
 10
212.500000
 20
135.349365
 30
0.0
  0
LWPOLYLINE
  5
115
100
AcDbEntity
  8
0
 62
7
100
AcDbPolyline
 90
4
 70
1
 10
225.000000
 20
145.000000
 30
0.0
 10
232.303848
 20
132.349365
 30
0.0
 10
217.696152
 20
132.349365
 30
0.0
 10
225.000000
 20
145.000000
 30
0.0
  0
LWPOLYLINE
  5
116
100
AcDbEntity
  8
0
 62
7
100
AcDbPolyline
 90
4
 70
1
 10
237.500000
 20
135.349365
 30
0.0
 10
230.196152
 20
148.000000
 30
0.0
 10
244.803848
 20
148.000000
 30
0.0
 10
237.500000
 20
135.349365
 30
0.0
  0
LWPOLYLINE
  5
117
100
AcDbEntity
  8
0
 62
7
100
AcDbPolyline
 90
4
 70
1
 10
237.500000
 20
166.650635
 30
0.0
 10
244.803848
 20
154.000000
 30
0.0
 10
230.196152
 20
154.000000
 30
0.0
 10
237.500000
 20
166.650635
 30
0.0
  0
LWPOLYLINE
  5
118
100
AcDbEntity
  8
0
 62
7
100
AcDbPolyline
 90
4
 70
1
 10
250.000000
 20
157.000000
 30
0.0
 10
242.696152
 20
169.650635
 30
0.0
 10
257.303848
 20
169.650635
 30
0.0
 10
250.000000
 20
157.000000
 30
0.0
  0
LWPOLYLINE
  5
119
100
AcDbEntity
  8
0
 62
7
100
AcDbPolyline
 90
5
 70
1
 10
273.267949
 20
197.301270
 30
0.0
 10
251.732051
 20
197.301270
 30
0.0
 10
243.823085
 20
211.000000
 30
0.0
 10
281.176915
 20
211.000000
 30
0.0
 10
273.267949
 20
197.301270
 30
0.0
  0
LWPOLYLINE
  5
11a
100
AcDbEntity
  8
0
 62
7
100
AcDbPolyline
 90
4
 70
1
 10
237.500000
 20
209.951905
 30
0.0
 10
244.803848
 20
197.301270
 30
0.0
 10
230.196152
 20
197.301270
 30
0.0
 10
237.500000
 20
209.951905
 30
0.0
  0
LWPOLYLINE
  5
11b
100
AcDbEntity
  8
0
 62
7
100
AcDbPolyline
 90
4
 70
1
 10
237.500000
 20
178.650635
 30
0.0
 10
230.196152
 20
191.301270
 30
0.0
 10
244.803848
 20
191.301270
 30
0.0
 10
237.500000
 20
178.650635
 30
0.0
  0
LWPOLYLINE
  5
11c
100
AcDbEntity
  8
0
 62
7
100
AcDbPolyline
 90
4
 70
1
 10
250.000000
 20
188.301270
 30
0.0
 10
257.303848
 20
175.650635
 30
0.0
 10
242.696152
 20
175.650635
 30
0.0
 10
250.000000
 20
188.301270
 30
0.0
  0
LWPOLYLINE
  5
11d
100
AcDbEntity
  8
0
 62
7
100
AcDbPolyline
 90
4
 70
1
 10
262.500000
 20
178.650635
 30
0.0
 10
255.196152
 20
191.301270
 30
0.0
 10
269.803848
 20
191.301270
 30
0.0
 10
262.500000
 20
178.650635
 30
0.0
  0
LWPOLYLINE
  5
11e
100
AcDbEntity
  8
0
 62
7
100
AcDbPolyline
 90
4
 70
1
 10
275.000000
 20
188.301270
 30
0.0
 10
282.303848
 20
175.650635
 30
0.0
 10
267.696152
 20
175.650635
 30
0.0
 10
275.000000
 20
188.301270
 30
0.0
  0
LWPOLYLINE
  5
11f
100
AcDbEntity
  8
0
 62
7
100
AcDbPolyline
 90
4
 70
1
 10
287.500000
 20
178.650635
 30
0.0
 10
280.196152
 20
191.301270
 30
0.0
 10
294.803848
 20
191.301270
 30
0.0
 10
287.500000
 20
178.650635
 30
0.0
  0
LWPOLYLINE
  5
120
100
AcDbEntity
  8
0
 62
7
100
AcDbPolyline
 90
4
 70
1
 10
287.500000
 20
209.951905
 30
0.0
 10
294.803848
 20
197.301270
 30
0.0
 10
280.196152
 20
197.301270
 30
0.0
 10
287.500000
 20
209.951905
 30
0.0
  0
LWPOLYLINE
  5
121
100
AcDbEntity
  8
0
 62
7
100
AcDbPolyline
 90
4
 70
1
 10
293.823085
 20
211.000000
 30
0.0
 10
306.176915
 20
211.000000
 30
0.0
 10
300.000000
 20
200.301270
 30
0.0
 10
293.823085
 20
211.000000
 30
0.0
  0
LWPOLYLINE
  5
122
100
AcDbEntity
  8
0
 62
7
100
AcDbPolyline
 90
7
 70
1
 10
236.894882
 20
91.000000
 30
0.0
 10
213.105118
 20
91.000000
 30
0.0
 10
203.464102
 20
107.698730
 30
0.0
 10
214.232051
 20
126.349365
 30
0.0
 10
235.767949
 20
126.349365
 30
0.0
 10
246.535898
 20
107.698730
 30
0.0
 10
236.894882
 20
91.000000
 30
0.0
  0
LWPOLYLINE
  5
123
100
AcDbEntity
  8
0
 62
7
100
AcDbPolyline
 90
4
 70
1
 10
206.176915
 20
91.000000
 30
0.0
 10
193.823085
 20
91.000000
 30
0.0
 10
200.000000
 20
101.698730
 30
0.0
 10
206.176915
 20
91.000000
 30
0.0
  0
LWPOLYLINE
  5
124
100
AcDbEntity
  8
0
 62
7
100
AcDbPolyline
 90
4
 70
1
 10
256.176915
 20
91.000000
 30
0.0
 10
243.823085
 20
91.000000
 30
0.0
 10
250.000000
 20
101.698730
 30
0.0
 10
256.176915
 20
91.000000
 30
0.0
  0
LWPOLYLINE
  5
125
100
AcDbEntity
  8
0
 62
7
100
AcDbPolyline
 90
4
 70
1
 10
262.500000
 20
92.048095
 30
0.0
 10
255.196152
 20
104.698730
 30
0.0
 10
269.803848
 20
104.698730
 30
0.0
 10
262.500000
 20
92.048095
 30
0.0
  0
LWPOLYLINE
  5
126
100
AcDbEntity
  8
0
 62
7
100
AcDbPolyline
 90
7
 70
1
 10
296.535898
 20
151.000000
 30
0.0
 10
285.767949
 20
132.349365
 30
0.0
 10
264.232051
 20
132.349365
 30
0.0
 10
253.464102
 20
151.000000
 30
0.0
 10
264.232051
 20
169.650635
 30
0.0
 10
285.767949
 20
169.650635
 30
0.0
 10
296.535898
 20
151.000000
 30
0.0
  0
LWPOLYLINE
  5
127
100
AcDbEntity
  8
0
 62
7
100
AcDbPolyline
 90
4
 70
1
 10
250.000000
 20
145.000000
 30
0.0
 10
257.303848
 20
132.349365
 30
0.0
 10
242.696152
 20
132.349365
 30
0.0
 10
250.000000
 20
145.000000
 30
0.0
  0
LWPOLYLINE
  5
128
100
AcDbEntity
  8
0
 62
7
100
AcDbPolyline
 90
4
 70
1
 10
250.000000
 20
113.698730
 30
0.0
 10
242.696152
 20
126.349365
 30
0.0
 10
257.303848
 20
126.349365
 30
0.0
 10
250.000000
 20
113.698730
 30
0.0
  0
LWPOLYLINE
  5
129
100
AcDbEntity
  8
0
 62
7
100
AcDbPolyline
 90
4
 70
1
 10
262.500000
 20
123.349365
 30
0.0
 10
269.803848
 20
110.698730
 30
0.0
 10
255.196152
 20
110.698730
 30
0.0
 10
262.500000
 20
123.349365
 30
0.0
  0
LWPOLYLINE
  5
12a
100
AcDbEntity
  8
0
 62
7
100
AcDbPolyline
 90
4
 70
1
 10
275.000000
 20
113.698730
 30
0.0
 10
267.696152
 20
126.349365
 30
0.0
 10
282.303848
 20
126.349365
 30
0.0
 10
275.000000
 20
113.698730
 30
0.0
  0
LWPOLYLINE
  5
12b
100
AcDbEntity
  8
0
 62
7
100
AcDbPolyline
 90
4
 70
1
 10
287.500000
 20
123.349365
 30
0.0
 10
294.803848
 20
110.698730
 30
0.0
 10
280.196152
 20
110.698730
 30
0.0
 10
287.500000
 20
123.349365
 30
0.0
  0
LWPOLYLINE
  5
12c
100
AcDbEntity
  8
0
 62
7
100
AcDbPolyline
 90
4
 70
1
 10
300.000000
 20
113.698730
 30
0.0
 10
292.696152
 20
126.349365
 30
0.0
 10
307.303848
 20
126.349365
 30
0.0
 10
300.000000
 20
113.698730
 30
0.0
  0
LWPOLYLINE
  5
12d
100
AcDbEntity
  8
0
 62
7
100
AcDbPolyline
 90
4
 70
1
 10
300.000000
 20
145.000000
 30
0.0
 10
307.303848
 20
132.349365
 30
0.0
 10
292.696152
 20
132.349365
 30
0.0
 10
300.000000
 20
145.000000
 30
0.0
  0
LWPOLYLINE
  5
12e
100
AcDbEntity
  8
0
 62
7
100
AcDbPolyline
 90
4
 70
1
 10
312.500000
 20
135.349365
 30
0.0
 10
305.196152
 20
148.000000
 30
0.0
 10
319.803848
 20
148.000000
 30
0.0
 10
312.500000
 20
135.349365
 30
0.0
  0
LWPOLYLINE
  5
12f
100
AcDbEntity
  8
0
 62
7
100
AcDbPolyline
 90
7
 70
1
 10
335.767949
 20
175.650635
 30
0.0
 10
314.232051
 20
175.650635
 30
0.0
 10
303.464102
 20
194.301270
 30
0.0
 10
313.105118
 20
211.000000
 30
0.0
 10
336.894882
 20
211.000000
 30
0.0
 10
346.535898
 20
194.301270
 30
0.0
 10
335.767949
 20
175.650635
 30
0.0
  0
LWPOLYLINE
  5
130
100
AcDbEntity
  8
0
 62
7
100
AcDbPolyline
 90
4
 70
1
 10
300.000000
 20
188.301270
 30
0.0
 10
307.303848
 20
175.650635
 30
0.0
 10
292.696152
 20
175.650635
 30
0.0
 10
300.000000
 20
188.301270
 30
0.0
  0
LWPOLYLINE
  5
131
100
AcDbEntity
  8
0
 62
7
100
AcDbPolyline
 90
4
 70
1
 10
300.000000
 20
157.000000
 30
0.0
 10
292.696152
 20
169.650635
 30
0.0
 10
307.303848
 20
169.650635
 30
0.0
 10
300.000000
 20
157.000000
 30
0.0
  0
LWPOLYLINE
  5
132
100
AcDbEntity
  8
0
 62
7
100
AcDbPolyline
 90
4
 70
1
 10
312.500000
 20
166.650635
 30
0.0
 10
319.803848
 20
154.000000
 30
0.0
 10
305.196152
 20
154.000000
 30
0.0
 10
312.500000
 20
166.650635
 30
0.0
  0
LWPOLYLINE
  5
133
100
AcDbEntity
  8
0
 62
7
100
AcDbPolyline
 90
4
 70
1
 10
325.000000
 20
157.000000
 30
0.0
 10
317.696152
 20
169.650635
 30
0.0
 10
332.303848
 20
169.650635
 30
0.0
 10
325.000000
 20
157.000000
 30
0.0
  0
LWPOLYLINE
  5
134
100
AcDbEntity
  8
0
 62
7
100
AcDbPolyline
 90
4
 70
1
 10
337.500000
 20
166.650635
 30
0.0
 10
344.803848
 20
154.000000
 30
0.0
 10
330.196152
 20
154.000000
 30
0.0
 10
337.500000
 20
166.650635
 30
0.0
  0
LWPOLYLINE
  5
135
100
AcDbEntity
  8
0
 62
7
100
AcDbPolyline
 90
4
 70
1
 10
350.000000
 20
157.000000
 30
0.0
 10
342.696152
 20
169.650635
 30
0.0
 10
357.303848
 20
169.650635
 30
0.0
 10
350.000000
 20
157.000000
 30
0.0
  0
LWPOLYLINE
  5
136
100
AcDbEntity
  8
0
 62
7
100
AcDbPolyline
 90
4
 70
1
 10
350.000000
 20
188.301270
 30
0.0
 10
357.303848
 20
175.650635
 30
0.0
 10
342.696152
 20
175.650635
 30
0.0
 10
350.000000
 20
188.301270
 30
0.0
  0
LWPOLYLINE
  5
137
100
AcDbEntity
  8
0
 62
7
100
AcDbPolyline
 90
4
 70
1
 10
362.500000
 20
178.650635
 30
0.0
 10
355.196152
 20
191.301270
 30
0.0
 10
369.803848
 20
191.301270
 30
0.0
 10
362.500000
 20
178.650635
 30
0.0
  0
LWPOLYLINE
  5
138
100
AcDbEntity
  8
0
 62
7
100
AcDbPolyline
 90
4
 70
1
 10
343.823085
 20
211.000000
 30
0.0
 10
356.176915
 20
211.000000
 30
0.0
 10
350.000000
 20
200.301270
 30
0.0
 10
343.823085
 20
211.000000
 30
0.0
  0
LWPOLYLINE
  5
139
100
AcDbEntity
  8
0
 62
7
100
AcDbPolyline
 90
4
 70
1
 10
362.500000
 20
209.951905
 30
0.0
 10
369.803848
 20
197.301270
 30
0.0
 10
355.196152
 20
197.301270
 30
0.0
 10
362.500000
 20
209.951905
 30
0.0
  0
LWPOLYLINE
  5
13a
100
AcDbEntity
  8
0
 62
7
100
AcDbPolyline
 90
4
 70
1
 10
368.823085
 20
211.000000
 30
0.0
 10
381.176915
 20
211.000000
 30
0.0
 10
375.000000
 20
200.301270
 30
0.0
 10
368.823085
 20
211.000000
 30
0.0
  0
LWPOLYLINE
  5
13b
100
AcDbEntity
  8
0
 62
7
100
AcDbPolyline
 90
4
 70
1
 10
387.500000
 20
209.951905
 30
0.0
 10
394.803848
 20
197.301270
 30
0.0
 10
380.196152
 20
197.301270
 30
0.0
 10
387.500000
 20
209.951905
 30
0.0
  0
LWPOLYLINE
  5
13c
100
AcDbEntity
  8
0
 62
7
100
AcDbPolyline
 90
4
 70
1
 10
393.823085
 20
211.000000
 30
0.0
 10
406.176915
 20
211.000000
 30
0.0
 10
400.000000
 20
200.301270
 30
0.0
 10
393.823085
 20
211.000000
 30
0.0
  0
LWPOLYLINE
  5
13d
100
AcDbEntity
  8
0
 62
7
100
AcDbPolyline
 90
5
 70
1
 10
276.732051
 20
104.698730
 30
0.0
 10
298.267949
 20
104.698730
 30
0.0
 10
306.176915
 20
91.000000
 30
0.0
 10
268.823085
 20
91.000000
 30
0.0
 10
276.732051
 20
104.698730
 30
0.0
  0
LWPOLYLINE
  5
13e
100
AcDbEntity
  8
0
 62
7
100
AcDbPolyline
 90
7
 70
1
 10
359.035898
 20
129.349365
 30
0.0
 10
348.267949
 20
110.698730
 30
0.0
 10
326.732051
 20
110.698730
 30
0.0
 10
315.964102
 20
129.349365
 30
0.0
 10
326.732051
 20
148.000000
 30
0.0
 10
348.267949
 20
148.000000
 30
0.0
 10
359.035898
 20
129.349365
 30
0.0
  0
LWPOLYLINE
  5
13f
100
AcDbEntity
  8
0
 62
7
100
AcDbPolyline
 90
4
 70
1
 10
312.500000
 20
123.349365
 30
0.0
 10
319.803848
 20
110.698730
 30
0.0
 10
305.196152
 20
110.698730
 30
0.0
 10
312.500000
 20
123.349365
 30
0.0
  0
LWPOLYLINE
  5
140
100
AcDbEntity
  8
0
 62
7
100
AcDbPolyline
 90
4
 70
1
 10
312.500000
 20
92.048095
 30
0.0
 10
305.196152
 20
104.698730
 30
0.0
 10
319.803848
 20
104.698730
 30
0.0
 10
312.500000
 20
92.048095
 30
0.0
  0
LWPOLYLINE
  5
141
100
AcDbEntity
  8
0
 62
7
100
AcDbPolyline
 90
4
 70
1
 10
331.176915
 20
91.000000
 30
0.0
 10
318.823085
 20
91.000000
 30
0.0
 10
325.000000
 20
101.698730
 30
0.0
 10
331.176915
 20
91.000000
 30
0.0
  0
LWPOLYLINE
  5
142
100
AcDbEntity
  8
0
 62
7
100
AcDbPolyline
 90
4
 70
1
 10
337.500000
 20
92.048095
 30
0.0
 10
330.196152
 20
104.698730
 30
0.0
 10
344.803848
 20
104.698730
 30
0.0
 10
337.500000
 20
92.048095
 30
0.0
  0
LWPOLYLINE
  5
143
100
AcDbEntity
  8
0
 62
7
100
AcDbPolyline
 90
4
 70
1
 10
356.176915
 20
91.000000
 30
0.0
 10
343.823085
 20
91.000000
 30
0.0
 10
350.000000
 20
101.698730
 30
0.0
 10
356.176915
 20
91.000000
 30
0.0
  0
LWPOLYLINE
  5
144
100
AcDbEntity
  8
0
 62
7
100
AcDbPolyline
 90
4
 70
1
 10
362.500000
 20
92.048095
 30
0.0
 10
355.196152
 20
104.698730
 30
0.0
 10
369.803848
 20
104.698730
 30
0.0
 10
362.500000
 20
92.048095
 30
0.0
  0
LWPOLYLINE
  5
145
100
AcDbEntity
  8
0
 62
7
100
AcDbPolyline
 90
4
 70
1
 10
362.500000
 20
123.349365
 30
0.0
 10
369.803848
 20
110.698730
 30
0.0
 10
355.196152
 20
110.698730
 30
0.0
 10
362.500000
 20
123.349365
 30
0.0
  0
LWPOLYLINE
  5
146
100
AcDbEntity
  8
0
 62
7
100
AcDbPolyline
 90
4
 70
1
 10
375.000000
 20
113.698730
 30
0.0
 10
367.696152
 20
126.349365
 30
0.0
 10
382.303848
 20
126.349365
 30
0.0
 10
375.000000
 20
113.698730
 30
0.0
  0
LWPOLYLINE
  5
147
100
AcDbEntity
  8
0
 62
7
100
AcDbPolyline
 90
7
 70
1
 10
409.035898
 20
172.650635
 30
0.0
 10
398.267949
 20
154.000000
 30
0.0
 10
376.732051
 20
154.000000
 30
0.0
 10
365.964102
 20
172.650635
 30
0.0
 10
376.732051
 20
191.301270
 30
0.0
 10
398.267949
 20
191.301270
 30
0.0
 10
409.035898
 20
172.650635
 30
0.0
  0
LWPOLYLINE
  5
148
100
AcDbEntity
  8
0
 62
7
100
AcDbPolyline
 90
4
 70
1
 10
362.500000
 20
166.650635
 30
0.0
 10
369.803848
 20
154.000000
 30
0.0
 10
355.196152
 20
154.000000
 30
0.0
 10
362.500000
 20
166.650635
 30
0.0
  0
LWPOLYLINE
  5
149
100
AcDbEntity
  8
0
 62
7
100
AcDbPolyline
 90
4
 70
1
 10
362.500000
 20
135.349365
 30
0.0
 10
355.196152
 20
148.000000
 30
0.0
 10
369.803848
 20
148.000000
 30
0.0
 10
362.500000
 20
135.349365
 30
0.0
  0
LWPOLYLINE
  5
14a
100
AcDbEntity
  8
0
 62
7
100
AcDbPolyline
 90
4
 70
1
 10
375.000000
 20
145.000000
 30
0.0
 10
382.303848
 20
132.349365
 30
0.0
 10
367.696152
 20
132.349365
 30
0.0
 10
375.000000
 20
145.000000
 30
0.0
  0
LWPOLYLINE
  5
14b
100
AcDbEntity
  8
0
 62
7
100
AcDbPolyline
 90
4
 70
1
 10
387.500000
 20
135.349365
 30
0.0
 10
380.196152
 20
148.000000
 30
0.0
 10
394.803848
 20
148.000000
 30
0.0
 10
387.500000
 20
135.349365
 30
0.0
  0
LWPOLYLINE
  5
14c
100
AcDbEntity
  8
0
 62
7
100
AcDbPolyline
 90
4
 70
1
 10
400.000000
 20
145.000000
 30
0.0
 10
407.303848
 20
132.349365
 30
0.0
 10
392.696152
 20
132.349365
 30
0.0
 10
400.000000
 20
145.000000
 30
0.0
  0
LWPOLYLINE
  5
14d
100
AcDbEntity
  8
0
 62
7
100
AcDbPolyline
 90
4
 70
1
 10
412.500000
 20
135.349365
 30
0.0
 10
405.196152
 20
148.000000
 30
0.0
 10
419.803848
 20
148.000000
 30
0.0
 10
412.500000
 20
135.349365
 30
0.0
  0
LWPOLYLINE
  5
14e
100
AcDbEntity
  8
0
 62
7
100
AcDbPolyline
 90
4
 70
1
 10
412.500000
 20
166.650635
 30
0.0
 10
419.803848
 20
154.000000
 30
0.0
 10
405.196152
 20
154.000000
 30
0.0
 10
412.500000
 20
166.650635
 30
0.0
  0
LWPOLYLINE
  5
14f
100
AcDbEntity
  8
0
 62
7
100
AcDbPolyline
 90
4
 70
1
 10
425.000000
 20
157.000000
 30
0.0
 10
417.696152
 20
169.650635
 30
0.0
 10
432.303848
 20
169.650635
 30
0.0
 10
425.000000
 20
157.000000
 30
0.0
  0
LWPOLYLINE
  5
150
100
AcDbEntity
  8
0
 62
7
100
AcDbPolyline
 90
5
 70
1
 10
448.267949
 20
197.301270
 30
0.0
 10
426.732051
 20
197.301270
 30
0.0
 10
418.823085
 20
211.000000
 30
0.0
 10
456.176915
 20
211.000000
 30
0.0
 10
448.267949
 20
197.301270
 30
0.0
  0
LWPOLYLINE
  5
151
100
AcDbEntity
  8
0
 62
7
100
AcDbPolyline
 90
4
 70
1
 10
412.500000
 20
209.951905
 30
0.0
 10
419.803848
 20
197.301270
 30
0.0
 10
405.196152
 20
197.301270
 30
0.0
 10
412.500000
 20
209.951905
 30
0.0
  0
LWPOLYLINE
  5
152
100
AcDbEntity
  8
0
 62
7
100
AcDbPolyline
 90
4
 70
1
 10
412.500000
 20
178.650635
 30
0.0
 10
405.196152
 20
191.301270
 30
0.0
 10
419.803848
 20
191.301270
 30
0.0
 10
412.500000
 20
178.650635
 30
0.0
  0
LWPOLYLINE
  5
153
100
AcDbEntity
  8
0
 62
7
100
AcDbPolyline
 90
4
 70
1
 10
425.000000
 20
188.301270
 30
0.0
 10
432.303848
 20
175.650635
 30
0.0
 10
417.696152
 20
175.650635
 30
0.0
 10
425.000000
 20
188.301270
 30
0.0
  0
LWPOLYLINE
  5
154
100
AcDbEntity
  8
0
 62
7
100
AcDbPolyline
 90
4
 70
1
 10
437.500000
 20
178.650635
 30
0.0
 10
430.196152
 20
191.301270
 30
0.0
 10
444.803848
 20
191.301270
 30
0.0
 10
437.500000
 20
178.650635
 30
0.0
  0
LWPOLYLINE
  5
155
100
AcDbEntity
  8
0
 62
7
100
AcDbPolyline
 90
4
 70
1
 10
450.000000
 20
188.301270
 30
0.0
 10
457.303848
 20
175.650635
 30
0.0
 10
442.696152
 20
175.650635
 30
0.0
 10
450.000000
 20
188.301270
 30
0.0
  0
LWPOLYLINE
  5
156
100
AcDbEntity
  8
0
 62
7
100
AcDbPolyline
 90
4
 70
1
 10
462.500000
 20
178.650635
 30
0.0
 10
455.196152
 20
191.301270
 30
0.0
 10
469.803848
 20
191.301270
 30
0.0
 10
462.500000
 20
178.650635
 30
0.0
  0
LWPOLYLINE
  5
157
100
AcDbEntity
  8
0
 62
7
100
AcDbPolyline
 90
4
 70
1
 10
462.500000
 20
209.951905
 30
0.0
 10
469.803848
 20
197.301270
 30
0.0
 10
455.196152
 20
197.301270
 30
0.0
 10
462.500000
 20
209.951905
 30
0.0
  0
LWPOLYLINE
  5
158
100
AcDbEntity
  8
0
 62
7
100
AcDbPolyline
 90
4
 70
1
 10
468.823085
 20
211.000000
 30
0.0
 10
481.176915
 20
211.000000
 30
0.0
 10
475.000000
 20
200.301270
 30
0.0
 10
468.823085
 20
211.000000
 30
0.0
  0
LWPOLYLINE
  5
159
100
AcDbEntity
  8
0
 62
7
100
AcDbPolyline
 90
7
 70
1
 10
411.894882
 20
91.000000
 30
0.0
 10
388.105118
 20
91.000000
 30
0.0
 10
378.464102
 20
107.698730
 30
0.0
 10
389.232051
 20
126.349365
 30
0.0
 10
410.767949
 20
126.349365
 30
0.0
 10
421.535898
 20
107.698730
 30
0.0
 10
411.894882
 20
91.000000
 30
0.0
  0
LWPOLYLINE
  5
15a
100
AcDbEntity
  8
0
 62
7
100
AcDbPolyline
 90
4
 70
1
 10
381.176915
 20
91.000000
 30
0.0
 10
368.823085
 20
91.000000
 30
0.0
 10
375.000000
 20
101.698730
 30
0.0
 10
381.176915
 20
91.000000
 30
0.0
  0
LWPOLYLINE
  5
15b
100
AcDbEntity
  8
0
 62
7
100
AcDbPolyline
 90
4
 70
1
 10
431.176915
 20
91.000000
 30
0.0
 10
418.823085
 20
91.000000
 30
0.0
 10
425.000000
 20
101.698730
 30
0.0
 10
431.176915
 20
91.000000
 30
0.0
  0
LWPOLYLINE
  5
15c
100
AcDbEntity
  8
0
 62
7
100
AcDbPolyline
 90
4
 70
1
 10
437.500000
 20
92.048095
 30
0.0
 10
430.196152
 20
104.698730
 30
0.0
 10
444.803848
 20
104.698730
 30
0.0
 10
437.500000
 20
92.048095
 30
0.0
  0
LWPOLYLINE
  5
15d
100
AcDbEntity
  8
0
 62
7
100
AcDbPolyline
 90
7
 70
1
 10
471.535898
 20
151.000000
 30
0.0
 10
460.767949
 20
132.349365
 30
0.0
 10
439.232051
 20
132.349365
 30
0.0
 10
428.464102
 20
151.000000
 30
0.0
 10
439.232051
 20
169.650635
 30
0.0
 10
460.767949
 20
169.650635
 30
0.0
 10
471.535898
 20
151.000000
 30
0.0
  0
LWPOLYLINE
  5
15e
100
AcDbEntity
  8
0
 62
7
100
AcDbPolyline
 90
4
 70
1
 10
425.000000
 20
145.000000
 30
0.0
 10
432.303848
 20
132.349365
 30
0.0
 10
417.696152
 20
132.349365
 30
0.0
 10
425.000000
 20
145.000000
 30
0.0
  0
LWPOLYLINE
  5
15f
100
AcDbEntity
  8
0
 62
7
100
AcDbPolyline
 90
4
 70
1
 10
425.000000
 20
113.698730
 30
0.0
 10
417.696152
 20
126.349365
 30
0.0
 10
432.303848
 20
126.349365
 30
0.0
 10
425.000000
 20
113.698730
 30
0.0
  0
LWPOLYLINE
  5
160
100
AcDbEntity
  8
0
 62
7
100
AcDbPolyline
 90
4
 70
1
 10
437.500000
 20
123.349365
 30
0.0
 10
444.803848
 20
110.698730
 30
0.0
 10
430.196152
 20
110.698730
 30
0.0
 10
437.500000
 20
123.349365
 30
0.0
  0
LWPOLYLINE
  5
161
100
AcDbEntity
  8
0
 62
7
100
AcDbPolyline
 90
4
 70
1
 10
450.000000
 20
113.698730
 30
0.0
 10
442.696152
 20
126.349365
 30
0.0
 10
457.303848
 20
126.349365
 30
0.0
 10
450.000000
 20
113.698730
 30
0.0
  0
LWPOLYLINE
  5
162
100
AcDbEntity
  8
0
 62
7
100
AcDbPolyline
 90
4
 70
1
 10
462.500000
 20
123.349365
 30
0.0
 10
469.803848
 20
110.698730
 30
0.0
 10
455.196152
 20
110.698730
 30
0.0
 10
462.500000
 20
123.349365
 30
0.0
  0
LWPOLYLINE
  5
163
100
AcDbEntity
  8
0
 62
7
100
AcDbPolyline
 90
4
 70
1
 10
475.000000
 20
113.698730
 30
0.0
 10
467.696152
 20
126.349365
 30
0.0
 10
482.303848
 20
126.349365
 30
0.0
 10
475.000000
 20
113.698730
 30
0.0
  0
LWPOLYLINE
  5
164
100
AcDbEntity
  8
0
 62
7
100
AcDbPolyline
 90
4
 70
1
 10
475.000000
 20
145.000000
 30
0.0
 10
482.303848
 20
132.349365
 30
0.0
 10
467.696152
 20
132.349365
 30
0.0
 10
475.000000
 20
145.000000
 30
0.0
  0
LWPOLYLINE
  5
165
100
AcDbEntity
  8
0
 62
7
100
AcDbPolyline
 90
4
 70
1
 10
487.500000
 20
135.349365
 30
0.0
 10
480.196152
 20
148.000000
 30
0.0
 10
494.803848
 20
148.000000
 30
0.0
 10
487.500000
 20
135.349365
 30
0.0
  0
LWPOLYLINE
  5
166
100
AcDbEntity
  8
0
 62
7
100
AcDbPolyline
 90
7
 70
1
 10
510.767949
 20
175.650635
 30
0.0
 10
489.232051
 20
175.650635
 30
0.0
 10
478.464102
 20
194.301270
 30
0.0
 10
488.105118
 20
211.000000
 30
0.0
 10
511.894882
 20
211.000000
 30
0.0
 10
521.535898
 20
194.301270
 30
0.0
 10
510.767949
 20
175.650635
 30
0.0
  0
LWPOLYLINE
  5
167
100
AcDbEntity
  8
0
 62
7
100
AcDbPolyline
 90
4
 70
1
 10
475.000000
 20
188.301270
 30
0.0
 10
482.303848
 20
175.650635
 30
0.0
 10
467.696152
 20
175.650635
 30
0.0
 10
475.000000
 20
188.301270
 30
0.0
  0
LWPOLYLINE
  5
168
100
AcDbEntity
  8
0
 62
7
100
AcDbPolyline
 90
4
 70
1
 10
475.000000
 20
157.000000
 30
0.0
 10
467.696152
 20
169.650635
 30
0.0
 10
482.303848
 20
169.650635
 30
0.0
 10
475.000000
 20
157.000000
 30
0.0
  0
LWPOLYLINE
  5
169
100
AcDbEntity
  8
0
 62
7
100
AcDbPolyline
 90
4
 70
1
 10
487.500000
 20
166.650635
 30
0.0
 10
494.803848
 20
154.000000
 30
0.0
 10
480.196152
 20
154.000000
 30
0.0
 10
487.500000
 20
166.650635
 30
0.0
  0
LWPOLYLINE
  5
16a
100
AcDbEntity
  8
0
 62
7
100
AcDbPolyline
 90
4
 70
1
 10
500.000000
 20
157.000000
 30
0.0
 10
492.696152
 20
169.650635
 30
0.0
 10
507.303848
 20
169.650635
 30
0.0
 10
500.000000
 20
157.000000
 30
0.0
  0
LWPOLYLINE
  5
16b
100
AcDbEntity
  8
0
 62
7
100
AcDbPolyline
 90
4
 70
1
 10
512.500000
 20
166.650635
 30
0.0
 10
519.803848
 20
154.000000
 30
0.0
 10
505.196152
 20
154.000000
 30
0.0
 10
512.500000
 20
166.650635
 30
0.0
  0
LWPOLYLINE
  5
16c
100
AcDbEntity
  8
0
 62
7
100
AcDbPolyline
 90
4
 70
1
 10
525.000000
 20
157.000000
 30
0.0
 10
517.696152
 20
169.650635
 30
0.0
 10
532.303848
 20
169.650635
 30
0.0
 10
525.000000
 20
157.000000
 30
0.0
  0
LWPOLYLINE
  5
16d
100
AcDbEntity
  8
0
 62
7
100
AcDbPolyline
 90
4
 70
1
 10
525.000000
 20
188.301270
 30
0.0
 10
532.303848
 20
175.650635
 30
0.0
 10
517.696152
 20
175.650635
 30
0.0
 10
525.000000
 20
188.301270
 30
0.0
  0
LWPOLYLINE
  5
16e
100
AcDbEntity
  8
0
 62
7
100
AcDbPolyline
 90
4
 70
1
 10
537.500000
 20
178.650635
 30
0.0
 10
530.196152
 20
191.301270
 30
0.0
 10
544.803848
 20
191.301270
 30
0.0
 10
537.500000
 20
178.650635
 30
0.0
  0
LWPOLYLINE
  5
16f
100
AcDbEntity
  8
0
 62
7
100
AcDbPolyline
 90
4
 70
1
 10
518.823085
 20
211.000000
 30
0.0
 10
531.176915
 20
211.000000
 30
0.0
 10
525.000000
 20
200.301270
 30
0.0
 10
518.823085
 20
211.000000
 30
0.0
  0
LWPOLYLINE
  5
170
100
AcDbEntity
  8
0
 62
7
100
AcDbPolyline
 90
4
 70
1
 10
537.500000
 20
209.951905
 30
0.0
 10
544.803848
 20
197.301270
 30
0.0
 10
530.196152
 20
197.301270
 30
0.0
 10
537.500000
 20
209.951905
 30
0.0
  0
LWPOLYLINE
  5
171
100
AcDbEntity
  8
0
 62
7
100
AcDbPolyline
 90
4
 70
1
 10
543.823085
 20
211.000000
 30
0.0
 10
556.176915
 20
211.000000
 30
0.0
 10
550.000000
 20
200.301270
 30
0.0
 10
543.823085
 20
211.000000
 30
0.0
  0
LWPOLYLINE
  5
172
100
AcDbEntity
  8
0
 62
7
100
AcDbPolyline
 90
4
 70
1
 10
562.500000
 20
209.951905
 30
0.0
 10
569.803848
 20
197.301270
 30
0.0
 10
555.196152
 20
197.301270
 30
0.0
 10
562.500000
 20
209.951905
 30
0.0
  0
LWPOLYLINE
  5
173
100
AcDbEntity
  8
0
 62
7
100
AcDbPolyline
 90
4
 70
1
 10
568.823085
 20
211.000000
 30
0.0
 10
581.176915
 20
211.000000
 30
0.0
 10
575.000000
 20
200.301270
 30
0.0
 10
568.823085
 20
211.000000
 30
0.0
  0
LWPOLYLINE
  5
174
100
AcDbEntity
  8
0
 62
7
100
AcDbPolyline
 90
5
 70
1
 10
451.732051
 20
104.698730
 30
0.0
 10
473.267949
 20
104.698730
 30
0.0
 10
481.176915
 20
91.000000
 30
0.0
 10
443.823085
 20
91.000000
 30
0.0
 10
451.732051
 20
104.698730
 30
0.0
  0
LWPOLYLINE
  5
175
100
AcDbEntity
  8
0
 62
7
100
AcDbPolyline
 90
7
 70
1
 10
534.035898
 20
129.349365
 30
0.0
 10
523.267949
 20
110.698730
 30
0.0
 10
501.732051
 20
110.698730
 30
0.0
 10
490.964102
 20
129.349365
 30
0.0
 10
501.732051
 20
148.000000
 30
0.0
 10
523.267949
 20
148.000000
 30
0.0
 10
534.035898
 20
129.349365
 30
0.0
  0
LWPOLYLINE
  5
176
100
AcDbEntity
  8
0
 62
7
100
AcDbPolyline
 90
4
 70
1
 10
487.500000
 20
123.349365
 30
0.0
 10
494.803848
 20
110.698730
 30
0.0
 10
480.196152
 20
110.698730
 30
0.0
 10
487.500000
 20
123.349365
 30
0.0
  0
LWPOLYLINE
  5
177
100
AcDbEntity
  8
0
 62
7
100
AcDbPolyline
 90
4
 70
1
 10
487.500000
 20
92.048095
 30
0.0
 10
480.196152
 20
104.698730
 30
0.0
 10
494.803848
 20
104.698730
 30
0.0
 10
487.500000
 20
92.048095
 30
0.0
  0
LWPOLYLINE
  5
178
100
AcDbEntity
  8
0
 62
7
100
AcDbPolyline
 90
4
 70
1
 10
506.176915
 20
91.000000
 30
0.0
 10
493.823085
 20
91.000000
 30
0.0
 10
500.000000
 20
101.698730
 30
0.0
 10
506.176915
 20
91.000000
 30
0.0
  0
LWPOLYLINE
  5
179
100
AcDbEntity
  8
0
 62
7
100
AcDbPolyline
 90
4
 70
1
 10
512.500000
 20
92.048095
 30
0.0
 10
505.196152
 20
104.698730
 30
0.0
 10
519.803848
 20
104.698730
 30
0.0
 10
512.500000
 20
92.048095
 30
0.0
  0
LWPOLYLINE
  5
17a
100
AcDbEntity
  8
0
 62
7
100
AcDbPolyline
 90
4
 70
1
 10
531.176915
 20
91.000000
 30
0.0
 10
518.823085
 20
91.000000
 30
0.0
 10
525.000000
 20
101.698730
 30
0.0
 10
531.176915
 20
91.000000
 30
0.0
  0
LWPOLYLINE
  5
17b
100
AcDbEntity
  8
0
 62
7
100
AcDbPolyline
 90
4
 70
1
 10
537.500000
 20
92.048095
 30
0.0
 10
530.196152
 20
104.698730
 30
0.0
 10
544.803848
 20
104.698730
 30
0.0
 10
537.500000
 20
92.048095
 30
0.0
  0
LWPOLYLINE
  5
17c
100
AcDbEntity
  8
0
 62
7
100
AcDbPolyline
 90
4
 70
1
 10
537.500000
 20
123.349365
 30
0.0
 10
544.803848
 20
110.698730
 30
0.0
 10
530.196152
 20
110.698730
 30
0.0
 10
537.500000
 20
123.349365
 30
0.0
  0
LWPOLYLINE
  5
17d
100
AcDbEntity
  8
0
 62
7
100
AcDbPolyline
 90
4
 70
1
 10
550.000000
 20
113.698730
 30
0.0
 10
542.696152
 20
126.349365
 30
0.0
 10
557.303848
 20
126.349365
 30
0.0
 10
550.000000
 20
113.698730
 30
0.0
  0
LWPOLYLINE
  5
17e
100
AcDbEntity
  8
0
 62
7
100
AcDbPolyline
 90
7
 70
1
 10
584.035898
 20
172.650635
 30
0.0
 10
573.267949
 20
154.000000
 30
0.0
 10
551.732051
 20
154.000000
 30
0.0
 10
540.964102
 20
172.650635
 30
0.0
 10
551.732051
 20
191.301270
 30
0.0
 10
573.267949
 20
191.301270
 30
0.0
 10
584.035898
 20
172.650635
 30
0.0
  0
LWPOLYLINE
  5
17f
100
AcDbEntity
  8
0
 62
7
100
AcDbPolyline
 90
4
 70
1
 10
537.500000
 20
166.650635
 30
0.0
 10
544.803848
 20
154.000000
 30
0.0
 10
530.196152
 20
154.000000
 30
0.0
 10
537.500000
 20
166.650635
 30
0.0
  0
LWPOLYLINE
  5
180
100
AcDbEntity
  8
0
 62
7
100
AcDbPolyline
 90
4
 70
1
 10
537.500000
 20
135.349365
 30
0.0
 10
530.196152
 20
148.000000
 30
0.0
 10
544.803848
 20
148.000000
 30
0.0
 10
537.500000
 20
135.349365
 30
0.0
  0
LWPOLYLINE
  5
181
100
AcDbEntity
  8
0
 62
7
100
AcDbPolyline
 90
4
 70
1
 10
550.000000
 20
145.000000
 30
0.0
 10
557.303848
 20
132.349365
 30
0.0
 10
542.696152
 20
132.349365
 30
0.0
 10
550.000000
 20
145.000000
 30
0.0
  0
LWPOLYLINE
  5
182
100
AcDbEntity
  8
0
 62
7
100
AcDbPolyline
 90
4
 70
1
 10
562.500000
 20
135.349365
 30
0.0
 10
555.196152
 20
148.000000
 30
0.0
 10
569.803848
 20
148.000000
 30
0.0
 10
562.500000
 20
135.349365
 30
0.0
  0
LWPOLYLINE
  5
183
100
AcDbEntity
  8
0
 62
7
100
AcDbPolyline
 90
4
 70
1
 10
575.000000
 20
145.000000
 30
0.0
 10
582.303848
 20
132.349365
 30
0.0
 10
567.696152
 20
132.349365
 30
0.0
 10
575.000000
 20
145.000000
 30
0.0
  0
LWPOLYLINE
  5
184
100
AcDbEntity
  8
0
 62
7
100
AcDbPolyline
 90
4
 70
1
 10
587.500000
 20
135.349365
 30
0.0
 10
580.196152
 20
148.000000
 30
0.0
 10
594.803848
 20
148.000000
 30
0.0
 10
587.500000
 20
135.349365
 30
0.0
  0
LWPOLYLINE
  5
185
100
AcDbEntity
  8
0
 62
7
100
AcDbPolyline
 90
4
 70
1
 10
587.500000
 20
166.650635
 30
0.0
 10
594.803848
 20
154.000000
 30
0.0
 10
580.196152
 20
154.000000
 30
0.0
 10
587.500000
 20
166.650635
 30
0.0
  0
LWPOLYLINE
  5
186
100
AcDbEntity
  8
0
 62
7
100
AcDbPolyline
 90
4
 70
1
 10
600.000000
 20
157.000000
 30
0.0
 10
592.696152
 20
169.650635
 30
0.0
 10
607.303848
 20
169.650635
 30
0.0
 10
600.000000
 20
157.000000
 30
0.0
  0
LWPOLYLINE
  5
187
100
AcDbEntity
  8
0
 62
7
100
AcDbPolyline
 90
5
 70
1
 10
623.267949
 20
197.301270
 30
0.0
 10
601.732051
 20
197.301270
 30
0.0
 10
593.823085
 20
211.000000
 30
0.0
 10
631.176915
 20
211.000000
 30
0.0
 10
623.267949
 20
197.301270
 30
0.0
  0
LWPOLYLINE
  5
188
100
AcDbEntity
  8
0
 62
7
100
AcDbPolyline
 90
4
 70
1
 10
587.500000
 20
209.951905
 30
0.0
 10
594.803848
 20
197.301270
 30
0.0
 10
580.196152
 20
197.301270
 30
0.0
 10
587.500000
 20
209.951905
 30
0.0
  0
LWPOLYLINE
  5
189
100
AcDbEntity
  8
0
 62
7
100
AcDbPolyline
 90
4
 70
1
 10
587.500000
 20
178.650635
 30
0.0
 10
580.196152
 20
191.301270
 30
0.0
 10
594.803848
 20
191.301270
 30
0.0
 10
587.500000
 20
178.650635
 30
0.0
  0
LWPOLYLINE
  5
18a
100
AcDbEntity
  8
0
 62
7
100
AcDbPolyline
 90
4
 70
1
 10
600.000000
 20
188.301270
 30
0.0
 10
607.303848
 20
175.650635
 30
0.0
 10
592.696152
 20
175.650635
 30
0.0
 10
600.000000
 20
188.301270
 30
0.0
  0
LWPOLYLINE
  5
18b
100
AcDbEntity
  8
0
 62
7
100
AcDbPolyline
 90
4
 70
1
 10
612.500000
 20
178.650635
 30
0.0
 10
605.196152
 20
191.301270
 30
0.0
 10
619.803848
 20
191.301270
 30
0.0
 10
612.500000
 20
178.650635
 30
0.0
  0
LWPOLYLINE
  5
18c
100
AcDbEntity
  8
0
 62
7
100
AcDbPolyline
 90
4
 70
1
 10
625.000000
 20
188.301270
 30
0.0
 10
632.303848
 20
175.650635
 30
0.0
 10
617.696152
 20
175.650635
 30
0.0
 10
625.000000
 20
188.301270
 30
0.0
  0
LWPOLYLINE
  5
18d
100
AcDbEntity
  8
0
 62
7
100
AcDbPolyline
 90
4
 70
1
 10
637.500000
 20
178.650635
 30
0.0
 10
630.196152
 20
191.301270
 30
0.0
 10
644.803848
 20
191.301270
 30
0.0
 10
637.500000
 20
178.650635
 30
0.0
  0
LWPOLYLINE
  5
18e
100
AcDbEntity
  8
0
 62
7
100
AcDbPolyline
 90
4
 70
1
 10
637.500000
 20
209.951905
 30
0.0
 10
644.803848
 20
197.301270
 30
0.0
 10
630.196152
 20
197.301270
 30
0.0
 10
637.500000
 20
209.951905
 30
0.0
  0
LWPOLYLINE
  5
18f
100
AcDbEntity
  8
0
 62
7
100
AcDbPolyline
 90
4
 70
1
 10
643.823085
 20
211.000000
 30
0.0
 10
656.176915
 20
211.000000
 30
0.0
 10
650.000000
 20
200.301270
 30
0.0
 10
643.823085
 20
211.000000
 30
0.0
  0
LWPOLYLINE
  5
190
100
AcDbEntity
  8
0
 62
7
100
AcDbPolyline
 90
7
 70
1
 10
586.894882
 20
91.000000
 30
0.0
 10
563.105118
 20
91.000000
 30
0.0
 10
553.464102
 20
107.698730
 30
0.0
 10
564.232051
 20
126.349365
 30
0.0
 10
585.767949
 20
126.349365
 30
0.0
 10
596.535898
 20
107.698730
 30
0.0
 10
586.894882
 20
91.000000
 30
0.0
  0
LWPOLYLINE
  5
191
100
AcDbEntity
  8
0
 62
7
100
AcDbPolyline
 90
4
 70
1
 10
556.176915
 20
91.000000
 30
0.0
 10
543.823085
 20
91.000000
 30
0.0
 10
550.000000
 20
101.698730
 30
0.0
 10
556.176915
 20
91.000000
 30
0.0
  0
LWPOLYLINE
  5
192
100
AcDbEntity
  8
0
 62
7
100
AcDbPolyline
 90
4
 70
1
 10
606.176915
 20
91.000000
 30
0.0
 10
593.823085
 20
91.000000
 30
0.0
 10
600.000000
 20
101.698730
 30
0.0
 10
606.176915
 20
91.000000
 30
0.0
  0
LWPOLYLINE
  5
193
100
AcDbEntity
  8
0
 62
7
100
AcDbPolyline
 90
4
 70
1
 10
612.500000
 20
92.048095
 30
0.0
 10
605.196152
 20
104.698730
 30
0.0
 10
619.803848
 20
104.698730
 30
0.0
 10
612.500000
 20
92.048095
 30
0.0
  0
LWPOLYLINE
  5
194
100
AcDbEntity
  8
0
 62
7
100
AcDbPolyline
 90
7
 70
1
 10
646.535898
 20
151.000000
 30
0.0
 10
635.767949
 20
132.349365
 30
0.0
 10
614.232051
 20
132.349365
 30
0.0
 10
603.464102
 20
151.000000
 30
0.0
 10
614.232051
 20
169.650635
 30
0.0
 10
635.767949
 20
169.650635
 30
0.0
 10
646.535898
 20
151.000000
 30
0.0
  0
LWPOLYLINE
  5
195
100
AcDbEntity
  8
0
 62
7
100
AcDbPolyline
 90
4
 70
1
 10
600.000000
 20
145.000000
 30
0.0
 10
607.303848
 20
132.349365
 30
0.0
 10
592.696152
 20
132.349365
 30
0.0
 10
600.000000
 20
145.000000
 30
0.0
  0
LWPOLYLINE
  5
196
100
AcDbEntity
  8
0
 62
7
100
AcDbPolyline
 90
4
 70
1
 10
600.000000
 20
113.698730
 30
0.0
 10
592.696152
 20
126.349365
 30
0.0
 10
607.303848
 20
126.349365
 30
0.0
 10
600.000000
 20
113.698730
 30
0.0
  0
LWPOLYLINE
  5
197
100
AcDbEntity
  8
0
 62
7
100
AcDbPolyline
 90
4
 70
1
 10
612.500000
 20
123.349365
 30
0.0
 10
619.803848
 20
110.698730
 30
0.0
 10
605.196152
 20
110.698730
 30
0.0
 10
612.500000
 20
123.349365
 30
0.0
  0
LWPOLYLINE
  5
198
100
AcDbEntity
  8
0
 62
7
100
AcDbPolyline
 90
4
 70
1
 10
625.000000
 20
113.698730
 30
0.0
 10
617.696152
 20
126.349365
 30
0.0
 10
632.303848
 20
126.349365
 30
0.0
 10
625.000000
 20
113.698730
 30
0.0
  0
LWPOLYLINE
  5
199
100
AcDbEntity
  8
0
 62
7
100
AcDbPolyline
 90
4
 70
1
 10
637.500000
 20
123.349365
 30
0.0
 10
644.803848
 20
110.698730
 30
0.0
 10
630.196152
 20
110.698730
 30
0.0
 10
637.500000
 20
123.349365
 30
0.0
  0
LWPOLYLINE
  5
19a
100
AcDbEntity
  8
0
 62
7
100
AcDbPolyline
 90
4
 70
1
 10
650.000000
 20
113.698730
 30
0.0
 10
642.696152
 20
126.349365
 30
0.0
 10
657.303848
 20
126.349365
 30
0.0
 10
650.000000
 20
113.698730
 30
0.0
  0
LWPOLYLINE
  5
19b
100
AcDbEntity
  8
0
 62
7
100
AcDbPolyline
 90
4
 70
1
 10
650.000000
 20
145.000000
 30
0.0
 10
657.303848
 20
132.349365
 30
0.0
 10
642.696152
 20
132.349365
 30
0.0
 10
650.000000
 20
145.000000
 30
0.0
  0
LWPOLYLINE
  5
19c
100
AcDbEntity
  8
0
 62
7
100
AcDbPolyline
 90
4
 70
1
 10
662.500000
 20
135.349365
 30
0.0
 10
655.196152
 20
148.000000
 30
0.0
 10
669.803848
 20
148.000000
 30
0.0
 10
662.500000
 20
135.349365
 30
0.0
  0
LWPOLYLINE
  5
19d
100
AcDbEntity
  8
0
 62
7
100
AcDbPolyline
 90
7
 70
1
 10
685.767949
 20
175.650635
 30
0.0
 10
664.232051
 20
175.650635
 30
0.0
 10
653.464102
 20
194.301270
 30
0.0
 10
663.105118
 20
211.000000
 30
0.0
 10
686.894882
 20
211.000000
 30
0.0
 10
696.535898
 20
194.301270
 30
0.0
 10
685.767949
 20
175.650635
 30
0.0
  0
LWPOLYLINE
  5
19e
100
AcDbEntity
  8
0
 62
7
100
AcDbPolyline
 90
4
 70
1
 10
650.000000
 20
188.301270
 30
0.0
 10
657.303848
 20
175.650635
 30
0.0
 10
642.696152
 20
175.650635
 30
0.0
 10
650.000000
 20
188.301270
 30
0.0
  0
LWPOLYLINE
  5
19f
100
AcDbEntity
  8
0
 62
7
100
AcDbPolyline
 90
4
 70
1
 10
650.000000
 20
157.000000
 30
0.0
 10
642.696152
 20
169.650635
 30
0.0
 10
657.303848
 20
169.650635
 30
0.0
 10
650.000000
 20
157.000000
 30
0.0
  0
LWPOLYLINE
  5
1a0
100
AcDbEntity
  8
0
 62
7
100
AcDbPolyline
 90
4
 70
1
 10
662.500000
 20
166.650635
 30
0.0
 10
669.803848
 20
154.000000
 30
0.0
 10
655.196152
 20
154.000000
 30
0.0
 10
662.500000
 20
166.650635
 30
0.0
  0
LWPOLYLINE
  5
1a1
100
AcDbEntity
  8
0
 62
7
100
AcDbPolyline
 90
4
 70
1
 10
675.000000
 20
157.000000
 30
0.0
 10
667.696152
 20
169.650635
 30
0.0
 10
682.303848
 20
169.650635
 30
0.0
 10
675.000000
 20
157.000000
 30
0.0
  0
LWPOLYLINE
  5
1a2
100
AcDbEntity
  8
0
 62
7
100
AcDbPolyline
 90
4
 70
1
 10
687.500000
 20
166.650635
 30
0.0
 10
694.803848
 20
154.000000
 30
0.0
 10
680.196152
 20
154.000000
 30
0.0
 10
687.500000
 20
166.650635
 30
0.0
  0
LWPOLYLINE
  5
1a3
100
AcDbEntity
  8
0
 62
7
100
AcDbPolyline
 90
4
 70
1
 10
700.000000
 20
157.000000
 30
0.0
 10
692.696152
 20
169.650635
 30
0.0
 10
707.303848
 20
169.650635
 30
0.0
 10
700.000000
 20
157.000000
 30
0.0
  0
LWPOLYLINE
  5
1a4
100
AcDbEntity
  8
0
 62
7
100
AcDbPolyline
 90
4
 70
1
 10
700.000000
 20
188.301270
 30
0.0
 10
707.303848
 20
175.650635
 30
0.0
 10
692.696152
 20
175.650635
 30
0.0
 10
700.000000
 20
188.301270
 30
0.0
  0
LWPOLYLINE
  5
1a5
100
AcDbEntity
  8
0
 62
7
100
AcDbPolyline
 90
4
 70
1
 10
712.500000
 20
178.650635
 30
0.0
 10
705.196152
 20
191.301270
 30
0.0
 10
719.803848
 20
191.301270
 30
0.0
 10
712.500000
 20
178.650635
 30
0.0
  0
LWPOLYLINE
  5
1a6
100
AcDbEntity
  8
0
 62
7
100
AcDbPolyline
 90
4
 70
1
 10
693.823085
 20
211.000000
 30
0.0
 10
706.176915
 20
211.000000
 30
0.0
 10
700.000000
 20
200.301270
 30
0.0
 10
693.823085
 20
211.000000
 30
0.0
  0
LWPOLYLINE
  5
1a7
100
AcDbEntity
  8
0
 62
7
100
AcDbPolyline
 90
4
 70
1
 10
712.500000
 20
209.951905
 30
0.0
 10
719.803848
 20
197.301270
 30
0.0
 10
705.196152
 20
197.301270
 30
0.0
 10
712.500000
 20
209.951905
 30
0.0
  0
LWPOLYLINE
  5
1a8
100
AcDbEntity
  8
0
 62
7
100
AcDbPolyline
 90
4
 70
1
 10
718.823085
 20
211.000000
 30
0.0
 10
731.176915
 20
211.000000
 30
0.0
 10
725.000000
 20
200.301270
 30
0.0
 10
718.823085
 20
211.000000
 30
0.0
  0
LWPOLYLINE
  5
1a9
100
AcDbEntity
  8
0
 62
7
100
AcDbPolyline
 90
4
 70
1
 10
737.500000
 20
209.951905
 30
0.0
 10
744.803848
 20
197.301270
 30
0.0
 10
730.196152
 20
197.301270
 30
0.0
 10
737.500000
 20
209.951905
 30
0.0
  0
LWPOLYLINE
  5
1aa
100
AcDbEntity
  8
0
 62
7
100
AcDbPolyline
 90
4
 70
1
 10
743.823085
 20
211.000000
 30
0.0
 10
756.176915
 20
211.000000
 30
0.0
 10
750.000000
 20
200.301270
 30
0.0
 10
743.823085
 20
211.000000
 30
0.0
  0
LWPOLYLINE
  5
1ab
100
AcDbEntity
  8
0
 62
7
100
AcDbPolyline
 90
5
 70
1
 10
626.732051
 20
104.698730
 30
0.0
 10
648.267949
 20
104.698730
 30
0.0
 10
656.176915
 20
91.000000
 30
0.0
 10
618.823085
 20
91.000000
 30
0.0
 10
626.732051
 20
104.698730
 30
0.0
  0
LWPOLYLINE
  5
1ac
100
AcDbEntity
  8
0
 62
7
100
AcDbPolyline
 90
7
 70
1
 10
709.035898
 20
129.349365
 30
0.0
 10
698.267949
 20
110.698730
 30
0.0
 10
676.732051
 20
110.698730
 30
0.0
 10
665.964102
 20
129.349365
 30
0.0
 10
676.732051
 20
148.000000
 30
0.0
 10
698.267949
 20
148.000000
 30
0.0
 10
709.035898
 20
129.349365
 30
0.0
  0
LWPOLYLINE
  5
1ad
100
AcDbEntity
  8
0
 62
7
100
AcDbPolyline
 90
4
 70
1
 10
662.500000
 20
123.349365
 30
0.0
 10
669.803848
 20
110.698730
 30
0.0
 10
655.196152
 20
110.698730
 30
0.0
 10
662.500000
 20
123.349365
 30
0.0
  0
LWPOLYLINE
  5
1ae
100
AcDbEntity
  8
0
 62
7
100
AcDbPolyline
 90
4
 70
1
 10
662.500000
 20
92.048095
 30
0.0
 10
655.196152
 20
104.698730
 30
0.0
 10
669.803848
 20
104.698730
 30
0.0
 10
662.500000
 20
92.048095
 30
0.0
  0
LWPOLYLINE
  5
1af
100
AcDbEntity
  8
0
 62
7
100
AcDbPolyline
 90
4
 70
1
 10
681.176915
 20
91.000000
 30
0.0
 10
668.823085
 20
91.000000
 30
0.0
 10
675.000000
 20
101.698730
 30
0.0
 10
681.176915
 20
91.000000
 30
0.0
  0
LWPOLYLINE
  5
1b0
100
AcDbEntity
  8
0
 62
7
100
AcDbPolyline
 90
4
 70
1
 10
687.500000
 20
92.048095
 30
0.0
 10
680.196152
 20
104.698730
 30
0.0
 10
694.803848
 20
104.698730
 30
0.0
 10
687.500000
 20
92.048095
 30
0.0
  0
LWPOLYLINE
  5
1b1
100
AcDbEntity
  8
0
 62
7
100
AcDbPolyline
 90
4
 70
1
 10
706.176915
 20
91.000000
 30
0.0
 10
693.823085
 20
91.000000
 30
0.0
 10
700.000000
 20
101.698730
 30
0.0
 10
706.176915
 20
91.000000
 30
0.0
  0
LWPOLYLINE
  5
1b2
100
AcDbEntity
  8
0
 62
7
100
AcDbPolyline
 90
4
 70
1
 10
712.500000
 20
92.048095
 30
0.0
 10
705.196152
 20
104.698730
 30
0.0
 10
719.803848
 20
104.698730
 30
0.0
 10
712.500000
 20
92.048095
 30
0.0
  0
LWPOLYLINE
  5
1b3
100
AcDbEntity
  8
0
 62
7
100
AcDbPolyline
 90
4
 70
1
 10
712.500000
 20
123.349365
 30
0.0
 10
719.803848
 20
110.698730
 30
0.0
 10
705.196152
 20
110.698730
 30
0.0
 10
712.500000
 20
123.349365
 30
0.0
  0
LWPOLYLINE
  5
1b4
100
AcDbEntity
  8
0
 62
7
100
AcDbPolyline
 90
4
 70
1
 10
725.000000
 20
113.698730
 30
0.0
 10
717.696152
 20
126.349365
 30
0.0
 10
732.303848
 20
126.349365
 30
0.0
 10
725.000000
 20
113.698730
 30
0.0
  0
LWPOLYLINE
  5
1b5
100
AcDbEntity
  8
0
 62
7
100
AcDbPolyline
 90
7
 70
1
 10
759.035898
 20
172.650635
 30
0.0
 10
748.267949
 20
154.000000
 30
0.0
 10
726.732051
 20
154.000000
 30
0.0
 10
715.964102
 20
172.650635
 30
0.0
 10
726.732051
 20
191.301270
 30
0.0
 10
748.267949
 20
191.301270
 30
0.0
 10
759.035898
 20
172.650635
 30
0.0
  0
LWPOLYLINE
  5
1b6
100
AcDbEntity
  8
0
 62
7
100
AcDbPolyline
 90
4
 70
1
 10
712.500000
 20
166.650635
 30
0.0
 10
719.803848
 20
154.000000
 30
0.0
 10
705.196152
 20
154.000000
 30
0.0
 10
712.500000
 20
166.650635
 30
0.0
  0
LWPOLYLINE
  5
1b7
100
AcDbEntity
  8
0
 62
7
100
AcDbPolyline
 90
4
 70
1
 10
712.500000
 20
135.349365
 30
0.0
 10
705.196152
 20
148.000000
 30
0.0
 10
719.803848
 20
148.000000
 30
0.0
 10
712.500000
 20
135.349365
 30
0.0
  0
LWPOLYLINE
  5
1b8
100
AcDbEntity
  8
0
 62
7
100
AcDbPolyline
 90
4
 70
1
 10
725.000000
 20
145.000000
 30
0.0
 10
732.303848
 20
132.349365
 30
0.0
 10
717.696152
 20
132.349365
 30
0.0
 10
725.000000
 20
145.000000
 30
0.0
  0
LWPOLYLINE
  5
1b9
100
AcDbEntity
  8
0
 62
7
100
AcDbPolyline
 90
4
 70
1
 10
737.500000
 20
135.349365
 30
0.0
 10
730.196152
 20
148.000000
 30
0.0
 10
744.803848
 20
148.000000
 30
0.0
 10
737.500000
 20
135.349365
 30
0.0
  0
LWPOLYLINE
  5
1ba
100
AcDbEntity
  8
0
 62
7
100
AcDbPolyline
 90
4
 70
1
 10
750.000000
 20
145.000000
 30
0.0
 10
757.303848
 20
132.349365
 30
0.0
 10
742.696152
 20
132.349365
 30
0.0
 10
750.000000
 20
145.000000
 30
0.0
  0
LWPOLYLINE
  5
1bb
100
AcDbEntity
  8
0
 62
7
100
AcDbPolyline
 90
4
 70
1
 10
762.500000
 20
135.349365
 30
0.0
 10
755.196152
 20
148.000000
 30
0.0
 10
769.803848
 20
148.000000
 30
0.0
 10
762.500000
 20
135.349365
 30
0.0
  0
LWPOLYLINE
  5
1bc
100
AcDbEntity
  8
0
 62
7
100
AcDbPolyline
 90
4
 70
1
 10
762.500000
 20
166.650635
 30
0.0
 10
769.803848
 20
154.000000
 30
0.0
 10
755.196152
 20
154.000000
 30
0.0
 10
762.500000
 20
166.650635
 30
0.0
  0
LWPOLYLINE
  5
1bd
100
AcDbEntity
  8
0
 62
7
100
AcDbPolyline
 90
4
 70
1
 10
775.000000
 20
157.000000
 30
0.0
 10
767.696152
 20
169.650635
 30
0.0
 10
782.303848
 20
169.650635
 30
0.0
 10
775.000000
 20
157.000000
 30
0.0
  0
LWPOLYLINE
  5
1be
100
AcDbEntity
  8
0
 62
7
100
AcDbPolyline
 90
5
 70
1
 10
798.267949
 20
197.301270
 30
0.0
 10
776.732051
 20
197.301270
 30
0.0
 10
768.823085
 20
211.000000
 30
0.0
 10
806.176915
 20
211.000000
 30
0.0
 10
798.267949
 20
197.301270
 30
0.0
  0
LWPOLYLINE
  5
1bf
100
AcDbEntity
  8
0
 62
7
100
AcDbPolyline
 90
4
 70
1
 10
762.500000
 20
209.951905
 30
0.0
 10
769.803848
 20
197.301270
 30
0.0
 10
755.196152
 20
197.301270
 30
0.0
 10
762.500000
 20
209.951905
 30
0.0
  0
LWPOLYLINE
  5
1c0
100
AcDbEntity
  8
0
 62
7
100
AcDbPolyline
 90
4
 70
1
 10
762.500000
 20
178.650635
 30
0.0
 10
755.196152
 20
191.301270
 30
0.0
 10
769.803848
 20
191.301270
 30
0.0
 10
762.500000
 20
178.650635
 30
0.0
  0
LWPOLYLINE
  5
1c1
100
AcDbEntity
  8
0
 62
7
100
AcDbPolyline
 90
4
 70
1
 10
775.000000
 20
188.301270
 30
0.0
 10
782.303848
 20
175.650635
 30
0.0
 10
767.696152
 20
175.650635
 30
0.0
 10
775.000000
 20
188.301270
 30
0.0
  0
LWPOLYLINE
  5
1c2
100
AcDbEntity
  8
0
 62
7
100
AcDbPolyline
 90
4
 70
1
 10
787.500000
 20
178.650635
 30
0.0
 10
780.196152
 20
191.301270
 30
0.0
 10
794.803848
 20
191.301270
 30
0.0
 10
787.500000
 20
178.650635
 30
0.0
  0
LWPOLYLINE
  5
1c3
100
AcDbEntity
  8
0
 62
7
100
AcDbPolyline
 90
4
 70
1
 10
800.000000
 20
188.301270
 30
0.0
 10
807.303848
 20
175.650635
 30
0.0
 10
792.696152
 20
175.650635
 30
0.0
 10
800.000000
 20
188.301270
 30
0.0
  0
LWPOLYLINE
  5
1c4
100
AcDbEntity
  8
0
 62
7
100
AcDbPolyline
 90
4
 70
1
 10
812.500000
 20
178.650635
 30
0.0
 10
805.196152
 20
191.301270
 30
0.0
 10
819.803848
 20
191.301270
 30
0.0
 10
812.500000
 20
178.650635
 30
0.0
  0
LWPOLYLINE
  5
1c5
100
AcDbEntity
  8
0
 62
7
100
AcDbPolyline
 90
4
 70
1
 10
812.500000
 20
209.951905
 30
0.0
 10
819.803848
 20
197.301270
 30
0.0
 10
805.196152
 20
197.301270
 30
0.0
 10
812.500000
 20
209.951905
 30
0.0
  0
LWPOLYLINE
  5
1c6
100
AcDbEntity
  8
0
 62
7
100
AcDbPolyline
 90
4
 70
1
 10
818.823085
 20
211.000000
 30
0.0
 10
831.176915
 20
211.000000
 30
0.0
 10
825.000000
 20
200.301270
 30
0.0
 10
818.823085
 20
211.000000
 30
0.0
  0
LWPOLYLINE
  5
1c7
100
AcDbEntity
  8
0
 62
7
100
AcDbPolyline
 90
7
 70
1
 10
761.894882
 20
91.000000
 30
0.0
 10
738.105118
 20
91.000000
 30
0.0
 10
728.464102
 20
107.698730
 30
0.0
 10
739.232051
 20
126.349365
 30
0.0
 10
760.767949
 20
126.349365
 30
0.0
 10
771.535898
 20
107.698730
 30
0.0
 10
761.894882
 20
91.000000
 30
0.0
  0
LWPOLYLINE
  5
1c8
100
AcDbEntity
  8
0
 62
7
100
AcDbPolyline
 90
4
 70
1
 10
731.176915
 20
91.000000
 30
0.0
 10
718.823085
 20
91.000000
 30
0.0
 10
725.000000
 20
101.698730
 30
0.0
 10
731.176915
 20
91.000000
 30
0.0
  0
LWPOLYLINE
  5
1c9
100
AcDbEntity
  8
0
 62
7
100
AcDbPolyline
 90
4
 70
1
 10
781.176915
 20
91.000000
 30
0.0
 10
768.823085
 20
91.000000
 30
0.0
 10
775.000000
 20
101.698730
 30
0.0
 10
781.176915
 20
91.000000
 30
0.0
  0
LWPOLYLINE
  5
1ca
100
AcDbEntity
  8
0
 62
7
100
AcDbPolyline
 90
4
 70
1
 10
787.500000
 20
92.048095
 30
0.0
 10
780.196152
 20
104.698730
 30
0.0
 10
794.803848
 20
104.698730
 30
0.0
 10
787.500000
 20
92.048095
 30
0.0
  0
LWPOLYLINE
  5
1cb
100
AcDbEntity
  8
0
 62
7
100
AcDbPolyline
 90
7
 70
1
 10
821.535898
 20
151.000000
 30
0.0
 10
810.767949
 20
132.349365
 30
0.0
 10
789.232051
 20
132.349365
 30
0.0
 10
778.464102
 20
151.000000
 30
0.0
 10
789.232051
 20
169.650635
 30
0.0
 10
810.767949
 20
169.650635
 30
0.0
 10
821.535898
 20
151.000000
 30
0.0
  0
LWPOLYLINE
  5
1cc
100
AcDbEntity
  8
0
 62
7
100
AcDbPolyline
 90
4
 70
1
 10
775.000000
 20
145.000000
 30
0.0
 10
782.303848
 20
132.349365
 30
0.0
 10
767.696152
 20
132.349365
 30
0.0
 10
775.000000
 20
145.000000
 30
0.0
  0
LWPOLYLINE
  5
1cd
100
AcDbEntity
  8
0
 62
7
100
AcDbPolyline
 90
4
 70
1
 10
775.000000
 20
113.698730
 30
0.0
 10
767.696152
 20
126.349365
 30
0.0
 10
782.303848
 20
126.349365
 30
0.0
 10
775.000000
 20
113.698730
 30
0.0
  0
LWPOLYLINE
  5
1ce
100
AcDbEntity
  8
0
 62
7
100
AcDbPolyline
 90
4
 70
1
 10
787.500000
 20
123.349365
 30
0.0
 10
794.803848
 20
110.698730
 30
0.0
 10
780.196152
 20
110.698730
 30
0.0
 10
787.500000
 20
123.349365
 30
0.0
  0
LWPOLYLINE
  5
1cf
100
AcDbEntity
  8
0
 62
7
100
AcDbPolyline
 90
4
 70
1
 10
800.000000
 20
113.698730
 30
0.0
 10
792.696152
 20
126.349365
 30
0.0
 10
807.303848
 20
126.349365
 30
0.0
 10
800.000000
 20
113.698730
 30
0.0
  0
LWPOLYLINE
  5
1d0
100
AcDbEntity
  8
0
 62
7
100
AcDbPolyline
 90
4
 70
1
 10
812.500000
 20
123.349365
 30
0.0
 10
819.803848
 20
110.698730
 30
0.0
 10
805.196152
 20
110.698730
 30
0.0
 10
812.500000
 20
123.349365
 30
0.0
  0
LWPOLYLINE
  5
1d1
100
AcDbEntity
  8
0
 62
7
100
AcDbPolyline
 90
4
 70
1
 10
825.000000
 20
113.698730
 30
0.0
 10
817.696152
 20
126.349365
 30
0.0
 10
832.303848
 20
126.349365
 30
0.0
 10
825.000000
 20
113.698730
 30
0.0
  0
LWPOLYLINE
  5
1d2
100
AcDbEntity
  8
0
 62
7
100
AcDbPolyline
 90
4
 70
1
 10
825.000000
 20
145.000000
 30
0.0
 10
832.303848
 20
132.349365
 30
0.0
 10
817.696152
 20
132.349365
 30
0.0
 10
825.000000
 20
145.000000
 30
0.0
  0
LWPOLYLINE
  5
1d3
100
AcDbEntity
  8
0
 62
7
100
AcDbPolyline
 90
4
 70
1
 10
837.500000
 20
135.349365
 30
0.0
 10
830.196152
 20
148.000000
 30
0.0
 10
844.803848
 20
148.000000
 30
0.0
 10
837.500000
 20
135.349365
 30
0.0
  0
LWPOLYLINE
  5
1d4
100
AcDbEntity
  8
0
 62
7
100
AcDbPolyline
 90
7
 70
1
 10
860.767949
 20
175.650635
 30
0.0
 10
839.232051
 20
175.650635
 30
0.0
 10
828.464102
 20
194.301270
 30
0.0
 10
838.105118
 20
211.000000
 30
0.0
 10
861.894882
 20
211.000000
 30
0.0
 10
871.535898
 20
194.301270
 30
0.0
 10
860.767949
 20
175.650635
 30
0.0
  0
LWPOLYLINE
  5
1d5
100
AcDbEntity
  8
0
 62
7
100
AcDbPolyline
 90
4
 70
1
 10
825.000000
 20
188.301270
 30
0.0
 10
832.303848
 20
175.650635
 30
0.0
 10
817.696152
 20
175.650635
 30
0.0
 10
825.000000
 20
188.301270
 30
0.0
  0
LWPOLYLINE
  5
1d6
100
AcDbEntity
  8
0
 62
7
100
AcDbPolyline
 90
4
 70
1
 10
825.000000
 20
157.000000
 30
0.0
 10
817.696152
 20
169.650635
 30
0.0
 10
832.303848
 20
169.650635
 30
0.0
 10
825.000000
 20
157.000000
 30
0.0
  0
LWPOLYLINE
  5
1d7
100
AcDbEntity
  8
0
 62
7
100
AcDbPolyline
 90
4
 70
1
 10
837.500000
 20
166.650635
 30
0.0
 10
844.803848
 20
154.000000
 30
0.0
 10
830.196152
 20
154.000000
 30
0.0
 10
837.500000
 20
166.650635
 30
0.0
  0
LWPOLYLINE
  5
1d8
100
AcDbEntity
  8
0
 62
7
100
AcDbPolyline
 90
4
 70
1
 10
850.000000
 20
157.000000
 30
0.0
 10
842.696152
 20
169.650635
 30
0.0
 10
857.303848
 20
169.650635
 30
0.0
 10
850.000000
 20
157.000000
 30
0.0
  0
LWPOLYLINE
  5
1d9
100
AcDbEntity
  8
0
 62
7
100
AcDbPolyline
 90
4
 70
1
 10
862.500000
 20
166.650635
 30
0.0
 10
869.803848
 20
154.000000
 30
0.0
 10
855.196152
 20
154.000000
 30
0.0
 10
862.500000
 20
166.650635
 30
0.0
  0
LWPOLYLINE
  5
1da
100
AcDbEntity
  8
0
 62
7
100
AcDbPolyline
 90
4
 70
1
 10
875.000000
 20
157.000000
 30
0.0
 10
867.696152
 20
169.650635
 30
0.0
 10
882.303848
 20
169.650635
 30
0.0
 10
875.000000
 20
157.000000
 30
0.0
  0
LWPOLYLINE
  5
1db
100
AcDbEntity
  8
0
 62
7
100
AcDbPolyline
 90
4
 70
1
 10
875.000000
 20
188.301270
 30
0.0
 10
882.303848
 20
175.650635
 30
0.0
 10
867.696152
 20
175.650635
 30
0.0
 10
875.000000
 20
188.301270
 30
0.0
  0
LWPOLYLINE
  5
1dc
100
AcDbEntity
  8
0
 62
7
100
AcDbPolyline
 90
4
 70
1
 10
887.500000
 20
178.650635
 30
0.0
 10
880.196152
 20
191.301270
 30
0.0
 10
894.803848
 20
191.301270
 30
0.0
 10
887.500000
 20
178.650635
 30
0.0
  0
LWPOLYLINE
  5
1dd
100
AcDbEntity
  8
0
 62
7
100
AcDbPolyline
 90
4
 70
1
 10
868.823085
 20
211.000000
 30
0.0
 10
881.176915
 20
211.000000
 30
0.0
 10
875.000000
 20
200.301270
 30
0.0
 10
868.823085
 20
211.000000
 30
0.0
  0
LWPOLYLINE
  5
1de
100
AcDbEntity
  8
0
 62
7
100
AcDbPolyline
 90
4
 70
1
 10
887.500000
 20
209.951905
 30
0.0
 10
894.803848
 20
197.301270
 30
0.0
 10
880.196152
 20
197.301270
 30
0.0
 10
887.500000
 20
209.951905
 30
0.0
  0
LWPOLYLINE
  5
1df
100
AcDbEntity
  8
0
 62
7
100
AcDbPolyline
 90
4
 70
1
 10
893.823085
 20
211.000000
 30
0.0
 10
906.176915
 20
211.000000
 30
0.0
 10
900.000000
 20
200.301270
 30
0.0
 10
893.823085
 20
211.000000
 30
0.0
  0
LWPOLYLINE
  5
1e0
100
AcDbEntity
  8
0
 62
7
100
AcDbPolyline
 90
4
 70
1
 10
912.500000
 20
209.951905
 30
0.0
 10
919.803848
 20
197.301270
 30
0.0
 10
905.196152
 20
197.301270
 30
0.0
 10
912.500000
 20
209.951905
 30
0.0
  0
LWPOLYLINE
  5
1e1
100
AcDbEntity
  8
0
 62
7
100
AcDbPolyline
 90
4
 70
1
 10
918.823085
 20
211.000000
 30
0.0
 10
931.176915
 20
211.000000
 30
0.0
 10
925.000000
 20
200.301270
 30
0.0
 10
918.823085
 20
211.000000
 30
0.0
  0
LWPOLYLINE
  5
1e2
100
AcDbEntity
  8
0
 62
7
100
AcDbPolyline
 90
5
 70
1
 10
801.732051
 20
104.698730
 30
0.0
 10
823.267949
 20
104.698730
 30
0.0
 10
831.176915
 20
91.000000
 30
0.0
 10
793.823085
 20
91.000000
 30
0.0
 10
801.732051
 20
104.698730
 30
0.0
  0
LWPOLYLINE
  5
1e3
100
AcDbEntity
  8
0
 62
7
100
AcDbPolyline
 90
7
 70
1
 10
884.035898
 20
129.349365
 30
0.0
 10
873.267949
 20
110.698730
 30
0.0
 10
851.732051
 20
110.698730
 30
0.0
 10
840.964102
 20
129.349365
 30
0.0
 10
851.732051
 20
148.000000
 30
0.0
 10
873.267949
 20
148.000000
 30
0.0
 10
884.035898
 20
129.349365
 30
0.0
  0
LWPOLYLINE
  5
1e4
100
AcDbEntity
  8
0
 62
7
100
AcDbPolyline
 90
4
 70
1
 10
837.500000
 20
123.349365
 30
0.0
 10
844.803848
 20
110.698730
 30
0.0
 10
830.196152
 20
110.698730
 30
0.0
 10
837.500000
 20
123.349365
 30
0.0
  0
LWPOLYLINE
  5
1e5
100
AcDbEntity
  8
0
 62
7
100
AcDbPolyline
 90
4
 70
1
 10
837.500000
 20
92.048095
 30
0.0
 10
830.196152
 20
104.698730
 30
0.0
 10
844.803848
 20
104.698730
 30
0.0
 10
837.500000
 20
92.048095
 30
0.0
  0
LWPOLYLINE
  5
1e6
100
AcDbEntity
  8
0
 62
7
100
AcDbPolyline
 90
4
 70
1
 10
856.176915
 20
91.000000
 30
0.0
 10
843.823085
 20
91.000000
 30
0.0
 10
850.000000
 20
101.698730
 30
0.0
 10
856.176915
 20
91.000000
 30
0.0
  0
LWPOLYLINE
  5
1e7
100
AcDbEntity
  8
0
 62
7
100
AcDbPolyline
 90
4
 70
1
 10
862.500000
 20
92.048095
 30
0.0
 10
855.196152
 20
104.698730
 30
0.0
 10
869.803848
 20
104.698730
 30
0.0
 10
862.500000
 20
92.048095
 30
0.0
  0
LWPOLYLINE
  5
1e8
100
AcDbEntity
  8
0
 62
7
100
AcDbPolyline
 90
4
 70
1
 10
881.176915
 20
91.000000
 30
0.0
 10
868.823085
 20
91.000000
 30
0.0
 10
875.000000
 20
101.698730
 30
0.0
 10
881.176915
 20
91.000000
 30
0.0
  0
LWPOLYLINE
  5
1e9
100
AcDbEntity
  8
0
 62
7
100
AcDbPolyline
 90
4
 70
1
 10
887.500000
 20
92.048095
 30
0.0
 10
880.196152
 20
104.698730
 30
0.0
 10
894.803848
 20
104.698730
 30
0.0
 10
887.500000
 20
92.048095
 30
0.0
  0
LWPOLYLINE
  5
1ea
100
AcDbEntity
  8
0
 62
7
100
AcDbPolyline
 90
4
 70
1
 10
887.500000
 20
123.349365
 30
0.0
 10
894.803848
 20
110.698730
 30
0.0
 10
880.196152
 20
110.698730
 30
0.0
 10
887.500000
 20
123.349365
 30
0.0
  0
LWPOLYLINE
  5
1eb
100
AcDbEntity
  8
0
 62
7
100
AcDbPolyline
 90
4
 70
1
 10
900.000000
 20
113.698730
 30
0.0
 10
892.696152
 20
126.349365
 30
0.0
 10
907.303848
 20
126.349365
 30
0.0
 10
900.000000
 20
113.698730
 30
0.0
  0
LWPOLYLINE
  5
1ec
100
AcDbEntity
  8
0
 62
7
100
AcDbPolyline
 90
7
 70
1
 10
934.035898
 20
172.650635
 30
0.0
 10
923.267949
 20
154.000000
 30
0.0
 10
901.732051
 20
154.000000
 30
0.0
 10
890.964102
 20
172.650635
 30
0.0
 10
901.732051
 20
191.301270
 30
0.0
 10
923.267949
 20
191.301270
 30
0.0
 10
934.035898
 20
172.650635
 30
0.0
  0
LWPOLYLINE
  5
1ed
100
AcDbEntity
  8
0
 62
7
100
AcDbPolyline
 90
4
 70
1
 10
887.500000
 20
166.650635
 30
0.0
 10
894.803848
 20
154.000000
 30
0.0
 10
880.196152
 20
154.000000
 30
0.0
 10
887.500000
 20
166.650635
 30
0.0
  0
LWPOLYLINE
  5
1ee
100
AcDbEntity
  8
0
 62
7
100
AcDbPolyline
 90
4
 70
1
 10
887.500000
 20
135.349365
 30
0.0
 10
880.196152
 20
148.000000
 30
0.0
 10
894.803848
 20
148.000000
 30
0.0
 10
887.500000
 20
135.349365
 30
0.0
  0
LWPOLYLINE
  5
1ef
100
AcDbEntity
  8
0
 62
7
100
AcDbPolyline
 90
4
 70
1
 10
900.000000
 20
145.000000
 30
0.0
 10
907.303848
 20
132.349365
 30
0.0
 10
892.696152
 20
132.349365
 30
0.0
 10
900.000000
 20
145.000000
 30
0.0
  0
LWPOLYLINE
  5
1f0
100
AcDbEntity
  8
0
 62
7
100
AcDbPolyline
 90
4
 70
1
 10
912.500000
 20
135.349365
 30
0.0
 10
905.196152
 20
148.000000
 30
0.0
 10
919.803848
 20
148.000000
 30
0.0
 10
912.500000
 20
135.349365
 30
0.0
  0
LWPOLYLINE
  5
1f1
100
AcDbEntity
  8
0
 62
7
100
AcDbPolyline
 90
4
 70
1
 10
925.000000
 20
145.000000
 30
0.0
 10
932.303848
 20
132.349365
 30
0.0
 10
917.696152
 20
132.349365
 30
0.0
 10
925.000000
 20
145.000000
 30
0.0
  0
LWPOLYLINE
  5
1f2
100
AcDbEntity
  8
0
 62
7
100
AcDbPolyline
 90
4
 70
1
 10
937.500000
 20
135.349365
 30
0.0
 10
930.196152
 20
148.000000
 30
0.0
 10
944.803848
 20
148.000000
 30
0.0
 10
937.500000
 20
135.349365
 30
0.0
  0
LWPOLYLINE
  5
1f3
100
AcDbEntity
  8
0
 62
7
100
AcDbPolyline
 90
4
 70
1
 10
937.500000
 20
166.650635
 30
0.0
 10
944.803848
 20
154.000000
 30
0.0
 10
930.196152
 20
154.000000
 30
0.0
 10
937.500000
 20
166.650635
 30
0.0
  0
LWPOLYLINE
  5
1f4
100
AcDbEntity
  8
0
 62
7
100
AcDbPolyline
 90
4
 70
1
 10
950.000000
 20
157.000000
 30
0.0
 10
942.696152
 20
169.650635
 30
0.0
 10
957.303848
 20
169.650635
 30
0.0
 10
950.000000
 20
157.000000
 30
0.0
  0
LWPOLYLINE
  5
1f5
100
AcDbEntity
  8
0
 62
7
100
AcDbPolyline
 90
5
 70
1
 10
973.267949
 20
197.301270
 30
0.0
 10
951.732051
 20
197.301270
 30
0.0
 10
943.823085
 20
211.000000
 30
0.0
 10
981.176915
 20
211.000000
 30
0.0
 10
973.267949
 20
197.301270
 30
0.0
  0
LWPOLYLINE
  5
1f6
100
AcDbEntity
  8
0
 62
7
100
AcDbPolyline
 90
4
 70
1
 10
937.500000
 20
209.951905
 30
0.0
 10
944.803848
 20
197.301270
 30
0.0
 10
930.196152
 20
197.301270
 30
0.0
 10
937.500000
 20
209.951905
 30
0.0
  0
LWPOLYLINE
  5
1f7
100
AcDbEntity
  8
0
 62
7
100
AcDbPolyline
 90
4
 70
1
 10
937.500000
 20
178.650635
 30
0.0
 10
930.196152
 20
191.301270
 30
0.0
 10
944.803848
 20
191.301270
 30
0.0
 10
937.500000
 20
178.650635
 30
0.0
  0
LWPOLYLINE
  5
1f8
100
AcDbEntity
  8
0
 62
7
100
AcDbPolyline
 90
4
 70
1
 10
950.000000
 20
188.301270
 30
0.0
 10
957.303848
 20
175.650635
 30
0.0
 10
942.696152
 20
175.650635
 30
0.0
 10
950.000000
 20
188.301270
 30
0.0
  0
LWPOLYLINE
  5
1f9
100
AcDbEntity
  8
0
 62
7
100
AcDbPolyline
 90
4
 70
1
 10
962.500000
 20
178.650635
 30
0.0
 10
955.196152
 20
191.301270
 30
0.0
 10
969.803848
 20
191.301270
 30
0.0
 10
962.500000
 20
178.650635
 30
0.0
  0
LWPOLYLINE
  5
1fa
100
AcDbEntity
  8
0
 62
7
100
AcDbPolyline
 90
4
 70
1
 10
975.000000
 20
188.301270
 30
0.0
 10
982.303848
 20
175.650635
 30
0.0
 10
967.696152
 20
175.650635
 30
0.0
 10
975.000000
 20
188.301270
 30
0.0
  0
LWPOLYLINE
  5
1fb
100
AcDbEntity
  8
0
 62
7
100
AcDbPolyline
 90
4
 70
1
 10
987.500000
 20
178.650635
 30
0.0
 10
980.196152
 20
191.301270
 30
0.0
 10
994.803848
 20
191.301270
 30
0.0
 10
987.500000
 20
178.650635
 30
0.0
  0
LWPOLYLINE
  5
1fc
100
AcDbEntity
  8
0
 62
7
100
AcDbPolyline
 90
4
 70
1
 10
987.500000
 20
209.951905
 30
0.0
 10
994.803848
 20
197.301270
 30
0.0
 10
980.196152
 20
197.301270
 30
0.0
 10
987.500000
 20
209.951905
 30
0.0
  0
LWPOLYLINE
  5
1fd
100
AcDbEntity
  8
0
 62
7
100
AcDbPolyline
 90
4
 70
1
 10
993.823085
 20
211.000000
 30
0.0
 10
1006.176915
 20
211.000000
 30
0.0
 10
1000.000000
 20
200.301270
 30
0.0
 10
993.823085
 20
211.000000
 30
0.0
  0
LWPOLYLINE
  5
1fe
100
AcDbEntity
  8
0
 62
7
100
AcDbPolyline
 90
7
 70
1
 10
936.894882
 20
91.000000
 30
0.0
 10
913.105118
 20
91.000000
 30
0.0
 10
903.464102
 20
107.698730
 30
0.0
 10
914.232051
 20
126.349365
 30
0.0
 10
935.767949
 20
126.349365
 30
0.0
 10
946.535898
 20
107.698730
 30
0.0
 10
936.894882
 20
91.000000
 30
0.0
  0
LWPOLYLINE
  5
1ff
100
AcDbEntity
  8
0
 62
7
100
AcDbPolyline
 90
4
 70
1
 10
906.176915
 20
91.000000
 30
0.0
 10
893.823085
 20
91.000000
 30
0.0
 10
900.000000
 20
101.698730
 30
0.0
 10
906.176915
 20
91.000000
 30
0.0
  0
LWPOLYLINE
  5
200
100
AcDbEntity
  8
0
 62
7
100
AcDbPolyline
 90
4
 70
1
 10
956.176915
 20
91.000000
 30
0.0
 10
943.823085
 20
91.000000
 30
0.0
 10
950.000000
 20
101.698730
 30
0.0
 10
956.176915
 20
91.000000
 30
0.0
  0
LWPOLYLINE
  5
201
100
AcDbEntity
  8
0
 62
7
100
AcDbPolyline
 90
4
 70
1
 10
962.500000
 20
92.048095
 30
0.0
 10
955.196152
 20
104.698730
 30
0.0
 10
969.803848
 20
104.698730
 30
0.0
 10
962.500000
 20
92.048095
 30
0.0
  0
LWPOLYLINE
  5
202
100
AcDbEntity
  8
0
 62
7
100
AcDbPolyline
 90
7
 70
1
 10
996.535898
 20
151.000000
 30
0.0
 10
985.767949
 20
132.349365
 30
0.0
 10
964.232051
 20
132.349365
 30
0.0
 10
953.464102
 20
151.000000
 30
0.0
 10
964.232051
 20
169.650635
 30
0.0
 10
985.767949
 20
169.650635
 30
0.0
 10
996.535898
 20
151.000000
 30
0.0
  0
LWPOLYLINE
  5
203
100
AcDbEntity
  8
0
 62
7
100
AcDbPolyline
 90
4
 70
1
 10
950.000000
 20
145.000000
 30
0.0
 10
957.303848
 20
132.349365
 30
0.0
 10
942.696152
 20
132.349365
 30
0.0
 10
950.000000
 20
145.000000
 30
0.0
  0
LWPOLYLINE
  5
204
100
AcDbEntity
  8
0
 62
7
100
AcDbPolyline
 90
4
 70
1
 10
950.000000
 20
113.698730
 30
0.0
 10
942.696152
 20
126.349365
 30
0.0
 10
957.303848
 20
126.349365
 30
0.0
 10
950.000000
 20
113.698730
 30
0.0
  0
LWPOLYLINE
  5
205
100
AcDbEntity
  8
0
 62
7
100
AcDbPolyline
 90
4
 70
1
 10
962.500000
 20
123.349365
 30
0.0
 10
969.803848
 20
110.698730
 30
0.0
 10
955.196152
 20
110.698730
 30
0.0
 10
962.500000
 20
123.349365
 30
0.0
  0
LWPOLYLINE
  5
206
100
AcDbEntity
  8
0
 62
7
100
AcDbPolyline
 90
4
 70
1
 10
975.000000
 20
113.698730
 30
0.0
 10
967.696152
 20
126.349365
 30
0.0
 10
982.303848
 20
126.349365
 30
0.0
 10
975.000000
 20
113.698730
 30
0.0
  0
LWPOLYLINE
  5
207
100
AcDbEntity
  8
0
 62
7
100
AcDbPolyline
 90
4
 70
1
 10
987.500000
 20
123.349365
 30
0.0
 10
994.803848
 20
110.698730
 30
0.0
 10
980.196152
 20
110.698730
 30
0.0
 10
987.500000
 20
123.349365
 30
0.0
  0
LWPOLYLINE
  5
208
100
AcDbEntity
  8
0
 62
7
100
AcDbPolyline
 90
4
 70
1
 10
1000.000000
 20
113.698730
 30
0.0
 10
992.696152
 20
126.349365
 30
0.0
 10
1007.303848
 20
126.349365
 30
0.0
 10
1000.000000
 20
113.698730
 30
0.0
  0
LWPOLYLINE
  5
209
100
AcDbEntity
  8
0
 62
7
100
AcDbPolyline
 90
4
 70
1
 10
1000.000000
 20
145.000000
 30
0.0
 10
1007.303848
 20
132.349365
 30
0.0
 10
992.696152
 20
132.349365
 30
0.0
 10
1000.000000
 20
145.000000
 30
0.0
  0
LWPOLYLINE
  5
20a
100
AcDbEntity
  8
0
 62
7
100
AcDbPolyline
 90
4
 70
1
 10
1012.500000
 20
135.349365
 30
0.0
 10
1005.196152
 20
148.000000
 30
0.0
 10
1019.803848
 20
148.000000
 30
0.0
 10
1012.500000
 20
135.349365
 30
0.0
  0
LWPOLYLINE
  5
20b
100
AcDbEntity
  8
0
 62
7
100
AcDbPolyline
 90
8
 70
1
 10
1035.767949
 20
175.650635
 30
0.0
 10
1014.232051
 20
175.650635
 30
0.0
 10
1003.464102
 20
194.301270
 30
0.0
 10
1013.105118
 20
211.000000
 30
0.0
 10
1036.894882
 20
211.000000
 30
0.0
 10
1038.000000
 20
209.085880
 30
0.0
 10
1038.000000
 20
179.516660
 30
0.0
 10
1035.767949
 20
175.650635
 30
0.0
  0
LWPOLYLINE
  5
20c
100
AcDbEntity
  8
0
 62
7
100
AcDbPolyline
 90
4
 70
1
 10
1000.000000
 20
188.301270
 30
0.0
 10
1007.303848
 20
175.650635
 30
0.0
 10
992.696152
 20
175.650635
 30
0.0
 10
1000.000000
 20
188.301270
 30
0.0
  0
LWPOLYLINE
  5
20d
100
AcDbEntity
  8
0
 62
7
100
AcDbPolyline
 90
4
 70
1
 10
1000.000000
 20
157.000000
 30
0.0
 10
992.696152
 20
169.650635
 30
0.0
 10
1007.303848
 20
169.650635
 30
0.0
 10
1000.000000
 20
157.000000
 30
0.0
  0
LWPOLYLINE
  5
20e
100
AcDbEntity
  8
0
 62
7
100
AcDbPolyline
 90
4
 70
1
 10
1012.500000
 20
166.650635
 30
0.0
 10
1019.803848
 20
154.000000
 30
0.0
 10
1005.196152
 20
154.000000
 30
0.0
 10
1012.500000
 20
166.650635
 30
0.0
  0
LWPOLYLINE
  5
20f
100
AcDbEntity
  8
0
 62
7
100
AcDbPolyline
 90
4
 70
1
 10
1025.000000
 20
157.000000
 30
0.0
 10
1017.696152
 20
169.650635
 30
0.0
 10
1032.303848
 20
169.650635
 30
0.0
 10
1025.000000
 20
157.000000
 30
0.0
  0
LWPOLYLINE
  5
210
100
AcDbEntity
  8
0
 62
7
100
AcDbPolyline
 90
5
 70
1
 10
1038.000000
 20
165.784610
 30
0.0
 10
1038.000000
 20
154.000000
 30
0.0
 10
1030.196152
 20
154.000000
 30
0.0
 10
1037.500000
 20
166.650635
 30
0.0
 10
1038.000000
 20
165.784610
 30
0.0
  0
LWPOLYLINE
  5
211
100
AcDbEntity
  8
0
 62
7
100
AcDbPolyline
 90
5
 70
1
 10
976.732051
 20
104.698730
 30
0.0
 10
998.267949
 20
104.698730
 30
0.0
 10
1006.176915
 20
91.000000
 30
0.0
 10
968.823085
 20
91.000000
 30
0.0
 10
976.732051
 20
104.698730
 30
0.0
  0
LWPOLYLINE
  5
212
100
AcDbEntity
  8
0
 62
7
100
AcDbPolyline
 90
6
 70
1
 10
1026.732051
 20
110.698730
 30
0.0
 10
1015.964102
 20
129.349365
 30
0.0
 10
1026.732051
 20
148.000000
 30
0.0
 10
1038.000000
 20
148.000000
 30
0.0
 10
1038.000000
 20
110.698730
 30
0.0
 10
1026.732051
 20
110.698730
 30
0.0
  0
LWPOLYLINE
  5
213
100
AcDbEntity
  8
0
 62
7
100
AcDbPolyline
 90
4
 70
1
 10
1012.500000
 20
123.349365
 30
0.0
 10
1019.803848
 20
110.698730
 30
0.0
 10
1005.196152
 20
110.698730
 30
0.0
 10
1012.500000
 20
123.349365
 30
0.0
  0
LWPOLYLINE
  5
214
100
AcDbEntity
  8
0
 62
7
100
AcDbPolyline
 90
4
 70
1
 10
1012.500000
 20
92.048095
 30
0.0
 10
1005.196152
 20
104.698730
 30
0.0
 10
1019.803848
 20
104.698730
 30
0.0
 10
1012.500000
 20
92.048095
 30
0.0
  0
LWPOLYLINE
  5
215
100
AcDbEntity
  8
0
 62
7
100
AcDbPolyline
 90
4
 70
1
 10
1031.176915
 20
91.000000
 30
0.0
 10
1018.823085
 20
91.000000
 30
0.0
 10
1025.000000
 20
101.698730
 30
0.0
 10
1031.176915
 20
91.000000
 30
0.0
  0
LWPOLYLINE
  5
216
100
AcDbEntity
  8
0
 62
7
100
AcDbPolyline
 90
5
 70
1
 10
1030.196152
 20
104.698730
 30
0.0
 10
1038.000000
 20
104.698730
 30
0.0
 10
1038.000000
 20
92.914120
 30
0.0
 10
1037.500000
 20
92.048095
 30
0.0
 10
1030.196152
 20
104.698730
 30
0.0
  0
LWPOLYLINE
  5
217
100
AcDbEntity
  8
0
 62
7
100
AcDbPolyline
 90
5
 70
1
 10
146.000000
 20
65.000000
 30
0.0
 10
1054.000000
 20
65.000000
 30
0.0
 10
1054.000000
 20
235.000000
 30
0.0
 10
146.000000
 20
235.000000
 30
0.0
 10
146.000000
 20
65.000000
 30
0.0
  0
ENDSEC
  0
SECTION
  2
OBJECTS
  0
DICTIONARY
  5
C
330
0
100
AcDbDictionary
  3
ACAD_GROUP
350
D
  3
ACAD_MLINESTYLE
350
17
  0
DICTIONARY
  5
D
330
C
100
AcDbDictionary
  0
DICTIONARY
  5
1A
330
C
100
AcDbDictionary
  0
DICTIONARY
  5
17
330
C
100
AcDbDictionary
  3
STANDARD
350
18
  0
DICTIONARY
  5
19
330
C
100
AcDbDictionary
  0
ENDSEC
  0
EOF
