<?xml version="1.0" encoding="UTF-8" standalone="no"?>
<svg
   height="300mm"
   version="1.1"
   viewBox="0 0 1200 300"
   width="1200mm"
   id="svg286"
   sodipodi:docname="tabica_2.4_MEDIDAS.svg"
   inkscape:version="1.4.2 (1:1.4.2+202505120737+ebf0e940d0)"
   xmlns:inkscape="http://www.inkscape.org/namespaces/inkscape"
   xmlns:sodipodi="http://sodipodi.sourceforge.net/DTD/sodipodi-0.dtd"
   xmlns="http://www.w3.org/2000/svg"
   xmlns:svg="http://www.w3.org/2000/svg">
  <sodipodi:namedview
     id="namedview286"
     pagecolor="#ffffff"
     bordercolor="#666666"
     borderopacity="1.0"
     inkscape:showpageshadow="2"
     inkscape:pageopacity="0.0"
     inkscape:pagecheckerboard="0"
     inkscape:deskcolor="#d1d1d1"
     inkscape:document-units="mm"
     showgrid="false"
     inkscape:zoom="0.18267275"
     inkscape:cx="1313.8249"
     inkscape:cy="1620.384"
     inkscape:window-width="1920"
     inkscape:window-height="1011"
     inkscape:window-x="0"
     inkscape:window-y="0"
     inkscape:window-maximized="1"
     inkscape:current-layer="g1" />
  <defs
     id="defs1">
    <marker
       style="overflow:visible"
       id="Stop"
       refX="0"
       refY="0"
       orient="auto"
       inkscape:stockid="Stop"
       markerWidth="1"
       markerHeight="1"
       viewBox="0 0 1 1"
       inkscape:isstock="true"
       inkscape:collect="always"
       preserveAspectRatio="xMidYMid">
      <path
         style="fill:none;stroke:context-stroke;stroke-width:1"
         d="M 0,4 V -4"
         id="path203-7" />
    </marker>
  </defs>
  <g
     id="g1"
     transform="translate(-20.0011)">
    <path
       style="fill:none;stroke:#000000;stroke-width:1.265;stroke-linecap:butt;stroke-linejoin:miter;stroke-dasharray:none;stroke-opacity:1;marker-start:url(#Stop);marker-end:url(#Stop)"
       d="M 130.97609,64.53827 V 234.56732"
       id="path202-6"
       sodipodi:nodetypes="cc" />
    <text
       xml:space="preserve"
       style="font-size:25.4px;line-height:1.25;font-family:'Noto Mono';-inkscape-font-specification:'Noto Mono';word-spacing:0px;stroke-width:0.264583"
       x="66.370026"
       y="155.38345"
       id="text203"><tspan
         sodipodi:role="line"
         id="tspan203"
         style="stroke-width:0.264583"
         x="66.370026"
         y="155.38345">170</tspan></text>
    <text
       xml:space="preserve"
       style="font-size:25.4px;line-height:1.25;font-family:'Noto Mono';-inkscape-font-specification:'Noto Mono';word-spacing:0px;stroke-width:0.264583"
       x="138.33669"
       y="231.6404"
       id="text203-7"><tspan
         sodipodi:role="line"
         id="tspan203-9"
         style="stroke-width:0.264583"
         x="138.33669"
         y="231.6404">26</tspan></text>
    <text
       xml:space="preserve"
       style="font-size:25.4px;line-height:1.25;font-family:'Noto Mono';-inkscape-font-specification:'Noto Mono';word-spacing:0px;stroke-width:0.264583"
       x="554.61005"
       y="39.340687"
       id="text203-6"><tspan
         sodipodi:role="line"
         id="tspan203-7"
         style="stroke-width:0.264583"
         x="554.61005"
         y="39.340687">Tabica 2.4</tspan></text>
    <path
       style="fill:none;stroke:#000000;stroke-width:1.265;stroke-linecap:butt;stroke-linejoin:miter;stroke-dasharray:none;stroke-opacity:1;marker-start:url(#Stop);marker-end:url(#Stop)"
       d="M 1097.0957,87.75532 V 207.75532"
       id="path204-2"
       sodipodi:nodetypes="cc" />
    <text
       xml:space="preserve"
       style="font-size:25.4px;line-height:1.25;font-family:'Noto Mono';-inkscape-font-specification:'Noto Mono';word-spacing:0px;stroke-width:0.264583"
       x="1120.9218"
       y="155.51367"
       id="text204"><tspan
         sodipodi:role="line"
         id="tspan204"
         style="stroke-width:0.264583"
         x="1120.9218"
         y="155.51367">120</tspan></text>
    <path
       style="fill:none;stroke:#000000;stroke-width:1.265;stroke-linecap:butt;stroke-linejoin:miter;stroke-dasharray:none;stroke-opacity:1;marker-start:url(#Stop);marker-end:url(#Stop)"
       d="M 1074.0011,247.17091 H 166.325"
       id="path205-6"
       sodipodi:nodetypes="cc" />
    <text
       xml:space="preserve"
       style="font-size:25.4px;line-height:1.25;font-family:'Noto Mono';-inkscape-font-specification:'Noto Mono';word-spacing:0px;stroke-width:0.264583"
       x="601.76196"
       y="277.82034"
       id="text205"><tspan
         sodipodi:role="line"
         id="tspan205"
         style="stroke-width:0.264583"
         x="601.76196"
         y="277.82034">908</tspan></text>
    <path
       style="fill:none;stroke:#000000;stroke-width:1.265;stroke-linecap:butt;stroke-linejoin:miter;stroke-dasharray:none;stroke-opacity:1;marker-start:url(#Stop);marker-end:url(#Stop)"
       d="M 169.5,209 V 235"
       id="path246-6" />
  </g>
  <g
     fill="none"
     stroke="#0000ff"
     stroke-width="0.5"
     transform="translate(-762.5,65)"
     id="g280">
    <path
       d="M 924.5,57.21539 V 24.182069 L 934.0359,40.69873 Z"
       id="path1" />
    <path
       d="M 932.30385,81 H 924.5 V 69.21539 L 925,68.349365 Z"
       id="path2" />
    <path
       d="M 937.5,78 930.19615,65.349365 H 944.80385 Z"
       id="path3" />
    <path
       d="M 937.5,46.69873 944.80385,59.349365 H 930.19615 Z"
       id="path4" />
    <path
       d="M 950,56.349365 942.69615,43.69873 H 957.30385 Z"
       id="path5" />
    <path
       d="M 931.32309,24 H 943.67691 L 937.5,34.69873 Z"
       id="path6" />
    <path
       d="M 950,25.048095 957.30385,37.69873 H 942.69615 Z"
       id="path7" />
    <path
       d="M 956.32309,24 H 968.67691 L 962.5,34.69873 Z"
       id="path8" />
    <path
       d="M 975,25.048095 982.30385,37.69873 H 967.69615 Z"
       id="path9" />
    <path
       d="M 981.32309,24 H 993.67691 L 987.5,34.69873 Z"
       id="path10" />
    <path
       d="M 935.76795,124.30127 H 924.5 V 87 H 935.76795 L 946.5359,105.65064 Z"
       id="path11" />
    <path
       d="M 924.5,142.08588 V 130.30127 H 932.30385 L 925,142.95191 Z"
       id="path12" />
    <path
       d="M 943.67691,144 H 931.32309 L 937.5,133.30127 Z"
       id="path13" />
    <path
       d="M 950,142.95191 942.69615,130.30127 H 957.30385 Z"
       id="path14" />
    <path
       d="M 950,111.65064 957.30385,124.30127 H 942.69615 Z"
       id="path15" />
    <path
       d="M 962.5,121.30127 955.19615,108.65064 H 969.80385 Z"
       id="path16" />
    <path
       d="M 996.5359,62.349365 985.76795,81 H 964.23205 L 953.4641,62.349365 964.23205,43.69873 H 985.76795 Z"
       id="path17" />
    <path
       d="M 950,68.349365 957.30385,81 H 942.69615 Z"
       id="path18" />
    <path
       d="M 950,99.650635 942.69615,87 H 957.30385 Z"
       id="path19" />
    <path
       d="M 962.5,90 969.80385,102.65064 H 955.19615 Z"
       id="path20" />
    <path
       d="M 975,99.650635 967.69615,87 H 982.30385 Z"
       id="path21" />
    <path
       d="M 987.5,90 994.80385,102.65064 H 980.19615 Z"
       id="path22" />
    <path
       d="M 1000,99.650635 992.69615,87 H 1007.3038 Z"
       id="path23" />
    <path
       d="M 1000,68.349365 1007.3038,81 H 992.69615 Z"
       id="path24" />
    <path
       d="M 1012.5,78 1005.1962,65.349365 H 1019.8038 Z"
       id="path25" />
    <path
       d="M 1035.7679,37.69873 H 1014.2321 L 1006.3231,24 H 1043.6769 Z"
       id="path26" />
    <path
       d="M 1000,25.048095 1007.3038,37.69873 H 992.69615 Z"
       id="path27" />
    <path
       d="M 1000,56.349365 992.69615,43.69873 H 1007.3038 Z"
       id="path28" />
    <path
       d="M 1012.5,46.69873 1019.8038,59.349365 H 1005.1962 Z"
       id="path29" />
    <path
       d="M 1025,56.349365 1017.6962,43.69873 H 1032.3038 Z"
       id="path30" />
    <path
       d="M 1037.5,46.69873 1044.8038,59.349365 H 1030.1962 Z"
       id="path31" />
    <path
       d="M 1050,56.349365 1042.6962,43.69873 H 1057.3038 Z"
       id="path32" />
    <path
       d="M 1050,25.048095 1057.3038,37.69873 H 1042.6962 Z"
       id="path33" />
    <path
       d="M 1056.3231,24 H 1068.6769 L 1062.5,34.69873 Z"
       id="path34" />
    <path
       d="M 999.39488,144 H 975.60512 L 965.9641,127.30127 976.73205,108.65064 H 998.26795 L 1009.0359,127.30127 Z"
       id="path35" />
    <path
       d="M 968.67691,144 H 956.32309 L 962.5,133.30127 Z"
       id="path36" />
    <path
       d="M 1018.6769,144 H 1006.3231 L 1012.5,133.30127 Z"
       id="path37" />
    <path
       d="M 1025,142.95191 1017.6962,130.30127 H 1032.3038 Z"
       id="path38" />
    <path
       d="M 1059.0359,84 1048.2679,102.65064 H 1026.7321 L 1015.9641,84 1026.7321,65.349365 H 1048.2679 Z"
       id="path39" />
    <path
       d="M 1012.5,90 1019.8038,102.65064 H 1005.1962 Z"
       id="path40" />
    <path
       d="M 1012.5,121.30127 1005.1962,108.65064 H 1019.8038 Z"
       id="path41" />
    <path
       d="M 1025,111.65064 1032.3038,124.30127 H 1017.6962 Z"
       id="path42" />
    <path
       d="M 1037.5,121.30127 1030.1962,108.65064 H 1044.8038 Z"
       id="path43" />
    <path
       d="M 1050,111.65064 1057.3038,124.30127 H 1042.6962 Z"
       id="path44" />
    <path
       d="M 1062.5,121.30127 1055.1962,108.65064 H 1069.8038 Z"
       id="path45" />
    <path
       d="M 1062.5,90 1069.8038,102.65064 H 1055.1962 Z"
       id="path46" />
    <path
       d="M 1075,99.650635 1067.6962,87 H 1082.3038 Z"
       id="path47" />
    <path
       d="M 1098.2679,59.349365 H 1076.7321 L 1065.9641,40.69873 1075.6051,24 H 1099.3949 L 1109.0359,40.69873 Z"
       id="path48" />
    <path
       d="M 1062.5,46.69873 1069.8038,59.349365 H 1055.1962 Z"
       id="path49" />
    <path
       d="M 1062.5,78 1055.1962,65.349365 H 1069.8038 Z"
       id="path50" />
    <path
       d="M 1075,68.349365 1082.3038,81 H 1067.6962 Z"
       id="path51" />
    <path
       d="M 1087.5,78 1080.1962,65.349365 H 1094.8038 Z"
       id="path52" />
    <path
       d="M 1100,68.349365 1107.3038,81 H 1092.6962 Z"
       id="path53" />
    <path
       d="M 1112.5,78 1105.1962,65.349365 H 1119.8038 Z"
       id="path54" />
    <path
       d="M 1112.5,46.69873 1119.8038,59.349365 H 1105.1962 Z"
       id="path55" />
    <path
       d="M 1125,56.349365 1117.6962,43.69873 H 1132.3038 Z"
       id="path56" />
    <path
       d="M 1106.3231,24 H 1118.6769 L 1112.5,34.69873 Z"
       id="path57" />
    <path
       d="M 1125,25.048095 1132.3038,37.69873 H 1117.6962 Z"
       id="path58" />
    <path
       d="M 1131.3231,24 H 1143.6769 L 1137.5,34.69873 Z"
       id="path59" />
    <path
       d="M 1150,25.048095 1157.3038,37.69873 H 1142.6962 Z"
       id="path60" />
    <path
       d="M 1156.3231,24 H 1168.6769 L 1162.5,34.69873 Z"
       id="path61" />
    <path
       d="M 1039.2321,130.30127 H 1060.7679 L 1068.6769,144 H 1031.3231 Z"
       id="path62" />
    <path
       d="M 1121.5359,105.65064 1110.7679,124.30127 H 1089.2321 L 1078.4641,105.65064 1089.2321,87 H 1110.7679 Z"
       id="path63" />
    <path
       d="M 1075,111.65064 1082.3038,124.30127 H 1067.6962 Z"
       id="path64" />
    <path
       d="M 1075,142.95191 1067.6962,130.30127 H 1082.3038 Z"
       id="path65" />
    <path
       d="M 1093.6769,144 H 1081.3231 L 1087.5,133.30127 Z"
       id="path66" />
    <path
       d="M 1100,142.95191 1092.6962,130.30127 H 1107.3038 Z"
       id="path67" />
    <path
       d="M 1118.6769,144 H 1106.3231 L 1112.5,133.30127 Z"
       id="path68" />
    <path
       d="M 1125,142.95191 1117.6962,130.30127 H 1132.3038 Z"
       id="path69" />
    <path
       d="M 1125,111.65064 1132.3038,124.30127 H 1117.6962 Z"
       id="path70" />
    <path
       d="M 1137.5,121.30127 1130.1962,108.65064 H 1144.8038 Z"
       id="path71" />
    <path
       d="M 1171.5359,62.349365 1160.7679,81 H 1139.2321 L 1128.4641,62.349365 1139.2321,43.69873 H 1160.7679 Z"
       id="path72" />
    <path
       d="M 1125,68.349365 1132.3038,81 H 1117.6962 Z"
       id="path73" />
    <path
       d="M 1125,99.650635 1117.6962,87 H 1132.3038 Z"
       id="path74" />
    <path
       d="M 1137.5,90 1144.8038,102.65064 H 1130.1962 Z"
       id="path75" />
    <path
       d="M 1150,99.650635 1142.6962,87 H 1157.3038 Z"
       id="path76" />
    <path
       d="M 1162.5,90 1169.8038,102.65064 H 1155.1962 Z"
       id="path77" />
    <path
       d="M 1175,99.650635 1167.6962,87 H 1182.3038 Z"
       id="path78" />
    <path
       d="M 1175,68.349365 1182.3038,81 H 1167.6962 Z"
       id="path79" />
    <path
       d="M 1187.5,78 1180.1962,65.349365 H 1194.8038 Z"
       id="path80" />
    <path
       d="M 1210.7679,37.69873 H 1189.2321 L 1181.3231,24 H 1218.6769 Z"
       id="path81" />
    <path
       d="M 1175,25.048095 1182.3038,37.69873 H 1167.6962 Z"
       id="path82" />
    <path
       d="M 1175,56.349365 1167.6962,43.69873 H 1182.3038 Z"
       id="path83" />
    <path
       d="M 1187.5,46.69873 1194.8038,59.349365 H 1180.1962 Z"
       id="path84" />
    <path
       d="M 1200,56.349365 1192.6962,43.69873 H 1207.3038 Z"
       id="path85" />
    <path
       d="M 1212.5,46.69873 1219.8038,59.349365 H 1205.1962 Z"
       id="path86" />
    <path
       d="M 1225,56.349365 1217.6962,43.69873 H 1232.3038 Z"
       id="path87" />
    <path
       d="M 1225,25.048095 1232.3038,37.69873 H 1217.6962 Z"
       id="path88" />
    <path
       d="M 1231.3231,24 H 1243.6769 L 1237.5,34.69873 Z"
       id="path89" />
    <path
       d="M 1174.3949,144 H 1150.6051 L 1140.9641,127.30127 1151.7321,108.65064 H 1173.2679 L 1184.0359,127.30127 Z"
       id="path90" />
    <path
       d="M 1143.6769,144 H 1131.3231 L 1137.5,133.30127 Z"
       id="path91" />
    <path
       d="M 1193.6769,144 H 1181.3231 L 1187.5,133.30127 Z"
       id="path92" />
    <path
       d="M 1200,142.95191 1192.6962,130.30127 H 1207.3038 Z"
       id="path93" />
    <path
       d="M 1234.0359,84 1223.2679,102.65064 H 1201.7321 L 1190.9641,84 1201.7321,65.349365 H 1223.2679 Z"
       id="path94" />
    <path
       d="M 1187.5,90 1194.8038,102.65064 H 1180.1962 Z"
       id="path95" />
    <path
       d="M 1187.5,121.30127 1180.1962,108.65064 H 1194.8038 Z"
       id="path96" />
    <path
       d="M 1200,111.65064 1207.3038,124.30127 H 1192.6962 Z"
       id="path97" />
    <path
       d="M 1212.5,121.30127 1205.1962,108.65064 H 1219.8038 Z"
       id="path98" />
    <path
       d="M 1225,111.65064 1232.3038,124.30127 H 1217.6962 Z"
       id="path99" />
    <path
       d="M 1237.5,121.30127 1230.1962,108.65064 H 1244.8038 Z"
       id="path100" />
    <path
       d="M 1237.5,90 1244.8038,102.65064 H 1230.1962 Z"
       id="path101" />
    <path
       d="M 1250,99.650635 1242.6962,87 H 1257.3038 Z"
       id="path102" />
    <path
       d="M 1273.2679,59.349365 H 1251.7321 L 1240.9641,40.69873 1250.6051,24 H 1274.3949 L 1284.0359,40.69873 Z"
       id="path103" />
    <path
       d="M 1237.5,46.69873 1244.8038,59.349365 H 1230.1962 Z"
       id="path104" />
    <path
       d="M 1237.5,78 1230.1962,65.349365 H 1244.8038 Z"
       id="path105" />
    <path
       d="M 1250,68.349365 1257.3038,81 H 1242.6962 Z"
       id="path106" />
    <path
       d="M 1262.5,78 1255.1962,65.349365 H 1269.8038 Z"
       id="path107" />
    <path
       d="M 1275,68.349365 1282.3038,81 H 1267.6962 Z"
       id="path108" />
    <path
       d="M 1287.5,78 1280.1962,65.349365 H 1294.8038 Z"
       id="path109" />
    <path
       d="M 1287.5,46.69873 1294.8038,59.349365 H 1280.1962 Z"
       id="path110" />
    <path
       d="M 1300,56.349365 1292.6962,43.69873 H 1307.3038 Z"
       id="path111" />
    <path
       d="M 1281.3231,24 H 1293.6769 L 1287.5,34.69873 Z"
       id="path112" />
    <path
       d="M 1300,25.048095 1307.3038,37.69873 H 1292.6962 Z"
       id="path113" />
    <path
       d="M 1306.3231,24 H 1318.6769 L 1312.5,34.69873 Z"
       id="path114" />
    <path
       d="M 1325,25.048095 1332.3038,37.69873 H 1317.6962 Z"
       id="path115" />
    <path
       d="M 1331.3231,24 H 1343.6769 L 1337.5,34.69873 Z"
       id="path116" />
    <path
       d="M 1214.2321,130.30127 H 1235.7679 L 1243.6769,144 H 1206.3231 Z"
       id="path117" />
    <path
       d="M 1296.5359,105.65064 1285.7679,124.30127 H 1264.2321 L 1253.4641,105.65064 1264.2321,87 H 1285.7679 Z"
       id="path118" />
    <path
       d="M 1250,111.65064 1257.3038,124.30127 H 1242.6962 Z"
       id="path119" />
    <path
       d="M 1250,142.95191 1242.6962,130.30127 H 1257.3038 Z"
       id="path120" />
    <path
       d="M 1268.6769,144 H 1256.3231 L 1262.5,133.30127 Z"
       id="path121" />
    <path
       d="M 1275,142.95191 1267.6962,130.30127 H 1282.3038 Z"
       id="path122" />
    <path
       d="M 1293.6769,144 H 1281.3231 L 1287.5,133.30127 Z"
       id="path123" />
    <path
       d="M 1300,142.95191 1292.6962,130.30127 H 1307.3038 Z"
       id="path124" />
    <path
       d="M 1300,111.65064 1307.3038,124.30127 H 1292.6962 Z"
       id="path125" />
    <path
       d="M 1312.5,121.30127 1305.1962,108.65064 H 1319.8038 Z"
       id="path126" />
    <path
       d="M 1346.5359,62.349365 1335.7679,81 H 1314.2321 L 1303.4641,62.349365 1314.2321,43.69873 H 1335.7679 Z"
       id="path127" />
    <path
       d="M 1300,68.349365 1307.3038,81 H 1292.6962 Z"
       id="path128" />
    <path
       d="M 1300,99.650635 1292.6962,87 H 1307.3038 Z"
       id="path129" />
    <path
       d="M 1312.5,90 1319.8038,102.65064 H 1305.1962 Z"
       id="path130" />
    <path
       d="M 1325,99.650635 1317.6962,87 H 1332.3038 Z"
       id="path131" />
    <path
       d="M 1337.5,90 1344.8038,102.65064 H 1330.1962 Z"
       id="path132" />
    <path
       d="M 1350,99.650635 1342.6962,87 H 1357.3038 Z"
       id="path133" />
    <path
       d="M 1350,68.349365 1357.3038,81 H 1342.6962 Z"
       id="path134" />
    <path
       d="M 1362.5,78 1355.1962,65.349365 H 1369.8038 Z"
       id="path135" />
    <path
       d="M 1385.7679,37.69873 H 1364.2321 L 1356.3231,24 H 1393.6769 Z"
       id="path136" />
    <path
       d="M 1350,25.048095 1357.3038,37.69873 H 1342.6962 Z"
       id="path137" />
    <path
       d="M 1350,56.349365 1342.6962,43.69873 H 1357.3038 Z"
       id="path138" />
    <path
       d="M 1362.5,46.69873 1369.8038,59.349365 H 1355.1962 Z"
       id="path139" />
    <path
       d="M 1375,56.349365 1367.6962,43.69873 H 1382.3038 Z"
       id="path140" />
    <path
       d="M 1387.5,46.69873 1394.8038,59.349365 H 1380.1962 Z"
       id="path141" />
    <path
       d="M 1400,56.349365 1392.6962,43.69873 H 1407.3038 Z"
       id="path142" />
    <path
       d="M 1400,25.048095 1407.3038,37.69873 H 1392.6962 Z"
       id="path143" />
    <path
       d="M 1406.3231,24 H 1418.6769 L 1412.5,34.69873 Z"
       id="path144" />
    <path
       d="M 1349.3949,144 H 1325.6051 L 1315.9641,127.30127 1326.7321,108.65064 H 1348.2679 L 1359.0359,127.30127 Z"
       id="path145" />
    <path
       d="M 1318.6769,144 H 1306.3231 L 1312.5,133.30127 Z"
       id="path146" />
    <path
       d="M 1368.6769,144 H 1356.3231 L 1362.5,133.30127 Z"
       id="path147" />
    <path
       d="M 1375,142.95191 1367.6962,130.30127 H 1382.3038 Z"
       id="path148" />
    <path
       d="M 1409.0359,84 1398.2679,102.65064 H 1376.7321 L 1365.9641,84 1376.7321,65.349365 H 1398.2679 Z"
       id="path149" />
    <path
       d="M 1362.5,90 1369.8038,102.65064 H 1355.1962 Z"
       id="path150" />
    <path
       d="M 1362.5,121.30127 1355.1962,108.65064 H 1369.8038 Z"
       id="path151" />
    <path
       d="M 1375,111.65064 1382.3038,124.30127 H 1367.6962 Z"
       id="path152" />
    <path
       d="M 1387.5,121.30127 1380.1962,108.65064 H 1394.8038 Z"
       id="path153" />
    <path
       d="M 1400,111.65064 1407.3038,124.30127 H 1392.6962 Z"
       id="path154" />
    <path
       d="M 1412.5,121.30127 1405.1962,108.65064 H 1419.8038 Z"
       id="path155" />
    <path
       d="M 1412.5,90 1419.8038,102.65064 H 1405.1962 Z"
       id="path156" />
    <path
       d="M 1425,99.650635 1417.6962,87 H 1432.3038 Z"
       id="path157" />
    <path
       d="M 1448.2679,59.349365 H 1426.7321 L 1415.9641,40.69873 1425.6051,24 H 1449.3949 L 1459.0359,40.69873 Z"
       id="path158" />
    <path
       d="M 1412.5,46.69873 1419.8038,59.349365 H 1405.1962 Z"
       id="path159" />
    <path
       d="M 1412.5,78 1405.1962,65.349365 H 1419.8038 Z"
       id="path160" />
    <path
       d="M 1425,68.349365 1432.3038,81 H 1417.6962 Z"
       id="path161" />
    <path
       d="M 1437.5,78 1430.1962,65.349365 H 1444.8038 Z"
       id="path162" />
    <path
       d="M 1450,68.349365 1457.3038,81 H 1442.6962 Z"
       id="path163" />
    <path
       d="M 1462.5,78 1455.1962,65.349365 H 1469.8038 Z"
       id="path164" />
    <path
       d="M 1462.5,46.69873 1469.8038,59.349365 H 1455.1962 Z"
       id="path165" />
    <path
       d="M 1475,56.349365 1467.6962,43.69873 H 1482.3038 Z"
       id="path166" />
    <path
       d="M 1456.3231,24 H 1468.6769 L 1462.5,34.69873 Z"
       id="path167" />
    <path
       d="M 1475,25.048095 1482.3038,37.69873 H 1467.6962 Z"
       id="path168" />
    <path
       d="M 1481.3231,24 H 1493.6769 L 1487.5,34.69873 Z"
       id="path169" />
    <path
       d="M 1500,25.048095 1507.3038,37.69873 H 1492.6962 Z"
       id="path170" />
    <path
       d="M 1506.3231,24 H 1518.6769 L 1512.5,34.69873 Z"
       id="path171" />
    <path
       d="M 1389.2321,130.30127 H 1410.7679 L 1418.6769,144 H 1381.3231 Z"
       id="path172" />
    <path
       d="M 1471.5359,105.65064 1460.7679,124.30127 H 1439.2321 L 1428.4641,105.65064 1439.2321,87 H 1460.7679 Z"
       id="path173" />
    <path
       d="M 1425,111.65064 1432.3038,124.30127 H 1417.6962 Z"
       id="path174" />
    <path
       d="M 1425,142.95191 1417.6962,130.30127 H 1432.3038 Z"
       id="path175" />
    <path
       d="M 1443.6769,144 H 1431.3231 L 1437.5,133.30127 Z"
       id="path176" />
    <path
       d="M 1450,142.95191 1442.6962,130.30127 H 1457.3038 Z"
       id="path177" />
    <path
       d="M 1468.6769,144 H 1456.3231 L 1462.5,133.30127 Z"
       id="path178" />
    <path
       d="M 1475,142.95191 1467.6962,130.30127 H 1482.3038 Z"
       id="path179" />
    <path
       d="M 1475,111.65064 1482.3038,124.30127 H 1467.6962 Z"
       id="path180" />
    <path
       d="M 1487.5,121.30127 1480.1962,108.65064 H 1494.8038 Z"
       id="path181" />
    <path
       d="M 1521.5359,62.349365 1510.7679,81 H 1489.2321 L 1478.4641,62.349365 1489.2321,43.69873 H 1510.7679 Z"
       id="path182" />
    <path
       d="M 1475,68.349365 1482.3038,81 H 1467.6962 Z"
       id="path183" />
    <path
       d="M 1475,99.650635 1467.6962,87 H 1482.3038 Z"
       id="path184" />
    <path
       d="M 1487.5,90 1494.8038,102.65064 H 1480.1962 Z"
       id="path185" />
    <path
       d="M 1500,99.650635 1492.6962,87 H 1507.3038 Z"
       id="path186" />
    <path
       d="M 1512.5,90 1519.8038,102.65064 H 1505.1962 Z"
       id="path187" />
    <path
       d="M 1525,99.650635 1517.6962,87 H 1532.3038 Z"
       id="path188" />
    <path
       d="M 1525,68.349365 1532.3038,81 H 1517.6962 Z"
       id="path189" />
    <path
       d="M 1537.5,78 1530.1962,65.349365 H 1544.8038 Z"
       id="path190" />
    <path
       d="M 1560.7679,37.69873 H 1539.2321 L 1531.3231,24 H 1568.6769 Z"
       id="path191" />
    <path
       d="M 1525,25.048095 1532.3038,37.69873 H 1517.6962 Z"
       id="path192" />
    <path
       d="M 1525,56.349365 1517.6962,43.69873 H 1532.3038 Z"
       id="path193" />
    <path
       d="M 1537.5,46.69873 1544.8038,59.349365 H 1530.1962 Z"
       id="path194" />
    <path
       d="M 1550,56.349365 1542.6962,43.69873 H 1557.3038 Z"
       id="path195" />
    <path
       d="M 1562.5,46.69873 1569.8038,59.349365 H 1555.1962 Z"
       id="path196" />
    <path
       d="M 1575,56.349365 1567.6962,43.69873 H 1582.3038 Z"
       id="path197" />
    <path
       d="M 1575,25.048095 1582.3038,37.69873 H 1567.6962 Z"
       id="path198" />
    <path
       d="M 1581.3231,24 H 1593.6769 L 1587.5,34.69873 Z"
       id="path199" />
    <path
       d="M 1524.3949,144 H 1500.6051 L 1490.9641,127.30127 1501.7321,108.65064 H 1523.2679 L 1534.0359,127.30127 Z"
       id="path200" />
    <path
       d="M 1493.6769,144 H 1481.3231 L 1487.5,133.30127 Z"
       id="path201" />
    <path
       d="M 1543.6769,144 H 1531.3231 L 1537.5,133.30127 Z"
       id="path202" />
    <path
       d="M 1550,142.95191 1542.6962,130.30127 H 1557.3038 Z"
       id="path203" />
    <path
       d="M 1584.0359,84 1573.2679,102.65064 H 1551.7321 L 1540.9641,84 1551.7321,65.349365 H 1573.2679 Z"
       id="path204" />
    <path
       d="M 1537.5,90 1544.8038,102.65064 H 1530.1962 Z"
       id="path205" />
    <path
       d="M 1537.5,121.30127 1530.1962,108.65064 H 1544.8038 Z"
       id="path206" />
    <path
       d="M 1550,111.65064 1557.3038,124.30127 H 1542.6962 Z"
       id="path207" />
    <path
       d="M 1562.5,121.30127 1555.1962,108.65064 H 1569.8038 Z"
       id="path208" />
    <path
       d="M 1575,111.65064 1582.3038,124.30127 H 1567.6962 Z"
       id="path209" />
    <path
       d="M 1587.5,121.30127 1580.1962,108.65064 H 1594.8038 Z"
       id="path210" />
    <path
       d="M 1587.5,90 1594.8038,102.65064 H 1580.1962 Z"
       id="path211" />
    <path
       d="M 1600,99.650635 1592.6962,87 H 1607.3038 Z"
       id="path212" />
    <path
       d="M 1623.2679,59.349365 H 1601.7321 L 1590.9641,40.69873 1600.6051,24 H 1624.3949 L 1634.0359,40.69873 Z"
       id="path213" />
    <path
       d="M 1587.5,46.69873 1594.8038,59.349365 H 1580.1962 Z"
       id="path214" />
    <path
       d="M 1587.5,78 1580.1962,65.349365 H 1594.8038 Z"
       id="path215" />
    <path
       d="M 1600,68.349365 1607.3038,81 H 1592.6962 Z"
       id="path216" />
    <path
       d="M 1612.5,78 1605.1962,65.349365 H 1619.8038 Z"
       id="path217" />
    <path
       d="M 1625,68.349365 1632.3038,81 H 1617.6962 Z"
       id="path218" />
    <path
       d="M 1637.5,78 1630.1962,65.349365 H 1644.8038 Z"
       id="path219" />
    <path
       d="M 1637.5,46.69873 1644.8038,59.349365 H 1630.1962 Z"
       id="path220" />
    <path
       d="M 1650,56.349365 1642.6962,43.69873 H 1657.3038 Z"
       id="path221" />
    <path
       d="M 1631.3231,24 H 1643.6769 L 1637.5,34.69873 Z"
       id="path222" />
    <path
       d="M 1650,25.048095 1657.3038,37.69873 H 1642.6962 Z"
       id="path223" />
    <path
       d="M 1656.3231,24 H 1668.6769 L 1662.5,34.69873 Z"
       id="path224" />
    <path
       d="M 1675,25.048095 1682.3038,37.69873 H 1667.6962 Z"
       id="path225" />
    <path
       d="M 1681.3231,24 H 1693.6769 L 1687.5,34.69873 Z"
       id="path226" />
    <path
       d="M 1564.2321,130.30127 H 1585.7679 L 1593.6769,144 H 1556.3231 Z"
       id="path227" />
    <path
       d="M 1646.5359,105.65064 1635.7679,124.30127 H 1614.2321 L 1603.4641,105.65064 1614.2321,87 H 1635.7679 Z"
       id="path228" />
    <path
       d="M 1600,111.65064 1607.3038,124.30127 H 1592.6962 Z"
       id="path229" />
    <path
       d="M 1600,142.95191 1592.6962,130.30127 H 1607.3038 Z"
       id="path230" />
    <path
       d="M 1618.6769,144 H 1606.3231 L 1612.5,133.30127 Z"
       id="path231" />
    <path
       d="M 1625,142.95191 1617.6962,130.30127 H 1632.3038 Z"
       id="path232" />
    <path
       d="M 1643.6769,144 H 1631.3231 L 1637.5,133.30127 Z"
       id="path233" />
    <path
       d="M 1650,142.95191 1642.6962,130.30127 H 1657.3038 Z"
       id="path234" />
    <path
       d="M 1650,111.65064 1657.3038,124.30127 H 1642.6962 Z"
       id="path235" />
    <path
       d="M 1662.5,121.30127 1655.1962,108.65064 H 1669.8038 Z"
       id="path236" />
    <path
       d="M 1696.5359,62.349365 1685.7679,81 H 1664.2321 L 1653.4641,62.349365 1664.2321,43.69873 H 1685.7679 Z"
       id="path237" />
    <path
       d="M 1650,68.349365 1657.3038,81 H 1642.6962 Z"
       id="path238" />
    <path
       d="M 1650,99.650635 1642.6962,87 H 1657.3038 Z"
       id="path239" />
    <path
       d="M 1662.5,90 1669.8038,102.65064 H 1655.1962 Z"
       id="path240" />
    <path
       d="M 1675,99.650635 1667.6962,87 H 1682.3038 Z"
       id="path241" />
    <path
       d="M 1687.5,90 1694.8038,102.65064 H 1680.1962 Z"
       id="path242" />
    <path
       d="M 1700,99.650635 1692.6962,87 H 1707.3038 Z"
       id="path243" />
    <path
       d="M 1700,68.349365 1707.3038,81 H 1692.6962 Z"
       id="path244" />
    <path
       d="M 1712.5,78 1705.1962,65.349365 H 1719.8038 Z"
       id="path245" />
    <path
       d="M 1735.7679,37.69873 H 1714.2321 L 1706.3231,24 H 1743.6769 Z"
       id="path246" />
    <path
       d="M 1700,25.048095 1707.3038,37.69873 H 1692.6962 Z"
       id="path247" />
    <path
       d="M 1700,56.349365 1692.6962,43.69873 H 1707.3038 Z"
       id="path248" />
    <path
       d="M 1712.5,46.69873 1719.8038,59.349365 H 1705.1962 Z"
       id="path249" />
    <path
       d="M 1725,56.349365 1717.6962,43.69873 H 1732.3038 Z"
       id="path250" />
    <path
       d="M 1737.5,46.69873 1744.8038,59.349365 H 1730.1962 Z"
       id="path251" />
    <path
       d="M 1750,56.349365 1742.6962,43.69873 H 1757.3038 Z"
       id="path252" />
    <path
       d="M 1750,25.048095 1757.3038,37.69873 H 1742.6962 Z"
       id="path253" />
    <path
       d="M 1756.3231,24 H 1768.6769 L 1762.5,34.69873 Z"
       id="path254" />
    <path
       d="M 1699.3949,144 H 1675.6051 L 1665.9641,127.30127 1676.7321,108.65064 H 1698.2679 L 1709.0359,127.30127 Z"
       id="path255" />
    <path
       d="M 1668.6769,144 H 1656.3231 L 1662.5,133.30127 Z"
       id="path256" />
    <path
       d="M 1718.6769,144 H 1706.3231 L 1712.5,133.30127 Z"
       id="path257" />
    <path
       d="M 1725,142.95191 1717.6962,130.30127 H 1732.3038 Z"
       id="path258" />
    <path
       d="M 1759.0359,84 1748.2679,102.65064 H 1726.7321 L 1715.9641,84 1726.7321,65.349365 H 1748.2679 Z"
       id="path259" />
    <path
       d="M 1712.5,90 1719.8038,102.65064 H 1705.1962 Z"
       id="path260" />
    <path
       d="M 1712.5,121.30127 1705.1962,108.65064 H 1719.8038 Z"
       id="path261" />
    <path
       d="M 1725,111.65064 1732.3038,124.30127 H 1717.6962 Z"
       id="path262" />
    <path
       d="M 1737.5,121.30127 1730.1962,108.65064 H 1744.8038 Z"
       id="path263" />
    <path
       d="M 1750,111.65064 1757.3038,124.30127 H 1742.6962 Z"
       id="path264" />
    <path
       d="M 1762.5,121.30127 1755.1962,108.65064 H 1769.8038 Z"
       id="path265" />
    <path
       d="M 1762.5,90 1769.8038,102.65064 H 1755.1962 Z"
       id="path266" />
    <path
       d="M 1775,99.650635 1767.6962,87 H 1782.3038 Z"
       id="path267" />
    <path
       d="M 1798.2679,59.349365 H 1776.7321 L 1765.9641,40.69873 1775.6051,24 H 1799.3949 L 1800.5,25.91412 V 55.48334 Z"
       id="path268" />
    <path
       d="M 1762.5,46.69873 1769.8038,59.349365 H 1755.1962 Z"
       id="path269" />
    <path
       d="M 1762.5,78 1755.1962,65.349365 H 1769.8038 Z"
       id="path270" />
    <path
       d="M 1775,68.349365 1782.3038,81 H 1767.6962 Z"
       id="path271" />
    <path
       d="M 1787.5,78 1780.1962,65.349365 H 1794.8038 Z"
       id="path272" />
    <path
       d="M 1800.5,69.21539 V 81 H 1792.6962 L 1800,68.349365 Z"
       id="path273" />
    <path
       d="M 1739.2321,130.30127 H 1760.7679 L 1768.6769,144 H 1731.3231 Z"
       id="path274" />
    <path
       d="M 1789.2321,124.30127 1778.4641,105.65064 1789.2321,87 H 1800.5 V 124.30127 Z"
       id="path275" />
    <path
       d="M 1775,111.65064 1782.3038,124.30127 H 1767.6962 Z"
       id="path276" />
    <path
       d="M 1775,142.95191 1767.6962,130.30127 H 1782.3038 Z"
       id="path277" />
    <path
       d="M 1793.6769,144 H 1781.3231 L 1787.5,133.30127 Z"
       id="path278" />
    <path
       d="M 1792.6962,130.30127 H 1800.5 V 142.08588 L 1800,142.95191 Z"
       id="path279" />
    <path
       d="M 908.5,170 H 1816.5 V 0 H 908.5 Z"
       id="path280" />
  </g>
</svg>
