<?xml version="1.0" encoding="UTF-8" standalone="no"?>
<svg
   height="300mm"
   version="1.1"
   viewBox="0 0 1200 300"
   width="1200mm"
   id="svg197"
   sodipodi:docname="final_poly_combination.svg"
   inkscape:version="1.4.2 (1:1.4.2+202505120737+ebf0e940d0)"
   xmlns:inkscape="http://www.inkscape.org/namespaces/inkscape"
   xmlns:sodipodi="http://sodipodi.sourceforge.net/DTD/sodipodi-0.dtd"
   xmlns="http://www.w3.org/2000/svg"
   xmlns:svg="http://www.w3.org/2000/svg">
  <sodipodi:namedview
     id="namedview197"
     pagecolor="#ffffff"
     bordercolor="#666666"
     borderopacity="1.0"
     inkscape:showpageshadow="2"
     inkscape:pageopacity="0.0"
     inkscape:pagecheckerboard="0"
     inkscape:deskcolor="#d1d1d1"
     inkscape:document-units="mm"
     inkscape:zoom="0.18399566"
     inkscape:cx="1779.9333"
     inkscape:cy="994.58868"
     inkscape:window-width="1920"
     inkscape:window-height="1011"
     inkscape:window-x="0"
     inkscape:window-y="0"
     inkscape:window-maximized="1"
     inkscape:current-layer="svg197" />
  <defs
     id="defs1" />
  <g
     fill="none"
     stroke="blue"
     stroke-width="0.5"
     transform="translate(147.5,65.0)"
     id="g197"
     style="vector-effect:non-scaling-stroke;-inkscape-stroke:hairline;stroke-width:0.26458333;stroke-dasharray:none">
    <path
       d="M 32.373066958946424,143.99059892324146 L 25.759782057319807,143.99059892324146 L 16.0,127.08616052916449 L 16.0,115.63161507461905 L 32.373066958946424,143.99059892324146 Z"
       id="path1"
       style="vector-effect:non-scaling-stroke;-inkscape-stroke:hairline;stroke-width:0.26458333;stroke-dasharray:none" />
    <path
       d="M 36.373066958946424,141.681197846483 L 54.559600438419636,110.18119784648299 L 36.373066958946424,110.18119784648299 L 27.279800219209818,125.93119784648299 L 36.373066958946424,141.681197846483 Z"
       id="path2"
       style="vector-effect:non-scaling-stroke;-inkscape-stroke:hairline;stroke-width:0.26458333;stroke-dasharray:none" />
    <path
       d="M 68.74613391789285,85.6094010767585 L 32.37306695894643,85.60940107675849 L 41.46633369868303,101.3594010767585 L 59.65286717815624,101.3594010767585 L 68.74613391789285,85.6094010767585 Z"
       id="path3"
       style="vector-effect:non-scaling-stroke;-inkscape-stroke:hairline;stroke-width:0.26458333;stroke-dasharray:none" />
    <path
       d="M 22.186533479473216,117.1094010767585 L 16.0,106.39401076758503 L 16.0,94.93946531303958 L 25.493175930286526,111.38212834948577 L 22.186533479473216,117.1094010767585 Z"
       id="path4"
       style="vector-effect:non-scaling-stroke;-inkscape-stroke:hairline;stroke-width:0.26458333;stroke-dasharray:none" />
    <path
       d="M 16.124355652982143,85.6094010767585 L 22.18653347947321,85.6094010767585 L 31.279800219209818,101.3594010767585 L 28.24871130596428,106.6094010767585 L 16.124355652982143,85.6094010767585 Z"
       id="path5"
       style="vector-effect:non-scaling-stroke;-inkscape-stroke:hairline;stroke-width:0.26458333;stroke-dasharray:none" />
    <path
       d="M 36.373066958946424,24.918802153516992 L 54.559600438419636,56.41880215351701 L 36.373066958946424,56.41880215351701 L 27.279800219209818,40.66880215351699 L 36.373066958946424,24.918802153516992 Z"
       id="path6"
       style="vector-effect:non-scaling-stroke;-inkscape-stroke:hairline;stroke-width:0.26458333;stroke-dasharray:none" />
    <path
       d="M 68.74613391789285,80.99059892324149 L 32.37306695894643,80.9905989232415 L 41.46633369868303,65.24059892324149 L 59.65286717815624,65.24059892324149 L 68.74613391789285,80.99059892324149 Z"
       id="path7"
       style="vector-effect:non-scaling-stroke;-inkscape-stroke:hairline;stroke-width:0.26458333;stroke-dasharray:none" />
    <path
       d="M 22.186533479473216,49.49059892324151 L 25.493175930286526,55.217871650514226 L 16.0,71.66053468696042 L 16.0,60.20598923241498 L 22.186533479473216,49.49059892324151 Z"
       id="path8"
       style="vector-effect:non-scaling-stroke;-inkscape-stroke:hairline;stroke-width:0.26458333;stroke-dasharray:none" />
    <path
       d="M 16.124355652982143,80.99059892324149 L 22.18653347947321,80.99059892324149 L 31.279800219209818,65.24059892324149 L 28.24871130596428,59.99059892324151 L 16.124355652982143,80.99059892324149 Z"
       id="path9"
       style="vector-effect:non-scaling-stroke;-inkscape-stroke:hairline;stroke-width:0.26458333;stroke-dasharray:none" />
    <path
       d="M 72.74613391789283,78.68119784648299 L 54.55960043841963,47.18119784648299 L 72.74613391789285,47.18119784648299 L 81.83940065762945,62.93119784648299 L 72.74613391789283,78.68119784648299 Z"
       id="path10"
       style="vector-effect:non-scaling-stroke;-inkscape-stroke:hairline;stroke-width:0.26458333;stroke-dasharray:none" />
    <path
       d="M 40.373066958946424,22.609401076758502 L 76.74613391789285,22.609401076758502 L 67.65286717815624,38.3594010767585 L 49.46633369868303,38.3594010767585 L 40.373066958946424,22.609401076758502 Z"
       id="path11"
       style="vector-effect:non-scaling-stroke;-inkscape-stroke:hairline;stroke-width:0.26458333;stroke-dasharray:none" />
    <path
       d="M 83.62602494655275,48.38212834948577 L 86.93266739736606,54.1094010767585 L 105.11920087683927,22.609401076758502 L 98.50591597521266,22.609401076758502 L 83.62602494655275,48.38212834948577 Z"
       id="path12"
       style="vector-effect:non-scaling-stroke;-inkscape-stroke:hairline;stroke-width:0.26458333;stroke-dasharray:none" />
    <path
       d="M 92.99484522385714,22.609401076758502 L 86.93266739736606,22.609401076758502 L 77.83940065762945,38.3594010767585 L 80.87048957087498,43.6094010767585 L 92.99484522385714,22.609401076758502 Z"
       id="path13"
       style="vector-effect:non-scaling-stroke;-inkscape-stroke:hairline;stroke-width:0.26458333;stroke-dasharray:none" />
    <path
       d="M 25.75978205731981,22.609401076758502 L 32.373066958946424,22.609401076758502 L 16.0,50.96838492538096 L 16.0,39.51383947083551 L 25.75978205731981,22.609401076758502 Z"
       id="path14"
       style="vector-effect:non-scaling-stroke;-inkscape-stroke:hairline;stroke-width:0.26458333;stroke-dasharray:none" />
    <path
       d="M 72.74613391789283,87.918802153517 L 54.55960043841963,119.418802153517 L 72.74613391789285,119.418802153517 L 81.83940065762945,103.668802153517 L 72.74613391789283,87.918802153517 Z"
       id="path15"
       style="vector-effect:non-scaling-stroke;-inkscape-stroke:hairline;stroke-width:0.26458333;stroke-dasharray:none" />
    <path
       d="M 40.373066958946424,143.9905989232415 L 76.74613391789285,143.9905989232415 L 67.65286717815624,128.2405989232415 L 49.46633369868303,128.2405989232415 L 40.373066958946424,143.9905989232415 Z"
       id="path16"
       style="vector-effect:non-scaling-stroke;-inkscape-stroke:hairline;stroke-width:0.26458333;stroke-dasharray:none" />
    <path
       d="M 83.62602494655275,118.21787165051421 L 86.93266739736606,112.49059892324149 L 105.11920087683927,143.99059892324146 L 98.50591597521266,143.99059892324146 L 83.62602494655275,118.21787165051421 Z"
       id="path17"
       style="vector-effect:non-scaling-stroke;-inkscape-stroke:hairline;stroke-width:0.26458333;stroke-dasharray:none" />
    <path
       d="M 92.99484522385714,143.9905989232415 L 86.93266739736606,143.9905989232415 L 77.83940065762945,128.2405989232415 L 80.87048957087498,122.99059892324149 L 92.99484522385714,143.9905989232415 Z"
       id="path18"
       style="vector-effect:non-scaling-stroke;-inkscape-stroke:hairline;stroke-width:0.26458333;stroke-dasharray:none" />
    <path
       d="M 109.11920087683927,141.681197846483 L 127.30573435631248,110.18119784648299 L 109.11920087683927,110.18119784648299 L 100.02593413710267,125.93119784648299 L 109.11920087683927,141.681197846483 Z"
       id="path19"
       style="vector-effect:non-scaling-stroke;-inkscape-stroke:hairline;stroke-width:0.26458333;stroke-dasharray:none" />
    <path
       d="M 141.4922678357857,85.6094010767585 L 105.11920087683927,85.60940107675849 L 114.21246761657588,101.3594010767585 L 132.3990010960491,101.3594010767585 L 141.4922678357857,85.6094010767585 Z"
       id="path20"
       style="vector-effect:non-scaling-stroke;-inkscape-stroke:hairline;stroke-width:0.26458333;stroke-dasharray:none" />
    <path
       d="M 98.23930984817937,111.38212834948577 L 94.93266739736606,117.1094010767585 L 76.74613391789285,85.6094010767585 L 83.35941881951948,85.6094010767585 L 98.23930984817937,111.38212834948577 Z"
       id="path21"
       style="vector-effect:non-scaling-stroke;-inkscape-stroke:hairline;stroke-width:0.26458333;stroke-dasharray:none" />
    <path
       d="M 88.870489570875,85.6094010767585 L 94.93266739736606,85.6094010767585 L 104.02593413710267,101.3594010767585 L 100.99484522385713,106.6094010767585 L 88.870489570875,85.6094010767585 Z"
       id="path22"
       style="vector-effect:non-scaling-stroke;-inkscape-stroke:hairline;stroke-width:0.26458333;stroke-dasharray:none" />
    <path
       d="M 109.11920087683927,24.918802153516992 L 127.30573435631248,56.41880215351701 L 109.11920087683927,56.41880215351701 L 100.02593413710267,40.66880215351699 L 109.11920087683927,24.918802153516992 Z"
       id="path23"
       style="vector-effect:non-scaling-stroke;-inkscape-stroke:hairline;stroke-width:0.26458333;stroke-dasharray:none" />
    <path
       d="M 141.4922678357857,80.99059892324149 L 105.11920087683927,80.9905989232415 L 114.21246761657588,65.24059892324149 L 132.3990010960491,65.24059892324149 L 141.4922678357857,80.99059892324149 Z"
       id="path24"
       style="vector-effect:non-scaling-stroke;-inkscape-stroke:hairline;stroke-width:0.26458333;stroke-dasharray:none" />
    <path
       d="M 98.23930984817937,55.217871650514226 L 94.93266739736606,49.49059892324151 L 76.74613391789285,80.99059892324149 L 83.35941881951948,80.99059892324149 L 98.23930984817937,55.217871650514226 Z"
       id="path25"
       style="vector-effect:non-scaling-stroke;-inkscape-stroke:hairline;stroke-width:0.26458333;stroke-dasharray:none" />
    <path
       d="M 88.870489570875,80.99059892324149 L 94.93266739736606,80.99059892324149 L 104.02593413710267,65.24059892324149 L 100.99484522385713,59.99059892324151 L 88.870489570875,80.99059892324149 Z"
       id="path26"
       style="vector-effect:non-scaling-stroke;-inkscape-stroke:hairline;stroke-width:0.26458333;stroke-dasharray:none" />
    <path
       d="M 145.4922678357857,78.68119784648299 L 127.30573435631248,47.18119784648299 L 145.4922678357857,47.18119784648299 L 154.5855345755223,62.93119784648299 L 145.4922678357857,78.68119784648299 Z"
       id="path27"
       style="vector-effect:non-scaling-stroke;-inkscape-stroke:hairline;stroke-width:0.26458333;stroke-dasharray:none" />
    <path
       d="M 113.11920087683927,22.609401076758502 L 149.4922678357857,22.609401076758502 L 140.3990010960491,38.3594010767585 L 122.21246761657588,38.3594010767585 L 113.11920087683927,22.609401076758502 Z"
       id="path28"
       style="vector-effect:non-scaling-stroke;-inkscape-stroke:hairline;stroke-width:0.26458333;stroke-dasharray:none" />
    <path
       d="M 156.3721588644456,48.38212834948577 L 159.6788013152589,54.1094010767585 L 177.86533479473212,22.609401076758502 L 171.2520498931055,22.609401076758502 L 156.3721588644456,48.38212834948577 Z"
       id="path29"
       style="vector-effect:non-scaling-stroke;-inkscape-stroke:hairline;stroke-width:0.26458333;stroke-dasharray:none" />
    <path
       d="M 165.74097914175,22.609401076758502 L 159.6788013152589,22.609401076758502 L 150.5855345755223,38.3594010767585 L 153.61662348876783,43.6094010767585 L 165.74097914175,22.609401076758502 Z"
       id="path30"
       style="vector-effect:non-scaling-stroke;-inkscape-stroke:hairline;stroke-width:0.26458333;stroke-dasharray:none" />
    <path
       d="M 145.4922678357857,87.918802153517 L 127.30573435631248,119.418802153517 L 145.4922678357857,119.418802153517 L 154.5855345755223,103.668802153517 L 145.4922678357857,87.918802153517 Z"
       id="path31"
       style="vector-effect:non-scaling-stroke;-inkscape-stroke:hairline;stroke-width:0.26458333;stroke-dasharray:none" />
    <path
       d="M 113.11920087683927,143.9905989232415 L 149.4922678357857,143.9905989232415 L 140.3990010960491,128.2405989232415 L 122.21246761657588,128.2405989232415 L 113.11920087683927,143.9905989232415 Z"
       id="path32"
       style="vector-effect:non-scaling-stroke;-inkscape-stroke:hairline;stroke-width:0.26458333;stroke-dasharray:none" />
    <path
       d="M 156.3721588644456,118.21787165051421 L 159.6788013152589,112.49059892324149 L 177.86533479473212,143.99059892324146 L 171.2520498931055,143.99059892324146 L 156.3721588644456,118.21787165051421 Z"
       id="path33"
       style="vector-effect:non-scaling-stroke;-inkscape-stroke:hairline;stroke-width:0.26458333;stroke-dasharray:none" />
    <path
       d="M 165.74097914175,143.9905989232415 L 159.6788013152589,143.9905989232415 L 150.5855345755223,128.2405989232415 L 153.61662348876783,122.99059892324149 L 165.74097914175,143.9905989232415 Z"
       id="path34"
       style="vector-effect:non-scaling-stroke;-inkscape-stroke:hairline;stroke-width:0.26458333;stroke-dasharray:none" />
    <path
       d="M 181.86533479473212,141.681197846483 L 200.05186827420533,110.18119784648299 L 181.86533479473212,110.18119784648299 L 172.77206805499551,125.93119784648299 L 181.86533479473212,141.681197846483 Z"
       id="path35"
       style="vector-effect:non-scaling-stroke;-inkscape-stroke:hairline;stroke-width:0.26458333;stroke-dasharray:none" />
    <path
       d="M 214.23840175367854,85.6094010767585 L 177.86533479473212,85.60940107675849 L 186.95860153446873,101.3594010767585 L 205.14513501394194,101.3594010767585 L 214.23840175367854,85.6094010767585 Z"
       id="path36"
       style="vector-effect:non-scaling-stroke;-inkscape-stroke:hairline;stroke-width:0.26458333;stroke-dasharray:none" />
    <path
       d="M 170.98544376607222,111.38212834948577 L 167.6788013152589,117.1094010767585 L 149.4922678357857,85.6094010767585 L 156.10555273741232,85.6094010767585 L 170.98544376607222,111.38212834948577 Z"
       id="path37"
       style="vector-effect:non-scaling-stroke;-inkscape-stroke:hairline;stroke-width:0.26458333;stroke-dasharray:none" />
    <path
       d="M 161.61662348876783,85.6094010767585 L 167.6788013152589,85.6094010767585 L 176.77206805499551,101.3594010767585 L 173.74097914175,106.6094010767585 L 161.61662348876783,85.6094010767585 Z"
       id="path38"
       style="vector-effect:non-scaling-stroke;-inkscape-stroke:hairline;stroke-width:0.26458333;stroke-dasharray:none" />
    <path
       d="M 181.86533479473212,24.918802153516992 L 200.05186827420533,56.41880215351701 L 181.86533479473212,56.41880215351701 L 172.77206805499551,40.66880215351699 L 181.86533479473212,24.918802153516992 Z"
       id="path39"
       style="vector-effect:non-scaling-stroke;-inkscape-stroke:hairline;stroke-width:0.26458333;stroke-dasharray:none" />
    <path
       d="M 214.23840175367854,80.99059892324149 L 177.86533479473212,80.9905989232415 L 186.95860153446873,65.24059892324149 L 205.14513501394194,65.24059892324149 L 214.23840175367854,80.99059892324149 Z"
       id="path40"
       style="vector-effect:non-scaling-stroke;-inkscape-stroke:hairline;stroke-width:0.26458333;stroke-dasharray:none" />
    <path
       d="M 170.98544376607222,55.217871650514226 L 167.6788013152589,49.49059892324151 L 149.4922678357857,80.99059892324149 L 156.10555273741232,80.99059892324149 L 170.98544376607222,55.217871650514226 Z"
       id="path41"
       style="vector-effect:non-scaling-stroke;-inkscape-stroke:hairline;stroke-width:0.26458333;stroke-dasharray:none" />
    <path
       d="M 161.61662348876783,80.99059892324149 L 167.6788013152589,80.99059892324149 L 176.77206805499551,65.24059892324149 L 173.74097914175,59.99059892324151 L 161.61662348876783,80.99059892324149 Z"
       id="path42"
       style="vector-effect:non-scaling-stroke;-inkscape-stroke:hairline;stroke-width:0.26458333;stroke-dasharray:none" />
    <path
       d="M 218.23840175367854,78.68119784648299 L 200.05186827420533,47.18119784648299 L 218.23840175367854,47.18119784648299 L 227.33166849341515,62.93119784648299 L 218.23840175367854,78.68119784648299 Z"
       id="path43"
       style="vector-effect:non-scaling-stroke;-inkscape-stroke:hairline;stroke-width:0.26458333;stroke-dasharray:none" />
    <path
       d="M 185.86533479473212,22.609401076758502 L 222.23840175367854,22.609401076758502 L 213.14513501394194,38.3594010767585 L 194.95860153446873,38.3594010767585 L 185.86533479473212,22.609401076758502 Z"
       id="path44"
       style="vector-effect:non-scaling-stroke;-inkscape-stroke:hairline;stroke-width:0.26458333;stroke-dasharray:none" />
    <path
       d="M 229.11829278233844,48.38212834948577 L 232.42493523315176,54.1094010767585 L 250.61146871262497,22.609401076758502 L 243.99818381099834,22.609401076758502 L 229.11829278233844,48.38212834948577 Z"
       id="path45"
       style="vector-effect:non-scaling-stroke;-inkscape-stroke:hairline;stroke-width:0.26458333;stroke-dasharray:none" />
    <path
       d="M 238.48711305964284,22.609401076758502 L 232.42493523315176,22.609401076758502 L 223.33166849341515,38.3594010767585 L 226.36275740666068,43.6094010767585 L 238.48711305964284,22.609401076758502 Z"
       id="path46"
       style="vector-effect:non-scaling-stroke;-inkscape-stroke:hairline;stroke-width:0.26458333;stroke-dasharray:none" />
    <path
       d="M 218.23840175367854,87.918802153517 L 200.05186827420533,119.418802153517 L 218.23840175367854,119.418802153517 L 227.33166849341515,103.668802153517 L 218.23840175367854,87.918802153517 Z"
       id="path47"
       style="vector-effect:non-scaling-stroke;-inkscape-stroke:hairline;stroke-width:0.26458333;stroke-dasharray:none" />
    <path
       d="M 185.86533479473212,143.9905989232415 L 222.23840175367854,143.9905989232415 L 213.14513501394194,128.2405989232415 L 194.95860153446873,128.2405989232415 L 185.86533479473212,143.9905989232415 Z"
       id="path48"
       style="vector-effect:non-scaling-stroke;-inkscape-stroke:hairline;stroke-width:0.26458333;stroke-dasharray:none" />
    <path
       d="M 229.11829278233844,118.21787165051421 L 232.42493523315176,112.49059892324149 L 250.61146871262497,143.99059892324146 L 243.99818381099834,143.99059892324146 L 229.11829278233844,118.21787165051421 Z"
       id="path49"
       style="vector-effect:non-scaling-stroke;-inkscape-stroke:hairline;stroke-width:0.26458333;stroke-dasharray:none" />
    <path
       d="M 238.48711305964284,143.9905989232415 L 232.42493523315176,143.9905989232415 L 223.33166849341515,128.2405989232415 L 226.36275740666068,122.99059892324149 L 238.48711305964284,143.9905989232415 Z"
       id="path50"
       style="vector-effect:non-scaling-stroke;-inkscape-stroke:hairline;stroke-width:0.26458333;stroke-dasharray:none" />
    <path
       d="M 254.61146871262497,141.681197846483 L 272.7980021920982,110.18119784648299 L 254.61146871262497,110.18119784648299 L 245.51820197288836,125.93119784648299 L 254.61146871262497,141.681197846483 Z"
       id="path51"
       style="vector-effect:non-scaling-stroke;-inkscape-stroke:hairline;stroke-width:0.26458333;stroke-dasharray:none" />
    <path
       d="M 286.9845356715714,85.6094010767585 L 250.61146871262497,85.60940107675849 L 259.70473545236155,101.3594010767585 L 277.8912689318348,101.3594010767585 L 286.9845356715714,85.6094010767585 Z"
       id="path52"
       style="vector-effect:non-scaling-stroke;-inkscape-stroke:hairline;stroke-width:0.26458333;stroke-dasharray:none" />
    <path
       d="M 243.73157768396507,111.38212834948577 L 240.42493523315176,117.1094010767585 L 222.23840175367854,85.6094010767585 L 228.85168665530517,85.6094010767585 L 243.73157768396507,111.38212834948577 Z"
       id="path53"
       style="vector-effect:non-scaling-stroke;-inkscape-stroke:hairline;stroke-width:0.26458333;stroke-dasharray:none" />
    <path
       d="M 234.36275740666068,85.6094010767585 L 240.42493523315176,85.6094010767585 L 249.51820197288836,101.3594010767585 L 246.48711305964284,106.6094010767585 L 234.36275740666068,85.6094010767585 Z"
       id="path54"
       style="vector-effect:non-scaling-stroke;-inkscape-stroke:hairline;stroke-width:0.26458333;stroke-dasharray:none" />
    <path
       d="M 254.61146871262497,24.918802153516992 L 272.7980021920982,56.41880215351701 L 254.61146871262497,56.41880215351701 L 245.51820197288836,40.66880215351699 L 254.61146871262497,24.918802153516992 Z"
       id="path55"
       style="vector-effect:non-scaling-stroke;-inkscape-stroke:hairline;stroke-width:0.26458333;stroke-dasharray:none" />
    <path
       d="M 286.9845356715714,80.99059892324149 L 250.61146871262497,80.9905989232415 L 259.70473545236155,65.24059892324149 L 277.8912689318348,65.24059892324149 L 286.9845356715714,80.99059892324149 Z"
       id="path56"
       style="vector-effect:non-scaling-stroke;-inkscape-stroke:hairline;stroke-width:0.26458333;stroke-dasharray:none" />
    <path
       d="M 243.73157768396507,55.217871650514226 L 240.42493523315176,49.49059892324151 L 222.23840175367854,80.99059892324149 L 228.85168665530517,80.99059892324149 L 243.73157768396507,55.217871650514226 Z"
       id="path57"
       style="vector-effect:non-scaling-stroke;-inkscape-stroke:hairline;stroke-width:0.26458333;stroke-dasharray:none" />
    <path
       d="M 234.36275740666068,80.99059892324149 L 240.42493523315176,80.99059892324149 L 249.51820197288836,65.24059892324149 L 246.48711305964284,59.99059892324151 L 234.36275740666068,80.99059892324149 Z"
       id="path58"
       style="vector-effect:non-scaling-stroke;-inkscape-stroke:hairline;stroke-width:0.26458333;stroke-dasharray:none" />
    <path
       d="M 290.9845356715714,78.68119784648299 L 272.7980021920982,47.18119784648299 L 290.9845356715714,47.18119784648299 L 300.07780241130797,62.93119784648299 L 290.9845356715714,78.68119784648299 Z"
       id="path59"
       style="vector-effect:non-scaling-stroke;-inkscape-stroke:hairline;stroke-width:0.26458333;stroke-dasharray:none" />
    <path
       d="M 258.61146871262497,22.609401076758502 L 294.9845356715714,22.609401076758502 L 285.8912689318348,38.3594010767585 L 267.70473545236155,38.3594010767585 L 258.61146871262497,22.609401076758502 Z"
       id="path60"
       style="vector-effect:non-scaling-stroke;-inkscape-stroke:hairline;stroke-width:0.26458333;stroke-dasharray:none" />
    <path
       d="M 301.8644267002313,48.38212834948577 L 305.1710691510446,54.1094010767585 L 323.3576026305178,22.609401076758502 L 316.7443177288912,22.609401076758502 L 301.8644267002313,48.38212834948577 Z"
       id="path61"
       style="vector-effect:non-scaling-stroke;-inkscape-stroke:hairline;stroke-width:0.26458333;stroke-dasharray:none" />
    <path
       d="M 311.2332469775357,22.609401076758502 L 305.1710691510446,22.609401076758502 L 296.07780241130797,38.3594010767585 L 299.1088913245535,43.6094010767585 L 311.2332469775357,22.609401076758502 Z"
       id="path62"
       style="vector-effect:non-scaling-stroke;-inkscape-stroke:hairline;stroke-width:0.26458333;stroke-dasharray:none" />
    <path
       d="M 290.9845356715714,87.918802153517 L 272.7980021920982,119.418802153517 L 290.9845356715714,119.418802153517 L 300.07780241130797,103.668802153517 L 290.9845356715714,87.918802153517 Z"
       id="path63"
       style="vector-effect:non-scaling-stroke;-inkscape-stroke:hairline;stroke-width:0.26458333;stroke-dasharray:none" />
    <path
       d="M 258.61146871262497,143.9905989232415 L 294.9845356715714,143.9905989232415 L 285.8912689318348,128.2405989232415 L 267.70473545236155,128.2405989232415 L 258.61146871262497,143.9905989232415 Z"
       id="path64"
       style="vector-effect:non-scaling-stroke;-inkscape-stroke:hairline;stroke-width:0.26458333;stroke-dasharray:none" />
    <path
       d="M 301.8644267002313,118.21787165051421 L 305.1710691510446,112.49059892324149 L 323.3576026305178,143.99059892324146 L 316.7443177288912,143.99059892324146 L 301.8644267002313,118.21787165051421 Z"
       id="path65"
       style="vector-effect:non-scaling-stroke;-inkscape-stroke:hairline;stroke-width:0.26458333;stroke-dasharray:none" />
    <path
       d="M 311.23324697753566,143.9905989232415 L 305.1710691510446,143.9905989232415 L 296.077802411308,128.2405989232415 L 299.10889132455355,122.99059892324149 L 311.23324697753566,143.9905989232415 Z"
       id="path66"
       style="vector-effect:non-scaling-stroke;-inkscape-stroke:hairline;stroke-width:0.26458333;stroke-dasharray:none" />
    <path
       d="M 327.3576026305178,141.681197846483 L 345.54413610999103,110.18119784648299 L 327.3576026305178,110.18119784648299 L 318.26433589078124,125.93119784648299 L 327.3576026305178,141.681197846483 Z"
       id="path67"
       style="vector-effect:non-scaling-stroke;-inkscape-stroke:hairline;stroke-width:0.26458333;stroke-dasharray:none" />
    <path
       d="M 359.73066958946424,85.6094010767585 L 323.3576026305178,85.60940107675849 L 332.4508693702544,101.3594010767585 L 350.63740284972766,101.3594010767585 L 359.73066958946424,85.6094010767585 Z"
       id="path68"
       style="vector-effect:non-scaling-stroke;-inkscape-stroke:hairline;stroke-width:0.26458333;stroke-dasharray:none" />
    <path
       d="M 316.4777116018579,111.38212834948577 L 313.1710691510446,117.1094010767585 L 294.9845356715714,85.6094010767585 L 301.597820573198,85.6094010767585 L 316.4777116018579,111.38212834948577 Z"
       id="path69"
       style="vector-effect:non-scaling-stroke;-inkscape-stroke:hairline;stroke-width:0.26458333;stroke-dasharray:none" />
    <path
       d="M 307.10889132455355,85.6094010767585 L 313.1710691510446,85.6094010767585 L 322.26433589078124,101.3594010767585 L 319.23324697753566,106.6094010767585 L 307.10889132455355,85.6094010767585 Z"
       id="path70"
       style="vector-effect:non-scaling-stroke;-inkscape-stroke:hairline;stroke-width:0.26458333;stroke-dasharray:none" />
    <path
       d="M 327.3576026305178,24.918802153516992 L 345.54413610999103,56.41880215351701 L 327.3576026305178,56.41880215351701 L 318.26433589078124,40.66880215351699 L 327.3576026305178,24.918802153516992 Z"
       id="path71"
       style="vector-effect:non-scaling-stroke;-inkscape-stroke:hairline;stroke-width:0.26458333;stroke-dasharray:none" />
    <path
       d="M 359.73066958946424,80.99059892324149 L 323.3576026305178,80.9905989232415 L 332.4508693702544,65.24059892324149 L 350.63740284972766,65.24059892324149 L 359.73066958946424,80.99059892324149 Z"
       id="path72"
       style="vector-effect:non-scaling-stroke;-inkscape-stroke:hairline;stroke-width:0.26458333;stroke-dasharray:none" />
    <path
       d="M 316.4777116018579,55.217871650514226 L 313.1710691510446,49.49059892324151 L 294.9845356715714,80.99059892324149 L 301.597820573198,80.99059892324149 L 316.4777116018579,55.217871650514226 Z"
       id="path73"
       style="vector-effect:non-scaling-stroke;-inkscape-stroke:hairline;stroke-width:0.26458333;stroke-dasharray:none" />
    <path
       d="M 307.10889132455355,80.99059892324149 L 313.1710691510446,80.99059892324149 L 322.26433589078124,65.24059892324149 L 319.23324697753566,59.99059892324151 L 307.10889132455355,80.99059892324149 Z"
       id="path74"
       style="vector-effect:non-scaling-stroke;-inkscape-stroke:hairline;stroke-width:0.26458333;stroke-dasharray:none" />
    <path
       d="M 363.73066958946424,78.68119784648299 L 345.54413610999103,47.18119784648299 L 363.73066958946424,47.18119784648299 L 372.8239363292008,62.93119784648299 L 363.73066958946424,78.68119784648299 Z"
       id="path75"
       style="vector-effect:non-scaling-stroke;-inkscape-stroke:hairline;stroke-width:0.26458333;stroke-dasharray:none" />
    <path
       d="M 331.3576026305178,22.609401076758502 L 367.73066958946424,22.609401076758502 L 358.63740284972766,38.3594010767585 L 340.4508693702544,38.3594010767585 L 331.3576026305178,22.609401076758502 Z"
       id="path76"
       style="vector-effect:non-scaling-stroke;-inkscape-stroke:hairline;stroke-width:0.26458333;stroke-dasharray:none" />
    <path
       d="M 374.61056061812417,48.38212834948577 L 377.91720306893745,54.1094010767585 L 396.10373654841067,22.609401076758502 L 389.49045164678404,22.609401076758502 L 374.61056061812417,48.38212834948577 Z"
       id="path77"
       style="vector-effect:non-scaling-stroke;-inkscape-stroke:hairline;stroke-width:0.26458333;stroke-dasharray:none" />
    <path
       d="M 383.97938089542856,22.609401076758502 L 377.91720306893745,22.609401076758502 L 368.8239363292008,38.3594010767585 L 371.85502524244635,43.6094010767585 L 383.97938089542856,22.609401076758502 Z"
       id="path78"
       style="vector-effect:non-scaling-stroke;-inkscape-stroke:hairline;stroke-width:0.26458333;stroke-dasharray:none" />
    <path
       d="M 363.73066958946424,87.918802153517 L 345.54413610999103,119.418802153517 L 363.73066958946424,119.418802153517 L 372.8239363292008,103.668802153517 L 363.73066958946424,87.918802153517 Z"
       id="path79"
       style="vector-effect:non-scaling-stroke;-inkscape-stroke:hairline;stroke-width:0.26458333;stroke-dasharray:none" />
    <path
       d="M 331.3576026305178,143.9905989232415 L 367.73066958946424,143.9905989232415 L 358.63740284972766,128.2405989232415 L 340.4508693702544,128.2405989232415 L 331.3576026305178,143.9905989232415 Z"
       id="path80"
       style="vector-effect:non-scaling-stroke;-inkscape-stroke:hairline;stroke-width:0.26458333;stroke-dasharray:none" />
    <path
       d="M 374.61056061812417,118.21787165051421 L 377.91720306893745,112.49059892324149 L 396.10373654841067,143.99059892324146 L 389.49045164678404,143.99059892324146 L 374.61056061812417,118.21787165051421 Z"
       id="path81"
       style="vector-effect:non-scaling-stroke;-inkscape-stroke:hairline;stroke-width:0.26458333;stroke-dasharray:none" />
    <path
       d="M 383.9793808954285,143.9905989232415 L 377.91720306893745,143.9905989232415 L 368.8239363292009,128.2405989232415 L 371.8550252424464,122.99059892324149 L 383.9793808954285,143.9905989232415 Z"
       id="path82"
       style="vector-effect:non-scaling-stroke;-inkscape-stroke:hairline;stroke-width:0.26458333;stroke-dasharray:none" />
    <path
       d="M 400.10373654841067,141.681197846483 L 418.2902700278839,110.18119784648299 L 400.10373654841067,110.18119784648299 L 391.0104698086741,125.93119784648299 L 400.10373654841067,141.681197846483 Z"
       id="path83"
       style="vector-effect:non-scaling-stroke;-inkscape-stroke:hairline;stroke-width:0.26458333;stroke-dasharray:none" />
    <path
       d="M 432.4768035073571,85.6094010767585 L 396.10373654841067,85.60940107675849 L 405.19700328814724,101.3594010767585 L 423.3835367676205,101.3594010767585 L 432.4768035073571,85.6094010767585 Z"
       id="path84"
       style="vector-effect:non-scaling-stroke;-inkscape-stroke:hairline;stroke-width:0.26458333;stroke-dasharray:none" />
    <path
       d="M 389.22384551975074,111.38212834948577 L 385.91720306893745,117.1094010767585 L 367.73066958946424,85.6094010767585 L 374.34395449109087,85.6094010767585 L 389.22384551975074,111.38212834948577 Z"
       id="path85"
       style="vector-effect:non-scaling-stroke;-inkscape-stroke:hairline;stroke-width:0.26458333;stroke-dasharray:none" />
    <path
       d="M 379.8550252424464,85.6094010767585 L 385.91720306893745,85.6094010767585 L 395.0104698086741,101.3594010767585 L 391.9793808954285,106.6094010767585 L 379.8550252424464,85.6094010767585 Z"
       id="path86"
       style="vector-effect:non-scaling-stroke;-inkscape-stroke:hairline;stroke-width:0.26458333;stroke-dasharray:none" />
    <path
       d="M 400.10373654841067,24.918802153516992 L 418.2902700278839,56.41880215351701 L 400.10373654841067,56.41880215351701 L 391.0104698086741,40.66880215351699 L 400.10373654841067,24.918802153516992 Z"
       id="path87"
       style="vector-effect:non-scaling-stroke;-inkscape-stroke:hairline;stroke-width:0.26458333;stroke-dasharray:none" />
    <path
       d="M 432.4768035073571,80.99059892324149 L 396.10373654841067,80.9905989232415 L 405.19700328814724,65.24059892324149 L 423.3835367676205,65.24059892324149 L 432.4768035073571,80.99059892324149 Z"
       id="path88"
       style="vector-effect:non-scaling-stroke;-inkscape-stroke:hairline;stroke-width:0.26458333;stroke-dasharray:none" />
    <path
       d="M 389.22384551975074,55.217871650514226 L 385.91720306893745,49.49059892324151 L 367.73066958946424,80.99059892324149 L 374.34395449109087,80.99059892324149 L 389.22384551975074,55.217871650514226 Z"
       id="path89"
       style="vector-effect:non-scaling-stroke;-inkscape-stroke:hairline;stroke-width:0.26458333;stroke-dasharray:none" />
    <path
       d="M 379.8550252424464,80.99059892324149 L 385.91720306893745,80.99059892324149 L 395.0104698086741,65.24059892324149 L 391.9793808954285,59.99059892324151 L 379.8550252424464,80.99059892324149 Z"
       id="path90"
       style="vector-effect:non-scaling-stroke;-inkscape-stroke:hairline;stroke-width:0.26458333;stroke-dasharray:none" />
    <path
       d="M 436.4768035073571,78.68119784648299 L 418.2902700278839,47.18119784648299 L 436.4768035073571,47.18119784648299 L 445.57007024709367,62.93119784648299 L 436.4768035073571,78.68119784648299 Z"
       id="path91"
       style="vector-effect:non-scaling-stroke;-inkscape-stroke:hairline;stroke-width:0.26458333;stroke-dasharray:none" />
    <path
       d="M 404.10373654841067,22.609401076758502 L 440.4768035073571,22.609401076758502 L 431.3835367676205,38.3594010767585 L 413.19700328814724,38.3594010767585 L 404.10373654841067,22.609401076758502 Z"
       id="path92"
       style="vector-effect:non-scaling-stroke;-inkscape-stroke:hairline;stroke-width:0.26458333;stroke-dasharray:none" />
    <path
       d="M 447.356694536017,48.38212834948577 L 450.6633369868303,54.1094010767585 L 468.8498704663035,22.609401076758502 L 462.2365855646769,22.609401076758502 L 447.356694536017,48.38212834948577 Z"
       id="path93"
       style="vector-effect:non-scaling-stroke;-inkscape-stroke:hairline;stroke-width:0.26458333;stroke-dasharray:none" />
    <path
       d="M 456.7255148133214,22.609401076758502 L 450.6633369868303,22.609401076758502 L 441.57007024709367,38.3594010767585 L 444.6011591603392,43.6094010767585 L 456.7255148133214,22.609401076758502 Z"
       id="path94"
       style="vector-effect:non-scaling-stroke;-inkscape-stroke:hairline;stroke-width:0.26458333;stroke-dasharray:none" />
    <path
       d="M 436.4768035073571,87.918802153517 L 418.2902700278839,119.418802153517 L 436.4768035073571,119.418802153517 L 445.57007024709367,103.668802153517 L 436.4768035073571,87.918802153517 Z"
       id="path95"
       style="vector-effect:non-scaling-stroke;-inkscape-stroke:hairline;stroke-width:0.26458333;stroke-dasharray:none" />
    <path
       d="M 404.10373654841067,143.9905989232415 L 440.4768035073571,143.9905989232415 L 431.3835367676205,128.2405989232415 L 413.19700328814724,128.2405989232415 L 404.10373654841067,143.9905989232415 Z"
       id="path96"
       style="vector-effect:non-scaling-stroke;-inkscape-stroke:hairline;stroke-width:0.26458333;stroke-dasharray:none" />
    <path
       d="M 447.356694536017,118.21787165051421 L 450.6633369868303,112.49059892324149 L 468.8498704663035,143.99059892324146 L 462.2365855646769,143.99059892324146 L 447.356694536017,118.21787165051421 Z"
       id="path97"
       style="vector-effect:non-scaling-stroke;-inkscape-stroke:hairline;stroke-width:0.26458333;stroke-dasharray:none" />
    <path
       d="M 456.72551481332135,143.9905989232415 L 450.6633369868303,143.9905989232415 L 441.5700702470937,128.2405989232415 L 444.60115916033925,122.99059892324149 L 456.72551481332135,143.9905989232415 Z"
       id="path98"
       style="vector-effect:non-scaling-stroke;-inkscape-stroke:hairline;stroke-width:0.26458333;stroke-dasharray:none" />
    <path
       d="M 472.8498704663035,141.681197846483 L 491.0364039457767,110.18119784648299 L 472.8498704663035,110.18119784648299 L 463.75660372656694,125.93119784648299 L 472.8498704663035,141.681197846483 Z"
       id="path99"
       style="vector-effect:non-scaling-stroke;-inkscape-stroke:hairline;stroke-width:0.26458333;stroke-dasharray:none" />
    <path
       d="M 505.22293742524994,85.6094010767585 L 468.8498704663035,85.60940107675849 L 477.9431372060401,101.3594010767585 L 496.12967068551336,101.3594010767585 L 505.22293742524994,85.6094010767585 Z"
       id="path100"
       style="vector-effect:non-scaling-stroke;-inkscape-stroke:hairline;stroke-width:0.26458333;stroke-dasharray:none" />
    <path
       d="M 461.9699794376436,111.38212834948577 L 458.6633369868303,117.1094010767585 L 440.4768035073571,85.6094010767585 L 447.0900884089837,85.6094010767585 L 461.9699794376436,111.38212834948577 Z"
       id="path101"
       style="vector-effect:non-scaling-stroke;-inkscape-stroke:hairline;stroke-width:0.26458333;stroke-dasharray:none" />
    <path
       d="M 452.60115916033925,85.6094010767585 L 458.6633369868303,85.6094010767585 L 467.75660372656694,101.3594010767585 L 464.72551481332135,106.6094010767585 L 452.60115916033925,85.6094010767585 Z"
       id="path102"
       style="vector-effect:non-scaling-stroke;-inkscape-stroke:hairline;stroke-width:0.26458333;stroke-dasharray:none" />
    <path
       d="M 472.8498704663035,24.918802153516992 L 491.0364039457767,56.41880215351701 L 472.8498704663035,56.41880215351701 L 463.75660372656694,40.66880215351699 L 472.8498704663035,24.918802153516992 Z"
       id="path103"
       style="vector-effect:non-scaling-stroke;-inkscape-stroke:hairline;stroke-width:0.26458333;stroke-dasharray:none" />
    <path
       d="M 505.22293742524994,80.99059892324149 L 468.8498704663035,80.9905989232415 L 477.9431372060401,65.24059892324149 L 496.12967068551336,65.24059892324149 L 505.22293742524994,80.99059892324149 Z"
       id="path104"
       style="vector-effect:non-scaling-stroke;-inkscape-stroke:hairline;stroke-width:0.26458333;stroke-dasharray:none" />
    <path
       d="M 461.9699794376436,55.217871650514226 L 458.6633369868303,49.49059892324151 L 440.4768035073571,80.99059892324149 L 447.0900884089837,80.99059892324149 L 461.9699794376436,55.217871650514226 Z"
       id="path105"
       style="vector-effect:non-scaling-stroke;-inkscape-stroke:hairline;stroke-width:0.26458333;stroke-dasharray:none" />
    <path
       d="M 452.60115916033925,80.99059892324149 L 458.6633369868303,80.99059892324149 L 467.75660372656694,65.24059892324149 L 464.72551481332135,59.99059892324151 L 452.60115916033925,80.99059892324149 Z"
       id="path106"
       style="vector-effect:non-scaling-stroke;-inkscape-stroke:hairline;stroke-width:0.26458333;stroke-dasharray:none" />
    <path
       d="M 509.22293742524994,78.68119784648299 L 491.0364039457767,47.18119784648299 L 509.22293742524994,47.18119784648299 L 518.3162041649865,62.93119784648299 L 509.22293742524994,78.68119784648299 Z"
       id="path107"
       style="vector-effect:non-scaling-stroke;-inkscape-stroke:hairline;stroke-width:0.26458333;stroke-dasharray:none" />
    <path
       d="M 476.8498704663035,22.609401076758502 L 513.2229374252499,22.609401076758502 L 504.12967068551336,38.3594010767585 L 485.9431372060401,38.3594010767585 L 476.8498704663035,22.609401076758502 Z"
       id="path108"
       style="vector-effect:non-scaling-stroke;-inkscape-stroke:hairline;stroke-width:0.26458333;stroke-dasharray:none" />
    <path
       d="M 520.1028284539099,48.38212834948577 L 523.4094709047231,54.1094010767585 L 541.5960043841964,22.609401076758502 L 534.9827194825698,22.609401076758502 L 520.1028284539099,48.38212834948577 Z"
       id="path109"
       style="vector-effect:non-scaling-stroke;-inkscape-stroke:hairline;stroke-width:0.26458333;stroke-dasharray:none" />
    <path
       d="M 529.4716487312143,22.609401076758502 L 523.4094709047231,22.609401076758502 L 514.3162041649865,38.3594010767585 L 517.347293078232,43.6094010767585 L 529.4716487312143,22.609401076758502 Z"
       id="path110"
       style="vector-effect:non-scaling-stroke;-inkscape-stroke:hairline;stroke-width:0.26458333;stroke-dasharray:none" />
    <path
       d="M 509.22293742524994,87.918802153517 L 491.0364039457767,119.418802153517 L 509.22293742524994,119.418802153517 L 518.3162041649865,103.668802153517 L 509.22293742524994,87.918802153517 Z"
       id="path111"
       style="vector-effect:non-scaling-stroke;-inkscape-stroke:hairline;stroke-width:0.26458333;stroke-dasharray:none" />
    <path
       d="M 476.8498704663035,143.9905989232415 L 513.2229374252499,143.9905989232415 L 504.12967068551336,128.2405989232415 L 485.9431372060401,128.2405989232415 L 476.8498704663035,143.9905989232415 Z"
       id="path112"
       style="vector-effect:non-scaling-stroke;-inkscape-stroke:hairline;stroke-width:0.26458333;stroke-dasharray:none" />
    <path
       d="M 520.1028284539099,118.21787165051421 L 523.4094709047231,112.49059892324149 L 541.5960043841964,143.99059892324146 L 534.9827194825698,143.99059892324146 L 520.1028284539099,118.21787165051421 Z"
       id="path113"
       style="vector-effect:non-scaling-stroke;-inkscape-stroke:hairline;stroke-width:0.26458333;stroke-dasharray:none" />
    <path
       d="M 529.4716487312143,143.9905989232415 L 523.4094709047232,143.9905989232415 L 514.3162041649865,128.2405989232415 L 517.347293078232,122.99059892324149 L 529.4716487312143,143.9905989232415 Z"
       id="path114"
       style="vector-effect:non-scaling-stroke;-inkscape-stroke:hairline;stroke-width:0.26458333;stroke-dasharray:none" />
    <path
       d="M 545.5960043841964,141.681197846483 L 563.7825378636696,110.18119784648299 L 545.5960043841964,110.18119784648299 L 536.5027376444598,125.93119784648299 L 545.5960043841964,141.681197846483 Z"
       id="path115"
       style="vector-effect:non-scaling-stroke;-inkscape-stroke:hairline;stroke-width:0.26458333;stroke-dasharray:none" />
    <path
       d="M 577.9690713431428,85.6094010767585 L 541.5960043841964,85.60940107675849 L 550.6892711239329,101.3594010767585 L 568.8758046034062,101.3594010767585 L 577.9690713431428,85.6094010767585 Z"
       id="path116"
       style="vector-effect:non-scaling-stroke;-inkscape-stroke:hairline;stroke-width:0.26458333;stroke-dasharray:none" />
    <path
       d="M 534.7161133555364,111.38212834948577 L 531.4094709047232,117.1094010767585 L 513.2229374252499,85.6094010767585 L 519.8362223268765,85.6094010767585 L 534.7161133555364,111.38212834948577 Z"
       id="path117"
       style="vector-effect:non-scaling-stroke;-inkscape-stroke:hairline;stroke-width:0.26458333;stroke-dasharray:none" />
    <path
       d="M 525.347293078232,85.6094010767585 L 531.4094709047231,85.6094010767585 L 540.5027376444598,101.3594010767585 L 537.4716487312143,106.6094010767585 L 525.347293078232,85.6094010767585 Z"
       id="path118"
       style="vector-effect:non-scaling-stroke;-inkscape-stroke:hairline;stroke-width:0.26458333;stroke-dasharray:none" />
    <path
       d="M 545.5960043841964,24.918802153516992 L 563.7825378636696,56.41880215351701 L 545.5960043841964,56.41880215351701 L 536.5027376444598,40.66880215351699 L 545.5960043841964,24.918802153516992 Z"
       id="path119"
       style="vector-effect:non-scaling-stroke;-inkscape-stroke:hairline;stroke-width:0.26458333;stroke-dasharray:none" />
    <path
       d="M 577.9690713431428,80.99059892324149 L 541.5960043841964,80.9905989232415 L 550.6892711239329,65.24059892324149 L 568.8758046034062,65.24059892324149 L 577.9690713431428,80.99059892324149 Z"
       id="path120"
       style="vector-effect:non-scaling-stroke;-inkscape-stroke:hairline;stroke-width:0.26458333;stroke-dasharray:none" />
    <path
       d="M 534.7161133555364,55.217871650514226 L 531.4094709047232,49.49059892324151 L 513.2229374252499,80.99059892324149 L 519.8362223268765,80.99059892324149 L 534.7161133555364,55.217871650514226 Z"
       id="path121"
       style="vector-effect:non-scaling-stroke;-inkscape-stroke:hairline;stroke-width:0.26458333;stroke-dasharray:none" />
    <path
       d="M 525.347293078232,80.99059892324149 L 531.4094709047231,80.99059892324149 L 540.5027376444598,65.24059892324149 L 537.4716487312143,59.99059892324151 L 525.347293078232,80.99059892324149 Z"
       id="path122"
       style="vector-effect:non-scaling-stroke;-inkscape-stroke:hairline;stroke-width:0.26458333;stroke-dasharray:none" />
    <path
       d="M 581.9690713431428,78.68119784648299 L 563.7825378636695,47.18119784648299 L 581.9690713431428,47.18119784648299 L 591.0623380828794,62.93119784648299 L 581.9690713431428,78.68119784648299 Z"
       id="path123"
       style="vector-effect:non-scaling-stroke;-inkscape-stroke:hairline;stroke-width:0.26458333;stroke-dasharray:none" />
    <path
       d="M 549.5960043841964,22.609401076758502 L 585.9690713431428,22.609401076758502 L 576.8758046034062,38.3594010767585 L 558.6892711239329,38.3594010767585 L 549.5960043841964,22.609401076758502 Z"
       id="path124"
       style="vector-effect:non-scaling-stroke;-inkscape-stroke:hairline;stroke-width:0.26458333;stroke-dasharray:none" />
    <path
       d="M 592.8489623718027,48.38212834948577 L 596.1556048226159,54.1094010767585 L 614.3421383020892,22.609401076758502 L 607.7288534004626,22.609401076758502 L 592.8489623718027,48.38212834948577 Z"
       id="path125"
       style="vector-effect:non-scaling-stroke;-inkscape-stroke:hairline;stroke-width:0.26458333;stroke-dasharray:none" />
    <path
       d="M 602.2177826491071,22.609401076758502 L 596.1556048226159,22.609401076758502 L 587.0623380828794,38.3594010767585 L 590.0934269961249,43.6094010767585 L 602.2177826491071,22.609401076758502 Z"
       id="path126"
       style="vector-effect:non-scaling-stroke;-inkscape-stroke:hairline;stroke-width:0.26458333;stroke-dasharray:none" />
    <path
       d="M 581.9690713431428,87.918802153517 L 563.7825378636695,119.418802153517 L 581.9690713431428,119.418802153517 L 591.0623380828794,103.668802153517 L 581.9690713431428,87.918802153517 Z"
       id="path127"
       style="vector-effect:non-scaling-stroke;-inkscape-stroke:hairline;stroke-width:0.26458333;stroke-dasharray:none" />
    <path
       d="M 549.5960043841964,143.9905989232415 L 585.9690713431428,143.9905989232415 L 576.8758046034062,128.2405989232415 L 558.6892711239329,128.2405989232415 L 549.5960043841964,143.9905989232415 Z"
       id="path128"
       style="vector-effect:non-scaling-stroke;-inkscape-stroke:hairline;stroke-width:0.26458333;stroke-dasharray:none" />
    <path
       d="M 592.8489623718027,118.21787165051421 L 596.1556048226159,112.49059892324149 L 614.3421383020892,143.99059892324146 L 607.7288534004626,143.99059892324146 L 592.8489623718027,118.21787165051421 Z"
       id="path129"
       style="vector-effect:non-scaling-stroke;-inkscape-stroke:hairline;stroke-width:0.26458333;stroke-dasharray:none" />
    <path
       d="M 602.2177826491071,143.9905989232415 L 596.155604822616,143.9905989232415 L 587.0623380828794,128.2405989232415 L 590.0934269961249,122.99059892324149 L 602.2177826491071,143.9905989232415 Z"
       id="path130"
       style="vector-effect:non-scaling-stroke;-inkscape-stroke:hairline;stroke-width:0.26458333;stroke-dasharray:none" />
    <path
       d="M 618.3421383020892,141.681197846483 L 636.5286717815625,110.18119784648299 L 618.3421383020892,110.18119784648299 L 609.2488715623526,125.93119784648299 L 618.3421383020892,141.681197846483 Z"
       id="path131"
       style="vector-effect:non-scaling-stroke;-inkscape-stroke:hairline;stroke-width:0.26458333;stroke-dasharray:none" />
    <path
       d="M 650.7152052610356,85.6094010767585 L 614.3421383020892,85.60940107675849 L 623.4354050418258,101.3594010767585 L 641.6219385212991,101.3594010767585 L 650.7152052610356,85.6094010767585 Z"
       id="path132"
       style="vector-effect:non-scaling-stroke;-inkscape-stroke:hairline;stroke-width:0.26458333;stroke-dasharray:none" />
    <path
       d="M 607.4622472734293,111.38212834948577 L 604.155604822616,117.1094010767585 L 585.9690713431428,85.6094010767585 L 592.5823562447694,85.6094010767585 L 607.4622472734293,111.38212834948577 Z"
       id="path133"
       style="vector-effect:non-scaling-stroke;-inkscape-stroke:hairline;stroke-width:0.26458333;stroke-dasharray:none" />
    <path
       d="M 598.0934269961249,85.6094010767585 L 604.1556048226159,85.6094010767585 L 613.2488715623526,101.3594010767585 L 610.2177826491071,106.6094010767585 L 598.0934269961249,85.6094010767585 Z"
       id="path134"
       style="vector-effect:non-scaling-stroke;-inkscape-stroke:hairline;stroke-width:0.26458333;stroke-dasharray:none" />
    <path
       d="M 618.3421383020892,24.918802153516992 L 636.5286717815625,56.41880215351701 L 618.3421383020892,56.41880215351701 L 609.2488715623526,40.66880215351699 L 618.3421383020892,24.918802153516992 Z"
       id="path135"
       style="vector-effect:non-scaling-stroke;-inkscape-stroke:hairline;stroke-width:0.26458333;stroke-dasharray:none" />
    <path
       d="M 650.7152052610356,80.99059892324149 L 614.3421383020892,80.9905989232415 L 623.4354050418258,65.24059892324149 L 641.6219385212991,65.24059892324149 L 650.7152052610356,80.99059892324149 Z"
       id="path136"
       style="vector-effect:non-scaling-stroke;-inkscape-stroke:hairline;stroke-width:0.26458333;stroke-dasharray:none" />
    <path
       d="M 607.4622472734293,55.217871650514226 L 604.155604822616,49.49059892324151 L 585.9690713431428,80.99059892324149 L 592.5823562447694,80.99059892324149 L 607.4622472734293,55.217871650514226 Z"
       id="path137"
       style="vector-effect:non-scaling-stroke;-inkscape-stroke:hairline;stroke-width:0.26458333;stroke-dasharray:none" />
    <path
       d="M 598.0934269961249,80.99059892324149 L 604.1556048226159,80.99059892324149 L 613.2488715623526,65.24059892324149 L 610.2177826491071,59.99059892324151 L 598.0934269961249,80.99059892324149 Z"
       id="path138"
       style="vector-effect:non-scaling-stroke;-inkscape-stroke:hairline;stroke-width:0.26458333;stroke-dasharray:none" />
    <path
       d="M 654.7152052610356,78.68119784648299 L 636.5286717815624,47.18119784648299 L 654.7152052610356,47.18119784648299 L 663.8084720007722,62.93119784648299 L 654.7152052610356,78.68119784648299 Z"
       id="path139"
       style="vector-effect:non-scaling-stroke;-inkscape-stroke:hairline;stroke-width:0.26458333;stroke-dasharray:none" />
    <path
       d="M 622.3421383020892,22.609401076758502 L 658.7152052610356,22.609401076758502 L 649.6219385212991,38.3594010767585 L 631.4354050418258,38.3594010767585 L 622.3421383020892,22.609401076758502 Z"
       id="path140"
       style="vector-effect:non-scaling-stroke;-inkscape-stroke:hairline;stroke-width:0.26458333;stroke-dasharray:none" />
    <path
       d="M 665.5950962896956,48.38212834948577 L 668.9017387405088,54.1094010767585 L 687.0882722199821,22.609401076758502 L 680.4749873183555,22.609401076758502 L 665.5950962896956,48.38212834948577 Z"
       id="path141"
       style="vector-effect:non-scaling-stroke;-inkscape-stroke:hairline;stroke-width:0.26458333;stroke-dasharray:none" />
    <path
       d="M 674.963916567,22.609401076758502 L 668.9017387405088,22.609401076758502 L 659.8084720007722,38.3594010767585 L 662.8395609140177,43.6094010767585 L 674.963916567,22.609401076758502 Z"
       id="path142"
       style="vector-effect:non-scaling-stroke;-inkscape-stroke:hairline;stroke-width:0.26458333;stroke-dasharray:none" />
    <path
       d="M 654.7152052610356,87.918802153517 L 636.5286717815624,119.418802153517 L 654.7152052610356,119.418802153517 L 663.8084720007722,103.668802153517 L 654.7152052610356,87.918802153517 Z"
       id="path143"
       style="vector-effect:non-scaling-stroke;-inkscape-stroke:hairline;stroke-width:0.26458333;stroke-dasharray:none" />
    <path
       d="M 622.3421383020892,143.9905989232415 L 658.7152052610356,143.9905989232415 L 649.6219385212991,128.2405989232415 L 631.4354050418258,128.2405989232415 L 622.3421383020892,143.9905989232415 Z"
       id="path144"
       style="vector-effect:non-scaling-stroke;-inkscape-stroke:hairline;stroke-width:0.26458333;stroke-dasharray:none" />
    <path
       d="M 665.5950962896956,118.21787165051421 L 668.9017387405088,112.49059892324149 L 687.0882722199821,143.99059892324146 L 680.4749873183555,143.99059892324146 L 665.5950962896956,118.21787165051421 Z"
       id="path145"
       style="vector-effect:non-scaling-stroke;-inkscape-stroke:hairline;stroke-width:0.26458333;stroke-dasharray:none" />
    <path
       d="M 674.963916567,143.9905989232415 L 668.9017387405089,143.9905989232415 L 659.8084720007722,128.2405989232415 L 662.8395609140177,122.99059892324149 L 674.963916567,143.9905989232415 Z"
       id="path146"
       style="vector-effect:non-scaling-stroke;-inkscape-stroke:hairline;stroke-width:0.26458333;stroke-dasharray:none" />
    <path
       d="M 691.0882722199821,141.681197846483 L 709.2748056994553,110.18119784648299 L 691.0882722199821,110.18119784648299 L 681.9950054802455,125.93119784648299 L 691.0882722199821,141.681197846483 Z"
       id="path147"
       style="vector-effect:non-scaling-stroke;-inkscape-stroke:hairline;stroke-width:0.26458333;stroke-dasharray:none" />
    <path
       d="M 723.4613391789285,85.6094010767585 L 687.0882722199821,85.60940107675849 L 696.1815389597186,101.3594010767585 L 714.3680724391919,101.3594010767585 L 723.4613391789285,85.6094010767585 Z"
       id="path148"
       style="vector-effect:non-scaling-stroke;-inkscape-stroke:hairline;stroke-width:0.26458333;stroke-dasharray:none" />
    <path
       d="M 680.2083811913221,111.38212834948577 L 676.9017387405089,117.1094010767585 L 658.7152052610356,85.6094010767585 L 665.3284901626622,85.6094010767585 L 680.2083811913221,111.38212834948577 Z"
       id="path149"
       style="vector-effect:non-scaling-stroke;-inkscape-stroke:hairline;stroke-width:0.26458333;stroke-dasharray:none" />
    <path
       d="M 670.8395609140177,85.6094010767585 L 676.9017387405088,85.6094010767585 L 685.9950054802455,101.3594010767585 L 682.963916567,106.6094010767585 L 670.8395609140177,85.6094010767585 Z"
       id="path150"
       style="vector-effect:non-scaling-stroke;-inkscape-stroke:hairline;stroke-width:0.26458333;stroke-dasharray:none" />
    <path
       d="M 691.0882722199821,24.918802153516992 L 709.2748056994553,56.41880215351701 L 691.0882722199821,56.41880215351701 L 681.9950054802455,40.66880215351699 L 691.0882722199821,24.918802153516992 Z"
       id="path151"
       style="vector-effect:non-scaling-stroke;-inkscape-stroke:hairline;stroke-width:0.26458333;stroke-dasharray:none" />
    <path
       d="M 723.4613391789285,80.99059892324149 L 687.0882722199821,80.9905989232415 L 696.1815389597186,65.24059892324149 L 714.3680724391919,65.24059892324149 L 723.4613391789285,80.99059892324149 Z"
       id="path152"
       style="vector-effect:non-scaling-stroke;-inkscape-stroke:hairline;stroke-width:0.26458333;stroke-dasharray:none" />
    <path
       d="M 680.2083811913221,55.217871650514226 L 676.9017387405089,49.49059892324151 L 658.7152052610356,80.99059892324149 L 665.3284901626622,80.99059892324149 L 680.2083811913221,55.217871650514226 Z"
       id="path153"
       style="vector-effect:non-scaling-stroke;-inkscape-stroke:hairline;stroke-width:0.26458333;stroke-dasharray:none" />
    <path
       d="M 670.8395609140177,80.99059892324149 L 676.9017387405088,80.99059892324149 L 685.9950054802455,65.24059892324149 L 682.963916567,59.99059892324151 L 670.8395609140177,80.99059892324149 Z"
       id="path154"
       style="vector-effect:non-scaling-stroke;-inkscape-stroke:hairline;stroke-width:0.26458333;stroke-dasharray:none" />
    <path
       d="M 727.4613391789285,78.68119784648299 L 709.2748056994552,47.18119784648299 L 727.4613391789285,47.18119784648299 L 736.5546059186651,62.93119784648299 L 727.4613391789285,78.68119784648299 Z"
       id="path155"
       style="vector-effect:non-scaling-stroke;-inkscape-stroke:hairline;stroke-width:0.26458333;stroke-dasharray:none" />
    <path
       d="M 695.0882722199821,22.609401076758502 L 731.4613391789285,22.609401076758502 L 722.3680724391919,38.3594010767585 L 704.1815389597186,38.3594010767585 L 695.0882722199821,22.609401076758502 Z"
       id="path156"
       style="vector-effect:non-scaling-stroke;-inkscape-stroke:hairline;stroke-width:0.26458333;stroke-dasharray:none" />
    <path
       d="M 738.3412302075884,48.38212834948577 L 741.6478726584016,54.1094010767585 L 759.8344061378749,22.609401076758502 L 753.2211212362483,22.609401076758502 L 738.3412302075884,48.38212834948577 Z"
       id="path157"
       style="vector-effect:non-scaling-stroke;-inkscape-stroke:hairline;stroke-width:0.26458333;stroke-dasharray:none" />
    <path
       d="M 747.7100504848928,22.609401076758502 L 741.6478726584016,22.609401076758502 L 732.5546059186651,38.3594010767585 L 735.5856948319106,43.6094010767585 L 747.7100504848928,22.609401076758502 Z"
       id="path158"
       style="vector-effect:non-scaling-stroke;-inkscape-stroke:hairline;stroke-width:0.26458333;stroke-dasharray:none" />
    <path
       d="M 727.4613391789285,87.918802153517 L 709.2748056994552,119.418802153517 L 727.4613391789285,119.418802153517 L 736.5546059186651,103.668802153517 L 727.4613391789285,87.918802153517 Z"
       id="path159"
       style="vector-effect:non-scaling-stroke;-inkscape-stroke:hairline;stroke-width:0.26458333;stroke-dasharray:none" />
    <path
       d="M 695.0882722199821,143.9905989232415 L 731.4613391789285,143.9905989232415 L 722.3680724391919,128.2405989232415 L 704.1815389597186,128.2405989232415 L 695.0882722199821,143.9905989232415 Z"
       id="path160"
       style="vector-effect:non-scaling-stroke;-inkscape-stroke:hairline;stroke-width:0.26458333;stroke-dasharray:none" />
    <path
       d="M 738.3412302075884,118.21787165051421 L 741.6478726584016,112.49059892324149 L 759.8344061378749,143.99059892324146 L 753.2211212362483,143.99059892324146 L 738.3412302075884,118.21787165051421 Z"
       id="path161"
       style="vector-effect:non-scaling-stroke;-inkscape-stroke:hairline;stroke-width:0.26458333;stroke-dasharray:none" />
    <path
       d="M 747.7100504848928,143.9905989232415 L 741.6478726584018,143.9905989232415 L 732.5546059186651,128.2405989232415 L 735.5856948319106,122.99059892324149 L 747.7100504848928,143.9905989232415 Z"
       id="path162"
       style="vector-effect:non-scaling-stroke;-inkscape-stroke:hairline;stroke-width:0.26458333;stroke-dasharray:none" />
    <path
       d="M 763.8344061378749,141.681197846483 L 782.0209396173482,110.18119784648299 L 763.8344061378749,110.18119784648299 L 754.7411393981383,125.93119784648299 L 763.8344061378749,141.681197846483 Z"
       id="path163"
       style="vector-effect:non-scaling-stroke;-inkscape-stroke:hairline;stroke-width:0.26458333;stroke-dasharray:none" />
    <path
       d="M 796.2074730968213,85.6094010767585 L 759.8344061378749,85.60940107675849 L 768.9276728776115,101.3594010767585 L 787.1142063570848,101.3594010767585 L 796.2074730968213,85.6094010767585 Z"
       id="path164"
       style="vector-effect:non-scaling-stroke;-inkscape-stroke:hairline;stroke-width:0.26458333;stroke-dasharray:none" />
    <path
       d="M 752.954515109215,111.38212834948577 L 749.6478726584018,117.1094010767585 L 731.4613391789285,85.6094010767585 L 738.074624080555,85.6094010767585 L 752.954515109215,111.38212834948577 Z"
       id="path165"
       style="vector-effect:non-scaling-stroke;-inkscape-stroke:hairline;stroke-width:0.26458333;stroke-dasharray:none" />
    <path
       d="M 743.5856948319106,85.6094010767585 L 749.6478726584016,85.6094010767585 L 758.7411393981383,101.3594010767585 L 755.7100504848928,106.6094010767585 L 743.5856948319106,85.6094010767585 Z"
       id="path166"
       style="vector-effect:non-scaling-stroke;-inkscape-stroke:hairline;stroke-width:0.26458333;stroke-dasharray:none" />
    <path
       d="M 763.8344061378749,24.918802153516992 L 782.0209396173482,56.41880215351701 L 763.8344061378749,56.41880215351701 L 754.7411393981383,40.66880215351699 L 763.8344061378749,24.918802153516992 Z"
       id="path167"
       style="vector-effect:non-scaling-stroke;-inkscape-stroke:hairline;stroke-width:0.26458333;stroke-dasharray:none" />
    <path
       d="M 796.2074730968213,80.99059892324149 L 759.8344061378749,80.9905989232415 L 768.9276728776115,65.24059892324149 L 787.1142063570848,65.24059892324149 L 796.2074730968213,80.99059892324149 Z"
       id="path168"
       style="vector-effect:non-scaling-stroke;-inkscape-stroke:hairline;stroke-width:0.26458333;stroke-dasharray:none" />
    <path
       d="M 752.954515109215,55.217871650514226 L 749.6478726584018,49.49059892324151 L 731.4613391789285,80.99059892324149 L 738.074624080555,80.99059892324149 L 752.954515109215,55.217871650514226 Z"
       id="path169"
       style="vector-effect:non-scaling-stroke;-inkscape-stroke:hairline;stroke-width:0.26458333;stroke-dasharray:none" />
    <path
       d="M 743.5856948319106,80.99059892324149 L 749.6478726584016,80.99059892324149 L 758.7411393981383,65.24059892324149 L 755.7100504848928,59.99059892324151 L 743.5856948319106,80.99059892324149 Z"
       id="path170"
       style="vector-effect:non-scaling-stroke;-inkscape-stroke:hairline;stroke-width:0.26458333;stroke-dasharray:none" />
    <path
       d="M 800.2074730968213,78.68119784648299 L 782.0209396173481,47.18119784648299 L 800.2074730968213,47.18119784648299 L 809.3007398365579,62.93119784648299 L 800.2074730968213,78.68119784648299 Z"
       id="path171"
       style="vector-effect:non-scaling-stroke;-inkscape-stroke:hairline;stroke-width:0.26458333;stroke-dasharray:none" />
    <path
       d="M 767.8344061378749,22.609401076758502 L 804.2074730968213,22.609401076758502 L 795.1142063570848,38.3594010767585 L 776.9276728776115,38.3594010767585 L 767.8344061378749,22.609401076758502 Z"
       id="path172"
       style="vector-effect:non-scaling-stroke;-inkscape-stroke:hairline;stroke-width:0.26458333;stroke-dasharray:none" />
    <path
       d="M 811.0873641254813,48.38212834948577 L 814.3940065762945,54.1094010767585 L 832.5805400557678,22.609401076758502 L 825.9672551541412,22.609401076758502 L 811.0873641254813,48.38212834948577 Z"
       id="path173"
       style="vector-effect:non-scaling-stroke;-inkscape-stroke:hairline;stroke-width:0.26458333;stroke-dasharray:none" />
    <path
       d="M 820.4561844027857,22.609401076758502 L 814.3940065762945,22.609401076758502 L 805.3007398365579,38.3594010767585 L 808.3318287498034,43.6094010767585 L 820.4561844027857,22.609401076758502 Z"
       id="path174"
       style="vector-effect:non-scaling-stroke;-inkscape-stroke:hairline;stroke-width:0.26458333;stroke-dasharray:none" />
    <path
       d="M 800.2074730968213,87.918802153517 L 782.0209396173481,119.418802153517 L 800.2074730968213,119.418802153517 L 809.3007398365579,103.668802153517 L 800.2074730968213,87.918802153517 Z"
       id="path175"
       style="vector-effect:non-scaling-stroke;-inkscape-stroke:hairline;stroke-width:0.26458333;stroke-dasharray:none" />
    <path
       d="M 767.8344061378749,143.9905989232415 L 804.2074730968213,143.9905989232415 L 795.1142063570848,128.2405989232415 L 776.9276728776115,128.2405989232415 L 767.8344061378749,143.9905989232415 Z"
       id="path176"
       style="vector-effect:non-scaling-stroke;-inkscape-stroke:hairline;stroke-width:0.26458333;stroke-dasharray:none" />
    <path
       d="M 811.0873641254813,118.21787165051421 L 814.3940065762945,112.49059892324149 L 832.5805400557678,143.99059892324146 L 825.9672551541412,143.99059892324146 L 811.0873641254813,118.21787165051421 Z"
       id="path177"
       style="vector-effect:non-scaling-stroke;-inkscape-stroke:hairline;stroke-width:0.26458333;stroke-dasharray:none" />
    <path
       d="M 820.4561844027857,143.9905989232415 L 814.3940065762946,143.9905989232415 L 805.3007398365579,128.2405989232415 L 808.3318287498034,122.99059892324149 L 820.4561844027857,143.9905989232415 Z"
       id="path178"
       style="vector-effect:non-scaling-stroke;-inkscape-stroke:hairline;stroke-width:0.26458333;stroke-dasharray:none" />
    <path
       d="M 836.5805400557678,141.681197846483 L 854.767073535241,110.18119784648299 L 836.5805400557678,110.18119784648299 L 827.4872733160312,125.93119784648299 L 836.5805400557678,141.681197846483 Z"
       id="path179"
       style="vector-effect:non-scaling-stroke;-inkscape-stroke:hairline;stroke-width:0.26458333;stroke-dasharray:none" />
    <path
       d="M 868.9536070147142,85.6094010767585 L 832.5805400557678,85.60940107675849 L 841.6738067955043,101.3594010767585 L 859.8603402749776,101.3594010767585 L 868.9536070147142,85.6094010767585 Z"
       id="path180"
       style="vector-effect:non-scaling-stroke;-inkscape-stroke:hairline;stroke-width:0.26458333;stroke-dasharray:none" />
    <path
       d="M 825.7006490271078,111.38212834948577 L 822.3940065762946,117.1094010767585 L 804.2074730968213,85.6094010767585 L 810.8207579984479,85.6094010767585 L 825.7006490271078,111.38212834948577 Z"
       id="path181"
       style="vector-effect:non-scaling-stroke;-inkscape-stroke:hairline;stroke-width:0.26458333;stroke-dasharray:none" />
    <path
       d="M 816.3318287498034,85.6094010767585 L 822.3940065762945,85.6094010767585 L 831.4872733160312,101.3594010767585 L 828.4561844027857,106.6094010767585 L 816.3318287498034,85.6094010767585 Z"
       id="path182"
       style="vector-effect:non-scaling-stroke;-inkscape-stroke:hairline;stroke-width:0.26458333;stroke-dasharray:none" />
    <path
       d="M 836.5805400557678,24.918802153516992 L 854.767073535241,56.41880215351701 L 836.5805400557678,56.41880215351701 L 827.4872733160312,40.66880215351699 L 836.5805400557678,24.918802153516992 Z"
       id="path183"
       style="vector-effect:non-scaling-stroke;-inkscape-stroke:hairline;stroke-width:0.26458333;stroke-dasharray:none" />
    <path
       d="M 868.9536070147142,80.99059892324149 L 832.5805400557678,80.9905989232415 L 841.6738067955043,65.24059892324149 L 859.8603402749776,65.24059892324149 L 868.9536070147142,80.99059892324149 Z"
       id="path184"
       style="vector-effect:non-scaling-stroke;-inkscape-stroke:hairline;stroke-width:0.26458333;stroke-dasharray:none" />
    <path
       d="M 825.7006490271078,55.217871650514226 L 822.3940065762946,49.49059892324151 L 804.2074730968213,80.99059892324149 L 810.8207579984479,80.99059892324149 L 825.7006490271078,55.217871650514226 Z"
       id="path185"
       style="vector-effect:non-scaling-stroke;-inkscape-stroke:hairline;stroke-width:0.26458333;stroke-dasharray:none" />
    <path
       d="M 816.3318287498034,80.99059892324149 L 822.3940065762945,80.99059892324149 L 831.4872733160312,65.24059892324149 L 828.4561844027857,59.99059892324151 L 816.3318287498034,80.99059892324149 Z"
       id="path186"
       style="vector-effect:non-scaling-stroke;-inkscape-stroke:hairline;stroke-width:0.26458333;stroke-dasharray:none" />
    <path
       d="M 872.9536070147142,78.68119784648299 L 854.7670735352409,47.18119784648299 L 872.9536070147142,47.18119784648299 L 882.0468737544508,62.93119784648299 L 872.9536070147142,78.68119784648299 Z"
       id="path187"
       style="vector-effect:non-scaling-stroke;-inkscape-stroke:hairline;stroke-width:0.26458333;stroke-dasharray:none" />
    <path
       d="M 840.5805400557678,22.609401076758502 L 876.9536070147142,22.609401076758502 L 867.8603402749776,38.3594010767585 L 849.6738067955043,38.3594010767585 L 840.5805400557678,22.609401076758502 Z"
       id="path188"
       style="vector-effect:non-scaling-stroke;-inkscape-stroke:hairline;stroke-width:0.26458333;stroke-dasharray:none" />
    <path
       d="M 887.1401404941873,54.1094010767585 L 883.8334980433741,48.38212834948577 L 890.0,37.70143365563686 L 890.0,49.15597911018216 L 887.1401404941873,54.1094010767585 Z"
       id="path189"
       style="vector-effect:non-scaling-stroke;-inkscape-stroke:hairline;stroke-width:0.26458333;stroke-dasharray:none" />
    <path
       d="M 881.0779626676963,43.6094010767585 L 878.0468737544508,38.3594010767585 L 887.1401404941873,22.609401076758502 L 890.0,22.609401076758502 L 890.0,28.155979110182273 L 881.0779626676963,43.6094010767585 Z"
       id="path190"
       style="vector-effect:non-scaling-stroke;-inkscape-stroke:hairline;stroke-width:0.26458333;stroke-dasharray:none" />
    <path
       d="M 872.9536070147142,87.918802153517 L 854.7670735352409,119.418802153517 L 872.9536070147142,119.418802153517 L 882.0468737544508,103.668802153517 L 872.9536070147142,87.918802153517 Z"
       id="path191"
       style="vector-effect:non-scaling-stroke;-inkscape-stroke:hairline;stroke-width:0.26458333;stroke-dasharray:none" />
    <path
       d="M 840.5805400557678,143.9905989232415 L 876.9536070147142,143.9905989232415 L 867.8603402749776,128.2405989232415 L 849.6738067955043,128.2405989232415 L 840.5805400557678,143.9905989232415 Z"
       id="path192"
       style="vector-effect:non-scaling-stroke;-inkscape-stroke:hairline;stroke-width:0.26458333;stroke-dasharray:none" />
    <path
       d="M 887.1401404941873,112.49059892324149 L 890.0,117.44402088981784 L 890.0,128.89856634436313 L 883.8334980433741,118.21787165051421 L 887.1401404941873,112.49059892324149 Z"
       id="path193"
       style="vector-effect:non-scaling-stroke;-inkscape-stroke:hairline;stroke-width:0.26458333;stroke-dasharray:none" />
    <path
       d="M 887.1401404941874,143.9905989232415 L 878.0468737544508,128.2405989232415 L 881.0779626676963,122.99059892324149 L 890.0,138.44402088981772 L 890.0,143.9905989232415 L 887.1401404941874,143.9905989232415 Z"
       id="path194"
       style="vector-effect:non-scaling-stroke;-inkscape-stroke:hairline;stroke-width:0.26458333;stroke-dasharray:none" />
    <path
       d="M 876.9536070147142,85.6094010767585 L 883.5668919163408,85.6094010767585 L 890.0,96.75187112823835 L 890.0,108.20641658278367 L 876.9536070147142,85.6094010767585 Z"
       id="path195"
       style="vector-effect:non-scaling-stroke;-inkscape-stroke:hairline;stroke-width:0.26458333;stroke-dasharray:none" />
    <path
       d="M 883.5668919163408,80.99059892324149 L 876.9536070147142,80.99059892324149 L 890.0,58.393583417216334 L 890.0,69.84812887176165 L 883.5668919163408,80.99059892324149 Z"
       id="path196"
       style="vector-effect:non-scaling-stroke;-inkscape-stroke:hairline;stroke-width:0.26458333;stroke-dasharray:none" />
    <path
       d="M 0.0,170.0 L 905.0,170.0 L 905.0,0.0 L 0.0,0.0 L 0.0,170.0 Z"
       id="path197"
       style="vector-effect:non-scaling-stroke;-inkscape-stroke:hairline;stroke-width:0.26458333;stroke-dasharray:none" />
  </g>
</svg>
