  0
SECTION
  2
HEADER
  9
$ACADVER
  1
AC1014
  9
$HANDSEED
  5
FFFF
  9
$INSUNITS
 70
     4
  9
$MEASUREMENT
 70
     1
  0
ENDSEC
  0
SECTION
  2
TABLES
  0
TABLE
  2
VPORT
  5
8
330
0
100
AcDbSymbolTable
 70
     4
  0
VPORT
  5
2E
330
8
100
AcDbSymbolTableRecord
100
AcDbViewportTableRecord
  2
*ACTIVE
 70
     0
 10
0.0
 20
0.0
 11
1.0
 21
1.0
 12
210.0
 22
148.5
 13
0.0
 23
0.0
 14
10.0
 24
10.0
 15
10.0
 25
10.0
 16
0.0
 26
0.0
 36
1.0
 17
0.0
 27
0.0
 37
0.0
 40
341.0
 41
1.24
 42
50.0
 43
0.0
 44
0.0
 50
0.0
 51
0.0
 71
     0
 72
   100
 73
     1
 74
     3
 75
     0
 76
     0
 77
     0
 78
     0
  0
ENDTAB
  0
TABLE
  2
LTYPE
  5
5
330
0
100
AcDbSymbolTable
 70
     1
  0
LTYPE
  5
14
330
5
100
AcDbSymbolTableRecord
100
AcDbLinetypeTableRecord
  2
BYBLOCK
 70
     0
  3

 72
    65
 73
     0
 40
0.0
  0
LTYPE
  5
15
330
5
100
AcDbSymbolTableRecord
100
AcDbLinetypeTableRecord
  2
BYLAYER
 70
     0
  3

 72
    65
 73
     0
 40
0.0
  0
LTYPE
  5
16
330
5
100
AcDbSymbolTableRecord
100
AcDbLinetypeTableRecord
  2
CONTINUOUS
 70
     0
  3
Solid line
 72
    65
 73
     0
 40
0.0
  0
ENDTAB
  0
TABLE
  2
LAYER
  5
2
100
AcDbSymbolTable
 70
1
  0
LAYER
  5
50
100
AcDbSymbolTableRecord
100
AcDbLayerTableRecord
  2
0
 70
0
  6
CONTINUOUS
  0
ENDTAB
  0
TABLE
  2
STYLE
  5
3
330
0
100
AcDbSymbolTable
 70
     1
  0
STYLE
  5
11
330
3
100
AcDbSymbolTableRecord
100
AcDbTextStyleTableRecord
  2
STANDARD
 70
     0
 40
0.0
 41
1.0
 50
0.0
 71
     0
 42
2.5
  3
txt
  4

  0
ENDTAB
  0
TABLE
  2
VIEW
  5
6
330
0
100
AcDbSymbolTable
 70
     0
  0
ENDTAB
  0
TABLE
  2
UCS
  5
7
330
0
100
AcDbSymbolTable
 70
     0
  0
ENDTAB
  0
TABLE
  2
APPID
  5
9
330
0
100
AcDbSymbolTable
 70
     2
  0
APPID
  5
12
330
9
100
AcDbSymbolTableRecord
100
AcDbRegAppTableRecord
  2
ACAD
 70
     0
  0
ENDTAB
  0
TABLE
  2
DIMSTYLE
  5
A
330
0
100
AcDbSymbolTable
 70
     1
  0
DIMSTYLE
105
27
330
A
100
AcDbSymbolTableRecord
100
AcDbDimStyleTableRecord
  2
ISO-25
 70
     0
  3

  4

  5

  6

  7

 40
1.0
 41
2.5
 42
0.625
 43
3.75
 44
1.25
 45
0.0
 46
0.0
 47
0.0
 48
0.0
140
2.5
141
2.5
142
0.0
143
0.03937007874016
144
1.0
145
0.0
146
1.0
147
0.625
 71
     0
 72
     0
 73
     0
 74
     0
 75
     0
 76
     0
 77
     1
 78
     8
170
     0
171
     3
172
     1
173
     0
174
     0
175
     0
176
     0
177
     0
178
     0
270
     2
271
     2
272
     2
273
     2
274
     3
340
11
275
     0
280
     0
281
     0
282
     0
283
     0
284
     8
285
     0
286
     0
287
     3
288
     0
  0
ENDTAB
  0
TABLE
  2
BLOCK_RECORD
  5
1
330
0
100
AcDbSymbolTable
 70
     1
  0
BLOCK_RECORD
  5
1F
330
1
100
AcDbSymbolTableRecord
100
AcDbBlockTableRecord
  2
*MODEL_SPACE
  0
BLOCK_RECORD
  5
1B
330
1
100
AcDbSymbolTableRecord
100
AcDbBlockTableRecord
  2
*PAPER_SPACE
  0
ENDTAB
  0
ENDSEC
  0
SECTION
  2
BLOCKS
  0
BLOCK
  5
20
330
1F
100
AcDbEntity
  8
0
100
AcDbBlockBegin
  2
*MODEL_SPACE
 70
     0
 10
0.0
 20
0.0
 30
0.0
  3
*MODEL_SPACE
  1

  0
ENDBLK
  5
21
330
1F
100
AcDbEntity
  8
0
100
AcDbBlockEnd
  0
BLOCK
  5
1C
330
1B
100
AcDbEntity
 67
     1
  8
0
100
AcDbBlockBegin
  2
*PAPER_SPACE
  1

  0
ENDBLK
  5
1D
330
1B
100
AcDbEntity
 67
     1
  8
0
100
AcDbBlockEnd
  0
ENDSEC
  0
SECTION
  2
ENTITIES
  0
LWPOLYLINE
  5
100
100
AcDbEntity
  8
0
 62
7
100
AcDbPolyline
 90
5
 70
1
 10
179.873067
 20
91.009401
 30
0.0
 10
173.259782
 20
91.009401
 30
0.0
 10
163.500000
 20
107.913839
 30
0.0
 10
163.500000
 20
119.368385
 30
0.0
 10
179.873067
 20
91.009401
 30
0.0
  0
LWPOLYLINE
  5
101
100
AcDbEntity
  8
0
 62
7
100
AcDbPolyline
 90
5
 70
1
 10
183.873067
 20
93.318802
 30
0.0
 10
202.059600
 20
124.818802
 30
0.0
 10
183.873067
 20
124.818802
 30
0.0
 10
174.779800
 20
109.068802
 30
0.0
 10
183.873067
 20
93.318802
 30
0.0
  0
LWPOLYLINE
  5
102
100
AcDbEntity
  8
0
 62
7
100
AcDbPolyline
 90
5
 70
1
 10
216.246134
 20
149.390599
 30
0.0
 10
179.873067
 20
149.390599
 30
0.0
 10
188.966334
 20
133.640599
 30
0.0
 10
207.152867
 20
133.640599
 30
0.0
 10
216.246134
 20
149.390599
 30
0.0
  0
LWPOLYLINE
  5
103
100
AcDbEntity
  8
0
 62
7
100
AcDbPolyline
 90
5
 70
1
 10
169.686533
 20
117.890599
 30
0.0
 10
163.500000
 20
128.605989
 30
0.0
 10
163.500000
 20
140.060535
 30
0.0
 10
172.993176
 20
123.617872
 30
0.0
 10
169.686533
 20
117.890599
 30
0.0
  0
LWPOLYLINE
  5
104
100
AcDbEntity
  8
0
 62
7
100
AcDbPolyline
 90
5
 70
1
 10
163.624356
 20
149.390599
 30
0.0
 10
169.686533
 20
149.390599
 30
0.0
 10
178.779800
 20
133.640599
 30
0.0
 10
175.748711
 20
128.390599
 30
0.0
 10
163.624356
 20
149.390599
 30
0.0
  0
LWPOLYLINE
  5
105
100
AcDbEntity
  8
0
 62
7
100
AcDbPolyline
 90
5
 70
1
 10
183.873067
 20
210.081198
 30
0.0
 10
202.059600
 20
178.581198
 30
0.0
 10
183.873067
 20
178.581198
 30
0.0
 10
174.779800
 20
194.331198
 30
0.0
 10
183.873067
 20
210.081198
 30
0.0
  0
LWPOLYLINE
  5
106
100
AcDbEntity
  8
0
 62
7
100
AcDbPolyline
 90
5
 70
1
 10
216.246134
 20
154.009401
 30
0.0
 10
179.873067
 20
154.009401
 30
0.0
 10
188.966334
 20
169.759401
 30
0.0
 10
207.152867
 20
169.759401
 30
0.0
 10
216.246134
 20
154.009401
 30
0.0
  0
LWPOLYLINE
  5
107
100
AcDbEntity
  8
0
 62
7
100
AcDbPolyline
 90
5
 70
1
 10
169.686533
 20
185.509401
 30
0.0
 10
172.993176
 20
179.782128
 30
0.0
 10
163.500000
 20
163.339465
 30
0.0
 10
163.500000
 20
174.794011
 30
0.0
 10
169.686533
 20
185.509401
 30
0.0
  0
LWPOLYLINE
  5
108
100
AcDbEntity
  8
0
 62
7
100
AcDbPolyline
 90
5
 70
1
 10
163.624356
 20
154.009401
 30
0.0
 10
169.686533
 20
154.009401
 30
0.0
 10
178.779800
 20
169.759401
 30
0.0
 10
175.748711
 20
175.009401
 30
0.0
 10
163.624356
 20
154.009401
 30
0.0
  0
LWPOLYLINE
  5
109
100
AcDbEntity
  8
0
 62
7
100
AcDbPolyline
 90
5
 70
1
 10
220.246134
 20
156.318802
 30
0.0
 10
202.059600
 20
187.818802
 30
0.0
 10
220.246134
 20
187.818802
 30
0.0
 10
229.339401
 20
172.068802
 30
0.0
 10
220.246134
 20
156.318802
 30
0.0
  0
LWPOLYLINE
  5
10a
100
AcDbEntity
  8
0
 62
7
100
AcDbPolyline
 90
5
 70
1
 10
187.873067
 20
212.390599
 30
0.0
 10
224.246134
 20
212.390599
 30
0.0
 10
215.152867
 20
196.640599
 30
0.0
 10
196.966334
 20
196.640599
 30
0.0
 10
187.873067
 20
212.390599
 30
0.0
  0
LWPOLYLINE
  5
10b
100
AcDbEntity
  8
0
 62
7
100
AcDbPolyline
 90
5
 70
1
 10
231.126025
 20
186.617872
 30
0.0
 10
234.432667
 20
180.890599
 30
0.0
 10
252.619201
 20
212.390599
 30
0.0
 10
246.005916
 20
212.390599
 30
0.0
 10
231.126025
 20
186.617872
 30
0.0
  0
LWPOLYLINE
  5
10c
100
AcDbEntity
  8
0
 62
7
100
AcDbPolyline
 90
5
 70
1
 10
240.494845
 20
212.390599
 30
0.0
 10
234.432667
 20
212.390599
 30
0.0
 10
225.339401
 20
196.640599
 30
0.0
 10
228.370490
 20
191.390599
 30
0.0
 10
240.494845
 20
212.390599
 30
0.0
  0
LWPOLYLINE
  5
10d
100
AcDbEntity
  8
0
 62
7
100
AcDbPolyline
 90
5
 70
1
 10
173.259782
 20
212.390599
 30
0.0
 10
179.873067
 20
212.390599
 30
0.0
 10
163.500000
 20
184.031615
 30
0.0
 10
163.500000
 20
195.486161
 30
0.0
 10
173.259782
 20
212.390599
 30
0.0
  0
LWPOLYLINE
  5
10e
100
AcDbEntity
  8
0
 62
7
100
AcDbPolyline
 90
5
 70
1
 10
220.246134
 20
147.081198
 30
0.0
 10
202.059600
 20
115.581198
 30
0.0
 10
220.246134
 20
115.581198
 30
0.0
 10
229.339401
 20
131.331198
 30
0.0
 10
220.246134
 20
147.081198
 30
0.0
  0
LWPOLYLINE
  5
10f
100
AcDbEntity
  8
0
 62
7
100
AcDbPolyline
 90
5
 70
1
 10
187.873067
 20
91.009401
 30
0.0
 10
224.246134
 20
91.009401
 30
0.0
 10
215.152867
 20
106.759401
 30
0.0
 10
196.966334
 20
106.759401
 30
0.0
 10
187.873067
 20
91.009401
 30
0.0
  0
LWPOLYLINE
  5
110
100
AcDbEntity
  8
0
 62
7
100
AcDbPolyline
 90
5
 70
1
 10
231.126025
 20
116.782128
 30
0.0
 10
234.432667
 20
122.509401
 30
0.0
 10
252.619201
 20
91.009401
 30
0.0
 10
246.005916
 20
91.009401
 30
0.0
 10
231.126025
 20
116.782128
 30
0.0
  0
LWPOLYLINE
  5
111
100
AcDbEntity
  8
0
 62
7
100
AcDbPolyline
 90
5
 70
1
 10
240.494845
 20
91.009401
 30
0.0
 10
234.432667
 20
91.009401
 30
0.0
 10
225.339401
 20
106.759401
 30
0.0
 10
228.370490
 20
112.009401
 30
0.0
 10
240.494845
 20
91.009401
 30
0.0
  0
LWPOLYLINE
  5
112
100
AcDbEntity
  8
0
 62
7
100
AcDbPolyline
 90
5
 70
1
 10
256.619201
 20
93.318802
 30
0.0
 10
274.805734
 20
124.818802
 30
0.0
 10
256.619201
 20
124.818802
 30
0.0
 10
247.525934
 20
109.068802
 30
0.0
 10
256.619201
 20
93.318802
 30
0.0
  0
LWPOLYLINE
  5
113
100
AcDbEntity
  8
0
 62
7
100
AcDbPolyline
 90
5
 70
1
 10
288.992268
 20
149.390599
 30
0.0
 10
252.619201
 20
149.390599
 30
0.0
 10
261.712468
 20
133.640599
 30
0.0
 10
279.899001
 20
133.640599
 30
0.0
 10
288.992268
 20
149.390599
 30
0.0
  0
LWPOLYLINE
  5
114
100
AcDbEntity
  8
0
 62
7
100
AcDbPolyline
 90
5
 70
1
 10
245.739310
 20
123.617872
 30
0.0
 10
242.432667
 20
117.890599
 30
0.0
 10
224.246134
 20
149.390599
 30
0.0
 10
230.859419
 20
149.390599
 30
0.0
 10
245.739310
 20
123.617872
 30
0.0
  0
LWPOLYLINE
  5
115
100
AcDbEntity
  8
0
 62
7
100
AcDbPolyline
 90
5
 70
1
 10
236.370490
 20
149.390599
 30
0.0
 10
242.432667
 20
149.390599
 30
0.0
 10
251.525934
 20
133.640599
 30
0.0
 10
248.494845
 20
128.390599
 30
0.0
 10
236.370490
 20
149.390599
 30
0.0
  0
LWPOLYLINE
  5
116
100
AcDbEntity
  8
0
 62
7
100
AcDbPolyline
 90
5
 70
1
 10
256.619201
 20
210.081198
 30
0.0
 10
274.805734
 20
178.581198
 30
0.0
 10
256.619201
 20
178.581198
 30
0.0
 10
247.525934
 20
194.331198
 30
0.0
 10
256.619201
 20
210.081198
 30
0.0
  0
LWPOLYLINE
  5
117
100
AcDbEntity
  8
0
 62
7
100
AcDbPolyline
 90
5
 70
1
 10
288.992268
 20
154.009401
 30
0.0
 10
252.619201
 20
154.009401
 30
0.0
 10
261.712468
 20
169.759401
 30
0.0
 10
279.899001
 20
169.759401
 30
0.0
 10
288.992268
 20
154.009401
 30
0.0
  0
LWPOLYLINE
  5
118
100
AcDbEntity
  8
0
 62
7
100
AcDbPolyline
 90
5
 70
1
 10
245.739310
 20
179.782128
 30
0.0
 10
242.432667
 20
185.509401
 30
0.0
 10
224.246134
 20
154.009401
 30
0.0
 10
230.859419
 20
154.009401
 30
0.0
 10
245.739310
 20
179.782128
 30
0.0
  0
LWPOLYLINE
  5
119
100
AcDbEntity
  8
0
 62
7
100
AcDbPolyline
 90
5
 70
1
 10
236.370490
 20
154.009401
 30
0.0
 10
242.432667
 20
154.009401
 30
0.0
 10
251.525934
 20
169.759401
 30
0.0
 10
248.494845
 20
175.009401
 30
0.0
 10
236.370490
 20
154.009401
 30
0.0
  0
LWPOLYLINE
  5
11a
100
AcDbEntity
  8
0
 62
7
100
AcDbPolyline
 90
5
 70
1
 10
292.992268
 20
156.318802
 30
0.0
 10
274.805734
 20
187.818802
 30
0.0
 10
292.992268
 20
187.818802
 30
0.0
 10
302.085535
 20
172.068802
 30
0.0
 10
292.992268
 20
156.318802
 30
0.0
  0
LWPOLYLINE
  5
11b
100
AcDbEntity
  8
0
 62
7
100
AcDbPolyline
 90
5
 70
1
 10
260.619201
 20
212.390599
 30
0.0
 10
296.992268
 20
212.390599
 30
0.0
 10
287.899001
 20
196.640599
 30
0.0
 10
269.712468
 20
196.640599
 30
0.0
 10
260.619201
 20
212.390599
 30
0.0
  0
LWPOLYLINE
  5
11c
100
AcDbEntity
  8
0
 62
7
100
AcDbPolyline
 90
5
 70
1
 10
303.872159
 20
186.617872
 30
0.0
 10
307.178801
 20
180.890599
 30
0.0
 10
325.365335
 20
212.390599
 30
0.0
 10
318.752050
 20
212.390599
 30
0.0
 10
303.872159
 20
186.617872
 30
0.0
  0
LWPOLYLINE
  5
11d
100
AcDbEntity
  8
0
 62
7
100
AcDbPolyline
 90
5
 70
1
 10
313.240979
 20
212.390599
 30
0.0
 10
307.178801
 20
212.390599
 30
0.0
 10
298.085535
 20
196.640599
 30
0.0
 10
301.116623
 20
191.390599
 30
0.0
 10
313.240979
 20
212.390599
 30
0.0
  0
LWPOLYLINE
  5
11e
100
AcDbEntity
  8
0
 62
7
100
AcDbPolyline
 90
5
 70
1
 10
292.992268
 20
147.081198
 30
0.0
 10
274.805734
 20
115.581198
 30
0.0
 10
292.992268
 20
115.581198
 30
0.0
 10
302.085535
 20
131.331198
 30
0.0
 10
292.992268
 20
147.081198
 30
0.0
  0
LWPOLYLINE
  5
11f
100
AcDbEntity
  8
0
 62
7
100
AcDbPolyline
 90
5
 70
1
 10
260.619201
 20
91.009401
 30
0.0
 10
296.992268
 20
91.009401
 30
0.0
 10
287.899001
 20
106.759401
 30
0.0
 10
269.712468
 20
106.759401
 30
0.0
 10
260.619201
 20
91.009401
 30
0.0
  0
LWPOLYLINE
  5
120
100
AcDbEntity
  8
0
 62
7
100
AcDbPolyline
 90
5
 70
1
 10
303.872159
 20
116.782128
 30
0.0
 10
307.178801
 20
122.509401
 30
0.0
 10
325.365335
 20
91.009401
 30
0.0
 10
318.752050
 20
91.009401
 30
0.0
 10
303.872159
 20
116.782128
 30
0.0
  0
LWPOLYLINE
  5
121
100
AcDbEntity
  8
0
 62
7
100
AcDbPolyline
 90
5
 70
1
 10
313.240979
 20
91.009401
 30
0.0
 10
307.178801
 20
91.009401
 30
0.0
 10
298.085535
 20
106.759401
 30
0.0
 10
301.116623
 20
112.009401
 30
0.0
 10
313.240979
 20
91.009401
 30
0.0
  0
LWPOLYLINE
  5
122
100
AcDbEntity
  8
0
 62
7
100
AcDbPolyline
 90
5
 70
1
 10
329.365335
 20
93.318802
 30
0.0
 10
347.551868
 20
124.818802
 30
0.0
 10
329.365335
 20
124.818802
 30
0.0
 10
320.272068
 20
109.068802
 30
0.0
 10
329.365335
 20
93.318802
 30
0.0
  0
LWPOLYLINE
  5
123
100
AcDbEntity
  8
0
 62
7
100
AcDbPolyline
 90
5
 70
1
 10
361.738402
 20
149.390599
 30
0.0
 10
325.365335
 20
149.390599
 30
0.0
 10
334.458602
 20
133.640599
 30
0.0
 10
352.645135
 20
133.640599
 30
0.0
 10
361.738402
 20
149.390599
 30
0.0
  0
LWPOLYLINE
  5
124
100
AcDbEntity
  8
0
 62
7
100
AcDbPolyline
 90
5
 70
1
 10
318.485444
 20
123.617872
 30
0.0
 10
315.178801
 20
117.890599
 30
0.0
 10
296.992268
 20
149.390599
 30
0.0
 10
303.605553
 20
149.390599
 30
0.0
 10
318.485444
 20
123.617872
 30
0.0
  0
LWPOLYLINE
  5
125
100
AcDbEntity
  8
0
 62
7
100
AcDbPolyline
 90
5
 70
1
 10
309.116623
 20
149.390599
 30
0.0
 10
315.178801
 20
149.390599
 30
0.0
 10
324.272068
 20
133.640599
 30
0.0
 10
321.240979
 20
128.390599
 30
0.0
 10
309.116623
 20
149.390599
 30
0.0
  0
LWPOLYLINE
  5
126
100
AcDbEntity
  8
0
 62
7
100
AcDbPolyline
 90
5
 70
1
 10
329.365335
 20
210.081198
 30
0.0
 10
347.551868
 20
178.581198
 30
0.0
 10
329.365335
 20
178.581198
 30
0.0
 10
320.272068
 20
194.331198
 30
0.0
 10
329.365335
 20
210.081198
 30
0.0
  0
LWPOLYLINE
  5
127
100
AcDbEntity
  8
0
 62
7
100
AcDbPolyline
 90
5
 70
1
 10
361.738402
 20
154.009401
 30
0.0
 10
325.365335
 20
154.009401
 30
0.0
 10
334.458602
 20
169.759401
 30
0.0
 10
352.645135
 20
169.759401
 30
0.0
 10
361.738402
 20
154.009401
 30
0.0
  0
LWPOLYLINE
  5
128
100
AcDbEntity
  8
0
 62
7
100
AcDbPolyline
 90
5
 70
1
 10
318.485444
 20
179.782128
 30
0.0
 10
315.178801
 20
185.509401
 30
0.0
 10
296.992268
 20
154.009401
 30
0.0
 10
303.605553
 20
154.009401
 30
0.0
 10
318.485444
 20
179.782128
 30
0.0
  0
LWPOLYLINE
  5
129
100
AcDbEntity
  8
0
 62
7
100
AcDbPolyline
 90
5
 70
1
 10
309.116623
 20
154.009401
 30
0.0
 10
315.178801
 20
154.009401
 30
0.0
 10
324.272068
 20
169.759401
 30
0.0
 10
321.240979
 20
175.009401
 30
0.0
 10
309.116623
 20
154.009401
 30
0.0
  0
LWPOLYLINE
  5
12a
100
AcDbEntity
  8
0
 62
7
100
AcDbPolyline
 90
5
 70
1
 10
365.738402
 20
156.318802
 30
0.0
 10
347.551868
 20
187.818802
 30
0.0
 10
365.738402
 20
187.818802
 30
0.0
 10
374.831668
 20
172.068802
 30
0.0
 10
365.738402
 20
156.318802
 30
0.0
  0
LWPOLYLINE
  5
12b
100
AcDbEntity
  8
0
 62
7
100
AcDbPolyline
 90
5
 70
1
 10
333.365335
 20
212.390599
 30
0.0
 10
369.738402
 20
212.390599
 30
0.0
 10
360.645135
 20
196.640599
 30
0.0
 10
342.458602
 20
196.640599
 30
0.0
 10
333.365335
 20
212.390599
 30
0.0
  0
LWPOLYLINE
  5
12c
100
AcDbEntity
  8
0
 62
7
100
AcDbPolyline
 90
5
 70
1
 10
376.618293
 20
186.617872
 30
0.0
 10
379.924935
 20
180.890599
 30
0.0
 10
398.111469
 20
212.390599
 30
0.0
 10
391.498184
 20
212.390599
 30
0.0
 10
376.618293
 20
186.617872
 30
0.0
  0
LWPOLYLINE
  5
12d
100
AcDbEntity
  8
0
 62
7
100
AcDbPolyline
 90
5
 70
1
 10
385.987113
 20
212.390599
 30
0.0
 10
379.924935
 20
212.390599
 30
0.0
 10
370.831668
 20
196.640599
 30
0.0
 10
373.862757
 20
191.390599
 30
0.0
 10
385.987113
 20
212.390599
 30
0.0
  0
LWPOLYLINE
  5
12e
100
AcDbEntity
  8
0
 62
7
100
AcDbPolyline
 90
5
 70
1
 10
365.738402
 20
147.081198
 30
0.0
 10
347.551868
 20
115.581198
 30
0.0
 10
365.738402
 20
115.581198
 30
0.0
 10
374.831668
 20
131.331198
 30
0.0
 10
365.738402
 20
147.081198
 30
0.0
  0
LWPOLYLINE
  5
12f
100
AcDbEntity
  8
0
 62
7
100
AcDbPolyline
 90
5
 70
1
 10
333.365335
 20
91.009401
 30
0.0
 10
369.738402
 20
91.009401
 30
0.0
 10
360.645135
 20
106.759401
 30
0.0
 10
342.458602
 20
106.759401
 30
0.0
 10
333.365335
 20
91.009401
 30
0.0
  0
LWPOLYLINE
  5
130
100
AcDbEntity
  8
0
 62
7
100
AcDbPolyline
 90
5
 70
1
 10
376.618293
 20
116.782128
 30
0.0
 10
379.924935
 20
122.509401
 30
0.0
 10
398.111469
 20
91.009401
 30
0.0
 10
391.498184
 20
91.009401
 30
0.0
 10
376.618293
 20
116.782128
 30
0.0
  0
LWPOLYLINE
  5
131
100
AcDbEntity
  8
0
 62
7
100
AcDbPolyline
 90
5
 70
1
 10
385.987113
 20
91.009401
 30
0.0
 10
379.924935
 20
91.009401
 30
0.0
 10
370.831668
 20
106.759401
 30
0.0
 10
373.862757
 20
112.009401
 30
0.0
 10
385.987113
 20
91.009401
 30
0.0
  0
LWPOLYLINE
  5
132
100
AcDbEntity
  8
0
 62
7
100
AcDbPolyline
 90
5
 70
1
 10
402.111469
 20
93.318802
 30
0.0
 10
420.298002
 20
124.818802
 30
0.0
 10
402.111469
 20
124.818802
 30
0.0
 10
393.018202
 20
109.068802
 30
0.0
 10
402.111469
 20
93.318802
 30
0.0
  0
LWPOLYLINE
  5
133
100
AcDbEntity
  8
0
 62
7
100
AcDbPolyline
 90
5
 70
1
 10
434.484536
 20
149.390599
 30
0.0
 10
398.111469
 20
149.390599
 30
0.0
 10
407.204735
 20
133.640599
 30
0.0
 10
425.391269
 20
133.640599
 30
0.0
 10
434.484536
 20
149.390599
 30
0.0
  0
LWPOLYLINE
  5
134
100
AcDbEntity
  8
0
 62
7
100
AcDbPolyline
 90
5
 70
1
 10
391.231578
 20
123.617872
 30
0.0
 10
387.924935
 20
117.890599
 30
0.0
 10
369.738402
 20
149.390599
 30
0.0
 10
376.351687
 20
149.390599
 30
0.0
 10
391.231578
 20
123.617872
 30
0.0
  0
LWPOLYLINE
  5
135
100
AcDbEntity
  8
0
 62
7
100
AcDbPolyline
 90
5
 70
1
 10
381.862757
 20
149.390599
 30
0.0
 10
387.924935
 20
149.390599
 30
0.0
 10
397.018202
 20
133.640599
 30
0.0
 10
393.987113
 20
128.390599
 30
0.0
 10
381.862757
 20
149.390599
 30
0.0
  0
LWPOLYLINE
  5
136
100
AcDbEntity
  8
0
 62
7
100
AcDbPolyline
 90
5
 70
1
 10
402.111469
 20
210.081198
 30
0.0
 10
420.298002
 20
178.581198
 30
0.0
 10
402.111469
 20
178.581198
 30
0.0
 10
393.018202
 20
194.331198
 30
0.0
 10
402.111469
 20
210.081198
 30
0.0
  0
LWPOLYLINE
  5
137
100
AcDbEntity
  8
0
 62
7
100
AcDbPolyline
 90
5
 70
1
 10
434.484536
 20
154.009401
 30
0.0
 10
398.111469
 20
154.009401
 30
0.0
 10
407.204735
 20
169.759401
 30
0.0
 10
425.391269
 20
169.759401
 30
0.0
 10
434.484536
 20
154.009401
 30
0.0
  0
LWPOLYLINE
  5
138
100
AcDbEntity
  8
0
 62
7
100
AcDbPolyline
 90
5
 70
1
 10
391.231578
 20
179.782128
 30
0.0
 10
387.924935
 20
185.509401
 30
0.0
 10
369.738402
 20
154.009401
 30
0.0
 10
376.351687
 20
154.009401
 30
0.0
 10
391.231578
 20
179.782128
 30
0.0
  0
LWPOLYLINE
  5
139
100
AcDbEntity
  8
0
 62
7
100
AcDbPolyline
 90
5
 70
1
 10
381.862757
 20
154.009401
 30
0.0
 10
387.924935
 20
154.009401
 30
0.0
 10
397.018202
 20
169.759401
 30
0.0
 10
393.987113
 20
175.009401
 30
0.0
 10
381.862757
 20
154.009401
 30
0.0
  0
LWPOLYLINE
  5
13a
100
AcDbEntity
  8
0
 62
7
100
AcDbPolyline
 90
5
 70
1
 10
438.484536
 20
156.318802
 30
0.0
 10
420.298002
 20
187.818802
 30
0.0
 10
438.484536
 20
187.818802
 30
0.0
 10
447.577802
 20
172.068802
 30
0.0
 10
438.484536
 20
156.318802
 30
0.0
  0
LWPOLYLINE
  5
13b
100
AcDbEntity
  8
0
 62
7
100
AcDbPolyline
 90
5
 70
1
 10
406.111469
 20
212.390599
 30
0.0
 10
442.484536
 20
212.390599
 30
0.0
 10
433.391269
 20
196.640599
 30
0.0
 10
415.204735
 20
196.640599
 30
0.0
 10
406.111469
 20
212.390599
 30
0.0
  0
LWPOLYLINE
  5
13c
100
AcDbEntity
  8
0
 62
7
100
AcDbPolyline
 90
5
 70
1
 10
449.364427
 20
186.617872
 30
0.0
 10
452.671069
 20
180.890599
 30
0.0
 10
470.857603
 20
212.390599
 30
0.0
 10
464.244318
 20
212.390599
 30
0.0
 10
449.364427
 20
186.617872
 30
0.0
  0
LWPOLYLINE
  5
13d
100
AcDbEntity
  8
0
 62
7
100
AcDbPolyline
 90
5
 70
1
 10
458.733247
 20
212.390599
 30
0.0
 10
452.671069
 20
212.390599
 30
0.0
 10
443.577802
 20
196.640599
 30
0.0
 10
446.608891
 20
191.390599
 30
0.0
 10
458.733247
 20
212.390599
 30
0.0
  0
LWPOLYLINE
  5
13e
100
AcDbEntity
  8
0
 62
7
100
AcDbPolyline
 90
5
 70
1
 10
438.484536
 20
147.081198
 30
0.0
 10
420.298002
 20
115.581198
 30
0.0
 10
438.484536
 20
115.581198
 30
0.0
 10
447.577802
 20
131.331198
 30
0.0
 10
438.484536
 20
147.081198
 30
0.0
  0
LWPOLYLINE
  5
13f
100
AcDbEntity
  8
0
 62
7
100
AcDbPolyline
 90
5
 70
1
 10
406.111469
 20
91.009401
 30
0.0
 10
442.484536
 20
91.009401
 30
0.0
 10
433.391269
 20
106.759401
 30
0.0
 10
415.204735
 20
106.759401
 30
0.0
 10
406.111469
 20
91.009401
 30
0.0
  0
LWPOLYLINE
  5
140
100
AcDbEntity
  8
0
 62
7
100
AcDbPolyline
 90
5
 70
1
 10
449.364427
 20
116.782128
 30
0.0
 10
452.671069
 20
122.509401
 30
0.0
 10
470.857603
 20
91.009401
 30
0.0
 10
464.244318
 20
91.009401
 30
0.0
 10
449.364427
 20
116.782128
 30
0.0
  0
LWPOLYLINE
  5
141
100
AcDbEntity
  8
0
 62
7
100
AcDbPolyline
 90
5
 70
1
 10
458.733247
 20
91.009401
 30
0.0
 10
452.671069
 20
91.009401
 30
0.0
 10
443.577802
 20
106.759401
 30
0.0
 10
446.608891
 20
112.009401
 30
0.0
 10
458.733247
 20
91.009401
 30
0.0
  0
LWPOLYLINE
  5
142
100
AcDbEntity
  8
0
 62
7
100
AcDbPolyline
 90
5
 70
1
 10
474.857603
 20
93.318802
 30
0.0
 10
493.044136
 20
124.818802
 30
0.0
 10
474.857603
 20
124.818802
 30
0.0
 10
465.764336
 20
109.068802
 30
0.0
 10
474.857603
 20
93.318802
 30
0.0
  0
LWPOLYLINE
  5
143
100
AcDbEntity
  8
0
 62
7
100
AcDbPolyline
 90
5
 70
1
 10
507.230670
 20
149.390599
 30
0.0
 10
470.857603
 20
149.390599
 30
0.0
 10
479.950869
 20
133.640599
 30
0.0
 10
498.137403
 20
133.640599
 30
0.0
 10
507.230670
 20
149.390599
 30
0.0
  0
LWPOLYLINE
  5
144
100
AcDbEntity
  8
0
 62
7
100
AcDbPolyline
 90
5
 70
1
 10
463.977712
 20
123.617872
 30
0.0
 10
460.671069
 20
117.890599
 30
0.0
 10
442.484536
 20
149.390599
 30
0.0
 10
449.097821
 20
149.390599
 30
0.0
 10
463.977712
 20
123.617872
 30
0.0
  0
LWPOLYLINE
  5
145
100
AcDbEntity
  8
0
 62
7
100
AcDbPolyline
 90
5
 70
1
 10
454.608891
 20
149.390599
 30
0.0
 10
460.671069
 20
149.390599
 30
0.0
 10
469.764336
 20
133.640599
 30
0.0
 10
466.733247
 20
128.390599
 30
0.0
 10
454.608891
 20
149.390599
 30
0.0
  0
LWPOLYLINE
  5
146
100
AcDbEntity
  8
0
 62
7
100
AcDbPolyline
 90
5
 70
1
 10
474.857603
 20
210.081198
 30
0.0
 10
493.044136
 20
178.581198
 30
0.0
 10
474.857603
 20
178.581198
 30
0.0
 10
465.764336
 20
194.331198
 30
0.0
 10
474.857603
 20
210.081198
 30
0.0
  0
LWPOLYLINE
  5
147
100
AcDbEntity
  8
0
 62
7
100
AcDbPolyline
 90
5
 70
1
 10
507.230670
 20
154.009401
 30
0.0
 10
470.857603
 20
154.009401
 30
0.0
 10
479.950869
 20
169.759401
 30
0.0
 10
498.137403
 20
169.759401
 30
0.0
 10
507.230670
 20
154.009401
 30
0.0
  0
LWPOLYLINE
  5
148
100
AcDbEntity
  8
0
 62
7
100
AcDbPolyline
 90
5
 70
1
 10
463.977712
 20
179.782128
 30
0.0
 10
460.671069
 20
185.509401
 30
0.0
 10
442.484536
 20
154.009401
 30
0.0
 10
449.097821
 20
154.009401
 30
0.0
 10
463.977712
 20
179.782128
 30
0.0
  0
LWPOLYLINE
  5
149
100
AcDbEntity
  8
0
 62
7
100
AcDbPolyline
 90
5
 70
1
 10
454.608891
 20
154.009401
 30
0.0
 10
460.671069
 20
154.009401
 30
0.0
 10
469.764336
 20
169.759401
 30
0.0
 10
466.733247
 20
175.009401
 30
0.0
 10
454.608891
 20
154.009401
 30
0.0
  0
LWPOLYLINE
  5
14a
100
AcDbEntity
  8
0
 62
7
100
AcDbPolyline
 90
5
 70
1
 10
511.230670
 20
156.318802
 30
0.0
 10
493.044136
 20
187.818802
 30
0.0
 10
511.230670
 20
187.818802
 30
0.0
 10
520.323936
 20
172.068802
 30
0.0
 10
511.230670
 20
156.318802
 30
0.0
  0
LWPOLYLINE
  5
14b
100
AcDbEntity
  8
0
 62
7
100
AcDbPolyline
 90
5
 70
1
 10
478.857603
 20
212.390599
 30
0.0
 10
515.230670
 20
212.390599
 30
0.0
 10
506.137403
 20
196.640599
 30
0.0
 10
487.950869
 20
196.640599
 30
0.0
 10
478.857603
 20
212.390599
 30
0.0
  0
LWPOLYLINE
  5
14c
100
AcDbEntity
  8
0
 62
7
100
AcDbPolyline
 90
5
 70
1
 10
522.110561
 20
186.617872
 30
0.0
 10
525.417203
 20
180.890599
 30
0.0
 10
543.603737
 20
212.390599
 30
0.0
 10
536.990452
 20
212.390599
 30
0.0
 10
522.110561
 20
186.617872
 30
0.0
  0
LWPOLYLINE
  5
14d
100
AcDbEntity
  8
0
 62
7
100
AcDbPolyline
 90
5
 70
1
 10
531.479381
 20
212.390599
 30
0.0
 10
525.417203
 20
212.390599
 30
0.0
 10
516.323936
 20
196.640599
 30
0.0
 10
519.355025
 20
191.390599
 30
0.0
 10
531.479381
 20
212.390599
 30
0.0
  0
LWPOLYLINE
  5
14e
100
AcDbEntity
  8
0
 62
7
100
AcDbPolyline
 90
5
 70
1
 10
511.230670
 20
147.081198
 30
0.0
 10
493.044136
 20
115.581198
 30
0.0
 10
511.230670
 20
115.581198
 30
0.0
 10
520.323936
 20
131.331198
 30
0.0
 10
511.230670
 20
147.081198
 30
0.0
  0
LWPOLYLINE
  5
14f
100
AcDbEntity
  8
0
 62
7
100
AcDbPolyline
 90
5
 70
1
 10
478.857603
 20
91.009401
 30
0.0
 10
515.230670
 20
91.009401
 30
0.0
 10
506.137403
 20
106.759401
 30
0.0
 10
487.950869
 20
106.759401
 30
0.0
 10
478.857603
 20
91.009401
 30
0.0
  0
LWPOLYLINE
  5
150
100
AcDbEntity
  8
0
 62
7
100
AcDbPolyline
 90
5
 70
1
 10
522.110561
 20
116.782128
 30
0.0
 10
525.417203
 20
122.509401
 30
0.0
 10
543.603737
 20
91.009401
 30
0.0
 10
536.990452
 20
91.009401
 30
0.0
 10
522.110561
 20
116.782128
 30
0.0
  0
LWPOLYLINE
  5
151
100
AcDbEntity
  8
0
 62
7
100
AcDbPolyline
 90
5
 70
1
 10
531.479381
 20
91.009401
 30
0.0
 10
525.417203
 20
91.009401
 30
0.0
 10
516.323936
 20
106.759401
 30
0.0
 10
519.355025
 20
112.009401
 30
0.0
 10
531.479381
 20
91.009401
 30
0.0
  0
LWPOLYLINE
  5
152
100
AcDbEntity
  8
0
 62
7
100
AcDbPolyline
 90
5
 70
1
 10
547.603737
 20
93.318802
 30
0.0
 10
565.790270
 20
124.818802
 30
0.0
 10
547.603737
 20
124.818802
 30
0.0
 10
538.510470
 20
109.068802
 30
0.0
 10
547.603737
 20
93.318802
 30
0.0
  0
LWPOLYLINE
  5
153
100
AcDbEntity
  8
0
 62
7
100
AcDbPolyline
 90
5
 70
1
 10
579.976804
 20
149.390599
 30
0.0
 10
543.603737
 20
149.390599
 30
0.0
 10
552.697003
 20
133.640599
 30
0.0
 10
570.883537
 20
133.640599
 30
0.0
 10
579.976804
 20
149.390599
 30
0.0
  0
LWPOLYLINE
  5
154
100
AcDbEntity
  8
0
 62
7
100
AcDbPolyline
 90
5
 70
1
 10
536.723846
 20
123.617872
 30
0.0
 10
533.417203
 20
117.890599
 30
0.0
 10
515.230670
 20
149.390599
 30
0.0
 10
521.843954
 20
149.390599
 30
0.0
 10
536.723846
 20
123.617872
 30
0.0
  0
LWPOLYLINE
  5
155
100
AcDbEntity
  8
0
 62
7
100
AcDbPolyline
 90
5
 70
1
 10
527.355025
 20
149.390599
 30
0.0
 10
533.417203
 20
149.390599
 30
0.0
 10
542.510470
 20
133.640599
 30
0.0
 10
539.479381
 20
128.390599
 30
0.0
 10
527.355025
 20
149.390599
 30
0.0
  0
LWPOLYLINE
  5
156
100
AcDbEntity
  8
0
 62
7
100
AcDbPolyline
 90
5
 70
1
 10
547.603737
 20
210.081198
 30
0.0
 10
565.790270
 20
178.581198
 30
0.0
 10
547.603737
 20
178.581198
 30
0.0
 10
538.510470
 20
194.331198
 30
0.0
 10
547.603737
 20
210.081198
 30
0.0
  0
LWPOLYLINE
  5
157
100
AcDbEntity
  8
0
 62
7
100
AcDbPolyline
 90
5
 70
1
 10
579.976804
 20
154.009401
 30
0.0
 10
543.603737
 20
154.009401
 30
0.0
 10
552.697003
 20
169.759401
 30
0.0
 10
570.883537
 20
169.759401
 30
0.0
 10
579.976804
 20
154.009401
 30
0.0
  0
LWPOLYLINE
  5
158
100
AcDbEntity
  8
0
 62
7
100
AcDbPolyline
 90
5
 70
1
 10
536.723846
 20
179.782128
 30
0.0
 10
533.417203
 20
185.509401
 30
0.0
 10
515.230670
 20
154.009401
 30
0.0
 10
521.843954
 20
154.009401
 30
0.0
 10
536.723846
 20
179.782128
 30
0.0
  0
LWPOLYLINE
  5
159
100
AcDbEntity
  8
0
 62
7
100
AcDbPolyline
 90
5
 70
1
 10
527.355025
 20
154.009401
 30
0.0
 10
533.417203
 20
154.009401
 30
0.0
 10
542.510470
 20
169.759401
 30
0.0
 10
539.479381
 20
175.009401
 30
0.0
 10
527.355025
 20
154.009401
 30
0.0
  0
LWPOLYLINE
  5
15a
100
AcDbEntity
  8
0
 62
7
100
AcDbPolyline
 90
5
 70
1
 10
583.976804
 20
156.318802
 30
0.0
 10
565.790270
 20
187.818802
 30
0.0
 10
583.976804
 20
187.818802
 30
0.0
 10
593.070070
 20
172.068802
 30
0.0
 10
583.976804
 20
156.318802
 30
0.0
  0
LWPOLYLINE
  5
15b
100
AcDbEntity
  8
0
 62
7
100
AcDbPolyline
 90
5
 70
1
 10
551.603737
 20
212.390599
 30
0.0
 10
587.976804
 20
212.390599
 30
0.0
 10
578.883537
 20
196.640599
 30
0.0
 10
560.697003
 20
196.640599
 30
0.0
 10
551.603737
 20
212.390599
 30
0.0
  0
LWPOLYLINE
  5
15c
100
AcDbEntity
  8
0
 62
7
100
AcDbPolyline
 90
5
 70
1
 10
594.856695
 20
186.617872
 30
0.0
 10
598.163337
 20
180.890599
 30
0.0
 10
616.349870
 20
212.390599
 30
0.0
 10
609.736586
 20
212.390599
 30
0.0
 10
594.856695
 20
186.617872
 30
0.0
  0
LWPOLYLINE
  5
15d
100
AcDbEntity
  8
0
 62
7
100
AcDbPolyline
 90
5
 70
1
 10
604.225515
 20
212.390599
 30
0.0
 10
598.163337
 20
212.390599
 30
0.0
 10
589.070070
 20
196.640599
 30
0.0
 10
592.101159
 20
191.390599
 30
0.0
 10
604.225515
 20
212.390599
 30
0.0
  0
LWPOLYLINE
  5
15e
100
AcDbEntity
  8
0
 62
7
100
AcDbPolyline
 90
5
 70
1
 10
583.976804
 20
147.081198
 30
0.0
 10
565.790270
 20
115.581198
 30
0.0
 10
583.976804
 20
115.581198
 30
0.0
 10
593.070070
 20
131.331198
 30
0.0
 10
583.976804
 20
147.081198
 30
0.0
  0
LWPOLYLINE
  5
15f
100
AcDbEntity
  8
0
 62
7
100
AcDbPolyline
 90
5
 70
1
 10
551.603737
 20
91.009401
 30
0.0
 10
587.976804
 20
91.009401
 30
0.0
 10
578.883537
 20
106.759401
 30
0.0
 10
560.697003
 20
106.759401
 30
0.0
 10
551.603737
 20
91.009401
 30
0.0
  0
LWPOLYLINE
  5
160
100
AcDbEntity
  8
0
 62
7
100
AcDbPolyline
 90
5
 70
1
 10
594.856695
 20
116.782128
 30
0.0
 10
598.163337
 20
122.509401
 30
0.0
 10
616.349870
 20
91.009401
 30
0.0
 10
609.736586
 20
91.009401
 30
0.0
 10
594.856695
 20
116.782128
 30
0.0
  0
LWPOLYLINE
  5
161
100
AcDbEntity
  8
0
 62
7
100
AcDbPolyline
 90
5
 70
1
 10
604.225515
 20
91.009401
 30
0.0
 10
598.163337
 20
91.009401
 30
0.0
 10
589.070070
 20
106.759401
 30
0.0
 10
592.101159
 20
112.009401
 30
0.0
 10
604.225515
 20
91.009401
 30
0.0
  0
LWPOLYLINE
  5
162
100
AcDbEntity
  8
0
 62
7
100
AcDbPolyline
 90
5
 70
1
 10
620.349870
 20
93.318802
 30
0.0
 10
638.536404
 20
124.818802
 30
0.0
 10
620.349870
 20
124.818802
 30
0.0
 10
611.256604
 20
109.068802
 30
0.0
 10
620.349870
 20
93.318802
 30
0.0
  0
LWPOLYLINE
  5
163
100
AcDbEntity
  8
0
 62
7
100
AcDbPolyline
 90
5
 70
1
 10
652.722937
 20
149.390599
 30
0.0
 10
616.349870
 20
149.390599
 30
0.0
 10
625.443137
 20
133.640599
 30
0.0
 10
643.629671
 20
133.640599
 30
0.0
 10
652.722937
 20
149.390599
 30
0.0
  0
LWPOLYLINE
  5
164
100
AcDbEntity
  8
0
 62
7
100
AcDbPolyline
 90
5
 70
1
 10
609.469979
 20
123.617872
 30
0.0
 10
606.163337
 20
117.890599
 30
0.0
 10
587.976804
 20
149.390599
 30
0.0
 10
594.590088
 20
149.390599
 30
0.0
 10
609.469979
 20
123.617872
 30
0.0
  0
LWPOLYLINE
  5
165
100
AcDbEntity
  8
0
 62
7
100
AcDbPolyline
 90
5
 70
1
 10
600.101159
 20
149.390599
 30
0.0
 10
606.163337
 20
149.390599
 30
0.0
 10
615.256604
 20
133.640599
 30
0.0
 10
612.225515
 20
128.390599
 30
0.0
 10
600.101159
 20
149.390599
 30
0.0
  0
LWPOLYLINE
  5
166
100
AcDbEntity
  8
0
 62
7
100
AcDbPolyline
 90
5
 70
1
 10
620.349870
 20
210.081198
 30
0.0
 10
638.536404
 20
178.581198
 30
0.0
 10
620.349870
 20
178.581198
 30
0.0
 10
611.256604
 20
194.331198
 30
0.0
 10
620.349870
 20
210.081198
 30
0.0
  0
LWPOLYLINE
  5
167
100
AcDbEntity
  8
0
 62
7
100
AcDbPolyline
 90
5
 70
1
 10
652.722937
 20
154.009401
 30
0.0
 10
616.349870
 20
154.009401
 30
0.0
 10
625.443137
 20
169.759401
 30
0.0
 10
643.629671
 20
169.759401
 30
0.0
 10
652.722937
 20
154.009401
 30
0.0
  0
LWPOLYLINE
  5
168
100
AcDbEntity
  8
0
 62
7
100
AcDbPolyline
 90
5
 70
1
 10
609.469979
 20
179.782128
 30
0.0
 10
606.163337
 20
185.509401
 30
0.0
 10
587.976804
 20
154.009401
 30
0.0
 10
594.590088
 20
154.009401
 30
0.0
 10
609.469979
 20
179.782128
 30
0.0
  0
LWPOLYLINE
  5
169
100
AcDbEntity
  8
0
 62
7
100
AcDbPolyline
 90
5
 70
1
 10
600.101159
 20
154.009401
 30
0.0
 10
606.163337
 20
154.009401
 30
0.0
 10
615.256604
 20
169.759401
 30
0.0
 10
612.225515
 20
175.009401
 30
0.0
 10
600.101159
 20
154.009401
 30
0.0
  0
LWPOLYLINE
  5
16a
100
AcDbEntity
  8
0
 62
7
100
AcDbPolyline
 90
5
 70
1
 10
656.722937
 20
156.318802
 30
0.0
 10
638.536404
 20
187.818802
 30
0.0
 10
656.722937
 20
187.818802
 30
0.0
 10
665.816204
 20
172.068802
 30
0.0
 10
656.722937
 20
156.318802
 30
0.0
  0
LWPOLYLINE
  5
16b
100
AcDbEntity
  8
0
 62
7
100
AcDbPolyline
 90
5
 70
1
 10
624.349870
 20
212.390599
 30
0.0
 10
660.722937
 20
212.390599
 30
0.0
 10
651.629671
 20
196.640599
 30
0.0
 10
633.443137
 20
196.640599
 30
0.0
 10
624.349870
 20
212.390599
 30
0.0
  0
LWPOLYLINE
  5
16c
100
AcDbEntity
  8
0
 62
7
100
AcDbPolyline
 90
5
 70
1
 10
667.602828
 20
186.617872
 30
0.0
 10
670.909471
 20
180.890599
 30
0.0
 10
689.096004
 20
212.390599
 30
0.0
 10
682.482719
 20
212.390599
 30
0.0
 10
667.602828
 20
186.617872
 30
0.0
  0
LWPOLYLINE
  5
16d
100
AcDbEntity
  8
0
 62
7
100
AcDbPolyline
 90
5
 70
1
 10
676.971649
 20
212.390599
 30
0.0
 10
670.909471
 20
212.390599
 30
0.0
 10
661.816204
 20
196.640599
 30
0.0
 10
664.847293
 20
191.390599
 30
0.0
 10
676.971649
 20
212.390599
 30
0.0
  0
LWPOLYLINE
  5
16e
100
AcDbEntity
  8
0
 62
7
100
AcDbPolyline
 90
5
 70
1
 10
656.722937
 20
147.081198
 30
0.0
 10
638.536404
 20
115.581198
 30
0.0
 10
656.722937
 20
115.581198
 30
0.0
 10
665.816204
 20
131.331198
 30
0.0
 10
656.722937
 20
147.081198
 30
0.0
  0
LWPOLYLINE
  5
16f
100
AcDbEntity
  8
0
 62
7
100
AcDbPolyline
 90
5
 70
1
 10
624.349870
 20
91.009401
 30
0.0
 10
660.722937
 20
91.009401
 30
0.0
 10
651.629671
 20
106.759401
 30
0.0
 10
633.443137
 20
106.759401
 30
0.0
 10
624.349870
 20
91.009401
 30
0.0
  0
LWPOLYLINE
  5
170
100
AcDbEntity
  8
0
 62
7
100
AcDbPolyline
 90
5
 70
1
 10
667.602828
 20
116.782128
 30
0.0
 10
670.909471
 20
122.509401
 30
0.0
 10
689.096004
 20
91.009401
 30
0.0
 10
682.482719
 20
91.009401
 30
0.0
 10
667.602828
 20
116.782128
 30
0.0
  0
LWPOLYLINE
  5
171
100
AcDbEntity
  8
0
 62
7
100
AcDbPolyline
 90
5
 70
1
 10
676.971649
 20
91.009401
 30
0.0
 10
670.909471
 20
91.009401
 30
0.0
 10
661.816204
 20
106.759401
 30
0.0
 10
664.847293
 20
112.009401
 30
0.0
 10
676.971649
 20
91.009401
 30
0.0
  0
LWPOLYLINE
  5
172
100
AcDbEntity
  8
0
 62
7
100
AcDbPolyline
 90
5
 70
1
 10
693.096004
 20
93.318802
 30
0.0
 10
711.282538
 20
124.818802
 30
0.0
 10
693.096004
 20
124.818802
 30
0.0
 10
684.002738
 20
109.068802
 30
0.0
 10
693.096004
 20
93.318802
 30
0.0
  0
LWPOLYLINE
  5
173
100
AcDbEntity
  8
0
 62
7
100
AcDbPolyline
 90
5
 70
1
 10
725.469071
 20
149.390599
 30
0.0
 10
689.096004
 20
149.390599
 30
0.0
 10
698.189271
 20
133.640599
 30
0.0
 10
716.375805
 20
133.640599
 30
0.0
 10
725.469071
 20
149.390599
 30
0.0
  0
LWPOLYLINE
  5
174
100
AcDbEntity
  8
0
 62
7
100
AcDbPolyline
 90
5
 70
1
 10
682.216113
 20
123.617872
 30
0.0
 10
678.909471
 20
117.890599
 30
0.0
 10
660.722937
 20
149.390599
 30
0.0
 10
667.336222
 20
149.390599
 30
0.0
 10
682.216113
 20
123.617872
 30
0.0
  0
LWPOLYLINE
  5
175
100
AcDbEntity
  8
0
 62
7
100
AcDbPolyline
 90
5
 70
1
 10
672.847293
 20
149.390599
 30
0.0
 10
678.909471
 20
149.390599
 30
0.0
 10
688.002738
 20
133.640599
 30
0.0
 10
684.971649
 20
128.390599
 30
0.0
 10
672.847293
 20
149.390599
 30
0.0
  0
LWPOLYLINE
  5
176
100
AcDbEntity
  8
0
 62
7
100
AcDbPolyline
 90
5
 70
1
 10
693.096004
 20
210.081198
 30
0.0
 10
711.282538
 20
178.581198
 30
0.0
 10
693.096004
 20
178.581198
 30
0.0
 10
684.002738
 20
194.331198
 30
0.0
 10
693.096004
 20
210.081198
 30
0.0
  0
LWPOLYLINE
  5
177
100
AcDbEntity
  8
0
 62
7
100
AcDbPolyline
 90
5
 70
1
 10
725.469071
 20
154.009401
 30
0.0
 10
689.096004
 20
154.009401
 30
0.0
 10
698.189271
 20
169.759401
 30
0.0
 10
716.375805
 20
169.759401
 30
0.0
 10
725.469071
 20
154.009401
 30
0.0
  0
LWPOLYLINE
  5
178
100
AcDbEntity
  8
0
 62
7
100
AcDbPolyline
 90
5
 70
1
 10
682.216113
 20
179.782128
 30
0.0
 10
678.909471
 20
185.509401
 30
0.0
 10
660.722937
 20
154.009401
 30
0.0
 10
667.336222
 20
154.009401
 30
0.0
 10
682.216113
 20
179.782128
 30
0.0
  0
LWPOLYLINE
  5
179
100
AcDbEntity
  8
0
 62
7
100
AcDbPolyline
 90
5
 70
1
 10
672.847293
 20
154.009401
 30
0.0
 10
678.909471
 20
154.009401
 30
0.0
 10
688.002738
 20
169.759401
 30
0.0
 10
684.971649
 20
175.009401
 30
0.0
 10
672.847293
 20
154.009401
 30
0.0
  0
LWPOLYLINE
  5
17a
100
AcDbEntity
  8
0
 62
7
100
AcDbPolyline
 90
5
 70
1
 10
729.469071
 20
156.318802
 30
0.0
 10
711.282538
 20
187.818802
 30
0.0
 10
729.469071
 20
187.818802
 30
0.0
 10
738.562338
 20
172.068802
 30
0.0
 10
729.469071
 20
156.318802
 30
0.0
  0
LWPOLYLINE
  5
17b
100
AcDbEntity
  8
0
 62
7
100
AcDbPolyline
 90
5
 70
1
 10
697.096004
 20
212.390599
 30
0.0
 10
733.469071
 20
212.390599
 30
0.0
 10
724.375805
 20
196.640599
 30
0.0
 10
706.189271
 20
196.640599
 30
0.0
 10
697.096004
 20
212.390599
 30
0.0
  0
LWPOLYLINE
  5
17c
100
AcDbEntity
  8
0
 62
7
100
AcDbPolyline
 90
5
 70
1
 10
740.348962
 20
186.617872
 30
0.0
 10
743.655605
 20
180.890599
 30
0.0
 10
761.842138
 20
212.390599
 30
0.0
 10
755.228853
 20
212.390599
 30
0.0
 10
740.348962
 20
186.617872
 30
0.0
  0
LWPOLYLINE
  5
17d
100
AcDbEntity
  8
0
 62
7
100
AcDbPolyline
 90
5
 70
1
 10
749.717783
 20
212.390599
 30
0.0
 10
743.655605
 20
212.390599
 30
0.0
 10
734.562338
 20
196.640599
 30
0.0
 10
737.593427
 20
191.390599
 30
0.0
 10
749.717783
 20
212.390599
 30
0.0
  0
LWPOLYLINE
  5
17e
100
AcDbEntity
  8
0
 62
7
100
AcDbPolyline
 90
5
 70
1
 10
729.469071
 20
147.081198
 30
0.0
 10
711.282538
 20
115.581198
 30
0.0
 10
729.469071
 20
115.581198
 30
0.0
 10
738.562338
 20
131.331198
 30
0.0
 10
729.469071
 20
147.081198
 30
0.0
  0
LWPOLYLINE
  5
17f
100
AcDbEntity
  8
0
 62
7
100
AcDbPolyline
 90
5
 70
1
 10
697.096004
 20
91.009401
 30
0.0
 10
733.469071
 20
91.009401
 30
0.0
 10
724.375805
 20
106.759401
 30
0.0
 10
706.189271
 20
106.759401
 30
0.0
 10
697.096004
 20
91.009401
 30
0.0
  0
LWPOLYLINE
  5
180
100
AcDbEntity
  8
0
 62
7
100
AcDbPolyline
 90
5
 70
1
 10
740.348962
 20
116.782128
 30
0.0
 10
743.655605
 20
122.509401
 30
0.0
 10
761.842138
 20
91.009401
 30
0.0
 10
755.228853
 20
91.009401
 30
0.0
 10
740.348962
 20
116.782128
 30
0.0
  0
LWPOLYLINE
  5
181
100
AcDbEntity
  8
0
 62
7
100
AcDbPolyline
 90
5
 70
1
 10
749.717783
 20
91.009401
 30
0.0
 10
743.655605
 20
91.009401
 30
0.0
 10
734.562338
 20
106.759401
 30
0.0
 10
737.593427
 20
112.009401
 30
0.0
 10
749.717783
 20
91.009401
 30
0.0
  0
LWPOLYLINE
  5
182
100
AcDbEntity
  8
0
 62
7
100
AcDbPolyline
 90
5
 70
1
 10
765.842138
 20
93.318802
 30
0.0
 10
784.028672
 20
124.818802
 30
0.0
 10
765.842138
 20
124.818802
 30
0.0
 10
756.748872
 20
109.068802
 30
0.0
 10
765.842138
 20
93.318802
 30
0.0
  0
LWPOLYLINE
  5
183
100
AcDbEntity
  8
0
 62
7
100
AcDbPolyline
 90
5
 70
1
 10
798.215205
 20
149.390599
 30
0.0
 10
761.842138
 20
149.390599
 30
0.0
 10
770.935405
 20
133.640599
 30
0.0
 10
789.121939
 20
133.640599
 30
0.0
 10
798.215205
 20
149.390599
 30
0.0
  0
LWPOLYLINE
  5
184
100
AcDbEntity
  8
0
 62
7
100
AcDbPolyline
 90
5
 70
1
 10
754.962247
 20
123.617872
 30
0.0
 10
751.655605
 20
117.890599
 30
0.0
 10
733.469071
 20
149.390599
 30
0.0
 10
740.082356
 20
149.390599
 30
0.0
 10
754.962247
 20
123.617872
 30
0.0
  0
LWPOLYLINE
  5
185
100
AcDbEntity
  8
0
 62
7
100
AcDbPolyline
 90
5
 70
1
 10
745.593427
 20
149.390599
 30
0.0
 10
751.655605
 20
149.390599
 30
0.0
 10
760.748872
 20
133.640599
 30
0.0
 10
757.717783
 20
128.390599
 30
0.0
 10
745.593427
 20
149.390599
 30
0.0
  0
LWPOLYLINE
  5
186
100
AcDbEntity
  8
0
 62
7
100
AcDbPolyline
 90
5
 70
1
 10
765.842138
 20
210.081198
 30
0.0
 10
784.028672
 20
178.581198
 30
0.0
 10
765.842138
 20
178.581198
 30
0.0
 10
756.748872
 20
194.331198
 30
0.0
 10
765.842138
 20
210.081198
 30
0.0
  0
LWPOLYLINE
  5
187
100
AcDbEntity
  8
0
 62
7
100
AcDbPolyline
 90
5
 70
1
 10
798.215205
 20
154.009401
 30
0.0
 10
761.842138
 20
154.009401
 30
0.0
 10
770.935405
 20
169.759401
 30
0.0
 10
789.121939
 20
169.759401
 30
0.0
 10
798.215205
 20
154.009401
 30
0.0
  0
LWPOLYLINE
  5
188
100
AcDbEntity
  8
0
 62
7
100
AcDbPolyline
 90
5
 70
1
 10
754.962247
 20
179.782128
 30
0.0
 10
751.655605
 20
185.509401
 30
0.0
 10
733.469071
 20
154.009401
 30
0.0
 10
740.082356
 20
154.009401
 30
0.0
 10
754.962247
 20
179.782128
 30
0.0
  0
LWPOLYLINE
  5
189
100
AcDbEntity
  8
0
 62
7
100
AcDbPolyline
 90
5
 70
1
 10
745.593427
 20
154.009401
 30
0.0
 10
751.655605
 20
154.009401
 30
0.0
 10
760.748872
 20
169.759401
 30
0.0
 10
757.717783
 20
175.009401
 30
0.0
 10
745.593427
 20
154.009401
 30
0.0
  0
LWPOLYLINE
  5
18a
100
AcDbEntity
  8
0
 62
7
100
AcDbPolyline
 90
5
 70
1
 10
802.215205
 20
156.318802
 30
0.0
 10
784.028672
 20
187.818802
 30
0.0
 10
802.215205
 20
187.818802
 30
0.0
 10
811.308472
 20
172.068802
 30
0.0
 10
802.215205
 20
156.318802
 30
0.0
  0
LWPOLYLINE
  5
18b
100
AcDbEntity
  8
0
 62
7
100
AcDbPolyline
 90
5
 70
1
 10
769.842138
 20
212.390599
 30
0.0
 10
806.215205
 20
212.390599
 30
0.0
 10
797.121939
 20
196.640599
 30
0.0
 10
778.935405
 20
196.640599
 30
0.0
 10
769.842138
 20
212.390599
 30
0.0
  0
LWPOLYLINE
  5
18c
100
AcDbEntity
  8
0
 62
7
100
AcDbPolyline
 90
5
 70
1
 10
813.095096
 20
186.617872
 30
0.0
 10
816.401739
 20
180.890599
 30
0.0
 10
834.588272
 20
212.390599
 30
0.0
 10
827.974987
 20
212.390599
 30
0.0
 10
813.095096
 20
186.617872
 30
0.0
  0
LWPOLYLINE
  5
18d
100
AcDbEntity
  8
0
 62
7
100
AcDbPolyline
 90
5
 70
1
 10
822.463917
 20
212.390599
 30
0.0
 10
816.401739
 20
212.390599
 30
0.0
 10
807.308472
 20
196.640599
 30
0.0
 10
810.339561
 20
191.390599
 30
0.0
 10
822.463917
 20
212.390599
 30
0.0
  0
LWPOLYLINE
  5
18e
100
AcDbEntity
  8
0
 62
7
100
AcDbPolyline
 90
5
 70
1
 10
802.215205
 20
147.081198
 30
0.0
 10
784.028672
 20
115.581198
 30
0.0
 10
802.215205
 20
115.581198
 30
0.0
 10
811.308472
 20
131.331198
 30
0.0
 10
802.215205
 20
147.081198
 30
0.0
  0
LWPOLYLINE
  5
18f
100
AcDbEntity
  8
0
 62
7
100
AcDbPolyline
 90
5
 70
1
 10
769.842138
 20
91.009401
 30
0.0
 10
806.215205
 20
91.009401
 30
0.0
 10
797.121939
 20
106.759401
 30
0.0
 10
778.935405
 20
106.759401
 30
0.0
 10
769.842138
 20
91.009401
 30
0.0
  0
LWPOLYLINE
  5
190
100
AcDbEntity
  8
0
 62
7
100
AcDbPolyline
 90
5
 70
1
 10
813.095096
 20
116.782128
 30
0.0
 10
816.401739
 20
122.509401
 30
0.0
 10
834.588272
 20
91.009401
 30
0.0
 10
827.974987
 20
91.009401
 30
0.0
 10
813.095096
 20
116.782128
 30
0.0
  0
LWPOLYLINE
  5
191
100
AcDbEntity
  8
0
 62
7
100
AcDbPolyline
 90
5
 70
1
 10
822.463917
 20
91.009401
 30
0.0
 10
816.401739
 20
91.009401
 30
0.0
 10
807.308472
 20
106.759401
 30
0.0
 10
810.339561
 20
112.009401
 30
0.0
 10
822.463917
 20
91.009401
 30
0.0
  0
LWPOLYLINE
  5
192
100
AcDbEntity
  8
0
 62
7
100
AcDbPolyline
 90
5
 70
1
 10
838.588272
 20
93.318802
 30
0.0
 10
856.774806
 20
124.818802
 30
0.0
 10
838.588272
 20
124.818802
 30
0.0
 10
829.495005
 20
109.068802
 30
0.0
 10
838.588272
 20
93.318802
 30
0.0
  0
LWPOLYLINE
  5
193
100
AcDbEntity
  8
0
 62
7
100
AcDbPolyline
 90
5
 70
1
 10
870.961339
 20
149.390599
 30
0.0
 10
834.588272
 20
149.390599
 30
0.0
 10
843.681539
 20
133.640599
 30
0.0
 10
861.868072
 20
133.640599
 30
0.0
 10
870.961339
 20
149.390599
 30
0.0
  0
LWPOLYLINE
  5
194
100
AcDbEntity
  8
0
 62
7
100
AcDbPolyline
 90
5
 70
1
 10
827.708381
 20
123.617872
 30
0.0
 10
824.401739
 20
117.890599
 30
0.0
 10
806.215205
 20
149.390599
 30
0.0
 10
812.828490
 20
149.390599
 30
0.0
 10
827.708381
 20
123.617872
 30
0.0
  0
LWPOLYLINE
  5
195
100
AcDbEntity
  8
0
 62
7
100
AcDbPolyline
 90
5
 70
1
 10
818.339561
 20
149.390599
 30
0.0
 10
824.401739
 20
149.390599
 30
0.0
 10
833.495005
 20
133.640599
 30
0.0
 10
830.463917
 20
128.390599
 30
0.0
 10
818.339561
 20
149.390599
 30
0.0
  0
LWPOLYLINE
  5
196
100
AcDbEntity
  8
0
 62
7
100
AcDbPolyline
 90
5
 70
1
 10
838.588272
 20
210.081198
 30
0.0
 10
856.774806
 20
178.581198
 30
0.0
 10
838.588272
 20
178.581198
 30
0.0
 10
829.495005
 20
194.331198
 30
0.0
 10
838.588272
 20
210.081198
 30
0.0
  0
LWPOLYLINE
  5
197
100
AcDbEntity
  8
0
 62
7
100
AcDbPolyline
 90
5
 70
1
 10
870.961339
 20
154.009401
 30
0.0
 10
834.588272
 20
154.009401
 30
0.0
 10
843.681539
 20
169.759401
 30
0.0
 10
861.868072
 20
169.759401
 30
0.0
 10
870.961339
 20
154.009401
 30
0.0
  0
LWPOLYLINE
  5
198
100
AcDbEntity
  8
0
 62
7
100
AcDbPolyline
 90
5
 70
1
 10
827.708381
 20
179.782128
 30
0.0
 10
824.401739
 20
185.509401
 30
0.0
 10
806.215205
 20
154.009401
 30
0.0
 10
812.828490
 20
154.009401
 30
0.0
 10
827.708381
 20
179.782128
 30
0.0
  0
LWPOLYLINE
  5
199
100
AcDbEntity
  8
0
 62
7
100
AcDbPolyline
 90
5
 70
1
 10
818.339561
 20
154.009401
 30
0.0
 10
824.401739
 20
154.009401
 30
0.0
 10
833.495005
 20
169.759401
 30
0.0
 10
830.463917
 20
175.009401
 30
0.0
 10
818.339561
 20
154.009401
 30
0.0
  0
LWPOLYLINE
  5
19a
100
AcDbEntity
  8
0
 62
7
100
AcDbPolyline
 90
5
 70
1
 10
874.961339
 20
156.318802
 30
0.0
 10
856.774806
 20
187.818802
 30
0.0
 10
874.961339
 20
187.818802
 30
0.0
 10
884.054606
 20
172.068802
 30
0.0
 10
874.961339
 20
156.318802
 30
0.0
  0
LWPOLYLINE
  5
19b
100
AcDbEntity
  8
0
 62
7
100
AcDbPolyline
 90
5
 70
1
 10
842.588272
 20
212.390599
 30
0.0
 10
878.961339
 20
212.390599
 30
0.0
 10
869.868072
 20
196.640599
 30
0.0
 10
851.681539
 20
196.640599
 30
0.0
 10
842.588272
 20
212.390599
 30
0.0
  0
LWPOLYLINE
  5
19c
100
AcDbEntity
  8
0
 62
7
100
AcDbPolyline
 90
5
 70
1
 10
885.841230
 20
186.617872
 30
0.0
 10
889.147873
 20
180.890599
 30
0.0
 10
907.334406
 20
212.390599
 30
0.0
 10
900.721121
 20
212.390599
 30
0.0
 10
885.841230
 20
186.617872
 30
0.0
  0
LWPOLYLINE
  5
19d
100
AcDbEntity
  8
0
 62
7
100
AcDbPolyline
 90
5
 70
1
 10
895.210050
 20
212.390599
 30
0.0
 10
889.147873
 20
212.390599
 30
0.0
 10
880.054606
 20
196.640599
 30
0.0
 10
883.085695
 20
191.390599
 30
0.0
 10
895.210050
 20
212.390599
 30
0.0
  0
LWPOLYLINE
  5
19e
100
AcDbEntity
  8
0
 62
7
100
AcDbPolyline
 90
5
 70
1
 10
874.961339
 20
147.081198
 30
0.0
 10
856.774806
 20
115.581198
 30
0.0
 10
874.961339
 20
115.581198
 30
0.0
 10
884.054606
 20
131.331198
 30
0.0
 10
874.961339
 20
147.081198
 30
0.0
  0
LWPOLYLINE
  5
19f
100
AcDbEntity
  8
0
 62
7
100
AcDbPolyline
 90
5
 70
1
 10
842.588272
 20
91.009401
 30
0.0
 10
878.961339
 20
91.009401
 30
0.0
 10
869.868072
 20
106.759401
 30
0.0
 10
851.681539
 20
106.759401
 30
0.0
 10
842.588272
 20
91.009401
 30
0.0
  0
LWPOLYLINE
  5
1a0
100
AcDbEntity
  8
0
 62
7
100
AcDbPolyline
 90
5
 70
1
 10
885.841230
 20
116.782128
 30
0.0
 10
889.147873
 20
122.509401
 30
0.0
 10
907.334406
 20
91.009401
 30
0.0
 10
900.721121
 20
91.009401
 30
0.0
 10
885.841230
 20
116.782128
 30
0.0
  0
LWPOLYLINE
  5
1a1
100
AcDbEntity
  8
0
 62
7
100
AcDbPolyline
 90
5
 70
1
 10
895.210050
 20
91.009401
 30
0.0
 10
889.147873
 20
91.009401
 30
0.0
 10
880.054606
 20
106.759401
 30
0.0
 10
883.085695
 20
112.009401
 30
0.0
 10
895.210050
 20
91.009401
 30
0.0
  0
LWPOLYLINE
  5
1a2
100
AcDbEntity
  8
0
 62
7
100
AcDbPolyline
 90
5
 70
1
 10
911.334406
 20
93.318802
 30
0.0
 10
929.520940
 20
124.818802
 30
0.0
 10
911.334406
 20
124.818802
 30
0.0
 10
902.241139
 20
109.068802
 30
0.0
 10
911.334406
 20
93.318802
 30
0.0
  0
LWPOLYLINE
  5
1a3
100
AcDbEntity
  8
0
 62
7
100
AcDbPolyline
 90
5
 70
1
 10
943.707473
 20
149.390599
 30
0.0
 10
907.334406
 20
149.390599
 30
0.0
 10
916.427673
 20
133.640599
 30
0.0
 10
934.614206
 20
133.640599
 30
0.0
 10
943.707473
 20
149.390599
 30
0.0
  0
LWPOLYLINE
  5
1a4
100
AcDbEntity
  8
0
 62
7
100
AcDbPolyline
 90
5
 70
1
 10
900.454515
 20
123.617872
 30
0.0
 10
897.147873
 20
117.890599
 30
0.0
 10
878.961339
 20
149.390599
 30
0.0
 10
885.574624
 20
149.390599
 30
0.0
 10
900.454515
 20
123.617872
 30
0.0
  0
LWPOLYLINE
  5
1a5
100
AcDbEntity
  8
0
 62
7
100
AcDbPolyline
 90
5
 70
1
 10
891.085695
 20
149.390599
 30
0.0
 10
897.147873
 20
149.390599
 30
0.0
 10
906.241139
 20
133.640599
 30
0.0
 10
903.210050
 20
128.390599
 30
0.0
 10
891.085695
 20
149.390599
 30
0.0
  0
LWPOLYLINE
  5
1a6
100
AcDbEntity
  8
0
 62
7
100
AcDbPolyline
 90
5
 70
1
 10
911.334406
 20
210.081198
 30
0.0
 10
929.520940
 20
178.581198
 30
0.0
 10
911.334406
 20
178.581198
 30
0.0
 10
902.241139
 20
194.331198
 30
0.0
 10
911.334406
 20
210.081198
 30
0.0
  0
LWPOLYLINE
  5
1a7
100
AcDbEntity
  8
0
 62
7
100
AcDbPolyline
 90
5
 70
1
 10
943.707473
 20
154.009401
 30
0.0
 10
907.334406
 20
154.009401
 30
0.0
 10
916.427673
 20
169.759401
 30
0.0
 10
934.614206
 20
169.759401
 30
0.0
 10
943.707473
 20
154.009401
 30
0.0
  0
LWPOLYLINE
  5
1a8
100
AcDbEntity
  8
0
 62
7
100
AcDbPolyline
 90
5
 70
1
 10
900.454515
 20
179.782128
 30
0.0
 10
897.147873
 20
185.509401
 30
0.0
 10
878.961339
 20
154.009401
 30
0.0
 10
885.574624
 20
154.009401
 30
0.0
 10
900.454515
 20
179.782128
 30
0.0
  0
LWPOLYLINE
  5
1a9
100
AcDbEntity
  8
0
 62
7
100
AcDbPolyline
 90
5
 70
1
 10
891.085695
 20
154.009401
 30
0.0
 10
897.147873
 20
154.009401
 30
0.0
 10
906.241139
 20
169.759401
 30
0.0
 10
903.210050
 20
175.009401
 30
0.0
 10
891.085695
 20
154.009401
 30
0.0
  0
LWPOLYLINE
  5
1aa
100
AcDbEntity
  8
0
 62
7
100
AcDbPolyline
 90
5
 70
1
 10
947.707473
 20
156.318802
 30
0.0
 10
929.520940
 20
187.818802
 30
0.0
 10
947.707473
 20
187.818802
 30
0.0
 10
956.800740
 20
172.068802
 30
0.0
 10
947.707473
 20
156.318802
 30
0.0
  0
LWPOLYLINE
  5
1ab
100
AcDbEntity
  8
0
 62
7
100
AcDbPolyline
 90
5
 70
1
 10
915.334406
 20
212.390599
 30
0.0
 10
951.707473
 20
212.390599
 30
0.0
 10
942.614206
 20
196.640599
 30
0.0
 10
924.427673
 20
196.640599
 30
0.0
 10
915.334406
 20
212.390599
 30
0.0
  0
LWPOLYLINE
  5
1ac
100
AcDbEntity
  8
0
 62
7
100
AcDbPolyline
 90
5
 70
1
 10
958.587364
 20
186.617872
 30
0.0
 10
961.894007
 20
180.890599
 30
0.0
 10
980.080540
 20
212.390599
 30
0.0
 10
973.467255
 20
212.390599
 30
0.0
 10
958.587364
 20
186.617872
 30
0.0
  0
LWPOLYLINE
  5
1ad
100
AcDbEntity
  8
0
 62
7
100
AcDbPolyline
 90
5
 70
1
 10
967.956184
 20
212.390599
 30
0.0
 10
961.894007
 20
212.390599
 30
0.0
 10
952.800740
 20
196.640599
 30
0.0
 10
955.831829
 20
191.390599
 30
0.0
 10
967.956184
 20
212.390599
 30
0.0
  0
LWPOLYLINE
  5
1ae
100
AcDbEntity
  8
0
 62
7
100
AcDbPolyline
 90
5
 70
1
 10
947.707473
 20
147.081198
 30
0.0
 10
929.520940
 20
115.581198
 30
0.0
 10
947.707473
 20
115.581198
 30
0.0
 10
956.800740
 20
131.331198
 30
0.0
 10
947.707473
 20
147.081198
 30
0.0
  0
LWPOLYLINE
  5
1af
100
AcDbEntity
  8
0
 62
7
100
AcDbPolyline
 90
5
 70
1
 10
915.334406
 20
91.009401
 30
0.0
 10
951.707473
 20
91.009401
 30
0.0
 10
942.614206
 20
106.759401
 30
0.0
 10
924.427673
 20
106.759401
 30
0.0
 10
915.334406
 20
91.009401
 30
0.0
  0
LWPOLYLINE
  5
1b0
100
AcDbEntity
  8
0
 62
7
100
AcDbPolyline
 90
5
 70
1
 10
958.587364
 20
116.782128
 30
0.0
 10
961.894007
 20
122.509401
 30
0.0
 10
980.080540
 20
91.009401
 30
0.0
 10
973.467255
 20
91.009401
 30
0.0
 10
958.587364
 20
116.782128
 30
0.0
  0
LWPOLYLINE
  5
1b1
100
AcDbEntity
  8
0
 62
7
100
AcDbPolyline
 90
5
 70
1
 10
967.956184
 20
91.009401
 30
0.0
 10
961.894007
 20
91.009401
 30
0.0
 10
952.800740
 20
106.759401
 30
0.0
 10
955.831829
 20
112.009401
 30
0.0
 10
967.956184
 20
91.009401
 30
0.0
  0
LWPOLYLINE
  5
1b2
100
AcDbEntity
  8
0
 62
7
100
AcDbPolyline
 90
5
 70
1
 10
984.080540
 20
93.318802
 30
0.0
 10
1002.267074
 20
124.818802
 30
0.0
 10
984.080540
 20
124.818802
 30
0.0
 10
974.987273
 20
109.068802
 30
0.0
 10
984.080540
 20
93.318802
 30
0.0
  0
LWPOLYLINE
  5
1b3
100
AcDbEntity
  8
0
 62
7
100
AcDbPolyline
 90
5
 70
1
 10
1016.453607
 20
149.390599
 30
0.0
 10
980.080540
 20
149.390599
 30
0.0
 10
989.173807
 20
133.640599
 30
0.0
 10
1007.360340
 20
133.640599
 30
0.0
 10
1016.453607
 20
149.390599
 30
0.0
  0
LWPOLYLINE
  5
1b4
100
AcDbEntity
  8
0
 62
7
100
AcDbPolyline
 90
5
 70
1
 10
973.200649
 20
123.617872
 30
0.0
 10
969.894007
 20
117.890599
 30
0.0
 10
951.707473
 20
149.390599
 30
0.0
 10
958.320758
 20
149.390599
 30
0.0
 10
973.200649
 20
123.617872
 30
0.0
  0
LWPOLYLINE
  5
1b5
100
AcDbEntity
  8
0
 62
7
100
AcDbPolyline
 90
5
 70
1
 10
963.831829
 20
149.390599
 30
0.0
 10
969.894007
 20
149.390599
 30
0.0
 10
978.987273
 20
133.640599
 30
0.0
 10
975.956184
 20
128.390599
 30
0.0
 10
963.831829
 20
149.390599
 30
0.0
  0
LWPOLYLINE
  5
1b6
100
AcDbEntity
  8
0
 62
7
100
AcDbPolyline
 90
5
 70
1
 10
984.080540
 20
210.081198
 30
0.0
 10
1002.267074
 20
178.581198
 30
0.0
 10
984.080540
 20
178.581198
 30
0.0
 10
974.987273
 20
194.331198
 30
0.0
 10
984.080540
 20
210.081198
 30
0.0
  0
LWPOLYLINE
  5
1b7
100
AcDbEntity
  8
0
 62
7
100
AcDbPolyline
 90
5
 70
1
 10
1016.453607
 20
154.009401
 30
0.0
 10
980.080540
 20
154.009401
 30
0.0
 10
989.173807
 20
169.759401
 30
0.0
 10
1007.360340
 20
169.759401
 30
0.0
 10
1016.453607
 20
154.009401
 30
0.0
  0
LWPOLYLINE
  5
1b8
100
AcDbEntity
  8
0
 62
7
100
AcDbPolyline
 90
5
 70
1
 10
973.200649
 20
179.782128
 30
0.0
 10
969.894007
 20
185.509401
 30
0.0
 10
951.707473
 20
154.009401
 30
0.0
 10
958.320758
 20
154.009401
 30
0.0
 10
973.200649
 20
179.782128
 30
0.0
  0
LWPOLYLINE
  5
1b9
100
AcDbEntity
  8
0
 62
7
100
AcDbPolyline
 90
5
 70
1
 10
963.831829
 20
154.009401
 30
0.0
 10
969.894007
 20
154.009401
 30
0.0
 10
978.987273
 20
169.759401
 30
0.0
 10
975.956184
 20
175.009401
 30
0.0
 10
963.831829
 20
154.009401
 30
0.0
  0
LWPOLYLINE
  5
1ba
100
AcDbEntity
  8
0
 62
7
100
AcDbPolyline
 90
5
 70
1
 10
1020.453607
 20
156.318802
 30
0.0
 10
1002.267074
 20
187.818802
 30
0.0
 10
1020.453607
 20
187.818802
 30
0.0
 10
1029.546874
 20
172.068802
 30
0.0
 10
1020.453607
 20
156.318802
 30
0.0
  0
LWPOLYLINE
  5
1bb
100
AcDbEntity
  8
0
 62
7
100
AcDbPolyline
 90
5
 70
1
 10
988.080540
 20
212.390599
 30
0.0
 10
1024.453607
 20
212.390599
 30
0.0
 10
1015.360340
 20
196.640599
 30
0.0
 10
997.173807
 20
196.640599
 30
0.0
 10
988.080540
 20
212.390599
 30
0.0
  0
LWPOLYLINE
  5
1bc
100
AcDbEntity
  8
0
 62
7
100
AcDbPolyline
 90
5
 70
1
 10
1034.640140
 20
180.890599
 30
0.0
 10
1031.333498
 20
186.617872
 30
0.0
 10
1037.500000
 20
197.298566
 30
0.0
 10
1037.500000
 20
185.844021
 30
0.0
 10
1034.640140
 20
180.890599
 30
0.0
  0
LWPOLYLINE
  5
1bd
100
AcDbEntity
  8
0
 62
7
100
AcDbPolyline
 90
6
 70
1
 10
1028.577963
 20
191.390599
 30
0.0
 10
1025.546874
 20
196.640599
 30
0.0
 10
1034.640140
 20
212.390599
 30
0.0
 10
1037.500000
 20
212.390599
 30
0.0
 10
1037.500000
 20
206.844021
 30
0.0
 10
1028.577963
 20
191.390599
 30
0.0
  0
LWPOLYLINE
  5
1be
100
AcDbEntity
  8
0
 62
7
100
AcDbPolyline
 90
5
 70
1
 10
1020.453607
 20
147.081198
 30
0.0
 10
1002.267074
 20
115.581198
 30
0.0
 10
1020.453607
 20
115.581198
 30
0.0
 10
1029.546874
 20
131.331198
 30
0.0
 10
1020.453607
 20
147.081198
 30
0.0
  0
LWPOLYLINE
  5
1bf
100
AcDbEntity
  8
0
 62
7
100
AcDbPolyline
 90
5
 70
1
 10
988.080540
 20
91.009401
 30
0.0
 10
1024.453607
 20
91.009401
 30
0.0
 10
1015.360340
 20
106.759401
 30
0.0
 10
997.173807
 20
106.759401
 30
0.0
 10
988.080540
 20
91.009401
 30
0.0
  0
LWPOLYLINE
  5
1c0
100
AcDbEntity
  8
0
 62
7
100
AcDbPolyline
 90
5
 70
1
 10
1034.640140
 20
122.509401
 30
0.0
 10
1037.500000
 20
117.555979
 30
0.0
 10
1037.500000
 20
106.101434
 30
0.0
 10
1031.333498
 20
116.782128
 30
0.0
 10
1034.640140
 20
122.509401
 30
0.0
  0
LWPOLYLINE
  5
1c1
100
AcDbEntity
  8
0
 62
7
100
AcDbPolyline
 90
6
 70
1
 10
1034.640140
 20
91.009401
 30
0.0
 10
1025.546874
 20
106.759401
 30
0.0
 10
1028.577963
 20
112.009401
 30
0.0
 10
1037.500000
 20
96.555979
 30
0.0
 10
1037.500000
 20
91.009401
 30
0.0
 10
1034.640140
 20
91.009401
 30
0.0
  0
LWPOLYLINE
  5
1c2
100
AcDbEntity
  8
0
 62
7
100
AcDbPolyline
 90
5
 70
1
 10
1024.453607
 20
149.390599
 30
0.0
 10
1031.066892
 20
149.390599
 30
0.0
 10
1037.500000
 20
138.248129
 30
0.0
 10
1037.500000
 20
126.793583
 30
0.0
 10
1024.453607
 20
149.390599
 30
0.0
  0
LWPOLYLINE
  5
1c3
100
AcDbEntity
  8
0
 62
7
100
AcDbPolyline
 90
5
 70
1
 10
1031.066892
 20
154.009401
 30
0.0
 10
1024.453607
 20
154.009401
 30
0.0
 10
1037.500000
 20
176.606417
 30
0.0
 10
1037.500000
 20
165.151871
 30
0.0
 10
1031.066892
 20
154.009401
 30
0.0
  0
LWPOLYLINE
  5
1c4
100
AcDbEntity
  8
0
 62
7
100
AcDbPolyline
 90
5
 70
1
 10
147.500000
 20
65.000000
 30
0.0
 10
1052.500000
 20
65.000000
 30
0.0
 10
1052.500000
 20
235.000000
 30
0.0
 10
147.500000
 20
235.000000
 30
0.0
 10
147.500000
 20
65.000000
 30
0.0
  0
ENDSEC
  0
SECTION
  2
OBJECTS
  0
DICTIONARY
  5
C
330
0
100
AcDbDictionary
  3
ACAD_GROUP
350
D
  3
ACAD_MLINESTYLE
350
17
  0
DICTIONARY
  5
D
330
C
100
AcDbDictionary
  0
DICTIONARY
  5
1A
330
C
100
AcDbDictionary
  0
DICTIONARY
  5
17
330
C
100
AcDbDictionary
  3
STANDARD
350
18
  0
DICTIONARY
  5
19
330
C
100
AcDbDictionary
  0
ENDSEC
  0
EOF
