<?xml version="1.0" encoding="UTF-8" standalone="no"?>
<svg
   height="300mm"
   version="1.1"
   viewBox="0 0 1200 300"
   width="1200mm"
   id="svg197"
   sodipodi:docname="final_poly_combination.svg"
   inkscape:version="1.4.2 (1:1.4.2+202505120737+ebf0e940d0)"
   xmlns:inkscape="http://www.inkscape.org/namespaces/inkscape"
   xmlns:sodipodi="http://sodipodi.sourceforge.net/DTD/sodipodi-0.dtd"
   xmlns="http://www.w3.org/2000/svg"
   xmlns:svg="http://www.w3.org/2000/svg">
  <sodipodi:namedview
     id="namedview197"
     pagecolor="#ffffff"
     bordercolor="#666666"
     borderopacity="1.0"
     inkscape:showpageshadow="2"
     inkscape:pageopacity="0.0"
     inkscape:pagecheckerboard="0"
     inkscape:deskcolor="#d1d1d1"
     inkscape:document-units="mm"
     showgrid="false"
     inkscape:zoom="0.25598437"
     inkscape:cx="2267.7165"
     inkscape:cy="566.44082"
     inkscape:window-width="1920"
     inkscape:window-height="1011"
     inkscape:window-x="0"
     inkscape:window-y="0"
     inkscape:window-maximized="1"
     inkscape:current-layer="svg197" />
  <defs
     id="defs1" />
  <g
     fill="none"
     stroke="blue"
     stroke-width="0.5"
     transform="translate(147.5,65.0)"
     id="g197"
     style="vector-effect:non-scaling-stroke;-inkscape-stroke:hairline;stroke-width:0.26458333;stroke-dasharray:none">
    <path
       d="M 16.0,143.9905989232415 L 16.0,128.2405989232415 L 23.279800219209818,128.2405989232415 L 32.373066958946424,143.9905989232415 L 16.0,143.9905989232415 Z"
       id="path1"
       style="vector-effect:non-scaling-stroke;-inkscape-stroke:hairline;stroke-width:0.26458333;stroke-dasharray:none" />
    <path
       d="M 36.373066958946424,141.681197846483 L 54.559600438419636,110.18119784648299 L 36.373066958946424,110.18119784648299 L 27.279800219209818,125.93119784648299 L 36.373066958946424,141.681197846483 Z"
       id="path2"
       style="vector-effect:non-scaling-stroke;-inkscape-stroke:hairline;stroke-width:0.26458333;stroke-dasharray:none" />
    <path
       d="M 68.74613391789285,85.6094010767585 L 32.37306695894643,85.60940107675849 L 41.46633369868303,101.3594010767585 L 59.65286717815624,101.3594010767585 L 68.74613391789285,85.6094010767585 Z"
       id="path3"
       style="vector-effect:non-scaling-stroke;-inkscape-stroke:hairline;stroke-width:0.26458333;stroke-dasharray:none" />
    <path
       d="M 22.186533479473216,117.1094010767585 L 16.0,106.39401076758503 L 16.0,94.93946531303958 L 25.493175930286526,111.38212834948577 L 22.186533479473216,117.1094010767585 Z"
       id="path4"
       style="vector-effect:non-scaling-stroke;-inkscape-stroke:hairline;stroke-width:0.26458333;stroke-dasharray:none" />
    <path
       d="M 16.124355652982143,85.6094010767585 L 22.18653347947321,85.6094010767585 L 31.279800219209818,101.3594010767585 L 28.24871130596428,106.6094010767585 L 16.124355652982143,85.6094010767585 Z"
       id="path5"
       style="vector-effect:non-scaling-stroke;-inkscape-stroke:hairline;stroke-width:0.26458333;stroke-dasharray:none" />
    <path
       d="M 72.74613391789285,78.681197846483 L 54.559600438419636,47.181197846483 L 72.74613391789285,47.18119784648299 L 81.83940065762945,62.931197846483 L 72.74613391789285,78.681197846483 Z"
       id="path6"
       style="vector-effect:non-scaling-stroke;-inkscape-stroke:hairline;stroke-width:0.26458333;stroke-dasharray:none" />
    <path
       d="M 40.373066958946424,22.609401076758502 L 76.74613391789285,22.609401076758502 L 67.65286717815624,38.3594010767585 L 49.46633369868303,38.3594010767585 L 40.373066958946424,22.609401076758502 Z"
       id="path7"
       style="vector-effect:non-scaling-stroke;-inkscape-stroke:hairline;stroke-width:0.26458333;stroke-dasharray:none" />
    <path
       d="M 83.62602494655275,48.38212834948577 L 86.93266739736606,54.1094010767585 L 105.11920087683927,22.609401076758502 L 98.50591597521264,22.609401076758502 L 83.62602494655275,48.38212834948577 Z"
       id="path8"
       style="vector-effect:non-scaling-stroke;-inkscape-stroke:hairline;stroke-width:0.26458333;stroke-dasharray:none" />
    <path
       d="M 92.99484522385713,22.609401076758502 L 86.93266739736606,22.609401076758502 L 77.83940065762945,38.3594010767585 L 80.870489570875,43.6094010767585 L 92.99484522385713,22.609401076758502 Z"
       id="path9"
       style="vector-effect:non-scaling-stroke;-inkscape-stroke:hairline;stroke-width:0.26458333;stroke-dasharray:none" />
    <path
       d="M 36.373066958946424,24.918802153516992 L 18.186533479473212,56.41880215351701 L 36.373066958946424,56.41880215351701 L 45.46633369868303,40.66880215351699 L 36.373066958946424,24.918802153516992 Z"
       id="path10"
       style="vector-effect:non-scaling-stroke;-inkscape-stroke:hairline;stroke-width:0.26458333;stroke-dasharray:none" />
    <path
       d="M 31.279800219209818,65.24059892324149 L 40.37306695894642,80.9905989232415 L 16.0,80.99059892324149 L 16.0,65.24059892324149 L 31.279800219209818,65.24059892324149 Z"
       id="path11"
       style="vector-effect:non-scaling-stroke;-inkscape-stroke:hairline;stroke-width:0.26458333;stroke-dasharray:none" />
    <path
       d="M 47.25295798760632,55.217871650514226 L 50.559600438419636,49.49059892324151 L 68.74613391789285,80.99059892324149 L 62.13284901626623,80.99059892324149 L 47.25295798760632,55.217871650514226 Z"
       id="path12"
       style="vector-effect:non-scaling-stroke;-inkscape-stroke:hairline;stroke-width:0.26458333;stroke-dasharray:none" />
    <path
       d="M 56.6217782649107,80.99059892324149 L 50.559600438419636,80.99059892324149 L 41.46633369868303,65.24059892324149 L 44.49742261192857,59.99059892324151 L 56.6217782649107,80.99059892324149 Z"
       id="path13"
       style="vector-effect:non-scaling-stroke;-inkscape-stroke:hairline;stroke-width:0.26458333;stroke-dasharray:none" />
    <path
       d="M 25.759782057319796,22.609401076758502 L 32.373066958946424,22.609401076758502 L 16.0,50.96838492538096 L 16.0,39.51383947083548 L 25.759782057319796,22.609401076758502 Z"
       id="path14"
       style="vector-effect:non-scaling-stroke;-inkscape-stroke:hairline;stroke-width:0.26458333;stroke-dasharray:none" />
    <path
       d="M 72.74613391789285,87.91880215351699 L 90.93266739736606,119.41880215351699 L 72.74613391789285,119.41880215351699 L 63.65286717815624,103.66880215351699 L 72.74613391789285,87.91880215351699 Z"
       id="path15"
       style="vector-effect:non-scaling-stroke;-inkscape-stroke:hairline;stroke-width:0.26458333;stroke-dasharray:none" />
    <path
       d="M 105.11920087683927,143.9905989232415 L 68.74613391789285,143.9905989232415 L 77.83940065762945,128.2405989232415 L 96.02593413710267,128.2405989232415 L 105.11920087683927,143.9905989232415 Z"
       id="path16"
       style="vector-effect:non-scaling-stroke;-inkscape-stroke:hairline;stroke-width:0.26458333;stroke-dasharray:none" />
    <path
       d="M 61.86624288923295,118.21787165051421 L 58.559600438419636,112.49059892324149 L 40.373066958946424,143.9905989232415 L 46.986351860573045,143.9905989232415 L 61.86624288923295,118.21787165051421 Z"
       id="path17"
       style="vector-effect:non-scaling-stroke;-inkscape-stroke:hairline;stroke-width:0.26458333;stroke-dasharray:none" />
    <path
       d="M 52.49742261192857,143.9905989232415 L 58.559600438419636,143.9905989232415 L 67.65286717815624,128.2405989232415 L 64.6217782649107,122.99059892324149 L 52.49742261192857,143.9905989232415 Z"
       id="path18"
       style="vector-effect:non-scaling-stroke;-inkscape-stroke:hairline;stroke-width:0.26458333;stroke-dasharray:none" />
    <path
       d="M 109.11920087683927,141.681197846483 L 127.30573435631248,110.18119784648299 L 109.11920087683927,110.18119784648299 L 100.02593413710267,125.93119784648299 L 109.11920087683927,141.681197846483 Z"
       id="path19"
       style="vector-effect:non-scaling-stroke;-inkscape-stroke:hairline;stroke-width:0.26458333;stroke-dasharray:none" />
    <path
       d="M 141.4922678357857,85.6094010767585 L 105.11920087683927,85.60940107675849 L 114.21246761657588,101.3594010767585 L 132.3990010960491,101.3594010767585 L 141.4922678357857,85.6094010767585 Z"
       id="path20"
       style="vector-effect:non-scaling-stroke;-inkscape-stroke:hairline;stroke-width:0.26458333;stroke-dasharray:none" />
    <path
       d="M 98.23930984817937,111.38212834948577 L 94.93266739736606,117.1094010767585 L 76.74613391789285,85.6094010767585 L 83.35941881951948,85.6094010767585 L 98.23930984817937,111.38212834948577 Z"
       id="path21"
       style="vector-effect:non-scaling-stroke;-inkscape-stroke:hairline;stroke-width:0.26458333;stroke-dasharray:none" />
    <path
       d="M 88.870489570875,85.6094010767585 L 94.93266739736606,85.6094010767585 L 104.02593413710267,101.3594010767585 L 100.99484522385713,106.6094010767585 L 88.870489570875,85.6094010767585 Z"
       id="path22"
       style="vector-effect:non-scaling-stroke;-inkscape-stroke:hairline;stroke-width:0.26458333;stroke-dasharray:none" />
    <path
       d="M 145.4922678357857,78.681197846483 L 127.30573435631248,47.181197846483 L 145.4922678357857,47.18119784648299 L 154.5855345755223,62.931197846483 L 145.4922678357857,78.681197846483 Z"
       id="path23"
       style="vector-effect:non-scaling-stroke;-inkscape-stroke:hairline;stroke-width:0.26458333;stroke-dasharray:none" />
    <path
       d="M 113.11920087683927,22.609401076758502 L 149.4922678357857,22.609401076758502 L 140.3990010960491,38.3594010767585 L 122.21246761657588,38.3594010767585 L 113.11920087683927,22.609401076758502 Z"
       id="path24"
       style="vector-effect:non-scaling-stroke;-inkscape-stroke:hairline;stroke-width:0.26458333;stroke-dasharray:none" />
    <path
       d="M 156.3721588644456,48.38212834948577 L 159.6788013152589,54.1094010767585 L 177.86533479473212,22.609401076758502 L 171.2520498931055,22.609401076758502 L 156.3721588644456,48.38212834948577 Z"
       id="path25"
       style="vector-effect:non-scaling-stroke;-inkscape-stroke:hairline;stroke-width:0.26458333;stroke-dasharray:none" />
    <path
       d="M 165.74097914174996,22.609401076758502 L 159.6788013152589,22.609401076758502 L 150.5855345755223,38.3594010767585 L 153.61662348876786,43.6094010767585 L 165.74097914174996,22.609401076758502 Z"
       id="path26"
       style="vector-effect:non-scaling-stroke;-inkscape-stroke:hairline;stroke-width:0.26458333;stroke-dasharray:none" />
    <path
       d="M 109.11920087683927,24.918802153516992 L 90.93266739736606,56.41880215351701 L 109.11920087683927,56.41880215351701 L 118.21246761657588,40.66880215351699 L 109.11920087683927,24.918802153516992 Z"
       id="path27"
       style="vector-effect:non-scaling-stroke;-inkscape-stroke:hairline;stroke-width:0.26458333;stroke-dasharray:none" />
    <path
       d="M 76.74613391789285,80.99059892324149 L 113.11920087683927,80.9905989232415 L 104.02593413710267,65.24059892324149 L 85.83940065762945,65.24059892324149 L 76.74613391789285,80.99059892324149 Z"
       id="path28"
       style="vector-effect:non-scaling-stroke;-inkscape-stroke:hairline;stroke-width:0.26458333;stroke-dasharray:none" />
    <path
       d="M 119.99909190549917,55.217871650514226 L 123.30573435631248,49.49059892324151 L 141.4922678357857,80.99059892324149 L 134.87898293415907,80.99059892324149 L 119.99909190549917,55.217871650514226 Z"
       id="path29"
       style="vector-effect:non-scaling-stroke;-inkscape-stroke:hairline;stroke-width:0.26458333;stroke-dasharray:none" />
    <path
       d="M 129.36791218280354,80.99059892324149 L 123.30573435631248,80.99059892324149 L 114.21246761657588,65.24059892324149 L 117.24355652982142,59.99059892324151 L 129.36791218280354,80.99059892324149 Z"
       id="path30"
       style="vector-effect:non-scaling-stroke;-inkscape-stroke:hairline;stroke-width:0.26458333;stroke-dasharray:none" />
    <path
       d="M 145.4922678357857,87.91880215351699 L 163.6788013152589,119.41880215351699 L 145.4922678357857,119.41880215351699 L 136.3990010960491,103.66880215351699 L 145.4922678357857,87.91880215351699 Z"
       id="path31"
       style="vector-effect:non-scaling-stroke;-inkscape-stroke:hairline;stroke-width:0.26458333;stroke-dasharray:none" />
    <path
       d="M 177.86533479473212,143.9905989232415 L 141.4922678357857,143.9905989232415 L 150.5855345755223,128.2405989232415 L 168.77206805499551,128.2405989232415 L 177.86533479473212,143.9905989232415 Z"
       id="path32"
       style="vector-effect:non-scaling-stroke;-inkscape-stroke:hairline;stroke-width:0.26458333;stroke-dasharray:none" />
    <path
       d="M 134.6123768071258,118.21787165051421 L 131.30573435631248,112.49059892324149 L 113.11920087683927,143.9905989232415 L 119.7324857784659,143.9905989232415 L 134.6123768071258,118.21787165051421 Z"
       id="path33"
       style="vector-effect:non-scaling-stroke;-inkscape-stroke:hairline;stroke-width:0.26458333;stroke-dasharray:none" />
    <path
       d="M 125.24355652982142,143.9905989232415 L 131.30573435631248,143.9905989232415 L 140.3990010960491,128.2405989232415 L 137.36791218280356,122.99059892324149 L 125.24355652982142,143.9905989232415 Z"
       id="path34"
       style="vector-effect:non-scaling-stroke;-inkscape-stroke:hairline;stroke-width:0.26458333;stroke-dasharray:none" />
    <path
       d="M 181.86533479473212,141.681197846483 L 200.05186827420533,110.18119784648299 L 181.86533479473212,110.18119784648299 L 172.77206805499551,125.93119784648299 L 181.86533479473212,141.681197846483 Z"
       id="path35"
       style="vector-effect:non-scaling-stroke;-inkscape-stroke:hairline;stroke-width:0.26458333;stroke-dasharray:none" />
    <path
       d="M 214.23840175367854,85.6094010767585 L 177.86533479473212,85.60940107675849 L 186.95860153446873,101.3594010767585 L 205.14513501394194,101.3594010767585 L 214.23840175367854,85.6094010767585 Z"
       id="path36"
       style="vector-effect:non-scaling-stroke;-inkscape-stroke:hairline;stroke-width:0.26458333;stroke-dasharray:none" />
    <path
       d="M 170.98544376607222,111.38212834948577 L 167.6788013152589,117.1094010767585 L 149.4922678357857,85.6094010767585 L 156.10555273741232,85.6094010767585 L 170.98544376607222,111.38212834948577 Z"
       id="path37"
       style="vector-effect:non-scaling-stroke;-inkscape-stroke:hairline;stroke-width:0.26458333;stroke-dasharray:none" />
    <path
       d="M 161.61662348876783,85.6094010767585 L 167.6788013152589,85.6094010767585 L 176.77206805499551,101.3594010767585 L 173.74097914175,106.6094010767585 L 161.61662348876783,85.6094010767585 Z"
       id="path38"
       style="vector-effect:non-scaling-stroke;-inkscape-stroke:hairline;stroke-width:0.26458333;stroke-dasharray:none" />
    <path
       d="M 218.23840175367854,78.681197846483 L 200.05186827420533,47.181197846483 L 218.23840175367854,47.18119784648299 L 227.33166849341515,62.931197846483 L 218.23840175367854,78.681197846483 Z"
       id="path39"
       style="vector-effect:non-scaling-stroke;-inkscape-stroke:hairline;stroke-width:0.26458333;stroke-dasharray:none" />
    <path
       d="M 185.86533479473212,22.609401076758502 L 222.23840175367854,22.609401076758502 L 213.14513501394194,38.3594010767585 L 194.95860153446873,38.3594010767585 L 185.86533479473212,22.609401076758502 Z"
       id="path40"
       style="vector-effect:non-scaling-stroke;-inkscape-stroke:hairline;stroke-width:0.26458333;stroke-dasharray:none" />
    <path
       d="M 229.11829278233844,48.38212834948577 L 232.42493523315176,54.1094010767585 L 250.61146871262497,22.609401076758502 L 243.99818381099834,22.609401076758502 L 229.11829278233844,48.38212834948577 Z"
       id="path41"
       style="vector-effect:non-scaling-stroke;-inkscape-stroke:hairline;stroke-width:0.26458333;stroke-dasharray:none" />
    <path
       d="M 238.4871130596428,22.609401076758502 L 232.42493523315176,22.609401076758502 L 223.33166849341515,38.3594010767585 L 226.3627574066607,43.6094010767585 L 238.4871130596428,22.609401076758502 Z"
       id="path42"
       style="vector-effect:non-scaling-stroke;-inkscape-stroke:hairline;stroke-width:0.26458333;stroke-dasharray:none" />
    <path
       d="M 181.86533479473212,24.918802153516992 L 163.6788013152589,56.41880215351701 L 181.86533479473212,56.41880215351701 L 190.95860153446873,40.66880215351699 L 181.86533479473212,24.918802153516992 Z"
       id="path43"
       style="vector-effect:non-scaling-stroke;-inkscape-stroke:hairline;stroke-width:0.26458333;stroke-dasharray:none" />
    <path
       d="M 149.4922678357857,80.99059892324149 L 185.86533479473212,80.9905989232415 L 176.77206805499551,65.24059892324149 L 158.5855345755223,65.24059892324149 L 149.4922678357857,80.99059892324149 Z"
       id="path44"
       style="vector-effect:non-scaling-stroke;-inkscape-stroke:hairline;stroke-width:0.26458333;stroke-dasharray:none" />
    <path
       d="M 192.74522582339202,55.217871650514226 L 196.05186827420533,49.49059892324151 L 214.23840175367854,80.99059892324149 L 207.62511685205192,80.99059892324149 L 192.74522582339202,55.217871650514226 Z"
       id="path45"
       style="vector-effect:non-scaling-stroke;-inkscape-stroke:hairline;stroke-width:0.26458333;stroke-dasharray:none" />
    <path
       d="M 202.11404610069638,80.99059892324149 L 196.05186827420533,80.99059892324149 L 186.95860153446873,65.24059892324149 L 189.98969044771428,59.99059892324151 L 202.11404610069638,80.99059892324149 Z"
       id="path46"
       style="vector-effect:non-scaling-stroke;-inkscape-stroke:hairline;stroke-width:0.26458333;stroke-dasharray:none" />
    <path
       d="M 218.23840175367854,87.91880215351699 L 236.42493523315176,119.41880215351699 L 218.23840175367854,119.41880215351699 L 209.14513501394194,103.66880215351699 L 218.23840175367854,87.91880215351699 Z"
       id="path47"
       style="vector-effect:non-scaling-stroke;-inkscape-stroke:hairline;stroke-width:0.26458333;stroke-dasharray:none" />
    <path
       d="M 250.61146871262497,143.9905989232415 L 214.23840175367854,143.9905989232415 L 223.33166849341515,128.2405989232415 L 241.51820197288836,128.2405989232415 L 250.61146871262497,143.9905989232415 Z"
       id="path48"
       style="vector-effect:non-scaling-stroke;-inkscape-stroke:hairline;stroke-width:0.26458333;stroke-dasharray:none" />
    <path
       d="M 207.35851072501865,118.21787165051421 L 204.05186827420533,112.49059892324149 L 185.86533479473212,143.9905989232415 L 192.47861969635875,143.9905989232415 L 207.35851072501865,118.21787165051421 Z"
       id="path49"
       style="vector-effect:non-scaling-stroke;-inkscape-stroke:hairline;stroke-width:0.26458333;stroke-dasharray:none" />
    <path
       d="M 197.98969044771425,143.9905989232415 L 204.05186827420533,143.9905989232415 L 213.14513501394194,128.2405989232415 L 210.1140461006964,122.99059892324149 L 197.98969044771425,143.9905989232415 Z"
       id="path50"
       style="vector-effect:non-scaling-stroke;-inkscape-stroke:hairline;stroke-width:0.26458333;stroke-dasharray:none" />
    <path
       d="M 254.61146871262497,141.681197846483 L 272.7980021920982,110.18119784648299 L 254.61146871262497,110.18119784648299 L 245.51820197288836,125.93119784648299 L 254.61146871262497,141.681197846483 Z"
       id="path51"
       style="vector-effect:non-scaling-stroke;-inkscape-stroke:hairline;stroke-width:0.26458333;stroke-dasharray:none" />
    <path
       d="M 286.9845356715714,85.6094010767585 L 250.61146871262497,85.60940107675849 L 259.70473545236155,101.3594010767585 L 277.8912689318348,101.3594010767585 L 286.9845356715714,85.6094010767585 Z"
       id="path52"
       style="vector-effect:non-scaling-stroke;-inkscape-stroke:hairline;stroke-width:0.26458333;stroke-dasharray:none" />
    <path
       d="M 243.73157768396507,111.38212834948577 L 240.42493523315176,117.1094010767585 L 222.23840175367854,85.6094010767585 L 228.85168665530517,85.6094010767585 L 243.73157768396507,111.38212834948577 Z"
       id="path53"
       style="vector-effect:non-scaling-stroke;-inkscape-stroke:hairline;stroke-width:0.26458333;stroke-dasharray:none" />
    <path
       d="M 234.36275740666068,85.6094010767585 L 240.42493523315176,85.6094010767585 L 249.51820197288836,101.3594010767585 L 246.48711305964284,106.6094010767585 L 234.36275740666068,85.6094010767585 Z"
       id="path54"
       style="vector-effect:non-scaling-stroke;-inkscape-stroke:hairline;stroke-width:0.26458333;stroke-dasharray:none" />
    <path
       d="M 290.9845356715714,78.681197846483 L 272.7980021920982,47.181197846483 L 290.9845356715714,47.18119784648299 L 300.07780241130797,62.931197846483 L 290.9845356715714,78.681197846483 Z"
       id="path55"
       style="vector-effect:non-scaling-stroke;-inkscape-stroke:hairline;stroke-width:0.26458333;stroke-dasharray:none" />
    <path
       d="M 258.61146871262497,22.609401076758502 L 294.9845356715714,22.609401076758502 L 285.8912689318348,38.3594010767585 L 267.70473545236155,38.3594010767585 L 258.61146871262497,22.609401076758502 Z"
       id="path56"
       style="vector-effect:non-scaling-stroke;-inkscape-stroke:hairline;stroke-width:0.26458333;stroke-dasharray:none" />
    <path
       d="M 301.8644267002313,48.38212834948577 L 305.1710691510446,54.1094010767585 L 323.3576026305178,22.609401076758502 L 316.7443177288912,22.609401076758502 L 301.8644267002313,48.38212834948577 Z"
       id="path57"
       style="vector-effect:non-scaling-stroke;-inkscape-stroke:hairline;stroke-width:0.26458333;stroke-dasharray:none" />
    <path
       d="M 311.23324697753566,22.609401076758502 L 305.1710691510446,22.609401076758502 L 296.07780241130797,38.3594010767585 L 299.10889132455355,43.6094010767585 L 311.23324697753566,22.609401076758502 Z"
       id="path58"
       style="vector-effect:non-scaling-stroke;-inkscape-stroke:hairline;stroke-width:0.26458333;stroke-dasharray:none" />
    <path
       d="M 254.61146871262497,24.918802153516992 L 236.42493523315176,56.41880215351701 L 254.61146871262497,56.41880215351701 L 263.70473545236155,40.66880215351699 L 254.61146871262497,24.918802153516992 Z"
       id="path59"
       style="vector-effect:non-scaling-stroke;-inkscape-stroke:hairline;stroke-width:0.26458333;stroke-dasharray:none" />
    <path
       d="M 222.23840175367854,80.99059892324149 L 258.61146871262497,80.9905989232415 L 249.51820197288836,65.24059892324149 L 231.33166849341515,65.24059892324149 L 222.23840175367854,80.99059892324149 Z"
       id="path60"
       style="vector-effect:non-scaling-stroke;-inkscape-stroke:hairline;stroke-width:0.26458333;stroke-dasharray:none" />
    <path
       d="M 265.4913597412849,55.217871650514226 L 268.7980021920982,49.49059892324151 L 286.9845356715714,80.99059892324149 L 280.37125076994477,80.99059892324149 L 265.4913597412849,55.217871650514226 Z"
       id="path61"
       style="vector-effect:non-scaling-stroke;-inkscape-stroke:hairline;stroke-width:0.26458333;stroke-dasharray:none" />
    <path
       d="M 274.86018001858923,80.99059892324149 L 268.7980021920982,80.99059892324149 L 259.70473545236155,65.24059892324149 L 262.73582436560713,59.99059892324151 L 274.86018001858923,80.99059892324149 Z"
       id="path62"
       style="vector-effect:non-scaling-stroke;-inkscape-stroke:hairline;stroke-width:0.26458333;stroke-dasharray:none" />
    <path
       d="M 290.9845356715714,87.91880215351699 L 309.1710691510446,119.41880215351699 L 290.9845356715714,119.41880215351699 L 281.8912689318348,103.66880215351699 L 290.9845356715714,87.91880215351699 Z"
       id="path63"
       style="vector-effect:non-scaling-stroke;-inkscape-stroke:hairline;stroke-width:0.26458333;stroke-dasharray:none" />
    <path
       d="M 323.3576026305178,143.9905989232415 L 286.9845356715714,143.9905989232415 L 296.07780241130797,128.2405989232415 L 314.26433589078124,128.2405989232415 L 323.3576026305178,143.9905989232415 Z"
       id="path64"
       style="vector-effect:non-scaling-stroke;-inkscape-stroke:hairline;stroke-width:0.26458333;stroke-dasharray:none" />
    <path
       d="M 280.10464464291147,118.21787165051421 L 276.7980021920982,112.49059892324149 L 258.61146871262497,143.9905989232415 L 265.2247536142516,143.9905989232415 L 280.10464464291147,118.21787165051421 Z"
       id="path65"
       style="vector-effect:non-scaling-stroke;-inkscape-stroke:hairline;stroke-width:0.26458333;stroke-dasharray:none" />
    <path
       d="M 270.73582436560713,143.9905989232415 L 276.7980021920982,143.9905989232415 L 285.89126893183476,128.2405989232415 L 282.86018001858923,122.99059892324149 L 270.73582436560713,143.9905989232415 Z"
       id="path66"
       style="vector-effect:non-scaling-stroke;-inkscape-stroke:hairline;stroke-width:0.26458333;stroke-dasharray:none" />
    <path
       d="M 327.3576026305178,141.681197846483 L 345.54413610999103,110.18119784648299 L 327.3576026305178,110.18119784648299 L 318.26433589078124,125.93119784648299 L 327.3576026305178,141.681197846483 Z"
       id="path67"
       style="vector-effect:non-scaling-stroke;-inkscape-stroke:hairline;stroke-width:0.26458333;stroke-dasharray:none" />
    <path
       d="M 359.73066958946424,85.6094010767585 L 323.3576026305178,85.60940107675849 L 332.4508693702544,101.3594010767585 L 350.63740284972766,101.3594010767585 L 359.73066958946424,85.6094010767585 Z"
       id="path68"
       style="vector-effect:non-scaling-stroke;-inkscape-stroke:hairline;stroke-width:0.26458333;stroke-dasharray:none" />
    <path
       d="M 316.4777116018579,111.38212834948577 L 313.1710691510446,117.1094010767585 L 294.9845356715714,85.6094010767585 L 301.597820573198,85.6094010767585 L 316.4777116018579,111.38212834948577 Z"
       id="path69"
       style="vector-effect:non-scaling-stroke;-inkscape-stroke:hairline;stroke-width:0.26458333;stroke-dasharray:none" />
    <path
       d="M 307.10889132455355,85.6094010767585 L 313.1710691510446,85.6094010767585 L 322.26433589078124,101.3594010767585 L 319.23324697753566,106.6094010767585 L 307.10889132455355,85.6094010767585 Z"
       id="path70"
       style="vector-effect:non-scaling-stroke;-inkscape-stroke:hairline;stroke-width:0.26458333;stroke-dasharray:none" />
    <path
       d="M 363.73066958946424,78.681197846483 L 345.54413610999103,47.181197846483 L 363.73066958946424,47.18119784648299 L 372.8239363292008,62.931197846483 L 363.73066958946424,78.681197846483 Z"
       id="path71"
       style="vector-effect:non-scaling-stroke;-inkscape-stroke:hairline;stroke-width:0.26458333;stroke-dasharray:none" />
    <path
       d="M 331.3576026305178,22.609401076758502 L 367.73066958946424,22.609401076758502 L 358.63740284972766,38.3594010767585 L 340.4508693702544,38.3594010767585 L 331.3576026305178,22.609401076758502 Z"
       id="path72"
       style="vector-effect:non-scaling-stroke;-inkscape-stroke:hairline;stroke-width:0.26458333;stroke-dasharray:none" />
    <path
       d="M 374.61056061812417,48.38212834948577 L 377.91720306893745,54.1094010767585 L 396.10373654841067,22.609401076758502 L 389.49045164678404,22.609401076758502 L 374.61056061812417,48.38212834948577 Z"
       id="path73"
       style="vector-effect:non-scaling-stroke;-inkscape-stroke:hairline;stroke-width:0.26458333;stroke-dasharray:none" />
    <path
       d="M 383.9793808954285,22.609401076758502 L 377.91720306893745,22.609401076758502 L 368.8239363292008,38.3594010767585 L 371.8550252424464,43.6094010767585 L 383.9793808954285,22.609401076758502 Z"
       id="path74"
       style="vector-effect:non-scaling-stroke;-inkscape-stroke:hairline;stroke-width:0.26458333;stroke-dasharray:none" />
    <path
       d="M 327.3576026305178,24.918802153516992 L 309.1710691510446,56.41880215351701 L 327.3576026305178,56.41880215351701 L 336.4508693702544,40.66880215351699 L 327.3576026305178,24.918802153516992 Z"
       id="path75"
       style="vector-effect:non-scaling-stroke;-inkscape-stroke:hairline;stroke-width:0.26458333;stroke-dasharray:none" />
    <path
       d="M 294.9845356715714,80.99059892324149 L 331.3576026305178,80.9905989232415 L 322.26433589078124,65.24059892324149 L 304.07780241130797,65.24059892324149 L 294.9845356715714,80.99059892324149 Z"
       id="path76"
       style="vector-effect:non-scaling-stroke;-inkscape-stroke:hairline;stroke-width:0.26458333;stroke-dasharray:none" />
    <path
       d="M 338.23749365917774,55.217871650514226 L 341.54413610999103,49.49059892324151 L 359.73066958946424,80.99059892324149 L 353.1173846878376,80.99059892324149 L 338.23749365917774,55.217871650514226 Z"
       id="path77"
       style="vector-effect:non-scaling-stroke;-inkscape-stroke:hairline;stroke-width:0.26458333;stroke-dasharray:none" />
    <path
       d="M 347.6063139364821,80.99059892324149 L 341.54413610999103,80.99059892324149 L 332.4508693702544,65.24059892324149 L 335.4819582835,59.99059892324151 L 347.6063139364821,80.99059892324149 Z"
       id="path78"
       style="vector-effect:non-scaling-stroke;-inkscape-stroke:hairline;stroke-width:0.26458333;stroke-dasharray:none" />
    <path
       d="M 363.73066958946424,87.91880215351699 L 381.91720306893745,119.41880215351699 L 363.73066958946424,119.41880215351699 L 354.63740284972766,103.66880215351699 L 363.73066958946424,87.91880215351699 Z"
       id="path79"
       style="vector-effect:non-scaling-stroke;-inkscape-stroke:hairline;stroke-width:0.26458333;stroke-dasharray:none" />
    <path
       d="M 396.10373654841067,143.9905989232415 L 359.73066958946424,143.9905989232415 L 368.8239363292008,128.2405989232415 L 387.0104698086741,128.2405989232415 L 396.10373654841067,143.9905989232415 Z"
       id="path80"
       style="vector-effect:non-scaling-stroke;-inkscape-stroke:hairline;stroke-width:0.26458333;stroke-dasharray:none" />
    <path
       d="M 352.8507785608043,118.21787165051421 L 349.54413610999103,112.49059892324149 L 331.3576026305178,143.9905989232415 L 337.97088753214445,143.9905989232415 L 352.8507785608043,118.21787165051421 Z"
       id="path81"
       style="vector-effect:non-scaling-stroke;-inkscape-stroke:hairline;stroke-width:0.26458333;stroke-dasharray:none" />
    <path
       d="M 343.4819582835,143.9905989232415 L 349.54413610999103,143.9905989232415 L 358.6374028497276,128.2405989232415 L 355.6063139364821,122.99059892324149 L 343.4819582835,143.9905989232415 Z"
       id="path82"
       style="vector-effect:non-scaling-stroke;-inkscape-stroke:hairline;stroke-width:0.26458333;stroke-dasharray:none" />
    <path
       d="M 400.10373654841067,141.681197846483 L 418.2902700278839,110.18119784648299 L 400.10373654841067,110.18119784648299 L 391.0104698086741,125.93119784648299 L 400.10373654841067,141.681197846483 Z"
       id="path83"
       style="vector-effect:non-scaling-stroke;-inkscape-stroke:hairline;stroke-width:0.26458333;stroke-dasharray:none" />
    <path
       d="M 432.4768035073571,85.6094010767585 L 396.10373654841067,85.60940107675849 L 405.19700328814724,101.3594010767585 L 423.3835367676205,101.3594010767585 L 432.4768035073571,85.6094010767585 Z"
       id="path84"
       style="vector-effect:non-scaling-stroke;-inkscape-stroke:hairline;stroke-width:0.26458333;stroke-dasharray:none" />
    <path
       d="M 389.22384551975074,111.38212834948577 L 385.91720306893745,117.1094010767585 L 367.73066958946424,85.6094010767585 L 374.34395449109087,85.6094010767585 L 389.22384551975074,111.38212834948577 Z"
       id="path85"
       style="vector-effect:non-scaling-stroke;-inkscape-stroke:hairline;stroke-width:0.26458333;stroke-dasharray:none" />
    <path
       d="M 379.8550252424464,85.6094010767585 L 385.91720306893745,85.6094010767585 L 395.0104698086741,101.3594010767585 L 391.9793808954285,106.6094010767585 L 379.8550252424464,85.6094010767585 Z"
       id="path86"
       style="vector-effect:non-scaling-stroke;-inkscape-stroke:hairline;stroke-width:0.26458333;stroke-dasharray:none" />
    <path
       d="M 436.4768035073571,78.681197846483 L 418.2902700278839,47.181197846483 L 436.4768035073571,47.18119784648299 L 445.57007024709367,62.931197846483 L 436.4768035073571,78.681197846483 Z"
       id="path87"
       style="vector-effect:non-scaling-stroke;-inkscape-stroke:hairline;stroke-width:0.26458333;stroke-dasharray:none" />
    <path
       d="M 404.10373654841067,22.609401076758502 L 440.4768035073571,22.609401076758502 L 431.3835367676205,38.3594010767585 L 413.19700328814724,38.3594010767585 L 404.10373654841067,22.609401076758502 Z"
       id="path88"
       style="vector-effect:non-scaling-stroke;-inkscape-stroke:hairline;stroke-width:0.26458333;stroke-dasharray:none" />
    <path
       d="M 447.356694536017,48.38212834948577 L 450.6633369868303,54.1094010767585 L 468.8498704663035,22.609401076758502 L 462.2365855646769,22.609401076758502 L 447.356694536017,48.38212834948577 Z"
       id="path89"
       style="vector-effect:non-scaling-stroke;-inkscape-stroke:hairline;stroke-width:0.26458333;stroke-dasharray:none" />
    <path
       d="M 456.72551481332135,22.609401076758502 L 450.6633369868303,22.609401076758502 L 441.57007024709367,38.3594010767585 L 444.60115916033925,43.6094010767585 L 456.72551481332135,22.609401076758502 Z"
       id="path90"
       style="vector-effect:non-scaling-stroke;-inkscape-stroke:hairline;stroke-width:0.26458333;stroke-dasharray:none" />
    <path
       d="M 400.10373654841067,24.918802153516992 L 381.91720306893745,56.41880215351701 L 400.10373654841067,56.41880215351701 L 409.19700328814724,40.66880215351699 L 400.10373654841067,24.918802153516992 Z"
       id="path91"
       style="vector-effect:non-scaling-stroke;-inkscape-stroke:hairline;stroke-width:0.26458333;stroke-dasharray:none" />
    <path
       d="M 367.73066958946424,80.99059892324149 L 404.10373654841067,80.9905989232415 L 395.0104698086741,65.24059892324149 L 376.8239363292008,65.24059892324149 L 367.73066958946424,80.99059892324149 Z"
       id="path92"
       style="vector-effect:non-scaling-stroke;-inkscape-stroke:hairline;stroke-width:0.26458333;stroke-dasharray:none" />
    <path
       d="M 410.9836275770706,55.217871650514226 L 414.2902700278839,49.49059892324151 L 432.4768035073571,80.99059892324149 L 425.86351860573046,80.99059892324149 L 410.9836275770706,55.217871650514226 Z"
       id="path93"
       style="vector-effect:non-scaling-stroke;-inkscape-stroke:hairline;stroke-width:0.26458333;stroke-dasharray:none" />
    <path
       d="M 420.35244785437493,80.99059892324149 L 414.2902700278839,80.99059892324149 L 405.19700328814724,65.24059892324149 L 408.2280922013928,59.99059892324151 L 420.35244785437493,80.99059892324149 Z"
       id="path94"
       style="vector-effect:non-scaling-stroke;-inkscape-stroke:hairline;stroke-width:0.26458333;stroke-dasharray:none" />
    <path
       d="M 436.4768035073571,87.91880215351699 L 454.6633369868303,119.41880215351699 L 436.4768035073571,119.41880215351699 L 427.3835367676205,103.66880215351699 L 436.4768035073571,87.91880215351699 Z"
       id="path95"
       style="vector-effect:non-scaling-stroke;-inkscape-stroke:hairline;stroke-width:0.26458333;stroke-dasharray:none" />
    <path
       d="M 468.8498704663035,143.9905989232415 L 432.4768035073571,143.9905989232415 L 441.57007024709367,128.2405989232415 L 459.75660372656694,128.2405989232415 L 468.8498704663035,143.9905989232415 Z"
       id="path96"
       style="vector-effect:non-scaling-stroke;-inkscape-stroke:hairline;stroke-width:0.26458333;stroke-dasharray:none" />
    <path
       d="M 425.59691247869716,118.21787165051421 L 422.2902700278839,112.49059892324149 L 404.10373654841067,143.9905989232415 L 410.7170214500373,143.9905989232415 L 425.59691247869716,118.21787165051421 Z"
       id="path97"
       style="vector-effect:non-scaling-stroke;-inkscape-stroke:hairline;stroke-width:0.26458333;stroke-dasharray:none" />
    <path
       d="M 416.2280922013928,143.9905989232415 L 422.2902700278839,143.9905989232415 L 431.38353676762046,128.2405989232415 L 428.35244785437493,122.99059892324149 L 416.2280922013928,143.9905989232415 Z"
       id="path98"
       style="vector-effect:non-scaling-stroke;-inkscape-stroke:hairline;stroke-width:0.26458333;stroke-dasharray:none" />
    <path
       d="M 472.8498704663035,141.681197846483 L 491.0364039457767,110.18119784648299 L 472.8498704663035,110.18119784648299 L 463.75660372656694,125.93119784648299 L 472.8498704663035,141.681197846483 Z"
       id="path99"
       style="vector-effect:non-scaling-stroke;-inkscape-stroke:hairline;stroke-width:0.26458333;stroke-dasharray:none" />
    <path
       d="M 505.22293742524994,85.6094010767585 L 468.8498704663035,85.60940107675849 L 477.9431372060401,101.3594010767585 L 496.12967068551336,101.3594010767585 L 505.22293742524994,85.6094010767585 Z"
       id="path100"
       style="vector-effect:non-scaling-stroke;-inkscape-stroke:hairline;stroke-width:0.26458333;stroke-dasharray:none" />
    <path
       d="M 461.9699794376436,111.38212834948577 L 458.6633369868303,117.1094010767585 L 440.4768035073571,85.6094010767585 L 447.0900884089837,85.6094010767585 L 461.9699794376436,111.38212834948577 Z"
       id="path101"
       style="vector-effect:non-scaling-stroke;-inkscape-stroke:hairline;stroke-width:0.26458333;stroke-dasharray:none" />
    <path
       d="M 452.60115916033925,85.6094010767585 L 458.6633369868303,85.6094010767585 L 467.75660372656694,101.3594010767585 L 464.72551481332135,106.6094010767585 L 452.60115916033925,85.6094010767585 Z"
       id="path102"
       style="vector-effect:non-scaling-stroke;-inkscape-stroke:hairline;stroke-width:0.26458333;stroke-dasharray:none" />
    <path
       d="M 509.22293742524994,78.681197846483 L 491.0364039457767,47.181197846483 L 509.22293742524994,47.18119784648299 L 518.3162041649865,62.931197846483 L 509.22293742524994,78.681197846483 Z"
       id="path103"
       style="vector-effect:non-scaling-stroke;-inkscape-stroke:hairline;stroke-width:0.26458333;stroke-dasharray:none" />
    <path
       d="M 476.8498704663035,22.609401076758502 L 513.2229374252499,22.609401076758502 L 504.12967068551336,38.3594010767585 L 485.9431372060401,38.3594010767585 L 476.8498704663035,22.609401076758502 Z"
       id="path104"
       style="vector-effect:non-scaling-stroke;-inkscape-stroke:hairline;stroke-width:0.26458333;stroke-dasharray:none" />
    <path
       d="M 520.1028284539099,48.38212834948577 L 523.4094709047231,54.1094010767585 L 541.5960043841964,22.609401076758502 L 534.9827194825698,22.609401076758502 L 520.1028284539099,48.38212834948577 Z"
       id="path105"
       style="vector-effect:non-scaling-stroke;-inkscape-stroke:hairline;stroke-width:0.26458333;stroke-dasharray:none" />
    <path
       d="M 529.4716487312143,22.609401076758502 L 523.4094709047231,22.609401076758502 L 514.3162041649865,38.3594010767585 L 517.347293078232,43.6094010767585 L 529.4716487312143,22.609401076758502 Z"
       id="path106"
       style="vector-effect:non-scaling-stroke;-inkscape-stroke:hairline;stroke-width:0.26458333;stroke-dasharray:none" />
    <path
       d="M 472.8498704663035,24.918802153516992 L 454.6633369868303,56.41880215351701 L 472.8498704663035,56.41880215351701 L 481.9431372060401,40.66880215351699 L 472.8498704663035,24.918802153516992 Z"
       id="path107"
       style="vector-effect:non-scaling-stroke;-inkscape-stroke:hairline;stroke-width:0.26458333;stroke-dasharray:none" />
    <path
       d="M 440.4768035073571,80.99059892324149 L 476.8498704663035,80.9905989232415 L 467.75660372656694,65.24059892324149 L 449.57007024709367,65.24059892324149 L 440.4768035073571,80.99059892324149 Z"
       id="path108"
       style="vector-effect:non-scaling-stroke;-inkscape-stroke:hairline;stroke-width:0.26458333;stroke-dasharray:none" />
    <path
       d="M 483.72976149496344,55.217871650514226 L 487.0364039457767,49.49059892324151 L 505.22293742524994,80.99059892324149 L 498.6096525236233,80.99059892324149 L 483.72976149496344,55.217871650514226 Z"
       id="path109"
       style="vector-effect:non-scaling-stroke;-inkscape-stroke:hairline;stroke-width:0.26458333;stroke-dasharray:none" />
    <path
       d="M 493.0985817722678,80.99059892324149 L 487.0364039457767,80.99059892324149 L 477.9431372060401,65.24059892324149 L 480.9742261192857,59.99059892324151 L 493.0985817722678,80.99059892324149 Z"
       id="path110"
       style="vector-effect:non-scaling-stroke;-inkscape-stroke:hairline;stroke-width:0.26458333;stroke-dasharray:none" />
    <path
       d="M 509.22293742524994,87.91880215351699 L 527.4094709047232,119.41880215351699 L 509.22293742524994,119.41880215351699 L 500.12967068551336,103.66880215351699 L 509.22293742524994,87.91880215351699 Z"
       id="path111"
       style="vector-effect:non-scaling-stroke;-inkscape-stroke:hairline;stroke-width:0.26458333;stroke-dasharray:none" />
    <path
       d="M 541.5960043841964,143.9905989232415 L 505.22293742524994,143.9905989232415 L 514.3162041649865,128.2405989232415 L 532.5027376444598,128.2405989232415 L 541.5960043841964,143.9905989232415 Z"
       id="path112"
       style="vector-effect:non-scaling-stroke;-inkscape-stroke:hairline;stroke-width:0.26458333;stroke-dasharray:none" />
    <path
       d="M 498.34304639659,118.21787165051421 L 495.0364039457767,112.49059892324149 L 476.8498704663035,143.9905989232415 L 483.46315536793014,143.9905989232415 L 498.34304639659,118.21787165051421 Z"
       id="path113"
       style="vector-effect:non-scaling-stroke;-inkscape-stroke:hairline;stroke-width:0.26458333;stroke-dasharray:none" />
    <path
       d="M 488.9742261192857,143.9905989232415 L 495.0364039457767,143.9905989232415 L 504.1296706855133,128.2405989232415 L 501.0985817722678,122.99059892324149 L 488.9742261192857,143.9905989232415 Z"
       id="path114"
       style="vector-effect:non-scaling-stroke;-inkscape-stroke:hairline;stroke-width:0.26458333;stroke-dasharray:none" />
    <path
       d="M 545.5960043841964,141.681197846483 L 563.7825378636696,110.18119784648299 L 545.5960043841964,110.18119784648299 L 536.5027376444598,125.93119784648299 L 545.5960043841964,141.681197846483 Z"
       id="path115"
       style="vector-effect:non-scaling-stroke;-inkscape-stroke:hairline;stroke-width:0.26458333;stroke-dasharray:none" />
    <path
       d="M 577.9690713431428,85.6094010767585 L 541.5960043841964,85.60940107675849 L 550.6892711239329,101.3594010767585 L 568.8758046034062,101.3594010767585 L 577.9690713431428,85.6094010767585 Z"
       id="path116"
       style="vector-effect:non-scaling-stroke;-inkscape-stroke:hairline;stroke-width:0.26458333;stroke-dasharray:none" />
    <path
       d="M 534.7161133555364,111.38212834948577 L 531.4094709047232,117.1094010767585 L 513.2229374252499,85.6094010767585 L 519.8362223268765,85.6094010767585 L 534.7161133555364,111.38212834948577 Z"
       id="path117"
       style="vector-effect:non-scaling-stroke;-inkscape-stroke:hairline;stroke-width:0.26458333;stroke-dasharray:none" />
    <path
       d="M 525.347293078232,85.6094010767585 L 531.4094709047231,85.6094010767585 L 540.5027376444598,101.3594010767585 L 537.4716487312143,106.6094010767585 L 525.347293078232,85.6094010767585 Z"
       id="path118"
       style="vector-effect:non-scaling-stroke;-inkscape-stroke:hairline;stroke-width:0.26458333;stroke-dasharray:none" />
    <path
       d="M 581.9690713431428,78.681197846483 L 563.7825378636696,47.181197846483 L 581.9690713431428,47.18119784648299 L 591.0623380828794,62.931197846483 L 581.9690713431428,78.681197846483 Z"
       id="path119"
       style="vector-effect:non-scaling-stroke;-inkscape-stroke:hairline;stroke-width:0.26458333;stroke-dasharray:none" />
    <path
       d="M 549.5960043841964,22.609401076758502 L 585.9690713431428,22.609401076758502 L 576.8758046034062,38.3594010767585 L 558.6892711239329,38.3594010767585 L 549.5960043841964,22.609401076758502 Z"
       id="path120"
       style="vector-effect:non-scaling-stroke;-inkscape-stroke:hairline;stroke-width:0.26458333;stroke-dasharray:none" />
    <path
       d="M 592.8489623718027,48.38212834948577 L 596.1556048226159,54.1094010767585 L 614.3421383020892,22.609401076758502 L 607.7288534004626,22.609401076758502 L 592.8489623718027,48.38212834948577 Z"
       id="path121"
       style="vector-effect:non-scaling-stroke;-inkscape-stroke:hairline;stroke-width:0.26458333;stroke-dasharray:none" />
    <path
       d="M 602.2177826491071,22.609401076758502 L 596.1556048226159,22.609401076758502 L 587.0623380828794,38.3594010767585 L 590.0934269961249,43.6094010767585 L 602.2177826491071,22.609401076758502 Z"
       id="path122"
       style="vector-effect:non-scaling-stroke;-inkscape-stroke:hairline;stroke-width:0.26458333;stroke-dasharray:none" />
    <path
       d="M 545.5960043841964,24.918802153516992 L 527.4094709047231,56.41880215351701 L 545.5960043841964,56.41880215351701 L 554.6892711239329,40.66880215351699 L 545.5960043841964,24.918802153516992 Z"
       id="path123"
       style="vector-effect:non-scaling-stroke;-inkscape-stroke:hairline;stroke-width:0.26458333;stroke-dasharray:none" />
    <path
       d="M 513.2229374252499,80.99059892324149 L 549.5960043841964,80.9905989232415 L 540.5027376444598,65.24059892324149 L 522.3162041649865,65.24059892324149 L 513.2229374252499,80.99059892324149 Z"
       id="path124"
       style="vector-effect:non-scaling-stroke;-inkscape-stroke:hairline;stroke-width:0.26458333;stroke-dasharray:none" />
    <path
       d="M 556.4758954128563,55.217871650514226 L 559.7825378636696,49.49059892324151 L 577.9690713431428,80.99059892324149 L 571.3557864415162,80.99059892324149 L 556.4758954128563,55.217871650514226 Z"
       id="path125"
       style="vector-effect:non-scaling-stroke;-inkscape-stroke:hairline;stroke-width:0.26458333;stroke-dasharray:none" />
    <path
       d="M 565.8447156901607,80.99059892324149 L 559.7825378636696,80.99059892324149 L 550.6892711239329,65.24059892324149 L 553.7203600371785,59.99059892324151 L 565.8447156901607,80.99059892324149 Z"
       id="path126"
       style="vector-effect:non-scaling-stroke;-inkscape-stroke:hairline;stroke-width:0.26458333;stroke-dasharray:none" />
    <path
       d="M 581.9690713431428,87.91880215351699 L 600.155604822616,119.41880215351699 L 581.9690713431428,119.41880215351699 L 572.8758046034062,103.66880215351699 L 581.9690713431428,87.91880215351699 Z"
       id="path127"
       style="vector-effect:non-scaling-stroke;-inkscape-stroke:hairline;stroke-width:0.26458333;stroke-dasharray:none" />
    <path
       d="M 614.3421383020892,143.9905989232415 L 577.9690713431428,143.9905989232415 L 587.0623380828794,128.2405989232415 L 605.2488715623526,128.2405989232415 L 614.3421383020892,143.9905989232415 Z"
       id="path128"
       style="vector-effect:non-scaling-stroke;-inkscape-stroke:hairline;stroke-width:0.26458333;stroke-dasharray:none" />
    <path
       d="M 571.0891803144829,118.21787165051421 L 567.7825378636696,112.49059892324149 L 549.5960043841964,143.9905989232415 L 556.2092892858229,143.9905989232415 L 571.0891803144829,118.21787165051421 Z"
       id="path129"
       style="vector-effect:non-scaling-stroke;-inkscape-stroke:hairline;stroke-width:0.26458333;stroke-dasharray:none" />
    <path
       d="M 561.7203600371785,143.9905989232415 L 567.7825378636695,143.9905989232415 L 576.8758046034062,128.2405989232415 L 573.8447156901607,122.99059892324149 L 561.7203600371785,143.9905989232415 Z"
       id="path130"
       style="vector-effect:non-scaling-stroke;-inkscape-stroke:hairline;stroke-width:0.26458333;stroke-dasharray:none" />
    <path
       d="M 618.3421383020892,141.681197846483 L 636.5286717815625,110.18119784648299 L 618.3421383020892,110.18119784648299 L 609.2488715623526,125.93119784648299 L 618.3421383020892,141.681197846483 Z"
       id="path131"
       style="vector-effect:non-scaling-stroke;-inkscape-stroke:hairline;stroke-width:0.26458333;stroke-dasharray:none" />
    <path
       d="M 650.7152052610356,85.6094010767585 L 614.3421383020892,85.60940107675849 L 623.4354050418258,101.3594010767585 L 641.6219385212991,101.3594010767585 L 650.7152052610356,85.6094010767585 Z"
       id="path132"
       style="vector-effect:non-scaling-stroke;-inkscape-stroke:hairline;stroke-width:0.26458333;stroke-dasharray:none" />
    <path
       d="M 607.4622472734293,111.38212834948577 L 604.155604822616,117.1094010767585 L 585.9690713431428,85.6094010767585 L 592.5823562447694,85.6094010767585 L 607.4622472734293,111.38212834948577 Z"
       id="path133"
       style="vector-effect:non-scaling-stroke;-inkscape-stroke:hairline;stroke-width:0.26458333;stroke-dasharray:none" />
    <path
       d="M 598.0934269961249,85.6094010767585 L 604.1556048226159,85.6094010767585 L 613.2488715623526,101.3594010767585 L 610.2177826491071,106.6094010767585 L 598.0934269961249,85.6094010767585 Z"
       id="path134"
       style="vector-effect:non-scaling-stroke;-inkscape-stroke:hairline;stroke-width:0.26458333;stroke-dasharray:none" />
    <path
       d="M 654.7152052610356,78.681197846483 L 636.5286717815625,47.181197846483 L 654.7152052610356,47.18119784648299 L 663.8084720007722,62.931197846483 L 654.7152052610356,78.681197846483 Z"
       id="path135"
       style="vector-effect:non-scaling-stroke;-inkscape-stroke:hairline;stroke-width:0.26458333;stroke-dasharray:none" />
    <path
       d="M 622.3421383020892,22.609401076758502 L 658.7152052610356,22.609401076758502 L 649.6219385212991,38.3594010767585 L 631.4354050418258,38.3594010767585 L 622.3421383020892,22.609401076758502 Z"
       id="path136"
       style="vector-effect:non-scaling-stroke;-inkscape-stroke:hairline;stroke-width:0.26458333;stroke-dasharray:none" />
    <path
       d="M 665.5950962896956,48.38212834948577 L 668.9017387405088,54.1094010767585 L 687.0882722199821,22.609401076758502 L 680.4749873183555,22.609401076758502 L 665.5950962896956,48.38212834948577 Z"
       id="path137"
       style="vector-effect:non-scaling-stroke;-inkscape-stroke:hairline;stroke-width:0.26458333;stroke-dasharray:none" />
    <path
       d="M 674.963916567,22.609401076758502 L 668.9017387405088,22.609401076758502 L 659.8084720007722,38.3594010767585 L 662.8395609140177,43.6094010767585 L 674.963916567,22.609401076758502 Z"
       id="path138"
       style="vector-effect:non-scaling-stroke;-inkscape-stroke:hairline;stroke-width:0.26458333;stroke-dasharray:none" />
    <path
       d="M 618.3421383020892,24.918802153516992 L 600.1556048226159,56.41880215351701 L 618.3421383020892,56.41880215351701 L 627.4354050418258,40.66880215351699 L 618.3421383020892,24.918802153516992 Z"
       id="path139"
       style="vector-effect:non-scaling-stroke;-inkscape-stroke:hairline;stroke-width:0.26458333;stroke-dasharray:none" />
    <path
       d="M 585.9690713431428,80.99059892324149 L 622.3421383020892,80.9905989232415 L 613.2488715623526,65.24059892324149 L 595.0623380828794,65.24059892324149 L 585.9690713431428,80.99059892324149 Z"
       id="path140"
       style="vector-effect:non-scaling-stroke;-inkscape-stroke:hairline;stroke-width:0.26458333;stroke-dasharray:none" />
    <path
       d="M 629.2220293307491,55.217871650514226 L 632.5286717815625,49.49059892324151 L 650.7152052610356,80.99059892324149 L 644.1019203594091,80.99059892324149 L 629.2220293307491,55.217871650514226 Z"
       id="path141"
       style="vector-effect:non-scaling-stroke;-inkscape-stroke:hairline;stroke-width:0.26458333;stroke-dasharray:none" />
    <path
       d="M 638.5908496080535,80.99059892324149 L 632.5286717815625,80.99059892324149 L 623.4354050418258,65.24059892324149 L 626.4664939550713,59.99059892324151 L 638.5908496080535,80.99059892324149 Z"
       id="path142"
       style="vector-effect:non-scaling-stroke;-inkscape-stroke:hairline;stroke-width:0.26458333;stroke-dasharray:none" />
    <path
       d="M 654.7152052610356,87.91880215351699 L 672.9017387405089,119.41880215351699 L 654.7152052610356,119.41880215351699 L 645.6219385212991,103.66880215351699 L 654.7152052610356,87.91880215351699 Z"
       id="path143"
       style="vector-effect:non-scaling-stroke;-inkscape-stroke:hairline;stroke-width:0.26458333;stroke-dasharray:none" />
    <path
       d="M 687.0882722199821,143.9905989232415 L 650.7152052610356,143.9905989232415 L 659.8084720007722,128.2405989232415 L 677.9950054802455,128.2405989232415 L 687.0882722199821,143.9905989232415 Z"
       id="path144"
       style="vector-effect:non-scaling-stroke;-inkscape-stroke:hairline;stroke-width:0.26458333;stroke-dasharray:none" />
    <path
       d="M 643.8353142323757,118.21787165051421 L 640.5286717815625,112.49059892324149 L 622.3421383020892,143.9905989232415 L 628.9554232037158,143.9905989232415 L 643.8353142323757,118.21787165051421 Z"
       id="path145"
       style="vector-effect:non-scaling-stroke;-inkscape-stroke:hairline;stroke-width:0.26458333;stroke-dasharray:none" />
    <path
       d="M 634.4664939550713,143.9905989232415 L 640.5286717815624,143.9905989232415 L 649.6219385212991,128.2405989232415 L 646.5908496080535,122.99059892324149 L 634.4664939550713,143.9905989232415 Z"
       id="path146"
       style="vector-effect:non-scaling-stroke;-inkscape-stroke:hairline;stroke-width:0.26458333;stroke-dasharray:none" />
    <path
       d="M 691.0882722199821,141.681197846483 L 709.2748056994553,110.18119784648299 L 691.0882722199821,110.18119784648299 L 681.9950054802455,125.93119784648299 L 691.0882722199821,141.681197846483 Z"
       id="path147"
       style="vector-effect:non-scaling-stroke;-inkscape-stroke:hairline;stroke-width:0.26458333;stroke-dasharray:none" />
    <path
       d="M 723.4613391789285,85.6094010767585 L 687.0882722199821,85.60940107675849 L 696.1815389597186,101.3594010767585 L 714.3680724391919,101.3594010767585 L 723.4613391789285,85.6094010767585 Z"
       id="path148"
       style="vector-effect:non-scaling-stroke;-inkscape-stroke:hairline;stroke-width:0.26458333;stroke-dasharray:none" />
    <path
       d="M 680.2083811913221,111.38212834948577 L 676.9017387405089,117.1094010767585 L 658.7152052610356,85.6094010767585 L 665.3284901626622,85.6094010767585 L 680.2083811913221,111.38212834948577 Z"
       id="path149"
       style="vector-effect:non-scaling-stroke;-inkscape-stroke:hairline;stroke-width:0.26458333;stroke-dasharray:none" />
    <path
       d="M 670.8395609140177,85.6094010767585 L 676.9017387405088,85.6094010767585 L 685.9950054802455,101.3594010767585 L 682.963916567,106.6094010767585 L 670.8395609140177,85.6094010767585 Z"
       id="path150"
       style="vector-effect:non-scaling-stroke;-inkscape-stroke:hairline;stroke-width:0.26458333;stroke-dasharray:none" />
    <path
       d="M 727.4613391789285,78.681197846483 L 709.2748056994553,47.181197846483 L 727.4613391789285,47.18119784648299 L 736.5546059186651,62.931197846483 L 727.4613391789285,78.681197846483 Z"
       id="path151"
       style="vector-effect:non-scaling-stroke;-inkscape-stroke:hairline;stroke-width:0.26458333;stroke-dasharray:none" />
    <path
       d="M 695.0882722199821,22.609401076758502 L 731.4613391789285,22.609401076758502 L 722.3680724391919,38.3594010767585 L 704.1815389597186,38.3594010767585 L 695.0882722199821,22.609401076758502 Z"
       id="path152"
       style="vector-effect:non-scaling-stroke;-inkscape-stroke:hairline;stroke-width:0.26458333;stroke-dasharray:none" />
    <path
       d="M 738.3412302075884,48.38212834948577 L 741.6478726584016,54.1094010767585 L 759.8344061378749,22.609401076758502 L 753.2211212362483,22.609401076758502 L 738.3412302075884,48.38212834948577 Z"
       id="path153"
       style="vector-effect:non-scaling-stroke;-inkscape-stroke:hairline;stroke-width:0.26458333;stroke-dasharray:none" />
    <path
       d="M 747.7100504848928,22.609401076758502 L 741.6478726584016,22.609401076758502 L 732.5546059186651,38.3594010767585 L 735.5856948319106,43.6094010767585 L 747.7100504848928,22.609401076758502 Z"
       id="path154"
       style="vector-effect:non-scaling-stroke;-inkscape-stroke:hairline;stroke-width:0.26458333;stroke-dasharray:none" />
    <path
       d="M 691.0882722199821,24.918802153516992 L 672.9017387405088,56.41880215351701 L 691.0882722199821,56.41880215351701 L 700.1815389597186,40.66880215351699 L 691.0882722199821,24.918802153516992 Z"
       id="path155"
       style="vector-effect:non-scaling-stroke;-inkscape-stroke:hairline;stroke-width:0.26458333;stroke-dasharray:none" />
    <path
       d="M 658.7152052610356,80.99059892324149 L 695.0882722199821,80.9905989232415 L 685.9950054802455,65.24059892324149 L 667.8084720007722,65.24059892324149 L 658.7152052610356,80.99059892324149 Z"
       id="path156"
       style="vector-effect:non-scaling-stroke;-inkscape-stroke:hairline;stroke-width:0.26458333;stroke-dasharray:none" />
    <path
       d="M 701.968163248642,55.217871650514226 L 705.2748056994553,49.49059892324151 L 723.4613391789285,80.99059892324149 L 716.8480542773019,80.99059892324149 L 701.968163248642,55.217871650514226 Z"
       id="path157"
       style="vector-effect:non-scaling-stroke;-inkscape-stroke:hairline;stroke-width:0.26458333;stroke-dasharray:none" />
    <path
       d="M 711.3369835259464,80.99059892324149 L 705.2748056994553,80.99059892324149 L 696.1815389597186,65.24059892324149 L 699.2126278729642,59.99059892324151 L 711.3369835259464,80.99059892324149 Z"
       id="path158"
       style="vector-effect:non-scaling-stroke;-inkscape-stroke:hairline;stroke-width:0.26458333;stroke-dasharray:none" />
    <path
       d="M 727.4613391789285,87.91880215351699 L 745.6478726584018,119.41880215351699 L 727.4613391789285,119.41880215351699 L 718.3680724391919,103.66880215351699 L 727.4613391789285,87.91880215351699 Z"
       id="path159"
       style="vector-effect:non-scaling-stroke;-inkscape-stroke:hairline;stroke-width:0.26458333;stroke-dasharray:none" />
    <path
       d="M 759.8344061378749,143.9905989232415 L 723.4613391789285,143.9905989232415 L 732.5546059186651,128.2405989232415 L 750.7411393981383,128.2405989232415 L 759.8344061378749,143.9905989232415 Z"
       id="path160"
       style="vector-effect:non-scaling-stroke;-inkscape-stroke:hairline;stroke-width:0.26458333;stroke-dasharray:none" />
    <path
       d="M 716.5814481502686,118.21787165051421 L 713.2748056994553,112.49059892324149 L 695.0882722199821,143.9905989232415 L 701.7015571216086,143.9905989232415 L 716.5814481502686,118.21787165051421 Z"
       id="path161"
       style="vector-effect:non-scaling-stroke;-inkscape-stroke:hairline;stroke-width:0.26458333;stroke-dasharray:none" />
    <path
       d="M 707.2126278729642,143.9905989232415 L 713.2748056994552,143.9905989232415 L 722.3680724391919,128.2405989232415 L 719.3369835259464,122.99059892324149 L 707.2126278729642,143.9905989232415 Z"
       id="path162"
       style="vector-effect:non-scaling-stroke;-inkscape-stroke:hairline;stroke-width:0.26458333;stroke-dasharray:none" />
    <path
       d="M 763.8344061378749,141.681197846483 L 782.0209396173482,110.18119784648299 L 763.8344061378749,110.18119784648299 L 754.7411393981383,125.93119784648299 L 763.8344061378749,141.681197846483 Z"
       id="path163"
       style="vector-effect:non-scaling-stroke;-inkscape-stroke:hairline;stroke-width:0.26458333;stroke-dasharray:none" />
    <path
       d="M 796.2074730968213,85.6094010767585 L 759.8344061378749,85.60940107675849 L 768.9276728776115,101.3594010767585 L 787.1142063570848,101.3594010767585 L 796.2074730968213,85.6094010767585 Z"
       id="path164"
       style="vector-effect:non-scaling-stroke;-inkscape-stroke:hairline;stroke-width:0.26458333;stroke-dasharray:none" />
    <path
       d="M 752.954515109215,111.38212834948577 L 749.6478726584018,117.1094010767585 L 731.4613391789285,85.6094010767585 L 738.074624080555,85.6094010767585 L 752.954515109215,111.38212834948577 Z"
       id="path165"
       style="vector-effect:non-scaling-stroke;-inkscape-stroke:hairline;stroke-width:0.26458333;stroke-dasharray:none" />
    <path
       d="M 743.5856948319106,85.6094010767585 L 749.6478726584016,85.6094010767585 L 758.7411393981383,101.3594010767585 L 755.7100504848928,106.6094010767585 L 743.5856948319106,85.6094010767585 Z"
       id="path166"
       style="vector-effect:non-scaling-stroke;-inkscape-stroke:hairline;stroke-width:0.26458333;stroke-dasharray:none" />
    <path
       d="M 800.2074730968213,78.681197846483 L 782.0209396173482,47.181197846483 L 800.2074730968213,47.18119784648299 L 809.3007398365579,62.931197846483 L 800.2074730968213,78.681197846483 Z"
       id="path167"
       style="vector-effect:non-scaling-stroke;-inkscape-stroke:hairline;stroke-width:0.26458333;stroke-dasharray:none" />
    <path
       d="M 767.8344061378749,22.609401076758502 L 804.2074730968213,22.609401076758502 L 795.1142063570848,38.3594010767585 L 776.9276728776115,38.3594010767585 L 767.8344061378749,22.609401076758502 Z"
       id="path168"
       style="vector-effect:non-scaling-stroke;-inkscape-stroke:hairline;stroke-width:0.26458333;stroke-dasharray:none" />
    <path
       d="M 811.0873641254813,48.38212834948577 L 814.3940065762945,54.1094010767585 L 832.5805400557678,22.609401076758502 L 825.9672551541412,22.609401076758502 L 811.0873641254813,48.38212834948577 Z"
       id="path169"
       style="vector-effect:non-scaling-stroke;-inkscape-stroke:hairline;stroke-width:0.26458333;stroke-dasharray:none" />
    <path
       d="M 820.4561844027857,22.609401076758502 L 814.3940065762945,22.609401076758502 L 805.3007398365579,38.3594010767585 L 808.3318287498034,43.6094010767585 L 820.4561844027857,22.609401076758502 Z"
       id="path170"
       style="vector-effect:non-scaling-stroke;-inkscape-stroke:hairline;stroke-width:0.26458333;stroke-dasharray:none" />
    <path
       d="M 763.8344061378749,24.918802153516992 L 745.6478726584016,56.41880215351701 L 763.8344061378749,56.41880215351701 L 772.9276728776115,40.66880215351699 L 763.8344061378749,24.918802153516992 Z"
       id="path171"
       style="vector-effect:non-scaling-stroke;-inkscape-stroke:hairline;stroke-width:0.26458333;stroke-dasharray:none" />
    <path
       d="M 731.4613391789285,80.99059892324149 L 767.8344061378749,80.9905989232415 L 758.7411393981383,65.24059892324149 L 740.5546059186651,65.24059892324149 L 731.4613391789285,80.99059892324149 Z"
       id="path172"
       style="vector-effect:non-scaling-stroke;-inkscape-stroke:hairline;stroke-width:0.26458333;stroke-dasharray:none" />
    <path
       d="M 774.7142971665348,55.217871650514226 L 778.0209396173482,49.49059892324151 L 796.2074730968213,80.99059892324149 L 789.5941881951948,80.99059892324149 L 774.7142971665348,55.217871650514226 Z"
       id="path173"
       style="vector-effect:non-scaling-stroke;-inkscape-stroke:hairline;stroke-width:0.26458333;stroke-dasharray:none" />
    <path
       d="M 784.0831174438392,80.99059892324149 L 778.0209396173482,80.99059892324149 L 768.9276728776115,65.24059892324149 L 771.958761790857,59.99059892324151 L 784.0831174438392,80.99059892324149 Z"
       id="path174"
       style="vector-effect:non-scaling-stroke;-inkscape-stroke:hairline;stroke-width:0.26458333;stroke-dasharray:none" />
    <path
       d="M 800.2074730968213,87.91880215351699 L 818.3940065762946,119.41880215351699 L 800.2074730968213,119.41880215351699 L 791.1142063570848,103.66880215351699 L 800.2074730968213,87.91880215351699 Z"
       id="path175"
       style="vector-effect:non-scaling-stroke;-inkscape-stroke:hairline;stroke-width:0.26458333;stroke-dasharray:none" />
    <path
       d="M 832.5805400557678,143.9905989232415 L 796.2074730968213,143.9905989232415 L 805.3007398365579,128.2405989232415 L 823.4872733160312,128.2405989232415 L 832.5805400557678,143.9905989232415 Z"
       id="path176"
       style="vector-effect:non-scaling-stroke;-inkscape-stroke:hairline;stroke-width:0.26458333;stroke-dasharray:none" />
    <path
       d="M 789.3275820681614,118.21787165051421 L 786.0209396173482,112.49059892324149 L 767.8344061378749,143.9905989232415 L 774.4476910395015,143.9905989232415 L 789.3275820681614,118.21787165051421 Z"
       id="path177"
       style="vector-effect:non-scaling-stroke;-inkscape-stroke:hairline;stroke-width:0.26458333;stroke-dasharray:none" />
    <path
       d="M 779.958761790857,143.9905989232415 L 786.0209396173481,143.9905989232415 L 795.1142063570848,128.2405989232415 L 792.0831174438392,122.99059892324149 L 779.958761790857,143.9905989232415 Z"
       id="path178"
       style="vector-effect:non-scaling-stroke;-inkscape-stroke:hairline;stroke-width:0.26458333;stroke-dasharray:none" />
    <path
       d="M 836.5805400557678,141.681197846483 L 854.767073535241,110.18119784648299 L 836.5805400557678,110.18119784648299 L 827.4872733160312,125.93119784648299 L 836.5805400557678,141.681197846483 Z"
       id="path179"
       style="vector-effect:non-scaling-stroke;-inkscape-stroke:hairline;stroke-width:0.26458333;stroke-dasharray:none" />
    <path
       d="M 868.9536070147142,85.6094010767585 L 832.5805400557678,85.60940107675849 L 841.6738067955043,101.3594010767585 L 859.8603402749776,101.3594010767585 L 868.9536070147142,85.6094010767585 Z"
       id="path180"
       style="vector-effect:non-scaling-stroke;-inkscape-stroke:hairline;stroke-width:0.26458333;stroke-dasharray:none" />
    <path
       d="M 825.7006490271078,111.38212834948577 L 822.3940065762946,117.1094010767585 L 804.2074730968213,85.6094010767585 L 810.8207579984479,85.6094010767585 L 825.7006490271078,111.38212834948577 Z"
       id="path181"
       style="vector-effect:non-scaling-stroke;-inkscape-stroke:hairline;stroke-width:0.26458333;stroke-dasharray:none" />
    <path
       d="M 816.3318287498034,85.6094010767585 L 822.3940065762945,85.6094010767585 L 831.4872733160312,101.3594010767585 L 828.4561844027857,106.6094010767585 L 816.3318287498034,85.6094010767585 Z"
       id="path182"
       style="vector-effect:non-scaling-stroke;-inkscape-stroke:hairline;stroke-width:0.26458333;stroke-dasharray:none" />
    <path
       d="M 872.9536070147142,78.681197846483 L 854.767073535241,47.181197846483 L 872.9536070147142,47.18119784648299 L 882.0468737544508,62.931197846483 L 872.9536070147142,78.681197846483 Z"
       id="path183"
       style="vector-effect:non-scaling-stroke;-inkscape-stroke:hairline;stroke-width:0.26458333;stroke-dasharray:none" />
    <path
       d="M 840.5805400557678,22.609401076758502 L 876.9536070147142,22.609401076758502 L 867.8603402749776,38.3594010767585 L 849.6738067955043,38.3594010767585 L 840.5805400557678,22.609401076758502 Z"
       id="path184"
       style="vector-effect:non-scaling-stroke;-inkscape-stroke:hairline;stroke-width:0.26458333;stroke-dasharray:none" />
    <path
       d="M 887.1401404941873,54.1094010767585 L 883.8334980433741,48.38212834948577 L 890.0,37.70143365563686 L 890.0,49.15597911018216 L 887.1401404941873,54.1094010767585 Z"
       id="path185"
       style="vector-effect:non-scaling-stroke;-inkscape-stroke:hairline;stroke-width:0.26458333;stroke-dasharray:none" />
    <path
       d="M 881.0779626676963,43.6094010767585 L 878.0468737544508,38.3594010767585 L 887.1401404941873,22.609401076758502 L 890.0,22.609401076758502 L 890.0,28.155979110182273 L 881.0779626676963,43.6094010767585 Z"
       id="path186"
       style="vector-effect:non-scaling-stroke;-inkscape-stroke:hairline;stroke-width:0.26458333;stroke-dasharray:none" />
    <path
       d="M 836.5805400557678,24.918802153516992 L 818.3940065762945,56.41880215351701 L 836.5805400557678,56.41880215351701 L 845.6738067955043,40.66880215351699 L 836.5805400557678,24.918802153516992 Z"
       id="path187"
       style="vector-effect:non-scaling-stroke;-inkscape-stroke:hairline;stroke-width:0.26458333;stroke-dasharray:none" />
    <path
       d="M 804.2074730968213,80.99059892324149 L 840.5805400557678,80.9905989232415 L 831.4872733160312,65.24059892324149 L 813.3007398365579,65.24059892324149 L 804.2074730968213,80.99059892324149 Z"
       id="path188"
       style="vector-effect:non-scaling-stroke;-inkscape-stroke:hairline;stroke-width:0.26458333;stroke-dasharray:none" />
    <path
       d="M 847.4604310844277,55.217871650514226 L 850.767073535241,49.49059892324151 L 868.9536070147142,80.99059892324149 L 862.3403221130876,80.99059892324149 L 847.4604310844277,55.217871650514226 Z"
       id="path189"
       style="vector-effect:non-scaling-stroke;-inkscape-stroke:hairline;stroke-width:0.26458333;stroke-dasharray:none" />
    <path
       d="M 856.8292513617321,80.99059892324149 L 850.767073535241,80.99059892324149 L 841.6738067955043,65.24059892324149 L 844.7048957087499,59.99059892324151 L 856.8292513617321,80.99059892324149 Z"
       id="path190"
       style="vector-effect:non-scaling-stroke;-inkscape-stroke:hairline;stroke-width:0.26458333;stroke-dasharray:none" />
    <path
       d="M 890.0,117.44402088981766 L 890.0,119.41880215351699 L 872.9536070147142,119.41880215351699 L 863.8603402749776,103.66880215351699 L 872.9536070147142,87.91880215351699 L 890.0,117.44402088981766 Z"
       id="path191"
       style="vector-effect:non-scaling-stroke;-inkscape-stroke:hairline;stroke-width:0.26458333;stroke-dasharray:none" />
    <path
       d="M 868.9536070147142,143.9905989232415 L 878.0468737544508,128.2405989232415 L 890.0,128.2405989232415 L 890.0,143.9905989232415 L 868.9536070147142,143.9905989232415 Z"
       id="path192"
       style="vector-effect:non-scaling-stroke;-inkscape-stroke:hairline;stroke-width:0.26458333;stroke-dasharray:none" />
    <path
       d="M 862.0737159860543,118.21787165051421 L 858.767073535241,112.49059892324149 L 840.5805400557678,143.9905989232415 L 847.1938249573943,143.9905989232415 L 862.0737159860543,118.21787165051421 Z"
       id="path193"
       style="vector-effect:non-scaling-stroke;-inkscape-stroke:hairline;stroke-width:0.26458333;stroke-dasharray:none" />
    <path
       d="M 852.7048957087499,143.9905989232415 L 858.7670735352409,143.9905989232415 L 867.8603402749776,128.2405989232415 L 864.8292513617321,122.99059892324149 L 852.7048957087499,143.9905989232415 Z"
       id="path194"
       style="vector-effect:non-scaling-stroke;-inkscape-stroke:hairline;stroke-width:0.26458333;stroke-dasharray:none" />
    <path
       d="M 876.9536070147142,85.6094010767585 L 883.5668919163408,85.6094010767585 L 890.0,96.75187112823835 L 890.0,108.20641658278367 L 876.9536070147142,85.6094010767585 Z"
       id="path195"
       style="vector-effect:non-scaling-stroke;-inkscape-stroke:hairline;stroke-width:0.26458333;stroke-dasharray:none" />
    <path
       d="M 876.9536070147142,80.99059892324149 L 886.0468737544508,65.24059892324149 L 890.0,65.24059892324149 L 890.0,80.99059892324149 L 876.9536070147142,80.99059892324149 Z"
       id="path196"
       style="vector-effect:non-scaling-stroke;-inkscape-stroke:hairline;stroke-width:0.26458333;stroke-dasharray:none" />
    <path
       d="M 0.0,170.0 L 905.0,170.0 L 905.0,0.0 L 0.0,0.0 L 0.0,170.0 Z"
       id="path197"
       style="vector-effect:non-scaling-stroke;-inkscape-stroke:hairline;stroke-width:0.26458333;stroke-dasharray:none" />
  </g>
</svg>
