<?xml version="1.0" encoding="UTF-8" standalone="no"?>
<svg
   height="300mm"
   version="1.1"
   viewBox="0 0 1200 300"
   width="1200mm"
   id="svg202"
   sodipodi:docname="final_poly_combination.svg"
   inkscape:version="1.4.2 (1:1.4.2+202505120737+ebf0e940d0)"
   xmlns:inkscape="http://www.inkscape.org/namespaces/inkscape"
   xmlns:sodipodi="http://sodipodi.sourceforge.net/DTD/sodipodi-0.dtd"
   xmlns="http://www.w3.org/2000/svg"
   xmlns:svg="http://www.w3.org/2000/svg">
  <sodipodi:namedview
     id="namedview202"
     pagecolor="#ffffff"
     bordercolor="#666666"
     borderopacity="1.0"
     inkscape:showpageshadow="2"
     inkscape:pageopacity="0.0"
     inkscape:pagecheckerboard="0"
     inkscape:deskcolor="#d1d1d1"
     inkscape:document-units="mm"
     inkscape:zoom="0.36799132"
     inkscape:cx="2267.7165"
     inkscape:cy="567.94818"
     inkscape:window-width="1920"
     inkscape:window-height="1011"
     inkscape:window-x="0"
     inkscape:window-y="0"
     inkscape:window-maximized="1"
     inkscape:current-layer="svg202" />
  <defs
     id="defs1" />
  <g
     fill="none"
     stroke="blue"
     stroke-width="0.5"
     transform="translate(147.5,65.0)"
     id="g202"
     style="vector-effect:non-scaling-stroke;-inkscape-stroke:hairline;stroke-width:0.26458333;stroke-dasharray:none">
    <path
       d="M 31.507041555161983,143.9905989232415 L 16.0,143.9905989232415 L 16.0,117.13161507461902 L 31.507041555161983,143.9905989232415 Z"
       id="path1"
       style="vector-effect:non-scaling-stroke;-inkscape-stroke:hairline;stroke-width:0.26458333;stroke-dasharray:none" />
    <path
       d="M 35.50704155516198,141.681197846483 L 53.26056233274298,110.931197846483 L 35.50704155516198,110.931197846483 L 26.63028116637149,126.306197846483 L 35.50704155516198,141.681197846483 Z"
       id="path2"
       style="vector-effect:non-scaling-stroke;-inkscape-stroke:hairline;stroke-width:0.26458333;stroke-dasharray:none" />
    <path
       d="M 67.01408311032398,87.1094010767585 L 31.50704155516199,87.1094010767585 L 40.38380194395248,102.4844010767585 L 58.13732272153347,102.4844010767585 L 67.01408311032398,87.1094010767585 Z"
       id="path3"
       style="vector-effect:non-scaling-stroke;-inkscape-stroke:hairline;stroke-width:0.26458333;stroke-dasharray:none" />
    <path
       d="M 21.753520777580995,117.8594010767585 L 16.0,107.89401076758503 L 16.0,99.10829648187075 L 24.289738031521132,113.46654393390136 L 21.753520777580995,117.8594010767585 Z"
       id="path4"
       style="vector-effect:non-scaling-stroke;-inkscape-stroke:hairline;stroke-width:0.26458333;stroke-dasharray:none" />
    <path
       d="M 21.753520777580984,87.1094010767585 L 30.630281166371482,102.4844010767585 L 27.671361036774655,107.6094010767585 L 16.0,87.39401076758503 L 16.0,87.1094010767585 L 21.753520777580984,87.1094010767585 Z"
       id="path5"
       style="vector-effect:non-scaling-stroke;-inkscape-stroke:hairline;stroke-width:0.26458333;stroke-dasharray:none" />
    <path
       d="M 67.01408311032398,82.4905989232415 L 49.26056233274299,51.74059892324151 L 40.38380194395249,67.1155989232415 L 49.26056233274298,82.4905989232415 L 67.01408311032398,82.4905989232415 Z"
       id="path6"
       style="vector-effect:non-scaling-stroke;-inkscape-stroke:hairline;stroke-width:0.26458333;stroke-dasharray:none" />
    <path
       d="M 35.507041555162004,27.91880215351702 L 17.753520777580995,58.66880215351701 L 35.50704155516199,58.66880215351702 L 44.38380194395249,43.29380215351702 L 35.507041555162004,27.91880215351702 Z"
       id="path7"
       style="vector-effect:non-scaling-stroke;-inkscape-stroke:hairline;stroke-width:0.26458333;stroke-dasharray:none" />
    <path
       d="M 39.50704155516199,82.4905989232415 L 16.0,82.4905989232415 L 16.0,78.09774178038437 L 36.970824301221846,78.09774178038437 L 39.50704155516199,82.4905989232415 Z"
       id="path8"
       style="vector-effect:non-scaling-stroke;-inkscape-stroke:hairline;stroke-width:0.26458333;stroke-dasharray:none" />
    <path
       d="M 30.630281166371496,67.11559892324152 L 33.58920129596832,72.2405989232415 L 16.0,72.2405989232415 L 16.0,67.11559892324152 L 30.630281166371496,67.11559892324152 Z"
       id="path9"
       style="vector-effect:non-scaling-stroke;-inkscape-stroke:hairline;stroke-width:0.26458333;stroke-dasharray:none" />
    <path
       d="M 31.507041555161983,25.609401076758502 L 22.63028116637149,40.9844010767585 L 16.0,40.9844010767585 L 16.0,25.609401076758502 L 31.507041555161983,25.609401076758502 Z"
       id="path10"
       style="vector-effect:non-scaling-stroke;-inkscape-stroke:hairline;stroke-width:0.26458333;stroke-dasharray:none" />
    <path
       d="M 75.01408311032398,82.49059892324149 L 110.52112466548596,82.49059892324149 L 101.64436427669546,67.11559892324149 L 83.89084349911447,67.11559892324149 L 75.01408311032398,82.49059892324149 Z"
       id="path11"
       style="vector-effect:non-scaling-stroke;-inkscape-stroke:hairline;stroke-width:0.26458333;stroke-dasharray:none" />
    <path
       d="M 138.02816622064793,82.49059892324149 L 120.27464544306696,51.74059892324149 L 111.39788505427646,67.11559892324149 L 120.27464544306694,82.49059892324149 L 138.02816622064793,82.49059892324149 Z"
       id="path12"
       style="vector-effect:non-scaling-stroke;-inkscape-stroke:hairline;stroke-width:0.26458333;stroke-dasharray:none" />
    <path
       d="M 93.84003839578524,58.66880215351701 L 88.76760388790497,58.66880215351701 L 106.52112466548596,27.918802153516992 L 109.0573419194261,32.31165929637416 L 93.84003839578524,58.66880215351701 Z"
       id="path13"
       style="vector-effect:non-scaling-stroke;-inkscape-stroke:hairline;stroke-width:0.26458333;stroke-dasharray:none" />
    <path
       d="M 112.43896492467961,38.16880215351699 L 115.39788505427644,43.29380215351701 L 106.52112466548596,58.66880215351701 L 100.60328440629229,58.66880215351701 L 112.43896492467961,38.16880215351699 Z"
       id="path14"
       style="vector-effect:non-scaling-stroke;-inkscape-stroke:hairline;stroke-width:0.26458333;stroke-dasharray:none" />
    <path
       d="M 142.02816622064793,80.181197846483 L 159.78168699822893,49.431197846483 L 142.02816622064793,49.43119784648299 L 133.15140583185746,64.806197846483 L 142.02816622064793,80.181197846483 Z"
       id="path15"
       style="vector-effect:non-scaling-stroke;-inkscape-stroke:hairline;stroke-width:0.26458333;stroke-dasharray:none" />
    <path
       d="M 173.53520777580994,25.609401076758502 L 138.02816622064796,25.609401076758502 L 146.90492660943843,40.9844010767585 L 164.65844738701944,40.9844010767585 L 173.53520777580994,25.609401076758502 Z"
       id="path16"
       style="vector-effect:non-scaling-stroke;-inkscape-stroke:hairline;stroke-width:0.26458333;stroke-dasharray:none" />
    <path
       d="M 130.81086269700708,51.96654393390136 L 128.27464544306696,56.3594010767585 L 110.52112466548596,25.609401076758502 L 115.59355917336623,25.609401076758502 L 130.81086269700708,51.96654393390136 Z"
       id="path17"
       style="vector-effect:non-scaling-stroke;-inkscape-stroke:hairline;stroke-width:0.26458333;stroke-dasharray:none" />
    <path
       d="M 122.35680518387329,25.609401076758502 L 128.27464544306693,25.609401076758502 L 137.15140583185743,40.9844010767585 L 134.19248570226063,46.1094010767585 L 122.35680518387329,25.609401076758502 Z"
       id="path18"
       style="vector-effect:non-scaling-stroke;-inkscape-stroke:hairline;stroke-width:0.26458333;stroke-dasharray:none" />
    <path
       d="M 39.507041555161976,25.609401076758502 L 57.26056233274298,56.359401076758516 L 66.13732272153348,40.9844010767585 L 57.26056233274298,25.609401076758502 L 39.507041555161976,25.609401076758502 Z"
       id="path19"
       style="vector-effect:non-scaling-stroke;-inkscape-stroke:hairline;stroke-width:0.26458333;stroke-dasharray:none" />
    <path
       d="M 71.01408311032398,80.18119784648299 L 88.76760388790497,49.431197846483 L 71.01408311032398,49.431197846483 L 62.13732272153348,64.806197846483 L 71.01408311032398,80.18119784648299 Z"
       id="path20"
       style="vector-effect:non-scaling-stroke;-inkscape-stroke:hairline;stroke-width:0.26458333;stroke-dasharray:none" />
    <path
       d="M 69.5503003642641,30.00225821961567 L 67.01408311032398,25.609401076758502 L 102.52112466548596,25.609401076758502 L 99.9849074115458,30.002258219615612 L 69.5503003642641,30.00225821961567 Z"
       id="path21"
       style="vector-effect:non-scaling-stroke;-inkscape-stroke:hairline;stroke-width:0.26458333;stroke-dasharray:none" />
    <path
       d="M 96.60328440629229,35.8594010767585 L 93.64436427669546,40.9844010767585 L 75.89084349911447,40.9844010767585 L 72.93192336951763,35.8594010767585 L 96.60328440629229,35.8594010767585 Z"
       id="path22"
       style="vector-effect:non-scaling-stroke;-inkscape-stroke:hairline;stroke-width:0.26458333;stroke-dasharray:none" />
    <path
       d="M 173.53520777580994,143.99059892324152 L 155.78168699822896,113.2405989232415 L 146.90492660943846,128.61559892324152 L 155.78168699822893,143.99059892324152 L 173.53520777580994,143.99059892324152 Z"
       id="path23"
       style="vector-effect:non-scaling-stroke;-inkscape-stroke:hairline;stroke-width:0.26458333;stroke-dasharray:none" />
    <path
       d="M 142.02816622064796,89.41880215351702 L 124.27464544306696,120.168802153517 L 142.02816622064796,120.16880215351702 L 150.90492660943846,104.79380215351702 L 142.02816622064796,89.41880215351702 Z"
       id="path24"
       style="vector-effect:non-scaling-stroke;-inkscape-stroke:hairline;stroke-width:0.26458333;stroke-dasharray:none" />
    <path
       d="M 143.4919489667078,139.59774178038435 L 146.02816622064796,143.99059892324152 L 110.52112466548597,143.99059892324152 L 113.05734191942611,139.59774178038435 L 143.4919489667078,139.59774178038435 Z"
       id="path25"
       style="vector-effect:non-scaling-stroke;-inkscape-stroke:hairline;stroke-width:0.26458333;stroke-dasharray:none" />
    <path
       d="M 116.43896492467962,133.74059892324152 L 119.39788505427646,128.61559892324152 L 137.15140583185746,128.61559892324152 L 140.1103259614543,133.74059892324152 L 116.43896492467962,133.74059892324152 Z"
       id="path26"
       style="vector-effect:non-scaling-stroke;-inkscape-stroke:hairline;stroke-width:0.26458333;stroke-dasharray:none" />
    <path
       d="M 71.01408311032395,89.41880215351702 L 53.260562332742964,120.16880215351702 L 71.01408311032395,120.16880215351702 L 79.89084349911445,104.793802153517 L 71.01408311032395,89.41880215351702 Z"
       id="path27"
       style="vector-effect:non-scaling-stroke;-inkscape-stroke:hairline;stroke-width:0.26458333;stroke-dasharray:none" />
    <path
       d="M 39.50704155516199,143.99059892324152 L 75.01408311032397,143.99059892324152 L 66.13732272153348,128.61559892324152 L 48.38380194395248,128.61559892324152 L 39.50704155516199,143.99059892324152 Z"
       id="path28"
       style="vector-effect:non-scaling-stroke;-inkscape-stroke:hairline;stroke-width:0.26458333;stroke-dasharray:none" />
    <path
       d="M 82.23138663396482,117.63345606609865 L 84.76760388790495,113.2405989232415 L 102.52112466548596,143.9905989232415 L 97.44869015760567,143.9905989232415 L 82.23138663396482,117.63345606609865 Z"
       id="path29"
       style="vector-effect:non-scaling-stroke;-inkscape-stroke:hairline;stroke-width:0.26458333;stroke-dasharray:none" />
    <path
       d="M 90.68544414709862,143.9905989232415 L 84.76760388790497,143.9905989232415 L 75.89084349911447,128.61559892324152 L 78.84976362871129,123.4905989232415 L 90.68544414709862,143.9905989232415 Z"
       id="path30"
       style="vector-effect:non-scaling-stroke;-inkscape-stroke:hairline;stroke-width:0.26458333;stroke-dasharray:none" />
    <path
       d="M 138.02816622064793,87.10940107675849 L 102.52112466548596,87.10940107675849 L 111.39788505427646,102.4844010767585 L 129.15140583185746,102.4844010767585 L 138.02816622064793,87.10940107675849 Z"
       id="path31"
       style="vector-effect:non-scaling-stroke;-inkscape-stroke:hairline;stroke-width:0.26458333;stroke-dasharray:none" />
    <path
       d="M 75.01408311032398,87.1094010767585 L 92.76760388790495,117.8594010767585 L 101.64436427669546,102.4844010767585 L 92.76760388790497,87.1094010767585 L 75.01408311032398,87.1094010767585 Z"
       id="path32"
       style="vector-effect:non-scaling-stroke;-inkscape-stroke:hairline;stroke-width:0.26458333;stroke-dasharray:none" />
    <path
       d="M 119.20221093518667,110.93119784648299 L 124.27464544306694,110.93119784648299 L 106.52112466548596,141.68119784648297 L 103.98490741154582,137.28834070362586 L 119.20221093518667,110.93119784648299 Z"
       id="path33"
       style="vector-effect:non-scaling-stroke;-inkscape-stroke:hairline;stroke-width:0.26458333;stroke-dasharray:none" />
    <path
       d="M 100.6032844062923,131.43119784648297 L 97.64436427669547,126.306197846483 L 106.52112466548596,110.93119784648299 L 112.43896492467962,110.93119784648299 L 100.6032844062923,131.43119784648297 Z"
       id="path34"
       style="vector-effect:non-scaling-stroke;-inkscape-stroke:hairline;stroke-width:0.26458333;stroke-dasharray:none" />
    <path
       d="M 181.53520777580994,143.9905989232415 L 217.0422493309719,143.9905989232415 L 208.1654889421814,128.6155989232415 L 190.4119681646004,128.6155989232415 L 181.53520777580994,143.9905989232415 Z"
       id="path35"
       style="vector-effect:non-scaling-stroke;-inkscape-stroke:hairline;stroke-width:0.26458333;stroke-dasharray:none" />
    <path
       d="M 244.5492908861339,143.9905989232415 L 226.79577010855292,113.24059892324149 L 217.9190097197624,128.6155989232415 L 226.79577010855292,143.9905989232415 L 244.5492908861339,143.9905989232415 Z"
       id="path36"
       style="vector-effect:non-scaling-stroke;-inkscape-stroke:hairline;stroke-width:0.26458333;stroke-dasharray:none" />
    <path
       d="M 200.3611630612712,120.168802153517 L 195.2887285533909,120.168802153517 L 213.0422493309719,89.418802153517 L 215.57846658491204,93.81165929637415 L 200.3611630612712,120.168802153517 Z"
       id="path37"
       style="vector-effect:non-scaling-stroke;-inkscape-stroke:hairline;stroke-width:0.26458333;stroke-dasharray:none" />
    <path
       d="M 218.96008959016558,99.668802153517 L 221.9190097197624,104.79380215351699 L 213.0422493309719,120.16880215351699 L 207.12440907177825,120.168802153517 L 218.96008959016558,99.668802153517 Z"
       id="path38"
       style="vector-effect:non-scaling-stroke;-inkscape-stroke:hairline;stroke-width:0.26458333;stroke-dasharray:none" />
    <path
       d="M 248.5492908861339,141.681197846483 L 266.3028116637149,110.931197846483 L 248.5492908861339,110.931197846483 L 239.67253049734342,126.306197846483 L 248.5492908861339,141.681197846483 Z"
       id="path39"
       style="vector-effect:non-scaling-stroke;-inkscape-stroke:hairline;stroke-width:0.26458333;stroke-dasharray:none" />
    <path
       d="M 280.0563324412959,87.1094010767585 L 244.54929088613392,87.1094010767585 L 253.4260512749244,102.4844010767585 L 271.17957205250536,102.4844010767585 L 280.0563324412959,87.1094010767585 Z"
       id="path40"
       style="vector-effect:non-scaling-stroke;-inkscape-stroke:hairline;stroke-width:0.26458333;stroke-dasharray:none" />
    <path
       d="M 237.33198736249304,113.46654393390136 L 234.79577010855292,117.8594010767585 L 217.0422493309719,87.1094010767585 L 222.1146838388522,87.1094010767585 L 237.33198736249304,113.46654393390136 Z"
       id="path41"
       style="vector-effect:non-scaling-stroke;-inkscape-stroke:hairline;stroke-width:0.26458333;stroke-dasharray:none" />
    <path
       d="M 228.87792984935925,87.1094010767585 L 234.7957701085529,87.1094010767585 L 243.6725304973434,102.4844010767585 L 240.71361036774658,107.6094010767585 L 228.87792984935925,87.1094010767585 Z"
       id="path42"
       style="vector-effect:non-scaling-stroke;-inkscape-stroke:hairline;stroke-width:0.26458333;stroke-dasharray:none" />
    <path
       d="M 146.02816622064793,87.10940107675852 L 163.78168699822893,117.8594010767585 L 172.65844738701944,102.4844010767585 L 163.78168699822893,87.1094010767585 L 146.02816622064793,87.10940107675852 Z"
       id="path43"
       style="vector-effect:non-scaling-stroke;-inkscape-stroke:hairline;stroke-width:0.26458333;stroke-dasharray:none" />
    <path
       d="M 177.53520777580994,141.681197846483 L 195.2887285533909,110.931197846483 L 177.53520777580994,110.931197846483 L 168.65844738701944,126.306197846483 L 177.53520777580994,141.681197846483 Z"
       id="path44"
       style="vector-effect:non-scaling-stroke;-inkscape-stroke:hairline;stroke-width:0.26458333;stroke-dasharray:none" />
    <path
       d="M 176.07142502975006,91.50225821961564 L 173.53520777580994,87.1094010767585 L 209.0422493309719,87.1094010767585 L 206.50603207703176,91.50225821961564 L 176.07142502975006,91.50225821961564 Z"
       id="path45"
       style="vector-effect:non-scaling-stroke;-inkscape-stroke:hairline;stroke-width:0.26458333;stroke-dasharray:none" />
    <path
       d="M 203.12440907177825,97.3594010767585 L 200.1654889421814,102.48440107675849 L 182.4119681646004,102.4844010767585 L 179.45304803500358,97.3594010767585 L 203.12440907177825,97.3594010767585 Z"
       id="path46"
       style="vector-effect:non-scaling-stroke;-inkscape-stroke:hairline;stroke-width:0.26458333;stroke-dasharray:none" />
    <path
       d="M 280.0563324412959,82.4905989232415 L 262.3028116637149,51.74059892324151 L 253.42605127492442,67.1155989232415 L 262.3028116637149,82.4905989232415 L 280.0563324412959,82.4905989232415 Z"
       id="path47"
       style="vector-effect:non-scaling-stroke;-inkscape-stroke:hairline;stroke-width:0.26458333;stroke-dasharray:none" />
    <path
       d="M 248.54929088613392,27.91880215351702 L 230.79577010855292,58.66880215351701 L 248.54929088613392,58.66880215351702 L 257.4260512749244,43.29380215351702 L 248.54929088613392,27.91880215351702 Z"
       id="path48"
       style="vector-effect:non-scaling-stroke;-inkscape-stroke:hairline;stroke-width:0.26458333;stroke-dasharray:none" />
    <path
       d="M 250.01307363219377,78.09774178038437 L 252.54929088613392,82.4905989232415 L 217.0422493309719,82.4905989232415 L 219.57846658491206,78.09774178038437 L 250.01307363219377,78.09774178038437 Z"
       id="path49"
       style="vector-effect:non-scaling-stroke;-inkscape-stroke:hairline;stroke-width:0.26458333;stroke-dasharray:none" />
    <path
       d="M 222.96008959016558,72.2405989232415 L 225.9190097197624,67.11559892324152 L 243.67253049734342,67.11559892324152 L 246.63145062694025,72.2405989232415 L 222.96008959016558,72.2405989232415 Z"
       id="path50"
       style="vector-effect:non-scaling-stroke;-inkscape-stroke:hairline;stroke-width:0.26458333;stroke-dasharray:none" />
    <path
       d="M 177.5352077758099,27.91880215351702 L 159.7816869982289,58.66880215351702 L 177.5352077758099,58.66880215351702 L 186.4119681646004,43.29380215351701 L 177.5352077758099,27.91880215351702 Z"
       id="path51"
       style="vector-effect:non-scaling-stroke;-inkscape-stroke:hairline;stroke-width:0.26458333;stroke-dasharray:none" />
    <path
       d="M 146.02816622064796,82.49059892324152 L 181.5352077758099,82.49059892324152 L 172.65844738701944,67.11559892324152 L 154.90492660943843,67.11559892324152 L 146.02816622064796,82.49059892324152 Z"
       id="path52"
       style="vector-effect:non-scaling-stroke;-inkscape-stroke:hairline;stroke-width:0.26458333;stroke-dasharray:none" />
    <path
       d="M 188.75251129945076,56.133456066098645 L 191.2887285533909,51.74059892324151 L 209.0422493309719,82.49059892324149 L 203.96981482309164,82.49059892324149 L 188.75251129945076,56.133456066098645 Z"
       id="path53"
       style="vector-effect:non-scaling-stroke;-inkscape-stroke:hairline;stroke-width:0.26458333;stroke-dasharray:none" />
    <path
       d="M 197.20656881258458,82.49059892324149 L 191.2887285533909,82.49059892324149 L 182.4119681646004,67.1155989232415 L 185.37088829419724,61.99059892324151 L 197.20656881258458,82.49059892324149 Z"
       id="path54"
       style="vector-effect:non-scaling-stroke;-inkscape-stroke:hairline;stroke-width:0.26458333;stroke-dasharray:none" />
    <path
       d="M 244.5492908861339,25.609401076758502 L 209.0422493309719,25.609401076758502 L 217.9190097197624,40.9844010767585 L 235.67253049734342,40.9844010767585 L 244.5492908861339,25.609401076758502 Z"
       id="path55"
       style="vector-effect:non-scaling-stroke;-inkscape-stroke:hairline;stroke-width:0.26458333;stroke-dasharray:none" />
    <path
       d="M 181.53520777580994,25.609401076758502 L 199.2887285533909,56.3594010767585 L 208.1654889421814,40.9844010767585 L 199.2887285533909,25.609401076758502 L 181.53520777580994,25.609401076758502 Z"
       id="path56"
       style="vector-effect:non-scaling-stroke;-inkscape-stroke:hairline;stroke-width:0.26458333;stroke-dasharray:none" />
    <path
       d="M 225.7233356006726,49.43119784648299 L 230.79577010855292,49.43119784648299 L 213.0422493309719,80.18119784648299 L 210.5060320770318,75.78834070362585 L 225.7233356006726,49.43119784648299 Z"
       id="path57"
       style="vector-effect:non-scaling-stroke;-inkscape-stroke:hairline;stroke-width:0.26458333;stroke-dasharray:none" />
    <path
       d="M 207.12440907177825,69.93119784648299 L 204.1654889421814,64.806197846483 L 213.0422493309719,49.43119784648299 L 218.96008959016558,49.43119784648299 L 207.12440907177825,69.93119784648299 Z"
       id="path58"
       style="vector-effect:non-scaling-stroke;-inkscape-stroke:hairline;stroke-width:0.26458333;stroke-dasharray:none" />
    <path
       d="M 288.0563324412959,82.49059892324149 L 323.56337399645787,82.49059892324149 L 314.68661360766737,67.11559892324149 L 296.93309283008637,67.11559892324149 L 288.0563324412959,82.49059892324149 Z"
       id="path59"
       style="vector-effect:non-scaling-stroke;-inkscape-stroke:hairline;stroke-width:0.26458333;stroke-dasharray:none" />
    <path
       d="M 351.0704155516198,82.49059892324149 L 333.3168947740389,51.74059892324149 L 324.44013438524837,67.11559892324149 L 333.3168947740389,82.49059892324149 L 351.0704155516198,82.49059892324149 Z"
       id="path60"
       style="vector-effect:non-scaling-stroke;-inkscape-stroke:hairline;stroke-width:0.26458333;stroke-dasharray:none" />
    <path
       d="M 306.88228772675717,58.66880215351701 L 301.80985321887687,58.66880215351701 L 319.56337399645787,27.918802153516992 L 322.099591250398,32.31165929637416 L 306.88228772675717,58.66880215351701 Z"
       id="path61"
       style="vector-effect:non-scaling-stroke;-inkscape-stroke:hairline;stroke-width:0.26458333;stroke-dasharray:none" />
    <path
       d="M 325.48121425565154,38.16880215351699 L 328.44013438524837,43.29380215351701 L 319.56337399645787,58.66880215351701 L 313.6455337372642,58.66880215351701 L 325.48121425565154,38.16880215351699 Z"
       id="path62"
       style="vector-effect:non-scaling-stroke;-inkscape-stroke:hairline;stroke-width:0.26458333;stroke-dasharray:none" />
    <path
       d="M 355.0704155516198,80.181197846483 L 372.8239363292008,49.431197846483 L 355.0704155516198,49.43119784648299 L 346.1936551628294,64.806197846483 L 355.0704155516198,80.181197846483 Z"
       id="path63"
       style="vector-effect:non-scaling-stroke;-inkscape-stroke:hairline;stroke-width:0.26458333;stroke-dasharray:none" />
    <path
       d="M 386.5774571067818,25.609401076758502 L 351.0704155516199,25.609401076758502 L 359.9471759404104,40.9844010767585 L 377.7006967179914,40.9844010767585 L 386.5774571067818,25.609401076758502 Z"
       id="path64"
       style="vector-effect:non-scaling-stroke;-inkscape-stroke:hairline;stroke-width:0.26458333;stroke-dasharray:none" />
    <path
       d="M 343.853112027979,51.96654393390136 L 341.3168947740389,56.3594010767585 L 323.56337399645787,25.609401076758502 L 328.6358085043381,25.609401076758502 L 343.853112027979,51.96654393390136 Z"
       id="path65"
       style="vector-effect:non-scaling-stroke;-inkscape-stroke:hairline;stroke-width:0.26458333;stroke-dasharray:none" />
    <path
       d="M 335.3990545148452,25.609401076758502 L 341.3168947740388,25.609401076758502 L 350.1936551628294,40.9844010767585 L 347.23473503323254,46.1094010767585 L 335.3990545148452,25.609401076758502 Z"
       id="path66"
       style="vector-effect:non-scaling-stroke;-inkscape-stroke:hairline;stroke-width:0.26458333;stroke-dasharray:none" />
    <path
       d="M 252.5492908861339,25.609401076758502 L 270.3028116637149,56.359401076758516 L 279.17957205250536,40.9844010767585 L 270.3028116637149,25.609401076758502 L 252.5492908861339,25.609401076758502 Z"
       id="path67"
       style="vector-effect:non-scaling-stroke;-inkscape-stroke:hairline;stroke-width:0.26458333;stroke-dasharray:none" />
    <path
       d="M 284.0563324412959,80.18119784648299 L 301.80985321887687,49.431197846483 L 284.0563324412959,49.431197846483 L 275.17957205250536,64.806197846483 L 284.0563324412959,80.18119784648299 Z"
       id="path68"
       style="vector-effect:non-scaling-stroke;-inkscape-stroke:hairline;stroke-width:0.26458333;stroke-dasharray:none" />
    <path
       d="M 282.592549695236,30.00225821961567 L 280.0563324412959,25.609401076758502 L 315.56337399645787,25.609401076758502 L 313.0271567425177,30.002258219615612 L 282.592549695236,30.00225821961567 Z"
       id="path69"
       style="vector-effect:non-scaling-stroke;-inkscape-stroke:hairline;stroke-width:0.26458333;stroke-dasharray:none" />
    <path
       d="M 309.6455337372642,35.8594010767585 L 306.68661360766737,40.9844010767585 L 288.93309283008637,40.9844010767585 L 285.97417270048953,35.8594010767585 L 309.6455337372642,35.8594010767585 Z"
       id="path70"
       style="vector-effect:non-scaling-stroke;-inkscape-stroke:hairline;stroke-width:0.26458333;stroke-dasharray:none" />
    <path
       d="M 386.5774571067818,143.99059892324152 L 368.8239363292009,113.2405989232415 L 359.9471759404104,128.61559892324152 L 368.8239363292008,143.99059892324152 L 386.5774571067818,143.99059892324152 Z"
       id="path71"
       style="vector-effect:non-scaling-stroke;-inkscape-stroke:hairline;stroke-width:0.26458333;stroke-dasharray:none" />
    <path
       d="M 355.0704155516199,89.41880215351702 L 337.3168947740389,120.168802153517 L 355.0704155516199,120.16880215351702 L 363.9471759404104,104.79380215351702 L 355.0704155516199,89.41880215351702 Z"
       id="path72"
       style="vector-effect:non-scaling-stroke;-inkscape-stroke:hairline;stroke-width:0.26458333;stroke-dasharray:none" />
    <path
       d="M 356.5341982976797,139.59774178038435 L 359.0704155516199,143.99059892324152 L 323.56337399645787,143.99059892324152 L 326.099591250398,139.59774178038435 L 356.5341982976797,139.59774178038435 Z"
       id="path73"
       style="vector-effect:non-scaling-stroke;-inkscape-stroke:hairline;stroke-width:0.26458333;stroke-dasharray:none" />
    <path
       d="M 329.48121425565154,133.74059892324152 L 332.44013438524837,128.61559892324152 L 350.1936551628294,128.61559892324152 L 353.1525752924262,133.74059892324152 L 329.48121425565154,133.74059892324152 Z"
       id="path74"
       style="vector-effect:non-scaling-stroke;-inkscape-stroke:hairline;stroke-width:0.26458333;stroke-dasharray:none" />
    <path
       d="M 284.05633244129587,89.41880215351702 L 266.30281166371486,120.16880215351702 L 284.05633244129587,120.16880215351702 L 292.93309283008637,104.793802153517 L 284.05633244129587,89.41880215351702 Z"
       id="path75"
       style="vector-effect:non-scaling-stroke;-inkscape-stroke:hairline;stroke-width:0.26458333;stroke-dasharray:none" />
    <path
       d="M 252.54929088613392,143.99059892324152 L 288.05633244129587,143.99059892324152 L 279.17957205250536,128.61559892324152 L 261.42605127492436,128.61559892324152 L 252.54929088613392,143.99059892324152 Z"
       id="path76"
       style="vector-effect:non-scaling-stroke;-inkscape-stroke:hairline;stroke-width:0.26458333;stroke-dasharray:none" />
    <path
       d="M 295.2736359649367,117.63345606609865 L 297.80985321887687,113.2405989232415 L 315.56337399645787,143.9905989232415 L 310.49093948857757,143.9905989232415 L 295.2736359649367,117.63345606609865 Z"
       id="path77"
       style="vector-effect:non-scaling-stroke;-inkscape-stroke:hairline;stroke-width:0.26458333;stroke-dasharray:none" />
    <path
       d="M 303.72769347807053,143.9905989232415 L 297.80985321887687,143.9905989232415 L 288.93309283008637,128.61559892324152 L 291.8920129596832,123.4905989232415 L 303.72769347807053,143.9905989232415 Z"
       id="path78"
       style="vector-effect:non-scaling-stroke;-inkscape-stroke:hairline;stroke-width:0.26458333;stroke-dasharray:none" />
    <path
       d="M 351.0704155516198,87.10940107675849 L 315.56337399645787,87.10940107675849 L 324.44013438524837,102.4844010767585 L 342.1936551628294,102.4844010767585 L 351.0704155516198,87.10940107675849 Z"
       id="path79"
       style="vector-effect:non-scaling-stroke;-inkscape-stroke:hairline;stroke-width:0.26458333;stroke-dasharray:none" />
    <path
       d="M 288.0563324412959,87.1094010767585 L 305.80985321887687,117.8594010767585 L 314.68661360766737,102.4844010767585 L 305.80985321887687,87.1094010767585 L 288.0563324412959,87.1094010767585 Z"
       id="path80"
       style="vector-effect:non-scaling-stroke;-inkscape-stroke:hairline;stroke-width:0.26458333;stroke-dasharray:none" />
    <path
       d="M 332.24446026615857,110.93119784648299 L 337.3168947740389,110.93119784648299 L 319.56337399645787,141.68119784648297 L 317.0271567425177,137.28834070362586 L 332.24446026615857,110.93119784648299 Z"
       id="path81"
       style="vector-effect:non-scaling-stroke;-inkscape-stroke:hairline;stroke-width:0.26458333;stroke-dasharray:none" />
    <path
       d="M 313.6455337372642,131.43119784648297 L 310.68661360766737,126.306197846483 L 319.56337399645787,110.93119784648299 L 325.48121425565154,110.93119784648299 L 313.6455337372642,131.43119784648297 Z"
       id="path82"
       style="vector-effect:non-scaling-stroke;-inkscape-stroke:hairline;stroke-width:0.26458333;stroke-dasharray:none" />
    <path
       d="M 394.5774571067818,143.9905989232415 L 430.0844986619438,143.9905989232415 L 421.2077382731533,128.6155989232415 L 403.4542174955723,128.6155989232415 L 394.5774571067818,143.9905989232415 Z"
       id="path83"
       style="vector-effect:non-scaling-stroke;-inkscape-stroke:hairline;stroke-width:0.26458333;stroke-dasharray:none" />
    <path
       d="M 457.59154021710583,143.9905989232415 L 439.8380194395248,113.24059892324149 L 430.9612590507343,128.6155989232415 L 439.8380194395248,143.9905989232415 L 457.59154021710583,143.9905989232415 Z"
       id="path84"
       style="vector-effect:non-scaling-stroke;-inkscape-stroke:hairline;stroke-width:0.26458333;stroke-dasharray:none" />
    <path
       d="M 413.4034123922431,120.168802153517 L 408.3309778843628,120.168802153517 L 426.0844986619438,89.418802153517 L 428.620715915884,93.81165929637415 L 413.4034123922431,120.168802153517 Z"
       id="path85"
       style="vector-effect:non-scaling-stroke;-inkscape-stroke:hairline;stroke-width:0.26458333;stroke-dasharray:none" />
    <path
       d="M 432.0023389211375,99.668802153517 L 434.9612590507343,104.79380215351699 L 426.0844986619438,120.16880215351699 L 420.16665840275016,120.168802153517 L 432.0023389211375,99.668802153517 Z"
       id="path86"
       style="vector-effect:non-scaling-stroke;-inkscape-stroke:hairline;stroke-width:0.26458333;stroke-dasharray:none" />
    <path
       d="M 461.59154021710583,141.681197846483 L 479.34506099468683,110.931197846483 L 461.59154021710583,110.931197846483 L 452.71477982831533,126.306197846483 L 461.59154021710583,141.681197846483 Z"
       id="path87"
       style="vector-effect:non-scaling-stroke;-inkscape-stroke:hairline;stroke-width:0.26458333;stroke-dasharray:none" />
    <path
       d="M 493.09858177226783,87.1094010767585 L 457.59154021710583,87.1094010767585 L 466.4683006058963,102.4844010767585 L 484.2218213834773,102.4844010767585 L 493.09858177226783,87.1094010767585 Z"
       id="path88"
       style="vector-effect:non-scaling-stroke;-inkscape-stroke:hairline;stroke-width:0.26458333;stroke-dasharray:none" />
    <path
       d="M 450.374236693465,113.46654393390136 L 447.8380194395248,117.8594010767585 L 430.0844986619438,87.1094010767585 L 435.15693316982413,87.1094010767585 L 450.374236693465,113.46654393390136 Z"
       id="path89"
       style="vector-effect:non-scaling-stroke;-inkscape-stroke:hairline;stroke-width:0.26458333;stroke-dasharray:none" />
    <path
       d="M 441.92017918033116,87.1094010767585 L 447.8380194395248,87.1094010767585 L 456.71477982831533,102.4844010767585 L 453.7558596987185,107.6094010767585 L 441.92017918033116,87.1094010767585 Z"
       id="path90"
       style="vector-effect:non-scaling-stroke;-inkscape-stroke:hairline;stroke-width:0.26458333;stroke-dasharray:none" />
    <path
       d="M 359.0704155516198,87.10940107675852 L 376.8239363292008,117.8594010767585 L 385.7006967179913,102.4844010767585 L 376.8239363292008,87.1094010767585 L 359.0704155516198,87.10940107675852 Z"
       id="path91"
       style="vector-effect:non-scaling-stroke;-inkscape-stroke:hairline;stroke-width:0.26458333;stroke-dasharray:none" />
    <path
       d="M 390.5774571067818,141.681197846483 L 408.3309778843628,110.931197846483 L 390.5774571067818,110.931197846483 L 381.7006967179914,126.306197846483 L 390.5774571067818,141.681197846483 Z"
       id="path92"
       style="vector-effect:non-scaling-stroke;-inkscape-stroke:hairline;stroke-width:0.26458333;stroke-dasharray:none" />
    <path
       d="M 389.113674360722,91.50225821961564 L 386.5774571067818,87.1094010767585 L 422.0844986619438,87.1094010767585 L 419.5482814080037,91.50225821961564 L 389.113674360722,91.50225821961564 Z"
       id="path93"
       style="vector-effect:non-scaling-stroke;-inkscape-stroke:hairline;stroke-width:0.26458333;stroke-dasharray:none" />
    <path
       d="M 416.16665840275016,97.3594010767585 L 413.2077382731533,102.48440107675849 L 395.4542174955723,102.4844010767585 L 392.4952973659755,97.3594010767585 L 416.16665840275016,97.3594010767585 Z"
       id="path94"
       style="vector-effect:non-scaling-stroke;-inkscape-stroke:hairline;stroke-width:0.26458333;stroke-dasharray:none" />
    <path
       d="M 493.09858177226783,82.4905989232415 L 475.34506099468683,51.74059892324151 L 466.46830060589633,67.1155989232415 L 475.34506099468683,82.4905989232415 L 493.09858177226783,82.4905989232415 Z"
       id="path95"
       style="vector-effect:non-scaling-stroke;-inkscape-stroke:hairline;stroke-width:0.26458333;stroke-dasharray:none" />
    <path
       d="M 461.59154021710583,27.91880215351702 L 443.8380194395248,58.66880215351701 L 461.59154021710583,58.66880215351702 L 470.46830060589633,43.29380215351702 L 461.59154021710583,27.91880215351702 Z"
       id="path96"
       style="vector-effect:non-scaling-stroke;-inkscape-stroke:hairline;stroke-width:0.26458333;stroke-dasharray:none" />
    <path
       d="M 463.0553229631657,78.09774178038437 L 465.59154021710583,82.4905989232415 L 430.0844986619438,82.4905989232415 L 432.620715915884,78.09774178038437 L 463.0553229631657,78.09774178038437 Z"
       id="path97"
       style="vector-effect:non-scaling-stroke;-inkscape-stroke:hairline;stroke-width:0.26458333;stroke-dasharray:none" />
    <path
       d="M 436.0023389211375,72.2405989232415 L 438.9612590507343,67.11559892324152 L 456.71477982831533,67.11559892324152 L 459.67369995791216,72.2405989232415 L 436.0023389211375,72.2405989232415 Z"
       id="path98"
       style="vector-effect:non-scaling-stroke;-inkscape-stroke:hairline;stroke-width:0.26458333;stroke-dasharray:none" />
    <path
       d="M 390.5774571067818,27.91880215351702 L 372.8239363292008,58.66880215351702 L 390.5774571067818,58.66880215351702 L 399.4542174955723,43.29380215351701 L 390.5774571067818,27.91880215351702 Z"
       id="path99"
       style="vector-effect:non-scaling-stroke;-inkscape-stroke:hairline;stroke-width:0.26458333;stroke-dasharray:none" />
    <path
       d="M 359.0704155516199,82.49059892324152 L 394.5774571067818,82.49059892324152 L 385.7006967179913,67.11559892324152 L 367.9471759404104,67.11559892324152 L 359.0704155516199,82.49059892324152 Z"
       id="path100"
       style="vector-effect:non-scaling-stroke;-inkscape-stroke:hairline;stroke-width:0.26458333;stroke-dasharray:none" />
    <path
       d="M 401.7947606304227,56.133456066098645 L 404.3309778843628,51.74059892324151 L 422.0844986619438,82.49059892324149 L 417.0120641540635,82.49059892324149 L 401.7947606304227,56.133456066098645 Z"
       id="path101"
       style="vector-effect:non-scaling-stroke;-inkscape-stroke:hairline;stroke-width:0.26458333;stroke-dasharray:none" />
    <path
       d="M 410.2488181435565,82.49059892324149 L 404.3309778843628,82.49059892324149 L 395.4542174955723,67.1155989232415 L 398.41313762516916,61.99059892324151 L 410.2488181435565,82.49059892324149 Z"
       id="path102"
       style="vector-effect:non-scaling-stroke;-inkscape-stroke:hairline;stroke-width:0.26458333;stroke-dasharray:none" />
    <path
       d="M 457.59154021710583,25.609401076758502 L 422.0844986619438,25.609401076758502 L 430.9612590507343,40.9844010767585 L 448.71477982831533,40.9844010767585 L 457.59154021710583,25.609401076758502 Z"
       id="path103"
       style="vector-effect:non-scaling-stroke;-inkscape-stroke:hairline;stroke-width:0.26458333;stroke-dasharray:none" />
    <path
       d="M 394.5774571067818,25.609401076758502 L 412.3309778843628,56.3594010767585 L 421.2077382731533,40.9844010767585 L 412.3309778843628,25.609401076758502 L 394.5774571067818,25.609401076758502 Z"
       id="path104"
       style="vector-effect:non-scaling-stroke;-inkscape-stroke:hairline;stroke-width:0.26458333;stroke-dasharray:none" />
    <path
       d="M 438.7655849316445,49.43119784648299 L 443.8380194395248,49.43119784648299 L 426.0844986619438,80.18119784648299 L 423.5482814080037,75.78834070362585 L 438.7655849316445,49.43119784648299 Z"
       id="path105"
       style="vector-effect:non-scaling-stroke;-inkscape-stroke:hairline;stroke-width:0.26458333;stroke-dasharray:none" />
    <path
       d="M 420.16665840275016,69.93119784648299 L 417.2077382731533,64.806197846483 L 426.0844986619438,49.43119784648299 L 432.0023389211375,49.43119784648299 L 420.16665840275016,69.93119784648299 Z"
       id="path106"
       style="vector-effect:non-scaling-stroke;-inkscape-stroke:hairline;stroke-width:0.26458333;stroke-dasharray:none" />
    <path
       d="M 501.09858177226783,82.49059892324149 L 536.6056233274298,82.49059892324149 L 527.7288629386393,67.11559892324149 L 509.9753421610583,67.11559892324149 L 501.09858177226783,82.49059892324149 Z"
       id="path107"
       style="vector-effect:non-scaling-stroke;-inkscape-stroke:hairline;stroke-width:0.26458333;stroke-dasharray:none" />
    <path
       d="M 564.1126648825917,82.49059892324149 L 546.3591441050107,51.74059892324149 L 537.4823837162203,67.11559892324149 L 546.3591441050107,82.49059892324149 L 564.1126648825917,82.49059892324149 Z"
       id="path108"
       style="vector-effect:non-scaling-stroke;-inkscape-stroke:hairline;stroke-width:0.26458333;stroke-dasharray:none" />
    <path
       d="M 519.924537057729,58.66880215351701 L 514.8521025498488,58.66880215351701 L 532.6056233274298,27.918802153516992 L 535.1418405813699,32.31165929637416 L 519.924537057729,58.66880215351701 Z"
       id="path109"
       style="vector-effect:non-scaling-stroke;-inkscape-stroke:hairline;stroke-width:0.26458333;stroke-dasharray:none" />
    <path
       d="M 538.5234635866234,38.16880215351699 L 541.4823837162203,43.29380215351701 L 532.6056233274298,58.66880215351701 L 526.6877830682361,58.66880215351701 L 538.5234635866234,38.16880215351699 Z"
       id="path110"
       style="vector-effect:non-scaling-stroke;-inkscape-stroke:hairline;stroke-width:0.26458333;stroke-dasharray:none" />
    <path
       d="M 568.1126648825917,80.181197846483 L 585.8661856601727,49.431197846483 L 568.1126648825917,49.43119784648299 L 559.2359044938013,64.806197846483 L 568.1126648825917,80.181197846483 Z"
       id="path111"
       style="vector-effect:non-scaling-stroke;-inkscape-stroke:hairline;stroke-width:0.26458333;stroke-dasharray:none" />
    <path
       d="M 599.6197064377537,25.609401076758502 L 564.1126648825918,25.609401076758502 L 572.9894252713823,40.9844010767585 L 590.7429460489633,40.9844010767585 L 599.6197064377537,25.609401076758502 Z"
       id="path112"
       style="vector-effect:non-scaling-stroke;-inkscape-stroke:hairline;stroke-width:0.26458333;stroke-dasharray:none" />
    <path
       d="M 556.8953613589509,51.96654393390136 L 554.3591441050107,56.3594010767585 L 536.6056233274298,25.609401076758502 L 541.67805783531,25.609401076758502 L 556.8953613589509,51.96654393390136 Z"
       id="path113"
       style="vector-effect:non-scaling-stroke;-inkscape-stroke:hairline;stroke-width:0.26458333;stroke-dasharray:none" />
    <path
       d="M 548.4413038458172,25.609401076758502 L 554.3591441050107,25.609401076758502 L 563.2359044938013,40.9844010767585 L 560.2769843642045,46.1094010767585 L 548.4413038458172,25.609401076758502 Z"
       id="path114"
       style="vector-effect:non-scaling-stroke;-inkscape-stroke:hairline;stroke-width:0.26458333;stroke-dasharray:none" />
    <path
       d="M 465.59154021710583,25.609401076758502 L 483.34506099468683,56.359401076758516 L 492.2218213834773,40.9844010767585 L 483.34506099468683,25.609401076758502 L 465.59154021710583,25.609401076758502 Z"
       id="path115"
       style="vector-effect:non-scaling-stroke;-inkscape-stroke:hairline;stroke-width:0.26458333;stroke-dasharray:none" />
    <path
       d="M 497.09858177226783,80.18119784648299 L 514.8521025498488,49.431197846483 L 497.09858177226783,49.431197846483 L 488.2218213834773,64.806197846483 L 497.09858177226783,80.18119784648299 Z"
       id="path116"
       style="vector-effect:non-scaling-stroke;-inkscape-stroke:hairline;stroke-width:0.26458333;stroke-dasharray:none" />
    <path
       d="M 495.63479902620793,30.00225821961567 L 493.09858177226783,25.609401076758502 L 528.6056233274298,25.609401076758502 L 526.0694060734896,30.002258219615612 L 495.63479902620793,30.00225821961567 Z"
       id="path117"
       style="vector-effect:non-scaling-stroke;-inkscape-stroke:hairline;stroke-width:0.26458333;stroke-dasharray:none" />
    <path
       d="M 522.6877830682361,35.8594010767585 L 519.7288629386393,40.9844010767585 L 501.9753421610583,40.9844010767585 L 499.01642203146145,35.8594010767585 L 522.6877830682361,35.8594010767585 Z"
       id="path118"
       style="vector-effect:non-scaling-stroke;-inkscape-stroke:hairline;stroke-width:0.26458333;stroke-dasharray:none" />
    <path
       d="M 599.6197064377537,143.99059892324152 L 581.8661856601727,113.2405989232415 L 572.9894252713823,128.61559892324152 L 581.8661856601727,143.99059892324152 L 599.6197064377537,143.99059892324152 Z"
       id="path119"
       style="vector-effect:non-scaling-stroke;-inkscape-stroke:hairline;stroke-width:0.26458333;stroke-dasharray:none" />
    <path
       d="M 568.1126648825918,89.41880215351702 L 550.3591441050107,120.168802153517 L 568.1126648825918,120.16880215351702 L 576.9894252713823,104.79380215351702 L 568.1126648825918,89.41880215351702 Z"
       id="path120"
       style="vector-effect:non-scaling-stroke;-inkscape-stroke:hairline;stroke-width:0.26458333;stroke-dasharray:none" />
    <path
       d="M 569.5764476286516,139.59774178038435 L 572.1126648825918,143.99059892324152 L 536.6056233274298,143.99059892324152 L 539.1418405813699,139.59774178038435 L 569.5764476286516,139.59774178038435 Z"
       id="path121"
       style="vector-effect:non-scaling-stroke;-inkscape-stroke:hairline;stroke-width:0.26458333;stroke-dasharray:none" />
    <path
       d="M 542.5234635866234,133.74059892324152 L 545.4823837162203,128.61559892324152 L 563.2359044938013,128.61559892324152 L 566.1948246233981,133.74059892324152 L 542.5234635866234,133.74059892324152 Z"
       id="path122"
       style="vector-effect:non-scaling-stroke;-inkscape-stroke:hairline;stroke-width:0.26458333;stroke-dasharray:none" />
    <path
       d="M 497.0985817722678,89.41880215351702 L 479.3450609946868,120.16880215351702 L 497.0985817722678,120.16880215351702 L 505.9753421610583,104.793802153517 L 497.0985817722678,89.41880215351702 Z"
       id="path123"
       style="vector-effect:non-scaling-stroke;-inkscape-stroke:hairline;stroke-width:0.26458333;stroke-dasharray:none" />
    <path
       d="M 465.59154021710583,143.99059892324152 L 501.0985817722678,143.99059892324152 L 492.2218213834773,128.61559892324152 L 474.4683006058963,128.61559892324152 L 465.59154021710583,143.99059892324152 Z"
       id="path124"
       style="vector-effect:non-scaling-stroke;-inkscape-stroke:hairline;stroke-width:0.26458333;stroke-dasharray:none" />
    <path
       d="M 508.31588529590863,117.63345606609865 L 510.8521025498488,113.2405989232415 L 528.6056233274298,143.9905989232415 L 523.5331888195495,143.9905989232415 L 508.31588529590863,117.63345606609865 Z"
       id="path125"
       style="vector-effect:non-scaling-stroke;-inkscape-stroke:hairline;stroke-width:0.26458333;stroke-dasharray:none" />
    <path
       d="M 516.7699428090425,143.9905989232415 L 510.8521025498488,143.9905989232415 L 501.9753421610583,128.61559892324152 L 504.9342622906551,123.4905989232415 L 516.7699428090425,143.9905989232415 Z"
       id="path126"
       style="vector-effect:non-scaling-stroke;-inkscape-stroke:hairline;stroke-width:0.26458333;stroke-dasharray:none" />
    <path
       d="M 564.1126648825917,87.10940107675849 L 528.6056233274298,87.10940107675849 L 537.4823837162203,102.4844010767585 L 555.2359044938013,102.4844010767585 L 564.1126648825917,87.10940107675849 Z"
       id="path127"
       style="vector-effect:non-scaling-stroke;-inkscape-stroke:hairline;stroke-width:0.26458333;stroke-dasharray:none" />
    <path
       d="M 501.09858177226783,87.1094010767585 L 518.8521025498487,117.8594010767585 L 527.7288629386393,102.4844010767585 L 518.8521025498488,87.1094010767585 L 501.09858177226783,87.1094010767585 Z"
       id="path128"
       style="vector-effect:non-scaling-stroke;-inkscape-stroke:hairline;stroke-width:0.26458333;stroke-dasharray:none" />
    <path
       d="M 545.2867095971305,110.93119784648299 L 550.3591441050107,110.93119784648299 L 532.6056233274298,141.68119784648297 L 530.0694060734896,137.28834070362586 L 545.2867095971305,110.93119784648299 Z"
       id="path129"
       style="vector-effect:non-scaling-stroke;-inkscape-stroke:hairline;stroke-width:0.26458333;stroke-dasharray:none" />
    <path
       d="M 526.6877830682362,131.43119784648297 L 523.7288629386393,126.306197846483 L 532.6056233274298,110.93119784648299 L 538.5234635866234,110.93119784648299 L 526.6877830682362,131.43119784648297 Z"
       id="path130"
       style="vector-effect:non-scaling-stroke;-inkscape-stroke:hairline;stroke-width:0.26458333;stroke-dasharray:none" />
    <path
       d="M 607.6197064377537,143.9905989232415 L 643.1267479929157,143.9905989232415 L 634.2499876041253,128.6155989232415 L 616.4964668265443,128.6155989232415 L 607.6197064377537,143.9905989232415 Z"
       id="path131"
       style="vector-effect:non-scaling-stroke;-inkscape-stroke:hairline;stroke-width:0.26458333;stroke-dasharray:none" />
    <path
       d="M 670.6337895480777,143.9905989232415 L 652.8802687704967,113.24059892324149 L 644.0035083817062,128.6155989232415 L 652.8802687704967,143.9905989232415 L 670.6337895480777,143.9905989232415 Z"
       id="path132"
       style="vector-effect:non-scaling-stroke;-inkscape-stroke:hairline;stroke-width:0.26458333;stroke-dasharray:none" />
    <path
       d="M 626.445661723215,120.168802153517 L 621.3732272153347,120.168802153517 L 639.1267479929157,89.418802153517 L 641.6629652468558,93.81165929637415 L 626.445661723215,120.168802153517 Z"
       id="path133"
       style="vector-effect:non-scaling-stroke;-inkscape-stroke:hairline;stroke-width:0.26458333;stroke-dasharray:none" />
    <path
       d="M 645.0445882521094,99.668802153517 L 648.0035083817062,104.79380215351699 L 639.1267479929157,120.16880215351699 L 633.2089077337221,120.168802153517 L 645.0445882521094,99.668802153517 Z"
       id="path134"
       style="vector-effect:non-scaling-stroke;-inkscape-stroke:hairline;stroke-width:0.26458333;stroke-dasharray:none" />
    <path
       d="M 674.6337895480777,141.681197846483 L 692.3873103256587,110.931197846483 L 674.6337895480777,110.931197846483 L 665.7570291592872,126.306197846483 L 674.6337895480777,141.681197846483 Z"
       id="path135"
       style="vector-effect:non-scaling-stroke;-inkscape-stroke:hairline;stroke-width:0.26458333;stroke-dasharray:none" />
    <path
       d="M 706.1408311032397,87.1094010767585 L 670.6337895480777,87.1094010767585 L 679.5105499368682,102.4844010767585 L 697.2640707144492,102.4844010767585 L 706.1408311032397,87.1094010767585 Z"
       id="path136"
       style="vector-effect:non-scaling-stroke;-inkscape-stroke:hairline;stroke-width:0.26458333;stroke-dasharray:none" />
    <path
       d="M 663.4164860244368,113.46654393390136 L 660.8802687704967,117.8594010767585 L 643.1267479929157,87.1094010767585 L 648.199182500796,87.1094010767585 L 663.4164860244368,113.46654393390136 Z"
       id="path137"
       style="vector-effect:non-scaling-stroke;-inkscape-stroke:hairline;stroke-width:0.26458333;stroke-dasharray:none" />
    <path
       d="M 654.9624285113031,87.1094010767585 L 660.8802687704967,87.1094010767585 L 669.7570291592872,102.4844010767585 L 666.7981090296904,107.6094010767585 L 654.9624285113031,87.1094010767585 Z"
       id="path138"
       style="vector-effect:non-scaling-stroke;-inkscape-stroke:hairline;stroke-width:0.26458333;stroke-dasharray:none" />
    <path
       d="M 572.1126648825917,87.10940107675852 L 589.8661856601727,117.8594010767585 L 598.7429460489633,102.4844010767585 L 589.8661856601727,87.1094010767585 L 572.1126648825917,87.10940107675852 Z"
       id="path139"
       style="vector-effect:non-scaling-stroke;-inkscape-stroke:hairline;stroke-width:0.26458333;stroke-dasharray:none" />
    <path
       d="M 603.6197064377537,141.681197846483 L 621.3732272153347,110.931197846483 L 603.6197064377537,110.931197846483 L 594.7429460489633,126.306197846483 L 603.6197064377537,141.681197846483 Z"
       id="path140"
       style="vector-effect:non-scaling-stroke;-inkscape-stroke:hairline;stroke-width:0.26458333;stroke-dasharray:none" />
    <path
       d="M 602.1559236916939,91.50225821961564 L 599.6197064377537,87.1094010767585 L 635.1267479929157,87.1094010767585 L 632.5905307389755,91.50225821961564 L 602.1559236916939,91.50225821961564 Z"
       id="path141"
       style="vector-effect:non-scaling-stroke;-inkscape-stroke:hairline;stroke-width:0.26458333;stroke-dasharray:none" />
    <path
       d="M 629.2089077337221,97.3594010767585 L 626.2499876041253,102.48440107675849 L 608.4964668265443,102.4844010767585 L 605.5375466969474,97.3594010767585 L 629.2089077337221,97.3594010767585 Z"
       id="path142"
       style="vector-effect:non-scaling-stroke;-inkscape-stroke:hairline;stroke-width:0.26458333;stroke-dasharray:none" />
    <path
       d="M 706.1408311032397,82.4905989232415 L 688.3873103256587,51.74059892324151 L 679.5105499368682,67.1155989232415 L 688.3873103256587,82.4905989232415 L 706.1408311032397,82.4905989232415 Z"
       id="path143"
       style="vector-effect:non-scaling-stroke;-inkscape-stroke:hairline;stroke-width:0.26458333;stroke-dasharray:none" />
    <path
       d="M 674.6337895480777,27.91880215351702 L 656.8802687704967,58.66880215351701 L 674.6337895480777,58.66880215351702 L 683.5105499368682,43.29380215351702 L 674.6337895480777,27.91880215351702 Z"
       id="path144"
       style="vector-effect:non-scaling-stroke;-inkscape-stroke:hairline;stroke-width:0.26458333;stroke-dasharray:none" />
    <path
       d="M 676.0975722941375,78.09774178038437 L 678.6337895480777,82.4905989232415 L 643.1267479929157,82.4905989232415 L 645.662965246856,78.09774178038437 L 676.0975722941375,78.09774178038437 Z"
       id="path145"
       style="vector-effect:non-scaling-stroke;-inkscape-stroke:hairline;stroke-width:0.26458333;stroke-dasharray:none" />
    <path
       d="M 649.0445882521094,72.2405989232415 L 652.0035083817063,67.11559892324152 L 669.7570291592872,67.11559892324152 L 672.7159492888841,72.2405989232415 L 649.0445882521094,72.2405989232415 Z"
       id="path146"
       style="vector-effect:non-scaling-stroke;-inkscape-stroke:hairline;stroke-width:0.26458333;stroke-dasharray:none" />
    <path
       d="M 603.6197064377537,27.91880215351702 L 585.8661856601727,58.66880215351702 L 603.6197064377537,58.66880215351702 L 612.4964668265443,43.29380215351701 L 603.6197064377537,27.91880215351702 Z"
       id="path147"
       style="vector-effect:non-scaling-stroke;-inkscape-stroke:hairline;stroke-width:0.26458333;stroke-dasharray:none" />
    <path
       d="M 572.1126648825917,82.49059892324152 L 607.6197064377537,82.49059892324152 L 598.7429460489633,67.11559892324152 L 580.9894252713823,67.11559892324152 L 572.1126648825917,82.49059892324152 Z"
       id="path148"
       style="vector-effect:non-scaling-stroke;-inkscape-stroke:hairline;stroke-width:0.26458333;stroke-dasharray:none" />
    <path
       d="M 614.8370099613946,56.133456066098645 L 617.3732272153347,51.74059892324151 L 635.1267479929157,82.49059892324149 L 630.0543134850354,82.49059892324149 L 614.8370099613946,56.133456066098645 Z"
       id="path149"
       style="vector-effect:non-scaling-stroke;-inkscape-stroke:hairline;stroke-width:0.26458333;stroke-dasharray:none" />
    <path
       d="M 623.2910674745284,82.49059892324149 L 617.3732272153347,82.49059892324149 L 608.4964668265443,67.1155989232415 L 611.4553869561411,61.99059892324151 L 623.2910674745284,82.49059892324149 Z"
       id="path150"
       style="vector-effect:non-scaling-stroke;-inkscape-stroke:hairline;stroke-width:0.26458333;stroke-dasharray:none" />
    <path
       d="M 670.6337895480777,25.609401076758502 L 635.1267479929157,25.609401076758502 L 644.0035083817062,40.9844010767585 L 661.7570291592872,40.9844010767585 L 670.6337895480777,25.609401076758502 Z"
       id="path151"
       style="vector-effect:non-scaling-stroke;-inkscape-stroke:hairline;stroke-width:0.26458333;stroke-dasharray:none" />
    <path
       d="M 607.6197064377537,25.609401076758502 L 625.3732272153347,56.3594010767585 L 634.2499876041253,40.9844010767585 L 625.3732272153347,25.609401076758502 L 607.6197064377537,25.609401076758502 Z"
       id="path152"
       style="vector-effect:non-scaling-stroke;-inkscape-stroke:hairline;stroke-width:0.26458333;stroke-dasharray:none" />
    <path
       d="M 651.8078342626164,49.43119784648299 L 656.8802687704967,49.43119784648299 L 639.1267479929157,80.18119784648299 L 636.5905307389756,75.78834070362585 L 651.8078342626164,49.43119784648299 Z"
       id="path153"
       style="vector-effect:non-scaling-stroke;-inkscape-stroke:hairline;stroke-width:0.26458333;stroke-dasharray:none" />
    <path
       d="M 633.2089077337221,69.93119784648299 L 630.2499876041253,64.806197846483 L 639.1267479929157,49.43119784648299 L 645.0445882521094,49.43119784648299 L 633.2089077337221,69.93119784648299 Z"
       id="path154"
       style="vector-effect:non-scaling-stroke;-inkscape-stroke:hairline;stroke-width:0.26458333;stroke-dasharray:none" />
    <path
       d="M 714.1408311032397,82.49059892324149 L 749.6478726584016,82.49059892324149 L 740.7711122696112,67.11559892324149 L 723.0175914920302,67.11559892324149 L 714.1408311032397,82.49059892324149 Z"
       id="path155"
       style="vector-effect:non-scaling-stroke;-inkscape-stroke:hairline;stroke-width:0.26458333;stroke-dasharray:none" />
    <path
       d="M 777.1549142135636,82.49059892324149 L 759.4013934359828,51.74059892324149 L 750.5246330471922,67.11559892324149 L 759.4013934359826,82.49059892324149 L 777.1549142135636,82.49059892324149 Z"
       id="path156"
       style="vector-effect:non-scaling-stroke;-inkscape-stroke:hairline;stroke-width:0.26458333;stroke-dasharray:none" />
    <path
       d="M 732.9667863887009,58.66880215351701 L 727.8943518808208,58.66880215351701 L 745.6478726584016,27.918802153516992 L 748.1840899123418,32.31165929637416 L 732.9667863887009,58.66880215351701 Z"
       id="path157"
       style="vector-effect:non-scaling-stroke;-inkscape-stroke:hairline;stroke-width:0.26458333;stroke-dasharray:none" />
    <path
       d="M 751.5657129175953,38.16880215351699 L 754.5246330471922,43.29380215351701 L 745.6478726584016,58.66880215351701 L 739.7300323992081,58.66880215351701 L 751.5657129175953,38.16880215351699 Z"
       id="path158"
       style="vector-effect:non-scaling-stroke;-inkscape-stroke:hairline;stroke-width:0.26458333;stroke-dasharray:none" />
    <path
       d="M 781.1549142135636,80.181197846483 L 798.9084349911446,49.431197846483 L 781.1549142135636,49.43119784648299 L 772.2781538247732,64.806197846483 L 781.1549142135636,80.181197846483 Z"
       id="path159"
       style="vector-effect:non-scaling-stroke;-inkscape-stroke:hairline;stroke-width:0.26458333;stroke-dasharray:none" />
    <path
       d="M 812.6619557687256,25.609401076758502 L 777.1549142135636,25.609401076758502 L 786.0316746023542,40.9844010767585 L 803.7851953799352,40.9844010767585 L 812.6619557687256,25.609401076758502 Z"
       id="path160"
       style="vector-effect:non-scaling-stroke;-inkscape-stroke:hairline;stroke-width:0.26458333;stroke-dasharray:none" />
    <path
       d="M 769.9376106899228,51.96654393390136 L 767.4013934359828,56.3594010767585 L 749.6478726584016,25.609401076758502 L 754.7203071662819,25.609401076758502 L 769.9376106899228,51.96654393390136 Z"
       id="path161"
       style="vector-effect:non-scaling-stroke;-inkscape-stroke:hairline;stroke-width:0.26458333;stroke-dasharray:none" />
    <path
       d="M 761.483553176789,25.609401076758502 L 767.4013934359826,25.609401076758502 L 776.2781538247732,40.9844010767585 L 773.3192336951763,46.1094010767585 L 761.483553176789,25.609401076758502 Z"
       id="path162"
       style="vector-effect:non-scaling-stroke;-inkscape-stroke:hairline;stroke-width:0.26458333;stroke-dasharray:none" />
    <path
       d="M 678.6337895480777,25.609401076758502 L 696.3873103256587,56.359401076758516 L 705.2640707144492,40.9844010767585 L 696.3873103256587,25.609401076758502 L 678.6337895480777,25.609401076758502 Z"
       id="path163"
       style="vector-effect:non-scaling-stroke;-inkscape-stroke:hairline;stroke-width:0.26458333;stroke-dasharray:none" />
    <path
       d="M 710.1408311032397,80.18119784648299 L 727.8943518808208,49.431197846483 L 710.1408311032397,49.431197846483 L 701.2640707144492,64.806197846483 L 710.1408311032397,80.18119784648299 Z"
       id="path164"
       style="vector-effect:non-scaling-stroke;-inkscape-stroke:hairline;stroke-width:0.26458333;stroke-dasharray:none" />
    <path
       d="M 708.6770483571798,30.00225821961567 L 706.1408311032397,25.609401076758502 L 741.6478726584016,25.609401076758502 L 739.1116554044615,30.002258219615612 L 708.6770483571798,30.00225821961567 Z"
       id="path165"
       style="vector-effect:non-scaling-stroke;-inkscape-stroke:hairline;stroke-width:0.26458333;stroke-dasharray:none" />
    <path
       d="M 735.7300323992081,35.8594010767585 L 732.7711122696112,40.9844010767585 L 715.0175914920302,40.9844010767585 L 712.0586713624334,35.8594010767585 L 735.7300323992081,35.8594010767585 Z"
       id="path166"
       style="vector-effect:non-scaling-stroke;-inkscape-stroke:hairline;stroke-width:0.26458333;stroke-dasharray:none" />
    <path
       d="M 812.6619557687256,143.99059892324152 L 794.9084349911448,113.2405989232415 L 786.0316746023542,128.61559892324152 L 794.9084349911446,143.99059892324152 L 812.6619557687256,143.99059892324152 Z"
       id="path167"
       style="vector-effect:non-scaling-stroke;-inkscape-stroke:hairline;stroke-width:0.26458333;stroke-dasharray:none" />
    <path
       d="M 781.1549142135636,89.41880215351702 L 763.4013934359828,120.168802153517 L 781.1549142135636,120.16880215351702 L 790.0316746023542,104.79380215351702 L 781.1549142135636,89.41880215351702 Z"
       id="path168"
       style="vector-effect:non-scaling-stroke;-inkscape-stroke:hairline;stroke-width:0.26458333;stroke-dasharray:none" />
    <path
       d="M 782.6186969596235,139.59774178038435 L 785.1549142135636,143.99059892324152 L 749.6478726584018,143.99059892324152 L 752.1840899123418,139.59774178038435 L 782.6186969596235,139.59774178038435 Z"
       id="path169"
       style="vector-effect:non-scaling-stroke;-inkscape-stroke:hairline;stroke-width:0.26458333;stroke-dasharray:none" />
    <path
       d="M 755.5657129175954,133.74059892324152 L 758.5246330471922,128.61559892324152 L 776.2781538247732,128.61559892324152 L 779.2370739543701,133.74059892324152 L 755.5657129175954,133.74059892324152 Z"
       id="path170"
       style="vector-effect:non-scaling-stroke;-inkscape-stroke:hairline;stroke-width:0.26458333;stroke-dasharray:none" />
    <path
       d="M 710.1408311032396,89.41880215351702 L 692.3873103256587,120.16880215351702 L 710.1408311032396,120.16880215351702 L 719.0175914920302,104.793802153517 L 710.1408311032396,89.41880215351702 Z"
       id="path171"
       style="vector-effect:non-scaling-stroke;-inkscape-stroke:hairline;stroke-width:0.26458333;stroke-dasharray:none" />
    <path
       d="M 678.6337895480777,143.99059892324152 L 714.1408311032397,143.99059892324152 L 705.2640707144492,128.61559892324152 L 687.5105499368682,128.61559892324152 L 678.6337895480777,143.99059892324152 Z"
       id="path172"
       style="vector-effect:non-scaling-stroke;-inkscape-stroke:hairline;stroke-width:0.26458333;stroke-dasharray:none" />
    <path
       d="M 721.3581346268805,117.63345606609865 L 723.8943518808208,113.2405989232415 L 741.6478726584016,143.9905989232415 L 736.5754381505214,143.9905989232415 L 721.3581346268805,117.63345606609865 Z"
       id="path173"
       style="vector-effect:non-scaling-stroke;-inkscape-stroke:hairline;stroke-width:0.26458333;stroke-dasharray:none" />
    <path
       d="M 729.8121921400143,143.9905989232415 L 723.8943518808208,143.9905989232415 L 715.0175914920302,128.61559892324152 L 717.976511621627,123.4905989232415 L 729.8121921400143,143.9905989232415 Z"
       id="path174"
       style="vector-effect:non-scaling-stroke;-inkscape-stroke:hairline;stroke-width:0.26458333;stroke-dasharray:none" />
    <path
       d="M 777.1549142135636,87.10940107675849 L 741.6478726584016,87.10940107675849 L 750.5246330471922,102.4844010767585 L 768.2781538247732,102.4844010767585 L 777.1549142135636,87.10940107675849 Z"
       id="path175"
       style="vector-effect:non-scaling-stroke;-inkscape-stroke:hairline;stroke-width:0.26458333;stroke-dasharray:none" />
    <path
       d="M 714.1408311032397,87.1094010767585 L 731.8943518808208,117.8594010767585 L 740.7711122696112,102.4844010767585 L 731.8943518808208,87.1094010767585 L 714.1408311032397,87.1094010767585 Z"
       id="path176"
       style="vector-effect:non-scaling-stroke;-inkscape-stroke:hairline;stroke-width:0.26458333;stroke-dasharray:none" />
    <path
       d="M 758.3289589281025,110.93119784648299 L 763.4013934359826,110.93119784648299 L 745.6478726584016,141.68119784648297 L 743.1116554044615,137.28834070362586 L 758.3289589281025,110.93119784648299 Z"
       id="path177"
       style="vector-effect:non-scaling-stroke;-inkscape-stroke:hairline;stroke-width:0.26458333;stroke-dasharray:none" />
    <path
       d="M 739.7300323992081,131.43119784648297 L 736.7711122696112,126.306197846483 L 745.6478726584016,110.93119784648299 L 751.5657129175954,110.93119784648299 L 739.7300323992081,131.43119784648297 Z"
       id="path178"
       style="vector-effect:non-scaling-stroke;-inkscape-stroke:hairline;stroke-width:0.26458333;stroke-dasharray:none" />
    <path
       d="M 820.6619557687256,143.9905989232415 L 856.1689973238877,143.9905989232415 L 847.2922369350972,128.6155989232415 L 829.5387161575162,128.6155989232415 L 820.6619557687256,143.9905989232415 Z"
       id="path179"
       style="vector-effect:non-scaling-stroke;-inkscape-stroke:hairline;stroke-width:0.26458333;stroke-dasharray:none" />
    <path
       d="M 883.6760388790497,143.9905989232415 L 865.9225181014687,113.24059892324149 L 857.0457577126781,128.6155989232415 L 865.9225181014687,143.9905989232415 L 883.6760388790497,143.9905989232415 Z"
       id="path180"
       style="vector-effect:non-scaling-stroke;-inkscape-stroke:hairline;stroke-width:0.26458333;stroke-dasharray:none" />
    <path
       d="M 839.487911054187,120.168802153517 L 834.4154765463066,120.168802153517 L 852.1689973238877,89.418802153517 L 854.7052145778277,93.81165929637415 L 839.487911054187,120.168802153517 Z"
       id="path181"
       style="vector-effect:non-scaling-stroke;-inkscape-stroke:hairline;stroke-width:0.26458333;stroke-dasharray:none" />
    <path
       d="M 858.0868375830813,99.668802153517 L 861.0457577126781,104.79380215351699 L 852.1689973238877,120.16880215351699 L 846.251157064694,120.168802153517 L 858.0868375830813,99.668802153517 Z"
       id="path182"
       style="vector-effect:non-scaling-stroke;-inkscape-stroke:hairline;stroke-width:0.26458333;stroke-dasharray:none" />
    <path
       d="M 887.6760388790497,141.681197846483 L 878.7992784902591,126.306197846483 L 887.6760388790497,110.931197846483 L 890.0,110.931197846483 L 890.0,137.65597911018227 L 887.6760388790497,141.681197846483 Z"
       id="path183"
       style="vector-effect:non-scaling-stroke;-inkscape-stroke:hairline;stroke-width:0.26458333;stroke-dasharray:none" />
    <path
       d="M 883.6760388790497,87.1094010767585 L 890.0,87.1094010767585 L 890.0,98.06282304333479 L 883.6760388790497,87.1094010767585 Z"
       id="path184"
       style="vector-effect:non-scaling-stroke;-inkscape-stroke:hairline;stroke-width:0.26458333;stroke-dasharray:none" />
    <path
       d="M 876.4587353554087,113.46654393390136 L 873.9225181014687,117.8594010767585 L 856.1689973238877,87.1094010767585 L 861.241431831768,87.1094010767585 L 876.4587353554087,113.46654393390136 Z"
       id="path185"
       style="vector-effect:non-scaling-stroke;-inkscape-stroke:hairline;stroke-width:0.26458333;stroke-dasharray:none" />
    <path
       d="M 868.004677842275,87.1094010767585 L 873.9225181014687,87.1094010767585 L 882.7992784902591,102.4844010767585 L 879.8403583606623,107.6094010767585 L 868.004677842275,87.1094010767585 Z"
       id="path186"
       style="vector-effect:non-scaling-stroke;-inkscape-stroke:hairline;stroke-width:0.26458333;stroke-dasharray:none" />
    <path
       d="M 785.1549142135636,87.10940107675852 L 802.9084349911446,117.8594010767585 L 811.7851953799352,102.4844010767585 L 802.9084349911446,87.1094010767585 L 785.1549142135636,87.10940107675852 Z"
       id="path187"
       style="vector-effect:non-scaling-stroke;-inkscape-stroke:hairline;stroke-width:0.26458333;stroke-dasharray:none" />
    <path
       d="M 816.6619557687256,141.681197846483 L 834.4154765463066,110.931197846483 L 816.6619557687256,110.931197846483 L 807.7851953799352,126.306197846483 L 816.6619557687256,141.681197846483 Z"
       id="path188"
       style="vector-effect:non-scaling-stroke;-inkscape-stroke:hairline;stroke-width:0.26458333;stroke-dasharray:none" />
    <path
       d="M 815.1981730226659,91.50225821961564 L 812.6619557687256,87.1094010767585 L 848.1689973238877,87.1094010767585 L 845.6327800699476,91.50225821961564 L 815.1981730226659,91.50225821961564 Z"
       id="path189"
       style="vector-effect:non-scaling-stroke;-inkscape-stroke:hairline;stroke-width:0.26458333;stroke-dasharray:none" />
    <path
       d="M 842.251157064694,97.3594010767585 L 839.2922369350972,102.48440107675849 L 821.5387161575162,102.4844010767585 L 818.5797960279193,97.3594010767585 L 842.251157064694,97.3594010767585 Z"
       id="path190"
       style="vector-effect:non-scaling-stroke;-inkscape-stroke:hairline;stroke-width:0.26458333;stroke-dasharray:none" />
    <path
       d="M 887.6760388790497,58.66880215351702 L 869.9225181014687,58.66880215351701 L 887.6760388790497,27.91880215351702 L 890.0,31.94402088981775 L 890.0,54.64358341721628 L 887.6760388790497,58.66880215351702 Z"
       id="path191"
       style="vector-effect:non-scaling-stroke;-inkscape-stroke:hairline;stroke-width:0.26458333;stroke-dasharray:none" />
    <path
       d="M 890.0,79.5876144292668 L 890.0,82.4905989232415 L 856.1689973238877,82.4905989232415 L 858.7052145778279,78.09774178038437 L 889.1398216251094,78.09774178038437 L 890.0,79.5876144292668 Z"
       id="path192"
       style="vector-effect:non-scaling-stroke;-inkscape-stroke:hairline;stroke-width:0.26458333;stroke-dasharray:none" />
    <path
       d="M 862.0868375830813,72.2405989232415 L 865.0457577126781,67.11559892324152 L 882.7992784902591,67.11559892324152 L 885.758198619856,72.2405989232415 L 862.0868375830813,72.2405989232415 Z"
       id="path193"
       style="vector-effect:non-scaling-stroke;-inkscape-stroke:hairline;stroke-width:0.26458333;stroke-dasharray:none" />
    <path
       d="M 816.6619557687256,27.91880215351702 L 798.9084349911446,58.66880215351702 L 816.6619557687256,58.66880215351702 L 825.5387161575161,43.29380215351701 L 816.6619557687256,27.91880215351702 Z"
       id="path194"
       style="vector-effect:non-scaling-stroke;-inkscape-stroke:hairline;stroke-width:0.26458333;stroke-dasharray:none" />
    <path
       d="M 785.1549142135636,82.49059892324152 L 820.6619557687256,82.49059892324152 L 811.7851953799352,67.11559892324152 L 794.0316746023542,67.11559892324152 L 785.1549142135636,82.49059892324152 Z"
       id="path195"
       style="vector-effect:non-scaling-stroke;-inkscape-stroke:hairline;stroke-width:0.26458333;stroke-dasharray:none" />
    <path
       d="M 827.8792592923666,56.133456066098645 L 830.4154765463066,51.74059892324151 L 848.1689973238877,82.49059892324149 L 843.0965628160073,82.49059892324149 L 827.8792592923666,56.133456066098645 Z"
       id="path196"
       style="vector-effect:non-scaling-stroke;-inkscape-stroke:hairline;stroke-width:0.26458333;stroke-dasharray:none" />
    <path
       d="M 836.3333168055003,82.49059892324149 L 830.4154765463066,82.49059892324149 L 821.5387161575162,67.1155989232415 L 824.497636287113,61.99059892324151 L 836.3333168055003,82.49059892324149 Z"
       id="path197"
       style="vector-effect:non-scaling-stroke;-inkscape-stroke:hairline;stroke-width:0.26458333;stroke-dasharray:none" />
    <path
       d="M 883.6760388790497,25.609401076758502 L 848.1689973238877,25.609401076758502 L 857.0457577126781,40.9844010767585 L 874.7992784902591,40.9844010767585 L 883.6760388790497,25.609401076758502 Z"
       id="path198"
       style="vector-effect:non-scaling-stroke;-inkscape-stroke:hairline;stroke-width:0.26458333;stroke-dasharray:none" />
    <path
       d="M 820.6619557687256,25.609401076758502 L 838.4154765463066,56.3594010767585 L 847.2922369350972,40.9844010767585 L 838.4154765463066,25.609401076758502 L 820.6619557687256,25.609401076758502 Z"
       id="path199"
       style="vector-effect:non-scaling-stroke;-inkscape-stroke:hairline;stroke-width:0.26458333;stroke-dasharray:none" />
    <path
       d="M 864.8500835935884,49.43119784648299 L 869.9225181014687,49.43119784648299 L 852.1689973238877,80.18119784648299 L 849.6327800699476,75.78834070362585 L 864.8500835935884,49.43119784648299 Z"
       id="path200"
       style="vector-effect:non-scaling-stroke;-inkscape-stroke:hairline;stroke-width:0.26458333;stroke-dasharray:none" />
    <path
       d="M 846.251157064694,69.93119784648299 L 843.2922369350972,64.806197846483 L 852.1689973238877,49.43119784648299 L 858.0868375830813,49.43119784648299 L 846.251157064694,69.93119784648299 Z"
       id="path201"
       style="vector-effect:non-scaling-stroke;-inkscape-stroke:hairline;stroke-width:0.26458333;stroke-dasharray:none" />
    <path
       d="M 0.0,170.0 L 905.0,170.0 L 905.0,0.0 L 0.0,0.0 L 0.0,170.0 Z"
       id="path202"
       style="vector-effect:non-scaling-stroke;-inkscape-stroke:hairline;stroke-width:0.26458333;stroke-dasharray:none" />
  </g>
</svg>
