  0
SECTION
  2
HEADER
  9
$ACADVER
  1
AC1014
  9
$HANDSEED
  5
FFFF
  9
$INSUNITS
 70
     4
  9
$MEASUREMENT
 70
     1
  0
ENDSEC
  0
SECTION
  2
TABLES
  0
TABLE
  2
VPORT
  5
8
330
0
100
AcDbSymbolTable
 70
     4
  0
VPORT
  5
2E
330
8
100
AcDbSymbolTableRecord
100
AcDbViewportTableRecord
  2
*ACTIVE
 70
     0
 10
0.0
 20
0.0
 11
1.0
 21
1.0
 12
210.0
 22
148.5
 13
0.0
 23
0.0
 14
10.0
 24
10.0
 15
10.0
 25
10.0
 16
0.0
 26
0.0
 36
1.0
 17
0.0
 27
0.0
 37
0.0
 40
341.0
 41
1.24
 42
50.0
 43
0.0
 44
0.0
 50
0.0
 51
0.0
 71
     0
 72
   100
 73
     1
 74
     3
 75
     0
 76
     0
 77
     0
 78
     0
  0
ENDTAB
  0
TABLE
  2
LTYPE
  5
5
330
0
100
AcDbSymbolTable
 70
     1
  0
LTYPE
  5
14
330
5
100
AcDbSymbolTableRecord
100
AcDbLinetypeTableRecord
  2
BYBLOCK
 70
     0
  3

 72
    65
 73
     0
 40
0.0
  0
LTYPE
  5
15
330
5
100
AcDbSymbolTableRecord
100
AcDbLinetypeTableRecord
  2
BYLAYER
 70
     0
  3

 72
    65
 73
     0
 40
0.0
  0
LTYPE
  5
16
330
5
100
AcDbSymbolTableRecord
100
AcDbLinetypeTableRecord
  2
CONTINUOUS
 70
     0
  3
Solid line
 72
    65
 73
     0
 40
0.0
  0
ENDTAB
  0
TABLE
  2
LAYER
  5
2
100
AcDbSymbolTable
 70
1
  0
LAYER
  5
50
100
AcDbSymbolTableRecord
100
AcDbLayerTableRecord
  2
0
 70
0
  6
CONTINUOUS
  0
ENDTAB
  0
TABLE
  2
STYLE
  5
3
330
0
100
AcDbSymbolTable
 70
     1
  0
STYLE
  5
11
330
3
100
AcDbSymbolTableRecord
100
AcDbTextStyleTableRecord
  2
STANDARD
 70
     0
 40
0.0
 41
1.0
 50
0.0
 71
     0
 42
2.5
  3
txt
  4

  0
ENDTAB
  0
TABLE
  2
VIEW
  5
6
330
0
100
AcDbSymbolTable
 70
     0
  0
ENDTAB
  0
TABLE
  2
UCS
  5
7
330
0
100
AcDbSymbolTable
 70
     0
  0
ENDTAB
  0
TABLE
  2
APPID
  5
9
330
0
100
AcDbSymbolTable
 70
     2
  0
APPID
  5
12
330
9
100
AcDbSymbolTableRecord
100
AcDbRegAppTableRecord
  2
ACAD
 70
     0
  0
ENDTAB
  0
TABLE
  2
DIMSTYLE
  5
A
330
0
100
AcDbSymbolTable
 70
     1
  0
DIMSTYLE
105
27
330
A
100
AcDbSymbolTableRecord
100
AcDbDimStyleTableRecord
  2
ISO-25
 70
     0
  3

  4

  5

  6

  7

 40
1.0
 41
2.5
 42
0.625
 43
3.75
 44
1.25
 45
0.0
 46
0.0
 47
0.0
 48
0.0
140
2.5
141
2.5
142
0.0
143
0.03937007874016
144
1.0
145
0.0
146
1.0
147
0.625
 71
     0
 72
     0
 73
     0
 74
     0
 75
     0
 76
     0
 77
     1
 78
     8
170
     0
171
     3
172
     1
173
     0
174
     0
175
     0
176
     0
177
     0
178
     0
270
     2
271
     2
272
     2
273
     2
274
     3
340
11
275
     0
280
     0
281
     0
282
     0
283
     0
284
     8
285
     0
286
     0
287
     3
288
     0
  0
ENDTAB
  0
TABLE
  2
BLOCK_RECORD
  5
1
330
0
100
AcDbSymbolTable
 70
     1
  0
BLOCK_RECORD
  5
1F
330
1
100
AcDbSymbolTableRecord
100
AcDbBlockTableRecord
  2
*MODEL_SPACE
  0
BLOCK_RECORD
  5
1B
330
1
100
AcDbSymbolTableRecord
100
AcDbBlockTableRecord
  2
*PAPER_SPACE
  0
ENDTAB
  0
ENDSEC
  0
SECTION
  2
BLOCKS
  0
BLOCK
  5
20
330
1F
100
AcDbEntity
  8
0
100
AcDbBlockBegin
  2
*MODEL_SPACE
 70
     0
 10
0.0
 20
0.0
 30
0.0
  3
*MODEL_SPACE
  1

  0
ENDBLK
  5
21
330
1F
100
AcDbEntity
  8
0
100
AcDbBlockEnd
  0
BLOCK
  5
1C
330
1B
100
AcDbEntity
 67
     1
  8
0
100
AcDbBlockBegin
  2
*PAPER_SPACE
  1

  0
ENDBLK
  5
1D
330
1B
100
AcDbEntity
 67
     1
  8
0
100
AcDbBlockEnd
  0
ENDSEC
  0
SECTION
  2
ENTITIES
  0
LWPOLYLINE
  5
100
100
AcDbEntity
  8
0
 62
7
100
AcDbPolyline
 90
4
 70
1
 10
179.007042
 20
91.009401
 30
0.0
 10
163.500000
 20
91.009401
 30
0.0
 10
163.500000
 20
117.868385
 30
0.0
 10
179.007042
 20
91.009401
 30
0.0
  0
LWPOLYLINE
  5
101
100
AcDbEntity
  8
0
 62
7
100
AcDbPolyline
 90
5
 70
1
 10
183.007042
 20
93.318802
 30
0.0
 10
200.760562
 20
124.068802
 30
0.0
 10
183.007042
 20
124.068802
 30
0.0
 10
174.130281
 20
108.693802
 30
0.0
 10
183.007042
 20
93.318802
 30
0.0
  0
LWPOLYLINE
  5
102
100
AcDbEntity
  8
0
 62
7
100
AcDbPolyline
 90
5
 70
1
 10
214.514083
 20
147.890599
 30
0.0
 10
179.007042
 20
147.890599
 30
0.0
 10
187.883802
 20
132.515599
 30
0.0
 10
205.637323
 20
132.515599
 30
0.0
 10
214.514083
 20
147.890599
 30
0.0
  0
LWPOLYLINE
  5
103
100
AcDbEntity
  8
0
 62
7
100
AcDbPolyline
 90
5
 70
1
 10
169.253521
 20
117.140599
 30
0.0
 10
163.500000
 20
127.105989
 30
0.0
 10
163.500000
 20
135.891704
 30
0.0
 10
171.789738
 20
121.533456
 30
0.0
 10
169.253521
 20
117.140599
 30
0.0
  0
LWPOLYLINE
  5
104
100
AcDbEntity
  8
0
 62
7
100
AcDbPolyline
 90
6
 70
1
 10
169.253521
 20
147.890599
 30
0.0
 10
178.130281
 20
132.515599
 30
0.0
 10
175.171361
 20
127.390599
 30
0.0
 10
163.500000
 20
147.605989
 30
0.0
 10
163.500000
 20
147.890599
 30
0.0
 10
169.253521
 20
147.890599
 30
0.0
  0
LWPOLYLINE
  5
105
100
AcDbEntity
  8
0
 62
7
100
AcDbPolyline
 90
5
 70
1
 10
214.514083
 20
152.509401
 30
0.0
 10
196.760562
 20
183.259401
 30
0.0
 10
187.883802
 20
167.884401
 30
0.0
 10
196.760562
 20
152.509401
 30
0.0
 10
214.514083
 20
152.509401
 30
0.0
  0
LWPOLYLINE
  5
106
100
AcDbEntity
  8
0
 62
7
100
AcDbPolyline
 90
5
 70
1
 10
183.007042
 20
207.081198
 30
0.0
 10
165.253521
 20
176.331198
 30
0.0
 10
183.007042
 20
176.331198
 30
0.0
 10
191.883802
 20
191.706198
 30
0.0
 10
183.007042
 20
207.081198
 30
0.0
  0
LWPOLYLINE
  5
107
100
AcDbEntity
  8
0
 62
7
100
AcDbPolyline
 90
5
 70
1
 10
187.007042
 20
152.509401
 30
0.0
 10
163.500000
 20
152.509401
 30
0.0
 10
163.500000
 20
156.902258
 30
0.0
 10
184.470824
 20
156.902258
 30
0.0
 10
187.007042
 20
152.509401
 30
0.0
  0
LWPOLYLINE
  5
108
100
AcDbEntity
  8
0
 62
7
100
AcDbPolyline
 90
5
 70
1
 10
178.130281
 20
167.884401
 30
0.0
 10
181.089201
 20
162.759401
 30
0.0
 10
163.500000
 20
162.759401
 30
0.0
 10
163.500000
 20
167.884401
 30
0.0
 10
178.130281
 20
167.884401
 30
0.0
  0
LWPOLYLINE
  5
109
100
AcDbEntity
  8
0
 62
7
100
AcDbPolyline
 90
5
 70
1
 10
179.007042
 20
209.390599
 30
0.0
 10
170.130281
 20
194.015599
 30
0.0
 10
163.500000
 20
194.015599
 30
0.0
 10
163.500000
 20
209.390599
 30
0.0
 10
179.007042
 20
209.390599
 30
0.0
  0
LWPOLYLINE
  5
10a
100
AcDbEntity
  8
0
 62
7
100
AcDbPolyline
 90
5
 70
1
 10
222.514083
 20
152.509401
 30
0.0
 10
258.021125
 20
152.509401
 30
0.0
 10
249.144364
 20
167.884401
 30
0.0
 10
231.390843
 20
167.884401
 30
0.0
 10
222.514083
 20
152.509401
 30
0.0
  0
LWPOLYLINE
  5
10b
100
AcDbEntity
  8
0
 62
7
100
AcDbPolyline
 90
5
 70
1
 10
285.528166
 20
152.509401
 30
0.0
 10
267.774645
 20
183.259401
 30
0.0
 10
258.897885
 20
167.884401
 30
0.0
 10
267.774645
 20
152.509401
 30
0.0
 10
285.528166
 20
152.509401
 30
0.0
  0
LWPOLYLINE
  5
10c
100
AcDbEntity
  8
0
 62
7
100
AcDbPolyline
 90
5
 70
1
 10
241.340038
 20
176.331198
 30
0.0
 10
236.267604
 20
176.331198
 30
0.0
 10
254.021125
 20
207.081198
 30
0.0
 10
256.557342
 20
202.688341
 30
0.0
 10
241.340038
 20
176.331198
 30
0.0
  0
LWPOLYLINE
  5
10d
100
AcDbEntity
  8
0
 62
7
100
AcDbPolyline
 90
5
 70
1
 10
259.938965
 20
196.831198
 30
0.0
 10
262.897885
 20
191.706198
 30
0.0
 10
254.021125
 20
176.331198
 30
0.0
 10
248.103284
 20
176.331198
 30
0.0
 10
259.938965
 20
196.831198
 30
0.0
  0
LWPOLYLINE
  5
10e
100
AcDbEntity
  8
0
 62
7
100
AcDbPolyline
 90
5
 70
1
 10
289.528166
 20
154.818802
 30
0.0
 10
307.281687
 20
185.568802
 30
0.0
 10
289.528166
 20
185.568802
 30
0.0
 10
280.651406
 20
170.193802
 30
0.0
 10
289.528166
 20
154.818802
 30
0.0
  0
LWPOLYLINE
  5
10f
100
AcDbEntity
  8
0
 62
7
100
AcDbPolyline
 90
5
 70
1
 10
321.035208
 20
209.390599
 30
0.0
 10
285.528166
 20
209.390599
 30
0.0
 10
294.404927
 20
194.015599
 30
0.0
 10
312.158447
 20
194.015599
 30
0.0
 10
321.035208
 20
209.390599
 30
0.0
  0
LWPOLYLINE
  5
110
100
AcDbEntity
  8
0
 62
7
100
AcDbPolyline
 90
5
 70
1
 10
278.310863
 20
183.033456
 30
0.0
 10
275.774645
 20
178.640599
 30
0.0
 10
258.021125
 20
209.390599
 30
0.0
 10
263.093559
 20
209.390599
 30
0.0
 10
278.310863
 20
183.033456
 30
0.0
  0
LWPOLYLINE
  5
111
100
AcDbEntity
  8
0
 62
7
100
AcDbPolyline
 90
5
 70
1
 10
269.856805
 20
209.390599
 30
0.0
 10
275.774645
 20
209.390599
 30
0.0
 10
284.651406
 20
194.015599
 30
0.0
 10
281.692486
 20
188.890599
 30
0.0
 10
269.856805
 20
209.390599
 30
0.0
  0
LWPOLYLINE
  5
112
100
AcDbEntity
  8
0
 62
7
100
AcDbPolyline
 90
5
 70
1
 10
187.007042
 20
209.390599
 30
0.0
 10
204.760562
 20
178.640599
 30
0.0
 10
213.637323
 20
194.015599
 30
0.0
 10
204.760562
 20
209.390599
 30
0.0
 10
187.007042
 20
209.390599
 30
0.0
  0
LWPOLYLINE
  5
113
100
AcDbEntity
  8
0
 62
7
100
AcDbPolyline
 90
5
 70
1
 10
218.514083
 20
154.818802
 30
0.0
 10
236.267604
 20
185.568802
 30
0.0
 10
218.514083
 20
185.568802
 30
0.0
 10
209.637323
 20
170.193802
 30
0.0
 10
218.514083
 20
154.818802
 30
0.0
  0
LWPOLYLINE
  5
114
100
AcDbEntity
  8
0
 62
7
100
AcDbPolyline
 90
5
 70
1
 10
217.050300
 20
204.997742
 30
0.0
 10
214.514083
 20
209.390599
 30
0.0
 10
250.021125
 20
209.390599
 30
0.0
 10
247.484907
 20
204.997742
 30
0.0
 10
217.050300
 20
204.997742
 30
0.0
  0
LWPOLYLINE
  5
115
100
AcDbEntity
  8
0
 62
7
100
AcDbPolyline
 90
5
 70
1
 10
244.103284
 20
199.140599
 30
0.0
 10
241.144364
 20
194.015599
 30
0.0
 10
223.390843
 20
194.015599
 30
0.0
 10
220.431923
 20
199.140599
 30
0.0
 10
244.103284
 20
199.140599
 30
0.0
  0
LWPOLYLINE
  5
116
100
AcDbEntity
  8
0
 62
7
100
AcDbPolyline
 90
5
 70
1
 10
321.035208
 20
91.009401
 30
0.0
 10
303.281687
 20
121.759401
 30
0.0
 10
294.404927
 20
106.384401
 30
0.0
 10
303.281687
 20
91.009401
 30
0.0
 10
321.035208
 20
91.009401
 30
0.0
  0
LWPOLYLINE
  5
117
100
AcDbEntity
  8
0
 62
7
100
AcDbPolyline
 90
5
 70
1
 10
289.528166
 20
145.581198
 30
0.0
 10
271.774645
 20
114.831198
 30
0.0
 10
289.528166
 20
114.831198
 30
0.0
 10
298.404927
 20
130.206198
 30
0.0
 10
289.528166
 20
145.581198
 30
0.0
  0
LWPOLYLINE
  5
118
100
AcDbEntity
  8
0
 62
7
100
AcDbPolyline
 90
5
 70
1
 10
290.991949
 20
95.402258
 30
0.0
 10
293.528166
 20
91.009401
 30
0.0
 10
258.021125
 20
91.009401
 30
0.0
 10
260.557342
 20
95.402258
 30
0.0
 10
290.991949
 20
95.402258
 30
0.0
  0
LWPOLYLINE
  5
119
100
AcDbEntity
  8
0
 62
7
100
AcDbPolyline
 90
5
 70
1
 10
263.938965
 20
101.259401
 30
0.0
 10
266.897885
 20
106.384401
 30
0.0
 10
284.651406
 20
106.384401
 30
0.0
 10
287.610326
 20
101.259401
 30
0.0
 10
263.938965
 20
101.259401
 30
0.0
  0
LWPOLYLINE
  5
11a
100
AcDbEntity
  8
0
 62
7
100
AcDbPolyline
 90
5
 70
1
 10
218.514083
 20
145.581198
 30
0.0
 10
200.760562
 20
114.831198
 30
0.0
 10
218.514083
 20
114.831198
 30
0.0
 10
227.390843
 20
130.206198
 30
0.0
 10
218.514083
 20
145.581198
 30
0.0
  0
LWPOLYLINE
  5
11b
100
AcDbEntity
  8
0
 62
7
100
AcDbPolyline
 90
5
 70
1
 10
187.007042
 20
91.009401
 30
0.0
 10
222.514083
 20
91.009401
 30
0.0
 10
213.637323
 20
106.384401
 30
0.0
 10
195.883802
 20
106.384401
 30
0.0
 10
187.007042
 20
91.009401
 30
0.0
  0
LWPOLYLINE
  5
11c
100
AcDbEntity
  8
0
 62
7
100
AcDbPolyline
 90
5
 70
1
 10
229.731387
 20
117.366544
 30
0.0
 10
232.267604
 20
121.759401
 30
0.0
 10
250.021125
 20
91.009401
 30
0.0
 10
244.948690
 20
91.009401
 30
0.0
 10
229.731387
 20
117.366544
 30
0.0
  0
LWPOLYLINE
  5
11d
100
AcDbEntity
  8
0
 62
7
100
AcDbPolyline
 90
5
 70
1
 10
238.185444
 20
91.009401
 30
0.0
 10
232.267604
 20
91.009401
 30
0.0
 10
223.390843
 20
106.384401
 30
0.0
 10
226.349764
 20
111.509401
 30
0.0
 10
238.185444
 20
91.009401
 30
0.0
  0
LWPOLYLINE
  5
11e
100
AcDbEntity
  8
0
 62
7
100
AcDbPolyline
 90
5
 70
1
 10
285.528166
 20
147.890599
 30
0.0
 10
250.021125
 20
147.890599
 30
0.0
 10
258.897885
 20
132.515599
 30
0.0
 10
276.651406
 20
132.515599
 30
0.0
 10
285.528166
 20
147.890599
 30
0.0
  0
LWPOLYLINE
  5
11f
100
AcDbEntity
  8
0
 62
7
100
AcDbPolyline
 90
5
 70
1
 10
222.514083
 20
147.890599
 30
0.0
 10
240.267604
 20
117.140599
 30
0.0
 10
249.144364
 20
132.515599
 30
0.0
 10
240.267604
 20
147.890599
 30
0.0
 10
222.514083
 20
147.890599
 30
0.0
  0
LWPOLYLINE
  5
120
100
AcDbEntity
  8
0
 62
7
100
AcDbPolyline
 90
5
 70
1
 10
266.702211
 20
124.068802
 30
0.0
 10
271.774645
 20
124.068802
 30
0.0
 10
254.021125
 20
93.318802
 30
0.0
 10
251.484907
 20
97.711659
 30
0.0
 10
266.702211
 20
124.068802
 30
0.0
  0
LWPOLYLINE
  5
121
100
AcDbEntity
  8
0
 62
7
100
AcDbPolyline
 90
5
 70
1
 10
248.103284
 20
103.568802
 30
0.0
 10
245.144364
 20
108.693802
 30
0.0
 10
254.021125
 20
124.068802
 30
0.0
 10
259.938965
 20
124.068802
 30
0.0
 10
248.103284
 20
103.568802
 30
0.0
  0
LWPOLYLINE
  5
122
100
AcDbEntity
  8
0
 62
7
100
AcDbPolyline
 90
5
 70
1
 10
329.035208
 20
91.009401
 30
0.0
 10
364.542249
 20
91.009401
 30
0.0
 10
355.665489
 20
106.384401
 30
0.0
 10
337.911968
 20
106.384401
 30
0.0
 10
329.035208
 20
91.009401
 30
0.0
  0
LWPOLYLINE
  5
123
100
AcDbEntity
  8
0
 62
7
100
AcDbPolyline
 90
5
 70
1
 10
392.049291
 20
91.009401
 30
0.0
 10
374.295770
 20
121.759401
 30
0.0
 10
365.419010
 20
106.384401
 30
0.0
 10
374.295770
 20
91.009401
 30
0.0
 10
392.049291
 20
91.009401
 30
0.0
  0
LWPOLYLINE
  5
124
100
AcDbEntity
  8
0
 62
7
100
AcDbPolyline
 90
5
 70
1
 10
347.861163
 20
114.831198
 30
0.0
 10
342.788729
 20
114.831198
 30
0.0
 10
360.542249
 20
145.581198
 30
0.0
 10
363.078467
 20
141.188341
 30
0.0
 10
347.861163
 20
114.831198
 30
0.0
  0
LWPOLYLINE
  5
125
100
AcDbEntity
  8
0
 62
7
100
AcDbPolyline
 90
5
 70
1
 10
366.460090
 20
135.331198
 30
0.0
 10
369.419010
 20
130.206198
 30
0.0
 10
360.542249
 20
114.831198
 30
0.0
 10
354.624409
 20
114.831198
 30
0.0
 10
366.460090
 20
135.331198
 30
0.0
  0
LWPOLYLINE
  5
126
100
AcDbEntity
  8
0
 62
7
100
AcDbPolyline
 90
5
 70
1
 10
396.049291
 20
93.318802
 30
0.0
 10
413.802812
 20
124.068802
 30
0.0
 10
396.049291
 20
124.068802
 30
0.0
 10
387.172530
 20
108.693802
 30
0.0
 10
396.049291
 20
93.318802
 30
0.0
  0
LWPOLYLINE
  5
127
100
AcDbEntity
  8
0
 62
7
100
AcDbPolyline
 90
5
 70
1
 10
427.556332
 20
147.890599
 30
0.0
 10
392.049291
 20
147.890599
 30
0.0
 10
400.926051
 20
132.515599
 30
0.0
 10
418.679572
 20
132.515599
 30
0.0
 10
427.556332
 20
147.890599
 30
0.0
  0
LWPOLYLINE
  5
128
100
AcDbEntity
  8
0
 62
7
100
AcDbPolyline
 90
5
 70
1
 10
384.831987
 20
121.533456
 30
0.0
 10
382.295770
 20
117.140599
 30
0.0
 10
364.542249
 20
147.890599
 30
0.0
 10
369.614684
 20
147.890599
 30
0.0
 10
384.831987
 20
121.533456
 30
0.0
  0
LWPOLYLINE
  5
129
100
AcDbEntity
  8
0
 62
7
100
AcDbPolyline
 90
5
 70
1
 10
376.377930
 20
147.890599
 30
0.0
 10
382.295770
 20
147.890599
 30
0.0
 10
391.172530
 20
132.515599
 30
0.0
 10
388.213610
 20
127.390599
 30
0.0
 10
376.377930
 20
147.890599
 30
0.0
  0
LWPOLYLINE
  5
12a
100
AcDbEntity
  8
0
 62
7
100
AcDbPolyline
 90
5
 70
1
 10
293.528166
 20
147.890599
 30
0.0
 10
311.281687
 20
117.140599
 30
0.0
 10
320.158447
 20
132.515599
 30
0.0
 10
311.281687
 20
147.890599
 30
0.0
 10
293.528166
 20
147.890599
 30
0.0
  0
LWPOLYLINE
  5
12b
100
AcDbEntity
  8
0
 62
7
100
AcDbPolyline
 90
5
 70
1
 10
325.035208
 20
93.318802
 30
0.0
 10
342.788729
 20
124.068802
 30
0.0
 10
325.035208
 20
124.068802
 30
0.0
 10
316.158447
 20
108.693802
 30
0.0
 10
325.035208
 20
93.318802
 30
0.0
  0
LWPOLYLINE
  5
12c
100
AcDbEntity
  8
0
 62
7
100
AcDbPolyline
 90
5
 70
1
 10
323.571425
 20
143.497742
 30
0.0
 10
321.035208
 20
147.890599
 30
0.0
 10
356.542249
 20
147.890599
 30
0.0
 10
354.006032
 20
143.497742
 30
0.0
 10
323.571425
 20
143.497742
 30
0.0
  0
LWPOLYLINE
  5
12d
100
AcDbEntity
  8
0
 62
7
100
AcDbPolyline
 90
5
 70
1
 10
350.624409
 20
137.640599
 30
0.0
 10
347.665489
 20
132.515599
 30
0.0
 10
329.911968
 20
132.515599
 30
0.0
 10
326.953048
 20
137.640599
 30
0.0
 10
350.624409
 20
137.640599
 30
0.0
  0
LWPOLYLINE
  5
12e
100
AcDbEntity
  8
0
 62
7
100
AcDbPolyline
 90
5
 70
1
 10
427.556332
 20
152.509401
 30
0.0
 10
409.802812
 20
183.259401
 30
0.0
 10
400.926051
 20
167.884401
 30
0.0
 10
409.802812
 20
152.509401
 30
0.0
 10
427.556332
 20
152.509401
 30
0.0
  0
LWPOLYLINE
  5
12f
100
AcDbEntity
  8
0
 62
7
100
AcDbPolyline
 90
5
 70
1
 10
396.049291
 20
207.081198
 30
0.0
 10
378.295770
 20
176.331198
 30
0.0
 10
396.049291
 20
176.331198
 30
0.0
 10
404.926051
 20
191.706198
 30
0.0
 10
396.049291
 20
207.081198
 30
0.0
  0
LWPOLYLINE
  5
130
100
AcDbEntity
  8
0
 62
7
100
AcDbPolyline
 90
5
 70
1
 10
397.513074
 20
156.902258
 30
0.0
 10
400.049291
 20
152.509401
 30
0.0
 10
364.542249
 20
152.509401
 30
0.0
 10
367.078467
 20
156.902258
 30
0.0
 10
397.513074
 20
156.902258
 30
0.0
  0
LWPOLYLINE
  5
131
100
AcDbEntity
  8
0
 62
7
100
AcDbPolyline
 90
5
 70
1
 10
370.460090
 20
162.759401
 30
0.0
 10
373.419010
 20
167.884401
 30
0.0
 10
391.172530
 20
167.884401
 30
0.0
 10
394.131451
 20
162.759401
 30
0.0
 10
370.460090
 20
162.759401
 30
0.0
  0
LWPOLYLINE
  5
132
100
AcDbEntity
  8
0
 62
7
100
AcDbPolyline
 90
5
 70
1
 10
325.035208
 20
207.081198
 30
0.0
 10
307.281687
 20
176.331198
 30
0.0
 10
325.035208
 20
176.331198
 30
0.0
 10
333.911968
 20
191.706198
 30
0.0
 10
325.035208
 20
207.081198
 30
0.0
  0
LWPOLYLINE
  5
133
100
AcDbEntity
  8
0
 62
7
100
AcDbPolyline
 90
5
 70
1
 10
293.528166
 20
152.509401
 30
0.0
 10
329.035208
 20
152.509401
 30
0.0
 10
320.158447
 20
167.884401
 30
0.0
 10
302.404927
 20
167.884401
 30
0.0
 10
293.528166
 20
152.509401
 30
0.0
  0
LWPOLYLINE
  5
134
100
AcDbEntity
  8
0
 62
7
100
AcDbPolyline
 90
5
 70
1
 10
336.252511
 20
178.866544
 30
0.0
 10
338.788729
 20
183.259401
 30
0.0
 10
356.542249
 20
152.509401
 30
0.0
 10
351.469815
 20
152.509401
 30
0.0
 10
336.252511
 20
178.866544
 30
0.0
  0
LWPOLYLINE
  5
135
100
AcDbEntity
  8
0
 62
7
100
AcDbPolyline
 90
5
 70
1
 10
344.706569
 20
152.509401
 30
0.0
 10
338.788729
 20
152.509401
 30
0.0
 10
329.911968
 20
167.884401
 30
0.0
 10
332.870888
 20
173.009401
 30
0.0
 10
344.706569
 20
152.509401
 30
0.0
  0
LWPOLYLINE
  5
136
100
AcDbEntity
  8
0
 62
7
100
AcDbPolyline
 90
5
 70
1
 10
392.049291
 20
209.390599
 30
0.0
 10
356.542249
 20
209.390599
 30
0.0
 10
365.419010
 20
194.015599
 30
0.0
 10
383.172530
 20
194.015599
 30
0.0
 10
392.049291
 20
209.390599
 30
0.0
  0
LWPOLYLINE
  5
137
100
AcDbEntity
  8
0
 62
7
100
AcDbPolyline
 90
5
 70
1
 10
329.035208
 20
209.390599
 30
0.0
 10
346.788729
 20
178.640599
 30
0.0
 10
355.665489
 20
194.015599
 30
0.0
 10
346.788729
 20
209.390599
 30
0.0
 10
329.035208
 20
209.390599
 30
0.0
  0
LWPOLYLINE
  5
138
100
AcDbEntity
  8
0
 62
7
100
AcDbPolyline
 90
5
 70
1
 10
373.223336
 20
185.568802
 30
0.0
 10
378.295770
 20
185.568802
 30
0.0
 10
360.542249
 20
154.818802
 30
0.0
 10
358.006032
 20
159.211659
 30
0.0
 10
373.223336
 20
185.568802
 30
0.0
  0
LWPOLYLINE
  5
139
100
AcDbEntity
  8
0
 62
7
100
AcDbPolyline
 90
5
 70
1
 10
354.624409
 20
165.068802
 30
0.0
 10
351.665489
 20
170.193802
 30
0.0
 10
360.542249
 20
185.568802
 30
0.0
 10
366.460090
 20
185.568802
 30
0.0
 10
354.624409
 20
165.068802
 30
0.0
  0
LWPOLYLINE
  5
13a
100
AcDbEntity
  8
0
 62
7
100
AcDbPolyline
 90
5
 70
1
 10
435.556332
 20
152.509401
 30
0.0
 10
471.063374
 20
152.509401
 30
0.0
 10
462.186614
 20
167.884401
 30
0.0
 10
444.433093
 20
167.884401
 30
0.0
 10
435.556332
 20
152.509401
 30
0.0
  0
LWPOLYLINE
  5
13b
100
AcDbEntity
  8
0
 62
7
100
AcDbPolyline
 90
5
 70
1
 10
498.570416
 20
152.509401
 30
0.0
 10
480.816895
 20
183.259401
 30
0.0
 10
471.940134
 20
167.884401
 30
0.0
 10
480.816895
 20
152.509401
 30
0.0
 10
498.570416
 20
152.509401
 30
0.0
  0
LWPOLYLINE
  5
13c
100
AcDbEntity
  8
0
 62
7
100
AcDbPolyline
 90
5
 70
1
 10
454.382288
 20
176.331198
 30
0.0
 10
449.309853
 20
176.331198
 30
0.0
 10
467.063374
 20
207.081198
 30
0.0
 10
469.599591
 20
202.688341
 30
0.0
 10
454.382288
 20
176.331198
 30
0.0
  0
LWPOLYLINE
  5
13d
100
AcDbEntity
  8
0
 62
7
100
AcDbPolyline
 90
5
 70
1
 10
472.981214
 20
196.831198
 30
0.0
 10
475.940134
 20
191.706198
 30
0.0
 10
467.063374
 20
176.331198
 30
0.0
 10
461.145534
 20
176.331198
 30
0.0
 10
472.981214
 20
196.831198
 30
0.0
  0
LWPOLYLINE
  5
13e
100
AcDbEntity
  8
0
 62
7
100
AcDbPolyline
 90
5
 70
1
 10
502.570416
 20
154.818802
 30
0.0
 10
520.323936
 20
185.568802
 30
0.0
 10
502.570416
 20
185.568802
 30
0.0
 10
493.693655
 20
170.193802
 30
0.0
 10
502.570416
 20
154.818802
 30
0.0
  0
LWPOLYLINE
  5
13f
100
AcDbEntity
  8
0
 62
7
100
AcDbPolyline
 90
5
 70
1
 10
534.077457
 20
209.390599
 30
0.0
 10
498.570416
 20
209.390599
 30
0.0
 10
507.447176
 20
194.015599
 30
0.0
 10
525.200697
 20
194.015599
 30
0.0
 10
534.077457
 20
209.390599
 30
0.0
  0
LWPOLYLINE
  5
140
100
AcDbEntity
  8
0
 62
7
100
AcDbPolyline
 90
5
 70
1
 10
491.353112
 20
183.033456
 30
0.0
 10
488.816895
 20
178.640599
 30
0.0
 10
471.063374
 20
209.390599
 30
0.0
 10
476.135809
 20
209.390599
 30
0.0
 10
491.353112
 20
183.033456
 30
0.0
  0
LWPOLYLINE
  5
141
100
AcDbEntity
  8
0
 62
7
100
AcDbPolyline
 90
5
 70
1
 10
482.899055
 20
209.390599
 30
0.0
 10
488.816895
 20
209.390599
 30
0.0
 10
497.693655
 20
194.015599
 30
0.0
 10
494.734735
 20
188.890599
 30
0.0
 10
482.899055
 20
209.390599
 30
0.0
  0
LWPOLYLINE
  5
142
100
AcDbEntity
  8
0
 62
7
100
AcDbPolyline
 90
5
 70
1
 10
400.049291
 20
209.390599
 30
0.0
 10
417.802812
 20
178.640599
 30
0.0
 10
426.679572
 20
194.015599
 30
0.0
 10
417.802812
 20
209.390599
 30
0.0
 10
400.049291
 20
209.390599
 30
0.0
  0
LWPOLYLINE
  5
143
100
AcDbEntity
  8
0
 62
7
100
AcDbPolyline
 90
5
 70
1
 10
431.556332
 20
154.818802
 30
0.0
 10
449.309853
 20
185.568802
 30
0.0
 10
431.556332
 20
185.568802
 30
0.0
 10
422.679572
 20
170.193802
 30
0.0
 10
431.556332
 20
154.818802
 30
0.0
  0
LWPOLYLINE
  5
144
100
AcDbEntity
  8
0
 62
7
100
AcDbPolyline
 90
5
 70
1
 10
430.092550
 20
204.997742
 30
0.0
 10
427.556332
 20
209.390599
 30
0.0
 10
463.063374
 20
209.390599
 30
0.0
 10
460.527157
 20
204.997742
 30
0.0
 10
430.092550
 20
204.997742
 30
0.0
  0
LWPOLYLINE
  5
145
100
AcDbEntity
  8
0
 62
7
100
AcDbPolyline
 90
5
 70
1
 10
457.145534
 20
199.140599
 30
0.0
 10
454.186614
 20
194.015599
 30
0.0
 10
436.433093
 20
194.015599
 30
0.0
 10
433.474173
 20
199.140599
 30
0.0
 10
457.145534
 20
199.140599
 30
0.0
  0
LWPOLYLINE
  5
146
100
AcDbEntity
  8
0
 62
7
100
AcDbPolyline
 90
5
 70
1
 10
534.077457
 20
91.009401
 30
0.0
 10
516.323936
 20
121.759401
 30
0.0
 10
507.447176
 20
106.384401
 30
0.0
 10
516.323936
 20
91.009401
 30
0.0
 10
534.077457
 20
91.009401
 30
0.0
  0
LWPOLYLINE
  5
147
100
AcDbEntity
  8
0
 62
7
100
AcDbPolyline
 90
5
 70
1
 10
502.570416
 20
145.581198
 30
0.0
 10
484.816895
 20
114.831198
 30
0.0
 10
502.570416
 20
114.831198
 30
0.0
 10
511.447176
 20
130.206198
 30
0.0
 10
502.570416
 20
145.581198
 30
0.0
  0
LWPOLYLINE
  5
148
100
AcDbEntity
  8
0
 62
7
100
AcDbPolyline
 90
5
 70
1
 10
504.034198
 20
95.402258
 30
0.0
 10
506.570416
 20
91.009401
 30
0.0
 10
471.063374
 20
91.009401
 30
0.0
 10
473.599591
 20
95.402258
 30
0.0
 10
504.034198
 20
95.402258
 30
0.0
  0
LWPOLYLINE
  5
149
100
AcDbEntity
  8
0
 62
7
100
AcDbPolyline
 90
5
 70
1
 10
476.981214
 20
101.259401
 30
0.0
 10
479.940134
 20
106.384401
 30
0.0
 10
497.693655
 20
106.384401
 30
0.0
 10
500.652575
 20
101.259401
 30
0.0
 10
476.981214
 20
101.259401
 30
0.0
  0
LWPOLYLINE
  5
14a
100
AcDbEntity
  8
0
 62
7
100
AcDbPolyline
 90
5
 70
1
 10
431.556332
 20
145.581198
 30
0.0
 10
413.802812
 20
114.831198
 30
0.0
 10
431.556332
 20
114.831198
 30
0.0
 10
440.433093
 20
130.206198
 30
0.0
 10
431.556332
 20
145.581198
 30
0.0
  0
LWPOLYLINE
  5
14b
100
AcDbEntity
  8
0
 62
7
100
AcDbPolyline
 90
5
 70
1
 10
400.049291
 20
91.009401
 30
0.0
 10
435.556332
 20
91.009401
 30
0.0
 10
426.679572
 20
106.384401
 30
0.0
 10
408.926051
 20
106.384401
 30
0.0
 10
400.049291
 20
91.009401
 30
0.0
  0
LWPOLYLINE
  5
14c
100
AcDbEntity
  8
0
 62
7
100
AcDbPolyline
 90
5
 70
1
 10
442.773636
 20
117.366544
 30
0.0
 10
445.309853
 20
121.759401
 30
0.0
 10
463.063374
 20
91.009401
 30
0.0
 10
457.990939
 20
91.009401
 30
0.0
 10
442.773636
 20
117.366544
 30
0.0
  0
LWPOLYLINE
  5
14d
100
AcDbEntity
  8
0
 62
7
100
AcDbPolyline
 90
5
 70
1
 10
451.227693
 20
91.009401
 30
0.0
 10
445.309853
 20
91.009401
 30
0.0
 10
436.433093
 20
106.384401
 30
0.0
 10
439.392013
 20
111.509401
 30
0.0
 10
451.227693
 20
91.009401
 30
0.0
  0
LWPOLYLINE
  5
14e
100
AcDbEntity
  8
0
 62
7
100
AcDbPolyline
 90
5
 70
1
 10
498.570416
 20
147.890599
 30
0.0
 10
463.063374
 20
147.890599
 30
0.0
 10
471.940134
 20
132.515599
 30
0.0
 10
489.693655
 20
132.515599
 30
0.0
 10
498.570416
 20
147.890599
 30
0.0
  0
LWPOLYLINE
  5
14f
100
AcDbEntity
  8
0
 62
7
100
AcDbPolyline
 90
5
 70
1
 10
435.556332
 20
147.890599
 30
0.0
 10
453.309853
 20
117.140599
 30
0.0
 10
462.186614
 20
132.515599
 30
0.0
 10
453.309853
 20
147.890599
 30
0.0
 10
435.556332
 20
147.890599
 30
0.0
  0
LWPOLYLINE
  5
150
100
AcDbEntity
  8
0
 62
7
100
AcDbPolyline
 90
5
 70
1
 10
479.744460
 20
124.068802
 30
0.0
 10
484.816895
 20
124.068802
 30
0.0
 10
467.063374
 20
93.318802
 30
0.0
 10
464.527157
 20
97.711659
 30
0.0
 10
479.744460
 20
124.068802
 30
0.0
  0
LWPOLYLINE
  5
151
100
AcDbEntity
  8
0
 62
7
100
AcDbPolyline
 90
5
 70
1
 10
461.145534
 20
103.568802
 30
0.0
 10
458.186614
 20
108.693802
 30
0.0
 10
467.063374
 20
124.068802
 30
0.0
 10
472.981214
 20
124.068802
 30
0.0
 10
461.145534
 20
103.568802
 30
0.0
  0
LWPOLYLINE
  5
152
100
AcDbEntity
  8
0
 62
7
100
AcDbPolyline
 90
5
 70
1
 10
542.077457
 20
91.009401
 30
0.0
 10
577.584499
 20
91.009401
 30
0.0
 10
568.707738
 20
106.384401
 30
0.0
 10
550.954217
 20
106.384401
 30
0.0
 10
542.077457
 20
91.009401
 30
0.0
  0
LWPOLYLINE
  5
153
100
AcDbEntity
  8
0
 62
7
100
AcDbPolyline
 90
5
 70
1
 10
605.091540
 20
91.009401
 30
0.0
 10
587.338019
 20
121.759401
 30
0.0
 10
578.461259
 20
106.384401
 30
0.0
 10
587.338019
 20
91.009401
 30
0.0
 10
605.091540
 20
91.009401
 30
0.0
  0
LWPOLYLINE
  5
154
100
AcDbEntity
  8
0
 62
7
100
AcDbPolyline
 90
5
 70
1
 10
560.903412
 20
114.831198
 30
0.0
 10
555.830978
 20
114.831198
 30
0.0
 10
573.584499
 20
145.581198
 30
0.0
 10
576.120716
 20
141.188341
 30
0.0
 10
560.903412
 20
114.831198
 30
0.0
  0
LWPOLYLINE
  5
155
100
AcDbEntity
  8
0
 62
7
100
AcDbPolyline
 90
5
 70
1
 10
579.502339
 20
135.331198
 30
0.0
 10
582.461259
 20
130.206198
 30
0.0
 10
573.584499
 20
114.831198
 30
0.0
 10
567.666658
 20
114.831198
 30
0.0
 10
579.502339
 20
135.331198
 30
0.0
  0
LWPOLYLINE
  5
156
100
AcDbEntity
  8
0
 62
7
100
AcDbPolyline
 90
5
 70
1
 10
609.091540
 20
93.318802
 30
0.0
 10
626.845061
 20
124.068802
 30
0.0
 10
609.091540
 20
124.068802
 30
0.0
 10
600.214780
 20
108.693802
 30
0.0
 10
609.091540
 20
93.318802
 30
0.0
  0
LWPOLYLINE
  5
157
100
AcDbEntity
  8
0
 62
7
100
AcDbPolyline
 90
5
 70
1
 10
640.598582
 20
147.890599
 30
0.0
 10
605.091540
 20
147.890599
 30
0.0
 10
613.968301
 20
132.515599
 30
0.0
 10
631.721821
 20
132.515599
 30
0.0
 10
640.598582
 20
147.890599
 30
0.0
  0
LWPOLYLINE
  5
158
100
AcDbEntity
  8
0
 62
7
100
AcDbPolyline
 90
5
 70
1
 10
597.874237
 20
121.533456
 30
0.0
 10
595.338019
 20
117.140599
 30
0.0
 10
577.584499
 20
147.890599
 30
0.0
 10
582.656933
 20
147.890599
 30
0.0
 10
597.874237
 20
121.533456
 30
0.0
  0
LWPOLYLINE
  5
159
100
AcDbEntity
  8
0
 62
7
100
AcDbPolyline
 90
5
 70
1
 10
589.420179
 20
147.890599
 30
0.0
 10
595.338019
 20
147.890599
 30
0.0
 10
604.214780
 20
132.515599
 30
0.0
 10
601.255860
 20
127.390599
 30
0.0
 10
589.420179
 20
147.890599
 30
0.0
  0
LWPOLYLINE
  5
15a
100
AcDbEntity
  8
0
 62
7
100
AcDbPolyline
 90
5
 70
1
 10
506.570416
 20
147.890599
 30
0.0
 10
524.323936
 20
117.140599
 30
0.0
 10
533.200697
 20
132.515599
 30
0.0
 10
524.323936
 20
147.890599
 30
0.0
 10
506.570416
 20
147.890599
 30
0.0
  0
LWPOLYLINE
  5
15b
100
AcDbEntity
  8
0
 62
7
100
AcDbPolyline
 90
5
 70
1
 10
538.077457
 20
93.318802
 30
0.0
 10
555.830978
 20
124.068802
 30
0.0
 10
538.077457
 20
124.068802
 30
0.0
 10
529.200697
 20
108.693802
 30
0.0
 10
538.077457
 20
93.318802
 30
0.0
  0
LWPOLYLINE
  5
15c
100
AcDbEntity
  8
0
 62
7
100
AcDbPolyline
 90
5
 70
1
 10
536.613674
 20
143.497742
 30
0.0
 10
534.077457
 20
147.890599
 30
0.0
 10
569.584499
 20
147.890599
 30
0.0
 10
567.048281
 20
143.497742
 30
0.0
 10
536.613674
 20
143.497742
 30
0.0
  0
LWPOLYLINE
  5
15d
100
AcDbEntity
  8
0
 62
7
100
AcDbPolyline
 90
5
 70
1
 10
563.666658
 20
137.640599
 30
0.0
 10
560.707738
 20
132.515599
 30
0.0
 10
542.954217
 20
132.515599
 30
0.0
 10
539.995297
 20
137.640599
 30
0.0
 10
563.666658
 20
137.640599
 30
0.0
  0
LWPOLYLINE
  5
15e
100
AcDbEntity
  8
0
 62
7
100
AcDbPolyline
 90
5
 70
1
 10
640.598582
 20
152.509401
 30
0.0
 10
622.845061
 20
183.259401
 30
0.0
 10
613.968301
 20
167.884401
 30
0.0
 10
622.845061
 20
152.509401
 30
0.0
 10
640.598582
 20
152.509401
 30
0.0
  0
LWPOLYLINE
  5
15f
100
AcDbEntity
  8
0
 62
7
100
AcDbPolyline
 90
5
 70
1
 10
609.091540
 20
207.081198
 30
0.0
 10
591.338019
 20
176.331198
 30
0.0
 10
609.091540
 20
176.331198
 30
0.0
 10
617.968301
 20
191.706198
 30
0.0
 10
609.091540
 20
207.081198
 30
0.0
  0
LWPOLYLINE
  5
160
100
AcDbEntity
  8
0
 62
7
100
AcDbPolyline
 90
5
 70
1
 10
610.555323
 20
156.902258
 30
0.0
 10
613.091540
 20
152.509401
 30
0.0
 10
577.584499
 20
152.509401
 30
0.0
 10
580.120716
 20
156.902258
 30
0.0
 10
610.555323
 20
156.902258
 30
0.0
  0
LWPOLYLINE
  5
161
100
AcDbEntity
  8
0
 62
7
100
AcDbPolyline
 90
5
 70
1
 10
583.502339
 20
162.759401
 30
0.0
 10
586.461259
 20
167.884401
 30
0.0
 10
604.214780
 20
167.884401
 30
0.0
 10
607.173700
 20
162.759401
 30
0.0
 10
583.502339
 20
162.759401
 30
0.0
  0
LWPOLYLINE
  5
162
100
AcDbEntity
  8
0
 62
7
100
AcDbPolyline
 90
5
 70
1
 10
538.077457
 20
207.081198
 30
0.0
 10
520.323936
 20
176.331198
 30
0.0
 10
538.077457
 20
176.331198
 30
0.0
 10
546.954217
 20
191.706198
 30
0.0
 10
538.077457
 20
207.081198
 30
0.0
  0
LWPOLYLINE
  5
163
100
AcDbEntity
  8
0
 62
7
100
AcDbPolyline
 90
5
 70
1
 10
506.570416
 20
152.509401
 30
0.0
 10
542.077457
 20
152.509401
 30
0.0
 10
533.200697
 20
167.884401
 30
0.0
 10
515.447176
 20
167.884401
 30
0.0
 10
506.570416
 20
152.509401
 30
0.0
  0
LWPOLYLINE
  5
164
100
AcDbEntity
  8
0
 62
7
100
AcDbPolyline
 90
5
 70
1
 10
549.294761
 20
178.866544
 30
0.0
 10
551.830978
 20
183.259401
 30
0.0
 10
569.584499
 20
152.509401
 30
0.0
 10
564.512064
 20
152.509401
 30
0.0
 10
549.294761
 20
178.866544
 30
0.0
  0
LWPOLYLINE
  5
165
100
AcDbEntity
  8
0
 62
7
100
AcDbPolyline
 90
5
 70
1
 10
557.748818
 20
152.509401
 30
0.0
 10
551.830978
 20
152.509401
 30
0.0
 10
542.954217
 20
167.884401
 30
0.0
 10
545.913138
 20
173.009401
 30
0.0
 10
557.748818
 20
152.509401
 30
0.0
  0
LWPOLYLINE
  5
166
100
AcDbEntity
  8
0
 62
7
100
AcDbPolyline
 90
5
 70
1
 10
605.091540
 20
209.390599
 30
0.0
 10
569.584499
 20
209.390599
 30
0.0
 10
578.461259
 20
194.015599
 30
0.0
 10
596.214780
 20
194.015599
 30
0.0
 10
605.091540
 20
209.390599
 30
0.0
  0
LWPOLYLINE
  5
167
100
AcDbEntity
  8
0
 62
7
100
AcDbPolyline
 90
5
 70
1
 10
542.077457
 20
209.390599
 30
0.0
 10
559.830978
 20
178.640599
 30
0.0
 10
568.707738
 20
194.015599
 30
0.0
 10
559.830978
 20
209.390599
 30
0.0
 10
542.077457
 20
209.390599
 30
0.0
  0
LWPOLYLINE
  5
168
100
AcDbEntity
  8
0
 62
7
100
AcDbPolyline
 90
5
 70
1
 10
586.265585
 20
185.568802
 30
0.0
 10
591.338019
 20
185.568802
 30
0.0
 10
573.584499
 20
154.818802
 30
0.0
 10
571.048281
 20
159.211659
 30
0.0
 10
586.265585
 20
185.568802
 30
0.0
  0
LWPOLYLINE
  5
169
100
AcDbEntity
  8
0
 62
7
100
AcDbPolyline
 90
5
 70
1
 10
567.666658
 20
165.068802
 30
0.0
 10
564.707738
 20
170.193802
 30
0.0
 10
573.584499
 20
185.568802
 30
0.0
 10
579.502339
 20
185.568802
 30
0.0
 10
567.666658
 20
165.068802
 30
0.0
  0
LWPOLYLINE
  5
16a
100
AcDbEntity
  8
0
 62
7
100
AcDbPolyline
 90
5
 70
1
 10
648.598582
 20
152.509401
 30
0.0
 10
684.105623
 20
152.509401
 30
0.0
 10
675.228863
 20
167.884401
 30
0.0
 10
657.475342
 20
167.884401
 30
0.0
 10
648.598582
 20
152.509401
 30
0.0
  0
LWPOLYLINE
  5
16b
100
AcDbEntity
  8
0
 62
7
100
AcDbPolyline
 90
5
 70
1
 10
711.612665
 20
152.509401
 30
0.0
 10
693.859144
 20
183.259401
 30
0.0
 10
684.982384
 20
167.884401
 30
0.0
 10
693.859144
 20
152.509401
 30
0.0
 10
711.612665
 20
152.509401
 30
0.0
  0
LWPOLYLINE
  5
16c
100
AcDbEntity
  8
0
 62
7
100
AcDbPolyline
 90
5
 70
1
 10
667.424537
 20
176.331198
 30
0.0
 10
662.352103
 20
176.331198
 30
0.0
 10
680.105623
 20
207.081198
 30
0.0
 10
682.641841
 20
202.688341
 30
0.0
 10
667.424537
 20
176.331198
 30
0.0
  0
LWPOLYLINE
  5
16d
100
AcDbEntity
  8
0
 62
7
100
AcDbPolyline
 90
5
 70
1
 10
686.023464
 20
196.831198
 30
0.0
 10
688.982384
 20
191.706198
 30
0.0
 10
680.105623
 20
176.331198
 30
0.0
 10
674.187783
 20
176.331198
 30
0.0
 10
686.023464
 20
196.831198
 30
0.0
  0
LWPOLYLINE
  5
16e
100
AcDbEntity
  8
0
 62
7
100
AcDbPolyline
 90
5
 70
1
 10
715.612665
 20
154.818802
 30
0.0
 10
733.366186
 20
185.568802
 30
0.0
 10
715.612665
 20
185.568802
 30
0.0
 10
706.735904
 20
170.193802
 30
0.0
 10
715.612665
 20
154.818802
 30
0.0
  0
LWPOLYLINE
  5
16f
100
AcDbEntity
  8
0
 62
7
100
AcDbPolyline
 90
5
 70
1
 10
747.119706
 20
209.390599
 30
0.0
 10
711.612665
 20
209.390599
 30
0.0
 10
720.489425
 20
194.015599
 30
0.0
 10
738.242946
 20
194.015599
 30
0.0
 10
747.119706
 20
209.390599
 30
0.0
  0
LWPOLYLINE
  5
170
100
AcDbEntity
  8
0
 62
7
100
AcDbPolyline
 90
5
 70
1
 10
704.395361
 20
183.033456
 30
0.0
 10
701.859144
 20
178.640599
 30
0.0
 10
684.105623
 20
209.390599
 30
0.0
 10
689.178058
 20
209.390599
 30
0.0
 10
704.395361
 20
183.033456
 30
0.0
  0
LWPOLYLINE
  5
171
100
AcDbEntity
  8
0
 62
7
100
AcDbPolyline
 90
5
 70
1
 10
695.941304
 20
209.390599
 30
0.0
 10
701.859144
 20
209.390599
 30
0.0
 10
710.735904
 20
194.015599
 30
0.0
 10
707.776984
 20
188.890599
 30
0.0
 10
695.941304
 20
209.390599
 30
0.0
  0
LWPOLYLINE
  5
172
100
AcDbEntity
  8
0
 62
7
100
AcDbPolyline
 90
5
 70
1
 10
613.091540
 20
209.390599
 30
0.0
 10
630.845061
 20
178.640599
 30
0.0
 10
639.721821
 20
194.015599
 30
0.0
 10
630.845061
 20
209.390599
 30
0.0
 10
613.091540
 20
209.390599
 30
0.0
  0
LWPOLYLINE
  5
173
100
AcDbEntity
  8
0
 62
7
100
AcDbPolyline
 90
5
 70
1
 10
644.598582
 20
154.818802
 30
0.0
 10
662.352103
 20
185.568802
 30
0.0
 10
644.598582
 20
185.568802
 30
0.0
 10
635.721821
 20
170.193802
 30
0.0
 10
644.598582
 20
154.818802
 30
0.0
  0
LWPOLYLINE
  5
174
100
AcDbEntity
  8
0
 62
7
100
AcDbPolyline
 90
5
 70
1
 10
643.134799
 20
204.997742
 30
0.0
 10
640.598582
 20
209.390599
 30
0.0
 10
676.105623
 20
209.390599
 30
0.0
 10
673.569406
 20
204.997742
 30
0.0
 10
643.134799
 20
204.997742
 30
0.0
  0
LWPOLYLINE
  5
175
100
AcDbEntity
  8
0
 62
7
100
AcDbPolyline
 90
5
 70
1
 10
670.187783
 20
199.140599
 30
0.0
 10
667.228863
 20
194.015599
 30
0.0
 10
649.475342
 20
194.015599
 30
0.0
 10
646.516422
 20
199.140599
 30
0.0
 10
670.187783
 20
199.140599
 30
0.0
  0
LWPOLYLINE
  5
176
100
AcDbEntity
  8
0
 62
7
100
AcDbPolyline
 90
5
 70
1
 10
747.119706
 20
91.009401
 30
0.0
 10
729.366186
 20
121.759401
 30
0.0
 10
720.489425
 20
106.384401
 30
0.0
 10
729.366186
 20
91.009401
 30
0.0
 10
747.119706
 20
91.009401
 30
0.0
  0
LWPOLYLINE
  5
177
100
AcDbEntity
  8
0
 62
7
100
AcDbPolyline
 90
5
 70
1
 10
715.612665
 20
145.581198
 30
0.0
 10
697.859144
 20
114.831198
 30
0.0
 10
715.612665
 20
114.831198
 30
0.0
 10
724.489425
 20
130.206198
 30
0.0
 10
715.612665
 20
145.581198
 30
0.0
  0
LWPOLYLINE
  5
178
100
AcDbEntity
  8
0
 62
7
100
AcDbPolyline
 90
5
 70
1
 10
717.076448
 20
95.402258
 30
0.0
 10
719.612665
 20
91.009401
 30
0.0
 10
684.105623
 20
91.009401
 30
0.0
 10
686.641841
 20
95.402258
 30
0.0
 10
717.076448
 20
95.402258
 30
0.0
  0
LWPOLYLINE
  5
179
100
AcDbEntity
  8
0
 62
7
100
AcDbPolyline
 90
5
 70
1
 10
690.023464
 20
101.259401
 30
0.0
 10
692.982384
 20
106.384401
 30
0.0
 10
710.735904
 20
106.384401
 30
0.0
 10
713.694825
 20
101.259401
 30
0.0
 10
690.023464
 20
101.259401
 30
0.0
  0
LWPOLYLINE
  5
17a
100
AcDbEntity
  8
0
 62
7
100
AcDbPolyline
 90
5
 70
1
 10
644.598582
 20
145.581198
 30
0.0
 10
626.845061
 20
114.831198
 30
0.0
 10
644.598582
 20
114.831198
 30
0.0
 10
653.475342
 20
130.206198
 30
0.0
 10
644.598582
 20
145.581198
 30
0.0
  0
LWPOLYLINE
  5
17b
100
AcDbEntity
  8
0
 62
7
100
AcDbPolyline
 90
5
 70
1
 10
613.091540
 20
91.009401
 30
0.0
 10
648.598582
 20
91.009401
 30
0.0
 10
639.721821
 20
106.384401
 30
0.0
 10
621.968301
 20
106.384401
 30
0.0
 10
613.091540
 20
91.009401
 30
0.0
  0
LWPOLYLINE
  5
17c
100
AcDbEntity
  8
0
 62
7
100
AcDbPolyline
 90
5
 70
1
 10
655.815885
 20
117.366544
 30
0.0
 10
658.352103
 20
121.759401
 30
0.0
 10
676.105623
 20
91.009401
 30
0.0
 10
671.033189
 20
91.009401
 30
0.0
 10
655.815885
 20
117.366544
 30
0.0
  0
LWPOLYLINE
  5
17d
100
AcDbEntity
  8
0
 62
7
100
AcDbPolyline
 90
5
 70
1
 10
664.269943
 20
91.009401
 30
0.0
 10
658.352103
 20
91.009401
 30
0.0
 10
649.475342
 20
106.384401
 30
0.0
 10
652.434262
 20
111.509401
 30
0.0
 10
664.269943
 20
91.009401
 30
0.0
  0
LWPOLYLINE
  5
17e
100
AcDbEntity
  8
0
 62
7
100
AcDbPolyline
 90
5
 70
1
 10
711.612665
 20
147.890599
 30
0.0
 10
676.105623
 20
147.890599
 30
0.0
 10
684.982384
 20
132.515599
 30
0.0
 10
702.735904
 20
132.515599
 30
0.0
 10
711.612665
 20
147.890599
 30
0.0
  0
LWPOLYLINE
  5
17f
100
AcDbEntity
  8
0
 62
7
100
AcDbPolyline
 90
5
 70
1
 10
648.598582
 20
147.890599
 30
0.0
 10
666.352103
 20
117.140599
 30
0.0
 10
675.228863
 20
132.515599
 30
0.0
 10
666.352103
 20
147.890599
 30
0.0
 10
648.598582
 20
147.890599
 30
0.0
  0
LWPOLYLINE
  5
180
100
AcDbEntity
  8
0
 62
7
100
AcDbPolyline
 90
5
 70
1
 10
692.786710
 20
124.068802
 30
0.0
 10
697.859144
 20
124.068802
 30
0.0
 10
680.105623
 20
93.318802
 30
0.0
 10
677.569406
 20
97.711659
 30
0.0
 10
692.786710
 20
124.068802
 30
0.0
  0
LWPOLYLINE
  5
181
100
AcDbEntity
  8
0
 62
7
100
AcDbPolyline
 90
5
 70
1
 10
674.187783
 20
103.568802
 30
0.0
 10
671.228863
 20
108.693802
 30
0.0
 10
680.105623
 20
124.068802
 30
0.0
 10
686.023464
 20
124.068802
 30
0.0
 10
674.187783
 20
103.568802
 30
0.0
  0
LWPOLYLINE
  5
182
100
AcDbEntity
  8
0
 62
7
100
AcDbPolyline
 90
5
 70
1
 10
755.119706
 20
91.009401
 30
0.0
 10
790.626748
 20
91.009401
 30
0.0
 10
781.749988
 20
106.384401
 30
0.0
 10
763.996467
 20
106.384401
 30
0.0
 10
755.119706
 20
91.009401
 30
0.0
  0
LWPOLYLINE
  5
183
100
AcDbEntity
  8
0
 62
7
100
AcDbPolyline
 90
5
 70
1
 10
818.133790
 20
91.009401
 30
0.0
 10
800.380269
 20
121.759401
 30
0.0
 10
791.503508
 20
106.384401
 30
0.0
 10
800.380269
 20
91.009401
 30
0.0
 10
818.133790
 20
91.009401
 30
0.0
  0
LWPOLYLINE
  5
184
100
AcDbEntity
  8
0
 62
7
100
AcDbPolyline
 90
5
 70
1
 10
773.945662
 20
114.831198
 30
0.0
 10
768.873227
 20
114.831198
 30
0.0
 10
786.626748
 20
145.581198
 30
0.0
 10
789.162965
 20
141.188341
 30
0.0
 10
773.945662
 20
114.831198
 30
0.0
  0
LWPOLYLINE
  5
185
100
AcDbEntity
  8
0
 62
7
100
AcDbPolyline
 90
5
 70
1
 10
792.544588
 20
135.331198
 30
0.0
 10
795.503508
 20
130.206198
 30
0.0
 10
786.626748
 20
114.831198
 30
0.0
 10
780.708908
 20
114.831198
 30
0.0
 10
792.544588
 20
135.331198
 30
0.0
  0
LWPOLYLINE
  5
186
100
AcDbEntity
  8
0
 62
7
100
AcDbPolyline
 90
5
 70
1
 10
822.133790
 20
93.318802
 30
0.0
 10
839.887310
 20
124.068802
 30
0.0
 10
822.133790
 20
124.068802
 30
0.0
 10
813.257029
 20
108.693802
 30
0.0
 10
822.133790
 20
93.318802
 30
0.0
  0
LWPOLYLINE
  5
187
100
AcDbEntity
  8
0
 62
7
100
AcDbPolyline
 90
5
 70
1
 10
853.640831
 20
147.890599
 30
0.0
 10
818.133790
 20
147.890599
 30
0.0
 10
827.010550
 20
132.515599
 30
0.0
 10
844.764071
 20
132.515599
 30
0.0
 10
853.640831
 20
147.890599
 30
0.0
  0
LWPOLYLINE
  5
188
100
AcDbEntity
  8
0
 62
7
100
AcDbPolyline
 90
5
 70
1
 10
810.916486
 20
121.533456
 30
0.0
 10
808.380269
 20
117.140599
 30
0.0
 10
790.626748
 20
147.890599
 30
0.0
 10
795.699183
 20
147.890599
 30
0.0
 10
810.916486
 20
121.533456
 30
0.0
  0
LWPOLYLINE
  5
189
100
AcDbEntity
  8
0
 62
7
100
AcDbPolyline
 90
5
 70
1
 10
802.462429
 20
147.890599
 30
0.0
 10
808.380269
 20
147.890599
 30
0.0
 10
817.257029
 20
132.515599
 30
0.0
 10
814.298109
 20
127.390599
 30
0.0
 10
802.462429
 20
147.890599
 30
0.0
  0
LWPOLYLINE
  5
18a
100
AcDbEntity
  8
0
 62
7
100
AcDbPolyline
 90
5
 70
1
 10
719.612665
 20
147.890599
 30
0.0
 10
737.366186
 20
117.140599
 30
0.0
 10
746.242946
 20
132.515599
 30
0.0
 10
737.366186
 20
147.890599
 30
0.0
 10
719.612665
 20
147.890599
 30
0.0
  0
LWPOLYLINE
  5
18b
100
AcDbEntity
  8
0
 62
7
100
AcDbPolyline
 90
5
 70
1
 10
751.119706
 20
93.318802
 30
0.0
 10
768.873227
 20
124.068802
 30
0.0
 10
751.119706
 20
124.068802
 30
0.0
 10
742.242946
 20
108.693802
 30
0.0
 10
751.119706
 20
93.318802
 30
0.0
  0
LWPOLYLINE
  5
18c
100
AcDbEntity
  8
0
 62
7
100
AcDbPolyline
 90
5
 70
1
 10
749.655924
 20
143.497742
 30
0.0
 10
747.119706
 20
147.890599
 30
0.0
 10
782.626748
 20
147.890599
 30
0.0
 10
780.090531
 20
143.497742
 30
0.0
 10
749.655924
 20
143.497742
 30
0.0
  0
LWPOLYLINE
  5
18d
100
AcDbEntity
  8
0
 62
7
100
AcDbPolyline
 90
5
 70
1
 10
776.708908
 20
137.640599
 30
0.0
 10
773.749988
 20
132.515599
 30
0.0
 10
755.996467
 20
132.515599
 30
0.0
 10
753.037547
 20
137.640599
 30
0.0
 10
776.708908
 20
137.640599
 30
0.0
  0
LWPOLYLINE
  5
18e
100
AcDbEntity
  8
0
 62
7
100
AcDbPolyline
 90
5
 70
1
 10
853.640831
 20
152.509401
 30
0.0
 10
835.887310
 20
183.259401
 30
0.0
 10
827.010550
 20
167.884401
 30
0.0
 10
835.887310
 20
152.509401
 30
0.0
 10
853.640831
 20
152.509401
 30
0.0
  0
LWPOLYLINE
  5
18f
100
AcDbEntity
  8
0
 62
7
100
AcDbPolyline
 90
5
 70
1
 10
822.133790
 20
207.081198
 30
0.0
 10
804.380269
 20
176.331198
 30
0.0
 10
822.133790
 20
176.331198
 30
0.0
 10
831.010550
 20
191.706198
 30
0.0
 10
822.133790
 20
207.081198
 30
0.0
  0
LWPOLYLINE
  5
190
100
AcDbEntity
  8
0
 62
7
100
AcDbPolyline
 90
5
 70
1
 10
823.597572
 20
156.902258
 30
0.0
 10
826.133790
 20
152.509401
 30
0.0
 10
790.626748
 20
152.509401
 30
0.0
 10
793.162965
 20
156.902258
 30
0.0
 10
823.597572
 20
156.902258
 30
0.0
  0
LWPOLYLINE
  5
191
100
AcDbEntity
  8
0
 62
7
100
AcDbPolyline
 90
5
 70
1
 10
796.544588
 20
162.759401
 30
0.0
 10
799.503508
 20
167.884401
 30
0.0
 10
817.257029
 20
167.884401
 30
0.0
 10
820.215949
 20
162.759401
 30
0.0
 10
796.544588
 20
162.759401
 30
0.0
  0
LWPOLYLINE
  5
192
100
AcDbEntity
  8
0
 62
7
100
AcDbPolyline
 90
5
 70
1
 10
751.119706
 20
207.081198
 30
0.0
 10
733.366186
 20
176.331198
 30
0.0
 10
751.119706
 20
176.331198
 30
0.0
 10
759.996467
 20
191.706198
 30
0.0
 10
751.119706
 20
207.081198
 30
0.0
  0
LWPOLYLINE
  5
193
100
AcDbEntity
  8
0
 62
7
100
AcDbPolyline
 90
5
 70
1
 10
719.612665
 20
152.509401
 30
0.0
 10
755.119706
 20
152.509401
 30
0.0
 10
746.242946
 20
167.884401
 30
0.0
 10
728.489425
 20
167.884401
 30
0.0
 10
719.612665
 20
152.509401
 30
0.0
  0
LWPOLYLINE
  5
194
100
AcDbEntity
  8
0
 62
7
100
AcDbPolyline
 90
5
 70
1
 10
762.337010
 20
178.866544
 30
0.0
 10
764.873227
 20
183.259401
 30
0.0
 10
782.626748
 20
152.509401
 30
0.0
 10
777.554313
 20
152.509401
 30
0.0
 10
762.337010
 20
178.866544
 30
0.0
  0
LWPOLYLINE
  5
195
100
AcDbEntity
  8
0
 62
7
100
AcDbPolyline
 90
5
 70
1
 10
770.791067
 20
152.509401
 30
0.0
 10
764.873227
 20
152.509401
 30
0.0
 10
755.996467
 20
167.884401
 30
0.0
 10
758.955387
 20
173.009401
 30
0.0
 10
770.791067
 20
152.509401
 30
0.0
  0
LWPOLYLINE
  5
196
100
AcDbEntity
  8
0
 62
7
100
AcDbPolyline
 90
5
 70
1
 10
818.133790
 20
209.390599
 30
0.0
 10
782.626748
 20
209.390599
 30
0.0
 10
791.503508
 20
194.015599
 30
0.0
 10
809.257029
 20
194.015599
 30
0.0
 10
818.133790
 20
209.390599
 30
0.0
  0
LWPOLYLINE
  5
197
100
AcDbEntity
  8
0
 62
7
100
AcDbPolyline
 90
5
 70
1
 10
755.119706
 20
209.390599
 30
0.0
 10
772.873227
 20
178.640599
 30
0.0
 10
781.749988
 20
194.015599
 30
0.0
 10
772.873227
 20
209.390599
 30
0.0
 10
755.119706
 20
209.390599
 30
0.0
  0
LWPOLYLINE
  5
198
100
AcDbEntity
  8
0
 62
7
100
AcDbPolyline
 90
5
 70
1
 10
799.307834
 20
185.568802
 30
0.0
 10
804.380269
 20
185.568802
 30
0.0
 10
786.626748
 20
154.818802
 30
0.0
 10
784.090531
 20
159.211659
 30
0.0
 10
799.307834
 20
185.568802
 30
0.0
  0
LWPOLYLINE
  5
199
100
AcDbEntity
  8
0
 62
7
100
AcDbPolyline
 90
5
 70
1
 10
780.708908
 20
165.068802
 30
0.0
 10
777.749988
 20
170.193802
 30
0.0
 10
786.626748
 20
185.568802
 30
0.0
 10
792.544588
 20
185.568802
 30
0.0
 10
780.708908
 20
165.068802
 30
0.0
  0
LWPOLYLINE
  5
19a
100
AcDbEntity
  8
0
 62
7
100
AcDbPolyline
 90
5
 70
1
 10
861.640831
 20
152.509401
 30
0.0
 10
897.147873
 20
152.509401
 30
0.0
 10
888.271112
 20
167.884401
 30
0.0
 10
870.517591
 20
167.884401
 30
0.0
 10
861.640831
 20
152.509401
 30
0.0
  0
LWPOLYLINE
  5
19b
100
AcDbEntity
  8
0
 62
7
100
AcDbPolyline
 90
5
 70
1
 10
924.654914
 20
152.509401
 30
0.0
 10
906.901393
 20
183.259401
 30
0.0
 10
898.024633
 20
167.884401
 30
0.0
 10
906.901393
 20
152.509401
 30
0.0
 10
924.654914
 20
152.509401
 30
0.0
  0
LWPOLYLINE
  5
19c
100
AcDbEntity
  8
0
 62
7
100
AcDbPolyline
 90
5
 70
1
 10
880.466786
 20
176.331198
 30
0.0
 10
875.394352
 20
176.331198
 30
0.0
 10
893.147873
 20
207.081198
 30
0.0
 10
895.684090
 20
202.688341
 30
0.0
 10
880.466786
 20
176.331198
 30
0.0
  0
LWPOLYLINE
  5
19d
100
AcDbEntity
  8
0
 62
7
100
AcDbPolyline
 90
5
 70
1
 10
899.065713
 20
196.831198
 30
0.0
 10
902.024633
 20
191.706198
 30
0.0
 10
893.147873
 20
176.331198
 30
0.0
 10
887.230032
 20
176.331198
 30
0.0
 10
899.065713
 20
196.831198
 30
0.0
  0
LWPOLYLINE
  5
19e
100
AcDbEntity
  8
0
 62
7
100
AcDbPolyline
 90
5
 70
1
 10
928.654914
 20
154.818802
 30
0.0
 10
946.408435
 20
185.568802
 30
0.0
 10
928.654914
 20
185.568802
 30
0.0
 10
919.778154
 20
170.193802
 30
0.0
 10
928.654914
 20
154.818802
 30
0.0
  0
LWPOLYLINE
  5
19f
100
AcDbEntity
  8
0
 62
7
100
AcDbPolyline
 90
5
 70
1
 10
960.161956
 20
209.390599
 30
0.0
 10
924.654914
 20
209.390599
 30
0.0
 10
933.531675
 20
194.015599
 30
0.0
 10
951.285195
 20
194.015599
 30
0.0
 10
960.161956
 20
209.390599
 30
0.0
  0
LWPOLYLINE
  5
1a0
100
AcDbEntity
  8
0
 62
7
100
AcDbPolyline
 90
5
 70
1
 10
917.437611
 20
183.033456
 30
0.0
 10
914.901393
 20
178.640599
 30
0.0
 10
897.147873
 20
209.390599
 30
0.0
 10
902.220307
 20
209.390599
 30
0.0
 10
917.437611
 20
183.033456
 30
0.0
  0
LWPOLYLINE
  5
1a1
100
AcDbEntity
  8
0
 62
7
100
AcDbPolyline
 90
5
 70
1
 10
908.983553
 20
209.390599
 30
0.0
 10
914.901393
 20
209.390599
 30
0.0
 10
923.778154
 20
194.015599
 30
0.0
 10
920.819234
 20
188.890599
 30
0.0
 10
908.983553
 20
209.390599
 30
0.0
  0
LWPOLYLINE
  5
1a2
100
AcDbEntity
  8
0
 62
7
100
AcDbPolyline
 90
5
 70
1
 10
826.133790
 20
209.390599
 30
0.0
 10
843.887310
 20
178.640599
 30
0.0
 10
852.764071
 20
194.015599
 30
0.0
 10
843.887310
 20
209.390599
 30
0.0
 10
826.133790
 20
209.390599
 30
0.0
  0
LWPOLYLINE
  5
1a3
100
AcDbEntity
  8
0
 62
7
100
AcDbPolyline
 90
5
 70
1
 10
857.640831
 20
154.818802
 30
0.0
 10
875.394352
 20
185.568802
 30
0.0
 10
857.640831
 20
185.568802
 30
0.0
 10
848.764071
 20
170.193802
 30
0.0
 10
857.640831
 20
154.818802
 30
0.0
  0
LWPOLYLINE
  5
1a4
100
AcDbEntity
  8
0
 62
7
100
AcDbPolyline
 90
5
 70
1
 10
856.177048
 20
204.997742
 30
0.0
 10
853.640831
 20
209.390599
 30
0.0
 10
889.147873
 20
209.390599
 30
0.0
 10
886.611655
 20
204.997742
 30
0.0
 10
856.177048
 20
204.997742
 30
0.0
  0
LWPOLYLINE
  5
1a5
100
AcDbEntity
  8
0
 62
7
100
AcDbPolyline
 90
5
 70
1
 10
883.230032
 20
199.140599
 30
0.0
 10
880.271112
 20
194.015599
 30
0.0
 10
862.517591
 20
194.015599
 30
0.0
 10
859.558671
 20
199.140599
 30
0.0
 10
883.230032
 20
199.140599
 30
0.0
  0
LWPOLYLINE
  5
1a6
100
AcDbEntity
  8
0
 62
7
100
AcDbPolyline
 90
5
 70
1
 10
960.161956
 20
91.009401
 30
0.0
 10
942.408435
 20
121.759401
 30
0.0
 10
933.531675
 20
106.384401
 30
0.0
 10
942.408435
 20
91.009401
 30
0.0
 10
960.161956
 20
91.009401
 30
0.0
  0
LWPOLYLINE
  5
1a7
100
AcDbEntity
  8
0
 62
7
100
AcDbPolyline
 90
5
 70
1
 10
928.654914
 20
145.581198
 30
0.0
 10
910.901393
 20
114.831198
 30
0.0
 10
928.654914
 20
114.831198
 30
0.0
 10
937.531675
 20
130.206198
 30
0.0
 10
928.654914
 20
145.581198
 30
0.0
  0
LWPOLYLINE
  5
1a8
100
AcDbEntity
  8
0
 62
7
100
AcDbPolyline
 90
5
 70
1
 10
930.118697
 20
95.402258
 30
0.0
 10
932.654914
 20
91.009401
 30
0.0
 10
897.147873
 20
91.009401
 30
0.0
 10
899.684090
 20
95.402258
 30
0.0
 10
930.118697
 20
95.402258
 30
0.0
  0
LWPOLYLINE
  5
1a9
100
AcDbEntity
  8
0
 62
7
100
AcDbPolyline
 90
5
 70
1
 10
903.065713
 20
101.259401
 30
0.0
 10
906.024633
 20
106.384401
 30
0.0
 10
923.778154
 20
106.384401
 30
0.0
 10
926.737074
 20
101.259401
 30
0.0
 10
903.065713
 20
101.259401
 30
0.0
  0
LWPOLYLINE
  5
1aa
100
AcDbEntity
  8
0
 62
7
100
AcDbPolyline
 90
5
 70
1
 10
857.640831
 20
145.581198
 30
0.0
 10
839.887310
 20
114.831198
 30
0.0
 10
857.640831
 20
114.831198
 30
0.0
 10
866.517591
 20
130.206198
 30
0.0
 10
857.640831
 20
145.581198
 30
0.0
  0
LWPOLYLINE
  5
1ab
100
AcDbEntity
  8
0
 62
7
100
AcDbPolyline
 90
5
 70
1
 10
826.133790
 20
91.009401
 30
0.0
 10
861.640831
 20
91.009401
 30
0.0
 10
852.764071
 20
106.384401
 30
0.0
 10
835.010550
 20
106.384401
 30
0.0
 10
826.133790
 20
91.009401
 30
0.0
  0
LWPOLYLINE
  5
1ac
100
AcDbEntity
  8
0
 62
7
100
AcDbPolyline
 90
5
 70
1
 10
868.858135
 20
117.366544
 30
0.0
 10
871.394352
 20
121.759401
 30
0.0
 10
889.147873
 20
91.009401
 30
0.0
 10
884.075438
 20
91.009401
 30
0.0
 10
868.858135
 20
117.366544
 30
0.0
  0
LWPOLYLINE
  5
1ad
100
AcDbEntity
  8
0
 62
7
100
AcDbPolyline
 90
5
 70
1
 10
877.312192
 20
91.009401
 30
0.0
 10
871.394352
 20
91.009401
 30
0.0
 10
862.517591
 20
106.384401
 30
0.0
 10
865.476512
 20
111.509401
 30
0.0
 10
877.312192
 20
91.009401
 30
0.0
  0
LWPOLYLINE
  5
1ae
100
AcDbEntity
  8
0
 62
7
100
AcDbPolyline
 90
5
 70
1
 10
924.654914
 20
147.890599
 30
0.0
 10
889.147873
 20
147.890599
 30
0.0
 10
898.024633
 20
132.515599
 30
0.0
 10
915.778154
 20
132.515599
 30
0.0
 10
924.654914
 20
147.890599
 30
0.0
  0
LWPOLYLINE
  5
1af
100
AcDbEntity
  8
0
 62
7
100
AcDbPolyline
 90
5
 70
1
 10
861.640831
 20
147.890599
 30
0.0
 10
879.394352
 20
117.140599
 30
0.0
 10
888.271112
 20
132.515599
 30
0.0
 10
879.394352
 20
147.890599
 30
0.0
 10
861.640831
 20
147.890599
 30
0.0
  0
LWPOLYLINE
  5
1b0
100
AcDbEntity
  8
0
 62
7
100
AcDbPolyline
 90
5
 70
1
 10
905.828959
 20
124.068802
 30
0.0
 10
910.901393
 20
124.068802
 30
0.0
 10
893.147873
 20
93.318802
 30
0.0
 10
890.611655
 20
97.711659
 30
0.0
 10
905.828959
 20
124.068802
 30
0.0
  0
LWPOLYLINE
  5
1b1
100
AcDbEntity
  8
0
 62
7
100
AcDbPolyline
 90
5
 70
1
 10
887.230032
 20
103.568802
 30
0.0
 10
884.271112
 20
108.693802
 30
0.0
 10
893.147873
 20
124.068802
 30
0.0
 10
899.065713
 20
124.068802
 30
0.0
 10
887.230032
 20
103.568802
 30
0.0
  0
LWPOLYLINE
  5
1b2
100
AcDbEntity
  8
0
 62
7
100
AcDbPolyline
 90
5
 70
1
 10
968.161956
 20
91.009401
 30
0.0
 10
1003.668997
 20
91.009401
 30
0.0
 10
994.792237
 20
106.384401
 30
0.0
 10
977.038716
 20
106.384401
 30
0.0
 10
968.161956
 20
91.009401
 30
0.0
  0
LWPOLYLINE
  5
1b3
100
AcDbEntity
  8
0
 62
7
100
AcDbPolyline
 90
5
 70
1
 10
1031.176039
 20
91.009401
 30
0.0
 10
1013.422518
 20
121.759401
 30
0.0
 10
1004.545758
 20
106.384401
 30
0.0
 10
1013.422518
 20
91.009401
 30
0.0
 10
1031.176039
 20
91.009401
 30
0.0
  0
LWPOLYLINE
  5
1b4
100
AcDbEntity
  8
0
 62
7
100
AcDbPolyline
 90
5
 70
1
 10
986.987911
 20
114.831198
 30
0.0
 10
981.915477
 20
114.831198
 30
0.0
 10
999.668997
 20
145.581198
 30
0.0
 10
1002.205215
 20
141.188341
 30
0.0
 10
986.987911
 20
114.831198
 30
0.0
  0
LWPOLYLINE
  5
1b5
100
AcDbEntity
  8
0
 62
7
100
AcDbPolyline
 90
5
 70
1
 10
1005.586838
 20
135.331198
 30
0.0
 10
1008.545758
 20
130.206198
 30
0.0
 10
999.668997
 20
114.831198
 30
0.0
 10
993.751157
 20
114.831198
 30
0.0
 10
1005.586838
 20
135.331198
 30
0.0
  0
LWPOLYLINE
  5
1b6
100
AcDbEntity
  8
0
 62
7
100
AcDbPolyline
 90
6
 70
1
 10
1035.176039
 20
93.318802
 30
0.0
 10
1026.299278
 20
108.693802
 30
0.0
 10
1035.176039
 20
124.068802
 30
0.0
 10
1037.500000
 20
124.068802
 30
0.0
 10
1037.500000
 20
97.344021
 30
0.0
 10
1035.176039
 20
93.318802
 30
0.0
  0
LWPOLYLINE
  5
1b7
100
AcDbEntity
  8
0
 62
7
100
AcDbPolyline
 90
4
 70
1
 10
1031.176039
 20
147.890599
 30
0.0
 10
1037.500000
 20
147.890599
 30
0.0
 10
1037.500000
 20
136.937177
 30
0.0
 10
1031.176039
 20
147.890599
 30
0.0
  0
LWPOLYLINE
  5
1b8
100
AcDbEntity
  8
0
 62
7
100
AcDbPolyline
 90
5
 70
1
 10
1023.958735
 20
121.533456
 30
0.0
 10
1021.422518
 20
117.140599
 30
0.0
 10
1003.668997
 20
147.890599
 30
0.0
 10
1008.741432
 20
147.890599
 30
0.0
 10
1023.958735
 20
121.533456
 30
0.0
  0
LWPOLYLINE
  5
1b9
100
AcDbEntity
  8
0
 62
7
100
AcDbPolyline
 90
5
 70
1
 10
1015.504678
 20
147.890599
 30
0.0
 10
1021.422518
 20
147.890599
 30
0.0
 10
1030.299278
 20
132.515599
 30
0.0
 10
1027.340358
 20
127.390599
 30
0.0
 10
1015.504678
 20
147.890599
 30
0.0
  0
LWPOLYLINE
  5
1ba
100
AcDbEntity
  8
0
 62
7
100
AcDbPolyline
 90
5
 70
1
 10
932.654914
 20
147.890599
 30
0.0
 10
950.408435
 20
117.140599
 30
0.0
 10
959.285195
 20
132.515599
 30
0.0
 10
950.408435
 20
147.890599
 30
0.0
 10
932.654914
 20
147.890599
 30
0.0
  0
LWPOLYLINE
  5
1bb
100
AcDbEntity
  8
0
 62
7
100
AcDbPolyline
 90
5
 70
1
 10
964.161956
 20
93.318802
 30
0.0
 10
981.915477
 20
124.068802
 30
0.0
 10
964.161956
 20
124.068802
 30
0.0
 10
955.285195
 20
108.693802
 30
0.0
 10
964.161956
 20
93.318802
 30
0.0
  0
LWPOLYLINE
  5
1bc
100
AcDbEntity
  8
0
 62
7
100
AcDbPolyline
 90
5
 70
1
 10
962.698173
 20
143.497742
 30
0.0
 10
960.161956
 20
147.890599
 30
0.0
 10
995.668997
 20
147.890599
 30
0.0
 10
993.132780
 20
143.497742
 30
0.0
 10
962.698173
 20
143.497742
 30
0.0
  0
LWPOLYLINE
  5
1bd
100
AcDbEntity
  8
0
 62
7
100
AcDbPolyline
 90
5
 70
1
 10
989.751157
 20
137.640599
 30
0.0
 10
986.792237
 20
132.515599
 30
0.0
 10
969.038716
 20
132.515599
 30
0.0
 10
966.079796
 20
137.640599
 30
0.0
 10
989.751157
 20
137.640599
 30
0.0
  0
LWPOLYLINE
  5
1be
100
AcDbEntity
  8
0
 62
7
100
AcDbPolyline
 90
6
 70
1
 10
1035.176039
 20
176.331198
 30
0.0
 10
1017.422518
 20
176.331198
 30
0.0
 10
1035.176039
 20
207.081198
 30
0.0
 10
1037.500000
 20
203.055979
 30
0.0
 10
1037.500000
 20
180.356417
 30
0.0
 10
1035.176039
 20
176.331198
 30
0.0
  0
LWPOLYLINE
  5
1bf
100
AcDbEntity
  8
0
 62
7
100
AcDbPolyline
 90
6
 70
1
 10
1037.500000
 20
155.412386
 30
0.0
 10
1037.500000
 20
152.509401
 30
0.0
 10
1003.668997
 20
152.509401
 30
0.0
 10
1006.205215
 20
156.902258
 30
0.0
 10
1036.639822
 20
156.902258
 30
0.0
 10
1037.500000
 20
155.412386
 30
0.0
  0
LWPOLYLINE
  5
1c0
100
AcDbEntity
  8
0
 62
7
100
AcDbPolyline
 90
5
 70
1
 10
1009.586838
 20
162.759401
 30
0.0
 10
1012.545758
 20
167.884401
 30
0.0
 10
1030.299278
 20
167.884401
 30
0.0
 10
1033.258199
 20
162.759401
 30
0.0
 10
1009.586838
 20
162.759401
 30
0.0
  0
LWPOLYLINE
  5
1c1
100
AcDbEntity
  8
0
 62
7
100
AcDbPolyline
 90
5
 70
1
 10
964.161956
 20
207.081198
 30
0.0
 10
946.408435
 20
176.331198
 30
0.0
 10
964.161956
 20
176.331198
 30
0.0
 10
973.038716
 20
191.706198
 30
0.0
 10
964.161956
 20
207.081198
 30
0.0
  0
LWPOLYLINE
  5
1c2
100
AcDbEntity
  8
0
 62
7
100
AcDbPolyline
 90
5
 70
1
 10
932.654914
 20
152.509401
 30
0.0
 10
968.161956
 20
152.509401
 30
0.0
 10
959.285195
 20
167.884401
 30
0.0
 10
941.531675
 20
167.884401
 30
0.0
 10
932.654914
 20
152.509401
 30
0.0
  0
LWPOLYLINE
  5
1c3
100
AcDbEntity
  8
0
 62
7
100
AcDbPolyline
 90
5
 70
1
 10
975.379259
 20
178.866544
 30
0.0
 10
977.915477
 20
183.259401
 30
0.0
 10
995.668997
 20
152.509401
 30
0.0
 10
990.596563
 20
152.509401
 30
0.0
 10
975.379259
 20
178.866544
 30
0.0
  0
LWPOLYLINE
  5
1c4
100
AcDbEntity
  8
0
 62
7
100
AcDbPolyline
 90
5
 70
1
 10
983.833317
 20
152.509401
 30
0.0
 10
977.915477
 20
152.509401
 30
0.0
 10
969.038716
 20
167.884401
 30
0.0
 10
971.997636
 20
173.009401
 30
0.0
 10
983.833317
 20
152.509401
 30
0.0
  0
LWPOLYLINE
  5
1c5
100
AcDbEntity
  8
0
 62
7
100
AcDbPolyline
 90
5
 70
1
 10
1031.176039
 20
209.390599
 30
0.0
 10
995.668997
 20
209.390599
 30
0.0
 10
1004.545758
 20
194.015599
 30
0.0
 10
1022.299278
 20
194.015599
 30
0.0
 10
1031.176039
 20
209.390599
 30
0.0
  0
LWPOLYLINE
  5
1c6
100
AcDbEntity
  8
0
 62
7
100
AcDbPolyline
 90
5
 70
1
 10
968.161956
 20
209.390599
 30
0.0
 10
985.915477
 20
178.640599
 30
0.0
 10
994.792237
 20
194.015599
 30
0.0
 10
985.915477
 20
209.390599
 30
0.0
 10
968.161956
 20
209.390599
 30
0.0
  0
LWPOLYLINE
  5
1c7
100
AcDbEntity
  8
0
 62
7
100
AcDbPolyline
 90
5
 70
1
 10
1012.350084
 20
185.568802
 30
0.0
 10
1017.422518
 20
185.568802
 30
0.0
 10
999.668997
 20
154.818802
 30
0.0
 10
997.132780
 20
159.211659
 30
0.0
 10
1012.350084
 20
185.568802
 30
0.0
  0
LWPOLYLINE
  5
1c8
100
AcDbEntity
  8
0
 62
7
100
AcDbPolyline
 90
5
 70
1
 10
993.751157
 20
165.068802
 30
0.0
 10
990.792237
 20
170.193802
 30
0.0
 10
999.668997
 20
185.568802
 30
0.0
 10
1005.586838
 20
185.568802
 30
0.0
 10
993.751157
 20
165.068802
 30
0.0
  0
LWPOLYLINE
  5
1c9
100
AcDbEntity
  8
0
 62
7
100
AcDbPolyline
 90
5
 70
1
 10
147.500000
 20
65.000000
 30
0.0
 10
1052.500000
 20
65.000000
 30
0.0
 10
1052.500000
 20
235.000000
 30
0.0
 10
147.500000
 20
235.000000
 30
0.0
 10
147.500000
 20
65.000000
 30
0.0
  0
ENDSEC
  0
SECTION
  2
OBJECTS
  0
DICTIONARY
  5
C
330
0
100
AcDbDictionary
  3
ACAD_GROUP
350
D
  3
ACAD_MLINESTYLE
350
17
  0
DICTIONARY
  5
D
330
C
100
AcDbDictionary
  0
DICTIONARY
  5
1A
330
C
100
AcDbDictionary
  0
DICTIONARY
  5
17
330
C
100
AcDbDictionary
  3
STANDARD
350
18
  0
DICTIONARY
  5
19
330
C
100
AcDbDictionary
  0
ENDSEC
  0
EOF
