  0
SECTION
  2
HEADER
  9
$ACADVER
  1
AC1014
  9
$HANDSEED
  5
FFFF
  9
$INSUNITS
 70
     4
  9
$MEASUREMENT
 70
     1
  0
ENDSEC
  0
SECTION
  2
TABLES
  0
TABLE
  2
VPORT
  5
8
330
0
100
AcDbSymbolTable
 70
     4
  0
VPORT
  5
2E
330
8
100
AcDbSymbolTableRecord
100
AcDbViewportTableRecord
  2
*ACTIVE
 70
     0
 10
0.0
 20
0.0
 11
1.0
 21
1.0
 12
210.0
 22
148.5
 13
0.0
 23
0.0
 14
10.0
 24
10.0
 15
10.0
 25
10.0
 16
0.0
 26
0.0
 36
1.0
 17
0.0
 27
0.0
 37
0.0
 40
341.0
 41
1.24
 42
50.0
 43
0.0
 44
0.0
 50
0.0
 51
0.0
 71
     0
 72
   100
 73
     1
 74
     3
 75
     0
 76
     0
 77
     0
 78
     0
  0
ENDTAB
  0
TABLE
  2
LTYPE
  5
5
330
0
100
AcDbSymbolTable
 70
     1
  0
LTYPE
  5
14
330
5
100
AcDbSymbolTableRecord
100
AcDbLinetypeTableRecord
  2
BYBLOCK
 70
     0
  3

 72
    65
 73
     0
 40
0.0
  0
LTYPE
  5
15
330
5
100
AcDbSymbolTableRecord
100
AcDbLinetypeTableRecord
  2
BYLAYER
 70
     0
  3

 72
    65
 73
     0
 40
0.0
  0
LTYPE
  5
16
330
5
100
AcDbSymbolTableRecord
100
AcDbLinetypeTableRecord
  2
CONTINUOUS
 70
     0
  3
Solid line
 72
    65
 73
     0
 40
0.0
  0
ENDTAB
  0
TABLE
  2
LAYER
  5
2
100
AcDbSymbolTable
 70
2
  0
LAYER
  5
50
100
AcDbSymbolTableRecord
100
AcDbLayerTableRecord
  2
0
 70
0
  6
CONTINUOUS
  0
LAYER
  5
51
100
AcDbSymbolTableRecord
100
AcDbLayerTableRecord
  2
Layer_1
 70
0
  6
CONTINUOUS
  0
ENDTAB
  0
TABLE
  2
STYLE
  5
3
330
0
100
AcDbSymbolTable
 70
     1
  0
STYLE
  5
11
330
3
100
AcDbSymbolTableRecord
100
AcDbTextStyleTableRecord
  2
STANDARD
 70
     0
 40
0.0
 41
1.0
 50
0.0
 71
     0
 42
2.5
  3
txt
  4

  0
ENDTAB
  0
TABLE
  2
VIEW
  5
6
330
0
100
AcDbSymbolTable
 70
     0
  0
ENDTAB
  0
TABLE
  2
UCS
  5
7
330
0
100
AcDbSymbolTable
 70
     0
  0
ENDTAB
  0
TABLE
  2
APPID
  5
9
330
0
100
AcDbSymbolTable
 70
     2
  0
APPID
  5
12
330
9
100
AcDbSymbolTableRecord
100
AcDbRegAppTableRecord
  2
ACAD
 70
     0
  0
ENDTAB
  0
TABLE
  2
DIMSTYLE
  5
A
330
0
100
AcDbSymbolTable
 70
     1
  0
DIMSTYLE
105
27
330
A
100
AcDbSymbolTableRecord
100
AcDbDimStyleTableRecord
  2
ISO-25
 70
     0
  3

  4

  5

  6

  7

 40
1.0
 41
2.5
 42
0.625
 43
3.75
 44
1.25
 45
0.0
 46
0.0
 47
0.0
 48
0.0
140
2.5
141
2.5
142
0.0
143
0.03937007874016
144
1.0
145
0.0
146
1.0
147
0.625
 71
     0
 72
     0
 73
     0
 74
     0
 75
     0
 76
     0
 77
     1
 78
     8
170
     0
171
     3
172
     1
173
     0
174
     0
175
     0
176
     0
177
     0
178
     0
270
     2
271
     2
272
     2
273
     2
274
     3
340
11
275
     0
280
     0
281
     0
282
     0
283
     0
284
     8
285
     0
286
     0
287
     3
288
     0
  0
ENDTAB
  0
TABLE
  2
BLOCK_RECORD
  5
1
330
0
100
AcDbSymbolTable
 70
     1
  0
BLOCK_RECORD
  5
1F
330
1
100
AcDbSymbolTableRecord
100
AcDbBlockTableRecord
  2
*MODEL_SPACE
  0
BLOCK_RECORD
  5
1B
330
1
100
AcDbSymbolTableRecord
100
AcDbBlockTableRecord
  2
*PAPER_SPACE
  0
ENDTAB
  0
ENDSEC
  0
SECTION
  2
BLOCKS
  0
BLOCK
  5
20
330
1F
100
AcDbEntity
  8
0
100
AcDbBlockBegin
  2
*MODEL_SPACE
 70
     0
 10
0.0
 20
0.0
 30
0.0
  3
*MODEL_SPACE
  1

  0
ENDBLK
  5
21
330
1F
100
AcDbEntity
  8
0
100
AcDbBlockEnd
  0
BLOCK
  5
1C
330
1B
100
AcDbEntity
 67
     1
  8
0
100
AcDbBlockBegin
  2
*PAPER_SPACE
  1

  0
ENDBLK
  5
1D
330
1B
100
AcDbEntity
 67
     1
  8
0
100
AcDbBlockEnd
  0
ENDSEC
  0
SECTION
  2
ENTITIES
  0
LWPOLYLINE
  5
100
100
AcDbEntity
  8
Layer_1
 62
5
100
AcDbPolyline
 90
208
 70
1
 10
157.691080
 20
452.140377
 30
0.0
 10
157.691080
 20
308.440100
 30
0.0
 10
161.113610
 20
308.440100
 30
0.0
 10
164.831730
 20
308.440100
 30
0.0
 10
162.941410
 20
311.785120
 30
0.0
 10
169.595780
 20
323.307930
 30
0.0
 10
182.902980
 20
323.307930
 30
0.0
 10
189.555290
 20
311.785630
 30
0.0
 10
187.624140
 20
308.440100
 30
0.0
 10
191.736030
 20
308.440100
 30
0.0
 10
229.678930
 20
308.440100
 30
0.0
 10
233.596010
 20
308.440100
 30
0.0
 10
231.706200
 20
311.785120
 30
0.0
 10
238.360060
 20
323.307930
 30
0.0
 10
251.667260
 20
323.307930
 30
0.0
 10
258.320080
 20
311.785630
 30
0.0
 10
256.388420
 20
308.440100
 30
0.0
 10
260.456380
 20
308.440100
 30
0.0
 10
298.278370
 20
308.440100
 30
0.0
 10
302.249700
 20
308.440100
 30
0.0
 10
300.359890
 20
311.785120
 30
0.0
 10
307.013750
 20
323.307930
 30
0.0
 10
320.320950
 20
323.307930
 30
0.0
 10
326.973770
 20
311.785630
 30
0.0
 10
325.042110
 20
308.440100
 30
0.0
 10
329.055300
 20
308.440100
 30
0.0
 10
366.920690
 20
308.440100
 30
0.0
 10
371.056350
 20
308.440100
 30
0.0
 10
369.166030
 20
311.785120
 30
0.0
 10
375.820400
 20
323.307930
 30
0.0
 10
389.127600
 20
323.307930
 30
0.0
 10
395.779910
 20
311.785630
 30
0.0
 10
393.848760
 20
308.440100
 30
0.0
 10
397.698650
 20
308.440100
 30
0.0
 10
435.657060
 20
308.440100
 30
0.0
 10
439.710040
 20
308.440100
 30
0.0
 10
437.820240
 20
311.785120
 30
0.0
 10
444.474090
 20
323.307930
 30
0.0
 10
457.781290
 20
323.307930
 30
0.0
 10
464.434114
 20
311.785630
 30
0.0
 10
462.502450
 20
308.440100
 30
0.0
 10
466.435025
 20
308.440100
 30
0.0
 10
504.399633
 20
308.440100
 30
0.0
 10
508.211287
 20
308.440100
 30
0.0
 10
506.320963
 20
311.785120
 30
0.0
 10
512.974820
 20
323.307930
 30
0.0
 10
526.282535
 20
323.307930
 30
0.0
 10
532.934842
 20
311.785630
 30
0.0
 10
531.003177
 20
308.440100
 30
0.0
 10
535.177083
 20
308.440100
 30
0.0
 10
573.006815
 20
308.440100
 30
0.0
 10
576.864977
 20
308.440100
 30
0.0
 10
574.974653
 20
311.785120
 30
0.0
 10
581.628511
 20
323.307930
 30
0.0
 10
594.936226
 20
323.307930
 30
0.0
 10
601.588533
 20
311.785630
 30
0.0
 10
599.657384
 20
308.440100
 30
0.0
 10
603.784781
 20
308.440100
 30
0.0
 10
641.665673
 20
308.440100
 30
0.0
 10
645.671113
 20
308.440100
 30
0.0
 10
643.781306
 20
311.785120
 30
0.0
 10
650.435159
 20
323.307930
 30
0.0
 10
663.742360
 20
323.307930
 30
0.0
 10
670.395190
 20
311.785630
 30
0.0
 10
668.463520
 20
308.440100
 30
0.0
 10
672.443640
 20
308.440100
 30
0.0
 10
710.292490
 20
308.440100
 30
0.0
 10
714.325320
 20
308.440100
 30
0.0
 10
712.435000
 20
311.785120
 30
0.0
 10
719.088860
 20
323.307930
 30
0.0
 10
732.396050
 20
323.307930
 30
0.0
 10
739.048880
 20
311.785630
 30
0.0
 10
737.117210
 20
308.440100
 30
0.0
 10
741.070460
 20
308.440100
 30
0.0
 10
778.951870
 20
308.440100
 30
0.0
 10
782.689620
 20
308.440100
 30
0.0
 10
780.799300
 20
311.785120
 30
0.0
 10
787.453160
 20
323.307930
 30
0.0
 10
800.760870
 20
323.307930
 30
0.0
 10
807.413180
 20
311.785630
 30
0.0
 10
805.482030
 20
308.440100
 30
0.0
 10
809.729320
 20
308.440100
 30
0.0
 10
847.627260
 20
308.440100
 30
0.0
 10
851.343310
 20
308.440100
 30
0.0
 10
849.452990
 20
311.785120
 30
0.0
 10
856.107370
 20
323.307930
 30
0.0
 10
869.414560
 20
323.307930
 30
0.0
 10
876.066870
 20
311.785630
 30
0.0
 10
874.135720
 20
308.440100
 30
0.0
 10
878.405230
 20
308.440100
 30
0.0
 10
916.286120
 20
308.440100
 30
0.0
 10
920.149970
 20
308.440100
 30
0.0
 10
918.259640
 20
311.785120
 30
0.0
 10
924.913500
 20
323.307930
 30
0.0
 10
938.221220
 20
323.307930
 30
0.0
 10
944.873520
 20
311.785630
 30
0.0
 10
942.942370
 20
308.440100
 30
0.0
 10
947.064090
 20
308.440100
 30
0.0
 10
984.815270
 20
308.440100
 30
0.0
 10
988.787120
 20
308.440100
 30
0.0
 10
986.897310
 20
311.785120
 30
0.0
 10
993.551170
 20
323.307930
 30
0.0
 10
1006.858370
 20
323.307930
 30
0.0
 10
1013.511190
 20
311.785630
 30
0.0
 10
1011.579530
 20
308.440100
 30
0.0
 10
1015.593240
 20
308.440100
 30
0.0
 10
1053.468960
 20
308.440100
 30
0.0
 10
1057.440810
 20
308.440100
 30
0.0
 10
1055.551010
 20
311.785120
 30
0.0
 10
1062.204860
 20
323.307930
 30
0.0
 10
1075.512060
 20
323.307930
 30
0.0
 10
1082.164880
 20
311.785630
 30
0.0
 10
1080.233220
 20
308.440100
 30
0.0
 10
1084.246930
 20
308.440100
 30
0.0
 10
1122.122650
 20
308.440100
 30
0.0
 10
1126.094500
 20
308.440100
 30
0.0
 10
1124.204700
 20
311.785120
 30
0.0
 10
1130.858550
 20
323.307930
 30
0.0
 10
1144.165750
 20
323.307930
 30
0.0
 10
1150.818580
 20
311.785630
 30
0.0
 10
1148.886910
 20
308.440100
 30
0.0
 10
1152.900620
 20
308.440100
 30
0.0
 10
1157.691020
 20
308.440100
 30
0.0
 10
1157.691020
 20
452.140377
 30
0.0
 10
1115.716840
 20
452.140377
 30
0.0
 10
1116.499740
 20
450.783871
 30
0.0
 10
1109.846400
 20
439.260026
 30
0.0
 10
1096.539200
 20
439.260026
 30
0.0
 10
1089.885860
 20
450.783871
 30
0.0
 10
1090.670310
 20
452.140377
 30
0.0
 10
1047.063150
 20
452.140377
 30
0.0
 10
1047.846050
 20
450.783871
 30
0.0
 10
1041.192710
 20
439.260026
 30
0.0
 10
1027.885510
 20
439.260026
 30
0.0
 10
1021.232170
 20
450.783871
 30
0.0
 10
1022.016620
 20
452.140377
 30
0.0
 10
978.409460
 20
452.140377
 30
0.0
 10
979.192360
 20
450.783871
 30
0.0
 10
972.539020
 20
439.260026
 30
0.0
 10
959.231820
 20
439.260026
 30
0.0
 10
952.578480
 20
450.783871
 30
0.0
 10
953.362410
 20
452.140377
 30
0.0
 10
909.755250
 20
452.140377
 30
0.0
 10
910.538670
 20
450.783871
 30
0.0
 10
903.884810
 20
439.260026
 30
0.0
 10
890.578130
 20
439.260026
 30
0.0
 10
883.924790
 20
450.783871
 30
0.0
 10
884.708720
 20
452.140377
 30
0.0
 10
841.101560
 20
452.140377
 30
0.0
 10
841.884980
 20
450.783871
 30
0.0
 10
835.231120
 20
439.260026
 30
0.0
 10
821.924440
 20
439.260026
 30
0.0
 10
815.271100
 20
450.783871
 30
0.0
 10
816.055030
 20
452.140377
 30
0.0
 10
772.600830
 20
452.140377
 30
0.0
 10
773.383730
 20
450.783871
 30
0.0
 10
766.730390
 20
439.260026
 30
0.0
 10
753.423190
 20
439.260026
 30
0.0
 10
746.769850
 20
450.783871
 30
0.0
 10
747.554300
 20
452.140377
 30
0.0
 10
703.794180
 20
452.140377
 30
0.0
 10
704.577600
 20
450.783871
 30
0.0
 10
697.923740
 20
439.260026
 30
0.0
 10
684.617060
 20
439.260026
 30
0.0
 10
677.963720
 20
450.783871
 30
0.0
 10
678.747650
 20
452.140377
 30
0.0
 10
635.293452
 20
452.140377
 30
0.0
 10
636.076350
 20
450.783871
 30
0.0
 10
629.423009
 20
439.260026
 30
0.0
 10
616.115811
 20
439.260026
 30
0.0
 10
609.462471
 20
450.783871
 30
0.0
 10
610.246919
 20
452.140377
 30
0.0
 10
566.486799
 20
452.140377
 30
0.0
 10
567.269697
 20
450.783871
 30
0.0
 10
560.616357
 20
439.260026
 30
0.0
 10
547.309675
 20
439.260026
 30
0.0
 10
540.655818
 20
450.783871
 30
0.0
 10
541.440266
 20
452.140377
 30
0.0
 10
497.986071
 20
452.140377
 30
0.0
 10
498.768969
 20
450.783871
 30
0.0
 10
492.115112
 20
439.260026
 30
0.0
 10
478.808430
 20
439.260026
 30
0.0
 10
472.155090
 20
450.783871
 30
0.0
 10
472.939021
 20
452.140377
 30
0.0
 10
429.179420
 20
452.140377
 30
0.0
 10
429.962320
 20
450.783871
 30
0.0
 10
423.308980
 20
439.260026
 30
0.0
 10
410.001780
 20
439.260026
 30
0.0
 10
403.348440
 20
450.783871
 30
0.0
 10
404.132890
 20
452.140377
 30
0.0
 10
360.525730
 20
452.140377
 30
0.0
 10
361.308630
 20
450.784388
 30
0.0
 10
354.655290
 20
439.260026
 30
0.0
 10
341.348090
 20
439.260026
 30
0.0
 10
334.694750
 20
450.783871
 30
0.0
 10
335.479200
 20
452.140377
 30
0.0
 10
291.872040
 20
452.140377
 30
0.0
 10
292.654940
 20
450.783871
 30
0.0
 10
286.001600
 20
439.260026
 30
0.0
 10
272.694400
 20
439.260026
 30
0.0
 10
266.041060
 20
450.783871
 30
0.0
 10
266.820340
 20
452.133142
 30
0.0
 10
223.534610
 20
452.140342
 30
0.0
 10
224.235340
 20
450.926980
 30
0.0
 10
217.581480
 20
439.402618
 30
0.0
 10
204.274800
 20
439.402618
 30
0.0
 10
197.621460
 20
450.926980
 30
0.0
 10
198.317020
 20
452.132074
 30
0.0
  0
LWPOLYLINE
  5
101
100
AcDbEntity
  8
Layer_1
 62
5
100
AcDbPolyline
 90
6
 70
1
 10
169.753180
 20
442.496110
 30
0.0
 10
183.060550
 20
442.496110
 30
0.0
 10
189.713110
 20
430.973532
 30
0.0
 10
183.059580
 20
419.449288
 30
0.0
 10
169.752720
 20
419.449288
 30
0.0
 10
163.099250
 20
430.973426
 30
0.0
  0
LWPOLYLINE
  5
102
100
AcDbEntity
  8
Layer_1
 62
5
100
AcDbPolyline
 90
6
 70
1
 10
238.406920
 20
442.496110
 30
0.0
 10
251.714290
 20
442.496110
 30
0.0
 10
258.366850
 20
430.973532
 30
0.0
 10
251.713320
 20
419.449288
 30
0.0
 10
238.406460
 20
419.449288
 30
0.0
 10
231.752990
 20
430.973426
 30
0.0
  0
LWPOLYLINE
  5
103
100
AcDbEntity
  8
Layer_1
 62
5
100
AcDbPolyline
 90
6
 70
1
 10
307.060660
 20
442.496110
 30
0.0
 10
320.368030
 20
442.496110
 30
0.0
 10
327.020590
 20
430.973532
 30
0.0
 10
320.367060
 20
419.449288
 30
0.0
 10
307.060200
 20
419.449288
 30
0.0
 10
300.406730
 20
430.973426
 30
0.0
  0
LWPOLYLINE
  5
104
100
AcDbEntity
  8
Layer_1
 62
5
100
AcDbPolyline
 90
6
 70
1
 10
375.714400
 20
442.496110
 30
0.0
 10
389.021770
 20
442.496110
 30
0.0
 10
395.674330
 20
430.973532
 30
0.0
 10
389.020800
 20
419.449288
 30
0.0
 10
375.713940
 20
419.449288
 30
0.0
 10
369.060470
 20
430.973426
 30
0.0
  0
LWPOLYLINE
  5
105
100
AcDbEntity
  8
Layer_1
 62
5
100
AcDbPolyline
 90
6
 70
1
 10
444.368140
 20
442.496110
 30
0.0
 10
457.675510
 20
442.496110
 30
0.0
 10
464.328073
 20
430.973532
 30
0.0
 10
457.674540
 20
419.449288
 30
0.0
 10
444.367680
 20
419.449288
 30
0.0
 10
437.714210
 20
430.973426
 30
0.0
  0
LWPOLYLINE
  5
106
100
AcDbEntity
  8
Layer_1
 62
5
100
AcDbPolyline
 90
6
 70
1
 10
513.021883
 20
442.496110
 30
0.0
 10
526.329253
 20
442.496110
 30
0.0
 10
532.981813
 20
430.973532
 30
0.0
 10
526.328283
 20
419.449288
 30
0.0
 10
513.021423
 20
419.449288
 30
0.0
 10
506.367953
 20
430.973426
 30
0.0
  0
LWPOLYLINE
  5
107
100
AcDbEntity
  8
Layer_1
 62
5
100
AcDbPolyline
 90
6
 70
1
 10
581.675623
 20
442.496110
 30
0.0
 10
594.982993
 20
442.496110
 30
0.0
 10
601.635553
 20
430.973532
 30
0.0
 10
594.982023
 20
419.449288
 30
0.0
 10
581.675163
 20
419.449288
 30
0.0
 10
575.021693
 20
430.973426
 30
0.0
  0
LWPOLYLINE
  5
108
100
AcDbEntity
  8
Layer_1
 62
5
100
AcDbPolyline
 90
6
 70
1
 10
650.329359
 20
442.496110
 30
0.0
 10
663.636730
 20
442.496110
 30
0.0
 10
670.289290
 20
430.973532
 30
0.0
 10
663.635760
 20
419.449288
 30
0.0
 10
650.328899
 20
419.449288
 30
0.0
 10
643.675435
 20
430.973426
 30
0.0
  0
LWPOLYLINE
  5
109
100
AcDbEntity
  8
Layer_1
 62
5
100
AcDbPolyline
 90
6
 70
1
 10
718.983110
 20
442.496110
 30
0.0
 10
732.290480
 20
442.496110
 30
0.0
 10
738.943040
 20
430.973532
 30
0.0
 10
732.289510
 20
419.449288
 30
0.0
 10
718.982650
 20
419.449288
 30
0.0
 10
712.329180
 20
430.973426
 30
0.0
  0
LWPOLYLINE
  5
10a
100
AcDbEntity
  8
Layer_1
 62
5
100
AcDbPolyline
 90
6
 70
1
 10
787.636850
 20
442.496110
 30
0.0
 10
800.944220
 20
442.496110
 30
0.0
 10
807.596780
 20
430.973532
 30
0.0
 10
800.943250
 20
419.449288
 30
0.0
 10
787.636390
 20
419.449288
 30
0.0
 10
780.982920
 20
430.973426
 30
0.0
  0
LWPOLYLINE
  5
10b
100
AcDbEntity
  8
Layer_1
 62
5
100
AcDbPolyline
 90
6
 70
1
 10
856.290590
 20
442.496110
 30
0.0
 10
869.597960
 20
442.496110
 30
0.0
 10
876.250520
 20
430.973532
 30
0.0
 10
869.596990
 20
419.449288
 30
0.0
 10
856.290130
 20
419.449288
 30
0.0
 10
849.636660
 20
430.973426
 30
0.0
  0
LWPOLYLINE
  5
10c
100
AcDbEntity
  8
Layer_1
 62
5
100
AcDbPolyline
 90
6
 70
1
 10
924.944330
 20
442.496110
 30
0.0
 10
938.251700
 20
442.496110
 30
0.0
 10
944.904260
 20
430.973532
 30
0.0
 10
938.250730
 20
419.449288
 30
0.0
 10
924.943870
 20
419.449288
 30
0.0
 10
918.290400
 20
430.973426
 30
0.0
  0
LWPOLYLINE
  5
10d
100
AcDbEntity
  8
Layer_1
 62
5
100
AcDbPolyline
 90
6
 70
1
 10
993.598070
 20
442.496110
 30
0.0
 10
1006.905440
 20
442.496110
 30
0.0
 10
1013.558000
 20
430.973532
 30
0.0
 10
1006.904470
 20
419.449288
 30
0.0
 10
993.597610
 20
419.449288
 30
0.0
 10
986.944140
 20
430.973426
 30
0.0
  0
LWPOLYLINE
  5
10e
100
AcDbEntity
  8
Layer_1
 62
5
100
AcDbPolyline
 90
6
 70
1
 10
1062.251810
 20
442.496110
 30
0.0
 10
1075.559180
 20
442.496110
 30
0.0
 10
1082.211740
 20
430.973532
 30
0.0
 10
1075.558210
 20
419.449288
 30
0.0
 10
1062.251350
 20
419.449288
 30
0.0
 10
1055.597880
 20
430.973426
 30
0.0
  0
LWPOLYLINE
  5
10f
100
AcDbEntity
  8
Layer_1
 62
5
100
AcDbPolyline
 90
6
 70
1
 10
1130.905550
 20
442.496110
 30
0.0
 10
1144.212920
 20
442.496110
 30
0.0
 10
1150.865480
 20
430.973532
 30
0.0
 10
1144.211950
 20
419.449288
 30
0.0
 10
1130.905090
 20
419.449288
 30
0.0
 10
1124.251620
 20
430.973426
 30
0.0
  0
LWPOLYLINE
  5
110
100
AcDbEntity
  8
Layer_1
 62
5
100
AcDbPolyline
 90
6
 70
1
 10
204.158200
 20
422.807745
 30
0.0
 10
217.465570
 20
422.807745
 30
0.0
 10
224.118130
 20
411.285167
 30
0.0
 10
217.464600
 20
399.760923
 30
0.0
 10
204.157740
 20
399.760923
 30
0.0
 10
197.504270
 20
411.285061
 30
0.0
  0
LWPOLYLINE
  5
111
100
AcDbEntity
  8
Layer_1
 62
5
100
AcDbPolyline
 90
6
 70
1
 10
272.694960
 20
422.807745
 30
0.0
 10
286.002330
 20
422.807745
 30
0.0
 10
292.654890
 20
411.285167
 30
0.0
 10
286.001360
 20
399.760923
 30
0.0
 10
272.694500
 20
399.760923
 30
0.0
 10
266.041030
 20
411.285061
 30
0.0
  0
LWPOLYLINE
  5
112
100
AcDbEntity
  8
Layer_1
 62
5
100
AcDbPolyline
 90
6
 70
1
 10
341.348700
 20
422.807745
 30
0.0
 10
354.656070
 20
422.807745
 30
0.0
 10
361.308630
 20
411.285167
 30
0.0
 10
354.655100
 20
399.760923
 30
0.0
 10
341.348240
 20
399.760923
 30
0.0
 10
334.694770
 20
411.285061
 30
0.0
  0
LWPOLYLINE
  5
113
100
AcDbEntity
  8
Layer_1
 62
5
100
AcDbPolyline
 90
6
 70
1
 10
410.002440
 20
422.807745
 30
0.0
 10
423.309810
 20
422.807745
 30
0.0
 10
429.962370
 20
411.285167
 30
0.0
 10
423.308840
 20
399.760923
 30
0.0
 10
410.001980
 20
399.760923
 30
0.0
 10
403.348510
 20
411.285061
 30
0.0
  0
LWPOLYLINE
  5
114
100
AcDbEntity
  8
Layer_1
 62
5
100
AcDbPolyline
 90
6
 70
1
 10
478.656176
 20
422.807745
 30
0.0
 10
491.963550
 20
422.807745
 30
0.0
 10
498.616110
 20
411.285167
 30
0.0
 10
491.962580
 20
399.760923
 30
0.0
 10
478.655716
 20
399.760923
 30
0.0
 10
472.002246
 20
411.285061
 30
0.0
  0
LWPOLYLINE
  5
115
100
AcDbEntity
  8
Layer_1
 62
5
100
AcDbPolyline
 90
6
 70
1
 10
547.309920
 20
422.807745
 30
0.0
 10
560.617290
 20
422.807745
 30
0.0
 10
567.269850
 20
411.285167
 30
0.0
 10
560.616320
 20
399.760923
 30
0.0
 10
547.309460
 20
399.760923
 30
0.0
 10
540.655990
 20
411.285061
 30
0.0
  0
LWPOLYLINE
  5
116
100
AcDbEntity
  8
Layer_1
 62
5
100
AcDbPolyline
 90
6
 70
1
 10
615.963660
 20
422.807745
 30
0.0
 10
629.271030
 20
422.807745
 30
0.0
 10
635.923590
 20
411.285167
 30
0.0
 10
629.270060
 20
399.760923
 30
0.0
 10
615.963200
 20
399.760923
 30
0.0
 10
609.309730
 20
411.285061
 30
0.0
  0
LWPOLYLINE
  5
117
100
AcDbEntity
  8
Layer_1
 62
5
100
AcDbPolyline
 90
6
 70
1
 10
684.617400
 20
422.807745
 30
0.0
 10
697.924770
 20
422.807745
 30
0.0
 10
704.577330
 20
411.285167
 30
0.0
 10
697.923800
 20
399.760923
 30
0.0
 10
684.616940
 20
399.760923
 30
0.0
 10
677.963470
 20
411.285061
 30
0.0
  0
LWPOLYLINE
  5
118
100
AcDbEntity
  8
Layer_1
 62
5
100
AcDbPolyline
 90
6
 70
1
 10
753.271150
 20
422.807745
 30
0.0
 10
766.578520
 20
422.807745
 30
0.0
 10
773.231080
 20
411.285167
 30
0.0
 10
766.577550
 20
399.760923
 30
0.0
 10
753.270690
 20
399.760923
 30
0.0
 10
746.617220
 20
411.285061
 30
0.0
  0
LWPOLYLINE
  5
119
100
AcDbEntity
  8
Layer_1
 62
5
100
AcDbPolyline
 90
6
 70
1
 10
821.924890
 20
422.807745
 30
0.0
 10
835.232260
 20
422.807745
 30
0.0
 10
841.884820
 20
411.285167
 30
0.0
 10
835.231290
 20
399.760923
 30
0.0
 10
821.924430
 20
399.760923
 30
0.0
 10
815.270960
 20
411.285061
 30
0.0
  0
LWPOLYLINE
  5
11a
100
AcDbEntity
  8
Layer_1
 62
5
100
AcDbPolyline
 90
6
 70
1
 10
890.578630
 20
422.807745
 30
0.0
 10
903.886000
 20
422.807745
 30
0.0
 10
910.538560
 20
411.285167
 30
0.0
 10
903.885030
 20
399.760923
 30
0.0
 10
890.578170
 20
399.760923
 30
0.0
 10
883.924700
 20
411.285061
 30
0.0
  0
LWPOLYLINE
  5
11b
100
AcDbEntity
  8
Layer_1
 62
5
100
AcDbPolyline
 90
6
 70
1
 10
959.232370
 20
422.807745
 30
0.0
 10
972.539740
 20
422.807745
 30
0.0
 10
979.192300
 20
411.285167
 30
0.0
 10
972.538770
 20
399.760923
 30
0.0
 10
959.231910
 20
399.760923
 30
0.0
 10
952.578440
 20
411.285061
 30
0.0
  0
LWPOLYLINE
  5
11c
100
AcDbEntity
  8
Layer_1
 62
5
100
AcDbPolyline
 90
6
 70
1
 10
1027.886110
 20
422.807745
 30
0.0
 10
1041.193480
 20
422.807745
 30
0.0
 10
1047.846040
 20
411.285167
 30
0.0
 10
1041.192510
 20
399.760923
 30
0.0
 10
1027.885650
 20
399.760923
 30
0.0
 10
1021.232180
 20
411.285061
 30
0.0
  0
LWPOLYLINE
  5
11d
100
AcDbEntity
  8
Layer_1
 62
5
100
AcDbPolyline
 90
6
 70
1
 10
1096.539850
 20
422.807745
 30
0.0
 10
1109.847220
 20
422.807745
 30
0.0
 10
1116.499780
 20
411.285167
 30
0.0
 10
1109.846250
 20
399.760923
 30
0.0
 10
1096.539390
 20
399.760923
 30
0.0
 10
1089.885920
 20
411.285061
 30
0.0
  0
LWPOLYLINE
  5
11e
100
AcDbEntity
  8
Layer_1
 62
5
100
AcDbPolyline
 90
6
 70
1
 10
169.706210
 20
402.986866
 30
0.0
 10
183.013580
 20
402.986866
 30
0.0
 10
189.666140
 20
391.464293
 30
0.0
 10
183.012610
 20
379.940043
 30
0.0
 10
169.705750
 20
379.940043
 30
0.0
 10
163.052280
 20
391.464183
 30
0.0
  0
LWPOLYLINE
  5
11f
100
AcDbEntity
  8
Layer_1
 62
5
100
AcDbPolyline
 90
6
 70
1
 10
238.359950
 20
402.986866
 30
0.0
 10
251.667320
 20
402.986866
 30
0.0
 10
258.319880
 20
391.464293
 30
0.0
 10
251.666350
 20
379.940043
 30
0.0
 10
238.359490
 20
379.940043
 30
0.0
 10
231.706020
 20
391.464183
 30
0.0
  0
LWPOLYLINE
  5
120
100
AcDbEntity
  8
Layer_1
 62
5
100
AcDbPolyline
 90
6
 70
1
 10
307.013690
 20
402.986866
 30
0.0
 10
320.321060
 20
402.986866
 30
0.0
 10
326.973620
 20
391.464293
 30
0.0
 10
320.320090
 20
379.940043
 30
0.0
 10
307.013230
 20
379.940043
 30
0.0
 10
300.359760
 20
391.464183
 30
0.0
  0
LWPOLYLINE
  5
121
100
AcDbEntity
  8
Layer_1
 62
5
100
AcDbPolyline
 90
6
 70
1
 10
375.667430
 20
402.986866
 30
0.0
 10
388.974800
 20
402.986866
 30
0.0
 10
395.627360
 20
391.464293
 30
0.0
 10
388.973830
 20
379.940043
 30
0.0
 10
375.666970
 20
379.940043
 30
0.0
 10
369.013500
 20
391.464183
 30
0.0
  0
LWPOLYLINE
  5
122
100
AcDbEntity
  8
Layer_1
 62
5
100
AcDbPolyline
 90
6
 70
1
 10
444.321170
 20
402.986866
 30
0.0
 10
457.628540
 20
402.986866
 30
0.0
 10
464.281100
 20
391.464293
 30
0.0
 10
457.627570
 20
379.940043
 30
0.0
 10
444.320710
 20
379.940043
 30
0.0
 10
437.667240
 20
391.464183
 30
0.0
  0
LWPOLYLINE
  5
123
100
AcDbEntity
  8
Layer_1
 62
5
100
AcDbPolyline
 90
6
 70
1
 10
512.974910
 20
402.986866
 30
0.0
 10
526.282280
 20
402.986866
 30
0.0
 10
532.934840
 20
391.464293
 30
0.0
 10
526.281310
 20
379.940043
 30
0.0
 10
512.974450
 20
379.940043
 30
0.0
 10
506.320980
 20
391.464183
 30
0.0
  0
LWPOLYLINE
  5
124
100
AcDbEntity
  8
Layer_1
 62
5
100
AcDbPolyline
 90
6
 70
1
 10
581.628650
 20
402.986866
 30
0.0
 10
594.936020
 20
402.986866
 30
0.0
 10
601.588580
 20
391.464293
 30
0.0
 10
594.935050
 20
379.940043
 30
0.0
 10
581.628190
 20
379.940043
 30
0.0
 10
574.974720
 20
391.464183
 30
0.0
  0
LWPOLYLINE
  5
125
100
AcDbEntity
  8
Layer_1
 62
5
100
AcDbPolyline
 90
6
 70
1
 10
650.282389
 20
402.986866
 30
0.0
 10
663.589760
 20
402.986866
 30
0.0
 10
670.242320
 20
391.464293
 30
0.0
 10
663.588790
 20
379.940043
 30
0.0
 10
650.281929
 20
379.940043
 30
0.0
 10
643.628462
 20
391.464183
 30
0.0
  0
LWPOLYLINE
  5
126
100
AcDbEntity
  8
Layer_1
 62
5
100
AcDbPolyline
 90
6
 70
1
 10
718.936140
 20
402.986866
 30
0.0
 10
732.243510
 20
402.986866
 30
0.0
 10
738.896070
 20
391.464293
 30
0.0
 10
732.242540
 20
379.940043
 30
0.0
 10
718.935680
 20
379.940043
 30
0.0
 10
712.282210
 20
391.464183
 30
0.0
  0
LWPOLYLINE
  5
127
100
AcDbEntity
  8
Layer_1
 62
5
100
AcDbPolyline
 90
6
 70
1
 10
787.589880
 20
402.986866
 30
0.0
 10
800.897250
 20
402.986866
 30
0.0
 10
807.549810
 20
391.464293
 30
0.0
 10
800.896280
 20
379.940043
 30
0.0
 10
787.589420
 20
379.940043
 30
0.0
 10
780.935950
 20
391.464183
 30
0.0
  0
LWPOLYLINE
  5
128
100
AcDbEntity
  8
Layer_1
 62
5
100
AcDbPolyline
 90
6
 70
1
 10
856.243620
 20
402.986866
 30
0.0
 10
869.550990
 20
402.986866
 30
0.0
 10
876.203550
 20
391.464293
 30
0.0
 10
869.550020
 20
379.940043
 30
0.0
 10
856.243160
 20
379.940043
 30
0.0
 10
849.589690
 20
391.464183
 30
0.0
  0
LWPOLYLINE
  5
129
100
AcDbEntity
  8
Layer_1
 62
5
100
AcDbPolyline
 90
6
 70
1
 10
924.897360
 20
402.986866
 30
0.0
 10
938.204730
 20
402.986866
 30
0.0
 10
944.857290
 20
391.464293
 30
0.0
 10
938.203760
 20
379.940043
 30
0.0
 10
924.896900
 20
379.940043
 30
0.0
 10
918.243430
 20
391.464183
 30
0.0
  0
LWPOLYLINE
  5
12a
100
AcDbEntity
  8
Layer_1
 62
5
100
AcDbPolyline
 90
6
 70
1
 10
993.551100
 20
402.986866
 30
0.0
 10
1006.858470
 20
402.986866
 30
0.0
 10
1013.511030
 20
391.464293
 30
0.0
 10
1006.857500
 20
379.940043
 30
0.0
 10
993.550640
 20
379.940043
 30
0.0
 10
986.897170
 20
391.464183
 30
0.0
  0
LWPOLYLINE
  5
12b
100
AcDbEntity
  8
Layer_1
 62
5
100
AcDbPolyline
 90
6
 70
1
 10
1062.204840
 20
402.986866
 30
0.0
 10
1075.512210
 20
402.986866
 30
0.0
 10
1082.164770
 20
391.464293
 30
0.0
 10
1075.511240
 20
379.940043
 30
0.0
 10
1062.204380
 20
379.940043
 30
0.0
 10
1055.550910
 20
391.464183
 30
0.0
  0
LWPOLYLINE
  5
12c
100
AcDbEntity
  8
Layer_1
 62
5
100
AcDbPolyline
 90
6
 70
1
 10
1130.858580
 20
402.986866
 30
0.0
 10
1144.165950
 20
402.986866
 30
0.0
 10
1150.818510
 20
391.464293
 30
0.0
 10
1144.164980
 20
379.940043
 30
0.0
 10
1130.858120
 20
379.940043
 30
0.0
 10
1124.204650
 20
391.464183
 30
0.0
  0
LWPOLYLINE
  5
12d
100
AcDbEntity
  8
Layer_1
 62
5
100
AcDbPolyline
 90
6
 70
1
 10
204.041220
 20
383.165903
 30
0.0
 10
217.348590
 20
383.165903
 30
0.0
 10
224.001150
 20
371.643323
 30
0.0
 10
217.347620
 20
360.119083
 30
0.0
 10
204.040760
 20
360.119083
 30
0.0
 10
197.387290
 20
371.643213
 30
0.0
  0
LWPOLYLINE
  5
12e
100
AcDbEntity
  8
Layer_1
 62
5
100
AcDbPolyline
 90
6
 70
1
 10
272.694960
 20
383.165903
 30
0.0
 10
286.002330
 20
383.165903
 30
0.0
 10
292.654890
 20
371.643323
 30
0.0
 10
286.001360
 20
360.119083
 30
0.0
 10
272.694500
 20
360.119083
 30
0.0
 10
266.041030
 20
371.643213
 30
0.0
  0
LWPOLYLINE
  5
12f
100
AcDbEntity
  8
Layer_1
 62
5
100
AcDbPolyline
 90
6
 70
1
 10
341.348700
 20
383.165903
 30
0.0
 10
354.656070
 20
383.165903
 30
0.0
 10
361.308630
 20
371.643323
 30
0.0
 10
354.655100
 20
360.119083
 30
0.0
 10
341.348240
 20
360.119083
 30
0.0
 10
334.694770
 20
371.643213
 30
0.0
  0
LWPOLYLINE
  5
130
100
AcDbEntity
  8
Layer_1
 62
5
100
AcDbPolyline
 90
6
 70
1
 10
410.002440
 20
383.165903
 30
0.0
 10
423.309810
 20
383.165903
 30
0.0
 10
429.962370
 20
371.643323
 30
0.0
 10
423.308840
 20
360.119083
 30
0.0
 10
410.001980
 20
360.119083
 30
0.0
 10
403.348510
 20
371.643213
 30
0.0
  0
LWPOLYLINE
  5
131
100
AcDbEntity
  8
Layer_1
 62
5
100
AcDbPolyline
 90
6
 70
1
 10
478.656176
 20
383.165903
 30
0.0
 10
491.963550
 20
383.165903
 30
0.0
 10
498.616110
 20
371.643323
 30
0.0
 10
491.962580
 20
360.119083
 30
0.0
 10
478.655716
 20
360.119083
 30
0.0
 10
472.002246
 20
371.643213
 30
0.0
  0
LWPOLYLINE
  5
132
100
AcDbEntity
  8
Layer_1
 62
5
100
AcDbPolyline
 90
6
 70
1
 10
547.309920
 20
383.165903
 30
0.0
 10
560.617290
 20
383.165903
 30
0.0
 10
567.269850
 20
371.643323
 30
0.0
 10
560.616320
 20
360.119083
 30
0.0
 10
547.309460
 20
360.119083
 30
0.0
 10
540.655990
 20
371.643213
 30
0.0
  0
LWPOLYLINE
  5
133
100
AcDbEntity
  8
Layer_1
 62
5
100
AcDbPolyline
 90
6
 70
1
 10
615.963660
 20
383.165903
 30
0.0
 10
629.271030
 20
383.165903
 30
0.0
 10
635.923590
 20
371.643323
 30
0.0
 10
629.270060
 20
360.119083
 30
0.0
 10
615.963200
 20
360.119083
 30
0.0
 10
609.309730
 20
371.643213
 30
0.0
  0
LWPOLYLINE
  5
134
100
AcDbEntity
  8
Layer_1
 62
5
100
AcDbPolyline
 90
6
 70
1
 10
684.617400
 20
383.165903
 30
0.0
 10
697.924770
 20
383.165903
 30
0.0
 10
704.577330
 20
371.643323
 30
0.0
 10
697.923800
 20
360.119083
 30
0.0
 10
684.616940
 20
360.119083
 30
0.0
 10
677.963470
 20
371.643213
 30
0.0
  0
LWPOLYLINE
  5
135
100
AcDbEntity
  8
Layer_1
 62
5
100
AcDbPolyline
 90
6
 70
1
 10
753.271150
 20
383.165903
 30
0.0
 10
766.578520
 20
383.165903
 30
0.0
 10
773.231080
 20
371.643323
 30
0.0
 10
766.577550
 20
360.119083
 30
0.0
 10
753.270690
 20
360.119083
 30
0.0
 10
746.617220
 20
371.643213
 30
0.0
  0
LWPOLYLINE
  5
136
100
AcDbEntity
  8
Layer_1
 62
5
100
AcDbPolyline
 90
6
 70
1
 10
821.924890
 20
383.165903
 30
0.0
 10
835.232260
 20
383.165903
 30
0.0
 10
841.884820
 20
371.643323
 30
0.0
 10
835.231290
 20
360.119083
 30
0.0
 10
821.924430
 20
360.119083
 30
0.0
 10
815.270960
 20
371.643213
 30
0.0
  0
LWPOLYLINE
  5
137
100
AcDbEntity
  8
Layer_1
 62
5
100
AcDbPolyline
 90
6
 70
1
 10
890.578630
 20
383.165903
 30
0.0
 10
903.886000
 20
383.165903
 30
0.0
 10
910.538560
 20
371.643323
 30
0.0
 10
903.885030
 20
360.119083
 30
0.0
 10
890.578170
 20
360.119083
 30
0.0
 10
883.924700
 20
371.643213
 30
0.0
  0
LWPOLYLINE
  5
138
100
AcDbEntity
  8
Layer_1
 62
5
100
AcDbPolyline
 90
6
 70
1
 10
959.232370
 20
383.165903
 30
0.0
 10
972.539740
 20
383.165903
 30
0.0
 10
979.192300
 20
371.643323
 30
0.0
 10
972.538770
 20
360.119083
 30
0.0
 10
959.231910
 20
360.119083
 30
0.0
 10
952.578440
 20
371.643213
 30
0.0
  0
LWPOLYLINE
  5
139
100
AcDbEntity
  8
Layer_1
 62
5
100
AcDbPolyline
 90
6
 70
1
 10
1027.886110
 20
383.165903
 30
0.0
 10
1041.193480
 20
383.165903
 30
0.0
 10
1047.846040
 20
371.643323
 30
0.0
 10
1041.192510
 20
360.119083
 30
0.0
 10
1027.885650
 20
360.119083
 30
0.0
 10
1021.232180
 20
371.643213
 30
0.0
  0
LWPOLYLINE
  5
13a
100
AcDbEntity
  8
Layer_1
 62
5
100
AcDbPolyline
 90
6
 70
1
 10
1096.539850
 20
383.165903
 30
0.0
 10
1109.847220
 20
383.165903
 30
0.0
 10
1116.499780
 20
371.643323
 30
0.0
 10
1109.846250
 20
360.119083
 30
0.0
 10
1096.539390
 20
360.119083
 30
0.0
 10
1089.885920
 20
371.643213
 30
0.0
  0
LWPOLYLINE
  5
13b
100
AcDbEntity
  8
Layer_1
 62
5
100
AcDbPolyline
 90
6
 70
1
 10
169.706210
 20
363.081733
 30
0.0
 10
183.013580
 20
363.081733
 30
0.0
 10
189.666140
 20
351.559163
 30
0.0
 10
183.012610
 20
340.034913
 30
0.0
 10
169.705750
 20
340.034913
 30
0.0
 10
163.052280
 20
351.559053
 30
0.0
  0
LWPOLYLINE
  5
13c
100
AcDbEntity
  8
Layer_1
 62
5
100
AcDbPolyline
 90
6
 70
1
 10
238.359950
 20
363.081733
 30
0.0
 10
251.667320
 20
363.081733
 30
0.0
 10
258.319880
 20
351.559163
 30
0.0
 10
251.666350
 20
340.034913
 30
0.0
 10
238.359490
 20
340.034913
 30
0.0
 10
231.706020
 20
351.559053
 30
0.0
  0
LWPOLYLINE
  5
13d
100
AcDbEntity
  8
Layer_1
 62
5
100
AcDbPolyline
 90
6
 70
1
 10
307.013690
 20
363.081733
 30
0.0
 10
320.321060
 20
363.081733
 30
0.0
 10
326.973620
 20
351.559163
 30
0.0
 10
320.320090
 20
340.034913
 30
0.0
 10
307.013230
 20
340.034913
 30
0.0
 10
300.359760
 20
351.559053
 30
0.0
  0
LWPOLYLINE
  5
13e
100
AcDbEntity
  8
Layer_1
 62
5
100
AcDbPolyline
 90
6
 70
1
 10
375.667430
 20
363.081733
 30
0.0
 10
388.974800
 20
363.081733
 30
0.0
 10
395.627360
 20
351.559163
 30
0.0
 10
388.973830
 20
340.034913
 30
0.0
 10
375.666970
 20
340.034913
 30
0.0
 10
369.013500
 20
351.559053
 30
0.0
  0
LWPOLYLINE
  5
13f
100
AcDbEntity
  8
Layer_1
 62
5
100
AcDbPolyline
 90
6
 70
1
 10
444.321170
 20
363.081733
 30
0.0
 10
457.628540
 20
363.081733
 30
0.0
 10
464.281100
 20
351.559163
 30
0.0
 10
457.627570
 20
340.034913
 30
0.0
 10
444.320710
 20
340.034913
 30
0.0
 10
437.667240
 20
351.559053
 30
0.0
  0
LWPOLYLINE
  5
140
100
AcDbEntity
  8
Layer_1
 62
5
100
AcDbPolyline
 90
6
 70
1
 10
512.974910
 20
363.081733
 30
0.0
 10
526.282280
 20
363.081733
 30
0.0
 10
532.934840
 20
351.559163
 30
0.0
 10
526.281310
 20
340.034913
 30
0.0
 10
512.974450
 20
340.034913
 30
0.0
 10
506.320980
 20
351.559053
 30
0.0
  0
LWPOLYLINE
  5
141
100
AcDbEntity
  8
Layer_1
 62
5
100
AcDbPolyline
 90
6
 70
1
 10
581.628650
 20
363.081733
 30
0.0
 10
594.936020
 20
363.081733
 30
0.0
 10
601.588580
 20
351.559163
 30
0.0
 10
594.935050
 20
340.034913
 30
0.0
 10
581.628190
 20
340.034913
 30
0.0
 10
574.974720
 20
351.559053
 30
0.0
  0
LWPOLYLINE
  5
142
100
AcDbEntity
  8
Layer_1
 62
5
100
AcDbPolyline
 90
6
 70
1
 10
650.282389
 20
363.081733
 30
0.0
 10
663.589760
 20
363.081733
 30
0.0
 10
670.242320
 20
351.559163
 30
0.0
 10
663.588790
 20
340.034913
 30
0.0
 10
650.281929
 20
340.034913
 30
0.0
 10
643.628462
 20
351.559053
 30
0.0
  0
LWPOLYLINE
  5
143
100
AcDbEntity
  8
Layer_1
 62
5
100
AcDbPolyline
 90
6
 70
1
 10
718.936140
 20
363.081733
 30
0.0
 10
732.243510
 20
363.081733
 30
0.0
 10
738.896070
 20
351.559163
 30
0.0
 10
732.242540
 20
340.034913
 30
0.0
 10
718.935680
 20
340.034913
 30
0.0
 10
712.282210
 20
351.559053
 30
0.0
  0
LWPOLYLINE
  5
144
100
AcDbEntity
  8
Layer_1
 62
5
100
AcDbPolyline
 90
6
 70
1
 10
787.589880
 20
363.081733
 30
0.0
 10
800.897250
 20
363.081733
 30
0.0
 10
807.549810
 20
351.559163
 30
0.0
 10
800.896280
 20
340.034913
 30
0.0
 10
787.589420
 20
340.034913
 30
0.0
 10
780.935950
 20
351.559053
 30
0.0
  0
LWPOLYLINE
  5
145
100
AcDbEntity
  8
Layer_1
 62
5
100
AcDbPolyline
 90
6
 70
1
 10
856.243620
 20
363.081733
 30
0.0
 10
869.550990
 20
363.081733
 30
0.0
 10
876.203550
 20
351.559163
 30
0.0
 10
869.550020
 20
340.034913
 30
0.0
 10
856.243160
 20
340.034913
 30
0.0
 10
849.589690
 20
351.559053
 30
0.0
  0
LWPOLYLINE
  5
146
100
AcDbEntity
  8
Layer_1
 62
5
100
AcDbPolyline
 90
6
 70
1
 10
924.897360
 20
363.081733
 30
0.0
 10
938.204730
 20
363.081733
 30
0.0
 10
944.857290
 20
351.559163
 30
0.0
 10
938.203760
 20
340.034913
 30
0.0
 10
924.896900
 20
340.034913
 30
0.0
 10
918.243430
 20
351.559053
 30
0.0
  0
LWPOLYLINE
  5
147
100
AcDbEntity
  8
Layer_1
 62
5
100
AcDbPolyline
 90
6
 70
1
 10
993.551100
 20
363.081733
 30
0.0
 10
1006.858470
 20
363.081733
 30
0.0
 10
1013.511030
 20
351.559163
 30
0.0
 10
1006.857500
 20
340.034913
 30
0.0
 10
993.550640
 20
340.034913
 30
0.0
 10
986.897170
 20
351.559053
 30
0.0
  0
LWPOLYLINE
  5
148
100
AcDbEntity
  8
Layer_1
 62
5
100
AcDbPolyline
 90
6
 70
1
 10
1062.204840
 20
363.081733
 30
0.0
 10
1075.512210
 20
363.081733
 30
0.0
 10
1082.164770
 20
351.559163
 30
0.0
 10
1075.511240
 20
340.034913
 30
0.0
 10
1062.204380
 20
340.034913
 30
0.0
 10
1055.550910
 20
351.559053
 30
0.0
  0
LWPOLYLINE
  5
149
100
AcDbEntity
  8
Layer_1
 62
5
100
AcDbPolyline
 90
6
 70
1
 10
1130.858580
 20
363.081733
 30
0.0
 10
1144.165950
 20
363.081733
 30
0.0
 10
1150.818510
 20
351.559163
 30
0.0
 10
1144.164980
 20
340.034913
 30
0.0
 10
1130.858120
 20
340.034913
 30
0.0
 10
1124.204650
 20
351.559053
 30
0.0
  0
LWPOLYLINE
  5
14a
100
AcDbEntity
  8
Layer_1
 62
5
100
AcDbPolyline
 90
6
 70
1
 10
204.041220
 20
343.260773
 30
0.0
 10
217.348590
 20
343.260773
 30
0.0
 10
224.001150
 20
331.738193
 30
0.0
 10
217.347620
 20
320.213950
 30
0.0
 10
204.040760
 20
320.213950
 30
0.0
 10
197.387290
 20
331.738083
 30
0.0
  0
LWPOLYLINE
  5
14b
100
AcDbEntity
  8
Layer_1
 62
5
100
AcDbPolyline
 90
6
 70
1
 10
272.694960
 20
343.260773
 30
0.0
 10
286.002330
 20
343.260773
 30
0.0
 10
292.654890
 20
331.738193
 30
0.0
 10
286.001360
 20
320.213950
 30
0.0
 10
272.694500
 20
320.213950
 30
0.0
 10
266.041030
 20
331.738083
 30
0.0
  0
LWPOLYLINE
  5
14c
100
AcDbEntity
  8
Layer_1
 62
5
100
AcDbPolyline
 90
6
 70
1
 10
341.348700
 20
343.260773
 30
0.0
 10
354.656070
 20
343.260773
 30
0.0
 10
361.308630
 20
331.738193
 30
0.0
 10
354.655100
 20
320.213950
 30
0.0
 10
341.348240
 20
320.213950
 30
0.0
 10
334.694770
 20
331.738083
 30
0.0
  0
LWPOLYLINE
  5
14d
100
AcDbEntity
  8
Layer_1
 62
5
100
AcDbPolyline
 90
6
 70
1
 10
410.002440
 20
343.260773
 30
0.0
 10
423.309810
 20
343.260773
 30
0.0
 10
429.962370
 20
331.738193
 30
0.0
 10
423.308840
 20
320.213950
 30
0.0
 10
410.001980
 20
320.213950
 30
0.0
 10
403.348510
 20
331.738083
 30
0.0
  0
LWPOLYLINE
  5
14e
100
AcDbEntity
  8
Layer_1
 62
5
100
AcDbPolyline
 90
6
 70
1
 10
478.656176
 20
343.260773
 30
0.0
 10
491.963550
 20
343.260773
 30
0.0
 10
498.616110
 20
331.738193
 30
0.0
 10
491.962580
 20
320.213950
 30
0.0
 10
478.655716
 20
320.213950
 30
0.0
 10
472.002246
 20
331.738083
 30
0.0
  0
LWPOLYLINE
  5
14f
100
AcDbEntity
  8
Layer_1
 62
5
100
AcDbPolyline
 90
6
 70
1
 10
547.309920
 20
343.260773
 30
0.0
 10
560.617290
 20
343.260773
 30
0.0
 10
567.269850
 20
331.738193
 30
0.0
 10
560.616320
 20
320.213950
 30
0.0
 10
547.309460
 20
320.213950
 30
0.0
 10
540.655990
 20
331.738083
 30
0.0
  0
LWPOLYLINE
  5
150
100
AcDbEntity
  8
Layer_1
 62
5
100
AcDbPolyline
 90
6
 70
1
 10
615.963660
 20
343.260773
 30
0.0
 10
629.271030
 20
343.260773
 30
0.0
 10
635.923590
 20
331.738193
 30
0.0
 10
629.270060
 20
320.213950
 30
0.0
 10
615.963200
 20
320.213950
 30
0.0
 10
609.309730
 20
331.738083
 30
0.0
  0
LWPOLYLINE
  5
151
100
AcDbEntity
  8
Layer_1
 62
5
100
AcDbPolyline
 90
6
 70
1
 10
684.617400
 20
343.260773
 30
0.0
 10
697.924770
 20
343.260773
 30
0.0
 10
704.577330
 20
331.738193
 30
0.0
 10
697.923800
 20
320.213950
 30
0.0
 10
684.616940
 20
320.213950
 30
0.0
 10
677.963470
 20
331.738083
 30
0.0
  0
LWPOLYLINE
  5
152
100
AcDbEntity
  8
Layer_1
 62
5
100
AcDbPolyline
 90
6
 70
1
 10
753.271150
 20
343.260773
 30
0.0
 10
766.578520
 20
343.260773
 30
0.0
 10
773.231080
 20
331.738193
 30
0.0
 10
766.577550
 20
320.213950
 30
0.0
 10
753.270690
 20
320.213950
 30
0.0
 10
746.617220
 20
331.738083
 30
0.0
  0
LWPOLYLINE
  5
153
100
AcDbEntity
  8
Layer_1
 62
5
100
AcDbPolyline
 90
6
 70
1
 10
821.924890
 20
343.260773
 30
0.0
 10
835.232260
 20
343.260773
 30
0.0
 10
841.884820
 20
331.738193
 30
0.0
 10
835.231290
 20
320.213950
 30
0.0
 10
821.924430
 20
320.213950
 30
0.0
 10
815.270960
 20
331.738083
 30
0.0
  0
LWPOLYLINE
  5
154
100
AcDbEntity
  8
Layer_1
 62
5
100
AcDbPolyline
 90
6
 70
1
 10
890.578630
 20
343.260773
 30
0.0
 10
903.886000
 20
343.260773
 30
0.0
 10
910.538560
 20
331.738193
 30
0.0
 10
903.885030
 20
320.213950
 30
0.0
 10
890.578170
 20
320.213950
 30
0.0
 10
883.924700
 20
331.738083
 30
0.0
  0
LWPOLYLINE
  5
155
100
AcDbEntity
  8
Layer_1
 62
5
100
AcDbPolyline
 90
6
 70
1
 10
959.232370
 20
343.260773
 30
0.0
 10
972.539740
 20
343.260773
 30
0.0
 10
979.192300
 20
331.738193
 30
0.0
 10
972.538770
 20
320.213950
 30
0.0
 10
959.231910
 20
320.213950
 30
0.0
 10
952.578440
 20
331.738083
 30
0.0
  0
LWPOLYLINE
  5
156
100
AcDbEntity
  8
Layer_1
 62
5
100
AcDbPolyline
 90
6
 70
1
 10
1027.886110
 20
343.260773
 30
0.0
 10
1041.193480
 20
343.260773
 30
0.0
 10
1047.846040
 20
331.738193
 30
0.0
 10
1041.192510
 20
320.213950
 30
0.0
 10
1027.885650
 20
320.213950
 30
0.0
 10
1021.232180
 20
331.738083
 30
0.0
  0
LWPOLYLINE
  5
157
100
AcDbEntity
  8
Layer_1
 62
5
100
AcDbPolyline
 90
6
 70
1
 10
1096.539850
 20
343.260773
 30
0.0
 10
1109.847220
 20
343.260773
 30
0.0
 10
1116.499780
 20
331.738193
 30
0.0
 10
1109.846250
 20
320.213950
 30
0.0
 10
1096.539390
 20
320.213950
 30
0.0
 10
1089.885920
 20
331.738083
 30
0.0
  0
ENDSEC
  0
SECTION
  2
OBJECTS
  0
DICTIONARY
  5
C
330
0
100
AcDbDictionary
  3
ACAD_GROUP
350
D
  3
ACAD_MLINESTYLE
350
17
  0
DICTIONARY
  5
D
330
C
100
AcDbDictionary
  0
DICTIONARY
  5
1A
330
C
100
AcDbDictionary
  0
DICTIONARY
  5
17
330
C
100
AcDbDictionary
  3
STANDARD
350
18
  0
DICTIONARY
  5
19
330
C
100
AcDbDictionary
  0
ENDSEC
  0
EOF
