<?xml version="1.0" encoding="UTF-8" standalone="no"?>
<!-- Created with Inkscape (http://www.inkscape.org/) -->

<svg
   width="1315.382mm"
   height="760.5802mm"
   viewBox="0 0 1315.382 760.5802"
   version="1.1"
   id="svg75901"
   inkscape:version="1.3.2 (1:1.3.2+202311252150+091e20ef0f)"
   sodipodi:docname="1.6_escalon_corte_sin_gravado_CORTE.svg"
   xmlns:inkscape="http://www.inkscape.org/namespaces/inkscape"
   xmlns:sodipodi="http://sodipodi.sourceforge.net/DTD/sodipodi-0.dtd"
   xmlns="http://www.w3.org/2000/svg"
   xmlns:svg="http://www.w3.org/2000/svg">
  <sodipodi:namedview
     id="namedview75903"
     pagecolor="#ffffff"
     bordercolor="#666666"
     borderopacity="1.0"
     inkscape:pageshadow="2"
     inkscape:pageopacity="0.0"
     inkscape:pagecheckerboard="0"
     inkscape:document-units="mm"
     showgrid="false"
     fit-margin-top="0"
     fit-margin-left="0"
     fit-margin-right="0"
     fit-margin-bottom="0"
     inkscape:zoom="0.25"
     inkscape:cx="2768"
     inkscape:cy="1470"
     inkscape:window-width="1920"
     inkscape:window-height="1043"
     inkscape:window-x="1920"
     inkscape:window-y="0"
     inkscape:window-maximized="1"
     inkscape:current-layer="layer1"
     showguides="false"
     inkscape:snap-intersection-paths="true"
     inkscape:showpageshadow="2"
     inkscape:deskcolor="#d1d1d1" />
  <defs
     id="defs75898">
    <clipPath
       clipPathUnits="userSpaceOnUse"
       id="clipPath602">
      <rect
         style="fill:#f4f607;fill-opacity:0.435294;stroke:#999999;stroke-width:0;stroke-miterlimit:4;stroke-dasharray:none;stroke-opacity:1"
         id="rect603"
         width="1253.0587"
         height="180.06453"
         x="748.67841"
         y="700.61224" />
    </clipPath>
    <clipPath
       clipPathUnits="userSpaceOnUse"
       id="clipPath664-7">
      <rect
         style="fill:#f4f607;fill-opacity:0.435294;stroke:#999999;stroke-width:0;stroke-miterlimit:4;stroke-dasharray:none;stroke-opacity:1"
         id="rect664-4"
         width="1000"
         height="143.7"
         x="2395.9553"
         y="1266.395" />
    </clipPath>
    <clipPath
       clipPathUnits="userSpaceOnUse"
       id="clipPath900">
      <rect
         style="fill:#f4f607;fill-opacity:0.435294;stroke:#999999;stroke-width:0;stroke-miterlimit:4;stroke-dasharray:none;stroke-opacity:1"
         id="rect900"
         width="1041.5636"
         height="149.67268"
         x="5755.8066"
         y="494.26541" />
    </clipPath>
  </defs>
  <g
     inkscape:label="Layer 1"
     inkscape:groupmode="layer"
     id="layer1"
     transform="translate(563.53393,333.95214)">
    <path
       id="rect1"
       style="opacity:0.77175;vector-effect:non-scaling-stroke;fill:none;fill-opacity:0.194176;stroke:#2723c9;stroke-width:0.264583;stroke-linejoin:round;stroke-dasharray:none;-inkscape-stroke:hairline"
       d="M -405.84292,-25.512177 V 118.1881 h 3.42253 3.71812 l -1.89032,-3.34502 6.65437,-11.52281 h 13.3072 l 6.65231,11.5223 -1.93115,3.34553 h 4.11189 37.9429 3.91708 l -1.88981,-3.34502 6.65386,-11.52281 h 13.3072 l 6.65282,11.5223 -1.93166,3.34553 h 4.06796 37.82199 3.97133 l -1.88981,-3.34502 6.65386,-11.52281 h 13.3072 l 6.65282,11.5223 -1.93166,3.34553 h 4.01319 37.86539 4.13566 l -1.89032,-3.34502 6.65437,-11.52281 h 13.3072 l 6.65231,11.5223 -1.93115,3.34553 h 3.84989 37.95841 4.05298 l -1.8898,-3.34502 6.65385,-11.52281 h 13.3072 l 6.652824,11.5223 -1.931664,3.34553 h 3.932575 37.964608 3.811654 l -1.890324,-3.34502 6.653857,-11.52281 h 13.307715 l 6.652307,11.5223 -1.931665,3.34553 h 4.173906 37.829732 3.858162 l -1.890324,-3.34502 6.653858,-11.52281 h 13.307715 l 6.652307,11.5223 -1.931149,3.34553 h 4.127397 37.880892 4.00544 l -1.889807,-3.34502 6.653853,-11.52281 h 13.307201 l 6.65283,11.5223 -1.93167,3.34553 h 3.98012 37.84885 4.03283 l -1.89032,-3.34502 6.65386,-11.52281 h 13.30719 l 6.65283,11.5223 -1.93167,3.34553 h 3.95325 37.88141 3.73775 l -1.89032,-3.34502 6.65386,-11.52281 h 13.30771 l 6.65231,11.5223 -1.93115,3.34553 h 4.24729 37.89794 3.71605 l -1.89032,-3.34502 6.65438,-11.52281 h 13.30719 l 6.65231,11.5223 -1.93115,3.34553 h 4.26951 37.88089 3.86385 l -1.89033,-3.34502 6.65386,-11.52281 h 13.30772 l 6.6523,11.5223 -1.93115,3.34553 h 4.12172 37.75118 3.97185 l -1.88981,-3.34502 6.65386,-11.52281 h 13.3072 l 6.65282,11.5223 -1.93166,3.34553 h 4.01371 37.87572 3.97185 l -1.8898,-3.34502 6.65385,-11.52281 h 13.3072 l 6.65282,11.5223 -1.93166,3.34553 h 4.01371 37.87572 3.97185 l -1.8898,-3.34502 6.65385,-11.52281 h 13.3072 l 6.65283,11.5223 -1.93167,3.34553 h 4.01371 4.7904 V -25.512177 h -41.97418 l 0.7829,1.356506 -6.65334,11.523845 h -13.3072 l -6.65334,-11.523845 0.78445,-1.356506 h -43.60716 l 0.7829,1.356506 -6.65334,11.523845 h -13.3072 l -6.65334,-11.523845 0.78445,-1.356506 h -43.60716 l 0.7829,1.356506 -6.65334,11.523845 h -13.3072 l -6.65334,-11.523845 0.78393,-1.356506 h -43.60716 l 0.78342,1.356506 -6.65386,11.523845 h -13.30668 l -6.65334,-11.523845 0.78393,-1.356506 h -43.60716 l 0.78342,1.356506 -6.65386,11.523845 h -13.30668 l -6.65334,-11.523845 0.78393,-1.356506 h -43.4542 l 0.7829,1.356506 -6.65334,11.523845 h -13.3072 l -6.65334,-11.523845 0.78445,-1.356506 h -43.76012 l 0.78342,1.356506 -6.65386,11.523845 h -13.30668 l -6.65334,-11.523845 0.78393,-1.356506 H 71.759452 l 0.782898,1.356506 -6.653341,11.523845 H 52.581811 l -6.65334,-11.523845 0.784448,-1.356506 H 2.952799 l 0.782898,1.356506 -6.65334,11.523845 h -13.306682 l -6.653857,-11.523845 0.784448,-1.356506 h -43.454195 l 0.782898,1.356506 -6.653857,11.523845 H -84.72557 l -6.65334,-11.523845 0.783931,-1.356506 h -43.759601 l 0.7829,1.356506 -6.65334,11.523845 h -13.3072 l -6.65334,-11.523845 0.78445,-1.356506 h -43.60716 l 0.7829,1.355989 -6.65334,11.524362 h -13.3072 l -6.65334,-11.523845 0.78445,-1.356506 h -43.60716 l 0.7829,1.356506 -6.65334,11.523845 h -13.3072 l -6.65334,-11.523845 0.77928,-1.349271 -43.28573,-0.0072 0.70073,1.213362 -6.65386,11.524362 h -13.30668 l -6.65334,-11.524362 0.69556,-1.205094 z" />
    <path
       style="vector-effect:non-scaling-stroke;fill:none;stroke:#2625db;stroke-width:0.264583;stroke-linecap:butt;stroke-linejoin:miter;stroke-dasharray:none;stroke-opacity:1;-inkscape-stroke:hairline"
       d="m -393.78082,-15.86791 h 13.30737 l 6.65256,11.522578 -6.65353,11.524244 h -13.30686 l -6.65347,-11.524138 z"
       id="path1" />
    <path
       style="vector-effect:non-scaling-stroke;fill:none;stroke:#2625db;stroke-width:0.264583;stroke-linecap:butt;stroke-linejoin:miter;stroke-dasharray:none;stroke-opacity:1;-inkscape-stroke:hairline"
       d="m -325.12708,-15.86791 h 13.30737 l 6.65256,11.522578 -6.65353,11.524244 h -13.30686 l -6.65347,-11.524138 z"
       id="path2" />
    <path
       style="vector-effect:non-scaling-stroke;fill:none;stroke:#2625db;stroke-width:0.264583;stroke-linecap:butt;stroke-linejoin:miter;stroke-dasharray:none;stroke-opacity:1;-inkscape-stroke:hairline"
       d="m -256.47334,-15.86791 h 13.30737 l 6.65256,11.522578 -6.65353,11.524244 h -13.30686 l -6.65347,-11.524138 z"
       id="path3" />
    <path
       style="vector-effect:non-scaling-stroke;fill:none;stroke:#2625db;stroke-width:0.264583;stroke-linecap:butt;stroke-linejoin:miter;stroke-dasharray:none;stroke-opacity:1;-inkscape-stroke:hairline"
       d="m -187.8196,-15.86791 h 13.30737 l 6.65256,11.522578 -6.65353,11.524244 h -13.30686 l -6.65347,-11.524138 z"
       id="path4" />
    <path
       style="vector-effect:non-scaling-stroke;fill:none;stroke:#2625db;stroke-width:0.264583;stroke-linecap:butt;stroke-linejoin:miter;stroke-dasharray:none;stroke-opacity:1;-inkscape-stroke:hairline"
       d="m -119.16586,-15.86791 h 13.30737 l 6.652563,11.522578 -6.653533,11.524244 h -13.30686 l -6.65347,-11.524138 z"
       id="path5" />
    <path
       style="vector-effect:non-scaling-stroke;fill:none;stroke:#2625db;stroke-width:0.264583;stroke-linecap:butt;stroke-linejoin:miter;stroke-dasharray:none;stroke-opacity:1;-inkscape-stroke:hairline"
       d="m -50.512117,-15.86791 h 13.30737 l 6.65256,11.522578 -6.65353,11.524244 h -13.30686 l -6.65347,-11.524138 z"
       id="path6" />
    <path
       style="vector-effect:non-scaling-stroke;fill:none;stroke:#2625db;stroke-width:0.264583;stroke-linecap:butt;stroke-linejoin:miter;stroke-dasharray:none;stroke-opacity:1;-inkscape-stroke:hairline"
       d="m 18.141623,-15.86791 h 13.30737 l 6.65256,11.522578 -6.65353,11.524244 h -13.30686 l -6.65347,-11.524138 z"
       id="path7" />
    <path
       style="vector-effect:non-scaling-stroke;fill:none;stroke:#2625db;stroke-width:0.264583;stroke-linecap:butt;stroke-linejoin:miter;stroke-dasharray:none;stroke-opacity:1;-inkscape-stroke:hairline"
       d="m 86.795359,-15.86791 h 13.307371 l 6.65256,11.522578 -6.65353,11.524244 H 86.794899 L 80.141435,-4.345226 Z"
       id="path8" />
    <path
       style="vector-effect:non-scaling-stroke;fill:none;stroke:#2625db;stroke-width:0.264583;stroke-linecap:butt;stroke-linejoin:miter;stroke-dasharray:none;stroke-opacity:1;-inkscape-stroke:hairline"
       d="m 155.44911,-15.86791 h 13.30737 l 6.65256,11.522578 -6.65353,11.524244 h -13.30686 l -6.65347,-11.524138 z"
       id="path9" />
    <path
       style="vector-effect:non-scaling-stroke;fill:none;stroke:#2625db;stroke-width:0.264583;stroke-linecap:butt;stroke-linejoin:miter;stroke-dasharray:none;stroke-opacity:1;-inkscape-stroke:hairline"
       d="m 224.10285,-15.86791 h 13.30737 l 6.65256,11.522578 -6.65353,11.524244 h -13.30686 l -6.65347,-11.524138 z"
       id="path10" />
    <path
       style="vector-effect:non-scaling-stroke;fill:none;stroke:#2625db;stroke-width:0.264583;stroke-linecap:butt;stroke-linejoin:miter;stroke-dasharray:none;stroke-opacity:1;-inkscape-stroke:hairline"
       d="m 292.75659,-15.86791 h 13.30737 l 6.65256,11.522578 -6.65353,11.524244 h -13.30686 l -6.65347,-11.524138 z"
       id="path11" />
    <path
       style="vector-effect:non-scaling-stroke;fill:none;stroke:#2625db;stroke-width:0.264583;stroke-linecap:butt;stroke-linejoin:miter;stroke-dasharray:none;stroke-opacity:1;-inkscape-stroke:hairline"
       d="m 361.41033,-15.86791 h 13.30737 l 6.65256,11.522578 -6.65353,11.524244 H 361.40987 L 354.7564,-4.345226 Z"
       id="path12" />
    <path
       style="vector-effect:non-scaling-stroke;fill:none;stroke:#2625db;stroke-width:0.264583;stroke-linecap:butt;stroke-linejoin:miter;stroke-dasharray:none;stroke-opacity:1;-inkscape-stroke:hairline"
       d="m 430.06407,-15.86791 h 13.30737 l 6.65256,11.522578 -6.65353,11.524244 h -13.30686 l -6.65347,-11.524138 z"
       id="path13" />
    <path
       style="vector-effect:non-scaling-stroke;fill:none;stroke:#2625db;stroke-width:0.264583;stroke-linecap:butt;stroke-linejoin:miter;stroke-dasharray:none;stroke-opacity:1;-inkscape-stroke:hairline"
       d="m 498.71781,-15.86791 h 13.30737 l 6.65256,11.522578 -6.65353,11.524244 h -13.30686 l -6.65347,-11.524138 z"
       id="path14" />
    <path
       style="vector-effect:non-scaling-stroke;fill:none;stroke:#2625db;stroke-width:0.264583;stroke-linecap:butt;stroke-linejoin:miter;stroke-dasharray:none;stroke-opacity:1;-inkscape-stroke:hairline"
       d="m 567.37155,-15.86791 h 13.30737 l 6.65256,11.522578 -6.65353,11.524244 h -13.30686 l -6.65347,-11.524138 z"
       id="path15" />
    <path
       style="vector-effect:non-scaling-stroke;fill:none;stroke:#2625db;stroke-width:0.264583;stroke-linecap:butt;stroke-linejoin:miter;stroke-dasharray:none;stroke-opacity:1;-inkscape-stroke:hairline"
       d="m -359.3758,3.820455 h 13.30737 l 6.65256,11.522578 -6.65353,11.524244 h -13.30686 l -6.65347,-11.524138 z"
       id="path16" />
    <path
       style="vector-effect:non-scaling-stroke;fill:none;stroke:#2625db;stroke-width:0.264583;stroke-linecap:butt;stroke-linejoin:miter;stroke-dasharray:none;stroke-opacity:1;-inkscape-stroke:hairline"
       d="m -290.83904,3.820455 h 13.30737 l 6.65256,11.522578 -6.65353,11.524244 h -13.30686 l -6.65347,-11.524138 z"
       id="path17" />
    <path
       style="vector-effect:non-scaling-stroke;fill:none;stroke:#2625db;stroke-width:0.264583;stroke-linecap:butt;stroke-linejoin:miter;stroke-dasharray:none;stroke-opacity:1;-inkscape-stroke:hairline"
       d="m -222.1853,3.820455 h 13.30737 l 6.65256,11.522578 -6.65353,11.524244 h -13.30686 l -6.65347,-11.524138 z"
       id="path18" />
    <path
       style="vector-effect:non-scaling-stroke;fill:none;stroke:#2625db;stroke-width:0.264583;stroke-linecap:butt;stroke-linejoin:miter;stroke-dasharray:none;stroke-opacity:1;-inkscape-stroke:hairline"
       d="m -153.53156,3.820455 h 13.30737 l 6.65256,11.522578 -6.65353,11.524244 h -13.30686 l -6.65347,-11.524138 z"
       id="path19" />
    <path
       style="vector-effect:non-scaling-stroke;fill:none;stroke:#2625db;stroke-width:0.264583;stroke-linecap:butt;stroke-linejoin:miter;stroke-dasharray:none;stroke-opacity:1;-inkscape-stroke:hairline"
       d="m -84.877824,3.820455 h 13.307374 l 6.65256,11.522578 -6.65353,11.524244 h -13.306864 l -6.65347,-11.524138 z"
       id="path20" />
    <path
       style="vector-effect:non-scaling-stroke;fill:none;stroke:#2625db;stroke-width:0.264583;stroke-linecap:butt;stroke-linejoin:miter;stroke-dasharray:none;stroke-opacity:1;-inkscape-stroke:hairline"
       d="M -16.22408,3.820455 H -2.91671 L 3.73585,15.343033 -2.91768,26.867277 H -16.22454 L -22.87801,15.343139 Z"
       id="path21" />
    <path
       style="vector-effect:non-scaling-stroke;fill:none;stroke:#2625db;stroke-width:0.264583;stroke-linecap:butt;stroke-linejoin:miter;stroke-dasharray:none;stroke-opacity:1;-inkscape-stroke:hairline"
       d="m 52.42966,3.820455 h 13.30737 l 6.65256,11.522578 -6.65353,11.524244 H 52.4292 L 45.77573,15.343139 Z"
       id="path22" />
    <path
       style="vector-effect:non-scaling-stroke;fill:none;stroke:#2625db;stroke-width:0.264583;stroke-linecap:butt;stroke-linejoin:miter;stroke-dasharray:none;stroke-opacity:1;-inkscape-stroke:hairline"
       d="m 121.0834,3.820455 h 13.30737 l 6.65256,11.522578 -6.65353,11.524244 h -13.30686 l -6.65347,-11.524138 z"
       id="path23" />
    <path
       style="vector-effect:non-scaling-stroke;fill:none;stroke:#2625db;stroke-width:0.264583;stroke-linecap:butt;stroke-linejoin:miter;stroke-dasharray:none;stroke-opacity:1;-inkscape-stroke:hairline"
       d="m 189.73715,3.820455 h 13.30737 l 6.65256,11.522578 -6.65353,11.524244 h -13.30686 l -6.65347,-11.524138 z"
       id="path24" />
    <path
       style="vector-effect:non-scaling-stroke;fill:none;stroke:#2625db;stroke-width:0.264583;stroke-linecap:butt;stroke-linejoin:miter;stroke-dasharray:none;stroke-opacity:1;-inkscape-stroke:hairline"
       d="m 258.39089,3.820455 h 13.30737 l 6.65256,11.522578 -6.65353,11.524244 h -13.30686 l -6.65347,-11.524138 z"
       id="path25" />
    <path
       style="vector-effect:non-scaling-stroke;fill:none;stroke:#2625db;stroke-width:0.264583;stroke-linecap:butt;stroke-linejoin:miter;stroke-dasharray:none;stroke-opacity:1;-inkscape-stroke:hairline"
       d="M 327.04463,3.820455 H 340.352 l 6.65256,11.522578 -6.65353,11.524244 H 327.04417 L 320.3907,15.343139 Z"
       id="path26" />
    <path
       style="vector-effect:non-scaling-stroke;fill:none;stroke:#2625db;stroke-width:0.264583;stroke-linecap:butt;stroke-linejoin:miter;stroke-dasharray:none;stroke-opacity:1;-inkscape-stroke:hairline"
       d="m 395.69837,3.820455 h 13.30737 l 6.65256,11.522578 -6.65353,11.524244 h -13.30686 l -6.65347,-11.524138 z"
       id="path27" />
    <path
       style="vector-effect:non-scaling-stroke;fill:none;stroke:#2625db;stroke-width:0.264583;stroke-linecap:butt;stroke-linejoin:miter;stroke-dasharray:none;stroke-opacity:1;-inkscape-stroke:hairline"
       d="m 464.35211,3.820455 h 13.30737 l 6.65256,11.522578 -6.65353,11.524244 h -13.30686 l -6.65347,-11.524138 z"
       id="path28" />
    <path
       style="vector-effect:non-scaling-stroke;fill:none;stroke:#2625db;stroke-width:0.264583;stroke-linecap:butt;stroke-linejoin:miter;stroke-dasharray:none;stroke-opacity:1;-inkscape-stroke:hairline"
       d="m 533.00585,3.820455 h 13.30737 l 6.65256,11.522578 -6.65353,11.524244 h -13.30686 l -6.65347,-11.524138 z"
       id="path29" />
    <path
       style="vector-effect:non-scaling-stroke;fill:none;stroke:#2625db;stroke-width:0.264583;stroke-linecap:butt;stroke-linejoin:miter;stroke-dasharray:none;stroke-opacity:1;-inkscape-stroke:hairline"
       d="m -393.82779,23.641334 h 13.30737 l 6.65256,11.522573 -6.65353,11.52425 h -13.30686 l -6.65347,-11.52414 z"
       id="path30" />
    <path
       style="vector-effect:non-scaling-stroke;fill:none;stroke:#2625db;stroke-width:0.264583;stroke-linecap:butt;stroke-linejoin:miter;stroke-dasharray:none;stroke-opacity:1;-inkscape-stroke:hairline"
       d="m -325.17405,23.641334 h 13.30737 l 6.65256,11.522573 -6.65353,11.52425 h -13.30686 l -6.65347,-11.52414 z"
       id="path31" />
    <path
       style="vector-effect:non-scaling-stroke;fill:none;stroke:#2625db;stroke-width:0.264583;stroke-linecap:butt;stroke-linejoin:miter;stroke-dasharray:none;stroke-opacity:1;-inkscape-stroke:hairline"
       d="m -256.52031,23.641334 h 13.30737 l 6.65256,11.522573 -6.65353,11.52425 h -13.30686 l -6.65347,-11.52414 z"
       id="path32" />
    <path
       style="vector-effect:non-scaling-stroke;fill:none;stroke:#2625db;stroke-width:0.264583;stroke-linecap:butt;stroke-linejoin:miter;stroke-dasharray:none;stroke-opacity:1;-inkscape-stroke:hairline"
       d="m -187.86657,23.641334 h 13.30737 l 6.65256,11.522573 -6.65353,11.52425 h -13.30686 l -6.65347,-11.52414 z"
       id="path33" />
    <path
       style="vector-effect:non-scaling-stroke;fill:none;stroke:#2625db;stroke-width:0.264583;stroke-linecap:butt;stroke-linejoin:miter;stroke-dasharray:none;stroke-opacity:1;-inkscape-stroke:hairline"
       d="m -119.21283,23.641334 h 13.30737 l 6.65256,11.522573 -6.65353,11.52425 h -13.30686 l -6.65347,-11.52414 z"
       id="path34" />
    <path
       style="vector-effect:non-scaling-stroke;fill:none;stroke:#2625db;stroke-width:0.264583;stroke-linecap:butt;stroke-linejoin:miter;stroke-dasharray:none;stroke-opacity:1;-inkscape-stroke:hairline"
       d="m -50.55909,23.641334 h 13.30737 l 6.65256,11.522573 -6.65353,11.52425 h -13.30686 l -6.65347,-11.52414 z"
       id="path35" />
    <path
       style="vector-effect:non-scaling-stroke;fill:none;stroke:#2625db;stroke-width:0.264583;stroke-linecap:butt;stroke-linejoin:miter;stroke-dasharray:none;stroke-opacity:1;-inkscape-stroke:hairline"
       d="m 18.09465,23.641334 h 13.30737 l 6.65256,11.522573 -6.65353,11.52425 H 18.09419 l -6.65347,-11.52414 z"
       id="path36" />
    <path
       style="vector-effect:non-scaling-stroke;fill:none;stroke:#2625db;stroke-width:0.264583;stroke-linecap:butt;stroke-linejoin:miter;stroke-dasharray:none;stroke-opacity:1;-inkscape-stroke:hairline"
       d="m 86.748389,23.641334 h 13.307371 l 6.65256,11.522573 -6.65353,11.52425 H 86.747929 l -6.653467,-11.52414 z"
       id="path37" />
    <path
       style="vector-effect:non-scaling-stroke;fill:none;stroke:#2625db;stroke-width:0.264583;stroke-linecap:butt;stroke-linejoin:miter;stroke-dasharray:none;stroke-opacity:1;-inkscape-stroke:hairline"
       d="m 155.40214,23.641334 h 13.30737 l 6.65256,11.522573 -6.65353,11.52425 h -13.30686 l -6.65347,-11.52414 z"
       id="path38" />
    <path
       style="vector-effect:non-scaling-stroke;fill:none;stroke:#2625db;stroke-width:0.264583;stroke-linecap:butt;stroke-linejoin:miter;stroke-dasharray:none;stroke-opacity:1;-inkscape-stroke:hairline"
       d="m 224.05588,23.641334 h 13.30737 l 6.65256,11.522573 -6.65353,11.52425 h -13.30686 l -6.65347,-11.52414 z"
       id="path39" />
    <path
       style="vector-effect:non-scaling-stroke;fill:none;stroke:#2625db;stroke-width:0.264583;stroke-linecap:butt;stroke-linejoin:miter;stroke-dasharray:none;stroke-opacity:1;-inkscape-stroke:hairline"
       d="m 292.70962,23.641334 h 13.30737 l 6.65256,11.522573 -6.65353,11.52425 h -13.30686 l -6.65347,-11.52414 z"
       id="path40" />
    <path
       style="vector-effect:non-scaling-stroke;fill:none;stroke:#2625db;stroke-width:0.264583;stroke-linecap:butt;stroke-linejoin:miter;stroke-dasharray:none;stroke-opacity:1;-inkscape-stroke:hairline"
       d="m 361.36336,23.641334 h 13.30737 l 6.65256,11.522573 -6.65353,11.52425 H 361.3629 l -6.65347,-11.52414 z"
       id="path41" />
    <path
       style="vector-effect:non-scaling-stroke;fill:none;stroke:#2625db;stroke-width:0.264583;stroke-linecap:butt;stroke-linejoin:miter;stroke-dasharray:none;stroke-opacity:1;-inkscape-stroke:hairline"
       d="m 430.0171,23.641334 h 13.30737 l 6.65256,11.522573 -6.65353,11.52425 h -13.30686 l -6.65347,-11.52414 z"
       id="path42" />
    <path
       style="vector-effect:non-scaling-stroke;fill:none;stroke:#2625db;stroke-width:0.264583;stroke-linecap:butt;stroke-linejoin:miter;stroke-dasharray:none;stroke-opacity:1;-inkscape-stroke:hairline"
       d="m 498.67084,23.641334 h 13.30737 l 6.65256,11.522573 -6.65353,11.52425 h -13.30686 l -6.65347,-11.52414 z"
       id="path43" />
    <path
       style="vector-effect:non-scaling-stroke;fill:none;stroke:#2625db;stroke-width:0.264583;stroke-linecap:butt;stroke-linejoin:miter;stroke-dasharray:none;stroke-opacity:1;-inkscape-stroke:hairline"
       d="m 567.32458,23.641334 h 13.30737 l 6.65256,11.522573 -6.65353,11.52425 h -13.30686 l -6.65347,-11.52414 z"
       id="path44" />
    <path
       style="vector-effect:non-scaling-stroke;fill:none;stroke:#2625db;stroke-width:0.264583;stroke-linecap:butt;stroke-linejoin:miter;stroke-dasharray:none;stroke-opacity:1;-inkscape-stroke:hairline"
       d="m -359.49278,43.462297 h 13.30737 l 6.65256,11.52258 -6.65353,11.52424 h -13.30686 l -6.65347,-11.52413 z"
       id="path45" />
    <path
       style="vector-effect:non-scaling-stroke;fill:none;stroke:#2625db;stroke-width:0.264583;stroke-linecap:butt;stroke-linejoin:miter;stroke-dasharray:none;stroke-opacity:1;-inkscape-stroke:hairline"
       d="m -290.83904,43.462297 h 13.30737 l 6.65256,11.52258 -6.65353,11.52424 h -13.30686 l -6.65347,-11.52413 z"
       id="path46" />
    <path
       style="vector-effect:non-scaling-stroke;fill:none;stroke:#2625db;stroke-width:0.264583;stroke-linecap:butt;stroke-linejoin:miter;stroke-dasharray:none;stroke-opacity:1;-inkscape-stroke:hairline"
       d="m -222.1853,43.462297 h 13.30737 l 6.65256,11.52258 -6.65353,11.52424 h -13.30686 l -6.65347,-11.52413 z"
       id="path47" />
    <path
       style="vector-effect:non-scaling-stroke;fill:none;stroke:#2625db;stroke-width:0.264583;stroke-linecap:butt;stroke-linejoin:miter;stroke-dasharray:none;stroke-opacity:1;-inkscape-stroke:hairline"
       d="m -153.53156,43.462297 h 13.30737 l 6.65256,11.52258 -6.65353,11.52424 h -13.30686 l -6.65347,-11.52413 z"
       id="path48" />
    <path
       style="vector-effect:non-scaling-stroke;fill:none;stroke:#2625db;stroke-width:0.264583;stroke-linecap:butt;stroke-linejoin:miter;stroke-dasharray:none;stroke-opacity:1;-inkscape-stroke:hairline"
       d="m -84.877824,43.462297 h 13.307374 l 6.65256,11.52258 -6.65353,11.52424 h -13.306864 l -6.65347,-11.52413 z"
       id="path49" />
    <path
       style="vector-effect:non-scaling-stroke;fill:none;stroke:#2625db;stroke-width:0.264583;stroke-linecap:butt;stroke-linejoin:miter;stroke-dasharray:none;stroke-opacity:1;-inkscape-stroke:hairline"
       d="m -16.22408,43.462297 h 13.30737 l 6.65256,11.52258 -6.65353,11.52424 h -13.30686 l -6.65347,-11.52413 z"
       id="path50" />
    <path
       style="vector-effect:non-scaling-stroke;fill:none;stroke:#2625db;stroke-width:0.264583;stroke-linecap:butt;stroke-linejoin:miter;stroke-dasharray:none;stroke-opacity:1;-inkscape-stroke:hairline"
       d="m 52.42966,43.462297 h 13.30737 l 6.65256,11.52258 -6.65353,11.52424 H 52.4292 l -6.65347,-11.52413 z"
       id="path51" />
    <path
       style="vector-effect:non-scaling-stroke;fill:none;stroke:#2625db;stroke-width:0.264583;stroke-linecap:butt;stroke-linejoin:miter;stroke-dasharray:none;stroke-opacity:1;-inkscape-stroke:hairline"
       d="m 121.0834,43.462297 h 13.30737 l 6.65256,11.52258 -6.65353,11.52424 h -13.30686 l -6.65347,-11.52413 z"
       id="path52" />
    <path
       style="vector-effect:non-scaling-stroke;fill:none;stroke:#2625db;stroke-width:0.264583;stroke-linecap:butt;stroke-linejoin:miter;stroke-dasharray:none;stroke-opacity:1;-inkscape-stroke:hairline"
       d="m 189.73715,43.462297 h 13.30737 l 6.65256,11.52258 -6.65353,11.52424 h -13.30686 l -6.65347,-11.52413 z"
       id="path53" />
    <path
       style="vector-effect:non-scaling-stroke;fill:none;stroke:#2625db;stroke-width:0.264583;stroke-linecap:butt;stroke-linejoin:miter;stroke-dasharray:none;stroke-opacity:1;-inkscape-stroke:hairline"
       d="m 258.39089,43.462297 h 13.30737 l 6.65256,11.52258 -6.65353,11.52424 h -13.30686 l -6.65347,-11.52413 z"
       id="path54" />
    <path
       style="vector-effect:non-scaling-stroke;fill:none;stroke:#2625db;stroke-width:0.264583;stroke-linecap:butt;stroke-linejoin:miter;stroke-dasharray:none;stroke-opacity:1;-inkscape-stroke:hairline"
       d="M 327.04463,43.462297 H 340.352 l 6.65256,11.52258 -6.65353,11.52424 h -13.30686 l -6.65347,-11.52413 z"
       id="path55" />
    <path
       style="vector-effect:non-scaling-stroke;fill:none;stroke:#2625db;stroke-width:0.264583;stroke-linecap:butt;stroke-linejoin:miter;stroke-dasharray:none;stroke-opacity:1;-inkscape-stroke:hairline"
       d="m 395.69837,43.462297 h 13.30737 l 6.65256,11.52258 -6.65353,11.52424 h -13.30686 l -6.65347,-11.52413 z"
       id="path56" />
    <path
       style="vector-effect:non-scaling-stroke;fill:none;stroke:#2625db;stroke-width:0.264583;stroke-linecap:butt;stroke-linejoin:miter;stroke-dasharray:none;stroke-opacity:1;-inkscape-stroke:hairline"
       d="m 464.35211,43.462297 h 13.30737 l 6.65256,11.52258 -6.65353,11.52424 h -13.30686 l -6.65347,-11.52413 z"
       id="path57" />
    <path
       style="vector-effect:non-scaling-stroke;fill:none;stroke:#2625db;stroke-width:0.264583;stroke-linecap:butt;stroke-linejoin:miter;stroke-dasharray:none;stroke-opacity:1;-inkscape-stroke:hairline"
       d="m 533.00585,43.462297 h 13.30737 l 6.65256,11.52258 -6.65353,11.52424 h -13.30686 l -6.65347,-11.52413 z"
       id="path58" />
    <path
       style="vector-effect:non-scaling-stroke;fill:none;stroke:#2625db;stroke-width:0.264583;stroke-linecap:butt;stroke-linejoin:miter;stroke-dasharray:none;stroke-opacity:1;-inkscape-stroke:hairline"
       d="m -393.82779,63.546467 h 13.30737 l 6.65256,11.52257 -6.65353,11.52425 h -13.30686 l -6.65347,-11.52414 z"
       id="path59" />
    <path
       style="vector-effect:non-scaling-stroke;fill:none;stroke:#2625db;stroke-width:0.264583;stroke-linecap:butt;stroke-linejoin:miter;stroke-dasharray:none;stroke-opacity:1;-inkscape-stroke:hairline"
       d="m -325.17405,63.546467 h 13.30737 l 6.65256,11.52257 -6.65353,11.52425 h -13.30686 l -6.65347,-11.52414 z"
       id="path60" />
    <path
       style="vector-effect:non-scaling-stroke;fill:none;stroke:#2625db;stroke-width:0.264583;stroke-linecap:butt;stroke-linejoin:miter;stroke-dasharray:none;stroke-opacity:1;-inkscape-stroke:hairline"
       d="m -256.52031,63.546467 h 13.30737 l 6.65256,11.52257 -6.65353,11.52425 h -13.30686 l -6.65347,-11.52414 z"
       id="path61" />
    <path
       style="vector-effect:non-scaling-stroke;fill:none;stroke:#2625db;stroke-width:0.264583;stroke-linecap:butt;stroke-linejoin:miter;stroke-dasharray:none;stroke-opacity:1;-inkscape-stroke:hairline"
       d="m -187.86657,63.546467 h 13.30737 l 6.65256,11.52257 -6.65353,11.52425 h -13.30686 l -6.65347,-11.52414 z"
       id="path62" />
    <path
       style="vector-effect:non-scaling-stroke;fill:none;stroke:#2625db;stroke-width:0.264583;stroke-linecap:butt;stroke-linejoin:miter;stroke-dasharray:none;stroke-opacity:1;-inkscape-stroke:hairline"
       d="m -119.21283,63.546467 h 13.30737 l 6.65256,11.52257 -6.65353,11.52425 h -13.30686 l -6.65347,-11.52414 z"
       id="path63" />
    <path
       style="vector-effect:non-scaling-stroke;fill:none;stroke:#2625db;stroke-width:0.264583;stroke-linecap:butt;stroke-linejoin:miter;stroke-dasharray:none;stroke-opacity:1;-inkscape-stroke:hairline"
       d="m -50.55909,63.546467 h 13.30737 l 6.65256,11.52257 -6.65353,11.52425 h -13.30686 l -6.65347,-11.52414 z"
       id="path64" />
    <path
       style="vector-effect:non-scaling-stroke;fill:none;stroke:#2625db;stroke-width:0.264583;stroke-linecap:butt;stroke-linejoin:miter;stroke-dasharray:none;stroke-opacity:1;-inkscape-stroke:hairline"
       d="m 18.09465,63.546467 h 13.30737 l 6.65256,11.52257 -6.65353,11.52425 H 18.09419 l -6.65347,-11.52414 z"
       id="path65" />
    <path
       style="vector-effect:non-scaling-stroke;fill:none;stroke:#2625db;stroke-width:0.264583;stroke-linecap:butt;stroke-linejoin:miter;stroke-dasharray:none;stroke-opacity:1;-inkscape-stroke:hairline"
       d="m 86.748389,63.546467 h 13.307371 l 6.65256,11.52257 -6.65353,11.52425 H 86.747929 l -6.653467,-11.52414 z"
       id="path66" />
    <path
       style="vector-effect:non-scaling-stroke;fill:none;stroke:#2625db;stroke-width:0.264583;stroke-linecap:butt;stroke-linejoin:miter;stroke-dasharray:none;stroke-opacity:1;-inkscape-stroke:hairline"
       d="m 155.40214,63.546467 h 13.30737 l 6.65256,11.52257 -6.65353,11.52425 h -13.30686 l -6.65347,-11.52414 z"
       id="path67" />
    <path
       style="vector-effect:non-scaling-stroke;fill:none;stroke:#2625db;stroke-width:0.264583;stroke-linecap:butt;stroke-linejoin:miter;stroke-dasharray:none;stroke-opacity:1;-inkscape-stroke:hairline"
       d="m 224.05588,63.546467 h 13.30737 l 6.65256,11.52257 -6.65353,11.52425 h -13.30686 l -6.65347,-11.52414 z"
       id="path68" />
    <path
       style="vector-effect:non-scaling-stroke;fill:none;stroke:#2625db;stroke-width:0.264583;stroke-linecap:butt;stroke-linejoin:miter;stroke-dasharray:none;stroke-opacity:1;-inkscape-stroke:hairline"
       d="m 292.70962,63.546467 h 13.30737 l 6.65256,11.52257 -6.65353,11.52425 h -13.30686 l -6.65347,-11.52414 z"
       id="path69" />
    <path
       style="vector-effect:non-scaling-stroke;fill:none;stroke:#2625db;stroke-width:0.264583;stroke-linecap:butt;stroke-linejoin:miter;stroke-dasharray:none;stroke-opacity:1;-inkscape-stroke:hairline"
       d="m 361.36336,63.546467 h 13.30737 l 6.65256,11.52257 -6.65353,11.52425 H 361.3629 l -6.65347,-11.52414 z"
       id="path70" />
    <path
       style="vector-effect:non-scaling-stroke;fill:none;stroke:#2625db;stroke-width:0.264583;stroke-linecap:butt;stroke-linejoin:miter;stroke-dasharray:none;stroke-opacity:1;-inkscape-stroke:hairline"
       d="m 430.0171,63.546467 h 13.30737 l 6.65256,11.52257 -6.65353,11.52425 h -13.30686 l -6.65347,-11.52414 z"
       id="path71" />
    <path
       style="vector-effect:non-scaling-stroke;fill:none;stroke:#2625db;stroke-width:0.264583;stroke-linecap:butt;stroke-linejoin:miter;stroke-dasharray:none;stroke-opacity:1;-inkscape-stroke:hairline"
       d="m 498.67084,63.546467 h 13.30737 l 6.65256,11.52257 -6.65353,11.52425 h -13.30686 l -6.65347,-11.52414 z"
       id="path72" />
    <path
       style="vector-effect:non-scaling-stroke;fill:none;stroke:#2625db;stroke-width:0.264583;stroke-linecap:butt;stroke-linejoin:miter;stroke-dasharray:none;stroke-opacity:1;-inkscape-stroke:hairline"
       d="m 567.32458,63.546467 h 13.30737 l 6.65256,11.52257 -6.65353,11.52425 h -13.30686 l -6.65347,-11.52414 z"
       id="path73" />
    <path
       style="vector-effect:non-scaling-stroke;fill:none;stroke:#2625db;stroke-width:0.264583;stroke-linecap:butt;stroke-linejoin:miter;stroke-dasharray:none;stroke-opacity:1;-inkscape-stroke:hairline"
       d="m -359.49278,83.367427 h 13.30737 l 6.65256,11.52258 -6.65353,11.524243 h -13.30686 l -6.65347,-11.524133 z"
       id="path74" />
    <path
       style="vector-effect:non-scaling-stroke;fill:none;stroke:#2625db;stroke-width:0.264583;stroke-linecap:butt;stroke-linejoin:miter;stroke-dasharray:none;stroke-opacity:1;-inkscape-stroke:hairline"
       d="m -290.83904,83.367427 h 13.30737 l 6.65256,11.52258 -6.65353,11.524243 h -13.30686 l -6.65347,-11.524133 z"
       id="path75" />
    <path
       style="vector-effect:non-scaling-stroke;fill:none;stroke:#2625db;stroke-width:0.264583;stroke-linecap:butt;stroke-linejoin:miter;stroke-dasharray:none;stroke-opacity:1;-inkscape-stroke:hairline"
       d="m -222.1853,83.367427 h 13.30737 l 6.65256,11.52258 -6.65353,11.524243 h -13.30686 l -6.65347,-11.524133 z"
       id="path76" />
    <path
       style="vector-effect:non-scaling-stroke;fill:none;stroke:#2625db;stroke-width:0.264583;stroke-linecap:butt;stroke-linejoin:miter;stroke-dasharray:none;stroke-opacity:1;-inkscape-stroke:hairline"
       d="m -153.53156,83.367427 h 13.30737 l 6.65256,11.52258 -6.65353,11.524243 h -13.30686 l -6.65347,-11.524133 z"
       id="path77" />
    <path
       style="vector-effect:non-scaling-stroke;fill:none;stroke:#2625db;stroke-width:0.264583;stroke-linecap:butt;stroke-linejoin:miter;stroke-dasharray:none;stroke-opacity:1;-inkscape-stroke:hairline"
       d="m -84.877824,83.367427 h 13.307374 l 6.65256,11.52258 -6.65353,11.524243 h -13.306864 l -6.65347,-11.524133 z"
       id="path78" />
    <path
       style="vector-effect:non-scaling-stroke;fill:none;stroke:#2625db;stroke-width:0.264583;stroke-linecap:butt;stroke-linejoin:miter;stroke-dasharray:none;stroke-opacity:1;-inkscape-stroke:hairline"
       d="m -16.22408,83.367427 h 13.30737 l 6.65256,11.52258 -6.65353,11.524243 h -13.30686 l -6.65347,-11.524133 z"
       id="path79" />
    <path
       style="vector-effect:non-scaling-stroke;fill:none;stroke:#2625db;stroke-width:0.264583;stroke-linecap:butt;stroke-linejoin:miter;stroke-dasharray:none;stroke-opacity:1;-inkscape-stroke:hairline"
       d="m 52.42966,83.367427 h 13.30737 l 6.65256,11.52258 -6.65353,11.524243 H 52.4292 L 45.77573,94.890117 Z"
       id="path80" />
    <path
       style="vector-effect:non-scaling-stroke;fill:none;stroke:#2625db;stroke-width:0.264583;stroke-linecap:butt;stroke-linejoin:miter;stroke-dasharray:none;stroke-opacity:1;-inkscape-stroke:hairline"
       d="m 121.0834,83.367427 h 13.30737 l 6.65256,11.52258 -6.65353,11.524243 h -13.30686 l -6.65347,-11.524133 z"
       id="path81" />
    <path
       style="vector-effect:non-scaling-stroke;fill:none;stroke:#2625db;stroke-width:0.264583;stroke-linecap:butt;stroke-linejoin:miter;stroke-dasharray:none;stroke-opacity:1;-inkscape-stroke:hairline"
       d="m 189.73715,83.367427 h 13.30737 l 6.65256,11.52258 -6.65353,11.524243 h -13.30686 l -6.65347,-11.524133 z"
       id="path82" />
    <path
       style="vector-effect:non-scaling-stroke;fill:none;stroke:#2625db;stroke-width:0.264583;stroke-linecap:butt;stroke-linejoin:miter;stroke-dasharray:none;stroke-opacity:1;-inkscape-stroke:hairline"
       d="m 258.39089,83.367427 h 13.30737 l 6.65256,11.52258 -6.65353,11.524243 h -13.30686 l -6.65347,-11.524133 z"
       id="path83" />
    <path
       style="vector-effect:non-scaling-stroke;fill:none;stroke:#2625db;stroke-width:0.264583;stroke-linecap:butt;stroke-linejoin:miter;stroke-dasharray:none;stroke-opacity:1;-inkscape-stroke:hairline"
       d="M 327.04463,83.367427 H 340.352 l 6.65256,11.52258 -6.65353,11.524243 H 327.04417 L 320.3907,94.890117 Z"
       id="path84" />
    <path
       style="vector-effect:non-scaling-stroke;fill:none;stroke:#2625db;stroke-width:0.264583;stroke-linecap:butt;stroke-linejoin:miter;stroke-dasharray:none;stroke-opacity:1;-inkscape-stroke:hairline"
       d="m 395.69837,83.367427 h 13.30737 l 6.65256,11.52258 -6.65353,11.524243 h -13.30686 l -6.65347,-11.524133 z"
       id="path85" />
    <path
       style="vector-effect:non-scaling-stroke;fill:none;stroke:#2625db;stroke-width:0.264583;stroke-linecap:butt;stroke-linejoin:miter;stroke-dasharray:none;stroke-opacity:1;-inkscape-stroke:hairline"
       d="m 464.35211,83.367427 h 13.30737 l 6.65256,11.52258 -6.65353,11.524243 h -13.30686 l -6.65347,-11.524133 z"
       id="path86" />
    <path
       style="vector-effect:non-scaling-stroke;fill:none;stroke:#2625db;stroke-width:0.264583;stroke-linecap:butt;stroke-linejoin:miter;stroke-dasharray:none;stroke-opacity:1;-inkscape-stroke:hairline"
       d="m 533.00585,83.367427 h 13.30737 l 6.65256,11.52258 -6.65353,11.524243 h -13.30686 l -6.65347,-11.524133 z"
       id="path87" />
  </g>
</svg>
