<?xml version="1.0" encoding="UTF-8" standalone="no"?>
<svg
   height="300mm"
   version="1.1"
   viewBox="0 0 1200 300"
   width="1200mm"
   id="svg181"
   sodipodi:docname="tabica_2.6.svg"
   inkscape:version="1.4.2 (1:1.4.2+202505120737+ebf0e940d0)"
   xmlns:inkscape="http://www.inkscape.org/namespaces/inkscape"
   xmlns:sodipodi="http://sodipodi.sourceforge.net/DTD/sodipodi-0.dtd"
   xmlns="http://www.w3.org/2000/svg"
   xmlns:svg="http://www.w3.org/2000/svg">
  <sodipodi:namedview
     id="namedview181"
     pagecolor="#ffffff"
     bordercolor="#666666"
     borderopacity="1.0"
     inkscape:showpageshadow="2"
     inkscape:pageopacity="0.0"
     inkscape:pagecheckerboard="0"
     inkscape:deskcolor="#d1d1d1"
     inkscape:document-units="mm"
     showgrid="false"
     inkscape:zoom="0.36534549"
     inkscape:cx="2267.7165"
     inkscape:cy="566.58699"
     inkscape:window-width="1920"
     inkscape:window-height="1011"
     inkscape:window-x="0"
     inkscape:window-y="0"
     inkscape:window-maximized="1"
     inkscape:current-layer="svg181" />
  <defs
     id="defs1" />
  <g
     fill="none"
     stroke="blue"
     stroke-width="0.5"
     transform="translate(101.16936742016333,65.0)"
     id="g181"
     style="vector-effect:non-scaling-stroke;-inkscape-stroke:hairline;stroke-width:0.26458333;stroke-dasharray:none">
    <path
       d="M 83.13843876330611,135.69504172281358 L 97.52304845413266,144.0 L 68.75382907247956,144.0 L 83.13843876330611,135.69504172281358 Z"
       id="path1"
       style="vector-effect:non-scaling-stroke;-inkscape-stroke:hairline;stroke-width:0.26458333;stroke-dasharray:none" />
    <path
       d="M 100.72304845413264,138.4574374157796 L 89.5384387633061,132.0 L 100.72304845413264,125.5425625842204 L 100.72304845413264,138.4574374157796 Z"
       id="path2"
       style="vector-effect:non-scaling-stroke;-inkscape-stroke:hairline;stroke-width:0.26458333;stroke-dasharray:none" />
    <path
       d="M 68.33063257983667,136.85424916332028 L 68.33063257983667,127.14575083667971 L 76.73843876330612,132.0 L 68.33063257983667,136.85424916332028 Z"
       id="path3"
       style="vector-effect:non-scaling-stroke;-inkscape-stroke:hairline;stroke-width:0.26458333;stroke-dasharray:none" />
    <path
       d="M 100.72304845413262,118.15247913859322 L 83.1384387633061,128.30495827718642 L 68.33063257983667,119.75566739105251 L 68.33063257983667,96.24433260894749 L 83.13843876330611,87.6950417228136 L 100.72304845413264,97.84752086140679 L 100.72304845413262,118.15247913859322 Z"
       id="path4"
       style="vector-effect:non-scaling-stroke;-inkscape-stroke:hairline;stroke-width:0.26458333;stroke-dasharray:none" />
    <path
       d="M 100.72304845413264,90.4574374157796 L 89.5384387633061,84.0 L 100.72304845413264,77.54256258422042 L 100.72304845413264,90.4574374157796 Z"
       id="path5"
       style="vector-effect:non-scaling-stroke;-inkscape-stroke:hairline;stroke-width:0.26458333;stroke-dasharray:none" />
    <path
       d="M 68.33063257983667,88.85424916332028 L 68.33063257983667,79.14575083667972 L 76.7384387633061,84.0 L 68.33063257983667,88.85424916332028 Z"
       id="path6"
       style="vector-effect:non-scaling-stroke;-inkscape-stroke:hairline;stroke-width:0.26458333;stroke-dasharray:none" />
    <path
       d="M 100.72304845413262,70.15247913859321 L 83.1384387633061,80.3049582771864 L 68.33063257983667,71.7556673910525 L 68.33063257983667,48.2443326089475 L 83.13843876330611,39.69504172281361 L 100.72304845413264,49.84752086140682 L 100.72304845413262,70.15247913859321 Z"
       id="path7"
       style="vector-effect:non-scaling-stroke;-inkscape-stroke:hairline;stroke-width:0.26458333;stroke-dasharray:none" />
    <path
       d="M 100.72304845413264,42.457437415779594 L 89.53843876330613,36.0 L 100.72304845413264,29.542562584220406 L 100.72304845413264,42.457437415779594 Z"
       id="path8"
       style="vector-effect:non-scaling-stroke;-inkscape-stroke:hairline;stroke-width:0.26458333;stroke-dasharray:none" />
    <path
       d="M 68.33063257983667,40.85424916332025 L 68.33063257983667,31.145750836679753 L 76.73843876330609,36.0 L 68.33063257983667,40.85424916332025 Z"
       id="path9"
       style="vector-effect:non-scaling-stroke;-inkscape-stroke:hairline;stroke-width:0.26458333;stroke-dasharray:none" />
    <path
       d="M 83.1384387633061,32.30495827718639 L 68.75382907247962,24.0 L 97.52304845413263,24.0 L 83.1384387633061,32.30495827718639 Z"
       id="path10"
       style="vector-effect:non-scaling-stroke;-inkscape-stroke:hairline;stroke-width:0.26458333;stroke-dasharray:none" />
    <path
       d="M 142.2922678357857,142.1524791385932 L 139.0922678357857,144.0 L 110.32304845413266,144.0 L 107.12304845413264,142.1524791385932 L 107.12304845413264,121.84752086140679 L 124.70765814495917,111.6950417228136 L 142.2922678357857,121.8475208614068 L 142.2922678357857,142.1524791385932 Z"
       id="path11"
       style="vector-effect:non-scaling-stroke;-inkscape-stroke:hairline;stroke-width:0.26458333;stroke-dasharray:none" />
    <path
       d="M 142.2922678357857,114.45743741577961 L 131.10765814495917,108.0 L 142.2922678357857,101.54256258422039 L 142.2922678357857,114.45743741577961 Z"
       id="path12"
       style="vector-effect:non-scaling-stroke;-inkscape-stroke:hairline;stroke-width:0.26458333;stroke-dasharray:none" />
    <path
       d="M 118.30765814495918,108.0 L 107.12304845413263,114.4574374157796 L 107.12304845413264,101.5425625842204 L 118.30765814495918,108.0 Z"
       id="path13"
       style="vector-effect:non-scaling-stroke;-inkscape-stroke:hairline;stroke-width:0.26458333;stroke-dasharray:none" />
    <path
       d="M 142.2922678357857,73.84752086140682 L 142.2922678357857,94.15247913859321 L 124.70765814495915,104.3049582771864 L 107.12304845413264,94.15247913859321 L 107.12304845413264,73.84752086140682 L 124.70765814495917,63.69504172281361 L 142.2922678357857,73.84752086140682 Z"
       id="path14"
       style="vector-effect:non-scaling-stroke;-inkscape-stroke:hairline;stroke-width:0.26458333;stroke-dasharray:none" />
    <path
       d="M 142.2922678357857,66.4574374157796 L 131.10765814495917,60.0 L 142.2922678357857,53.542562584220406 L 142.2922678357857,66.4574374157796 Z"
       id="path15"
       style="vector-effect:non-scaling-stroke;-inkscape-stroke:hairline;stroke-width:0.26458333;stroke-dasharray:none" />
    <path
       d="M 118.30765814495915,60.0 L 107.12304845413263,66.4574374157796 L 107.12304845413264,53.542562584220406 L 118.30765814495915,60.0 Z"
       id="path16"
       style="vector-effect:non-scaling-stroke;-inkscape-stroke:hairline;stroke-width:0.26458333;stroke-dasharray:none" />
    <path
       d="M 142.2922678357857,46.15247913859321 L 124.70765814495915,56.30495827718639 L 107.12304845413264,46.15247913859318 L 107.12304845413264,25.84752086140682 L 110.32304845413267,24.0 L 139.0922678357857,24.0 L 142.2922678357857,25.84752086140682 L 142.2922678357857,46.15247913859321 Z"
       id="path17"
       style="vector-effect:non-scaling-stroke;-inkscape-stroke:hairline;stroke-width:0.26458333;stroke-dasharray:none" />
    <path
       d="M 166.27687752661222,135.69504172281358 L 180.66148721743878,144.0 L 151.89226783578567,144.0 L 166.27687752661222,135.69504172281358 Z"
       id="path18"
       style="vector-effect:non-scaling-stroke;-inkscape-stroke:hairline;stroke-width:0.26458333;stroke-dasharray:none" />
    <path
       d="M 183.86148721743876,138.45743741577962 L 172.67687752661223,132.0 L 183.86148721743876,125.54256258422039 L 183.86148721743876,138.45743741577962 Z"
       id="path19"
       style="vector-effect:non-scaling-stroke;-inkscape-stroke:hairline;stroke-width:0.26458333;stroke-dasharray:none" />
    <path
       d="M 159.87687752661222,132.0 L 148.69226783578569,138.45743741577962 L 148.69226783578569,125.54256258422039 L 159.87687752661222,132.0 Z"
       id="path20"
       style="vector-effect:non-scaling-stroke;-inkscape-stroke:hairline;stroke-width:0.26458333;stroke-dasharray:none" />
    <path
       d="M 183.86148721743876,97.8475208614068 L 183.86148721743876,118.15247913859321 L 166.27687752661222,128.30495827718642 L 148.69226783578569,118.1524791385932 L 148.69226783578569,97.8475208614068 L 166.27687752661222,87.6950417228136 L 183.86148721743876,97.8475208614068 Z"
       id="path21"
       style="vector-effect:non-scaling-stroke;-inkscape-stroke:hairline;stroke-width:0.26458333;stroke-dasharray:none" />
    <path
       d="M 183.86148721743876,90.45743741577961 L 172.67687752661223,84.0 L 183.86148721743876,77.5425625842204 L 183.86148721743876,90.45743741577961 Z"
       id="path22"
       style="vector-effect:non-scaling-stroke;-inkscape-stroke:hairline;stroke-width:0.26458333;stroke-dasharray:none" />
    <path
       d="M 159.87687752661222,84.0 L 148.69226783578569,90.45743741577961 L 148.69226783578569,77.5425625842204 L 159.87687752661222,84.0 Z"
       id="path23"
       style="vector-effect:non-scaling-stroke;-inkscape-stroke:hairline;stroke-width:0.26458333;stroke-dasharray:none" />
    <path
       d="M 183.86148721743876,49.84752086140682 L 183.86148721743876,70.15247913859321 L 166.27687752661222,80.3049582771864 L 148.69226783578569,70.15247913859318 L 148.69226783578569,49.84752086140682 L 166.27687752661222,39.69504172281361 L 183.86148721743876,49.84752086140682 Z"
       id="path24"
       style="vector-effect:non-scaling-stroke;-inkscape-stroke:hairline;stroke-width:0.26458333;stroke-dasharray:none" />
    <path
       d="M 183.86148721743876,42.457437415779594 L 172.67687752661223,36.0 L 183.86148721743876,29.542562584220406 L 183.86148721743876,42.457437415779594 Z"
       id="path25"
       style="vector-effect:non-scaling-stroke;-inkscape-stroke:hairline;stroke-width:0.26458333;stroke-dasharray:none" />
    <path
       d="M 159.87687752661222,36.0 L 148.69226783578569,42.457437415779594 L 148.69226783578569,29.542562584220406 L 159.87687752661222,36.0 Z"
       id="path26"
       style="vector-effect:non-scaling-stroke;-inkscape-stroke:hairline;stroke-width:0.26458333;stroke-dasharray:none" />
    <path
       d="M 166.27687752661222,32.30495827718639 L 151.8922678357857,24.0 L 180.66148721743878,24.0 L 166.27687752661222,32.30495827718639 Z"
       id="path27"
       style="vector-effect:non-scaling-stroke;-inkscape-stroke:hairline;stroke-width:0.26458333;stroke-dasharray:none" />
    <path
       d="M 225.43070659909182,142.1524791385932 L 222.2307065990918,144.0 L 193.46148721743876,144.0 L 190.26148721743874,142.1524791385932 L 190.26148721743874,121.8475208614068 L 207.84609690826528,111.6950417228136 L 225.43070659909182,121.8475208614068 L 225.43070659909182,142.1524791385932 Z"
       id="path28"
       style="vector-effect:non-scaling-stroke;-inkscape-stroke:hairline;stroke-width:0.26458333;stroke-dasharray:none" />
    <path
       d="M 225.43070659909182,114.45743741577961 L 214.2460969082653,108.0 L 225.43070659909182,101.54256258422039 L 225.43070659909182,114.45743741577961 Z"
       id="path29"
       style="vector-effect:non-scaling-stroke;-inkscape-stroke:hairline;stroke-width:0.26458333;stroke-dasharray:none" />
    <path
       d="M 201.44609690826528,108.0 L 190.26148721743874,114.45743741577961 L 190.26148721743874,101.54256258422039 L 201.44609690826528,108.0 Z"
       id="path30"
       style="vector-effect:non-scaling-stroke;-inkscape-stroke:hairline;stroke-width:0.26458333;stroke-dasharray:none" />
    <path
       d="M 225.43070659909182,73.84752086140682 L 225.43070659909182,94.15247913859321 L 207.84609690826528,104.3049582771864 L 190.26148721743874,94.1524791385932 L 190.26148721743874,73.84752086140682 L 207.84609690826528,63.69504172281361 L 225.43070659909182,73.84752086140682 Z"
       id="path31"
       style="vector-effect:non-scaling-stroke;-inkscape-stroke:hairline;stroke-width:0.26458333;stroke-dasharray:none" />
    <path
       d="M 225.43070659909182,66.4574374157796 L 214.2460969082653,60.0 L 225.43070659909182,53.542562584220406 L 225.43070659909182,66.4574374157796 Z"
       id="path32"
       style="vector-effect:non-scaling-stroke;-inkscape-stroke:hairline;stroke-width:0.26458333;stroke-dasharray:none" />
    <path
       d="M 201.44609690826528,60.0 L 190.26148721743874,66.4574374157796 L 190.26148721743874,53.542562584220406 L 201.44609690826528,60.0 Z"
       id="path33"
       style="vector-effect:non-scaling-stroke;-inkscape-stroke:hairline;stroke-width:0.26458333;stroke-dasharray:none" />
    <path
       d="M 225.43070659909182,46.15247913859321 L 207.84609690826528,56.30495827718639 L 190.26148721743874,46.15247913859318 L 190.26148721743874,25.84752086140682 L 193.46148721743876,24.0 L 222.2307065990918,24.0 L 225.43070659909182,25.84752086140682 L 225.43070659909182,46.15247913859321 Z"
       id="path34"
       style="vector-effect:non-scaling-stroke;-inkscape-stroke:hairline;stroke-width:0.26458333;stroke-dasharray:none" />
    <path
       d="M 249.41531628991834,135.69504172281358 L 263.7999259807449,144.0 L 235.0307065990918,144.0 L 249.41531628991834,135.69504172281358 Z"
       id="path35"
       style="vector-effect:non-scaling-stroke;-inkscape-stroke:hairline;stroke-width:0.26458333;stroke-dasharray:none" />
    <path
       d="M 266.9999259807449,138.4574374157796 L 255.81531628991834,132.0 L 266.9999259807449,125.5425625842204 L 266.9999259807449,138.4574374157796 Z"
       id="path36"
       style="vector-effect:non-scaling-stroke;-inkscape-stroke:hairline;stroke-width:0.26458333;stroke-dasharray:none" />
    <path
       d="M 243.01531628991833,132.0 L 231.8307065990918,138.45743741577962 L 231.8307065990918,125.54256258422039 L 243.01531628991833,132.0 Z"
       id="path37"
       style="vector-effect:non-scaling-stroke;-inkscape-stroke:hairline;stroke-width:0.26458333;stroke-dasharray:none" />
    <path
       d="M 266.9999259807449,97.84752086140682 L 266.9999259807449,118.1524791385932 L 249.41531628991834,128.30495827718642 L 231.8307065990918,118.1524791385932 L 231.8307065990918,97.8475208614068 L 249.41531628991834,87.6950417228136 L 266.9999259807449,97.84752086140682 Z"
       id="path38"
       style="vector-effect:non-scaling-stroke;-inkscape-stroke:hairline;stroke-width:0.26458333;stroke-dasharray:none" />
    <path
       d="M 266.9999259807449,90.4574374157796 L 255.81531628991834,84.0 L 266.9999259807449,77.54256258422042 L 266.9999259807449,90.4574374157796 Z"
       id="path39"
       style="vector-effect:non-scaling-stroke;-inkscape-stroke:hairline;stroke-width:0.26458333;stroke-dasharray:none" />
    <path
       d="M 243.01531628991833,84.0 L 231.8307065990918,90.45743741577961 L 231.8307065990918,77.5425625842204 L 243.01531628991833,84.0 Z"
       id="path40"
       style="vector-effect:non-scaling-stroke;-inkscape-stroke:hairline;stroke-width:0.26458333;stroke-dasharray:none" />
    <path
       d="M 266.9999259807449,49.84752086140682 L 266.9999259807449,70.15247913859318 L 249.41531628991834,80.3049582771864 L 231.8307065990918,70.15247913859318 L 231.8307065990918,49.84752086140682 L 249.41531628991834,39.69504172281361 L 266.9999259807449,49.84752086140682 Z"
       id="path41"
       style="vector-effect:non-scaling-stroke;-inkscape-stroke:hairline;stroke-width:0.26458333;stroke-dasharray:none" />
    <path
       d="M 266.9999259807449,42.457437415779566 L 255.81531628991837,36.0 L 266.9999259807449,29.542562584220434 L 266.9999259807449,42.457437415779566 Z"
       id="path42"
       style="vector-effect:non-scaling-stroke;-inkscape-stroke:hairline;stroke-width:0.26458333;stroke-dasharray:none" />
    <path
       d="M 243.01531628991833,36.0 L 231.8307065990918,42.457437415779594 L 231.8307065990918,29.542562584220406 L 243.01531628991833,36.0 Z"
       id="path43"
       style="vector-effect:non-scaling-stroke;-inkscape-stroke:hairline;stroke-width:0.26458333;stroke-dasharray:none" />
    <path
       d="M 249.41531628991834,32.30495827718639 L 235.03070659909181,24.0 L 263.79992598074483,24.0 L 249.41531628991834,32.30495827718639 Z"
       id="path44"
       style="vector-effect:non-scaling-stroke;-inkscape-stroke:hairline;stroke-width:0.26458333;stroke-dasharray:none" />
    <path
       d="M 308.56914536239793,142.1524791385932 L 305.3691453623979,144.0 L 276.5999259807449,144.0 L 273.39992598074485,142.15247913859318 L 273.39992598074485,121.84752086140682 L 290.9845356715714,111.69504172281361 L 308.56914536239793,121.84752086140682 L 308.56914536239793,142.1524791385932 Z"
       id="path45"
       style="vector-effect:non-scaling-stroke;-inkscape-stroke:hairline;stroke-width:0.26458333;stroke-dasharray:none" />
    <path
       d="M 308.56914536239793,114.45743741577958 L 297.3845356715714,108.0 L 308.56914536239793,101.54256258422042 L 308.56914536239793,114.45743741577958 Z"
       id="path46"
       style="vector-effect:non-scaling-stroke;-inkscape-stroke:hairline;stroke-width:0.26458333;stroke-dasharray:none" />
    <path
       d="M 284.58453567157136,108.0 L 273.39992598074485,114.45743741577958 L 273.39992598074485,101.54256258422042 L 284.58453567157136,108.0 Z"
       id="path47"
       style="vector-effect:non-scaling-stroke;-inkscape-stroke:hairline;stroke-width:0.26458333;stroke-dasharray:none" />
    <path
       d="M 308.56914536239793,73.84752086140685 L 308.56914536239793,94.1524791385932 L 290.9845356715714,104.30495827718639 L 273.39992598074485,94.15247913859318 L 273.39992598074485,73.84752086140685 L 290.9845356715714,63.69504172281364 L 308.56914536239793,73.84752086140685 Z"
       id="path48"
       style="vector-effect:non-scaling-stroke;-inkscape-stroke:hairline;stroke-width:0.26458333;stroke-dasharray:none" />
    <path
       d="M 308.56914536239793,66.45743741577957 L 297.3845356715714,60.0 L 308.56914536239793,53.542562584220434 L 308.56914536239793,66.45743741577957 Z"
       id="path49"
       style="vector-effect:non-scaling-stroke;-inkscape-stroke:hairline;stroke-width:0.26458333;stroke-dasharray:none" />
    <path
       d="M 284.58453567157136,60.0 L 273.39992598074485,66.45743741577957 L 273.39992598074485,53.542562584220434 L 284.58453567157136,60.0 Z"
       id="path50"
       style="vector-effect:non-scaling-stroke;-inkscape-stroke:hairline;stroke-width:0.26458333;stroke-dasharray:none" />
    <path
       d="M 308.56914536239793,46.15247913859318 L 290.9845356715714,56.30495827718636 L 273.39992598074485,46.15247913859315 L 273.39992598074485,25.84752086140685 L 276.59992598074496,24.0 L 305.36914536239783,24.0 L 308.56914536239793,25.84752086140685 L 308.56914536239793,46.15247913859318 Z"
       id="path51"
       style="vector-effect:non-scaling-stroke;-inkscape-stroke:hairline;stroke-width:0.26458333;stroke-dasharray:none" />
    <path
       d="M 332.55375505322445,135.6950417228136 L 346.938364744051,144.0 L 318.1691453623979,144.0 L 332.55375505322445,135.6950417228136 Z"
       id="path52"
       style="vector-effect:non-scaling-stroke;-inkscape-stroke:hairline;stroke-width:0.26458333;stroke-dasharray:none" />
    <path
       d="M 350.138364744051,138.45743741577957 L 338.9537550532245,132.0 L 350.138364744051,125.54256258422042 L 350.138364744051,138.45743741577957 Z"
       id="path53"
       style="vector-effect:non-scaling-stroke;-inkscape-stroke:hairline;stroke-width:0.26458333;stroke-dasharray:none" />
    <path
       d="M 326.1537550532244,132.0 L 314.9691453623979,138.45743741577957 L 314.9691453623979,125.54256258422042 L 326.1537550532244,132.0 Z"
       id="path54"
       style="vector-effect:non-scaling-stroke;-inkscape-stroke:hairline;stroke-width:0.26458333;stroke-dasharray:none" />
    <path
       d="M 350.138364744051,97.84752086140682 L 350.138364744051,118.1524791385932 L 332.55375505322445,128.3049582771864 L 314.9691453623979,118.15247913859318 L 314.9691453623979,97.84752086140682 L 332.55375505322445,87.69504172281361 L 350.138364744051,97.84752086140682 Z"
       id="path55"
       style="vector-effect:non-scaling-stroke;-inkscape-stroke:hairline;stroke-width:0.26458333;stroke-dasharray:none" />
    <path
       d="M 350.138364744051,90.45743741577958 L 338.9537550532245,84.0 L 350.138364744051,77.54256258422042 L 350.138364744051,90.45743741577958 Z"
       id="path56"
       style="vector-effect:non-scaling-stroke;-inkscape-stroke:hairline;stroke-width:0.26458333;stroke-dasharray:none" />
    <path
       d="M 326.1537550532244,84.0 L 314.9691453623979,90.45743741577958 L 314.9691453623979,77.54256258422042 L 326.1537550532244,84.0 Z"
       id="path57"
       style="vector-effect:non-scaling-stroke;-inkscape-stroke:hairline;stroke-width:0.26458333;stroke-dasharray:none" />
    <path
       d="M 350.138364744051,49.84752086140685 L 350.138364744051,70.15247913859318 L 332.55375505322445,80.30495827718639 L 314.9691453623979,70.15247913859318 L 314.9691453623979,49.84752086140685 L 332.55375505322445,39.69504172281364 L 350.138364744051,49.84752086140685 Z"
       id="path58"
       style="vector-effect:non-scaling-stroke;-inkscape-stroke:hairline;stroke-width:0.26458333;stroke-dasharray:none" />
    <path
       d="M 350.138364744051,42.457437415779566 L 338.9537550532245,36.0 L 350.138364744051,29.542562584220434 L 350.138364744051,42.457437415779566 Z"
       id="path59"
       style="vector-effect:non-scaling-stroke;-inkscape-stroke:hairline;stroke-width:0.26458333;stroke-dasharray:none" />
    <path
       d="M 326.1537550532244,36.0 L 314.9691453623979,42.457437415779566 L 314.9691453623979,29.542562584220434 L 326.1537550532244,36.0 Z"
       id="path60"
       style="vector-effect:non-scaling-stroke;-inkscape-stroke:hairline;stroke-width:0.26458333;stroke-dasharray:none" />
    <path
       d="M 332.55375505322445,32.30495827718636 L 318.169145362398,24.0 L 346.93836474405094,24.0 L 332.55375505322445,32.30495827718636 Z"
       id="path61"
       style="vector-effect:non-scaling-stroke;-inkscape-stroke:hairline;stroke-width:0.26458333;stroke-dasharray:none" />
    <path
       d="M 391.70758412570405,142.1524791385932 L 388.507584125704,144.0 L 359.738364744051,144.0 L 356.53836474405097,142.15247913859318 L 356.53836474405097,121.84752086140682 L 374.1229744348775,111.69504172281361 L 391.70758412570405,121.84752086140682 L 391.70758412570405,142.1524791385932 Z"
       id="path62"
       style="vector-effect:non-scaling-stroke;-inkscape-stroke:hairline;stroke-width:0.26458333;stroke-dasharray:none" />
    <path
       d="M 391.70758412570405,114.45743741577958 L 380.52297443487754,108.0 L 391.70758412570405,101.54256258422042 L 391.70758412570405,114.45743741577958 Z"
       id="path63"
       style="vector-effect:non-scaling-stroke;-inkscape-stroke:hairline;stroke-width:0.26458333;stroke-dasharray:none" />
    <path
       d="M 367.7229744348775,108.0 L 356.53836474405097,114.45743741577958 L 356.53836474405097,101.54256258422042 L 367.7229744348775,108.0 Z"
       id="path64"
       style="vector-effect:non-scaling-stroke;-inkscape-stroke:hairline;stroke-width:0.26458333;stroke-dasharray:none" />
    <path
       d="M 391.70758412570405,73.84752086140685 L 391.70758412570405,94.1524791385932 L 374.1229744348775,104.30495827718639 L 356.53836474405097,94.15247913859318 L 356.53836474405097,73.84752086140685 L 374.1229744348775,63.69504172281364 L 391.70758412570405,73.84752086140685 Z"
       id="path65"
       style="vector-effect:non-scaling-stroke;-inkscape-stroke:hairline;stroke-width:0.26458333;stroke-dasharray:none" />
    <path
       d="M 391.70758412570405,66.45743741577957 L 380.52297443487754,60.0 L 391.70758412570405,53.542562584220434 L 391.70758412570405,66.45743741577957 Z"
       id="path66"
       style="vector-effect:non-scaling-stroke;-inkscape-stroke:hairline;stroke-width:0.26458333;stroke-dasharray:none" />
    <path
       d="M 367.7229744348775,60.0 L 356.53836474405097,66.45743741577957 L 356.53836474405097,53.542562584220434 L 367.7229744348775,60.0 Z"
       id="path67"
       style="vector-effect:non-scaling-stroke;-inkscape-stroke:hairline;stroke-width:0.26458333;stroke-dasharray:none" />
    <path
       d="M 391.70758412570405,46.15247913859318 L 374.1229744348775,56.30495827718636 L 356.53836474405097,46.15247913859315 L 356.53836474405097,25.84752086140685 L 359.73836474405107,24.0 L 388.50758412570394,24.0 L 391.70758412570405,25.84752086140685 L 391.70758412570405,46.15247913859318 Z"
       id="path68"
       style="vector-effect:non-scaling-stroke;-inkscape-stroke:hairline;stroke-width:0.26458333;stroke-dasharray:none" />
    <path
       d="M 415.69219381653056,135.6950417228136 L 430.0768035073571,144.0 L 401.307584125704,144.0 L 415.69219381653056,135.6950417228136 Z"
       id="path69"
       style="vector-effect:non-scaling-stroke;-inkscape-stroke:hairline;stroke-width:0.26458333;stroke-dasharray:none" />
    <path
       d="M 433.2768035073571,138.45743741577957 L 422.0921938165306,132.0 L 433.2768035073571,125.54256258422042 L 433.2768035073571,138.45743741577957 Z"
       id="path70"
       style="vector-effect:non-scaling-stroke;-inkscape-stroke:hairline;stroke-width:0.26458333;stroke-dasharray:none" />
    <path
       d="M 409.2921938165305,132.0 L 398.107584125704,138.45743741577957 L 398.107584125704,125.54256258422042 L 409.2921938165305,132.0 Z"
       id="path71"
       style="vector-effect:non-scaling-stroke;-inkscape-stroke:hairline;stroke-width:0.26458333;stroke-dasharray:none" />
    <path
       d="M 433.2768035073571,97.84752086140682 L 433.2768035073571,118.1524791385932 L 415.69219381653056,128.3049582771864 L 398.107584125704,118.15247913859318 L 398.107584125704,97.84752086140682 L 415.69219381653056,87.69504172281361 L 433.2768035073571,97.84752086140682 Z"
       id="path72"
       style="vector-effect:non-scaling-stroke;-inkscape-stroke:hairline;stroke-width:0.26458333;stroke-dasharray:none" />
    <path
       d="M 433.2768035073571,90.45743741577958 L 422.0921938165306,84.0 L 433.2768035073571,77.54256258422042 L 433.2768035073571,90.45743741577958 Z"
       id="path73"
       style="vector-effect:non-scaling-stroke;-inkscape-stroke:hairline;stroke-width:0.26458333;stroke-dasharray:none" />
    <path
       d="M 409.2921938165305,84.0 L 398.107584125704,90.45743741577958 L 398.107584125704,77.54256258422042 L 409.2921938165305,84.0 Z"
       id="path74"
       style="vector-effect:non-scaling-stroke;-inkscape-stroke:hairline;stroke-width:0.26458333;stroke-dasharray:none" />
    <path
       d="M 433.2768035073571,49.84752086140685 L 433.2768035073571,70.15247913859318 L 415.69219381653056,80.30495827718639 L 398.107584125704,70.15247913859318 L 398.107584125704,49.84752086140685 L 415.69219381653056,39.69504172281364 L 433.2768035073571,49.84752086140685 Z"
       id="path75"
       style="vector-effect:non-scaling-stroke;-inkscape-stroke:hairline;stroke-width:0.26458333;stroke-dasharray:none" />
    <path
       d="M 433.2768035073571,42.457437415779566 L 422.0921938165306,36.0 L 433.2768035073571,29.542562584220434 L 433.2768035073571,42.457437415779566 Z"
       id="path76"
       style="vector-effect:non-scaling-stroke;-inkscape-stroke:hairline;stroke-width:0.26458333;stroke-dasharray:none" />
    <path
       d="M 409.2921938165305,36.0 L 398.107584125704,42.457437415779566 L 398.107584125704,29.542562584220434 L 409.2921938165305,36.0 Z"
       id="path77"
       style="vector-effect:non-scaling-stroke;-inkscape-stroke:hairline;stroke-width:0.26458333;stroke-dasharray:none" />
    <path
       d="M 415.69219381653056,32.30495827718636 L 401.3075841257041,24.0 L 430.07680350735706,24.0 L 415.69219381653056,32.30495827718636 Z"
       id="path78"
       style="vector-effect:non-scaling-stroke;-inkscape-stroke:hairline;stroke-width:0.26458333;stroke-dasharray:none" />
    <path
       d="M 474.84602288901016,142.1524791385932 L 471.6460228890101,144.0 L 442.8768035073571,144.0 L 439.6768035073571,142.15247913859318 L 439.6768035073571,121.84752086140682 L 457.2614131981836,111.69504172281361 L 474.84602288901016,121.84752086140682 L 474.84602288901016,142.1524791385932 Z"
       id="path79"
       style="vector-effect:non-scaling-stroke;-inkscape-stroke:hairline;stroke-width:0.26458333;stroke-dasharray:none" />
    <path
       d="M 474.84602288901016,114.45743741577958 L 463.66141319818365,108.0 L 474.84602288901016,101.54256258422042 L 474.84602288901016,114.45743741577958 Z"
       id="path80"
       style="vector-effect:non-scaling-stroke;-inkscape-stroke:hairline;stroke-width:0.26458333;stroke-dasharray:none" />
    <path
       d="M 450.8614131981836,108.0 L 439.6768035073571,114.45743741577958 L 439.6768035073571,101.54256258422042 L 450.8614131981836,108.0 Z"
       id="path81"
       style="vector-effect:non-scaling-stroke;-inkscape-stroke:hairline;stroke-width:0.26458333;stroke-dasharray:none" />
    <path
       d="M 474.84602288901016,73.84752086140685 L 474.84602288901016,94.1524791385932 L 457.2614131981836,104.30495827718639 L 439.6768035073571,94.15247913859318 L 439.6768035073571,73.84752086140685 L 457.2614131981836,63.69504172281364 L 474.84602288901016,73.84752086140685 Z"
       id="path82"
       style="vector-effect:non-scaling-stroke;-inkscape-stroke:hairline;stroke-width:0.26458333;stroke-dasharray:none" />
    <path
       d="M 474.84602288901016,66.45743741577957 L 463.66141319818365,60.0 L 474.84602288901016,53.542562584220434 L 474.84602288901016,66.45743741577957 Z"
       id="path83"
       style="vector-effect:non-scaling-stroke;-inkscape-stroke:hairline;stroke-width:0.26458333;stroke-dasharray:none" />
    <path
       d="M 450.8614131981836,60.0 L 439.6768035073571,66.45743741577957 L 439.6768035073571,53.542562584220434 L 450.8614131981836,60.0 Z"
       id="path84"
       style="vector-effect:non-scaling-stroke;-inkscape-stroke:hairline;stroke-width:0.26458333;stroke-dasharray:none" />
    <path
       d="M 474.84602288901016,46.15247913859318 L 457.2614131981836,56.30495827718636 L 439.6768035073571,46.15247913859315 L 439.6768035073571,25.84752086140685 L 442.8768035073572,24.0 L 471.64602288901006,24.0 L 474.84602288901016,25.84752086140685 L 474.84602288901016,46.15247913859318 Z"
       id="path85"
       style="vector-effect:non-scaling-stroke;-inkscape-stroke:hairline;stroke-width:0.26458333;stroke-dasharray:none" />
    <path
       d="M 498.8306325798367,135.6950417228136 L 513.2152422706632,144.0 L 484.4460228890101,144.0 L 498.8306325798367,135.6950417228136 Z"
       id="path86"
       style="vector-effect:non-scaling-stroke;-inkscape-stroke:hairline;stroke-width:0.26458333;stroke-dasharray:none" />
    <path
       d="M 516.4152422706632,138.45743741577957 L 505.2306325798367,132.0 L 516.4152422706632,125.54256258422045 L 516.4152422706632,138.45743741577957 Z"
       id="path87"
       style="vector-effect:non-scaling-stroke;-inkscape-stroke:hairline;stroke-width:0.26458333;stroke-dasharray:none" />
    <path
       d="M 492.43063257983664,132.0 L 481.24602288901013,138.45743741577957 L 481.24602288901013,125.54256258422042 L 492.43063257983664,132.0 Z"
       id="path88"
       style="vector-effect:non-scaling-stroke;-inkscape-stroke:hairline;stroke-width:0.26458333;stroke-dasharray:none" />
    <path
       d="M 516.4152422706632,97.84752086140679 L 516.4152422706632,118.15247913859322 L 498.8306325798367,128.3049582771864 L 481.24602288901013,118.15247913859318 L 481.24602288901013,97.84752086140682 L 498.8306325798367,87.69504172281361 L 516.4152422706632,97.84752086140679 Z"
       id="path89"
       style="vector-effect:non-scaling-stroke;-inkscape-stroke:hairline;stroke-width:0.26458333;stroke-dasharray:none" />
    <path
       d="M 516.4152422706632,90.45743741577955 L 505.2306325798367,84.0 L 516.4152422706632,77.54256258422046 L 516.4152422706632,90.45743741577955 Z"
       id="path90"
       style="vector-effect:non-scaling-stroke;-inkscape-stroke:hairline;stroke-width:0.26458333;stroke-dasharray:none" />
    <path
       d="M 492.43063257983664,84.0 L 481.24602288901013,90.45743741577958 L 481.24602288901013,77.54256258422042 L 492.43063257983664,84.0 Z"
       id="path91"
       style="vector-effect:non-scaling-stroke;-inkscape-stroke:hairline;stroke-width:0.26458333;stroke-dasharray:none" />
    <path
       d="M 516.4152422706632,49.84752086140679 L 516.4152422706632,70.15247913859324 L 498.8306325798367,80.30495827718639 L 481.24602288901013,70.15247913859318 L 481.24602288901013,49.84752086140685 L 498.8306325798367,39.69504172281364 L 516.4152422706632,49.84752086140679 Z"
       id="path92"
       style="vector-effect:non-scaling-stroke;-inkscape-stroke:hairline;stroke-width:0.26458333;stroke-dasharray:none" />
    <path
       d="M 516.4152422706632,42.45743741577954 L 505.2306325798367,36.0 L 516.4152422706632,29.542562584220462 L 516.4152422706632,42.45743741577954 Z"
       id="path93"
       style="vector-effect:non-scaling-stroke;-inkscape-stroke:hairline;stroke-width:0.26458333;stroke-dasharray:none" />
    <path
       d="M 492.43063257983664,36.0 L 481.24602288901013,42.457437415779566 L 481.24602288901013,29.542562584220434 L 492.43063257983664,36.0 Z"
       id="path94"
       style="vector-effect:non-scaling-stroke;-inkscape-stroke:hairline;stroke-width:0.26458333;stroke-dasharray:none" />
    <path
       d="M 498.8306325798367,32.30495827718636 L 484.44602288901024,24.0 L 513.2152422706632,24.0 L 498.8306325798367,32.30495827718636 Z"
       id="path95"
       style="vector-effect:non-scaling-stroke;-inkscape-stroke:hairline;stroke-width:0.26458333;stroke-dasharray:none" />
    <path
       d="M 557.9844616523162,142.1524791385932 L 554.7844616523163,144.0 L 526.0152422706633,144.0 L 522.8152422706632,142.1524791385932 L 522.8152422706632,121.84752086140679 L 540.3998519614897,111.69504172281361 L 557.9844616523162,121.84752086140679 L 557.9844616523162,142.1524791385932 Z"
       id="path96"
       style="vector-effect:non-scaling-stroke;-inkscape-stroke:hairline;stroke-width:0.26458333;stroke-dasharray:none" />
    <path
       d="M 557.9844616523162,114.45743741577955 L 546.7998519614897,108.0 L 557.9844616523162,101.54256258422045 L 557.9844616523162,114.45743741577955 Z"
       id="path97"
       style="vector-effect:non-scaling-stroke;-inkscape-stroke:hairline;stroke-width:0.26458333;stroke-dasharray:none" />
    <path
       d="M 533.9998519614898,108.0 L 522.8152422706632,114.45743741577955 L 522.8152422706632,101.54256258422045 L 533.9998519614898,108.0 Z"
       id="path98"
       style="vector-effect:non-scaling-stroke;-inkscape-stroke:hairline;stroke-width:0.26458333;stroke-dasharray:none" />
    <path
       d="M 557.9844616523162,73.84752086140679 L 557.9844616523162,94.15247913859322 L 540.3998519614897,104.30495827718639 L 522.8152422706632,94.15247913859321 L 522.8152422706632,73.84752086140679 L 540.3998519614897,63.69504172281364 L 557.9844616523162,73.84752086140679 Z"
       id="path99"
       style="vector-effect:non-scaling-stroke;-inkscape-stroke:hairline;stroke-width:0.26458333;stroke-dasharray:none" />
    <path
       d="M 557.9844616523162,66.45743741577954 L 546.7998519614898,60.0 L 557.9844616523162,53.54256258422046 L 557.9844616523162,66.45743741577954 Z"
       id="path100"
       style="vector-effect:non-scaling-stroke;-inkscape-stroke:hairline;stroke-width:0.26458333;stroke-dasharray:none" />
    <path
       d="M 533.9998519614896,60.0 L 522.8152422706632,66.45743741577954 L 522.8152422706632,53.54256258422046 L 533.9998519614896,60.0 Z"
       id="path101"
       style="vector-effect:non-scaling-stroke;-inkscape-stroke:hairline;stroke-width:0.26458333;stroke-dasharray:none" />
    <path
       d="M 557.9844616523162,46.152479138593236 L 540.3998519614897,56.30495827718636 L 522.8152422706632,46.15247913859321 L 522.8152422706632,25.847520861406792 L 526.0152422706633,24.0 L 554.7844616523162,24.0 L 557.9844616523162,25.847520861406792 L 557.9844616523162,46.152479138593236 Z"
       id="path102"
       style="vector-effect:non-scaling-stroke;-inkscape-stroke:hairline;stroke-width:0.26458333;stroke-dasharray:none" />
    <path
       d="M 581.9690713431428,135.6950417228136 L 596.3536810339693,144.0 L 567.5844616523162,144.0 L 581.9690713431428,135.6950417228136 Z"
       id="path103"
       style="vector-effect:non-scaling-stroke;-inkscape-stroke:hairline;stroke-width:0.26458333;stroke-dasharray:none" />
    <path
       d="M 599.5536810339693,138.45743741577957 L 588.3690713431428,132.0 L 599.5536810339693,125.54256258422045 L 599.5536810339693,138.45743741577957 Z"
       id="path104"
       style="vector-effect:non-scaling-stroke;-inkscape-stroke:hairline;stroke-width:0.26458333;stroke-dasharray:none" />
    <path
       d="M 575.5690713431428,132.0 L 564.3844616523163,138.45743741577957 L 564.3844616523163,125.54256258422045 L 575.5690713431428,132.0 Z"
       id="path105"
       style="vector-effect:non-scaling-stroke;-inkscape-stroke:hairline;stroke-width:0.26458333;stroke-dasharray:none" />
    <path
       d="M 599.5536810339693,97.84752086140679 L 599.5536810339693,118.15247913859322 L 581.9690713431428,128.3049582771864 L 564.3844616523163,118.15247913859321 L 564.3844616523163,97.84752086140679 L 581.9690713431428,87.69504172281361 L 599.5536810339693,97.84752086140679 Z"
       id="path106"
       style="vector-effect:non-scaling-stroke;-inkscape-stroke:hairline;stroke-width:0.26458333;stroke-dasharray:none" />
    <path
       d="M 599.5536810339693,90.45743741577955 L 588.3690713431428,84.0 L 599.5536810339693,77.54256258422046 L 599.5536810339693,90.45743741577955 Z"
       id="path107"
       style="vector-effect:non-scaling-stroke;-inkscape-stroke:hairline;stroke-width:0.26458333;stroke-dasharray:none" />
    <path
       d="M 575.5690713431428,84.0 L 564.3844616523163,90.45743741577955 L 564.3844616523163,77.54256258422046 L 575.5690713431428,84.0 Z"
       id="path108"
       style="vector-effect:non-scaling-stroke;-inkscape-stroke:hairline;stroke-width:0.26458333;stroke-dasharray:none" />
    <path
       d="M 599.5536810339693,49.84752086140679 L 599.5536810339693,70.15247913859324 L 581.9690713431428,80.30495827718639 L 564.3844616523163,70.15247913859321 L 564.3844616523163,49.84752086140679 L 581.9690713431428,39.69504172281364 L 599.5536810339693,49.84752086140679 Z"
       id="path109"
       style="vector-effect:non-scaling-stroke;-inkscape-stroke:hairline;stroke-width:0.26458333;stroke-dasharray:none" />
    <path
       d="M 599.5536810339693,42.45743741577954 L 588.3690713431429,36.0 L 599.5536810339693,29.542562584220462 L 599.5536810339693,42.45743741577954 Z"
       id="path110"
       style="vector-effect:non-scaling-stroke;-inkscape-stroke:hairline;stroke-width:0.26458333;stroke-dasharray:none" />
    <path
       d="M 575.5690713431427,36.0 L 564.3844616523163,42.45743741577954 L 564.3844616523163,29.542562584220462 L 575.5690713431427,36.0 Z"
       id="path111"
       style="vector-effect:non-scaling-stroke;-inkscape-stroke:hairline;stroke-width:0.26458333;stroke-dasharray:none" />
    <path
       d="M 581.9690713431428,32.30495827718636 L 567.5844616523163,24.0 L 596.3536810339693,24.0 L 581.9690713431428,32.30495827718636 Z"
       id="path112"
       style="vector-effect:non-scaling-stroke;-inkscape-stroke:hairline;stroke-width:0.26458333;stroke-dasharray:none" />
    <path
       d="M 641.1229004156223,142.1524791385932 L 637.9229004156224,144.0 L 609.1536810339694,144.0 L 605.9536810339694,142.1524791385932 L 605.9536810339694,121.84752086140679 L 623.5382907247958,111.69504172281361 L 641.1229004156223,121.84752086140679 L 641.1229004156223,142.1524791385932 Z"
       id="path113"
       style="vector-effect:non-scaling-stroke;-inkscape-stroke:hairline;stroke-width:0.26458333;stroke-dasharray:none" />
    <path
       d="M 641.1229004156223,114.45743741577955 L 629.9382907247958,108.0 L 641.1229004156223,101.54256258422045 L 641.1229004156223,114.45743741577955 Z"
       id="path114"
       style="vector-effect:non-scaling-stroke;-inkscape-stroke:hairline;stroke-width:0.26458333;stroke-dasharray:none" />
    <path
       d="M 617.1382907247959,108.0 L 605.9536810339694,114.45743741577955 L 605.9536810339694,101.54256258422045 L 617.1382907247959,108.0 Z"
       id="path115"
       style="vector-effect:non-scaling-stroke;-inkscape-stroke:hairline;stroke-width:0.26458333;stroke-dasharray:none" />
    <path
       d="M 641.1229004156223,73.84752086140679 L 641.1229004156223,94.15247913859322 L 623.5382907247958,104.30495827718639 L 605.9536810339694,94.15247913859321 L 605.9536810339694,73.84752086140679 L 623.5382907247958,63.69504172281364 L 641.1229004156223,73.84752086140679 Z"
       id="path116"
       style="vector-effect:non-scaling-stroke;-inkscape-stroke:hairline;stroke-width:0.26458333;stroke-dasharray:none" />
    <path
       d="M 641.1229004156223,66.45743741577954 L 629.9382907247959,60.0 L 641.1229004156223,53.54256258422046 L 641.1229004156223,66.45743741577954 Z"
       id="path117"
       style="vector-effect:non-scaling-stroke;-inkscape-stroke:hairline;stroke-width:0.26458333;stroke-dasharray:none" />
    <path
       d="M 617.1382907247958,60.0 L 605.9536810339694,66.45743741577954 L 605.9536810339694,53.54256258422046 L 617.1382907247958,60.0 Z"
       id="path118"
       style="vector-effect:non-scaling-stroke;-inkscape-stroke:hairline;stroke-width:0.26458333;stroke-dasharray:none" />
    <path
       d="M 641.1229004156223,46.152479138593236 L 623.5382907247958,56.30495827718636 L 605.9536810339694,46.15247913859321 L 605.9536810339694,25.847520861406792 L 609.1536810339694,24.0 L 637.9229004156223,24.0 L 641.1229004156223,25.847520861406792 L 641.1229004156223,46.152479138593236 Z"
       id="path119"
       style="vector-effect:non-scaling-stroke;-inkscape-stroke:hairline;stroke-width:0.26458333;stroke-dasharray:none" />
    <path
       d="M 665.1075101064489,135.6950417228136 L 679.4921197972754,144.0 L 650.7229004156223,144.0 L 665.1075101064489,135.6950417228136 Z"
       id="path120"
       style="vector-effect:non-scaling-stroke;-inkscape-stroke:hairline;stroke-width:0.26458333;stroke-dasharray:none" />
    <path
       d="M 682.6921197972754,138.45743741577957 L 671.5075101064489,132.0 L 682.6921197972754,125.54256258422045 L 682.6921197972754,138.45743741577957 Z"
       id="path121"
       style="vector-effect:non-scaling-stroke;-inkscape-stroke:hairline;stroke-width:0.26458333;stroke-dasharray:none" />
    <path
       d="M 658.7075101064489,132.0 L 647.5229004156224,138.45743741577957 L 647.5229004156224,125.54256258422045 L 658.7075101064489,132.0 Z"
       id="path122"
       style="vector-effect:non-scaling-stroke;-inkscape-stroke:hairline;stroke-width:0.26458333;stroke-dasharray:none" />
    <path
       d="M 682.6921197972754,97.84752086140679 L 682.6921197972754,118.15247913859322 L 665.1075101064489,128.3049582771864 L 647.5229004156224,118.15247913859321 L 647.5229004156224,97.84752086140679 L 665.1075101064489,87.69504172281361 L 682.6921197972754,97.84752086140679 Z"
       id="path123"
       style="vector-effect:non-scaling-stroke;-inkscape-stroke:hairline;stroke-width:0.26458333;stroke-dasharray:none" />
    <path
       d="M 682.6921197972754,90.45743741577955 L 671.5075101064489,84.0 L 682.6921197972754,77.54256258422046 L 682.6921197972754,90.45743741577955 Z"
       id="path124"
       style="vector-effect:non-scaling-stroke;-inkscape-stroke:hairline;stroke-width:0.26458333;stroke-dasharray:none" />
    <path
       d="M 658.7075101064489,84.0 L 647.5229004156224,90.45743741577955 L 647.5229004156224,77.54256258422046 L 658.7075101064489,84.0 Z"
       id="path125"
       style="vector-effect:non-scaling-stroke;-inkscape-stroke:hairline;stroke-width:0.26458333;stroke-dasharray:none" />
    <path
       d="M 682.6921197972754,49.84752086140679 L 682.6921197972754,70.15247913859324 L 665.1075101064489,80.30495827718639 L 647.5229004156224,70.15247913859321 L 647.5229004156224,49.84752086140679 L 665.1075101064489,39.69504172281364 L 682.6921197972754,49.84752086140679 Z"
       id="path126"
       style="vector-effect:non-scaling-stroke;-inkscape-stroke:hairline;stroke-width:0.26458333;stroke-dasharray:none" />
    <path
       d="M 682.6921197972754,42.45743741577954 L 671.507510106449,36.0 L 682.6921197972754,29.542562584220462 L 682.6921197972754,42.45743741577954 Z"
       id="path127"
       style="vector-effect:non-scaling-stroke;-inkscape-stroke:hairline;stroke-width:0.26458333;stroke-dasharray:none" />
    <path
       d="M 658.7075101064488,36.0 L 647.5229004156224,42.45743741577954 L 647.5229004156224,29.542562584220462 L 658.7075101064488,36.0 Z"
       id="path128"
       style="vector-effect:non-scaling-stroke;-inkscape-stroke:hairline;stroke-width:0.26458333;stroke-dasharray:none" />
    <path
       d="M 665.1075101064489,32.30495827718636 L 650.7229004156225,24.0 L 679.4921197972754,24.0 L 665.1075101064489,32.30495827718636 Z"
       id="path129"
       style="vector-effect:non-scaling-stroke;-inkscape-stroke:hairline;stroke-width:0.26458333;stroke-dasharray:none" />
    <path
       d="M 724.2613391789284,142.1524791385932 L 721.0613391789285,144.0 L 692.2921197972755,144.0 L 689.0921197972755,142.1524791385932 L 689.0921197972755,121.84752086140679 L 706.676729488102,111.69504172281361 L 724.2613391789284,121.84752086140679 L 724.2613391789284,142.1524791385932 Z"
       id="path130"
       style="vector-effect:non-scaling-stroke;-inkscape-stroke:hairline;stroke-width:0.26458333;stroke-dasharray:none" />
    <path
       d="M 724.2613391789284,114.45743741577955 L 713.0767294881019,108.0 L 724.2613391789284,101.54256258422045 L 724.2613391789284,114.45743741577955 Z"
       id="path131"
       style="vector-effect:non-scaling-stroke;-inkscape-stroke:hairline;stroke-width:0.26458333;stroke-dasharray:none" />
    <path
       d="M 700.276729488102,108.0 L 689.0921197972755,114.45743741577955 L 689.0921197972755,101.54256258422045 L 700.276729488102,108.0 Z"
       id="path132"
       style="vector-effect:non-scaling-stroke;-inkscape-stroke:hairline;stroke-width:0.26458333;stroke-dasharray:none" />
    <path
       d="M 724.2613391789284,73.84752086140679 L 724.2613391789284,94.15247913859322 L 706.676729488102,104.30495827718639 L 689.0921197972755,94.15247913859321 L 689.0921197972755,73.84752086140679 L 706.676729488102,63.69504172281364 L 724.2613391789284,73.84752086140679 Z"
       id="path133"
       style="vector-effect:non-scaling-stroke;-inkscape-stroke:hairline;stroke-width:0.26458333;stroke-dasharray:none" />
    <path
       d="M 724.2613391789284,66.45743741577954 L 713.076729488102,60.0 L 724.2613391789284,53.54256258422046 L 724.2613391789284,66.45743741577954 Z"
       id="path134"
       style="vector-effect:non-scaling-stroke;-inkscape-stroke:hairline;stroke-width:0.26458333;stroke-dasharray:none" />
    <path
       d="M 700.2767294881019,60.0 L 689.0921197972755,66.45743741577954 L 689.0921197972755,53.54256258422046 L 700.2767294881019,60.0 Z"
       id="path135"
       style="vector-effect:non-scaling-stroke;-inkscape-stroke:hairline;stroke-width:0.26458333;stroke-dasharray:none" />
    <path
       d="M 724.2613391789284,46.152479138593236 L 706.676729488102,56.30495827718636 L 689.0921197972755,46.15247913859321 L 689.0921197972755,25.847520861406792 L 692.2921197972755,24.0 L 721.0613391789284,24.0 L 724.2613391789284,25.847520861406792 L 724.2613391789284,46.152479138593236 Z"
       id="path136"
       style="vector-effect:non-scaling-stroke;-inkscape-stroke:hairline;stroke-width:0.26458333;stroke-dasharray:none" />
    <path
       d="M 748.245948869755,135.6950417228136 L 762.6305585605816,144.0 L 733.8613391789285,144.0 L 748.245948869755,135.6950417228136 Z"
       id="path137"
       style="vector-effect:non-scaling-stroke;-inkscape-stroke:hairline;stroke-width:0.26458333;stroke-dasharray:none" />
    <path
       d="M 765.8305585605815,138.45743741577957 L 754.645948869755,132.0 L 765.8305585605815,125.54256258422045 L 765.8305585605815,138.45743741577957 Z"
       id="path138"
       style="vector-effect:non-scaling-stroke;-inkscape-stroke:hairline;stroke-width:0.26458333;stroke-dasharray:none" />
    <path
       d="M 741.845948869755,132.0 L 730.6613391789285,138.45743741577957 L 730.6613391789285,125.54256258422045 L 741.845948869755,132.0 Z"
       id="path139"
       style="vector-effect:non-scaling-stroke;-inkscape-stroke:hairline;stroke-width:0.26458333;stroke-dasharray:none" />
    <path
       d="M 765.8305585605815,97.84752086140679 L 765.8305585605815,118.15247913859322 L 748.245948869755,128.3049582771864 L 730.6613391789285,118.15247913859321 L 730.6613391789285,97.84752086140679 L 748.245948869755,87.69504172281361 L 765.8305585605815,97.84752086140679 Z"
       id="path140"
       style="vector-effect:non-scaling-stroke;-inkscape-stroke:hairline;stroke-width:0.26458333;stroke-dasharray:none" />
    <path
       d="M 765.8305585605815,90.45743741577955 L 754.645948869755,84.0 L 765.8305585605815,77.54256258422046 L 765.8305585605815,90.45743741577955 Z"
       id="path141"
       style="vector-effect:non-scaling-stroke;-inkscape-stroke:hairline;stroke-width:0.26458333;stroke-dasharray:none" />
    <path
       d="M 741.845948869755,84.0 L 730.6613391789285,90.45743741577955 L 730.6613391789285,77.54256258422046 L 741.845948869755,84.0 Z"
       id="path142"
       style="vector-effect:non-scaling-stroke;-inkscape-stroke:hairline;stroke-width:0.26458333;stroke-dasharray:none" />
    <path
       d="M 765.8305585605815,49.84752086140679 L 765.8305585605815,70.15247913859324 L 748.245948869755,80.30495827718639 L 730.6613391789285,70.15247913859321 L 730.6613391789285,49.84752086140679 L 748.245948869755,39.69504172281364 L 765.8305585605815,49.84752086140679 Z"
       id="path143"
       style="vector-effect:non-scaling-stroke;-inkscape-stroke:hairline;stroke-width:0.26458333;stroke-dasharray:none" />
    <path
       d="M 765.8305585605815,42.45743741577954 L 754.6459488697551,36.0 L 765.8305585605815,29.542562584220462 L 765.8305585605815,42.45743741577954 Z"
       id="path144"
       style="vector-effect:non-scaling-stroke;-inkscape-stroke:hairline;stroke-width:0.26458333;stroke-dasharray:none" />
    <path
       d="M 741.8459488697549,36.0 L 730.6613391789285,42.45743741577954 L 730.6613391789285,29.542562584220462 L 741.8459488697549,36.0 Z"
       id="path145"
       style="vector-effect:non-scaling-stroke;-inkscape-stroke:hairline;stroke-width:0.26458333;stroke-dasharray:none" />
    <path
       d="M 748.245948869755,32.30495827718636 L 733.8613391789286,24.0 L 762.6305585605816,24.0 L 748.245948869755,32.30495827718636 Z"
       id="path146"
       style="vector-effect:non-scaling-stroke;-inkscape-stroke:hairline;stroke-width:0.26458333;stroke-dasharray:none" />
    <path
       d="M 807.3997779422346,142.1524791385932 L 804.1997779422346,144.0 L 775.4305585605816,144.0 L 772.2305585605816,142.1524791385932 L 772.2305585605816,121.84752086140679 L 789.8151682514081,111.69504172281361 L 807.3997779422346,121.84752086140679 L 807.3997779422346,142.1524791385932 Z"
       id="path147"
       style="vector-effect:non-scaling-stroke;-inkscape-stroke:hairline;stroke-width:0.26458333;stroke-dasharray:none" />
    <path
       d="M 807.3997779422346,114.45743741577955 L 796.215168251408,108.0 L 807.3997779422346,101.54256258422045 L 807.3997779422346,114.45743741577955 Z"
       id="path148"
       style="vector-effect:non-scaling-stroke;-inkscape-stroke:hairline;stroke-width:0.26458333;stroke-dasharray:none" />
    <path
       d="M 783.4151682514081,108.0 L 772.2305585605816,114.45743741577955 L 772.2305585605816,101.54256258422045 L 783.4151682514081,108.0 Z"
       id="path149"
       style="vector-effect:non-scaling-stroke;-inkscape-stroke:hairline;stroke-width:0.26458333;stroke-dasharray:none" />
    <path
       d="M 807.3997779422346,73.84752086140679 L 807.3997779422346,94.15247913859322 L 789.8151682514081,104.30495827718639 L 772.2305585605816,94.15247913859321 L 772.2305585605816,73.84752086140679 L 789.8151682514081,63.69504172281364 L 807.3997779422346,73.84752086140679 Z"
       id="path150"
       style="vector-effect:non-scaling-stroke;-inkscape-stroke:hairline;stroke-width:0.26458333;stroke-dasharray:none" />
    <path
       d="M 807.3997779422346,66.45743741577954 L 796.2151682514082,60.0 L 807.3997779422346,53.54256258422046 L 807.3997779422346,66.45743741577954 Z"
       id="path151"
       style="vector-effect:non-scaling-stroke;-inkscape-stroke:hairline;stroke-width:0.26458333;stroke-dasharray:none" />
    <path
       d="M 783.415168251408,60.0 L 772.2305585605816,66.45743741577954 L 772.2305585605816,53.54256258422046 L 783.415168251408,60.0 Z"
       id="path152"
       style="vector-effect:non-scaling-stroke;-inkscape-stroke:hairline;stroke-width:0.26458333;stroke-dasharray:none" />
    <path
       d="M 807.3997779422346,46.152479138593236 L 789.8151682514081,56.30495827718636 L 772.2305585605816,46.15247913859321 L 772.2305585605816,25.847520861406792 L 775.4305585605816,24.0 L 804.1997779422345,24.0 L 807.3997779422346,25.847520861406792 L 807.3997779422346,46.152479138593236 Z"
       id="path153"
       style="vector-effect:non-scaling-stroke;-inkscape-stroke:hairline;stroke-width:0.26458333;stroke-dasharray:none" />
    <path
       d="M 831.3843876330611,135.6950417228136 L 845.7689973238877,144.0 L 816.9997779422346,144.0 L 831.3843876330611,135.6950417228136 Z"
       id="path154"
       style="vector-effect:non-scaling-stroke;-inkscape-stroke:hairline;stroke-width:0.26458333;stroke-dasharray:none" />
    <path
       d="M 848.9689973238876,138.45743741577957 L 837.7843876330611,132.0 L 848.9689973238876,125.54256258422045 L 848.9689973238876,138.45743741577957 Z"
       id="path155"
       style="vector-effect:non-scaling-stroke;-inkscape-stroke:hairline;stroke-width:0.26458333;stroke-dasharray:none" />
    <path
       d="M 824.9843876330611,132.0 L 813.7997779422346,138.45743741577957 L 813.7997779422346,125.54256258422045 L 824.9843876330611,132.0 Z"
       id="path156"
       style="vector-effect:non-scaling-stroke;-inkscape-stroke:hairline;stroke-width:0.26458333;stroke-dasharray:none" />
    <path
       d="M 848.9689973238876,97.84752086140679 L 848.9689973238876,118.15247913859322 L 831.3843876330611,128.3049582771864 L 813.7997779422346,118.15247913859321 L 813.7997779422346,97.84752086140679 L 831.3843876330611,87.69504172281361 L 848.9689973238876,97.84752086140679 Z"
       id="path157"
       style="vector-effect:non-scaling-stroke;-inkscape-stroke:hairline;stroke-width:0.26458333;stroke-dasharray:none" />
    <path
       d="M 848.9689973238876,90.45743741577955 L 837.7843876330611,84.0 L 848.9689973238876,77.54256258422046 L 848.9689973238876,90.45743741577955 Z"
       id="path158"
       style="vector-effect:non-scaling-stroke;-inkscape-stroke:hairline;stroke-width:0.26458333;stroke-dasharray:none" />
    <path
       d="M 824.9843876330611,84.0 L 813.7997779422346,90.45743741577955 L 813.7997779422346,77.54256258422046 L 824.9843876330611,84.0 Z"
       id="path159"
       style="vector-effect:non-scaling-stroke;-inkscape-stroke:hairline;stroke-width:0.26458333;stroke-dasharray:none" />
    <path
       d="M 848.9689973238876,49.84752086140679 L 848.9689973238876,70.15247913859324 L 831.3843876330611,80.30495827718639 L 813.7997779422346,70.15247913859321 L 813.7997779422346,49.84752086140679 L 831.3843876330611,39.69504172281364 L 848.9689973238876,49.84752086140679 Z"
       id="path160"
       style="vector-effect:non-scaling-stroke;-inkscape-stroke:hairline;stroke-width:0.26458333;stroke-dasharray:none" />
    <path
       d="M 848.9689973238876,42.45743741577954 L 837.7843876330612,36.0 L 848.9689973238876,29.542562584220462 L 848.9689973238876,42.45743741577954 Z"
       id="path161"
       style="vector-effect:non-scaling-stroke;-inkscape-stroke:hairline;stroke-width:0.26458333;stroke-dasharray:none" />
    <path
       d="M 824.984387633061,36.0 L 813.7997779422346,42.45743741577954 L 813.7997779422346,29.542562584220462 L 824.984387633061,36.0 Z"
       id="path162"
       style="vector-effect:non-scaling-stroke;-inkscape-stroke:hairline;stroke-width:0.26458333;stroke-dasharray:none" />
    <path
       d="M 831.3843876330611,32.30495827718636 L 816.9997779422347,24.0 L 845.7689973238877,24.0 L 831.3843876330611,32.30495827718636 Z"
       id="path163"
       style="vector-effect:non-scaling-stroke;-inkscape-stroke:hairline;stroke-width:0.26458333;stroke-dasharray:none" />
    <path
       d="M 890.5382167055407,142.1524791385932 L 887.3382167055407,144.0 L 858.5689973238877,144.0 L 855.3689973238877,142.1524791385932 L 855.3689973238877,121.84752086140679 L 872.9536070147142,111.69504172281361 L 890.5382167055407,121.84752086140679 L 890.5382167055407,142.1524791385932 Z"
       id="path164"
       style="vector-effect:non-scaling-stroke;-inkscape-stroke:hairline;stroke-width:0.26458333;stroke-dasharray:none" />
    <path
       d="M 890.5382167055407,114.45743741577955 L 879.3536070147142,108.0 L 890.5382167055407,101.54256258422045 L 890.5382167055407,114.45743741577955 Z"
       id="path165"
       style="vector-effect:non-scaling-stroke;-inkscape-stroke:hairline;stroke-width:0.26458333;stroke-dasharray:none" />
    <path
       d="M 866.5536070147142,108.0 L 855.3689973238877,114.45743741577955 L 855.3689973238877,101.54256258422045 L 866.5536070147142,108.0 Z"
       id="path166"
       style="vector-effect:non-scaling-stroke;-inkscape-stroke:hairline;stroke-width:0.26458333;stroke-dasharray:none" />
    <path
       d="M 890.5382167055407,73.84752086140679 L 890.5382167055407,94.15247913859322 L 872.9536070147142,104.30495827718639 L 855.3689973238877,94.15247913859321 L 855.3689973238877,73.84752086140679 L 872.9536070147142,63.69504172281364 L 890.5382167055407,73.84752086140679 Z"
       id="path167"
       style="vector-effect:non-scaling-stroke;-inkscape-stroke:hairline;stroke-width:0.26458333;stroke-dasharray:none" />
    <path
       d="M 890.5382167055407,66.45743741577954 L 879.3536070147143,60.0 L 890.5382167055407,53.54256258422046 L 890.5382167055407,66.45743741577954 Z"
       id="path168"
       style="vector-effect:non-scaling-stroke;-inkscape-stroke:hairline;stroke-width:0.26458333;stroke-dasharray:none" />
    <path
       d="M 866.5536070147141,60.0 L 855.3689973238877,66.45743741577954 L 855.3689973238877,53.54256258422046 L 866.5536070147141,60.0 Z"
       id="path169"
       style="vector-effect:non-scaling-stroke;-inkscape-stroke:hairline;stroke-width:0.26458333;stroke-dasharray:none" />
    <path
       d="M 890.5382167055407,46.152479138593236 L 872.9536070147142,56.30495827718636 L 855.3689973238877,46.15247913859321 L 855.3689973238877,25.847520861406792 L 858.5689973238877,24.0 L 887.3382167055406,24.0 L 890.5382167055407,25.847520861406792 L 890.5382167055407,46.152479138593236 Z"
       id="path170"
       style="vector-effect:non-scaling-stroke;-inkscape-stroke:hairline;stroke-width:0.26458333;stroke-dasharray:none" />
    <path
       d="M 914.5228263963672,135.6950417228136 L 928.9074360871938,144.0 L 900.1382167055407,144.0 L 914.5228263963672,135.6950417228136 Z"
       id="path171"
       style="vector-effect:non-scaling-stroke;-inkscape-stroke:hairline;stroke-width:0.26458333;stroke-dasharray:none" />
    <path
       d="M 920.9228263963672,132.0 L 929.3306325798367,127.14575083667972 L 929.3306325798367,136.85424916332028 L 920.9228263963672,132.0 Z"
       id="path172"
       style="vector-effect:non-scaling-stroke;-inkscape-stroke:hairline;stroke-width:0.26458333;stroke-dasharray:none" />
    <path
       d="M 908.1228263963673,132.0 L 896.9382167055408,138.45743741577957 L 896.9382167055408,125.54256258422045 L 908.1228263963673,132.0 Z"
       id="path173"
       style="vector-effect:non-scaling-stroke;-inkscape-stroke:hairline;stroke-width:0.26458333;stroke-dasharray:none" />
    <path
       d="M 914.5228263963672,128.3049582771864 L 896.9382167055408,118.15247913859321 L 896.9382167055408,97.84752086140679 L 914.5228263963672,87.69504172281361 L 929.3306325798367,96.2443326089475 L 929.3306325798367,119.75566739105251 L 914.5228263963672,128.3049582771864 Z"
       id="path174"
       style="vector-effect:non-scaling-stroke;-inkscape-stroke:hairline;stroke-width:0.26458333;stroke-dasharray:none" />
    <path
       d="M 920.9228263963672,84.0 L 929.3306325798367,79.14575083667974 L 929.3306325798367,88.85424916332028 L 920.9228263963672,84.0 Z"
       id="path175"
       style="vector-effect:non-scaling-stroke;-inkscape-stroke:hairline;stroke-width:0.26458333;stroke-dasharray:none" />
    <path
       d="M 908.1228263963673,84.0 L 896.9382167055408,90.45743741577955 L 896.9382167055408,77.54256258422046 L 908.1228263963673,84.0 Z"
       id="path176"
       style="vector-effect:non-scaling-stroke;-inkscape-stroke:hairline;stroke-width:0.26458333;stroke-dasharray:none" />
    <path
       d="M 914.5228263963672,80.30495827718639 L 896.9382167055408,70.15247913859321 L 896.9382167055408,49.84752086140679 L 914.5228263963672,39.69504172281364 L 929.3306325798367,48.2443326089475 L 929.3306325798367,71.75566739105253 L 914.5228263963672,80.30495827718639 Z"
       id="path177"
       style="vector-effect:non-scaling-stroke;-inkscape-stroke:hairline;stroke-width:0.26458333;stroke-dasharray:none" />
    <path
       d="M 920.9228263963673,36.0 L 929.3306325798367,31.145750836679753 L 929.3306325798367,40.85424916332025 L 920.9228263963673,36.0 Z"
       id="path178"
       style="vector-effect:non-scaling-stroke;-inkscape-stroke:hairline;stroke-width:0.26458333;stroke-dasharray:none" />
    <path
       d="M 908.1228263963671,36.0 L 896.9382167055408,42.45743741577954 L 896.9382167055408,29.542562584220462 L 908.1228263963671,36.0 Z"
       id="path179"
       style="vector-effect:non-scaling-stroke;-inkscape-stroke:hairline;stroke-width:0.26458333;stroke-dasharray:none" />
    <path
       d="M 914.5228263963672,32.30495827718636 L 900.1382167055408,24.0 L 928.9074360871938,24.0 L 914.5228263963672,32.30495827718636 Z"
       id="path180"
       style="vector-effect:non-scaling-stroke;-inkscape-stroke:hairline;stroke-width:0.26458333;stroke-dasharray:none" />
    <path
       d="M 46.330632579836674,170.0 L 951.3306325798367,170.0 L 951.3306325798367,0.0 L 46.330632579836674,0.0 L 46.330632579836674,170.0 Z"
       id="path181"
       style="vector-effect:non-scaling-stroke;-inkscape-stroke:hairline;stroke-width:0.26458333;stroke-dasharray:none" />
  </g>
</svg>
