  0
SECTION
  2
HEADER
  9
$ACADVER
  1
AC1014
  9
$HANDSEED
  5
FFFF
  9
$INSUNITS
 70
     4
  9
$MEASUREMENT
 70
     1
  0
ENDSEC
  0
SECTION
  2
TABLES
  0
TABLE
  2
VPORT
  5
8
330
0
100
AcDbSymbolTable
 70
     4
  0
VPORT
  5
2E
330
8
100
AcDbSymbolTableRecord
100
AcDbViewportTableRecord
  2
*ACTIVE
 70
     0
 10
0.0
 20
0.0
 11
1.0
 21
1.0
 12
210.0
 22
148.5
 13
0.0
 23
0.0
 14
10.0
 24
10.0
 15
10.0
 25
10.0
 16
0.0
 26
0.0
 36
1.0
 17
0.0
 27
0.0
 37
0.0
 40
341.0
 41
1.24
 42
50.0
 43
0.0
 44
0.0
 50
0.0
 51
0.0
 71
     0
 72
   100
 73
     1
 74
     3
 75
     0
 76
     0
 77
     0
 78
     0
  0
ENDTAB
  0
TABLE
  2
LTYPE
  5
5
330
0
100
AcDbSymbolTable
 70
     1
  0
LTYPE
  5
14
330
5
100
AcDbSymbolTableRecord
100
AcDbLinetypeTableRecord
  2
BYBLOCK
 70
     0
  3

 72
    65
 73
     0
 40
0.0
  0
LTYPE
  5
15
330
5
100
AcDbSymbolTableRecord
100
AcDbLinetypeTableRecord
  2
BYLAYER
 70
     0
  3

 72
    65
 73
     0
 40
0.0
  0
LTYPE
  5
16
330
5
100
AcDbSymbolTableRecord
100
AcDbLinetypeTableRecord
  2
CONTINUOUS
 70
     0
  3
Solid line
 72
    65
 73
     0
 40
0.0
  0
ENDTAB
  0
TABLE
  2
LAYER
  5
2
100
AcDbSymbolTable
 70
1
  0
LAYER
  5
50
100
AcDbSymbolTableRecord
100
AcDbLayerTableRecord
  2
0
 70
0
  6
CONTINUOUS
  0
ENDTAB
  0
TABLE
  2
STYLE
  5
3
330
0
100
AcDbSymbolTable
 70
     1
  0
STYLE
  5
11
330
3
100
AcDbSymbolTableRecord
100
AcDbTextStyleTableRecord
  2
STANDARD
 70
     0
 40
0.0
 41
1.0
 50
0.0
 71
     0
 42
2.5
  3
txt
  4

  0
ENDTAB
  0
TABLE
  2
VIEW
  5
6
330
0
100
AcDbSymbolTable
 70
     0
  0
ENDTAB
  0
TABLE
  2
UCS
  5
7
330
0
100
AcDbSymbolTable
 70
     0
  0
ENDTAB
  0
TABLE
  2
APPID
  5
9
330
0
100
AcDbSymbolTable
 70
     2
  0
APPID
  5
12
330
9
100
AcDbSymbolTableRecord
100
AcDbRegAppTableRecord
  2
ACAD
 70
     0
  0
ENDTAB
  0
TABLE
  2
DIMSTYLE
  5
A
330
0
100
AcDbSymbolTable
 70
     1
  0
DIMSTYLE
105
27
330
A
100
AcDbSymbolTableRecord
100
AcDbDimStyleTableRecord
  2
ISO-25
 70
     0
  3

  4

  5

  6

  7

 40
1.0
 41
2.5
 42
0.625
 43
3.75
 44
1.25
 45
0.0
 46
0.0
 47
0.0
 48
0.0
140
2.5
141
2.5
142
0.0
143
0.03937007874016
144
1.0
145
0.0
146
1.0
147
0.625
 71
     0
 72
     0
 73
     0
 74
     0
 75
     0
 76
     0
 77
     1
 78
     8
170
     0
171
     3
172
     1
173
     0
174
     0
175
     0
176
     0
177
     0
178
     0
270
     2
271
     2
272
     2
273
     2
274
     3
340
11
275
     0
280
     0
281
     0
282
     0
283
     0
284
     8
285
     0
286
     0
287
     3
288
     0
  0
ENDTAB
  0
TABLE
  2
BLOCK_RECORD
  5
1
330
0
100
AcDbSymbolTable
 70
     1
  0
BLOCK_RECORD
  5
1F
330
1
100
AcDbSymbolTableRecord
100
AcDbBlockTableRecord
  2
*MODEL_SPACE
  0
BLOCK_RECORD
  5
1B
330
1
100
AcDbSymbolTableRecord
100
AcDbBlockTableRecord
  2
*PAPER_SPACE
  0
ENDTAB
  0
ENDSEC
  0
SECTION
  2
BLOCKS
  0
BLOCK
  5
20
330
1F
100
AcDbEntity
  8
0
100
AcDbBlockBegin
  2
*MODEL_SPACE
 70
     0
 10
0.0
 20
0.0
 30
0.0
  3
*MODEL_SPACE
  1

  0
ENDBLK
  5
21
330
1F
100
AcDbEntity
  8
0
100
AcDbBlockEnd
  0
BLOCK
  5
1C
330
1B
100
AcDbEntity
 67
     1
  8
0
100
AcDbBlockBegin
  2
*PAPER_SPACE
  1

  0
ENDBLK
  5
1D
330
1B
100
AcDbEntity
 67
     1
  8
0
100
AcDbBlockEnd
  0
ENDSEC
  0
SECTION
  2
ENTITIES
  0
LWPOLYLINE
  5
100
100
AcDbEntity
  8
0
 62
7
100
AcDbPolyline
 90
4
 70
1
 10
184.307439
 20
99.304958
 30
0.0
 10
198.692048
 20
91.000000
 30
0.0
 10
169.922829
 20
91.000000
 30
0.0
 10
184.307439
 20
99.304958
 30
0.0
  0
LWPOLYLINE
  5
101
100
AcDbEntity
  8
0
 62
7
100
AcDbPolyline
 90
4
 70
1
 10
201.892048
 20
96.542563
 30
0.0
 10
190.707439
 20
103.000000
 30
0.0
 10
201.892048
 20
109.457437
 30
0.0
 10
201.892048
 20
96.542563
 30
0.0
  0
LWPOLYLINE
  5
102
100
AcDbEntity
  8
0
 62
7
100
AcDbPolyline
 90
4
 70
1
 10
169.499633
 20
98.145751
 30
0.0
 10
169.499633
 20
107.854249
 30
0.0
 10
177.907439
 20
103.000000
 30
0.0
 10
169.499633
 20
98.145751
 30
0.0
  0
LWPOLYLINE
  5
103
100
AcDbEntity
  8
0
 62
7
100
AcDbPolyline
 90
7
 70
1
 10
201.892048
 20
116.847521
 30
0.0
 10
184.307439
 20
106.695042
 30
0.0
 10
169.499633
 20
115.244333
 30
0.0
 10
169.499633
 20
138.755667
 30
0.0
 10
184.307439
 20
147.304958
 30
0.0
 10
201.892048
 20
137.152479
 30
0.0
 10
201.892048
 20
116.847521
 30
0.0
  0
LWPOLYLINE
  5
104
100
AcDbEntity
  8
0
 62
7
100
AcDbPolyline
 90
4
 70
1
 10
201.892048
 20
144.542563
 30
0.0
 10
190.707439
 20
151.000000
 30
0.0
 10
201.892048
 20
157.457437
 30
0.0
 10
201.892048
 20
144.542563
 30
0.0
  0
LWPOLYLINE
  5
105
100
AcDbEntity
  8
0
 62
7
100
AcDbPolyline
 90
4
 70
1
 10
169.499633
 20
146.145751
 30
0.0
 10
169.499633
 20
155.854249
 30
0.0
 10
177.907439
 20
151.000000
 30
0.0
 10
169.499633
 20
146.145751
 30
0.0
  0
LWPOLYLINE
  5
106
100
AcDbEntity
  8
0
 62
7
100
AcDbPolyline
 90
7
 70
1
 10
201.892048
 20
164.847521
 30
0.0
 10
184.307439
 20
154.695042
 30
0.0
 10
169.499633
 20
163.244333
 30
0.0
 10
169.499633
 20
186.755667
 30
0.0
 10
184.307439
 20
195.304958
 30
0.0
 10
201.892048
 20
185.152479
 30
0.0
 10
201.892048
 20
164.847521
 30
0.0
  0
LWPOLYLINE
  5
107
100
AcDbEntity
  8
0
 62
7
100
AcDbPolyline
 90
4
 70
1
 10
201.892048
 20
192.542563
 30
0.0
 10
190.707439
 20
199.000000
 30
0.0
 10
201.892048
 20
205.457437
 30
0.0
 10
201.892048
 20
192.542563
 30
0.0
  0
LWPOLYLINE
  5
108
100
AcDbEntity
  8
0
 62
7
100
AcDbPolyline
 90
4
 70
1
 10
169.499633
 20
194.145751
 30
0.0
 10
169.499633
 20
203.854249
 30
0.0
 10
177.907439
 20
199.000000
 30
0.0
 10
169.499633
 20
194.145751
 30
0.0
  0
LWPOLYLINE
  5
109
100
AcDbEntity
  8
0
 62
7
100
AcDbPolyline
 90
4
 70
1
 10
184.307439
 20
202.695042
 30
0.0
 10
169.922829
 20
211.000000
 30
0.0
 10
198.692048
 20
211.000000
 30
0.0
 10
184.307439
 20
202.695042
 30
0.0
  0
LWPOLYLINE
  5
10a
100
AcDbEntity
  8
0
 62
7
100
AcDbPolyline
 90
8
 70
1
 10
243.461268
 20
92.847521
 30
0.0
 10
240.261268
 20
91.000000
 30
0.0
 10
211.492048
 20
91.000000
 30
0.0
 10
208.292048
 20
92.847521
 30
0.0
 10
208.292048
 20
113.152479
 30
0.0
 10
225.876658
 20
123.304958
 30
0.0
 10
243.461268
 20
113.152479
 30
0.0
 10
243.461268
 20
92.847521
 30
0.0
  0
LWPOLYLINE
  5
10b
100
AcDbEntity
  8
0
 62
7
100
AcDbPolyline
 90
4
 70
1
 10
243.461268
 20
120.542563
 30
0.0
 10
232.276658
 20
127.000000
 30
0.0
 10
243.461268
 20
133.457437
 30
0.0
 10
243.461268
 20
120.542563
 30
0.0
  0
LWPOLYLINE
  5
10c
100
AcDbEntity
  8
0
 62
7
100
AcDbPolyline
 90
4
 70
1
 10
219.476658
 20
127.000000
 30
0.0
 10
208.292048
 20
120.542563
 30
0.0
 10
208.292048
 20
133.457437
 30
0.0
 10
219.476658
 20
127.000000
 30
0.0
  0
LWPOLYLINE
  5
10d
100
AcDbEntity
  8
0
 62
7
100
AcDbPolyline
 90
7
 70
1
 10
243.461268
 20
161.152479
 30
0.0
 10
243.461268
 20
140.847521
 30
0.0
 10
225.876658
 20
130.695042
 30
0.0
 10
208.292048
 20
140.847521
 30
0.0
 10
208.292048
 20
161.152479
 30
0.0
 10
225.876658
 20
171.304958
 30
0.0
 10
243.461268
 20
161.152479
 30
0.0
  0
LWPOLYLINE
  5
10e
100
AcDbEntity
  8
0
 62
7
100
AcDbPolyline
 90
4
 70
1
 10
243.461268
 20
168.542563
 30
0.0
 10
232.276658
 20
175.000000
 30
0.0
 10
243.461268
 20
181.457437
 30
0.0
 10
243.461268
 20
168.542563
 30
0.0
  0
LWPOLYLINE
  5
10f
100
AcDbEntity
  8
0
 62
7
100
AcDbPolyline
 90
4
 70
1
 10
219.476658
 20
175.000000
 30
0.0
 10
208.292048
 20
168.542563
 30
0.0
 10
208.292048
 20
181.457437
 30
0.0
 10
219.476658
 20
175.000000
 30
0.0
  0
LWPOLYLINE
  5
110
100
AcDbEntity
  8
0
 62
7
100
AcDbPolyline
 90
8
 70
1
 10
243.461268
 20
188.847521
 30
0.0
 10
225.876658
 20
178.695042
 30
0.0
 10
208.292048
 20
188.847521
 30
0.0
 10
208.292048
 20
209.152479
 30
0.0
 10
211.492048
 20
211.000000
 30
0.0
 10
240.261268
 20
211.000000
 30
0.0
 10
243.461268
 20
209.152479
 30
0.0
 10
243.461268
 20
188.847521
 30
0.0
  0
LWPOLYLINE
  5
111
100
AcDbEntity
  8
0
 62
7
100
AcDbPolyline
 90
4
 70
1
 10
267.445878
 20
99.304958
 30
0.0
 10
281.830487
 20
91.000000
 30
0.0
 10
253.061268
 20
91.000000
 30
0.0
 10
267.445878
 20
99.304958
 30
0.0
  0
LWPOLYLINE
  5
112
100
AcDbEntity
  8
0
 62
7
100
AcDbPolyline
 90
4
 70
1
 10
285.030487
 20
96.542563
 30
0.0
 10
273.845878
 20
103.000000
 30
0.0
 10
285.030487
 20
109.457437
 30
0.0
 10
285.030487
 20
96.542563
 30
0.0
  0
LWPOLYLINE
  5
113
100
AcDbEntity
  8
0
 62
7
100
AcDbPolyline
 90
4
 70
1
 10
261.045878
 20
103.000000
 30
0.0
 10
249.861268
 20
96.542563
 30
0.0
 10
249.861268
 20
109.457437
 30
0.0
 10
261.045878
 20
103.000000
 30
0.0
  0
LWPOLYLINE
  5
114
100
AcDbEntity
  8
0
 62
7
100
AcDbPolyline
 90
7
 70
1
 10
285.030487
 20
137.152479
 30
0.0
 10
285.030487
 20
116.847521
 30
0.0
 10
267.445878
 20
106.695042
 30
0.0
 10
249.861268
 20
116.847521
 30
0.0
 10
249.861268
 20
137.152479
 30
0.0
 10
267.445878
 20
147.304958
 30
0.0
 10
285.030487
 20
137.152479
 30
0.0
  0
LWPOLYLINE
  5
115
100
AcDbEntity
  8
0
 62
7
100
AcDbPolyline
 90
4
 70
1
 10
285.030487
 20
144.542563
 30
0.0
 10
273.845878
 20
151.000000
 30
0.0
 10
285.030487
 20
157.457437
 30
0.0
 10
285.030487
 20
144.542563
 30
0.0
  0
LWPOLYLINE
  5
116
100
AcDbEntity
  8
0
 62
7
100
AcDbPolyline
 90
4
 70
1
 10
261.045878
 20
151.000000
 30
0.0
 10
249.861268
 20
144.542563
 30
0.0
 10
249.861268
 20
157.457437
 30
0.0
 10
261.045878
 20
151.000000
 30
0.0
  0
LWPOLYLINE
  5
117
100
AcDbEntity
  8
0
 62
7
100
AcDbPolyline
 90
7
 70
1
 10
285.030487
 20
185.152479
 30
0.0
 10
285.030487
 20
164.847521
 30
0.0
 10
267.445878
 20
154.695042
 30
0.0
 10
249.861268
 20
164.847521
 30
0.0
 10
249.861268
 20
185.152479
 30
0.0
 10
267.445878
 20
195.304958
 30
0.0
 10
285.030487
 20
185.152479
 30
0.0
  0
LWPOLYLINE
  5
118
100
AcDbEntity
  8
0
 62
7
100
AcDbPolyline
 90
4
 70
1
 10
285.030487
 20
192.542563
 30
0.0
 10
273.845878
 20
199.000000
 30
0.0
 10
285.030487
 20
205.457437
 30
0.0
 10
285.030487
 20
192.542563
 30
0.0
  0
LWPOLYLINE
  5
119
100
AcDbEntity
  8
0
 62
7
100
AcDbPolyline
 90
4
 70
1
 10
261.045878
 20
199.000000
 30
0.0
 10
249.861268
 20
192.542563
 30
0.0
 10
249.861268
 20
205.457437
 30
0.0
 10
261.045878
 20
199.000000
 30
0.0
  0
LWPOLYLINE
  5
11a
100
AcDbEntity
  8
0
 62
7
100
AcDbPolyline
 90
4
 70
1
 10
267.445878
 20
202.695042
 30
0.0
 10
253.061268
 20
211.000000
 30
0.0
 10
281.830487
 20
211.000000
 30
0.0
 10
267.445878
 20
202.695042
 30
0.0
  0
LWPOLYLINE
  5
11b
100
AcDbEntity
  8
0
 62
7
100
AcDbPolyline
 90
8
 70
1
 10
326.599707
 20
92.847521
 30
0.0
 10
323.399707
 20
91.000000
 30
0.0
 10
294.630487
 20
91.000000
 30
0.0
 10
291.430487
 20
92.847521
 30
0.0
 10
291.430487
 20
113.152479
 30
0.0
 10
309.015097
 20
123.304958
 30
0.0
 10
326.599707
 20
113.152479
 30
0.0
 10
326.599707
 20
92.847521
 30
0.0
  0
LWPOLYLINE
  5
11c
100
AcDbEntity
  8
0
 62
7
100
AcDbPolyline
 90
4
 70
1
 10
326.599707
 20
120.542563
 30
0.0
 10
315.415097
 20
127.000000
 30
0.0
 10
326.599707
 20
133.457437
 30
0.0
 10
326.599707
 20
120.542563
 30
0.0
  0
LWPOLYLINE
  5
11d
100
AcDbEntity
  8
0
 62
7
100
AcDbPolyline
 90
4
 70
1
 10
302.615097
 20
127.000000
 30
0.0
 10
291.430487
 20
120.542563
 30
0.0
 10
291.430487
 20
133.457437
 30
0.0
 10
302.615097
 20
127.000000
 30
0.0
  0
LWPOLYLINE
  5
11e
100
AcDbEntity
  8
0
 62
7
100
AcDbPolyline
 90
7
 70
1
 10
326.599707
 20
161.152479
 30
0.0
 10
326.599707
 20
140.847521
 30
0.0
 10
309.015097
 20
130.695042
 30
0.0
 10
291.430487
 20
140.847521
 30
0.0
 10
291.430487
 20
161.152479
 30
0.0
 10
309.015097
 20
171.304958
 30
0.0
 10
326.599707
 20
161.152479
 30
0.0
  0
LWPOLYLINE
  5
11f
100
AcDbEntity
  8
0
 62
7
100
AcDbPolyline
 90
4
 70
1
 10
326.599707
 20
168.542563
 30
0.0
 10
315.415097
 20
175.000000
 30
0.0
 10
326.599707
 20
181.457437
 30
0.0
 10
326.599707
 20
168.542563
 30
0.0
  0
LWPOLYLINE
  5
120
100
AcDbEntity
  8
0
 62
7
100
AcDbPolyline
 90
4
 70
1
 10
302.615097
 20
175.000000
 30
0.0
 10
291.430487
 20
168.542563
 30
0.0
 10
291.430487
 20
181.457437
 30
0.0
 10
302.615097
 20
175.000000
 30
0.0
  0
LWPOLYLINE
  5
121
100
AcDbEntity
  8
0
 62
7
100
AcDbPolyline
 90
8
 70
1
 10
326.599707
 20
188.847521
 30
0.0
 10
309.015097
 20
178.695042
 30
0.0
 10
291.430487
 20
188.847521
 30
0.0
 10
291.430487
 20
209.152479
 30
0.0
 10
294.630487
 20
211.000000
 30
0.0
 10
323.399707
 20
211.000000
 30
0.0
 10
326.599707
 20
209.152479
 30
0.0
 10
326.599707
 20
188.847521
 30
0.0
  0
LWPOLYLINE
  5
122
100
AcDbEntity
  8
0
 62
7
100
AcDbPolyline
 90
4
 70
1
 10
350.584316
 20
99.304958
 30
0.0
 10
364.968926
 20
91.000000
 30
0.0
 10
336.199707
 20
91.000000
 30
0.0
 10
350.584316
 20
99.304958
 30
0.0
  0
LWPOLYLINE
  5
123
100
AcDbEntity
  8
0
 62
7
100
AcDbPolyline
 90
4
 70
1
 10
368.168926
 20
96.542563
 30
0.0
 10
356.984316
 20
103.000000
 30
0.0
 10
368.168926
 20
109.457437
 30
0.0
 10
368.168926
 20
96.542563
 30
0.0
  0
LWPOLYLINE
  5
124
100
AcDbEntity
  8
0
 62
7
100
AcDbPolyline
 90
4
 70
1
 10
344.184316
 20
103.000000
 30
0.0
 10
332.999707
 20
96.542563
 30
0.0
 10
332.999707
 20
109.457437
 30
0.0
 10
344.184316
 20
103.000000
 30
0.0
  0
LWPOLYLINE
  5
125
100
AcDbEntity
  8
0
 62
7
100
AcDbPolyline
 90
7
 70
1
 10
368.168926
 20
137.152479
 30
0.0
 10
368.168926
 20
116.847521
 30
0.0
 10
350.584316
 20
106.695042
 30
0.0
 10
332.999707
 20
116.847521
 30
0.0
 10
332.999707
 20
137.152479
 30
0.0
 10
350.584316
 20
147.304958
 30
0.0
 10
368.168926
 20
137.152479
 30
0.0
  0
LWPOLYLINE
  5
126
100
AcDbEntity
  8
0
 62
7
100
AcDbPolyline
 90
4
 70
1
 10
368.168926
 20
144.542563
 30
0.0
 10
356.984316
 20
151.000000
 30
0.0
 10
368.168926
 20
157.457437
 30
0.0
 10
368.168926
 20
144.542563
 30
0.0
  0
LWPOLYLINE
  5
127
100
AcDbEntity
  8
0
 62
7
100
AcDbPolyline
 90
4
 70
1
 10
344.184316
 20
151.000000
 30
0.0
 10
332.999707
 20
144.542563
 30
0.0
 10
332.999707
 20
157.457437
 30
0.0
 10
344.184316
 20
151.000000
 30
0.0
  0
LWPOLYLINE
  5
128
100
AcDbEntity
  8
0
 62
7
100
AcDbPolyline
 90
7
 70
1
 10
368.168926
 20
185.152479
 30
0.0
 10
368.168926
 20
164.847521
 30
0.0
 10
350.584316
 20
154.695042
 30
0.0
 10
332.999707
 20
164.847521
 30
0.0
 10
332.999707
 20
185.152479
 30
0.0
 10
350.584316
 20
195.304958
 30
0.0
 10
368.168926
 20
185.152479
 30
0.0
  0
LWPOLYLINE
  5
129
100
AcDbEntity
  8
0
 62
7
100
AcDbPolyline
 90
4
 70
1
 10
368.168926
 20
192.542563
 30
0.0
 10
356.984316
 20
199.000000
 30
0.0
 10
368.168926
 20
205.457437
 30
0.0
 10
368.168926
 20
192.542563
 30
0.0
  0
LWPOLYLINE
  5
12a
100
AcDbEntity
  8
0
 62
7
100
AcDbPolyline
 90
4
 70
1
 10
344.184316
 20
199.000000
 30
0.0
 10
332.999707
 20
192.542563
 30
0.0
 10
332.999707
 20
205.457437
 30
0.0
 10
344.184316
 20
199.000000
 30
0.0
  0
LWPOLYLINE
  5
12b
100
AcDbEntity
  8
0
 62
7
100
AcDbPolyline
 90
4
 70
1
 10
350.584316
 20
202.695042
 30
0.0
 10
336.199707
 20
211.000000
 30
0.0
 10
364.968926
 20
211.000000
 30
0.0
 10
350.584316
 20
202.695042
 30
0.0
  0
LWPOLYLINE
  5
12c
100
AcDbEntity
  8
0
 62
7
100
AcDbPolyline
 90
8
 70
1
 10
409.738145
 20
92.847521
 30
0.0
 10
406.538145
 20
91.000000
 30
0.0
 10
377.768926
 20
91.000000
 30
0.0
 10
374.568926
 20
92.847521
 30
0.0
 10
374.568926
 20
113.152479
 30
0.0
 10
392.153536
 20
123.304958
 30
0.0
 10
409.738145
 20
113.152479
 30
0.0
 10
409.738145
 20
92.847521
 30
0.0
  0
LWPOLYLINE
  5
12d
100
AcDbEntity
  8
0
 62
7
100
AcDbPolyline
 90
4
 70
1
 10
409.738145
 20
120.542563
 30
0.0
 10
398.553536
 20
127.000000
 30
0.0
 10
409.738145
 20
133.457437
 30
0.0
 10
409.738145
 20
120.542563
 30
0.0
  0
LWPOLYLINE
  5
12e
100
AcDbEntity
  8
0
 62
7
100
AcDbPolyline
 90
4
 70
1
 10
385.753536
 20
127.000000
 30
0.0
 10
374.568926
 20
120.542563
 30
0.0
 10
374.568926
 20
133.457437
 30
0.0
 10
385.753536
 20
127.000000
 30
0.0
  0
LWPOLYLINE
  5
12f
100
AcDbEntity
  8
0
 62
7
100
AcDbPolyline
 90
7
 70
1
 10
409.738145
 20
161.152479
 30
0.0
 10
409.738145
 20
140.847521
 30
0.0
 10
392.153536
 20
130.695042
 30
0.0
 10
374.568926
 20
140.847521
 30
0.0
 10
374.568926
 20
161.152479
 30
0.0
 10
392.153536
 20
171.304958
 30
0.0
 10
409.738145
 20
161.152479
 30
0.0
  0
LWPOLYLINE
  5
130
100
AcDbEntity
  8
0
 62
7
100
AcDbPolyline
 90
4
 70
1
 10
409.738145
 20
168.542563
 30
0.0
 10
398.553536
 20
175.000000
 30
0.0
 10
409.738145
 20
181.457437
 30
0.0
 10
409.738145
 20
168.542563
 30
0.0
  0
LWPOLYLINE
  5
131
100
AcDbEntity
  8
0
 62
7
100
AcDbPolyline
 90
4
 70
1
 10
385.753536
 20
175.000000
 30
0.0
 10
374.568926
 20
168.542563
 30
0.0
 10
374.568926
 20
181.457437
 30
0.0
 10
385.753536
 20
175.000000
 30
0.0
  0
LWPOLYLINE
  5
132
100
AcDbEntity
  8
0
 62
7
100
AcDbPolyline
 90
8
 70
1
 10
409.738145
 20
188.847521
 30
0.0
 10
392.153536
 20
178.695042
 30
0.0
 10
374.568926
 20
188.847521
 30
0.0
 10
374.568926
 20
209.152479
 30
0.0
 10
377.768926
 20
211.000000
 30
0.0
 10
406.538145
 20
211.000000
 30
0.0
 10
409.738145
 20
209.152479
 30
0.0
 10
409.738145
 20
188.847521
 30
0.0
  0
LWPOLYLINE
  5
133
100
AcDbEntity
  8
0
 62
7
100
AcDbPolyline
 90
4
 70
1
 10
433.722755
 20
99.304958
 30
0.0
 10
448.107365
 20
91.000000
 30
0.0
 10
419.338145
 20
91.000000
 30
0.0
 10
433.722755
 20
99.304958
 30
0.0
  0
LWPOLYLINE
  5
134
100
AcDbEntity
  8
0
 62
7
100
AcDbPolyline
 90
4
 70
1
 10
451.307365
 20
96.542563
 30
0.0
 10
440.122755
 20
103.000000
 30
0.0
 10
451.307365
 20
109.457437
 30
0.0
 10
451.307365
 20
96.542563
 30
0.0
  0
LWPOLYLINE
  5
135
100
AcDbEntity
  8
0
 62
7
100
AcDbPolyline
 90
4
 70
1
 10
427.322755
 20
103.000000
 30
0.0
 10
416.138145
 20
96.542563
 30
0.0
 10
416.138145
 20
109.457437
 30
0.0
 10
427.322755
 20
103.000000
 30
0.0
  0
LWPOLYLINE
  5
136
100
AcDbEntity
  8
0
 62
7
100
AcDbPolyline
 90
7
 70
1
 10
451.307365
 20
137.152479
 30
0.0
 10
451.307365
 20
116.847521
 30
0.0
 10
433.722755
 20
106.695042
 30
0.0
 10
416.138145
 20
116.847521
 30
0.0
 10
416.138145
 20
137.152479
 30
0.0
 10
433.722755
 20
147.304958
 30
0.0
 10
451.307365
 20
137.152479
 30
0.0
  0
LWPOLYLINE
  5
137
100
AcDbEntity
  8
0
 62
7
100
AcDbPolyline
 90
4
 70
1
 10
451.307365
 20
144.542563
 30
0.0
 10
440.122755
 20
151.000000
 30
0.0
 10
451.307365
 20
157.457437
 30
0.0
 10
451.307365
 20
144.542563
 30
0.0
  0
LWPOLYLINE
  5
138
100
AcDbEntity
  8
0
 62
7
100
AcDbPolyline
 90
4
 70
1
 10
427.322755
 20
151.000000
 30
0.0
 10
416.138145
 20
144.542563
 30
0.0
 10
416.138145
 20
157.457437
 30
0.0
 10
427.322755
 20
151.000000
 30
0.0
  0
LWPOLYLINE
  5
139
100
AcDbEntity
  8
0
 62
7
100
AcDbPolyline
 90
7
 70
1
 10
451.307365
 20
185.152479
 30
0.0
 10
451.307365
 20
164.847521
 30
0.0
 10
433.722755
 20
154.695042
 30
0.0
 10
416.138145
 20
164.847521
 30
0.0
 10
416.138145
 20
185.152479
 30
0.0
 10
433.722755
 20
195.304958
 30
0.0
 10
451.307365
 20
185.152479
 30
0.0
  0
LWPOLYLINE
  5
13a
100
AcDbEntity
  8
0
 62
7
100
AcDbPolyline
 90
4
 70
1
 10
451.307365
 20
192.542563
 30
0.0
 10
440.122755
 20
199.000000
 30
0.0
 10
451.307365
 20
205.457437
 30
0.0
 10
451.307365
 20
192.542563
 30
0.0
  0
LWPOLYLINE
  5
13b
100
AcDbEntity
  8
0
 62
7
100
AcDbPolyline
 90
4
 70
1
 10
427.322755
 20
199.000000
 30
0.0
 10
416.138145
 20
192.542563
 30
0.0
 10
416.138145
 20
205.457437
 30
0.0
 10
427.322755
 20
199.000000
 30
0.0
  0
LWPOLYLINE
  5
13c
100
AcDbEntity
  8
0
 62
7
100
AcDbPolyline
 90
4
 70
1
 10
433.722755
 20
202.695042
 30
0.0
 10
419.338145
 20
211.000000
 30
0.0
 10
448.107365
 20
211.000000
 30
0.0
 10
433.722755
 20
202.695042
 30
0.0
  0
LWPOLYLINE
  5
13d
100
AcDbEntity
  8
0
 62
7
100
AcDbPolyline
 90
8
 70
1
 10
492.876584
 20
92.847521
 30
0.0
 10
489.676584
 20
91.000000
 30
0.0
 10
460.907365
 20
91.000000
 30
0.0
 10
457.707365
 20
92.847521
 30
0.0
 10
457.707365
 20
113.152479
 30
0.0
 10
475.291974
 20
123.304958
 30
0.0
 10
492.876584
 20
113.152479
 30
0.0
 10
492.876584
 20
92.847521
 30
0.0
  0
LWPOLYLINE
  5
13e
100
AcDbEntity
  8
0
 62
7
100
AcDbPolyline
 90
4
 70
1
 10
492.876584
 20
120.542563
 30
0.0
 10
481.691974
 20
127.000000
 30
0.0
 10
492.876584
 20
133.457437
 30
0.0
 10
492.876584
 20
120.542563
 30
0.0
  0
LWPOLYLINE
  5
13f
100
AcDbEntity
  8
0
 62
7
100
AcDbPolyline
 90
4
 70
1
 10
468.891974
 20
127.000000
 30
0.0
 10
457.707365
 20
120.542563
 30
0.0
 10
457.707365
 20
133.457437
 30
0.0
 10
468.891974
 20
127.000000
 30
0.0
  0
LWPOLYLINE
  5
140
100
AcDbEntity
  8
0
 62
7
100
AcDbPolyline
 90
7
 70
1
 10
492.876584
 20
161.152479
 30
0.0
 10
492.876584
 20
140.847521
 30
0.0
 10
475.291974
 20
130.695042
 30
0.0
 10
457.707365
 20
140.847521
 30
0.0
 10
457.707365
 20
161.152479
 30
0.0
 10
475.291974
 20
171.304958
 30
0.0
 10
492.876584
 20
161.152479
 30
0.0
  0
LWPOLYLINE
  5
141
100
AcDbEntity
  8
0
 62
7
100
AcDbPolyline
 90
4
 70
1
 10
492.876584
 20
168.542563
 30
0.0
 10
481.691974
 20
175.000000
 30
0.0
 10
492.876584
 20
181.457437
 30
0.0
 10
492.876584
 20
168.542563
 30
0.0
  0
LWPOLYLINE
  5
142
100
AcDbEntity
  8
0
 62
7
100
AcDbPolyline
 90
4
 70
1
 10
468.891974
 20
175.000000
 30
0.0
 10
457.707365
 20
168.542563
 30
0.0
 10
457.707365
 20
181.457437
 30
0.0
 10
468.891974
 20
175.000000
 30
0.0
  0
LWPOLYLINE
  5
143
100
AcDbEntity
  8
0
 62
7
100
AcDbPolyline
 90
8
 70
1
 10
492.876584
 20
188.847521
 30
0.0
 10
475.291974
 20
178.695042
 30
0.0
 10
457.707365
 20
188.847521
 30
0.0
 10
457.707365
 20
209.152479
 30
0.0
 10
460.907365
 20
211.000000
 30
0.0
 10
489.676584
 20
211.000000
 30
0.0
 10
492.876584
 20
209.152479
 30
0.0
 10
492.876584
 20
188.847521
 30
0.0
  0
LWPOLYLINE
  5
144
100
AcDbEntity
  8
0
 62
7
100
AcDbPolyline
 90
4
 70
1
 10
516.861194
 20
99.304958
 30
0.0
 10
531.245804
 20
91.000000
 30
0.0
 10
502.476584
 20
91.000000
 30
0.0
 10
516.861194
 20
99.304958
 30
0.0
  0
LWPOLYLINE
  5
145
100
AcDbEntity
  8
0
 62
7
100
AcDbPolyline
 90
4
 70
1
 10
534.445804
 20
96.542563
 30
0.0
 10
523.261194
 20
103.000000
 30
0.0
 10
534.445804
 20
109.457437
 30
0.0
 10
534.445804
 20
96.542563
 30
0.0
  0
LWPOLYLINE
  5
146
100
AcDbEntity
  8
0
 62
7
100
AcDbPolyline
 90
4
 70
1
 10
510.461194
 20
103.000000
 30
0.0
 10
499.276584
 20
96.542563
 30
0.0
 10
499.276584
 20
109.457437
 30
0.0
 10
510.461194
 20
103.000000
 30
0.0
  0
LWPOLYLINE
  5
147
100
AcDbEntity
  8
0
 62
7
100
AcDbPolyline
 90
7
 70
1
 10
534.445804
 20
137.152479
 30
0.0
 10
534.445804
 20
116.847521
 30
0.0
 10
516.861194
 20
106.695042
 30
0.0
 10
499.276584
 20
116.847521
 30
0.0
 10
499.276584
 20
137.152479
 30
0.0
 10
516.861194
 20
147.304958
 30
0.0
 10
534.445804
 20
137.152479
 30
0.0
  0
LWPOLYLINE
  5
148
100
AcDbEntity
  8
0
 62
7
100
AcDbPolyline
 90
4
 70
1
 10
534.445804
 20
144.542563
 30
0.0
 10
523.261194
 20
151.000000
 30
0.0
 10
534.445804
 20
157.457437
 30
0.0
 10
534.445804
 20
144.542563
 30
0.0
  0
LWPOLYLINE
  5
149
100
AcDbEntity
  8
0
 62
7
100
AcDbPolyline
 90
4
 70
1
 10
510.461194
 20
151.000000
 30
0.0
 10
499.276584
 20
144.542563
 30
0.0
 10
499.276584
 20
157.457437
 30
0.0
 10
510.461194
 20
151.000000
 30
0.0
  0
LWPOLYLINE
  5
14a
100
AcDbEntity
  8
0
 62
7
100
AcDbPolyline
 90
7
 70
1
 10
534.445804
 20
185.152479
 30
0.0
 10
534.445804
 20
164.847521
 30
0.0
 10
516.861194
 20
154.695042
 30
0.0
 10
499.276584
 20
164.847521
 30
0.0
 10
499.276584
 20
185.152479
 30
0.0
 10
516.861194
 20
195.304958
 30
0.0
 10
534.445804
 20
185.152479
 30
0.0
  0
LWPOLYLINE
  5
14b
100
AcDbEntity
  8
0
 62
7
100
AcDbPolyline
 90
4
 70
1
 10
534.445804
 20
192.542563
 30
0.0
 10
523.261194
 20
199.000000
 30
0.0
 10
534.445804
 20
205.457437
 30
0.0
 10
534.445804
 20
192.542563
 30
0.0
  0
LWPOLYLINE
  5
14c
100
AcDbEntity
  8
0
 62
7
100
AcDbPolyline
 90
4
 70
1
 10
510.461194
 20
199.000000
 30
0.0
 10
499.276584
 20
192.542563
 30
0.0
 10
499.276584
 20
205.457437
 30
0.0
 10
510.461194
 20
199.000000
 30
0.0
  0
LWPOLYLINE
  5
14d
100
AcDbEntity
  8
0
 62
7
100
AcDbPolyline
 90
4
 70
1
 10
516.861194
 20
202.695042
 30
0.0
 10
502.476584
 20
211.000000
 30
0.0
 10
531.245804
 20
211.000000
 30
0.0
 10
516.861194
 20
202.695042
 30
0.0
  0
LWPOLYLINE
  5
14e
100
AcDbEntity
  8
0
 62
7
100
AcDbPolyline
 90
8
 70
1
 10
576.015023
 20
92.847521
 30
0.0
 10
572.815023
 20
91.000000
 30
0.0
 10
544.045804
 20
91.000000
 30
0.0
 10
540.845804
 20
92.847521
 30
0.0
 10
540.845804
 20
113.152479
 30
0.0
 10
558.430413
 20
123.304958
 30
0.0
 10
576.015023
 20
113.152479
 30
0.0
 10
576.015023
 20
92.847521
 30
0.0
  0
LWPOLYLINE
  5
14f
100
AcDbEntity
  8
0
 62
7
100
AcDbPolyline
 90
4
 70
1
 10
576.015023
 20
120.542563
 30
0.0
 10
564.830413
 20
127.000000
 30
0.0
 10
576.015023
 20
133.457437
 30
0.0
 10
576.015023
 20
120.542563
 30
0.0
  0
LWPOLYLINE
  5
150
100
AcDbEntity
  8
0
 62
7
100
AcDbPolyline
 90
4
 70
1
 10
552.030413
 20
127.000000
 30
0.0
 10
540.845804
 20
120.542563
 30
0.0
 10
540.845804
 20
133.457437
 30
0.0
 10
552.030413
 20
127.000000
 30
0.0
  0
LWPOLYLINE
  5
151
100
AcDbEntity
  8
0
 62
7
100
AcDbPolyline
 90
7
 70
1
 10
576.015023
 20
161.152479
 30
0.0
 10
576.015023
 20
140.847521
 30
0.0
 10
558.430413
 20
130.695042
 30
0.0
 10
540.845804
 20
140.847521
 30
0.0
 10
540.845804
 20
161.152479
 30
0.0
 10
558.430413
 20
171.304958
 30
0.0
 10
576.015023
 20
161.152479
 30
0.0
  0
LWPOLYLINE
  5
152
100
AcDbEntity
  8
0
 62
7
100
AcDbPolyline
 90
4
 70
1
 10
576.015023
 20
168.542563
 30
0.0
 10
564.830413
 20
175.000000
 30
0.0
 10
576.015023
 20
181.457437
 30
0.0
 10
576.015023
 20
168.542563
 30
0.0
  0
LWPOLYLINE
  5
153
100
AcDbEntity
  8
0
 62
7
100
AcDbPolyline
 90
4
 70
1
 10
552.030413
 20
175.000000
 30
0.0
 10
540.845804
 20
168.542563
 30
0.0
 10
540.845804
 20
181.457437
 30
0.0
 10
552.030413
 20
175.000000
 30
0.0
  0
LWPOLYLINE
  5
154
100
AcDbEntity
  8
0
 62
7
100
AcDbPolyline
 90
8
 70
1
 10
576.015023
 20
188.847521
 30
0.0
 10
558.430413
 20
178.695042
 30
0.0
 10
540.845804
 20
188.847521
 30
0.0
 10
540.845804
 20
209.152479
 30
0.0
 10
544.045804
 20
211.000000
 30
0.0
 10
572.815023
 20
211.000000
 30
0.0
 10
576.015023
 20
209.152479
 30
0.0
 10
576.015023
 20
188.847521
 30
0.0
  0
LWPOLYLINE
  5
155
100
AcDbEntity
  8
0
 62
7
100
AcDbPolyline
 90
4
 70
1
 10
599.999633
 20
99.304958
 30
0.0
 10
614.384242
 20
91.000000
 30
0.0
 10
585.615023
 20
91.000000
 30
0.0
 10
599.999633
 20
99.304958
 30
0.0
  0
LWPOLYLINE
  5
156
100
AcDbEntity
  8
0
 62
7
100
AcDbPolyline
 90
4
 70
1
 10
617.584242
 20
96.542563
 30
0.0
 10
606.399633
 20
103.000000
 30
0.0
 10
617.584242
 20
109.457437
 30
0.0
 10
617.584242
 20
96.542563
 30
0.0
  0
LWPOLYLINE
  5
157
100
AcDbEntity
  8
0
 62
7
100
AcDbPolyline
 90
4
 70
1
 10
593.599633
 20
103.000000
 30
0.0
 10
582.415023
 20
96.542563
 30
0.0
 10
582.415023
 20
109.457437
 30
0.0
 10
593.599633
 20
103.000000
 30
0.0
  0
LWPOLYLINE
  5
158
100
AcDbEntity
  8
0
 62
7
100
AcDbPolyline
 90
7
 70
1
 10
617.584242
 20
137.152479
 30
0.0
 10
617.584242
 20
116.847521
 30
0.0
 10
599.999633
 20
106.695042
 30
0.0
 10
582.415023
 20
116.847521
 30
0.0
 10
582.415023
 20
137.152479
 30
0.0
 10
599.999633
 20
147.304958
 30
0.0
 10
617.584242
 20
137.152479
 30
0.0
  0
LWPOLYLINE
  5
159
100
AcDbEntity
  8
0
 62
7
100
AcDbPolyline
 90
4
 70
1
 10
617.584242
 20
144.542563
 30
0.0
 10
606.399633
 20
151.000000
 30
0.0
 10
617.584242
 20
157.457437
 30
0.0
 10
617.584242
 20
144.542563
 30
0.0
  0
LWPOLYLINE
  5
15a
100
AcDbEntity
  8
0
 62
7
100
AcDbPolyline
 90
4
 70
1
 10
593.599633
 20
151.000000
 30
0.0
 10
582.415023
 20
144.542563
 30
0.0
 10
582.415023
 20
157.457437
 30
0.0
 10
593.599633
 20
151.000000
 30
0.0
  0
LWPOLYLINE
  5
15b
100
AcDbEntity
  8
0
 62
7
100
AcDbPolyline
 90
7
 70
1
 10
617.584242
 20
185.152479
 30
0.0
 10
617.584242
 20
164.847521
 30
0.0
 10
599.999633
 20
154.695042
 30
0.0
 10
582.415023
 20
164.847521
 30
0.0
 10
582.415023
 20
185.152479
 30
0.0
 10
599.999633
 20
195.304958
 30
0.0
 10
617.584242
 20
185.152479
 30
0.0
  0
LWPOLYLINE
  5
15c
100
AcDbEntity
  8
0
 62
7
100
AcDbPolyline
 90
4
 70
1
 10
617.584242
 20
192.542563
 30
0.0
 10
606.399633
 20
199.000000
 30
0.0
 10
617.584242
 20
205.457437
 30
0.0
 10
617.584242
 20
192.542563
 30
0.0
  0
LWPOLYLINE
  5
15d
100
AcDbEntity
  8
0
 62
7
100
AcDbPolyline
 90
4
 70
1
 10
593.599633
 20
199.000000
 30
0.0
 10
582.415023
 20
192.542563
 30
0.0
 10
582.415023
 20
205.457437
 30
0.0
 10
593.599633
 20
199.000000
 30
0.0
  0
LWPOLYLINE
  5
15e
100
AcDbEntity
  8
0
 62
7
100
AcDbPolyline
 90
4
 70
1
 10
599.999633
 20
202.695042
 30
0.0
 10
585.615023
 20
211.000000
 30
0.0
 10
614.384242
 20
211.000000
 30
0.0
 10
599.999633
 20
202.695042
 30
0.0
  0
LWPOLYLINE
  5
15f
100
AcDbEntity
  8
0
 62
7
100
AcDbPolyline
 90
8
 70
1
 10
659.153462
 20
92.847521
 30
0.0
 10
655.953462
 20
91.000000
 30
0.0
 10
627.184242
 20
91.000000
 30
0.0
 10
623.984242
 20
92.847521
 30
0.0
 10
623.984242
 20
113.152479
 30
0.0
 10
641.568852
 20
123.304958
 30
0.0
 10
659.153462
 20
113.152479
 30
0.0
 10
659.153462
 20
92.847521
 30
0.0
  0
LWPOLYLINE
  5
160
100
AcDbEntity
  8
0
 62
7
100
AcDbPolyline
 90
4
 70
1
 10
659.153462
 20
120.542563
 30
0.0
 10
647.968852
 20
127.000000
 30
0.0
 10
659.153462
 20
133.457437
 30
0.0
 10
659.153462
 20
120.542563
 30
0.0
  0
LWPOLYLINE
  5
161
100
AcDbEntity
  8
0
 62
7
100
AcDbPolyline
 90
4
 70
1
 10
635.168852
 20
127.000000
 30
0.0
 10
623.984242
 20
120.542563
 30
0.0
 10
623.984242
 20
133.457437
 30
0.0
 10
635.168852
 20
127.000000
 30
0.0
  0
LWPOLYLINE
  5
162
100
AcDbEntity
  8
0
 62
7
100
AcDbPolyline
 90
7
 70
1
 10
659.153462
 20
161.152479
 30
0.0
 10
659.153462
 20
140.847521
 30
0.0
 10
641.568852
 20
130.695042
 30
0.0
 10
623.984242
 20
140.847521
 30
0.0
 10
623.984242
 20
161.152479
 30
0.0
 10
641.568852
 20
171.304958
 30
0.0
 10
659.153462
 20
161.152479
 30
0.0
  0
LWPOLYLINE
  5
163
100
AcDbEntity
  8
0
 62
7
100
AcDbPolyline
 90
4
 70
1
 10
659.153462
 20
168.542563
 30
0.0
 10
647.968852
 20
175.000000
 30
0.0
 10
659.153462
 20
181.457437
 30
0.0
 10
659.153462
 20
168.542563
 30
0.0
  0
LWPOLYLINE
  5
164
100
AcDbEntity
  8
0
 62
7
100
AcDbPolyline
 90
4
 70
1
 10
635.168852
 20
175.000000
 30
0.0
 10
623.984242
 20
168.542563
 30
0.0
 10
623.984242
 20
181.457437
 30
0.0
 10
635.168852
 20
175.000000
 30
0.0
  0
LWPOLYLINE
  5
165
100
AcDbEntity
  8
0
 62
7
100
AcDbPolyline
 90
8
 70
1
 10
659.153462
 20
188.847521
 30
0.0
 10
641.568852
 20
178.695042
 30
0.0
 10
623.984242
 20
188.847521
 30
0.0
 10
623.984242
 20
209.152479
 30
0.0
 10
627.184242
 20
211.000000
 30
0.0
 10
655.953462
 20
211.000000
 30
0.0
 10
659.153462
 20
209.152479
 30
0.0
 10
659.153462
 20
188.847521
 30
0.0
  0
LWPOLYLINE
  5
166
100
AcDbEntity
  8
0
 62
7
100
AcDbPolyline
 90
4
 70
1
 10
683.138071
 20
99.304958
 30
0.0
 10
697.522681
 20
91.000000
 30
0.0
 10
668.753462
 20
91.000000
 30
0.0
 10
683.138071
 20
99.304958
 30
0.0
  0
LWPOLYLINE
  5
167
100
AcDbEntity
  8
0
 62
7
100
AcDbPolyline
 90
4
 70
1
 10
700.722681
 20
96.542563
 30
0.0
 10
689.538071
 20
103.000000
 30
0.0
 10
700.722681
 20
109.457437
 30
0.0
 10
700.722681
 20
96.542563
 30
0.0
  0
LWPOLYLINE
  5
168
100
AcDbEntity
  8
0
 62
7
100
AcDbPolyline
 90
4
 70
1
 10
676.738071
 20
103.000000
 30
0.0
 10
665.553462
 20
96.542563
 30
0.0
 10
665.553462
 20
109.457437
 30
0.0
 10
676.738071
 20
103.000000
 30
0.0
  0
LWPOLYLINE
  5
169
100
AcDbEntity
  8
0
 62
7
100
AcDbPolyline
 90
7
 70
1
 10
700.722681
 20
137.152479
 30
0.0
 10
700.722681
 20
116.847521
 30
0.0
 10
683.138071
 20
106.695042
 30
0.0
 10
665.553462
 20
116.847521
 30
0.0
 10
665.553462
 20
137.152479
 30
0.0
 10
683.138071
 20
147.304958
 30
0.0
 10
700.722681
 20
137.152479
 30
0.0
  0
LWPOLYLINE
  5
16a
100
AcDbEntity
  8
0
 62
7
100
AcDbPolyline
 90
4
 70
1
 10
700.722681
 20
144.542563
 30
0.0
 10
689.538071
 20
151.000000
 30
0.0
 10
700.722681
 20
157.457437
 30
0.0
 10
700.722681
 20
144.542563
 30
0.0
  0
LWPOLYLINE
  5
16b
100
AcDbEntity
  8
0
 62
7
100
AcDbPolyline
 90
4
 70
1
 10
676.738071
 20
151.000000
 30
0.0
 10
665.553462
 20
144.542563
 30
0.0
 10
665.553462
 20
157.457437
 30
0.0
 10
676.738071
 20
151.000000
 30
0.0
  0
LWPOLYLINE
  5
16c
100
AcDbEntity
  8
0
 62
7
100
AcDbPolyline
 90
7
 70
1
 10
700.722681
 20
185.152479
 30
0.0
 10
700.722681
 20
164.847521
 30
0.0
 10
683.138071
 20
154.695042
 30
0.0
 10
665.553462
 20
164.847521
 30
0.0
 10
665.553462
 20
185.152479
 30
0.0
 10
683.138071
 20
195.304958
 30
0.0
 10
700.722681
 20
185.152479
 30
0.0
  0
LWPOLYLINE
  5
16d
100
AcDbEntity
  8
0
 62
7
100
AcDbPolyline
 90
4
 70
1
 10
700.722681
 20
192.542563
 30
0.0
 10
689.538071
 20
199.000000
 30
0.0
 10
700.722681
 20
205.457437
 30
0.0
 10
700.722681
 20
192.542563
 30
0.0
  0
LWPOLYLINE
  5
16e
100
AcDbEntity
  8
0
 62
7
100
AcDbPolyline
 90
4
 70
1
 10
676.738071
 20
199.000000
 30
0.0
 10
665.553462
 20
192.542563
 30
0.0
 10
665.553462
 20
205.457437
 30
0.0
 10
676.738071
 20
199.000000
 30
0.0
  0
LWPOLYLINE
  5
16f
100
AcDbEntity
  8
0
 62
7
100
AcDbPolyline
 90
4
 70
1
 10
683.138071
 20
202.695042
 30
0.0
 10
668.753462
 20
211.000000
 30
0.0
 10
697.522681
 20
211.000000
 30
0.0
 10
683.138071
 20
202.695042
 30
0.0
  0
LWPOLYLINE
  5
170
100
AcDbEntity
  8
0
 62
7
100
AcDbPolyline
 90
8
 70
1
 10
742.291900
 20
92.847521
 30
0.0
 10
739.091900
 20
91.000000
 30
0.0
 10
710.322681
 20
91.000000
 30
0.0
 10
707.122681
 20
92.847521
 30
0.0
 10
707.122681
 20
113.152479
 30
0.0
 10
724.707291
 20
123.304958
 30
0.0
 10
742.291900
 20
113.152479
 30
0.0
 10
742.291900
 20
92.847521
 30
0.0
  0
LWPOLYLINE
  5
171
100
AcDbEntity
  8
0
 62
7
100
AcDbPolyline
 90
4
 70
1
 10
742.291900
 20
120.542563
 30
0.0
 10
731.107291
 20
127.000000
 30
0.0
 10
742.291900
 20
133.457437
 30
0.0
 10
742.291900
 20
120.542563
 30
0.0
  0
LWPOLYLINE
  5
172
100
AcDbEntity
  8
0
 62
7
100
AcDbPolyline
 90
4
 70
1
 10
718.307291
 20
127.000000
 30
0.0
 10
707.122681
 20
120.542563
 30
0.0
 10
707.122681
 20
133.457437
 30
0.0
 10
718.307291
 20
127.000000
 30
0.0
  0
LWPOLYLINE
  5
173
100
AcDbEntity
  8
0
 62
7
100
AcDbPolyline
 90
7
 70
1
 10
742.291900
 20
161.152479
 30
0.0
 10
742.291900
 20
140.847521
 30
0.0
 10
724.707291
 20
130.695042
 30
0.0
 10
707.122681
 20
140.847521
 30
0.0
 10
707.122681
 20
161.152479
 30
0.0
 10
724.707291
 20
171.304958
 30
0.0
 10
742.291900
 20
161.152479
 30
0.0
  0
LWPOLYLINE
  5
174
100
AcDbEntity
  8
0
 62
7
100
AcDbPolyline
 90
4
 70
1
 10
742.291900
 20
168.542563
 30
0.0
 10
731.107291
 20
175.000000
 30
0.0
 10
742.291900
 20
181.457437
 30
0.0
 10
742.291900
 20
168.542563
 30
0.0
  0
LWPOLYLINE
  5
175
100
AcDbEntity
  8
0
 62
7
100
AcDbPolyline
 90
4
 70
1
 10
718.307291
 20
175.000000
 30
0.0
 10
707.122681
 20
168.542563
 30
0.0
 10
707.122681
 20
181.457437
 30
0.0
 10
718.307291
 20
175.000000
 30
0.0
  0
LWPOLYLINE
  5
176
100
AcDbEntity
  8
0
 62
7
100
AcDbPolyline
 90
8
 70
1
 10
742.291900
 20
188.847521
 30
0.0
 10
724.707291
 20
178.695042
 30
0.0
 10
707.122681
 20
188.847521
 30
0.0
 10
707.122681
 20
209.152479
 30
0.0
 10
710.322681
 20
211.000000
 30
0.0
 10
739.091900
 20
211.000000
 30
0.0
 10
742.291900
 20
209.152479
 30
0.0
 10
742.291900
 20
188.847521
 30
0.0
  0
LWPOLYLINE
  5
177
100
AcDbEntity
  8
0
 62
7
100
AcDbPolyline
 90
4
 70
1
 10
766.276510
 20
99.304958
 30
0.0
 10
780.661120
 20
91.000000
 30
0.0
 10
751.891900
 20
91.000000
 30
0.0
 10
766.276510
 20
99.304958
 30
0.0
  0
LWPOLYLINE
  5
178
100
AcDbEntity
  8
0
 62
7
100
AcDbPolyline
 90
4
 70
1
 10
783.861120
 20
96.542563
 30
0.0
 10
772.676510
 20
103.000000
 30
0.0
 10
783.861120
 20
109.457437
 30
0.0
 10
783.861120
 20
96.542563
 30
0.0
  0
LWPOLYLINE
  5
179
100
AcDbEntity
  8
0
 62
7
100
AcDbPolyline
 90
4
 70
1
 10
759.876510
 20
103.000000
 30
0.0
 10
748.691900
 20
96.542563
 30
0.0
 10
748.691900
 20
109.457437
 30
0.0
 10
759.876510
 20
103.000000
 30
0.0
  0
LWPOLYLINE
  5
17a
100
AcDbEntity
  8
0
 62
7
100
AcDbPolyline
 90
7
 70
1
 10
783.861120
 20
137.152479
 30
0.0
 10
783.861120
 20
116.847521
 30
0.0
 10
766.276510
 20
106.695042
 30
0.0
 10
748.691900
 20
116.847521
 30
0.0
 10
748.691900
 20
137.152479
 30
0.0
 10
766.276510
 20
147.304958
 30
0.0
 10
783.861120
 20
137.152479
 30
0.0
  0
LWPOLYLINE
  5
17b
100
AcDbEntity
  8
0
 62
7
100
AcDbPolyline
 90
4
 70
1
 10
783.861120
 20
144.542563
 30
0.0
 10
772.676510
 20
151.000000
 30
0.0
 10
783.861120
 20
157.457437
 30
0.0
 10
783.861120
 20
144.542563
 30
0.0
  0
LWPOLYLINE
  5
17c
100
AcDbEntity
  8
0
 62
7
100
AcDbPolyline
 90
4
 70
1
 10
759.876510
 20
151.000000
 30
0.0
 10
748.691900
 20
144.542563
 30
0.0
 10
748.691900
 20
157.457437
 30
0.0
 10
759.876510
 20
151.000000
 30
0.0
  0
LWPOLYLINE
  5
17d
100
AcDbEntity
  8
0
 62
7
100
AcDbPolyline
 90
7
 70
1
 10
783.861120
 20
185.152479
 30
0.0
 10
783.861120
 20
164.847521
 30
0.0
 10
766.276510
 20
154.695042
 30
0.0
 10
748.691900
 20
164.847521
 30
0.0
 10
748.691900
 20
185.152479
 30
0.0
 10
766.276510
 20
195.304958
 30
0.0
 10
783.861120
 20
185.152479
 30
0.0
  0
LWPOLYLINE
  5
17e
100
AcDbEntity
  8
0
 62
7
100
AcDbPolyline
 90
4
 70
1
 10
783.861120
 20
192.542563
 30
0.0
 10
772.676510
 20
199.000000
 30
0.0
 10
783.861120
 20
205.457437
 30
0.0
 10
783.861120
 20
192.542563
 30
0.0
  0
LWPOLYLINE
  5
17f
100
AcDbEntity
  8
0
 62
7
100
AcDbPolyline
 90
4
 70
1
 10
759.876510
 20
199.000000
 30
0.0
 10
748.691900
 20
192.542563
 30
0.0
 10
748.691900
 20
205.457437
 30
0.0
 10
759.876510
 20
199.000000
 30
0.0
  0
LWPOLYLINE
  5
180
100
AcDbEntity
  8
0
 62
7
100
AcDbPolyline
 90
4
 70
1
 10
766.276510
 20
202.695042
 30
0.0
 10
751.891900
 20
211.000000
 30
0.0
 10
780.661120
 20
211.000000
 30
0.0
 10
766.276510
 20
202.695042
 30
0.0
  0
LWPOLYLINE
  5
181
100
AcDbEntity
  8
0
 62
7
100
AcDbPolyline
 90
8
 70
1
 10
825.430339
 20
92.847521
 30
0.0
 10
822.230339
 20
91.000000
 30
0.0
 10
793.461120
 20
91.000000
 30
0.0
 10
790.261120
 20
92.847521
 30
0.0
 10
790.261120
 20
113.152479
 30
0.0
 10
807.845729
 20
123.304958
 30
0.0
 10
825.430339
 20
113.152479
 30
0.0
 10
825.430339
 20
92.847521
 30
0.0
  0
LWPOLYLINE
  5
182
100
AcDbEntity
  8
0
 62
7
100
AcDbPolyline
 90
4
 70
1
 10
825.430339
 20
120.542563
 30
0.0
 10
814.245729
 20
127.000000
 30
0.0
 10
825.430339
 20
133.457437
 30
0.0
 10
825.430339
 20
120.542563
 30
0.0
  0
LWPOLYLINE
  5
183
100
AcDbEntity
  8
0
 62
7
100
AcDbPolyline
 90
4
 70
1
 10
801.445729
 20
127.000000
 30
0.0
 10
790.261120
 20
120.542563
 30
0.0
 10
790.261120
 20
133.457437
 30
0.0
 10
801.445729
 20
127.000000
 30
0.0
  0
LWPOLYLINE
  5
184
100
AcDbEntity
  8
0
 62
7
100
AcDbPolyline
 90
7
 70
1
 10
825.430339
 20
161.152479
 30
0.0
 10
825.430339
 20
140.847521
 30
0.0
 10
807.845729
 20
130.695042
 30
0.0
 10
790.261120
 20
140.847521
 30
0.0
 10
790.261120
 20
161.152479
 30
0.0
 10
807.845729
 20
171.304958
 30
0.0
 10
825.430339
 20
161.152479
 30
0.0
  0
LWPOLYLINE
  5
185
100
AcDbEntity
  8
0
 62
7
100
AcDbPolyline
 90
4
 70
1
 10
825.430339
 20
168.542563
 30
0.0
 10
814.245729
 20
175.000000
 30
0.0
 10
825.430339
 20
181.457437
 30
0.0
 10
825.430339
 20
168.542563
 30
0.0
  0
LWPOLYLINE
  5
186
100
AcDbEntity
  8
0
 62
7
100
AcDbPolyline
 90
4
 70
1
 10
801.445729
 20
175.000000
 30
0.0
 10
790.261120
 20
168.542563
 30
0.0
 10
790.261120
 20
181.457437
 30
0.0
 10
801.445729
 20
175.000000
 30
0.0
  0
LWPOLYLINE
  5
187
100
AcDbEntity
  8
0
 62
7
100
AcDbPolyline
 90
8
 70
1
 10
825.430339
 20
188.847521
 30
0.0
 10
807.845729
 20
178.695042
 30
0.0
 10
790.261120
 20
188.847521
 30
0.0
 10
790.261120
 20
209.152479
 30
0.0
 10
793.461120
 20
211.000000
 30
0.0
 10
822.230339
 20
211.000000
 30
0.0
 10
825.430339
 20
209.152479
 30
0.0
 10
825.430339
 20
188.847521
 30
0.0
  0
LWPOLYLINE
  5
188
100
AcDbEntity
  8
0
 62
7
100
AcDbPolyline
 90
4
 70
1
 10
849.414949
 20
99.304958
 30
0.0
 10
863.799559
 20
91.000000
 30
0.0
 10
835.030339
 20
91.000000
 30
0.0
 10
849.414949
 20
99.304958
 30
0.0
  0
LWPOLYLINE
  5
189
100
AcDbEntity
  8
0
 62
7
100
AcDbPolyline
 90
4
 70
1
 10
866.999559
 20
96.542563
 30
0.0
 10
855.814949
 20
103.000000
 30
0.0
 10
866.999559
 20
109.457437
 30
0.0
 10
866.999559
 20
96.542563
 30
0.0
  0
LWPOLYLINE
  5
18a
100
AcDbEntity
  8
0
 62
7
100
AcDbPolyline
 90
4
 70
1
 10
843.014949
 20
103.000000
 30
0.0
 10
831.830339
 20
96.542563
 30
0.0
 10
831.830339
 20
109.457437
 30
0.0
 10
843.014949
 20
103.000000
 30
0.0
  0
LWPOLYLINE
  5
18b
100
AcDbEntity
  8
0
 62
7
100
AcDbPolyline
 90
7
 70
1
 10
866.999559
 20
137.152479
 30
0.0
 10
866.999559
 20
116.847521
 30
0.0
 10
849.414949
 20
106.695042
 30
0.0
 10
831.830339
 20
116.847521
 30
0.0
 10
831.830339
 20
137.152479
 30
0.0
 10
849.414949
 20
147.304958
 30
0.0
 10
866.999559
 20
137.152479
 30
0.0
  0
LWPOLYLINE
  5
18c
100
AcDbEntity
  8
0
 62
7
100
AcDbPolyline
 90
4
 70
1
 10
866.999559
 20
144.542563
 30
0.0
 10
855.814949
 20
151.000000
 30
0.0
 10
866.999559
 20
157.457437
 30
0.0
 10
866.999559
 20
144.542563
 30
0.0
  0
LWPOLYLINE
  5
18d
100
AcDbEntity
  8
0
 62
7
100
AcDbPolyline
 90
4
 70
1
 10
843.014949
 20
151.000000
 30
0.0
 10
831.830339
 20
144.542563
 30
0.0
 10
831.830339
 20
157.457437
 30
0.0
 10
843.014949
 20
151.000000
 30
0.0
  0
LWPOLYLINE
  5
18e
100
AcDbEntity
  8
0
 62
7
100
AcDbPolyline
 90
7
 70
1
 10
866.999559
 20
185.152479
 30
0.0
 10
866.999559
 20
164.847521
 30
0.0
 10
849.414949
 20
154.695042
 30
0.0
 10
831.830339
 20
164.847521
 30
0.0
 10
831.830339
 20
185.152479
 30
0.0
 10
849.414949
 20
195.304958
 30
0.0
 10
866.999559
 20
185.152479
 30
0.0
  0
LWPOLYLINE
  5
18f
100
AcDbEntity
  8
0
 62
7
100
AcDbPolyline
 90
4
 70
1
 10
866.999559
 20
192.542563
 30
0.0
 10
855.814949
 20
199.000000
 30
0.0
 10
866.999559
 20
205.457437
 30
0.0
 10
866.999559
 20
192.542563
 30
0.0
  0
LWPOLYLINE
  5
190
100
AcDbEntity
  8
0
 62
7
100
AcDbPolyline
 90
4
 70
1
 10
843.014949
 20
199.000000
 30
0.0
 10
831.830339
 20
192.542563
 30
0.0
 10
831.830339
 20
205.457437
 30
0.0
 10
843.014949
 20
199.000000
 30
0.0
  0
LWPOLYLINE
  5
191
100
AcDbEntity
  8
0
 62
7
100
AcDbPolyline
 90
4
 70
1
 10
849.414949
 20
202.695042
 30
0.0
 10
835.030339
 20
211.000000
 30
0.0
 10
863.799559
 20
211.000000
 30
0.0
 10
849.414949
 20
202.695042
 30
0.0
  0
LWPOLYLINE
  5
192
100
AcDbEntity
  8
0
 62
7
100
AcDbPolyline
 90
8
 70
1
 10
908.568778
 20
92.847521
 30
0.0
 10
905.368778
 20
91.000000
 30
0.0
 10
876.599559
 20
91.000000
 30
0.0
 10
873.399559
 20
92.847521
 30
0.0
 10
873.399559
 20
113.152479
 30
0.0
 10
890.984168
 20
123.304958
 30
0.0
 10
908.568778
 20
113.152479
 30
0.0
 10
908.568778
 20
92.847521
 30
0.0
  0
LWPOLYLINE
  5
193
100
AcDbEntity
  8
0
 62
7
100
AcDbPolyline
 90
4
 70
1
 10
908.568778
 20
120.542563
 30
0.0
 10
897.384168
 20
127.000000
 30
0.0
 10
908.568778
 20
133.457437
 30
0.0
 10
908.568778
 20
120.542563
 30
0.0
  0
LWPOLYLINE
  5
194
100
AcDbEntity
  8
0
 62
7
100
AcDbPolyline
 90
4
 70
1
 10
884.584168
 20
127.000000
 30
0.0
 10
873.399559
 20
120.542563
 30
0.0
 10
873.399559
 20
133.457437
 30
0.0
 10
884.584168
 20
127.000000
 30
0.0
  0
LWPOLYLINE
  5
195
100
AcDbEntity
  8
0
 62
7
100
AcDbPolyline
 90
7
 70
1
 10
908.568778
 20
161.152479
 30
0.0
 10
908.568778
 20
140.847521
 30
0.0
 10
890.984168
 20
130.695042
 30
0.0
 10
873.399559
 20
140.847521
 30
0.0
 10
873.399559
 20
161.152479
 30
0.0
 10
890.984168
 20
171.304958
 30
0.0
 10
908.568778
 20
161.152479
 30
0.0
  0
LWPOLYLINE
  5
196
100
AcDbEntity
  8
0
 62
7
100
AcDbPolyline
 90
4
 70
1
 10
908.568778
 20
168.542563
 30
0.0
 10
897.384168
 20
175.000000
 30
0.0
 10
908.568778
 20
181.457437
 30
0.0
 10
908.568778
 20
168.542563
 30
0.0
  0
LWPOLYLINE
  5
197
100
AcDbEntity
  8
0
 62
7
100
AcDbPolyline
 90
4
 70
1
 10
884.584168
 20
175.000000
 30
0.0
 10
873.399559
 20
168.542563
 30
0.0
 10
873.399559
 20
181.457437
 30
0.0
 10
884.584168
 20
175.000000
 30
0.0
  0
LWPOLYLINE
  5
198
100
AcDbEntity
  8
0
 62
7
100
AcDbPolyline
 90
8
 70
1
 10
908.568778
 20
188.847521
 30
0.0
 10
890.984168
 20
178.695042
 30
0.0
 10
873.399559
 20
188.847521
 30
0.0
 10
873.399559
 20
209.152479
 30
0.0
 10
876.599559
 20
211.000000
 30
0.0
 10
905.368778
 20
211.000000
 30
0.0
 10
908.568778
 20
209.152479
 30
0.0
 10
908.568778
 20
188.847521
 30
0.0
  0
LWPOLYLINE
  5
199
100
AcDbEntity
  8
0
 62
7
100
AcDbPolyline
 90
4
 70
1
 10
932.553388
 20
99.304958
 30
0.0
 10
946.937997
 20
91.000000
 30
0.0
 10
918.168778
 20
91.000000
 30
0.0
 10
932.553388
 20
99.304958
 30
0.0
  0
LWPOLYLINE
  5
19a
100
AcDbEntity
  8
0
 62
7
100
AcDbPolyline
 90
4
 70
1
 10
950.137997
 20
96.542563
 30
0.0
 10
938.953388
 20
103.000000
 30
0.0
 10
950.137997
 20
109.457437
 30
0.0
 10
950.137997
 20
96.542563
 30
0.0
  0
LWPOLYLINE
  5
19b
100
AcDbEntity
  8
0
 62
7
100
AcDbPolyline
 90
4
 70
1
 10
926.153388
 20
103.000000
 30
0.0
 10
914.968778
 20
96.542563
 30
0.0
 10
914.968778
 20
109.457437
 30
0.0
 10
926.153388
 20
103.000000
 30
0.0
  0
LWPOLYLINE
  5
19c
100
AcDbEntity
  8
0
 62
7
100
AcDbPolyline
 90
7
 70
1
 10
950.137997
 20
137.152479
 30
0.0
 10
950.137997
 20
116.847521
 30
0.0
 10
932.553388
 20
106.695042
 30
0.0
 10
914.968778
 20
116.847521
 30
0.0
 10
914.968778
 20
137.152479
 30
0.0
 10
932.553388
 20
147.304958
 30
0.0
 10
950.137997
 20
137.152479
 30
0.0
  0
LWPOLYLINE
  5
19d
100
AcDbEntity
  8
0
 62
7
100
AcDbPolyline
 90
4
 70
1
 10
950.137997
 20
144.542563
 30
0.0
 10
938.953388
 20
151.000000
 30
0.0
 10
950.137997
 20
157.457437
 30
0.0
 10
950.137997
 20
144.542563
 30
0.0
  0
LWPOLYLINE
  5
19e
100
AcDbEntity
  8
0
 62
7
100
AcDbPolyline
 90
4
 70
1
 10
926.153388
 20
151.000000
 30
0.0
 10
914.968778
 20
144.542563
 30
0.0
 10
914.968778
 20
157.457437
 30
0.0
 10
926.153388
 20
151.000000
 30
0.0
  0
LWPOLYLINE
  5
19f
100
AcDbEntity
  8
0
 62
7
100
AcDbPolyline
 90
7
 70
1
 10
950.137997
 20
185.152479
 30
0.0
 10
950.137997
 20
164.847521
 30
0.0
 10
932.553388
 20
154.695042
 30
0.0
 10
914.968778
 20
164.847521
 30
0.0
 10
914.968778
 20
185.152479
 30
0.0
 10
932.553388
 20
195.304958
 30
0.0
 10
950.137997
 20
185.152479
 30
0.0
  0
LWPOLYLINE
  5
1a0
100
AcDbEntity
  8
0
 62
7
100
AcDbPolyline
 90
4
 70
1
 10
950.137997
 20
192.542563
 30
0.0
 10
938.953388
 20
199.000000
 30
0.0
 10
950.137997
 20
205.457437
 30
0.0
 10
950.137997
 20
192.542563
 30
0.0
  0
LWPOLYLINE
  5
1a1
100
AcDbEntity
  8
0
 62
7
100
AcDbPolyline
 90
4
 70
1
 10
926.153388
 20
199.000000
 30
0.0
 10
914.968778
 20
192.542563
 30
0.0
 10
914.968778
 20
205.457437
 30
0.0
 10
926.153388
 20
199.000000
 30
0.0
  0
LWPOLYLINE
  5
1a2
100
AcDbEntity
  8
0
 62
7
100
AcDbPolyline
 90
4
 70
1
 10
932.553388
 20
202.695042
 30
0.0
 10
918.168778
 20
211.000000
 30
0.0
 10
946.937997
 20
211.000000
 30
0.0
 10
932.553388
 20
202.695042
 30
0.0
  0
LWPOLYLINE
  5
1a3
100
AcDbEntity
  8
0
 62
7
100
AcDbPolyline
 90
8
 70
1
 10
991.707217
 20
92.847521
 30
0.0
 10
988.507217
 20
91.000000
 30
0.0
 10
959.737997
 20
91.000000
 30
0.0
 10
956.537997
 20
92.847521
 30
0.0
 10
956.537997
 20
113.152479
 30
0.0
 10
974.122607
 20
123.304958
 30
0.0
 10
991.707217
 20
113.152479
 30
0.0
 10
991.707217
 20
92.847521
 30
0.0
  0
LWPOLYLINE
  5
1a4
100
AcDbEntity
  8
0
 62
7
100
AcDbPolyline
 90
4
 70
1
 10
991.707217
 20
120.542563
 30
0.0
 10
980.522607
 20
127.000000
 30
0.0
 10
991.707217
 20
133.457437
 30
0.0
 10
991.707217
 20
120.542563
 30
0.0
  0
LWPOLYLINE
  5
1a5
100
AcDbEntity
  8
0
 62
7
100
AcDbPolyline
 90
4
 70
1
 10
967.722607
 20
127.000000
 30
0.0
 10
956.537997
 20
120.542563
 30
0.0
 10
956.537997
 20
133.457437
 30
0.0
 10
967.722607
 20
127.000000
 30
0.0
  0
LWPOLYLINE
  5
1a6
100
AcDbEntity
  8
0
 62
7
100
AcDbPolyline
 90
7
 70
1
 10
991.707217
 20
161.152479
 30
0.0
 10
991.707217
 20
140.847521
 30
0.0
 10
974.122607
 20
130.695042
 30
0.0
 10
956.537997
 20
140.847521
 30
0.0
 10
956.537997
 20
161.152479
 30
0.0
 10
974.122607
 20
171.304958
 30
0.0
 10
991.707217
 20
161.152479
 30
0.0
  0
LWPOLYLINE
  5
1a7
100
AcDbEntity
  8
0
 62
7
100
AcDbPolyline
 90
4
 70
1
 10
991.707217
 20
168.542563
 30
0.0
 10
980.522607
 20
175.000000
 30
0.0
 10
991.707217
 20
181.457437
 30
0.0
 10
991.707217
 20
168.542563
 30
0.0
  0
LWPOLYLINE
  5
1a8
100
AcDbEntity
  8
0
 62
7
100
AcDbPolyline
 90
4
 70
1
 10
967.722607
 20
175.000000
 30
0.0
 10
956.537997
 20
168.542563
 30
0.0
 10
956.537997
 20
181.457437
 30
0.0
 10
967.722607
 20
175.000000
 30
0.0
  0
LWPOLYLINE
  5
1a9
100
AcDbEntity
  8
0
 62
7
100
AcDbPolyline
 90
8
 70
1
 10
991.707217
 20
188.847521
 30
0.0
 10
974.122607
 20
178.695042
 30
0.0
 10
956.537997
 20
188.847521
 30
0.0
 10
956.537997
 20
209.152479
 30
0.0
 10
959.737997
 20
211.000000
 30
0.0
 10
988.507217
 20
211.000000
 30
0.0
 10
991.707217
 20
209.152479
 30
0.0
 10
991.707217
 20
188.847521
 30
0.0
  0
LWPOLYLINE
  5
1aa
100
AcDbEntity
  8
0
 62
7
100
AcDbPolyline
 90
4
 70
1
 10
1015.691826
 20
99.304958
 30
0.0
 10
1030.076436
 20
91.000000
 30
0.0
 10
1001.307217
 20
91.000000
 30
0.0
 10
1015.691826
 20
99.304958
 30
0.0
  0
LWPOLYLINE
  5
1ab
100
AcDbEntity
  8
0
 62
7
100
AcDbPolyline
 90
4
 70
1
 10
1022.091826
 20
103.000000
 30
0.0
 10
1030.499633
 20
107.854249
 30
0.0
 10
1030.499633
 20
98.145751
 30
0.0
 10
1022.091826
 20
103.000000
 30
0.0
  0
LWPOLYLINE
  5
1ac
100
AcDbEntity
  8
0
 62
7
100
AcDbPolyline
 90
4
 70
1
 10
1009.291826
 20
103.000000
 30
0.0
 10
998.107217
 20
96.542563
 30
0.0
 10
998.107217
 20
109.457437
 30
0.0
 10
1009.291826
 20
103.000000
 30
0.0
  0
LWPOLYLINE
  5
1ad
100
AcDbEntity
  8
0
 62
7
100
AcDbPolyline
 90
7
 70
1
 10
1015.691826
 20
106.695042
 30
0.0
 10
998.107217
 20
116.847521
 30
0.0
 10
998.107217
 20
137.152479
 30
0.0
 10
1015.691826
 20
147.304958
 30
0.0
 10
1030.499633
 20
138.755667
 30
0.0
 10
1030.499633
 20
115.244333
 30
0.0
 10
1015.691826
 20
106.695042
 30
0.0
  0
LWPOLYLINE
  5
1ae
100
AcDbEntity
  8
0
 62
7
100
AcDbPolyline
 90
4
 70
1
 10
1022.091826
 20
151.000000
 30
0.0
 10
1030.499633
 20
155.854249
 30
0.0
 10
1030.499633
 20
146.145751
 30
0.0
 10
1022.091826
 20
151.000000
 30
0.0
  0
LWPOLYLINE
  5
1af
100
AcDbEntity
  8
0
 62
7
100
AcDbPolyline
 90
4
 70
1
 10
1009.291826
 20
151.000000
 30
0.0
 10
998.107217
 20
144.542563
 30
0.0
 10
998.107217
 20
157.457437
 30
0.0
 10
1009.291826
 20
151.000000
 30
0.0
  0
LWPOLYLINE
  5
1b0
100
AcDbEntity
  8
0
 62
7
100
AcDbPolyline
 90
7
 70
1
 10
1015.691826
 20
154.695042
 30
0.0
 10
998.107217
 20
164.847521
 30
0.0
 10
998.107217
 20
185.152479
 30
0.0
 10
1015.691826
 20
195.304958
 30
0.0
 10
1030.499633
 20
186.755667
 30
0.0
 10
1030.499633
 20
163.244333
 30
0.0
 10
1015.691826
 20
154.695042
 30
0.0
  0
LWPOLYLINE
  5
1b1
100
AcDbEntity
  8
0
 62
7
100
AcDbPolyline
 90
4
 70
1
 10
1022.091826
 20
199.000000
 30
0.0
 10
1030.499633
 20
203.854249
 30
0.0
 10
1030.499633
 20
194.145751
 30
0.0
 10
1022.091826
 20
199.000000
 30
0.0
  0
LWPOLYLINE
  5
1b2
100
AcDbEntity
  8
0
 62
7
100
AcDbPolyline
 90
4
 70
1
 10
1009.291826
 20
199.000000
 30
0.0
 10
998.107217
 20
192.542563
 30
0.0
 10
998.107217
 20
205.457437
 30
0.0
 10
1009.291826
 20
199.000000
 30
0.0
  0
LWPOLYLINE
  5
1b3
100
AcDbEntity
  8
0
 62
7
100
AcDbPolyline
 90
4
 70
1
 10
1015.691826
 20
202.695042
 30
0.0
 10
1001.307217
 20
211.000000
 30
0.0
 10
1030.076436
 20
211.000000
 30
0.0
 10
1015.691826
 20
202.695042
 30
0.0
  0
LWPOLYLINE
  5
1b4
100
AcDbEntity
  8
0
 62
7
100
AcDbPolyline
 90
5
 70
1
 10
147.499633
 20
65.000000
 30
0.0
 10
1052.499633
 20
65.000000
 30
0.0
 10
1052.499633
 20
235.000000
 30
0.0
 10
147.499633
 20
235.000000
 30
0.0
 10
147.499633
 20
65.000000
 30
0.0
  0
ENDSEC
  0
SECTION
  2
OBJECTS
  0
DICTIONARY
  5
C
330
0
100
AcDbDictionary
  3
ACAD_GROUP
350
D
  3
ACAD_MLINESTYLE
350
17
  0
DICTIONARY
  5
D
330
C
100
AcDbDictionary
  0
DICTIONARY
  5
1A
330
C
100
AcDbDictionary
  0
DICTIONARY
  5
17
330
C
100
AcDbDictionary
  3
STANDARD
350
18
  0
DICTIONARY
  5
19
330
C
100
AcDbDictionary
  0
ENDSEC
  0
EOF
