<?xml version="1.0" encoding="UTF-8" standalone="no"?>
<svg
   width="86.911758mm"
   height="62.719231mm"
   viewBox="0 0 86.911756 62.71923"
   version="1.1"
   id="svg75901"
   inkscape:version="1.4.2 (1:1.4.2+202505120737+ebf0e940d0)"
   sodipodi:docname="hat_and_holes.svg"
   xml:space="preserve"
   xmlns:inkscape="http://www.inkscape.org/namespaces/inkscape"
   xmlns:sodipodi="http://sodipodi.sourceforge.net/DTD/sodipodi-0.dtd"
   xmlns="http://www.w3.org/2000/svg"
   xmlns:svg="http://www.w3.org/2000/svg"><sodipodi:namedview
   id="namedview1"
   pagecolor="#ffffff"
   bordercolor="#666666"
   borderopacity="1.0"
   inkscape:showpageshadow="2"
   inkscape:pageopacity="0.0"
   inkscape:pagecheckerboard="0"
   inkscape:deskcolor="#d1d1d1"
   inkscape:document-units="mm"
   inkscape:zoom="2.3459286"
   inkscape:cx="153.45736"
   inkscape:cy="33.249094"
   inkscape:window-width="1920"
   inkscape:window-height="1011"
   inkscape:window-x="0"
   inkscape:window-y="0"
   inkscape:window-maximized="1"
   inkscape:current-layer="layer1" /><defs
   id="defs1" />
   
  <g
   inkscape:label="Layer 1"
   inkscape:groupmode="layer"
   id="layer1"
   transform="translate(208.56877,-330.65421)"
   style="display:inline">
     
       
      
       
   <path
   style="display:inline;mix-blend-mode:normal;vector-effect:non-scaling-stroke;fill:none;fill-opacity:1;stroke:#0000ff;stroke-width:0.264583;stroke-linecap:butt;stroke-linejoin:miter;stroke-dasharray:none;stroke-opacity:1;-inkscape-stroke:hairline"
   d="M -183.51082,380.72208 C -179.89995,382.821 -176.28908,384.91991 -172.67822,387.01883 -170.68805,383.58275 -168.69786,380.14667 -166.70769,376.71058 -171.48353,376.62302 -176.25936,376.53545 -181.0352,376.44789 -181.86041,377.87262 -182.68561,379.29735 -183.51082,380.72208 Z"
   id="hole4"
   clip-path="none"
   inkscape:label="hole4"
   transform="translate(3.1470695,1.4994994)" />
   
   <path
   style="display:inline;mix-blend-mode:normal;vector-effect:non-scaling-stroke;fill:none;fill-opacity:1;stroke:#0000ff;stroke-width:0.264583;stroke-linecap:butt;stroke-linejoin:miter;stroke-dasharray:none;stroke-opacity:1;-inkscape-stroke:hairline"
   d="M -187.82194,373.0157 C -187.83437,368.83911 -187.8468,364.66252 -187.85923,360.48594 -174.80546,360.50944 -161.75169,360.53295 -148.69792,360.55645 -148.68549,364.73304 -148.67306,368.90964 -148.66063,373.08622 -161.7144,373.06271 -174.76817,373.03921 -187.82194,373.0157 Z"
   id="hole3"
   clip-path="none"
   inkscape:label="hole3"
   transform="translate(3.1470695,1.4994994)" />
   
   <path
   style="display:inline;mix-blend-mode:normal;vector-effect:non-scaling-stroke;fill:none;fill-opacity:1;stroke:#0000ff;stroke-width:0.264583;stroke-linecap:butt;stroke-linejoin:miter;stroke-dasharray:none;stroke-opacity:1;-inkscape-stroke:hairline"
   d="M -154.99 356.532 L -152.792 352.794 L -151.673 350.94 L -150.425 349.19 L -149.576 348.462 L -148.6 347.911 L -147.535 347.547 L -146.422 347.375 L -145.3 347.404 L -144.21 347.641 L -143.192 348.093 L -142.284 348.768 L -131.125 342.35 L -132.723 340.534 L -134.535 338.93 L -136.53 337.558 L -138.675 336.438 L -140.938 335.587 L -143.287 335.026 L -145.689 334.773 L -148.114 334.847 L -150.595 335.299 L -153.022 336.027 L -155.315 337.083 L -157.396 338.52 L -159.56 340.332 L -161.449 342.412 L -163.063 344.715 L -164.404 347.199 L -169.496 356.533 L -154.99 356.532 L -154.99 356.532"
   id="hole1"
   clip-path="none"
   inkscape:label="hole1"
   transform="translate(3.1470695,1.4994994)" />
   
   <path
   style="display:inline;vector-effect:non-scaling-stroke;fill:none;stroke:#0000ff;stroke-width:0.264583;stroke-linecap:butt;stroke-linejoin:miter;stroke-dasharray:none;stroke-opacity:1;-inkscape-stroke:hairline"
   d="M -171.449 341.706 L -173.212 343.871 L -175.264 345.766 L -177.544 347.386 L -179.992 348.726 L -182.34 349.521 L -184.774 349.973 L -187.248 350.087 L -189.716 349.87 L -192.133 349.329 L -194.455 348.469 L -196.635 347.298 L -198.628 345.821 L -200.564 343.935 L -202.143 341.741 L -191.314 335.473 L -190.371 336.332 L -189.264 336.948 L -188.05 337.32 L -186.781 337.445 L -185.513 337.324 L -184.3 336.956 L -183.196 336.339 L -182.256 335.472 L -171.449 341.706 L -171.449 341.706"
   id="hole2"
   inkscape:label="circle-hole" />
   
   <path
   d="M -146.53202,354.24228 C -146.53202,362.60481 -146.53201,370.96733 -146.53201,379.32986 -151.36044,379.32986 -156.18888,379.32985 -161.01731,379.32985 -163.43153,383.51121 -165.84574,387.69257 -168.25996,391.87393 -175.5026,387.69257 -182.74525,383.51121 -189.98789,379.32985 -189.98789,370.96733 -189.98789,362.60481 -189.98789,354.24229 -194.81632,354.24229 -199.64476,354.24229 -204.47319,354.24229 -206.88741,350.06093 -209.30162,345.87958 -211.71584,341.69822 -204.47319,337.51705 -197.23053,333.33587 -189.98788,329.1547 -182.74524,333.33588 -175.5026,337.51705 -168.25996,341.69823 -165.84574,337.51705 -163.43152,333.33588 -161.0173,329.1547 -151.36044,329.1547 -141.70358,329.1547 -132.04672,329.1547 -129.63251,333.33587 -127.21829,337.51703 -124.80408,341.6982 -132.04673,345.87956 -139.28937,350.06092 -146.53202,354.24228 Z"
   class="monotile"
   id="hat"
   style="display:inline;vector-effect:non-scaling-stroke;fill:none;stroke:#000000;stroke-width:0.264583;stroke-dasharray:none;stroke-opacity:1;-inkscape-stroke:hairline"
   inkscape:label="hat"
   transform="translate(3.1470695,1.4994994)" />
   
   </g>
</svg>
