<?xml version="1.0" encoding="UTF-8" standalone="no"?>
<svg
   height="300mm"
   version="1.1"
   viewBox="0 0 1200 300"
   width="1200mm"
   id="svg201"
   sodipodi:docname="tramo1.2_medidas.svg"
   inkscape:version="1.4 (1:1.4+202410161351+e7c3feb100)"
   xmlns:inkscape="http://www.inkscape.org/namespaces/inkscape"
   xmlns:sodipodi="http://sodipodi.sourceforge.net/DTD/sodipodi-0.dtd"
   xmlns="http://www.w3.org/2000/svg"
   xmlns:svg="http://www.w3.org/2000/svg">
  <sodipodi:namedview
     id="namedview201"
     pagecolor="#ffffff"
     bordercolor="#666666"
     borderopacity="1.0"
     inkscape:showpageshadow="2"
     inkscape:pageopacity="0.0"
     inkscape:pagecheckerboard="0"
     inkscape:deskcolor="#d1d1d1"
     inkscape:document-units="mm"
     inkscape:zoom="0.18642101"
     inkscape:cx="2263.6934"
     inkscape:cy="1298.137"
     inkscape:window-width="1920"
     inkscape:window-height="1011"
     inkscape:window-x="0"
     inkscape:window-y="0"
     inkscape:window-maximized="1"
     inkscape:current-layer="svg201" />
  <defs
     id="defs1">
    <marker
       style="overflow:visible"
       id="Stop"
       refX="0"
       refY="0"
       orient="auto"
       inkscape:stockid="Stop"
       markerWidth="1"
       markerHeight="1"
       viewBox="0 0 1 1"
       inkscape:isstock="true"
       inkscape:collect="always"
       preserveAspectRatio="xMidYMid">
      <path
         style="fill:none;stroke:context-stroke;stroke-width:1"
         d="M 0,4 V -4"
         id="path203" />
    </marker>
  </defs>
  <g
     fill="none"
     stroke="blue"
     stroke-width="0.5"
     transform="translate(40.027973912981906,61.75)"
     id="g201">
    <path
       d="M 128.5181699216107,49.249999999999986 L 116.39381426862856,28.24999999999997 L 140.64252557459284,28.25 L 128.5181699216107,49.249999999999986 Z"
       id="path1" />
    <path
       d="M 128.5181699216107,112.85 L 116.39381426862855,91.85 L 140.64252557459284,91.85 L 128.5181699216107,112.85 Z"
       id="path2" />
    <path
       d="M 128.5181699216107,63.650000000000006 L 140.64252557459284,84.65000000000002 L 116.39381426862855,84.65 L 128.5181699216107,63.650000000000006 Z"
       id="path3" />
    <path
       d="M 146.8779084818408,81.04999999999998 L 134.75355282885866,60.04999999999998 L 159.00226413482292,60.05000000000001 L 146.8779084818408,81.04999999999998 Z"
       id="path4" />
    <path
       d="M 146.8779084818408,31.850000000000023 L 159.00226413482292,52.85000000000001 L 134.75355282885866,52.849999999999994 L 146.8779084818408,31.850000000000023 Z"
       id="path5" />
    <path
       d="M 165.23764704207088,49.24999999999997 L 153.11329138908877,28.24999999999997 L 177.362002695053,28.25 L 165.23764704207088,49.24999999999997 Z"
       id="path6" />
    <path
       d="M 128.5181699216107,127.25000000000001 L 140.64252557459284,148.25 L 116.39381426862856,148.25 L 128.5181699216107,127.25000000000001 Z"
       id="path7" />
    <path
       d="M 146.8779084818408,144.64999999999998 L 134.7535528288587,123.65 L 159.00226413482292,123.65 L 146.8779084818408,144.64999999999998 Z"
       id="path8" />
    <path
       d="M 146.8779084818408,95.45000000000002 L 159.00226413482292,116.45000000000002 L 134.75355282885866,116.44999999999999 L 146.8779084818408,95.45000000000002 Z"
       id="path9" />
    <path
       d="M 165.23764704207088,112.84999999999998 L 153.11329138908874,91.85 L 177.362002695053,91.85 L 165.23764704207088,112.84999999999998 Z"
       id="path10" />
    <path
       d="M 165.23764704207088,63.65000000000002 L 177.362002695053,84.65000000000002 L 153.11329138908874,84.65 L 165.23764704207088,63.65000000000002 Z"
       id="path11" />
    <path
       d="M 183.59738560230096,81.04999999999998 L 171.47302994931883,60.04999999999998 L 195.72174125528312,60.05000000000001 L 183.59738560230096,81.04999999999998 Z"
       id="path12" />
    <path
       d="M 183.597385602301,31.850000000000023 L 195.72174125528312,52.85000000000001 L 171.47302994931883,52.849999999999994 L 183.597385602301,31.850000000000023 Z"
       id="path13" />
    <path
       d="M 201.95712416253107,49.24999999999997 L 189.83276850954897,28.24999999999997 L 214.0814798155132,28.25 L 201.95712416253107,49.24999999999997 Z"
       id="path14" />
    <path
       d="M 165.23764704207088,127.25000000000003 L 177.36200269505298,148.25 L 153.11329138908877,148.25 L 165.23764704207088,127.25000000000003 Z"
       id="path15" />
    <path
       d="M 183.59738560230096,144.64999999999998 L 171.47302994931886,123.65 L 195.72174125528312,123.65 L 183.59738560230096,144.64999999999998 Z"
       id="path16" />
    <path
       d="M 183.597385602301,95.45000000000002 L 195.72174125528312,116.45000000000002 L 171.47302994931886,116.44999999999999 L 183.597385602301,95.45000000000002 Z"
       id="path17" />
    <path
       d="M 201.95712416253107,112.84999999999998 L 189.83276850954894,91.85 L 214.0814798155132,91.85 L 201.95712416253107,112.84999999999998 Z"
       id="path18" />
    <path
       d="M 201.9571241625311,63.65000000000002 L 214.08147981551323,84.65000000000002 L 189.83276850954897,84.65 L 201.9571241625311,63.65000000000002 Z"
       id="path19" />
    <path
       d="M 220.3168627227612,81.04999999999998 L 208.19250706977905,60.04999999999998 L 232.44121837574332,60.05000000000001 L 220.3168627227612,81.04999999999998 Z"
       id="path20" />
    <path
       d="M 220.3168627227612,31.850000000000023 L 232.44121837574332,52.85000000000001 L 208.19250706977905,52.849999999999994 L 220.3168627227612,31.850000000000023 Z"
       id="path21" />
    <path
       d="M 238.67660128299127,49.24999999999997 L 226.55224563000917,28.24999999999997 L 250.80095693597343,28.25 L 238.67660128299127,49.24999999999997 Z"
       id="path22" />
    <path
       d="M 201.9571241625311,127.25000000000003 L 214.0814798155132,148.25 L 189.83276850954894,148.25 L 201.9571241625311,127.25000000000003 Z"
       id="path23" />
    <path
       d="M 220.3168627227612,144.64999999999998 L 208.19250706977908,123.65 L 232.44121837574332,123.65 L 220.3168627227612,144.64999999999998 Z"
       id="path24" />
    <path
       d="M 220.3168627227612,95.45000000000002 L 232.44121837574332,116.45000000000002 L 208.19250706977905,116.44999999999999 L 220.3168627227612,95.45000000000002 Z"
       id="path25" />
    <path
       d="M 238.67660128299127,112.84999999999998 L 226.55224563000914,91.85 L 250.80095693597343,91.85 L 238.67660128299127,112.84999999999998 Z"
       id="path26" />
    <path
       d="M 238.67660128299127,63.65000000000002 L 250.8009569359734,84.65000000000002 L 226.55224563000914,84.65 L 238.67660128299127,63.65000000000002 Z"
       id="path27" />
    <path
       d="M 257.03633984322136,81.04999999999998 L 244.91198419023922,60.04999999999998 L 269.1606954962035,60.05000000000001 L 257.03633984322136,81.04999999999998 Z"
       id="path28" />
    <path
       d="M 257.0363398432214,31.849999999999994 L 269.1606954962035,52.85000000000001 L 244.91198419023925,52.849999999999994 L 257.0363398432214,31.849999999999994 Z"
       id="path29" />
    <path
       d="M 275.3960784034515,49.24999999999997 L 263.2717227504694,28.24999999999997 L 287.5204340564336,28.25 L 275.3960784034515,49.24999999999997 Z"
       id="path30" />
    <path
       d="M 238.67660128299127,127.25000000000003 L 250.80095693597337,148.25 L 226.55224563000917,148.25 L 238.67660128299127,127.25000000000003 Z"
       id="path31" />
    <path
       d="M 257.03633984322136,144.64999999999998 L 244.91198419023925,123.65 L 269.1606954962035,123.65 L 257.03633984322136,144.64999999999998 Z"
       id="path32" />
    <path
       d="M 257.0363398432214,95.45000000000002 L 269.1606954962035,116.45000000000002 L 244.91198419023928,116.44999999999999 L 257.0363398432214,95.45000000000002 Z"
       id="path33" />
    <path
       d="M 275.3960784034515,112.84999999999997 L 263.2717227504694,91.85 L 287.5204340564336,91.85 L 275.3960784034515,112.84999999999997 Z"
       id="path34" />
    <path
       d="M 275.3960784034515,63.65000000000002 L 287.5204340564336,84.65000000000002 L 263.2717227504694,84.65 L 275.3960784034515,63.65000000000002 Z"
       id="path35" />
    <path
       d="M 293.7558169636816,81.04999999999998 L 281.6314613106995,60.04999999999998 L 305.88017261666374,60.05000000000001 L 293.7558169636816,81.04999999999998 Z"
       id="path36" />
    <path
       d="M 293.7558169636816,31.850000000000023 L 305.8801726166637,52.85000000000001 L 281.6314613106995,52.849999999999994 L 293.7558169636816,31.850000000000023 Z"
       id="path37" />
    <path
       d="M 312.11555552391167,49.24999999999997 L 299.99119987092956,28.24999999999997 L 324.2399111768938,28.25 L 312.11555552391167,49.24999999999997 Z"
       id="path38" />
    <path
       d="M 275.3960784034515,127.25000000000003 L 287.5204340564336,148.25 L 263.2717227504694,148.25 L 275.3960784034515,127.25000000000003 Z"
       id="path39" />
    <path
       d="M 293.7558169636816,144.64999999999998 L 281.6314613106995,123.65 L 305.8801726166637,123.65 L 293.7558169636816,144.64999999999998 Z"
       id="path40" />
    <path
       d="M 293.7558169636816,95.45000000000002 L 305.8801726166637,116.45000000000002 L 281.6314613106995,116.44999999999999 L 293.7558169636816,95.45000000000002 Z"
       id="path41" />
    <path
       d="M 312.11555552391167,112.84999999999997 L 299.99119987092956,91.85 L 324.23991117689377,91.85 L 312.11555552391167,112.84999999999997 Z"
       id="path42" />
    <path
       d="M 312.1155555239117,63.65000000000002 L 324.2399111768938,84.65000000000002 L 299.9911998709296,84.65 L 312.1155555239117,63.65000000000002 Z"
       id="path43" />
    <path
       d="M 330.4752940841418,81.04999999999998 L 318.3509384311597,60.04999999999998 L 342.5996497371239,60.05000000000001 L 330.4752940841418,81.04999999999998 Z"
       id="path44" />
    <path
       d="M 330.4752940841418,31.850000000000023 L 342.5996497371239,52.85000000000001 L 318.3509384311597,52.849999999999994 L 330.4752940841418,31.850000000000023 Z"
       id="path45" />
    <path
       d="M 348.8350326443719,49.24999999999997 L 336.7106769913898,28.24999999999997 L 360.959388297354,28.25 L 348.8350326443719,49.24999999999997 Z"
       id="path46" />
    <path
       d="M 312.11555552391167,127.25000000000003 L 324.23991117689377,148.25 L 299.99119987092956,148.25 L 312.11555552391167,127.25000000000003 Z"
       id="path47" />
    <path
       d="M 330.47529408414175,144.64999999999998 L 318.35093843115965,123.65 L 342.59964973712385,123.65 L 330.47529408414175,144.64999999999998 Z"
       id="path48" />
    <path
       d="M 330.47529408414175,95.45000000000002 L 342.59964973712385,116.45000000000002 L 318.35093843115965,116.44999999999999 L 330.47529408414175,95.45000000000002 Z"
       id="path49" />
    <path
       d="M 348.83503264437184,112.84999999999997 L 336.71067699138973,91.85 L 360.95938829735394,91.85 L 348.83503264437184,112.84999999999997 Z"
       id="path50" />
    <path
       d="M 348.8350326443719,63.65000000000002 L 360.959388297354,84.65000000000002 L 336.7106769913898,84.65 L 348.8350326443719,63.65000000000002 Z"
       id="path51" />
    <path
       d="M 367.194771204602,81.04999999999998 L 355.0704155516199,60.04999999999998 L 379.3191268575841,60.05000000000001 L 367.194771204602,81.04999999999998 Z"
       id="path52" />
    <path
       d="M 367.194771204602,31.850000000000023 L 379.3191268575841,52.85000000000001 L 355.0704155516199,52.849999999999994 L 367.194771204602,31.850000000000023 Z"
       id="path53" />
    <path
       d="M 385.55450976483206,49.24999999999997 L 373.43015411184996,28.24999999999997 L 397.67886541781417,28.25 L 385.55450976483206,49.24999999999997 Z"
       id="path54" />
    <path
       d="M 348.83503264437184,127.25000000000003 L 360.95938829735394,148.25 L 336.71067699138973,148.25 L 348.83503264437184,127.25000000000003 Z"
       id="path55" />
    <path
       d="M 367.1947712046019,144.64999999999998 L 355.0704155516198,123.65 L 379.319126857584,123.65 L 367.1947712046019,144.64999999999998 Z"
       id="path56" />
    <path
       d="M 367.1947712046019,95.45000000000002 L 379.319126857584,116.45000000000002 L 355.0704155516198,116.44999999999999 L 367.1947712046019,95.45000000000002 Z"
       id="path57" />
    <path
       d="M 385.554509764832,112.84999999999997 L 373.4301541118499,91.85 L 397.6788654178141,91.85 L 385.554509764832,112.84999999999997 Z"
       id="path58" />
    <path
       d="M 385.55450976483206,63.65000000000002 L 397.67886541781417,84.65000000000002 L 373.43015411184996,84.65 L 385.55450976483206,63.65000000000002 Z"
       id="path59" />
    <path
       d="M 403.91424832506215,81.04999999999998 L 391.78989267208004,60.04999999999998 L 416.03860397804425,60.05000000000001 L 403.91424832506215,81.04999999999998 Z"
       id="path60" />
    <path
       d="M 403.91424832506215,31.850000000000023 L 416.03860397804425,52.85000000000001 L 391.78989267208004,52.849999999999994 L 403.91424832506215,31.850000000000023 Z"
       id="path61" />
    <path
       d="M 422.27398688529223,49.24999999999997 L 410.1496312323101,28.24999999999997 L 434.39834253827433,28.25 L 422.27398688529223,49.24999999999997 Z"
       id="path62" />
    <path
       d="M 385.55450976483206,127.25000000000003 L 397.67886541781417,148.25 L 373.43015411184996,148.25 L 385.55450976483206,127.25000000000003 Z"
       id="path63" />
    <path
       d="M 403.91424832506215,144.64999999999998 L 391.78989267208004,123.65 L 416.0386039780443,123.65 L 403.91424832506215,144.64999999999998 Z"
       id="path64" />
    <path
       d="M 403.9142483250622,95.45000000000002 L 416.0386039780443,116.45000000000002 L 391.7898926720801,116.44999999999999 L 403.9142483250622,95.45000000000002 Z"
       id="path65" />
    <path
       d="M 422.2739868852923,112.84999999999997 L 410.1496312323102,91.85 L 434.3983425382744,91.85 L 422.2739868852923,112.84999999999997 Z"
       id="path66" />
    <path
       d="M 422.2739868852923,63.65000000000002 L 434.3983425382744,84.65000000000002 L 410.1496312323102,84.65 L 422.2739868852923,63.65000000000002 Z"
       id="path67" />
    <path
       d="M 440.6337254455224,81.04999999999998 L 428.50936979254027,60.04999999999998 L 452.75808109850453,60.05000000000001 L 440.6337254455224,81.04999999999998 Z"
       id="path68" />
    <path
       d="M 440.6337254455224,31.850000000000023 L 452.7580810985045,52.85000000000001 L 428.50936979254027,52.849999999999994 L 440.6337254455224,31.850000000000023 Z"
       id="path69" />
    <path
       d="M 458.99346400575246,49.24999999999997 L 446.86910835277035,28.24999999999997 L 471.1178196587346,28.25 L 458.99346400575246,49.24999999999997 Z"
       id="path70" />
    <path
       d="M 422.2739868852923,127.25000000000003 L 434.3983425382744,148.25 L 410.1496312323102,148.25 L 422.2739868852923,127.25000000000003 Z"
       id="path71" />
    <path
       d="M 440.6337254455224,144.64999999999998 L 428.50936979254027,123.65 L 452.7580810985045,123.65 L 440.6337254455224,144.64999999999998 Z"
       id="path72" />
    <path
       d="M 440.6337254455224,95.45000000000002 L 452.7580810985045,116.45000000000002 L 428.50936979254027,116.44999999999999 L 440.6337254455224,95.45000000000002 Z"
       id="path73" />
    <path
       d="M 458.99346400575246,112.84999999999997 L 446.86910835277035,91.85 L 471.11781965873456,91.85 L 458.99346400575246,112.84999999999997 Z"
       id="path74" />
    <path
       d="M 458.9934640057525,63.65000000000002 L 471.1178196587346,84.65000000000002 L 446.8691083527704,84.65 L 458.9934640057525,63.65000000000002 Z"
       id="path75" />
    <path
       d="M 477.3532025659826,81.04999999999998 L 465.2288469130005,60.04999999999998 L 489.4775582189647,60.05000000000001 L 477.3532025659826,81.04999999999998 Z"
       id="path76" />
    <path
       d="M 477.3532025659826,31.850000000000023 L 489.4775582189647,52.85000000000001 L 465.2288469130005,52.849999999999994 L 477.3532025659826,31.850000000000023 Z"
       id="path77" />
    <path
       d="M 495.7129411262127,49.24999999999997 L 483.5885854732306,28.24999999999997 L 507.83729677919484,28.25 L 495.7129411262127,49.24999999999997 Z"
       id="path78" />
    <path
       d="M 458.99346400575246,127.25000000000003 L 471.11781965873456,148.25 L 446.86910835277035,148.25 L 458.99346400575246,127.25000000000003 Z"
       id="path79" />
    <path
       d="M 477.35320256598254,144.64999999999998 L 465.22884691300044,123.65 L 489.47755821896465,123.65 L 477.35320256598254,144.64999999999998 Z"
       id="path80" />
    <path
       d="M 477.35320256598254,95.45000000000002 L 489.47755821896465,116.45000000000002 L 465.22884691300044,116.44999999999999 L 477.35320256598254,95.45000000000002 Z"
       id="path81" />
    <path
       d="M 495.7129411262126,112.84999999999997 L 483.5885854732305,91.85 L 507.83729677919473,91.85 L 495.7129411262126,112.84999999999997 Z"
       id="path82" />
    <path
       d="M 495.7129411262127,63.650000000000034 L 507.83729677919473,84.65000000000002 L 483.5885854732306,84.65 L 495.7129411262127,63.650000000000034 Z"
       id="path83" />
    <path
       d="M 514.0726796864427,81.05000000000003 L 501.9483240334606,60.04999999999998 L 526.1970353394249,60.05000000000001 L 514.0726796864427,81.05000000000003 Z"
       id="path84" />
    <path
       d="M 514.0726796864428,31.849999999999966 L 526.1970353394249,52.85000000000001 L 501.94832403346066,52.849999999999994 L 514.0726796864428,31.849999999999966 Z"
       id="path85" />
    <path
       d="M 532.4324182466728,49.25000000000007 L 520.3080625936907,28.24999999999997 L 544.556773899655,28.25 L 532.4324182466728,49.25000000000007 Z"
       id="path86" />
    <path
       d="M 495.7129411262126,127.25000000000003 L 507.83729677919473,148.25 L 483.5885854732305,148.25 L 495.7129411262126,127.25000000000003 Z"
       id="path87" />
    <path
       d="M 514.0726796864427,144.65000000000003 L 501.9483240334606,123.65 L 526.1970353394249,123.65 L 514.0726796864427,144.65000000000003 Z"
       id="path88" />
    <path
       d="M 514.0726796864427,95.44999999999997 L 526.1970353394249,116.45000000000002 L 501.9483240334606,116.44999999999999 L 514.0726796864427,95.44999999999997 Z"
       id="path89" />
    <path
       d="M 532.4324182466728,112.85000000000008 L 520.3080625936906,91.85 L 544.556773899655,91.85 L 532.4324182466728,112.85000000000008 Z"
       id="path90" />
    <path
       d="M 532.4324182466728,63.64999999999992 L 544.556773899655,84.65000000000002 L 520.3080625936906,84.65 L 532.4324182466728,63.64999999999992 Z"
       id="path91" />
    <path
       d="M 550.7921568069029,81.05000000000008 L 538.6678011539207,60.04999999999998 L 562.9165124598851,60.05000000000001 L 550.7921568069029,81.05000000000008 Z"
       id="path92" />
    <path
       d="M 550.792156806903,31.84999999999991 L 562.9165124598851,52.85000000000001 L 538.6678011539208,52.849999999999994 L 550.792156806903,31.84999999999991 Z"
       id="path93" />
    <path
       d="M 569.151895367133,49.25000000000007 L 557.0275397141509,28.24999999999997 L 581.2762510201152,28.25 L 569.151895367133,49.25000000000007 Z"
       id="path94" />
    <path
       d="M 532.4324182466729,127.24999999999993 L 544.5567738996551,148.25 L 520.3080625936907,148.25 L 532.4324182466729,127.24999999999993 Z"
       id="path95" />
    <path
       d="M 550.792156806903,144.6500000000001 L 538.6678011539208,123.65 L 562.9165124598852,123.65 L 550.792156806903,144.6500000000001 Z"
       id="path96" />
    <path
       d="M 550.792156806903,95.44999999999992 L 562.9165124598852,116.45000000000002 L 538.6678011539208,116.44999999999999 L 550.792156806903,95.44999999999992 Z"
       id="path97" />
    <path
       d="M 569.1518953671331,112.85000000000008 L 557.0275397141509,91.85 L 581.2762510201153,91.85 L 569.1518953671331,112.85000000000008 Z"
       id="path98" />
    <path
       d="M 569.1518953671331,63.64999999999992 L 581.2762510201153,84.65000000000002 L 557.0275397141509,84.65 L 569.1518953671331,63.64999999999992 Z"
       id="path99" />
    <path
       d="M 587.5116339273632,81.05000000000008 L 575.387278274381,60.04999999999998 L 599.6359895803454,60.05000000000001 L 587.5116339273632,81.05000000000008 Z"
       id="path100" />
    <path
       d="M 587.5116339273632,31.84999999999991 L 599.6359895803454,52.85000000000001 L 575.3872782743811,52.849999999999994 L 587.5116339273632,31.84999999999991 Z"
       id="path101" />
    <path
       d="M 605.8713724875934,49.25000000000006 L 593.7470168346111,28.24999999999997 L 617.9957281405755,28.25 L 605.8713724875934,49.25000000000006 Z"
       id="path102" />
    <path
       d="M 569.1518953671331,127.24999999999993 L 581.2762510201153,148.25 L 557.0275397141509,148.25 L 569.1518953671331,127.24999999999993 Z"
       id="path103" />
    <path
       d="M 587.5116339273632,144.6500000000001 L 575.387278274381,123.65 L 599.6359895803454,123.65 L 587.5116339273632,144.6500000000001 Z"
       id="path104" />
    <path
       d="M 587.5116339273632,95.44999999999992 L 599.6359895803454,116.45000000000002 L 575.387278274381,116.44999999999999 L 587.5116339273632,95.44999999999992 Z"
       id="path105" />
    <path
       d="M 605.8713724875932,112.85000000000008 L 593.747016834611,91.85 L 617.9957281405755,91.85 L 605.8713724875932,112.85000000000008 Z"
       id="path106" />
    <path
       d="M 605.8713724875932,63.64999999999992 L 617.9957281405755,84.65000000000002 L 593.747016834611,84.65 L 605.8713724875932,63.64999999999992 Z"
       id="path107" />
    <path
       d="M 624.2311110478233,81.05000000000008 L 612.1067553948411,60.04999999999998 L 636.3554667008056,60.05000000000001 L 624.2311110478233,81.05000000000008 Z"
       id="path108" />
    <path
       d="M 624.2311110478233,31.84999999999991 L 636.3554667008056,52.85000000000001 L 612.1067553948412,52.849999999999994 L 624.2311110478233,31.84999999999991 Z"
       id="path109" />
    <path
       d="M 642.5908496080535,49.25000000000006 L 630.4664939550713,28.24999999999997 L 654.7152052610356,28.25 L 642.5908496080535,49.25000000000006 Z"
       id="path110" />
    <path
       d="M 605.8713724875932,127.24999999999993 L 617.9957281405755,148.25 L 593.747016834611,148.25 L 605.8713724875932,127.24999999999993 Z"
       id="path111" />
    <path
       d="M 624.2311110478233,144.6500000000001 L 612.1067553948411,123.65 L 636.3554667008056,123.65 L 624.2311110478233,144.6500000000001 Z"
       id="path112" />
    <path
       d="M 624.2311110478233,95.44999999999992 L 636.3554667008056,116.45000000000002 L 612.1067553948411,116.44999999999999 L 624.2311110478233,95.44999999999992 Z"
       id="path113" />
    <path
       d="M 642.5908496080534,112.85000000000008 L 630.4664939550712,91.85 L 654.7152052610356,91.85 L 642.5908496080534,112.85000000000008 Z"
       id="path114" />
    <path
       d="M 642.5908496080534,63.64999999999992 L 654.7152052610356,84.65000000000002 L 630.4664939550712,84.65 L 642.5908496080534,63.64999999999992 Z"
       id="path115" />
    <path
       d="M 660.9505881682835,81.05000000000008 L 648.8262325153013,60.04999999999998 L 673.0749438212657,60.05000000000001 L 660.9505881682835,81.05000000000008 Z"
       id="path116" />
    <path
       d="M 660.9505881682835,31.84999999999991 L 673.0749438212657,52.85000000000001 L 648.8262325153014,52.849999999999994 L 660.9505881682835,31.84999999999991 Z"
       id="path117" />
    <path
       d="M 679.3103267285137,49.25000000000006 L 667.1859710755315,28.24999999999997 L 691.4346823814958,28.25 L 679.3103267285137,49.25000000000006 Z"
       id="path118" />
    <path
       d="M 642.5908496080534,127.24999999999993 L 654.7152052610356,148.25 L 630.4664939550712,148.25 L 642.5908496080534,127.24999999999993 Z"
       id="path119" />
    <path
       d="M 660.9505881682835,144.6500000000001 L 648.8262325153013,123.65 L 673.0749438212657,123.65 L 660.9505881682835,144.6500000000001 Z"
       id="path120" />
    <path
       d="M 660.9505881682835,95.44999999999992 L 673.0749438212657,116.45000000000002 L 648.8262325153013,116.44999999999999 L 660.9505881682835,95.44999999999992 Z"
       id="path121" />
    <path
       d="M 679.3103267285136,112.85000000000008 L 667.1859710755314,91.85 L 691.4346823814958,91.85 L 679.3103267285136,112.85000000000008 Z"
       id="path122" />
    <path
       d="M 679.3103267285136,63.64999999999992 L 691.4346823814958,84.65000000000002 L 667.1859710755314,84.65 L 679.3103267285136,63.64999999999992 Z"
       id="path123" />
    <path
       d="M 697.6700652887437,81.05000000000008 L 685.5457096357615,60.04999999999998 L 709.7944209417259,60.05000000000001 L 697.6700652887437,81.05000000000008 Z"
       id="path124" />
    <path
       d="M 697.6700652887437,31.84999999999991 L 709.7944209417259,52.85000000000001 L 685.5457096357616,52.849999999999994 L 697.6700652887437,31.84999999999991 Z"
       id="path125" />
    <path
       d="M 716.0298038489739,49.25000000000006 L 703.9054481959917,28.24999999999997 L 728.154159501956,28.25 L 716.0298038489739,49.25000000000006 Z"
       id="path126" />
    <path
       d="M 679.3103267285136,127.24999999999993 L 691.4346823814958,148.25 L 667.1859710755314,148.25 L 679.3103267285136,127.24999999999993 Z"
       id="path127" />
    <path
       d="M 697.6700652887437,144.6500000000001 L 685.5457096357615,123.65 L 709.7944209417259,123.65 L 697.6700652887437,144.6500000000001 Z"
       id="path128" />
    <path
       d="M 697.6700652887437,95.44999999999992 L 709.7944209417259,116.45000000000002 L 685.5457096357615,116.44999999999999 L 697.6700652887437,95.44999999999992 Z"
       id="path129" />
    <path
       d="M 716.0298038489738,112.85000000000008 L 703.9054481959915,91.85 L 728.154159501956,91.85 L 716.0298038489738,112.85000000000008 Z"
       id="path130" />
    <path
       d="M 716.0298038489738,63.64999999999992 L 728.154159501956,84.65000000000002 L 703.9054481959915,84.65 L 716.0298038489738,63.64999999999992 Z"
       id="path131" />
    <path
       d="M 734.3895424092038,81.05000000000008 L 722.2651867562216,60.04999999999998 L 746.5138980621861,60.05000000000001 L 734.3895424092038,81.05000000000008 Z"
       id="path132" />
    <path
       d="M 734.3895424092038,31.84999999999991 L 746.5138980621861,52.85000000000001 L 722.2651867562217,52.849999999999994 L 734.3895424092038,31.84999999999991 Z"
       id="path133" />
    <path
       d="M 752.749280969434,49.25000000000006 L 740.6249253164518,28.24999999999997 L 764.8736366224161,28.25 L 752.749280969434,49.25000000000006 Z"
       id="path134" />
    <path
       d="M 716.0298038489739,127.24999999999993 L 728.1541595019561,148.25 L 703.9054481959917,148.25 L 716.0298038489739,127.24999999999993 Z"
       id="path135" />
    <path
       d="M 734.389542409204,144.6500000000001 L 722.2651867562217,123.65 L 746.5138980621862,123.65 L 734.389542409204,144.6500000000001 Z"
       id="path136" />
    <path
       d="M 734.389542409204,95.44999999999992 L 746.5138980621862,116.45000000000002 L 722.2651867562217,116.44999999999999 L 734.389542409204,95.44999999999992 Z"
       id="path137" />
    <path
       d="M 752.749280969434,112.85000000000008 L 740.6249253164518,91.85 L 764.8736366224163,91.85 L 752.749280969434,112.85000000000008 Z"
       id="path138" />
    <path
       d="M 752.749280969434,63.64999999999992 L 764.8736366224163,84.65000000000002 L 740.6249253164518,84.65 L 752.749280969434,63.64999999999992 Z"
       id="path139" />
    <path
       d="M 771.1090195296641,81.05000000000008 L 758.9846638766819,60.04999999999998 L 783.2333751826463,60.05000000000001 L 771.1090195296641,81.05000000000008 Z"
       id="path140" />
    <path
       d="M 771.1090195296642,31.84999999999991 L 783.2333751826463,52.85000000000001 L 758.984663876682,52.849999999999994 L 771.1090195296642,31.84999999999991 Z"
       id="path141" />
    <path
       d="M 789.4687580898942,49.25000000000007 L 777.3444024369121,28.24999999999997 L 801.5931137428764,28.25 L 789.4687580898942,49.25000000000007 Z"
       id="path142" />
    <path
       d="M 752.749280969434,127.24999999999993 L 764.8736366224163,148.25 L 740.6249253164518,148.25 L 752.749280969434,127.24999999999993 Z"
       id="path143" />
    <path
       d="M 771.1090195296641,144.6500000000001 L 758.9846638766819,123.65 L 783.2333751826463,123.65 L 771.1090195296641,144.6500000000001 Z"
       id="path144" />
    <path
       d="M 771.1090195296641,95.44999999999992 L 783.2333751826463,116.45000000000002 L 758.9846638766819,116.44999999999999 L 771.1090195296641,95.44999999999992 Z"
       id="path145" />
    <path
       d="M 789.4687580898942,112.85000000000008 L 777.344402436912,91.85 L 801.5931137428764,91.85 L 789.4687580898942,112.85000000000008 Z"
       id="path146" />
    <path
       d="M 789.4687580898942,63.64999999999992 L 801.5931137428764,84.65000000000002 L 777.344402436912,84.65 L 789.4687580898942,63.64999999999992 Z"
       id="path147" />
    <path
       d="M 807.8284966501243,81.05000000000008 L 795.7041409971421,60.04999999999998 L 819.9528523031065,60.05000000000001 L 807.8284966501243,81.05000000000008 Z"
       id="path148" />
    <path
       d="M 807.8284966501244,31.84999999999991 L 819.9528523031065,52.85000000000001 L 795.7041409971422,52.849999999999994 L 807.8284966501244,31.84999999999991 Z"
       id="path149" />
    <path
       d="M 826.1882352103544,49.25000000000007 L 814.0638795573723,28.24999999999997 L 838.3125908633366,28.25 L 826.1882352103544,49.25000000000007 Z"
       id="path150" />
    <path
       d="M 789.4687580898942,127.24999999999993 L 801.5931137428764,148.25 L 777.344402436912,148.25 L 789.4687580898942,127.24999999999993 Z"
       id="path151" />
    <path
       d="M 807.8284966501243,144.6500000000001 L 795.7041409971421,123.65 L 819.9528523031065,123.65 L 807.8284966501243,144.6500000000001 Z"
       id="path152" />
    <path
       d="M 807.8284966501243,95.44999999999992 L 819.9528523031065,116.45000000000002 L 795.7041409971421,116.44999999999999 L 807.8284966501243,95.44999999999992 Z"
       id="path153" />
    <path
       d="M 826.1882352103544,112.85000000000008 L 814.0638795573722,91.85 L 838.3125908633366,91.85 L 826.1882352103544,112.85000000000008 Z"
       id="path154" />
    <path
       d="M 826.1882352103544,63.64999999999992 L 838.3125908633366,84.65000000000002 L 814.0638795573722,84.65 L 826.1882352103544,63.64999999999992 Z"
       id="path155" />
    <path
       d="M 844.5479737705845,81.05000000000008 L 832.4236181176022,60.04999999999998 L 856.6723294235667,60.05000000000001 L 844.5479737705845,81.05000000000008 Z"
       id="path156" />
    <path
       d="M 844.5479737705846,31.84999999999991 L 856.6723294235667,52.85000000000001 L 832.4236181176024,52.849999999999994 L 844.5479737705846,31.84999999999991 Z"
       id="path157" />
    <path
       d="M 862.9077123308145,49.25000000000007 L 850.7833566778324,28.24999999999997 L 875.0320679837968,28.25 L 862.9077123308145,49.25000000000007 Z"
       id="path158" />
    <path
       d="M 826.1882352103545,127.24999999999993 L 838.3125908633367,148.25 L 814.0638795573723,148.25 L 826.1882352103545,127.24999999999993 Z"
       id="path159" />
    <path
       d="M 844.5479737705846,144.6500000000001 L 832.4236181176024,123.65 L 856.6723294235668,123.65 L 844.5479737705846,144.6500000000001 Z"
       id="path160" />
    <path
       d="M 844.5479737705846,95.44999999999992 L 856.6723294235668,116.45000000000002 L 832.4236181176024,116.44999999999999 L 844.5479737705846,95.44999999999992 Z"
       id="path161" />
    <path
       d="M 862.9077123308147,112.85000000000008 L 850.7833566778324,91.85 L 875.0320679837969,91.85 L 862.9077123308147,112.85000000000008 Z"
       id="path162" />
    <path
       d="M 862.9077123308147,63.64999999999992 L 875.0320679837969,84.65000000000002 L 850.7833566778324,84.65 L 862.9077123308147,63.64999999999992 Z"
       id="path163" />
    <path
       d="M 881.2674508910447,81.05000000000008 L 869.1430952380625,60.04999999999998 L 893.391806544027,60.05000000000001 L 881.2674508910447,81.05000000000008 Z"
       id="path164" />
    <path
       d="M 881.2674508910447,31.84999999999991 L 893.391806544027,52.85000000000001 L 869.1430952380626,52.849999999999994 L 881.2674508910447,31.84999999999991 Z"
       id="path165" />
    <path
       d="M 899.627189451275,49.25000000000006 L 887.5028337982927,28.24999999999997 L 911.751545104257,28.25 L 899.627189451275,49.25000000000006 Z"
       id="path166" />
    <path
       d="M 862.9077123308147,127.24999999999993 L 875.0320679837969,148.25 L 850.7833566778324,148.25 L 862.9077123308147,127.24999999999993 Z"
       id="path167" />
    <path
       d="M 881.2674508910447,144.6500000000001 L 869.1430952380625,123.65 L 893.391806544027,123.65 L 881.2674508910447,144.6500000000001 Z"
       id="path168" />
    <path
       d="M 881.2674508910447,95.44999999999992 L 893.391806544027,116.45000000000002 L 869.1430952380625,116.44999999999999 L 881.2674508910447,95.44999999999992 Z"
       id="path169" />
    <path
       d="M 899.6271894512748,112.85000000000008 L 887.5028337982926,91.85 L 911.751545104257,91.85 L 899.6271894512748,112.85000000000008 Z"
       id="path170" />
    <path
       d="M 899.6271894512748,63.64999999999992 L 911.751545104257,84.65000000000002 L 887.5028337982926,84.65 L 899.6271894512748,63.64999999999992 Z"
       id="path171" />
    <path
       d="M 917.9869280115049,81.05000000000008 L 905.8625723585227,60.04999999999998 L 930.1112836644871,60.05000000000001 L 917.9869280115049,81.05000000000008 Z"
       id="path172" />
    <path
       d="M 917.9869280115049,31.84999999999991 L 930.1112836644871,52.85000000000001 L 905.8625723585228,52.849999999999994 L 917.9869280115049,31.84999999999991 Z"
       id="path173" />
    <path
       d="M 936.3466665717351,49.25000000000006 L 924.2223109187529,28.24999999999997 L 948.4710222247172,28.25 L 936.3466665717351,49.25000000000006 Z"
       id="path174" />
    <path
       d="M 899.6271894512748,127.24999999999993 L 911.751545104257,148.25 L 887.5028337982926,148.25 L 899.6271894512748,127.24999999999993 Z"
       id="path175" />
    <path
       d="M 917.9869280115049,144.6500000000001 L 905.8625723585227,123.65 L 930.1112836644871,123.65 L 917.9869280115049,144.6500000000001 Z"
       id="path176" />
    <path
       d="M 917.9869280115049,95.44999999999992 L 930.1112836644871,116.45000000000002 L 905.8625723585227,116.44999999999999 L 917.9869280115049,95.44999999999992 Z"
       id="path177" />
    <path
       d="M 936.346666571735,112.85000000000008 L 924.2223109187528,91.85 L 948.4710222247172,91.85 L 936.346666571735,112.85000000000008 Z"
       id="path178" />
    <path
       d="M 936.346666571735,63.64999999999992 L 948.4710222247172,84.65000000000002 L 924.2223109187528,84.65 L 936.346666571735,63.64999999999992 Z"
       id="path179" />
    <path
       d="M 954.7064051319651,81.05000000000008 L 942.5820494789829,60.04999999999998 L 966.8307607849473,60.05000000000001 L 954.7064051319651,81.05000000000008 Z"
       id="path180" />
    <path
       d="M 954.7064051319651,31.84999999999991 L 966.8307607849473,52.85000000000001 L 942.582049478983,52.849999999999994 L 954.7064051319651,31.84999999999991 Z"
       id="path181" />
    <path
       d="M 973.0661436921953,49.25000000000006 L 960.9417880392131,28.24999999999997 L 985.1904993451774,28.25 L 973.0661436921953,49.25000000000006 Z"
       id="path182" />
    <path
       d="M 936.346666571735,127.24999999999993 L 948.4710222247172,148.25 L 924.2223109187528,148.25 L 936.346666571735,127.24999999999993 Z"
       id="path183" />
    <path
       d="M 954.7064051319651,144.6500000000001 L 942.5820494789829,123.65 L 966.8307607849473,123.65 L 954.7064051319651,144.6500000000001 Z"
       id="path184" />
    <path
       d="M 954.7064051319651,95.44999999999992 L 966.8307607849473,116.45000000000002 L 942.5820494789829,116.44999999999999 L 954.7064051319651,95.44999999999992 Z"
       id="path185" />
    <path
       d="M 973.0661436921952,112.85000000000008 L 960.941788039213,91.85 L 985.1904993451774,91.85 L 973.0661436921952,112.85000000000008 Z"
       id="path186" />
    <path
       d="M 973.0661436921952,63.64999999999992 L 985.1904993451774,84.65000000000002 L 960.941788039213,84.65 L 973.0661436921952,63.64999999999992 Z"
       id="path187" />
    <path
       d="M 991.4258822524253,81.05000000000008 L 979.301526599443,60.04999999999998 L 1003.5502379054075,60.05000000000001 L 991.4258822524253,81.05000000000008 Z"
       id="path188" />
    <path
       d="M 991.4258822524253,31.84999999999991 L 1003.5502379054075,52.85000000000001 L 979.3015265994432,52.849999999999994 L 991.4258822524253,31.84999999999991 Z"
       id="path189" />
    <path
       d="M 973.0661436921952,127.24999999999993 L 985.1904993451774,148.25 L 960.941788039213,148.25 L 973.0661436921952,127.24999999999993 Z"
       id="path190" />
    <path
       d="M 991.4258822524253,144.6500000000001 L 979.301526599443,123.65 L 1003.5502379054075,123.65 L 991.4258822524253,144.6500000000001 Z"
       id="path191" />
    <path
       d="M 991.4258822524253,95.44999999999992 L 1003.5502379054075,116.45000000000002 L 979.301526599443,116.44999999999999 L 991.4258822524253,95.44999999999992 Z"
       id="path192" />
    <path
       d="M 111.7220260870181,116.45 L 111.7220260870181,98.15822550725086 L 122.28278701436273,116.45000000000002 L 111.7220260870181,116.45 Z"
       id="path193" />
    <path
       d="M 997.6612651596731,84.65 L 1008.2220260870181,66.35822550725037 L 1008.2220260870181,84.65 L 997.6612651596731,84.65 Z"
       id="path194" />
    <path
       d="M 997.6612651596732,28.24999999999997 L 1008.2220260870181,28.24999999999997 L 1008.2220260870181,46.541774492749425 L 997.6612651596732,28.24999999999997 Z"
       id="path195" />
    <path
       d="M 997.6612651596732,148.25 L 1008.2220260870181,129.95822550725055 L 1008.2220260870181,148.25 L 997.6612651596732,148.25 Z"
       id="path196" />
    <path
       d="M 111.7220260870181,123.65 L 122.28278701436274,123.65 L 111.7220260870181,141.94177449274915 L 111.7220260870181,123.65 Z"
       id="path197" />
    <path
       d="M 997.6612651596731,91.85 L 1008.2220260870181,91.85 L 1008.2220260870181,110.14177449274965 L 997.6612651596731,91.85 Z"
       id="path198" />
    <path
       d="M 111.7220260870181,60.05 L 122.28278701436275,60.05000000000001 L 111.7220260870181,78.34177449274915 L 111.7220260870181,60.05 Z"
       id="path199" />
    <path
       d="M 111.7220260870181,52.85000000000001 L 111.7220260870181,34.55822550725088 L 122.28278701436273,52.85000000000001 L 111.7220260870181,52.85000000000001 Z"
       id="path200" />
    <path
       d="M 107.7220260870181,176.5 L 1012.2220260870181,176.5 L 1012.2220260870181,0.0 L 107.7220260870181,0.0 L 107.7220260870181,176.5 Z"
       id="path201" />
  </g>
  <path
     style="fill:none;stroke:#000000;stroke-width:1.265;stroke-linecap:butt;stroke-linejoin:miter;stroke-dasharray:none;stroke-opacity:1;marker-start:url(#Stop);marker-end:url(#Stop)"
     d="M 106.47474,61.75 V 238.25"
     id="path202" />
  <text
     xml:space="preserve"
     style="font-size:25.4px;line-height:1.25;font-family:'Noto Mono';-inkscape-font-specification:'Noto Mono';word-spacing:0px;stroke-width:0.264583"
     x="41.868717"
     y="159.06612"
     id="text203"><tspan
       sodipodi:role="line"
       id="tspan203"
       style="stroke-width:0.264583"
       x="41.868717"
       y="159.06612">177</tspan></text>
  <text
     xml:space="preserve"
     style="font-size:25.4px;line-height:1.25;font-family:'Noto Mono';-inkscape-font-specification:'Noto Mono';word-spacing:0px;stroke-width:0.264583"
     x="478.50665"
     y="40.1474"
     id="text203-6"><tspan
       sodipodi:role="line"
       id="tspan203-7"
       style="stroke-width:0.264583"
       x="478.50665"
       y="40.1474">Tabica 1.2 y 1.3</tspan></text>
  <path
     style="fill:none;stroke:#000000;stroke-width:1.265;stroke-linecap:butt;stroke-linejoin:miter;stroke-dasharray:none;stroke-opacity:1;marker-start:url(#Stop);marker-end:url(#Stop)"
     d="M 1072.5932,90 V 210"
     id="path204"
     sodipodi:nodetypes="cc" />
  <text
     xml:space="preserve"
     style="font-size:25.4px;line-height:1.25;font-family:'Noto Mono';-inkscape-font-specification:'Noto Mono';word-spacing:0px;stroke-width:0.264583"
     x="1096.4202"
     y="159.19633"
     id="text204"><tspan
       sodipodi:role="line"
       id="tspan204"
       style="stroke-width:0.264583"
       x="1096.4202"
       y="159.19633">112</tspan></text>
  <path
     style="fill:none;stroke:#000000;stroke-width:1.265;stroke-linecap:butt;stroke-linejoin:miter;stroke-dasharray:none;stroke-opacity:1;marker-start:url(#Stop);marker-end:url(#Stop)"
     d="M 1052.25,253.59593 H 147.75"
     id="path205"
     sodipodi:nodetypes="cc" />
  <text
     xml:space="preserve"
     style="font-size:25.4px;line-height:1.25;font-family:'Noto Mono';-inkscape-font-specification:'Noto Mono';word-spacing:0px;stroke-width:0.264583"
     x="577.26031"
     y="281.50305"
     id="text205"><tspan
       sodipodi:role="line"
       id="tspan205"
       style="stroke-width:0.264583"
       x="577.26031"
       y="281.50305">905</tspan></text>
</svg>
