<?xml version="1.0" encoding="UTF-8" standalone="no"?>
<svg
   height="300mm"
   version="1.1"
   viewBox="0 0 1200 300"
   width="1200mm"
   id="svg193"
   sodipodi:docname="tramo1.2.svg"
   inkscape:version="1.4.2 (1:1.4.2+202505120737+ebf0e940d0)"
   xmlns:inkscape="http://www.inkscape.org/namespaces/inkscape"
   xmlns:sodipodi="http://sodipodi.sourceforge.net/DTD/sodipodi-0.dtd"
   xmlns="http://www.w3.org/2000/svg"
   xmlns:svg="http://www.w3.org/2000/svg">
  <sodipodi:namedview
     id="namedview193"
     pagecolor="#ffffff"
     bordercolor="#666666"
     borderopacity="1.0"
     inkscape:showpageshadow="2"
     inkscape:pageopacity="0.0"
     inkscape:pagecheckerboard="0"
     inkscape:deskcolor="#d1d1d1"
     inkscape:document-units="mm"
     showgrid="false"
     inkscape:zoom="0.59120019"
     inkscape:cx="1070.7033"
     inkscape:cy="893.09849"
     inkscape:window-width="1920"
     inkscape:window-height="1011"
     inkscape:window-x="0"
     inkscape:window-y="0"
     inkscape:window-maximized="1"
     inkscape:current-layer="svg193" />
  <defs
     id="defs1" />
  <g
     fill="none"
     stroke="blue"
     stroke-width="0.5"
     transform="translate(40.027973912981906,65.0)"
     id="g193"
     style="vector-effect:non-scaling-stroke;-inkscape-stroke:hairline;stroke-width:0.26458333;stroke-dasharray:none">
    <path
       d="M 146.8779084818408,77.79999999999998 L 134.75355282885866,56.79999999999998 L 159.00226413482292,56.80000000000001 L 146.8779084818408,77.79999999999998 Z"
       id="path1"
       style="vector-effect:non-scaling-stroke;-inkscape-stroke:hairline;stroke-width:0.26458333;stroke-dasharray:none" />
    <path
       d="M 146.8779084818408,28.600000000000023 L 159.00226413482292,49.60000000000001 L 134.75355282885866,49.599999999999994 L 146.8779084818408,28.600000000000023 Z"
       id="path2"
       style="vector-effect:non-scaling-stroke;-inkscape-stroke:hairline;stroke-width:0.26458333;stroke-dasharray:none" />
    <path
       d="M 165.23764704207088,45.99999999999997 L 153.11329138908877,24.99999999999997 L 177.362002695053,25.0 L 165.23764704207088,45.99999999999997 Z"
       id="path3"
       style="vector-effect:non-scaling-stroke;-inkscape-stroke:hairline;stroke-width:0.26458333;stroke-dasharray:none" />
    <path
       d="M 146.8779084818408,141.39999999999998 L 134.7535528288587,120.4 L 159.00226413482292,120.4 L 146.8779084818408,141.39999999999998 Z"
       id="path4"
       style="vector-effect:non-scaling-stroke;-inkscape-stroke:hairline;stroke-width:0.26458333;stroke-dasharray:none" />
    <path
       d="M 146.8779084818408,92.20000000000002 L 159.00226413482292,113.20000000000002 L 134.75355282885866,113.19999999999999 L 146.8779084818408,92.20000000000002 Z"
       id="path5"
       style="vector-effect:non-scaling-stroke;-inkscape-stroke:hairline;stroke-width:0.26458333;stroke-dasharray:none" />
    <path
       d="M 165.23764704207088,109.59999999999998 L 153.11329138908874,88.6 L 177.362002695053,88.6 L 165.23764704207088,109.59999999999998 Z"
       id="path6"
       style="vector-effect:non-scaling-stroke;-inkscape-stroke:hairline;stroke-width:0.26458333;stroke-dasharray:none" />
    <path
       d="M 165.23764704207088,60.40000000000002 L 177.362002695053,81.40000000000002 L 153.11329138908874,81.4 L 165.23764704207088,60.40000000000002 Z"
       id="path7"
       style="vector-effect:non-scaling-stroke;-inkscape-stroke:hairline;stroke-width:0.26458333;stroke-dasharray:none" />
    <path
       d="M 183.59738560230096,77.79999999999998 L 171.47302994931883,56.79999999999998 L 195.72174125528312,56.80000000000001 L 183.59738560230096,77.79999999999998 Z"
       id="path8"
       style="vector-effect:non-scaling-stroke;-inkscape-stroke:hairline;stroke-width:0.26458333;stroke-dasharray:none" />
    <path
       d="M 183.597385602301,28.600000000000023 L 195.72174125528312,49.60000000000001 L 171.47302994931883,49.599999999999994 L 183.597385602301,28.600000000000023 Z"
       id="path9"
       style="vector-effect:non-scaling-stroke;-inkscape-stroke:hairline;stroke-width:0.26458333;stroke-dasharray:none" />
    <path
       d="M 201.95712416253107,45.99999999999997 L 189.83276850954897,24.99999999999997 L 214.0814798155132,25.0 L 201.95712416253107,45.99999999999997 Z"
       id="path10"
       style="vector-effect:non-scaling-stroke;-inkscape-stroke:hairline;stroke-width:0.26458333;stroke-dasharray:none" />
    <path
       d="M 165.23764704207088,124.00000000000003 L 177.36200269505298,145.0 L 153.11329138908877,145.0 L 165.23764704207088,124.00000000000003 Z"
       id="path11"
       style="vector-effect:non-scaling-stroke;-inkscape-stroke:hairline;stroke-width:0.26458333;stroke-dasharray:none" />
    <path
       d="M 183.59738560230096,141.39999999999998 L 171.47302994931886,120.4 L 195.72174125528312,120.4 L 183.59738560230096,141.39999999999998 Z"
       id="path12"
       style="vector-effect:non-scaling-stroke;-inkscape-stroke:hairline;stroke-width:0.26458333;stroke-dasharray:none" />
    <path
       d="M 183.597385602301,92.20000000000002 L 195.72174125528312,113.20000000000002 L 171.47302994931886,113.19999999999999 L 183.597385602301,92.20000000000002 Z"
       id="path13"
       style="vector-effect:non-scaling-stroke;-inkscape-stroke:hairline;stroke-width:0.26458333;stroke-dasharray:none" />
    <path
       d="M 201.95712416253107,109.59999999999998 L 189.83276850954894,88.6 L 214.0814798155132,88.6 L 201.95712416253107,109.59999999999998 Z"
       id="path14"
       style="vector-effect:non-scaling-stroke;-inkscape-stroke:hairline;stroke-width:0.26458333;stroke-dasharray:none" />
    <path
       d="M 201.9571241625311,60.40000000000002 L 214.08147981551323,81.40000000000002 L 189.83276850954897,81.4 L 201.9571241625311,60.40000000000002 Z"
       id="path15"
       style="vector-effect:non-scaling-stroke;-inkscape-stroke:hairline;stroke-width:0.26458333;stroke-dasharray:none" />
    <path
       d="M 220.3168627227612,77.79999999999998 L 208.19250706977905,56.79999999999998 L 232.44121837574332,56.80000000000001 L 220.3168627227612,77.79999999999998 Z"
       id="path16"
       style="vector-effect:non-scaling-stroke;-inkscape-stroke:hairline;stroke-width:0.26458333;stroke-dasharray:none" />
    <path
       d="M 220.3168627227612,28.600000000000023 L 232.44121837574332,49.60000000000001 L 208.19250706977905,49.599999999999994 L 220.3168627227612,28.600000000000023 Z"
       id="path17"
       style="vector-effect:non-scaling-stroke;-inkscape-stroke:hairline;stroke-width:0.26458333;stroke-dasharray:none" />
    <path
       d="M 238.67660128299127,45.99999999999997 L 226.55224563000917,24.99999999999997 L 250.80095693597343,25.0 L 238.67660128299127,45.99999999999997 Z"
       id="path18"
       style="vector-effect:non-scaling-stroke;-inkscape-stroke:hairline;stroke-width:0.26458333;stroke-dasharray:none" />
    <path
       d="M 201.9571241625311,124.00000000000003 L 214.0814798155132,145.0 L 189.83276850954894,145.0 L 201.9571241625311,124.00000000000003 Z"
       id="path19"
       style="vector-effect:non-scaling-stroke;-inkscape-stroke:hairline;stroke-width:0.26458333;stroke-dasharray:none" />
    <path
       d="M 220.3168627227612,141.39999999999998 L 208.19250706977908,120.4 L 232.44121837574332,120.4 L 220.3168627227612,141.39999999999998 Z"
       id="path20"
       style="vector-effect:non-scaling-stroke;-inkscape-stroke:hairline;stroke-width:0.26458333;stroke-dasharray:none" />
    <path
       d="M 220.3168627227612,92.20000000000002 L 232.44121837574332,113.20000000000002 L 208.19250706977905,113.19999999999999 L 220.3168627227612,92.20000000000002 Z"
       id="path21"
       style="vector-effect:non-scaling-stroke;-inkscape-stroke:hairline;stroke-width:0.26458333;stroke-dasharray:none" />
    <path
       d="M 238.67660128299127,109.59999999999998 L 226.55224563000914,88.6 L 250.80095693597343,88.6 L 238.67660128299127,109.59999999999998 Z"
       id="path22"
       style="vector-effect:non-scaling-stroke;-inkscape-stroke:hairline;stroke-width:0.26458333;stroke-dasharray:none" />
    <path
       d="M 238.67660128299127,60.40000000000002 L 250.8009569359734,81.40000000000002 L 226.55224563000914,81.4 L 238.67660128299127,60.40000000000002 Z"
       id="path23"
       style="vector-effect:non-scaling-stroke;-inkscape-stroke:hairline;stroke-width:0.26458333;stroke-dasharray:none" />
    <path
       d="M 257.03633984322136,77.79999999999998 L 244.91198419023922,56.79999999999998 L 269.1606954962035,56.80000000000001 L 257.03633984322136,77.79999999999998 Z"
       id="path24"
       style="vector-effect:non-scaling-stroke;-inkscape-stroke:hairline;stroke-width:0.26458333;stroke-dasharray:none" />
    <path
       d="M 257.0363398432214,28.599999999999994 L 269.1606954962035,49.60000000000001 L 244.91198419023925,49.599999999999994 L 257.0363398432214,28.599999999999994 Z"
       id="path25"
       style="vector-effect:non-scaling-stroke;-inkscape-stroke:hairline;stroke-width:0.26458333;stroke-dasharray:none" />
    <path
       d="M 275.3960784034515,45.99999999999997 L 263.2717227504694,24.99999999999997 L 287.5204340564336,25.0 L 275.3960784034515,45.99999999999997 Z"
       id="path26"
       style="vector-effect:non-scaling-stroke;-inkscape-stroke:hairline;stroke-width:0.26458333;stroke-dasharray:none" />
    <path
       d="M 238.67660128299127,124.00000000000003 L 250.80095693597337,145.0 L 226.55224563000917,145.0 L 238.67660128299127,124.00000000000003 Z"
       id="path27"
       style="vector-effect:non-scaling-stroke;-inkscape-stroke:hairline;stroke-width:0.26458333;stroke-dasharray:none" />
    <path
       d="M 257.03633984322136,141.39999999999998 L 244.91198419023925,120.4 L 269.1606954962035,120.4 L 257.03633984322136,141.39999999999998 Z"
       id="path28"
       style="vector-effect:non-scaling-stroke;-inkscape-stroke:hairline;stroke-width:0.26458333;stroke-dasharray:none" />
    <path
       d="M 257.0363398432214,92.20000000000002 L 269.1606954962035,113.20000000000002 L 244.91198419023928,113.19999999999999 L 257.0363398432214,92.20000000000002 Z"
       id="path29"
       style="vector-effect:non-scaling-stroke;-inkscape-stroke:hairline;stroke-width:0.26458333;stroke-dasharray:none" />
    <path
       d="M 275.3960784034515,109.59999999999997 L 263.2717227504694,88.6 L 287.5204340564336,88.6 L 275.3960784034515,109.59999999999997 Z"
       id="path30"
       style="vector-effect:non-scaling-stroke;-inkscape-stroke:hairline;stroke-width:0.26458333;stroke-dasharray:none" />
    <path
       d="M 275.3960784034515,60.40000000000002 L 287.5204340564336,81.40000000000002 L 263.2717227504694,81.4 L 275.3960784034515,60.40000000000002 Z"
       id="path31"
       style="vector-effect:non-scaling-stroke;-inkscape-stroke:hairline;stroke-width:0.26458333;stroke-dasharray:none" />
    <path
       d="M 293.7558169636816,77.79999999999998 L 281.6314613106995,56.79999999999998 L 305.88017261666374,56.80000000000001 L 293.7558169636816,77.79999999999998 Z"
       id="path32"
       style="vector-effect:non-scaling-stroke;-inkscape-stroke:hairline;stroke-width:0.26458333;stroke-dasharray:none" />
    <path
       d="M 293.7558169636816,28.600000000000023 L 305.8801726166637,49.60000000000001 L 281.6314613106995,49.599999999999994 L 293.7558169636816,28.600000000000023 Z"
       id="path33"
       style="vector-effect:non-scaling-stroke;-inkscape-stroke:hairline;stroke-width:0.26458333;stroke-dasharray:none" />
    <path
       d="M 312.11555552391167,45.99999999999997 L 299.99119987092956,24.99999999999997 L 324.2399111768938,25.0 L 312.11555552391167,45.99999999999997 Z"
       id="path34"
       style="vector-effect:non-scaling-stroke;-inkscape-stroke:hairline;stroke-width:0.26458333;stroke-dasharray:none" />
    <path
       d="M 275.3960784034515,124.00000000000003 L 287.5204340564336,145.0 L 263.2717227504694,145.0 L 275.3960784034515,124.00000000000003 Z"
       id="path35"
       style="vector-effect:non-scaling-stroke;-inkscape-stroke:hairline;stroke-width:0.26458333;stroke-dasharray:none" />
    <path
       d="M 293.7558169636816,141.39999999999998 L 281.6314613106995,120.4 L 305.8801726166637,120.4 L 293.7558169636816,141.39999999999998 Z"
       id="path36"
       style="vector-effect:non-scaling-stroke;-inkscape-stroke:hairline;stroke-width:0.26458333;stroke-dasharray:none" />
    <path
       d="M 293.7558169636816,92.20000000000002 L 305.8801726166637,113.20000000000002 L 281.6314613106995,113.19999999999999 L 293.7558169636816,92.20000000000002 Z"
       id="path37"
       style="vector-effect:non-scaling-stroke;-inkscape-stroke:hairline;stroke-width:0.26458333;stroke-dasharray:none" />
    <path
       d="M 312.11555552391167,109.59999999999997 L 299.99119987092956,88.6 L 324.23991117689377,88.6 L 312.11555552391167,109.59999999999997 Z"
       id="path38"
       style="vector-effect:non-scaling-stroke;-inkscape-stroke:hairline;stroke-width:0.26458333;stroke-dasharray:none" />
    <path
       d="M 312.1155555239117,60.40000000000002 L 324.2399111768938,81.40000000000002 L 299.9911998709296,81.4 L 312.1155555239117,60.40000000000002 Z"
       id="path39"
       style="vector-effect:non-scaling-stroke;-inkscape-stroke:hairline;stroke-width:0.26458333;stroke-dasharray:none" />
    <path
       d="M 330.4752940841418,77.79999999999998 L 318.3509384311597,56.79999999999998 L 342.5996497371239,56.80000000000001 L 330.4752940841418,77.79999999999998 Z"
       id="path40"
       style="vector-effect:non-scaling-stroke;-inkscape-stroke:hairline;stroke-width:0.26458333;stroke-dasharray:none" />
    <path
       d="M 330.4752940841418,28.600000000000023 L 342.5996497371239,49.60000000000001 L 318.3509384311597,49.599999999999994 L 330.4752940841418,28.600000000000023 Z"
       id="path41"
       style="vector-effect:non-scaling-stroke;-inkscape-stroke:hairline;stroke-width:0.26458333;stroke-dasharray:none" />
    <path
       d="M 348.8350326443719,45.99999999999997 L 336.7106769913898,24.99999999999997 L 360.959388297354,25.0 L 348.8350326443719,45.99999999999997 Z"
       id="path42"
       style="vector-effect:non-scaling-stroke;-inkscape-stroke:hairline;stroke-width:0.26458333;stroke-dasharray:none" />
    <path
       d="M 312.11555552391167,124.00000000000003 L 324.23991117689377,145.0 L 299.99119987092956,145.0 L 312.11555552391167,124.00000000000003 Z"
       id="path43"
       style="vector-effect:non-scaling-stroke;-inkscape-stroke:hairline;stroke-width:0.26458333;stroke-dasharray:none" />
    <path
       d="M 330.47529408414175,141.39999999999998 L 318.35093843115965,120.4 L 342.59964973712385,120.4 L 330.47529408414175,141.39999999999998 Z"
       id="path44"
       style="vector-effect:non-scaling-stroke;-inkscape-stroke:hairline;stroke-width:0.26458333;stroke-dasharray:none" />
    <path
       d="M 330.47529408414175,92.20000000000002 L 342.59964973712385,113.20000000000002 L 318.35093843115965,113.19999999999999 L 330.47529408414175,92.20000000000002 Z"
       id="path45"
       style="vector-effect:non-scaling-stroke;-inkscape-stroke:hairline;stroke-width:0.26458333;stroke-dasharray:none" />
    <path
       d="M 348.83503264437184,109.59999999999997 L 336.71067699138973,88.6 L 360.95938829735394,88.6 L 348.83503264437184,109.59999999999997 Z"
       id="path46"
       style="vector-effect:non-scaling-stroke;-inkscape-stroke:hairline;stroke-width:0.26458333;stroke-dasharray:none" />
    <path
       d="M 348.8350326443719,60.40000000000002 L 360.959388297354,81.40000000000002 L 336.7106769913898,81.4 L 348.8350326443719,60.40000000000002 Z"
       id="path47"
       style="vector-effect:non-scaling-stroke;-inkscape-stroke:hairline;stroke-width:0.26458333;stroke-dasharray:none" />
    <path
       d="M 367.194771204602,77.79999999999998 L 355.0704155516199,56.79999999999998 L 379.3191268575841,56.80000000000001 L 367.194771204602,77.79999999999998 Z"
       id="path48"
       style="vector-effect:non-scaling-stroke;-inkscape-stroke:hairline;stroke-width:0.26458333;stroke-dasharray:none" />
    <path
       d="M 367.194771204602,28.600000000000023 L 379.3191268575841,49.60000000000001 L 355.0704155516199,49.599999999999994 L 367.194771204602,28.600000000000023 Z"
       id="path49"
       style="vector-effect:non-scaling-stroke;-inkscape-stroke:hairline;stroke-width:0.26458333;stroke-dasharray:none" />
    <path
       d="M 385.55450976483206,45.99999999999997 L 373.43015411184996,24.99999999999997 L 397.67886541781417,25.0 L 385.55450976483206,45.99999999999997 Z"
       id="path50"
       style="vector-effect:non-scaling-stroke;-inkscape-stroke:hairline;stroke-width:0.26458333;stroke-dasharray:none" />
    <path
       d="M 348.83503264437184,124.00000000000003 L 360.95938829735394,145.0 L 336.71067699138973,145.0 L 348.83503264437184,124.00000000000003 Z"
       id="path51"
       style="vector-effect:non-scaling-stroke;-inkscape-stroke:hairline;stroke-width:0.26458333;stroke-dasharray:none" />
    <path
       d="M 367.1947712046019,141.39999999999998 L 355.0704155516198,120.4 L 379.319126857584,120.4 L 367.1947712046019,141.39999999999998 Z"
       id="path52"
       style="vector-effect:non-scaling-stroke;-inkscape-stroke:hairline;stroke-width:0.26458333;stroke-dasharray:none" />
    <path
       d="M 367.1947712046019,92.20000000000002 L 379.319126857584,113.20000000000002 L 355.0704155516198,113.19999999999999 L 367.1947712046019,92.20000000000002 Z"
       id="path53"
       style="vector-effect:non-scaling-stroke;-inkscape-stroke:hairline;stroke-width:0.26458333;stroke-dasharray:none" />
    <path
       d="M 385.554509764832,109.59999999999997 L 373.4301541118499,88.6 L 397.6788654178141,88.6 L 385.554509764832,109.59999999999997 Z"
       id="path54"
       style="vector-effect:non-scaling-stroke;-inkscape-stroke:hairline;stroke-width:0.26458333;stroke-dasharray:none" />
    <path
       d="M 385.55450976483206,60.40000000000002 L 397.67886541781417,81.40000000000002 L 373.43015411184996,81.4 L 385.55450976483206,60.40000000000002 Z"
       id="path55"
       style="vector-effect:non-scaling-stroke;-inkscape-stroke:hairline;stroke-width:0.26458333;stroke-dasharray:none" />
    <path
       d="M 403.91424832506215,77.79999999999998 L 391.78989267208004,56.79999999999998 L 416.03860397804425,56.80000000000001 L 403.91424832506215,77.79999999999998 Z"
       id="path56"
       style="vector-effect:non-scaling-stroke;-inkscape-stroke:hairline;stroke-width:0.26458333;stroke-dasharray:none" />
    <path
       d="M 403.91424832506215,28.600000000000023 L 416.03860397804425,49.60000000000001 L 391.78989267208004,49.599999999999994 L 403.91424832506215,28.600000000000023 Z"
       id="path57"
       style="vector-effect:non-scaling-stroke;-inkscape-stroke:hairline;stroke-width:0.26458333;stroke-dasharray:none" />
    <path
       d="M 422.27398688529223,45.99999999999997 L 410.1496312323101,24.99999999999997 L 434.39834253827433,25.0 L 422.27398688529223,45.99999999999997 Z"
       id="path58"
       style="vector-effect:non-scaling-stroke;-inkscape-stroke:hairline;stroke-width:0.26458333;stroke-dasharray:none" />
    <path
       d="M 385.55450976483206,124.00000000000003 L 397.67886541781417,145.0 L 373.43015411184996,145.0 L 385.55450976483206,124.00000000000003 Z"
       id="path59"
       style="vector-effect:non-scaling-stroke;-inkscape-stroke:hairline;stroke-width:0.26458333;stroke-dasharray:none" />
    <path
       d="M 403.91424832506215,141.39999999999998 L 391.78989267208004,120.4 L 416.0386039780443,120.4 L 403.91424832506215,141.39999999999998 Z"
       id="path60"
       style="vector-effect:non-scaling-stroke;-inkscape-stroke:hairline;stroke-width:0.26458333;stroke-dasharray:none" />
    <path
       d="M 403.9142483250622,92.20000000000002 L 416.0386039780443,113.20000000000002 L 391.7898926720801,113.19999999999999 L 403.9142483250622,92.20000000000002 Z"
       id="path61"
       style="vector-effect:non-scaling-stroke;-inkscape-stroke:hairline;stroke-width:0.26458333;stroke-dasharray:none" />
    <path
       d="M 422.2739868852923,109.59999999999997 L 410.1496312323102,88.6 L 434.3983425382744,88.6 L 422.2739868852923,109.59999999999997 Z"
       id="path62"
       style="vector-effect:non-scaling-stroke;-inkscape-stroke:hairline;stroke-width:0.26458333;stroke-dasharray:none" />
    <path
       d="M 422.2739868852923,60.40000000000002 L 434.3983425382744,81.40000000000002 L 410.1496312323102,81.4 L 422.2739868852923,60.40000000000002 Z"
       id="path63"
       style="vector-effect:non-scaling-stroke;-inkscape-stroke:hairline;stroke-width:0.26458333;stroke-dasharray:none" />
    <path
       d="M 440.6337254455224,77.79999999999998 L 428.50936979254027,56.79999999999998 L 452.75808109850453,56.80000000000001 L 440.6337254455224,77.79999999999998 Z"
       id="path64"
       style="vector-effect:non-scaling-stroke;-inkscape-stroke:hairline;stroke-width:0.26458333;stroke-dasharray:none" />
    <path
       d="M 440.6337254455224,28.600000000000023 L 452.7580810985045,49.60000000000001 L 428.50936979254027,49.599999999999994 L 440.6337254455224,28.600000000000023 Z"
       id="path65"
       style="vector-effect:non-scaling-stroke;-inkscape-stroke:hairline;stroke-width:0.26458333;stroke-dasharray:none" />
    <path
       d="M 458.99346400575246,45.99999999999997 L 446.86910835277035,24.99999999999997 L 471.1178196587346,25.0 L 458.99346400575246,45.99999999999997 Z"
       id="path66"
       style="vector-effect:non-scaling-stroke;-inkscape-stroke:hairline;stroke-width:0.26458333;stroke-dasharray:none" />
    <path
       d="M 422.2739868852923,124.00000000000003 L 434.3983425382744,145.0 L 410.1496312323102,145.0 L 422.2739868852923,124.00000000000003 Z"
       id="path67"
       style="vector-effect:non-scaling-stroke;-inkscape-stroke:hairline;stroke-width:0.26458333;stroke-dasharray:none" />
    <path
       d="M 440.6337254455224,141.39999999999998 L 428.50936979254027,120.4 L 452.7580810985045,120.4 L 440.6337254455224,141.39999999999998 Z"
       id="path68"
       style="vector-effect:non-scaling-stroke;-inkscape-stroke:hairline;stroke-width:0.26458333;stroke-dasharray:none" />
    <path
       d="M 440.6337254455224,92.20000000000002 L 452.7580810985045,113.20000000000002 L 428.50936979254027,113.19999999999999 L 440.6337254455224,92.20000000000002 Z"
       id="path69"
       style="vector-effect:non-scaling-stroke;-inkscape-stroke:hairline;stroke-width:0.26458333;stroke-dasharray:none" />
    <path
       d="M 458.99346400575246,109.59999999999997 L 446.86910835277035,88.6 L 471.11781965873456,88.6 L 458.99346400575246,109.59999999999997 Z"
       id="path70"
       style="vector-effect:non-scaling-stroke;-inkscape-stroke:hairline;stroke-width:0.26458333;stroke-dasharray:none" />
    <path
       d="M 458.9934640057525,60.40000000000002 L 471.1178196587346,81.40000000000002 L 446.8691083527704,81.4 L 458.9934640057525,60.40000000000002 Z"
       id="path71"
       style="vector-effect:non-scaling-stroke;-inkscape-stroke:hairline;stroke-width:0.26458333;stroke-dasharray:none" />
    <path
       d="M 477.3532025659826,77.79999999999998 L 465.2288469130005,56.79999999999998 L 489.4775582189647,56.80000000000001 L 477.3532025659826,77.79999999999998 Z"
       id="path72"
       style="vector-effect:non-scaling-stroke;-inkscape-stroke:hairline;stroke-width:0.26458333;stroke-dasharray:none" />
    <path
       d="M 477.3532025659826,28.600000000000023 L 489.4775582189647,49.60000000000001 L 465.2288469130005,49.599999999999994 L 477.3532025659826,28.600000000000023 Z"
       id="path73"
       style="vector-effect:non-scaling-stroke;-inkscape-stroke:hairline;stroke-width:0.26458333;stroke-dasharray:none" />
    <path
       d="M 495.7129411262127,45.99999999999997 L 483.5885854732306,24.99999999999997 L 507.83729677919484,25.0 L 495.7129411262127,45.99999999999997 Z"
       id="path74"
       style="vector-effect:non-scaling-stroke;-inkscape-stroke:hairline;stroke-width:0.26458333;stroke-dasharray:none" />
    <path
       d="M 458.99346400575246,124.00000000000003 L 471.11781965873456,145.0 L 446.86910835277035,145.0 L 458.99346400575246,124.00000000000003 Z"
       id="path75"
       style="vector-effect:non-scaling-stroke;-inkscape-stroke:hairline;stroke-width:0.26458333;stroke-dasharray:none" />
    <path
       d="M 477.35320256598254,141.39999999999998 L 465.22884691300044,120.4 L 489.47755821896465,120.4 L 477.35320256598254,141.39999999999998 Z"
       id="path76"
       style="vector-effect:non-scaling-stroke;-inkscape-stroke:hairline;stroke-width:0.26458333;stroke-dasharray:none" />
    <path
       d="M 477.35320256598254,92.20000000000002 L 489.47755821896465,113.20000000000002 L 465.22884691300044,113.19999999999999 L 477.35320256598254,92.20000000000002 Z"
       id="path77"
       style="vector-effect:non-scaling-stroke;-inkscape-stroke:hairline;stroke-width:0.26458333;stroke-dasharray:none" />
    <path
       d="M 495.7129411262126,109.59999999999997 L 483.5885854732305,88.6 L 507.83729677919473,88.6 L 495.7129411262126,109.59999999999997 Z"
       id="path78"
       style="vector-effect:non-scaling-stroke;-inkscape-stroke:hairline;stroke-width:0.26458333;stroke-dasharray:none" />
    <path
       d="M 495.7129411262127,60.400000000000034 L 507.83729677919473,81.40000000000002 L 483.5885854732306,81.4 L 495.7129411262127,60.400000000000034 Z"
       id="path79"
       style="vector-effect:non-scaling-stroke;-inkscape-stroke:hairline;stroke-width:0.26458333;stroke-dasharray:none" />
    <path
       d="M 514.0726796864427,77.80000000000003 L 501.9483240334606,56.79999999999998 L 526.1970353394249,56.80000000000001 L 514.0726796864427,77.80000000000003 Z"
       id="path80"
       style="vector-effect:non-scaling-stroke;-inkscape-stroke:hairline;stroke-width:0.26458333;stroke-dasharray:none" />
    <path
       d="M 514.0726796864428,28.599999999999966 L 526.1970353394249,49.60000000000001 L 501.94832403346066,49.599999999999994 L 514.0726796864428,28.599999999999966 Z"
       id="path81"
       style="vector-effect:non-scaling-stroke;-inkscape-stroke:hairline;stroke-width:0.26458333;stroke-dasharray:none" />
    <path
       d="M 532.4324182466728,46.00000000000007 L 520.3080625936907,24.99999999999997 L 544.556773899655,25.0 L 532.4324182466728,46.00000000000007 Z"
       id="path82"
       style="vector-effect:non-scaling-stroke;-inkscape-stroke:hairline;stroke-width:0.26458333;stroke-dasharray:none" />
    <path
       d="M 495.7129411262126,124.00000000000003 L 507.83729677919473,145.0 L 483.5885854732305,145.0 L 495.7129411262126,124.00000000000003 Z"
       id="path83"
       style="vector-effect:non-scaling-stroke;-inkscape-stroke:hairline;stroke-width:0.26458333;stroke-dasharray:none" />
    <path
       d="M 514.0726796864427,141.40000000000003 L 501.9483240334606,120.4 L 526.1970353394249,120.4 L 514.0726796864427,141.40000000000003 Z"
       id="path84"
       style="vector-effect:non-scaling-stroke;-inkscape-stroke:hairline;stroke-width:0.26458333;stroke-dasharray:none" />
    <path
       d="M 514.0726796864427,92.19999999999997 L 526.1970353394249,113.20000000000002 L 501.9483240334606,113.19999999999999 L 514.0726796864427,92.19999999999997 Z"
       id="path85"
       style="vector-effect:non-scaling-stroke;-inkscape-stroke:hairline;stroke-width:0.26458333;stroke-dasharray:none" />
    <path
       d="M 532.4324182466728,109.60000000000008 L 520.3080625936906,88.6 L 544.556773899655,88.6 L 532.4324182466728,109.60000000000008 Z"
       id="path86"
       style="vector-effect:non-scaling-stroke;-inkscape-stroke:hairline;stroke-width:0.26458333;stroke-dasharray:none" />
    <path
       d="M 532.4324182466728,60.39999999999992 L 544.556773899655,81.40000000000002 L 520.3080625936906,81.4 L 532.4324182466728,60.39999999999992 Z"
       id="path87"
       style="vector-effect:non-scaling-stroke;-inkscape-stroke:hairline;stroke-width:0.26458333;stroke-dasharray:none" />
    <path
       d="M 550.7921568069029,77.80000000000008 L 538.6678011539207,56.79999999999998 L 562.9165124598851,56.80000000000001 L 550.7921568069029,77.80000000000008 Z"
       id="path88"
       style="vector-effect:non-scaling-stroke;-inkscape-stroke:hairline;stroke-width:0.26458333;stroke-dasharray:none" />
    <path
       d="M 550.792156806903,28.59999999999991 L 562.9165124598851,49.60000000000001 L 538.6678011539208,49.599999999999994 L 550.792156806903,28.59999999999991 Z"
       id="path89"
       style="vector-effect:non-scaling-stroke;-inkscape-stroke:hairline;stroke-width:0.26458333;stroke-dasharray:none" />
    <path
       d="M 569.151895367133,46.00000000000007 L 557.0275397141509,24.99999999999997 L 581.2762510201152,25.0 L 569.151895367133,46.00000000000007 Z"
       id="path90"
       style="vector-effect:non-scaling-stroke;-inkscape-stroke:hairline;stroke-width:0.26458333;stroke-dasharray:none" />
    <path
       d="M 532.4324182466729,123.99999999999993 L 544.5567738996551,145.0 L 520.3080625936907,145.0 L 532.4324182466729,123.99999999999993 Z"
       id="path91"
       style="vector-effect:non-scaling-stroke;-inkscape-stroke:hairline;stroke-width:0.26458333;stroke-dasharray:none" />
    <path
       d="M 550.792156806903,141.4000000000001 L 538.6678011539208,120.4 L 562.9165124598852,120.4 L 550.792156806903,141.4000000000001 Z"
       id="path92"
       style="vector-effect:non-scaling-stroke;-inkscape-stroke:hairline;stroke-width:0.26458333;stroke-dasharray:none" />
    <path
       d="M 550.792156806903,92.19999999999992 L 562.9165124598852,113.20000000000002 L 538.6678011539208,113.19999999999999 L 550.792156806903,92.19999999999992 Z"
       id="path93"
       style="vector-effect:non-scaling-stroke;-inkscape-stroke:hairline;stroke-width:0.26458333;stroke-dasharray:none" />
    <path
       d="M 569.1518953671331,109.60000000000008 L 557.0275397141509,88.6 L 581.2762510201153,88.6 L 569.1518953671331,109.60000000000008 Z"
       id="path94"
       style="vector-effect:non-scaling-stroke;-inkscape-stroke:hairline;stroke-width:0.26458333;stroke-dasharray:none" />
    <path
       d="M 569.1518953671331,60.39999999999992 L 581.2762510201153,81.40000000000002 L 557.0275397141509,81.4 L 569.1518953671331,60.39999999999992 Z"
       id="path95"
       style="vector-effect:non-scaling-stroke;-inkscape-stroke:hairline;stroke-width:0.26458333;stroke-dasharray:none" />
    <path
       d="M 587.5116339273632,77.80000000000008 L 575.387278274381,56.79999999999998 L 599.6359895803454,56.80000000000001 L 587.5116339273632,77.80000000000008 Z"
       id="path96"
       style="vector-effect:non-scaling-stroke;-inkscape-stroke:hairline;stroke-width:0.26458333;stroke-dasharray:none" />
    <path
       d="M 587.5116339273632,28.59999999999991 L 599.6359895803454,49.60000000000001 L 575.3872782743811,49.599999999999994 L 587.5116339273632,28.59999999999991 Z"
       id="path97"
       style="vector-effect:non-scaling-stroke;-inkscape-stroke:hairline;stroke-width:0.26458333;stroke-dasharray:none" />
    <path
       d="M 605.8713724875934,46.00000000000006 L 593.7470168346111,24.99999999999997 L 617.9957281405755,25.0 L 605.8713724875934,46.00000000000006 Z"
       id="path98"
       style="vector-effect:non-scaling-stroke;-inkscape-stroke:hairline;stroke-width:0.26458333;stroke-dasharray:none" />
    <path
       d="M 569.1518953671331,123.99999999999993 L 581.2762510201153,145.0 L 557.0275397141509,145.0 L 569.1518953671331,123.99999999999993 Z"
       id="path99"
       style="vector-effect:non-scaling-stroke;-inkscape-stroke:hairline;stroke-width:0.26458333;stroke-dasharray:none" />
    <path
       d="M 587.5116339273632,141.4000000000001 L 575.387278274381,120.4 L 599.6359895803454,120.4 L 587.5116339273632,141.4000000000001 Z"
       id="path100"
       style="vector-effect:non-scaling-stroke;-inkscape-stroke:hairline;stroke-width:0.26458333;stroke-dasharray:none" />
    <path
       d="M 587.5116339273632,92.19999999999992 L 599.6359895803454,113.20000000000002 L 575.387278274381,113.19999999999999 L 587.5116339273632,92.19999999999992 Z"
       id="path101"
       style="vector-effect:non-scaling-stroke;-inkscape-stroke:hairline;stroke-width:0.26458333;stroke-dasharray:none" />
    <path
       d="M 605.8713724875932,109.60000000000008 L 593.747016834611,88.6 L 617.9957281405755,88.6 L 605.8713724875932,109.60000000000008 Z"
       id="path102"
       style="vector-effect:non-scaling-stroke;-inkscape-stroke:hairline;stroke-width:0.26458333;stroke-dasharray:none" />
    <path
       d="M 605.8713724875932,60.39999999999992 L 617.9957281405755,81.40000000000002 L 593.747016834611,81.4 L 605.8713724875932,60.39999999999992 Z"
       id="path103"
       style="vector-effect:non-scaling-stroke;-inkscape-stroke:hairline;stroke-width:0.26458333;stroke-dasharray:none" />
    <path
       d="M 624.2311110478233,77.80000000000008 L 612.1067553948411,56.79999999999998 L 636.3554667008056,56.80000000000001 L 624.2311110478233,77.80000000000008 Z"
       id="path104"
       style="vector-effect:non-scaling-stroke;-inkscape-stroke:hairline;stroke-width:0.26458333;stroke-dasharray:none" />
    <path
       d="M 624.2311110478233,28.59999999999991 L 636.3554667008056,49.60000000000001 L 612.1067553948412,49.599999999999994 L 624.2311110478233,28.59999999999991 Z"
       id="path105"
       style="vector-effect:non-scaling-stroke;-inkscape-stroke:hairline;stroke-width:0.26458333;stroke-dasharray:none" />
    <path
       d="M 642.5908496080535,46.00000000000006 L 630.4664939550713,24.99999999999997 L 654.7152052610356,25.0 L 642.5908496080535,46.00000000000006 Z"
       id="path106"
       style="vector-effect:non-scaling-stroke;-inkscape-stroke:hairline;stroke-width:0.26458333;stroke-dasharray:none" />
    <path
       d="M 605.8713724875932,123.99999999999993 L 617.9957281405755,145.0 L 593.747016834611,145.0 L 605.8713724875932,123.99999999999993 Z"
       id="path107"
       style="vector-effect:non-scaling-stroke;-inkscape-stroke:hairline;stroke-width:0.26458333;stroke-dasharray:none" />
    <path
       d="M 624.2311110478233,141.4000000000001 L 612.1067553948411,120.4 L 636.3554667008056,120.4 L 624.2311110478233,141.4000000000001 Z"
       id="path108"
       style="vector-effect:non-scaling-stroke;-inkscape-stroke:hairline;stroke-width:0.26458333;stroke-dasharray:none" />
    <path
       d="M 624.2311110478233,92.19999999999992 L 636.3554667008056,113.20000000000002 L 612.1067553948411,113.19999999999999 L 624.2311110478233,92.19999999999992 Z"
       id="path109"
       style="vector-effect:non-scaling-stroke;-inkscape-stroke:hairline;stroke-width:0.26458333;stroke-dasharray:none" />
    <path
       d="M 642.5908496080534,109.60000000000008 L 630.4664939550712,88.6 L 654.7152052610356,88.6 L 642.5908496080534,109.60000000000008 Z"
       id="path110"
       style="vector-effect:non-scaling-stroke;-inkscape-stroke:hairline;stroke-width:0.26458333;stroke-dasharray:none" />
    <path
       d="M 642.5908496080534,60.39999999999992 L 654.7152052610356,81.40000000000002 L 630.4664939550712,81.4 L 642.5908496080534,60.39999999999992 Z"
       id="path111"
       style="vector-effect:non-scaling-stroke;-inkscape-stroke:hairline;stroke-width:0.26458333;stroke-dasharray:none" />
    <path
       d="M 660.9505881682835,77.80000000000008 L 648.8262325153013,56.79999999999998 L 673.0749438212657,56.80000000000001 L 660.9505881682835,77.80000000000008 Z"
       id="path112"
       style="vector-effect:non-scaling-stroke;-inkscape-stroke:hairline;stroke-width:0.26458333;stroke-dasharray:none" />
    <path
       d="M 660.9505881682835,28.59999999999991 L 673.0749438212657,49.60000000000001 L 648.8262325153014,49.599999999999994 L 660.9505881682835,28.59999999999991 Z"
       id="path113"
       style="vector-effect:non-scaling-stroke;-inkscape-stroke:hairline;stroke-width:0.26458333;stroke-dasharray:none" />
    <path
       d="M 679.3103267285137,46.00000000000006 L 667.1859710755315,24.99999999999997 L 691.4346823814958,25.0 L 679.3103267285137,46.00000000000006 Z"
       id="path114"
       style="vector-effect:non-scaling-stroke;-inkscape-stroke:hairline;stroke-width:0.26458333;stroke-dasharray:none" />
    <path
       d="M 642.5908496080534,123.99999999999993 L 654.7152052610356,145.0 L 630.4664939550712,145.0 L 642.5908496080534,123.99999999999993 Z"
       id="path115"
       style="vector-effect:non-scaling-stroke;-inkscape-stroke:hairline;stroke-width:0.26458333;stroke-dasharray:none" />
    <path
       d="M 660.9505881682835,141.4000000000001 L 648.8262325153013,120.4 L 673.0749438212657,120.4 L 660.9505881682835,141.4000000000001 Z"
       id="path116"
       style="vector-effect:non-scaling-stroke;-inkscape-stroke:hairline;stroke-width:0.26458333;stroke-dasharray:none" />
    <path
       d="M 660.9505881682835,92.19999999999992 L 673.0749438212657,113.20000000000002 L 648.8262325153013,113.19999999999999 L 660.9505881682835,92.19999999999992 Z"
       id="path117"
       style="vector-effect:non-scaling-stroke;-inkscape-stroke:hairline;stroke-width:0.26458333;stroke-dasharray:none" />
    <path
       d="M 679.3103267285136,109.60000000000008 L 667.1859710755314,88.6 L 691.4346823814958,88.6 L 679.3103267285136,109.60000000000008 Z"
       id="path118"
       style="vector-effect:non-scaling-stroke;-inkscape-stroke:hairline;stroke-width:0.26458333;stroke-dasharray:none" />
    <path
       d="M 679.3103267285136,60.39999999999992 L 691.4346823814958,81.40000000000002 L 667.1859710755314,81.4 L 679.3103267285136,60.39999999999992 Z"
       id="path119"
       style="vector-effect:non-scaling-stroke;-inkscape-stroke:hairline;stroke-width:0.26458333;stroke-dasharray:none" />
    <path
       d="M 697.6700652887437,77.80000000000008 L 685.5457096357615,56.79999999999998 L 709.7944209417259,56.80000000000001 L 697.6700652887437,77.80000000000008 Z"
       id="path120"
       style="vector-effect:non-scaling-stroke;-inkscape-stroke:hairline;stroke-width:0.26458333;stroke-dasharray:none" />
    <path
       d="M 697.6700652887437,28.59999999999991 L 709.7944209417259,49.60000000000001 L 685.5457096357616,49.599999999999994 L 697.6700652887437,28.59999999999991 Z"
       id="path121"
       style="vector-effect:non-scaling-stroke;-inkscape-stroke:hairline;stroke-width:0.26458333;stroke-dasharray:none" />
    <path
       d="M 716.0298038489739,46.00000000000006 L 703.9054481959917,24.99999999999997 L 728.154159501956,25.0 L 716.0298038489739,46.00000000000006 Z"
       id="path122"
       style="vector-effect:non-scaling-stroke;-inkscape-stroke:hairline;stroke-width:0.26458333;stroke-dasharray:none" />
    <path
       d="M 679.3103267285136,123.99999999999993 L 691.4346823814958,145.0 L 667.1859710755314,145.0 L 679.3103267285136,123.99999999999993 Z"
       id="path123"
       style="vector-effect:non-scaling-stroke;-inkscape-stroke:hairline;stroke-width:0.26458333;stroke-dasharray:none" />
    <path
       d="M 697.6700652887437,141.4000000000001 L 685.5457096357615,120.4 L 709.7944209417259,120.4 L 697.6700652887437,141.4000000000001 Z"
       id="path124"
       style="vector-effect:non-scaling-stroke;-inkscape-stroke:hairline;stroke-width:0.26458333;stroke-dasharray:none" />
    <path
       d="M 697.6700652887437,92.19999999999992 L 709.7944209417259,113.20000000000002 L 685.5457096357615,113.19999999999999 L 697.6700652887437,92.19999999999992 Z"
       id="path125"
       style="vector-effect:non-scaling-stroke;-inkscape-stroke:hairline;stroke-width:0.26458333;stroke-dasharray:none" />
    <path
       d="M 716.0298038489738,109.60000000000008 L 703.9054481959915,88.6 L 728.154159501956,88.6 L 716.0298038489738,109.60000000000008 Z"
       id="path126"
       style="vector-effect:non-scaling-stroke;-inkscape-stroke:hairline;stroke-width:0.26458333;stroke-dasharray:none" />
    <path
       d="M 716.0298038489738,60.39999999999992 L 728.154159501956,81.40000000000002 L 703.9054481959915,81.4 L 716.0298038489738,60.39999999999992 Z"
       id="path127"
       style="vector-effect:non-scaling-stroke;-inkscape-stroke:hairline;stroke-width:0.26458333;stroke-dasharray:none" />
    <path
       d="M 734.3895424092038,77.80000000000008 L 722.2651867562216,56.79999999999998 L 746.5138980621861,56.80000000000001 L 734.3895424092038,77.80000000000008 Z"
       id="path128"
       style="vector-effect:non-scaling-stroke;-inkscape-stroke:hairline;stroke-width:0.26458333;stroke-dasharray:none" />
    <path
       d="M 734.3895424092038,28.59999999999991 L 746.5138980621861,49.60000000000001 L 722.2651867562217,49.599999999999994 L 734.3895424092038,28.59999999999991 Z"
       id="path129"
       style="vector-effect:non-scaling-stroke;-inkscape-stroke:hairline;stroke-width:0.26458333;stroke-dasharray:none" />
    <path
       d="M 752.749280969434,46.00000000000006 L 740.6249253164518,24.99999999999997 L 764.8736366224161,25.0 L 752.749280969434,46.00000000000006 Z"
       id="path130"
       style="vector-effect:non-scaling-stroke;-inkscape-stroke:hairline;stroke-width:0.26458333;stroke-dasharray:none" />
    <path
       d="M 716.0298038489739,123.99999999999993 L 728.1541595019561,145.0 L 703.9054481959917,145.0 L 716.0298038489739,123.99999999999993 Z"
       id="path131"
       style="vector-effect:non-scaling-stroke;-inkscape-stroke:hairline;stroke-width:0.26458333;stroke-dasharray:none" />
    <path
       d="M 734.389542409204,141.4000000000001 L 722.2651867562217,120.4 L 746.5138980621862,120.4 L 734.389542409204,141.4000000000001 Z"
       id="path132"
       style="vector-effect:non-scaling-stroke;-inkscape-stroke:hairline;stroke-width:0.26458333;stroke-dasharray:none" />
    <path
       d="M 734.389542409204,92.19999999999992 L 746.5138980621862,113.20000000000002 L 722.2651867562217,113.19999999999999 L 734.389542409204,92.19999999999992 Z"
       id="path133"
       style="vector-effect:non-scaling-stroke;-inkscape-stroke:hairline;stroke-width:0.26458333;stroke-dasharray:none" />
    <path
       d="M 752.749280969434,109.60000000000008 L 740.6249253164518,88.6 L 764.8736366224163,88.6 L 752.749280969434,109.60000000000008 Z"
       id="path134"
       style="vector-effect:non-scaling-stroke;-inkscape-stroke:hairline;stroke-width:0.26458333;stroke-dasharray:none" />
    <path
       d="M 752.749280969434,60.39999999999992 L 764.8736366224163,81.40000000000002 L 740.6249253164518,81.4 L 752.749280969434,60.39999999999992 Z"
       id="path135"
       style="vector-effect:non-scaling-stroke;-inkscape-stroke:hairline;stroke-width:0.26458333;stroke-dasharray:none" />
    <path
       d="M 771.1090195296641,77.80000000000008 L 758.9846638766819,56.79999999999998 L 783.2333751826463,56.80000000000001 L 771.1090195296641,77.80000000000008 Z"
       id="path136"
       style="vector-effect:non-scaling-stroke;-inkscape-stroke:hairline;stroke-width:0.26458333;stroke-dasharray:none" />
    <path
       d="M 771.1090195296642,28.59999999999991 L 783.2333751826463,49.60000000000001 L 758.984663876682,49.599999999999994 L 771.1090195296642,28.59999999999991 Z"
       id="path137"
       style="vector-effect:non-scaling-stroke;-inkscape-stroke:hairline;stroke-width:0.26458333;stroke-dasharray:none" />
    <path
       d="M 789.4687580898942,46.00000000000007 L 777.3444024369121,24.99999999999997 L 801.5931137428764,25.0 L 789.4687580898942,46.00000000000007 Z"
       id="path138"
       style="vector-effect:non-scaling-stroke;-inkscape-stroke:hairline;stroke-width:0.26458333;stroke-dasharray:none" />
    <path
       d="M 752.749280969434,123.99999999999993 L 764.8736366224163,145.0 L 740.6249253164518,145.0 L 752.749280969434,123.99999999999993 Z"
       id="path139"
       style="vector-effect:non-scaling-stroke;-inkscape-stroke:hairline;stroke-width:0.26458333;stroke-dasharray:none" />
    <path
       d="M 771.1090195296641,141.4000000000001 L 758.9846638766819,120.4 L 783.2333751826463,120.4 L 771.1090195296641,141.4000000000001 Z"
       id="path140"
       style="vector-effect:non-scaling-stroke;-inkscape-stroke:hairline;stroke-width:0.26458333;stroke-dasharray:none" />
    <path
       d="M 771.1090195296641,92.19999999999992 L 783.2333751826463,113.20000000000002 L 758.9846638766819,113.19999999999999 L 771.1090195296641,92.19999999999992 Z"
       id="path141"
       style="vector-effect:non-scaling-stroke;-inkscape-stroke:hairline;stroke-width:0.26458333;stroke-dasharray:none" />
    <path
       d="M 789.4687580898942,109.60000000000008 L 777.344402436912,88.6 L 801.5931137428764,88.6 L 789.4687580898942,109.60000000000008 Z"
       id="path142"
       style="vector-effect:non-scaling-stroke;-inkscape-stroke:hairline;stroke-width:0.26458333;stroke-dasharray:none" />
    <path
       d="M 789.4687580898942,60.39999999999992 L 801.5931137428764,81.40000000000002 L 777.344402436912,81.4 L 789.4687580898942,60.39999999999992 Z"
       id="path143"
       style="vector-effect:non-scaling-stroke;-inkscape-stroke:hairline;stroke-width:0.26458333;stroke-dasharray:none" />
    <path
       d="M 807.8284966501243,77.80000000000008 L 795.7041409971421,56.79999999999998 L 819.9528523031065,56.80000000000001 L 807.8284966501243,77.80000000000008 Z"
       id="path144"
       style="vector-effect:non-scaling-stroke;-inkscape-stroke:hairline;stroke-width:0.26458333;stroke-dasharray:none" />
    <path
       d="M 807.8284966501244,28.59999999999991 L 819.9528523031065,49.60000000000001 L 795.7041409971422,49.599999999999994 L 807.8284966501244,28.59999999999991 Z"
       id="path145"
       style="vector-effect:non-scaling-stroke;-inkscape-stroke:hairline;stroke-width:0.26458333;stroke-dasharray:none" />
    <path
       d="M 826.1882352103544,46.00000000000007 L 814.0638795573723,24.99999999999997 L 838.3125908633366,25.0 L 826.1882352103544,46.00000000000007 Z"
       id="path146"
       style="vector-effect:non-scaling-stroke;-inkscape-stroke:hairline;stroke-width:0.26458333;stroke-dasharray:none" />
    <path
       d="M 789.4687580898942,123.99999999999993 L 801.5931137428764,145.0 L 777.344402436912,145.0 L 789.4687580898942,123.99999999999993 Z"
       id="path147"
       style="vector-effect:non-scaling-stroke;-inkscape-stroke:hairline;stroke-width:0.26458333;stroke-dasharray:none" />
    <path
       d="M 807.8284966501243,141.4000000000001 L 795.7041409971421,120.4 L 819.9528523031065,120.4 L 807.8284966501243,141.4000000000001 Z"
       id="path148"
       style="vector-effect:non-scaling-stroke;-inkscape-stroke:hairline;stroke-width:0.26458333;stroke-dasharray:none" />
    <path
       d="M 807.8284966501243,92.19999999999992 L 819.9528523031065,113.20000000000002 L 795.7041409971421,113.19999999999999 L 807.8284966501243,92.19999999999992 Z"
       id="path149"
       style="vector-effect:non-scaling-stroke;-inkscape-stroke:hairline;stroke-width:0.26458333;stroke-dasharray:none" />
    <path
       d="M 826.1882352103544,109.60000000000008 L 814.0638795573722,88.6 L 838.3125908633366,88.6 L 826.1882352103544,109.60000000000008 Z"
       id="path150"
       style="vector-effect:non-scaling-stroke;-inkscape-stroke:hairline;stroke-width:0.26458333;stroke-dasharray:none" />
    <path
       d="M 826.1882352103544,60.39999999999992 L 838.3125908633366,81.40000000000002 L 814.0638795573722,81.4 L 826.1882352103544,60.39999999999992 Z"
       id="path151"
       style="vector-effect:non-scaling-stroke;-inkscape-stroke:hairline;stroke-width:0.26458333;stroke-dasharray:none" />
    <path
       d="M 844.5479737705845,77.80000000000008 L 832.4236181176022,56.79999999999998 L 856.6723294235667,56.80000000000001 L 844.5479737705845,77.80000000000008 Z"
       id="path152"
       style="vector-effect:non-scaling-stroke;-inkscape-stroke:hairline;stroke-width:0.26458333;stroke-dasharray:none" />
    <path
       d="M 844.5479737705846,28.59999999999991 L 856.6723294235667,49.60000000000001 L 832.4236181176024,49.599999999999994 L 844.5479737705846,28.59999999999991 Z"
       id="path153"
       style="vector-effect:non-scaling-stroke;-inkscape-stroke:hairline;stroke-width:0.26458333;stroke-dasharray:none" />
    <path
       d="M 862.9077123308145,46.00000000000007 L 850.7833566778324,24.99999999999997 L 875.0320679837968,25.0 L 862.9077123308145,46.00000000000007 Z"
       id="path154"
       style="vector-effect:non-scaling-stroke;-inkscape-stroke:hairline;stroke-width:0.26458333;stroke-dasharray:none" />
    <path
       d="M 826.1882352103545,123.99999999999993 L 838.3125908633367,145.0 L 814.0638795573723,145.0 L 826.1882352103545,123.99999999999993 Z"
       id="path155"
       style="vector-effect:non-scaling-stroke;-inkscape-stroke:hairline;stroke-width:0.26458333;stroke-dasharray:none" />
    <path
       d="M 844.5479737705846,141.4000000000001 L 832.4236181176024,120.4 L 856.6723294235668,120.4 L 844.5479737705846,141.4000000000001 Z"
       id="path156"
       style="vector-effect:non-scaling-stroke;-inkscape-stroke:hairline;stroke-width:0.26458333;stroke-dasharray:none" />
    <path
       d="M 844.5479737705846,92.19999999999992 L 856.6723294235668,113.20000000000002 L 832.4236181176024,113.19999999999999 L 844.5479737705846,92.19999999999992 Z"
       id="path157"
       style="vector-effect:non-scaling-stroke;-inkscape-stroke:hairline;stroke-width:0.26458333;stroke-dasharray:none" />
    <path
       d="M 862.9077123308147,109.60000000000008 L 850.7833566778324,88.6 L 875.0320679837969,88.6 L 862.9077123308147,109.60000000000008 Z"
       id="path158"
       style="vector-effect:non-scaling-stroke;-inkscape-stroke:hairline;stroke-width:0.26458333;stroke-dasharray:none" />
    <path
       d="M 862.9077123308147,60.39999999999992 L 875.0320679837969,81.40000000000002 L 850.7833566778324,81.4 L 862.9077123308147,60.39999999999992 Z"
       id="path159"
       style="vector-effect:non-scaling-stroke;-inkscape-stroke:hairline;stroke-width:0.26458333;stroke-dasharray:none" />
    <path
       d="M 881.2674508910447,77.80000000000008 L 869.1430952380625,56.79999999999998 L 893.391806544027,56.80000000000001 L 881.2674508910447,77.80000000000008 Z"
       id="path160"
       style="vector-effect:non-scaling-stroke;-inkscape-stroke:hairline;stroke-width:0.26458333;stroke-dasharray:none" />
    <path
       d="M 881.2674508910447,28.59999999999991 L 893.391806544027,49.60000000000001 L 869.1430952380626,49.599999999999994 L 881.2674508910447,28.59999999999991 Z"
       id="path161"
       style="vector-effect:non-scaling-stroke;-inkscape-stroke:hairline;stroke-width:0.26458333;stroke-dasharray:none" />
    <path
       d="M 899.627189451275,46.00000000000006 L 887.5028337982927,24.99999999999997 L 911.751545104257,25.0 L 899.627189451275,46.00000000000006 Z"
       id="path162"
       style="vector-effect:non-scaling-stroke;-inkscape-stroke:hairline;stroke-width:0.26458333;stroke-dasharray:none" />
    <path
       d="M 862.9077123308147,123.99999999999993 L 875.0320679837969,145.0 L 850.7833566778324,145.0 L 862.9077123308147,123.99999999999993 Z"
       id="path163"
       style="vector-effect:non-scaling-stroke;-inkscape-stroke:hairline;stroke-width:0.26458333;stroke-dasharray:none" />
    <path
       d="M 881.2674508910447,141.4000000000001 L 869.1430952380625,120.4 L 893.391806544027,120.4 L 881.2674508910447,141.4000000000001 Z"
       id="path164"
       style="vector-effect:non-scaling-stroke;-inkscape-stroke:hairline;stroke-width:0.26458333;stroke-dasharray:none" />
    <path
       d="M 881.2674508910447,92.19999999999992 L 893.391806544027,113.20000000000002 L 869.1430952380625,113.19999999999999 L 881.2674508910447,92.19999999999992 Z"
       id="path165"
       style="vector-effect:non-scaling-stroke;-inkscape-stroke:hairline;stroke-width:0.26458333;stroke-dasharray:none" />
    <path
       d="M 899.6271894512748,109.60000000000008 L 887.5028337982926,88.6 L 911.751545104257,88.6 L 899.6271894512748,109.60000000000008 Z"
       id="path166"
       style="vector-effect:non-scaling-stroke;-inkscape-stroke:hairline;stroke-width:0.26458333;stroke-dasharray:none" />
    <path
       d="M 899.6271894512748,60.39999999999992 L 911.751545104257,81.40000000000002 L 887.5028337982926,81.4 L 899.6271894512748,60.39999999999992 Z"
       id="path167"
       style="vector-effect:non-scaling-stroke;-inkscape-stroke:hairline;stroke-width:0.26458333;stroke-dasharray:none" />
    <path
       d="M 917.9869280115049,77.80000000000008 L 905.8625723585227,56.79999999999998 L 930.1112836644871,56.80000000000001 L 917.9869280115049,77.80000000000008 Z"
       id="path168"
       style="vector-effect:non-scaling-stroke;-inkscape-stroke:hairline;stroke-width:0.26458333;stroke-dasharray:none" />
    <path
       d="M 917.9869280115049,28.59999999999991 L 930.1112836644871,49.60000000000001 L 905.8625723585228,49.599999999999994 L 917.9869280115049,28.59999999999991 Z"
       id="path169"
       style="vector-effect:non-scaling-stroke;-inkscape-stroke:hairline;stroke-width:0.26458333;stroke-dasharray:none" />
    <path
       d="M 936.3466665717351,46.00000000000006 L 924.2223109187529,24.99999999999997 L 948.4710222247172,25.0 L 936.3466665717351,46.00000000000006 Z"
       id="path170"
       style="vector-effect:non-scaling-stroke;-inkscape-stroke:hairline;stroke-width:0.26458333;stroke-dasharray:none" />
    <path
       d="M 899.6271894512748,123.99999999999993 L 911.751545104257,145.0 L 887.5028337982926,145.0 L 899.6271894512748,123.99999999999993 Z"
       id="path171"
       style="vector-effect:non-scaling-stroke;-inkscape-stroke:hairline;stroke-width:0.26458333;stroke-dasharray:none" />
    <path
       d="M 917.9869280115049,141.4000000000001 L 905.8625723585227,120.4 L 930.1112836644871,120.4 L 917.9869280115049,141.4000000000001 Z"
       id="path172"
       style="vector-effect:non-scaling-stroke;-inkscape-stroke:hairline;stroke-width:0.26458333;stroke-dasharray:none" />
    <path
       d="M 917.9869280115049,92.19999999999992 L 930.1112836644871,113.20000000000002 L 905.8625723585227,113.19999999999999 L 917.9869280115049,92.19999999999992 Z"
       id="path173"
       style="vector-effect:non-scaling-stroke;-inkscape-stroke:hairline;stroke-width:0.26458333;stroke-dasharray:none" />
    <path
       d="M 936.346666571735,109.60000000000008 L 924.2223109187528,88.6 L 948.4710222247172,88.6 L 936.346666571735,109.60000000000008 Z"
       id="path174"
       style="vector-effect:non-scaling-stroke;-inkscape-stroke:hairline;stroke-width:0.26458333;stroke-dasharray:none" />
    <path
       d="M 936.346666571735,60.39999999999992 L 948.4710222247172,81.40000000000002 L 924.2223109187528,81.4 L 936.346666571735,60.39999999999992 Z"
       id="path175"
       style="vector-effect:non-scaling-stroke;-inkscape-stroke:hairline;stroke-width:0.26458333;stroke-dasharray:none" />
    <path
       d="M 954.7064051319651,77.80000000000008 L 942.5820494789829,56.79999999999998 L 966.8307607849473,56.80000000000001 L 954.7064051319651,77.80000000000008 Z"
       id="path176"
       style="vector-effect:non-scaling-stroke;-inkscape-stroke:hairline;stroke-width:0.26458333;stroke-dasharray:none" />
    <path
       d="M 954.7064051319651,28.59999999999991 L 966.8307607849473,49.60000000000001 L 942.582049478983,49.599999999999994 L 954.7064051319651,28.59999999999991 Z"
       id="path177"
       style="vector-effect:non-scaling-stroke;-inkscape-stroke:hairline;stroke-width:0.26458333;stroke-dasharray:none" />
    <path
       d="M 973.0661436921953,46.00000000000006 L 960.9417880392131,24.99999999999997 L 985.1904993451774,25.0 L 973.0661436921953,46.00000000000006 Z"
       id="path178"
       style="vector-effect:non-scaling-stroke;-inkscape-stroke:hairline;stroke-width:0.26458333;stroke-dasharray:none" />
    <path
       d="M 936.346666571735,123.99999999999993 L 948.4710222247172,145.0 L 924.2223109187528,145.0 L 936.346666571735,123.99999999999993 Z"
       id="path179"
       style="vector-effect:non-scaling-stroke;-inkscape-stroke:hairline;stroke-width:0.26458333;stroke-dasharray:none" />
    <path
       d="M 954.7064051319651,141.4000000000001 L 942.5820494789829,120.4 L 966.8307607849473,120.4 L 954.7064051319651,141.4000000000001 Z"
       id="path180"
       style="vector-effect:non-scaling-stroke;-inkscape-stroke:hairline;stroke-width:0.26458333;stroke-dasharray:none" />
    <path
       d="M 954.7064051319651,92.19999999999992 L 966.8307607849473,113.20000000000002 L 942.5820494789829,113.19999999999999 L 954.7064051319651,92.19999999999992 Z"
       id="path181"
       style="vector-effect:non-scaling-stroke;-inkscape-stroke:hairline;stroke-width:0.26458333;stroke-dasharray:none" />
    <path
       d="M 973.0661436921952,109.60000000000008 L 960.941788039213,88.6 L 985.1904993451774,88.6 L 973.0661436921952,109.60000000000008 Z"
       id="path182"
       style="vector-effect:non-scaling-stroke;-inkscape-stroke:hairline;stroke-width:0.26458333;stroke-dasharray:none" />
    <path
       d="M 973.0661436921952,60.39999999999992 L 985.1904993451774,81.40000000000002 L 960.941788039213,81.4 L 973.0661436921952,60.39999999999992 Z"
       id="path183"
       style="vector-effect:non-scaling-stroke;-inkscape-stroke:hairline;stroke-width:0.26458333;stroke-dasharray:none" />
    <path
       d="M 973.0661436921952,123.99999999999993 L 985.1904993451774,145.0 L 960.941788039213,145.0 L 973.0661436921952,123.99999999999993 Z"
       id="path184"
       style="vector-effect:non-scaling-stroke;-inkscape-stroke:hairline;stroke-width:0.26458333;stroke-dasharray:none" />
    <path
       d="M 140.64252557459284,81.40000000000002 L 117.9720260870181,81.4 L 117.9720260870181,78.66645694544364 L 128.5181699216107,60.400000000000006 L 140.64252557459284,81.40000000000002 Z"
       id="path185"
       style="vector-effect:non-scaling-stroke;-inkscape-stroke:hairline;stroke-width:0.26458333;stroke-dasharray:none" />
    <path
       d="M 140.64252557459284,145.0 L 117.9720260870181,145.0 L 117.9720260870181,142.26645694544368 L 128.5181699216107,124.00000000000001 L 140.64252557459284,145.0 Z"
       id="path186"
       style="vector-effect:non-scaling-stroke;-inkscape-stroke:hairline;stroke-width:0.26458333;stroke-dasharray:none" />
    <path
       d="M 117.9720260870181,91.33354305455636 L 117.9720260870181,88.6 L 140.64252557459284,88.6 L 128.5181699216107,109.6 L 117.9720260870181,91.33354305455636 Z"
       id="path187"
       style="vector-effect:non-scaling-stroke;-inkscape-stroke:hairline;stroke-width:0.26458333;stroke-dasharray:none" />
    <path
       d="M 979.301526599443,120.4 L 1001.9720260870181,120.4 L 1001.9720260870181,123.13354305455607 L 991.4258822524253,141.4000000000001 L 979.301526599443,120.4 Z"
       id="path188"
       style="vector-effect:non-scaling-stroke;-inkscape-stroke:hairline;stroke-width:0.26458333;stroke-dasharray:none" />
    <path
       d="M 1001.9720260870181,110.46645694544395 L 1001.9720260870181,113.20000000000002 L 979.301526599443,113.19999999999999 L 991.4258822524253,92.19999999999992 L 1001.9720260870181,110.46645694544395 Z"
       id="path189"
       style="vector-effect:non-scaling-stroke;-inkscape-stroke:hairline;stroke-width:0.26458333;stroke-dasharray:none" />
    <path
       d="M 117.9720260870181,27.73354305455632 L 117.9720260870181,24.99999999999997 L 140.64252557459284,25.0 L 128.5181699216107,45.999999999999986 L 117.9720260870181,27.73354305455632 Z"
       id="path190"
       style="vector-effect:non-scaling-stroke;-inkscape-stroke:hairline;stroke-width:0.26458333;stroke-dasharray:none" />
    <path
       d="M 1001.9720260870181,46.86645694544394 L 1001.9720260870181,49.60000000000001 L 979.3015265994432,49.599999999999994 L 991.4258822524253,28.59999999999991 L 1001.9720260870181,46.86645694544394 Z"
       id="path191"
       style="vector-effect:non-scaling-stroke;-inkscape-stroke:hairline;stroke-width:0.26458333;stroke-dasharray:none" />
    <path
       d="M 979.301526599443,56.79999999999998 L 1001.9720260870181,56.80000000000001 L 1001.9720260870181,59.53354305455608 L 991.4258822524253,77.80000000000008 L 979.301526599443,56.79999999999998 Z"
       id="path192"
       style="vector-effect:non-scaling-stroke;-inkscape-stroke:hairline;stroke-width:0.26458333;stroke-dasharray:none" />
    <path
       d="M 105.9720260870181,170.0 L 1013.9720260870181,170.0 L 1013.9720260870181,0.0 L 105.9720260870181,0.0 L 105.9720260870181,170.0 Z"
       id="path193"
       style="vector-effect:non-scaling-stroke;-inkscape-stroke:hairline;stroke-width:0.26458333;stroke-dasharray:none" />
  </g>
</svg>
