<?xml version="1.0" encoding="UTF-8" standalone="no"?>
<svg
   height="300mm"
   version="1.1"
   viewBox="0 0 1200 300"
   width="1200mm"
   id="svg201"
   sodipodi:docname="tramo1.2.svg"
   inkscape:version="1.4.2 (2aeb623e1d, 2025-05-12)"
   xmlns:inkscape="http://www.inkscape.org/namespaces/inkscape"
   xmlns:sodipodi="http://sodipodi.sourceforge.net/DTD/sodipodi-0.dtd"
   xmlns="http://www.w3.org/2000/svg"
   xmlns:svg="http://www.w3.org/2000/svg">
  <sodipodi:namedview
     id="namedview201"
     pagecolor="#ffffff"
     bordercolor="#666666"
     borderopacity="1.0"
     inkscape:showpageshadow="2"
     inkscape:pageopacity="0.0"
     inkscape:pagecheckerboard="0"
     inkscape:deskcolor="#d1d1d1"
     inkscape:document-units="mm"
     showgrid="false"
     inkscape:zoom="0.21387153"
     inkscape:cx="1379.3327"
     inkscape:cy="1080.0877"
     inkscape:window-width="1920"
     inkscape:window-height="1011"
     inkscape:window-x="0"
     inkscape:window-y="0"
     inkscape:window-maximized="1"
     inkscape:current-layer="svg201" />
  <defs
     id="defs1" />
  <g
     fill="none"
     stroke="blue"
     stroke-width="0.5"
     transform="translate(40.027973912981906,61.5)"
     id="g201"
     style="vector-effect:non-scaling-stroke;-inkscape-stroke:hairline;stroke-width:0.26458333;stroke-dasharray:none">
    <path
       d="M 128.5181699216107,49.499999999999986 L 116.39381426862856,28.49999999999997 L 140.64252557459284,28.5 L 128.5181699216107,49.499999999999986 Z"
       id="path1"
       style="vector-effect:non-scaling-stroke;-inkscape-stroke:hairline;stroke-width:0.26458333;stroke-dasharray:none" />
    <path
       d="M 128.5181699216107,113.1 L 116.39381426862855,92.1 L 140.64252557459284,92.1 L 128.5181699216107,113.1 Z"
       id="path2"
       style="vector-effect:non-scaling-stroke;-inkscape-stroke:hairline;stroke-width:0.26458333;stroke-dasharray:none" />
    <path
       d="M 128.5181699216107,63.900000000000006 L 140.64252557459284,84.90000000000002 L 116.39381426862855,84.9 L 128.5181699216107,63.900000000000006 Z"
       id="path3"
       style="vector-effect:non-scaling-stroke;-inkscape-stroke:hairline;stroke-width:0.26458333;stroke-dasharray:none" />
    <path
       d="M 146.8779084818408,81.29999999999998 L 134.75355282885866,60.29999999999998 L 159.00226413482292,60.30000000000001 L 146.8779084818408,81.29999999999998 Z"
       id="path4"
       style="vector-effect:non-scaling-stroke;-inkscape-stroke:hairline;stroke-width:0.26458333;stroke-dasharray:none" />
    <path
       d="M 146.8779084818408,32.10000000000002 L 159.00226413482292,53.10000000000001 L 134.75355282885866,53.099999999999994 L 146.8779084818408,32.10000000000002 Z"
       id="path5"
       style="vector-effect:non-scaling-stroke;-inkscape-stroke:hairline;stroke-width:0.26458333;stroke-dasharray:none" />
    <path
       d="M 165.23764704207088,49.49999999999997 L 153.11329138908877,28.49999999999997 L 177.362002695053,28.5 L 165.23764704207088,49.49999999999997 Z"
       id="path6"
       style="vector-effect:non-scaling-stroke;-inkscape-stroke:hairline;stroke-width:0.26458333;stroke-dasharray:none" />
    <path
       d="M 128.5181699216107,127.50000000000001 L 140.64252557459284,148.5 L 116.39381426862856,148.5 L 128.5181699216107,127.50000000000001 Z"
       id="path7"
       style="vector-effect:non-scaling-stroke;-inkscape-stroke:hairline;stroke-width:0.26458333;stroke-dasharray:none" />
    <path
       d="M 146.8779084818408,144.89999999999998 L 134.7535528288587,123.9 L 159.00226413482292,123.9 L 146.8779084818408,144.89999999999998 Z"
       id="path8"
       style="vector-effect:non-scaling-stroke;-inkscape-stroke:hairline;stroke-width:0.26458333;stroke-dasharray:none" />
    <path
       d="M 146.8779084818408,95.70000000000002 L 159.00226413482292,116.70000000000002 L 134.75355282885866,116.69999999999999 L 146.8779084818408,95.70000000000002 Z"
       id="path9"
       style="vector-effect:non-scaling-stroke;-inkscape-stroke:hairline;stroke-width:0.26458333;stroke-dasharray:none" />
    <path
       d="M 165.23764704207088,113.09999999999998 L 153.11329138908874,92.1 L 177.362002695053,92.1 L 165.23764704207088,113.09999999999998 Z"
       id="path10"
       style="vector-effect:non-scaling-stroke;-inkscape-stroke:hairline;stroke-width:0.26458333;stroke-dasharray:none" />
    <path
       d="M 165.23764704207088,63.90000000000002 L 177.362002695053,84.90000000000002 L 153.11329138908874,84.9 L 165.23764704207088,63.90000000000002 Z"
       id="path11"
       style="vector-effect:non-scaling-stroke;-inkscape-stroke:hairline;stroke-width:0.26458333;stroke-dasharray:none" />
    <path
       d="M 183.59738560230096,81.29999999999998 L 171.47302994931883,60.29999999999998 L 195.72174125528312,60.30000000000001 L 183.59738560230096,81.29999999999998 Z"
       id="path12"
       style="vector-effect:non-scaling-stroke;-inkscape-stroke:hairline;stroke-width:0.26458333;stroke-dasharray:none" />
    <path
       d="M 183.597385602301,32.10000000000002 L 195.72174125528312,53.10000000000001 L 171.47302994931883,53.099999999999994 L 183.597385602301,32.10000000000002 Z"
       id="path13"
       style="vector-effect:non-scaling-stroke;-inkscape-stroke:hairline;stroke-width:0.26458333;stroke-dasharray:none" />
    <path
       d="M 201.95712416253107,49.49999999999997 L 189.83276850954897,28.49999999999997 L 214.0814798155132,28.5 L 201.95712416253107,49.49999999999997 Z"
       id="path14"
       style="vector-effect:non-scaling-stroke;-inkscape-stroke:hairline;stroke-width:0.26458333;stroke-dasharray:none" />
    <path
       d="M 165.23764704207088,127.50000000000003 L 177.36200269505298,148.5 L 153.11329138908877,148.5 L 165.23764704207088,127.50000000000003 Z"
       id="path15"
       style="vector-effect:non-scaling-stroke;-inkscape-stroke:hairline;stroke-width:0.26458333;stroke-dasharray:none" />
    <path
       d="M 183.59738560230096,144.89999999999998 L 171.47302994931886,123.9 L 195.72174125528312,123.9 L 183.59738560230096,144.89999999999998 Z"
       id="path16"
       style="vector-effect:non-scaling-stroke;-inkscape-stroke:hairline;stroke-width:0.26458333;stroke-dasharray:none" />
    <path
       d="M 183.597385602301,95.70000000000002 L 195.72174125528312,116.70000000000002 L 171.47302994931886,116.69999999999999 L 183.597385602301,95.70000000000002 Z"
       id="path17"
       style="vector-effect:non-scaling-stroke;-inkscape-stroke:hairline;stroke-width:0.26458333;stroke-dasharray:none" />
    <path
       d="M 201.95712416253107,113.09999999999998 L 189.83276850954894,92.1 L 214.0814798155132,92.1 L 201.95712416253107,113.09999999999998 Z"
       id="path18"
       style="vector-effect:non-scaling-stroke;-inkscape-stroke:hairline;stroke-width:0.26458333;stroke-dasharray:none" />
    <path
       d="M 201.9571241625311,63.90000000000002 L 214.08147981551323,84.90000000000002 L 189.83276850954897,84.9 L 201.9571241625311,63.90000000000002 Z"
       id="path19"
       style="vector-effect:non-scaling-stroke;-inkscape-stroke:hairline;stroke-width:0.26458333;stroke-dasharray:none" />
    <path
       d="M 220.3168627227612,81.29999999999998 L 208.19250706977905,60.29999999999998 L 232.44121837574332,60.30000000000001 L 220.3168627227612,81.29999999999998 Z"
       id="path20"
       style="vector-effect:non-scaling-stroke;-inkscape-stroke:hairline;stroke-width:0.26458333;stroke-dasharray:none" />
    <path
       d="M 220.3168627227612,32.10000000000002 L 232.44121837574332,53.10000000000001 L 208.19250706977905,53.099999999999994 L 220.3168627227612,32.10000000000002 Z"
       id="path21"
       style="vector-effect:non-scaling-stroke;-inkscape-stroke:hairline;stroke-width:0.26458333;stroke-dasharray:none" />
    <path
       d="M 238.67660128299127,49.49999999999997 L 226.55224563000917,28.49999999999997 L 250.80095693597343,28.5 L 238.67660128299127,49.49999999999997 Z"
       id="path22"
       style="vector-effect:non-scaling-stroke;-inkscape-stroke:hairline;stroke-width:0.26458333;stroke-dasharray:none" />
    <path
       d="M 201.9571241625311,127.50000000000003 L 214.0814798155132,148.5 L 189.83276850954894,148.5 L 201.9571241625311,127.50000000000003 Z"
       id="path23"
       style="vector-effect:non-scaling-stroke;-inkscape-stroke:hairline;stroke-width:0.26458333;stroke-dasharray:none" />
    <path
       d="M 220.3168627227612,144.89999999999998 L 208.19250706977908,123.9 L 232.44121837574332,123.9 L 220.3168627227612,144.89999999999998 Z"
       id="path24"
       style="vector-effect:non-scaling-stroke;-inkscape-stroke:hairline;stroke-width:0.26458333;stroke-dasharray:none" />
    <path
       d="M 220.3168627227612,95.70000000000002 L 232.44121837574332,116.70000000000002 L 208.19250706977905,116.69999999999999 L 220.3168627227612,95.70000000000002 Z"
       id="path25"
       style="vector-effect:non-scaling-stroke;-inkscape-stroke:hairline;stroke-width:0.26458333;stroke-dasharray:none" />
    <path
       d="M 238.67660128299127,113.09999999999998 L 226.55224563000914,92.1 L 250.80095693597343,92.1 L 238.67660128299127,113.09999999999998 Z"
       id="path26"
       style="vector-effect:non-scaling-stroke;-inkscape-stroke:hairline;stroke-width:0.26458333;stroke-dasharray:none" />
    <path
       d="M 238.67660128299127,63.90000000000002 L 250.8009569359734,84.90000000000002 L 226.55224563000914,84.9 L 238.67660128299127,63.90000000000002 Z"
       id="path27"
       style="vector-effect:non-scaling-stroke;-inkscape-stroke:hairline;stroke-width:0.26458333;stroke-dasharray:none" />
    <path
       d="M 257.03633984322136,81.29999999999998 L 244.91198419023922,60.29999999999998 L 269.1606954962035,60.30000000000001 L 257.03633984322136,81.29999999999998 Z"
       id="path28"
       style="vector-effect:non-scaling-stroke;-inkscape-stroke:hairline;stroke-width:0.26458333;stroke-dasharray:none" />
    <path
       d="M 257.0363398432214,32.099999999999994 L 269.1606954962035,53.10000000000001 L 244.91198419023925,53.099999999999994 L 257.0363398432214,32.099999999999994 Z"
       id="path29"
       style="vector-effect:non-scaling-stroke;-inkscape-stroke:hairline;stroke-width:0.26458333;stroke-dasharray:none" />
    <path
       d="M 275.3960784034515,49.49999999999997 L 263.2717227504694,28.49999999999997 L 287.5204340564336,28.5 L 275.3960784034515,49.49999999999997 Z"
       id="path30"
       style="vector-effect:non-scaling-stroke;-inkscape-stroke:hairline;stroke-width:0.26458333;stroke-dasharray:none" />
    <path
       d="M 238.67660128299127,127.50000000000003 L 250.80095693597337,148.5 L 226.55224563000917,148.5 L 238.67660128299127,127.50000000000003 Z"
       id="path31"
       style="vector-effect:non-scaling-stroke;-inkscape-stroke:hairline;stroke-width:0.26458333;stroke-dasharray:none" />
    <path
       d="M 257.03633984322136,144.89999999999998 L 244.91198419023925,123.9 L 269.1606954962035,123.9 L 257.03633984322136,144.89999999999998 Z"
       id="path32"
       style="vector-effect:non-scaling-stroke;-inkscape-stroke:hairline;stroke-width:0.26458333;stroke-dasharray:none" />
    <path
       d="M 257.0363398432214,95.70000000000002 L 269.1606954962035,116.70000000000002 L 244.91198419023928,116.69999999999999 L 257.0363398432214,95.70000000000002 Z"
       id="path33"
       style="vector-effect:non-scaling-stroke;-inkscape-stroke:hairline;stroke-width:0.26458333;stroke-dasharray:none" />
    <path
       d="M 275.3960784034515,113.09999999999997 L 263.2717227504694,92.1 L 287.5204340564336,92.1 L 275.3960784034515,113.09999999999997 Z"
       id="path34"
       style="vector-effect:non-scaling-stroke;-inkscape-stroke:hairline;stroke-width:0.26458333;stroke-dasharray:none" />
    <path
       d="M 275.3960784034515,63.90000000000002 L 287.5204340564336,84.90000000000002 L 263.2717227504694,84.9 L 275.3960784034515,63.90000000000002 Z"
       id="path35"
       style="vector-effect:non-scaling-stroke;-inkscape-stroke:hairline;stroke-width:0.26458333;stroke-dasharray:none" />
    <path
       d="M 293.7558169636816,81.29999999999998 L 281.6314613106995,60.29999999999998 L 305.88017261666374,60.30000000000001 L 293.7558169636816,81.29999999999998 Z"
       id="path36"
       style="vector-effect:non-scaling-stroke;-inkscape-stroke:hairline;stroke-width:0.26458333;stroke-dasharray:none" />
    <path
       d="M 293.7558169636816,32.10000000000002 L 305.8801726166637,53.10000000000001 L 281.6314613106995,53.099999999999994 L 293.7558169636816,32.10000000000002 Z"
       id="path37"
       style="vector-effect:non-scaling-stroke;-inkscape-stroke:hairline;stroke-width:0.26458333;stroke-dasharray:none" />
    <path
       d="M 312.11555552391167,49.49999999999997 L 299.99119987092956,28.49999999999997 L 324.2399111768938,28.5 L 312.11555552391167,49.49999999999997 Z"
       id="path38"
       style="vector-effect:non-scaling-stroke;-inkscape-stroke:hairline;stroke-width:0.26458333;stroke-dasharray:none" />
    <path
       d="M 275.3960784034515,127.50000000000003 L 287.5204340564336,148.5 L 263.2717227504694,148.5 L 275.3960784034515,127.50000000000003 Z"
       id="path39"
       style="vector-effect:non-scaling-stroke;-inkscape-stroke:hairline;stroke-width:0.26458333;stroke-dasharray:none" />
    <path
       d="M 293.7558169636816,144.89999999999998 L 281.6314613106995,123.9 L 305.8801726166637,123.9 L 293.7558169636816,144.89999999999998 Z"
       id="path40"
       style="vector-effect:non-scaling-stroke;-inkscape-stroke:hairline;stroke-width:0.26458333;stroke-dasharray:none" />
    <path
       d="M 293.7558169636816,95.70000000000002 L 305.8801726166637,116.70000000000002 L 281.6314613106995,116.69999999999999 L 293.7558169636816,95.70000000000002 Z"
       id="path41"
       style="vector-effect:non-scaling-stroke;-inkscape-stroke:hairline;stroke-width:0.26458333;stroke-dasharray:none" />
    <path
       d="M 312.11555552391167,113.09999999999997 L 299.99119987092956,92.1 L 324.23991117689377,92.1 L 312.11555552391167,113.09999999999997 Z"
       id="path42"
       style="vector-effect:non-scaling-stroke;-inkscape-stroke:hairline;stroke-width:0.26458333;stroke-dasharray:none" />
    <path
       d="M 312.1155555239117,63.90000000000002 L 324.2399111768938,84.90000000000002 L 299.9911998709296,84.9 L 312.1155555239117,63.90000000000002 Z"
       id="path43"
       style="vector-effect:non-scaling-stroke;-inkscape-stroke:hairline;stroke-width:0.26458333;stroke-dasharray:none" />
    <path
       d="M 330.4752940841418,81.29999999999998 L 318.3509384311597,60.29999999999998 L 342.5996497371239,60.30000000000001 L 330.4752940841418,81.29999999999998 Z"
       id="path44"
       style="vector-effect:non-scaling-stroke;-inkscape-stroke:hairline;stroke-width:0.26458333;stroke-dasharray:none" />
    <path
       d="M 330.4752940841418,32.10000000000002 L 342.5996497371239,53.10000000000001 L 318.3509384311597,53.099999999999994 L 330.4752940841418,32.10000000000002 Z"
       id="path45"
       style="vector-effect:non-scaling-stroke;-inkscape-stroke:hairline;stroke-width:0.26458333;stroke-dasharray:none" />
    <path
       d="M 348.8350326443719,49.49999999999997 L 336.7106769913898,28.49999999999997 L 360.959388297354,28.5 L 348.8350326443719,49.49999999999997 Z"
       id="path46"
       style="vector-effect:non-scaling-stroke;-inkscape-stroke:hairline;stroke-width:0.26458333;stroke-dasharray:none" />
    <path
       d="M 312.11555552391167,127.50000000000003 L 324.23991117689377,148.5 L 299.99119987092956,148.5 L 312.11555552391167,127.50000000000003 Z"
       id="path47"
       style="vector-effect:non-scaling-stroke;-inkscape-stroke:hairline;stroke-width:0.26458333;stroke-dasharray:none" />
    <path
       d="M 330.47529408414175,144.89999999999998 L 318.35093843115965,123.9 L 342.59964973712385,123.9 L 330.47529408414175,144.89999999999998 Z"
       id="path48"
       style="vector-effect:non-scaling-stroke;-inkscape-stroke:hairline;stroke-width:0.26458333;stroke-dasharray:none" />
    <path
       d="M 330.47529408414175,95.70000000000002 L 342.59964973712385,116.70000000000002 L 318.35093843115965,116.69999999999999 L 330.47529408414175,95.70000000000002 Z"
       id="path49"
       style="vector-effect:non-scaling-stroke;-inkscape-stroke:hairline;stroke-width:0.26458333;stroke-dasharray:none" />
    <path
       d="M 348.83503264437184,113.09999999999997 L 336.71067699138973,92.1 L 360.95938829735394,92.1 L 348.83503264437184,113.09999999999997 Z"
       id="path50"
       style="vector-effect:non-scaling-stroke;-inkscape-stroke:hairline;stroke-width:0.26458333;stroke-dasharray:none" />
    <path
       d="M 348.8350326443719,63.90000000000002 L 360.959388297354,84.90000000000002 L 336.7106769913898,84.9 L 348.8350326443719,63.90000000000002 Z"
       id="path51"
       style="vector-effect:non-scaling-stroke;-inkscape-stroke:hairline;stroke-width:0.26458333;stroke-dasharray:none" />
    <path
       d="M 367.194771204602,81.29999999999998 L 355.0704155516199,60.29999999999998 L 379.3191268575841,60.30000000000001 L 367.194771204602,81.29999999999998 Z"
       id="path52"
       style="vector-effect:non-scaling-stroke;-inkscape-stroke:hairline;stroke-width:0.26458333;stroke-dasharray:none" />
    <path
       d="M 367.194771204602,32.10000000000002 L 379.3191268575841,53.10000000000001 L 355.0704155516199,53.099999999999994 L 367.194771204602,32.10000000000002 Z"
       id="path53"
       style="vector-effect:non-scaling-stroke;-inkscape-stroke:hairline;stroke-width:0.26458333;stroke-dasharray:none" />
    <path
       d="M 385.55450976483206,49.49999999999997 L 373.43015411184996,28.49999999999997 L 397.67886541781417,28.5 L 385.55450976483206,49.49999999999997 Z"
       id="path54"
       style="vector-effect:non-scaling-stroke;-inkscape-stroke:hairline;stroke-width:0.26458333;stroke-dasharray:none" />
    <path
       d="M 348.83503264437184,127.50000000000003 L 360.95938829735394,148.5 L 336.71067699138973,148.5 L 348.83503264437184,127.50000000000003 Z"
       id="path55"
       style="vector-effect:non-scaling-stroke;-inkscape-stroke:hairline;stroke-width:0.26458333;stroke-dasharray:none" />
    <path
       d="M 367.1947712046019,144.89999999999998 L 355.0704155516198,123.9 L 379.319126857584,123.9 L 367.1947712046019,144.89999999999998 Z"
       id="path56"
       style="vector-effect:non-scaling-stroke;-inkscape-stroke:hairline;stroke-width:0.26458333;stroke-dasharray:none" />
    <path
       d="M 367.1947712046019,95.70000000000002 L 379.319126857584,116.70000000000002 L 355.0704155516198,116.69999999999999 L 367.1947712046019,95.70000000000002 Z"
       id="path57"
       style="vector-effect:non-scaling-stroke;-inkscape-stroke:hairline;stroke-width:0.26458333;stroke-dasharray:none" />
    <path
       d="M 385.554509764832,113.09999999999997 L 373.4301541118499,92.1 L 397.6788654178141,92.1 L 385.554509764832,113.09999999999997 Z"
       id="path58"
       style="vector-effect:non-scaling-stroke;-inkscape-stroke:hairline;stroke-width:0.26458333;stroke-dasharray:none" />
    <path
       d="M 385.55450976483206,63.90000000000002 L 397.67886541781417,84.90000000000002 L 373.43015411184996,84.9 L 385.55450976483206,63.90000000000002 Z"
       id="path59"
       style="vector-effect:non-scaling-stroke;-inkscape-stroke:hairline;stroke-width:0.26458333;stroke-dasharray:none" />
    <path
       d="M 403.91424832506215,81.29999999999998 L 391.78989267208004,60.29999999999998 L 416.03860397804425,60.30000000000001 L 403.91424832506215,81.29999999999998 Z"
       id="path60"
       style="vector-effect:non-scaling-stroke;-inkscape-stroke:hairline;stroke-width:0.26458333;stroke-dasharray:none" />
    <path
       d="M 403.91424832506215,32.10000000000002 L 416.03860397804425,53.10000000000001 L 391.78989267208004,53.099999999999994 L 403.91424832506215,32.10000000000002 Z"
       id="path61"
       style="vector-effect:non-scaling-stroke;-inkscape-stroke:hairline;stroke-width:0.26458333;stroke-dasharray:none" />
    <path
       d="M 422.27398688529223,49.49999999999997 L 410.1496312323101,28.49999999999997 L 434.39834253827433,28.5 L 422.27398688529223,49.49999999999997 Z"
       id="path62"
       style="vector-effect:non-scaling-stroke;-inkscape-stroke:hairline;stroke-width:0.26458333;stroke-dasharray:none" />
    <path
       d="M 385.55450976483206,127.50000000000003 L 397.67886541781417,148.5 L 373.43015411184996,148.5 L 385.55450976483206,127.50000000000003 Z"
       id="path63"
       style="vector-effect:non-scaling-stroke;-inkscape-stroke:hairline;stroke-width:0.26458333;stroke-dasharray:none" />
    <path
       d="M 403.91424832506215,144.89999999999998 L 391.78989267208004,123.9 L 416.0386039780443,123.9 L 403.91424832506215,144.89999999999998 Z"
       id="path64"
       style="vector-effect:non-scaling-stroke;-inkscape-stroke:hairline;stroke-width:0.26458333;stroke-dasharray:none" />
    <path
       d="M 403.9142483250622,95.70000000000002 L 416.0386039780443,116.70000000000002 L 391.7898926720801,116.69999999999999 L 403.9142483250622,95.70000000000002 Z"
       id="path65"
       style="vector-effect:non-scaling-stroke;-inkscape-stroke:hairline;stroke-width:0.26458333;stroke-dasharray:none" />
    <path
       d="M 422.2739868852923,113.09999999999997 L 410.1496312323102,92.1 L 434.3983425382744,92.1 L 422.2739868852923,113.09999999999997 Z"
       id="path66"
       style="vector-effect:non-scaling-stroke;-inkscape-stroke:hairline;stroke-width:0.26458333;stroke-dasharray:none" />
    <path
       d="M 422.2739868852923,63.90000000000002 L 434.3983425382744,84.90000000000002 L 410.1496312323102,84.9 L 422.2739868852923,63.90000000000002 Z"
       id="path67"
       style="vector-effect:non-scaling-stroke;-inkscape-stroke:hairline;stroke-width:0.26458333;stroke-dasharray:none" />
    <path
       d="M 440.6337254455224,81.29999999999998 L 428.50936979254027,60.29999999999998 L 452.75808109850453,60.30000000000001 L 440.6337254455224,81.29999999999998 Z"
       id="path68"
       style="vector-effect:non-scaling-stroke;-inkscape-stroke:hairline;stroke-width:0.26458333;stroke-dasharray:none" />
    <path
       d="M 440.6337254455224,32.10000000000002 L 452.7580810985045,53.10000000000001 L 428.50936979254027,53.099999999999994 L 440.6337254455224,32.10000000000002 Z"
       id="path69"
       style="vector-effect:non-scaling-stroke;-inkscape-stroke:hairline;stroke-width:0.26458333;stroke-dasharray:none" />
    <path
       d="M 458.99346400575246,49.49999999999997 L 446.86910835277035,28.49999999999997 L 471.1178196587346,28.5 L 458.99346400575246,49.49999999999997 Z"
       id="path70"
       style="vector-effect:non-scaling-stroke;-inkscape-stroke:hairline;stroke-width:0.26458333;stroke-dasharray:none" />
    <path
       d="M 422.2739868852923,127.50000000000003 L 434.3983425382744,148.5 L 410.1496312323102,148.5 L 422.2739868852923,127.50000000000003 Z"
       id="path71"
       style="vector-effect:non-scaling-stroke;-inkscape-stroke:hairline;stroke-width:0.26458333;stroke-dasharray:none" />
    <path
       d="M 440.6337254455224,144.89999999999998 L 428.50936979254027,123.9 L 452.7580810985045,123.9 L 440.6337254455224,144.89999999999998 Z"
       id="path72"
       style="vector-effect:non-scaling-stroke;-inkscape-stroke:hairline;stroke-width:0.26458333;stroke-dasharray:none" />
    <path
       d="M 440.6337254455224,95.70000000000002 L 452.7580810985045,116.70000000000002 L 428.50936979254027,116.69999999999999 L 440.6337254455224,95.70000000000002 Z"
       id="path73"
       style="vector-effect:non-scaling-stroke;-inkscape-stroke:hairline;stroke-width:0.26458333;stroke-dasharray:none" />
    <path
       d="M 458.99346400575246,113.09999999999997 L 446.86910835277035,92.1 L 471.11781965873456,92.1 L 458.99346400575246,113.09999999999997 Z"
       id="path74"
       style="vector-effect:non-scaling-stroke;-inkscape-stroke:hairline;stroke-width:0.26458333;stroke-dasharray:none" />
    <path
       d="M 458.9934640057525,63.90000000000002 L 471.1178196587346,84.90000000000002 L 446.8691083527704,84.9 L 458.9934640057525,63.90000000000002 Z"
       id="path75"
       style="vector-effect:non-scaling-stroke;-inkscape-stroke:hairline;stroke-width:0.26458333;stroke-dasharray:none" />
    <path
       d="M 477.3532025659826,81.29999999999998 L 465.2288469130005,60.29999999999998 L 489.4775582189647,60.30000000000001 L 477.3532025659826,81.29999999999998 Z"
       id="path76"
       style="vector-effect:non-scaling-stroke;-inkscape-stroke:hairline;stroke-width:0.26458333;stroke-dasharray:none" />
    <path
       d="M 477.3532025659826,32.10000000000002 L 489.4775582189647,53.10000000000001 L 465.2288469130005,53.099999999999994 L 477.3532025659826,32.10000000000002 Z"
       id="path77"
       style="vector-effect:non-scaling-stroke;-inkscape-stroke:hairline;stroke-width:0.26458333;stroke-dasharray:none" />
    <path
       d="M 495.7129411262127,49.49999999999997 L 483.5885854732306,28.49999999999997 L 507.83729677919484,28.5 L 495.7129411262127,49.49999999999997 Z"
       id="path78"
       style="vector-effect:non-scaling-stroke;-inkscape-stroke:hairline;stroke-width:0.26458333;stroke-dasharray:none" />
    <path
       d="M 458.99346400575246,127.50000000000003 L 471.11781965873456,148.5 L 446.86910835277035,148.5 L 458.99346400575246,127.50000000000003 Z"
       id="path79"
       style="vector-effect:non-scaling-stroke;-inkscape-stroke:hairline;stroke-width:0.26458333;stroke-dasharray:none" />
    <path
       d="M 477.35320256598254,144.89999999999998 L 465.22884691300044,123.9 L 489.47755821896465,123.9 L 477.35320256598254,144.89999999999998 Z"
       id="path80"
       style="vector-effect:non-scaling-stroke;-inkscape-stroke:hairline;stroke-width:0.26458333;stroke-dasharray:none" />
    <path
       d="M 477.35320256598254,95.70000000000002 L 489.47755821896465,116.70000000000002 L 465.22884691300044,116.69999999999999 L 477.35320256598254,95.70000000000002 Z"
       id="path81"
       style="vector-effect:non-scaling-stroke;-inkscape-stroke:hairline;stroke-width:0.26458333;stroke-dasharray:none" />
    <path
       d="M 495.7129411262126,113.09999999999997 L 483.5885854732305,92.1 L 507.83729677919473,92.1 L 495.7129411262126,113.09999999999997 Z"
       id="path82"
       style="vector-effect:non-scaling-stroke;-inkscape-stroke:hairline;stroke-width:0.26458333;stroke-dasharray:none" />
    <path
       d="M 495.7129411262127,63.900000000000034 L 507.83729677919473,84.90000000000002 L 483.5885854732306,84.9 L 495.7129411262127,63.900000000000034 Z"
       id="path83"
       style="vector-effect:non-scaling-stroke;-inkscape-stroke:hairline;stroke-width:0.26458333;stroke-dasharray:none" />
    <path
       d="M 514.0726796864427,81.30000000000003 L 501.9483240334606,60.29999999999998 L 526.1970353394249,60.30000000000001 L 514.0726796864427,81.30000000000003 Z"
       id="path84"
       style="vector-effect:non-scaling-stroke;-inkscape-stroke:hairline;stroke-width:0.26458333;stroke-dasharray:none" />
    <path
       d="M 514.0726796864428,32.099999999999966 L 526.1970353394249,53.10000000000001 L 501.94832403346066,53.099999999999994 L 514.0726796864428,32.099999999999966 Z"
       id="path85"
       style="vector-effect:non-scaling-stroke;-inkscape-stroke:hairline;stroke-width:0.26458333;stroke-dasharray:none" />
    <path
       d="M 532.4324182466728,49.50000000000007 L 520.3080625936907,28.49999999999997 L 544.556773899655,28.5 L 532.4324182466728,49.50000000000007 Z"
       id="path86"
       style="vector-effect:non-scaling-stroke;-inkscape-stroke:hairline;stroke-width:0.26458333;stroke-dasharray:none" />
    <path
       d="M 495.7129411262126,127.50000000000003 L 507.83729677919473,148.5 L 483.5885854732305,148.5 L 495.7129411262126,127.50000000000003 Z"
       id="path87"
       style="vector-effect:non-scaling-stroke;-inkscape-stroke:hairline;stroke-width:0.26458333;stroke-dasharray:none" />
    <path
       d="M 514.0726796864427,144.90000000000003 L 501.9483240334606,123.9 L 526.1970353394249,123.9 L 514.0726796864427,144.90000000000003 Z"
       id="path88"
       style="vector-effect:non-scaling-stroke;-inkscape-stroke:hairline;stroke-width:0.26458333;stroke-dasharray:none" />
    <path
       d="M 514.0726796864427,95.69999999999997 L 526.1970353394249,116.70000000000002 L 501.9483240334606,116.69999999999999 L 514.0726796864427,95.69999999999997 Z"
       id="path89"
       style="vector-effect:non-scaling-stroke;-inkscape-stroke:hairline;stroke-width:0.26458333;stroke-dasharray:none" />
    <path
       d="M 532.4324182466728,113.10000000000008 L 520.3080625936906,92.1 L 544.556773899655,92.1 L 532.4324182466728,113.10000000000008 Z"
       id="path90"
       style="vector-effect:non-scaling-stroke;-inkscape-stroke:hairline;stroke-width:0.26458333;stroke-dasharray:none" />
    <path
       d="M 532.4324182466728,63.89999999999992 L 544.556773899655,84.90000000000002 L 520.3080625936906,84.9 L 532.4324182466728,63.89999999999992 Z"
       id="path91"
       style="vector-effect:non-scaling-stroke;-inkscape-stroke:hairline;stroke-width:0.26458333;stroke-dasharray:none" />
    <path
       d="M 550.7921568069029,81.30000000000008 L 538.6678011539207,60.29999999999998 L 562.9165124598851,60.30000000000001 L 550.7921568069029,81.30000000000008 Z"
       id="path92"
       style="vector-effect:non-scaling-stroke;-inkscape-stroke:hairline;stroke-width:0.26458333;stroke-dasharray:none" />
    <path
       d="M 550.792156806903,32.09999999999991 L 562.9165124598851,53.10000000000001 L 538.6678011539208,53.099999999999994 L 550.792156806903,32.09999999999991 Z"
       id="path93"
       style="vector-effect:non-scaling-stroke;-inkscape-stroke:hairline;stroke-width:0.26458333;stroke-dasharray:none" />
    <path
       d="M 569.151895367133,49.50000000000007 L 557.0275397141509,28.49999999999997 L 581.2762510201152,28.5 L 569.151895367133,49.50000000000007 Z"
       id="path94"
       style="vector-effect:non-scaling-stroke;-inkscape-stroke:hairline;stroke-width:0.26458333;stroke-dasharray:none" />
    <path
       d="M 532.4324182466729,127.49999999999993 L 544.5567738996551,148.5 L 520.3080625936907,148.5 L 532.4324182466729,127.49999999999993 Z"
       id="path95"
       style="vector-effect:non-scaling-stroke;-inkscape-stroke:hairline;stroke-width:0.26458333;stroke-dasharray:none" />
    <path
       d="M 550.792156806903,144.9000000000001 L 538.6678011539208,123.9 L 562.9165124598852,123.9 L 550.792156806903,144.9000000000001 Z"
       id="path96"
       style="vector-effect:non-scaling-stroke;-inkscape-stroke:hairline;stroke-width:0.26458333;stroke-dasharray:none" />
    <path
       d="M 550.792156806903,95.69999999999992 L 562.9165124598852,116.70000000000002 L 538.6678011539208,116.69999999999999 L 550.792156806903,95.69999999999992 Z"
       id="path97"
       style="vector-effect:non-scaling-stroke;-inkscape-stroke:hairline;stroke-width:0.26458333;stroke-dasharray:none" />
    <path
       d="M 569.1518953671331,113.10000000000008 L 557.0275397141509,92.1 L 581.2762510201153,92.1 L 569.1518953671331,113.10000000000008 Z"
       id="path98"
       style="vector-effect:non-scaling-stroke;-inkscape-stroke:hairline;stroke-width:0.26458333;stroke-dasharray:none" />
    <path
       d="M 569.1518953671331,63.89999999999992 L 581.2762510201153,84.90000000000002 L 557.0275397141509,84.9 L 569.1518953671331,63.89999999999992 Z"
       id="path99"
       style="vector-effect:non-scaling-stroke;-inkscape-stroke:hairline;stroke-width:0.26458333;stroke-dasharray:none" />
    <path
       d="M 587.5116339273632,81.30000000000008 L 575.387278274381,60.29999999999998 L 599.6359895803454,60.30000000000001 L 587.5116339273632,81.30000000000008 Z"
       id="path100"
       style="vector-effect:non-scaling-stroke;-inkscape-stroke:hairline;stroke-width:0.26458333;stroke-dasharray:none" />
    <path
       d="M 587.5116339273632,32.09999999999991 L 599.6359895803454,53.10000000000001 L 575.3872782743811,53.099999999999994 L 587.5116339273632,32.09999999999991 Z"
       id="path101"
       style="vector-effect:non-scaling-stroke;-inkscape-stroke:hairline;stroke-width:0.26458333;stroke-dasharray:none" />
    <path
       d="M 605.8713724875934,49.50000000000006 L 593.7470168346111,28.49999999999997 L 617.9957281405755,28.5 L 605.8713724875934,49.50000000000006 Z"
       id="path102"
       style="vector-effect:non-scaling-stroke;-inkscape-stroke:hairline;stroke-width:0.26458333;stroke-dasharray:none" />
    <path
       d="M 569.1518953671331,127.49999999999993 L 581.2762510201153,148.5 L 557.0275397141509,148.5 L 569.1518953671331,127.49999999999993 Z"
       id="path103"
       style="vector-effect:non-scaling-stroke;-inkscape-stroke:hairline;stroke-width:0.26458333;stroke-dasharray:none" />
    <path
       d="M 587.5116339273632,144.9000000000001 L 575.387278274381,123.9 L 599.6359895803454,123.9 L 587.5116339273632,144.9000000000001 Z"
       id="path104"
       style="vector-effect:non-scaling-stroke;-inkscape-stroke:hairline;stroke-width:0.26458333;stroke-dasharray:none" />
    <path
       d="M 587.5116339273632,95.69999999999992 L 599.6359895803454,116.70000000000002 L 575.387278274381,116.69999999999999 L 587.5116339273632,95.69999999999992 Z"
       id="path105"
       style="vector-effect:non-scaling-stroke;-inkscape-stroke:hairline;stroke-width:0.26458333;stroke-dasharray:none" />
    <path
       d="M 605.8713724875932,113.10000000000008 L 593.747016834611,92.1 L 617.9957281405755,92.1 L 605.8713724875932,113.10000000000008 Z"
       id="path106"
       style="vector-effect:non-scaling-stroke;-inkscape-stroke:hairline;stroke-width:0.26458333;stroke-dasharray:none" />
    <path
       d="M 605.8713724875932,63.89999999999992 L 617.9957281405755,84.90000000000002 L 593.747016834611,84.9 L 605.8713724875932,63.89999999999992 Z"
       id="path107"
       style="vector-effect:non-scaling-stroke;-inkscape-stroke:hairline;stroke-width:0.26458333;stroke-dasharray:none" />
    <path
       d="M 624.2311110478233,81.30000000000008 L 612.1067553948411,60.29999999999998 L 636.3554667008056,60.30000000000001 L 624.2311110478233,81.30000000000008 Z"
       id="path108"
       style="vector-effect:non-scaling-stroke;-inkscape-stroke:hairline;stroke-width:0.26458333;stroke-dasharray:none" />
    <path
       d="M 624.2311110478233,32.09999999999991 L 636.3554667008056,53.10000000000001 L 612.1067553948412,53.099999999999994 L 624.2311110478233,32.09999999999991 Z"
       id="path109"
       style="vector-effect:non-scaling-stroke;-inkscape-stroke:hairline;stroke-width:0.26458333;stroke-dasharray:none" />
    <path
       d="M 642.5908496080535,49.50000000000006 L 630.4664939550713,28.49999999999997 L 654.7152052610356,28.5 L 642.5908496080535,49.50000000000006 Z"
       id="path110"
       style="vector-effect:non-scaling-stroke;-inkscape-stroke:hairline;stroke-width:0.26458333;stroke-dasharray:none" />
    <path
       d="M 605.8713724875932,127.49999999999993 L 617.9957281405755,148.5 L 593.747016834611,148.5 L 605.8713724875932,127.49999999999993 Z"
       id="path111"
       style="vector-effect:non-scaling-stroke;-inkscape-stroke:hairline;stroke-width:0.26458333;stroke-dasharray:none" />
    <path
       d="M 624.2311110478233,144.9000000000001 L 612.1067553948411,123.9 L 636.3554667008056,123.9 L 624.2311110478233,144.9000000000001 Z"
       id="path112"
       style="vector-effect:non-scaling-stroke;-inkscape-stroke:hairline;stroke-width:0.26458333;stroke-dasharray:none" />
    <path
       d="M 624.2311110478233,95.69999999999992 L 636.3554667008056,116.70000000000002 L 612.1067553948411,116.69999999999999 L 624.2311110478233,95.69999999999992 Z"
       id="path113"
       style="vector-effect:non-scaling-stroke;-inkscape-stroke:hairline;stroke-width:0.26458333;stroke-dasharray:none" />
    <path
       d="M 642.5908496080534,113.10000000000008 L 630.4664939550712,92.1 L 654.7152052610356,92.1 L 642.5908496080534,113.10000000000008 Z"
       id="path114"
       style="vector-effect:non-scaling-stroke;-inkscape-stroke:hairline;stroke-width:0.26458333;stroke-dasharray:none" />
    <path
       d="M 642.5908496080534,63.89999999999992 L 654.7152052610356,84.90000000000002 L 630.4664939550712,84.9 L 642.5908496080534,63.89999999999992 Z"
       id="path115"
       style="vector-effect:non-scaling-stroke;-inkscape-stroke:hairline;stroke-width:0.26458333;stroke-dasharray:none" />
    <path
       d="M 660.9505881682835,81.30000000000008 L 648.8262325153013,60.29999999999998 L 673.0749438212657,60.30000000000001 L 660.9505881682835,81.30000000000008 Z"
       id="path116"
       style="vector-effect:non-scaling-stroke;-inkscape-stroke:hairline;stroke-width:0.26458333;stroke-dasharray:none" />
    <path
       d="M 660.9505881682835,32.09999999999991 L 673.0749438212657,53.10000000000001 L 648.8262325153014,53.099999999999994 L 660.9505881682835,32.09999999999991 Z"
       id="path117"
       style="vector-effect:non-scaling-stroke;-inkscape-stroke:hairline;stroke-width:0.26458333;stroke-dasharray:none" />
    <path
       d="M 679.3103267285137,49.50000000000006 L 667.1859710755315,28.49999999999997 L 691.4346823814958,28.5 L 679.3103267285137,49.50000000000006 Z"
       id="path118"
       style="vector-effect:non-scaling-stroke;-inkscape-stroke:hairline;stroke-width:0.26458333;stroke-dasharray:none" />
    <path
       d="M 642.5908496080534,127.49999999999993 L 654.7152052610356,148.5 L 630.4664939550712,148.5 L 642.5908496080534,127.49999999999993 Z"
       id="path119"
       style="vector-effect:non-scaling-stroke;-inkscape-stroke:hairline;stroke-width:0.26458333;stroke-dasharray:none" />
    <path
       d="M 660.9505881682835,144.9000000000001 L 648.8262325153013,123.9 L 673.0749438212657,123.9 L 660.9505881682835,144.9000000000001 Z"
       id="path120"
       style="vector-effect:non-scaling-stroke;-inkscape-stroke:hairline;stroke-width:0.26458333;stroke-dasharray:none" />
    <path
       d="M 660.9505881682835,95.69999999999992 L 673.0749438212657,116.70000000000002 L 648.8262325153013,116.69999999999999 L 660.9505881682835,95.69999999999992 Z"
       id="path121"
       style="vector-effect:non-scaling-stroke;-inkscape-stroke:hairline;stroke-width:0.26458333;stroke-dasharray:none" />
    <path
       d="M 679.3103267285136,113.10000000000008 L 667.1859710755314,92.1 L 691.4346823814958,92.1 L 679.3103267285136,113.10000000000008 Z"
       id="path122"
       style="vector-effect:non-scaling-stroke;-inkscape-stroke:hairline;stroke-width:0.26458333;stroke-dasharray:none" />
    <path
       d="M 679.3103267285136,63.89999999999992 L 691.4346823814958,84.90000000000002 L 667.1859710755314,84.9 L 679.3103267285136,63.89999999999992 Z"
       id="path123"
       style="vector-effect:non-scaling-stroke;-inkscape-stroke:hairline;stroke-width:0.26458333;stroke-dasharray:none" />
    <path
       d="M 697.6700652887437,81.30000000000008 L 685.5457096357615,60.29999999999998 L 709.7944209417259,60.30000000000001 L 697.6700652887437,81.30000000000008 Z"
       id="path124"
       style="vector-effect:non-scaling-stroke;-inkscape-stroke:hairline;stroke-width:0.26458333;stroke-dasharray:none" />
    <path
       d="M 697.6700652887437,32.09999999999991 L 709.7944209417259,53.10000000000001 L 685.5457096357616,53.099999999999994 L 697.6700652887437,32.09999999999991 Z"
       id="path125"
       style="vector-effect:non-scaling-stroke;-inkscape-stroke:hairline;stroke-width:0.26458333;stroke-dasharray:none" />
    <path
       d="M 716.0298038489739,49.50000000000006 L 703.9054481959917,28.49999999999997 L 728.154159501956,28.5 L 716.0298038489739,49.50000000000006 Z"
       id="path126"
       style="vector-effect:non-scaling-stroke;-inkscape-stroke:hairline;stroke-width:0.26458333;stroke-dasharray:none" />
    <path
       d="M 679.3103267285136,127.49999999999993 L 691.4346823814958,148.5 L 667.1859710755314,148.5 L 679.3103267285136,127.49999999999993 Z"
       id="path127"
       style="vector-effect:non-scaling-stroke;-inkscape-stroke:hairline;stroke-width:0.26458333;stroke-dasharray:none" />
    <path
       d="M 697.6700652887437,144.9000000000001 L 685.5457096357615,123.9 L 709.7944209417259,123.9 L 697.6700652887437,144.9000000000001 Z"
       id="path128"
       style="vector-effect:non-scaling-stroke;-inkscape-stroke:hairline;stroke-width:0.26458333;stroke-dasharray:none" />
    <path
       d="M 697.6700652887437,95.69999999999992 L 709.7944209417259,116.70000000000002 L 685.5457096357615,116.69999999999999 L 697.6700652887437,95.69999999999992 Z"
       id="path129"
       style="vector-effect:non-scaling-stroke;-inkscape-stroke:hairline;stroke-width:0.26458333;stroke-dasharray:none" />
    <path
       d="M 716.0298038489738,113.10000000000008 L 703.9054481959915,92.1 L 728.154159501956,92.1 L 716.0298038489738,113.10000000000008 Z"
       id="path130"
       style="vector-effect:non-scaling-stroke;-inkscape-stroke:hairline;stroke-width:0.26458333;stroke-dasharray:none" />
    <path
       d="M 716.0298038489738,63.89999999999992 L 728.154159501956,84.90000000000002 L 703.9054481959915,84.9 L 716.0298038489738,63.89999999999992 Z"
       id="path131"
       style="vector-effect:non-scaling-stroke;-inkscape-stroke:hairline;stroke-width:0.26458333;stroke-dasharray:none" />
    <path
       d="M 734.3895424092038,81.30000000000008 L 722.2651867562216,60.29999999999998 L 746.5138980621861,60.30000000000001 L 734.3895424092038,81.30000000000008 Z"
       id="path132"
       style="vector-effect:non-scaling-stroke;-inkscape-stroke:hairline;stroke-width:0.26458333;stroke-dasharray:none" />
    <path
       d="M 734.3895424092038,32.09999999999991 L 746.5138980621861,53.10000000000001 L 722.2651867562217,53.099999999999994 L 734.3895424092038,32.09999999999991 Z"
       id="path133"
       style="vector-effect:non-scaling-stroke;-inkscape-stroke:hairline;stroke-width:0.26458333;stroke-dasharray:none" />
    <path
       d="M 752.749280969434,49.50000000000006 L 740.6249253164518,28.49999999999997 L 764.8736366224161,28.5 L 752.749280969434,49.50000000000006 Z"
       id="path134"
       style="vector-effect:non-scaling-stroke;-inkscape-stroke:hairline;stroke-width:0.26458333;stroke-dasharray:none" />
    <path
       d="M 716.0298038489739,127.49999999999993 L 728.1541595019561,148.5 L 703.9054481959917,148.5 L 716.0298038489739,127.49999999999993 Z"
       id="path135"
       style="vector-effect:non-scaling-stroke;-inkscape-stroke:hairline;stroke-width:0.26458333;stroke-dasharray:none" />
    <path
       d="M 734.389542409204,144.9000000000001 L 722.2651867562217,123.9 L 746.5138980621862,123.9 L 734.389542409204,144.9000000000001 Z"
       id="path136"
       style="vector-effect:non-scaling-stroke;-inkscape-stroke:hairline;stroke-width:0.26458333;stroke-dasharray:none" />
    <path
       d="M 734.389542409204,95.69999999999992 L 746.5138980621862,116.70000000000002 L 722.2651867562217,116.69999999999999 L 734.389542409204,95.69999999999992 Z"
       id="path137"
       style="vector-effect:non-scaling-stroke;-inkscape-stroke:hairline;stroke-width:0.26458333;stroke-dasharray:none" />
    <path
       d="M 752.749280969434,113.10000000000008 L 740.6249253164518,92.1 L 764.8736366224163,92.1 L 752.749280969434,113.10000000000008 Z"
       id="path138"
       style="vector-effect:non-scaling-stroke;-inkscape-stroke:hairline;stroke-width:0.26458333;stroke-dasharray:none" />
    <path
       d="M 752.749280969434,63.89999999999992 L 764.8736366224163,84.90000000000002 L 740.6249253164518,84.9 L 752.749280969434,63.89999999999992 Z"
       id="path139"
       style="vector-effect:non-scaling-stroke;-inkscape-stroke:hairline;stroke-width:0.26458333;stroke-dasharray:none" />
    <path
       d="M 771.1090195296641,81.30000000000008 L 758.9846638766819,60.29999999999998 L 783.2333751826463,60.30000000000001 L 771.1090195296641,81.30000000000008 Z"
       id="path140"
       style="vector-effect:non-scaling-stroke;-inkscape-stroke:hairline;stroke-width:0.26458333;stroke-dasharray:none" />
    <path
       d="M 771.1090195296642,32.09999999999991 L 783.2333751826463,53.10000000000001 L 758.984663876682,53.099999999999994 L 771.1090195296642,32.09999999999991 Z"
       id="path141"
       style="vector-effect:non-scaling-stroke;-inkscape-stroke:hairline;stroke-width:0.26458333;stroke-dasharray:none" />
    <path
       d="M 789.4687580898942,49.50000000000007 L 777.3444024369121,28.49999999999997 L 801.5931137428764,28.5 L 789.4687580898942,49.50000000000007 Z"
       id="path142"
       style="vector-effect:non-scaling-stroke;-inkscape-stroke:hairline;stroke-width:0.26458333;stroke-dasharray:none" />
    <path
       d="M 752.749280969434,127.49999999999993 L 764.8736366224163,148.5 L 740.6249253164518,148.5 L 752.749280969434,127.49999999999993 Z"
       id="path143"
       style="vector-effect:non-scaling-stroke;-inkscape-stroke:hairline;stroke-width:0.26458333;stroke-dasharray:none" />
    <path
       d="M 771.1090195296641,144.9000000000001 L 758.9846638766819,123.9 L 783.2333751826463,123.9 L 771.1090195296641,144.9000000000001 Z"
       id="path144"
       style="vector-effect:non-scaling-stroke;-inkscape-stroke:hairline;stroke-width:0.26458333;stroke-dasharray:none" />
    <path
       d="M 771.1090195296641,95.69999999999992 L 783.2333751826463,116.70000000000002 L 758.9846638766819,116.69999999999999 L 771.1090195296641,95.69999999999992 Z"
       id="path145"
       style="vector-effect:non-scaling-stroke;-inkscape-stroke:hairline;stroke-width:0.26458333;stroke-dasharray:none" />
    <path
       d="M 789.4687580898942,113.10000000000008 L 777.344402436912,92.1 L 801.5931137428764,92.1 L 789.4687580898942,113.10000000000008 Z"
       id="path146"
       style="vector-effect:non-scaling-stroke;-inkscape-stroke:hairline;stroke-width:0.26458333;stroke-dasharray:none" />
    <path
       d="M 789.4687580898942,63.89999999999992 L 801.5931137428764,84.90000000000002 L 777.344402436912,84.9 L 789.4687580898942,63.89999999999992 Z"
       id="path147"
       style="vector-effect:non-scaling-stroke;-inkscape-stroke:hairline;stroke-width:0.26458333;stroke-dasharray:none" />
    <path
       d="M 807.8284966501243,81.30000000000008 L 795.7041409971421,60.29999999999998 L 819.9528523031065,60.30000000000001 L 807.8284966501243,81.30000000000008 Z"
       id="path148"
       style="vector-effect:non-scaling-stroke;-inkscape-stroke:hairline;stroke-width:0.26458333;stroke-dasharray:none" />
    <path
       d="M 807.8284966501244,32.09999999999991 L 819.9528523031065,53.10000000000001 L 795.7041409971422,53.099999999999994 L 807.8284966501244,32.09999999999991 Z"
       id="path149"
       style="vector-effect:non-scaling-stroke;-inkscape-stroke:hairline;stroke-width:0.26458333;stroke-dasharray:none" />
    <path
       d="M 826.1882352103544,49.50000000000007 L 814.0638795573723,28.49999999999997 L 838.3125908633366,28.5 L 826.1882352103544,49.50000000000007 Z"
       id="path150"
       style="vector-effect:non-scaling-stroke;-inkscape-stroke:hairline;stroke-width:0.26458333;stroke-dasharray:none" />
    <path
       d="M 789.4687580898942,127.49999999999993 L 801.5931137428764,148.5 L 777.344402436912,148.5 L 789.4687580898942,127.49999999999993 Z"
       id="path151"
       style="vector-effect:non-scaling-stroke;-inkscape-stroke:hairline;stroke-width:0.26458333;stroke-dasharray:none" />
    <path
       d="M 807.8284966501243,144.9000000000001 L 795.7041409971421,123.9 L 819.9528523031065,123.9 L 807.8284966501243,144.9000000000001 Z"
       id="path152"
       style="vector-effect:non-scaling-stroke;-inkscape-stroke:hairline;stroke-width:0.26458333;stroke-dasharray:none" />
    <path
       d="M 807.8284966501243,95.69999999999992 L 819.9528523031065,116.70000000000002 L 795.7041409971421,116.69999999999999 L 807.8284966501243,95.69999999999992 Z"
       id="path153"
       style="vector-effect:non-scaling-stroke;-inkscape-stroke:hairline;stroke-width:0.26458333;stroke-dasharray:none" />
    <path
       d="M 826.1882352103544,113.10000000000008 L 814.0638795573722,92.1 L 838.3125908633366,92.1 L 826.1882352103544,113.10000000000008 Z"
       id="path154"
       style="vector-effect:non-scaling-stroke;-inkscape-stroke:hairline;stroke-width:0.26458333;stroke-dasharray:none" />
    <path
       d="M 826.1882352103544,63.89999999999992 L 838.3125908633366,84.90000000000002 L 814.0638795573722,84.9 L 826.1882352103544,63.89999999999992 Z"
       id="path155"
       style="vector-effect:non-scaling-stroke;-inkscape-stroke:hairline;stroke-width:0.26458333;stroke-dasharray:none" />
    <path
       d="M 844.5479737705845,81.30000000000008 L 832.4236181176022,60.29999999999998 L 856.6723294235667,60.30000000000001 L 844.5479737705845,81.30000000000008 Z"
       id="path156"
       style="vector-effect:non-scaling-stroke;-inkscape-stroke:hairline;stroke-width:0.26458333;stroke-dasharray:none" />
    <path
       d="M 844.5479737705846,32.09999999999991 L 856.6723294235667,53.10000000000001 L 832.4236181176024,53.099999999999994 L 844.5479737705846,32.09999999999991 Z"
       id="path157"
       style="vector-effect:non-scaling-stroke;-inkscape-stroke:hairline;stroke-width:0.26458333;stroke-dasharray:none" />
    <path
       d="M 862.9077123308145,49.50000000000007 L 850.7833566778324,28.49999999999997 L 875.0320679837968,28.5 L 862.9077123308145,49.50000000000007 Z"
       id="path158"
       style="vector-effect:non-scaling-stroke;-inkscape-stroke:hairline;stroke-width:0.26458333;stroke-dasharray:none" />
    <path
       d="M 826.1882352103545,127.49999999999993 L 838.3125908633367,148.5 L 814.0638795573723,148.5 L 826.1882352103545,127.49999999999993 Z"
       id="path159"
       style="vector-effect:non-scaling-stroke;-inkscape-stroke:hairline;stroke-width:0.26458333;stroke-dasharray:none" />
    <path
       d="M 844.5479737705846,144.9000000000001 L 832.4236181176024,123.9 L 856.6723294235668,123.9 L 844.5479737705846,144.9000000000001 Z"
       id="path160"
       style="vector-effect:non-scaling-stroke;-inkscape-stroke:hairline;stroke-width:0.26458333;stroke-dasharray:none" />
    <path
       d="M 844.5479737705846,95.69999999999992 L 856.6723294235668,116.70000000000002 L 832.4236181176024,116.69999999999999 L 844.5479737705846,95.69999999999992 Z"
       id="path161"
       style="vector-effect:non-scaling-stroke;-inkscape-stroke:hairline;stroke-width:0.26458333;stroke-dasharray:none" />
    <path
       d="M 862.9077123308147,113.10000000000008 L 850.7833566778324,92.1 L 875.0320679837969,92.1 L 862.9077123308147,113.10000000000008 Z"
       id="path162"
       style="vector-effect:non-scaling-stroke;-inkscape-stroke:hairline;stroke-width:0.26458333;stroke-dasharray:none" />
    <path
       d="M 862.9077123308147,63.89999999999992 L 875.0320679837969,84.90000000000002 L 850.7833566778324,84.9 L 862.9077123308147,63.89999999999992 Z"
       id="path163"
       style="vector-effect:non-scaling-stroke;-inkscape-stroke:hairline;stroke-width:0.26458333;stroke-dasharray:none" />
    <path
       d="M 881.2674508910447,81.30000000000008 L 869.1430952380625,60.29999999999998 L 893.391806544027,60.30000000000001 L 881.2674508910447,81.30000000000008 Z"
       id="path164"
       style="vector-effect:non-scaling-stroke;-inkscape-stroke:hairline;stroke-width:0.26458333;stroke-dasharray:none" />
    <path
       d="M 881.2674508910447,32.09999999999991 L 893.391806544027,53.10000000000001 L 869.1430952380626,53.099999999999994 L 881.2674508910447,32.09999999999991 Z"
       id="path165"
       style="vector-effect:non-scaling-stroke;-inkscape-stroke:hairline;stroke-width:0.26458333;stroke-dasharray:none" />
    <path
       d="M 899.627189451275,49.50000000000006 L 887.5028337982927,28.49999999999997 L 911.751545104257,28.5 L 899.627189451275,49.50000000000006 Z"
       id="path166"
       style="vector-effect:non-scaling-stroke;-inkscape-stroke:hairline;stroke-width:0.26458333;stroke-dasharray:none" />
    <path
       d="M 862.9077123308147,127.49999999999993 L 875.0320679837969,148.5 L 850.7833566778324,148.5 L 862.9077123308147,127.49999999999993 Z"
       id="path167"
       style="vector-effect:non-scaling-stroke;-inkscape-stroke:hairline;stroke-width:0.26458333;stroke-dasharray:none" />
    <path
       d="M 881.2674508910447,144.9000000000001 L 869.1430952380625,123.9 L 893.391806544027,123.9 L 881.2674508910447,144.9000000000001 Z"
       id="path168"
       style="vector-effect:non-scaling-stroke;-inkscape-stroke:hairline;stroke-width:0.26458333;stroke-dasharray:none" />
    <path
       d="M 881.2674508910447,95.69999999999992 L 893.391806544027,116.70000000000002 L 869.1430952380625,116.69999999999999 L 881.2674508910447,95.69999999999992 Z"
       id="path169"
       style="vector-effect:non-scaling-stroke;-inkscape-stroke:hairline;stroke-width:0.26458333;stroke-dasharray:none" />
    <path
       d="M 899.6271894512748,113.10000000000008 L 887.5028337982926,92.1 L 911.751545104257,92.1 L 899.6271894512748,113.10000000000008 Z"
       id="path170"
       style="vector-effect:non-scaling-stroke;-inkscape-stroke:hairline;stroke-width:0.26458333;stroke-dasharray:none" />
    <path
       d="M 899.6271894512748,63.89999999999992 L 911.751545104257,84.90000000000002 L 887.5028337982926,84.9 L 899.6271894512748,63.89999999999992 Z"
       id="path171"
       style="vector-effect:non-scaling-stroke;-inkscape-stroke:hairline;stroke-width:0.26458333;stroke-dasharray:none" />
    <path
       d="M 917.9869280115049,81.30000000000008 L 905.8625723585227,60.29999999999998 L 930.1112836644871,60.30000000000001 L 917.9869280115049,81.30000000000008 Z"
       id="path172"
       style="vector-effect:non-scaling-stroke;-inkscape-stroke:hairline;stroke-width:0.26458333;stroke-dasharray:none" />
    <path
       d="M 917.9869280115049,32.09999999999991 L 930.1112836644871,53.10000000000001 L 905.8625723585228,53.099999999999994 L 917.9869280115049,32.09999999999991 Z"
       id="path173"
       style="vector-effect:non-scaling-stroke;-inkscape-stroke:hairline;stroke-width:0.26458333;stroke-dasharray:none" />
    <path
       d="M 936.3466665717351,49.50000000000006 L 924.2223109187529,28.49999999999997 L 948.4710222247172,28.5 L 936.3466665717351,49.50000000000006 Z"
       id="path174"
       style="vector-effect:non-scaling-stroke;-inkscape-stroke:hairline;stroke-width:0.26458333;stroke-dasharray:none" />
    <path
       d="M 899.6271894512748,127.49999999999993 L 911.751545104257,148.5 L 887.5028337982926,148.5 L 899.6271894512748,127.49999999999993 Z"
       id="path175"
       style="vector-effect:non-scaling-stroke;-inkscape-stroke:hairline;stroke-width:0.26458333;stroke-dasharray:none" />
    <path
       d="M 917.9869280115049,144.9000000000001 L 905.8625723585227,123.9 L 930.1112836644871,123.9 L 917.9869280115049,144.9000000000001 Z"
       id="path176"
       style="vector-effect:non-scaling-stroke;-inkscape-stroke:hairline;stroke-width:0.26458333;stroke-dasharray:none" />
    <path
       d="M 917.9869280115049,95.69999999999992 L 930.1112836644871,116.70000000000002 L 905.8625723585227,116.69999999999999 L 917.9869280115049,95.69999999999992 Z"
       id="path177"
       style="vector-effect:non-scaling-stroke;-inkscape-stroke:hairline;stroke-width:0.26458333;stroke-dasharray:none" />
    <path
       d="M 936.346666571735,113.10000000000008 L 924.2223109187528,92.1 L 948.4710222247172,92.1 L 936.346666571735,113.10000000000008 Z"
       id="path178"
       style="vector-effect:non-scaling-stroke;-inkscape-stroke:hairline;stroke-width:0.26458333;stroke-dasharray:none" />
    <path
       d="M 936.346666571735,63.89999999999992 L 948.4710222247172,84.90000000000002 L 924.2223109187528,84.9 L 936.346666571735,63.89999999999992 Z"
       id="path179"
       style="vector-effect:non-scaling-stroke;-inkscape-stroke:hairline;stroke-width:0.26458333;stroke-dasharray:none" />
    <path
       d="M 954.7064051319651,81.30000000000008 L 942.5820494789829,60.29999999999998 L 966.8307607849473,60.30000000000001 L 954.7064051319651,81.30000000000008 Z"
       id="path180"
       style="vector-effect:non-scaling-stroke;-inkscape-stroke:hairline;stroke-width:0.26458333;stroke-dasharray:none" />
    <path
       d="M 954.7064051319651,32.09999999999991 L 966.8307607849473,53.10000000000001 L 942.582049478983,53.099999999999994 L 954.7064051319651,32.09999999999991 Z"
       id="path181"
       style="vector-effect:non-scaling-stroke;-inkscape-stroke:hairline;stroke-width:0.26458333;stroke-dasharray:none" />
    <path
       d="M 973.0661436921953,49.50000000000006 L 960.9417880392131,28.49999999999997 L 985.1904993451774,28.5 L 973.0661436921953,49.50000000000006 Z"
       id="path182"
       style="vector-effect:non-scaling-stroke;-inkscape-stroke:hairline;stroke-width:0.26458333;stroke-dasharray:none" />
    <path
       d="M 936.346666571735,127.49999999999993 L 948.4710222247172,148.5 L 924.2223109187528,148.5 L 936.346666571735,127.49999999999993 Z"
       id="path183"
       style="vector-effect:non-scaling-stroke;-inkscape-stroke:hairline;stroke-width:0.26458333;stroke-dasharray:none" />
    <path
       d="M 954.7064051319651,144.9000000000001 L 942.5820494789829,123.9 L 966.8307607849473,123.9 L 954.7064051319651,144.9000000000001 Z"
       id="path184"
       style="vector-effect:non-scaling-stroke;-inkscape-stroke:hairline;stroke-width:0.26458333;stroke-dasharray:none" />
    <path
       d="M 954.7064051319651,95.69999999999992 L 966.8307607849473,116.70000000000002 L 942.5820494789829,116.69999999999999 L 954.7064051319651,95.69999999999992 Z"
       id="path185"
       style="vector-effect:non-scaling-stroke;-inkscape-stroke:hairline;stroke-width:0.26458333;stroke-dasharray:none" />
    <path
       d="M 973.0661436921952,113.10000000000008 L 960.941788039213,92.1 L 985.1904993451774,92.1 L 973.0661436921952,113.10000000000008 Z"
       id="path186"
       style="vector-effect:non-scaling-stroke;-inkscape-stroke:hairline;stroke-width:0.26458333;stroke-dasharray:none" />
    <path
       d="M 973.0661436921952,63.89999999999992 L 985.1904993451774,84.90000000000002 L 960.941788039213,84.9 L 973.0661436921952,63.89999999999992 Z"
       id="path187"
       style="vector-effect:non-scaling-stroke;-inkscape-stroke:hairline;stroke-width:0.26458333;stroke-dasharray:none" />
    <path
       d="M 991.4258822524253,81.30000000000008 L 979.301526599443,60.29999999999998 L 1003.5502379054075,60.30000000000001 L 991.4258822524253,81.30000000000008 Z"
       id="path188"
       style="vector-effect:non-scaling-stroke;-inkscape-stroke:hairline;stroke-width:0.26458333;stroke-dasharray:none" />
    <path
       d="M 991.4258822524253,32.09999999999991 L 1003.5502379054075,53.10000000000001 L 979.3015265994432,53.099999999999994 L 991.4258822524253,32.09999999999991 Z"
       id="path189"
       style="vector-effect:non-scaling-stroke;-inkscape-stroke:hairline;stroke-width:0.26458333;stroke-dasharray:none" />
    <path
       d="M 973.0661436921952,127.49999999999993 L 985.1904993451774,148.5 L 960.941788039213,148.5 L 973.0661436921952,127.49999999999993 Z"
       id="path190"
       style="vector-effect:non-scaling-stroke;-inkscape-stroke:hairline;stroke-width:0.26458333;stroke-dasharray:none" />
    <path
       d="M 991.4258822524253,144.9000000000001 L 979.301526599443,123.9 L 1003.5502379054075,123.9 L 991.4258822524253,144.9000000000001 Z"
       id="path191"
       style="vector-effect:non-scaling-stroke;-inkscape-stroke:hairline;stroke-width:0.26458333;stroke-dasharray:none" />
    <path
       d="M 991.4258822524253,95.69999999999992 L 1003.5502379054075,116.70000000000002 L 979.301526599443,116.69999999999999 L 991.4258822524253,95.69999999999992 Z"
       id="path192"
       style="vector-effect:non-scaling-stroke;-inkscape-stroke:hairline;stroke-width:0.26458333;stroke-dasharray:none" />
    <path
       d="M 110.9720260870181,60.3 L 122.28278701436275,60.30000000000001 L 110.9720260870181,79.8908125984258 L 110.9720260870181,60.3 Z"
       id="path193"
       style="vector-effect:non-scaling-stroke;-inkscape-stroke:hairline;stroke-width:0.26458333;stroke-dasharray:none" />
    <path
       d="M 997.6612651596731,92.1 L 1008.9720260870181,92.1 L 1008.9720260870181,111.69081259842629 L 997.6612651596731,92.1 Z"
       id="path194"
       style="vector-effect:non-scaling-stroke;-inkscape-stroke:hairline;stroke-width:0.26458333;stroke-dasharray:none" />
    <path
       d="M 110.9720260870181,53.10000000000001 L 110.9720260870181,33.509187401574195 L 122.28278701436273,53.10000000000001 L 110.9720260870181,53.10000000000001 Z"
       id="path195"
       style="vector-effect:non-scaling-stroke;-inkscape-stroke:hairline;stroke-width:0.26458333;stroke-dasharray:none" />
    <path
       d="M 110.9720260870181,123.9 L 122.28278701436274,123.9 L 110.9720260870181,143.4908125984258 L 110.9720260870181,123.9 Z"
       id="path196"
       style="vector-effect:non-scaling-stroke;-inkscape-stroke:hairline;stroke-width:0.26458333;stroke-dasharray:none" />
    <path
       d="M 997.6612651596732,28.49999999999997 L 1008.9720260870181,28.49999999999997 L 1008.9720260870181,48.09081259842608 L 997.6612651596732,28.49999999999997 Z"
       id="path197"
       style="vector-effect:non-scaling-stroke;-inkscape-stroke:hairline;stroke-width:0.26458333;stroke-dasharray:none" />
    <path
       d="M 997.6612651596731,84.9 L 1008.9720260870181,65.30918740157371 L 1008.9720260870181,84.9 L 997.6612651596731,84.9 Z"
       id="path198"
       style="vector-effect:non-scaling-stroke;-inkscape-stroke:hairline;stroke-width:0.26458333;stroke-dasharray:none" />
    <path
       d="M 110.9720260870181,116.7 L 110.9720260870181,97.1091874015742 L 122.28278701436273,116.70000000000002 L 110.9720260870181,116.7 Z"
       id="path199"
       style="vector-effect:non-scaling-stroke;-inkscape-stroke:hairline;stroke-width:0.26458333;stroke-dasharray:none" />
    <path
       d="M 997.6612651596732,148.5 L 1008.9720260870181,128.9091874015739 L 1008.9720260870181,148.5 L 997.6612651596732,148.5 Z"
       id="path200"
       style="vector-effect:non-scaling-stroke;-inkscape-stroke:hairline;stroke-width:0.26458333;stroke-dasharray:none" />
    <path
       d="M 106.9720260870181,177.0 L 1012.9720260870181,177.0 L 1012.9720260870181,0.0 L 106.9720260870181,0.0 L 106.9720260870181,177.0 Z"
       id="path201"
       style="vector-effect:non-scaling-stroke;-inkscape-stroke:hairline;stroke-width:0.26458333;stroke-dasharray:none" />
  </g>
</svg>
