999
"DXF R12 Output" (www.mydxf.blogspot.com)
 0 
SECTION
 2 
HEADER
 9 
$ACADVER
 1 
AC1009
 9 
$EXTMIN
 10 
 0 
 20 
 0 
 9 
$EXTMAX
 10 
 8.5 
 20 
 11 
 0 
ENDSEC
 0 
SECTION
 2 
ENTITIES
0
POLYLINE
8
Layer 1
62
7
70
1
10
0.000000
20
0.000000
66
1
0
VERTEX
8
Layer 1
10
168.546170
20
189.000000
70
0
0
VERTEX
8
Layer 1
10
156.421814
20
210.000000
70
0
0
VERTEX
8
Layer 1
10
180.670526
20
210.000000
70
0
0
VERTEX
8
Layer 1
10
168.546170
20
189.000000
70
0
0
VERTEX
8
Layer 1
10
168.546170
20
189.000000
70
0
0
SEQEND
8
Layer 1
0
POLYLINE
8
Layer 1
62
7
70
1
10
0.000000
20
0.000000
66
1
0
VERTEX
8
Layer 1
10
168.546170
20
125.400000
70
0
0
VERTEX
8
Layer 1
10
156.421814
20
146.400000
70
0
0
VERTEX
8
Layer 1
10
180.670526
20
146.400000
70
0
0
VERTEX
8
Layer 1
10
168.546170
20
125.400000
70
0
0
VERTEX
8
Layer 1
10
168.546170
20
125.400000
70
0
0
SEQEND
8
Layer 1
0
POLYLINE
8
Layer 1
62
7
70
1
10
0.000000
20
0.000000
66
1
0
VERTEX
8
Layer 1
10
168.546170
20
174.600000
70
0
0
VERTEX
8
Layer 1
10
180.670526
20
153.600000
70
0
0
VERTEX
8
Layer 1
10
156.421814
20
153.600000
70
0
0
VERTEX
8
Layer 1
10
168.546170
20
174.600000
70
0
0
VERTEX
8
Layer 1
10
168.546170
20
174.600000
70
0
0
SEQEND
8
Layer 1
0
POLYLINE
8
Layer 1
62
7
70
1
10
0.000000
20
0.000000
66
1
0
VERTEX
8
Layer 1
10
186.905908
20
157.200000
70
0
0
VERTEX
8
Layer 1
10
174.781553
20
178.200000
70
0
0
VERTEX
8
Layer 1
10
199.030264
20
178.200000
70
0
0
VERTEX
8
Layer 1
10
186.905908
20
157.200000
70
0
0
VERTEX
8
Layer 1
10
186.905908
20
157.200000
70
0
0
SEQEND
8
Layer 1
0
POLYLINE
8
Layer 1
62
7
70
1
10
0.000000
20
0.000000
66
1
0
VERTEX
8
Layer 1
10
186.905908
20
206.400000
70
0
0
VERTEX
8
Layer 1
10
199.030264
20
185.400000
70
0
0
VERTEX
8
Layer 1
10
174.781553
20
185.400000
70
0
0
VERTEX
8
Layer 1
10
186.905908
20
206.400000
70
0
0
VERTEX
8
Layer 1
10
186.905908
20
206.400000
70
0
0
SEQEND
8
Layer 1
0
POLYLINE
8
Layer 1
62
7
70
1
10
0.000000
20
0.000000
66
1
0
VERTEX
8
Layer 1
10
205.265647
20
189.000000
70
0
0
VERTEX
8
Layer 1
10
193.141291
20
210.000000
70
0
0
VERTEX
8
Layer 1
10
217.390003
20
210.000000
70
0
0
VERTEX
8
Layer 1
10
205.265647
20
189.000000
70
0
0
VERTEX
8
Layer 1
10
205.265647
20
189.000000
70
0
0
SEQEND
8
Layer 1
0
POLYLINE
8
Layer 1
62
7
70
1
10
0.000000
20
0.000000
66
1
0
VERTEX
8
Layer 1
10
168.546170
20
111.000000
70
0
0
VERTEX
8
Layer 1
10
180.670526
20
90.000000
70
0
0
VERTEX
8
Layer 1
10
156.421814
20
90.000000
70
0
0
VERTEX
8
Layer 1
10
168.546170
20
111.000000
70
0
0
VERTEX
8
Layer 1
10
168.546170
20
111.000000
70
0
0
SEQEND
8
Layer 1
0
POLYLINE
8
Layer 1
62
7
70
1
10
0.000000
20
0.000000
66
1
0
VERTEX
8
Layer 1
10
186.905908
20
93.600000
70
0
0
VERTEX
8
Layer 1
10
174.781553
20
114.600000
70
0
0
VERTEX
8
Layer 1
10
199.030264
20
114.600000
70
0
0
VERTEX
8
Layer 1
10
186.905908
20
93.600000
70
0
0
VERTEX
8
Layer 1
10
186.905908
20
93.600000
70
0
0
SEQEND
8
Layer 1
0
POLYLINE
8
Layer 1
62
7
70
1
10
0.000000
20
0.000000
66
1
0
VERTEX
8
Layer 1
10
186.905908
20
142.800000
70
0
0
VERTEX
8
Layer 1
10
199.030264
20
121.800000
70
0
0
VERTEX
8
Layer 1
10
174.781553
20
121.800000
70
0
0
VERTEX
8
Layer 1
10
186.905908
20
142.800000
70
0
0
VERTEX
8
Layer 1
10
186.905908
20
142.800000
70
0
0
SEQEND
8
Layer 1
0
POLYLINE
8
Layer 1
62
7
70
1
10
0.000000
20
0.000000
66
1
0
VERTEX
8
Layer 1
10
205.265647
20
125.400000
70
0
0
VERTEX
8
Layer 1
10
193.141291
20
146.400000
70
0
0
VERTEX
8
Layer 1
10
217.390003
20
146.400000
70
0
0
VERTEX
8
Layer 1
10
205.265647
20
125.400000
70
0
0
VERTEX
8
Layer 1
10
205.265647
20
125.400000
70
0
0
SEQEND
8
Layer 1
0
POLYLINE
8
Layer 1
62
7
70
1
10
0.000000
20
0.000000
66
1
0
VERTEX
8
Layer 1
10
205.265647
20
174.600000
70
0
0
VERTEX
8
Layer 1
10
217.390003
20
153.600000
70
0
0
VERTEX
8
Layer 1
10
193.141291
20
153.600000
70
0
0
VERTEX
8
Layer 1
10
205.265647
20
174.600000
70
0
0
VERTEX
8
Layer 1
10
205.265647
20
174.600000
70
0
0
SEQEND
8
Layer 1
0
POLYLINE
8
Layer 1
62
7
70
1
10
0.000000
20
0.000000
66
1
0
VERTEX
8
Layer 1
10
223.625386
20
157.200000
70
0
0
VERTEX
8
Layer 1
10
211.501030
20
178.200000
70
0
0
VERTEX
8
Layer 1
10
235.749741
20
178.200000
70
0
0
VERTEX
8
Layer 1
10
223.625386
20
157.200000
70
0
0
VERTEX
8
Layer 1
10
223.625386
20
157.200000
70
0
0
SEQEND
8
Layer 1
0
POLYLINE
8
Layer 1
62
7
70
1
10
0.000000
20
0.000000
66
1
0
VERTEX
8
Layer 1
10
223.625386
20
206.400000
70
0
0
VERTEX
8
Layer 1
10
235.749741
20
185.400000
70
0
0
VERTEX
8
Layer 1
10
211.501030
20
185.400000
70
0
0
VERTEX
8
Layer 1
10
223.625386
20
206.400000
70
0
0
VERTEX
8
Layer 1
10
223.625386
20
206.400000
70
0
0
SEQEND
8
Layer 1
0
POLYLINE
8
Layer 1
62
7
70
1
10
0.000000
20
0.000000
66
1
0
VERTEX
8
Layer 1
10
241.985124
20
189.000000
70
0
0
VERTEX
8
Layer 1
10
229.860769
20
210.000000
70
0
0
VERTEX
8
Layer 1
10
254.109480
20
210.000000
70
0
0
VERTEX
8
Layer 1
10
241.985124
20
189.000000
70
0
0
VERTEX
8
Layer 1
10
241.985124
20
189.000000
70
0
0
SEQEND
8
Layer 1
0
POLYLINE
8
Layer 1
62
7
70
1
10
0.000000
20
0.000000
66
1
0
VERTEX
8
Layer 1
10
205.265647
20
111.000000
70
0
0
VERTEX
8
Layer 1
10
217.390003
20
90.000000
70
0
0
VERTEX
8
Layer 1
10
193.141291
20
90.000000
70
0
0
VERTEX
8
Layer 1
10
205.265647
20
111.000000
70
0
0
VERTEX
8
Layer 1
10
205.265647
20
111.000000
70
0
0
SEQEND
8
Layer 1
0
POLYLINE
8
Layer 1
62
7
70
1
10
0.000000
20
0.000000
66
1
0
VERTEX
8
Layer 1
10
223.625386
20
93.600000
70
0
0
VERTEX
8
Layer 1
10
211.501030
20
114.600000
70
0
0
VERTEX
8
Layer 1
10
235.749741
20
114.600000
70
0
0
VERTEX
8
Layer 1
10
223.625386
20
93.600000
70
0
0
VERTEX
8
Layer 1
10
223.625386
20
93.600000
70
0
0
SEQEND
8
Layer 1
0
POLYLINE
8
Layer 1
62
7
70
1
10
0.000000
20
0.000000
66
1
0
VERTEX
8
Layer 1
10
223.625386
20
142.800000
70
0
0
VERTEX
8
Layer 1
10
235.749741
20
121.800000
70
0
0
VERTEX
8
Layer 1
10
211.501030
20
121.800000
70
0
0
VERTEX
8
Layer 1
10
223.625386
20
142.800000
70
0
0
VERTEX
8
Layer 1
10
223.625386
20
142.800000
70
0
0
SEQEND
8
Layer 1
0
POLYLINE
8
Layer 1
62
7
70
1
10
0.000000
20
0.000000
66
1
0
VERTEX
8
Layer 1
10
241.985124
20
125.400000
70
0
0
VERTEX
8
Layer 1
10
229.860769
20
146.400000
70
0
0
VERTEX
8
Layer 1
10
254.109480
20
146.400000
70
0
0
VERTEX
8
Layer 1
10
241.985124
20
125.400000
70
0
0
VERTEX
8
Layer 1
10
241.985124
20
125.400000
70
0
0
SEQEND
8
Layer 1
0
POLYLINE
8
Layer 1
62
7
70
1
10
0.000000
20
0.000000
66
1
0
VERTEX
8
Layer 1
10
241.985124
20
174.600000
70
0
0
VERTEX
8
Layer 1
10
254.109480
20
153.600000
70
0
0
VERTEX
8
Layer 1
10
229.860769
20
153.600000
70
0
0
VERTEX
8
Layer 1
10
241.985124
20
174.600000
70
0
0
VERTEX
8
Layer 1
10
241.985124
20
174.600000
70
0
0
SEQEND
8
Layer 1
0
POLYLINE
8
Layer 1
62
7
70
1
10
0.000000
20
0.000000
66
1
0
VERTEX
8
Layer 1
10
260.344863
20
157.200000
70
0
0
VERTEX
8
Layer 1
10
248.220507
20
178.200000
70
0
0
VERTEX
8
Layer 1
10
272.469218
20
178.200000
70
0
0
VERTEX
8
Layer 1
10
260.344863
20
157.200000
70
0
0
VERTEX
8
Layer 1
10
260.344863
20
157.200000
70
0
0
SEQEND
8
Layer 1
0
POLYLINE
8
Layer 1
62
7
70
1
10
0.000000
20
0.000000
66
1
0
VERTEX
8
Layer 1
10
260.344863
20
206.400000
70
0
0
VERTEX
8
Layer 1
10
272.469218
20
185.400000
70
0
0
VERTEX
8
Layer 1
10
248.220507
20
185.400000
70
0
0
VERTEX
8
Layer 1
10
260.344863
20
206.400000
70
0
0
VERTEX
8
Layer 1
10
260.344863
20
206.400000
70
0
0
SEQEND
8
Layer 1
0
POLYLINE
8
Layer 1
62
7
70
1
10
0.000000
20
0.000000
66
1
0
VERTEX
8
Layer 1
10
278.704601
20
189.000000
70
0
0
VERTEX
8
Layer 1
10
266.580246
20
210.000000
70
0
0
VERTEX
8
Layer 1
10
290.828957
20
210.000000
70
0
0
VERTEX
8
Layer 1
10
278.704601
20
189.000000
70
0
0
VERTEX
8
Layer 1
10
278.704601
20
189.000000
70
0
0
SEQEND
8
Layer 1
0
POLYLINE
8
Layer 1
62
7
70
1
10
0.000000
20
0.000000
66
1
0
VERTEX
8
Layer 1
10
241.985124
20
111.000000
70
0
0
VERTEX
8
Layer 1
10
254.109480
20
90.000000
70
0
0
VERTEX
8
Layer 1
10
229.860769
20
90.000000
70
0
0
VERTEX
8
Layer 1
10
241.985124
20
111.000000
70
0
0
VERTEX
8
Layer 1
10
241.985124
20
111.000000
70
0
0
SEQEND
8
Layer 1
0
POLYLINE
8
Layer 1
62
7
70
1
10
0.000000
20
0.000000
66
1
0
VERTEX
8
Layer 1
10
260.344863
20
93.600000
70
0
0
VERTEX
8
Layer 1
10
248.220507
20
114.600000
70
0
0
VERTEX
8
Layer 1
10
272.469218
20
114.600000
70
0
0
VERTEX
8
Layer 1
10
260.344863
20
93.600000
70
0
0
VERTEX
8
Layer 1
10
260.344863
20
93.600000
70
0
0
SEQEND
8
Layer 1
0
POLYLINE
8
Layer 1
62
7
70
1
10
0.000000
20
0.000000
66
1
0
VERTEX
8
Layer 1
10
260.344863
20
142.800000
70
0
0
VERTEX
8
Layer 1
10
272.469218
20
121.800000
70
0
0
VERTEX
8
Layer 1
10
248.220507
20
121.800000
70
0
0
VERTEX
8
Layer 1
10
260.344863
20
142.800000
70
0
0
VERTEX
8
Layer 1
10
260.344863
20
142.800000
70
0
0
SEQEND
8
Layer 1
0
POLYLINE
8
Layer 1
62
7
70
1
10
0.000000
20
0.000000
66
1
0
VERTEX
8
Layer 1
10
278.704601
20
125.400000
70
0
0
VERTEX
8
Layer 1
10
266.580246
20
146.400000
70
0
0
VERTEX
8
Layer 1
10
290.828957
20
146.400000
70
0
0
VERTEX
8
Layer 1
10
278.704601
20
125.400000
70
0
0
VERTEX
8
Layer 1
10
278.704601
20
125.400000
70
0
0
SEQEND
8
Layer 1
0
POLYLINE
8
Layer 1
62
7
70
1
10
0.000000
20
0.000000
66
1
0
VERTEX
8
Layer 1
10
278.704601
20
174.600000
70
0
0
VERTEX
8
Layer 1
10
290.828957
20
153.600000
70
0
0
VERTEX
8
Layer 1
10
266.580246
20
153.600000
70
0
0
VERTEX
8
Layer 1
10
278.704601
20
174.600000
70
0
0
VERTEX
8
Layer 1
10
278.704601
20
174.600000
70
0
0
SEQEND
8
Layer 1
0
POLYLINE
8
Layer 1
62
7
70
1
10
0.000000
20
0.000000
66
1
0
VERTEX
8
Layer 1
10
297.064340
20
157.200000
70
0
0
VERTEX
8
Layer 1
10
284.939984
20
178.200000
70
0
0
VERTEX
8
Layer 1
10
309.188695
20
178.200000
70
0
0
VERTEX
8
Layer 1
10
297.064340
20
157.200000
70
0
0
VERTEX
8
Layer 1
10
297.064340
20
157.200000
70
0
0
SEQEND
8
Layer 1
0
POLYLINE
8
Layer 1
62
7
70
1
10
0.000000
20
0.000000
66
1
0
VERTEX
8
Layer 1
10
297.064340
20
206.400000
70
0
0
VERTEX
8
Layer 1
10
309.188695
20
185.400000
70
0
0
VERTEX
8
Layer 1
10
284.939984
20
185.400000
70
0
0
VERTEX
8
Layer 1
10
297.064340
20
206.400000
70
0
0
VERTEX
8
Layer 1
10
297.064340
20
206.400000
70
0
0
SEQEND
8
Layer 1
0
POLYLINE
8
Layer 1
62
7
70
1
10
0.000000
20
0.000000
66
1
0
VERTEX
8
Layer 1
10
315.424078
20
189.000000
70
0
0
VERTEX
8
Layer 1
10
303.299723
20
210.000000
70
0
0
VERTEX
8
Layer 1
10
327.548434
20
210.000000
70
0
0
VERTEX
8
Layer 1
10
315.424078
20
189.000000
70
0
0
VERTEX
8
Layer 1
10
315.424078
20
189.000000
70
0
0
SEQEND
8
Layer 1
0
POLYLINE
8
Layer 1
62
7
70
1
10
0.000000
20
0.000000
66
1
0
VERTEX
8
Layer 1
10
278.704601
20
111.000000
70
0
0
VERTEX
8
Layer 1
10
290.828957
20
90.000000
70
0
0
VERTEX
8
Layer 1
10
266.580246
20
90.000000
70
0
0
VERTEX
8
Layer 1
10
278.704601
20
111.000000
70
0
0
VERTEX
8
Layer 1
10
278.704601
20
111.000000
70
0
0
SEQEND
8
Layer 1
0
POLYLINE
8
Layer 1
62
7
70
1
10
0.000000
20
0.000000
66
1
0
VERTEX
8
Layer 1
10
297.064340
20
93.600000
70
0
0
VERTEX
8
Layer 1
10
284.939984
20
114.600000
70
0
0
VERTEX
8
Layer 1
10
309.188695
20
114.600000
70
0
0
VERTEX
8
Layer 1
10
297.064340
20
93.600000
70
0
0
VERTEX
8
Layer 1
10
297.064340
20
93.600000
70
0
0
SEQEND
8
Layer 1
0
POLYLINE
8
Layer 1
62
7
70
1
10
0.000000
20
0.000000
66
1
0
VERTEX
8
Layer 1
10
297.064340
20
142.800000
70
0
0
VERTEX
8
Layer 1
10
309.188695
20
121.800000
70
0
0
VERTEX
8
Layer 1
10
284.939984
20
121.800000
70
0
0
VERTEX
8
Layer 1
10
297.064340
20
142.800000
70
0
0
VERTEX
8
Layer 1
10
297.064340
20
142.800000
70
0
0
SEQEND
8
Layer 1
0
POLYLINE
8
Layer 1
62
7
70
1
10
0.000000
20
0.000000
66
1
0
VERTEX
8
Layer 1
10
315.424078
20
125.400000
70
0
0
VERTEX
8
Layer 1
10
303.299723
20
146.400000
70
0
0
VERTEX
8
Layer 1
10
327.548434
20
146.400000
70
0
0
VERTEX
8
Layer 1
10
315.424078
20
125.400000
70
0
0
VERTEX
8
Layer 1
10
315.424078
20
125.400000
70
0
0
SEQEND
8
Layer 1
0
POLYLINE
8
Layer 1
62
7
70
1
10
0.000000
20
0.000000
66
1
0
VERTEX
8
Layer 1
10
315.424078
20
174.600000
70
0
0
VERTEX
8
Layer 1
10
327.548434
20
153.600000
70
0
0
VERTEX
8
Layer 1
10
303.299723
20
153.600000
70
0
0
VERTEX
8
Layer 1
10
315.424078
20
174.600000
70
0
0
VERTEX
8
Layer 1
10
315.424078
20
174.600000
70
0
0
SEQEND
8
Layer 1
0
POLYLINE
8
Layer 1
62
7
70
1
10
0.000000
20
0.000000
66
1
0
VERTEX
8
Layer 1
10
333.783817
20
157.200000
70
0
0
VERTEX
8
Layer 1
10
321.659461
20
178.200000
70
0
0
VERTEX
8
Layer 1
10
345.908173
20
178.200000
70
0
0
VERTEX
8
Layer 1
10
333.783817
20
157.200000
70
0
0
VERTEX
8
Layer 1
10
333.783817
20
157.200000
70
0
0
SEQEND
8
Layer 1
0
POLYLINE
8
Layer 1
62
7
70
1
10
0.000000
20
0.000000
66
1
0
VERTEX
8
Layer 1
10
333.783817
20
206.400000
70
0
0
VERTEX
8
Layer 1
10
345.908173
20
185.400000
70
0
0
VERTEX
8
Layer 1
10
321.659461
20
185.400000
70
0
0
VERTEX
8
Layer 1
10
333.783817
20
206.400000
70
0
0
VERTEX
8
Layer 1
10
333.783817
20
206.400000
70
0
0
SEQEND
8
Layer 1
0
POLYLINE
8
Layer 1
62
7
70
1
10
0.000000
20
0.000000
66
1
0
VERTEX
8
Layer 1
10
352.143556
20
189.000000
70
0
0
VERTEX
8
Layer 1
10
340.019200
20
210.000000
70
0
0
VERTEX
8
Layer 1
10
364.267911
20
210.000000
70
0
0
VERTEX
8
Layer 1
10
352.143556
20
189.000000
70
0
0
VERTEX
8
Layer 1
10
352.143556
20
189.000000
70
0
0
SEQEND
8
Layer 1
0
POLYLINE
8
Layer 1
62
7
70
1
10
0.000000
20
0.000000
66
1
0
VERTEX
8
Layer 1
10
315.424078
20
111.000000
70
0
0
VERTEX
8
Layer 1
10
327.548434
20
90.000000
70
0
0
VERTEX
8
Layer 1
10
303.299723
20
90.000000
70
0
0
VERTEX
8
Layer 1
10
315.424078
20
111.000000
70
0
0
VERTEX
8
Layer 1
10
315.424078
20
111.000000
70
0
0
SEQEND
8
Layer 1
0
POLYLINE
8
Layer 1
62
7
70
1
10
0.000000
20
0.000000
66
1
0
VERTEX
8
Layer 1
10
333.783817
20
93.600000
70
0
0
VERTEX
8
Layer 1
10
321.659461
20
114.600000
70
0
0
VERTEX
8
Layer 1
10
345.908173
20
114.600000
70
0
0
VERTEX
8
Layer 1
10
333.783817
20
93.600000
70
0
0
VERTEX
8
Layer 1
10
333.783817
20
93.600000
70
0
0
SEQEND
8
Layer 1
0
POLYLINE
8
Layer 1
62
7
70
1
10
0.000000
20
0.000000
66
1
0
VERTEX
8
Layer 1
10
333.783817
20
142.800000
70
0
0
VERTEX
8
Layer 1
10
345.908173
20
121.800000
70
0
0
VERTEX
8
Layer 1
10
321.659461
20
121.800000
70
0
0
VERTEX
8
Layer 1
10
333.783817
20
142.800000
70
0
0
VERTEX
8
Layer 1
10
333.783817
20
142.800000
70
0
0
SEQEND
8
Layer 1
0
POLYLINE
8
Layer 1
62
7
70
1
10
0.000000
20
0.000000
66
1
0
VERTEX
8
Layer 1
10
352.143556
20
125.400000
70
0
0
VERTEX
8
Layer 1
10
340.019200
20
146.400000
70
0
0
VERTEX
8
Layer 1
10
364.267911
20
146.400000
70
0
0
VERTEX
8
Layer 1
10
352.143556
20
125.400000
70
0
0
VERTEX
8
Layer 1
10
352.143556
20
125.400000
70
0
0
SEQEND
8
Layer 1
0
POLYLINE
8
Layer 1
62
7
70
1
10
0.000000
20
0.000000
66
1
0
VERTEX
8
Layer 1
10
352.143556
20
174.600000
70
0
0
VERTEX
8
Layer 1
10
364.267911
20
153.600000
70
0
0
VERTEX
8
Layer 1
10
340.019200
20
153.600000
70
0
0
VERTEX
8
Layer 1
10
352.143556
20
174.600000
70
0
0
VERTEX
8
Layer 1
10
352.143556
20
174.600000
70
0
0
SEQEND
8
Layer 1
0
POLYLINE
8
Layer 1
62
7
70
1
10
0.000000
20
0.000000
66
1
0
VERTEX
8
Layer 1
10
370.503294
20
157.200000
70
0
0
VERTEX
8
Layer 1
10
358.378938
20
178.200000
70
0
0
VERTEX
8
Layer 1
10
382.627650
20
178.200000
70
0
0
VERTEX
8
Layer 1
10
370.503294
20
157.200000
70
0
0
VERTEX
8
Layer 1
10
370.503294
20
157.200000
70
0
0
SEQEND
8
Layer 1
0
POLYLINE
8
Layer 1
62
7
70
1
10
0.000000
20
0.000000
66
1
0
VERTEX
8
Layer 1
10
370.503294
20
206.400000
70
0
0
VERTEX
8
Layer 1
10
382.627650
20
185.400000
70
0
0
VERTEX
8
Layer 1
10
358.378938
20
185.400000
70
0
0
VERTEX
8
Layer 1
10
370.503294
20
206.400000
70
0
0
VERTEX
8
Layer 1
10
370.503294
20
206.400000
70
0
0
SEQEND
8
Layer 1
0
POLYLINE
8
Layer 1
62
7
70
1
10
0.000000
20
0.000000
66
1
0
VERTEX
8
Layer 1
10
388.863033
20
189.000000
70
0
0
VERTEX
8
Layer 1
10
376.738677
20
210.000000
70
0
0
VERTEX
8
Layer 1
10
400.987388
20
210.000000
70
0
0
VERTEX
8
Layer 1
10
388.863033
20
189.000000
70
0
0
VERTEX
8
Layer 1
10
388.863033
20
189.000000
70
0
0
SEQEND
8
Layer 1
0
POLYLINE
8
Layer 1
62
7
70
1
10
0.000000
20
0.000000
66
1
0
VERTEX
8
Layer 1
10
352.143556
20
111.000000
70
0
0
VERTEX
8
Layer 1
10
364.267911
20
90.000000
70
0
0
VERTEX
8
Layer 1
10
340.019200
20
90.000000
70
0
0
VERTEX
8
Layer 1
10
352.143556
20
111.000000
70
0
0
VERTEX
8
Layer 1
10
352.143556
20
111.000000
70
0
0
SEQEND
8
Layer 1
0
POLYLINE
8
Layer 1
62
7
70
1
10
0.000000
20
0.000000
66
1
0
VERTEX
8
Layer 1
10
370.503294
20
93.600000
70
0
0
VERTEX
8
Layer 1
10
358.378938
20
114.600000
70
0
0
VERTEX
8
Layer 1
10
382.627650
20
114.600000
70
0
0
VERTEX
8
Layer 1
10
370.503294
20
93.600000
70
0
0
VERTEX
8
Layer 1
10
370.503294
20
93.600000
70
0
0
SEQEND
8
Layer 1
0
POLYLINE
8
Layer 1
62
7
70
1
10
0.000000
20
0.000000
66
1
0
VERTEX
8
Layer 1
10
370.503294
20
142.800000
70
0
0
VERTEX
8
Layer 1
10
382.627650
20
121.800000
70
0
0
VERTEX
8
Layer 1
10
358.378938
20
121.800000
70
0
0
VERTEX
8
Layer 1
10
370.503294
20
142.800000
70
0
0
VERTEX
8
Layer 1
10
370.503294
20
142.800000
70
0
0
SEQEND
8
Layer 1
0
POLYLINE
8
Layer 1
62
7
70
1
10
0.000000
20
0.000000
66
1
0
VERTEX
8
Layer 1
10
388.863033
20
125.400000
70
0
0
VERTEX
8
Layer 1
10
376.738677
20
146.400000
70
0
0
VERTEX
8
Layer 1
10
400.987388
20
146.400000
70
0
0
VERTEX
8
Layer 1
10
388.863033
20
125.400000
70
0
0
VERTEX
8
Layer 1
10
388.863033
20
125.400000
70
0
0
SEQEND
8
Layer 1
0
POLYLINE
8
Layer 1
62
7
70
1
10
0.000000
20
0.000000
66
1
0
VERTEX
8
Layer 1
10
388.863033
20
174.600000
70
0
0
VERTEX
8
Layer 1
10
400.987388
20
153.600000
70
0
0
VERTEX
8
Layer 1
10
376.738677
20
153.600000
70
0
0
VERTEX
8
Layer 1
10
388.863033
20
174.600000
70
0
0
VERTEX
8
Layer 1
10
388.863033
20
174.600000
70
0
0
SEQEND
8
Layer 1
0
POLYLINE
8
Layer 1
62
7
70
1
10
0.000000
20
0.000000
66
1
0
VERTEX
8
Layer 1
10
407.222771
20
157.200000
70
0
0
VERTEX
8
Layer 1
10
395.098416
20
178.200000
70
0
0
VERTEX
8
Layer 1
10
419.347127
20
178.200000
70
0
0
VERTEX
8
Layer 1
10
407.222771
20
157.200000
70
0
0
VERTEX
8
Layer 1
10
407.222771
20
157.200000
70
0
0
SEQEND
8
Layer 1
0
POLYLINE
8
Layer 1
62
7
70
1
10
0.000000
20
0.000000
66
1
0
VERTEX
8
Layer 1
10
407.222771
20
206.400000
70
0
0
VERTEX
8
Layer 1
10
419.347127
20
185.400000
70
0
0
VERTEX
8
Layer 1
10
395.098416
20
185.400000
70
0
0
VERTEX
8
Layer 1
10
407.222771
20
206.400000
70
0
0
VERTEX
8
Layer 1
10
407.222771
20
206.400000
70
0
0
SEQEND
8
Layer 1
0
POLYLINE
8
Layer 1
62
7
70
1
10
0.000000
20
0.000000
66
1
0
VERTEX
8
Layer 1
10
425.582510
20
189.000000
70
0
0
VERTEX
8
Layer 1
10
413.458154
20
210.000000
70
0
0
VERTEX
8
Layer 1
10
437.706865
20
210.000000
70
0
0
VERTEX
8
Layer 1
10
425.582510
20
189.000000
70
0
0
VERTEX
8
Layer 1
10
425.582510
20
189.000000
70
0
0
SEQEND
8
Layer 1
0
POLYLINE
8
Layer 1
62
7
70
1
10
0.000000
20
0.000000
66
1
0
VERTEX
8
Layer 1
10
388.863033
20
111.000000
70
0
0
VERTEX
8
Layer 1
10
400.987388
20
90.000000
70
0
0
VERTEX
8
Layer 1
10
376.738677
20
90.000000
70
0
0
VERTEX
8
Layer 1
10
388.863033
20
111.000000
70
0
0
VERTEX
8
Layer 1
10
388.863033
20
111.000000
70
0
0
SEQEND
8
Layer 1
0
POLYLINE
8
Layer 1
62
7
70
1
10
0.000000
20
0.000000
66
1
0
VERTEX
8
Layer 1
10
407.222771
20
93.600000
70
0
0
VERTEX
8
Layer 1
10
395.098416
20
114.600000
70
0
0
VERTEX
8
Layer 1
10
419.347127
20
114.600000
70
0
0
VERTEX
8
Layer 1
10
407.222771
20
93.600000
70
0
0
VERTEX
8
Layer 1
10
407.222771
20
93.600000
70
0
0
SEQEND
8
Layer 1
0
POLYLINE
8
Layer 1
62
7
70
1
10
0.000000
20
0.000000
66
1
0
VERTEX
8
Layer 1
10
407.222771
20
142.800000
70
0
0
VERTEX
8
Layer 1
10
419.347127
20
121.800000
70
0
0
VERTEX
8
Layer 1
10
395.098416
20
121.800000
70
0
0
VERTEX
8
Layer 1
10
407.222771
20
142.800000
70
0
0
VERTEX
8
Layer 1
10
407.222771
20
142.800000
70
0
0
SEQEND
8
Layer 1
0
POLYLINE
8
Layer 1
62
7
70
1
10
0.000000
20
0.000000
66
1
0
VERTEX
8
Layer 1
10
425.582510
20
125.400000
70
0
0
VERTEX
8
Layer 1
10
413.458154
20
146.400000
70
0
0
VERTEX
8
Layer 1
10
437.706865
20
146.400000
70
0
0
VERTEX
8
Layer 1
10
425.582510
20
125.400000
70
0
0
VERTEX
8
Layer 1
10
425.582510
20
125.400000
70
0
0
SEQEND
8
Layer 1
0
POLYLINE
8
Layer 1
62
7
70
1
10
0.000000
20
0.000000
66
1
0
VERTEX
8
Layer 1
10
425.582510
20
174.600000
70
0
0
VERTEX
8
Layer 1
10
437.706865
20
153.600000
70
0
0
VERTEX
8
Layer 1
10
413.458154
20
153.600000
70
0
0
VERTEX
8
Layer 1
10
425.582510
20
174.600000
70
0
0
VERTEX
8
Layer 1
10
425.582510
20
174.600000
70
0
0
SEQEND
8
Layer 1
0
POLYLINE
8
Layer 1
62
7
70
1
10
0.000000
20
0.000000
66
1
0
VERTEX
8
Layer 1
10
443.942248
20
157.200000
70
0
0
VERTEX
8
Layer 1
10
431.817893
20
178.200000
70
0
0
VERTEX
8
Layer 1
10
456.066604
20
178.200000
70
0
0
VERTEX
8
Layer 1
10
443.942248
20
157.200000
70
0
0
VERTEX
8
Layer 1
10
443.942248
20
157.200000
70
0
0
SEQEND
8
Layer 1
0
POLYLINE
8
Layer 1
62
7
70
1
10
0.000000
20
0.000000
66
1
0
VERTEX
8
Layer 1
10
443.942248
20
206.400000
70
0
0
VERTEX
8
Layer 1
10
456.066604
20
185.400000
70
0
0
VERTEX
8
Layer 1
10
431.817893
20
185.400000
70
0
0
VERTEX
8
Layer 1
10
443.942248
20
206.400000
70
0
0
VERTEX
8
Layer 1
10
443.942248
20
206.400000
70
0
0
SEQEND
8
Layer 1
0
POLYLINE
8
Layer 1
62
7
70
1
10
0.000000
20
0.000000
66
1
0
VERTEX
8
Layer 1
10
462.301987
20
189.000000
70
0
0
VERTEX
8
Layer 1
10
450.177631
20
210.000000
70
0
0
VERTEX
8
Layer 1
10
474.426343
20
210.000000
70
0
0
VERTEX
8
Layer 1
10
462.301987
20
189.000000
70
0
0
VERTEX
8
Layer 1
10
462.301987
20
189.000000
70
0
0
SEQEND
8
Layer 1
0
POLYLINE
8
Layer 1
62
7
70
1
10
0.000000
20
0.000000
66
1
0
VERTEX
8
Layer 1
10
425.582510
20
111.000000
70
0
0
VERTEX
8
Layer 1
10
437.706865
20
90.000000
70
0
0
VERTEX
8
Layer 1
10
413.458154
20
90.000000
70
0
0
VERTEX
8
Layer 1
10
425.582510
20
111.000000
70
0
0
VERTEX
8
Layer 1
10
425.582510
20
111.000000
70
0
0
SEQEND
8
Layer 1
0
POLYLINE
8
Layer 1
62
7
70
1
10
0.000000
20
0.000000
66
1
0
VERTEX
8
Layer 1
10
443.942248
20
93.600000
70
0
0
VERTEX
8
Layer 1
10
431.817893
20
114.600000
70
0
0
VERTEX
8
Layer 1
10
456.066604
20
114.600000
70
0
0
VERTEX
8
Layer 1
10
443.942248
20
93.600000
70
0
0
VERTEX
8
Layer 1
10
443.942248
20
93.600000
70
0
0
SEQEND
8
Layer 1
0
POLYLINE
8
Layer 1
62
7
70
1
10
0.000000
20
0.000000
66
1
0
VERTEX
8
Layer 1
10
443.942248
20
142.800000
70
0
0
VERTEX
8
Layer 1
10
456.066604
20
121.800000
70
0
0
VERTEX
8
Layer 1
10
431.817893
20
121.800000
70
0
0
VERTEX
8
Layer 1
10
443.942248
20
142.800000
70
0
0
VERTEX
8
Layer 1
10
443.942248
20
142.800000
70
0
0
SEQEND
8
Layer 1
0
POLYLINE
8
Layer 1
62
7
70
1
10
0.000000
20
0.000000
66
1
0
VERTEX
8
Layer 1
10
462.301987
20
125.400000
70
0
0
VERTEX
8
Layer 1
10
450.177631
20
146.400000
70
0
0
VERTEX
8
Layer 1
10
474.426343
20
146.400000
70
0
0
VERTEX
8
Layer 1
10
462.301987
20
125.400000
70
0
0
VERTEX
8
Layer 1
10
462.301987
20
125.400000
70
0
0
SEQEND
8
Layer 1
0
POLYLINE
8
Layer 1
62
7
70
1
10
0.000000
20
0.000000
66
1
0
VERTEX
8
Layer 1
10
462.301987
20
174.600000
70
0
0
VERTEX
8
Layer 1
10
474.426343
20
153.600000
70
0
0
VERTEX
8
Layer 1
10
450.177631
20
153.600000
70
0
0
VERTEX
8
Layer 1
10
462.301987
20
174.600000
70
0
0
VERTEX
8
Layer 1
10
462.301987
20
174.600000
70
0
0
SEQEND
8
Layer 1
0
POLYLINE
8
Layer 1
62
7
70
1
10
0.000000
20
0.000000
66
1
0
VERTEX
8
Layer 1
10
480.661725
20
157.200000
70
0
0
VERTEX
8
Layer 1
10
468.537370
20
178.200000
70
0
0
VERTEX
8
Layer 1
10
492.786081
20
178.200000
70
0
0
VERTEX
8
Layer 1
10
480.661725
20
157.200000
70
0
0
VERTEX
8
Layer 1
10
480.661725
20
157.200000
70
0
0
SEQEND
8
Layer 1
0
POLYLINE
8
Layer 1
62
7
70
1
10
0.000000
20
0.000000
66
1
0
VERTEX
8
Layer 1
10
480.661725
20
206.400000
70
0
0
VERTEX
8
Layer 1
10
492.786081
20
185.400000
70
0
0
VERTEX
8
Layer 1
10
468.537370
20
185.400000
70
0
0
VERTEX
8
Layer 1
10
480.661725
20
206.400000
70
0
0
VERTEX
8
Layer 1
10
480.661725
20
206.400000
70
0
0
SEQEND
8
Layer 1
0
POLYLINE
8
Layer 1
62
7
70
1
10
0.000000
20
0.000000
66
1
0
VERTEX
8
Layer 1
10
499.021464
20
189.000000
70
0
0
VERTEX
8
Layer 1
10
486.897108
20
210.000000
70
0
0
VERTEX
8
Layer 1
10
511.145820
20
210.000000
70
0
0
VERTEX
8
Layer 1
10
499.021464
20
189.000000
70
0
0
VERTEX
8
Layer 1
10
499.021464
20
189.000000
70
0
0
SEQEND
8
Layer 1
0
POLYLINE
8
Layer 1
62
7
70
1
10
0.000000
20
0.000000
66
1
0
VERTEX
8
Layer 1
10
462.301987
20
111.000000
70
0
0
VERTEX
8
Layer 1
10
474.426343
20
90.000000
70
0
0
VERTEX
8
Layer 1
10
450.177631
20
90.000000
70
0
0
VERTEX
8
Layer 1
10
462.301987
20
111.000000
70
0
0
VERTEX
8
Layer 1
10
462.301987
20
111.000000
70
0
0
SEQEND
8
Layer 1
0
POLYLINE
8
Layer 1
62
7
70
1
10
0.000000
20
0.000000
66
1
0
VERTEX
8
Layer 1
10
480.661725
20
93.600000
70
0
0
VERTEX
8
Layer 1
10
468.537370
20
114.600000
70
0
0
VERTEX
8
Layer 1
10
492.786081
20
114.600000
70
0
0
VERTEX
8
Layer 1
10
480.661725
20
93.600000
70
0
0
VERTEX
8
Layer 1
10
480.661725
20
93.600000
70
0
0
SEQEND
8
Layer 1
0
POLYLINE
8
Layer 1
62
7
70
1
10
0.000000
20
0.000000
66
1
0
VERTEX
8
Layer 1
10
480.661725
20
142.800000
70
0
0
VERTEX
8
Layer 1
10
492.786081
20
121.800000
70
0
0
VERTEX
8
Layer 1
10
468.537370
20
121.800000
70
0
0
VERTEX
8
Layer 1
10
480.661725
20
142.800000
70
0
0
VERTEX
8
Layer 1
10
480.661725
20
142.800000
70
0
0
SEQEND
8
Layer 1
0
POLYLINE
8
Layer 1
62
7
70
1
10
0.000000
20
0.000000
66
1
0
VERTEX
8
Layer 1
10
499.021464
20
125.400000
70
0
0
VERTEX
8
Layer 1
10
486.897108
20
146.400000
70
0
0
VERTEX
8
Layer 1
10
511.145820
20
146.400000
70
0
0
VERTEX
8
Layer 1
10
499.021464
20
125.400000
70
0
0
VERTEX
8
Layer 1
10
499.021464
20
125.400000
70
0
0
SEQEND
8
Layer 1
0
POLYLINE
8
Layer 1
62
7
70
1
10
0.000000
20
0.000000
66
1
0
VERTEX
8
Layer 1
10
499.021464
20
174.600000
70
0
0
VERTEX
8
Layer 1
10
511.145820
20
153.600000
70
0
0
VERTEX
8
Layer 1
10
486.897108
20
153.600000
70
0
0
VERTEX
8
Layer 1
10
499.021464
20
174.600000
70
0
0
VERTEX
8
Layer 1
10
499.021464
20
174.600000
70
0
0
SEQEND
8
Layer 1
0
POLYLINE
8
Layer 1
62
7
70
1
10
0.000000
20
0.000000
66
1
0
VERTEX
8
Layer 1
10
517.381203
20
157.200000
70
0
0
VERTEX
8
Layer 1
10
505.256847
20
178.200000
70
0
0
VERTEX
8
Layer 1
10
529.505558
20
178.200000
70
0
0
VERTEX
8
Layer 1
10
517.381203
20
157.200000
70
0
0
VERTEX
8
Layer 1
10
517.381203
20
157.200000
70
0
0
SEQEND
8
Layer 1
0
POLYLINE
8
Layer 1
62
7
70
1
10
0.000000
20
0.000000
66
1
0
VERTEX
8
Layer 1
10
517.381203
20
206.400000
70
0
0
VERTEX
8
Layer 1
10
529.505558
20
185.400000
70
0
0
VERTEX
8
Layer 1
10
505.256847
20
185.400000
70
0
0
VERTEX
8
Layer 1
10
517.381203
20
206.400000
70
0
0
VERTEX
8
Layer 1
10
517.381203
20
206.400000
70
0
0
SEQEND
8
Layer 1
0
POLYLINE
8
Layer 1
62
7
70
1
10
0.000000
20
0.000000
66
1
0
VERTEX
8
Layer 1
10
535.740941
20
189.000000
70
0
0
VERTEX
8
Layer 1
10
523.616585
20
210.000000
70
0
0
VERTEX
8
Layer 1
10
547.865297
20
210.000000
70
0
0
VERTEX
8
Layer 1
10
535.740941
20
189.000000
70
0
0
VERTEX
8
Layer 1
10
535.740941
20
189.000000
70
0
0
SEQEND
8
Layer 1
0
POLYLINE
8
Layer 1
62
7
70
1
10
0.000000
20
0.000000
66
1
0
VERTEX
8
Layer 1
10
499.021464
20
111.000000
70
0
0
VERTEX
8
Layer 1
10
511.145820
20
90.000000
70
0
0
VERTEX
8
Layer 1
10
486.897108
20
90.000000
70
0
0
VERTEX
8
Layer 1
10
499.021464
20
111.000000
70
0
0
VERTEX
8
Layer 1
10
499.021464
20
111.000000
70
0
0
SEQEND
8
Layer 1
0
POLYLINE
8
Layer 1
62
7
70
1
10
0.000000
20
0.000000
66
1
0
VERTEX
8
Layer 1
10
517.381203
20
93.600000
70
0
0
VERTEX
8
Layer 1
10
505.256847
20
114.600000
70
0
0
VERTEX
8
Layer 1
10
529.505558
20
114.600000
70
0
0
VERTEX
8
Layer 1
10
517.381203
20
93.600000
70
0
0
VERTEX
8
Layer 1
10
517.381203
20
93.600000
70
0
0
SEQEND
8
Layer 1
0
POLYLINE
8
Layer 1
62
7
70
1
10
0.000000
20
0.000000
66
1
0
VERTEX
8
Layer 1
10
517.381203
20
142.800000
70
0
0
VERTEX
8
Layer 1
10
529.505558
20
121.800000
70
0
0
VERTEX
8
Layer 1
10
505.256847
20
121.800000
70
0
0
VERTEX
8
Layer 1
10
517.381203
20
142.800000
70
0
0
VERTEX
8
Layer 1
10
517.381203
20
142.800000
70
0
0
SEQEND
8
Layer 1
0
POLYLINE
8
Layer 1
62
7
70
1
10
0.000000
20
0.000000
66
1
0
VERTEX
8
Layer 1
10
535.740941
20
125.400000
70
0
0
VERTEX
8
Layer 1
10
523.616585
20
146.400000
70
0
0
VERTEX
8
Layer 1
10
547.865297
20
146.400000
70
0
0
VERTEX
8
Layer 1
10
535.740941
20
125.400000
70
0
0
VERTEX
8
Layer 1
10
535.740941
20
125.400000
70
0
0
SEQEND
8
Layer 1
0
POLYLINE
8
Layer 1
62
7
70
1
10
0.000000
20
0.000000
66
1
0
VERTEX
8
Layer 1
10
535.740941
20
174.600000
70
0
0
VERTEX
8
Layer 1
10
547.865297
20
153.600000
70
0
0
VERTEX
8
Layer 1
10
523.616585
20
153.600000
70
0
0
VERTEX
8
Layer 1
10
535.740941
20
174.600000
70
0
0
VERTEX
8
Layer 1
10
535.740941
20
174.600000
70
0
0
SEQEND
8
Layer 1
0
POLYLINE
8
Layer 1
62
7
70
1
10
0.000000
20
0.000000
66
1
0
VERTEX
8
Layer 1
10
554.100680
20
157.200000
70
0
0
VERTEX
8
Layer 1
10
541.976324
20
178.200000
70
0
0
VERTEX
8
Layer 1
10
566.225035
20
178.200000
70
0
0
VERTEX
8
Layer 1
10
554.100680
20
157.200000
70
0
0
VERTEX
8
Layer 1
10
554.100680
20
157.200000
70
0
0
SEQEND
8
Layer 1
0
POLYLINE
8
Layer 1
62
7
70
1
10
0.000000
20
0.000000
66
1
0
VERTEX
8
Layer 1
10
554.100680
20
206.400000
70
0
0
VERTEX
8
Layer 1
10
566.225035
20
185.400000
70
0
0
VERTEX
8
Layer 1
10
541.976324
20
185.400000
70
0
0
VERTEX
8
Layer 1
10
554.100680
20
206.400000
70
0
0
VERTEX
8
Layer 1
10
554.100680
20
206.400000
70
0
0
SEQEND
8
Layer 1
0
POLYLINE
8
Layer 1
62
7
70
1
10
0.000000
20
0.000000
66
1
0
VERTEX
8
Layer 1
10
572.460418
20
189.000000
70
0
0
VERTEX
8
Layer 1
10
560.336063
20
210.000000
70
0
0
VERTEX
8
Layer 1
10
584.584774
20
210.000000
70
0
0
VERTEX
8
Layer 1
10
572.460418
20
189.000000
70
0
0
VERTEX
8
Layer 1
10
572.460418
20
189.000000
70
0
0
SEQEND
8
Layer 1
0
POLYLINE
8
Layer 1
62
7
70
1
10
0.000000
20
0.000000
66
1
0
VERTEX
8
Layer 1
10
535.740941
20
111.000000
70
0
0
VERTEX
8
Layer 1
10
547.865297
20
90.000000
70
0
0
VERTEX
8
Layer 1
10
523.616585
20
90.000000
70
0
0
VERTEX
8
Layer 1
10
535.740941
20
111.000000
70
0
0
VERTEX
8
Layer 1
10
535.740941
20
111.000000
70
0
0
SEQEND
8
Layer 1
0
POLYLINE
8
Layer 1
62
7
70
1
10
0.000000
20
0.000000
66
1
0
VERTEX
8
Layer 1
10
554.100680
20
93.600000
70
0
0
VERTEX
8
Layer 1
10
541.976324
20
114.600000
70
0
0
VERTEX
8
Layer 1
10
566.225035
20
114.600000
70
0
0
VERTEX
8
Layer 1
10
554.100680
20
93.600000
70
0
0
VERTEX
8
Layer 1
10
554.100680
20
93.600000
70
0
0
SEQEND
8
Layer 1
0
POLYLINE
8
Layer 1
62
7
70
1
10
0.000000
20
0.000000
66
1
0
VERTEX
8
Layer 1
10
554.100680
20
142.800000
70
0
0
VERTEX
8
Layer 1
10
566.225035
20
121.800000
70
0
0
VERTEX
8
Layer 1
10
541.976324
20
121.800000
70
0
0
VERTEX
8
Layer 1
10
554.100680
20
142.800000
70
0
0
VERTEX
8
Layer 1
10
554.100680
20
142.800000
70
0
0
SEQEND
8
Layer 1
0
POLYLINE
8
Layer 1
62
7
70
1
10
0.000000
20
0.000000
66
1
0
VERTEX
8
Layer 1
10
572.460418
20
125.400000
70
0
0
VERTEX
8
Layer 1
10
560.336063
20
146.400000
70
0
0
VERTEX
8
Layer 1
10
584.584774
20
146.400000
70
0
0
VERTEX
8
Layer 1
10
572.460418
20
125.400000
70
0
0
VERTEX
8
Layer 1
10
572.460418
20
125.400000
70
0
0
SEQEND
8
Layer 1
0
POLYLINE
8
Layer 1
62
7
70
1
10
0.000000
20
0.000000
66
1
0
VERTEX
8
Layer 1
10
572.460418
20
174.600000
70
0
0
VERTEX
8
Layer 1
10
584.584774
20
153.600000
70
0
0
VERTEX
8
Layer 1
10
560.336063
20
153.600000
70
0
0
VERTEX
8
Layer 1
10
572.460418
20
174.600000
70
0
0
VERTEX
8
Layer 1
10
572.460418
20
174.600000
70
0
0
SEQEND
8
Layer 1
0
POLYLINE
8
Layer 1
62
7
70
1
10
0.000000
20
0.000000
66
1
0
VERTEX
8
Layer 1
10
590.820157
20
157.200000
70
0
0
VERTEX
8
Layer 1
10
578.695801
20
178.200000
70
0
0
VERTEX
8
Layer 1
10
602.944512
20
178.200000
70
0
0
VERTEX
8
Layer 1
10
590.820157
20
157.200000
70
0
0
VERTEX
8
Layer 1
10
590.820157
20
157.200000
70
0
0
SEQEND
8
Layer 1
0
POLYLINE
8
Layer 1
62
7
70
1
10
0.000000
20
0.000000
66
1
0
VERTEX
8
Layer 1
10
590.820157
20
206.400000
70
0
0
VERTEX
8
Layer 1
10
602.944512
20
185.400000
70
0
0
VERTEX
8
Layer 1
10
578.695801
20
185.400000
70
0
0
VERTEX
8
Layer 1
10
590.820157
20
206.400000
70
0
0
VERTEX
8
Layer 1
10
590.820157
20
206.400000
70
0
0
SEQEND
8
Layer 1
0
POLYLINE
8
Layer 1
62
7
70
1
10
0.000000
20
0.000000
66
1
0
VERTEX
8
Layer 1
10
609.179895
20
189.000000
70
0
0
VERTEX
8
Layer 1
10
597.055540
20
210.000000
70
0
0
VERTEX
8
Layer 1
10
621.304251
20
210.000000
70
0
0
VERTEX
8
Layer 1
10
609.179895
20
189.000000
70
0
0
VERTEX
8
Layer 1
10
609.179895
20
189.000000
70
0
0
SEQEND
8
Layer 1
0
POLYLINE
8
Layer 1
62
7
70
1
10
0.000000
20
0.000000
66
1
0
VERTEX
8
Layer 1
10
572.460418
20
111.000000
70
0
0
VERTEX
8
Layer 1
10
584.584774
20
90.000000
70
0
0
VERTEX
8
Layer 1
10
560.336063
20
90.000000
70
0
0
VERTEX
8
Layer 1
10
572.460418
20
111.000000
70
0
0
VERTEX
8
Layer 1
10
572.460418
20
111.000000
70
0
0
SEQEND
8
Layer 1
0
POLYLINE
8
Layer 1
62
7
70
1
10
0.000000
20
0.000000
66
1
0
VERTEX
8
Layer 1
10
590.820157
20
93.600000
70
0
0
VERTEX
8
Layer 1
10
578.695801
20
114.600000
70
0
0
VERTEX
8
Layer 1
10
602.944512
20
114.600000
70
0
0
VERTEX
8
Layer 1
10
590.820157
20
93.600000
70
0
0
VERTEX
8
Layer 1
10
590.820157
20
93.600000
70
0
0
SEQEND
8
Layer 1
0
POLYLINE
8
Layer 1
62
7
70
1
10
0.000000
20
0.000000
66
1
0
VERTEX
8
Layer 1
10
590.820157
20
142.800000
70
0
0
VERTEX
8
Layer 1
10
602.944512
20
121.800000
70
0
0
VERTEX
8
Layer 1
10
578.695801
20
121.800000
70
0
0
VERTEX
8
Layer 1
10
590.820157
20
142.800000
70
0
0
VERTEX
8
Layer 1
10
590.820157
20
142.800000
70
0
0
SEQEND
8
Layer 1
0
POLYLINE
8
Layer 1
62
7
70
1
10
0.000000
20
0.000000
66
1
0
VERTEX
8
Layer 1
10
609.179895
20
125.400000
70
0
0
VERTEX
8
Layer 1
10
597.055540
20
146.400000
70
0
0
VERTEX
8
Layer 1
10
621.304251
20
146.400000
70
0
0
VERTEX
8
Layer 1
10
609.179895
20
125.400000
70
0
0
VERTEX
8
Layer 1
10
609.179895
20
125.400000
70
0
0
SEQEND
8
Layer 1
0
POLYLINE
8
Layer 1
62
7
70
1
10
0.000000
20
0.000000
66
1
0
VERTEX
8
Layer 1
10
609.179895
20
174.600000
70
0
0
VERTEX
8
Layer 1
10
621.304251
20
153.600000
70
0
0
VERTEX
8
Layer 1
10
597.055540
20
153.600000
70
0
0
VERTEX
8
Layer 1
10
609.179895
20
174.600000
70
0
0
VERTEX
8
Layer 1
10
609.179895
20
174.600000
70
0
0
SEQEND
8
Layer 1
0
POLYLINE
8
Layer 1
62
7
70
1
10
0.000000
20
0.000000
66
1
0
VERTEX
8
Layer 1
10
627.539634
20
157.200000
70
0
0
VERTEX
8
Layer 1
10
615.415278
20
178.200000
70
0
0
VERTEX
8
Layer 1
10
639.663990
20
178.200000
70
0
0
VERTEX
8
Layer 1
10
627.539634
20
157.200000
70
0
0
VERTEX
8
Layer 1
10
627.539634
20
157.200000
70
0
0
SEQEND
8
Layer 1
0
POLYLINE
8
Layer 1
62
7
70
1
10
0.000000
20
0.000000
66
1
0
VERTEX
8
Layer 1
10
627.539634
20
206.400000
70
0
0
VERTEX
8
Layer 1
10
639.663990
20
185.400000
70
0
0
VERTEX
8
Layer 1
10
615.415278
20
185.400000
70
0
0
VERTEX
8
Layer 1
10
627.539634
20
206.400000
70
0
0
VERTEX
8
Layer 1
10
627.539634
20
206.400000
70
0
0
SEQEND
8
Layer 1
0
POLYLINE
8
Layer 1
62
7
70
1
10
0.000000
20
0.000000
66
1
0
VERTEX
8
Layer 1
10
645.899372
20
189.000000
70
0
0
VERTEX
8
Layer 1
10
633.775017
20
210.000000
70
0
0
VERTEX
8
Layer 1
10
658.023728
20
210.000000
70
0
0
VERTEX
8
Layer 1
10
645.899372
20
189.000000
70
0
0
VERTEX
8
Layer 1
10
645.899372
20
189.000000
70
0
0
SEQEND
8
Layer 1
0
POLYLINE
8
Layer 1
62
7
70
1
10
0.000000
20
0.000000
66
1
0
VERTEX
8
Layer 1
10
609.179895
20
111.000000
70
0
0
VERTEX
8
Layer 1
10
621.304251
20
90.000000
70
0
0
VERTEX
8
Layer 1
10
597.055540
20
90.000000
70
0
0
VERTEX
8
Layer 1
10
609.179895
20
111.000000
70
0
0
VERTEX
8
Layer 1
10
609.179895
20
111.000000
70
0
0
SEQEND
8
Layer 1
0
POLYLINE
8
Layer 1
62
7
70
1
10
0.000000
20
0.000000
66
1
0
VERTEX
8
Layer 1
10
627.539634
20
93.600000
70
0
0
VERTEX
8
Layer 1
10
615.415278
20
114.600000
70
0
0
VERTEX
8
Layer 1
10
639.663990
20
114.600000
70
0
0
VERTEX
8
Layer 1
10
627.539634
20
93.600000
70
0
0
VERTEX
8
Layer 1
10
627.539634
20
93.600000
70
0
0
SEQEND
8
Layer 1
0
POLYLINE
8
Layer 1
62
7
70
1
10
0.000000
20
0.000000
66
1
0
VERTEX
8
Layer 1
10
627.539634
20
142.800000
70
0
0
VERTEX
8
Layer 1
10
639.663990
20
121.800000
70
0
0
VERTEX
8
Layer 1
10
615.415278
20
121.800000
70
0
0
VERTEX
8
Layer 1
10
627.539634
20
142.800000
70
0
0
VERTEX
8
Layer 1
10
627.539634
20
142.800000
70
0
0
SEQEND
8
Layer 1
0
POLYLINE
8
Layer 1
62
7
70
1
10
0.000000
20
0.000000
66
1
0
VERTEX
8
Layer 1
10
645.899372
20
125.400000
70
0
0
VERTEX
8
Layer 1
10
633.775017
20
146.400000
70
0
0
VERTEX
8
Layer 1
10
658.023728
20
146.400000
70
0
0
VERTEX
8
Layer 1
10
645.899372
20
125.400000
70
0
0
VERTEX
8
Layer 1
10
645.899372
20
125.400000
70
0
0
SEQEND
8
Layer 1
0
POLYLINE
8
Layer 1
62
7
70
1
10
0.000000
20
0.000000
66
1
0
VERTEX
8
Layer 1
10
645.899372
20
174.600000
70
0
0
VERTEX
8
Layer 1
10
658.023728
20
153.600000
70
0
0
VERTEX
8
Layer 1
10
633.775017
20
153.600000
70
0
0
VERTEX
8
Layer 1
10
645.899372
20
174.600000
70
0
0
VERTEX
8
Layer 1
10
645.899372
20
174.600000
70
0
0
SEQEND
8
Layer 1
0
POLYLINE
8
Layer 1
62
7
70
1
10
0.000000
20
0.000000
66
1
0
VERTEX
8
Layer 1
10
664.259111
20
157.200000
70
0
0
VERTEX
8
Layer 1
10
652.134755
20
178.200000
70
0
0
VERTEX
8
Layer 1
10
676.383467
20
178.200000
70
0
0
VERTEX
8
Layer 1
10
664.259111
20
157.200000
70
0
0
VERTEX
8
Layer 1
10
664.259111
20
157.200000
70
0
0
SEQEND
8
Layer 1
0
POLYLINE
8
Layer 1
62
7
70
1
10
0.000000
20
0.000000
66
1
0
VERTEX
8
Layer 1
10
664.259111
20
206.400000
70
0
0
VERTEX
8
Layer 1
10
676.383467
20
185.400000
70
0
0
VERTEX
8
Layer 1
10
652.134755
20
185.400000
70
0
0
VERTEX
8
Layer 1
10
664.259111
20
206.400000
70
0
0
VERTEX
8
Layer 1
10
664.259111
20
206.400000
70
0
0
SEQEND
8
Layer 1
0
POLYLINE
8
Layer 1
62
7
70
1
10
0.000000
20
0.000000
66
1
0
VERTEX
8
Layer 1
10
682.618850
20
189.000000
70
0
0
VERTEX
8
Layer 1
10
670.494494
20
210.000000
70
0
0
VERTEX
8
Layer 1
10
694.743205
20
210.000000
70
0
0
VERTEX
8
Layer 1
10
682.618850
20
189.000000
70
0
0
VERTEX
8
Layer 1
10
682.618850
20
189.000000
70
0
0
SEQEND
8
Layer 1
0
POLYLINE
8
Layer 1
62
7
70
1
10
0.000000
20
0.000000
66
1
0
VERTEX
8
Layer 1
10
645.899372
20
111.000000
70
0
0
VERTEX
8
Layer 1
10
658.023728
20
90.000000
70
0
0
VERTEX
8
Layer 1
10
633.775017
20
90.000000
70
0
0
VERTEX
8
Layer 1
10
645.899372
20
111.000000
70
0
0
VERTEX
8
Layer 1
10
645.899372
20
111.000000
70
0
0
SEQEND
8
Layer 1
0
POLYLINE
8
Layer 1
62
7
70
1
10
0.000000
20
0.000000
66
1
0
VERTEX
8
Layer 1
10
664.259111
20
93.600000
70
0
0
VERTEX
8
Layer 1
10
652.134755
20
114.600000
70
0
0
VERTEX
8
Layer 1
10
676.383467
20
114.600000
70
0
0
VERTEX
8
Layer 1
10
664.259111
20
93.600000
70
0
0
VERTEX
8
Layer 1
10
664.259111
20
93.600000
70
0
0
SEQEND
8
Layer 1
0
POLYLINE
8
Layer 1
62
7
70
1
10
0.000000
20
0.000000
66
1
0
VERTEX
8
Layer 1
10
664.259111
20
142.800000
70
0
0
VERTEX
8
Layer 1
10
676.383467
20
121.800000
70
0
0
VERTEX
8
Layer 1
10
652.134755
20
121.800000
70
0
0
VERTEX
8
Layer 1
10
664.259111
20
142.800000
70
0
0
VERTEX
8
Layer 1
10
664.259111
20
142.800000
70
0
0
SEQEND
8
Layer 1
0
POLYLINE
8
Layer 1
62
7
70
1
10
0.000000
20
0.000000
66
1
0
VERTEX
8
Layer 1
10
682.618850
20
125.400000
70
0
0
VERTEX
8
Layer 1
10
670.494494
20
146.400000
70
0
0
VERTEX
8
Layer 1
10
694.743205
20
146.400000
70
0
0
VERTEX
8
Layer 1
10
682.618850
20
125.400000
70
0
0
VERTEX
8
Layer 1
10
682.618850
20
125.400000
70
0
0
SEQEND
8
Layer 1
0
POLYLINE
8
Layer 1
62
7
70
1
10
0.000000
20
0.000000
66
1
0
VERTEX
8
Layer 1
10
682.618850
20
174.600000
70
0
0
VERTEX
8
Layer 1
10
694.743205
20
153.600000
70
0
0
VERTEX
8
Layer 1
10
670.494494
20
153.600000
70
0
0
VERTEX
8
Layer 1
10
682.618850
20
174.600000
70
0
0
VERTEX
8
Layer 1
10
682.618850
20
174.600000
70
0
0
SEQEND
8
Layer 1
0
POLYLINE
8
Layer 1
62
7
70
1
10
0.000000
20
0.000000
66
1
0
VERTEX
8
Layer 1
10
700.978588
20
157.200000
70
0
0
VERTEX
8
Layer 1
10
688.854233
20
178.200000
70
0
0
VERTEX
8
Layer 1
10
713.102944
20
178.200000
70
0
0
VERTEX
8
Layer 1
10
700.978588
20
157.200000
70
0
0
VERTEX
8
Layer 1
10
700.978588
20
157.200000
70
0
0
SEQEND
8
Layer 1
0
POLYLINE
8
Layer 1
62
7
70
1
10
0.000000
20
0.000000
66
1
0
VERTEX
8
Layer 1
10
700.978588
20
206.400000
70
0
0
VERTEX
8
Layer 1
10
713.102944
20
185.400000
70
0
0
VERTEX
8
Layer 1
10
688.854233
20
185.400000
70
0
0
VERTEX
8
Layer 1
10
700.978588
20
206.400000
70
0
0
VERTEX
8
Layer 1
10
700.978588
20
206.400000
70
0
0
SEQEND
8
Layer 1
0
POLYLINE
8
Layer 1
62
7
70
1
10
0.000000
20
0.000000
66
1
0
VERTEX
8
Layer 1
10
719.338327
20
189.000000
70
0
0
VERTEX
8
Layer 1
10
707.213971
20
210.000000
70
0
0
VERTEX
8
Layer 1
10
731.462682
20
210.000000
70
0
0
VERTEX
8
Layer 1
10
719.338327
20
189.000000
70
0
0
VERTEX
8
Layer 1
10
719.338327
20
189.000000
70
0
0
SEQEND
8
Layer 1
0
POLYLINE
8
Layer 1
62
7
70
1
10
0.000000
20
0.000000
66
1
0
VERTEX
8
Layer 1
10
682.618850
20
111.000000
70
0
0
VERTEX
8
Layer 1
10
694.743205
20
90.000000
70
0
0
VERTEX
8
Layer 1
10
670.494494
20
90.000000
70
0
0
VERTEX
8
Layer 1
10
682.618850
20
111.000000
70
0
0
VERTEX
8
Layer 1
10
682.618850
20
111.000000
70
0
0
SEQEND
8
Layer 1
0
POLYLINE
8
Layer 1
62
7
70
1
10
0.000000
20
0.000000
66
1
0
VERTEX
8
Layer 1
10
700.978588
20
93.600000
70
0
0
VERTEX
8
Layer 1
10
688.854233
20
114.600000
70
0
0
VERTEX
8
Layer 1
10
713.102944
20
114.600000
70
0
0
VERTEX
8
Layer 1
10
700.978588
20
93.600000
70
0
0
VERTEX
8
Layer 1
10
700.978588
20
93.600000
70
0
0
SEQEND
8
Layer 1
0
POLYLINE
8
Layer 1
62
7
70
1
10
0.000000
20
0.000000
66
1
0
VERTEX
8
Layer 1
10
700.978588
20
142.800000
70
0
0
VERTEX
8
Layer 1
10
713.102944
20
121.800000
70
0
0
VERTEX
8
Layer 1
10
688.854233
20
121.800000
70
0
0
VERTEX
8
Layer 1
10
700.978588
20
142.800000
70
0
0
VERTEX
8
Layer 1
10
700.978588
20
142.800000
70
0
0
SEQEND
8
Layer 1
0
POLYLINE
8
Layer 1
62
7
70
1
10
0.000000
20
0.000000
66
1
0
VERTEX
8
Layer 1
10
719.338327
20
125.400000
70
0
0
VERTEX
8
Layer 1
10
707.213971
20
146.400000
70
0
0
VERTEX
8
Layer 1
10
731.462682
20
146.400000
70
0
0
VERTEX
8
Layer 1
10
719.338327
20
125.400000
70
0
0
VERTEX
8
Layer 1
10
719.338327
20
125.400000
70
0
0
SEQEND
8
Layer 1
0
POLYLINE
8
Layer 1
62
7
70
1
10
0.000000
20
0.000000
66
1
0
VERTEX
8
Layer 1
10
719.338327
20
174.600000
70
0
0
VERTEX
8
Layer 1
10
731.462682
20
153.600000
70
0
0
VERTEX
8
Layer 1
10
707.213971
20
153.600000
70
0
0
VERTEX
8
Layer 1
10
719.338327
20
174.600000
70
0
0
VERTEX
8
Layer 1
10
719.338327
20
174.600000
70
0
0
SEQEND
8
Layer 1
0
POLYLINE
8
Layer 1
62
7
70
1
10
0.000000
20
0.000000
66
1
0
VERTEX
8
Layer 1
10
737.698065
20
157.200000
70
0
0
VERTEX
8
Layer 1
10
725.573710
20
178.200000
70
0
0
VERTEX
8
Layer 1
10
749.822421
20
178.200000
70
0
0
VERTEX
8
Layer 1
10
737.698065
20
157.200000
70
0
0
VERTEX
8
Layer 1
10
737.698065
20
157.200000
70
0
0
SEQEND
8
Layer 1
0
POLYLINE
8
Layer 1
62
7
70
1
10
0.000000
20
0.000000
66
1
0
VERTEX
8
Layer 1
10
737.698065
20
206.400000
70
0
0
VERTEX
8
Layer 1
10
749.822421
20
185.400000
70
0
0
VERTEX
8
Layer 1
10
725.573710
20
185.400000
70
0
0
VERTEX
8
Layer 1
10
737.698065
20
206.400000
70
0
0
VERTEX
8
Layer 1
10
737.698065
20
206.400000
70
0
0
SEQEND
8
Layer 1
0
POLYLINE
8
Layer 1
62
7
70
1
10
0.000000
20
0.000000
66
1
0
VERTEX
8
Layer 1
10
756.057804
20
189.000000
70
0
0
VERTEX
8
Layer 1
10
743.933448
20
210.000000
70
0
0
VERTEX
8
Layer 1
10
768.182160
20
210.000000
70
0
0
VERTEX
8
Layer 1
10
756.057804
20
189.000000
70
0
0
VERTEX
8
Layer 1
10
756.057804
20
189.000000
70
0
0
SEQEND
8
Layer 1
0
POLYLINE
8
Layer 1
62
7
70
1
10
0.000000
20
0.000000
66
1
0
VERTEX
8
Layer 1
10
719.338327
20
111.000000
70
0
0
VERTEX
8
Layer 1
10
731.462682
20
90.000000
70
0
0
VERTEX
8
Layer 1
10
707.213971
20
90.000000
70
0
0
VERTEX
8
Layer 1
10
719.338327
20
111.000000
70
0
0
VERTEX
8
Layer 1
10
719.338327
20
111.000000
70
0
0
SEQEND
8
Layer 1
0
POLYLINE
8
Layer 1
62
7
70
1
10
0.000000
20
0.000000
66
1
0
VERTEX
8
Layer 1
10
737.698065
20
93.600000
70
0
0
VERTEX
8
Layer 1
10
725.573710
20
114.600000
70
0
0
VERTEX
8
Layer 1
10
749.822421
20
114.600000
70
0
0
VERTEX
8
Layer 1
10
737.698065
20
93.600000
70
0
0
VERTEX
8
Layer 1
10
737.698065
20
93.600000
70
0
0
SEQEND
8
Layer 1
0
POLYLINE
8
Layer 1
62
7
70
1
10
0.000000
20
0.000000
66
1
0
VERTEX
8
Layer 1
10
737.698065
20
142.800000
70
0
0
VERTEX
8
Layer 1
10
749.822421
20
121.800000
70
0
0
VERTEX
8
Layer 1
10
725.573710
20
121.800000
70
0
0
VERTEX
8
Layer 1
10
737.698065
20
142.800000
70
0
0
VERTEX
8
Layer 1
10
737.698065
20
142.800000
70
0
0
SEQEND
8
Layer 1
0
POLYLINE
8
Layer 1
62
7
70
1
10
0.000000
20
0.000000
66
1
0
VERTEX
8
Layer 1
10
756.057804
20
125.400000
70
0
0
VERTEX
8
Layer 1
10
743.933448
20
146.400000
70
0
0
VERTEX
8
Layer 1
10
768.182160
20
146.400000
70
0
0
VERTEX
8
Layer 1
10
756.057804
20
125.400000
70
0
0
VERTEX
8
Layer 1
10
756.057804
20
125.400000
70
0
0
SEQEND
8
Layer 1
0
POLYLINE
8
Layer 1
62
7
70
1
10
0.000000
20
0.000000
66
1
0
VERTEX
8
Layer 1
10
756.057804
20
174.600000
70
0
0
VERTEX
8
Layer 1
10
768.182160
20
153.600000
70
0
0
VERTEX
8
Layer 1
10
743.933448
20
153.600000
70
0
0
VERTEX
8
Layer 1
10
756.057804
20
174.600000
70
0
0
VERTEX
8
Layer 1
10
756.057804
20
174.600000
70
0
0
SEQEND
8
Layer 1
0
POLYLINE
8
Layer 1
62
7
70
1
10
0.000000
20
0.000000
66
1
0
VERTEX
8
Layer 1
10
774.417542
20
157.200000
70
0
0
VERTEX
8
Layer 1
10
762.293187
20
178.200000
70
0
0
VERTEX
8
Layer 1
10
786.541898
20
178.200000
70
0
0
VERTEX
8
Layer 1
10
774.417542
20
157.200000
70
0
0
VERTEX
8
Layer 1
10
774.417542
20
157.200000
70
0
0
SEQEND
8
Layer 1
0
POLYLINE
8
Layer 1
62
7
70
1
10
0.000000
20
0.000000
66
1
0
VERTEX
8
Layer 1
10
774.417542
20
206.400000
70
0
0
VERTEX
8
Layer 1
10
786.541898
20
185.400000
70
0
0
VERTEX
8
Layer 1
10
762.293187
20
185.400000
70
0
0
VERTEX
8
Layer 1
10
774.417542
20
206.400000
70
0
0
VERTEX
8
Layer 1
10
774.417542
20
206.400000
70
0
0
SEQEND
8
Layer 1
0
POLYLINE
8
Layer 1
62
7
70
1
10
0.000000
20
0.000000
66
1
0
VERTEX
8
Layer 1
10
792.777281
20
189.000000
70
0
0
VERTEX
8
Layer 1
10
780.652925
20
210.000000
70
0
0
VERTEX
8
Layer 1
10
804.901637
20
210.000000
70
0
0
VERTEX
8
Layer 1
10
792.777281
20
189.000000
70
0
0
VERTEX
8
Layer 1
10
792.777281
20
189.000000
70
0
0
SEQEND
8
Layer 1
0
POLYLINE
8
Layer 1
62
7
70
1
10
0.000000
20
0.000000
66
1
0
VERTEX
8
Layer 1
10
756.057804
20
111.000000
70
0
0
VERTEX
8
Layer 1
10
768.182160
20
90.000000
70
0
0
VERTEX
8
Layer 1
10
743.933448
20
90.000000
70
0
0
VERTEX
8
Layer 1
10
756.057804
20
111.000000
70
0
0
VERTEX
8
Layer 1
10
756.057804
20
111.000000
70
0
0
SEQEND
8
Layer 1
0
POLYLINE
8
Layer 1
62
7
70
1
10
0.000000
20
0.000000
66
1
0
VERTEX
8
Layer 1
10
774.417542
20
93.600000
70
0
0
VERTEX
8
Layer 1
10
762.293187
20
114.600000
70
0
0
VERTEX
8
Layer 1
10
786.541898
20
114.600000
70
0
0
VERTEX
8
Layer 1
10
774.417542
20
93.600000
70
0
0
VERTEX
8
Layer 1
10
774.417542
20
93.600000
70
0
0
SEQEND
8
Layer 1
0
POLYLINE
8
Layer 1
62
7
70
1
10
0.000000
20
0.000000
66
1
0
VERTEX
8
Layer 1
10
774.417542
20
142.800000
70
0
0
VERTEX
8
Layer 1
10
786.541898
20
121.800000
70
0
0
VERTEX
8
Layer 1
10
762.293187
20
121.800000
70
0
0
VERTEX
8
Layer 1
10
774.417542
20
142.800000
70
0
0
VERTEX
8
Layer 1
10
774.417542
20
142.800000
70
0
0
SEQEND
8
Layer 1
0
POLYLINE
8
Layer 1
62
7
70
1
10
0.000000
20
0.000000
66
1
0
VERTEX
8
Layer 1
10
792.777281
20
125.400000
70
0
0
VERTEX
8
Layer 1
10
780.652925
20
146.400000
70
0
0
VERTEX
8
Layer 1
10
804.901637
20
146.400000
70
0
0
VERTEX
8
Layer 1
10
792.777281
20
125.400000
70
0
0
VERTEX
8
Layer 1
10
792.777281
20
125.400000
70
0
0
SEQEND
8
Layer 1
0
POLYLINE
8
Layer 1
62
7
70
1
10
0.000000
20
0.000000
66
1
0
VERTEX
8
Layer 1
10
792.777281
20
174.600000
70
0
0
VERTEX
8
Layer 1
10
804.901637
20
153.600000
70
0
0
VERTEX
8
Layer 1
10
780.652925
20
153.600000
70
0
0
VERTEX
8
Layer 1
10
792.777281
20
174.600000
70
0
0
VERTEX
8
Layer 1
10
792.777281
20
174.600000
70
0
0
SEQEND
8
Layer 1
0
POLYLINE
8
Layer 1
62
7
70
1
10
0.000000
20
0.000000
66
1
0
VERTEX
8
Layer 1
10
811.137020
20
157.200000
70
0
0
VERTEX
8
Layer 1
10
799.012664
20
178.200000
70
0
0
VERTEX
8
Layer 1
10
823.261375
20
178.200000
70
0
0
VERTEX
8
Layer 1
10
811.137020
20
157.200000
70
0
0
VERTEX
8
Layer 1
10
811.137020
20
157.200000
70
0
0
SEQEND
8
Layer 1
0
POLYLINE
8
Layer 1
62
7
70
1
10
0.000000
20
0.000000
66
1
0
VERTEX
8
Layer 1
10
811.137020
20
206.400000
70
0
0
VERTEX
8
Layer 1
10
823.261375
20
185.400000
70
0
0
VERTEX
8
Layer 1
10
799.012664
20
185.400000
70
0
0
VERTEX
8
Layer 1
10
811.137020
20
206.400000
70
0
0
VERTEX
8
Layer 1
10
811.137020
20
206.400000
70
0
0
SEQEND
8
Layer 1
0
POLYLINE
8
Layer 1
62
7
70
1
10
0.000000
20
0.000000
66
1
0
VERTEX
8
Layer 1
10
829.496758
20
189.000000
70
0
0
VERTEX
8
Layer 1
10
817.372402
20
210.000000
70
0
0
VERTEX
8
Layer 1
10
841.621114
20
210.000000
70
0
0
VERTEX
8
Layer 1
10
829.496758
20
189.000000
70
0
0
VERTEX
8
Layer 1
10
829.496758
20
189.000000
70
0
0
SEQEND
8
Layer 1
0
POLYLINE
8
Layer 1
62
7
70
1
10
0.000000
20
0.000000
66
1
0
VERTEX
8
Layer 1
10
792.777281
20
111.000000
70
0
0
VERTEX
8
Layer 1
10
804.901637
20
90.000000
70
0
0
VERTEX
8
Layer 1
10
780.652925
20
90.000000
70
0
0
VERTEX
8
Layer 1
10
792.777281
20
111.000000
70
0
0
VERTEX
8
Layer 1
10
792.777281
20
111.000000
70
0
0
SEQEND
8
Layer 1
0
POLYLINE
8
Layer 1
62
7
70
1
10
0.000000
20
0.000000
66
1
0
VERTEX
8
Layer 1
10
811.137020
20
93.600000
70
0
0
VERTEX
8
Layer 1
10
799.012664
20
114.600000
70
0
0
VERTEX
8
Layer 1
10
823.261375
20
114.600000
70
0
0
VERTEX
8
Layer 1
10
811.137020
20
93.600000
70
0
0
VERTEX
8
Layer 1
10
811.137020
20
93.600000
70
0
0
SEQEND
8
Layer 1
0
POLYLINE
8
Layer 1
62
7
70
1
10
0.000000
20
0.000000
66
1
0
VERTEX
8
Layer 1
10
811.137020
20
142.800000
70
0
0
VERTEX
8
Layer 1
10
823.261375
20
121.800000
70
0
0
VERTEX
8
Layer 1
10
799.012664
20
121.800000
70
0
0
VERTEX
8
Layer 1
10
811.137020
20
142.800000
70
0
0
VERTEX
8
Layer 1
10
811.137020
20
142.800000
70
0
0
SEQEND
8
Layer 1
0
POLYLINE
8
Layer 1
62
7
70
1
10
0.000000
20
0.000000
66
1
0
VERTEX
8
Layer 1
10
829.496758
20
125.400000
70
0
0
VERTEX
8
Layer 1
10
817.372402
20
146.400000
70
0
0
VERTEX
8
Layer 1
10
841.621114
20
146.400000
70
0
0
VERTEX
8
Layer 1
10
829.496758
20
125.400000
70
0
0
VERTEX
8
Layer 1
10
829.496758
20
125.400000
70
0
0
SEQEND
8
Layer 1
0
POLYLINE
8
Layer 1
62
7
70
1
10
0.000000
20
0.000000
66
1
0
VERTEX
8
Layer 1
10
829.496758
20
174.600000
70
0
0
VERTEX
8
Layer 1
10
841.621114
20
153.600000
70
0
0
VERTEX
8
Layer 1
10
817.372402
20
153.600000
70
0
0
VERTEX
8
Layer 1
10
829.496758
20
174.600000
70
0
0
VERTEX
8
Layer 1
10
829.496758
20
174.600000
70
0
0
SEQEND
8
Layer 1
0
POLYLINE
8
Layer 1
62
7
70
1
10
0.000000
20
0.000000
66
1
0
VERTEX
8
Layer 1
10
847.856497
20
157.200000
70
0
0
VERTEX
8
Layer 1
10
835.732141
20
178.200000
70
0
0
VERTEX
8
Layer 1
10
859.980852
20
178.200000
70
0
0
VERTEX
8
Layer 1
10
847.856497
20
157.200000
70
0
0
VERTEX
8
Layer 1
10
847.856497
20
157.200000
70
0
0
SEQEND
8
Layer 1
0
POLYLINE
8
Layer 1
62
7
70
1
10
0.000000
20
0.000000
66
1
0
VERTEX
8
Layer 1
10
847.856497
20
206.400000
70
0
0
VERTEX
8
Layer 1
10
859.980852
20
185.400000
70
0
0
VERTEX
8
Layer 1
10
835.732141
20
185.400000
70
0
0
VERTEX
8
Layer 1
10
847.856497
20
206.400000
70
0
0
VERTEX
8
Layer 1
10
847.856497
20
206.400000
70
0
0
SEQEND
8
Layer 1
0
POLYLINE
8
Layer 1
62
7
70
1
10
0.000000
20
0.000000
66
1
0
VERTEX
8
Layer 1
10
866.216235
20
189.000000
70
0
0
VERTEX
8
Layer 1
10
854.091880
20
210.000000
70
0
0
VERTEX
8
Layer 1
10
878.340591
20
210.000000
70
0
0
VERTEX
8
Layer 1
10
866.216235
20
189.000000
70
0
0
VERTEX
8
Layer 1
10
866.216235
20
189.000000
70
0
0
SEQEND
8
Layer 1
0
POLYLINE
8
Layer 1
62
7
70
1
10
0.000000
20
0.000000
66
1
0
VERTEX
8
Layer 1
10
829.496758
20
111.000000
70
0
0
VERTEX
8
Layer 1
10
841.621114
20
90.000000
70
0
0
VERTEX
8
Layer 1
10
817.372402
20
90.000000
70
0
0
VERTEX
8
Layer 1
10
829.496758
20
111.000000
70
0
0
VERTEX
8
Layer 1
10
829.496758
20
111.000000
70
0
0
SEQEND
8
Layer 1
0
POLYLINE
8
Layer 1
62
7
70
1
10
0.000000
20
0.000000
66
1
0
VERTEX
8
Layer 1
10
847.856497
20
93.600000
70
0
0
VERTEX
8
Layer 1
10
835.732141
20
114.600000
70
0
0
VERTEX
8
Layer 1
10
859.980852
20
114.600000
70
0
0
VERTEX
8
Layer 1
10
847.856497
20
93.600000
70
0
0
VERTEX
8
Layer 1
10
847.856497
20
93.600000
70
0
0
SEQEND
8
Layer 1
0
POLYLINE
8
Layer 1
62
7
70
1
10
0.000000
20
0.000000
66
1
0
VERTEX
8
Layer 1
10
847.856497
20
142.800000
70
0
0
VERTEX
8
Layer 1
10
859.980852
20
121.800000
70
0
0
VERTEX
8
Layer 1
10
835.732141
20
121.800000
70
0
0
VERTEX
8
Layer 1
10
847.856497
20
142.800000
70
0
0
VERTEX
8
Layer 1
10
847.856497
20
142.800000
70
0
0
SEQEND
8
Layer 1
0
POLYLINE
8
Layer 1
62
7
70
1
10
0.000000
20
0.000000
66
1
0
VERTEX
8
Layer 1
10
866.216235
20
125.400000
70
0
0
VERTEX
8
Layer 1
10
854.091880
20
146.400000
70
0
0
VERTEX
8
Layer 1
10
878.340591
20
146.400000
70
0
0
VERTEX
8
Layer 1
10
866.216235
20
125.400000
70
0
0
VERTEX
8
Layer 1
10
866.216235
20
125.400000
70
0
0
SEQEND
8
Layer 1
0
POLYLINE
8
Layer 1
62
7
70
1
10
0.000000
20
0.000000
66
1
0
VERTEX
8
Layer 1
10
866.216235
20
174.600000
70
0
0
VERTEX
8
Layer 1
10
878.340591
20
153.600000
70
0
0
VERTEX
8
Layer 1
10
854.091880
20
153.600000
70
0
0
VERTEX
8
Layer 1
10
866.216235
20
174.600000
70
0
0
VERTEX
8
Layer 1
10
866.216235
20
174.600000
70
0
0
SEQEND
8
Layer 1
0
POLYLINE
8
Layer 1
62
7
70
1
10
0.000000
20
0.000000
66
1
0
VERTEX
8
Layer 1
10
884.575974
20
157.200000
70
0
0
VERTEX
8
Layer 1
10
872.451618
20
178.200000
70
0
0
VERTEX
8
Layer 1
10
896.700329
20
178.200000
70
0
0
VERTEX
8
Layer 1
10
884.575974
20
157.200000
70
0
0
VERTEX
8
Layer 1
10
884.575974
20
157.200000
70
0
0
SEQEND
8
Layer 1
0
POLYLINE
8
Layer 1
62
7
70
1
10
0.000000
20
0.000000
66
1
0
VERTEX
8
Layer 1
10
884.575974
20
206.400000
70
0
0
VERTEX
8
Layer 1
10
896.700329
20
185.400000
70
0
0
VERTEX
8
Layer 1
10
872.451618
20
185.400000
70
0
0
VERTEX
8
Layer 1
10
884.575974
20
206.400000
70
0
0
VERTEX
8
Layer 1
10
884.575974
20
206.400000
70
0
0
SEQEND
8
Layer 1
0
POLYLINE
8
Layer 1
62
7
70
1
10
0.000000
20
0.000000
66
1
0
VERTEX
8
Layer 1
10
902.935712
20
189.000000
70
0
0
VERTEX
8
Layer 1
10
890.811357
20
210.000000
70
0
0
VERTEX
8
Layer 1
10
915.060068
20
210.000000
70
0
0
VERTEX
8
Layer 1
10
902.935712
20
189.000000
70
0
0
VERTEX
8
Layer 1
10
902.935712
20
189.000000
70
0
0
SEQEND
8
Layer 1
0
POLYLINE
8
Layer 1
62
7
70
1
10
0.000000
20
0.000000
66
1
0
VERTEX
8
Layer 1
10
866.216235
20
111.000000
70
0
0
VERTEX
8
Layer 1
10
878.340591
20
90.000000
70
0
0
VERTEX
8
Layer 1
10
854.091880
20
90.000000
70
0
0
VERTEX
8
Layer 1
10
866.216235
20
111.000000
70
0
0
VERTEX
8
Layer 1
10
866.216235
20
111.000000
70
0
0
SEQEND
8
Layer 1
0
POLYLINE
8
Layer 1
62
7
70
1
10
0.000000
20
0.000000
66
1
0
VERTEX
8
Layer 1
10
884.575974
20
93.600000
70
0
0
VERTEX
8
Layer 1
10
872.451618
20
114.600000
70
0
0
VERTEX
8
Layer 1
10
896.700329
20
114.600000
70
0
0
VERTEX
8
Layer 1
10
884.575974
20
93.600000
70
0
0
VERTEX
8
Layer 1
10
884.575974
20
93.600000
70
0
0
SEQEND
8
Layer 1
0
POLYLINE
8
Layer 1
62
7
70
1
10
0.000000
20
0.000000
66
1
0
VERTEX
8
Layer 1
10
884.575974
20
142.800000
70
0
0
VERTEX
8
Layer 1
10
896.700329
20
121.800000
70
0
0
VERTEX
8
Layer 1
10
872.451618
20
121.800000
70
0
0
VERTEX
8
Layer 1
10
884.575974
20
142.800000
70
0
0
VERTEX
8
Layer 1
10
884.575974
20
142.800000
70
0
0
SEQEND
8
Layer 1
0
POLYLINE
8
Layer 1
62
7
70
1
10
0.000000
20
0.000000
66
1
0
VERTEX
8
Layer 1
10
902.935712
20
125.400000
70
0
0
VERTEX
8
Layer 1
10
890.811357
20
146.400000
70
0
0
VERTEX
8
Layer 1
10
915.060068
20
146.400000
70
0
0
VERTEX
8
Layer 1
10
902.935712
20
125.400000
70
0
0
VERTEX
8
Layer 1
10
902.935712
20
125.400000
70
0
0
SEQEND
8
Layer 1
0
POLYLINE
8
Layer 1
62
7
70
1
10
0.000000
20
0.000000
66
1
0
VERTEX
8
Layer 1
10
902.935712
20
174.600000
70
0
0
VERTEX
8
Layer 1
10
915.060068
20
153.600000
70
0
0
VERTEX
8
Layer 1
10
890.811357
20
153.600000
70
0
0
VERTEX
8
Layer 1
10
902.935712
20
174.600000
70
0
0
VERTEX
8
Layer 1
10
902.935712
20
174.600000
70
0
0
SEQEND
8
Layer 1
0
POLYLINE
8
Layer 1
62
7
70
1
10
0.000000
20
0.000000
66
1
0
VERTEX
8
Layer 1
10
921.295451
20
157.200000
70
0
0
VERTEX
8
Layer 1
10
909.171095
20
178.200000
70
0
0
VERTEX
8
Layer 1
10
933.419807
20
178.200000
70
0
0
VERTEX
8
Layer 1
10
921.295451
20
157.200000
70
0
0
VERTEX
8
Layer 1
10
921.295451
20
157.200000
70
0
0
SEQEND
8
Layer 1
0
POLYLINE
8
Layer 1
62
7
70
1
10
0.000000
20
0.000000
66
1
0
VERTEX
8
Layer 1
10
921.295451
20
206.400000
70
0
0
VERTEX
8
Layer 1
10
933.419807
20
185.400000
70
0
0
VERTEX
8
Layer 1
10
909.171095
20
185.400000
70
0
0
VERTEX
8
Layer 1
10
921.295451
20
206.400000
70
0
0
VERTEX
8
Layer 1
10
921.295451
20
206.400000
70
0
0
SEQEND
8
Layer 1
0
POLYLINE
8
Layer 1
62
7
70
1
10
0.000000
20
0.000000
66
1
0
VERTEX
8
Layer 1
10
939.655189
20
189.000000
70
0
0
VERTEX
8
Layer 1
10
927.530834
20
210.000000
70
0
0
VERTEX
8
Layer 1
10
951.779545
20
210.000000
70
0
0
VERTEX
8
Layer 1
10
939.655189
20
189.000000
70
0
0
VERTEX
8
Layer 1
10
939.655189
20
189.000000
70
0
0
SEQEND
8
Layer 1
0
POLYLINE
8
Layer 1
62
7
70
1
10
0.000000
20
0.000000
66
1
0
VERTEX
8
Layer 1
10
902.935712
20
111.000000
70
0
0
VERTEX
8
Layer 1
10
915.060068
20
90.000000
70
0
0
VERTEX
8
Layer 1
10
890.811357
20
90.000000
70
0
0
VERTEX
8
Layer 1
10
902.935712
20
111.000000
70
0
0
VERTEX
8
Layer 1
10
902.935712
20
111.000000
70
0
0
SEQEND
8
Layer 1
0
POLYLINE
8
Layer 1
62
7
70
1
10
0.000000
20
0.000000
66
1
0
VERTEX
8
Layer 1
10
921.295451
20
93.600000
70
0
0
VERTEX
8
Layer 1
10
909.171095
20
114.600000
70
0
0
VERTEX
8
Layer 1
10
933.419807
20
114.600000
70
0
0
VERTEX
8
Layer 1
10
921.295451
20
93.600000
70
0
0
VERTEX
8
Layer 1
10
921.295451
20
93.600000
70
0
0
SEQEND
8
Layer 1
0
POLYLINE
8
Layer 1
62
7
70
1
10
0.000000
20
0.000000
66
1
0
VERTEX
8
Layer 1
10
921.295451
20
142.800000
70
0
0
VERTEX
8
Layer 1
10
933.419807
20
121.800000
70
0
0
VERTEX
8
Layer 1
10
909.171095
20
121.800000
70
0
0
VERTEX
8
Layer 1
10
921.295451
20
142.800000
70
0
0
VERTEX
8
Layer 1
10
921.295451
20
142.800000
70
0
0
SEQEND
8
Layer 1
0
POLYLINE
8
Layer 1
62
7
70
1
10
0.000000
20
0.000000
66
1
0
VERTEX
8
Layer 1
10
939.655189
20
125.400000
70
0
0
VERTEX
8
Layer 1
10
927.530834
20
146.400000
70
0
0
VERTEX
8
Layer 1
10
951.779545
20
146.400000
70
0
0
VERTEX
8
Layer 1
10
939.655189
20
125.400000
70
0
0
VERTEX
8
Layer 1
10
939.655189
20
125.400000
70
0
0
SEQEND
8
Layer 1
0
POLYLINE
8
Layer 1
62
7
70
1
10
0.000000
20
0.000000
66
1
0
VERTEX
8
Layer 1
10
939.655189
20
174.600000
70
0
0
VERTEX
8
Layer 1
10
951.779545
20
153.600000
70
0
0
VERTEX
8
Layer 1
10
927.530834
20
153.600000
70
0
0
VERTEX
8
Layer 1
10
939.655189
20
174.600000
70
0
0
VERTEX
8
Layer 1
10
939.655189
20
174.600000
70
0
0
SEQEND
8
Layer 1
0
POLYLINE
8
Layer 1
62
7
70
1
10
0.000000
20
0.000000
66
1
0
VERTEX
8
Layer 1
10
958.014928
20
157.200000
70
0
0
VERTEX
8
Layer 1
10
945.890572
20
178.200000
70
0
0
VERTEX
8
Layer 1
10
970.139284
20
178.200000
70
0
0
VERTEX
8
Layer 1
10
958.014928
20
157.200000
70
0
0
VERTEX
8
Layer 1
10
958.014928
20
157.200000
70
0
0
SEQEND
8
Layer 1
0
POLYLINE
8
Layer 1
62
7
70
1
10
0.000000
20
0.000000
66
1
0
VERTEX
8
Layer 1
10
958.014928
20
206.400000
70
0
0
VERTEX
8
Layer 1
10
970.139284
20
185.400000
70
0
0
VERTEX
8
Layer 1
10
945.890572
20
185.400000
70
0
0
VERTEX
8
Layer 1
10
958.014928
20
206.400000
70
0
0
VERTEX
8
Layer 1
10
958.014928
20
206.400000
70
0
0
SEQEND
8
Layer 1
0
POLYLINE
8
Layer 1
62
7
70
1
10
0.000000
20
0.000000
66
1
0
VERTEX
8
Layer 1
10
976.374667
20
189.000000
70
0
0
VERTEX
8
Layer 1
10
964.250311
20
210.000000
70
0
0
VERTEX
8
Layer 1
10
988.499022
20
210.000000
70
0
0
VERTEX
8
Layer 1
10
976.374667
20
189.000000
70
0
0
VERTEX
8
Layer 1
10
976.374667
20
189.000000
70
0
0
SEQEND
8
Layer 1
0
POLYLINE
8
Layer 1
62
7
70
1
10
0.000000
20
0.000000
66
1
0
VERTEX
8
Layer 1
10
939.655189
20
111.000000
70
0
0
VERTEX
8
Layer 1
10
951.779545
20
90.000000
70
0
0
VERTEX
8
Layer 1
10
927.530834
20
90.000000
70
0
0
VERTEX
8
Layer 1
10
939.655189
20
111.000000
70
0
0
VERTEX
8
Layer 1
10
939.655189
20
111.000000
70
0
0
SEQEND
8
Layer 1
0
POLYLINE
8
Layer 1
62
7
70
1
10
0.000000
20
0.000000
66
1
0
VERTEX
8
Layer 1
10
958.014928
20
93.600000
70
0
0
VERTEX
8
Layer 1
10
945.890572
20
114.600000
70
0
0
VERTEX
8
Layer 1
10
970.139284
20
114.600000
70
0
0
VERTEX
8
Layer 1
10
958.014928
20
93.600000
70
0
0
VERTEX
8
Layer 1
10
958.014928
20
93.600000
70
0
0
SEQEND
8
Layer 1
0
POLYLINE
8
Layer 1
62
7
70
1
10
0.000000
20
0.000000
66
1
0
VERTEX
8
Layer 1
10
958.014928
20
142.800000
70
0
0
VERTEX
8
Layer 1
10
970.139284
20
121.800000
70
0
0
VERTEX
8
Layer 1
10
945.890572
20
121.800000
70
0
0
VERTEX
8
Layer 1
10
958.014928
20
142.800000
70
0
0
VERTEX
8
Layer 1
10
958.014928
20
142.800000
70
0
0
SEQEND
8
Layer 1
0
POLYLINE
8
Layer 1
62
7
70
1
10
0.000000
20
0.000000
66
1
0
VERTEX
8
Layer 1
10
976.374667
20
125.400000
70
0
0
VERTEX
8
Layer 1
10
964.250311
20
146.400000
70
0
0
VERTEX
8
Layer 1
10
988.499022
20
146.400000
70
0
0
VERTEX
8
Layer 1
10
976.374667
20
125.400000
70
0
0
VERTEX
8
Layer 1
10
976.374667
20
125.400000
70
0
0
SEQEND
8
Layer 1
0
POLYLINE
8
Layer 1
62
7
70
1
10
0.000000
20
0.000000
66
1
0
VERTEX
8
Layer 1
10
976.374667
20
174.600000
70
0
0
VERTEX
8
Layer 1
10
988.499022
20
153.600000
70
0
0
VERTEX
8
Layer 1
10
964.250311
20
153.600000
70
0
0
VERTEX
8
Layer 1
10
976.374667
20
174.600000
70
0
0
VERTEX
8
Layer 1
10
976.374667
20
174.600000
70
0
0
SEQEND
8
Layer 1
0
POLYLINE
8
Layer 1
62
7
70
1
10
0.000000
20
0.000000
66
1
0
VERTEX
8
Layer 1
10
994.734405
20
157.200000
70
0
0
VERTEX
8
Layer 1
10
982.610049
20
178.200000
70
0
0
VERTEX
8
Layer 1
10
1006.858761
20
178.200000
70
0
0
VERTEX
8
Layer 1
10
994.734405
20
157.200000
70
0
0
VERTEX
8
Layer 1
10
994.734405
20
157.200000
70
0
0
SEQEND
8
Layer 1
0
POLYLINE
8
Layer 1
62
7
70
1
10
0.000000
20
0.000000
66
1
0
VERTEX
8
Layer 1
10
994.734405
20
206.400000
70
0
0
VERTEX
8
Layer 1
10
1006.858761
20
185.400000
70
0
0
VERTEX
8
Layer 1
10
982.610049
20
185.400000
70
0
0
VERTEX
8
Layer 1
10
994.734405
20
206.400000
70
0
0
VERTEX
8
Layer 1
10
994.734405
20
206.400000
70
0
0
SEQEND
8
Layer 1
0
POLYLINE
8
Layer 1
62
7
70
1
10
0.000000
20
0.000000
66
1
0
VERTEX
8
Layer 1
10
1013.094144
20
189.000000
70
0
0
VERTEX
8
Layer 1
10
1000.969788
20
210.000000
70
0
0
VERTEX
8
Layer 1
10
1025.218499
20
210.000000
70
0
0
VERTEX
8
Layer 1
10
1013.094144
20
189.000000
70
0
0
VERTEX
8
Layer 1
10
1013.094144
20
189.000000
70
0
0
SEQEND
8
Layer 1
0
POLYLINE
8
Layer 1
62
7
70
1
10
0.000000
20
0.000000
66
1
0
VERTEX
8
Layer 1
10
976.374667
20
111.000000
70
0
0
VERTEX
8
Layer 1
10
988.499022
20
90.000000
70
0
0
VERTEX
8
Layer 1
10
964.250311
20
90.000000
70
0
0
VERTEX
8
Layer 1
10
976.374667
20
111.000000
70
0
0
VERTEX
8
Layer 1
10
976.374667
20
111.000000
70
0
0
SEQEND
8
Layer 1
0
POLYLINE
8
Layer 1
62
7
70
1
10
0.000000
20
0.000000
66
1
0
VERTEX
8
Layer 1
10
994.734405
20
93.600000
70
0
0
VERTEX
8
Layer 1
10
982.610049
20
114.600000
70
0
0
VERTEX
8
Layer 1
10
1006.858761
20
114.600000
70
0
0
VERTEX
8
Layer 1
10
994.734405
20
93.600000
70
0
0
VERTEX
8
Layer 1
10
994.734405
20
93.600000
70
0
0
SEQEND
8
Layer 1
0
POLYLINE
8
Layer 1
62
7
70
1
10
0.000000
20
0.000000
66
1
0
VERTEX
8
Layer 1
10
994.734405
20
142.800000
70
0
0
VERTEX
8
Layer 1
10
1006.858761
20
121.800000
70
0
0
VERTEX
8
Layer 1
10
982.610049
20
121.800000
70
0
0
VERTEX
8
Layer 1
10
994.734405
20
142.800000
70
0
0
VERTEX
8
Layer 1
10
994.734405
20
142.800000
70
0
0
SEQEND
8
Layer 1
0
POLYLINE
8
Layer 1
62
7
70
1
10
0.000000
20
0.000000
66
1
0
VERTEX
8
Layer 1
10
1013.094144
20
125.400000
70
0
0
VERTEX
8
Layer 1
10
1000.969788
20
146.400000
70
0
0
VERTEX
8
Layer 1
10
1025.218499
20
146.400000
70
0
0
VERTEX
8
Layer 1
10
1013.094144
20
125.400000
70
0
0
VERTEX
8
Layer 1
10
1013.094144
20
125.400000
70
0
0
SEQEND
8
Layer 1
0
POLYLINE
8
Layer 1
62
7
70
1
10
0.000000
20
0.000000
66
1
0
VERTEX
8
Layer 1
10
1013.094144
20
174.600000
70
0
0
VERTEX
8
Layer 1
10
1025.218499
20
153.600000
70
0
0
VERTEX
8
Layer 1
10
1000.969788
20
153.600000
70
0
0
VERTEX
8
Layer 1
10
1013.094144
20
174.600000
70
0
0
VERTEX
8
Layer 1
10
1013.094144
20
174.600000
70
0
0
SEQEND
8
Layer 1
0
POLYLINE
8
Layer 1
62
7
70
1
10
0.000000
20
0.000000
66
1
0
VERTEX
8
Layer 1
10
1031.453882
20
157.200000
70
0
0
VERTEX
8
Layer 1
10
1019.329527
20
178.200000
70
0
0
VERTEX
8
Layer 1
10
1043.578238
20
178.200000
70
0
0
VERTEX
8
Layer 1
10
1031.453882
20
157.200000
70
0
0
VERTEX
8
Layer 1
10
1031.453882
20
157.200000
70
0
0
SEQEND
8
Layer 1
0
POLYLINE
8
Layer 1
62
7
70
1
10
0.000000
20
0.000000
66
1
0
VERTEX
8
Layer 1
10
1031.453882
20
206.400000
70
0
0
VERTEX
8
Layer 1
10
1043.578238
20
185.400000
70
0
0
VERTEX
8
Layer 1
10
1019.329527
20
185.400000
70
0
0
VERTEX
8
Layer 1
10
1031.453882
20
206.400000
70
0
0
VERTEX
8
Layer 1
10
1031.453882
20
206.400000
70
0
0
SEQEND
8
Layer 1
0
POLYLINE
8
Layer 1
62
7
70
1
10
0.000000
20
0.000000
66
1
0
VERTEX
8
Layer 1
10
1013.094144
20
111.000000
70
0
0
VERTEX
8
Layer 1
10
1025.218499
20
90.000000
70
0
0
VERTEX
8
Layer 1
10
1000.969788
20
90.000000
70
0
0
VERTEX
8
Layer 1
10
1013.094144
20
111.000000
70
0
0
VERTEX
8
Layer 1
10
1013.094144
20
111.000000
70
0
0
SEQEND
8
Layer 1
0
POLYLINE
8
Layer 1
62
7
70
1
10
0.000000
20
0.000000
66
1
0
VERTEX
8
Layer 1
10
1031.453882
20
93.600000
70
0
0
VERTEX
8
Layer 1
10
1019.329527
20
114.600000
70
0
0
VERTEX
8
Layer 1
10
1043.578238
20
114.600000
70
0
0
VERTEX
8
Layer 1
10
1031.453882
20
93.600000
70
0
0
VERTEX
8
Layer 1
10
1031.453882
20
93.600000
70
0
0
SEQEND
8
Layer 1
0
POLYLINE
8
Layer 1
62
7
70
1
10
0.000000
20
0.000000
66
1
0
VERTEX
8
Layer 1
10
1031.453882
20
142.800000
70
0
0
VERTEX
8
Layer 1
10
1043.578238
20
121.800000
70
0
0
VERTEX
8
Layer 1
10
1019.329527
20
121.800000
70
0
0
VERTEX
8
Layer 1
10
1031.453882
20
142.800000
70
0
0
VERTEX
8
Layer 1
10
1031.453882
20
142.800000
70
0
0
SEQEND
8
Layer 1
0
POLYLINE
8
Layer 1
62
7
70
1
10
0.000000
20
0.000000
66
1
0
VERTEX
8
Layer 1
10
151.500026
20
121.800000
70
0
0
VERTEX
8
Layer 1
10
151.500026
20
140.524787
70
0
0
VERTEX
8
Layer 1
10
162.310787
20
121.800000
70
0
0
VERTEX
8
Layer 1
10
151.500026
20
121.800000
70
0
0
VERTEX
8
Layer 1
10
151.500026
20
121.800000
70
0
0
SEQEND
8
Layer 1
0
POLYLINE
8
Layer 1
62
7
70
1
10
0.000000
20
0.000000
66
1
0
VERTEX
8
Layer 1
10
151.500026
20
178.200000
70
0
0
VERTEX
8
Layer 1
10
162.310787
20
178.200000
70
0
0
VERTEX
8
Layer 1
10
151.500026
20
159.475213
70
0
0
VERTEX
8
Layer 1
10
151.500026
20
178.200000
70
0
0
VERTEX
8
Layer 1
10
151.500026
20
178.200000
70
0
0
SEQEND
8
Layer 1
0
POLYLINE
8
Layer 1
62
7
70
1
10
0.000000
20
0.000000
66
1
0
VERTEX
8
Layer 1
10
151.500026
20
114.600000
70
0
0
VERTEX
8
Layer 1
10
162.310787
20
114.600000
70
0
0
VERTEX
8
Layer 1
10
151.500026
20
95.875213
70
0
0
VERTEX
8
Layer 1
10
151.500026
20
114.600000
70
0
0
VERTEX
8
Layer 1
10
151.500026
20
114.600000
70
0
0
SEQEND
8
Layer 1
0
POLYLINE
8
Layer 1
62
7
70
1
10
0.000000
20
0.000000
66
1
0
VERTEX
8
Layer 1
10
1037.689265
20
153.600000
70
0
0
VERTEX
8
Layer 1
10
1048.500026
20
172.324787
70
0
0
VERTEX
8
Layer 1
10
1048.500026
20
153.600000
70
0
0
VERTEX
8
Layer 1
10
1037.689265
20
153.600000
70
0
0
VERTEX
8
Layer 1
10
1037.689265
20
153.600000
70
0
0
SEQEND
8
Layer 1
0
POLYLINE
8
Layer 1
62
7
70
1
10
0.000000
20
0.000000
66
1
0
VERTEX
8
Layer 1
10
1037.689265
20
146.400000
70
0
0
VERTEX
8
Layer 1
10
1048.500026
20
146.400000
70
0
0
VERTEX
8
Layer 1
10
1048.500026
20
127.675213
70
0
0
VERTEX
8
Layer 1
10
1037.689265
20
146.400000
70
0
0
VERTEX
8
Layer 1
10
1037.689265
20
146.400000
70
0
0
SEQEND
8
Layer 1
0
POLYLINE
8
Layer 1
62
7
70
1
10
0.000000
20
0.000000
66
1
0
VERTEX
8
Layer 1
10
1037.689265
20
210.000000
70
0
0
VERTEX
8
Layer 1
10
1048.500026
20
210.000000
70
0
0
VERTEX
8
Layer 1
10
1048.500026
20
191.275213
70
0
0
VERTEX
8
Layer 1
10
1037.689265
20
210.000000
70
0
0
VERTEX
8
Layer 1
10
1037.689265
20
210.000000
70
0
0
SEQEND
8
Layer 1
0
POLYLINE
8
Layer 1
62
7
70
1
10
0.000000
20
0.000000
66
1
0
VERTEX
8
Layer 1
10
1037.689265
20
90.000000
70
0
0
VERTEX
8
Layer 1
10
1048.500026
20
108.724787
70
0
0
VERTEX
8
Layer 1
10
1048.500026
20
90.000000
70
0
0
VERTEX
8
Layer 1
10
1037.689265
20
90.000000
70
0
0
VERTEX
8
Layer 1
10
1037.689265
20
90.000000
70
0
0
SEQEND
8
Layer 1
0
POLYLINE
8
Layer 1
62
7
70
1
10
0.000000
20
0.000000
66
1
0
VERTEX
8
Layer 1
10
151.500026
20
185.400000
70
0
0
VERTEX
8
Layer 1
10
151.500026
20
204.124787
70
0
0
VERTEX
8
Layer 1
10
162.310787
20
185.400000
70
0
0
VERTEX
8
Layer 1
10
151.500026
20
185.400000
70
0
0
VERTEX
8
Layer 1
10
151.500026
20
185.400000
70
0
0
SEQEND
8
Layer 1
0
POLYLINE
8
Layer 1
62
7
70
1
10
0.000000
20
0.000000
66
1
0
VERTEX
8
Layer 1
10
147.500026
20
65.000000
70
0
0
VERTEX
8
Layer 1
10
1052.500026
20
65.000000
70
0
0
VERTEX
8
Layer 1
10
1052.500026
20
235.000000
70
0
0
VERTEX
8
Layer 1
10
147.500026
20
235.000000
70
0
0
VERTEX
8
Layer 1
10
147.500026
20
65.000000
70
0
0
VERTEX
8
Layer 1
10
147.500026
20
65.000000
70
0
0
SEQEND
8
Layer 1
 0 
ENDSEC
 0 
EOF