  0
SECTION
  2
HEADER
  9
$ACADVER
  1
AC1014
  9
$HANDSEED
  5
FFFF
  9
$INSUNITS
 70
     4
  9
$MEASUREMENT
 70
     1
  0
ENDSEC
  0
SECTION
  2
TABLES
  0
TABLE
  2
VPORT
  5
8
330
0
100
AcDbSymbolTable
 70
     4
  0
VPORT
  5
2E
330
8
100
AcDbSymbolTableRecord
100
AcDbViewportTableRecord
  2
*ACTIVE
 70
     0
 10
0.0
 20
0.0
 11
1.0
 21
1.0
 12
210.0
 22
148.5
 13
0.0
 23
0.0
 14
10.0
 24
10.0
 15
10.0
 25
10.0
 16
0.0
 26
0.0
 36
1.0
 17
0.0
 27
0.0
 37
0.0
 40
341.0
 41
1.24
 42
50.0
 43
0.0
 44
0.0
 50
0.0
 51
0.0
 71
     0
 72
   100
 73
     1
 74
     3
 75
     0
 76
     0
 77
     0
 78
     0
  0
ENDTAB
  0
TABLE
  2
LTYPE
  5
5
330
0
100
AcDbSymbolTable
 70
     1
  0
LTYPE
  5
14
330
5
100
AcDbSymbolTableRecord
100
AcDbLinetypeTableRecord
  2
BYBLOCK
 70
     0
  3

 72
    65
 73
     0
 40
0.0
  0
LTYPE
  5
15
330
5
100
AcDbSymbolTableRecord
100
AcDbLinetypeTableRecord
  2
BYLAYER
 70
     0
  3

 72
    65
 73
     0
 40
0.0
  0
LTYPE
  5
16
330
5
100
AcDbSymbolTableRecord
100
AcDbLinetypeTableRecord
  2
CONTINUOUS
 70
     0
  3
Solid line
 72
    65
 73
     0
 40
0.0
  0
ENDTAB
  0
TABLE
  2
LAYER
  5
2
100
AcDbSymbolTable
 70
1
  0
LAYER
  5
50
100
AcDbSymbolTableRecord
100
AcDbLayerTableRecord
  2
0
 70
0
  6
CONTINUOUS
  0
ENDTAB
  0
TABLE
  2
STYLE
  5
3
330
0
100
AcDbSymbolTable
 70
     1
  0
STYLE
  5
11
330
3
100
AcDbSymbolTableRecord
100
AcDbTextStyleTableRecord
  2
STANDARD
 70
     0
 40
0.0
 41
1.0
 50
0.0
 71
     0
 42
2.5
  3
txt
  4

  0
ENDTAB
  0
TABLE
  2
VIEW
  5
6
330
0
100
AcDbSymbolTable
 70
     0
  0
ENDTAB
  0
TABLE
  2
UCS
  5
7
330
0
100
AcDbSymbolTable
 70
     0
  0
ENDTAB
  0
TABLE
  2
APPID
  5
9
330
0
100
AcDbSymbolTable
 70
     2
  0
APPID
  5
12
330
9
100
AcDbSymbolTableRecord
100
AcDbRegAppTableRecord
  2
ACAD
 70
     0
  0
ENDTAB
  0
TABLE
  2
DIMSTYLE
  5
A
330
0
100
AcDbSymbolTable
 70
     1
  0
DIMSTYLE
105
27
330
A
100
AcDbSymbolTableRecord
100
AcDbDimStyleTableRecord
  2
ISO-25
 70
     0
  3

  4

  5

  6

  7

 40
1.0
 41
2.5
 42
0.625
 43
3.75
 44
1.25
 45
0.0
 46
0.0
 47
0.0
 48
0.0
140
2.5
141
2.5
142
0.0
143
0.03937007874016
144
1.0
145
0.0
146
1.0
147
0.625
 71
     0
 72
     0
 73
     0
 74
     0
 75
     0
 76
     0
 77
     1
 78
     8
170
     0
171
     3
172
     1
173
     0
174
     0
175
     0
176
     0
177
     0
178
     0
270
     2
271
     2
272
     2
273
     2
274
     3
340
11
275
     0
280
     0
281
     0
282
     0
283
     0
284
     8
285
     0
286
     0
287
     3
288
     0
  0
ENDTAB
  0
TABLE
  2
BLOCK_RECORD
  5
1
330
0
100
AcDbSymbolTable
 70
     1
  0
BLOCK_RECORD
  5
1F
330
1
100
AcDbSymbolTableRecord
100
AcDbBlockTableRecord
  2
*MODEL_SPACE
  0
BLOCK_RECORD
  5
1B
330
1
100
AcDbSymbolTableRecord
100
AcDbBlockTableRecord
  2
*PAPER_SPACE
  0
ENDTAB
  0
ENDSEC
  0
SECTION
  2
BLOCKS
  0
BLOCK
  5
20
330
1F
100
AcDbEntity
  8
0
100
AcDbBlockBegin
  2
*MODEL_SPACE
 70
     0
 10
0.0
 20
0.0
 30
0.0
  3
*MODEL_SPACE
  1

  0
ENDBLK
  5
21
330
1F
100
AcDbEntity
  8
0
100
AcDbBlockEnd
  0
BLOCK
  5
1C
330
1B
100
AcDbEntity
 67
     1
  8
0
100
AcDbBlockBegin
  2
*PAPER_SPACE
  1

  0
ENDBLK
  5
1D
330
1B
100
AcDbEntity
 67
     1
  8
0
100
AcDbBlockEnd
  0
ENDSEC
  0
SECTION
  2
ENTITIES
  0
LWPOLYLINE
  5
100
100
AcDbEntity
  8
0
 62
7
100
AcDbPolyline
 90
4
 70
1
 10
168.546170
 20
189.000000
 30
0.0
 10
156.421814
 20
210.000000
 30
0.0
 10
180.670526
 20
210.000000
 30
0.0
 10
168.546170
 20
189.000000
 30
0.0
  0
LWPOLYLINE
  5
101
100
AcDbEntity
  8
0
 62
7
100
AcDbPolyline
 90
4
 70
1
 10
168.546170
 20
125.400000
 30
0.0
 10
156.421814
 20
146.400000
 30
0.0
 10
180.670526
 20
146.400000
 30
0.0
 10
168.546170
 20
125.400000
 30
0.0
  0
LWPOLYLINE
  5
102
100
AcDbEntity
  8
0
 62
7
100
AcDbPolyline
 90
4
 70
1
 10
168.546170
 20
174.600000
 30
0.0
 10
180.670526
 20
153.600000
 30
0.0
 10
156.421814
 20
153.600000
 30
0.0
 10
168.546170
 20
174.600000
 30
0.0
  0
LWPOLYLINE
  5
103
100
AcDbEntity
  8
0
 62
7
100
AcDbPolyline
 90
4
 70
1
 10
186.905908
 20
157.200000
 30
0.0
 10
174.781553
 20
178.200000
 30
0.0
 10
199.030264
 20
178.200000
 30
0.0
 10
186.905908
 20
157.200000
 30
0.0
  0
LWPOLYLINE
  5
104
100
AcDbEntity
  8
0
 62
7
100
AcDbPolyline
 90
4
 70
1
 10
186.905908
 20
206.400000
 30
0.0
 10
199.030264
 20
185.400000
 30
0.0
 10
174.781553
 20
185.400000
 30
0.0
 10
186.905908
 20
206.400000
 30
0.0
  0
LWPOLYLINE
  5
105
100
AcDbEntity
  8
0
 62
7
100
AcDbPolyline
 90
4
 70
1
 10
205.265647
 20
189.000000
 30
0.0
 10
193.141291
 20
210.000000
 30
0.0
 10
217.390003
 20
210.000000
 30
0.0
 10
205.265647
 20
189.000000
 30
0.0
  0
LWPOLYLINE
  5
106
100
AcDbEntity
  8
0
 62
7
100
AcDbPolyline
 90
4
 70
1
 10
168.546170
 20
111.000000
 30
0.0
 10
180.670526
 20
90.000000
 30
0.0
 10
156.421814
 20
90.000000
 30
0.0
 10
168.546170
 20
111.000000
 30
0.0
  0
LWPOLYLINE
  5
107
100
AcDbEntity
  8
0
 62
7
100
AcDbPolyline
 90
4
 70
1
 10
186.905908
 20
93.600000
 30
0.0
 10
174.781553
 20
114.600000
 30
0.0
 10
199.030264
 20
114.600000
 30
0.0
 10
186.905908
 20
93.600000
 30
0.0
  0
LWPOLYLINE
  5
108
100
AcDbEntity
  8
0
 62
7
100
AcDbPolyline
 90
4
 70
1
 10
186.905908
 20
142.800000
 30
0.0
 10
199.030264
 20
121.800000
 30
0.0
 10
174.781553
 20
121.800000
 30
0.0
 10
186.905908
 20
142.800000
 30
0.0
  0
LWPOLYLINE
  5
109
100
AcDbEntity
  8
0
 62
7
100
AcDbPolyline
 90
4
 70
1
 10
205.265647
 20
125.400000
 30
0.0
 10
193.141291
 20
146.400000
 30
0.0
 10
217.390003
 20
146.400000
 30
0.0
 10
205.265647
 20
125.400000
 30
0.0
  0
LWPOLYLINE
  5
10a
100
AcDbEntity
  8
0
 62
7
100
AcDbPolyline
 90
4
 70
1
 10
205.265647
 20
174.600000
 30
0.0
 10
217.390003
 20
153.600000
 30
0.0
 10
193.141291
 20
153.600000
 30
0.0
 10
205.265647
 20
174.600000
 30
0.0
  0
LWPOLYLINE
  5
10b
100
AcDbEntity
  8
0
 62
7
100
AcDbPolyline
 90
4
 70
1
 10
223.625386
 20
157.200000
 30
0.0
 10
211.501030
 20
178.200000
 30
0.0
 10
235.749741
 20
178.200000
 30
0.0
 10
223.625386
 20
157.200000
 30
0.0
  0
LWPOLYLINE
  5
10c
100
AcDbEntity
  8
0
 62
7
100
AcDbPolyline
 90
4
 70
1
 10
223.625386
 20
206.400000
 30
0.0
 10
235.749741
 20
185.400000
 30
0.0
 10
211.501030
 20
185.400000
 30
0.0
 10
223.625386
 20
206.400000
 30
0.0
  0
LWPOLYLINE
  5
10d
100
AcDbEntity
  8
0
 62
7
100
AcDbPolyline
 90
4
 70
1
 10
241.985124
 20
189.000000
 30
0.0
 10
229.860769
 20
210.000000
 30
0.0
 10
254.109480
 20
210.000000
 30
0.0
 10
241.985124
 20
189.000000
 30
0.0
  0
LWPOLYLINE
  5
10e
100
AcDbEntity
  8
0
 62
7
100
AcDbPolyline
 90
4
 70
1
 10
205.265647
 20
111.000000
 30
0.0
 10
217.390003
 20
90.000000
 30
0.0
 10
193.141291
 20
90.000000
 30
0.0
 10
205.265647
 20
111.000000
 30
0.0
  0
LWPOLYLINE
  5
10f
100
AcDbEntity
  8
0
 62
7
100
AcDbPolyline
 90
4
 70
1
 10
223.625386
 20
93.600000
 30
0.0
 10
211.501030
 20
114.600000
 30
0.0
 10
235.749741
 20
114.600000
 30
0.0
 10
223.625386
 20
93.600000
 30
0.0
  0
LWPOLYLINE
  5
110
100
AcDbEntity
  8
0
 62
7
100
AcDbPolyline
 90
4
 70
1
 10
223.625386
 20
142.800000
 30
0.0
 10
235.749741
 20
121.800000
 30
0.0
 10
211.501030
 20
121.800000
 30
0.0
 10
223.625386
 20
142.800000
 30
0.0
  0
LWPOLYLINE
  5
111
100
AcDbEntity
  8
0
 62
7
100
AcDbPolyline
 90
4
 70
1
 10
241.985124
 20
125.400000
 30
0.0
 10
229.860769
 20
146.400000
 30
0.0
 10
254.109480
 20
146.400000
 30
0.0
 10
241.985124
 20
125.400000
 30
0.0
  0
LWPOLYLINE
  5
112
100
AcDbEntity
  8
0
 62
7
100
AcDbPolyline
 90
4
 70
1
 10
241.985124
 20
174.600000
 30
0.0
 10
254.109480
 20
153.600000
 30
0.0
 10
229.860769
 20
153.600000
 30
0.0
 10
241.985124
 20
174.600000
 30
0.0
  0
LWPOLYLINE
  5
113
100
AcDbEntity
  8
0
 62
7
100
AcDbPolyline
 90
4
 70
1
 10
260.344863
 20
157.200000
 30
0.0
 10
248.220507
 20
178.200000
 30
0.0
 10
272.469218
 20
178.200000
 30
0.0
 10
260.344863
 20
157.200000
 30
0.0
  0
LWPOLYLINE
  5
114
100
AcDbEntity
  8
0
 62
7
100
AcDbPolyline
 90
4
 70
1
 10
260.344863
 20
206.400000
 30
0.0
 10
272.469218
 20
185.400000
 30
0.0
 10
248.220507
 20
185.400000
 30
0.0
 10
260.344863
 20
206.400000
 30
0.0
  0
LWPOLYLINE
  5
115
100
AcDbEntity
  8
0
 62
7
100
AcDbPolyline
 90
4
 70
1
 10
278.704601
 20
189.000000
 30
0.0
 10
266.580246
 20
210.000000
 30
0.0
 10
290.828957
 20
210.000000
 30
0.0
 10
278.704601
 20
189.000000
 30
0.0
  0
LWPOLYLINE
  5
116
100
AcDbEntity
  8
0
 62
7
100
AcDbPolyline
 90
4
 70
1
 10
241.985124
 20
111.000000
 30
0.0
 10
254.109480
 20
90.000000
 30
0.0
 10
229.860769
 20
90.000000
 30
0.0
 10
241.985124
 20
111.000000
 30
0.0
  0
LWPOLYLINE
  5
117
100
AcDbEntity
  8
0
 62
7
100
AcDbPolyline
 90
4
 70
1
 10
260.344863
 20
93.600000
 30
0.0
 10
248.220507
 20
114.600000
 30
0.0
 10
272.469218
 20
114.600000
 30
0.0
 10
260.344863
 20
93.600000
 30
0.0
  0
LWPOLYLINE
  5
118
100
AcDbEntity
  8
0
 62
7
100
AcDbPolyline
 90
4
 70
1
 10
260.344863
 20
142.800000
 30
0.0
 10
272.469218
 20
121.800000
 30
0.0
 10
248.220507
 20
121.800000
 30
0.0
 10
260.344863
 20
142.800000
 30
0.0
  0
LWPOLYLINE
  5
119
100
AcDbEntity
  8
0
 62
7
100
AcDbPolyline
 90
4
 70
1
 10
278.704601
 20
125.400000
 30
0.0
 10
266.580246
 20
146.400000
 30
0.0
 10
290.828957
 20
146.400000
 30
0.0
 10
278.704601
 20
125.400000
 30
0.0
  0
LWPOLYLINE
  5
11a
100
AcDbEntity
  8
0
 62
7
100
AcDbPolyline
 90
4
 70
1
 10
278.704601
 20
174.600000
 30
0.0
 10
290.828957
 20
153.600000
 30
0.0
 10
266.580246
 20
153.600000
 30
0.0
 10
278.704601
 20
174.600000
 30
0.0
  0
LWPOLYLINE
  5
11b
100
AcDbEntity
  8
0
 62
7
100
AcDbPolyline
 90
4
 70
1
 10
297.064340
 20
157.200000
 30
0.0
 10
284.939984
 20
178.200000
 30
0.0
 10
309.188695
 20
178.200000
 30
0.0
 10
297.064340
 20
157.200000
 30
0.0
  0
LWPOLYLINE
  5
11c
100
AcDbEntity
  8
0
 62
7
100
AcDbPolyline
 90
4
 70
1
 10
297.064340
 20
206.400000
 30
0.0
 10
309.188695
 20
185.400000
 30
0.0
 10
284.939984
 20
185.400000
 30
0.0
 10
297.064340
 20
206.400000
 30
0.0
  0
LWPOLYLINE
  5
11d
100
AcDbEntity
  8
0
 62
7
100
AcDbPolyline
 90
4
 70
1
 10
315.424078
 20
189.000000
 30
0.0
 10
303.299723
 20
210.000000
 30
0.0
 10
327.548434
 20
210.000000
 30
0.0
 10
315.424078
 20
189.000000
 30
0.0
  0
LWPOLYLINE
  5
11e
100
AcDbEntity
  8
0
 62
7
100
AcDbPolyline
 90
4
 70
1
 10
278.704601
 20
111.000000
 30
0.0
 10
290.828957
 20
90.000000
 30
0.0
 10
266.580246
 20
90.000000
 30
0.0
 10
278.704601
 20
111.000000
 30
0.0
  0
LWPOLYLINE
  5
11f
100
AcDbEntity
  8
0
 62
7
100
AcDbPolyline
 90
4
 70
1
 10
297.064340
 20
93.600000
 30
0.0
 10
284.939984
 20
114.600000
 30
0.0
 10
309.188695
 20
114.600000
 30
0.0
 10
297.064340
 20
93.600000
 30
0.0
  0
LWPOLYLINE
  5
120
100
AcDbEntity
  8
0
 62
7
100
AcDbPolyline
 90
4
 70
1
 10
297.064340
 20
142.800000
 30
0.0
 10
309.188695
 20
121.800000
 30
0.0
 10
284.939984
 20
121.800000
 30
0.0
 10
297.064340
 20
142.800000
 30
0.0
  0
LWPOLYLINE
  5
121
100
AcDbEntity
  8
0
 62
7
100
AcDbPolyline
 90
4
 70
1
 10
315.424078
 20
125.400000
 30
0.0
 10
303.299723
 20
146.400000
 30
0.0
 10
327.548434
 20
146.400000
 30
0.0
 10
315.424078
 20
125.400000
 30
0.0
  0
LWPOLYLINE
  5
122
100
AcDbEntity
  8
0
 62
7
100
AcDbPolyline
 90
4
 70
1
 10
315.424078
 20
174.600000
 30
0.0
 10
327.548434
 20
153.600000
 30
0.0
 10
303.299723
 20
153.600000
 30
0.0
 10
315.424078
 20
174.600000
 30
0.0
  0
LWPOLYLINE
  5
123
100
AcDbEntity
  8
0
 62
7
100
AcDbPolyline
 90
4
 70
1
 10
333.783817
 20
157.200000
 30
0.0
 10
321.659461
 20
178.200000
 30
0.0
 10
345.908173
 20
178.200000
 30
0.0
 10
333.783817
 20
157.200000
 30
0.0
  0
LWPOLYLINE
  5
124
100
AcDbEntity
  8
0
 62
7
100
AcDbPolyline
 90
4
 70
1
 10
333.783817
 20
206.400000
 30
0.0
 10
345.908173
 20
185.400000
 30
0.0
 10
321.659461
 20
185.400000
 30
0.0
 10
333.783817
 20
206.400000
 30
0.0
  0
LWPOLYLINE
  5
125
100
AcDbEntity
  8
0
 62
7
100
AcDbPolyline
 90
4
 70
1
 10
352.143556
 20
189.000000
 30
0.0
 10
340.019200
 20
210.000000
 30
0.0
 10
364.267911
 20
210.000000
 30
0.0
 10
352.143556
 20
189.000000
 30
0.0
  0
LWPOLYLINE
  5
126
100
AcDbEntity
  8
0
 62
7
100
AcDbPolyline
 90
4
 70
1
 10
315.424078
 20
111.000000
 30
0.0
 10
327.548434
 20
90.000000
 30
0.0
 10
303.299723
 20
90.000000
 30
0.0
 10
315.424078
 20
111.000000
 30
0.0
  0
LWPOLYLINE
  5
127
100
AcDbEntity
  8
0
 62
7
100
AcDbPolyline
 90
4
 70
1
 10
333.783817
 20
93.600000
 30
0.0
 10
321.659461
 20
114.600000
 30
0.0
 10
345.908173
 20
114.600000
 30
0.0
 10
333.783817
 20
93.600000
 30
0.0
  0
LWPOLYLINE
  5
128
100
AcDbEntity
  8
0
 62
7
100
AcDbPolyline
 90
4
 70
1
 10
333.783817
 20
142.800000
 30
0.0
 10
345.908173
 20
121.800000
 30
0.0
 10
321.659461
 20
121.800000
 30
0.0
 10
333.783817
 20
142.800000
 30
0.0
  0
LWPOLYLINE
  5
129
100
AcDbEntity
  8
0
 62
7
100
AcDbPolyline
 90
4
 70
1
 10
352.143556
 20
125.400000
 30
0.0
 10
340.019200
 20
146.400000
 30
0.0
 10
364.267911
 20
146.400000
 30
0.0
 10
352.143556
 20
125.400000
 30
0.0
  0
LWPOLYLINE
  5
12a
100
AcDbEntity
  8
0
 62
7
100
AcDbPolyline
 90
4
 70
1
 10
352.143556
 20
174.600000
 30
0.0
 10
364.267911
 20
153.600000
 30
0.0
 10
340.019200
 20
153.600000
 30
0.0
 10
352.143556
 20
174.600000
 30
0.0
  0
LWPOLYLINE
  5
12b
100
AcDbEntity
  8
0
 62
7
100
AcDbPolyline
 90
4
 70
1
 10
370.503294
 20
157.200000
 30
0.0
 10
358.378938
 20
178.200000
 30
0.0
 10
382.627650
 20
178.200000
 30
0.0
 10
370.503294
 20
157.200000
 30
0.0
  0
LWPOLYLINE
  5
12c
100
AcDbEntity
  8
0
 62
7
100
AcDbPolyline
 90
4
 70
1
 10
370.503294
 20
206.400000
 30
0.0
 10
382.627650
 20
185.400000
 30
0.0
 10
358.378938
 20
185.400000
 30
0.0
 10
370.503294
 20
206.400000
 30
0.0
  0
LWPOLYLINE
  5
12d
100
AcDbEntity
  8
0
 62
7
100
AcDbPolyline
 90
4
 70
1
 10
388.863033
 20
189.000000
 30
0.0
 10
376.738677
 20
210.000000
 30
0.0
 10
400.987388
 20
210.000000
 30
0.0
 10
388.863033
 20
189.000000
 30
0.0
  0
LWPOLYLINE
  5
12e
100
AcDbEntity
  8
0
 62
7
100
AcDbPolyline
 90
4
 70
1
 10
352.143556
 20
111.000000
 30
0.0
 10
364.267911
 20
90.000000
 30
0.0
 10
340.019200
 20
90.000000
 30
0.0
 10
352.143556
 20
111.000000
 30
0.0
  0
LWPOLYLINE
  5
12f
100
AcDbEntity
  8
0
 62
7
100
AcDbPolyline
 90
4
 70
1
 10
370.503294
 20
93.600000
 30
0.0
 10
358.378938
 20
114.600000
 30
0.0
 10
382.627650
 20
114.600000
 30
0.0
 10
370.503294
 20
93.600000
 30
0.0
  0
LWPOLYLINE
  5
130
100
AcDbEntity
  8
0
 62
7
100
AcDbPolyline
 90
4
 70
1
 10
370.503294
 20
142.800000
 30
0.0
 10
382.627650
 20
121.800000
 30
0.0
 10
358.378938
 20
121.800000
 30
0.0
 10
370.503294
 20
142.800000
 30
0.0
  0
LWPOLYLINE
  5
131
100
AcDbEntity
  8
0
 62
7
100
AcDbPolyline
 90
4
 70
1
 10
388.863033
 20
125.400000
 30
0.0
 10
376.738677
 20
146.400000
 30
0.0
 10
400.987388
 20
146.400000
 30
0.0
 10
388.863033
 20
125.400000
 30
0.0
  0
LWPOLYLINE
  5
132
100
AcDbEntity
  8
0
 62
7
100
AcDbPolyline
 90
4
 70
1
 10
388.863033
 20
174.600000
 30
0.0
 10
400.987388
 20
153.600000
 30
0.0
 10
376.738677
 20
153.600000
 30
0.0
 10
388.863033
 20
174.600000
 30
0.0
  0
LWPOLYLINE
  5
133
100
AcDbEntity
  8
0
 62
7
100
AcDbPolyline
 90
4
 70
1
 10
407.222771
 20
157.200000
 30
0.0
 10
395.098416
 20
178.200000
 30
0.0
 10
419.347127
 20
178.200000
 30
0.0
 10
407.222771
 20
157.200000
 30
0.0
  0
LWPOLYLINE
  5
134
100
AcDbEntity
  8
0
 62
7
100
AcDbPolyline
 90
4
 70
1
 10
407.222771
 20
206.400000
 30
0.0
 10
419.347127
 20
185.400000
 30
0.0
 10
395.098416
 20
185.400000
 30
0.0
 10
407.222771
 20
206.400000
 30
0.0
  0
LWPOLYLINE
  5
135
100
AcDbEntity
  8
0
 62
7
100
AcDbPolyline
 90
4
 70
1
 10
425.582510
 20
189.000000
 30
0.0
 10
413.458154
 20
210.000000
 30
0.0
 10
437.706865
 20
210.000000
 30
0.0
 10
425.582510
 20
189.000000
 30
0.0
  0
LWPOLYLINE
  5
136
100
AcDbEntity
  8
0
 62
7
100
AcDbPolyline
 90
4
 70
1
 10
388.863033
 20
111.000000
 30
0.0
 10
400.987388
 20
90.000000
 30
0.0
 10
376.738677
 20
90.000000
 30
0.0
 10
388.863033
 20
111.000000
 30
0.0
  0
LWPOLYLINE
  5
137
100
AcDbEntity
  8
0
 62
7
100
AcDbPolyline
 90
4
 70
1
 10
407.222771
 20
93.600000
 30
0.0
 10
395.098416
 20
114.600000
 30
0.0
 10
419.347127
 20
114.600000
 30
0.0
 10
407.222771
 20
93.600000
 30
0.0
  0
LWPOLYLINE
  5
138
100
AcDbEntity
  8
0
 62
7
100
AcDbPolyline
 90
4
 70
1
 10
407.222771
 20
142.800000
 30
0.0
 10
419.347127
 20
121.800000
 30
0.0
 10
395.098416
 20
121.800000
 30
0.0
 10
407.222771
 20
142.800000
 30
0.0
  0
LWPOLYLINE
  5
139
100
AcDbEntity
  8
0
 62
7
100
AcDbPolyline
 90
4
 70
1
 10
425.582510
 20
125.400000
 30
0.0
 10
413.458154
 20
146.400000
 30
0.0
 10
437.706865
 20
146.400000
 30
0.0
 10
425.582510
 20
125.400000
 30
0.0
  0
LWPOLYLINE
  5
13a
100
AcDbEntity
  8
0
 62
7
100
AcDbPolyline
 90
4
 70
1
 10
425.582510
 20
174.600000
 30
0.0
 10
437.706865
 20
153.600000
 30
0.0
 10
413.458154
 20
153.600000
 30
0.0
 10
425.582510
 20
174.600000
 30
0.0
  0
LWPOLYLINE
  5
13b
100
AcDbEntity
  8
0
 62
7
100
AcDbPolyline
 90
4
 70
1
 10
443.942248
 20
157.200000
 30
0.0
 10
431.817893
 20
178.200000
 30
0.0
 10
456.066604
 20
178.200000
 30
0.0
 10
443.942248
 20
157.200000
 30
0.0
  0
LWPOLYLINE
  5
13c
100
AcDbEntity
  8
0
 62
7
100
AcDbPolyline
 90
4
 70
1
 10
443.942248
 20
206.400000
 30
0.0
 10
456.066604
 20
185.400000
 30
0.0
 10
431.817893
 20
185.400000
 30
0.0
 10
443.942248
 20
206.400000
 30
0.0
  0
LWPOLYLINE
  5
13d
100
AcDbEntity
  8
0
 62
7
100
AcDbPolyline
 90
4
 70
1
 10
462.301987
 20
189.000000
 30
0.0
 10
450.177631
 20
210.000000
 30
0.0
 10
474.426343
 20
210.000000
 30
0.0
 10
462.301987
 20
189.000000
 30
0.0
  0
LWPOLYLINE
  5
13e
100
AcDbEntity
  8
0
 62
7
100
AcDbPolyline
 90
4
 70
1
 10
425.582510
 20
111.000000
 30
0.0
 10
437.706865
 20
90.000000
 30
0.0
 10
413.458154
 20
90.000000
 30
0.0
 10
425.582510
 20
111.000000
 30
0.0
  0
LWPOLYLINE
  5
13f
100
AcDbEntity
  8
0
 62
7
100
AcDbPolyline
 90
4
 70
1
 10
443.942248
 20
93.600000
 30
0.0
 10
431.817893
 20
114.600000
 30
0.0
 10
456.066604
 20
114.600000
 30
0.0
 10
443.942248
 20
93.600000
 30
0.0
  0
LWPOLYLINE
  5
140
100
AcDbEntity
  8
0
 62
7
100
AcDbPolyline
 90
4
 70
1
 10
443.942248
 20
142.800000
 30
0.0
 10
456.066604
 20
121.800000
 30
0.0
 10
431.817893
 20
121.800000
 30
0.0
 10
443.942248
 20
142.800000
 30
0.0
  0
LWPOLYLINE
  5
141
100
AcDbEntity
  8
0
 62
7
100
AcDbPolyline
 90
4
 70
1
 10
462.301987
 20
125.400000
 30
0.0
 10
450.177631
 20
146.400000
 30
0.0
 10
474.426343
 20
146.400000
 30
0.0
 10
462.301987
 20
125.400000
 30
0.0
  0
LWPOLYLINE
  5
142
100
AcDbEntity
  8
0
 62
7
100
AcDbPolyline
 90
4
 70
1
 10
462.301987
 20
174.600000
 30
0.0
 10
474.426343
 20
153.600000
 30
0.0
 10
450.177631
 20
153.600000
 30
0.0
 10
462.301987
 20
174.600000
 30
0.0
  0
LWPOLYLINE
  5
143
100
AcDbEntity
  8
0
 62
7
100
AcDbPolyline
 90
4
 70
1
 10
480.661725
 20
157.200000
 30
0.0
 10
468.537370
 20
178.200000
 30
0.0
 10
492.786081
 20
178.200000
 30
0.0
 10
480.661725
 20
157.200000
 30
0.0
  0
LWPOLYLINE
  5
144
100
AcDbEntity
  8
0
 62
7
100
AcDbPolyline
 90
4
 70
1
 10
480.661725
 20
206.400000
 30
0.0
 10
492.786081
 20
185.400000
 30
0.0
 10
468.537370
 20
185.400000
 30
0.0
 10
480.661725
 20
206.400000
 30
0.0
  0
LWPOLYLINE
  5
145
100
AcDbEntity
  8
0
 62
7
100
AcDbPolyline
 90
4
 70
1
 10
499.021464
 20
189.000000
 30
0.0
 10
486.897108
 20
210.000000
 30
0.0
 10
511.145820
 20
210.000000
 30
0.0
 10
499.021464
 20
189.000000
 30
0.0
  0
LWPOLYLINE
  5
146
100
AcDbEntity
  8
0
 62
7
100
AcDbPolyline
 90
4
 70
1
 10
462.301987
 20
111.000000
 30
0.0
 10
474.426343
 20
90.000000
 30
0.0
 10
450.177631
 20
90.000000
 30
0.0
 10
462.301987
 20
111.000000
 30
0.0
  0
LWPOLYLINE
  5
147
100
AcDbEntity
  8
0
 62
7
100
AcDbPolyline
 90
4
 70
1
 10
480.661725
 20
93.600000
 30
0.0
 10
468.537370
 20
114.600000
 30
0.0
 10
492.786081
 20
114.600000
 30
0.0
 10
480.661725
 20
93.600000
 30
0.0
  0
LWPOLYLINE
  5
148
100
AcDbEntity
  8
0
 62
7
100
AcDbPolyline
 90
4
 70
1
 10
480.661725
 20
142.800000
 30
0.0
 10
492.786081
 20
121.800000
 30
0.0
 10
468.537370
 20
121.800000
 30
0.0
 10
480.661725
 20
142.800000
 30
0.0
  0
LWPOLYLINE
  5
149
100
AcDbEntity
  8
0
 62
7
100
AcDbPolyline
 90
4
 70
1
 10
499.021464
 20
125.400000
 30
0.0
 10
486.897108
 20
146.400000
 30
0.0
 10
511.145820
 20
146.400000
 30
0.0
 10
499.021464
 20
125.400000
 30
0.0
  0
LWPOLYLINE
  5
14a
100
AcDbEntity
  8
0
 62
7
100
AcDbPolyline
 90
4
 70
1
 10
499.021464
 20
174.600000
 30
0.0
 10
511.145820
 20
153.600000
 30
0.0
 10
486.897108
 20
153.600000
 30
0.0
 10
499.021464
 20
174.600000
 30
0.0
  0
LWPOLYLINE
  5
14b
100
AcDbEntity
  8
0
 62
7
100
AcDbPolyline
 90
4
 70
1
 10
517.381203
 20
157.200000
 30
0.0
 10
505.256847
 20
178.200000
 30
0.0
 10
529.505558
 20
178.200000
 30
0.0
 10
517.381203
 20
157.200000
 30
0.0
  0
LWPOLYLINE
  5
14c
100
AcDbEntity
  8
0
 62
7
100
AcDbPolyline
 90
4
 70
1
 10
517.381203
 20
206.400000
 30
0.0
 10
529.505558
 20
185.400000
 30
0.0
 10
505.256847
 20
185.400000
 30
0.0
 10
517.381203
 20
206.400000
 30
0.0
  0
LWPOLYLINE
  5
14d
100
AcDbEntity
  8
0
 62
7
100
AcDbPolyline
 90
4
 70
1
 10
535.740941
 20
189.000000
 30
0.0
 10
523.616585
 20
210.000000
 30
0.0
 10
547.865297
 20
210.000000
 30
0.0
 10
535.740941
 20
189.000000
 30
0.0
  0
LWPOLYLINE
  5
14e
100
AcDbEntity
  8
0
 62
7
100
AcDbPolyline
 90
4
 70
1
 10
499.021464
 20
111.000000
 30
0.0
 10
511.145820
 20
90.000000
 30
0.0
 10
486.897108
 20
90.000000
 30
0.0
 10
499.021464
 20
111.000000
 30
0.0
  0
LWPOLYLINE
  5
14f
100
AcDbEntity
  8
0
 62
7
100
AcDbPolyline
 90
4
 70
1
 10
517.381203
 20
93.600000
 30
0.0
 10
505.256847
 20
114.600000
 30
0.0
 10
529.505558
 20
114.600000
 30
0.0
 10
517.381203
 20
93.600000
 30
0.0
  0
LWPOLYLINE
  5
150
100
AcDbEntity
  8
0
 62
7
100
AcDbPolyline
 90
4
 70
1
 10
517.381203
 20
142.800000
 30
0.0
 10
529.505558
 20
121.800000
 30
0.0
 10
505.256847
 20
121.800000
 30
0.0
 10
517.381203
 20
142.800000
 30
0.0
  0
LWPOLYLINE
  5
151
100
AcDbEntity
  8
0
 62
7
100
AcDbPolyline
 90
4
 70
1
 10
535.740941
 20
125.400000
 30
0.0
 10
523.616585
 20
146.400000
 30
0.0
 10
547.865297
 20
146.400000
 30
0.0
 10
535.740941
 20
125.400000
 30
0.0
  0
LWPOLYLINE
  5
152
100
AcDbEntity
  8
0
 62
7
100
AcDbPolyline
 90
4
 70
1
 10
535.740941
 20
174.600000
 30
0.0
 10
547.865297
 20
153.600000
 30
0.0
 10
523.616585
 20
153.600000
 30
0.0
 10
535.740941
 20
174.600000
 30
0.0
  0
LWPOLYLINE
  5
153
100
AcDbEntity
  8
0
 62
7
100
AcDbPolyline
 90
4
 70
1
 10
554.100680
 20
157.200000
 30
0.0
 10
541.976324
 20
178.200000
 30
0.0
 10
566.225035
 20
178.200000
 30
0.0
 10
554.100680
 20
157.200000
 30
0.0
  0
LWPOLYLINE
  5
154
100
AcDbEntity
  8
0
 62
7
100
AcDbPolyline
 90
4
 70
1
 10
554.100680
 20
206.400000
 30
0.0
 10
566.225035
 20
185.400000
 30
0.0
 10
541.976324
 20
185.400000
 30
0.0
 10
554.100680
 20
206.400000
 30
0.0
  0
LWPOLYLINE
  5
155
100
AcDbEntity
  8
0
 62
7
100
AcDbPolyline
 90
4
 70
1
 10
572.460418
 20
189.000000
 30
0.0
 10
560.336063
 20
210.000000
 30
0.0
 10
584.584774
 20
210.000000
 30
0.0
 10
572.460418
 20
189.000000
 30
0.0
  0
LWPOLYLINE
  5
156
100
AcDbEntity
  8
0
 62
7
100
AcDbPolyline
 90
4
 70
1
 10
535.740941
 20
111.000000
 30
0.0
 10
547.865297
 20
90.000000
 30
0.0
 10
523.616585
 20
90.000000
 30
0.0
 10
535.740941
 20
111.000000
 30
0.0
  0
LWPOLYLINE
  5
157
100
AcDbEntity
  8
0
 62
7
100
AcDbPolyline
 90
4
 70
1
 10
554.100680
 20
93.600000
 30
0.0
 10
541.976324
 20
114.600000
 30
0.0
 10
566.225035
 20
114.600000
 30
0.0
 10
554.100680
 20
93.600000
 30
0.0
  0
LWPOLYLINE
  5
158
100
AcDbEntity
  8
0
 62
7
100
AcDbPolyline
 90
4
 70
1
 10
554.100680
 20
142.800000
 30
0.0
 10
566.225035
 20
121.800000
 30
0.0
 10
541.976324
 20
121.800000
 30
0.0
 10
554.100680
 20
142.800000
 30
0.0
  0
LWPOLYLINE
  5
159
100
AcDbEntity
  8
0
 62
7
100
AcDbPolyline
 90
4
 70
1
 10
572.460418
 20
125.400000
 30
0.0
 10
560.336063
 20
146.400000
 30
0.0
 10
584.584774
 20
146.400000
 30
0.0
 10
572.460418
 20
125.400000
 30
0.0
  0
LWPOLYLINE
  5
15a
100
AcDbEntity
  8
0
 62
7
100
AcDbPolyline
 90
4
 70
1
 10
572.460418
 20
174.600000
 30
0.0
 10
584.584774
 20
153.600000
 30
0.0
 10
560.336063
 20
153.600000
 30
0.0
 10
572.460418
 20
174.600000
 30
0.0
  0
LWPOLYLINE
  5
15b
100
AcDbEntity
  8
0
 62
7
100
AcDbPolyline
 90
4
 70
1
 10
590.820157
 20
157.200000
 30
0.0
 10
578.695801
 20
178.200000
 30
0.0
 10
602.944512
 20
178.200000
 30
0.0
 10
590.820157
 20
157.200000
 30
0.0
  0
LWPOLYLINE
  5
15c
100
AcDbEntity
  8
0
 62
7
100
AcDbPolyline
 90
4
 70
1
 10
590.820157
 20
206.400000
 30
0.0
 10
602.944512
 20
185.400000
 30
0.0
 10
578.695801
 20
185.400000
 30
0.0
 10
590.820157
 20
206.400000
 30
0.0
  0
LWPOLYLINE
  5
15d
100
AcDbEntity
  8
0
 62
7
100
AcDbPolyline
 90
4
 70
1
 10
609.179895
 20
189.000000
 30
0.0
 10
597.055540
 20
210.000000
 30
0.0
 10
621.304251
 20
210.000000
 30
0.0
 10
609.179895
 20
189.000000
 30
0.0
  0
LWPOLYLINE
  5
15e
100
AcDbEntity
  8
0
 62
7
100
AcDbPolyline
 90
4
 70
1
 10
572.460418
 20
111.000000
 30
0.0
 10
584.584774
 20
90.000000
 30
0.0
 10
560.336063
 20
90.000000
 30
0.0
 10
572.460418
 20
111.000000
 30
0.0
  0
LWPOLYLINE
  5
15f
100
AcDbEntity
  8
0
 62
7
100
AcDbPolyline
 90
4
 70
1
 10
590.820157
 20
93.600000
 30
0.0
 10
578.695801
 20
114.600000
 30
0.0
 10
602.944512
 20
114.600000
 30
0.0
 10
590.820157
 20
93.600000
 30
0.0
  0
LWPOLYLINE
  5
160
100
AcDbEntity
  8
0
 62
7
100
AcDbPolyline
 90
4
 70
1
 10
590.820157
 20
142.800000
 30
0.0
 10
602.944512
 20
121.800000
 30
0.0
 10
578.695801
 20
121.800000
 30
0.0
 10
590.820157
 20
142.800000
 30
0.0
  0
LWPOLYLINE
  5
161
100
AcDbEntity
  8
0
 62
7
100
AcDbPolyline
 90
4
 70
1
 10
609.179895
 20
125.400000
 30
0.0
 10
597.055540
 20
146.400000
 30
0.0
 10
621.304251
 20
146.400000
 30
0.0
 10
609.179895
 20
125.400000
 30
0.0
  0
LWPOLYLINE
  5
162
100
AcDbEntity
  8
0
 62
7
100
AcDbPolyline
 90
4
 70
1
 10
609.179895
 20
174.600000
 30
0.0
 10
621.304251
 20
153.600000
 30
0.0
 10
597.055540
 20
153.600000
 30
0.0
 10
609.179895
 20
174.600000
 30
0.0
  0
LWPOLYLINE
  5
163
100
AcDbEntity
  8
0
 62
7
100
AcDbPolyline
 90
4
 70
1
 10
627.539634
 20
157.200000
 30
0.0
 10
615.415278
 20
178.200000
 30
0.0
 10
639.663990
 20
178.200000
 30
0.0
 10
627.539634
 20
157.200000
 30
0.0
  0
LWPOLYLINE
  5
164
100
AcDbEntity
  8
0
 62
7
100
AcDbPolyline
 90
4
 70
1
 10
627.539634
 20
206.400000
 30
0.0
 10
639.663990
 20
185.400000
 30
0.0
 10
615.415278
 20
185.400000
 30
0.0
 10
627.539634
 20
206.400000
 30
0.0
  0
LWPOLYLINE
  5
165
100
AcDbEntity
  8
0
 62
7
100
AcDbPolyline
 90
4
 70
1
 10
645.899372
 20
189.000000
 30
0.0
 10
633.775017
 20
210.000000
 30
0.0
 10
658.023728
 20
210.000000
 30
0.0
 10
645.899372
 20
189.000000
 30
0.0
  0
LWPOLYLINE
  5
166
100
AcDbEntity
  8
0
 62
7
100
AcDbPolyline
 90
4
 70
1
 10
609.179895
 20
111.000000
 30
0.0
 10
621.304251
 20
90.000000
 30
0.0
 10
597.055540
 20
90.000000
 30
0.0
 10
609.179895
 20
111.000000
 30
0.0
  0
LWPOLYLINE
  5
167
100
AcDbEntity
  8
0
 62
7
100
AcDbPolyline
 90
4
 70
1
 10
627.539634
 20
93.600000
 30
0.0
 10
615.415278
 20
114.600000
 30
0.0
 10
639.663990
 20
114.600000
 30
0.0
 10
627.539634
 20
93.600000
 30
0.0
  0
LWPOLYLINE
  5
168
100
AcDbEntity
  8
0
 62
7
100
AcDbPolyline
 90
4
 70
1
 10
627.539634
 20
142.800000
 30
0.0
 10
639.663990
 20
121.800000
 30
0.0
 10
615.415278
 20
121.800000
 30
0.0
 10
627.539634
 20
142.800000
 30
0.0
  0
LWPOLYLINE
  5
169
100
AcDbEntity
  8
0
 62
7
100
AcDbPolyline
 90
4
 70
1
 10
645.899372
 20
125.400000
 30
0.0
 10
633.775017
 20
146.400000
 30
0.0
 10
658.023728
 20
146.400000
 30
0.0
 10
645.899372
 20
125.400000
 30
0.0
  0
LWPOLYLINE
  5
16a
100
AcDbEntity
  8
0
 62
7
100
AcDbPolyline
 90
4
 70
1
 10
645.899372
 20
174.600000
 30
0.0
 10
658.023728
 20
153.600000
 30
0.0
 10
633.775017
 20
153.600000
 30
0.0
 10
645.899372
 20
174.600000
 30
0.0
  0
LWPOLYLINE
  5
16b
100
AcDbEntity
  8
0
 62
7
100
AcDbPolyline
 90
4
 70
1
 10
664.259111
 20
157.200000
 30
0.0
 10
652.134755
 20
178.200000
 30
0.0
 10
676.383467
 20
178.200000
 30
0.0
 10
664.259111
 20
157.200000
 30
0.0
  0
LWPOLYLINE
  5
16c
100
AcDbEntity
  8
0
 62
7
100
AcDbPolyline
 90
4
 70
1
 10
664.259111
 20
206.400000
 30
0.0
 10
676.383467
 20
185.400000
 30
0.0
 10
652.134755
 20
185.400000
 30
0.0
 10
664.259111
 20
206.400000
 30
0.0
  0
LWPOLYLINE
  5
16d
100
AcDbEntity
  8
0
 62
7
100
AcDbPolyline
 90
4
 70
1
 10
682.618850
 20
189.000000
 30
0.0
 10
670.494494
 20
210.000000
 30
0.0
 10
694.743205
 20
210.000000
 30
0.0
 10
682.618850
 20
189.000000
 30
0.0
  0
LWPOLYLINE
  5
16e
100
AcDbEntity
  8
0
 62
7
100
AcDbPolyline
 90
4
 70
1
 10
645.899372
 20
111.000000
 30
0.0
 10
658.023728
 20
90.000000
 30
0.0
 10
633.775017
 20
90.000000
 30
0.0
 10
645.899372
 20
111.000000
 30
0.0
  0
LWPOLYLINE
  5
16f
100
AcDbEntity
  8
0
 62
7
100
AcDbPolyline
 90
4
 70
1
 10
664.259111
 20
93.600000
 30
0.0
 10
652.134755
 20
114.600000
 30
0.0
 10
676.383467
 20
114.600000
 30
0.0
 10
664.259111
 20
93.600000
 30
0.0
  0
LWPOLYLINE
  5
170
100
AcDbEntity
  8
0
 62
7
100
AcDbPolyline
 90
4
 70
1
 10
664.259111
 20
142.800000
 30
0.0
 10
676.383467
 20
121.800000
 30
0.0
 10
652.134755
 20
121.800000
 30
0.0
 10
664.259111
 20
142.800000
 30
0.0
  0
LWPOLYLINE
  5
171
100
AcDbEntity
  8
0
 62
7
100
AcDbPolyline
 90
4
 70
1
 10
682.618850
 20
125.400000
 30
0.0
 10
670.494494
 20
146.400000
 30
0.0
 10
694.743205
 20
146.400000
 30
0.0
 10
682.618850
 20
125.400000
 30
0.0
  0
LWPOLYLINE
  5
172
100
AcDbEntity
  8
0
 62
7
100
AcDbPolyline
 90
4
 70
1
 10
682.618850
 20
174.600000
 30
0.0
 10
694.743205
 20
153.600000
 30
0.0
 10
670.494494
 20
153.600000
 30
0.0
 10
682.618850
 20
174.600000
 30
0.0
  0
LWPOLYLINE
  5
173
100
AcDbEntity
  8
0
 62
7
100
AcDbPolyline
 90
4
 70
1
 10
700.978588
 20
157.200000
 30
0.0
 10
688.854233
 20
178.200000
 30
0.0
 10
713.102944
 20
178.200000
 30
0.0
 10
700.978588
 20
157.200000
 30
0.0
  0
LWPOLYLINE
  5
174
100
AcDbEntity
  8
0
 62
7
100
AcDbPolyline
 90
4
 70
1
 10
700.978588
 20
206.400000
 30
0.0
 10
713.102944
 20
185.400000
 30
0.0
 10
688.854233
 20
185.400000
 30
0.0
 10
700.978588
 20
206.400000
 30
0.0
  0
LWPOLYLINE
  5
175
100
AcDbEntity
  8
0
 62
7
100
AcDbPolyline
 90
4
 70
1
 10
719.338327
 20
189.000000
 30
0.0
 10
707.213971
 20
210.000000
 30
0.0
 10
731.462682
 20
210.000000
 30
0.0
 10
719.338327
 20
189.000000
 30
0.0
  0
LWPOLYLINE
  5
176
100
AcDbEntity
  8
0
 62
7
100
AcDbPolyline
 90
4
 70
1
 10
682.618850
 20
111.000000
 30
0.0
 10
694.743205
 20
90.000000
 30
0.0
 10
670.494494
 20
90.000000
 30
0.0
 10
682.618850
 20
111.000000
 30
0.0
  0
LWPOLYLINE
  5
177
100
AcDbEntity
  8
0
 62
7
100
AcDbPolyline
 90
4
 70
1
 10
700.978588
 20
93.600000
 30
0.0
 10
688.854233
 20
114.600000
 30
0.0
 10
713.102944
 20
114.600000
 30
0.0
 10
700.978588
 20
93.600000
 30
0.0
  0
LWPOLYLINE
  5
178
100
AcDbEntity
  8
0
 62
7
100
AcDbPolyline
 90
4
 70
1
 10
700.978588
 20
142.800000
 30
0.0
 10
713.102944
 20
121.800000
 30
0.0
 10
688.854233
 20
121.800000
 30
0.0
 10
700.978588
 20
142.800000
 30
0.0
  0
LWPOLYLINE
  5
179
100
AcDbEntity
  8
0
 62
7
100
AcDbPolyline
 90
4
 70
1
 10
719.338327
 20
125.400000
 30
0.0
 10
707.213971
 20
146.400000
 30
0.0
 10
731.462682
 20
146.400000
 30
0.0
 10
719.338327
 20
125.400000
 30
0.0
  0
LWPOLYLINE
  5
17a
100
AcDbEntity
  8
0
 62
7
100
AcDbPolyline
 90
4
 70
1
 10
719.338327
 20
174.600000
 30
0.0
 10
731.462682
 20
153.600000
 30
0.0
 10
707.213971
 20
153.600000
 30
0.0
 10
719.338327
 20
174.600000
 30
0.0
  0
LWPOLYLINE
  5
17b
100
AcDbEntity
  8
0
 62
7
100
AcDbPolyline
 90
4
 70
1
 10
737.698065
 20
157.200000
 30
0.0
 10
725.573710
 20
178.200000
 30
0.0
 10
749.822421
 20
178.200000
 30
0.0
 10
737.698065
 20
157.200000
 30
0.0
  0
LWPOLYLINE
  5
17c
100
AcDbEntity
  8
0
 62
7
100
AcDbPolyline
 90
4
 70
1
 10
737.698065
 20
206.400000
 30
0.0
 10
749.822421
 20
185.400000
 30
0.0
 10
725.573710
 20
185.400000
 30
0.0
 10
737.698065
 20
206.400000
 30
0.0
  0
LWPOLYLINE
  5
17d
100
AcDbEntity
  8
0
 62
7
100
AcDbPolyline
 90
4
 70
1
 10
756.057804
 20
189.000000
 30
0.0
 10
743.933448
 20
210.000000
 30
0.0
 10
768.182160
 20
210.000000
 30
0.0
 10
756.057804
 20
189.000000
 30
0.0
  0
LWPOLYLINE
  5
17e
100
AcDbEntity
  8
0
 62
7
100
AcDbPolyline
 90
4
 70
1
 10
719.338327
 20
111.000000
 30
0.0
 10
731.462682
 20
90.000000
 30
0.0
 10
707.213971
 20
90.000000
 30
0.0
 10
719.338327
 20
111.000000
 30
0.0
  0
LWPOLYLINE
  5
17f
100
AcDbEntity
  8
0
 62
7
100
AcDbPolyline
 90
4
 70
1
 10
737.698065
 20
93.600000
 30
0.0
 10
725.573710
 20
114.600000
 30
0.0
 10
749.822421
 20
114.600000
 30
0.0
 10
737.698065
 20
93.600000
 30
0.0
  0
LWPOLYLINE
  5
180
100
AcDbEntity
  8
0
 62
7
100
AcDbPolyline
 90
4
 70
1
 10
737.698065
 20
142.800000
 30
0.0
 10
749.822421
 20
121.800000
 30
0.0
 10
725.573710
 20
121.800000
 30
0.0
 10
737.698065
 20
142.800000
 30
0.0
  0
LWPOLYLINE
  5
181
100
AcDbEntity
  8
0
 62
7
100
AcDbPolyline
 90
4
 70
1
 10
756.057804
 20
125.400000
 30
0.0
 10
743.933448
 20
146.400000
 30
0.0
 10
768.182160
 20
146.400000
 30
0.0
 10
756.057804
 20
125.400000
 30
0.0
  0
LWPOLYLINE
  5
182
100
AcDbEntity
  8
0
 62
7
100
AcDbPolyline
 90
4
 70
1
 10
756.057804
 20
174.600000
 30
0.0
 10
768.182160
 20
153.600000
 30
0.0
 10
743.933448
 20
153.600000
 30
0.0
 10
756.057804
 20
174.600000
 30
0.0
  0
LWPOLYLINE
  5
183
100
AcDbEntity
  8
0
 62
7
100
AcDbPolyline
 90
4
 70
1
 10
774.417542
 20
157.200000
 30
0.0
 10
762.293187
 20
178.200000
 30
0.0
 10
786.541898
 20
178.200000
 30
0.0
 10
774.417542
 20
157.200000
 30
0.0
  0
LWPOLYLINE
  5
184
100
AcDbEntity
  8
0
 62
7
100
AcDbPolyline
 90
4
 70
1
 10
774.417542
 20
206.400000
 30
0.0
 10
786.541898
 20
185.400000
 30
0.0
 10
762.293187
 20
185.400000
 30
0.0
 10
774.417542
 20
206.400000
 30
0.0
  0
LWPOLYLINE
  5
185
100
AcDbEntity
  8
0
 62
7
100
AcDbPolyline
 90
4
 70
1
 10
792.777281
 20
189.000000
 30
0.0
 10
780.652925
 20
210.000000
 30
0.0
 10
804.901637
 20
210.000000
 30
0.0
 10
792.777281
 20
189.000000
 30
0.0
  0
LWPOLYLINE
  5
186
100
AcDbEntity
  8
0
 62
7
100
AcDbPolyline
 90
4
 70
1
 10
756.057804
 20
111.000000
 30
0.0
 10
768.182160
 20
90.000000
 30
0.0
 10
743.933448
 20
90.000000
 30
0.0
 10
756.057804
 20
111.000000
 30
0.0
  0
LWPOLYLINE
  5
187
100
AcDbEntity
  8
0
 62
7
100
AcDbPolyline
 90
4
 70
1
 10
774.417542
 20
93.600000
 30
0.0
 10
762.293187
 20
114.600000
 30
0.0
 10
786.541898
 20
114.600000
 30
0.0
 10
774.417542
 20
93.600000
 30
0.0
  0
LWPOLYLINE
  5
188
100
AcDbEntity
  8
0
 62
7
100
AcDbPolyline
 90
4
 70
1
 10
774.417542
 20
142.800000
 30
0.0
 10
786.541898
 20
121.800000
 30
0.0
 10
762.293187
 20
121.800000
 30
0.0
 10
774.417542
 20
142.800000
 30
0.0
  0
LWPOLYLINE
  5
189
100
AcDbEntity
  8
0
 62
7
100
AcDbPolyline
 90
4
 70
1
 10
792.777281
 20
125.400000
 30
0.0
 10
780.652925
 20
146.400000
 30
0.0
 10
804.901637
 20
146.400000
 30
0.0
 10
792.777281
 20
125.400000
 30
0.0
  0
LWPOLYLINE
  5
18a
100
AcDbEntity
  8
0
 62
7
100
AcDbPolyline
 90
4
 70
1
 10
792.777281
 20
174.600000
 30
0.0
 10
804.901637
 20
153.600000
 30
0.0
 10
780.652925
 20
153.600000
 30
0.0
 10
792.777281
 20
174.600000
 30
0.0
  0
LWPOLYLINE
  5
18b
100
AcDbEntity
  8
0
 62
7
100
AcDbPolyline
 90
4
 70
1
 10
811.137020
 20
157.200000
 30
0.0
 10
799.012664
 20
178.200000
 30
0.0
 10
823.261375
 20
178.200000
 30
0.0
 10
811.137020
 20
157.200000
 30
0.0
  0
LWPOLYLINE
  5
18c
100
AcDbEntity
  8
0
 62
7
100
AcDbPolyline
 90
4
 70
1
 10
811.137020
 20
206.400000
 30
0.0
 10
823.261375
 20
185.400000
 30
0.0
 10
799.012664
 20
185.400000
 30
0.0
 10
811.137020
 20
206.400000
 30
0.0
  0
LWPOLYLINE
  5
18d
100
AcDbEntity
  8
0
 62
7
100
AcDbPolyline
 90
4
 70
1
 10
829.496758
 20
189.000000
 30
0.0
 10
817.372402
 20
210.000000
 30
0.0
 10
841.621114
 20
210.000000
 30
0.0
 10
829.496758
 20
189.000000
 30
0.0
  0
LWPOLYLINE
  5
18e
100
AcDbEntity
  8
0
 62
7
100
AcDbPolyline
 90
4
 70
1
 10
792.777281
 20
111.000000
 30
0.0
 10
804.901637
 20
90.000000
 30
0.0
 10
780.652925
 20
90.000000
 30
0.0
 10
792.777281
 20
111.000000
 30
0.0
  0
LWPOLYLINE
  5
18f
100
AcDbEntity
  8
0
 62
7
100
AcDbPolyline
 90
4
 70
1
 10
811.137020
 20
93.600000
 30
0.0
 10
799.012664
 20
114.600000
 30
0.0
 10
823.261375
 20
114.600000
 30
0.0
 10
811.137020
 20
93.600000
 30
0.0
  0
LWPOLYLINE
  5
190
100
AcDbEntity
  8
0
 62
7
100
AcDbPolyline
 90
4
 70
1
 10
811.137020
 20
142.800000
 30
0.0
 10
823.261375
 20
121.800000
 30
0.0
 10
799.012664
 20
121.800000
 30
0.0
 10
811.137020
 20
142.800000
 30
0.0
  0
LWPOLYLINE
  5
191
100
AcDbEntity
  8
0
 62
7
100
AcDbPolyline
 90
4
 70
1
 10
829.496758
 20
125.400000
 30
0.0
 10
817.372402
 20
146.400000
 30
0.0
 10
841.621114
 20
146.400000
 30
0.0
 10
829.496758
 20
125.400000
 30
0.0
  0
LWPOLYLINE
  5
192
100
AcDbEntity
  8
0
 62
7
100
AcDbPolyline
 90
4
 70
1
 10
829.496758
 20
174.600000
 30
0.0
 10
841.621114
 20
153.600000
 30
0.0
 10
817.372402
 20
153.600000
 30
0.0
 10
829.496758
 20
174.600000
 30
0.0
  0
LWPOLYLINE
  5
193
100
AcDbEntity
  8
0
 62
7
100
AcDbPolyline
 90
4
 70
1
 10
847.856497
 20
157.200000
 30
0.0
 10
835.732141
 20
178.200000
 30
0.0
 10
859.980852
 20
178.200000
 30
0.0
 10
847.856497
 20
157.200000
 30
0.0
  0
LWPOLYLINE
  5
194
100
AcDbEntity
  8
0
 62
7
100
AcDbPolyline
 90
4
 70
1
 10
847.856497
 20
206.400000
 30
0.0
 10
859.980852
 20
185.400000
 30
0.0
 10
835.732141
 20
185.400000
 30
0.0
 10
847.856497
 20
206.400000
 30
0.0
  0
LWPOLYLINE
  5
195
100
AcDbEntity
  8
0
 62
7
100
AcDbPolyline
 90
4
 70
1
 10
866.216235
 20
189.000000
 30
0.0
 10
854.091880
 20
210.000000
 30
0.0
 10
878.340591
 20
210.000000
 30
0.0
 10
866.216235
 20
189.000000
 30
0.0
  0
LWPOLYLINE
  5
196
100
AcDbEntity
  8
0
 62
7
100
AcDbPolyline
 90
4
 70
1
 10
829.496758
 20
111.000000
 30
0.0
 10
841.621114
 20
90.000000
 30
0.0
 10
817.372402
 20
90.000000
 30
0.0
 10
829.496758
 20
111.000000
 30
0.0
  0
LWPOLYLINE
  5
197
100
AcDbEntity
  8
0
 62
7
100
AcDbPolyline
 90
4
 70
1
 10
847.856497
 20
93.600000
 30
0.0
 10
835.732141
 20
114.600000
 30
0.0
 10
859.980852
 20
114.600000
 30
0.0
 10
847.856497
 20
93.600000
 30
0.0
  0
LWPOLYLINE
  5
198
100
AcDbEntity
  8
0
 62
7
100
AcDbPolyline
 90
4
 70
1
 10
847.856497
 20
142.800000
 30
0.0
 10
859.980852
 20
121.800000
 30
0.0
 10
835.732141
 20
121.800000
 30
0.0
 10
847.856497
 20
142.800000
 30
0.0
  0
LWPOLYLINE
  5
199
100
AcDbEntity
  8
0
 62
7
100
AcDbPolyline
 90
4
 70
1
 10
866.216235
 20
125.400000
 30
0.0
 10
854.091880
 20
146.400000
 30
0.0
 10
878.340591
 20
146.400000
 30
0.0
 10
866.216235
 20
125.400000
 30
0.0
  0
LWPOLYLINE
  5
19a
100
AcDbEntity
  8
0
 62
7
100
AcDbPolyline
 90
4
 70
1
 10
866.216235
 20
174.600000
 30
0.0
 10
878.340591
 20
153.600000
 30
0.0
 10
854.091880
 20
153.600000
 30
0.0
 10
866.216235
 20
174.600000
 30
0.0
  0
LWPOLYLINE
  5
19b
100
AcDbEntity
  8
0
 62
7
100
AcDbPolyline
 90
4
 70
1
 10
884.575974
 20
157.200000
 30
0.0
 10
872.451618
 20
178.200000
 30
0.0
 10
896.700329
 20
178.200000
 30
0.0
 10
884.575974
 20
157.200000
 30
0.0
  0
LWPOLYLINE
  5
19c
100
AcDbEntity
  8
0
 62
7
100
AcDbPolyline
 90
4
 70
1
 10
884.575974
 20
206.400000
 30
0.0
 10
896.700329
 20
185.400000
 30
0.0
 10
872.451618
 20
185.400000
 30
0.0
 10
884.575974
 20
206.400000
 30
0.0
  0
LWPOLYLINE
  5
19d
100
AcDbEntity
  8
0
 62
7
100
AcDbPolyline
 90
4
 70
1
 10
902.935712
 20
189.000000
 30
0.0
 10
890.811357
 20
210.000000
 30
0.0
 10
915.060068
 20
210.000000
 30
0.0
 10
902.935712
 20
189.000000
 30
0.0
  0
LWPOLYLINE
  5
19e
100
AcDbEntity
  8
0
 62
7
100
AcDbPolyline
 90
4
 70
1
 10
866.216235
 20
111.000000
 30
0.0
 10
878.340591
 20
90.000000
 30
0.0
 10
854.091880
 20
90.000000
 30
0.0
 10
866.216235
 20
111.000000
 30
0.0
  0
LWPOLYLINE
  5
19f
100
AcDbEntity
  8
0
 62
7
100
AcDbPolyline
 90
4
 70
1
 10
884.575974
 20
93.600000
 30
0.0
 10
872.451618
 20
114.600000
 30
0.0
 10
896.700329
 20
114.600000
 30
0.0
 10
884.575974
 20
93.600000
 30
0.0
  0
LWPOLYLINE
  5
1a0
100
AcDbEntity
  8
0
 62
7
100
AcDbPolyline
 90
4
 70
1
 10
884.575974
 20
142.800000
 30
0.0
 10
896.700329
 20
121.800000
 30
0.0
 10
872.451618
 20
121.800000
 30
0.0
 10
884.575974
 20
142.800000
 30
0.0
  0
LWPOLYLINE
  5
1a1
100
AcDbEntity
  8
0
 62
7
100
AcDbPolyline
 90
4
 70
1
 10
902.935712
 20
125.400000
 30
0.0
 10
890.811357
 20
146.400000
 30
0.0
 10
915.060068
 20
146.400000
 30
0.0
 10
902.935712
 20
125.400000
 30
0.0
  0
LWPOLYLINE
  5
1a2
100
AcDbEntity
  8
0
 62
7
100
AcDbPolyline
 90
4
 70
1
 10
902.935712
 20
174.600000
 30
0.0
 10
915.060068
 20
153.600000
 30
0.0
 10
890.811357
 20
153.600000
 30
0.0
 10
902.935712
 20
174.600000
 30
0.0
  0
LWPOLYLINE
  5
1a3
100
AcDbEntity
  8
0
 62
7
100
AcDbPolyline
 90
4
 70
1
 10
921.295451
 20
157.200000
 30
0.0
 10
909.171095
 20
178.200000
 30
0.0
 10
933.419807
 20
178.200000
 30
0.0
 10
921.295451
 20
157.200000
 30
0.0
  0
LWPOLYLINE
  5
1a4
100
AcDbEntity
  8
0
 62
7
100
AcDbPolyline
 90
4
 70
1
 10
921.295451
 20
206.400000
 30
0.0
 10
933.419807
 20
185.400000
 30
0.0
 10
909.171095
 20
185.400000
 30
0.0
 10
921.295451
 20
206.400000
 30
0.0
  0
LWPOLYLINE
  5
1a5
100
AcDbEntity
  8
0
 62
7
100
AcDbPolyline
 90
4
 70
1
 10
939.655189
 20
189.000000
 30
0.0
 10
927.530834
 20
210.000000
 30
0.0
 10
951.779545
 20
210.000000
 30
0.0
 10
939.655189
 20
189.000000
 30
0.0
  0
LWPOLYLINE
  5
1a6
100
AcDbEntity
  8
0
 62
7
100
AcDbPolyline
 90
4
 70
1
 10
902.935712
 20
111.000000
 30
0.0
 10
915.060068
 20
90.000000
 30
0.0
 10
890.811357
 20
90.000000
 30
0.0
 10
902.935712
 20
111.000000
 30
0.0
  0
LWPOLYLINE
  5
1a7
100
AcDbEntity
  8
0
 62
7
100
AcDbPolyline
 90
4
 70
1
 10
921.295451
 20
93.600000
 30
0.0
 10
909.171095
 20
114.600000
 30
0.0
 10
933.419807
 20
114.600000
 30
0.0
 10
921.295451
 20
93.600000
 30
0.0
  0
LWPOLYLINE
  5
1a8
100
AcDbEntity
  8
0
 62
7
100
AcDbPolyline
 90
4
 70
1
 10
921.295451
 20
142.800000
 30
0.0
 10
933.419807
 20
121.800000
 30
0.0
 10
909.171095
 20
121.800000
 30
0.0
 10
921.295451
 20
142.800000
 30
0.0
  0
LWPOLYLINE
  5
1a9
100
AcDbEntity
  8
0
 62
7
100
AcDbPolyline
 90
4
 70
1
 10
939.655189
 20
125.400000
 30
0.0
 10
927.530834
 20
146.400000
 30
0.0
 10
951.779545
 20
146.400000
 30
0.0
 10
939.655189
 20
125.400000
 30
0.0
  0
LWPOLYLINE
  5
1aa
100
AcDbEntity
  8
0
 62
7
100
AcDbPolyline
 90
4
 70
1
 10
939.655189
 20
174.600000
 30
0.0
 10
951.779545
 20
153.600000
 30
0.0
 10
927.530834
 20
153.600000
 30
0.0
 10
939.655189
 20
174.600000
 30
0.0
  0
LWPOLYLINE
  5
1ab
100
AcDbEntity
  8
0
 62
7
100
AcDbPolyline
 90
4
 70
1
 10
958.014928
 20
157.200000
 30
0.0
 10
945.890572
 20
178.200000
 30
0.0
 10
970.139284
 20
178.200000
 30
0.0
 10
958.014928
 20
157.200000
 30
0.0
  0
LWPOLYLINE
  5
1ac
100
AcDbEntity
  8
0
 62
7
100
AcDbPolyline
 90
4
 70
1
 10
958.014928
 20
206.400000
 30
0.0
 10
970.139284
 20
185.400000
 30
0.0
 10
945.890572
 20
185.400000
 30
0.0
 10
958.014928
 20
206.400000
 30
0.0
  0
LWPOLYLINE
  5
1ad
100
AcDbEntity
  8
0
 62
7
100
AcDbPolyline
 90
4
 70
1
 10
976.374667
 20
189.000000
 30
0.0
 10
964.250311
 20
210.000000
 30
0.0
 10
988.499022
 20
210.000000
 30
0.0
 10
976.374667
 20
189.000000
 30
0.0
  0
LWPOLYLINE
  5
1ae
100
AcDbEntity
  8
0
 62
7
100
AcDbPolyline
 90
4
 70
1
 10
939.655189
 20
111.000000
 30
0.0
 10
951.779545
 20
90.000000
 30
0.0
 10
927.530834
 20
90.000000
 30
0.0
 10
939.655189
 20
111.000000
 30
0.0
  0
LWPOLYLINE
  5
1af
100
AcDbEntity
  8
0
 62
7
100
AcDbPolyline
 90
4
 70
1
 10
958.014928
 20
93.600000
 30
0.0
 10
945.890572
 20
114.600000
 30
0.0
 10
970.139284
 20
114.600000
 30
0.0
 10
958.014928
 20
93.600000
 30
0.0
  0
LWPOLYLINE
  5
1b0
100
AcDbEntity
  8
0
 62
7
100
AcDbPolyline
 90
4
 70
1
 10
958.014928
 20
142.800000
 30
0.0
 10
970.139284
 20
121.800000
 30
0.0
 10
945.890572
 20
121.800000
 30
0.0
 10
958.014928
 20
142.800000
 30
0.0
  0
LWPOLYLINE
  5
1b1
100
AcDbEntity
  8
0
 62
7
100
AcDbPolyline
 90
4
 70
1
 10
976.374667
 20
125.400000
 30
0.0
 10
964.250311
 20
146.400000
 30
0.0
 10
988.499022
 20
146.400000
 30
0.0
 10
976.374667
 20
125.400000
 30
0.0
  0
LWPOLYLINE
  5
1b2
100
AcDbEntity
  8
0
 62
7
100
AcDbPolyline
 90
4
 70
1
 10
976.374667
 20
174.600000
 30
0.0
 10
988.499022
 20
153.600000
 30
0.0
 10
964.250311
 20
153.600000
 30
0.0
 10
976.374667
 20
174.600000
 30
0.0
  0
LWPOLYLINE
  5
1b3
100
AcDbEntity
  8
0
 62
7
100
AcDbPolyline
 90
4
 70
1
 10
994.734405
 20
157.200000
 30
0.0
 10
982.610049
 20
178.200000
 30
0.0
 10
1006.858761
 20
178.200000
 30
0.0
 10
994.734405
 20
157.200000
 30
0.0
  0
LWPOLYLINE
  5
1b4
100
AcDbEntity
  8
0
 62
7
100
AcDbPolyline
 90
4
 70
1
 10
994.734405
 20
206.400000
 30
0.0
 10
1006.858761
 20
185.400000
 30
0.0
 10
982.610049
 20
185.400000
 30
0.0
 10
994.734405
 20
206.400000
 30
0.0
  0
LWPOLYLINE
  5
1b5
100
AcDbEntity
  8
0
 62
7
100
AcDbPolyline
 90
4
 70
1
 10
1013.094144
 20
189.000000
 30
0.0
 10
1000.969788
 20
210.000000
 30
0.0
 10
1025.218499
 20
210.000000
 30
0.0
 10
1013.094144
 20
189.000000
 30
0.0
  0
LWPOLYLINE
  5
1b6
100
AcDbEntity
  8
0
 62
7
100
AcDbPolyline
 90
4
 70
1
 10
976.374667
 20
111.000000
 30
0.0
 10
988.499022
 20
90.000000
 30
0.0
 10
964.250311
 20
90.000000
 30
0.0
 10
976.374667
 20
111.000000
 30
0.0
  0
LWPOLYLINE
  5
1b7
100
AcDbEntity
  8
0
 62
7
100
AcDbPolyline
 90
4
 70
1
 10
994.734405
 20
93.600000
 30
0.0
 10
982.610049
 20
114.600000
 30
0.0
 10
1006.858761
 20
114.600000
 30
0.0
 10
994.734405
 20
93.600000
 30
0.0
  0
LWPOLYLINE
  5
1b8
100
AcDbEntity
  8
0
 62
7
100
AcDbPolyline
 90
4
 70
1
 10
994.734405
 20
142.800000
 30
0.0
 10
1006.858761
 20
121.800000
 30
0.0
 10
982.610049
 20
121.800000
 30
0.0
 10
994.734405
 20
142.800000
 30
0.0
  0
LWPOLYLINE
  5
1b9
100
AcDbEntity
  8
0
 62
7
100
AcDbPolyline
 90
4
 70
1
 10
1013.094144
 20
125.400000
 30
0.0
 10
1000.969788
 20
146.400000
 30
0.0
 10
1025.218499
 20
146.400000
 30
0.0
 10
1013.094144
 20
125.400000
 30
0.0
  0
LWPOLYLINE
  5
1ba
100
AcDbEntity
  8
0
 62
7
100
AcDbPolyline
 90
4
 70
1
 10
1013.094144
 20
174.600000
 30
0.0
 10
1025.218499
 20
153.600000
 30
0.0
 10
1000.969788
 20
153.600000
 30
0.0
 10
1013.094144
 20
174.600000
 30
0.0
  0
LWPOLYLINE
  5
1bb
100
AcDbEntity
  8
0
 62
7
100
AcDbPolyline
 90
4
 70
1
 10
1031.453882
 20
157.200000
 30
0.0
 10
1019.329527
 20
178.200000
 30
0.0
 10
1043.578238
 20
178.200000
 30
0.0
 10
1031.453882
 20
157.200000
 30
0.0
  0
LWPOLYLINE
  5
1bc
100
AcDbEntity
  8
0
 62
7
100
AcDbPolyline
 90
4
 70
1
 10
1031.453882
 20
206.400000
 30
0.0
 10
1043.578238
 20
185.400000
 30
0.0
 10
1019.329527
 20
185.400000
 30
0.0
 10
1031.453882
 20
206.400000
 30
0.0
  0
LWPOLYLINE
  5
1bd
100
AcDbEntity
  8
0
 62
7
100
AcDbPolyline
 90
4
 70
1
 10
1013.094144
 20
111.000000
 30
0.0
 10
1025.218499
 20
90.000000
 30
0.0
 10
1000.969788
 20
90.000000
 30
0.0
 10
1013.094144
 20
111.000000
 30
0.0
  0
LWPOLYLINE
  5
1be
100
AcDbEntity
  8
0
 62
7
100
AcDbPolyline
 90
4
 70
1
 10
1031.453882
 20
93.600000
 30
0.0
 10
1019.329527
 20
114.600000
 30
0.0
 10
1043.578238
 20
114.600000
 30
0.0
 10
1031.453882
 20
93.600000
 30
0.0
  0
LWPOLYLINE
  5
1bf
100
AcDbEntity
  8
0
 62
7
100
AcDbPolyline
 90
4
 70
1
 10
1031.453882
 20
142.800000
 30
0.0
 10
1043.578238
 20
121.800000
 30
0.0
 10
1019.329527
 20
121.800000
 30
0.0
 10
1031.453882
 20
142.800000
 30
0.0
  0
LWPOLYLINE
  5
1c0
100
AcDbEntity
  8
0
 62
7
100
AcDbPolyline
 90
4
 70
1
 10
151.000026
 20
178.200000
 30
0.0
 10
162.310787
 20
178.200000
 30
0.0
 10
151.000026
 20
158.609187
 30
0.0
 10
151.000026
 20
178.200000
 30
0.0
  0
LWPOLYLINE
  5
1c1
100
AcDbEntity
  8
0
 62
7
100
AcDbPolyline
 90
4
 70
1
 10
1037.689265
 20
146.400000
 30
0.0
 10
1049.000026
 20
146.400000
 30
0.0
 10
1049.000026
 20
126.809187
 30
0.0
 10
1037.689265
 20
146.400000
 30
0.0
  0
LWPOLYLINE
  5
1c2
100
AcDbEntity
  8
0
 62
7
100
AcDbPolyline
 90
4
 70
1
 10
151.000026
 20
185.400000
 30
0.0
 10
151.000026
 20
204.990813
 30
0.0
 10
162.310787
 20
185.400000
 30
0.0
 10
151.000026
 20
185.400000
 30
0.0
  0
LWPOLYLINE
  5
1c3
100
AcDbEntity
  8
0
 62
7
100
AcDbPolyline
 90
4
 70
1
 10
151.000026
 20
114.600000
 30
0.0
 10
162.310787
 20
114.600000
 30
0.0
 10
151.000026
 20
95.009187
 30
0.0
 10
151.000026
 20
114.600000
 30
0.0
  0
LWPOLYLINE
  5
1c4
100
AcDbEntity
  8
0
 62
7
100
AcDbPolyline
 90
4
 70
1
 10
1037.689265
 20
210.000000
 30
0.0
 10
1049.000026
 20
210.000000
 30
0.0
 10
1049.000026
 20
190.409187
 30
0.0
 10
1037.689265
 20
210.000000
 30
0.0
  0
LWPOLYLINE
  5
1c5
100
AcDbEntity
  8
0
 62
7
100
AcDbPolyline
 90
4
 70
1
 10
1037.689265
 20
153.600000
 30
0.0
 10
1049.000026
 20
173.190813
 30
0.0
 10
1049.000026
 20
153.600000
 30
0.0
 10
1037.689265
 20
153.600000
 30
0.0
  0
LWPOLYLINE
  5
1c6
100
AcDbEntity
  8
0
 62
7
100
AcDbPolyline
 90
4
 70
1
 10
151.000026
 20
121.800000
 30
0.0
 10
151.000026
 20
141.390813
 30
0.0
 10
162.310787
 20
121.800000
 30
0.0
 10
151.000026
 20
121.800000
 30
0.0
  0
LWPOLYLINE
  5
1c7
100
AcDbEntity
  8
0
 62
7
100
AcDbPolyline
 90
4
 70
1
 10
1037.689265
 20
90.000000
 30
0.0
 10
1049.000026
 20
109.590813
 30
0.0
 10
1049.000026
 20
90.000000
 30
0.0
 10
1037.689265
 20
90.000000
 30
0.0
  0
LWPOLYLINE
  5
1c8
100
AcDbEntity
  8
0
 62
7
100
AcDbPolyline
 90
5
 70
1
 10
147.000026
 20
61.500000
 30
0.0
 10
1053.000026
 20
61.500000
 30
0.0
 10
1053.000026
 20
238.500000
 30
0.0
 10
147.000026
 20
238.500000
 30
0.0
 10
147.000026
 20
61.500000
 30
0.0
  0
ENDSEC
  0
SECTION
  2
OBJECTS
  0
DICTIONARY
  5
C
330
0
100
AcDbDictionary
  3
ACAD_GROUP
350
D
  3
ACAD_MLINESTYLE
350
17
  0
DICTIONARY
  5
D
330
C
100
AcDbDictionary
  0
DICTIONARY
  5
1A
330
C
100
AcDbDictionary
  0
DICTIONARY
  5
17
330
C
100
AcDbDictionary
  3
STANDARD
350
18
  0
DICTIONARY
  5
19
330
C
100
AcDbDictionary
  0
ENDSEC
  0
EOF
