999
"DXF R12 Output" (www.mydxf.blogspot.com)
 0 
SECTION
 2 
HEADER
 9 
$ACADVER
 1 
AC1009
 9 
$EXTMIN
 10 
 0 
 20 
 0 
 9 
$EXTMAX
 10 
 8.5 
 20 
 11 
 0 
ENDSEC
 0 
SECTION
 2 
ENTITIES
0
LINE
8
Layer 1
10
168.546170
20
189.000000
11
156.421814
21
210.000000
0
LINE
8
Layer 1
10
156.421814
20
210.000000
11
180.670526
21
210.000000
0
LINE
8
Layer 1
10
180.670526
20
210.000000
11
168.546170
21
189.000000
0
LINE
8
Layer 1
10
168.546170
20
189.000000
11
168.546170
21
189.000000
0
LINE
8
Layer 1
10
168.546170
20
125.400000
11
156.421814
21
146.400000
0
LINE
8
Layer 1
10
156.421814
20
146.400000
11
180.670526
21
146.400000
0
LINE
8
Layer 1
10
180.670526
20
146.400000
11
168.546170
21
125.400000
0
LINE
8
Layer 1
10
168.546170
20
125.400000
11
168.546170
21
125.400000
0
LINE
8
Layer 1
10
168.546170
20
174.600000
11
180.670526
21
153.600000
0
LINE
8
Layer 1
10
180.670526
20
153.600000
11
156.421814
21
153.600000
0
LINE
8
Layer 1
10
156.421814
20
153.600000
11
168.546170
21
174.600000
0
LINE
8
Layer 1
10
168.546170
20
174.600000
11
168.546170
21
174.600000
0
LINE
8
Layer 1
10
186.905908
20
157.200000
11
174.781553
21
178.200000
0
LINE
8
Layer 1
10
174.781553
20
178.200000
11
199.030264
21
178.200000
0
LINE
8
Layer 1
10
199.030264
20
178.200000
11
186.905908
21
157.200000
0
LINE
8
Layer 1
10
186.905908
20
157.200000
11
186.905908
21
157.200000
0
LINE
8
Layer 1
10
186.905908
20
206.400000
11
199.030264
21
185.400000
0
LINE
8
Layer 1
10
199.030264
20
185.400000
11
174.781553
21
185.400000
0
LINE
8
Layer 1
10
174.781553
20
185.400000
11
186.905908
21
206.400000
0
LINE
8
Layer 1
10
186.905908
20
206.400000
11
186.905908
21
206.400000
0
LINE
8
Layer 1
10
205.265647
20
189.000000
11
193.141291
21
210.000000
0
LINE
8
Layer 1
10
193.141291
20
210.000000
11
217.390003
21
210.000000
0
LINE
8
Layer 1
10
217.390003
20
210.000000
11
205.265647
21
189.000000
0
LINE
8
Layer 1
10
205.265647
20
189.000000
11
205.265647
21
189.000000
0
LINE
8
Layer 1
10
168.546170
20
111.000000
11
180.670526
21
90.000000
0
LINE
8
Layer 1
10
180.670526
20
90.000000
11
156.421814
21
90.000000
0
LINE
8
Layer 1
10
156.421814
20
90.000000
11
168.546170
21
111.000000
0
LINE
8
Layer 1
10
168.546170
20
111.000000
11
168.546170
21
111.000000
0
LINE
8
Layer 1
10
186.905908
20
93.600000
11
174.781553
21
114.600000
0
LINE
8
Layer 1
10
174.781553
20
114.600000
11
199.030264
21
114.600000
0
LINE
8
Layer 1
10
199.030264
20
114.600000
11
186.905908
21
93.600000
0
LINE
8
Layer 1
10
186.905908
20
93.600000
11
186.905908
21
93.600000
0
LINE
8
Layer 1
10
186.905908
20
142.800000
11
199.030264
21
121.800000
0
LINE
8
Layer 1
10
199.030264
20
121.800000
11
174.781553
21
121.800000
0
LINE
8
Layer 1
10
174.781553
20
121.800000
11
186.905908
21
142.800000
0
LINE
8
Layer 1
10
186.905908
20
142.800000
11
186.905908
21
142.800000
0
LINE
8
Layer 1
10
205.265647
20
125.400000
11
193.141291
21
146.400000
0
LINE
8
Layer 1
10
193.141291
20
146.400000
11
217.390003
21
146.400000
0
LINE
8
Layer 1
10
217.390003
20
146.400000
11
205.265647
21
125.400000
0
LINE
8
Layer 1
10
205.265647
20
125.400000
11
205.265647
21
125.400000
0
LINE
8
Layer 1
10
205.265647
20
174.600000
11
217.390003
21
153.600000
0
LINE
8
Layer 1
10
217.390003
20
153.600000
11
193.141291
21
153.600000
0
LINE
8
Layer 1
10
193.141291
20
153.600000
11
205.265647
21
174.600000
0
LINE
8
Layer 1
10
205.265647
20
174.600000
11
205.265647
21
174.600000
0
LINE
8
Layer 1
10
223.625386
20
157.200000
11
211.501030
21
178.200000
0
LINE
8
Layer 1
10
211.501030
20
178.200000
11
235.749741
21
178.200000
0
LINE
8
Layer 1
10
235.749741
20
178.200000
11
223.625386
21
157.200000
0
LINE
8
Layer 1
10
223.625386
20
157.200000
11
223.625386
21
157.200000
0
LINE
8
Layer 1
10
223.625386
20
206.400000
11
235.749741
21
185.400000
0
LINE
8
Layer 1
10
235.749741
20
185.400000
11
211.501030
21
185.400000
0
LINE
8
Layer 1
10
211.501030
20
185.400000
11
223.625386
21
206.400000
0
LINE
8
Layer 1
10
223.625386
20
206.400000
11
223.625386
21
206.400000
0
LINE
8
Layer 1
10
241.985124
20
189.000000
11
229.860769
21
210.000000
0
LINE
8
Layer 1
10
229.860769
20
210.000000
11
254.109480
21
210.000000
0
LINE
8
Layer 1
10
254.109480
20
210.000000
11
241.985124
21
189.000000
0
LINE
8
Layer 1
10
241.985124
20
189.000000
11
241.985124
21
189.000000
0
LINE
8
Layer 1
10
205.265647
20
111.000000
11
217.390003
21
90.000000
0
LINE
8
Layer 1
10
217.390003
20
90.000000
11
193.141291
21
90.000000
0
LINE
8
Layer 1
10
193.141291
20
90.000000
11
205.265647
21
111.000000
0
LINE
8
Layer 1
10
205.265647
20
111.000000
11
205.265647
21
111.000000
0
LINE
8
Layer 1
10
223.625386
20
93.600000
11
211.501030
21
114.600000
0
LINE
8
Layer 1
10
211.501030
20
114.600000
11
235.749741
21
114.600000
0
LINE
8
Layer 1
10
235.749741
20
114.600000
11
223.625386
21
93.600000
0
LINE
8
Layer 1
10
223.625386
20
93.600000
11
223.625386
21
93.600000
0
LINE
8
Layer 1
10
223.625386
20
142.800000
11
235.749741
21
121.800000
0
LINE
8
Layer 1
10
235.749741
20
121.800000
11
211.501030
21
121.800000
0
LINE
8
Layer 1
10
211.501030
20
121.800000
11
223.625386
21
142.800000
0
LINE
8
Layer 1
10
223.625386
20
142.800000
11
223.625386
21
142.800000
0
LINE
8
Layer 1
10
241.985124
20
125.400000
11
229.860769
21
146.400000
0
LINE
8
Layer 1
10
229.860769
20
146.400000
11
254.109480
21
146.400000
0
LINE
8
Layer 1
10
254.109480
20
146.400000
11
241.985124
21
125.400000
0
LINE
8
Layer 1
10
241.985124
20
125.400000
11
241.985124
21
125.400000
0
LINE
8
Layer 1
10
241.985124
20
174.600000
11
254.109480
21
153.600000
0
LINE
8
Layer 1
10
254.109480
20
153.600000
11
229.860769
21
153.600000
0
LINE
8
Layer 1
10
229.860769
20
153.600000
11
241.985124
21
174.600000
0
LINE
8
Layer 1
10
241.985124
20
174.600000
11
241.985124
21
174.600000
0
LINE
8
Layer 1
10
260.344863
20
157.200000
11
248.220507
21
178.200000
0
LINE
8
Layer 1
10
248.220507
20
178.200000
11
272.469218
21
178.200000
0
LINE
8
Layer 1
10
272.469218
20
178.200000
11
260.344863
21
157.200000
0
LINE
8
Layer 1
10
260.344863
20
157.200000
11
260.344863
21
157.200000
0
LINE
8
Layer 1
10
260.344863
20
206.400000
11
272.469218
21
185.400000
0
LINE
8
Layer 1
10
272.469218
20
185.400000
11
248.220507
21
185.400000
0
LINE
8
Layer 1
10
248.220507
20
185.400000
11
260.344863
21
206.400000
0
LINE
8
Layer 1
10
260.344863
20
206.400000
11
260.344863
21
206.400000
0
LINE
8
Layer 1
10
278.704601
20
189.000000
11
266.580246
21
210.000000
0
LINE
8
Layer 1
10
266.580246
20
210.000000
11
290.828957
21
210.000000
0
LINE
8
Layer 1
10
290.828957
20
210.000000
11
278.704601
21
189.000000
0
LINE
8
Layer 1
10
278.704601
20
189.000000
11
278.704601
21
189.000000
0
LINE
8
Layer 1
10
241.985124
20
111.000000
11
254.109480
21
90.000000
0
LINE
8
Layer 1
10
254.109480
20
90.000000
11
229.860769
21
90.000000
0
LINE
8
Layer 1
10
229.860769
20
90.000000
11
241.985124
21
111.000000
0
LINE
8
Layer 1
10
241.985124
20
111.000000
11
241.985124
21
111.000000
0
LINE
8
Layer 1
10
260.344863
20
93.600000
11
248.220507
21
114.600000
0
LINE
8
Layer 1
10
248.220507
20
114.600000
11
272.469218
21
114.600000
0
LINE
8
Layer 1
10
272.469218
20
114.600000
11
260.344863
21
93.600000
0
LINE
8
Layer 1
10
260.344863
20
93.600000
11
260.344863
21
93.600000
0
LINE
8
Layer 1
10
260.344863
20
142.800000
11
272.469218
21
121.800000
0
LINE
8
Layer 1
10
272.469218
20
121.800000
11
248.220507
21
121.800000
0
LINE
8
Layer 1
10
248.220507
20
121.800000
11
260.344863
21
142.800000
0
LINE
8
Layer 1
10
260.344863
20
142.800000
11
260.344863
21
142.800000
0
LINE
8
Layer 1
10
278.704601
20
125.400000
11
266.580246
21
146.400000
0
LINE
8
Layer 1
10
266.580246
20
146.400000
11
290.828957
21
146.400000
0
LINE
8
Layer 1
10
290.828957
20
146.400000
11
278.704601
21
125.400000
0
LINE
8
Layer 1
10
278.704601
20
125.400000
11
278.704601
21
125.400000
0
LINE
8
Layer 1
10
278.704601
20
174.600000
11
290.828957
21
153.600000
0
LINE
8
Layer 1
10
290.828957
20
153.600000
11
266.580246
21
153.600000
0
LINE
8
Layer 1
10
266.580246
20
153.600000
11
278.704601
21
174.600000
0
LINE
8
Layer 1
10
278.704601
20
174.600000
11
278.704601
21
174.600000
0
LINE
8
Layer 1
10
297.064340
20
157.200000
11
284.939984
21
178.200000
0
LINE
8
Layer 1
10
284.939984
20
178.200000
11
309.188695
21
178.200000
0
LINE
8
Layer 1
10
309.188695
20
178.200000
11
297.064340
21
157.200000
0
LINE
8
Layer 1
10
297.064340
20
157.200000
11
297.064340
21
157.200000
0
LINE
8
Layer 1
10
297.064340
20
206.400000
11
309.188695
21
185.400000
0
LINE
8
Layer 1
10
309.188695
20
185.400000
11
284.939984
21
185.400000
0
LINE
8
Layer 1
10
284.939984
20
185.400000
11
297.064340
21
206.400000
0
LINE
8
Layer 1
10
297.064340
20
206.400000
11
297.064340
21
206.400000
0
LINE
8
Layer 1
10
315.424078
20
189.000000
11
303.299723
21
210.000000
0
LINE
8
Layer 1
10
303.299723
20
210.000000
11
327.548434
21
210.000000
0
LINE
8
Layer 1
10
327.548434
20
210.000000
11
315.424078
21
189.000000
0
LINE
8
Layer 1
10
315.424078
20
189.000000
11
315.424078
21
189.000000
0
LINE
8
Layer 1
10
278.704601
20
111.000000
11
290.828957
21
90.000000
0
LINE
8
Layer 1
10
290.828957
20
90.000000
11
266.580246
21
90.000000
0
LINE
8
Layer 1
10
266.580246
20
90.000000
11
278.704601
21
111.000000
0
LINE
8
Layer 1
10
278.704601
20
111.000000
11
278.704601
21
111.000000
0
LINE
8
Layer 1
10
297.064340
20
93.600000
11
284.939984
21
114.600000
0
LINE
8
Layer 1
10
284.939984
20
114.600000
11
309.188695
21
114.600000
0
LINE
8
Layer 1
10
309.188695
20
114.600000
11
297.064340
21
93.600000
0
LINE
8
Layer 1
10
297.064340
20
93.600000
11
297.064340
21
93.600000
0
LINE
8
Layer 1
10
297.064340
20
142.800000
11
309.188695
21
121.800000
0
LINE
8
Layer 1
10
309.188695
20
121.800000
11
284.939984
21
121.800000
0
LINE
8
Layer 1
10
284.939984
20
121.800000
11
297.064340
21
142.800000
0
LINE
8
Layer 1
10
297.064340
20
142.800000
11
297.064340
21
142.800000
0
LINE
8
Layer 1
10
315.424078
20
125.400000
11
303.299723
21
146.400000
0
LINE
8
Layer 1
10
303.299723
20
146.400000
11
327.548434
21
146.400000
0
LINE
8
Layer 1
10
327.548434
20
146.400000
11
315.424078
21
125.400000
0
LINE
8
Layer 1
10
315.424078
20
125.400000
11
315.424078
21
125.400000
0
LINE
8
Layer 1
10
315.424078
20
174.600000
11
327.548434
21
153.600000
0
LINE
8
Layer 1
10
327.548434
20
153.600000
11
303.299723
21
153.600000
0
LINE
8
Layer 1
10
303.299723
20
153.600000
11
315.424078
21
174.600000
0
LINE
8
Layer 1
10
315.424078
20
174.600000
11
315.424078
21
174.600000
0
LINE
8
Layer 1
10
333.783817
20
157.200000
11
321.659461
21
178.200000
0
LINE
8
Layer 1
10
321.659461
20
178.200000
11
345.908173
21
178.200000
0
LINE
8
Layer 1
10
345.908173
20
178.200000
11
333.783817
21
157.200000
0
LINE
8
Layer 1
10
333.783817
20
157.200000
11
333.783817
21
157.200000
0
LINE
8
Layer 1
10
333.783817
20
206.400000
11
345.908173
21
185.400000
0
LINE
8
Layer 1
10
345.908173
20
185.400000
11
321.659461
21
185.400000
0
LINE
8
Layer 1
10
321.659461
20
185.400000
11
333.783817
21
206.400000
0
LINE
8
Layer 1
10
333.783817
20
206.400000
11
333.783817
21
206.400000
0
LINE
8
Layer 1
10
352.143556
20
189.000000
11
340.019200
21
210.000000
0
LINE
8
Layer 1
10
340.019200
20
210.000000
11
364.267911
21
210.000000
0
LINE
8
Layer 1
10
364.267911
20
210.000000
11
352.143556
21
189.000000
0
LINE
8
Layer 1
10
352.143556
20
189.000000
11
352.143556
21
189.000000
0
LINE
8
Layer 1
10
315.424078
20
111.000000
11
327.548434
21
90.000000
0
LINE
8
Layer 1
10
327.548434
20
90.000000
11
303.299723
21
90.000000
0
LINE
8
Layer 1
10
303.299723
20
90.000000
11
315.424078
21
111.000000
0
LINE
8
Layer 1
10
315.424078
20
111.000000
11
315.424078
21
111.000000
0
LINE
8
Layer 1
10
333.783817
20
93.600000
11
321.659461
21
114.600000
0
LINE
8
Layer 1
10
321.659461
20
114.600000
11
345.908173
21
114.600000
0
LINE
8
Layer 1
10
345.908173
20
114.600000
11
333.783817
21
93.600000
0
LINE
8
Layer 1
10
333.783817
20
93.600000
11
333.783817
21
93.600000
0
LINE
8
Layer 1
10
333.783817
20
142.800000
11
345.908173
21
121.800000
0
LINE
8
Layer 1
10
345.908173
20
121.800000
11
321.659461
21
121.800000
0
LINE
8
Layer 1
10
321.659461
20
121.800000
11
333.783817
21
142.800000
0
LINE
8
Layer 1
10
333.783817
20
142.800000
11
333.783817
21
142.800000
0
LINE
8
Layer 1
10
352.143556
20
125.400000
11
340.019200
21
146.400000
0
LINE
8
Layer 1
10
340.019200
20
146.400000
11
364.267911
21
146.400000
0
LINE
8
Layer 1
10
364.267911
20
146.400000
11
352.143556
21
125.400000
0
LINE
8
Layer 1
10
352.143556
20
125.400000
11
352.143556
21
125.400000
0
LINE
8
Layer 1
10
352.143556
20
174.600000
11
364.267911
21
153.600000
0
LINE
8
Layer 1
10
364.267911
20
153.600000
11
340.019200
21
153.600000
0
LINE
8
Layer 1
10
340.019200
20
153.600000
11
352.143556
21
174.600000
0
LINE
8
Layer 1
10
352.143556
20
174.600000
11
352.143556
21
174.600000
0
LINE
8
Layer 1
10
370.503294
20
157.200000
11
358.378938
21
178.200000
0
LINE
8
Layer 1
10
358.378938
20
178.200000
11
382.627650
21
178.200000
0
LINE
8
Layer 1
10
382.627650
20
178.200000
11
370.503294
21
157.200000
0
LINE
8
Layer 1
10
370.503294
20
157.200000
11
370.503294
21
157.200000
0
LINE
8
Layer 1
10
370.503294
20
206.400000
11
382.627650
21
185.400000
0
LINE
8
Layer 1
10
382.627650
20
185.400000
11
358.378938
21
185.400000
0
LINE
8
Layer 1
10
358.378938
20
185.400000
11
370.503294
21
206.400000
0
LINE
8
Layer 1
10
370.503294
20
206.400000
11
370.503294
21
206.400000
0
LINE
8
Layer 1
10
388.863033
20
189.000000
11
376.738677
21
210.000000
0
LINE
8
Layer 1
10
376.738677
20
210.000000
11
400.987388
21
210.000000
0
LINE
8
Layer 1
10
400.987388
20
210.000000
11
388.863033
21
189.000000
0
LINE
8
Layer 1
10
388.863033
20
189.000000
11
388.863033
21
189.000000
0
LINE
8
Layer 1
10
352.143556
20
111.000000
11
364.267911
21
90.000000
0
LINE
8
Layer 1
10
364.267911
20
90.000000
11
340.019200
21
90.000000
0
LINE
8
Layer 1
10
340.019200
20
90.000000
11
352.143556
21
111.000000
0
LINE
8
Layer 1
10
352.143556
20
111.000000
11
352.143556
21
111.000000
0
LINE
8
Layer 1
10
370.503294
20
93.600000
11
358.378938
21
114.600000
0
LINE
8
Layer 1
10
358.378938
20
114.600000
11
382.627650
21
114.600000
0
LINE
8
Layer 1
10
382.627650
20
114.600000
11
370.503294
21
93.600000
0
LINE
8
Layer 1
10
370.503294
20
93.600000
11
370.503294
21
93.600000
0
LINE
8
Layer 1
10
370.503294
20
142.800000
11
382.627650
21
121.800000
0
LINE
8
Layer 1
10
382.627650
20
121.800000
11
358.378938
21
121.800000
0
LINE
8
Layer 1
10
358.378938
20
121.800000
11
370.503294
21
142.800000
0
LINE
8
Layer 1
10
370.503294
20
142.800000
11
370.503294
21
142.800000
0
LINE
8
Layer 1
10
388.863033
20
125.400000
11
376.738677
21
146.400000
0
LINE
8
Layer 1
10
376.738677
20
146.400000
11
400.987388
21
146.400000
0
LINE
8
Layer 1
10
400.987388
20
146.400000
11
388.863033
21
125.400000
0
LINE
8
Layer 1
10
388.863033
20
125.400000
11
388.863033
21
125.400000
0
LINE
8
Layer 1
10
388.863033
20
174.600000
11
400.987388
21
153.600000
0
LINE
8
Layer 1
10
400.987388
20
153.600000
11
376.738677
21
153.600000
0
LINE
8
Layer 1
10
376.738677
20
153.600000
11
388.863033
21
174.600000
0
LINE
8
Layer 1
10
388.863033
20
174.600000
11
388.863033
21
174.600000
0
LINE
8
Layer 1
10
407.222771
20
157.200000
11
395.098416
21
178.200000
0
LINE
8
Layer 1
10
395.098416
20
178.200000
11
419.347127
21
178.200000
0
LINE
8
Layer 1
10
419.347127
20
178.200000
11
407.222771
21
157.200000
0
LINE
8
Layer 1
10
407.222771
20
157.200000
11
407.222771
21
157.200000
0
LINE
8
Layer 1
10
407.222771
20
206.400000
11
419.347127
21
185.400000
0
LINE
8
Layer 1
10
419.347127
20
185.400000
11
395.098416
21
185.400000
0
LINE
8
Layer 1
10
395.098416
20
185.400000
11
407.222771
21
206.400000
0
LINE
8
Layer 1
10
407.222771
20
206.400000
11
407.222771
21
206.400000
0
LINE
8
Layer 1
10
425.582510
20
189.000000
11
413.458154
21
210.000000
0
LINE
8
Layer 1
10
413.458154
20
210.000000
11
437.706865
21
210.000000
0
LINE
8
Layer 1
10
437.706865
20
210.000000
11
425.582510
21
189.000000
0
LINE
8
Layer 1
10
425.582510
20
189.000000
11
425.582510
21
189.000000
0
LINE
8
Layer 1
10
388.863033
20
111.000000
11
400.987388
21
90.000000
0
LINE
8
Layer 1
10
400.987388
20
90.000000
11
376.738677
21
90.000000
0
LINE
8
Layer 1
10
376.738677
20
90.000000
11
388.863033
21
111.000000
0
LINE
8
Layer 1
10
388.863033
20
111.000000
11
388.863033
21
111.000000
0
LINE
8
Layer 1
10
407.222771
20
93.600000
11
395.098416
21
114.600000
0
LINE
8
Layer 1
10
395.098416
20
114.600000
11
419.347127
21
114.600000
0
LINE
8
Layer 1
10
419.347127
20
114.600000
11
407.222771
21
93.600000
0
LINE
8
Layer 1
10
407.222771
20
93.600000
11
407.222771
21
93.600000
0
LINE
8
Layer 1
10
407.222771
20
142.800000
11
419.347127
21
121.800000
0
LINE
8
Layer 1
10
419.347127
20
121.800000
11
395.098416
21
121.800000
0
LINE
8
Layer 1
10
395.098416
20
121.800000
11
407.222771
21
142.800000
0
LINE
8
Layer 1
10
407.222771
20
142.800000
11
407.222771
21
142.800000
0
LINE
8
Layer 1
10
425.582510
20
125.400000
11
413.458154
21
146.400000
0
LINE
8
Layer 1
10
413.458154
20
146.400000
11
437.706865
21
146.400000
0
LINE
8
Layer 1
10
437.706865
20
146.400000
11
425.582510
21
125.400000
0
LINE
8
Layer 1
10
425.582510
20
125.400000
11
425.582510
21
125.400000
0
LINE
8
Layer 1
10
425.582510
20
174.600000
11
437.706865
21
153.600000
0
LINE
8
Layer 1
10
437.706865
20
153.600000
11
413.458154
21
153.600000
0
LINE
8
Layer 1
10
413.458154
20
153.600000
11
425.582510
21
174.600000
0
LINE
8
Layer 1
10
425.582510
20
174.600000
11
425.582510
21
174.600000
0
LINE
8
Layer 1
10
443.942248
20
157.200000
11
431.817893
21
178.200000
0
LINE
8
Layer 1
10
431.817893
20
178.200000
11
456.066604
21
178.200000
0
LINE
8
Layer 1
10
456.066604
20
178.200000
11
443.942248
21
157.200000
0
LINE
8
Layer 1
10
443.942248
20
157.200000
11
443.942248
21
157.200000
0
LINE
8
Layer 1
10
443.942248
20
206.400000
11
456.066604
21
185.400000
0
LINE
8
Layer 1
10
456.066604
20
185.400000
11
431.817893
21
185.400000
0
LINE
8
Layer 1
10
431.817893
20
185.400000
11
443.942248
21
206.400000
0
LINE
8
Layer 1
10
443.942248
20
206.400000
11
443.942248
21
206.400000
0
LINE
8
Layer 1
10
462.301987
20
189.000000
11
450.177631
21
210.000000
0
LINE
8
Layer 1
10
450.177631
20
210.000000
11
474.426343
21
210.000000
0
LINE
8
Layer 1
10
474.426343
20
210.000000
11
462.301987
21
189.000000
0
LINE
8
Layer 1
10
462.301987
20
189.000000
11
462.301987
21
189.000000
0
LINE
8
Layer 1
10
425.582510
20
111.000000
11
437.706865
21
90.000000
0
LINE
8
Layer 1
10
437.706865
20
90.000000
11
413.458154
21
90.000000
0
LINE
8
Layer 1
10
413.458154
20
90.000000
11
425.582510
21
111.000000
0
LINE
8
Layer 1
10
425.582510
20
111.000000
11
425.582510
21
111.000000
0
LINE
8
Layer 1
10
443.942248
20
93.600000
11
431.817893
21
114.600000
0
LINE
8
Layer 1
10
431.817893
20
114.600000
11
456.066604
21
114.600000
0
LINE
8
Layer 1
10
456.066604
20
114.600000
11
443.942248
21
93.600000
0
LINE
8
Layer 1
10
443.942248
20
93.600000
11
443.942248
21
93.600000
0
LINE
8
Layer 1
10
443.942248
20
142.800000
11
456.066604
21
121.800000
0
LINE
8
Layer 1
10
456.066604
20
121.800000
11
431.817893
21
121.800000
0
LINE
8
Layer 1
10
431.817893
20
121.800000
11
443.942248
21
142.800000
0
LINE
8
Layer 1
10
443.942248
20
142.800000
11
443.942248
21
142.800000
0
LINE
8
Layer 1
10
462.301987
20
125.400000
11
450.177631
21
146.400000
0
LINE
8
Layer 1
10
450.177631
20
146.400000
11
474.426343
21
146.400000
0
LINE
8
Layer 1
10
474.426343
20
146.400000
11
462.301987
21
125.400000
0
LINE
8
Layer 1
10
462.301987
20
125.400000
11
462.301987
21
125.400000
0
LINE
8
Layer 1
10
462.301987
20
174.600000
11
474.426343
21
153.600000
0
LINE
8
Layer 1
10
474.426343
20
153.600000
11
450.177631
21
153.600000
0
LINE
8
Layer 1
10
450.177631
20
153.600000
11
462.301987
21
174.600000
0
LINE
8
Layer 1
10
462.301987
20
174.600000
11
462.301987
21
174.600000
0
LINE
8
Layer 1
10
480.661725
20
157.200000
11
468.537370
21
178.200000
0
LINE
8
Layer 1
10
468.537370
20
178.200000
11
492.786081
21
178.200000
0
LINE
8
Layer 1
10
492.786081
20
178.200000
11
480.661725
21
157.200000
0
LINE
8
Layer 1
10
480.661725
20
157.200000
11
480.661725
21
157.200000
0
LINE
8
Layer 1
10
480.661725
20
206.400000
11
492.786081
21
185.400000
0
LINE
8
Layer 1
10
492.786081
20
185.400000
11
468.537370
21
185.400000
0
LINE
8
Layer 1
10
468.537370
20
185.400000
11
480.661725
21
206.400000
0
LINE
8
Layer 1
10
480.661725
20
206.400000
11
480.661725
21
206.400000
0
LINE
8
Layer 1
10
499.021464
20
189.000000
11
486.897108
21
210.000000
0
LINE
8
Layer 1
10
486.897108
20
210.000000
11
511.145820
21
210.000000
0
LINE
8
Layer 1
10
511.145820
20
210.000000
11
499.021464
21
189.000000
0
LINE
8
Layer 1
10
499.021464
20
189.000000
11
499.021464
21
189.000000
0
LINE
8
Layer 1
10
462.301987
20
111.000000
11
474.426343
21
90.000000
0
LINE
8
Layer 1
10
474.426343
20
90.000000
11
450.177631
21
90.000000
0
LINE
8
Layer 1
10
450.177631
20
90.000000
11
462.301987
21
111.000000
0
LINE
8
Layer 1
10
462.301987
20
111.000000
11
462.301987
21
111.000000
0
LINE
8
Layer 1
10
480.661725
20
93.600000
11
468.537370
21
114.600000
0
LINE
8
Layer 1
10
468.537370
20
114.600000
11
492.786081
21
114.600000
0
LINE
8
Layer 1
10
492.786081
20
114.600000
11
480.661725
21
93.600000
0
LINE
8
Layer 1
10
480.661725
20
93.600000
11
480.661725
21
93.600000
0
LINE
8
Layer 1
10
480.661725
20
142.800000
11
492.786081
21
121.800000
0
LINE
8
Layer 1
10
492.786081
20
121.800000
11
468.537370
21
121.800000
0
LINE
8
Layer 1
10
468.537370
20
121.800000
11
480.661725
21
142.800000
0
LINE
8
Layer 1
10
480.661725
20
142.800000
11
480.661725
21
142.800000
0
LINE
8
Layer 1
10
499.021464
20
125.400000
11
486.897108
21
146.400000
0
LINE
8
Layer 1
10
486.897108
20
146.400000
11
511.145820
21
146.400000
0
LINE
8
Layer 1
10
511.145820
20
146.400000
11
499.021464
21
125.400000
0
LINE
8
Layer 1
10
499.021464
20
125.400000
11
499.021464
21
125.400000
0
LINE
8
Layer 1
10
499.021464
20
174.600000
11
511.145820
21
153.600000
0
LINE
8
Layer 1
10
511.145820
20
153.600000
11
486.897108
21
153.600000
0
LINE
8
Layer 1
10
486.897108
20
153.600000
11
499.021464
21
174.600000
0
LINE
8
Layer 1
10
499.021464
20
174.600000
11
499.021464
21
174.600000
0
LINE
8
Layer 1
10
517.381203
20
157.200000
11
505.256847
21
178.200000
0
LINE
8
Layer 1
10
505.256847
20
178.200000
11
529.505558
21
178.200000
0
LINE
8
Layer 1
10
529.505558
20
178.200000
11
517.381203
21
157.200000
0
LINE
8
Layer 1
10
517.381203
20
157.200000
11
517.381203
21
157.200000
0
LINE
8
Layer 1
10
517.381203
20
206.400000
11
529.505558
21
185.400000
0
LINE
8
Layer 1
10
529.505558
20
185.400000
11
505.256847
21
185.400000
0
LINE
8
Layer 1
10
505.256847
20
185.400000
11
517.381203
21
206.400000
0
LINE
8
Layer 1
10
517.381203
20
206.400000
11
517.381203
21
206.400000
0
LINE
8
Layer 1
10
535.740941
20
189.000000
11
523.616585
21
210.000000
0
LINE
8
Layer 1
10
523.616585
20
210.000000
11
547.865297
21
210.000000
0
LINE
8
Layer 1
10
547.865297
20
210.000000
11
535.740941
21
189.000000
0
LINE
8
Layer 1
10
535.740941
20
189.000000
11
535.740941
21
189.000000
0
LINE
8
Layer 1
10
499.021464
20
111.000000
11
511.145820
21
90.000000
0
LINE
8
Layer 1
10
511.145820
20
90.000000
11
486.897108
21
90.000000
0
LINE
8
Layer 1
10
486.897108
20
90.000000
11
499.021464
21
111.000000
0
LINE
8
Layer 1
10
499.021464
20
111.000000
11
499.021464
21
111.000000
0
LINE
8
Layer 1
10
517.381203
20
93.600000
11
505.256847
21
114.600000
0
LINE
8
Layer 1
10
505.256847
20
114.600000
11
529.505558
21
114.600000
0
LINE
8
Layer 1
10
529.505558
20
114.600000
11
517.381203
21
93.600000
0
LINE
8
Layer 1
10
517.381203
20
93.600000
11
517.381203
21
93.600000
0
LINE
8
Layer 1
10
517.381203
20
142.800000
11
529.505558
21
121.800000
0
LINE
8
Layer 1
10
529.505558
20
121.800000
11
505.256847
21
121.800000
0
LINE
8
Layer 1
10
505.256847
20
121.800000
11
517.381203
21
142.800000
0
LINE
8
Layer 1
10
517.381203
20
142.800000
11
517.381203
21
142.800000
0
LINE
8
Layer 1
10
535.740941
20
125.400000
11
523.616585
21
146.400000
0
LINE
8
Layer 1
10
523.616585
20
146.400000
11
547.865297
21
146.400000
0
LINE
8
Layer 1
10
547.865297
20
146.400000
11
535.740941
21
125.400000
0
LINE
8
Layer 1
10
535.740941
20
125.400000
11
535.740941
21
125.400000
0
LINE
8
Layer 1
10
535.740941
20
174.600000
11
547.865297
21
153.600000
0
LINE
8
Layer 1
10
547.865297
20
153.600000
11
523.616585
21
153.600000
0
LINE
8
Layer 1
10
523.616585
20
153.600000
11
535.740941
21
174.600000
0
LINE
8
Layer 1
10
535.740941
20
174.600000
11
535.740941
21
174.600000
0
LINE
8
Layer 1
10
554.100680
20
157.200000
11
541.976324
21
178.200000
0
LINE
8
Layer 1
10
541.976324
20
178.200000
11
566.225035
21
178.200000
0
LINE
8
Layer 1
10
566.225035
20
178.200000
11
554.100680
21
157.200000
0
LINE
8
Layer 1
10
554.100680
20
157.200000
11
554.100680
21
157.200000
0
LINE
8
Layer 1
10
554.100680
20
206.400000
11
566.225035
21
185.400000
0
LINE
8
Layer 1
10
566.225035
20
185.400000
11
541.976324
21
185.400000
0
LINE
8
Layer 1
10
541.976324
20
185.400000
11
554.100680
21
206.400000
0
LINE
8
Layer 1
10
554.100680
20
206.400000
11
554.100680
21
206.400000
0
LINE
8
Layer 1
10
572.460418
20
189.000000
11
560.336063
21
210.000000
0
LINE
8
Layer 1
10
560.336063
20
210.000000
11
584.584774
21
210.000000
0
LINE
8
Layer 1
10
584.584774
20
210.000000
11
572.460418
21
189.000000
0
LINE
8
Layer 1
10
572.460418
20
189.000000
11
572.460418
21
189.000000
0
LINE
8
Layer 1
10
535.740941
20
111.000000
11
547.865297
21
90.000000
0
LINE
8
Layer 1
10
547.865297
20
90.000000
11
523.616585
21
90.000000
0
LINE
8
Layer 1
10
523.616585
20
90.000000
11
535.740941
21
111.000000
0
LINE
8
Layer 1
10
535.740941
20
111.000000
11
535.740941
21
111.000000
0
LINE
8
Layer 1
10
554.100680
20
93.600000
11
541.976324
21
114.600000
0
LINE
8
Layer 1
10
541.976324
20
114.600000
11
566.225035
21
114.600000
0
LINE
8
Layer 1
10
566.225035
20
114.600000
11
554.100680
21
93.600000
0
LINE
8
Layer 1
10
554.100680
20
93.600000
11
554.100680
21
93.600000
0
LINE
8
Layer 1
10
554.100680
20
142.800000
11
566.225035
21
121.800000
0
LINE
8
Layer 1
10
566.225035
20
121.800000
11
541.976324
21
121.800000
0
LINE
8
Layer 1
10
541.976324
20
121.800000
11
554.100680
21
142.800000
0
LINE
8
Layer 1
10
554.100680
20
142.800000
11
554.100680
21
142.800000
0
LINE
8
Layer 1
10
572.460418
20
125.400000
11
560.336063
21
146.400000
0
LINE
8
Layer 1
10
560.336063
20
146.400000
11
584.584774
21
146.400000
0
LINE
8
Layer 1
10
584.584774
20
146.400000
11
572.460418
21
125.400000
0
LINE
8
Layer 1
10
572.460418
20
125.400000
11
572.460418
21
125.400000
0
LINE
8
Layer 1
10
572.460418
20
174.600000
11
584.584774
21
153.600000
0
LINE
8
Layer 1
10
584.584774
20
153.600000
11
560.336063
21
153.600000
0
LINE
8
Layer 1
10
560.336063
20
153.600000
11
572.460418
21
174.600000
0
LINE
8
Layer 1
10
572.460418
20
174.600000
11
572.460418
21
174.600000
0
LINE
8
Layer 1
10
590.820157
20
157.200000
11
578.695801
21
178.200000
0
LINE
8
Layer 1
10
578.695801
20
178.200000
11
602.944512
21
178.200000
0
LINE
8
Layer 1
10
602.944512
20
178.200000
11
590.820157
21
157.200000
0
LINE
8
Layer 1
10
590.820157
20
157.200000
11
590.820157
21
157.200000
0
LINE
8
Layer 1
10
590.820157
20
206.400000
11
602.944512
21
185.400000
0
LINE
8
Layer 1
10
602.944512
20
185.400000
11
578.695801
21
185.400000
0
LINE
8
Layer 1
10
578.695801
20
185.400000
11
590.820157
21
206.400000
0
LINE
8
Layer 1
10
590.820157
20
206.400000
11
590.820157
21
206.400000
0
LINE
8
Layer 1
10
609.179895
20
189.000000
11
597.055540
21
210.000000
0
LINE
8
Layer 1
10
597.055540
20
210.000000
11
621.304251
21
210.000000
0
LINE
8
Layer 1
10
621.304251
20
210.000000
11
609.179895
21
189.000000
0
LINE
8
Layer 1
10
609.179895
20
189.000000
11
609.179895
21
189.000000
0
LINE
8
Layer 1
10
572.460418
20
111.000000
11
584.584774
21
90.000000
0
LINE
8
Layer 1
10
584.584774
20
90.000000
11
560.336063
21
90.000000
0
LINE
8
Layer 1
10
560.336063
20
90.000000
11
572.460418
21
111.000000
0
LINE
8
Layer 1
10
572.460418
20
111.000000
11
572.460418
21
111.000000
0
LINE
8
Layer 1
10
590.820157
20
93.600000
11
578.695801
21
114.600000
0
LINE
8
Layer 1
10
578.695801
20
114.600000
11
602.944512
21
114.600000
0
LINE
8
Layer 1
10
602.944512
20
114.600000
11
590.820157
21
93.600000
0
LINE
8
Layer 1
10
590.820157
20
93.600000
11
590.820157
21
93.600000
0
LINE
8
Layer 1
10
590.820157
20
142.800000
11
602.944512
21
121.800000
0
LINE
8
Layer 1
10
602.944512
20
121.800000
11
578.695801
21
121.800000
0
LINE
8
Layer 1
10
578.695801
20
121.800000
11
590.820157
21
142.800000
0
LINE
8
Layer 1
10
590.820157
20
142.800000
11
590.820157
21
142.800000
0
LINE
8
Layer 1
10
609.179895
20
125.400000
11
597.055540
21
146.400000
0
LINE
8
Layer 1
10
597.055540
20
146.400000
11
621.304251
21
146.400000
0
LINE
8
Layer 1
10
621.304251
20
146.400000
11
609.179895
21
125.400000
0
LINE
8
Layer 1
10
609.179895
20
125.400000
11
609.179895
21
125.400000
0
LINE
8
Layer 1
10
609.179895
20
174.600000
11
621.304251
21
153.600000
0
LINE
8
Layer 1
10
621.304251
20
153.600000
11
597.055540
21
153.600000
0
LINE
8
Layer 1
10
597.055540
20
153.600000
11
609.179895
21
174.600000
0
LINE
8
Layer 1
10
609.179895
20
174.600000
11
609.179895
21
174.600000
0
LINE
8
Layer 1
10
627.539634
20
157.200000
11
615.415278
21
178.200000
0
LINE
8
Layer 1
10
615.415278
20
178.200000
11
639.663990
21
178.200000
0
LINE
8
Layer 1
10
639.663990
20
178.200000
11
627.539634
21
157.200000
0
LINE
8
Layer 1
10
627.539634
20
157.200000
11
627.539634
21
157.200000
0
LINE
8
Layer 1
10
627.539634
20
206.400000
11
639.663990
21
185.400000
0
LINE
8
Layer 1
10
639.663990
20
185.400000
11
615.415278
21
185.400000
0
LINE
8
Layer 1
10
615.415278
20
185.400000
11
627.539634
21
206.400000
0
LINE
8
Layer 1
10
627.539634
20
206.400000
11
627.539634
21
206.400000
0
LINE
8
Layer 1
10
645.899372
20
189.000000
11
633.775017
21
210.000000
0
LINE
8
Layer 1
10
633.775017
20
210.000000
11
658.023728
21
210.000000
0
LINE
8
Layer 1
10
658.023728
20
210.000000
11
645.899372
21
189.000000
0
LINE
8
Layer 1
10
645.899372
20
189.000000
11
645.899372
21
189.000000
0
LINE
8
Layer 1
10
609.179895
20
111.000000
11
621.304251
21
90.000000
0
LINE
8
Layer 1
10
621.304251
20
90.000000
11
597.055540
21
90.000000
0
LINE
8
Layer 1
10
597.055540
20
90.000000
11
609.179895
21
111.000000
0
LINE
8
Layer 1
10
609.179895
20
111.000000
11
609.179895
21
111.000000
0
LINE
8
Layer 1
10
627.539634
20
93.600000
11
615.415278
21
114.600000
0
LINE
8
Layer 1
10
615.415278
20
114.600000
11
639.663990
21
114.600000
0
LINE
8
Layer 1
10
639.663990
20
114.600000
11
627.539634
21
93.600000
0
LINE
8
Layer 1
10
627.539634
20
93.600000
11
627.539634
21
93.600000
0
LINE
8
Layer 1
10
627.539634
20
142.800000
11
639.663990
21
121.800000
0
LINE
8
Layer 1
10
639.663990
20
121.800000
11
615.415278
21
121.800000
0
LINE
8
Layer 1
10
615.415278
20
121.800000
11
627.539634
21
142.800000
0
LINE
8
Layer 1
10
627.539634
20
142.800000
11
627.539634
21
142.800000
0
LINE
8
Layer 1
10
645.899372
20
125.400000
11
633.775017
21
146.400000
0
LINE
8
Layer 1
10
633.775017
20
146.400000
11
658.023728
21
146.400000
0
LINE
8
Layer 1
10
658.023728
20
146.400000
11
645.899372
21
125.400000
0
LINE
8
Layer 1
10
645.899372
20
125.400000
11
645.899372
21
125.400000
0
LINE
8
Layer 1
10
645.899372
20
174.600000
11
658.023728
21
153.600000
0
LINE
8
Layer 1
10
658.023728
20
153.600000
11
633.775017
21
153.600000
0
LINE
8
Layer 1
10
633.775017
20
153.600000
11
645.899372
21
174.600000
0
LINE
8
Layer 1
10
645.899372
20
174.600000
11
645.899372
21
174.600000
0
LINE
8
Layer 1
10
664.259111
20
157.200000
11
652.134755
21
178.200000
0
LINE
8
Layer 1
10
652.134755
20
178.200000
11
676.383467
21
178.200000
0
LINE
8
Layer 1
10
676.383467
20
178.200000
11
664.259111
21
157.200000
0
LINE
8
Layer 1
10
664.259111
20
157.200000
11
664.259111
21
157.200000
0
LINE
8
Layer 1
10
664.259111
20
206.400000
11
676.383467
21
185.400000
0
LINE
8
Layer 1
10
676.383467
20
185.400000
11
652.134755
21
185.400000
0
LINE
8
Layer 1
10
652.134755
20
185.400000
11
664.259111
21
206.400000
0
LINE
8
Layer 1
10
664.259111
20
206.400000
11
664.259111
21
206.400000
0
LINE
8
Layer 1
10
682.618850
20
189.000000
11
670.494494
21
210.000000
0
LINE
8
Layer 1
10
670.494494
20
210.000000
11
694.743205
21
210.000000
0
LINE
8
Layer 1
10
694.743205
20
210.000000
11
682.618850
21
189.000000
0
LINE
8
Layer 1
10
682.618850
20
189.000000
11
682.618850
21
189.000000
0
LINE
8
Layer 1
10
645.899372
20
111.000000
11
658.023728
21
90.000000
0
LINE
8
Layer 1
10
658.023728
20
90.000000
11
633.775017
21
90.000000
0
LINE
8
Layer 1
10
633.775017
20
90.000000
11
645.899372
21
111.000000
0
LINE
8
Layer 1
10
645.899372
20
111.000000
11
645.899372
21
111.000000
0
LINE
8
Layer 1
10
664.259111
20
93.600000
11
652.134755
21
114.600000
0
LINE
8
Layer 1
10
652.134755
20
114.600000
11
676.383467
21
114.600000
0
LINE
8
Layer 1
10
676.383467
20
114.600000
11
664.259111
21
93.600000
0
LINE
8
Layer 1
10
664.259111
20
93.600000
11
664.259111
21
93.600000
0
LINE
8
Layer 1
10
664.259111
20
142.800000
11
676.383467
21
121.800000
0
LINE
8
Layer 1
10
676.383467
20
121.800000
11
652.134755
21
121.800000
0
LINE
8
Layer 1
10
652.134755
20
121.800000
11
664.259111
21
142.800000
0
LINE
8
Layer 1
10
664.259111
20
142.800000
11
664.259111
21
142.800000
0
LINE
8
Layer 1
10
682.618850
20
125.400000
11
670.494494
21
146.400000
0
LINE
8
Layer 1
10
670.494494
20
146.400000
11
694.743205
21
146.400000
0
LINE
8
Layer 1
10
694.743205
20
146.400000
11
682.618850
21
125.400000
0
LINE
8
Layer 1
10
682.618850
20
125.400000
11
682.618850
21
125.400000
0
LINE
8
Layer 1
10
682.618850
20
174.600000
11
694.743205
21
153.600000
0
LINE
8
Layer 1
10
694.743205
20
153.600000
11
670.494494
21
153.600000
0
LINE
8
Layer 1
10
670.494494
20
153.600000
11
682.618850
21
174.600000
0
LINE
8
Layer 1
10
682.618850
20
174.600000
11
682.618850
21
174.600000
0
LINE
8
Layer 1
10
700.978588
20
157.200000
11
688.854233
21
178.200000
0
LINE
8
Layer 1
10
688.854233
20
178.200000
11
713.102944
21
178.200000
0
LINE
8
Layer 1
10
713.102944
20
178.200000
11
700.978588
21
157.200000
0
LINE
8
Layer 1
10
700.978588
20
157.200000
11
700.978588
21
157.200000
0
LINE
8
Layer 1
10
700.978588
20
206.400000
11
713.102944
21
185.400000
0
LINE
8
Layer 1
10
713.102944
20
185.400000
11
688.854233
21
185.400000
0
LINE
8
Layer 1
10
688.854233
20
185.400000
11
700.978588
21
206.400000
0
LINE
8
Layer 1
10
700.978588
20
206.400000
11
700.978588
21
206.400000
0
LINE
8
Layer 1
10
719.338327
20
189.000000
11
707.213971
21
210.000000
0
LINE
8
Layer 1
10
707.213971
20
210.000000
11
731.462682
21
210.000000
0
LINE
8
Layer 1
10
731.462682
20
210.000000
11
719.338327
21
189.000000
0
LINE
8
Layer 1
10
719.338327
20
189.000000
11
719.338327
21
189.000000
0
LINE
8
Layer 1
10
682.618850
20
111.000000
11
694.743205
21
90.000000
0
LINE
8
Layer 1
10
694.743205
20
90.000000
11
670.494494
21
90.000000
0
LINE
8
Layer 1
10
670.494494
20
90.000000
11
682.618850
21
111.000000
0
LINE
8
Layer 1
10
682.618850
20
111.000000
11
682.618850
21
111.000000
0
LINE
8
Layer 1
10
700.978588
20
93.600000
11
688.854233
21
114.600000
0
LINE
8
Layer 1
10
688.854233
20
114.600000
11
713.102944
21
114.600000
0
LINE
8
Layer 1
10
713.102944
20
114.600000
11
700.978588
21
93.600000
0
LINE
8
Layer 1
10
700.978588
20
93.600000
11
700.978588
21
93.600000
0
LINE
8
Layer 1
10
700.978588
20
142.800000
11
713.102944
21
121.800000
0
LINE
8
Layer 1
10
713.102944
20
121.800000
11
688.854233
21
121.800000
0
LINE
8
Layer 1
10
688.854233
20
121.800000
11
700.978588
21
142.800000
0
LINE
8
Layer 1
10
700.978588
20
142.800000
11
700.978588
21
142.800000
0
LINE
8
Layer 1
10
719.338327
20
125.400000
11
707.213971
21
146.400000
0
LINE
8
Layer 1
10
707.213971
20
146.400000
11
731.462682
21
146.400000
0
LINE
8
Layer 1
10
731.462682
20
146.400000
11
719.338327
21
125.400000
0
LINE
8
Layer 1
10
719.338327
20
125.400000
11
719.338327
21
125.400000
0
LINE
8
Layer 1
10
719.338327
20
174.600000
11
731.462682
21
153.600000
0
LINE
8
Layer 1
10
731.462682
20
153.600000
11
707.213971
21
153.600000
0
LINE
8
Layer 1
10
707.213971
20
153.600000
11
719.338327
21
174.600000
0
LINE
8
Layer 1
10
719.338327
20
174.600000
11
719.338327
21
174.600000
0
LINE
8
Layer 1
10
737.698065
20
157.200000
11
725.573710
21
178.200000
0
LINE
8
Layer 1
10
725.573710
20
178.200000
11
749.822421
21
178.200000
0
LINE
8
Layer 1
10
749.822421
20
178.200000
11
737.698065
21
157.200000
0
LINE
8
Layer 1
10
737.698065
20
157.200000
11
737.698065
21
157.200000
0
LINE
8
Layer 1
10
737.698065
20
206.400000
11
749.822421
21
185.400000
0
LINE
8
Layer 1
10
749.822421
20
185.400000
11
725.573710
21
185.400000
0
LINE
8
Layer 1
10
725.573710
20
185.400000
11
737.698065
21
206.400000
0
LINE
8
Layer 1
10
737.698065
20
206.400000
11
737.698065
21
206.400000
0
LINE
8
Layer 1
10
756.057804
20
189.000000
11
743.933448
21
210.000000
0
LINE
8
Layer 1
10
743.933448
20
210.000000
11
768.182160
21
210.000000
0
LINE
8
Layer 1
10
768.182160
20
210.000000
11
756.057804
21
189.000000
0
LINE
8
Layer 1
10
756.057804
20
189.000000
11
756.057804
21
189.000000
0
LINE
8
Layer 1
10
719.338327
20
111.000000
11
731.462682
21
90.000000
0
LINE
8
Layer 1
10
731.462682
20
90.000000
11
707.213971
21
90.000000
0
LINE
8
Layer 1
10
707.213971
20
90.000000
11
719.338327
21
111.000000
0
LINE
8
Layer 1
10
719.338327
20
111.000000
11
719.338327
21
111.000000
0
LINE
8
Layer 1
10
737.698065
20
93.600000
11
725.573710
21
114.600000
0
LINE
8
Layer 1
10
725.573710
20
114.600000
11
749.822421
21
114.600000
0
LINE
8
Layer 1
10
749.822421
20
114.600000
11
737.698065
21
93.600000
0
LINE
8
Layer 1
10
737.698065
20
93.600000
11
737.698065
21
93.600000
0
LINE
8
Layer 1
10
737.698065
20
142.800000
11
749.822421
21
121.800000
0
LINE
8
Layer 1
10
749.822421
20
121.800000
11
725.573710
21
121.800000
0
LINE
8
Layer 1
10
725.573710
20
121.800000
11
737.698065
21
142.800000
0
LINE
8
Layer 1
10
737.698065
20
142.800000
11
737.698065
21
142.800000
0
LINE
8
Layer 1
10
756.057804
20
125.400000
11
743.933448
21
146.400000
0
LINE
8
Layer 1
10
743.933448
20
146.400000
11
768.182160
21
146.400000
0
LINE
8
Layer 1
10
768.182160
20
146.400000
11
756.057804
21
125.400000
0
LINE
8
Layer 1
10
756.057804
20
125.400000
11
756.057804
21
125.400000
0
LINE
8
Layer 1
10
756.057804
20
174.600000
11
768.182160
21
153.600000
0
LINE
8
Layer 1
10
768.182160
20
153.600000
11
743.933448
21
153.600000
0
LINE
8
Layer 1
10
743.933448
20
153.600000
11
756.057804
21
174.600000
0
LINE
8
Layer 1
10
756.057804
20
174.600000
11
756.057804
21
174.600000
0
LINE
8
Layer 1
10
774.417542
20
157.200000
11
762.293187
21
178.200000
0
LINE
8
Layer 1
10
762.293187
20
178.200000
11
786.541898
21
178.200000
0
LINE
8
Layer 1
10
786.541898
20
178.200000
11
774.417542
21
157.200000
0
LINE
8
Layer 1
10
774.417542
20
157.200000
11
774.417542
21
157.200000
0
LINE
8
Layer 1
10
774.417542
20
206.400000
11
786.541898
21
185.400000
0
LINE
8
Layer 1
10
786.541898
20
185.400000
11
762.293187
21
185.400000
0
LINE
8
Layer 1
10
762.293187
20
185.400000
11
774.417542
21
206.400000
0
LINE
8
Layer 1
10
774.417542
20
206.400000
11
774.417542
21
206.400000
0
LINE
8
Layer 1
10
792.777281
20
189.000000
11
780.652925
21
210.000000
0
LINE
8
Layer 1
10
780.652925
20
210.000000
11
804.901637
21
210.000000
0
LINE
8
Layer 1
10
804.901637
20
210.000000
11
792.777281
21
189.000000
0
LINE
8
Layer 1
10
792.777281
20
189.000000
11
792.777281
21
189.000000
0
LINE
8
Layer 1
10
756.057804
20
111.000000
11
768.182160
21
90.000000
0
LINE
8
Layer 1
10
768.182160
20
90.000000
11
743.933448
21
90.000000
0
LINE
8
Layer 1
10
743.933448
20
90.000000
11
756.057804
21
111.000000
0
LINE
8
Layer 1
10
756.057804
20
111.000000
11
756.057804
21
111.000000
0
LINE
8
Layer 1
10
774.417542
20
93.600000
11
762.293187
21
114.600000
0
LINE
8
Layer 1
10
762.293187
20
114.600000
11
786.541898
21
114.600000
0
LINE
8
Layer 1
10
786.541898
20
114.600000
11
774.417542
21
93.600000
0
LINE
8
Layer 1
10
774.417542
20
93.600000
11
774.417542
21
93.600000
0
LINE
8
Layer 1
10
774.417542
20
142.800000
11
786.541898
21
121.800000
0
LINE
8
Layer 1
10
786.541898
20
121.800000
11
762.293187
21
121.800000
0
LINE
8
Layer 1
10
762.293187
20
121.800000
11
774.417542
21
142.800000
0
LINE
8
Layer 1
10
774.417542
20
142.800000
11
774.417542
21
142.800000
0
LINE
8
Layer 1
10
792.777281
20
125.400000
11
780.652925
21
146.400000
0
LINE
8
Layer 1
10
780.652925
20
146.400000
11
804.901637
21
146.400000
0
LINE
8
Layer 1
10
804.901637
20
146.400000
11
792.777281
21
125.400000
0
LINE
8
Layer 1
10
792.777281
20
125.400000
11
792.777281
21
125.400000
0
LINE
8
Layer 1
10
792.777281
20
174.600000
11
804.901637
21
153.600000
0
LINE
8
Layer 1
10
804.901637
20
153.600000
11
780.652925
21
153.600000
0
LINE
8
Layer 1
10
780.652925
20
153.600000
11
792.777281
21
174.600000
0
LINE
8
Layer 1
10
792.777281
20
174.600000
11
792.777281
21
174.600000
0
LINE
8
Layer 1
10
811.137020
20
157.200000
11
799.012664
21
178.200000
0
LINE
8
Layer 1
10
799.012664
20
178.200000
11
823.261375
21
178.200000
0
LINE
8
Layer 1
10
823.261375
20
178.200000
11
811.137020
21
157.200000
0
LINE
8
Layer 1
10
811.137020
20
157.200000
11
811.137020
21
157.200000
0
LINE
8
Layer 1
10
811.137020
20
206.400000
11
823.261375
21
185.400000
0
LINE
8
Layer 1
10
823.261375
20
185.400000
11
799.012664
21
185.400000
0
LINE
8
Layer 1
10
799.012664
20
185.400000
11
811.137020
21
206.400000
0
LINE
8
Layer 1
10
811.137020
20
206.400000
11
811.137020
21
206.400000
0
LINE
8
Layer 1
10
829.496758
20
189.000000
11
817.372402
21
210.000000
0
LINE
8
Layer 1
10
817.372402
20
210.000000
11
841.621114
21
210.000000
0
LINE
8
Layer 1
10
841.621114
20
210.000000
11
829.496758
21
189.000000
0
LINE
8
Layer 1
10
829.496758
20
189.000000
11
829.496758
21
189.000000
0
LINE
8
Layer 1
10
792.777281
20
111.000000
11
804.901637
21
90.000000
0
LINE
8
Layer 1
10
804.901637
20
90.000000
11
780.652925
21
90.000000
0
LINE
8
Layer 1
10
780.652925
20
90.000000
11
792.777281
21
111.000000
0
LINE
8
Layer 1
10
792.777281
20
111.000000
11
792.777281
21
111.000000
0
LINE
8
Layer 1
10
811.137020
20
93.600000
11
799.012664
21
114.600000
0
LINE
8
Layer 1
10
799.012664
20
114.600000
11
823.261375
21
114.600000
0
LINE
8
Layer 1
10
823.261375
20
114.600000
11
811.137020
21
93.600000
0
LINE
8
Layer 1
10
811.137020
20
93.600000
11
811.137020
21
93.600000
0
LINE
8
Layer 1
10
811.137020
20
142.800000
11
823.261375
21
121.800000
0
LINE
8
Layer 1
10
823.261375
20
121.800000
11
799.012664
21
121.800000
0
LINE
8
Layer 1
10
799.012664
20
121.800000
11
811.137020
21
142.800000
0
LINE
8
Layer 1
10
811.137020
20
142.800000
11
811.137020
21
142.800000
0
LINE
8
Layer 1
10
829.496758
20
125.400000
11
817.372402
21
146.400000
0
LINE
8
Layer 1
10
817.372402
20
146.400000
11
841.621114
21
146.400000
0
LINE
8
Layer 1
10
841.621114
20
146.400000
11
829.496758
21
125.400000
0
LINE
8
Layer 1
10
829.496758
20
125.400000
11
829.496758
21
125.400000
0
LINE
8
Layer 1
10
829.496758
20
174.600000
11
841.621114
21
153.600000
0
LINE
8
Layer 1
10
841.621114
20
153.600000
11
817.372402
21
153.600000
0
LINE
8
Layer 1
10
817.372402
20
153.600000
11
829.496758
21
174.600000
0
LINE
8
Layer 1
10
829.496758
20
174.600000
11
829.496758
21
174.600000
0
LINE
8
Layer 1
10
847.856497
20
157.200000
11
835.732141
21
178.200000
0
LINE
8
Layer 1
10
835.732141
20
178.200000
11
859.980852
21
178.200000
0
LINE
8
Layer 1
10
859.980852
20
178.200000
11
847.856497
21
157.200000
0
LINE
8
Layer 1
10
847.856497
20
157.200000
11
847.856497
21
157.200000
0
LINE
8
Layer 1
10
847.856497
20
206.400000
11
859.980852
21
185.400000
0
LINE
8
Layer 1
10
859.980852
20
185.400000
11
835.732141
21
185.400000
0
LINE
8
Layer 1
10
835.732141
20
185.400000
11
847.856497
21
206.400000
0
LINE
8
Layer 1
10
847.856497
20
206.400000
11
847.856497
21
206.400000
0
LINE
8
Layer 1
10
866.216235
20
189.000000
11
854.091880
21
210.000000
0
LINE
8
Layer 1
10
854.091880
20
210.000000
11
878.340591
21
210.000000
0
LINE
8
Layer 1
10
878.340591
20
210.000000
11
866.216235
21
189.000000
0
LINE
8
Layer 1
10
866.216235
20
189.000000
11
866.216235
21
189.000000
0
LINE
8
Layer 1
10
829.496758
20
111.000000
11
841.621114
21
90.000000
0
LINE
8
Layer 1
10
841.621114
20
90.000000
11
817.372402
21
90.000000
0
LINE
8
Layer 1
10
817.372402
20
90.000000
11
829.496758
21
111.000000
0
LINE
8
Layer 1
10
829.496758
20
111.000000
11
829.496758
21
111.000000
0
LINE
8
Layer 1
10
847.856497
20
93.600000
11
835.732141
21
114.600000
0
LINE
8
Layer 1
10
835.732141
20
114.600000
11
859.980852
21
114.600000
0
LINE
8
Layer 1
10
859.980852
20
114.600000
11
847.856497
21
93.600000
0
LINE
8
Layer 1
10
847.856497
20
93.600000
11
847.856497
21
93.600000
0
LINE
8
Layer 1
10
847.856497
20
142.800000
11
859.980852
21
121.800000
0
LINE
8
Layer 1
10
859.980852
20
121.800000
11
835.732141
21
121.800000
0
LINE
8
Layer 1
10
835.732141
20
121.800000
11
847.856497
21
142.800000
0
LINE
8
Layer 1
10
847.856497
20
142.800000
11
847.856497
21
142.800000
0
LINE
8
Layer 1
10
866.216235
20
125.400000
11
854.091880
21
146.400000
0
LINE
8
Layer 1
10
854.091880
20
146.400000
11
878.340591
21
146.400000
0
LINE
8
Layer 1
10
878.340591
20
146.400000
11
866.216235
21
125.400000
0
LINE
8
Layer 1
10
866.216235
20
125.400000
11
866.216235
21
125.400000
0
LINE
8
Layer 1
10
866.216235
20
174.600000
11
878.340591
21
153.600000
0
LINE
8
Layer 1
10
878.340591
20
153.600000
11
854.091880
21
153.600000
0
LINE
8
Layer 1
10
854.091880
20
153.600000
11
866.216235
21
174.600000
0
LINE
8
Layer 1
10
866.216235
20
174.600000
11
866.216235
21
174.600000
0
LINE
8
Layer 1
10
884.575974
20
157.200000
11
872.451618
21
178.200000
0
LINE
8
Layer 1
10
872.451618
20
178.200000
11
896.700329
21
178.200000
0
LINE
8
Layer 1
10
896.700329
20
178.200000
11
884.575974
21
157.200000
0
LINE
8
Layer 1
10
884.575974
20
157.200000
11
884.575974
21
157.200000
0
LINE
8
Layer 1
10
884.575974
20
206.400000
11
896.700329
21
185.400000
0
LINE
8
Layer 1
10
896.700329
20
185.400000
11
872.451618
21
185.400000
0
LINE
8
Layer 1
10
872.451618
20
185.400000
11
884.575974
21
206.400000
0
LINE
8
Layer 1
10
884.575974
20
206.400000
11
884.575974
21
206.400000
0
LINE
8
Layer 1
10
902.935712
20
189.000000
11
890.811357
21
210.000000
0
LINE
8
Layer 1
10
890.811357
20
210.000000
11
915.060068
21
210.000000
0
LINE
8
Layer 1
10
915.060068
20
210.000000
11
902.935712
21
189.000000
0
LINE
8
Layer 1
10
902.935712
20
189.000000
11
902.935712
21
189.000000
0
LINE
8
Layer 1
10
866.216235
20
111.000000
11
878.340591
21
90.000000
0
LINE
8
Layer 1
10
878.340591
20
90.000000
11
854.091880
21
90.000000
0
LINE
8
Layer 1
10
854.091880
20
90.000000
11
866.216235
21
111.000000
0
LINE
8
Layer 1
10
866.216235
20
111.000000
11
866.216235
21
111.000000
0
LINE
8
Layer 1
10
884.575974
20
93.600000
11
872.451618
21
114.600000
0
LINE
8
Layer 1
10
872.451618
20
114.600000
11
896.700329
21
114.600000
0
LINE
8
Layer 1
10
896.700329
20
114.600000
11
884.575974
21
93.600000
0
LINE
8
Layer 1
10
884.575974
20
93.600000
11
884.575974
21
93.600000
0
LINE
8
Layer 1
10
884.575974
20
142.800000
11
896.700329
21
121.800000
0
LINE
8
Layer 1
10
896.700329
20
121.800000
11
872.451618
21
121.800000
0
LINE
8
Layer 1
10
872.451618
20
121.800000
11
884.575974
21
142.800000
0
LINE
8
Layer 1
10
884.575974
20
142.800000
11
884.575974
21
142.800000
0
LINE
8
Layer 1
10
902.935712
20
125.400000
11
890.811357
21
146.400000
0
LINE
8
Layer 1
10
890.811357
20
146.400000
11
915.060068
21
146.400000
0
LINE
8
Layer 1
10
915.060068
20
146.400000
11
902.935712
21
125.400000
0
LINE
8
Layer 1
10
902.935712
20
125.400000
11
902.935712
21
125.400000
0
LINE
8
Layer 1
10
902.935712
20
174.600000
11
915.060068
21
153.600000
0
LINE
8
Layer 1
10
915.060068
20
153.600000
11
890.811357
21
153.600000
0
LINE
8
Layer 1
10
890.811357
20
153.600000
11
902.935712
21
174.600000
0
LINE
8
Layer 1
10
902.935712
20
174.600000
11
902.935712
21
174.600000
0
LINE
8
Layer 1
10
921.295451
20
157.200000
11
909.171095
21
178.200000
0
LINE
8
Layer 1
10
909.171095
20
178.200000
11
933.419807
21
178.200000
0
LINE
8
Layer 1
10
933.419807
20
178.200000
11
921.295451
21
157.200000
0
LINE
8
Layer 1
10
921.295451
20
157.200000
11
921.295451
21
157.200000
0
LINE
8
Layer 1
10
921.295451
20
206.400000
11
933.419807
21
185.400000
0
LINE
8
Layer 1
10
933.419807
20
185.400000
11
909.171095
21
185.400000
0
LINE
8
Layer 1
10
909.171095
20
185.400000
11
921.295451
21
206.400000
0
LINE
8
Layer 1
10
921.295451
20
206.400000
11
921.295451
21
206.400000
0
LINE
8
Layer 1
10
939.655189
20
189.000000
11
927.530834
21
210.000000
0
LINE
8
Layer 1
10
927.530834
20
210.000000
11
951.779545
21
210.000000
0
LINE
8
Layer 1
10
951.779545
20
210.000000
11
939.655189
21
189.000000
0
LINE
8
Layer 1
10
939.655189
20
189.000000
11
939.655189
21
189.000000
0
LINE
8
Layer 1
10
902.935712
20
111.000000
11
915.060068
21
90.000000
0
LINE
8
Layer 1
10
915.060068
20
90.000000
11
890.811357
21
90.000000
0
LINE
8
Layer 1
10
890.811357
20
90.000000
11
902.935712
21
111.000000
0
LINE
8
Layer 1
10
902.935712
20
111.000000
11
902.935712
21
111.000000
0
LINE
8
Layer 1
10
921.295451
20
93.600000
11
909.171095
21
114.600000
0
LINE
8
Layer 1
10
909.171095
20
114.600000
11
933.419807
21
114.600000
0
LINE
8
Layer 1
10
933.419807
20
114.600000
11
921.295451
21
93.600000
0
LINE
8
Layer 1
10
921.295451
20
93.600000
11
921.295451
21
93.600000
0
LINE
8
Layer 1
10
921.295451
20
142.800000
11
933.419807
21
121.800000
0
LINE
8
Layer 1
10
933.419807
20
121.800000
11
909.171095
21
121.800000
0
LINE
8
Layer 1
10
909.171095
20
121.800000
11
921.295451
21
142.800000
0
LINE
8
Layer 1
10
921.295451
20
142.800000
11
921.295451
21
142.800000
0
LINE
8
Layer 1
10
939.655189
20
125.400000
11
927.530834
21
146.400000
0
LINE
8
Layer 1
10
927.530834
20
146.400000
11
951.779545
21
146.400000
0
LINE
8
Layer 1
10
951.779545
20
146.400000
11
939.655189
21
125.400000
0
LINE
8
Layer 1
10
939.655189
20
125.400000
11
939.655189
21
125.400000
0
LINE
8
Layer 1
10
939.655189
20
174.600000
11
951.779545
21
153.600000
0
LINE
8
Layer 1
10
951.779545
20
153.600000
11
927.530834
21
153.600000
0
LINE
8
Layer 1
10
927.530834
20
153.600000
11
939.655189
21
174.600000
0
LINE
8
Layer 1
10
939.655189
20
174.600000
11
939.655189
21
174.600000
0
LINE
8
Layer 1
10
958.014928
20
157.200000
11
945.890572
21
178.200000
0
LINE
8
Layer 1
10
945.890572
20
178.200000
11
970.139284
21
178.200000
0
LINE
8
Layer 1
10
970.139284
20
178.200000
11
958.014928
21
157.200000
0
LINE
8
Layer 1
10
958.014928
20
157.200000
11
958.014928
21
157.200000
0
LINE
8
Layer 1
10
958.014928
20
206.400000
11
970.139284
21
185.400000
0
LINE
8
Layer 1
10
970.139284
20
185.400000
11
945.890572
21
185.400000
0
LINE
8
Layer 1
10
945.890572
20
185.400000
11
958.014928
21
206.400000
0
LINE
8
Layer 1
10
958.014928
20
206.400000
11
958.014928
21
206.400000
0
LINE
8
Layer 1
10
976.374667
20
189.000000
11
964.250311
21
210.000000
0
LINE
8
Layer 1
10
964.250311
20
210.000000
11
988.499022
21
210.000000
0
LINE
8
Layer 1
10
988.499022
20
210.000000
11
976.374667
21
189.000000
0
LINE
8
Layer 1
10
976.374667
20
189.000000
11
976.374667
21
189.000000
0
LINE
8
Layer 1
10
939.655189
20
111.000000
11
951.779545
21
90.000000
0
LINE
8
Layer 1
10
951.779545
20
90.000000
11
927.530834
21
90.000000
0
LINE
8
Layer 1
10
927.530834
20
90.000000
11
939.655189
21
111.000000
0
LINE
8
Layer 1
10
939.655189
20
111.000000
11
939.655189
21
111.000000
0
LINE
8
Layer 1
10
958.014928
20
93.600000
11
945.890572
21
114.600000
0
LINE
8
Layer 1
10
945.890572
20
114.600000
11
970.139284
21
114.600000
0
LINE
8
Layer 1
10
970.139284
20
114.600000
11
958.014928
21
93.600000
0
LINE
8
Layer 1
10
958.014928
20
93.600000
11
958.014928
21
93.600000
0
LINE
8
Layer 1
10
958.014928
20
142.800000
11
970.139284
21
121.800000
0
LINE
8
Layer 1
10
970.139284
20
121.800000
11
945.890572
21
121.800000
0
LINE
8
Layer 1
10
945.890572
20
121.800000
11
958.014928
21
142.800000
0
LINE
8
Layer 1
10
958.014928
20
142.800000
11
958.014928
21
142.800000
0
LINE
8
Layer 1
10
976.374667
20
125.400000
11
964.250311
21
146.400000
0
LINE
8
Layer 1
10
964.250311
20
146.400000
11
988.499022
21
146.400000
0
LINE
8
Layer 1
10
988.499022
20
146.400000
11
976.374667
21
125.400000
0
LINE
8
Layer 1
10
976.374667
20
125.400000
11
976.374667
21
125.400000
0
LINE
8
Layer 1
10
976.374667
20
174.600000
11
988.499022
21
153.600000
0
LINE
8
Layer 1
10
988.499022
20
153.600000
11
964.250311
21
153.600000
0
LINE
8
Layer 1
10
964.250311
20
153.600000
11
976.374667
21
174.600000
0
LINE
8
Layer 1
10
976.374667
20
174.600000
11
976.374667
21
174.600000
0
LINE
8
Layer 1
10
994.734405
20
157.200000
11
982.610049
21
178.200000
0
LINE
8
Layer 1
10
982.610049
20
178.200000
11
1006.858761
21
178.200000
0
LINE
8
Layer 1
10
1006.858761
20
178.200000
11
994.734405
21
157.200000
0
LINE
8
Layer 1
10
994.734405
20
157.200000
11
994.734405
21
157.200000
0
LINE
8
Layer 1
10
994.734405
20
206.400000
11
1006.858761
21
185.400000
0
LINE
8
Layer 1
10
1006.858761
20
185.400000
11
982.610049
21
185.400000
0
LINE
8
Layer 1
10
982.610049
20
185.400000
11
994.734405
21
206.400000
0
LINE
8
Layer 1
10
994.734405
20
206.400000
11
994.734405
21
206.400000
0
LINE
8
Layer 1
10
1013.094144
20
189.000000
11
1000.969788
21
210.000000
0
LINE
8
Layer 1
10
1000.969788
20
210.000000
11
1025.218499
21
210.000000
0
LINE
8
Layer 1
10
1025.218499
20
210.000000
11
1013.094144
21
189.000000
0
LINE
8
Layer 1
10
1013.094144
20
189.000000
11
1013.094144
21
189.000000
0
LINE
8
Layer 1
10
976.374667
20
111.000000
11
988.499022
21
90.000000
0
LINE
8
Layer 1
10
988.499022
20
90.000000
11
964.250311
21
90.000000
0
LINE
8
Layer 1
10
964.250311
20
90.000000
11
976.374667
21
111.000000
0
LINE
8
Layer 1
10
976.374667
20
111.000000
11
976.374667
21
111.000000
0
LINE
8
Layer 1
10
994.734405
20
93.600000
11
982.610049
21
114.600000
0
LINE
8
Layer 1
10
982.610049
20
114.600000
11
1006.858761
21
114.600000
0
LINE
8
Layer 1
10
1006.858761
20
114.600000
11
994.734405
21
93.600000
0
LINE
8
Layer 1
10
994.734405
20
93.600000
11
994.734405
21
93.600000
0
LINE
8
Layer 1
10
994.734405
20
142.800000
11
1006.858761
21
121.800000
0
LINE
8
Layer 1
10
1006.858761
20
121.800000
11
982.610049
21
121.800000
0
LINE
8
Layer 1
10
982.610049
20
121.800000
11
994.734405
21
142.800000
0
LINE
8
Layer 1
10
994.734405
20
142.800000
11
994.734405
21
142.800000
0
LINE
8
Layer 1
10
1013.094144
20
125.400000
11
1000.969788
21
146.400000
0
LINE
8
Layer 1
10
1000.969788
20
146.400000
11
1025.218499
21
146.400000
0
LINE
8
Layer 1
10
1025.218499
20
146.400000
11
1013.094144
21
125.400000
0
LINE
8
Layer 1
10
1013.094144
20
125.400000
11
1013.094144
21
125.400000
0
LINE
8
Layer 1
10
1013.094144
20
174.600000
11
1025.218499
21
153.600000
0
LINE
8
Layer 1
10
1025.218499
20
153.600000
11
1000.969788
21
153.600000
0
LINE
8
Layer 1
10
1000.969788
20
153.600000
11
1013.094144
21
174.600000
0
LINE
8
Layer 1
10
1013.094144
20
174.600000
11
1013.094144
21
174.600000
0
LINE
8
Layer 1
10
1031.453882
20
157.200000
11
1019.329527
21
178.200000
0
LINE
8
Layer 1
10
1019.329527
20
178.200000
11
1043.578238
21
178.200000
0
LINE
8
Layer 1
10
1043.578238
20
178.200000
11
1031.453882
21
157.200000
0
LINE
8
Layer 1
10
1031.453882
20
157.200000
11
1031.453882
21
157.200000
0
LINE
8
Layer 1
10
1031.453882
20
206.400000
11
1043.578238
21
185.400000
0
LINE
8
Layer 1
10
1043.578238
20
185.400000
11
1019.329527
21
185.400000
0
LINE
8
Layer 1
10
1019.329527
20
185.400000
11
1031.453882
21
206.400000
0
LINE
8
Layer 1
10
1031.453882
20
206.400000
11
1031.453882
21
206.400000
0
LINE
8
Layer 1
10
1013.094144
20
111.000000
11
1025.218499
21
90.000000
0
LINE
8
Layer 1
10
1025.218499
20
90.000000
11
1000.969788
21
90.000000
0
LINE
8
Layer 1
10
1000.969788
20
90.000000
11
1013.094144
21
111.000000
0
LINE
8
Layer 1
10
1013.094144
20
111.000000
11
1013.094144
21
111.000000
0
LINE
8
Layer 1
10
1031.453882
20
93.600000
11
1019.329527
21
114.600000
0
LINE
8
Layer 1
10
1019.329527
20
114.600000
11
1043.578238
21
114.600000
0
LINE
8
Layer 1
10
1043.578238
20
114.600000
11
1031.453882
21
93.600000
0
LINE
8
Layer 1
10
1031.453882
20
93.600000
11
1031.453882
21
93.600000
0
LINE
8
Layer 1
10
1031.453882
20
142.800000
11
1043.578238
21
121.800000
0
LINE
8
Layer 1
10
1043.578238
20
121.800000
11
1019.329527
21
121.800000
0
LINE
8
Layer 1
10
1019.329527
20
121.800000
11
1031.453882
21
142.800000
0
LINE
8
Layer 1
10
1031.453882
20
142.800000
11
1031.453882
21
142.800000
0
LINE
8
Layer 1
10
151.750026
20
121.800000
11
151.750026
21
140.091774
0
LINE
8
Layer 1
10
151.750026
20
140.091774
11
162.310787
21
121.800000
0
LINE
8
Layer 1
10
162.310787
20
121.800000
11
151.750026
21
121.800000
0
LINE
8
Layer 1
10
151.750026
20
121.800000
11
151.750026
21
121.800000
0
LINE
8
Layer 1
10
1037.689265
20
153.600000
11
1048.250026
21
171.891774
0
LINE
8
Layer 1
10
1048.250026
20
171.891774
11
1048.250026
21
153.600000
0
LINE
8
Layer 1
10
1048.250026
20
153.600000
11
1037.689265
21
153.600000
0
LINE
8
Layer 1
10
1037.689265
20
153.600000
11
1037.689265
21
153.600000
0
LINE
8
Layer 1
10
1037.689265
20
210.000000
11
1048.250026
21
210.000000
0
LINE
8
Layer 1
10
1048.250026
20
210.000000
11
1048.250026
21
191.708226
0
LINE
8
Layer 1
10
1048.250026
20
191.708226
11
1037.689265
21
210.000000
0
LINE
8
Layer 1
10
1037.689265
20
210.000000
11
1037.689265
21
210.000000
0
LINE
8
Layer 1
10
1037.689265
20
90.000000
11
1048.250026
21
108.291774
0
LINE
8
Layer 1
10
1048.250026
20
108.291774
11
1048.250026
21
90.000000
0
LINE
8
Layer 1
10
1048.250026
20
90.000000
11
1037.689265
21
90.000000
0
LINE
8
Layer 1
10
1037.689265
20
90.000000
11
1037.689265
21
90.000000
0
LINE
8
Layer 1
10
151.750026
20
114.600000
11
162.310787
21
114.600000
0
LINE
8
Layer 1
10
162.310787
20
114.600000
11
151.750026
21
96.308226
0
LINE
8
Layer 1
10
151.750026
20
96.308226
11
151.750026
21
114.600000
0
LINE
8
Layer 1
10
151.750026
20
114.600000
11
151.750026
21
114.600000
0
LINE
8
Layer 1
10
1037.689265
20
146.400000
11
1048.250026
21
146.400000
0
LINE
8
Layer 1
10
1048.250026
20
146.400000
11
1048.250026
21
128.108226
0
LINE
8
Layer 1
10
1048.250026
20
128.108226
11
1037.689265
21
146.400000
0
LINE
8
Layer 1
10
1037.689265
20
146.400000
11
1037.689265
21
146.400000
0
LINE
8
Layer 1
10
151.750026
20
178.200000
11
162.310787
21
178.200000
0
LINE
8
Layer 1
10
162.310787
20
178.200000
11
151.750026
21
159.908226
0
LINE
8
Layer 1
10
151.750026
20
159.908226
11
151.750026
21
178.200000
0
LINE
8
Layer 1
10
151.750026
20
178.200000
11
151.750026
21
178.200000
0
LINE
8
Layer 1
10
151.750026
20
185.400000
11
151.750026
21
203.691774
0
LINE
8
Layer 1
10
151.750026
20
203.691774
11
162.310787
21
185.400000
0
LINE
8
Layer 1
10
162.310787
20
185.400000
11
151.750026
21
185.400000
0
LINE
8
Layer 1
10
151.750026
20
185.400000
11
151.750026
21
185.400000
0
LINE
8
Layer 1
10
147.750026
20
61.750000
11
1052.250026
21
61.750000
0
LINE
8
Layer 1
10
1052.250026
20
61.750000
11
1052.250026
21
238.250000
0
LINE
8
Layer 1
10
1052.250026
20
238.250000
11
147.750026
21
238.250000
0
LINE
8
Layer 1
10
147.750026
20
238.250000
11
147.750026
21
61.750000
0
LINE
8
Layer 1
10
147.750026
20
61.750000
11
147.750026
21
61.750000
 0 
ENDSEC
 0 
EOF