<?xml version="1.0" encoding="UTF-8" standalone="no"?>
<svg
   height="300mm"
   version="1.1"
   viewBox="0 0 1200 300"
   width="1200mm"
   id="svg201"
   sodipodi:docname="final_poly_combination.svg"
   inkscape:version="1.4.2 (1:1.4.2+202505120737+ebf0e940d0)"
   xmlns:inkscape="http://www.inkscape.org/namespaces/inkscape"
   xmlns:sodipodi="http://sodipodi.sourceforge.net/DTD/sodipodi-0.dtd"
   xmlns="http://www.w3.org/2000/svg"
   xmlns:svg="http://www.w3.org/2000/svg">
  <sodipodi:namedview
     id="namedview201"
     pagecolor="#ffffff"
     bordercolor="#666666"
     borderopacity="1.0"
     inkscape:showpageshadow="2"
     inkscape:pageopacity="0.0"
     inkscape:pagecheckerboard="0"
     inkscape:deskcolor="#d1d1d1"
     inkscape:document-units="mm"
     showgrid="false"
     inkscape:zoom="0.25598437"
     inkscape:cx="2119.27"
     inkscape:cy="253.92175"
     inkscape:window-width="1920"
     inkscape:window-height="1011"
     inkscape:window-x="0"
     inkscape:window-y="0"
     inkscape:window-maximized="1"
     inkscape:current-layer="svg201" />
  <defs
     id="defs1" />
  <g
     fill="none"
     stroke="blue"
     stroke-width="0.5"
     transform="translate(147.5,65.0)"
     id="g201"
     style="vector-effect:non-scaling-stroke;-inkscape-stroke:hairline;stroke-width:0.26458333;stroke-dasharray:none">
    <path
       d="M 31.507041555161987,143.99059892324146 L 25.05121581785981,143.99059892324146 L 16.0,128.3134332564372 L 16.0,117.13161507461905 L 31.507041555161987,143.99059892324146 Z"
       id="path1"
       style="vector-effect:non-scaling-stroke;-inkscape-stroke:hairline;stroke-width:0.26458333;stroke-dasharray:none" />
    <path
       d="M 21.753520777580984,87.1094010767585 L 30.630281166371482,102.4844010767585 L 21.753520777580988,117.8594010767585 L 16.0,107.89401076758504 L 16.0,87.1094010767585 L 21.753520777580984,87.1094010767585 Z"
       id="path2"
       style="vector-effect:non-scaling-stroke;-inkscape-stroke:hairline;stroke-width:0.26458333;stroke-dasharray:none" />
    <path
       d="M 35.50704155516199,141.681197846483 L 53.26056233274298,110.931197846483 L 35.50704155516198,110.931197846483 L 26.63028116637149,126.306197846483 L 35.50704155516199,141.681197846483 Z"
       id="path3"
       style="vector-effect:non-scaling-stroke;-inkscape-stroke:hairline;stroke-width:0.26458333;stroke-dasharray:none" />
    <path
       d="M 34.73495442381307,92.7003101676676 L 31.50704155516198,87.1094010767585 L 67.01408311032395,87.1094010767585 L 63.78617024167287,92.7003101676676 L 34.73495442381307,92.7003101676676 Z"
       id="path4"
       style="vector-effect:non-scaling-stroke;-inkscape-stroke:hairline;stroke-width:0.26458333;stroke-dasharray:none" />
    <path
       d="M 61.0962428511303,97.3594010767585 L 58.13732272153347,102.48440107675849 L 40.38380194395248,102.4844010767585 L 37.42488181435564,97.3594010767585 L 61.0962428511303,97.3594010767585 Z"
       id="path5"
       style="vector-effect:non-scaling-stroke;-inkscape-stroke:hairline;stroke-width:0.26458333;stroke-dasharray:none" />
    <path
       d="M 25.05121581785981,25.609401076758502 L 31.507041555161987,25.609401076758502 L 16.0,52.468384925380946 L 16.0,41.28656674356276 L 25.05121581785981,25.609401076758502 Z"
       id="path6"
       style="vector-effect:non-scaling-stroke;-inkscape-stroke:hairline;stroke-width:0.26458333;stroke-dasharray:none" />
    <path
       d="M 21.753520777580988,51.74059892324148 L 30.630281166371482,67.11559892324149 L 21.753520777580984,82.49059892324149 L 16.0,82.49059892324149 L 16.0,61.70598923241495 L 21.753520777580988,51.74059892324148 Z"
       id="path7"
       style="vector-effect:non-scaling-stroke;-inkscape-stroke:hairline;stroke-width:0.26458333;stroke-dasharray:none" />
    <path
       d="M 35.50704155516199,27.918802153516992 L 53.26056233274298,58.66880215351699 L 35.50704155516198,58.66880215351701 L 26.63028116637149,43.29380215351701 L 35.50704155516199,27.918802153516992 Z"
       id="path8"
       style="vector-effect:non-scaling-stroke;-inkscape-stroke:hairline;stroke-width:0.26458333;stroke-dasharray:none" />
    <path
       d="M 34.73495442381307,76.8996898323324 L 31.50704155516198,82.49059892324149 L 67.01408311032395,82.49059892324149 L 63.78617024167287,76.8996898323324 L 34.73495442381307,76.8996898323324 Z"
       id="path9"
       style="vector-effect:non-scaling-stroke;-inkscape-stroke:hairline;stroke-width:0.26458333;stroke-dasharray:none" />
    <path
       d="M 61.0962428511303,72.24059892324149 L 58.13732272153347,67.1155989232415 L 40.38380194395248,67.11559892324149 L 37.42488181435564,72.24059892324149 L 61.0962428511303,72.24059892324149 Z"
       id="path10"
       style="vector-effect:non-scaling-stroke;-inkscape-stroke:hairline;stroke-width:0.26458333;stroke-dasharray:none" />
    <path
       d="M 106.52112466548594,27.918802153516992 L 88.76760388790495,58.66880215351701 L 106.52112466548596,58.66880215351701 L 115.39788505427644,43.29380215351701 L 106.52112466548594,27.918802153516992 Z"
       id="path11"
       style="vector-effect:non-scaling-stroke;-inkscape-stroke:hairline;stroke-width:0.26458333;stroke-dasharray:none" />
    <path
       d="M 75.01408311032398,82.49059892324149 L 110.52112466548596,82.49059892324149 L 101.64436427669546,67.11559892324149 L 83.89084349911447,67.11559892324149 L 75.01408311032398,82.49059892324149 Z"
       id="path12"
       style="vector-effect:non-scaling-stroke;-inkscape-stroke:hairline;stroke-width:0.26458333;stroke-dasharray:none" />
    <path
       d="M 117.04673257441586,57.331508014150586 L 120.27464544306694,51.74059892324149 L 138.02816622064793,82.49059892324148 L 131.57234048334576,82.49059892324148 L 117.04673257441586,57.331508014150586 Z"
       id="path13"
       style="vector-effect:non-scaling-stroke;-inkscape-stroke:hairline;stroke-width:0.26458333;stroke-dasharray:none" />
    <path
       d="M 126.19248570226063,82.49059892324149 L 120.27464544306696,82.49059892324149 L 111.39788505427646,67.11559892324149 L 114.35680518387329,61.99059892324149 L 126.19248570226063,82.49059892324149 Z"
       id="path14"
       style="vector-effect:non-scaling-stroke;-inkscape-stroke:hairline;stroke-width:0.26458333;stroke-dasharray:none" />
    <path
       d="M 110.52112466548596,25.609401076758502 L 128.27464544306696,56.359401076758516 L 137.15140583185743,40.9844010767585 L 128.27464544306693,25.609401076758502 L 110.52112466548596,25.609401076758502 Z"
       id="path15"
       style="vector-effect:non-scaling-stroke;-inkscape-stroke:hairline;stroke-width:0.26458333;stroke-dasharray:none" />
    <path
       d="M 142.02816622064796,80.18119784648299 L 159.78168699822893,49.431197846483 L 142.02816622064793,49.43119784648299 L 133.15140583185746,64.806197846483 L 142.02816622064796,80.18119784648299 Z"
       id="path16"
       style="vector-effect:non-scaling-stroke;-inkscape-stroke:hairline;stroke-width:0.26458333;stroke-dasharray:none" />
    <path
       d="M 141.25607908929902,31.200310167667595 L 138.02816622064793,25.609401076758502 L 173.5352077758099,25.609401076758502 L 170.30729490715882,31.200310167667567 L 141.25607908929902,31.200310167667595 Z"
       id="path17"
       style="vector-effect:non-scaling-stroke;-inkscape-stroke:hairline;stroke-width:0.26458333;stroke-dasharray:none" />
    <path
       d="M 167.61736751661624,35.8594010767585 L 164.65844738701944,40.9844010767585 L 146.90492660943843,40.9844010767585 L 143.9460064798416,35.8594010767585 L 167.61736751661624,35.8594010767585 Z"
       id="path18"
       style="vector-effect:non-scaling-stroke;-inkscape-stroke:hairline;stroke-width:0.26458333;stroke-dasharray:none" />
    <path
       d="M 102.52112466548594,25.609401076758502 L 67.01408311032397,25.609401076758502 L 75.89084349911447,40.9844010767585 L 93.64436427669546,40.9844010767585 L 102.52112466548594,25.609401076758502 Z"
       id="path19"
       style="vector-effect:non-scaling-stroke;-inkscape-stroke:hairline;stroke-width:0.26458333;stroke-dasharray:none" />
    <path
       d="M 39.507041555161976,25.609401076758502 L 57.26056233274298,56.359401076758516 L 66.13732272153348,40.9844010767585 L 57.26056233274298,25.609401076758502 L 39.507041555161976,25.609401076758502 Z"
       id="path20"
       style="vector-effect:non-scaling-stroke;-inkscape-stroke:hairline;stroke-width:0.26458333;stroke-dasharray:none" />
    <path
       d="M 82.31177815060279,49.43119784648299 L 88.76760388790497,49.43119784648299 L 71.014083110324,80.18119784648299 L 67.7861702416729,74.5902887555739 L 82.31177815060279,49.43119784648299 Z"
       id="path21"
       style="vector-effect:non-scaling-stroke;-inkscape-stroke:hairline;stroke-width:0.26458333;stroke-dasharray:none" />
    <path
       d="M 65.09624285113031,69.931197846483 L 62.137322721533494,64.806197846483 L 71.01408311032398,49.43119784648299 L 76.93192336951765,49.43119784648299 L 65.09624285113031,69.931197846483 Z"
       id="path22"
       style="vector-effect:non-scaling-stroke;-inkscape-stroke:hairline;stroke-width:0.26458333;stroke-dasharray:none" />
    <path
       d="M 102.52112466548594,143.99059892324152 L 67.01408311032397,143.9905989232415 L 75.89084349911447,128.6155989232415 L 93.64436427669546,128.61559892324152 L 102.52112466548594,143.99059892324152 Z"
       id="path23"
       style="vector-effect:non-scaling-stroke;-inkscape-stroke:hairline;stroke-width:0.26458333;stroke-dasharray:none" />
    <path
       d="M 39.507041555161976,143.99059892324146 L 57.26056233274298,113.24059892324148 L 66.13732272153348,128.6155989232415 L 57.26056233274298,143.9905989232415 L 39.507041555161976,143.99059892324146 Z"
       id="path24"
       style="vector-effect:non-scaling-stroke;-inkscape-stroke:hairline;stroke-width:0.26458333;stroke-dasharray:none" />
    <path
       d="M 82.31177815060279,120.168802153517 L 88.76760388790497,120.168802153517 L 71.014083110324,89.418802153517 L 67.7861702416729,95.0097112444261 L 82.31177815060279,120.168802153517 Z"
       id="path25"
       style="vector-effect:non-scaling-stroke;-inkscape-stroke:hairline;stroke-width:0.26458333;stroke-dasharray:none" />
    <path
       d="M 65.09624285113031,99.66880215351699 L 62.137322721533494,104.79380215351699 L 71.01408311032398,120.168802153517 L 76.93192336951765,120.168802153517 L 65.09624285113031,99.66880215351699 Z"
       id="path26"
       style="vector-effect:non-scaling-stroke;-inkscape-stroke:hairline;stroke-width:0.26458333;stroke-dasharray:none" />
    <path
       d="M 106.52112466548594,141.68119784648297 L 88.76760388790495,110.93119784648299 L 106.52112466548596,110.93119784648299 L 115.39788505427644,126.306197846483 L 106.52112466548594,141.68119784648297 Z"
       id="path27"
       style="vector-effect:non-scaling-stroke;-inkscape-stroke:hairline;stroke-width:0.26458333;stroke-dasharray:none" />
    <path
       d="M 75.01408311032398,87.10940107675849 L 110.52112466548596,87.10940107675849 L 101.64436427669546,102.4844010767585 L 83.89084349911447,102.48440107675849 L 75.01408311032398,87.10940107675849 Z"
       id="path28"
       style="vector-effect:non-scaling-stroke;-inkscape-stroke:hairline;stroke-width:0.26458333;stroke-dasharray:none" />
    <path
       d="M 117.04673257441586,112.26849198584941 L 120.27464544306694,117.8594010767585 L 138.02816622064793,87.10940107675852 L 131.57234048334576,87.10940107675852 L 117.04673257441586,112.26849198584941 Z"
       id="path29"
       style="vector-effect:non-scaling-stroke;-inkscape-stroke:hairline;stroke-width:0.26458333;stroke-dasharray:none" />
    <path
       d="M 126.19248570226063,87.10940107675852 L 120.27464544306696,87.10940107675852 L 111.39788505427646,102.4844010767585 L 114.35680518387329,107.6094010767585 L 126.19248570226063,87.10940107675852 Z"
       id="path30"
       style="vector-effect:non-scaling-stroke;-inkscape-stroke:hairline;stroke-width:0.26458333;stroke-dasharray:none" />
    <path
       d="M 110.52112466548596,143.99059892324146 L 128.27464544306696,113.24059892324148 L 137.15140583185743,128.6155989232415 L 128.27464544306693,143.9905989232415 L 110.52112466548596,143.99059892324146 Z"
       id="path31"
       style="vector-effect:non-scaling-stroke;-inkscape-stroke:hairline;stroke-width:0.26458333;stroke-dasharray:none" />
    <path
       d="M 142.02816622064796,89.418802153517 L 159.78168699822893,120.16880215351699 L 142.02816622064793,120.168802153517 L 133.15140583185746,104.793802153517 L 142.02816622064796,89.418802153517 Z"
       id="path32"
       style="vector-effect:non-scaling-stroke;-inkscape-stroke:hairline;stroke-width:0.26458333;stroke-dasharray:none" />
    <path
       d="M 141.25607908929902,138.3996898323324 L 138.02816622064793,143.9905989232415 L 173.5352077758099,143.9905989232415 L 170.30729490715882,138.3996898323324 L 141.25607908929902,138.3996898323324 Z"
       id="path33"
       style="vector-effect:non-scaling-stroke;-inkscape-stroke:hairline;stroke-width:0.26458333;stroke-dasharray:none" />
    <path
       d="M 167.61736751661624,133.7405989232415 L 164.65844738701944,128.61559892324152 L 146.90492660943843,128.6155989232415 L 143.9460064798416,133.7405989232415 L 167.61736751661624,133.7405989232415 Z"
       id="path34"
       style="vector-effect:non-scaling-stroke;-inkscape-stroke:hairline;stroke-width:0.26458333;stroke-dasharray:none" />
    <path
       d="M 213.0422493309719,89.418802153517 L 195.2887285533909,120.168802153517 L 213.0422493309719,120.16880215351699 L 221.9190097197624,104.79380215351699 L 213.0422493309719,89.418802153517 Z"
       id="path35"
       style="vector-effect:non-scaling-stroke;-inkscape-stroke:hairline;stroke-width:0.26458333;stroke-dasharray:none" />
    <path
       d="M 181.53520777580994,143.9905989232415 L 217.0422493309719,143.9905989232415 L 208.1654889421814,128.6155989232415 L 190.41196816460044,128.6155989232415 L 181.53520777580994,143.9905989232415 Z"
       id="path36"
       style="vector-effect:non-scaling-stroke;-inkscape-stroke:hairline;stroke-width:0.26458333;stroke-dasharray:none" />
    <path
       d="M 223.5678572399018,118.83150801415059 L 226.7957701085529,113.24059892324149 L 244.5492908861339,143.99059892324146 L 238.0934651488317,143.99059892324146 L 223.5678572399018,118.83150801415059 Z"
       id="path37"
       style="vector-effect:non-scaling-stroke;-inkscape-stroke:hairline;stroke-width:0.26458333;stroke-dasharray:none" />
    <path
       d="M 232.71361036774658,143.9905989232415 L 226.79577010855292,143.9905989232415 L 217.9190097197624,128.6155989232415 L 220.87792984935925,123.49059892324149 L 232.71361036774658,143.9905989232415 Z"
       id="path38"
       style="vector-effect:non-scaling-stroke;-inkscape-stroke:hairline;stroke-width:0.26458333;stroke-dasharray:none" />
    <path
       d="M 217.0422493309719,87.10940107675852 L 234.79577010855292,117.8594010767585 L 243.6725304973434,102.4844010767585 L 234.7957701085529,87.1094010767585 L 217.0422493309719,87.10940107675852 Z"
       id="path39"
       style="vector-effect:non-scaling-stroke;-inkscape-stroke:hairline;stroke-width:0.26458333;stroke-dasharray:none" />
    <path
       d="M 248.54929088613392,141.681197846483 L 266.3028116637149,110.931197846483 L 248.5492908861339,110.931197846483 L 239.67253049734342,126.306197846483 L 248.54929088613392,141.681197846483 Z"
       id="path40"
       style="vector-effect:non-scaling-stroke;-inkscape-stroke:hairline;stroke-width:0.26458333;stroke-dasharray:none" />
    <path
       d="M 247.77720375478498,92.7003101676676 L 244.5492908861339,87.1094010767585 L 280.05633244129587,87.1094010767585 L 276.8284195726448,92.7003101676676 L 247.77720375478498,92.7003101676676 Z"
       id="path41"
       style="vector-effect:non-scaling-stroke;-inkscape-stroke:hairline;stroke-width:0.26458333;stroke-dasharray:none" />
    <path
       d="M 274.1384921821022,97.3594010767585 L 271.17957205250536,102.48440107675849 L 253.4260512749244,102.4844010767585 L 250.46713114532756,97.3594010767585 L 274.1384921821022,97.3594010767585 Z"
       id="path42"
       style="vector-effect:non-scaling-stroke;-inkscape-stroke:hairline;stroke-width:0.26458333;stroke-dasharray:none" />
    <path
       d="M 209.0422493309719,87.10940107675849 L 173.5352077758099,87.1094010767585 L 182.4119681646004,102.4844010767585 L 200.1654889421814,102.48440107675849 L 209.0422493309719,87.10940107675849 Z"
       id="path43"
       style="vector-effect:non-scaling-stroke;-inkscape-stroke:hairline;stroke-width:0.26458333;stroke-dasharray:none" />
    <path
       d="M 146.02816622064793,87.10940107675852 L 163.78168699822893,117.8594010767585 L 172.65844738701944,102.4844010767585 L 163.78168699822893,87.1094010767585 L 146.02816622064793,87.10940107675852 Z"
       id="path44"
       style="vector-effect:non-scaling-stroke;-inkscape-stroke:hairline;stroke-width:0.26458333;stroke-dasharray:none" />
    <path
       d="M 188.83290281608873,110.93119784648299 L 195.2887285533909,110.93119784648299 L 177.53520777580997,141.681197846483 L 174.30729490715885,136.0902887555739 L 188.83290281608873,110.93119784648299 Z"
       id="path45"
       style="vector-effect:non-scaling-stroke;-inkscape-stroke:hairline;stroke-width:0.26458333;stroke-dasharray:none" />
    <path
       d="M 171.61736751661627,131.431197846483 L 168.65844738701946,126.306197846483 L 177.53520777580994,110.931197846483 L 183.4530480350036,110.931197846483 L 171.61736751661627,131.431197846483 Z"
       id="path46"
       style="vector-effect:non-scaling-stroke;-inkscape-stroke:hairline;stroke-width:0.26458333;stroke-dasharray:none" />
    <path
       d="M 209.0422493309719,82.4905989232415 L 173.5352077758099,82.49059892324149 L 182.4119681646004,67.11559892324149 L 200.1654889421814,67.1155989232415 L 209.0422493309719,82.4905989232415 Z"
       id="path47"
       style="vector-effect:non-scaling-stroke;-inkscape-stroke:hairline;stroke-width:0.26458333;stroke-dasharray:none" />
    <path
       d="M 146.02816622064793,82.49059892324148 L 163.78168699822893,51.74059892324148 L 172.65844738701944,67.11559892324149 L 163.78168699822893,82.49059892324149 L 146.02816622064793,82.49059892324148 Z"
       id="path48"
       style="vector-effect:non-scaling-stroke;-inkscape-stroke:hairline;stroke-width:0.26458333;stroke-dasharray:none" />
    <path
       d="M 188.83290281608873,58.66880215351701 L 195.2887285533909,58.66880215351701 L 177.53520777580997,27.918802153516992 L 174.30729490715885,33.509711244426114 L 188.83290281608873,58.66880215351701 Z"
       id="path49"
       style="vector-effect:non-scaling-stroke;-inkscape-stroke:hairline;stroke-width:0.26458333;stroke-dasharray:none" />
    <path
       d="M 171.61736751661627,38.16880215351699 L 168.65844738701946,43.29380215351699 L 177.53520777580994,58.66880215351701 L 183.4530480350036,58.66880215351701 L 171.61736751661627,38.16880215351699 Z"
       id="path50"
       style="vector-effect:non-scaling-stroke;-inkscape-stroke:hairline;stroke-width:0.26458333;stroke-dasharray:none" />
    <path
       d="M 213.0422493309719,80.18119784648299 L 195.2887285533909,49.43119784648299 L 213.0422493309719,49.43119784648299 L 221.9190097197624,64.806197846483 L 213.0422493309719,80.18119784648299 Z"
       id="path51"
       style="vector-effect:non-scaling-stroke;-inkscape-stroke:hairline;stroke-width:0.26458333;stroke-dasharray:none" />
    <path
       d="M 181.53520777580994,25.609401076758502 L 217.0422493309719,25.609401076758502 L 208.1654889421814,40.9844010767585 L 190.41196816460044,40.9844010767585 L 181.53520777580994,25.609401076758502 Z"
       id="path52"
       style="vector-effect:non-scaling-stroke;-inkscape-stroke:hairline;stroke-width:0.26458333;stroke-dasharray:none" />
    <path
       d="M 223.5678572399018,50.76849198584941 L 226.7957701085529,56.3594010767585 L 244.5492908861339,25.609401076758502 L 238.0934651488317,25.609401076758502 L 223.5678572399018,50.76849198584941 Z"
       id="path53"
       style="vector-effect:non-scaling-stroke;-inkscape-stroke:hairline;stroke-width:0.26458333;stroke-dasharray:none" />
    <path
       d="M 232.71361036774658,25.609401076758502 L 226.79577010855292,25.609401076758502 L 217.9190097197624,40.9844010767585 L 220.87792984935925,46.1094010767585 L 232.71361036774658,25.609401076758502 Z"
       id="path54"
       style="vector-effect:non-scaling-stroke;-inkscape-stroke:hairline;stroke-width:0.26458333;stroke-dasharray:none" />
    <path
       d="M 217.0422493309719,82.49059892324148 L 234.79577010855292,51.74059892324148 L 243.6725304973434,67.11559892324149 L 234.7957701085529,82.49059892324149 L 217.0422493309719,82.49059892324148 Z"
       id="path55"
       style="vector-effect:non-scaling-stroke;-inkscape-stroke:hairline;stroke-width:0.26458333;stroke-dasharray:none" />
    <path
       d="M 248.54929088613392,27.918802153516992 L 266.3028116637149,58.66880215351699 L 248.5492908861339,58.66880215351701 L 239.67253049734342,43.29380215351701 L 248.54929088613392,27.918802153516992 Z"
       id="path56"
       style="vector-effect:non-scaling-stroke;-inkscape-stroke:hairline;stroke-width:0.26458333;stroke-dasharray:none" />
    <path
       d="M 247.77720375478498,76.8996898323324 L 244.5492908861339,82.49059892324149 L 280.05633244129587,82.49059892324149 L 276.8284195726448,76.8996898323324 L 247.77720375478498,76.8996898323324 Z"
       id="path57"
       style="vector-effect:non-scaling-stroke;-inkscape-stroke:hairline;stroke-width:0.26458333;stroke-dasharray:none" />
    <path
       d="M 274.1384921821022,72.24059892324149 L 271.17957205250536,67.1155989232415 L 253.4260512749244,67.11559892324149 L 250.46713114532756,72.24059892324149 L 274.1384921821022,72.24059892324149 Z"
       id="path58"
       style="vector-effect:non-scaling-stroke;-inkscape-stroke:hairline;stroke-width:0.26458333;stroke-dasharray:none" />
    <path
       d="M 319.56337399645787,27.918802153516992 L 301.80985321887687,58.66880215351701 L 319.56337399645787,58.66880215351701 L 328.44013438524837,43.29380215351701 L 319.56337399645787,27.918802153516992 Z"
       id="path59"
       style="vector-effect:non-scaling-stroke;-inkscape-stroke:hairline;stroke-width:0.26458333;stroke-dasharray:none" />
    <path
       d="M 288.0563324412959,82.49059892324149 L 323.56337399645787,82.49059892324149 L 314.68661360766737,67.11559892324149 L 296.93309283008637,67.11559892324149 L 288.0563324412959,82.49059892324149 Z"
       id="path60"
       style="vector-effect:non-scaling-stroke;-inkscape-stroke:hairline;stroke-width:0.26458333;stroke-dasharray:none" />
    <path
       d="M 330.08898190538775,57.331508014150586 L 333.3168947740389,51.74059892324149 L 351.0704155516198,82.49059892324148 L 344.6145898143177,82.49059892324148 L 330.08898190538775,57.331508014150586 Z"
       id="path61"
       style="vector-effect:non-scaling-stroke;-inkscape-stroke:hairline;stroke-width:0.26458333;stroke-dasharray:none" />
    <path
       d="M 339.23473503323254,82.49059892324149 L 333.3168947740389,82.49059892324149 L 324.44013438524837,67.11559892324149 L 327.3990545148452,61.99059892324149 L 339.23473503323254,82.49059892324149 Z"
       id="path62"
       style="vector-effect:non-scaling-stroke;-inkscape-stroke:hairline;stroke-width:0.26458333;stroke-dasharray:none" />
    <path
       d="M 323.56337399645787,25.609401076758502 L 341.3168947740389,56.359401076758516 L 350.1936551628294,40.9844010767585 L 341.3168947740388,25.609401076758502 L 323.56337399645787,25.609401076758502 Z"
       id="path63"
       style="vector-effect:non-scaling-stroke;-inkscape-stroke:hairline;stroke-width:0.26458333;stroke-dasharray:none" />
    <path
       d="M 355.0704155516199,80.18119784648299 L 372.8239363292008,49.431197846483 L 355.0704155516198,49.43119784648299 L 346.1936551628294,64.806197846483 L 355.0704155516199,80.18119784648299 Z"
       id="path64"
       style="vector-effect:non-scaling-stroke;-inkscape-stroke:hairline;stroke-width:0.26458333;stroke-dasharray:none" />
    <path
       d="M 354.29832842027093,31.200310167667595 L 351.0704155516198,25.609401076758502 L 386.5774571067818,25.609401076758502 L 383.34954423813076,31.200310167667567 L 354.29832842027093,31.200310167667595 Z"
       id="path65"
       style="vector-effect:non-scaling-stroke;-inkscape-stroke:hairline;stroke-width:0.26458333;stroke-dasharray:none" />
    <path
       d="M 380.65961684758815,35.8594010767585 L 377.7006967179914,40.9844010767585 L 359.9471759404104,40.9844010767585 L 356.9882558108135,35.8594010767585 L 380.65961684758815,35.8594010767585 Z"
       id="path66"
       style="vector-effect:non-scaling-stroke;-inkscape-stroke:hairline;stroke-width:0.26458333;stroke-dasharray:none" />
    <path
       d="M 315.56337399645787,25.609401076758502 L 280.05633244129587,25.609401076758502 L 288.93309283008637,40.9844010767585 L 306.68661360766737,40.9844010767585 L 315.56337399645787,25.609401076758502 Z"
       id="path67"
       style="vector-effect:non-scaling-stroke;-inkscape-stroke:hairline;stroke-width:0.26458333;stroke-dasharray:none" />
    <path
       d="M 252.5492908861339,25.609401076758502 L 270.3028116637149,56.359401076758516 L 279.17957205250536,40.9844010767585 L 270.3028116637149,25.609401076758502 L 252.5492908861339,25.609401076758502 Z"
       id="path68"
       style="vector-effect:non-scaling-stroke;-inkscape-stroke:hairline;stroke-width:0.26458333;stroke-dasharray:none" />
    <path
       d="M 295.3540274815747,49.43119784648299 L 301.80985321887687,49.43119784648299 L 284.0563324412959,80.18119784648299 L 280.8284195726448,74.5902887555739 L 295.3540274815747,49.43119784648299 Z"
       id="path69"
       style="vector-effect:non-scaling-stroke;-inkscape-stroke:hairline;stroke-width:0.26458333;stroke-dasharray:none" />
    <path
       d="M 278.13849218210225,69.931197846483 L 275.1795720525054,64.806197846483 L 284.0563324412959,49.43119784648299 L 289.9741727004896,49.43119784648299 L 278.13849218210225,69.931197846483 Z"
       id="path70"
       style="vector-effect:non-scaling-stroke;-inkscape-stroke:hairline;stroke-width:0.26458333;stroke-dasharray:none" />
    <path
       d="M 315.56337399645787,143.99059892324152 L 280.05633244129587,143.9905989232415 L 288.93309283008637,128.6155989232415 L 306.68661360766737,128.61559892324152 L 315.56337399645787,143.99059892324152 Z"
       id="path71"
       style="vector-effect:non-scaling-stroke;-inkscape-stroke:hairline;stroke-width:0.26458333;stroke-dasharray:none" />
    <path
       d="M 252.5492908861339,143.99059892324146 L 270.3028116637149,113.24059892324148 L 279.17957205250536,128.6155989232415 L 270.3028116637149,143.9905989232415 L 252.5492908861339,143.99059892324146 Z"
       id="path72"
       style="vector-effect:non-scaling-stroke;-inkscape-stroke:hairline;stroke-width:0.26458333;stroke-dasharray:none" />
    <path
       d="M 295.3540274815747,120.168802153517 L 301.80985321887687,120.168802153517 L 284.0563324412959,89.418802153517 L 280.8284195726448,95.0097112444261 L 295.3540274815747,120.168802153517 Z"
       id="path73"
       style="vector-effect:non-scaling-stroke;-inkscape-stroke:hairline;stroke-width:0.26458333;stroke-dasharray:none" />
    <path
       d="M 278.13849218210225,99.66880215351699 L 275.1795720525054,104.79380215351699 L 284.0563324412959,120.168802153517 L 289.9741727004896,120.168802153517 L 278.13849218210225,99.66880215351699 Z"
       id="path74"
       style="vector-effect:non-scaling-stroke;-inkscape-stroke:hairline;stroke-width:0.26458333;stroke-dasharray:none" />
    <path
       d="M 319.56337399645787,141.68119784648297 L 301.80985321887687,110.93119784648299 L 319.56337399645787,110.93119784648299 L 328.44013438524837,126.306197846483 L 319.56337399645787,141.68119784648297 Z"
       id="path75"
       style="vector-effect:non-scaling-stroke;-inkscape-stroke:hairline;stroke-width:0.26458333;stroke-dasharray:none" />
    <path
       d="M 288.0563324412959,87.10940107675849 L 323.56337399645787,87.10940107675849 L 314.68661360766737,102.4844010767585 L 296.93309283008637,102.48440107675849 L 288.0563324412959,87.10940107675849 Z"
       id="path76"
       style="vector-effect:non-scaling-stroke;-inkscape-stroke:hairline;stroke-width:0.26458333;stroke-dasharray:none" />
    <path
       d="M 330.08898190538775,112.26849198584941 L 333.3168947740389,117.8594010767585 L 351.0704155516198,87.10940107675852 L 344.6145898143177,87.10940107675852 L 330.08898190538775,112.26849198584941 Z"
       id="path77"
       style="vector-effect:non-scaling-stroke;-inkscape-stroke:hairline;stroke-width:0.26458333;stroke-dasharray:none" />
    <path
       d="M 339.23473503323254,87.10940107675852 L 333.3168947740389,87.10940107675852 L 324.44013438524837,102.4844010767585 L 327.3990545148452,107.6094010767585 L 339.23473503323254,87.10940107675852 Z"
       id="path78"
       style="vector-effect:non-scaling-stroke;-inkscape-stroke:hairline;stroke-width:0.26458333;stroke-dasharray:none" />
    <path
       d="M 323.56337399645787,143.99059892324146 L 341.3168947740389,113.24059892324148 L 350.1936551628294,128.6155989232415 L 341.3168947740388,143.9905989232415 L 323.56337399645787,143.99059892324146 Z"
       id="path79"
       style="vector-effect:non-scaling-stroke;-inkscape-stroke:hairline;stroke-width:0.26458333;stroke-dasharray:none" />
    <path
       d="M 355.0704155516199,89.418802153517 L 372.8239363292008,120.16880215351699 L 355.0704155516198,120.168802153517 L 346.1936551628294,104.793802153517 L 355.0704155516199,89.418802153517 Z"
       id="path80"
       style="vector-effect:non-scaling-stroke;-inkscape-stroke:hairline;stroke-width:0.26458333;stroke-dasharray:none" />
    <path
       d="M 354.29832842027093,138.3996898323324 L 351.0704155516198,143.9905989232415 L 386.5774571067818,143.9905989232415 L 383.34954423813076,138.3996898323324 L 354.29832842027093,138.3996898323324 Z"
       id="path81"
       style="vector-effect:non-scaling-stroke;-inkscape-stroke:hairline;stroke-width:0.26458333;stroke-dasharray:none" />
    <path
       d="M 380.65961684758815,133.7405989232415 L 377.7006967179914,128.61559892324152 L 359.9471759404104,128.6155989232415 L 356.9882558108135,133.7405989232415 L 380.65961684758815,133.7405989232415 Z"
       id="path82"
       style="vector-effect:non-scaling-stroke;-inkscape-stroke:hairline;stroke-width:0.26458333;stroke-dasharray:none" />
    <path
       d="M 426.0844986619438,89.418802153517 L 408.3309778843628,120.168802153517 L 426.0844986619438,120.16880215351699 L 434.9612590507343,104.79380215351699 L 426.0844986619438,89.418802153517 Z"
       id="path83"
       style="vector-effect:non-scaling-stroke;-inkscape-stroke:hairline;stroke-width:0.26458333;stroke-dasharray:none" />
    <path
       d="M 394.5774571067818,143.9905989232415 L 430.0844986619438,143.9905989232415 L 421.2077382731533,128.6155989232415 L 403.4542174955723,128.6155989232415 L 394.5774571067818,143.9905989232415 Z"
       id="path84"
       style="vector-effect:non-scaling-stroke;-inkscape-stroke:hairline;stroke-width:0.26458333;stroke-dasharray:none" />
    <path
       d="M 436.6101065708737,118.83150801415059 L 439.8380194395248,113.24059892324149 L 457.59154021710583,143.99059892324146 L 451.13571447980365,143.99059892324146 L 436.6101065708737,118.83150801415059 Z"
       id="path85"
       style="vector-effect:non-scaling-stroke;-inkscape-stroke:hairline;stroke-width:0.26458333;stroke-dasharray:none" />
    <path
       d="M 445.7558596987185,143.9905989232415 L 439.8380194395248,143.9905989232415 L 430.9612590507343,128.6155989232415 L 433.92017918033116,123.49059892324149 L 445.7558596987185,143.9905989232415 Z"
       id="path86"
       style="vector-effect:non-scaling-stroke;-inkscape-stroke:hairline;stroke-width:0.26458333;stroke-dasharray:none" />
    <path
       d="M 430.0844986619438,87.10940107675852 L 447.8380194395248,117.8594010767585 L 456.71477982831533,102.4844010767585 L 447.8380194395248,87.1094010767585 L 430.0844986619438,87.10940107675852 Z"
       id="path87"
       style="vector-effect:non-scaling-stroke;-inkscape-stroke:hairline;stroke-width:0.26458333;stroke-dasharray:none" />
    <path
       d="M 461.59154021710583,141.681197846483 L 479.34506099468683,110.931197846483 L 461.59154021710583,110.931197846483 L 452.71477982831533,126.306197846483 L 461.59154021710583,141.681197846483 Z"
       id="path88"
       style="vector-effect:non-scaling-stroke;-inkscape-stroke:hairline;stroke-width:0.26458333;stroke-dasharray:none" />
    <path
       d="M 460.8194530857569,92.7003101676676 L 457.59154021710583,87.1094010767585 L 493.0985817722678,87.1094010767585 L 489.8706689036167,92.7003101676676 L 460.8194530857569,92.7003101676676 Z"
       id="path89"
       style="vector-effect:non-scaling-stroke;-inkscape-stroke:hairline;stroke-width:0.26458333;stroke-dasharray:none" />
    <path
       d="M 487.1807415130741,97.3594010767585 L 484.2218213834773,102.48440107675849 L 466.4683006058963,102.4844010767585 L 463.5093804762995,97.3594010767585 L 487.1807415130741,97.3594010767585 Z"
       id="path90"
       style="vector-effect:non-scaling-stroke;-inkscape-stroke:hairline;stroke-width:0.26458333;stroke-dasharray:none" />
    <path
       d="M 422.0844986619438,87.10940107675849 L 386.5774571067818,87.1094010767585 L 395.4542174955723,102.4844010767585 L 413.2077382731533,102.48440107675849 L 422.0844986619438,87.10940107675849 Z"
       id="path91"
       style="vector-effect:non-scaling-stroke;-inkscape-stroke:hairline;stroke-width:0.26458333;stroke-dasharray:none" />
    <path
       d="M 359.0704155516198,87.10940107675852 L 376.8239363292008,117.8594010767585 L 385.7006967179913,102.4844010767585 L 376.8239363292008,87.1094010767585 L 359.0704155516198,87.10940107675852 Z"
       id="path92"
       style="vector-effect:non-scaling-stroke;-inkscape-stroke:hairline;stroke-width:0.26458333;stroke-dasharray:none" />
    <path
       d="M 401.87515214706065,110.93119784648299 L 408.3309778843628,110.93119784648299 L 390.5774571067819,141.681197846483 L 387.34954423813076,136.0902887555739 L 401.87515214706065,110.93119784648299 Z"
       id="path93"
       style="vector-effect:non-scaling-stroke;-inkscape-stroke:hairline;stroke-width:0.26458333;stroke-dasharray:none" />
    <path
       d="M 384.6596168475882,131.431197846483 L 381.7006967179914,126.306197846483 L 390.5774571067818,110.931197846483 L 396.4952973659755,110.931197846483 L 384.6596168475882,131.431197846483 Z"
       id="path94"
       style="vector-effect:non-scaling-stroke;-inkscape-stroke:hairline;stroke-width:0.26458333;stroke-dasharray:none" />
    <path
       d="M 422.0844986619438,82.4905989232415 L 386.5774571067818,82.49059892324149 L 395.4542174955723,67.11559892324149 L 413.2077382731533,67.1155989232415 L 422.0844986619438,82.4905989232415 Z"
       id="path95"
       style="vector-effect:non-scaling-stroke;-inkscape-stroke:hairline;stroke-width:0.26458333;stroke-dasharray:none" />
    <path
       d="M 359.0704155516198,82.49059892324148 L 376.8239363292008,51.74059892324148 L 385.7006967179913,67.11559892324149 L 376.8239363292008,82.49059892324149 L 359.0704155516198,82.49059892324148 Z"
       id="path96"
       style="vector-effect:non-scaling-stroke;-inkscape-stroke:hairline;stroke-width:0.26458333;stroke-dasharray:none" />
    <path
       d="M 401.87515214706065,58.66880215351701 L 408.3309778843628,58.66880215351701 L 390.5774571067819,27.918802153516992 L 387.34954423813076,33.509711244426114 L 401.87515214706065,58.66880215351701 Z"
       id="path97"
       style="vector-effect:non-scaling-stroke;-inkscape-stroke:hairline;stroke-width:0.26458333;stroke-dasharray:none" />
    <path
       d="M 384.6596168475882,38.16880215351699 L 381.7006967179914,43.29380215351699 L 390.5774571067818,58.66880215351701 L 396.4952973659755,58.66880215351701 L 384.6596168475882,38.16880215351699 Z"
       id="path98"
       style="vector-effect:non-scaling-stroke;-inkscape-stroke:hairline;stroke-width:0.26458333;stroke-dasharray:none" />
    <path
       d="M 426.0844986619438,80.18119784648299 L 408.3309778843628,49.43119784648299 L 426.0844986619438,49.43119784648299 L 434.9612590507343,64.806197846483 L 426.0844986619438,80.18119784648299 Z"
       id="path99"
       style="vector-effect:non-scaling-stroke;-inkscape-stroke:hairline;stroke-width:0.26458333;stroke-dasharray:none" />
    <path
       d="M 394.5774571067818,25.609401076758502 L 430.0844986619438,25.609401076758502 L 421.2077382731533,40.9844010767585 L 403.4542174955723,40.9844010767585 L 394.5774571067818,25.609401076758502 Z"
       id="path100"
       style="vector-effect:non-scaling-stroke;-inkscape-stroke:hairline;stroke-width:0.26458333;stroke-dasharray:none" />
    <path
       d="M 436.6101065708737,50.76849198584941 L 439.8380194395248,56.3594010767585 L 457.59154021710583,25.609401076758502 L 451.13571447980365,25.609401076758502 L 436.6101065708737,50.76849198584941 Z"
       id="path101"
       style="vector-effect:non-scaling-stroke;-inkscape-stroke:hairline;stroke-width:0.26458333;stroke-dasharray:none" />
    <path
       d="M 445.7558596987185,25.609401076758502 L 439.8380194395248,25.609401076758502 L 430.9612590507343,40.9844010767585 L 433.92017918033116,46.1094010767585 L 445.7558596987185,25.609401076758502 Z"
       id="path102"
       style="vector-effect:non-scaling-stroke;-inkscape-stroke:hairline;stroke-width:0.26458333;stroke-dasharray:none" />
    <path
       d="M 430.0844986619438,82.49059892324148 L 447.8380194395248,51.74059892324148 L 456.71477982831533,67.11559892324149 L 447.8380194395248,82.49059892324149 L 430.0844986619438,82.49059892324148 Z"
       id="path103"
       style="vector-effect:non-scaling-stroke;-inkscape-stroke:hairline;stroke-width:0.26458333;stroke-dasharray:none" />
    <path
       d="M 461.59154021710583,27.918802153516992 L 479.34506099468683,58.66880215351699 L 461.59154021710583,58.66880215351701 L 452.71477982831533,43.29380215351701 L 461.59154021710583,27.918802153516992 Z"
       id="path104"
       style="vector-effect:non-scaling-stroke;-inkscape-stroke:hairline;stroke-width:0.26458333;stroke-dasharray:none" />
    <path
       d="M 460.8194530857569,76.8996898323324 L 457.59154021710583,82.49059892324149 L 493.0985817722678,82.49059892324149 L 489.8706689036167,76.8996898323324 L 460.8194530857569,76.8996898323324 Z"
       id="path105"
       style="vector-effect:non-scaling-stroke;-inkscape-stroke:hairline;stroke-width:0.26458333;stroke-dasharray:none" />
    <path
       d="M 487.1807415130741,72.24059892324149 L 484.2218213834773,67.1155989232415 L 466.4683006058963,67.11559892324149 L 463.5093804762995,72.24059892324149 L 487.1807415130741,72.24059892324149 Z"
       id="path106"
       style="vector-effect:non-scaling-stroke;-inkscape-stroke:hairline;stroke-width:0.26458333;stroke-dasharray:none" />
    <path
       d="M 532.6056233274297,27.918802153516992 L 514.8521025498487,58.66880215351701 L 532.6056233274298,58.66880215351701 L 541.4823837162203,43.29380215351701 L 532.6056233274297,27.918802153516992 Z"
       id="path107"
       style="vector-effect:non-scaling-stroke;-inkscape-stroke:hairline;stroke-width:0.26458333;stroke-dasharray:none" />
    <path
       d="M 501.09858177226783,82.49059892324149 L 536.6056233274298,82.49059892324149 L 527.7288629386393,67.11559892324149 L 509.9753421610583,67.11559892324149 L 501.09858177226783,82.49059892324149 Z"
       id="path108"
       style="vector-effect:non-scaling-stroke;-inkscape-stroke:hairline;stroke-width:0.26458333;stroke-dasharray:none" />
    <path
       d="M 543.1312312363597,57.331508014150586 L 546.3591441050107,51.74059892324149 L 564.1126648825917,82.49059892324148 L 557.6568391452896,82.49059892324148 L 543.1312312363597,57.331508014150586 Z"
       id="path109"
       style="vector-effect:non-scaling-stroke;-inkscape-stroke:hairline;stroke-width:0.26458333;stroke-dasharray:none" />
    <path
       d="M 552.2769843642045,82.49059892324149 L 546.3591441050107,82.49059892324149 L 537.4823837162203,67.11559892324149 L 540.4413038458172,61.99059892324149 L 552.2769843642045,82.49059892324149 Z"
       id="path110"
       style="vector-effect:non-scaling-stroke;-inkscape-stroke:hairline;stroke-width:0.26458333;stroke-dasharray:none" />
    <path
       d="M 536.6056233274298,25.609401076758502 L 554.3591441050107,56.359401076758516 L 563.2359044938013,40.9844010767585 L 554.3591441050107,25.609401076758502 L 536.6056233274298,25.609401076758502 Z"
       id="path111"
       style="vector-effect:non-scaling-stroke;-inkscape-stroke:hairline;stroke-width:0.26458333;stroke-dasharray:none" />
    <path
       d="M 568.1126648825918,80.18119784648299 L 585.8661856601727,49.431197846483 L 568.1126648825917,49.43119784648299 L 559.2359044938013,64.806197846483 L 568.1126648825918,80.18119784648299 Z"
       id="path112"
       style="vector-effect:non-scaling-stroke;-inkscape-stroke:hairline;stroke-width:0.26458333;stroke-dasharray:none" />
    <path
       d="M 567.3405777512428,31.200310167667595 L 564.1126648825917,25.609401076758502 L 599.6197064377537,25.609401076758502 L 596.3917935691027,31.200310167667567 L 567.3405777512428,31.200310167667595 Z"
       id="path113"
       style="vector-effect:non-scaling-stroke;-inkscape-stroke:hairline;stroke-width:0.26458333;stroke-dasharray:none" />
    <path
       d="M 593.7018661785601,35.8594010767585 L 590.7429460489633,40.9844010767585 L 572.9894252713823,40.9844010767585 L 570.0305051417854,35.8594010767585 L 593.7018661785601,35.8594010767585 Z"
       id="path114"
       style="vector-effect:non-scaling-stroke;-inkscape-stroke:hairline;stroke-width:0.26458333;stroke-dasharray:none" />
    <path
       d="M 528.6056233274297,25.609401076758502 L 493.0985817722678,25.609401076758502 L 501.9753421610583,40.9844010767585 L 519.7288629386393,40.9844010767585 L 528.6056233274297,25.609401076758502 Z"
       id="path115"
       style="vector-effect:non-scaling-stroke;-inkscape-stroke:hairline;stroke-width:0.26458333;stroke-dasharray:none" />
    <path
       d="M 465.59154021710583,25.609401076758502 L 483.34506099468683,56.359401076758516 L 492.2218213834773,40.9844010767585 L 483.34506099468683,25.609401076758502 L 465.59154021710583,25.609401076758502 Z"
       id="path116"
       style="vector-effect:non-scaling-stroke;-inkscape-stroke:hairline;stroke-width:0.26458333;stroke-dasharray:none" />
    <path
       d="M 508.3962768125466,49.43119784648299 L 514.8521025498488,49.43119784648299 L 497.09858177226783,80.18119784648299 L 493.8706689036167,74.5902887555739 L 508.3962768125466,49.43119784648299 Z"
       id="path117"
       style="vector-effect:non-scaling-stroke;-inkscape-stroke:hairline;stroke-width:0.26458333;stroke-dasharray:none" />
    <path
       d="M 491.18074151307417,69.931197846483 L 488.22182138347733,64.806197846483 L 497.09858177226783,49.43119784648299 L 503.0164220314615,49.43119784648299 L 491.18074151307417,69.931197846483 Z"
       id="path118"
       style="vector-effect:non-scaling-stroke;-inkscape-stroke:hairline;stroke-width:0.26458333;stroke-dasharray:none" />
    <path
       d="M 528.6056233274297,143.99059892324152 L 493.0985817722678,143.9905989232415 L 501.9753421610583,128.6155989232415 L 519.7288629386393,128.61559892324152 L 528.6056233274297,143.99059892324152 Z"
       id="path119"
       style="vector-effect:non-scaling-stroke;-inkscape-stroke:hairline;stroke-width:0.26458333;stroke-dasharray:none" />
    <path
       d="M 465.59154021710583,143.99059892324146 L 483.34506099468683,113.24059892324148 L 492.2218213834773,128.6155989232415 L 483.34506099468683,143.9905989232415 L 465.59154021710583,143.99059892324146 Z"
       id="path120"
       style="vector-effect:non-scaling-stroke;-inkscape-stroke:hairline;stroke-width:0.26458333;stroke-dasharray:none" />
    <path
       d="M 508.3962768125466,120.168802153517 L 514.8521025498488,120.168802153517 L 497.09858177226783,89.418802153517 L 493.8706689036167,95.0097112444261 L 508.3962768125466,120.168802153517 Z"
       id="path121"
       style="vector-effect:non-scaling-stroke;-inkscape-stroke:hairline;stroke-width:0.26458333;stroke-dasharray:none" />
    <path
       d="M 491.18074151307417,99.66880215351699 L 488.22182138347733,104.79380215351699 L 497.09858177226783,120.168802153517 L 503.0164220314615,120.168802153517 L 491.18074151307417,99.66880215351699 Z"
       id="path122"
       style="vector-effect:non-scaling-stroke;-inkscape-stroke:hairline;stroke-width:0.26458333;stroke-dasharray:none" />
    <path
       d="M 532.6056233274297,141.68119784648297 L 514.8521025498487,110.93119784648299 L 532.6056233274298,110.93119784648299 L 541.4823837162203,126.306197846483 L 532.6056233274297,141.68119784648297 Z"
       id="path123"
       style="vector-effect:non-scaling-stroke;-inkscape-stroke:hairline;stroke-width:0.26458333;stroke-dasharray:none" />
    <path
       d="M 501.09858177226783,87.10940107675849 L 536.6056233274298,87.10940107675849 L 527.7288629386393,102.4844010767585 L 509.9753421610583,102.48440107675849 L 501.09858177226783,87.10940107675849 Z"
       id="path124"
       style="vector-effect:non-scaling-stroke;-inkscape-stroke:hairline;stroke-width:0.26458333;stroke-dasharray:none" />
    <path
       d="M 543.1312312363597,112.26849198584941 L 546.3591441050107,117.8594010767585 L 564.1126648825917,87.10940107675852 L 557.6568391452896,87.10940107675852 L 543.1312312363597,112.26849198584941 Z"
       id="path125"
       style="vector-effect:non-scaling-stroke;-inkscape-stroke:hairline;stroke-width:0.26458333;stroke-dasharray:none" />
    <path
       d="M 552.2769843642045,87.10940107675852 L 546.3591441050107,87.10940107675852 L 537.4823837162203,102.4844010767585 L 540.4413038458172,107.6094010767585 L 552.2769843642045,87.10940107675852 Z"
       id="path126"
       style="vector-effect:non-scaling-stroke;-inkscape-stroke:hairline;stroke-width:0.26458333;stroke-dasharray:none" />
    <path
       d="M 536.6056233274298,143.99059892324146 L 554.3591441050107,113.24059892324148 L 563.2359044938013,128.6155989232415 L 554.3591441050107,143.9905989232415 L 536.6056233274298,143.99059892324146 Z"
       id="path127"
       style="vector-effect:non-scaling-stroke;-inkscape-stroke:hairline;stroke-width:0.26458333;stroke-dasharray:none" />
    <path
       d="M 568.1126648825918,89.418802153517 L 585.8661856601727,120.16880215351699 L 568.1126648825917,120.168802153517 L 559.2359044938013,104.793802153517 L 568.1126648825918,89.418802153517 Z"
       id="path128"
       style="vector-effect:non-scaling-stroke;-inkscape-stroke:hairline;stroke-width:0.26458333;stroke-dasharray:none" />
    <path
       d="M 567.3405777512428,138.3996898323324 L 564.1126648825917,143.9905989232415 L 599.6197064377537,143.9905989232415 L 596.3917935691027,138.3996898323324 L 567.3405777512428,138.3996898323324 Z"
       id="path129"
       style="vector-effect:non-scaling-stroke;-inkscape-stroke:hairline;stroke-width:0.26458333;stroke-dasharray:none" />
    <path
       d="M 593.7018661785601,133.7405989232415 L 590.7429460489633,128.61559892324152 L 572.9894252713823,128.6155989232415 L 570.0305051417854,133.7405989232415 L 593.7018661785601,133.7405989232415 Z"
       id="path130"
       style="vector-effect:non-scaling-stroke;-inkscape-stroke:hairline;stroke-width:0.26458333;stroke-dasharray:none" />
    <path
       d="M 639.1267479929157,89.418802153517 L 621.3732272153347,120.168802153517 L 639.1267479929157,120.16880215351699 L 648.0035083817062,104.79380215351699 L 639.1267479929157,89.418802153517 Z"
       id="path131"
       style="vector-effect:non-scaling-stroke;-inkscape-stroke:hairline;stroke-width:0.26458333;stroke-dasharray:none" />
    <path
       d="M 607.6197064377537,143.9905989232415 L 643.1267479929157,143.9905989232415 L 634.2499876041253,128.6155989232415 L 616.4964668265443,128.6155989232415 L 607.6197064377537,143.9905989232415 Z"
       id="path132"
       style="vector-effect:non-scaling-stroke;-inkscape-stroke:hairline;stroke-width:0.26458333;stroke-dasharray:none" />
    <path
       d="M 649.6523559018457,118.83150801415059 L 652.8802687704967,113.24059892324149 L 670.6337895480777,143.99059892324146 L 664.1779638107755,143.99059892324146 L 649.6523559018457,118.83150801415059 Z"
       id="path133"
       style="vector-effect:non-scaling-stroke;-inkscape-stroke:hairline;stroke-width:0.26458333;stroke-dasharray:none" />
    <path
       d="M 658.7981090296904,143.9905989232415 L 652.8802687704967,143.9905989232415 L 644.0035083817062,128.6155989232415 L 646.9624285113031,123.49059892324149 L 658.7981090296904,143.9905989232415 Z"
       id="path134"
       style="vector-effect:non-scaling-stroke;-inkscape-stroke:hairline;stroke-width:0.26458333;stroke-dasharray:none" />
    <path
       d="M 643.1267479929157,87.10940107675852 L 660.8802687704967,117.8594010767585 L 669.7570291592872,102.4844010767585 L 660.8802687704967,87.1094010767585 L 643.1267479929157,87.10940107675852 Z"
       id="path135"
       style="vector-effect:non-scaling-stroke;-inkscape-stroke:hairline;stroke-width:0.26458333;stroke-dasharray:none" />
    <path
       d="M 674.6337895480777,141.681197846483 L 692.3873103256587,110.931197846483 L 674.6337895480777,110.931197846483 L 665.7570291592872,126.306197846483 L 674.6337895480777,141.681197846483 Z"
       id="path136"
       style="vector-effect:non-scaling-stroke;-inkscape-stroke:hairline;stroke-width:0.26458333;stroke-dasharray:none" />
    <path
       d="M 673.8617024167288,92.7003101676676 L 670.6337895480777,87.1094010767585 L 706.1408311032396,87.1094010767585 L 702.9129182345886,92.7003101676676 L 673.8617024167288,92.7003101676676 Z"
       id="path137"
       style="vector-effect:non-scaling-stroke;-inkscape-stroke:hairline;stroke-width:0.26458333;stroke-dasharray:none" />
    <path
       d="M 700.2229908440461,97.3594010767585 L 697.2640707144492,102.48440107675849 L 679.5105499368682,102.4844010767585 L 676.5516298072714,97.3594010767585 L 700.2229908440461,97.3594010767585 Z"
       id="path138"
       style="vector-effect:non-scaling-stroke;-inkscape-stroke:hairline;stroke-width:0.26458333;stroke-dasharray:none" />
    <path
       d="M 635.1267479929157,87.10940107675849 L 599.6197064377537,87.1094010767585 L 608.4964668265443,102.4844010767585 L 626.2499876041253,102.48440107675849 L 635.1267479929157,87.10940107675849 Z"
       id="path139"
       style="vector-effect:non-scaling-stroke;-inkscape-stroke:hairline;stroke-width:0.26458333;stroke-dasharray:none" />
    <path
       d="M 572.1126648825917,87.10940107675852 L 589.8661856601727,117.8594010767585 L 598.7429460489633,102.4844010767585 L 589.8661856601727,87.1094010767585 L 572.1126648825917,87.10940107675852 Z"
       id="path140"
       style="vector-effect:non-scaling-stroke;-inkscape-stroke:hairline;stroke-width:0.26458333;stroke-dasharray:none" />
    <path
       d="M 614.9174014780326,110.93119784648299 L 621.3732272153347,110.93119784648299 L 603.6197064377537,141.681197846483 L 600.3917935691027,136.0902887555739 L 614.9174014780326,110.93119784648299 Z"
       id="path141"
       style="vector-effect:non-scaling-stroke;-inkscape-stroke:hairline;stroke-width:0.26458333;stroke-dasharray:none" />
    <path
       d="M 597.7018661785601,131.431197846483 L 594.7429460489633,126.306197846483 L 603.6197064377537,110.931197846483 L 609.5375466969474,110.931197846483 L 597.7018661785601,131.431197846483 Z"
       id="path142"
       style="vector-effect:non-scaling-stroke;-inkscape-stroke:hairline;stroke-width:0.26458333;stroke-dasharray:none" />
    <path
       d="M 635.1267479929157,82.4905989232415 L 599.6197064377537,82.49059892324149 L 608.4964668265443,67.11559892324149 L 626.2499876041253,67.1155989232415 L 635.1267479929157,82.4905989232415 Z"
       id="path143"
       style="vector-effect:non-scaling-stroke;-inkscape-stroke:hairline;stroke-width:0.26458333;stroke-dasharray:none" />
    <path
       d="M 572.1126648825917,82.49059892324148 L 589.8661856601727,51.74059892324148 L 598.7429460489633,67.11559892324149 L 589.8661856601727,82.49059892324149 L 572.1126648825917,82.49059892324148 Z"
       id="path144"
       style="vector-effect:non-scaling-stroke;-inkscape-stroke:hairline;stroke-width:0.26458333;stroke-dasharray:none" />
    <path
       d="M 614.9174014780326,58.66880215351701 L 621.3732272153347,58.66880215351701 L 603.6197064377537,27.918802153516992 L 600.3917935691027,33.509711244426114 L 614.9174014780326,58.66880215351701 Z"
       id="path145"
       style="vector-effect:non-scaling-stroke;-inkscape-stroke:hairline;stroke-width:0.26458333;stroke-dasharray:none" />
    <path
       d="M 597.7018661785601,38.16880215351699 L 594.7429460489633,43.29380215351699 L 603.6197064377537,58.66880215351701 L 609.5375466969474,58.66880215351701 L 597.7018661785601,38.16880215351699 Z"
       id="path146"
       style="vector-effect:non-scaling-stroke;-inkscape-stroke:hairline;stroke-width:0.26458333;stroke-dasharray:none" />
    <path
       d="M 639.1267479929157,80.18119784648299 L 621.3732272153347,49.43119784648299 L 639.1267479929157,49.43119784648299 L 648.0035083817062,64.806197846483 L 639.1267479929157,80.18119784648299 Z"
       id="path147"
       style="vector-effect:non-scaling-stroke;-inkscape-stroke:hairline;stroke-width:0.26458333;stroke-dasharray:none" />
    <path
       d="M 607.6197064377537,25.609401076758502 L 643.1267479929157,25.609401076758502 L 634.2499876041253,40.9844010767585 L 616.4964668265443,40.9844010767585 L 607.6197064377537,25.609401076758502 Z"
       id="path148"
       style="vector-effect:non-scaling-stroke;-inkscape-stroke:hairline;stroke-width:0.26458333;stroke-dasharray:none" />
    <path
       d="M 649.6523559018457,50.76849198584941 L 652.8802687704967,56.3594010767585 L 670.6337895480777,25.609401076758502 L 664.1779638107755,25.609401076758502 L 649.6523559018457,50.76849198584941 Z"
       id="path149"
       style="vector-effect:non-scaling-stroke;-inkscape-stroke:hairline;stroke-width:0.26458333;stroke-dasharray:none" />
    <path
       d="M 658.7981090296904,25.609401076758502 L 652.8802687704967,25.609401076758502 L 644.0035083817062,40.9844010767585 L 646.9624285113031,46.1094010767585 L 658.7981090296904,25.609401076758502 Z"
       id="path150"
       style="vector-effect:non-scaling-stroke;-inkscape-stroke:hairline;stroke-width:0.26458333;stroke-dasharray:none" />
    <path
       d="M 643.1267479929157,82.49059892324148 L 660.8802687704967,51.74059892324148 L 669.7570291592872,67.11559892324149 L 660.8802687704967,82.49059892324149 L 643.1267479929157,82.49059892324148 Z"
       id="path151"
       style="vector-effect:non-scaling-stroke;-inkscape-stroke:hairline;stroke-width:0.26458333;stroke-dasharray:none" />
    <path
       d="M 674.6337895480777,27.918802153516992 L 692.3873103256587,58.66880215351699 L 674.6337895480777,58.66880215351701 L 665.7570291592872,43.29380215351701 L 674.6337895480777,27.918802153516992 Z"
       id="path152"
       style="vector-effect:non-scaling-stroke;-inkscape-stroke:hairline;stroke-width:0.26458333;stroke-dasharray:none" />
    <path
       d="M 673.8617024167288,76.8996898323324 L 670.6337895480777,82.49059892324149 L 706.1408311032396,82.49059892324149 L 702.9129182345886,76.8996898323324 L 673.8617024167288,76.8996898323324 Z"
       id="path153"
       style="vector-effect:non-scaling-stroke;-inkscape-stroke:hairline;stroke-width:0.26458333;stroke-dasharray:none" />
    <path
       d="M 700.2229908440461,72.24059892324149 L 697.2640707144492,67.1155989232415 L 679.5105499368682,67.11559892324149 L 676.5516298072714,72.24059892324149 L 700.2229908440461,72.24059892324149 Z"
       id="path154"
       style="vector-effect:non-scaling-stroke;-inkscape-stroke:hairline;stroke-width:0.26458333;stroke-dasharray:none" />
    <path
       d="M 745.6478726584016,27.918802153516992 L 727.8943518808208,58.66880215351701 L 745.6478726584016,58.66880215351701 L 754.5246330471922,43.29380215351701 L 745.6478726584016,27.918802153516992 Z"
       id="path155"
       style="vector-effect:non-scaling-stroke;-inkscape-stroke:hairline;stroke-width:0.26458333;stroke-dasharray:none" />
    <path
       d="M 714.1408311032397,82.49059892324149 L 749.6478726584016,82.49059892324149 L 740.7711122696112,67.11559892324149 L 723.0175914920302,67.11559892324149 L 714.1408311032397,82.49059892324149 Z"
       id="path156"
       style="vector-effect:non-scaling-stroke;-inkscape-stroke:hairline;stroke-width:0.26458333;stroke-dasharray:none" />
    <path
       d="M 756.1734805673316,57.331508014150586 L 759.4013934359826,51.74059892324149 L 777.1549142135636,82.49059892324148 L 770.6990884762615,82.49059892324148 L 756.1734805673316,57.331508014150586 Z"
       id="path157"
       style="vector-effect:non-scaling-stroke;-inkscape-stroke:hairline;stroke-width:0.26458333;stroke-dasharray:none" />
    <path
       d="M 765.3192336951763,82.49059892324149 L 759.4013934359828,82.49059892324149 L 750.5246330471922,67.11559892324149 L 753.483553176789,61.99059892324149 L 765.3192336951763,82.49059892324149 Z"
       id="path158"
       style="vector-effect:non-scaling-stroke;-inkscape-stroke:hairline;stroke-width:0.26458333;stroke-dasharray:none" />
    <path
       d="M 749.6478726584016,25.609401076758502 L 767.4013934359828,56.359401076758516 L 776.2781538247732,40.9844010767585 L 767.4013934359826,25.609401076758502 L 749.6478726584016,25.609401076758502 Z"
       id="path159"
       style="vector-effect:non-scaling-stroke;-inkscape-stroke:hairline;stroke-width:0.26458333;stroke-dasharray:none" />
    <path
       d="M 781.1549142135636,80.18119784648299 L 798.9084349911446,49.431197846483 L 781.1549142135636,49.43119784648299 L 772.2781538247732,64.806197846483 L 781.1549142135636,80.18119784648299 Z"
       id="path160"
       style="vector-effect:non-scaling-stroke;-inkscape-stroke:hairline;stroke-width:0.26458333;stroke-dasharray:none" />
    <path
       d="M 780.3828270822148,31.200310167667595 L 777.1549142135636,25.609401076758502 L 812.6619557687256,25.609401076758502 L 809.4340429000746,31.200310167667567 L 780.3828270822148,31.200310167667595 Z"
       id="path161"
       style="vector-effect:non-scaling-stroke;-inkscape-stroke:hairline;stroke-width:0.26458333;stroke-dasharray:none" />
    <path
       d="M 806.744115509532,35.8594010767585 L 803.7851953799352,40.9844010767585 L 786.0316746023542,40.9844010767585 L 783.0727544727573,35.8594010767585 L 806.744115509532,35.8594010767585 Z"
       id="path162"
       style="vector-effect:non-scaling-stroke;-inkscape-stroke:hairline;stroke-width:0.26458333;stroke-dasharray:none" />
    <path
       d="M 741.6478726584016,25.609401076758502 L 706.1408311032397,25.609401076758502 L 715.0175914920302,40.9844010767585 L 732.7711122696112,40.9844010767585 L 741.6478726584016,25.609401076758502 Z"
       id="path163"
       style="vector-effect:non-scaling-stroke;-inkscape-stroke:hairline;stroke-width:0.26458333;stroke-dasharray:none" />
    <path
       d="M 678.6337895480777,25.609401076758502 L 696.3873103256587,56.359401076758516 L 705.2640707144492,40.9844010767585 L 696.3873103256587,25.609401076758502 L 678.6337895480777,25.609401076758502 Z"
       id="path164"
       style="vector-effect:non-scaling-stroke;-inkscape-stroke:hairline;stroke-width:0.26458333;stroke-dasharray:none" />
    <path
       d="M 721.4385261435185,49.43119784648299 L 727.8943518808208,49.43119784648299 L 710.1408311032397,80.18119784648299 L 706.9129182345887,74.5902887555739 L 721.4385261435185,49.43119784648299 Z"
       id="path165"
       style="vector-effect:non-scaling-stroke;-inkscape-stroke:hairline;stroke-width:0.26458333;stroke-dasharray:none" />
    <path
       d="M 704.2229908440461,69.931197846483 L 701.2640707144492,64.806197846483 L 710.1408311032397,49.43119784648299 L 716.0586713624334,49.43119784648299 L 704.2229908440461,69.931197846483 Z"
       id="path166"
       style="vector-effect:non-scaling-stroke;-inkscape-stroke:hairline;stroke-width:0.26458333;stroke-dasharray:none" />
    <path
       d="M 741.6478726584016,143.99059892324152 L 706.1408311032397,143.9905989232415 L 715.0175914920302,128.6155989232415 L 732.7711122696112,128.61559892324152 L 741.6478726584016,143.99059892324152 Z"
       id="path167"
       style="vector-effect:non-scaling-stroke;-inkscape-stroke:hairline;stroke-width:0.26458333;stroke-dasharray:none" />
    <path
       d="M 678.6337895480777,143.99059892324146 L 696.3873103256587,113.24059892324148 L 705.2640707144492,128.6155989232415 L 696.3873103256587,143.9905989232415 L 678.6337895480777,143.99059892324146 Z"
       id="path168"
       style="vector-effect:non-scaling-stroke;-inkscape-stroke:hairline;stroke-width:0.26458333;stroke-dasharray:none" />
    <path
       d="M 721.4385261435185,120.168802153517 L 727.8943518808208,120.168802153517 L 710.1408311032397,89.418802153517 L 706.9129182345887,95.0097112444261 L 721.4385261435185,120.168802153517 Z"
       id="path169"
       style="vector-effect:non-scaling-stroke;-inkscape-stroke:hairline;stroke-width:0.26458333;stroke-dasharray:none" />
    <path
       d="M 704.2229908440461,99.66880215351699 L 701.2640707144492,104.79380215351699 L 710.1408311032397,120.168802153517 L 716.0586713624334,120.168802153517 L 704.2229908440461,99.66880215351699 Z"
       id="path170"
       style="vector-effect:non-scaling-stroke;-inkscape-stroke:hairline;stroke-width:0.26458333;stroke-dasharray:none" />
    <path
       d="M 745.6478726584016,141.68119784648297 L 727.8943518808208,110.93119784648299 L 745.6478726584016,110.93119784648299 L 754.5246330471922,126.306197846483 L 745.6478726584016,141.68119784648297 Z"
       id="path171"
       style="vector-effect:non-scaling-stroke;-inkscape-stroke:hairline;stroke-width:0.26458333;stroke-dasharray:none" />
    <path
       d="M 714.1408311032397,87.10940107675849 L 749.6478726584016,87.10940107675849 L 740.7711122696112,102.4844010767585 L 723.0175914920302,102.48440107675849 L 714.1408311032397,87.10940107675849 Z"
       id="path172"
       style="vector-effect:non-scaling-stroke;-inkscape-stroke:hairline;stroke-width:0.26458333;stroke-dasharray:none" />
    <path
       d="M 756.1734805673316,112.26849198584941 L 759.4013934359826,117.8594010767585 L 777.1549142135636,87.10940107675852 L 770.6990884762615,87.10940107675852 L 756.1734805673316,112.26849198584941 Z"
       id="path173"
       style="vector-effect:non-scaling-stroke;-inkscape-stroke:hairline;stroke-width:0.26458333;stroke-dasharray:none" />
    <path
       d="M 765.3192336951763,87.10940107675852 L 759.4013934359828,87.10940107675852 L 750.5246330471922,102.4844010767585 L 753.483553176789,107.6094010767585 L 765.3192336951763,87.10940107675852 Z"
       id="path174"
       style="vector-effect:non-scaling-stroke;-inkscape-stroke:hairline;stroke-width:0.26458333;stroke-dasharray:none" />
    <path
       d="M 749.6478726584016,143.99059892324146 L 767.4013934359828,113.24059892324148 L 776.2781538247732,128.6155989232415 L 767.4013934359826,143.9905989232415 L 749.6478726584016,143.99059892324146 Z"
       id="path175"
       style="vector-effect:non-scaling-stroke;-inkscape-stroke:hairline;stroke-width:0.26458333;stroke-dasharray:none" />
    <path
       d="M 781.1549142135636,89.418802153517 L 798.9084349911446,120.16880215351699 L 781.1549142135636,120.168802153517 L 772.2781538247732,104.793802153517 L 781.1549142135636,89.418802153517 Z"
       id="path176"
       style="vector-effect:non-scaling-stroke;-inkscape-stroke:hairline;stroke-width:0.26458333;stroke-dasharray:none" />
    <path
       d="M 780.3828270822148,138.3996898323324 L 777.1549142135636,143.9905989232415 L 812.6619557687256,143.9905989232415 L 809.4340429000746,138.3996898323324 L 780.3828270822148,138.3996898323324 Z"
       id="path177"
       style="vector-effect:non-scaling-stroke;-inkscape-stroke:hairline;stroke-width:0.26458333;stroke-dasharray:none" />
    <path
       d="M 806.744115509532,133.7405989232415 L 803.7851953799352,128.61559892324152 L 786.0316746023542,128.6155989232415 L 783.0727544727573,133.7405989232415 L 806.744115509532,133.7405989232415 Z"
       id="path178"
       style="vector-effect:non-scaling-stroke;-inkscape-stroke:hairline;stroke-width:0.26458333;stroke-dasharray:none" />
    <path
       d="M 852.1689973238877,89.418802153517 L 834.4154765463066,120.168802153517 L 852.1689973238877,120.16880215351699 L 861.0457577126781,104.79380215351699 L 852.1689973238877,89.418802153517 Z"
       id="path179"
       style="vector-effect:non-scaling-stroke;-inkscape-stroke:hairline;stroke-width:0.26458333;stroke-dasharray:none" />
    <path
       d="M 820.6619557687256,143.9905989232415 L 856.1689973238877,143.9905989232415 L 847.2922369350972,128.6155989232415 L 829.5387161575162,128.6155989232415 L 820.6619557687256,143.9905989232415 Z"
       id="path180"
       style="vector-effect:non-scaling-stroke;-inkscape-stroke:hairline;stroke-width:0.26458333;stroke-dasharray:none" />
    <path
       d="M 862.6946052328176,118.83150801415059 L 865.9225181014687,113.24059892324149 L 883.6760388790497,143.99059892324146 L 877.2202131417474,143.99059892324146 L 862.6946052328176,118.83150801415059 Z"
       id="path181"
       style="vector-effect:non-scaling-stroke;-inkscape-stroke:hairline;stroke-width:0.26458333;stroke-dasharray:none" />
    <path
       d="M 871.8403583606623,143.9905989232415 L 865.9225181014687,143.9905989232415 L 857.0457577126781,128.6155989232415 L 860.004677842275,123.49059892324149 L 871.8403583606623,143.9905989232415 Z"
       id="path182"
       style="vector-effect:non-scaling-stroke;-inkscape-stroke:hairline;stroke-width:0.26458333;stroke-dasharray:none" />
    <path
       d="M 856.1689973238877,87.10940107675852 L 873.9225181014687,117.8594010767585 L 882.7992784902591,102.4844010767585 L 873.9225181014687,87.1094010767585 L 856.1689973238877,87.10940107675852 Z"
       id="path183"
       style="vector-effect:non-scaling-stroke;-inkscape-stroke:hairline;stroke-width:0.26458333;stroke-dasharray:none" />
    <path
       d="M 887.6760388790497,141.681197846483 L 878.7992784902591,126.306197846483 L 887.6760388790497,110.931197846483 L 890.0,110.931197846483 L 890.0,137.65597911018227 L 887.6760388790497,141.681197846483 Z"
       id="path184"
       style="vector-effect:non-scaling-stroke;-inkscape-stroke:hairline;stroke-width:0.26458333;stroke-dasharray:none" />
    <path
       d="M 883.6760388790497,87.1094010767585 L 890.0,87.1094010767585 L 890.0,92.7003101676676 L 886.9039517477007,92.7003101676676 L 883.6760388790497,87.1094010767585 Z"
       id="path185"
       style="vector-effect:non-scaling-stroke;-inkscape-stroke:hairline;stroke-width:0.26458333;stroke-dasharray:none" />
    <path
       d="M 848.1689973238877,87.10940107675849 L 812.6619557687256,87.1094010767585 L 821.5387161575162,102.4844010767585 L 839.2922369350972,102.48440107675849 L 848.1689973238877,87.10940107675849 Z"
       id="path186"
       style="vector-effect:non-scaling-stroke;-inkscape-stroke:hairline;stroke-width:0.26458333;stroke-dasharray:none" />
    <path
       d="M 785.1549142135636,87.10940107675852 L 802.9084349911446,117.8594010767585 L 811.7851953799352,102.4844010767585 L 802.9084349911446,87.1094010767585 L 785.1549142135636,87.10940107675852 Z"
       id="path187"
       style="vector-effect:non-scaling-stroke;-inkscape-stroke:hairline;stroke-width:0.26458333;stroke-dasharray:none" />
    <path
       d="M 827.9596508090045,110.93119784648299 L 834.4154765463066,110.93119784648299 L 816.6619557687256,141.681197846483 L 813.4340429000746,136.0902887555739 L 827.9596508090045,110.93119784648299 Z"
       id="path188"
       style="vector-effect:non-scaling-stroke;-inkscape-stroke:hairline;stroke-width:0.26458333;stroke-dasharray:none" />
    <path
       d="M 810.744115509532,131.431197846483 L 807.7851953799352,126.306197846483 L 816.6619557687256,110.931197846483 L 822.5797960279193,110.931197846483 L 810.744115509532,131.431197846483 Z"
       id="path189"
       style="vector-effect:non-scaling-stroke;-inkscape-stroke:hairline;stroke-width:0.26458333;stroke-dasharray:none" />
    <path
       d="M 848.1689973238877,82.4905989232415 L 812.6619557687256,82.49059892324149 L 821.5387161575162,67.11559892324149 L 839.2922369350972,67.1155989232415 L 848.1689973238877,82.4905989232415 Z"
       id="path190"
       style="vector-effect:non-scaling-stroke;-inkscape-stroke:hairline;stroke-width:0.26458333;stroke-dasharray:none" />
    <path
       d="M 785.1549142135636,82.49059892324148 L 802.9084349911446,51.74059892324148 L 811.7851953799352,67.11559892324149 L 802.9084349911446,82.49059892324149 L 785.1549142135636,82.49059892324148 Z"
       id="path191"
       style="vector-effect:non-scaling-stroke;-inkscape-stroke:hairline;stroke-width:0.26458333;stroke-dasharray:none" />
    <path
       d="M 827.9596508090045,58.66880215351701 L 834.4154765463066,58.66880215351701 L 816.6619557687256,27.918802153516992 L 813.4340429000746,33.509711244426114 L 827.9596508090045,58.66880215351701 Z"
       id="path192"
       style="vector-effect:non-scaling-stroke;-inkscape-stroke:hairline;stroke-width:0.26458333;stroke-dasharray:none" />
    <path
       d="M 810.744115509532,38.16880215351699 L 807.7851953799352,43.29380215351699 L 816.6619557687256,58.66880215351701 L 822.5797960279193,58.66880215351701 L 810.744115509532,38.16880215351699 Z"
       id="path193"
       style="vector-effect:non-scaling-stroke;-inkscape-stroke:hairline;stroke-width:0.26458333;stroke-dasharray:none" />
    <path
       d="M 852.1689973238877,80.18119784648299 L 834.4154765463066,49.43119784648299 L 852.1689973238877,49.43119784648299 L 861.0457577126781,64.806197846483 L 852.1689973238877,80.18119784648299 Z"
       id="path194"
       style="vector-effect:non-scaling-stroke;-inkscape-stroke:hairline;stroke-width:0.26458333;stroke-dasharray:none" />
    <path
       d="M 820.6619557687256,25.609401076758502 L 856.1689973238877,25.609401076758502 L 847.2922369350972,40.9844010767585 L 829.5387161575162,40.9844010767585 L 820.6619557687256,25.609401076758502 Z"
       id="path195"
       style="vector-effect:non-scaling-stroke;-inkscape-stroke:hairline;stroke-width:0.26458333;stroke-dasharray:none" />
    <path
       d="M 862.6946052328176,50.76849198584941 L 865.9225181014687,56.3594010767585 L 883.6760388790497,25.609401076758502 L 877.2202131417474,25.609401076758502 L 862.6946052328176,50.76849198584941 Z"
       id="path196"
       style="vector-effect:non-scaling-stroke;-inkscape-stroke:hairline;stroke-width:0.26458333;stroke-dasharray:none" />
    <path
       d="M 871.8403583606623,25.609401076758502 L 865.9225181014687,25.609401076758502 L 857.0457577126781,40.9844010767585 L 860.004677842275,46.1094010767585 L 871.8403583606623,25.609401076758502 Z"
       id="path197"
       style="vector-effect:non-scaling-stroke;-inkscape-stroke:hairline;stroke-width:0.26458333;stroke-dasharray:none" />
    <path
       d="M 856.1689973238877,82.49059892324148 L 873.9225181014687,51.74059892324148 L 882.7992784902591,67.11559892324149 L 873.9225181014687,82.49059892324149 L 856.1689973238877,82.49059892324148 Z"
       id="path198"
       style="vector-effect:non-scaling-stroke;-inkscape-stroke:hairline;stroke-width:0.26458333;stroke-dasharray:none" />
    <path
       d="M 890.0,31.944020889817693 L 890.0,58.66880215351701 L 887.6760388790497,58.66880215351701 L 878.7992784902591,43.29380215351701 L 887.6760388790497,27.918802153516992 L 890.0,31.944020889817693 Z"
       id="path199"
       style="vector-effect:non-scaling-stroke;-inkscape-stroke:hairline;stroke-width:0.26458333;stroke-dasharray:none" />
    <path
       d="M 883.6760388790497,82.49059892324149 L 886.9039517477007,76.8996898323324 L 890.0,76.8996898323324 L 890.0,82.49059892324149 L 883.6760388790497,82.49059892324149 Z"
       id="path200"
       style="vector-effect:non-scaling-stroke;-inkscape-stroke:hairline;stroke-width:0.26458333;stroke-dasharray:none" />
    <path
       d="M 0.0,170.0 L 905.0,170.0 L 905.0,0.0 L 0.0,0.0 L 0.0,170.0 Z"
       id="path201"
       style="vector-effect:non-scaling-stroke;-inkscape-stroke:hairline;stroke-width:0.26458333;stroke-dasharray:none" />
  </g>
</svg>
