<?xml version="1.0" encoding="UTF-8" standalone="no"?>
<svg
   height="300mm"
   version="1.1"
   viewBox="0 0 1200 300"
   width="1200mm"
   id="svg109"
   sodipodi:docname="tabica_1.6_1.7.svg"
   inkscape:version="1.4.2 (1:1.4.2+202505120737+ebf0e940d0)"
   xmlns:inkscape="http://www.inkscape.org/namespaces/inkscape"
   xmlns:sodipodi="http://sodipodi.sourceforge.net/DTD/sodipodi-0.dtd"
   xmlns="http://www.w3.org/2000/svg"
   xmlns:svg="http://www.w3.org/2000/svg">
  <sodipodi:namedview
     id="namedview109"
     pagecolor="#ffffff"
     bordercolor="#666666"
     borderopacity="1.0"
     inkscape:showpageshadow="2"
     inkscape:pageopacity="0.0"
     inkscape:pagecheckerboard="0"
     inkscape:deskcolor="#d1d1d1"
     inkscape:document-units="mm"
     showgrid="false"
     inkscape:zoom="0.25833827"
     inkscape:cx="2746.3991"
     inkscape:cy="599.98853"
     inkscape:window-width="1920"
     inkscape:window-height="1011"
     inkscape:window-x="0"
     inkscape:window-y="0"
     inkscape:window-maximized="1"
     inkscape:current-layer="svg109" />
  <defs
     id="defs1" />
  <g
     fill="none"
     stroke="blue"
     stroke-width="0.5"
     transform="translate(-67.05606726496393,65.0)"
     id="g109"
     style="vector-effect:non-scaling-stroke;-inkscape-stroke:hairline;stroke-width:0.26458333;stroke-dasharray:none">
    <path
       d="M 233.12493523315175,91.28025588832578 L 233.12493523315175,106.96974411167425 L 225.05606726496387,111.62830720516305 L 225.05606726496387,86.62169279483696 L 233.12493523315175,91.28025588832578 Z"
       id="path1"
       style="vector-effect:non-scaling-stroke;-inkscape-stroke:hairline;stroke-width:0.26458333;stroke-dasharray:none" />
    <path
       d="M 233.12493523315175,32.78025588832577 L 233.12493523315175,48.46974411167423 L 225.05606726496387,53.128307205163054 L 225.05606726496387,28.121692794836946 L 233.12493523315175,32.78025588832577 Z"
       id="path2"
       style="vector-effect:non-scaling-stroke;-inkscape-stroke:hairline;stroke-width:0.26458333;stroke-dasharray:none" />
    <path
       d="M 250.0124306069483,120.53025588832578 L 250.0124306069483,136.21974411167423 L 236.53663211248116,144.0 L 236.31323835382236,144.0 L 225.05606726496387,137.50066924153387 L 225.05606726496387,119.24933075846613 L 236.42493523315176,112.68551177665154 L 250.0124306069483,120.53025588832578 Z"
       id="path3"
       style="vector-effect:non-scaling-stroke;-inkscape-stroke:hairline;stroke-width:0.26458333;stroke-dasharray:none" />
    <path
       d="M 253.3124306069483,83.43551177665154 L 266.89992598074485,91.28025588832577 L 266.89992598074485,106.96974411167426 L 253.3124306069483,114.81448822334846 L 239.72493523315177,106.96974411167423 L 239.72493523315177,91.28025588832577 L 253.3124306069483,83.43551177665154 Z"
       id="path4"
       style="vector-effect:non-scaling-stroke;-inkscape-stroke:hairline;stroke-width:0.26458333;stroke-dasharray:none" />
    <path
       d="M 250.0124306069483,62.03025588832578 L 250.0124306069483,77.71974411167425 L 236.42493523315176,85.56448822334846 L 225.05606726496387,79.00066924153387 L 225.05606726496387,60.74933075846613 L 236.42493523315176,54.18551177665154 L 250.0124306069483,62.03025588832578 Z"
       id="path5"
       style="vector-effect:non-scaling-stroke;-inkscape-stroke:hairline;stroke-width:0.26458333;stroke-dasharray:none" />
    <path
       d="M 253.3124306069483,24.935511776651538 L 266.89992598074485,32.78025588832574 L 266.89992598074485,48.46974411167426 L 253.3124306069483,56.31448822334846 L 239.72493523315177,48.46974411167423 L 239.72493523315177,32.78025588832577 L 253.3124306069483,24.935511776651538 Z"
       id="path6"
       style="vector-effect:non-scaling-stroke;-inkscape-stroke:hairline;stroke-width:0.26458333;stroke-dasharray:none" />
    <path
       d="M 283.78742135454144,120.53025588832577 L 283.7874213545414,136.21974411167426 L 270.3116228600743,144.0 L 270.08822910141544,144.0 L 256.6124306069483,136.21974411167423 L 256.6124306069483,120.53025588832578 L 270.19992598074487,112.68551177665152 L 283.78742135454144,120.53025588832577 Z"
       id="path7"
       style="vector-effect:non-scaling-stroke;-inkscape-stroke:hairline;stroke-width:0.26458333;stroke-dasharray:none" />
    <path
       d="M 287.08742135454145,83.43551177665151 L 300.67491672833796,91.28025588832575 L 300.67491672833796,106.96974411167426 L 287.0874213545414,114.81448822334848 L 273.4999259807449,106.96974411167425 L 273.4999259807449,91.28025588832575 L 287.08742135454145,83.43551177665151 Z"
       id="path8"
       style="vector-effect:non-scaling-stroke;-inkscape-stroke:hairline;stroke-width:0.26458333;stroke-dasharray:none" />
    <path
       d="M 270.19992598074487,54.18551177665151 L 283.78742135454144,62.03025588832577 L 283.7874213545414,77.71974411167426 L 270.19992598074487,85.56448822334848 L 256.6124306069483,77.71974411167422 L 256.6124306069483,62.03025588832578 L 270.19992598074487,54.18551177665151 Z"
       id="path9"
       style="vector-effect:non-scaling-stroke;-inkscape-stroke:hairline;stroke-width:0.26458333;stroke-dasharray:none" />
    <path
       d="M 287.08742135454145,24.93551177665151 L 300.67491672833796,32.78025588832574 L 300.67491672833796,48.46974411167426 L 287.0874213545414,56.31448822334849 L 273.4999259807449,48.46974411167426 L 273.4999259807449,32.78025588832574 L 287.08742135454145,24.93551177665151 Z"
       id="path10"
       style="vector-effect:non-scaling-stroke;-inkscape-stroke:hairline;stroke-width:0.26458333;stroke-dasharray:none" />
    <path
       d="M 317.56241210213454,120.53025588832577 L 317.5624121021345,136.21974411167426 L 304.0866136076674,144.0 L 303.86321984900854,144.0 L 290.38742135454146,136.21974411167426 L 290.38742135454146,120.53025588832575 L 303.974916728338,112.68551177665152 L 317.56241210213454,120.53025588832577 Z"
       id="path11"
       style="vector-effect:non-scaling-stroke;-inkscape-stroke:hairline;stroke-width:0.26458333;stroke-dasharray:none" />
    <path
       d="M 320.8624121021345,83.43551177665152 L 334.44990747593107,91.28025588832577 L 334.44990747593107,106.96974411167426 L 320.8624121021345,114.81448822334848 L 307.274916728338,106.96974411167425 L 307.274916728338,91.28025588832575 L 320.8624121021345,83.43551177665152 Z"
       id="path12"
       style="vector-effect:non-scaling-stroke;-inkscape-stroke:hairline;stroke-width:0.26458333;stroke-dasharray:none" />
    <path
       d="M 303.974916728338,54.18551177665151 L 317.56241210213454,62.03025588832577 L 317.5624121021345,77.71974411167426 L 303.974916728338,85.56448822334848 L 290.38742135454146,77.71974411167425 L 290.38742135454146,62.030255888325755 L 303.974916728338,54.18551177665151 Z"
       id="path13"
       style="vector-effect:non-scaling-stroke;-inkscape-stroke:hairline;stroke-width:0.26458333;stroke-dasharray:none" />
    <path
       d="M 320.8624121021345,24.93551177665151 L 334.44990747593107,32.78025588832574 L 334.44990747593107,48.46974411167426 L 320.8624121021345,56.31448822334849 L 307.274916728338,48.46974411167426 L 307.274916728338,32.78025588832574 L 320.8624121021345,24.93551177665151 Z"
       id="path14"
       style="vector-effect:non-scaling-stroke;-inkscape-stroke:hairline;stroke-width:0.26458333;stroke-dasharray:none" />
    <path
       d="M 351.33740284972765,120.53025588832577 L 351.3374028497276,136.21974411167426 L 337.8616043552605,144.0 L 337.63821059660165,144.0 L 324.1624121021345,136.21974411167426 L 324.1624121021345,120.53025588832575 L 337.7499074759311,112.68551177665152 L 351.33740284972765,120.53025588832577 Z"
       id="path15"
       style="vector-effect:non-scaling-stroke;-inkscape-stroke:hairline;stroke-width:0.26458333;stroke-dasharray:none" />
    <path
       d="M 354.63740284972766,83.43551177665151 L 368.2248982235242,91.28025588832575 L 368.2248982235242,106.96974411167426 L 354.6374028497276,114.81448822334848 L 341.0499074759311,106.96974411167425 L 341.0499074759311,91.28025588832575 L 354.63740284972766,83.43551177665151 Z"
       id="path16"
       style="vector-effect:non-scaling-stroke;-inkscape-stroke:hairline;stroke-width:0.26458333;stroke-dasharray:none" />
    <path
       d="M 337.7499074759311,54.18551177665151 L 351.33740284972765,62.03025588832577 L 351.3374028497276,77.71974411167426 L 337.7499074759311,85.56448822334848 L 324.1624121021345,77.71974411167425 L 324.1624121021345,62.030255888325755 L 337.7499074759311,54.18551177665151 Z"
       id="path17"
       style="vector-effect:non-scaling-stroke;-inkscape-stroke:hairline;stroke-width:0.26458333;stroke-dasharray:none" />
    <path
       d="M 354.63740284972766,24.93551177665151 L 368.2248982235242,32.78025588832574 L 368.2248982235242,48.46974411167426 L 354.6374028497276,56.31448822334849 L 341.0499074759311,48.46974411167426 L 341.0499074759311,32.78025588832574 L 354.63740284972766,24.93551177665151 Z"
       id="path18"
       style="vector-effect:non-scaling-stroke;-inkscape-stroke:hairline;stroke-width:0.26458333;stroke-dasharray:none" />
    <path
       d="M 385.11239359732076,120.53025588832577 L 385.1123935973207,136.21974411167426 L 371.6365951028536,144.0 L 371.41320134419476,144.0 L 357.9374028497277,136.21974411167426 L 357.9374028497277,120.53025588832575 L 371.5248982235242,112.68551177665152 L 385.11239359732076,120.53025588832577 Z"
       id="path19"
       style="vector-effect:non-scaling-stroke;-inkscape-stroke:hairline;stroke-width:0.26458333;stroke-dasharray:none" />
    <path
       d="M 388.4123935973207,83.43551177665152 L 401.9998889711173,91.28025588832577 L 401.9998889711173,106.96974411167426 L 388.4123935973207,114.81448822334848 L 374.8248982235242,106.96974411167425 L 374.8248982235242,91.28025588832575 L 388.4123935973207,83.43551177665152 Z"
       id="path20"
       style="vector-effect:non-scaling-stroke;-inkscape-stroke:hairline;stroke-width:0.26458333;stroke-dasharray:none" />
    <path
       d="M 371.5248982235242,54.18551177665151 L 385.11239359732076,62.03025588832577 L 385.1123935973207,77.71974411167426 L 371.5248982235242,85.56448822334848 L 357.9374028497277,77.71974411167425 L 357.9374028497277,62.030255888325755 L 371.5248982235242,54.18551177665151 Z"
       id="path21"
       style="vector-effect:non-scaling-stroke;-inkscape-stroke:hairline;stroke-width:0.26458333;stroke-dasharray:none" />
    <path
       d="M 388.4123935973207,24.93551177665151 L 401.9998889711173,32.78025588832574 L 401.9998889711173,48.46974411167426 L 388.4123935973207,56.31448822334849 L 374.8248982235242,48.46974411167426 L 374.8248982235242,32.78025588832574 L 388.4123935973207,24.93551177665151 Z"
       id="path22"
       style="vector-effect:non-scaling-stroke;-inkscape-stroke:hairline;stroke-width:0.26458333;stroke-dasharray:none" />
    <path
       d="M 418.88738434491387,120.53025588832577 L 418.8873843449138,136.21974411167426 L 405.4115858504467,144.0 L 405.18819209178787,144.0 L 391.7123935973207,136.21974411167426 L 391.7123935973207,120.53025588832575 L 405.2998889711173,112.68551177665152 L 418.88738434491387,120.53025588832577 Z"
       id="path23"
       style="vector-effect:non-scaling-stroke;-inkscape-stroke:hairline;stroke-width:0.26458333;stroke-dasharray:none" />
    <path
       d="M 422.1873843449139,83.43551177665151 L 435.7748797187104,91.28025588832575 L 435.7748797187104,106.96974411167426 L 422.1873843449138,114.81448822334848 L 408.5998889711173,106.96974411167425 L 408.5998889711173,91.28025588832575 L 422.1873843449139,83.43551177665151 Z"
       id="path24"
       style="vector-effect:non-scaling-stroke;-inkscape-stroke:hairline;stroke-width:0.26458333;stroke-dasharray:none" />
    <path
       d="M 405.2998889711173,54.18551177665151 L 418.88738434491387,62.03025588832577 L 418.8873843449138,77.71974411167426 L 405.2998889711173,85.56448822334848 L 391.7123935973207,77.71974411167425 L 391.7123935973207,62.030255888325755 L 405.2998889711173,54.18551177665151 Z"
       id="path25"
       style="vector-effect:non-scaling-stroke;-inkscape-stroke:hairline;stroke-width:0.26458333;stroke-dasharray:none" />
    <path
       d="M 422.1873843449139,24.93551177665151 L 435.7748797187104,32.78025588832574 L 435.7748797187104,48.46974411167426 L 422.1873843449138,56.31448822334849 L 408.5998889711173,48.46974411167426 L 408.5998889711173,32.78025588832574 L 422.1873843449139,24.93551177665151 Z"
       id="path26"
       style="vector-effect:non-scaling-stroke;-inkscape-stroke:hairline;stroke-width:0.26458333;stroke-dasharray:none" />
    <path
       d="M 452.662375092507,120.53025588832577 L 452.6623750925069,136.21974411167426 L 439.18657659803984,144.0 L 438.963182839381,144.0 L 425.4873843449139,136.21974411167426 L 425.4873843449139,120.53025588832575 L 439.0748797187104,112.68551177665152 L 452.662375092507,120.53025588832577 Z"
       id="path27"
       style="vector-effect:non-scaling-stroke;-inkscape-stroke:hairline;stroke-width:0.26458333;stroke-dasharray:none" />
    <path
       d="M 455.96237509250693,83.43551177665152 L 469.5498704663035,91.28025588832577 L 469.5498704663035,106.96974411167426 L 455.96237509250693,114.81448822334848 L 442.3748797187104,106.96974411167425 L 442.3748797187104,91.28025588832575 L 455.96237509250693,83.43551177665152 Z"
       id="path28"
       style="vector-effect:non-scaling-stroke;-inkscape-stroke:hairline;stroke-width:0.26458333;stroke-dasharray:none" />
    <path
       d="M 439.0748797187104,54.18551177665151 L 452.662375092507,62.03025588832577 L 452.6623750925069,77.71974411167426 L 439.0748797187104,85.56448822334848 L 425.4873843449139,77.71974411167425 L 425.4873843449139,62.030255888325755 L 439.0748797187104,54.18551177665151 Z"
       id="path29"
       style="vector-effect:non-scaling-stroke;-inkscape-stroke:hairline;stroke-width:0.26458333;stroke-dasharray:none" />
    <path
       d="M 455.96237509250693,24.93551177665151 L 469.5498704663035,32.78025588832574 L 469.5498704663035,48.46974411167426 L 455.96237509250693,56.31448822334849 L 442.3748797187104,48.46974411167426 L 442.3748797187104,32.78025588832574 L 455.96237509250693,24.93551177665151 Z"
       id="path30"
       style="vector-effect:non-scaling-stroke;-inkscape-stroke:hairline;stroke-width:0.26458333;stroke-dasharray:none" />
    <path
       d="M 486.4373658401001,120.53025588832577 L 486.43736584010003,136.21974411167426 L 472.96156734563294,144.0 L 472.7381735869741,144.0 L 459.26237509250694,136.21974411167426 L 459.26237509250694,120.53025588832575 L 472.8498704663035,112.68551177665152 L 486.4373658401001,120.53025588832577 Z"
       id="path31"
       style="vector-effect:non-scaling-stroke;-inkscape-stroke:hairline;stroke-width:0.26458333;stroke-dasharray:none" />
    <path
       d="M 489.7373658401001,83.43551177665151 L 503.3248612138966,91.28025588832575 L 503.3248612138966,106.96974411167426 L 489.73736584010004,114.81448822334848 L 476.1498704663035,106.96974411167425 L 476.1498704663035,91.28025588832575 L 489.7373658401001,83.43551177665151 Z"
       id="path32"
       style="vector-effect:non-scaling-stroke;-inkscape-stroke:hairline;stroke-width:0.26458333;stroke-dasharray:none" />
    <path
       d="M 472.8498704663035,54.18551177665151 L 486.4373658401001,62.03025588832577 L 486.43736584010003,77.71974411167426 L 472.8498704663035,85.56448822334848 L 459.26237509250694,77.71974411167425 L 459.26237509250694,62.030255888325755 L 472.8498704663035,54.18551177665151 Z"
       id="path33"
       style="vector-effect:non-scaling-stroke;-inkscape-stroke:hairline;stroke-width:0.26458333;stroke-dasharray:none" />
    <path
       d="M 489.7373658401001,24.93551177665151 L 503.3248612138966,32.78025588832574 L 503.3248612138966,48.46974411167426 L 489.73736584010004,56.31448822334849 L 476.1498704663035,48.46974411167426 L 476.1498704663035,32.78025588832574 L 489.7373658401001,24.93551177665151 Z"
       id="path34"
       style="vector-effect:non-scaling-stroke;-inkscape-stroke:hairline;stroke-width:0.26458333;stroke-dasharray:none" />
    <path
       d="M 520.2123565876932,120.53025588832578 L 520.2123565876932,136.21974411167423 L 506.73655809322605,144.0 L 506.5131643345672,144.0 L 493.0373658401001,136.21974411167426 L 493.0373658401001,120.53025588832575 L 506.6248612138966,112.68551177665152 L 520.2123565876932,120.53025588832578 Z"
       id="path35"
       style="vector-effect:non-scaling-stroke;-inkscape-stroke:hairline;stroke-width:0.26458333;stroke-dasharray:none" />
    <path
       d="M 523.5123565876931,83.43551177665152 L 537.0998519614898,91.2802558883258 L 537.0998519614898,106.96974411167423 L 523.5123565876931,114.81448822334848 L 509.92486121389663,106.96974411167425 L 509.92486121389663,91.28025588832575 L 523.5123565876931,83.43551177665152 Z"
       id="path36"
       style="vector-effect:non-scaling-stroke;-inkscape-stroke:hairline;stroke-width:0.26458333;stroke-dasharray:none" />
    <path
       d="M 506.6248612138966,54.18551177665154 L 520.2123565876932,62.03025588832578 L 520.2123565876932,77.71974411167423 L 506.6248612138966,85.56448822334848 L 493.0373658401001,77.71974411167425 L 493.0373658401001,62.030255888325755 L 506.6248612138966,54.18551177665154 Z"
       id="path37"
       style="vector-effect:non-scaling-stroke;-inkscape-stroke:hairline;stroke-width:0.26458333;stroke-dasharray:none" />
    <path
       d="M 523.5123565876931,24.93551177665151 L 537.0998519614898,32.7802558883258 L 537.0998519614898,48.4697441116742 L 523.5123565876931,56.31448822334849 L 509.92486121389663,48.46974411167426 L 509.92486121389663,32.78025588832574 L 523.5123565876931,24.93551177665151 Z"
       id="path38"
       style="vector-effect:non-scaling-stroke;-inkscape-stroke:hairline;stroke-width:0.26458333;stroke-dasharray:none" />
    <path
       d="M 553.9873473352864,120.5302558883258 L 553.9873473352864,136.21974411167423 L 540.5115488408192,144.0 L 540.2881550821603,144.0 L 526.8123565876931,136.21974411167423 L 526.8123565876931,120.53025588832578 L 540.3998519614897,112.68551177665152 L 553.9873473352864,120.5302558883258 Z"
       id="path39"
       style="vector-effect:non-scaling-stroke;-inkscape-stroke:hairline;stroke-width:0.26458333;stroke-dasharray:none" />
    <path
       d="M 557.2873473352863,83.43551177665152 L 570.8748427090829,91.2802558883258 L 570.8748427090828,106.96974411167425 L 557.2873473352863,114.81448822334848 L 543.6998519614897,106.96974411167422 L 543.6998519614897,91.28025588832578 L 557.2873473352863,83.43551177665152 Z"
       id="path40"
       style="vector-effect:non-scaling-stroke;-inkscape-stroke:hairline;stroke-width:0.26458333;stroke-dasharray:none" />
    <path
       d="M 540.3998519614897,54.18551177665151 L 553.9873473352864,62.0302558883258 L 553.9873473352864,77.71974411167423 L 540.3998519614897,85.56448822334848 L 526.8123565876931,77.71974411167422 L 526.8123565876931,62.03025588832578 L 540.3998519614897,54.18551177665151 Z"
       id="path41"
       style="vector-effect:non-scaling-stroke;-inkscape-stroke:hairline;stroke-width:0.26458333;stroke-dasharray:none" />
    <path
       d="M 557.2873473352863,24.93551177665151 L 570.8748427090829,32.78025588832577 L 570.8748427090828,48.4697441116742 L 557.2873473352863,56.31448822334846 L 543.6998519614897,48.4697441116742 L 543.6998519614897,32.7802558883258 L 557.2873473352863,24.93551177665151 Z"
       id="path42"
       style="vector-effect:non-scaling-stroke;-inkscape-stroke:hairline;stroke-width:0.26458333;stroke-dasharray:none" />
    <path
       d="M 587.7623380828795,120.5302558883258 L 587.7623380828795,136.21974411167423 L 574.2865395884123,144.0 L 574.0631458297535,144.0 L 560.5873473352863,136.21974411167423 L 560.5873473352863,120.53025588832578 L 574.1748427090829,112.68551177665152 L 587.7623380828795,120.5302558883258 Z"
       id="path43"
       style="vector-effect:non-scaling-stroke;-inkscape-stroke:hairline;stroke-width:0.26458333;stroke-dasharray:none" />
    <path
       d="M 591.0623380828795,83.43551177665152 L 604.6498334566761,91.2802558883258 L 604.649833456676,106.96974411167425 L 591.0623380828795,114.81448822334848 L 577.4748427090828,106.96974411167422 L 577.4748427090828,91.28025588832578 L 591.0623380828795,83.43551177665152 Z"
       id="path44"
       style="vector-effect:non-scaling-stroke;-inkscape-stroke:hairline;stroke-width:0.26458333;stroke-dasharray:none" />
    <path
       d="M 574.1748427090829,54.18551177665151 L 587.7623380828795,62.0302558883258 L 587.7623380828795,77.71974411167423 L 574.1748427090829,85.56448822334848 L 560.5873473352863,77.71974411167422 L 560.5873473352863,62.03025588832578 L 574.1748427090829,54.18551177665151 Z"
       id="path45"
       style="vector-effect:non-scaling-stroke;-inkscape-stroke:hairline;stroke-width:0.26458333;stroke-dasharray:none" />
    <path
       d="M 591.0623380828795,24.93551177665151 L 604.6498334566761,32.78025588832577 L 604.649833456676,48.4697441116742 L 591.0623380828795,56.31448822334846 L 577.4748427090828,48.4697441116742 L 577.4748427090828,32.7802558883258 L 591.0623380828795,24.93551177665151 Z"
       id="path46"
       style="vector-effect:non-scaling-stroke;-inkscape-stroke:hairline;stroke-width:0.26458333;stroke-dasharray:none" />
    <path
       d="M 621.5373288304726,120.5302558883258 L 621.5373288304726,136.21974411167423 L 608.0615303360054,144.0 L 607.8381365773465,144.0 L 594.3623380828793,136.21974411167423 L 594.3623380828793,120.53025588832578 L 607.949833456676,112.68551177665152 L 621.5373288304726,120.5302558883258 Z"
       id="path47"
       style="vector-effect:non-scaling-stroke;-inkscape-stroke:hairline;stroke-width:0.26458333;stroke-dasharray:none" />
    <path
       d="M 624.8373288304725,83.43551177665152 L 638.4248242042692,91.2802558883258 L 638.424824204269,106.96974411167425 L 624.8373288304725,114.81448822334848 L 611.2498334566759,106.96974411167422 L 611.2498334566759,91.28025588832578 L 624.8373288304725,83.43551177665152 Z"
       id="path48"
       style="vector-effect:non-scaling-stroke;-inkscape-stroke:hairline;stroke-width:0.26458333;stroke-dasharray:none" />
    <path
       d="M 607.949833456676,54.18551177665151 L 621.5373288304726,62.0302558883258 L 621.5373288304726,77.71974411167423 L 607.949833456676,85.56448822334848 L 594.3623380828793,77.71974411167422 L 594.3623380828793,62.03025588832578 L 607.949833456676,54.18551177665151 Z"
       id="path49"
       style="vector-effect:non-scaling-stroke;-inkscape-stroke:hairline;stroke-width:0.26458333;stroke-dasharray:none" />
    <path
       d="M 624.8373288304725,24.93551177665151 L 638.4248242042692,32.78025588832577 L 638.424824204269,48.4697441116742 L 624.8373288304725,56.31448822334846 L 611.2498334566759,48.4697441116742 L 611.2498334566759,32.7802558883258 L 624.8373288304725,24.93551177665151 Z"
       id="path50"
       style="vector-effect:non-scaling-stroke;-inkscape-stroke:hairline;stroke-width:0.26458333;stroke-dasharray:none" />
    <path
       d="M 655.3123195780657,120.5302558883258 L 655.3123195780657,136.21974411167423 L 641.8365210835985,144.0 L 641.6131273249397,144.0 L 628.1373288304725,136.21974411167423 L 628.1373288304725,120.53025588832578 L 641.7248242042691,112.68551177665152 L 655.3123195780657,120.5302558883258 Z"
       id="path51"
       style="vector-effect:non-scaling-stroke;-inkscape-stroke:hairline;stroke-width:0.26458333;stroke-dasharray:none" />
    <path
       d="M 658.6123195780657,83.43551177665152 L 672.1998149518623,91.2802558883258 L 672.1998149518622,106.96974411167425 L 658.6123195780657,114.81448822334848 L 645.0248242042691,106.96974411167422 L 645.0248242042691,91.28025588832578 L 658.6123195780657,83.43551177665152 Z"
       id="path52"
       style="vector-effect:non-scaling-stroke;-inkscape-stroke:hairline;stroke-width:0.26458333;stroke-dasharray:none" />
    <path
       d="M 641.7248242042691,54.18551177665151 L 655.3123195780657,62.0302558883258 L 655.3123195780657,77.71974411167423 L 641.7248242042691,85.56448822334848 L 628.1373288304725,77.71974411167422 L 628.1373288304725,62.03025588832578 L 641.7248242042691,54.18551177665151 Z"
       id="path53"
       style="vector-effect:non-scaling-stroke;-inkscape-stroke:hairline;stroke-width:0.26458333;stroke-dasharray:none" />
    <path
       d="M 658.6123195780657,24.93551177665151 L 672.1998149518623,32.78025588832577 L 672.1998149518622,48.4697441116742 L 658.6123195780657,56.31448822334846 L 645.0248242042691,48.4697441116742 L 645.0248242042691,32.7802558883258 L 658.6123195780657,24.93551177665151 Z"
       id="path54"
       style="vector-effect:non-scaling-stroke;-inkscape-stroke:hairline;stroke-width:0.26458333;stroke-dasharray:none" />
    <path
       d="M 689.0873103256588,120.5302558883258 L 689.0873103256588,136.21974411167423 L 675.6115118311916,144.0 L 675.3881180725327,144.0 L 661.9123195780655,136.21974411167423 L 661.9123195780655,120.53025588832578 L 675.4998149518622,112.68551177665152 L 689.0873103256588,120.5302558883258 Z"
       id="path55"
       style="vector-effect:non-scaling-stroke;-inkscape-stroke:hairline;stroke-width:0.26458333;stroke-dasharray:none" />
    <path
       d="M 692.3873103256587,83.43551177665152 L 705.9748056994554,91.2802558883258 L 705.9748056994553,106.96974411167425 L 692.3873103256587,114.81448822334848 L 678.7998149518621,106.96974411167422 L 678.7998149518621,91.28025588832578 L 692.3873103256587,83.43551177665152 Z"
       id="path56"
       style="vector-effect:non-scaling-stroke;-inkscape-stroke:hairline;stroke-width:0.26458333;stroke-dasharray:none" />
    <path
       d="M 675.4998149518622,54.18551177665151 L 689.0873103256588,62.0302558883258 L 689.0873103256588,77.71974411167423 L 675.4998149518622,85.56448822334848 L 661.9123195780655,77.71974411167422 L 661.9123195780655,62.03025588832578 L 675.4998149518622,54.18551177665151 Z"
       id="path57"
       style="vector-effect:non-scaling-stroke;-inkscape-stroke:hairline;stroke-width:0.26458333;stroke-dasharray:none" />
    <path
       d="M 692.3873103256587,24.93551177665151 L 705.9748056994554,32.78025588832577 L 705.9748056994553,48.4697441116742 L 692.3873103256587,56.31448822334846 L 678.7998149518621,48.4697441116742 L 678.7998149518621,32.7802558883258 L 692.3873103256587,24.93551177665151 Z"
       id="path58"
       style="vector-effect:non-scaling-stroke;-inkscape-stroke:hairline;stroke-width:0.26458333;stroke-dasharray:none" />
    <path
       d="M 722.862301073252,120.5302558883258 L 722.862301073252,136.21974411167423 L 709.3865025787848,144.0 L 709.1631088201259,144.0 L 695.6873103256587,136.21974411167423 L 695.6873103256587,120.53025588832578 L 709.2748056994553,112.68551177665152 L 722.862301073252,120.5302558883258 Z"
       id="path59"
       style="vector-effect:non-scaling-stroke;-inkscape-stroke:hairline;stroke-width:0.26458333;stroke-dasharray:none" />
    <path
       d="M 726.1623010732519,83.43551177665152 L 739.7497964470485,91.2802558883258 L 739.7497964470484,106.96974411167425 L 726.1623010732519,114.81448822334848 L 712.5748056994553,106.96974411167422 L 712.5748056994553,91.28025588832578 L 726.1623010732519,83.43551177665152 Z"
       id="path60"
       style="vector-effect:non-scaling-stroke;-inkscape-stroke:hairline;stroke-width:0.26458333;stroke-dasharray:none" />
    <path
       d="M 709.2748056994553,54.18551177665151 L 722.862301073252,62.0302558883258 L 722.862301073252,77.71974411167423 L 709.2748056994553,85.56448822334848 L 695.6873103256587,77.71974411167422 L 695.6873103256587,62.03025588832578 L 709.2748056994553,54.18551177665151 Z"
       id="path61"
       style="vector-effect:non-scaling-stroke;-inkscape-stroke:hairline;stroke-width:0.26458333;stroke-dasharray:none" />
    <path
       d="M 726.1623010732519,24.93551177665151 L 739.7497964470485,32.78025588832577 L 739.7497964470484,48.4697441116742 L 726.1623010732519,56.31448822334846 L 712.5748056994553,48.4697441116742 L 712.5748056994553,32.7802558883258 L 726.1623010732519,24.93551177665151 Z"
       id="path62"
       style="vector-effect:non-scaling-stroke;-inkscape-stroke:hairline;stroke-width:0.26458333;stroke-dasharray:none" />
    <path
       d="M 756.637291820845,120.5302558883258 L 756.637291820845,136.21974411167423 L 743.1614933263778,144.0 L 742.938099567719,144.0 L 729.4623010732518,136.21974411167423 L 729.4623010732518,120.53025588832578 L 743.0497964470484,112.68551177665152 L 756.637291820845,120.5302558883258 Z"
       id="path63"
       style="vector-effect:non-scaling-stroke;-inkscape-stroke:hairline;stroke-width:0.26458333;stroke-dasharray:none" />
    <path
       d="M 759.937291820845,83.43551177665152 L 773.5247871946416,91.2802558883258 L 773.5247871946415,106.96974411167425 L 759.937291820845,114.81448822334848 L 746.3497964470483,106.96974411167422 L 746.3497964470483,91.28025588832578 L 759.937291820845,83.43551177665152 Z"
       id="path64"
       style="vector-effect:non-scaling-stroke;-inkscape-stroke:hairline;stroke-width:0.26458333;stroke-dasharray:none" />
    <path
       d="M 743.0497964470484,54.18551177665151 L 756.637291820845,62.0302558883258 L 756.637291820845,77.71974411167423 L 743.0497964470484,85.56448822334848 L 729.4623010732518,77.71974411167422 L 729.4623010732518,62.03025588832578 L 743.0497964470484,54.18551177665151 Z"
       id="path65"
       style="vector-effect:non-scaling-stroke;-inkscape-stroke:hairline;stroke-width:0.26458333;stroke-dasharray:none" />
    <path
       d="M 759.937291820845,24.93551177665151 L 773.5247871946416,32.78025588832577 L 773.5247871946415,48.4697441116742 L 759.937291820845,56.31448822334846 L 746.3497964470483,48.4697441116742 L 746.3497964470483,32.7802558883258 L 759.937291820845,24.93551177665151 Z"
       id="path66"
       style="vector-effect:non-scaling-stroke;-inkscape-stroke:hairline;stroke-width:0.26458333;stroke-dasharray:none" />
    <path
       d="M 790.4122825684382,120.5302558883258 L 790.4122825684382,136.21974411167423 L 776.936484073971,144.0 L 776.7130903153121,144.0 L 763.2372918208449,136.21974411167423 L 763.2372918208449,120.53025588832578 L 776.8247871946415,112.68551177665152 L 790.4122825684382,120.5302558883258 Z"
       id="path67"
       style="vector-effect:non-scaling-stroke;-inkscape-stroke:hairline;stroke-width:0.26458333;stroke-dasharray:none" />
    <path
       d="M 793.7122825684381,83.43551177665152 L 807.2997779422348,91.2802558883258 L 807.2997779422346,106.96974411167425 L 793.7122825684381,114.81448822334848 L 780.1247871946415,106.96974411167422 L 780.1247871946415,91.28025588832578 L 793.7122825684381,83.43551177665152 Z"
       id="path68"
       style="vector-effect:non-scaling-stroke;-inkscape-stroke:hairline;stroke-width:0.26458333;stroke-dasharray:none" />
    <path
       d="M 776.8247871946415,54.18551177665151 L 790.4122825684382,62.0302558883258 L 790.4122825684382,77.71974411167423 L 776.8247871946415,85.56448822334848 L 763.2372918208449,77.71974411167422 L 763.2372918208449,62.03025588832578 L 776.8247871946415,54.18551177665151 Z"
       id="path69"
       style="vector-effect:non-scaling-stroke;-inkscape-stroke:hairline;stroke-width:0.26458333;stroke-dasharray:none" />
    <path
       d="M 793.7122825684381,24.93551177665151 L 807.2997779422348,32.78025588832577 L 807.2997779422346,48.4697441116742 L 793.7122825684381,56.31448822334846 L 780.1247871946415,48.4697441116742 L 780.1247871946415,32.7802558883258 L 793.7122825684381,24.93551177665151 Z"
       id="path70"
       style="vector-effect:non-scaling-stroke;-inkscape-stroke:hairline;stroke-width:0.26458333;stroke-dasharray:none" />
    <path
       d="M 824.1872733160312,120.5302558883258 L 824.1872733160312,136.21974411167423 L 810.711474821564,144.0 L 810.4880810629052,144.0 L 797.012282568438,136.21974411167423 L 797.012282568438,120.53025588832578 L 810.5997779422346,112.68551177665152 L 824.1872733160312,120.5302558883258 Z"
       id="path71"
       style="vector-effect:non-scaling-stroke;-inkscape-stroke:hairline;stroke-width:0.26458333;stroke-dasharray:none" />
    <path
       d="M 827.4872733160312,83.43551177665152 L 841.0747686898278,91.2802558883258 L 841.0747686898277,106.96974411167425 L 827.4872733160312,114.81448822334848 L 813.8997779422346,106.96974411167422 L 813.8997779422346,91.28025588832578 L 827.4872733160312,83.43551177665152 Z"
       id="path72"
       style="vector-effect:non-scaling-stroke;-inkscape-stroke:hairline;stroke-width:0.26458333;stroke-dasharray:none" />
    <path
       d="M 810.5997779422346,54.18551177665151 L 824.1872733160312,62.0302558883258 L 824.1872733160312,77.71974411167423 L 810.5997779422346,85.56448822334848 L 797.012282568438,77.71974411167422 L 797.012282568438,62.03025588832578 L 810.5997779422346,54.18551177665151 Z"
       id="path73"
       style="vector-effect:non-scaling-stroke;-inkscape-stroke:hairline;stroke-width:0.26458333;stroke-dasharray:none" />
    <path
       d="M 827.4872733160312,24.93551177665151 L 841.0747686898278,32.78025588832577 L 841.0747686898277,48.4697441116742 L 827.4872733160312,56.31448822334846 L 813.8997779422346,48.4697441116742 L 813.8997779422346,32.7802558883258 L 827.4872733160312,24.93551177665151 Z"
       id="path74"
       style="vector-effect:non-scaling-stroke;-inkscape-stroke:hairline;stroke-width:0.26458333;stroke-dasharray:none" />
    <path
       d="M 857.9622640636244,120.5302558883258 L 857.9622640636244,136.21974411167423 L 844.4864655691572,144.0 L 844.2630718104983,144.0 L 830.7872733160311,136.21974411167423 L 830.7872733160311,120.53025588832578 L 844.3747686898278,112.68551177665152 L 857.9622640636244,120.5302558883258 Z"
       id="path75"
       style="vector-effect:non-scaling-stroke;-inkscape-stroke:hairline;stroke-width:0.26458333;stroke-dasharray:none" />
    <path
       d="M 861.2622640636243,83.43551177665152 L 874.849759437421,91.2802558883258 L 874.8497594374209,106.96974411167425 L 861.2622640636243,114.81448822334848 L 847.6747686898277,106.96974411167422 L 847.6747686898277,91.28025588832578 L 861.2622640636243,83.43551177665152 Z"
       id="path76"
       style="vector-effect:non-scaling-stroke;-inkscape-stroke:hairline;stroke-width:0.26458333;stroke-dasharray:none" />
    <path
       d="M 844.3747686898278,54.18551177665151 L 857.9622640636244,62.0302558883258 L 857.9622640636244,77.71974411167423 L 844.3747686898278,85.56448822334848 L 830.7872733160311,77.71974411167422 L 830.7872733160311,62.03025588832578 L 844.3747686898278,54.18551177665151 Z"
       id="path77"
       style="vector-effect:non-scaling-stroke;-inkscape-stroke:hairline;stroke-width:0.26458333;stroke-dasharray:none" />
    <path
       d="M 861.2622640636243,24.93551177665151 L 874.849759437421,32.78025588832577 L 874.8497594374209,48.4697441116742 L 861.2622640636243,56.31448822334846 L 847.6747686898277,48.4697441116742 L 847.6747686898277,32.7802558883258 L 861.2622640636243,24.93551177665151 Z"
       id="path78"
       style="vector-effect:non-scaling-stroke;-inkscape-stroke:hairline;stroke-width:0.26458333;stroke-dasharray:none" />
    <path
       d="M 891.7372548112174,120.5302558883258 L 891.7372548112174,136.21974411167423 L 878.2614563167502,144.0 L 878.0380625580914,144.0 L 864.5622640636242,136.21974411167423 L 864.5622640636242,120.53025588832578 L 878.1497594374208,112.68551177665152 L 891.7372548112174,120.5302558883258 Z"
       id="path79"
       style="vector-effect:non-scaling-stroke;-inkscape-stroke:hairline;stroke-width:0.26458333;stroke-dasharray:none" />
    <path
       d="M 895.0372548112174,83.43551177665152 L 908.624750185014,91.2802558883258 L 908.6247501850139,106.96974411167425 L 895.0372548112174,114.81448822334848 L 881.4497594374208,106.96974411167422 L 881.4497594374208,91.28025588832578 L 895.0372548112174,83.43551177665152 Z"
       id="path80"
       style="vector-effect:non-scaling-stroke;-inkscape-stroke:hairline;stroke-width:0.26458333;stroke-dasharray:none" />
    <path
       d="M 878.1497594374208,54.18551177665151 L 891.7372548112174,62.0302558883258 L 891.7372548112174,77.71974411167423 L 878.1497594374208,85.56448822334848 L 864.5622640636242,77.71974411167422 L 864.5622640636242,62.03025588832578 L 878.1497594374208,54.18551177665151 Z"
       id="path81"
       style="vector-effect:non-scaling-stroke;-inkscape-stroke:hairline;stroke-width:0.26458333;stroke-dasharray:none" />
    <path
       d="M 895.0372548112174,24.93551177665151 L 908.624750185014,32.78025588832577 L 908.6247501850139,48.4697441116742 L 895.0372548112174,56.31448822334846 L 881.4497594374208,48.4697441116742 L 881.4497594374208,32.7802558883258 L 895.0372548112174,24.93551177665151 Z"
       id="path82"
       style="vector-effect:non-scaling-stroke;-inkscape-stroke:hairline;stroke-width:0.26458333;stroke-dasharray:none" />
    <path
       d="M 925.5122455588106,120.5302558883258 L 925.5122455588106,136.21974411167423 L 912.0364470643434,144.0 L 911.8130533056845,144.0 L 898.3372548112173,136.21974411167423 L 898.3372548112173,120.53025588832578 L 911.924750185014,112.68551177665152 L 925.5122455588106,120.5302558883258 Z"
       id="path83"
       style="vector-effect:non-scaling-stroke;-inkscape-stroke:hairline;stroke-width:0.26458333;stroke-dasharray:none" />
    <path
       d="M 928.8122455588106,83.43551177665152 L 942.3997409326072,91.2802558883258 L 942.3997409326071,106.96974411167425 L 928.8122455588106,114.81448822334848 L 915.2247501850139,106.96974411167422 L 915.2247501850139,91.28025588832578 L 928.8122455588106,83.43551177665152 Z"
       id="path84"
       style="vector-effect:non-scaling-stroke;-inkscape-stroke:hairline;stroke-width:0.26458333;stroke-dasharray:none" />
    <path
       d="M 911.924750185014,54.18551177665151 L 925.5122455588106,62.0302558883258 L 925.5122455588106,77.71974411167423 L 911.924750185014,85.56448822334848 L 898.3372548112173,77.71974411167422 L 898.3372548112173,62.03025588832578 L 911.924750185014,54.18551177665151 Z"
       id="path85"
       style="vector-effect:non-scaling-stroke;-inkscape-stroke:hairline;stroke-width:0.26458333;stroke-dasharray:none" />
    <path
       d="M 928.8122455588106,24.93551177665151 L 942.3997409326072,32.78025588832577 L 942.3997409326071,48.4697441116742 L 928.8122455588106,56.31448822334846 L 915.2247501850139,48.4697441116742 L 915.2247501850139,32.7802558883258 L 928.8122455588106,24.93551177665151 Z"
       id="path86"
       style="vector-effect:non-scaling-stroke;-inkscape-stroke:hairline;stroke-width:0.26458333;stroke-dasharray:none" />
    <path
       d="M 959.2872363064037,120.5302558883258 L 959.2872363064037,136.21974411167423 L 945.8114378119365,144.0 L 945.5880440532776,144.0 L 932.1122455588104,136.21974411167423 L 932.1122455588104,120.53025588832578 L 945.699740932607,112.68551177665152 L 959.2872363064037,120.5302558883258 Z"
       id="path87"
       style="vector-effect:non-scaling-stroke;-inkscape-stroke:hairline;stroke-width:0.26458333;stroke-dasharray:none" />
    <path
       d="M 962.5872363064036,83.43551177665152 L 976.1747316802002,91.2802558883258 L 976.1747316802001,106.96974411167425 L 962.5872363064036,114.81448822334848 L 948.999740932607,106.96974411167422 L 948.999740932607,91.28025588832578 L 962.5872363064036,83.43551177665152 Z"
       id="path88"
       style="vector-effect:non-scaling-stroke;-inkscape-stroke:hairline;stroke-width:0.26458333;stroke-dasharray:none" />
    <path
       d="M 945.699740932607,54.18551177665151 L 959.2872363064037,62.0302558883258 L 959.2872363064037,77.71974411167423 L 945.699740932607,85.56448822334848 L 932.1122455588104,77.71974411167422 L 932.1122455588104,62.03025588832578 L 945.699740932607,54.18551177665151 Z"
       id="path89"
       style="vector-effect:non-scaling-stroke;-inkscape-stroke:hairline;stroke-width:0.26458333;stroke-dasharray:none" />
    <path
       d="M 962.5872363064036,24.93551177665151 L 976.1747316802002,32.78025588832577 L 976.1747316802001,48.4697441116742 L 962.5872363064036,56.31448822334846 L 948.999740932607,48.4697441116742 L 948.999740932607,32.7802558883258 L 962.5872363064036,24.93551177665151 Z"
       id="path90"
       style="vector-effect:non-scaling-stroke;-inkscape-stroke:hairline;stroke-width:0.26458333;stroke-dasharray:none" />
    <path
       d="M 993.0622270539968,120.5302558883258 L 993.0622270539968,136.21974411167423 L 979.5864285595296,144.0 L 979.3630348008708,144.0 L 965.8872363064036,136.21974411167423 L 965.8872363064036,120.53025588832578 L 979.4747316802002,112.68551177665152 L 993.0622270539968,120.5302558883258 Z"
       id="path91"
       style="vector-effect:non-scaling-stroke;-inkscape-stroke:hairline;stroke-width:0.26458333;stroke-dasharray:none" />
    <path
       d="M 996.3622270539968,83.43551177665152 L 1009.9497224277934,91.2802558883258 L 1009.9497224277933,106.96974411167425 L 996.3622270539968,114.81448822334848 L 982.7747316802001,106.96974411167422 L 982.7747316802001,91.28025588832578 L 996.3622270539968,83.43551177665152 Z"
       id="path92"
       style="vector-effect:non-scaling-stroke;-inkscape-stroke:hairline;stroke-width:0.26458333;stroke-dasharray:none" />
    <path
       d="M 979.4747316802002,54.18551177665151 L 993.0622270539968,62.0302558883258 L 993.0622270539968,77.71974411167423 L 979.4747316802002,85.56448822334848 L 965.8872363064036,77.71974411167422 L 965.8872363064036,62.03025588832578 L 979.4747316802002,54.18551177665151 Z"
       id="path93"
       style="vector-effect:non-scaling-stroke;-inkscape-stroke:hairline;stroke-width:0.26458333;stroke-dasharray:none" />
    <path
       d="M 996.3622270539968,24.93551177665151 L 1009.9497224277934,32.78025588832577 L 1009.9497224277933,48.4697441116742 L 996.3622270539968,56.31448822334846 L 982.7747316802001,48.4697441116742 L 982.7747316802001,32.7802558883258 L 996.3622270539968,24.93551177665151 Z"
       id="path94"
       style="vector-effect:non-scaling-stroke;-inkscape-stroke:hairline;stroke-width:0.26458333;stroke-dasharray:none" />
    <path
       d="M 1026.8372178015898,120.53025588832584 L 1026.8372178015898,136.21974411167417 L 1013.3614193071227,144.0 L 1013.1380255484638,144.0 L 999.6622270539966,136.21974411167423 L 999.6622270539966,120.53025588832578 L 1013.2497224277932,112.68551177665152 L 1026.8372178015898,120.53025588832584 Z"
       id="path95"
       style="vector-effect:non-scaling-stroke;-inkscape-stroke:hairline;stroke-width:0.26458333;stroke-dasharray:none" />
    <path
       d="M 1030.1372178015897,83.43551177665158 L 1043.7247131753863,91.28025588832587 L 1043.7247131753863,106.96974411167416 L 1030.1372178015897,114.81448822334842 L 1016.5497224277932,106.96974411167423 L 1016.5497224277932,91.28025588832577 L 1030.1372178015897,83.43551177665158 Z"
       id="path96"
       style="vector-effect:non-scaling-stroke;-inkscape-stroke:hairline;stroke-width:0.26458333;stroke-dasharray:none" />
    <path
       d="M 1013.2497224277932,54.18551177665154 L 1026.8372178015898,62.03025588832584 L 1026.8372178015898,77.71974411167419 L 1013.2497224277932,85.56448822334848 L 999.6622270539966,77.71974411167422 L 999.6622270539966,62.03025588832578 L 1013.2497224277932,54.18551177665154 Z"
       id="path97"
       style="vector-effect:non-scaling-stroke;-inkscape-stroke:hairline;stroke-width:0.26458333;stroke-dasharray:none" />
    <path
       d="M 1030.1372178015897,24.935511776651595 L 1043.7247131753863,32.780255888325854 L 1043.7247131753863,48.469744111674146 L 1030.1372178015897,56.314488223348405 L 1016.5497224277932,48.4697441116742 L 1016.5497224277932,32.7802558883258 L 1030.1372178015897,24.935511776651595 Z"
       id="path98"
       style="vector-effect:non-scaling-stroke;-inkscape-stroke:hairline;stroke-width:0.26458333;stroke-dasharray:none" />
    <path
       d="M 1060.612208549183,120.53025588832587 L 1060.612208549183,136.21974411167417 L 1047.1364100547155,144.0 L 1046.913016296057,144.0 L 1033.4372178015897,136.21974411167415 L 1033.4372178015897,120.53025588832585 L 1047.0247131753863,112.68551177665158 L 1060.612208549183,120.53025588832587 Z"
       id="path99"
       style="vector-effect:non-scaling-stroke;-inkscape-stroke:hairline;stroke-width:0.26458333;stroke-dasharray:none" />
    <path
       d="M 1063.9122085491829,83.43551177665158 L 1077.4997039229795,91.28025588832587 L 1077.4997039229795,106.96974411167416 L 1063.9122085491829,114.81448822334842 L 1050.3247131753863,106.96974411167415 L 1050.3247131753863,91.28025588832585 L 1063.9122085491829,83.43551177665158 Z"
       id="path100"
       style="vector-effect:non-scaling-stroke;-inkscape-stroke:hairline;stroke-width:0.26458333;stroke-dasharray:none" />
    <path
       d="M 1047.0247131753863,54.185511776651595 L 1060.612208549183,62.03025588832587 L 1060.612208549183,77.71974411167416 L 1047.0247131753863,85.56448822334842 L 1033.4372178015897,77.71974411167415 L 1033.4372178015897,62.030255888325854 L 1047.0247131753863,54.185511776651595 Z"
       id="path101"
       style="vector-effect:non-scaling-stroke;-inkscape-stroke:hairline;stroke-width:0.26458333;stroke-dasharray:none" />
    <path
       d="M 1063.9122085491829,24.935511776651595 L 1077.4997039229795,32.780255888325854 L 1077.4997039229795,48.469744111674146 L 1063.9122085491829,56.314488223348405 L 1050.3247131753863,48.469744111674146 L 1050.3247131753863,32.780255888325854 L 1063.9122085491829,24.935511776651595 Z"
       id="path102"
       style="vector-effect:non-scaling-stroke;-inkscape-stroke:hairline;stroke-width:0.26458333;stroke-dasharray:none" />
    <path
       d="M 1094.387199296776,120.53025588832587 L 1094.387199296776,136.21974411167417 L 1080.9114008023087,144.0 L 1080.6880070436503,144.0 L 1067.2122085491828,136.21974411167415 L 1067.2122085491828,120.53025588832585 L 1080.7997039229795,112.68551177665158 L 1094.387199296776,120.53025588832587 Z"
       id="path103"
       style="vector-effect:non-scaling-stroke;-inkscape-stroke:hairline;stroke-width:0.26458333;stroke-dasharray:none" />
    <path
       d="M 1109.056067264964,89.99933075846621 L 1109.056067264964,108.25066924153381 L 1097.687199296776,114.81448822334842 L 1084.0997039229794,106.96974411167415 L 1084.0997039229794,91.28025588832585 L 1097.687199296776,83.43551177665158 L 1109.056067264964,89.99933075846621 Z"
       id="path104"
       style="vector-effect:non-scaling-stroke;-inkscape-stroke:hairline;stroke-width:0.26458333;stroke-dasharray:none" />
    <path
       d="M 1080.7997039229795,54.185511776651595 L 1094.387199296776,62.03025588832587 L 1094.387199296776,77.71974411167416 L 1080.7997039229795,85.56448822334842 L 1067.2122085491828,77.71974411167415 L 1067.2122085491828,62.030255888325854 L 1080.7997039229795,54.185511776651595 Z"
       id="path105"
       style="vector-effect:non-scaling-stroke;-inkscape-stroke:hairline;stroke-width:0.26458333;stroke-dasharray:none" />
    <path
       d="M 1109.056067264964,31.499330758466215 L 1109.056067264964,49.750669241533785 L 1097.687199296776,56.314488223348405 L 1084.0997039229794,48.469744111674146 L 1084.0997039229794,32.780255888325854 L 1097.687199296776,24.935511776651595 L 1109.056067264964,31.499330758466215 Z"
       id="path106"
       style="vector-effect:non-scaling-stroke;-inkscape-stroke:hairline;stroke-width:0.26458333;stroke-dasharray:none" />
    <path
       d="M 1100.987199296776,136.21974411167415 L 1100.987199296776,120.53025588832585 L 1109.056067264964,115.87169279483697 L 1109.056067264964,140.87830720516303 L 1100.987199296776,136.21974411167415 Z"
       id="path107"
       style="vector-effect:non-scaling-stroke;-inkscape-stroke:hairline;stroke-width:0.26458333;stroke-dasharray:none" />
    <path
       d="M 1100.987199296776,77.71974411167415 L 1100.987199296776,62.030255888325854 L 1109.056067264964,57.371692794836974 L 1109.056067264964,82.37830720516303 L 1100.987199296776,77.71974411167415 Z"
       id="path108"
       style="vector-effect:non-scaling-stroke;-inkscape-stroke:hairline;stroke-width:0.26458333;stroke-dasharray:none" />
    <path
       d="M 213.05606726496387,170.0 L 1121.056067264964,170.0 L 1121.056067264964,0.0 L 213.05606726496387,0.0 L 213.05606726496387,170.0 Z"
       id="path109"
       style="vector-effect:non-scaling-stroke;-inkscape-stroke:hairline;stroke-width:0.26458333;stroke-dasharray:none" />
  </g>
</svg>
