  0
SECTION
  2
HEADER
  9
$ACADVER
  1
AC1014
  9
$HANDSEED
  5
FFFF
  9
$INSUNITS
 70
     4
  9
$MEASUREMENT
 70
     1
  0
ENDSEC
  0
SECTION
  2
TABLES
  0
TABLE
  2
VPORT
  5
8
330
0
100
AcDbSymbolTable
 70
     4
  0
VPORT
  5
2E
330
8
100
AcDbSymbolTableRecord
100
AcDbViewportTableRecord
  2
*ACTIVE
 70
     0
 10
0.0
 20
0.0
 11
1.0
 21
1.0
 12
210.0
 22
148.5
 13
0.0
 23
0.0
 14
10.0
 24
10.0
 15
10.0
 25
10.0
 16
0.0
 26
0.0
 36
1.0
 17
0.0
 27
0.0
 37
0.0
 40
341.0
 41
1.24
 42
50.0
 43
0.0
 44
0.0
 50
0.0
 51
0.0
 71
     0
 72
   100
 73
     1
 74
     3
 75
     0
 76
     0
 77
     0
 78
     0
  0
ENDTAB
  0
TABLE
  2
LTYPE
  5
5
330
0
100
AcDbSymbolTable
 70
     1
  0
LTYPE
  5
14
330
5
100
AcDbSymbolTableRecord
100
AcDbLinetypeTableRecord
  2
BYBLOCK
 70
     0
  3

 72
    65
 73
     0
 40
0.0
  0
LTYPE
  5
15
330
5
100
AcDbSymbolTableRecord
100
AcDbLinetypeTableRecord
  2
BYLAYER
 70
     0
  3

 72
    65
 73
     0
 40
0.0
  0
LTYPE
  5
16
330
5
100
AcDbSymbolTableRecord
100
AcDbLinetypeTableRecord
  2
CONTINUOUS
 70
     0
  3
Solid line
 72
    65
 73
     0
 40
0.0
  0
ENDTAB
  0
TABLE
  2
LAYER
  5
2
100
AcDbSymbolTable
 70
1
  0
LAYER
  5
50
100
AcDbSymbolTableRecord
100
AcDbLayerTableRecord
  2
0
 70
0
  6
CONTINUOUS
  0
ENDTAB
  0
TABLE
  2
STYLE
  5
3
330
0
100
AcDbSymbolTable
 70
     1
  0
STYLE
  5
11
330
3
100
AcDbSymbolTableRecord
100
AcDbTextStyleTableRecord
  2
STANDARD
 70
     0
 40
0.0
 41
1.0
 50
0.0
 71
     0
 42
2.5
  3
txt
  4

  0
ENDTAB
  0
TABLE
  2
VIEW
  5
6
330
0
100
AcDbSymbolTable
 70
     0
  0
ENDTAB
  0
TABLE
  2
UCS
  5
7
330
0
100
AcDbSymbolTable
 70
     0
  0
ENDTAB
  0
TABLE
  2
APPID
  5
9
330
0
100
AcDbSymbolTable
 70
     2
  0
APPID
  5
12
330
9
100
AcDbSymbolTableRecord
100
AcDbRegAppTableRecord
  2
ACAD
 70
     0
  0
ENDTAB
  0
TABLE
  2
DIMSTYLE
  5
A
330
0
100
AcDbSymbolTable
 70
     1
  0
DIMSTYLE
105
27
330
A
100
AcDbSymbolTableRecord
100
AcDbDimStyleTableRecord
  2
ISO-25
 70
     0
  3

  4

  5

  6

  7

 40
1.0
 41
2.5
 42
0.625
 43
3.75
 44
1.25
 45
0.0
 46
0.0
 47
0.0
 48
0.0
140
2.5
141
2.5
142
0.0
143
0.03937007874016
144
1.0
145
0.0
146
1.0
147
0.625
 71
     0
 72
     0
 73
     0
 74
     0
 75
     0
 76
     0
 77
     1
 78
     8
170
     0
171
     3
172
     1
173
     0
174
     0
175
     0
176
     0
177
     0
178
     0
270
     2
271
     2
272
     2
273
     2
274
     3
340
11
275
     0
280
     0
281
     0
282
     0
283
     0
284
     8
285
     0
286
     0
287
     3
288
     0
  0
ENDTAB
  0
TABLE
  2
BLOCK_RECORD
  5
1
330
0
100
AcDbSymbolTable
 70
     1
  0
BLOCK_RECORD
  5
1F
330
1
100
AcDbSymbolTableRecord
100
AcDbBlockTableRecord
  2
*MODEL_SPACE
  0
BLOCK_RECORD
  5
1B
330
1
100
AcDbSymbolTableRecord
100
AcDbBlockTableRecord
  2
*PAPER_SPACE
  0
ENDTAB
  0
ENDSEC
  0
SECTION
  2
BLOCKS
  0
BLOCK
  5
20
330
1F
100
AcDbEntity
  8
0
100
AcDbBlockBegin
  2
*MODEL_SPACE
 70
     0
 10
0.0
 20
0.0
 30
0.0
  3
*MODEL_SPACE
  1

  0
ENDBLK
  5
21
330
1F
100
AcDbEntity
  8
0
100
AcDbBlockEnd
  0
BLOCK
  5
1C
330
1B
100
AcDbEntity
 67
     1
  8
0
100
AcDbBlockBegin
  2
*PAPER_SPACE
  1

  0
ENDBLK
  5
1D
330
1B
100
AcDbEntity
 67
     1
  8
0
100
AcDbBlockEnd
  0
ENDSEC
  0
SECTION
  2
ENTITIES
  0
LWPOLYLINE
  5
100
100
AcDbEntity
  8
0
 62
7
100
AcDbPolyline
 90
5
 70
1
 10
166.068835
 20
143.719744
 30
0.0
 10
166.068835
 20
128.030256
 30
0.0
 10
157.999967
 20
123.371693
 30
0.0
 10
157.999967
 20
148.378307
 30
0.0
 10
166.068835
 20
143.719744
 30
0.0
  0
LWPOLYLINE
  5
101
100
AcDbEntity
  8
0
 62
7
100
AcDbPolyline
 90
5
 70
1
 10
166.068835
 20
202.219744
 30
0.0
 10
166.068835
 20
186.530256
 30
0.0
 10
157.999967
 20
181.871693
 30
0.0
 10
157.999967
 20
206.878307
 30
0.0
 10
166.068835
 20
202.219744
 30
0.0
  0
LWPOLYLINE
  5
102
100
AcDbEntity
  8
0
 62
7
100
AcDbPolyline
 90
8
 70
1
 10
182.956331
 20
114.469744
 30
0.0
 10
182.956331
 20
98.780256
 30
0.0
 10
169.480532
 20
91.000000
 30
0.0
 10
169.257138
 20
91.000000
 30
0.0
 10
157.999967
 20
97.499331
 30
0.0
 10
157.999967
 20
115.750669
 30
0.0
 10
169.368835
 20
122.314488
 30
0.0
 10
182.956331
 20
114.469744
 30
0.0
  0
LWPOLYLINE
  5
103
100
AcDbEntity
  8
0
 62
7
100
AcDbPolyline
 90
7
 70
1
 10
186.256331
 20
151.564488
 30
0.0
 10
199.843826
 20
143.719744
 30
0.0
 10
199.843826
 20
128.030256
 30
0.0
 10
186.256331
 20
120.185512
 30
0.0
 10
172.668835
 20
128.030256
 30
0.0
 10
172.668835
 20
143.719744
 30
0.0
 10
186.256331
 20
151.564488
 30
0.0
  0
LWPOLYLINE
  5
104
100
AcDbEntity
  8
0
 62
7
100
AcDbPolyline
 90
7
 70
1
 10
182.956331
 20
172.969744
 30
0.0
 10
182.956331
 20
157.280256
 30
0.0
 10
169.368835
 20
149.435512
 30
0.0
 10
157.999967
 20
155.999331
 30
0.0
 10
157.999967
 20
174.250669
 30
0.0
 10
169.368835
 20
180.814488
 30
0.0
 10
182.956331
 20
172.969744
 30
0.0
  0
LWPOLYLINE
  5
105
100
AcDbEntity
  8
0
 62
7
100
AcDbPolyline
 90
7
 70
1
 10
186.256331
 20
210.064488
 30
0.0
 10
199.843826
 20
202.219744
 30
0.0
 10
199.843826
 20
186.530256
 30
0.0
 10
186.256331
 20
178.685512
 30
0.0
 10
172.668835
 20
186.530256
 30
0.0
 10
172.668835
 20
202.219744
 30
0.0
 10
186.256331
 20
210.064488
 30
0.0
  0
LWPOLYLINE
  5
106
100
AcDbEntity
  8
0
 62
7
100
AcDbPolyline
 90
8
 70
1
 10
216.731321
 20
114.469744
 30
0.0
 10
216.731321
 20
98.780256
 30
0.0
 10
203.255523
 20
91.000000
 30
0.0
 10
203.032129
 20
91.000000
 30
0.0
 10
189.556331
 20
98.780256
 30
0.0
 10
189.556331
 20
114.469744
 30
0.0
 10
203.143826
 20
122.314488
 30
0.0
 10
216.731321
 20
114.469744
 30
0.0
  0
LWPOLYLINE
  5
107
100
AcDbEntity
  8
0
 62
7
100
AcDbPolyline
 90
7
 70
1
 10
220.031321
 20
151.564488
 30
0.0
 10
233.618817
 20
143.719744
 30
0.0
 10
233.618817
 20
128.030256
 30
0.0
 10
220.031321
 20
120.185512
 30
0.0
 10
206.443826
 20
128.030256
 30
0.0
 10
206.443826
 20
143.719744
 30
0.0
 10
220.031321
 20
151.564488
 30
0.0
  0
LWPOLYLINE
  5
108
100
AcDbEntity
  8
0
 62
7
100
AcDbPolyline
 90
7
 70
1
 10
203.143826
 20
180.814488
 30
0.0
 10
216.731321
 20
172.969744
 30
0.0
 10
216.731321
 20
157.280256
 30
0.0
 10
203.143826
 20
149.435512
 30
0.0
 10
189.556331
 20
157.280256
 30
0.0
 10
189.556331
 20
172.969744
 30
0.0
 10
203.143826
 20
180.814488
 30
0.0
  0
LWPOLYLINE
  5
109
100
AcDbEntity
  8
0
 62
7
100
AcDbPolyline
 90
7
 70
1
 10
220.031321
 20
210.064488
 30
0.0
 10
233.618817
 20
202.219744
 30
0.0
 10
233.618817
 20
186.530256
 30
0.0
 10
220.031321
 20
178.685512
 30
0.0
 10
206.443826
 20
186.530256
 30
0.0
 10
206.443826
 20
202.219744
 30
0.0
 10
220.031321
 20
210.064488
 30
0.0
  0
LWPOLYLINE
  5
10a
100
AcDbEntity
  8
0
 62
7
100
AcDbPolyline
 90
8
 70
1
 10
250.506312
 20
114.469744
 30
0.0
 10
250.506312
 20
98.780256
 30
0.0
 10
237.030514
 20
91.000000
 30
0.0
 10
236.807120
 20
91.000000
 30
0.0
 10
223.331321
 20
98.780256
 30
0.0
 10
223.331321
 20
114.469744
 30
0.0
 10
236.918817
 20
122.314488
 30
0.0
 10
250.506312
 20
114.469744
 30
0.0
  0
LWPOLYLINE
  5
10b
100
AcDbEntity
  8
0
 62
7
100
AcDbPolyline
 90
7
 70
1
 10
253.806312
 20
151.564488
 30
0.0
 10
267.393807
 20
143.719744
 30
0.0
 10
267.393807
 20
128.030256
 30
0.0
 10
253.806312
 20
120.185512
 30
0.0
 10
240.218817
 20
128.030256
 30
0.0
 10
240.218817
 20
143.719744
 30
0.0
 10
253.806312
 20
151.564488
 30
0.0
  0
LWPOLYLINE
  5
10c
100
AcDbEntity
  8
0
 62
7
100
AcDbPolyline
 90
7
 70
1
 10
236.918817
 20
180.814488
 30
0.0
 10
250.506312
 20
172.969744
 30
0.0
 10
250.506312
 20
157.280256
 30
0.0
 10
236.918817
 20
149.435512
 30
0.0
 10
223.331321
 20
157.280256
 30
0.0
 10
223.331321
 20
172.969744
 30
0.0
 10
236.918817
 20
180.814488
 30
0.0
  0
LWPOLYLINE
  5
10d
100
AcDbEntity
  8
0
 62
7
100
AcDbPolyline
 90
7
 70
1
 10
253.806312
 20
210.064488
 30
0.0
 10
267.393807
 20
202.219744
 30
0.0
 10
267.393807
 20
186.530256
 30
0.0
 10
253.806312
 20
178.685512
 30
0.0
 10
240.218817
 20
186.530256
 30
0.0
 10
240.218817
 20
202.219744
 30
0.0
 10
253.806312
 20
210.064488
 30
0.0
  0
LWPOLYLINE
  5
10e
100
AcDbEntity
  8
0
 62
7
100
AcDbPolyline
 90
8
 70
1
 10
284.281303
 20
114.469744
 30
0.0
 10
284.281303
 20
98.780256
 30
0.0
 10
270.805504
 20
91.000000
 30
0.0
 10
270.582111
 20
91.000000
 30
0.0
 10
257.106312
 20
98.780256
 30
0.0
 10
257.106312
 20
114.469744
 30
0.0
 10
270.693807
 20
122.314488
 30
0.0
 10
284.281303
 20
114.469744
 30
0.0
  0
LWPOLYLINE
  5
10f
100
AcDbEntity
  8
0
 62
7
100
AcDbPolyline
 90
7
 70
1
 10
287.581303
 20
151.564488
 30
0.0
 10
301.168798
 20
143.719744
 30
0.0
 10
301.168798
 20
128.030256
 30
0.0
 10
287.581303
 20
120.185512
 30
0.0
 10
273.993807
 20
128.030256
 30
0.0
 10
273.993807
 20
143.719744
 30
0.0
 10
287.581303
 20
151.564488
 30
0.0
  0
LWPOLYLINE
  5
110
100
AcDbEntity
  8
0
 62
7
100
AcDbPolyline
 90
7
 70
1
 10
270.693807
 20
180.814488
 30
0.0
 10
284.281303
 20
172.969744
 30
0.0
 10
284.281303
 20
157.280256
 30
0.0
 10
270.693807
 20
149.435512
 30
0.0
 10
257.106312
 20
157.280256
 30
0.0
 10
257.106312
 20
172.969744
 30
0.0
 10
270.693807
 20
180.814488
 30
0.0
  0
LWPOLYLINE
  5
111
100
AcDbEntity
  8
0
 62
7
100
AcDbPolyline
 90
7
 70
1
 10
287.581303
 20
210.064488
 30
0.0
 10
301.168798
 20
202.219744
 30
0.0
 10
301.168798
 20
186.530256
 30
0.0
 10
287.581303
 20
178.685512
 30
0.0
 10
273.993807
 20
186.530256
 30
0.0
 10
273.993807
 20
202.219744
 30
0.0
 10
287.581303
 20
210.064488
 30
0.0
  0
LWPOLYLINE
  5
112
100
AcDbEntity
  8
0
 62
7
100
AcDbPolyline
 90
8
 70
1
 10
318.056294
 20
114.469744
 30
0.0
 10
318.056294
 20
98.780256
 30
0.0
 10
304.580495
 20
91.000000
 30
0.0
 10
304.357101
 20
91.000000
 30
0.0
 10
290.881303
 20
98.780256
 30
0.0
 10
290.881303
 20
114.469744
 30
0.0
 10
304.468798
 20
122.314488
 30
0.0
 10
318.056294
 20
114.469744
 30
0.0
  0
LWPOLYLINE
  5
113
100
AcDbEntity
  8
0
 62
7
100
AcDbPolyline
 90
7
 70
1
 10
321.356294
 20
151.564488
 30
0.0
 10
334.943789
 20
143.719744
 30
0.0
 10
334.943789
 20
128.030256
 30
0.0
 10
321.356294
 20
120.185512
 30
0.0
 10
307.768798
 20
128.030256
 30
0.0
 10
307.768798
 20
143.719744
 30
0.0
 10
321.356294
 20
151.564488
 30
0.0
  0
LWPOLYLINE
  5
114
100
AcDbEntity
  8
0
 62
7
100
AcDbPolyline
 90
7
 70
1
 10
304.468798
 20
180.814488
 30
0.0
 10
318.056294
 20
172.969744
 30
0.0
 10
318.056294
 20
157.280256
 30
0.0
 10
304.468798
 20
149.435512
 30
0.0
 10
290.881303
 20
157.280256
 30
0.0
 10
290.881303
 20
172.969744
 30
0.0
 10
304.468798
 20
180.814488
 30
0.0
  0
LWPOLYLINE
  5
115
100
AcDbEntity
  8
0
 62
7
100
AcDbPolyline
 90
7
 70
1
 10
321.356294
 20
210.064488
 30
0.0
 10
334.943789
 20
202.219744
 30
0.0
 10
334.943789
 20
186.530256
 30
0.0
 10
321.356294
 20
178.685512
 30
0.0
 10
307.768798
 20
186.530256
 30
0.0
 10
307.768798
 20
202.219744
 30
0.0
 10
321.356294
 20
210.064488
 30
0.0
  0
LWPOLYLINE
  5
116
100
AcDbEntity
  8
0
 62
7
100
AcDbPolyline
 90
8
 70
1
 10
351.831284
 20
114.469744
 30
0.0
 10
351.831284
 20
98.780256
 30
0.0
 10
338.355486
 20
91.000000
 30
0.0
 10
338.132092
 20
91.000000
 30
0.0
 10
324.656294
 20
98.780256
 30
0.0
 10
324.656294
 20
114.469744
 30
0.0
 10
338.243789
 20
122.314488
 30
0.0
 10
351.831284
 20
114.469744
 30
0.0
  0
LWPOLYLINE
  5
117
100
AcDbEntity
  8
0
 62
7
100
AcDbPolyline
 90
7
 70
1
 10
355.131284
 20
151.564488
 30
0.0
 10
368.718780
 20
143.719744
 30
0.0
 10
368.718780
 20
128.030256
 30
0.0
 10
355.131284
 20
120.185512
 30
0.0
 10
341.543789
 20
128.030256
 30
0.0
 10
341.543789
 20
143.719744
 30
0.0
 10
355.131284
 20
151.564488
 30
0.0
  0
LWPOLYLINE
  5
118
100
AcDbEntity
  8
0
 62
7
100
AcDbPolyline
 90
7
 70
1
 10
338.243789
 20
180.814488
 30
0.0
 10
351.831284
 20
172.969744
 30
0.0
 10
351.831284
 20
157.280256
 30
0.0
 10
338.243789
 20
149.435512
 30
0.0
 10
324.656294
 20
157.280256
 30
0.0
 10
324.656294
 20
172.969744
 30
0.0
 10
338.243789
 20
180.814488
 30
0.0
  0
LWPOLYLINE
  5
119
100
AcDbEntity
  8
0
 62
7
100
AcDbPolyline
 90
7
 70
1
 10
355.131284
 20
210.064488
 30
0.0
 10
368.718780
 20
202.219744
 30
0.0
 10
368.718780
 20
186.530256
 30
0.0
 10
355.131284
 20
178.685512
 30
0.0
 10
341.543789
 20
186.530256
 30
0.0
 10
341.543789
 20
202.219744
 30
0.0
 10
355.131284
 20
210.064488
 30
0.0
  0
LWPOLYLINE
  5
11a
100
AcDbEntity
  8
0
 62
7
100
AcDbPolyline
 90
8
 70
1
 10
385.606275
 20
114.469744
 30
0.0
 10
385.606275
 20
98.780256
 30
0.0
 10
372.130477
 20
91.000000
 30
0.0
 10
371.907083
 20
91.000000
 30
0.0
 10
358.431284
 20
98.780256
 30
0.0
 10
358.431284
 20
114.469744
 30
0.0
 10
372.018780
 20
122.314488
 30
0.0
 10
385.606275
 20
114.469744
 30
0.0
  0
LWPOLYLINE
  5
11b
100
AcDbEntity
  8
0
 62
7
100
AcDbPolyline
 90
7
 70
1
 10
388.906275
 20
151.564488
 30
0.0
 10
402.493770
 20
143.719744
 30
0.0
 10
402.493770
 20
128.030256
 30
0.0
 10
388.906275
 20
120.185512
 30
0.0
 10
375.318780
 20
128.030256
 30
0.0
 10
375.318780
 20
143.719744
 30
0.0
 10
388.906275
 20
151.564488
 30
0.0
  0
LWPOLYLINE
  5
11c
100
AcDbEntity
  8
0
 62
7
100
AcDbPolyline
 90
7
 70
1
 10
372.018780
 20
180.814488
 30
0.0
 10
385.606275
 20
172.969744
 30
0.0
 10
385.606275
 20
157.280256
 30
0.0
 10
372.018780
 20
149.435512
 30
0.0
 10
358.431284
 20
157.280256
 30
0.0
 10
358.431284
 20
172.969744
 30
0.0
 10
372.018780
 20
180.814488
 30
0.0
  0
LWPOLYLINE
  5
11d
100
AcDbEntity
  8
0
 62
7
100
AcDbPolyline
 90
7
 70
1
 10
388.906275
 20
210.064488
 30
0.0
 10
402.493770
 20
202.219744
 30
0.0
 10
402.493770
 20
186.530256
 30
0.0
 10
388.906275
 20
178.685512
 30
0.0
 10
375.318780
 20
186.530256
 30
0.0
 10
375.318780
 20
202.219744
 30
0.0
 10
388.906275
 20
210.064488
 30
0.0
  0
LWPOLYLINE
  5
11e
100
AcDbEntity
  8
0
 62
7
100
AcDbPolyline
 90
8
 70
1
 10
419.381266
 20
114.469744
 30
0.0
 10
419.381266
 20
98.780256
 30
0.0
 10
405.905467
 20
91.000000
 30
0.0
 10
405.682074
 20
91.000000
 30
0.0
 10
392.206275
 20
98.780256
 30
0.0
 10
392.206275
 20
114.469744
 30
0.0
 10
405.793770
 20
122.314488
 30
0.0
 10
419.381266
 20
114.469744
 30
0.0
  0
LWPOLYLINE
  5
11f
100
AcDbEntity
  8
0
 62
7
100
AcDbPolyline
 90
7
 70
1
 10
422.681266
 20
151.564488
 30
0.0
 10
436.268761
 20
143.719744
 30
0.0
 10
436.268761
 20
128.030256
 30
0.0
 10
422.681266
 20
120.185512
 30
0.0
 10
409.093770
 20
128.030256
 30
0.0
 10
409.093770
 20
143.719744
 30
0.0
 10
422.681266
 20
151.564488
 30
0.0
  0
LWPOLYLINE
  5
120
100
AcDbEntity
  8
0
 62
7
100
AcDbPolyline
 90
7
 70
1
 10
405.793770
 20
180.814488
 30
0.0
 10
419.381266
 20
172.969744
 30
0.0
 10
419.381266
 20
157.280256
 30
0.0
 10
405.793770
 20
149.435512
 30
0.0
 10
392.206275
 20
157.280256
 30
0.0
 10
392.206275
 20
172.969744
 30
0.0
 10
405.793770
 20
180.814488
 30
0.0
  0
LWPOLYLINE
  5
121
100
AcDbEntity
  8
0
 62
7
100
AcDbPolyline
 90
7
 70
1
 10
422.681266
 20
210.064488
 30
0.0
 10
436.268761
 20
202.219744
 30
0.0
 10
436.268761
 20
186.530256
 30
0.0
 10
422.681266
 20
178.685512
 30
0.0
 10
409.093770
 20
186.530256
 30
0.0
 10
409.093770
 20
202.219744
 30
0.0
 10
422.681266
 20
210.064488
 30
0.0
  0
LWPOLYLINE
  5
122
100
AcDbEntity
  8
0
 62
7
100
AcDbPolyline
 90
8
 70
1
 10
453.156257
 20
114.469744
 30
0.0
 10
453.156257
 20
98.780256
 30
0.0
 10
439.680458
 20
91.000000
 30
0.0
 10
439.457064
 20
91.000000
 30
0.0
 10
425.981266
 20
98.780256
 30
0.0
 10
425.981266
 20
114.469744
 30
0.0
 10
439.568761
 20
122.314488
 30
0.0
 10
453.156257
 20
114.469744
 30
0.0
  0
LWPOLYLINE
  5
123
100
AcDbEntity
  8
0
 62
7
100
AcDbPolyline
 90
7
 70
1
 10
456.456257
 20
151.564488
 30
0.0
 10
470.043752
 20
143.719744
 30
0.0
 10
470.043752
 20
128.030256
 30
0.0
 10
456.456257
 20
120.185512
 30
0.0
 10
442.868761
 20
128.030256
 30
0.0
 10
442.868761
 20
143.719744
 30
0.0
 10
456.456257
 20
151.564488
 30
0.0
  0
LWPOLYLINE
  5
124
100
AcDbEntity
  8
0
 62
7
100
AcDbPolyline
 90
7
 70
1
 10
439.568761
 20
180.814488
 30
0.0
 10
453.156257
 20
172.969744
 30
0.0
 10
453.156257
 20
157.280256
 30
0.0
 10
439.568761
 20
149.435512
 30
0.0
 10
425.981266
 20
157.280256
 30
0.0
 10
425.981266
 20
172.969744
 30
0.0
 10
439.568761
 20
180.814488
 30
0.0
  0
LWPOLYLINE
  5
125
100
AcDbEntity
  8
0
 62
7
100
AcDbPolyline
 90
7
 70
1
 10
456.456257
 20
210.064488
 30
0.0
 10
470.043752
 20
202.219744
 30
0.0
 10
470.043752
 20
186.530256
 30
0.0
 10
456.456257
 20
178.685512
 30
0.0
 10
442.868761
 20
186.530256
 30
0.0
 10
442.868761
 20
202.219744
 30
0.0
 10
456.456257
 20
210.064488
 30
0.0
  0
LWPOLYLINE
  5
126
100
AcDbEntity
  8
0
 62
7
100
AcDbPolyline
 90
8
 70
1
 10
486.931247
 20
114.469744
 30
0.0
 10
486.931247
 20
98.780256
 30
0.0
 10
473.455449
 20
91.000000
 30
0.0
 10
473.232055
 20
91.000000
 30
0.0
 10
459.756257
 20
98.780256
 30
0.0
 10
459.756257
 20
114.469744
 30
0.0
 10
473.343752
 20
122.314488
 30
0.0
 10
486.931247
 20
114.469744
 30
0.0
  0
LWPOLYLINE
  5
127
100
AcDbEntity
  8
0
 62
7
100
AcDbPolyline
 90
7
 70
1
 10
490.231247
 20
151.564488
 30
0.0
 10
503.818743
 20
143.719744
 30
0.0
 10
503.818743
 20
128.030256
 30
0.0
 10
490.231247
 20
120.185512
 30
0.0
 10
476.643752
 20
128.030256
 30
0.0
 10
476.643752
 20
143.719744
 30
0.0
 10
490.231247
 20
151.564488
 30
0.0
  0
LWPOLYLINE
  5
128
100
AcDbEntity
  8
0
 62
7
100
AcDbPolyline
 90
7
 70
1
 10
473.343752
 20
180.814488
 30
0.0
 10
486.931247
 20
172.969744
 30
0.0
 10
486.931247
 20
157.280256
 30
0.0
 10
473.343752
 20
149.435512
 30
0.0
 10
459.756257
 20
157.280256
 30
0.0
 10
459.756257
 20
172.969744
 30
0.0
 10
473.343752
 20
180.814488
 30
0.0
  0
LWPOLYLINE
  5
129
100
AcDbEntity
  8
0
 62
7
100
AcDbPolyline
 90
7
 70
1
 10
490.231247
 20
210.064488
 30
0.0
 10
503.818743
 20
202.219744
 30
0.0
 10
503.818743
 20
186.530256
 30
0.0
 10
490.231247
 20
178.685512
 30
0.0
 10
476.643752
 20
186.530256
 30
0.0
 10
476.643752
 20
202.219744
 30
0.0
 10
490.231247
 20
210.064488
 30
0.0
  0
LWPOLYLINE
  5
12a
100
AcDbEntity
  8
0
 62
7
100
AcDbPolyline
 90
8
 70
1
 10
520.706238
 20
114.469744
 30
0.0
 10
520.706238
 20
98.780256
 30
0.0
 10
507.230440
 20
91.000000
 30
0.0
 10
507.007046
 20
91.000000
 30
0.0
 10
493.531247
 20
98.780256
 30
0.0
 10
493.531247
 20
114.469744
 30
0.0
 10
507.118743
 20
122.314488
 30
0.0
 10
520.706238
 20
114.469744
 30
0.0
  0
LWPOLYLINE
  5
12b
100
AcDbEntity
  8
0
 62
7
100
AcDbPolyline
 90
7
 70
1
 10
524.006238
 20
151.564488
 30
0.0
 10
537.593733
 20
143.719744
 30
0.0
 10
537.593733
 20
128.030256
 30
0.0
 10
524.006238
 20
120.185512
 30
0.0
 10
510.418743
 20
128.030256
 30
0.0
 10
510.418743
 20
143.719744
 30
0.0
 10
524.006238
 20
151.564488
 30
0.0
  0
LWPOLYLINE
  5
12c
100
AcDbEntity
  8
0
 62
7
100
AcDbPolyline
 90
7
 70
1
 10
507.118743
 20
180.814488
 30
0.0
 10
520.706238
 20
172.969744
 30
0.0
 10
520.706238
 20
157.280256
 30
0.0
 10
507.118743
 20
149.435512
 30
0.0
 10
493.531247
 20
157.280256
 30
0.0
 10
493.531247
 20
172.969744
 30
0.0
 10
507.118743
 20
180.814488
 30
0.0
  0
LWPOLYLINE
  5
12d
100
AcDbEntity
  8
0
 62
7
100
AcDbPolyline
 90
7
 70
1
 10
524.006238
 20
210.064488
 30
0.0
 10
537.593733
 20
202.219744
 30
0.0
 10
537.593733
 20
186.530256
 30
0.0
 10
524.006238
 20
178.685512
 30
0.0
 10
510.418743
 20
186.530256
 30
0.0
 10
510.418743
 20
202.219744
 30
0.0
 10
524.006238
 20
210.064488
 30
0.0
  0
LWPOLYLINE
  5
12e
100
AcDbEntity
  8
0
 62
7
100
AcDbPolyline
 90
8
 70
1
 10
554.481229
 20
114.469744
 30
0.0
 10
554.481229
 20
98.780256
 30
0.0
 10
541.005430
 20
91.000000
 30
0.0
 10
540.782037
 20
91.000000
 30
0.0
 10
527.306238
 20
98.780256
 30
0.0
 10
527.306238
 20
114.469744
 30
0.0
 10
540.893733
 20
122.314488
 30
0.0
 10
554.481229
 20
114.469744
 30
0.0
  0
LWPOLYLINE
  5
12f
100
AcDbEntity
  8
0
 62
7
100
AcDbPolyline
 90
7
 70
1
 10
557.781229
 20
151.564488
 30
0.0
 10
571.368724
 20
143.719744
 30
0.0
 10
571.368724
 20
128.030256
 30
0.0
 10
557.781229
 20
120.185512
 30
0.0
 10
544.193733
 20
128.030256
 30
0.0
 10
544.193733
 20
143.719744
 30
0.0
 10
557.781229
 20
151.564488
 30
0.0
  0
LWPOLYLINE
  5
130
100
AcDbEntity
  8
0
 62
7
100
AcDbPolyline
 90
7
 70
1
 10
540.893733
 20
180.814488
 30
0.0
 10
554.481229
 20
172.969744
 30
0.0
 10
554.481229
 20
157.280256
 30
0.0
 10
540.893733
 20
149.435512
 30
0.0
 10
527.306238
 20
157.280256
 30
0.0
 10
527.306238
 20
172.969744
 30
0.0
 10
540.893733
 20
180.814488
 30
0.0
  0
LWPOLYLINE
  5
131
100
AcDbEntity
  8
0
 62
7
100
AcDbPolyline
 90
7
 70
1
 10
557.781229
 20
210.064488
 30
0.0
 10
571.368724
 20
202.219744
 30
0.0
 10
571.368724
 20
186.530256
 30
0.0
 10
557.781229
 20
178.685512
 30
0.0
 10
544.193733
 20
186.530256
 30
0.0
 10
544.193733
 20
202.219744
 30
0.0
 10
557.781229
 20
210.064488
 30
0.0
  0
LWPOLYLINE
  5
132
100
AcDbEntity
  8
0
 62
7
100
AcDbPolyline
 90
8
 70
1
 10
588.256220
 20
114.469744
 30
0.0
 10
588.256220
 20
98.780256
 30
0.0
 10
574.780421
 20
91.000000
 30
0.0
 10
574.557027
 20
91.000000
 30
0.0
 10
561.081229
 20
98.780256
 30
0.0
 10
561.081229
 20
114.469744
 30
0.0
 10
574.668724
 20
122.314488
 30
0.0
 10
588.256220
 20
114.469744
 30
0.0
  0
LWPOLYLINE
  5
133
100
AcDbEntity
  8
0
 62
7
100
AcDbPolyline
 90
7
 70
1
 10
591.556220
 20
151.564488
 30
0.0
 10
605.143715
 20
143.719744
 30
0.0
 10
605.143715
 20
128.030256
 30
0.0
 10
591.556220
 20
120.185512
 30
0.0
 10
577.968724
 20
128.030256
 30
0.0
 10
577.968724
 20
143.719744
 30
0.0
 10
591.556220
 20
151.564488
 30
0.0
  0
LWPOLYLINE
  5
134
100
AcDbEntity
  8
0
 62
7
100
AcDbPolyline
 90
7
 70
1
 10
574.668724
 20
180.814488
 30
0.0
 10
588.256220
 20
172.969744
 30
0.0
 10
588.256220
 20
157.280256
 30
0.0
 10
574.668724
 20
149.435512
 30
0.0
 10
561.081229
 20
157.280256
 30
0.0
 10
561.081229
 20
172.969744
 30
0.0
 10
574.668724
 20
180.814488
 30
0.0
  0
LWPOLYLINE
  5
135
100
AcDbEntity
  8
0
 62
7
100
AcDbPolyline
 90
7
 70
1
 10
591.556220
 20
210.064488
 30
0.0
 10
605.143715
 20
202.219744
 30
0.0
 10
605.143715
 20
186.530256
 30
0.0
 10
591.556220
 20
178.685512
 30
0.0
 10
577.968724
 20
186.530256
 30
0.0
 10
577.968724
 20
202.219744
 30
0.0
 10
591.556220
 20
210.064488
 30
0.0
  0
LWPOLYLINE
  5
136
100
AcDbEntity
  8
0
 62
7
100
AcDbPolyline
 90
8
 70
1
 10
622.031210
 20
114.469744
 30
0.0
 10
622.031210
 20
98.780256
 30
0.0
 10
608.555412
 20
91.000000
 30
0.0
 10
608.332018
 20
91.000000
 30
0.0
 10
594.856220
 20
98.780256
 30
0.0
 10
594.856220
 20
114.469744
 30
0.0
 10
608.443715
 20
122.314488
 30
0.0
 10
622.031210
 20
114.469744
 30
0.0
  0
LWPOLYLINE
  5
137
100
AcDbEntity
  8
0
 62
7
100
AcDbPolyline
 90
7
 70
1
 10
625.331210
 20
151.564488
 30
0.0
 10
638.918706
 20
143.719744
 30
0.0
 10
638.918706
 20
128.030256
 30
0.0
 10
625.331210
 20
120.185512
 30
0.0
 10
611.743715
 20
128.030256
 30
0.0
 10
611.743715
 20
143.719744
 30
0.0
 10
625.331210
 20
151.564488
 30
0.0
  0
LWPOLYLINE
  5
138
100
AcDbEntity
  8
0
 62
7
100
AcDbPolyline
 90
7
 70
1
 10
608.443715
 20
180.814488
 30
0.0
 10
622.031210
 20
172.969744
 30
0.0
 10
622.031210
 20
157.280256
 30
0.0
 10
608.443715
 20
149.435512
 30
0.0
 10
594.856220
 20
157.280256
 30
0.0
 10
594.856220
 20
172.969744
 30
0.0
 10
608.443715
 20
180.814488
 30
0.0
  0
LWPOLYLINE
  5
139
100
AcDbEntity
  8
0
 62
7
100
AcDbPolyline
 90
7
 70
1
 10
625.331210
 20
210.064488
 30
0.0
 10
638.918706
 20
202.219744
 30
0.0
 10
638.918706
 20
186.530256
 30
0.0
 10
625.331210
 20
178.685512
 30
0.0
 10
611.743715
 20
186.530256
 30
0.0
 10
611.743715
 20
202.219744
 30
0.0
 10
625.331210
 20
210.064488
 30
0.0
  0
LWPOLYLINE
  5
13a
100
AcDbEntity
  8
0
 62
7
100
AcDbPolyline
 90
8
 70
1
 10
655.806201
 20
114.469744
 30
0.0
 10
655.806201
 20
98.780256
 30
0.0
 10
642.330403
 20
91.000000
 30
0.0
 10
642.107009
 20
91.000000
 30
0.0
 10
628.631210
 20
98.780256
 30
0.0
 10
628.631210
 20
114.469744
 30
0.0
 10
642.218706
 20
122.314488
 30
0.0
 10
655.806201
 20
114.469744
 30
0.0
  0
LWPOLYLINE
  5
13b
100
AcDbEntity
  8
0
 62
7
100
AcDbPolyline
 90
7
 70
1
 10
659.106201
 20
151.564488
 30
0.0
 10
672.693696
 20
143.719744
 30
0.0
 10
672.693696
 20
128.030256
 30
0.0
 10
659.106201
 20
120.185512
 30
0.0
 10
645.518706
 20
128.030256
 30
0.0
 10
645.518706
 20
143.719744
 30
0.0
 10
659.106201
 20
151.564488
 30
0.0
  0
LWPOLYLINE
  5
13c
100
AcDbEntity
  8
0
 62
7
100
AcDbPolyline
 90
7
 70
1
 10
642.218706
 20
180.814488
 30
0.0
 10
655.806201
 20
172.969744
 30
0.0
 10
655.806201
 20
157.280256
 30
0.0
 10
642.218706
 20
149.435512
 30
0.0
 10
628.631210
 20
157.280256
 30
0.0
 10
628.631210
 20
172.969744
 30
0.0
 10
642.218706
 20
180.814488
 30
0.0
  0
LWPOLYLINE
  5
13d
100
AcDbEntity
  8
0
 62
7
100
AcDbPolyline
 90
7
 70
1
 10
659.106201
 20
210.064488
 30
0.0
 10
672.693696
 20
202.219744
 30
0.0
 10
672.693696
 20
186.530256
 30
0.0
 10
659.106201
 20
178.685512
 30
0.0
 10
645.518706
 20
186.530256
 30
0.0
 10
645.518706
 20
202.219744
 30
0.0
 10
659.106201
 20
210.064488
 30
0.0
  0
LWPOLYLINE
  5
13e
100
AcDbEntity
  8
0
 62
7
100
AcDbPolyline
 90
8
 70
1
 10
689.581192
 20
114.469744
 30
0.0
 10
689.581192
 20
98.780256
 30
0.0
 10
676.105393
 20
91.000000
 30
0.0
 10
675.882000
 20
91.000000
 30
0.0
 10
662.406201
 20
98.780256
 30
0.0
 10
662.406201
 20
114.469744
 30
0.0
 10
675.993696
 20
122.314488
 30
0.0
 10
689.581192
 20
114.469744
 30
0.0
  0
LWPOLYLINE
  5
13f
100
AcDbEntity
  8
0
 62
7
100
AcDbPolyline
 90
7
 70
1
 10
692.881192
 20
151.564488
 30
0.0
 10
706.468687
 20
143.719744
 30
0.0
 10
706.468687
 20
128.030256
 30
0.0
 10
692.881192
 20
120.185512
 30
0.0
 10
679.293696
 20
128.030256
 30
0.0
 10
679.293696
 20
143.719744
 30
0.0
 10
692.881192
 20
151.564488
 30
0.0
  0
LWPOLYLINE
  5
140
100
AcDbEntity
  8
0
 62
7
100
AcDbPolyline
 90
7
 70
1
 10
675.993696
 20
180.814488
 30
0.0
 10
689.581192
 20
172.969744
 30
0.0
 10
689.581192
 20
157.280256
 30
0.0
 10
675.993696
 20
149.435512
 30
0.0
 10
662.406201
 20
157.280256
 30
0.0
 10
662.406201
 20
172.969744
 30
0.0
 10
675.993696
 20
180.814488
 30
0.0
  0
LWPOLYLINE
  5
141
100
AcDbEntity
  8
0
 62
7
100
AcDbPolyline
 90
7
 70
1
 10
692.881192
 20
210.064488
 30
0.0
 10
706.468687
 20
202.219744
 30
0.0
 10
706.468687
 20
186.530256
 30
0.0
 10
692.881192
 20
178.685512
 30
0.0
 10
679.293696
 20
186.530256
 30
0.0
 10
679.293696
 20
202.219744
 30
0.0
 10
692.881192
 20
210.064488
 30
0.0
  0
LWPOLYLINE
  5
142
100
AcDbEntity
  8
0
 62
7
100
AcDbPolyline
 90
8
 70
1
 10
723.356183
 20
114.469744
 30
0.0
 10
723.356183
 20
98.780256
 30
0.0
 10
709.880384
 20
91.000000
 30
0.0
 10
709.656990
 20
91.000000
 30
0.0
 10
696.181192
 20
98.780256
 30
0.0
 10
696.181192
 20
114.469744
 30
0.0
 10
709.768687
 20
122.314488
 30
0.0
 10
723.356183
 20
114.469744
 30
0.0
  0
LWPOLYLINE
  5
143
100
AcDbEntity
  8
0
 62
7
100
AcDbPolyline
 90
7
 70
1
 10
726.656183
 20
151.564488
 30
0.0
 10
740.243678
 20
143.719744
 30
0.0
 10
740.243678
 20
128.030256
 30
0.0
 10
726.656183
 20
120.185512
 30
0.0
 10
713.068687
 20
128.030256
 30
0.0
 10
713.068687
 20
143.719744
 30
0.0
 10
726.656183
 20
151.564488
 30
0.0
  0
LWPOLYLINE
  5
144
100
AcDbEntity
  8
0
 62
7
100
AcDbPolyline
 90
7
 70
1
 10
709.768687
 20
180.814488
 30
0.0
 10
723.356183
 20
172.969744
 30
0.0
 10
723.356183
 20
157.280256
 30
0.0
 10
709.768687
 20
149.435512
 30
0.0
 10
696.181192
 20
157.280256
 30
0.0
 10
696.181192
 20
172.969744
 30
0.0
 10
709.768687
 20
180.814488
 30
0.0
  0
LWPOLYLINE
  5
145
100
AcDbEntity
  8
0
 62
7
100
AcDbPolyline
 90
7
 70
1
 10
726.656183
 20
210.064488
 30
0.0
 10
740.243678
 20
202.219744
 30
0.0
 10
740.243678
 20
186.530256
 30
0.0
 10
726.656183
 20
178.685512
 30
0.0
 10
713.068687
 20
186.530256
 30
0.0
 10
713.068687
 20
202.219744
 30
0.0
 10
726.656183
 20
210.064488
 30
0.0
  0
LWPOLYLINE
  5
146
100
AcDbEntity
  8
0
 62
7
100
AcDbPolyline
 90
8
 70
1
 10
757.131173
 20
114.469744
 30
0.0
 10
757.131173
 20
98.780256
 30
0.0
 10
743.655375
 20
91.000000
 30
0.0
 10
743.431981
 20
91.000000
 30
0.0
 10
729.956183
 20
98.780256
 30
0.0
 10
729.956183
 20
114.469744
 30
0.0
 10
743.543678
 20
122.314488
 30
0.0
 10
757.131173
 20
114.469744
 30
0.0
  0
LWPOLYLINE
  5
147
100
AcDbEntity
  8
0
 62
7
100
AcDbPolyline
 90
7
 70
1
 10
760.431173
 20
151.564488
 30
0.0
 10
774.018669
 20
143.719744
 30
0.0
 10
774.018669
 20
128.030256
 30
0.0
 10
760.431173
 20
120.185512
 30
0.0
 10
746.843678
 20
128.030256
 30
0.0
 10
746.843678
 20
143.719744
 30
0.0
 10
760.431173
 20
151.564488
 30
0.0
  0
LWPOLYLINE
  5
148
100
AcDbEntity
  8
0
 62
7
100
AcDbPolyline
 90
7
 70
1
 10
743.543678
 20
180.814488
 30
0.0
 10
757.131173
 20
172.969744
 30
0.0
 10
757.131173
 20
157.280256
 30
0.0
 10
743.543678
 20
149.435512
 30
0.0
 10
729.956183
 20
157.280256
 30
0.0
 10
729.956183
 20
172.969744
 30
0.0
 10
743.543678
 20
180.814488
 30
0.0
  0
LWPOLYLINE
  5
149
100
AcDbEntity
  8
0
 62
7
100
AcDbPolyline
 90
7
 70
1
 10
760.431173
 20
210.064488
 30
0.0
 10
774.018669
 20
202.219744
 30
0.0
 10
774.018669
 20
186.530256
 30
0.0
 10
760.431173
 20
178.685512
 30
0.0
 10
746.843678
 20
186.530256
 30
0.0
 10
746.843678
 20
202.219744
 30
0.0
 10
760.431173
 20
210.064488
 30
0.0
  0
LWPOLYLINE
  5
14a
100
AcDbEntity
  8
0
 62
7
100
AcDbPolyline
 90
8
 70
1
 10
790.906164
 20
114.469744
 30
0.0
 10
790.906164
 20
98.780256
 30
0.0
 10
777.430366
 20
91.000000
 30
0.0
 10
777.206972
 20
91.000000
 30
0.0
 10
763.731173
 20
98.780256
 30
0.0
 10
763.731173
 20
114.469744
 30
0.0
 10
777.318669
 20
122.314488
 30
0.0
 10
790.906164
 20
114.469744
 30
0.0
  0
LWPOLYLINE
  5
14b
100
AcDbEntity
  8
0
 62
7
100
AcDbPolyline
 90
7
 70
1
 10
794.206164
 20
151.564488
 30
0.0
 10
807.793659
 20
143.719744
 30
0.0
 10
807.793659
 20
128.030256
 30
0.0
 10
794.206164
 20
120.185512
 30
0.0
 10
780.618669
 20
128.030256
 30
0.0
 10
780.618669
 20
143.719744
 30
0.0
 10
794.206164
 20
151.564488
 30
0.0
  0
LWPOLYLINE
  5
14c
100
AcDbEntity
  8
0
 62
7
100
AcDbPolyline
 90
7
 70
1
 10
777.318669
 20
180.814488
 30
0.0
 10
790.906164
 20
172.969744
 30
0.0
 10
790.906164
 20
157.280256
 30
0.0
 10
777.318669
 20
149.435512
 30
0.0
 10
763.731173
 20
157.280256
 30
0.0
 10
763.731173
 20
172.969744
 30
0.0
 10
777.318669
 20
180.814488
 30
0.0
  0
LWPOLYLINE
  5
14d
100
AcDbEntity
  8
0
 62
7
100
AcDbPolyline
 90
7
 70
1
 10
794.206164
 20
210.064488
 30
0.0
 10
807.793659
 20
202.219744
 30
0.0
 10
807.793659
 20
186.530256
 30
0.0
 10
794.206164
 20
178.685512
 30
0.0
 10
780.618669
 20
186.530256
 30
0.0
 10
780.618669
 20
202.219744
 30
0.0
 10
794.206164
 20
210.064488
 30
0.0
  0
LWPOLYLINE
  5
14e
100
AcDbEntity
  8
0
 62
7
100
AcDbPolyline
 90
8
 70
1
 10
824.681155
 20
114.469744
 30
0.0
 10
824.681155
 20
98.780256
 30
0.0
 10
811.205356
 20
91.000000
 30
0.0
 10
810.981963
 20
91.000000
 30
0.0
 10
797.506164
 20
98.780256
 30
0.0
 10
797.506164
 20
114.469744
 30
0.0
 10
811.093659
 20
122.314488
 30
0.0
 10
824.681155
 20
114.469744
 30
0.0
  0
LWPOLYLINE
  5
14f
100
AcDbEntity
  8
0
 62
7
100
AcDbPolyline
 90
7
 70
1
 10
827.981155
 20
151.564488
 30
0.0
 10
841.568650
 20
143.719744
 30
0.0
 10
841.568650
 20
128.030256
 30
0.0
 10
827.981155
 20
120.185512
 30
0.0
 10
814.393659
 20
128.030256
 30
0.0
 10
814.393659
 20
143.719744
 30
0.0
 10
827.981155
 20
151.564488
 30
0.0
  0
LWPOLYLINE
  5
150
100
AcDbEntity
  8
0
 62
7
100
AcDbPolyline
 90
7
 70
1
 10
811.093659
 20
180.814488
 30
0.0
 10
824.681155
 20
172.969744
 30
0.0
 10
824.681155
 20
157.280256
 30
0.0
 10
811.093659
 20
149.435512
 30
0.0
 10
797.506164
 20
157.280256
 30
0.0
 10
797.506164
 20
172.969744
 30
0.0
 10
811.093659
 20
180.814488
 30
0.0
  0
LWPOLYLINE
  5
151
100
AcDbEntity
  8
0
 62
7
100
AcDbPolyline
 90
7
 70
1
 10
827.981155
 20
210.064488
 30
0.0
 10
841.568650
 20
202.219744
 30
0.0
 10
841.568650
 20
186.530256
 30
0.0
 10
827.981155
 20
178.685512
 30
0.0
 10
814.393659
 20
186.530256
 30
0.0
 10
814.393659
 20
202.219744
 30
0.0
 10
827.981155
 20
210.064488
 30
0.0
  0
LWPOLYLINE
  5
152
100
AcDbEntity
  8
0
 62
7
100
AcDbPolyline
 90
8
 70
1
 10
858.456146
 20
114.469744
 30
0.0
 10
858.456146
 20
98.780256
 30
0.0
 10
844.980347
 20
91.000000
 30
0.0
 10
844.756953
 20
91.000000
 30
0.0
 10
831.281155
 20
98.780256
 30
0.0
 10
831.281155
 20
114.469744
 30
0.0
 10
844.868650
 20
122.314488
 30
0.0
 10
858.456146
 20
114.469744
 30
0.0
  0
LWPOLYLINE
  5
153
100
AcDbEntity
  8
0
 62
7
100
AcDbPolyline
 90
7
 70
1
 10
861.756146
 20
151.564488
 30
0.0
 10
875.343641
 20
143.719744
 30
0.0
 10
875.343641
 20
128.030256
 30
0.0
 10
861.756146
 20
120.185512
 30
0.0
 10
848.168650
 20
128.030256
 30
0.0
 10
848.168650
 20
143.719744
 30
0.0
 10
861.756146
 20
151.564488
 30
0.0
  0
LWPOLYLINE
  5
154
100
AcDbEntity
  8
0
 62
7
100
AcDbPolyline
 90
7
 70
1
 10
844.868650
 20
180.814488
 30
0.0
 10
858.456146
 20
172.969744
 30
0.0
 10
858.456146
 20
157.280256
 30
0.0
 10
844.868650
 20
149.435512
 30
0.0
 10
831.281155
 20
157.280256
 30
0.0
 10
831.281155
 20
172.969744
 30
0.0
 10
844.868650
 20
180.814488
 30
0.0
  0
LWPOLYLINE
  5
155
100
AcDbEntity
  8
0
 62
7
100
AcDbPolyline
 90
7
 70
1
 10
861.756146
 20
210.064488
 30
0.0
 10
875.343641
 20
202.219744
 30
0.0
 10
875.343641
 20
186.530256
 30
0.0
 10
861.756146
 20
178.685512
 30
0.0
 10
848.168650
 20
186.530256
 30
0.0
 10
848.168650
 20
202.219744
 30
0.0
 10
861.756146
 20
210.064488
 30
0.0
  0
LWPOLYLINE
  5
156
100
AcDbEntity
  8
0
 62
7
100
AcDbPolyline
 90
8
 70
1
 10
892.231136
 20
114.469744
 30
0.0
 10
892.231136
 20
98.780256
 30
0.0
 10
878.755338
 20
91.000000
 30
0.0
 10
878.531944
 20
91.000000
 30
0.0
 10
865.056146
 20
98.780256
 30
0.0
 10
865.056146
 20
114.469744
 30
0.0
 10
878.643641
 20
122.314488
 30
0.0
 10
892.231136
 20
114.469744
 30
0.0
  0
LWPOLYLINE
  5
157
100
AcDbEntity
  8
0
 62
7
100
AcDbPolyline
 90
7
 70
1
 10
895.531136
 20
151.564488
 30
0.0
 10
909.118632
 20
143.719744
 30
0.0
 10
909.118632
 20
128.030256
 30
0.0
 10
895.531136
 20
120.185512
 30
0.0
 10
881.943641
 20
128.030256
 30
0.0
 10
881.943641
 20
143.719744
 30
0.0
 10
895.531136
 20
151.564488
 30
0.0
  0
LWPOLYLINE
  5
158
100
AcDbEntity
  8
0
 62
7
100
AcDbPolyline
 90
7
 70
1
 10
878.643641
 20
180.814488
 30
0.0
 10
892.231136
 20
172.969744
 30
0.0
 10
892.231136
 20
157.280256
 30
0.0
 10
878.643641
 20
149.435512
 30
0.0
 10
865.056146
 20
157.280256
 30
0.0
 10
865.056146
 20
172.969744
 30
0.0
 10
878.643641
 20
180.814488
 30
0.0
  0
LWPOLYLINE
  5
159
100
AcDbEntity
  8
0
 62
7
100
AcDbPolyline
 90
7
 70
1
 10
895.531136
 20
210.064488
 30
0.0
 10
909.118632
 20
202.219744
 30
0.0
 10
909.118632
 20
186.530256
 30
0.0
 10
895.531136
 20
178.685512
 30
0.0
 10
881.943641
 20
186.530256
 30
0.0
 10
881.943641
 20
202.219744
 30
0.0
 10
895.531136
 20
210.064488
 30
0.0
  0
LWPOLYLINE
  5
15a
100
AcDbEntity
  8
0
 62
7
100
AcDbPolyline
 90
8
 70
1
 10
926.006127
 20
114.469744
 30
0.0
 10
926.006127
 20
98.780256
 30
0.0
 10
912.530329
 20
91.000000
 30
0.0
 10
912.306935
 20
91.000000
 30
0.0
 10
898.831136
 20
98.780256
 30
0.0
 10
898.831136
 20
114.469744
 30
0.0
 10
912.418632
 20
122.314488
 30
0.0
 10
926.006127
 20
114.469744
 30
0.0
  0
LWPOLYLINE
  5
15b
100
AcDbEntity
  8
0
 62
7
100
AcDbPolyline
 90
7
 70
1
 10
929.306127
 20
151.564488
 30
0.0
 10
942.893622
 20
143.719744
 30
0.0
 10
942.893622
 20
128.030256
 30
0.0
 10
929.306127
 20
120.185512
 30
0.0
 10
915.718632
 20
128.030256
 30
0.0
 10
915.718632
 20
143.719744
 30
0.0
 10
929.306127
 20
151.564488
 30
0.0
  0
LWPOLYLINE
  5
15c
100
AcDbEntity
  8
0
 62
7
100
AcDbPolyline
 90
7
 70
1
 10
912.418632
 20
180.814488
 30
0.0
 10
926.006127
 20
172.969744
 30
0.0
 10
926.006127
 20
157.280256
 30
0.0
 10
912.418632
 20
149.435512
 30
0.0
 10
898.831136
 20
157.280256
 30
0.0
 10
898.831136
 20
172.969744
 30
0.0
 10
912.418632
 20
180.814488
 30
0.0
  0
LWPOLYLINE
  5
15d
100
AcDbEntity
  8
0
 62
7
100
AcDbPolyline
 90
7
 70
1
 10
929.306127
 20
210.064488
 30
0.0
 10
942.893622
 20
202.219744
 30
0.0
 10
942.893622
 20
186.530256
 30
0.0
 10
929.306127
 20
178.685512
 30
0.0
 10
915.718632
 20
186.530256
 30
0.0
 10
915.718632
 20
202.219744
 30
0.0
 10
929.306127
 20
210.064488
 30
0.0
  0
LWPOLYLINE
  5
15e
100
AcDbEntity
  8
0
 62
7
100
AcDbPolyline
 90
8
 70
1
 10
959.781118
 20
114.469744
 30
0.0
 10
959.781118
 20
98.780256
 30
0.0
 10
946.305319
 20
91.000000
 30
0.0
 10
946.081926
 20
91.000000
 30
0.0
 10
932.606127
 20
98.780256
 30
0.0
 10
932.606127
 20
114.469744
 30
0.0
 10
946.193622
 20
122.314488
 30
0.0
 10
959.781118
 20
114.469744
 30
0.0
  0
LWPOLYLINE
  5
15f
100
AcDbEntity
  8
0
 62
7
100
AcDbPolyline
 90
7
 70
1
 10
963.081118
 20
151.564488
 30
0.0
 10
976.668613
 20
143.719744
 30
0.0
 10
976.668613
 20
128.030256
 30
0.0
 10
963.081118
 20
120.185512
 30
0.0
 10
949.493622
 20
128.030256
 30
0.0
 10
949.493622
 20
143.719744
 30
0.0
 10
963.081118
 20
151.564488
 30
0.0
  0
LWPOLYLINE
  5
160
100
AcDbEntity
  8
0
 62
7
100
AcDbPolyline
 90
7
 70
1
 10
946.193622
 20
180.814488
 30
0.0
 10
959.781118
 20
172.969744
 30
0.0
 10
959.781118
 20
157.280256
 30
0.0
 10
946.193622
 20
149.435512
 30
0.0
 10
932.606127
 20
157.280256
 30
0.0
 10
932.606127
 20
172.969744
 30
0.0
 10
946.193622
 20
180.814488
 30
0.0
  0
LWPOLYLINE
  5
161
100
AcDbEntity
  8
0
 62
7
100
AcDbPolyline
 90
7
 70
1
 10
963.081118
 20
210.064488
 30
0.0
 10
976.668613
 20
202.219744
 30
0.0
 10
976.668613
 20
186.530256
 30
0.0
 10
963.081118
 20
178.685512
 30
0.0
 10
949.493622
 20
186.530256
 30
0.0
 10
949.493622
 20
202.219744
 30
0.0
 10
963.081118
 20
210.064488
 30
0.0
  0
LWPOLYLINE
  5
162
100
AcDbEntity
  8
0
 62
7
100
AcDbPolyline
 90
8
 70
1
 10
993.556109
 20
114.469744
 30
0.0
 10
993.556109
 20
98.780256
 30
0.0
 10
980.080310
 20
91.000000
 30
0.0
 10
979.856916
 20
91.000000
 30
0.0
 10
966.381118
 20
98.780256
 30
0.0
 10
966.381118
 20
114.469744
 30
0.0
 10
979.968613
 20
122.314488
 30
0.0
 10
993.556109
 20
114.469744
 30
0.0
  0
LWPOLYLINE
  5
163
100
AcDbEntity
  8
0
 62
7
100
AcDbPolyline
 90
7
 70
1
 10
996.856109
 20
151.564488
 30
0.0
 10
1010.443604
 20
143.719744
 30
0.0
 10
1010.443604
 20
128.030256
 30
0.0
 10
996.856109
 20
120.185512
 30
0.0
 10
983.268613
 20
128.030256
 30
0.0
 10
983.268613
 20
143.719744
 30
0.0
 10
996.856109
 20
151.564488
 30
0.0
  0
LWPOLYLINE
  5
164
100
AcDbEntity
  8
0
 62
7
100
AcDbPolyline
 90
7
 70
1
 10
979.968613
 20
180.814488
 30
0.0
 10
993.556109
 20
172.969744
 30
0.0
 10
993.556109
 20
157.280256
 30
0.0
 10
979.968613
 20
149.435512
 30
0.0
 10
966.381118
 20
157.280256
 30
0.0
 10
966.381118
 20
172.969744
 30
0.0
 10
979.968613
 20
180.814488
 30
0.0
  0
LWPOLYLINE
  5
165
100
AcDbEntity
  8
0
 62
7
100
AcDbPolyline
 90
7
 70
1
 10
996.856109
 20
210.064488
 30
0.0
 10
1010.443604
 20
202.219744
 30
0.0
 10
1010.443604
 20
186.530256
 30
0.0
 10
996.856109
 20
178.685512
 30
0.0
 10
983.268613
 20
186.530256
 30
0.0
 10
983.268613
 20
202.219744
 30
0.0
 10
996.856109
 20
210.064488
 30
0.0
  0
LWPOLYLINE
  5
166
100
AcDbEntity
  8
0
 62
7
100
AcDbPolyline
 90
8
 70
1
 10
1027.331099
 20
114.469744
 30
0.0
 10
1027.331099
 20
98.780256
 30
0.0
 10
1013.855301
 20
91.000000
 30
0.0
 10
1013.631907
 20
91.000000
 30
0.0
 10
1000.156109
 20
98.780256
 30
0.0
 10
1000.156109
 20
114.469744
 30
0.0
 10
1013.743604
 20
122.314488
 30
0.0
 10
1027.331099
 20
114.469744
 30
0.0
  0
LWPOLYLINE
  5
167
100
AcDbEntity
  8
0
 62
7
100
AcDbPolyline
 90
7
 70
1
 10
1041.999967
 20
145.000669
 30
0.0
 10
1041.999967
 20
126.749331
 30
0.0
 10
1030.631099
 20
120.185512
 30
0.0
 10
1017.043604
 20
128.030256
 30
0.0
 10
1017.043604
 20
143.719744
 30
0.0
 10
1030.631099
 20
151.564488
 30
0.0
 10
1041.999967
 20
145.000669
 30
0.0
  0
LWPOLYLINE
  5
168
100
AcDbEntity
  8
0
 62
7
100
AcDbPolyline
 90
7
 70
1
 10
1013.743604
 20
180.814488
 30
0.0
 10
1027.331099
 20
172.969744
 30
0.0
 10
1027.331099
 20
157.280256
 30
0.0
 10
1013.743604
 20
149.435512
 30
0.0
 10
1000.156109
 20
157.280256
 30
0.0
 10
1000.156109
 20
172.969744
 30
0.0
 10
1013.743604
 20
180.814488
 30
0.0
  0
LWPOLYLINE
  5
169
100
AcDbEntity
  8
0
 62
7
100
AcDbPolyline
 90
7
 70
1
 10
1041.999967
 20
203.500669
 30
0.0
 10
1041.999967
 20
185.249331
 30
0.0
 10
1030.631099
 20
178.685512
 30
0.0
 10
1017.043604
 20
186.530256
 30
0.0
 10
1017.043604
 20
202.219744
 30
0.0
 10
1030.631099
 20
210.064488
 30
0.0
 10
1041.999967
 20
203.500669
 30
0.0
  0
LWPOLYLINE
  5
16a
100
AcDbEntity
  8
0
 62
7
100
AcDbPolyline
 90
5
 70
1
 10
1033.931099
 20
98.780256
 30
0.0
 10
1033.931099
 20
114.469744
 30
0.0
 10
1041.999967
 20
119.128307
 30
0.0
 10
1041.999967
 20
94.121693
 30
0.0
 10
1033.931099
 20
98.780256
 30
0.0
  0
LWPOLYLINE
  5
16b
100
AcDbEntity
  8
0
 62
7
100
AcDbPolyline
 90
5
 70
1
 10
1033.931099
 20
157.280256
 30
0.0
 10
1033.931099
 20
172.969744
 30
0.0
 10
1041.999967
 20
177.628307
 30
0.0
 10
1041.999967
 20
152.621693
 30
0.0
 10
1033.931099
 20
157.280256
 30
0.0
  0
LWPOLYLINE
  5
16c
100
AcDbEntity
  8
0
 62
7
100
AcDbPolyline
 90
5
 70
1
 10
145.999967
 20
65.000000
 30
0.0
 10
1053.999967
 20
65.000000
 30
0.0
 10
1053.999967
 20
235.000000
 30
0.0
 10
145.999967
 20
235.000000
 30
0.0
 10
145.999967
 20
65.000000
 30
0.0
  0
ENDSEC
  0
SECTION
  2
OBJECTS
  0
DICTIONARY
  5
C
330
0
100
AcDbDictionary
  3
ACAD_GROUP
350
D
  3
ACAD_MLINESTYLE
350
17
  0
DICTIONARY
  5
D
330
C
100
AcDbDictionary
  0
DICTIONARY
  5
1A
330
C
100
AcDbDictionary
  0
DICTIONARY
  5
17
330
C
100
AcDbDictionary
  3
STANDARD
350
18
  0
DICTIONARY
  5
19
330
C
100
AcDbDictionary
  0
ENDSEC
  0
EOF
