<?xml version="1.0" encoding="utf-8" ?>
<svg baseProfile="full" height="300mm" version="1.1" viewBox="0 0 1200 300" width="1200mm" xmlns="http://www.w3.org/2000/svg" xmlns:ev="http://www.w3.org/2001/xml-events" xmlns:xlink="http://www.w3.org/1999/xlink"><defs /><g fill="none" stroke="blue" stroke-width="0.5" transform="translate(1.359939634006878,61.0)"><path d="M 166.70989022850446,88.43551177665154 L 178.5653347947321,95.28025588832577 L 178.5653347947321,108.96974411167423 L 166.70989022850446,115.81448822334846 L 154.8544456622768,108.96974411167423 L 154.8544456622768,95.28025588832577 L 166.70989022850446,88.43551177665154 Z" /><path d="M 166.70989022850446,35.93551177665154 L 178.5653347947321,42.78025588832577 L 178.5653347947321,56.46974411167423 L 166.70989022850446,63.31448822334846 L 154.8544456622768,56.46974411167423 L 154.8544456622768,42.78025588832577 L 166.70989022850446,35.93551177665154 Z" /><path d="M 181.86533479473212,114.68551177665154 L 193.7207793609598,121.53025588832577 L 193.72077936095977,135.21974411167423 L 181.86533479473212,142.06448822334846 L 170.00989022850445,135.21974411167423 L 170.00989022850445,121.53025588832577 L 181.86533479473212,114.68551177665154 Z" /><path d="M 197.0207793609598,88.43551177665154 L 208.87622392718748,95.28025588832577 L 208.87622392718745,108.96974411167423 L 197.0207793609598,115.81448822334846 L 185.16533479473213,108.96974411167423 L 185.16533479473213,95.28025588832577 L 197.0207793609598,88.43551177665154 Z" /><path d="M 181.86533479473212,62.18551177665154 L 193.7207793609598,69.03025588832577 L 193.72077936095977,82.71974411167423 L 181.86533479473212,89.56448822334846 L 170.00989022850445,82.71974411167423 L 170.00989022850445,69.03025588832577 L 181.86533479473212,62.18551177665154 Z" /><path d="M 197.0207793609598,35.93551177665154 L 208.87622392718748,42.78025588832577 L 208.87622392718745,56.46974411167423 L 197.0207793609598,63.31448822334846 L 185.16533479473213,56.46974411167423 L 185.16533479473213,42.78025588832577 L 197.0207793609598,35.93551177665154 Z" /><path d="M 212.1762239271875,114.68551177665154 L 224.03166849341517,121.53025588832577 L 224.03166849341514,135.21974411167423 L 212.1762239271875,142.06448822334846 L 200.32077936095982,135.21974411167423 L 200.32077936095982,121.53025588832577 L 212.1762239271875,114.68551177665154 Z" /><path d="M 227.33166849341518,88.43551177665154 L 239.18711305964285,95.28025588832577 L 239.18711305964283,108.96974411167423 L 227.33166849341518,115.81448822334846 L 215.4762239271875,108.96974411167423 L 215.4762239271875,95.28025588832577 L 227.33166849341518,88.43551177665154 Z" /><path d="M 212.1762239271875,62.18551177665154 L 224.03166849341517,69.03025588832577 L 224.03166849341514,82.71974411167423 L 212.1762239271875,89.56448822334846 L 200.32077936095982,82.71974411167423 L 200.32077936095982,69.03025588832577 L 212.1762239271875,62.18551177665154 Z" /><path d="M 227.33166849341518,35.93551177665154 L 239.18711305964285,42.78025588832577 L 239.18711305964283,56.46974411167423 L 227.33166849341518,63.31448822334846 L 215.4762239271875,56.46974411167423 L 215.4762239271875,42.78025588832577 L 227.33166849341518,35.93551177665154 Z" /><path d="M 242.48711305964284,114.68551177665154 L 254.34255762587048,121.53025588832577 L 254.34255762587048,135.21974411167423 L 242.48711305964284,142.06448822334846 L 230.63166849341516,135.21974411167423 L 230.63166849341516,121.53025588832577 L 242.48711305964284,114.68551177665154 Z" /><path d="M 257.6425576258705,88.43551177665154 L 269.49800219209817,95.28025588832575 L 269.49800219209817,108.96974411167425 L 257.6425576258705,115.81448822334846 L 245.78711305964285,108.96974411167423 L 245.78711305964285,95.28025588832577 L 257.6425576258705,88.43551177665154 Z" /><path d="M 242.48711305964284,62.18551177665154 L 254.34255762587048,69.03025588832577 L 254.34255762587048,82.71974411167423 L 242.48711305964284,89.56448822334846 L 230.63166849341516,82.71974411167423 L 230.63166849341516,69.03025588832577 L 242.48711305964284,62.18551177665154 Z" /><path d="M 257.6425576258705,35.93551177665154 L 269.49800219209817,42.78025588832574 L 269.49800219209817,56.469744111674245 L 257.6425576258705,63.31448822334846 L 245.78711305964285,56.46974411167423 L 245.78711305964285,42.78025588832577 L 257.6425576258705,35.93551177665154 Z" /><path d="M 272.7980021920982,114.68551177665152 L 284.65344675832586,121.53025588832575 L 284.65344675832586,135.21974411167426 L 272.7980021920982,142.0644882233485 L 260.9425576258705,135.21974411167426 L 260.9425576258705,121.53025588832574 L 272.7980021920982,114.68551177665152 Z" /><path d="M 287.95344675832587,88.43551177665152 L 299.80889132455354,95.28025588832575 L 299.80889132455354,108.96974411167425 L 287.95344675832587,115.81448822334848 L 276.0980021920982,108.96974411167425 L 276.0980021920982,95.28025588832575 L 287.95344675832587,88.43551177665152 Z" /><path d="M 272.7980021920982,62.18551177665152 L 284.65344675832586,69.03025588832575 L 284.65344675832586,82.71974411167425 L 272.7980021920982,89.56448822334848 L 260.9425576258705,82.71974411167425 L 260.9425576258705,69.03025588832575 L 272.7980021920982,62.18551177665152 Z" /><path d="M 287.95344675832587,35.93551177665151 L 299.80889132455354,42.78025588832574 L 299.80889132455354,56.469744111674245 L 287.95344675832587,63.31448822334848 L 276.0980021920982,56.469744111674245 L 276.0980021920982,42.78025588832574 L 287.95344675832587,35.93551177665151 Z" /><path d="M 303.10889132455355,114.68551177665152 L 314.96433589078123,121.53025588832575 L 314.96433589078123,135.21974411167426 L 303.10889132455355,142.0644882233485 L 291.2534467583259,135.21974411167426 L 291.2534467583259,121.53025588832574 L 303.10889132455355,114.68551177665152 Z" /><path d="M 318.26433589078124,88.43551177665152 L 330.1197804570089,95.28025588832575 L 330.1197804570089,108.96974411167425 L 318.26433589078124,115.81448822334848 L 306.40889132455357,108.96974411167425 L 306.40889132455357,95.28025588832575 L 318.26433589078124,88.43551177665152 Z" /><path d="M 303.10889132455355,62.18551177665152 L 314.96433589078123,69.03025588832575 L 314.96433589078123,82.71974411167425 L 303.10889132455355,89.56448822334848 L 291.2534467583259,82.71974411167425 L 291.2534467583259,69.03025588832575 L 303.10889132455355,62.18551177665152 Z" /><path d="M 318.26433589078124,35.93551177665151 L 330.1197804570089,42.78025588832574 L 330.1197804570089,56.469744111674245 L 318.26433589078124,63.31448822334848 L 306.40889132455357,56.469744111674245 L 306.40889132455357,42.78025588832574 L 318.26433589078124,35.93551177665151 Z" /><path d="M 333.4197804570089,114.68551177665152 L 345.2752250232366,121.53025588832575 L 345.2752250232366,135.21974411167426 L 333.4197804570089,142.0644882233485 L 321.56433589078125,135.21974411167426 L 321.56433589078125,121.53025588832574 L 333.4197804570089,114.68551177665152 Z" /><path d="M 348.5752250232366,88.43551177665152 L 360.4306695894643,95.28025588832575 L 360.4306695894643,108.96974411167425 L 348.5752250232366,115.81448822334848 L 336.71978045700894,108.96974411167425 L 336.71978045700894,95.28025588832575 L 348.5752250232366,88.43551177665152 Z" /><path d="M 333.4197804570089,62.18551177665152 L 345.2752250232366,69.03025588832575 L 345.2752250232366,82.71974411167425 L 333.4197804570089,89.56448822334848 L 321.56433589078125,82.71974411167425 L 321.56433589078125,69.03025588832575 L 333.4197804570089,62.18551177665152 Z" /><path d="M 348.5752250232366,35.93551177665151 L 360.4306695894643,42.78025588832574 L 360.4306695894643,56.469744111674245 L 348.5752250232366,63.31448822334848 L 336.71978045700894,56.469744111674245 L 336.71978045700894,42.78025588832574 L 348.5752250232366,35.93551177665151 Z" /><path d="M 363.73066958946424,114.68551177665152 L 375.5861141556919,121.53025588832575 L 375.5861141556919,135.21974411167426 L 363.73066958946424,142.0644882233485 L 351.87522502323657,135.21974411167426 L 351.87522502323657,121.53025588832574 L 363.73066958946424,114.68551177665152 Z" /><path d="M 378.8861141556919,88.43551177665152 L 390.7415587219196,95.28025588832575 L 390.7415587219196,108.96974411167425 L 378.8861141556919,115.81448822334848 L 367.03066958946425,108.96974411167425 L 367.03066958946425,95.28025588832575 L 378.8861141556919,88.43551177665152 Z" /><path d="M 363.73066958946424,62.18551177665152 L 375.5861141556919,69.03025588832575 L 375.5861141556919,82.71974411167425 L 363.73066958946424,89.56448822334848 L 351.87522502323657,82.71974411167425 L 351.87522502323657,69.03025588832575 L 363.73066958946424,62.18551177665152 Z" /><path d="M 378.8861141556919,35.93551177665151 L 390.7415587219196,42.78025588832574 L 390.7415587219196,56.469744111674245 L 378.8861141556919,63.31448822334848 L 367.03066958946425,56.469744111674245 L 367.03066958946425,42.78025588832574 L 378.8861141556919,35.93551177665151 Z" /><path d="M 394.0415587219196,114.68551177665152 L 405.8970032881473,121.53025588832575 L 405.8970032881473,135.21974411167426 L 394.0415587219196,142.0644882233485 L 382.18611415569194,135.21974411167426 L 382.18611415569194,121.53025588832574 L 394.0415587219196,114.68551177665152 Z" /><path d="M 409.1970032881473,88.43551177665152 L 421.052447854375,95.28025588832575 L 421.052447854375,108.96974411167425 L 409.1970032881473,115.81448822334848 L 397.3415587219196,108.96974411167425 L 397.3415587219196,95.28025588832575 L 409.1970032881473,88.43551177665152 Z" /><path d="M 394.0415587219196,62.18551177665152 L 405.8970032881473,69.03025588832575 L 405.8970032881473,82.71974411167425 L 394.0415587219196,89.56448822334848 L 382.18611415569194,82.71974411167425 L 382.18611415569194,69.03025588832575 L 394.0415587219196,62.18551177665152 Z" /><path d="M 409.1970032881473,35.93551177665151 L 421.052447854375,42.78025588832574 L 421.052447854375,56.469744111674245 L 409.1970032881473,63.31448822334848 L 397.3415587219196,56.469744111674245 L 397.3415587219196,42.78025588832574 L 409.1970032881473,35.93551177665151 Z" /><path d="M 424.352447854375,114.68551177665152 L 436.20789242060266,121.53025588832575 L 436.20789242060266,135.21974411167426 L 424.352447854375,142.0644882233485 L 412.4970032881473,135.21974411167426 L 412.4970032881473,121.53025588832574 L 424.352447854375,114.68551177665152 Z" /><path d="M 439.5078924206027,88.43551177665152 L 451.36333698683035,95.28025588832575 L 451.36333698683035,108.96974411167425 L 439.5078924206027,115.81448822334848 L 427.652447854375,108.96974411167425 L 427.652447854375,95.28025588832575 L 439.5078924206027,88.43551177665152 Z" /><path d="M 424.352447854375,62.18551177665152 L 436.20789242060266,69.03025588832575 L 436.20789242060266,82.71974411167425 L 424.352447854375,89.56448822334848 L 412.4970032881473,82.71974411167425 L 412.4970032881473,69.03025588832575 L 424.352447854375,62.18551177665152 Z" /><path d="M 439.5078924206027,35.93551177665151 L 451.36333698683035,42.78025588832574 L 451.36333698683035,56.469744111674245 L 439.5078924206027,63.31448822334848 L 427.652447854375,56.469744111674245 L 427.652447854375,42.78025588832574 L 439.5078924206027,35.93551177665151 Z" /><path d="M 454.6633369868303,114.68551177665152 L 466.518781553058,121.53025588832575 L 466.518781553058,135.21974411167426 L 454.6633369868303,142.0644882233485 L 442.8078924206026,135.21974411167426 L 442.8078924206026,121.53025588832574 L 454.6633369868303,114.68551177665152 Z" /><path d="M 469.818781553058,88.43551177665152 L 481.67422611928566,95.28025588832575 L 481.67422611928566,108.96974411167425 L 469.818781553058,115.81448822334848 L 457.9633369868303,108.96974411167425 L 457.9633369868303,95.28025588832575 L 469.818781553058,88.43551177665152 Z" /><path d="M 454.6633369868303,62.18551177665152 L 466.518781553058,69.03025588832575 L 466.518781553058,82.71974411167425 L 454.6633369868303,89.56448822334848 L 442.8078924206026,82.71974411167425 L 442.8078924206026,69.03025588832575 L 454.6633369868303,62.18551177665152 Z" /><path d="M 469.818781553058,35.93551177665151 L 481.67422611928566,42.78025588832574 L 481.67422611928566,56.469744111674245 L 469.818781553058,63.31448822334848 L 457.9633369868303,56.469744111674245 L 457.9633369868303,42.78025588832574 L 469.818781553058,35.93551177665151 Z" /><path d="M 484.9742261192857,114.68551177665152 L 496.82967068551335,121.53025588832575 L 496.82967068551335,135.21974411167426 L 484.9742261192857,142.0644882233485 L 473.118781553058,135.21974411167426 L 473.118781553058,121.53025588832574 L 484.9742261192857,114.68551177665152 Z" /><path d="M 500.12967068551336,88.43551177665152 L 511.985115251741,95.28025588832574 L 511.985115251741,108.96974411167426 L 500.12967068551336,115.81448822334848 L 488.2742261192857,108.96974411167425 L 488.2742261192857,95.28025588832575 L 500.12967068551336,88.43551177665152 Z" /><path d="M 484.9742261192857,62.18551177665152 L 496.82967068551335,69.03025588832575 L 496.82967068551335,82.71974411167425 L 484.9742261192857,89.56448822334848 L 473.118781553058,82.71974411167425 L 473.118781553058,69.03025588832575 L 484.9742261192857,62.18551177665152 Z" /><path d="M 500.12967068551336,35.93551177665154 L 511.985115251741,42.78025588832574 L 511.985115251741,56.46974411167426 L 500.12967068551336,63.31448822334848 L 488.2742261192857,56.469744111674245 L 488.2742261192857,42.78025588832574 L 500.12967068551336,35.93551177665154 Z" /><path d="M 515.285115251741,114.68551177665152 L 527.1405598179687,121.53025588832578 L 527.1405598179687,135.21974411167423 L 515.285115251741,142.0644882233485 L 503.4296706855133,135.21974411167426 L 503.4296706855133,121.53025588832574 L 515.285115251741,114.68551177665152 Z" /><path d="M 530.4405598179686,88.43551177665151 L 542.2960043841964,95.2802558883258 L 542.2960043841964,108.96974411167422 L 530.4405598179686,115.81448822334849 L 518.585115251741,108.96974411167423 L 518.585115251741,95.28025588832577 L 530.4405598179686,88.43551177665151 Z" /><path d="M 515.285115251741,62.18551177665152 L 527.1405598179687,69.03025588832578 L 527.1405598179687,82.71974411167423 L 515.285115251741,89.56448822334848 L 503.4296706855133,82.71974411167425 L 503.4296706855133,69.03025588832575 L 515.285115251741,62.18551177665152 Z" /><path d="M 530.4405598179686,35.93551177665151 L 542.2960043841964,42.7802558883258 L 542.2960043841964,56.46974411167422 L 530.4405598179686,63.31448822334849 L 518.585115251741,56.46974411167423 L 518.585115251741,42.78025588832577 L 530.4405598179686,35.93551177665151 Z" /><path d="M 545.5960043841964,114.68551177665151 L 557.451448950424,121.53025588832578 L 557.451448950424,135.21974411167423 L 545.5960043841964,142.0644882233485 L 533.7405598179687,135.21974411167423 L 533.7405598179687,121.53025588832577 L 545.5960043841964,114.68551177665151 Z" /><path d="M 560.751448950424,88.43551177665151 L 572.6068935166518,95.2802558883258 L 572.6068935166518,108.96974411167422 L 560.751448950424,115.81448822334849 L 548.8960043841963,108.96974411167423 L 548.8960043841963,95.28025588832577 L 560.751448950424,88.43551177665151 Z" /><path d="M 545.5960043841964,62.18551177665151 L 557.451448950424,69.03025588832578 L 557.451448950424,82.71974411167423 L 545.5960043841964,89.56448822334849 L 533.7405598179687,82.71974411167423 L 533.7405598179687,69.03025588832577 L 545.5960043841964,62.18551177665151 Z" /><path d="M 560.751448950424,35.93551177665151 L 572.6068935166518,42.7802558883258 L 572.6068935166518,56.46974411167422 L 560.751448950424,63.31448822334849 L 548.8960043841963,56.46974411167423 L 548.8960043841963,42.78025588832577 L 560.751448950424,35.93551177665151 Z" /><path d="M 575.9068935166517,114.68551177665151 L 587.7623380828794,121.53025588832578 L 587.7623380828794,135.21974411167423 L 575.9068935166517,142.0644882233485 L 564.0514489504241,135.21974411167423 L 564.0514489504241,121.53025588832577 L 575.9068935166517,114.68551177665151 Z" /><path d="M 591.0623380828794,88.43551177665151 L 602.9177826491072,95.2802558883258 L 602.9177826491072,108.96974411167422 L 591.0623380828794,115.81448822334849 L 579.2068935166517,108.96974411167423 L 579.2068935166517,95.28025588832577 L 591.0623380828794,88.43551177665151 Z" /><path d="M 575.9068935166517,62.18551177665151 L 587.7623380828794,69.03025588832578 L 587.7623380828794,82.71974411167423 L 575.9068935166517,89.56448822334849 L 564.0514489504241,82.71974411167423 L 564.0514489504241,69.03025588832577 L 575.9068935166517,62.18551177665151 Z" /><path d="M 591.0623380828794,35.93551177665151 L 602.9177826491072,42.7802558883258 L 602.9177826491072,56.46974411167422 L 591.0623380828794,63.31448822334849 L 579.2068935166517,56.46974411167423 L 579.2068935166517,42.78025588832577 L 591.0623380828794,35.93551177665151 Z" /><path d="M 606.2177826491071,114.68551177665151 L 618.0732272153348,121.53025588832578 L 618.0732272153348,135.21974411167423 L 606.2177826491071,142.0644882233485 L 594.3623380828794,135.21974411167423 L 594.3623380828794,121.53025588832577 L 606.2177826491071,114.68551177665151 Z" /><path d="M 621.3732272153347,88.43551177665151 L 633.2286717815625,95.2802558883258 L 633.2286717815625,108.96974411167422 L 621.3732272153347,115.81448822334849 L 609.5177826491071,108.96974411167423 L 609.5177826491071,95.28025588832577 L 621.3732272153347,88.43551177665151 Z" /><path d="M 606.2177826491071,62.18551177665151 L 618.0732272153348,69.03025588832578 L 618.0732272153348,82.71974411167423 L 606.2177826491071,89.56448822334849 L 594.3623380828794,82.71974411167423 L 594.3623380828794,69.03025588832577 L 606.2177826491071,62.18551177665151 Z" /><path d="M 621.3732272153347,35.93551177665151 L 633.2286717815625,42.7802558883258 L 633.2286717815625,56.46974411167422 L 621.3732272153347,63.31448822334849 L 609.5177826491071,56.46974411167423 L 609.5177826491071,42.78025588832577 L 621.3732272153347,35.93551177665151 Z" /><path d="M 636.5286717815625,114.68551177665151 L 648.3841163477902,121.53025588832578 L 648.3841163477902,135.21974411167423 L 636.5286717815625,142.0644882233485 L 624.6732272153348,135.21974411167423 L 624.6732272153348,121.53025588832577 L 636.5286717815625,114.68551177665151 Z" /><path d="M 651.6841163477901,88.43551177665151 L 663.5395609140179,95.2802558883258 L 663.5395609140179,108.96974411167422 L 651.6841163477901,115.81448822334849 L 639.8286717815624,108.96974411167423 L 639.8286717815624,95.28025588832577 L 651.6841163477901,88.43551177665151 Z" /><path d="M 636.5286717815625,62.18551177665151 L 648.3841163477902,69.03025588832578 L 648.3841163477902,82.71974411167423 L 636.5286717815625,89.56448822334849 L 624.6732272153348,82.71974411167423 L 624.6732272153348,69.03025588832577 L 636.5286717815625,62.18551177665151 Z" /><path d="M 651.6841163477901,35.93551177665151 L 663.5395609140179,42.7802558883258 L 663.5395609140179,56.46974411167422 L 651.6841163477901,63.31448822334849 L 639.8286717815624,56.46974411167423 L 639.8286717815624,42.78025588832577 L 651.6841163477901,35.93551177665151 Z" /><path d="M 666.8395609140179,114.68551177665151 L 678.6950054802455,121.53025588832578 L 678.6950054802455,135.21974411167423 L 666.8395609140179,142.0644882233485 L 654.9841163477902,135.21974411167423 L 654.9841163477902,121.53025588832577 L 666.8395609140179,114.68551177665151 Z" /><path d="M 681.9950054802455,88.43551177665151 L 693.8504500464733,95.2802558883258 L 693.8504500464733,108.96974411167422 L 681.9950054802455,115.81448822334849 L 670.1395609140178,108.96974411167423 L 670.1395609140178,95.28025588832577 L 681.9950054802455,88.43551177665151 Z" /><path d="M 666.8395609140179,62.18551177665151 L 678.6950054802455,69.03025588832578 L 678.6950054802455,82.71974411167423 L 666.8395609140179,89.56448822334849 L 654.9841163477902,82.71974411167423 L 654.9841163477902,69.03025588832577 L 666.8395609140179,62.18551177665151 Z" /><path d="M 681.9950054802455,35.93551177665151 L 693.8504500464733,42.7802558883258 L 693.8504500464733,56.46974411167422 L 681.9950054802455,63.31448822334849 L 670.1395609140178,56.46974411167423 L 670.1395609140178,42.78025588832577 L 681.9950054802455,35.93551177665151 Z" /><path d="M 697.1504500464731,114.68551177665151 L 709.0058946127008,121.53025588832578 L 709.0058946127008,135.21974411167423 L 697.1504500464731,142.0644882233485 L 685.2950054802454,135.21974411167423 L 685.2950054802454,121.53025588832577 L 697.1504500464731,114.68551177665151 Z" /><path d="M 712.3058946127007,88.43551177665151 L 724.1613391789285,95.2802558883258 L 724.1613391789285,108.96974411167422 L 712.3058946127007,115.81448822334849 L 700.4504500464731,108.96974411167423 L 700.4504500464731,95.28025588832577 L 712.3058946127007,88.43551177665151 Z" /><path d="M 697.1504500464731,62.18551177665151 L 709.0058946127008,69.03025588832578 L 709.0058946127008,82.71974411167423 L 697.1504500464731,89.56448822334849 L 685.2950054802454,82.71974411167423 L 685.2950054802454,69.03025588832577 L 697.1504500464731,62.18551177665151 Z" /><path d="M 712.3058946127007,35.93551177665151 L 724.1613391789285,42.7802558883258 L 724.1613391789285,56.46974411167422 L 712.3058946127007,63.31448822334849 L 700.4504500464731,56.46974411167423 L 700.4504500464731,42.78025588832577 L 712.3058946127007,35.93551177665151 Z" /><path d="M 727.4613391789285,114.68551177665151 L 739.3167837451562,121.53025588832578 L 739.3167837451562,135.21974411167423 L 727.4613391789285,142.0644882233485 L 715.6058946127008,135.21974411167423 L 715.6058946127008,121.53025588832577 L 727.4613391789285,114.68551177665151 Z" /><path d="M 742.6167837451561,88.43551177665151 L 754.4722283113839,95.2802558883258 L 754.4722283113839,108.96974411167422 L 742.6167837451561,115.81448822334849 L 730.7613391789284,108.96974411167423 L 730.7613391789284,95.28025588832577 L 742.6167837451561,88.43551177665151 Z" /><path d="M 727.4613391789285,62.18551177665151 L 739.3167837451562,69.03025588832578 L 739.3167837451562,82.71974411167423 L 727.4613391789285,89.56448822334849 L 715.6058946127008,82.71974411167423 L 715.6058946127008,69.03025588832577 L 727.4613391789285,62.18551177665151 Z" /><path d="M 742.6167837451561,35.93551177665151 L 754.4722283113839,42.7802558883258 L 754.4722283113839,56.46974411167422 L 742.6167837451561,63.31448822334849 L 730.7613391789284,56.46974411167423 L 730.7613391789284,42.78025588832577 L 742.6167837451561,35.93551177665151 Z" /><path d="M 757.7722283113839,114.68551177665151 L 769.6276728776115,121.53025588832578 L 769.6276728776115,135.21974411167423 L 757.7722283113839,142.0644882233485 L 745.9167837451562,135.21974411167423 L 745.9167837451562,121.53025588832577 L 757.7722283113839,114.68551177665151 Z" /><path d="M 772.9276728776115,88.43551177665151 L 784.7831174438393,95.2802558883258 L 784.7831174438393,108.96974411167422 L 772.9276728776115,115.81448822334849 L 761.0722283113838,108.96974411167423 L 761.0722283113838,95.28025588832577 L 772.9276728776115,88.43551177665151 Z" /><path d="M 757.7722283113839,62.18551177665151 L 769.6276728776115,69.03025588832578 L 769.6276728776115,82.71974411167423 L 757.7722283113839,89.56448822334849 L 745.9167837451562,82.71974411167423 L 745.9167837451562,69.03025588832577 L 757.7722283113839,62.18551177665151 Z" /><path d="M 772.9276728776115,35.93551177665151 L 784.7831174438393,42.7802558883258 L 784.7831174438393,56.46974411167422 L 772.9276728776115,63.31448822334849 L 761.0722283113838,56.46974411167423 L 761.0722283113838,42.78025588832577 L 772.9276728776115,35.93551177665151 Z" /><path d="M 788.0831174438392,114.68551177665151 L 799.9385620100669,121.53025588832578 L 799.9385620100669,135.21974411167423 L 788.0831174438392,142.0644882233485 L 776.2276728776116,135.21974411167423 L 776.2276728776116,121.53025588832577 L 788.0831174438392,114.68551177665151 Z" /><path d="M 803.2385620100669,88.43551177665151 L 815.0940065762946,95.2802558883258 L 815.0940065762946,108.96974411167422 L 803.2385620100669,115.81448822334849 L 791.3831174438392,108.96974411167423 L 791.3831174438392,95.28025588832577 L 803.2385620100669,88.43551177665151 Z" /><path d="M 788.0831174438392,62.18551177665151 L 799.9385620100669,69.03025588832578 L 799.9385620100669,82.71974411167423 L 788.0831174438392,89.56448822334849 L 776.2276728776116,82.71974411167423 L 776.2276728776116,69.03025588832577 L 788.0831174438392,62.18551177665151 Z" /><path d="M 803.2385620100669,35.93551177665151 L 815.0940065762946,42.7802558883258 L 815.0940065762946,56.46974411167422 L 803.2385620100669,63.31448822334849 L 791.3831174438392,56.46974411167423 L 791.3831174438392,42.78025588832577 L 803.2385620100669,35.93551177665151 Z" /><path d="M 818.3940065762946,114.68551177665151 L 830.2494511425223,121.53025588832578 L 830.2494511425223,135.21974411167423 L 818.3940065762946,142.0644882233485 L 806.5385620100669,135.21974411167423 L 806.5385620100669,121.53025588832577 L 818.3940065762946,114.68551177665151 Z" /><path d="M 833.5494511425222,88.43551177665151 L 845.40489570875,95.2802558883258 L 845.40489570875,108.96974411167422 L 833.5494511425222,115.81448822334849 L 821.6940065762946,108.96974411167423 L 821.6940065762946,95.28025588832577 L 833.5494511425222,88.43551177665151 Z" /><path d="M 818.3940065762946,62.18551177665151 L 830.2494511425223,69.03025588832578 L 830.2494511425223,82.71974411167423 L 818.3940065762946,89.56448822334849 L 806.5385620100669,82.71974411167423 L 806.5385620100669,69.03025588832577 L 818.3940065762946,62.18551177665151 Z" /><path d="M 833.5494511425222,35.93551177665151 L 845.40489570875,42.7802558883258 L 845.40489570875,56.46974411167422 L 833.5494511425222,63.31448822334849 L 821.6940065762946,56.46974411167423 L 821.6940065762946,42.78025588832577 L 833.5494511425222,35.93551177665151 Z" /><path d="M 848.70489570875,114.68551177665151 L 860.5603402749776,121.53025588832578 L 860.5603402749776,135.21974411167423 L 848.70489570875,142.0644882233485 L 836.8494511425223,135.21974411167423 L 836.8494511425223,121.53025588832577 L 848.70489570875,114.68551177665151 Z" /><path d="M 863.8603402749776,88.43551177665151 L 875.7157848412054,95.2802558883258 L 875.7157848412054,108.96974411167422 L 863.8603402749776,115.81448822334849 L 852.0048957087499,108.96974411167423 L 852.0048957087499,95.28025588832577 L 863.8603402749776,88.43551177665151 Z" /><path d="M 848.70489570875,62.18551177665151 L 860.5603402749776,69.03025588832578 L 860.5603402749776,82.71974411167423 L 848.70489570875,89.56448822334849 L 836.8494511425223,82.71974411167423 L 836.8494511425223,69.03025588832577 L 848.70489570875,62.18551177665151 Z" /><path d="M 863.8603402749776,35.93551177665151 L 875.7157848412054,42.7802558883258 L 875.7157848412054,56.46974411167422 L 863.8603402749776,63.31448822334849 L 852.0048957087499,56.46974411167423 L 852.0048957087499,42.78025588832577 L 863.8603402749776,35.93551177665151 Z" /><path d="M 879.0157848412052,114.68551177665151 L 890.8712294074329,121.53025588832578 L 890.8712294074329,135.21974411167423 L 879.0157848412052,142.0644882233485 L 867.1603402749776,135.21974411167423 L 867.1603402749776,121.53025588832577 L 879.0157848412052,114.68551177665151 Z" /><path d="M 894.1712294074329,88.43551177665151 L 906.0266739736606,95.2802558883258 L 906.0266739736606,108.96974411167422 L 894.1712294074329,115.81448822334849 L 882.3157848412052,108.96974411167423 L 882.3157848412052,95.28025588832577 L 894.1712294074329,88.43551177665151 Z" /><path d="M 879.0157848412052,62.18551177665151 L 890.8712294074329,69.03025588832578 L 890.8712294074329,82.71974411167423 L 879.0157848412052,89.56448822334849 L 867.1603402749776,82.71974411167423 L 867.1603402749776,69.03025588832577 L 879.0157848412052,62.18551177665151 Z" /><path d="M 894.1712294074329,35.93551177665151 L 906.0266739736606,42.7802558883258 L 906.0266739736606,56.46974411167422 L 894.1712294074329,63.31448822334849 L 882.3157848412052,56.46974411167423 L 882.3157848412052,42.78025588832577 L 894.1712294074329,35.93551177665151 Z" /><path d="M 909.3266739736606,114.68551177665151 L 921.1821185398883,121.53025588832578 L 921.1821185398883,135.21974411167423 L 909.3266739736606,142.0644882233485 L 897.4712294074329,135.21974411167423 L 897.4712294074329,121.53025588832577 L 909.3266739736606,114.68551177665151 Z" /><path d="M 924.4821185398882,88.43551177665151 L 936.337563106116,95.2802558883258 L 936.337563106116,108.96974411167422 L 924.4821185398882,115.81448822334849 L 912.6266739736606,108.96974411167423 L 912.6266739736606,95.28025588832577 L 924.4821185398882,88.43551177665151 Z" /><path d="M 909.3266739736606,62.18551177665151 L 921.1821185398883,69.03025588832578 L 921.1821185398883,82.71974411167423 L 909.3266739736606,89.56448822334849 L 897.4712294074329,82.71974411167423 L 897.4712294074329,69.03025588832577 L 909.3266739736606,62.18551177665151 Z" /><path d="M 924.4821185398882,35.93551177665151 L 936.337563106116,42.7802558883258 L 936.337563106116,56.46974411167422 L 924.4821185398882,63.31448822334849 L 912.6266739736606,56.46974411167423 L 912.6266739736606,42.78025588832577 L 924.4821185398882,35.93551177665151 Z" /><path d="M 939.637563106116,114.68551177665151 L 951.4930076723437,121.53025588832578 L 951.4930076723437,135.21974411167423 L 939.637563106116,142.0644882233485 L 927.7821185398883,135.21974411167423 L 927.7821185398883,121.53025588832577 L 939.637563106116,114.68551177665151 Z" /><path d="M 954.7930076723436,88.43551177665151 L 966.6484522385714,95.2802558883258 L 966.6484522385714,108.96974411167422 L 954.7930076723436,115.81448822334849 L 942.9375631061159,108.96974411167423 L 942.9375631061159,95.28025588832577 L 954.7930076723436,88.43551177665151 Z" /><path d="M 939.637563106116,62.18551177665151 L 951.4930076723437,69.03025588832578 L 951.4930076723437,82.71974411167423 L 939.637563106116,89.56448822334849 L 927.7821185398883,82.71974411167423 L 927.7821185398883,69.03025588832577 L 939.637563106116,62.18551177665151 Z" /><path d="M 954.7930076723436,35.93551177665151 L 966.6484522385714,42.7802558883258 L 966.6484522385714,56.46974411167422 L 954.7930076723436,63.31448822334849 L 942.9375631061159,56.46974411167423 L 942.9375631061159,42.78025588832577 L 954.7930076723436,35.93551177665151 Z" /><path d="M 969.9484522385713,114.68551177665151 L 981.803896804799,121.53025588832578 L 981.803896804799,135.21974411167423 L 969.9484522385713,142.0644882233485 L 958.0930076723437,135.21974411167423 L 958.0930076723437,121.53025588832577 L 969.9484522385713,114.68551177665151 Z" /><path d="M 985.103896804799,88.43551177665151 L 996.9593413710268,95.2802558883258 L 996.9593413710268,108.96974411167422 L 985.103896804799,115.81448822334849 L 973.2484522385713,108.96974411167423 L 973.2484522385713,95.28025588832577 L 985.103896804799,88.43551177665151 Z" /><path d="M 969.9484522385713,62.18551177665151 L 981.803896804799,69.03025588832578 L 981.803896804799,82.71974411167423 L 969.9484522385713,89.56448822334849 L 958.0930076723437,82.71974411167423 L 958.0930076723437,69.03025588832577 L 969.9484522385713,62.18551177665151 Z" /><path d="M 985.103896804799,35.93551177665151 L 996.9593413710268,42.7802558883258 L 996.9593413710268,56.46974411167422 L 985.103896804799,63.31448822334849 L 973.2484522385713,56.46974411167423 L 973.2484522385713,42.78025588832577 L 985.103896804799,35.93551177665151 Z" /><path d="M 1000.2593413710267,114.68551177665151 L 1012.1147859372544,121.53025588832578 L 1012.1147859372544,135.21974411167423 L 1000.2593413710267,142.0644882233485 L 988.403896804799,135.21974411167423 L 988.403896804799,121.53025588832577 L 1000.2593413710267,114.68551177665151 Z" /><path d="M 1015.4147859372544,88.43551177665151 L 1027.270230503482,95.28025588832584 L 1027.270230503482,108.96974411167417 L 1015.4147859372544,115.81448822334849 L 1003.5593413710267,108.96974411167423 L 1003.5593413710267,95.28025588832577 L 1015.4147859372544,88.43551177665151 Z" /><path d="M 1000.2593413710267,62.18551177665151 L 1012.1147859372544,69.03025588832578 L 1012.1147859372544,82.71974411167423 L 1000.2593413710267,89.56448822334849 L 988.403896804799,82.71974411167423 L 988.403896804799,69.03025588832577 L 1000.2593413710267,62.18551177665151 Z" /><path d="M 1015.4147859372544,35.93551177665154 L 1027.270230503482,42.780255888325826 L 1027.270230503482,56.469744111674174 L 1015.4147859372544,63.31448822334849 L 1003.5593413710267,56.46974411167423 L 1003.5593413710267,42.78025588832577 L 1015.4147859372544,35.93551177665154 Z" /><path d="M 1030.570230503482,114.68551177665158 L 1042.4256750697098,121.53025588832585 L 1042.4256750697098,135.21974411167415 L 1030.570230503482,142.0644882233484 L 1018.7147859372543,135.2197441116742 L 1018.7147859372543,121.53025588832578 L 1030.570230503482,114.68551177665158 Z" /><path d="M 1030.570230503482,62.18551177665158 L 1042.4256750697098,69.03025588832587 L 1042.4256750697098,82.71974411167415 L 1030.570230503482,89.56448822334842 L 1018.7147859372543,82.71974411167423 L 1018.7147859372543,69.03025588832577 L 1030.570230503482,62.18551177665158 Z" /><path d="M 1033.870230503482,108.96974411167415 L 1033.870230503482,95.28025588832585 L 1045.6400603659931,88.48494144888895 L 1045.6400603659931,115.76505855111105 L 1033.870230503482,108.96974411167415 Z" /><path d="M 730.7613391789284,147.78025588832577 L 742.6167837451561,140.9355117766515 L 754.4722283113839,147.7802558883258 L 754.4722283113839,150.0 L 730.7613391789284,150.0 L 730.7613391789284,147.78025588832577 Z" /><path d="M 821.6940065762946,147.78025588832577 L 833.5494511425222,140.9355117766515 L 845.40489570875,147.7802558883258 L 845.40489570875,150.0 L 821.6940065762946,150.0 L 821.6940065762946,147.78025588832577 Z" /><path d="M 897.4712294074329,28.0 L 921.1821185398883,28.0 L 921.1821185398883,30.21974411167423 L 909.3266739736606,37.06448822334846 L 897.4712294074329,30.21974411167423 L 897.4712294074329,28.0 Z" /><path d="M 654.9841163477902,28.0 L 678.6950054802455,28.0 L 678.6950054802455,30.21974411167423 L 666.8395609140179,37.06448822334846 L 654.9841163477902,30.21974411167423 L 654.9841163477902,28.0 Z" /><path d="M 670.1395609140178,147.78025588832577 L 681.9950054802455,140.9355117766515 L 693.8504500464733,147.7802558883258 L 693.8504500464733,150.0 L 670.1395609140178,150.0 L 670.1395609140178,147.78025588832577 Z" /><path d="M 715.6058946127008,28.0 L 739.3167837451562,28.0 L 739.3167837451562,30.21974411167423 L 727.4613391789285,37.06448822334846 L 715.6058946127008,30.21974411167423 L 715.6058946127008,28.0 Z" /><path d="M 836.8494511425223,28.0 L 860.5603402749776,28.0 L 860.5603402749776,30.21974411167423 L 848.70489570875,37.06448822334846 L 836.8494511425223,30.21974411167423 L 836.8494511425223,28.0 Z" /><path d="M 609.5177826491071,147.78025588832577 L 621.3732272153347,140.9355117766515 L 633.2286717815625,147.7802558883258 L 633.2286717815625,150.0 L 609.5177826491071,150.0 L 609.5177826491071,147.78025588832577 Z" /><path d="M 457.9633369868303,147.78025588832574 L 469.818781553058,140.9355117766515 L 481.67422611928566,147.78025588832577 L 481.67422611928566,150.0 L 457.9633369868303,150.0 L 457.9633369868303,147.78025588832574 Z" /><path d="M 806.5385620100669,28.0 L 830.2494511425223,28.0 L 830.2494511425223,30.21974411167423 L 818.3940065762946,37.06448822334846 L 806.5385620100669,30.21974411167423 L 806.5385620100669,28.0 Z" /><path d="M 882.3157848412052,147.78025588832577 L 894.1712294074329,140.9355117766515 L 906.0266739736606,147.7802558883258 L 906.0266739736606,150.0 L 882.3157848412052,150.0 L 882.3157848412052,147.78025588832577 Z" /><path d="M 867.1603402749776,28.0 L 890.8712294074329,28.0 L 890.8712294074329,30.21974411167423 L 879.0157848412052,37.06448822334846 L 867.1603402749776,30.21974411167423 L 867.1603402749776,28.0 Z" /><path d="M 367.03066958946425,147.78025588832574 L 378.8861141556919,140.9355117766515 L 390.7415587219196,147.78025588832577 L 390.7415587219196,150.0 L 367.03066958946425,150.0 L 367.03066958946425,147.78025588832574 Z" /><path d="M 163.40989022850442,30.21974411167423 L 151.64006036599312,37.01505855111125 L 151.64006036599312,28.0 L 163.40989022850442,28.0 L 163.40989022850442,30.21974411167423 Z" /><path d="M 321.56433589078125,28.0 L 345.2752250232366,28.0 L 345.2752250232366,30.21974411167426 L 333.4197804570089,37.06448822334849 L 321.56433589078125,30.21974411167426 L 321.56433589078125,28.0 Z" /><path d="M 215.4762239271875,147.78025588832577 L 227.33166849341518,140.93551177665154 L 239.18711305964285,147.78025588832577 L 239.18711305964285,150.0 L 215.4762239271875,150.0 L 215.4762239271875,147.78025588832577 Z" /><path d="M 170.00989022850445,28.0 L 193.72077936095977,28.0 L 193.72077936095977,30.21974411167423 L 181.86533479473212,37.06448822334846 L 170.00989022850445,30.21974411167423 L 170.00989022850445,28.0 Z" /><path d="M 412.4970032881473,28.0 L 436.20789242060266,28.0 L 436.20789242060266,30.21974411167426 L 424.352447854375,37.06448822334849 L 412.4970032881473,30.21974411167426 L 412.4970032881473,28.0 Z" /><path d="M 1033.870230503482,147.78025588832585 L 1045.6400603659931,140.98494144888895 L 1045.6400603659931,150.0 L 1033.870230503482,150.0 L 1033.870230503482,147.78025588832585 Z" /><path d="M 1018.7147859372543,28.0 L 1042.4256750697098,28.0 L 1042.4256750697098,30.219744111674146 L 1030.570230503482,37.064488223348405 L 1018.7147859372543,30.219744111674203 L 1018.7147859372543,28.0 Z" /><path d="M 912.6266739736606,147.78025588832577 L 924.4821185398882,140.9355117766515 L 936.337563106116,147.7802558883258 L 936.337563106116,150.0 L 912.6266739736606,150.0 L 912.6266739736606,147.78025588832577 Z" /><path d="M 306.40889132455357,147.78025588832574 L 318.26433589078124,140.9355117766515 L 330.1197804570089,147.78025588832577 L 330.1197804570089,150.0 L 306.40889132455357,150.0 L 306.40889132455357,147.78025588832574 Z" /><path d="M 397.3415587219196,147.78025588832574 L 409.1970032881473,140.9355117766515 L 421.052447854375,147.78025588832577 L 421.052447854375,150.0 L 397.3415587219196,150.0 L 397.3415587219196,147.78025588832574 Z" /><path d="M 154.8544456622768,147.78025588832577 L 166.70989022850446,140.93551177665154 L 178.5653347947321,147.78025588832577 L 178.5653347947321,150.0 L 154.8544456622768,150.0 L 154.8544456622768,147.78025588832577 Z" /><path d="M 488.2742261192857,147.78025588832574 L 500.12967068551336,140.9355117766515 L 511.985115251741,147.78025588832577 L 511.985115251741,150.0 L 488.2742261192857,150.0 L 488.2742261192857,147.78025588832574 Z" /><path d="M 1033.870230503482,56.469744111674146 L 1033.870230503482,42.780255888325854 L 1045.6400603659931,35.984941448888975 L 1045.6400603659931,63.26505855111105 L 1033.870230503482,56.469744111674146 Z" /><path d="M 776.2276728776116,28.0 L 799.9385620100669,28.0 L 799.9385620100669,30.21974411167423 L 788.0831174438392,37.06448822334846 L 776.2276728776116,30.21974411167423 L 776.2276728776116,28.0 Z" /><path d="M 382.18611415569194,28.0 L 405.8970032881473,28.0 L 405.8970032881473,30.21974411167426 L 394.0415587219196,37.06448822334849 L 382.18611415569194,30.21974411167426 L 382.18611415569194,28.0 Z" /><path d="M 579.2068935166517,147.78025588832577 L 591.0623380828794,140.9355117766515 L 602.9177826491072,147.7802558883258 L 602.9177826491072,150.0 L 579.2068935166517,150.0 L 579.2068935166517,147.78025588832577 Z" /><path d="M 260.9425576258705,28.0 L 284.65344675832586,28.0 L 284.65344675832586,30.21974411167426 L 272.7980021920982,37.06448822334849 L 260.9425576258705,30.21974411167426 L 260.9425576258705,28.0 Z" /><path d="M 518.585115251741,147.78025588832577 L 530.4405598179686,140.9355117766515 L 542.2960043841964,147.7802558883258 L 542.2960043841964,150.0 L 518.585115251741,150.0 L 518.585115251741,147.78025588832577 Z" /><path d="M 200.32077936095982,28.0 L 224.03166849341514,28.0 L 224.03166849341514,30.21974411167423 L 212.1762239271875,37.06448822334846 L 200.32077936095982,30.21974411167423 L 200.32077936095982,28.0 Z" /><path d="M 151.64006036599312,114.73494144888876 L 163.40989022850445,121.53025588832577 L 163.40989022850442,135.21974411167423 L 151.64006036599312,142.01505855111125 L 151.64006036599312,114.73494144888876 Z" /><path d="M 503.4296706855133,28.0 L 527.1405598179687,28.0 L 527.1405598179687,30.21974411167423 L 515.285115251741,37.06448822334846 L 503.4296706855133,30.21974411167426 L 503.4296706855133,28.0 Z" /><path d="M 533.7405598179687,28.0 L 557.451448950424,28.0 L 557.451448950424,30.21974411167423 L 545.5960043841964,37.06448822334846 L 533.7405598179687,30.21974411167423 L 533.7405598179687,28.0 Z" /><path d="M 927.7821185398883,28.0 L 951.4930076723437,28.0 L 951.4930076723437,30.21974411167423 L 939.637563106116,37.06448822334846 L 927.7821185398883,30.21974411167423 L 927.7821185398883,28.0 Z" /><path d="M 276.0980021920982,147.78025588832574 L 287.95344675832587,140.9355117766515 L 299.80889132455354,147.78025588832577 L 299.80889132455354,150.0 L 276.0980021920982,150.0 L 276.0980021920982,147.78025588832574 Z" /><path d="M 442.8078924206026,28.0 L 466.518781553058,28.0 L 466.518781553058,30.21974411167426 L 454.6633369868303,37.06448822334849 L 442.8078924206026,30.21974411167426 L 442.8078924206026,28.0 Z" /><path d="M 685.2950054802454,28.0 L 709.0058946127008,28.0 L 709.0058946127008,30.21974411167423 L 697.1504500464731,37.06448822334846 L 685.2950054802454,30.21974411167423 L 685.2950054802454,28.0 Z" /><path d="M 639.8286717815624,147.78025588832577 L 651.6841163477901,140.9355117766515 L 663.5395609140179,147.7802558883258 L 663.5395609140179,150.0 L 639.8286717815624,150.0 L 639.8286717815624,147.78025588832577 Z" /><path d="M 761.0722283113838,147.78025588832577 L 772.9276728776115,140.9355117766515 L 784.7831174438393,147.7802558883258 L 784.7831174438393,150.0 L 761.0722283113838,150.0 L 761.0722283113838,147.78025588832577 Z" /><path d="M 351.87522502323657,28.0 L 375.5861141556919,28.0 L 375.5861141556919,30.21974411167426 L 363.73066958946424,37.06448822334849 L 351.87522502323657,30.21974411167426 L 351.87522502323657,28.0 Z" /><path d="M 291.2534467583259,28.0 L 314.96433589078123,28.0 L 314.96433589078123,30.21974411167426 L 303.10889132455355,37.06448822334849 L 291.2534467583259,30.21974411167426 L 291.2534467583259,28.0 Z" /><path d="M 230.63166849341516,28.0 L 254.34255762587048,28.0 L 254.34255762587048,30.21974411167423 L 242.48711305964284,37.06448822334846 L 230.63166849341516,30.21974411167423 L 230.63166849341516,28.0 Z" /><path d="M 973.2484522385713,147.78025588832577 L 985.103896804799,140.9355117766515 L 996.9593413710268,147.7802558883258 L 996.9593413710268,150.0 L 973.2484522385713,150.0 L 973.2484522385713,147.78025588832577 Z" /><path d="M 852.0048957087499,147.78025588832577 L 863.8603402749776,140.9355117766515 L 875.7157848412054,147.7802558883258 L 875.7157848412054,150.0 L 852.0048957087499,150.0 L 852.0048957087499,147.78025588832577 Z" /><path d="M 594.3623380828794,28.0 L 618.0732272153348,28.0 L 618.0732272153348,30.21974411167423 L 606.2177826491071,37.06448822334846 L 594.3623380828794,30.21974411167423 L 594.3623380828794,28.0 Z" /><path d="M 988.403896804799,28.0 L 1012.1147859372544,28.0 L 1012.1147859372544,30.21974411167423 L 1000.2593413710267,37.06448822334846 L 988.403896804799,30.21974411167423 L 988.403896804799,28.0 Z" /><path d="M 336.71978045700894,147.78025588832574 L 348.5752250232366,140.9355117766515 L 360.4306695894643,147.78025588832577 L 360.4306695894643,150.0 L 336.71978045700894,150.0 L 336.71978045700894,147.78025588832574 Z" /><path d="M 548.8960043841963,147.78025588832577 L 560.751448950424,140.9355117766515 L 572.6068935166518,147.7802558883258 L 572.6068935166518,150.0 L 548.8960043841963,150.0 L 548.8960043841963,147.78025588832577 Z" /><path d="M 1003.5593413710267,147.78025588832577 L 1015.4147859372544,140.93551177665154 L 1027.270230503482,147.78025588832585 L 1027.270230503482,150.0 L 1003.5593413710267,150.0 L 1003.5593413710267,147.78025588832577 Z" /><path d="M 958.0930076723437,28.0 L 981.803896804799,28.0 L 981.803896804799,30.21974411167423 L 969.9484522385713,37.06448822334846 L 958.0930076723437,30.21974411167423 L 958.0930076723437,28.0 Z" /><path d="M 473.118781553058,28.0 L 496.82967068551335,28.0 L 496.82967068551335,30.21974411167426 L 484.9742261192857,37.06448822334849 L 473.118781553058,30.21974411167426 L 473.118781553058,28.0 Z" /><path d="M 185.16533479473213,147.78025588832577 L 197.0207793609598,140.93551177665154 L 208.87622392718748,147.78025588832577 L 208.87622392718748,150.0 L 185.16533479473213,150.0 L 185.16533479473213,147.78025588832577 Z" /><path d="M 745.9167837451562,28.0 L 769.6276728776115,28.0 L 769.6276728776115,30.21974411167423 L 757.7722283113839,37.06448822334846 L 745.9167837451562,30.21974411167423 L 745.9167837451562,28.0 Z" /><path d="M 427.652447854375,147.78025588832574 L 439.5078924206027,140.9355117766515 L 451.36333698683035,147.78025588832577 L 451.36333698683035,150.0 L 427.652447854375,150.0 L 427.652447854375,147.78025588832574 Z" /><path d="M 791.3831174438392,147.78025588832577 L 803.2385620100669,140.9355117766515 L 815.0940065762946,147.7802558883258 L 815.0940065762946,150.0 L 791.3831174438392,150.0 L 791.3831174438392,147.78025588832577 Z" /><path d="M 151.64006036599312,62.23494144888876 L 163.40989022850445,69.03025588832577 L 163.40989022850442,82.71974411167423 L 151.64006036599312,89.51505855111124 L 151.64006036599312,62.23494144888876 Z" /><path d="M 624.6732272153348,28.0 L 648.3841163477902,28.0 L 648.3841163477902,30.21974411167423 L 636.5286717815625,37.06448822334846 L 624.6732272153348,30.21974411167423 L 624.6732272153348,28.0 Z" /><path d="M 700.4504500464731,147.78025588832577 L 712.3058946127007,140.9355117766515 L 724.1613391789285,147.7802558883258 L 724.1613391789285,150.0 L 700.4504500464731,150.0 L 700.4504500464731,147.78025588832577 Z" /><path d="M 942.9375631061159,147.78025588832577 L 954.7930076723436,140.9355117766515 L 966.6484522385714,147.7802558883258 L 966.6484522385714,150.0 L 942.9375631061159,150.0 L 942.9375631061159,147.78025588832577 Z" /><path d="M 245.78711305964285,147.78025588832577 L 257.6425576258705,140.93551177665154 L 269.49800219209817,147.78025588832577 L 269.49800219209817,150.0 L 245.78711305964285,150.0 L 245.78711305964285,147.78025588832577 Z" /><path d="M 564.0514489504241,28.0 L 587.7623380828794,28.0 L 587.7623380828794,30.21974411167423 L 575.9068935166517,37.06448822334846 L 564.0514489504241,30.21974411167423 L 564.0514489504241,28.0 Z" /><path d="M 145.64006036599312,178.0 L 1051.6400603659931,178.0 L 1051.6400603659931,0.0 L 145.64006036599312,0.0 L 145.64006036599312,178.0 Z" /></g></svg>