<?xml version="1.0" encoding="UTF-8" standalone="no"?>
<svg
   height="300mm"
   version="1.1"
   viewBox="0 0 1200 300"
   width="1200mm"
   id="svg179"
   sodipodi:docname="tramo1.6_1.7.svg"
   inkscape:version="1.4.2 (1:1.4.2+202505120737+ebf0e940d0)"
   xmlns:inkscape="http://www.inkscape.org/namespaces/inkscape"
   xmlns:sodipodi="http://sodipodi.sourceforge.net/DTD/sodipodi-0.dtd"
   xmlns="http://www.w3.org/2000/svg"
   xmlns:svg="http://www.w3.org/2000/svg">
  <sodipodi:namedview
     id="namedview179"
     pagecolor="#ffffff"
     bordercolor="#666666"
     borderopacity="1.0"
     inkscape:showpageshadow="2"
     inkscape:pageopacity="0.0"
     inkscape:pagecheckerboard="0"
     inkscape:deskcolor="#d1d1d1"
     inkscape:document-units="mm"
     inkscape:zoom="0.26020916"
     inkscape:cx="1919.6096"
     inkscape:cy="757.08327"
     inkscape:window-width="1920"
     inkscape:window-height="1011"
     inkscape:window-x="0"
     inkscape:window-y="0"
     inkscape:window-maximized="1"
     inkscape:current-layer="svg179" />
  <defs
     id="defs1" />
  <g
     fill="none"
     stroke="blue"
     stroke-width="0.5"
     transform="translate(1.359939634006878,65.0)"
     id="g179"
     style="vector-effect:non-scaling-stroke;-inkscape-stroke:hairline;stroke-width:0.26458333;stroke-dasharray:none">
    <path
       d="M 178.5653347947321,143.78025588832577 L 178.5653347947321,144.0 L 161.14006036599312,144.0 L 161.14006036599312,140.15125454711287 L 166.70989022850446,136.93551177665154 L 178.5653347947321,143.78025588832577 Z"
       id="path1"
       style="vector-effect:non-scaling-stroke;-inkscape-stroke:hairline;stroke-width:0.26458333;stroke-dasharray:none" />
    <path
       d="M 163.40989022850445,117.53025588832577 L 163.40989022850442,131.21974411167423 L 161.14006036599312,132.5302309938098 L 161.14006036599312,116.2197690061902 L 163.40989022850445,117.53025588832577 Z"
       id="path2"
       style="vector-effect:non-scaling-stroke;-inkscape-stroke:hairline;stroke-width:0.26458333;stroke-dasharray:none" />
    <path
       d="M 178.5653347947321,91.28025588832577 L 178.5653347947321,104.96974411167423 L 166.70989022850446,111.81448822334846 L 161.14006036599312,108.59874545288713 L 161.14006036599312,87.65125454711287 L 166.70989022850446,84.43551177665154 L 178.5653347947321,91.28025588832577 Z"
       id="path3"
       style="vector-effect:non-scaling-stroke;-inkscape-stroke:hairline;stroke-width:0.26458333;stroke-dasharray:none" />
    <path
       d="M 163.40989022850445,65.03025588832577 L 163.40989022850442,78.71974411167423 L 161.14006036599312,80.03023099380978 L 161.14006036599312,63.719769006190205 L 163.40989022850445,65.03025588832577 Z"
       id="path4"
       style="vector-effect:non-scaling-stroke;-inkscape-stroke:hairline;stroke-width:0.26458333;stroke-dasharray:none" />
    <path
       d="M 178.5653347947321,38.78025588832577 L 178.5653347947321,52.46974411167423 L 166.70989022850446,59.31448822334846 L 161.14006036599312,56.09874545288713 L 161.14006036599312,35.15125454711287 L 166.70989022850446,31.935511776651538 L 178.5653347947321,38.78025588832577 Z"
       id="path5"
       style="vector-effect:non-scaling-stroke;-inkscape-stroke:hairline;stroke-width:0.26458333;stroke-dasharray:none" />
    <path
       d="M 208.87622392718748,143.78025588832577 L 208.87622392718748,144.0 L 185.16533479473213,144.0 L 185.16533479473213,143.78025588832577 L 197.0207793609598,136.93551177665154 L 208.87622392718748,143.78025588832577 Z"
       id="path6"
       style="vector-effect:non-scaling-stroke;-inkscape-stroke:hairline;stroke-width:0.26458333;stroke-dasharray:none" />
    <path
       d="M 181.86533479473212,110.68551177665154 L 193.7207793609598,117.53025588832577 L 193.72077936095977,131.21974411167423 L 181.86533479473212,138.06448822334846 L 170.00989022850445,131.21974411167423 L 170.00989022850445,117.53025588832577 L 181.86533479473212,110.68551177665154 Z"
       id="path7"
       style="vector-effect:non-scaling-stroke;-inkscape-stroke:hairline;stroke-width:0.26458333;stroke-dasharray:none" />
    <path
       d="M 197.0207793609598,84.43551177665154 L 208.87622392718748,91.28025588832577 L 208.87622392718745,104.96974411167423 L 197.0207793609598,111.81448822334846 L 185.16533479473213,104.96974411167423 L 185.16533479473213,91.28025588832577 L 197.0207793609598,84.43551177665154 Z"
       id="path8"
       style="vector-effect:non-scaling-stroke;-inkscape-stroke:hairline;stroke-width:0.26458333;stroke-dasharray:none" />
    <path
       d="M 181.86533479473212,58.18551177665154 L 193.7207793609598,65.03025588832577 L 193.72077936095977,78.71974411167423 L 181.86533479473212,85.56448822334846 L 170.00989022850445,78.71974411167423 L 170.00989022850445,65.03025588832577 L 181.86533479473212,58.18551177665154 Z"
       id="path9"
       style="vector-effect:non-scaling-stroke;-inkscape-stroke:hairline;stroke-width:0.26458333;stroke-dasharray:none" />
    <path
       d="M 197.0207793609598,31.935511776651538 L 208.87622392718748,38.78025588832577 L 208.87622392718745,52.46974411167423 L 197.0207793609598,59.31448822334846 L 185.16533479473213,52.46974411167423 L 185.16533479473213,38.78025588832577 L 197.0207793609598,31.935511776651538 Z"
       id="path10"
       style="vector-effect:non-scaling-stroke;-inkscape-stroke:hairline;stroke-width:0.26458333;stroke-dasharray:none" />
    <path
       d="M 193.72077936095977,26.21974411167423 L 181.86533479473212,33.06448822334846 L 170.00989022850445,26.21974411167423 L 170.00989022850445,24.0 L 193.72077936095977,24.0 L 193.72077936095977,26.21974411167423 Z"
       id="path11"
       style="vector-effect:non-scaling-stroke;-inkscape-stroke:hairline;stroke-width:0.26458333;stroke-dasharray:none" />
    <path
       d="M 239.18711305964285,143.78025588832577 L 239.18711305964285,144.0 L 215.4762239271875,144.0 L 215.4762239271875,143.78025588832577 L 227.33166849341518,136.93551177665154 L 239.18711305964285,143.78025588832577 Z"
       id="path12"
       style="vector-effect:non-scaling-stroke;-inkscape-stroke:hairline;stroke-width:0.26458333;stroke-dasharray:none" />
    <path
       d="M 212.1762239271875,110.68551177665154 L 224.03166849341517,117.53025588832577 L 224.03166849341514,131.21974411167423 L 212.1762239271875,138.06448822334846 L 200.32077936095982,131.21974411167423 L 200.32077936095982,117.53025588832577 L 212.1762239271875,110.68551177665154 Z"
       id="path13"
       style="vector-effect:non-scaling-stroke;-inkscape-stroke:hairline;stroke-width:0.26458333;stroke-dasharray:none" />
    <path
       d="M 227.33166849341518,84.43551177665154 L 239.18711305964285,91.28025588832577 L 239.18711305964283,104.96974411167423 L 227.33166849341518,111.81448822334846 L 215.4762239271875,104.96974411167423 L 215.4762239271875,91.28025588832577 L 227.33166849341518,84.43551177665154 Z"
       id="path14"
       style="vector-effect:non-scaling-stroke;-inkscape-stroke:hairline;stroke-width:0.26458333;stroke-dasharray:none" />
    <path
       d="M 212.1762239271875,58.18551177665154 L 224.03166849341517,65.03025588832577 L 224.03166849341514,78.71974411167423 L 212.1762239271875,85.56448822334846 L 200.32077936095982,78.71974411167423 L 200.32077936095982,65.03025588832577 L 212.1762239271875,58.18551177665154 Z"
       id="path15"
       style="vector-effect:non-scaling-stroke;-inkscape-stroke:hairline;stroke-width:0.26458333;stroke-dasharray:none" />
    <path
       d="M 227.33166849341518,31.935511776651538 L 239.18711305964285,38.78025588832577 L 239.18711305964283,52.46974411167423 L 227.33166849341518,59.31448822334846 L 215.4762239271875,52.46974411167423 L 215.4762239271875,38.78025588832577 L 227.33166849341518,31.935511776651538 Z"
       id="path16"
       style="vector-effect:non-scaling-stroke;-inkscape-stroke:hairline;stroke-width:0.26458333;stroke-dasharray:none" />
    <path
       d="M 224.03166849341514,26.21974411167423 L 212.1762239271875,33.06448822334846 L 200.32077936095982,26.21974411167423 L 200.32077936095982,24.0 L 224.03166849341514,24.0 L 224.03166849341514,26.21974411167423 Z"
       id="path17"
       style="vector-effect:non-scaling-stroke;-inkscape-stroke:hairline;stroke-width:0.26458333;stroke-dasharray:none" />
    <path
       d="M 269.49800219209817,143.78025588832577 L 269.49800219209817,144.0 L 245.78711305964285,144.0 L 245.78711305964285,143.78025588832577 L 257.6425576258705,136.93551177665154 L 269.49800219209817,143.78025588832577 Z"
       id="path18"
       style="vector-effect:non-scaling-stroke;-inkscape-stroke:hairline;stroke-width:0.26458333;stroke-dasharray:none" />
    <path
       d="M 242.48711305964284,110.68551177665154 L 254.34255762587048,117.53025588832577 L 254.34255762587048,131.21974411167423 L 242.48711305964284,138.06448822334846 L 230.63166849341516,131.21974411167423 L 230.63166849341516,117.53025588832577 L 242.48711305964284,110.68551177665154 Z"
       id="path19"
       style="vector-effect:non-scaling-stroke;-inkscape-stroke:hairline;stroke-width:0.26458333;stroke-dasharray:none" />
    <path
       d="M 257.6425576258705,84.43551177665154 L 269.49800219209817,91.28025588832575 L 269.49800219209817,104.96974411167425 L 257.6425576258705,111.81448822334846 L 245.78711305964285,104.96974411167423 L 245.78711305964285,91.28025588832577 L 257.6425576258705,84.43551177665154 Z"
       id="path20"
       style="vector-effect:non-scaling-stroke;-inkscape-stroke:hairline;stroke-width:0.26458333;stroke-dasharray:none" />
    <path
       d="M 242.48711305964284,58.18551177665154 L 254.34255762587048,65.03025588832577 L 254.34255762587048,78.71974411167423 L 242.48711305964284,85.56448822334846 L 230.63166849341516,78.71974411167423 L 230.63166849341516,65.03025588832577 L 242.48711305964284,58.18551177665154 Z"
       id="path21"
       style="vector-effect:non-scaling-stroke;-inkscape-stroke:hairline;stroke-width:0.26458333;stroke-dasharray:none" />
    <path
       d="M 257.6425576258705,31.935511776651538 L 269.49800219209817,38.78025588832574 L 269.49800219209817,52.469744111674245 L 257.6425576258705,59.31448822334846 L 245.78711305964285,52.46974411167423 L 245.78711305964285,38.78025588832577 L 257.6425576258705,31.935511776651538 Z"
       id="path22"
       style="vector-effect:non-scaling-stroke;-inkscape-stroke:hairline;stroke-width:0.26458333;stroke-dasharray:none" />
    <path
       d="M 254.34255762587048,26.21974411167423 L 242.48711305964284,33.06448822334846 L 230.63166849341516,26.21974411167423 L 230.63166849341516,24.0 L 254.34255762587048,24.0 L 254.34255762587048,26.21974411167423 Z"
       id="path23"
       style="vector-effect:non-scaling-stroke;-inkscape-stroke:hairline;stroke-width:0.26458333;stroke-dasharray:none" />
    <path
       d="M 299.80889132455354,143.78025588832577 L 299.80889132455354,144.0 L 276.0980021920982,144.0 L 276.0980021920982,143.78025588832574 L 287.95344675832587,136.9355117766515 L 299.80889132455354,143.78025588832577 Z"
       id="path24"
       style="vector-effect:non-scaling-stroke;-inkscape-stroke:hairline;stroke-width:0.26458333;stroke-dasharray:none" />
    <path
       d="M 272.7980021920982,110.68551177665152 L 284.65344675832586,117.53025588832575 L 284.65344675832586,131.21974411167426 L 272.7980021920982,138.0644882233485 L 260.9425576258705,131.21974411167426 L 260.9425576258705,117.53025588832574 L 272.7980021920982,110.68551177665152 Z"
       id="path25"
       style="vector-effect:non-scaling-stroke;-inkscape-stroke:hairline;stroke-width:0.26458333;stroke-dasharray:none" />
    <path
       d="M 287.95344675832587,84.43551177665152 L 299.80889132455354,91.28025588832575 L 299.80889132455354,104.96974411167425 L 287.95344675832587,111.81448822334848 L 276.0980021920982,104.96974411167425 L 276.0980021920982,91.28025588832575 L 287.95344675832587,84.43551177665152 Z"
       id="path26"
       style="vector-effect:non-scaling-stroke;-inkscape-stroke:hairline;stroke-width:0.26458333;stroke-dasharray:none" />
    <path
       d="M 272.7980021920982,58.18551177665152 L 284.65344675832586,65.03025588832575 L 284.65344675832586,78.71974411167425 L 272.7980021920982,85.56448822334848 L 260.9425576258705,78.71974411167425 L 260.9425576258705,65.03025588832575 L 272.7980021920982,58.18551177665152 Z"
       id="path27"
       style="vector-effect:non-scaling-stroke;-inkscape-stroke:hairline;stroke-width:0.26458333;stroke-dasharray:none" />
    <path
       d="M 287.95344675832587,31.93551177665151 L 299.80889132455354,38.78025588832574 L 299.80889132455354,52.469744111674245 L 287.95344675832587,59.31448822334848 L 276.0980021920982,52.469744111674245 L 276.0980021920982,38.78025588832574 L 287.95344675832587,31.93551177665151 Z"
       id="path28"
       style="vector-effect:non-scaling-stroke;-inkscape-stroke:hairline;stroke-width:0.26458333;stroke-dasharray:none" />
    <path
       d="M 284.65344675832586,26.21974411167426 L 272.7980021920982,33.06448822334849 L 260.9425576258705,26.21974411167426 L 260.9425576258705,24.0 L 284.65344675832586,24.0 L 284.65344675832586,26.21974411167426 Z"
       id="path29"
       style="vector-effect:non-scaling-stroke;-inkscape-stroke:hairline;stroke-width:0.26458333;stroke-dasharray:none" />
    <path
       d="M 330.1197804570089,143.78025588832577 L 330.1197804570089,144.0 L 306.40889132455357,144.0 L 306.40889132455357,143.78025588832574 L 318.26433589078124,136.9355117766515 L 330.1197804570089,143.78025588832577 Z"
       id="path30"
       style="vector-effect:non-scaling-stroke;-inkscape-stroke:hairline;stroke-width:0.26458333;stroke-dasharray:none" />
    <path
       d="M 303.10889132455355,110.68551177665152 L 314.96433589078123,117.53025588832575 L 314.96433589078123,131.21974411167426 L 303.10889132455355,138.0644882233485 L 291.2534467583259,131.21974411167426 L 291.2534467583259,117.53025588832574 L 303.10889132455355,110.68551177665152 Z"
       id="path31"
       style="vector-effect:non-scaling-stroke;-inkscape-stroke:hairline;stroke-width:0.26458333;stroke-dasharray:none" />
    <path
       d="M 318.26433589078124,84.43551177665152 L 330.1197804570089,91.28025588832575 L 330.1197804570089,104.96974411167425 L 318.26433589078124,111.81448822334848 L 306.40889132455357,104.96974411167425 L 306.40889132455357,91.28025588832575 L 318.26433589078124,84.43551177665152 Z"
       id="path32"
       style="vector-effect:non-scaling-stroke;-inkscape-stroke:hairline;stroke-width:0.26458333;stroke-dasharray:none" />
    <path
       d="M 303.10889132455355,58.18551177665152 L 314.96433589078123,65.03025588832575 L 314.96433589078123,78.71974411167425 L 303.10889132455355,85.56448822334848 L 291.2534467583259,78.71974411167425 L 291.2534467583259,65.03025588832575 L 303.10889132455355,58.18551177665152 Z"
       id="path33"
       style="vector-effect:non-scaling-stroke;-inkscape-stroke:hairline;stroke-width:0.26458333;stroke-dasharray:none" />
    <path
       d="M 318.26433589078124,31.93551177665151 L 330.1197804570089,38.78025588832574 L 330.1197804570089,52.469744111674245 L 318.26433589078124,59.31448822334848 L 306.40889132455357,52.469744111674245 L 306.40889132455357,38.78025588832574 L 318.26433589078124,31.93551177665151 Z"
       id="path34"
       style="vector-effect:non-scaling-stroke;-inkscape-stroke:hairline;stroke-width:0.26458333;stroke-dasharray:none" />
    <path
       d="M 314.96433589078123,26.21974411167426 L 303.10889132455355,33.06448822334849 L 291.2534467583259,26.21974411167426 L 291.2534467583259,24.0 L 314.96433589078123,24.0 L 314.96433589078123,26.21974411167426 Z"
       id="path35"
       style="vector-effect:non-scaling-stroke;-inkscape-stroke:hairline;stroke-width:0.26458333;stroke-dasharray:none" />
    <path
       d="M 360.4306695894643,143.78025588832577 L 360.4306695894643,144.0 L 336.71978045700894,144.0 L 336.71978045700894,143.78025588832574 L 348.5752250232366,136.9355117766515 L 360.4306695894643,143.78025588832577 Z"
       id="path36"
       style="vector-effect:non-scaling-stroke;-inkscape-stroke:hairline;stroke-width:0.26458333;stroke-dasharray:none" />
    <path
       d="M 333.4197804570089,110.68551177665152 L 345.2752250232366,117.53025588832575 L 345.2752250232366,131.21974411167426 L 333.4197804570089,138.0644882233485 L 321.56433589078125,131.21974411167426 L 321.56433589078125,117.53025588832574 L 333.4197804570089,110.68551177665152 Z"
       id="path37"
       style="vector-effect:non-scaling-stroke;-inkscape-stroke:hairline;stroke-width:0.26458333;stroke-dasharray:none" />
    <path
       d="M 348.5752250232366,84.43551177665152 L 360.4306695894643,91.28025588832575 L 360.4306695894643,104.96974411167425 L 348.5752250232366,111.81448822334848 L 336.71978045700894,104.96974411167425 L 336.71978045700894,91.28025588832575 L 348.5752250232366,84.43551177665152 Z"
       id="path38"
       style="vector-effect:non-scaling-stroke;-inkscape-stroke:hairline;stroke-width:0.26458333;stroke-dasharray:none" />
    <path
       d="M 333.4197804570089,58.18551177665152 L 345.2752250232366,65.03025588832575 L 345.2752250232366,78.71974411167425 L 333.4197804570089,85.56448822334848 L 321.56433589078125,78.71974411167425 L 321.56433589078125,65.03025588832575 L 333.4197804570089,58.18551177665152 Z"
       id="path39"
       style="vector-effect:non-scaling-stroke;-inkscape-stroke:hairline;stroke-width:0.26458333;stroke-dasharray:none" />
    <path
       d="M 348.5752250232366,31.93551177665151 L 360.4306695894643,38.78025588832574 L 360.4306695894643,52.469744111674245 L 348.5752250232366,59.31448822334848 L 336.71978045700894,52.469744111674245 L 336.71978045700894,38.78025588832574 L 348.5752250232366,31.93551177665151 Z"
       id="path40"
       style="vector-effect:non-scaling-stroke;-inkscape-stroke:hairline;stroke-width:0.26458333;stroke-dasharray:none" />
    <path
       d="M 345.2752250232366,26.21974411167426 L 333.4197804570089,33.06448822334849 L 321.56433589078125,26.21974411167426 L 321.56433589078125,24.0 L 345.2752250232366,24.0 L 345.2752250232366,26.21974411167426 Z"
       id="path41"
       style="vector-effect:non-scaling-stroke;-inkscape-stroke:hairline;stroke-width:0.26458333;stroke-dasharray:none" />
    <path
       d="M 390.7415587219196,143.78025588832577 L 390.7415587219196,144.0 L 367.03066958946425,144.0 L 367.03066958946425,143.78025588832574 L 378.8861141556919,136.9355117766515 L 390.7415587219196,143.78025588832577 Z"
       id="path42"
       style="vector-effect:non-scaling-stroke;-inkscape-stroke:hairline;stroke-width:0.26458333;stroke-dasharray:none" />
    <path
       d="M 363.73066958946424,110.68551177665152 L 375.5861141556919,117.53025588832575 L 375.5861141556919,131.21974411167426 L 363.73066958946424,138.0644882233485 L 351.87522502323657,131.21974411167426 L 351.87522502323657,117.53025588832574 L 363.73066958946424,110.68551177665152 Z"
       id="path43"
       style="vector-effect:non-scaling-stroke;-inkscape-stroke:hairline;stroke-width:0.26458333;stroke-dasharray:none" />
    <path
       d="M 378.8861141556919,84.43551177665152 L 390.7415587219196,91.28025588832575 L 390.7415587219196,104.96974411167425 L 378.8861141556919,111.81448822334848 L 367.03066958946425,104.96974411167425 L 367.03066958946425,91.28025588832575 L 378.8861141556919,84.43551177665152 Z"
       id="path44"
       style="vector-effect:non-scaling-stroke;-inkscape-stroke:hairline;stroke-width:0.26458333;stroke-dasharray:none" />
    <path
       d="M 363.73066958946424,58.18551177665152 L 375.5861141556919,65.03025588832575 L 375.5861141556919,78.71974411167425 L 363.73066958946424,85.56448822334848 L 351.87522502323657,78.71974411167425 L 351.87522502323657,65.03025588832575 L 363.73066958946424,58.18551177665152 Z"
       id="path45"
       style="vector-effect:non-scaling-stroke;-inkscape-stroke:hairline;stroke-width:0.26458333;stroke-dasharray:none" />
    <path
       d="M 378.8861141556919,31.93551177665151 L 390.7415587219196,38.78025588832574 L 390.7415587219196,52.469744111674245 L 378.8861141556919,59.31448822334848 L 367.03066958946425,52.469744111674245 L 367.03066958946425,38.78025588832574 L 378.8861141556919,31.93551177665151 Z"
       id="path46"
       style="vector-effect:non-scaling-stroke;-inkscape-stroke:hairline;stroke-width:0.26458333;stroke-dasharray:none" />
    <path
       d="M 375.5861141556919,26.21974411167426 L 363.73066958946424,33.06448822334849 L 351.87522502323657,26.21974411167426 L 351.87522502323657,24.0 L 375.5861141556919,24.0 L 375.5861141556919,26.21974411167426 Z"
       id="path47"
       style="vector-effect:non-scaling-stroke;-inkscape-stroke:hairline;stroke-width:0.26458333;stroke-dasharray:none" />
    <path
       d="M 421.052447854375,143.78025588832577 L 421.052447854375,144.0 L 397.3415587219196,144.0 L 397.3415587219196,143.78025588832574 L 409.1970032881473,136.9355117766515 L 421.052447854375,143.78025588832577 Z"
       id="path48"
       style="vector-effect:non-scaling-stroke;-inkscape-stroke:hairline;stroke-width:0.26458333;stroke-dasharray:none" />
    <path
       d="M 394.0415587219196,110.68551177665152 L 405.8970032881473,117.53025588832575 L 405.8970032881473,131.21974411167426 L 394.0415587219196,138.0644882233485 L 382.18611415569194,131.21974411167426 L 382.18611415569194,117.53025588832574 L 394.0415587219196,110.68551177665152 Z"
       id="path49"
       style="vector-effect:non-scaling-stroke;-inkscape-stroke:hairline;stroke-width:0.26458333;stroke-dasharray:none" />
    <path
       d="M 409.1970032881473,84.43551177665152 L 421.052447854375,91.28025588832575 L 421.052447854375,104.96974411167425 L 409.1970032881473,111.81448822334848 L 397.3415587219196,104.96974411167425 L 397.3415587219196,91.28025588832575 L 409.1970032881473,84.43551177665152 Z"
       id="path50"
       style="vector-effect:non-scaling-stroke;-inkscape-stroke:hairline;stroke-width:0.26458333;stroke-dasharray:none" />
    <path
       d="M 394.0415587219196,58.18551177665152 L 405.8970032881473,65.03025588832575 L 405.8970032881473,78.71974411167425 L 394.0415587219196,85.56448822334848 L 382.18611415569194,78.71974411167425 L 382.18611415569194,65.03025588832575 L 394.0415587219196,58.18551177665152 Z"
       id="path51"
       style="vector-effect:non-scaling-stroke;-inkscape-stroke:hairline;stroke-width:0.26458333;stroke-dasharray:none" />
    <path
       d="M 409.1970032881473,31.93551177665151 L 421.052447854375,38.78025588832574 L 421.052447854375,52.469744111674245 L 409.1970032881473,59.31448822334848 L 397.3415587219196,52.469744111674245 L 397.3415587219196,38.78025588832574 L 409.1970032881473,31.93551177665151 Z"
       id="path52"
       style="vector-effect:non-scaling-stroke;-inkscape-stroke:hairline;stroke-width:0.26458333;stroke-dasharray:none" />
    <path
       d="M 405.8970032881473,26.21974411167426 L 394.0415587219196,33.06448822334849 L 382.18611415569194,26.21974411167426 L 382.18611415569194,24.0 L 405.8970032881473,24.0 L 405.8970032881473,26.21974411167426 Z"
       id="path53"
       style="vector-effect:non-scaling-stroke;-inkscape-stroke:hairline;stroke-width:0.26458333;stroke-dasharray:none" />
    <path
       d="M 451.36333698683035,143.78025588832577 L 451.36333698683035,144.0 L 427.652447854375,144.0 L 427.652447854375,143.78025588832574 L 439.5078924206027,136.9355117766515 L 451.36333698683035,143.78025588832577 Z"
       id="path54"
       style="vector-effect:non-scaling-stroke;-inkscape-stroke:hairline;stroke-width:0.26458333;stroke-dasharray:none" />
    <path
       d="M 424.352447854375,110.68551177665152 L 436.20789242060266,117.53025588832575 L 436.20789242060266,131.21974411167426 L 424.352447854375,138.0644882233485 L 412.4970032881473,131.21974411167426 L 412.4970032881473,117.53025588832574 L 424.352447854375,110.68551177665152 Z"
       id="path55"
       style="vector-effect:non-scaling-stroke;-inkscape-stroke:hairline;stroke-width:0.26458333;stroke-dasharray:none" />
    <path
       d="M 439.5078924206027,84.43551177665152 L 451.36333698683035,91.28025588832575 L 451.36333698683035,104.96974411167425 L 439.5078924206027,111.81448822334848 L 427.652447854375,104.96974411167425 L 427.652447854375,91.28025588832575 L 439.5078924206027,84.43551177665152 Z"
       id="path56"
       style="vector-effect:non-scaling-stroke;-inkscape-stroke:hairline;stroke-width:0.26458333;stroke-dasharray:none" />
    <path
       d="M 424.352447854375,58.18551177665152 L 436.20789242060266,65.03025588832575 L 436.20789242060266,78.71974411167425 L 424.352447854375,85.56448822334848 L 412.4970032881473,78.71974411167425 L 412.4970032881473,65.03025588832575 L 424.352447854375,58.18551177665152 Z"
       id="path57"
       style="vector-effect:non-scaling-stroke;-inkscape-stroke:hairline;stroke-width:0.26458333;stroke-dasharray:none" />
    <path
       d="M 439.5078924206027,31.93551177665151 L 451.36333698683035,38.78025588832574 L 451.36333698683035,52.469744111674245 L 439.5078924206027,59.31448822334848 L 427.652447854375,52.469744111674245 L 427.652447854375,38.78025588832574 L 439.5078924206027,31.93551177665151 Z"
       id="path58"
       style="vector-effect:non-scaling-stroke;-inkscape-stroke:hairline;stroke-width:0.26458333;stroke-dasharray:none" />
    <path
       d="M 436.20789242060266,26.21974411167426 L 424.352447854375,33.06448822334849 L 412.4970032881473,26.21974411167426 L 412.4970032881473,24.0 L 436.20789242060266,24.0 L 436.20789242060266,26.21974411167426 Z"
       id="path59"
       style="vector-effect:non-scaling-stroke;-inkscape-stroke:hairline;stroke-width:0.26458333;stroke-dasharray:none" />
    <path
       d="M 481.67422611928566,143.78025588832577 L 481.67422611928566,144.0 L 457.9633369868303,144.0 L 457.9633369868303,143.78025588832574 L 469.818781553058,136.9355117766515 L 481.67422611928566,143.78025588832577 Z"
       id="path60"
       style="vector-effect:non-scaling-stroke;-inkscape-stroke:hairline;stroke-width:0.26458333;stroke-dasharray:none" />
    <path
       d="M 454.6633369868303,110.68551177665152 L 466.518781553058,117.53025588832575 L 466.518781553058,131.21974411167426 L 454.6633369868303,138.0644882233485 L 442.8078924206026,131.21974411167426 L 442.8078924206026,117.53025588832574 L 454.6633369868303,110.68551177665152 Z"
       id="path61"
       style="vector-effect:non-scaling-stroke;-inkscape-stroke:hairline;stroke-width:0.26458333;stroke-dasharray:none" />
    <path
       d="M 469.818781553058,84.43551177665152 L 481.67422611928566,91.28025588832575 L 481.67422611928566,104.96974411167425 L 469.818781553058,111.81448822334848 L 457.9633369868303,104.96974411167425 L 457.9633369868303,91.28025588832575 L 469.818781553058,84.43551177665152 Z"
       id="path62"
       style="vector-effect:non-scaling-stroke;-inkscape-stroke:hairline;stroke-width:0.26458333;stroke-dasharray:none" />
    <path
       d="M 454.6633369868303,58.18551177665152 L 466.518781553058,65.03025588832575 L 466.518781553058,78.71974411167425 L 454.6633369868303,85.56448822334848 L 442.8078924206026,78.71974411167425 L 442.8078924206026,65.03025588832575 L 454.6633369868303,58.18551177665152 Z"
       id="path63"
       style="vector-effect:non-scaling-stroke;-inkscape-stroke:hairline;stroke-width:0.26458333;stroke-dasharray:none" />
    <path
       d="M 469.818781553058,31.93551177665151 L 481.67422611928566,38.78025588832574 L 481.67422611928566,52.469744111674245 L 469.818781553058,59.31448822334848 L 457.9633369868303,52.469744111674245 L 457.9633369868303,38.78025588832574 L 469.818781553058,31.93551177665151 Z"
       id="path64"
       style="vector-effect:non-scaling-stroke;-inkscape-stroke:hairline;stroke-width:0.26458333;stroke-dasharray:none" />
    <path
       d="M 466.518781553058,26.21974411167426 L 454.6633369868303,33.06448822334849 L 442.8078924206026,26.21974411167426 L 442.8078924206026,24.0 L 466.518781553058,24.0 L 466.518781553058,26.21974411167426 Z"
       id="path65"
       style="vector-effect:non-scaling-stroke;-inkscape-stroke:hairline;stroke-width:0.26458333;stroke-dasharray:none" />
    <path
       d="M 511.985115251741,143.78025588832577 L 511.985115251741,144.0 L 488.2742261192857,144.0 L 488.2742261192857,143.78025588832574 L 500.12967068551336,136.9355117766515 L 511.985115251741,143.78025588832577 Z"
       id="path66"
       style="vector-effect:non-scaling-stroke;-inkscape-stroke:hairline;stroke-width:0.26458333;stroke-dasharray:none" />
    <path
       d="M 484.9742261192857,110.68551177665152 L 496.82967068551335,117.53025588832575 L 496.82967068551335,131.21974411167426 L 484.9742261192857,138.0644882233485 L 473.118781553058,131.21974411167426 L 473.118781553058,117.53025588832574 L 484.9742261192857,110.68551177665152 Z"
       id="path67"
       style="vector-effect:non-scaling-stroke;-inkscape-stroke:hairline;stroke-width:0.26458333;stroke-dasharray:none" />
    <path
       d="M 500.12967068551336,84.43551177665152 L 511.985115251741,91.28025588832574 L 511.985115251741,104.96974411167426 L 500.12967068551336,111.81448822334848 L 488.2742261192857,104.96974411167425 L 488.2742261192857,91.28025588832575 L 500.12967068551336,84.43551177665152 Z"
       id="path68"
       style="vector-effect:non-scaling-stroke;-inkscape-stroke:hairline;stroke-width:0.26458333;stroke-dasharray:none" />
    <path
       d="M 484.9742261192857,58.18551177665152 L 496.82967068551335,65.03025588832575 L 496.82967068551335,78.71974411167425 L 484.9742261192857,85.56448822334848 L 473.118781553058,78.71974411167425 L 473.118781553058,65.03025588832575 L 484.9742261192857,58.18551177665152 Z"
       id="path69"
       style="vector-effect:non-scaling-stroke;-inkscape-stroke:hairline;stroke-width:0.26458333;stroke-dasharray:none" />
    <path
       d="M 500.12967068551336,31.935511776651538 L 511.985115251741,38.78025588832574 L 511.985115251741,52.46974411167426 L 500.12967068551336,59.31448822334848 L 488.2742261192857,52.469744111674245 L 488.2742261192857,38.78025588832574 L 500.12967068551336,31.935511776651538 Z"
       id="path70"
       style="vector-effect:non-scaling-stroke;-inkscape-stroke:hairline;stroke-width:0.26458333;stroke-dasharray:none" />
    <path
       d="M 496.82967068551335,26.21974411167426 L 484.9742261192857,33.06448822334849 L 473.118781553058,26.21974411167426 L 473.118781553058,24.0 L 496.82967068551335,24.0 L 496.82967068551335,26.21974411167426 Z"
       id="path71"
       style="vector-effect:non-scaling-stroke;-inkscape-stroke:hairline;stroke-width:0.26458333;stroke-dasharray:none" />
    <path
       d="M 542.2960043841964,143.7802558883258 L 542.2960043841964,144.0 L 518.585115251741,144.0 L 518.585115251741,143.78025588832577 L 530.4405598179686,136.9355117766515 L 542.2960043841964,143.7802558883258 Z"
       id="path72"
       style="vector-effect:non-scaling-stroke;-inkscape-stroke:hairline;stroke-width:0.26458333;stroke-dasharray:none" />
    <path
       d="M 515.285115251741,110.68551177665152 L 527.1405598179687,117.53025588832578 L 527.1405598179687,131.21974411167423 L 515.285115251741,138.0644882233485 L 503.4296706855133,131.21974411167426 L 503.4296706855133,117.53025588832574 L 515.285115251741,110.68551177665152 Z"
       id="path73"
       style="vector-effect:non-scaling-stroke;-inkscape-stroke:hairline;stroke-width:0.26458333;stroke-dasharray:none" />
    <path
       d="M 530.4405598179686,84.43551177665151 L 542.2960043841964,91.2802558883258 L 542.2960043841964,104.96974411167422 L 530.4405598179686,111.81448822334849 L 518.585115251741,104.96974411167423 L 518.585115251741,91.28025588832577 L 530.4405598179686,84.43551177665151 Z"
       id="path74"
       style="vector-effect:non-scaling-stroke;-inkscape-stroke:hairline;stroke-width:0.26458333;stroke-dasharray:none" />
    <path
       d="M 515.285115251741,58.18551177665152 L 527.1405598179687,65.03025588832578 L 527.1405598179687,78.71974411167423 L 515.285115251741,85.56448822334848 L 503.4296706855133,78.71974411167425 L 503.4296706855133,65.03025588832575 L 515.285115251741,58.18551177665152 Z"
       id="path75"
       style="vector-effect:non-scaling-stroke;-inkscape-stroke:hairline;stroke-width:0.26458333;stroke-dasharray:none" />
    <path
       d="M 530.4405598179686,31.93551177665151 L 542.2960043841964,38.7802558883258 L 542.2960043841964,52.46974411167422 L 530.4405598179686,59.31448822334849 L 518.585115251741,52.46974411167423 L 518.585115251741,38.78025588832577 L 530.4405598179686,31.93551177665151 Z"
       id="path76"
       style="vector-effect:non-scaling-stroke;-inkscape-stroke:hairline;stroke-width:0.26458333;stroke-dasharray:none" />
    <path
       d="M 527.1405598179687,26.21974411167423 L 515.285115251741,33.06448822334846 L 503.4296706855133,26.21974411167426 L 503.4296706855133,24.0 L 527.1405598179687,24.0 L 527.1405598179687,26.21974411167423 Z"
       id="path77"
       style="vector-effect:non-scaling-stroke;-inkscape-stroke:hairline;stroke-width:0.26458333;stroke-dasharray:none" />
    <path
       d="M 572.6068935166518,143.7802558883258 L 572.6068935166518,144.0 L 548.8960043841963,144.0 L 548.8960043841963,143.78025588832577 L 560.751448950424,136.9355117766515 L 572.6068935166518,143.7802558883258 Z"
       id="path78"
       style="vector-effect:non-scaling-stroke;-inkscape-stroke:hairline;stroke-width:0.26458333;stroke-dasharray:none" />
    <path
       d="M 545.5960043841964,110.68551177665151 L 557.451448950424,117.53025588832578 L 557.451448950424,131.21974411167423 L 545.5960043841964,138.0644882233485 L 533.7405598179687,131.21974411167423 L 533.7405598179687,117.53025588832577 L 545.5960043841964,110.68551177665151 Z"
       id="path79"
       style="vector-effect:non-scaling-stroke;-inkscape-stroke:hairline;stroke-width:0.26458333;stroke-dasharray:none" />
    <path
       d="M 560.751448950424,84.43551177665151 L 572.6068935166518,91.2802558883258 L 572.6068935166518,104.96974411167422 L 560.751448950424,111.81448822334849 L 548.8960043841963,104.96974411167423 L 548.8960043841963,91.28025588832577 L 560.751448950424,84.43551177665151 Z"
       id="path80"
       style="vector-effect:non-scaling-stroke;-inkscape-stroke:hairline;stroke-width:0.26458333;stroke-dasharray:none" />
    <path
       d="M 545.5960043841964,58.18551177665151 L 557.451448950424,65.03025588832578 L 557.451448950424,78.71974411167423 L 545.5960043841964,85.56448822334849 L 533.7405598179687,78.71974411167423 L 533.7405598179687,65.03025588832577 L 545.5960043841964,58.18551177665151 Z"
       id="path81"
       style="vector-effect:non-scaling-stroke;-inkscape-stroke:hairline;stroke-width:0.26458333;stroke-dasharray:none" />
    <path
       d="M 560.751448950424,31.93551177665151 L 572.6068935166518,38.7802558883258 L 572.6068935166518,52.46974411167422 L 560.751448950424,59.31448822334849 L 548.8960043841963,52.46974411167423 L 548.8960043841963,38.78025588832577 L 560.751448950424,31.93551177665151 Z"
       id="path82"
       style="vector-effect:non-scaling-stroke;-inkscape-stroke:hairline;stroke-width:0.26458333;stroke-dasharray:none" />
    <path
       d="M 557.451448950424,26.21974411167423 L 545.5960043841964,33.06448822334846 L 533.7405598179687,26.21974411167423 L 533.7405598179687,24.0 L 557.451448950424,24.0 L 557.451448950424,26.21974411167423 Z"
       id="path83"
       style="vector-effect:non-scaling-stroke;-inkscape-stroke:hairline;stroke-width:0.26458333;stroke-dasharray:none" />
    <path
       d="M 602.9177826491072,143.7802558883258 L 602.9177826491072,144.0 L 579.2068935166517,144.0 L 579.2068935166517,143.78025588832577 L 591.0623380828794,136.9355117766515 L 602.9177826491072,143.7802558883258 Z"
       id="path84"
       style="vector-effect:non-scaling-stroke;-inkscape-stroke:hairline;stroke-width:0.26458333;stroke-dasharray:none" />
    <path
       d="M 575.9068935166517,110.68551177665151 L 587.7623380828794,117.53025588832578 L 587.7623380828794,131.21974411167423 L 575.9068935166517,138.0644882233485 L 564.0514489504241,131.21974411167423 L 564.0514489504241,117.53025588832577 L 575.9068935166517,110.68551177665151 Z"
       id="path85"
       style="vector-effect:non-scaling-stroke;-inkscape-stroke:hairline;stroke-width:0.26458333;stroke-dasharray:none" />
    <path
       d="M 591.0623380828794,84.43551177665151 L 602.9177826491072,91.2802558883258 L 602.9177826491072,104.96974411167422 L 591.0623380828794,111.81448822334849 L 579.2068935166517,104.96974411167423 L 579.2068935166517,91.28025588832577 L 591.0623380828794,84.43551177665151 Z"
       id="path86"
       style="vector-effect:non-scaling-stroke;-inkscape-stroke:hairline;stroke-width:0.26458333;stroke-dasharray:none" />
    <path
       d="M 575.9068935166517,58.18551177665151 L 587.7623380828794,65.03025588832578 L 587.7623380828794,78.71974411167423 L 575.9068935166517,85.56448822334849 L 564.0514489504241,78.71974411167423 L 564.0514489504241,65.03025588832577 L 575.9068935166517,58.18551177665151 Z"
       id="path87"
       style="vector-effect:non-scaling-stroke;-inkscape-stroke:hairline;stroke-width:0.26458333;stroke-dasharray:none" />
    <path
       d="M 591.0623380828794,31.93551177665151 L 602.9177826491072,38.7802558883258 L 602.9177826491072,52.46974411167422 L 591.0623380828794,59.31448822334849 L 579.2068935166517,52.46974411167423 L 579.2068935166517,38.78025588832577 L 591.0623380828794,31.93551177665151 Z"
       id="path88"
       style="vector-effect:non-scaling-stroke;-inkscape-stroke:hairline;stroke-width:0.26458333;stroke-dasharray:none" />
    <path
       d="M 587.7623380828794,26.21974411167423 L 575.9068935166517,33.06448822334846 L 564.0514489504241,26.21974411167423 L 564.0514489504241,24.0 L 587.7623380828794,24.0 L 587.7623380828794,26.21974411167423 Z"
       id="path89"
       style="vector-effect:non-scaling-stroke;-inkscape-stroke:hairline;stroke-width:0.26458333;stroke-dasharray:none" />
    <path
       d="M 633.2286717815625,143.7802558883258 L 633.2286717815625,144.0 L 609.5177826491071,144.0 L 609.5177826491071,143.78025588832577 L 621.3732272153347,136.9355117766515 L 633.2286717815625,143.7802558883258 Z"
       id="path90"
       style="vector-effect:non-scaling-stroke;-inkscape-stroke:hairline;stroke-width:0.26458333;stroke-dasharray:none" />
    <path
       d="M 606.2177826491071,110.68551177665151 L 618.0732272153348,117.53025588832578 L 618.0732272153348,131.21974411167423 L 606.2177826491071,138.0644882233485 L 594.3623380828794,131.21974411167423 L 594.3623380828794,117.53025588832577 L 606.2177826491071,110.68551177665151 Z"
       id="path91"
       style="vector-effect:non-scaling-stroke;-inkscape-stroke:hairline;stroke-width:0.26458333;stroke-dasharray:none" />
    <path
       d="M 621.3732272153347,84.43551177665151 L 633.2286717815625,91.2802558883258 L 633.2286717815625,104.96974411167422 L 621.3732272153347,111.81448822334849 L 609.5177826491071,104.96974411167423 L 609.5177826491071,91.28025588832577 L 621.3732272153347,84.43551177665151 Z"
       id="path92"
       style="vector-effect:non-scaling-stroke;-inkscape-stroke:hairline;stroke-width:0.26458333;stroke-dasharray:none" />
    <path
       d="M 606.2177826491071,58.18551177665151 L 618.0732272153348,65.03025588832578 L 618.0732272153348,78.71974411167423 L 606.2177826491071,85.56448822334849 L 594.3623380828794,78.71974411167423 L 594.3623380828794,65.03025588832577 L 606.2177826491071,58.18551177665151 Z"
       id="path93"
       style="vector-effect:non-scaling-stroke;-inkscape-stroke:hairline;stroke-width:0.26458333;stroke-dasharray:none" />
    <path
       d="M 621.3732272153347,31.93551177665151 L 633.2286717815625,38.7802558883258 L 633.2286717815625,52.46974411167422 L 621.3732272153347,59.31448822334849 L 609.5177826491071,52.46974411167423 L 609.5177826491071,38.78025588832577 L 621.3732272153347,31.93551177665151 Z"
       id="path94"
       style="vector-effect:non-scaling-stroke;-inkscape-stroke:hairline;stroke-width:0.26458333;stroke-dasharray:none" />
    <path
       d="M 618.0732272153348,26.21974411167423 L 606.2177826491071,33.06448822334846 L 594.3623380828794,26.21974411167423 L 594.3623380828794,24.0 L 618.0732272153348,24.0 L 618.0732272153348,26.21974411167423 Z"
       id="path95"
       style="vector-effect:non-scaling-stroke;-inkscape-stroke:hairline;stroke-width:0.26458333;stroke-dasharray:none" />
    <path
       d="M 663.5395609140179,143.7802558883258 L 663.5395609140179,144.0 L 639.8286717815624,144.0 L 639.8286717815624,143.78025588832577 L 651.6841163477901,136.9355117766515 L 663.5395609140179,143.7802558883258 Z"
       id="path96"
       style="vector-effect:non-scaling-stroke;-inkscape-stroke:hairline;stroke-width:0.26458333;stroke-dasharray:none" />
    <path
       d="M 636.5286717815625,110.68551177665151 L 648.3841163477902,117.53025588832578 L 648.3841163477902,131.21974411167423 L 636.5286717815625,138.0644882233485 L 624.6732272153348,131.21974411167423 L 624.6732272153348,117.53025588832577 L 636.5286717815625,110.68551177665151 Z"
       id="path97"
       style="vector-effect:non-scaling-stroke;-inkscape-stroke:hairline;stroke-width:0.26458333;stroke-dasharray:none" />
    <path
       d="M 651.6841163477901,84.43551177665151 L 663.5395609140179,91.2802558883258 L 663.5395609140179,104.96974411167422 L 651.6841163477901,111.81448822334849 L 639.8286717815624,104.96974411167423 L 639.8286717815624,91.28025588832577 L 651.6841163477901,84.43551177665151 Z"
       id="path98"
       style="vector-effect:non-scaling-stroke;-inkscape-stroke:hairline;stroke-width:0.26458333;stroke-dasharray:none" />
    <path
       d="M 636.5286717815625,58.18551177665151 L 648.3841163477902,65.03025588832578 L 648.3841163477902,78.71974411167423 L 636.5286717815625,85.56448822334849 L 624.6732272153348,78.71974411167423 L 624.6732272153348,65.03025588832577 L 636.5286717815625,58.18551177665151 Z"
       id="path99"
       style="vector-effect:non-scaling-stroke;-inkscape-stroke:hairline;stroke-width:0.26458333;stroke-dasharray:none" />
    <path
       d="M 651.6841163477901,31.93551177665151 L 663.5395609140179,38.7802558883258 L 663.5395609140179,52.46974411167422 L 651.6841163477901,59.31448822334849 L 639.8286717815624,52.46974411167423 L 639.8286717815624,38.78025588832577 L 651.6841163477901,31.93551177665151 Z"
       id="path100"
       style="vector-effect:non-scaling-stroke;-inkscape-stroke:hairline;stroke-width:0.26458333;stroke-dasharray:none" />
    <path
       d="M 648.3841163477902,26.21974411167423 L 636.5286717815625,33.06448822334846 L 624.6732272153348,26.21974411167423 L 624.6732272153348,24.0 L 648.3841163477902,24.0 L 648.3841163477902,26.21974411167423 Z"
       id="path101"
       style="vector-effect:non-scaling-stroke;-inkscape-stroke:hairline;stroke-width:0.26458333;stroke-dasharray:none" />
    <path
       d="M 693.8504500464733,143.7802558883258 L 693.8504500464733,144.0 L 670.1395609140178,144.0 L 670.1395609140178,143.78025588832577 L 681.9950054802455,136.9355117766515 L 693.8504500464733,143.7802558883258 Z"
       id="path102"
       style="vector-effect:non-scaling-stroke;-inkscape-stroke:hairline;stroke-width:0.26458333;stroke-dasharray:none" />
    <path
       d="M 666.8395609140179,110.68551177665151 L 678.6950054802455,117.53025588832578 L 678.6950054802455,131.21974411167423 L 666.8395609140179,138.0644882233485 L 654.9841163477902,131.21974411167423 L 654.9841163477902,117.53025588832577 L 666.8395609140179,110.68551177665151 Z"
       id="path103"
       style="vector-effect:non-scaling-stroke;-inkscape-stroke:hairline;stroke-width:0.26458333;stroke-dasharray:none" />
    <path
       d="M 681.9950054802455,84.43551177665151 L 693.8504500464733,91.2802558883258 L 693.8504500464733,104.96974411167422 L 681.9950054802455,111.81448822334849 L 670.1395609140178,104.96974411167423 L 670.1395609140178,91.28025588832577 L 681.9950054802455,84.43551177665151 Z"
       id="path104"
       style="vector-effect:non-scaling-stroke;-inkscape-stroke:hairline;stroke-width:0.26458333;stroke-dasharray:none" />
    <path
       d="M 666.8395609140179,58.18551177665151 L 678.6950054802455,65.03025588832578 L 678.6950054802455,78.71974411167423 L 666.8395609140179,85.56448822334849 L 654.9841163477902,78.71974411167423 L 654.9841163477902,65.03025588832577 L 666.8395609140179,58.18551177665151 Z"
       id="path105"
       style="vector-effect:non-scaling-stroke;-inkscape-stroke:hairline;stroke-width:0.26458333;stroke-dasharray:none" />
    <path
       d="M 681.9950054802455,31.93551177665151 L 693.8504500464733,38.7802558883258 L 693.8504500464733,52.46974411167422 L 681.9950054802455,59.31448822334849 L 670.1395609140178,52.46974411167423 L 670.1395609140178,38.78025588832577 L 681.9950054802455,31.93551177665151 Z"
       id="path106"
       style="vector-effect:non-scaling-stroke;-inkscape-stroke:hairline;stroke-width:0.26458333;stroke-dasharray:none" />
    <path
       d="M 678.6950054802455,26.21974411167423 L 666.8395609140179,33.06448822334846 L 654.9841163477902,26.21974411167423 L 654.9841163477902,24.0 L 678.6950054802455,24.0 L 678.6950054802455,26.21974411167423 Z"
       id="path107"
       style="vector-effect:non-scaling-stroke;-inkscape-stroke:hairline;stroke-width:0.26458333;stroke-dasharray:none" />
    <path
       d="M 724.1613391789285,143.7802558883258 L 724.1613391789285,144.0 L 700.4504500464731,144.0 L 700.4504500464731,143.78025588832577 L 712.3058946127007,136.9355117766515 L 724.1613391789285,143.7802558883258 Z"
       id="path108"
       style="vector-effect:non-scaling-stroke;-inkscape-stroke:hairline;stroke-width:0.26458333;stroke-dasharray:none" />
    <path
       d="M 697.1504500464731,110.68551177665151 L 709.0058946127008,117.53025588832578 L 709.0058946127008,131.21974411167423 L 697.1504500464731,138.0644882233485 L 685.2950054802454,131.21974411167423 L 685.2950054802454,117.53025588832577 L 697.1504500464731,110.68551177665151 Z"
       id="path109"
       style="vector-effect:non-scaling-stroke;-inkscape-stroke:hairline;stroke-width:0.26458333;stroke-dasharray:none" />
    <path
       d="M 712.3058946127007,84.43551177665151 L 724.1613391789285,91.2802558883258 L 724.1613391789285,104.96974411167422 L 712.3058946127007,111.81448822334849 L 700.4504500464731,104.96974411167423 L 700.4504500464731,91.28025588832577 L 712.3058946127007,84.43551177665151 Z"
       id="path110"
       style="vector-effect:non-scaling-stroke;-inkscape-stroke:hairline;stroke-width:0.26458333;stroke-dasharray:none" />
    <path
       d="M 697.1504500464731,58.18551177665151 L 709.0058946127008,65.03025588832578 L 709.0058946127008,78.71974411167423 L 697.1504500464731,85.56448822334849 L 685.2950054802454,78.71974411167423 L 685.2950054802454,65.03025588832577 L 697.1504500464731,58.18551177665151 Z"
       id="path111"
       style="vector-effect:non-scaling-stroke;-inkscape-stroke:hairline;stroke-width:0.26458333;stroke-dasharray:none" />
    <path
       d="M 712.3058946127007,31.93551177665151 L 724.1613391789285,38.7802558883258 L 724.1613391789285,52.46974411167422 L 712.3058946127007,59.31448822334849 L 700.4504500464731,52.46974411167423 L 700.4504500464731,38.78025588832577 L 712.3058946127007,31.93551177665151 Z"
       id="path112"
       style="vector-effect:non-scaling-stroke;-inkscape-stroke:hairline;stroke-width:0.26458333;stroke-dasharray:none" />
    <path
       d="M 709.0058946127008,26.21974411167423 L 697.1504500464731,33.06448822334846 L 685.2950054802454,26.21974411167423 L 685.2950054802454,24.0 L 709.0058946127008,24.0 L 709.0058946127008,26.21974411167423 Z"
       id="path113"
       style="vector-effect:non-scaling-stroke;-inkscape-stroke:hairline;stroke-width:0.26458333;stroke-dasharray:none" />
    <path
       d="M 754.4722283113839,143.7802558883258 L 754.4722283113839,144.0 L 730.7613391789284,144.0 L 730.7613391789284,143.78025588832577 L 742.6167837451561,136.9355117766515 L 754.4722283113839,143.7802558883258 Z"
       id="path114"
       style="vector-effect:non-scaling-stroke;-inkscape-stroke:hairline;stroke-width:0.26458333;stroke-dasharray:none" />
    <path
       d="M 727.4613391789285,110.68551177665151 L 739.3167837451562,117.53025588832578 L 739.3167837451562,131.21974411167423 L 727.4613391789285,138.0644882233485 L 715.6058946127008,131.21974411167423 L 715.6058946127008,117.53025588832577 L 727.4613391789285,110.68551177665151 Z"
       id="path115"
       style="vector-effect:non-scaling-stroke;-inkscape-stroke:hairline;stroke-width:0.26458333;stroke-dasharray:none" />
    <path
       d="M 742.6167837451561,84.43551177665151 L 754.4722283113839,91.2802558883258 L 754.4722283113839,104.96974411167422 L 742.6167837451561,111.81448822334849 L 730.7613391789284,104.96974411167423 L 730.7613391789284,91.28025588832577 L 742.6167837451561,84.43551177665151 Z"
       id="path116"
       style="vector-effect:non-scaling-stroke;-inkscape-stroke:hairline;stroke-width:0.26458333;stroke-dasharray:none" />
    <path
       d="M 727.4613391789285,58.18551177665151 L 739.3167837451562,65.03025588832578 L 739.3167837451562,78.71974411167423 L 727.4613391789285,85.56448822334849 L 715.6058946127008,78.71974411167423 L 715.6058946127008,65.03025588832577 L 727.4613391789285,58.18551177665151 Z"
       id="path117"
       style="vector-effect:non-scaling-stroke;-inkscape-stroke:hairline;stroke-width:0.26458333;stroke-dasharray:none" />
    <path
       d="M 742.6167837451561,31.93551177665151 L 754.4722283113839,38.7802558883258 L 754.4722283113839,52.46974411167422 L 742.6167837451561,59.31448822334849 L 730.7613391789284,52.46974411167423 L 730.7613391789284,38.78025588832577 L 742.6167837451561,31.93551177665151 Z"
       id="path118"
       style="vector-effect:non-scaling-stroke;-inkscape-stroke:hairline;stroke-width:0.26458333;stroke-dasharray:none" />
    <path
       d="M 739.3167837451562,26.21974411167423 L 727.4613391789285,33.06448822334846 L 715.6058946127008,26.21974411167423 L 715.6058946127008,24.0 L 739.3167837451562,24.0 L 739.3167837451562,26.21974411167423 Z"
       id="path119"
       style="vector-effect:non-scaling-stroke;-inkscape-stroke:hairline;stroke-width:0.26458333;stroke-dasharray:none" />
    <path
       d="M 784.7831174438393,143.7802558883258 L 784.7831174438393,144.0 L 761.0722283113838,144.0 L 761.0722283113838,143.78025588832577 L 772.9276728776115,136.9355117766515 L 784.7831174438393,143.7802558883258 Z"
       id="path120"
       style="vector-effect:non-scaling-stroke;-inkscape-stroke:hairline;stroke-width:0.26458333;stroke-dasharray:none" />
    <path
       d="M 757.7722283113839,110.68551177665151 L 769.6276728776115,117.53025588832578 L 769.6276728776115,131.21974411167423 L 757.7722283113839,138.0644882233485 L 745.9167837451562,131.21974411167423 L 745.9167837451562,117.53025588832577 L 757.7722283113839,110.68551177665151 Z"
       id="path121"
       style="vector-effect:non-scaling-stroke;-inkscape-stroke:hairline;stroke-width:0.26458333;stroke-dasharray:none" />
    <path
       d="M 772.9276728776115,84.43551177665151 L 784.7831174438393,91.2802558883258 L 784.7831174438393,104.96974411167422 L 772.9276728776115,111.81448822334849 L 761.0722283113838,104.96974411167423 L 761.0722283113838,91.28025588832577 L 772.9276728776115,84.43551177665151 Z"
       id="path122"
       style="vector-effect:non-scaling-stroke;-inkscape-stroke:hairline;stroke-width:0.26458333;stroke-dasharray:none" />
    <path
       d="M 757.7722283113839,58.18551177665151 L 769.6276728776115,65.03025588832578 L 769.6276728776115,78.71974411167423 L 757.7722283113839,85.56448822334849 L 745.9167837451562,78.71974411167423 L 745.9167837451562,65.03025588832577 L 757.7722283113839,58.18551177665151 Z"
       id="path123"
       style="vector-effect:non-scaling-stroke;-inkscape-stroke:hairline;stroke-width:0.26458333;stroke-dasharray:none" />
    <path
       d="M 772.9276728776115,31.93551177665151 L 784.7831174438393,38.7802558883258 L 784.7831174438393,52.46974411167422 L 772.9276728776115,59.31448822334849 L 761.0722283113838,52.46974411167423 L 761.0722283113838,38.78025588832577 L 772.9276728776115,31.93551177665151 Z"
       id="path124"
       style="vector-effect:non-scaling-stroke;-inkscape-stroke:hairline;stroke-width:0.26458333;stroke-dasharray:none" />
    <path
       d="M 769.6276728776115,26.21974411167423 L 757.7722283113839,33.06448822334846 L 745.9167837451562,26.21974411167423 L 745.9167837451562,24.0 L 769.6276728776115,24.0 L 769.6276728776115,26.21974411167423 Z"
       id="path125"
       style="vector-effect:non-scaling-stroke;-inkscape-stroke:hairline;stroke-width:0.26458333;stroke-dasharray:none" />
    <path
       d="M 815.0940065762946,143.7802558883258 L 815.0940065762946,144.0 L 791.3831174438392,144.0 L 791.3831174438392,143.78025588832577 L 803.2385620100669,136.9355117766515 L 815.0940065762946,143.7802558883258 Z"
       id="path126"
       style="vector-effect:non-scaling-stroke;-inkscape-stroke:hairline;stroke-width:0.26458333;stroke-dasharray:none" />
    <path
       d="M 788.0831174438392,110.68551177665151 L 799.9385620100669,117.53025588832578 L 799.9385620100669,131.21974411167423 L 788.0831174438392,138.0644882233485 L 776.2276728776116,131.21974411167423 L 776.2276728776116,117.53025588832577 L 788.0831174438392,110.68551177665151 Z"
       id="path127"
       style="vector-effect:non-scaling-stroke;-inkscape-stroke:hairline;stroke-width:0.26458333;stroke-dasharray:none" />
    <path
       d="M 803.2385620100669,84.43551177665151 L 815.0940065762946,91.2802558883258 L 815.0940065762946,104.96974411167422 L 803.2385620100669,111.81448822334849 L 791.3831174438392,104.96974411167423 L 791.3831174438392,91.28025588832577 L 803.2385620100669,84.43551177665151 Z"
       id="path128"
       style="vector-effect:non-scaling-stroke;-inkscape-stroke:hairline;stroke-width:0.26458333;stroke-dasharray:none" />
    <path
       d="M 788.0831174438392,58.18551177665151 L 799.9385620100669,65.03025588832578 L 799.9385620100669,78.71974411167423 L 788.0831174438392,85.56448822334849 L 776.2276728776116,78.71974411167423 L 776.2276728776116,65.03025588832577 L 788.0831174438392,58.18551177665151 Z"
       id="path129"
       style="vector-effect:non-scaling-stroke;-inkscape-stroke:hairline;stroke-width:0.26458333;stroke-dasharray:none" />
    <path
       d="M 803.2385620100669,31.93551177665151 L 815.0940065762946,38.7802558883258 L 815.0940065762946,52.46974411167422 L 803.2385620100669,59.31448822334849 L 791.3831174438392,52.46974411167423 L 791.3831174438392,38.78025588832577 L 803.2385620100669,31.93551177665151 Z"
       id="path130"
       style="vector-effect:non-scaling-stroke;-inkscape-stroke:hairline;stroke-width:0.26458333;stroke-dasharray:none" />
    <path
       d="M 799.9385620100669,26.21974411167423 L 788.0831174438392,33.06448822334846 L 776.2276728776116,26.21974411167423 L 776.2276728776116,24.0 L 799.9385620100669,24.0 L 799.9385620100669,26.21974411167423 Z"
       id="path131"
       style="vector-effect:non-scaling-stroke;-inkscape-stroke:hairline;stroke-width:0.26458333;stroke-dasharray:none" />
    <path
       d="M 845.40489570875,143.7802558883258 L 845.40489570875,144.0 L 821.6940065762946,144.0 L 821.6940065762946,143.78025588832577 L 833.5494511425222,136.9355117766515 L 845.40489570875,143.7802558883258 Z"
       id="path132"
       style="vector-effect:non-scaling-stroke;-inkscape-stroke:hairline;stroke-width:0.26458333;stroke-dasharray:none" />
    <path
       d="M 818.3940065762946,110.68551177665151 L 830.2494511425223,117.53025588832578 L 830.2494511425223,131.21974411167423 L 818.3940065762946,138.0644882233485 L 806.5385620100669,131.21974411167423 L 806.5385620100669,117.53025588832577 L 818.3940065762946,110.68551177665151 Z"
       id="path133"
       style="vector-effect:non-scaling-stroke;-inkscape-stroke:hairline;stroke-width:0.26458333;stroke-dasharray:none" />
    <path
       d="M 833.5494511425222,84.43551177665151 L 845.40489570875,91.2802558883258 L 845.40489570875,104.96974411167422 L 833.5494511425222,111.81448822334849 L 821.6940065762946,104.96974411167423 L 821.6940065762946,91.28025588832577 L 833.5494511425222,84.43551177665151 Z"
       id="path134"
       style="vector-effect:non-scaling-stroke;-inkscape-stroke:hairline;stroke-width:0.26458333;stroke-dasharray:none" />
    <path
       d="M 818.3940065762946,58.18551177665151 L 830.2494511425223,65.03025588832578 L 830.2494511425223,78.71974411167423 L 818.3940065762946,85.56448822334849 L 806.5385620100669,78.71974411167423 L 806.5385620100669,65.03025588832577 L 818.3940065762946,58.18551177665151 Z"
       id="path135"
       style="vector-effect:non-scaling-stroke;-inkscape-stroke:hairline;stroke-width:0.26458333;stroke-dasharray:none" />
    <path
       d="M 833.5494511425222,31.93551177665151 L 845.40489570875,38.7802558883258 L 845.40489570875,52.46974411167422 L 833.5494511425222,59.31448822334849 L 821.6940065762946,52.46974411167423 L 821.6940065762946,38.78025588832577 L 833.5494511425222,31.93551177665151 Z"
       id="path136"
       style="vector-effect:non-scaling-stroke;-inkscape-stroke:hairline;stroke-width:0.26458333;stroke-dasharray:none" />
    <path
       d="M 830.2494511425223,26.21974411167423 L 818.3940065762946,33.06448822334846 L 806.5385620100669,26.21974411167423 L 806.5385620100669,24.0 L 830.2494511425223,24.0 L 830.2494511425223,26.21974411167423 Z"
       id="path137"
       style="vector-effect:non-scaling-stroke;-inkscape-stroke:hairline;stroke-width:0.26458333;stroke-dasharray:none" />
    <path
       d="M 875.7157848412054,143.7802558883258 L 875.7157848412054,144.0 L 852.0048957087499,144.0 L 852.0048957087499,143.78025588832577 L 863.8603402749776,136.9355117766515 L 875.7157848412054,143.7802558883258 Z"
       id="path138"
       style="vector-effect:non-scaling-stroke;-inkscape-stroke:hairline;stroke-width:0.26458333;stroke-dasharray:none" />
    <path
       d="M 848.70489570875,110.68551177665151 L 860.5603402749776,117.53025588832578 L 860.5603402749776,131.21974411167423 L 848.70489570875,138.0644882233485 L 836.8494511425223,131.21974411167423 L 836.8494511425223,117.53025588832577 L 848.70489570875,110.68551177665151 Z"
       id="path139"
       style="vector-effect:non-scaling-stroke;-inkscape-stroke:hairline;stroke-width:0.26458333;stroke-dasharray:none" />
    <path
       d="M 863.8603402749776,84.43551177665151 L 875.7157848412054,91.2802558883258 L 875.7157848412054,104.96974411167422 L 863.8603402749776,111.81448822334849 L 852.0048957087499,104.96974411167423 L 852.0048957087499,91.28025588832577 L 863.8603402749776,84.43551177665151 Z"
       id="path140"
       style="vector-effect:non-scaling-stroke;-inkscape-stroke:hairline;stroke-width:0.26458333;stroke-dasharray:none" />
    <path
       d="M 848.70489570875,58.18551177665151 L 860.5603402749776,65.03025588832578 L 860.5603402749776,78.71974411167423 L 848.70489570875,85.56448822334849 L 836.8494511425223,78.71974411167423 L 836.8494511425223,65.03025588832577 L 848.70489570875,58.18551177665151 Z"
       id="path141"
       style="vector-effect:non-scaling-stroke;-inkscape-stroke:hairline;stroke-width:0.26458333;stroke-dasharray:none" />
    <path
       d="M 863.8603402749776,31.93551177665151 L 875.7157848412054,38.7802558883258 L 875.7157848412054,52.46974411167422 L 863.8603402749776,59.31448822334849 L 852.0048957087499,52.46974411167423 L 852.0048957087499,38.78025588832577 L 863.8603402749776,31.93551177665151 Z"
       id="path142"
       style="vector-effect:non-scaling-stroke;-inkscape-stroke:hairline;stroke-width:0.26458333;stroke-dasharray:none" />
    <path
       d="M 860.5603402749776,26.21974411167423 L 848.70489570875,33.06448822334846 L 836.8494511425223,26.21974411167423 L 836.8494511425223,24.0 L 860.5603402749776,24.0 L 860.5603402749776,26.21974411167423 Z"
       id="path143"
       style="vector-effect:non-scaling-stroke;-inkscape-stroke:hairline;stroke-width:0.26458333;stroke-dasharray:none" />
    <path
       d="M 906.0266739736606,143.7802558883258 L 906.0266739736606,144.0 L 882.3157848412052,144.0 L 882.3157848412052,143.78025588832577 L 894.1712294074329,136.9355117766515 L 906.0266739736606,143.7802558883258 Z"
       id="path144"
       style="vector-effect:non-scaling-stroke;-inkscape-stroke:hairline;stroke-width:0.26458333;stroke-dasharray:none" />
    <path
       d="M 879.0157848412052,110.68551177665151 L 890.8712294074329,117.53025588832578 L 890.8712294074329,131.21974411167423 L 879.0157848412052,138.0644882233485 L 867.1603402749776,131.21974411167423 L 867.1603402749776,117.53025588832577 L 879.0157848412052,110.68551177665151 Z"
       id="path145"
       style="vector-effect:non-scaling-stroke;-inkscape-stroke:hairline;stroke-width:0.26458333;stroke-dasharray:none" />
    <path
       d="M 894.1712294074329,84.43551177665151 L 906.0266739736606,91.2802558883258 L 906.0266739736606,104.96974411167422 L 894.1712294074329,111.81448822334849 L 882.3157848412052,104.96974411167423 L 882.3157848412052,91.28025588832577 L 894.1712294074329,84.43551177665151 Z"
       id="path146"
       style="vector-effect:non-scaling-stroke;-inkscape-stroke:hairline;stroke-width:0.26458333;stroke-dasharray:none" />
    <path
       d="M 879.0157848412052,58.18551177665151 L 890.8712294074329,65.03025588832578 L 890.8712294074329,78.71974411167423 L 879.0157848412052,85.56448822334849 L 867.1603402749776,78.71974411167423 L 867.1603402749776,65.03025588832577 L 879.0157848412052,58.18551177665151 Z"
       id="path147"
       style="vector-effect:non-scaling-stroke;-inkscape-stroke:hairline;stroke-width:0.26458333;stroke-dasharray:none" />
    <path
       d="M 894.1712294074329,31.93551177665151 L 906.0266739736606,38.7802558883258 L 906.0266739736606,52.46974411167422 L 894.1712294074329,59.31448822334849 L 882.3157848412052,52.46974411167423 L 882.3157848412052,38.78025588832577 L 894.1712294074329,31.93551177665151 Z"
       id="path148"
       style="vector-effect:non-scaling-stroke;-inkscape-stroke:hairline;stroke-width:0.26458333;stroke-dasharray:none" />
    <path
       d="M 890.8712294074329,26.21974411167423 L 879.0157848412052,33.06448822334846 L 867.1603402749776,26.21974411167423 L 867.1603402749776,24.0 L 890.8712294074329,24.0 L 890.8712294074329,26.21974411167423 Z"
       id="path149"
       style="vector-effect:non-scaling-stroke;-inkscape-stroke:hairline;stroke-width:0.26458333;stroke-dasharray:none" />
    <path
       d="M 936.337563106116,143.7802558883258 L 936.337563106116,144.0 L 912.6266739736606,144.0 L 912.6266739736606,143.78025588832577 L 924.4821185398882,136.9355117766515 L 936.337563106116,143.7802558883258 Z"
       id="path150"
       style="vector-effect:non-scaling-stroke;-inkscape-stroke:hairline;stroke-width:0.26458333;stroke-dasharray:none" />
    <path
       d="M 909.3266739736606,110.68551177665151 L 921.1821185398883,117.53025588832578 L 921.1821185398883,131.21974411167423 L 909.3266739736606,138.0644882233485 L 897.4712294074329,131.21974411167423 L 897.4712294074329,117.53025588832577 L 909.3266739736606,110.68551177665151 Z"
       id="path151"
       style="vector-effect:non-scaling-stroke;-inkscape-stroke:hairline;stroke-width:0.26458333;stroke-dasharray:none" />
    <path
       d="M 924.4821185398882,84.43551177665151 L 936.337563106116,91.2802558883258 L 936.337563106116,104.96974411167422 L 924.4821185398882,111.81448822334849 L 912.6266739736606,104.96974411167423 L 912.6266739736606,91.28025588832577 L 924.4821185398882,84.43551177665151 Z"
       id="path152"
       style="vector-effect:non-scaling-stroke;-inkscape-stroke:hairline;stroke-width:0.26458333;stroke-dasharray:none" />
    <path
       d="M 909.3266739736606,58.18551177665151 L 921.1821185398883,65.03025588832578 L 921.1821185398883,78.71974411167423 L 909.3266739736606,85.56448822334849 L 897.4712294074329,78.71974411167423 L 897.4712294074329,65.03025588832577 L 909.3266739736606,58.18551177665151 Z"
       id="path153"
       style="vector-effect:non-scaling-stroke;-inkscape-stroke:hairline;stroke-width:0.26458333;stroke-dasharray:none" />
    <path
       d="M 924.4821185398882,31.93551177665151 L 936.337563106116,38.7802558883258 L 936.337563106116,52.46974411167422 L 924.4821185398882,59.31448822334849 L 912.6266739736606,52.46974411167423 L 912.6266739736606,38.78025588832577 L 924.4821185398882,31.93551177665151 Z"
       id="path154"
       style="vector-effect:non-scaling-stroke;-inkscape-stroke:hairline;stroke-width:0.26458333;stroke-dasharray:none" />
    <path
       d="M 921.1821185398883,26.21974411167423 L 909.3266739736606,33.06448822334846 L 897.4712294074329,26.21974411167423 L 897.4712294074329,24.0 L 921.1821185398883,24.0 L 921.1821185398883,26.21974411167423 Z"
       id="path155"
       style="vector-effect:non-scaling-stroke;-inkscape-stroke:hairline;stroke-width:0.26458333;stroke-dasharray:none" />
    <path
       d="M 966.6484522385714,143.7802558883258 L 966.6484522385714,144.0 L 942.9375631061159,144.0 L 942.9375631061159,143.78025588832577 L 954.7930076723436,136.9355117766515 L 966.6484522385714,143.7802558883258 Z"
       id="path156"
       style="vector-effect:non-scaling-stroke;-inkscape-stroke:hairline;stroke-width:0.26458333;stroke-dasharray:none" />
    <path
       d="M 939.637563106116,110.68551177665151 L 951.4930076723437,117.53025588832578 L 951.4930076723437,131.21974411167423 L 939.637563106116,138.0644882233485 L 927.7821185398883,131.21974411167423 L 927.7821185398883,117.53025588832577 L 939.637563106116,110.68551177665151 Z"
       id="path157"
       style="vector-effect:non-scaling-stroke;-inkscape-stroke:hairline;stroke-width:0.26458333;stroke-dasharray:none" />
    <path
       d="M 954.7930076723436,84.43551177665151 L 966.6484522385714,91.2802558883258 L 966.6484522385714,104.96974411167422 L 954.7930076723436,111.81448822334849 L 942.9375631061159,104.96974411167423 L 942.9375631061159,91.28025588832577 L 954.7930076723436,84.43551177665151 Z"
       id="path158"
       style="vector-effect:non-scaling-stroke;-inkscape-stroke:hairline;stroke-width:0.26458333;stroke-dasharray:none" />
    <path
       d="M 939.637563106116,58.18551177665151 L 951.4930076723437,65.03025588832578 L 951.4930076723437,78.71974411167423 L 939.637563106116,85.56448822334849 L 927.7821185398883,78.71974411167423 L 927.7821185398883,65.03025588832577 L 939.637563106116,58.18551177665151 Z"
       id="path159"
       style="vector-effect:non-scaling-stroke;-inkscape-stroke:hairline;stroke-width:0.26458333;stroke-dasharray:none" />
    <path
       d="M 954.7930076723436,31.93551177665151 L 966.6484522385714,38.7802558883258 L 966.6484522385714,52.46974411167422 L 954.7930076723436,59.31448822334849 L 942.9375631061159,52.46974411167423 L 942.9375631061159,38.78025588832577 L 954.7930076723436,31.93551177665151 Z"
       id="path160"
       style="vector-effect:non-scaling-stroke;-inkscape-stroke:hairline;stroke-width:0.26458333;stroke-dasharray:none" />
    <path
       d="M 951.4930076723437,26.21974411167423 L 939.637563106116,33.06448822334846 L 927.7821185398883,26.21974411167423 L 927.7821185398883,24.0 L 951.4930076723437,24.0 L 951.4930076723437,26.21974411167423 Z"
       id="path161"
       style="vector-effect:non-scaling-stroke;-inkscape-stroke:hairline;stroke-width:0.26458333;stroke-dasharray:none" />
    <path
       d="M 996.9593413710268,143.7802558883258 L 996.9593413710268,144.0 L 973.2484522385713,144.0 L 973.2484522385713,143.78025588832577 L 985.103896804799,136.9355117766515 L 996.9593413710268,143.7802558883258 Z"
       id="path162"
       style="vector-effect:non-scaling-stroke;-inkscape-stroke:hairline;stroke-width:0.26458333;stroke-dasharray:none" />
    <path
       d="M 969.9484522385713,110.68551177665151 L 981.803896804799,117.53025588832578 L 981.803896804799,131.21974411167423 L 969.9484522385713,138.0644882233485 L 958.0930076723437,131.21974411167423 L 958.0930076723437,117.53025588832577 L 969.9484522385713,110.68551177665151 Z"
       id="path163"
       style="vector-effect:non-scaling-stroke;-inkscape-stroke:hairline;stroke-width:0.26458333;stroke-dasharray:none" />
    <path
       d="M 985.103896804799,84.43551177665151 L 996.9593413710268,91.2802558883258 L 996.9593413710268,104.96974411167422 L 985.103896804799,111.81448822334849 L 973.2484522385713,104.96974411167423 L 973.2484522385713,91.28025588832577 L 985.103896804799,84.43551177665151 Z"
       id="path164"
       style="vector-effect:non-scaling-stroke;-inkscape-stroke:hairline;stroke-width:0.26458333;stroke-dasharray:none" />
    <path
       d="M 969.9484522385713,58.18551177665151 L 981.803896804799,65.03025588832578 L 981.803896804799,78.71974411167423 L 969.9484522385713,85.56448822334849 L 958.0930076723437,78.71974411167423 L 958.0930076723437,65.03025588832577 L 969.9484522385713,58.18551177665151 Z"
       id="path165"
       style="vector-effect:non-scaling-stroke;-inkscape-stroke:hairline;stroke-width:0.26458333;stroke-dasharray:none" />
    <path
       d="M 985.103896804799,31.93551177665151 L 996.9593413710268,38.7802558883258 L 996.9593413710268,52.46974411167422 L 985.103896804799,59.31448822334849 L 973.2484522385713,52.46974411167423 L 973.2484522385713,38.78025588832577 L 985.103896804799,31.93551177665151 Z"
       id="path166"
       style="vector-effect:non-scaling-stroke;-inkscape-stroke:hairline;stroke-width:0.26458333;stroke-dasharray:none" />
    <path
       d="M 981.803896804799,26.21974411167423 L 969.9484522385713,33.06448822334846 L 958.0930076723437,26.21974411167423 L 958.0930076723437,24.0 L 981.803896804799,24.0 L 981.803896804799,26.21974411167423 Z"
       id="path167"
       style="vector-effect:non-scaling-stroke;-inkscape-stroke:hairline;stroke-width:0.26458333;stroke-dasharray:none" />
    <path
       d="M 1027.270230503482,143.78025588832585 L 1027.270230503482,144.0 L 1003.5593413710267,144.0 L 1003.5593413710267,143.78025588832577 L 1015.4147859372544,136.93551177665154 L 1027.270230503482,143.78025588832585 Z"
       id="path168"
       style="vector-effect:non-scaling-stroke;-inkscape-stroke:hairline;stroke-width:0.26458333;stroke-dasharray:none" />
    <path
       d="M 1000.2593413710267,110.68551177665151 L 1012.1147859372544,117.53025588832578 L 1012.1147859372544,131.21974411167423 L 1000.2593413710267,138.0644882233485 L 988.403896804799,131.21974411167423 L 988.403896804799,117.53025588832577 L 1000.2593413710267,110.68551177665151 Z"
       id="path169"
       style="vector-effect:non-scaling-stroke;-inkscape-stroke:hairline;stroke-width:0.26458333;stroke-dasharray:none" />
    <path
       d="M 1015.4147859372544,84.43551177665151 L 1027.270230503482,91.28025588832584 L 1027.270230503482,104.96974411167417 L 1015.4147859372544,111.81448822334849 L 1003.5593413710267,104.96974411167423 L 1003.5593413710267,91.28025588832577 L 1015.4147859372544,84.43551177665151 Z"
       id="path170"
       style="vector-effect:non-scaling-stroke;-inkscape-stroke:hairline;stroke-width:0.26458333;stroke-dasharray:none" />
    <path
       d="M 1000.2593413710267,58.18551177665151 L 1012.1147859372544,65.03025588832578 L 1012.1147859372544,78.71974411167423 L 1000.2593413710267,85.56448822334849 L 988.403896804799,78.71974411167423 L 988.403896804799,65.03025588832577 L 1000.2593413710267,58.18551177665151 Z"
       id="path171"
       style="vector-effect:non-scaling-stroke;-inkscape-stroke:hairline;stroke-width:0.26458333;stroke-dasharray:none" />
    <path
       d="M 1015.4147859372544,31.935511776651538 L 1027.270230503482,38.780255888325826 L 1027.270230503482,52.469744111674174 L 1015.4147859372544,59.31448822334849 L 1003.5593413710267,52.46974411167423 L 1003.5593413710267,38.78025588832577 L 1015.4147859372544,31.935511776651538 Z"
       id="path172"
       style="vector-effect:non-scaling-stroke;-inkscape-stroke:hairline;stroke-width:0.26458333;stroke-dasharray:none" />
    <path
       d="M 1012.1147859372544,26.21974411167423 L 1000.2593413710267,33.06448822334846 L 988.403896804799,26.21974411167423 L 988.403896804799,24.0 L 1012.1147859372544,24.0 L 1012.1147859372544,26.21974411167423 Z"
       id="path173"
       style="vector-effect:non-scaling-stroke;-inkscape-stroke:hairline;stroke-width:0.26458333;stroke-dasharray:none" />
    <path
       d="M 1036.1400603659931,113.90125454711279 L 1036.1400603659931,134.84874545288721 L 1030.570230503482,138.0644882233484 L 1018.7147859372543,131.2197441116742 L 1018.7147859372543,117.53025588832578 L 1030.570230503482,110.68551177665158 L 1036.1400603659931,113.90125454711279 Z"
       id="path174"
       style="vector-effect:non-scaling-stroke;-inkscape-stroke:hairline;stroke-width:0.26458333;stroke-dasharray:none" />
    <path
       d="M 1033.870230503482,104.96974411167415 L 1033.870230503482,91.28025588832585 L 1036.1400603659931,89.96976900619038 L 1036.1400603659931,106.28023099380962 L 1033.870230503482,104.96974411167415 Z"
       id="path175"
       style="vector-effect:non-scaling-stroke;-inkscape-stroke:hairline;stroke-width:0.26458333;stroke-dasharray:none" />
    <path
       d="M 1036.1400603659931,61.4012545471128 L 1036.1400603659931,82.3487454528872 L 1030.570230503482,85.56448822334842 L 1018.7147859372543,78.71974411167423 L 1018.7147859372543,65.03025588832577 L 1030.570230503482,58.18551177665158 L 1036.1400603659931,61.4012545471128 Z"
       id="path176"
       style="vector-effect:non-scaling-stroke;-inkscape-stroke:hairline;stroke-width:0.26458333;stroke-dasharray:none" />
    <path
       d="M 1033.870230503482,52.469744111674146 L 1033.870230503482,38.780255888325854 L 1036.1400603659931,37.469769006190376 L 1036.1400603659931,53.780230993809624 L 1033.870230503482,52.469744111674146 Z"
       id="path177"
       style="vector-effect:non-scaling-stroke;-inkscape-stroke:hairline;stroke-width:0.26458333;stroke-dasharray:none" />
    <path
       d="M 1030.570230503482,33.064488223348405 L 1018.7147859372543,26.219744111674203 L 1018.7147859372543,24.0 L 1036.1400603659931,24.0 L 1036.1400603659931,29.848745452887187 L 1030.570230503482,33.064488223348405 Z"
       id="path178"
       style="vector-effect:non-scaling-stroke;-inkscape-stroke:hairline;stroke-width:0.26458333;stroke-dasharray:none" />
    <path
       d="M 146.14006036599312,170.0 L 1051.1400603659931,170.0 L 1051.1400603659931,0.0 L 146.14006036599312,0.0 L 146.14006036599312,170.0 Z"
       id="path179"
       style="vector-effect:non-scaling-stroke;-inkscape-stroke:hairline;stroke-width:0.26458333;stroke-dasharray:none" />
  </g>
</svg>
