<?xml version="1.0" encoding="UTF-8" standalone="no"?>
<svg
   height="300mm"
   version="1.1"
   viewBox="0 0 1200 300"
   width="1200mm"
   id="svg181"
   sodipodi:docname="tramo1.6_MEDIDAS.svg"
   inkscape:version="1.4 (1:1.4+202410161351+e7c3feb100)"
   xmlns:inkscape="http://www.inkscape.org/namespaces/inkscape"
   xmlns:sodipodi="http://sodipodi.sourceforge.net/DTD/sodipodi-0.dtd"
   xmlns="http://www.w3.org/2000/svg"
   xmlns:svg="http://www.w3.org/2000/svg">
  <sodipodi:namedview
     id="namedview181"
     pagecolor="#ffffff"
     bordercolor="#666666"
     borderopacity="1.0"
     inkscape:showpageshadow="2"
     inkscape:pageopacity="0.0"
     inkscape:pagecheckerboard="0"
     inkscape:deskcolor="#d1d1d1"
     inkscape:document-units="mm"
     inkscape:zoom="0.26363911"
     inkscape:cx="1640.5001"
     inkscape:cy="553.78733"
     inkscape:window-width="1920"
     inkscape:window-height="1011"
     inkscape:window-x="0"
     inkscape:window-y="0"
     inkscape:window-maximized="1"
     inkscape:current-layer="svg181" />
  <defs
     id="defs1">
    <marker
       style="overflow:visible"
       id="Stop"
       refX="0"
       refY="0"
       orient="auto"
       inkscape:stockid="Stop"
       markerWidth="1"
       markerHeight="1"
       viewBox="0 0 1 1"
       inkscape:isstock="true"
       inkscape:collect="always"
       preserveAspectRatio="xMidYMid">
      <path
         style="fill:none;stroke:context-stroke;stroke-width:1"
         d="M 0,4 V -4"
         id="path203" />
    </marker>
  </defs>
  <g
     fill="none"
     stroke="blue"
     stroke-width="0.5"
     transform="translate(1.359939634006878,61.75)"
     id="g181"
     style="vector-effect:non-scaling-stroke;-inkscape-stroke:hairline;stroke-width:0.26458333;stroke-dasharray:none">
    <path
       d="M 166.70989022850446,87.68551177665154 L 178.5653347947321,94.53025588832577 L 178.5653347947321,108.21974411167423 L 166.70989022850446,115.06448822334846 L 154.8544456622768,108.21974411167423 L 154.8544456622768,94.53025588832577 L 166.70989022850446,87.68551177665154 Z"
       id="path1"
       style="vector-effect:non-scaling-stroke;-inkscape-stroke:hairline;stroke-width:0.26458333;stroke-dasharray:none" />
    <path
       d="M 166.70989022850446,35.18551177665154 L 178.5653347947321,42.03025588832577 L 178.5653347947321,55.71974411167423 L 166.70989022850446,62.56448822334846 L 154.8544456622768,55.71974411167423 L 154.8544456622768,42.03025588832577 L 166.70989022850446,35.18551177665154 Z"
       id="path2"
       style="vector-effect:non-scaling-stroke;-inkscape-stroke:hairline;stroke-width:0.26458333;stroke-dasharray:none" />
    <path
       d="M 181.86533479473212,113.93551177665154 L 193.7207793609598,120.78025588832577 L 193.72077936095977,134.46974411167423 L 181.86533479473212,141.31448822334846 L 170.00989022850445,134.46974411167423 L 170.00989022850445,120.78025588832577 L 181.86533479473212,113.93551177665154 Z"
       id="path3"
       style="vector-effect:non-scaling-stroke;-inkscape-stroke:hairline;stroke-width:0.26458333;stroke-dasharray:none" />
    <path
       d="M 197.0207793609598,87.68551177665154 L 208.87622392718748,94.53025588832577 L 208.87622392718745,108.21974411167423 L 197.0207793609598,115.06448822334846 L 185.16533479473213,108.21974411167423 L 185.16533479473213,94.53025588832577 L 197.0207793609598,87.68551177665154 Z"
       id="path4"
       style="vector-effect:non-scaling-stroke;-inkscape-stroke:hairline;stroke-width:0.26458333;stroke-dasharray:none" />
    <path
       d="M 181.86533479473212,61.43551177665154 L 193.7207793609598,68.28025588832577 L 193.72077936095977,81.96974411167423 L 181.86533479473212,88.81448822334846 L 170.00989022850445,81.96974411167423 L 170.00989022850445,68.28025588832577 L 181.86533479473212,61.43551177665154 Z"
       id="path5"
       style="vector-effect:non-scaling-stroke;-inkscape-stroke:hairline;stroke-width:0.26458333;stroke-dasharray:none" />
    <path
       d="M 197.0207793609598,35.18551177665154 L 208.87622392718748,42.03025588832577 L 208.87622392718745,55.71974411167423 L 197.0207793609598,62.56448822334846 L 185.16533479473213,55.71974411167423 L 185.16533479473213,42.03025588832577 L 197.0207793609598,35.18551177665154 Z"
       id="path6"
       style="vector-effect:non-scaling-stroke;-inkscape-stroke:hairline;stroke-width:0.26458333;stroke-dasharray:none" />
    <path
       d="M 212.1762239271875,113.93551177665154 L 224.03166849341517,120.78025588832577 L 224.03166849341514,134.46974411167423 L 212.1762239271875,141.31448822334846 L 200.32077936095982,134.46974411167423 L 200.32077936095982,120.78025588832577 L 212.1762239271875,113.93551177665154 Z"
       id="path7"
       style="vector-effect:non-scaling-stroke;-inkscape-stroke:hairline;stroke-width:0.26458333;stroke-dasharray:none" />
    <path
       d="M 227.33166849341518,87.68551177665154 L 239.18711305964285,94.53025588832577 L 239.18711305964283,108.21974411167423 L 227.33166849341518,115.06448822334846 L 215.4762239271875,108.21974411167423 L 215.4762239271875,94.53025588832577 L 227.33166849341518,87.68551177665154 Z"
       id="path8"
       style="vector-effect:non-scaling-stroke;-inkscape-stroke:hairline;stroke-width:0.26458333;stroke-dasharray:none" />
    <path
       d="M 212.1762239271875,61.43551177665154 L 224.03166849341517,68.28025588832577 L 224.03166849341514,81.96974411167423 L 212.1762239271875,88.81448822334846 L 200.32077936095982,81.96974411167423 L 200.32077936095982,68.28025588832577 L 212.1762239271875,61.43551177665154 Z"
       id="path9"
       style="vector-effect:non-scaling-stroke;-inkscape-stroke:hairline;stroke-width:0.26458333;stroke-dasharray:none" />
    <path
       d="M 227.33166849341518,35.18551177665154 L 239.18711305964285,42.03025588832577 L 239.18711305964283,55.71974411167423 L 227.33166849341518,62.56448822334846 L 215.4762239271875,55.71974411167423 L 215.4762239271875,42.03025588832577 L 227.33166849341518,35.18551177665154 Z"
       id="path10"
       style="vector-effect:non-scaling-stroke;-inkscape-stroke:hairline;stroke-width:0.26458333;stroke-dasharray:none" />
    <path
       d="M 242.48711305964284,113.93551177665154 L 254.34255762587048,120.78025588832577 L 254.34255762587048,134.46974411167423 L 242.48711305964284,141.31448822334846 L 230.63166849341516,134.46974411167423 L 230.63166849341516,120.78025588832577 L 242.48711305964284,113.93551177665154 Z"
       id="path11"
       style="vector-effect:non-scaling-stroke;-inkscape-stroke:hairline;stroke-width:0.26458333;stroke-dasharray:none" />
    <path
       d="M 257.6425576258705,87.68551177665154 L 269.49800219209817,94.53025588832575 L 269.49800219209817,108.21974411167425 L 257.6425576258705,115.06448822334846 L 245.78711305964285,108.21974411167423 L 245.78711305964285,94.53025588832577 L 257.6425576258705,87.68551177665154 Z"
       id="path12"
       style="vector-effect:non-scaling-stroke;-inkscape-stroke:hairline;stroke-width:0.26458333;stroke-dasharray:none" />
    <path
       d="M 242.48711305964284,61.43551177665154 L 254.34255762587048,68.28025588832577 L 254.34255762587048,81.96974411167423 L 242.48711305964284,88.81448822334846 L 230.63166849341516,81.96974411167423 L 230.63166849341516,68.28025588832577 L 242.48711305964284,61.43551177665154 Z"
       id="path13"
       style="vector-effect:non-scaling-stroke;-inkscape-stroke:hairline;stroke-width:0.26458333;stroke-dasharray:none" />
    <path
       d="M 257.6425576258705,35.18551177665154 L 269.49800219209817,42.03025588832574 L 269.49800219209817,55.719744111674245 L 257.6425576258705,62.56448822334846 L 245.78711305964285,55.71974411167423 L 245.78711305964285,42.03025588832577 L 257.6425576258705,35.18551177665154 Z"
       id="path14"
       style="vector-effect:non-scaling-stroke;-inkscape-stroke:hairline;stroke-width:0.26458333;stroke-dasharray:none" />
    <path
       d="M 272.7980021920982,113.93551177665152 L 284.65344675832586,120.78025588832575 L 284.65344675832586,134.46974411167426 L 272.7980021920982,141.3144882233485 L 260.9425576258705,134.46974411167426 L 260.9425576258705,120.78025588832574 L 272.7980021920982,113.93551177665152 Z"
       id="path15"
       style="vector-effect:non-scaling-stroke;-inkscape-stroke:hairline;stroke-width:0.26458333;stroke-dasharray:none" />
    <path
       d="M 287.95344675832587,87.68551177665152 L 299.80889132455354,94.53025588832575 L 299.80889132455354,108.21974411167425 L 287.95344675832587,115.06448822334848 L 276.0980021920982,108.21974411167425 L 276.0980021920982,94.53025588832575 L 287.95344675832587,87.68551177665152 Z"
       id="path16"
       style="vector-effect:non-scaling-stroke;-inkscape-stroke:hairline;stroke-width:0.26458333;stroke-dasharray:none" />
    <path
       d="M 272.7980021920982,61.43551177665152 L 284.65344675832586,68.28025588832575 L 284.65344675832586,81.96974411167425 L 272.7980021920982,88.81448822334848 L 260.9425576258705,81.96974411167425 L 260.9425576258705,68.28025588832575 L 272.7980021920982,61.43551177665152 Z"
       id="path17"
       style="vector-effect:non-scaling-stroke;-inkscape-stroke:hairline;stroke-width:0.26458333;stroke-dasharray:none" />
    <path
       d="M 287.95344675832587,35.18551177665151 L 299.80889132455354,42.03025588832574 L 299.80889132455354,55.719744111674245 L 287.95344675832587,62.56448822334848 L 276.0980021920982,55.719744111674245 L 276.0980021920982,42.03025588832574 L 287.95344675832587,35.18551177665151 Z"
       id="path18"
       style="vector-effect:non-scaling-stroke;-inkscape-stroke:hairline;stroke-width:0.26458333;stroke-dasharray:none" />
    <path
       d="M 303.10889132455355,113.93551177665152 L 314.96433589078123,120.78025588832575 L 314.96433589078123,134.46974411167426 L 303.10889132455355,141.3144882233485 L 291.2534467583259,134.46974411167426 L 291.2534467583259,120.78025588832574 L 303.10889132455355,113.93551177665152 Z"
       id="path19"
       style="vector-effect:non-scaling-stroke;-inkscape-stroke:hairline;stroke-width:0.26458333;stroke-dasharray:none" />
    <path
       d="M 318.26433589078124,87.68551177665152 L 330.1197804570089,94.53025588832575 L 330.1197804570089,108.21974411167425 L 318.26433589078124,115.06448822334848 L 306.40889132455357,108.21974411167425 L 306.40889132455357,94.53025588832575 L 318.26433589078124,87.68551177665152 Z"
       id="path20"
       style="vector-effect:non-scaling-stroke;-inkscape-stroke:hairline;stroke-width:0.26458333;stroke-dasharray:none" />
    <path
       d="M 303.10889132455355,61.43551177665152 L 314.96433589078123,68.28025588832575 L 314.96433589078123,81.96974411167425 L 303.10889132455355,88.81448822334848 L 291.2534467583259,81.96974411167425 L 291.2534467583259,68.28025588832575 L 303.10889132455355,61.43551177665152 Z"
       id="path21"
       style="vector-effect:non-scaling-stroke;-inkscape-stroke:hairline;stroke-width:0.26458333;stroke-dasharray:none" />
    <path
       d="M 318.26433589078124,35.18551177665151 L 330.1197804570089,42.03025588832574 L 330.1197804570089,55.719744111674245 L 318.26433589078124,62.56448822334848 L 306.40889132455357,55.719744111674245 L 306.40889132455357,42.03025588832574 L 318.26433589078124,35.18551177665151 Z"
       id="path22"
       style="vector-effect:non-scaling-stroke;-inkscape-stroke:hairline;stroke-width:0.26458333;stroke-dasharray:none" />
    <path
       d="M 333.4197804570089,113.93551177665152 L 345.2752250232366,120.78025588832575 L 345.2752250232366,134.46974411167426 L 333.4197804570089,141.3144882233485 L 321.56433589078125,134.46974411167426 L 321.56433589078125,120.78025588832574 L 333.4197804570089,113.93551177665152 Z"
       id="path23"
       style="vector-effect:non-scaling-stroke;-inkscape-stroke:hairline;stroke-width:0.26458333;stroke-dasharray:none" />
    <path
       d="M 348.5752250232366,87.68551177665152 L 360.4306695894643,94.53025588832575 L 360.4306695894643,108.21974411167425 L 348.5752250232366,115.06448822334848 L 336.71978045700894,108.21974411167425 L 336.71978045700894,94.53025588832575 L 348.5752250232366,87.68551177665152 Z"
       id="path24"
       style="vector-effect:non-scaling-stroke;-inkscape-stroke:hairline;stroke-width:0.26458333;stroke-dasharray:none" />
    <path
       d="M 333.4197804570089,61.43551177665152 L 345.2752250232366,68.28025588832575 L 345.2752250232366,81.96974411167425 L 333.4197804570089,88.81448822334848 L 321.56433589078125,81.96974411167425 L 321.56433589078125,68.28025588832575 L 333.4197804570089,61.43551177665152 Z"
       id="path25"
       style="vector-effect:non-scaling-stroke;-inkscape-stroke:hairline;stroke-width:0.26458333;stroke-dasharray:none" />
    <path
       d="M 348.5752250232366,35.18551177665151 L 360.4306695894643,42.03025588832574 L 360.4306695894643,55.719744111674245 L 348.5752250232366,62.56448822334848 L 336.71978045700894,55.719744111674245 L 336.71978045700894,42.03025588832574 L 348.5752250232366,35.18551177665151 Z"
       id="path26"
       style="vector-effect:non-scaling-stroke;-inkscape-stroke:hairline;stroke-width:0.26458333;stroke-dasharray:none" />
    <path
       d="M 363.73066958946424,113.93551177665152 L 375.5861141556919,120.78025588832575 L 375.5861141556919,134.46974411167426 L 363.73066958946424,141.3144882233485 L 351.87522502323657,134.46974411167426 L 351.87522502323657,120.78025588832574 L 363.73066958946424,113.93551177665152 Z"
       id="path27"
       style="vector-effect:non-scaling-stroke;-inkscape-stroke:hairline;stroke-width:0.26458333;stroke-dasharray:none" />
    <path
       d="M 378.8861141556919,87.68551177665152 L 390.7415587219196,94.53025588832575 L 390.7415587219196,108.21974411167425 L 378.8861141556919,115.06448822334848 L 367.03066958946425,108.21974411167425 L 367.03066958946425,94.53025588832575 L 378.8861141556919,87.68551177665152 Z"
       id="path28"
       style="vector-effect:non-scaling-stroke;-inkscape-stroke:hairline;stroke-width:0.26458333;stroke-dasharray:none" />
    <path
       d="M 363.73066958946424,61.43551177665152 L 375.5861141556919,68.28025588832575 L 375.5861141556919,81.96974411167425 L 363.73066958946424,88.81448822334848 L 351.87522502323657,81.96974411167425 L 351.87522502323657,68.28025588832575 L 363.73066958946424,61.43551177665152 Z"
       id="path29"
       style="vector-effect:non-scaling-stroke;-inkscape-stroke:hairline;stroke-width:0.26458333;stroke-dasharray:none" />
    <path
       d="M 378.8861141556919,35.18551177665151 L 390.7415587219196,42.03025588832574 L 390.7415587219196,55.719744111674245 L 378.8861141556919,62.56448822334848 L 367.03066958946425,55.719744111674245 L 367.03066958946425,42.03025588832574 L 378.8861141556919,35.18551177665151 Z"
       id="path30"
       style="vector-effect:non-scaling-stroke;-inkscape-stroke:hairline;stroke-width:0.26458333;stroke-dasharray:none" />
    <path
       d="M 394.0415587219196,113.93551177665152 L 405.8970032881473,120.78025588832575 L 405.8970032881473,134.46974411167426 L 394.0415587219196,141.3144882233485 L 382.18611415569194,134.46974411167426 L 382.18611415569194,120.78025588832574 L 394.0415587219196,113.93551177665152 Z"
       id="path31"
       style="vector-effect:non-scaling-stroke;-inkscape-stroke:hairline;stroke-width:0.26458333;stroke-dasharray:none" />
    <path
       d="M 409.1970032881473,87.68551177665152 L 421.052447854375,94.53025588832575 L 421.052447854375,108.21974411167425 L 409.1970032881473,115.06448822334848 L 397.3415587219196,108.21974411167425 L 397.3415587219196,94.53025588832575 L 409.1970032881473,87.68551177665152 Z"
       id="path32"
       style="vector-effect:non-scaling-stroke;-inkscape-stroke:hairline;stroke-width:0.26458333;stroke-dasharray:none" />
    <path
       d="M 394.0415587219196,61.43551177665152 L 405.8970032881473,68.28025588832575 L 405.8970032881473,81.96974411167425 L 394.0415587219196,88.81448822334848 L 382.18611415569194,81.96974411167425 L 382.18611415569194,68.28025588832575 L 394.0415587219196,61.43551177665152 Z"
       id="path33"
       style="vector-effect:non-scaling-stroke;-inkscape-stroke:hairline;stroke-width:0.26458333;stroke-dasharray:none" />
    <path
       d="M 409.1970032881473,35.18551177665151 L 421.052447854375,42.03025588832574 L 421.052447854375,55.719744111674245 L 409.1970032881473,62.56448822334848 L 397.3415587219196,55.719744111674245 L 397.3415587219196,42.03025588832574 L 409.1970032881473,35.18551177665151 Z"
       id="path34"
       style="vector-effect:non-scaling-stroke;-inkscape-stroke:hairline;stroke-width:0.26458333;stroke-dasharray:none" />
    <path
       d="M 424.352447854375,113.93551177665152 L 436.20789242060266,120.78025588832575 L 436.20789242060266,134.46974411167426 L 424.352447854375,141.3144882233485 L 412.4970032881473,134.46974411167426 L 412.4970032881473,120.78025588832574 L 424.352447854375,113.93551177665152 Z"
       id="path35"
       style="vector-effect:non-scaling-stroke;-inkscape-stroke:hairline;stroke-width:0.26458333;stroke-dasharray:none" />
    <path
       d="M 439.5078924206027,87.68551177665152 L 451.36333698683035,94.53025588832575 L 451.36333698683035,108.21974411167425 L 439.5078924206027,115.06448822334848 L 427.652447854375,108.21974411167425 L 427.652447854375,94.53025588832575 L 439.5078924206027,87.68551177665152 Z"
       id="path36"
       style="vector-effect:non-scaling-stroke;-inkscape-stroke:hairline;stroke-width:0.26458333;stroke-dasharray:none" />
    <path
       d="M 424.352447854375,61.43551177665152 L 436.20789242060266,68.28025588832575 L 436.20789242060266,81.96974411167425 L 424.352447854375,88.81448822334848 L 412.4970032881473,81.96974411167425 L 412.4970032881473,68.28025588832575 L 424.352447854375,61.43551177665152 Z"
       id="path37"
       style="vector-effect:non-scaling-stroke;-inkscape-stroke:hairline;stroke-width:0.26458333;stroke-dasharray:none" />
    <path
       d="M 439.5078924206027,35.18551177665151 L 451.36333698683035,42.03025588832574 L 451.36333698683035,55.719744111674245 L 439.5078924206027,62.56448822334848 L 427.652447854375,55.719744111674245 L 427.652447854375,42.03025588832574 L 439.5078924206027,35.18551177665151 Z"
       id="path38"
       style="vector-effect:non-scaling-stroke;-inkscape-stroke:hairline;stroke-width:0.26458333;stroke-dasharray:none" />
    <path
       d="M 454.6633369868303,113.93551177665152 L 466.518781553058,120.78025588832575 L 466.518781553058,134.46974411167426 L 454.6633369868303,141.3144882233485 L 442.8078924206026,134.46974411167426 L 442.8078924206026,120.78025588832574 L 454.6633369868303,113.93551177665152 Z"
       id="path39"
       style="vector-effect:non-scaling-stroke;-inkscape-stroke:hairline;stroke-width:0.26458333;stroke-dasharray:none" />
    <path
       d="M 469.818781553058,87.68551177665152 L 481.67422611928566,94.53025588832575 L 481.67422611928566,108.21974411167425 L 469.818781553058,115.06448822334848 L 457.9633369868303,108.21974411167425 L 457.9633369868303,94.53025588832575 L 469.818781553058,87.68551177665152 Z"
       id="path40"
       style="vector-effect:non-scaling-stroke;-inkscape-stroke:hairline;stroke-width:0.26458333;stroke-dasharray:none" />
    <path
       d="M 454.6633369868303,61.43551177665152 L 466.518781553058,68.28025588832575 L 466.518781553058,81.96974411167425 L 454.6633369868303,88.81448822334848 L 442.8078924206026,81.96974411167425 L 442.8078924206026,68.28025588832575 L 454.6633369868303,61.43551177665152 Z"
       id="path41"
       style="vector-effect:non-scaling-stroke;-inkscape-stroke:hairline;stroke-width:0.26458333;stroke-dasharray:none" />
    <path
       d="M 469.818781553058,35.18551177665151 L 481.67422611928566,42.03025588832574 L 481.67422611928566,55.719744111674245 L 469.818781553058,62.56448822334848 L 457.9633369868303,55.719744111674245 L 457.9633369868303,42.03025588832574 L 469.818781553058,35.18551177665151 Z"
       id="path42"
       style="vector-effect:non-scaling-stroke;-inkscape-stroke:hairline;stroke-width:0.26458333;stroke-dasharray:none" />
    <path
       d="M 484.9742261192857,113.93551177665152 L 496.82967068551335,120.78025588832575 L 496.82967068551335,134.46974411167426 L 484.9742261192857,141.3144882233485 L 473.118781553058,134.46974411167426 L 473.118781553058,120.78025588832574 L 484.9742261192857,113.93551177665152 Z"
       id="path43"
       style="vector-effect:non-scaling-stroke;-inkscape-stroke:hairline;stroke-width:0.26458333;stroke-dasharray:none" />
    <path
       d="M 500.12967068551336,87.68551177665152 L 511.985115251741,94.53025588832574 L 511.985115251741,108.21974411167426 L 500.12967068551336,115.06448822334848 L 488.2742261192857,108.21974411167425 L 488.2742261192857,94.53025588832575 L 500.12967068551336,87.68551177665152 Z"
       id="path44"
       style="vector-effect:non-scaling-stroke;-inkscape-stroke:hairline;stroke-width:0.26458333;stroke-dasharray:none" />
    <path
       d="M 484.9742261192857,61.43551177665152 L 496.82967068551335,68.28025588832575 L 496.82967068551335,81.96974411167425 L 484.9742261192857,88.81448822334848 L 473.118781553058,81.96974411167425 L 473.118781553058,68.28025588832575 L 484.9742261192857,61.43551177665152 Z"
       id="path45"
       style="vector-effect:non-scaling-stroke;-inkscape-stroke:hairline;stroke-width:0.26458333;stroke-dasharray:none" />
    <path
       d="M 500.12967068551336,35.18551177665154 L 511.985115251741,42.03025588832574 L 511.985115251741,55.71974411167426 L 500.12967068551336,62.56448822334848 L 488.2742261192857,55.719744111674245 L 488.2742261192857,42.03025588832574 L 500.12967068551336,35.18551177665154 Z"
       id="path46"
       style="vector-effect:non-scaling-stroke;-inkscape-stroke:hairline;stroke-width:0.26458333;stroke-dasharray:none" />
    <path
       d="M 515.285115251741,113.93551177665152 L 527.1405598179687,120.78025588832578 L 527.1405598179687,134.46974411167423 L 515.285115251741,141.3144882233485 L 503.4296706855133,134.46974411167426 L 503.4296706855133,120.78025588832574 L 515.285115251741,113.93551177665152 Z"
       id="path47"
       style="vector-effect:non-scaling-stroke;-inkscape-stroke:hairline;stroke-width:0.26458333;stroke-dasharray:none" />
    <path
       d="M 530.4405598179686,87.68551177665151 L 542.2960043841964,94.5302558883258 L 542.2960043841964,108.21974411167422 L 530.4405598179686,115.06448822334849 L 518.585115251741,108.21974411167423 L 518.585115251741,94.53025588832577 L 530.4405598179686,87.68551177665151 Z"
       id="path48"
       style="vector-effect:non-scaling-stroke;-inkscape-stroke:hairline;stroke-width:0.26458333;stroke-dasharray:none" />
    <path
       d="M 515.285115251741,61.43551177665152 L 527.1405598179687,68.28025588832578 L 527.1405598179687,81.96974411167423 L 515.285115251741,88.81448822334848 L 503.4296706855133,81.96974411167425 L 503.4296706855133,68.28025588832575 L 515.285115251741,61.43551177665152 Z"
       id="path49"
       style="vector-effect:non-scaling-stroke;-inkscape-stroke:hairline;stroke-width:0.26458333;stroke-dasharray:none" />
    <path
       d="M 530.4405598179686,35.18551177665151 L 542.2960043841964,42.0302558883258 L 542.2960043841964,55.71974411167422 L 530.4405598179686,62.56448822334849 L 518.585115251741,55.71974411167423 L 518.585115251741,42.03025588832577 L 530.4405598179686,35.18551177665151 Z"
       id="path50"
       style="vector-effect:non-scaling-stroke;-inkscape-stroke:hairline;stroke-width:0.26458333;stroke-dasharray:none" />
    <path
       d="M 545.5960043841964,113.93551177665151 L 557.451448950424,120.78025588832578 L 557.451448950424,134.46974411167423 L 545.5960043841964,141.3144882233485 L 533.7405598179687,134.46974411167423 L 533.7405598179687,120.78025588832577 L 545.5960043841964,113.93551177665151 Z"
       id="path51"
       style="vector-effect:non-scaling-stroke;-inkscape-stroke:hairline;stroke-width:0.26458333;stroke-dasharray:none" />
    <path
       d="M 560.751448950424,87.68551177665151 L 572.6068935166518,94.5302558883258 L 572.6068935166518,108.21974411167422 L 560.751448950424,115.06448822334849 L 548.8960043841963,108.21974411167423 L 548.8960043841963,94.53025588832577 L 560.751448950424,87.68551177665151 Z"
       id="path52"
       style="vector-effect:non-scaling-stroke;-inkscape-stroke:hairline;stroke-width:0.26458333;stroke-dasharray:none" />
    <path
       d="M 545.5960043841964,61.43551177665151 L 557.451448950424,68.28025588832578 L 557.451448950424,81.96974411167423 L 545.5960043841964,88.81448822334849 L 533.7405598179687,81.96974411167423 L 533.7405598179687,68.28025588832577 L 545.5960043841964,61.43551177665151 Z"
       id="path53"
       style="vector-effect:non-scaling-stroke;-inkscape-stroke:hairline;stroke-width:0.26458333;stroke-dasharray:none" />
    <path
       d="M 560.751448950424,35.18551177665151 L 572.6068935166518,42.0302558883258 L 572.6068935166518,55.71974411167422 L 560.751448950424,62.56448822334849 L 548.8960043841963,55.71974411167423 L 548.8960043841963,42.03025588832577 L 560.751448950424,35.18551177665151 Z"
       id="path54"
       style="vector-effect:non-scaling-stroke;-inkscape-stroke:hairline;stroke-width:0.26458333;stroke-dasharray:none" />
    <path
       d="M 575.9068935166517,113.93551177665151 L 587.7623380828794,120.78025588832578 L 587.7623380828794,134.46974411167423 L 575.9068935166517,141.3144882233485 L 564.0514489504241,134.46974411167423 L 564.0514489504241,120.78025588832577 L 575.9068935166517,113.93551177665151 Z"
       id="path55"
       style="vector-effect:non-scaling-stroke;-inkscape-stroke:hairline;stroke-width:0.26458333;stroke-dasharray:none" />
    <path
       d="M 591.0623380828794,87.68551177665151 L 602.9177826491072,94.5302558883258 L 602.9177826491072,108.21974411167422 L 591.0623380828794,115.06448822334849 L 579.2068935166517,108.21974411167423 L 579.2068935166517,94.53025588832577 L 591.0623380828794,87.68551177665151 Z"
       id="path56"
       style="vector-effect:non-scaling-stroke;-inkscape-stroke:hairline;stroke-width:0.26458333;stroke-dasharray:none" />
    <path
       d="M 575.9068935166517,61.43551177665151 L 587.7623380828794,68.28025588832578 L 587.7623380828794,81.96974411167423 L 575.9068935166517,88.81448822334849 L 564.0514489504241,81.96974411167423 L 564.0514489504241,68.28025588832577 L 575.9068935166517,61.43551177665151 Z"
       id="path57"
       style="vector-effect:non-scaling-stroke;-inkscape-stroke:hairline;stroke-width:0.26458333;stroke-dasharray:none" />
    <path
       d="M 591.0623380828794,35.18551177665151 L 602.9177826491072,42.0302558883258 L 602.9177826491072,55.71974411167422 L 591.0623380828794,62.56448822334849 L 579.2068935166517,55.71974411167423 L 579.2068935166517,42.03025588832577 L 591.0623380828794,35.18551177665151 Z"
       id="path58"
       style="vector-effect:non-scaling-stroke;-inkscape-stroke:hairline;stroke-width:0.26458333;stroke-dasharray:none" />
    <path
       d="M 606.2177826491071,113.93551177665151 L 618.0732272153348,120.78025588832578 L 618.0732272153348,134.46974411167423 L 606.2177826491071,141.3144882233485 L 594.3623380828794,134.46974411167423 L 594.3623380828794,120.78025588832577 L 606.2177826491071,113.93551177665151 Z"
       id="path59"
       style="vector-effect:non-scaling-stroke;-inkscape-stroke:hairline;stroke-width:0.26458333;stroke-dasharray:none" />
    <path
       d="M 621.3732272153347,87.68551177665151 L 633.2286717815625,94.5302558883258 L 633.2286717815625,108.21974411167422 L 621.3732272153347,115.06448822334849 L 609.5177826491071,108.21974411167423 L 609.5177826491071,94.53025588832577 L 621.3732272153347,87.68551177665151 Z"
       id="path60"
       style="vector-effect:non-scaling-stroke;-inkscape-stroke:hairline;stroke-width:0.26458333;stroke-dasharray:none" />
    <path
       d="M 606.2177826491071,61.43551177665151 L 618.0732272153348,68.28025588832578 L 618.0732272153348,81.96974411167423 L 606.2177826491071,88.81448822334849 L 594.3623380828794,81.96974411167423 L 594.3623380828794,68.28025588832577 L 606.2177826491071,61.43551177665151 Z"
       id="path61"
       style="vector-effect:non-scaling-stroke;-inkscape-stroke:hairline;stroke-width:0.26458333;stroke-dasharray:none" />
    <path
       d="M 621.3732272153347,35.18551177665151 L 633.2286717815625,42.0302558883258 L 633.2286717815625,55.71974411167422 L 621.3732272153347,62.56448822334849 L 609.5177826491071,55.71974411167423 L 609.5177826491071,42.03025588832577 L 621.3732272153347,35.18551177665151 Z"
       id="path62"
       style="vector-effect:non-scaling-stroke;-inkscape-stroke:hairline;stroke-width:0.26458333;stroke-dasharray:none" />
    <path
       d="M 636.5286717815625,113.93551177665151 L 648.3841163477902,120.78025588832578 L 648.3841163477902,134.46974411167423 L 636.5286717815625,141.3144882233485 L 624.6732272153348,134.46974411167423 L 624.6732272153348,120.78025588832577 L 636.5286717815625,113.93551177665151 Z"
       id="path63"
       style="vector-effect:non-scaling-stroke;-inkscape-stroke:hairline;stroke-width:0.26458333;stroke-dasharray:none" />
    <path
       d="M 651.6841163477901,87.68551177665151 L 663.5395609140179,94.5302558883258 L 663.5395609140179,108.21974411167422 L 651.6841163477901,115.06448822334849 L 639.8286717815624,108.21974411167423 L 639.8286717815624,94.53025588832577 L 651.6841163477901,87.68551177665151 Z"
       id="path64"
       style="vector-effect:non-scaling-stroke;-inkscape-stroke:hairline;stroke-width:0.26458333;stroke-dasharray:none" />
    <path
       d="M 636.5286717815625,61.43551177665151 L 648.3841163477902,68.28025588832578 L 648.3841163477902,81.96974411167423 L 636.5286717815625,88.81448822334849 L 624.6732272153348,81.96974411167423 L 624.6732272153348,68.28025588832577 L 636.5286717815625,61.43551177665151 Z"
       id="path65"
       style="vector-effect:non-scaling-stroke;-inkscape-stroke:hairline;stroke-width:0.26458333;stroke-dasharray:none" />
    <path
       d="M 651.6841163477901,35.18551177665151 L 663.5395609140179,42.0302558883258 L 663.5395609140179,55.71974411167422 L 651.6841163477901,62.56448822334849 L 639.8286717815624,55.71974411167423 L 639.8286717815624,42.03025588832577 L 651.6841163477901,35.18551177665151 Z"
       id="path66"
       style="vector-effect:non-scaling-stroke;-inkscape-stroke:hairline;stroke-width:0.26458333;stroke-dasharray:none" />
    <path
       d="M 666.8395609140179,113.93551177665151 L 678.6950054802455,120.78025588832578 L 678.6950054802455,134.46974411167423 L 666.8395609140179,141.3144882233485 L 654.9841163477902,134.46974411167423 L 654.9841163477902,120.78025588832577 L 666.8395609140179,113.93551177665151 Z"
       id="path67"
       style="vector-effect:non-scaling-stroke;-inkscape-stroke:hairline;stroke-width:0.26458333;stroke-dasharray:none" />
    <path
       d="M 681.9950054802455,87.68551177665151 L 693.8504500464733,94.5302558883258 L 693.8504500464733,108.21974411167422 L 681.9950054802455,115.06448822334849 L 670.1395609140178,108.21974411167423 L 670.1395609140178,94.53025588832577 L 681.9950054802455,87.68551177665151 Z"
       id="path68"
       style="vector-effect:non-scaling-stroke;-inkscape-stroke:hairline;stroke-width:0.26458333;stroke-dasharray:none" />
    <path
       d="M 666.8395609140179,61.43551177665151 L 678.6950054802455,68.28025588832578 L 678.6950054802455,81.96974411167423 L 666.8395609140179,88.81448822334849 L 654.9841163477902,81.96974411167423 L 654.9841163477902,68.28025588832577 L 666.8395609140179,61.43551177665151 Z"
       id="path69"
       style="vector-effect:non-scaling-stroke;-inkscape-stroke:hairline;stroke-width:0.26458333;stroke-dasharray:none" />
    <path
       d="M 681.9950054802455,35.18551177665151 L 693.8504500464733,42.0302558883258 L 693.8504500464733,55.71974411167422 L 681.9950054802455,62.56448822334849 L 670.1395609140178,55.71974411167423 L 670.1395609140178,42.03025588832577 L 681.9950054802455,35.18551177665151 Z"
       id="path70"
       style="vector-effect:non-scaling-stroke;-inkscape-stroke:hairline;stroke-width:0.26458333;stroke-dasharray:none" />
    <path
       d="M 697.1504500464731,113.93551177665151 L 709.0058946127008,120.78025588832578 L 709.0058946127008,134.46974411167423 L 697.1504500464731,141.3144882233485 L 685.2950054802454,134.46974411167423 L 685.2950054802454,120.78025588832577 L 697.1504500464731,113.93551177665151 Z"
       id="path71"
       style="vector-effect:non-scaling-stroke;-inkscape-stroke:hairline;stroke-width:0.26458333;stroke-dasharray:none" />
    <path
       d="M 712.3058946127007,87.68551177665151 L 724.1613391789285,94.5302558883258 L 724.1613391789285,108.21974411167422 L 712.3058946127007,115.06448822334849 L 700.4504500464731,108.21974411167423 L 700.4504500464731,94.53025588832577 L 712.3058946127007,87.68551177665151 Z"
       id="path72"
       style="vector-effect:non-scaling-stroke;-inkscape-stroke:hairline;stroke-width:0.26458333;stroke-dasharray:none" />
    <path
       d="M 697.1504500464731,61.43551177665151 L 709.0058946127008,68.28025588832578 L 709.0058946127008,81.96974411167423 L 697.1504500464731,88.81448822334849 L 685.2950054802454,81.96974411167423 L 685.2950054802454,68.28025588832577 L 697.1504500464731,61.43551177665151 Z"
       id="path73"
       style="vector-effect:non-scaling-stroke;-inkscape-stroke:hairline;stroke-width:0.26458333;stroke-dasharray:none" />
    <path
       d="M 712.3058946127007,35.18551177665151 L 724.1613391789285,42.0302558883258 L 724.1613391789285,55.71974411167422 L 712.3058946127007,62.56448822334849 L 700.4504500464731,55.71974411167423 L 700.4504500464731,42.03025588832577 L 712.3058946127007,35.18551177665151 Z"
       id="path74"
       style="vector-effect:non-scaling-stroke;-inkscape-stroke:hairline;stroke-width:0.26458333;stroke-dasharray:none" />
    <path
       d="M 727.4613391789285,113.93551177665151 L 739.3167837451562,120.78025588832578 L 739.3167837451562,134.46974411167423 L 727.4613391789285,141.3144882233485 L 715.6058946127008,134.46974411167423 L 715.6058946127008,120.78025588832577 L 727.4613391789285,113.93551177665151 Z"
       id="path75"
       style="vector-effect:non-scaling-stroke;-inkscape-stroke:hairline;stroke-width:0.26458333;stroke-dasharray:none" />
    <path
       d="M 742.6167837451561,87.68551177665151 L 754.4722283113839,94.5302558883258 L 754.4722283113839,108.21974411167422 L 742.6167837451561,115.06448822334849 L 730.7613391789284,108.21974411167423 L 730.7613391789284,94.53025588832577 L 742.6167837451561,87.68551177665151 Z"
       id="path76"
       style="vector-effect:non-scaling-stroke;-inkscape-stroke:hairline;stroke-width:0.26458333;stroke-dasharray:none" />
    <path
       d="M 727.4613391789285,61.43551177665151 L 739.3167837451562,68.28025588832578 L 739.3167837451562,81.96974411167423 L 727.4613391789285,88.81448822334849 L 715.6058946127008,81.96974411167423 L 715.6058946127008,68.28025588832577 L 727.4613391789285,61.43551177665151 Z"
       id="path77"
       style="vector-effect:non-scaling-stroke;-inkscape-stroke:hairline;stroke-width:0.26458333;stroke-dasharray:none" />
    <path
       d="M 742.6167837451561,35.18551177665151 L 754.4722283113839,42.0302558883258 L 754.4722283113839,55.71974411167422 L 742.6167837451561,62.56448822334849 L 730.7613391789284,55.71974411167423 L 730.7613391789284,42.03025588832577 L 742.6167837451561,35.18551177665151 Z"
       id="path78"
       style="vector-effect:non-scaling-stroke;-inkscape-stroke:hairline;stroke-width:0.26458333;stroke-dasharray:none" />
    <path
       d="M 757.7722283113839,113.93551177665151 L 769.6276728776115,120.78025588832578 L 769.6276728776115,134.46974411167423 L 757.7722283113839,141.3144882233485 L 745.9167837451562,134.46974411167423 L 745.9167837451562,120.78025588832577 L 757.7722283113839,113.93551177665151 Z"
       id="path79"
       style="vector-effect:non-scaling-stroke;-inkscape-stroke:hairline;stroke-width:0.26458333;stroke-dasharray:none" />
    <path
       d="M 772.9276728776115,87.68551177665151 L 784.7831174438393,94.5302558883258 L 784.7831174438393,108.21974411167422 L 772.9276728776115,115.06448822334849 L 761.0722283113838,108.21974411167423 L 761.0722283113838,94.53025588832577 L 772.9276728776115,87.68551177665151 Z"
       id="path80"
       style="vector-effect:non-scaling-stroke;-inkscape-stroke:hairline;stroke-width:0.26458333;stroke-dasharray:none" />
    <path
       d="M 757.7722283113839,61.43551177665151 L 769.6276728776115,68.28025588832578 L 769.6276728776115,81.96974411167423 L 757.7722283113839,88.81448822334849 L 745.9167837451562,81.96974411167423 L 745.9167837451562,68.28025588832577 L 757.7722283113839,61.43551177665151 Z"
       id="path81"
       style="vector-effect:non-scaling-stroke;-inkscape-stroke:hairline;stroke-width:0.26458333;stroke-dasharray:none" />
    <path
       d="M 772.9276728776115,35.18551177665151 L 784.7831174438393,42.0302558883258 L 784.7831174438393,55.71974411167422 L 772.9276728776115,62.56448822334849 L 761.0722283113838,55.71974411167423 L 761.0722283113838,42.03025588832577 L 772.9276728776115,35.18551177665151 Z"
       id="path82"
       style="vector-effect:non-scaling-stroke;-inkscape-stroke:hairline;stroke-width:0.26458333;stroke-dasharray:none" />
    <path
       d="M 788.0831174438392,113.93551177665151 L 799.9385620100669,120.78025588832578 L 799.9385620100669,134.46974411167423 L 788.0831174438392,141.3144882233485 L 776.2276728776116,134.46974411167423 L 776.2276728776116,120.78025588832577 L 788.0831174438392,113.93551177665151 Z"
       id="path83"
       style="vector-effect:non-scaling-stroke;-inkscape-stroke:hairline;stroke-width:0.26458333;stroke-dasharray:none" />
    <path
       d="M 803.2385620100669,87.68551177665151 L 815.0940065762946,94.5302558883258 L 815.0940065762946,108.21974411167422 L 803.2385620100669,115.06448822334849 L 791.3831174438392,108.21974411167423 L 791.3831174438392,94.53025588832577 L 803.2385620100669,87.68551177665151 Z"
       id="path84"
       style="vector-effect:non-scaling-stroke;-inkscape-stroke:hairline;stroke-width:0.26458333;stroke-dasharray:none" />
    <path
       d="M 788.0831174438392,61.43551177665151 L 799.9385620100669,68.28025588832578 L 799.9385620100669,81.96974411167423 L 788.0831174438392,88.81448822334849 L 776.2276728776116,81.96974411167423 L 776.2276728776116,68.28025588832577 L 788.0831174438392,61.43551177665151 Z"
       id="path85"
       style="vector-effect:non-scaling-stroke;-inkscape-stroke:hairline;stroke-width:0.26458333;stroke-dasharray:none" />
    <path
       d="M 803.2385620100669,35.18551177665151 L 815.0940065762946,42.0302558883258 L 815.0940065762946,55.71974411167422 L 803.2385620100669,62.56448822334849 L 791.3831174438392,55.71974411167423 L 791.3831174438392,42.03025588832577 L 803.2385620100669,35.18551177665151 Z"
       id="path86"
       style="vector-effect:non-scaling-stroke;-inkscape-stroke:hairline;stroke-width:0.26458333;stroke-dasharray:none" />
    <path
       d="M 818.3940065762946,113.93551177665151 L 830.2494511425223,120.78025588832578 L 830.2494511425223,134.46974411167423 L 818.3940065762946,141.3144882233485 L 806.5385620100669,134.46974411167423 L 806.5385620100669,120.78025588832577 L 818.3940065762946,113.93551177665151 Z"
       id="path87"
       style="vector-effect:non-scaling-stroke;-inkscape-stroke:hairline;stroke-width:0.26458333;stroke-dasharray:none" />
    <path
       d="M 833.5494511425222,87.68551177665151 L 845.40489570875,94.5302558883258 L 845.40489570875,108.21974411167422 L 833.5494511425222,115.06448822334849 L 821.6940065762946,108.21974411167423 L 821.6940065762946,94.53025588832577 L 833.5494511425222,87.68551177665151 Z"
       id="path88"
       style="vector-effect:non-scaling-stroke;-inkscape-stroke:hairline;stroke-width:0.26458333;stroke-dasharray:none" />
    <path
       d="M 818.3940065762946,61.43551177665151 L 830.2494511425223,68.28025588832578 L 830.2494511425223,81.96974411167423 L 818.3940065762946,88.81448822334849 L 806.5385620100669,81.96974411167423 L 806.5385620100669,68.28025588832577 L 818.3940065762946,61.43551177665151 Z"
       id="path89"
       style="vector-effect:non-scaling-stroke;-inkscape-stroke:hairline;stroke-width:0.26458333;stroke-dasharray:none" />
    <path
       d="M 833.5494511425222,35.18551177665151 L 845.40489570875,42.0302558883258 L 845.40489570875,55.71974411167422 L 833.5494511425222,62.56448822334849 L 821.6940065762946,55.71974411167423 L 821.6940065762946,42.03025588832577 L 833.5494511425222,35.18551177665151 Z"
       id="path90"
       style="vector-effect:non-scaling-stroke;-inkscape-stroke:hairline;stroke-width:0.26458333;stroke-dasharray:none" />
    <path
       d="M 848.70489570875,113.93551177665151 L 860.5603402749776,120.78025588832578 L 860.5603402749776,134.46974411167423 L 848.70489570875,141.3144882233485 L 836.8494511425223,134.46974411167423 L 836.8494511425223,120.78025588832577 L 848.70489570875,113.93551177665151 Z"
       id="path91"
       style="vector-effect:non-scaling-stroke;-inkscape-stroke:hairline;stroke-width:0.26458333;stroke-dasharray:none" />
    <path
       d="M 863.8603402749776,87.68551177665151 L 875.7157848412054,94.5302558883258 L 875.7157848412054,108.21974411167422 L 863.8603402749776,115.06448822334849 L 852.0048957087499,108.21974411167423 L 852.0048957087499,94.53025588832577 L 863.8603402749776,87.68551177665151 Z"
       id="path92"
       style="vector-effect:non-scaling-stroke;-inkscape-stroke:hairline;stroke-width:0.26458333;stroke-dasharray:none" />
    <path
       d="M 848.70489570875,61.43551177665151 L 860.5603402749776,68.28025588832578 L 860.5603402749776,81.96974411167423 L 848.70489570875,88.81448822334849 L 836.8494511425223,81.96974411167423 L 836.8494511425223,68.28025588832577 L 848.70489570875,61.43551177665151 Z"
       id="path93"
       style="vector-effect:non-scaling-stroke;-inkscape-stroke:hairline;stroke-width:0.26458333;stroke-dasharray:none" />
    <path
       d="M 863.8603402749776,35.18551177665151 L 875.7157848412054,42.0302558883258 L 875.7157848412054,55.71974411167422 L 863.8603402749776,62.56448822334849 L 852.0048957087499,55.71974411167423 L 852.0048957087499,42.03025588832577 L 863.8603402749776,35.18551177665151 Z"
       id="path94"
       style="vector-effect:non-scaling-stroke;-inkscape-stroke:hairline;stroke-width:0.26458333;stroke-dasharray:none" />
    <path
       d="M 879.0157848412052,113.93551177665151 L 890.8712294074329,120.78025588832578 L 890.8712294074329,134.46974411167423 L 879.0157848412052,141.3144882233485 L 867.1603402749776,134.46974411167423 L 867.1603402749776,120.78025588832577 L 879.0157848412052,113.93551177665151 Z"
       id="path95"
       style="vector-effect:non-scaling-stroke;-inkscape-stroke:hairline;stroke-width:0.26458333;stroke-dasharray:none" />
    <path
       d="M 894.1712294074329,87.68551177665151 L 906.0266739736606,94.5302558883258 L 906.0266739736606,108.21974411167422 L 894.1712294074329,115.06448822334849 L 882.3157848412052,108.21974411167423 L 882.3157848412052,94.53025588832577 L 894.1712294074329,87.68551177665151 Z"
       id="path96"
       style="vector-effect:non-scaling-stroke;-inkscape-stroke:hairline;stroke-width:0.26458333;stroke-dasharray:none" />
    <path
       d="M 879.0157848412052,61.43551177665151 L 890.8712294074329,68.28025588832578 L 890.8712294074329,81.96974411167423 L 879.0157848412052,88.81448822334849 L 867.1603402749776,81.96974411167423 L 867.1603402749776,68.28025588832577 L 879.0157848412052,61.43551177665151 Z"
       id="path97"
       style="vector-effect:non-scaling-stroke;-inkscape-stroke:hairline;stroke-width:0.26458333;stroke-dasharray:none" />
    <path
       d="M 894.1712294074329,35.18551177665151 L 906.0266739736606,42.0302558883258 L 906.0266739736606,55.71974411167422 L 894.1712294074329,62.56448822334849 L 882.3157848412052,55.71974411167423 L 882.3157848412052,42.03025588832577 L 894.1712294074329,35.18551177665151 Z"
       id="path98"
       style="vector-effect:non-scaling-stroke;-inkscape-stroke:hairline;stroke-width:0.26458333;stroke-dasharray:none" />
    <path
       d="M 909.3266739736606,113.93551177665151 L 921.1821185398883,120.78025588832578 L 921.1821185398883,134.46974411167423 L 909.3266739736606,141.3144882233485 L 897.4712294074329,134.46974411167423 L 897.4712294074329,120.78025588832577 L 909.3266739736606,113.93551177665151 Z"
       id="path99"
       style="vector-effect:non-scaling-stroke;-inkscape-stroke:hairline;stroke-width:0.26458333;stroke-dasharray:none" />
    <path
       d="M 924.4821185398882,87.68551177665151 L 936.337563106116,94.5302558883258 L 936.337563106116,108.21974411167422 L 924.4821185398882,115.06448822334849 L 912.6266739736606,108.21974411167423 L 912.6266739736606,94.53025588832577 L 924.4821185398882,87.68551177665151 Z"
       id="path100"
       style="vector-effect:non-scaling-stroke;-inkscape-stroke:hairline;stroke-width:0.26458333;stroke-dasharray:none" />
    <path
       d="M 909.3266739736606,61.43551177665151 L 921.1821185398883,68.28025588832578 L 921.1821185398883,81.96974411167423 L 909.3266739736606,88.81448822334849 L 897.4712294074329,81.96974411167423 L 897.4712294074329,68.28025588832577 L 909.3266739736606,61.43551177665151 Z"
       id="path101"
       style="vector-effect:non-scaling-stroke;-inkscape-stroke:hairline;stroke-width:0.26458333;stroke-dasharray:none" />
    <path
       d="M 924.4821185398882,35.18551177665151 L 936.337563106116,42.0302558883258 L 936.337563106116,55.71974411167422 L 924.4821185398882,62.56448822334849 L 912.6266739736606,55.71974411167423 L 912.6266739736606,42.03025588832577 L 924.4821185398882,35.18551177665151 Z"
       id="path102"
       style="vector-effect:non-scaling-stroke;-inkscape-stroke:hairline;stroke-width:0.26458333;stroke-dasharray:none" />
    <path
       d="M 939.637563106116,113.93551177665151 L 951.4930076723437,120.78025588832578 L 951.4930076723437,134.46974411167423 L 939.637563106116,141.3144882233485 L 927.7821185398883,134.46974411167423 L 927.7821185398883,120.78025588832577 L 939.637563106116,113.93551177665151 Z"
       id="path103"
       style="vector-effect:non-scaling-stroke;-inkscape-stroke:hairline;stroke-width:0.26458333;stroke-dasharray:none" />
    <path
       d="M 954.7930076723436,87.68551177665151 L 966.6484522385714,94.5302558883258 L 966.6484522385714,108.21974411167422 L 954.7930076723436,115.06448822334849 L 942.9375631061159,108.21974411167423 L 942.9375631061159,94.53025588832577 L 954.7930076723436,87.68551177665151 Z"
       id="path104"
       style="vector-effect:non-scaling-stroke;-inkscape-stroke:hairline;stroke-width:0.26458333;stroke-dasharray:none" />
    <path
       d="M 939.637563106116,61.43551177665151 L 951.4930076723437,68.28025588832578 L 951.4930076723437,81.96974411167423 L 939.637563106116,88.81448822334849 L 927.7821185398883,81.96974411167423 L 927.7821185398883,68.28025588832577 L 939.637563106116,61.43551177665151 Z"
       id="path105"
       style="vector-effect:non-scaling-stroke;-inkscape-stroke:hairline;stroke-width:0.26458333;stroke-dasharray:none" />
    <path
       d="M 954.7930076723436,35.18551177665151 L 966.6484522385714,42.0302558883258 L 966.6484522385714,55.71974411167422 L 954.7930076723436,62.56448822334849 L 942.9375631061159,55.71974411167423 L 942.9375631061159,42.03025588832577 L 954.7930076723436,35.18551177665151 Z"
       id="path106"
       style="vector-effect:non-scaling-stroke;-inkscape-stroke:hairline;stroke-width:0.26458333;stroke-dasharray:none" />
    <path
       d="M 969.9484522385713,113.93551177665151 L 981.803896804799,120.78025588832578 L 981.803896804799,134.46974411167423 L 969.9484522385713,141.3144882233485 L 958.0930076723437,134.46974411167423 L 958.0930076723437,120.78025588832577 L 969.9484522385713,113.93551177665151 Z"
       id="path107"
       style="vector-effect:non-scaling-stroke;-inkscape-stroke:hairline;stroke-width:0.26458333;stroke-dasharray:none" />
    <path
       d="M 985.103896804799,87.68551177665151 L 996.9593413710268,94.5302558883258 L 996.9593413710268,108.21974411167422 L 985.103896804799,115.06448822334849 L 973.2484522385713,108.21974411167423 L 973.2484522385713,94.53025588832577 L 985.103896804799,87.68551177665151 Z"
       id="path108"
       style="vector-effect:non-scaling-stroke;-inkscape-stroke:hairline;stroke-width:0.26458333;stroke-dasharray:none" />
    <path
       d="M 969.9484522385713,61.43551177665151 L 981.803896804799,68.28025588832578 L 981.803896804799,81.96974411167423 L 969.9484522385713,88.81448822334849 L 958.0930076723437,81.96974411167423 L 958.0930076723437,68.28025588832577 L 969.9484522385713,61.43551177665151 Z"
       id="path109"
       style="vector-effect:non-scaling-stroke;-inkscape-stroke:hairline;stroke-width:0.26458333;stroke-dasharray:none" />
    <path
       d="M 985.103896804799,35.18551177665151 L 996.9593413710268,42.0302558883258 L 996.9593413710268,55.71974411167422 L 985.103896804799,62.56448822334849 L 973.2484522385713,55.71974411167423 L 973.2484522385713,42.03025588832577 L 985.103896804799,35.18551177665151 Z"
       id="path110"
       style="vector-effect:non-scaling-stroke;-inkscape-stroke:hairline;stroke-width:0.26458333;stroke-dasharray:none" />
    <path
       d="M 1000.2593413710267,113.93551177665151 L 1012.1147859372544,120.78025588832578 L 1012.1147859372544,134.46974411167423 L 1000.2593413710267,141.3144882233485 L 988.403896804799,134.46974411167423 L 988.403896804799,120.78025588832577 L 1000.2593413710267,113.93551177665151 Z"
       id="path111"
       style="vector-effect:non-scaling-stroke;-inkscape-stroke:hairline;stroke-width:0.26458333;stroke-dasharray:none" />
    <path
       d="M 1015.4147859372544,87.68551177665151 L 1027.270230503482,94.53025588832584 L 1027.270230503482,108.21974411167417 L 1015.4147859372544,115.06448822334849 L 1003.5593413710267,108.21974411167423 L 1003.5593413710267,94.53025588832577 L 1015.4147859372544,87.68551177665151 Z"
       id="path112"
       style="vector-effect:non-scaling-stroke;-inkscape-stroke:hairline;stroke-width:0.26458333;stroke-dasharray:none" />
    <path
       d="M 1000.2593413710267,61.43551177665151 L 1012.1147859372544,68.28025588832578 L 1012.1147859372544,81.96974411167423 L 1000.2593413710267,88.81448822334849 L 988.403896804799,81.96974411167423 L 988.403896804799,68.28025588832577 L 1000.2593413710267,61.43551177665151 Z"
       id="path113"
       style="vector-effect:non-scaling-stroke;-inkscape-stroke:hairline;stroke-width:0.26458333;stroke-dasharray:none" />
    <path
       d="M 1015.4147859372544,35.18551177665154 L 1027.270230503482,42.030255888325826 L 1027.270230503482,55.719744111674174 L 1015.4147859372544,62.56448822334849 L 1003.5593413710267,55.71974411167423 L 1003.5593413710267,42.03025588832577 L 1015.4147859372544,35.18551177665154 Z"
       id="path114"
       style="vector-effect:non-scaling-stroke;-inkscape-stroke:hairline;stroke-width:0.26458333;stroke-dasharray:none" />
    <path
       d="M 1030.570230503482,113.93551177665158 L 1042.4256750697098,120.78025588832585 L 1042.4256750697098,134.46974411167415 L 1030.570230503482,141.3144882233484 L 1018.7147859372543,134.4697441116742 L 1018.7147859372543,120.78025588832578 L 1030.570230503482,113.93551177665158 Z"
       id="path115"
       style="vector-effect:non-scaling-stroke;-inkscape-stroke:hairline;stroke-width:0.26458333;stroke-dasharray:none" />
    <path
       d="M 1030.570230503482,61.43551177665158 L 1042.4256750697098,68.28025588832587 L 1042.4256750697098,81.96974411167415 L 1030.570230503482,88.81448822334842 L 1018.7147859372543,81.96974411167423 L 1018.7147859372543,68.28025588832577 L 1030.570230503482,61.43551177665158 Z"
       id="path116"
       style="vector-effect:non-scaling-stroke;-inkscape-stroke:hairline;stroke-width:0.26458333;stroke-dasharray:none" />
    <path
       d="M 973.2484522385713,147.03025588832577 L 985.103896804799,140.1855117766515 L 996.9593413710268,147.0302558883258 L 996.9593413710268,148.5 L 973.2484522385713,148.5 L 973.2484522385713,147.03025588832577 Z"
       id="path117"
       style="vector-effect:non-scaling-stroke;-inkscape-stroke:hairline;stroke-width:0.26458333;stroke-dasharray:none" />
    <path
       d="M 564.0514489504241,28.0 L 587.7623380828794,28.0 L 587.7623380828794,29.46974411167423 L 575.9068935166517,36.31448822334846 L 564.0514489504241,29.46974411167423 L 564.0514489504241,28.0 Z"
       id="path118"
       style="vector-effect:non-scaling-stroke;-inkscape-stroke:hairline;stroke-width:0.26458333;stroke-dasharray:none" />
    <path
       d="M 154.8544456622768,147.03025588832577 L 166.70989022850446,140.18551177665154 L 178.5653347947321,147.03025588832577 L 178.5653347947321,148.5 L 154.8544456622768,148.5 L 154.8544456622768,147.03025588832577 Z"
       id="path119"
       style="vector-effect:non-scaling-stroke;-inkscape-stroke:hairline;stroke-width:0.26458333;stroke-dasharray:none" />
    <path
       d="M 579.2068935166517,147.03025588832577 L 591.0623380828794,140.1855117766515 L 602.9177826491072,147.0302558883258 L 602.9177826491072,148.5 L 579.2068935166517,148.5 L 579.2068935166517,147.03025588832577 Z"
       id="path120"
       style="vector-effect:non-scaling-stroke;-inkscape-stroke:hairline;stroke-width:0.26458333;stroke-dasharray:none" />
    <path
       d="M 291.2534467583259,28.0 L 314.96433589078123,28.0 L 314.96433589078123,29.46974411167426 L 303.10889132455355,36.31448822334849 L 291.2534467583259,29.46974411167426 L 291.2534467583259,28.0 Z"
       id="path121"
       style="vector-effect:non-scaling-stroke;-inkscape-stroke:hairline;stroke-width:0.26458333;stroke-dasharray:none" />
    <path
       d="M 1033.870230503482,108.21974411167415 L 1033.870230503482,94.53025588832585 L 1044.8900603659931,88.16795415078117 L 1044.8900603659931,114.58204584921883 L 1033.870230503482,108.21974411167415 Z"
       id="path122"
       style="vector-effect:non-scaling-stroke;-inkscape-stroke:hairline;stroke-width:0.26458333;stroke-dasharray:none" />
    <path
       d="M 488.2742261192857,147.03025588832574 L 500.12967068551336,140.1855117766515 L 511.985115251741,147.03025588832577 L 511.985115251741,148.5 L 488.2742261192857,148.5 L 488.2742261192857,147.03025588832574 Z"
       id="path123"
       style="vector-effect:non-scaling-stroke;-inkscape-stroke:hairline;stroke-width:0.26458333;stroke-dasharray:none" />
    <path
       d="M 852.0048957087499,147.03025588832577 L 863.8603402749776,140.1855117766515 L 875.7157848412054,147.0302558883258 L 875.7157848412054,148.5 L 852.0048957087499,148.5 L 852.0048957087499,147.03025588832577 Z"
       id="path124"
       style="vector-effect:non-scaling-stroke;-inkscape-stroke:hairline;stroke-width:0.26458333;stroke-dasharray:none" />
    <path
       d="M 245.78711305964285,147.03025588832577 L 257.6425576258705,140.18551177665154 L 269.49800219209817,147.03025588832577 L 269.49800219209817,148.5 L 245.78711305964285,148.5 L 245.78711305964285,147.03025588832577 Z"
       id="path125"
       style="vector-effect:non-scaling-stroke;-inkscape-stroke:hairline;stroke-width:0.26458333;stroke-dasharray:none" />
    <path
       d="M 715.6058946127008,28.0 L 739.3167837451562,28.0 L 739.3167837451562,29.46974411167423 L 727.4613391789285,36.31448822334846 L 715.6058946127008,29.46974411167423 L 715.6058946127008,28.0 Z"
       id="path126"
       style="vector-effect:non-scaling-stroke;-inkscape-stroke:hairline;stroke-width:0.26458333;stroke-dasharray:none" />
    <path
       d="M 1033.870230503482,147.03025588832585 L 1044.8900603659931,140.66795415078116 L 1044.8900603659931,148.5 L 1033.870230503482,148.5 L 1033.870230503482,147.03025588832585 Z"
       id="path127"
       style="vector-effect:non-scaling-stroke;-inkscape-stroke:hairline;stroke-width:0.26458333;stroke-dasharray:none" />
    <path
       d="M 594.3623380828794,28.0 L 618.0732272153348,28.0 L 618.0732272153348,29.46974411167423 L 606.2177826491071,36.31448822334846 L 594.3623380828794,29.46974411167423 L 594.3623380828794,28.0 Z"
       id="path128"
       style="vector-effect:non-scaling-stroke;-inkscape-stroke:hairline;stroke-width:0.26458333;stroke-dasharray:none" />
    <path
       d="M 654.9841163477902,28.0 L 678.6950054802455,28.0 L 678.6950054802455,29.46974411167423 L 666.8395609140179,36.31448822334846 L 654.9841163477902,29.46974411167423 L 654.9841163477902,28.0 Z"
       id="path129"
       style="vector-effect:non-scaling-stroke;-inkscape-stroke:hairline;stroke-width:0.26458333;stroke-dasharray:none" />
    <path
       d="M 276.0980021920982,147.03025588832574 L 287.95344675832587,140.1855117766515 L 299.80889132455354,147.03025588832577 L 299.80889132455354,148.5 L 276.0980021920982,148.5 L 276.0980021920982,147.03025588832574 Z"
       id="path130"
       style="vector-effect:non-scaling-stroke;-inkscape-stroke:hairline;stroke-width:0.26458333;stroke-dasharray:none" />
    <path
       d="M 442.8078924206026,28.0 L 466.518781553058,28.0 L 466.518781553058,29.46974411167426 L 454.6633369868303,36.31448822334849 L 442.8078924206026,29.46974411167426 L 442.8078924206026,28.0 Z"
       id="path131"
       style="vector-effect:non-scaling-stroke;-inkscape-stroke:hairline;stroke-width:0.26458333;stroke-dasharray:none" />
    <path
       d="M 518.585115251741,147.03025588832577 L 530.4405598179686,140.1855117766515 L 542.2960043841964,147.0302558883258 L 542.2960043841964,148.5 L 518.585115251741,148.5 L 518.585115251741,147.03025588832577 Z"
       id="path132"
       style="vector-effect:non-scaling-stroke;-inkscape-stroke:hairline;stroke-width:0.26458333;stroke-dasharray:none" />
    <path
       d="M 700.4504500464731,147.03025588832577 L 712.3058946127007,140.1855117766515 L 724.1613391789285,147.0302558883258 L 724.1613391789285,148.5 L 700.4504500464731,148.5 L 700.4504500464731,147.03025588832577 Z"
       id="path133"
       style="vector-effect:non-scaling-stroke;-inkscape-stroke:hairline;stroke-width:0.26458333;stroke-dasharray:none" />
    <path
       d="M 351.87522502323657,28.0 L 375.5861141556919,28.0 L 375.5861141556919,29.46974411167426 L 363.73066958946424,36.31448822334849 L 351.87522502323657,29.46974411167426 L 351.87522502323657,28.0 Z"
       id="path134"
       style="vector-effect:non-scaling-stroke;-inkscape-stroke:hairline;stroke-width:0.26458333;stroke-dasharray:none" />
    <path
       d="M 321.56433589078125,28.0 L 345.2752250232366,28.0 L 345.2752250232366,29.46974411167426 L 333.4197804570089,36.31448822334849 L 321.56433589078125,29.46974411167426 L 321.56433589078125,28.0 Z"
       id="path135"
       style="vector-effect:non-scaling-stroke;-inkscape-stroke:hairline;stroke-width:0.26458333;stroke-dasharray:none" />
    <path
       d="M 306.40889132455357,147.03025588832574 L 318.26433589078124,140.1855117766515 L 330.1197804570089,147.03025588832577 L 330.1197804570089,148.5 L 306.40889132455357,148.5 L 306.40889132455357,147.03025588832574 Z"
       id="path136"
       style="vector-effect:non-scaling-stroke;-inkscape-stroke:hairline;stroke-width:0.26458333;stroke-dasharray:none" />
    <path
       d="M 367.03066958946425,147.03025588832574 L 378.8861141556919,140.1855117766515 L 390.7415587219196,147.03025588832577 L 390.7415587219196,148.5 L 367.03066958946425,148.5 L 367.03066958946425,147.03025588832574 Z"
       id="path137"
       style="vector-effect:non-scaling-stroke;-inkscape-stroke:hairline;stroke-width:0.26458333;stroke-dasharray:none" />
    <path
       d="M 503.4296706855133,28.0 L 527.1405598179687,28.0 L 527.1405598179687,29.46974411167423 L 515.285115251741,36.31448822334846 L 503.4296706855133,29.46974411167426 L 503.4296706855133,28.0 Z"
       id="path138"
       style="vector-effect:non-scaling-stroke;-inkscape-stroke:hairline;stroke-width:0.26458333;stroke-dasharray:none" />
    <path
       d="M 806.5385620100669,28.0 L 830.2494511425223,28.0 L 830.2494511425223,29.46974411167423 L 818.3940065762946,36.31448822334846 L 806.5385620100669,29.46974411167423 L 806.5385620100669,28.0 Z"
       id="path139"
       style="vector-effect:non-scaling-stroke;-inkscape-stroke:hairline;stroke-width:0.26458333;stroke-dasharray:none" />
    <path
       d="M 912.6266739736606,147.03025588832577 L 924.4821185398882,140.1855117766515 L 936.337563106116,147.0302558883258 L 936.337563106116,148.5 L 912.6266739736606,148.5 L 912.6266739736606,147.03025588832577 Z"
       id="path140"
       style="vector-effect:non-scaling-stroke;-inkscape-stroke:hairline;stroke-width:0.26458333;stroke-dasharray:none" />
    <path
       d="M 927.7821185398883,28.0 L 951.4930076723437,28.0 L 951.4930076723437,29.46974411167423 L 939.637563106116,36.31448822334846 L 927.7821185398883,29.46974411167423 L 927.7821185398883,28.0 Z"
       id="path141"
       style="vector-effect:non-scaling-stroke;-inkscape-stroke:hairline;stroke-width:0.26458333;stroke-dasharray:none" />
    <path
       d="M 670.1395609140178,147.03025588832577 L 681.9950054802455,140.1855117766515 L 693.8504500464733,147.0302558883258 L 693.8504500464733,148.5 L 670.1395609140178,148.5 L 670.1395609140178,147.03025588832577 Z"
       id="path142"
       style="vector-effect:non-scaling-stroke;-inkscape-stroke:hairline;stroke-width:0.26458333;stroke-dasharray:none" />
    <path
       d="M 609.5177826491071,147.03025588832577 L 621.3732272153347,140.1855117766515 L 633.2286717815625,147.0302558883258 L 633.2286717815625,148.5 L 609.5177826491071,148.5 L 609.5177826491071,147.03025588832577 Z"
       id="path143"
       style="vector-effect:non-scaling-stroke;-inkscape-stroke:hairline;stroke-width:0.26458333;stroke-dasharray:none" />
    <path
       d="M 548.8960043841963,147.03025588832577 L 560.751448950424,140.1855117766515 L 572.6068935166518,147.0302558883258 L 572.6068935166518,148.5 L 548.8960043841963,148.5 L 548.8960043841963,147.03025588832577 Z"
       id="path144"
       style="vector-effect:non-scaling-stroke;-inkscape-stroke:hairline;stroke-width:0.26458333;stroke-dasharray:none" />
    <path
       d="M 230.63166849341516,28.0 L 254.34255762587048,28.0 L 254.34255762587048,29.46974411167423 L 242.48711305964284,36.31448822334846 L 230.63166849341516,29.46974411167423 L 230.63166849341516,28.0 Z"
       id="path145"
       style="vector-effect:non-scaling-stroke;-inkscape-stroke:hairline;stroke-width:0.26458333;stroke-dasharray:none" />
    <path
       d="M 988.403896804799,28.0 L 1012.1147859372544,28.0 L 1012.1147859372544,29.46974411167423 L 1000.2593413710267,36.31448822334846 L 988.403896804799,29.46974411167423 L 988.403896804799,28.0 Z"
       id="path146"
       style="vector-effect:non-scaling-stroke;-inkscape-stroke:hairline;stroke-width:0.26458333;stroke-dasharray:none" />
    <path
       d="M 170.00989022850445,28.0 L 193.72077936095977,28.0 L 193.72077936095977,29.46974411167423 L 181.86533479473212,36.31448822334846 L 170.00989022850445,29.46974411167423 L 170.00989022850445,28.0 Z"
       id="path147"
       style="vector-effect:non-scaling-stroke;-inkscape-stroke:hairline;stroke-width:0.26458333;stroke-dasharray:none" />
    <path
       d="M 412.4970032881473,28.0 L 436.20789242060266,28.0 L 436.20789242060266,29.46974411167426 L 424.352447854375,36.31448822334849 L 412.4970032881473,29.46974411167426 L 412.4970032881473,28.0 Z"
       id="path148"
       style="vector-effect:non-scaling-stroke;-inkscape-stroke:hairline;stroke-width:0.26458333;stroke-dasharray:none" />
    <path
       d="M 382.18611415569194,28.0 L 405.8970032881473,28.0 L 405.8970032881473,29.46974411167426 L 394.0415587219196,36.31448822334849 L 382.18611415569194,29.46974411167426 L 382.18611415569194,28.0 Z"
       id="path149"
       style="vector-effect:non-scaling-stroke;-inkscape-stroke:hairline;stroke-width:0.26458333;stroke-dasharray:none" />
    <path
       d="M 639.8286717815624,147.03025588832577 L 651.6841163477901,140.1855117766515 L 663.5395609140179,147.0302558883258 L 663.5395609140179,148.5 L 639.8286717815624,148.5 L 639.8286717815624,147.03025588832577 Z"
       id="path150"
       style="vector-effect:non-scaling-stroke;-inkscape-stroke:hairline;stroke-width:0.26458333;stroke-dasharray:none" />
    <path
       d="M 836.8494511425223,28.0 L 860.5603402749776,28.0 L 860.5603402749776,29.46974411167423 L 848.70489570875,36.31448822334846 L 836.8494511425223,29.46974411167423 L 836.8494511425223,28.0 Z"
       id="path151"
       style="vector-effect:non-scaling-stroke;-inkscape-stroke:hairline;stroke-width:0.26458333;stroke-dasharray:none" />
    <path
       d="M 1003.5593413710267,147.03025588832577 L 1015.4147859372544,140.18551177665154 L 1027.270230503482,147.03025588832585 L 1027.270230503482,148.5 L 1003.5593413710267,148.5 L 1003.5593413710267,147.03025588832577 Z"
       id="path152"
       style="vector-effect:non-scaling-stroke;-inkscape-stroke:hairline;stroke-width:0.26458333;stroke-dasharray:none" />
    <path
       d="M 897.4712294074329,28.0 L 921.1821185398883,28.0 L 921.1821185398883,29.46974411167423 L 909.3266739736606,36.31448822334846 L 897.4712294074329,29.46974411167423 L 897.4712294074329,28.0 Z"
       id="path153"
       style="vector-effect:non-scaling-stroke;-inkscape-stroke:hairline;stroke-width:0.26458333;stroke-dasharray:none" />
    <path
       d="M 163.40989022850442,29.46974411167423 L 152.39006036599312,35.832045849219014 L 152.39006036599312,28.0 L 163.40989022850442,28.0 L 163.40989022850442,29.46974411167423 Z"
       id="path154"
       style="vector-effect:non-scaling-stroke;-inkscape-stroke:hairline;stroke-width:0.26458333;stroke-dasharray:none" />
    <path
       d="M 533.7405598179687,28.0 L 557.451448950424,28.0 L 557.451448950424,29.46974411167423 L 545.5960043841964,36.31448822334846 L 533.7405598179687,29.46974411167423 L 533.7405598179687,28.0 Z"
       id="path155"
       style="vector-effect:non-scaling-stroke;-inkscape-stroke:hairline;stroke-width:0.26458333;stroke-dasharray:none" />
    <path
       d="M 958.0930076723437,28.0 L 981.803896804799,28.0 L 981.803896804799,29.46974411167423 L 969.9484522385713,36.31448822334846 L 958.0930076723437,29.46974411167423 L 958.0930076723437,28.0 Z"
       id="path156"
       style="vector-effect:non-scaling-stroke;-inkscape-stroke:hairline;stroke-width:0.26458333;stroke-dasharray:none" />
    <path
       d="M 791.3831174438392,147.03025588832577 L 803.2385620100669,140.1855117766515 L 815.0940065762946,147.0302558883258 L 815.0940065762946,148.5 L 791.3831174438392,148.5 L 791.3831174438392,147.03025588832577 Z"
       id="path157"
       style="vector-effect:non-scaling-stroke;-inkscape-stroke:hairline;stroke-width:0.26458333;stroke-dasharray:none" />
    <path
       d="M 745.9167837451562,28.0 L 769.6276728776115,28.0 L 769.6276728776115,29.46974411167423 L 757.7722283113839,36.31448822334846 L 745.9167837451562,29.46974411167423 L 745.9167837451562,28.0 Z"
       id="path158"
       style="vector-effect:non-scaling-stroke;-inkscape-stroke:hairline;stroke-width:0.26458333;stroke-dasharray:none" />
    <path
       d="M 867.1603402749776,28.0 L 890.8712294074329,28.0 L 890.8712294074329,29.46974411167423 L 879.0157848412052,36.31448822334846 L 867.1603402749776,29.46974411167423 L 867.1603402749776,28.0 Z"
       id="path159"
       style="vector-effect:non-scaling-stroke;-inkscape-stroke:hairline;stroke-width:0.26458333;stroke-dasharray:none" />
    <path
       d="M 336.71978045700894,147.03025588832574 L 348.5752250232366,140.1855117766515 L 360.4306695894643,147.03025588832577 L 360.4306695894643,148.5 L 336.71978045700894,148.5 L 336.71978045700894,147.03025588832574 Z"
       id="path160"
       style="vector-effect:non-scaling-stroke;-inkscape-stroke:hairline;stroke-width:0.26458333;stroke-dasharray:none" />
    <path
       d="M 882.3157848412052,147.03025588832577 L 894.1712294074329,140.1855117766515 L 906.0266739736606,147.0302558883258 L 906.0266739736606,148.5 L 882.3157848412052,148.5 L 882.3157848412052,147.03025588832577 Z"
       id="path161"
       style="vector-effect:non-scaling-stroke;-inkscape-stroke:hairline;stroke-width:0.26458333;stroke-dasharray:none" />
    <path
       d="M 761.0722283113838,147.03025588832577 L 772.9276728776115,140.1855117766515 L 784.7831174438393,147.0302558883258 L 784.7831174438393,148.5 L 761.0722283113838,148.5 L 761.0722283113838,147.03025588832577 Z"
       id="path162"
       style="vector-effect:non-scaling-stroke;-inkscape-stroke:hairline;stroke-width:0.26458333;stroke-dasharray:none" />
    <path
       d="M 624.6732272153348,28.0 L 648.3841163477902,28.0 L 648.3841163477902,29.46974411167423 L 636.5286717815625,36.31448822334846 L 624.6732272153348,29.46974411167423 L 624.6732272153348,28.0 Z"
       id="path163"
       style="vector-effect:non-scaling-stroke;-inkscape-stroke:hairline;stroke-width:0.26458333;stroke-dasharray:none" />
    <path
       d="M 260.9425576258705,28.0 L 284.65344675832586,28.0 L 284.65344675832586,29.46974411167426 L 272.7980021920982,36.31448822334849 L 260.9425576258705,29.46974411167426 L 260.9425576258705,28.0 Z"
       id="path164"
       style="vector-effect:non-scaling-stroke;-inkscape-stroke:hairline;stroke-width:0.26458333;stroke-dasharray:none" />
    <path
       d="M 152.39006036599312,114.41795415078099 L 163.40989022850445,120.78025588832577 L 163.40989022850442,134.46974411167423 L 152.39006036599312,140.832045849219 L 152.39006036599312,114.41795415078099 Z"
       id="path165"
       style="vector-effect:non-scaling-stroke;-inkscape-stroke:hairline;stroke-width:0.26458333;stroke-dasharray:none" />
    <path
       d="M 427.652447854375,147.03025588832574 L 439.5078924206027,140.1855117766515 L 451.36333698683035,147.03025588832577 L 451.36333698683035,148.5 L 427.652447854375,148.5 L 427.652447854375,147.03025588832574 Z"
       id="path166"
       style="vector-effect:non-scaling-stroke;-inkscape-stroke:hairline;stroke-width:0.26458333;stroke-dasharray:none" />
    <path
       d="M 457.9633369868303,147.03025588832574 L 469.818781553058,140.1855117766515 L 481.67422611928566,147.03025588832577 L 481.67422611928566,148.5 L 457.9633369868303,148.5 L 457.9633369868303,147.03025588832574 Z"
       id="path167"
       style="vector-effect:non-scaling-stroke;-inkscape-stroke:hairline;stroke-width:0.26458333;stroke-dasharray:none" />
    <path
       d="M 1033.870230503482,55.719744111674146 L 1033.870230503482,42.030255888325854 L 1044.8900603659931,35.667954150781185 L 1044.8900603659931,62.08204584921883 L 1033.870230503482,55.719744111674146 Z"
       id="path168"
       style="vector-effect:non-scaling-stroke;-inkscape-stroke:hairline;stroke-width:0.26458333;stroke-dasharray:none" />
    <path
       d="M 185.16533479473213,147.03025588832577 L 197.0207793609598,140.18551177665154 L 208.87622392718748,147.03025588832577 L 208.87622392718748,148.5 L 185.16533479473213,148.5 L 185.16533479473213,147.03025588832577 Z"
       id="path169"
       style="vector-effect:non-scaling-stroke;-inkscape-stroke:hairline;stroke-width:0.26458333;stroke-dasharray:none" />
    <path
       d="M 397.3415587219196,147.03025588832574 L 409.1970032881473,140.1855117766515 L 421.052447854375,147.03025588832577 L 421.052447854375,148.5 L 397.3415587219196,148.5 L 397.3415587219196,147.03025588832574 Z"
       id="path170"
       style="vector-effect:non-scaling-stroke;-inkscape-stroke:hairline;stroke-width:0.26458333;stroke-dasharray:none" />
    <path
       d="M 821.6940065762946,147.03025588832577 L 833.5494511425222,140.1855117766515 L 845.40489570875,147.0302558883258 L 845.40489570875,148.5 L 821.6940065762946,148.5 L 821.6940065762946,147.03025588832577 Z"
       id="path171"
       style="vector-effect:non-scaling-stroke;-inkscape-stroke:hairline;stroke-width:0.26458333;stroke-dasharray:none" />
    <path
       d="M 1018.7147859372543,28.0 L 1042.4256750697098,28.0 L 1042.4256750697098,29.469744111674146 L 1030.570230503482,36.314488223348405 L 1018.7147859372543,29.469744111674203 L 1018.7147859372543,28.0 Z"
       id="path172"
       style="vector-effect:non-scaling-stroke;-inkscape-stroke:hairline;stroke-width:0.26458333;stroke-dasharray:none" />
    <path
       d="M 152.39006036599312,61.917954150780986 L 163.40989022850445,68.28025588832577 L 163.40989022850442,81.96974411167423 L 152.39006036599312,88.33204584921901 L 152.39006036599312,61.917954150780986 Z"
       id="path173"
       style="vector-effect:non-scaling-stroke;-inkscape-stroke:hairline;stroke-width:0.26458333;stroke-dasharray:none" />
    <path
       d="M 776.2276728776116,28.0 L 799.9385620100669,28.0 L 799.9385620100669,29.46974411167423 L 788.0831174438392,36.31448822334846 L 776.2276728776116,29.46974411167423 L 776.2276728776116,28.0 Z"
       id="path174"
       style="vector-effect:non-scaling-stroke;-inkscape-stroke:hairline;stroke-width:0.26458333;stroke-dasharray:none" />
    <path
       d="M 685.2950054802454,28.0 L 709.0058946127008,28.0 L 709.0058946127008,29.46974411167423 L 697.1504500464731,36.31448822334846 L 685.2950054802454,29.46974411167423 L 685.2950054802454,28.0 Z"
       id="path175"
       style="vector-effect:non-scaling-stroke;-inkscape-stroke:hairline;stroke-width:0.26458333;stroke-dasharray:none" />
    <path
       d="M 730.7613391789284,147.03025588832577 L 742.6167837451561,140.1855117766515 L 754.4722283113839,147.0302558883258 L 754.4722283113839,148.5 L 730.7613391789284,148.5 L 730.7613391789284,147.03025588832577 Z"
       id="path176"
       style="vector-effect:non-scaling-stroke;-inkscape-stroke:hairline;stroke-width:0.26458333;stroke-dasharray:none" />
    <path
       d="M 942.9375631061159,147.03025588832577 L 954.7930076723436,140.1855117766515 L 966.6484522385714,147.0302558883258 L 966.6484522385714,148.5 L 942.9375631061159,148.5 L 942.9375631061159,147.03025588832577 Z"
       id="path177"
       style="vector-effect:non-scaling-stroke;-inkscape-stroke:hairline;stroke-width:0.26458333;stroke-dasharray:none" />
    <path
       d="M 215.4762239271875,147.03025588832577 L 227.33166849341518,140.18551177665154 L 239.18711305964285,147.03025588832577 L 239.18711305964285,148.5 L 215.4762239271875,148.5 L 215.4762239271875,147.03025588832577 Z"
       id="path178"
       style="vector-effect:non-scaling-stroke;-inkscape-stroke:hairline;stroke-width:0.26458333;stroke-dasharray:none" />
    <path
       d="M 200.32077936095982,28.0 L 224.03166849341514,28.0 L 224.03166849341514,29.46974411167423 L 212.1762239271875,36.31448822334846 L 200.32077936095982,29.46974411167423 L 200.32077936095982,28.0 Z"
       id="path179"
       style="vector-effect:non-scaling-stroke;-inkscape-stroke:hairline;stroke-width:0.26458333;stroke-dasharray:none" />
    <path
       d="M 473.118781553058,28.0 L 496.82967068551335,28.0 L 496.82967068551335,29.46974411167426 L 484.9742261192857,36.31448822334849 L 473.118781553058,29.46974411167426 L 473.118781553058,28.0 Z"
       id="path180"
       style="vector-effect:non-scaling-stroke;-inkscape-stroke:hairline;stroke-width:0.26458333;stroke-dasharray:none" />
    <path
       d="M 146.39006036599312,176.5 L 1050.8900603659931,176.5 L 1050.8900603659931,0.0 L 146.39006036599312,0.0 L 146.39006036599312,176.5 Z"
       id="path181"
       style="vector-effect:non-scaling-stroke;-inkscape-stroke:hairline;stroke-width:0.26458333;stroke-dasharray:none" />
  </g>
  <path
     style="fill:none;stroke:#000000;stroke-width:1.265;stroke-linecap:butt;stroke-linejoin:miter;stroke-dasharray:none;stroke-opacity:1;marker-start:url(#Stop);marker-end:url(#Stop)"
     d="M 106.55368,61.315984 V 237.81598"
     id="path202" />
  <text
     xml:space="preserve"
     style="font-size:25.4px;line-height:1.25;font-family:'Noto Mono';-inkscape-font-specification:'Noto Mono';word-spacing:0px;stroke-width:0.264583"
     x="41.947624"
     y="158.63213"
     id="text203"><tspan
       sodipodi:role="line"
       id="tspan203"
       style="stroke-width:0.264583"
       x="41.947624"
       y="158.63213">177</tspan></text>
  <text
     xml:space="preserve"
     style="font-size:25.4px;line-height:1.25;font-family:'Noto Mono';-inkscape-font-specification:'Noto Mono';word-spacing:0px;stroke-width:0.264583"
     x="478.58588"
     y="39.713371"
     id="text203-6"><tspan
       sodipodi:role="line"
       id="tspan203-7"
       style="stroke-width:0.264583"
       x="478.58588"
       y="39.713371">Tabica 1.6 y 1.7</tspan></text>
  <path
     style="fill:none;stroke:#000000;stroke-width:1.265;stroke-linecap:butt;stroke-linejoin:miter;stroke-dasharray:none;stroke-opacity:1;marker-start:url(#Stop);marker-end:url(#Stop)"
     d="M 1072.6734,89.565984 V 209.56598"
     id="path204"
     sodipodi:nodetypes="cc" />
  <text
     xml:space="preserve"
     style="font-size:25.4px;line-height:1.25;font-family:'Noto Mono';-inkscape-font-specification:'Noto Mono';word-spacing:0px;stroke-width:0.264583"
     x="1096.4995"
     y="158.76234"
     id="text204"><tspan
       sodipodi:role="line"
       id="tspan204"
       style="stroke-width:0.264583"
       x="1096.4995"
       y="158.76234">112</tspan></text>
  <path
     style="fill:none;stroke:#000000;stroke-width:1.265;stroke-linecap:butt;stroke-linejoin:miter;stroke-dasharray:none;stroke-opacity:1;marker-start:url(#Stop);marker-end:url(#Stop)"
     d="M 1052.3302,253.16191 H 147.82902"
     id="path205"
     sodipodi:nodetypes="cc" />
  <text
     xml:space="preserve"
     style="font-size:25.4px;line-height:1.25;font-family:'Noto Mono';-inkscape-font-specification:'Noto Mono';word-spacing:0px;stroke-width:0.264583"
     x="577.33948"
     y="281.069"
     id="text205"><tspan
       sodipodi:role="line"
       id="tspan205"
       style="stroke-width:0.264583"
       x="577.33948"
       y="281.069">905</tspan></text>
</svg>
