  0
SECTION
  2
HEADER
  9
$ACADVER
  1
AC1014
  9
$HANDSEED
  5
FFFF
  9
$INSUNITS
 70
     4
  9
$MEASUREMENT
 70
     1
  0
ENDSEC
  0
SECTION
  2
TABLES
  0
TABLE
  2
VPORT
  5
8
330
0
100
AcDbSymbolTable
 70
     4
  0
VPORT
  5
2E
330
8
100
AcDbSymbolTableRecord
100
AcDbViewportTableRecord
  2
*ACTIVE
 70
     0
 10
0.0
 20
0.0
 11
1.0
 21
1.0
 12
210.0
 22
148.5
 13
0.0
 23
0.0
 14
10.0
 24
10.0
 15
10.0
 25
10.0
 16
0.0
 26
0.0
 36
1.0
 17
0.0
 27
0.0
 37
0.0
 40
341.0
 41
1.24
 42
50.0
 43
0.0
 44
0.0
 50
0.0
 51
0.0
 71
     0
 72
   100
 73
     1
 74
     3
 75
     0
 76
     0
 77
     0
 78
     0
  0
ENDTAB
  0
TABLE
  2
LTYPE
  5
5
330
0
100
AcDbSymbolTable
 70
     1
  0
LTYPE
  5
14
330
5
100
AcDbSymbolTableRecord
100
AcDbLinetypeTableRecord
  2
BYBLOCK
 70
     0
  3

 72
    65
 73
     0
 40
0.0
  0
LTYPE
  5
15
330
5
100
AcDbSymbolTableRecord
100
AcDbLinetypeTableRecord
  2
BYLAYER
 70
     0
  3

 72
    65
 73
     0
 40
0.0
  0
LTYPE
  5
16
330
5
100
AcDbSymbolTableRecord
100
AcDbLinetypeTableRecord
  2
CONTINUOUS
 70
     0
  3
Solid line
 72
    65
 73
     0
 40
0.0
  0
ENDTAB
  0
TABLE
  2
LAYER
  5
2
100
AcDbSymbolTable
 70
1
  0
LAYER
  5
50
100
AcDbSymbolTableRecord
100
AcDbLayerTableRecord
  2
0
 70
0
  6
CONTINUOUS
  0
ENDTAB
  0
TABLE
  2
STYLE
  5
3
330
0
100
AcDbSymbolTable
 70
     1
  0
STYLE
  5
11
330
3
100
AcDbSymbolTableRecord
100
AcDbTextStyleTableRecord
  2
STANDARD
 70
     0
 40
0.0
 41
1.0
 50
0.0
 71
     0
 42
2.5
  3
txt
  4

  0
ENDTAB
  0
TABLE
  2
VIEW
  5
6
330
0
100
AcDbSymbolTable
 70
     0
  0
ENDTAB
  0
TABLE
  2
UCS
  5
7
330
0
100
AcDbSymbolTable
 70
     0
  0
ENDTAB
  0
TABLE
  2
APPID
  5
9
330
0
100
AcDbSymbolTable
 70
     2
  0
APPID
  5
12
330
9
100
AcDbSymbolTableRecord
100
AcDbRegAppTableRecord
  2
ACAD
 70
     0
  0
ENDTAB
  0
TABLE
  2
DIMSTYLE
  5
A
330
0
100
AcDbSymbolTable
 70
     1
  0
DIMSTYLE
105
27
330
A
100
AcDbSymbolTableRecord
100
AcDbDimStyleTableRecord
  2
ISO-25
 70
     0
  3

  4

  5

  6

  7

 40
1.0
 41
2.5
 42
0.625
 43
3.75
 44
1.25
 45
0.0
 46
0.0
 47
0.0
 48
0.0
140
2.5
141
2.5
142
0.0
143
0.03937007874016
144
1.0
145
0.0
146
1.0
147
0.625
 71
     0
 72
     0
 73
     0
 74
     0
 75
     0
 76
     0
 77
     1
 78
     8
170
     0
171
     3
172
     1
173
     0
174
     0
175
     0
176
     0
177
     0
178
     0
270
     2
271
     2
272
     2
273
     2
274
     3
340
11
275
     0
280
     0
281
     0
282
     0
283
     0
284
     8
285
     0
286
     0
287
     3
288
     0
  0
ENDTAB
  0
TABLE
  2
BLOCK_RECORD
  5
1
330
0
100
AcDbSymbolTable
 70
     1
  0
BLOCK_RECORD
  5
1F
330
1
100
AcDbSymbolTableRecord
100
AcDbBlockTableRecord
  2
*MODEL_SPACE
  0
BLOCK_RECORD
  5
1B
330
1
100
AcDbSymbolTableRecord
100
AcDbBlockTableRecord
  2
*PAPER_SPACE
  0
ENDTAB
  0
ENDSEC
  0
SECTION
  2
BLOCKS
  0
BLOCK
  5
20
330
1F
100
AcDbEntity
  8
0
100
AcDbBlockBegin
  2
*MODEL_SPACE
 70
     0
 10
0.0
 20
0.0
 30
0.0
  3
*MODEL_SPACE
  1

  0
ENDBLK
  5
21
330
1F
100
AcDbEntity
  8
0
100
AcDbBlockEnd
  0
BLOCK
  5
1C
330
1B
100
AcDbEntity
 67
     1
  8
0
100
AcDbBlockBegin
  2
*PAPER_SPACE
  1

  0
ENDBLK
  5
1D
330
1B
100
AcDbEntity
 67
     1
  8
0
100
AcDbBlockEnd
  0
ENDSEC
  0
SECTION
  2
ENTITIES
  0
LWPOLYLINE
  5
100
100
AcDbEntity
  8
0
 62
7
100
AcDbPolyline
 90
7
 70
1
 10
168.069830
 20
150.564488
 30
0.0
 10
179.925275
 20
143.719744
 30
0.0
 10
179.925275
 20
130.030256
 30
0.0
 10
168.069830
 20
123.185512
 30
0.0
 10
156.214386
 20
130.030256
 30
0.0
 10
156.214386
 20
143.719744
 30
0.0
 10
168.069830
 20
150.564488
 30
0.0
  0
LWPOLYLINE
  5
101
100
AcDbEntity
  8
0
 62
7
100
AcDbPolyline
 90
7
 70
1
 10
168.069830
 20
203.064488
 30
0.0
 10
179.925275
 20
196.219744
 30
0.0
 10
179.925275
 20
182.530256
 30
0.0
 10
168.069830
 20
175.685512
 30
0.0
 10
156.214386
 20
182.530256
 30
0.0
 10
156.214386
 20
196.219744
 30
0.0
 10
168.069830
 20
203.064488
 30
0.0
  0
LWPOLYLINE
  5
102
100
AcDbEntity
  8
0
 62
7
100
AcDbPolyline
 90
7
 70
1
 10
183.225275
 20
124.314488
 30
0.0
 10
195.080719
 20
117.469744
 30
0.0
 10
195.080719
 20
103.780256
 30
0.0
 10
183.225275
 20
96.935512
 30
0.0
 10
171.369830
 20
103.780256
 30
0.0
 10
171.369830
 20
117.469744
 30
0.0
 10
183.225275
 20
124.314488
 30
0.0
  0
LWPOLYLINE
  5
103
100
AcDbEntity
  8
0
 62
7
100
AcDbPolyline
 90
7
 70
1
 10
198.380719
 20
150.564488
 30
0.0
 10
210.236164
 20
143.719744
 30
0.0
 10
210.236164
 20
130.030256
 30
0.0
 10
198.380719
 20
123.185512
 30
0.0
 10
186.525275
 20
130.030256
 30
0.0
 10
186.525275
 20
143.719744
 30
0.0
 10
198.380719
 20
150.564488
 30
0.0
  0
LWPOLYLINE
  5
104
100
AcDbEntity
  8
0
 62
7
100
AcDbPolyline
 90
7
 70
1
 10
183.225275
 20
176.814488
 30
0.0
 10
195.080719
 20
169.969744
 30
0.0
 10
195.080719
 20
156.280256
 30
0.0
 10
183.225275
 20
149.435512
 30
0.0
 10
171.369830
 20
156.280256
 30
0.0
 10
171.369830
 20
169.969744
 30
0.0
 10
183.225275
 20
176.814488
 30
0.0
  0
LWPOLYLINE
  5
105
100
AcDbEntity
  8
0
 62
7
100
AcDbPolyline
 90
7
 70
1
 10
198.380719
 20
203.064488
 30
0.0
 10
210.236164
 20
196.219744
 30
0.0
 10
210.236164
 20
182.530256
 30
0.0
 10
198.380719
 20
175.685512
 30
0.0
 10
186.525275
 20
182.530256
 30
0.0
 10
186.525275
 20
196.219744
 30
0.0
 10
198.380719
 20
203.064488
 30
0.0
  0
LWPOLYLINE
  5
106
100
AcDbEntity
  8
0
 62
7
100
AcDbPolyline
 90
7
 70
1
 10
213.536164
 20
124.314488
 30
0.0
 10
225.391608
 20
117.469744
 30
0.0
 10
225.391608
 20
103.780256
 30
0.0
 10
213.536164
 20
96.935512
 30
0.0
 10
201.680719
 20
103.780256
 30
0.0
 10
201.680719
 20
117.469744
 30
0.0
 10
213.536164
 20
124.314488
 30
0.0
  0
LWPOLYLINE
  5
107
100
AcDbEntity
  8
0
 62
7
100
AcDbPolyline
 90
7
 70
1
 10
228.691608
 20
150.564488
 30
0.0
 10
240.547053
 20
143.719744
 30
0.0
 10
240.547053
 20
130.030256
 30
0.0
 10
228.691608
 20
123.185512
 30
0.0
 10
216.836164
 20
130.030256
 30
0.0
 10
216.836164
 20
143.719744
 30
0.0
 10
228.691608
 20
150.564488
 30
0.0
  0
LWPOLYLINE
  5
108
100
AcDbEntity
  8
0
 62
7
100
AcDbPolyline
 90
7
 70
1
 10
213.536164
 20
176.814488
 30
0.0
 10
225.391608
 20
169.969744
 30
0.0
 10
225.391608
 20
156.280256
 30
0.0
 10
213.536164
 20
149.435512
 30
0.0
 10
201.680719
 20
156.280256
 30
0.0
 10
201.680719
 20
169.969744
 30
0.0
 10
213.536164
 20
176.814488
 30
0.0
  0
LWPOLYLINE
  5
109
100
AcDbEntity
  8
0
 62
7
100
AcDbPolyline
 90
7
 70
1
 10
228.691608
 20
203.064488
 30
0.0
 10
240.547053
 20
196.219744
 30
0.0
 10
240.547053
 20
182.530256
 30
0.0
 10
228.691608
 20
175.685512
 30
0.0
 10
216.836164
 20
182.530256
 30
0.0
 10
216.836164
 20
196.219744
 30
0.0
 10
228.691608
 20
203.064488
 30
0.0
  0
LWPOLYLINE
  5
10a
100
AcDbEntity
  8
0
 62
7
100
AcDbPolyline
 90
7
 70
1
 10
243.847053
 20
124.314488
 30
0.0
 10
255.702498
 20
117.469744
 30
0.0
 10
255.702498
 20
103.780256
 30
0.0
 10
243.847053
 20
96.935512
 30
0.0
 10
231.991608
 20
103.780256
 30
0.0
 10
231.991608
 20
117.469744
 30
0.0
 10
243.847053
 20
124.314488
 30
0.0
  0
LWPOLYLINE
  5
10b
100
AcDbEntity
  8
0
 62
7
100
AcDbPolyline
 90
7
 70
1
 10
259.002498
 20
150.564488
 30
0.0
 10
270.857942
 20
143.719744
 30
0.0
 10
270.857942
 20
130.030256
 30
0.0
 10
259.002498
 20
123.185512
 30
0.0
 10
247.147053
 20
130.030256
 30
0.0
 10
247.147053
 20
143.719744
 30
0.0
 10
259.002498
 20
150.564488
 30
0.0
  0
LWPOLYLINE
  5
10c
100
AcDbEntity
  8
0
 62
7
100
AcDbPolyline
 90
7
 70
1
 10
243.847053
 20
176.814488
 30
0.0
 10
255.702498
 20
169.969744
 30
0.0
 10
255.702498
 20
156.280256
 30
0.0
 10
243.847053
 20
149.435512
 30
0.0
 10
231.991608
 20
156.280256
 30
0.0
 10
231.991608
 20
169.969744
 30
0.0
 10
243.847053
 20
176.814488
 30
0.0
  0
LWPOLYLINE
  5
10d
100
AcDbEntity
  8
0
 62
7
100
AcDbPolyline
 90
7
 70
1
 10
259.002498
 20
203.064488
 30
0.0
 10
270.857942
 20
196.219744
 30
0.0
 10
270.857942
 20
182.530256
 30
0.0
 10
259.002498
 20
175.685512
 30
0.0
 10
247.147053
 20
182.530256
 30
0.0
 10
247.147053
 20
196.219744
 30
0.0
 10
259.002498
 20
203.064488
 30
0.0
  0
LWPOLYLINE
  5
10e
100
AcDbEntity
  8
0
 62
7
100
AcDbPolyline
 90
7
 70
1
 10
274.157942
 20
124.314488
 30
0.0
 10
286.013387
 20
117.469744
 30
0.0
 10
286.013387
 20
103.780256
 30
0.0
 10
274.157942
 20
96.935512
 30
0.0
 10
262.302498
 20
103.780256
 30
0.0
 10
262.302498
 20
117.469744
 30
0.0
 10
274.157942
 20
124.314488
 30
0.0
  0
LWPOLYLINE
  5
10f
100
AcDbEntity
  8
0
 62
7
100
AcDbPolyline
 90
7
 70
1
 10
289.313387
 20
150.564488
 30
0.0
 10
301.168831
 20
143.719744
 30
0.0
 10
301.168831
 20
130.030256
 30
0.0
 10
289.313387
 20
123.185512
 30
0.0
 10
277.457942
 20
130.030256
 30
0.0
 10
277.457942
 20
143.719744
 30
0.0
 10
289.313387
 20
150.564488
 30
0.0
  0
LWPOLYLINE
  5
110
100
AcDbEntity
  8
0
 62
7
100
AcDbPolyline
 90
7
 70
1
 10
274.157942
 20
176.814488
 30
0.0
 10
286.013387
 20
169.969744
 30
0.0
 10
286.013387
 20
156.280256
 30
0.0
 10
274.157942
 20
149.435512
 30
0.0
 10
262.302498
 20
156.280256
 30
0.0
 10
262.302498
 20
169.969744
 30
0.0
 10
274.157942
 20
176.814488
 30
0.0
  0
LWPOLYLINE
  5
111
100
AcDbEntity
  8
0
 62
7
100
AcDbPolyline
 90
7
 70
1
 10
289.313387
 20
203.064488
 30
0.0
 10
301.168831
 20
196.219744
 30
0.0
 10
301.168831
 20
182.530256
 30
0.0
 10
289.313387
 20
175.685512
 30
0.0
 10
277.457942
 20
182.530256
 30
0.0
 10
277.457942
 20
196.219744
 30
0.0
 10
289.313387
 20
203.064488
 30
0.0
  0
LWPOLYLINE
  5
112
100
AcDbEntity
  8
0
 62
7
100
AcDbPolyline
 90
7
 70
1
 10
304.468831
 20
124.314488
 30
0.0
 10
316.324276
 20
117.469744
 30
0.0
 10
316.324276
 20
103.780256
 30
0.0
 10
304.468831
 20
96.935512
 30
0.0
 10
292.613387
 20
103.780256
 30
0.0
 10
292.613387
 20
117.469744
 30
0.0
 10
304.468831
 20
124.314488
 30
0.0
  0
LWPOLYLINE
  5
113
100
AcDbEntity
  8
0
 62
7
100
AcDbPolyline
 90
7
 70
1
 10
319.624276
 20
150.564488
 30
0.0
 10
331.479720
 20
143.719744
 30
0.0
 10
331.479720
 20
130.030256
 30
0.0
 10
319.624276
 20
123.185512
 30
0.0
 10
307.768831
 20
130.030256
 30
0.0
 10
307.768831
 20
143.719744
 30
0.0
 10
319.624276
 20
150.564488
 30
0.0
  0
LWPOLYLINE
  5
114
100
AcDbEntity
  8
0
 62
7
100
AcDbPolyline
 90
7
 70
1
 10
304.468831
 20
176.814488
 30
0.0
 10
316.324276
 20
169.969744
 30
0.0
 10
316.324276
 20
156.280256
 30
0.0
 10
304.468831
 20
149.435512
 30
0.0
 10
292.613387
 20
156.280256
 30
0.0
 10
292.613387
 20
169.969744
 30
0.0
 10
304.468831
 20
176.814488
 30
0.0
  0
LWPOLYLINE
  5
115
100
AcDbEntity
  8
0
 62
7
100
AcDbPolyline
 90
7
 70
1
 10
319.624276
 20
203.064488
 30
0.0
 10
331.479720
 20
196.219744
 30
0.0
 10
331.479720
 20
182.530256
 30
0.0
 10
319.624276
 20
175.685512
 30
0.0
 10
307.768831
 20
182.530256
 30
0.0
 10
307.768831
 20
196.219744
 30
0.0
 10
319.624276
 20
203.064488
 30
0.0
  0
LWPOLYLINE
  5
116
100
AcDbEntity
  8
0
 62
7
100
AcDbPolyline
 90
7
 70
1
 10
334.779720
 20
124.314488
 30
0.0
 10
346.635165
 20
117.469744
 30
0.0
 10
346.635165
 20
103.780256
 30
0.0
 10
334.779720
 20
96.935512
 30
0.0
 10
322.924276
 20
103.780256
 30
0.0
 10
322.924276
 20
117.469744
 30
0.0
 10
334.779720
 20
124.314488
 30
0.0
  0
LWPOLYLINE
  5
117
100
AcDbEntity
  8
0
 62
7
100
AcDbPolyline
 90
7
 70
1
 10
349.935165
 20
150.564488
 30
0.0
 10
361.790610
 20
143.719744
 30
0.0
 10
361.790610
 20
130.030256
 30
0.0
 10
349.935165
 20
123.185512
 30
0.0
 10
338.079720
 20
130.030256
 30
0.0
 10
338.079720
 20
143.719744
 30
0.0
 10
349.935165
 20
150.564488
 30
0.0
  0
LWPOLYLINE
  5
118
100
AcDbEntity
  8
0
 62
7
100
AcDbPolyline
 90
7
 70
1
 10
334.779720
 20
176.814488
 30
0.0
 10
346.635165
 20
169.969744
 30
0.0
 10
346.635165
 20
156.280256
 30
0.0
 10
334.779720
 20
149.435512
 30
0.0
 10
322.924276
 20
156.280256
 30
0.0
 10
322.924276
 20
169.969744
 30
0.0
 10
334.779720
 20
176.814488
 30
0.0
  0
LWPOLYLINE
  5
119
100
AcDbEntity
  8
0
 62
7
100
AcDbPolyline
 90
7
 70
1
 10
349.935165
 20
203.064488
 30
0.0
 10
361.790610
 20
196.219744
 30
0.0
 10
361.790610
 20
182.530256
 30
0.0
 10
349.935165
 20
175.685512
 30
0.0
 10
338.079720
 20
182.530256
 30
0.0
 10
338.079720
 20
196.219744
 30
0.0
 10
349.935165
 20
203.064488
 30
0.0
  0
LWPOLYLINE
  5
11a
100
AcDbEntity
  8
0
 62
7
100
AcDbPolyline
 90
7
 70
1
 10
365.090610
 20
124.314488
 30
0.0
 10
376.946054
 20
117.469744
 30
0.0
 10
376.946054
 20
103.780256
 30
0.0
 10
365.090610
 20
96.935512
 30
0.0
 10
353.235165
 20
103.780256
 30
0.0
 10
353.235165
 20
117.469744
 30
0.0
 10
365.090610
 20
124.314488
 30
0.0
  0
LWPOLYLINE
  5
11b
100
AcDbEntity
  8
0
 62
7
100
AcDbPolyline
 90
7
 70
1
 10
380.246054
 20
150.564488
 30
0.0
 10
392.101499
 20
143.719744
 30
0.0
 10
392.101499
 20
130.030256
 30
0.0
 10
380.246054
 20
123.185512
 30
0.0
 10
368.390610
 20
130.030256
 30
0.0
 10
368.390610
 20
143.719744
 30
0.0
 10
380.246054
 20
150.564488
 30
0.0
  0
LWPOLYLINE
  5
11c
100
AcDbEntity
  8
0
 62
7
100
AcDbPolyline
 90
7
 70
1
 10
365.090610
 20
176.814488
 30
0.0
 10
376.946054
 20
169.969744
 30
0.0
 10
376.946054
 20
156.280256
 30
0.0
 10
365.090610
 20
149.435512
 30
0.0
 10
353.235165
 20
156.280256
 30
0.0
 10
353.235165
 20
169.969744
 30
0.0
 10
365.090610
 20
176.814488
 30
0.0
  0
LWPOLYLINE
  5
11d
100
AcDbEntity
  8
0
 62
7
100
AcDbPolyline
 90
7
 70
1
 10
380.246054
 20
203.064488
 30
0.0
 10
392.101499
 20
196.219744
 30
0.0
 10
392.101499
 20
182.530256
 30
0.0
 10
380.246054
 20
175.685512
 30
0.0
 10
368.390610
 20
182.530256
 30
0.0
 10
368.390610
 20
196.219744
 30
0.0
 10
380.246054
 20
203.064488
 30
0.0
  0
LWPOLYLINE
  5
11e
100
AcDbEntity
  8
0
 62
7
100
AcDbPolyline
 90
7
 70
1
 10
395.401499
 20
124.314488
 30
0.0
 10
407.256943
 20
117.469744
 30
0.0
 10
407.256943
 20
103.780256
 30
0.0
 10
395.401499
 20
96.935512
 30
0.0
 10
383.546054
 20
103.780256
 30
0.0
 10
383.546054
 20
117.469744
 30
0.0
 10
395.401499
 20
124.314488
 30
0.0
  0
LWPOLYLINE
  5
11f
100
AcDbEntity
  8
0
 62
7
100
AcDbPolyline
 90
7
 70
1
 10
410.556943
 20
150.564488
 30
0.0
 10
422.412388
 20
143.719744
 30
0.0
 10
422.412388
 20
130.030256
 30
0.0
 10
410.556943
 20
123.185512
 30
0.0
 10
398.701499
 20
130.030256
 30
0.0
 10
398.701499
 20
143.719744
 30
0.0
 10
410.556943
 20
150.564488
 30
0.0
  0
LWPOLYLINE
  5
120
100
AcDbEntity
  8
0
 62
7
100
AcDbPolyline
 90
7
 70
1
 10
395.401499
 20
176.814488
 30
0.0
 10
407.256943
 20
169.969744
 30
0.0
 10
407.256943
 20
156.280256
 30
0.0
 10
395.401499
 20
149.435512
 30
0.0
 10
383.546054
 20
156.280256
 30
0.0
 10
383.546054
 20
169.969744
 30
0.0
 10
395.401499
 20
176.814488
 30
0.0
  0
LWPOLYLINE
  5
121
100
AcDbEntity
  8
0
 62
7
100
AcDbPolyline
 90
7
 70
1
 10
410.556943
 20
203.064488
 30
0.0
 10
422.412388
 20
196.219744
 30
0.0
 10
422.412388
 20
182.530256
 30
0.0
 10
410.556943
 20
175.685512
 30
0.0
 10
398.701499
 20
182.530256
 30
0.0
 10
398.701499
 20
196.219744
 30
0.0
 10
410.556943
 20
203.064488
 30
0.0
  0
LWPOLYLINE
  5
122
100
AcDbEntity
  8
0
 62
7
100
AcDbPolyline
 90
7
 70
1
 10
425.712388
 20
124.314488
 30
0.0
 10
437.567832
 20
117.469744
 30
0.0
 10
437.567832
 20
103.780256
 30
0.0
 10
425.712388
 20
96.935512
 30
0.0
 10
413.856943
 20
103.780256
 30
0.0
 10
413.856943
 20
117.469744
 30
0.0
 10
425.712388
 20
124.314488
 30
0.0
  0
LWPOLYLINE
  5
123
100
AcDbEntity
  8
0
 62
7
100
AcDbPolyline
 90
7
 70
1
 10
440.867832
 20
150.564488
 30
0.0
 10
452.723277
 20
143.719744
 30
0.0
 10
452.723277
 20
130.030256
 30
0.0
 10
440.867832
 20
123.185512
 30
0.0
 10
429.012388
 20
130.030256
 30
0.0
 10
429.012388
 20
143.719744
 30
0.0
 10
440.867832
 20
150.564488
 30
0.0
  0
LWPOLYLINE
  5
124
100
AcDbEntity
  8
0
 62
7
100
AcDbPolyline
 90
7
 70
1
 10
425.712388
 20
176.814488
 30
0.0
 10
437.567832
 20
169.969744
 30
0.0
 10
437.567832
 20
156.280256
 30
0.0
 10
425.712388
 20
149.435512
 30
0.0
 10
413.856943
 20
156.280256
 30
0.0
 10
413.856943
 20
169.969744
 30
0.0
 10
425.712388
 20
176.814488
 30
0.0
  0
LWPOLYLINE
  5
125
100
AcDbEntity
  8
0
 62
7
100
AcDbPolyline
 90
7
 70
1
 10
440.867832
 20
203.064488
 30
0.0
 10
452.723277
 20
196.219744
 30
0.0
 10
452.723277
 20
182.530256
 30
0.0
 10
440.867832
 20
175.685512
 30
0.0
 10
429.012388
 20
182.530256
 30
0.0
 10
429.012388
 20
196.219744
 30
0.0
 10
440.867832
 20
203.064488
 30
0.0
  0
LWPOLYLINE
  5
126
100
AcDbEntity
  8
0
 62
7
100
AcDbPolyline
 90
7
 70
1
 10
456.023277
 20
124.314488
 30
0.0
 10
467.878722
 20
117.469744
 30
0.0
 10
467.878722
 20
103.780256
 30
0.0
 10
456.023277
 20
96.935512
 30
0.0
 10
444.167832
 20
103.780256
 30
0.0
 10
444.167832
 20
117.469744
 30
0.0
 10
456.023277
 20
124.314488
 30
0.0
  0
LWPOLYLINE
  5
127
100
AcDbEntity
  8
0
 62
7
100
AcDbPolyline
 90
7
 70
1
 10
471.178722
 20
150.564488
 30
0.0
 10
483.034166
 20
143.719744
 30
0.0
 10
483.034166
 20
130.030256
 30
0.0
 10
471.178722
 20
123.185512
 30
0.0
 10
459.323277
 20
130.030256
 30
0.0
 10
459.323277
 20
143.719744
 30
0.0
 10
471.178722
 20
150.564488
 30
0.0
  0
LWPOLYLINE
  5
128
100
AcDbEntity
  8
0
 62
7
100
AcDbPolyline
 90
7
 70
1
 10
456.023277
 20
176.814488
 30
0.0
 10
467.878722
 20
169.969744
 30
0.0
 10
467.878722
 20
156.280256
 30
0.0
 10
456.023277
 20
149.435512
 30
0.0
 10
444.167832
 20
156.280256
 30
0.0
 10
444.167832
 20
169.969744
 30
0.0
 10
456.023277
 20
176.814488
 30
0.0
  0
LWPOLYLINE
  5
129
100
AcDbEntity
  8
0
 62
7
100
AcDbPolyline
 90
7
 70
1
 10
471.178722
 20
203.064488
 30
0.0
 10
483.034166
 20
196.219744
 30
0.0
 10
483.034166
 20
182.530256
 30
0.0
 10
471.178722
 20
175.685512
 30
0.0
 10
459.323277
 20
182.530256
 30
0.0
 10
459.323277
 20
196.219744
 30
0.0
 10
471.178722
 20
203.064488
 30
0.0
  0
LWPOLYLINE
  5
12a
100
AcDbEntity
  8
0
 62
7
100
AcDbPolyline
 90
7
 70
1
 10
486.334166
 20
124.314488
 30
0.0
 10
498.189611
 20
117.469744
 30
0.0
 10
498.189611
 20
103.780256
 30
0.0
 10
486.334166
 20
96.935512
 30
0.0
 10
474.478722
 20
103.780256
 30
0.0
 10
474.478722
 20
117.469744
 30
0.0
 10
486.334166
 20
124.314488
 30
0.0
  0
LWPOLYLINE
  5
12b
100
AcDbEntity
  8
0
 62
7
100
AcDbPolyline
 90
7
 70
1
 10
501.489611
 20
150.564488
 30
0.0
 10
513.345055
 20
143.719744
 30
0.0
 10
513.345055
 20
130.030256
 30
0.0
 10
501.489611
 20
123.185512
 30
0.0
 10
489.634166
 20
130.030256
 30
0.0
 10
489.634166
 20
143.719744
 30
0.0
 10
501.489611
 20
150.564488
 30
0.0
  0
LWPOLYLINE
  5
12c
100
AcDbEntity
  8
0
 62
7
100
AcDbPolyline
 90
7
 70
1
 10
486.334166
 20
176.814488
 30
0.0
 10
498.189611
 20
169.969744
 30
0.0
 10
498.189611
 20
156.280256
 30
0.0
 10
486.334166
 20
149.435512
 30
0.0
 10
474.478722
 20
156.280256
 30
0.0
 10
474.478722
 20
169.969744
 30
0.0
 10
486.334166
 20
176.814488
 30
0.0
  0
LWPOLYLINE
  5
12d
100
AcDbEntity
  8
0
 62
7
100
AcDbPolyline
 90
7
 70
1
 10
501.489611
 20
203.064488
 30
0.0
 10
513.345055
 20
196.219744
 30
0.0
 10
513.345055
 20
182.530256
 30
0.0
 10
501.489611
 20
175.685512
 30
0.0
 10
489.634166
 20
182.530256
 30
0.0
 10
489.634166
 20
196.219744
 30
0.0
 10
501.489611
 20
203.064488
 30
0.0
  0
LWPOLYLINE
  5
12e
100
AcDbEntity
  8
0
 62
7
100
AcDbPolyline
 90
7
 70
1
 10
516.645055
 20
124.314488
 30
0.0
 10
528.500500
 20
117.469744
 30
0.0
 10
528.500500
 20
103.780256
 30
0.0
 10
516.645055
 20
96.935512
 30
0.0
 10
504.789611
 20
103.780256
 30
0.0
 10
504.789611
 20
117.469744
 30
0.0
 10
516.645055
 20
124.314488
 30
0.0
  0
LWPOLYLINE
  5
12f
100
AcDbEntity
  8
0
 62
7
100
AcDbPolyline
 90
7
 70
1
 10
531.800500
 20
150.564488
 30
0.0
 10
543.655944
 20
143.719744
 30
0.0
 10
543.655944
 20
130.030256
 30
0.0
 10
531.800500
 20
123.185512
 30
0.0
 10
519.945055
 20
130.030256
 30
0.0
 10
519.945055
 20
143.719744
 30
0.0
 10
531.800500
 20
150.564488
 30
0.0
  0
LWPOLYLINE
  5
130
100
AcDbEntity
  8
0
 62
7
100
AcDbPolyline
 90
7
 70
1
 10
516.645055
 20
176.814488
 30
0.0
 10
528.500500
 20
169.969744
 30
0.0
 10
528.500500
 20
156.280256
 30
0.0
 10
516.645055
 20
149.435512
 30
0.0
 10
504.789611
 20
156.280256
 30
0.0
 10
504.789611
 20
169.969744
 30
0.0
 10
516.645055
 20
176.814488
 30
0.0
  0
LWPOLYLINE
  5
131
100
AcDbEntity
  8
0
 62
7
100
AcDbPolyline
 90
7
 70
1
 10
531.800500
 20
203.064488
 30
0.0
 10
543.655944
 20
196.219744
 30
0.0
 10
543.655944
 20
182.530256
 30
0.0
 10
531.800500
 20
175.685512
 30
0.0
 10
519.945055
 20
182.530256
 30
0.0
 10
519.945055
 20
196.219744
 30
0.0
 10
531.800500
 20
203.064488
 30
0.0
  0
LWPOLYLINE
  5
132
100
AcDbEntity
  8
0
 62
7
100
AcDbPolyline
 90
7
 70
1
 10
546.955944
 20
124.314488
 30
0.0
 10
558.811389
 20
117.469744
 30
0.0
 10
558.811389
 20
103.780256
 30
0.0
 10
546.955944
 20
96.935512
 30
0.0
 10
535.100500
 20
103.780256
 30
0.0
 10
535.100500
 20
117.469744
 30
0.0
 10
546.955944
 20
124.314488
 30
0.0
  0
LWPOLYLINE
  5
133
100
AcDbEntity
  8
0
 62
7
100
AcDbPolyline
 90
7
 70
1
 10
562.111389
 20
150.564488
 30
0.0
 10
573.966834
 20
143.719744
 30
0.0
 10
573.966834
 20
130.030256
 30
0.0
 10
562.111389
 20
123.185512
 30
0.0
 10
550.255944
 20
130.030256
 30
0.0
 10
550.255944
 20
143.719744
 30
0.0
 10
562.111389
 20
150.564488
 30
0.0
  0
LWPOLYLINE
  5
134
100
AcDbEntity
  8
0
 62
7
100
AcDbPolyline
 90
7
 70
1
 10
546.955944
 20
176.814488
 30
0.0
 10
558.811389
 20
169.969744
 30
0.0
 10
558.811389
 20
156.280256
 30
0.0
 10
546.955944
 20
149.435512
 30
0.0
 10
535.100500
 20
156.280256
 30
0.0
 10
535.100500
 20
169.969744
 30
0.0
 10
546.955944
 20
176.814488
 30
0.0
  0
LWPOLYLINE
  5
135
100
AcDbEntity
  8
0
 62
7
100
AcDbPolyline
 90
7
 70
1
 10
562.111389
 20
203.064488
 30
0.0
 10
573.966834
 20
196.219744
 30
0.0
 10
573.966834
 20
182.530256
 30
0.0
 10
562.111389
 20
175.685512
 30
0.0
 10
550.255944
 20
182.530256
 30
0.0
 10
550.255944
 20
196.219744
 30
0.0
 10
562.111389
 20
203.064488
 30
0.0
  0
LWPOLYLINE
  5
136
100
AcDbEntity
  8
0
 62
7
100
AcDbPolyline
 90
7
 70
1
 10
577.266834
 20
124.314488
 30
0.0
 10
589.122278
 20
117.469744
 30
0.0
 10
589.122278
 20
103.780256
 30
0.0
 10
577.266834
 20
96.935512
 30
0.0
 10
565.411389
 20
103.780256
 30
0.0
 10
565.411389
 20
117.469744
 30
0.0
 10
577.266834
 20
124.314488
 30
0.0
  0
LWPOLYLINE
  5
137
100
AcDbEntity
  8
0
 62
7
100
AcDbPolyline
 90
7
 70
1
 10
592.422278
 20
150.564488
 30
0.0
 10
604.277723
 20
143.719744
 30
0.0
 10
604.277723
 20
130.030256
 30
0.0
 10
592.422278
 20
123.185512
 30
0.0
 10
580.566834
 20
130.030256
 30
0.0
 10
580.566834
 20
143.719744
 30
0.0
 10
592.422278
 20
150.564488
 30
0.0
  0
LWPOLYLINE
  5
138
100
AcDbEntity
  8
0
 62
7
100
AcDbPolyline
 90
7
 70
1
 10
577.266834
 20
176.814488
 30
0.0
 10
589.122278
 20
169.969744
 30
0.0
 10
589.122278
 20
156.280256
 30
0.0
 10
577.266834
 20
149.435512
 30
0.0
 10
565.411389
 20
156.280256
 30
0.0
 10
565.411389
 20
169.969744
 30
0.0
 10
577.266834
 20
176.814488
 30
0.0
  0
LWPOLYLINE
  5
139
100
AcDbEntity
  8
0
 62
7
100
AcDbPolyline
 90
7
 70
1
 10
592.422278
 20
203.064488
 30
0.0
 10
604.277723
 20
196.219744
 30
0.0
 10
604.277723
 20
182.530256
 30
0.0
 10
592.422278
 20
175.685512
 30
0.0
 10
580.566834
 20
182.530256
 30
0.0
 10
580.566834
 20
196.219744
 30
0.0
 10
592.422278
 20
203.064488
 30
0.0
  0
LWPOLYLINE
  5
13a
100
AcDbEntity
  8
0
 62
7
100
AcDbPolyline
 90
7
 70
1
 10
607.577723
 20
124.314488
 30
0.0
 10
619.433167
 20
117.469744
 30
0.0
 10
619.433167
 20
103.780256
 30
0.0
 10
607.577723
 20
96.935512
 30
0.0
 10
595.722278
 20
103.780256
 30
0.0
 10
595.722278
 20
117.469744
 30
0.0
 10
607.577723
 20
124.314488
 30
0.0
  0
LWPOLYLINE
  5
13b
100
AcDbEntity
  8
0
 62
7
100
AcDbPolyline
 90
7
 70
1
 10
622.733167
 20
150.564488
 30
0.0
 10
634.588612
 20
143.719744
 30
0.0
 10
634.588612
 20
130.030256
 30
0.0
 10
622.733167
 20
123.185512
 30
0.0
 10
610.877723
 20
130.030256
 30
0.0
 10
610.877723
 20
143.719744
 30
0.0
 10
622.733167
 20
150.564488
 30
0.0
  0
LWPOLYLINE
  5
13c
100
AcDbEntity
  8
0
 62
7
100
AcDbPolyline
 90
7
 70
1
 10
607.577723
 20
176.814488
 30
0.0
 10
619.433167
 20
169.969744
 30
0.0
 10
619.433167
 20
156.280256
 30
0.0
 10
607.577723
 20
149.435512
 30
0.0
 10
595.722278
 20
156.280256
 30
0.0
 10
595.722278
 20
169.969744
 30
0.0
 10
607.577723
 20
176.814488
 30
0.0
  0
LWPOLYLINE
  5
13d
100
AcDbEntity
  8
0
 62
7
100
AcDbPolyline
 90
7
 70
1
 10
622.733167
 20
203.064488
 30
0.0
 10
634.588612
 20
196.219744
 30
0.0
 10
634.588612
 20
182.530256
 30
0.0
 10
622.733167
 20
175.685512
 30
0.0
 10
610.877723
 20
182.530256
 30
0.0
 10
610.877723
 20
196.219744
 30
0.0
 10
622.733167
 20
203.064488
 30
0.0
  0
LWPOLYLINE
  5
13e
100
AcDbEntity
  8
0
 62
7
100
AcDbPolyline
 90
7
 70
1
 10
637.888612
 20
124.314488
 30
0.0
 10
649.744056
 20
117.469744
 30
0.0
 10
649.744056
 20
103.780256
 30
0.0
 10
637.888612
 20
96.935512
 30
0.0
 10
626.033167
 20
103.780256
 30
0.0
 10
626.033167
 20
117.469744
 30
0.0
 10
637.888612
 20
124.314488
 30
0.0
  0
LWPOLYLINE
  5
13f
100
AcDbEntity
  8
0
 62
7
100
AcDbPolyline
 90
7
 70
1
 10
653.044056
 20
150.564488
 30
0.0
 10
664.899501
 20
143.719744
 30
0.0
 10
664.899501
 20
130.030256
 30
0.0
 10
653.044056
 20
123.185512
 30
0.0
 10
641.188612
 20
130.030256
 30
0.0
 10
641.188612
 20
143.719744
 30
0.0
 10
653.044056
 20
150.564488
 30
0.0
  0
LWPOLYLINE
  5
140
100
AcDbEntity
  8
0
 62
7
100
AcDbPolyline
 90
7
 70
1
 10
637.888612
 20
176.814488
 30
0.0
 10
649.744056
 20
169.969744
 30
0.0
 10
649.744056
 20
156.280256
 30
0.0
 10
637.888612
 20
149.435512
 30
0.0
 10
626.033167
 20
156.280256
 30
0.0
 10
626.033167
 20
169.969744
 30
0.0
 10
637.888612
 20
176.814488
 30
0.0
  0
LWPOLYLINE
  5
141
100
AcDbEntity
  8
0
 62
7
100
AcDbPolyline
 90
7
 70
1
 10
653.044056
 20
203.064488
 30
0.0
 10
664.899501
 20
196.219744
 30
0.0
 10
664.899501
 20
182.530256
 30
0.0
 10
653.044056
 20
175.685512
 30
0.0
 10
641.188612
 20
182.530256
 30
0.0
 10
641.188612
 20
196.219744
 30
0.0
 10
653.044056
 20
203.064488
 30
0.0
  0
LWPOLYLINE
  5
142
100
AcDbEntity
  8
0
 62
7
100
AcDbPolyline
 90
7
 70
1
 10
668.199501
 20
124.314488
 30
0.0
 10
680.054945
 20
117.469744
 30
0.0
 10
680.054945
 20
103.780256
 30
0.0
 10
668.199501
 20
96.935512
 30
0.0
 10
656.344056
 20
103.780256
 30
0.0
 10
656.344056
 20
117.469744
 30
0.0
 10
668.199501
 20
124.314488
 30
0.0
  0
LWPOLYLINE
  5
143
100
AcDbEntity
  8
0
 62
7
100
AcDbPolyline
 90
7
 70
1
 10
683.354945
 20
150.564488
 30
0.0
 10
695.210390
 20
143.719744
 30
0.0
 10
695.210390
 20
130.030256
 30
0.0
 10
683.354945
 20
123.185512
 30
0.0
 10
671.499501
 20
130.030256
 30
0.0
 10
671.499501
 20
143.719744
 30
0.0
 10
683.354945
 20
150.564488
 30
0.0
  0
LWPOLYLINE
  5
144
100
AcDbEntity
  8
0
 62
7
100
AcDbPolyline
 90
7
 70
1
 10
668.199501
 20
176.814488
 30
0.0
 10
680.054945
 20
169.969744
 30
0.0
 10
680.054945
 20
156.280256
 30
0.0
 10
668.199501
 20
149.435512
 30
0.0
 10
656.344056
 20
156.280256
 30
0.0
 10
656.344056
 20
169.969744
 30
0.0
 10
668.199501
 20
176.814488
 30
0.0
  0
LWPOLYLINE
  5
145
100
AcDbEntity
  8
0
 62
7
100
AcDbPolyline
 90
7
 70
1
 10
683.354945
 20
203.064488
 30
0.0
 10
695.210390
 20
196.219744
 30
0.0
 10
695.210390
 20
182.530256
 30
0.0
 10
683.354945
 20
175.685512
 30
0.0
 10
671.499501
 20
182.530256
 30
0.0
 10
671.499501
 20
196.219744
 30
0.0
 10
683.354945
 20
203.064488
 30
0.0
  0
LWPOLYLINE
  5
146
100
AcDbEntity
  8
0
 62
7
100
AcDbPolyline
 90
7
 70
1
 10
698.510390
 20
124.314488
 30
0.0
 10
710.365835
 20
117.469744
 30
0.0
 10
710.365835
 20
103.780256
 30
0.0
 10
698.510390
 20
96.935512
 30
0.0
 10
686.654945
 20
103.780256
 30
0.0
 10
686.654945
 20
117.469744
 30
0.0
 10
698.510390
 20
124.314488
 30
0.0
  0
LWPOLYLINE
  5
147
100
AcDbEntity
  8
0
 62
7
100
AcDbPolyline
 90
7
 70
1
 10
713.665835
 20
150.564488
 30
0.0
 10
725.521279
 20
143.719744
 30
0.0
 10
725.521279
 20
130.030256
 30
0.0
 10
713.665835
 20
123.185512
 30
0.0
 10
701.810390
 20
130.030256
 30
0.0
 10
701.810390
 20
143.719744
 30
0.0
 10
713.665835
 20
150.564488
 30
0.0
  0
LWPOLYLINE
  5
148
100
AcDbEntity
  8
0
 62
7
100
AcDbPolyline
 90
7
 70
1
 10
698.510390
 20
176.814488
 30
0.0
 10
710.365835
 20
169.969744
 30
0.0
 10
710.365835
 20
156.280256
 30
0.0
 10
698.510390
 20
149.435512
 30
0.0
 10
686.654945
 20
156.280256
 30
0.0
 10
686.654945
 20
169.969744
 30
0.0
 10
698.510390
 20
176.814488
 30
0.0
  0
LWPOLYLINE
  5
149
100
AcDbEntity
  8
0
 62
7
100
AcDbPolyline
 90
7
 70
1
 10
713.665835
 20
203.064488
 30
0.0
 10
725.521279
 20
196.219744
 30
0.0
 10
725.521279
 20
182.530256
 30
0.0
 10
713.665835
 20
175.685512
 30
0.0
 10
701.810390
 20
182.530256
 30
0.0
 10
701.810390
 20
196.219744
 30
0.0
 10
713.665835
 20
203.064488
 30
0.0
  0
LWPOLYLINE
  5
14a
100
AcDbEntity
  8
0
 62
7
100
AcDbPolyline
 90
7
 70
1
 10
728.821279
 20
124.314488
 30
0.0
 10
740.676724
 20
117.469744
 30
0.0
 10
740.676724
 20
103.780256
 30
0.0
 10
728.821279
 20
96.935512
 30
0.0
 10
716.965835
 20
103.780256
 30
0.0
 10
716.965835
 20
117.469744
 30
0.0
 10
728.821279
 20
124.314488
 30
0.0
  0
LWPOLYLINE
  5
14b
100
AcDbEntity
  8
0
 62
7
100
AcDbPolyline
 90
7
 70
1
 10
743.976724
 20
150.564488
 30
0.0
 10
755.832168
 20
143.719744
 30
0.0
 10
755.832168
 20
130.030256
 30
0.0
 10
743.976724
 20
123.185512
 30
0.0
 10
732.121279
 20
130.030256
 30
0.0
 10
732.121279
 20
143.719744
 30
0.0
 10
743.976724
 20
150.564488
 30
0.0
  0
LWPOLYLINE
  5
14c
100
AcDbEntity
  8
0
 62
7
100
AcDbPolyline
 90
7
 70
1
 10
728.821279
 20
176.814488
 30
0.0
 10
740.676724
 20
169.969744
 30
0.0
 10
740.676724
 20
156.280256
 30
0.0
 10
728.821279
 20
149.435512
 30
0.0
 10
716.965835
 20
156.280256
 30
0.0
 10
716.965835
 20
169.969744
 30
0.0
 10
728.821279
 20
176.814488
 30
0.0
  0
LWPOLYLINE
  5
14d
100
AcDbEntity
  8
0
 62
7
100
AcDbPolyline
 90
7
 70
1
 10
743.976724
 20
203.064488
 30
0.0
 10
755.832168
 20
196.219744
 30
0.0
 10
755.832168
 20
182.530256
 30
0.0
 10
743.976724
 20
175.685512
 30
0.0
 10
732.121279
 20
182.530256
 30
0.0
 10
732.121279
 20
196.219744
 30
0.0
 10
743.976724
 20
203.064488
 30
0.0
  0
LWPOLYLINE
  5
14e
100
AcDbEntity
  8
0
 62
7
100
AcDbPolyline
 90
7
 70
1
 10
759.132168
 20
124.314488
 30
0.0
 10
770.987613
 20
117.469744
 30
0.0
 10
770.987613
 20
103.780256
 30
0.0
 10
759.132168
 20
96.935512
 30
0.0
 10
747.276724
 20
103.780256
 30
0.0
 10
747.276724
 20
117.469744
 30
0.0
 10
759.132168
 20
124.314488
 30
0.0
  0
LWPOLYLINE
  5
14f
100
AcDbEntity
  8
0
 62
7
100
AcDbPolyline
 90
7
 70
1
 10
774.287613
 20
150.564488
 30
0.0
 10
786.143057
 20
143.719744
 30
0.0
 10
786.143057
 20
130.030256
 30
0.0
 10
774.287613
 20
123.185512
 30
0.0
 10
762.432168
 20
130.030256
 30
0.0
 10
762.432168
 20
143.719744
 30
0.0
 10
774.287613
 20
150.564488
 30
0.0
  0
LWPOLYLINE
  5
150
100
AcDbEntity
  8
0
 62
7
100
AcDbPolyline
 90
7
 70
1
 10
759.132168
 20
176.814488
 30
0.0
 10
770.987613
 20
169.969744
 30
0.0
 10
770.987613
 20
156.280256
 30
0.0
 10
759.132168
 20
149.435512
 30
0.0
 10
747.276724
 20
156.280256
 30
0.0
 10
747.276724
 20
169.969744
 30
0.0
 10
759.132168
 20
176.814488
 30
0.0
  0
LWPOLYLINE
  5
151
100
AcDbEntity
  8
0
 62
7
100
AcDbPolyline
 90
7
 70
1
 10
774.287613
 20
203.064488
 30
0.0
 10
786.143057
 20
196.219744
 30
0.0
 10
786.143057
 20
182.530256
 30
0.0
 10
774.287613
 20
175.685512
 30
0.0
 10
762.432168
 20
182.530256
 30
0.0
 10
762.432168
 20
196.219744
 30
0.0
 10
774.287613
 20
203.064488
 30
0.0
  0
LWPOLYLINE
  5
152
100
AcDbEntity
  8
0
 62
7
100
AcDbPolyline
 90
7
 70
1
 10
789.443057
 20
124.314488
 30
0.0
 10
801.298502
 20
117.469744
 30
0.0
 10
801.298502
 20
103.780256
 30
0.0
 10
789.443057
 20
96.935512
 30
0.0
 10
777.587613
 20
103.780256
 30
0.0
 10
777.587613
 20
117.469744
 30
0.0
 10
789.443057
 20
124.314488
 30
0.0
  0
LWPOLYLINE
  5
153
100
AcDbEntity
  8
0
 62
7
100
AcDbPolyline
 90
7
 70
1
 10
804.598502
 20
150.564488
 30
0.0
 10
816.453947
 20
143.719744
 30
0.0
 10
816.453947
 20
130.030256
 30
0.0
 10
804.598502
 20
123.185512
 30
0.0
 10
792.743057
 20
130.030256
 30
0.0
 10
792.743057
 20
143.719744
 30
0.0
 10
804.598502
 20
150.564488
 30
0.0
  0
LWPOLYLINE
  5
154
100
AcDbEntity
  8
0
 62
7
100
AcDbPolyline
 90
7
 70
1
 10
789.443057
 20
176.814488
 30
0.0
 10
801.298502
 20
169.969744
 30
0.0
 10
801.298502
 20
156.280256
 30
0.0
 10
789.443057
 20
149.435512
 30
0.0
 10
777.587613
 20
156.280256
 30
0.0
 10
777.587613
 20
169.969744
 30
0.0
 10
789.443057
 20
176.814488
 30
0.0
  0
LWPOLYLINE
  5
155
100
AcDbEntity
  8
0
 62
7
100
AcDbPolyline
 90
7
 70
1
 10
804.598502
 20
203.064488
 30
0.0
 10
816.453947
 20
196.219744
 30
0.0
 10
816.453947
 20
182.530256
 30
0.0
 10
804.598502
 20
175.685512
 30
0.0
 10
792.743057
 20
182.530256
 30
0.0
 10
792.743057
 20
196.219744
 30
0.0
 10
804.598502
 20
203.064488
 30
0.0
  0
LWPOLYLINE
  5
156
100
AcDbEntity
  8
0
 62
7
100
AcDbPolyline
 90
7
 70
1
 10
819.753947
 20
124.314488
 30
0.0
 10
831.609391
 20
117.469744
 30
0.0
 10
831.609391
 20
103.780256
 30
0.0
 10
819.753947
 20
96.935512
 30
0.0
 10
807.898502
 20
103.780256
 30
0.0
 10
807.898502
 20
117.469744
 30
0.0
 10
819.753947
 20
124.314488
 30
0.0
  0
LWPOLYLINE
  5
157
100
AcDbEntity
  8
0
 62
7
100
AcDbPolyline
 90
7
 70
1
 10
834.909391
 20
150.564488
 30
0.0
 10
846.764836
 20
143.719744
 30
0.0
 10
846.764836
 20
130.030256
 30
0.0
 10
834.909391
 20
123.185512
 30
0.0
 10
823.053947
 20
130.030256
 30
0.0
 10
823.053947
 20
143.719744
 30
0.0
 10
834.909391
 20
150.564488
 30
0.0
  0
LWPOLYLINE
  5
158
100
AcDbEntity
  8
0
 62
7
100
AcDbPolyline
 90
7
 70
1
 10
819.753947
 20
176.814488
 30
0.0
 10
831.609391
 20
169.969744
 30
0.0
 10
831.609391
 20
156.280256
 30
0.0
 10
819.753947
 20
149.435512
 30
0.0
 10
807.898502
 20
156.280256
 30
0.0
 10
807.898502
 20
169.969744
 30
0.0
 10
819.753947
 20
176.814488
 30
0.0
  0
LWPOLYLINE
  5
159
100
AcDbEntity
  8
0
 62
7
100
AcDbPolyline
 90
7
 70
1
 10
834.909391
 20
203.064488
 30
0.0
 10
846.764836
 20
196.219744
 30
0.0
 10
846.764836
 20
182.530256
 30
0.0
 10
834.909391
 20
175.685512
 30
0.0
 10
823.053947
 20
182.530256
 30
0.0
 10
823.053947
 20
196.219744
 30
0.0
 10
834.909391
 20
203.064488
 30
0.0
  0
LWPOLYLINE
  5
15a
100
AcDbEntity
  8
0
 62
7
100
AcDbPolyline
 90
7
 70
1
 10
850.064836
 20
124.314488
 30
0.0
 10
861.920280
 20
117.469744
 30
0.0
 10
861.920280
 20
103.780256
 30
0.0
 10
850.064836
 20
96.935512
 30
0.0
 10
838.209391
 20
103.780256
 30
0.0
 10
838.209391
 20
117.469744
 30
0.0
 10
850.064836
 20
124.314488
 30
0.0
  0
LWPOLYLINE
  5
15b
100
AcDbEntity
  8
0
 62
7
100
AcDbPolyline
 90
7
 70
1
 10
865.220280
 20
150.564488
 30
0.0
 10
877.075725
 20
143.719744
 30
0.0
 10
877.075725
 20
130.030256
 30
0.0
 10
865.220280
 20
123.185512
 30
0.0
 10
853.364836
 20
130.030256
 30
0.0
 10
853.364836
 20
143.719744
 30
0.0
 10
865.220280
 20
150.564488
 30
0.0
  0
LWPOLYLINE
  5
15c
100
AcDbEntity
  8
0
 62
7
100
AcDbPolyline
 90
7
 70
1
 10
850.064836
 20
176.814488
 30
0.0
 10
861.920280
 20
169.969744
 30
0.0
 10
861.920280
 20
156.280256
 30
0.0
 10
850.064836
 20
149.435512
 30
0.0
 10
838.209391
 20
156.280256
 30
0.0
 10
838.209391
 20
169.969744
 30
0.0
 10
850.064836
 20
176.814488
 30
0.0
  0
LWPOLYLINE
  5
15d
100
AcDbEntity
  8
0
 62
7
100
AcDbPolyline
 90
7
 70
1
 10
865.220280
 20
203.064488
 30
0.0
 10
877.075725
 20
196.219744
 30
0.0
 10
877.075725
 20
182.530256
 30
0.0
 10
865.220280
 20
175.685512
 30
0.0
 10
853.364836
 20
182.530256
 30
0.0
 10
853.364836
 20
196.219744
 30
0.0
 10
865.220280
 20
203.064488
 30
0.0
  0
LWPOLYLINE
  5
15e
100
AcDbEntity
  8
0
 62
7
100
AcDbPolyline
 90
7
 70
1
 10
880.375725
 20
124.314488
 30
0.0
 10
892.231169
 20
117.469744
 30
0.0
 10
892.231169
 20
103.780256
 30
0.0
 10
880.375725
 20
96.935512
 30
0.0
 10
868.520280
 20
103.780256
 30
0.0
 10
868.520280
 20
117.469744
 30
0.0
 10
880.375725
 20
124.314488
 30
0.0
  0
LWPOLYLINE
  5
15f
100
AcDbEntity
  8
0
 62
7
100
AcDbPolyline
 90
7
 70
1
 10
895.531169
 20
150.564488
 30
0.0
 10
907.386614
 20
143.719744
 30
0.0
 10
907.386614
 20
130.030256
 30
0.0
 10
895.531169
 20
123.185512
 30
0.0
 10
883.675725
 20
130.030256
 30
0.0
 10
883.675725
 20
143.719744
 30
0.0
 10
895.531169
 20
150.564488
 30
0.0
  0
LWPOLYLINE
  5
160
100
AcDbEntity
  8
0
 62
7
100
AcDbPolyline
 90
7
 70
1
 10
880.375725
 20
176.814488
 30
0.0
 10
892.231169
 20
169.969744
 30
0.0
 10
892.231169
 20
156.280256
 30
0.0
 10
880.375725
 20
149.435512
 30
0.0
 10
868.520280
 20
156.280256
 30
0.0
 10
868.520280
 20
169.969744
 30
0.0
 10
880.375725
 20
176.814488
 30
0.0
  0
LWPOLYLINE
  5
161
100
AcDbEntity
  8
0
 62
7
100
AcDbPolyline
 90
7
 70
1
 10
895.531169
 20
203.064488
 30
0.0
 10
907.386614
 20
196.219744
 30
0.0
 10
907.386614
 20
182.530256
 30
0.0
 10
895.531169
 20
175.685512
 30
0.0
 10
883.675725
 20
182.530256
 30
0.0
 10
883.675725
 20
196.219744
 30
0.0
 10
895.531169
 20
203.064488
 30
0.0
  0
LWPOLYLINE
  5
162
100
AcDbEntity
  8
0
 62
7
100
AcDbPolyline
 90
7
 70
1
 10
910.686614
 20
124.314488
 30
0.0
 10
922.542059
 20
117.469744
 30
0.0
 10
922.542059
 20
103.780256
 30
0.0
 10
910.686614
 20
96.935512
 30
0.0
 10
898.831169
 20
103.780256
 30
0.0
 10
898.831169
 20
117.469744
 30
0.0
 10
910.686614
 20
124.314488
 30
0.0
  0
LWPOLYLINE
  5
163
100
AcDbEntity
  8
0
 62
7
100
AcDbPolyline
 90
7
 70
1
 10
925.842059
 20
150.564488
 30
0.0
 10
937.697503
 20
143.719744
 30
0.0
 10
937.697503
 20
130.030256
 30
0.0
 10
925.842059
 20
123.185512
 30
0.0
 10
913.986614
 20
130.030256
 30
0.0
 10
913.986614
 20
143.719744
 30
0.0
 10
925.842059
 20
150.564488
 30
0.0
  0
LWPOLYLINE
  5
164
100
AcDbEntity
  8
0
 62
7
100
AcDbPolyline
 90
7
 70
1
 10
910.686614
 20
176.814488
 30
0.0
 10
922.542059
 20
169.969744
 30
0.0
 10
922.542059
 20
156.280256
 30
0.0
 10
910.686614
 20
149.435512
 30
0.0
 10
898.831169
 20
156.280256
 30
0.0
 10
898.831169
 20
169.969744
 30
0.0
 10
910.686614
 20
176.814488
 30
0.0
  0
LWPOLYLINE
  5
165
100
AcDbEntity
  8
0
 62
7
100
AcDbPolyline
 90
7
 70
1
 10
925.842059
 20
203.064488
 30
0.0
 10
937.697503
 20
196.219744
 30
0.0
 10
937.697503
 20
182.530256
 30
0.0
 10
925.842059
 20
175.685512
 30
0.0
 10
913.986614
 20
182.530256
 30
0.0
 10
913.986614
 20
196.219744
 30
0.0
 10
925.842059
 20
203.064488
 30
0.0
  0
LWPOLYLINE
  5
166
100
AcDbEntity
  8
0
 62
7
100
AcDbPolyline
 90
7
 70
1
 10
940.997503
 20
124.314488
 30
0.0
 10
952.852948
 20
117.469744
 30
0.0
 10
952.852948
 20
103.780256
 30
0.0
 10
940.997503
 20
96.935512
 30
0.0
 10
929.142059
 20
103.780256
 30
0.0
 10
929.142059
 20
117.469744
 30
0.0
 10
940.997503
 20
124.314488
 30
0.0
  0
LWPOLYLINE
  5
167
100
AcDbEntity
  8
0
 62
7
100
AcDbPolyline
 90
7
 70
1
 10
956.152948
 20
150.564488
 30
0.0
 10
968.008392
 20
143.719744
 30
0.0
 10
968.008392
 20
130.030256
 30
0.0
 10
956.152948
 20
123.185512
 30
0.0
 10
944.297503
 20
130.030256
 30
0.0
 10
944.297503
 20
143.719744
 30
0.0
 10
956.152948
 20
150.564488
 30
0.0
  0
LWPOLYLINE
  5
168
100
AcDbEntity
  8
0
 62
7
100
AcDbPolyline
 90
7
 70
1
 10
940.997503
 20
176.814488
 30
0.0
 10
952.852948
 20
169.969744
 30
0.0
 10
952.852948
 20
156.280256
 30
0.0
 10
940.997503
 20
149.435512
 30
0.0
 10
929.142059
 20
156.280256
 30
0.0
 10
929.142059
 20
169.969744
 30
0.0
 10
940.997503
 20
176.814488
 30
0.0
  0
LWPOLYLINE
  5
169
100
AcDbEntity
  8
0
 62
7
100
AcDbPolyline
 90
7
 70
1
 10
956.152948
 20
203.064488
 30
0.0
 10
968.008392
 20
196.219744
 30
0.0
 10
968.008392
 20
182.530256
 30
0.0
 10
956.152948
 20
175.685512
 30
0.0
 10
944.297503
 20
182.530256
 30
0.0
 10
944.297503
 20
196.219744
 30
0.0
 10
956.152948
 20
203.064488
 30
0.0
  0
LWPOLYLINE
  5
16a
100
AcDbEntity
  8
0
 62
7
100
AcDbPolyline
 90
7
 70
1
 10
971.308392
 20
124.314488
 30
0.0
 10
983.163837
 20
117.469744
 30
0.0
 10
983.163837
 20
103.780256
 30
0.0
 10
971.308392
 20
96.935512
 30
0.0
 10
959.452948
 20
103.780256
 30
0.0
 10
959.452948
 20
117.469744
 30
0.0
 10
971.308392
 20
124.314488
 30
0.0
  0
LWPOLYLINE
  5
16b
100
AcDbEntity
  8
0
 62
7
100
AcDbPolyline
 90
7
 70
1
 10
986.463837
 20
150.564488
 30
0.0
 10
998.319281
 20
143.719744
 30
0.0
 10
998.319281
 20
130.030256
 30
0.0
 10
986.463837
 20
123.185512
 30
0.0
 10
974.608392
 20
130.030256
 30
0.0
 10
974.608392
 20
143.719744
 30
0.0
 10
986.463837
 20
150.564488
 30
0.0
  0
LWPOLYLINE
  5
16c
100
AcDbEntity
  8
0
 62
7
100
AcDbPolyline
 90
7
 70
1
 10
971.308392
 20
176.814488
 30
0.0
 10
983.163837
 20
169.969744
 30
0.0
 10
983.163837
 20
156.280256
 30
0.0
 10
971.308392
 20
149.435512
 30
0.0
 10
959.452948
 20
156.280256
 30
0.0
 10
959.452948
 20
169.969744
 30
0.0
 10
971.308392
 20
176.814488
 30
0.0
  0
LWPOLYLINE
  5
16d
100
AcDbEntity
  8
0
 62
7
100
AcDbPolyline
 90
7
 70
1
 10
986.463837
 20
203.064488
 30
0.0
 10
998.319281
 20
196.219744
 30
0.0
 10
998.319281
 20
182.530256
 30
0.0
 10
986.463837
 20
175.685512
 30
0.0
 10
974.608392
 20
182.530256
 30
0.0
 10
974.608392
 20
196.219744
 30
0.0
 10
986.463837
 20
203.064488
 30
0.0
  0
LWPOLYLINE
  5
16e
100
AcDbEntity
  8
0
 62
7
100
AcDbPolyline
 90
7
 70
1
 10
1001.619281
 20
124.314488
 30
0.0
 10
1013.474726
 20
117.469744
 30
0.0
 10
1013.474726
 20
103.780256
 30
0.0
 10
1001.619281
 20
96.935512
 30
0.0
 10
989.763837
 20
103.780256
 30
0.0
 10
989.763837
 20
117.469744
 30
0.0
 10
1001.619281
 20
124.314488
 30
0.0
  0
LWPOLYLINE
  5
16f
100
AcDbEntity
  8
0
 62
7
100
AcDbPolyline
 90
7
 70
1
 10
1016.774726
 20
150.564488
 30
0.0
 10
1028.630171
 20
143.719744
 30
0.0
 10
1028.630171
 20
130.030256
 30
0.0
 10
1016.774726
 20
123.185512
 30
0.0
 10
1004.919281
 20
130.030256
 30
0.0
 10
1004.919281
 20
143.719744
 30
0.0
 10
1016.774726
 20
150.564488
 30
0.0
  0
LWPOLYLINE
  5
170
100
AcDbEntity
  8
0
 62
7
100
AcDbPolyline
 90
7
 70
1
 10
1001.619281
 20
176.814488
 30
0.0
 10
1013.474726
 20
169.969744
 30
0.0
 10
1013.474726
 20
156.280256
 30
0.0
 10
1001.619281
 20
149.435512
 30
0.0
 10
989.763837
 20
156.280256
 30
0.0
 10
989.763837
 20
169.969744
 30
0.0
 10
1001.619281
 20
176.814488
 30
0.0
  0
LWPOLYLINE
  5
171
100
AcDbEntity
  8
0
 62
7
100
AcDbPolyline
 90
7
 70
1
 10
1016.774726
 20
203.064488
 30
0.0
 10
1028.630171
 20
196.219744
 30
0.0
 10
1028.630171
 20
182.530256
 30
0.0
 10
1016.774726
 20
175.685512
 30
0.0
 10
1004.919281
 20
182.530256
 30
0.0
 10
1004.919281
 20
196.219744
 30
0.0
 10
1016.774726
 20
203.064488
 30
0.0
  0
LWPOLYLINE
  5
172
100
AcDbEntity
  8
0
 62
7
100
AcDbPolyline
 90
7
 70
1
 10
1031.930171
 20
124.314488
 30
0.0
 10
1043.785615
 20
117.469744
 30
0.0
 10
1043.785615
 20
103.780256
 30
0.0
 10
1031.930171
 20
96.935512
 30
0.0
 10
1020.074726
 20
103.780256
 30
0.0
 10
1020.074726
 20
117.469744
 30
0.0
 10
1031.930171
 20
124.314488
 30
0.0
  0
LWPOLYLINE
  5
173
100
AcDbEntity
  8
0
 62
7
100
AcDbPolyline
 90
7
 70
1
 10
1031.930171
 20
176.814488
 30
0.0
 10
1043.785615
 20
169.969744
 30
0.0
 10
1043.785615
 20
156.280256
 30
0.0
 10
1031.930171
 20
149.435512
 30
0.0
 10
1020.074726
 20
156.280256
 30
0.0
 10
1020.074726
 20
169.969744
 30
0.0
 10
1031.930171
 20
176.814488
 30
0.0
  0
LWPOLYLINE
  5
174
100
AcDbEntity
  8
0
 62
7
100
AcDbPolyline
 90
6
 70
1
 10
671.499501
 20
91.219744
 30
0.0
 10
683.354945
 20
98.064488
 30
0.0
 10
695.210390
 20
91.219744
 30
0.0
 10
695.210390
 20
90.000000
 30
0.0
 10
671.499501
 20
90.000000
 30
0.0
 10
671.499501
 20
91.219744
 30
0.0
  0
LWPOLYLINE
  5
175
100
AcDbEntity
  8
0
 62
7
100
AcDbPolyline
 90
6
 70
1
 10
595.722278
 20
210.000000
 30
0.0
 10
619.433167
 20
210.000000
 30
0.0
 10
619.433167
 20
208.780256
 30
0.0
 10
607.577723
 20
201.935512
 30
0.0
 10
595.722278
 20
208.780256
 30
0.0
 10
595.722278
 20
210.000000
 30
0.0
  0
LWPOLYLINE
  5
176
100
AcDbEntity
  8
0
 62
7
100
AcDbPolyline
 90
6
 70
1
 10
883.675725
 20
91.219744
 30
0.0
 10
895.531169
 20
98.064488
 30
0.0
 10
907.386614
 20
91.219744
 30
0.0
 10
907.386614
 20
90.000000
 30
0.0
 10
883.675725
 20
90.000000
 30
0.0
 10
883.675725
 20
91.219744
 30
0.0
  0
LWPOLYLINE
  5
177
100
AcDbEntity
  8
0
 62
7
100
AcDbPolyline
 90
5
 70
1
 10
1035.230171
 20
182.530256
 30
0.0
 10
1035.230171
 20
196.219744
 30
0.0
 10
1046.000000
 20
202.437708
 30
0.0
 10
1046.000000
 20
176.312292
 30
0.0
 10
1035.230171
 20
182.530256
 30
0.0
  0
LWPOLYLINE
  5
178
100
AcDbEntity
  8
0
 62
7
100
AcDbPolyline
 90
6
 70
1
 10
762.432168
 20
91.219744
 30
0.0
 10
774.287613
 20
98.064488
 30
0.0
 10
786.143057
 20
91.219744
 30
0.0
 10
786.143057
 20
90.000000
 30
0.0
 10
762.432168
 20
90.000000
 30
0.0
 10
762.432168
 20
91.219744
 30
0.0
  0
LWPOLYLINE
  5
179
100
AcDbEntity
  8
0
 62
7
100
AcDbPolyline
 90
6
 70
1
 10
216.836164
 20
91.219744
 30
0.0
 10
228.691608
 20
98.064488
 30
0.0
 10
240.547053
 20
91.219744
 30
0.0
 10
240.547053
 20
90.000000
 30
0.0
 10
216.836164
 20
90.000000
 30
0.0
 10
216.836164
 20
91.219744
 30
0.0
  0
LWPOLYLINE
  5
17a
100
AcDbEntity
  8
0
 62
7
100
AcDbPolyline
 90
6
 70
1
 10
550.255944
 20
91.219744
 30
0.0
 10
562.111389
 20
98.064488
 30
0.0
 10
573.966834
 20
91.219744
 30
0.0
 10
573.966834
 20
90.000000
 30
0.0
 10
550.255944
 20
90.000000
 30
0.0
 10
550.255944
 20
91.219744
 30
0.0
  0
LWPOLYLINE
  5
17b
100
AcDbEntity
  8
0
 62
7
100
AcDbPolyline
 90
6
 70
1
 10
641.188612
 20
91.219744
 30
0.0
 10
653.044056
 20
98.064488
 30
0.0
 10
664.899501
 20
91.219744
 30
0.0
 10
664.899501
 20
90.000000
 30
0.0
 10
641.188612
 20
90.000000
 30
0.0
 10
641.188612
 20
91.219744
 30
0.0
  0
LWPOLYLINE
  5
17c
100
AcDbEntity
  8
0
 62
7
100
AcDbPolyline
 90
6
 70
1
 10
580.566834
 20
91.219744
 30
0.0
 10
592.422278
 20
98.064488
 30
0.0
 10
604.277723
 20
91.219744
 30
0.0
 10
604.277723
 20
90.000000
 30
0.0
 10
580.566834
 20
90.000000
 30
0.0
 10
580.566834
 20
91.219744
 30
0.0
  0
LWPOLYLINE
  5
17d
100
AcDbEntity
  8
0
 62
7
100
AcDbPolyline
 90
6
 70
1
 10
656.344056
 20
210.000000
 30
0.0
 10
680.054945
 20
210.000000
 30
0.0
 10
680.054945
 20
208.780256
 30
0.0
 10
668.199501
 20
201.935512
 30
0.0
 10
656.344056
 20
208.780256
 30
0.0
 10
656.344056
 20
210.000000
 30
0.0
  0
LWPOLYLINE
  5
17e
100
AcDbEntity
  8
0
 62
7
100
AcDbPolyline
 90
6
 70
1
 10
777.587613
 20
210.000000
 30
0.0
 10
801.298502
 20
210.000000
 30
0.0
 10
801.298502
 20
208.780256
 30
0.0
 10
789.443057
 20
201.935512
 30
0.0
 10
777.587613
 20
208.780256
 30
0.0
 10
777.587613
 20
210.000000
 30
0.0
  0
LWPOLYLINE
  5
17f
100
AcDbEntity
  8
0
 62
7
100
AcDbPolyline
 90
6
 70
1
 10
398.701499
 20
91.219744
 30
0.0
 10
410.556943
 20
98.064488
 30
0.0
 10
422.412388
 20
91.219744
 30
0.0
 10
422.412388
 20
90.000000
 30
0.0
 10
398.701499
 20
90.000000
 30
0.0
 10
398.701499
 20
91.219744
 30
0.0
  0
LWPOLYLINE
  5
180
100
AcDbEntity
  8
0
 62
7
100
AcDbPolyline
 90
6
 70
1
 10
171.369830
 20
210.000000
 30
0.0
 10
195.080719
 20
210.000000
 30
0.0
 10
195.080719
 20
208.780256
 30
0.0
 10
183.225275
 20
201.935512
 30
0.0
 10
171.369830
 20
208.780256
 30
0.0
 10
171.369830
 20
210.000000
 30
0.0
  0
LWPOLYLINE
  5
181
100
AcDbEntity
  8
0
 62
7
100
AcDbPolyline
 90
6
 70
1
 10
459.323277
 20
91.219744
 30
0.0
 10
471.178722
 20
98.064488
 30
0.0
 10
483.034166
 20
91.219744
 30
0.0
 10
483.034166
 20
90.000000
 30
0.0
 10
459.323277
 20
90.000000
 30
0.0
 10
459.323277
 20
91.219744
 30
0.0
  0
LWPOLYLINE
  5
182
100
AcDbEntity
  8
0
 62
7
100
AcDbPolyline
 90
6
 70
1
 10
823.053947
 20
91.219744
 30
0.0
 10
834.909391
 20
98.064488
 30
0.0
 10
846.764836
 20
91.219744
 30
0.0
 10
846.764836
 20
90.000000
 30
0.0
 10
823.053947
 20
90.000000
 30
0.0
 10
823.053947
 20
91.219744
 30
0.0
  0
LWPOLYLINE
  5
183
100
AcDbEntity
  8
0
 62
7
100
AcDbPolyline
 90
6
 70
1
 10
959.452948
 20
210.000000
 30
0.0
 10
983.163837
 20
210.000000
 30
0.0
 10
983.163837
 20
208.780256
 30
0.0
 10
971.308392
 20
201.935512
 30
0.0
 10
959.452948
 20
208.780256
 30
0.0
 10
959.452948
 20
210.000000
 30
0.0
  0
LWPOLYLINE
  5
184
100
AcDbEntity
  8
0
 62
7
100
AcDbPolyline
 90
6
 70
1
 10
701.810390
 20
91.219744
 30
0.0
 10
713.665835
 20
98.064488
 30
0.0
 10
725.521279
 20
91.219744
 30
0.0
 10
725.521279
 20
90.000000
 30
0.0
 10
701.810390
 20
90.000000
 30
0.0
 10
701.810390
 20
91.219744
 30
0.0
  0
LWPOLYLINE
  5
185
100
AcDbEntity
  8
0
 62
7
100
AcDbPolyline
 90
6
 70
1
 10
974.608392
 20
91.219744
 30
0.0
 10
986.463837
 20
98.064488
 30
0.0
 10
998.319281
 20
91.219744
 30
0.0
 10
998.319281
 20
90.000000
 30
0.0
 10
974.608392
 20
90.000000
 30
0.0
 10
974.608392
 20
91.219744
 30
0.0
  0
LWPOLYLINE
  5
186
100
AcDbEntity
  8
0
 62
7
100
AcDbPolyline
 90
6
 70
1
 10
913.986614
 20
91.219744
 30
0.0
 10
925.842059
 20
98.064488
 30
0.0
 10
937.697503
 20
91.219744
 30
0.0
 10
937.697503
 20
90.000000
 30
0.0
 10
913.986614
 20
90.000000
 30
0.0
 10
913.986614
 20
91.219744
 30
0.0
  0
LWPOLYLINE
  5
187
100
AcDbEntity
  8
0
 62
7
100
AcDbPolyline
 90
6
 70
1
 10
201.680719
 20
210.000000
 30
0.0
 10
225.391608
 20
210.000000
 30
0.0
 10
225.391608
 20
208.780256
 30
0.0
 10
213.536164
 20
201.935512
 30
0.0
 10
201.680719
 20
208.780256
 30
0.0
 10
201.680719
 20
210.000000
 30
0.0
  0
LWPOLYLINE
  5
188
100
AcDbEntity
  8
0
 62
7
100
AcDbPolyline
 90
6
 70
1
 10
716.965835
 20
210.000000
 30
0.0
 10
740.676724
 20
210.000000
 30
0.0
 10
740.676724
 20
208.780256
 30
0.0
 10
728.821279
 20
201.935512
 30
0.0
 10
716.965835
 20
208.780256
 30
0.0
 10
716.965835
 20
210.000000
 30
0.0
  0
LWPOLYLINE
  5
189
100
AcDbEntity
  8
0
 62
7
100
AcDbPolyline
 90
6
 70
1
 10
489.634166
 20
91.219744
 30
0.0
 10
501.489611
 20
98.064488
 30
0.0
 10
513.345055
 20
91.219744
 30
0.0
 10
513.345055
 20
90.000000
 30
0.0
 10
489.634166
 20
90.000000
 30
0.0
 10
489.634166
 20
91.219744
 30
0.0
  0
LWPOLYLINE
  5
18a
100
AcDbEntity
  8
0
 62
7
100
AcDbPolyline
 90
6
 70
1
 10
247.147053
 20
91.219744
 30
0.0
 10
259.002498
 20
98.064488
 30
0.0
 10
270.857942
 20
91.219744
 30
0.0
 10
270.857942
 20
90.000000
 30
0.0
 10
247.147053
 20
90.000000
 30
0.0
 10
247.147053
 20
91.219744
 30
0.0
  0
LWPOLYLINE
  5
18b
100
AcDbEntity
  8
0
 62
7
100
AcDbPolyline
 90
5
 70
1
 10
154.000000
 20
176.187708
 30
0.0
 10
164.769830
 20
169.969744
 30
0.0
 10
164.769830
 20
156.280256
 30
0.0
 10
154.000000
 20
150.062292
 30
0.0
 10
154.000000
 20
176.187708
 30
0.0
  0
LWPOLYLINE
  5
18c
100
AcDbEntity
  8
0
 62
7
100
AcDbPolyline
 90
6
 70
1
 10
444.167832
 20
210.000000
 30
0.0
 10
467.878722
 20
210.000000
 30
0.0
 10
467.878722
 20
208.780256
 30
0.0
 10
456.023277
 20
201.935512
 30
0.0
 10
444.167832
 20
208.780256
 30
0.0
 10
444.167832
 20
210.000000
 30
0.0
  0
LWPOLYLINE
  5
18d
100
AcDbEntity
  8
0
 62
7
100
AcDbPolyline
 90
6
 70
1
 10
413.856943
 20
210.000000
 30
0.0
 10
437.567832
 20
210.000000
 30
0.0
 10
437.567832
 20
208.780256
 30
0.0
 10
425.712388
 20
201.935512
 30
0.0
 10
413.856943
 20
208.780256
 30
0.0
 10
413.856943
 20
210.000000
 30
0.0
  0
LWPOLYLINE
  5
18e
100
AcDbEntity
  8
0
 62
7
100
AcDbPolyline
 90
6
 70
1
 10
807.898502
 20
210.000000
 30
0.0
 10
831.609391
 20
210.000000
 30
0.0
 10
831.609391
 20
208.780256
 30
0.0
 10
819.753947
 20
201.935512
 30
0.0
 10
807.898502
 20
208.780256
 30
0.0
 10
807.898502
 20
210.000000
 30
0.0
  0
LWPOLYLINE
  5
18f
100
AcDbEntity
  8
0
 62
7
100
AcDbPolyline
 90
6
 70
1
 10
429.012388
 20
91.219744
 30
0.0
 10
440.867832
 20
98.064488
 30
0.0
 10
452.723277
 20
91.219744
 30
0.0
 10
452.723277
 20
90.000000
 30
0.0
 10
429.012388
 20
90.000000
 30
0.0
 10
429.012388
 20
91.219744
 30
0.0
  0
LWPOLYLINE
  5
190
100
AcDbEntity
  8
0
 62
7
100
AcDbPolyline
 90
6
 70
1
 10
1020.074726
 20
210.000000
 30
0.0
 10
1043.785615
 20
210.000000
 30
0.0
 10
1043.785615
 20
208.780256
 30
0.0
 10
1031.930171
 20
201.935512
 30
0.0
 10
1020.074726
 20
208.780256
 30
0.0
 10
1020.074726
 20
210.000000
 30
0.0
  0
LWPOLYLINE
  5
191
100
AcDbEntity
  8
0
 62
7
100
AcDbPolyline
 90
6
 70
1
 10
610.877723
 20
91.219744
 30
0.0
 10
622.733167
 20
98.064488
 30
0.0
 10
634.588612
 20
91.219744
 30
0.0
 10
634.588612
 20
90.000000
 30
0.0
 10
610.877723
 20
90.000000
 30
0.0
 10
610.877723
 20
91.219744
 30
0.0
  0
LWPOLYLINE
  5
192
100
AcDbEntity
  8
0
 62
7
100
AcDbPolyline
 90
6
 70
1
 10
322.924276
 20
210.000000
 30
0.0
 10
346.635165
 20
210.000000
 30
0.0
 10
346.635165
 20
208.780256
 30
0.0
 10
334.779720
 20
201.935512
 30
0.0
 10
322.924276
 20
208.780256
 30
0.0
 10
322.924276
 20
210.000000
 30
0.0
  0
LWPOLYLINE
  5
193
100
AcDbEntity
  8
0
 62
7
100
AcDbPolyline
 90
5
 70
1
 10
1035.230171
 20
130.030256
 30
0.0
 10
1035.230171
 20
143.719744
 30
0.0
 10
1046.000000
 20
149.937708
 30
0.0
 10
1046.000000
 20
123.812292
 30
0.0
 10
1035.230171
 20
130.030256
 30
0.0
  0
LWPOLYLINE
  5
194
100
AcDbEntity
  8
0
 62
7
100
AcDbPolyline
 90
6
 70
1
 10
277.457942
 20
91.219744
 30
0.0
 10
289.313387
 20
98.064488
 30
0.0
 10
301.168831
 20
91.219744
 30
0.0
 10
301.168831
 20
90.000000
 30
0.0
 10
277.457942
 20
90.000000
 30
0.0
 10
277.457942
 20
91.219744
 30
0.0
  0
LWPOLYLINE
  5
195
100
AcDbEntity
  8
0
 62
7
100
AcDbPolyline
 90
6
 70
1
 10
626.033167
 20
210.000000
 30
0.0
 10
649.744056
 20
210.000000
 30
0.0
 10
649.744056
 20
208.780256
 30
0.0
 10
637.888612
 20
201.935512
 30
0.0
 10
626.033167
 20
208.780256
 30
0.0
 10
626.033167
 20
210.000000
 30
0.0
  0
LWPOLYLINE
  5
196
100
AcDbEntity
  8
0
 62
7
100
AcDbPolyline
 90
6
 70
1
 10
156.214386
 20
91.219744
 30
0.0
 10
168.069830
 20
98.064488
 30
0.0
 10
179.925275
 20
91.219744
 30
0.0
 10
179.925275
 20
90.000000
 30
0.0
 10
156.214386
 20
90.000000
 30
0.0
 10
156.214386
 20
91.219744
 30
0.0
  0
LWPOLYLINE
  5
197
100
AcDbEntity
  8
0
 62
7
100
AcDbPolyline
 90
6
 70
1
 10
944.297503
 20
91.219744
 30
0.0
 10
956.152948
 20
98.064488
 30
0.0
 10
968.008392
 20
91.219744
 30
0.0
 10
968.008392
 20
90.000000
 30
0.0
 10
944.297503
 20
90.000000
 30
0.0
 10
944.297503
 20
91.219744
 30
0.0
  0
LWPOLYLINE
  5
198
100
AcDbEntity
  8
0
 62
7
100
AcDbPolyline
 90
5
 70
1
 10
154.000000
 20
123.687708
 30
0.0
 10
164.769830
 20
117.469744
 30
0.0
 10
164.769830
 20
103.780256
 30
0.0
 10
154.000000
 20
97.562292
 30
0.0
 10
154.000000
 20
123.687708
 30
0.0
  0
LWPOLYLINE
  5
199
100
AcDbEntity
  8
0
 62
7
100
AcDbPolyline
 90
6
 70
1
 10
504.789611
 20
210.000000
 30
0.0
 10
528.500500
 20
210.000000
 30
0.0
 10
528.500500
 20
208.780256
 30
0.0
 10
516.645055
 20
201.935512
 30
0.0
 10
504.789611
 20
208.780256
 30
0.0
 10
504.789611
 20
210.000000
 30
0.0
  0
LWPOLYLINE
  5
19a
100
AcDbEntity
  8
0
 62
7
100
AcDbPolyline
 90
6
 70
1
 10
898.831169
 20
210.000000
 30
0.0
 10
922.542059
 20
210.000000
 30
0.0
 10
922.542059
 20
208.780256
 30
0.0
 10
910.686614
 20
201.935512
 30
0.0
 10
898.831169
 20
208.780256
 30
0.0
 10
898.831169
 20
210.000000
 30
0.0
  0
LWPOLYLINE
  5
19b
100
AcDbEntity
  8
0
 62
7
100
AcDbPolyline
 90
6
 70
1
 10
747.276724
 20
210.000000
 30
0.0
 10
770.987613
 20
210.000000
 30
0.0
 10
770.987613
 20
208.780256
 30
0.0
 10
759.132168
 20
201.935512
 30
0.0
 10
747.276724
 20
208.780256
 30
0.0
 10
747.276724
 20
210.000000
 30
0.0
  0
LWPOLYLINE
  5
19c
100
AcDbEntity
  8
0
 62
7
100
AcDbPolyline
 90
6
 70
1
 10
353.235165
 20
210.000000
 30
0.0
 10
376.946054
 20
210.000000
 30
0.0
 10
376.946054
 20
208.780256
 30
0.0
 10
365.090610
 20
201.935512
 30
0.0
 10
353.235165
 20
208.780256
 30
0.0
 10
353.235165
 20
210.000000
 30
0.0
  0
LWPOLYLINE
  5
19d
100
AcDbEntity
  8
0
 62
7
100
AcDbPolyline
 90
6
 70
1
 10
368.390610
 20
91.219744
 30
0.0
 10
380.246054
 20
98.064488
 30
0.0
 10
392.101499
 20
91.219744
 30
0.0
 10
392.101499
 20
90.000000
 30
0.0
 10
368.390610
 20
90.000000
 30
0.0
 10
368.390610
 20
91.219744
 30
0.0
  0
LWPOLYLINE
  5
19e
100
AcDbEntity
  8
0
 62
7
100
AcDbPolyline
 90
6
 70
1
 10
186.525275
 20
91.219744
 30
0.0
 10
198.380719
 20
98.064488
 30
0.0
 10
210.236164
 20
91.219744
 30
0.0
 10
210.236164
 20
90.000000
 30
0.0
 10
186.525275
 20
90.000000
 30
0.0
 10
186.525275
 20
91.219744
 30
0.0
  0
LWPOLYLINE
  5
19f
100
AcDbEntity
  8
0
 62
7
100
AcDbPolyline
 90
6
 70
1
 10
292.613387
 20
210.000000
 30
0.0
 10
316.324276
 20
210.000000
 30
0.0
 10
316.324276
 20
208.780256
 30
0.0
 10
304.468831
 20
201.935512
 30
0.0
 10
292.613387
 20
208.780256
 30
0.0
 10
292.613387
 20
210.000000
 30
0.0
  0
LWPOLYLINE
  5
1a0
100
AcDbEntity
  8
0
 62
7
100
AcDbPolyline
 90
6
 70
1
 10
383.546054
 20
210.000000
 30
0.0
 10
407.256943
 20
210.000000
 30
0.0
 10
407.256943
 20
208.780256
 30
0.0
 10
395.401499
 20
201.935512
 30
0.0
 10
383.546054
 20
208.780256
 30
0.0
 10
383.546054
 20
210.000000
 30
0.0
  0
LWPOLYLINE
  5
1a1
100
AcDbEntity
  8
0
 62
7
100
AcDbPolyline
 90
6
 70
1
 10
535.100500
 20
210.000000
 30
0.0
 10
558.811389
 20
210.000000
 30
0.0
 10
558.811389
 20
208.780256
 30
0.0
 10
546.955944
 20
201.935512
 30
0.0
 10
535.100500
 20
208.780256
 30
0.0
 10
535.100500
 20
210.000000
 30
0.0
  0
LWPOLYLINE
  5
1a2
100
AcDbEntity
  8
0
 62
7
100
AcDbPolyline
 90
5
 70
1
 10
1035.230171
 20
91.219744
 30
0.0
 10
1046.000000
 20
97.437708
 30
0.0
 10
1046.000000
 20
90.000000
 30
0.0
 10
1035.230171
 20
90.000000
 30
0.0
 10
1035.230171
 20
91.219744
 30
0.0
  0
LWPOLYLINE
  5
1a3
100
AcDbEntity
  8
0
 62
7
100
AcDbPolyline
 90
6
 70
1
 10
686.654945
 20
210.000000
 30
0.0
 10
710.365835
 20
210.000000
 30
0.0
 10
710.365835
 20
208.780256
 30
0.0
 10
698.510390
 20
201.935512
 30
0.0
 10
686.654945
 20
208.780256
 30
0.0
 10
686.654945
 20
210.000000
 30
0.0
  0
LWPOLYLINE
  5
1a4
100
AcDbEntity
  8
0
 62
7
100
AcDbPolyline
 90
6
 70
1
 10
307.768831
 20
91.219744
 30
0.0
 10
319.624276
 20
98.064488
 30
0.0
 10
331.479720
 20
91.219744
 30
0.0
 10
331.479720
 20
90.000000
 30
0.0
 10
307.768831
 20
90.000000
 30
0.0
 10
307.768831
 20
91.219744
 30
0.0
  0
LWPOLYLINE
  5
1a5
100
AcDbEntity
  8
0
 62
7
100
AcDbPolyline
 90
6
 70
1
 10
838.209391
 20
210.000000
 30
0.0
 10
861.920280
 20
210.000000
 30
0.0
 10
861.920280
 20
208.780256
 30
0.0
 10
850.064836
 20
201.935512
 30
0.0
 10
838.209391
 20
208.780256
 30
0.0
 10
838.209391
 20
210.000000
 30
0.0
  0
LWPOLYLINE
  5
1a6
100
AcDbEntity
  8
0
 62
7
100
AcDbPolyline
 90
6
 70
1
 10
519.945055
 20
91.219744
 30
0.0
 10
531.800500
 20
98.064488
 30
0.0
 10
543.655944
 20
91.219744
 30
0.0
 10
543.655944
 20
90.000000
 30
0.0
 10
519.945055
 20
90.000000
 30
0.0
 10
519.945055
 20
91.219744
 30
0.0
  0
LWPOLYLINE
  5
1a7
100
AcDbEntity
  8
0
 62
7
100
AcDbPolyline
 90
6
 70
1
 10
868.520280
 20
210.000000
 30
0.0
 10
892.231169
 20
210.000000
 30
0.0
 10
892.231169
 20
208.780256
 30
0.0
 10
880.375725
 20
201.935512
 30
0.0
 10
868.520280
 20
208.780256
 30
0.0
 10
868.520280
 20
210.000000
 30
0.0
  0
LWPOLYLINE
  5
1a8
100
AcDbEntity
  8
0
 62
7
100
AcDbPolyline
 90
6
 70
1
 10
732.121279
 20
91.219744
 30
0.0
 10
743.976724
 20
98.064488
 30
0.0
 10
755.832168
 20
91.219744
 30
0.0
 10
755.832168
 20
90.000000
 30
0.0
 10
732.121279
 20
90.000000
 30
0.0
 10
732.121279
 20
91.219744
 30
0.0
  0
LWPOLYLINE
  5
1a9
100
AcDbEntity
  8
0
 62
7
100
AcDbPolyline
 90
6
 70
1
 10
474.478722
 20
210.000000
 30
0.0
 10
498.189611
 20
210.000000
 30
0.0
 10
498.189611
 20
208.780256
 30
0.0
 10
486.334166
 20
201.935512
 30
0.0
 10
474.478722
 20
208.780256
 30
0.0
 10
474.478722
 20
210.000000
 30
0.0
  0
LWPOLYLINE
  5
1aa
100
AcDbEntity
  8
0
 62
7
100
AcDbPolyline
 90
6
 70
1
 10
853.364836
 20
91.219744
 30
0.0
 10
865.220280
 20
98.064488
 30
0.0
 10
877.075725
 20
91.219744
 30
0.0
 10
877.075725
 20
90.000000
 30
0.0
 10
853.364836
 20
90.000000
 30
0.0
 10
853.364836
 20
91.219744
 30
0.0
  0
LWPOLYLINE
  5
1ab
100
AcDbEntity
  8
0
 62
7
100
AcDbPolyline
 90
6
 70
1
 10
989.763837
 20
210.000000
 30
0.0
 10
1013.474726
 20
210.000000
 30
0.0
 10
1013.474726
 20
208.780256
 30
0.0
 10
1001.619281
 20
201.935512
 30
0.0
 10
989.763837
 20
208.780256
 30
0.0
 10
989.763837
 20
210.000000
 30
0.0
  0
LWPOLYLINE
  5
1ac
100
AcDbEntity
  8
0
 62
7
100
AcDbPolyline
 90
6
 70
1
 10
262.302498
 20
210.000000
 30
0.0
 10
286.013387
 20
210.000000
 30
0.0
 10
286.013387
 20
208.780256
 30
0.0
 10
274.157942
 20
201.935512
 30
0.0
 10
262.302498
 20
208.780256
 30
0.0
 10
262.302498
 20
210.000000
 30
0.0
  0
LWPOLYLINE
  5
1ad
100
AcDbEntity
  8
0
 62
7
100
AcDbPolyline
 90
6
 70
1
 10
565.411389
 20
210.000000
 30
0.0
 10
589.122278
 20
210.000000
 30
0.0
 10
589.122278
 20
208.780256
 30
0.0
 10
577.266834
 20
201.935512
 30
0.0
 10
565.411389
 20
208.780256
 30
0.0
 10
565.411389
 20
210.000000
 30
0.0
  0
LWPOLYLINE
  5
1ae
100
AcDbEntity
  8
0
 62
7
100
AcDbPolyline
 90
5
 70
1
 10
164.769830
 20
208.780256
 30
0.0
 10
154.000000
 20
202.562292
 30
0.0
 10
154.000000
 20
210.000000
 30
0.0
 10
164.769830
 20
210.000000
 30
0.0
 10
164.769830
 20
208.780256
 30
0.0
  0
LWPOLYLINE
  5
1af
100
AcDbEntity
  8
0
 62
7
100
AcDbPolyline
 90
6
 70
1
 10
231.991608
 20
210.000000
 30
0.0
 10
255.702498
 20
210.000000
 30
0.0
 10
255.702498
 20
208.780256
 30
0.0
 10
243.847053
 20
201.935512
 30
0.0
 10
231.991608
 20
208.780256
 30
0.0
 10
231.991608
 20
210.000000
 30
0.0
  0
LWPOLYLINE
  5
1b0
100
AcDbEntity
  8
0
 62
7
100
AcDbPolyline
 90
6
 70
1
 10
929.142059
 20
210.000000
 30
0.0
 10
952.852948
 20
210.000000
 30
0.0
 10
952.852948
 20
208.780256
 30
0.0
 10
940.997503
 20
201.935512
 30
0.0
 10
929.142059
 20
208.780256
 30
0.0
 10
929.142059
 20
210.000000
 30
0.0
  0
LWPOLYLINE
  5
1b1
100
AcDbEntity
  8
0
 62
7
100
AcDbPolyline
 90
6
 70
1
 10
1004.919281
 20
91.219744
 30
0.0
 10
1016.774726
 20
98.064488
 30
0.0
 10
1028.630171
 20
91.219744
 30
0.0
 10
1028.630171
 20
90.000000
 30
0.0
 10
1004.919281
 20
90.000000
 30
0.0
 10
1004.919281
 20
91.219744
 30
0.0
  0
LWPOLYLINE
  5
1b2
100
AcDbEntity
  8
0
 62
7
100
AcDbPolyline
 90
6
 70
1
 10
338.079720
 20
91.219744
 30
0.0
 10
349.935165
 20
98.064488
 30
0.0
 10
361.790610
 20
91.219744
 30
0.0
 10
361.790610
 20
90.000000
 30
0.0
 10
338.079720
 20
90.000000
 30
0.0
 10
338.079720
 20
91.219744
 30
0.0
  0
LWPOLYLINE
  5
1b3
100
AcDbEntity
  8
0
 62
7
100
AcDbPolyline
 90
6
 70
1
 10
792.743057
 20
91.219744
 30
0.0
 10
804.598502
 20
98.064488
 30
0.0
 10
816.453947
 20
91.219744
 30
0.0
 10
816.453947
 20
90.000000
 30
0.0
 10
792.743057
 20
90.000000
 30
0.0
 10
792.743057
 20
91.219744
 30
0.0
  0
LWPOLYLINE
  5
1b4
100
AcDbEntity
  8
0
 62
7
100
AcDbPolyline
 90
5
 70
1
 10
147.000000
 20
61.000000
 30
0.0
 10
1053.000000
 20
61.000000
 30
0.0
 10
1053.000000
 20
239.000000
 30
0.0
 10
147.000000
 20
239.000000
 30
0.0
 10
147.000000
 20
61.000000
 30
0.0
  0
ENDSEC
  0
SECTION
  2
OBJECTS
  0
DICTIONARY
  5
C
330
0
100
AcDbDictionary
  3
ACAD_GROUP
350
D
  3
ACAD_MLINESTYLE
350
17
  0
DICTIONARY
  5
D
330
C
100
AcDbDictionary
  0
DICTIONARY
  5
1A
330
C
100
AcDbDictionary
  0
DICTIONARY
  5
17
330
C
100
AcDbDictionary
  3
STANDARD
350
18
  0
DICTIONARY
  5
19
330
C
100
AcDbDictionary
  0
ENDSEC
  0
EOF
