<?xml version="1.0" encoding="UTF-8" standalone="no"?>
<svg
   height="300mm"
   version="1.1"
   viewBox="0 0 1200 300"
   width="1200mm"
   id="svg181"
   sodipodi:docname="tramo1.6_MEDIDAS.svg"
   inkscape:version="1.4.2 (1:1.4.2+202505120737+ebf0e940d0)"
   xmlns:inkscape="http://www.inkscape.org/namespaces/inkscape"
   xmlns:sodipodi="http://sodipodi.sourceforge.net/DTD/sodipodi-0.dtd"
   xmlns="http://www.w3.org/2000/svg"
   xmlns:svg="http://www.w3.org/2000/svg">
  <sodipodi:namedview
     id="namedview181"
     pagecolor="#ffffff"
     bordercolor="#666666"
     borderopacity="1.0"
     inkscape:showpageshadow="2"
     inkscape:pageopacity="0.0"
     inkscape:pagecheckerboard="0"
     inkscape:deskcolor="#d1d1d1"
     inkscape:document-units="mm"
     inkscape:zoom="2.109113"
     inkscape:cx="3973.9455"
     inkscape:cy="863.39614"
     inkscape:window-width="1920"
     inkscape:window-height="1011"
     inkscape:window-x="0"
     inkscape:window-y="0"
     inkscape:window-maximized="1"
     inkscape:current-layer="svg181" />
  <defs
     id="defs1">
    <marker
       style="overflow:visible"
       id="Stop"
       refX="0"
       refY="0"
       orient="auto"
       inkscape:stockid="Stop"
       markerWidth="1"
       markerHeight="1"
       viewBox="0 0 1 1"
       inkscape:isstock="true"
       inkscape:collect="always"
       preserveAspectRatio="xMidYMid">
      <path
         style="fill:none;stroke:context-stroke;stroke-width:1"
         d="M 0,4 V -4"
         id="path203" />
    </marker>
  </defs>
  <path
     style="fill:none;stroke:#000000;stroke-width:1.265;stroke-linecap:butt;stroke-linejoin:miter;stroke-dasharray:none;stroke-opacity:1;marker-start:url(#Stop);marker-end:url(#Stop)"
     d="M 123.15816,64.850004 V 235"
     id="path202"
     sodipodi:nodetypes="cc" />
  <text
     xml:space="preserve"
     style="font-size:25.4px;line-height:1.25;font-family:'Noto Mono';-inkscape-font-specification:'Noto Mono';word-spacing:0px;stroke-width:0.264583"
     x="41.947624"
     y="158.63213"
     id="text203"><tspan
       sodipodi:role="line"
       id="tspan203"
       style="stroke-width:0.264583"
       x="41.947624"
       y="158.63213">170</tspan></text>
  <text
     xml:space="preserve"
     style="font-size:25.4px;line-height:1.25;font-family:'Noto Mono';-inkscape-font-specification:'Noto Mono';word-spacing:0px;stroke-width:0.264583"
     x="478.58588"
     y="39.713371"
     id="text203-6"><tspan
       sodipodi:role="line"
       id="tspan203-7"
       style="stroke-width:0.264583"
       x="478.58588"
       y="39.713371">Tabica 1.6 y 1.7</tspan></text>
  <path
     style="fill:none;stroke:#000000;stroke-width:1.265;stroke-linecap:butt;stroke-linejoin:miter;stroke-dasharray:none;stroke-opacity:1;marker-start:url(#Stop);marker-end:url(#Stop)"
     d="M 1072.6734,89.565984 V 209.56598"
     id="path204"
     sodipodi:nodetypes="cc" />
  <text
     xml:space="preserve"
     style="font-size:25.4px;line-height:1.25;font-family:'Noto Mono';-inkscape-font-specification:'Noto Mono';word-spacing:0px;stroke-width:0.264583"
     x="1096.4995"
     y="158.76234"
     id="text204"><tspan
       sodipodi:role="line"
       id="tspan204"
       style="stroke-width:0.264583"
       x="1096.4995"
       y="158.76234">120</tspan></text>
  <path
     style="fill:none;stroke:#000000;stroke-width:1.265;stroke-linecap:butt;stroke-linejoin:miter;stroke-dasharray:none;stroke-opacity:1;marker-start:url(#Stop);marker-end:url(#Stop)"
     d="M 1053.2241,253.16191 H 145.71234"
     id="path205"
     sodipodi:nodetypes="cc" />
  <text
     xml:space="preserve"
     style="font-size:25.4px;line-height:1.25;font-family:'Noto Mono';-inkscape-font-specification:'Noto Mono';word-spacing:0px;stroke-width:0.264583"
     x="577.33948"
     y="281.069"
     id="text205"><tspan
       sodipodi:role="line"
       id="tspan205"
       style="stroke-width:0.264583"
       x="577.33948"
       y="281.069">908</tspan></text>
  <g
     fill="none"
     stroke="#0000ff"
     stroke-width="0.5"
     transform="translate(-67.056085,65)"
     id="g109"
     style="vector-effect:non-scaling-stroke;stroke-width:0.264583;stroke-dasharray:none;-inkscape-stroke:hairline">
    <path
       d="M 233.12494,91.280256 V 106.96974 L 225.05607,111.62831 V 86.621693 Z"
       id="path1"
       style="vector-effect:non-scaling-stroke;stroke-width:0.264583;stroke-dasharray:none;-inkscape-stroke:hairline" />
    <path
       d="M 233.12494,32.780256 V 48.469744 L 225.05607,53.128307 V 28.121693 Z"
       id="path2"
       style="vector-effect:non-scaling-stroke;stroke-width:0.264583;stroke-dasharray:none;-inkscape-stroke:hairline" />
    <path
       d="M 250.01243,120.53026 V 136.21974 L 236.53663,144 H 236.31324 L 225.05607,137.50067 V 119.24933 L 236.42494,112.68551 Z"
       id="path3"
       style="vector-effect:non-scaling-stroke;stroke-width:0.264583;stroke-dasharray:none;-inkscape-stroke:hairline" />
    <path
       d="M 253.31243,83.435512 266.89993,91.280256 V 106.96974 L 253.31243,114.81449 239.72494,106.96974 V 91.280256 Z"
       id="path4"
       style="vector-effect:non-scaling-stroke;stroke-width:0.264583;stroke-dasharray:none;-inkscape-stroke:hairline" />
    <path
       d="M 250.01243,62.030256 V 77.719744 L 236.42494,85.564488 225.05607,79.000669 V 60.749331 L 236.42494,54.185512 Z"
       id="path5"
       style="vector-effect:non-scaling-stroke;stroke-width:0.264583;stroke-dasharray:none;-inkscape-stroke:hairline" />
    <path
       d="M 253.31243,24.935512 266.89993,32.780256 V 48.469744 L 253.31243,56.314488 239.72494,48.469744 V 32.780256 Z"
       id="path6"
       style="vector-effect:non-scaling-stroke;stroke-width:0.264583;stroke-dasharray:none;-inkscape-stroke:hairline" />
    <path
       d="M 283.78742,120.53026 V 136.21974 L 270.31162,144 H 270.08823 L 256.61243,136.21974 V 120.53026 L 270.19993,112.68551 Z"
       id="path7"
       style="vector-effect:non-scaling-stroke;stroke-width:0.264583;stroke-dasharray:none;-inkscape-stroke:hairline" />
    <path
       d="M 287.08742,83.435512 300.67492,91.280256 V 106.96974 L 287.08742,114.81449 273.49993,106.96974 V 91.280256 Z"
       id="path8"
       style="vector-effect:non-scaling-stroke;stroke-width:0.264583;stroke-dasharray:none;-inkscape-stroke:hairline" />
    <path
       d="M 270.19993,54.185512 283.78742,62.030256 V 77.719744 L 270.19993,85.564488 256.61243,77.719744 V 62.030256 Z"
       id="path9"
       style="vector-effect:non-scaling-stroke;stroke-width:0.264583;stroke-dasharray:none;-inkscape-stroke:hairline" />
    <path
       d="M 287.08742,24.935512 300.67492,32.780256 V 48.469744 L 287.08742,56.314488 273.49993,48.469744 V 32.780256 Z"
       id="path10"
       style="vector-effect:non-scaling-stroke;stroke-width:0.264583;stroke-dasharray:none;-inkscape-stroke:hairline" />
    <path
       d="M 317.56241,120.53026 V 136.21974 L 304.08661,144 H 303.86322 L 290.38742,136.21974 V 120.53026 L 303.97492,112.68551 Z"
       id="path11"
       style="vector-effect:non-scaling-stroke;stroke-width:0.264583;stroke-dasharray:none;-inkscape-stroke:hairline" />
    <path
       d="M 320.86241,83.435512 334.44991,91.280256 V 106.96974 L 320.86241,114.81449 307.27492,106.96974 V 91.280256 Z"
       id="path12"
       style="vector-effect:non-scaling-stroke;stroke-width:0.264583;stroke-dasharray:none;-inkscape-stroke:hairline" />
    <path
       d="M 303.97492,54.185512 317.56241,62.030256 V 77.719744 L 303.97492,85.564488 290.38742,77.719744 V 62.030256 Z"
       id="path13"
       style="vector-effect:non-scaling-stroke;stroke-width:0.264583;stroke-dasharray:none;-inkscape-stroke:hairline" />
    <path
       d="M 320.86241,24.935512 334.44991,32.780256 V 48.469744 L 320.86241,56.314488 307.27492,48.469744 V 32.780256 Z"
       id="path14"
       style="vector-effect:non-scaling-stroke;stroke-width:0.264583;stroke-dasharray:none;-inkscape-stroke:hairline" />
    <path
       d="M 351.3374,120.53026 V 136.21974 L 337.8616,144 H 337.63821 L 324.16241,136.21974 V 120.53026 L 337.74991,112.68551 Z"
       id="path15"
       style="vector-effect:non-scaling-stroke;stroke-width:0.264583;stroke-dasharray:none;-inkscape-stroke:hairline" />
    <path
       d="M 354.6374,83.435512 368.2249,91.280256 V 106.96974 L 354.6374,114.81449 341.04991,106.96974 V 91.280256 Z"
       id="path16"
       style="vector-effect:non-scaling-stroke;stroke-width:0.264583;stroke-dasharray:none;-inkscape-stroke:hairline" />
    <path
       d="M 337.74991,54.185512 351.3374,62.030256 V 77.719744 L 337.74991,85.564488 324.16241,77.719744 V 62.030256 Z"
       id="path17"
       style="vector-effect:non-scaling-stroke;stroke-width:0.264583;stroke-dasharray:none;-inkscape-stroke:hairline" />
    <path
       d="M 354.6374,24.935512 368.2249,32.780256 V 48.469744 L 354.6374,56.314488 341.04991,48.469744 V 32.780256 Z"
       id="path18"
       style="vector-effect:non-scaling-stroke;stroke-width:0.264583;stroke-dasharray:none;-inkscape-stroke:hairline" />
    <path
       d="M 385.11239,120.53026 V 136.21974 L 371.6366,144 H 371.4132 L 357.9374,136.21974 V 120.53026 L 371.5249,112.68551 Z"
       id="path19"
       style="vector-effect:non-scaling-stroke;stroke-width:0.264583;stroke-dasharray:none;-inkscape-stroke:hairline" />
    <path
       d="M 388.41239,83.435512 401.99989,91.280256 V 106.96974 L 388.41239,114.81449 374.8249,106.96974 V 91.280256 Z"
       id="path20"
       style="vector-effect:non-scaling-stroke;stroke-width:0.264583;stroke-dasharray:none;-inkscape-stroke:hairline" />
    <path
       d="M 371.5249,54.185512 385.11239,62.030256 V 77.719744 L 371.5249,85.564488 357.9374,77.719744 V 62.030256 Z"
       id="path21"
       style="vector-effect:non-scaling-stroke;stroke-width:0.264583;stroke-dasharray:none;-inkscape-stroke:hairline" />
    <path
       d="M 388.41239,24.935512 401.99989,32.780256 V 48.469744 L 388.41239,56.314488 374.8249,48.469744 V 32.780256 Z"
       id="path22"
       style="vector-effect:non-scaling-stroke;stroke-width:0.264583;stroke-dasharray:none;-inkscape-stroke:hairline" />
    <path
       d="M 418.88738,120.53026 V 136.21974 L 405.41159,144 H 405.18819 L 391.71239,136.21974 V 120.53026 L 405.29989,112.68551 Z"
       id="path23"
       style="vector-effect:non-scaling-stroke;stroke-width:0.264583;stroke-dasharray:none;-inkscape-stroke:hairline" />
    <path
       d="M 422.18738,83.435512 435.77488,91.280256 V 106.96974 L 422.18738,114.81449 408.59989,106.96974 V 91.280256 Z"
       id="path24"
       style="vector-effect:non-scaling-stroke;stroke-width:0.264583;stroke-dasharray:none;-inkscape-stroke:hairline" />
    <path
       d="M 405.29989,54.185512 418.88738,62.030256 V 77.719744 L 405.29989,85.564488 391.71239,77.719744 V 62.030256 Z"
       id="path25"
       style="vector-effect:non-scaling-stroke;stroke-width:0.264583;stroke-dasharray:none;-inkscape-stroke:hairline" />
    <path
       d="M 422.18738,24.935512 435.77488,32.780256 V 48.469744 L 422.18738,56.314488 408.59989,48.469744 V 32.780256 Z"
       id="path26"
       style="vector-effect:non-scaling-stroke;stroke-width:0.264583;stroke-dasharray:none;-inkscape-stroke:hairline" />
    <path
       d="M 452.66238,120.53026 V 136.21974 L 439.18658,144 H 438.96318 L 425.48738,136.21974 V 120.53026 L 439.07488,112.68551 Z"
       id="path27"
       style="vector-effect:non-scaling-stroke;stroke-width:0.264583;stroke-dasharray:none;-inkscape-stroke:hairline" />
    <path
       d="M 455.96238,83.435512 469.54987,91.280256 V 106.96974 L 455.96238,114.81449 442.37488,106.96974 V 91.280256 Z"
       id="path28"
       style="vector-effect:non-scaling-stroke;stroke-width:0.264583;stroke-dasharray:none;-inkscape-stroke:hairline" />
    <path
       d="M 439.07488,54.185512 452.66238,62.030256 V 77.719744 L 439.07488,85.564488 425.48738,77.719744 V 62.030256 Z"
       id="path29"
       style="vector-effect:non-scaling-stroke;stroke-width:0.264583;stroke-dasharray:none;-inkscape-stroke:hairline" />
    <path
       d="M 455.96238,24.935512 469.54987,32.780256 V 48.469744 L 455.96238,56.314488 442.37488,48.469744 V 32.780256 Z"
       id="path30"
       style="vector-effect:non-scaling-stroke;stroke-width:0.264583;stroke-dasharray:none;-inkscape-stroke:hairline" />
    <path
       d="M 486.43737,120.53026 V 136.21974 L 472.96157,144 H 472.73817 L 459.26238,136.21974 V 120.53026 L 472.84987,112.68551 Z"
       id="path31"
       style="vector-effect:non-scaling-stroke;stroke-width:0.264583;stroke-dasharray:none;-inkscape-stroke:hairline" />
    <path
       d="M 489.73737,83.435512 503.32486,91.280256 V 106.96974 L 489.73737,114.81449 476.14987,106.96974 V 91.280256 Z"
       id="path32"
       style="vector-effect:non-scaling-stroke;stroke-width:0.264583;stroke-dasharray:none;-inkscape-stroke:hairline" />
    <path
       d="M 472.84987,54.185512 486.43737,62.030256 V 77.719744 L 472.84987,85.564488 459.26238,77.719744 V 62.030256 Z"
       id="path33"
       style="vector-effect:non-scaling-stroke;stroke-width:0.264583;stroke-dasharray:none;-inkscape-stroke:hairline" />
    <path
       d="M 489.73737,24.935512 503.32486,32.780256 V 48.469744 L 489.73737,56.314488 476.14987,48.469744 V 32.780256 Z"
       id="path34"
       style="vector-effect:non-scaling-stroke;stroke-width:0.264583;stroke-dasharray:none;-inkscape-stroke:hairline" />
    <path
       d="M 520.21236,120.53026 V 136.21974 L 506.73656,144 H 506.51316 L 493.03737,136.21974 V 120.53026 L 506.62486,112.68551 Z"
       id="path35"
       style="vector-effect:non-scaling-stroke;stroke-width:0.264583;stroke-dasharray:none;-inkscape-stroke:hairline" />
    <path
       d="M 523.51236,83.435512 537.09985,91.280256 V 106.96974 L 523.51236,114.81449 509.92486,106.96974 V 91.280256 Z"
       id="path36"
       style="vector-effect:non-scaling-stroke;stroke-width:0.264583;stroke-dasharray:none;-inkscape-stroke:hairline" />
    <path
       d="M 506.62486,54.185512 520.21236,62.030256 V 77.719744 L 506.62486,85.564488 493.03737,77.719744 V 62.030256 Z"
       id="path37"
       style="vector-effect:non-scaling-stroke;stroke-width:0.264583;stroke-dasharray:none;-inkscape-stroke:hairline" />
    <path
       d="M 523.51236,24.935512 537.09985,32.780256 V 48.469744 L 523.51236,56.314488 509.92486,48.469744 V 32.780256 Z"
       id="path38"
       style="vector-effect:non-scaling-stroke;stroke-width:0.264583;stroke-dasharray:none;-inkscape-stroke:hairline" />
    <path
       d="M 553.98735,120.53026 V 136.21974 L 540.51155,144 H 540.28816 L 526.81236,136.21974 V 120.53026 L 540.39985,112.68551 Z"
       id="path39"
       style="vector-effect:non-scaling-stroke;stroke-width:0.264583;stroke-dasharray:none;-inkscape-stroke:hairline" />
    <path
       d="M 557.28735,83.435512 570.87484,91.280256 V 106.96974 L 557.28735,114.81449 543.69985,106.96974 V 91.280256 Z"
       id="path40"
       style="vector-effect:non-scaling-stroke;stroke-width:0.264583;stroke-dasharray:none;-inkscape-stroke:hairline" />
    <path
       d="M 540.39985,54.185512 553.98735,62.030256 V 77.719744 L 540.39985,85.564488 526.81236,77.719744 V 62.030256 Z"
       id="path41"
       style="vector-effect:non-scaling-stroke;stroke-width:0.264583;stroke-dasharray:none;-inkscape-stroke:hairline" />
    <path
       d="M 557.28735,24.935512 570.87484,32.780256 V 48.469744 L 557.28735,56.314488 543.69985,48.469744 V 32.780256 Z"
       id="path42"
       style="vector-effect:non-scaling-stroke;stroke-width:0.264583;stroke-dasharray:none;-inkscape-stroke:hairline" />
    <path
       d="M 587.76234,120.53026 V 136.21974 L 574.28654,144 H 574.06315 L 560.58735,136.21974 V 120.53026 L 574.17484,112.68551 Z"
       id="path43"
       style="vector-effect:non-scaling-stroke;stroke-width:0.264583;stroke-dasharray:none;-inkscape-stroke:hairline" />
    <path
       d="M 591.06234,83.435512 604.64983,91.280256 V 106.96974 L 591.06234,114.81449 577.47484,106.96974 V 91.280256 Z"
       id="path44"
       style="vector-effect:non-scaling-stroke;stroke-width:0.264583;stroke-dasharray:none;-inkscape-stroke:hairline" />
    <path
       d="M 574.17484,54.185512 587.76234,62.030256 V 77.719744 L 574.17484,85.564488 560.58735,77.719744 V 62.030256 Z"
       id="path45"
       style="vector-effect:non-scaling-stroke;stroke-width:0.264583;stroke-dasharray:none;-inkscape-stroke:hairline" />
    <path
       d="M 591.06234,24.935512 604.64983,32.780256 V 48.469744 L 591.06234,56.314488 577.47484,48.469744 V 32.780256 Z"
       id="path46"
       style="vector-effect:non-scaling-stroke;stroke-width:0.264583;stroke-dasharray:none;-inkscape-stroke:hairline" />
    <path
       d="M 621.53733,120.53026 V 136.21974 L 608.06153,144 H 607.83814 L 594.36234,136.21974 V 120.53026 L 607.94983,112.68551 Z"
       id="path47"
       style="vector-effect:non-scaling-stroke;stroke-width:0.264583;stroke-dasharray:none;-inkscape-stroke:hairline" />
    <path
       d="M 624.83733,83.435512 638.42482,91.280256 V 106.96974 L 624.83733,114.81449 611.24983,106.96974 V 91.280256 Z"
       id="path48"
       style="vector-effect:non-scaling-stroke;stroke-width:0.264583;stroke-dasharray:none;-inkscape-stroke:hairline" />
    <path
       d="M 607.94983,54.185512 621.53733,62.030256 V 77.719744 L 607.94983,85.564488 594.36234,77.719744 V 62.030256 Z"
       id="path49"
       style="vector-effect:non-scaling-stroke;stroke-width:0.264583;stroke-dasharray:none;-inkscape-stroke:hairline" />
    <path
       d="M 624.83733,24.935512 638.42482,32.780256 V 48.469744 L 624.83733,56.314488 611.24983,48.469744 V 32.780256 Z"
       id="path50"
       style="vector-effect:non-scaling-stroke;stroke-width:0.264583;stroke-dasharray:none;-inkscape-stroke:hairline" />
    <path
       d="M 655.31232,120.53026 V 136.21974 L 641.83652,144 H 641.61313 L 628.13733,136.21974 V 120.53026 L 641.72482,112.68551 Z"
       id="path51"
       style="vector-effect:non-scaling-stroke;stroke-width:0.264583;stroke-dasharray:none;-inkscape-stroke:hairline" />
    <path
       d="M 658.61232,83.435512 672.19981,91.280256 V 106.96974 L 658.61232,114.81449 645.02482,106.96974 V 91.280256 Z"
       id="path52"
       style="vector-effect:non-scaling-stroke;stroke-width:0.264583;stroke-dasharray:none;-inkscape-stroke:hairline" />
    <path
       d="M 641.72482,54.185512 655.31232,62.030256 V 77.719744 L 641.72482,85.564488 628.13733,77.719744 V 62.030256 Z"
       id="path53"
       style="vector-effect:non-scaling-stroke;stroke-width:0.264583;stroke-dasharray:none;-inkscape-stroke:hairline" />
    <path
       d="M 658.61232,24.935512 672.19981,32.780256 V 48.469744 L 658.61232,56.314488 645.02482,48.469744 V 32.780256 Z"
       id="path54"
       style="vector-effect:non-scaling-stroke;stroke-width:0.264583;stroke-dasharray:none;-inkscape-stroke:hairline" />
    <path
       d="M 689.08731,120.53026 V 136.21974 L 675.61151,144 H 675.38812 L 661.91232,136.21974 V 120.53026 L 675.49981,112.68551 Z"
       id="path55"
       style="vector-effect:non-scaling-stroke;stroke-width:0.264583;stroke-dasharray:none;-inkscape-stroke:hairline" />
    <path
       d="M 692.38731,83.435512 705.97481,91.280256 V 106.96974 L 692.38731,114.81449 678.79981,106.96974 V 91.280256 Z"
       id="path56"
       style="vector-effect:non-scaling-stroke;stroke-width:0.264583;stroke-dasharray:none;-inkscape-stroke:hairline" />
    <path
       d="M 675.49981,54.185512 689.08731,62.030256 V 77.719744 L 675.49981,85.564488 661.91232,77.719744 V 62.030256 Z"
       id="path57"
       style="vector-effect:non-scaling-stroke;stroke-width:0.264583;stroke-dasharray:none;-inkscape-stroke:hairline" />
    <path
       d="M 692.38731,24.935512 705.97481,32.780256 V 48.469744 L 692.38731,56.314488 678.79981,48.469744 V 32.780256 Z"
       id="path58"
       style="vector-effect:non-scaling-stroke;stroke-width:0.264583;stroke-dasharray:none;-inkscape-stroke:hairline" />
    <path
       d="M 722.8623,120.53026 V 136.21974 L 709.3865,144 H 709.16311 L 695.68731,136.21974 V 120.53026 L 709.27481,112.68551 Z"
       id="path59"
       style="vector-effect:non-scaling-stroke;stroke-width:0.264583;stroke-dasharray:none;-inkscape-stroke:hairline" />
    <path
       d="M 726.1623,83.435512 739.7498,91.280256 V 106.96974 L 726.1623,114.81449 712.57481,106.96974 V 91.280256 Z"
       id="path60"
       style="vector-effect:non-scaling-stroke;stroke-width:0.264583;stroke-dasharray:none;-inkscape-stroke:hairline" />
    <path
       d="M 709.27481,54.185512 722.8623,62.030256 V 77.719744 L 709.27481,85.564488 695.68731,77.719744 V 62.030256 Z"
       id="path61"
       style="vector-effect:non-scaling-stroke;stroke-width:0.264583;stroke-dasharray:none;-inkscape-stroke:hairline" />
    <path
       d="M 726.1623,24.935512 739.7498,32.780256 V 48.469744 L 726.1623,56.314488 712.57481,48.469744 V 32.780256 Z"
       id="path62"
       style="vector-effect:non-scaling-stroke;stroke-width:0.264583;stroke-dasharray:none;-inkscape-stroke:hairline" />
    <path
       d="M 756.63729,120.53026 V 136.21974 L 743.16149,144 H 742.9381 L 729.4623,136.21974 V 120.53026 L 743.0498,112.68551 Z"
       id="path63"
       style="vector-effect:non-scaling-stroke;stroke-width:0.264583;stroke-dasharray:none;-inkscape-stroke:hairline" />
    <path
       d="M 759.93729,83.435512 773.52479,91.280256 V 106.96974 L 759.93729,114.81449 746.3498,106.96974 V 91.280256 Z"
       id="path64"
       style="vector-effect:non-scaling-stroke;stroke-width:0.264583;stroke-dasharray:none;-inkscape-stroke:hairline" />
    <path
       d="M 743.0498,54.185512 756.63729,62.030256 V 77.719744 L 743.0498,85.564488 729.4623,77.719744 V 62.030256 Z"
       id="path65"
       style="vector-effect:non-scaling-stroke;stroke-width:0.264583;stroke-dasharray:none;-inkscape-stroke:hairline" />
    <path
       d="M 759.93729,24.935512 773.52479,32.780256 V 48.469744 L 759.93729,56.314488 746.3498,48.469744 V 32.780256 Z"
       id="path66"
       style="vector-effect:non-scaling-stroke;stroke-width:0.264583;stroke-dasharray:none;-inkscape-stroke:hairline" />
    <path
       d="M 790.41228,120.53026 V 136.21974 L 776.93648,144 H 776.71309 L 763.23729,136.21974 V 120.53026 L 776.82479,112.68551 Z"
       id="path67"
       style="vector-effect:non-scaling-stroke;stroke-width:0.264583;stroke-dasharray:none;-inkscape-stroke:hairline" />
    <path
       d="M 793.71228,83.435512 807.29978,91.280256 V 106.96974 L 793.71228,114.81449 780.12479,106.96974 V 91.280256 Z"
       id="path68"
       style="vector-effect:non-scaling-stroke;stroke-width:0.264583;stroke-dasharray:none;-inkscape-stroke:hairline" />
    <path
       d="M 776.82479,54.185512 790.41228,62.030256 V 77.719744 L 776.82479,85.564488 763.23729,77.719744 V 62.030256 Z"
       id="path69"
       style="vector-effect:non-scaling-stroke;stroke-width:0.264583;stroke-dasharray:none;-inkscape-stroke:hairline" />
    <path
       d="M 793.71228,24.935512 807.29978,32.780256 V 48.469744 L 793.71228,56.314488 780.12479,48.469744 V 32.780256 Z"
       id="path70"
       style="vector-effect:non-scaling-stroke;stroke-width:0.264583;stroke-dasharray:none;-inkscape-stroke:hairline" />
    <path
       d="M 824.18727,120.53026 V 136.21974 L 810.71147,144 H 810.48808 L 797.01228,136.21974 V 120.53026 L 810.59978,112.68551 Z"
       id="path71"
       style="vector-effect:non-scaling-stroke;stroke-width:0.264583;stroke-dasharray:none;-inkscape-stroke:hairline" />
    <path
       d="M 827.48727,83.435512 841.07477,91.280256 V 106.96974 L 827.48727,114.81449 813.89978,106.96974 V 91.280256 Z"
       id="path72"
       style="vector-effect:non-scaling-stroke;stroke-width:0.264583;stroke-dasharray:none;-inkscape-stroke:hairline" />
    <path
       d="M 810.59978,54.185512 824.18727,62.030256 V 77.719744 L 810.59978,85.564488 797.01228,77.719744 V 62.030256 Z"
       id="path73"
       style="vector-effect:non-scaling-stroke;stroke-width:0.264583;stroke-dasharray:none;-inkscape-stroke:hairline" />
    <path
       d="M 827.48727,24.935512 841.07477,32.780256 V 48.469744 L 827.48727,56.314488 813.89978,48.469744 V 32.780256 Z"
       id="path74"
       style="vector-effect:non-scaling-stroke;stroke-width:0.264583;stroke-dasharray:none;-inkscape-stroke:hairline" />
    <path
       d="M 857.96226,120.53026 V 136.21974 L 844.48647,144 H 844.26307 L 830.78727,136.21974 V 120.53026 L 844.37477,112.68551 Z"
       id="path75"
       style="vector-effect:non-scaling-stroke;stroke-width:0.264583;stroke-dasharray:none;-inkscape-stroke:hairline" />
    <path
       d="M 861.26226,83.435512 874.84976,91.280256 V 106.96974 L 861.26226,114.81449 847.67477,106.96974 V 91.280256 Z"
       id="path76"
       style="vector-effect:non-scaling-stroke;stroke-width:0.264583;stroke-dasharray:none;-inkscape-stroke:hairline" />
    <path
       d="M 844.37477,54.185512 857.96226,62.030256 V 77.719744 L 844.37477,85.564488 830.78727,77.719744 V 62.030256 Z"
       id="path77"
       style="vector-effect:non-scaling-stroke;stroke-width:0.264583;stroke-dasharray:none;-inkscape-stroke:hairline" />
    <path
       d="M 861.26226,24.935512 874.84976,32.780256 V 48.469744 L 861.26226,56.314488 847.67477,48.469744 V 32.780256 Z"
       id="path78"
       style="vector-effect:non-scaling-stroke;stroke-width:0.264583;stroke-dasharray:none;-inkscape-stroke:hairline" />
    <path
       d="M 891.73725,120.53026 V 136.21974 L 878.26146,144 H 878.03806 L 864.56226,136.21974 V 120.53026 L 878.14976,112.68551 Z"
       id="path79"
       style="vector-effect:non-scaling-stroke;stroke-width:0.264583;stroke-dasharray:none;-inkscape-stroke:hairline" />
    <path
       d="M 895.03725,83.435512 908.62475,91.280256 V 106.96974 L 895.03725,114.81449 881.44976,106.96974 V 91.280256 Z"
       id="path80"
       style="vector-effect:non-scaling-stroke;stroke-width:0.264583;stroke-dasharray:none;-inkscape-stroke:hairline" />
    <path
       d="M 878.14976,54.185512 891.73725,62.030256 V 77.719744 L 878.14976,85.564488 864.56226,77.719744 V 62.030256 Z"
       id="path81"
       style="vector-effect:non-scaling-stroke;stroke-width:0.264583;stroke-dasharray:none;-inkscape-stroke:hairline" />
    <path
       d="M 895.03725,24.935512 908.62475,32.780256 V 48.469744 L 895.03725,56.314488 881.44976,48.469744 V 32.780256 Z"
       id="path82"
       style="vector-effect:non-scaling-stroke;stroke-width:0.264583;stroke-dasharray:none;-inkscape-stroke:hairline" />
    <path
       d="M 925.51225,120.53026 V 136.21974 L 912.03645,144 H 911.81305 L 898.33725,136.21974 V 120.53026 L 911.92475,112.68551 Z"
       id="path83"
       style="vector-effect:non-scaling-stroke;stroke-width:0.264583;stroke-dasharray:none;-inkscape-stroke:hairline" />
    <path
       d="M 928.81225,83.435512 942.39974,91.280256 V 106.96974 L 928.81225,114.81449 915.22475,106.96974 V 91.280256 Z"
       id="path84"
       style="vector-effect:non-scaling-stroke;stroke-width:0.264583;stroke-dasharray:none;-inkscape-stroke:hairline" />
    <path
       d="M 911.92475,54.185512 925.51225,62.030256 V 77.719744 L 911.92475,85.564488 898.33725,77.719744 V 62.030256 Z"
       id="path85"
       style="vector-effect:non-scaling-stroke;stroke-width:0.264583;stroke-dasharray:none;-inkscape-stroke:hairline" />
    <path
       d="M 928.81225,24.935512 942.39974,32.780256 V 48.469744 L 928.81225,56.314488 915.22475,48.469744 V 32.780256 Z"
       id="path86"
       style="vector-effect:non-scaling-stroke;stroke-width:0.264583;stroke-dasharray:none;-inkscape-stroke:hairline" />
    <path
       d="M 959.28724,120.53026 V 136.21974 L 945.81144,144 H 945.58804 L 932.11225,136.21974 V 120.53026 L 945.69974,112.68551 Z"
       id="path87"
       style="vector-effect:non-scaling-stroke;stroke-width:0.264583;stroke-dasharray:none;-inkscape-stroke:hairline" />
    <path
       d="M 962.58724,83.435512 976.17473,91.280256 V 106.96974 L 962.58724,114.81449 948.99974,106.96974 V 91.280256 Z"
       id="path88"
       style="vector-effect:non-scaling-stroke;stroke-width:0.264583;stroke-dasharray:none;-inkscape-stroke:hairline" />
    <path
       d="M 945.69974,54.185512 959.28724,62.030256 V 77.719744 L 945.69974,85.564488 932.11225,77.719744 V 62.030256 Z"
       id="path89"
       style="vector-effect:non-scaling-stroke;stroke-width:0.264583;stroke-dasharray:none;-inkscape-stroke:hairline" />
    <path
       d="M 962.58724,24.935512 976.17473,32.780256 V 48.469744 L 962.58724,56.314488 948.99974,48.469744 V 32.780256 Z"
       id="path90"
       style="vector-effect:non-scaling-stroke;stroke-width:0.264583;stroke-dasharray:none;-inkscape-stroke:hairline" />
    <path
       d="M 993.06223,120.53026 V 136.21974 L 979.58643,144 H 979.36303 L 965.88724,136.21974 V 120.53026 L 979.47473,112.68551 Z"
       id="path91"
       style="vector-effect:non-scaling-stroke;stroke-width:0.264583;stroke-dasharray:none;-inkscape-stroke:hairline" />
    <path
       d="M 996.36223,83.435512 1009.9497,91.280256 V 106.96974 L 996.36223,114.81449 982.77473,106.96974 V 91.280256 Z"
       id="path92"
       style="vector-effect:non-scaling-stroke;stroke-width:0.264583;stroke-dasharray:none;-inkscape-stroke:hairline" />
    <path
       d="M 979.47473,54.185512 993.06223,62.030256 V 77.719744 L 979.47473,85.564488 965.88724,77.719744 V 62.030256 Z"
       id="path93"
       style="vector-effect:non-scaling-stroke;stroke-width:0.264583;stroke-dasharray:none;-inkscape-stroke:hairline" />
    <path
       d="M 996.36223,24.935512 1009.9497,32.780256 V 48.469744 L 996.36223,56.314488 982.77473,48.469744 V 32.780256 Z"
       id="path94"
       style="vector-effect:non-scaling-stroke;stroke-width:0.264583;stroke-dasharray:none;-inkscape-stroke:hairline" />
    <path
       d="M 1026.8372,120.53026 V 136.21974 L 1013.3614,144 H 1013.138 L 999.66223,136.21974 V 120.53026 L 1013.2497,112.68551 Z"
       id="path95"
       style="vector-effect:non-scaling-stroke;stroke-width:0.264583;stroke-dasharray:none;-inkscape-stroke:hairline" />
    <path
       d="M 1030.1372,83.435512 1043.7247,91.280256 V 106.96974 L 1030.1372,114.81449 1016.5497,106.96974 V 91.280256 Z"
       id="path96"
       style="vector-effect:non-scaling-stroke;stroke-width:0.264583;stroke-dasharray:none;-inkscape-stroke:hairline" />
    <path
       d="M 1013.2497,54.185512 1026.8372,62.030256 V 77.719744 L 1013.2497,85.564488 999.66223,77.719744 V 62.030256 Z"
       id="path97"
       style="vector-effect:non-scaling-stroke;stroke-width:0.264583;stroke-dasharray:none;-inkscape-stroke:hairline" />
    <path
       d="M 1030.1372,24.935512 1043.7247,32.780256 V 48.469744 L 1030.1372,56.314488 1016.5497,48.469744 V 32.780256 Z"
       id="path98"
       style="vector-effect:non-scaling-stroke;stroke-width:0.264583;stroke-dasharray:none;-inkscape-stroke:hairline" />
    <path
       d="M 1060.6122,120.53026 V 136.21974 L 1047.1364,144 H 1046.913 L 1033.4372,136.21974 V 120.53026 L 1047.0247,112.68551 Z"
       id="path99"
       style="vector-effect:non-scaling-stroke;stroke-width:0.264583;stroke-dasharray:none;-inkscape-stroke:hairline" />
    <path
       d="M 1063.9122,83.435512 1077.4997,91.280256 V 106.96974 L 1063.9122,114.81449 1050.3247,106.96974 V 91.280256 Z"
       id="path100"
       style="vector-effect:non-scaling-stroke;stroke-width:0.264583;stroke-dasharray:none;-inkscape-stroke:hairline" />
    <path
       d="M 1047.0247,54.185512 1060.6122,62.030256 V 77.719744 L 1047.0247,85.564488 1033.4372,77.719744 V 62.030256 Z"
       id="path101"
       style="vector-effect:non-scaling-stroke;stroke-width:0.264583;stroke-dasharray:none;-inkscape-stroke:hairline" />
    <path
       d="M 1063.9122,24.935512 1077.4997,32.780256 V 48.469744 L 1063.9122,56.314488 1050.3247,48.469744 V 32.780256 Z"
       id="path102"
       style="vector-effect:non-scaling-stroke;stroke-width:0.264583;stroke-dasharray:none;-inkscape-stroke:hairline" />
    <path
       d="M 1094.3872,120.53026 V 136.21974 L 1080.9114,144 H 1080.688 L 1067.2122,136.21974 V 120.53026 L 1080.7997,112.68551 Z"
       id="path103"
       style="vector-effect:non-scaling-stroke;stroke-width:0.264583;stroke-dasharray:none;-inkscape-stroke:hairline" />
    <path
       d="M 1109.0561,89.999331 V 108.25067 L 1097.6872,114.81449 1084.0997,106.96974 V 91.280256 L 1097.6872,83.435512 Z"
       id="path104"
       style="vector-effect:non-scaling-stroke;stroke-width:0.264583;stroke-dasharray:none;-inkscape-stroke:hairline" />
    <path
       d="M 1080.7997,54.185512 1094.3872,62.030256 V 77.719744 L 1080.7997,85.564488 1067.2122,77.719744 V 62.030256 Z"
       id="path105"
       style="vector-effect:non-scaling-stroke;stroke-width:0.264583;stroke-dasharray:none;-inkscape-stroke:hairline" />
    <path
       d="M 1109.0561,31.499331 V 49.750669 L 1097.6872,56.314488 1084.0997,48.469744 V 32.780256 L 1097.6872,24.935512 Z"
       id="path106"
       style="vector-effect:non-scaling-stroke;stroke-width:0.264583;stroke-dasharray:none;-inkscape-stroke:hairline" />
    <path
       d="M 1100.9872,136.21974 V 120.53026 L 1109.0561,115.87169 V 140.87831 Z"
       id="path107"
       style="vector-effect:non-scaling-stroke;stroke-width:0.264583;stroke-dasharray:none;-inkscape-stroke:hairline" />
    <path
       d="M 1100.9872,77.719744 V 62.030256 L 1109.0561,57.371693 V 82.378307 Z"
       id="path108"
       style="vector-effect:non-scaling-stroke;stroke-width:0.264583;stroke-dasharray:none;-inkscape-stroke:hairline" />
    <path
       d="M 213.05607,170 H 1121.0561 V 0 H 213.05607 Z"
       id="path109"
       style="vector-effect:non-scaling-stroke;stroke-width:0.264583;stroke-dasharray:none;-inkscape-stroke:hairline" />
  </g>
</svg>
