<?xml version="1.0" encoding="UTF-8" standalone="no"?>
<svg
   height="300mm"
   version="1.1"
   viewBox="0 0 1200 300"
   width="1200mm"
   id="svg202"
   sodipodi:docname="final_poly_combination.svg"
   inkscape:version="1.4.2 (1:1.4.2+202505120737+ebf0e940d0)"
   xmlns:inkscape="http://www.inkscape.org/namespaces/inkscape"
   xmlns:sodipodi="http://sodipodi.sourceforge.net/DTD/sodipodi-0.dtd"
   xmlns="http://www.w3.org/2000/svg"
   xmlns:svg="http://www.w3.org/2000/svg">
  <sodipodi:namedview
     id="namedview202"
     pagecolor="#ffffff"
     bordercolor="#666666"
     borderopacity="1.0"
     inkscape:showpageshadow="2"
     inkscape:pageopacity="0.0"
     inkscape:pagecheckerboard="0"
     inkscape:deskcolor="#d1d1d1"
     inkscape:document-units="mm"
     inkscape:zoom="0.26020916"
     inkscape:cx="2365.4048"
     inkscape:cy="1003.0393"
     inkscape:window-width="1920"
     inkscape:window-height="1011"
     inkscape:window-x="0"
     inkscape:window-y="0"
     inkscape:window-maximized="1"
     inkscape:current-layer="svg202" />
  <defs
     id="defs1" />
  <g
     fill="none"
     stroke="blue"
     stroke-width="0.5"
     transform="translate(147.5,65.0)"
     id="g202"
     style="vector-effect:non-scaling-stroke;-inkscape-stroke:hairline;stroke-width:0.26458333;stroke-dasharray:none">
    <path
       d="M 31.507041555161983,143.9905989232415 L 16.0,143.9905989232415 L 16.0,117.13161507461902 L 31.507041555161983,143.9905989232415 Z"
       id="path1"
       style="vector-effect:non-scaling-stroke;-inkscape-stroke:hairline;stroke-width:0.26458333;stroke-dasharray:none" />
    <path
       d="M 67.01408311032398,87.1094010767585 L 31.50704155516199,87.1094010767585 L 40.38380194395248,102.4844010767585 L 58.13732272153347,102.4844010767585 L 67.01408311032398,87.1094010767585 Z"
       id="path2"
       style="vector-effect:non-scaling-stroke;-inkscape-stroke:hairline;stroke-width:0.26458333;stroke-dasharray:none" />
    <path
       d="M 21.753520777581,87.1094010767585 L 30.630281166371486,102.4844010767585 L 21.75352077758098,117.8594010767585 L 16.0,107.89401076758503 L 16.0,87.1094010767585 L 21.753520777581,87.1094010767585 Z"
       id="path3"
       style="vector-effect:non-scaling-stroke;-inkscape-stroke:hairline;stroke-width:0.26458333;stroke-dasharray:none" />
    <path
       d="M 48.18812782486269,110.931197846483 L 53.260562332742964,110.931197846483 L 35.507041555161976,141.681197846483 L 32.97082430122184,137.28834070362586 L 48.18812782486269,110.931197846483 Z"
       id="path4"
       style="vector-effect:non-scaling-stroke;-inkscape-stroke:hairline;stroke-width:0.26458333;stroke-dasharray:none" />
    <path
       d="M 29.589201295968316,131.43119784648297 L 26.63028116637149,126.306197846483 L 35.50704155516198,110.931197846483 L 41.42488181435564,110.931197846483 L 29.589201295968316,131.43119784648297 Z"
       id="path5"
       style="vector-effect:non-scaling-stroke;-inkscape-stroke:hairline;stroke-width:0.26458333;stroke-dasharray:none" />
    <path
       d="M 35.507041555162004,27.91880215351702 L 17.753520777580995,58.66880215351701 L 35.50704155516199,58.66880215351702 L 44.38380194395249,43.29380215351702 L 35.507041555162004,27.91880215351702 Z"
       id="path6"
       style="vector-effect:non-scaling-stroke;-inkscape-stroke:hairline;stroke-width:0.26458333;stroke-dasharray:none" />
    <path
       d="M 30.630281166371493,67.1155989232415 L 39.507041555161976,82.49059892324152 L 16.0,82.4905989232415 L 16.0,67.11559892324149 L 30.630281166371493,67.1155989232415 Z"
       id="path7"
       style="vector-effect:non-scaling-stroke;-inkscape-stroke:hairline;stroke-width:0.26458333;stroke-dasharray:none" />
    <path
       d="M 46.72434507880284,56.13345606609866 L 49.26056233274298,51.74059892324152 L 67.01408311032397,82.4905989232415 L 61.94164860244368,82.4905989232415 L 46.72434507880284,56.13345606609866 Z"
       id="path8"
       style="vector-effect:non-scaling-stroke;-inkscape-stroke:hairline;stroke-width:0.26458333;stroke-dasharray:none" />
    <path
       d="M 55.17840259193664,82.4905989232415 L 49.26056233274298,82.4905989232415 L 40.38380194395249,67.1155989232415 L 43.34272207354932,61.99059892324152 L 55.17840259193664,82.4905989232415 Z"
       id="path9"
       style="vector-effect:non-scaling-stroke;-inkscape-stroke:hairline;stroke-width:0.26458333;stroke-dasharray:none" />
    <path
       d="M 31.50704155516198,25.609401076758502 L 28.970824301221835,30.00225821961564 L 16.0,30.00225821961564 L 16.0,25.609401076758502 L 31.50704155516198,25.609401076758502 Z"
       id="path10"
       style="vector-effect:non-scaling-stroke;-inkscape-stroke:hairline;stroke-width:0.26458333;stroke-dasharray:none" />
    <path
       d="M 22.63028116637149,40.9844010767585 L 16.0,40.9844010767585 L 16.0,35.8594010767585 L 25.589201295968316,35.8594010767585 L 22.63028116637149,40.9844010767585 Z"
       id="path11"
       style="vector-effect:non-scaling-stroke;-inkscape-stroke:hairline;stroke-width:0.26458333;stroke-dasharray:none" />
    <path
       d="M 138.02816622064793,82.49059892324149 L 120.27464544306696,51.74059892324149 L 111.39788505427646,67.11559892324149 L 120.27464544306694,82.49059892324149 L 138.02816622064793,82.49059892324149 Z"
       id="path12"
       style="vector-effect:non-scaling-stroke;-inkscape-stroke:hairline;stroke-width:0.26458333;stroke-dasharray:none" />
    <path
       d="M 106.52112466548597,27.918802153516992 L 88.76760388790495,58.66880215351699 L 106.52112466548596,58.66880215351701 L 115.39788505427646,43.29380215351701 L 106.52112466548597,27.918802153516992 Z"
       id="path13"
       style="vector-effect:non-scaling-stroke;-inkscape-stroke:hairline;stroke-width:0.26458333;stroke-dasharray:none" />
    <path
       d="M 107.98490741154582,78.09774178038435 L 110.52112466548596,82.49059892324149 L 75.01408311032398,82.49059892324149 L 77.55030036426412,78.09774178038435 L 107.98490741154582,78.09774178038435 Z"
       id="path14"
       style="vector-effect:non-scaling-stroke;-inkscape-stroke:hairline;stroke-width:0.26458333;stroke-dasharray:none" />
    <path
       d="M 80.93192336951765,72.24059892324149 L 83.89084349911447,67.11559892324149 L 101.64436427669546,67.11559892324149 L 104.60328440629229,72.24059892324149 L 80.93192336951765,72.24059892324149 Z"
       id="path15"
       style="vector-effect:non-scaling-stroke;-inkscape-stroke:hairline;stroke-width:0.26458333;stroke-dasharray:none" />
    <path
       d="M 173.53520777580994,25.609401076758502 L 138.02816622064796,25.609401076758502 L 146.90492660943843,40.9844010767585 L 164.65844738701944,40.9844010767585 L 173.53520777580994,25.609401076758502 Z"
       id="path16"
       style="vector-effect:non-scaling-stroke;-inkscape-stroke:hairline;stroke-width:0.26458333;stroke-dasharray:none" />
    <path
       d="M 110.52112466548597,25.609401076758502 L 128.27464544306693,56.3594010767585 L 137.15140583185743,40.9844010767585 L 128.27464544306696,25.609401076758502 L 110.52112466548597,25.609401076758502 Z"
       id="path17"
       style="vector-effect:non-scaling-stroke;-inkscape-stroke:hairline;stroke-width:0.26458333;stroke-dasharray:none" />
    <path
       d="M 154.70925249034866,49.431197846483 L 159.7816869982289,49.431197846483 L 142.02816622064793,80.18119784648299 L 139.4919489667078,75.78834070362585 L 154.70925249034866,49.431197846483 Z"
       id="path18"
       style="vector-effect:non-scaling-stroke;-inkscape-stroke:hairline;stroke-width:0.26458333;stroke-dasharray:none" />
    <path
       d="M 136.11032596145427,69.93119784648299 L 133.15140583185746,64.806197846483 L 142.02816622064793,49.43119784648299 L 147.9460064798416,49.431197846483 L 136.11032596145427,69.93119784648299 Z"
       id="path19"
       style="vector-effect:non-scaling-stroke;-inkscape-stroke:hairline;stroke-width:0.26458333;stroke-dasharray:none" />
    <path
       d="M 71.01408311032398,80.18119784648299 L 88.76760388790497,49.431197846483 L 71.01408311032398,49.431197846483 L 62.13732272153348,64.806197846483 L 71.01408311032398,80.18119784648299 Z"
       id="path20"
       style="vector-effect:non-scaling-stroke;-inkscape-stroke:hairline;stroke-width:0.26458333;stroke-dasharray:none" />
    <path
       d="M 102.52112466548596,25.609401076758502 L 67.01408311032398,25.609401076758502 L 75.89084349911447,40.9844010767585 L 93.64436427669546,40.9844010767585 L 102.52112466548596,25.609401076758502 Z"
       id="path21"
       style="vector-effect:non-scaling-stroke;-inkscape-stroke:hairline;stroke-width:0.26458333;stroke-dasharray:none" />
    <path
       d="M 59.79677958668312,51.96654393390136 L 57.260562332742985,56.3594010767585 L 39.50704155516199,25.609401076758502 L 44.57947606304227,25.609401076758502 L 59.79677958668312,51.96654393390136 Z"
       id="path22"
       style="vector-effect:non-scaling-stroke;-inkscape-stroke:hairline;stroke-width:0.26458333;stroke-dasharray:none" />
    <path
       d="M 51.34272207354932,25.609401076758502 L 57.26056233274298,25.609401076758502 L 66.13732272153348,40.9844010767585 L 63.178402591936646,46.1094010767585 L 51.34272207354932,25.609401076758502 Z"
       id="path23"
       style="vector-effect:non-scaling-stroke;-inkscape-stroke:hairline;stroke-width:0.26458333;stroke-dasharray:none" />
    <path
       d="M 142.02816622064796,89.41880215351702 L 124.27464544306696,120.168802153517 L 142.02816622064796,120.16880215351702 L 150.90492660943846,104.79380215351702 L 142.02816622064796,89.41880215351702 Z"
       id="path24"
       style="vector-effect:non-scaling-stroke;-inkscape-stroke:hairline;stroke-width:0.26458333;stroke-dasharray:none" />
    <path
       d="M 110.52112466548596,143.9905989232415 L 146.02816622064793,143.99059892324152 L 137.15140583185746,128.61559892324152 L 119.39788505427646,128.6155989232415 L 110.52112466548596,143.9905989232415 Z"
       id="path25"
       style="vector-effect:non-scaling-stroke;-inkscape-stroke:hairline;stroke-width:0.26458333;stroke-dasharray:none" />
    <path
       d="M 153.2454697442888,117.63345606609866 L 155.78168699822893,113.24059892324152 L 173.5352077758099,143.99059892324152 L 168.46277326792963,143.99059892324152 L 153.2454697442888,117.63345606609866 Z"
       id="path26"
       style="vector-effect:non-scaling-stroke;-inkscape-stroke:hairline;stroke-width:0.26458333;stroke-dasharray:none" />
    <path
       d="M 161.6995272574226,143.99059892324152 L 155.78168699822893,143.99059892324152 L 146.90492660943846,128.61559892324152 L 149.86384673903527,123.49059892324152 L 161.6995272574226,143.99059892324152 Z"
       id="path27"
       style="vector-effect:non-scaling-stroke;-inkscape-stroke:hairline;stroke-width:0.26458333;stroke-dasharray:none" />
    <path
       d="M 39.50704155516199,143.99059892324152 L 75.01408311032397,143.99059892324152 L 66.13732272153348,128.61559892324152 L 48.38380194395248,128.61559892324152 L 39.50704155516199,143.99059892324152 Z"
       id="path28"
       style="vector-effect:non-scaling-stroke;-inkscape-stroke:hairline;stroke-width:0.26458333;stroke-dasharray:none" />
    <path
       d="M 102.52112466548594,143.99059892324152 L 84.76760388790497,113.2405989232415 L 75.89084349911447,128.61559892324152 L 84.76760388790495,143.99059892324152 L 102.52112466548594,143.99059892324152 Z"
       id="path29"
       style="vector-effect:non-scaling-stroke;-inkscape-stroke:hairline;stroke-width:0.26458333;stroke-dasharray:none" />
    <path
       d="M 58.33299684062326,120.16880215351702 L 53.26056233274298,120.16880215351702 L 71.01408311032395,89.41880215351702 L 73.5503003642641,93.81165929637417 L 58.33299684062326,120.16880215351702 Z"
       id="path30"
       style="vector-effect:non-scaling-stroke;-inkscape-stroke:hairline;stroke-width:0.26458333;stroke-dasharray:none" />
    <path
       d="M 76.93192336951762,99.66880215351702 L 79.89084349911445,104.793802153517 L 71.01408311032395,120.16880215351702 L 65.09624285113031,120.16880215351702 L 76.93192336951762,99.66880215351702 Z"
       id="path31"
       style="vector-effect:non-scaling-stroke;-inkscape-stroke:hairline;stroke-width:0.26458333;stroke-dasharray:none" />
    <path
       d="M 75.01408311032398,87.1094010767585 L 92.76760388790495,117.8594010767585 L 101.64436427669546,102.4844010767585 L 92.76760388790497,87.1094010767585 L 75.01408311032398,87.1094010767585 Z"
       id="path32"
       style="vector-effect:non-scaling-stroke;-inkscape-stroke:hairline;stroke-width:0.26458333;stroke-dasharray:none" />
    <path
       d="M 106.52112466548594,141.68119784648297 L 124.27464544306696,110.931197846483 L 106.52112466548596,110.93119784648299 L 97.64436427669546,126.30619784648299 L 106.52112466548594,141.68119784648297 Z"
       id="path33"
       style="vector-effect:non-scaling-stroke;-inkscape-stroke:hairline;stroke-width:0.26458333;stroke-dasharray:none" />
    <path
       d="M 105.0573419194261,91.50225821961564 L 102.52112466548596,87.1094010767585 L 138.02816622064793,87.1094010767585 L 135.49194896670778,91.50225821961564 L 105.0573419194261,91.50225821961564 Z"
       id="path34"
       style="vector-effect:non-scaling-stroke;-inkscape-stroke:hairline;stroke-width:0.26458333;stroke-dasharray:none" />
    <path
       d="M 132.11032596145427,97.3594010767585 L 129.15140583185746,102.4844010767585 L 111.39788505427646,102.4844010767585 L 108.43896492467962,97.3594010767585 L 132.11032596145427,97.3594010767585 Z"
       id="path35"
       style="vector-effect:non-scaling-stroke;-inkscape-stroke:hairline;stroke-width:0.26458333;stroke-dasharray:none" />
    <path
       d="M 244.5492908861339,143.9905989232415 L 226.79577010855292,113.24059892324149 L 217.9190097197624,128.6155989232415 L 226.79577010855292,143.9905989232415 L 244.5492908861339,143.9905989232415 Z"
       id="path36"
       style="vector-effect:non-scaling-stroke;-inkscape-stroke:hairline;stroke-width:0.26458333;stroke-dasharray:none" />
    <path
       d="M 213.0422493309719,89.418802153517 L 195.2887285533909,120.16880215351699 L 213.0422493309719,120.16880215351699 L 221.9190097197624,104.793802153517 L 213.0422493309719,89.418802153517 Z"
       id="path37"
       style="vector-effect:non-scaling-stroke;-inkscape-stroke:hairline;stroke-width:0.26458333;stroke-dasharray:none" />
    <path
       d="M 214.50603207703176,139.59774178038435 L 217.0422493309719,143.9905989232415 L 181.53520777580994,143.9905989232415 L 184.0714250297501,139.59774178038435 L 214.50603207703176,139.59774178038435 Z"
       id="path38"
       style="vector-effect:non-scaling-stroke;-inkscape-stroke:hairline;stroke-width:0.26458333;stroke-dasharray:none" />
    <path
       d="M 187.4530480350036,133.7405989232415 L 190.4119681646004,128.6155989232415 L 208.1654889421814,128.6155989232415 L 211.12440907177825,133.7405989232415 L 187.4530480350036,133.7405989232415 Z"
       id="path39"
       style="vector-effect:non-scaling-stroke;-inkscape-stroke:hairline;stroke-width:0.26458333;stroke-dasharray:none" />
    <path
       d="M 280.0563324412959,87.1094010767585 L 244.54929088613392,87.1094010767585 L 253.4260512749244,102.4844010767585 L 271.17957205250536,102.4844010767585 L 280.0563324412959,87.1094010767585 Z"
       id="path40"
       style="vector-effect:non-scaling-stroke;-inkscape-stroke:hairline;stroke-width:0.26458333;stroke-dasharray:none" />
    <path
       d="M 217.0422493309719,87.10940107675849 L 234.7957701085529,117.8594010767585 L 243.6725304973434,102.4844010767585 L 234.79577010855292,87.1094010767585 L 217.0422493309719,87.10940107675849 Z"
       id="path41"
       style="vector-effect:non-scaling-stroke;-inkscape-stroke:hairline;stroke-width:0.26458333;stroke-dasharray:none" />
    <path
       d="M 261.2303771558346,110.931197846483 L 266.30281166371486,110.931197846483 L 248.5492908861339,141.681197846483 L 246.01307363219377,137.28834070362586 L 261.2303771558346,110.931197846483 Z"
       id="path42"
       style="vector-effect:non-scaling-stroke;-inkscape-stroke:hairline;stroke-width:0.26458333;stroke-dasharray:none" />
    <path
       d="M 242.63145062694022,131.43119784648297 L 239.67253049734342,126.306197846483 L 248.5492908861339,110.931197846483 L 254.46713114532756,110.931197846483 L 242.63145062694022,131.43119784648297 Z"
       id="path43"
       style="vector-effect:non-scaling-stroke;-inkscape-stroke:hairline;stroke-width:0.26458333;stroke-dasharray:none" />
    <path
       d="M 177.53520777580994,141.681197846483 L 195.2887285533909,110.931197846483 L 177.53520777580994,110.931197846483 L 168.65844738701944,126.306197846483 L 177.53520777580994,141.681197846483 Z"
       id="path44"
       style="vector-effect:non-scaling-stroke;-inkscape-stroke:hairline;stroke-width:0.26458333;stroke-dasharray:none" />
    <path
       d="M 209.0422493309719,87.10940107675852 L 173.53520777580994,87.1094010767585 L 182.4119681646004,102.4844010767585 L 200.1654889421814,102.4844010767585 L 209.0422493309719,87.10940107675852 Z"
       id="path45"
       style="vector-effect:non-scaling-stroke;-inkscape-stroke:hairline;stroke-width:0.26458333;stroke-dasharray:none" />
    <path
       d="M 166.3179042521691,113.46654393390136 L 163.78168699822893,117.8594010767585 L 146.02816622064796,87.10940107675852 L 151.10060072852824,87.10940107675852 L 166.3179042521691,113.46654393390136 Z"
       id="path46"
       style="vector-effect:non-scaling-stroke;-inkscape-stroke:hairline;stroke-width:0.26458333;stroke-dasharray:none" />
    <path
       d="M 157.86384673903527,87.10940107675852 L 163.78168699822893,87.1094010767585 L 172.65844738701944,102.4844010767585 L 169.6995272574226,107.6094010767585 L 157.86384673903527,87.10940107675852 Z"
       id="path47"
       style="vector-effect:non-scaling-stroke;-inkscape-stroke:hairline;stroke-width:0.26458333;stroke-dasharray:none" />
    <path
       d="M 248.54929088613392,27.91880215351702 L 230.79577010855292,58.66880215351701 L 248.54929088613392,58.66880215351702 L 257.4260512749244,43.29380215351702 L 248.54929088613392,27.91880215351702 Z"
       id="path48"
       style="vector-effect:non-scaling-stroke;-inkscape-stroke:hairline;stroke-width:0.26458333;stroke-dasharray:none" />
    <path
       d="M 217.0422493309719,82.49059892324149 L 252.5492908861339,82.49059892324152 L 243.67253049734342,67.1155989232415 L 225.9190097197624,67.11559892324149 L 217.0422493309719,82.49059892324149 Z"
       id="path49"
       style="vector-effect:non-scaling-stroke;-inkscape-stroke:hairline;stroke-width:0.26458333;stroke-dasharray:none" />
    <path
       d="M 259.76659440977477,56.13345606609866 L 262.3028116637149,51.74059892324152 L 280.05633244129587,82.4905989232415 L 274.9838979334156,82.4905989232415 L 259.76659440977477,56.13345606609866 Z"
       id="path50"
       style="vector-effect:non-scaling-stroke;-inkscape-stroke:hairline;stroke-width:0.26458333;stroke-dasharray:none" />
    <path
       d="M 268.22065192290853,82.4905989232415 L 262.3028116637149,82.4905989232415 L 253.42605127492442,67.1155989232415 L 256.38497140452125,61.99059892324152 L 268.22065192290853,82.4905989232415 Z"
       id="path51"
       style="vector-effect:non-scaling-stroke;-inkscape-stroke:hairline;stroke-width:0.26458333;stroke-dasharray:none" />
    <path
       d="M 146.02816622064796,82.49059892324152 L 181.5352077758099,82.49059892324152 L 172.65844738701944,67.11559892324152 L 154.90492660943843,67.11559892324152 L 146.02816622064796,82.49059892324152 Z"
       id="path52"
       style="vector-effect:non-scaling-stroke;-inkscape-stroke:hairline;stroke-width:0.26458333;stroke-dasharray:none" />
    <path
       d="M 209.0422493309719,82.4905989232415 L 191.2887285533909,51.74059892324151 L 182.4119681646004,67.1155989232415 L 191.2887285533909,82.4905989232415 L 209.0422493309719,82.4905989232415 Z"
       id="path53"
       style="vector-effect:non-scaling-stroke;-inkscape-stroke:hairline;stroke-width:0.26458333;stroke-dasharray:none" />
    <path
       d="M 164.8541215061092,58.66880215351702 L 159.78168699822893,58.66880215351702 L 177.5352077758099,27.91880215351702 L 180.07142502975006,32.31165929637416 L 164.8541215061092,58.66880215351702 Z"
       id="path54"
       style="vector-effect:non-scaling-stroke;-inkscape-stroke:hairline;stroke-width:0.26458333;stroke-dasharray:none" />
    <path
       d="M 183.45304803500358,38.16880215351702 L 186.4119681646004,43.29380215351701 L 177.5352077758099,58.66880215351702 L 171.61736751661627,58.66880215351702 L 183.45304803500358,38.16880215351702 Z"
       id="path55"
       style="vector-effect:non-scaling-stroke;-inkscape-stroke:hairline;stroke-width:0.26458333;stroke-dasharray:none" />
    <path
       d="M 181.53520777580994,25.609401076758502 L 199.2887285533909,56.3594010767585 L 208.1654889421814,40.9844010767585 L 199.2887285533909,25.609401076758502 L 181.53520777580994,25.609401076758502 Z"
       id="path56"
       style="vector-effect:non-scaling-stroke;-inkscape-stroke:hairline;stroke-width:0.26458333;stroke-dasharray:none" />
    <path
       d="M 213.0422493309719,80.18119784648299 L 230.79577010855292,49.431197846483 L 213.0422493309719,49.43119784648299 L 204.1654889421814,64.80619784648299 L 213.0422493309719,80.18119784648299 Z"
       id="path57"
       style="vector-effect:non-scaling-stroke;-inkscape-stroke:hairline;stroke-width:0.26458333;stroke-dasharray:none" />
    <path
       d="M 211.57846658491206,30.00225821961564 L 209.0422493309719,25.609401076758502 L 244.5492908861339,25.609401076758502 L 242.01307363219374,30.00225821961564 L 211.57846658491206,30.00225821961564 Z"
       id="path58"
       style="vector-effect:non-scaling-stroke;-inkscape-stroke:hairline;stroke-width:0.26458333;stroke-dasharray:none" />
    <path
       d="M 238.63145062694022,35.8594010767585 L 235.67253049734342,40.9844010767585 L 217.9190097197624,40.9844010767585 L 214.96008959016558,35.8594010767585 L 238.63145062694022,35.8594010767585 Z"
       id="path59"
       style="vector-effect:non-scaling-stroke;-inkscape-stroke:hairline;stroke-width:0.26458333;stroke-dasharray:none" />
    <path
       d="M 351.0704155516198,82.49059892324149 L 333.3168947740389,51.74059892324149 L 324.44013438524837,67.11559892324149 L 333.3168947740389,82.49059892324149 L 351.0704155516198,82.49059892324149 Z"
       id="path60"
       style="vector-effect:non-scaling-stroke;-inkscape-stroke:hairline;stroke-width:0.26458333;stroke-dasharray:none" />
    <path
       d="M 319.56337399645787,27.918802153516992 L 301.80985321887687,58.66880215351699 L 319.56337399645787,58.66880215351701 L 328.44013438524837,43.29380215351701 L 319.56337399645787,27.918802153516992 Z"
       id="path61"
       style="vector-effect:non-scaling-stroke;-inkscape-stroke:hairline;stroke-width:0.26458333;stroke-dasharray:none" />
    <path
       d="M 321.0271567425177,78.09774178038435 L 323.56337399645787,82.49059892324149 L 288.0563324412959,82.49059892324149 L 290.592549695236,78.09774178038435 L 321.0271567425177,78.09774178038435 Z"
       id="path62"
       style="vector-effect:non-scaling-stroke;-inkscape-stroke:hairline;stroke-width:0.26458333;stroke-dasharray:none" />
    <path
       d="M 293.9741727004896,72.24059892324149 L 296.93309283008637,67.11559892324149 L 314.68661360766737,67.11559892324149 L 317.6455337372642,72.24059892324149 L 293.9741727004896,72.24059892324149 Z"
       id="path63"
       style="vector-effect:non-scaling-stroke;-inkscape-stroke:hairline;stroke-width:0.26458333;stroke-dasharray:none" />
    <path
       d="M 386.5774571067818,25.609401076758502 L 351.0704155516199,25.609401076758502 L 359.9471759404104,40.9844010767585 L 377.7006967179914,40.9844010767585 L 386.5774571067818,25.609401076758502 Z"
       id="path64"
       style="vector-effect:non-scaling-stroke;-inkscape-stroke:hairline;stroke-width:0.26458333;stroke-dasharray:none" />
    <path
       d="M 323.56337399645787,25.609401076758502 L 341.3168947740388,56.3594010767585 L 350.1936551628294,40.9844010767585 L 341.3168947740389,25.609401076758502 L 323.56337399645787,25.609401076758502 Z"
       id="path65"
       style="vector-effect:non-scaling-stroke;-inkscape-stroke:hairline;stroke-width:0.26458333;stroke-dasharray:none" />
    <path
       d="M 367.7515018213206,49.431197846483 L 372.8239363292008,49.431197846483 L 355.0704155516198,80.18119784648299 L 352.5341982976797,75.78834070362585 L 367.7515018213206,49.431197846483 Z"
       id="path66"
       style="vector-effect:non-scaling-stroke;-inkscape-stroke:hairline;stroke-width:0.26458333;stroke-dasharray:none" />
    <path
       d="M 349.15257529242615,69.93119784648299 L 346.1936551628294,64.806197846483 L 355.0704155516198,49.43119784648299 L 360.9882558108135,49.431197846483 L 349.15257529242615,69.93119784648299 Z"
       id="path67"
       style="vector-effect:non-scaling-stroke;-inkscape-stroke:hairline;stroke-width:0.26458333;stroke-dasharray:none" />
    <path
       d="M 284.0563324412959,80.18119784648299 L 301.80985321887687,49.431197846483 L 284.0563324412959,49.431197846483 L 275.17957205250536,64.806197846483 L 284.0563324412959,80.18119784648299 Z"
       id="path68"
       style="vector-effect:non-scaling-stroke;-inkscape-stroke:hairline;stroke-width:0.26458333;stroke-dasharray:none" />
    <path
       d="M 315.56337399645787,25.609401076758502 L 280.0563324412959,25.609401076758502 L 288.93309283008637,40.9844010767585 L 306.68661360766737,40.9844010767585 L 315.56337399645787,25.609401076758502 Z"
       id="path69"
       style="vector-effect:non-scaling-stroke;-inkscape-stroke:hairline;stroke-width:0.26458333;stroke-dasharray:none" />
    <path
       d="M 272.839028917655,51.96654393390136 L 270.3028116637149,56.3594010767585 L 252.54929088613392,25.609401076758502 L 257.62172539401416,25.609401076758502 L 272.839028917655,51.96654393390136 Z"
       id="path70"
       style="vector-effect:non-scaling-stroke;-inkscape-stroke:hairline;stroke-width:0.26458333;stroke-dasharray:none" />
    <path
       d="M 264.38497140452125,25.609401076758502 L 270.3028116637149,25.609401076758502 L 279.17957205250536,40.9844010767585 L 276.2206519229086,46.1094010767585 L 264.38497140452125,25.609401076758502 Z"
       id="path71"
       style="vector-effect:non-scaling-stroke;-inkscape-stroke:hairline;stroke-width:0.26458333;stroke-dasharray:none" />
    <path
       d="M 355.0704155516199,89.41880215351702 L 337.3168947740389,120.168802153517 L 355.0704155516199,120.16880215351702 L 363.9471759404104,104.79380215351702 L 355.0704155516199,89.41880215351702 Z"
       id="path72"
       style="vector-effect:non-scaling-stroke;-inkscape-stroke:hairline;stroke-width:0.26458333;stroke-dasharray:none" />
    <path
       d="M 323.56337399645787,143.9905989232415 L 359.0704155516198,143.99059892324152 L 350.1936551628294,128.61559892324152 L 332.44013438524837,128.6155989232415 L 323.56337399645787,143.9905989232415 Z"
       id="path73"
       style="vector-effect:non-scaling-stroke;-inkscape-stroke:hairline;stroke-width:0.26458333;stroke-dasharray:none" />
    <path
       d="M 366.2877190752607,117.63345606609866 L 368.8239363292008,113.24059892324152 L 386.5774571067818,143.99059892324152 L 381.5050225989015,143.99059892324152 L 366.2877190752607,117.63345606609866 Z"
       id="path74"
       style="vector-effect:non-scaling-stroke;-inkscape-stroke:hairline;stroke-width:0.26458333;stroke-dasharray:none" />
    <path
       d="M 374.7417765883945,143.99059892324152 L 368.8239363292008,143.99059892324152 L 359.9471759404104,128.61559892324152 L 362.90609607000715,123.49059892324152 L 374.7417765883945,143.99059892324152 Z"
       id="path75"
       style="vector-effect:non-scaling-stroke;-inkscape-stroke:hairline;stroke-width:0.26458333;stroke-dasharray:none" />
    <path
       d="M 252.54929088613392,143.99059892324152 L 288.05633244129587,143.99059892324152 L 279.17957205250536,128.61559892324152 L 261.42605127492436,128.61559892324152 L 252.54929088613392,143.99059892324152 Z"
       id="path76"
       style="vector-effect:non-scaling-stroke;-inkscape-stroke:hairline;stroke-width:0.26458333;stroke-dasharray:none" />
    <path
       d="M 315.56337399645787,143.99059892324152 L 297.80985321887687,113.2405989232415 L 288.93309283008637,128.61559892324152 L 297.80985321887687,143.99059892324152 L 315.56337399645787,143.99059892324152 Z"
       id="path77"
       style="vector-effect:non-scaling-stroke;-inkscape-stroke:hairline;stroke-width:0.26458333;stroke-dasharray:none" />
    <path
       d="M 271.37524617159517,120.16880215351702 L 266.3028116637149,120.16880215351702 L 284.05633244129587,89.41880215351702 L 286.592549695236,93.81165929637417 L 271.37524617159517,120.16880215351702 Z"
       id="path78"
       style="vector-effect:non-scaling-stroke;-inkscape-stroke:hairline;stroke-width:0.26458333;stroke-dasharray:none" />
    <path
       d="M 289.97417270048953,99.66880215351702 L 292.93309283008637,104.793802153517 L 284.05633244129587,120.16880215351702 L 278.13849218210225,120.16880215351702 L 289.97417270048953,99.66880215351702 Z"
       id="path79"
       style="vector-effect:non-scaling-stroke;-inkscape-stroke:hairline;stroke-width:0.26458333;stroke-dasharray:none" />
    <path
       d="M 288.0563324412959,87.1094010767585 L 305.80985321887687,117.8594010767585 L 314.68661360766737,102.4844010767585 L 305.80985321887687,87.1094010767585 L 288.0563324412959,87.1094010767585 Z"
       id="path80"
       style="vector-effect:non-scaling-stroke;-inkscape-stroke:hairline;stroke-width:0.26458333;stroke-dasharray:none" />
    <path
       d="M 319.56337399645787,141.68119784648297 L 337.3168947740389,110.931197846483 L 319.56337399645787,110.93119784648299 L 310.68661360766737,126.30619784648299 L 319.56337399645787,141.68119784648297 Z"
       id="path81"
       style="vector-effect:non-scaling-stroke;-inkscape-stroke:hairline;stroke-width:0.26458333;stroke-dasharray:none" />
    <path
       d="M 318.099591250398,91.50225821961564 L 315.56337399645787,87.1094010767585 L 351.0704155516198,87.1094010767585 L 348.5341982976797,91.50225821961564 L 318.099591250398,91.50225821961564 Z"
       id="path82"
       style="vector-effect:non-scaling-stroke;-inkscape-stroke:hairline;stroke-width:0.26458333;stroke-dasharray:none" />
    <path
       d="M 345.15257529242615,97.3594010767585 L 342.1936551628294,102.4844010767585 L 324.44013438524837,102.4844010767585 L 321.48121425565154,97.3594010767585 L 345.15257529242615,97.3594010767585 Z"
       id="path83"
       style="vector-effect:non-scaling-stroke;-inkscape-stroke:hairline;stroke-width:0.26458333;stroke-dasharray:none" />
    <path
       d="M 457.59154021710583,143.9905989232415 L 439.8380194395248,113.24059892324149 L 430.9612590507343,128.6155989232415 L 439.8380194395248,143.9905989232415 L 457.59154021710583,143.9905989232415 Z"
       id="path84"
       style="vector-effect:non-scaling-stroke;-inkscape-stroke:hairline;stroke-width:0.26458333;stroke-dasharray:none" />
    <path
       d="M 426.0844986619438,89.418802153517 L 408.3309778843628,120.16880215351699 L 426.0844986619438,120.16880215351699 L 434.9612590507343,104.793802153517 L 426.0844986619438,89.418802153517 Z"
       id="path85"
       style="vector-effect:non-scaling-stroke;-inkscape-stroke:hairline;stroke-width:0.26458333;stroke-dasharray:none" />
    <path
       d="M 427.5482814080037,139.59774178038435 L 430.0844986619438,143.9905989232415 L 394.5774571067818,143.9905989232415 L 397.113674360722,139.59774178038435 L 427.5482814080037,139.59774178038435 Z"
       id="path86"
       style="vector-effect:non-scaling-stroke;-inkscape-stroke:hairline;stroke-width:0.26458333;stroke-dasharray:none" />
    <path
       d="M 400.4952973659755,133.7405989232415 L 403.4542174955723,128.6155989232415 L 421.2077382731533,128.6155989232415 L 424.16665840275016,133.7405989232415 L 400.4952973659755,133.7405989232415 Z"
       id="path87"
       style="vector-effect:non-scaling-stroke;-inkscape-stroke:hairline;stroke-width:0.26458333;stroke-dasharray:none" />
    <path
       d="M 493.09858177226783,87.1094010767585 L 457.59154021710583,87.1094010767585 L 466.4683006058963,102.4844010767585 L 484.2218213834773,102.4844010767585 L 493.09858177226783,87.1094010767585 Z"
       id="path88"
       style="vector-effect:non-scaling-stroke;-inkscape-stroke:hairline;stroke-width:0.26458333;stroke-dasharray:none" />
    <path
       d="M 430.0844986619438,87.10940107675849 L 447.8380194395248,117.8594010767585 L 456.71477982831533,102.4844010767585 L 447.8380194395248,87.1094010767585 L 430.0844986619438,87.10940107675849 Z"
       id="path89"
       style="vector-effect:non-scaling-stroke;-inkscape-stroke:hairline;stroke-width:0.26458333;stroke-dasharray:none" />
    <path
       d="M 474.27262648680653,110.931197846483 L 479.3450609946868,110.931197846483 L 461.59154021710583,141.681197846483 L 459.0553229631657,137.28834070362586 L 474.27262648680653,110.931197846483 Z"
       id="path90"
       style="vector-effect:non-scaling-stroke;-inkscape-stroke:hairline;stroke-width:0.26458333;stroke-dasharray:none" />
    <path
       d="M 455.67369995791216,131.43119784648297 L 452.71477982831533,126.306197846483 L 461.59154021710583,110.931197846483 L 467.5093804762995,110.931197846483 L 455.67369995791216,131.43119784648297 Z"
       id="path91"
       style="vector-effect:non-scaling-stroke;-inkscape-stroke:hairline;stroke-width:0.26458333;stroke-dasharray:none" />
    <path
       d="M 390.5774571067818,141.681197846483 L 408.3309778843628,110.931197846483 L 390.5774571067818,110.931197846483 L 381.7006967179914,126.306197846483 L 390.5774571067818,141.681197846483 Z"
       id="path92"
       style="vector-effect:non-scaling-stroke;-inkscape-stroke:hairline;stroke-width:0.26458333;stroke-dasharray:none" />
    <path
       d="M 422.0844986619438,87.10940107675852 L 386.5774571067818,87.1094010767585 L 395.4542174955723,102.4844010767585 L 413.2077382731533,102.4844010767585 L 422.0844986619438,87.10940107675852 Z"
       id="path93"
       style="vector-effect:non-scaling-stroke;-inkscape-stroke:hairline;stroke-width:0.26458333;stroke-dasharray:none" />
    <path
       d="M 379.36015358314097,113.46654393390136 L 376.8239363292009,117.8594010767585 L 359.0704155516199,87.10940107675852 L 364.1428500595001,87.10940107675852 L 379.36015358314097,113.46654393390136 Z"
       id="path94"
       style="vector-effect:non-scaling-stroke;-inkscape-stroke:hairline;stroke-width:0.26458333;stroke-dasharray:none" />
    <path
       d="M 370.9060960700072,87.10940107675852 L 376.8239363292008,87.1094010767585 L 385.7006967179913,102.4844010767585 L 382.7417765883945,107.6094010767585 L 370.9060960700072,87.10940107675852 Z"
       id="path95"
       style="vector-effect:non-scaling-stroke;-inkscape-stroke:hairline;stroke-width:0.26458333;stroke-dasharray:none" />
    <path
       d="M 461.59154021710583,27.91880215351702 L 443.8380194395248,58.66880215351701 L 461.59154021710583,58.66880215351702 L 470.46830060589633,43.29380215351702 L 461.59154021710583,27.91880215351702 Z"
       id="path96"
       style="vector-effect:non-scaling-stroke;-inkscape-stroke:hairline;stroke-width:0.26458333;stroke-dasharray:none" />
    <path
       d="M 430.0844986619438,82.49059892324149 L 465.59154021710583,82.49059892324152 L 456.71477982831533,67.1155989232415 L 438.9612590507343,67.11559892324149 L 430.0844986619438,82.49059892324149 Z"
       id="path97"
       style="vector-effect:non-scaling-stroke;-inkscape-stroke:hairline;stroke-width:0.26458333;stroke-dasharray:none" />
    <path
       d="M 472.8088437407467,56.13345606609866 L 475.34506099468683,51.74059892324152 L 493.0985817722678,82.4905989232415 L 488.02614726438753,82.4905989232415 L 472.8088437407467,56.13345606609866 Z"
       id="path98"
       style="vector-effect:non-scaling-stroke;-inkscape-stroke:hairline;stroke-width:0.26458333;stroke-dasharray:none" />
    <path
       d="M 481.26290125388044,82.4905989232415 L 475.34506099468683,82.4905989232415 L 466.46830060589633,67.1155989232415 L 469.42722073549317,61.99059892324152 L 481.26290125388044,82.4905989232415 Z"
       id="path99"
       style="vector-effect:non-scaling-stroke;-inkscape-stroke:hairline;stroke-width:0.26458333;stroke-dasharray:none" />
    <path
       d="M 359.0704155516199,82.49059892324152 L 394.5774571067818,82.49059892324152 L 385.7006967179913,67.11559892324152 L 367.9471759404104,67.11559892324152 L 359.0704155516199,82.49059892324152 Z"
       id="path100"
       style="vector-effect:non-scaling-stroke;-inkscape-stroke:hairline;stroke-width:0.26458333;stroke-dasharray:none" />
    <path
       d="M 422.0844986619438,82.4905989232415 L 404.3309778843628,51.74059892324151 L 395.4542174955723,67.1155989232415 L 404.3309778843628,82.4905989232415 L 422.0844986619438,82.4905989232415 Z"
       id="path101"
       style="vector-effect:non-scaling-stroke;-inkscape-stroke:hairline;stroke-width:0.26458333;stroke-dasharray:none" />
    <path
       d="M 377.8963708370811,58.66880215351702 L 372.8239363292008,58.66880215351702 L 390.5774571067818,27.91880215351702 L 393.113674360722,32.31165929637416 L 377.8963708370811,58.66880215351702 Z"
       id="path102"
       style="vector-effect:non-scaling-stroke;-inkscape-stroke:hairline;stroke-width:0.26458333;stroke-dasharray:none" />
    <path
       d="M 396.4952973659755,38.16880215351702 L 399.4542174955723,43.29380215351701 L 390.5774571067818,58.66880215351702 L 384.65961684758815,58.66880215351702 L 396.4952973659755,38.16880215351702 Z"
       id="path103"
       style="vector-effect:non-scaling-stroke;-inkscape-stroke:hairline;stroke-width:0.26458333;stroke-dasharray:none" />
    <path
       d="M 394.5774571067818,25.609401076758502 L 412.3309778843628,56.3594010767585 L 421.2077382731533,40.9844010767585 L 412.3309778843628,25.609401076758502 L 394.5774571067818,25.609401076758502 Z"
       id="path104"
       style="vector-effect:non-scaling-stroke;-inkscape-stroke:hairline;stroke-width:0.26458333;stroke-dasharray:none" />
    <path
       d="M 426.0844986619438,80.18119784648299 L 443.8380194395248,49.431197846483 L 426.0844986619438,49.43119784648299 L 417.2077382731533,64.80619784648299 L 426.0844986619438,80.18119784648299 Z"
       id="path105"
       style="vector-effect:non-scaling-stroke;-inkscape-stroke:hairline;stroke-width:0.26458333;stroke-dasharray:none" />
    <path
       d="M 424.620715915884,30.00225821961564 L 422.0844986619438,25.609401076758502 L 457.59154021710583,25.609401076758502 L 455.0553229631657,30.00225821961564 L 424.620715915884,30.00225821961564 Z"
       id="path106"
       style="vector-effect:non-scaling-stroke;-inkscape-stroke:hairline;stroke-width:0.26458333;stroke-dasharray:none" />
    <path
       d="M 451.67369995791216,35.8594010767585 L 448.71477982831533,40.9844010767585 L 430.9612590507343,40.9844010767585 L 428.0023389211375,35.8594010767585 L 451.67369995791216,35.8594010767585 Z"
       id="path107"
       style="vector-effect:non-scaling-stroke;-inkscape-stroke:hairline;stroke-width:0.26458333;stroke-dasharray:none" />
    <path
       d="M 564.1126648825917,82.49059892324149 L 546.3591441050107,51.74059892324149 L 537.4823837162203,67.11559892324149 L 546.3591441050107,82.49059892324149 L 564.1126648825917,82.49059892324149 Z"
       id="path108"
       style="vector-effect:non-scaling-stroke;-inkscape-stroke:hairline;stroke-width:0.26458333;stroke-dasharray:none" />
    <path
       d="M 532.6056233274298,27.918802153516992 L 514.8521025498487,58.66880215351699 L 532.6056233274298,58.66880215351701 L 541.4823837162203,43.29380215351701 L 532.6056233274298,27.918802153516992 Z"
       id="path109"
       style="vector-effect:non-scaling-stroke;-inkscape-stroke:hairline;stroke-width:0.26458333;stroke-dasharray:none" />
    <path
       d="M 534.0694060734896,78.09774178038435 L 536.6056233274298,82.49059892324149 L 501.09858177226783,82.49059892324149 L 503.63479902620793,78.09774178038435 L 534.0694060734896,78.09774178038435 Z"
       id="path110"
       style="vector-effect:non-scaling-stroke;-inkscape-stroke:hairline;stroke-width:0.26458333;stroke-dasharray:none" />
    <path
       d="M 507.0164220314615,72.24059892324149 L 509.9753421610583,67.11559892324149 L 527.7288629386393,67.11559892324149 L 530.6877830682361,72.24059892324149 L 507.0164220314615,72.24059892324149 Z"
       id="path111"
       style="vector-effect:non-scaling-stroke;-inkscape-stroke:hairline;stroke-width:0.26458333;stroke-dasharray:none" />
    <path
       d="M 599.6197064377537,25.609401076758502 L 564.1126648825918,25.609401076758502 L 572.9894252713823,40.9844010767585 L 590.7429460489633,40.9844010767585 L 599.6197064377537,25.609401076758502 Z"
       id="path112"
       style="vector-effect:non-scaling-stroke;-inkscape-stroke:hairline;stroke-width:0.26458333;stroke-dasharray:none" />
    <path
       d="M 536.6056233274298,25.609401076758502 L 554.3591441050107,56.3594010767585 L 563.2359044938013,40.9844010767585 L 554.3591441050107,25.609401076758502 L 536.6056233274298,25.609401076758502 Z"
       id="path113"
       style="vector-effect:non-scaling-stroke;-inkscape-stroke:hairline;stroke-width:0.26458333;stroke-dasharray:none" />
    <path
       d="M 580.7937511522925,49.431197846483 L 585.8661856601727,49.431197846483 L 568.1126648825917,80.18119784648299 L 565.5764476286516,75.78834070362585 L 580.7937511522925,49.431197846483 Z"
       id="path114"
       style="vector-effect:non-scaling-stroke;-inkscape-stroke:hairline;stroke-width:0.26458333;stroke-dasharray:none" />
    <path
       d="M 562.1948246233981,69.93119784648299 L 559.2359044938013,64.806197846483 L 568.1126648825917,49.43119784648299 L 574.0305051417854,49.431197846483 L 562.1948246233981,69.93119784648299 Z"
       id="path115"
       style="vector-effect:non-scaling-stroke;-inkscape-stroke:hairline;stroke-width:0.26458333;stroke-dasharray:none" />
    <path
       d="M 497.09858177226783,80.18119784648299 L 514.8521025498488,49.431197846483 L 497.09858177226783,49.431197846483 L 488.2218213834773,64.806197846483 L 497.09858177226783,80.18119784648299 Z"
       id="path116"
       style="vector-effect:non-scaling-stroke;-inkscape-stroke:hairline;stroke-width:0.26458333;stroke-dasharray:none" />
    <path
       d="M 528.6056233274298,25.609401076758502 L 493.09858177226783,25.609401076758502 L 501.9753421610583,40.9844010767585 L 519.7288629386393,40.9844010767585 L 528.6056233274298,25.609401076758502 Z"
       id="path117"
       style="vector-effect:non-scaling-stroke;-inkscape-stroke:hairline;stroke-width:0.26458333;stroke-dasharray:none" />
    <path
       d="M 485.8812782486269,51.96654393390136 L 483.34506099468683,56.3594010767585 L 465.59154021710583,25.609401076758502 L 470.6639747249861,25.609401076758502 L 485.8812782486269,51.96654393390136 Z"
       id="path118"
       style="vector-effect:non-scaling-stroke;-inkscape-stroke:hairline;stroke-width:0.26458333;stroke-dasharray:none" />
    <path
       d="M 477.42722073549317,25.609401076758502 L 483.34506099468683,25.609401076758502 L 492.2218213834773,40.9844010767585 L 489.2629012538805,46.1094010767585 L 477.42722073549317,25.609401076758502 Z"
       id="path119"
       style="vector-effect:non-scaling-stroke;-inkscape-stroke:hairline;stroke-width:0.26458333;stroke-dasharray:none" />
    <path
       d="M 568.1126648825918,89.41880215351702 L 550.3591441050107,120.168802153517 L 568.1126648825918,120.16880215351702 L 576.9894252713823,104.79380215351702 L 568.1126648825918,89.41880215351702 Z"
       id="path120"
       style="vector-effect:non-scaling-stroke;-inkscape-stroke:hairline;stroke-width:0.26458333;stroke-dasharray:none" />
    <path
       d="M 536.6056233274298,143.9905989232415 L 572.1126648825917,143.99059892324152 L 563.2359044938013,128.61559892324152 L 545.4823837162203,128.6155989232415 L 536.6056233274298,143.9905989232415 Z"
       id="path121"
       style="vector-effect:non-scaling-stroke;-inkscape-stroke:hairline;stroke-width:0.26458333;stroke-dasharray:none" />
    <path
       d="M 579.3299684062326,117.63345606609866 L 581.8661856601727,113.24059892324152 L 599.6197064377537,143.99059892324152 L 594.5472719298734,143.99059892324152 L 579.3299684062326,117.63345606609866 Z"
       id="path122"
       style="vector-effect:non-scaling-stroke;-inkscape-stroke:hairline;stroke-width:0.26458333;stroke-dasharray:none" />
    <path
       d="M 587.7840259193664,143.99059892324152 L 581.8661856601727,143.99059892324152 L 572.9894252713823,128.61559892324152 L 575.9483454009791,123.49059892324152 L 587.7840259193664,143.99059892324152 Z"
       id="path123"
       style="vector-effect:non-scaling-stroke;-inkscape-stroke:hairline;stroke-width:0.26458333;stroke-dasharray:none" />
    <path
       d="M 465.59154021710583,143.99059892324152 L 501.0985817722678,143.99059892324152 L 492.2218213834773,128.61559892324152 L 474.4683006058963,128.61559892324152 L 465.59154021710583,143.99059892324152 Z"
       id="path124"
       style="vector-effect:non-scaling-stroke;-inkscape-stroke:hairline;stroke-width:0.26458333;stroke-dasharray:none" />
    <path
       d="M 528.6056233274297,143.99059892324152 L 510.8521025498488,113.2405989232415 L 501.9753421610583,128.61559892324152 L 510.8521025498488,143.99059892324152 L 528.6056233274297,143.99059892324152 Z"
       id="path125"
       style="vector-effect:non-scaling-stroke;-inkscape-stroke:hairline;stroke-width:0.26458333;stroke-dasharray:none" />
    <path
       d="M 484.4174955025671,120.16880215351702 L 479.34506099468683,120.16880215351702 L 497.0985817722678,89.41880215351702 L 499.63479902620793,93.81165929637417 L 484.4174955025671,120.16880215351702 Z"
       id="path126"
       style="vector-effect:non-scaling-stroke;-inkscape-stroke:hairline;stroke-width:0.26458333;stroke-dasharray:none" />
    <path
       d="M 503.01642203146145,99.66880215351702 L 505.9753421610583,104.793802153517 L 497.0985817722678,120.16880215351702 L 491.18074151307417,120.16880215351702 L 503.01642203146145,99.66880215351702 Z"
       id="path127"
       style="vector-effect:non-scaling-stroke;-inkscape-stroke:hairline;stroke-width:0.26458333;stroke-dasharray:none" />
    <path
       d="M 501.09858177226783,87.1094010767585 L 518.8521025498487,117.8594010767585 L 527.7288629386393,102.4844010767585 L 518.8521025498488,87.1094010767585 L 501.09858177226783,87.1094010767585 Z"
       id="path128"
       style="vector-effect:non-scaling-stroke;-inkscape-stroke:hairline;stroke-width:0.26458333;stroke-dasharray:none" />
    <path
       d="M 532.6056233274297,141.68119784648297 L 550.3591441050107,110.931197846483 L 532.6056233274298,110.93119784648299 L 523.7288629386393,126.30619784648299 L 532.6056233274297,141.68119784648297 Z"
       id="path129"
       style="vector-effect:non-scaling-stroke;-inkscape-stroke:hairline;stroke-width:0.26458333;stroke-dasharray:none" />
    <path
       d="M 531.1418405813699,91.50225821961564 L 528.6056233274298,87.1094010767585 L 564.1126648825917,87.1094010767585 L 561.5764476286516,91.50225821961564 L 531.1418405813699,91.50225821961564 Z"
       id="path130"
       style="vector-effect:non-scaling-stroke;-inkscape-stroke:hairline;stroke-width:0.26458333;stroke-dasharray:none" />
    <path
       d="M 558.1948246233981,97.3594010767585 L 555.2359044938013,102.4844010767585 L 537.4823837162203,102.4844010767585 L 534.5234635866234,97.3594010767585 L 558.1948246233981,97.3594010767585 Z"
       id="path131"
       style="vector-effect:non-scaling-stroke;-inkscape-stroke:hairline;stroke-width:0.26458333;stroke-dasharray:none" />
    <path
       d="M 670.6337895480777,143.9905989232415 L 652.8802687704967,113.24059892324149 L 644.0035083817062,128.6155989232415 L 652.8802687704967,143.9905989232415 L 670.6337895480777,143.9905989232415 Z"
       id="path132"
       style="vector-effect:non-scaling-stroke;-inkscape-stroke:hairline;stroke-width:0.26458333;stroke-dasharray:none" />
    <path
       d="M 639.1267479929157,89.418802153517 L 621.3732272153347,120.16880215351699 L 639.1267479929157,120.16880215351699 L 648.0035083817062,104.793802153517 L 639.1267479929157,89.418802153517 Z"
       id="path133"
       style="vector-effect:non-scaling-stroke;-inkscape-stroke:hairline;stroke-width:0.26458333;stroke-dasharray:none" />
    <path
       d="M 640.5905307389756,139.59774178038435 L 643.1267479929157,143.9905989232415 L 607.6197064377537,143.9905989232415 L 610.1559236916939,139.59774178038435 L 640.5905307389756,139.59774178038435 Z"
       id="path134"
       style="vector-effect:non-scaling-stroke;-inkscape-stroke:hairline;stroke-width:0.26458333;stroke-dasharray:none" />
    <path
       d="M 613.5375466969474,133.7405989232415 L 616.4964668265443,128.6155989232415 L 634.2499876041253,128.6155989232415 L 637.2089077337221,133.7405989232415 L 613.5375466969474,133.7405989232415 Z"
       id="path135"
       style="vector-effect:non-scaling-stroke;-inkscape-stroke:hairline;stroke-width:0.26458333;stroke-dasharray:none" />
    <path
       d="M 706.1408311032397,87.1094010767585 L 670.6337895480777,87.1094010767585 L 679.5105499368682,102.4844010767585 L 697.2640707144492,102.4844010767585 L 706.1408311032397,87.1094010767585 Z"
       id="path136"
       style="vector-effect:non-scaling-stroke;-inkscape-stroke:hairline;stroke-width:0.26458333;stroke-dasharray:none" />
    <path
       d="M 643.1267479929157,87.10940107675849 L 660.8802687704967,117.8594010767585 L 669.7570291592872,102.4844010767585 L 660.8802687704967,87.1094010767585 L 643.1267479929157,87.10940107675849 Z"
       id="path137"
       style="vector-effect:non-scaling-stroke;-inkscape-stroke:hairline;stroke-width:0.26458333;stroke-dasharray:none" />
    <path
       d="M 687.3148758177784,110.931197846483 L 692.3873103256587,110.931197846483 L 674.6337895480777,141.681197846483 L 672.0975722941375,137.28834070362586 L 687.3148758177784,110.931197846483 Z"
       id="path138"
       style="vector-effect:non-scaling-stroke;-inkscape-stroke:hairline;stroke-width:0.26458333;stroke-dasharray:none" />
    <path
       d="M 668.7159492888841,131.43119784648297 L 665.7570291592872,126.306197846483 L 674.6337895480777,110.931197846483 L 680.5516298072714,110.931197846483 L 668.7159492888841,131.43119784648297 Z"
       id="path139"
       style="vector-effect:non-scaling-stroke;-inkscape-stroke:hairline;stroke-width:0.26458333;stroke-dasharray:none" />
    <path
       d="M 603.6197064377537,141.681197846483 L 621.3732272153347,110.931197846483 L 603.6197064377537,110.931197846483 L 594.7429460489633,126.306197846483 L 603.6197064377537,141.681197846483 Z"
       id="path140"
       style="vector-effect:non-scaling-stroke;-inkscape-stroke:hairline;stroke-width:0.26458333;stroke-dasharray:none" />
    <path
       d="M 635.1267479929157,87.10940107675852 L 599.6197064377537,87.1094010767585 L 608.4964668265443,102.4844010767585 L 626.2499876041253,102.4844010767585 L 635.1267479929157,87.10940107675852 Z"
       id="path141"
       style="vector-effect:non-scaling-stroke;-inkscape-stroke:hairline;stroke-width:0.26458333;stroke-dasharray:none" />
    <path
       d="M 592.4024029141129,113.46654393390136 L 589.8661856601727,117.8594010767585 L 572.1126648825917,87.10940107675852 L 577.185099390472,87.10940107675852 L 592.4024029141129,113.46654393390136 Z"
       id="path142"
       style="vector-effect:non-scaling-stroke;-inkscape-stroke:hairline;stroke-width:0.26458333;stroke-dasharray:none" />
    <path
       d="M 583.9483454009791,87.10940107675852 L 589.8661856601727,87.1094010767585 L 598.7429460489633,102.4844010767585 L 595.7840259193664,107.6094010767585 L 583.9483454009791,87.10940107675852 Z"
       id="path143"
       style="vector-effect:non-scaling-stroke;-inkscape-stroke:hairline;stroke-width:0.26458333;stroke-dasharray:none" />
    <path
       d="M 674.6337895480777,27.91880215351702 L 656.8802687704967,58.66880215351701 L 674.6337895480777,58.66880215351702 L 683.5105499368682,43.29380215351702 L 674.6337895480777,27.91880215351702 Z"
       id="path144"
       style="vector-effect:non-scaling-stroke;-inkscape-stroke:hairline;stroke-width:0.26458333;stroke-dasharray:none" />
    <path
       d="M 643.1267479929157,82.49059892324149 L 678.6337895480777,82.49059892324152 L 669.7570291592872,67.1155989232415 L 652.0035083817063,67.11559892324149 L 643.1267479929157,82.49059892324149 Z"
       id="path145"
       style="vector-effect:non-scaling-stroke;-inkscape-stroke:hairline;stroke-width:0.26458333;stroke-dasharray:none" />
    <path
       d="M 685.8510930717185,56.13345606609866 L 688.3873103256587,51.74059892324152 L 706.1408311032397,82.4905989232415 L 701.0683965953594,82.4905989232415 L 685.8510930717185,56.13345606609866 Z"
       id="path146"
       style="vector-effect:non-scaling-stroke;-inkscape-stroke:hairline;stroke-width:0.26458333;stroke-dasharray:none" />
    <path
       d="M 694.3051505848524,82.4905989232415 L 688.3873103256587,82.4905989232415 L 679.5105499368682,67.1155989232415 L 682.4694700664651,61.99059892324152 L 694.3051505848524,82.4905989232415 Z"
       id="path147"
       style="vector-effect:non-scaling-stroke;-inkscape-stroke:hairline;stroke-width:0.26458333;stroke-dasharray:none" />
    <path
       d="M 572.1126648825917,82.49059892324152 L 607.6197064377537,82.49059892324152 L 598.7429460489633,67.11559892324152 L 580.9894252713823,67.11559892324152 L 572.1126648825917,82.49059892324152 Z"
       id="path148"
       style="vector-effect:non-scaling-stroke;-inkscape-stroke:hairline;stroke-width:0.26458333;stroke-dasharray:none" />
    <path
       d="M 635.1267479929157,82.4905989232415 L 617.3732272153347,51.74059892324151 L 608.4964668265443,67.1155989232415 L 617.3732272153347,82.4905989232415 L 635.1267479929157,82.4905989232415 Z"
       id="path149"
       style="vector-effect:non-scaling-stroke;-inkscape-stroke:hairline;stroke-width:0.26458333;stroke-dasharray:none" />
    <path
       d="M 590.938620168053,58.66880215351702 L 585.8661856601727,58.66880215351702 L 603.6197064377537,27.91880215351702 L 606.1559236916938,32.31165929637416 L 590.938620168053,58.66880215351702 Z"
       id="path150"
       style="vector-effect:non-scaling-stroke;-inkscape-stroke:hairline;stroke-width:0.26458333;stroke-dasharray:none" />
    <path
       d="M 609.5375466969474,38.16880215351702 L 612.4964668265443,43.29380215351701 L 603.6197064377537,58.66880215351702 L 597.7018661785601,58.66880215351702 L 609.5375466969474,38.16880215351702 Z"
       id="path151"
       style="vector-effect:non-scaling-stroke;-inkscape-stroke:hairline;stroke-width:0.26458333;stroke-dasharray:none" />
    <path
       d="M 607.6197064377537,25.609401076758502 L 625.3732272153347,56.3594010767585 L 634.2499876041253,40.9844010767585 L 625.3732272153347,25.609401076758502 L 607.6197064377537,25.609401076758502 Z"
       id="path152"
       style="vector-effect:non-scaling-stroke;-inkscape-stroke:hairline;stroke-width:0.26458333;stroke-dasharray:none" />
    <path
       d="M 639.1267479929157,80.18119784648299 L 656.8802687704967,49.431197846483 L 639.1267479929157,49.43119784648299 L 630.2499876041253,64.80619784648299 L 639.1267479929157,80.18119784648299 Z"
       id="path153"
       style="vector-effect:non-scaling-stroke;-inkscape-stroke:hairline;stroke-width:0.26458333;stroke-dasharray:none" />
    <path
       d="M 637.6629652468558,30.00225821961564 L 635.1267479929157,25.609401076758502 L 670.6337895480777,25.609401076758502 L 668.0975722941375,30.00225821961564 L 637.6629652468558,30.00225821961564 Z"
       id="path154"
       style="vector-effect:non-scaling-stroke;-inkscape-stroke:hairline;stroke-width:0.26458333;stroke-dasharray:none" />
    <path
       d="M 664.7159492888841,35.8594010767585 L 661.7570291592872,40.9844010767585 L 644.0035083817062,40.9844010767585 L 641.0445882521094,35.8594010767585 L 664.7159492888841,35.8594010767585 Z"
       id="path155"
       style="vector-effect:non-scaling-stroke;-inkscape-stroke:hairline;stroke-width:0.26458333;stroke-dasharray:none" />
    <path
       d="M 777.1549142135636,82.49059892324149 L 759.4013934359828,51.74059892324149 L 750.5246330471922,67.11559892324149 L 759.4013934359826,82.49059892324149 L 777.1549142135636,82.49059892324149 Z"
       id="path156"
       style="vector-effect:non-scaling-stroke;-inkscape-stroke:hairline;stroke-width:0.26458333;stroke-dasharray:none" />
    <path
       d="M 745.6478726584018,27.918802153516992 L 727.8943518808208,58.66880215351699 L 745.6478726584016,58.66880215351701 L 754.5246330471922,43.29380215351701 L 745.6478726584018,27.918802153516992 Z"
       id="path157"
       style="vector-effect:non-scaling-stroke;-inkscape-stroke:hairline;stroke-width:0.26458333;stroke-dasharray:none" />
    <path
       d="M 747.1116554044615,78.09774178038435 L 749.6478726584016,82.49059892324149 L 714.1408311032397,82.49059892324149 L 716.6770483571798,78.09774178038435 L 747.1116554044615,78.09774178038435 Z"
       id="path158"
       style="vector-effect:non-scaling-stroke;-inkscape-stroke:hairline;stroke-width:0.26458333;stroke-dasharray:none" />
    <path
       d="M 720.0586713624334,72.24059892324149 L 723.0175914920302,67.11559892324149 L 740.7711122696112,67.11559892324149 L 743.7300323992081,72.24059892324149 L 720.0586713624334,72.24059892324149 Z"
       id="path159"
       style="vector-effect:non-scaling-stroke;-inkscape-stroke:hairline;stroke-width:0.26458333;stroke-dasharray:none" />
    <path
       d="M 812.6619557687256,25.609401076758502 L 777.1549142135636,25.609401076758502 L 786.0316746023542,40.9844010767585 L 803.7851953799352,40.9844010767585 L 812.6619557687256,25.609401076758502 Z"
       id="path160"
       style="vector-effect:non-scaling-stroke;-inkscape-stroke:hairline;stroke-width:0.26458333;stroke-dasharray:none" />
    <path
       d="M 749.6478726584018,25.609401076758502 L 767.4013934359826,56.3594010767585 L 776.2781538247732,40.9844010767585 L 767.4013934359828,25.609401076758502 L 749.6478726584018,25.609401076758502 Z"
       id="path161"
       style="vector-effect:non-scaling-stroke;-inkscape-stroke:hairline;stroke-width:0.26458333;stroke-dasharray:none" />
    <path
       d="M 793.8360004832643,49.431197846483 L 798.9084349911446,49.431197846483 L 781.1549142135636,80.18119784648299 L 778.6186969596235,75.78834070362585 L 793.8360004832643,49.431197846483 Z"
       id="path162"
       style="vector-effect:non-scaling-stroke;-inkscape-stroke:hairline;stroke-width:0.26458333;stroke-dasharray:none" />
    <path
       d="M 775.23707395437,69.93119784648299 L 772.2781538247732,64.806197846483 L 781.1549142135636,49.43119784648299 L 787.0727544727573,49.431197846483 L 775.23707395437,69.93119784648299 Z"
       id="path163"
       style="vector-effect:non-scaling-stroke;-inkscape-stroke:hairline;stroke-width:0.26458333;stroke-dasharray:none" />
    <path
       d="M 710.1408311032397,80.18119784648299 L 727.8943518808208,49.431197846483 L 710.1408311032397,49.431197846483 L 701.2640707144492,64.806197846483 L 710.1408311032397,80.18119784648299 Z"
       id="path164"
       style="vector-effect:non-scaling-stroke;-inkscape-stroke:hairline;stroke-width:0.26458333;stroke-dasharray:none" />
    <path
       d="M 741.6478726584016,25.609401076758502 L 706.1408311032397,25.609401076758502 L 715.0175914920302,40.9844010767585 L 732.7711122696112,40.9844010767585 L 741.6478726584016,25.609401076758502 Z"
       id="path165"
       style="vector-effect:non-scaling-stroke;-inkscape-stroke:hairline;stroke-width:0.26458333;stroke-dasharray:none" />
    <path
       d="M 698.9235275795988,51.96654393390136 L 696.3873103256587,56.3594010767585 L 678.6337895480777,25.609401076758502 L 683.706224055958,25.609401076758502 L 698.9235275795988,51.96654393390136 Z"
       id="path166"
       style="vector-effect:non-scaling-stroke;-inkscape-stroke:hairline;stroke-width:0.26458333;stroke-dasharray:none" />
    <path
       d="M 690.4694700664651,25.609401076758502 L 696.3873103256587,25.609401076758502 L 705.2640707144492,40.9844010767585 L 702.3051505848524,46.1094010767585 L 690.4694700664651,25.609401076758502 Z"
       id="path167"
       style="vector-effect:non-scaling-stroke;-inkscape-stroke:hairline;stroke-width:0.26458333;stroke-dasharray:none" />
    <path
       d="M 781.1549142135636,89.41880215351702 L 763.4013934359828,120.168802153517 L 781.1549142135636,120.16880215351702 L 790.0316746023542,104.79380215351702 L 781.1549142135636,89.41880215351702 Z"
       id="path168"
       style="vector-effect:non-scaling-stroke;-inkscape-stroke:hairline;stroke-width:0.26458333;stroke-dasharray:none" />
    <path
       d="M 749.6478726584016,143.9905989232415 L 785.1549142135636,143.99059892324152 L 776.2781538247732,128.61559892324152 L 758.5246330471922,128.6155989232415 L 749.6478726584016,143.9905989232415 Z"
       id="path169"
       style="vector-effect:non-scaling-stroke;-inkscape-stroke:hairline;stroke-width:0.26458333;stroke-dasharray:none" />
    <path
       d="M 792.3722177372046,117.63345606609866 L 794.9084349911446,113.24059892324152 L 812.6619557687256,143.99059892324152 L 807.5895212608453,143.99059892324152 L 792.3722177372046,117.63345606609866 Z"
       id="path170"
       style="vector-effect:non-scaling-stroke;-inkscape-stroke:hairline;stroke-width:0.26458333;stroke-dasharray:none" />
    <path
       d="M 800.8262752503383,143.99059892324152 L 794.9084349911446,143.99059892324152 L 786.0316746023542,128.61559892324152 L 788.990594731951,123.49059892324152 L 800.8262752503383,143.99059892324152 Z"
       id="path171"
       style="vector-effect:non-scaling-stroke;-inkscape-stroke:hairline;stroke-width:0.26458333;stroke-dasharray:none" />
    <path
       d="M 678.6337895480777,143.99059892324152 L 714.1408311032397,143.99059892324152 L 705.2640707144492,128.61559892324152 L 687.5105499368682,128.61559892324152 L 678.6337895480777,143.99059892324152 Z"
       id="path172"
       style="vector-effect:non-scaling-stroke;-inkscape-stroke:hairline;stroke-width:0.26458333;stroke-dasharray:none" />
    <path
       d="M 741.6478726584016,143.99059892324152 L 723.8943518808208,113.2405989232415 L 715.0175914920302,128.61559892324152 L 723.8943518808208,143.99059892324152 L 741.6478726584016,143.99059892324152 Z"
       id="path173"
       style="vector-effect:non-scaling-stroke;-inkscape-stroke:hairline;stroke-width:0.26458333;stroke-dasharray:none" />
    <path
       d="M 697.459744833539,120.16880215351702 L 692.3873103256587,120.16880215351702 L 710.1408311032396,89.41880215351702 L 712.6770483571798,93.81165929637417 L 697.459744833539,120.16880215351702 Z"
       id="path174"
       style="vector-effect:non-scaling-stroke;-inkscape-stroke:hairline;stroke-width:0.26458333;stroke-dasharray:none" />
    <path
       d="M 716.0586713624334,99.66880215351702 L 719.0175914920302,104.793802153517 L 710.1408311032396,120.16880215351702 L 704.2229908440461,120.16880215351702 L 716.0586713624334,99.66880215351702 Z"
       id="path175"
       style="vector-effect:non-scaling-stroke;-inkscape-stroke:hairline;stroke-width:0.26458333;stroke-dasharray:none" />
    <path
       d="M 714.1408311032397,87.1094010767585 L 731.8943518808208,117.8594010767585 L 740.7711122696112,102.4844010767585 L 731.8943518808208,87.1094010767585 L 714.1408311032397,87.1094010767585 Z"
       id="path176"
       style="vector-effect:non-scaling-stroke;-inkscape-stroke:hairline;stroke-width:0.26458333;stroke-dasharray:none" />
    <path
       d="M 745.6478726584016,141.68119784648297 L 763.4013934359828,110.931197846483 L 745.6478726584016,110.93119784648299 L 736.7711122696112,126.30619784648299 L 745.6478726584016,141.68119784648297 Z"
       id="path177"
       style="vector-effect:non-scaling-stroke;-inkscape-stroke:hairline;stroke-width:0.26458333;stroke-dasharray:none" />
    <path
       d="M 744.1840899123418,91.50225821961564 L 741.6478726584016,87.1094010767585 L 777.1549142135636,87.1094010767585 L 774.6186969596235,91.50225821961564 L 744.1840899123418,91.50225821961564 Z"
       id="path178"
       style="vector-effect:non-scaling-stroke;-inkscape-stroke:hairline;stroke-width:0.26458333;stroke-dasharray:none" />
    <path
       d="M 771.23707395437,97.3594010767585 L 768.2781538247732,102.4844010767585 L 750.5246330471922,102.4844010767585 L 747.5657129175954,97.3594010767585 L 771.23707395437,97.3594010767585 Z"
       id="path179"
       style="vector-effect:non-scaling-stroke;-inkscape-stroke:hairline;stroke-width:0.26458333;stroke-dasharray:none" />
    <path
       d="M 883.6760388790497,143.9905989232415 L 865.9225181014687,113.24059892324149 L 857.0457577126781,128.6155989232415 L 865.9225181014687,143.9905989232415 L 883.6760388790497,143.9905989232415 Z"
       id="path180"
       style="vector-effect:non-scaling-stroke;-inkscape-stroke:hairline;stroke-width:0.26458333;stroke-dasharray:none" />
    <path
       d="M 852.1689973238877,89.418802153517 L 834.4154765463066,120.16880215351699 L 852.1689973238877,120.16880215351699 L 861.0457577126781,104.793802153517 L 852.1689973238877,89.418802153517 Z"
       id="path181"
       style="vector-effect:non-scaling-stroke;-inkscape-stroke:hairline;stroke-width:0.26458333;stroke-dasharray:none" />
    <path
       d="M 853.6327800699476,139.59774178038435 L 856.1689973238877,143.9905989232415 L 820.6619557687256,143.9905989232415 L 823.1981730226659,139.59774178038435 L 853.6327800699476,139.59774178038435 Z"
       id="path182"
       style="vector-effect:non-scaling-stroke;-inkscape-stroke:hairline;stroke-width:0.26458333;stroke-dasharray:none" />
    <path
       d="M 826.5797960279193,133.7405989232415 L 829.5387161575162,128.6155989232415 L 847.2922369350972,128.6155989232415 L 850.251157064694,133.7405989232415 L 826.5797960279193,133.7405989232415 Z"
       id="path183"
       style="vector-effect:non-scaling-stroke;-inkscape-stroke:hairline;stroke-width:0.26458333;stroke-dasharray:none" />
    <path
       d="M 883.6760388790497,87.1094010767585 L 890.0,87.1094010767585 L 890.0,98.06282304333479 L 883.6760388790497,87.1094010767585 Z"
       id="path184"
       style="vector-effect:non-scaling-stroke;-inkscape-stroke:hairline;stroke-width:0.26458333;stroke-dasharray:none" />
    <path
       d="M 856.1689973238877,87.10940107675849 L 873.9225181014687,117.8594010767585 L 882.7992784902591,102.4844010767585 L 873.9225181014687,87.1094010767585 L 856.1689973238877,87.10940107675849 Z"
       id="path185"
       style="vector-effect:non-scaling-stroke;-inkscape-stroke:hairline;stroke-width:0.26458333;stroke-dasharray:none" />
    <path
       d="M 887.6760388790497,141.681197846483 L 885.1398216251094,137.28834070362586 L 890.0,128.8702648244679 L 890.0,137.65597911018227 L 887.6760388790497,141.681197846483 Z"
       id="path186"
       style="vector-effect:non-scaling-stroke;-inkscape-stroke:hairline;stroke-width:0.26458333;stroke-dasharray:none" />
    <path
       d="M 878.7992784902591,126.306197846483 L 887.6760388790497,110.931197846483 L 890.0,110.931197846483 L 890.0,117.15597911018227 L 881.758198619856,131.43119784648297 L 878.7992784902591,126.306197846483 Z"
       id="path187"
       style="vector-effect:non-scaling-stroke;-inkscape-stroke:hairline;stroke-width:0.26458333;stroke-dasharray:none" />
    <path
       d="M 816.6619557687256,141.681197846483 L 834.4154765463066,110.931197846483 L 816.6619557687256,110.931197846483 L 807.7851953799352,126.306197846483 L 816.6619557687256,141.681197846483 Z"
       id="path188"
       style="vector-effect:non-scaling-stroke;-inkscape-stroke:hairline;stroke-width:0.26458333;stroke-dasharray:none" />
    <path
       d="M 848.1689973238877,87.10940107675852 L 812.6619557687256,87.1094010767585 L 821.5387161575162,102.4844010767585 L 839.2922369350972,102.4844010767585 L 848.1689973238877,87.10940107675852 Z"
       id="path189"
       style="vector-effect:non-scaling-stroke;-inkscape-stroke:hairline;stroke-width:0.26458333;stroke-dasharray:none" />
    <path
       d="M 805.4446522450849,113.46654393390136 L 802.9084349911446,117.8594010767585 L 785.1549142135636,87.10940107675852 L 790.227348721444,87.10940107675852 L 805.4446522450849,113.46654393390136 Z"
       id="path190"
       style="vector-effect:non-scaling-stroke;-inkscape-stroke:hairline;stroke-width:0.26458333;stroke-dasharray:none" />
    <path
       d="M 796.990594731951,87.10940107675852 L 802.9084349911446,87.1094010767585 L 811.7851953799352,102.4844010767585 L 808.8262752503383,107.6094010767585 L 796.990594731951,87.10940107675852 Z"
       id="path191"
       style="vector-effect:non-scaling-stroke;-inkscape-stroke:hairline;stroke-width:0.26458333;stroke-dasharray:none" />
    <path
       d="M 887.6760388790497,58.66880215351702 L 869.9225181014687,58.66880215351701 L 887.6760388790497,27.91880215351702 L 890.0,31.94402088981775 L 890.0,54.64358341721628 L 887.6760388790497,58.66880215351702 Z"
       id="path192"
       style="vector-effect:non-scaling-stroke;-inkscape-stroke:hairline;stroke-width:0.26458333;stroke-dasharray:none" />
    <path
       d="M 856.1689973238877,82.49059892324149 L 865.0457577126782,67.11559892324149 L 882.7992784902591,67.1155989232415 L 890.0,79.58761442926675 L 890.0,82.49059892324152 L 856.1689973238877,82.49059892324149 Z"
       id="path193"
       style="vector-effect:non-scaling-stroke;-inkscape-stroke:hairline;stroke-width:0.26458333;stroke-dasharray:none" />
    <path
       d="M 785.1549142135636,82.49059892324152 L 820.6619557687256,82.49059892324152 L 811.7851953799352,67.11559892324152 L 794.0316746023542,67.11559892324152 L 785.1549142135636,82.49059892324152 Z"
       id="path194"
       style="vector-effect:non-scaling-stroke;-inkscape-stroke:hairline;stroke-width:0.26458333;stroke-dasharray:none" />
    <path
       d="M 848.1689973238877,82.4905989232415 L 830.4154765463066,51.74059892324151 L 821.5387161575162,67.1155989232415 L 830.4154765463066,82.4905989232415 L 848.1689973238877,82.4905989232415 Z"
       id="path195"
       style="vector-effect:non-scaling-stroke;-inkscape-stroke:hairline;stroke-width:0.26458333;stroke-dasharray:none" />
    <path
       d="M 803.980869499025,58.66880215351702 L 798.9084349911446,58.66880215351702 L 816.6619557687256,27.91880215351702 L 819.1981730226657,32.31165929637416 L 803.980869499025,58.66880215351702 Z"
       id="path196"
       style="vector-effect:non-scaling-stroke;-inkscape-stroke:hairline;stroke-width:0.26458333;stroke-dasharray:none" />
    <path
       d="M 822.5797960279193,38.16880215351702 L 825.5387161575161,43.29380215351701 L 816.6619557687256,58.66880215351702 L 810.744115509532,58.66880215351702 L 822.5797960279193,38.16880215351702 Z"
       id="path197"
       style="vector-effect:non-scaling-stroke;-inkscape-stroke:hairline;stroke-width:0.26458333;stroke-dasharray:none" />
    <path
       d="M 820.6619557687256,25.609401076758502 L 838.4154765463066,56.3594010767585 L 847.2922369350972,40.9844010767585 L 838.4154765463066,25.609401076758502 L 820.6619557687256,25.609401076758502 Z"
       id="path198"
       style="vector-effect:non-scaling-stroke;-inkscape-stroke:hairline;stroke-width:0.26458333;stroke-dasharray:none" />
    <path
       d="M 852.1689973238877,80.18119784648299 L 869.9225181014687,49.431197846483 L 852.1689973238877,49.43119784648299 L 843.2922369350972,64.80619784648299 L 852.1689973238877,80.18119784648299 Z"
       id="path199"
       style="vector-effect:non-scaling-stroke;-inkscape-stroke:hairline;stroke-width:0.26458333;stroke-dasharray:none" />
    <path
       d="M 850.7052145778277,30.00225821961564 L 848.1689973238877,25.609401076758502 L 883.6760388790497,25.609401076758502 L 881.1398216251094,30.00225821961564 L 850.7052145778277,30.00225821961564 Z"
       id="path200"
       style="vector-effect:non-scaling-stroke;-inkscape-stroke:hairline;stroke-width:0.26458333;stroke-dasharray:none" />
    <path
       d="M 877.758198619856,35.8594010767585 L 874.7992784902591,40.9844010767585 L 857.0457577126781,40.9844010767585 L 854.0868375830813,35.8594010767585 L 877.758198619856,35.8594010767585 Z"
       id="path201"
       style="vector-effect:non-scaling-stroke;-inkscape-stroke:hairline;stroke-width:0.26458333;stroke-dasharray:none" />
    <path
       d="M 0.0,170.0 L 905.0,170.0 L 905.0,0.0 L 0.0,0.0 L 0.0,170.0 Z"
       id="path202"
       style="vector-effect:non-scaling-stroke;-inkscape-stroke:hairline;stroke-width:0.26458333;stroke-dasharray:none" />
  </g>
</svg>
