<?xml version="1.0" encoding="utf-8" ?>
<svg baseProfile="full" height="12000mm" version="1.1" viewBox="0 0 12000 12000" width="12000mm" xmlns="http://www.w3.org/2000/svg" xmlns:ev="http://www.w3.org/2001/xml-events" xmlns:xlink="http://www.w3.org/1999/xlink"><defs /><g fill="none" stroke="blue" stroke-width="0.3" transform="translate(5368.108731068165,5915.0)"><path d="M 531.8653347947321,50.99999999999997 L 513.6788013152589,40.49999999999997 L 507.6166234887678,50.99999999999997 L 495.4922678357857,50.99999999999997 L 495.4922678357857,71.99999999999997 L 513.6788013152589,82.5 L 507.6166234887678,93.0 L 513.6788013152589,103.5 L 531.8653347947321,93.0 L 531.8653347947321,71.99999999999997 L 543.9896904477142,71.99999999999997 L 550.0518682742054,61.49999999999997 L 556.1140461006964,50.99999999999997 L 550.0518682742054,40.49999999999997 L 531.8653347947321,50.99999999999997 Z" /><path d="M 513.6788013152589,103.5 L 519.7409791417499,114.0 L 531.8653347947321,114.0 L 543.9896904477142,114.0 L 550.0518682742054,103.5 L 568.2384017536785,114.0 L 586.4249352331517,103.5 L 580.3627574066606,93.0 L 568.2384017536785,93.0 L 568.2384017536785,71.99999999999997 L 550.0518682742054,61.49999999999997 L 543.9896904477142,71.99999999999997 L 531.8653347947321,71.99999999999997 L 531.8653347947321,93.0 L 513.6788013152589,103.5 Z" /><path d="M 568.2384017536785,71.99999999999997 L 568.2384017536785,93.0 L 580.3627574066606,93.0 L 586.4249352331517,103.5 L 604.611468712625,93.0 L 604.611468712625,71.99999999999997 L 616.7358243656071,71.99999999999997 L 622.7980021920982,61.49999999999997 L 604.611468712625,50.99999999999997 L 586.4249352331517,61.49999999999997 L 580.3627574066606,50.99999999999997 L 568.2384017536785,50.99999999999997 L 556.1140461006964,50.99999999999997 L 550.0518682742054,61.49999999999997 L 568.2384017536785,71.99999999999997 Z" /><path d="M 604.611468712625,93.0 L 586.4249352331517,103.5 L 592.4871130596428,114.0 L 586.4249352331517,124.5 L 604.611468712625,135.0 L 622.7980021920982,124.5 L 628.8601800185893,135.0 L 640.9845356715714,134.99999999999994 L 640.9845356715714,113.99999999999994 L 622.7980021920982,103.5 L 628.8601800185893,93.0 L 622.7980021920982,82.5 L 616.7358243656071,71.99999999999997 L 604.611468712625,71.99999999999997 L 604.611468712625,93.0 Z" /><path d="M 531.8653347947321,135.0 L 531.8653347947321,114.0 L 543.9896904477142,114.0 L 550.0518682742054,103.5 L 568.2384017536785,114.0 L 586.4249352331517,103.5 L 592.4871130596428,114.0 L 586.4249352331517,124.5 L 580.3627574066606,135.0 L 568.2384017536785,135.0 L 568.2384017536785,144.0 L 547.453792062852,144.0 L 531.8653347947321,135.0 Z" /><path d="M 483.36791218280354,135.0 L 495.4922678357857,135.0 L 495.4922678357857,114.0 L 513.6788013152589,103.5 L 519.7409791417499,114.0 L 531.8653347947321,114.0 L 531.8653347947321,135.0 L 547.453792062852,144.0 L 478.1717597600969,144.0 L 483.36791218280354,135.0 Z" /><path d="M 495.4922678357857,114.0 L 513.6788013152589,103.5 L 507.6166234887678,93.0 L 513.6788013152589,82.5 L 495.4922678357857,71.99999999999997 L 477.3057343563125,82.5 L 471.2435565298214,72.0 L 459.1192008768393,72.0 L 459.1192008768393,93.0 L 477.3057343563125,103.5 L 471.2435565298214,114.0 L 477.3057343563125,124.5 L 483.36791218280354,135.0 L 495.4922678357857,135.0 L 495.4922678357857,114.0 Z" /><path d="M 568.2384017536785,135.0 L 580.3627574066606,135.0 L 586.4249352331517,124.5 L 604.611468712625,135.0 L 622.7980021920982,124.5 L 628.8601800185893,135.0 L 623.6640275958827,144.0 L 568.2384017536785,144.0 L 568.2384017536785,135.0 Z" /><path d="M 471.2435565298214,30.0 L 459.1192008768393,30.0 L 446.9948452238571,30.0 L 443.5307436087194,24.0 L 474.70765814495917,24.0 L 471.2435565298214,30.0 Z" /><path d="M 495.4922678357857,29.99999999999997 L 485.09996299037243,24.0 L 505.8845726811989,24.0 L 495.4922678357857,29.99999999999997 Z" /><path d="M 568.2384017536785,29.99999999999997 L 568.2384017536785,50.99999999999997 L 556.1140461006964,50.99999999999997 L 550.0518682742054,40.49999999999997 L 531.8653347947321,50.99999999999997 L 513.6788013152589,40.49999999999997 L 519.7409791417499,29.99999999999997 L 516.2768775266122,24.0 L 557.8460969082654,24.0 L 568.2384017536785,29.99999999999997 Z" /><path d="M 495.4922678357857,29.99999999999997 L 505.8845726811989,24.0 L 516.2768775266122,24.0 L 519.7409791417499,29.99999999999997 L 513.6788013152589,40.49999999999997 L 507.6166234887678,50.99999999999997 L 495.4922678357857,50.99999999999997 L 495.4922678357857,71.99999999999997 L 477.3057343563125,82.5 L 471.2435565298214,72.0 L 477.3057343563125,61.5 L 459.1192008768393,51.0 L 459.1192008768393,30.0 L 471.2435565298214,30.0 L 474.70765814495917,24.0 L 485.09996299037243,24.0 L 495.4922678357857,29.99999999999997 Z" /><path d="M 446.9948452238571,30.0 L 459.1192008768393,30.0 L 459.1192008768393,51.0 L 477.3057343563125,61.5 L 471.2435565298214,72.0 L 459.1192008768393,72.0 L 446.9948452238571,72.0 L 440.93266739736606,61.5 L 422.74613391789285,72.0 L 404.55960043841964,61.5 L 410.6217782649107,51.0 L 422.74613391789285,51.0 L 422.74613391789285,30.0 L 433.1384387633061,24.0 L 443.5307436087194,24.0 L 446.9948452238571,30.0 Z" /><path d="M 422.74613391789285,30.0 L 422.74613391789285,51.0 L 410.6217782649107,51.0 L 404.55960043841964,40.5 L 398.4974226119286,30.0 L 401.9615242270663,24.0 L 433.1384387633061,24.0 L 422.74613391789285,30.0 Z" /><path d="M 616.7358243656071,29.99999999999997 L 604.611468712625,29.99999999999997 L 604.611468712625,50.99999999999997 L 586.4249352331517,61.49999999999997 L 580.3627574066606,50.99999999999997 L 568.2384017536785,50.99999999999997 L 568.2384017536785,29.99999999999997 L 557.8460969082654,24.0 L 620.1999259807449,24.0 L 616.7358243656071,29.99999999999997 Z" /><path d="M 640.9845356715714,29.999999999999943 L 630.5922308261582,24.0 L 651.3768405169845,24.0 L 640.9845356715714,29.999999999999943 Z" /><path d="M 677.3576026305178,29.999999999999943 L 665.2332469775356,29.999999999999943 L 661.7691453623979,24.0 L 677.3576026305178,24.0 L 677.3576026305178,29.999999999999943 Z" /><path d="M 640.9845356715714,29.999999999999943 L 651.3768405169845,24.0 L 661.7691453623979,24.0 L 665.2332469775356,29.999999999999943 L 659.1710691510445,40.49999999999994 L 653.1088913245535,50.99999999999994 L 640.9845356715714,50.99999999999994 L 640.9845356715714,71.99999999999994 L 622.7980021920982,82.5 L 616.7358243656071,71.99999999999997 L 622.7980021920982,61.49999999999997 L 604.611468712625,50.99999999999997 L 604.611468712625,29.99999999999997 L 616.7358243656071,29.99999999999997 L 620.1999259807449,24.0 L 630.5922308261582,24.0 L 640.9845356715714,29.999999999999943 Z" /><path d="M 640.9845356715714,71.99999999999994 L 622.7980021920982,82.5 L 628.8601800185893,93.0 L 622.7980021920982,103.5 L 640.9845356715714,113.99999999999994 L 659.1710691510445,103.49999999999994 L 665.2332469775356,113.99999999999994 L 677.3576026305178,113.99999999999994 L 677.3576026305178,92.99999999999994 L 659.1710691510445,82.49999999999994 L 665.2332469775356,71.99999999999994 L 659.1710691510445,61.49999999999994 L 653.1088913245535,50.99999999999994 L 640.9845356715714,50.99999999999994 L 640.9845356715714,71.99999999999994 Z" /><path d="M 677.3576026305178,113.99999999999994 L 689.4819582834999,113.99999999999994 L 695.5441361099911,103.49999999999994 L 701.6063139364821,92.99999999999994 L 695.5441361099911,82.49999999999994 L 713.7306695894642,71.99999999999994 L 713.7306695894642,50.99999999999994 L 701.6063139364821,50.99999999999994 L 695.5441361099911,61.49999999999994 L 677.3576026305178,50.99999999999994 L 659.1710691510445,61.49999999999994 L 665.2332469775356,71.99999999999994 L 659.1710691510445,82.49999999999994 L 677.3576026305178,92.99999999999994 L 677.3576026305178,113.99999999999994 Z" /><path d="M 713.7306695894642,29.999999999999943 L 713.7306695894642,50.99999999999994 L 701.6063139364821,50.99999999999994 L 695.5441361099911,61.49999999999994 L 677.3576026305178,50.99999999999994 L 659.1710691510445,61.49999999999994 L 653.1088913245535,50.99999999999994 L 659.1710691510445,40.49999999999994 L 665.2332469775356,29.999999999999943 L 677.3576026305178,29.999999999999943 L 677.3576026305178,24.0 L 703.3383647440511,24.0 L 713.7306695894642,29.999999999999943 Z" /><path d="M 762.2280922013928,29.999999999999943 L 750.1037365484107,29.999999999999943 L 750.1037365484107,50.99999999999994 L 731.9172030689374,61.49999999999994 L 725.8550252424463,50.99999999999994 L 713.7306695894642,50.99999999999994 L 713.7306695894642,29.999999999999943 L 703.3383647440511,24.0 L 765.6921938165306,24.0 L 762.2280922013928,29.999999999999943 Z" /><path d="M 713.7306695894642,71.99999999999994 L 695.5441361099911,82.49999999999994 L 701.6063139364821,92.99999999999994 L 695.5441361099911,103.49999999999994 L 713.7306695894642,113.99999999999994 L 731.9172030689374,103.49999999999994 L 737.9793808954284,113.99999999999994 L 750.1037365484107,113.99999999999994 L 750.1037365484107,92.99999999999994 L 731.9172030689374,82.49999999999994 L 737.9793808954284,71.99999999999994 L 731.9172030689374,61.49999999999994 L 725.8550252424463,50.99999999999994 L 713.7306695894642,50.99999999999994 L 713.7306695894642,71.99999999999994 Z" /><path d="M 677.3576026305178,134.99999999999994 L 677.3576026305178,113.99999999999994 L 689.4819582834999,113.99999999999994 L 695.5441361099911,103.49999999999994 L 713.7306695894642,113.99999999999994 L 731.9172030689374,103.49999999999994 L 737.9793808954284,113.99999999999994 L 731.9172030689374,124.49999999999994 L 725.8550252424463,134.99999999999994 L 713.7306695894642,134.99999999999994 L 713.7306695894642,144.0 L 692.9460598986378,144.0 L 677.3576026305178,134.99999999999994 Z" /><path d="M 628.8601800185893,135.0 L 640.9845356715714,134.99999999999994 L 640.9845356715714,113.99999999999994 L 659.1710691510445,103.49999999999994 L 665.2332469775356,113.99999999999994 L 677.3576026305178,113.99999999999994 L 677.3576026305178,134.99999999999994 L 692.9460598986378,144.0 L 623.6640275958827,144.0 L 628.8601800185893,135.0 Z" /><path d="M 750.1037365484107,50.99999999999994 L 731.9172030689374,61.49999999999994 L 737.9793808954284,71.99999999999994 L 731.9172030689374,82.49999999999994 L 750.1037365484107,92.99999999999994 L 768.2902700278839,82.49999999999994 L 774.352447854375,92.99999999999994 L 786.4768035073571,92.99999999999994 L 786.4768035073571,71.99999999999994 L 768.2902700278839,61.49999999999994 L 774.352447854375,50.99999999999994 L 768.2902700278839,40.49999999999994 L 762.2280922013928,29.999999999999943 L 750.1037365484107,29.999999999999943 L 750.1037365484107,50.99999999999994 Z" /><path d="M 459.1192008768393,93.0 L 459.1192008768393,72.0 L 446.9948452238571,72.0 L 440.93266739736606,61.5 L 422.74613391789285,72.0 L 422.74613391789285,93.0 L 410.6217782649107,93.0 L 404.55960043841964,103.5 L 422.74613391789285,114.0 L 440.93266739736606,103.5 L 446.9948452238571,114.0 L 459.1192008768393,114.0 L 471.2435565298214,114.0 L 477.3057343563125,103.5 L 459.1192008768393,93.0 Z" /><path d="M 422.74613391789285,135.0 L 410.6217782649107,135.0 L 404.55960043841964,124.5 L 398.4974226119286,114.0 L 404.55960043841964,103.5 L 422.74613391789285,114.0 L 440.93266739736606,103.5 L 446.9948452238571,114.0 L 459.1192008768393,114.0 L 459.1192008768393,135.0 L 443.5307436087194,144.0 L 422.74613391789285,144.0 L 422.74613391789285,135.0 Z" /><path d="M 459.1192008768393,135.0 L 459.1192008768393,114.0 L 471.2435565298214,114.0 L 477.3057343563125,124.5 L 483.36791218280354,135.0 L 478.1717597600969,144.0 L 443.5307436087194,144.0 L 459.1192008768393,135.0 Z" /><path d="M 386.3730669589464,135.0 L 404.55960043841964,124.5 L 410.6217782649107,135.0 L 422.74613391789285,135.0 L 422.74613391789285,144.0 L 386.3730669589464,144.0 L 386.3730669589464,135.0 Z" /><path d="M 362.12435565298216,135.0 L 368.1865334794732,124.5 L 350.0,114.0 L 350.0,93.0 L 362.12435565298216,93.0 L 368.1865334794732,103.5 L 386.3730669589464,93.0 L 404.55960043841964,103.5 L 398.4974226119286,114.0 L 404.55960043841964,124.5 L 386.3730669589464,135.0 L 386.3730669589464,144.0 L 367.3205080756888,144.0 L 362.12435565298216,135.0 Z" /><path d="M 386.3730669589464,93.0 L 404.55960043841964,103.5 L 410.6217782649107,93.0 L 422.74613391789285,93.0 L 422.74613391789285,72.0 L 404.55960043841964,61.5 L 410.6217782649107,51.0 L 404.55960043841964,40.5 L 386.3730669589464,51.0 L 386.3730669589464,72.0 L 374.24871130596426,72.0 L 368.1865334794732,82.5 L 362.12435565298216,93.0 L 368.1865334794732,103.5 L 386.3730669589464,93.0 Z" /><path d="M 398.4974226119286,30.0 L 404.55960043841964,40.5 L 386.3730669589464,51.0 L 386.3730669589464,72.0 L 374.24871130596426,72.0 L 368.1865334794732,61.5 L 362.12435565298216,51.0 L 368.1865334794732,40.5 L 350.0,30.0 L 350.0,24.0 L 401.9615242270663,24.0 L 398.4974226119286,30.0 Z" /><path d="M 350.0,30.0 L 368.1865334794732,40.5 L 362.12435565298216,51.0 L 368.1865334794732,61.5 L 350.0,72.0 L 331.8134665205268,61.5 L 325.75128869403574,72.0 L 313.6269330410536,72.0 L 313.6269330410536,51.0 L 331.8134665205268,40.5 L 325.75128869403574,30.0 L 329.2153903091735,24.0 L 350.0,24.0 L 350.0,30.0 Z" /><path d="M 350.0,72.0 L 331.8134665205268,61.5 L 325.75128869403574,72.0 L 313.6269330410536,72.0 L 313.6269330410536,93.0 L 331.8134665205268,103.5 L 325.75128869403574,114.0 L 331.8134665205268,124.5 L 350.0,114.0 L 350.0,93.0 L 362.12435565298216,93.0 L 368.1865334794732,82.5 L 374.24871130596426,72.0 L 368.1865334794732,61.5 L 350.0,72.0 Z" /><path d="M 313.6269330410536,135.0 L 295.44039956158036,124.5 L 301.5025773880714,114.0 L 313.6269330410536,114.0 L 325.75128869403574,114.0 L 331.8134665205268,124.5 L 350.0,114.0 L 368.1865334794732,124.5 L 362.12435565298216,135.0 L 350.0,135.0 L 350.0,144.0 L 313.6269330410536,144.0 L 313.6269330410536,135.0 Z" /><path d="M 350.0,135.0 L 362.12435565298216,135.0 L 367.3205080756888,144.0 L 350.0,144.0 L 350.0,135.0 Z" /><path d="M 82.89126893183487,24.0 L 1180.891268931835,24.0 L 1180.891268931835,144.0 L 82.89126893183487,144.0 L 82.89126893183487,24.0 Z" /><path d="M 82.89126893183487,144.0 L 1180.891268931835,144.0 L 1180.891268931835,24.0 L 82.89126893183487,24.0 L 82.89126893183487,144.0 Z" /><path d="M 66.89126893183487,170.0 L 1196.891268931835,170.0 L 1196.891268931835,0.0 L 66.89126893183487,0.0 L 66.89126893183487,170.0 Z" /><path d="M 82.89126893183487,144.0 L 1180.891268931835,144.0 L 1180.891268931835,24.0 L 82.89126893183487,24.0 L 82.89126893183487,144.0 Z" /></g></svg>