<?xml version="1.0" encoding="UTF-8" standalone="no"?>
<svg
   height="12000mm"
   version="1.1"
   viewBox="0 0 12000 12000"
   width="12000mm"
   id="svg59"
   sodipodi:docname="full_polygons.svg"
   inkscape:version="1.4.2 (1:1.4.2+202505120737+ebf0e940d0)"
   xmlns:inkscape="http://www.inkscape.org/namespaces/inkscape"
   xmlns:sodipodi="http://sodipodi.sourceforge.net/DTD/sodipodi-0.dtd"
   xmlns="http://www.w3.org/2000/svg"
   xmlns:svg="http://www.w3.org/2000/svg">
  <sodipodi:namedview
     id="namedview59"
     pagecolor="#ffffff"
     bordercolor="#666666"
     borderopacity="1.0"
     inkscape:showpageshadow="2"
     inkscape:pageopacity="0.0"
     inkscape:pagecheckerboard="0"
     inkscape:deskcolor="#d1d1d1"
     inkscape:document-units="mm"
     showgrid="false"
     inkscape:zoom="0.28433889"
     inkscape:cx="22587.484"
     inkscape:cy="21488.443"
     inkscape:window-width="1920"
     inkscape:window-height="1011"
     inkscape:window-x="0"
     inkscape:window-y="0"
     inkscape:window-maximized="1"
     inkscape:current-layer="g59" />
  <defs
     id="defs1" />
  <g
     fill="none"
     stroke="blue"
     stroke-width="0.3"
     transform="translate(5817.226795767484,5706.75)"
     id="g59"
     style="vector-effect:non-scaling-stroke;-inkscape-stroke:hairline;stroke-width:0.26458333;stroke-dasharray:none">
    <path
       d="M 350.0,318.75 L 372.0836477965032,306.0 L 364.7224318643355,293.25 L 372.0836477965032,280.5 L 350.0,267.75 L 327.9163522034968,280.5 L 320.5551362713291,267.75 L 305.8327044069936,267.75 L 305.8327044069936,293.25 L 327.9163522034968,306.0 L 320.5551362713291,318.75 L 327.9163522034968,331.5 L 335.2775681356645,344.25 L 350.0,344.25 L 350.0,318.75 Z"
       id="path1"
       style="vector-effect:non-scaling-stroke;-inkscape-stroke:hairline;stroke-width:0.26458333;stroke-dasharray:none" />
    <path
       d="M 305.8327044069936,267.75 L 291.11027254265815,267.75 L 283.74905661049047,280.5 L 276.38784067832273,293.25 L 283.74905661049047,306.0 L 261.66540881398726,318.75 L 261.66540881398726,344.25 L 276.38784067832273,344.25 L 283.74905661049047,331.5 L 305.8327044069936,344.25 L 327.9163522034968,331.5 L 320.5551362713291,318.75 L 327.9163522034968,306.0 L 305.8327044069936,293.25 L 305.8327044069936,267.75 Z"
       id="path2"
       style="vector-effect:non-scaling-stroke;-inkscape-stroke:hairline;stroke-width:0.26458333;stroke-dasharray:none" />
    <path
       d="M 305.8327044069936,344.25 L 283.74905661049047,331.5 L 276.38784067832273,344.25 L 261.66540881398726,344.25 L 261.66540881398726,369.75 L 283.74905661049047,382.5 L 276.38784067832273,395.25 L 283.74905661049047,408.0 L 305.8327044069936,395.25 L 305.8327044069936,369.75 L 320.5551362713291,369.75 L 327.9163522034968,357.0 L 335.2775681356645,344.25 L 327.9163522034968,331.5 L 305.8327044069936,344.25 Z"
       id="path3"
       style="vector-effect:non-scaling-stroke;-inkscape-stroke:hairline;stroke-width:0.26458333;stroke-dasharray:none" />
    <path
       d="M 261.66540881398726,369.75 L 261.66540881398726,344.25 L 246.9429769496518,344.25 L 239.58176101748407,331.5 L 217.49811322098088,344.25 L 217.49811322098088,369.75 L 202.77568135664544,369.75 L 195.4144654244777,382.5 L 217.49811322098088,395.25 L 239.58176101748407,382.5 L 246.9429769496518,395.25 L 261.66540881398726,395.25 L 276.38784067832273,395.25 L 283.74905661049047,382.5 L 261.66540881398726,369.75 Z"
       id="path4"
       style="vector-effect:non-scaling-stroke;-inkscape-stroke:hairline;stroke-width:0.26458333;stroke-dasharray:none" />
    <path
       d="M 261.66540881398726,318.75 L 283.74905661049047,306.0 L 276.38784067832273,293.25 L 283.74905661049047,280.5 L 261.66540881398726,267.75 L 239.58176101748407,280.5 L 232.22054508531636,267.75 L 217.49811322098088,267.75 L 217.49811322098088,293.25 L 239.58176101748407,306.0 L 232.22054508531636,318.75 L 239.58176101748407,331.5 L 246.9429769496518,344.25 L 261.66540881398726,344.25 L 261.66540881398726,318.75 Z"
       id="path5"
       style="vector-effect:non-scaling-stroke;-inkscape-stroke:hairline;stroke-width:0.26458333;stroke-dasharray:none" />
    <path
       d="M 261.66540881398726,267.75 L 283.74905661049047,280.5 L 291.11027254265815,267.75 L 305.8327044069936,267.75 L 305.8327044069936,242.25 L 283.74905661049047,229.5 L 291.11027254265815,216.75 L 283.74905661049047,204.0 L 261.66540881398726,216.75 L 261.66540881398726,242.25 L 246.9429769496518,242.25 L 239.58176101748407,255.0 L 232.22054508531636,267.75 L 239.58176101748407,280.5 L 261.66540881398726,267.75 Z"
       id="path6"
       style="vector-effect:non-scaling-stroke;-inkscape-stroke:hairline;stroke-width:0.26458333;stroke-dasharray:none" />
    <path
       d="M 305.8327044069936,242.25 L 305.8327044069936,267.75 L 320.5551362713291,267.75 L 327.9163522034968,280.5 L 350.0,267.75 L 350.0,242.25 L 364.7224318643355,242.25 L 372.0836477965032,229.5 L 350.0,216.75 L 327.9163522034968,229.5 L 320.5551362713291,216.75 L 305.8327044069936,216.75 L 291.11027254265815,216.75 L 283.74905661049047,229.5 L 305.8327044069936,242.25 Z"
       id="path7"
       style="vector-effect:non-scaling-stroke;-inkscape-stroke:hairline;stroke-width:0.26458333;stroke-dasharray:none" />
    <path
       d="M 217.49811322098088,344.25 L 239.58176101748407,331.5 L 232.22054508531636,318.75 L 239.58176101748407,306.0 L 217.49811322098088,293.25 L 195.4144654244777,306.0 L 188.05324949231,293.25 L 173.3308176279745,293.25 L 173.3308176279745,318.75 L 195.4144654244777,331.5 L 188.05324949231,344.25 L 195.4144654244777,357.0 L 202.77568135664544,369.75 L 217.49811322098088,369.75 L 217.49811322098088,344.25 Z"
       id="path8"
       style="vector-effect:non-scaling-stroke;-inkscape-stroke:hairline;stroke-width:0.26458333;stroke-dasharray:none" />
    <path
       d="M 482.5018867790191,293.25 L 504.5855345755223,280.5 L 497.22431864335454,267.75 L 504.5855345755223,255.0 L 482.5018867790191,242.25 L 460.41823898251596,255.0 L 453.0570230503482,242.25 L 438.33459118601274,242.25 L 438.33459118601274,267.75 L 460.41823898251596,280.5 L 453.0570230503482,293.25 L 460.41823898251596,306.0 L 467.77945491468364,318.75 L 482.5018867790191,318.75 L 482.5018867790191,293.25 Z"
       id="path9"
       style="vector-effect:non-scaling-stroke;-inkscape-stroke:hairline;stroke-width:0.26458333;stroke-dasharray:none" />
    <path
       d="M 438.33459118601274,242.25 L 423.61215932167727,242.25 L 416.25094338950953,255.0 L 408.88972745734185,267.75 L 416.25094338950953,280.5 L 394.1672955930064,293.25 L 394.1672955930064,318.75 L 408.88972745734185,318.75 L 416.25094338950953,306.0 L 438.33459118601274,318.75 L 460.41823898251596,306.0 L 453.0570230503482,293.25 L 460.41823898251596,280.5 L 438.33459118601274,267.75 L 438.33459118601274,242.25 Z"
       id="path10"
       style="vector-effect:non-scaling-stroke;-inkscape-stroke:hairline;stroke-width:0.26458333;stroke-dasharray:none" />
    <path
       d="M 438.33459118601274,318.75 L 416.25094338950953,306.0 L 408.88972745734185,318.75 L 394.1672955930064,318.75 L 394.1672955930064,344.25 L 416.25094338950953,357.0 L 408.88972745734185,369.75 L 416.25094338950953,382.5 L 438.33459118601274,369.75 L 438.33459118601274,344.25 L 453.0570230503482,344.25 L 460.41823898251596,331.5 L 467.77945491468364,318.75 L 460.41823898251596,306.0 L 438.33459118601274,318.75 Z"
       id="path11"
       style="vector-effect:non-scaling-stroke;-inkscape-stroke:hairline;stroke-width:0.26458333;stroke-dasharray:none" />
    <path
       d="M 394.1672955930064,344.25 L 394.1672955930064,318.75 L 379.4448637286709,318.75 L 372.0836477965032,306.0 L 350.0,318.75 L 350.0,344.25 L 335.2775681356645,344.25 L 327.9163522034968,357.0 L 350.0,369.75 L 372.0836477965032,357.0 L 379.4448637286709,369.75 L 394.1672955930064,369.75 L 408.88972745734185,369.75 L 416.25094338950953,357.0 L 394.1672955930064,344.25 Z"
       id="path12"
       style="vector-effect:non-scaling-stroke;-inkscape-stroke:hairline;stroke-width:0.26458333;stroke-dasharray:none" />
    <path
       d="M 394.1672955930064,293.25 L 416.25094338950953,280.5 L 408.88972745734185,267.75 L 416.25094338950953,255.0 L 394.1672955930064,242.25 L 372.0836477965032,255.0 L 364.7224318643355,242.25 L 350.0,242.25 L 350.0,267.75 L 372.0836477965032,280.5 L 364.7224318643355,293.25 L 372.0836477965032,306.0 L 379.4448637286709,318.75 L 394.1672955930064,318.75 L 394.1672955930064,293.25 Z"
       id="path13"
       style="vector-effect:non-scaling-stroke;-inkscape-stroke:hairline;stroke-width:0.26458333;stroke-dasharray:none" />
    <path
       d="M 394.1672955930064,242.25 L 416.25094338950953,255.0 L 423.61215932167727,242.25 L 438.33459118601274,242.25 L 438.33459118601274,216.75 L 416.25094338950953,204.0 L 423.61215932167727,191.25 L 416.25094338950953,178.5 L 394.1672955930064,191.25 L 394.1672955930064,216.75 L 379.4448637286709,216.75 L 372.0836477965032,229.5 L 364.7224318643355,242.25 L 372.0836477965032,255.0 L 394.1672955930064,242.25 Z"
       id="path14"
       style="vector-effect:non-scaling-stroke;-inkscape-stroke:hairline;stroke-width:0.26458333;stroke-dasharray:none" />
    <path
       d="M 438.33459118601274,216.75 L 438.33459118601274,242.25 L 453.0570230503482,242.25 L 460.41823898251596,255.0 L 482.5018867790191,242.25 L 482.5018867790191,216.75 L 497.22431864335454,216.75 L 504.5855345755223,204.0 L 482.5018867790191,191.25 L 460.41823898251596,204.0 L 453.0570230503482,191.25 L 438.33459118601274,191.25 L 423.61215932167727,191.25 L 416.25094338950953,204.0 L 438.33459118601274,216.75 Z"
       id="path15"
       style="vector-effect:non-scaling-stroke;-inkscape-stroke:hairline;stroke-width:0.26458333;stroke-dasharray:none" />
    <path
       d="M 350.0,369.75 L 327.9163522034968,357.0 L 320.5551362713291,369.75 L 305.8327044069936,369.75 L 305.8327044069936,395.25 L 327.9163522034968,408.0 L 320.5551362713291,420.75 L 327.9163522034968,433.5 L 350.0,420.75 L 350.0,395.25 L 364.7224318643355,395.25 L 372.0836477965032,382.5 L 379.4448637286709,369.75 L 372.0836477965032,357.0 L 350.0,369.75 Z"
       id="path16"
       style="vector-effect:non-scaling-stroke;-inkscape-stroke:hairline;stroke-width:0.26458333;stroke-dasharray:none" />
    <path
       d="M 327.9163522034968,433.5 L 335.2775681356645,446.25 L 350.0,446.25 L 364.7224318643355,446.25 L 372.0836477965032,433.5 L 394.1672955930064,446.25 L 416.25094338950953,433.5 L 408.88972745734185,420.75 L 394.1672955930064,420.75 L 394.1672955930064,395.25 L 372.0836477965032,382.5 L 364.7224318643355,395.25 L 350.0,395.25 L 350.0,420.75 L 327.9163522034968,433.5 Z"
       id="path17"
       style="vector-effect:non-scaling-stroke;-inkscape-stroke:hairline;stroke-width:0.26458333;stroke-dasharray:none" />
    <path
       d="M 394.1672955930064,395.25 L 394.1672955930064,420.75 L 408.88972745734185,420.75 L 416.25094338950953,433.5 L 438.33459118601274,420.75 L 438.33459118601274,395.25 L 453.0570230503482,395.25 L 460.41823898251596,382.5 L 438.33459118601274,369.75 L 416.25094338950953,382.5 L 408.88972745734185,369.75 L 394.1672955930064,369.75 L 379.4448637286709,369.75 L 372.0836477965032,382.5 L 394.1672955930064,395.25 Z"
       id="path18"
       style="vector-effect:non-scaling-stroke;-inkscape-stroke:hairline;stroke-width:0.26458333;stroke-dasharray:none" />
    <path
       d="M 438.33459118601274,420.75 L 416.25094338950953,433.5 L 423.61215932167727,446.25 L 416.25094338950953,459.0 L 438.33459118601274,471.75 L 460.41823898251596,459.0 L 467.77945491468364,471.75 L 482.5018867790191,471.75 L 482.5018867790191,446.25 L 460.41823898251596,433.5 L 467.77945491468364,420.75 L 460.41823898251596,408.0 L 453.0570230503482,395.25 L 438.33459118601274,395.25 L 438.33459118601274,420.75 Z"
       id="path19"
       style="vector-effect:non-scaling-stroke;-inkscape-stroke:hairline;stroke-width:0.26458333;stroke-dasharray:none" />
    <path
       d="M 394.1672955930064,446.25 L 372.0836477965032,433.5 L 364.7224318643355,446.25 L 350.0,446.25 L 350.0,471.75 L 372.0836477965032,484.5 L 364.7224318643355,497.25 L 372.0836477965032,510.0 L 394.1672955930064,497.25 L 394.1672955930064,471.75 L 408.88972745734185,471.75 L 416.25094338950953,459.0 L 423.61215932167727,446.25 L 416.25094338950953,433.5 L 394.1672955930064,446.25 Z"
       id="path20"
       style="vector-effect:non-scaling-stroke;-inkscape-stroke:hairline;stroke-width:0.26458333;stroke-dasharray:none" />
    <path
       d="M 350.0,471.75 L 350.0,446.25 L 335.2775681356645,446.25 L 327.9163522034968,433.5 L 305.8327044069936,446.25 L 305.8327044069936,471.75 L 291.11027254265815,471.75 L 283.74905661049047,484.5 L 305.8327044069936,497.25 L 327.9163522034968,484.5 L 335.2775681356645,497.25 L 350.0,497.25 L 364.7224318643355,497.25 L 372.0836477965032,484.5 L 350.0,471.75 Z"
       id="path21"
       style="vector-effect:non-scaling-stroke;-inkscape-stroke:hairline;stroke-width:0.26458333;stroke-dasharray:none" />
    <path
       d="M 305.8327044069936,446.25 L 327.9163522034968,433.5 L 320.5551362713291,420.75 L 327.9163522034968,408.0 L 305.8327044069936,395.25 L 283.74905661049047,408.0 L 276.38784067832273,395.25 L 261.66540881398726,395.25 L 261.66540881398726,420.75 L 283.74905661049047,433.5 L 276.38784067832273,446.25 L 283.74905661049047,459.0 L 291.11027254265815,471.75 L 305.8327044069936,471.75 L 305.8327044069936,446.25 Z"
       id="path22"
       style="vector-effect:non-scaling-stroke;-inkscape-stroke:hairline;stroke-width:0.26458333;stroke-dasharray:none" />
    <path
       d="M 438.33459118601274,471.75 L 416.25094338950953,459.0 L 408.88972745734185,471.75 L 394.1672955930064,471.75 L 394.1672955930064,497.25 L 416.25094338950953,510.0 L 408.88972745734185,522.75 L 416.25094338950953,535.5 L 438.33459118601274,522.75 L 438.33459118601274,497.25 L 453.0570230503482,497.25 L 460.41823898251596,484.5 L 467.77945491468364,471.75 L 460.41823898251596,459.0 L 438.33459118601274,471.75 Z"
       id="path23"
       style="vector-effect:non-scaling-stroke;-inkscape-stroke:hairline;stroke-width:0.26458333;stroke-dasharray:none" />
    <path
       d="M 261.66540881398726,420.75 L 261.66540881398726,395.25 L 246.9429769496518,395.25 L 239.58176101748407,382.5 L 217.49811322098088,395.25 L 217.49811322098088,420.75 L 202.77568135664544,420.75 L 195.4144654244777,433.5 L 217.49811322098088,446.25 L 239.58176101748407,433.5 L 246.9429769496518,446.25 L 261.66540881398726,446.25 L 276.38784067832273,446.25 L 283.74905661049047,433.5 L 261.66540881398726,420.75 Z"
       id="path24"
       style="vector-effect:non-scaling-stroke;-inkscape-stroke:hairline;stroke-width:0.26458333;stroke-dasharray:none" />
    <path
       d="M 195.4144654244777,433.5 L 188.05324949231,446.25 L 195.4144654244777,459.0 L 202.77568135664544,471.75 L 217.49811322098088,471.75 L 217.49811322098088,497.25 L 239.58176101748407,510.0 L 246.9429769496518,497.25 L 239.58176101748407,484.5 L 261.66540881398726,471.75 L 261.66540881398726,446.25 L 246.9429769496518,446.25 L 239.58176101748407,433.5 L 217.49811322098088,446.25 L 195.4144654244777,433.5 Z"
       id="path25"
       style="vector-effect:non-scaling-stroke;-inkscape-stroke:hairline;stroke-width:0.26458333;stroke-dasharray:none" />
    <path
       d="M 261.66540881398726,471.75 L 239.58176101748407,484.5 L 246.9429769496518,497.25 L 239.58176101748407,510.0 L 261.66540881398726,522.75 L 283.74905661049047,510.0 L 291.11027254265815,522.75 L 305.8327044069936,522.75 L 305.8327044069936,497.25 L 283.74905661049047,484.5 L 291.11027254265815,471.75 L 283.74905661049047,459.0 L 276.38784067832273,446.25 L 261.66540881398726,446.25 L 261.66540881398726,471.75 Z"
       id="path26"
       style="vector-effect:non-scaling-stroke;-inkscape-stroke:hairline;stroke-width:0.26458333;stroke-dasharray:none" />
    <path
       d="M 261.66540881398726,522.75 L 239.58176101748407,510.0 L 232.22054508531636,522.75 L 217.49811322098088,522.75 L 217.49811322098088,548.25 L 239.58176101748407,561.0 L 232.22054508531636,573.75 L 239.58176101748407,586.5 L 261.66540881398726,573.75 L 261.66540881398726,548.25 L 276.38784067832273,548.25 L 283.74905661049047,535.5 L 291.11027254265815,522.75 L 283.74905661049047,510.0 L 261.66540881398726,522.75 Z"
       id="path27"
       style="vector-effect:non-scaling-stroke;-inkscape-stroke:hairline;stroke-width:0.26458333;stroke-dasharray:none" />
    <path
       d="M 217.49811322098088,497.25 L 217.49811322098088,471.75 L 202.77568135664544,471.75 L 195.4144654244777,459.0 L 173.3308176279745,471.75 L 173.3308176279745,497.25 L 158.60838576363906,497.25 L 151.24716983147133,510.0 L 173.3308176279745,522.75 L 195.4144654244777,510.0 L 202.77568135664544,522.75 L 217.49811322098088,522.75 L 232.22054508531636,522.75 L 239.58176101748407,510.0 L 217.49811322098088,497.25 Z"
       id="path28"
       style="vector-effect:non-scaling-stroke;-inkscape-stroke:hairline;stroke-width:0.26458333;stroke-dasharray:none" />
    <path
       d="M 173.3308176279745,471.75 L 195.4144654244777,459.0 L 188.05324949231,446.25 L 195.4144654244777,433.5 L 173.3308176279745,420.75 L 151.24716983147133,433.5 L 143.88595389930362,420.75 L 129.16352203496814,420.75 L 129.16352203496814,446.25 L 151.24716983147133,459.0 L 143.88595389930362,471.75 L 151.24716983147133,484.5 L 158.60838576363906,497.25 L 173.3308176279745,497.25 L 173.3308176279745,471.75 Z"
       id="path29"
       style="vector-effect:non-scaling-stroke;-inkscape-stroke:hairline;stroke-width:0.26458333;stroke-dasharray:none" />
    <path
       d="M 173.3308176279745,420.75 L 195.4144654244777,433.5 L 202.77568135664544,420.75 L 217.49811322098088,420.75 L 217.49811322098088,395.25 L 195.4144654244777,382.5 L 202.77568135664544,369.75 L 195.4144654244777,357.0 L 173.3308176279745,369.75 L 173.3308176279745,395.25 L 158.60838576363906,395.25 L 151.24716983147133,408.0 L 143.88595389930362,420.75 L 151.24716983147133,433.5 L 173.3308176279745,420.75 Z"
       id="path30"
       style="vector-effect:non-scaling-stroke;-inkscape-stroke:hairline;stroke-width:0.26458333;stroke-dasharray:none" />
    <path
       d="M 217.49811322098088,548.25 L 217.49811322098088,522.75 L 202.77568135664544,522.75 L 195.4144654244777,510.0 L 173.3308176279745,522.75 L 173.3308176279745,548.25 L 158.60838576363906,548.25 L 151.24716983147133,561.0 L 173.3308176279745,573.75 L 195.4144654244777,561.0 L 202.77568135664544,573.75 L 217.49811322098088,573.75 L 232.22054508531636,573.75 L 239.58176101748407,561.0 L 217.49811322098088,548.25 Z"
       id="path31"
       style="vector-effect:non-scaling-stroke;-inkscape-stroke:hairline;stroke-width:0.26458333;stroke-dasharray:none" />
    <path
       d="M 173.3308176279745,369.75 L 195.4144654244777,357.0 L 188.05324949231,344.25 L 195.4144654244777,331.5 L 173.3308176279745,318.75 L 151.24716983147133,331.5 L 143.88595389930362,318.75 L 129.16352203496814,318.75 L 129.16352203496814,344.25 L 151.24716983147133,357.0 L 143.88595389930362,369.75 L 151.24716983147133,382.5 L 158.60838576363906,395.25 L 173.3308176279745,395.25 L 173.3308176279745,369.75 Z"
       id="path32"
       style="vector-effect:non-scaling-stroke;-inkscape-stroke:hairline;stroke-width:0.26458333;stroke-dasharray:none" />
    <path
       d="M 129.16352203496814,318.75 L 114.44109017063269,318.75 L 107.07987423846495,331.5 L 99.71865830629724,344.25 L 107.07987423846495,357.0 L 84.99622644196177,369.75 L 84.99622644196177,395.25 L 99.71865830629724,395.25 L 107.07987423846495,382.5 L 129.16352203496814,395.25 L 151.24716983147133,382.5 L 143.88595389930362,369.75 L 151.24716983147133,357.0 L 129.16352203496814,344.25 L 129.16352203496814,318.75 Z"
       id="path33"
       style="vector-effect:non-scaling-stroke;-inkscape-stroke:hairline;stroke-width:0.26458333;stroke-dasharray:none" />
    <path
       d="M 129.16352203496814,395.25 L 107.07987423846495,382.5 L 99.71865830629724,395.25 L 84.99622644196177,395.25 L 84.99622644196177,420.75 L 107.07987423846495,433.5 L 99.71865830629724,446.25 L 107.07987423846495,459.0 L 129.16352203496814,446.25 L 129.16352203496814,420.75 L 143.88595389930362,420.75 L 151.24716983147133,408.0 L 158.60838576363906,395.25 L 151.24716983147133,382.5 L 129.16352203496814,395.25 Z"
       id="path34"
       style="vector-effect:non-scaling-stroke;-inkscape-stroke:hairline;stroke-width:0.26458333;stroke-dasharray:none" />
    <path
       d="M 84.99622644196177,420.75 L 84.99622644196177,395.25 L 70.27379457762635,395.25 L 62.91257864545861,382.5 L 40.828930848955395,395.25 L 40.828930848955395,420.75 L 26.106498984619975,420.75 L 18.745283052452237,433.5 L 40.828930848955395,446.25 L 62.91257864545861,433.5 L 70.27379457762635,446.25 L 84.99622644196177,446.25 L 99.71865830629724,446.25 L 107.07987423846495,433.5 L 84.99622644196177,420.75 Z"
       id="path35"
       style="vector-effect:non-scaling-stroke;-inkscape-stroke:hairline;stroke-width:0.26458333;stroke-dasharray:none" />
    <path
       d="M 84.99622644196177,369.75 L 107.07987423846495,357.0 L 99.71865830629724,344.25 L 107.07987423846495,331.5 L 84.99622644196177,318.75 L 62.91257864545861,331.5 L 55.55136271329087,318.75 L 40.828930848955395,318.75 L 40.828930848955395,344.25 L 62.91257864545861,357.0 L 55.55136271329087,369.75 L 62.91257864545861,382.5 L 70.27379457762635,395.25 L 84.99622644196177,395.25 L 84.99622644196177,369.75 Z"
       id="path36"
       style="vector-effect:non-scaling-stroke;-inkscape-stroke:hairline;stroke-width:0.26458333;stroke-dasharray:none" />
    <path
       d="M 84.99622644196177,318.75 L 107.07987423846495,331.5 L 114.44109017063269,318.75 L 129.16352203496814,318.75 L 129.16352203496814,293.25 L 107.07987423846495,280.5 L 114.44109017063269,267.75 L 107.07987423846495,255.0 L 84.99622644196177,267.75 L 84.99622644196177,293.25 L 70.27379457762635,293.25 L 62.91257864545861,306.0 L 55.55136271329087,318.75 L 62.91257864545861,331.5 L 84.99622644196177,318.75 Z"
       id="path37"
       style="vector-effect:non-scaling-stroke;-inkscape-stroke:hairline;stroke-width:0.26458333;stroke-dasharray:none" />
    <path
       d="M 129.16352203496814,293.25 L 129.16352203496814,318.75 L 143.88595389930362,318.75 L 151.24716983147133,331.5 L 173.3308176279745,318.75 L 173.3308176279745,293.25 L 188.05324949231,293.25 L 195.4144654244777,280.5 L 173.3308176279745,267.75 L 151.24716983147133,280.5 L 143.88595389930362,267.75 L 129.16352203496814,267.75 L 114.44109017063269,267.75 L 107.07987423846495,280.5 L 129.16352203496814,293.25 Z"
       id="path38"
       style="vector-effect:non-scaling-stroke;-inkscape-stroke:hairline;stroke-width:0.26458333;stroke-dasharray:none" />
    <path
       d="M -16.847518,173.19074 5.2361249,160.44073 -2.1250883,147.69073 5.2361288,134.94074 -16.847519,122.19074 -38.931172,134.94073 -46.292381,122.19074 -61.014815,122.19073 -61.014813,147.69074 -38.931166,160.44074 -46.292385,173.19073 -38.931171,185.94073 -31.56995,198.69074 -16.847528,198.69073 Z"
       id="path39"
       style="vector-effect:non-scaling-stroke;stroke-width:0.264583;stroke-dasharray:none;-inkscape-stroke:hairline" />
    <path
       d="M 350.0,216.75 L 372.0836477965032,229.5 L 379.4448637286709,216.75 L 394.1672955930064,216.75 L 394.1672955930064,191.25 L 372.0836477965032,178.5 L 379.4448637286709,165.75 L 372.0836477965032,153.0 L 350.0,165.75 L 350.0,191.25 L 335.2775681356645,191.25 L 327.9163522034968,204.0 L 320.5551362713291,216.75 L 327.9163522034968,229.5 L 350.0,216.75 Z"
       id="path40"
       style="vector-effect:non-scaling-stroke;-inkscape-stroke:hairline;stroke-width:0.26458333;stroke-dasharray:none" />
    <path
       d="M 372.0836477965032,153.0 L 364.7224318643355,140.25 L 350.0,140.25 L 335.2775681356645,140.25 L 327.9163522034968,153.0 L 305.8327044069936,140.25 L 283.74905661049047,153.0 L 291.11027254265815,165.75 L 305.8327044069936,165.75 L 305.8327044069936,191.25 L 327.9163522034968,204.0 L 335.2775681356645,191.25 L 350.0,191.25 L 350.0,165.75 L 372.0836477965032,153.0 Z"
       id="path41"
       style="vector-effect:non-scaling-stroke;-inkscape-stroke:hairline;stroke-width:0.26458333;stroke-dasharray:none" />
    <path
       d="M 305.8327044069936,191.25 L 305.8327044069936,165.75 L 291.11027254265815,165.75 L 283.74905661049047,153.0 L 261.66540881398726,165.75 L 261.66540881398726,191.25 L 246.9429769496518,191.25 L 239.58176101748407,204.0 L 261.66540881398726,216.75 L 283.74905661049047,204.0 L 291.11027254265815,216.75 L 305.8327044069936,216.75 L 320.5551362713291,216.75 L 327.9163522034968,204.0 L 305.8327044069936,191.25 Z"
       id="path42"
       style="vector-effect:non-scaling-stroke;-inkscape-stroke:hairline;stroke-width:0.26458333;stroke-dasharray:none" />
    <path
       d="M -146.12389,314.62933 V 289.12933 H -160.84632 L -168.20753,276.37933 -190.29118,289.12933 V 314.62933 H -205.01361 L -212.37483,327.37933 -190.29118,340.12933 -168.20753,327.37933 -160.84632,340.12933 H -146.12389 -131.40145 L -124.04024,327.37933 Z"
       id="path42-7"
       style="vector-effect:non-scaling-stroke;stroke-width:0.264583;stroke-dasharray:none;-inkscape-stroke:hairline" />
    <path
       d="M 261.66540881398726,165.75 L 283.74905661049047,153.0 L 276.38784067832273,140.25 L 283.74905661049047,127.5 L 261.66540881398726,114.75 L 239.58176101748407,127.5 L 232.22054508531636,114.75 L 217.49811322098088,114.75 L 217.49811322098088,140.25 L 239.58176101748407,153.0 L 232.22054508531636,165.75 L 239.58176101748407,178.5 L 246.9429769496518,191.25 L 261.66540881398726,191.25 L 261.66540881398726,165.75 Z"
       id="path43"
       style="vector-effect:non-scaling-stroke;-inkscape-stroke:hairline;stroke-width:0.26458333;stroke-dasharray:none" />
    <path
       d="M 305.8327044069936,140.25 L 327.9163522034968,153.0 L 335.2775681356645,140.25 L 350.0,140.25 L 350.0,114.75 L 327.9163522034968,102.0 L 335.2775681356645,89.25 L 327.9163522034968,76.5 L 305.8327044069936,89.25 L 305.8327044069936,114.75 L 291.11027254265815,114.75 L 283.74905661049047,127.5 L 276.38784067832273,140.25 L 283.74905661049047,153.0 L 305.8327044069936,140.25 Z"
       id="path44"
       style="vector-effect:non-scaling-stroke;-inkscape-stroke:hairline;stroke-width:0.26458333;stroke-dasharray:none" />
    <path
       d="M 350.0,114.75 L 350.0,140.25 L 364.7224318643355,140.25 L 372.0836477965032,153.0 L 394.1672955930064,140.25 L 394.1672955930064,114.75 L 408.88972745734185,114.75 L 416.25094338950953,102.0 L 394.1672955930064,89.25 L 372.0836477965032,102.0 L 364.7224318643355,89.25 L 350.0,89.25 L 335.2775681356645,89.25 L 327.9163522034968,102.0 L 350.0,114.75 Z"
       id="path45"
       style="vector-effect:non-scaling-stroke;-inkscape-stroke:hairline;stroke-width:0.26458333;stroke-dasharray:none" />
    <path
       d="M 394.1672955930064,140.25 L 372.0836477965032,153.0 L 379.4448637286709,165.75 L 372.0836477965032,178.5 L 394.1672955930064,191.25 L 416.25094338950953,178.5 L 423.61215932167727,191.25 L 438.33459118601274,191.25 L 438.33459118601274,165.75 L 416.25094338950953,153.0 L 423.61215932167727,140.25 L 416.25094338950953,127.5 L 408.88972745734185,114.75 L 394.1672955930064,114.75 L 394.1672955930064,140.25 Z"
       id="path46"
       style="vector-effect:non-scaling-stroke;-inkscape-stroke:hairline;stroke-width:0.26458333;stroke-dasharray:none" />
    <path
       d="M 261.66540881398726,114.75 L 283.74905661049047,127.5 L 291.11027254265815,114.75 L 305.8327044069936,114.75 L 305.8327044069936,89.25 L 283.74905661049047,76.5 L 291.11027254265815,63.75 L 283.74905661049047,51.0 L 261.66540881398726,63.75 L 261.66540881398726,89.25 L 246.9429769496518,89.25 L 239.58176101748407,102.0 L 232.22054508531636,114.75 L 239.58176101748407,127.5 L 261.66540881398726,114.75 Z"
       id="path47"
       style="vector-effect:non-scaling-stroke;-inkscape-stroke:hairline;stroke-width:0.26458333;stroke-dasharray:none" />
    <path
       d="M 438.33459118601274,165.75 L 438.33459118601274,191.25 L 453.0570230503482,191.25 L 460.41823898251596,204.0 L 482.5018867790191,191.25 L 482.5018867790191,165.75 L 497.22431864335454,165.75 L 504.5855345755223,153.0 L 482.5018867790191,140.25 L 460.41823898251596,153.0 L 453.0570230503482,140.25 L 438.33459118601274,140.25 L 423.61215932167727,140.25 L 416.25094338950953,153.0 L 438.33459118601274,165.75 Z"
       id="path48"
       style="vector-effect:non-scaling-stroke;-inkscape-stroke:hairline;stroke-width:0.26458333;stroke-dasharray:none" />
    <path
       d="M 504.5855345755223,153.0 L 511.94675050769,140.25 L 504.5855345755223,127.5 L 497.22431864335454,114.75 L 482.5018867790191,114.75 L 482.5018867790191,89.25 L 460.41823898251596,76.5 L 453.0570230503482,89.25 L 460.41823898251596,102.0 L 438.33459118601274,114.75 L 438.33459118601274,140.25 L 453.0570230503482,140.25 L 460.41823898251596,153.0 L 482.5018867790191,140.25 L 504.5855345755223,153.0 Z"
       id="path49"
       style="vector-effect:non-scaling-stroke;-inkscape-stroke:hairline;stroke-width:0.26458333;stroke-dasharray:none" />
    <path
       d="M 438.33459118601274,114.75 L 460.41823898251596,102.0 L 453.0570230503482,89.25 L 460.41823898251596,76.5 L 438.33459118601274,63.75 L 416.25094338950953,76.5 L 408.88972745734185,63.75 L 394.1672955930064,63.75 L 394.1672955930064,89.25 L 416.25094338950953,102.0 L 408.88972745734185,114.75 L 416.25094338950953,127.5 L 423.61215932167727,140.25 L 438.33459118601274,140.25 L 438.33459118601274,114.75 Z"
       id="path50"
       style="vector-effect:non-scaling-stroke;-inkscape-stroke:hairline;stroke-width:0.26458333;stroke-dasharray:none" />
    <path
       d="M 438.33459118601274,63.75 L 460.41823898251596,76.5 L 467.77945491468364,63.75 L 482.5018867790191,63.75 L 482.5018867790191,38.25 L 460.41823898251596,25.5 L 467.77945491468364,12.75 L 460.41823898251596,0.0 L 438.33459118601274,12.75 L 438.33459118601274,38.25 L 423.61215932167727,38.25 L 416.25094338950953,51.0 L 408.88972745734185,63.75 L 416.25094338950953,76.5 L 438.33459118601274,63.75 Z"
       id="path51"
       style="vector-effect:non-scaling-stroke;-inkscape-stroke:hairline;stroke-width:0.26458333;stroke-dasharray:none" />
    <path
       d="M 482.5018867790191,89.25 L 482.5018867790191,114.75 L 497.22431864335454,114.75 L 504.5855345755223,127.5 L 526.6691823720255,114.75 L 526.6691823720255,89.25 L 541.391614236361,89.25 L 548.7528301685287,76.5 L 526.6691823720255,63.75 L 504.5855345755223,76.5 L 497.22431864335454,63.75 L 482.5018867790191,63.75 L 467.77945491468364,63.75 L 460.41823898251596,76.5 L 482.5018867790191,89.25 Z"
       id="path52"
       style="vector-effect:non-scaling-stroke;-inkscape-stroke:hairline;stroke-width:0.26458333;stroke-dasharray:none" />
    <path
       d="M 526.6691823720255,114.75 L 504.5855345755223,127.5 L 511.94675050769,140.25 L 504.5855345755223,153.0 L 526.6691823720255,165.75 L 548.7528301685287,153.0 L 556.1140461006964,165.75 L 570.8364779650319,165.75 L 570.8364779650319,140.25 L 548.7528301685287,127.5 L 556.1140461006964,114.75 L 548.7528301685287,102.0 L 541.391614236361,89.25 L 526.6691823720255,89.25 L 526.6691823720255,114.75 Z"
       id="path53"
       style="vector-effect:non-scaling-stroke;-inkscape-stroke:hairline;stroke-width:0.26458333;stroke-dasharray:none" />
    <path
       d="M 526.6691823720255,165.75 L 504.5855345755223,153.0 L 497.22431864335454,165.75 L 482.5018867790191,165.75 L 482.5018867790191,191.25 L 504.5855345755223,204.0 L 497.22431864335454,216.75 L 504.5855345755223,229.5 L 526.6691823720255,216.75 L 526.6691823720255,191.25 L 541.391614236361,191.25 L 548.7528301685287,178.5 L 556.1140461006964,165.75 L 548.7528301685287,153.0 L 526.6691823720255,165.75 Z"
       id="path54"
       style="vector-effect:non-scaling-stroke;-inkscape-stroke:hairline;stroke-width:0.26458333;stroke-dasharray:none" />
    <path
       d="M 482.5018867790191,38.25 L 482.5018867790191,63.75 L 497.22431864335454,63.75 L 504.5855345755223,76.5 L 526.6691823720255,63.75 L 526.6691823720255,38.25 L 541.391614236361,38.25 L 548.7528301685287,25.5 L 526.6691823720255,12.75 L 504.5855345755223,25.5 L 497.22431864335454,12.75 L 482.5018867790191,12.75 L 467.77945491468364,12.75 L 460.41823898251596,25.5 L 482.5018867790191,38.25 Z"
       id="path55"
       style="vector-effect:non-scaling-stroke;-inkscape-stroke:hairline;stroke-width:0.26458333;stroke-dasharray:none" />
    <g
       id="g60">
      <path
         d="M -183.51082,288.02792 L -172.67822,281.73117 L -166.70769,292.03942 L -181.0352,292.30211 L -183.51082,288.02792 Z"
         id="path56"
         style="vector-effect:non-scaling-stroke;-inkscape-stroke:hairline;stroke-width:0.26458333;stroke-dasharray:none" />
      <path
         d="M -187.82194,295.7343 L -187.85923,308.26406 L -148.69792,308.19355 L -148.66063,295.66378 L -187.82194,295.7343 Z"
         id="path57"
         style="vector-effect:non-scaling-stroke;-inkscape-stroke:hairline;stroke-width:0.26458333;stroke-dasharray:none" />
      <path
         d="M -154.99,312.218 L -152.792,315.956 L -151.673,317.81 L -150.425,319.56 L -149.576,320.288 L -148.6,320.839 L -147.535,321.203 L -146.422,321.375 L -145.3,321.346 L -144.21,321.109 L -143.192,320.657 L -142.284,319.982 L -131.125,326.4 L -132.723,328.216 L -134.535,329.82 L -136.53,331.192 L -138.675,332.312 L -140.938,333.163 L -143.287,333.724 L -145.689,333.977 L -148.114,333.903 L -150.595,333.451 L -153.022,332.723 L -155.315,331.667 L -157.396,330.23 L -159.56,328.418 L -161.449,326.338 L -163.063,324.035 L -164.404,321.551 L -169.496,312.217 L -154.99,312.218 L -154.99,312.218 Z"
         id="path58"
         style="vector-effect:non-scaling-stroke;-inkscape-stroke:hairline;stroke-width:0.26458333;stroke-dasharray:none" />
      <path
         d="M -174.5960695,328.5434994 L -176.35906949999998,326.3784994 L -178.4110695,324.48349939999997 L -180.6910695,322.86349939999997 L -183.13906949999998,321.5234994 L -185.4870695,320.7284994 L -187.9210695,320.2764994 L -190.39506949999998,320.1624994 L -192.8630695,320.3794994 L -195.2800695,320.9204994 L -197.6020695,321.7804994 L -199.78206949999998,322.9514994 L -201.77506949999997,324.42849939999996 L -203.71106949999998,326.3144994 L -205.2900695,328.5084994 L -194.46106949999998,334.7764994 L -193.5180695,333.9174994 L -192.4110695,333.3014994 L -191.1970695,332.9294994 L -189.9280695,332.8044994 L -188.6600695,332.9254994 L -187.4470695,333.2934994 L -186.34306949999998,333.9104994 L -185.4030695,334.7774994 L -174.5960695,328.5434994 L -174.5960695,328.5434994 Z"
         id="path59"
         style="vector-effect:non-scaling-stroke;-inkscape-stroke:hairline;stroke-width:0.26458333;stroke-dasharray:none" />
    </g>
    <path
       d="M -105.18212,122.19074 -105.1821,147.69074 -90.459677,147.69075 -83.098456,160.44074 -61.014822,147.69073 -61.014806,122.19074 H -46.292384 L -38.931157,109.44074 -61.014816,96.69074 -83.098466,109.44074 -90.459668,96.69074 -105.1821,96.69075 -119.90455,96.69074 -127.26573,109.44073 Z"
       id="path60"
       style="vector-effect:non-scaling-stroke;stroke-width:0.264583;stroke-dasharray:none;-inkscape-stroke:hairline" />
    <path
       d="M -105.18212,173.19073 -105.1821,198.69073 -90.459678,198.69074 -83.098457,211.44073 -61.014823,198.69072 -61.014807,173.19073 H -46.292385 L -38.931158,160.44073 -61.014817,147.69073 -83.098467,160.44073 -90.459669,147.69073 -105.1821,147.69074 -119.90455,147.69073 -127.26573,160.44072 Z"
       id="path61"
       style="vector-effect:non-scaling-stroke;stroke-width:0.264583;stroke-dasharray:none;-inkscape-stroke:hairline" />
    <path
       d="M -61.014824,198.69073 -83.098461,211.44074 -75.737259,224.19074 -83.098464,236.94074 -61.014814,249.69072 -38.931167,236.94074 -31.569956,249.69073 -16.84752,249.69074 -16.847524,224.19073 -38.931173,211.44073 -31.56995,198.69074 -38.931174,185.94075 -46.292391,173.19073 -61.014796,173.19075 Z"
       id="path62"
       style="vector-effect:non-scaling-stroke;stroke-width:0.264583;stroke-dasharray:none;-inkscape-stroke:hairline" />
    <path
       d="M 27.319781,96.69072 5.2361298,83.94074 -2.1250932,96.69073 -16.847519,96.69074 -16.847501,122.19073 5.2361288,134.94074 -2.1250812,147.69073 5.2361298,160.44074 27.319782,147.69073 27.319783,122.19073 42.042209,122.19074 49.403413,109.44074 56.764643,96.69073 49.403423,83.94076 Z"
       id="path63"
       style="vector-effect:non-scaling-stroke;stroke-width:0.264583;stroke-dasharray:none;-inkscape-stroke:hairline" />
    <path
       d="M 27.319777,198.69073 27.319757,173.19073 H 12.597327 L 5.236107,160.44074 -16.847522,173.19074 -16.847542,198.69073 H -31.569961 L -38.931191,211.44074 -16.847524,224.19073 5.236117,211.44073 12.597317,224.19074 27.319747,224.19072 42.042197,224.19073 49.403387,211.44074 Z"
       id="path64"
       style="vector-effect:non-scaling-stroke;stroke-width:0.264583;stroke-dasharray:none;-inkscape-stroke:hairline" />
    <path
       d="M -16.847524,275.19075 5.236126,287.94073 12.597346,275.19074 27.319766,275.19072 V 249.69073 L 5.236136,236.94073 12.597346,224.19074 5.236126,211.44072 -16.847528,224.19075 -16.84752,249.69074 -31.569952,249.69072 -38.931151,262.44073 -46.292384,275.19074 -38.931169,287.94072 Z"
       id="path65"
       style="vector-effect:non-scaling-stroke;stroke-width:0.264583;stroke-dasharray:none;-inkscape-stroke:hairline" />
    <path
       d="M -122.63792,-72.077079 -100.55428,-84.827089 -107.91549,-97.577089 -100.55429,-110.32708 -122.63793,-123.07709 -144.72157,-110.3271 -152.08279,-123.07709 -166.80524,-123.0771 -166.80522,-97.577069 -144.72157,-84.827069 -152.08281,-72.077079 -144.72158,-59.327099 -137.36035,-46.577079 -122.63794,-46.577089 Z"
       id="path66"
       style="vector-effect:non-scaling-stroke;stroke-width:0.264583;stroke-dasharray:none;-inkscape-stroke:hairline" />
    <path
       d="M -40.918363,-59.32707 -18.83471,-46.577082 -11.473491,-59.327077 3.2489236,-59.327086 3.2489366,-84.827084 -18.834701,-97.577086 -11.473492,-110.32708 -18.834708,-123.0771 -40.918372,-110.32707 -40.918373,-84.827068 -55.640806,-84.827091 -63.001997,-72.077087 -70.363225,-59.327068 -63.002012,-46.577092 Z"
       id="path67"
       style="vector-effect:non-scaling-stroke;stroke-width:0.264583;stroke-dasharray:none;-inkscape-stroke:hairline" />
    <path
       d="M 55.52362,-91.202073 55.523631,-65.702077 70.246061,-65.702071 77.607279,-52.952086 99.690926,-65.702076 99.690936,-91.20207 114.41336,-91.202071 121.77459,-103.95208 99.690906,-116.70208 77.607261,-103.95208 70.246064,-116.70209 55.523642,-116.70207 H 40.801187 L 33.439991,-103.95208 Z"
       id="path68"
       style="vector-effect:non-scaling-stroke;stroke-width:0.264583;stroke-dasharray:none;-inkscape-stroke:hairline" />
    <path
       d="M 174.04928,-97.577098 151.96564,-84.827093 159.32685,-72.077091 151.96565,-59.327095 174.04929,-46.577089 196.13294,-59.327077 203.49415,-46.577088 218.2166,-46.577082 218.21658,-72.077108 196.13293,-84.82711 203.49417,-97.577098 196.13294,-110.32708 188.77171,-123.0771 174.0493,-123.07709 Z"
       id="path69"
       style="vector-effect:non-scaling-stroke;stroke-width:0.264583;stroke-dasharray:none;-inkscape-stroke:hairline" />
    <path
       d="M 292.57496,-110.32711 270.49131,-123.0771 263.13009,-110.3271 248.40767,-110.32709 248.40766,-84.827095 270.4913,-72.077087 263.13009,-59.327098 270.49131,-46.577079 292.57497,-59.327109 V -84.827112 L 307.29741,-84.827088 314.6586,-97.577089 322.01982,-110.32711 314.65861,-123.07709 Z"
       id="path70"
       style="vector-effect:non-scaling-stroke;stroke-width:0.264583;stroke-dasharray:none;-inkscape-stroke:hairline" />
    <path
       d="M 418.46185,-78.452108 418.46184,-103.95211 H 403.7394 L 396.37819,-116.7021 374.29454,-103.95211 374.29452,-78.452108 H 359.5721 L 352.21087,-65.702098 374.29455,-52.952099 396.37821,-65.702098 403.7394,-52.952081 418.46182,-52.952104 433.18428,-52.952111 440.54547,-65.702098 Z"
       id="path71"
       style="vector-effect:non-scaling-stroke;stroke-width:0.264583;stroke-dasharray:none;-inkscape-stroke:hairline" />
    <path
       d="M 393.74624,-190.51308 371.6626,-203.26309 379.02381,-216.01309 371.66261,-228.76308 393.74625,-241.51309 415.82989,-228.7631 423.19111,-241.51309 437.91356,-241.5131 437.91354,-216.01307 415.82989,-203.26307 423.19113,-190.51308 415.8299,-177.7631 408.46867,-165.01308 393.74626,-165.01309 Z"
       id="path72"
       style="vector-effect:non-scaling-stroke;stroke-width:0.264583;stroke-dasharray:none;-inkscape-stroke:hairline" />
    <path
       d="M 312.02668,-177.76307 289.94303,-165.01308 282.58181,-177.76308 267.8594,-177.76309 267.85938,-203.26308 289.94302,-216.01309 282.58181,-228.76308 289.94303,-241.5131 312.02669,-228.76307 312.02669,-203.26307 326.74913,-203.26309 334.11032,-190.51309 341.47155,-177.76307 334.11033,-165.01309 Z"
       id="path73"
       style="vector-effect:non-scaling-stroke;stroke-width:0.264583;stroke-dasharray:none;-inkscape-stroke:hairline" />
    <path
       d="M 215.5847,-209.63807 215.58469,-184.13808 200.86226,-184.13807 193.50104,-171.38809 171.41739,-184.13808 171.41738,-209.63807 H 156.69496 L 149.33373,-222.38808 171.41741,-235.13808 193.50106,-222.38808 200.86226,-235.13809 215.58468,-235.13807 H 230.30713 L 237.66833,-222.38808 Z"
       id="path74"
       style="vector-effect:non-scaling-stroke;stroke-width:0.264583;stroke-dasharray:none;-inkscape-stroke:hairline" />
    <path
       d="M 97.05904,-216.0131 119.14268,-203.26309 111.78147,-190.51309 119.14267,-177.76309 97.05903,-165.01309 74.97538,-177.76308 67.61417,-165.01309 52.89172,-165.01308 52.89174,-190.51311 74.97539,-203.26311 67.61415,-216.0131 74.97538,-228.76308 82.33661,-241.5131 97.05902,-241.51309 Z"
       id="path75"
       style="vector-effect:non-scaling-stroke;stroke-width:0.264583;stroke-dasharray:none;-inkscape-stroke:hairline" />
    <path
       d="M -21.46664,-228.76311 0.61701,-241.5131 7.97823,-228.7631 22.70065,-228.76309 22.70066,-203.26309 0.61702,-190.51309 7.97823,-177.7631 0.61701,-165.01308 -21.46665,-177.76311 V -203.26311 L -36.18909,-203.26309 -43.55028,-216.01309 -50.9115,-228.76311 -43.55029,-241.51309 Z"
       id="path76"
       style="vector-effect:non-scaling-stroke;stroke-width:0.264583;stroke-dasharray:none;-inkscape-stroke:hairline" />
    <path
       d="M -147.35353,-196.88811 -147.35352,-222.38811 H -132.63108 L -125.26987,-235.1381 -103.18622,-222.38811 -103.1862,-196.88811 H -88.46378 L -81.10255,-184.1381 -103.18623,-171.3881 -125.26989,-184.1381 -132.63108,-171.38808 -147.3535,-171.3881 -162.07596,-171.38811 -169.43715,-184.1381 Z"
       id="path77"
       style="vector-effect:non-scaling-stroke;stroke-width:0.264583;stroke-dasharray:none;-inkscape-stroke:hairline" />
    <text
       xml:space="preserve"
       style="font-size:17.6553px;line-height:1.25;font-family:'Noto Mono';-inkscape-font-specification:'Noto Mono';word-spacing:0px;stroke-width:0.0486593"
       x="392.78522"
       y="-80.74131"
       id="text78"><tspan
         sodipodi:role="line"
         id="tspan78"
         style="fill:#1a1a1a;stroke-width:0.0486593"
         x="392.78522"
         y="-80.74131">0</tspan></text>
    <text
       xml:space="preserve"
       style="font-size:17.6553px;line-height:1.25;font-family:'Noto Mono';-inkscape-font-specification:'Noto Mono';word-spacing:0px;stroke-width:0.0486593"
       x="-139.46326"
       y="-86.14283"
       id="text79"><tspan
         sodipodi:role="line"
         id="tspan79"
         style="fill:#1a1a1a;stroke-width:0.0486593"
         x="-139.46326"
         y="-86.14283">60</tspan></text>
    <text
       xml:space="preserve"
       style="font-size:17.6553px;line-height:1.25;font-family:'Noto Mono';-inkscape-font-specification:'Noto Mono';word-spacing:0px;stroke-width:0.0486593"
       x="-39.333424"
       y="-73.850395"
       id="text80"><tspan
         sodipodi:role="line"
         id="tspan80"
         style="fill:#1a1a1a;stroke-width:0.0486593"
         x="-39.333424"
         y="-73.850395">120</tspan></text>
    <text
       xml:space="preserve"
       style="font-size:17.6553px;line-height:1.25;font-family:'Noto Mono';-inkscape-font-specification:'Noto Mono';word-spacing:0px;stroke-width:0.0486593"
       x="60.306751"
       y="-75.446869"
       id="text81"><tspan
         sodipodi:role="line"
         id="tspan81"
         style="fill:#1a1a1a;stroke-width:0.0486593"
         x="60.306751"
         y="-75.446869">180</tspan></text>
    <text
       xml:space="preserve"
       style="font-size:17.6553px;line-height:1.25;font-family:'Noto Mono';-inkscape-font-specification:'Noto Mono';word-spacing:0px;stroke-width:0.0486593"
       x="163.69417"
       y="-74.219337"
       id="text82"><tspan
         sodipodi:role="line"
         id="tspan82"
         style="fill:#1a1a1a;stroke-width:0.0486593"
         x="163.69417"
         y="-74.219337">240</tspan></text>
    <text
       xml:space="preserve"
       style="font-size:17.6553px;line-height:1.25;font-family:'Noto Mono';-inkscape-font-specification:'Noto Mono';word-spacing:0px;stroke-width:0.0486593"
       x="264.04843"
       y="-82.997467"
       id="text83"><tspan
         sodipodi:role="line"
         id="tspan83"
         style="fill:#1a1a1a;stroke-width:0.0486593"
         x="264.04843"
         y="-82.997467">300</tspan></text>
    <text
       xml:space="preserve"
       style="font-size:17.6553px;line-height:1.25;font-family:'Noto Mono';-inkscape-font-specification:'Noto Mono';word-spacing:0px;stroke-width:0.0486593"
       x="-136.88689"
       y="-195.22945"
       id="text84"><tspan
         sodipodi:role="line"
         id="tspan84"
         style="fill:#1a1a1a;stroke-width:0.0486593"
         x="-136.88689"
         y="-195.22945">0m</tspan></text>
    <text
       xml:space="preserve"
       style="font-size:17.6553px;line-height:1.25;font-family:'Noto Mono';-inkscape-font-specification:'Noto Mono';word-spacing:0px;stroke-width:0.0486593"
       x="-24.803812"
       y="-206.03931"
       id="text85"><tspan
         sodipodi:role="line"
         id="tspan85"
         style="fill:#1a1a1a;stroke-width:0.0486593"
         x="-24.803812"
         y="-206.03931">300m</tspan></text>
    <text
       xml:space="preserve"
       style="font-size:17.6553px;line-height:1.25;font-family:'Noto Mono';-inkscape-font-specification:'Noto Mono';word-spacing:0px;stroke-width:0.0486593"
       x="69.60334"
       y="-194.62927"
       id="text86"><tspan
         sodipodi:role="line"
         id="tspan86"
         style="fill:#1a1a1a;stroke-width:0.0486593"
         x="69.60334"
         y="-194.62927">240m</tspan></text>
    <text
       xml:space="preserve"
       style="font-size:17.6553px;line-height:1.25;font-family:'Noto Mono';-inkscape-font-specification:'Noto Mono';word-spacing:0px;stroke-width:0.0486593"
       x="172.90585"
       y="-198.57713"
       id="text87"><tspan
         sodipodi:role="line"
         id="tspan87"
         style="fill:#1a1a1a;stroke-width:0.0486593"
         x="172.90585"
         y="-198.57713">180m</tspan></text>
    <text
       xml:space="preserve"
       style="font-size:17.6553px;line-height:1.25;font-family:'Noto Mono';-inkscape-font-specification:'Noto Mono';word-spacing:0px;stroke-width:0.0486593"
       x="172.90585"
       y="-198.57713"
       id="text88"><tspan
         sodipodi:role="line"
         id="tspan88"
         style="fill:#1a1a1a;stroke-width:0.0486593"
         x="172.90585"
         y="-198.57713">180m</tspan></text>
    <text
       xml:space="preserve"
       style="font-size:17.6553px;line-height:1.25;font-family:'Noto Mono';-inkscape-font-specification:'Noto Mono';word-spacing:0px;stroke-width:0.0486593"
       x="276.20837"
       y="-191.99736"
       id="text89"><tspan
         sodipodi:role="line"
         id="tspan89"
         style="fill:#1a1a1a;stroke-width:0.0486593"
         x="276.20837"
         y="-191.99736">120m</tspan></text>
    <text
       xml:space="preserve"
       style="font-size:17.6553px;line-height:1.25;font-family:'Noto Mono';-inkscape-font-specification:'Noto Mono';word-spacing:0px;stroke-width:0.0486593"
       x="383.21829"
       y="-199.44153"
       id="text90"><tspan
         sodipodi:role="line"
         id="tspan90"
         style="fill:#1a1a1a;stroke-width:0.0486593"
         x="383.21829"
         y="-199.44153">60m</tspan></text>
  </g>
</svg>
