<?xml version="1.0" encoding="utf-8" ?>
<svg baseProfile="full" height="12000mm" version="1.1" viewBox="0 0 12000 12000" width="12000mm" xmlns="http://www.w3.org/2000/svg" xmlns:ev="http://www.w3.org/2001/xml-events" xmlns:xlink="http://www.w3.org/1999/xlink"><defs /><g fill="none" stroke="blue" stroke-width="0.3" transform="translate(5155.9908990135555,5048.25)"><path d="M 350.0,1256.0 L 368.1865334794732,1245.5 L 362.12435565298216,1235.0 L 368.1865334794732,1224.5 L 350.0,1214.0 L 331.8134665205268,1224.5 L 325.75128869403574,1214.0 L 313.6269330410536,1214.0 L 313.6269330410536,1235.0 L 331.8134665205268,1245.5 L 325.75128869403574,1256.0 L 331.8134665205268,1266.5 L 337.87564434701784,1277.0 L 350.0,1277.0 L 350.0,1256.0 Z" /><path d="M 313.6269330410536,1193.0 L 313.6269330410536,1214.0 L 325.75128869403574,1214.0 L 331.8134665205268,1224.5 L 350.0,1214.0 L 350.0,1193.0 L 362.12435565298216,1193.0 L 368.1865334794732,1182.5 L 350.0,1172.0 L 331.8134665205268,1182.5 L 325.75128869403574,1172.0 L 313.6269330410536,1172.0 L 301.5025773880714,1172.0 L 295.44039956158036,1182.5 L 313.6269330410536,1193.0 Z" /><path d="M 459.1192008768393,1235.0 L 477.3057343563125,1224.5 L 471.2435565298214,1214.0 L 477.3057343563125,1203.5 L 459.1192008768393,1193.0 L 440.93266739736606,1203.5 L 434.87048957087495,1193.0 L 422.74613391789285,1193.0 L 422.74613391789285,1214.0 L 440.93266739736606,1224.5 L 434.87048957087495,1235.0 L 440.93266739736606,1245.5 L 446.9948452238571,1256.0 L 459.1192008768393,1256.0 L 459.1192008768393,1235.0 Z" /><path d="M 422.74613391789285,1193.0 L 410.6217782649107,1193.0 L 404.55960043841964,1203.5 L 398.4974226119286,1214.0 L 404.55960043841964,1224.5 L 386.3730669589464,1235.0 L 386.3730669589464,1256.0 L 398.4974226119286,1256.0 L 404.55960043841964,1245.5 L 422.74613391789285,1256.0 L 440.93266739736606,1245.5 L 434.87048957087495,1235.0 L 440.93266739736606,1224.5 L 422.74613391789285,1214.0 L 422.74613391789285,1193.0 Z" /><path d="M 422.74613391789285,1256.0 L 404.55960043841964,1245.5 L 398.4974226119286,1256.0 L 386.3730669589464,1256.0 L 386.3730669589464,1277.0 L 404.55960043841964,1287.5 L 398.4974226119286,1298.0 L 404.55960043841964,1308.5 L 422.74613391789285,1298.0 L 422.74613391789285,1277.0 L 434.87048957087495,1277.0 L 440.93266739736606,1266.5 L 446.9948452238571,1256.0 L 440.93266739736606,1245.5 L 422.74613391789285,1256.0 Z" /><path d="M 386.3730669589464,1277.0 L 386.3730669589464,1256.0 L 374.24871130596426,1256.0 L 368.1865334794732,1245.5 L 350.0,1256.0 L 350.0,1277.0 L 337.87564434701784,1277.0 L 331.8134665205268,1287.5 L 350.0,1298.0 L 368.1865334794732,1287.5 L 374.24871130596426,1298.0 L 386.3730669589464,1298.0 L 398.4974226119286,1298.0 L 404.55960043841964,1287.5 L 386.3730669589464,1277.0 Z" /><path d="M 386.3730669589464,1235.0 L 404.55960043841964,1224.5 L 398.4974226119286,1214.0 L 404.55960043841964,1203.5 L 386.3730669589464,1193.0 L 368.1865334794732,1203.5 L 362.12435565298216,1193.0 L 350.0,1193.0 L 350.0,1214.0 L 368.1865334794732,1224.5 L 362.12435565298216,1235.0 L 368.1865334794732,1245.5 L 374.24871130596426,1256.0 L 386.3730669589464,1256.0 L 386.3730669589464,1235.0 Z" /><path d="M 386.3730669589464,1193.0 L 404.55960043841964,1203.5 L 410.6217782649107,1193.0 L 422.74613391789285,1193.0 L 422.74613391789285,1172.0 L 404.55960043841964,1161.5 L 410.6217782649107,1151.0 L 404.55960043841964,1140.5 L 386.3730669589464,1151.0 L 386.3730669589464,1172.0 L 374.24871130596426,1172.0 L 368.1865334794732,1182.5 L 362.12435565298216,1193.0 L 368.1865334794732,1203.5 L 386.3730669589464,1193.0 Z" /><path d="M 422.74613391789285,1172.0 L 422.74613391789285,1193.0 L 434.87048957087495,1193.0 L 440.93266739736606,1203.5 L 459.1192008768393,1193.0 L 459.1192008768393,1172.0 L 471.2435565298214,1172.0 L 477.3057343563125,1161.5 L 459.1192008768393,1151.0 L 440.93266739736606,1161.5 L 434.87048957087495,1151.0 L 422.74613391789285,1151.0 L 410.6217782649107,1151.0 L 404.55960043841964,1161.5 L 422.74613391789285,1172.0 Z" /><path d="M 350.0,1298.0 L 331.8134665205268,1287.5 L 325.75128869403574,1298.0 L 313.6269330410536,1298.0 L 313.6269330410536,1319.0 L 331.8134665205268,1329.5 L 325.75128869403574,1340.0 L 331.8134665205268,1350.5 L 350.0,1340.0 L 350.0,1319.0 L 362.12435565298216,1319.0 L 368.1865334794732,1308.5 L 374.24871130596426,1298.0 L 368.1865334794732,1287.5 L 350.0,1298.0 Z" /><path d="M 331.8134665205268,1350.5 L 337.87564434701784,1361.0 L 350.0,1361.0 L 362.12435565298216,1361.0 L 368.1865334794732,1350.5 L 386.3730669589464,1361.0 L 404.55960043841964,1350.5 L 398.4974226119286,1340.0 L 386.3730669589464,1340.0 L 386.3730669589464,1319.0 L 368.1865334794732,1308.5 L 362.12435565298216,1319.0 L 350.0,1319.0 L 350.0,1340.0 L 331.8134665205268,1350.5 Z" /><path d="M 386.3730669589464,1319.0 L 386.3730669589464,1340.0 L 398.4974226119286,1340.0 L 404.55960043841964,1350.5 L 422.74613391789285,1340.0 L 422.74613391789285,1319.0 L 434.87048957087495,1319.0 L 440.93266739736606,1308.5 L 422.74613391789285,1298.0 L 404.55960043841964,1308.5 L 398.4974226119286,1298.0 L 386.3730669589464,1298.0 L 374.24871130596426,1298.0 L 368.1865334794732,1308.5 L 386.3730669589464,1319.0 Z" /><path d="M 422.74613391789285,1340.0 L 404.55960043841964,1350.5 L 410.6217782649107,1361.0 L 404.55960043841964,1371.5 L 422.74613391789285,1382.0 L 440.93266739736606,1371.5 L 446.9948452238571,1382.0 L 459.1192008768393,1382.0 L 459.1192008768393,1361.0 L 440.93266739736606,1350.5 L 446.9948452238571,1340.0 L 440.93266739736606,1329.5 L 434.87048957087495,1319.0 L 422.74613391789285,1319.0 L 422.74613391789285,1340.0 Z" /><path d="M 386.3730669589464,1361.0 L 368.1865334794732,1350.5 L 362.12435565298216,1361.0 L 350.0,1361.0 L 350.0,1382.0 L 368.1865334794732,1392.5 L 362.12435565298216,1403.0 L 368.1865334794732,1413.5 L 386.3730669589464,1403.0 L 386.3730669589464,1382.0 L 398.4974226119286,1382.0 L 404.55960043841964,1371.5 L 410.6217782649107,1361.0 L 404.55960043841964,1350.5 L 386.3730669589464,1361.0 Z" /><path d="M 350.0,1382.0 L 350.0,1361.0 L 337.87564434701784,1361.0 L 331.8134665205268,1350.5 L 313.6269330410536,1361.0 L 313.6269330410536,1382.0 L 301.5025773880714,1382.0 L 295.44039956158036,1392.5 L 313.6269330410536,1403.0 L 331.8134665205268,1392.5 L 337.87564434701784,1403.0 L 350.0,1403.0 L 362.12435565298216,1403.0 L 368.1865334794732,1392.5 L 350.0,1382.0 Z" /><path d="M 422.74613391789285,1382.0 L 404.55960043841964,1371.5 L 398.4974226119286,1382.0 L 386.3730669589464,1382.0 L 386.3730669589464,1403.0 L 404.55960043841964,1413.5 L 398.4974226119286,1424.0 L 404.55960043841964,1434.5 L 422.74613391789285,1424.0 L 422.74613391789285,1403.0 L 434.87048957087495,1403.0 L 440.93266739736606,1392.5 L 446.9948452238571,1382.0 L 440.93266739736606,1371.5 L 422.74613391789285,1382.0 Z" /><path d="M 350.0,1172.0 L 368.1865334794732,1182.5 L 374.24871130596426,1172.0 L 386.3730669589464,1172.0 L 386.3730669589464,1151.0 L 368.1865334794732,1140.5 L 374.24871130596426,1130.0 L 368.1865334794732,1119.5 L 350.0,1130.0 L 350.0,1151.0 L 337.87564434701784,1151.0 L 331.8134665205268,1161.5 L 325.75128869403574,1172.0 L 331.8134665205268,1182.5 L 350.0,1172.0 Z" /><path d="M 368.1865334794732,1119.5 L 362.12435565298216,1109.0 L 350.0,1109.0 L 337.87564434701784,1109.0 L 331.8134665205268,1119.5 L 313.6269330410536,1109.0 L 295.44039956158036,1119.5 L 301.5025773880714,1130.0 L 313.6269330410536,1130.0 L 313.6269330410536,1151.0 L 331.8134665205268,1161.5 L 337.87564434701784,1151.0 L 350.0,1151.0 L 350.0,1130.0 L 368.1865334794732,1119.5 Z" /><path d="M 350.0,1088.0 L 350.0,1109.0 L 362.12435565298216,1109.0 L 368.1865334794732,1119.5 L 386.3730669589464,1109.0 L 386.3730669589464,1088.0 L 398.4974226119286,1088.0 L 404.55960043841964,1077.5 L 386.3730669589464,1067.0 L 368.1865334794732,1077.5 L 362.12435565298216,1067.0 L 350.0,1067.0 L 337.87564434701784,1067.0 L 331.8134665205268,1077.5 L 350.0,1088.0 Z" /><path d="M 386.3730669589464,1109.0 L 368.1865334794732,1119.5 L 374.24871130596426,1130.0 L 368.1865334794732,1140.5 L 386.3730669589464,1151.0 L 404.55960043841964,1140.5 L 410.6217782649107,1151.0 L 422.74613391789285,1151.0 L 422.74613391789285,1130.0 L 404.55960043841964,1119.5 L 410.6217782649107,1109.0 L 404.55960043841964,1098.5 L 398.4974226119286,1088.0 L 386.3730669589464,1088.0 L 386.3730669589464,1109.0 Z" /><path d="M 422.74613391789285,1130.0 L 422.74613391789285,1151.0 L 434.87048957087495,1151.0 L 440.93266739736606,1161.5 L 459.1192008768393,1151.0 L 459.1192008768393,1130.0 L 471.2435565298214,1130.0 L 477.3057343563125,1119.5 L 459.1192008768393,1109.0 L 440.93266739736606,1119.5 L 434.87048957087495,1109.0 L 422.74613391789285,1109.0 L 410.6217782649107,1109.0 L 404.55960043841964,1119.5 L 422.74613391789285,1130.0 Z" /><path d="M 477.3057343563125,1119.5 L 483.36791218280354,1109.0 L 477.3057343563125,1098.5 L 471.2435565298214,1088.0 L 459.1192008768393,1088.0 L 459.1192008768393,1067.0 L 440.93266739736606,1056.5 L 434.87048957087495,1067.0 L 440.93266739736606,1077.5 L 422.74613391789285,1088.0 L 422.74613391789285,1109.0 L 434.87048957087495,1109.0 L 440.93266739736606,1119.5 L 459.1192008768393,1109.0 L 477.3057343563125,1119.5 Z" /><path d="M 422.74613391789285,1088.0 L 440.93266739736606,1077.5 L 434.87048957087495,1067.0 L 440.93266739736606,1056.5 L 422.74613391789285,1046.0 L 404.55960043841964,1056.5 L 398.4974226119286,1046.0 L 386.3730669589464,1046.0 L 386.3730669589464,1067.0 L 404.55960043841964,1077.5 L 398.4974226119286,1088.0 L 404.55960043841964,1098.5 L 410.6217782649107,1109.0 L 422.74613391789285,1109.0 L 422.74613391789285,1088.0 Z" /><path d="M 422.74613391789285,1046.0 L 440.93266739736606,1056.5 L 446.9948452238571,1046.0 L 459.1192008768393,1046.0 L 459.1192008768393,1025.0 L 440.93266739736606,1014.5 L 446.9948452238571,1004.0 L 440.93266739736606,993.5 L 422.74613391789285,1004.0 L 422.74613391789285,1025.0 L 410.6217782649107,1025.0 L 404.55960043841964,1035.5 L 398.4974226119286,1046.0 L 404.55960043841964,1056.5 L 422.74613391789285,1046.0 Z" /><path d="M 459.1192008768393,1067.0 L 459.1192008768393,1088.0 L 471.2435565298214,1088.0 L 477.3057343563125,1098.5 L 495.4922678357857,1088.0 L 495.4922678357857,1067.0 L 507.6166234887678,1067.0 L 513.6788013152589,1056.5 L 495.4922678357857,1046.0 L 477.3057343563125,1056.5 L 471.2435565298214,1046.0 L 459.1192008768393,1046.0 L 446.9948452238571,1046.0 L 440.93266739736606,1056.5 L 459.1192008768393,1067.0 Z" /><path d="M 495.4922678357857,1088.0 L 477.3057343563125,1098.5 L 483.36791218280354,1109.0 L 477.3057343563125,1119.5 L 495.4922678357857,1130.0 L 513.6788013152589,1119.5 L 519.7409791417499,1130.0 L 531.8653347947321,1130.0 L 531.8653347947321,1109.0 L 513.6788013152589,1098.5 L 519.7409791417499,1088.0 L 513.6788013152589,1077.5 L 507.6166234887678,1067.0 L 495.4922678357857,1067.0 L 495.4922678357857,1088.0 Z" /><path d="M 495.4922678357857,1130.0 L 477.3057343563125,1119.5 L 471.2435565298214,1130.0 L 459.1192008768393,1130.0 L 459.1192008768393,1151.0 L 477.3057343563125,1161.5 L 471.2435565298214,1172.0 L 477.3057343563125,1182.5 L 495.4922678357857,1172.0 L 495.4922678357857,1151.0 L 507.6166234887678,1151.0 L 513.6788013152589,1140.5 L 519.7409791417499,1130.0 L 513.6788013152589,1119.5 L 495.4922678357857,1130.0 Z" /><path d="M 459.1192008768393,1025.0 L 459.1192008768393,1046.0 L 471.2435565298214,1046.0 L 477.3057343563125,1056.5 L 495.4922678357857,1046.0 L 495.4922678357857,1025.0 L 507.6166234887678,1025.0 L 513.6788013152589,1014.5 L 495.4922678357857,1004.0 L 477.3057343563125,1014.5 L 471.2435565298214,1004.0 L 459.1192008768393,1004.0 L 446.9948452238571,1004.0 L 440.93266739736606,1014.5 L 459.1192008768393,1025.0 Z" /><path d="M 604.611468712625,1193.0 L 622.7980021920982,1182.5 L 616.7358243656071,1172.0 L 622.7980021920982,1161.5 L 604.611468712625,1151.0 L 586.4249352331517,1161.5 L 580.3627574066606,1151.0 L 568.2384017536785,1151.0 L 568.2384017536785,1172.0 L 586.4249352331517,1182.5 L 580.3627574066606,1193.0 L 586.4249352331517,1203.5 L 592.4871130596428,1214.0 L 604.611468712625,1214.0 L 604.611468712625,1193.0 Z" /><path d="M 568.2384017536785,1151.0 L 556.1140461006964,1151.0 L 550.0518682742054,1161.5 L 543.9896904477142,1172.0 L 550.0518682742054,1182.5 L 531.8653347947321,1193.0 L 531.8653347947321,1214.0 L 543.9896904477142,1214.0 L 550.0518682742054,1203.5 L 568.2384017536785,1214.0 L 586.4249352331517,1203.5 L 580.3627574066606,1193.0 L 586.4249352331517,1182.5 L 568.2384017536785,1172.0 L 568.2384017536785,1151.0 Z" /><path d="M 568.2384017536785,1214.0 L 550.0518682742054,1203.5 L 543.9896904477142,1214.0 L 531.8653347947321,1214.0 L 531.8653347947321,1235.0 L 550.0518682742054,1245.5 L 543.9896904477142,1256.0 L 550.0518682742054,1266.5 L 568.2384017536785,1256.0 L 568.2384017536785,1235.0 L 580.3627574066606,1235.0 L 586.4249352331517,1224.5 L 592.4871130596428,1214.0 L 586.4249352331517,1203.5 L 568.2384017536785,1214.0 Z" /><path d="M 531.8653347947321,1235.0 L 531.8653347947321,1214.0 L 519.7409791417499,1214.0 L 513.6788013152589,1203.5 L 495.4922678357857,1214.0 L 495.4922678357857,1235.0 L 483.36791218280354,1235.0 L 477.3057343563125,1245.5 L 495.4922678357857,1256.0 L 513.6788013152589,1245.5 L 519.7409791417499,1256.0 L 531.8653347947321,1256.0 L 543.9896904477142,1256.0 L 550.0518682742054,1245.5 L 531.8653347947321,1235.0 Z" /><path d="M 531.8653347947321,1193.0 L 550.0518682742054,1182.5 L 543.9896904477142,1172.0 L 550.0518682742054,1161.5 L 531.8653347947321,1151.0 L 513.6788013152589,1161.5 L 507.6166234887678,1151.0 L 495.4922678357857,1151.0 L 495.4922678357857,1172.0 L 513.6788013152589,1182.5 L 507.6166234887678,1193.0 L 513.6788013152589,1203.5 L 519.7409791417499,1214.0 L 531.8653347947321,1214.0 L 531.8653347947321,1193.0 Z" /><path d="M 531.8653347947321,1151.0 L 550.0518682742054,1161.5 L 556.1140461006964,1151.0 L 568.2384017536785,1151.0 L 568.2384017536785,1130.0 L 550.0518682742054,1119.5 L 556.1140461006964,1109.0 L 550.0518682742054,1098.5 L 531.8653347947321,1109.0 L 531.8653347947321,1130.0 L 519.7409791417499,1130.0 L 513.6788013152589,1140.5 L 507.6166234887678,1151.0 L 513.6788013152589,1161.5 L 531.8653347947321,1151.0 Z" /><path d="M 568.2384017536785,1130.0 L 568.2384017536785,1151.0 L 580.3627574066606,1151.0 L 586.4249352331517,1161.5 L 604.611468712625,1151.0 L 604.611468712625,1130.0 L 616.7358243656071,1130.0 L 622.7980021920982,1119.5 L 604.611468712625,1109.0 L 586.4249352331517,1119.5 L 580.3627574066606,1109.0 L 568.2384017536785,1109.0 L 556.1140461006964,1109.0 L 550.0518682742054,1119.5 L 568.2384017536785,1130.0 Z" /><path d="M 495.4922678357857,1214.0 L 513.6788013152589,1203.5 L 507.6166234887678,1193.0 L 513.6788013152589,1182.5 L 495.4922678357857,1172.0 L 477.3057343563125,1182.5 L 471.2435565298214,1172.0 L 459.1192008768393,1172.0 L 459.1192008768393,1193.0 L 477.3057343563125,1203.5 L 471.2435565298214,1214.0 L 477.3057343563125,1224.5 L 483.36791218280354,1235.0 L 495.4922678357857,1235.0 L 495.4922678357857,1214.0 Z" /><path d="M 713.7306695894642,1172.0 L 731.9172030689374,1161.5 L 725.8550252424463,1151.0 L 731.9172030689374,1140.5 L 713.7306695894642,1130.0 L 695.5441361099911,1140.5 L 689.4819582834999,1130.0 L 677.3576026305178,1130.0 L 677.3576026305178,1151.0 L 695.5441361099911,1161.5 L 689.4819582834999,1172.0 L 695.5441361099911,1182.5 L 701.6063139364821,1193.0 L 713.7306695894642,1193.0 L 713.7306695894642,1172.0 Z" /><path d="M 677.3576026305178,1130.0 L 665.2332469775356,1130.0 L 659.1710691510445,1140.5 L 653.1088913245535,1151.0 L 659.1710691510445,1161.5 L 640.9845356715714,1172.0 L 640.9845356715714,1193.0 L 653.1088913245535,1193.0 L 659.1710691510445,1182.5 L 677.3576026305178,1193.0 L 695.5441361099911,1182.5 L 689.4819582834999,1172.0 L 695.5441361099911,1161.5 L 677.3576026305178,1151.0 L 677.3576026305178,1130.0 Z" /><path d="M 677.3576026305178,1193.0 L 659.1710691510445,1182.5 L 653.1088913245535,1193.0 L 640.9845356715714,1193.0 L 640.9845356715714,1214.0 L 659.1710691510445,1224.5 L 653.1088913245535,1235.0 L 659.1710691510445,1245.5 L 677.3576026305178,1235.0 L 677.3576026305178,1214.0 L 689.4819582834999,1214.0 L 695.5441361099911,1203.5 L 701.6063139364821,1193.0 L 695.5441361099911,1182.5 L 677.3576026305178,1193.0 Z" /><path d="M 640.9845356715714,1214.0 L 640.9845356715714,1193.0 L 628.8601800185893,1193.0 L 622.7980021920982,1182.5 L 604.611468712625,1193.0 L 604.611468712625,1214.0 L 592.4871130596428,1214.0 L 586.4249352331517,1224.5 L 604.611468712625,1235.0 L 622.7980021920982,1224.5 L 628.8601800185893,1235.0 L 640.9845356715714,1235.0 L 653.1088913245535,1235.0 L 659.1710691510445,1224.5 L 640.9845356715714,1214.0 Z" /><path d="M 640.9845356715714,1172.0 L 659.1710691510445,1161.5 L 653.1088913245535,1151.0 L 659.1710691510445,1140.5 L 640.9845356715714,1130.0 L 622.7980021920982,1140.5 L 616.7358243656071,1130.0 L 604.611468712625,1130.0 L 604.611468712625,1151.0 L 622.7980021920982,1161.5 L 616.7358243656071,1172.0 L 622.7980021920982,1182.5 L 628.8601800185893,1193.0 L 640.9845356715714,1193.0 L 640.9845356715714,1172.0 Z" /><path d="M 640.9845356715714,1130.0 L 659.1710691510445,1140.5 L 665.2332469775356,1130.0 L 677.3576026305178,1130.0 L 677.3576026305178,1109.0 L 659.1710691510445,1098.5 L 665.2332469775356,1088.0 L 659.1710691510445,1077.5 L 640.9845356715714,1088.0 L 640.9845356715714,1109.0 L 628.8601800185893,1109.0 L 622.7980021920982,1119.5 L 616.7358243656071,1130.0 L 622.7980021920982,1140.5 L 640.9845356715714,1130.0 Z" /><path d="M 677.3576026305178,1109.0 L 677.3576026305178,1130.0 L 689.4819582834999,1130.0 L 695.5441361099911,1140.5 L 713.7306695894642,1130.0 L 713.7306695894642,1109.0 L 725.8550252424463,1109.0 L 731.9172030689374,1098.5 L 713.7306695894642,1088.0 L 695.5441361099911,1098.5 L 689.4819582834999,1088.0 L 677.3576026305178,1088.0 L 665.2332469775356,1088.0 L 659.1710691510445,1098.5 L 677.3576026305178,1109.0 Z" /><path d="M 604.611468712625,1235.0 L 586.4249352331517,1224.5 L 580.3627574066606,1235.0 L 568.2384017536785,1235.0 L 568.2384017536785,1256.0 L 586.4249352331517,1266.5 L 580.3627574066606,1277.0 L 586.4249352331517,1287.5 L 604.611468712625,1277.0 L 604.611468712625,1256.0 L 616.7358243656071,1256.0 L 622.7980021920982,1245.5 L 628.8601800185893,1235.0 L 622.7980021920982,1224.5 L 604.611468712625,1235.0 Z" /><path d="M 586.4249352331517,1287.5 L 592.4871130596428,1298.0 L 604.611468712625,1298.0 L 616.7358243656071,1298.0 L 622.7980021920982,1287.5 L 640.9845356715714,1298.0 L 659.1710691510445,1287.5 L 653.1088913245535,1277.0 L 640.9845356715714,1277.0 L 640.9845356715714,1256.0 L 622.7980021920982,1245.5 L 616.7358243656071,1256.0 L 604.611468712625,1256.0 L 604.611468712625,1277.0 L 586.4249352331517,1287.5 Z" /><path d="M 640.9845356715714,1256.0 L 640.9845356715714,1277.0 L 653.1088913245535,1277.0 L 659.1710691510445,1287.5 L 677.3576026305178,1277.0 L 677.3576026305178,1256.0 L 689.4819582834999,1256.0 L 695.5441361099911,1245.5 L 677.3576026305178,1235.0 L 659.1710691510445,1245.5 L 653.1088913245535,1235.0 L 640.9845356715714,1235.0 L 628.8601800185893,1235.0 L 622.7980021920982,1245.5 L 640.9845356715714,1256.0 Z" /><path d="M 677.3576026305178,1277.0 L 659.1710691510445,1287.5 L 665.2332469775356,1298.0 L 659.1710691510445,1308.5 L 677.3576026305178,1319.0 L 695.5441361099911,1308.5 L 701.6063139364821,1319.0 L 713.7306695894642,1319.0 L 713.7306695894642,1298.0 L 695.5441361099911,1287.5 L 701.6063139364821,1277.0 L 695.5441361099911,1266.5 L 689.4819582834999,1256.0 L 677.3576026305178,1256.0 L 677.3576026305178,1277.0 Z" /><path d="M 640.9845356715714,1298.0 L 622.7980021920982,1287.5 L 616.7358243656071,1298.0 L 604.611468712625,1298.0 L 604.611468712625,1319.0 L 622.7980021920982,1329.5 L 616.7358243656071,1340.0 L 622.7980021920982,1350.5 L 640.9845356715714,1340.0 L 640.9845356715714,1319.0 L 653.1088913245535,1319.0 L 659.1710691510445,1308.5 L 665.2332469775356,1298.0 L 659.1710691510445,1287.5 L 640.9845356715714,1298.0 Z" /><path d="M 604.611468712625,1319.0 L 604.611468712625,1298.0 L 592.4871130596428,1298.0 L 586.4249352331517,1287.5 L 568.2384017536785,1298.0 L 568.2384017536785,1319.0 L 556.1140461006964,1319.0 L 550.0518682742054,1329.5 L 568.2384017536785,1340.0 L 586.4249352331517,1329.5 L 592.4871130596428,1340.0 L 604.611468712625,1340.0 L 616.7358243656071,1340.0 L 622.7980021920982,1329.5 L 604.611468712625,1319.0 Z" /><path d="M 568.2384017536785,1298.0 L 586.4249352331517,1287.5 L 580.3627574066606,1277.0 L 586.4249352331517,1266.5 L 568.2384017536785,1256.0 L 550.0518682742054,1266.5 L 543.9896904477142,1256.0 L 531.8653347947321,1256.0 L 531.8653347947321,1277.0 L 550.0518682742054,1287.5 L 543.9896904477142,1298.0 L 550.0518682742054,1308.5 L 556.1140461006964,1319.0 L 568.2384017536785,1319.0 L 568.2384017536785,1298.0 Z" /><path d="M 677.3576026305178,1319.0 L 659.1710691510445,1308.5 L 653.1088913245535,1319.0 L 640.9845356715714,1319.0 L 640.9845356715714,1340.0 L 659.1710691510445,1350.5 L 653.1088913245535,1361.0 L 659.1710691510445,1371.5 L 677.3576026305178,1361.0 L 677.3576026305178,1340.0 L 689.4819582834999,1340.0 L 695.5441361099911,1329.5 L 701.6063139364821,1319.0 L 695.5441361099911,1308.5 L 677.3576026305178,1319.0 Z" /><path d="M 531.8653347947321,1277.0 L 531.8653347947321,1256.0 L 519.7409791417499,1256.0 L 513.6788013152589,1245.5 L 495.4922678357857,1256.0 L 495.4922678357857,1277.0 L 483.36791218280354,1277.0 L 477.3057343563125,1287.5 L 495.4922678357857,1298.0 L 513.6788013152589,1287.5 L 519.7409791417499,1298.0 L 531.8653347947321,1298.0 L 543.9896904477142,1298.0 L 550.0518682742054,1287.5 L 531.8653347947321,1277.0 Z" /><path d="M 477.3057343563125,1287.5 L 471.2435565298214,1298.0 L 477.3057343563125,1308.5 L 483.36791218280354,1319.0 L 495.4922678357857,1319.0 L 495.4922678357857,1340.0 L 513.6788013152589,1350.5 L 519.7409791417499,1340.0 L 513.6788013152589,1329.5 L 531.8653347947321,1319.0 L 531.8653347947321,1298.0 L 519.7409791417499,1298.0 L 513.6788013152589,1287.5 L 495.4922678357857,1298.0 L 477.3057343563125,1287.5 Z" /><path d="M 531.8653347947321,1319.0 L 513.6788013152589,1329.5 L 519.7409791417499,1340.0 L 513.6788013152589,1350.5 L 531.8653347947321,1361.0 L 550.0518682742054,1350.5 L 556.1140461006964,1361.0 L 568.2384017536785,1361.0 L 568.2384017536785,1340.0 L 550.0518682742054,1329.5 L 556.1140461006964,1319.0 L 550.0518682742054,1308.5 L 543.9896904477142,1298.0 L 531.8653347947321,1298.0 L 531.8653347947321,1319.0 Z" /><path d="M 531.8653347947321,1361.0 L 513.6788013152589,1350.5 L 507.6166234887678,1361.0 L 495.4922678357857,1361.0 L 495.4922678357857,1382.0 L 513.6788013152589,1392.5 L 507.6166234887678,1403.0 L 513.6788013152589,1413.5 L 531.8653347947321,1403.0 L 531.8653347947321,1382.0 L 543.9896904477142,1382.0 L 550.0518682742054,1371.5 L 556.1140461006964,1361.0 L 550.0518682742054,1350.5 L 531.8653347947321,1361.0 Z" /><path d="M 495.4922678357857,1340.0 L 495.4922678357857,1319.0 L 483.36791218280354,1319.0 L 477.3057343563125,1308.5 L 459.1192008768393,1319.0 L 459.1192008768393,1340.0 L 446.9948452238571,1340.0 L 440.93266739736606,1350.5 L 459.1192008768393,1361.0 L 477.3057343563125,1350.5 L 483.36791218280354,1361.0 L 495.4922678357857,1361.0 L 507.6166234887678,1361.0 L 513.6788013152589,1350.5 L 495.4922678357857,1340.0 Z" /><path d="M 459.1192008768393,1319.0 L 477.3057343563125,1308.5 L 471.2435565298214,1298.0 L 477.3057343563125,1287.5 L 459.1192008768393,1277.0 L 440.93266739736606,1287.5 L 434.87048957087495,1277.0 L 422.74613391789285,1277.0 L 422.74613391789285,1298.0 L 440.93266739736606,1308.5 L 434.87048957087495,1319.0 L 440.93266739736606,1329.5 L 446.9948452238571,1340.0 L 459.1192008768393,1340.0 L 459.1192008768393,1319.0 Z" /><path d="M 459.1192008768393,1277.0 L 477.3057343563125,1287.5 L 483.36791218280354,1277.0 L 495.4922678357857,1277.0 L 495.4922678357857,1256.0 L 477.3057343563125,1245.5 L 483.36791218280354,1235.0 L 477.3057343563125,1224.5 L 459.1192008768393,1235.0 L 459.1192008768393,1256.0 L 446.9948452238571,1256.0 L 440.93266739736606,1266.5 L 434.87048957087495,1277.0 L 440.93266739736606,1287.5 L 459.1192008768393,1277.0 Z" /><path d="M 495.4922678357857,1382.0 L 495.4922678357857,1361.0 L 483.36791218280354,1361.0 L 477.3057343563125,1350.5 L 459.1192008768393,1361.0 L 459.1192008768393,1382.0 L 446.9948452238571,1382.0 L 440.93266739736606,1392.5 L 459.1192008768393,1403.0 L 477.3057343563125,1392.5 L 483.36791218280354,1403.0 L 495.4922678357857,1403.0 L 507.6166234887678,1403.0 L 513.6788013152589,1392.5 L 495.4922678357857,1382.0 Z" /><path d="M 604.611468712625,1109.0 L 622.7980021920982,1119.5 L 628.8601800185893,1109.0 L 640.9845356715714,1109.0 L 640.9845356715714,1088.0 L 622.7980021920982,1077.5 L 628.8601800185893,1067.0 L 622.7980021920982,1056.5 L 604.611468712625,1067.0 L 604.611468712625,1088.0 L 592.4871130596428,1088.0 L 586.4249352331517,1098.5 L 580.3627574066606,1109.0 L 586.4249352331517,1119.5 L 604.611468712625,1109.0 Z" /><path d="M 622.7980021920982,1056.5 L 616.7358243656071,1046.0 L 604.611468712625,1046.0 L 592.4871130596428,1046.0 L 586.4249352331517,1056.5 L 568.2384017536785,1046.0 L 550.0518682742054,1056.5 L 556.1140461006964,1067.0 L 568.2384017536785,1067.0 L 568.2384017536785,1088.0 L 586.4249352331517,1098.5 L 592.4871130596428,1088.0 L 604.611468712625,1088.0 L 604.611468712625,1067.0 L 622.7980021920982,1056.5 Z" /><path d="M 568.2384017536785,1088.0 L 568.2384017536785,1067.0 L 556.1140461006964,1067.0 L 550.0518682742054,1056.5 L 531.8653347947321,1067.0 L 531.8653347947321,1088.0 L 519.7409791417499,1088.0 L 513.6788013152589,1098.5 L 531.8653347947321,1109.0 L 550.0518682742054,1098.5 L 556.1140461006964,1109.0 L 568.2384017536785,1109.0 L 580.3627574066606,1109.0 L 586.4249352331517,1098.5 L 568.2384017536785,1088.0 Z" /><path d="M 531.8653347947321,1067.0 L 550.0518682742054,1056.5 L 543.9896904477142,1046.0 L 550.0518682742054,1035.5 L 531.8653347947321,1025.0 L 513.6788013152589,1035.5 L 507.6166234887678,1025.0 L 495.4922678357857,1025.0 L 495.4922678357857,1046.0 L 513.6788013152589,1056.5 L 507.6166234887678,1067.0 L 513.6788013152589,1077.5 L 519.7409791417499,1088.0 L 531.8653347947321,1088.0 L 531.8653347947321,1067.0 Z" /><path d="M 568.2384017536785,1046.0 L 586.4249352331517,1056.5 L 592.4871130596428,1046.0 L 604.611468712625,1046.0 L 604.611468712625,1025.0 L 586.4249352331517,1014.5 L 592.4871130596428,1004.0 L 586.4249352331517,993.5 L 568.2384017536785,1004.0 L 568.2384017536785,1025.0 L 556.1140461006964,1025.0 L 550.0518682742054,1035.5 L 543.9896904477142,1046.0 L 550.0518682742054,1056.5 L 568.2384017536785,1046.0 Z" /><path d="M 604.611468712625,1025.0 L 604.611468712625,1046.0 L 616.7358243656071,1046.0 L 622.7980021920982,1056.5 L 640.9845356715714,1046.0 L 640.9845356715714,1025.0 L 653.1088913245535,1025.0 L 659.1710691510445,1014.5 L 640.9845356715714,1004.0 L 622.7980021920982,1014.5 L 616.7358243656071,1004.0 L 604.611468712625,1004.0 L 592.4871130596428,1004.0 L 586.4249352331517,1014.5 L 604.611468712625,1025.0 Z" /><path d="M 640.9845356715714,1046.0 L 622.7980021920982,1056.5 L 628.8601800185893,1067.0 L 622.7980021920982,1077.5 L 640.9845356715714,1088.0 L 659.1710691510445,1077.5 L 665.2332469775356,1088.0 L 677.3576026305178,1088.0 L 677.3576026305178,1067.0 L 659.1710691510445,1056.5 L 665.2332469775356,1046.0 L 659.1710691510445,1035.5 L 653.1088913245535,1025.0 L 640.9845356715714,1025.0 L 640.9845356715714,1046.0 Z" /><path d="M 531.8653347947321,1025.0 L 550.0518682742054,1035.5 L 556.1140461006964,1025.0 L 568.2384017536785,1025.0 L 568.2384017536785,1004.0 L 550.0518682742054,993.5 L 556.1140461006964,983.0 L 550.0518682742054,972.5 L 531.8653347947321,983.0 L 531.8653347947321,1004.0 L 519.7409791417499,1004.0 L 513.6788013152589,1014.5 L 507.6166234887678,1025.0 L 513.6788013152589,1035.5 L 531.8653347947321,1025.0 Z" /><path d="M 677.3576026305178,1067.0 L 677.3576026305178,1088.0 L 689.4819582834999,1088.0 L 695.5441361099911,1098.5 L 713.7306695894642,1088.0 L 713.7306695894642,1067.0 L 725.8550252424463,1067.0 L 731.9172030689374,1056.5 L 713.7306695894642,1046.0 L 695.5441361099911,1056.5 L 689.4819582834999,1046.0 L 677.3576026305178,1046.0 L 665.2332469775356,1046.0 L 659.1710691510445,1056.5 L 677.3576026305178,1067.0 Z" /><path d="M 731.9172030689374,1056.5 L 737.9793808954284,1046.0 L 731.9172030689374,1035.5 L 725.8550252424463,1025.0 L 713.7306695894642,1025.0 L 713.7306695894642,1004.0 L 695.5441361099911,993.5 L 689.4819582834999,1004.0 L 695.5441361099911,1014.5 L 677.3576026305178,1025.0 L 677.3576026305178,1046.0 L 689.4819582834999,1046.0 L 695.5441361099911,1056.5 L 713.7306695894642,1046.0 L 731.9172030689374,1056.5 Z" /><path d="M 677.3576026305178,1025.0 L 695.5441361099911,1014.5 L 689.4819582834999,1004.0 L 695.5441361099911,993.5 L 677.3576026305178,983.0 L 659.1710691510445,993.5 L 653.1088913245535,983.0 L 640.9845356715714,983.0 L 640.9845356715714,1004.0 L 659.1710691510445,1014.5 L 653.1088913245535,1025.0 L 659.1710691510445,1035.5 L 665.2332469775356,1046.0 L 677.3576026305178,1046.0 L 677.3576026305178,1025.0 Z" /><path d="M 677.3576026305178,983.0 L 695.5441361099911,993.5 L 701.6063139364821,983.0 L 713.7306695894642,983.0 L 713.7306695894642,962.0 L 695.5441361099911,951.5 L 701.6063139364821,941.0 L 695.5441361099911,930.5 L 677.3576026305178,941.0 L 677.3576026305178,962.0 L 665.2332469775356,962.0 L 659.1710691510445,972.5 L 653.1088913245535,983.0 L 659.1710691510445,993.5 L 677.3576026305178,983.0 Z" /><path d="M 713.7306695894642,1004.0 L 713.7306695894642,1025.0 L 725.8550252424463,1025.0 L 731.9172030689374,1035.5 L 750.1037365484107,1025.0 L 750.1037365484107,1004.0 L 762.2280922013928,1004.0 L 768.2902700278839,993.5 L 750.1037365484107,983.0 L 731.9172030689374,993.5 L 725.8550252424463,983.0 L 713.7306695894642,983.0 L 701.6063139364821,983.0 L 695.5441361099911,993.5 L 713.7306695894642,1004.0 Z" /><path d="M 750.1037365484107,1025.0 L 731.9172030689374,1035.5 L 737.9793808954284,1046.0 L 731.9172030689374,1056.5 L 750.1037365484107,1067.0 L 768.2902700278839,1056.5 L 774.352447854375,1067.0 L 786.4768035073571,1067.0 L 786.4768035073571,1046.0 L 768.2902700278839,1035.5 L 774.352447854375,1025.0 L 768.2902700278839,1014.5 L 762.2280922013928,1004.0 L 750.1037365484107,1004.0 L 750.1037365484107,1025.0 Z" /><path d="M 750.1037365484107,1067.0 L 731.9172030689374,1056.5 L 725.8550252424463,1067.0 L 713.7306695894642,1067.0 L 713.7306695894642,1088.0 L 731.9172030689374,1098.5 L 725.8550252424463,1109.0 L 731.9172030689374,1119.5 L 750.1037365484107,1109.0 L 750.1037365484107,1088.0 L 762.2280922013928,1088.0 L 768.2902700278839,1077.5 L 774.352447854375,1067.0 L 768.2902700278839,1056.5 L 750.1037365484107,1067.0 Z" /><path d="M 713.7306695894642,962.0 L 713.7306695894642,983.0 L 725.8550252424463,983.0 L 731.9172030689374,993.5 L 750.1037365484107,983.0 L 750.1037365484107,962.0 L 762.2280922013928,962.0 L 768.2902700278839,951.5 L 750.1037365484107,941.0 L 731.9172030689374,951.5 L 725.8550252424463,941.0 L 713.7306695894642,941.0 L 701.6063139364821,941.0 L 695.5441361099911,951.5 L 713.7306695894642,962.0 Z" /><path d="M 531.8653347947321,1487.0 L 513.6788013152589,1476.5 L 507.6166234887678,1487.0 L 495.4922678357857,1487.0 L 495.4922678357857,1508.0 L 513.6788013152589,1518.5 L 507.6166234887678,1529.0 L 513.6788013152589,1539.5 L 531.8653347947321,1529.0 L 531.8653347947321,1508.0 L 543.9896904477142,1508.0 L 550.0518682742054,1497.5 L 556.1140461006964,1487.0 L 550.0518682742054,1476.5 L 531.8653347947321,1487.0 Z" /><path d="M 513.6788013152589,1539.5 L 519.7409791417499,1550.0 L 531.8653347947321,1550.0 L 543.9896904477142,1550.0 L 550.0518682742054,1539.5 L 568.2384017536785,1550.0 L 586.4249352331517,1539.5 L 580.3627574066606,1529.0 L 568.2384017536785,1529.0 L 568.2384017536785,1508.0 L 550.0518682742054,1497.5 L 543.9896904477142,1508.0 L 531.8653347947321,1508.0 L 531.8653347947321,1529.0 L 513.6788013152589,1539.5 Z" /><path d="M 568.2384017536785,1508.0 L 568.2384017536785,1529.0 L 580.3627574066606,1529.0 L 586.4249352331517,1539.5 L 604.611468712625,1529.0 L 604.611468712625,1508.0 L 616.7358243656071,1508.0 L 622.7980021920982,1497.5 L 604.611468712625,1487.0 L 586.4249352331517,1497.5 L 580.3627574066606,1487.0 L 568.2384017536785,1487.0 L 556.1140461006964,1487.0 L 550.0518682742054,1497.5 L 568.2384017536785,1508.0 Z" /><path d="M 604.611468712625,1529.0 L 586.4249352331517,1539.5 L 592.4871130596428,1550.0 L 586.4249352331517,1560.5 L 604.611468712625,1571.0 L 622.7980021920982,1560.5 L 628.8601800185893,1571.0 L 640.9845356715714,1571.0 L 640.9845356715714,1550.0 L 622.7980021920982,1539.5 L 628.8601800185893,1529.0 L 622.7980021920982,1518.5 L 616.7358243656071,1508.0 L 604.611468712625,1508.0 L 604.611468712625,1529.0 Z" /><path d="M 568.2384017536785,1550.0 L 550.0518682742054,1539.5 L 543.9896904477142,1550.0 L 531.8653347947321,1550.0 L 531.8653347947321,1571.0 L 550.0518682742054,1581.5 L 543.9896904477142,1592.0 L 550.0518682742054,1602.5 L 568.2384017536785,1592.0 L 568.2384017536785,1571.0 L 580.3627574066606,1571.0 L 586.4249352331517,1560.5 L 592.4871130596428,1550.0 L 586.4249352331517,1539.5 L 568.2384017536785,1550.0 Z" /><path d="M 531.8653347947321,1571.0 L 531.8653347947321,1550.0 L 519.7409791417499,1550.0 L 513.6788013152589,1539.5 L 495.4922678357857,1550.0 L 495.4922678357857,1571.0 L 483.36791218280354,1571.0 L 477.3057343563125,1581.5 L 495.4922678357857,1592.0 L 513.6788013152589,1581.5 L 519.7409791417499,1592.0 L 531.8653347947321,1592.0 L 543.9896904477142,1592.0 L 550.0518682742054,1581.5 L 531.8653347947321,1571.0 Z" /><path d="M 495.4922678357857,1550.0 L 513.6788013152589,1539.5 L 507.6166234887678,1529.0 L 513.6788013152589,1518.5 L 495.4922678357857,1508.0 L 477.3057343563125,1518.5 L 471.2435565298214,1508.0 L 459.1192008768393,1508.0 L 459.1192008768393,1529.0 L 477.3057343563125,1539.5 L 471.2435565298214,1550.0 L 477.3057343563125,1560.5 L 483.36791218280354,1571.0 L 495.4922678357857,1571.0 L 495.4922678357857,1550.0 Z" /><path d="M 604.611468712625,1571.0 L 586.4249352331517,1560.5 L 580.3627574066606,1571.0 L 568.2384017536785,1571.0 L 568.2384017536785,1592.0 L 586.4249352331517,1602.5 L 580.3627574066606,1613.0 L 586.4249352331517,1623.5 L 604.611468712625,1613.0 L 604.611468712625,1592.0 L 616.7358243656071,1592.0 L 622.7980021920982,1581.5 L 628.8601800185893,1571.0 L 622.7980021920982,1560.5 L 604.611468712625,1571.0 Z" /><path d="M 459.1192008768393,1403.0 L 440.93266739736606,1392.5 L 434.87048957087495,1403.0 L 422.74613391789285,1403.0 L 422.74613391789285,1424.0 L 440.93266739736606,1434.5 L 434.87048957087495,1445.0 L 440.93266739736606,1455.5 L 459.1192008768393,1445.0 L 459.1192008768393,1424.0 L 471.2435565298214,1424.0 L 477.3057343563125,1413.5 L 483.36791218280354,1403.0 L 477.3057343563125,1392.5 L 459.1192008768393,1403.0 Z" /><path d="M 440.93266739736606,1455.5 L 446.9948452238571,1466.0 L 459.1192008768393,1466.0 L 471.2435565298214,1466.0 L 477.3057343563125,1455.5 L 495.4922678357857,1466.0 L 513.6788013152589,1455.5 L 507.6166234887678,1445.0 L 495.4922678357857,1445.0 L 495.4922678357857,1424.0 L 477.3057343563125,1413.5 L 471.2435565298214,1424.0 L 459.1192008768393,1424.0 L 459.1192008768393,1445.0 L 440.93266739736606,1455.5 Z" /><path d="M 495.4922678357857,1424.0 L 495.4922678357857,1445.0 L 507.6166234887678,1445.0 L 513.6788013152589,1455.5 L 531.8653347947321,1445.0 L 531.8653347947321,1424.0 L 543.9896904477142,1424.0 L 550.0518682742054,1413.5 L 531.8653347947321,1403.0 L 513.6788013152589,1413.5 L 507.6166234887678,1403.0 L 495.4922678357857,1403.0 L 483.36791218280354,1403.0 L 477.3057343563125,1413.5 L 495.4922678357857,1424.0 Z" /><path d="M 531.8653347947321,1445.0 L 513.6788013152589,1455.5 L 519.7409791417499,1466.0 L 513.6788013152589,1476.5 L 531.8653347947321,1487.0 L 550.0518682742054,1476.5 L 556.1140461006964,1487.0 L 568.2384017536785,1487.0 L 568.2384017536785,1466.0 L 550.0518682742054,1455.5 L 556.1140461006964,1445.0 L 550.0518682742054,1434.5 L 543.9896904477142,1424.0 L 531.8653347947321,1424.0 L 531.8653347947321,1445.0 Z" /><path d="M 495.4922678357857,1466.0 L 477.3057343563125,1455.5 L 471.2435565298214,1466.0 L 459.1192008768393,1466.0 L 459.1192008768393,1487.0 L 477.3057343563125,1497.5 L 471.2435565298214,1508.0 L 477.3057343563125,1518.5 L 495.4922678357857,1508.0 L 495.4922678357857,1487.0 L 507.6166234887678,1487.0 L 513.6788013152589,1476.5 L 519.7409791417499,1466.0 L 513.6788013152589,1455.5 L 495.4922678357857,1466.0 Z" /><path d="M 459.1192008768393,1487.0 L 459.1192008768393,1466.0 L 446.9948452238571,1466.0 L 440.93266739736606,1455.5 L 422.74613391789285,1466.0 L 422.74613391789285,1487.0 L 410.6217782649107,1487.0 L 404.55960043841964,1497.5 L 422.74613391789285,1508.0 L 440.93266739736606,1497.5 L 446.9948452238571,1508.0 L 459.1192008768393,1508.0 L 471.2435565298214,1508.0 L 477.3057343563125,1497.5 L 459.1192008768393,1487.0 Z" /><path d="M 422.74613391789285,1466.0 L 440.93266739736606,1455.5 L 434.87048957087495,1445.0 L 440.93266739736606,1434.5 L 422.74613391789285,1424.0 L 404.55960043841964,1434.5 L 398.4974226119286,1424.0 L 386.3730669589464,1424.0 L 386.3730669589464,1445.0 L 404.55960043841964,1455.5 L 398.4974226119286,1466.0 L 404.55960043841964,1476.5 L 410.6217782649107,1487.0 L 422.74613391789285,1487.0 L 422.74613391789285,1466.0 Z" /><path d="M 568.2384017536785,1466.0 L 568.2384017536785,1487.0 L 580.3627574066606,1487.0 L 586.4249352331517,1497.5 L 604.611468712625,1487.0 L 604.611468712625,1466.0 L 616.7358243656071,1466.0 L 622.7980021920982,1455.5 L 604.611468712625,1445.0 L 586.4249352331517,1455.5 L 580.3627574066606,1445.0 L 568.2384017536785,1445.0 L 556.1140461006964,1445.0 L 550.0518682742054,1455.5 L 568.2384017536785,1466.0 Z" /><path d="M 622.7980021920982,1455.5 L 628.8601800185893,1445.0 L 622.7980021920982,1434.5 L 616.7358243656071,1424.0 L 604.611468712625,1424.0 L 604.611468712625,1403.0 L 586.4249352331517,1392.5 L 580.3627574066606,1403.0 L 586.4249352331517,1413.5 L 568.2384017536785,1424.0 L 568.2384017536785,1445.0 L 580.3627574066606,1445.0 L 586.4249352331517,1455.5 L 604.611468712625,1445.0 L 622.7980021920982,1455.5 Z" /><path d="M 568.2384017536785,1424.0 L 586.4249352331517,1413.5 L 580.3627574066606,1403.0 L 586.4249352331517,1392.5 L 568.2384017536785,1382.0 L 550.0518682742054,1392.5 L 543.9896904477142,1382.0 L 531.8653347947321,1382.0 L 531.8653347947321,1403.0 L 550.0518682742054,1413.5 L 543.9896904477142,1424.0 L 550.0518682742054,1434.5 L 556.1140461006964,1445.0 L 568.2384017536785,1445.0 L 568.2384017536785,1424.0 Z" /><path d="M 568.2384017536785,1382.0 L 586.4249352331517,1392.5 L 592.4871130596428,1382.0 L 604.611468712625,1382.0 L 604.611468712625,1361.0 L 586.4249352331517,1350.5 L 592.4871130596428,1340.0 L 586.4249352331517,1329.5 L 568.2384017536785,1340.0 L 568.2384017536785,1361.0 L 556.1140461006964,1361.0 L 550.0518682742054,1371.5 L 543.9896904477142,1382.0 L 550.0518682742054,1392.5 L 568.2384017536785,1382.0 Z" /><path d="M 604.611468712625,1403.0 L 604.611468712625,1424.0 L 616.7358243656071,1424.0 L 622.7980021920982,1434.5 L 640.9845356715714,1424.0 L 640.9845356715714,1403.0 L 653.1088913245535,1403.0 L 659.1710691510445,1392.5 L 640.9845356715714,1382.0 L 622.7980021920982,1392.5 L 616.7358243656071,1382.0 L 604.611468712625,1382.0 L 592.4871130596428,1382.0 L 586.4249352331517,1392.5 L 604.611468712625,1403.0 Z" /><path d="M 640.9845356715714,1424.0 L 622.7980021920982,1434.5 L 628.8601800185893,1445.0 L 622.7980021920982,1455.5 L 640.9845356715714,1466.0 L 659.1710691510445,1455.5 L 665.2332469775356,1466.0 L 677.3576026305178,1466.0 L 677.3576026305178,1445.0 L 659.1710691510445,1434.5 L 665.2332469775356,1424.0 L 659.1710691510445,1413.5 L 653.1088913245535,1403.0 L 640.9845356715714,1403.0 L 640.9845356715714,1424.0 Z" /><path d="M 640.9845356715714,1466.0 L 622.7980021920982,1455.5 L 616.7358243656071,1466.0 L 604.611468712625,1466.0 L 604.611468712625,1487.0 L 622.7980021920982,1497.5 L 616.7358243656071,1508.0 L 622.7980021920982,1518.5 L 640.9845356715714,1508.0 L 640.9845356715714,1487.0 L 653.1088913245535,1487.0 L 659.1710691510445,1476.5 L 665.2332469775356,1466.0 L 659.1710691510445,1455.5 L 640.9845356715714,1466.0 Z" /><path d="M 604.611468712625,1361.0 L 604.611468712625,1382.0 L 616.7358243656071,1382.0 L 622.7980021920982,1392.5 L 640.9845356715714,1382.0 L 640.9845356715714,1361.0 L 653.1088913245535,1361.0 L 659.1710691510445,1350.5 L 640.9845356715714,1340.0 L 622.7980021920982,1350.5 L 616.7358243656071,1340.0 L 604.611468712625,1340.0 L 592.4871130596428,1340.0 L 586.4249352331517,1350.5 L 604.611468712625,1361.0 Z" /><path d="M 640.9845356715714,1508.0 L 622.7980021920982,1518.5 L 628.8601800185893,1529.0 L 622.7980021920982,1539.5 L 640.9845356715714,1550.0 L 659.1710691510445,1539.5 L 665.2332469775356,1550.0 L 677.3576026305178,1550.0 L 677.3576026305178,1529.0 L 659.1710691510445,1518.5 L 665.2332469775356,1508.0 L 659.1710691510445,1497.5 L 653.1088913245535,1487.0 L 640.9845356715714,1487.0 L 640.9845356715714,1508.0 Z" /><path d="M 677.3576026305178,1550.0 L 689.4819582834999,1550.0 L 695.5441361099911,1539.5 L 701.6063139364821,1529.0 L 695.5441361099911,1518.5 L 713.7306695894642,1508.0 L 713.7306695894642,1487.0 L 701.6063139364821,1487.0 L 695.5441361099911,1497.5 L 677.3576026305178,1487.0 L 659.1710691510445,1497.5 L 665.2332469775356,1508.0 L 659.1710691510445,1518.5 L 677.3576026305178,1529.0 L 677.3576026305178,1550.0 Z" /><path d="M 677.3576026305178,1487.0 L 695.5441361099911,1497.5 L 701.6063139364821,1487.0 L 713.7306695894642,1487.0 L 713.7306695894642,1466.0 L 695.5441361099911,1455.5 L 701.6063139364821,1445.0 L 695.5441361099911,1434.5 L 677.3576026305178,1445.0 L 677.3576026305178,1466.0 L 665.2332469775356,1466.0 L 659.1710691510445,1476.5 L 653.1088913245535,1487.0 L 659.1710691510445,1497.5 L 677.3576026305178,1487.0 Z" /><path d="M 713.7306695894642,1466.0 L 713.7306695894642,1487.0 L 725.8550252424463,1487.0 L 731.9172030689374,1497.5 L 750.1037365484107,1487.0 L 750.1037365484107,1466.0 L 762.2280922013928,1466.0 L 768.2902700278839,1455.5 L 750.1037365484107,1445.0 L 731.9172030689374,1455.5 L 725.8550252424463,1445.0 L 713.7306695894642,1445.0 L 701.6063139364821,1445.0 L 695.5441361099911,1455.5 L 713.7306695894642,1466.0 Z" /><path d="M 713.7306695894642,1508.0 L 695.5441361099911,1518.5 L 701.6063139364821,1529.0 L 695.5441361099911,1539.5 L 713.7306695894642,1550.0 L 731.9172030689374,1539.5 L 737.9793808954284,1550.0 L 750.1037365484107,1550.0 L 750.1037365484107,1529.0 L 731.9172030689374,1518.5 L 737.9793808954284,1508.0 L 731.9172030689374,1497.5 L 725.8550252424463,1487.0 L 713.7306695894642,1487.0 L 713.7306695894642,1508.0 Z" /><path d="M 713.7306695894642,1550.0 L 695.5441361099911,1539.5 L 689.4819582834999,1550.0 L 677.3576026305178,1550.0 L 677.3576026305178,1571.0 L 695.5441361099911,1581.5 L 689.4819582834999,1592.0 L 695.5441361099911,1602.5 L 713.7306695894642,1592.0 L 713.7306695894642,1571.0 L 725.8550252424463,1571.0 L 731.9172030689374,1560.5 L 737.9793808954284,1550.0 L 731.9172030689374,1539.5 L 713.7306695894642,1550.0 Z" /><path d="M 677.3576026305178,1571.0 L 677.3576026305178,1550.0 L 665.2332469775356,1550.0 L 659.1710691510445,1539.5 L 640.9845356715714,1550.0 L 640.9845356715714,1571.0 L 628.8601800185893,1571.0 L 622.7980021920982,1581.5 L 640.9845356715714,1592.0 L 659.1710691510445,1581.5 L 665.2332469775356,1592.0 L 677.3576026305178,1592.0 L 689.4819582834999,1592.0 L 695.5441361099911,1581.5 L 677.3576026305178,1571.0 Z" /><path d="M 750.1037365484107,1487.0 L 731.9172030689374,1497.5 L 737.9793808954284,1508.0 L 731.9172030689374,1518.5 L 750.1037365484107,1529.0 L 768.2902700278839,1518.5 L 774.352447854375,1529.0 L 786.4768035073571,1529.0 L 786.4768035073571,1508.0 L 768.2902700278839,1497.5 L 774.352447854375,1487.0 L 768.2902700278839,1476.5 L 762.2280922013928,1466.0 L 750.1037365484107,1466.0 L 750.1037365484107,1487.0 Z" /><path d="M 640.9845356715714,1592.0 L 622.7980021920982,1581.5 L 616.7358243656071,1592.0 L 604.611468712625,1592.0 L 604.611468712625,1613.0 L 622.7980021920982,1623.5 L 616.7358243656071,1634.0 L 622.7980021920982,1644.5 L 640.9845356715714,1634.0 L 640.9845356715714,1613.0 L 653.1088913245535,1613.0 L 659.1710691510445,1602.5 L 665.2332469775356,1592.0 L 659.1710691510445,1581.5 L 640.9845356715714,1592.0 Z" /><path d="M 622.7980021920982,1644.5 L 628.8601800185893,1655.0 L 640.9845356715714,1655.0 L 653.1088913245535,1655.0 L 659.1710691510445,1644.5 L 677.3576026305178,1655.0 L 695.5441361099911,1644.5 L 689.4819582834999,1634.0 L 677.3576026305178,1634.0 L 677.3576026305178,1613.0 L 659.1710691510445,1602.5 L 653.1088913245535,1613.0 L 640.9845356715714,1613.0 L 640.9845356715714,1634.0 L 622.7980021920982,1644.5 Z" /><path d="M 677.3576026305178,1613.0 L 677.3576026305178,1634.0 L 689.4819582834999,1634.0 L 695.5441361099911,1644.5 L 713.7306695894642,1634.0 L 713.7306695894642,1613.0 L 725.8550252424463,1613.0 L 731.9172030689374,1602.5 L 713.7306695894642,1592.0 L 695.5441361099911,1602.5 L 689.4819582834999,1592.0 L 677.3576026305178,1592.0 L 665.2332469775356,1592.0 L 659.1710691510445,1602.5 L 677.3576026305178,1613.0 Z" /><path d="M 713.7306695894642,1634.0 L 695.5441361099911,1644.5 L 701.6063139364821,1655.0 L 695.5441361099911,1665.5 L 713.7306695894642,1676.0 L 731.9172030689374,1665.5 L 737.9793808954284,1676.0 L 750.1037365484107,1676.0 L 750.1037365484107,1655.0 L 731.9172030689374,1644.5 L 737.9793808954284,1634.0 L 731.9172030689374,1623.5 L 725.8550252424463,1613.0 L 713.7306695894642,1613.0 L 713.7306695894642,1634.0 Z" /><path d="M 677.3576026305178,1655.0 L 659.1710691510445,1644.5 L 653.1088913245535,1655.0 L 640.9845356715714,1655.0 L 640.9845356715714,1676.0 L 659.1710691510445,1686.5 L 653.1088913245535,1697.0 L 659.1710691510445,1707.5 L 677.3576026305178,1697.0 L 677.3576026305178,1676.0 L 689.4819582834999,1676.0 L 695.5441361099911,1665.5 L 701.6063139364821,1655.0 L 695.5441361099911,1644.5 L 677.3576026305178,1655.0 Z" /><path d="M 640.9845356715714,1676.0 L 640.9845356715714,1655.0 L 628.8601800185893,1655.0 L 622.7980021920982,1644.5 L 604.611468712625,1655.0 L 604.611468712625,1676.0 L 592.4871130596428,1676.0 L 586.4249352331517,1686.5 L 604.611468712625,1697.0 L 622.7980021920982,1686.5 L 628.8601800185893,1697.0 L 640.9845356715714,1697.0 L 653.1088913245535,1697.0 L 659.1710691510445,1686.5 L 640.9845356715714,1676.0 Z" /><path d="M 604.611468712625,1655.0 L 622.7980021920982,1644.5 L 616.7358243656071,1634.0 L 622.7980021920982,1623.5 L 604.611468712625,1613.0 L 586.4249352331517,1623.5 L 580.3627574066606,1613.0 L 568.2384017536785,1613.0 L 568.2384017536785,1634.0 L 586.4249352331517,1644.5 L 580.3627574066606,1655.0 L 586.4249352331517,1665.5 L 592.4871130596428,1676.0 L 604.611468712625,1676.0 L 604.611468712625,1655.0 Z" /><path d="M 713.7306695894642,1676.0 L 695.5441361099911,1665.5 L 689.4819582834999,1676.0 L 677.3576026305178,1676.0 L 677.3576026305178,1697.0 L 695.5441361099911,1707.5 L 689.4819582834999,1718.0 L 695.5441361099911,1728.5 L 713.7306695894642,1718.0 L 713.7306695894642,1697.0 L 725.8550252424463,1697.0 L 731.9172030689374,1686.5 L 737.9793808954284,1676.0 L 731.9172030689374,1665.5 L 713.7306695894642,1676.0 Z" /><path d="M 459.1192008768393,1529.0 L 459.1192008768393,1508.0 L 446.9948452238571,1508.0 L 440.93266739736606,1497.5 L 422.74613391789285,1508.0 L 422.74613391789285,1529.0 L 410.6217782649107,1529.0 L 404.55960043841964,1539.5 L 422.74613391789285,1550.0 L 440.93266739736606,1539.5 L 446.9948452238571,1550.0 L 459.1192008768393,1550.0 L 471.2435565298214,1550.0 L 477.3057343563125,1539.5 L 459.1192008768393,1529.0 Z" /><path d="M 404.55960043841964,1539.5 L 398.4974226119286,1550.0 L 404.55960043841964,1560.5 L 410.6217782649107,1571.0 L 422.74613391789285,1571.0 L 422.74613391789285,1592.0 L 440.93266739736606,1602.5 L 446.9948452238571,1592.0 L 440.93266739736606,1581.5 L 459.1192008768393,1571.0 L 459.1192008768393,1550.0 L 446.9948452238571,1550.0 L 440.93266739736606,1539.5 L 422.74613391789285,1550.0 L 404.55960043841964,1539.5 Z" /><path d="M 459.1192008768393,1571.0 L 440.93266739736606,1581.5 L 446.9948452238571,1592.0 L 440.93266739736606,1602.5 L 459.1192008768393,1613.0 L 477.3057343563125,1602.5 L 483.36791218280354,1613.0 L 495.4922678357857,1613.0 L 495.4922678357857,1592.0 L 477.3057343563125,1581.5 L 483.36791218280354,1571.0 L 477.3057343563125,1560.5 L 471.2435565298214,1550.0 L 459.1192008768393,1550.0 L 459.1192008768393,1571.0 Z" /><path d="M 459.1192008768393,1613.0 L 440.93266739736606,1602.5 L 434.87048957087495,1613.0 L 422.74613391789285,1613.0 L 422.74613391789285,1634.0 L 440.93266739736606,1644.5 L 434.87048957087495,1655.0 L 440.93266739736606,1665.5 L 459.1192008768393,1655.0 L 459.1192008768393,1634.0 L 471.2435565298214,1634.0 L 477.3057343563125,1623.5 L 483.36791218280354,1613.0 L 477.3057343563125,1602.5 L 459.1192008768393,1613.0 Z" /><path d="M 422.74613391789285,1592.0 L 422.74613391789285,1571.0 L 410.6217782649107,1571.0 L 404.55960043841964,1560.5 L 386.3730669589464,1571.0 L 386.3730669589464,1592.0 L 374.24871130596426,1592.0 L 368.1865334794732,1602.5 L 386.3730669589464,1613.0 L 404.55960043841964,1602.5 L 410.6217782649107,1613.0 L 422.74613391789285,1613.0 L 434.87048957087495,1613.0 L 440.93266739736606,1602.5 L 422.74613391789285,1592.0 Z" /><path d="M 386.3730669589464,1571.0 L 404.55960043841964,1560.5 L 398.4974226119286,1550.0 L 404.55960043841964,1539.5 L 386.3730669589464,1529.0 L 368.1865334794732,1539.5 L 362.12435565298216,1529.0 L 350.0,1529.0 L 350.0,1550.0 L 368.1865334794732,1560.5 L 362.12435565298216,1571.0 L 368.1865334794732,1581.5 L 374.24871130596426,1592.0 L 386.3730669589464,1592.0 L 386.3730669589464,1571.0 Z" /><path d="M 386.3730669589464,1529.0 L 404.55960043841964,1539.5 L 410.6217782649107,1529.0 L 422.74613391789285,1529.0 L 422.74613391789285,1508.0 L 404.55960043841964,1497.5 L 410.6217782649107,1487.0 L 404.55960043841964,1476.5 L 386.3730669589464,1487.0 L 386.3730669589464,1508.0 L 374.24871130596426,1508.0 L 368.1865334794732,1518.5 L 362.12435565298216,1529.0 L 368.1865334794732,1539.5 L 386.3730669589464,1529.0 Z" /><path d="M 422.74613391789285,1634.0 L 422.74613391789285,1613.0 L 410.6217782649107,1613.0 L 404.55960043841964,1602.5 L 386.3730669589464,1613.0 L 386.3730669589464,1634.0 L 374.24871130596426,1634.0 L 368.1865334794732,1644.5 L 386.3730669589464,1655.0 L 404.55960043841964,1644.5 L 410.6217782649107,1655.0 L 422.74613391789285,1655.0 L 434.87048957087495,1655.0 L 440.93266739736606,1644.5 L 422.74613391789285,1634.0 Z" /><path d="M 386.3730669589464,1487.0 L 404.55960043841964,1476.5 L 398.4974226119286,1466.0 L 404.55960043841964,1455.5 L 386.3730669589464,1445.0 L 368.1865334794732,1455.5 L 362.12435565298216,1445.0 L 350.0,1445.0 L 350.0,1466.0 L 368.1865334794732,1476.5 L 362.12435565298216,1487.0 L 368.1865334794732,1497.5 L 374.24871130596426,1508.0 L 386.3730669589464,1508.0 L 386.3730669589464,1487.0 Z" /><path d="M 350.0,1445.0 L 337.87564434701784,1445.0 L 331.8134665205268,1455.5 L 325.75128869403574,1466.0 L 331.8134665205268,1476.5 L 313.6269330410536,1487.0 L 313.6269330410536,1508.0 L 325.75128869403574,1508.0 L 331.8134665205268,1497.5 L 350.0,1508.0 L 368.1865334794732,1497.5 L 362.12435565298216,1487.0 L 368.1865334794732,1476.5 L 350.0,1466.0 L 350.0,1445.0 Z" /><path d="M 350.0,1508.0 L 331.8134665205268,1497.5 L 325.75128869403574,1508.0 L 313.6269330410536,1508.0 L 313.6269330410536,1529.0 L 331.8134665205268,1539.5 L 325.75128869403574,1550.0 L 331.8134665205268,1560.5 L 350.0,1550.0 L 350.0,1529.0 L 362.12435565298216,1529.0 L 368.1865334794732,1518.5 L 374.24871130596426,1508.0 L 368.1865334794732,1497.5 L 350.0,1508.0 Z" /><path d="M 350.0,1424.0 L 350.0,1445.0 L 362.12435565298216,1445.0 L 368.1865334794732,1455.5 L 386.3730669589464,1445.0 L 386.3730669589464,1424.0 L 398.4974226119286,1424.0 L 404.55960043841964,1413.5 L 386.3730669589464,1403.0 L 368.1865334794732,1413.5 L 362.12435565298216,1403.0 L 350.0,1403.0 L 337.87564434701784,1403.0 L 331.8134665205268,1413.5 L 350.0,1424.0 Z" /><path d="M 313.6269330410536,1571.0 L 313.6269330410536,1592.0 L 325.75128869403574,1592.0 L 331.8134665205268,1602.5 L 350.0,1592.0 L 350.0,1571.0 L 362.12435565298216,1571.0 L 368.1865334794732,1560.5 L 350.0,1550.0 L 331.8134665205268,1560.5 L 325.75128869403574,1550.0 L 313.6269330410536,1550.0 L 301.5025773880714,1550.0 L 295.44039956158036,1560.5 L 313.6269330410536,1571.0 Z" /><path d="M 350.0,1592.0 L 331.8134665205268,1602.5 L 337.87564434701784,1613.0 L 331.8134665205268,1623.5 L 350.0,1634.0 L 368.1865334794732,1623.5 L 374.24871130596426,1634.0 L 386.3730669589464,1634.0 L 386.3730669589464,1613.0 L 368.1865334794732,1602.5 L 374.24871130596426,1592.0 L 368.1865334794732,1581.5 L 362.12435565298216,1571.0 L 350.0,1571.0 L 350.0,1592.0 Z" /><path d="M 422.74613391789285,920.0 L 440.93266739736606,930.5 L 446.9948452238571,920.0 L 459.1192008768393,920.0 L 459.1192008768393,899.0 L 440.93266739736606,888.5 L 446.9948452238571,878.0 L 440.93266739736606,867.5 L 422.74613391789285,878.0 L 422.74613391789285,899.0 L 410.6217782649107,899.0 L 404.55960043841964,909.5 L 398.4974226119286,920.0 L 404.55960043841964,930.5 L 422.74613391789285,920.0 Z" /><path d="M 440.93266739736606,867.5 L 434.87048957087495,857.0 L 422.74613391789285,857.0 L 410.6217782649107,857.0 L 404.55960043841964,867.5 L 386.3730669589464,857.0 L 368.1865334794732,867.5 L 374.24871130596426,878.0 L 386.3730669589464,878.0 L 386.3730669589464,899.0 L 404.55960043841964,909.5 L 410.6217782649107,899.0 L 422.74613391789285,899.0 L 422.74613391789285,878.0 L 440.93266739736606,867.5 Z" /><path d="M 386.3730669589464,899.0 L 386.3730669589464,878.0 L 374.24871130596426,878.0 L 368.1865334794732,867.5 L 350.0,878.0 L 350.0,899.0 L 337.87564434701784,899.0 L 331.8134665205268,909.5 L 350.0,920.0 L 368.1865334794732,909.5 L 374.24871130596426,920.0 L 386.3730669589464,920.0 L 398.4974226119286,920.0 L 404.55960043841964,909.5 L 386.3730669589464,899.0 Z" /><path d="M 350.0,878.0 L 368.1865334794732,867.5 L 362.12435565298216,857.0 L 368.1865334794732,846.5 L 350.0,836.0 L 331.8134665205268,846.5 L 325.75128869403574,836.0 L 313.6269330410536,836.0 L 313.6269330410536,857.0 L 331.8134665205268,867.5 L 325.75128869403574,878.0 L 331.8134665205268,888.5 L 337.87564434701784,899.0 L 350.0,899.0 L 350.0,878.0 Z" /><path d="M 386.3730669589464,857.0 L 404.55960043841964,867.5 L 410.6217782649107,857.0 L 422.74613391789285,857.0 L 422.74613391789285,836.0 L 404.55960043841964,825.5 L 410.6217782649107,815.0 L 404.55960043841964,804.5 L 386.3730669589464,815.0 L 386.3730669589464,836.0 L 374.24871130596426,836.0 L 368.1865334794732,846.5 L 362.12435565298216,857.0 L 368.1865334794732,867.5 L 386.3730669589464,857.0 Z" /><path d="M 422.74613391789285,836.0 L 422.74613391789285,857.0 L 434.87048957087495,857.0 L 440.93266739736606,867.5 L 459.1192008768393,857.0 L 459.1192008768393,836.0 L 471.2435565298214,836.0 L 477.3057343563125,825.5 L 459.1192008768393,815.0 L 440.93266739736606,825.5 L 434.87048957087495,815.0 L 422.74613391789285,815.0 L 410.6217782649107,815.0 L 404.55960043841964,825.5 L 422.74613391789285,836.0 Z" /><path d="M 459.1192008768393,857.0 L 440.93266739736606,867.5 L 446.9948452238571,878.0 L 440.93266739736606,888.5 L 459.1192008768393,899.0 L 477.3057343563125,888.5 L 483.36791218280354,899.0 L 495.4922678357857,899.0 L 495.4922678357857,878.0 L 477.3057343563125,867.5 L 483.36791218280354,857.0 L 477.3057343563125,846.5 L 471.2435565298214,836.0 L 459.1192008768393,836.0 L 459.1192008768393,857.0 Z" /><path d="M 350.0,836.0 L 368.1865334794732,846.5 L 374.24871130596426,836.0 L 386.3730669589464,836.0 L 386.3730669589464,815.0 L 368.1865334794732,804.5 L 374.24871130596426,794.0 L 368.1865334794732,783.5 L 350.0,794.0 L 350.0,815.0 L 337.87564434701784,815.0 L 331.8134665205268,825.5 L 325.75128869403574,836.0 L 331.8134665205268,846.5 L 350.0,836.0 Z" /><path d="M 495.4922678357857,1004.0 L 513.6788013152589,1014.5 L 519.7409791417499,1004.0 L 531.8653347947321,1004.0 L 531.8653347947321,983.0 L 513.6788013152589,972.5 L 519.7409791417499,962.0 L 513.6788013152589,951.5 L 495.4922678357857,962.0 L 495.4922678357857,983.0 L 483.36791218280354,983.0 L 477.3057343563125,993.5 L 471.2435565298214,1004.0 L 477.3057343563125,1014.5 L 495.4922678357857,1004.0 Z" /><path d="M 513.6788013152589,951.5 L 507.6166234887678,941.0 L 495.4922678357857,941.0 L 483.36791218280354,941.0 L 477.3057343563125,951.5 L 459.1192008768393,941.0 L 440.93266739736606,951.5 L 446.9948452238571,962.0 L 459.1192008768393,962.0 L 459.1192008768393,983.0 L 477.3057343563125,993.5 L 483.36791218280354,983.0 L 495.4922678357857,983.0 L 495.4922678357857,962.0 L 513.6788013152589,951.5 Z" /><path d="M 459.1192008768393,983.0 L 459.1192008768393,962.0 L 446.9948452238571,962.0 L 440.93266739736606,951.5 L 422.74613391789285,962.0 L 422.74613391789285,983.0 L 410.6217782649107,983.0 L 404.55960043841964,993.5 L 422.74613391789285,1004.0 L 440.93266739736606,993.5 L 446.9948452238571,1004.0 L 459.1192008768393,1004.0 L 471.2435565298214,1004.0 L 477.3057343563125,993.5 L 459.1192008768393,983.0 Z" /><path d="M 422.74613391789285,962.0 L 440.93266739736606,951.5 L 434.87048957087495,941.0 L 440.93266739736606,930.5 L 422.74613391789285,920.0 L 404.55960043841964,930.5 L 398.4974226119286,920.0 L 386.3730669589464,920.0 L 386.3730669589464,941.0 L 404.55960043841964,951.5 L 398.4974226119286,962.0 L 404.55960043841964,972.5 L 410.6217782649107,983.0 L 422.74613391789285,983.0 L 422.74613391789285,962.0 Z" /><path d="M 459.1192008768393,941.0 L 477.3057343563125,951.5 L 483.36791218280354,941.0 L 495.4922678357857,941.0 L 495.4922678357857,920.0 L 477.3057343563125,909.5 L 483.36791218280354,899.0 L 477.3057343563125,888.5 L 459.1192008768393,899.0 L 459.1192008768393,920.0 L 446.9948452238571,920.0 L 440.93266739736606,930.5 L 434.87048957087495,941.0 L 440.93266739736606,951.5 L 459.1192008768393,941.0 Z" /><path d="M 495.4922678357857,920.0 L 495.4922678357857,941.0 L 507.6166234887678,941.0 L 513.6788013152589,951.5 L 531.8653347947321,941.0 L 531.8653347947321,920.0 L 543.9896904477142,920.0 L 550.0518682742054,909.5 L 531.8653347947321,899.0 L 513.6788013152589,909.5 L 507.6166234887678,899.0 L 495.4922678357857,899.0 L 483.36791218280354,899.0 L 477.3057343563125,909.5 L 495.4922678357857,920.0 Z" /><path d="M 531.8653347947321,941.0 L 513.6788013152589,951.5 L 519.7409791417499,962.0 L 513.6788013152589,972.5 L 531.8653347947321,983.0 L 550.0518682742054,972.5 L 556.1140461006964,983.0 L 568.2384017536785,983.0 L 568.2384017536785,962.0 L 550.0518682742054,951.5 L 556.1140461006964,941.0 L 550.0518682742054,930.5 L 543.9896904477142,920.0 L 531.8653347947321,920.0 L 531.8653347947321,941.0 Z" /><path d="M 386.3730669589464,941.0 L 386.3730669589464,920.0 L 374.24871130596426,920.0 L 368.1865334794732,909.5 L 350.0,920.0 L 350.0,941.0 L 337.87564434701784,941.0 L 331.8134665205268,951.5 L 350.0,962.0 L 368.1865334794732,951.5 L 374.24871130596426,962.0 L 386.3730669589464,962.0 L 398.4974226119286,962.0 L 404.55960043841964,951.5 L 386.3730669589464,941.0 Z" /><path d="M 331.8134665205268,951.5 L 325.75128869403574,962.0 L 331.8134665205268,972.5 L 337.87564434701784,983.0 L 350.0,983.0 L 350.0,1004.0 L 368.1865334794732,1014.5 L 374.24871130596426,1004.0 L 368.1865334794732,993.5 L 386.3730669589464,983.0 L 386.3730669589464,962.0 L 374.24871130596426,962.0 L 368.1865334794732,951.5 L 350.0,962.0 L 331.8134665205268,951.5 Z" /><path d="M 386.3730669589464,983.0 L 368.1865334794732,993.5 L 374.24871130596426,1004.0 L 368.1865334794732,1014.5 L 386.3730669589464,1025.0 L 404.55960043841964,1014.5 L 410.6217782649107,1025.0 L 422.74613391789285,1025.0 L 422.74613391789285,1004.0 L 404.55960043841964,993.5 L 410.6217782649107,983.0 L 404.55960043841964,972.5 L 398.4974226119286,962.0 L 386.3730669589464,962.0 L 386.3730669589464,983.0 Z" /><path d="M 386.3730669589464,1025.0 L 368.1865334794732,1014.5 L 362.12435565298216,1025.0 L 350.0,1025.0 L 350.0,1046.0 L 368.1865334794732,1056.5 L 362.12435565298216,1067.0 L 368.1865334794732,1077.5 L 386.3730669589464,1067.0 L 386.3730669589464,1046.0 L 398.4974226119286,1046.0 L 404.55960043841964,1035.5 L 410.6217782649107,1025.0 L 404.55960043841964,1014.5 L 386.3730669589464,1025.0 Z" /><path d="M 350.0,1004.0 L 350.0,983.0 L 337.87564434701784,983.0 L 331.8134665205268,972.5 L 313.6269330410536,983.0 L 313.6269330410536,1004.0 L 301.5025773880714,1004.0 L 295.44039956158036,1014.5 L 313.6269330410536,1025.0 L 331.8134665205268,1014.5 L 337.87564434701784,1025.0 L 350.0,1025.0 L 362.12435565298216,1025.0 L 368.1865334794732,1014.5 L 350.0,1004.0 Z" /><path d="M 350.0,1046.0 L 350.0,1025.0 L 337.87564434701784,1025.0 L 331.8134665205268,1014.5 L 313.6269330410536,1025.0 L 313.6269330410536,1046.0 L 301.5025773880714,1046.0 L 295.44039956158036,1056.5 L 313.6269330410536,1067.0 L 331.8134665205268,1056.5 L 337.87564434701784,1067.0 L 350.0,1067.0 L 362.12435565298216,1067.0 L 368.1865334794732,1056.5 L 350.0,1046.0 Z" /><path d="M 313.6269330410536,731.0 L 313.6269330410536,752.0 L 325.75128869403574,752.0 L 331.8134665205268,762.5 L 350.0,752.0 L 350.0,731.0 L 362.12435565298216,731.0 L 368.1865334794732,720.5 L 350.0,710.0 L 331.8134665205268,720.5 L 325.75128869403574,710.0 L 313.6269330410536,710.0 L 301.5025773880714,710.0 L 295.44039956158036,720.5 L 313.6269330410536,731.0 Z" /><path d="M 350.0,752.0 L 331.8134665205268,762.5 L 337.87564434701784,773.0 L 331.8134665205268,783.5 L 350.0,794.0 L 368.1865334794732,783.5 L 374.24871130596426,794.0 L 386.3730669589464,794.0 L 386.3730669589464,773.0 L 368.1865334794732,762.5 L 374.24871130596426,752.0 L 368.1865334794732,741.5 L 362.12435565298216,731.0 L 350.0,731.0 L 350.0,752.0 Z" /><path d="M 495.4922678357857,878.0 L 495.4922678357857,899.0 L 507.6166234887678,899.0 L 513.6788013152589,909.5 L 531.8653347947321,899.0 L 531.8653347947321,878.0 L 543.9896904477142,878.0 L 550.0518682742054,867.5 L 531.8653347947321,857.0 L 513.6788013152589,867.5 L 507.6166234887678,857.0 L 495.4922678357857,857.0 L 483.36791218280354,857.0 L 477.3057343563125,867.5 L 495.4922678357857,878.0 Z" /><path d="M 550.0518682742054,867.5 L 556.1140461006964,857.0 L 550.0518682742054,846.5 L 543.9896904477142,836.0 L 531.8653347947321,836.0 L 531.8653347947321,815.0 L 513.6788013152589,804.5 L 507.6166234887678,815.0 L 513.6788013152589,825.5 L 495.4922678357857,836.0 L 495.4922678357857,857.0 L 507.6166234887678,857.0 L 513.6788013152589,867.5 L 531.8653347947321,857.0 L 550.0518682742054,867.5 Z" /><path d="M 495.4922678357857,836.0 L 513.6788013152589,825.5 L 507.6166234887678,815.0 L 513.6788013152589,804.5 L 495.4922678357857,794.0 L 477.3057343563125,804.5 L 471.2435565298214,794.0 L 459.1192008768393,794.0 L 459.1192008768393,815.0 L 477.3057343563125,825.5 L 471.2435565298214,836.0 L 477.3057343563125,846.5 L 483.36791218280354,857.0 L 495.4922678357857,857.0 L 495.4922678357857,836.0 Z" /><path d="M 495.4922678357857,794.0 L 513.6788013152589,804.5 L 519.7409791417499,794.0 L 531.8653347947321,794.0 L 531.8653347947321,773.0 L 513.6788013152589,762.5 L 519.7409791417499,752.0 L 513.6788013152589,741.5 L 495.4922678357857,752.0 L 495.4922678357857,773.0 L 483.36791218280354,773.0 L 477.3057343563125,783.5 L 471.2435565298214,794.0 L 477.3057343563125,804.5 L 495.4922678357857,794.0 Z" /><path d="M 531.8653347947321,815.0 L 531.8653347947321,836.0 L 543.9896904477142,836.0 L 550.0518682742054,846.5 L 568.2384017536785,836.0 L 568.2384017536785,815.0 L 580.3627574066606,815.0 L 586.4249352331517,804.5 L 568.2384017536785,794.0 L 550.0518682742054,804.5 L 543.9896904477142,794.0 L 531.8653347947321,794.0 L 519.7409791417499,794.0 L 513.6788013152589,804.5 L 531.8653347947321,815.0 Z" /><path d="M 568.2384017536785,836.0 L 550.0518682742054,846.5 L 556.1140461006964,857.0 L 550.0518682742054,867.5 L 568.2384017536785,878.0 L 586.4249352331517,867.5 L 592.4871130596428,878.0 L 604.611468712625,878.0 L 604.611468712625,857.0 L 586.4249352331517,846.5 L 592.4871130596428,836.0 L 586.4249352331517,825.5 L 580.3627574066606,815.0 L 568.2384017536785,815.0 L 568.2384017536785,836.0 Z" /><path d="M 568.2384017536785,878.0 L 550.0518682742054,867.5 L 543.9896904477142,878.0 L 531.8653347947321,878.0 L 531.8653347947321,899.0 L 550.0518682742054,909.5 L 543.9896904477142,920.0 L 550.0518682742054,930.5 L 568.2384017536785,920.0 L 568.2384017536785,899.0 L 580.3627574066606,899.0 L 586.4249352331517,888.5 L 592.4871130596428,878.0 L 586.4249352331517,867.5 L 568.2384017536785,878.0 Z" /><path d="M 531.8653347947321,773.0 L 531.8653347947321,794.0 L 543.9896904477142,794.0 L 550.0518682742054,804.5 L 568.2384017536785,794.0 L 568.2384017536785,773.0 L 580.3627574066606,773.0 L 586.4249352331517,762.5 L 568.2384017536785,752.0 L 550.0518682742054,762.5 L 543.9896904477142,752.0 L 531.8653347947321,752.0 L 519.7409791417499,752.0 L 513.6788013152589,762.5 L 531.8653347947321,773.0 Z" /><path d="M 568.2384017536785,920.0 L 550.0518682742054,930.5 L 556.1140461006964,941.0 L 550.0518682742054,951.5 L 568.2384017536785,962.0 L 586.4249352331517,951.5 L 592.4871130596428,962.0 L 604.611468712625,962.0 L 604.611468712625,941.0 L 586.4249352331517,930.5 L 592.4871130596428,920.0 L 586.4249352331517,909.5 L 580.3627574066606,899.0 L 568.2384017536785,899.0 L 568.2384017536785,920.0 Z" /><path d="M 604.611468712625,962.0 L 616.7358243656071,962.0 L 622.7980021920982,951.5 L 628.8601800185893,941.0 L 622.7980021920982,930.5 L 640.9845356715714,920.0 L 640.9845356715714,899.0 L 628.8601800185893,899.0 L 622.7980021920982,909.5 L 604.611468712625,899.0 L 586.4249352331517,909.5 L 592.4871130596428,920.0 L 586.4249352331517,930.5 L 604.611468712625,941.0 L 604.611468712625,962.0 Z" /><path d="M 604.611468712625,899.0 L 622.7980021920982,909.5 L 628.8601800185893,899.0 L 640.9845356715714,899.0 L 640.9845356715714,878.0 L 622.7980021920982,867.5 L 628.8601800185893,857.0 L 622.7980021920982,846.5 L 604.611468712625,857.0 L 604.611468712625,878.0 L 592.4871130596428,878.0 L 586.4249352331517,888.5 L 580.3627574066606,899.0 L 586.4249352331517,909.5 L 604.611468712625,899.0 Z" /><path d="M 640.9845356715714,878.0 L 640.9845356715714,899.0 L 653.1088913245535,899.0 L 659.1710691510445,909.5 L 677.3576026305178,899.0 L 677.3576026305178,878.0 L 689.4819582834999,878.0 L 695.5441361099911,867.5 L 677.3576026305178,857.0 L 659.1710691510445,867.5 L 653.1088913245535,857.0 L 640.9845356715714,857.0 L 628.8601800185893,857.0 L 622.7980021920982,867.5 L 640.9845356715714,878.0 Z" /><path d="M 640.9845356715714,920.0 L 622.7980021920982,930.5 L 628.8601800185893,941.0 L 622.7980021920982,951.5 L 640.9845356715714,962.0 L 659.1710691510445,951.5 L 665.2332469775356,962.0 L 677.3576026305178,962.0 L 677.3576026305178,941.0 L 659.1710691510445,930.5 L 665.2332469775356,920.0 L 659.1710691510445,909.5 L 653.1088913245535,899.0 L 640.9845356715714,899.0 L 640.9845356715714,920.0 Z" /><path d="M 640.9845356715714,962.0 L 622.7980021920982,951.5 L 616.7358243656071,962.0 L 604.611468712625,962.0 L 604.611468712625,983.0 L 622.7980021920982,993.5 L 616.7358243656071,1004.0 L 622.7980021920982,1014.5 L 640.9845356715714,1004.0 L 640.9845356715714,983.0 L 653.1088913245535,983.0 L 659.1710691510445,972.5 L 665.2332469775356,962.0 L 659.1710691510445,951.5 L 640.9845356715714,962.0 Z" /><path d="M 604.611468712625,983.0 L 604.611468712625,962.0 L 592.4871130596428,962.0 L 586.4249352331517,951.5 L 568.2384017536785,962.0 L 568.2384017536785,983.0 L 556.1140461006964,983.0 L 550.0518682742054,993.5 L 568.2384017536785,1004.0 L 586.4249352331517,993.5 L 592.4871130596428,1004.0 L 604.611468712625,1004.0 L 616.7358243656071,1004.0 L 622.7980021920982,993.5 L 604.611468712625,983.0 Z" /><path d="M 677.3576026305178,899.0 L 659.1710691510445,909.5 L 665.2332469775356,920.0 L 659.1710691510445,930.5 L 677.3576026305178,941.0 L 695.5441361099911,930.5 L 701.6063139364821,941.0 L 713.7306695894642,941.0 L 713.7306695894642,920.0 L 695.5441361099911,909.5 L 701.6063139364821,899.0 L 695.5441361099911,888.5 L 689.4819582834999,878.0 L 677.3576026305178,878.0 L 677.3576026305178,899.0 Z" /><path d="M 750.1037365484107,815.0 L 750.1037365484107,836.0 L 762.2280922013928,836.0 L 768.2902700278839,846.5 L 786.4768035073571,836.0 L 786.4768035073571,815.0 L 798.6011591603392,815.0 L 804.6633369868302,804.5 L 786.4768035073571,794.0 L 768.2902700278839,804.5 L 762.2280922013928,794.0 L 750.1037365484107,794.0 L 737.9793808954284,794.0 L 731.9172030689374,804.5 L 750.1037365484107,815.0 Z" /><path d="M 804.6633369868302,804.5 L 810.7255148133213,794.0 L 804.6633369868302,783.5 L 798.6011591603392,773.0 L 786.4768035073571,773.0 L 786.4768035073571,752.0 L 768.2902700278839,741.5 L 762.2280922013928,752.0 L 768.2902700278839,762.5 L 750.1037365484107,773.0 L 750.1037365484107,794.0 L 762.2280922013928,794.0 L 768.2902700278839,804.5 L 786.4768035073571,794.0 L 804.6633369868302,804.5 Z" /><path d="M 750.1037365484107,773.0 L 768.2902700278839,762.5 L 762.2280922013928,752.0 L 768.2902700278839,741.5 L 750.1037365484107,731.0 L 731.9172030689374,741.5 L 725.8550252424463,731.0 L 713.7306695894642,731.0 L 713.7306695894642,752.0 L 731.9172030689374,762.5 L 725.8550252424463,773.0 L 731.9172030689374,783.5 L 737.9793808954284,794.0 L 750.1037365484107,794.0 L 750.1037365484107,773.0 Z" /><path d="M 750.1037365484107,731.0 L 768.2902700278839,741.5 L 774.352447854375,731.0 L 786.4768035073571,731.0 L 786.4768035073571,710.0 L 768.2902700278839,699.5 L 774.352447854375,689.0 L 768.2902700278839,678.5 L 750.1037365484107,689.0 L 750.1037365484107,710.0 L 737.9793808954284,710.0 L 731.9172030689374,720.5 L 725.8550252424463,731.0 L 731.9172030689374,741.5 L 750.1037365484107,731.0 Z" /><path d="M 786.4768035073571,752.0 L 786.4768035073571,773.0 L 798.6011591603392,773.0 L 804.6633369868302,783.5 L 822.8498704663035,773.0 L 822.8498704663035,752.0 L 834.9742261192856,752.0 L 841.0364039457768,741.5 L 822.8498704663035,731.0 L 804.6633369868302,741.5 L 798.6011591603392,731.0 L 786.4768035073571,731.0 L 774.352447854375,731.0 L 768.2902700278839,741.5 L 786.4768035073571,752.0 Z" /><path d="M 822.8498704663035,773.0 L 804.6633369868302,783.5 L 810.7255148133213,794.0 L 804.6633369868302,804.5 L 822.8498704663035,815.0 L 841.0364039457768,804.5 L 847.0985817722678,815.0 L 859.2229374252499,815.0 L 859.2229374252499,794.0 L 841.0364039457768,783.5 L 847.0985817722678,773.0 L 841.0364039457768,762.5 L 834.9742261192856,752.0 L 822.8498704663035,752.0 L 822.8498704663035,773.0 Z" /><path d="M 822.8498704663035,815.0 L 804.6633369868302,804.5 L 798.6011591603392,815.0 L 786.4768035073571,815.0 L 786.4768035073571,836.0 L 804.6633369868302,846.5 L 798.6011591603392,857.0 L 804.6633369868302,867.5 L 822.8498704663035,857.0 L 822.8498704663035,836.0 L 834.9742261192856,836.0 L 841.0364039457768,825.5 L 847.0985817722678,815.0 L 841.0364039457768,804.5 L 822.8498704663035,815.0 Z" /><path d="M 786.4768035073571,710.0 L 786.4768035073571,731.0 L 798.6011591603392,731.0 L 804.6633369868302,741.5 L 822.8498704663035,731.0 L 822.8498704663035,710.0 L 834.9742261192856,710.0 L 841.0364039457768,699.5 L 822.8498704663035,689.0 L 804.6633369868302,699.5 L 798.6011591603392,689.0 L 786.4768035073571,689.0 L 774.352447854375,689.0 L 768.2902700278839,699.5 L 786.4768035073571,710.0 Z" /><path d="M 713.7306695894642,920.0 L 713.7306695894642,941.0 L 725.8550252424463,941.0 L 731.9172030689374,951.5 L 750.1037365484107,941.0 L 750.1037365484107,920.0 L 762.2280922013928,920.0 L 768.2902700278839,909.5 L 750.1037365484107,899.0 L 731.9172030689374,909.5 L 725.8550252424463,899.0 L 713.7306695894642,899.0 L 701.6063139364821,899.0 L 695.5441361099911,909.5 L 713.7306695894642,920.0 Z" /><path d="M 768.2902700278839,909.5 L 774.352447854375,899.0 L 768.2902700278839,888.5 L 762.2280922013928,878.0 L 750.1037365484107,878.0 L 750.1037365484107,857.0 L 731.9172030689374,846.5 L 725.8550252424463,857.0 L 731.9172030689374,867.5 L 713.7306695894642,878.0 L 713.7306695894642,899.0 L 725.8550252424463,899.0 L 731.9172030689374,909.5 L 750.1037365484107,899.0 L 768.2902700278839,909.5 Z" /><path d="M 713.7306695894642,878.0 L 731.9172030689374,867.5 L 725.8550252424463,857.0 L 731.9172030689374,846.5 L 713.7306695894642,836.0 L 695.5441361099911,846.5 L 689.4819582834999,836.0 L 677.3576026305178,836.0 L 677.3576026305178,857.0 L 695.5441361099911,867.5 L 689.4819582834999,878.0 L 695.5441361099911,888.5 L 701.6063139364821,899.0 L 713.7306695894642,899.0 L 713.7306695894642,878.0 Z" /><path d="M 713.7306695894642,836.0 L 731.9172030689374,846.5 L 737.9793808954284,836.0 L 750.1037365484107,836.0 L 750.1037365484107,815.0 L 731.9172030689374,804.5 L 737.9793808954284,794.0 L 731.9172030689374,783.5 L 713.7306695894642,794.0 L 713.7306695894642,815.0 L 701.6063139364821,815.0 L 695.5441361099911,825.5 L 689.4819582834999,836.0 L 695.5441361099911,846.5 L 713.7306695894642,836.0 Z" /><path d="M 750.1037365484107,857.0 L 750.1037365484107,878.0 L 762.2280922013928,878.0 L 768.2902700278839,888.5 L 786.4768035073571,878.0 L 786.4768035073571,857.0 L 798.6011591603392,857.0 L 804.6633369868302,846.5 L 786.4768035073571,836.0 L 768.2902700278839,846.5 L 762.2280922013928,836.0 L 750.1037365484107,836.0 L 737.9793808954284,836.0 L 731.9172030689374,846.5 L 750.1037365484107,857.0 Z" /><path d="M 786.4768035073571,878.0 L 768.2902700278839,888.5 L 774.352447854375,899.0 L 768.2902700278839,909.5 L 786.4768035073571,920.0 L 804.6633369868302,909.5 L 810.7255148133213,920.0 L 822.8498704663035,920.0 L 822.8498704663035,899.0 L 804.6633369868302,888.5 L 810.7255148133213,878.0 L 804.6633369868302,867.5 L 798.6011591603392,857.0 L 786.4768035073571,857.0 L 786.4768035073571,878.0 Z" /><path d="M 786.4768035073571,920.0 L 768.2902700278839,909.5 L 762.2280922013928,920.0 L 750.1037365484107,920.0 L 750.1037365484107,941.0 L 768.2902700278839,951.5 L 762.2280922013928,962.0 L 768.2902700278839,972.5 L 786.4768035073571,962.0 L 786.4768035073571,941.0 L 798.6011591603392,941.0 L 804.6633369868302,930.5 L 810.7255148133213,920.0 L 804.6633369868302,909.5 L 786.4768035073571,920.0 Z" /><path d="M 713.7306695894642,794.0 L 731.9172030689374,783.5 L 725.8550252424463,773.0 L 731.9172030689374,762.5 L 713.7306695894642,752.0 L 695.5441361099911,762.5 L 689.4819582834999,752.0 L 677.3576026305178,752.0 L 677.3576026305178,773.0 L 695.5441361099911,783.5 L 689.4819582834999,794.0 L 695.5441361099911,804.5 L 701.6063139364821,815.0 L 713.7306695894642,815.0 L 713.7306695894642,794.0 Z" /><path d="M 677.3576026305178,752.0 L 665.2332469775356,752.0 L 659.1710691510445,762.5 L 653.1088913245535,773.0 L 659.1710691510445,783.5 L 640.9845356715714,794.0 L 640.9845356715714,815.0 L 653.1088913245535,815.0 L 659.1710691510445,804.5 L 677.3576026305178,815.0 L 695.5441361099911,804.5 L 689.4819582834999,794.0 L 695.5441361099911,783.5 L 677.3576026305178,773.0 L 677.3576026305178,752.0 Z" /><path d="M 677.3576026305178,815.0 L 659.1710691510445,804.5 L 653.1088913245535,815.0 L 640.9845356715714,815.0 L 640.9845356715714,836.0 L 659.1710691510445,846.5 L 653.1088913245535,857.0 L 659.1710691510445,867.5 L 677.3576026305178,857.0 L 677.3576026305178,836.0 L 689.4819582834999,836.0 L 695.5441361099911,825.5 L 701.6063139364821,815.0 L 695.5441361099911,804.5 L 677.3576026305178,815.0 Z" /><path d="M 640.9845356715714,836.0 L 640.9845356715714,815.0 L 628.8601800185893,815.0 L 622.7980021920982,804.5 L 604.611468712625,815.0 L 604.611468712625,836.0 L 592.4871130596428,836.0 L 586.4249352331517,846.5 L 604.611468712625,857.0 L 622.7980021920982,846.5 L 628.8601800185893,857.0 L 640.9845356715714,857.0 L 653.1088913245535,857.0 L 659.1710691510445,846.5 L 640.9845356715714,836.0 Z" /><path d="M 640.9845356715714,794.0 L 659.1710691510445,783.5 L 653.1088913245535,773.0 L 659.1710691510445,762.5 L 640.9845356715714,752.0 L 622.7980021920982,762.5 L 616.7358243656071,752.0 L 604.611468712625,752.0 L 604.611468712625,773.0 L 622.7980021920982,783.5 L 616.7358243656071,794.0 L 622.7980021920982,804.5 L 628.8601800185893,815.0 L 640.9845356715714,815.0 L 640.9845356715714,794.0 Z" /><path d="M 640.9845356715714,752.0 L 659.1710691510445,762.5 L 665.2332469775356,752.0 L 677.3576026305178,752.0 L 677.3576026305178,731.0 L 659.1710691510445,720.5 L 665.2332469775356,710.0 L 659.1710691510445,699.5 L 640.9845356715714,710.0 L 640.9845356715714,731.0 L 628.8601800185893,731.0 L 622.7980021920982,741.5 L 616.7358243656071,752.0 L 622.7980021920982,762.5 L 640.9845356715714,752.0 Z" /><path d="M 677.3576026305178,731.0 L 677.3576026305178,752.0 L 689.4819582834999,752.0 L 695.5441361099911,762.5 L 713.7306695894642,752.0 L 713.7306695894642,731.0 L 725.8550252424463,731.0 L 731.9172030689374,720.5 L 713.7306695894642,710.0 L 695.5441361099911,720.5 L 689.4819582834999,710.0 L 677.3576026305178,710.0 L 665.2332469775356,710.0 L 659.1710691510445,720.5 L 677.3576026305178,731.0 Z" /><path d="M 604.611468712625,815.0 L 622.7980021920982,804.5 L 616.7358243656071,794.0 L 622.7980021920982,783.5 L 604.611468712625,773.0 L 586.4249352331517,783.5 L 580.3627574066606,773.0 L 568.2384017536785,773.0 L 568.2384017536785,794.0 L 586.4249352331517,804.5 L 580.3627574066606,815.0 L 586.4249352331517,825.5 L 592.4871130596428,836.0 L 604.611468712625,836.0 L 604.611468712625,815.0 Z" /><path d="M 713.7306695894642,710.0 L 731.9172030689374,720.5 L 737.9793808954284,710.0 L 750.1037365484107,710.0 L 750.1037365484107,689.0 L 731.9172030689374,678.5 L 737.9793808954284,668.0 L 731.9172030689374,657.5 L 713.7306695894642,668.0 L 713.7306695894642,689.0 L 701.6063139364821,689.0 L 695.5441361099911,699.5 L 689.4819582834999,710.0 L 695.5441361099911,720.5 L 713.7306695894642,710.0 Z" /><path d="M 731.9172030689374,657.5 L 725.8550252424463,647.0 L 713.7306695894642,647.0 L 701.6063139364821,647.0 L 695.5441361099911,657.5 L 677.3576026305178,647.0 L 659.1710691510445,657.5 L 665.2332469775356,668.0 L 677.3576026305178,668.0 L 677.3576026305178,689.0 L 695.5441361099911,699.5 L 701.6063139364821,689.0 L 713.7306695894642,689.0 L 713.7306695894642,668.0 L 731.9172030689374,657.5 Z" /><path d="M 677.3576026305178,689.0 L 677.3576026305178,668.0 L 665.2332469775356,668.0 L 659.1710691510445,657.5 L 640.9845356715714,668.0 L 640.9845356715714,689.0 L 628.8601800185893,689.0 L 622.7980021920982,699.5 L 640.9845356715714,710.0 L 659.1710691510445,699.5 L 665.2332469775356,710.0 L 677.3576026305178,710.0 L 689.4819582834999,710.0 L 695.5441361099911,699.5 L 677.3576026305178,689.0 Z" /><path d="M 640.9845356715714,668.0 L 659.1710691510445,657.5 L 653.1088913245535,647.0 L 659.1710691510445,636.5 L 640.9845356715714,626.0 L 622.7980021920982,636.5 L 616.7358243656071,626.0 L 604.611468712625,626.0 L 604.611468712625,647.0 L 622.7980021920982,657.5 L 616.7358243656071,668.0 L 622.7980021920982,678.5 L 628.8601800185893,689.0 L 640.9845356715714,689.0 L 640.9845356715714,668.0 Z" /><path d="M 677.3576026305178,647.0 L 695.5441361099911,657.5 L 701.6063139364821,647.0 L 713.7306695894642,647.0 L 713.7306695894642,626.0 L 695.5441361099911,615.5 L 701.6063139364821,605.0 L 695.5441361099911,594.5 L 677.3576026305178,605.0 L 677.3576026305178,626.0 L 665.2332469775356,626.0 L 659.1710691510445,636.5 L 653.1088913245535,647.0 L 659.1710691510445,657.5 L 677.3576026305178,647.0 Z" /><path d="M 713.7306695894642,626.0 L 713.7306695894642,647.0 L 725.8550252424463,647.0 L 731.9172030689374,657.5 L 750.1037365484107,647.0 L 750.1037365484107,626.0 L 762.2280922013928,626.0 L 768.2902700278839,615.5 L 750.1037365484107,605.0 L 731.9172030689374,615.5 L 725.8550252424463,605.0 L 713.7306695894642,605.0 L 701.6063139364821,605.0 L 695.5441361099911,615.5 L 713.7306695894642,626.0 Z" /><path d="M 750.1037365484107,647.0 L 731.9172030689374,657.5 L 737.9793808954284,668.0 L 731.9172030689374,678.5 L 750.1037365484107,689.0 L 768.2902700278839,678.5 L 774.352447854375,689.0 L 786.4768035073571,689.0 L 786.4768035073571,668.0 L 768.2902700278839,657.5 L 774.352447854375,647.0 L 768.2902700278839,636.5 L 762.2280922013928,626.0 L 750.1037365484107,626.0 L 750.1037365484107,647.0 Z" /><path d="M 640.9845356715714,626.0 L 659.1710691510445,636.5 L 665.2332469775356,626.0 L 677.3576026305178,626.0 L 677.3576026305178,605.0 L 659.1710691510445,594.5 L 665.2332469775356,584.0 L 659.1710691510445,573.5 L 640.9845356715714,584.0 L 640.9845356715714,605.0 L 628.8601800185893,605.0 L 622.7980021920982,615.5 L 616.7358243656071,626.0 L 622.7980021920982,636.5 L 640.9845356715714,626.0 Z" /><path d="M 786.4768035073571,668.0 L 786.4768035073571,689.0 L 798.6011591603392,689.0 L 804.6633369868302,699.5 L 822.8498704663035,689.0 L 822.8498704663035,668.0 L 834.9742261192856,668.0 L 841.0364039457768,657.5 L 822.8498704663035,647.0 L 804.6633369868302,657.5 L 798.6011591603392,647.0 L 786.4768035073571,647.0 L 774.352447854375,647.0 L 768.2902700278839,657.5 L 786.4768035073571,668.0 Z" /><path d="M 841.0364039457768,657.5 L 847.0985817722678,647.0 L 841.0364039457768,636.5 L 834.9742261192856,626.0 L 822.8498704663035,626.0 L 822.8498704663035,605.0 L 804.6633369868302,594.5 L 798.6011591603392,605.0 L 804.6633369868302,615.5 L 786.4768035073571,626.0 L 786.4768035073571,647.0 L 798.6011591603392,647.0 L 804.6633369868302,657.5 L 822.8498704663035,647.0 L 841.0364039457768,657.5 Z" /><path d="M 786.4768035073571,626.0 L 804.6633369868302,615.5 L 798.6011591603392,605.0 L 804.6633369868302,594.5 L 786.4768035073571,584.0 L 768.2902700278839,594.5 L 762.2280922013928,584.0 L 750.1037365484107,584.0 L 750.1037365484107,605.0 L 768.2902700278839,615.5 L 762.2280922013928,626.0 L 768.2902700278839,636.5 L 774.352447854375,647.0 L 786.4768035073571,647.0 L 786.4768035073571,626.0 Z" /><path d="M 786.4768035073571,584.0 L 804.6633369868302,594.5 L 810.7255148133213,584.0 L 822.8498704663035,584.0 L 822.8498704663035,563.0 L 804.6633369868302,552.5 L 810.7255148133213,542.0 L 804.6633369868302,531.5 L 786.4768035073571,542.0 L 786.4768035073571,563.0 L 774.352447854375,563.0 L 768.2902700278839,573.5 L 762.2280922013928,584.0 L 768.2902700278839,594.5 L 786.4768035073571,584.0 Z" /><path d="M 822.8498704663035,605.0 L 822.8498704663035,626.0 L 834.9742261192856,626.0 L 841.0364039457768,636.5 L 859.2229374252499,626.0 L 859.2229374252499,605.0 L 871.347293078232,605.0 L 877.4094709047231,594.5 L 859.2229374252499,584.0 L 841.0364039457768,594.5 L 834.9742261192856,584.0 L 822.8498704663035,584.0 L 810.7255148133213,584.0 L 804.6633369868302,594.5 L 822.8498704663035,605.0 Z" /><path d="M 859.2229374252499,626.0 L 841.0364039457768,636.5 L 847.0985817722678,647.0 L 841.0364039457768,657.5 L 859.2229374252499,668.0 L 877.4094709047231,657.5 L 883.4716487312141,668.0 L 895.5960043841964,668.0 L 895.5960043841964,647.0 L 877.4094709047231,636.5 L 883.4716487312141,626.0 L 877.4094709047231,615.5 L 871.347293078232,605.0 L 859.2229374252499,605.0 L 859.2229374252499,626.0 Z" /><path d="M 859.2229374252499,668.0 L 841.0364039457768,657.5 L 834.9742261192856,668.0 L 822.8498704663035,668.0 L 822.8498704663035,689.0 L 841.0364039457768,699.5 L 834.9742261192856,710.0 L 841.0364039457768,720.5 L 859.2229374252499,710.0 L 859.2229374252499,689.0 L 871.347293078232,689.0 L 877.4094709047231,678.5 L 883.4716487312141,668.0 L 877.4094709047231,657.5 L 859.2229374252499,668.0 Z" /><path d="M 822.8498704663035,563.0 L 822.8498704663035,584.0 L 834.9742261192856,584.0 L 841.0364039457768,594.5 L 859.2229374252499,584.0 L 859.2229374252499,563.0 L 871.347293078232,563.0 L 877.4094709047231,552.5 L 859.2229374252499,542.0 L 841.0364039457768,552.5 L 834.9742261192856,542.0 L 822.8498704663035,542.0 L 810.7255148133213,542.0 L 804.6633369868302,552.5 L 822.8498704663035,563.0 Z" /><path d="M 822.8498704663035,857.0 L 804.6633369868302,867.5 L 810.7255148133213,878.0 L 804.6633369868302,888.5 L 822.8498704663035,899.0 L 841.0364039457768,888.5 L 847.0985817722678,899.0 L 859.2229374252499,899.0 L 859.2229374252499,878.0 L 841.0364039457768,867.5 L 847.0985817722678,857.0 L 841.0364039457768,846.5 L 834.9742261192856,836.0 L 822.8498704663035,836.0 L 822.8498704663035,857.0 Z" /><path d="M 859.2229374252499,899.0 L 871.347293078232,899.0 L 877.4094709047231,888.5 L 883.4716487312141,878.0 L 877.4094709047231,867.5 L 895.5960043841964,857.0 L 895.5960043841964,836.0 L 883.4716487312141,836.0 L 877.4094709047231,846.5 L 859.2229374252499,836.0 L 841.0364039457768,846.5 L 847.0985817722678,857.0 L 841.0364039457768,867.5 L 859.2229374252499,878.0 L 859.2229374252499,899.0 Z" /><path d="M 859.2229374252499,836.0 L 877.4094709047231,846.5 L 883.4716487312141,836.0 L 895.5960043841964,836.0 L 895.5960043841964,815.0 L 877.4094709047231,804.5 L 883.4716487312141,794.0 L 877.4094709047231,783.5 L 859.2229374252499,794.0 L 859.2229374252499,815.0 L 847.0985817722678,815.0 L 841.0364039457768,825.5 L 834.9742261192856,836.0 L 841.0364039457768,846.5 L 859.2229374252499,836.0 Z" /><path d="M 895.5960043841964,815.0 L 895.5960043841964,836.0 L 907.7203600371785,836.0 L 913.7825378636695,846.5 L 931.9690713431428,835.9999999999999 L 931.9690713431428,814.9999999999999 L 944.0934269961249,814.9999999999999 L 950.1556048226159,804.4999999999999 L 931.9690713431428,793.9999999999999 L 913.7825378636695,804.5 L 907.7203600371785,794.0 L 895.5960043841964,794.0 L 883.4716487312141,794.0 L 877.4094709047231,804.5 L 895.5960043841964,815.0 Z" /><path d="M 895.5960043841964,857.0 L 877.4094709047231,867.5 L 883.4716487312141,878.0 L 877.4094709047231,888.5 L 895.5960043841964,899.0 L 913.7825378636695,888.5 L 919.8447156901606,899.0 L 931.9690713431428,898.9999999999999 L 931.9690713431428,877.9999999999999 L 913.7825378636695,867.5 L 919.8447156901606,857.0 L 913.7825378636695,846.5 L 907.7203600371785,836.0 L 895.5960043841964,836.0 L 895.5960043841964,857.0 Z" /><path d="M 895.5960043841964,899.0 L 877.4094709047231,888.5 L 871.347293078232,899.0 L 859.2229374252499,899.0 L 859.2229374252499,920.0 L 877.4094709047231,930.5 L 871.347293078232,941.0 L 877.4094709047231,951.5 L 895.5960043841964,941.0 L 895.5960043841964,920.0 L 907.7203600371785,920.0 L 913.7825378636695,909.5 L 919.8447156901606,899.0 L 913.7825378636695,888.5 L 895.5960043841964,899.0 Z" /><path d="M 859.2229374252499,920.0 L 859.2229374252499,899.0 L 847.0985817722678,899.0 L 841.0364039457768,888.5 L 822.8498704663035,899.0 L 822.8498704663035,920.0 L 810.7255148133213,920.0 L 804.6633369868302,930.5 L 822.8498704663035,941.0 L 841.0364039457768,930.5 L 847.0985817722678,941.0 L 859.2229374252499,941.0 L 871.347293078232,941.0 L 877.4094709047231,930.5 L 859.2229374252499,920.0 Z" /><path d="M 931.9690713431428,835.9999999999999 L 913.7825378636695,846.5 L 919.8447156901606,857.0 L 913.7825378636695,867.5 L 931.9690713431428,877.9999999999999 L 950.1556048226159,867.4999999999999 L 956.217782649107,877.9999999999999 L 968.3421383020892,877.9999999999999 L 968.3421383020892,856.9999999999999 L 950.1556048226159,846.4999999999999 L 956.217782649107,835.9999999999999 L 950.1556048226159,825.4999999999999 L 944.0934269961249,814.9999999999999 L 931.9690713431428,814.9999999999999 L 931.9690713431428,835.9999999999999 Z" /><path d="M 822.8498704663035,941.0 L 804.6633369868302,930.5 L 798.6011591603392,941.0 L 786.4768035073571,941.0 L 786.4768035073571,962.0 L 804.6633369868302,972.5 L 798.6011591603392,983.0 L 804.6633369868302,993.5 L 822.8498704663035,983.0 L 822.8498704663035,962.0 L 834.9742261192856,962.0 L 841.0364039457768,951.5 L 847.0985817722678,941.0 L 841.0364039457768,930.5 L 822.8498704663035,941.0 Z" /><path d="M 804.6633369868302,993.5 L 810.7255148133213,1004.0 L 822.8498704663035,1004.0 L 834.9742261192856,1004.0 L 841.0364039457768,993.5 L 859.2229374252499,1004.0 L 877.4094709047231,993.5 L 871.347293078232,983.0 L 859.2229374252499,983.0 L 859.2229374252499,962.0 L 841.0364039457768,951.5 L 834.9742261192856,962.0 L 822.8498704663035,962.0 L 822.8498704663035,983.0 L 804.6633369868302,993.5 Z" /><path d="M 859.2229374252499,962.0 L 859.2229374252499,983.0 L 871.347293078232,983.0 L 877.4094709047231,993.5 L 895.5960043841964,983.0 L 895.5960043841964,962.0 L 907.7203600371785,962.0 L 913.7825378636695,951.5 L 895.5960043841964,941.0 L 877.4094709047231,951.5 L 871.347293078232,941.0 L 859.2229374252499,941.0 L 847.0985817722678,941.0 L 841.0364039457768,951.5 L 859.2229374252499,962.0 Z" /><path d="M 895.5960043841964,983.0 L 877.4094709047231,993.5 L 883.4716487312141,1004.0 L 877.4094709047231,1014.5 L 895.5960043841964,1025.0 L 913.7825378636695,1014.5 L 919.8447156901606,1025.0 L 931.9690713431428,1025.0 L 931.9690713431428,1003.9999999999999 L 913.7825378636695,993.5 L 919.8447156901606,983.0 L 913.7825378636695,972.5 L 907.7203600371785,962.0 L 895.5960043841964,962.0 L 895.5960043841964,983.0 Z" /><path d="M 859.2229374252499,1004.0 L 841.0364039457768,993.5 L 834.9742261192856,1004.0 L 822.8498704663035,1004.0 L 822.8498704663035,1025.0 L 841.0364039457768,1035.5 L 834.9742261192856,1046.0 L 841.0364039457768,1056.5 L 859.2229374252499,1046.0 L 859.2229374252499,1025.0 L 871.347293078232,1025.0 L 877.4094709047231,1014.5 L 883.4716487312141,1004.0 L 877.4094709047231,993.5 L 859.2229374252499,1004.0 Z" /><path d="M 822.8498704663035,1025.0 L 822.8498704663035,1004.0 L 810.7255148133213,1004.0 L 804.6633369868302,993.5 L 786.4768035073571,1004.0 L 786.4768035073571,1025.0 L 774.352447854375,1025.0 L 768.2902700278839,1035.5 L 786.4768035073571,1046.0 L 804.6633369868302,1035.5 L 810.7255148133213,1046.0 L 822.8498704663035,1046.0 L 834.9742261192856,1046.0 L 841.0364039457768,1035.5 L 822.8498704663035,1025.0 Z" /><path d="M 786.4768035073571,1004.0 L 804.6633369868302,993.5 L 798.6011591603392,983.0 L 804.6633369868302,972.5 L 786.4768035073571,962.0 L 768.2902700278839,972.5 L 762.2280922013928,962.0 L 750.1037365484107,962.0 L 750.1037365484107,983.0 L 768.2902700278839,993.5 L 762.2280922013928,1004.0 L 768.2902700278839,1014.5 L 774.352447854375,1025.0 L 786.4768035073571,1025.0 L 786.4768035073571,1004.0 Z" /><path d="M 895.5960043841964,1025.0 L 877.4094709047231,1014.5 L 871.347293078232,1025.0 L 859.2229374252499,1025.0 L 859.2229374252499,1046.0 L 877.4094709047231,1056.5 L 871.347293078232,1067.0 L 877.4094709047231,1077.5 L 895.5960043841964,1067.0 L 895.5960043841964,1046.0 L 907.7203600371785,1046.0 L 913.7825378636695,1035.5 L 919.8447156901606,1025.0 L 913.7825378636695,1014.5 L 895.5960043841964,1025.0 Z" /><path d="M 66.89126893183487,1606.0 L 1196.891268931835,1606.0 L 1196.891268931835,1436.0 L 66.89126893183487,1436.0 L 66.89126893183487,1606.0 Z" /><path d="M 82.89126893183487,1580.0 L 1180.891268931835,1580.0 L 1180.891268931835,1460.0 L 82.89126893183487,1460.0 L 82.89126893183487,1580.0 Z" /><path d="M 230.39126893183487,1429.0 L 1033.391268931835,1429.0 L 1033.391268931835,1259.0 L 230.39126893183487,1259.0 L 230.39126893183487,1429.0 Z" /><path d="M 246.39126893183487,1403.0 L 1017.3912689318349,1403.0 L 1017.3912689318349,1283.0 L 246.39126893183487,1283.0 L 246.39126893183487,1403.0 Z" /><path d="M 199.39126893183487,1252.0 L 1064.391268931835,1252.0 L 1064.391268931835,1082.0 L 199.39126893183487,1082.0 L 199.39126893183487,1252.0 Z" /><path d="M 215.39126893183487,1226.0 L 1048.391268931835,1226.0 L 1048.391268931835,1106.0 L 215.39126893183487,1106.0 L 215.39126893183487,1226.0 Z" /><path d="M 64.39126893183487,1075.0 L 1199.391268931835,1075.0 L 1199.391268931835,905.0 L 64.39126893183487,905.0 L 64.39126893183487,1075.0 Z" /><path d="M 80.39126893183487,1049.0 L 1183.391268931835,1049.0 L 1183.391268931835,929.0 L 80.39126893183487,929.0 L 80.39126893183487,1049.0 Z" /><path d="M 179.39126893183487,898.0 L 1084.391268931835,898.0 L 1084.391268931835,728.0 L 179.39126893183487,728.0 L 179.39126893183487,898.0 Z" /><path d="M 195.39126893183487,872.0 L 1068.391268931835,872.0 L 1068.391268931835,752.0 L 195.39126893183487,752.0 L 195.39126893183487,872.0 Z" /><path d="M 179.39126893183487,721.0 L 1084.391268931835,721.0 L 1084.391268931835,551.0 L 179.39126893183487,551.0 L 179.39126893183487,721.0 Z" /><path d="M 195.39126893183487,695.0 L 1068.391268931835,695.0 L 1068.391268931835,575.0 L 195.39126893183487,575.0 L 195.39126893183487,695.0 Z" /><path d="M 179.39126893183487,544.0 L 1084.391268931835,544.0 L 1084.391268931835,374.0 L 179.39126893183487,374.0 L 179.39126893183487,544.0 Z" /><path d="M 195.39126893183487,518.0 L 1068.391268931835,518.0 L 1068.391268931835,398.0 L 195.39126893183487,398.0 L 195.39126893183487,518.0 Z" /><path d="M 179.39126893183487,367.0 L 1084.391268931835,367.0 L 1084.391268931835,197.0 L 179.39126893183487,197.0 L 179.39126893183487,367.0 Z" /><path d="M 195.39126893183487,341.0 L 1068.391268931835,341.0 L 1068.391268931835,221.0 L 195.39126893183487,221.0 L 195.39126893183487,341.0 Z" /><path d="M 179.39126893183487,190.0 L 1084.391268931835,190.0 L 1084.391268931835,0.0 L 179.39126893183487,0.0 L 179.39126893183487,190.0 Z" /><path d="M 195.39126893183487,180.0 L 1068.391268931835,180.0 L 1068.391268931835,10.0 L 195.39126893183487,10.0 L 195.39126893183487,180.0 Z" /><path d="M 323.6269330410536,1903.5 L 1623.6269330410537,1903.5 L 1623.6269330410537,3.5 L 323.6269330410536,3.5 L 323.6269330410536,1903.5 Z" /></g></svg>