<?xml version="1.0" encoding="utf-8" ?>
<svg baseProfile="full" height="300mm" version="1.1" width="1200mm" xmlns="http://www.w3.org/2000/svg" xmlns:ev="http://www.w3.org/2001/xml-events" xmlns:xlink="http://www.w3.org/1999/xlink"><defs /><g fill="none" stroke="blue" stroke-width="1"><path d="M 805.3301576774103,102.39438717061493 L 805.3301576774103,126.30708554282303 L 781.4174593052022,126.30708554282302 L 781.4174593052022,102.39438717061493 L 805.3301576774103,102.39438717061493 Z" /><path d="M 793.3738084913062,79.0499999999999 L 802.6947747701624,95.19438717061495 L 784.0528422124501,95.19438717061493 L 793.3738084913062,79.0499999999999 Z" /><path d="M 808.9301576774103,91.59438717061501 L 799.6091913985541,75.44999999999996 L 818.2511239562665,75.44999999999997 L 808.9301576774103,91.59438717061501 Z" /><path d="M 836.4428560496184,102.39438717061493 L 836.4428560496184,126.30708554282303 L 812.5301576774103,126.30708554282302 L 812.5301576774103,102.39438717061493 L 836.4428560496184,102.39438717061493 Z" /><path d="M 867.5555544218265,102.39438717061493 L 867.5555544218265,126.30708554282303 L 843.6428560496184,126.30708554282302 L 843.6428560496184,102.39438717061493 L 867.5555544218265,102.39438717061493 Z" /><path d="M 824.4865068635144,79.0499999999999 L 833.8074731423706,95.19438717061495 L 815.1655405846582,95.19438717061493 L 824.4865068635144,79.0499999999999 Z" /><path d="M 840.0428560496184,91.59438717061501 L 830.7218897707622,75.44999999999996 L 849.3638223284746,75.44999999999997 L 840.0428560496184,91.59438717061501 Z" /><path d="M 855.5992052357225,79.0499999999999 L 864.9201715145787,95.19438717061495 L 846.2782389568663,95.19438717061493 L 855.5992052357225,79.0499999999999 Z" /><path d="M 871.1555544218265,91.59438717061501 L 861.8345881429703,75.44999999999996 L 880.4765207006827,75.44999999999997 L 871.1555544218265,91.59438717061501 Z" /><path d="M 898.6682527940345,102.39438717061493 L 898.6682527940345,126.30708554282303 L 874.7555544218264,126.30708554282302 L 874.7555544218264,102.39438717061493 L 898.6682527940345,102.39438717061493 Z" /><path d="M 929.7809511662426,102.39438717061493 L 929.7809511662426,126.30708554282303 L 905.8682527940346,126.30708554282302 L 905.8682527940346,102.39438717061493 L 929.7809511662426,102.39438717061493 Z" /><path d="M 886.7119036079305,79.0499999999999 L 896.0328698867867,95.19438717061495 L 877.3909373290743,95.19438717061493 L 886.7119036079305,79.0499999999999 Z" /><path d="M 902.2682527940345,91.59438717061501 L 892.9472865151783,75.44999999999996 L 911.5892190728907,75.44999999999997 L 902.2682527940345,91.59438717061501 Z" /><path d="M 917.8246019801386,79.0499999999999 L 927.1455682589948,95.19438717061495 L 908.5036357012824,95.19438717061493 L 917.8246019801386,79.0499999999999 Z" /><path d="M 933.3809511662427,91.594387170615 L 924.0599848873865,75.44999999999996 L 942.7019174450987,75.44999999999997 L 933.3809511662427,91.594387170615 Z" /><path d="M 960.8936495384506,102.39438717061493 L 960.8936495384506,126.30708554282303 L 936.9809511662426,126.30708554282302 L 936.9809511662426,102.39438717061493 L 960.8936495384506,102.39438717061493 Z" /><path d="M 992.0063479106587,102.39438717061493 L 992.0063479106587,126.30708554282303 L 968.0936495384507,126.30708554282302 L 968.0936495384507,102.39438717061493 L 992.0063479106587,102.39438717061493 Z" /><path d="M 948.9373003523466,79.0499999999999 L 958.2582666312028,95.19438717061495 L 939.6163340734904,95.19438717061493 L 948.9373003523466,79.0499999999999 Z" /><path d="M 964.4936495384507,91.59438717061501 L 955.1726832595945,75.44999999999996 L 973.8146158173068,75.44999999999997 L 964.4936495384507,91.59438717061501 Z" /><path d="M 980.0499987245547,79.0499999999999 L 989.3709650034109,95.19438717061495 L 970.7290324456985,95.19438717061493 L 980.0499987245547,79.0499999999999 Z" /><path d="M 995.6063479106588,91.59438717061501 L 986.2853816318026,75.44999999999996 L 1004.927314189515,75.44999999999997 L 995.6063479106588,91.59438717061501 Z" /><path d="M 1023.1190462828669,102.39438717061493 L 1023.1190462828669,126.30708554282303 L 999.2063479106588,126.30708554282302 L 999.2063479106588,102.39438717061493 L 1023.1190462828669,102.39438717061493 Z" /><path d="M 1054.2317446550749,102.39438717061493 L 1054.2317446550749,126.30708554282303 L 1030.3190462828668,126.30708554282302 L 1030.3190462828668,102.39438717061493 L 1054.2317446550749,102.39438717061493 Z" /><path d="M 1011.1626970967628,79.0499999999999 L 1020.483663375619,95.19438717061495 L 1001.8417308179066,95.19438717061493 L 1011.1626970967628,79.0499999999999 Z" /><path d="M 1026.7190462828669,91.5943871706149 L 1017.3980800040108,75.44999999999996 L 1036.040012561723,75.44999999999997 L 1026.7190462828669,91.5943871706149 Z" /><path d="M 1042.2753954689708,79.05000000000013 L 1051.5963617478267,95.19438717061495 L 1032.954429190115,95.19438717061493 L 1042.2753954689708,79.05000000000013 Z" /><path d="M 1057.8317446550748,91.59438717061481 L 1048.510778376219,75.44999999999996 L 1067.1527109339308,75.44999999999997 L 1057.8317446550748,91.59438717061481 Z" /><path d="M 1085.344443027283,102.39438717061493 L 1085.344443027283,126.30708554282303 L 1061.431744655075,126.30708554282302 L 1061.431744655075,102.39438717061493 L 1085.344443027283,102.39438717061493 Z" /><path d="M 1116.457141399491,102.39438717061493 L 1116.457141399491,126.30708554282303 L 1092.5444430272828,126.30708554282302 L 1092.5444430272828,102.39438717061493 L 1116.457141399491,102.39438717061493 Z" /><path d="M 1073.388093841179,79.05000000000013 L 1082.7090601200348,95.19438717061495 L 1064.067127562323,95.19438717061493 L 1073.388093841179,79.05000000000013 Z" /><path d="M 1088.944443027283,91.59438717061481 L 1079.623476748427,75.44999999999996 L 1098.265409306139,75.44999999999997 L 1088.944443027283,91.59438717061481 Z" /><path d="M 1104.500792213387,79.0500000000001 L 1113.821758492243,95.19438717061495 L 1095.179825934531,95.19438717061493 L 1104.500792213387,79.0500000000001 Z" /><path d="M 1120.057141399491,91.59438717061481 L 1110.7361751206352,75.44999999999996 L 1129.378107678347,75.44999999999997 L 1120.057141399491,91.59438717061481 Z" /><path d="M 1147.5698397716992,102.39438717061493 L 1147.5698397716992,126.30708554282303 L 1123.6571413994911,126.30708554282302 L 1123.6571413994911,102.39438717061493 L 1147.5698397716992,102.39438717061493 Z" /><path d="M 1178.6825381439073,102.39438717061493 L 1178.6825381439073,126.30708554282303 L 1154.769839771699,126.30708554282302 L 1154.769839771699,102.39438717061493 L 1178.6825381439073,102.39438717061493 Z" /><path d="M 1135.6134905855952,79.05000000000013 L 1144.934456864451,95.19438717061495 L 1126.2925243067393,95.19438717061493 L 1135.6134905855952,79.05000000000013 Z" /><path d="M 1151.1698397716991,91.59438717061481 L 1141.8488734928433,75.44999999999996 L 1160.4908060505552,75.44999999999997 L 1151.1698397716991,91.59438717061481 Z" /><path d="M 1166.7261889578033,79.0500000000001 L 1176.0471552366591,95.19438717061495 L 1157.4052226789472,95.19438717061493 L 1166.7261889578033,79.0500000000001 Z" /><path d="M 1182.2825381439072,91.59438717061481 L 1172.9615718650514,75.44999999999996 L 1191.6035044227633,75.44999999999997 L 1182.2825381439072,91.59438717061481 Z" /><path d="M 1209.7952365161152,102.39438717061493 L 1209.7952365161152,126.30708554282303 L 1185.8825381439071,126.30708554282302 L 1185.8825381439071,102.39438717061493 L 1209.7952365161152,102.39438717061493 Z" /><path d="M 1240.9079348883233,102.39438717061493 L 1240.9079348883233,126.30708554282303 L 1216.995236516115,126.30708554282302 L 1216.995236516115,102.39438717061493 L 1240.9079348883233,102.39438717061493 Z" /><path d="M 1197.8388873300112,79.05000000000013 L 1207.159853608867,95.19438717061495 L 1188.5179210511553,95.19438717061493 L 1197.8388873300112,79.05000000000013 Z" /><path d="M 1213.3952365161151,91.59438717061481 L 1204.0742702372593,75.44999999999996 L 1222.7162027949712,75.44999999999997 L 1213.3952365161151,91.59438717061481 Z" /><path d="M 1228.9515857022193,79.0500000000001 L 1238.2725519810751,95.19438717061495 L 1219.6306194233632,95.19438717061493 L 1228.9515857022193,79.0500000000001 Z" /><path d="M 1244.5079348883232,91.59438717061481 L 1235.1869686094674,75.44999999999996 L 1253.8289011671793,75.44999999999997 L 1244.5079348883232,91.59438717061481 Z" /><path d="M 1272.0206332605314,102.39438717061493 L 1272.0206332605314,126.30708554282303 L 1248.1079348883234,126.30708554282302 L 1248.1079348883234,102.39438717061493 L 1272.0206332605314,102.39438717061493 Z" /><path d="M 1303.1333316327396,102.39438717061493 L 1303.1333316327396,126.30708554282303 L 1279.2206332605313,126.30708554282302 L 1279.2206332605313,102.39438717061493 L 1303.1333316327396,102.39438717061493 Z" /><path d="M 1260.0642840744274,79.05000000000013 L 1269.3852503532833,95.19438717061495 L 1250.7433177955716,95.19438717061493 L 1260.0642840744274,79.05000000000013 Z" /><path d="M 1275.6206332605313,91.59438717061481 L 1266.2996669816755,75.44999999999996 L 1284.9415995393874,75.44999999999997 L 1275.6206332605313,91.59438717061481 Z" /><path d="M 1291.1769824466355,79.0500000000001 L 1300.4979487254914,95.19438717061495 L 1281.8560161677794,95.19438717061493 L 1291.1769824466355,79.0500000000001 Z" /><path d="M 1306.7333316327395,91.59438717061481 L 1297.4123653538836,75.44999999999996 L 1316.0542979115955,75.44999999999997 L 1306.7333316327395,91.59438717061481 Z" /><path d="M 1334.2460300049477,102.39438717061493 L 1334.2460300049477,126.30708554282303 L 1310.3333316327396,126.30708554282302 L 1310.3333316327396,102.39438717061493 L 1334.2460300049477,102.39438717061493 Z" /><path d="M 1365.3587283771558,102.39438717061493 L 1365.3587283771558,126.30708554282303 L 1341.4460300049475,126.30708554282302 L 1341.4460300049475,102.39438717061493 L 1365.3587283771558,102.39438717061493 Z" /><path d="M 1322.2896808188436,79.05000000000013 L 1331.6106470976995,95.19438717061495 L 1312.9687145399878,95.19438717061493 L 1322.2896808188436,79.05000000000013 Z" /><path d="M 1337.8460300049476,91.59438717061481 L 1328.5250637260917,75.44999999999996 L 1347.1669962838037,75.44999999999997 L 1337.8460300049476,91.59438717061481 Z" /><path d="M 1353.4023791910518,79.0500000000001 L 1362.7233454699076,95.19438717061495 L 1344.0814129121957,95.19438717061493 L 1353.4023791910518,79.0500000000001 Z" /><path d="M 1368.9587283771557,91.59438717061481 L 1359.6377620982998,75.44999999999996 L 1378.2796946560118,75.44999999999997 L 1368.9587283771557,91.59438717061481 Z" /><path d="M 1396.4714267493637,102.39438717061493 L 1396.4714267493637,126.30708554282303 L 1372.5587283771556,126.30708554282302 L 1372.5587283771556,102.39438717061493 L 1396.4714267493637,102.39438717061493 Z" /><path d="M 1427.5841251215718,102.39438717061493 L 1427.5841251215718,126.30708554282303 L 1403.6714267493635,126.30708554282302 L 1403.6714267493635,102.39438717061493 L 1427.5841251215718,102.39438717061493 Z" /><path d="M 1384.5150775632596,79.05000000000013 L 1393.8360438421155,95.19438717061495 L 1375.1941112844038,95.19438717061493 L 1384.5150775632596,79.05000000000013 Z" /><path d="M 1400.0714267493636,91.59438717061481 L 1390.7504604705077,75.44999999999996 L 1409.3923930282197,75.44999999999997 L 1400.0714267493636,91.59438717061481 Z" /><path d="M 1415.6277759354678,79.0500000000001 L 1424.9487422143236,95.19438717061495 L 1406.3068096566117,95.19438717061493 L 1415.6277759354678,79.0500000000001 Z" /><path d="M 1431.1841251215717,91.59438717061481 L 1421.8631588427158,75.44999999999996 L 1440.5050914004278,75.44999999999997 L 1431.1841251215717,91.59438717061481 Z" /><path d="M 1458.69682349378,102.39438717061493 L 1458.69682349378,126.30708554282303 L 1434.7841251215718,126.30708554282302 L 1434.7841251215718,102.39438717061493 L 1458.69682349378,102.39438717061493 Z" /><path d="M 1489.809521865988,102.39438717061493 L 1489.809521865988,126.30708554282303 L 1465.8968234937797,126.30708554282302 L 1465.8968234937797,102.39438717061493 L 1489.809521865988,102.39438717061493 Z" /><path d="M 1446.7404743076759,79.05000000000013 L 1456.0614405865317,95.19438717061495 L 1437.41950802882,95.19438717061493 L 1446.7404743076759,79.05000000000013 Z" /><path d="M 1462.2968234937798,91.59438717061481 L 1452.975857214924,75.44999999999996 L 1471.617789772636,75.44999999999997 L 1462.2968234937798,91.59438717061481 Z" /><path d="M 1477.853172679884,79.0500000000001 L 1487.1741389587398,95.19438717061495 L 1468.532206401028,95.19438717061493 L 1477.853172679884,79.0500000000001 Z" /><path d="M 1493.409521865988,91.59438717061481 L 1484.088555587132,75.44999999999996 L 1502.730488144844,75.44999999999997 L 1493.409521865988,91.59438717061481 Z" /><path d="M 1520.9222202381961,102.39438717061493 L 1520.9222202381961,126.30708554282303 L 1497.009521865988,126.30708554282302 L 1497.009521865988,102.39438717061493 L 1520.9222202381961,102.39438717061493 Z" /><path d="M 1552.0349186104042,102.39438717061493 L 1552.0349186104042,126.30708554282303 L 1528.122220238196,126.30708554282302 L 1528.122220238196,102.39438717061493 L 1552.0349186104042,102.39438717061493 Z" /><path d="M 1508.965871052092,79.05000000000013 L 1518.286837330948,95.19438717061495 L 1499.6449047732362,95.19438717061493 L 1508.965871052092,79.05000000000013 Z" /><path d="M 1524.522220238196,91.59438717061481 L 1515.2012539593402,75.44999999999996 L 1533.8431865170521,75.44999999999997 L 1524.522220238196,91.59438717061481 Z" /><path d="M 1540.0785694243002,79.0500000000001 L 1549.399535703156,95.19438717061495 L 1530.7576031454441,95.19438717061493 L 1540.0785694243002,79.0500000000001 Z" /><path d="M 1555.6349186104042,91.59438717061481 L 1546.3139523315483,75.44999999999996 L 1564.9558848892602,75.44999999999997 L 1555.6349186104042,91.59438717061481 Z" /><path d="M 1583.1476169826124,102.39438717061493 L 1583.1476169826124,126.30708554282303 L 1559.2349186104043,126.30708554282302 L 1559.2349186104043,102.39438717061493 L 1583.1476169826124,102.39438717061493 Z" /><path d="M 1614.2603153548205,102.39438717061493 L 1614.2603153548205,126.30708554282303 L 1590.3476169826122,126.30708554282302 L 1590.3476169826122,102.39438717061493 L 1614.2603153548205,102.39438717061493 Z" /><path d="M 1571.1912677965083,79.05000000000013 L 1580.5122340753642,95.19438717061495 L 1561.8703015176525,95.19438717061493 L 1571.1912677965083,79.05000000000013 Z" /><path d="M 1586.7476169826123,91.59438717061481 L 1577.4266507037564,75.44999999999996 L 1596.0685832614683,75.44999999999997 L 1586.7476169826123,91.59438717061481 Z" /><path d="M 1602.3039661687164,79.0500000000001 L 1611.6249324475723,95.19438717061495 L 1592.9829998898604,95.19438717061493 L 1602.3039661687164,79.0500000000001 Z" /><path d="M 1617.8603153548204,91.59438717061481 L 1608.5393490759645,75.44999999999996 L 1627.1812816336765,75.44999999999997 L 1617.8603153548204,91.59438717061481 Z" /><path d="M 1645.3730137270286,102.39438717061493 L 1645.3730137270286,126.30708554282303 L 1621.4603153548205,126.30708554282302 L 1621.4603153548205,102.39438717061493 L 1645.3730137270286,102.39438717061493 Z" /><path d="M 1676.4857120992367,102.39438717061493 L 1676.4857120992367,126.30708554282303 L 1652.5730137270284,126.30708554282302 L 1652.5730137270284,102.39438717061493 L 1676.4857120992367,102.39438717061493 Z" /><path d="M 1633.4166645409246,79.05000000000013 L 1642.7376308197804,95.19438717061495 L 1624.0956982620687,95.19438717061493 L 1633.4166645409246,79.05000000000013 Z" /><path d="M 1648.9730137270285,91.59438717061481 L 1639.6520474481727,75.44999999999996 L 1658.2939800058846,75.44999999999997 L 1648.9730137270285,91.59438717061481 Z" /><path d="M 1664.5293629131327,79.0500000000001 L 1673.8503291919885,95.19438717061495 L 1655.2083966342766,95.19438717061493 L 1664.5293629131327,79.0500000000001 Z" /><path d="M 1680.0857120992366,91.59438717061481 L 1670.7647458203808,75.44999999999996 L 1689.4066783780927,75.44999999999997 L 1680.0857120992366,91.59438717061481 Z" /><path d="M 1707.5984104714446,102.39438717061493 L 1707.5984104714446,126.30708554282303 L 1683.6857120992365,126.30708554282302 L 1683.6857120992365,102.39438717061493 L 1707.5984104714446,102.39438717061493 Z" /><path d="M 1738.7111088436527,102.39438717061493 L 1738.7111088436527,126.30708554282303 L 1714.7984104714444,126.30708554282302 L 1714.7984104714444,102.39438717061493 L 1738.7111088436527,102.39438717061493 Z" /><path d="M 1695.6420612853406,79.05000000000013 L 1704.9630275641964,95.19438717061495 L 1686.3210950064847,95.19438717061493 L 1695.6420612853406,79.05000000000013 Z" /><path d="M 1711.1984104714445,91.59438717061481 L 1701.8774441925887,75.44999999999996 L 1720.5193767503006,75.44999999999997 L 1711.1984104714445,91.59438717061481 Z" /><path d="M 1726.7547596575487,79.0500000000001 L 1736.0757259364045,95.19438717061495 L 1717.4337933786926,95.19438717061493 L 1726.7547596575487,79.0500000000001 Z" /><path d="M 820.8865068635143,44.337301627791874 L 820.8865068635143,68.25 L 796.9738084913063,68.24999999999999 L 796.9738084913063,44.337301627791874 L 820.8865068635143,44.337301627791874 Z" /><path d="M 793.3738084913062,33.53730162779195 L 784.0528422124501,17.392914457176914 L 802.6947747701624,17.392914457176914 L 793.3738084913062,33.53730162779195 Z" /><path d="M 808.9301576774103,20.992914457176852 L 818.2511239562665,37.137301627791885 L 799.6091913985541,37.137301627791885 L 808.9301576774103,20.992914457176852 Z" /><path d="M 824.4865068635144,33.53730162779195 L 815.1655405846582,17.392914457176914 L 833.8074731423706,17.392914457176914 L 824.4865068635144,33.53730162779195 Z" /><path d="M 851.9992052357225,44.337301627791874 L 851.9992052357225,68.25 L 828.0865068635144,68.24999999999999 L 828.0865068635144,44.337301627791874 L 851.9992052357225,44.337301627791874 Z" /><path d="M 883.1119036079306,44.337301627791874 L 883.1119036079306,68.25 L 859.1992052357225,68.24999999999999 L 859.1992052357225,44.337301627791874 L 883.1119036079306,44.337301627791874 Z" /><path d="M 840.0428560496184,20.992914457176852 L 849.3638223284746,37.137301627791885 L 830.7218897707622,37.137301627791885 L 840.0428560496184,20.992914457176852 Z" /><path d="M 855.5992052357225,33.53730162779195 L 846.2782389568663,17.392914457176914 L 864.9201715145787,17.392914457176914 L 855.5992052357225,33.53730162779195 Z" /><path d="M 871.1555544218265,20.992914457176852 L 880.4765207006827,37.137301627791885 L 861.8345881429703,37.137301627791885 L 871.1555544218265,20.992914457176852 Z" /><path d="M 886.7119036079306,33.53730162779195 L 877.3909373290744,17.392914457176914 L 896.0328698867868,17.392914457176914 L 886.7119036079306,33.53730162779195 Z" /><path d="M 914.2246019801386,44.337301627791874 L 914.2246019801386,68.25 L 890.3119036079305,68.24999999999999 L 890.3119036079305,44.337301627791874 L 914.2246019801386,44.337301627791874 Z" /><path d="M 945.3373003523467,44.337301627791874 L 945.3373003523467,68.25 L 921.4246019801386,68.24999999999999 L 921.4246019801386,44.337301627791874 L 945.3373003523467,44.337301627791874 Z" /><path d="M 902.2682527940345,20.992914457176852 L 911.5892190728907,37.137301627791885 L 892.9472865151783,37.137301627791885 L 902.2682527940345,20.992914457176852 Z" /><path d="M 917.8246019801386,33.53730162779195 L 908.5036357012824,17.392914457176914 L 927.1455682589948,17.392914457176914 L 917.8246019801386,33.53730162779195 Z" /><path d="M 933.3809511662427,20.992914457176852 L 942.7019174450988,37.137301627791885 L 924.0599848873865,37.137301627791885 L 933.3809511662427,20.992914457176852 Z" /><path d="M 948.9373003523467,33.53730162779195 L 939.6163340734905,17.392914457176914 L 958.2582666312028,17.392914457176914 L 948.9373003523467,33.53730162779195 Z" /><path d="M 976.4499987245547,44.337301627791874 L 976.4499987245547,68.25 L 952.5373003523466,68.24999999999999 L 952.5373003523466,44.337301627791874 L 976.4499987245547,44.337301627791874 Z" /><path d="M 1007.5626970967628,44.337301627791874 L 1007.5626970967628,68.25 L 983.6499987245547,68.24999999999999 L 983.6499987245547,44.337301627791874 L 1007.5626970967628,44.337301627791874 Z" /><path d="M 964.4936495384507,20.992914457176852 L 973.8146158173068,37.137301627791885 L 955.1726832595945,37.137301627791885 L 964.4936495384507,20.992914457176852 Z" /><path d="M 980.0499987245547,33.53730162779195 L 970.7290324456985,17.392914457176914 L 989.3709650034109,17.392914457176914 L 980.0499987245547,33.53730162779195 Z" /><path d="M 995.6063479106588,20.992914457176852 L 1004.927314189515,37.137301627791885 L 986.2853816318026,37.137301627791885 L 995.6063479106588,20.992914457176852 Z" /><path d="M 1011.1626970967628,33.53730162779195 L 1001.8417308179066,17.392914457176914 L 1020.483663375619,17.392914457176914 L 1011.1626970967628,33.53730162779195 Z" /><path d="M 1038.675395468971,44.337301627791874 L 1038.675395468971,68.25 L 1014.7626970967628,68.24999999999999 L 1014.7626970967628,44.337301627791874 L 1038.675395468971,44.337301627791874 Z" /><path d="M 1069.788093841179,44.337301627791874 L 1069.788093841179,68.25 L 1045.8753954689707,68.24999999999999 L 1045.8753954689707,44.337301627791874 L 1069.788093841179,44.337301627791874 Z" /><path d="M 1026.7190462828669,20.992914457176965 L 1036.040012561723,37.137301627791885 L 1017.3980800040108,37.137301627791885 L 1026.7190462828669,20.992914457176965 Z" /><path d="M 1042.2753954689708,33.53730162779178 L 1032.954429190115,17.392914457176914 L 1051.596361747827,17.392914457176914 L 1042.2753954689708,33.53730162779178 Z" /><path d="M 1057.831744655075,20.992914457177022 L 1067.1527109339308,37.137301627791885 L 1048.510778376219,37.137301627791885 L 1057.831744655075,20.992914457177022 Z" /><path d="M 1073.388093841179,33.53730162779178 L 1064.067127562323,17.392914457176914 L 1082.709060120035,17.392914457176914 L 1073.388093841179,33.53730162779178 Z" /><path d="M 1100.9007922133871,44.337301627791874 L 1100.9007922133871,68.25 L 1076.988093841179,68.24999999999999 L 1076.988093841179,44.337301627791874 L 1100.9007922133871,44.337301627791874 Z" /><path d="M 1132.0134905855953,44.337301627791874 L 1132.0134905855953,68.25 L 1108.100792213387,68.24999999999999 L 1108.100792213387,44.337301627791874 L 1132.0134905855953,44.337301627791874 Z" /><path d="M 1088.9444430272831,20.99291445717705 L 1098.265409306139,37.137301627791885 L 1079.6234767484273,37.137301627791885 L 1088.9444430272831,20.99291445717705 Z" /><path d="M 1104.500792213387,33.53730162779178 L 1095.1798259345312,17.392914457176914 L 1113.8217584922431,17.392914457176914 L 1104.500792213387,33.53730162779178 Z" /><path d="M 1120.0571413994912,20.992914457177022 L 1129.378107678347,37.137301627791885 L 1110.7361751206352,37.137301627791885 L 1120.0571413994912,20.992914457177022 Z" /><path d="M 1135.6134905855952,33.53730162779178 L 1126.2925243067393,17.392914457176914 L 1144.9344568644512,17.392914457176914 L 1135.6134905855952,33.53730162779178 Z" /><path d="M 1163.1261889578034,44.337301627791874 L 1163.1261889578034,68.25 L 1139.2134905855953,68.24999999999999 L 1139.2134905855953,44.337301627791874 L 1163.1261889578034,44.337301627791874 Z" /><path d="M 1194.2388873300115,44.337301627791874 L 1194.2388873300115,68.25 L 1170.3261889578032,68.24999999999999 L 1170.3261889578032,44.337301627791874 L 1194.2388873300115,44.337301627791874 Z" /><path d="M 1151.1698397716993,20.99291445717705 L 1160.4908060505552,37.137301627791885 L 1141.8488734928435,37.137301627791885 L 1151.1698397716993,20.99291445717705 Z" /><path d="M 1166.7261889578033,33.53730162779178 L 1157.4052226789474,17.392914457176914 L 1176.0471552366594,17.392914457176914 L 1166.7261889578033,33.53730162779178 Z" /><path d="M 1182.2825381439075,20.992914457177022 L 1191.6035044227633,37.137301627791885 L 1172.9615718650514,37.137301627791885 L 1182.2825381439075,20.992914457177022 Z" /><path d="M 1197.8388873300114,33.53730162779178 L 1188.5179210511556,17.392914457176914 L 1207.1598536088675,17.392914457176914 L 1197.8388873300114,33.53730162779178 Z" /><path d="M 1225.3515857022194,44.337301627791874 L 1225.3515857022194,68.25 L 1201.4388873300113,68.24999999999999 L 1201.4388873300113,44.337301627791874 L 1225.3515857022194,44.337301627791874 Z" /><path d="M 1256.4642840744275,44.337301627791874 L 1256.4642840744275,68.25 L 1232.5515857022192,68.24999999999999 L 1232.5515857022192,44.337301627791874 L 1256.4642840744275,44.337301627791874 Z" /><path d="M 1213.3952365161153,20.99291445717705 L 1222.7162027949712,37.137301627791885 L 1204.0742702372595,37.137301627791885 L 1213.3952365161153,20.99291445717705 Z" /><path d="M 1228.9515857022193,33.53730162779178 L 1219.6306194233634,17.392914457176914 L 1238.2725519810754,17.392914457176914 L 1228.9515857022193,33.53730162779178 Z" /><path d="M 1244.5079348883235,20.992914457177022 L 1253.8289011671793,37.137301627791885 L 1235.1869686094674,37.137301627791885 L 1244.5079348883235,20.992914457177022 Z" /><path d="M 1260.0642840744274,33.53730162779178 L 1250.7433177955716,17.392914457176914 L 1269.3852503532835,17.392914457176914 L 1260.0642840744274,33.53730162779178 Z" /><path d="M 1287.5769824466356,44.337301627791874 L 1287.5769824466356,68.25 L 1263.6642840744275,68.24999999999999 L 1263.6642840744275,44.337301627791874 L 1287.5769824466356,44.337301627791874 Z" /><path d="M 1318.6896808188437,44.337301627791874 L 1318.6896808188437,68.25 L 1294.7769824466354,68.24999999999999 L 1294.7769824466354,44.337301627791874 L 1318.6896808188437,44.337301627791874 Z" /><path d="M 1275.6206332605316,20.99291445717705 L 1284.9415995393874,37.137301627791885 L 1266.2996669816757,37.137301627791885 L 1275.6206332605316,20.99291445717705 Z" /><path d="M 1291.1769824466355,33.53730162779178 L 1281.8560161677797,17.392914457176914 L 1300.4979487254916,17.392914457176914 L 1291.1769824466355,33.53730162779178 Z" /><path d="M 1306.7333316327397,20.992914457177022 L 1316.0542979115955,37.137301627791885 L 1297.4123653538836,37.137301627791885 L 1306.7333316327397,20.992914457177022 Z" /><path d="M 1322.2896808188436,33.53730162779178 L 1312.9687145399878,17.392914457176914 L 1331.6106470976997,17.392914457176914 L 1322.2896808188436,33.53730162779178 Z" /><path d="M 1349.8023791910518,44.337301627791874 L 1349.8023791910518,68.25 L 1325.8896808188438,68.24999999999999 L 1325.8896808188438,44.337301627791874 L 1349.8023791910518,44.337301627791874 Z" /><path d="M 1380.91507756326,44.337301627791874 L 1380.91507756326,68.25 L 1357.0023791910517,68.24999999999999 L 1357.0023791910517,44.337301627791874 L 1380.91507756326,44.337301627791874 Z" /><path d="M 1337.8460300049478,20.99291445717705 L 1347.1669962838037,37.137301627791885 L 1328.525063726092,37.137301627791885 L 1337.8460300049478,20.99291445717705 Z" /><path d="M 1353.4023791910518,33.53730162779178 L 1344.081412912196,17.392914457176914 L 1362.7233454699078,17.392914457176914 L 1353.4023791910518,33.53730162779178 Z" /><path d="M 1368.958728377156,20.992914457177022 L 1378.2796946560118,37.137301627791885 L 1359.6377620982998,37.137301627791885 L 1368.958728377156,20.992914457177022 Z" /><path d="M 1384.5150775632599,33.53730162779178 L 1375.194111284404,17.392914457176914 L 1393.836043842116,17.392914457176914 L 1384.5150775632599,33.53730162779178 Z" /><path d="M 1412.0277759354678,44.337301627791874 L 1412.0277759354678,68.25 L 1388.1150775632598,68.24999999999999 L 1388.1150775632598,44.337301627791874 L 1412.0277759354678,44.337301627791874 Z" /><path d="M 1443.140474307676,44.337301627791874 L 1443.140474307676,68.25 L 1419.2277759354677,68.24999999999999 L 1419.2277759354677,44.337301627791874 L 1443.140474307676,44.337301627791874 Z" /><path d="M 1400.0714267493638,20.99291445717705 L 1409.3923930282197,37.137301627791885 L 1390.750460470508,37.137301627791885 L 1400.0714267493638,20.99291445717705 Z" /><path d="M 1415.6277759354678,33.53730162779178 L 1406.306809656612,17.392914457176914 L 1424.9487422143238,17.392914457176914 L 1415.6277759354678,33.53730162779178 Z" /><path d="M 1431.184125121572,20.992914457177022 L 1440.5050914004278,37.137301627791885 L 1421.8631588427158,37.137301627791885 L 1431.184125121572,20.992914457177022 Z" /><path d="M 1446.7404743076759,33.53730162779178 L 1437.41950802882,17.392914457176914 L 1456.061440586532,17.392914457176914 L 1446.7404743076759,33.53730162779178 Z" /><path d="M 1474.253172679884,44.337301627791874 L 1474.253172679884,68.25 L 1450.340474307676,68.24999999999999 L 1450.340474307676,44.337301627791874 L 1474.253172679884,44.337301627791874 Z" /><path d="M 1505.3658710520922,44.337301627791874 L 1505.3658710520922,68.25 L 1481.453172679884,68.24999999999999 L 1481.453172679884,44.337301627791874 L 1505.3658710520922,44.337301627791874 Z" /><path d="M 1462.29682349378,20.99291445717705 L 1471.617789772636,37.137301627791885 L 1452.9758572149242,37.137301627791885 L 1462.29682349378,20.99291445717705 Z" /><path d="M 1477.853172679884,33.53730162779178 L 1468.5322064010281,17.392914457176914 L 1487.17413895874,17.392914457176914 L 1477.853172679884,33.53730162779178 Z" /><path d="M 1493.4095218659882,20.992914457177022 L 1502.730488144844,37.137301627791885 L 1484.088555587132,37.137301627791885 L 1493.4095218659882,20.992914457177022 Z" /><path d="M 1508.965871052092,33.53730162779178 L 1499.6449047732362,17.392914457176914 L 1518.2868373309482,17.392914457176914 L 1508.965871052092,33.53730162779178 Z" /><path d="M 1536.4785694243003,44.337301627791874 L 1536.4785694243003,68.25 L 1512.5658710520922,68.24999999999999 L 1512.5658710520922,44.337301627791874 L 1536.4785694243003,44.337301627791874 Z" /><path d="M 1567.5912677965084,44.337301627791874 L 1567.5912677965084,68.25 L 1543.6785694243001,68.24999999999999 L 1543.6785694243001,44.337301627791874 L 1567.5912677965084,44.337301627791874 Z" /><path d="M 1524.5222202381963,20.99291445717705 L 1533.8431865170521,37.137301627791885 L 1515.2012539593404,37.137301627791885 L 1524.5222202381963,20.99291445717705 Z" /><path d="M 1540.0785694243002,33.53730162779178 L 1530.7576031454444,17.392914457176914 L 1549.3995357031563,17.392914457176914 L 1540.0785694243002,33.53730162779178 Z" /><path d="M 1555.6349186104044,20.992914457177022 L 1564.9558848892602,37.137301627791885 L 1546.3139523315483,37.137301627791885 L 1555.6349186104044,20.992914457177022 Z" /><path d="M 1571.1912677965083,33.53730162779178 L 1561.8703015176525,17.392914457176914 L 1580.5122340753644,17.392914457176914 L 1571.1912677965083,33.53730162779178 Z" /><path d="M 1598.7039661687165,44.337301627791874 L 1598.7039661687165,68.25 L 1574.7912677965085,68.24999999999999 L 1574.7912677965085,44.337301627791874 L 1598.7039661687165,44.337301627791874 Z" /><path d="M 1629.8166645409246,44.337301627791874 L 1629.8166645409246,68.25 L 1605.9039661687164,68.24999999999999 L 1605.9039661687164,44.337301627791874 L 1629.8166645409246,44.337301627791874 Z" /><path d="M 1586.7476169826125,20.99291445717705 L 1596.0685832614683,37.137301627791885 L 1577.4266507037566,37.137301627791885 L 1586.7476169826125,20.99291445717705 Z" /><path d="M 1602.3039661687164,33.53730162779178 L 1592.9829998898606,17.392914457176914 L 1611.6249324475725,17.392914457176914 L 1602.3039661687164,33.53730162779178 Z" /><path d="M 1617.8603153548206,20.992914457177022 L 1627.1812816336765,37.137301627791885 L 1608.5393490759645,37.137301627791885 L 1617.8603153548206,20.992914457177022 Z" /><path d="M 1633.4166645409246,33.53730162779178 L 1624.0956982620687,17.392914457176914 L 1642.7376308197806,17.392914457176914 L 1633.4166645409246,33.53730162779178 Z" /><path d="M 1660.9293629131328,44.337301627791874 L 1660.9293629131328,68.25 L 1637.0166645409247,68.24999999999999 L 1637.0166645409247,44.337301627791874 L 1660.9293629131328,44.337301627791874 Z" /><path d="M 1692.0420612853409,44.337301627791874 L 1692.0420612853409,68.25 L 1668.1293629131326,68.24999999999999 L 1668.1293629131326,44.337301627791874 L 1692.0420612853409,44.337301627791874 Z" /><path d="M 1648.9730137270287,20.99291445717705 L 1658.2939800058846,37.137301627791885 L 1639.6520474481729,37.137301627791885 L 1648.9730137270287,20.99291445717705 Z" /><path d="M 1664.5293629131327,33.53730162779178 L 1655.2083966342768,17.392914457176914 L 1673.8503291919887,17.392914457176914 L 1664.5293629131327,33.53730162779178 Z" /><path d="M 1680.0857120992368,20.992914457177022 L 1689.4066783780927,37.137301627791885 L 1670.7647458203808,37.137301627791885 L 1680.0857120992368,20.992914457177022 Z" /><path d="M 1695.6420612853408,33.53730162779178 L 1686.321095006485,17.392914457176914 L 1704.9630275641969,17.392914457176914 L 1695.6420612853408,33.53730162779178 Z" /><path d="M 1723.1547596575488,44.337301627791874 L 1723.1547596575488,68.25 L 1699.2420612853407,68.24999999999999 L 1699.2420612853407,44.337301627791874 L 1723.1547596575488,44.337301627791874 Z" /><path d="M 1711.1984104714447,20.99291445717705 L 1720.5193767503006,37.137301627791885 L 1701.8774441925889,37.137301627791885 L 1711.1984104714447,20.99291445717705 Z" /><path d="M 1726.7547596575487,33.53730162779178 L 1717.4337933786928,17.392914457176914 L 1736.0757259364048,17.392914457176914 L 1726.7547596575487,33.53730162779178 Z" /><path d="M 772.0642840744274,81.62959536606633 L 772.0642840744274,75.44999999999996 L 787.1384255840584,75.44999999999997 L 777.8174593052022,91.59438717061501 L 772.0642840744274,81.62959536606633 Z" /><path d="M 1748.0642840744274,30.957706261725548 L 1748.0642840744274,37.137301627791885 L 1732.9901425647968,37.137301627791885 L 1742.3111088436528,20.992914457177022 L 1748.0642840744274,30.957706261725548 Z" /><path d="M 1748.0642840744274,44.337301627791874 L 1748.0642840744274,68.25 L 1730.3547596575486,68.24999999999999 L 1730.3547596575486,44.337301627791874 L 1748.0642840744274,44.337301627791874 Z" /><path d="M 1732.9901425647968,75.44999999999996 L 1748.0642840744274,75.44999999999997 L 1748.0642840744274,81.62959536606614 L 1742.3111088436526,91.59438717061481 L 1732.9901425647968,75.44999999999996 Z" /><path d="M 787.1384255840584,37.137301627791885 L 772.0642840744274,37.137301627791885 L 772.0642840744274,30.95770626172552 L 777.8174593052022,20.992914457176852 L 787.1384255840584,37.137301627791885 Z" /><path d="M 1748.0642840744274,102.39438717061493 L 1748.0642840744274,126.30708554282302 L 1745.9111088436528,126.30708554282302 L 1745.9111088436528,102.39438717061493 L 1748.0642840744274,102.39438717061493 Z" /><path d="M 789.7738084913062,68.25 L 772.0642840744274,68.24999999999999 L 772.0642840744274,44.337301627791874 L 789.7738084913062,44.337301627791874 L 789.7738084913062,68.25 Z" /><path d="M 774.2174593052022,126.30708554282303 L 772.0642840744274,126.30708554282303 L 772.0642840744274,102.39438717061493 L 774.2174593052022,102.39438717061493 L 774.2174593052022,126.30708554282303 Z" /><path d="M 760.0642840744274,143.7 L 1760.0642840744274,143.7 L 1760.0642840744274,0.0 L 760.0642840744274,0.0 L 760.0642840744274,143.7 Z" /></g></svg>