<?xml version="1.0" encoding="UTF-8" standalone="no"?>
<svg
   height="300mm"
   version="1.1"
   viewBox="0 0 1200 300"
   width="1200mm"
   id="svg237"
   sodipodi:docname="tabica_2.1.svg"
   inkscape:version="1.4.2 (1:1.4.2+202505120737+ebf0e940d0)"
   xmlns:inkscape="http://www.inkscape.org/namespaces/inkscape"
   xmlns:sodipodi="http://sodipodi.sourceforge.net/DTD/sodipodi-0.dtd"
   xmlns="http://www.w3.org/2000/svg"
   xmlns:svg="http://www.w3.org/2000/svg">
  <sodipodi:namedview
     id="namedview237"
     pagecolor="#ffffff"
     bordercolor="#666666"
     borderopacity="1.0"
     inkscape:showpageshadow="2"
     inkscape:pageopacity="0.0"
     inkscape:pagecheckerboard="0"
     inkscape:deskcolor="#d1d1d1"
     inkscape:document-units="mm"
     showgrid="false"
     inkscape:zoom="0.36201657"
     inkscape:cx="1962.6173"
     inkscape:cy="541.41167"
     inkscape:window-width="1920"
     inkscape:window-height="1011"
     inkscape:window-x="0"
     inkscape:window-y="0"
     inkscape:window-maximized="1"
     inkscape:current-layer="svg237" />
  <defs
     id="defs1" />
  <g
     fill="none"
     stroke="blue"
     stroke-width="0.5"
     transform="translate(-68.2159082212874,65.0)"
     id="g237"
     style="vector-effect:non-scaling-stroke;-inkscape-stroke:hairline;stroke-width:0.26458333;stroke-dasharray:none">
    <path
       d="M 244.04373580230924,144.0 L 237.71590822128735,144.0 L 237.71590822128735,133.0398811281344 L 244.04373580230924,144.0 Z"
       id="path1"
       style="vector-effect:non-scaling-stroke;-inkscape-stroke:hairline;stroke-width:0.26458333;stroke-dasharray:none" />
    <path
       d="M 243.1304410629004,129.61812710905838 L 261.7438007042946,129.6181271090584 L 253.44042251925842,144.0 L 251.4338192479365,144.0 L 243.1304410629004,129.61812710905838 Z"
       id="path2"
       style="vector-effect:non-scaling-stroke;-inkscape-stroke:hairline;stroke-width:0.26458333;stroke-dasharray:none" />
    <path
       d="M 273.7422206121443,144.0 L 260.8305059648857,144.0 L 267.28636328851496,132.81812710905837 L 273.7422206121443,144.0 Z"
       id="path3"
       style="vector-effect:non-scaling-stroke;-inkscape-stroke:hairline;stroke-width:0.26458333;stroke-dasharray:none" />
    <path
       d="M 272.82892587273534,129.61812710905838 L 291.4422855141296,129.6181271090584 L 283.13890732909346,144.0 L 281.1323040577715,144.0 L 272.82892587273534,129.61812710905838 Z"
       id="path4"
       style="vector-effect:non-scaling-stroke;-inkscape-stroke:hairline;stroke-width:0.26458333;stroke-dasharray:none" />
    <path
       d="M 303.4407054219793,144.0 L 290.5289907747206,144.0 L 296.98484809834997,132.81812710905837 L 303.4407054219793,144.0 Z"
       id="path5"
       style="vector-effect:non-scaling-stroke;-inkscape-stroke:hairline;stroke-width:0.26458333;stroke-dasharray:none" />
    <path
       d="M 302.52741068257035,129.61812710905838 L 321.1407703239646,129.6181271090584 L 312.83739213892846,144.0 L 310.8307888676065,144.0 L 302.52741068257035,129.61812710905838 Z"
       id="path6"
       style="vector-effect:non-scaling-stroke;-inkscape-stroke:hairline;stroke-width:0.26458333;stroke-dasharray:none" />
    <path
       d="M 333.1391902318143,144.0 L 320.22747558455563,144.0 L 326.683332908185,132.81812710905837 L 333.1391902318143,144.0 Z"
       id="path7"
       style="vector-effect:non-scaling-stroke;-inkscape-stroke:hairline;stroke-width:0.26458333;stroke-dasharray:none" />
    <path
       d="M 332.22589549240536,129.61812710905838 L 350.8392551337996,129.6181271090584 L 342.5358769487635,144.0 L 340.5292736774415,144.0 L 332.22589549240536,129.61812710905838 Z"
       id="path8"
       style="vector-effect:non-scaling-stroke;-inkscape-stroke:hairline;stroke-width:0.26458333;stroke-dasharray:none" />
    <path
       d="M 362.8376750416493,144.0 L 349.9259603943906,144.0 L 356.38181771801993,132.81812710905837 L 362.8376750416493,144.0 Z"
       id="path9"
       style="vector-effect:non-scaling-stroke;-inkscape-stroke:hairline;stroke-width:0.26458333;stroke-dasharray:none" />
    <path
       d="M 361.9243803022403,129.61812710905838 L 380.53773994363456,129.6181271090584 L 372.2343617585984,144.0 L 370.22775848727645,144.0 L 361.9243803022403,129.61812710905838 Z"
       id="path10"
       style="vector-effect:non-scaling-stroke;-inkscape-stroke:hairline;stroke-width:0.26458333;stroke-dasharray:none" />
    <path
       d="M 392.5361598514843,144.0 L 379.6244452042256,144.0 L 386.08030252785494,132.81812710905837 L 392.5361598514843,144.0 Z"
       id="path11"
       style="vector-effect:non-scaling-stroke;-inkscape-stroke:hairline;stroke-width:0.26458333;stroke-dasharray:none" />
    <path
       d="M 391.6228651120753,129.61812710905838 L 410.2362247534695,129.6181271090584 L 401.9328465684334,144.0 L 399.9262432971114,144.0 L 391.6228651120753,129.61812710905838 Z"
       id="path12"
       style="vector-effect:non-scaling-stroke;-inkscape-stroke:hairline;stroke-width:0.26458333;stroke-dasharray:none" />
    <path
       d="M 422.23464466131924,144.0 L 409.32293001406055,144.0 L 415.7787873376899,132.81812710905837 L 422.23464466131924,144.0 Z"
       id="path13"
       style="vector-effect:non-scaling-stroke;-inkscape-stroke:hairline;stroke-width:0.26458333;stroke-dasharray:none" />
    <path
       d="M 421.32134992191027,129.61812710905838 L 439.9347095633045,129.6181271090584 L 431.6313313782684,144.0 L 429.6247281069464,144.0 L 421.32134992191027,129.61812710905838 Z"
       id="path14"
       style="vector-effect:non-scaling-stroke;-inkscape-stroke:hairline;stroke-width:0.26458333;stroke-dasharray:none" />
    <path
       d="M 451.93312947115425,144.0 L 439.02141482389555,144.0 L 445.4772721475249,132.81812710905837 L 451.93312947115425,144.0 Z"
       id="path15"
       style="vector-effect:non-scaling-stroke;-inkscape-stroke:hairline;stroke-width:0.26458333;stroke-dasharray:none" />
    <path
       d="M 451.0198347317453,129.61812710905838 L 469.63319437313953,129.6181271090584 L 461.3298161881034,144.0 L 459.3232129167814,144.0 L 451.0198347317453,129.61812710905838 Z"
       id="path16"
       style="vector-effect:non-scaling-stroke;-inkscape-stroke:hairline;stroke-width:0.26458333;stroke-dasharray:none" />
    <path
       d="M 481.63161428098925,144.0 L 468.71989963373056,144.0 L 475.1757569573599,132.81812710905837 L 481.63161428098925,144.0 Z"
       id="path17"
       style="vector-effect:non-scaling-stroke;-inkscape-stroke:hairline;stroke-width:0.26458333;stroke-dasharray:none" />
    <path
       d="M 480.7183195415803,129.61812710905838 L 499.33167918297454,129.6181271090584 L 491.0283009979384,144.0 L 489.0216977266164,144.0 L 480.7183195415803,129.61812710905838 Z"
       id="path18"
       style="vector-effect:non-scaling-stroke;-inkscape-stroke:hairline;stroke-width:0.26458333;stroke-dasharray:none" />
    <path
       d="M 511.33009909082426,144.0 L 498.41838444356557,144.0 L 504.8742417671949,132.81812710905837 L 511.33009909082426,144.0 Z"
       id="path19"
       style="vector-effect:non-scaling-stroke;-inkscape-stroke:hairline;stroke-width:0.26458333;stroke-dasharray:none" />
    <path
       d="M 510.4168043514153,129.61812710905838 L 529.0301639928095,129.6181271090584 L 520.7267858077734,144.0 L 518.7201825364515,144.0 L 510.4168043514153,129.61812710905838 Z"
       id="path20"
       style="vector-effect:non-scaling-stroke;-inkscape-stroke:hairline;stroke-width:0.26458333;stroke-dasharray:none" />
    <path
       d="M 541.0285839006593,144.0 L 528.1168692534005,144.0 L 534.5727265770299,132.81812710905837 L 541.0285839006593,144.0 Z"
       id="path21"
       style="vector-effect:non-scaling-stroke;-inkscape-stroke:hairline;stroke-width:0.26458333;stroke-dasharray:none" />
    <path
       d="M 540.1152891612503,129.61812710905838 L 558.7286488026446,129.6181271090584 L 550.4252706176084,144.0 L 548.4186673462865,144.0 L 540.1152891612503,129.61812710905838 Z"
       id="path22"
       style="vector-effect:non-scaling-stroke;-inkscape-stroke:hairline;stroke-width:0.26458333;stroke-dasharray:none" />
    <path
       d="M 570.7270687104943,144.0 L 557.8153540632355,144.0 L 564.2712113868649,132.81812710905837 L 570.7270687104943,144.0 Z"
       id="path23"
       style="vector-effect:non-scaling-stroke;-inkscape-stroke:hairline;stroke-width:0.26458333;stroke-dasharray:none" />
    <path
       d="M 569.8137739710853,129.61812710905838 L 588.4271336124796,129.6181271090584 L 580.1237554274434,144.0 L 578.1171521561215,144.0 L 569.8137739710853,129.61812710905838 Z"
       id="path24"
       style="vector-effect:non-scaling-stroke;-inkscape-stroke:hairline;stroke-width:0.26458333;stroke-dasharray:none" />
    <path
       d="M 600.4255535203293,144.0 L 587.5138388730705,144.0 L 593.9696961966999,132.81812710905837 L 600.4255535203293,144.0 Z"
       id="path25"
       style="vector-effect:non-scaling-stroke;-inkscape-stroke:hairline;stroke-width:0.26458333;stroke-dasharray:none" />
    <path
       d="M 599.5122587809203,129.61812710905838 L 618.1256184223146,129.6181271090584 L 609.8222402372784,144.0 L 607.8156369659565,144.0 L 599.5122587809203,129.61812710905838 Z"
       id="path26"
       style="vector-effect:non-scaling-stroke;-inkscape-stroke:hairline;stroke-width:0.26458333;stroke-dasharray:none" />
    <path
       d="M 630.1240383301644,144.0 L 617.2123236829055,144.0 L 623.668181006535,132.81812710905837 L 630.1240383301644,144.0 Z"
       id="path27"
       style="vector-effect:non-scaling-stroke;-inkscape-stroke:hairline;stroke-width:0.26458333;stroke-dasharray:none" />
    <path
       d="M 629.2107435907553,129.61812710905838 L 647.8241032321496,129.6181271090584 L 639.5207250471134,144.0 L 637.5141217757915,144.0 L 629.2107435907553,129.61812710905838 Z"
       id="path28"
       style="vector-effect:non-scaling-stroke;-inkscape-stroke:hairline;stroke-width:0.26458333;stroke-dasharray:none" />
    <path
       d="M 659.8225231399992,144.0 L 646.9108084927404,144.0 L 653.3666658163698,132.81812710905837 L 659.8225231399992,144.0 Z"
       id="path29"
       style="vector-effect:non-scaling-stroke;-inkscape-stroke:hairline;stroke-width:0.26458333;stroke-dasharray:none" />
    <path
       d="M 658.9092284005902,129.61812710905838 L 677.5225880419845,129.6181271090584 L 669.2192098569483,144.0 L 667.2126065856264,144.0 L 658.9092284005902,129.61812710905838 Z"
       id="path30"
       style="vector-effect:non-scaling-stroke;-inkscape-stroke:hairline;stroke-width:0.26458333;stroke-dasharray:none" />
    <path
       d="M 689.5210079498343,144.0 L 676.6092933025755,144.0 L 683.0651506262049,132.81812710905837 L 689.5210079498343,144.0 Z"
       id="path31"
       style="vector-effect:non-scaling-stroke;-inkscape-stroke:hairline;stroke-width:0.26458333;stroke-dasharray:none" />
    <path
       d="M 688.6077132104252,129.61812710905838 L 707.2210728518195,129.6181271090584 L 698.9176946667833,144.0 L 696.9110913954614,144.0 L 688.6077132104252,129.61812710905838 Z"
       id="path32"
       style="vector-effect:non-scaling-stroke;-inkscape-stroke:hairline;stroke-width:0.26458333;stroke-dasharray:none" />
    <path
       d="M 719.2194927596693,144.0 L 706.3077781124105,144.0 L 712.7636354360399,132.81812710905837 L 719.2194927596693,144.0 Z"
       id="path33"
       style="vector-effect:non-scaling-stroke;-inkscape-stroke:hairline;stroke-width:0.26458333;stroke-dasharray:none" />
    <path
       d="M 718.3061980202602,129.61812710905838 L 736.9195576616545,129.6181271090584 L 728.6161794766183,144.0 L 726.6095762052964,144.0 L 718.3061980202602,129.61812710905838 Z"
       id="path34"
       style="vector-effect:non-scaling-stroke;-inkscape-stroke:hairline;stroke-width:0.26458333;stroke-dasharray:none" />
    <path
       d="M 748.9179775695043,144.0 L 736.0062629222455,144.0 L 742.4621202458749,132.81812710905837 L 748.9179775695043,144.0 Z"
       id="path35"
       style="vector-effect:non-scaling-stroke;-inkscape-stroke:hairline;stroke-width:0.26458333;stroke-dasharray:none" />
    <path
       d="M 748.0046828300952,129.61812710905838 L 766.6180424714895,129.6181271090584 L 758.3146642864533,144.0 L 756.3080610151314,144.0 L 748.0046828300952,129.61812710905838 Z"
       id="path36"
       style="vector-effect:non-scaling-stroke;-inkscape-stroke:hairline;stroke-width:0.26458333;stroke-dasharray:none" />
    <path
       d="M 778.6164623793393,144.0 L 765.7047477320805,144.0 L 772.1606050557099,132.81812710905837 L 778.6164623793393,144.0 Z"
       id="path37"
       style="vector-effect:non-scaling-stroke;-inkscape-stroke:hairline;stroke-width:0.26458333;stroke-dasharray:none" />
    <path
       d="M 777.7031676399303,129.61812710905838 L 796.3165272813245,129.6181271090584 L 788.0131490962883,144.0 L 786.0065458249665,144.0 L 777.7031676399303,129.61812710905838 Z"
       id="path38"
       style="vector-effect:non-scaling-stroke;-inkscape-stroke:hairline;stroke-width:0.26458333;stroke-dasharray:none" />
    <path
       d="M 808.3149471891743,144.0 L 795.4032325419155,144.0 L 801.8590898655449,132.81812710905837 L 808.3149471891743,144.0 Z"
       id="path39"
       style="vector-effect:non-scaling-stroke;-inkscape-stroke:hairline;stroke-width:0.26458333;stroke-dasharray:none" />
    <path
       d="M 807.4016524497653,129.61812710905838 L 826.0150120911595,129.6181271090584 L 817.7116339061233,144.0 L 815.7050306348015,144.0 L 807.4016524497653,129.61812710905838 Z"
       id="path40"
       style="vector-effect:non-scaling-stroke;-inkscape-stroke:hairline;stroke-width:0.26458333;stroke-dasharray:none" />
    <path
       d="M 838.0134319990092,144.0 L 825.1017173517504,144.0 L 831.5575746753798,132.81812710905837 L 838.0134319990092,144.0 Z"
       id="path41"
       style="vector-effect:non-scaling-stroke;-inkscape-stroke:hairline;stroke-width:0.26458333;stroke-dasharray:none" />
    <path
       d="M 837.1001372596002,129.61812710905838 L 855.7134969009944,129.6181271090584 L 847.4101187159582,144.0 L 845.4035154446364,144.0 L 837.1001372596002,129.61812710905838 Z"
       id="path42"
       style="vector-effect:non-scaling-stroke;-inkscape-stroke:hairline;stroke-width:0.26458333;stroke-dasharray:none" />
    <path
       d="M 867.7119168088442,144.0 L 854.8002021615854,144.0 L 861.2560594852148,132.81812710905837 L 867.7119168088442,144.0 Z"
       id="path43"
       style="vector-effect:non-scaling-stroke;-inkscape-stroke:hairline;stroke-width:0.26458333;stroke-dasharray:none" />
    <path
       d="M 866.7986220694352,129.61812710905838 L 885.4119817108294,129.6181271090584 L 877.1086035257932,144.0 L 875.1020002544714,144.0 L 866.7986220694352,129.61812710905838 Z"
       id="path44"
       style="vector-effect:non-scaling-stroke;-inkscape-stroke:hairline;stroke-width:0.26458333;stroke-dasharray:none" />
    <path
       d="M 897.4104016186792,144.0 L 884.4986869714204,144.0 L 890.9545442950498,132.81812710905837 L 897.4104016186792,144.0 Z"
       id="path45"
       style="vector-effect:non-scaling-stroke;-inkscape-stroke:hairline;stroke-width:0.26458333;stroke-dasharray:none" />
    <path
       d="M 896.4971068792702,129.61812710905838 L 915.1104665206644,129.6181271090584 L 906.8070883356282,144.0 L 904.8004850643064,144.0 L 896.4971068792702,129.61812710905838 Z"
       id="path46"
       style="vector-effect:non-scaling-stroke;-inkscape-stroke:hairline;stroke-width:0.26458333;stroke-dasharray:none" />
    <path
       d="M 927.1088864285142,144.0 L 914.1971717812554,144.0 L 920.6530291048848,132.81812710905837 L 927.1088864285142,144.0 Z"
       id="path47"
       style="vector-effect:non-scaling-stroke;-inkscape-stroke:hairline;stroke-width:0.26458333;stroke-dasharray:none" />
    <path
       d="M 926.1955916891052,129.61812710905838 L 944.8089513304994,129.6181271090584 L 936.5055731454632,144.0 L 934.4989698741414,144.0 L 926.1955916891052,129.61812710905838 Z"
       id="path48"
       style="vector-effect:non-scaling-stroke;-inkscape-stroke:hairline;stroke-width:0.26458333;stroke-dasharray:none" />
    <path
       d="M 956.8073712383492,144.0 L 943.8956565910904,144.0 L 950.3515139147198,132.81812710905837 L 956.8073712383492,144.0 Z"
       id="path49"
       style="vector-effect:non-scaling-stroke;-inkscape-stroke:hairline;stroke-width:0.26458333;stroke-dasharray:none" />
    <path
       d="M 955.8940764989402,129.61812710905838 L 974.5074361403344,129.6181271090584 L 966.2040579552983,144.0 L 964.1974546839764,144.0 L 955.8940764989402,129.61812710905838 Z"
       id="path50"
       style="vector-effect:non-scaling-stroke;-inkscape-stroke:hairline;stroke-width:0.26458333;stroke-dasharray:none" />
    <path
       d="M 986.5058560481842,144.0 L 973.5941414009254,144.0 L 980.0499987245548,132.81812710905837 L 986.5058560481842,144.0 Z"
       id="path51"
       style="vector-effect:non-scaling-stroke;-inkscape-stroke:hairline;stroke-width:0.26458333;stroke-dasharray:none" />
    <path
       d="M 985.5925613087752,129.61812710905838 L 1004.2059209501695,129.6181271090584 L 995.9025427651333,144.0 L 993.8959394938114,144.0 L 985.5925613087752,129.61812710905838 Z"
       id="path52"
       style="vector-effect:non-scaling-stroke;-inkscape-stroke:hairline;stroke-width:0.26458333;stroke-dasharray:none" />
    <path
       d="M 1016.2043408580192,144.0 L 1003.2926262107604,144.0 L 1009.7484835343898,132.81812710905837 L 1016.2043408580192,144.0 Z"
       id="path53"
       style="vector-effect:non-scaling-stroke;-inkscape-stroke:hairline;stroke-width:0.26458333;stroke-dasharray:none" />
    <path
       d="M 1015.2910461186102,129.61812710905838 L 1033.9044057600045,129.6181271090584 L 1025.6010275749684,144.0 L 1023.5944243036464,144.0 L 1015.2910461186102,129.61812710905838 Z"
       id="path54"
       style="vector-effect:non-scaling-stroke;-inkscape-stroke:hairline;stroke-width:0.26458333;stroke-dasharray:none" />
    <path
       d="M 1045.9028256678541,144.0 L 1032.9911110205956,144.0 L 1039.4469683442248,132.81812710905837 L 1045.9028256678541,144.0 Z"
       id="path55"
       style="vector-effect:non-scaling-stroke;-inkscape-stroke:hairline;stroke-width:0.26458333;stroke-dasharray:none" />
    <path
       d="M 1044.9895309284452,129.61812710905838 L 1063.6028905698395,129.6181271090584 L 1055.2995123848034,144.0 L 1053.2929091134813,144.0 L 1044.9895309284452,129.61812710905838 Z"
       id="path56"
       style="vector-effect:non-scaling-stroke;-inkscape-stroke:hairline;stroke-width:0.26458333;stroke-dasharray:none" />
    <path
       d="M 1075.6013104776891,144.0 L 1062.6895958304306,144.0 L 1069.1454531540599,132.81812710905837 L 1075.6013104776891,144.0 Z"
       id="path57"
       style="vector-effect:non-scaling-stroke;-inkscape-stroke:hairline;stroke-width:0.26458333;stroke-dasharray:none" />
    <path
       d="M 1074.6880157382802,129.61812710905838 L 1093.3013753796745,129.6181271090584 L 1084.9979971946384,144.0 L 1082.9913939233163,144.0 L 1074.6880157382802,129.61812710905838 Z"
       id="path58"
       style="vector-effect:non-scaling-stroke;-inkscape-stroke:hairline;stroke-width:0.26458333;stroke-dasharray:none" />
    <path
       d="M 1098.7159082212875,133.03988112813434 L 1098.7159082212875,144.0 L 1092.3880806402656,144.0 L 1098.7159082212875,133.03988112813434 Z"
       id="path59"
       style="vector-effect:non-scaling-stroke;-inkscape-stroke:hairline;stroke-width:0.26458333;stroke-dasharray:none" />
    <path
       d="M 246.89455829937705,74.20000000000003 L 237.71590822128735,90.0978882801474 L 237.71590822128735,74.20000000000003 L 246.89455829937705,74.20000000000003 Z"
       id="path60"
       style="vector-effect:non-scaling-stroke;-inkscape-stroke:hairline;stroke-width:0.26458333;stroke-dasharray:none" />
    <path
       d="M 264.086363288515,99.91964229922341 L 264.086363288515,123.2181271090584 L 240.78787847867994,123.2181271090584 L 240.78787847867994,99.9196422992234 L 264.086363288515,99.91964229922341 Z"
       id="path61"
       style="vector-effect:non-scaling-stroke;-inkscape-stroke:hairline;stroke-width:0.26458333;stroke-dasharray:none" />
    <path
       d="M 293.78484809835,99.91964229922341 L 293.78484809835,123.2181271090584 L 270.48636328851495,123.2181271090584 L 270.48636328851495,99.9196422992234 L 293.78484809835,99.91964229922341 Z"
       id="path62"
       style="vector-effect:non-scaling-stroke;-inkscape-stroke:hairline;stroke-width:0.26458333;stroke-dasharray:none" />
    <path
       d="M 252.43712088359746,77.40000000000003 L 261.7438007042946,93.5196422992234 L 243.13044106290036,93.51964229922339 L 252.43712088359746,77.40000000000003 Z"
       id="path63"
       style="vector-effect:non-scaling-stroke;-inkscape-stroke:hairline;stroke-width:0.26458333;stroke-dasharray:none" />
    <path
       d="M 267.28636328851496,90.31964229922342 L 257.9796834678179,74.20000000000002 L 276.5930431092121,74.20000000000003 L 267.28636328851496,90.31964229922342 Z"
       id="path64"
       style="vector-effect:non-scaling-stroke;-inkscape-stroke:hairline;stroke-width:0.26458333;stroke-dasharray:none" />
    <path
       d="M 282.13560569343247,77.39999999999999 L 291.4422855141296,93.5196422992234 L 272.82892587273534,93.51964229922339 L 282.13560569343247,77.39999999999999 Z"
       id="path65"
       style="vector-effect:non-scaling-stroke;-inkscape-stroke:hairline;stroke-width:0.26458333;stroke-dasharray:none" />
    <path
       d="M 296.98484809834997,90.31964229922343 L 287.67816827765284,74.20000000000002 L 306.2915279190471,74.20000000000003 L 296.98484809834997,90.31964229922343 Z"
       id="path66"
       style="vector-effect:non-scaling-stroke;-inkscape-stroke:hairline;stroke-width:0.26458333;stroke-dasharray:none" />
    <path
       d="M 323.483332908185,99.91964229922341 L 323.483332908185,123.2181271090584 L 300.18484809834996,123.2181271090584 L 300.18484809834996,99.9196422992234 L 323.483332908185,99.91964229922341 Z"
       id="path67"
       style="vector-effect:non-scaling-stroke;-inkscape-stroke:hairline;stroke-width:0.26458333;stroke-dasharray:none" />
    <path
       d="M 353.18181771802,99.91964229922341 L 353.18181771802,123.2181271090584 L 329.88333290818497,123.2181271090584 L 329.88333290818497,99.9196422992234 L 353.18181771802,99.91964229922341 Z"
       id="path68"
       style="vector-effect:non-scaling-stroke;-inkscape-stroke:hairline;stroke-width:0.26458333;stroke-dasharray:none" />
    <path
       d="M 311.8340905032675,77.39999999999999 L 321.1407703239646,93.5196422992234 L 302.52741068257035,93.51964229922339 L 311.8340905032675,77.39999999999999 Z"
       id="path69"
       style="vector-effect:non-scaling-stroke;-inkscape-stroke:hairline;stroke-width:0.26458333;stroke-dasharray:none" />
    <path
       d="M 326.683332908185,90.31964229922343 L 317.37665308748785,74.20000000000002 L 335.9900127288821,74.20000000000003 L 326.683332908185,90.31964229922343 Z"
       id="path70"
       style="vector-effect:non-scaling-stroke;-inkscape-stroke:hairline;stroke-width:0.26458333;stroke-dasharray:none" />
    <path
       d="M 341.5325753131025,77.39999999999999 L 350.8392551337996,93.5196422992234 L 332.22589549240536,93.51964229922339 L 341.5325753131025,77.39999999999999 Z"
       id="path71"
       style="vector-effect:non-scaling-stroke;-inkscape-stroke:hairline;stroke-width:0.26458333;stroke-dasharray:none" />
    <path
       d="M 356.38181771802,90.31964229922343 L 347.07513789732286,74.20000000000002 L 365.6884975387171,74.20000000000003 L 356.38181771802,90.31964229922343 Z"
       id="path72"
       style="vector-effect:non-scaling-stroke;-inkscape-stroke:hairline;stroke-width:0.26458333;stroke-dasharray:none" />
    <path
       d="M 382.88030252785495,99.91964229922341 L 382.88030252785495,123.2181271090584 L 359.5818177180199,123.2181271090584 L 359.5818177180199,99.9196422992234 L 382.88030252785495,99.91964229922341 Z"
       id="path73"
       style="vector-effect:non-scaling-stroke;-inkscape-stroke:hairline;stroke-width:0.26458333;stroke-dasharray:none" />
    <path
       d="M 412.57878733768996,99.91964229922341 L 412.5787873376899,123.2181271090584 L 389.28030252785493,123.2181271090584 L 389.28030252785493,99.9196422992234 L 412.57878733768996,99.91964229922341 Z"
       id="path74"
       style="vector-effect:non-scaling-stroke;-inkscape-stroke:hairline;stroke-width:0.26458333;stroke-dasharray:none" />
    <path
       d="M 371.23106012293744,77.39999999999999 L 380.53773994363456,93.5196422992234 L 361.9243803022403,93.51964229922339 L 371.23106012293744,77.39999999999999 Z"
       id="path75"
       style="vector-effect:non-scaling-stroke;-inkscape-stroke:hairline;stroke-width:0.26458333;stroke-dasharray:none" />
    <path
       d="M 386.08030252785494,90.31964229922343 L 376.7736227071578,74.20000000000002 L 395.38698234855207,74.20000000000003 L 386.08030252785494,90.31964229922343 Z"
       id="path76"
       style="vector-effect:non-scaling-stroke;-inkscape-stroke:hairline;stroke-width:0.26458333;stroke-dasharray:none" />
    <path
       d="M 400.92954493277244,77.39999999999999 L 410.23622475346957,93.5196422992234 L 391.6228651120753,93.51964229922339 L 400.92954493277244,77.39999999999999 Z"
       id="path77"
       style="vector-effect:non-scaling-stroke;-inkscape-stroke:hairline;stroke-width:0.26458333;stroke-dasharray:none" />
    <path
       d="M 415.7787873376899,90.31964229922342 L 406.4721075169928,74.20000000000002 L 425.085467158387,74.20000000000003 L 415.7787873376899,90.31964229922342 Z"
       id="path78"
       style="vector-effect:non-scaling-stroke;-inkscape-stroke:hairline;stroke-width:0.26458333;stroke-dasharray:none" />
    <path
       d="M 442.2772721475249,99.91964229922341 L 442.2772721475249,123.2181271090584 L 418.9787873376899,123.2181271090584 L 418.9787873376899,99.9196422992234 L 442.2772721475249,99.91964229922341 Z"
       id="path79"
       style="vector-effect:non-scaling-stroke;-inkscape-stroke:hairline;stroke-width:0.26458333;stroke-dasharray:none" />
    <path
       d="M 471.9757569573599,99.91964229922341 L 471.9757569573599,123.2181271090584 L 448.6772721475249,123.2181271090584 L 448.6772721475249,99.9196422992234 L 471.9757569573599,99.91964229922341 Z"
       id="path80"
       style="vector-effect:non-scaling-stroke;-inkscape-stroke:hairline;stroke-width:0.26458333;stroke-dasharray:none" />
    <path
       d="M 430.6280297426074,77.39999999999999 L 439.9347095633045,93.5196422992234 L 421.32134992191027,93.51964229922339 L 430.6280297426074,77.39999999999999 Z"
       id="path81"
       style="vector-effect:non-scaling-stroke;-inkscape-stroke:hairline;stroke-width:0.26458333;stroke-dasharray:none" />
    <path
       d="M 445.4772721475249,90.31964229922343 L 436.1705923268278,74.20000000000002 L 454.783951968222,74.20000000000003 L 445.4772721475249,90.31964229922343 Z"
       id="path82"
       style="vector-effect:non-scaling-stroke;-inkscape-stroke:hairline;stroke-width:0.26458333;stroke-dasharray:none" />
    <path
       d="M 460.3265145524424,77.39999999999999 L 469.63319437313953,93.5196422992234 L 451.0198347317453,93.51964229922339 L 460.3265145524424,77.39999999999999 Z"
       id="path83"
       style="vector-effect:non-scaling-stroke;-inkscape-stroke:hairline;stroke-width:0.26458333;stroke-dasharray:none" />
    <path
       d="M 475.1757569573599,90.31964229922343 L 465.8690771366628,74.20000000000002 L 484.48243677805704,74.20000000000003 L 475.1757569573599,90.31964229922343 Z"
       id="path84"
       style="vector-effect:non-scaling-stroke;-inkscape-stroke:hairline;stroke-width:0.26458333;stroke-dasharray:none" />
    <path
       d="M 501.6742417671949,99.91964229922341 L 501.6742417671949,123.2181271090584 L 478.3757569573599,123.2181271090584 L 478.3757569573599,99.9196422992234 L 501.6742417671949,99.91964229922341 Z"
       id="path85"
       style="vector-effect:non-scaling-stroke;-inkscape-stroke:hairline;stroke-width:0.26458333;stroke-dasharray:none" />
    <path
       d="M 531.3727265770299,99.91964229922341 L 531.3727265770299,123.2181271090584 L 508.0742417671949,123.2181271090584 L 508.0742417671949,99.9196422992234 L 531.3727265770299,99.91964229922341 Z"
       id="path86"
       style="vector-effect:non-scaling-stroke;-inkscape-stroke:hairline;stroke-width:0.26458333;stroke-dasharray:none" />
    <path
       d="M 490.0249993622774,77.39999999999999 L 499.33167918297454,93.5196422992234 L 480.7183195415803,93.51964229922339 L 490.0249993622774,77.39999999999999 Z"
       id="path87"
       style="vector-effect:non-scaling-stroke;-inkscape-stroke:hairline;stroke-width:0.26458333;stroke-dasharray:none" />
    <path
       d="M 504.8742417671949,90.31964229922343 L 495.5675619464978,74.20000000000002 L 514.180921587892,74.20000000000003 L 504.8742417671949,90.31964229922343 Z"
       id="path88"
       style="vector-effect:non-scaling-stroke;-inkscape-stroke:hairline;stroke-width:0.26458333;stroke-dasharray:none" />
    <path
       d="M 519.7234841721124,77.39999999999999 L 529.0301639928095,93.5196422992234 L 510.4168043514153,93.51964229922339 L 519.7234841721124,77.39999999999999 Z"
       id="path89"
       style="vector-effect:non-scaling-stroke;-inkscape-stroke:hairline;stroke-width:0.26458333;stroke-dasharray:none" />
    <path
       d="M 534.5727265770299,90.31964229922343 L 525.2660467563328,74.20000000000002 L 543.879406397727,74.20000000000003 L 534.5727265770299,90.31964229922343 Z"
       id="path90"
       style="vector-effect:non-scaling-stroke;-inkscape-stroke:hairline;stroke-width:0.26458333;stroke-dasharray:none" />
    <path
       d="M 561.0712113868649,99.91964229922341 L 561.0712113868649,123.2181271090584 L 537.77272657703,123.2181271090584 L 537.77272657703,99.9196422992234 L 561.0712113868649,99.91964229922341 Z"
       id="path91"
       style="vector-effect:non-scaling-stroke;-inkscape-stroke:hairline;stroke-width:0.26458333;stroke-dasharray:none" />
    <path
       d="M 590.7696961966999,99.91964229922341 L 590.7696961966999,123.2181271090584 L 567.471211386865,123.2181271090584 L 567.471211386865,99.9196422992234 L 590.7696961966999,99.91964229922341 Z"
       id="path92"
       style="vector-effect:non-scaling-stroke;-inkscape-stroke:hairline;stroke-width:0.26458333;stroke-dasharray:none" />
    <path
       d="M 549.4219689819474,77.39999999999999 L 558.7286488026446,93.5196422992234 L 540.1152891612503,93.51964229922339 L 549.4219689819474,77.39999999999999 Z"
       id="path93"
       style="vector-effect:non-scaling-stroke;-inkscape-stroke:hairline;stroke-width:0.26458333;stroke-dasharray:none" />
    <path
       d="M 564.2712113868649,90.31964229922343 L 554.9645315661678,74.20000000000002 L 573.5778912075621,74.20000000000003 L 564.2712113868649,90.31964229922343 Z"
       id="path94"
       style="vector-effect:non-scaling-stroke;-inkscape-stroke:hairline;stroke-width:0.26458333;stroke-dasharray:none" />
    <path
       d="M 579.1204537917824,77.39999999999999 L 588.4271336124796,93.5196422992234 L 569.8137739710853,93.51964229922339 L 579.1204537917824,77.39999999999999 Z"
       id="path95"
       style="vector-effect:non-scaling-stroke;-inkscape-stroke:hairline;stroke-width:0.26458333;stroke-dasharray:none" />
    <path
       d="M 593.9696961966999,90.31964229922343 L 584.6630163760028,74.20000000000002 L 603.2763760173971,74.20000000000003 L 593.9696961966999,90.31964229922343 Z"
       id="path96"
       style="vector-effect:non-scaling-stroke;-inkscape-stroke:hairline;stroke-width:0.26458333;stroke-dasharray:none" />
    <path
       d="M 620.4681810065349,99.91964229922341 L 620.4681810065349,123.2181271090584 L 597.1696961967,123.2181271090584 L 597.1696961967,99.9196422992234 L 620.4681810065349,99.91964229922341 Z"
       id="path97"
       style="vector-effect:non-scaling-stroke;-inkscape-stroke:hairline;stroke-width:0.26458333;stroke-dasharray:none" />
    <path
       d="M 650.1666658163699,99.91964229922341 L 650.1666658163699,123.2181271090584 L 626.868181006535,123.2181271090584 L 626.868181006535,99.9196422992234 L 650.1666658163699,99.91964229922341 Z"
       id="path98"
       style="vector-effect:non-scaling-stroke;-inkscape-stroke:hairline;stroke-width:0.26458333;stroke-dasharray:none" />
    <path
       d="M 608.8189386016174,77.39999999999999 L 618.1256184223146,93.5196422992234 L 599.5122587809203,93.51964229922339 L 608.8189386016174,77.39999999999999 Z"
       id="path99"
       style="vector-effect:non-scaling-stroke;-inkscape-stroke:hairline;stroke-width:0.26458333;stroke-dasharray:none" />
    <path
       d="M 623.668181006535,90.31964229922343 L 614.3615011858378,74.20000000000002 L 632.9748608272321,74.20000000000003 L 623.668181006535,90.31964229922343 Z"
       id="path100"
       style="vector-effect:non-scaling-stroke;-inkscape-stroke:hairline;stroke-width:0.26458333;stroke-dasharray:none" />
    <path
       d="M 638.5174234114525,77.39999999999999 L 647.8241032321496,93.5196422992234 L 629.2107435907553,93.51964229922339 L 638.5174234114525,77.39999999999999 Z"
       id="path101"
       style="vector-effect:non-scaling-stroke;-inkscape-stroke:hairline;stroke-width:0.26458333;stroke-dasharray:none" />
    <path
       d="M 653.36666581637,90.31964229922343 L 644.0599859956728,74.20000000000002 L 662.6733456370671,74.20000000000003 L 653.36666581637,90.31964229922343 Z"
       id="path102"
       style="vector-effect:non-scaling-stroke;-inkscape-stroke:hairline;stroke-width:0.26458333;stroke-dasharray:none" />
    <path
       d="M 679.8651506262048,99.91964229922341 L 679.8651506262048,123.2181271090584 L 656.5666658163699,123.2181271090584 L 656.5666658163699,99.9196422992234 L 679.8651506262048,99.91964229922341 Z"
       id="path103"
       style="vector-effect:non-scaling-stroke;-inkscape-stroke:hairline;stroke-width:0.26458333;stroke-dasharray:none" />
    <path
       d="M 709.5636354360398,99.91964229922341 L 709.5636354360398,123.2181271090584 L 686.2651506262049,123.2181271090584 L 686.2651506262049,99.9196422992234 L 709.5636354360398,99.91964229922341 Z"
       id="path104"
       style="vector-effect:non-scaling-stroke;-inkscape-stroke:hairline;stroke-width:0.26458333;stroke-dasharray:none" />
    <path
       d="M 668.2159082212873,77.39999999999999 L 677.5225880419845,93.5196422992234 L 658.9092284005902,93.51964229922339 L 668.2159082212873,77.39999999999999 Z"
       id="path105"
       style="vector-effect:non-scaling-stroke;-inkscape-stroke:hairline;stroke-width:0.26458333;stroke-dasharray:none" />
    <path
       d="M 683.0651506262049,90.31964229922343 L 673.7584708055077,74.20000000000002 L 692.371830446902,74.20000000000003 L 683.0651506262049,90.31964229922343 Z"
       id="path106"
       style="vector-effect:non-scaling-stroke;-inkscape-stroke:hairline;stroke-width:0.26458333;stroke-dasharray:none" />
    <path
       d="M 697.9143930311224,77.39999999999999 L 707.2210728518195,93.5196422992234 L 688.6077132104252,93.51964229922339 L 697.9143930311224,77.39999999999999 Z"
       id="path107"
       style="vector-effect:non-scaling-stroke;-inkscape-stroke:hairline;stroke-width:0.26458333;stroke-dasharray:none" />
    <path
       d="M 712.7636354360399,90.31964229922343 L 703.4569556153427,74.20000000000002 L 722.070315256737,74.20000000000003 L 712.7636354360399,90.31964229922343 Z"
       id="path108"
       style="vector-effect:non-scaling-stroke;-inkscape-stroke:hairline;stroke-width:0.26458333;stroke-dasharray:none" />
    <path
       d="M 739.2621202458748,99.91964229922341 L 739.2621202458748,123.2181271090584 L 715.9636354360399,123.2181271090584 L 715.9636354360399,99.9196422992234 L 739.2621202458748,99.91964229922341 Z"
       id="path109"
       style="vector-effect:non-scaling-stroke;-inkscape-stroke:hairline;stroke-width:0.26458333;stroke-dasharray:none" />
    <path
       d="M 768.9606050557098,99.91964229922341 L 768.9606050557098,123.2181271090584 L 745.6621202458749,123.2181271090584 L 745.6621202458749,99.9196422992234 L 768.9606050557098,99.91964229922341 Z"
       id="path110"
       style="vector-effect:non-scaling-stroke;-inkscape-stroke:hairline;stroke-width:0.26458333;stroke-dasharray:none" />
    <path
       d="M 727.6128778409574,77.39999999999999 L 736.9195576616545,93.5196422992234 L 718.3061980202602,93.51964229922339 L 727.6128778409574,77.39999999999999 Z"
       id="path111"
       style="vector-effect:non-scaling-stroke;-inkscape-stroke:hairline;stroke-width:0.26458333;stroke-dasharray:none" />
    <path
       d="M 742.4621202458749,90.31964229922343 L 733.1554404251777,74.20000000000002 L 751.768800066572,74.20000000000003 L 742.4621202458749,90.31964229922343 Z"
       id="path112"
       style="vector-effect:non-scaling-stroke;-inkscape-stroke:hairline;stroke-width:0.26458333;stroke-dasharray:none" />
    <path
       d="M 757.3113626507924,77.39999999999999 L 766.6180424714895,93.5196422992234 L 748.0046828300952,93.51964229922339 L 757.3113626507924,77.39999999999999 Z"
       id="path113"
       style="vector-effect:non-scaling-stroke;-inkscape-stroke:hairline;stroke-width:0.26458333;stroke-dasharray:none" />
    <path
       d="M 772.1606050557099,90.31964229922343 L 762.8539252350128,74.20000000000002 L 781.467284876407,74.20000000000003 L 772.1606050557099,90.31964229922343 Z"
       id="path114"
       style="vector-effect:non-scaling-stroke;-inkscape-stroke:hairline;stroke-width:0.26458333;stroke-dasharray:none" />
    <path
       d="M 798.6590898655448,99.91964229922341 L 798.6590898655448,123.2181271090584 L 775.3606050557099,123.2181271090584 L 775.3606050557099,99.9196422992234 L 798.6590898655448,99.91964229922341 Z"
       id="path115"
       style="vector-effect:non-scaling-stroke;-inkscape-stroke:hairline;stroke-width:0.26458333;stroke-dasharray:none" />
    <path
       d="M 828.3575746753799,99.91964229922341 L 828.3575746753799,123.2181271090584 L 805.0590898655449,123.2181271090584 L 805.0590898655449,99.9196422992234 L 828.3575746753799,99.91964229922341 Z"
       id="path116"
       style="vector-effect:non-scaling-stroke;-inkscape-stroke:hairline;stroke-width:0.26458333;stroke-dasharray:none" />
    <path
       d="M 787.0098474606274,77.39999999999999 L 796.3165272813245,93.5196422992234 L 777.7031676399303,93.51964229922339 L 787.0098474606274,77.39999999999999 Z"
       id="path117"
       style="vector-effect:non-scaling-stroke;-inkscape-stroke:hairline;stroke-width:0.26458333;stroke-dasharray:none" />
    <path
       d="M 801.8590898655449,90.31964229922343 L 792.5524100448478,74.20000000000002 L 811.165769686242,74.20000000000003 L 801.8590898655449,90.31964229922343 Z"
       id="path118"
       style="vector-effect:non-scaling-stroke;-inkscape-stroke:hairline;stroke-width:0.26458333;stroke-dasharray:none" />
    <path
       d="M 816.7083322704624,77.39999999999999 L 826.0150120911595,93.5196422992234 L 807.4016524497653,93.51964229922339 L 816.7083322704624,77.39999999999999 Z"
       id="path119"
       style="vector-effect:non-scaling-stroke;-inkscape-stroke:hairline;stroke-width:0.26458333;stroke-dasharray:none" />
    <path
       d="M 831.5575746753799,90.31964229922343 L 822.2508948546828,74.20000000000002 L 840.864254496077,74.20000000000003 L 831.5575746753799,90.31964229922343 Z"
       id="path120"
       style="vector-effect:non-scaling-stroke;-inkscape-stroke:hairline;stroke-width:0.26458333;stroke-dasharray:none" />
    <path
       d="M 858.0560594852147,99.91964229922341 L 858.0560594852147,123.2181271090584 L 834.7575746753798,123.2181271090584 L 834.7575746753798,99.9196422992234 L 858.0560594852147,99.91964229922341 Z"
       id="path121"
       style="vector-effect:non-scaling-stroke;-inkscape-stroke:hairline;stroke-width:0.26458333;stroke-dasharray:none" />
    <path
       d="M 887.7545442950498,99.91964229922341 L 887.7545442950498,123.2181271090584 L 864.4560594852148,123.2181271090584 L 864.4560594852148,99.9196422992234 L 887.7545442950498,99.91964229922341 Z"
       id="path122"
       style="vector-effect:non-scaling-stroke;-inkscape-stroke:hairline;stroke-width:0.26458333;stroke-dasharray:none" />
    <path
       d="M 846.4068170802973,77.39999999999999 L 855.7134969009944,93.5196422992234 L 837.1001372596002,93.51964229922339 L 846.4068170802973,77.39999999999999 Z"
       id="path123"
       style="vector-effect:non-scaling-stroke;-inkscape-stroke:hairline;stroke-width:0.26458333;stroke-dasharray:none" />
    <path
       d="M 861.2560594852148,90.31964229922343 L 851.9493796645177,74.20000000000002 L 870.5627393059119,74.20000000000003 L 861.2560594852148,90.31964229922343 Z"
       id="path124"
       style="vector-effect:non-scaling-stroke;-inkscape-stroke:hairline;stroke-width:0.26458333;stroke-dasharray:none" />
    <path
       d="M 876.1053018901323,77.39999999999999 L 885.4119817108294,93.5196422992234 L 866.7986220694352,93.51964229922339 L 876.1053018901323,77.39999999999999 Z"
       id="path125"
       style="vector-effect:non-scaling-stroke;-inkscape-stroke:hairline;stroke-width:0.26458333;stroke-dasharray:none" />
    <path
       d="M 890.9545442950498,90.31964229922343 L 881.6478644743527,74.20000000000002 L 900.2612241157469,74.20000000000003 L 890.9545442950498,90.31964229922343 Z"
       id="path126"
       style="vector-effect:non-scaling-stroke;-inkscape-stroke:hairline;stroke-width:0.26458333;stroke-dasharray:none" />
    <path
       d="M 917.4530291048848,99.91964229922341 L 917.4530291048848,123.2181271090584 L 894.1545442950498,123.2181271090584 L 894.1545442950498,99.9196422992234 L 917.4530291048848,99.91964229922341 Z"
       id="path127"
       style="vector-effect:non-scaling-stroke;-inkscape-stroke:hairline;stroke-width:0.26458333;stroke-dasharray:none" />
    <path
       d="M 947.1515139147198,99.91964229922341 L 947.1515139147198,123.2181271090584 L 923.8530291048849,123.2181271090584 L 923.8530291048849,99.9196422992234 L 947.1515139147198,99.91964229922341 Z"
       id="path128"
       style="vector-effect:non-scaling-stroke;-inkscape-stroke:hairline;stroke-width:0.26458333;stroke-dasharray:none" />
    <path
       d="M 905.8037866999673,77.39999999999999 L 915.1104665206644,93.5196422992234 L 896.4971068792702,93.51964229922339 L 905.8037866999673,77.39999999999999 Z"
       id="path129"
       style="vector-effect:non-scaling-stroke;-inkscape-stroke:hairline;stroke-width:0.26458333;stroke-dasharray:none" />
    <path
       d="M 920.6530291048848,90.31964229922343 L 911.3463492841877,74.20000000000002 L 929.9597089255819,74.20000000000003 L 920.6530291048848,90.31964229922343 Z"
       id="path130"
       style="vector-effect:non-scaling-stroke;-inkscape-stroke:hairline;stroke-width:0.26458333;stroke-dasharray:none" />
    <path
       d="M 935.5022715098023,77.39999999999999 L 944.8089513304994,93.5196422992234 L 926.1955916891052,93.51964229922339 L 935.5022715098023,77.39999999999999 Z"
       id="path131"
       style="vector-effect:non-scaling-stroke;-inkscape-stroke:hairline;stroke-width:0.26458333;stroke-dasharray:none" />
    <path
       d="M 950.3515139147198,90.31964229922343 L 941.0448340940227,74.20000000000002 L 959.658193735417,74.20000000000003 L 950.3515139147198,90.31964229922343 Z"
       id="path132"
       style="vector-effect:non-scaling-stroke;-inkscape-stroke:hairline;stroke-width:0.26458333;stroke-dasharray:none" />
    <path
       d="M 976.8499987245548,99.91964229922341 L 976.8499987245548,123.2181271090584 L 953.5515139147199,123.2181271090584 L 953.5515139147199,99.9196422992234 L 976.8499987245548,99.91964229922341 Z"
       id="path133"
       style="vector-effect:non-scaling-stroke;-inkscape-stroke:hairline;stroke-width:0.26458333;stroke-dasharray:none" />
    <path
       d="M 1006.5484835343898,99.91964229922341 L 1006.5484835343898,123.2181271090584 L 983.2499987245549,123.2181271090584 L 983.2499987245549,99.9196422992234 L 1006.5484835343898,99.91964229922341 Z"
       id="path134"
       style="vector-effect:non-scaling-stroke;-inkscape-stroke:hairline;stroke-width:0.26458333;stroke-dasharray:none" />
    <path
       d="M 965.2007563196373,77.39999999999999 L 974.5074361403344,93.5196422992234 L 955.8940764989402,93.51964229922339 L 965.2007563196373,77.39999999999999 Z"
       id="path135"
       style="vector-effect:non-scaling-stroke;-inkscape-stroke:hairline;stroke-width:0.26458333;stroke-dasharray:none" />
    <path
       d="M 980.0499987245548,90.31964229922343 L 970.7433189038577,74.20000000000002 L 989.356678545252,74.20000000000003 L 980.0499987245548,90.31964229922343 Z"
       id="path136"
       style="vector-effect:non-scaling-stroke;-inkscape-stroke:hairline;stroke-width:0.26458333;stroke-dasharray:none" />
    <path
       d="M 994.8992411294723,77.39999999999999 L 1004.2059209501695,93.5196422992234 L 985.5925613087752,93.51964229922339 L 994.8992411294723,77.39999999999999 Z"
       id="path137"
       style="vector-effect:non-scaling-stroke;-inkscape-stroke:hairline;stroke-width:0.26458333;stroke-dasharray:none" />
    <path
       d="M 1009.7484835343898,90.31964229922343 L 1000.4418037136927,74.20000000000002 L 1019.055163355087,74.20000000000003 L 1009.7484835343898,90.31964229922343 Z"
       id="path138"
       style="vector-effect:non-scaling-stroke;-inkscape-stroke:hairline;stroke-width:0.26458333;stroke-dasharray:none" />
    <path
       d="M 1036.2469683442248,99.91964229922341 L 1036.2469683442248,123.2181271090584 L 1012.9484835343899,123.2181271090584 L 1012.9484835343899,99.9196422992234 L 1036.2469683442248,99.91964229922341 Z"
       id="path139"
       style="vector-effect:non-scaling-stroke;-inkscape-stroke:hairline;stroke-width:0.26458333;stroke-dasharray:none" />
    <path
       d="M 1065.9454531540598,99.91964229922341 L 1065.9454531540598,123.2181271090584 L 1042.646968344225,123.2181271090584 L 1042.646968344225,99.9196422992234 L 1065.9454531540598,99.91964229922341 Z"
       id="path140"
       style="vector-effect:non-scaling-stroke;-inkscape-stroke:hairline;stroke-width:0.26458333;stroke-dasharray:none" />
    <path
       d="M 1024.5977259393073,77.39999999999999 L 1033.9044057600045,93.5196422992234 L 1015.2910461186102,93.51964229922339 L 1024.5977259393073,77.39999999999999 Z"
       id="path141"
       style="vector-effect:non-scaling-stroke;-inkscape-stroke:hairline;stroke-width:0.26458333;stroke-dasharray:none" />
    <path
       d="M 1039.4469683442248,90.31964229922343 L 1030.1402885235277,74.20000000000002 L 1048.753648164922,74.20000000000003 L 1039.4469683442248,90.31964229922343 Z"
       id="path142"
       style="vector-effect:non-scaling-stroke;-inkscape-stroke:hairline;stroke-width:0.26458333;stroke-dasharray:none" />
    <path
       d="M 1054.2962107491423,77.39999999999999 L 1063.6028905698395,93.5196422992234 L 1044.9895309284452,93.51964229922339 L 1054.2962107491423,77.39999999999999 Z"
       id="path143"
       style="vector-effect:non-scaling-stroke;-inkscape-stroke:hairline;stroke-width:0.26458333;stroke-dasharray:none" />
    <path
       d="M 1069.1454531540599,90.31964229922343 L 1059.8387733333627,74.20000000000002 L 1078.452132974757,74.20000000000003 L 1069.1454531540599,90.31964229922343 Z"
       id="path144"
       style="vector-effect:non-scaling-stroke;-inkscape-stroke:hairline;stroke-width:0.26458333;stroke-dasharray:none" />
    <path
       d="M 1095.6439379638948,99.91964229922341 L 1095.6439379638948,123.2181271090584 L 1072.34545315406,123.2181271090584 L 1072.34545315406,99.9196422992234 L 1095.6439379638948,99.91964229922341 Z"
       id="path145"
       style="vector-effect:non-scaling-stroke;-inkscape-stroke:hairline;stroke-width:0.26458333;stroke-dasharray:none" />
    <path
       d="M 1083.9946955589774,77.39999999999999 L 1093.3013753796745,93.5196422992234 L 1074.6880157382802,93.51964229922339 L 1083.9946955589774,77.39999999999999 Z"
       id="path146"
       style="vector-effect:non-scaling-stroke;-inkscape-stroke:hairline;stroke-width:0.26458333;stroke-dasharray:none" />
    <path
       d="M 1089.5372581431977,74.20000000000002 L 1098.7159082212875,74.20000000000002 L 1098.7159082212875,90.09788828014746 L 1089.5372581431977,74.20000000000002 Z"
       id="path147"
       style="vector-effect:non-scaling-stroke;-inkscape-stroke:hairline;stroke-width:0.26458333;stroke-dasharray:none" />
    <path
       d="M 249.23712088359747,67.80000000000003 L 237.71590822128735,67.80000000000003 L 237.71590822128735,44.50151519016502 L 249.23712088359747,44.50151519016502 L 249.23712088359747,67.80000000000003 Z"
       id="path148"
       style="vector-effect:non-scaling-stroke;-inkscape-stroke:hairline;stroke-width:0.26458333;stroke-dasharray:none" />
    <path
       d="M 246.89455829937702,38.10151519016503 L 237.71590822128735,38.10151519016503 L 237.71590822128735,24.0 L 238.75304470835366,24.0 L 246.89455829937702,38.10151519016503 Z"
       id="path149"
       style="vector-effect:non-scaling-stroke;-inkscape-stroke:hairline;stroke-width:0.26458333;stroke-dasharray:none" />
    <path
       d="M 246.1431281539809,24.0 L 258.73111361321406,24.0 L 252.4371208835975,34.90151519016504 L 246.1431281539809,24.0 Z"
       id="path150"
       style="vector-effect:non-scaling-stroke;-inkscape-stroke:hairline;stroke-width:0.26458333;stroke-dasharray:none" />
    <path
       d="M 278.9356056934325,44.50151519016502 L 278.9356056934325,67.80000000000003 L 255.63712088359745,67.80000000000001 L 255.63712088359745,44.50151519016502 L 278.9356056934325,44.50151519016502 Z"
       id="path151"
       style="vector-effect:non-scaling-stroke;-inkscape-stroke:hairline;stroke-width:0.26458333;stroke-dasharray:none" />
    <path
       d="M 308.6340905032675,44.50151519016502 L 308.6340905032675,67.80000000000003 L 285.33560569343246,67.80000000000001 L 285.33560569343246,44.50151519016502 L 308.6340905032675,44.50151519016502 Z"
       id="path152"
       style="vector-effect:non-scaling-stroke;-inkscape-stroke:hairline;stroke-width:0.26458333;stroke-dasharray:none" />
    <path
       d="M 276.5930431092121,38.10151519016503 L 257.97968346781784,38.10151519016503 L 266.12119705884123,24.0 L 268.4515295181887,24.0 L 276.5930431092121,38.10151519016503 Z"
       id="path153"
       style="vector-effect:non-scaling-stroke;-inkscape-stroke:hairline;stroke-width:0.26458333;stroke-dasharray:none" />
    <path
       d="M 275.84161296381586,24.0 L 288.4295984230491,24.0 L 282.13560569343247,34.90151519016504 L 275.84161296381586,24.0 Z"
       id="path154"
       style="vector-effect:non-scaling-stroke;-inkscape-stroke:hairline;stroke-width:0.26458333;stroke-dasharray:none" />
    <path
       d="M 306.2915279190471,38.10151519016503 L 287.67816827765284,38.10151519016503 L 295.81968186867624,24.0 L 298.1500143280237,24.0 L 306.2915279190471,38.10151519016503 Z"
       id="path155"
       style="vector-effect:non-scaling-stroke;-inkscape-stroke:hairline;stroke-width:0.26458333;stroke-dasharray:none" />
    <path
       d="M 305.54009777365087,24.0 L 318.1280832328841,24.0 L 311.8340905032675,34.90151519016504 L 305.54009777365087,24.0 Z"
       id="path156"
       style="vector-effect:non-scaling-stroke;-inkscape-stroke:hairline;stroke-width:0.26458333;stroke-dasharray:none" />
    <path
       d="M 338.3325753131025,44.50151519016502 L 338.3325753131025,67.80000000000003 L 315.03409050326746,67.80000000000001 L 315.03409050326746,44.50151519016502 L 338.3325753131025,44.50151519016502 Z"
       id="path157"
       style="vector-effect:non-scaling-stroke;-inkscape-stroke:hairline;stroke-width:0.26458333;stroke-dasharray:none" />
    <path
       d="M 368.0310601229375,44.50151519016502 L 368.0310601229375,67.80000000000003 L 344.7325753131025,67.80000000000001 L 344.7325753131025,44.50151519016502 L 368.0310601229375,44.50151519016502 Z"
       id="path158"
       style="vector-effect:non-scaling-stroke;-inkscape-stroke:hairline;stroke-width:0.26458333;stroke-dasharray:none" />
    <path
       d="M 335.9900127288821,38.10151519016503 L 317.37665308748785,38.10151519016503 L 325.51816667851125,24.0 L 327.8484991378587,24.0 L 335.9900127288821,38.10151519016503 Z"
       id="path159"
       style="vector-effect:non-scaling-stroke;-inkscape-stroke:hairline;stroke-width:0.26458333;stroke-dasharray:none" />
    <path
       d="M 335.2385825834859,24.0 L 347.8265680427191,24.0 L 341.5325753131025,34.90151519016504 L 335.2385825834859,24.0 Z"
       id="path160"
       style="vector-effect:non-scaling-stroke;-inkscape-stroke:hairline;stroke-width:0.26458333;stroke-dasharray:none" />
    <path
       d="M 365.6884975387171,38.10151519016503 L 347.07513789732286,38.10151519016503 L 355.21665148834626,24.0 L 357.5469839476937,24.0 L 365.6884975387171,38.10151519016503 Z"
       id="path161"
       style="vector-effect:non-scaling-stroke;-inkscape-stroke:hairline;stroke-width:0.26458333;stroke-dasharray:none" />
    <path
       d="M 364.9370673933209,24.0 L 377.5250528525541,24.0 L 371.2310601229375,34.90151519016504 L 364.9370673933209,24.0 Z"
       id="path162"
       style="vector-effect:non-scaling-stroke;-inkscape-stroke:hairline;stroke-width:0.26458333;stroke-dasharray:none" />
    <path
       d="M 397.72954493277246,44.50151519016502 L 397.72954493277246,67.80000000000003 L 374.4310601229374,67.80000000000001 L 374.4310601229374,44.50151519016502 L 397.72954493277246,44.50151519016502 Z"
       id="path163"
       style="vector-effect:non-scaling-stroke;-inkscape-stroke:hairline;stroke-width:0.26458333;stroke-dasharray:none" />
    <path
       d="M 427.42802974260746,44.50151519016502 L 427.4280297426074,67.80000000000003 L 404.12954493277243,67.80000000000001 L 404.12954493277243,44.50151519016502 L 427.42802974260746,44.50151519016502 Z"
       id="path164"
       style="vector-effect:non-scaling-stroke;-inkscape-stroke:hairline;stroke-width:0.26458333;stroke-dasharray:none" />
    <path
       d="M 395.38698234855207,38.10151519016503 L 376.7736227071578,38.10151519016503 L 384.9151362981812,24.0 L 387.24546875752867,24.0 L 395.38698234855207,38.10151519016503 Z"
       id="path165"
       style="vector-effect:non-scaling-stroke;-inkscape-stroke:hairline;stroke-width:0.26458333;stroke-dasharray:none" />
    <path
       d="M 394.63555220315584,24.0 L 407.22353766238905,24.0 L 400.92954493277244,34.90151519016504 L 394.63555220315584,24.0 Z"
       id="path166"
       style="vector-effect:non-scaling-stroke;-inkscape-stroke:hairline;stroke-width:0.26458333;stroke-dasharray:none" />
    <path
       d="M 425.0854671583871,38.10151519016503 L 406.4721075169928,38.10151519016503 L 414.6136211080162,24.0 L 416.9439535673637,24.0 L 425.0854671583871,38.10151519016503 Z"
       id="path167"
       style="vector-effect:non-scaling-stroke;-inkscape-stroke:hairline;stroke-width:0.26458333;stroke-dasharray:none" />
    <path
       d="M 424.33403701299085,24.0 L 436.922022472224,24.0 L 430.6280297426074,34.90151519016504 L 424.33403701299085,24.0 Z"
       id="path168"
       style="vector-effect:non-scaling-stroke;-inkscape-stroke:hairline;stroke-width:0.26458333;stroke-dasharray:none" />
    <path
       d="M 457.1265145524424,44.50151519016502 L 457.1265145524424,67.80000000000003 L 433.8280297426074,67.80000000000001 L 433.8280297426074,44.50151519016502 L 457.1265145524424,44.50151519016502 Z"
       id="path169"
       style="vector-effect:non-scaling-stroke;-inkscape-stroke:hairline;stroke-width:0.26458333;stroke-dasharray:none" />
    <path
       d="M 486.8249993622774,44.50151519016502 L 486.8249993622774,67.80000000000003 L 463.5265145524424,67.80000000000001 L 463.5265145524424,44.50151519016502 L 486.8249993622774,44.50151519016502 Z"
       id="path170"
       style="vector-effect:non-scaling-stroke;-inkscape-stroke:hairline;stroke-width:0.26458333;stroke-dasharray:none" />
    <path
       d="M 454.783951968222,38.10151519016503 L 436.1705923268278,38.10151519016503 L 444.31210591785117,24.0 L 446.64243837719863,24.0 L 454.783951968222,38.10151519016503 Z"
       id="path171"
       style="vector-effect:non-scaling-stroke;-inkscape-stroke:hairline;stroke-width:0.26458333;stroke-dasharray:none" />
    <path
       d="M 454.0325218228258,24.0 L 466.620507282059,24.0 L 460.3265145524424,34.90151519016504 L 454.0325218228258,24.0 Z"
       id="path172"
       style="vector-effect:non-scaling-stroke;-inkscape-stroke:hairline;stroke-width:0.26458333;stroke-dasharray:none" />
    <path
       d="M 484.48243677805704,38.10151519016503 L 465.8690771366628,38.10151519016503 L 474.0105907276862,24.0 L 476.34092318703364,24.0 L 484.48243677805704,38.10151519016503 Z"
       id="path173"
       style="vector-effect:non-scaling-stroke;-inkscape-stroke:hairline;stroke-width:0.26458333;stroke-dasharray:none" />
    <path
       d="M 483.7310066326608,24.0 L 496.318992091894,24.0 L 490.0249993622774,34.90151519016504 L 483.7310066326608,24.0 Z"
       id="path174"
       style="vector-effect:non-scaling-stroke;-inkscape-stroke:hairline;stroke-width:0.26458333;stroke-dasharray:none" />
    <path
       d="M 516.5234841721124,44.50151519016502 L 516.5234841721124,67.80000000000003 L 493.2249993622774,67.80000000000001 L 493.2249993622774,44.50151519016502 L 516.5234841721124,44.50151519016502 Z"
       id="path175"
       style="vector-effect:non-scaling-stroke;-inkscape-stroke:hairline;stroke-width:0.26458333;stroke-dasharray:none" />
    <path
       d="M 546.2219689819474,44.50151519016502 L 546.2219689819474,67.80000000000003 L 522.9234841721125,67.80000000000001 L 522.9234841721125,44.50151519016502 L 546.2219689819474,44.50151519016502 Z"
       id="path176"
       style="vector-effect:non-scaling-stroke;-inkscape-stroke:hairline;stroke-width:0.26458333;stroke-dasharray:none" />
    <path
       d="M 514.180921587892,38.10151519016503 L 495.5675619464978,38.10151519016503 L 503.7090755375212,24.0 L 506.03940799686865,24.0 L 514.180921587892,38.10151519016503 Z"
       id="path177"
       style="vector-effect:non-scaling-stroke;-inkscape-stroke:hairline;stroke-width:0.26458333;stroke-dasharray:none" />
    <path
       d="M 513.4294914424959,24.0 L 526.017476901729,24.0 L 519.7234841721124,34.90151519016504 L 513.4294914424959,24.0 Z"
       id="path178"
       style="vector-effect:non-scaling-stroke;-inkscape-stroke:hairline;stroke-width:0.26458333;stroke-dasharray:none" />
    <path
       d="M 543.879406397727,38.10151519016503 L 525.2660467563328,38.10151519016503 L 533.4075603473563,24.0 L 535.7378928067036,24.0 L 543.879406397727,38.10151519016503 Z"
       id="path179"
       style="vector-effect:non-scaling-stroke;-inkscape-stroke:hairline;stroke-width:0.26458333;stroke-dasharray:none" />
    <path
       d="M 543.1279762523309,24.0 L 555.715961711564,24.0 L 549.4219689819474,34.90151519016504 L 543.1279762523309,24.0 Z"
       id="path180"
       style="vector-effect:non-scaling-stroke;-inkscape-stroke:hairline;stroke-width:0.26458333;stroke-dasharray:none" />
    <path
       d="M 575.9204537917824,44.50151519016502 L 575.9204537917824,67.80000000000003 L 552.6219689819475,67.80000000000001 L 552.6219689819475,44.50151519016502 L 575.9204537917824,44.50151519016502 Z"
       id="path181"
       style="vector-effect:non-scaling-stroke;-inkscape-stroke:hairline;stroke-width:0.26458333;stroke-dasharray:none" />
    <path
       d="M 605.6189386016174,44.50151519016502 L 605.6189386016174,67.80000000000003 L 582.3204537917825,67.80000000000001 L 582.3204537917825,44.50151519016502 L 605.6189386016174,44.50151519016502 Z"
       id="path182"
       style="vector-effect:non-scaling-stroke;-inkscape-stroke:hairline;stroke-width:0.26458333;stroke-dasharray:none" />
    <path
       d="M 573.5778912075621,38.10151519016503 L 554.9645315661678,38.10151519016503 L 563.1060451571913,24.0 L 565.4363776165386,24.0 L 573.5778912075621,38.10151519016503 Z"
       id="path183"
       style="vector-effect:non-scaling-stroke;-inkscape-stroke:hairline;stroke-width:0.26458333;stroke-dasharray:none" />
    <path
       d="M 572.8264610621659,24.0 L 585.414446521399,24.0 L 579.1204537917824,34.90151519016504 L 572.8264610621659,24.0 Z"
       id="path184"
       style="vector-effect:non-scaling-stroke;-inkscape-stroke:hairline;stroke-width:0.26458333;stroke-dasharray:none" />
    <path
       d="M 603.2763760173971,38.10151519016503 L 584.6630163760028,38.10151519016503 L 592.8045299670263,24.0 L 595.1348624263736,24.0 L 603.2763760173971,38.10151519016503 Z"
       id="path185"
       style="vector-effect:non-scaling-stroke;-inkscape-stroke:hairline;stroke-width:0.26458333;stroke-dasharray:none" />
    <path
       d="M 602.5249458720009,24.0 L 615.112931331234,24.0 L 608.8189386016174,34.90151519016504 L 602.5249458720009,24.0 Z"
       id="path186"
       style="vector-effect:non-scaling-stroke;-inkscape-stroke:hairline;stroke-width:0.26458333;stroke-dasharray:none" />
    <path
       d="M 635.3174234114524,44.50151519016502 L 635.3174234114524,67.80000000000003 L 612.0189386016175,67.80000000000001 L 612.0189386016175,44.50151519016502 L 635.3174234114524,44.50151519016502 Z"
       id="path187"
       style="vector-effect:non-scaling-stroke;-inkscape-stroke:hairline;stroke-width:0.26458333;stroke-dasharray:none" />
    <path
       d="M 665.0159082212874,44.50151519016502 L 665.0159082212874,67.80000000000003 L 641.7174234114525,67.80000000000001 L 641.7174234114525,44.50151519016502 L 665.0159082212874,44.50151519016502 Z"
       id="path188"
       style="vector-effect:non-scaling-stroke;-inkscape-stroke:hairline;stroke-width:0.26458333;stroke-dasharray:none" />
    <path
       d="M 632.9748608272321,38.10151519016503 L 614.3615011858378,38.10151519016503 L 622.5030147768613,24.0 L 624.8333472362086,24.0 L 632.9748608272321,38.10151519016503 Z"
       id="path189"
       style="vector-effect:non-scaling-stroke;-inkscape-stroke:hairline;stroke-width:0.26458333;stroke-dasharray:none" />
    <path
       d="M 632.2234306818359,24.0 L 644.811416141069,24.0 L 638.5174234114525,34.90151519016504 L 632.2234306818359,24.0 Z"
       id="path190"
       style="vector-effect:non-scaling-stroke;-inkscape-stroke:hairline;stroke-width:0.26458333;stroke-dasharray:none" />
    <path
       d="M 662.6733456370671,38.10151519016503 L 644.0599859956728,38.10151519016503 L 652.2014995866963,24.0 L 654.5318320460436,24.0 L 662.6733456370671,38.10151519016503 Z"
       id="path191"
       style="vector-effect:non-scaling-stroke;-inkscape-stroke:hairline;stroke-width:0.26458333;stroke-dasharray:none" />
    <path
       d="M 661.9219154916709,24.0 L 674.509900950904,24.0 L 668.2159082212875,34.90151519016504 L 661.9219154916709,24.0 Z"
       id="path192"
       style="vector-effect:non-scaling-stroke;-inkscape-stroke:hairline;stroke-width:0.26458333;stroke-dasharray:none" />
    <path
       d="M 694.7143930311223,44.50151519016502 L 694.7143930311223,67.80000000000003 L 671.4159082212874,67.80000000000001 L 671.4159082212874,44.50151519016502 L 694.7143930311223,44.50151519016502 Z"
       id="path193"
       style="vector-effect:non-scaling-stroke;-inkscape-stroke:hairline;stroke-width:0.26458333;stroke-dasharray:none" />
    <path
       d="M 724.4128778409573,44.50151519016502 L 724.4128778409573,67.80000000000003 L 701.1143930311224,67.80000000000001 L 701.1143930311224,44.50151519016502 L 724.4128778409573,44.50151519016502 Z"
       id="path194"
       style="vector-effect:non-scaling-stroke;-inkscape-stroke:hairline;stroke-width:0.26458333;stroke-dasharray:none" />
    <path
       d="M 692.371830446902,38.10151519016503 L 673.7584708055077,38.10151519016503 L 681.8999843965312,24.0 L 684.2303168558785,24.0 L 692.371830446902,38.10151519016503 Z"
       id="path195"
       style="vector-effect:non-scaling-stroke;-inkscape-stroke:hairline;stroke-width:0.26458333;stroke-dasharray:none" />
    <path
       d="M 691.6204003015058,24.0 L 704.2083857607389,24.0 L 697.9143930311224,34.90151519016504 L 691.6204003015058,24.0 Z"
       id="path196"
       style="vector-effect:non-scaling-stroke;-inkscape-stroke:hairline;stroke-width:0.26458333;stroke-dasharray:none" />
    <path
       d="M 722.070315256737,38.10151519016503 L 703.4569556153427,38.10151519016503 L 711.5984692063662,24.0 L 713.9288016657135,24.0 L 722.070315256737,38.10151519016503 Z"
       id="path197"
       style="vector-effect:non-scaling-stroke;-inkscape-stroke:hairline;stroke-width:0.26458333;stroke-dasharray:none" />
    <path
       d="M 721.3188851113408,24.0 L 733.9068705705739,24.0 L 727.6128778409574,34.90151519016504 L 721.3188851113408,24.0 Z"
       id="path198"
       style="vector-effect:non-scaling-stroke;-inkscape-stroke:hairline;stroke-width:0.26458333;stroke-dasharray:none" />
    <path
       d="M 754.1113626507923,44.50151519016502 L 754.1113626507923,67.80000000000003 L 730.8128778409574,67.80000000000001 L 730.8128778409574,44.50151519016502 L 754.1113626507923,44.50151519016502 Z"
       id="path199"
       style="vector-effect:non-scaling-stroke;-inkscape-stroke:hairline;stroke-width:0.26458333;stroke-dasharray:none" />
    <path
       d="M 783.8098474606273,44.50151519016502 L 783.8098474606273,67.80000000000003 L 760.5113626507924,67.80000000000001 L 760.5113626507924,44.50151519016502 L 783.8098474606273,44.50151519016502 Z"
       id="path200"
       style="vector-effect:non-scaling-stroke;-inkscape-stroke:hairline;stroke-width:0.26458333;stroke-dasharray:none" />
    <path
       d="M 751.768800066572,38.10151519016503 L 733.1554404251777,38.10151519016503 L 741.2969540162012,24.0 L 743.6272864755485,24.0 L 751.768800066572,38.10151519016503 Z"
       id="path201"
       style="vector-effect:non-scaling-stroke;-inkscape-stroke:hairline;stroke-width:0.26458333;stroke-dasharray:none" />
    <path
       d="M 751.0173699211758,24.0 L 763.6053553804089,24.0 L 757.3113626507924,34.90151519016504 L 751.0173699211758,24.0 Z"
       id="path202"
       style="vector-effect:non-scaling-stroke;-inkscape-stroke:hairline;stroke-width:0.26458333;stroke-dasharray:none" />
    <path
       d="M 781.467284876407,38.10151519016503 L 762.8539252350128,38.10151519016503 L 770.9954388260362,24.0 L 773.3257712853836,24.0 L 781.467284876407,38.10151519016503 Z"
       id="path203"
       style="vector-effect:non-scaling-stroke;-inkscape-stroke:hairline;stroke-width:0.26458333;stroke-dasharray:none" />
    <path
       d="M 780.7158547310108,24.0 L 793.3038401902439,24.0 L 787.0098474606274,34.90151519016504 L 780.7158547310108,24.0 Z"
       id="path204"
       style="vector-effect:non-scaling-stroke;-inkscape-stroke:hairline;stroke-width:0.26458333;stroke-dasharray:none" />
    <path
       d="M 813.5083322704623,44.50151519016502 L 813.5083322704623,67.80000000000003 L 790.2098474606274,67.80000000000001 L 790.2098474606274,44.50151519016502 L 813.5083322704623,44.50151519016502 Z"
       id="path205"
       style="vector-effect:non-scaling-stroke;-inkscape-stroke:hairline;stroke-width:0.26458333;stroke-dasharray:none" />
    <path
       d="M 843.2068170802974,44.50151519016502 L 843.2068170802974,67.80000000000003 L 819.9083322704624,67.80000000000001 L 819.9083322704624,44.50151519016502 L 843.2068170802974,44.50151519016502 Z"
       id="path206"
       style="vector-effect:non-scaling-stroke;-inkscape-stroke:hairline;stroke-width:0.26458333;stroke-dasharray:none" />
    <path
       d="M 811.165769686242,38.10151519016503 L 792.5524100448478,38.10151519016503 L 800.6939236358712,24.0 L 803.0242560952186,24.0 L 811.165769686242,38.10151519016503 Z"
       id="path207"
       style="vector-effect:non-scaling-stroke;-inkscape-stroke:hairline;stroke-width:0.26458333;stroke-dasharray:none" />
    <path
       d="M 810.4143395408458,24.0 L 823.0023250000789,24.0 L 816.7083322704624,34.90151519016504 L 810.4143395408458,24.0 Z"
       id="path208"
       style="vector-effect:non-scaling-stroke;-inkscape-stroke:hairline;stroke-width:0.26458333;stroke-dasharray:none" />
    <path
       d="M 840.864254496077,38.10151519016503 L 822.2508948546828,38.10151519016503 L 830.3924084457062,24.0 L 832.7227409050536,24.0 L 840.864254496077,38.10151519016503 Z"
       id="path209"
       style="vector-effect:non-scaling-stroke;-inkscape-stroke:hairline;stroke-width:0.26458333;stroke-dasharray:none" />
    <path
       d="M 840.1128243506809,24.0 L 852.700809809914,24.0 L 846.4068170802974,34.90151519016504 L 840.1128243506809,24.0 Z"
       id="path210"
       style="vector-effect:non-scaling-stroke;-inkscape-stroke:hairline;stroke-width:0.26458333;stroke-dasharray:none" />
    <path
       d="M 872.9053018901323,44.50151519016502 L 872.9053018901323,67.80000000000003 L 849.6068170802973,67.80000000000001 L 849.6068170802973,44.50151519016502 L 872.9053018901323,44.50151519016502 Z"
       id="path211"
       style="vector-effect:non-scaling-stroke;-inkscape-stroke:hairline;stroke-width:0.26458333;stroke-dasharray:none" />
    <path
       d="M 902.6037866999673,44.50151519016502 L 902.6037866999673,67.80000000000003 L 879.3053018901323,67.80000000000001 L 879.3053018901323,44.50151519016502 L 902.6037866999673,44.50151519016502 Z"
       id="path212"
       style="vector-effect:non-scaling-stroke;-inkscape-stroke:hairline;stroke-width:0.26458333;stroke-dasharray:none" />
    <path
       d="M 870.5627393059119,38.10151519016503 L 851.9493796645177,38.10151519016503 L 860.0908932555411,24.0 L 862.4212257148885,24.0 L 870.5627393059119,38.10151519016503 Z"
       id="path213"
       style="vector-effect:non-scaling-stroke;-inkscape-stroke:hairline;stroke-width:0.26458333;stroke-dasharray:none" />
    <path
       d="M 869.8113091605157,24.0 L 882.3992946197488,24.0 L 876.1053018901323,34.90151519016504 L 869.8113091605157,24.0 Z"
       id="path214"
       style="vector-effect:non-scaling-stroke;-inkscape-stroke:hairline;stroke-width:0.26458333;stroke-dasharray:none" />
    <path
       d="M 900.2612241157469,38.10151519016503 L 881.6478644743527,38.10151519016503 L 889.7893780653761,24.0 L 892.1197105247235,24.0 L 900.2612241157469,38.10151519016503 Z"
       id="path215"
       style="vector-effect:non-scaling-stroke;-inkscape-stroke:hairline;stroke-width:0.26458333;stroke-dasharray:none" />
    <path
       d="M 899.5097939703508,24.0 L 912.0977794295839,24.0 L 905.8037866999673,34.90151519016504 L 899.5097939703508,24.0 Z"
       id="path216"
       style="vector-effect:non-scaling-stroke;-inkscape-stroke:hairline;stroke-width:0.26458333;stroke-dasharray:none" />
    <path
       d="M 932.3022715098023,44.50151519016502 L 932.3022715098023,67.80000000000003 L 909.0037866999673,67.80000000000001 L 909.0037866999673,44.50151519016502 L 932.3022715098023,44.50151519016502 Z"
       id="path217"
       style="vector-effect:non-scaling-stroke;-inkscape-stroke:hairline;stroke-width:0.26458333;stroke-dasharray:none" />
    <path
       d="M 962.0007563196373,44.50151519016502 L 962.0007563196373,67.80000000000003 L 938.7022715098024,67.80000000000001 L 938.7022715098024,44.50151519016502 L 962.0007563196373,44.50151519016502 Z"
       id="path218"
       style="vector-effect:non-scaling-stroke;-inkscape-stroke:hairline;stroke-width:0.26458333;stroke-dasharray:none" />
    <path
       d="M 929.9597089255819,38.10151519016503 L 911.3463492841877,38.10151519016503 L 919.4878628752111,24.0 L 921.8181953345585,24.0 L 929.9597089255819,38.10151519016503 Z"
       id="path219"
       style="vector-effect:non-scaling-stroke;-inkscape-stroke:hairline;stroke-width:0.26458333;stroke-dasharray:none" />
    <path
       d="M 929.2082787801858,24.0 L 941.7962642394189,24.0 L 935.5022715098023,34.90151519016504 L 929.2082787801858,24.0 Z"
       id="path220"
       style="vector-effect:non-scaling-stroke;-inkscape-stroke:hairline;stroke-width:0.26458333;stroke-dasharray:none" />
    <path
       d="M 959.658193735417,38.10151519016503 L 941.0448340940227,38.10151519016503 L 949.1863476850461,24.0 L 951.5166801443935,24.0 L 959.658193735417,38.10151519016503 Z"
       id="path221"
       style="vector-effect:non-scaling-stroke;-inkscape-stroke:hairline;stroke-width:0.26458333;stroke-dasharray:none" />
    <path
       d="M 958.9067635900208,24.0 L 971.4947490492539,24.0 L 965.2007563196373,34.90151519016504 L 958.9067635900208,24.0 Z"
       id="path222"
       style="vector-effect:non-scaling-stroke;-inkscape-stroke:hairline;stroke-width:0.26458333;stroke-dasharray:none" />
    <path
       d="M 991.6992411294723,44.50151519016502 L 991.6992411294723,67.80000000000003 L 968.4007563196374,67.80000000000001 L 968.4007563196374,44.50151519016502 L 991.6992411294723,44.50151519016502 Z"
       id="path223"
       style="vector-effect:non-scaling-stroke;-inkscape-stroke:hairline;stroke-width:0.26458333;stroke-dasharray:none" />
    <path
       d="M 1021.3977259393073,44.50151519016502 L 1021.3977259393073,67.80000000000003 L 998.0992411294724,67.80000000000001 L 998.0992411294724,44.50151519016502 L 1021.3977259393073,44.50151519016502 Z"
       id="path224"
       style="vector-effect:non-scaling-stroke;-inkscape-stroke:hairline;stroke-width:0.26458333;stroke-dasharray:none" />
    <path
       d="M 989.356678545252,38.10151519016503 L 970.7433189038577,38.10151519016503 L 978.8848324948812,24.0 L 981.2151649542285,24.0 L 989.356678545252,38.10151519016503 Z"
       id="path225"
       style="vector-effect:non-scaling-stroke;-inkscape-stroke:hairline;stroke-width:0.26458333;stroke-dasharray:none" />
    <path
       d="M 988.6052483998558,24.0 L 1001.1932338590889,24.0 L 994.8992411294723,34.90151519016504 L 988.6052483998558,24.0 Z"
       id="path226"
       style="vector-effect:non-scaling-stroke;-inkscape-stroke:hairline;stroke-width:0.26458333;stroke-dasharray:none" />
    <path
       d="M 1019.055163355087,38.10151519016503 L 1000.4418037136927,38.10151519016503 L 1008.5833173047162,24.0 L 1010.9136497640635,24.0 L 1019.055163355087,38.10151519016503 Z"
       id="path227"
       style="vector-effect:non-scaling-stroke;-inkscape-stroke:hairline;stroke-width:0.26458333;stroke-dasharray:none" />
    <path
       d="M 1018.3037332096908,24.0 L 1030.8917186689239,24.0 L 1024.5977259393073,34.90151519016504 L 1018.3037332096908,24.0 Z"
       id="path228"
       style="vector-effect:non-scaling-stroke;-inkscape-stroke:hairline;stroke-width:0.26458333;stroke-dasharray:none" />
    <path
       d="M 1051.0962107491423,44.50151519016502 L 1051.0962107491423,67.80000000000003 L 1027.7977259393074,67.80000000000001 L 1027.7977259393074,44.50151519016502 L 1051.0962107491423,44.50151519016502 Z"
       id="path229"
       style="vector-effect:non-scaling-stroke;-inkscape-stroke:hairline;stroke-width:0.26458333;stroke-dasharray:none" />
    <path
       d="M 1080.7946955589773,44.50151519016502 L 1080.7946955589773,67.80000000000003 L 1057.4962107491424,67.80000000000001 L 1057.4962107491424,44.50151519016502 L 1080.7946955589773,44.50151519016502 Z"
       id="path230"
       style="vector-effect:non-scaling-stroke;-inkscape-stroke:hairline;stroke-width:0.26458333;stroke-dasharray:none" />
    <path
       d="M 1048.753648164922,38.10151519016503 L 1030.1402885235277,38.10151519016503 L 1038.281802114551,24.0 L 1040.6121345738986,24.0 L 1048.753648164922,38.10151519016503 Z"
       id="path231"
       style="vector-effect:non-scaling-stroke;-inkscape-stroke:hairline;stroke-width:0.26458333;stroke-dasharray:none" />
    <path
       d="M 1048.0022180195258,24.0 L 1060.590203478759,24.0 L 1054.2962107491423,34.90151519016504 L 1048.0022180195258,24.0 Z"
       id="path232"
       style="vector-effect:non-scaling-stroke;-inkscape-stroke:hairline;stroke-width:0.26458333;stroke-dasharray:none" />
    <path
       d="M 1078.452132974757,38.10151519016503 L 1059.8387733333627,38.10151519016503 L 1067.980286924386,24.0 L 1070.3106193837336,24.0 L 1078.452132974757,38.10151519016503 Z"
       id="path233"
       style="vector-effect:non-scaling-stroke;-inkscape-stroke:hairline;stroke-width:0.26458333;stroke-dasharray:none" />
    <path
       d="M 1077.7007028293608,24.0 L 1090.288688288594,24.0 L 1083.9946955589774,34.90151519016504 L 1077.7007028293608,24.0 Z"
       id="path234"
       style="vector-effect:non-scaling-stroke;-inkscape-stroke:hairline;stroke-width:0.26458333;stroke-dasharray:none" />
    <path
       d="M 1087.1946955589774,67.80000000000001 L 1087.1946955589774,44.50151519016502 L 1098.7159082212875,44.50151519016502 L 1098.7159082212875,67.80000000000001 L 1087.1946955589774,67.80000000000001 Z"
       id="path235"
       style="vector-effect:non-scaling-stroke;-inkscape-stroke:hairline;stroke-width:0.26458333;stroke-dasharray:none" />
    <path
       d="M 1089.5372581431977,38.10151519016503 L 1097.678771734221,24.0 L 1098.7159082212875,24.0 L 1098.7159082212875,38.10151519016503 L 1089.5372581431977,38.10151519016503 Z"
       id="path236"
       style="vector-effect:non-scaling-stroke;-inkscape-stroke:hairline;stroke-width:0.26458333;stroke-dasharray:none" />
    <path
       d="M 215.71590822128735,170.0 L 1120.7159082212875,170.0 L 1120.7159082212875,0.0 L 215.71590822128735,0.0 L 215.71590822128735,170.0 Z"
       id="path237"
       style="vector-effect:non-scaling-stroke;-inkscape-stroke:hairline;stroke-width:0.26458333;stroke-dasharray:none" />
  </g>
</svg>
