  0
SECTION
  2
HEADER
  9
$ACADVER
  1
AC1014
  9
$HANDSEED
  5
FFFF
  9
$INSUNITS
 70
     4
  9
$MEASUREMENT
 70
     1
  0
ENDSEC
  0
SECTION
  2
TABLES
  0
TABLE
  2
VPORT
  5
8
330
0
100
AcDbSymbolTable
 70
     4
  0
VPORT
  5
2E
330
8
100
AcDbSymbolTableRecord
100
AcDbViewportTableRecord
  2
*ACTIVE
 70
     0
 10
0.0
 20
0.0
 11
1.0
 21
1.0
 12
210.0
 22
148.5
 13
0.0
 23
0.0
 14
10.0
 24
10.0
 15
10.0
 25
10.0
 16
0.0
 26
0.0
 36
1.0
 17
0.0
 27
0.0
 37
0.0
 40
341.0
 41
1.24
 42
50.0
 43
0.0
 44
0.0
 50
0.0
 51
0.0
 71
     0
 72
   100
 73
     1
 74
     3
 75
     0
 76
     0
 77
     0
 78
     0
  0
ENDTAB
  0
TABLE
  2
LTYPE
  5
5
330
0
100
AcDbSymbolTable
 70
     1
  0
LTYPE
  5
14
330
5
100
AcDbSymbolTableRecord
100
AcDbLinetypeTableRecord
  2
BYBLOCK
 70
     0
  3

 72
    65
 73
     0
 40
0.0
  0
LTYPE
  5
15
330
5
100
AcDbSymbolTableRecord
100
AcDbLinetypeTableRecord
  2
BYLAYER
 70
     0
  3

 72
    65
 73
     0
 40
0.0
  0
LTYPE
  5
16
330
5
100
AcDbSymbolTableRecord
100
AcDbLinetypeTableRecord
  2
CONTINUOUS
 70
     0
  3
Solid line
 72
    65
 73
     0
 40
0.0
  0
ENDTAB
  0
TABLE
  2
LAYER
  5
2
100
AcDbSymbolTable
 70
1
  0
LAYER
  5
50
100
AcDbSymbolTableRecord
100
AcDbLayerTableRecord
  2
0
 70
0
  6
CONTINUOUS
  0
ENDTAB
  0
TABLE
  2
STYLE
  5
3
330
0
100
AcDbSymbolTable
 70
     1
  0
STYLE
  5
11
330
3
100
AcDbSymbolTableRecord
100
AcDbTextStyleTableRecord
  2
STANDARD
 70
     0
 40
0.0
 41
1.0
 50
0.0
 71
     0
 42
2.5
  3
txt
  4

  0
ENDTAB
  0
TABLE
  2
VIEW
  5
6
330
0
100
AcDbSymbolTable
 70
     0
  0
ENDTAB
  0
TABLE
  2
UCS
  5
7
330
0
100
AcDbSymbolTable
 70
     0
  0
ENDTAB
  0
TABLE
  2
APPID
  5
9
330
0
100
AcDbSymbolTable
 70
     2
  0
APPID
  5
12
330
9
100
AcDbSymbolTableRecord
100
AcDbRegAppTableRecord
  2
ACAD
 70
     0
  0
ENDTAB
  0
TABLE
  2
DIMSTYLE
  5
A
330
0
100
AcDbSymbolTable
 70
     1
  0
DIMSTYLE
105
27
330
A
100
AcDbSymbolTableRecord
100
AcDbDimStyleTableRecord
  2
ISO-25
 70
     0
  3

  4

  5

  6

  7

 40
1.0
 41
2.5
 42
0.625
 43
3.75
 44
1.25
 45
0.0
 46
0.0
 47
0.0
 48
0.0
140
2.5
141
2.5
142
0.0
143
0.03937007874016
144
1.0
145
0.0
146
1.0
147
0.625
 71
     0
 72
     0
 73
     0
 74
     0
 75
     0
 76
     0
 77
     1
 78
     8
170
     0
171
     3
172
     1
173
     0
174
     0
175
     0
176
     0
177
     0
178
     0
270
     2
271
     2
272
     2
273
     2
274
     3
340
11
275
     0
280
     0
281
     0
282
     0
283
     0
284
     8
285
     0
286
     0
287
     3
288
     0
  0
ENDTAB
  0
TABLE
  2
BLOCK_RECORD
  5
1
330
0
100
AcDbSymbolTable
 70
     1
  0
BLOCK_RECORD
  5
1F
330
1
100
AcDbSymbolTableRecord
100
AcDbBlockTableRecord
  2
*MODEL_SPACE
  0
BLOCK_RECORD
  5
1B
330
1
100
AcDbSymbolTableRecord
100
AcDbBlockTableRecord
  2
*PAPER_SPACE
  0
ENDTAB
  0
ENDSEC
  0
SECTION
  2
BLOCKS
  0
BLOCK
  5
20
330
1F
100
AcDbEntity
  8
0
100
AcDbBlockBegin
  2
*MODEL_SPACE
 70
     0
 10
0.0
 20
0.0
 30
0.0
  3
*MODEL_SPACE
  1

  0
ENDBLK
  5
21
330
1F
100
AcDbEntity
  8
0
100
AcDbBlockEnd
  0
BLOCK
  5
1C
330
1B
100
AcDbEntity
 67
     1
  8
0
100
AcDbBlockBegin
  2
*PAPER_SPACE
  1

  0
ENDBLK
  5
1D
330
1B
100
AcDbEntity
 67
     1
  8
0
100
AcDbBlockEnd
  0
ENDSEC
  0
SECTION
  2
ENTITIES
  0
LWPOLYLINE
  5
100
100
AcDbEntity
  8
0
 62
7
100
AcDbPolyline
 90
4
 70
1
 10
175.539161
 20
91.000000
 30
0.0
 10
163.204796
 20
91.000000
 30
0.0
 10
169.371978
 20
101.681873
 30
0.0
 10
175.539161
 20
91.000000
 30
0.0
  0
LWPOLYLINE
  5
101
100
AcDbEntity
  8
0
 62
7
100
AcDbPolyline
 90
5
 70
1
 10
174.914541
 20
104.881873
 30
0.0
 10
193.527901
 20
104.881873
 30
0.0
 10
185.513198
 20
91.000000
 30
0.0
 10
182.929244
 20
91.000000
 30
0.0
 10
174.914541
 20
104.881873
 30
0.0
  0
LWPOLYLINE
  5
102
100
AcDbEntity
  8
0
 62
7
100
AcDbPolyline
 90
4
 70
1
 10
205.237645
 20
91.000000
 30
0.0
 10
192.903281
 20
91.000000
 30
0.0
 10
199.070463
 20
101.681873
 30
0.0
 10
205.237645
 20
91.000000
 30
0.0
  0
LWPOLYLINE
  5
103
100
AcDbEntity
  8
0
 62
7
100
AcDbPolyline
 90
5
 70
1
 10
204.613026
 20
104.881873
 30
0.0
 10
223.226386
 20
104.881873
 30
0.0
 10
215.211682
 20
91.000000
 30
0.0
 10
212.627729
 20
91.000000
 30
0.0
 10
204.613026
 20
104.881873
 30
0.0
  0
LWPOLYLINE
  5
104
100
AcDbEntity
  8
0
 62
7
100
AcDbPolyline
 90
4
 70
1
 10
234.936130
 20
91.000000
 30
0.0
 10
222.601766
 20
91.000000
 30
0.0
 10
228.768948
 20
101.681873
 30
0.0
 10
234.936130
 20
91.000000
 30
0.0
  0
LWPOLYLINE
  5
105
100
AcDbEntity
  8
0
 62
7
100
AcDbPolyline
 90
5
 70
1
 10
234.311511
 20
104.881873
 30
0.0
 10
252.924870
 20
104.881873
 30
0.0
 10
244.910167
 20
91.000000
 30
0.0
 10
242.326214
 20
91.000000
 30
0.0
 10
234.311511
 20
104.881873
 30
0.0
  0
LWPOLYLINE
  5
106
100
AcDbEntity
  8
0
 62
7
100
AcDbPolyline
 90
4
 70
1
 10
264.634615
 20
91.000000
 30
0.0
 10
252.300251
 20
91.000000
 30
0.0
 10
258.467433
 20
101.681873
 30
0.0
 10
264.634615
 20
91.000000
 30
0.0
  0
LWPOLYLINE
  5
107
100
AcDbEntity
  8
0
 62
7
100
AcDbPolyline
 90
5
 70
1
 10
264.009995
 20
104.881873
 30
0.0
 10
282.623355
 20
104.881873
 30
0.0
 10
274.608652
 20
91.000000
 30
0.0
 10
272.024699
 20
91.000000
 30
0.0
 10
264.009995
 20
104.881873
 30
0.0
  0
LWPOLYLINE
  5
108
100
AcDbEntity
  8
0
 62
7
100
AcDbPolyline
 90
4
 70
1
 10
294.333100
 20
91.000000
 30
0.0
 10
281.998736
 20
91.000000
 30
0.0
 10
288.165918
 20
101.681873
 30
0.0
 10
294.333100
 20
91.000000
 30
0.0
  0
LWPOLYLINE
  5
109
100
AcDbEntity
  8
0
 62
7
100
AcDbPolyline
 90
5
 70
1
 10
293.708480
 20
104.881873
 30
0.0
 10
312.321840
 20
104.881873
 30
0.0
 10
304.307137
 20
91.000000
 30
0.0
 10
301.723183
 20
91.000000
 30
0.0
 10
293.708480
 20
104.881873
 30
0.0
  0
LWPOLYLINE
  5
10a
100
AcDbEntity
  8
0
 62
7
100
AcDbPolyline
 90
4
 70
1
 10
324.031585
 20
91.000000
 30
0.0
 10
311.697220
 20
91.000000
 30
0.0
 10
317.864403
 20
101.681873
 30
0.0
 10
324.031585
 20
91.000000
 30
0.0
  0
LWPOLYLINE
  5
10b
100
AcDbEntity
  8
0
 62
7
100
AcDbPolyline
 90
5
 70
1
 10
323.406965
 20
104.881873
 30
0.0
 10
342.020325
 20
104.881873
 30
0.0
 10
334.005622
 20
91.000000
 30
0.0
 10
331.421668
 20
91.000000
 30
0.0
 10
323.406965
 20
104.881873
 30
0.0
  0
LWPOLYLINE
  5
10c
100
AcDbEntity
  8
0
 62
7
100
AcDbPolyline
 90
4
 70
1
 10
353.730070
 20
91.000000
 30
0.0
 10
341.395705
 20
91.000000
 30
0.0
 10
347.562887
 20
101.681873
 30
0.0
 10
353.730070
 20
91.000000
 30
0.0
  0
LWPOLYLINE
  5
10d
100
AcDbEntity
  8
0
 62
7
100
AcDbPolyline
 90
5
 70
1
 10
353.105450
 20
104.881873
 30
0.0
 10
371.718810
 20
104.881873
 30
0.0
 10
363.704107
 20
91.000000
 30
0.0
 10
361.120153
 20
91.000000
 30
0.0
 10
353.105450
 20
104.881873
 30
0.0
  0
LWPOLYLINE
  5
10e
100
AcDbEntity
  8
0
 62
7
100
AcDbPolyline
 90
4
 70
1
 10
383.428554
 20
91.000000
 30
0.0
 10
371.094190
 20
91.000000
 30
0.0
 10
377.261372
 20
101.681873
 30
0.0
 10
383.428554
 20
91.000000
 30
0.0
  0
LWPOLYLINE
  5
10f
100
AcDbEntity
  8
0
 62
7
100
AcDbPolyline
 90
5
 70
1
 10
382.803935
 20
104.881873
 30
0.0
 10
401.417294
 20
104.881873
 30
0.0
 10
393.402591
 20
91.000000
 30
0.0
 10
390.818638
 20
91.000000
 30
0.0
 10
382.803935
 20
104.881873
 30
0.0
  0
LWPOLYLINE
  5
110
100
AcDbEntity
  8
0
 62
7
100
AcDbPolyline
 90
4
 70
1
 10
413.127039
 20
91.000000
 30
0.0
 10
400.792675
 20
91.000000
 30
0.0
 10
406.959857
 20
101.681873
 30
0.0
 10
413.127039
 20
91.000000
 30
0.0
  0
LWPOLYLINE
  5
111
100
AcDbEntity
  8
0
 62
7
100
AcDbPolyline
 90
5
 70
1
 10
412.502420
 20
104.881873
 30
0.0
 10
431.115779
 20
104.881873
 30
0.0
 10
423.101076
 20
91.000000
 30
0.0
 10
420.517123
 20
91.000000
 30
0.0
 10
412.502420
 20
104.881873
 30
0.0
  0
LWPOLYLINE
  5
112
100
AcDbEntity
  8
0
 62
7
100
AcDbPolyline
 90
4
 70
1
 10
442.825524
 20
91.000000
 30
0.0
 10
430.491160
 20
91.000000
 30
0.0
 10
436.658342
 20
101.681873
 30
0.0
 10
442.825524
 20
91.000000
 30
0.0
  0
LWPOLYLINE
  5
113
100
AcDbEntity
  8
0
 62
7
100
AcDbPolyline
 90
5
 70
1
 10
442.200904
 20
104.881873
 30
0.0
 10
460.814264
 20
104.881873
 30
0.0
 10
452.799561
 20
91.000000
 30
0.0
 10
450.215607
 20
91.000000
 30
0.0
 10
442.200904
 20
104.881873
 30
0.0
  0
LWPOLYLINE
  5
114
100
AcDbEntity
  8
0
 62
7
100
AcDbPolyline
 90
4
 70
1
 10
472.524009
 20
91.000000
 30
0.0
 10
460.189644
 20
91.000000
 30
0.0
 10
466.356827
 20
101.681873
 30
0.0
 10
472.524009
 20
91.000000
 30
0.0
  0
LWPOLYLINE
  5
115
100
AcDbEntity
  8
0
 62
7
100
AcDbPolyline
 90
5
 70
1
 10
471.899389
 20
104.881873
 30
0.0
 10
490.512749
 20
104.881873
 30
0.0
 10
482.498046
 20
91.000000
 30
0.0
 10
479.914092
 20
91.000000
 30
0.0
 10
471.899389
 20
104.881873
 30
0.0
  0
LWPOLYLINE
  5
116
100
AcDbEntity
  8
0
 62
7
100
AcDbPolyline
 90
4
 70
1
 10
502.222494
 20
91.000000
 30
0.0
 10
489.888129
 20
91.000000
 30
0.0
 10
496.055311
 20
101.681873
 30
0.0
 10
502.222494
 20
91.000000
 30
0.0
  0
LWPOLYLINE
  5
117
100
AcDbEntity
  8
0
 62
7
100
AcDbPolyline
 90
5
 70
1
 10
501.597874
 20
104.881873
 30
0.0
 10
520.211234
 20
104.881873
 30
0.0
 10
512.196531
 20
91.000000
 30
0.0
 10
509.612577
 20
91.000000
 30
0.0
 10
501.597874
 20
104.881873
 30
0.0
  0
LWPOLYLINE
  5
118
100
AcDbEntity
  8
0
 62
7
100
AcDbPolyline
 90
4
 70
1
 10
531.920978
 20
91.000000
 30
0.0
 10
519.586614
 20
91.000000
 30
0.0
 10
525.753796
 20
101.681873
 30
0.0
 10
531.920978
 20
91.000000
 30
0.0
  0
LWPOLYLINE
  5
119
100
AcDbEntity
  8
0
 62
7
100
AcDbPolyline
 90
5
 70
1
 10
531.296359
 20
104.881873
 30
0.0
 10
549.909718
 20
104.881873
 30
0.0
 10
541.895015
 20
91.000000
 30
0.0
 10
539.311062
 20
91.000000
 30
0.0
 10
531.296359
 20
104.881873
 30
0.0
  0
LWPOLYLINE
  5
11a
100
AcDbEntity
  8
0
 62
7
100
AcDbPolyline
 90
4
 70
1
 10
561.619463
 20
91.000000
 30
0.0
 10
549.285099
 20
91.000000
 30
0.0
 10
555.452281
 20
101.681873
 30
0.0
 10
561.619463
 20
91.000000
 30
0.0
  0
LWPOLYLINE
  5
11b
100
AcDbEntity
  8
0
 62
7
100
AcDbPolyline
 90
5
 70
1
 10
560.994844
 20
104.881873
 30
0.0
 10
579.608203
 20
104.881873
 30
0.0
 10
571.593500
 20
91.000000
 30
0.0
 10
569.009547
 20
91.000000
 30
0.0
 10
560.994844
 20
104.881873
 30
0.0
  0
LWPOLYLINE
  5
11c
100
AcDbEntity
  8
0
 62
7
100
AcDbPolyline
 90
4
 70
1
 10
591.317948
 20
91.000000
 30
0.0
 10
578.983584
 20
91.000000
 30
0.0
 10
585.150766
 20
101.681873
 30
0.0
 10
591.317948
 20
91.000000
 30
0.0
  0
LWPOLYLINE
  5
11d
100
AcDbEntity
  8
0
 62
7
100
AcDbPolyline
 90
5
 70
1
 10
590.693328
 20
104.881873
 30
0.0
 10
609.306688
 20
104.881873
 30
0.0
 10
601.291985
 20
91.000000
 30
0.0
 10
598.708031
 20
91.000000
 30
0.0
 10
590.693328
 20
104.881873
 30
0.0
  0
LWPOLYLINE
  5
11e
100
AcDbEntity
  8
0
 62
7
100
AcDbPolyline
 90
4
 70
1
 10
621.016433
 20
91.000000
 30
0.0
 10
608.682068
 20
91.000000
 30
0.0
 10
614.849251
 20
101.681873
 30
0.0
 10
621.016433
 20
91.000000
 30
0.0
  0
LWPOLYLINE
  5
11f
100
AcDbEntity
  8
0
 62
7
100
AcDbPolyline
 90
5
 70
1
 10
620.391813
 20
104.881873
 30
0.0
 10
639.005173
 20
104.881873
 30
0.0
 10
630.990470
 20
91.000000
 30
0.0
 10
628.406516
 20
91.000000
 30
0.0
 10
620.391813
 20
104.881873
 30
0.0
  0
LWPOLYLINE
  5
120
100
AcDbEntity
  8
0
 62
7
100
AcDbPolyline
 90
4
 70
1
 10
650.714918
 20
91.000000
 30
0.0
 10
638.380553
 20
91.000000
 30
0.0
 10
644.547735
 20
101.681873
 30
0.0
 10
650.714918
 20
91.000000
 30
0.0
  0
LWPOLYLINE
  5
121
100
AcDbEntity
  8
0
 62
7
100
AcDbPolyline
 90
5
 70
1
 10
650.090298
 20
104.881873
 30
0.0
 10
668.703658
 20
104.881873
 30
0.0
 10
660.688955
 20
91.000000
 30
0.0
 10
658.105001
 20
91.000000
 30
0.0
 10
650.090298
 20
104.881873
 30
0.0
  0
LWPOLYLINE
  5
122
100
AcDbEntity
  8
0
 62
7
100
AcDbPolyline
 90
4
 70
1
 10
680.413402
 20
91.000000
 30
0.0
 10
668.079038
 20
91.000000
 30
0.0
 10
674.246220
 20
101.681873
 30
0.0
 10
680.413402
 20
91.000000
 30
0.0
  0
LWPOLYLINE
  5
123
100
AcDbEntity
  8
0
 62
7
100
AcDbPolyline
 90
5
 70
1
 10
679.788783
 20
104.881873
 30
0.0
 10
698.402142
 20
104.881873
 30
0.0
 10
690.387439
 20
91.000000
 30
0.0
 10
687.803486
 20
91.000000
 30
0.0
 10
679.788783
 20
104.881873
 30
0.0
  0
LWPOLYLINE
  5
124
100
AcDbEntity
  8
0
 62
7
100
AcDbPolyline
 90
4
 70
1
 10
710.111887
 20
91.000000
 30
0.0
 10
697.777523
 20
91.000000
 30
0.0
 10
703.944705
 20
101.681873
 30
0.0
 10
710.111887
 20
91.000000
 30
0.0
  0
LWPOLYLINE
  5
125
100
AcDbEntity
  8
0
 62
7
100
AcDbPolyline
 90
5
 70
1
 10
709.487268
 20
104.881873
 30
0.0
 10
728.100627
 20
104.881873
 30
0.0
 10
720.085924
 20
91.000000
 30
0.0
 10
717.501971
 20
91.000000
 30
0.0
 10
709.487268
 20
104.881873
 30
0.0
  0
LWPOLYLINE
  5
126
100
AcDbEntity
  8
0
 62
7
100
AcDbPolyline
 90
4
 70
1
 10
739.810372
 20
91.000000
 30
0.0
 10
727.476008
 20
91.000000
 30
0.0
 10
733.643190
 20
101.681873
 30
0.0
 10
739.810372
 20
91.000000
 30
0.0
  0
LWPOLYLINE
  5
127
100
AcDbEntity
  8
0
 62
7
100
AcDbPolyline
 90
5
 70
1
 10
739.185752
 20
104.881873
 30
0.0
 10
757.799112
 20
104.881873
 30
0.0
 10
749.784409
 20
91.000000
 30
0.0
 10
747.200456
 20
91.000000
 30
0.0
 10
739.185752
 20
104.881873
 30
0.0
  0
LWPOLYLINE
  5
128
100
AcDbEntity
  8
0
 62
7
100
AcDbPolyline
 90
4
 70
1
 10
769.508857
 20
91.000000
 30
0.0
 10
757.174492
 20
91.000000
 30
0.0
 10
763.341675
 20
101.681873
 30
0.0
 10
769.508857
 20
91.000000
 30
0.0
  0
LWPOLYLINE
  5
129
100
AcDbEntity
  8
0
 62
7
100
AcDbPolyline
 90
5
 70
1
 10
768.884237
 20
104.881873
 30
0.0
 10
787.497597
 20
104.881873
 30
0.0
 10
779.482894
 20
91.000000
 30
0.0
 10
776.898940
 20
91.000000
 30
0.0
 10
768.884237
 20
104.881873
 30
0.0
  0
LWPOLYLINE
  5
12a
100
AcDbEntity
  8
0
 62
7
100
AcDbPolyline
 90
4
 70
1
 10
799.207342
 20
91.000000
 30
0.0
 10
786.872977
 20
91.000000
 30
0.0
 10
793.040159
 20
101.681873
 30
0.0
 10
799.207342
 20
91.000000
 30
0.0
  0
LWPOLYLINE
  5
12b
100
AcDbEntity
  8
0
 62
7
100
AcDbPolyline
 90
5
 70
1
 10
798.582722
 20
104.881873
 30
0.0
 10
817.196082
 20
104.881873
 30
0.0
 10
809.181379
 20
91.000000
 30
0.0
 10
806.597425
 20
91.000000
 30
0.0
 10
798.582722
 20
104.881873
 30
0.0
  0
LWPOLYLINE
  5
12c
100
AcDbEntity
  8
0
 62
7
100
AcDbPolyline
 90
4
 70
1
 10
828.905826
 20
91.000000
 30
0.0
 10
816.571462
 20
91.000000
 30
0.0
 10
822.738644
 20
101.681873
 30
0.0
 10
828.905826
 20
91.000000
 30
0.0
  0
LWPOLYLINE
  5
12d
100
AcDbEntity
  8
0
 62
7
100
AcDbPolyline
 90
5
 70
1
 10
828.281207
 20
104.881873
 30
0.0
 10
846.894567
 20
104.881873
 30
0.0
 10
838.879863
 20
91.000000
 30
0.0
 10
836.295910
 20
91.000000
 30
0.0
 10
828.281207
 20
104.881873
 30
0.0
  0
LWPOLYLINE
  5
12e
100
AcDbEntity
  8
0
 62
7
100
AcDbPolyline
 90
4
 70
1
 10
858.604311
 20
91.000000
 30
0.0
 10
846.269947
 20
91.000000
 30
0.0
 10
852.437129
 20
101.681873
 30
0.0
 10
858.604311
 20
91.000000
 30
0.0
  0
LWPOLYLINE
  5
12f
100
AcDbEntity
  8
0
 62
7
100
AcDbPolyline
 90
5
 70
1
 10
857.979692
 20
104.881873
 30
0.0
 10
876.593051
 20
104.881873
 30
0.0
 10
868.578348
 20
91.000000
 30
0.0
 10
865.994395
 20
91.000000
 30
0.0
 10
857.979692
 20
104.881873
 30
0.0
  0
LWPOLYLINE
  5
130
100
AcDbEntity
  8
0
 62
7
100
AcDbPolyline
 90
4
 70
1
 10
888.302796
 20
91.000000
 30
0.0
 10
875.968432
 20
91.000000
 30
0.0
 10
882.135614
 20
101.681873
 30
0.0
 10
888.302796
 20
91.000000
 30
0.0
  0
LWPOLYLINE
  5
131
100
AcDbEntity
  8
0
 62
7
100
AcDbPolyline
 90
5
 70
1
 10
887.678176
 20
104.881873
 30
0.0
 10
906.291536
 20
104.881873
 30
0.0
 10
898.276833
 20
91.000000
 30
0.0
 10
895.692880
 20
91.000000
 30
0.0
 10
887.678176
 20
104.881873
 30
0.0
  0
LWPOLYLINE
  5
132
100
AcDbEntity
  8
0
 62
7
100
AcDbPolyline
 90
4
 70
1
 10
918.001281
 20
91.000000
 30
0.0
 10
905.666917
 20
91.000000
 30
0.0
 10
911.834099
 20
101.681873
 30
0.0
 10
918.001281
 20
91.000000
 30
0.0
  0
LWPOLYLINE
  5
133
100
AcDbEntity
  8
0
 62
7
100
AcDbPolyline
 90
5
 70
1
 10
917.376661
 20
104.881873
 30
0.0
 10
935.990021
 20
104.881873
 30
0.0
 10
927.975318
 20
91.000000
 30
0.0
 10
925.391364
 20
91.000000
 30
0.0
 10
917.376661
 20
104.881873
 30
0.0
  0
LWPOLYLINE
  5
134
100
AcDbEntity
  8
0
 62
7
100
AcDbPolyline
 90
4
 70
1
 10
947.699766
 20
91.000000
 30
0.0
 10
935.365401
 20
91.000000
 30
0.0
 10
941.532584
 20
101.681873
 30
0.0
 10
947.699766
 20
91.000000
 30
0.0
  0
LWPOLYLINE
  5
135
100
AcDbEntity
  8
0
 62
7
100
AcDbPolyline
 90
5
 70
1
 10
947.075146
 20
104.881873
 30
0.0
 10
965.688506
 20
104.881873
 30
0.0
 10
957.673803
 20
91.000000
 30
0.0
 10
955.089849
 20
91.000000
 30
0.0
 10
947.075146
 20
104.881873
 30
0.0
  0
LWPOLYLINE
  5
136
100
AcDbEntity
  8
0
 62
7
100
AcDbPolyline
 90
4
 70
1
 10
977.398251
 20
91.000000
 30
0.0
 10
965.063886
 20
91.000000
 30
0.0
 10
971.231068
 20
101.681873
 30
0.0
 10
977.398251
 20
91.000000
 30
0.0
  0
LWPOLYLINE
  5
137
100
AcDbEntity
  8
0
 62
7
100
AcDbPolyline
 90
5
 70
1
 10
976.773631
 20
104.881873
 30
0.0
 10
995.386991
 20
104.881873
 30
0.0
 10
987.372288
 20
91.000000
 30
0.0
 10
984.788334
 20
91.000000
 30
0.0
 10
976.773631
 20
104.881873
 30
0.0
  0
LWPOLYLINE
  5
138
100
AcDbEntity
  8
0
 62
7
100
AcDbPolyline
 90
4
 70
1
 10
1007.096735
 20
91.000000
 30
0.0
 10
994.762371
 20
91.000000
 30
0.0
 10
1000.929553
 20
101.681873
 30
0.0
 10
1007.096735
 20
91.000000
 30
0.0
  0
LWPOLYLINE
  5
139
100
AcDbEntity
  8
0
 62
7
100
AcDbPolyline
 90
5
 70
1
 10
1006.472116
 20
104.881873
 30
0.0
 10
1025.085475
 20
104.881873
 30
0.0
 10
1017.070772
 20
91.000000
 30
0.0
 10
1014.486819
 20
91.000000
 30
0.0
 10
1006.472116
 20
104.881873
 30
0.0
  0
LWPOLYLINE
  5
13a
100
AcDbEntity
  8
0
 62
7
100
AcDbPolyline
 90
4
 70
1
 10
1036.795220
 20
91.000000
 30
0.0
 10
1024.460856
 20
91.000000
 30
0.0
 10
1030.628038
 20
101.681873
 30
0.0
 10
1036.795220
 20
91.000000
 30
0.0
  0
LWPOLYLINE
  5
13b
100
AcDbEntity
  8
0
 62
7
100
AcDbPolyline
 90
5
 70
1
 10
166.171978
 20
111.281873
 30
0.0
 10
161.000008
 20
111.281873
 30
0.0
 10
161.000008
 20
134.580358
 30
0.0
 10
166.171978
 20
134.580358
 30
0.0
 10
166.171978
 20
111.281873
 30
0.0
  0
LWPOLYLINE
  5
13c
100
AcDbEntity
  8
0
 62
7
100
AcDbPolyline
 90
5
 70
1
 10
161.000008
 20
158.681036
 30
0.0
 10
161.000008
 20
160.300000
 30
0.0
 10
178.678658
 20
160.300000
 30
0.0
 10
169.371978
 20
144.180358
 30
0.0
 10
161.000008
 20
158.681036
 30
0.0
  0
LWPOLYLINE
  5
13d
100
AcDbEntity
  8
0
 62
7
100
AcDbPolyline
 90
5
 70
1
 10
195.870463
 20
134.580358
 30
0.0
 10
195.870463
 20
111.281873
 30
0.0
 10
172.571978
 20
111.281873
 30
0.0
 10
172.571978
 20
134.580358
 30
0.0
 10
195.870463
 20
134.580358
 30
0.0
  0
LWPOLYLINE
  5
13e
100
AcDbEntity
  8
0
 62
7
100
AcDbPolyline
 90
5
 70
1
 10
225.568948
 20
134.580358
 30
0.0
 10
225.568948
 20
111.281873
 30
0.0
 10
202.270463
 20
111.281873
 30
0.0
 10
202.270463
 20
134.580358
 30
0.0
 10
225.568948
 20
134.580358
 30
0.0
  0
LWPOLYLINE
  5
13f
100
AcDbEntity
  8
0
 62
7
100
AcDbPolyline
 90
4
 70
1
 10
184.221221
 20
157.100000
 30
0.0
 10
193.527901
 20
140.980358
 30
0.0
 10
174.914541
 20
140.980358
 30
0.0
 10
184.221221
 20
157.100000
 30
0.0
  0
LWPOLYLINE
  5
140
100
AcDbEntity
  8
0
 62
7
100
AcDbPolyline
 90
4
 70
1
 10
199.070463
 20
144.180358
 30
0.0
 10
189.763783
 20
160.300000
 30
0.0
 10
208.377143
 20
160.300000
 30
0.0
 10
199.070463
 20
144.180358
 30
0.0
  0
LWPOLYLINE
  5
141
100
AcDbEntity
  8
0
 62
7
100
AcDbPolyline
 90
4
 70
1
 10
213.919706
 20
157.100000
 30
0.0
 10
223.226386
 20
140.980358
 30
0.0
 10
204.613026
 20
140.980358
 30
0.0
 10
213.919706
 20
157.100000
 30
0.0
  0
LWPOLYLINE
  5
142
100
AcDbEntity
  8
0
 62
7
100
AcDbPolyline
 90
4
 70
1
 10
228.768948
 20
144.180358
 30
0.0
 10
219.462268
 20
160.300000
 30
0.0
 10
238.075628
 20
160.300000
 30
0.0
 10
228.768948
 20
144.180358
 30
0.0
  0
LWPOLYLINE
  5
143
100
AcDbEntity
  8
0
 62
7
100
AcDbPolyline
 90
5
 70
1
 10
255.267433
 20
134.580358
 30
0.0
 10
255.267433
 20
111.281873
 30
0.0
 10
231.968948
 20
111.281873
 30
0.0
 10
231.968948
 20
134.580358
 30
0.0
 10
255.267433
 20
134.580358
 30
0.0
  0
LWPOLYLINE
  5
144
100
AcDbEntity
  8
0
 62
7
100
AcDbPolyline
 90
5
 70
1
 10
284.965918
 20
134.580358
 30
0.0
 10
284.965918
 20
111.281873
 30
0.0
 10
261.667433
 20
111.281873
 30
0.0
 10
261.667433
 20
134.580358
 30
0.0
 10
284.965918
 20
134.580358
 30
0.0
  0
LWPOLYLINE
  5
145
100
AcDbEntity
  8
0
 62
7
100
AcDbPolyline
 90
4
 70
1
 10
243.618191
 20
157.100000
 30
0.0
 10
252.924870
 20
140.980358
 30
0.0
 10
234.311511
 20
140.980358
 30
0.0
 10
243.618191
 20
157.100000
 30
0.0
  0
LWPOLYLINE
  5
146
100
AcDbEntity
  8
0
 62
7
100
AcDbPolyline
 90
4
 70
1
 10
258.467433
 20
144.180358
 30
0.0
 10
249.160753
 20
160.300000
 30
0.0
 10
267.774113
 20
160.300000
 30
0.0
 10
258.467433
 20
144.180358
 30
0.0
  0
LWPOLYLINE
  5
147
100
AcDbEntity
  8
0
 62
7
100
AcDbPolyline
 90
4
 70
1
 10
273.316675
 20
157.100000
 30
0.0
 10
282.623355
 20
140.980358
 30
0.0
 10
264.009995
 20
140.980358
 30
0.0
 10
273.316675
 20
157.100000
 30
0.0
  0
LWPOLYLINE
  5
148
100
AcDbEntity
  8
0
 62
7
100
AcDbPolyline
 90
4
 70
1
 10
288.165918
 20
144.180358
 30
0.0
 10
278.859238
 20
160.300000
 30
0.0
 10
297.472598
 20
160.300000
 30
0.0
 10
288.165918
 20
144.180358
 30
0.0
  0
LWPOLYLINE
  5
149
100
AcDbEntity
  8
0
 62
7
100
AcDbPolyline
 90
5
 70
1
 10
314.664403
 20
134.580358
 30
0.0
 10
314.664403
 20
111.281873
 30
0.0
 10
291.365918
 20
111.281873
 30
0.0
 10
291.365918
 20
134.580358
 30
0.0
 10
314.664403
 20
134.580358
 30
0.0
  0
LWPOLYLINE
  5
14a
100
AcDbEntity
  8
0
 62
7
100
AcDbPolyline
 90
5
 70
1
 10
344.362887
 20
134.580358
 30
0.0
 10
344.362887
 20
111.281873
 30
0.0
 10
321.064403
 20
111.281873
 30
0.0
 10
321.064403
 20
134.580358
 30
0.0
 10
344.362887
 20
134.580358
 30
0.0
  0
LWPOLYLINE
  5
14b
100
AcDbEntity
  8
0
 62
7
100
AcDbPolyline
 90
4
 70
1
 10
303.015160
 20
157.100000
 30
0.0
 10
312.321840
 20
140.980358
 30
0.0
 10
293.708480
 20
140.980358
 30
0.0
 10
303.015160
 20
157.100000
 30
0.0
  0
LWPOLYLINE
  5
14c
100
AcDbEntity
  8
0
 62
7
100
AcDbPolyline
 90
4
 70
1
 10
317.864403
 20
144.180358
 30
0.0
 10
308.557723
 20
160.300000
 30
0.0
 10
327.171082
 20
160.300000
 30
0.0
 10
317.864403
 20
144.180358
 30
0.0
  0
LWPOLYLINE
  5
14d
100
AcDbEntity
  8
0
 62
7
100
AcDbPolyline
 90
4
 70
1
 10
332.713645
 20
157.100000
 30
0.0
 10
342.020325
 20
140.980358
 30
0.0
 10
323.406965
 20
140.980358
 30
0.0
 10
332.713645
 20
157.100000
 30
0.0
  0
LWPOLYLINE
  5
14e
100
AcDbEntity
  8
0
 62
7
100
AcDbPolyline
 90
4
 70
1
 10
347.562887
 20
144.180358
 30
0.0
 10
338.256208
 20
160.300000
 30
0.0
 10
356.869567
 20
160.300000
 30
0.0
 10
347.562887
 20
144.180358
 30
0.0
  0
LWPOLYLINE
  5
14f
100
AcDbEntity
  8
0
 62
7
100
AcDbPolyline
 90
5
 70
1
 10
374.061372
 20
134.580358
 30
0.0
 10
374.061372
 20
111.281873
 30
0.0
 10
350.762887
 20
111.281873
 30
0.0
 10
350.762887
 20
134.580358
 30
0.0
 10
374.061372
 20
134.580358
 30
0.0
  0
LWPOLYLINE
  5
150
100
AcDbEntity
  8
0
 62
7
100
AcDbPolyline
 90
5
 70
1
 10
403.759857
 20
134.580358
 30
0.0
 10
403.759857
 20
111.281873
 30
0.0
 10
380.461372
 20
111.281873
 30
0.0
 10
380.461372
 20
134.580358
 30
0.0
 10
403.759857
 20
134.580358
 30
0.0
  0
LWPOLYLINE
  5
151
100
AcDbEntity
  8
0
 62
7
100
AcDbPolyline
 90
4
 70
1
 10
362.412130
 20
157.100000
 30
0.0
 10
371.718810
 20
140.980358
 30
0.0
 10
353.105450
 20
140.980358
 30
0.0
 10
362.412130
 20
157.100000
 30
0.0
  0
LWPOLYLINE
  5
152
100
AcDbEntity
  8
0
 62
7
100
AcDbPolyline
 90
4
 70
1
 10
377.261372
 20
144.180358
 30
0.0
 10
367.954692
 20
160.300000
 30
0.0
 10
386.568052
 20
160.300000
 30
0.0
 10
377.261372
 20
144.180358
 30
0.0
  0
LWPOLYLINE
  5
153
100
AcDbEntity
  8
0
 62
7
100
AcDbPolyline
 90
4
 70
1
 10
392.110615
 20
157.100000
 30
0.0
 10
401.417294
 20
140.980358
 30
0.0
 10
382.803935
 20
140.980358
 30
0.0
 10
392.110615
 20
157.100000
 30
0.0
  0
LWPOLYLINE
  5
154
100
AcDbEntity
  8
0
 62
7
100
AcDbPolyline
 90
4
 70
1
 10
406.959857
 20
144.180358
 30
0.0
 10
397.653177
 20
160.300000
 30
0.0
 10
416.266537
 20
160.300000
 30
0.0
 10
406.959857
 20
144.180358
 30
0.0
  0
LWPOLYLINE
  5
155
100
AcDbEntity
  8
0
 62
7
100
AcDbPolyline
 90
5
 70
1
 10
433.458342
 20
134.580358
 30
0.0
 10
433.458342
 20
111.281873
 30
0.0
 10
410.159857
 20
111.281873
 30
0.0
 10
410.159857
 20
134.580358
 30
0.0
 10
433.458342
 20
134.580358
 30
0.0
  0
LWPOLYLINE
  5
156
100
AcDbEntity
  8
0
 62
7
100
AcDbPolyline
 90
5
 70
1
 10
463.156827
 20
134.580358
 30
0.0
 10
463.156827
 20
111.281873
 30
0.0
 10
439.858342
 20
111.281873
 30
0.0
 10
439.858342
 20
134.580358
 30
0.0
 10
463.156827
 20
134.580358
 30
0.0
  0
LWPOLYLINE
  5
157
100
AcDbEntity
  8
0
 62
7
100
AcDbPolyline
 90
4
 70
1
 10
421.809099
 20
157.100000
 30
0.0
 10
431.115779
 20
140.980358
 30
0.0
 10
412.502420
 20
140.980358
 30
0.0
 10
421.809099
 20
157.100000
 30
0.0
  0
LWPOLYLINE
  5
158
100
AcDbEntity
  8
0
 62
7
100
AcDbPolyline
 90
4
 70
1
 10
436.658342
 20
144.180358
 30
0.0
 10
427.351662
 20
160.300000
 30
0.0
 10
445.965022
 20
160.300000
 30
0.0
 10
436.658342
 20
144.180358
 30
0.0
  0
LWPOLYLINE
  5
159
100
AcDbEntity
  8
0
 62
7
100
AcDbPolyline
 90
4
 70
1
 10
451.507584
 20
157.100000
 30
0.0
 10
460.814264
 20
140.980358
 30
0.0
 10
442.200904
 20
140.980358
 30
0.0
 10
451.507584
 20
157.100000
 30
0.0
  0
LWPOLYLINE
  5
15a
100
AcDbEntity
  8
0
 62
7
100
AcDbPolyline
 90
4
 70
1
 10
466.356827
 20
144.180358
 30
0.0
 10
457.050147
 20
160.300000
 30
0.0
 10
475.663506
 20
160.300000
 30
0.0
 10
466.356827
 20
144.180358
 30
0.0
  0
LWPOLYLINE
  5
15b
100
AcDbEntity
  8
0
 62
7
100
AcDbPolyline
 90
5
 70
1
 10
492.855311
 20
134.580358
 30
0.0
 10
492.855311
 20
111.281873
 30
0.0
 10
469.556827
 20
111.281873
 30
0.0
 10
469.556827
 20
134.580358
 30
0.0
 10
492.855311
 20
134.580358
 30
0.0
  0
LWPOLYLINE
  5
15c
100
AcDbEntity
  8
0
 62
7
100
AcDbPolyline
 90
5
 70
1
 10
522.553796
 20
134.580358
 30
0.0
 10
522.553796
 20
111.281873
 30
0.0
 10
499.255311
 20
111.281873
 30
0.0
 10
499.255311
 20
134.580358
 30
0.0
 10
522.553796
 20
134.580358
 30
0.0
  0
LWPOLYLINE
  5
15d
100
AcDbEntity
  8
0
 62
7
100
AcDbPolyline
 90
4
 70
1
 10
481.206069
 20
157.100000
 30
0.0
 10
490.512749
 20
140.980358
 30
0.0
 10
471.899389
 20
140.980358
 30
0.0
 10
481.206069
 20
157.100000
 30
0.0
  0
LWPOLYLINE
  5
15e
100
AcDbEntity
  8
0
 62
7
100
AcDbPolyline
 90
4
 70
1
 10
496.055311
 20
144.180358
 30
0.0
 10
486.748632
 20
160.300000
 30
0.0
 10
505.361991
 20
160.300000
 30
0.0
 10
496.055311
 20
144.180358
 30
0.0
  0
LWPOLYLINE
  5
15f
100
AcDbEntity
  8
0
 62
7
100
AcDbPolyline
 90
4
 70
1
 10
510.904554
 20
157.100000
 30
0.0
 10
520.211234
 20
140.980358
 30
0.0
 10
501.597874
 20
140.980358
 30
0.0
 10
510.904554
 20
157.100000
 30
0.0
  0
LWPOLYLINE
  5
160
100
AcDbEntity
  8
0
 62
7
100
AcDbPolyline
 90
4
 70
1
 10
525.753796
 20
144.180358
 30
0.0
 10
516.447116
 20
160.300000
 30
0.0
 10
535.060476
 20
160.300000
 30
0.0
 10
525.753796
 20
144.180358
 30
0.0
  0
LWPOLYLINE
  5
161
100
AcDbEntity
  8
0
 62
7
100
AcDbPolyline
 90
5
 70
1
 10
552.252281
 20
134.580358
 30
0.0
 10
552.252281
 20
111.281873
 30
0.0
 10
528.953796
 20
111.281873
 30
0.0
 10
528.953796
 20
134.580358
 30
0.0
 10
552.252281
 20
134.580358
 30
0.0
  0
LWPOLYLINE
  5
162
100
AcDbEntity
  8
0
 62
7
100
AcDbPolyline
 90
5
 70
1
 10
581.950766
 20
134.580358
 30
0.0
 10
581.950766
 20
111.281873
 30
0.0
 10
558.652281
 20
111.281873
 30
0.0
 10
558.652281
 20
134.580358
 30
0.0
 10
581.950766
 20
134.580358
 30
0.0
  0
LWPOLYLINE
  5
163
100
AcDbEntity
  8
0
 62
7
100
AcDbPolyline
 90
4
 70
1
 10
540.603039
 20
157.100000
 30
0.0
 10
549.909718
 20
140.980358
 30
0.0
 10
531.296359
 20
140.980358
 30
0.0
 10
540.603039
 20
157.100000
 30
0.0
  0
LWPOLYLINE
  5
164
100
AcDbEntity
  8
0
 62
7
100
AcDbPolyline
 90
4
 70
1
 10
555.452281
 20
144.180358
 30
0.0
 10
546.145601
 20
160.300000
 30
0.0
 10
564.758961
 20
160.300000
 30
0.0
 10
555.452281
 20
144.180358
 30
0.0
  0
LWPOLYLINE
  5
165
100
AcDbEntity
  8
0
 62
7
100
AcDbPolyline
 90
4
 70
1
 10
570.301523
 20
157.100000
 30
0.0
 10
579.608203
 20
140.980358
 30
0.0
 10
560.994844
 20
140.980358
 30
0.0
 10
570.301523
 20
157.100000
 30
0.0
  0
LWPOLYLINE
  5
166
100
AcDbEntity
  8
0
 62
7
100
AcDbPolyline
 90
4
 70
1
 10
585.150766
 20
144.180358
 30
0.0
 10
575.844086
 20
160.300000
 30
0.0
 10
594.457446
 20
160.300000
 30
0.0
 10
585.150766
 20
144.180358
 30
0.0
  0
LWPOLYLINE
  5
167
100
AcDbEntity
  8
0
 62
7
100
AcDbPolyline
 90
5
 70
1
 10
611.649251
 20
134.580358
 30
0.0
 10
611.649251
 20
111.281873
 30
0.0
 10
588.350766
 20
111.281873
 30
0.0
 10
588.350766
 20
134.580358
 30
0.0
 10
611.649251
 20
134.580358
 30
0.0
  0
LWPOLYLINE
  5
168
100
AcDbEntity
  8
0
 62
7
100
AcDbPolyline
 90
5
 70
1
 10
641.347735
 20
134.580358
 30
0.0
 10
641.347735
 20
111.281873
 30
0.0
 10
618.049251
 20
111.281873
 30
0.0
 10
618.049251
 20
134.580358
 30
0.0
 10
641.347735
 20
134.580358
 30
0.0
  0
LWPOLYLINE
  5
169
100
AcDbEntity
  8
0
 62
7
100
AcDbPolyline
 90
4
 70
1
 10
600.000008
 20
157.100000
 30
0.0
 10
609.306688
 20
140.980358
 30
0.0
 10
590.693328
 20
140.980358
 30
0.0
 10
600.000008
 20
157.100000
 30
0.0
  0
LWPOLYLINE
  5
16a
100
AcDbEntity
  8
0
 62
7
100
AcDbPolyline
 90
4
 70
1
 10
614.849251
 20
144.180358
 30
0.0
 10
605.542571
 20
160.300000
 30
0.0
 10
624.155930
 20
160.300000
 30
0.0
 10
614.849251
 20
144.180358
 30
0.0
  0
LWPOLYLINE
  5
16b
100
AcDbEntity
  8
0
 62
7
100
AcDbPolyline
 90
4
 70
1
 10
629.698493
 20
157.100000
 30
0.0
 10
639.005173
 20
140.980358
 30
0.0
 10
620.391813
 20
140.980358
 30
0.0
 10
629.698493
 20
157.100000
 30
0.0
  0
LWPOLYLINE
  5
16c
100
AcDbEntity
  8
0
 62
7
100
AcDbPolyline
 90
4
 70
1
 10
644.547735
 20
144.180358
 30
0.0
 10
635.241056
 20
160.300000
 30
0.0
 10
653.854415
 20
160.300000
 30
0.0
 10
644.547735
 20
144.180358
 30
0.0
  0
LWPOLYLINE
  5
16d
100
AcDbEntity
  8
0
 62
7
100
AcDbPolyline
 90
5
 70
1
 10
671.046220
 20
134.580358
 30
0.0
 10
671.046220
 20
111.281873
 30
0.0
 10
647.747735
 20
111.281873
 30
0.0
 10
647.747735
 20
134.580358
 30
0.0
 10
671.046220
 20
134.580358
 30
0.0
  0
LWPOLYLINE
  5
16e
100
AcDbEntity
  8
0
 62
7
100
AcDbPolyline
 90
5
 70
1
 10
700.744705
 20
134.580358
 30
0.0
 10
700.744705
 20
111.281873
 30
0.0
 10
677.446220
 20
111.281873
 30
0.0
 10
677.446220
 20
134.580358
 30
0.0
 10
700.744705
 20
134.580358
 30
0.0
  0
LWPOLYLINE
  5
16f
100
AcDbEntity
  8
0
 62
7
100
AcDbPolyline
 90
4
 70
1
 10
659.396978
 20
157.100000
 30
0.0
 10
668.703658
 20
140.980358
 30
0.0
 10
650.090298
 20
140.980358
 30
0.0
 10
659.396978
 20
157.100000
 30
0.0
  0
LWPOLYLINE
  5
170
100
AcDbEntity
  8
0
 62
7
100
AcDbPolyline
 90
4
 70
1
 10
674.246220
 20
144.180358
 30
0.0
 10
664.939540
 20
160.300000
 30
0.0
 10
683.552900
 20
160.300000
 30
0.0
 10
674.246220
 20
144.180358
 30
0.0
  0
LWPOLYLINE
  5
171
100
AcDbEntity
  8
0
 62
7
100
AcDbPolyline
 90
4
 70
1
 10
689.095463
 20
157.100000
 30
0.0
 10
698.402142
 20
140.980358
 30
0.0
 10
679.788783
 20
140.980358
 30
0.0
 10
689.095463
 20
157.100000
 30
0.0
  0
LWPOLYLINE
  5
172
100
AcDbEntity
  8
0
 62
7
100
AcDbPolyline
 90
4
 70
1
 10
703.944705
 20
144.180358
 30
0.0
 10
694.638025
 20
160.300000
 30
0.0
 10
713.251385
 20
160.300000
 30
0.0
 10
703.944705
 20
144.180358
 30
0.0
  0
LWPOLYLINE
  5
173
100
AcDbEntity
  8
0
 62
7
100
AcDbPolyline
 90
5
 70
1
 10
730.443190
 20
134.580358
 30
0.0
 10
730.443190
 20
111.281873
 30
0.0
 10
707.144705
 20
111.281873
 30
0.0
 10
707.144705
 20
134.580358
 30
0.0
 10
730.443190
 20
134.580358
 30
0.0
  0
LWPOLYLINE
  5
174
100
AcDbEntity
  8
0
 62
7
100
AcDbPolyline
 90
5
 70
1
 10
760.141675
 20
134.580358
 30
0.0
 10
760.141675
 20
111.281873
 30
0.0
 10
736.843190
 20
111.281873
 30
0.0
 10
736.843190
 20
134.580358
 30
0.0
 10
760.141675
 20
134.580358
 30
0.0
  0
LWPOLYLINE
  5
175
100
AcDbEntity
  8
0
 62
7
100
AcDbPolyline
 90
4
 70
1
 10
718.793947
 20
157.100000
 30
0.0
 10
728.100627
 20
140.980358
 30
0.0
 10
709.487268
 20
140.980358
 30
0.0
 10
718.793947
 20
157.100000
 30
0.0
  0
LWPOLYLINE
  5
176
100
AcDbEntity
  8
0
 62
7
100
AcDbPolyline
 90
4
 70
1
 10
733.643190
 20
144.180358
 30
0.0
 10
724.336510
 20
160.300000
 30
0.0
 10
742.949870
 20
160.300000
 30
0.0
 10
733.643190
 20
144.180358
 30
0.0
  0
LWPOLYLINE
  5
177
100
AcDbEntity
  8
0
 62
7
100
AcDbPolyline
 90
4
 70
1
 10
748.492432
 20
157.100000
 30
0.0
 10
757.799112
 20
140.980358
 30
0.0
 10
739.185752
 20
140.980358
 30
0.0
 10
748.492432
 20
157.100000
 30
0.0
  0
LWPOLYLINE
  5
178
100
AcDbEntity
  8
0
 62
7
100
AcDbPolyline
 90
4
 70
1
 10
763.341675
 20
144.180358
 30
0.0
 10
754.034995
 20
160.300000
 30
0.0
 10
772.648354
 20
160.300000
 30
0.0
 10
763.341675
 20
144.180358
 30
0.0
  0
LWPOLYLINE
  5
179
100
AcDbEntity
  8
0
 62
7
100
AcDbPolyline
 90
5
 70
1
 10
789.840159
 20
134.580358
 30
0.0
 10
789.840159
 20
111.281873
 30
0.0
 10
766.541675
 20
111.281873
 30
0.0
 10
766.541675
 20
134.580358
 30
0.0
 10
789.840159
 20
134.580358
 30
0.0
  0
LWPOLYLINE
  5
17a
100
AcDbEntity
  8
0
 62
7
100
AcDbPolyline
 90
5
 70
1
 10
819.538644
 20
134.580358
 30
0.0
 10
819.538644
 20
111.281873
 30
0.0
 10
796.240159
 20
111.281873
 30
0.0
 10
796.240159
 20
134.580358
 30
0.0
 10
819.538644
 20
134.580358
 30
0.0
  0
LWPOLYLINE
  5
17b
100
AcDbEntity
  8
0
 62
7
100
AcDbPolyline
 90
4
 70
1
 10
778.190917
 20
157.100000
 30
0.0
 10
787.497597
 20
140.980358
 30
0.0
 10
768.884237
 20
140.980358
 30
0.0
 10
778.190917
 20
157.100000
 30
0.0
  0
LWPOLYLINE
  5
17c
100
AcDbEntity
  8
0
 62
7
100
AcDbPolyline
 90
4
 70
1
 10
793.040159
 20
144.180358
 30
0.0
 10
783.733480
 20
160.300000
 30
0.0
 10
802.346839
 20
160.300000
 30
0.0
 10
793.040159
 20
144.180358
 30
0.0
  0
LWPOLYLINE
  5
17d
100
AcDbEntity
  8
0
 62
7
100
AcDbPolyline
 90
4
 70
1
 10
807.889402
 20
157.100000
 30
0.0
 10
817.196082
 20
140.980358
 30
0.0
 10
798.582722
 20
140.980358
 30
0.0
 10
807.889402
 20
157.100000
 30
0.0
  0
LWPOLYLINE
  5
17e
100
AcDbEntity
  8
0
 62
7
100
AcDbPolyline
 90
4
 70
1
 10
822.738644
 20
144.180358
 30
0.0
 10
813.431964
 20
160.300000
 30
0.0
 10
832.045324
 20
160.300000
 30
0.0
 10
822.738644
 20
144.180358
 30
0.0
  0
LWPOLYLINE
  5
17f
100
AcDbEntity
  8
0
 62
7
100
AcDbPolyline
 90
5
 70
1
 10
849.237129
 20
134.580358
 30
0.0
 10
849.237129
 20
111.281873
 30
0.0
 10
825.938644
 20
111.281873
 30
0.0
 10
825.938644
 20
134.580358
 30
0.0
 10
849.237129
 20
134.580358
 30
0.0
  0
LWPOLYLINE
  5
180
100
AcDbEntity
  8
0
 62
7
100
AcDbPolyline
 90
5
 70
1
 10
878.935614
 20
134.580358
 30
0.0
 10
878.935614
 20
111.281873
 30
0.0
 10
855.637129
 20
111.281873
 30
0.0
 10
855.637129
 20
134.580358
 30
0.0
 10
878.935614
 20
134.580358
 30
0.0
  0
LWPOLYLINE
  5
181
100
AcDbEntity
  8
0
 62
7
100
AcDbPolyline
 90
4
 70
1
 10
837.587887
 20
157.100000
 30
0.0
 10
846.894567
 20
140.980358
 30
0.0
 10
828.281207
 20
140.980358
 30
0.0
 10
837.587887
 20
157.100000
 30
0.0
  0
LWPOLYLINE
  5
182
100
AcDbEntity
  8
0
 62
7
100
AcDbPolyline
 90
4
 70
1
 10
852.437129
 20
144.180358
 30
0.0
 10
843.130449
 20
160.300000
 30
0.0
 10
861.743809
 20
160.300000
 30
0.0
 10
852.437129
 20
144.180358
 30
0.0
  0
LWPOLYLINE
  5
183
100
AcDbEntity
  8
0
 62
7
100
AcDbPolyline
 90
4
 70
1
 10
867.286372
 20
157.100000
 30
0.0
 10
876.593051
 20
140.980358
 30
0.0
 10
857.979692
 20
140.980358
 30
0.0
 10
867.286372
 20
157.100000
 30
0.0
  0
LWPOLYLINE
  5
184
100
AcDbEntity
  8
0
 62
7
100
AcDbPolyline
 90
4
 70
1
 10
882.135614
 20
144.180358
 30
0.0
 10
872.828934
 20
160.300000
 30
0.0
 10
891.442294
 20
160.300000
 30
0.0
 10
882.135614
 20
144.180358
 30
0.0
  0
LWPOLYLINE
  5
185
100
AcDbEntity
  8
0
 62
7
100
AcDbPolyline
 90
5
 70
1
 10
908.634099
 20
134.580358
 30
0.0
 10
908.634099
 20
111.281873
 30
0.0
 10
885.335614
 20
111.281873
 30
0.0
 10
885.335614
 20
134.580358
 30
0.0
 10
908.634099
 20
134.580358
 30
0.0
  0
LWPOLYLINE
  5
186
100
AcDbEntity
  8
0
 62
7
100
AcDbPolyline
 90
5
 70
1
 10
938.332584
 20
134.580358
 30
0.0
 10
938.332584
 20
111.281873
 30
0.0
 10
915.034099
 20
111.281873
 30
0.0
 10
915.034099
 20
134.580358
 30
0.0
 10
938.332584
 20
134.580358
 30
0.0
  0
LWPOLYLINE
  5
187
100
AcDbEntity
  8
0
 62
7
100
AcDbPolyline
 90
4
 70
1
 10
896.984856
 20
157.100000
 30
0.0
 10
906.291536
 20
140.980358
 30
0.0
 10
887.678176
 20
140.980358
 30
0.0
 10
896.984856
 20
157.100000
 30
0.0
  0
LWPOLYLINE
  5
188
100
AcDbEntity
  8
0
 62
7
100
AcDbPolyline
 90
4
 70
1
 10
911.834099
 20
144.180358
 30
0.0
 10
902.527419
 20
160.300000
 30
0.0
 10
921.140779
 20
160.300000
 30
0.0
 10
911.834099
 20
144.180358
 30
0.0
  0
LWPOLYLINE
  5
189
100
AcDbEntity
  8
0
 62
7
100
AcDbPolyline
 90
4
 70
1
 10
926.683341
 20
157.100000
 30
0.0
 10
935.990021
 20
140.980358
 30
0.0
 10
917.376661
 20
140.980358
 30
0.0
 10
926.683341
 20
157.100000
 30
0.0
  0
LWPOLYLINE
  5
18a
100
AcDbEntity
  8
0
 62
7
100
AcDbPolyline
 90
4
 70
1
 10
941.532584
 20
144.180358
 30
0.0
 10
932.225904
 20
160.300000
 30
0.0
 10
950.839263
 20
160.300000
 30
0.0
 10
941.532584
 20
144.180358
 30
0.0
  0
LWPOLYLINE
  5
18b
100
AcDbEntity
  8
0
 62
7
100
AcDbPolyline
 90
5
 70
1
 10
968.031068
 20
134.580358
 30
0.0
 10
968.031068
 20
111.281873
 30
0.0
 10
944.732584
 20
111.281873
 30
0.0
 10
944.732584
 20
134.580358
 30
0.0
 10
968.031068
 20
134.580358
 30
0.0
  0
LWPOLYLINE
  5
18c
100
AcDbEntity
  8
0
 62
7
100
AcDbPolyline
 90
5
 70
1
 10
997.729553
 20
134.580358
 30
0.0
 10
997.729553
 20
111.281873
 30
0.0
 10
974.431068
 20
111.281873
 30
0.0
 10
974.431068
 20
134.580358
 30
0.0
 10
997.729553
 20
134.580358
 30
0.0
  0
LWPOLYLINE
  5
18d
100
AcDbEntity
  8
0
 62
7
100
AcDbPolyline
 90
4
 70
1
 10
956.381826
 20
157.100000
 30
0.0
 10
965.688506
 20
140.980358
 30
0.0
 10
947.075146
 20
140.980358
 30
0.0
 10
956.381826
 20
157.100000
 30
0.0
  0
LWPOLYLINE
  5
18e
100
AcDbEntity
  8
0
 62
7
100
AcDbPolyline
 90
4
 70
1
 10
971.231068
 20
144.180358
 30
0.0
 10
961.924389
 20
160.300000
 30
0.0
 10
980.537748
 20
160.300000
 30
0.0
 10
971.231068
 20
144.180358
 30
0.0
  0
LWPOLYLINE
  5
18f
100
AcDbEntity
  8
0
 62
7
100
AcDbPolyline
 90
4
 70
1
 10
986.080311
 20
157.100000
 30
0.0
 10
995.386991
 20
140.980358
 30
0.0
 10
976.773631
 20
140.980358
 30
0.0
 10
986.080311
 20
157.100000
 30
0.0
  0
LWPOLYLINE
  5
190
100
AcDbEntity
  8
0
 62
7
100
AcDbPolyline
 90
4
 70
1
 10
1000.929553
 20
144.180358
 30
0.0
 10
991.622873
 20
160.300000
 30
0.0
 10
1010.236233
 20
160.300000
 30
0.0
 10
1000.929553
 20
144.180358
 30
0.0
  0
LWPOLYLINE
  5
191
100
AcDbEntity
  8
0
 62
7
100
AcDbPolyline
 90
5
 70
1
 10
1027.428038
 20
134.580358
 30
0.0
 10
1027.428038
 20
111.281873
 30
0.0
 10
1004.129553
 20
111.281873
 30
0.0
 10
1004.129553
 20
134.580358
 30
0.0
 10
1027.428038
 20
134.580358
 30
0.0
  0
LWPOLYLINE
  5
192
100
AcDbEntity
  8
0
 62
7
100
AcDbPolyline
 90
5
 70
1
 10
1033.828038
 20
111.281873
 30
0.0
 10
1033.828038
 20
134.580358
 30
0.0
 10
1039.000008
 20
134.580358
 30
0.0
 10
1039.000008
 20
111.281873
 30
0.0
 10
1033.828038
 20
111.281873
 30
0.0
  0
LWPOLYLINE
  5
193
100
AcDbEntity
  8
0
 62
7
100
AcDbPolyline
 90
4
 70
1
 10
1015.778796
 20
157.100000
 30
0.0
 10
1025.085475
 20
140.980358
 30
0.0
 10
1006.472116
 20
140.980358
 30
0.0
 10
1015.778796
 20
157.100000
 30
0.0
  0
LWPOLYLINE
  5
194
100
AcDbEntity
  8
0
 62
7
100
AcDbPolyline
 90
5
 70
1
 10
1021.321358
 20
160.300000
 30
0.0
 10
1039.000008
 20
160.300000
 30
0.0
 10
1039.000008
 20
158.681036
 30
0.0
 10
1030.628038
 20
144.180358
 30
0.0
 10
1021.321358
 20
160.300000
 30
0.0
  0
LWPOLYLINE
  5
195
100
AcDbEntity
  8
0
 62
7
100
AcDbPolyline
 90
5
 70
1
 10
181.021221
 20
166.700000
 30
0.0
 10
161.000008
 20
166.700000
 30
0.0
 10
161.000008
 20
189.998485
 30
0.0
 10
181.021221
 20
189.998485
 30
0.0
 10
181.021221
 20
166.700000
 30
0.0
  0
LWPOLYLINE
  5
196
100
AcDbEntity
  8
0
 62
7
100
AcDbPolyline
 90
6
 70
1
 10
178.678658
 20
196.398485
 30
0.0
 10
161.000008
 20
196.398485
 30
0.0
 10
161.000008
 20
198.017449
 30
0.0
 10
168.495487
 20
211.000000
 30
0.0
 10
170.248470
 20
211.000000
 30
0.0
 10
178.678658
 20
196.398485
 30
0.0
  0
LWPOLYLINE
  5
197
100
AcDbEntity
  8
0
 62
7
100
AcDbPolyline
 90
4
 70
1
 10
177.638553
 20
211.000000
 30
0.0
 10
190.803889
 20
211.000000
 30
0.0
 10
184.221221
 20
199.598485
 30
0.0
 10
177.638553
 20
211.000000
 30
0.0
  0
LWPOLYLINE
  5
198
100
AcDbEntity
  8
0
 62
7
100
AcDbPolyline
 90
5
 70
1
 10
210.719706
 20
189.998485
 30
0.0
 10
210.719706
 20
166.700000
 30
0.0
 10
187.421221
 20
166.700000
 30
0.0
 10
187.421221
 20
189.998485
 30
0.0
 10
210.719706
 20
189.998485
 30
0.0
  0
LWPOLYLINE
  5
199
100
AcDbEntity
  8
0
 62
7
100
AcDbPolyline
 90
5
 70
1
 10
240.418191
 20
189.998485
 30
0.0
 10
240.418191
 20
166.700000
 30
0.0
 10
217.119706
 20
166.700000
 30
0.0
 10
217.119706
 20
189.998485
 30
0.0
 10
240.418191
 20
189.998485
 30
0.0
  0
LWPOLYLINE
  5
19a
100
AcDbEntity
  8
0
 62
7
100
AcDbPolyline
 90
5
 70
1
 10
208.377143
 20
196.398485
 30
0.0
 10
189.763783
 20
196.398485
 30
0.0
 10
198.193972
 20
211.000000
 30
0.0
 10
199.946954
 20
211.000000
 30
0.0
 10
208.377143
 20
196.398485
 30
0.0
  0
LWPOLYLINE
  5
19b
100
AcDbEntity
  8
0
 62
7
100
AcDbPolyline
 90
4
 70
1
 10
207.337038
 20
211.000000
 30
0.0
 10
220.502374
 20
211.000000
 30
0.0
 10
213.919706
 20
199.598485
 30
0.0
 10
207.337038
 20
211.000000
 30
0.0
  0
LWPOLYLINE
  5
19c
100
AcDbEntity
  8
0
 62
7
100
AcDbPolyline
 90
5
 70
1
 10
238.075628
 20
196.398485
 30
0.0
 10
219.462268
 20
196.398485
 30
0.0
 10
227.892457
 20
211.000000
 30
0.0
 10
229.645439
 20
211.000000
 30
0.0
 10
238.075628
 20
196.398485
 30
0.0
  0
LWPOLYLINE
  5
19d
100
AcDbEntity
  8
0
 62
7
100
AcDbPolyline
 90
4
 70
1
 10
237.035523
 20
211.000000
 30
0.0
 10
250.200858
 20
211.000000
 30
0.0
 10
243.618191
 20
199.598485
 30
0.0
 10
237.035523
 20
211.000000
 30
0.0
  0
LWPOLYLINE
  5
19e
100
AcDbEntity
  8
0
 62
7
100
AcDbPolyline
 90
5
 70
1
 10
270.116675
 20
189.998485
 30
0.0
 10
270.116675
 20
166.700000
 30
0.0
 10
246.818191
 20
166.700000
 30
0.0
 10
246.818191
 20
189.998485
 30
0.0
 10
270.116675
 20
189.998485
 30
0.0
  0
LWPOLYLINE
  5
19f
100
AcDbEntity
  8
0
 62
7
100
AcDbPolyline
 90
5
 70
1
 10
299.815160
 20
189.998485
 30
0.0
 10
299.815160
 20
166.700000
 30
0.0
 10
276.516675
 20
166.700000
 30
0.0
 10
276.516675
 20
189.998485
 30
0.0
 10
299.815160
 20
189.998485
 30
0.0
  0
LWPOLYLINE
  5
1a0
100
AcDbEntity
  8
0
 62
7
100
AcDbPolyline
 90
5
 70
1
 10
267.774113
 20
196.398485
 30
0.0
 10
249.160753
 20
196.398485
 30
0.0
 10
257.590942
 20
211.000000
 30
0.0
 10
259.343924
 20
211.000000
 30
0.0
 10
267.774113
 20
196.398485
 30
0.0
  0
LWPOLYLINE
  5
1a1
100
AcDbEntity
  8
0
 62
7
100
AcDbPolyline
 90
4
 70
1
 10
266.734007
 20
211.000000
 30
0.0
 10
279.899343
 20
211.000000
 30
0.0
 10
273.316675
 20
199.598485
 30
0.0
 10
266.734007
 20
211.000000
 30
0.0
  0
LWPOLYLINE
  5
1a2
100
AcDbEntity
  8
0
 62
7
100
AcDbPolyline
 90
5
 70
1
 10
297.472598
 20
196.398485
 30
0.0
 10
278.859238
 20
196.398485
 30
0.0
 10
287.289427
 20
211.000000
 30
0.0
 10
289.042409
 20
211.000000
 30
0.0
 10
297.472598
 20
196.398485
 30
0.0
  0
LWPOLYLINE
  5
1a3
100
AcDbEntity
  8
0
 62
7
100
AcDbPolyline
 90
4
 70
1
 10
296.432492
 20
211.000000
 30
0.0
 10
309.597828
 20
211.000000
 30
0.0
 10
303.015160
 20
199.598485
 30
0.0
 10
296.432492
 20
211.000000
 30
0.0
  0
LWPOLYLINE
  5
1a4
100
AcDbEntity
  8
0
 62
7
100
AcDbPolyline
 90
5
 70
1
 10
329.513645
 20
189.998485
 30
0.0
 10
329.513645
 20
166.700000
 30
0.0
 10
306.215160
 20
166.700000
 30
0.0
 10
306.215160
 20
189.998485
 30
0.0
 10
329.513645
 20
189.998485
 30
0.0
  0
LWPOLYLINE
  5
1a5
100
AcDbEntity
  8
0
 62
7
100
AcDbPolyline
 90
5
 70
1
 10
359.212130
 20
189.998485
 30
0.0
 10
359.212130
 20
166.700000
 30
0.0
 10
335.913645
 20
166.700000
 30
0.0
 10
335.913645
 20
189.998485
 30
0.0
 10
359.212130
 20
189.998485
 30
0.0
  0
LWPOLYLINE
  5
1a6
100
AcDbEntity
  8
0
 62
7
100
AcDbPolyline
 90
5
 70
1
 10
327.171082
 20
196.398485
 30
0.0
 10
308.557723
 20
196.398485
 30
0.0
 10
316.987911
 20
211.000000
 30
0.0
 10
318.740894
 20
211.000000
 30
0.0
 10
327.171082
 20
196.398485
 30
0.0
  0
LWPOLYLINE
  5
1a7
100
AcDbEntity
  8
0
 62
7
100
AcDbPolyline
 90
4
 70
1
 10
326.130977
 20
211.000000
 30
0.0
 10
339.296313
 20
211.000000
 30
0.0
 10
332.713645
 20
199.598485
 30
0.0
 10
326.130977
 20
211.000000
 30
0.0
  0
LWPOLYLINE
  5
1a8
100
AcDbEntity
  8
0
 62
7
100
AcDbPolyline
 90
5
 70
1
 10
356.869567
 20
196.398485
 30
0.0
 10
338.256208
 20
196.398485
 30
0.0
 10
346.686396
 20
211.000000
 30
0.0
 10
348.439378
 20
211.000000
 30
0.0
 10
356.869567
 20
196.398485
 30
0.0
  0
LWPOLYLINE
  5
1a9
100
AcDbEntity
  8
0
 62
7
100
AcDbPolyline
 90
4
 70
1
 10
355.829462
 20
211.000000
 30
0.0
 10
368.994798
 20
211.000000
 30
0.0
 10
362.412130
 20
199.598485
 30
0.0
 10
355.829462
 20
211.000000
 30
0.0
  0
LWPOLYLINE
  5
1aa
100
AcDbEntity
  8
0
 62
7
100
AcDbPolyline
 90
5
 70
1
 10
388.910615
 20
189.998485
 30
0.0
 10
388.910615
 20
166.700000
 30
0.0
 10
365.612130
 20
166.700000
 30
0.0
 10
365.612130
 20
189.998485
 30
0.0
 10
388.910615
 20
189.998485
 30
0.0
  0
LWPOLYLINE
  5
1ab
100
AcDbEntity
  8
0
 62
7
100
AcDbPolyline
 90
5
 70
1
 10
418.609099
 20
189.998485
 30
0.0
 10
418.609099
 20
166.700000
 30
0.0
 10
395.310615
 20
166.700000
 30
0.0
 10
395.310615
 20
189.998485
 30
0.0
 10
418.609099
 20
189.998485
 30
0.0
  0
LWPOLYLINE
  5
1ac
100
AcDbEntity
  8
0
 62
7
100
AcDbPolyline
 90
5
 70
1
 10
386.568052
 20
196.398485
 30
0.0
 10
367.954692
 20
196.398485
 30
0.0
 10
376.384881
 20
211.000000
 30
0.0
 10
378.137863
 20
211.000000
 30
0.0
 10
386.568052
 20
196.398485
 30
0.0
  0
LWPOLYLINE
  5
1ad
100
AcDbEntity
  8
0
 62
7
100
AcDbPolyline
 90
4
 70
1
 10
385.527947
 20
211.000000
 30
0.0
 10
398.693282
 20
211.000000
 30
0.0
 10
392.110615
 20
199.598485
 30
0.0
 10
385.527947
 20
211.000000
 30
0.0
  0
LWPOLYLINE
  5
1ae
100
AcDbEntity
  8
0
 62
7
100
AcDbPolyline
 90
5
 70
1
 10
416.266537
 20
196.398485
 30
0.0
 10
397.653177
 20
196.398485
 30
0.0
 10
406.083366
 20
211.000000
 30
0.0
 10
407.836348
 20
211.000000
 30
0.0
 10
416.266537
 20
196.398485
 30
0.0
  0
LWPOLYLINE
  5
1af
100
AcDbEntity
  8
0
 62
7
100
AcDbPolyline
 90
4
 70
1
 10
415.226431
 20
211.000000
 30
0.0
 10
428.391767
 20
211.000000
 30
0.0
 10
421.809099
 20
199.598485
 30
0.0
 10
415.226431
 20
211.000000
 30
0.0
  0
LWPOLYLINE
  5
1b0
100
AcDbEntity
  8
0
 62
7
100
AcDbPolyline
 90
5
 70
1
 10
448.307584
 20
189.998485
 30
0.0
 10
448.307584
 20
166.700000
 30
0.0
 10
425.009099
 20
166.700000
 30
0.0
 10
425.009099
 20
189.998485
 30
0.0
 10
448.307584
 20
189.998485
 30
0.0
  0
LWPOLYLINE
  5
1b1
100
AcDbEntity
  8
0
 62
7
100
AcDbPolyline
 90
5
 70
1
 10
478.006069
 20
189.998485
 30
0.0
 10
478.006069
 20
166.700000
 30
0.0
 10
454.707584
 20
166.700000
 30
0.0
 10
454.707584
 20
189.998485
 30
0.0
 10
478.006069
 20
189.998485
 30
0.0
  0
LWPOLYLINE
  5
1b2
100
AcDbEntity
  8
0
 62
7
100
AcDbPolyline
 90
5
 70
1
 10
445.965022
 20
196.398485
 30
0.0
 10
427.351662
 20
196.398485
 30
0.0
 10
435.781851
 20
211.000000
 30
0.0
 10
437.534833
 20
211.000000
 30
0.0
 10
445.965022
 20
196.398485
 30
0.0
  0
LWPOLYLINE
  5
1b3
100
AcDbEntity
  8
0
 62
7
100
AcDbPolyline
 90
4
 70
1
 10
444.924916
 20
211.000000
 30
0.0
 10
458.090252
 20
211.000000
 30
0.0
 10
451.507584
 20
199.598485
 30
0.0
 10
444.924916
 20
211.000000
 30
0.0
  0
LWPOLYLINE
  5
1b4
100
AcDbEntity
  8
0
 62
7
100
AcDbPolyline
 90
5
 70
1
 10
475.663506
 20
196.398485
 30
0.0
 10
457.050147
 20
196.398485
 30
0.0
 10
465.480335
 20
211.000000
 30
0.0
 10
467.233318
 20
211.000000
 30
0.0
 10
475.663506
 20
196.398485
 30
0.0
  0
LWPOLYLINE
  5
1b5
100
AcDbEntity
  8
0
 62
7
100
AcDbPolyline
 90
4
 70
1
 10
474.623401
 20
211.000000
 30
0.0
 10
487.788737
 20
211.000000
 30
0.0
 10
481.206069
 20
199.598485
 30
0.0
 10
474.623401
 20
211.000000
 30
0.0
  0
LWPOLYLINE
  5
1b6
100
AcDbEntity
  8
0
 62
7
100
AcDbPolyline
 90
5
 70
1
 10
507.704554
 20
189.998485
 30
0.0
 10
507.704554
 20
166.700000
 30
0.0
 10
484.406069
 20
166.700000
 30
0.0
 10
484.406069
 20
189.998485
 30
0.0
 10
507.704554
 20
189.998485
 30
0.0
  0
LWPOLYLINE
  5
1b7
100
AcDbEntity
  8
0
 62
7
100
AcDbPolyline
 90
5
 70
1
 10
537.403039
 20
189.998485
 30
0.0
 10
537.403039
 20
166.700000
 30
0.0
 10
514.104554
 20
166.700000
 30
0.0
 10
514.104554
 20
189.998485
 30
0.0
 10
537.403039
 20
189.998485
 30
0.0
  0
LWPOLYLINE
  5
1b8
100
AcDbEntity
  8
0
 62
7
100
AcDbPolyline
 90
5
 70
1
 10
505.361991
 20
196.398485
 30
0.0
 10
486.748632
 20
196.398485
 30
0.0
 10
495.178820
 20
211.000000
 30
0.0
 10
496.931802
 20
211.000000
 30
0.0
 10
505.361991
 20
196.398485
 30
0.0
  0
LWPOLYLINE
  5
1b9
100
AcDbEntity
  8
0
 62
7
100
AcDbPolyline
 90
4
 70
1
 10
504.321886
 20
211.000000
 30
0.0
 10
517.487222
 20
211.000000
 30
0.0
 10
510.904554
 20
199.598485
 30
0.0
 10
504.321886
 20
211.000000
 30
0.0
  0
LWPOLYLINE
  5
1ba
100
AcDbEntity
  8
0
 62
7
100
AcDbPolyline
 90
5
 70
1
 10
535.060476
 20
196.398485
 30
0.0
 10
516.447116
 20
196.398485
 30
0.0
 10
524.877305
 20
211.000000
 30
0.0
 10
526.630287
 20
211.000000
 30
0.0
 10
535.060476
 20
196.398485
 30
0.0
  0
LWPOLYLINE
  5
1bb
100
AcDbEntity
  8
0
 62
7
100
AcDbPolyline
 90
4
 70
1
 10
534.020371
 20
211.000000
 30
0.0
 10
547.185706
 20
211.000000
 30
0.0
 10
540.603039
 20
199.598485
 30
0.0
 10
534.020371
 20
211.000000
 30
0.0
  0
LWPOLYLINE
  5
1bc
100
AcDbEntity
  8
0
 62
7
100
AcDbPolyline
 90
5
 70
1
 10
567.101523
 20
189.998485
 30
0.0
 10
567.101523
 20
166.700000
 30
0.0
 10
543.803039
 20
166.700000
 30
0.0
 10
543.803039
 20
189.998485
 30
0.0
 10
567.101523
 20
189.998485
 30
0.0
  0
LWPOLYLINE
  5
1bd
100
AcDbEntity
  8
0
 62
7
100
AcDbPolyline
 90
5
 70
1
 10
596.800008
 20
189.998485
 30
0.0
 10
596.800008
 20
166.700000
 30
0.0
 10
573.501523
 20
166.700000
 30
0.0
 10
573.501523
 20
189.998485
 30
0.0
 10
596.800008
 20
189.998485
 30
0.0
  0
LWPOLYLINE
  5
1be
100
AcDbEntity
  8
0
 62
7
100
AcDbPolyline
 90
5
 70
1
 10
564.758961
 20
196.398485
 30
0.0
 10
546.145601
 20
196.398485
 30
0.0
 10
554.575790
 20
211.000000
 30
0.0
 10
556.328772
 20
211.000000
 30
0.0
 10
564.758961
 20
196.398485
 30
0.0
  0
LWPOLYLINE
  5
1bf
100
AcDbEntity
  8
0
 62
7
100
AcDbPolyline
 90
4
 70
1
 10
563.718856
 20
211.000000
 30
0.0
 10
576.884191
 20
211.000000
 30
0.0
 10
570.301523
 20
199.598485
 30
0.0
 10
563.718856
 20
211.000000
 30
0.0
  0
LWPOLYLINE
  5
1c0
100
AcDbEntity
  8
0
 62
7
100
AcDbPolyline
 90
5
 70
1
 10
594.457446
 20
196.398485
 30
0.0
 10
575.844086
 20
196.398485
 30
0.0
 10
584.274275
 20
211.000000
 30
0.0
 10
586.027257
 20
211.000000
 30
0.0
 10
594.457446
 20
196.398485
 30
0.0
  0
LWPOLYLINE
  5
1c1
100
AcDbEntity
  8
0
 62
7
100
AcDbPolyline
 90
4
 70
1
 10
593.417340
 20
211.000000
 30
0.0
 10
606.582676
 20
211.000000
 30
0.0
 10
600.000008
 20
199.598485
 30
0.0
 10
593.417340
 20
211.000000
 30
0.0
  0
LWPOLYLINE
  5
1c2
100
AcDbEntity
  8
0
 62
7
100
AcDbPolyline
 90
5
 70
1
 10
626.498493
 20
189.998485
 30
0.0
 10
626.498493
 20
166.700000
 30
0.0
 10
603.200008
 20
166.700000
 30
0.0
 10
603.200008
 20
189.998485
 30
0.0
 10
626.498493
 20
189.998485
 30
0.0
  0
LWPOLYLINE
  5
1c3
100
AcDbEntity
  8
0
 62
7
100
AcDbPolyline
 90
5
 70
1
 10
656.196978
 20
189.998485
 30
0.0
 10
656.196978
 20
166.700000
 30
0.0
 10
632.898493
 20
166.700000
 30
0.0
 10
632.898493
 20
189.998485
 30
0.0
 10
656.196978
 20
189.998485
 30
0.0
  0
LWPOLYLINE
  5
1c4
100
AcDbEntity
  8
0
 62
7
100
AcDbPolyline
 90
5
 70
1
 10
624.155930
 20
196.398485
 30
0.0
 10
605.542571
 20
196.398485
 30
0.0
 10
613.972760
 20
211.000000
 30
0.0
 10
615.725742
 20
211.000000
 30
0.0
 10
624.155930
 20
196.398485
 30
0.0
  0
LWPOLYLINE
  5
1c5
100
AcDbEntity
  8
0
 62
7
100
AcDbPolyline
 90
4
 70
1
 10
623.115825
 20
211.000000
 30
0.0
 10
636.281161
 20
211.000000
 30
0.0
 10
629.698493
 20
199.598485
 30
0.0
 10
623.115825
 20
211.000000
 30
0.0
  0
LWPOLYLINE
  5
1c6
100
AcDbEntity
  8
0
 62
7
100
AcDbPolyline
 90
5
 70
1
 10
653.854415
 20
196.398485
 30
0.0
 10
635.241056
 20
196.398485
 30
0.0
 10
643.671244
 20
211.000000
 30
0.0
 10
645.424227
 20
211.000000
 30
0.0
 10
653.854415
 20
196.398485
 30
0.0
  0
LWPOLYLINE
  5
1c7
100
AcDbEntity
  8
0
 62
7
100
AcDbPolyline
 90
4
 70
1
 10
652.814310
 20
211.000000
 30
0.0
 10
665.979646
 20
211.000000
 30
0.0
 10
659.396978
 20
199.598485
 30
0.0
 10
652.814310
 20
211.000000
 30
0.0
  0
LWPOLYLINE
  5
1c8
100
AcDbEntity
  8
0
 62
7
100
AcDbPolyline
 90
5
 70
1
 10
685.895463
 20
189.998485
 30
0.0
 10
685.895463
 20
166.700000
 30
0.0
 10
662.596978
 20
166.700000
 30
0.0
 10
662.596978
 20
189.998485
 30
0.0
 10
685.895463
 20
189.998485
 30
0.0
  0
LWPOLYLINE
  5
1c9
100
AcDbEntity
  8
0
 62
7
100
AcDbPolyline
 90
5
 70
1
 10
715.593947
 20
189.998485
 30
0.0
 10
715.593947
 20
166.700000
 30
0.0
 10
692.295463
 20
166.700000
 30
0.0
 10
692.295463
 20
189.998485
 30
0.0
 10
715.593947
 20
189.998485
 30
0.0
  0
LWPOLYLINE
  5
1ca
100
AcDbEntity
  8
0
 62
7
100
AcDbPolyline
 90
5
 70
1
 10
683.552900
 20
196.398485
 30
0.0
 10
664.939540
 20
196.398485
 30
0.0
 10
673.369729
 20
211.000000
 30
0.0
 10
675.122711
 20
211.000000
 30
0.0
 10
683.552900
 20
196.398485
 30
0.0
  0
LWPOLYLINE
  5
1cb
100
AcDbEntity
  8
0
 62
7
100
AcDbPolyline
 90
4
 70
1
 10
682.512795
 20
211.000000
 30
0.0
 10
695.678131
 20
211.000000
 30
0.0
 10
689.095463
 20
199.598485
 30
0.0
 10
682.512795
 20
211.000000
 30
0.0
  0
LWPOLYLINE
  5
1cc
100
AcDbEntity
  8
0
 62
7
100
AcDbPolyline
 90
5
 70
1
 10
713.251385
 20
196.398485
 30
0.0
 10
694.638025
 20
196.398485
 30
0.0
 10
703.068214
 20
211.000000
 30
0.0
 10
704.821196
 20
211.000000
 30
0.0
 10
713.251385
 20
196.398485
 30
0.0
  0
LWPOLYLINE
  5
1cd
100
AcDbEntity
  8
0
 62
7
100
AcDbPolyline
 90
4
 70
1
 10
712.211280
 20
211.000000
 30
0.0
 10
725.376615
 20
211.000000
 30
0.0
 10
718.793947
 20
199.598485
 30
0.0
 10
712.211280
 20
211.000000
 30
0.0
  0
LWPOLYLINE
  5
1ce
100
AcDbEntity
  8
0
 62
7
100
AcDbPolyline
 90
5
 70
1
 10
745.292432
 20
189.998485
 30
0.0
 10
745.292432
 20
166.700000
 30
0.0
 10
721.993947
 20
166.700000
 30
0.0
 10
721.993947
 20
189.998485
 30
0.0
 10
745.292432
 20
189.998485
 30
0.0
  0
LWPOLYLINE
  5
1cf
100
AcDbEntity
  8
0
 62
7
100
AcDbPolyline
 90
5
 70
1
 10
774.990917
 20
189.998485
 30
0.0
 10
774.990917
 20
166.700000
 30
0.0
 10
751.692432
 20
166.700000
 30
0.0
 10
751.692432
 20
189.998485
 30
0.0
 10
774.990917
 20
189.998485
 30
0.0
  0
LWPOLYLINE
  5
1d0
100
AcDbEntity
  8
0
 62
7
100
AcDbPolyline
 90
5
 70
1
 10
742.949870
 20
196.398485
 30
0.0
 10
724.336510
 20
196.398485
 30
0.0
 10
732.766699
 20
211.000000
 30
0.0
 10
734.519681
 20
211.000000
 30
0.0
 10
742.949870
 20
196.398485
 30
0.0
  0
LWPOLYLINE
  5
1d1
100
AcDbEntity
  8
0
 62
7
100
AcDbPolyline
 90
4
 70
1
 10
741.909764
 20
211.000000
 30
0.0
 10
755.075100
 20
211.000000
 30
0.0
 10
748.492432
 20
199.598485
 30
0.0
 10
741.909764
 20
211.000000
 30
0.0
  0
LWPOLYLINE
  5
1d2
100
AcDbEntity
  8
0
 62
7
100
AcDbPolyline
 90
5
 70
1
 10
772.648354
 20
196.398485
 30
0.0
 10
754.034995
 20
196.398485
 30
0.0
 10
762.465184
 20
211.000000
 30
0.0
 10
764.218166
 20
211.000000
 30
0.0
 10
772.648354
 20
196.398485
 30
0.0
  0
LWPOLYLINE
  5
1d3
100
AcDbEntity
  8
0
 62
7
100
AcDbPolyline
 90
4
 70
1
 10
771.608249
 20
211.000000
 30
0.0
 10
784.773585
 20
211.000000
 30
0.0
 10
778.190917
 20
199.598485
 30
0.0
 10
771.608249
 20
211.000000
 30
0.0
  0
LWPOLYLINE
  5
1d4
100
AcDbEntity
  8
0
 62
7
100
AcDbPolyline
 90
5
 70
1
 10
804.689402
 20
189.998485
 30
0.0
 10
804.689402
 20
166.700000
 30
0.0
 10
781.390917
 20
166.700000
 30
0.0
 10
781.390917
 20
189.998485
 30
0.0
 10
804.689402
 20
189.998485
 30
0.0
  0
LWPOLYLINE
  5
1d5
100
AcDbEntity
  8
0
 62
7
100
AcDbPolyline
 90
5
 70
1
 10
834.387887
 20
189.998485
 30
0.0
 10
834.387887
 20
166.700000
 30
0.0
 10
811.089402
 20
166.700000
 30
0.0
 10
811.089402
 20
189.998485
 30
0.0
 10
834.387887
 20
189.998485
 30
0.0
  0
LWPOLYLINE
  5
1d6
100
AcDbEntity
  8
0
 62
7
100
AcDbPolyline
 90
5
 70
1
 10
802.346839
 20
196.398485
 30
0.0
 10
783.733480
 20
196.398485
 30
0.0
 10
792.163668
 20
211.000000
 30
0.0
 10
793.916651
 20
211.000000
 30
0.0
 10
802.346839
 20
196.398485
 30
0.0
  0
LWPOLYLINE
  5
1d7
100
AcDbEntity
  8
0
 62
7
100
AcDbPolyline
 90
4
 70
1
 10
801.306734
 20
211.000000
 30
0.0
 10
814.472070
 20
211.000000
 30
0.0
 10
807.889402
 20
199.598485
 30
0.0
 10
801.306734
 20
211.000000
 30
0.0
  0
LWPOLYLINE
  5
1d8
100
AcDbEntity
  8
0
 62
7
100
AcDbPolyline
 90
5
 70
1
 10
832.045324
 20
196.398485
 30
0.0
 10
813.431964
 20
196.398485
 30
0.0
 10
821.862153
 20
211.000000
 30
0.0
 10
823.615135
 20
211.000000
 30
0.0
 10
832.045324
 20
196.398485
 30
0.0
  0
LWPOLYLINE
  5
1d9
100
AcDbEntity
  8
0
 62
7
100
AcDbPolyline
 90
4
 70
1
 10
831.005219
 20
211.000000
 30
0.0
 10
844.170555
 20
211.000000
 30
0.0
 10
837.587887
 20
199.598485
 30
0.0
 10
831.005219
 20
211.000000
 30
0.0
  0
LWPOLYLINE
  5
1da
100
AcDbEntity
  8
0
 62
7
100
AcDbPolyline
 90
5
 70
1
 10
864.086372
 20
189.998485
 30
0.0
 10
864.086372
 20
166.700000
 30
0.0
 10
840.787887
 20
166.700000
 30
0.0
 10
840.787887
 20
189.998485
 30
0.0
 10
864.086372
 20
189.998485
 30
0.0
  0
LWPOLYLINE
  5
1db
100
AcDbEntity
  8
0
 62
7
100
AcDbPolyline
 90
5
 70
1
 10
893.784856
 20
189.998485
 30
0.0
 10
893.784856
 20
166.700000
 30
0.0
 10
870.486372
 20
166.700000
 30
0.0
 10
870.486372
 20
189.998485
 30
0.0
 10
893.784856
 20
189.998485
 30
0.0
  0
LWPOLYLINE
  5
1dc
100
AcDbEntity
  8
0
 62
7
100
AcDbPolyline
 90
5
 70
1
 10
861.743809
 20
196.398485
 30
0.0
 10
843.130449
 20
196.398485
 30
0.0
 10
851.560638
 20
211.000000
 30
0.0
 10
853.313620
 20
211.000000
 30
0.0
 10
861.743809
 20
196.398485
 30
0.0
  0
LWPOLYLINE
  5
1dd
100
AcDbEntity
  8
0
 62
7
100
AcDbPolyline
 90
4
 70
1
 10
860.703704
 20
211.000000
 30
0.0
 10
873.869039
 20
211.000000
 30
0.0
 10
867.286372
 20
199.598485
 30
0.0
 10
860.703704
 20
211.000000
 30
0.0
  0
LWPOLYLINE
  5
1de
100
AcDbEntity
  8
0
 62
7
100
AcDbPolyline
 90
5
 70
1
 10
891.442294
 20
196.398485
 30
0.0
 10
872.828934
 20
196.398485
 30
0.0
 10
881.259123
 20
211.000000
 30
0.0
 10
883.012105
 20
211.000000
 30
0.0
 10
891.442294
 20
196.398485
 30
0.0
  0
LWPOLYLINE
  5
1df
100
AcDbEntity
  8
0
 62
7
100
AcDbPolyline
 90
4
 70
1
 10
890.402188
 20
211.000000
 30
0.0
 10
903.567524
 20
211.000000
 30
0.0
 10
896.984856
 20
199.598485
 30
0.0
 10
890.402188
 20
211.000000
 30
0.0
  0
LWPOLYLINE
  5
1e0
100
AcDbEntity
  8
0
 62
7
100
AcDbPolyline
 90
5
 70
1
 10
923.483341
 20
189.998485
 30
0.0
 10
923.483341
 20
166.700000
 30
0.0
 10
900.184856
 20
166.700000
 30
0.0
 10
900.184856
 20
189.998485
 30
0.0
 10
923.483341
 20
189.998485
 30
0.0
  0
LWPOLYLINE
  5
1e1
100
AcDbEntity
  8
0
 62
7
100
AcDbPolyline
 90
5
 70
1
 10
953.181826
 20
189.998485
 30
0.0
 10
953.181826
 20
166.700000
 30
0.0
 10
929.883341
 20
166.700000
 30
0.0
 10
929.883341
 20
189.998485
 30
0.0
 10
953.181826
 20
189.998485
 30
0.0
  0
LWPOLYLINE
  5
1e2
100
AcDbEntity
  8
0
 62
7
100
AcDbPolyline
 90
5
 70
1
 10
921.140779
 20
196.398485
 30
0.0
 10
902.527419
 20
196.398485
 30
0.0
 10
910.957608
 20
211.000000
 30
0.0
 10
912.710590
 20
211.000000
 30
0.0
 10
921.140779
 20
196.398485
 30
0.0
  0
LWPOLYLINE
  5
1e3
100
AcDbEntity
  8
0
 62
7
100
AcDbPolyline
 90
4
 70
1
 10
920.100673
 20
211.000000
 30
0.0
 10
933.266009
 20
211.000000
 30
0.0
 10
926.683341
 20
199.598485
 30
0.0
 10
920.100673
 20
211.000000
 30
0.0
  0
LWPOLYLINE
  5
1e4
100
AcDbEntity
  8
0
 62
7
100
AcDbPolyline
 90
5
 70
1
 10
950.839263
 20
196.398485
 30
0.0
 10
932.225904
 20
196.398485
 30
0.0
 10
940.656092
 20
211.000000
 30
0.0
 10
942.409075
 20
211.000000
 30
0.0
 10
950.839263
 20
196.398485
 30
0.0
  0
LWPOLYLINE
  5
1e5
100
AcDbEntity
  8
0
 62
7
100
AcDbPolyline
 90
4
 70
1
 10
949.799158
 20
211.000000
 30
0.0
 10
962.964494
 20
211.000000
 30
0.0
 10
956.381826
 20
199.598485
 30
0.0
 10
949.799158
 20
211.000000
 30
0.0
  0
LWPOLYLINE
  5
1e6
100
AcDbEntity
  8
0
 62
7
100
AcDbPolyline
 90
5
 70
1
 10
982.880311
 20
189.998485
 30
0.0
 10
982.880311
 20
166.700000
 30
0.0
 10
959.581826
 20
166.700000
 30
0.0
 10
959.581826
 20
189.998485
 30
0.0
 10
982.880311
 20
189.998485
 30
0.0
  0
LWPOLYLINE
  5
1e7
100
AcDbEntity
  8
0
 62
7
100
AcDbPolyline
 90
5
 70
1
 10
1012.578796
 20
189.998485
 30
0.0
 10
1012.578796
 20
166.700000
 30
0.0
 10
989.280311
 20
166.700000
 30
0.0
 10
989.280311
 20
189.998485
 30
0.0
 10
1012.578796
 20
189.998485
 30
0.0
  0
LWPOLYLINE
  5
1e8
100
AcDbEntity
  8
0
 62
7
100
AcDbPolyline
 90
5
 70
1
 10
980.537748
 20
196.398485
 30
0.0
 10
961.924389
 20
196.398485
 30
0.0
 10
970.354577
 20
211.000000
 30
0.0
 10
972.107559
 20
211.000000
 30
0.0
 10
980.537748
 20
196.398485
 30
0.0
  0
LWPOLYLINE
  5
1e9
100
AcDbEntity
  8
0
 62
7
100
AcDbPolyline
 90
4
 70
1
 10
979.497643
 20
211.000000
 30
0.0
 10
992.662979
 20
211.000000
 30
0.0
 10
986.080311
 20
199.598485
 30
0.0
 10
979.497643
 20
211.000000
 30
0.0
  0
LWPOLYLINE
  5
1ea
100
AcDbEntity
  8
0
 62
7
100
AcDbPolyline
 90
5
 70
1
 10
1010.236233
 20
196.398485
 30
0.0
 10
991.622873
 20
196.398485
 30
0.0
 10
1000.053062
 20
211.000000
 30
0.0
 10
1001.806044
 20
211.000000
 30
0.0
 10
1010.236233
 20
196.398485
 30
0.0
  0
LWPOLYLINE
  5
1eb
100
AcDbEntity
  8
0
 62
7
100
AcDbPolyline
 90
4
 70
1
 10
1009.196128
 20
211.000000
 30
0.0
 10
1022.361463
 20
211.000000
 30
0.0
 10
1015.778796
 20
199.598485
 30
0.0
 10
1009.196128
 20
211.000000
 30
0.0
  0
LWPOLYLINE
  5
1ec
100
AcDbEntity
  8
0
 62
7
100
AcDbPolyline
 90
5
 70
1
 10
1018.978796
 20
166.700000
 30
0.0
 10
1018.978796
 20
189.998485
 30
0.0
 10
1039.000008
 20
189.998485
 30
0.0
 10
1039.000008
 20
166.700000
 30
0.0
 10
1018.978796
 20
166.700000
 30
0.0
  0
LWPOLYLINE
  5
1ed
100
AcDbEntity
  8
0
 62
7
100
AcDbPolyline
 90
6
 70
1
 10
1039.000008
 20
198.017449
 30
0.0
 10
1039.000008
 20
196.398485
 30
0.0
 10
1021.321358
 20
196.398485
 30
0.0
 10
1029.751547
 20
211.000000
 30
0.0
 10
1031.504529
 20
211.000000
 30
0.0
 10
1039.000008
 20
198.017449
 30
0.0
  0
LWPOLYLINE
  5
1ee
100
AcDbEntity
  8
0
 62
7
100
AcDbPolyline
 90
5
 70
1
 10
146.000008
 20
65.000000
 30
0.0
 10
1054.000008
 20
65.000000
 30
0.0
 10
1054.000008
 20
235.000000
 30
0.0
 10
146.000008
 20
235.000000
 30
0.0
 10
146.000008
 20
65.000000
 30
0.0
  0
ENDSEC
  0
SECTION
  2
OBJECTS
  0
DICTIONARY
  5
C
330
0
100
AcDbDictionary
  3
ACAD_GROUP
350
D
  3
ACAD_MLINESTYLE
350
17
  0
DICTIONARY
  5
D
330
C
100
AcDbDictionary
  0
DICTIONARY
  5
1A
330
C
100
AcDbDictionary
  0
DICTIONARY
  5
17
330
C
100
AcDbDictionary
  3
STANDARD
350
18
  0
DICTIONARY
  5
19
330
C
100
AcDbDictionary
  0
ENDSEC
  0
EOF
