999
"DXF R12 Output" (www.mydxf.blogspot.com)
 0 
SECTION
 2 
HEADER
 9 
$ACADVER
 1 
AC1009
 9 
$EXTMIN
 10 
 0 
 20 
 0 
 9 
$EXTMAX
 10 
 8.5 
 20 
 11 
 0 
ENDSEC
 0 
SECTION
 2 
ENTITIES
0
POLYLINE
8
Layer 1
62
7
70
1
10
0.000000
20
0.000000
66
1
0
VERTEX
8
Layer 1
10
186.342533
20
89.057786
70
0
0
VERTEX
8
Layer 1
10
178.096514
20
103.340311
70
0
0
VERTEX
8
Layer 1
10
194.588553
20
103.340311
70
0
0
VERTEX
8
Layer 1
10
186.342533
20
89.057786
70
0
0
VERTEX
8
Layer 1
10
186.342533
20
89.057786
70
0
0
SEQEND
8
Layer 1
0
POLYLINE
8
Layer 1
62
7
70
1
10
0.000000
20
0.000000
66
1
0
VERTEX
8
Layer 1
10
213.919698
20
89.057786
70
0
0
VERTEX
8
Layer 1
10
205.673678
20
103.340311
70
0
0
VERTEX
8
Layer 1
10
222.165718
20
103.340311
70
0
0
VERTEX
8
Layer 1
10
213.919698
20
89.057786
70
0
0
VERTEX
8
Layer 1
10
213.919698
20
89.057786
70
0
0
SEQEND
8
Layer 1
0
POLYLINE
8
Layer 1
62
7
70
1
10
0.000000
20
0.000000
66
1
0
VERTEX
8
Layer 1
10
241.496862
20
89.057786
70
0
0
VERTEX
8
Layer 1
10
233.250843
20
103.340311
70
0
0
VERTEX
8
Layer 1
10
249.742882
20
103.340311
70
0
0
VERTEX
8
Layer 1
10
241.496862
20
89.057786
70
0
0
VERTEX
8
Layer 1
10
241.496862
20
89.057786
70
0
0
SEQEND
8
Layer 1
0
POLYLINE
8
Layer 1
62
7
70
1
10
0.000000
20
0.000000
66
1
0
VERTEX
8
Layer 1
10
269.074027
20
89.057786
70
0
0
VERTEX
8
Layer 1
10
260.828007
20
103.340311
70
0
0
VERTEX
8
Layer 1
10
277.320047
20
103.340311
70
0
0
VERTEX
8
Layer 1
10
269.074027
20
89.057786
70
0
0
VERTEX
8
Layer 1
10
269.074027
20
89.057786
70
0
0
SEQEND
8
Layer 1
0
POLYLINE
8
Layer 1
62
7
70
1
10
0.000000
20
0.000000
66
1
0
VERTEX
8
Layer 1
10
296.651191
20
89.057786
70
0
0
VERTEX
8
Layer 1
10
288.405172
20
103.340311
70
0
0
VERTEX
8
Layer 1
10
304.897211
20
103.340311
70
0
0
VERTEX
8
Layer 1
10
296.651191
20
89.057786
70
0
0
VERTEX
8
Layer 1
10
296.651191
20
89.057786
70
0
0
SEQEND
8
Layer 1
0
POLYLINE
8
Layer 1
62
7
70
1
10
0.000000
20
0.000000
66
1
0
VERTEX
8
Layer 1
10
324.228356
20
89.057786
70
0
0
VERTEX
8
Layer 1
10
315.982336
20
103.340311
70
0
0
VERTEX
8
Layer 1
10
332.474375
20
103.340311
70
0
0
VERTEX
8
Layer 1
10
324.228356
20
89.057786
70
0
0
VERTEX
8
Layer 1
10
324.228356
20
89.057786
70
0
0
SEQEND
8
Layer 1
0
POLYLINE
8
Layer 1
62
7
70
1
10
0.000000
20
0.000000
66
1
0
VERTEX
8
Layer 1
10
351.805520
20
89.057786
70
0
0
VERTEX
8
Layer 1
10
343.559501
20
103.340311
70
0
0
VERTEX
8
Layer 1
10
360.051540
20
103.340311
70
0
0
VERTEX
8
Layer 1
10
351.805520
20
89.057786
70
0
0
VERTEX
8
Layer 1
10
351.805520
20
89.057786
70
0
0
SEQEND
8
Layer 1
0
POLYLINE
8
Layer 1
62
7
70
1
10
0.000000
20
0.000000
66
1
0
VERTEX
8
Layer 1
10
379.382685
20
89.057786
70
0
0
VERTEX
8
Layer 1
10
371.136665
20
103.340311
70
0
0
VERTEX
8
Layer 1
10
387.628704
20
103.340311
70
0
0
VERTEX
8
Layer 1
10
379.382685
20
89.057786
70
0
0
VERTEX
8
Layer 1
10
379.382685
20
89.057786
70
0
0
SEQEND
8
Layer 1
0
POLYLINE
8
Layer 1
62
7
70
1
10
0.000000
20
0.000000
66
1
0
VERTEX
8
Layer 1
10
406.959849
20
89.057786
70
0
0
VERTEX
8
Layer 1
10
398.713830
20
103.340311
70
0
0
VERTEX
8
Layer 1
10
415.205869
20
103.340311
70
0
0
VERTEX
8
Layer 1
10
406.959849
20
89.057786
70
0
0
VERTEX
8
Layer 1
10
406.959849
20
89.057786
70
0
0
SEQEND
8
Layer 1
0
POLYLINE
8
Layer 1
62
7
70
1
10
0.000000
20
0.000000
66
1
0
VERTEX
8
Layer 1
10
434.537014
20
89.057786
70
0
0
VERTEX
8
Layer 1
10
426.290994
20
103.340311
70
0
0
VERTEX
8
Layer 1
10
442.783033
20
103.340311
70
0
0
VERTEX
8
Layer 1
10
434.537014
20
89.057786
70
0
0
VERTEX
8
Layer 1
10
434.537014
20
89.057786
70
0
0
SEQEND
8
Layer 1
0
POLYLINE
8
Layer 1
62
7
70
1
10
0.000000
20
0.000000
66
1
0
VERTEX
8
Layer 1
10
462.114178
20
89.057786
70
0
0
VERTEX
8
Layer 1
10
453.868159
20
103.340311
70
0
0
VERTEX
8
Layer 1
10
470.360198
20
103.340311
70
0
0
VERTEX
8
Layer 1
10
462.114178
20
89.057786
70
0
0
VERTEX
8
Layer 1
10
462.114178
20
89.057786
70
0
0
SEQEND
8
Layer 1
0
POLYLINE
8
Layer 1
62
7
70
1
10
0.000000
20
0.000000
66
1
0
VERTEX
8
Layer 1
10
489.691343
20
89.057786
70
0
0
VERTEX
8
Layer 1
10
481.445323
20
103.340311
70
0
0
VERTEX
8
Layer 1
10
497.937362
20
103.340311
70
0
0
VERTEX
8
Layer 1
10
489.691343
20
89.057786
70
0
0
VERTEX
8
Layer 1
10
489.691343
20
89.057786
70
0
0
SEQEND
8
Layer 1
0
POLYLINE
8
Layer 1
62
7
70
1
10
0.000000
20
0.000000
66
1
0
VERTEX
8
Layer 1
10
517.268507
20
89.057786
70
0
0
VERTEX
8
Layer 1
10
509.022487
20
103.340311
70
0
0
VERTEX
8
Layer 1
10
525.514527
20
103.340311
70
0
0
VERTEX
8
Layer 1
10
517.268507
20
89.057786
70
0
0
VERTEX
8
Layer 1
10
517.268507
20
89.057786
70
0
0
SEQEND
8
Layer 1
0
POLYLINE
8
Layer 1
62
7
70
1
10
0.000000
20
0.000000
66
1
0
VERTEX
8
Layer 1
10
544.845672
20
89.057786
70
0
0
VERTEX
8
Layer 1
10
536.599652
20
103.340311
70
0
0
VERTEX
8
Layer 1
10
553.091691
20
103.340311
70
0
0
VERTEX
8
Layer 1
10
544.845672
20
89.057786
70
0
0
VERTEX
8
Layer 1
10
544.845672
20
89.057786
70
0
0
SEQEND
8
Layer 1
0
POLYLINE
8
Layer 1
62
7
70
1
10
0.000000
20
0.000000
66
1
0
VERTEX
8
Layer 1
10
572.422836
20
89.057786
70
0
0
VERTEX
8
Layer 1
10
564.176816
20
103.340311
70
0
0
VERTEX
8
Layer 1
10
580.668856
20
103.340311
70
0
0
VERTEX
8
Layer 1
10
572.422836
20
89.057786
70
0
0
VERTEX
8
Layer 1
10
572.422836
20
89.057786
70
0
0
SEQEND
8
Layer 1
0
POLYLINE
8
Layer 1
62
7
70
1
10
0.000000
20
0.000000
66
1
0
VERTEX
8
Layer 1
10
600.000000
20
89.057786
70
0
0
VERTEX
8
Layer 1
10
591.753981
20
103.340311
70
0
0
VERTEX
8
Layer 1
10
608.246020
20
103.340311
70
0
0
VERTEX
8
Layer 1
10
600.000000
20
89.057786
70
0
0
VERTEX
8
Layer 1
10
600.000000
20
89.057786
70
0
0
SEQEND
8
Layer 1
0
POLYLINE
8
Layer 1
62
7
70
1
10
0.000000
20
0.000000
66
1
0
VERTEX
8
Layer 1
10
627.577165
20
89.057786
70
0
0
VERTEX
8
Layer 1
10
619.331145
20
103.340311
70
0
0
VERTEX
8
Layer 1
10
635.823185
20
103.340311
70
0
0
VERTEX
8
Layer 1
10
627.577165
20
89.057786
70
0
0
VERTEX
8
Layer 1
10
627.577165
20
89.057786
70
0
0
SEQEND
8
Layer 1
0
POLYLINE
8
Layer 1
62
7
70
1
10
0.000000
20
0.000000
66
1
0
VERTEX
8
Layer 1
10
655.154329
20
89.057786
70
0
0
VERTEX
8
Layer 1
10
646.908310
20
103.340311
70
0
0
VERTEX
8
Layer 1
10
663.400349
20
103.340311
70
0
0
VERTEX
8
Layer 1
10
655.154329
20
89.057786
70
0
0
VERTEX
8
Layer 1
10
655.154329
20
89.057786
70
0
0
SEQEND
8
Layer 1
0
POLYLINE
8
Layer 1
62
7
70
1
10
0.000000
20
0.000000
66
1
0
VERTEX
8
Layer 1
10
682.731494
20
89.057786
70
0
0
VERTEX
8
Layer 1
10
674.485474
20
103.340311
70
0
0
VERTEX
8
Layer 1
10
690.977514
20
103.340311
70
0
0
VERTEX
8
Layer 1
10
682.731494
20
89.057786
70
0
0
VERTEX
8
Layer 1
10
682.731494
20
89.057786
70
0
0
SEQEND
8
Layer 1
0
POLYLINE
8
Layer 1
62
7
70
1
10
0.000000
20
0.000000
66
1
0
VERTEX
8
Layer 1
10
710.308658
20
89.057786
70
0
0
VERTEX
8
Layer 1
10
702.062639
20
103.340311
70
0
0
VERTEX
8
Layer 1
10
718.554678
20
103.340311
70
0
0
VERTEX
8
Layer 1
10
710.308658
20
89.057786
70
0
0
VERTEX
8
Layer 1
10
710.308658
20
89.057786
70
0
0
SEQEND
8
Layer 1
0
POLYLINE
8
Layer 1
62
7
70
1
10
0.000000
20
0.000000
66
1
0
VERTEX
8
Layer 1
10
737.885823
20
89.057786
70
0
0
VERTEX
8
Layer 1
10
729.639803
20
103.340311
70
0
0
VERTEX
8
Layer 1
10
746.131842
20
103.340311
70
0
0
VERTEX
8
Layer 1
10
737.885823
20
89.057786
70
0
0
VERTEX
8
Layer 1
10
737.885823
20
89.057786
70
0
0
SEQEND
8
Layer 1
0
POLYLINE
8
Layer 1
62
7
70
1
10
0.000000
20
0.000000
66
1
0
VERTEX
8
Layer 1
10
765.462987
20
89.057786
70
0
0
VERTEX
8
Layer 1
10
757.216968
20
103.340311
70
0
0
VERTEX
8
Layer 1
10
773.709007
20
103.340311
70
0
0
VERTEX
8
Layer 1
10
765.462987
20
89.057786
70
0
0
VERTEX
8
Layer 1
10
765.462987
20
89.057786
70
0
0
SEQEND
8
Layer 1
0
POLYLINE
8
Layer 1
62
7
70
1
10
0.000000
20
0.000000
66
1
0
VERTEX
8
Layer 1
10
793.040152
20
89.057786
70
0
0
VERTEX
8
Layer 1
10
784.794132
20
103.340311
70
0
0
VERTEX
8
Layer 1
10
801.286171
20
103.340311
70
0
0
VERTEX
8
Layer 1
10
793.040152
20
89.057786
70
0
0
VERTEX
8
Layer 1
10
793.040152
20
89.057786
70
0
0
SEQEND
8
Layer 1
0
POLYLINE
8
Layer 1
62
7
70
1
10
0.000000
20
0.000000
66
1
0
VERTEX
8
Layer 1
10
820.617316
20
89.057786
70
0
0
VERTEX
8
Layer 1
10
812.371297
20
103.340311
70
0
0
VERTEX
8
Layer 1
10
828.863336
20
103.340311
70
0
0
VERTEX
8
Layer 1
10
820.617316
20
89.057786
70
0
0
VERTEX
8
Layer 1
10
820.617316
20
89.057786
70
0
0
SEQEND
8
Layer 1
0
POLYLINE
8
Layer 1
62
7
70
1
10
0.000000
20
0.000000
66
1
0
VERTEX
8
Layer 1
10
848.194481
20
89.057786
70
0
0
VERTEX
8
Layer 1
10
839.948461
20
103.340311
70
0
0
VERTEX
8
Layer 1
10
856.440500
20
103.340311
70
0
0
VERTEX
8
Layer 1
10
848.194481
20
89.057786
70
0
0
VERTEX
8
Layer 1
10
848.194481
20
89.057786
70
0
0
SEQEND
8
Layer 1
0
POLYLINE
8
Layer 1
62
7
70
1
10
0.000000
20
0.000000
66
1
0
VERTEX
8
Layer 1
10
875.771645
20
89.057786
70
0
0
VERTEX
8
Layer 1
10
867.525626
20
103.340311
70
0
0
VERTEX
8
Layer 1
10
884.017665
20
103.340311
70
0
0
VERTEX
8
Layer 1
10
875.771645
20
89.057786
70
0
0
VERTEX
8
Layer 1
10
875.771645
20
89.057786
70
0
0
SEQEND
8
Layer 1
0
POLYLINE
8
Layer 1
62
7
70
1
10
0.000000
20
0.000000
66
1
0
VERTEX
8
Layer 1
10
903.348810
20
89.057786
70
0
0
VERTEX
8
Layer 1
10
895.102790
20
103.340311
70
0
0
VERTEX
8
Layer 1
10
911.594829
20
103.340311
70
0
0
VERTEX
8
Layer 1
10
903.348810
20
89.057786
70
0
0
VERTEX
8
Layer 1
10
903.348810
20
89.057786
70
0
0
SEQEND
8
Layer 1
0
POLYLINE
8
Layer 1
62
7
70
1
10
0.000000
20
0.000000
66
1
0
VERTEX
8
Layer 1
10
930.925974
20
89.057786
70
0
0
VERTEX
8
Layer 1
10
922.679954
20
103.340311
70
0
0
VERTEX
8
Layer 1
10
939.171994
20
103.340311
70
0
0
VERTEX
8
Layer 1
10
930.925974
20
89.057786
70
0
0
VERTEX
8
Layer 1
10
930.925974
20
89.057786
70
0
0
SEQEND
8
Layer 1
0
POLYLINE
8
Layer 1
62
7
70
1
10
0.000000
20
0.000000
66
1
0
VERTEX
8
Layer 1
10
958.503139
20
89.057786
70
0
0
VERTEX
8
Layer 1
10
950.257119
20
103.340311
70
0
0
VERTEX
8
Layer 1
10
966.749158
20
103.340311
70
0
0
VERTEX
8
Layer 1
10
958.503139
20
89.057786
70
0
0
VERTEX
8
Layer 1
10
958.503139
20
89.057786
70
0
0
SEQEND
8
Layer 1
0
POLYLINE
8
Layer 1
62
7
70
1
10
0.000000
20
0.000000
66
1
0
VERTEX
8
Layer 1
10
986.080303
20
89.057786
70
0
0
VERTEX
8
Layer 1
10
977.834283
20
103.340311
70
0
0
VERTEX
8
Layer 1
10
994.326323
20
103.340311
70
0
0
VERTEX
8
Layer 1
10
986.080303
20
89.057786
70
0
0
VERTEX
8
Layer 1
10
986.080303
20
89.057786
70
0
0
SEQEND
8
Layer 1
0
POLYLINE
8
Layer 1
62
7
70
1
10
0.000000
20
0.000000
66
1
0
VERTEX
8
Layer 1
10
1013.657467
20
89.057786
70
0
0
VERTEX
8
Layer 1
10
1005.411448
20
103.340311
70
0
0
VERTEX
8
Layer 1
10
1021.903487
20
103.340311
70
0
0
VERTEX
8
Layer 1
10
1013.657467
20
89.057786
70
0
0
VERTEX
8
Layer 1
10
1013.657467
20
89.057786
70
0
0
SEQEND
8
Layer 1
0
POLYLINE
8
Layer 1
62
7
70
1
10
0.000000
20
0.000000
66
1
0
VERTEX
8
Layer 1
10
196.931116
20
130.917475
70
0
0
VERTEX
8
Layer 1
10
196.931116
20
109.740311
70
0
0
VERTEX
8
Layer 1
10
175.753951
20
109.740311
70
0
0
VERTEX
8
Layer 1
10
175.753951
20
130.917475
70
0
0
VERTEX
8
Layer 1
10
196.931116
20
130.917475
70
0
0
VERTEX
8
Layer 1
10
196.931116
20
130.917475
70
0
0
SEQEND
8
Layer 1
0
POLYLINE
8
Layer 1
62
7
70
1
10
0.000000
20
0.000000
66
1
0
VERTEX
8
Layer 1
10
186.342533
20
151.600000
70
0
0
VERTEX
8
Layer 1
10
194.588553
20
137.317475
70
0
0
VERTEX
8
Layer 1
10
178.096514
20
137.317475
70
0
0
VERTEX
8
Layer 1
10
186.342533
20
151.600000
70
0
0
VERTEX
8
Layer 1
10
186.342533
20
151.600000
70
0
0
SEQEND
8
Layer 1
0
POLYLINE
8
Layer 1
62
7
70
1
10
0.000000
20
0.000000
66
1
0
VERTEX
8
Layer 1
10
200.131116
20
140.517475
70
0
0
VERTEX
8
Layer 1
10
191.885096
20
154.800000
70
0
0
VERTEX
8
Layer 1
10
208.377135
20
154.800000
70
0
0
VERTEX
8
Layer 1
10
200.131116
20
140.517475
70
0
0
VERTEX
8
Layer 1
10
200.131116
20
140.517475
70
0
0
SEQEND
8
Layer 1
0
POLYLINE
8
Layer 1
62
7
70
1
10
0.000000
20
0.000000
66
1
0
VERTEX
8
Layer 1
10
224.508280
20
130.917475
70
0
0
VERTEX
8
Layer 1
10
224.508280
20
109.740311
70
0
0
VERTEX
8
Layer 1
10
203.331116
20
109.740311
70
0
0
VERTEX
8
Layer 1
10
203.331116
20
130.917475
70
0
0
VERTEX
8
Layer 1
10
224.508280
20
130.917475
70
0
0
VERTEX
8
Layer 1
10
224.508280
20
130.917475
70
0
0
SEQEND
8
Layer 1
0
POLYLINE
8
Layer 1
62
7
70
1
10
0.000000
20
0.000000
66
1
0
VERTEX
8
Layer 1
10
252.085445
20
130.917475
70
0
0
VERTEX
8
Layer 1
10
252.085445
20
109.740311
70
0
0
VERTEX
8
Layer 1
10
230.908280
20
109.740311
70
0
0
VERTEX
8
Layer 1
10
230.908280
20
130.917475
70
0
0
VERTEX
8
Layer 1
10
252.085445
20
130.917475
70
0
0
VERTEX
8
Layer 1
10
252.085445
20
130.917475
70
0
0
SEQEND
8
Layer 1
0
POLYLINE
8
Layer 1
62
7
70
1
10
0.000000
20
0.000000
66
1
0
VERTEX
8
Layer 1
10
213.919698
20
151.600000
70
0
0
VERTEX
8
Layer 1
10
222.165718
20
137.317475
70
0
0
VERTEX
8
Layer 1
10
205.673678
20
137.317475
70
0
0
VERTEX
8
Layer 1
10
213.919698
20
151.600000
70
0
0
VERTEX
8
Layer 1
10
213.919698
20
151.600000
70
0
0
SEQEND
8
Layer 1
0
POLYLINE
8
Layer 1
62
7
70
1
10
0.000000
20
0.000000
66
1
0
VERTEX
8
Layer 1
10
227.708280
20
140.517475
70
0
0
VERTEX
8
Layer 1
10
219.462261
20
154.800000
70
0
0
VERTEX
8
Layer 1
10
235.954300
20
154.800000
70
0
0
VERTEX
8
Layer 1
10
227.708280
20
140.517475
70
0
0
VERTEX
8
Layer 1
10
227.708280
20
140.517475
70
0
0
SEQEND
8
Layer 1
0
POLYLINE
8
Layer 1
62
7
70
1
10
0.000000
20
0.000000
66
1
0
VERTEX
8
Layer 1
10
241.496862
20
151.600000
70
0
0
VERTEX
8
Layer 1
10
249.742882
20
137.317475
70
0
0
VERTEX
8
Layer 1
10
233.250843
20
137.317475
70
0
0
VERTEX
8
Layer 1
10
241.496862
20
151.600000
70
0
0
VERTEX
8
Layer 1
10
241.496862
20
151.600000
70
0
0
SEQEND
8
Layer 1
0
POLYLINE
8
Layer 1
62
7
70
1
10
0.000000
20
0.000000
66
1
0
VERTEX
8
Layer 1
10
255.285445
20
140.517475
70
0
0
VERTEX
8
Layer 1
10
247.039425
20
154.800000
70
0
0
VERTEX
8
Layer 1
10
263.531464
20
154.800000
70
0
0
VERTEX
8
Layer 1
10
255.285445
20
140.517475
70
0
0
VERTEX
8
Layer 1
10
255.285445
20
140.517475
70
0
0
SEQEND
8
Layer 1
0
POLYLINE
8
Layer 1
62
7
70
1
10
0.000000
20
0.000000
66
1
0
VERTEX
8
Layer 1
10
279.662609
20
130.917475
70
0
0
VERTEX
8
Layer 1
10
279.662609
20
109.740311
70
0
0
VERTEX
8
Layer 1
10
258.485445
20
109.740311
70
0
0
VERTEX
8
Layer 1
10
258.485445
20
130.917475
70
0
0
VERTEX
8
Layer 1
10
279.662609
20
130.917475
70
0
0
VERTEX
8
Layer 1
10
279.662609
20
130.917475
70
0
0
SEQEND
8
Layer 1
0
POLYLINE
8
Layer 1
62
7
70
1
10
0.000000
20
0.000000
66
1
0
VERTEX
8
Layer 1
10
307.239774
20
130.917475
70
0
0
VERTEX
8
Layer 1
10
307.239774
20
109.740311
70
0
0
VERTEX
8
Layer 1
10
286.062609
20
109.740311
70
0
0
VERTEX
8
Layer 1
10
286.062609
20
130.917475
70
0
0
VERTEX
8
Layer 1
10
307.239774
20
130.917475
70
0
0
VERTEX
8
Layer 1
10
307.239774
20
130.917475
70
0
0
SEQEND
8
Layer 1
0
POLYLINE
8
Layer 1
62
7
70
1
10
0.000000
20
0.000000
66
1
0
VERTEX
8
Layer 1
10
269.074027
20
151.600000
70
0
0
VERTEX
8
Layer 1
10
277.320047
20
137.317475
70
0
0
VERTEX
8
Layer 1
10
260.828007
20
137.317475
70
0
0
VERTEX
8
Layer 1
10
269.074027
20
151.600000
70
0
0
VERTEX
8
Layer 1
10
269.074027
20
151.600000
70
0
0
SEQEND
8
Layer 1
0
POLYLINE
8
Layer 1
62
7
70
1
10
0.000000
20
0.000000
66
1
0
VERTEX
8
Layer 1
10
282.862609
20
140.517475
70
0
0
VERTEX
8
Layer 1
10
274.616589
20
154.800000
70
0
0
VERTEX
8
Layer 1
10
291.108629
20
154.800000
70
0
0
VERTEX
8
Layer 1
10
282.862609
20
140.517475
70
0
0
VERTEX
8
Layer 1
10
282.862609
20
140.517475
70
0
0
SEQEND
8
Layer 1
0
POLYLINE
8
Layer 1
62
7
70
1
10
0.000000
20
0.000000
66
1
0
VERTEX
8
Layer 1
10
296.651191
20
151.600000
70
0
0
VERTEX
8
Layer 1
10
304.897211
20
137.317475
70
0
0
VERTEX
8
Layer 1
10
288.405172
20
137.317475
70
0
0
VERTEX
8
Layer 1
10
296.651191
20
151.600000
70
0
0
VERTEX
8
Layer 1
10
296.651191
20
151.600000
70
0
0
SEQEND
8
Layer 1
0
POLYLINE
8
Layer 1
62
7
70
1
10
0.000000
20
0.000000
66
1
0
VERTEX
8
Layer 1
10
310.439774
20
140.517475
70
0
0
VERTEX
8
Layer 1
10
302.193754
20
154.800000
70
0
0
VERTEX
8
Layer 1
10
318.685793
20
154.800000
70
0
0
VERTEX
8
Layer 1
10
310.439774
20
140.517475
70
0
0
VERTEX
8
Layer 1
10
310.439774
20
140.517475
70
0
0
SEQEND
8
Layer 1
0
POLYLINE
8
Layer 1
62
7
70
1
10
0.000000
20
0.000000
66
1
0
VERTEX
8
Layer 1
10
334.816938
20
130.917475
70
0
0
VERTEX
8
Layer 1
10
334.816938
20
109.740311
70
0
0
VERTEX
8
Layer 1
10
313.639774
20
109.740311
70
0
0
VERTEX
8
Layer 1
10
313.639774
20
130.917475
70
0
0
VERTEX
8
Layer 1
10
334.816938
20
130.917475
70
0
0
VERTEX
8
Layer 1
10
334.816938
20
130.917475
70
0
0
SEQEND
8
Layer 1
0
POLYLINE
8
Layer 1
62
7
70
1
10
0.000000
20
0.000000
66
1
0
VERTEX
8
Layer 1
10
362.394103
20
130.917475
70
0
0
VERTEX
8
Layer 1
10
362.394103
20
109.740311
70
0
0
VERTEX
8
Layer 1
10
341.216938
20
109.740311
70
0
0
VERTEX
8
Layer 1
10
341.216938
20
130.917475
70
0
0
VERTEX
8
Layer 1
10
362.394103
20
130.917475
70
0
0
VERTEX
8
Layer 1
10
362.394103
20
130.917475
70
0
0
SEQEND
8
Layer 1
0
POLYLINE
8
Layer 1
62
7
70
1
10
0.000000
20
0.000000
66
1
0
VERTEX
8
Layer 1
10
324.228356
20
151.600000
70
0
0
VERTEX
8
Layer 1
10
332.474375
20
137.317475
70
0
0
VERTEX
8
Layer 1
10
315.982336
20
137.317475
70
0
0
VERTEX
8
Layer 1
10
324.228356
20
151.600000
70
0
0
VERTEX
8
Layer 1
10
324.228356
20
151.600000
70
0
0
SEQEND
8
Layer 1
0
POLYLINE
8
Layer 1
62
7
70
1
10
0.000000
20
0.000000
66
1
0
VERTEX
8
Layer 1
10
338.016938
20
140.517475
70
0
0
VERTEX
8
Layer 1
10
329.770918
20
154.800000
70
0
0
VERTEX
8
Layer 1
10
346.262958
20
154.800000
70
0
0
VERTEX
8
Layer 1
10
338.016938
20
140.517475
70
0
0
VERTEX
8
Layer 1
10
338.016938
20
140.517475
70
0
0
SEQEND
8
Layer 1
0
POLYLINE
8
Layer 1
62
7
70
1
10
0.000000
20
0.000000
66
1
0
VERTEX
8
Layer 1
10
351.805520
20
151.600000
70
0
0
VERTEX
8
Layer 1
10
360.051540
20
137.317475
70
0
0
VERTEX
8
Layer 1
10
343.559501
20
137.317475
70
0
0
VERTEX
8
Layer 1
10
351.805520
20
151.600000
70
0
0
VERTEX
8
Layer 1
10
351.805520
20
151.600000
70
0
0
SEQEND
8
Layer 1
0
POLYLINE
8
Layer 1
62
7
70
1
10
0.000000
20
0.000000
66
1
0
VERTEX
8
Layer 1
10
365.594103
20
140.517475
70
0
0
VERTEX
8
Layer 1
10
357.348083
20
154.800000
70
0
0
VERTEX
8
Layer 1
10
373.840122
20
154.800000
70
0
0
VERTEX
8
Layer 1
10
365.594103
20
140.517475
70
0
0
VERTEX
8
Layer 1
10
365.594103
20
140.517475
70
0
0
SEQEND
8
Layer 1
0
POLYLINE
8
Layer 1
62
7
70
1
10
0.000000
20
0.000000
66
1
0
VERTEX
8
Layer 1
10
389.971267
20
130.917475
70
0
0
VERTEX
8
Layer 1
10
389.971267
20
109.740311
70
0
0
VERTEX
8
Layer 1
10
368.794103
20
109.740311
70
0
0
VERTEX
8
Layer 1
10
368.794103
20
130.917475
70
0
0
VERTEX
8
Layer 1
10
389.971267
20
130.917475
70
0
0
VERTEX
8
Layer 1
10
389.971267
20
130.917475
70
0
0
SEQEND
8
Layer 1
0
POLYLINE
8
Layer 1
62
7
70
1
10
0.000000
20
0.000000
66
1
0
VERTEX
8
Layer 1
10
417.548431
20
130.917475
70
0
0
VERTEX
8
Layer 1
10
417.548431
20
109.740311
70
0
0
VERTEX
8
Layer 1
10
396.371267
20
109.740311
70
0
0
VERTEX
8
Layer 1
10
396.371267
20
130.917475
70
0
0
VERTEX
8
Layer 1
10
417.548431
20
130.917475
70
0
0
VERTEX
8
Layer 1
10
417.548431
20
130.917475
70
0
0
SEQEND
8
Layer 1
0
POLYLINE
8
Layer 1
62
7
70
1
10
0.000000
20
0.000000
66
1
0
VERTEX
8
Layer 1
10
379.382685
20
151.600000
70
0
0
VERTEX
8
Layer 1
10
387.628704
20
137.317475
70
0
0
VERTEX
8
Layer 1
10
371.136665
20
137.317475
70
0
0
VERTEX
8
Layer 1
10
379.382685
20
151.600000
70
0
0
VERTEX
8
Layer 1
10
379.382685
20
151.600000
70
0
0
SEQEND
8
Layer 1
0
POLYLINE
8
Layer 1
62
7
70
1
10
0.000000
20
0.000000
66
1
0
VERTEX
8
Layer 1
10
393.171267
20
140.517475
70
0
0
VERTEX
8
Layer 1
10
384.925247
20
154.800000
70
0
0
VERTEX
8
Layer 1
10
401.417287
20
154.800000
70
0
0
VERTEX
8
Layer 1
10
393.171267
20
140.517475
70
0
0
VERTEX
8
Layer 1
10
393.171267
20
140.517475
70
0
0
SEQEND
8
Layer 1
0
POLYLINE
8
Layer 1
62
7
70
1
10
0.000000
20
0.000000
66
1
0
VERTEX
8
Layer 1
10
406.959849
20
151.600000
70
0
0
VERTEX
8
Layer 1
10
415.205869
20
137.317475
70
0
0
VERTEX
8
Layer 1
10
398.713830
20
137.317475
70
0
0
VERTEX
8
Layer 1
10
406.959849
20
151.600000
70
0
0
VERTEX
8
Layer 1
10
406.959849
20
151.600000
70
0
0
SEQEND
8
Layer 1
0
POLYLINE
8
Layer 1
62
7
70
1
10
0.000000
20
0.000000
66
1
0
VERTEX
8
Layer 1
10
420.748431
20
140.517475
70
0
0
VERTEX
8
Layer 1
10
412.502412
20
154.800000
70
0
0
VERTEX
8
Layer 1
10
428.994451
20
154.800000
70
0
0
VERTEX
8
Layer 1
10
420.748431
20
140.517475
70
0
0
VERTEX
8
Layer 1
10
420.748431
20
140.517475
70
0
0
SEQEND
8
Layer 1
0
POLYLINE
8
Layer 1
62
7
70
1
10
0.000000
20
0.000000
66
1
0
VERTEX
8
Layer 1
10
445.125596
20
130.917475
70
0
0
VERTEX
8
Layer 1
10
445.125596
20
109.740311
70
0
0
VERTEX
8
Layer 1
10
423.948431
20
109.740311
70
0
0
VERTEX
8
Layer 1
10
423.948431
20
130.917475
70
0
0
VERTEX
8
Layer 1
10
445.125596
20
130.917475
70
0
0
VERTEX
8
Layer 1
10
445.125596
20
130.917475
70
0
0
SEQEND
8
Layer 1
0
POLYLINE
8
Layer 1
62
7
70
1
10
0.000000
20
0.000000
66
1
0
VERTEX
8
Layer 1
10
472.702760
20
130.917475
70
0
0
VERTEX
8
Layer 1
10
472.702760
20
109.740311
70
0
0
VERTEX
8
Layer 1
10
451.525596
20
109.740311
70
0
0
VERTEX
8
Layer 1
10
451.525596
20
130.917475
70
0
0
VERTEX
8
Layer 1
10
472.702760
20
130.917475
70
0
0
VERTEX
8
Layer 1
10
472.702760
20
130.917475
70
0
0
SEQEND
8
Layer 1
0
POLYLINE
8
Layer 1
62
7
70
1
10
0.000000
20
0.000000
66
1
0
VERTEX
8
Layer 1
10
434.537014
20
151.600000
70
0
0
VERTEX
8
Layer 1
10
442.783033
20
137.317475
70
0
0
VERTEX
8
Layer 1
10
426.290994
20
137.317475
70
0
0
VERTEX
8
Layer 1
10
434.537014
20
151.600000
70
0
0
VERTEX
8
Layer 1
10
434.537014
20
151.600000
70
0
0
SEQEND
8
Layer 1
0
POLYLINE
8
Layer 1
62
7
70
1
10
0.000000
20
0.000000
66
1
0
VERTEX
8
Layer 1
10
448.325596
20
140.517475
70
0
0
VERTEX
8
Layer 1
10
440.079576
20
154.800000
70
0
0
VERTEX
8
Layer 1
10
456.571616
20
154.800000
70
0
0
VERTEX
8
Layer 1
10
448.325596
20
140.517475
70
0
0
VERTEX
8
Layer 1
10
448.325596
20
140.517475
70
0
0
SEQEND
8
Layer 1
0
POLYLINE
8
Layer 1
62
7
70
1
10
0.000000
20
0.000000
66
1
0
VERTEX
8
Layer 1
10
462.114178
20
151.600000
70
0
0
VERTEX
8
Layer 1
10
470.360198
20
137.317475
70
0
0
VERTEX
8
Layer 1
10
453.868159
20
137.317475
70
0
0
VERTEX
8
Layer 1
10
462.114178
20
151.600000
70
0
0
VERTEX
8
Layer 1
10
462.114178
20
151.600000
70
0
0
SEQEND
8
Layer 1
0
POLYLINE
8
Layer 1
62
7
70
1
10
0.000000
20
0.000000
66
1
0
VERTEX
8
Layer 1
10
475.902760
20
140.517475
70
0
0
VERTEX
8
Layer 1
10
467.656741
20
154.800000
70
0
0
VERTEX
8
Layer 1
10
484.148780
20
154.800000
70
0
0
VERTEX
8
Layer 1
10
475.902760
20
140.517475
70
0
0
VERTEX
8
Layer 1
10
475.902760
20
140.517475
70
0
0
SEQEND
8
Layer 1
0
POLYLINE
8
Layer 1
62
7
70
1
10
0.000000
20
0.000000
66
1
0
VERTEX
8
Layer 1
10
500.279925
20
130.917475
70
0
0
VERTEX
8
Layer 1
10
500.279925
20
109.740311
70
0
0
VERTEX
8
Layer 1
10
479.102760
20
109.740311
70
0
0
VERTEX
8
Layer 1
10
479.102760
20
130.917475
70
0
0
VERTEX
8
Layer 1
10
500.279925
20
130.917475
70
0
0
VERTEX
8
Layer 1
10
500.279925
20
130.917475
70
0
0
SEQEND
8
Layer 1
0
POLYLINE
8
Layer 1
62
7
70
1
10
0.000000
20
0.000000
66
1
0
VERTEX
8
Layer 1
10
527.857089
20
130.917475
70
0
0
VERTEX
8
Layer 1
10
527.857089
20
109.740311
70
0
0
VERTEX
8
Layer 1
10
506.679925
20
109.740311
70
0
0
VERTEX
8
Layer 1
10
506.679925
20
130.917475
70
0
0
VERTEX
8
Layer 1
10
527.857089
20
130.917475
70
0
0
VERTEX
8
Layer 1
10
527.857089
20
130.917475
70
0
0
SEQEND
8
Layer 1
0
POLYLINE
8
Layer 1
62
7
70
1
10
0.000000
20
0.000000
66
1
0
VERTEX
8
Layer 1
10
489.691343
20
151.600000
70
0
0
VERTEX
8
Layer 1
10
497.937362
20
137.317475
70
0
0
VERTEX
8
Layer 1
10
481.445323
20
137.317475
70
0
0
VERTEX
8
Layer 1
10
489.691343
20
151.600000
70
0
0
VERTEX
8
Layer 1
10
489.691343
20
151.600000
70
0
0
SEQEND
8
Layer 1
0
POLYLINE
8
Layer 1
62
7
70
1
10
0.000000
20
0.000000
66
1
0
VERTEX
8
Layer 1
10
503.479925
20
140.517475
70
0
0
VERTEX
8
Layer 1
10
495.233905
20
154.800000
70
0
0
VERTEX
8
Layer 1
10
511.725945
20
154.800000
70
0
0
VERTEX
8
Layer 1
10
503.479925
20
140.517475
70
0
0
VERTEX
8
Layer 1
10
503.479925
20
140.517475
70
0
0
SEQEND
8
Layer 1
0
POLYLINE
8
Layer 1
62
7
70
1
10
0.000000
20
0.000000
66
1
0
VERTEX
8
Layer 1
10
517.268507
20
151.600000
70
0
0
VERTEX
8
Layer 1
10
525.514527
20
137.317475
70
0
0
VERTEX
8
Layer 1
10
509.022487
20
137.317475
70
0
0
VERTEX
8
Layer 1
10
517.268507
20
151.600000
70
0
0
VERTEX
8
Layer 1
10
517.268507
20
151.600000
70
0
0
SEQEND
8
Layer 1
0
POLYLINE
8
Layer 1
62
7
70
1
10
0.000000
20
0.000000
66
1
0
VERTEX
8
Layer 1
10
531.057089
20
140.517475
70
0
0
VERTEX
8
Layer 1
10
522.811070
20
154.800000
70
0
0
VERTEX
8
Layer 1
10
539.303109
20
154.800000
70
0
0
VERTEX
8
Layer 1
10
531.057089
20
140.517475
70
0
0
VERTEX
8
Layer 1
10
531.057089
20
140.517475
70
0
0
SEQEND
8
Layer 1
0
POLYLINE
8
Layer 1
62
7
70
1
10
0.000000
20
0.000000
66
1
0
VERTEX
8
Layer 1
10
555.434254
20
130.917475
70
0
0
VERTEX
8
Layer 1
10
555.434254
20
109.740311
70
0
0
VERTEX
8
Layer 1
10
534.257089
20
109.740311
70
0
0
VERTEX
8
Layer 1
10
534.257089
20
130.917475
70
0
0
VERTEX
8
Layer 1
10
555.434254
20
130.917475
70
0
0
VERTEX
8
Layer 1
10
555.434254
20
130.917475
70
0
0
SEQEND
8
Layer 1
0
POLYLINE
8
Layer 1
62
7
70
1
10
0.000000
20
0.000000
66
1
0
VERTEX
8
Layer 1
10
583.011418
20
130.917475
70
0
0
VERTEX
8
Layer 1
10
583.011418
20
109.740311
70
0
0
VERTEX
8
Layer 1
10
561.834254
20
109.740311
70
0
0
VERTEX
8
Layer 1
10
561.834254
20
130.917475
70
0
0
VERTEX
8
Layer 1
10
583.011418
20
130.917475
70
0
0
VERTEX
8
Layer 1
10
583.011418
20
130.917475
70
0
0
SEQEND
8
Layer 1
0
POLYLINE
8
Layer 1
62
7
70
1
10
0.000000
20
0.000000
66
1
0
VERTEX
8
Layer 1
10
544.845672
20
151.600000
70
0
0
VERTEX
8
Layer 1
10
553.091691
20
137.317475
70
0
0
VERTEX
8
Layer 1
10
536.599652
20
137.317475
70
0
0
VERTEX
8
Layer 1
10
544.845672
20
151.600000
70
0
0
VERTEX
8
Layer 1
10
544.845672
20
151.600000
70
0
0
SEQEND
8
Layer 1
0
POLYLINE
8
Layer 1
62
7
70
1
10
0.000000
20
0.000000
66
1
0
VERTEX
8
Layer 1
10
558.634254
20
140.517475
70
0
0
VERTEX
8
Layer 1
10
550.388234
20
154.800000
70
0
0
VERTEX
8
Layer 1
10
566.880273
20
154.800000
70
0
0
VERTEX
8
Layer 1
10
558.634254
20
140.517475
70
0
0
VERTEX
8
Layer 1
10
558.634254
20
140.517475
70
0
0
SEQEND
8
Layer 1
0
POLYLINE
8
Layer 1
62
7
70
1
10
0.000000
20
0.000000
66
1
0
VERTEX
8
Layer 1
10
572.422836
20
151.600000
70
0
0
VERTEX
8
Layer 1
10
580.668856
20
137.317475
70
0
0
VERTEX
8
Layer 1
10
564.176816
20
137.317475
70
0
0
VERTEX
8
Layer 1
10
572.422836
20
151.600000
70
0
0
VERTEX
8
Layer 1
10
572.422836
20
151.600000
70
0
0
SEQEND
8
Layer 1
0
POLYLINE
8
Layer 1
62
7
70
1
10
0.000000
20
0.000000
66
1
0
VERTEX
8
Layer 1
10
586.211418
20
140.517475
70
0
0
VERTEX
8
Layer 1
10
577.965399
20
154.800000
70
0
0
VERTEX
8
Layer 1
10
594.457438
20
154.800000
70
0
0
VERTEX
8
Layer 1
10
586.211418
20
140.517475
70
0
0
VERTEX
8
Layer 1
10
586.211418
20
140.517475
70
0
0
SEQEND
8
Layer 1
0
POLYLINE
8
Layer 1
62
7
70
1
10
0.000000
20
0.000000
66
1
0
VERTEX
8
Layer 1
10
610.588583
20
130.917475
70
0
0
VERTEX
8
Layer 1
10
610.588583
20
109.740311
70
0
0
VERTEX
8
Layer 1
10
589.411418
20
109.740311
70
0
0
VERTEX
8
Layer 1
10
589.411418
20
130.917475
70
0
0
VERTEX
8
Layer 1
10
610.588583
20
130.917475
70
0
0
VERTEX
8
Layer 1
10
610.588583
20
130.917475
70
0
0
SEQEND
8
Layer 1
0
POLYLINE
8
Layer 1
62
7
70
1
10
0.000000
20
0.000000
66
1
0
VERTEX
8
Layer 1
10
638.165747
20
130.917475
70
0
0
VERTEX
8
Layer 1
10
638.165747
20
109.740311
70
0
0
VERTEX
8
Layer 1
10
616.988583
20
109.740311
70
0
0
VERTEX
8
Layer 1
10
616.988583
20
130.917475
70
0
0
VERTEX
8
Layer 1
10
638.165747
20
130.917475
70
0
0
VERTEX
8
Layer 1
10
638.165747
20
130.917475
70
0
0
SEQEND
8
Layer 1
0
POLYLINE
8
Layer 1
62
7
70
1
10
0.000000
20
0.000000
66
1
0
VERTEX
8
Layer 1
10
600.000000
20
151.600000
70
0
0
VERTEX
8
Layer 1
10
608.246020
20
137.317475
70
0
0
VERTEX
8
Layer 1
10
591.753981
20
137.317475
70
0
0
VERTEX
8
Layer 1
10
600.000000
20
151.600000
70
0
0
VERTEX
8
Layer 1
10
600.000000
20
151.600000
70
0
0
SEQEND
8
Layer 1
0
POLYLINE
8
Layer 1
62
7
70
1
10
0.000000
20
0.000000
66
1
0
VERTEX
8
Layer 1
10
613.788583
20
140.517475
70
0
0
VERTEX
8
Layer 1
10
605.542563
20
154.800000
70
0
0
VERTEX
8
Layer 1
10
622.034602
20
154.800000
70
0
0
VERTEX
8
Layer 1
10
613.788583
20
140.517475
70
0
0
VERTEX
8
Layer 1
10
613.788583
20
140.517475
70
0
0
SEQEND
8
Layer 1
0
POLYLINE
8
Layer 1
62
7
70
1
10
0.000000
20
0.000000
66
1
0
VERTEX
8
Layer 1
10
627.577165
20
151.600000
70
0
0
VERTEX
8
Layer 1
10
635.823185
20
137.317475
70
0
0
VERTEX
8
Layer 1
10
619.331145
20
137.317475
70
0
0
VERTEX
8
Layer 1
10
627.577165
20
151.600000
70
0
0
VERTEX
8
Layer 1
10
627.577165
20
151.600000
70
0
0
SEQEND
8
Layer 1
0
POLYLINE
8
Layer 1
62
7
70
1
10
0.000000
20
0.000000
66
1
0
VERTEX
8
Layer 1
10
641.365747
20
140.517475
70
0
0
VERTEX
8
Layer 1
10
633.119728
20
154.800000
70
0
0
VERTEX
8
Layer 1
10
649.611767
20
154.800000
70
0
0
VERTEX
8
Layer 1
10
641.365747
20
140.517475
70
0
0
VERTEX
8
Layer 1
10
641.365747
20
140.517475
70
0
0
SEQEND
8
Layer 1
0
POLYLINE
8
Layer 1
62
7
70
1
10
0.000000
20
0.000000
66
1
0
VERTEX
8
Layer 1
10
665.742912
20
130.917475
70
0
0
VERTEX
8
Layer 1
10
665.742912
20
109.740311
70
0
0
VERTEX
8
Layer 1
10
644.565747
20
109.740311
70
0
0
VERTEX
8
Layer 1
10
644.565747
20
130.917475
70
0
0
VERTEX
8
Layer 1
10
665.742912
20
130.917475
70
0
0
VERTEX
8
Layer 1
10
665.742912
20
130.917475
70
0
0
SEQEND
8
Layer 1
0
POLYLINE
8
Layer 1
62
7
70
1
10
0.000000
20
0.000000
66
1
0
VERTEX
8
Layer 1
10
693.320076
20
130.917475
70
0
0
VERTEX
8
Layer 1
10
693.320076
20
109.740311
70
0
0
VERTEX
8
Layer 1
10
672.142912
20
109.740311
70
0
0
VERTEX
8
Layer 1
10
672.142912
20
130.917475
70
0
0
VERTEX
8
Layer 1
10
693.320076
20
130.917475
70
0
0
VERTEX
8
Layer 1
10
693.320076
20
130.917475
70
0
0
SEQEND
8
Layer 1
0
POLYLINE
8
Layer 1
62
7
70
1
10
0.000000
20
0.000000
66
1
0
VERTEX
8
Layer 1
10
655.154329
20
151.600000
70
0
0
VERTEX
8
Layer 1
10
663.400349
20
137.317475
70
0
0
VERTEX
8
Layer 1
10
646.908310
20
137.317475
70
0
0
VERTEX
8
Layer 1
10
655.154329
20
151.600000
70
0
0
VERTEX
8
Layer 1
10
655.154329
20
151.600000
70
0
0
SEQEND
8
Layer 1
0
POLYLINE
8
Layer 1
62
7
70
1
10
0.000000
20
0.000000
66
1
0
VERTEX
8
Layer 1
10
668.942912
20
140.517475
70
0
0
VERTEX
8
Layer 1
10
660.696892
20
154.800000
70
0
0
VERTEX
8
Layer 1
10
677.188931
20
154.800000
70
0
0
VERTEX
8
Layer 1
10
668.942912
20
140.517475
70
0
0
VERTEX
8
Layer 1
10
668.942912
20
140.517475
70
0
0
SEQEND
8
Layer 1
0
POLYLINE
8
Layer 1
62
7
70
1
10
0.000000
20
0.000000
66
1
0
VERTEX
8
Layer 1
10
682.731494
20
151.600000
70
0
0
VERTEX
8
Layer 1
10
690.977514
20
137.317475
70
0
0
VERTEX
8
Layer 1
10
674.485474
20
137.317475
70
0
0
VERTEX
8
Layer 1
10
682.731494
20
151.600000
70
0
0
VERTEX
8
Layer 1
10
682.731494
20
151.600000
70
0
0
SEQEND
8
Layer 1
0
POLYLINE
8
Layer 1
62
7
70
1
10
0.000000
20
0.000000
66
1
0
VERTEX
8
Layer 1
10
696.520076
20
140.517475
70
0
0
VERTEX
8
Layer 1
10
688.274056
20
154.800000
70
0
0
VERTEX
8
Layer 1
10
704.766096
20
154.800000
70
0
0
VERTEX
8
Layer 1
10
696.520076
20
140.517475
70
0
0
VERTEX
8
Layer 1
10
696.520076
20
140.517475
70
0
0
SEQEND
8
Layer 1
0
POLYLINE
8
Layer 1
62
7
70
1
10
0.000000
20
0.000000
66
1
0
VERTEX
8
Layer 1
10
720.897241
20
130.917475
70
0
0
VERTEX
8
Layer 1
10
720.897241
20
109.740311
70
0
0
VERTEX
8
Layer 1
10
699.720076
20
109.740311
70
0
0
VERTEX
8
Layer 1
10
699.720076
20
130.917475
70
0
0
VERTEX
8
Layer 1
10
720.897241
20
130.917475
70
0
0
VERTEX
8
Layer 1
10
720.897241
20
130.917475
70
0
0
SEQEND
8
Layer 1
0
POLYLINE
8
Layer 1
62
7
70
1
10
0.000000
20
0.000000
66
1
0
VERTEX
8
Layer 1
10
748.474405
20
130.917475
70
0
0
VERTEX
8
Layer 1
10
748.474405
20
109.740311
70
0
0
VERTEX
8
Layer 1
10
727.297241
20
109.740311
70
0
0
VERTEX
8
Layer 1
10
727.297241
20
130.917475
70
0
0
VERTEX
8
Layer 1
10
748.474405
20
130.917475
70
0
0
VERTEX
8
Layer 1
10
748.474405
20
130.917475
70
0
0
SEQEND
8
Layer 1
0
POLYLINE
8
Layer 1
62
7
70
1
10
0.000000
20
0.000000
66
1
0
VERTEX
8
Layer 1
10
710.308658
20
151.600000
70
0
0
VERTEX
8
Layer 1
10
718.554678
20
137.317475
70
0
0
VERTEX
8
Layer 1
10
702.062639
20
137.317475
70
0
0
VERTEX
8
Layer 1
10
710.308658
20
151.600000
70
0
0
VERTEX
8
Layer 1
10
710.308658
20
151.600000
70
0
0
SEQEND
8
Layer 1
0
POLYLINE
8
Layer 1
62
7
70
1
10
0.000000
20
0.000000
66
1
0
VERTEX
8
Layer 1
10
724.097241
20
140.517475
70
0
0
VERTEX
8
Layer 1
10
715.851221
20
154.800000
70
0
0
VERTEX
8
Layer 1
10
732.343260
20
154.800000
70
0
0
VERTEX
8
Layer 1
10
724.097241
20
140.517475
70
0
0
VERTEX
8
Layer 1
10
724.097241
20
140.517475
70
0
0
SEQEND
8
Layer 1
0
POLYLINE
8
Layer 1
62
7
70
1
10
0.000000
20
0.000000
66
1
0
VERTEX
8
Layer 1
10
737.885823
20
151.600000
70
0
0
VERTEX
8
Layer 1
10
746.131842
20
137.317475
70
0
0
VERTEX
8
Layer 1
10
729.639803
20
137.317475
70
0
0
VERTEX
8
Layer 1
10
737.885823
20
151.600000
70
0
0
VERTEX
8
Layer 1
10
737.885823
20
151.600000
70
0
0
SEQEND
8
Layer 1
0
POLYLINE
8
Layer 1
62
7
70
1
10
0.000000
20
0.000000
66
1
0
VERTEX
8
Layer 1
10
751.674405
20
140.517475
70
0
0
VERTEX
8
Layer 1
10
743.428385
20
154.800000
70
0
0
VERTEX
8
Layer 1
10
759.920425
20
154.800000
70
0
0
VERTEX
8
Layer 1
10
751.674405
20
140.517475
70
0
0
VERTEX
8
Layer 1
10
751.674405
20
140.517475
70
0
0
SEQEND
8
Layer 1
0
POLYLINE
8
Layer 1
62
7
70
1
10
0.000000
20
0.000000
66
1
0
VERTEX
8
Layer 1
10
776.051570
20
130.917475
70
0
0
VERTEX
8
Layer 1
10
776.051570
20
109.740311
70
0
0
VERTEX
8
Layer 1
10
754.874405
20
109.740311
70
0
0
VERTEX
8
Layer 1
10
754.874405
20
130.917475
70
0
0
VERTEX
8
Layer 1
10
776.051570
20
130.917475
70
0
0
VERTEX
8
Layer 1
10
776.051570
20
130.917475
70
0
0
SEQEND
8
Layer 1
0
POLYLINE
8
Layer 1
62
7
70
1
10
0.000000
20
0.000000
66
1
0
VERTEX
8
Layer 1
10
803.628734
20
130.917475
70
0
0
VERTEX
8
Layer 1
10
803.628734
20
109.740311
70
0
0
VERTEX
8
Layer 1
10
782.451570
20
109.740311
70
0
0
VERTEX
8
Layer 1
10
782.451570
20
130.917475
70
0
0
VERTEX
8
Layer 1
10
803.628734
20
130.917475
70
0
0
VERTEX
8
Layer 1
10
803.628734
20
130.917475
70
0
0
SEQEND
8
Layer 1
0
POLYLINE
8
Layer 1
62
7
70
1
10
0.000000
20
0.000000
66
1
0
VERTEX
8
Layer 1
10
765.462987
20
151.600000
70
0
0
VERTEX
8
Layer 1
10
773.709007
20
137.317475
70
0
0
VERTEX
8
Layer 1
10
757.216968
20
137.317475
70
0
0
VERTEX
8
Layer 1
10
765.462987
20
151.600000
70
0
0
VERTEX
8
Layer 1
10
765.462987
20
151.600000
70
0
0
SEQEND
8
Layer 1
0
POLYLINE
8
Layer 1
62
7
70
1
10
0.000000
20
0.000000
66
1
0
VERTEX
8
Layer 1
10
779.251570
20
140.517475
70
0
0
VERTEX
8
Layer 1
10
771.005550
20
154.800000
70
0
0
VERTEX
8
Layer 1
10
787.497589
20
154.800000
70
0
0
VERTEX
8
Layer 1
10
779.251570
20
140.517475
70
0
0
VERTEX
8
Layer 1
10
779.251570
20
140.517475
70
0
0
SEQEND
8
Layer 1
0
POLYLINE
8
Layer 1
62
7
70
1
10
0.000000
20
0.000000
66
1
0
VERTEX
8
Layer 1
10
793.040152
20
151.600000
70
0
0
VERTEX
8
Layer 1
10
801.286171
20
137.317475
70
0
0
VERTEX
8
Layer 1
10
784.794132
20
137.317475
70
0
0
VERTEX
8
Layer 1
10
793.040152
20
151.600000
70
0
0
VERTEX
8
Layer 1
10
793.040152
20
151.600000
70
0
0
SEQEND
8
Layer 1
0
POLYLINE
8
Layer 1
62
7
70
1
10
0.000000
20
0.000000
66
1
0
VERTEX
8
Layer 1
10
806.828734
20
140.517475
70
0
0
VERTEX
8
Layer 1
10
798.582714
20
154.800000
70
0
0
VERTEX
8
Layer 1
10
815.074754
20
154.800000
70
0
0
VERTEX
8
Layer 1
10
806.828734
20
140.517475
70
0
0
VERTEX
8
Layer 1
10
806.828734
20
140.517475
70
0
0
SEQEND
8
Layer 1
0
POLYLINE
8
Layer 1
62
7
70
1
10
0.000000
20
0.000000
66
1
0
VERTEX
8
Layer 1
10
831.205898
20
130.917475
70
0
0
VERTEX
8
Layer 1
10
831.205898
20
109.740311
70
0
0
VERTEX
8
Layer 1
10
810.028734
20
109.740311
70
0
0
VERTEX
8
Layer 1
10
810.028734
20
130.917475
70
0
0
VERTEX
8
Layer 1
10
831.205898
20
130.917475
70
0
0
VERTEX
8
Layer 1
10
831.205898
20
130.917475
70
0
0
SEQEND
8
Layer 1
0
POLYLINE
8
Layer 1
62
7
70
1
10
0.000000
20
0.000000
66
1
0
VERTEX
8
Layer 1
10
858.783063
20
130.917475
70
0
0
VERTEX
8
Layer 1
10
858.783063
20
109.740311
70
0
0
VERTEX
8
Layer 1
10
837.605898
20
109.740311
70
0
0
VERTEX
8
Layer 1
10
837.605898
20
130.917475
70
0
0
VERTEX
8
Layer 1
10
858.783063
20
130.917475
70
0
0
VERTEX
8
Layer 1
10
858.783063
20
130.917475
70
0
0
SEQEND
8
Layer 1
0
POLYLINE
8
Layer 1
62
7
70
1
10
0.000000
20
0.000000
66
1
0
VERTEX
8
Layer 1
10
820.617316
20
151.600000
70
0
0
VERTEX
8
Layer 1
10
828.863336
20
137.317475
70
0
0
VERTEX
8
Layer 1
10
812.371297
20
137.317475
70
0
0
VERTEX
8
Layer 1
10
820.617316
20
151.600000
70
0
0
VERTEX
8
Layer 1
10
820.617316
20
151.600000
70
0
0
SEQEND
8
Layer 1
0
POLYLINE
8
Layer 1
62
7
70
1
10
0.000000
20
0.000000
66
1
0
VERTEX
8
Layer 1
10
834.405898
20
140.517475
70
0
0
VERTEX
8
Layer 1
10
826.159879
20
154.800000
70
0
0
VERTEX
8
Layer 1
10
842.651918
20
154.800000
70
0
0
VERTEX
8
Layer 1
10
834.405898
20
140.517475
70
0
0
VERTEX
8
Layer 1
10
834.405898
20
140.517475
70
0
0
SEQEND
8
Layer 1
0
POLYLINE
8
Layer 1
62
7
70
1
10
0.000000
20
0.000000
66
1
0
VERTEX
8
Layer 1
10
848.194481
20
151.600000
70
0
0
VERTEX
8
Layer 1
10
856.440500
20
137.317475
70
0
0
VERTEX
8
Layer 1
10
839.948461
20
137.317475
70
0
0
VERTEX
8
Layer 1
10
848.194481
20
151.600000
70
0
0
VERTEX
8
Layer 1
10
848.194481
20
151.600000
70
0
0
SEQEND
8
Layer 1
0
POLYLINE
8
Layer 1
62
7
70
1
10
0.000000
20
0.000000
66
1
0
VERTEX
8
Layer 1
10
861.983063
20
140.517475
70
0
0
VERTEX
8
Layer 1
10
853.737043
20
154.800000
70
0
0
VERTEX
8
Layer 1
10
870.229083
20
154.800000
70
0
0
VERTEX
8
Layer 1
10
861.983063
20
140.517475
70
0
0
VERTEX
8
Layer 1
10
861.983063
20
140.517475
70
0
0
SEQEND
8
Layer 1
0
POLYLINE
8
Layer 1
62
7
70
1
10
0.000000
20
0.000000
66
1
0
VERTEX
8
Layer 1
10
886.360227
20
130.917475
70
0
0
VERTEX
8
Layer 1
10
886.360227
20
109.740311
70
0
0
VERTEX
8
Layer 1
10
865.183063
20
109.740311
70
0
0
VERTEX
8
Layer 1
10
865.183063
20
130.917475
70
0
0
VERTEX
8
Layer 1
10
886.360227
20
130.917475
70
0
0
VERTEX
8
Layer 1
10
886.360227
20
130.917475
70
0
0
SEQEND
8
Layer 1
0
POLYLINE
8
Layer 1
62
7
70
1
10
0.000000
20
0.000000
66
1
0
VERTEX
8
Layer 1
10
913.937392
20
130.917475
70
0
0
VERTEX
8
Layer 1
10
913.937392
20
109.740311
70
0
0
VERTEX
8
Layer 1
10
892.760227
20
109.740311
70
0
0
VERTEX
8
Layer 1
10
892.760227
20
130.917475
70
0
0
VERTEX
8
Layer 1
10
913.937392
20
130.917475
70
0
0
VERTEX
8
Layer 1
10
913.937392
20
130.917475
70
0
0
SEQEND
8
Layer 1
0
POLYLINE
8
Layer 1
62
7
70
1
10
0.000000
20
0.000000
66
1
0
VERTEX
8
Layer 1
10
875.771645
20
151.600000
70
0
0
VERTEX
8
Layer 1
10
884.017665
20
137.317475
70
0
0
VERTEX
8
Layer 1
10
867.525626
20
137.317475
70
0
0
VERTEX
8
Layer 1
10
875.771645
20
151.600000
70
0
0
VERTEX
8
Layer 1
10
875.771645
20
151.600000
70
0
0
SEQEND
8
Layer 1
0
POLYLINE
8
Layer 1
62
7
70
1
10
0.000000
20
0.000000
66
1
0
VERTEX
8
Layer 1
10
889.560227
20
140.517475
70
0
0
VERTEX
8
Layer 1
10
881.314208
20
154.800000
70
0
0
VERTEX
8
Layer 1
10
897.806247
20
154.800000
70
0
0
VERTEX
8
Layer 1
10
889.560227
20
140.517475
70
0
0
VERTEX
8
Layer 1
10
889.560227
20
140.517475
70
0
0
SEQEND
8
Layer 1
0
POLYLINE
8
Layer 1
62
7
70
1
10
0.000000
20
0.000000
66
1
0
VERTEX
8
Layer 1
10
903.348810
20
151.600000
70
0
0
VERTEX
8
Layer 1
10
911.594829
20
137.317475
70
0
0
VERTEX
8
Layer 1
10
895.102790
20
137.317475
70
0
0
VERTEX
8
Layer 1
10
903.348810
20
151.600000
70
0
0
VERTEX
8
Layer 1
10
903.348810
20
151.600000
70
0
0
SEQEND
8
Layer 1
0
POLYLINE
8
Layer 1
62
7
70
1
10
0.000000
20
0.000000
66
1
0
VERTEX
8
Layer 1
10
917.137392
20
140.517475
70
0
0
VERTEX
8
Layer 1
10
908.891372
20
154.800000
70
0
0
VERTEX
8
Layer 1
10
925.383412
20
154.800000
70
0
0
VERTEX
8
Layer 1
10
917.137392
20
140.517475
70
0
0
VERTEX
8
Layer 1
10
917.137392
20
140.517475
70
0
0
SEQEND
8
Layer 1
0
POLYLINE
8
Layer 1
62
7
70
1
10
0.000000
20
0.000000
66
1
0
VERTEX
8
Layer 1
10
941.514556
20
130.917475
70
0
0
VERTEX
8
Layer 1
10
941.514556
20
109.740311
70
0
0
VERTEX
8
Layer 1
10
920.337392
20
109.740311
70
0
0
VERTEX
8
Layer 1
10
920.337392
20
130.917475
70
0
0
VERTEX
8
Layer 1
10
941.514556
20
130.917475
70
0
0
VERTEX
8
Layer 1
10
941.514556
20
130.917475
70
0
0
SEQEND
8
Layer 1
0
POLYLINE
8
Layer 1
62
7
70
1
10
0.000000
20
0.000000
66
1
0
VERTEX
8
Layer 1
10
969.091721
20
130.917475
70
0
0
VERTEX
8
Layer 1
10
969.091721
20
109.740311
70
0
0
VERTEX
8
Layer 1
10
947.914556
20
109.740311
70
0
0
VERTEX
8
Layer 1
10
947.914556
20
130.917475
70
0
0
VERTEX
8
Layer 1
10
969.091721
20
130.917475
70
0
0
VERTEX
8
Layer 1
10
969.091721
20
130.917475
70
0
0
SEQEND
8
Layer 1
0
POLYLINE
8
Layer 1
62
7
70
1
10
0.000000
20
0.000000
66
1
0
VERTEX
8
Layer 1
10
930.925974
20
151.600000
70
0
0
VERTEX
8
Layer 1
10
939.171994
20
137.317475
70
0
0
VERTEX
8
Layer 1
10
922.679954
20
137.317475
70
0
0
VERTEX
8
Layer 1
10
930.925974
20
151.600000
70
0
0
VERTEX
8
Layer 1
10
930.925974
20
151.600000
70
0
0
SEQEND
8
Layer 1
0
POLYLINE
8
Layer 1
62
7
70
1
10
0.000000
20
0.000000
66
1
0
VERTEX
8
Layer 1
10
944.714556
20
140.517475
70
0
0
VERTEX
8
Layer 1
10
936.468537
20
154.800000
70
0
0
VERTEX
8
Layer 1
10
952.960576
20
154.800000
70
0
0
VERTEX
8
Layer 1
10
944.714556
20
140.517475
70
0
0
VERTEX
8
Layer 1
10
944.714556
20
140.517475
70
0
0
SEQEND
8
Layer 1
0
POLYLINE
8
Layer 1
62
7
70
1
10
0.000000
20
0.000000
66
1
0
VERTEX
8
Layer 1
10
958.503139
20
151.600000
70
0
0
VERTEX
8
Layer 1
10
966.749158
20
137.317475
70
0
0
VERTEX
8
Layer 1
10
950.257119
20
137.317475
70
0
0
VERTEX
8
Layer 1
10
958.503139
20
151.600000
70
0
0
VERTEX
8
Layer 1
10
958.503139
20
151.600000
70
0
0
SEQEND
8
Layer 1
0
POLYLINE
8
Layer 1
62
7
70
1
10
0.000000
20
0.000000
66
1
0
VERTEX
8
Layer 1
10
972.291721
20
140.517475
70
0
0
VERTEX
8
Layer 1
10
964.045701
20
154.800000
70
0
0
VERTEX
8
Layer 1
10
980.537740
20
154.800000
70
0
0
VERTEX
8
Layer 1
10
972.291721
20
140.517475
70
0
0
VERTEX
8
Layer 1
10
972.291721
20
140.517475
70
0
0
SEQEND
8
Layer 1
0
POLYLINE
8
Layer 1
62
7
70
1
10
0.000000
20
0.000000
66
1
0
VERTEX
8
Layer 1
10
996.668885
20
130.917475
70
0
0
VERTEX
8
Layer 1
10
996.668885
20
109.740311
70
0
0
VERTEX
8
Layer 1
10
975.491721
20
109.740311
70
0
0
VERTEX
8
Layer 1
10
975.491721
20
130.917475
70
0
0
VERTEX
8
Layer 1
10
996.668885
20
130.917475
70
0
0
VERTEX
8
Layer 1
10
996.668885
20
130.917475
70
0
0
SEQEND
8
Layer 1
0
POLYLINE
8
Layer 1
62
7
70
1
10
0.000000
20
0.000000
66
1
0
VERTEX
8
Layer 1
10
1024.246050
20
130.917475
70
0
0
VERTEX
8
Layer 1
10
1024.246050
20
109.740311
70
0
0
VERTEX
8
Layer 1
10
1003.068885
20
109.740311
70
0
0
VERTEX
8
Layer 1
10
1003.068885
20
130.917475
70
0
0
VERTEX
8
Layer 1
10
1024.246050
20
130.917475
70
0
0
VERTEX
8
Layer 1
10
1024.246050
20
130.917475
70
0
0
SEQEND
8
Layer 1
0
POLYLINE
8
Layer 1
62
7
70
1
10
0.000000
20
0.000000
66
1
0
VERTEX
8
Layer 1
10
986.080303
20
151.600000
70
0
0
VERTEX
8
Layer 1
10
994.326323
20
137.317475
70
0
0
VERTEX
8
Layer 1
10
977.834283
20
137.317475
70
0
0
VERTEX
8
Layer 1
10
986.080303
20
151.600000
70
0
0
VERTEX
8
Layer 1
10
986.080303
20
151.600000
70
0
0
SEQEND
8
Layer 1
0
POLYLINE
8
Layer 1
62
7
70
1
10
0.000000
20
0.000000
66
1
0
VERTEX
8
Layer 1
10
999.868885
20
140.517475
70
0
0
VERTEX
8
Layer 1
10
991.622866
20
154.800000
70
0
0
VERTEX
8
Layer 1
10
1008.114905
20
154.800000
70
0
0
VERTEX
8
Layer 1
10
999.868885
20
140.517475
70
0
0
VERTEX
8
Layer 1
10
999.868885
20
140.517475
70
0
0
SEQEND
8
Layer 1
0
POLYLINE
8
Layer 1
62
7
70
1
10
0.000000
20
0.000000
66
1
0
VERTEX
8
Layer 1
10
1013.657467
20
151.600000
70
0
0
VERTEX
8
Layer 1
10
1021.903487
20
137.317475
70
0
0
VERTEX
8
Layer 1
10
1005.411448
20
137.317475
70
0
0
VERTEX
8
Layer 1
10
1013.657467
20
151.600000
70
0
0
VERTEX
8
Layer 1
10
1013.657467
20
151.600000
70
0
0
SEQEND
8
Layer 1
0
POLYLINE
8
Layer 1
62
7
70
1
10
0.000000
20
0.000000
66
1
0
VERTEX
8
Layer 1
10
210.719698
20
182.377164
70
0
0
VERTEX
8
Layer 1
10
210.719698
20
161.200000
70
0
0
VERTEX
8
Layer 1
10
189.542533
20
161.200000
70
0
0
VERTEX
8
Layer 1
10
189.542533
20
182.377164
70
0
0
VERTEX
8
Layer 1
10
210.719698
20
182.377164
70
0
0
VERTEX
8
Layer 1
10
210.719698
20
182.377164
70
0
0
SEQEND
8
Layer 1
0
POLYLINE
8
Layer 1
62
7
70
1
10
0.000000
20
0.000000
66
1
0
VERTEX
8
Layer 1
10
186.342533
20
191.977164
70
0
0
VERTEX
8
Layer 1
10
178.096514
20
206.259689
70
0
0
VERTEX
8
Layer 1
10
194.588553
20
206.259689
70
0
0
VERTEX
8
Layer 1
10
186.342533
20
191.977164
70
0
0
VERTEX
8
Layer 1
10
186.342533
20
191.977164
70
0
0
SEQEND
8
Layer 1
0
POLYLINE
8
Layer 1
62
7
70
1
10
0.000000
20
0.000000
66
1
0
VERTEX
8
Layer 1
10
200.131116
20
203.059689
70
0
0
VERTEX
8
Layer 1
10
208.377135
20
188.777164
70
0
0
VERTEX
8
Layer 1
10
191.885096
20
188.777164
70
0
0
VERTEX
8
Layer 1
10
200.131116
20
203.059689
70
0
0
VERTEX
8
Layer 1
10
200.131116
20
203.059689
70
0
0
SEQEND
8
Layer 1
0
POLYLINE
8
Layer 1
62
7
70
1
10
0.000000
20
0.000000
66
1
0
VERTEX
8
Layer 1
10
213.919698
20
191.977164
70
0
0
VERTEX
8
Layer 1
10
205.673678
20
206.259689
70
0
0
VERTEX
8
Layer 1
10
222.165718
20
206.259689
70
0
0
VERTEX
8
Layer 1
10
213.919698
20
191.977164
70
0
0
VERTEX
8
Layer 1
10
213.919698
20
191.977164
70
0
0
SEQEND
8
Layer 1
0
POLYLINE
8
Layer 1
62
7
70
1
10
0.000000
20
0.000000
66
1
0
VERTEX
8
Layer 1
10
238.296862
20
182.377164
70
0
0
VERTEX
8
Layer 1
10
238.296862
20
161.200000
70
0
0
VERTEX
8
Layer 1
10
217.119698
20
161.200000
70
0
0
VERTEX
8
Layer 1
10
217.119698
20
182.377164
70
0
0
VERTEX
8
Layer 1
10
238.296862
20
182.377164
70
0
0
VERTEX
8
Layer 1
10
238.296862
20
182.377164
70
0
0
SEQEND
8
Layer 1
0
POLYLINE
8
Layer 1
62
7
70
1
10
0.000000
20
0.000000
66
1
0
VERTEX
8
Layer 1
10
265.874027
20
182.377164
70
0
0
VERTEX
8
Layer 1
10
265.874027
20
161.200000
70
0
0
VERTEX
8
Layer 1
10
244.696862
20
161.200000
70
0
0
VERTEX
8
Layer 1
10
244.696862
20
182.377164
70
0
0
VERTEX
8
Layer 1
10
265.874027
20
182.377164
70
0
0
VERTEX
8
Layer 1
10
265.874027
20
182.377164
70
0
0
SEQEND
8
Layer 1
0
POLYLINE
8
Layer 1
62
7
70
1
10
0.000000
20
0.000000
66
1
0
VERTEX
8
Layer 1
10
227.708280
20
203.059689
70
0
0
VERTEX
8
Layer 1
10
235.954300
20
188.777164
70
0
0
VERTEX
8
Layer 1
10
219.462261
20
188.777164
70
0
0
VERTEX
8
Layer 1
10
227.708280
20
203.059689
70
0
0
VERTEX
8
Layer 1
10
227.708280
20
203.059689
70
0
0
SEQEND
8
Layer 1
0
POLYLINE
8
Layer 1
62
7
70
1
10
0.000000
20
0.000000
66
1
0
VERTEX
8
Layer 1
10
241.496862
20
191.977164
70
0
0
VERTEX
8
Layer 1
10
233.250843
20
206.259689
70
0
0
VERTEX
8
Layer 1
10
249.742882
20
206.259689
70
0
0
VERTEX
8
Layer 1
10
241.496862
20
191.977164
70
0
0
VERTEX
8
Layer 1
10
241.496862
20
191.977164
70
0
0
SEQEND
8
Layer 1
0
POLYLINE
8
Layer 1
62
7
70
1
10
0.000000
20
0.000000
66
1
0
VERTEX
8
Layer 1
10
255.285445
20
203.059689
70
0
0
VERTEX
8
Layer 1
10
263.531464
20
188.777164
70
0
0
VERTEX
8
Layer 1
10
247.039425
20
188.777164
70
0
0
VERTEX
8
Layer 1
10
255.285445
20
203.059689
70
0
0
VERTEX
8
Layer 1
10
255.285445
20
203.059689
70
0
0
SEQEND
8
Layer 1
0
POLYLINE
8
Layer 1
62
7
70
1
10
0.000000
20
0.000000
66
1
0
VERTEX
8
Layer 1
10
269.074027
20
191.977164
70
0
0
VERTEX
8
Layer 1
10
260.828007
20
206.259689
70
0
0
VERTEX
8
Layer 1
10
277.320047
20
206.259689
70
0
0
VERTEX
8
Layer 1
10
269.074027
20
191.977164
70
0
0
VERTEX
8
Layer 1
10
269.074027
20
191.977164
70
0
0
SEQEND
8
Layer 1
0
POLYLINE
8
Layer 1
62
7
70
1
10
0.000000
20
0.000000
66
1
0
VERTEX
8
Layer 1
10
293.451191
20
182.377164
70
0
0
VERTEX
8
Layer 1
10
293.451191
20
161.200000
70
0
0
VERTEX
8
Layer 1
10
272.274027
20
161.200000
70
0
0
VERTEX
8
Layer 1
10
272.274027
20
182.377164
70
0
0
VERTEX
8
Layer 1
10
293.451191
20
182.377164
70
0
0
VERTEX
8
Layer 1
10
293.451191
20
182.377164
70
0
0
SEQEND
8
Layer 1
0
POLYLINE
8
Layer 1
62
7
70
1
10
0.000000
20
0.000000
66
1
0
VERTEX
8
Layer 1
10
321.028356
20
182.377164
70
0
0
VERTEX
8
Layer 1
10
321.028356
20
161.200000
70
0
0
VERTEX
8
Layer 1
10
299.851191
20
161.200000
70
0
0
VERTEX
8
Layer 1
10
299.851191
20
182.377164
70
0
0
VERTEX
8
Layer 1
10
321.028356
20
182.377164
70
0
0
VERTEX
8
Layer 1
10
321.028356
20
182.377164
70
0
0
SEQEND
8
Layer 1
0
POLYLINE
8
Layer 1
62
7
70
1
10
0.000000
20
0.000000
66
1
0
VERTEX
8
Layer 1
10
282.862609
20
203.059689
70
0
0
VERTEX
8
Layer 1
10
291.108629
20
188.777164
70
0
0
VERTEX
8
Layer 1
10
274.616589
20
188.777164
70
0
0
VERTEX
8
Layer 1
10
282.862609
20
203.059689
70
0
0
VERTEX
8
Layer 1
10
282.862609
20
203.059689
70
0
0
SEQEND
8
Layer 1
0
POLYLINE
8
Layer 1
62
7
70
1
10
0.000000
20
0.000000
66
1
0
VERTEX
8
Layer 1
10
296.651191
20
191.977164
70
0
0
VERTEX
8
Layer 1
10
288.405172
20
206.259689
70
0
0
VERTEX
8
Layer 1
10
304.897211
20
206.259689
70
0
0
VERTEX
8
Layer 1
10
296.651191
20
191.977164
70
0
0
VERTEX
8
Layer 1
10
296.651191
20
191.977164
70
0
0
SEQEND
8
Layer 1
0
POLYLINE
8
Layer 1
62
7
70
1
10
0.000000
20
0.000000
66
1
0
VERTEX
8
Layer 1
10
310.439774
20
203.059689
70
0
0
VERTEX
8
Layer 1
10
318.685793
20
188.777164
70
0
0
VERTEX
8
Layer 1
10
302.193754
20
188.777164
70
0
0
VERTEX
8
Layer 1
10
310.439774
20
203.059689
70
0
0
VERTEX
8
Layer 1
10
310.439774
20
203.059689
70
0
0
SEQEND
8
Layer 1
0
POLYLINE
8
Layer 1
62
7
70
1
10
0.000000
20
0.000000
66
1
0
VERTEX
8
Layer 1
10
324.228356
20
191.977164
70
0
0
VERTEX
8
Layer 1
10
315.982336
20
206.259689
70
0
0
VERTEX
8
Layer 1
10
332.474375
20
206.259689
70
0
0
VERTEX
8
Layer 1
10
324.228356
20
191.977164
70
0
0
VERTEX
8
Layer 1
10
324.228356
20
191.977164
70
0
0
SEQEND
8
Layer 1
0
POLYLINE
8
Layer 1
62
7
70
1
10
0.000000
20
0.000000
66
1
0
VERTEX
8
Layer 1
10
348.605520
20
182.377164
70
0
0
VERTEX
8
Layer 1
10
348.605520
20
161.200000
70
0
0
VERTEX
8
Layer 1
10
327.428356
20
161.200000
70
0
0
VERTEX
8
Layer 1
10
327.428356
20
182.377164
70
0
0
VERTEX
8
Layer 1
10
348.605520
20
182.377164
70
0
0
VERTEX
8
Layer 1
10
348.605520
20
182.377164
70
0
0
SEQEND
8
Layer 1
0
POLYLINE
8
Layer 1
62
7
70
1
10
0.000000
20
0.000000
66
1
0
VERTEX
8
Layer 1
10
376.182685
20
182.377164
70
0
0
VERTEX
8
Layer 1
10
376.182685
20
161.200000
70
0
0
VERTEX
8
Layer 1
10
355.005520
20
161.200000
70
0
0
VERTEX
8
Layer 1
10
355.005520
20
182.377164
70
0
0
VERTEX
8
Layer 1
10
376.182685
20
182.377164
70
0
0
VERTEX
8
Layer 1
10
376.182685
20
182.377164
70
0
0
SEQEND
8
Layer 1
0
POLYLINE
8
Layer 1
62
7
70
1
10
0.000000
20
0.000000
66
1
0
VERTEX
8
Layer 1
10
338.016938
20
203.059689
70
0
0
VERTEX
8
Layer 1
10
346.262958
20
188.777164
70
0
0
VERTEX
8
Layer 1
10
329.770918
20
188.777164
70
0
0
VERTEX
8
Layer 1
10
338.016938
20
203.059689
70
0
0
VERTEX
8
Layer 1
10
338.016938
20
203.059689
70
0
0
SEQEND
8
Layer 1
0
POLYLINE
8
Layer 1
62
7
70
1
10
0.000000
20
0.000000
66
1
0
VERTEX
8
Layer 1
10
351.805520
20
191.977164
70
0
0
VERTEX
8
Layer 1
10
343.559501
20
206.259689
70
0
0
VERTEX
8
Layer 1
10
360.051540
20
206.259689
70
0
0
VERTEX
8
Layer 1
10
351.805520
20
191.977164
70
0
0
VERTEX
8
Layer 1
10
351.805520
20
191.977164
70
0
0
SEQEND
8
Layer 1
0
POLYLINE
8
Layer 1
62
7
70
1
10
0.000000
20
0.000000
66
1
0
VERTEX
8
Layer 1
10
365.594103
20
203.059689
70
0
0
VERTEX
8
Layer 1
10
373.840122
20
188.777164
70
0
0
VERTEX
8
Layer 1
10
357.348083
20
188.777164
70
0
0
VERTEX
8
Layer 1
10
365.594103
20
203.059689
70
0
0
VERTEX
8
Layer 1
10
365.594103
20
203.059689
70
0
0
SEQEND
8
Layer 1
0
POLYLINE
8
Layer 1
62
7
70
1
10
0.000000
20
0.000000
66
1
0
VERTEX
8
Layer 1
10
379.382685
20
191.977164
70
0
0
VERTEX
8
Layer 1
10
371.136665
20
206.259689
70
0
0
VERTEX
8
Layer 1
10
387.628704
20
206.259689
70
0
0
VERTEX
8
Layer 1
10
379.382685
20
191.977164
70
0
0
VERTEX
8
Layer 1
10
379.382685
20
191.977164
70
0
0
SEQEND
8
Layer 1
0
POLYLINE
8
Layer 1
62
7
70
1
10
0.000000
20
0.000000
66
1
0
VERTEX
8
Layer 1
10
403.759849
20
182.377164
70
0
0
VERTEX
8
Layer 1
10
403.759849
20
161.200000
70
0
0
VERTEX
8
Layer 1
10
382.582685
20
161.200000
70
0
0
VERTEX
8
Layer 1
10
382.582685
20
182.377164
70
0
0
VERTEX
8
Layer 1
10
403.759849
20
182.377164
70
0
0
VERTEX
8
Layer 1
10
403.759849
20
182.377164
70
0
0
SEQEND
8
Layer 1
0
POLYLINE
8
Layer 1
62
7
70
1
10
0.000000
20
0.000000
66
1
0
VERTEX
8
Layer 1
10
431.337014
20
182.377164
70
0
0
VERTEX
8
Layer 1
10
431.337014
20
161.200000
70
0
0
VERTEX
8
Layer 1
10
410.159849
20
161.200000
70
0
0
VERTEX
8
Layer 1
10
410.159849
20
182.377164
70
0
0
VERTEX
8
Layer 1
10
431.337014
20
182.377164
70
0
0
VERTEX
8
Layer 1
10
431.337014
20
182.377164
70
0
0
SEQEND
8
Layer 1
0
POLYLINE
8
Layer 1
62
7
70
1
10
0.000000
20
0.000000
66
1
0
VERTEX
8
Layer 1
10
393.171267
20
203.059689
70
0
0
VERTEX
8
Layer 1
10
401.417287
20
188.777164
70
0
0
VERTEX
8
Layer 1
10
384.925247
20
188.777164
70
0
0
VERTEX
8
Layer 1
10
393.171267
20
203.059689
70
0
0
VERTEX
8
Layer 1
10
393.171267
20
203.059689
70
0
0
SEQEND
8
Layer 1
0
POLYLINE
8
Layer 1
62
7
70
1
10
0.000000
20
0.000000
66
1
0
VERTEX
8
Layer 1
10
406.959849
20
191.977164
70
0
0
VERTEX
8
Layer 1
10
398.713830
20
206.259689
70
0
0
VERTEX
8
Layer 1
10
415.205869
20
206.259689
70
0
0
VERTEX
8
Layer 1
10
406.959849
20
191.977164
70
0
0
VERTEX
8
Layer 1
10
406.959849
20
191.977164
70
0
0
SEQEND
8
Layer 1
0
POLYLINE
8
Layer 1
62
7
70
1
10
0.000000
20
0.000000
66
1
0
VERTEX
8
Layer 1
10
420.748431
20
203.059689
70
0
0
VERTEX
8
Layer 1
10
428.994451
20
188.777164
70
0
0
VERTEX
8
Layer 1
10
412.502412
20
188.777164
70
0
0
VERTEX
8
Layer 1
10
420.748431
20
203.059689
70
0
0
VERTEX
8
Layer 1
10
420.748431
20
203.059689
70
0
0
SEQEND
8
Layer 1
0
POLYLINE
8
Layer 1
62
7
70
1
10
0.000000
20
0.000000
66
1
0
VERTEX
8
Layer 1
10
434.537014
20
191.977164
70
0
0
VERTEX
8
Layer 1
10
426.290994
20
206.259689
70
0
0
VERTEX
8
Layer 1
10
442.783033
20
206.259689
70
0
0
VERTEX
8
Layer 1
10
434.537014
20
191.977164
70
0
0
VERTEX
8
Layer 1
10
434.537014
20
191.977164
70
0
0
SEQEND
8
Layer 1
0
POLYLINE
8
Layer 1
62
7
70
1
10
0.000000
20
0.000000
66
1
0
VERTEX
8
Layer 1
10
458.914178
20
182.377164
70
0
0
VERTEX
8
Layer 1
10
458.914178
20
161.200000
70
0
0
VERTEX
8
Layer 1
10
437.737014
20
161.200000
70
0
0
VERTEX
8
Layer 1
10
437.737014
20
182.377164
70
0
0
VERTEX
8
Layer 1
10
458.914178
20
182.377164
70
0
0
VERTEX
8
Layer 1
10
458.914178
20
182.377164
70
0
0
SEQEND
8
Layer 1
0
POLYLINE
8
Layer 1
62
7
70
1
10
0.000000
20
0.000000
66
1
0
VERTEX
8
Layer 1
10
486.491343
20
182.377164
70
0
0
VERTEX
8
Layer 1
10
486.491343
20
161.200000
70
0
0
VERTEX
8
Layer 1
10
465.314178
20
161.200000
70
0
0
VERTEX
8
Layer 1
10
465.314178
20
182.377164
70
0
0
VERTEX
8
Layer 1
10
486.491343
20
182.377164
70
0
0
VERTEX
8
Layer 1
10
486.491343
20
182.377164
70
0
0
SEQEND
8
Layer 1
0
POLYLINE
8
Layer 1
62
7
70
1
10
0.000000
20
0.000000
66
1
0
VERTEX
8
Layer 1
10
448.325596
20
203.059689
70
0
0
VERTEX
8
Layer 1
10
456.571616
20
188.777164
70
0
0
VERTEX
8
Layer 1
10
440.079576
20
188.777164
70
0
0
VERTEX
8
Layer 1
10
448.325596
20
203.059689
70
0
0
VERTEX
8
Layer 1
10
448.325596
20
203.059689
70
0
0
SEQEND
8
Layer 1
0
POLYLINE
8
Layer 1
62
7
70
1
10
0.000000
20
0.000000
66
1
0
VERTEX
8
Layer 1
10
462.114178
20
191.977164
70
0
0
VERTEX
8
Layer 1
10
453.868159
20
206.259689
70
0
0
VERTEX
8
Layer 1
10
470.360198
20
206.259689
70
0
0
VERTEX
8
Layer 1
10
462.114178
20
191.977164
70
0
0
VERTEX
8
Layer 1
10
462.114178
20
191.977164
70
0
0
SEQEND
8
Layer 1
0
POLYLINE
8
Layer 1
62
7
70
1
10
0.000000
20
0.000000
66
1
0
VERTEX
8
Layer 1
10
475.902760
20
203.059689
70
0
0
VERTEX
8
Layer 1
10
484.148780
20
188.777164
70
0
0
VERTEX
8
Layer 1
10
467.656741
20
188.777164
70
0
0
VERTEX
8
Layer 1
10
475.902760
20
203.059689
70
0
0
VERTEX
8
Layer 1
10
475.902760
20
203.059689
70
0
0
SEQEND
8
Layer 1
0
POLYLINE
8
Layer 1
62
7
70
1
10
0.000000
20
0.000000
66
1
0
VERTEX
8
Layer 1
10
489.691343
20
191.977164
70
0
0
VERTEX
8
Layer 1
10
481.445323
20
206.259689
70
0
0
VERTEX
8
Layer 1
10
497.937362
20
206.259689
70
0
0
VERTEX
8
Layer 1
10
489.691343
20
191.977164
70
0
0
VERTEX
8
Layer 1
10
489.691343
20
191.977164
70
0
0
SEQEND
8
Layer 1
0
POLYLINE
8
Layer 1
62
7
70
1
10
0.000000
20
0.000000
66
1
0
VERTEX
8
Layer 1
10
514.068507
20
182.377164
70
0
0
VERTEX
8
Layer 1
10
514.068507
20
161.200000
70
0
0
VERTEX
8
Layer 1
10
492.891343
20
161.200000
70
0
0
VERTEX
8
Layer 1
10
492.891343
20
182.377164
70
0
0
VERTEX
8
Layer 1
10
514.068507
20
182.377164
70
0
0
VERTEX
8
Layer 1
10
514.068507
20
182.377164
70
0
0
SEQEND
8
Layer 1
0
POLYLINE
8
Layer 1
62
7
70
1
10
0.000000
20
0.000000
66
1
0
VERTEX
8
Layer 1
10
541.645672
20
182.377164
70
0
0
VERTEX
8
Layer 1
10
541.645672
20
161.200000
70
0
0
VERTEX
8
Layer 1
10
520.468507
20
161.200000
70
0
0
VERTEX
8
Layer 1
10
520.468507
20
182.377164
70
0
0
VERTEX
8
Layer 1
10
541.645672
20
182.377164
70
0
0
VERTEX
8
Layer 1
10
541.645672
20
182.377164
70
0
0
SEQEND
8
Layer 1
0
POLYLINE
8
Layer 1
62
7
70
1
10
0.000000
20
0.000000
66
1
0
VERTEX
8
Layer 1
10
503.479925
20
203.059689
70
0
0
VERTEX
8
Layer 1
10
511.725945
20
188.777164
70
0
0
VERTEX
8
Layer 1
10
495.233905
20
188.777164
70
0
0
VERTEX
8
Layer 1
10
503.479925
20
203.059689
70
0
0
VERTEX
8
Layer 1
10
503.479925
20
203.059689
70
0
0
SEQEND
8
Layer 1
0
POLYLINE
8
Layer 1
62
7
70
1
10
0.000000
20
0.000000
66
1
0
VERTEX
8
Layer 1
10
517.268507
20
191.977164
70
0
0
VERTEX
8
Layer 1
10
509.022487
20
206.259689
70
0
0
VERTEX
8
Layer 1
10
525.514527
20
206.259689
70
0
0
VERTEX
8
Layer 1
10
517.268507
20
191.977164
70
0
0
VERTEX
8
Layer 1
10
517.268507
20
191.977164
70
0
0
SEQEND
8
Layer 1
0
POLYLINE
8
Layer 1
62
7
70
1
10
0.000000
20
0.000000
66
1
0
VERTEX
8
Layer 1
10
531.057089
20
203.059689
70
0
0
VERTEX
8
Layer 1
10
539.303109
20
188.777164
70
0
0
VERTEX
8
Layer 1
10
522.811070
20
188.777164
70
0
0
VERTEX
8
Layer 1
10
531.057089
20
203.059689
70
0
0
VERTEX
8
Layer 1
10
531.057089
20
203.059689
70
0
0
SEQEND
8
Layer 1
0
POLYLINE
8
Layer 1
62
7
70
1
10
0.000000
20
0.000000
66
1
0
VERTEX
8
Layer 1
10
544.845672
20
191.977164
70
0
0
VERTEX
8
Layer 1
10
536.599652
20
206.259689
70
0
0
VERTEX
8
Layer 1
10
553.091691
20
206.259689
70
0
0
VERTEX
8
Layer 1
10
544.845672
20
191.977164
70
0
0
VERTEX
8
Layer 1
10
544.845672
20
191.977164
70
0
0
SEQEND
8
Layer 1
0
POLYLINE
8
Layer 1
62
7
70
1
10
0.000000
20
0.000000
66
1
0
VERTEX
8
Layer 1
10
569.222836
20
182.377164
70
0
0
VERTEX
8
Layer 1
10
569.222836
20
161.200000
70
0
0
VERTEX
8
Layer 1
10
548.045672
20
161.200000
70
0
0
VERTEX
8
Layer 1
10
548.045672
20
182.377164
70
0
0
VERTEX
8
Layer 1
10
569.222836
20
182.377164
70
0
0
VERTEX
8
Layer 1
10
569.222836
20
182.377164
70
0
0
SEQEND
8
Layer 1
0
POLYLINE
8
Layer 1
62
7
70
1
10
0.000000
20
0.000000
66
1
0
VERTEX
8
Layer 1
10
596.800000
20
182.377164
70
0
0
VERTEX
8
Layer 1
10
596.800000
20
161.200000
70
0
0
VERTEX
8
Layer 1
10
575.622836
20
161.200000
70
0
0
VERTEX
8
Layer 1
10
575.622836
20
182.377164
70
0
0
VERTEX
8
Layer 1
10
596.800000
20
182.377164
70
0
0
VERTEX
8
Layer 1
10
596.800000
20
182.377164
70
0
0
SEQEND
8
Layer 1
0
POLYLINE
8
Layer 1
62
7
70
1
10
0.000000
20
0.000000
66
1
0
VERTEX
8
Layer 1
10
558.634254
20
203.059689
70
0
0
VERTEX
8
Layer 1
10
566.880273
20
188.777164
70
0
0
VERTEX
8
Layer 1
10
550.388234
20
188.777164
70
0
0
VERTEX
8
Layer 1
10
558.634254
20
203.059689
70
0
0
VERTEX
8
Layer 1
10
558.634254
20
203.059689
70
0
0
SEQEND
8
Layer 1
0
POLYLINE
8
Layer 1
62
7
70
1
10
0.000000
20
0.000000
66
1
0
VERTEX
8
Layer 1
10
572.422836
20
191.977164
70
0
0
VERTEX
8
Layer 1
10
564.176816
20
206.259689
70
0
0
VERTEX
8
Layer 1
10
580.668856
20
206.259689
70
0
0
VERTEX
8
Layer 1
10
572.422836
20
191.977164
70
0
0
VERTEX
8
Layer 1
10
572.422836
20
191.977164
70
0
0
SEQEND
8
Layer 1
0
POLYLINE
8
Layer 1
62
7
70
1
10
0.000000
20
0.000000
66
1
0
VERTEX
8
Layer 1
10
586.211418
20
203.059689
70
0
0
VERTEX
8
Layer 1
10
594.457438
20
188.777164
70
0
0
VERTEX
8
Layer 1
10
577.965399
20
188.777164
70
0
0
VERTEX
8
Layer 1
10
586.211418
20
203.059689
70
0
0
VERTEX
8
Layer 1
10
586.211418
20
203.059689
70
0
0
SEQEND
8
Layer 1
0
POLYLINE
8
Layer 1
62
7
70
1
10
0.000000
20
0.000000
66
1
0
VERTEX
8
Layer 1
10
600.000000
20
191.977164
70
0
0
VERTEX
8
Layer 1
10
591.753981
20
206.259689
70
0
0
VERTEX
8
Layer 1
10
608.246020
20
206.259689
70
0
0
VERTEX
8
Layer 1
10
600.000000
20
191.977164
70
0
0
VERTEX
8
Layer 1
10
600.000000
20
191.977164
70
0
0
SEQEND
8
Layer 1
0
POLYLINE
8
Layer 1
62
7
70
1
10
0.000000
20
0.000000
66
1
0
VERTEX
8
Layer 1
10
624.377165
20
182.377164
70
0
0
VERTEX
8
Layer 1
10
624.377165
20
161.200000
70
0
0
VERTEX
8
Layer 1
10
603.200000
20
161.200000
70
0
0
VERTEX
8
Layer 1
10
603.200000
20
182.377164
70
0
0
VERTEX
8
Layer 1
10
624.377165
20
182.377164
70
0
0
VERTEX
8
Layer 1
10
624.377165
20
182.377164
70
0
0
SEQEND
8
Layer 1
0
POLYLINE
8
Layer 1
62
7
70
1
10
0.000000
20
0.000000
66
1
0
VERTEX
8
Layer 1
10
651.954329
20
182.377164
70
0
0
VERTEX
8
Layer 1
10
651.954329
20
161.200000
70
0
0
VERTEX
8
Layer 1
10
630.777165
20
161.200000
70
0
0
VERTEX
8
Layer 1
10
630.777165
20
182.377164
70
0
0
VERTEX
8
Layer 1
10
651.954329
20
182.377164
70
0
0
VERTEX
8
Layer 1
10
651.954329
20
182.377164
70
0
0
SEQEND
8
Layer 1
0
POLYLINE
8
Layer 1
62
7
70
1
10
0.000000
20
0.000000
66
1
0
VERTEX
8
Layer 1
10
613.788583
20
203.059689
70
0
0
VERTEX
8
Layer 1
10
622.034602
20
188.777164
70
0
0
VERTEX
8
Layer 1
10
605.542563
20
188.777164
70
0
0
VERTEX
8
Layer 1
10
613.788583
20
203.059689
70
0
0
VERTEX
8
Layer 1
10
613.788583
20
203.059689
70
0
0
SEQEND
8
Layer 1
0
POLYLINE
8
Layer 1
62
7
70
1
10
0.000000
20
0.000000
66
1
0
VERTEX
8
Layer 1
10
627.577165
20
191.977164
70
0
0
VERTEX
8
Layer 1
10
619.331145
20
206.259689
70
0
0
VERTEX
8
Layer 1
10
635.823185
20
206.259689
70
0
0
VERTEX
8
Layer 1
10
627.577165
20
191.977164
70
0
0
VERTEX
8
Layer 1
10
627.577165
20
191.977164
70
0
0
SEQEND
8
Layer 1
0
POLYLINE
8
Layer 1
62
7
70
1
10
0.000000
20
0.000000
66
1
0
VERTEX
8
Layer 1
10
641.365747
20
203.059689
70
0
0
VERTEX
8
Layer 1
10
649.611767
20
188.777164
70
0
0
VERTEX
8
Layer 1
10
633.119728
20
188.777164
70
0
0
VERTEX
8
Layer 1
10
641.365747
20
203.059689
70
0
0
VERTEX
8
Layer 1
10
641.365747
20
203.059689
70
0
0
SEQEND
8
Layer 1
0
POLYLINE
8
Layer 1
62
7
70
1
10
0.000000
20
0.000000
66
1
0
VERTEX
8
Layer 1
10
655.154329
20
191.977164
70
0
0
VERTEX
8
Layer 1
10
646.908310
20
206.259689
70
0
0
VERTEX
8
Layer 1
10
663.400349
20
206.259689
70
0
0
VERTEX
8
Layer 1
10
655.154329
20
191.977164
70
0
0
VERTEX
8
Layer 1
10
655.154329
20
191.977164
70
0
0
SEQEND
8
Layer 1
0
POLYLINE
8
Layer 1
62
7
70
1
10
0.000000
20
0.000000
66
1
0
VERTEX
8
Layer 1
10
679.531494
20
182.377164
70
0
0
VERTEX
8
Layer 1
10
679.531494
20
161.200000
70
0
0
VERTEX
8
Layer 1
10
658.354329
20
161.200000
70
0
0
VERTEX
8
Layer 1
10
658.354329
20
182.377164
70
0
0
VERTEX
8
Layer 1
10
679.531494
20
182.377164
70
0
0
VERTEX
8
Layer 1
10
679.531494
20
182.377164
70
0
0
SEQEND
8
Layer 1
0
POLYLINE
8
Layer 1
62
7
70
1
10
0.000000
20
0.000000
66
1
0
VERTEX
8
Layer 1
10
707.108658
20
182.377164
70
0
0
VERTEX
8
Layer 1
10
707.108658
20
161.200000
70
0
0
VERTEX
8
Layer 1
10
685.931494
20
161.200000
70
0
0
VERTEX
8
Layer 1
10
685.931494
20
182.377164
70
0
0
VERTEX
8
Layer 1
10
707.108658
20
182.377164
70
0
0
VERTEX
8
Layer 1
10
707.108658
20
182.377164
70
0
0
SEQEND
8
Layer 1
0
POLYLINE
8
Layer 1
62
7
70
1
10
0.000000
20
0.000000
66
1
0
VERTEX
8
Layer 1
10
668.942912
20
203.059689
70
0
0
VERTEX
8
Layer 1
10
677.188931
20
188.777164
70
0
0
VERTEX
8
Layer 1
10
660.696892
20
188.777164
70
0
0
VERTEX
8
Layer 1
10
668.942912
20
203.059689
70
0
0
VERTEX
8
Layer 1
10
668.942912
20
203.059689
70
0
0
SEQEND
8
Layer 1
0
POLYLINE
8
Layer 1
62
7
70
1
10
0.000000
20
0.000000
66
1
0
VERTEX
8
Layer 1
10
682.731494
20
191.977164
70
0
0
VERTEX
8
Layer 1
10
674.485474
20
206.259689
70
0
0
VERTEX
8
Layer 1
10
690.977514
20
206.259689
70
0
0
VERTEX
8
Layer 1
10
682.731494
20
191.977164
70
0
0
VERTEX
8
Layer 1
10
682.731494
20
191.977164
70
0
0
SEQEND
8
Layer 1
0
POLYLINE
8
Layer 1
62
7
70
1
10
0.000000
20
0.000000
66
1
0
VERTEX
8
Layer 1
10
696.520076
20
203.059689
70
0
0
VERTEX
8
Layer 1
10
704.766096
20
188.777164
70
0
0
VERTEX
8
Layer 1
10
688.274056
20
188.777164
70
0
0
VERTEX
8
Layer 1
10
696.520076
20
203.059689
70
0
0
VERTEX
8
Layer 1
10
696.520076
20
203.059689
70
0
0
SEQEND
8
Layer 1
0
POLYLINE
8
Layer 1
62
7
70
1
10
0.000000
20
0.000000
66
1
0
VERTEX
8
Layer 1
10
710.308658
20
191.977164
70
0
0
VERTEX
8
Layer 1
10
702.062639
20
206.259689
70
0
0
VERTEX
8
Layer 1
10
718.554678
20
206.259689
70
0
0
VERTEX
8
Layer 1
10
710.308658
20
191.977164
70
0
0
VERTEX
8
Layer 1
10
710.308658
20
191.977164
70
0
0
SEQEND
8
Layer 1
0
POLYLINE
8
Layer 1
62
7
70
1
10
0.000000
20
0.000000
66
1
0
VERTEX
8
Layer 1
10
734.685823
20
182.377164
70
0
0
VERTEX
8
Layer 1
10
734.685823
20
161.200000
70
0
0
VERTEX
8
Layer 1
10
713.508658
20
161.200000
70
0
0
VERTEX
8
Layer 1
10
713.508658
20
182.377164
70
0
0
VERTEX
8
Layer 1
10
734.685823
20
182.377164
70
0
0
VERTEX
8
Layer 1
10
734.685823
20
182.377164
70
0
0
SEQEND
8
Layer 1
0
POLYLINE
8
Layer 1
62
7
70
1
10
0.000000
20
0.000000
66
1
0
VERTEX
8
Layer 1
10
762.262987
20
182.377164
70
0
0
VERTEX
8
Layer 1
10
762.262987
20
161.200000
70
0
0
VERTEX
8
Layer 1
10
741.085823
20
161.200000
70
0
0
VERTEX
8
Layer 1
10
741.085823
20
182.377164
70
0
0
VERTEX
8
Layer 1
10
762.262987
20
182.377164
70
0
0
VERTEX
8
Layer 1
10
762.262987
20
182.377164
70
0
0
SEQEND
8
Layer 1
0
POLYLINE
8
Layer 1
62
7
70
1
10
0.000000
20
0.000000
66
1
0
VERTEX
8
Layer 1
10
724.097241
20
203.059689
70
0
0
VERTEX
8
Layer 1
10
732.343260
20
188.777164
70
0
0
VERTEX
8
Layer 1
10
715.851221
20
188.777164
70
0
0
VERTEX
8
Layer 1
10
724.097241
20
203.059689
70
0
0
VERTEX
8
Layer 1
10
724.097241
20
203.059689
70
0
0
SEQEND
8
Layer 1
0
POLYLINE
8
Layer 1
62
7
70
1
10
0.000000
20
0.000000
66
1
0
VERTEX
8
Layer 1
10
737.885823
20
191.977164
70
0
0
VERTEX
8
Layer 1
10
729.639803
20
206.259689
70
0
0
VERTEX
8
Layer 1
10
746.131842
20
206.259689
70
0
0
VERTEX
8
Layer 1
10
737.885823
20
191.977164
70
0
0
VERTEX
8
Layer 1
10
737.885823
20
191.977164
70
0
0
SEQEND
8
Layer 1
0
POLYLINE
8
Layer 1
62
7
70
1
10
0.000000
20
0.000000
66
1
0
VERTEX
8
Layer 1
10
751.674405
20
203.059689
70
0
0
VERTEX
8
Layer 1
10
759.920425
20
188.777164
70
0
0
VERTEX
8
Layer 1
10
743.428385
20
188.777164
70
0
0
VERTEX
8
Layer 1
10
751.674405
20
203.059689
70
0
0
VERTEX
8
Layer 1
10
751.674405
20
203.059689
70
0
0
SEQEND
8
Layer 1
0
POLYLINE
8
Layer 1
62
7
70
1
10
0.000000
20
0.000000
66
1
0
VERTEX
8
Layer 1
10
765.462987
20
191.977164
70
0
0
VERTEX
8
Layer 1
10
757.216968
20
206.259689
70
0
0
VERTEX
8
Layer 1
10
773.709007
20
206.259689
70
0
0
VERTEX
8
Layer 1
10
765.462987
20
191.977164
70
0
0
VERTEX
8
Layer 1
10
765.462987
20
191.977164
70
0
0
SEQEND
8
Layer 1
0
POLYLINE
8
Layer 1
62
7
70
1
10
0.000000
20
0.000000
66
1
0
VERTEX
8
Layer 1
10
789.840152
20
182.377164
70
0
0
VERTEX
8
Layer 1
10
789.840152
20
161.200000
70
0
0
VERTEX
8
Layer 1
10
768.662987
20
161.200000
70
0
0
VERTEX
8
Layer 1
10
768.662987
20
182.377164
70
0
0
VERTEX
8
Layer 1
10
789.840152
20
182.377164
70
0
0
VERTEX
8
Layer 1
10
789.840152
20
182.377164
70
0
0
SEQEND
8
Layer 1
0
POLYLINE
8
Layer 1
62
7
70
1
10
0.000000
20
0.000000
66
1
0
VERTEX
8
Layer 1
10
817.417316
20
182.377164
70
0
0
VERTEX
8
Layer 1
10
817.417316
20
161.200000
70
0
0
VERTEX
8
Layer 1
10
796.240152
20
161.200000
70
0
0
VERTEX
8
Layer 1
10
796.240152
20
182.377164
70
0
0
VERTEX
8
Layer 1
10
817.417316
20
182.377164
70
0
0
VERTEX
8
Layer 1
10
817.417316
20
182.377164
70
0
0
SEQEND
8
Layer 1
0
POLYLINE
8
Layer 1
62
7
70
1
10
0.000000
20
0.000000
66
1
0
VERTEX
8
Layer 1
10
779.251570
20
203.059689
70
0
0
VERTEX
8
Layer 1
10
787.497589
20
188.777164
70
0
0
VERTEX
8
Layer 1
10
771.005550
20
188.777164
70
0
0
VERTEX
8
Layer 1
10
779.251570
20
203.059689
70
0
0
VERTEX
8
Layer 1
10
779.251570
20
203.059689
70
0
0
SEQEND
8
Layer 1
0
POLYLINE
8
Layer 1
62
7
70
1
10
0.000000
20
0.000000
66
1
0
VERTEX
8
Layer 1
10
793.040152
20
191.977164
70
0
0
VERTEX
8
Layer 1
10
784.794132
20
206.259689
70
0
0
VERTEX
8
Layer 1
10
801.286171
20
206.259689
70
0
0
VERTEX
8
Layer 1
10
793.040152
20
191.977164
70
0
0
VERTEX
8
Layer 1
10
793.040152
20
191.977164
70
0
0
SEQEND
8
Layer 1
0
POLYLINE
8
Layer 1
62
7
70
1
10
0.000000
20
0.000000
66
1
0
VERTEX
8
Layer 1
10
806.828734
20
203.059689
70
0
0
VERTEX
8
Layer 1
10
815.074754
20
188.777164
70
0
0
VERTEX
8
Layer 1
10
798.582714
20
188.777164
70
0
0
VERTEX
8
Layer 1
10
806.828734
20
203.059689
70
0
0
VERTEX
8
Layer 1
10
806.828734
20
203.059689
70
0
0
SEQEND
8
Layer 1
0
POLYLINE
8
Layer 1
62
7
70
1
10
0.000000
20
0.000000
66
1
0
VERTEX
8
Layer 1
10
820.617316
20
191.977164
70
0
0
VERTEX
8
Layer 1
10
812.371297
20
206.259689
70
0
0
VERTEX
8
Layer 1
10
828.863336
20
206.259689
70
0
0
VERTEX
8
Layer 1
10
820.617316
20
191.977164
70
0
0
VERTEX
8
Layer 1
10
820.617316
20
191.977164
70
0
0
SEQEND
8
Layer 1
0
POLYLINE
8
Layer 1
62
7
70
1
10
0.000000
20
0.000000
66
1
0
VERTEX
8
Layer 1
10
844.994481
20
182.377164
70
0
0
VERTEX
8
Layer 1
10
844.994481
20
161.200000
70
0
0
VERTEX
8
Layer 1
10
823.817316
20
161.200000
70
0
0
VERTEX
8
Layer 1
10
823.817316
20
182.377164
70
0
0
VERTEX
8
Layer 1
10
844.994481
20
182.377164
70
0
0
VERTEX
8
Layer 1
10
844.994481
20
182.377164
70
0
0
SEQEND
8
Layer 1
0
POLYLINE
8
Layer 1
62
7
70
1
10
0.000000
20
0.000000
66
1
0
VERTEX
8
Layer 1
10
872.571645
20
182.377164
70
0
0
VERTEX
8
Layer 1
10
872.571645
20
161.200000
70
0
0
VERTEX
8
Layer 1
10
851.394481
20
161.200000
70
0
0
VERTEX
8
Layer 1
10
851.394481
20
182.377164
70
0
0
VERTEX
8
Layer 1
10
872.571645
20
182.377164
70
0
0
VERTEX
8
Layer 1
10
872.571645
20
182.377164
70
0
0
SEQEND
8
Layer 1
0
POLYLINE
8
Layer 1
62
7
70
1
10
0.000000
20
0.000000
66
1
0
VERTEX
8
Layer 1
10
834.405898
20
203.059689
70
0
0
VERTEX
8
Layer 1
10
842.651918
20
188.777164
70
0
0
VERTEX
8
Layer 1
10
826.159879
20
188.777164
70
0
0
VERTEX
8
Layer 1
10
834.405898
20
203.059689
70
0
0
VERTEX
8
Layer 1
10
834.405898
20
203.059689
70
0
0
SEQEND
8
Layer 1
0
POLYLINE
8
Layer 1
62
7
70
1
10
0.000000
20
0.000000
66
1
0
VERTEX
8
Layer 1
10
848.194481
20
191.977164
70
0
0
VERTEX
8
Layer 1
10
839.948461
20
206.259689
70
0
0
VERTEX
8
Layer 1
10
856.440500
20
206.259689
70
0
0
VERTEX
8
Layer 1
10
848.194481
20
191.977164
70
0
0
VERTEX
8
Layer 1
10
848.194481
20
191.977164
70
0
0
SEQEND
8
Layer 1
0
POLYLINE
8
Layer 1
62
7
70
1
10
0.000000
20
0.000000
66
1
0
VERTEX
8
Layer 1
10
861.983063
20
203.059689
70
0
0
VERTEX
8
Layer 1
10
870.229083
20
188.777164
70
0
0
VERTEX
8
Layer 1
10
853.737043
20
188.777164
70
0
0
VERTEX
8
Layer 1
10
861.983063
20
203.059689
70
0
0
VERTEX
8
Layer 1
10
861.983063
20
203.059689
70
0
0
SEQEND
8
Layer 1
0
POLYLINE
8
Layer 1
62
7
70
1
10
0.000000
20
0.000000
66
1
0
VERTEX
8
Layer 1
10
875.771645
20
191.977164
70
0
0
VERTEX
8
Layer 1
10
867.525626
20
206.259689
70
0
0
VERTEX
8
Layer 1
10
884.017665
20
206.259689
70
0
0
VERTEX
8
Layer 1
10
875.771645
20
191.977164
70
0
0
VERTEX
8
Layer 1
10
875.771645
20
191.977164
70
0
0
SEQEND
8
Layer 1
0
POLYLINE
8
Layer 1
62
7
70
1
10
0.000000
20
0.000000
66
1
0
VERTEX
8
Layer 1
10
900.148810
20
182.377164
70
0
0
VERTEX
8
Layer 1
10
900.148810
20
161.200000
70
0
0
VERTEX
8
Layer 1
10
878.971645
20
161.200000
70
0
0
VERTEX
8
Layer 1
10
878.971645
20
182.377164
70
0
0
VERTEX
8
Layer 1
10
900.148810
20
182.377164
70
0
0
VERTEX
8
Layer 1
10
900.148810
20
182.377164
70
0
0
SEQEND
8
Layer 1
0
POLYLINE
8
Layer 1
62
7
70
1
10
0.000000
20
0.000000
66
1
0
VERTEX
8
Layer 1
10
927.725974
20
182.377164
70
0
0
VERTEX
8
Layer 1
10
927.725974
20
161.200000
70
0
0
VERTEX
8
Layer 1
10
906.548810
20
161.200000
70
0
0
VERTEX
8
Layer 1
10
906.548810
20
182.377164
70
0
0
VERTEX
8
Layer 1
10
927.725974
20
182.377164
70
0
0
VERTEX
8
Layer 1
10
927.725974
20
182.377164
70
0
0
SEQEND
8
Layer 1
0
POLYLINE
8
Layer 1
62
7
70
1
10
0.000000
20
0.000000
66
1
0
VERTEX
8
Layer 1
10
889.560227
20
203.059689
70
0
0
VERTEX
8
Layer 1
10
897.806247
20
188.777164
70
0
0
VERTEX
8
Layer 1
10
881.314208
20
188.777164
70
0
0
VERTEX
8
Layer 1
10
889.560227
20
203.059689
70
0
0
VERTEX
8
Layer 1
10
889.560227
20
203.059689
70
0
0
SEQEND
8
Layer 1
0
POLYLINE
8
Layer 1
62
7
70
1
10
0.000000
20
0.000000
66
1
0
VERTEX
8
Layer 1
10
903.348810
20
191.977164
70
0
0
VERTEX
8
Layer 1
10
895.102790
20
206.259689
70
0
0
VERTEX
8
Layer 1
10
911.594829
20
206.259689
70
0
0
VERTEX
8
Layer 1
10
903.348810
20
191.977164
70
0
0
VERTEX
8
Layer 1
10
903.348810
20
191.977164
70
0
0
SEQEND
8
Layer 1
0
POLYLINE
8
Layer 1
62
7
70
1
10
0.000000
20
0.000000
66
1
0
VERTEX
8
Layer 1
10
917.137392
20
203.059689
70
0
0
VERTEX
8
Layer 1
10
925.383412
20
188.777164
70
0
0
VERTEX
8
Layer 1
10
908.891372
20
188.777164
70
0
0
VERTEX
8
Layer 1
10
917.137392
20
203.059689
70
0
0
VERTEX
8
Layer 1
10
917.137392
20
203.059689
70
0
0
SEQEND
8
Layer 1
0
POLYLINE
8
Layer 1
62
7
70
1
10
0.000000
20
0.000000
66
1
0
VERTEX
8
Layer 1
10
930.925974
20
191.977164
70
0
0
VERTEX
8
Layer 1
10
922.679954
20
206.259689
70
0
0
VERTEX
8
Layer 1
10
939.171994
20
206.259689
70
0
0
VERTEX
8
Layer 1
10
930.925974
20
191.977164
70
0
0
VERTEX
8
Layer 1
10
930.925974
20
191.977164
70
0
0
SEQEND
8
Layer 1
0
POLYLINE
8
Layer 1
62
7
70
1
10
0.000000
20
0.000000
66
1
0
VERTEX
8
Layer 1
10
955.303139
20
182.377164
70
0
0
VERTEX
8
Layer 1
10
955.303139
20
161.200000
70
0
0
VERTEX
8
Layer 1
10
934.125974
20
161.200000
70
0
0
VERTEX
8
Layer 1
10
934.125974
20
182.377164
70
0
0
VERTEX
8
Layer 1
10
955.303139
20
182.377164
70
0
0
VERTEX
8
Layer 1
10
955.303139
20
182.377164
70
0
0
SEQEND
8
Layer 1
0
POLYLINE
8
Layer 1
62
7
70
1
10
0.000000
20
0.000000
66
1
0
VERTEX
8
Layer 1
10
982.880303
20
182.377164
70
0
0
VERTEX
8
Layer 1
10
982.880303
20
161.200000
70
0
0
VERTEX
8
Layer 1
10
961.703139
20
161.200000
70
0
0
VERTEX
8
Layer 1
10
961.703139
20
182.377164
70
0
0
VERTEX
8
Layer 1
10
982.880303
20
182.377164
70
0
0
VERTEX
8
Layer 1
10
982.880303
20
182.377164
70
0
0
SEQEND
8
Layer 1
0
POLYLINE
8
Layer 1
62
7
70
1
10
0.000000
20
0.000000
66
1
0
VERTEX
8
Layer 1
10
944.714556
20
203.059689
70
0
0
VERTEX
8
Layer 1
10
952.960576
20
188.777164
70
0
0
VERTEX
8
Layer 1
10
936.468537
20
188.777164
70
0
0
VERTEX
8
Layer 1
10
944.714556
20
203.059689
70
0
0
VERTEX
8
Layer 1
10
944.714556
20
203.059689
70
0
0
SEQEND
8
Layer 1
0
POLYLINE
8
Layer 1
62
7
70
1
10
0.000000
20
0.000000
66
1
0
VERTEX
8
Layer 1
10
958.503139
20
191.977164
70
0
0
VERTEX
8
Layer 1
10
950.257119
20
206.259689
70
0
0
VERTEX
8
Layer 1
10
966.749158
20
206.259689
70
0
0
VERTEX
8
Layer 1
10
958.503139
20
191.977164
70
0
0
VERTEX
8
Layer 1
10
958.503139
20
191.977164
70
0
0
SEQEND
8
Layer 1
0
POLYLINE
8
Layer 1
62
7
70
1
10
0.000000
20
0.000000
66
1
0
VERTEX
8
Layer 1
10
972.291721
20
203.059689
70
0
0
VERTEX
8
Layer 1
10
980.537740
20
188.777164
70
0
0
VERTEX
8
Layer 1
10
964.045701
20
188.777164
70
0
0
VERTEX
8
Layer 1
10
972.291721
20
203.059689
70
0
0
VERTEX
8
Layer 1
10
972.291721
20
203.059689
70
0
0
SEQEND
8
Layer 1
0
POLYLINE
8
Layer 1
62
7
70
1
10
0.000000
20
0.000000
66
1
0
VERTEX
8
Layer 1
10
986.080303
20
191.977164
70
0
0
VERTEX
8
Layer 1
10
977.834283
20
206.259689
70
0
0
VERTEX
8
Layer 1
10
994.326323
20
206.259689
70
0
0
VERTEX
8
Layer 1
10
986.080303
20
191.977164
70
0
0
VERTEX
8
Layer 1
10
986.080303
20
191.977164
70
0
0
SEQEND
8
Layer 1
0
POLYLINE
8
Layer 1
62
7
70
1
10
0.000000
20
0.000000
66
1
0
VERTEX
8
Layer 1
10
1010.457467
20
182.377164
70
0
0
VERTEX
8
Layer 1
10
1010.457467
20
161.200000
70
0
0
VERTEX
8
Layer 1
10
989.280303
20
161.200000
70
0
0
VERTEX
8
Layer 1
10
989.280303
20
182.377164
70
0
0
VERTEX
8
Layer 1
10
1010.457467
20
182.377164
70
0
0
VERTEX
8
Layer 1
10
1010.457467
20
182.377164
70
0
0
SEQEND
8
Layer 1
0
POLYLINE
8
Layer 1
62
7
70
1
10
0.000000
20
0.000000
66
1
0
VERTEX
8
Layer 1
10
999.868885
20
203.059689
70
0
0
VERTEX
8
Layer 1
10
1008.114905
20
188.777164
70
0
0
VERTEX
8
Layer 1
10
991.622866
20
188.777164
70
0
0
VERTEX
8
Layer 1
10
999.868885
20
203.059689
70
0
0
VERTEX
8
Layer 1
10
999.868885
20
203.059689
70
0
0
SEQEND
8
Layer 1
0
POLYLINE
8
Layer 1
62
7
70
1
10
0.000000
20
0.000000
66
1
0
VERTEX
8
Layer 1
10
1013.657467
20
191.977164
70
0
0
VERTEX
8
Layer 1
10
1005.411448
20
206.259689
70
0
0
VERTEX
8
Layer 1
10
1021.903487
20
206.259689
70
0
0
VERTEX
8
Layer 1
10
1013.657467
20
191.977164
70
0
0
VERTEX
8
Layer 1
10
1013.657467
20
191.977164
70
0
0
SEQEND
8
Layer 1
0
POLYLINE
8
Layer 1
62
7
70
1
10
0.000000
20
0.000000
66
1
0
VERTEX
8
Layer 1
10
440.739034
20
87.000000
70
0
0
VERTEX
8
Layer 1
10
448.325596
20
100.140311
70
0
0
VERTEX
8
Layer 1
10
455.912158
20
87.000000
70
0
0
VERTEX
8
Layer 1
10
440.739034
20
87.000000
70
0
0
VERTEX
8
Layer 1
10
440.739034
20
87.000000
70
0
0
SEQEND
8
Layer 1
0
POLYLINE
8
Layer 1
62
7
70
1
10
0.000000
20
0.000000
66
1
0
VERTEX
8
Layer 1
10
826.819337
20
87.000000
70
0
0
VERTEX
8
Layer 1
10
834.405898
20
100.140311
70
0
0
VERTEX
8
Layer 1
10
841.992460
20
87.000000
70
0
0
VERTEX
8
Layer 1
10
826.819337
20
87.000000
70
0
0
VERTEX
8
Layer 1
10
826.819337
20
87.000000
70
0
0
SEQEND
8
Layer 1
0
POLYLINE
8
Layer 1
62
7
70
1
10
0.000000
20
0.000000
66
1
0
VERTEX
8
Layer 1
10
183.142533
20
161.200000
70
0
0
VERTEX
8
Layer 1
10
173.000000
20
161.200000
70
0
0
VERTEX
8
Layer 1
10
173.000000
20
182.377164
70
0
0
VERTEX
8
Layer 1
10
183.142533
20
182.377164
70
0
0
VERTEX
8
Layer 1
10
183.142533
20
161.200000
70
0
0
VERTEX
8
Layer 1
10
183.142533
20
161.200000
70
0
0
SEQEND
8
Layer 1
0
POLYLINE
8
Layer 1
62
7
70
1
10
0.000000
20
0.000000
66
1
0
VERTEX
8
Layer 1
10
937.127994
20
87.000000
70
0
0
VERTEX
8
Layer 1
10
944.714556
20
100.140311
70
0
0
VERTEX
8
Layer 1
10
952.301118
20
87.000000
70
0
0
VERTEX
8
Layer 1
10
937.127994
20
87.000000
70
0
0
VERTEX
8
Layer 1
10
937.127994
20
87.000000
70
0
0
SEQEND
8
Layer 1
0
POLYLINE
8
Layer 1
62
7
70
1
10
0.000000
20
0.000000
66
1
0
VERTEX
8
Layer 1
10
220.121718
20
87.000000
70
0
0
VERTEX
8
Layer 1
10
227.708280
20
100.140311
70
0
0
VERTEX
8
Layer 1
10
235.294842
20
87.000000
70
0
0
VERTEX
8
Layer 1
10
220.121718
20
87.000000
70
0
0
VERTEX
8
Layer 1
10
220.121718
20
87.000000
70
0
0
SEQEND
8
Layer 1
0
POLYLINE
8
Layer 1
62
7
70
1
10
0.000000
20
0.000000
66
1
0
VERTEX
8
Layer 1
10
302.853212
20
87.000000
70
0
0
VERTEX
8
Layer 1
10
310.439774
20
100.140311
70
0
0
VERTEX
8
Layer 1
10
318.026335
20
87.000000
70
0
0
VERTEX
8
Layer 1
10
302.853212
20
87.000000
70
0
0
VERTEX
8
Layer 1
10
302.853212
20
87.000000
70
0
0
SEQEND
8
Layer 1
0
POLYLINE
8
Layer 1
62
7
70
1
10
0.000000
20
0.000000
66
1
0
VERTEX
8
Layer 1
10
1019.859488
20
87.000000
70
0
0
VERTEX
8
Layer 1
10
1027.000000
20
99.367731
70
0
0
VERTEX
8
Layer 1
10
1027.000000
20
87.000000
70
0
0
VERTEX
8
Layer 1
10
1019.859488
20
87.000000
70
0
0
VERTEX
8
Layer 1
10
1019.859488
20
87.000000
70
0
0
SEQEND
8
Layer 1
0
POLYLINE
8
Layer 1
62
7
70
1
10
0.000000
20
0.000000
66
1
0
VERTEX
8
Layer 1
10
192.544554
20
87.000000
70
0
0
VERTEX
8
Layer 1
10
200.131116
20
100.140311
70
0
0
VERTEX
8
Layer 1
10
207.717678
20
87.000000
70
0
0
VERTEX
8
Layer 1
10
192.544554
20
87.000000
70
0
0
VERTEX
8
Layer 1
10
192.544554
20
87.000000
70
0
0
SEQEND
8
Layer 1
0
POLYLINE
8
Layer 1
62
7
70
1
10
0.000000
20
0.000000
66
1
0
VERTEX
8
Layer 1
10
385.584705
20
87.000000
70
0
0
VERTEX
8
Layer 1
10
393.171267
20
100.140311
70
0
0
VERTEX
8
Layer 1
10
400.757829
20
87.000000
70
0
0
VERTEX
8
Layer 1
10
385.584705
20
87.000000
70
0
0
VERTEX
8
Layer 1
10
385.584705
20
87.000000
70
0
0
SEQEND
8
Layer 1
0
POLYLINE
8
Layer 1
62
7
70
1
10
0.000000
20
0.000000
66
1
0
VERTEX
8
Layer 1
10
688.933514
20
87.000000
70
0
0
VERTEX
8
Layer 1
10
696.520076
20
100.140311
70
0
0
VERTEX
8
Layer 1
10
704.106638
20
87.000000
70
0
0
VERTEX
8
Layer 1
10
688.933514
20
87.000000
70
0
0
VERTEX
8
Layer 1
10
688.933514
20
87.000000
70
0
0
SEQEND
8
Layer 1
0
POLYLINE
8
Layer 1
62
7
70
1
10
0.000000
20
0.000000
66
1
0
VERTEX
8
Layer 1
10
495.893363
20
87.000000
70
0
0
VERTEX
8
Layer 1
10
503.479925
20
100.140311
70
0
0
VERTEX
8
Layer 1
10
511.066487
20
87.000000
70
0
0
VERTEX
8
Layer 1
10
495.893363
20
87.000000
70
0
0
VERTEX
8
Layer 1
10
495.893363
20
87.000000
70
0
0
SEQEND
8
Layer 1
0
POLYLINE
8
Layer 1
62
7
70
1
10
0.000000
20
0.000000
66
1
0
VERTEX
8
Layer 1
10
173.000000
20
188.777164
70
0
0
VERTEX
8
Layer 1
10
173.000000
20
202.287110
70
0
0
VERTEX
8
Layer 1
10
180.799971
20
188.777164
70
0
0
VERTEX
8
Layer 1
10
173.000000
20
188.777164
70
0
0
VERTEX
8
Layer 1
10
173.000000
20
188.777164
70
0
0
SEQEND
8
Layer 1
0
POLYLINE
8
Layer 1
62
7
70
1
10
0.000000
20
0.000000
66
1
0
VERTEX
8
Layer 1
10
551.047692
20
87.000000
70
0
0
VERTEX
8
Layer 1
10
558.634254
20
100.140311
70
0
0
VERTEX
8
Layer 1
10
566.220816
20
87.000000
70
0
0
VERTEX
8
Layer 1
10
551.047692
20
87.000000
70
0
0
VERTEX
8
Layer 1
10
551.047692
20
87.000000
70
0
0
SEQEND
8
Layer 1
0
POLYLINE
8
Layer 1
62
7
70
1
10
0.000000
20
0.000000
66
1
0
VERTEX
8
Layer 1
10
275.276047
20
87.000000
70
0
0
VERTEX
8
Layer 1
10
282.862609
20
100.140311
70
0
0
VERTEX
8
Layer 1
10
290.449171
20
87.000000
70
0
0
VERTEX
8
Layer 1
10
275.276047
20
87.000000
70
0
0
VERTEX
8
Layer 1
10
275.276047
20
87.000000
70
0
0
SEQEND
8
Layer 1
0
POLYLINE
8
Layer 1
62
7
70
1
10
0.000000
20
0.000000
66
1
0
VERTEX
8
Layer 1
10
744.087843
20
87.000000
70
0
0
VERTEX
8
Layer 1
10
751.674405
20
100.140311
70
0
0
VERTEX
8
Layer 1
10
759.260967
20
87.000000
70
0
0
VERTEX
8
Layer 1
10
744.087843
20
87.000000
70
0
0
VERTEX
8
Layer 1
10
744.087843
20
87.000000
70
0
0
SEQEND
8
Layer 1
0
POLYLINE
8
Layer 1
62
7
70
1
10
0.000000
20
0.000000
66
1
0
VERTEX
8
Layer 1
10
578.624856
20
87.000000
70
0
0
VERTEX
8
Layer 1
10
586.211418
20
100.140311
70
0
0
VERTEX
8
Layer 1
10
593.797980
20
87.000000
70
0
0
VERTEX
8
Layer 1
10
578.624856
20
87.000000
70
0
0
VERTEX
8
Layer 1
10
578.624856
20
87.000000
70
0
0
SEQEND
8
Layer 1
0
POLYLINE
8
Layer 1
62
7
70
1
10
0.000000
20
0.000000
66
1
0
VERTEX
8
Layer 1
10
799.242172
20
87.000000
70
0
0
VERTEX
8
Layer 1
10
806.828734
20
100.140311
70
0
0
VERTEX
8
Layer 1
10
814.415296
20
87.000000
70
0
0
VERTEX
8
Layer 1
10
799.242172
20
87.000000
70
0
0
VERTEX
8
Layer 1
10
799.242172
20
87.000000
70
0
0
SEQEND
8
Layer 1
0
POLYLINE
8
Layer 1
62
7
70
1
10
0.000000
20
0.000000
66
1
0
VERTEX
8
Layer 1
10
358.007541
20
87.000000
70
0
0
VERTEX
8
Layer 1
10
365.594103
20
100.140311
70
0
0
VERTEX
8
Layer 1
10
373.180664
20
87.000000
70
0
0
VERTEX
8
Layer 1
10
358.007541
20
87.000000
70
0
0
VERTEX
8
Layer 1
10
358.007541
20
87.000000
70
0
0
SEQEND
8
Layer 1
0
POLYLINE
8
Layer 1
62
7
70
1
10
0.000000
20
0.000000
66
1
0
VERTEX
8
Layer 1
10
633.779185
20
87.000000
70
0
0
VERTEX
8
Layer 1
10
641.365747
20
100.140311
70
0
0
VERTEX
8
Layer 1
10
648.952309
20
87.000000
70
0
0
VERTEX
8
Layer 1
10
633.779185
20
87.000000
70
0
0
VERTEX
8
Layer 1
10
633.779185
20
87.000000
70
0
0
SEQEND
8
Layer 1
0
POLYLINE
8
Layer 1
62
7
70
1
10
0.000000
20
0.000000
66
1
0
VERTEX
8
Layer 1
10
881.973666
20
87.000000
70
0
0
VERTEX
8
Layer 1
10
889.560227
20
100.140311
70
0
0
VERTEX
8
Layer 1
10
897.146789
20
87.000000
70
0
0
VERTEX
8
Layer 1
10
881.973666
20
87.000000
70
0
0
VERTEX
8
Layer 1
10
881.973666
20
87.000000
70
0
0
SEQEND
8
Layer 1
0
POLYLINE
8
Layer 1
62
7
70
1
10
0.000000
20
0.000000
66
1
0
VERTEX
8
Layer 1
10
173.000000
20
154.800000
70
0
0
VERTEX
8
Layer 1
10
180.799971
20
154.800000
70
0
0
VERTEX
8
Layer 1
10
173.000000
20
141.290055
70
0
0
VERTEX
8
Layer 1
10
173.000000
20
154.800000
70
0
0
VERTEX
8
Layer 1
10
173.000000
20
154.800000
70
0
0
SEQEND
8
Layer 1
0
POLYLINE
8
Layer 1
62
7
70
1
10
0.000000
20
0.000000
66
1
0
VERTEX
8
Layer 1
10
1019.200030
20
154.800000
70
0
0
VERTEX
8
Layer 1
10
1027.000000
20
154.800000
70
0
0
VERTEX
8
Layer 1
10
1027.000000
20
141.290055
70
0
0
VERTEX
8
Layer 1
10
1019.200030
20
154.800000
70
0
0
VERTEX
8
Layer 1
10
1019.200030
20
154.800000
70
0
0
SEQEND
8
Layer 1
0
POLYLINE
8
Layer 1
62
7
70
1
10
0.000000
20
0.000000
66
1
0
VERTEX
8
Layer 1
10
173.000000
20
87.000000
70
0
0
VERTEX
8
Layer 1
10
173.000000
20
99.367731
70
0
0
VERTEX
8
Layer 1
10
180.140513
20
87.000000
70
0
0
VERTEX
8
Layer 1
10
173.000000
20
87.000000
70
0
0
VERTEX
8
Layer 1
10
173.000000
20
87.000000
70
0
0
SEQEND
8
Layer 1
0
POLYLINE
8
Layer 1
62
7
70
1
10
0.000000
20
0.000000
66
1
0
VERTEX
8
Layer 1
10
909.550830
20
87.000000
70
0
0
VERTEX
8
Layer 1
10
917.137392
20
100.140311
70
0
0
VERTEX
8
Layer 1
10
924.723954
20
87.000000
70
0
0
VERTEX
8
Layer 1
10
909.550830
20
87.000000
70
0
0
VERTEX
8
Layer 1
10
909.550830
20
87.000000
70
0
0
SEQEND
8
Layer 1
0
POLYLINE
8
Layer 1
62
7
70
1
10
0.000000
20
0.000000
66
1
0
VERTEX
8
Layer 1
10
1027.000000
20
182.377164
70
0
0
VERTEX
8
Layer 1
10
1027.000000
20
161.200000
70
0
0
VERTEX
8
Layer 1
10
1016.857467
20
161.200000
70
0
0
VERTEX
8
Layer 1
10
1016.857467
20
182.377164
70
0
0
VERTEX
8
Layer 1
10
1027.000000
20
182.377164
70
0
0
VERTEX
8
Layer 1
10
1027.000000
20
182.377164
70
0
0
SEQEND
8
Layer 1
0
POLYLINE
8
Layer 1
62
7
70
1
10
0.000000
20
0.000000
66
1
0
VERTEX
8
Layer 1
10
247.698883
20
87.000000
70
0
0
VERTEX
8
Layer 1
10
255.285445
20
100.140311
70
0
0
VERTEX
8
Layer 1
10
262.872006
20
87.000000
70
0
0
VERTEX
8
Layer 1
10
247.698883
20
87.000000
70
0
0
VERTEX
8
Layer 1
10
247.698883
20
87.000000
70
0
0
SEQEND
8
Layer 1
0
POLYLINE
8
Layer 1
62
7
70
1
10
0.000000
20
0.000000
66
1
0
VERTEX
8
Layer 1
10
330.430376
20
87.000000
70
0
0
VERTEX
8
Layer 1
10
338.016938
20
100.140311
70
0
0
VERTEX
8
Layer 1
10
345.603500
20
87.000000
70
0
0
VERTEX
8
Layer 1
10
330.430376
20
87.000000
70
0
0
VERTEX
8
Layer 1
10
330.430376
20
87.000000
70
0
0
SEQEND
8
Layer 1
0
POLYLINE
8
Layer 1
62
7
70
1
10
0.000000
20
0.000000
66
1
0
VERTEX
8
Layer 1
10
523.470527
20
87.000000
70
0
0
VERTEX
8
Layer 1
10
531.057089
20
100.140311
70
0
0
VERTEX
8
Layer 1
10
538.643651
20
87.000000
70
0
0
VERTEX
8
Layer 1
10
523.470527
20
87.000000
70
0
0
VERTEX
8
Layer 1
10
523.470527
20
87.000000
70
0
0
SEQEND
8
Layer 1
0
POLYLINE
8
Layer 1
62
7
70
1
10
0.000000
20
0.000000
66
1
0
VERTEX
8
Layer 1
10
771.665008
20
87.000000
70
0
0
VERTEX
8
Layer 1
10
779.251570
20
100.140311
70
0
0
VERTEX
8
Layer 1
10
786.838131
20
87.000000
70
0
0
VERTEX
8
Layer 1
10
771.665008
20
87.000000
70
0
0
VERTEX
8
Layer 1
10
771.665008
20
87.000000
70
0
0
SEQEND
8
Layer 1
0
POLYLINE
8
Layer 1
62
7
70
1
10
0.000000
20
0.000000
66
1
0
VERTEX
8
Layer 1
10
1019.200030
20
188.777164
70
0
0
VERTEX
8
Layer 1
10
1027.000000
20
202.287110
70
0
0
VERTEX
8
Layer 1
10
1027.000000
20
188.777164
70
0
0
VERTEX
8
Layer 1
10
1019.200030
20
188.777164
70
0
0
VERTEX
8
Layer 1
10
1019.200030
20
188.777164
70
0
0
SEQEND
8
Layer 1
0
POLYLINE
8
Layer 1
62
7
70
1
10
0.000000
20
0.000000
66
1
0
VERTEX
8
Layer 1
10
468.316199
20
87.000000
70
0
0
VERTEX
8
Layer 1
10
475.902760
20
100.140311
70
0
0
VERTEX
8
Layer 1
10
483.489322
20
87.000000
70
0
0
VERTEX
8
Layer 1
10
468.316199
20
87.000000
70
0
0
VERTEX
8
Layer 1
10
468.316199
20
87.000000
70
0
0
SEQEND
8
Layer 1
0
POLYLINE
8
Layer 1
62
7
70
1
10
0.000000
20
0.000000
66
1
0
VERTEX
8
Layer 1
10
716.510679
20
87.000000
70
0
0
VERTEX
8
Layer 1
10
724.097241
20
100.140311
70
0
0
VERTEX
8
Layer 1
10
731.683802
20
87.000000
70
0
0
VERTEX
8
Layer 1
10
716.510679
20
87.000000
70
0
0
VERTEX
8
Layer 1
10
716.510679
20
87.000000
70
0
0
SEQEND
8
Layer 1
0
POLYLINE
8
Layer 1
62
7
70
1
10
0.000000
20
0.000000
66
1
0
VERTEX
8
Layer 1
10
606.202021
20
87.000000
70
0
0
VERTEX
8
Layer 1
10
613.788583
20
100.140311
70
0
0
VERTEX
8
Layer 1
10
621.375145
20
87.000000
70
0
0
VERTEX
8
Layer 1
10
606.202021
20
87.000000
70
0
0
VERTEX
8
Layer 1
10
606.202021
20
87.000000
70
0
0
SEQEND
8
Layer 1
0
POLYLINE
8
Layer 1
62
7
70
1
10
0.000000
20
0.000000
66
1
0
VERTEX
8
Layer 1
10
854.396501
20
87.000000
70
0
0
VERTEX
8
Layer 1
10
861.983063
20
100.140311
70
0
0
VERTEX
8
Layer 1
10
869.569625
20
87.000000
70
0
0
VERTEX
8
Layer 1
10
854.396501
20
87.000000
70
0
0
VERTEX
8
Layer 1
10
854.396501
20
87.000000
70
0
0
SEQEND
8
Layer 1
0
POLYLINE
8
Layer 1
62
7
70
1
10
0.000000
20
0.000000
66
1
0
VERTEX
8
Layer 1
10
413.161870
20
87.000000
70
0
0
VERTEX
8
Layer 1
10
420.748431
20
100.140311
70
0
0
VERTEX
8
Layer 1
10
428.334993
20
87.000000
70
0
0
VERTEX
8
Layer 1
10
413.161870
20
87.000000
70
0
0
VERTEX
8
Layer 1
10
413.161870
20
87.000000
70
0
0
SEQEND
8
Layer 1
0
POLYLINE
8
Layer 1
62
7
70
1
10
0.000000
20
0.000000
66
1
0
VERTEX
8
Layer 1
10
992.282323
20
87.000000
70
0
0
VERTEX
8
Layer 1
10
999.868885
20
100.140311
70
0
0
VERTEX
8
Layer 1
10
1007.455447
20
87.000000
70
0
0
VERTEX
8
Layer 1
10
992.282323
20
87.000000
70
0
0
VERTEX
8
Layer 1
10
992.282323
20
87.000000
70
0
0
SEQEND
8
Layer 1
0
POLYLINE
8
Layer 1
62
7
70
1
10
0.000000
20
0.000000
66
1
0
VERTEX
8
Layer 1
10
661.356350
20
87.000000
70
0
0
VERTEX
8
Layer 1
10
668.942912
20
100.140311
70
0
0
VERTEX
8
Layer 1
10
676.529473
20
87.000000
70
0
0
VERTEX
8
Layer 1
10
661.356350
20
87.000000
70
0
0
VERTEX
8
Layer 1
10
661.356350
20
87.000000
70
0
0
SEQEND
8
Layer 1
0
POLYLINE
8
Layer 1
62
7
70
1
10
0.000000
20
0.000000
66
1
0
VERTEX
8
Layer 1
10
964.705159
20
87.000000
70
0
0
VERTEX
8
Layer 1
10
972.291721
20
100.140311
70
0
0
VERTEX
8
Layer 1
10
979.878283
20
87.000000
70
0
0
VERTEX
8
Layer 1
10
964.705159
20
87.000000
70
0
0
VERTEX
8
Layer 1
10
964.705159
20
87.000000
70
0
0
SEQEND
8
Layer 1
0
POLYLINE
8
Layer 1
62
7
70
1
10
0.000000
20
0.000000
66
1
0
VERTEX
8
Layer 1
10
147.000000
20
61.000000
70
0
0
VERTEX
8
Layer 1
10
1053.000000
20
61.000000
70
0
0
VERTEX
8
Layer 1
10
1053.000000
20
239.000000
70
0
0
VERTEX
8
Layer 1
10
147.000000
20
239.000000
70
0
0
VERTEX
8
Layer 1
10
147.000000
20
61.000000
70
0
0
VERTEX
8
Layer 1
10
147.000000
20
61.000000
70
0
0
SEQEND
8
Layer 1
 0 
ENDSEC
 0 
EOF