<?xml version="1.0" encoding="UTF-8" standalone="no"?>
<svg
   height="300mm"
   version="1.1"
   viewBox="0 0 1200 300"
   width="1200mm"
   id="svg253"
   sodipodi:docname="tabica_2.1.svg"
   inkscape:version="1.4.2 (2aeb623e1d, 2025-05-12)"
   xmlns:inkscape="http://www.inkscape.org/namespaces/inkscape"
   xmlns:sodipodi="http://sodipodi.sourceforge.net/DTD/sodipodi-0.dtd"
   xmlns="http://www.w3.org/2000/svg"
   xmlns:svg="http://www.w3.org/2000/svg">
  <sodipodi:namedview
     id="namedview253"
     pagecolor="#ffffff"
     bordercolor="#666666"
     borderopacity="1.0"
     inkscape:showpageshadow="2"
     inkscape:pageopacity="0.0"
     inkscape:pagecheckerboard="0"
     inkscape:deskcolor="#d1d1d1"
     inkscape:document-units="mm"
     showgrid="false"
     inkscape:zoom="0.26480382"
     inkscape:cx="2316.8095"
     inkscape:cy="309.66321"
     inkscape:window-width="1920"
     inkscape:window-height="1011"
     inkscape:window-x="0"
     inkscape:window-y="0"
     inkscape:window-maximized="1"
     inkscape:current-layer="svg253" />
  <defs
     id="defs1" />
  <g
     fill="none"
     stroke="blue"
     stroke-width="0.5"
     transform="translate(-20.486200491195575,61.0)"
     id="g253"
     style="vector-effect:non-scaling-stroke;-inkscape-stroke:hairline;stroke-width:0.26458333;stroke-dasharray:none">
    <path
       d="M 206.82873349706514,149.9422144505473 L 198.5827138481479,135.65968945841135 L 215.07475314598238,135.65968945841135 L 206.82873349706514,149.9422144505473 Z"
       id="path1"
       style="vector-effect:non-scaling-stroke;-inkscape-stroke:hairline;stroke-width:0.26458333;stroke-dasharray:none" />
    <path
       d="M 234.4058979633405,149.9422144505473 L 226.15987831442325,135.65968945841135 L 242.65191761225773,135.65968945841135 L 234.4058979633405,149.9422144505473 Z"
       id="path2"
       style="vector-effect:non-scaling-stroke;-inkscape-stroke:hairline;stroke-width:0.26458333;stroke-dasharray:none" />
    <path
       d="M 261.98306242961587,149.94221445054734 L 253.7370427806986,135.65968945841135 L 270.2290820785331,135.65968945841135 L 261.98306242961587,149.94221445054734 Z"
       id="path3"
       style="vector-effect:non-scaling-stroke;-inkscape-stroke:hairline;stroke-width:0.26458333;stroke-dasharray:none" />
    <path
       d="M 289.5602268958912,149.94221445054737 L 281.3142072469739,135.65968945841135 L 297.8062465448085,135.65968945841135 L 289.5602268958912,149.94221445054737 Z"
       id="path4"
       style="vector-effect:non-scaling-stroke;-inkscape-stroke:hairline;stroke-width:0.26458333;stroke-dasharray:none" />
    <path
       d="M 317.13739136216657,149.94221445054737 L 308.89137171324927,135.65968945841135 L 325.38341101108387,135.65968945841135 L 317.13739136216657,149.94221445054737 Z"
       id="path5"
       style="vector-effect:non-scaling-stroke;-inkscape-stroke:hairline;stroke-width:0.26458333;stroke-dasharray:none" />
    <path
       d="M 344.7145558284419,149.94221445054737 L 336.4685361795246,135.65968945841135 L 352.9605754773592,135.65968945841135 L 344.7145558284419,149.94221445054737 Z"
       id="path6"
       style="vector-effect:non-scaling-stroke;-inkscape-stroke:hairline;stroke-width:0.26458333;stroke-dasharray:none" />
    <path
       d="M 372.29172029471727,149.94221445054737 L 364.04570064579997,135.65968945841135 L 380.53773994363456,135.65968945841135 L 372.29172029471727,149.94221445054737 Z"
       id="path7"
       style="vector-effect:non-scaling-stroke;-inkscape-stroke:hairline;stroke-width:0.26458333;stroke-dasharray:none" />
    <path
       d="M 399.8688847609926,149.94221445054737 L 391.6228651120753,135.65968945841135 L 408.1149044099099,135.65968945841135 L 399.8688847609926,149.94221445054737 Z"
       id="path8"
       style="vector-effect:non-scaling-stroke;-inkscape-stroke:hairline;stroke-width:0.26458333;stroke-dasharray:none" />
    <path
       d="M 427.44604922726796,149.94221445054737 L 419.20002957835067,135.65968945841135 L 435.69206887618526,135.65968945841135 L 427.44604922726796,149.94221445054737 Z"
       id="path9"
       style="vector-effect:non-scaling-stroke;-inkscape-stroke:hairline;stroke-width:0.26458333;stroke-dasharray:none" />
    <path
       d="M 455.0232136935433,149.94221445054737 L 446.777194044626,135.65968945841135 L 463.2692333424606,135.65968945841135 L 455.0232136935433,149.94221445054737 Z"
       id="path10"
       style="vector-effect:non-scaling-stroke;-inkscape-stroke:hairline;stroke-width:0.26458333;stroke-dasharray:none" />
    <path
       d="M 482.60037815981866,149.94221445054737 L 474.35435851090136,135.65968945841135 L 490.84639780873596,135.65968945841135 L 482.60037815981866,149.94221445054737 Z"
       id="path11"
       style="vector-effect:non-scaling-stroke;-inkscape-stroke:hairline;stroke-width:0.26458333;stroke-dasharray:none" />
    <path
       d="M 510.177542626094,149.94221445054737 L 501.9315229771767,135.65968945841135 L 518.4235622750114,135.65968945841135 L 510.177542626094,149.94221445054737 Z"
       id="path12"
       style="vector-effect:non-scaling-stroke;-inkscape-stroke:hairline;stroke-width:0.26458333;stroke-dasharray:none" />
    <path
       d="M 537.7547070923694,149.94221445054734 L 529.5086874434521,135.65968945841135 L 546.0007267412866,135.65968945841135 L 537.7547070923694,149.94221445054734 Z"
       id="path13"
       style="vector-effect:non-scaling-stroke;-inkscape-stroke:hairline;stroke-width:0.26458333;stroke-dasharray:none" />
    <path
       d="M 565.3318715586447,149.94221445054737 L 557.0858519097275,135.65968945841135 L 573.5778912075621,135.65968945841135 L 565.3318715586447,149.94221445054737 Z"
       id="path14"
       style="vector-effect:non-scaling-stroke;-inkscape-stroke:hairline;stroke-width:0.26458333;stroke-dasharray:none" />
    <path
       d="M 592.9090360249202,149.94221445054737 L 584.6630163760028,135.65968945841135 L 601.1550556738374,135.65968945841135 L 592.9090360249202,149.94221445054737 Z"
       id="path15"
       style="vector-effect:non-scaling-stroke;-inkscape-stroke:hairline;stroke-width:0.26458333;stroke-dasharray:none" />
    <path
       d="M 620.4862004911954,149.94221445054737 L 612.2401808422782,135.65968945841135 L 628.7322201401128,135.65968945841135 L 620.4862004911954,149.94221445054737 Z"
       id="path16"
       style="vector-effect:non-scaling-stroke;-inkscape-stroke:hairline;stroke-width:0.26458333;stroke-dasharray:none" />
    <path
       d="M 648.0633649574709,149.94221445054737 L 639.8173453085535,135.65968945841135 L 656.3093846063881,135.65968945841135 L 648.0633649574709,149.94221445054737 Z"
       id="path17"
       style="vector-effect:non-scaling-stroke;-inkscape-stroke:hairline;stroke-width:0.26458333;stroke-dasharray:none" />
    <path
       d="M 675.6405294237461,149.94221445054737 L 667.3945097748289,135.65968945841135 L 683.8865490726635,135.65968945841135 L 675.6405294237461,149.94221445054737 Z"
       id="path18"
       style="vector-effect:non-scaling-stroke;-inkscape-stroke:hairline;stroke-width:0.26458333;stroke-dasharray:none" />
    <path
       d="M 703.2176938900216,149.94221445054737 L 694.9716742411042,135.65968945841135 L 711.4637135389388,135.65968945841135 L 703.2176938900216,149.94221445054737 Z"
       id="path19"
       style="vector-effect:non-scaling-stroke;-inkscape-stroke:hairline;stroke-width:0.26458333;stroke-dasharray:none" />
    <path
       d="M 730.7948583562968,149.94221445054737 L 722.5488387073796,135.65968945841135 L 739.0408780052142,135.65968945841135 L 730.7948583562968,149.94221445054737 Z"
       id="path20"
       style="vector-effect:non-scaling-stroke;-inkscape-stroke:hairline;stroke-width:0.26458333;stroke-dasharray:none" />
    <path
       d="M 758.3720228225723,149.94221445054737 L 750.1260031736549,135.65968945841135 L 766.6180424714895,135.65968945841135 L 758.3720228225723,149.94221445054737 Z"
       id="path21"
       style="vector-effect:non-scaling-stroke;-inkscape-stroke:hairline;stroke-width:0.26458333;stroke-dasharray:none" />
    <path
       d="M 785.9491872888475,149.94221445054737 L 777.7031676399303,135.65968945841135 L 794.1952069377649,135.65968945841135 L 785.9491872888475,149.94221445054737 Z"
       id="path22"
       style="vector-effect:non-scaling-stroke;-inkscape-stroke:hairline;stroke-width:0.26458333;stroke-dasharray:none" />
    <path
       d="M 813.526351755123,149.94221445054737 L 805.2803321062056,135.65968945841135 L 821.7723714040402,135.65968945841135 L 813.526351755123,149.94221445054737 Z"
       id="path23"
       style="vector-effect:non-scaling-stroke;-inkscape-stroke:hairline;stroke-width:0.26458333;stroke-dasharray:none" />
    <path
       d="M 841.1035162213982,149.94221445054737 L 832.857496572481,135.65968945841135 L 849.3495358703155,135.65968945841135 L 841.1035162213982,149.94221445054737 Z"
       id="path24"
       style="vector-effect:non-scaling-stroke;-inkscape-stroke:hairline;stroke-width:0.26458333;stroke-dasharray:none" />
    <path
       d="M 868.6806806876737,149.94221445054737 L 860.4346610387563,135.65968945841135 L 876.9267003365909,135.65968945841135 L 868.6806806876737,149.94221445054737 Z"
       id="path25"
       style="vector-effect:non-scaling-stroke;-inkscape-stroke:hairline;stroke-width:0.26458333;stroke-dasharray:none" />
    <path
       d="M 896.2578451539489,149.94221445054737 L 888.0118255050317,135.65968945841135 L 904.5038648028662,135.65968945841135 L 896.2578451539489,149.94221445054737 Z"
       id="path26"
       style="vector-effect:non-scaling-stroke;-inkscape-stroke:hairline;stroke-width:0.26458333;stroke-dasharray:none" />
    <path
       d="M 923.8350096202244,149.94221445054737 L 915.588989971307,135.65968945841135 L 932.0810292691416,135.65968945841135 L 923.8350096202244,149.94221445054737 Z"
       id="path27"
       style="vector-effect:non-scaling-stroke;-inkscape-stroke:hairline;stroke-width:0.26458333;stroke-dasharray:none" />
    <path
       d="M 951.4121740864996,149.94221445054737 L 943.1661544375823,135.65968945841135 L 959.658193735417,135.65968945841135 L 951.4121740864996,149.94221445054737 Z"
       id="path28"
       style="vector-effect:non-scaling-stroke;-inkscape-stroke:hairline;stroke-width:0.26458333;stroke-dasharray:none" />
    <path
       d="M 978.989338552775,149.94221445054737 L 970.7433189038577,135.65968945841135 L 987.2353582016923,135.65968945841135 L 978.989338552775,149.94221445054737 Z"
       id="path29"
       style="vector-effect:non-scaling-stroke;-inkscape-stroke:hairline;stroke-width:0.26458333;stroke-dasharray:none" />
    <path
       d="M 1006.5665030190503,149.94221445054737 L 998.320483370133,135.65968945841135 L 1014.8125226679676,135.65968945841135 L 1006.5665030190503,149.94221445054737 Z"
       id="path30"
       style="vector-effect:non-scaling-stroke;-inkscape-stroke:hairline;stroke-width:0.26458333;stroke-dasharray:none" />
    <path
       d="M 1034.1436674853258,149.94221445054737 L 1025.8976478364084,135.65968945841135 L 1042.389687134243,135.65968945841135 L 1034.1436674853258,149.94221445054737 Z"
       id="path31"
       style="vector-effect:non-scaling-stroke;-inkscape-stroke:hairline;stroke-width:0.26458333;stroke-dasharray:none" />
    <path
       d="M 217.41731573020283,108.082524992136 L 217.41731573020283,129.25968945841134 L 196.24015126392746,129.25968945841134 L 196.24015126392746,108.082524992136 L 217.41731573020283,108.082524992136 Z"
       id="path32"
       style="vector-effect:non-scaling-stroke;-inkscape-stroke:hairline;stroke-width:0.26458333;stroke-dasharray:none" />
    <path
       d="M 206.82873349706514,87.40000000000002 L 215.07475314598238,101.682524992136 L 198.5827138481479,101.68252499213598 L 206.82873349706514,87.40000000000002 Z"
       id="path33"
       style="vector-effect:non-scaling-stroke;-inkscape-stroke:hairline;stroke-width:0.26458333;stroke-dasharray:none" />
    <path
       d="M 220.61731573020282,98.48252499213596 L 212.37129608128555,84.2 L 228.8633353791201,84.2 L 220.61731573020282,98.48252499213596 Z"
       id="path34"
       style="vector-effect:non-scaling-stroke;-inkscape-stroke:hairline;stroke-width:0.26458333;stroke-dasharray:none" />
    <path
       d="M 244.99448019647818,108.082524992136 L 244.99448019647818,129.25968945841134 L 223.8173157302028,129.25968945841134 L 223.8173157302028,108.082524992136 L 244.99448019647818,108.082524992136 Z"
       id="path35"
       style="vector-effect:non-scaling-stroke;-inkscape-stroke:hairline;stroke-width:0.26458333;stroke-dasharray:none" />
    <path
       d="M 272.57164466275356,108.082524992136 L 272.57164466275356,129.25968945841134 L 251.39448019647816,129.25968945841134 L 251.39448019647816,108.082524992136 L 272.57164466275356,108.082524992136 Z"
       id="path36"
       style="vector-effect:non-scaling-stroke;-inkscape-stroke:hairline;stroke-width:0.26458333;stroke-dasharray:none" />
    <path
       d="M 234.4058979633405,87.40000000000002 L 242.65191761225773,101.682524992136 L 226.15987831442325,101.68252499213598 L 234.4058979633405,87.40000000000002 Z"
       id="path37"
       style="vector-effect:non-scaling-stroke;-inkscape-stroke:hairline;stroke-width:0.26458333;stroke-dasharray:none" />
    <path
       d="M 248.19448019647817,98.48252499213599 L 239.9484605475609,84.2 L 256.4404998453955,84.2 L 248.19448019647817,98.48252499213599 Z"
       id="path38"
       style="vector-effect:non-scaling-stroke;-inkscape-stroke:hairline;stroke-width:0.26458333;stroke-dasharray:none" />
    <path
       d="M 261.98306242961587,87.39999999999998 L 270.22908207853317,101.682524992136 L 253.73704278069857,101.68252499213598 L 261.98306242961587,87.39999999999998 Z"
       id="path39"
       style="vector-effect:non-scaling-stroke;-inkscape-stroke:hairline;stroke-width:0.26458333;stroke-dasharray:none" />
    <path
       d="M 275.77164466275354,98.482524992136 L 267.52562501383625,84.2 L 284.0176643116708,84.2 L 275.77164466275354,98.482524992136 Z"
       id="path40"
       style="vector-effect:non-scaling-stroke;-inkscape-stroke:hairline;stroke-width:0.26458333;stroke-dasharray:none" />
    <path
       d="M 300.1488091290289,108.082524992136 L 300.1488091290289,129.25968945841134 L 278.97164466275353,129.25968945841134 L 278.97164466275353,108.082524992136 L 300.1488091290289,108.082524992136 Z"
       id="path41"
       style="vector-effect:non-scaling-stroke;-inkscape-stroke:hairline;stroke-width:0.26458333;stroke-dasharray:none" />
    <path
       d="M 327.72597359530425,108.082524992136 L 327.72597359530425,129.25968945841134 L 306.5488091290289,129.25968945841134 L 306.5488091290289,108.082524992136 L 327.72597359530425,108.082524992136 Z"
       id="path42"
       style="vector-effect:non-scaling-stroke;-inkscape-stroke:hairline;stroke-width:0.26458333;stroke-dasharray:none" />
    <path
       d="M 289.5602268958912,87.39999999999998 L 297.8062465448085,101.682524992136 L 281.3142072469739,101.68252499213598 L 289.5602268958912,87.39999999999998 Z"
       id="path43"
       style="vector-effect:non-scaling-stroke;-inkscape-stroke:hairline;stroke-width:0.26458333;stroke-dasharray:none" />
    <path
       d="M 303.3488091290289,98.48252499213602 L 295.1027894801116,84.2 L 311.5948287779462,84.2 L 303.3488091290289,98.48252499213602 Z"
       id="path44"
       style="vector-effect:non-scaling-stroke;-inkscape-stroke:hairline;stroke-width:0.26458333;stroke-dasharray:none" />
    <path
       d="M 317.13739136216657,87.39999999999998 L 325.38341101108387,101.682524992136 L 308.89137171324927,101.68252499213598 L 317.13739136216657,87.39999999999998 Z"
       id="path45"
       style="vector-effect:non-scaling-stroke;-inkscape-stroke:hairline;stroke-width:0.26458333;stroke-dasharray:none" />
    <path
       d="M 330.92597359530424,98.48252499213602 L 322.67995394638695,84.2 L 339.17199324422154,84.2 L 330.92597359530424,98.48252499213602 Z"
       id="path46"
       style="vector-effect:non-scaling-stroke;-inkscape-stroke:hairline;stroke-width:0.26458333;stroke-dasharray:none" />
    <path
       d="M 355.3031380615796,108.082524992136 L 355.3031380615796,129.25968945841134 L 334.12597359530423,129.25968945841134 L 334.12597359530423,108.082524992136 L 355.3031380615796,108.082524992136 Z"
       id="path47"
       style="vector-effect:non-scaling-stroke;-inkscape-stroke:hairline;stroke-width:0.26458333;stroke-dasharray:none" />
    <path
       d="M 382.88030252785495,108.082524992136 L 382.88030252785495,129.25968945841134 L 361.7031380615796,129.25968945841134 L 361.7031380615796,108.082524992136 L 382.88030252785495,108.082524992136 Z"
       id="path48"
       style="vector-effect:non-scaling-stroke;-inkscape-stroke:hairline;stroke-width:0.26458333;stroke-dasharray:none" />
    <path
       d="M 344.7145558284419,87.39999999999998 L 352.9605754773592,101.682524992136 L 336.4685361795246,101.68252499213598 L 344.7145558284419,87.39999999999998 Z"
       id="path49"
       style="vector-effect:non-scaling-stroke;-inkscape-stroke:hairline;stroke-width:0.26458333;stroke-dasharray:none" />
    <path
       d="M 358.5031380615796,98.48252499213602 L 350.2571184126623,84.2 L 366.7491577104969,84.2 L 358.5031380615796,98.48252499213602 Z"
       id="path50"
       style="vector-effect:non-scaling-stroke;-inkscape-stroke:hairline;stroke-width:0.26458333;stroke-dasharray:none" />
    <path
       d="M 372.29172029471727,87.39999999999998 L 380.53773994363456,101.682524992136 L 364.04570064579997,101.68252499213598 L 372.29172029471727,87.39999999999998 Z"
       id="path51"
       style="vector-effect:non-scaling-stroke;-inkscape-stroke:hairline;stroke-width:0.26458333;stroke-dasharray:none" />
    <path
       d="M 386.08030252785494,98.48252499213602 L 377.83428287893764,84.2 L 394.32632217677224,84.2 L 386.08030252785494,98.48252499213602 Z"
       id="path52"
       style="vector-effect:non-scaling-stroke;-inkscape-stroke:hairline;stroke-width:0.26458333;stroke-dasharray:none" />
    <path
       d="M 410.4574669941303,108.082524992136 L 410.4574669941303,129.25968945841134 L 389.28030252785493,129.25968945841134 L 389.28030252785493,108.082524992136 L 410.4574669941303,108.082524992136 Z"
       id="path53"
       style="vector-effect:non-scaling-stroke;-inkscape-stroke:hairline;stroke-width:0.26458333;stroke-dasharray:none" />
    <path
       d="M 438.03463146040565,108.082524992136 L 438.03463146040565,129.25968945841134 L 416.8574669941303,129.25968945841134 L 416.8574669941303,108.082524992136 L 438.03463146040565,108.082524992136 Z"
       id="path54"
       style="vector-effect:non-scaling-stroke;-inkscape-stroke:hairline;stroke-width:0.26458333;stroke-dasharray:none" />
    <path
       d="M 399.8688847609926,87.39999999999998 L 408.1149044099099,101.682524992136 L 391.6228651120753,101.68252499213598 L 399.8688847609926,87.39999999999998 Z"
       id="path55"
       style="vector-effect:non-scaling-stroke;-inkscape-stroke:hairline;stroke-width:0.26458333;stroke-dasharray:none" />
    <path
       d="M 413.6574669941303,98.48252499213602 L 405.411447345213,84.2 L 421.9034866430476,84.2 L 413.6574669941303,98.48252499213602 Z"
       id="path56"
       style="vector-effect:non-scaling-stroke;-inkscape-stroke:hairline;stroke-width:0.26458333;stroke-dasharray:none" />
    <path
       d="M 427.44604922726796,87.39999999999998 L 435.69206887618526,101.682524992136 L 419.20002957835067,101.68252499213598 L 427.44604922726796,87.39999999999998 Z"
       id="path57"
       style="vector-effect:non-scaling-stroke;-inkscape-stroke:hairline;stroke-width:0.26458333;stroke-dasharray:none" />
    <path
       d="M 441.23463146040564,98.48252499213602 L 432.98861181148834,84.2 L 449.48065110932293,84.2 L 441.23463146040564,98.48252499213602 Z"
       id="path58"
       style="vector-effect:non-scaling-stroke;-inkscape-stroke:hairline;stroke-width:0.26458333;stroke-dasharray:none" />
    <path
       d="M 465.611795926681,108.082524992136 L 465.611795926681,129.25968945841134 L 444.4346314604056,129.25968945841134 L 444.4346314604056,108.082524992136 L 465.611795926681,108.082524992136 Z"
       id="path59"
       style="vector-effect:non-scaling-stroke;-inkscape-stroke:hairline;stroke-width:0.26458333;stroke-dasharray:none" />
    <path
       d="M 493.18896039295635,108.082524992136 L 493.18896039295635,129.25968945841134 L 472.011795926681,129.25968945841134 L 472.011795926681,108.082524992136 L 493.18896039295635,108.082524992136 Z"
       id="path60"
       style="vector-effect:non-scaling-stroke;-inkscape-stroke:hairline;stroke-width:0.26458333;stroke-dasharray:none" />
    <path
       d="M 455.0232136935433,87.39999999999998 L 463.2692333424606,101.682524992136 L 446.777194044626,101.68252499213598 L 455.0232136935433,87.39999999999998 Z"
       id="path61"
       style="vector-effect:non-scaling-stroke;-inkscape-stroke:hairline;stroke-width:0.26458333;stroke-dasharray:none" />
    <path
       d="M 468.811795926681,98.48252499213602 L 460.5657762777637,84.2 L 477.0578155755983,84.2 L 468.811795926681,98.48252499213602 Z"
       id="path62"
       style="vector-effect:non-scaling-stroke;-inkscape-stroke:hairline;stroke-width:0.26458333;stroke-dasharray:none" />
    <path
       d="M 482.60037815981866,87.39999999999998 L 490.84639780873596,101.682524992136 L 474.35435851090136,101.68252499213598 L 482.60037815981866,87.39999999999998 Z"
       id="path63"
       style="vector-effect:non-scaling-stroke;-inkscape-stroke:hairline;stroke-width:0.26458333;stroke-dasharray:none" />
    <path
       d="M 496.38896039295633,98.48252499213602 L 488.14294074403904,84.2 L 504.63498004187363,84.2 L 496.38896039295633,98.48252499213602 Z"
       id="path64"
       style="vector-effect:non-scaling-stroke;-inkscape-stroke:hairline;stroke-width:0.26458333;stroke-dasharray:none" />
    <path
       d="M 520.7661248592317,108.082524992136 L 520.7661248592317,129.25968945841134 L 499.5889603929563,129.25968945841134 L 499.5889603929563,108.082524992136 L 520.7661248592317,108.082524992136 Z"
       id="path65"
       style="vector-effect:non-scaling-stroke;-inkscape-stroke:hairline;stroke-width:0.26458333;stroke-dasharray:none" />
    <path
       d="M 548.343289325507,108.082524992136 L 548.343289325507,129.25968945841134 L 527.1661248592318,129.25968945841134 L 527.1661248592318,108.082524992136 L 548.343289325507,108.082524992136 Z"
       id="path66"
       style="vector-effect:non-scaling-stroke;-inkscape-stroke:hairline;stroke-width:0.26458333;stroke-dasharray:none" />
    <path
       d="M 510.177542626094,87.39999999999996 L 518.4235622750114,101.682524992136 L 501.9315229771767,101.68252499213598 L 510.177542626094,87.39999999999996 Z"
       id="path67"
       style="vector-effect:non-scaling-stroke;-inkscape-stroke:hairline;stroke-width:0.26458333;stroke-dasharray:none" />
    <path
       d="M 523.9661248592317,98.48252499213602 L 515.7201052103144,84.2 L 532.2121445081491,84.2 L 523.9661248592317,98.48252499213602 Z"
       id="path68"
       style="vector-effect:non-scaling-stroke;-inkscape-stroke:hairline;stroke-width:0.26458333;stroke-dasharray:none" />
    <path
       d="M 537.7547070923695,87.39999999999998 L 546.0007267412867,101.682524992136 L 529.5086874434521,101.68252499213598 L 537.7547070923695,87.39999999999998 Z"
       id="path69"
       style="vector-effect:non-scaling-stroke;-inkscape-stroke:hairline;stroke-width:0.26458333;stroke-dasharray:none" />
    <path
       d="M 551.5432893255071,98.48252499213599 L 543.2972696765898,84.2 L 559.7893089744243,84.2 L 551.5432893255071,98.48252499213599 Z"
       id="path70"
       style="vector-effect:non-scaling-stroke;-inkscape-stroke:hairline;stroke-width:0.26458333;stroke-dasharray:none" />
    <path
       d="M 575.9204537917825,108.082524992136 L 575.9204537917824,129.25968945841134 L 554.7432893255071,129.25968945841134 L 554.7432893255071,108.082524992136 L 575.9204537917825,108.082524992136 Z"
       id="path71"
       style="vector-effect:non-scaling-stroke;-inkscape-stroke:hairline;stroke-width:0.26458333;stroke-dasharray:none" />
    <path
       d="M 603.4976182580579,108.082524992136 L 603.4976182580579,129.25968945841134 L 582.3204537917825,129.25968945841134 L 582.3204537917826,108.082524992136 L 603.4976182580579,108.082524992136 Z"
       id="path72"
       style="vector-effect:non-scaling-stroke;-inkscape-stroke:hairline;stroke-width:0.26458333;stroke-dasharray:none" />
    <path
       d="M 565.3318715586448,87.39999999999998 L 573.5778912075621,101.682524992136 L 557.0858519097275,101.68252499213598 L 565.3318715586448,87.39999999999998 Z"
       id="path73"
       style="vector-effect:non-scaling-stroke;-inkscape-stroke:hairline;stroke-width:0.26458333;stroke-dasharray:none" />
    <path
       d="M 579.1204537917824,98.482524992136 L 570.8744341428652,84.2 L 587.3664734406998,84.2 L 579.1204537917824,98.482524992136 Z"
       id="path74"
       style="vector-effect:non-scaling-stroke;-inkscape-stroke:hairline;stroke-width:0.26458333;stroke-dasharray:none" />
    <path
       d="M 592.9090360249202,87.39999999999996 L 601.1550556738375,101.682524992136 L 584.6630163760028,101.68252499213598 L 592.9090360249202,87.39999999999996 Z"
       id="path75"
       style="vector-effect:non-scaling-stroke;-inkscape-stroke:hairline;stroke-width:0.26458333;stroke-dasharray:none" />
    <path
       d="M 606.6976182580579,98.482524992136 L 598.4515986091405,84.2 L 614.9436379069751,84.2 L 606.6976182580579,98.482524992136 Z"
       id="path76"
       style="vector-effect:non-scaling-stroke;-inkscape-stroke:hairline;stroke-width:0.26458333;stroke-dasharray:none" />
    <path
       d="M 631.0747827243332,108.082524992136 L 631.0747827243331,129.25968945841134 L 609.8976182580578,129.25968945841134 L 609.8976182580578,108.082524992136 L 631.0747827243332,108.082524992136 Z"
       id="path77"
       style="vector-effect:non-scaling-stroke;-inkscape-stroke:hairline;stroke-width:0.26458333;stroke-dasharray:none" />
    <path
       d="M 658.6519471906086,108.082524992136 L 658.6519471906086,129.25968945841134 L 637.4747827243332,129.25968945841134 L 637.4747827243333,108.082524992136 L 658.6519471906086,108.082524992136 Z"
       id="path78"
       style="vector-effect:non-scaling-stroke;-inkscape-stroke:hairline;stroke-width:0.26458333;stroke-dasharray:none" />
    <path
       d="M 620.4862004911955,87.39999999999998 L 628.7322201401128,101.682524992136 L 612.2401808422782,101.68252499213598 L 620.4862004911955,87.39999999999998 Z"
       id="path79"
       style="vector-effect:non-scaling-stroke;-inkscape-stroke:hairline;stroke-width:0.26458333;stroke-dasharray:none" />
    <path
       d="M 634.2747827243331,98.482524992136 L 626.0287630754159,84.2 L 642.5208023732505,84.2 L 634.2747827243331,98.482524992136 Z"
       id="path80"
       style="vector-effect:non-scaling-stroke;-inkscape-stroke:hairline;stroke-width:0.26458333;stroke-dasharray:none" />
    <path
       d="M 648.0633649574709,87.39999999999996 L 656.3093846063882,101.682524992136 L 639.8173453085535,101.68252499213598 L 648.0633649574709,87.39999999999996 Z"
       id="path81"
       style="vector-effect:non-scaling-stroke;-inkscape-stroke:hairline;stroke-width:0.26458333;stroke-dasharray:none" />
    <path
       d="M 661.8519471906086,98.482524992136 L 653.6059275416912,84.2 L 670.0979668395258,84.2 L 661.8519471906086,98.482524992136 Z"
       id="path82"
       style="vector-effect:non-scaling-stroke;-inkscape-stroke:hairline;stroke-width:0.26458333;stroke-dasharray:none" />
    <path
       d="M 686.2291116568839,108.082524992136 L 686.2291116568838,129.25968945841134 L 665.0519471906085,129.25968945841134 L 665.0519471906085,108.082524992136 L 686.2291116568839,108.082524992136 Z"
       id="path83"
       style="vector-effect:non-scaling-stroke;-inkscape-stroke:hairline;stroke-width:0.26458333;stroke-dasharray:none" />
    <path
       d="M 713.8062761231593,108.082524992136 L 713.8062761231593,129.25968945841134 L 692.6291116568839,129.25968945841134 L 692.629111656884,108.082524992136 L 713.8062761231593,108.082524992136 Z"
       id="path84"
       style="vector-effect:non-scaling-stroke;-inkscape-stroke:hairline;stroke-width:0.26458333;stroke-dasharray:none" />
    <path
       d="M 675.6405294237462,87.39999999999998 L 683.8865490726635,101.682524992136 L 667.3945097748289,101.68252499213598 L 675.6405294237462,87.39999999999998 Z"
       id="path85"
       style="vector-effect:non-scaling-stroke;-inkscape-stroke:hairline;stroke-width:0.26458333;stroke-dasharray:none" />
    <path
       d="M 689.4291116568838,98.482524992136 L 681.1830920079666,84.2 L 697.6751313058012,84.2 L 689.4291116568838,98.482524992136 Z"
       id="path86"
       style="vector-effect:non-scaling-stroke;-inkscape-stroke:hairline;stroke-width:0.26458333;stroke-dasharray:none" />
    <path
       d="M 703.2176938900216,87.39999999999996 L 711.4637135389389,101.682524992136 L 694.9716742411042,101.68252499213598 L 703.2176938900216,87.39999999999996 Z"
       id="path87"
       style="vector-effect:non-scaling-stroke;-inkscape-stroke:hairline;stroke-width:0.26458333;stroke-dasharray:none" />
    <path
       d="M 717.0062761231593,98.482524992136 L 708.7602564742419,84.2 L 725.2522957720765,84.2 L 717.0062761231593,98.482524992136 Z"
       id="path88"
       style="vector-effect:non-scaling-stroke;-inkscape-stroke:hairline;stroke-width:0.26458333;stroke-dasharray:none" />
    <path
       d="M 741.3834405894346,108.082524992136 L 741.3834405894345,129.25968945841134 L 720.2062761231592,129.25968945841134 L 720.2062761231592,108.082524992136 L 741.3834405894346,108.082524992136 Z"
       id="path89"
       style="vector-effect:non-scaling-stroke;-inkscape-stroke:hairline;stroke-width:0.26458333;stroke-dasharray:none" />
    <path
       d="M 768.96060505571,108.082524992136 L 768.96060505571,129.25968945841134 L 747.7834405894346,129.25968945841134 L 747.7834405894347,108.082524992136 L 768.96060505571,108.082524992136 Z"
       id="path90"
       style="vector-effect:non-scaling-stroke;-inkscape-stroke:hairline;stroke-width:0.26458333;stroke-dasharray:none" />
    <path
       d="M 730.7948583562969,87.39999999999998 L 739.0408780052142,101.682524992136 L 722.5488387073796,101.68252499213598 L 730.7948583562969,87.39999999999998 Z"
       id="path91"
       style="vector-effect:non-scaling-stroke;-inkscape-stroke:hairline;stroke-width:0.26458333;stroke-dasharray:none" />
    <path
       d="M 744.5834405894345,98.482524992136 L 736.3374209405173,84.2 L 752.8294602383519,84.2 L 744.5834405894345,98.482524992136 Z"
       id="path92"
       style="vector-effect:non-scaling-stroke;-inkscape-stroke:hairline;stroke-width:0.26458333;stroke-dasharray:none" />
    <path
       d="M 758.3720228225723,87.39999999999996 L 766.6180424714896,101.682524992136 L 750.1260031736549,101.68252499213598 L 758.3720228225723,87.39999999999996 Z"
       id="path93"
       style="vector-effect:non-scaling-stroke;-inkscape-stroke:hairline;stroke-width:0.26458333;stroke-dasharray:none" />
    <path
       d="M 772.16060505571,98.482524992136 L 763.9145854067926,84.2 L 780.4066247046272,84.2 L 772.16060505571,98.482524992136 Z"
       id="path94"
       style="vector-effect:non-scaling-stroke;-inkscape-stroke:hairline;stroke-width:0.26458333;stroke-dasharray:none" />
    <path
       d="M 796.5377695219853,108.082524992136 L 796.5377695219852,129.25968945841134 L 775.3606050557099,129.25968945841134 L 775.3606050557099,108.082524992136 L 796.5377695219853,108.082524992136 Z"
       id="path95"
       style="vector-effect:non-scaling-stroke;-inkscape-stroke:hairline;stroke-width:0.26458333;stroke-dasharray:none" />
    <path
       d="M 824.1149339882606,108.082524992136 L 824.1149339882606,129.25968945841134 L 802.9377695219853,129.25968945841134 L 802.9377695219854,108.082524992136 L 824.1149339882606,108.082524992136 Z"
       id="path96"
       style="vector-effect:non-scaling-stroke;-inkscape-stroke:hairline;stroke-width:0.26458333;stroke-dasharray:none" />
    <path
       d="M 785.9491872888476,87.39999999999998 L 794.1952069377649,101.682524992136 L 777.7031676399303,101.68252499213598 L 785.9491872888476,87.39999999999998 Z"
       id="path97"
       style="vector-effect:non-scaling-stroke;-inkscape-stroke:hairline;stroke-width:0.26458333;stroke-dasharray:none" />
    <path
       d="M 799.7377695219852,98.482524992136 L 791.491749873068,84.2 L 807.9837891709026,84.2 L 799.7377695219852,98.482524992136 Z"
       id="path98"
       style="vector-effect:non-scaling-stroke;-inkscape-stroke:hairline;stroke-width:0.26458333;stroke-dasharray:none" />
    <path
       d="M 813.526351755123,87.39999999999996 L 821.7723714040403,101.682524992136 L 805.2803321062056,101.68252499213598 L 813.526351755123,87.39999999999996 Z"
       id="path99"
       style="vector-effect:non-scaling-stroke;-inkscape-stroke:hairline;stroke-width:0.26458333;stroke-dasharray:none" />
    <path
       d="M 827.3149339882607,98.482524992136 L 819.0689143393433,84.2 L 835.5609536371779,84.2 L 827.3149339882607,98.482524992136 Z"
       id="path100"
       style="vector-effect:non-scaling-stroke;-inkscape-stroke:hairline;stroke-width:0.26458333;stroke-dasharray:none" />
    <path
       d="M 851.692098454536,108.082524992136 L 851.6920984545359,129.25968945841134 L 830.5149339882606,129.25968945841134 L 830.5149339882606,108.082524992136 L 851.692098454536,108.082524992136 Z"
       id="path101"
       style="vector-effect:non-scaling-stroke;-inkscape-stroke:hairline;stroke-width:0.26458333;stroke-dasharray:none" />
    <path
       d="M 879.2692629208113,108.082524992136 L 879.2692629208113,129.25968945841134 L 858.092098454536,129.25968945841134 L 858.0920984545361,108.082524992136 L 879.2692629208113,108.082524992136 Z"
       id="path102"
       style="vector-effect:non-scaling-stroke;-inkscape-stroke:hairline;stroke-width:0.26458333;stroke-dasharray:none" />
    <path
       d="M 841.1035162213983,87.39999999999998 L 849.3495358703155,101.682524992136 L 832.857496572481,101.68252499213598 L 841.1035162213983,87.39999999999998 Z"
       id="path103"
       style="vector-effect:non-scaling-stroke;-inkscape-stroke:hairline;stroke-width:0.26458333;stroke-dasharray:none" />
    <path
       d="M 854.8920984545359,98.482524992136 L 846.6460788056187,84.2 L 863.1381181034533,84.2 L 854.8920984545359,98.482524992136 Z"
       id="path104"
       style="vector-effect:non-scaling-stroke;-inkscape-stroke:hairline;stroke-width:0.26458333;stroke-dasharray:none" />
    <path
       d="M 868.6806806876737,87.39999999999996 L 876.926700336591,101.682524992136 L 860.4346610387563,101.68252499213598 L 868.6806806876737,87.39999999999996 Z"
       id="path105"
       style="vector-effect:non-scaling-stroke;-inkscape-stroke:hairline;stroke-width:0.26458333;stroke-dasharray:none" />
    <path
       d="M 882.4692629208114,98.482524992136 L 874.223243271894,84.2 L 890.7152825697286,84.2 L 882.4692629208114,98.482524992136 Z"
       id="path106"
       style="vector-effect:non-scaling-stroke;-inkscape-stroke:hairline;stroke-width:0.26458333;stroke-dasharray:none" />
    <path
       d="M 906.8464273870867,108.082524992136 L 906.8464273870866,129.25968945841134 L 885.6692629208113,129.25968945841134 L 885.6692629208113,108.082524992136 L 906.8464273870867,108.082524992136 Z"
       id="path107"
       style="vector-effect:non-scaling-stroke;-inkscape-stroke:hairline;stroke-width:0.26458333;stroke-dasharray:none" />
    <path
       d="M 934.423591853362,108.082524992136 L 934.423591853362,129.25968945841134 L 913.2464273870867,129.25968945841134 L 913.2464273870868,108.082524992136 L 934.423591853362,108.082524992136 Z"
       id="path108"
       style="vector-effect:non-scaling-stroke;-inkscape-stroke:hairline;stroke-width:0.26458333;stroke-dasharray:none" />
    <path
       d="M 896.257845153949,87.39999999999998 L 904.5038648028662,101.682524992136 L 888.0118255050317,101.68252499213598 L 896.257845153949,87.39999999999998 Z"
       id="path109"
       style="vector-effect:non-scaling-stroke;-inkscape-stroke:hairline;stroke-width:0.26458333;stroke-dasharray:none" />
    <path
       d="M 910.0464273870866,98.482524992136 L 901.8004077381694,84.2 L 918.292447036004,84.2 L 910.0464273870866,98.482524992136 Z"
       id="path110"
       style="vector-effect:non-scaling-stroke;-inkscape-stroke:hairline;stroke-width:0.26458333;stroke-dasharray:none" />
    <path
       d="M 923.8350096202244,87.39999999999996 L 932.0810292691417,101.682524992136 L 915.588989971307,101.68252499213598 L 923.8350096202244,87.39999999999996 Z"
       id="path111"
       style="vector-effect:non-scaling-stroke;-inkscape-stroke:hairline;stroke-width:0.26458333;stroke-dasharray:none" />
    <path
       d="M 937.6235918533621,98.482524992136 L 929.3775722044447,84.2 L 945.8696115022793,84.2 L 937.6235918533621,98.482524992136 Z"
       id="path112"
       style="vector-effect:non-scaling-stroke;-inkscape-stroke:hairline;stroke-width:0.26458333;stroke-dasharray:none" />
    <path
       d="M 962.0007563196374,108.082524992136 L 962.0007563196373,129.25968945841134 L 940.823591853362,129.25968945841134 L 940.823591853362,108.082524992136 L 962.0007563196374,108.082524992136 Z"
       id="path113"
       style="vector-effect:non-scaling-stroke;-inkscape-stroke:hairline;stroke-width:0.26458333;stroke-dasharray:none" />
    <path
       d="M 989.5779207859127,108.082524992136 L 989.5779207859127,129.25968945841134 L 968.4007563196374,129.25968945841134 L 968.4007563196375,108.082524992136 L 989.5779207859127,108.082524992136 Z"
       id="path114"
       style="vector-effect:non-scaling-stroke;-inkscape-stroke:hairline;stroke-width:0.26458333;stroke-dasharray:none" />
    <path
       d="M 951.4121740864997,87.39999999999998 L 959.658193735417,101.682524992136 L 943.1661544375823,101.68252499213598 L 951.4121740864997,87.39999999999998 Z"
       id="path115"
       style="vector-effect:non-scaling-stroke;-inkscape-stroke:hairline;stroke-width:0.26458333;stroke-dasharray:none" />
    <path
       d="M 965.2007563196373,98.482524992136 L 956.9547366707201,84.2 L 973.4467759685547,84.2 L 965.2007563196373,98.482524992136 Z"
       id="path116"
       style="vector-effect:non-scaling-stroke;-inkscape-stroke:hairline;stroke-width:0.26458333;stroke-dasharray:none" />
    <path
       d="M 978.989338552775,87.39999999999996 L 987.2353582016924,101.682524992136 L 970.7433189038577,101.68252499213598 L 978.989338552775,87.39999999999996 Z"
       id="path117"
       style="vector-effect:non-scaling-stroke;-inkscape-stroke:hairline;stroke-width:0.26458333;stroke-dasharray:none" />
    <path
       d="M 992.7779207859128,98.482524992136 L 984.5319011369954,84.2 L 1001.02394043483,84.2 L 992.7779207859128,98.482524992136 Z"
       id="path118"
       style="vector-effect:non-scaling-stroke;-inkscape-stroke:hairline;stroke-width:0.26458333;stroke-dasharray:none" />
    <path
       d="M 1017.1550852521881,108.082524992136 L 1017.155085252188,129.25968945841134 L 995.9779207859127,129.25968945841134 L 995.9779207859127,108.082524992136 L 1017.1550852521881,108.082524992136 Z"
       id="path119"
       style="vector-effect:non-scaling-stroke;-inkscape-stroke:hairline;stroke-width:0.26458333;stroke-dasharray:none" />
    <path
       d="M 1044.7322497184634,108.082524992136 L 1044.7322497184634,129.25968945841134 L 1023.5550852521881,129.25968945841134 L 1023.5550852521882,108.082524992136 L 1044.7322497184634,108.082524992136 Z"
       id="path120"
       style="vector-effect:non-scaling-stroke;-inkscape-stroke:hairline;stroke-width:0.26458333;stroke-dasharray:none" />
    <path
       d="M 1006.5665030190504,87.39999999999998 L 1014.8125226679676,101.682524992136 L 998.320483370133,101.68252499213598 L 1006.5665030190504,87.39999999999998 Z"
       id="path121"
       style="vector-effect:non-scaling-stroke;-inkscape-stroke:hairline;stroke-width:0.26458333;stroke-dasharray:none" />
    <path
       d="M 1020.355085252188,98.482524992136 L 1012.1090656032708,84.2 L 1028.6011049011054,84.2 L 1020.355085252188,98.482524992136 Z"
       id="path122"
       style="vector-effect:non-scaling-stroke;-inkscape-stroke:hairline;stroke-width:0.26458333;stroke-dasharray:none" />
    <path
       d="M 1034.1436674853258,87.39999999999996 L 1042.389687134243,101.682524992136 L 1025.8976478364084,101.68252499213598 L 1034.1436674853258,87.39999999999996 Z"
       id="path123"
       style="vector-effect:non-scaling-stroke;-inkscape-stroke:hairline;stroke-width:0.26458333;stroke-dasharray:none" />
    <path
       d="M 231.2058979633405,56.622835533724654 L 231.2058979633405,77.8 L 210.02873349706513,77.8 L 210.02873349706513,56.622835533724654 L 231.2058979633405,56.622835533724654 Z"
       id="path124"
       style="vector-effect:non-scaling-stroke;-inkscape-stroke:hairline;stroke-width:0.26458333;stroke-dasharray:none" />
    <path
       d="M 206.82873349706514,47.02283553372463 L 198.58271384814788,32.74031054158863 L 215.0747531459824,32.740310541588656 L 206.82873349706514,47.02283553372463 Z"
       id="path125"
       style="vector-effect:non-scaling-stroke;-inkscape-stroke:hairline;stroke-width:0.26458333;stroke-dasharray:none" />
    <path
       d="M 220.61731573020282,35.94031054158867 L 228.8633353791201,50.22283553372465 L 212.37129608128555,50.222835533724634 L 220.61731573020282,35.94031054158867 Z"
       id="path126"
       style="vector-effect:non-scaling-stroke;-inkscape-stroke:hairline;stroke-width:0.26458333;stroke-dasharray:none" />
    <path
       d="M 234.4058979633405,47.02283553372463 L 226.15987831442322,32.74031054158863 L 242.65191761225776,32.740310541588656 L 234.4058979633405,47.02283553372463 Z"
       id="path127"
       style="vector-effect:non-scaling-stroke;-inkscape-stroke:hairline;stroke-width:0.26458333;stroke-dasharray:none" />
    <path
       d="M 258.7830624296159,56.622835533724654 L 258.7830624296159,77.8 L 237.60589796334048,77.8 L 237.60589796334048,56.622835533724654 L 258.7830624296159,56.622835533724654 Z"
       id="path128"
       style="vector-effect:non-scaling-stroke;-inkscape-stroke:hairline;stroke-width:0.26458333;stroke-dasharray:none" />
    <path
       d="M 286.36022689589123,56.622835533724654 L 286.36022689589123,77.8 L 265.18306242961586,77.8 L 265.18306242961586,56.622835533724654 L 286.36022689589123,56.622835533724654 Z"
       id="path129"
       style="vector-effect:non-scaling-stroke;-inkscape-stroke:hairline;stroke-width:0.26458333;stroke-dasharray:none" />
    <path
       d="M 248.19448019647817,35.940310541588644 L 256.4404998453955,50.22283553372465 L 239.9484605475609,50.222835533724634 L 248.19448019647817,35.940310541588644 Z"
       id="path130"
       style="vector-effect:non-scaling-stroke;-inkscape-stroke:hairline;stroke-width:0.26458333;stroke-dasharray:none" />
    <path
       d="M 261.98306242961587,47.022835533724674 L 253.73704278069857,32.74031054158863 L 270.22908207853317,32.740310541588656 L 261.98306242961587,47.022835533724674 Z"
       id="path131"
       style="vector-effect:non-scaling-stroke;-inkscape-stroke:hairline;stroke-width:0.26458333;stroke-dasharray:none" />
    <path
       d="M 275.77164466275354,35.940310541588616 L 284.01766431167084,50.22283553372465 L 267.52562501383625,50.222835533724634 L 275.77164466275354,35.940310541588616 Z"
       id="path132"
       style="vector-effect:non-scaling-stroke;-inkscape-stroke:hairline;stroke-width:0.26458333;stroke-dasharray:none" />
    <path
       d="M 289.5602268958912,47.022835533724674 L 281.3142072469739,32.74031054158863 L 297.80624654480846,32.740310541588656 L 289.5602268958912,47.022835533724674 Z"
       id="path133"
       style="vector-effect:non-scaling-stroke;-inkscape-stroke:hairline;stroke-width:0.26458333;stroke-dasharray:none" />
    <path
       d="M 313.9373913621666,56.622835533724654 L 313.9373913621666,77.8 L 292.7602268958912,77.8 L 292.7602268958912,56.622835533724654 L 313.9373913621666,56.622835533724654 Z"
       id="path134"
       style="vector-effect:non-scaling-stroke;-inkscape-stroke:hairline;stroke-width:0.26458333;stroke-dasharray:none" />
    <path
       d="M 341.5145558284419,56.622835533724654 L 341.5145558284419,77.8 L 320.33739136216656,77.8 L 320.33739136216656,56.622835533724654 L 341.5145558284419,56.622835533724654 Z"
       id="path135"
       style="vector-effect:non-scaling-stroke;-inkscape-stroke:hairline;stroke-width:0.26458333;stroke-dasharray:none" />
    <path
       d="M 303.3488091290289,35.940310541588616 L 311.5948287779462,50.22283553372465 L 295.1027894801116,50.222835533724634 L 303.3488091290289,35.940310541588616 Z"
       id="path136"
       style="vector-effect:non-scaling-stroke;-inkscape-stroke:hairline;stroke-width:0.26458333;stroke-dasharray:none" />
    <path
       d="M 317.13739136216657,47.022835533724674 L 308.89137171324927,32.74031054158863 L 325.38341101108387,32.740310541588656 L 317.13739136216657,47.022835533724674 Z"
       id="path137"
       style="vector-effect:non-scaling-stroke;-inkscape-stroke:hairline;stroke-width:0.26458333;stroke-dasharray:none" />
    <path
       d="M 330.92597359530424,35.940310541588616 L 339.17199324422154,50.22283553372465 L 322.67995394638695,50.222835533724634 L 330.92597359530424,35.940310541588616 Z"
       id="path138"
       style="vector-effect:non-scaling-stroke;-inkscape-stroke:hairline;stroke-width:0.26458333;stroke-dasharray:none" />
    <path
       d="M 344.7145558284419,47.022835533724674 L 336.4685361795246,32.74031054158863 L 352.9605754773592,32.740310541588656 L 344.7145558284419,47.022835533724674 Z"
       id="path139"
       style="vector-effect:non-scaling-stroke;-inkscape-stroke:hairline;stroke-width:0.26458333;stroke-dasharray:none" />
    <path
       d="M 369.0917202947173,56.622835533724654 L 369.0917202947173,77.8 L 347.9145558284419,77.8 L 347.9145558284419,56.622835533724654 L 369.0917202947173,56.622835533724654 Z"
       id="path140"
       style="vector-effect:non-scaling-stroke;-inkscape-stroke:hairline;stroke-width:0.26458333;stroke-dasharray:none" />
    <path
       d="M 396.6688847609926,56.622835533724654 L 396.6688847609926,77.8 L 375.49172029471725,77.8 L 375.49172029471725,56.622835533724654 L 396.6688847609926,56.622835533724654 Z"
       id="path141"
       style="vector-effect:non-scaling-stroke;-inkscape-stroke:hairline;stroke-width:0.26458333;stroke-dasharray:none" />
    <path
       d="M 358.5031380615796,35.940310541588616 L 366.7491577104969,50.22283553372465 L 350.2571184126623,50.222835533724634 L 358.5031380615796,35.940310541588616 Z"
       id="path142"
       style="vector-effect:non-scaling-stroke;-inkscape-stroke:hairline;stroke-width:0.26458333;stroke-dasharray:none" />
    <path
       d="M 372.29172029471727,47.022835533724674 L 364.04570064579997,32.74031054158863 L 380.53773994363456,32.740310541588656 L 372.29172029471727,47.022835533724674 Z"
       id="path143"
       style="vector-effect:non-scaling-stroke;-inkscape-stroke:hairline;stroke-width:0.26458333;stroke-dasharray:none" />
    <path
       d="M 386.08030252785494,35.940310541588616 L 394.32632217677224,50.22283553372465 L 377.83428287893764,50.222835533724634 L 386.08030252785494,35.940310541588616 Z"
       id="path144"
       style="vector-effect:non-scaling-stroke;-inkscape-stroke:hairline;stroke-width:0.26458333;stroke-dasharray:none" />
    <path
       d="M 399.8688847609926,47.022835533724674 L 391.6228651120753,32.74031054158863 L 408.1149044099099,32.740310541588656 L 399.8688847609926,47.022835533724674 Z"
       id="path145"
       style="vector-effect:non-scaling-stroke;-inkscape-stroke:hairline;stroke-width:0.26458333;stroke-dasharray:none" />
    <path
       d="M 424.246049227268,56.622835533724654 L 424.246049227268,77.8 L 403.0688847609926,77.8 L 403.0688847609926,56.622835533724654 L 424.246049227268,56.622835533724654 Z"
       id="path146"
       style="vector-effect:non-scaling-stroke;-inkscape-stroke:hairline;stroke-width:0.26458333;stroke-dasharray:none" />
    <path
       d="M 451.8232136935433,56.622835533724654 L 451.8232136935433,77.8 L 430.64604922726795,77.8 L 430.64604922726795,56.622835533724654 L 451.8232136935433,56.622835533724654 Z"
       id="path147"
       style="vector-effect:non-scaling-stroke;-inkscape-stroke:hairline;stroke-width:0.26458333;stroke-dasharray:none" />
    <path
       d="M 413.6574669941303,35.940310541588616 L 421.9034866430476,50.22283553372465 L 405.411447345213,50.222835533724634 L 413.6574669941303,35.940310541588616 Z"
       id="path148"
       style="vector-effect:non-scaling-stroke;-inkscape-stroke:hairline;stroke-width:0.26458333;stroke-dasharray:none" />
    <path
       d="M 427.44604922726796,47.022835533724674 L 419.20002957835067,32.74031054158863 L 435.69206887618526,32.740310541588656 L 427.44604922726796,47.022835533724674 Z"
       id="path149"
       style="vector-effect:non-scaling-stroke;-inkscape-stroke:hairline;stroke-width:0.26458333;stroke-dasharray:none" />
    <path
       d="M 441.23463146040564,35.940310541588616 L 449.48065110932293,50.22283553372465 L 432.98861181148834,50.222835533724634 L 441.23463146040564,35.940310541588616 Z"
       id="path150"
       style="vector-effect:non-scaling-stroke;-inkscape-stroke:hairline;stroke-width:0.26458333;stroke-dasharray:none" />
    <path
       d="M 455.0232136935433,47.022835533724674 L 446.777194044626,32.74031054158863 L 463.2692333424606,32.740310541588656 L 455.0232136935433,47.022835533724674 Z"
       id="path151"
       style="vector-effect:non-scaling-stroke;-inkscape-stroke:hairline;stroke-width:0.26458333;stroke-dasharray:none" />
    <path
       d="M 479.4003781598187,56.622835533724654 L 479.4003781598187,77.8 L 458.2232136935433,77.8 L 458.2232136935433,56.622835533724654 L 479.4003781598187,56.622835533724654 Z"
       id="path152"
       style="vector-effect:non-scaling-stroke;-inkscape-stroke:hairline;stroke-width:0.26458333;stroke-dasharray:none" />
    <path
       d="M 506.977542626094,56.622835533724654 L 506.977542626094,77.8 L 485.80037815981865,77.8 L 485.80037815981865,56.622835533724654 L 506.977542626094,56.622835533724654 Z"
       id="path153"
       style="vector-effect:non-scaling-stroke;-inkscape-stroke:hairline;stroke-width:0.26458333;stroke-dasharray:none" />
    <path
       d="M 468.811795926681,35.940310541588616 L 477.0578155755983,50.22283553372465 L 460.5657762777637,50.222835533724634 L 468.811795926681,35.940310541588616 Z"
       id="path154"
       style="vector-effect:non-scaling-stroke;-inkscape-stroke:hairline;stroke-width:0.26458333;stroke-dasharray:none" />
    <path
       d="M 482.60037815981866,47.022835533724674 L 474.35435851090136,32.74031054158863 L 490.84639780873596,32.740310541588656 L 482.60037815981866,47.022835533724674 Z"
       id="path155"
       style="vector-effect:non-scaling-stroke;-inkscape-stroke:hairline;stroke-width:0.26458333;stroke-dasharray:none" />
    <path
       d="M 496.38896039295633,35.940310541588616 L 504.63498004187363,50.22283553372465 L 488.14294074403904,50.222835533724634 L 496.38896039295633,35.940310541588616 Z"
       id="path156"
       style="vector-effect:non-scaling-stroke;-inkscape-stroke:hairline;stroke-width:0.26458333;stroke-dasharray:none" />
    <path
       d="M 510.177542626094,47.02283553372469 L 501.9315229771767,32.74031054158863 L 518.4235622750114,32.740310541588656 L 510.177542626094,47.02283553372469 Z"
       id="path157"
       style="vector-effect:non-scaling-stroke;-inkscape-stroke:hairline;stroke-width:0.26458333;stroke-dasharray:none" />
    <path
       d="M 534.5547070923693,56.622835533724654 L 534.5547070923693,77.8 L 513.377542626094,77.8 L 513.377542626094,56.622835533724654 L 534.5547070923693,56.622835533724654 Z"
       id="path158"
       style="vector-effect:non-scaling-stroke;-inkscape-stroke:hairline;stroke-width:0.26458333;stroke-dasharray:none" />
    <path
       d="M 562.1318715586447,56.622835533724654 L 562.1318715586447,77.8 L 540.9547070923694,77.8 L 540.9547070923694,56.622835533724654 L 562.1318715586447,56.622835533724654 Z"
       id="path159"
       style="vector-effect:non-scaling-stroke;-inkscape-stroke:hairline;stroke-width:0.26458333;stroke-dasharray:none" />
    <path
       d="M 523.9661248592317,35.940310541588616 L 532.212144508149,50.22283553372465 L 515.7201052103144,50.222835533724634 L 523.9661248592317,35.940310541588616 Z"
       id="path160"
       style="vector-effect:non-scaling-stroke;-inkscape-stroke:hairline;stroke-width:0.26458333;stroke-dasharray:none" />
    <path
       d="M 537.7547070923694,47.022835533724674 L 529.5086874434521,32.74031054158863 L 546.0007267412867,32.740310541588656 L 537.7547070923694,47.022835533724674 Z"
       id="path161"
       style="vector-effect:non-scaling-stroke;-inkscape-stroke:hairline;stroke-width:0.26458333;stroke-dasharray:none" />
    <path
       d="M 551.5432893255071,35.940310541588616 L 559.7893089744243,50.22283553372465 L 543.2972696765897,50.222835533724634 L 551.5432893255071,35.940310541588616 Z"
       id="path162"
       style="vector-effect:non-scaling-stroke;-inkscape-stroke:hairline;stroke-width:0.26458333;stroke-dasharray:none" />
    <path
       d="M 565.3318715586447,47.02283553372466 L 557.0858519097275,32.74031054158863 L 573.577891207562,32.740310541588656 L 565.3318715586447,47.02283553372466 Z"
       id="path163"
       style="vector-effect:non-scaling-stroke;-inkscape-stroke:hairline;stroke-width:0.26458333;stroke-dasharray:none" />
    <path
       d="M 589.7090360249201,56.622835533724654 L 589.70903602492,77.8 L 568.5318715586448,77.8 L 568.5318715586448,56.622835533724654 L 589.7090360249201,56.622835533724654 Z"
       id="path164"
       style="vector-effect:non-scaling-stroke;-inkscape-stroke:hairline;stroke-width:0.26458333;stroke-dasharray:none" />
    <path
       d="M 617.2862004911955,56.622835533724654 L 617.2862004911955,77.8 L 596.1090360249201,77.8 L 596.1090360249202,56.622835533724654 L 617.2862004911955,56.622835533724654 Z"
       id="path165"
       style="vector-effect:non-scaling-stroke;-inkscape-stroke:hairline;stroke-width:0.26458333;stroke-dasharray:none" />
    <path
       d="M 579.1204537917824,35.940310541588616 L 587.3664734406997,50.22283553372465 L 570.8744341428651,50.222835533724634 L 579.1204537917824,35.940310541588616 Z"
       id="path166"
       style="vector-effect:non-scaling-stroke;-inkscape-stroke:hairline;stroke-width:0.26458333;stroke-dasharray:none" />
    <path
       d="M 592.90903602492,47.022835533724674 L 584.6630163760028,32.74031054158863 L 601.1550556738374,32.740310541588656 L 592.90903602492,47.022835533724674 Z"
       id="path167"
       style="vector-effect:non-scaling-stroke;-inkscape-stroke:hairline;stroke-width:0.26458333;stroke-dasharray:none" />
    <path
       d="M 606.6976182580578,35.94031054158859 L 614.9436379069751,50.22283553372465 L 598.4515986091404,50.222835533724634 L 606.6976182580578,35.94031054158859 Z"
       id="path168"
       style="vector-effect:non-scaling-stroke;-inkscape-stroke:hairline;stroke-width:0.26458333;stroke-dasharray:none" />
    <path
       d="M 620.4862004911955,47.022835533724674 L 612.2401808422782,32.74031054158863 L 628.7322201401128,32.740310541588656 L 620.4862004911955,47.022835533724674 Z"
       id="path169"
       style="vector-effect:non-scaling-stroke;-inkscape-stroke:hairline;stroke-width:0.26458333;stroke-dasharray:none" />
    <path
       d="M 644.8633649574708,56.622835533724654 L 644.8633649574707,77.8 L 623.6862004911955,77.8 L 623.6862004911955,56.622835533724654 L 644.8633649574708,56.622835533724654 Z"
       id="path170"
       style="vector-effect:non-scaling-stroke;-inkscape-stroke:hairline;stroke-width:0.26458333;stroke-dasharray:none" />
    <path
       d="M 672.4405294237462,56.622835533724654 L 672.4405294237462,77.8 L 651.2633649574708,77.8 L 651.2633649574709,56.622835533724654 L 672.4405294237462,56.622835533724654 Z"
       id="path171"
       style="vector-effect:non-scaling-stroke;-inkscape-stroke:hairline;stroke-width:0.26458333;stroke-dasharray:none" />
    <path
       d="M 634.2747827243331,35.940310541588616 L 642.5208023732504,50.22283553372465 L 626.0287630754158,50.222835533724634 L 634.2747827243331,35.940310541588616 Z"
       id="path172"
       style="vector-effect:non-scaling-stroke;-inkscape-stroke:hairline;stroke-width:0.26458333;stroke-dasharray:none" />
    <path
       d="M 648.0633649574708,47.022835533724674 L 639.8173453085535,32.74031054158863 L 656.3093846063881,32.740310541588656 L 648.0633649574708,47.022835533724674 Z"
       id="path173"
       style="vector-effect:non-scaling-stroke;-inkscape-stroke:hairline;stroke-width:0.26458333;stroke-dasharray:none" />
    <path
       d="M 661.8519471906085,35.94031054158859 L 670.0979668395258,50.22283553372465 L 653.6059275416911,50.222835533724634 L 661.8519471906085,35.94031054158859 Z"
       id="path174"
       style="vector-effect:non-scaling-stroke;-inkscape-stroke:hairline;stroke-width:0.26458333;stroke-dasharray:none" />
    <path
       d="M 675.6405294237462,47.022835533724674 L 667.3945097748289,32.74031054158863 L 683.8865490726635,32.740310541588656 L 675.6405294237462,47.022835533724674 Z"
       id="path175"
       style="vector-effect:non-scaling-stroke;-inkscape-stroke:hairline;stroke-width:0.26458333;stroke-dasharray:none" />
    <path
       d="M 700.0176938900215,56.622835533724654 L 700.0176938900214,77.8 L 678.8405294237461,77.8 L 678.8405294237461,56.622835533724654 L 700.0176938900215,56.622835533724654 Z"
       id="path176"
       style="vector-effect:non-scaling-stroke;-inkscape-stroke:hairline;stroke-width:0.26458333;stroke-dasharray:none" />
    <path
       d="M 727.5948583562969,56.622835533724654 L 727.5948583562969,77.8 L 706.4176938900215,77.8 L 706.4176938900216,56.622835533724654 L 727.5948583562969,56.622835533724654 Z"
       id="path177"
       style="vector-effect:non-scaling-stroke;-inkscape-stroke:hairline;stroke-width:0.26458333;stroke-dasharray:none" />
    <path
       d="M 689.4291116568838,35.940310541588616 L 697.6751313058011,50.22283553372465 L 681.1830920079665,50.222835533724634 L 689.4291116568838,35.940310541588616 Z"
       id="path178"
       style="vector-effect:non-scaling-stroke;-inkscape-stroke:hairline;stroke-width:0.26458333;stroke-dasharray:none" />
    <path
       d="M 703.2176938900215,47.022835533724674 L 694.9716742411042,32.74031054158863 L 711.4637135389388,32.740310541588656 L 703.2176938900215,47.022835533724674 Z"
       id="path179"
       style="vector-effect:non-scaling-stroke;-inkscape-stroke:hairline;stroke-width:0.26458333;stroke-dasharray:none" />
    <path
       d="M 717.0062761231592,35.94031054158859 L 725.2522957720765,50.22283553372465 L 708.7602564742418,50.222835533724634 L 717.0062761231592,35.94031054158859 Z"
       id="path180"
       style="vector-effect:non-scaling-stroke;-inkscape-stroke:hairline;stroke-width:0.26458333;stroke-dasharray:none" />
    <path
       d="M 730.7948583562969,47.022835533724674 L 722.5488387073796,32.74031054158863 L 739.0408780052142,32.740310541588656 L 730.7948583562969,47.022835533724674 Z"
       id="path181"
       style="vector-effect:non-scaling-stroke;-inkscape-stroke:hairline;stroke-width:0.26458333;stroke-dasharray:none" />
    <path
       d="M 755.1720228225722,56.622835533724654 L 755.1720228225721,77.8 L 733.9948583562968,77.8 L 733.9948583562968,56.622835533724654 L 755.1720228225722,56.622835533724654 Z"
       id="path182"
       style="vector-effect:non-scaling-stroke;-inkscape-stroke:hairline;stroke-width:0.26458333;stroke-dasharray:none" />
    <path
       d="M 782.7491872888476,56.622835533724654 L 782.7491872888476,77.8 L 761.5720228225722,77.8 L 761.5720228225723,56.622835533724654 L 782.7491872888476,56.622835533724654 Z"
       id="path183"
       style="vector-effect:non-scaling-stroke;-inkscape-stroke:hairline;stroke-width:0.26458333;stroke-dasharray:none" />
    <path
       d="M 744.5834405894345,35.940310541588616 L 752.8294602383518,50.22283553372465 L 736.3374209405172,50.222835533724634 L 744.5834405894345,35.940310541588616 Z"
       id="path184"
       style="vector-effect:non-scaling-stroke;-inkscape-stroke:hairline;stroke-width:0.26458333;stroke-dasharray:none" />
    <path
       d="M 758.3720228225721,47.022835533724674 L 750.1260031736549,32.74031054158863 L 766.6180424714895,32.740310541588656 L 758.3720228225721,47.022835533724674 Z"
       id="path185"
       style="vector-effect:non-scaling-stroke;-inkscape-stroke:hairline;stroke-width:0.26458333;stroke-dasharray:none" />
    <path
       d="M 772.1606050557099,35.94031054158859 L 780.4066247046272,50.22283553372465 L 763.9145854067925,50.222835533724634 L 772.1606050557099,35.94031054158859 Z"
       id="path186"
       style="vector-effect:non-scaling-stroke;-inkscape-stroke:hairline;stroke-width:0.26458333;stroke-dasharray:none" />
    <path
       d="M 785.9491872888476,47.022835533724674 L 777.7031676399303,32.74031054158863 L 794.1952069377649,32.740310541588656 L 785.9491872888476,47.022835533724674 Z"
       id="path187"
       style="vector-effect:non-scaling-stroke;-inkscape-stroke:hairline;stroke-width:0.26458333;stroke-dasharray:none" />
    <path
       d="M 810.3263517551229,56.622835533724654 L 810.3263517551228,77.8 L 789.1491872888475,77.8 L 789.1491872888475,56.622835533724654 L 810.3263517551229,56.622835533724654 Z"
       id="path188"
       style="vector-effect:non-scaling-stroke;-inkscape-stroke:hairline;stroke-width:0.26458333;stroke-dasharray:none" />
    <path
       d="M 837.9035162213983,56.622835533724654 L 837.9035162213983,77.8 L 816.7263517551229,77.8 L 816.726351755123,56.622835533724654 L 837.9035162213983,56.622835533724654 Z"
       id="path189"
       style="vector-effect:non-scaling-stroke;-inkscape-stroke:hairline;stroke-width:0.26458333;stroke-dasharray:none" />
    <path
       d="M 799.7377695219852,35.940310541588616 L 807.9837891709025,50.22283553372465 L 791.4917498730679,50.222835533724634 L 799.7377695219852,35.940310541588616 Z"
       id="path190"
       style="vector-effect:non-scaling-stroke;-inkscape-stroke:hairline;stroke-width:0.26458333;stroke-dasharray:none" />
    <path
       d="M 813.5263517551228,47.022835533724674 L 805.2803321062056,32.74031054158863 L 821.7723714040402,32.740310541588656 L 813.5263517551228,47.022835533724674 Z"
       id="path191"
       style="vector-effect:non-scaling-stroke;-inkscape-stroke:hairline;stroke-width:0.26458333;stroke-dasharray:none" />
    <path
       d="M 827.3149339882606,35.94031054158859 L 835.5609536371779,50.22283553372465 L 819.0689143393432,50.222835533724634 L 827.3149339882606,35.94031054158859 Z"
       id="path192"
       style="vector-effect:non-scaling-stroke;-inkscape-stroke:hairline;stroke-width:0.26458333;stroke-dasharray:none" />
    <path
       d="M 841.1035162213983,47.022835533724674 L 832.857496572481,32.74031054158863 L 849.3495358703155,32.740310541588656 L 841.1035162213983,47.022835533724674 Z"
       id="path193"
       style="vector-effect:non-scaling-stroke;-inkscape-stroke:hairline;stroke-width:0.26458333;stroke-dasharray:none" />
    <path
       d="M 865.4806806876736,56.622835533724654 L 865.4806806876735,77.8 L 844.3035162213982,77.8 L 844.3035162213982,56.622835533724654 L 865.4806806876736,56.622835533724654 Z"
       id="path194"
       style="vector-effect:non-scaling-stroke;-inkscape-stroke:hairline;stroke-width:0.26458333;stroke-dasharray:none" />
    <path
       d="M 893.057845153949,56.622835533724654 L 893.057845153949,77.8 L 871.8806806876736,77.8 L 871.8806806876737,56.622835533724654 L 893.057845153949,56.622835533724654 Z"
       id="path195"
       style="vector-effect:non-scaling-stroke;-inkscape-stroke:hairline;stroke-width:0.26458333;stroke-dasharray:none" />
    <path
       d="M 854.8920984545359,35.940310541588616 L 863.1381181034532,50.22283553372465 L 846.6460788056186,50.222835533724634 L 854.8920984545359,35.940310541588616 Z"
       id="path196"
       style="vector-effect:non-scaling-stroke;-inkscape-stroke:hairline;stroke-width:0.26458333;stroke-dasharray:none" />
    <path
       d="M 868.6806806876735,47.022835533724674 L 860.4346610387563,32.74031054158863 L 876.9267003365909,32.740310541588656 L 868.6806806876735,47.022835533724674 Z"
       id="path197"
       style="vector-effect:non-scaling-stroke;-inkscape-stroke:hairline;stroke-width:0.26458333;stroke-dasharray:none" />
    <path
       d="M 882.4692629208113,35.94031054158859 L 890.7152825697286,50.22283553372465 L 874.2232432718939,50.222835533724634 L 882.4692629208113,35.94031054158859 Z"
       id="path198"
       style="vector-effect:non-scaling-stroke;-inkscape-stroke:hairline;stroke-width:0.26458333;stroke-dasharray:none" />
    <path
       d="M 896.257845153949,47.022835533724674 L 888.0118255050317,32.74031054158863 L 904.5038648028662,32.740310541588656 L 896.257845153949,47.022835533724674 Z"
       id="path199"
       style="vector-effect:non-scaling-stroke;-inkscape-stroke:hairline;stroke-width:0.26458333;stroke-dasharray:none" />
    <path
       d="M 920.6350096202243,56.622835533724654 L 920.6350096202242,77.8 L 899.4578451539489,77.8 L 899.4578451539489,56.622835533724654 L 920.6350096202243,56.622835533724654 Z"
       id="path200"
       style="vector-effect:non-scaling-stroke;-inkscape-stroke:hairline;stroke-width:0.26458333;stroke-dasharray:none" />
    <path
       d="M 948.2121740864997,56.622835533724654 L 948.2121740864997,77.8 L 927.0350096202243,77.8 L 927.0350096202244,56.622835533724654 L 948.2121740864997,56.622835533724654 Z"
       id="path201"
       style="vector-effect:non-scaling-stroke;-inkscape-stroke:hairline;stroke-width:0.26458333;stroke-dasharray:none" />
    <path
       d="M 910.0464273870866,35.940310541588616 L 918.2924470360039,50.22283553372465 L 901.8004077381693,50.222835533724634 L 910.0464273870866,35.940310541588616 Z"
       id="path202"
       style="vector-effect:non-scaling-stroke;-inkscape-stroke:hairline;stroke-width:0.26458333;stroke-dasharray:none" />
    <path
       d="M 923.8350096202242,47.022835533724674 L 915.588989971307,32.74031054158863 L 932.0810292691416,32.740310541588656 L 923.8350096202242,47.022835533724674 Z"
       id="path203"
       style="vector-effect:non-scaling-stroke;-inkscape-stroke:hairline;stroke-width:0.26458333;stroke-dasharray:none" />
    <path
       d="M 937.623591853362,35.94031054158859 L 945.8696115022793,50.22283553372465 L 929.3775722044446,50.222835533724634 L 937.623591853362,35.94031054158859 Z"
       id="path204"
       style="vector-effect:non-scaling-stroke;-inkscape-stroke:hairline;stroke-width:0.26458333;stroke-dasharray:none" />
    <path
       d="M 951.4121740864997,47.022835533724674 L 943.1661544375823,32.74031054158863 L 959.658193735417,32.740310541588656 L 951.4121740864997,47.022835533724674 Z"
       id="path205"
       style="vector-effect:non-scaling-stroke;-inkscape-stroke:hairline;stroke-width:0.26458333;stroke-dasharray:none" />
    <path
       d="M 975.789338552775,56.622835533724654 L 975.7893385527749,77.8 L 954.6121740864996,77.8 L 954.6121740864996,56.622835533724654 L 975.789338552775,56.622835533724654 Z"
       id="path206"
       style="vector-effect:non-scaling-stroke;-inkscape-stroke:hairline;stroke-width:0.26458333;stroke-dasharray:none" />
    <path
       d="M 1003.3665030190504,56.622835533724654 L 1003.3665030190504,77.8 L 982.189338552775,77.8 L 982.1893385527751,56.622835533724654 L 1003.3665030190504,56.622835533724654 Z"
       id="path207"
       style="vector-effect:non-scaling-stroke;-inkscape-stroke:hairline;stroke-width:0.26458333;stroke-dasharray:none" />
    <path
       d="M 965.2007563196373,35.940310541588616 L 973.4467759685546,50.22283553372465 L 956.95473667072,50.222835533724634 L 965.2007563196373,35.940310541588616 Z"
       id="path208"
       style="vector-effect:non-scaling-stroke;-inkscape-stroke:hairline;stroke-width:0.26458333;stroke-dasharray:none" />
    <path
       d="M 978.9893385527749,47.022835533724674 L 970.7433189038577,32.74031054158863 L 987.2353582016923,32.740310541588656 L 978.9893385527749,47.022835533724674 Z"
       id="path209"
       style="vector-effect:non-scaling-stroke;-inkscape-stroke:hairline;stroke-width:0.26458333;stroke-dasharray:none" />
    <path
       d="M 992.7779207859127,35.94031054158859 L 1001.02394043483,50.22283553372465 L 984.5319011369953,50.222835533724634 L 992.7779207859127,35.94031054158859 Z"
       id="path210"
       style="vector-effect:non-scaling-stroke;-inkscape-stroke:hairline;stroke-width:0.26458333;stroke-dasharray:none" />
    <path
       d="M 1006.5665030190504,47.022835533724674 L 998.320483370133,32.74031054158863 L 1014.8125226679676,32.740310541588656 L 1006.5665030190504,47.022835533724674 Z"
       id="path211"
       style="vector-effect:non-scaling-stroke;-inkscape-stroke:hairline;stroke-width:0.26458333;stroke-dasharray:none" />
    <path
       d="M 1030.9436674853257,56.622835533724654 L 1030.9436674853257,77.8 L 1009.7665030190503,77.8 L 1009.7665030190503,56.622835533724654 L 1030.9436674853257,56.622835533724654 Z"
       id="path212"
       style="vector-effect:non-scaling-stroke;-inkscape-stroke:hairline;stroke-width:0.26458333;stroke-dasharray:none" />
    <path
       d="M 1020.355085252188,35.94031054158859 L 1028.6011049011054,50.22283553372465 L 1012.1090656032707,50.222835533724634 L 1020.355085252188,35.94031054158859 Z"
       id="path213"
       style="vector-effect:non-scaling-stroke;-inkscape-stroke:hairline;stroke-width:0.26458333;stroke-dasharray:none" />
    <path
       d="M 1034.1436674853258,47.02283553372469 L 1025.8976478364084,32.74031054158863 L 1042.389687134243,32.740310541588656 L 1034.1436674853258,47.02283553372469 Z"
       id="path214"
       style="vector-effect:non-scaling-stroke;-inkscape-stroke:hairline;stroke-width:0.26458333;stroke-dasharray:none" />
    <path
       d="M 461.2252340982595,152.0 L 468.811795926681,138.8596894584113 L 476.3983577551025,152.0 L 461.2252340982595,152.0 Z"
       id="path215"
       style="vector-effect:non-scaling-stroke;-inkscape-stroke:hairline;stroke-width:0.26458333;stroke-dasharray:none" />
    <path
       d="M 847.3055366261144,152.0 L 854.8920984545359,138.8596894584113 L 862.4786602829574,152.0 L 847.3055366261144,152.0 Z"
       id="path216"
       style="vector-effect:non-scaling-stroke;-inkscape-stroke:hairline;stroke-width:0.26458333;stroke-dasharray:none" />
    <path
       d="M 203.62873349706516,77.8 L 193.48620049119552,77.8 L 193.48620049119552,56.622835533724654 L 203.62873349706516,56.622835533724654 L 203.62873349706516,77.8 Z"
       id="path217"
       style="vector-effect:non-scaling-stroke;-inkscape-stroke:hairline;stroke-width:0.26458333;stroke-dasharray:none" />
    <path
       d="M 957.6141944912158,152.0 L 965.2007563196373,138.8596894584113 L 972.7873181480588,152.0 L 957.6141944912158,152.0 Z"
       id="path218"
       style="vector-effect:non-scaling-stroke;-inkscape-stroke:hairline;stroke-width:0.26458333;stroke-dasharray:none" />
    <path
       d="M 240.6079183680567,152.0 L 248.19448019647817,138.85968945841137 L 255.7810420248997,152.0 L 240.6079183680567,152.0 Z"
       id="path219"
       style="vector-effect:non-scaling-stroke;-inkscape-stroke:hairline;stroke-width:0.26458333;stroke-dasharray:none" />
    <path
       d="M 323.33941176688273,152.0 L 330.92597359530424,138.8596894584113 L 338.51253542372575,152.0 L 323.33941176688273,152.0 Z"
       id="path220"
       style="vector-effect:non-scaling-stroke;-inkscape-stroke:hairline;stroke-width:0.26458333;stroke-dasharray:none" />
    <path
       d="M 1040.345687890042,152.0 L 1047.4862004911956,139.63226938271606 L 1047.4862004911956,152.0 L 1040.345687890042,152.0 Z"
       id="path221"
       style="vector-effect:non-scaling-stroke;-inkscape-stroke:hairline;stroke-width:0.26458333;stroke-dasharray:none" />
    <path
       d="M 213.03075390178134,152.0 L 220.61731573020282,138.85968945841137 L 228.2038775586243,152.0 L 213.03075390178134,152.0 Z"
       id="path222"
       style="vector-effect:non-scaling-stroke;-inkscape-stroke:hairline;stroke-width:0.26458333;stroke-dasharray:none" />
    <path
       d="M 406.0709051657088,152.0 L 413.6574669941303,138.8596894584113 L 421.2440288225518,152.0 L 406.0709051657088,152.0 Z"
       id="path223"
       style="vector-effect:non-scaling-stroke;-inkscape-stroke:hairline;stroke-width:0.26458333;stroke-dasharray:none" />
    <path
       d="M 709.4197142947377,152.0 L 717.0062761231592,138.8596894584113 L 724.5928379515807,152.0 L 709.4197142947377,152.0 Z"
       id="path224"
       style="vector-effect:non-scaling-stroke;-inkscape-stroke:hairline;stroke-width:0.26458333;stroke-dasharray:none" />
    <path
       d="M 516.3795630308102,152.0 L 523.9661248592317,138.8596894584113 L 531.5526866876532,152.0 L 516.3795630308102,152.0 Z"
       id="path225"
       style="vector-effect:non-scaling-stroke;-inkscape-stroke:hairline;stroke-width:0.26458333;stroke-dasharray:none" />
    <path
       d="M 193.48620049119552,50.22283553372465 L 193.48620049119552,36.712890465893764 L 201.28617091284474,50.22283553372465 L 193.48620049119552,50.22283553372465 Z"
       id="path226"
       style="vector-effect:non-scaling-stroke;-inkscape-stroke:hairline;stroke-width:0.26458333;stroke-dasharray:none" />
    <path
       d="M 571.5338919633609,152.0 L 579.1204537917824,138.8596894584113 L 586.707015620204,152.0 L 571.5338919633609,152.0 Z"
       id="path227"
       style="vector-effect:non-scaling-stroke;-inkscape-stroke:hairline;stroke-width:0.26458333;stroke-dasharray:none" />
    <path
       d="M 295.7622473006074,152.0 L 303.3488091290289,138.8596894584113 L 310.9353709574504,152.0 L 295.7622473006074,152.0 Z"
       id="path228"
       style="vector-effect:non-scaling-stroke;-inkscape-stroke:hairline;stroke-width:0.26458333;stroke-dasharray:none" />
    <path
       d="M 764.5740432272884,152.0 L 772.1606050557099,138.8596894584113 L 779.7471668841314,152.0 L 764.5740432272884,152.0 Z"
       id="path229"
       style="vector-effect:non-scaling-stroke;-inkscape-stroke:hairline;stroke-width:0.26458333;stroke-dasharray:none" />
    <path
       d="M 599.1110564296363,152.0 L 606.6976182580578,138.8596894584113 L 614.2841800864793,152.0 L 599.1110564296363,152.0 Z"
       id="path230"
       style="vector-effect:non-scaling-stroke;-inkscape-stroke:hairline;stroke-width:0.26458333;stroke-dasharray:none" />
    <path
       d="M 819.7283721598391,152.0 L 827.3149339882606,138.8596894584113 L 834.9014958166821,152.0 L 819.7283721598391,152.0 Z"
       id="path231"
       style="vector-effect:non-scaling-stroke;-inkscape-stroke:hairline;stroke-width:0.26458333;stroke-dasharray:none" />
    <path
       d="M 378.49374069943343,152.0 L 386.08030252785494,138.8596894584113 L 393.66686435627645,152.0 L 378.49374069943343,152.0 Z"
       id="path232"
       style="vector-effect:non-scaling-stroke;-inkscape-stroke:hairline;stroke-width:0.26458333;stroke-dasharray:none" />
    <path
       d="M 654.265385362187,152.0 L 661.8519471906085,138.8596894584113 L 669.43850901903,152.0 L 654.265385362187,152.0 Z"
       id="path233"
       style="vector-effect:non-scaling-stroke;-inkscape-stroke:hairline;stroke-width:0.26458333;stroke-dasharray:none" />
    <path
       d="M 902.4598655586651,152.0 L 910.0464273870866,138.8596894584113 L 917.6329892155081,152.0 L 902.4598655586651,152.0 Z"
       id="path234"
       style="vector-effect:non-scaling-stroke;-inkscape-stroke:hairline;stroke-width:0.26458333;stroke-dasharray:none" />
    <path
       d="M 193.48620049119552,84.2 L 201.28617091284474,84.2 L 193.48620049119552,97.70994506783087 L 193.48620049119552,84.2 Z"
       id="path235"
       style="vector-effect:non-scaling-stroke;-inkscape-stroke:hairline;stroke-width:0.26458333;stroke-dasharray:none" />
    <path
       d="M 1039.6862300695461,84.2 L 1047.4862004911956,84.2 L 1047.4862004911956,97.70994506783127 L 1039.6862300695461,84.2 Z"
       id="path236"
       style="vector-effect:non-scaling-stroke;-inkscape-stroke:hairline;stroke-width:0.26458333;stroke-dasharray:none" />
    <path
       d="M 193.48620049119552,152.0 L 193.48620049119552,139.63226938271646 L 200.62671309234895,152.0 L 193.48620049119552,152.0 Z"
       id="path237"
       style="vector-effect:non-scaling-stroke;-inkscape-stroke:hairline;stroke-width:0.26458333;stroke-dasharray:none" />
    <path
       d="M 930.0370300249405,152.0 L 937.623591853362,138.8596894584113 L 945.2101536817835,152.0 L 930.0370300249405,152.0 Z"
       id="path238"
       style="vector-effect:non-scaling-stroke;-inkscape-stroke:hairline;stroke-width:0.26458333;stroke-dasharray:none" />
    <path
       d="M 1047.4862004911956,56.622835533724654 L 1047.4862004911956,77.8 L 1037.3436674853258,77.8 L 1037.3436674853258,56.622835533724654 L 1047.4862004911956,56.622835533724654 Z"
       id="path239"
       style="vector-effect:non-scaling-stroke;-inkscape-stroke:hairline;stroke-width:0.26458333;stroke-dasharray:none" />
    <path
       d="M 268.18508283433204,152.0 L 275.77164466275354,138.8596894584113 L 283.35820649117505,152.0 L 268.18508283433204,152.0 Z"
       id="path240"
       style="vector-effect:non-scaling-stroke;-inkscape-stroke:hairline;stroke-width:0.26458333;stroke-dasharray:none" />
    <path
       d="M 350.9165762331581,152.0 L 358.5031380615796,138.8596894584113 L 366.0896998900011,152.0 L 350.9165762331581,152.0 Z"
       id="path241"
       style="vector-effect:non-scaling-stroke;-inkscape-stroke:hairline;stroke-width:0.26458333;stroke-dasharray:none" />
    <path
       d="M 543.9567274970856,152.0 L 551.5432893255071,138.8596894584113 L 559.1298511539286,152.0 L 543.9567274970856,152.0 Z"
       id="path242"
       style="vector-effect:non-scaling-stroke;-inkscape-stroke:hairline;stroke-width:0.26458333;stroke-dasharray:none" />
    <path
       d="M 792.1512076935637,152.0 L 799.7377695219852,138.8596894584113 L 807.3243313504067,152.0 L 792.1512076935637,152.0 Z"
       id="path243"
       style="vector-effect:non-scaling-stroke;-inkscape-stroke:hairline;stroke-width:0.26458333;stroke-dasharray:none" />
    <path
       d="M 1039.6862300695461,50.222835533724634 L 1047.4862004911956,36.71289046589334 L 1047.4862004911956,50.222835533724634 L 1039.6862300695461,50.222835533724634 Z"
       id="path244"
       style="vector-effect:non-scaling-stroke;-inkscape-stroke:hairline;stroke-width:0.26458333;stroke-dasharray:none" />
    <path
       d="M 488.8023985645348,152.0 L 496.38896039295633,138.8596894584113 L 503.97552222137784,152.0 L 488.8023985645348,152.0 Z"
       id="path245"
       style="vector-effect:non-scaling-stroke;-inkscape-stroke:hairline;stroke-width:0.26458333;stroke-dasharray:none" />
    <path
       d="M 736.996878761013,152.0 L 744.5834405894345,138.8596894584113 L 752.170002417856,152.0 L 736.996878761013,152.0 Z"
       id="path246"
       style="vector-effect:non-scaling-stroke;-inkscape-stroke:hairline;stroke-width:0.26458333;stroke-dasharray:none" />
    <path
       d="M 626.6882208959116,152.0 L 634.2747827243331,138.8596894584113 L 641.8613445527546,152.0 L 626.6882208959116,152.0 Z"
       id="path247"
       style="vector-effect:non-scaling-stroke;-inkscape-stroke:hairline;stroke-width:0.26458333;stroke-dasharray:none" />
    <path
       d="M 874.8827010923898,152.0 L 882.4692629208113,138.8596894584113 L 890.0558247492328,152.0 L 874.8827010923898,152.0 Z"
       id="path248"
       style="vector-effect:non-scaling-stroke;-inkscape-stroke:hairline;stroke-width:0.26458333;stroke-dasharray:none" />
    <path
       d="M 433.64806963198413,152.0 L 441.23463146040564,138.8596894584113 L 448.82119328882715,152.0 L 433.64806963198413,152.0 Z"
       id="path249"
       style="vector-effect:non-scaling-stroke;-inkscape-stroke:hairline;stroke-width:0.26458333;stroke-dasharray:none" />
    <path
       d="M 1012.7685234237665,152.0 L 1020.355085252188,138.8596894584113 L 1027.9416470806095,152.0 L 1012.7685234237665,152.0 Z"
       id="path250"
       style="vector-effect:non-scaling-stroke;-inkscape-stroke:hairline;stroke-width:0.26458333;stroke-dasharray:none" />
    <path
       d="M 681.8425498284623,152.0 L 689.4291116568838,138.8596894584113 L 697.0156734853053,152.0 L 681.8425498284623,152.0 Z"
       id="path251"
       style="vector-effect:non-scaling-stroke;-inkscape-stroke:hairline;stroke-width:0.26458333;stroke-dasharray:none" />
    <path
       d="M 985.1913589574912,152.0 L 992.7779207859127,138.8596894584113 L 1000.3644826143342,152.0 L 985.1913589574912,152.0 Z"
       id="path252"
       style="vector-effect:non-scaling-stroke;-inkscape-stroke:hairline;stroke-width:0.26458333;stroke-dasharray:none" />
    <path
       d="M 167.48620049119552,178.0 L 1073.4862004911956,178.0 L 1073.4862004911956,0.0 L 167.48620049119552,0.0 L 167.48620049119552,178.0 Z"
       id="path253"
       style="vector-effect:non-scaling-stroke;-inkscape-stroke:hairline;stroke-width:0.26458333;stroke-dasharray:none" />
  </g>
</svg>
