<?xml version="1.0" encoding="UTF-8" standalone="no"?>
<svg
   height="300mm"
   version="1.1"
   viewBox="0 0 1200 300"
   width="1200mm"
   id="svg239"
   sodipodi:docname="tabica_2.1.svg"
   inkscape:version="1.4.2 (1:1.4.2+202505120737+ebf0e940d0)"
   xmlns:inkscape="http://www.inkscape.org/namespaces/inkscape"
   xmlns:sodipodi="http://sodipodi.sourceforge.net/DTD/sodipodi-0.dtd"
   xmlns="http://www.w3.org/2000/svg"
   xmlns:svg="http://www.w3.org/2000/svg">
  <sodipodi:namedview
     id="namedview239"
     pagecolor="#ffffff"
     bordercolor="#666666"
     borderopacity="1.0"
     inkscape:showpageshadow="2"
     inkscape:pageopacity="0.0"
     inkscape:pagecheckerboard="0"
     inkscape:deskcolor="#d1d1d1"
     inkscape:document-units="mm"
     showgrid="false"
     inkscape:zoom="0.26744965"
     inkscape:cx="2267.7165"
     inkscape:cy="568.33127"
     inkscape:window-width="1920"
     inkscape:window-height="1011"
     inkscape:window-x="0"
     inkscape:window-y="0"
     inkscape:window-maximized="1"
     inkscape:current-layer="svg239" />
  <defs
     id="defs1" />
  <g
     fill="none"
     stroke="blue"
     stroke-width="0.5"
     transform="translate(-68.2159082212874,65.0)"
     id="g239"
     style="vector-effect:non-scaling-stroke;-inkscape-stroke:hairline;stroke-width:0.26458333;stroke-dasharray:none">
    <path
       d="M 243.75506066771445,144.0 L 231.42069628964546,144.0 L 237.58787847867995,133.31812710905842 L 243.75506066771445,144.0 Z"
       id="path1"
       style="vector-effect:non-scaling-stroke;-inkscape-stroke:hairline;stroke-width:0.26458333;stroke-dasharray:none" />
    <path
       d="M 243.1304410629004,130.11812710905838 L 261.7438007042946,130.1181271090584 L 253.72909765385324,144.0 L 251.1451441133417,144.0 L 243.1304410629004,130.11812710905838 Z"
       id="path2"
       style="vector-effect:non-scaling-stroke;-inkscape-stroke:hairline;stroke-width:0.26458333;stroke-dasharray:none" />
    <path
       d="M 273.4535454775495,144.0 L 261.11918109948044,144.0 L 267.28636328851496,133.31812710905837 L 273.4535454775495,144.0 Z"
       id="path3"
       style="vector-effect:non-scaling-stroke;-inkscape-stroke:hairline;stroke-width:0.26458333;stroke-dasharray:none" />
    <path
       d="M 272.82892587273534,130.11812710905838 L 291.4422855141296,130.1181271090584 L 283.4275824636883,144.0 L 280.84362892317665,144.0 L 272.82892587273534,130.11812710905838 Z"
       id="path4"
       style="vector-effect:non-scaling-stroke;-inkscape-stroke:hairline;stroke-width:0.26458333;stroke-dasharray:none" />
    <path
       d="M 303.1520302873845,144.0 L 290.81766590931545,144.0 L 296.98484809834997,133.31812710905837 L 303.1520302873845,144.0 Z"
       id="path5"
       style="vector-effect:non-scaling-stroke;-inkscape-stroke:hairline;stroke-width:0.26458333;stroke-dasharray:none" />
    <path
       d="M 302.52741068257035,130.11812710905838 L 321.1407703239646,130.1181271090584 L 313.1260672735233,144.0 L 310.54211373301166,144.0 L 302.52741068257035,130.11812710905838 Z"
       id="path6"
       style="vector-effect:non-scaling-stroke;-inkscape-stroke:hairline;stroke-width:0.26458333;stroke-dasharray:none" />
    <path
       d="M 332.8505150972195,144.0 L 320.51615071915046,144.0 L 326.683332908185,133.31812710905837 L 332.8505150972195,144.0 Z"
       id="path7"
       style="vector-effect:non-scaling-stroke;-inkscape-stroke:hairline;stroke-width:0.26458333;stroke-dasharray:none" />
    <path
       d="M 332.22589549240536,130.11812710905838 L 350.8392551337996,130.1181271090584 L 342.8245520833583,144.0 L 340.24059854284667,144.0 L 332.22589549240536,130.11812710905838 Z"
       id="path8"
       style="vector-effect:non-scaling-stroke;-inkscape-stroke:hairline;stroke-width:0.26458333;stroke-dasharray:none" />
    <path
       d="M 362.54899990705445,144.0 L 350.2146355289854,144.0 L 356.38181771801993,133.31812710905837 L 362.54899990705445,144.0 Z"
       id="path9"
       style="vector-effect:non-scaling-stroke;-inkscape-stroke:hairline;stroke-width:0.26458333;stroke-dasharray:none" />
    <path
       d="M 361.9243803022403,130.11812710905838 L 380.53773994363456,130.1181271090584 L 372.52303689319325,144.0 L 369.9390833526816,144.0 L 361.9243803022403,130.11812710905838 Z"
       id="path10"
       style="vector-effect:non-scaling-stroke;-inkscape-stroke:hairline;stroke-width:0.26458333;stroke-dasharray:none" />
    <path
       d="M 392.24748471688946,144.0 L 379.9131203388204,144.0 L 386.08030252785494,133.31812710905837 L 392.24748471688946,144.0 Z"
       id="path11"
       style="vector-effect:non-scaling-stroke;-inkscape-stroke:hairline;stroke-width:0.26458333;stroke-dasharray:none" />
    <path
       d="M 391.6228651120753,130.11812710905838 L 410.2362247534695,130.1181271090584 L 402.2215217030282,144.0 L 399.6375681625166,144.0 L 391.6228651120753,130.11812710905838 Z"
       id="path12"
       style="vector-effect:non-scaling-stroke;-inkscape-stroke:hairline;stroke-width:0.26458333;stroke-dasharray:none" />
    <path
       d="M 421.9459695267244,144.0 L 409.61160514865537,144.0 L 415.7787873376899,133.31812710905837 L 421.9459695267244,144.0 Z"
       id="path13"
       style="vector-effect:non-scaling-stroke;-inkscape-stroke:hairline;stroke-width:0.26458333;stroke-dasharray:none" />
    <path
       d="M 421.32134992191027,130.11812710905838 L 439.9347095633045,130.1181271090584 L 431.9200065128632,144.0 L 429.3360529723516,144.0 L 421.32134992191027,130.11812710905838 Z"
       id="path14"
       style="vector-effect:non-scaling-stroke;-inkscape-stroke:hairline;stroke-width:0.26458333;stroke-dasharray:none" />
    <path
       d="M 451.6444543365594,144.0 L 439.3100899584904,144.0 L 445.4772721475249,133.31812710905837 L 451.6444543365594,144.0 Z"
       id="path15"
       style="vector-effect:non-scaling-stroke;-inkscape-stroke:hairline;stroke-width:0.26458333;stroke-dasharray:none" />
    <path
       d="M 451.0198347317453,130.11812710905838 L 469.63319437313953,130.1181271090584 L 461.6184913226982,144.0 L 459.0345377821866,144.0 L 451.0198347317453,130.11812710905838 Z"
       id="path16"
       style="vector-effect:non-scaling-stroke;-inkscape-stroke:hairline;stroke-width:0.26458333;stroke-dasharray:none" />
    <path
       d="M 481.34293914639443,144.0 L 469.0085747683254,144.0 L 475.1757569573599,133.31812710905837 L 481.34293914639443,144.0 Z"
       id="path17"
       style="vector-effect:non-scaling-stroke;-inkscape-stroke:hairline;stroke-width:0.26458333;stroke-dasharray:none" />
    <path
       d="M 480.7183195415803,130.11812710905838 L 499.33167918297454,130.1181271090584 L 491.3169761325332,144.0 L 488.7330225920216,144.0 L 480.7183195415803,130.11812710905838 Z"
       id="path18"
       style="vector-effect:non-scaling-stroke;-inkscape-stroke:hairline;stroke-width:0.26458333;stroke-dasharray:none" />
    <path
       d="M 511.04142395622944,144.0 L 498.7070595781604,144.0 L 504.8742417671949,133.31812710905837 L 511.04142395622944,144.0 Z"
       id="path19"
       style="vector-effect:non-scaling-stroke;-inkscape-stroke:hairline;stroke-width:0.26458333;stroke-dasharray:none" />
    <path
       d="M 510.4168043514153,130.11812710905838 L 529.0301639928095,130.1181271090584 L 521.0154609423682,144.0 L 518.4315074018566,144.0 L 510.4168043514153,130.11812710905838 Z"
       id="path20"
       style="vector-effect:non-scaling-stroke;-inkscape-stroke:hairline;stroke-width:0.26458333;stroke-dasharray:none" />
    <path
       d="M 540.7399087660644,144.0 L 528.4055443879954,144.0 L 534.5727265770299,133.31812710905837 L 540.7399087660644,144.0 Z"
       id="path21"
       style="vector-effect:non-scaling-stroke;-inkscape-stroke:hairline;stroke-width:0.26458333;stroke-dasharray:none" />
    <path
       d="M 540.1152891612503,130.11812710905838 L 558.7286488026446,130.1181271090584 L 550.7139457522032,144.0 L 548.1299922116916,144.0 L 540.1152891612503,130.11812710905838 Z"
       id="path22"
       style="vector-effect:non-scaling-stroke;-inkscape-stroke:hairline;stroke-width:0.26458333;stroke-dasharray:none" />
    <path
       d="M 570.4383935758995,144.0 L 558.1040291978304,144.0 L 564.2712113868649,133.31812710905837 L 570.4383935758995,144.0 Z"
       id="path23"
       style="vector-effect:non-scaling-stroke;-inkscape-stroke:hairline;stroke-width:0.26458333;stroke-dasharray:none" />
    <path
       d="M 569.8137739710853,130.11812710905838 L 588.4271336124796,130.1181271090584 L 580.4124305620383,144.0 L 577.8284770215266,144.0 L 569.8137739710853,130.11812710905838 Z"
       id="path24"
       style="vector-effect:non-scaling-stroke;-inkscape-stroke:hairline;stroke-width:0.26458333;stroke-dasharray:none" />
    <path
       d="M 600.1368783857345,144.0 L 587.8025140076654,144.0 L 593.9696961966999,133.31812710905837 L 600.1368783857345,144.0 Z"
       id="path25"
       style="vector-effect:non-scaling-stroke;-inkscape-stroke:hairline;stroke-width:0.26458333;stroke-dasharray:none" />
    <path
       d="M 599.5122587809203,130.11812710905838 L 618.1256184223146,130.1181271090584 L 610.1109153718733,144.0 L 607.5269618313616,144.0 L 599.5122587809203,130.11812710905838 Z"
       id="path26"
       style="vector-effect:non-scaling-stroke;-inkscape-stroke:hairline;stroke-width:0.26458333;stroke-dasharray:none" />
    <path
       d="M 629.8353631955695,144.0 L 617.5009988175004,144.0 L 623.668181006535,133.31812710905837 L 629.8353631955695,144.0 Z"
       id="path27"
       style="vector-effect:non-scaling-stroke;-inkscape-stroke:hairline;stroke-width:0.26458333;stroke-dasharray:none" />
    <path
       d="M 629.2107435907553,130.11812710905838 L 647.8241032321496,130.1181271090584 L 639.8094001817083,144.0 L 637.2254466411966,144.0 L 629.2107435907553,130.11812710905838 Z"
       id="path28"
       style="vector-effect:non-scaling-stroke;-inkscape-stroke:hairline;stroke-width:0.26458333;stroke-dasharray:none" />
    <path
       d="M 659.5338480054044,144.0 L 647.1994836273353,144.0 L 653.3666658163698,133.31812710905837 L 659.5338480054044,144.0 Z"
       id="path29"
       style="vector-effect:non-scaling-stroke;-inkscape-stroke:hairline;stroke-width:0.26458333;stroke-dasharray:none" />
    <path
       d="M 658.9092284005902,130.11812710905838 L 677.5225880419845,130.1181271090584 L 669.5078849915432,144.0 L 666.9239314510315,144.0 L 658.9092284005902,130.11812710905838 Z"
       id="path30"
       style="vector-effect:non-scaling-stroke;-inkscape-stroke:hairline;stroke-width:0.26458333;stroke-dasharray:none" />
    <path
       d="M 689.2323328152394,144.0 L 676.8979684371703,144.0 L 683.0651506262049,133.31812710905837 L 689.2323328152394,144.0 Z"
       id="path31"
       style="vector-effect:non-scaling-stroke;-inkscape-stroke:hairline;stroke-width:0.26458333;stroke-dasharray:none" />
    <path
       d="M 688.6077132104252,130.11812710905838 L 707.2210728518195,130.1181271090584 L 699.2063698013782,144.0 L 696.6224162608665,144.0 L 688.6077132104252,130.11812710905838 Z"
       id="path32"
       style="vector-effect:non-scaling-stroke;-inkscape-stroke:hairline;stroke-width:0.26458333;stroke-dasharray:none" />
    <path
       d="M 718.9308176250744,144.0 L 706.5964532470053,144.0 L 712.7636354360399,133.31812710905837 L 718.9308176250744,144.0 Z"
       id="path33"
       style="vector-effect:non-scaling-stroke;-inkscape-stroke:hairline;stroke-width:0.26458333;stroke-dasharray:none" />
    <path
       d="M 718.3061980202602,130.11812710905838 L 736.9195576616545,130.1181271090584 L 728.9048546112132,144.0 L 726.3209010707016,144.0 L 718.3061980202602,130.11812710905838 Z"
       id="path34"
       style="vector-effect:non-scaling-stroke;-inkscape-stroke:hairline;stroke-width:0.26458333;stroke-dasharray:none" />
    <path
       d="M 748.6293024349094,144.0 L 736.2949380568404,144.0 L 742.4621202458749,133.31812710905837 L 748.6293024349094,144.0 Z"
       id="path35"
       style="vector-effect:non-scaling-stroke;-inkscape-stroke:hairline;stroke-width:0.26458333;stroke-dasharray:none" />
    <path
       d="M 748.0046828300952,130.11812710905838 L 766.6180424714895,130.1181271090584 L 758.6033394210482,144.0 L 756.0193858805366,144.0 L 748.0046828300952,130.11812710905838 Z"
       id="path36"
       style="vector-effect:non-scaling-stroke;-inkscape-stroke:hairline;stroke-width:0.26458333;stroke-dasharray:none" />
    <path
       d="M 778.3277872447444,144.0 L 765.9934228666754,144.0 L 772.1606050557099,133.31812710905837 L 778.3277872447444,144.0 Z"
       id="path37"
       style="vector-effect:non-scaling-stroke;-inkscape-stroke:hairline;stroke-width:0.26458333;stroke-dasharray:none" />
    <path
       d="M 777.7031676399303,130.11812710905838 L 796.3165272813245,130.1181271090584 L 788.3018242308832,144.0 L 785.7178706903716,144.0 L 777.7031676399303,130.11812710905838 Z"
       id="path38"
       style="vector-effect:non-scaling-stroke;-inkscape-stroke:hairline;stroke-width:0.26458333;stroke-dasharray:none" />
    <path
       d="M 808.0262720545794,144.0 L 795.6919076765104,144.0 L 801.8590898655449,133.31812710905837 L 808.0262720545794,144.0 Z"
       id="path39"
       style="vector-effect:non-scaling-stroke;-inkscape-stroke:hairline;stroke-width:0.26458333;stroke-dasharray:none" />
    <path
       d="M 807.4016524497653,130.11812710905838 L 826.0150120911595,130.1181271090584 L 818.0003090407182,144.0 L 815.4163555002066,144.0 L 807.4016524497653,130.11812710905838 Z"
       id="path40"
       style="vector-effect:non-scaling-stroke;-inkscape-stroke:hairline;stroke-width:0.26458333;stroke-dasharray:none" />
    <path
       d="M 837.7247568644143,144.0 L 825.3903924863453,144.0 L 831.5575746753798,133.31812710905837 L 837.7247568644143,144.0 Z"
       id="path41"
       style="vector-effect:non-scaling-stroke;-inkscape-stroke:hairline;stroke-width:0.26458333;stroke-dasharray:none" />
    <path
       d="M 837.1001372596002,130.11812710905838 L 855.7134969009944,130.1181271090584 L 847.6987938505531,144.0 L 845.1148403100415,144.0 L 837.1001372596002,130.11812710905838 Z"
       id="path42"
       style="vector-effect:non-scaling-stroke;-inkscape-stroke:hairline;stroke-width:0.26458333;stroke-dasharray:none" />
    <path
       d="M 867.4232416742493,144.0 L 855.0888772961803,144.0 L 861.2560594852148,133.31812710905837 L 867.4232416742493,144.0 Z"
       id="path43"
       style="vector-effect:non-scaling-stroke;-inkscape-stroke:hairline;stroke-width:0.26458333;stroke-dasharray:none" />
    <path
       d="M 866.7986220694352,130.11812710905838 L 885.4119817108294,130.1181271090584 L 877.3972786603881,144.0 L 874.8133251198765,144.0 L 866.7986220694352,130.11812710905838 Z"
       id="path44"
       style="vector-effect:non-scaling-stroke;-inkscape-stroke:hairline;stroke-width:0.26458333;stroke-dasharray:none" />
    <path
       d="M 897.1217264840843,144.0 L 884.7873621060153,144.0 L 890.9545442950498,133.31812710905837 L 897.1217264840843,144.0 Z"
       id="path45"
       style="vector-effect:non-scaling-stroke;-inkscape-stroke:hairline;stroke-width:0.26458333;stroke-dasharray:none" />
    <path
       d="M 896.4971068792702,130.11812710905838 L 915.1104665206644,130.1181271090584 L 907.0957634702231,144.0 L 904.5118099297115,144.0 L 896.4971068792702,130.11812710905838 Z"
       id="path46"
       style="vector-effect:non-scaling-stroke;-inkscape-stroke:hairline;stroke-width:0.26458333;stroke-dasharray:none" />
    <path
       d="M 926.8202112939193,144.0 L 914.4858469158503,144.0 L 920.6530291048848,133.31812710905837 L 926.8202112939193,144.0 Z"
       id="path47"
       style="vector-effect:non-scaling-stroke;-inkscape-stroke:hairline;stroke-width:0.26458333;stroke-dasharray:none" />
    <path
       d="M 926.1955916891052,130.11812710905838 L 944.8089513304994,130.1181271090584 L 936.7942482800581,144.0 L 934.2102947395465,144.0 L 926.1955916891052,130.11812710905838 Z"
       id="path48"
       style="vector-effect:non-scaling-stroke;-inkscape-stroke:hairline;stroke-width:0.26458333;stroke-dasharray:none" />
    <path
       d="M 956.5186961037543,144.0 L 944.1843317256853,144.0 L 950.3515139147198,133.31812710905837 L 956.5186961037543,144.0 Z"
       id="path49"
       style="vector-effect:non-scaling-stroke;-inkscape-stroke:hairline;stroke-width:0.26458333;stroke-dasharray:none" />
    <path
       d="M 955.8940764989402,130.11812710905838 L 974.5074361403344,130.1181271090584 L 966.4927330898931,144.0 L 963.9087795493815,144.0 L 955.8940764989402,130.11812710905838 Z"
       id="path50"
       style="vector-effect:non-scaling-stroke;-inkscape-stroke:hairline;stroke-width:0.26458333;stroke-dasharray:none" />
    <path
       d="M 986.2171809135893,144.0 L 973.8828165355203,144.0 L 980.0499987245548,133.31812710905837 L 986.2171809135893,144.0 Z"
       id="path51"
       style="vector-effect:non-scaling-stroke;-inkscape-stroke:hairline;stroke-width:0.26458333;stroke-dasharray:none" />
    <path
       d="M 985.5925613087752,130.11812710905838 L 1004.2059209501695,130.1181271090584 L 996.1912178997281,144.0 L 993.6072643592165,144.0 L 985.5925613087752,130.11812710905838 Z"
       id="path52"
       style="vector-effect:non-scaling-stroke;-inkscape-stroke:hairline;stroke-width:0.26458333;stroke-dasharray:none" />
    <path
       d="M 1015.9156657234244,144.0 L 1003.5813013453553,144.0 L 1009.7484835343898,133.31812710905837 L 1015.9156657234244,144.0 Z"
       id="path53"
       style="vector-effect:non-scaling-stroke;-inkscape-stroke:hairline;stroke-width:0.26458333;stroke-dasharray:none" />
    <path
       d="M 1015.2910461186102,130.11812710905838 L 1033.9044057600045,130.1181271090584 L 1025.8897027095632,144.0 L 1023.3057491690515,144.0 L 1015.2910461186102,130.11812710905838 Z"
       id="path54"
       style="vector-effect:non-scaling-stroke;-inkscape-stroke:hairline;stroke-width:0.26458333;stroke-dasharray:none" />
    <path
       d="M 1045.6141505332594,144.0 L 1033.2797861551903,144.0 L 1039.4469683442248,133.31812710905837 L 1045.6141505332594,144.0 Z"
       id="path55"
       style="vector-effect:non-scaling-stroke;-inkscape-stroke:hairline;stroke-width:0.26458333;stroke-dasharray:none" />
    <path
       d="M 1044.9895309284452,130.11812710905838 L 1063.6028905698395,130.1181271090584 L 1055.5881875193982,144.0 L 1053.0042339788865,144.0 L 1044.9895309284452,130.11812710905838 Z"
       id="path56"
       style="vector-effect:non-scaling-stroke;-inkscape-stroke:hairline;stroke-width:0.26458333;stroke-dasharray:none" />
    <path
       d="M 1075.3126353430944,144.0 L 1062.9782709650253,144.0 L 1069.1454531540599,133.31812710905837 L 1075.3126353430944,144.0 Z"
       id="path57"
       style="vector-effect:non-scaling-stroke;-inkscape-stroke:hairline;stroke-width:0.26458333;stroke-dasharray:none" />
    <path
       d="M 1074.6880157382802,130.11812710905838 L 1093.3013753796745,130.1181271090584 L 1085.2866723292332,144.0 L 1082.7027187887215,144.0 L 1074.6880157382802,130.11812710905838 Z"
       id="path58"
       style="vector-effect:non-scaling-stroke;-inkscape-stroke:hairline;stroke-width:0.26458333;stroke-dasharray:none" />
    <path
       d="M 1105.0111201529294,144.0 L 1092.6767557748603,144.0 L 1098.8439379638949,133.31812710905837 L 1105.0111201529294,144.0 Z"
       id="path59"
       style="vector-effect:non-scaling-stroke;-inkscape-stroke:hairline;stroke-width:0.26458333;stroke-dasharray:none" />
    <path
       d="M 234.38787847867997,123.7181271090584 L 229.21590822128735,123.7181271090584 L 229.21590822128735,100.41964229922341 L 234.38787847867997,100.41964229922341 L 234.38787847867997,123.7181271090584 Z"
       id="path60"
       style="vector-effect:non-scaling-stroke;-inkscape-stroke:hairline;stroke-width:0.26458333;stroke-dasharray:none" />
    <path
       d="M 229.21590822128735,76.31896445396387 L 229.21590822128735,74.70000000000002 L 246.89455829937705,74.70000000000003 L 237.58787847867995,90.81964229922337 L 229.21590822128735,76.31896445396387 Z"
       id="path61"
       style="vector-effect:non-scaling-stroke;-inkscape-stroke:hairline;stroke-width:0.26458333;stroke-dasharray:none" />
    <path
       d="M 264.086363288515,100.41964229922341 L 264.086363288515,123.7181271090584 L 240.78787847867994,123.7181271090584 L 240.78787847867994,100.4196422992234 L 264.086363288515,100.41964229922341 Z"
       id="path62"
       style="vector-effect:non-scaling-stroke;-inkscape-stroke:hairline;stroke-width:0.26458333;stroke-dasharray:none" />
    <path
       d="M 293.78484809835,100.41964229922341 L 293.78484809835,123.7181271090584 L 270.48636328851495,123.7181271090584 L 270.48636328851495,100.4196422992234 L 293.78484809835,100.41964229922341 Z"
       id="path63"
       style="vector-effect:non-scaling-stroke;-inkscape-stroke:hairline;stroke-width:0.26458333;stroke-dasharray:none" />
    <path
       d="M 252.43712088359746,77.90000000000003 L 261.7438007042946,94.0196422992234 L 243.13044106290036,94.01964229922339 L 252.43712088359746,77.90000000000003 Z"
       id="path64"
       style="vector-effect:non-scaling-stroke;-inkscape-stroke:hairline;stroke-width:0.26458333;stroke-dasharray:none" />
    <path
       d="M 267.28636328851496,90.81964229922342 L 257.9796834678179,74.70000000000002 L 276.5930431092121,74.70000000000003 L 267.28636328851496,90.81964229922342 Z"
       id="path65"
       style="vector-effect:non-scaling-stroke;-inkscape-stroke:hairline;stroke-width:0.26458333;stroke-dasharray:none" />
    <path
       d="M 282.13560569343247,77.89999999999999 L 291.4422855141296,94.0196422992234 L 272.82892587273534,94.01964229922339 L 282.13560569343247,77.89999999999999 Z"
       id="path66"
       style="vector-effect:non-scaling-stroke;-inkscape-stroke:hairline;stroke-width:0.26458333;stroke-dasharray:none" />
    <path
       d="M 296.98484809834997,90.81964229922343 L 287.67816827765284,74.70000000000002 L 306.2915279190471,74.70000000000003 L 296.98484809834997,90.81964229922343 Z"
       id="path67"
       style="vector-effect:non-scaling-stroke;-inkscape-stroke:hairline;stroke-width:0.26458333;stroke-dasharray:none" />
    <path
       d="M 323.483332908185,100.41964229922341 L 323.483332908185,123.7181271090584 L 300.18484809834996,123.7181271090584 L 300.18484809834996,100.4196422992234 L 323.483332908185,100.41964229922341 Z"
       id="path68"
       style="vector-effect:non-scaling-stroke;-inkscape-stroke:hairline;stroke-width:0.26458333;stroke-dasharray:none" />
    <path
       d="M 353.18181771802,100.41964229922341 L 353.18181771802,123.7181271090584 L 329.88333290818497,123.7181271090584 L 329.88333290818497,100.4196422992234 L 353.18181771802,100.41964229922341 Z"
       id="path69"
       style="vector-effect:non-scaling-stroke;-inkscape-stroke:hairline;stroke-width:0.26458333;stroke-dasharray:none" />
    <path
       d="M 311.8340905032675,77.89999999999999 L 321.1407703239646,94.0196422992234 L 302.52741068257035,94.01964229922339 L 311.8340905032675,77.89999999999999 Z"
       id="path70"
       style="vector-effect:non-scaling-stroke;-inkscape-stroke:hairline;stroke-width:0.26458333;stroke-dasharray:none" />
    <path
       d="M 326.683332908185,90.81964229922343 L 317.37665308748785,74.70000000000002 L 335.9900127288821,74.70000000000003 L 326.683332908185,90.81964229922343 Z"
       id="path71"
       style="vector-effect:non-scaling-stroke;-inkscape-stroke:hairline;stroke-width:0.26458333;stroke-dasharray:none" />
    <path
       d="M 341.5325753131025,77.89999999999999 L 350.8392551337996,94.0196422992234 L 332.22589549240536,94.01964229922339 L 341.5325753131025,77.89999999999999 Z"
       id="path72"
       style="vector-effect:non-scaling-stroke;-inkscape-stroke:hairline;stroke-width:0.26458333;stroke-dasharray:none" />
    <path
       d="M 356.38181771802,90.81964229922343 L 347.07513789732286,74.70000000000002 L 365.6884975387171,74.70000000000003 L 356.38181771802,90.81964229922343 Z"
       id="path73"
       style="vector-effect:non-scaling-stroke;-inkscape-stroke:hairline;stroke-width:0.26458333;stroke-dasharray:none" />
    <path
       d="M 382.88030252785495,100.41964229922341 L 382.88030252785495,123.7181271090584 L 359.5818177180199,123.7181271090584 L 359.5818177180199,100.4196422992234 L 382.88030252785495,100.41964229922341 Z"
       id="path74"
       style="vector-effect:non-scaling-stroke;-inkscape-stroke:hairline;stroke-width:0.26458333;stroke-dasharray:none" />
    <path
       d="M 412.57878733768996,100.41964229922341 L 412.5787873376899,123.7181271090584 L 389.28030252785493,123.7181271090584 L 389.28030252785493,100.4196422992234 L 412.57878733768996,100.41964229922341 Z"
       id="path75"
       style="vector-effect:non-scaling-stroke;-inkscape-stroke:hairline;stroke-width:0.26458333;stroke-dasharray:none" />
    <path
       d="M 371.23106012293744,77.89999999999999 L 380.53773994363456,94.0196422992234 L 361.9243803022403,94.01964229922339 L 371.23106012293744,77.89999999999999 Z"
       id="path76"
       style="vector-effect:non-scaling-stroke;-inkscape-stroke:hairline;stroke-width:0.26458333;stroke-dasharray:none" />
    <path
       d="M 386.08030252785494,90.81964229922343 L 376.7736227071578,74.70000000000002 L 395.38698234855207,74.70000000000003 L 386.08030252785494,90.81964229922343 Z"
       id="path77"
       style="vector-effect:non-scaling-stroke;-inkscape-stroke:hairline;stroke-width:0.26458333;stroke-dasharray:none" />
    <path
       d="M 400.92954493277244,77.89999999999999 L 410.23622475346957,94.0196422992234 L 391.6228651120753,94.01964229922339 L 400.92954493277244,77.89999999999999 Z"
       id="path78"
       style="vector-effect:non-scaling-stroke;-inkscape-stroke:hairline;stroke-width:0.26458333;stroke-dasharray:none" />
    <path
       d="M 415.7787873376899,90.81964229922342 L 406.4721075169928,74.70000000000002 L 425.085467158387,74.70000000000003 L 415.7787873376899,90.81964229922342 Z"
       id="path79"
       style="vector-effect:non-scaling-stroke;-inkscape-stroke:hairline;stroke-width:0.26458333;stroke-dasharray:none" />
    <path
       d="M 442.2772721475249,100.41964229922341 L 442.2772721475249,123.7181271090584 L 418.9787873376899,123.7181271090584 L 418.9787873376899,100.4196422992234 L 442.2772721475249,100.41964229922341 Z"
       id="path80"
       style="vector-effect:non-scaling-stroke;-inkscape-stroke:hairline;stroke-width:0.26458333;stroke-dasharray:none" />
    <path
       d="M 471.9757569573599,100.41964229922341 L 471.9757569573599,123.7181271090584 L 448.6772721475249,123.7181271090584 L 448.6772721475249,100.4196422992234 L 471.9757569573599,100.41964229922341 Z"
       id="path81"
       style="vector-effect:non-scaling-stroke;-inkscape-stroke:hairline;stroke-width:0.26458333;stroke-dasharray:none" />
    <path
       d="M 430.6280297426074,77.89999999999999 L 439.9347095633045,94.0196422992234 L 421.32134992191027,94.01964229922339 L 430.6280297426074,77.89999999999999 Z"
       id="path82"
       style="vector-effect:non-scaling-stroke;-inkscape-stroke:hairline;stroke-width:0.26458333;stroke-dasharray:none" />
    <path
       d="M 445.4772721475249,90.81964229922343 L 436.1705923268278,74.70000000000002 L 454.783951968222,74.70000000000003 L 445.4772721475249,90.81964229922343 Z"
       id="path83"
       style="vector-effect:non-scaling-stroke;-inkscape-stroke:hairline;stroke-width:0.26458333;stroke-dasharray:none" />
    <path
       d="M 460.3265145524424,77.89999999999999 L 469.63319437313953,94.0196422992234 L 451.0198347317453,94.01964229922339 L 460.3265145524424,77.89999999999999 Z"
       id="path84"
       style="vector-effect:non-scaling-stroke;-inkscape-stroke:hairline;stroke-width:0.26458333;stroke-dasharray:none" />
    <path
       d="M 475.1757569573599,90.81964229922343 L 465.8690771366628,74.70000000000002 L 484.48243677805704,74.70000000000003 L 475.1757569573599,90.81964229922343 Z"
       id="path85"
       style="vector-effect:non-scaling-stroke;-inkscape-stroke:hairline;stroke-width:0.26458333;stroke-dasharray:none" />
    <path
       d="M 501.6742417671949,100.41964229922341 L 501.6742417671949,123.7181271090584 L 478.3757569573599,123.7181271090584 L 478.3757569573599,100.4196422992234 L 501.6742417671949,100.41964229922341 Z"
       id="path86"
       style="vector-effect:non-scaling-stroke;-inkscape-stroke:hairline;stroke-width:0.26458333;stroke-dasharray:none" />
    <path
       d="M 531.3727265770299,100.41964229922341 L 531.3727265770299,123.7181271090584 L 508.0742417671949,123.7181271090584 L 508.0742417671949,100.4196422992234 L 531.3727265770299,100.41964229922341 Z"
       id="path87"
       style="vector-effect:non-scaling-stroke;-inkscape-stroke:hairline;stroke-width:0.26458333;stroke-dasharray:none" />
    <path
       d="M 490.0249993622774,77.89999999999999 L 499.33167918297454,94.0196422992234 L 480.7183195415803,94.01964229922339 L 490.0249993622774,77.89999999999999 Z"
       id="path88"
       style="vector-effect:non-scaling-stroke;-inkscape-stroke:hairline;stroke-width:0.26458333;stroke-dasharray:none" />
    <path
       d="M 504.8742417671949,90.81964229922343 L 495.5675619464978,74.70000000000002 L 514.180921587892,74.70000000000003 L 504.8742417671949,90.81964229922343 Z"
       id="path89"
       style="vector-effect:non-scaling-stroke;-inkscape-stroke:hairline;stroke-width:0.26458333;stroke-dasharray:none" />
    <path
       d="M 519.7234841721124,77.89999999999999 L 529.0301639928095,94.0196422992234 L 510.4168043514153,94.01964229922339 L 519.7234841721124,77.89999999999999 Z"
       id="path90"
       style="vector-effect:non-scaling-stroke;-inkscape-stroke:hairline;stroke-width:0.26458333;stroke-dasharray:none" />
    <path
       d="M 534.5727265770299,90.81964229922343 L 525.2660467563328,74.70000000000002 L 543.879406397727,74.70000000000003 L 534.5727265770299,90.81964229922343 Z"
       id="path91"
       style="vector-effect:non-scaling-stroke;-inkscape-stroke:hairline;stroke-width:0.26458333;stroke-dasharray:none" />
    <path
       d="M 561.0712113868649,100.41964229922341 L 561.0712113868649,123.7181271090584 L 537.77272657703,123.7181271090584 L 537.77272657703,100.4196422992234 L 561.0712113868649,100.41964229922341 Z"
       id="path92"
       style="vector-effect:non-scaling-stroke;-inkscape-stroke:hairline;stroke-width:0.26458333;stroke-dasharray:none" />
    <path
       d="M 590.7696961966999,100.41964229922341 L 590.7696961966999,123.7181271090584 L 567.471211386865,123.7181271090584 L 567.471211386865,100.4196422992234 L 590.7696961966999,100.41964229922341 Z"
       id="path93"
       style="vector-effect:non-scaling-stroke;-inkscape-stroke:hairline;stroke-width:0.26458333;stroke-dasharray:none" />
    <path
       d="M 549.4219689819474,77.89999999999999 L 558.7286488026446,94.0196422992234 L 540.1152891612503,94.01964229922339 L 549.4219689819474,77.89999999999999 Z"
       id="path94"
       style="vector-effect:non-scaling-stroke;-inkscape-stroke:hairline;stroke-width:0.26458333;stroke-dasharray:none" />
    <path
       d="M 564.2712113868649,90.81964229922343 L 554.9645315661678,74.70000000000002 L 573.5778912075621,74.70000000000003 L 564.2712113868649,90.81964229922343 Z"
       id="path95"
       style="vector-effect:non-scaling-stroke;-inkscape-stroke:hairline;stroke-width:0.26458333;stroke-dasharray:none" />
    <path
       d="M 579.1204537917824,77.89999999999999 L 588.4271336124796,94.0196422992234 L 569.8137739710853,94.01964229922339 L 579.1204537917824,77.89999999999999 Z"
       id="path96"
       style="vector-effect:non-scaling-stroke;-inkscape-stroke:hairline;stroke-width:0.26458333;stroke-dasharray:none" />
    <path
       d="M 593.9696961966999,90.81964229922343 L 584.6630163760028,74.70000000000002 L 603.2763760173971,74.70000000000003 L 593.9696961966999,90.81964229922343 Z"
       id="path97"
       style="vector-effect:non-scaling-stroke;-inkscape-stroke:hairline;stroke-width:0.26458333;stroke-dasharray:none" />
    <path
       d="M 620.4681810065349,100.41964229922341 L 620.4681810065349,123.7181271090584 L 597.1696961967,123.7181271090584 L 597.1696961967,100.4196422992234 L 620.4681810065349,100.41964229922341 Z"
       id="path98"
       style="vector-effect:non-scaling-stroke;-inkscape-stroke:hairline;stroke-width:0.26458333;stroke-dasharray:none" />
    <path
       d="M 650.1666658163699,100.41964229922341 L 650.1666658163699,123.7181271090584 L 626.868181006535,123.7181271090584 L 626.868181006535,100.4196422992234 L 650.1666658163699,100.41964229922341 Z"
       id="path99"
       style="vector-effect:non-scaling-stroke;-inkscape-stroke:hairline;stroke-width:0.26458333;stroke-dasharray:none" />
    <path
       d="M 608.8189386016174,77.89999999999999 L 618.1256184223146,94.0196422992234 L 599.5122587809203,94.01964229922339 L 608.8189386016174,77.89999999999999 Z"
       id="path100"
       style="vector-effect:non-scaling-stroke;-inkscape-stroke:hairline;stroke-width:0.26458333;stroke-dasharray:none" />
    <path
       d="M 623.668181006535,90.81964229922343 L 614.3615011858378,74.70000000000002 L 632.9748608272321,74.70000000000003 L 623.668181006535,90.81964229922343 Z"
       id="path101"
       style="vector-effect:non-scaling-stroke;-inkscape-stroke:hairline;stroke-width:0.26458333;stroke-dasharray:none" />
    <path
       d="M 638.5174234114525,77.89999999999999 L 647.8241032321496,94.0196422992234 L 629.2107435907553,94.01964229922339 L 638.5174234114525,77.89999999999999 Z"
       id="path102"
       style="vector-effect:non-scaling-stroke;-inkscape-stroke:hairline;stroke-width:0.26458333;stroke-dasharray:none" />
    <path
       d="M 653.36666581637,90.81964229922343 L 644.0599859956728,74.70000000000002 L 662.6733456370671,74.70000000000003 L 653.36666581637,90.81964229922343 Z"
       id="path103"
       style="vector-effect:non-scaling-stroke;-inkscape-stroke:hairline;stroke-width:0.26458333;stroke-dasharray:none" />
    <path
       d="M 679.8651506262048,100.41964229922341 L 679.8651506262048,123.7181271090584 L 656.5666658163699,123.7181271090584 L 656.5666658163699,100.4196422992234 L 679.8651506262048,100.41964229922341 Z"
       id="path104"
       style="vector-effect:non-scaling-stroke;-inkscape-stroke:hairline;stroke-width:0.26458333;stroke-dasharray:none" />
    <path
       d="M 709.5636354360398,100.41964229922341 L 709.5636354360398,123.7181271090584 L 686.2651506262049,123.7181271090584 L 686.2651506262049,100.4196422992234 L 709.5636354360398,100.41964229922341 Z"
       id="path105"
       style="vector-effect:non-scaling-stroke;-inkscape-stroke:hairline;stroke-width:0.26458333;stroke-dasharray:none" />
    <path
       d="M 668.2159082212873,77.89999999999999 L 677.5225880419845,94.0196422992234 L 658.9092284005902,94.01964229922339 L 668.2159082212873,77.89999999999999 Z"
       id="path106"
       style="vector-effect:non-scaling-stroke;-inkscape-stroke:hairline;stroke-width:0.26458333;stroke-dasharray:none" />
    <path
       d="M 683.0651506262049,90.81964229922343 L 673.7584708055077,74.70000000000002 L 692.371830446902,74.70000000000003 L 683.0651506262049,90.81964229922343 Z"
       id="path107"
       style="vector-effect:non-scaling-stroke;-inkscape-stroke:hairline;stroke-width:0.26458333;stroke-dasharray:none" />
    <path
       d="M 697.9143930311224,77.89999999999999 L 707.2210728518195,94.0196422992234 L 688.6077132104252,94.01964229922339 L 697.9143930311224,77.89999999999999 Z"
       id="path108"
       style="vector-effect:non-scaling-stroke;-inkscape-stroke:hairline;stroke-width:0.26458333;stroke-dasharray:none" />
    <path
       d="M 712.7636354360399,90.81964229922343 L 703.4569556153427,74.70000000000002 L 722.070315256737,74.70000000000003 L 712.7636354360399,90.81964229922343 Z"
       id="path109"
       style="vector-effect:non-scaling-stroke;-inkscape-stroke:hairline;stroke-width:0.26458333;stroke-dasharray:none" />
    <path
       d="M 739.2621202458748,100.41964229922341 L 739.2621202458748,123.7181271090584 L 715.9636354360399,123.7181271090584 L 715.9636354360399,100.4196422992234 L 739.2621202458748,100.41964229922341 Z"
       id="path110"
       style="vector-effect:non-scaling-stroke;-inkscape-stroke:hairline;stroke-width:0.26458333;stroke-dasharray:none" />
    <path
       d="M 768.9606050557098,100.41964229922341 L 768.9606050557098,123.7181271090584 L 745.6621202458749,123.7181271090584 L 745.6621202458749,100.4196422992234 L 768.9606050557098,100.41964229922341 Z"
       id="path111"
       style="vector-effect:non-scaling-stroke;-inkscape-stroke:hairline;stroke-width:0.26458333;stroke-dasharray:none" />
    <path
       d="M 727.6128778409574,77.89999999999999 L 736.9195576616545,94.0196422992234 L 718.3061980202602,94.01964229922339 L 727.6128778409574,77.89999999999999 Z"
       id="path112"
       style="vector-effect:non-scaling-stroke;-inkscape-stroke:hairline;stroke-width:0.26458333;stroke-dasharray:none" />
    <path
       d="M 742.4621202458749,90.81964229922343 L 733.1554404251777,74.70000000000002 L 751.768800066572,74.70000000000003 L 742.4621202458749,90.81964229922343 Z"
       id="path113"
       style="vector-effect:non-scaling-stroke;-inkscape-stroke:hairline;stroke-width:0.26458333;stroke-dasharray:none" />
    <path
       d="M 757.3113626507924,77.89999999999999 L 766.6180424714895,94.0196422992234 L 748.0046828300952,94.01964229922339 L 757.3113626507924,77.89999999999999 Z"
       id="path114"
       style="vector-effect:non-scaling-stroke;-inkscape-stroke:hairline;stroke-width:0.26458333;stroke-dasharray:none" />
    <path
       d="M 772.1606050557099,90.81964229922343 L 762.8539252350128,74.70000000000002 L 781.467284876407,74.70000000000003 L 772.1606050557099,90.81964229922343 Z"
       id="path115"
       style="vector-effect:non-scaling-stroke;-inkscape-stroke:hairline;stroke-width:0.26458333;stroke-dasharray:none" />
    <path
       d="M 798.6590898655448,100.41964229922341 L 798.6590898655448,123.7181271090584 L 775.3606050557099,123.7181271090584 L 775.3606050557099,100.4196422992234 L 798.6590898655448,100.41964229922341 Z"
       id="path116"
       style="vector-effect:non-scaling-stroke;-inkscape-stroke:hairline;stroke-width:0.26458333;stroke-dasharray:none" />
    <path
       d="M 828.3575746753799,100.41964229922341 L 828.3575746753799,123.7181271090584 L 805.0590898655449,123.7181271090584 L 805.0590898655449,100.4196422992234 L 828.3575746753799,100.41964229922341 Z"
       id="path117"
       style="vector-effect:non-scaling-stroke;-inkscape-stroke:hairline;stroke-width:0.26458333;stroke-dasharray:none" />
    <path
       d="M 787.0098474606274,77.89999999999999 L 796.3165272813245,94.0196422992234 L 777.7031676399303,94.01964229922339 L 787.0098474606274,77.89999999999999 Z"
       id="path118"
       style="vector-effect:non-scaling-stroke;-inkscape-stroke:hairline;stroke-width:0.26458333;stroke-dasharray:none" />
    <path
       d="M 801.8590898655449,90.81964229922343 L 792.5524100448478,74.70000000000002 L 811.165769686242,74.70000000000003 L 801.8590898655449,90.81964229922343 Z"
       id="path119"
       style="vector-effect:non-scaling-stroke;-inkscape-stroke:hairline;stroke-width:0.26458333;stroke-dasharray:none" />
    <path
       d="M 816.7083322704624,77.89999999999999 L 826.0150120911595,94.0196422992234 L 807.4016524497653,94.01964229922339 L 816.7083322704624,77.89999999999999 Z"
       id="path120"
       style="vector-effect:non-scaling-stroke;-inkscape-stroke:hairline;stroke-width:0.26458333;stroke-dasharray:none" />
    <path
       d="M 831.5575746753799,90.81964229922343 L 822.2508948546828,74.70000000000002 L 840.864254496077,74.70000000000003 L 831.5575746753799,90.81964229922343 Z"
       id="path121"
       style="vector-effect:non-scaling-stroke;-inkscape-stroke:hairline;stroke-width:0.26458333;stroke-dasharray:none" />
    <path
       d="M 858.0560594852147,100.41964229922341 L 858.0560594852147,123.7181271090584 L 834.7575746753798,123.7181271090584 L 834.7575746753798,100.4196422992234 L 858.0560594852147,100.41964229922341 Z"
       id="path122"
       style="vector-effect:non-scaling-stroke;-inkscape-stroke:hairline;stroke-width:0.26458333;stroke-dasharray:none" />
    <path
       d="M 887.7545442950498,100.41964229922341 L 887.7545442950498,123.7181271090584 L 864.4560594852148,123.7181271090584 L 864.4560594852148,100.4196422992234 L 887.7545442950498,100.41964229922341 Z"
       id="path123"
       style="vector-effect:non-scaling-stroke;-inkscape-stroke:hairline;stroke-width:0.26458333;stroke-dasharray:none" />
    <path
       d="M 846.4068170802973,77.89999999999999 L 855.7134969009944,94.0196422992234 L 837.1001372596002,94.01964229922339 L 846.4068170802973,77.89999999999999 Z"
       id="path124"
       style="vector-effect:non-scaling-stroke;-inkscape-stroke:hairline;stroke-width:0.26458333;stroke-dasharray:none" />
    <path
       d="M 861.2560594852148,90.81964229922343 L 851.9493796645177,74.70000000000002 L 870.5627393059119,74.70000000000003 L 861.2560594852148,90.81964229922343 Z"
       id="path125"
       style="vector-effect:non-scaling-stroke;-inkscape-stroke:hairline;stroke-width:0.26458333;stroke-dasharray:none" />
    <path
       d="M 876.1053018901323,77.89999999999999 L 885.4119817108294,94.0196422992234 L 866.7986220694352,94.01964229922339 L 876.1053018901323,77.89999999999999 Z"
       id="path126"
       style="vector-effect:non-scaling-stroke;-inkscape-stroke:hairline;stroke-width:0.26458333;stroke-dasharray:none" />
    <path
       d="M 890.9545442950498,90.81964229922343 L 881.6478644743527,74.70000000000002 L 900.2612241157469,74.70000000000003 L 890.9545442950498,90.81964229922343 Z"
       id="path127"
       style="vector-effect:non-scaling-stroke;-inkscape-stroke:hairline;stroke-width:0.26458333;stroke-dasharray:none" />
    <path
       d="M 917.4530291048848,100.41964229922341 L 917.4530291048848,123.7181271090584 L 894.1545442950498,123.7181271090584 L 894.1545442950498,100.4196422992234 L 917.4530291048848,100.41964229922341 Z"
       id="path128"
       style="vector-effect:non-scaling-stroke;-inkscape-stroke:hairline;stroke-width:0.26458333;stroke-dasharray:none" />
    <path
       d="M 947.1515139147198,100.41964229922341 L 947.1515139147198,123.7181271090584 L 923.8530291048849,123.7181271090584 L 923.8530291048849,100.4196422992234 L 947.1515139147198,100.41964229922341 Z"
       id="path129"
       style="vector-effect:non-scaling-stroke;-inkscape-stroke:hairline;stroke-width:0.26458333;stroke-dasharray:none" />
    <path
       d="M 905.8037866999673,77.89999999999999 L 915.1104665206644,94.0196422992234 L 896.4971068792702,94.01964229922339 L 905.8037866999673,77.89999999999999 Z"
       id="path130"
       style="vector-effect:non-scaling-stroke;-inkscape-stroke:hairline;stroke-width:0.26458333;stroke-dasharray:none" />
    <path
       d="M 920.6530291048848,90.81964229922343 L 911.3463492841877,74.70000000000002 L 929.9597089255819,74.70000000000003 L 920.6530291048848,90.81964229922343 Z"
       id="path131"
       style="vector-effect:non-scaling-stroke;-inkscape-stroke:hairline;stroke-width:0.26458333;stroke-dasharray:none" />
    <path
       d="M 935.5022715098023,77.89999999999999 L 944.8089513304994,94.0196422992234 L 926.1955916891052,94.01964229922339 L 935.5022715098023,77.89999999999999 Z"
       id="path132"
       style="vector-effect:non-scaling-stroke;-inkscape-stroke:hairline;stroke-width:0.26458333;stroke-dasharray:none" />
    <path
       d="M 950.3515139147198,90.81964229922343 L 941.0448340940227,74.70000000000002 L 959.658193735417,74.70000000000003 L 950.3515139147198,90.81964229922343 Z"
       id="path133"
       style="vector-effect:non-scaling-stroke;-inkscape-stroke:hairline;stroke-width:0.26458333;stroke-dasharray:none" />
    <path
       d="M 976.8499987245548,100.41964229922341 L 976.8499987245548,123.7181271090584 L 953.5515139147199,123.7181271090584 L 953.5515139147199,100.4196422992234 L 976.8499987245548,100.41964229922341 Z"
       id="path134"
       style="vector-effect:non-scaling-stroke;-inkscape-stroke:hairline;stroke-width:0.26458333;stroke-dasharray:none" />
    <path
       d="M 1006.5484835343898,100.41964229922341 L 1006.5484835343898,123.7181271090584 L 983.2499987245549,123.7181271090584 L 983.2499987245549,100.4196422992234 L 1006.5484835343898,100.41964229922341 Z"
       id="path135"
       style="vector-effect:non-scaling-stroke;-inkscape-stroke:hairline;stroke-width:0.26458333;stroke-dasharray:none" />
    <path
       d="M 965.2007563196373,77.89999999999999 L 974.5074361403344,94.0196422992234 L 955.8940764989402,94.01964229922339 L 965.2007563196373,77.89999999999999 Z"
       id="path136"
       style="vector-effect:non-scaling-stroke;-inkscape-stroke:hairline;stroke-width:0.26458333;stroke-dasharray:none" />
    <path
       d="M 980.0499987245548,90.81964229922343 L 970.7433189038577,74.70000000000002 L 989.356678545252,74.70000000000003 L 980.0499987245548,90.81964229922343 Z"
       id="path137"
       style="vector-effect:non-scaling-stroke;-inkscape-stroke:hairline;stroke-width:0.26458333;stroke-dasharray:none" />
    <path
       d="M 994.8992411294723,77.89999999999999 L 1004.2059209501695,94.0196422992234 L 985.5925613087752,94.01964229922339 L 994.8992411294723,77.89999999999999 Z"
       id="path138"
       style="vector-effect:non-scaling-stroke;-inkscape-stroke:hairline;stroke-width:0.26458333;stroke-dasharray:none" />
    <path
       d="M 1009.7484835343898,90.81964229922343 L 1000.4418037136927,74.70000000000002 L 1019.055163355087,74.70000000000003 L 1009.7484835343898,90.81964229922343 Z"
       id="path139"
       style="vector-effect:non-scaling-stroke;-inkscape-stroke:hairline;stroke-width:0.26458333;stroke-dasharray:none" />
    <path
       d="M 1036.2469683442248,100.41964229922341 L 1036.2469683442248,123.7181271090584 L 1012.9484835343899,123.7181271090584 L 1012.9484835343899,100.4196422992234 L 1036.2469683442248,100.41964229922341 Z"
       id="path140"
       style="vector-effect:non-scaling-stroke;-inkscape-stroke:hairline;stroke-width:0.26458333;stroke-dasharray:none" />
    <path
       d="M 1065.9454531540598,100.41964229922341 L 1065.9454531540598,123.7181271090584 L 1042.646968344225,123.7181271090584 L 1042.646968344225,100.4196422992234 L 1065.9454531540598,100.41964229922341 Z"
       id="path141"
       style="vector-effect:non-scaling-stroke;-inkscape-stroke:hairline;stroke-width:0.26458333;stroke-dasharray:none" />
    <path
       d="M 1024.5977259393073,77.89999999999999 L 1033.9044057600045,94.0196422992234 L 1015.2910461186102,94.01964229922339 L 1024.5977259393073,77.89999999999999 Z"
       id="path142"
       style="vector-effect:non-scaling-stroke;-inkscape-stroke:hairline;stroke-width:0.26458333;stroke-dasharray:none" />
    <path
       d="M 1039.4469683442248,90.81964229922343 L 1030.1402885235277,74.70000000000002 L 1048.753648164922,74.70000000000003 L 1039.4469683442248,90.81964229922343 Z"
       id="path143"
       style="vector-effect:non-scaling-stroke;-inkscape-stroke:hairline;stroke-width:0.26458333;stroke-dasharray:none" />
    <path
       d="M 1054.2962107491423,77.89999999999999 L 1063.6028905698395,94.0196422992234 L 1044.9895309284452,94.01964229922339 L 1054.2962107491423,77.89999999999999 Z"
       id="path144"
       style="vector-effect:non-scaling-stroke;-inkscape-stroke:hairline;stroke-width:0.26458333;stroke-dasharray:none" />
    <path
       d="M 1069.1454531540599,90.81964229922343 L 1059.8387733333627,74.70000000000002 L 1078.452132974757,74.70000000000003 L 1069.1454531540599,90.81964229922343 Z"
       id="path145"
       style="vector-effect:non-scaling-stroke;-inkscape-stroke:hairline;stroke-width:0.26458333;stroke-dasharray:none" />
    <path
       d="M 1095.6439379638948,100.41964229922341 L 1095.6439379638948,123.7181271090584 L 1072.34545315406,123.7181271090584 L 1072.34545315406,100.4196422992234 L 1095.6439379638948,100.41964229922341 Z"
       id="path146"
       style="vector-effect:non-scaling-stroke;-inkscape-stroke:hairline;stroke-width:0.26458333;stroke-dasharray:none" />
    <path
       d="M 1102.043937963895,123.7181271090584 L 1102.043937963895,100.4196422992234 L 1107.2159082212875,100.4196422992234 L 1107.2159082212875,123.7181271090584 L 1102.043937963895,123.7181271090584 Z"
       id="path147"
       style="vector-effect:non-scaling-stroke;-inkscape-stroke:hairline;stroke-width:0.26458333;stroke-dasharray:none" />
    <path
       d="M 1083.9946955589774,77.89999999999999 L 1093.3013753796745,94.0196422992234 L 1074.6880157382802,94.01964229922339 L 1083.9946955589774,77.89999999999999 Z"
       id="path148"
       style="vector-effect:non-scaling-stroke;-inkscape-stroke:hairline;stroke-width:0.26458333;stroke-dasharray:none" />
    <path
       d="M 1089.5372581431977,74.70000000000002 L 1107.2159082212875,74.70000000000003 L 1107.2159082212875,76.31896445396399 L 1098.8439379638949,90.81964229922343 L 1089.5372581431977,74.70000000000002 Z"
       id="path149"
       style="vector-effect:non-scaling-stroke;-inkscape-stroke:hairline;stroke-width:0.26458333;stroke-dasharray:none" />
    <path
       d="M 249.23712088359747,68.30000000000003 L 229.21590822128735,68.30000000000001 L 229.21590822128735,45.00151519016502 L 249.23712088359747,45.00151519016502 L 249.23712088359747,68.30000000000003 Z"
       id="path150"
       style="vector-effect:non-scaling-stroke;-inkscape-stroke:hairline;stroke-width:0.26458333;stroke-dasharray:none" />
    <path
       d="M 246.89455829937702,38.60151519016503 L 229.21590822128735,38.60151519016503 L 229.21590822128735,36.98255073620109 L 236.71138738360102,24.0 L 238.46436957375883,24.0 L 246.89455829937702,38.60151519016503 Z"
       id="path151"
       style="vector-effect:non-scaling-stroke;-inkscape-stroke:hairline;stroke-width:0.26458333;stroke-dasharray:none" />
    <path
       d="M 245.85445301938609,24.0 L 259.0197887478089,24.0 L 252.4371208835975,35.40151519016504 L 245.85445301938609,24.0 Z"
       id="path152"
       style="vector-effect:non-scaling-stroke;-inkscape-stroke:hairline;stroke-width:0.26458333;stroke-dasharray:none" />
    <path
       d="M 278.9356056934325,45.00151519016502 L 278.9356056934325,68.30000000000003 L 255.63712088359745,68.30000000000001 L 255.63712088359745,45.00151519016502 L 278.9356056934325,45.00151519016502 Z"
       id="path153"
       style="vector-effect:non-scaling-stroke;-inkscape-stroke:hairline;stroke-width:0.26458333;stroke-dasharray:none" />
    <path
       d="M 308.6340905032675,45.00151519016502 L 308.6340905032675,68.30000000000003 L 285.33560569343246,68.30000000000001 L 285.33560569343246,45.00151519016502 L 308.6340905032675,45.00151519016502 Z"
       id="path154"
       style="vector-effect:non-scaling-stroke;-inkscape-stroke:hairline;stroke-width:0.26458333;stroke-dasharray:none" />
    <path
       d="M 276.5930431092121,38.60151519016503 L 257.97968346781784,38.60151519016503 L 266.40987219343606,24.0 L 268.16285438359387,24.0 L 276.5930431092121,38.60151519016503 Z"
       id="path155"
       style="vector-effect:non-scaling-stroke;-inkscape-stroke:hairline;stroke-width:0.26458333;stroke-dasharray:none" />
    <path
       d="M 275.55293782922104,24.0 L 288.7182735576439,24.0 L 282.13560569343247,35.40151519016504 L 275.55293782922104,24.0 Z"
       id="path156"
       style="vector-effect:non-scaling-stroke;-inkscape-stroke:hairline;stroke-width:0.26458333;stroke-dasharray:none" />
    <path
       d="M 306.2915279190471,38.60151519016503 L 287.67816827765284,38.60151519016503 L 296.10835700327107,24.0 L 297.8613391934289,24.0 L 306.2915279190471,38.60151519016503 Z"
       id="path157"
       style="vector-effect:non-scaling-stroke;-inkscape-stroke:hairline;stroke-width:0.26458333;stroke-dasharray:none" />
    <path
       d="M 305.25142263905605,24.0 L 318.4167583674789,24.0 L 311.8340905032675,35.40151519016504 L 305.25142263905605,24.0 Z"
       id="path158"
       style="vector-effect:non-scaling-stroke;-inkscape-stroke:hairline;stroke-width:0.26458333;stroke-dasharray:none" />
    <path
       d="M 338.3325753131025,45.00151519016502 L 338.3325753131025,68.30000000000003 L 315.03409050326746,68.30000000000001 L 315.03409050326746,45.00151519016502 L 338.3325753131025,45.00151519016502 Z"
       id="path159"
       style="vector-effect:non-scaling-stroke;-inkscape-stroke:hairline;stroke-width:0.26458333;stroke-dasharray:none" />
    <path
       d="M 368.0310601229375,45.00151519016502 L 368.0310601229375,68.30000000000003 L 344.7325753131025,68.30000000000001 L 344.7325753131025,45.00151519016502 L 368.0310601229375,45.00151519016502 Z"
       id="path160"
       style="vector-effect:non-scaling-stroke;-inkscape-stroke:hairline;stroke-width:0.26458333;stroke-dasharray:none" />
    <path
       d="M 335.9900127288821,38.60151519016503 L 317.37665308748785,38.60151519016503 L 325.8068418131061,24.0 L 327.5598240032639,24.0 L 335.9900127288821,38.60151519016503 Z"
       id="path161"
       style="vector-effect:non-scaling-stroke;-inkscape-stroke:hairline;stroke-width:0.26458333;stroke-dasharray:none" />
    <path
       d="M 334.94990744889105,24.0 L 348.1152431773139,24.0 L 341.5325753131025,35.40151519016504 L 334.94990744889105,24.0 Z"
       id="path162"
       style="vector-effect:non-scaling-stroke;-inkscape-stroke:hairline;stroke-width:0.26458333;stroke-dasharray:none" />
    <path
       d="M 365.6884975387171,38.60151519016503 L 347.07513789732286,38.60151519016503 L 355.5053266229411,24.0 L 357.2583088130989,24.0 L 365.6884975387171,38.60151519016503 Z"
       id="path163"
       style="vector-effect:non-scaling-stroke;-inkscape-stroke:hairline;stroke-width:0.26458333;stroke-dasharray:none" />
    <path
       d="M 364.64839225872606,24.0 L 377.8137279871489,24.0 L 371.2310601229375,35.40151519016504 L 364.64839225872606,24.0 Z"
       id="path164"
       style="vector-effect:non-scaling-stroke;-inkscape-stroke:hairline;stroke-width:0.26458333;stroke-dasharray:none" />
    <path
       d="M 397.72954493277246,45.00151519016502 L 397.72954493277246,68.30000000000003 L 374.4310601229374,68.30000000000001 L 374.4310601229374,45.00151519016502 L 397.72954493277246,45.00151519016502 Z"
       id="path165"
       style="vector-effect:non-scaling-stroke;-inkscape-stroke:hairline;stroke-width:0.26458333;stroke-dasharray:none" />
    <path
       d="M 427.42802974260746,45.00151519016502 L 427.4280297426074,68.30000000000003 L 404.12954493277243,68.30000000000001 L 404.12954493277243,45.00151519016502 L 427.42802974260746,45.00151519016502 Z"
       id="path166"
       style="vector-effect:non-scaling-stroke;-inkscape-stroke:hairline;stroke-width:0.26458333;stroke-dasharray:none" />
    <path
       d="M 395.38698234855207,38.60151519016503 L 376.7736227071578,38.60151519016503 L 385.20381143277604,24.0 L 386.95679362293384,24.0 L 395.38698234855207,38.60151519016503 Z"
       id="path167"
       style="vector-effect:non-scaling-stroke;-inkscape-stroke:hairline;stroke-width:0.26458333;stroke-dasharray:none" />
    <path
       d="M 394.346877068561,24.0 L 407.5122127969839,24.0 L 400.92954493277244,35.40151519016504 L 394.346877068561,24.0 Z"
       id="path168"
       style="vector-effect:non-scaling-stroke;-inkscape-stroke:hairline;stroke-width:0.26458333;stroke-dasharray:none" />
    <path
       d="M 425.0854671583871,38.60151519016503 L 406.4721075169928,38.60151519016503 L 414.90229624261104,24.0 L 416.65527843276885,24.0 L 425.0854671583871,38.60151519016503 Z"
       id="path169"
       style="vector-effect:non-scaling-stroke;-inkscape-stroke:hairline;stroke-width:0.26458333;stroke-dasharray:none" />
    <path
       d="M 424.045361878396,24.0 L 437.2106976068188,24.0 L 430.6280297426074,35.40151519016504 L 424.045361878396,24.0 Z"
       id="path170"
       style="vector-effect:non-scaling-stroke;-inkscape-stroke:hairline;stroke-width:0.26458333;stroke-dasharray:none" />
    <path
       d="M 457.1265145524424,45.00151519016502 L 457.1265145524424,68.30000000000003 L 433.8280297426074,68.30000000000001 L 433.8280297426074,45.00151519016502 L 457.1265145524424,45.00151519016502 Z"
       id="path171"
       style="vector-effect:non-scaling-stroke;-inkscape-stroke:hairline;stroke-width:0.26458333;stroke-dasharray:none" />
    <path
       d="M 486.8249993622774,45.00151519016502 L 486.8249993622774,68.30000000000003 L 463.5265145524424,68.30000000000001 L 463.5265145524424,45.00151519016502 L 486.8249993622774,45.00151519016502 Z"
       id="path172"
       style="vector-effect:non-scaling-stroke;-inkscape-stroke:hairline;stroke-width:0.26458333;stroke-dasharray:none" />
    <path
       d="M 454.783951968222,38.60151519016503 L 436.1705923268278,38.60151519016503 L 444.600781052446,24.0 L 446.3537632426038,24.0 L 454.783951968222,38.60151519016503 Z"
       id="path173"
       style="vector-effect:non-scaling-stroke;-inkscape-stroke:hairline;stroke-width:0.26458333;stroke-dasharray:none" />
    <path
       d="M 453.743846688231,24.0 L 466.90918241665383,24.0 L 460.3265145524424,35.40151519016504 L 453.743846688231,24.0 Z"
       id="path174"
       style="vector-effect:non-scaling-stroke;-inkscape-stroke:hairline;stroke-width:0.26458333;stroke-dasharray:none" />
    <path
       d="M 484.48243677805704,38.60151519016503 L 465.8690771366628,38.60151519016503 L 474.299265862281,24.0 L 476.0522480524388,24.0 L 484.48243677805704,38.60151519016503 Z"
       id="path175"
       style="vector-effect:non-scaling-stroke;-inkscape-stroke:hairline;stroke-width:0.26458333;stroke-dasharray:none" />
    <path
       d="M 483.442331498066,24.0 L 496.60766722648884,24.0 L 490.0249993622774,35.40151519016504 L 483.442331498066,24.0 Z"
       id="path176"
       style="vector-effect:non-scaling-stroke;-inkscape-stroke:hairline;stroke-width:0.26458333;stroke-dasharray:none" />
    <path
       d="M 516.5234841721124,45.00151519016502 L 516.5234841721124,68.30000000000003 L 493.2249993622774,68.30000000000001 L 493.2249993622774,45.00151519016502 L 516.5234841721124,45.00151519016502 Z"
       id="path177"
       style="vector-effect:non-scaling-stroke;-inkscape-stroke:hairline;stroke-width:0.26458333;stroke-dasharray:none" />
    <path
       d="M 546.2219689819474,45.00151519016502 L 546.2219689819474,68.30000000000003 L 522.9234841721125,68.30000000000001 L 522.9234841721125,45.00151519016502 L 546.2219689819474,45.00151519016502 Z"
       id="path178"
       style="vector-effect:non-scaling-stroke;-inkscape-stroke:hairline;stroke-width:0.26458333;stroke-dasharray:none" />
    <path
       d="M 514.180921587892,38.60151519016503 L 495.5675619464978,38.60151519016503 L 503.997750672116,24.0 L 505.7507328622738,24.0 L 514.180921587892,38.60151519016503 Z"
       id="path179"
       style="vector-effect:non-scaling-stroke;-inkscape-stroke:hairline;stroke-width:0.26458333;stroke-dasharray:none" />
    <path
       d="M 513.140816307901,24.0 L 526.3061520363239,24.0 L 519.7234841721124,35.40151519016504 L 513.140816307901,24.0 Z"
       id="path180"
       style="vector-effect:non-scaling-stroke;-inkscape-stroke:hairline;stroke-width:0.26458333;stroke-dasharray:none" />
    <path
       d="M 543.879406397727,38.60151519016503 L 525.2660467563328,38.60151519016503 L 533.696235481951,24.0 L 535.4492176721088,24.0 L 543.879406397727,38.60151519016503 Z"
       id="path181"
       style="vector-effect:non-scaling-stroke;-inkscape-stroke:hairline;stroke-width:0.26458333;stroke-dasharray:none" />
    <path
       d="M 542.839301117736,24.0 L 556.0046368461589,24.0 L 549.4219689819474,35.40151519016504 L 542.839301117736,24.0 Z"
       id="path182"
       style="vector-effect:non-scaling-stroke;-inkscape-stroke:hairline;stroke-width:0.26458333;stroke-dasharray:none" />
    <path
       d="M 575.9204537917824,45.00151519016502 L 575.9204537917824,68.30000000000003 L 552.6219689819475,68.30000000000001 L 552.6219689819475,45.00151519016502 L 575.9204537917824,45.00151519016502 Z"
       id="path183"
       style="vector-effect:non-scaling-stroke;-inkscape-stroke:hairline;stroke-width:0.26458333;stroke-dasharray:none" />
    <path
       d="M 605.6189386016174,45.00151519016502 L 605.6189386016174,68.30000000000003 L 582.3204537917825,68.30000000000001 L 582.3204537917825,45.00151519016502 L 605.6189386016174,45.00151519016502 Z"
       id="path184"
       style="vector-effect:non-scaling-stroke;-inkscape-stroke:hairline;stroke-width:0.26458333;stroke-dasharray:none" />
    <path
       d="M 573.5778912075621,38.60151519016503 L 554.9645315661678,38.60151519016503 L 563.394720291786,24.0 L 565.1477024819438,24.0 L 573.5778912075621,38.60151519016503 Z"
       id="path185"
       style="vector-effect:non-scaling-stroke;-inkscape-stroke:hairline;stroke-width:0.26458333;stroke-dasharray:none" />
    <path
       d="M 572.537785927571,24.0 L 585.7031216559939,24.0 L 579.1204537917824,35.40151519016504 L 572.537785927571,24.0 Z"
       id="path186"
       style="vector-effect:non-scaling-stroke;-inkscape-stroke:hairline;stroke-width:0.26458333;stroke-dasharray:none" />
    <path
       d="M 603.2763760173971,38.60151519016503 L 584.6630163760028,38.60151519016503 L 593.093205101621,24.0 L 594.8461872917788,24.0 L 603.2763760173971,38.60151519016503 Z"
       id="path187"
       style="vector-effect:non-scaling-stroke;-inkscape-stroke:hairline;stroke-width:0.26458333;stroke-dasharray:none" />
    <path
       d="M 602.236270737406,24.0 L 615.4016064658289,24.0 L 608.8189386016174,35.40151519016504 L 602.236270737406,24.0 Z"
       id="path188"
       style="vector-effect:non-scaling-stroke;-inkscape-stroke:hairline;stroke-width:0.26458333;stroke-dasharray:none" />
    <path
       d="M 635.3174234114524,45.00151519016502 L 635.3174234114524,68.30000000000003 L 612.0189386016175,68.30000000000001 L 612.0189386016175,45.00151519016502 L 635.3174234114524,45.00151519016502 Z"
       id="path189"
       style="vector-effect:non-scaling-stroke;-inkscape-stroke:hairline;stroke-width:0.26458333;stroke-dasharray:none" />
    <path
       d="M 665.0159082212874,45.00151519016502 L 665.0159082212874,68.30000000000003 L 641.7174234114525,68.30000000000001 L 641.7174234114525,45.00151519016502 L 665.0159082212874,45.00151519016502 Z"
       id="path190"
       style="vector-effect:non-scaling-stroke;-inkscape-stroke:hairline;stroke-width:0.26458333;stroke-dasharray:none" />
    <path
       d="M 632.9748608272321,38.60151519016503 L 614.3615011858378,38.60151519016503 L 622.791689911456,24.0 L 624.5446721016139,24.0 L 632.9748608272321,38.60151519016503 Z"
       id="path191"
       style="vector-effect:non-scaling-stroke;-inkscape-stroke:hairline;stroke-width:0.26458333;stroke-dasharray:none" />
    <path
       d="M 631.934755547241,24.0 L 645.1000912756639,24.0 L 638.5174234114525,35.40151519016504 L 631.934755547241,24.0 Z"
       id="path192"
       style="vector-effect:non-scaling-stroke;-inkscape-stroke:hairline;stroke-width:0.26458333;stroke-dasharray:none" />
    <path
       d="M 662.6733456370671,38.60151519016503 L 644.0599859956728,38.60151519016503 L 652.490174721291,24.0 L 654.2431569114489,24.0 L 662.6733456370671,38.60151519016503 Z"
       id="path193"
       style="vector-effect:non-scaling-stroke;-inkscape-stroke:hairline;stroke-width:0.26458333;stroke-dasharray:none" />
    <path
       d="M 661.633240357076,24.0 L 674.7985760854989,24.0 L 668.2159082212875,35.40151519016504 L 661.633240357076,24.0 Z"
       id="path194"
       style="vector-effect:non-scaling-stroke;-inkscape-stroke:hairline;stroke-width:0.26458333;stroke-dasharray:none" />
    <path
       d="M 694.7143930311223,45.00151519016502 L 694.7143930311223,68.30000000000003 L 671.4159082212874,68.30000000000001 L 671.4159082212874,45.00151519016502 L 694.7143930311223,45.00151519016502 Z"
       id="path195"
       style="vector-effect:non-scaling-stroke;-inkscape-stroke:hairline;stroke-width:0.26458333;stroke-dasharray:none" />
    <path
       d="M 724.4128778409573,45.00151519016502 L 724.4128778409573,68.30000000000003 L 701.1143930311224,68.30000000000001 L 701.1143930311224,45.00151519016502 L 724.4128778409573,45.00151519016502 Z"
       id="path196"
       style="vector-effect:non-scaling-stroke;-inkscape-stroke:hairline;stroke-width:0.26458333;stroke-dasharray:none" />
    <path
       d="M 692.371830446902,38.60151519016503 L 673.7584708055077,38.60151519016503 L 682.188659531126,24.0 L 683.9416417212838,24.0 L 692.371830446902,38.60151519016503 Z"
       id="path197"
       style="vector-effect:non-scaling-stroke;-inkscape-stroke:hairline;stroke-width:0.26458333;stroke-dasharray:none" />
    <path
       d="M 691.3317251669109,24.0 L 704.4970608953338,24.0 L 697.9143930311224,35.40151519016504 L 691.3317251669109,24.0 Z"
       id="path198"
       style="vector-effect:non-scaling-stroke;-inkscape-stroke:hairline;stroke-width:0.26458333;stroke-dasharray:none" />
    <path
       d="M 722.070315256737,38.60151519016503 L 703.4569556153427,38.60151519016503 L 711.887144340961,24.0 L 713.6401265311188,24.0 L 722.070315256737,38.60151519016503 Z"
       id="path199"
       style="vector-effect:non-scaling-stroke;-inkscape-stroke:hairline;stroke-width:0.26458333;stroke-dasharray:none" />
    <path
       d="M 721.0302099767459,24.0 L 734.1955457051688,24.0 L 727.6128778409574,35.40151519016504 L 721.0302099767459,24.0 Z"
       id="path200"
       style="vector-effect:non-scaling-stroke;-inkscape-stroke:hairline;stroke-width:0.26458333;stroke-dasharray:none" />
    <path
       d="M 754.1113626507923,45.00151519016502 L 754.1113626507923,68.30000000000003 L 730.8128778409574,68.30000000000001 L 730.8128778409574,45.00151519016502 L 754.1113626507923,45.00151519016502 Z"
       id="path201"
       style="vector-effect:non-scaling-stroke;-inkscape-stroke:hairline;stroke-width:0.26458333;stroke-dasharray:none" />
    <path
       d="M 783.8098474606273,45.00151519016502 L 783.8098474606273,68.30000000000003 L 760.5113626507924,68.30000000000001 L 760.5113626507924,45.00151519016502 L 783.8098474606273,45.00151519016502 Z"
       id="path202"
       style="vector-effect:non-scaling-stroke;-inkscape-stroke:hairline;stroke-width:0.26458333;stroke-dasharray:none" />
    <path
       d="M 751.768800066572,38.60151519016503 L 733.1554404251777,38.60151519016503 L 741.585629150796,24.0 L 743.3386113409538,24.0 L 751.768800066572,38.60151519016503 Z"
       id="path203"
       style="vector-effect:non-scaling-stroke;-inkscape-stroke:hairline;stroke-width:0.26458333;stroke-dasharray:none" />
    <path
       d="M 750.728694786581,24.0 L 763.8940305150038,24.0 L 757.3113626507924,35.40151519016504 L 750.728694786581,24.0 Z"
       id="path204"
       style="vector-effect:non-scaling-stroke;-inkscape-stroke:hairline;stroke-width:0.26458333;stroke-dasharray:none" />
    <path
       d="M 781.467284876407,38.60151519016503 L 762.8539252350128,38.60151519016503 L 771.284113960631,24.0 L 773.0370961507888,24.0 L 781.467284876407,38.60151519016503 Z"
       id="path205"
       style="vector-effect:non-scaling-stroke;-inkscape-stroke:hairline;stroke-width:0.26458333;stroke-dasharray:none" />
    <path
       d="M 780.427179596416,24.0 L 793.5925153248388,24.0 L 787.0098474606274,35.40151519016504 L 780.427179596416,24.0 Z"
       id="path206"
       style="vector-effect:non-scaling-stroke;-inkscape-stroke:hairline;stroke-width:0.26458333;stroke-dasharray:none" />
    <path
       d="M 813.5083322704623,45.00151519016502 L 813.5083322704623,68.30000000000003 L 790.2098474606274,68.30000000000001 L 790.2098474606274,45.00151519016502 L 813.5083322704623,45.00151519016502 Z"
       id="path207"
       style="vector-effect:non-scaling-stroke;-inkscape-stroke:hairline;stroke-width:0.26458333;stroke-dasharray:none" />
    <path
       d="M 843.2068170802974,45.00151519016502 L 843.2068170802974,68.30000000000003 L 819.9083322704624,68.30000000000001 L 819.9083322704624,45.00151519016502 L 843.2068170802974,45.00151519016502 Z"
       id="path208"
       style="vector-effect:non-scaling-stroke;-inkscape-stroke:hairline;stroke-width:0.26458333;stroke-dasharray:none" />
    <path
       d="M 811.165769686242,38.60151519016503 L 792.5524100448478,38.60151519016503 L 800.982598770466,24.0 L 802.7355809606238,24.0 L 811.165769686242,38.60151519016503 Z"
       id="path209"
       style="vector-effect:non-scaling-stroke;-inkscape-stroke:hairline;stroke-width:0.26458333;stroke-dasharray:none" />
    <path
       d="M 810.125664406251,24.0 L 823.2910001346738,24.0 L 816.7083322704624,35.40151519016504 L 810.125664406251,24.0 Z"
       id="path210"
       style="vector-effect:non-scaling-stroke;-inkscape-stroke:hairline;stroke-width:0.26458333;stroke-dasharray:none" />
    <path
       d="M 840.864254496077,38.60151519016503 L 822.2508948546828,38.60151519016503 L 830.681083580301,24.0 L 832.4340657704588,24.0 L 840.864254496077,38.60151519016503 Z"
       id="path211"
       style="vector-effect:non-scaling-stroke;-inkscape-stroke:hairline;stroke-width:0.26458333;stroke-dasharray:none" />
    <path
       d="M 839.824149216086,24.0 L 852.9894849445088,24.0 L 846.4068170802974,35.40151519016504 L 839.824149216086,24.0 Z"
       id="path212"
       style="vector-effect:non-scaling-stroke;-inkscape-stroke:hairline;stroke-width:0.26458333;stroke-dasharray:none" />
    <path
       d="M 872.9053018901323,45.00151519016502 L 872.9053018901323,68.30000000000003 L 849.6068170802973,68.30000000000001 L 849.6068170802973,45.00151519016502 L 872.9053018901323,45.00151519016502 Z"
       id="path213"
       style="vector-effect:non-scaling-stroke;-inkscape-stroke:hairline;stroke-width:0.26458333;stroke-dasharray:none" />
    <path
       d="M 902.6037866999673,45.00151519016502 L 902.6037866999673,68.30000000000003 L 879.3053018901323,68.30000000000001 L 879.3053018901323,45.00151519016502 L 902.6037866999673,45.00151519016502 Z"
       id="path214"
       style="vector-effect:non-scaling-stroke;-inkscape-stroke:hairline;stroke-width:0.26458333;stroke-dasharray:none" />
    <path
       d="M 870.5627393059119,38.60151519016503 L 851.9493796645177,38.60151519016503 L 860.3795683901359,24.0 L 862.1325505802937,24.0 L 870.5627393059119,38.60151519016503 Z"
       id="path215"
       style="vector-effect:non-scaling-stroke;-inkscape-stroke:hairline;stroke-width:0.26458333;stroke-dasharray:none" />
    <path
       d="M 869.5226340259209,24.0 L 882.6879697543437,24.0 L 876.1053018901323,35.40151519016504 L 869.5226340259209,24.0 Z"
       id="path216"
       style="vector-effect:non-scaling-stroke;-inkscape-stroke:hairline;stroke-width:0.26458333;stroke-dasharray:none" />
    <path
       d="M 900.2612241157469,38.60151519016503 L 881.6478644743527,38.60151519016503 L 890.0780531999709,24.0 L 891.8310353901287,24.0 L 900.2612241157469,38.60151519016503 Z"
       id="path217"
       style="vector-effect:non-scaling-stroke;-inkscape-stroke:hairline;stroke-width:0.26458333;stroke-dasharray:none" />
    <path
       d="M 899.2211188357559,24.0 L 912.3864545641787,24.0 L 905.8037866999673,35.40151519016504 L 899.2211188357559,24.0 Z"
       id="path218"
       style="vector-effect:non-scaling-stroke;-inkscape-stroke:hairline;stroke-width:0.26458333;stroke-dasharray:none" />
    <path
       d="M 932.3022715098023,45.00151519016502 L 932.3022715098023,68.30000000000003 L 909.0037866999673,68.30000000000001 L 909.0037866999673,45.00151519016502 L 932.3022715098023,45.00151519016502 Z"
       id="path219"
       style="vector-effect:non-scaling-stroke;-inkscape-stroke:hairline;stroke-width:0.26458333;stroke-dasharray:none" />
    <path
       d="M 962.0007563196373,45.00151519016502 L 962.0007563196373,68.30000000000003 L 938.7022715098024,68.30000000000001 L 938.7022715098024,45.00151519016502 L 962.0007563196373,45.00151519016502 Z"
       id="path220"
       style="vector-effect:non-scaling-stroke;-inkscape-stroke:hairline;stroke-width:0.26458333;stroke-dasharray:none" />
    <path
       d="M 929.9597089255819,38.60151519016503 L 911.3463492841877,38.60151519016503 L 919.7765380098059,24.0 L 921.5295201999637,24.0 L 929.9597089255819,38.60151519016503 Z"
       id="path221"
       style="vector-effect:non-scaling-stroke;-inkscape-stroke:hairline;stroke-width:0.26458333;stroke-dasharray:none" />
    <path
       d="M 928.9196036455909,24.0 L 942.0849393740137,24.0 L 935.5022715098023,35.40151519016504 L 928.9196036455909,24.0 Z"
       id="path222"
       style="vector-effect:non-scaling-stroke;-inkscape-stroke:hairline;stroke-width:0.26458333;stroke-dasharray:none" />
    <path
       d="M 959.658193735417,38.60151519016503 L 941.0448340940227,38.60151519016503 L 949.4750228196409,24.0 L 951.2280050097987,24.0 L 959.658193735417,38.60151519016503 Z"
       id="path223"
       style="vector-effect:non-scaling-stroke;-inkscape-stroke:hairline;stroke-width:0.26458333;stroke-dasharray:none" />
    <path
       d="M 958.6180884554259,24.0 L 971.7834241838488,24.0 L 965.2007563196373,35.40151519016504 L 958.6180884554259,24.0 Z"
       id="path224"
       style="vector-effect:non-scaling-stroke;-inkscape-stroke:hairline;stroke-width:0.26458333;stroke-dasharray:none" />
    <path
       d="M 991.6992411294723,45.00151519016502 L 991.6992411294723,68.30000000000003 L 968.4007563196374,68.30000000000001 L 968.4007563196374,45.00151519016502 L 991.6992411294723,45.00151519016502 Z"
       id="path225"
       style="vector-effect:non-scaling-stroke;-inkscape-stroke:hairline;stroke-width:0.26458333;stroke-dasharray:none" />
    <path
       d="M 1021.3977259393073,45.00151519016502 L 1021.3977259393073,68.30000000000003 L 998.0992411294724,68.30000000000001 L 998.0992411294724,45.00151519016502 L 1021.3977259393073,45.00151519016502 Z"
       id="path226"
       style="vector-effect:non-scaling-stroke;-inkscape-stroke:hairline;stroke-width:0.26458333;stroke-dasharray:none" />
    <path
       d="M 989.356678545252,38.60151519016503 L 970.7433189038577,38.60151519016503 L 979.1735076294759,24.0 L 980.9264898196337,24.0 L 989.356678545252,38.60151519016503 Z"
       id="path227"
       style="vector-effect:non-scaling-stroke;-inkscape-stroke:hairline;stroke-width:0.26458333;stroke-dasharray:none" />
    <path
       d="M 988.3165732652609,24.0 L 1001.4819089936838,24.0 L 994.8992411294723,35.40151519016504 L 988.3165732652609,24.0 Z"
       id="path228"
       style="vector-effect:non-scaling-stroke;-inkscape-stroke:hairline;stroke-width:0.26458333;stroke-dasharray:none" />
    <path
       d="M 1019.055163355087,38.60151519016503 L 1000.4418037136927,38.60151519016503 L 1008.8719924393109,24.0 L 1010.6249746294687,24.0 L 1019.055163355087,38.60151519016503 Z"
       id="path229"
       style="vector-effect:non-scaling-stroke;-inkscape-stroke:hairline;stroke-width:0.26458333;stroke-dasharray:none" />
    <path
       d="M 1018.0150580750959,24.0 L 1031.1803938035187,24.0 L 1024.5977259393073,35.40151519016504 L 1018.0150580750959,24.0 Z"
       id="path230"
       style="vector-effect:non-scaling-stroke;-inkscape-stroke:hairline;stroke-width:0.26458333;stroke-dasharray:none" />
    <path
       d="M 1051.0962107491423,45.00151519016502 L 1051.0962107491423,68.30000000000003 L 1027.7977259393074,68.30000000000001 L 1027.7977259393074,45.00151519016502 L 1051.0962107491423,45.00151519016502 Z"
       id="path231"
       style="vector-effect:non-scaling-stroke;-inkscape-stroke:hairline;stroke-width:0.26458333;stroke-dasharray:none" />
    <path
       d="M 1080.7946955589773,45.00151519016502 L 1080.7946955589773,68.30000000000003 L 1057.4962107491424,68.30000000000001 L 1057.4962107491424,45.00151519016502 L 1080.7946955589773,45.00151519016502 Z"
       id="path232"
       style="vector-effect:non-scaling-stroke;-inkscape-stroke:hairline;stroke-width:0.26458333;stroke-dasharray:none" />
    <path
       d="M 1048.753648164922,38.60151519016503 L 1030.1402885235277,38.60151519016503 L 1038.5704772491458,24.0 L 1040.3234594393039,24.0 L 1048.753648164922,38.60151519016503 Z"
       id="path233"
       style="vector-effect:non-scaling-stroke;-inkscape-stroke:hairline;stroke-width:0.26458333;stroke-dasharray:none" />
    <path
       d="M 1047.713542884931,24.0 L 1060.8788786133537,24.0 L 1054.2962107491423,35.40151519016504 L 1047.713542884931,24.0 Z"
       id="path234"
       style="vector-effect:non-scaling-stroke;-inkscape-stroke:hairline;stroke-width:0.26458333;stroke-dasharray:none" />
    <path
       d="M 1078.452132974757,38.60151519016503 L 1059.8387733333627,38.60151519016503 L 1068.2689620589808,24.0 L 1070.0219442491389,24.0 L 1078.452132974757,38.60151519016503 Z"
       id="path235"
       style="vector-effect:non-scaling-stroke;-inkscape-stroke:hairline;stroke-width:0.26458333;stroke-dasharray:none" />
    <path
       d="M 1077.412027694766,24.0 L 1090.5773634231887,24.0 L 1083.9946955589774,35.40151519016504 L 1077.412027694766,24.0 Z"
       id="path236"
       style="vector-effect:non-scaling-stroke;-inkscape-stroke:hairline;stroke-width:0.26458333;stroke-dasharray:none" />
    <path
       d="M 1087.1946955589774,68.30000000000001 L 1087.1946955589774,45.00151519016502 L 1107.2159082212875,45.00151519016502 L 1107.2159082212875,68.30000000000003 L 1087.1946955589774,68.30000000000001 Z"
       id="path237"
       style="vector-effect:non-scaling-stroke;-inkscape-stroke:hairline;stroke-width:0.26458333;stroke-dasharray:none" />
    <path
       d="M 1107.2159082212875,36.98255073620109 L 1107.2159082212875,38.60151519016503 L 1089.5372581431977,38.60151519016503 L 1097.9674468688158,24.0 L 1099.7204290589739,24.0 L 1107.2159082212875,36.98255073620109 Z"
       id="path238"
       style="vector-effect:non-scaling-stroke;-inkscape-stroke:hairline;stroke-width:0.26458333;stroke-dasharray:none" />
    <path
       d="M 214.21590822128735,170.0 L 1122.2159082212875,170.0 L 1122.2159082212875,0.0 L 214.21590822128735,0.0 L 214.21590822128735,170.0 Z"
       id="path239"
       style="vector-effect:non-scaling-stroke;-inkscape-stroke:hairline;stroke-width:0.26458333;stroke-dasharray:none" />
  </g>
</svg>
