  0
SECTION
  2
HEADER
  9
$ACADVER
  1
AC1014
  9
$HANDSEED
  5
FFFF
  9
$INSUNITS
 70
     4
  9
$MEASUREMENT
 70
     1
  0
ENDSEC
  0
SECTION
  2
TABLES
  0
TABLE
  2
VPORT
  5
8
330
0
100
AcDbSymbolTable
 70
     4
  0
VPORT
  5
2E
330
8
100
AcDbSymbolTableRecord
100
AcDbViewportTableRecord
  2
*ACTIVE
 70
     0
 10
0.0
 20
0.0
 11
1.0
 21
1.0
 12
210.0
 22
148.5
 13
0.0
 23
0.0
 14
10.0
 24
10.0
 15
10.0
 25
10.0
 16
0.0
 26
0.0
 36
1.0
 17
0.0
 27
0.0
 37
0.0
 40
341.0
 41
1.24
 42
50.0
 43
0.0
 44
0.0
 50
0.0
 51
0.0
 71
     0
 72
   100
 73
     1
 74
     3
 75
     0
 76
     0
 77
     0
 78
     0
  0
ENDTAB
  0
TABLE
  2
LTYPE
  5
5
330
0
100
AcDbSymbolTable
 70
     1
  0
LTYPE
  5
14
330
5
100
AcDbSymbolTableRecord
100
AcDbLinetypeTableRecord
  2
BYBLOCK
 70
     0
  3

 72
    65
 73
     0
 40
0.0
  0
LTYPE
  5
15
330
5
100
AcDbSymbolTableRecord
100
AcDbLinetypeTableRecord
  2
BYLAYER
 70
     0
  3

 72
    65
 73
     0
 40
0.0
  0
LTYPE
  5
16
330
5
100
AcDbSymbolTableRecord
100
AcDbLinetypeTableRecord
  2
CONTINUOUS
 70
     0
  3
Solid line
 72
    65
 73
     0
 40
0.0
  0
ENDTAB
  0
TABLE
  2
LAYER
  5
2
100
AcDbSymbolTable
 70
1
  0
LAYER
  5
50
100
AcDbSymbolTableRecord
100
AcDbLayerTableRecord
  2
0
 70
0
  6
CONTINUOUS
  0
ENDTAB
  0
TABLE
  2
STYLE
  5
3
330
0
100
AcDbSymbolTable
 70
     1
  0
STYLE
  5
11
330
3
100
AcDbSymbolTableRecord
100
AcDbTextStyleTableRecord
  2
STANDARD
 70
     0
 40
0.0
 41
1.0
 50
0.0
 71
     0
 42
2.5
  3
txt
  4

  0
ENDTAB
  0
TABLE
  2
VIEW
  5
6
330
0
100
AcDbSymbolTable
 70
     0
  0
ENDTAB
  0
TABLE
  2
UCS
  5
7
330
0
100
AcDbSymbolTable
 70
     0
  0
ENDTAB
  0
TABLE
  2
APPID
  5
9
330
0
100
AcDbSymbolTable
 70
     2
  0
APPID
  5
12
330
9
100
AcDbSymbolTableRecord
100
AcDbRegAppTableRecord
  2
ACAD
 70
     0
  0
ENDTAB
  0
TABLE
  2
DIMSTYLE
  5
A
330
0
100
AcDbSymbolTable
 70
     1
  0
DIMSTYLE
105
27
330
A
100
AcDbSymbolTableRecord
100
AcDbDimStyleTableRecord
  2
ISO-25
 70
     0
  3

  4

  5

  6

  7

 40
1.0
 41
2.5
 42
0.625
 43
3.75
 44
1.25
 45
0.0
 46
0.0
 47
0.0
 48
0.0
140
2.5
141
2.5
142
0.0
143
0.03937007874016
144
1.0
145
0.0
146
1.0
147
0.625
 71
     0
 72
     0
 73
     0
 74
     0
 75
     0
 76
     0
 77
     1
 78
     8
170
     0
171
     3
172
     1
173
     0
174
     0
175
     0
176
     0
177
     0
178
     0
270
     2
271
     2
272
     2
273
     2
274
     3
340
11
275
     0
280
     0
281
     0
282
     0
283
     0
284
     8
285
     0
286
     0
287
     3
288
     0
  0
ENDTAB
  0
TABLE
  2
BLOCK_RECORD
  5
1
330
0
100
AcDbSymbolTable
 70
     1
  0
BLOCK_RECORD
  5
1F
330
1
100
AcDbSymbolTableRecord
100
AcDbBlockTableRecord
  2
*MODEL_SPACE
  0
BLOCK_RECORD
  5
1B
330
1
100
AcDbSymbolTableRecord
100
AcDbBlockTableRecord
  2
*PAPER_SPACE
  0
ENDTAB
  0
ENDSEC
  0
SECTION
  2
BLOCKS
  0
BLOCK
  5
20
330
1F
100
AcDbEntity
  8
0
100
AcDbBlockBegin
  2
*MODEL_SPACE
 70
     0
 10
0.0
 20
0.0
 30
0.0
  3
*MODEL_SPACE
  1

  0
ENDBLK
  5
21
330
1F
100
AcDbEntity
  8
0
100
AcDbBlockEnd
  0
BLOCK
  5
1C
330
1B
100
AcDbEntity
 67
     1
  8
0
100
AcDbBlockBegin
  2
*PAPER_SPACE
  1

  0
ENDBLK
  5
1D
330
1B
100
AcDbEntity
 67
     1
  8
0
100
AcDbBlockEnd
  0
ENDSEC
  0
SECTION
  2
ENTITIES
  0
LWPOLYLINE
  5
100
100
AcDbEntity
  8
0
 62
7
100
AcDbPolyline
 90
4
 70
1
 10
175.827836
 20
91.000000
 30
0.0
 10
169.500008
 20
91.000000
 30
0.0
 10
169.500008
 20
101.960119
 30
0.0
 10
175.827836
 20
91.000000
 30
0.0
  0
LWPOLYLINE
  5
101
100
AcDbEntity
  8
0
 62
7
100
AcDbPolyline
 90
5
 70
1
 10
174.914541
 20
105.381873
 30
0.0
 10
193.527901
 20
105.381873
 30
0.0
 10
185.224523
 20
91.000000
 30
0.0
 10
183.217919
 20
91.000000
 30
0.0
 10
174.914541
 20
105.381873
 30
0.0
  0
LWPOLYLINE
  5
102
100
AcDbEntity
  8
0
 62
7
100
AcDbPolyline
 90
4
 70
1
 10
205.526321
 20
91.000000
 30
0.0
 10
192.614606
 20
91.000000
 30
0.0
 10
199.070463
 20
102.181873
 30
0.0
 10
205.526321
 20
91.000000
 30
0.0
  0
LWPOLYLINE
  5
103
100
AcDbEntity
  8
0
 62
7
100
AcDbPolyline
 90
5
 70
1
 10
204.613026
 20
105.381873
 30
0.0
 10
223.226386
 20
105.381873
 30
0.0
 10
214.923007
 20
91.000000
 30
0.0
 10
212.916404
 20
91.000000
 30
0.0
 10
204.613026
 20
105.381873
 30
0.0
  0
LWPOLYLINE
  5
104
100
AcDbEntity
  8
0
 62
7
100
AcDbPolyline
 90
4
 70
1
 10
235.224805
 20
91.000000
 30
0.0
 10
222.313091
 20
91.000000
 30
0.0
 10
228.768948
 20
102.181873
 30
0.0
 10
235.224805
 20
91.000000
 30
0.0
  0
LWPOLYLINE
  5
105
100
AcDbEntity
  8
0
 62
7
100
AcDbPolyline
 90
5
 70
1
 10
234.311511
 20
105.381873
 30
0.0
 10
252.924870
 20
105.381873
 30
0.0
 10
244.621492
 20
91.000000
 30
0.0
 10
242.614889
 20
91.000000
 30
0.0
 10
234.311511
 20
105.381873
 30
0.0
  0
LWPOLYLINE
  5
106
100
AcDbEntity
  8
0
 62
7
100
AcDbPolyline
 90
4
 70
1
 10
264.923290
 20
91.000000
 30
0.0
 10
252.011576
 20
91.000000
 30
0.0
 10
258.467433
 20
102.181873
 30
0.0
 10
264.923290
 20
91.000000
 30
0.0
  0
LWPOLYLINE
  5
107
100
AcDbEntity
  8
0
 62
7
100
AcDbPolyline
 90
5
 70
1
 10
264.009995
 20
105.381873
 30
0.0
 10
282.623355
 20
105.381873
 30
0.0
 10
274.319977
 20
91.000000
 30
0.0
 10
272.313374
 20
91.000000
 30
0.0
 10
264.009995
 20
105.381873
 30
0.0
  0
LWPOLYLINE
  5
108
100
AcDbEntity
  8
0
 62
7
100
AcDbPolyline
 90
4
 70
1
 10
294.621775
 20
91.000000
 30
0.0
 10
281.710060
 20
91.000000
 30
0.0
 10
288.165918
 20
102.181873
 30
0.0
 10
294.621775
 20
91.000000
 30
0.0
  0
LWPOLYLINE
  5
109
100
AcDbEntity
  8
0
 62
7
100
AcDbPolyline
 90
5
 70
1
 10
293.708480
 20
105.381873
 30
0.0
 10
312.321840
 20
105.381873
 30
0.0
 10
304.018462
 20
91.000000
 30
0.0
 10
302.011858
 20
91.000000
 30
0.0
 10
293.708480
 20
105.381873
 30
0.0
  0
LWPOLYLINE
  5
10a
100
AcDbEntity
  8
0
 62
7
100
AcDbPolyline
 90
4
 70
1
 10
324.320260
 20
91.000000
 30
0.0
 10
311.408545
 20
91.000000
 30
0.0
 10
317.864403
 20
102.181873
 30
0.0
 10
324.320260
 20
91.000000
 30
0.0
  0
LWPOLYLINE
  5
10b
100
AcDbEntity
  8
0
 62
7
100
AcDbPolyline
 90
5
 70
1
 10
323.406965
 20
105.381873
 30
0.0
 10
342.020325
 20
105.381873
 30
0.0
 10
333.716947
 20
91.000000
 30
0.0
 10
331.710343
 20
91.000000
 30
0.0
 10
323.406965
 20
105.381873
 30
0.0
  0
LWPOLYLINE
  5
10c
100
AcDbEntity
  8
0
 62
7
100
AcDbPolyline
 90
4
 70
1
 10
354.018745
 20
91.000000
 30
0.0
 10
341.107030
 20
91.000000
 30
0.0
 10
347.562887
 20
102.181873
 30
0.0
 10
354.018745
 20
91.000000
 30
0.0
  0
LWPOLYLINE
  5
10d
100
AcDbEntity
  8
0
 62
7
100
AcDbPolyline
 90
5
 70
1
 10
353.105450
 20
105.381873
 30
0.0
 10
371.718810
 20
105.381873
 30
0.0
 10
363.415431
 20
91.000000
 30
0.0
 10
361.408828
 20
91.000000
 30
0.0
 10
353.105450
 20
105.381873
 30
0.0
  0
LWPOLYLINE
  5
10e
100
AcDbEntity
  8
0
 62
7
100
AcDbPolyline
 90
4
 70
1
 10
383.717229
 20
91.000000
 30
0.0
 10
370.805515
 20
91.000000
 30
0.0
 10
377.261372
 20
102.181873
 30
0.0
 10
383.717229
 20
91.000000
 30
0.0
  0
LWPOLYLINE
  5
10f
100
AcDbEntity
  8
0
 62
7
100
AcDbPolyline
 90
5
 70
1
 10
382.803935
 20
105.381873
 30
0.0
 10
401.417294
 20
105.381873
 30
0.0
 10
393.113916
 20
91.000000
 30
0.0
 10
391.107313
 20
91.000000
 30
0.0
 10
382.803935
 20
105.381873
 30
0.0
  0
LWPOLYLINE
  5
110
100
AcDbEntity
  8
0
 62
7
100
AcDbPolyline
 90
4
 70
1
 10
413.415714
 20
91.000000
 30
0.0
 10
400.504000
 20
91.000000
 30
0.0
 10
406.959857
 20
102.181873
 30
0.0
 10
413.415714
 20
91.000000
 30
0.0
  0
LWPOLYLINE
  5
111
100
AcDbEntity
  8
0
 62
7
100
AcDbPolyline
 90
5
 70
1
 10
412.502420
 20
105.381873
 30
0.0
 10
431.115779
 20
105.381873
 30
0.0
 10
422.812401
 20
91.000000
 30
0.0
 10
420.805798
 20
91.000000
 30
0.0
 10
412.502420
 20
105.381873
 30
0.0
  0
LWPOLYLINE
  5
112
100
AcDbEntity
  8
0
 62
7
100
AcDbPolyline
 90
4
 70
1
 10
443.114199
 20
91.000000
 30
0.0
 10
430.202484
 20
91.000000
 30
0.0
 10
436.658342
 20
102.181873
 30
0.0
 10
443.114199
 20
91.000000
 30
0.0
  0
LWPOLYLINE
  5
113
100
AcDbEntity
  8
0
 62
7
100
AcDbPolyline
 90
5
 70
1
 10
442.200904
 20
105.381873
 30
0.0
 10
460.814264
 20
105.381873
 30
0.0
 10
452.510886
 20
91.000000
 30
0.0
 10
450.504283
 20
91.000000
 30
0.0
 10
442.200904
 20
105.381873
 30
0.0
  0
LWPOLYLINE
  5
114
100
AcDbEntity
  8
0
 62
7
100
AcDbPolyline
 90
4
 70
1
 10
472.812684
 20
91.000000
 30
0.0
 10
459.900969
 20
91.000000
 30
0.0
 10
466.356827
 20
102.181873
 30
0.0
 10
472.812684
 20
91.000000
 30
0.0
  0
LWPOLYLINE
  5
115
100
AcDbEntity
  8
0
 62
7
100
AcDbPolyline
 90
5
 70
1
 10
471.899389
 20
105.381873
 30
0.0
 10
490.512749
 20
105.381873
 30
0.0
 10
482.209371
 20
91.000000
 30
0.0
 10
480.202767
 20
91.000000
 30
0.0
 10
471.899389
 20
105.381873
 30
0.0
  0
LWPOLYLINE
  5
116
100
AcDbEntity
  8
0
 62
7
100
AcDbPolyline
 90
4
 70
1
 10
502.511169
 20
91.000000
 30
0.0
 10
489.599454
 20
91.000000
 30
0.0
 10
496.055311
 20
102.181873
 30
0.0
 10
502.511169
 20
91.000000
 30
0.0
  0
LWPOLYLINE
  5
117
100
AcDbEntity
  8
0
 62
7
100
AcDbPolyline
 90
5
 70
1
 10
501.597874
 20
105.381873
 30
0.0
 10
520.211234
 20
105.381873
 30
0.0
 10
511.907855
 20
91.000000
 30
0.0
 10
509.901252
 20
91.000000
 30
0.0
 10
501.597874
 20
105.381873
 30
0.0
  0
LWPOLYLINE
  5
118
100
AcDbEntity
  8
0
 62
7
100
AcDbPolyline
 90
4
 70
1
 10
532.209654
 20
91.000000
 30
0.0
 10
519.297939
 20
91.000000
 30
0.0
 10
525.753796
 20
102.181873
 30
0.0
 10
532.209654
 20
91.000000
 30
0.0
  0
LWPOLYLINE
  5
119
100
AcDbEntity
  8
0
 62
7
100
AcDbPolyline
 90
5
 70
1
 10
531.296359
 20
105.381873
 30
0.0
 10
549.909718
 20
105.381873
 30
0.0
 10
541.606340
 20
91.000000
 30
0.0
 10
539.599737
 20
91.000000
 30
0.0
 10
531.296359
 20
105.381873
 30
0.0
  0
LWPOLYLINE
  5
11a
100
AcDbEntity
  8
0
 62
7
100
AcDbPolyline
 90
4
 70
1
 10
561.908138
 20
91.000000
 30
0.0
 10
548.996424
 20
91.000000
 30
0.0
 10
555.452281
 20
102.181873
 30
0.0
 10
561.908138
 20
91.000000
 30
0.0
  0
LWPOLYLINE
  5
11b
100
AcDbEntity
  8
0
 62
7
100
AcDbPolyline
 90
5
 70
1
 10
560.994844
 20
105.381873
 30
0.0
 10
579.608203
 20
105.381873
 30
0.0
 10
571.304825
 20
91.000000
 30
0.0
 10
569.298222
 20
91.000000
 30
0.0
 10
560.994844
 20
105.381873
 30
0.0
  0
LWPOLYLINE
  5
11c
100
AcDbEntity
  8
0
 62
7
100
AcDbPolyline
 90
4
 70
1
 10
591.606623
 20
91.000000
 30
0.0
 10
578.694908
 20
91.000000
 30
0.0
 10
585.150766
 20
102.181873
 30
0.0
 10
591.606623
 20
91.000000
 30
0.0
  0
LWPOLYLINE
  5
11d
100
AcDbEntity
  8
0
 62
7
100
AcDbPolyline
 90
5
 70
1
 10
590.693328
 20
105.381873
 30
0.0
 10
609.306688
 20
105.381873
 30
0.0
 10
601.003310
 20
91.000000
 30
0.0
 10
598.996707
 20
91.000000
 30
0.0
 10
590.693328
 20
105.381873
 30
0.0
  0
LWPOLYLINE
  5
11e
100
AcDbEntity
  8
0
 62
7
100
AcDbPolyline
 90
4
 70
1
 10
621.305108
 20
91.000000
 30
0.0
 10
608.393393
 20
91.000000
 30
0.0
 10
614.849251
 20
102.181873
 30
0.0
 10
621.305108
 20
91.000000
 30
0.0
  0
LWPOLYLINE
  5
11f
100
AcDbEntity
  8
0
 62
7
100
AcDbPolyline
 90
5
 70
1
 10
620.391813
 20
105.381873
 30
0.0
 10
639.005173
 20
105.381873
 30
0.0
 10
630.701795
 20
91.000000
 30
0.0
 10
628.695191
 20
91.000000
 30
0.0
 10
620.391813
 20
105.381873
 30
0.0
  0
LWPOLYLINE
  5
120
100
AcDbEntity
  8
0
 62
7
100
AcDbPolyline
 90
4
 70
1
 10
651.003593
 20
91.000000
 30
0.0
 10
638.091878
 20
91.000000
 30
0.0
 10
644.547735
 20
102.181873
 30
0.0
 10
651.003593
 20
91.000000
 30
0.0
  0
LWPOLYLINE
  5
121
100
AcDbEntity
  8
0
 62
7
100
AcDbPolyline
 90
5
 70
1
 10
650.090298
 20
105.381873
 30
0.0
 10
668.703658
 20
105.381873
 30
0.0
 10
660.400279
 20
91.000000
 30
0.0
 10
658.393676
 20
91.000000
 30
0.0
 10
650.090298
 20
105.381873
 30
0.0
  0
LWPOLYLINE
  5
122
100
AcDbEntity
  8
0
 62
7
100
AcDbPolyline
 90
4
 70
1
 10
680.702078
 20
91.000000
 30
0.0
 10
667.790363
 20
91.000000
 30
0.0
 10
674.246220
 20
102.181873
 30
0.0
 10
680.702078
 20
91.000000
 30
0.0
  0
LWPOLYLINE
  5
123
100
AcDbEntity
  8
0
 62
7
100
AcDbPolyline
 90
5
 70
1
 10
679.788783
 20
105.381873
 30
0.0
 10
698.402142
 20
105.381873
 30
0.0
 10
690.098764
 20
91.000000
 30
0.0
 10
688.092161
 20
91.000000
 30
0.0
 10
679.788783
 20
105.381873
 30
0.0
  0
LWPOLYLINE
  5
124
100
AcDbEntity
  8
0
 62
7
100
AcDbPolyline
 90
4
 70
1
 10
710.400562
 20
91.000000
 30
0.0
 10
697.488848
 20
91.000000
 30
0.0
 10
703.944705
 20
102.181873
 30
0.0
 10
710.400562
 20
91.000000
 30
0.0
  0
LWPOLYLINE
  5
125
100
AcDbEntity
  8
0
 62
7
100
AcDbPolyline
 90
5
 70
1
 10
709.487268
 20
105.381873
 30
0.0
 10
728.100627
 20
105.381873
 30
0.0
 10
719.797249
 20
91.000000
 30
0.0
 10
717.790646
 20
91.000000
 30
0.0
 10
709.487268
 20
105.381873
 30
0.0
  0
LWPOLYLINE
  5
126
100
AcDbEntity
  8
0
 62
7
100
AcDbPolyline
 90
4
 70
1
 10
740.099047
 20
91.000000
 30
0.0
 10
727.187333
 20
91.000000
 30
0.0
 10
733.643190
 20
102.181873
 30
0.0
 10
740.099047
 20
91.000000
 30
0.0
  0
LWPOLYLINE
  5
127
100
AcDbEntity
  8
0
 62
7
100
AcDbPolyline
 90
5
 70
1
 10
739.185752
 20
105.381873
 30
0.0
 10
757.799112
 20
105.381873
 30
0.0
 10
749.495734
 20
91.000000
 30
0.0
 10
747.489131
 20
91.000000
 30
0.0
 10
739.185752
 20
105.381873
 30
0.0
  0
LWPOLYLINE
  5
128
100
AcDbEntity
  8
0
 62
7
100
AcDbPolyline
 90
4
 70
1
 10
769.797532
 20
91.000000
 30
0.0
 10
756.885817
 20
91.000000
 30
0.0
 10
763.341675
 20
102.181873
 30
0.0
 10
769.797532
 20
91.000000
 30
0.0
  0
LWPOLYLINE
  5
129
100
AcDbEntity
  8
0
 62
7
100
AcDbPolyline
 90
5
 70
1
 10
768.884237
 20
105.381873
 30
0.0
 10
787.497597
 20
105.381873
 30
0.0
 10
779.194219
 20
91.000000
 30
0.0
 10
777.187615
 20
91.000000
 30
0.0
 10
768.884237
 20
105.381873
 30
0.0
  0
LWPOLYLINE
  5
12a
100
AcDbEntity
  8
0
 62
7
100
AcDbPolyline
 90
4
 70
1
 10
799.496017
 20
91.000000
 30
0.0
 10
786.584302
 20
91.000000
 30
0.0
 10
793.040159
 20
102.181873
 30
0.0
 10
799.496017
 20
91.000000
 30
0.0
  0
LWPOLYLINE
  5
12b
100
AcDbEntity
  8
0
 62
7
100
AcDbPolyline
 90
5
 70
1
 10
798.582722
 20
105.381873
 30
0.0
 10
817.196082
 20
105.381873
 30
0.0
 10
808.892704
 20
91.000000
 30
0.0
 10
806.886100
 20
91.000000
 30
0.0
 10
798.582722
 20
105.381873
 30
0.0
  0
LWPOLYLINE
  5
12c
100
AcDbEntity
  8
0
 62
7
100
AcDbPolyline
 90
4
 70
1
 10
829.194502
 20
91.000000
 30
0.0
 10
816.282787
 20
91.000000
 30
0.0
 10
822.738644
 20
102.181873
 30
0.0
 10
829.194502
 20
91.000000
 30
0.0
  0
LWPOLYLINE
  5
12d
100
AcDbEntity
  8
0
 62
7
100
AcDbPolyline
 90
5
 70
1
 10
828.281207
 20
105.381873
 30
0.0
 10
846.894567
 20
105.381873
 30
0.0
 10
838.591188
 20
91.000000
 30
0.0
 10
836.584585
 20
91.000000
 30
0.0
 10
828.281207
 20
105.381873
 30
0.0
  0
LWPOLYLINE
  5
12e
100
AcDbEntity
  8
0
 62
7
100
AcDbPolyline
 90
4
 70
1
 10
858.892986
 20
91.000000
 30
0.0
 10
845.981272
 20
91.000000
 30
0.0
 10
852.437129
 20
102.181873
 30
0.0
 10
858.892986
 20
91.000000
 30
0.0
  0
LWPOLYLINE
  5
12f
100
AcDbEntity
  8
0
 62
7
100
AcDbPolyline
 90
5
 70
1
 10
857.979692
 20
105.381873
 30
0.0
 10
876.593051
 20
105.381873
 30
0.0
 10
868.289673
 20
91.000000
 30
0.0
 10
866.283070
 20
91.000000
 30
0.0
 10
857.979692
 20
105.381873
 30
0.0
  0
LWPOLYLINE
  5
130
100
AcDbEntity
  8
0
 62
7
100
AcDbPolyline
 90
4
 70
1
 10
888.591471
 20
91.000000
 30
0.0
 10
875.679757
 20
91.000000
 30
0.0
 10
882.135614
 20
102.181873
 30
0.0
 10
888.591471
 20
91.000000
 30
0.0
  0
LWPOLYLINE
  5
131
100
AcDbEntity
  8
0
 62
7
100
AcDbPolyline
 90
5
 70
1
 10
887.678176
 20
105.381873
 30
0.0
 10
906.291536
 20
105.381873
 30
0.0
 10
897.988158
 20
91.000000
 30
0.0
 10
895.981555
 20
91.000000
 30
0.0
 10
887.678176
 20
105.381873
 30
0.0
  0
LWPOLYLINE
  5
132
100
AcDbEntity
  8
0
 62
7
100
AcDbPolyline
 90
4
 70
1
 10
918.289956
 20
91.000000
 30
0.0
 10
905.378241
 20
91.000000
 30
0.0
 10
911.834099
 20
102.181873
 30
0.0
 10
918.289956
 20
91.000000
 30
0.0
  0
LWPOLYLINE
  5
133
100
AcDbEntity
  8
0
 62
7
100
AcDbPolyline
 90
5
 70
1
 10
917.376661
 20
105.381873
 30
0.0
 10
935.990021
 20
105.381873
 30
0.0
 10
927.686643
 20
91.000000
 30
0.0
 10
925.680039
 20
91.000000
 30
0.0
 10
917.376661
 20
105.381873
 30
0.0
  0
LWPOLYLINE
  5
134
100
AcDbEntity
  8
0
 62
7
100
AcDbPolyline
 90
4
 70
1
 10
947.988441
 20
91.000000
 30
0.0
 10
935.076726
 20
91.000000
 30
0.0
 10
941.532584
 20
102.181873
 30
0.0
 10
947.988441
 20
91.000000
 30
0.0
  0
LWPOLYLINE
  5
135
100
AcDbEntity
  8
0
 62
7
100
AcDbPolyline
 90
5
 70
1
 10
947.075146
 20
105.381873
 30
0.0
 10
965.688506
 20
105.381873
 30
0.0
 10
957.385128
 20
91.000000
 30
0.0
 10
955.378524
 20
91.000000
 30
0.0
 10
947.075146
 20
105.381873
 30
0.0
  0
LWPOLYLINE
  5
136
100
AcDbEntity
  8
0
 62
7
100
AcDbPolyline
 90
4
 70
1
 10
977.686926
 20
91.000000
 30
0.0
 10
964.775211
 20
91.000000
 30
0.0
 10
971.231068
 20
102.181873
 30
0.0
 10
977.686926
 20
91.000000
 30
0.0
  0
LWPOLYLINE
  5
137
100
AcDbEntity
  8
0
 62
7
100
AcDbPolyline
 90
5
 70
1
 10
976.773631
 20
105.381873
 30
0.0
 10
995.386991
 20
105.381873
 30
0.0
 10
987.083612
 20
91.000000
 30
0.0
 10
985.077009
 20
91.000000
 30
0.0
 10
976.773631
 20
105.381873
 30
0.0
  0
LWPOLYLINE
  5
138
100
AcDbEntity
  8
0
 62
7
100
AcDbPolyline
 90
4
 70
1
 10
1007.385410
 20
91.000000
 30
0.0
 10
994.473696
 20
91.000000
 30
0.0
 10
1000.929553
 20
102.181873
 30
0.0
 10
1007.385410
 20
91.000000
 30
0.0
  0
LWPOLYLINE
  5
139
100
AcDbEntity
  8
0
 62
7
100
AcDbPolyline
 90
5
 70
1
 10
1006.472116
 20
105.381873
 30
0.0
 10
1025.085475
 20
105.381873
 30
0.0
 10
1016.782097
 20
91.000000
 30
0.0
 10
1014.775494
 20
91.000000
 30
0.0
 10
1006.472116
 20
105.381873
 30
0.0
  0
LWPOLYLINE
  5
13a
100
AcDbEntity
  8
0
 62
7
100
AcDbPolyline
 90
4
 70
1
 10
1030.500008
 20
101.960119
 30
0.0
 10
1030.500008
 20
91.000000
 30
0.0
 10
1024.172181
 20
91.000000
 30
0.0
 10
1030.500008
 20
101.960119
 30
0.0
  0
LWPOLYLINE
  5
13b
100
AcDbEntity
  8
0
 62
7
100
AcDbPolyline
 90
4
 70
1
 10
178.678658
 20
160.800000
 30
0.0
 10
169.500008
 20
144.902112
 30
0.0
 10
169.500008
 20
160.800000
 30
0.0
 10
178.678658
 20
160.800000
 30
0.0
  0
LWPOLYLINE
  5
13c
100
AcDbEntity
  8
0
 62
7
100
AcDbPolyline
 90
5
 70
1
 10
195.870463
 20
135.080358
 30
0.0
 10
195.870463
 20
111.781873
 30
0.0
 10
172.571978
 20
111.781873
 30
0.0
 10
172.571978
 20
135.080358
 30
0.0
 10
195.870463
 20
135.080358
 30
0.0
  0
LWPOLYLINE
  5
13d
100
AcDbEntity
  8
0
 62
7
100
AcDbPolyline
 90
5
 70
1
 10
225.568948
 20
135.080358
 30
0.0
 10
225.568948
 20
111.781873
 30
0.0
 10
202.270463
 20
111.781873
 30
0.0
 10
202.270463
 20
135.080358
 30
0.0
 10
225.568948
 20
135.080358
 30
0.0
  0
LWPOLYLINE
  5
13e
100
AcDbEntity
  8
0
 62
7
100
AcDbPolyline
 90
4
 70
1
 10
184.221221
 20
157.600000
 30
0.0
 10
193.527901
 20
141.480358
 30
0.0
 10
174.914541
 20
141.480358
 30
0.0
 10
184.221221
 20
157.600000
 30
0.0
  0
LWPOLYLINE
  5
13f
100
AcDbEntity
  8
0
 62
7
100
AcDbPolyline
 90
4
 70
1
 10
199.070463
 20
144.680358
 30
0.0
 10
189.763783
 20
160.800000
 30
0.0
 10
208.377143
 20
160.800000
 30
0.0
 10
199.070463
 20
144.680358
 30
0.0
  0
LWPOLYLINE
  5
140
100
AcDbEntity
  8
0
 62
7
100
AcDbPolyline
 90
4
 70
1
 10
213.919706
 20
157.600000
 30
0.0
 10
223.226386
 20
141.480358
 30
0.0
 10
204.613026
 20
141.480358
 30
0.0
 10
213.919706
 20
157.600000
 30
0.0
  0
LWPOLYLINE
  5
141
100
AcDbEntity
  8
0
 62
7
100
AcDbPolyline
 90
4
 70
1
 10
228.768948
 20
144.680358
 30
0.0
 10
219.462268
 20
160.800000
 30
0.0
 10
238.075628
 20
160.800000
 30
0.0
 10
228.768948
 20
144.680358
 30
0.0
  0
LWPOLYLINE
  5
142
100
AcDbEntity
  8
0
 62
7
100
AcDbPolyline
 90
5
 70
1
 10
255.267433
 20
135.080358
 30
0.0
 10
255.267433
 20
111.781873
 30
0.0
 10
231.968948
 20
111.781873
 30
0.0
 10
231.968948
 20
135.080358
 30
0.0
 10
255.267433
 20
135.080358
 30
0.0
  0
LWPOLYLINE
  5
143
100
AcDbEntity
  8
0
 62
7
100
AcDbPolyline
 90
5
 70
1
 10
284.965918
 20
135.080358
 30
0.0
 10
284.965918
 20
111.781873
 30
0.0
 10
261.667433
 20
111.781873
 30
0.0
 10
261.667433
 20
135.080358
 30
0.0
 10
284.965918
 20
135.080358
 30
0.0
  0
LWPOLYLINE
  5
144
100
AcDbEntity
  8
0
 62
7
100
AcDbPolyline
 90
4
 70
1
 10
243.618191
 20
157.600000
 30
0.0
 10
252.924870
 20
141.480358
 30
0.0
 10
234.311511
 20
141.480358
 30
0.0
 10
243.618191
 20
157.600000
 30
0.0
  0
LWPOLYLINE
  5
145
100
AcDbEntity
  8
0
 62
7
100
AcDbPolyline
 90
4
 70
1
 10
258.467433
 20
144.680358
 30
0.0
 10
249.160753
 20
160.800000
 30
0.0
 10
267.774113
 20
160.800000
 30
0.0
 10
258.467433
 20
144.680358
 30
0.0
  0
LWPOLYLINE
  5
146
100
AcDbEntity
  8
0
 62
7
100
AcDbPolyline
 90
4
 70
1
 10
273.316675
 20
157.600000
 30
0.0
 10
282.623355
 20
141.480358
 30
0.0
 10
264.009995
 20
141.480358
 30
0.0
 10
273.316675
 20
157.600000
 30
0.0
  0
LWPOLYLINE
  5
147
100
AcDbEntity
  8
0
 62
7
100
AcDbPolyline
 90
4
 70
1
 10
288.165918
 20
144.680358
 30
0.0
 10
278.859238
 20
160.800000
 30
0.0
 10
297.472598
 20
160.800000
 30
0.0
 10
288.165918
 20
144.680358
 30
0.0
  0
LWPOLYLINE
  5
148
100
AcDbEntity
  8
0
 62
7
100
AcDbPolyline
 90
5
 70
1
 10
314.664403
 20
135.080358
 30
0.0
 10
314.664403
 20
111.781873
 30
0.0
 10
291.365918
 20
111.781873
 30
0.0
 10
291.365918
 20
135.080358
 30
0.0
 10
314.664403
 20
135.080358
 30
0.0
  0
LWPOLYLINE
  5
149
100
AcDbEntity
  8
0
 62
7
100
AcDbPolyline
 90
5
 70
1
 10
344.362887
 20
135.080358
 30
0.0
 10
344.362887
 20
111.781873
 30
0.0
 10
321.064403
 20
111.781873
 30
0.0
 10
321.064403
 20
135.080358
 30
0.0
 10
344.362887
 20
135.080358
 30
0.0
  0
LWPOLYLINE
  5
14a
100
AcDbEntity
  8
0
 62
7
100
AcDbPolyline
 90
4
 70
1
 10
303.015160
 20
157.600000
 30
0.0
 10
312.321840
 20
141.480358
 30
0.0
 10
293.708480
 20
141.480358
 30
0.0
 10
303.015160
 20
157.600000
 30
0.0
  0
LWPOLYLINE
  5
14b
100
AcDbEntity
  8
0
 62
7
100
AcDbPolyline
 90
4
 70
1
 10
317.864403
 20
144.680358
 30
0.0
 10
308.557723
 20
160.800000
 30
0.0
 10
327.171082
 20
160.800000
 30
0.0
 10
317.864403
 20
144.680358
 30
0.0
  0
LWPOLYLINE
  5
14c
100
AcDbEntity
  8
0
 62
7
100
AcDbPolyline
 90
4
 70
1
 10
332.713645
 20
157.600000
 30
0.0
 10
342.020325
 20
141.480358
 30
0.0
 10
323.406965
 20
141.480358
 30
0.0
 10
332.713645
 20
157.600000
 30
0.0
  0
LWPOLYLINE
  5
14d
100
AcDbEntity
  8
0
 62
7
100
AcDbPolyline
 90
4
 70
1
 10
347.562887
 20
144.680358
 30
0.0
 10
338.256208
 20
160.800000
 30
0.0
 10
356.869567
 20
160.800000
 30
0.0
 10
347.562887
 20
144.680358
 30
0.0
  0
LWPOLYLINE
  5
14e
100
AcDbEntity
  8
0
 62
7
100
AcDbPolyline
 90
5
 70
1
 10
374.061372
 20
135.080358
 30
0.0
 10
374.061372
 20
111.781873
 30
0.0
 10
350.762887
 20
111.781873
 30
0.0
 10
350.762887
 20
135.080358
 30
0.0
 10
374.061372
 20
135.080358
 30
0.0
  0
LWPOLYLINE
  5
14f
100
AcDbEntity
  8
0
 62
7
100
AcDbPolyline
 90
5
 70
1
 10
403.759857
 20
135.080358
 30
0.0
 10
403.759857
 20
111.781873
 30
0.0
 10
380.461372
 20
111.781873
 30
0.0
 10
380.461372
 20
135.080358
 30
0.0
 10
403.759857
 20
135.080358
 30
0.0
  0
LWPOLYLINE
  5
150
100
AcDbEntity
  8
0
 62
7
100
AcDbPolyline
 90
4
 70
1
 10
362.412130
 20
157.600000
 30
0.0
 10
371.718810
 20
141.480358
 30
0.0
 10
353.105450
 20
141.480358
 30
0.0
 10
362.412130
 20
157.600000
 30
0.0
  0
LWPOLYLINE
  5
151
100
AcDbEntity
  8
0
 62
7
100
AcDbPolyline
 90
4
 70
1
 10
377.261372
 20
144.680358
 30
0.0
 10
367.954692
 20
160.800000
 30
0.0
 10
386.568052
 20
160.800000
 30
0.0
 10
377.261372
 20
144.680358
 30
0.0
  0
LWPOLYLINE
  5
152
100
AcDbEntity
  8
0
 62
7
100
AcDbPolyline
 90
4
 70
1
 10
392.110615
 20
157.600000
 30
0.0
 10
401.417294
 20
141.480358
 30
0.0
 10
382.803935
 20
141.480358
 30
0.0
 10
392.110615
 20
157.600000
 30
0.0
  0
LWPOLYLINE
  5
153
100
AcDbEntity
  8
0
 62
7
100
AcDbPolyline
 90
4
 70
1
 10
406.959857
 20
144.680358
 30
0.0
 10
397.653177
 20
160.800000
 30
0.0
 10
416.266537
 20
160.800000
 30
0.0
 10
406.959857
 20
144.680358
 30
0.0
  0
LWPOLYLINE
  5
154
100
AcDbEntity
  8
0
 62
7
100
AcDbPolyline
 90
5
 70
1
 10
433.458342
 20
135.080358
 30
0.0
 10
433.458342
 20
111.781873
 30
0.0
 10
410.159857
 20
111.781873
 30
0.0
 10
410.159857
 20
135.080358
 30
0.0
 10
433.458342
 20
135.080358
 30
0.0
  0
LWPOLYLINE
  5
155
100
AcDbEntity
  8
0
 62
7
100
AcDbPolyline
 90
5
 70
1
 10
463.156827
 20
135.080358
 30
0.0
 10
463.156827
 20
111.781873
 30
0.0
 10
439.858342
 20
111.781873
 30
0.0
 10
439.858342
 20
135.080358
 30
0.0
 10
463.156827
 20
135.080358
 30
0.0
  0
LWPOLYLINE
  5
156
100
AcDbEntity
  8
0
 62
7
100
AcDbPolyline
 90
4
 70
1
 10
421.809099
 20
157.600000
 30
0.0
 10
431.115779
 20
141.480358
 30
0.0
 10
412.502420
 20
141.480358
 30
0.0
 10
421.809099
 20
157.600000
 30
0.0
  0
LWPOLYLINE
  5
157
100
AcDbEntity
  8
0
 62
7
100
AcDbPolyline
 90
4
 70
1
 10
436.658342
 20
144.680358
 30
0.0
 10
427.351662
 20
160.800000
 30
0.0
 10
445.965022
 20
160.800000
 30
0.0
 10
436.658342
 20
144.680358
 30
0.0
  0
LWPOLYLINE
  5
158
100
AcDbEntity
  8
0
 62
7
100
AcDbPolyline
 90
4
 70
1
 10
451.507584
 20
157.600000
 30
0.0
 10
460.814264
 20
141.480358
 30
0.0
 10
442.200904
 20
141.480358
 30
0.0
 10
451.507584
 20
157.600000
 30
0.0
  0
LWPOLYLINE
  5
159
100
AcDbEntity
  8
0
 62
7
100
AcDbPolyline
 90
4
 70
1
 10
466.356827
 20
144.680358
 30
0.0
 10
457.050147
 20
160.800000
 30
0.0
 10
475.663506
 20
160.800000
 30
0.0
 10
466.356827
 20
144.680358
 30
0.0
  0
LWPOLYLINE
  5
15a
100
AcDbEntity
  8
0
 62
7
100
AcDbPolyline
 90
5
 70
1
 10
492.855311
 20
135.080358
 30
0.0
 10
492.855311
 20
111.781873
 30
0.0
 10
469.556827
 20
111.781873
 30
0.0
 10
469.556827
 20
135.080358
 30
0.0
 10
492.855311
 20
135.080358
 30
0.0
  0
LWPOLYLINE
  5
15b
100
AcDbEntity
  8
0
 62
7
100
AcDbPolyline
 90
5
 70
1
 10
522.553796
 20
135.080358
 30
0.0
 10
522.553796
 20
111.781873
 30
0.0
 10
499.255311
 20
111.781873
 30
0.0
 10
499.255311
 20
135.080358
 30
0.0
 10
522.553796
 20
135.080358
 30
0.0
  0
LWPOLYLINE
  5
15c
100
AcDbEntity
  8
0
 62
7
100
AcDbPolyline
 90
4
 70
1
 10
481.206069
 20
157.600000
 30
0.0
 10
490.512749
 20
141.480358
 30
0.0
 10
471.899389
 20
141.480358
 30
0.0
 10
481.206069
 20
157.600000
 30
0.0
  0
LWPOLYLINE
  5
15d
100
AcDbEntity
  8
0
 62
7
100
AcDbPolyline
 90
4
 70
1
 10
496.055311
 20
144.680358
 30
0.0
 10
486.748632
 20
160.800000
 30
0.0
 10
505.361991
 20
160.800000
 30
0.0
 10
496.055311
 20
144.680358
 30
0.0
  0
LWPOLYLINE
  5
15e
100
AcDbEntity
  8
0
 62
7
100
AcDbPolyline
 90
4
 70
1
 10
510.904554
 20
157.600000
 30
0.0
 10
520.211234
 20
141.480358
 30
0.0
 10
501.597874
 20
141.480358
 30
0.0
 10
510.904554
 20
157.600000
 30
0.0
  0
LWPOLYLINE
  5
15f
100
AcDbEntity
  8
0
 62
7
100
AcDbPolyline
 90
4
 70
1
 10
525.753796
 20
144.680358
 30
0.0
 10
516.447116
 20
160.800000
 30
0.0
 10
535.060476
 20
160.800000
 30
0.0
 10
525.753796
 20
144.680358
 30
0.0
  0
LWPOLYLINE
  5
160
100
AcDbEntity
  8
0
 62
7
100
AcDbPolyline
 90
5
 70
1
 10
552.252281
 20
135.080358
 30
0.0
 10
552.252281
 20
111.781873
 30
0.0
 10
528.953796
 20
111.781873
 30
0.0
 10
528.953796
 20
135.080358
 30
0.0
 10
552.252281
 20
135.080358
 30
0.0
  0
LWPOLYLINE
  5
161
100
AcDbEntity
  8
0
 62
7
100
AcDbPolyline
 90
5
 70
1
 10
581.950766
 20
135.080358
 30
0.0
 10
581.950766
 20
111.781873
 30
0.0
 10
558.652281
 20
111.781873
 30
0.0
 10
558.652281
 20
135.080358
 30
0.0
 10
581.950766
 20
135.080358
 30
0.0
  0
LWPOLYLINE
  5
162
100
AcDbEntity
  8
0
 62
7
100
AcDbPolyline
 90
4
 70
1
 10
540.603039
 20
157.600000
 30
0.0
 10
549.909718
 20
141.480358
 30
0.0
 10
531.296359
 20
141.480358
 30
0.0
 10
540.603039
 20
157.600000
 30
0.0
  0
LWPOLYLINE
  5
163
100
AcDbEntity
  8
0
 62
7
100
AcDbPolyline
 90
4
 70
1
 10
555.452281
 20
144.680358
 30
0.0
 10
546.145601
 20
160.800000
 30
0.0
 10
564.758961
 20
160.800000
 30
0.0
 10
555.452281
 20
144.680358
 30
0.0
  0
LWPOLYLINE
  5
164
100
AcDbEntity
  8
0
 62
7
100
AcDbPolyline
 90
4
 70
1
 10
570.301523
 20
157.600000
 30
0.0
 10
579.608203
 20
141.480358
 30
0.0
 10
560.994844
 20
141.480358
 30
0.0
 10
570.301523
 20
157.600000
 30
0.0
  0
LWPOLYLINE
  5
165
100
AcDbEntity
  8
0
 62
7
100
AcDbPolyline
 90
4
 70
1
 10
585.150766
 20
144.680358
 30
0.0
 10
575.844086
 20
160.800000
 30
0.0
 10
594.457446
 20
160.800000
 30
0.0
 10
585.150766
 20
144.680358
 30
0.0
  0
LWPOLYLINE
  5
166
100
AcDbEntity
  8
0
 62
7
100
AcDbPolyline
 90
5
 70
1
 10
611.649251
 20
135.080358
 30
0.0
 10
611.649251
 20
111.781873
 30
0.0
 10
588.350766
 20
111.781873
 30
0.0
 10
588.350766
 20
135.080358
 30
0.0
 10
611.649251
 20
135.080358
 30
0.0
  0
LWPOLYLINE
  5
167
100
AcDbEntity
  8
0
 62
7
100
AcDbPolyline
 90
5
 70
1
 10
641.347735
 20
135.080358
 30
0.0
 10
641.347735
 20
111.781873
 30
0.0
 10
618.049251
 20
111.781873
 30
0.0
 10
618.049251
 20
135.080358
 30
0.0
 10
641.347735
 20
135.080358
 30
0.0
  0
LWPOLYLINE
  5
168
100
AcDbEntity
  8
0
 62
7
100
AcDbPolyline
 90
4
 70
1
 10
600.000008
 20
157.600000
 30
0.0
 10
609.306688
 20
141.480358
 30
0.0
 10
590.693328
 20
141.480358
 30
0.0
 10
600.000008
 20
157.600000
 30
0.0
  0
LWPOLYLINE
  5
169
100
AcDbEntity
  8
0
 62
7
100
AcDbPolyline
 90
4
 70
1
 10
614.849251
 20
144.680358
 30
0.0
 10
605.542571
 20
160.800000
 30
0.0
 10
624.155930
 20
160.800000
 30
0.0
 10
614.849251
 20
144.680358
 30
0.0
  0
LWPOLYLINE
  5
16a
100
AcDbEntity
  8
0
 62
7
100
AcDbPolyline
 90
4
 70
1
 10
629.698493
 20
157.600000
 30
0.0
 10
639.005173
 20
141.480358
 30
0.0
 10
620.391813
 20
141.480358
 30
0.0
 10
629.698493
 20
157.600000
 30
0.0
  0
LWPOLYLINE
  5
16b
100
AcDbEntity
  8
0
 62
7
100
AcDbPolyline
 90
4
 70
1
 10
644.547735
 20
144.680358
 30
0.0
 10
635.241056
 20
160.800000
 30
0.0
 10
653.854415
 20
160.800000
 30
0.0
 10
644.547735
 20
144.680358
 30
0.0
  0
LWPOLYLINE
  5
16c
100
AcDbEntity
  8
0
 62
7
100
AcDbPolyline
 90
5
 70
1
 10
671.046220
 20
135.080358
 30
0.0
 10
671.046220
 20
111.781873
 30
0.0
 10
647.747735
 20
111.781873
 30
0.0
 10
647.747735
 20
135.080358
 30
0.0
 10
671.046220
 20
135.080358
 30
0.0
  0
LWPOLYLINE
  5
16d
100
AcDbEntity
  8
0
 62
7
100
AcDbPolyline
 90
5
 70
1
 10
700.744705
 20
135.080358
 30
0.0
 10
700.744705
 20
111.781873
 30
0.0
 10
677.446220
 20
111.781873
 30
0.0
 10
677.446220
 20
135.080358
 30
0.0
 10
700.744705
 20
135.080358
 30
0.0
  0
LWPOLYLINE
  5
16e
100
AcDbEntity
  8
0
 62
7
100
AcDbPolyline
 90
4
 70
1
 10
659.396978
 20
157.600000
 30
0.0
 10
668.703658
 20
141.480358
 30
0.0
 10
650.090298
 20
141.480358
 30
0.0
 10
659.396978
 20
157.600000
 30
0.0
  0
LWPOLYLINE
  5
16f
100
AcDbEntity
  8
0
 62
7
100
AcDbPolyline
 90
4
 70
1
 10
674.246220
 20
144.680358
 30
0.0
 10
664.939540
 20
160.800000
 30
0.0
 10
683.552900
 20
160.800000
 30
0.0
 10
674.246220
 20
144.680358
 30
0.0
  0
LWPOLYLINE
  5
170
100
AcDbEntity
  8
0
 62
7
100
AcDbPolyline
 90
4
 70
1
 10
689.095463
 20
157.600000
 30
0.0
 10
698.402142
 20
141.480358
 30
0.0
 10
679.788783
 20
141.480358
 30
0.0
 10
689.095463
 20
157.600000
 30
0.0
  0
LWPOLYLINE
  5
171
100
AcDbEntity
  8
0
 62
7
100
AcDbPolyline
 90
4
 70
1
 10
703.944705
 20
144.680358
 30
0.0
 10
694.638025
 20
160.800000
 30
0.0
 10
713.251385
 20
160.800000
 30
0.0
 10
703.944705
 20
144.680358
 30
0.0
  0
LWPOLYLINE
  5
172
100
AcDbEntity
  8
0
 62
7
100
AcDbPolyline
 90
5
 70
1
 10
730.443190
 20
135.080358
 30
0.0
 10
730.443190
 20
111.781873
 30
0.0
 10
707.144705
 20
111.781873
 30
0.0
 10
707.144705
 20
135.080358
 30
0.0
 10
730.443190
 20
135.080358
 30
0.0
  0
LWPOLYLINE
  5
173
100
AcDbEntity
  8
0
 62
7
100
AcDbPolyline
 90
5
 70
1
 10
760.141675
 20
135.080358
 30
0.0
 10
760.141675
 20
111.781873
 30
0.0
 10
736.843190
 20
111.781873
 30
0.0
 10
736.843190
 20
135.080358
 30
0.0
 10
760.141675
 20
135.080358
 30
0.0
  0
LWPOLYLINE
  5
174
100
AcDbEntity
  8
0
 62
7
100
AcDbPolyline
 90
4
 70
1
 10
718.793947
 20
157.600000
 30
0.0
 10
728.100627
 20
141.480358
 30
0.0
 10
709.487268
 20
141.480358
 30
0.0
 10
718.793947
 20
157.600000
 30
0.0
  0
LWPOLYLINE
  5
175
100
AcDbEntity
  8
0
 62
7
100
AcDbPolyline
 90
4
 70
1
 10
733.643190
 20
144.680358
 30
0.0
 10
724.336510
 20
160.800000
 30
0.0
 10
742.949870
 20
160.800000
 30
0.0
 10
733.643190
 20
144.680358
 30
0.0
  0
LWPOLYLINE
  5
176
100
AcDbEntity
  8
0
 62
7
100
AcDbPolyline
 90
4
 70
1
 10
748.492432
 20
157.600000
 30
0.0
 10
757.799112
 20
141.480358
 30
0.0
 10
739.185752
 20
141.480358
 30
0.0
 10
748.492432
 20
157.600000
 30
0.0
  0
LWPOLYLINE
  5
177
100
AcDbEntity
  8
0
 62
7
100
AcDbPolyline
 90
4
 70
1
 10
763.341675
 20
144.680358
 30
0.0
 10
754.034995
 20
160.800000
 30
0.0
 10
772.648354
 20
160.800000
 30
0.0
 10
763.341675
 20
144.680358
 30
0.0
  0
LWPOLYLINE
  5
178
100
AcDbEntity
  8
0
 62
7
100
AcDbPolyline
 90
5
 70
1
 10
789.840159
 20
135.080358
 30
0.0
 10
789.840159
 20
111.781873
 30
0.0
 10
766.541675
 20
111.781873
 30
0.0
 10
766.541675
 20
135.080358
 30
0.0
 10
789.840159
 20
135.080358
 30
0.0
  0
LWPOLYLINE
  5
179
100
AcDbEntity
  8
0
 62
7
100
AcDbPolyline
 90
5
 70
1
 10
819.538644
 20
135.080358
 30
0.0
 10
819.538644
 20
111.781873
 30
0.0
 10
796.240159
 20
111.781873
 30
0.0
 10
796.240159
 20
135.080358
 30
0.0
 10
819.538644
 20
135.080358
 30
0.0
  0
LWPOLYLINE
  5
17a
100
AcDbEntity
  8
0
 62
7
100
AcDbPolyline
 90
4
 70
1
 10
778.190917
 20
157.600000
 30
0.0
 10
787.497597
 20
141.480358
 30
0.0
 10
768.884237
 20
141.480358
 30
0.0
 10
778.190917
 20
157.600000
 30
0.0
  0
LWPOLYLINE
  5
17b
100
AcDbEntity
  8
0
 62
7
100
AcDbPolyline
 90
4
 70
1
 10
793.040159
 20
144.680358
 30
0.0
 10
783.733480
 20
160.800000
 30
0.0
 10
802.346839
 20
160.800000
 30
0.0
 10
793.040159
 20
144.680358
 30
0.0
  0
LWPOLYLINE
  5
17c
100
AcDbEntity
  8
0
 62
7
100
AcDbPolyline
 90
4
 70
1
 10
807.889402
 20
157.600000
 30
0.0
 10
817.196082
 20
141.480358
 30
0.0
 10
798.582722
 20
141.480358
 30
0.0
 10
807.889402
 20
157.600000
 30
0.0
  0
LWPOLYLINE
  5
17d
100
AcDbEntity
  8
0
 62
7
100
AcDbPolyline
 90
4
 70
1
 10
822.738644
 20
144.680358
 30
0.0
 10
813.431964
 20
160.800000
 30
0.0
 10
832.045324
 20
160.800000
 30
0.0
 10
822.738644
 20
144.680358
 30
0.0
  0
LWPOLYLINE
  5
17e
100
AcDbEntity
  8
0
 62
7
100
AcDbPolyline
 90
5
 70
1
 10
849.237129
 20
135.080358
 30
0.0
 10
849.237129
 20
111.781873
 30
0.0
 10
825.938644
 20
111.781873
 30
0.0
 10
825.938644
 20
135.080358
 30
0.0
 10
849.237129
 20
135.080358
 30
0.0
  0
LWPOLYLINE
  5
17f
100
AcDbEntity
  8
0
 62
7
100
AcDbPolyline
 90
5
 70
1
 10
878.935614
 20
135.080358
 30
0.0
 10
878.935614
 20
111.781873
 30
0.0
 10
855.637129
 20
111.781873
 30
0.0
 10
855.637129
 20
135.080358
 30
0.0
 10
878.935614
 20
135.080358
 30
0.0
  0
LWPOLYLINE
  5
180
100
AcDbEntity
  8
0
 62
7
100
AcDbPolyline
 90
4
 70
1
 10
837.587887
 20
157.600000
 30
0.0
 10
846.894567
 20
141.480358
 30
0.0
 10
828.281207
 20
141.480358
 30
0.0
 10
837.587887
 20
157.600000
 30
0.0
  0
LWPOLYLINE
  5
181
100
AcDbEntity
  8
0
 62
7
100
AcDbPolyline
 90
4
 70
1
 10
852.437129
 20
144.680358
 30
0.0
 10
843.130449
 20
160.800000
 30
0.0
 10
861.743809
 20
160.800000
 30
0.0
 10
852.437129
 20
144.680358
 30
0.0
  0
LWPOLYLINE
  5
182
100
AcDbEntity
  8
0
 62
7
100
AcDbPolyline
 90
4
 70
1
 10
867.286372
 20
157.600000
 30
0.0
 10
876.593051
 20
141.480358
 30
0.0
 10
857.979692
 20
141.480358
 30
0.0
 10
867.286372
 20
157.600000
 30
0.0
  0
LWPOLYLINE
  5
183
100
AcDbEntity
  8
0
 62
7
100
AcDbPolyline
 90
4
 70
1
 10
882.135614
 20
144.680358
 30
0.0
 10
872.828934
 20
160.800000
 30
0.0
 10
891.442294
 20
160.800000
 30
0.0
 10
882.135614
 20
144.680358
 30
0.0
  0
LWPOLYLINE
  5
184
100
AcDbEntity
  8
0
 62
7
100
AcDbPolyline
 90
5
 70
1
 10
908.634099
 20
135.080358
 30
0.0
 10
908.634099
 20
111.781873
 30
0.0
 10
885.335614
 20
111.781873
 30
0.0
 10
885.335614
 20
135.080358
 30
0.0
 10
908.634099
 20
135.080358
 30
0.0
  0
LWPOLYLINE
  5
185
100
AcDbEntity
  8
0
 62
7
100
AcDbPolyline
 90
5
 70
1
 10
938.332584
 20
135.080358
 30
0.0
 10
938.332584
 20
111.781873
 30
0.0
 10
915.034099
 20
111.781873
 30
0.0
 10
915.034099
 20
135.080358
 30
0.0
 10
938.332584
 20
135.080358
 30
0.0
  0
LWPOLYLINE
  5
186
100
AcDbEntity
  8
0
 62
7
100
AcDbPolyline
 90
4
 70
1
 10
896.984856
 20
157.600000
 30
0.0
 10
906.291536
 20
141.480358
 30
0.0
 10
887.678176
 20
141.480358
 30
0.0
 10
896.984856
 20
157.600000
 30
0.0
  0
LWPOLYLINE
  5
187
100
AcDbEntity
  8
0
 62
7
100
AcDbPolyline
 90
4
 70
1
 10
911.834099
 20
144.680358
 30
0.0
 10
902.527419
 20
160.800000
 30
0.0
 10
921.140779
 20
160.800000
 30
0.0
 10
911.834099
 20
144.680358
 30
0.0
  0
LWPOLYLINE
  5
188
100
AcDbEntity
  8
0
 62
7
100
AcDbPolyline
 90
4
 70
1
 10
926.683341
 20
157.600000
 30
0.0
 10
935.990021
 20
141.480358
 30
0.0
 10
917.376661
 20
141.480358
 30
0.0
 10
926.683341
 20
157.600000
 30
0.0
  0
LWPOLYLINE
  5
189
100
AcDbEntity
  8
0
 62
7
100
AcDbPolyline
 90
4
 70
1
 10
941.532584
 20
144.680358
 30
0.0
 10
932.225904
 20
160.800000
 30
0.0
 10
950.839263
 20
160.800000
 30
0.0
 10
941.532584
 20
144.680358
 30
0.0
  0
LWPOLYLINE
  5
18a
100
AcDbEntity
  8
0
 62
7
100
AcDbPolyline
 90
5
 70
1
 10
968.031068
 20
135.080358
 30
0.0
 10
968.031068
 20
111.781873
 30
0.0
 10
944.732584
 20
111.781873
 30
0.0
 10
944.732584
 20
135.080358
 30
0.0
 10
968.031068
 20
135.080358
 30
0.0
  0
LWPOLYLINE
  5
18b
100
AcDbEntity
  8
0
 62
7
100
AcDbPolyline
 90
5
 70
1
 10
997.729553
 20
135.080358
 30
0.0
 10
997.729553
 20
111.781873
 30
0.0
 10
974.431068
 20
111.781873
 30
0.0
 10
974.431068
 20
135.080358
 30
0.0
 10
997.729553
 20
135.080358
 30
0.0
  0
LWPOLYLINE
  5
18c
100
AcDbEntity
  8
0
 62
7
100
AcDbPolyline
 90
4
 70
1
 10
956.381826
 20
157.600000
 30
0.0
 10
965.688506
 20
141.480358
 30
0.0
 10
947.075146
 20
141.480358
 30
0.0
 10
956.381826
 20
157.600000
 30
0.0
  0
LWPOLYLINE
  5
18d
100
AcDbEntity
  8
0
 62
7
100
AcDbPolyline
 90
4
 70
1
 10
971.231068
 20
144.680358
 30
0.0
 10
961.924389
 20
160.800000
 30
0.0
 10
980.537748
 20
160.800000
 30
0.0
 10
971.231068
 20
144.680358
 30
0.0
  0
LWPOLYLINE
  5
18e
100
AcDbEntity
  8
0
 62
7
100
AcDbPolyline
 90
4
 70
1
 10
986.080311
 20
157.600000
 30
0.0
 10
995.386991
 20
141.480358
 30
0.0
 10
976.773631
 20
141.480358
 30
0.0
 10
986.080311
 20
157.600000
 30
0.0
  0
LWPOLYLINE
  5
18f
100
AcDbEntity
  8
0
 62
7
100
AcDbPolyline
 90
4
 70
1
 10
1000.929553
 20
144.680358
 30
0.0
 10
991.622873
 20
160.800000
 30
0.0
 10
1010.236233
 20
160.800000
 30
0.0
 10
1000.929553
 20
144.680358
 30
0.0
  0
LWPOLYLINE
  5
190
100
AcDbEntity
  8
0
 62
7
100
AcDbPolyline
 90
5
 70
1
 10
1027.428038
 20
135.080358
 30
0.0
 10
1027.428038
 20
111.781873
 30
0.0
 10
1004.129553
 20
111.781873
 30
0.0
 10
1004.129553
 20
135.080358
 30
0.0
 10
1027.428038
 20
135.080358
 30
0.0
  0
LWPOLYLINE
  5
191
100
AcDbEntity
  8
0
 62
7
100
AcDbPolyline
 90
4
 70
1
 10
1015.778796
 20
157.600000
 30
0.0
 10
1025.085475
 20
141.480358
 30
0.0
 10
1006.472116
 20
141.480358
 30
0.0
 10
1015.778796
 20
157.600000
 30
0.0
  0
LWPOLYLINE
  5
192
100
AcDbEntity
  8
0
 62
7
100
AcDbPolyline
 90
4
 70
1
 10
1021.321358
 20
160.800000
 30
0.0
 10
1030.500008
 20
160.800000
 30
0.0
 10
1030.500008
 20
144.902112
 30
0.0
 10
1021.321358
 20
160.800000
 30
0.0
  0
LWPOLYLINE
  5
193
100
AcDbEntity
  8
0
 62
7
100
AcDbPolyline
 90
5
 70
1
 10
181.021221
 20
167.200000
 30
0.0
 10
169.500008
 20
167.200000
 30
0.0
 10
169.500008
 20
190.498485
 30
0.0
 10
181.021221
 20
190.498485
 30
0.0
 10
181.021221
 20
167.200000
 30
0.0
  0
LWPOLYLINE
  5
194
100
AcDbEntity
  8
0
 62
7
100
AcDbPolyline
 90
5
 70
1
 10
178.678658
 20
196.898485
 30
0.0
 10
169.500008
 20
196.898485
 30
0.0
 10
169.500008
 20
211.000000
 30
0.0
 10
170.537145
 20
211.000000
 30
0.0
 10
178.678658
 20
196.898485
 30
0.0
  0
LWPOLYLINE
  5
195
100
AcDbEntity
  8
0
 62
7
100
AcDbPolyline
 90
4
 70
1
 10
177.927228
 20
211.000000
 30
0.0
 10
190.515214
 20
211.000000
 30
0.0
 10
184.221221
 20
200.098485
 30
0.0
 10
177.927228
 20
211.000000
 30
0.0
  0
LWPOLYLINE
  5
196
100
AcDbEntity
  8
0
 62
7
100
AcDbPolyline
 90
5
 70
1
 10
210.719706
 20
190.498485
 30
0.0
 10
210.719706
 20
167.200000
 30
0.0
 10
187.421221
 20
167.200000
 30
0.0
 10
187.421221
 20
190.498485
 30
0.0
 10
210.719706
 20
190.498485
 30
0.0
  0
LWPOLYLINE
  5
197
100
AcDbEntity
  8
0
 62
7
100
AcDbPolyline
 90
5
 70
1
 10
240.418191
 20
190.498485
 30
0.0
 10
240.418191
 20
167.200000
 30
0.0
 10
217.119706
 20
167.200000
 30
0.0
 10
217.119706
 20
190.498485
 30
0.0
 10
240.418191
 20
190.498485
 30
0.0
  0
LWPOLYLINE
  5
198
100
AcDbEntity
  8
0
 62
7
100
AcDbPolyline
 90
5
 70
1
 10
208.377143
 20
196.898485
 30
0.0
 10
189.763783
 20
196.898485
 30
0.0
 10
197.905297
 20
211.000000
 30
0.0
 10
200.235630
 20
211.000000
 30
0.0
 10
208.377143
 20
196.898485
 30
0.0
  0
LWPOLYLINE
  5
199
100
AcDbEntity
  8
0
 62
7
100
AcDbPolyline
 90
4
 70
1
 10
207.625713
 20
211.000000
 30
0.0
 10
220.213698
 20
211.000000
 30
0.0
 10
213.919706
 20
200.098485
 30
0.0
 10
207.625713
 20
211.000000
 30
0.0
  0
LWPOLYLINE
  5
19a
100
AcDbEntity
  8
0
 62
7
100
AcDbPolyline
 90
5
 70
1
 10
238.075628
 20
196.898485
 30
0.0
 10
219.462268
 20
196.898485
 30
0.0
 10
227.603782
 20
211.000000
 30
0.0
 10
229.934114
 20
211.000000
 30
0.0
 10
238.075628
 20
196.898485
 30
0.0
  0
LWPOLYLINE
  5
19b
100
AcDbEntity
  8
0
 62
7
100
AcDbPolyline
 90
4
 70
1
 10
237.324198
 20
211.000000
 30
0.0
 10
249.912183
 20
211.000000
 30
0.0
 10
243.618191
 20
200.098485
 30
0.0
 10
237.324198
 20
211.000000
 30
0.0
  0
LWPOLYLINE
  5
19c
100
AcDbEntity
  8
0
 62
7
100
AcDbPolyline
 90
5
 70
1
 10
270.116675
 20
190.498485
 30
0.0
 10
270.116675
 20
167.200000
 30
0.0
 10
246.818191
 20
167.200000
 30
0.0
 10
246.818191
 20
190.498485
 30
0.0
 10
270.116675
 20
190.498485
 30
0.0
  0
LWPOLYLINE
  5
19d
100
AcDbEntity
  8
0
 62
7
100
AcDbPolyline
 90
5
 70
1
 10
299.815160
 20
190.498485
 30
0.0
 10
299.815160
 20
167.200000
 30
0.0
 10
276.516675
 20
167.200000
 30
0.0
 10
276.516675
 20
190.498485
 30
0.0
 10
299.815160
 20
190.498485
 30
0.0
  0
LWPOLYLINE
  5
19e
100
AcDbEntity
  8
0
 62
7
100
AcDbPolyline
 90
5
 70
1
 10
267.774113
 20
196.898485
 30
0.0
 10
249.160753
 20
196.898485
 30
0.0
 10
257.302267
 20
211.000000
 30
0.0
 10
259.632599
 20
211.000000
 30
0.0
 10
267.774113
 20
196.898485
 30
0.0
  0
LWPOLYLINE
  5
19f
100
AcDbEntity
  8
0
 62
7
100
AcDbPolyline
 90
4
 70
1
 10
267.022683
 20
211.000000
 30
0.0
 10
279.610668
 20
211.000000
 30
0.0
 10
273.316675
 20
200.098485
 30
0.0
 10
267.022683
 20
211.000000
 30
0.0
  0
LWPOLYLINE
  5
1a0
100
AcDbEntity
  8
0
 62
7
100
AcDbPolyline
 90
5
 70
1
 10
297.472598
 20
196.898485
 30
0.0
 10
278.859238
 20
196.898485
 30
0.0
 10
287.000751
 20
211.000000
 30
0.0
 10
289.331084
 20
211.000000
 30
0.0
 10
297.472598
 20
196.898485
 30
0.0
  0
LWPOLYLINE
  5
1a1
100
AcDbEntity
  8
0
 62
7
100
AcDbPolyline
 90
4
 70
1
 10
296.721167
 20
211.000000
 30
0.0
 10
309.309153
 20
211.000000
 30
0.0
 10
303.015160
 20
200.098485
 30
0.0
 10
296.721167
 20
211.000000
 30
0.0
  0
LWPOLYLINE
  5
1a2
100
AcDbEntity
  8
0
 62
7
100
AcDbPolyline
 90
5
 70
1
 10
329.513645
 20
190.498485
 30
0.0
 10
329.513645
 20
167.200000
 30
0.0
 10
306.215160
 20
167.200000
 30
0.0
 10
306.215160
 20
190.498485
 30
0.0
 10
329.513645
 20
190.498485
 30
0.0
  0
LWPOLYLINE
  5
1a3
100
AcDbEntity
  8
0
 62
7
100
AcDbPolyline
 90
5
 70
1
 10
359.212130
 20
190.498485
 30
0.0
 10
359.212130
 20
167.200000
 30
0.0
 10
335.913645
 20
167.200000
 30
0.0
 10
335.913645
 20
190.498485
 30
0.0
 10
359.212130
 20
190.498485
 30
0.0
  0
LWPOLYLINE
  5
1a4
100
AcDbEntity
  8
0
 62
7
100
AcDbPolyline
 90
5
 70
1
 10
327.171082
 20
196.898485
 30
0.0
 10
308.557723
 20
196.898485
 30
0.0
 10
316.699236
 20
211.000000
 30
0.0
 10
319.029569
 20
211.000000
 30
0.0
 10
327.171082
 20
196.898485
 30
0.0
  0
LWPOLYLINE
  5
1a5
100
AcDbEntity
  8
0
 62
7
100
AcDbPolyline
 90
4
 70
1
 10
326.419652
 20
211.000000
 30
0.0
 10
339.007638
 20
211.000000
 30
0.0
 10
332.713645
 20
200.098485
 30
0.0
 10
326.419652
 20
211.000000
 30
0.0
  0
LWPOLYLINE
  5
1a6
100
AcDbEntity
  8
0
 62
7
100
AcDbPolyline
 90
5
 70
1
 10
356.869567
 20
196.898485
 30
0.0
 10
338.256208
 20
196.898485
 30
0.0
 10
346.397721
 20
211.000000
 30
0.0
 10
348.728054
 20
211.000000
 30
0.0
 10
356.869567
 20
196.898485
 30
0.0
  0
LWPOLYLINE
  5
1a7
100
AcDbEntity
  8
0
 62
7
100
AcDbPolyline
 90
4
 70
1
 10
356.118137
 20
211.000000
 30
0.0
 10
368.706122
 20
211.000000
 30
0.0
 10
362.412130
 20
200.098485
 30
0.0
 10
356.118137
 20
211.000000
 30
0.0
  0
LWPOLYLINE
  5
1a8
100
AcDbEntity
  8
0
 62
7
100
AcDbPolyline
 90
5
 70
1
 10
388.910615
 20
190.498485
 30
0.0
 10
388.910615
 20
167.200000
 30
0.0
 10
365.612130
 20
167.200000
 30
0.0
 10
365.612130
 20
190.498485
 30
0.0
 10
388.910615
 20
190.498485
 30
0.0
  0
LWPOLYLINE
  5
1a9
100
AcDbEntity
  8
0
 62
7
100
AcDbPolyline
 90
5
 70
1
 10
418.609099
 20
190.498485
 30
0.0
 10
418.609099
 20
167.200000
 30
0.0
 10
395.310615
 20
167.200000
 30
0.0
 10
395.310615
 20
190.498485
 30
0.0
 10
418.609099
 20
190.498485
 30
0.0
  0
LWPOLYLINE
  5
1aa
100
AcDbEntity
  8
0
 62
7
100
AcDbPolyline
 90
5
 70
1
 10
386.568052
 20
196.898485
 30
0.0
 10
367.954692
 20
196.898485
 30
0.0
 10
376.096206
 20
211.000000
 30
0.0
 10
378.426538
 20
211.000000
 30
0.0
 10
386.568052
 20
196.898485
 30
0.0
  0
LWPOLYLINE
  5
1ab
100
AcDbEntity
  8
0
 62
7
100
AcDbPolyline
 90
4
 70
1
 10
385.816622
 20
211.000000
 30
0.0
 10
398.404607
 20
211.000000
 30
0.0
 10
392.110615
 20
200.098485
 30
0.0
 10
385.816622
 20
211.000000
 30
0.0
  0
LWPOLYLINE
  5
1ac
100
AcDbEntity
  8
0
 62
7
100
AcDbPolyline
 90
5
 70
1
 10
416.266537
 20
196.898485
 30
0.0
 10
397.653177
 20
196.898485
 30
0.0
 10
405.794691
 20
211.000000
 30
0.0
 10
408.125023
 20
211.000000
 30
0.0
 10
416.266537
 20
196.898485
 30
0.0
  0
LWPOLYLINE
  5
1ad
100
AcDbEntity
  8
0
 62
7
100
AcDbPolyline
 90
4
 70
1
 10
415.515107
 20
211.000000
 30
0.0
 10
428.103092
 20
211.000000
 30
0.0
 10
421.809099
 20
200.098485
 30
0.0
 10
415.515107
 20
211.000000
 30
0.0
  0
LWPOLYLINE
  5
1ae
100
AcDbEntity
  8
0
 62
7
100
AcDbPolyline
 90
5
 70
1
 10
448.307584
 20
190.498485
 30
0.0
 10
448.307584
 20
167.200000
 30
0.0
 10
425.009099
 20
167.200000
 30
0.0
 10
425.009099
 20
190.498485
 30
0.0
 10
448.307584
 20
190.498485
 30
0.0
  0
LWPOLYLINE
  5
1af
100
AcDbEntity
  8
0
 62
7
100
AcDbPolyline
 90
5
 70
1
 10
478.006069
 20
190.498485
 30
0.0
 10
478.006069
 20
167.200000
 30
0.0
 10
454.707584
 20
167.200000
 30
0.0
 10
454.707584
 20
190.498485
 30
0.0
 10
478.006069
 20
190.498485
 30
0.0
  0
LWPOLYLINE
  5
1b0
100
AcDbEntity
  8
0
 62
7
100
AcDbPolyline
 90
5
 70
1
 10
445.965022
 20
196.898485
 30
0.0
 10
427.351662
 20
196.898485
 30
0.0
 10
435.493176
 20
211.000000
 30
0.0
 10
437.823508
 20
211.000000
 30
0.0
 10
445.965022
 20
196.898485
 30
0.0
  0
LWPOLYLINE
  5
1b1
100
AcDbEntity
  8
0
 62
7
100
AcDbPolyline
 90
4
 70
1
 10
445.213591
 20
211.000000
 30
0.0
 10
457.801577
 20
211.000000
 30
0.0
 10
451.507584
 20
200.098485
 30
0.0
 10
445.213591
 20
211.000000
 30
0.0
  0
LWPOLYLINE
  5
1b2
100
AcDbEntity
  8
0
 62
7
100
AcDbPolyline
 90
5
 70
1
 10
475.663506
 20
196.898485
 30
0.0
 10
457.050147
 20
196.898485
 30
0.0
 10
465.191660
 20
211.000000
 30
0.0
 10
467.521993
 20
211.000000
 30
0.0
 10
475.663506
 20
196.898485
 30
0.0
  0
LWPOLYLINE
  5
1b3
100
AcDbEntity
  8
0
 62
7
100
AcDbPolyline
 90
4
 70
1
 10
474.912076
 20
211.000000
 30
0.0
 10
487.500062
 20
211.000000
 30
0.0
 10
481.206069
 20
200.098485
 30
0.0
 10
474.912076
 20
211.000000
 30
0.0
  0
LWPOLYLINE
  5
1b4
100
AcDbEntity
  8
0
 62
7
100
AcDbPolyline
 90
5
 70
1
 10
507.704554
 20
190.498485
 30
0.0
 10
507.704554
 20
167.200000
 30
0.0
 10
484.406069
 20
167.200000
 30
0.0
 10
484.406069
 20
190.498485
 30
0.0
 10
507.704554
 20
190.498485
 30
0.0
  0
LWPOLYLINE
  5
1b5
100
AcDbEntity
  8
0
 62
7
100
AcDbPolyline
 90
5
 70
1
 10
537.403039
 20
190.498485
 30
0.0
 10
537.403039
 20
167.200000
 30
0.0
 10
514.104554
 20
167.200000
 30
0.0
 10
514.104554
 20
190.498485
 30
0.0
 10
537.403039
 20
190.498485
 30
0.0
  0
LWPOLYLINE
  5
1b6
100
AcDbEntity
  8
0
 62
7
100
AcDbPolyline
 90
5
 70
1
 10
505.361991
 20
196.898485
 30
0.0
 10
486.748632
 20
196.898485
 30
0.0
 10
494.890145
 20
211.000000
 30
0.0
 10
497.220478
 20
211.000000
 30
0.0
 10
505.361991
 20
196.898485
 30
0.0
  0
LWPOLYLINE
  5
1b7
100
AcDbEntity
  8
0
 62
7
100
AcDbPolyline
 90
4
 70
1
 10
504.610561
 20
211.000000
 30
0.0
 10
517.198547
 20
211.000000
 30
0.0
 10
510.904554
 20
200.098485
 30
0.0
 10
504.610561
 20
211.000000
 30
0.0
  0
LWPOLYLINE
  5
1b8
100
AcDbEntity
  8
0
 62
7
100
AcDbPolyline
 90
5
 70
1
 10
535.060476
 20
196.898485
 30
0.0
 10
516.447116
 20
196.898485
 30
0.0
 10
524.588630
 20
211.000000
 30
0.0
 10
526.918962
 20
211.000000
 30
0.0
 10
535.060476
 20
196.898485
 30
0.0
  0
LWPOLYLINE
  5
1b9
100
AcDbEntity
  8
0
 62
7
100
AcDbPolyline
 90
4
 70
1
 10
534.309046
 20
211.000000
 30
0.0
 10
546.897031
 20
211.000000
 30
0.0
 10
540.603039
 20
200.098485
 30
0.0
 10
534.309046
 20
211.000000
 30
0.0
  0
LWPOLYLINE
  5
1ba
100
AcDbEntity
  8
0
 62
7
100
AcDbPolyline
 90
5
 70
1
 10
567.101523
 20
190.498485
 30
0.0
 10
567.101523
 20
167.200000
 30
0.0
 10
543.803039
 20
167.200000
 30
0.0
 10
543.803039
 20
190.498485
 30
0.0
 10
567.101523
 20
190.498485
 30
0.0
  0
LWPOLYLINE
  5
1bb
100
AcDbEntity
  8
0
 62
7
100
AcDbPolyline
 90
5
 70
1
 10
596.800008
 20
190.498485
 30
0.0
 10
596.800008
 20
167.200000
 30
0.0
 10
573.501523
 20
167.200000
 30
0.0
 10
573.501523
 20
190.498485
 30
0.0
 10
596.800008
 20
190.498485
 30
0.0
  0
LWPOLYLINE
  5
1bc
100
AcDbEntity
  8
0
 62
7
100
AcDbPolyline
 90
5
 70
1
 10
564.758961
 20
196.898485
 30
0.0
 10
546.145601
 20
196.898485
 30
0.0
 10
554.287115
 20
211.000000
 30
0.0
 10
556.617447
 20
211.000000
 30
0.0
 10
564.758961
 20
196.898485
 30
0.0
  0
LWPOLYLINE
  5
1bd
100
AcDbEntity
  8
0
 62
7
100
AcDbPolyline
 90
4
 70
1
 10
564.007531
 20
211.000000
 30
0.0
 10
576.595516
 20
211.000000
 30
0.0
 10
570.301523
 20
200.098485
 30
0.0
 10
564.007531
 20
211.000000
 30
0.0
  0
LWPOLYLINE
  5
1be
100
AcDbEntity
  8
0
 62
7
100
AcDbPolyline
 90
5
 70
1
 10
594.457446
 20
196.898485
 30
0.0
 10
575.844086
 20
196.898485
 30
0.0
 10
583.985600
 20
211.000000
 30
0.0
 10
586.315932
 20
211.000000
 30
0.0
 10
594.457446
 20
196.898485
 30
0.0
  0
LWPOLYLINE
  5
1bf
100
AcDbEntity
  8
0
 62
7
100
AcDbPolyline
 90
4
 70
1
 10
593.706015
 20
211.000000
 30
0.0
 10
606.294001
 20
211.000000
 30
0.0
 10
600.000008
 20
200.098485
 30
0.0
 10
593.706015
 20
211.000000
 30
0.0
  0
LWPOLYLINE
  5
1c0
100
AcDbEntity
  8
0
 62
7
100
AcDbPolyline
 90
5
 70
1
 10
626.498493
 20
190.498485
 30
0.0
 10
626.498493
 20
167.200000
 30
0.0
 10
603.200008
 20
167.200000
 30
0.0
 10
603.200008
 20
190.498485
 30
0.0
 10
626.498493
 20
190.498485
 30
0.0
  0
LWPOLYLINE
  5
1c1
100
AcDbEntity
  8
0
 62
7
100
AcDbPolyline
 90
5
 70
1
 10
656.196978
 20
190.498485
 30
0.0
 10
656.196978
 20
167.200000
 30
0.0
 10
632.898493
 20
167.200000
 30
0.0
 10
632.898493
 20
190.498485
 30
0.0
 10
656.196978
 20
190.498485
 30
0.0
  0
LWPOLYLINE
  5
1c2
100
AcDbEntity
  8
0
 62
7
100
AcDbPolyline
 90
5
 70
1
 10
624.155930
 20
196.898485
 30
0.0
 10
605.542571
 20
196.898485
 30
0.0
 10
613.684084
 20
211.000000
 30
0.0
 10
616.014417
 20
211.000000
 30
0.0
 10
624.155930
 20
196.898485
 30
0.0
  0
LWPOLYLINE
  5
1c3
100
AcDbEntity
  8
0
 62
7
100
AcDbPolyline
 90
4
 70
1
 10
623.404500
 20
211.000000
 30
0.0
 10
635.992486
 20
211.000000
 30
0.0
 10
629.698493
 20
200.098485
 30
0.0
 10
623.404500
 20
211.000000
 30
0.0
  0
LWPOLYLINE
  5
1c4
100
AcDbEntity
  8
0
 62
7
100
AcDbPolyline
 90
5
 70
1
 10
653.854415
 20
196.898485
 30
0.0
 10
635.241056
 20
196.898485
 30
0.0
 10
643.382569
 20
211.000000
 30
0.0
 10
645.712902
 20
211.000000
 30
0.0
 10
653.854415
 20
196.898485
 30
0.0
  0
LWPOLYLINE
  5
1c5
100
AcDbEntity
  8
0
 62
7
100
AcDbPolyline
 90
4
 70
1
 10
653.102985
 20
211.000000
 30
0.0
 10
665.690971
 20
211.000000
 30
0.0
 10
659.396978
 20
200.098485
 30
0.0
 10
653.102985
 20
211.000000
 30
0.0
  0
LWPOLYLINE
  5
1c6
100
AcDbEntity
  8
0
 62
7
100
AcDbPolyline
 90
5
 70
1
 10
685.895463
 20
190.498485
 30
0.0
 10
685.895463
 20
167.200000
 30
0.0
 10
662.596978
 20
167.200000
 30
0.0
 10
662.596978
 20
190.498485
 30
0.0
 10
685.895463
 20
190.498485
 30
0.0
  0
LWPOLYLINE
  5
1c7
100
AcDbEntity
  8
0
 62
7
100
AcDbPolyline
 90
5
 70
1
 10
715.593947
 20
190.498485
 30
0.0
 10
715.593947
 20
167.200000
 30
0.0
 10
692.295463
 20
167.200000
 30
0.0
 10
692.295463
 20
190.498485
 30
0.0
 10
715.593947
 20
190.498485
 30
0.0
  0
LWPOLYLINE
  5
1c8
100
AcDbEntity
  8
0
 62
7
100
AcDbPolyline
 90
5
 70
1
 10
683.552900
 20
196.898485
 30
0.0
 10
664.939540
 20
196.898485
 30
0.0
 10
673.081054
 20
211.000000
 30
0.0
 10
675.411386
 20
211.000000
 30
0.0
 10
683.552900
 20
196.898485
 30
0.0
  0
LWPOLYLINE
  5
1c9
100
AcDbEntity
  8
0
 62
7
100
AcDbPolyline
 90
4
 70
1
 10
682.801470
 20
211.000000
 30
0.0
 10
695.389455
 20
211.000000
 30
0.0
 10
689.095463
 20
200.098485
 30
0.0
 10
682.801470
 20
211.000000
 30
0.0
  0
LWPOLYLINE
  5
1ca
100
AcDbEntity
  8
0
 62
7
100
AcDbPolyline
 90
5
 70
1
 10
713.251385
 20
196.898485
 30
0.0
 10
694.638025
 20
196.898485
 30
0.0
 10
702.779539
 20
211.000000
 30
0.0
 10
705.109871
 20
211.000000
 30
0.0
 10
713.251385
 20
196.898485
 30
0.0
  0
LWPOLYLINE
  5
1cb
100
AcDbEntity
  8
0
 62
7
100
AcDbPolyline
 90
4
 70
1
 10
712.499955
 20
211.000000
 30
0.0
 10
725.087940
 20
211.000000
 30
0.0
 10
718.793947
 20
200.098485
 30
0.0
 10
712.499955
 20
211.000000
 30
0.0
  0
LWPOLYLINE
  5
1cc
100
AcDbEntity
  8
0
 62
7
100
AcDbPolyline
 90
5
 70
1
 10
745.292432
 20
190.498485
 30
0.0
 10
745.292432
 20
167.200000
 30
0.0
 10
721.993947
 20
167.200000
 30
0.0
 10
721.993947
 20
190.498485
 30
0.0
 10
745.292432
 20
190.498485
 30
0.0
  0
LWPOLYLINE
  5
1cd
100
AcDbEntity
  8
0
 62
7
100
AcDbPolyline
 90
5
 70
1
 10
774.990917
 20
190.498485
 30
0.0
 10
774.990917
 20
167.200000
 30
0.0
 10
751.692432
 20
167.200000
 30
0.0
 10
751.692432
 20
190.498485
 30
0.0
 10
774.990917
 20
190.498485
 30
0.0
  0
LWPOLYLINE
  5
1ce
100
AcDbEntity
  8
0
 62
7
100
AcDbPolyline
 90
5
 70
1
 10
742.949870
 20
196.898485
 30
0.0
 10
724.336510
 20
196.898485
 30
0.0
 10
732.478024
 20
211.000000
 30
0.0
 10
734.808356
 20
211.000000
 30
0.0
 10
742.949870
 20
196.898485
 30
0.0
  0
LWPOLYLINE
  5
1cf
100
AcDbEntity
  8
0
 62
7
100
AcDbPolyline
 90
4
 70
1
 10
742.198440
 20
211.000000
 30
0.0
 10
754.786425
 20
211.000000
 30
0.0
 10
748.492432
 20
200.098485
 30
0.0
 10
742.198440
 20
211.000000
 30
0.0
  0
LWPOLYLINE
  5
1d0
100
AcDbEntity
  8
0
 62
7
100
AcDbPolyline
 90
5
 70
1
 10
772.648354
 20
196.898485
 30
0.0
 10
754.034995
 20
196.898485
 30
0.0
 10
762.176508
 20
211.000000
 30
0.0
 10
764.506841
 20
211.000000
 30
0.0
 10
772.648354
 20
196.898485
 30
0.0
  0
LWPOLYLINE
  5
1d1
100
AcDbEntity
  8
0
 62
7
100
AcDbPolyline
 90
4
 70
1
 10
771.896924
 20
211.000000
 30
0.0
 10
784.484910
 20
211.000000
 30
0.0
 10
778.190917
 20
200.098485
 30
0.0
 10
771.896924
 20
211.000000
 30
0.0
  0
LWPOLYLINE
  5
1d2
100
AcDbEntity
  8
0
 62
7
100
AcDbPolyline
 90
5
 70
1
 10
804.689402
 20
190.498485
 30
0.0
 10
804.689402
 20
167.200000
 30
0.0
 10
781.390917
 20
167.200000
 30
0.0
 10
781.390917
 20
190.498485
 30
0.0
 10
804.689402
 20
190.498485
 30
0.0
  0
LWPOLYLINE
  5
1d3
100
AcDbEntity
  8
0
 62
7
100
AcDbPolyline
 90
5
 70
1
 10
834.387887
 20
190.498485
 30
0.0
 10
834.387887
 20
167.200000
 30
0.0
 10
811.089402
 20
167.200000
 30
0.0
 10
811.089402
 20
190.498485
 30
0.0
 10
834.387887
 20
190.498485
 30
0.0
  0
LWPOLYLINE
  5
1d4
100
AcDbEntity
  8
0
 62
7
100
AcDbPolyline
 90
5
 70
1
 10
802.346839
 20
196.898485
 30
0.0
 10
783.733480
 20
196.898485
 30
0.0
 10
791.874993
 20
211.000000
 30
0.0
 10
794.205326
 20
211.000000
 30
0.0
 10
802.346839
 20
196.898485
 30
0.0
  0
LWPOLYLINE
  5
1d5
100
AcDbEntity
  8
0
 62
7
100
AcDbPolyline
 90
4
 70
1
 10
801.595409
 20
211.000000
 30
0.0
 10
814.183395
 20
211.000000
 30
0.0
 10
807.889402
 20
200.098485
 30
0.0
 10
801.595409
 20
211.000000
 30
0.0
  0
LWPOLYLINE
  5
1d6
100
AcDbEntity
  8
0
 62
7
100
AcDbPolyline
 90
5
 70
1
 10
832.045324
 20
196.898485
 30
0.0
 10
813.431964
 20
196.898485
 30
0.0
 10
821.573478
 20
211.000000
 30
0.0
 10
823.903811
 20
211.000000
 30
0.0
 10
832.045324
 20
196.898485
 30
0.0
  0
LWPOLYLINE
  5
1d7
100
AcDbEntity
  8
0
 62
7
100
AcDbPolyline
 90
4
 70
1
 10
831.293894
 20
211.000000
 30
0.0
 10
843.881879
 20
211.000000
 30
0.0
 10
837.587887
 20
200.098485
 30
0.0
 10
831.293894
 20
211.000000
 30
0.0
  0
LWPOLYLINE
  5
1d8
100
AcDbEntity
  8
0
 62
7
100
AcDbPolyline
 90
5
 70
1
 10
864.086372
 20
190.498485
 30
0.0
 10
864.086372
 20
167.200000
 30
0.0
 10
840.787887
 20
167.200000
 30
0.0
 10
840.787887
 20
190.498485
 30
0.0
 10
864.086372
 20
190.498485
 30
0.0
  0
LWPOLYLINE
  5
1d9
100
AcDbEntity
  8
0
 62
7
100
AcDbPolyline
 90
5
 70
1
 10
893.784856
 20
190.498485
 30
0.0
 10
893.784856
 20
167.200000
 30
0.0
 10
870.486372
 20
167.200000
 30
0.0
 10
870.486372
 20
190.498485
 30
0.0
 10
893.784856
 20
190.498485
 30
0.0
  0
LWPOLYLINE
  5
1da
100
AcDbEntity
  8
0
 62
7
100
AcDbPolyline
 90
5
 70
1
 10
861.743809
 20
196.898485
 30
0.0
 10
843.130449
 20
196.898485
 30
0.0
 10
851.271963
 20
211.000000
 30
0.0
 10
853.602295
 20
211.000000
 30
0.0
 10
861.743809
 20
196.898485
 30
0.0
  0
LWPOLYLINE
  5
1db
100
AcDbEntity
  8
0
 62
7
100
AcDbPolyline
 90
4
 70
1
 10
860.992379
 20
211.000000
 30
0.0
 10
873.580364
 20
211.000000
 30
0.0
 10
867.286372
 20
200.098485
 30
0.0
 10
860.992379
 20
211.000000
 30
0.0
  0
LWPOLYLINE
  5
1dc
100
AcDbEntity
  8
0
 62
7
100
AcDbPolyline
 90
5
 70
1
 10
891.442294
 20
196.898485
 30
0.0
 10
872.828934
 20
196.898485
 30
0.0
 10
880.970448
 20
211.000000
 30
0.0
 10
883.300780
 20
211.000000
 30
0.0
 10
891.442294
 20
196.898485
 30
0.0
  0
LWPOLYLINE
  5
1dd
100
AcDbEntity
  8
0
 62
7
100
AcDbPolyline
 90
4
 70
1
 10
890.690864
 20
211.000000
 30
0.0
 10
903.278849
 20
211.000000
 30
0.0
 10
896.984856
 20
200.098485
 30
0.0
 10
890.690864
 20
211.000000
 30
0.0
  0
LWPOLYLINE
  5
1de
100
AcDbEntity
  8
0
 62
7
100
AcDbPolyline
 90
5
 70
1
 10
923.483341
 20
190.498485
 30
0.0
 10
923.483341
 20
167.200000
 30
0.0
 10
900.184856
 20
167.200000
 30
0.0
 10
900.184856
 20
190.498485
 30
0.0
 10
923.483341
 20
190.498485
 30
0.0
  0
LWPOLYLINE
  5
1df
100
AcDbEntity
  8
0
 62
7
100
AcDbPolyline
 90
5
 70
1
 10
953.181826
 20
190.498485
 30
0.0
 10
953.181826
 20
167.200000
 30
0.0
 10
929.883341
 20
167.200000
 30
0.0
 10
929.883341
 20
190.498485
 30
0.0
 10
953.181826
 20
190.498485
 30
0.0
  0
LWPOLYLINE
  5
1e0
100
AcDbEntity
  8
0
 62
7
100
AcDbPolyline
 90
5
 70
1
 10
921.140779
 20
196.898485
 30
0.0
 10
902.527419
 20
196.898485
 30
0.0
 10
910.668932
 20
211.000000
 30
0.0
 10
912.999265
 20
211.000000
 30
0.0
 10
921.140779
 20
196.898485
 30
0.0
  0
LWPOLYLINE
  5
1e1
100
AcDbEntity
  8
0
 62
7
100
AcDbPolyline
 90
4
 70
1
 10
920.389348
 20
211.000000
 30
0.0
 10
932.977334
 20
211.000000
 30
0.0
 10
926.683341
 20
200.098485
 30
0.0
 10
920.389348
 20
211.000000
 30
0.0
  0
LWPOLYLINE
  5
1e2
100
AcDbEntity
  8
0
 62
7
100
AcDbPolyline
 90
5
 70
1
 10
950.839263
 20
196.898485
 30
0.0
 10
932.225904
 20
196.898485
 30
0.0
 10
940.367417
 20
211.000000
 30
0.0
 10
942.697750
 20
211.000000
 30
0.0
 10
950.839263
 20
196.898485
 30
0.0
  0
LWPOLYLINE
  5
1e3
100
AcDbEntity
  8
0
 62
7
100
AcDbPolyline
 90
4
 70
1
 10
950.087833
 20
211.000000
 30
0.0
 10
962.675819
 20
211.000000
 30
0.0
 10
956.381826
 20
200.098485
 30
0.0
 10
950.087833
 20
211.000000
 30
0.0
  0
LWPOLYLINE
  5
1e4
100
AcDbEntity
  8
0
 62
7
100
AcDbPolyline
 90
5
 70
1
 10
982.880311
 20
190.498485
 30
0.0
 10
982.880311
 20
167.200000
 30
0.0
 10
959.581826
 20
167.200000
 30
0.0
 10
959.581826
 20
190.498485
 30
0.0
 10
982.880311
 20
190.498485
 30
0.0
  0
LWPOLYLINE
  5
1e5
100
AcDbEntity
  8
0
 62
7
100
AcDbPolyline
 90
5
 70
1
 10
1012.578796
 20
190.498485
 30
0.0
 10
1012.578796
 20
167.200000
 30
0.0
 10
989.280311
 20
167.200000
 30
0.0
 10
989.280311
 20
190.498485
 30
0.0
 10
1012.578796
 20
190.498485
 30
0.0
  0
LWPOLYLINE
  5
1e6
100
AcDbEntity
  8
0
 62
7
100
AcDbPolyline
 90
5
 70
1
 10
980.537748
 20
196.898485
 30
0.0
 10
961.924389
 20
196.898485
 30
0.0
 10
970.065902
 20
211.000000
 30
0.0
 10
972.396235
 20
211.000000
 30
0.0
 10
980.537748
 20
196.898485
 30
0.0
  0
LWPOLYLINE
  5
1e7
100
AcDbEntity
  8
0
 62
7
100
AcDbPolyline
 90
4
 70
1
 10
979.786318
 20
211.000000
 30
0.0
 10
992.374303
 20
211.000000
 30
0.0
 10
986.080311
 20
200.098485
 30
0.0
 10
979.786318
 20
211.000000
 30
0.0
  0
LWPOLYLINE
  5
1e8
100
AcDbEntity
  8
0
 62
7
100
AcDbPolyline
 90
5
 70
1
 10
1010.236233
 20
196.898485
 30
0.0
 10
991.622873
 20
196.898485
 30
0.0
 10
999.764387
 20
211.000000
 30
0.0
 10
1002.094719
 20
211.000000
 30
0.0
 10
1010.236233
 20
196.898485
 30
0.0
  0
LWPOLYLINE
  5
1e9
100
AcDbEntity
  8
0
 62
7
100
AcDbPolyline
 90
4
 70
1
 10
1009.484803
 20
211.000000
 30
0.0
 10
1022.072788
 20
211.000000
 30
0.0
 10
1015.778796
 20
200.098485
 30
0.0
 10
1009.484803
 20
211.000000
 30
0.0
  0
LWPOLYLINE
  5
1ea
100
AcDbEntity
  8
0
 62
7
100
AcDbPolyline
 90
5
 70
1
 10
1018.978796
 20
167.200000
 30
0.0
 10
1018.978796
 20
190.498485
 30
0.0
 10
1030.500008
 20
190.498485
 30
0.0
 10
1030.500008
 20
167.200000
 30
0.0
 10
1018.978796
 20
167.200000
 30
0.0
  0
LWPOLYLINE
  5
1eb
100
AcDbEntity
  8
0
 62
7
100
AcDbPolyline
 90
5
 70
1
 10
1021.321358
 20
196.898485
 30
0.0
 10
1029.462872
 20
211.000000
 30
0.0
 10
1030.500008
 20
211.000000
 30
0.0
 10
1030.500008
 20
196.898485
 30
0.0
 10
1021.321358
 20
196.898485
 30
0.0
  0
LWPOLYLINE
  5
1ec
100
AcDbEntity
  8
0
 62
7
100
AcDbPolyline
 90
5
 70
1
 10
147.500008
 20
65.000000
 30
0.0
 10
1052.500008
 20
65.000000
 30
0.0
 10
1052.500008
 20
235.000000
 30
0.0
 10
147.500008
 20
235.000000
 30
0.0
 10
147.500008
 20
65.000000
 30
0.0
  0
ENDSEC
  0
SECTION
  2
OBJECTS
  0
DICTIONARY
  5
C
330
0
100
AcDbDictionary
  3
ACAD_GROUP
350
D
  3
ACAD_MLINESTYLE
350
17
  0
DICTIONARY
  5
D
330
C
100
AcDbDictionary
  0
DICTIONARY
  5
1A
330
C
100
AcDbDictionary
  0
DICTIONARY
  5
17
330
C
100
AcDbDictionary
  3
STANDARD
350
18
  0
DICTIONARY
  5
19
330
C
100
AcDbDictionary
  0
ENDSEC
  0
EOF
