  0
SECTION
  2
HEADER
  9
$ACADVER
  1
AC1014
  9
$HANDSEED
  5
FFFF
  9
$INSUNITS
 70
     4
  9
$MEASUREMENT
 70
     1
  0
ENDSEC
  0
SECTION
  2
TABLES
  0
TABLE
  2
VPORT
  5
8
330
0
100
AcDbSymbolTable
 70
     4
  0
VPORT
  5
2E
330
8
100
AcDbSymbolTableRecord
100
AcDbViewportTableRecord
  2
*ACTIVE
 70
     0
 10
0.0
 20
0.0
 11
1.0
 21
1.0
 12
210.0
 22
148.5
 13
0.0
 23
0.0
 14
10.0
 24
10.0
 15
10.0
 25
10.0
 16
0.0
 26
0.0
 36
1.0
 17
0.0
 27
0.0
 37
0.0
 40
341.0
 41
1.24
 42
50.0
 43
0.0
 44
0.0
 50
0.0
 51
0.0
 71
     0
 72
   100
 73
     1
 74
     3
 75
     0
 76
     0
 77
     0
 78
     0
  0
ENDTAB
  0
TABLE
  2
LTYPE
  5
5
330
0
100
AcDbSymbolTable
 70
     1
  0
LTYPE
  5
14
330
5
100
AcDbSymbolTableRecord
100
AcDbLinetypeTableRecord
  2
BYBLOCK
 70
     0
  3

 72
    65
 73
     0
 40
0.0
  0
LTYPE
  5
15
330
5
100
AcDbSymbolTableRecord
100
AcDbLinetypeTableRecord
  2
BYLAYER
 70
     0
  3

 72
    65
 73
     0
 40
0.0
  0
LTYPE
  5
16
330
5
100
AcDbSymbolTableRecord
100
AcDbLinetypeTableRecord
  2
CONTINUOUS
 70
     0
  3
Solid line
 72
    65
 73
     0
 40
0.0
  0
ENDTAB
  0
TABLE
  2
LAYER
  5
2
100
AcDbSymbolTable
 70
1
  0
LAYER
  5
50
100
AcDbSymbolTableRecord
100
AcDbLayerTableRecord
  2
0
 70
0
  6
CONTINUOUS
  0
ENDTAB
  0
TABLE
  2
STYLE
  5
3
330
0
100
AcDbSymbolTable
 70
     1
  0
STYLE
  5
11
330
3
100
AcDbSymbolTableRecord
100
AcDbTextStyleTableRecord
  2
STANDARD
 70
     0
 40
0.0
 41
1.0
 50
0.0
 71
     0
 42
2.5
  3
txt
  4

  0
ENDTAB
  0
TABLE
  2
VIEW
  5
6
330
0
100
AcDbSymbolTable
 70
     0
  0
ENDTAB
  0
TABLE
  2
UCS
  5
7
330
0
100
AcDbSymbolTable
 70
     0
  0
ENDTAB
  0
TABLE
  2
APPID
  5
9
330
0
100
AcDbSymbolTable
 70
     2
  0
APPID
  5
12
330
9
100
AcDbSymbolTableRecord
100
AcDbRegAppTableRecord
  2
ACAD
 70
     0
  0
ENDTAB
  0
TABLE
  2
DIMSTYLE
  5
A
330
0
100
AcDbSymbolTable
 70
     1
  0
DIMSTYLE
105
27
330
A
100
AcDbSymbolTableRecord
100
AcDbDimStyleTableRecord
  2
ISO-25
 70
     0
  3

  4

  5

  6

  7

 40
1.0
 41
2.5
 42
0.625
 43
3.75
 44
1.25
 45
0.0
 46
0.0
 47
0.0
 48
0.0
140
2.5
141
2.5
142
0.0
143
0.03937007874016
144
1.0
145
0.0
146
1.0
147
0.625
 71
     0
 72
     0
 73
     0
 74
     0
 75
     0
 76
     0
 77
     1
 78
     8
170
     0
171
     3
172
     1
173
     0
174
     0
175
     0
176
     0
177
     0
178
     0
270
     2
271
     2
272
     2
273
     2
274
     3
340
11
275
     0
280
     0
281
     0
282
     0
283
     0
284
     8
285
     0
286
     0
287
     3
288
     0
  0
ENDTAB
  0
TABLE
  2
BLOCK_RECORD
  5
1
330
0
100
AcDbSymbolTable
 70
     1
  0
BLOCK_RECORD
  5
1F
330
1
100
AcDbSymbolTableRecord
100
AcDbBlockTableRecord
  2
*MODEL_SPACE
  0
BLOCK_RECORD
  5
1B
330
1
100
AcDbSymbolTableRecord
100
AcDbBlockTableRecord
  2
*PAPER_SPACE
  0
ENDTAB
  0
ENDSEC
  0
SECTION
  2
BLOCKS
  0
BLOCK
  5
20
330
1F
100
AcDbEntity
  8
0
100
AcDbBlockBegin
  2
*MODEL_SPACE
 70
     0
 10
0.0
 20
0.0
 30
0.0
  3
*MODEL_SPACE
  1

  0
ENDBLK
  5
21
330
1F
100
AcDbEntity
  8
0
100
AcDbBlockEnd
  0
BLOCK
  5
1C
330
1B
100
AcDbEntity
 67
     1
  8
0
100
AcDbBlockBegin
  2
*PAPER_SPACE
  1

  0
ENDBLK
  5
1D
330
1B
100
AcDbEntity
 67
     1
  8
0
100
AcDbBlockEnd
  0
ENDSEC
  0
SECTION
  2
ENTITIES
  0
LWPOLYLINE
  5
100
100
AcDbEntity
  8
0
 62
7
100
AcDbPolyline
 90
8
 70
1
 10
198.112114
 20
91.768925
 30
0.0
 10
197.343189
 20
91.000000
 30
0.0
 10
161.999992
 20
91.000000
 30
0.0
 10
161.999992
 20
113.920974
 30
0.0
 10
168.980029
 20
120.901010
 30
0.0
 10
186.045209
 20
120.901010
 30
0.0
 10
198.112114
 20
108.834105
 30
0.0
 10
198.112114
 20
91.768925
 30
0.0
  0
LWPOLYLINE
  5
101
100
AcDbEntity
  8
0
 62
7
100
AcDbPolyline
 90
9
 70
1
 10
265.710094
 20
91.768925
 30
0.0
 10
264.941169
 20
91.000000
 30
0.0
 10
225.280029
 20
91.000000
 30
0.0
 10
224.511104
 20
91.768925
 30
0.0
 10
224.511104
 20
108.834105
 30
0.0
 10
236.578009
 20
120.901010
 30
0.0
 10
253.643189
 20
120.901010
 30
0.0
 10
265.710094
 20
108.834105
 30
0.0
 10
265.710094
 20
91.768925
 30
0.0
  0
LWPOLYLINE
  5
102
100
AcDbEntity
  8
0
 62
7
100
AcDbPolyline
 90
9
 70
1
 10
333.308073
 20
91.768925
 30
0.0
 10
332.539148
 20
91.000000
 30
0.0
 10
292.878009
 20
91.000000
 30
0.0
 10
292.109084
 20
91.768925
 30
0.0
 10
292.109084
 20
108.834105
 30
0.0
 10
304.175988
 20
120.901010
 30
0.0
 10
321.241169
 20
120.901010
 30
0.0
 10
333.308073
 20
108.834105
 30
0.0
 10
333.308073
 20
91.768925
 30
0.0
  0
LWPOLYLINE
  5
103
100
AcDbEntity
  8
0
 62
7
100
AcDbPolyline
 90
9
 70
1
 10
400.906053
 20
91.768925
 30
0.0
 10
400.137128
 20
91.000000
 30
0.0
 10
360.475988
 20
91.000000
 30
0.0
 10
359.707063
 20
91.768925
 30
0.0
 10
359.707063
 20
108.834105
 30
0.0
 10
371.773968
 20
120.901010
 30
0.0
 10
388.839148
 20
120.901010
 30
0.0
 10
400.906053
 20
108.834105
 30
0.0
 10
400.906053
 20
91.768925
 30
0.0
  0
LWPOLYLINE
  5
104
100
AcDbEntity
  8
0
 62
7
100
AcDbPolyline
 90
9
 70
1
 10
468.504033
 20
91.768925
 30
0.0
 10
467.735108
 20
91.000000
 30
0.0
 10
428.073968
 20
91.000000
 30
0.0
 10
427.305043
 20
91.768925
 30
0.0
 10
427.305043
 20
108.834105
 30
0.0
 10
439.371948
 20
120.901010
 30
0.0
 10
456.437128
 20
120.901010
 30
0.0
 10
468.504033
 20
108.834105
 30
0.0
 10
468.504033
 20
91.768925
 30
0.0
  0
LWPOLYLINE
  5
105
100
AcDbEntity
  8
0
 62
7
100
AcDbPolyline
 90
9
 70
1
 10
536.102013
 20
91.768925
 30
0.0
 10
535.333088
 20
91.000000
 30
0.0
 10
495.671948
 20
91.000000
 30
0.0
 10
494.903023
 20
91.768925
 30
0.0
 10
494.903023
 20
108.834105
 30
0.0
 10
506.969928
 20
120.901010
 30
0.0
 10
524.035108
 20
120.901010
 30
0.0
 10
536.102013
 20
108.834105
 30
0.0
 10
536.102013
 20
91.768925
 30
0.0
  0
LWPOLYLINE
  5
106
100
AcDbEntity
  8
0
 62
7
100
AcDbPolyline
 90
9
 70
1
 10
603.699992
 20
91.768925
 30
0.0
 10
602.931067
 20
91.000000
 30
0.0
 10
563.269928
 20
91.000000
 30
0.0
 10
562.501003
 20
91.768925
 30
0.0
 10
562.501003
 20
108.834105
 30
0.0
 10
574.567907
 20
120.901010
 30
0.0
 10
591.633088
 20
120.901010
 30
0.0
 10
603.699992
 20
108.834105
 30
0.0
 10
603.699992
 20
91.768925
 30
0.0
  0
LWPOLYLINE
  5
107
100
AcDbEntity
  8
0
 62
7
100
AcDbPolyline
 90
9
 70
1
 10
671.297972
 20
91.768925
 30
0.0
 10
670.529047
 20
91.000000
 30
0.0
 10
630.867907
 20
91.000000
 30
0.0
 10
630.098982
 20
91.768925
 30
0.0
 10
630.098982
 20
108.834105
 30
0.0
 10
642.165887
 20
120.901010
 30
0.0
 10
659.231067
 20
120.901010
 30
0.0
 10
671.297972
 20
108.834105
 30
0.0
 10
671.297972
 20
91.768925
 30
0.0
  0
LWPOLYLINE
  5
108
100
AcDbEntity
  8
0
 62
7
100
AcDbPolyline
 90
9
 70
1
 10
738.895952
 20
91.768925
 30
0.0
 10
738.127027
 20
91.000000
 30
0.0
 10
698.465887
 20
91.000000
 30
0.0
 10
697.696962
 20
91.768925
 30
0.0
 10
697.696962
 20
108.834105
 30
0.0
 10
709.763867
 20
120.901010
 30
0.0
 10
726.829047
 20
120.901010
 30
0.0
 10
738.895952
 20
108.834105
 30
0.0
 10
738.895952
 20
91.768925
 30
0.0
  0
LWPOLYLINE
  5
109
100
AcDbEntity
  8
0
 62
7
100
AcDbPolyline
 90
9
 70
1
 10
806.493932
 20
91.768925
 30
0.0
 10
805.725007
 20
91.000000
 30
0.0
 10
766.063867
 20
91.000000
 30
0.0
 10
765.294942
 20
91.768925
 30
0.0
 10
765.294942
 20
108.834105
 30
0.0
 10
777.361847
 20
120.901010
 30
0.0
 10
794.427027
 20
120.901010
 30
0.0
 10
806.493932
 20
108.834105
 30
0.0
 10
806.493932
 20
91.768925
 30
0.0
  0
LWPOLYLINE
  5
10a
100
AcDbEntity
  8
0
 62
7
100
AcDbPolyline
 90
9
 70
1
 10
874.091911
 20
91.768925
 30
0.0
 10
873.322986
 20
91.000000
 30
0.0
 10
833.661847
 20
91.000000
 30
0.0
 10
832.892922
 20
91.768925
 30
0.0
 10
832.892922
 20
108.834105
 30
0.0
 10
844.959826
 20
120.901010
 30
0.0
 10
862.025007
 20
120.901010
 30
0.0
 10
874.091911
 20
108.834105
 30
0.0
 10
874.091911
 20
91.768925
 30
0.0
  0
LWPOLYLINE
  5
10b
100
AcDbEntity
  8
0
 62
7
100
AcDbPolyline
 90
9
 70
1
 10
941.689891
 20
91.768925
 30
0.0
 10
940.920966
 20
91.000000
 30
0.0
 10
901.259826
 20
91.000000
 30
0.0
 10
900.490901
 20
91.768925
 30
0.0
 10
900.490901
 20
108.834105
 30
0.0
 10
912.557806
 20
120.901010
 30
0.0
 10
929.622986
 20
120.901010
 30
0.0
 10
941.689891
 20
108.834105
 30
0.0
 10
941.689891
 20
91.768925
 30
0.0
  0
LWPOLYLINE
  5
10c
100
AcDbEntity
  8
0
 62
7
100
AcDbPolyline
 90
9
 70
1
 10
1009.287871
 20
91.768925
 30
0.0
 10
1008.518946
 20
91.000000
 30
0.0
 10
968.857806
 20
91.000000
 30
0.0
 10
968.088881
 20
91.768925
 30
0.0
 10
968.088881
 20
108.834105
 30
0.0
 10
980.155786
 20
120.901010
 30
0.0
 10
997.220966
 20
120.901010
 30
0.0
 10
1009.287871
 20
108.834105
 30
0.0
 10
1009.287871
 20
91.768925
 30
0.0
  0
LWPOLYLINE
  5
10d
100
AcDbEntity
  8
0
 62
7
100
AcDbPolyline
 90
5
 70
1
 10
184.112114
 20
140.700000
 30
0.0
 10
184.112114
 20
127.501010
 30
0.0
 10
170.913124
 20
127.501010
 30
0.0
 10
170.913124
 20
140.700000
 30
0.0
 10
184.112114
 20
140.700000
 30
0.0
  0
LWPOLYLINE
  5
10e
100
AcDbEntity
  8
0
 62
7
100
AcDbPolyline
 90
9
 70
1
 10
198.112114
 20
159.366905
 30
0.0
 10
186.045209
 20
147.300000
 30
0.0
 10
168.980029
 20
147.300000
 30
0.0
 10
161.999992
 20
154.280036
 30
0.0
 10
161.999992
 20
181.518953
 30
0.0
 10
168.980029
 20
188.498990
 30
0.0
 10
186.045209
 20
188.498990
 30
0.0
 10
198.112114
 20
176.432085
 30
0.0
 10
198.112114
 20
159.366905
 30
0.0
  0
LWPOLYLINE
  5
10f
100
AcDbEntity
  8
0
 62
7
100
AcDbPolyline
 90
5
 70
1
 10
217.911104
 20
106.901010
 30
0.0
 10
217.911104
 20
93.702020
 30
0.0
 10
204.712114
 20
93.702020
 30
0.0
 10
204.712114
 20
106.901010
 30
0.0
 10
217.911104
 20
106.901010
 30
0.0
  0
LWPOLYLINE
  5
110
100
AcDbEntity
  8
0
 62
7
100
AcDbPolyline
 90
9
 70
1
 10
231.911104
 20
142.633095
 30
0.0
 10
231.911104
 20
125.567915
 30
0.0
 10
219.844199
 20
113.501010
 30
0.0
 10
202.779019
 20
113.501010
 30
0.0
 10
190.712114
 20
125.567915
 30
0.0
 10
190.712114
 20
142.633095
 30
0.0
 10
202.779019
 20
154.700000
 30
0.0
 10
219.844199
 20
154.700000
 30
0.0
 10
231.911104
 20
142.633095
 30
0.0
  0
LWPOLYLINE
  5
111
100
AcDbEntity
  8
0
 62
7
100
AcDbPolyline
 90
5
 70
1
 10
251.710094
 20
140.700000
 30
0.0
 10
251.710094
 20
127.501010
 30
0.0
 10
238.511104
 20
127.501010
 30
0.0
 10
238.511104
 20
140.700000
 30
0.0
 10
251.710094
 20
140.700000
 30
0.0
  0
LWPOLYLINE
  5
112
100
AcDbEntity
  8
0
 62
7
100
AcDbPolyline
 90
9
 70
1
 10
265.710094
 20
176.432085
 30
0.0
 10
265.710094
 20
159.366905
 30
0.0
 10
253.643189
 20
147.300000
 30
0.0
 10
236.578009
 20
147.300000
 30
0.0
 10
224.511104
 20
159.366905
 30
0.0
 10
224.511104
 20
176.432085
 30
0.0
 10
236.578009
 20
188.498990
 30
0.0
 10
253.643189
 20
188.498990
 30
0.0
 10
265.710094
 20
176.432085
 30
0.0
  0
LWPOLYLINE
  5
113
100
AcDbEntity
  8
0
 62
7
100
AcDbPolyline
 90
5
 70
1
 10
217.911104
 20
174.498990
 30
0.0
 10
217.911104
 20
161.300000
 30
0.0
 10
204.712114
 20
161.300000
 30
0.0
 10
204.712114
 20
174.498990
 30
0.0
 10
217.911104
 20
174.498990
 30
0.0
  0
LWPOLYLINE
  5
114
100
AcDbEntity
  8
0
 62
7
100
AcDbPolyline
 90
9
 70
1
 10
231.911104
 20
193.165895
 30
0.0
 10
219.844199
 20
181.098990
 30
0.0
 10
202.779019
 20
181.098990
 30
0.0
 10
190.712114
 20
193.165895
 30
0.0
 10
190.712114
 20
210.231075
 30
0.0
 10
191.481039
 20
211.000000
 30
0.0
 10
231.142179
 20
211.000000
 30
0.0
 10
231.911104
 20
210.231075
 30
0.0
 10
231.911104
 20
193.165895
 30
0.0
  0
LWPOLYLINE
  5
115
100
AcDbEntity
  8
0
 62
7
100
AcDbPolyline
 90
5
 70
1
 10
285.509084
 20
106.901010
 30
0.0
 10
285.509084
 20
93.702020
 30
0.0
 10
272.310094
 20
93.702020
 30
0.0
 10
272.310094
 20
106.901010
 30
0.0
 10
285.509084
 20
106.901010
 30
0.0
  0
LWPOLYLINE
  5
116
100
AcDbEntity
  8
0
 62
7
100
AcDbPolyline
 90
9
 70
1
 10
299.509084
 20
142.633095
 30
0.0
 10
299.509084
 20
125.567915
 30
0.0
 10
287.442179
 20
113.501010
 30
0.0
 10
270.376998
 20
113.501010
 30
0.0
 10
258.310094
 20
125.567915
 30
0.0
 10
258.310094
 20
142.633095
 30
0.0
 10
270.376998
 20
154.700000
 30
0.0
 10
287.442179
 20
154.700000
 30
0.0
 10
299.509084
 20
142.633095
 30
0.0
  0
LWPOLYLINE
  5
117
100
AcDbEntity
  8
0
 62
7
100
AcDbPolyline
 90
5
 70
1
 10
319.308073
 20
140.700000
 30
0.0
 10
319.308073
 20
127.501010
 30
0.0
 10
306.109084
 20
127.501010
 30
0.0
 10
306.109084
 20
140.700000
 30
0.0
 10
319.308073
 20
140.700000
 30
0.0
  0
LWPOLYLINE
  5
118
100
AcDbEntity
  8
0
 62
7
100
AcDbPolyline
 90
9
 70
1
 10
333.308073
 20
176.432085
 30
0.0
 10
333.308073
 20
159.366905
 30
0.0
 10
321.241169
 20
147.300000
 30
0.0
 10
304.175988
 20
147.300000
 30
0.0
 10
292.109084
 20
159.366905
 30
0.0
 10
292.109084
 20
176.432085
 30
0.0
 10
304.175988
 20
188.498990
 30
0.0
 10
321.241169
 20
188.498990
 30
0.0
 10
333.308073
 20
176.432085
 30
0.0
  0
LWPOLYLINE
  5
119
100
AcDbEntity
  8
0
 62
7
100
AcDbPolyline
 90
5
 70
1
 10
285.509084
 20
174.498990
 30
0.0
 10
285.509084
 20
161.300000
 30
0.0
 10
272.310094
 20
161.300000
 30
0.0
 10
272.310094
 20
174.498990
 30
0.0
 10
285.509084
 20
174.498990
 30
0.0
  0
LWPOLYLINE
  5
11a
100
AcDbEntity
  8
0
 62
7
100
AcDbPolyline
 90
9
 70
1
 10
299.509084
 20
193.165895
 30
0.0
 10
287.442179
 20
181.098990
 30
0.0
 10
270.376998
 20
181.098990
 30
0.0
 10
258.310094
 20
193.165895
 30
0.0
 10
258.310094
 20
210.231075
 30
0.0
 10
259.079019
 20
211.000000
 30
0.0
 10
298.740159
 20
211.000000
 30
0.0
 10
299.509084
 20
210.231075
 30
0.0
 10
299.509084
 20
193.165895
 30
0.0
  0
LWPOLYLINE
  5
11b
100
AcDbEntity
  8
0
 62
7
100
AcDbPolyline
 90
5
 70
1
 10
353.107063
 20
106.901010
 30
0.0
 10
353.107063
 20
93.702020
 30
0.0
 10
339.908073
 20
93.702020
 30
0.0
 10
339.908073
 20
106.901010
 30
0.0
 10
353.107063
 20
106.901010
 30
0.0
  0
LWPOLYLINE
  5
11c
100
AcDbEntity
  8
0
 62
7
100
AcDbPolyline
 90
9
 70
1
 10
367.107063
 20
142.633095
 30
0.0
 10
367.107063
 20
125.567915
 30
0.0
 10
355.040159
 20
113.501010
 30
0.0
 10
337.974978
 20
113.501010
 30
0.0
 10
325.908073
 20
125.567915
 30
0.0
 10
325.908073
 20
142.633095
 30
0.0
 10
337.974978
 20
154.700000
 30
0.0
 10
355.040159
 20
154.700000
 30
0.0
 10
367.107063
 20
142.633095
 30
0.0
  0
LWPOLYLINE
  5
11d
100
AcDbEntity
  8
0
 62
7
100
AcDbPolyline
 90
5
 70
1
 10
386.906053
 20
140.700000
 30
0.0
 10
386.906053
 20
127.501010
 30
0.0
 10
373.707063
 20
127.501010
 30
0.0
 10
373.707063
 20
140.700000
 30
0.0
 10
386.906053
 20
140.700000
 30
0.0
  0
LWPOLYLINE
  5
11e
100
AcDbEntity
  8
0
 62
7
100
AcDbPolyline
 90
9
 70
1
 10
400.906053
 20
176.432085
 30
0.0
 10
400.906053
 20
159.366905
 30
0.0
 10
388.839148
 20
147.300000
 30
0.0
 10
371.773968
 20
147.300000
 30
0.0
 10
359.707063
 20
159.366905
 30
0.0
 10
359.707063
 20
176.432085
 30
0.0
 10
371.773968
 20
188.498990
 30
0.0
 10
388.839148
 20
188.498990
 30
0.0
 10
400.906053
 20
176.432085
 30
0.0
  0
LWPOLYLINE
  5
11f
100
AcDbEntity
  8
0
 62
7
100
AcDbPolyline
 90
5
 70
1
 10
353.107063
 20
174.498990
 30
0.0
 10
353.107063
 20
161.300000
 30
0.0
 10
339.908073
 20
161.300000
 30
0.0
 10
339.908073
 20
174.498990
 30
0.0
 10
353.107063
 20
174.498990
 30
0.0
  0
LWPOLYLINE
  5
120
100
AcDbEntity
  8
0
 62
7
100
AcDbPolyline
 90
9
 70
1
 10
367.107063
 20
193.165895
 30
0.0
 10
355.040159
 20
181.098990
 30
0.0
 10
337.974978
 20
181.098990
 30
0.0
 10
325.908073
 20
193.165895
 30
0.0
 10
325.908073
 20
210.231075
 30
0.0
 10
326.676998
 20
211.000000
 30
0.0
 10
366.338138
 20
211.000000
 30
0.0
 10
367.107063
 20
210.231075
 30
0.0
 10
367.107063
 20
193.165895
 30
0.0
  0
LWPOLYLINE
  5
121
100
AcDbEntity
  8
0
 62
7
100
AcDbPolyline
 90
5
 70
1
 10
420.705043
 20
106.901010
 30
0.0
 10
420.705043
 20
93.702020
 30
0.0
 10
407.506053
 20
93.702020
 30
0.0
 10
407.506053
 20
106.901010
 30
0.0
 10
420.705043
 20
106.901010
 30
0.0
  0
LWPOLYLINE
  5
122
100
AcDbEntity
  8
0
 62
7
100
AcDbPolyline
 90
9
 70
1
 10
434.705043
 20
142.633095
 30
0.0
 10
434.705043
 20
125.567915
 30
0.0
 10
422.638138
 20
113.501010
 30
0.0
 10
405.572958
 20
113.501010
 30
0.0
 10
393.506053
 20
125.567915
 30
0.0
 10
393.506053
 20
142.633095
 30
0.0
 10
405.572958
 20
154.700000
 30
0.0
 10
422.638138
 20
154.700000
 30
0.0
 10
434.705043
 20
142.633095
 30
0.0
  0
LWPOLYLINE
  5
123
100
AcDbEntity
  8
0
 62
7
100
AcDbPolyline
 90
5
 70
1
 10
454.504033
 20
140.700000
 30
0.0
 10
454.504033
 20
127.501010
 30
0.0
 10
441.305043
 20
127.501010
 30
0.0
 10
441.305043
 20
140.700000
 30
0.0
 10
454.504033
 20
140.700000
 30
0.0
  0
LWPOLYLINE
  5
124
100
AcDbEntity
  8
0
 62
7
100
AcDbPolyline
 90
9
 70
1
 10
468.504033
 20
176.432085
 30
0.0
 10
468.504033
 20
159.366905
 30
0.0
 10
456.437128
 20
147.300000
 30
0.0
 10
439.371948
 20
147.300000
 30
0.0
 10
427.305043
 20
159.366905
 30
0.0
 10
427.305043
 20
176.432085
 30
0.0
 10
439.371948
 20
188.498990
 30
0.0
 10
456.437128
 20
188.498990
 30
0.0
 10
468.504033
 20
176.432085
 30
0.0
  0
LWPOLYLINE
  5
125
100
AcDbEntity
  8
0
 62
7
100
AcDbPolyline
 90
5
 70
1
 10
420.705043
 20
174.498990
 30
0.0
 10
420.705043
 20
161.300000
 30
0.0
 10
407.506053
 20
161.300000
 30
0.0
 10
407.506053
 20
174.498990
 30
0.0
 10
420.705043
 20
174.498990
 30
0.0
  0
LWPOLYLINE
  5
126
100
AcDbEntity
  8
0
 62
7
100
AcDbPolyline
 90
9
 70
1
 10
434.705043
 20
193.165895
 30
0.0
 10
422.638138
 20
181.098990
 30
0.0
 10
405.572958
 20
181.098990
 30
0.0
 10
393.506053
 20
193.165895
 30
0.0
 10
393.506053
 20
210.231075
 30
0.0
 10
394.274978
 20
211.000000
 30
0.0
 10
433.936118
 20
211.000000
 30
0.0
 10
434.705043
 20
210.231075
 30
0.0
 10
434.705043
 20
193.165895
 30
0.0
  0
LWPOLYLINE
  5
127
100
AcDbEntity
  8
0
 62
7
100
AcDbPolyline
 90
5
 70
1
 10
488.303023
 20
106.901010
 30
0.0
 10
488.303023
 20
93.702020
 30
0.0
 10
475.104033
 20
93.702020
 30
0.0
 10
475.104033
 20
106.901010
 30
0.0
 10
488.303023
 20
106.901010
 30
0.0
  0
LWPOLYLINE
  5
128
100
AcDbEntity
  8
0
 62
7
100
AcDbPolyline
 90
9
 70
1
 10
502.303023
 20
142.633095
 30
0.0
 10
502.303023
 20
125.567915
 30
0.0
 10
490.236118
 20
113.501010
 30
0.0
 10
473.170938
 20
113.501010
 30
0.0
 10
461.104033
 20
125.567915
 30
0.0
 10
461.104033
 20
142.633095
 30
0.0
 10
473.170938
 20
154.700000
 30
0.0
 10
490.236118
 20
154.700000
 30
0.0
 10
502.303023
 20
142.633095
 30
0.0
  0
LWPOLYLINE
  5
129
100
AcDbEntity
  8
0
 62
7
100
AcDbPolyline
 90
5
 70
1
 10
522.102013
 20
140.700000
 30
0.0
 10
522.102013
 20
127.501010
 30
0.0
 10
508.903023
 20
127.501010
 30
0.0
 10
508.903023
 20
140.700000
 30
0.0
 10
522.102013
 20
140.700000
 30
0.0
  0
LWPOLYLINE
  5
12a
100
AcDbEntity
  8
0
 62
7
100
AcDbPolyline
 90
9
 70
1
 10
536.102013
 20
176.432085
 30
0.0
 10
536.102013
 20
159.366905
 30
0.0
 10
524.035108
 20
147.300000
 30
0.0
 10
506.969928
 20
147.300000
 30
0.0
 10
494.903023
 20
159.366905
 30
0.0
 10
494.903023
 20
176.432085
 30
0.0
 10
506.969928
 20
188.498990
 30
0.0
 10
524.035108
 20
188.498990
 30
0.0
 10
536.102013
 20
176.432085
 30
0.0
  0
LWPOLYLINE
  5
12b
100
AcDbEntity
  8
0
 62
7
100
AcDbPolyline
 90
5
 70
1
 10
488.303023
 20
174.498990
 30
0.0
 10
488.303023
 20
161.300000
 30
0.0
 10
475.104033
 20
161.300000
 30
0.0
 10
475.104033
 20
174.498990
 30
0.0
 10
488.303023
 20
174.498990
 30
0.0
  0
LWPOLYLINE
  5
12c
100
AcDbEntity
  8
0
 62
7
100
AcDbPolyline
 90
9
 70
1
 10
502.303023
 20
193.165895
 30
0.0
 10
490.236118
 20
181.098990
 30
0.0
 10
473.170938
 20
181.098990
 30
0.0
 10
461.104033
 20
193.165895
 30
0.0
 10
461.104033
 20
210.231075
 30
0.0
 10
461.872958
 20
211.000000
 30
0.0
 10
501.534098
 20
211.000000
 30
0.0
 10
502.303023
 20
210.231075
 30
0.0
 10
502.303023
 20
193.165895
 30
0.0
  0
LWPOLYLINE
  5
12d
100
AcDbEntity
  8
0
 62
7
100
AcDbPolyline
 90
5
 70
1
 10
555.901003
 20
106.901010
 30
0.0
 10
555.901003
 20
93.702020
 30
0.0
 10
542.702013
 20
93.702020
 30
0.0
 10
542.702013
 20
106.901010
 30
0.0
 10
555.901003
 20
106.901010
 30
0.0
  0
LWPOLYLINE
  5
12e
100
AcDbEntity
  8
0
 62
7
100
AcDbPolyline
 90
9
 70
1
 10
569.901003
 20
142.633095
 30
0.0
 10
569.901003
 20
125.567915
 30
0.0
 10
557.834098
 20
113.501010
 30
0.0
 10
540.768917
 20
113.501010
 30
0.0
 10
528.702013
 20
125.567915
 30
0.0
 10
528.702013
 20
142.633095
 30
0.0
 10
540.768917
 20
154.700000
 30
0.0
 10
557.834098
 20
154.700000
 30
0.0
 10
569.901003
 20
142.633095
 30
0.0
  0
LWPOLYLINE
  5
12f
100
AcDbEntity
  8
0
 62
7
100
AcDbPolyline
 90
5
 70
1
 10
589.699992
 20
140.700000
 30
0.0
 10
589.699992
 20
127.501010
 30
0.0
 10
576.501003
 20
127.501010
 30
0.0
 10
576.501003
 20
140.700000
 30
0.0
 10
589.699992
 20
140.700000
 30
0.0
  0
LWPOLYLINE
  5
130
100
AcDbEntity
  8
0
 62
7
100
AcDbPolyline
 90
9
 70
1
 10
603.699992
 20
176.432085
 30
0.0
 10
603.699992
 20
159.366905
 30
0.0
 10
591.633088
 20
147.300000
 30
0.0
 10
574.567907
 20
147.300000
 30
0.0
 10
562.501003
 20
159.366905
 30
0.0
 10
562.501003
 20
176.432085
 30
0.0
 10
574.567907
 20
188.498990
 30
0.0
 10
591.633088
 20
188.498990
 30
0.0
 10
603.699992
 20
176.432085
 30
0.0
  0
LWPOLYLINE
  5
131
100
AcDbEntity
  8
0
 62
7
100
AcDbPolyline
 90
5
 70
1
 10
555.901003
 20
174.498990
 30
0.0
 10
555.901003
 20
161.300000
 30
0.0
 10
542.702013
 20
161.300000
 30
0.0
 10
542.702013
 20
174.498990
 30
0.0
 10
555.901003
 20
174.498990
 30
0.0
  0
LWPOLYLINE
  5
132
100
AcDbEntity
  8
0
 62
7
100
AcDbPolyline
 90
9
 70
1
 10
569.901003
 20
193.165895
 30
0.0
 10
557.834098
 20
181.098990
 30
0.0
 10
540.768917
 20
181.098990
 30
0.0
 10
528.702013
 20
193.165895
 30
0.0
 10
528.702013
 20
210.231075
 30
0.0
 10
529.470938
 20
211.000000
 30
0.0
 10
569.132078
 20
211.000000
 30
0.0
 10
569.901003
 20
210.231075
 30
0.0
 10
569.901003
 20
193.165895
 30
0.0
  0
LWPOLYLINE
  5
133
100
AcDbEntity
  8
0
 62
7
100
AcDbPolyline
 90
5
 70
1
 10
623.498982
 20
106.901010
 30
0.0
 10
623.498982
 20
93.702020
 30
0.0
 10
610.299992
 20
93.702020
 30
0.0
 10
610.299992
 20
106.901010
 30
0.0
 10
623.498982
 20
106.901010
 30
0.0
  0
LWPOLYLINE
  5
134
100
AcDbEntity
  8
0
 62
7
100
AcDbPolyline
 90
9
 70
1
 10
637.498982
 20
142.633095
 30
0.0
 10
637.498982
 20
125.567915
 30
0.0
 10
625.432078
 20
113.501010
 30
0.0
 10
608.366897
 20
113.501010
 30
0.0
 10
596.299992
 20
125.567915
 30
0.0
 10
596.299992
 20
142.633095
 30
0.0
 10
608.366897
 20
154.700000
 30
0.0
 10
625.432078
 20
154.700000
 30
0.0
 10
637.498982
 20
142.633095
 30
0.0
  0
LWPOLYLINE
  5
135
100
AcDbEntity
  8
0
 62
7
100
AcDbPolyline
 90
5
 70
1
 10
657.297972
 20
140.700000
 30
0.0
 10
657.297972
 20
127.501010
 30
0.0
 10
644.098982
 20
127.501010
 30
0.0
 10
644.098982
 20
140.700000
 30
0.0
 10
657.297972
 20
140.700000
 30
0.0
  0
LWPOLYLINE
  5
136
100
AcDbEntity
  8
0
 62
7
100
AcDbPolyline
 90
9
 70
1
 10
671.297972
 20
176.432085
 30
0.0
 10
671.297972
 20
159.366905
 30
0.0
 10
659.231067
 20
147.300000
 30
0.0
 10
642.165887
 20
147.300000
 30
0.0
 10
630.098982
 20
159.366905
 30
0.0
 10
630.098982
 20
176.432085
 30
0.0
 10
642.165887
 20
188.498990
 30
0.0
 10
659.231067
 20
188.498990
 30
0.0
 10
671.297972
 20
176.432085
 30
0.0
  0
LWPOLYLINE
  5
137
100
AcDbEntity
  8
0
 62
7
100
AcDbPolyline
 90
5
 70
1
 10
623.498982
 20
174.498990
 30
0.0
 10
623.498982
 20
161.300000
 30
0.0
 10
610.299992
 20
161.300000
 30
0.0
 10
610.299992
 20
174.498990
 30
0.0
 10
623.498982
 20
174.498990
 30
0.0
  0
LWPOLYLINE
  5
138
100
AcDbEntity
  8
0
 62
7
100
AcDbPolyline
 90
9
 70
1
 10
637.498982
 20
193.165895
 30
0.0
 10
625.432078
 20
181.098990
 30
0.0
 10
608.366897
 20
181.098990
 30
0.0
 10
596.299992
 20
193.165895
 30
0.0
 10
596.299992
 20
210.231075
 30
0.0
 10
597.068917
 20
211.000000
 30
0.0
 10
636.730057
 20
211.000000
 30
0.0
 10
637.498982
 20
210.231075
 30
0.0
 10
637.498982
 20
193.165895
 30
0.0
  0
LWPOLYLINE
  5
139
100
AcDbEntity
  8
0
 62
7
100
AcDbPolyline
 90
5
 70
1
 10
691.096962
 20
106.901010
 30
0.0
 10
691.096962
 20
93.702020
 30
0.0
 10
677.897972
 20
93.702020
 30
0.0
 10
677.897972
 20
106.901010
 30
0.0
 10
691.096962
 20
106.901010
 30
0.0
  0
LWPOLYLINE
  5
13a
100
AcDbEntity
  8
0
 62
7
100
AcDbPolyline
 90
9
 70
1
 10
705.096962
 20
142.633095
 30
0.0
 10
705.096962
 20
125.567915
 30
0.0
 10
693.030057
 20
113.501010
 30
0.0
 10
675.964877
 20
113.501010
 30
0.0
 10
663.897972
 20
125.567915
 30
0.0
 10
663.897972
 20
142.633095
 30
0.0
 10
675.964877
 20
154.700000
 30
0.0
 10
693.030057
 20
154.700000
 30
0.0
 10
705.096962
 20
142.633095
 30
0.0
  0
LWPOLYLINE
  5
13b
100
AcDbEntity
  8
0
 62
7
100
AcDbPolyline
 90
5
 70
1
 10
724.895952
 20
140.700000
 30
0.0
 10
724.895952
 20
127.501010
 30
0.0
 10
711.696962
 20
127.501010
 30
0.0
 10
711.696962
 20
140.700000
 30
0.0
 10
724.895952
 20
140.700000
 30
0.0
  0
LWPOLYLINE
  5
13c
100
AcDbEntity
  8
0
 62
7
100
AcDbPolyline
 90
9
 70
1
 10
738.895952
 20
176.432085
 30
0.0
 10
738.895952
 20
159.366905
 30
0.0
 10
726.829047
 20
147.300000
 30
0.0
 10
709.763867
 20
147.300000
 30
0.0
 10
697.696962
 20
159.366905
 30
0.0
 10
697.696962
 20
176.432085
 30
0.0
 10
709.763867
 20
188.498990
 30
0.0
 10
726.829047
 20
188.498990
 30
0.0
 10
738.895952
 20
176.432085
 30
0.0
  0
LWPOLYLINE
  5
13d
100
AcDbEntity
  8
0
 62
7
100
AcDbPolyline
 90
5
 70
1
 10
691.096962
 20
174.498990
 30
0.0
 10
691.096962
 20
161.300000
 30
0.0
 10
677.897972
 20
161.300000
 30
0.0
 10
677.897972
 20
174.498990
 30
0.0
 10
691.096962
 20
174.498990
 30
0.0
  0
LWPOLYLINE
  5
13e
100
AcDbEntity
  8
0
 62
7
100
AcDbPolyline
 90
9
 70
1
 10
705.096962
 20
193.165895
 30
0.0
 10
693.030057
 20
181.098990
 30
0.0
 10
675.964877
 20
181.098990
 30
0.0
 10
663.897972
 20
193.165895
 30
0.0
 10
663.897972
 20
210.231075
 30
0.0
 10
664.666897
 20
211.000000
 30
0.0
 10
704.328037
 20
211.000000
 30
0.0
 10
705.096962
 20
210.231075
 30
0.0
 10
705.096962
 20
193.165895
 30
0.0
  0
LWPOLYLINE
  5
13f
100
AcDbEntity
  8
0
 62
7
100
AcDbPolyline
 90
5
 70
1
 10
758.694942
 20
106.901010
 30
0.0
 10
758.694942
 20
93.702020
 30
0.0
 10
745.495952
 20
93.702020
 30
0.0
 10
745.495952
 20
106.901010
 30
0.0
 10
758.694942
 20
106.901010
 30
0.0
  0
LWPOLYLINE
  5
140
100
AcDbEntity
  8
0
 62
7
100
AcDbPolyline
 90
9
 70
1
 10
772.694942
 20
142.633095
 30
0.0
 10
772.694942
 20
125.567915
 30
0.0
 10
760.628037
 20
113.501010
 30
0.0
 10
743.562857
 20
113.501010
 30
0.0
 10
731.495952
 20
125.567915
 30
0.0
 10
731.495952
 20
142.633095
 30
0.0
 10
743.562857
 20
154.700000
 30
0.0
 10
760.628037
 20
154.700000
 30
0.0
 10
772.694942
 20
142.633095
 30
0.0
  0
LWPOLYLINE
  5
141
100
AcDbEntity
  8
0
 62
7
100
AcDbPolyline
 90
5
 70
1
 10
792.493932
 20
140.700000
 30
0.0
 10
792.493932
 20
127.501010
 30
0.0
 10
779.294942
 20
127.501010
 30
0.0
 10
779.294942
 20
140.700000
 30
0.0
 10
792.493932
 20
140.700000
 30
0.0
  0
LWPOLYLINE
  5
142
100
AcDbEntity
  8
0
 62
7
100
AcDbPolyline
 90
9
 70
1
 10
806.493932
 20
176.432085
 30
0.0
 10
806.493932
 20
159.366905
 30
0.0
 10
794.427027
 20
147.300000
 30
0.0
 10
777.361847
 20
147.300000
 30
0.0
 10
765.294942
 20
159.366905
 30
0.0
 10
765.294942
 20
176.432085
 30
0.0
 10
777.361847
 20
188.498990
 30
0.0
 10
794.427027
 20
188.498990
 30
0.0
 10
806.493932
 20
176.432085
 30
0.0
  0
LWPOLYLINE
  5
143
100
AcDbEntity
  8
0
 62
7
100
AcDbPolyline
 90
5
 70
1
 10
758.694942
 20
174.498990
 30
0.0
 10
758.694942
 20
161.300000
 30
0.0
 10
745.495952
 20
161.300000
 30
0.0
 10
745.495952
 20
174.498990
 30
0.0
 10
758.694942
 20
174.498990
 30
0.0
  0
LWPOLYLINE
  5
144
100
AcDbEntity
  8
0
 62
7
100
AcDbPolyline
 90
9
 70
1
 10
772.694942
 20
193.165895
 30
0.0
 10
760.628037
 20
181.098990
 30
0.0
 10
743.562857
 20
181.098990
 30
0.0
 10
731.495952
 20
193.165895
 30
0.0
 10
731.495952
 20
210.231075
 30
0.0
 10
732.264877
 20
211.000000
 30
0.0
 10
771.926017
 20
211.000000
 30
0.0
 10
772.694942
 20
210.231075
 30
0.0
 10
772.694942
 20
193.165895
 30
0.0
  0
LWPOLYLINE
  5
145
100
AcDbEntity
  8
0
 62
7
100
AcDbPolyline
 90
5
 70
1
 10
826.292922
 20
106.901010
 30
0.0
 10
826.292922
 20
93.702020
 30
0.0
 10
813.093932
 20
93.702020
 30
0.0
 10
813.093932
 20
106.901010
 30
0.0
 10
826.292922
 20
106.901010
 30
0.0
  0
LWPOLYLINE
  5
146
100
AcDbEntity
  8
0
 62
7
100
AcDbPolyline
 90
9
 70
1
 10
840.292922
 20
142.633095
 30
0.0
 10
840.292922
 20
125.567915
 30
0.0
 10
828.226017
 20
113.501010
 30
0.0
 10
811.160836
 20
113.501010
 30
0.0
 10
799.093932
 20
125.567915
 30
0.0
 10
799.093932
 20
142.633095
 30
0.0
 10
811.160836
 20
154.700000
 30
0.0
 10
828.226017
 20
154.700000
 30
0.0
 10
840.292922
 20
142.633095
 30
0.0
  0
LWPOLYLINE
  5
147
100
AcDbEntity
  8
0
 62
7
100
AcDbPolyline
 90
5
 70
1
 10
860.091911
 20
140.700000
 30
0.0
 10
860.091911
 20
127.501010
 30
0.0
 10
846.892922
 20
127.501010
 30
0.0
 10
846.892922
 20
140.700000
 30
0.0
 10
860.091911
 20
140.700000
 30
0.0
  0
LWPOLYLINE
  5
148
100
AcDbEntity
  8
0
 62
7
100
AcDbPolyline
 90
9
 70
1
 10
874.091911
 20
176.432085
 30
0.0
 10
874.091911
 20
159.366905
 30
0.0
 10
862.025007
 20
147.300000
 30
0.0
 10
844.959826
 20
147.300000
 30
0.0
 10
832.892922
 20
159.366905
 30
0.0
 10
832.892922
 20
176.432085
 30
0.0
 10
844.959826
 20
188.498990
 30
0.0
 10
862.025007
 20
188.498990
 30
0.0
 10
874.091911
 20
176.432085
 30
0.0
  0
LWPOLYLINE
  5
149
100
AcDbEntity
  8
0
 62
7
100
AcDbPolyline
 90
5
 70
1
 10
826.292922
 20
174.498990
 30
0.0
 10
826.292922
 20
161.300000
 30
0.0
 10
813.093932
 20
161.300000
 30
0.0
 10
813.093932
 20
174.498990
 30
0.0
 10
826.292922
 20
174.498990
 30
0.0
  0
LWPOLYLINE
  5
14a
100
AcDbEntity
  8
0
 62
7
100
AcDbPolyline
 90
9
 70
1
 10
840.292922
 20
193.165895
 30
0.0
 10
828.226017
 20
181.098990
 30
0.0
 10
811.160836
 20
181.098990
 30
0.0
 10
799.093932
 20
193.165895
 30
0.0
 10
799.093932
 20
210.231075
 30
0.0
 10
799.862857
 20
211.000000
 30
0.0
 10
839.523997
 20
211.000000
 30
0.0
 10
840.292922
 20
210.231075
 30
0.0
 10
840.292922
 20
193.165895
 30
0.0
  0
LWPOLYLINE
  5
14b
100
AcDbEntity
  8
0
 62
7
100
AcDbPolyline
 90
5
 70
1
 10
893.890901
 20
106.901010
 30
0.0
 10
893.890901
 20
93.702020
 30
0.0
 10
880.691911
 20
93.702020
 30
0.0
 10
880.691911
 20
106.901010
 30
0.0
 10
893.890901
 20
106.901010
 30
0.0
  0
LWPOLYLINE
  5
14c
100
AcDbEntity
  8
0
 62
7
100
AcDbPolyline
 90
9
 70
1
 10
907.890901
 20
142.633095
 30
0.0
 10
907.890901
 20
125.567915
 30
0.0
 10
895.823997
 20
113.501010
 30
0.0
 10
878.758816
 20
113.501010
 30
0.0
 10
866.691911
 20
125.567915
 30
0.0
 10
866.691911
 20
142.633095
 30
0.0
 10
878.758816
 20
154.700000
 30
0.0
 10
895.823997
 20
154.700000
 30
0.0
 10
907.890901
 20
142.633095
 30
0.0
  0
LWPOLYLINE
  5
14d
100
AcDbEntity
  8
0
 62
7
100
AcDbPolyline
 90
5
 70
1
 10
927.689891
 20
140.700000
 30
0.0
 10
927.689891
 20
127.501010
 30
0.0
 10
914.490901
 20
127.501010
 30
0.0
 10
914.490901
 20
140.700000
 30
0.0
 10
927.689891
 20
140.700000
 30
0.0
  0
LWPOLYLINE
  5
14e
100
AcDbEntity
  8
0
 62
7
100
AcDbPolyline
 90
9
 70
1
 10
941.689891
 20
176.432085
 30
0.0
 10
941.689891
 20
159.366905
 30
0.0
 10
929.622986
 20
147.300000
 30
0.0
 10
912.557806
 20
147.300000
 30
0.0
 10
900.490901
 20
159.366905
 30
0.0
 10
900.490901
 20
176.432085
 30
0.0
 10
912.557806
 20
188.498990
 30
0.0
 10
929.622986
 20
188.498990
 30
0.0
 10
941.689891
 20
176.432085
 30
0.0
  0
LWPOLYLINE
  5
14f
100
AcDbEntity
  8
0
 62
7
100
AcDbPolyline
 90
5
 70
1
 10
893.890901
 20
174.498990
 30
0.0
 10
893.890901
 20
161.300000
 30
0.0
 10
880.691911
 20
161.300000
 30
0.0
 10
880.691911
 20
174.498990
 30
0.0
 10
893.890901
 20
174.498990
 30
0.0
  0
LWPOLYLINE
  5
150
100
AcDbEntity
  8
0
 62
7
100
AcDbPolyline
 90
9
 70
1
 10
907.890901
 20
193.165895
 30
0.0
 10
895.823997
 20
181.098990
 30
0.0
 10
878.758816
 20
181.098990
 30
0.0
 10
866.691911
 20
193.165895
 30
0.0
 10
866.691911
 20
210.231075
 30
0.0
 10
867.460836
 20
211.000000
 30
0.0
 10
907.121976
 20
211.000000
 30
0.0
 10
907.890901
 20
210.231075
 30
0.0
 10
907.890901
 20
193.165895
 30
0.0
  0
LWPOLYLINE
  5
151
100
AcDbEntity
  8
0
 62
7
100
AcDbPolyline
 90
5
 70
1
 10
961.488881
 20
106.901010
 30
0.0
 10
961.488881
 20
93.702020
 30
0.0
 10
948.289891
 20
93.702020
 30
0.0
 10
948.289891
 20
106.901010
 30
0.0
 10
961.488881
 20
106.901010
 30
0.0
  0
LWPOLYLINE
  5
152
100
AcDbEntity
  8
0
 62
7
100
AcDbPolyline
 90
9
 70
1
 10
975.488881
 20
142.633095
 30
0.0
 10
975.488881
 20
125.567915
 30
0.0
 10
963.421976
 20
113.501010
 30
0.0
 10
946.356796
 20
113.501010
 30
0.0
 10
934.289891
 20
125.567915
 30
0.0
 10
934.289891
 20
142.633095
 30
0.0
 10
946.356796
 20
154.700000
 30
0.0
 10
963.421976
 20
154.700000
 30
0.0
 10
975.488881
 20
142.633095
 30
0.0
  0
LWPOLYLINE
  5
153
100
AcDbEntity
  8
0
 62
7
100
AcDbPolyline
 90
5
 70
1
 10
995.287871
 20
140.700000
 30
0.0
 10
995.287871
 20
127.501010
 30
0.0
 10
982.088881
 20
127.501010
 30
0.0
 10
982.088881
 20
140.700000
 30
0.0
 10
995.287871
 20
140.700000
 30
0.0
  0
LWPOLYLINE
  5
154
100
AcDbEntity
  8
0
 62
7
100
AcDbPolyline
 90
9
 70
1
 10
1009.287871
 20
176.432085
 30
0.0
 10
1009.287871
 20
159.366905
 30
0.0
 10
997.220966
 20
147.300000
 30
0.0
 10
980.155786
 20
147.300000
 30
0.0
 10
968.088881
 20
159.366905
 30
0.0
 10
968.088881
 20
176.432085
 30
0.0
 10
980.155786
 20
188.498990
 30
0.0
 10
997.220966
 20
188.498990
 30
0.0
 10
1009.287871
 20
176.432085
 30
0.0
  0
LWPOLYLINE
  5
155
100
AcDbEntity
  8
0
 62
7
100
AcDbPolyline
 90
5
 70
1
 10
961.488881
 20
174.498990
 30
0.0
 10
961.488881
 20
161.300000
 30
0.0
 10
948.289891
 20
161.300000
 30
0.0
 10
948.289891
 20
174.498990
 30
0.0
 10
961.488881
 20
174.498990
 30
0.0
  0
LWPOLYLINE
  5
156
100
AcDbEntity
  8
0
 62
7
100
AcDbPolyline
 90
9
 70
1
 10
975.488881
 20
193.165895
 30
0.0
 10
963.421976
 20
181.098990
 30
0.0
 10
946.356796
 20
181.098990
 30
0.0
 10
934.289891
 20
193.165895
 30
0.0
 10
934.289891
 20
210.231075
 30
0.0
 10
935.058816
 20
211.000000
 30
0.0
 10
974.719956
 20
211.000000
 30
0.0
 10
975.488881
 20
210.231075
 30
0.0
 10
975.488881
 20
193.165895
 30
0.0
  0
LWPOLYLINE
  5
157
100
AcDbEntity
  8
0
 62
7
100
AcDbPolyline
 90
5
 70
1
 10
1029.086861
 20
106.901010
 30
0.0
 10
1029.086861
 20
93.702020
 30
0.0
 10
1015.887871
 20
93.702020
 30
0.0
 10
1015.887871
 20
106.901010
 30
0.0
 10
1029.086861
 20
106.901010
 30
0.0
  0
LWPOLYLINE
  5
158
100
AcDbEntity
  8
0
 62
7
100
AcDbPolyline
 90
9
 70
1
 10
1031.019956
 20
113.501010
 30
0.0
 10
1013.954776
 20
113.501010
 30
0.0
 10
1001.887871
 20
125.567915
 30
0.0
 10
1001.887871
 20
142.633095
 30
0.0
 10
1013.954776
 20
154.700000
 30
0.0
 10
1031.019956
 20
154.700000
 30
0.0
 10
1037.999992
 20
147.719964
 30
0.0
 10
1037.999992
 20
120.481047
 30
0.0
 10
1031.019956
 20
113.501010
 30
0.0
  0
LWPOLYLINE
  5
159
100
AcDbEntity
  8
0
 62
7
100
AcDbPolyline
 90
5
 70
1
 10
1029.086861
 20
174.498990
 30
0.0
 10
1029.086861
 20
161.300000
 30
0.0
 10
1015.887871
 20
161.300000
 30
0.0
 10
1015.887871
 20
174.498990
 30
0.0
 10
1029.086861
 20
174.498990
 30
0.0
  0
LWPOLYLINE
  5
15a
100
AcDbEntity
  8
0
 62
7
100
AcDbPolyline
 90
8
 70
1
 10
1031.019956
 20
181.098990
 30
0.0
 10
1013.954776
 20
181.098990
 30
0.0
 10
1001.887871
 20
193.165895
 30
0.0
 10
1001.887871
 20
210.231075
 30
0.0
 10
1002.656796
 20
211.000000
 30
0.0
 10
1037.999992
 20
211.000000
 30
0.0
 10
1037.999992
 20
188.079026
 30
0.0
 10
1031.019956
 20
181.098990
 30
0.0
  0
LWPOLYLINE
  5
15b
100
AcDbEntity
  8
0
 62
7
100
AcDbPolyline
 90
5
 70
1
 10
184.112114
 20
208.297980
 30
0.0
 10
184.112114
 20
195.098990
 30
0.0
 10
170.913124
 20
195.098990
 30
0.0
 10
170.913124
 20
208.297980
 30
0.0
 10
184.112114
 20
208.297980
 30
0.0
  0
LWPOLYLINE
  5
15c
100
AcDbEntity
  8
0
 62
7
100
AcDbPolyline
 90
5
 70
1
 10
251.710094
 20
208.297980
 30
0.0
 10
251.710094
 20
195.098990
 30
0.0
 10
238.511104
 20
195.098990
 30
0.0
 10
238.511104
 20
208.297980
 30
0.0
 10
251.710094
 20
208.297980
 30
0.0
  0
LWPOLYLINE
  5
15d
100
AcDbEntity
  8
0
 62
7
100
AcDbPolyline
 90
5
 70
1
 10
319.308073
 20
208.297980
 30
0.0
 10
319.308073
 20
195.098990
 30
0.0
 10
306.109084
 20
195.098990
 30
0.0
 10
306.109084
 20
208.297980
 30
0.0
 10
319.308073
 20
208.297980
 30
0.0
  0
LWPOLYLINE
  5
15e
100
AcDbEntity
  8
0
 62
7
100
AcDbPolyline
 90
5
 70
1
 10
386.906053
 20
208.297980
 30
0.0
 10
386.906053
 20
195.098990
 30
0.0
 10
373.707063
 20
195.098990
 30
0.0
 10
373.707063
 20
208.297980
 30
0.0
 10
386.906053
 20
208.297980
 30
0.0
  0
LWPOLYLINE
  5
15f
100
AcDbEntity
  8
0
 62
7
100
AcDbPolyline
 90
5
 70
1
 10
454.504033
 20
208.297980
 30
0.0
 10
454.504033
 20
195.098990
 30
0.0
 10
441.305043
 20
195.098990
 30
0.0
 10
441.305043
 20
208.297980
 30
0.0
 10
454.504033
 20
208.297980
 30
0.0
  0
LWPOLYLINE
  5
160
100
AcDbEntity
  8
0
 62
7
100
AcDbPolyline
 90
5
 70
1
 10
522.102013
 20
208.297980
 30
0.0
 10
522.102013
 20
195.098990
 30
0.0
 10
508.903023
 20
195.098990
 30
0.0
 10
508.903023
 20
208.297980
 30
0.0
 10
522.102013
 20
208.297980
 30
0.0
  0
LWPOLYLINE
  5
161
100
AcDbEntity
  8
0
 62
7
100
AcDbPolyline
 90
5
 70
1
 10
589.699992
 20
208.297980
 30
0.0
 10
589.699992
 20
195.098990
 30
0.0
 10
576.501003
 20
195.098990
 30
0.0
 10
576.501003
 20
208.297980
 30
0.0
 10
589.699992
 20
208.297980
 30
0.0
  0
LWPOLYLINE
  5
162
100
AcDbEntity
  8
0
 62
7
100
AcDbPolyline
 90
5
 70
1
 10
657.297972
 20
208.297980
 30
0.0
 10
657.297972
 20
195.098990
 30
0.0
 10
644.098982
 20
195.098990
 30
0.0
 10
644.098982
 20
208.297980
 30
0.0
 10
657.297972
 20
208.297980
 30
0.0
  0
LWPOLYLINE
  5
163
100
AcDbEntity
  8
0
 62
7
100
AcDbPolyline
 90
5
 70
1
 10
724.895952
 20
208.297980
 30
0.0
 10
724.895952
 20
195.098990
 30
0.0
 10
711.696962
 20
195.098990
 30
0.0
 10
711.696962
 20
208.297980
 30
0.0
 10
724.895952
 20
208.297980
 30
0.0
  0
LWPOLYLINE
  5
164
100
AcDbEntity
  8
0
 62
7
100
AcDbPolyline
 90
5
 70
1
 10
792.493932
 20
208.297980
 30
0.0
 10
792.493932
 20
195.098990
 30
0.0
 10
779.294942
 20
195.098990
 30
0.0
 10
779.294942
 20
208.297980
 30
0.0
 10
792.493932
 20
208.297980
 30
0.0
  0
LWPOLYLINE
  5
165
100
AcDbEntity
  8
0
 62
7
100
AcDbPolyline
 90
5
 70
1
 10
860.091911
 20
208.297980
 30
0.0
 10
860.091911
 20
195.098990
 30
0.0
 10
846.892922
 20
195.098990
 30
0.0
 10
846.892922
 20
208.297980
 30
0.0
 10
860.091911
 20
208.297980
 30
0.0
  0
LWPOLYLINE
  5
166
100
AcDbEntity
  8
0
 62
7
100
AcDbPolyline
 90
5
 70
1
 10
927.689891
 20
208.297980
 30
0.0
 10
927.689891
 20
195.098990
 30
0.0
 10
914.490901
 20
195.098990
 30
0.0
 10
914.490901
 20
208.297980
 30
0.0
 10
927.689891
 20
208.297980
 30
0.0
  0
LWPOLYLINE
  5
167
100
AcDbEntity
  8
0
 62
7
100
AcDbPolyline
 90
5
 70
1
 10
995.287871
 20
208.297980
 30
0.0
 10
995.287871
 20
195.098990
 30
0.0
 10
982.088881
 20
195.098990
 30
0.0
 10
982.088881
 20
208.297980
 30
0.0
 10
995.287871
 20
208.297980
 30
0.0
  0
LWPOLYLINE
  5
168
100
AcDbEntity
  8
0
 62
7
100
AcDbPolyline
 90
5
 70
1
 10
145.999992
 20
65.000000
 30
0.0
 10
1053.999992
 20
65.000000
 30
0.0
 10
1053.999992
 20
235.000000
 30
0.0
 10
145.999992
 20
235.000000
 30
0.0
 10
145.999992
 20
65.000000
 30
0.0
  0
ENDSEC
  0
SECTION
  2
OBJECTS
  0
DICTIONARY
  5
C
330
0
100
AcDbDictionary
  3
ACAD_GROUP
350
D
  3
ACAD_MLINESTYLE
350
17
  0
DICTIONARY
  5
D
330
C
100
AcDbDictionary
  0
DICTIONARY
  5
1A
330
C
100
AcDbDictionary
  0
DICTIONARY
  5
17
330
C
100
AcDbDictionary
  3
STANDARD
350
18
  0
DICTIONARY
  5
19
330
C
100
AcDbDictionary
  0
ENDSEC
  0
EOF
