<?xml version="1.0" encoding="UTF-8" standalone="no"?>
<svg
   height="300mm"
   version="1.1"
   viewBox="0 0 1200 300"
   width="1200mm"
   id="svg105"
   sodipodi:docname="tabica_2.3.svg"
   inkscape:version="1.4.2 (1:1.4.2+202505120737+ebf0e940d0)"
   xmlns:inkscape="http://www.inkscape.org/namespaces/inkscape"
   xmlns:sodipodi="http://sodipodi.sourceforge.net/DTD/sodipodi-0.dtd"
   xmlns="http://www.w3.org/2000/svg"
   xmlns:svg="http://www.w3.org/2000/svg">
  <sodipodi:namedview
     id="namedview105"
     pagecolor="#ffffff"
     bordercolor="#666666"
     borderopacity="1.0"
     inkscape:showpageshadow="2"
     inkscape:pageopacity="0.0"
     inkscape:pagecheckerboard="0"
     inkscape:deskcolor="#d1d1d1"
     inkscape:document-units="mm"
     showgrid="false"
     inkscape:zoom="0.20902083"
     inkscape:cx="2267.7165"
     inkscape:cy="564.53703"
     inkscape:window-width="1920"
     inkscape:window-height="1011"
     inkscape:window-x="0"
     inkscape:window-y="0"
     inkscape:window-maximized="1"
     inkscape:current-layer="svg105" />
  <defs
     id="defs1" />
  <g
     fill="none"
     stroke="blue"
     stroke-width="0.5"
     transform="translate(-92.87929240107815,65.0)"
     id="g105"
     style="vector-effect:non-scaling-stroke;-inkscape-stroke:hairline;stroke-width:0.26458333;stroke-dasharray:none">
    <path
       d="M 290.9914139223982,143.23107499061547 L 290.22248891301365,144.0 L 262.37929240107815,144.0 L 262.37929240107815,114.09898987322332 L 278.924509166567,114.09898987322332 L 290.9914139223982,126.1658946290545 L 290.9914139223982,143.23107499061547 Z"
       id="path1"
       style="vector-effect:non-scaling-stroke;-inkscape-stroke:hairline;stroke-width:0.26458333;stroke-dasharray:none" />
    <path
       d="M 358.5893936688448,143.23107499061547 L 357.8204686594603,144.0 L 318.1593288050061,144.0 L 317.3904037956216,143.23107499061547 L 317.3904037956216,126.1658946290545 L 329.45730855145274,114.09898987322332 L 346.52248891301366,114.09898987322332 L 358.5893936688448,126.1658946290545 L 358.5893936688448,143.23107499061547 Z"
       id="path2"
       style="vector-effect:non-scaling-stroke;-inkscape-stroke:hairline;stroke-width:0.26458333;stroke-dasharray:none" />
    <path
       d="M 426.18737341529146,143.23107499061547 L 425.41844840590693,144.0 L 385.75730855145275,144.0 L 384.9883835420682,143.23107499061547 L 384.9883835420682,126.1658946290545 L 397.0552882978994,114.09898987322332 L 414.1204686594603,114.09898987322332 L 426.18737341529146,126.1658946290545 L 426.18737341529146,143.23107499061547 Z"
       id="path3"
       style="vector-effect:non-scaling-stroke;-inkscape-stroke:hairline;stroke-width:0.26458333;stroke-dasharray:none" />
    <path
       d="M 493.7853531617381,143.23107499061547 L 493.01642815235357,144.0 L 453.3552882978994,144.0 L 452.58636328851486,143.23107499061547 L 452.58636328851486,126.1658946290545 L 464.653268044346,114.09898987322332 L 481.71844840590694,114.09898987322332 L 493.7853531617381,126.1658946290545 L 493.7853531617381,143.23107499061547 Z"
       id="path4"
       style="vector-effect:non-scaling-stroke;-inkscape-stroke:hairline;stroke-width:0.26458333;stroke-dasharray:none" />
    <path
       d="M 561.3833329081848,143.2310749906154 L 560.6144078988002,144.0 L 520.953268044346,144.0 L 520.1843430349614,143.2310749906154 L 520.1843430349614,126.16589462905456 L 532.2512477907927,114.09898987322332 L 549.3164281523535,114.09898987322332 L 561.3833329081848,126.16589462905456 L 561.3833329081848,143.2310749906154 Z"
       id="path5"
       style="vector-effect:non-scaling-stroke;-inkscape-stroke:hairline;stroke-width:0.26458333;stroke-dasharray:none" />
    <path
       d="M 628.9813126546314,143.2310749906154 L 628.2123876452468,144.0 L 588.5512477907927,144.0 L 587.7823227814081,143.2310749906154 L 587.7823227814081,126.16589462905456 L 599.8492275372394,114.09898987322332 L 616.9144078988002,114.09898987322332 L 628.9813126546314,126.16589462905456 L 628.9813126546314,143.2310749906154 Z"
       id="path6"
       style="vector-effect:non-scaling-stroke;-inkscape-stroke:hairline;stroke-width:0.26458333;stroke-dasharray:none" />
    <path
       d="M 696.5792924010781,143.2310749906154 L 695.8103673916935,144.0 L 656.1492275372393,144.0 L 655.3803025278547,143.2310749906154 L 655.3803025278547,126.16589462905456 L 667.447207283686,114.09898987322332 L 684.5123876452468,114.09898987322332 L 696.5792924010781,126.16589462905456 L 696.5792924010781,143.2310749906154 Z"
       id="path7"
       style="vector-effect:non-scaling-stroke;-inkscape-stroke:hairline;stroke-width:0.26458333;stroke-dasharray:none" />
    <path
       d="M 764.1772721475247,143.2310749906154 L 763.4083471381401,144.0 L 723.747207283686,144.0 L 722.9782822743014,143.2310749906154 L 722.9782822743014,126.16589462905456 L 735.0451870301326,114.09898987322332 L 752.1103673916934,114.09898987322332 L 764.1772721475247,126.16589462905456 L 764.1772721475247,143.2310749906154 Z"
       id="path8"
       style="vector-effect:non-scaling-stroke;-inkscape-stroke:hairline;stroke-width:0.26458333;stroke-dasharray:none" />
    <path
       d="M 831.7752518939714,143.2310749906154 L 831.0063268845868,144.0 L 791.3451870301326,144.0 L 790.576262020748,143.2310749906154 L 790.576262020748,126.16589462905456 L 802.6431667765793,114.09898987322332 L 819.7083471381401,114.09898987322332 L 831.7752518939714,126.16589462905456 L 831.7752518939714,143.2310749906154 Z"
       id="path9"
       style="vector-effect:non-scaling-stroke;-inkscape-stroke:hairline;stroke-width:0.26458333;stroke-dasharray:none" />
    <path
       d="M 899.373231640418,143.2310749906154 L 898.6043066310334,144.0 L 858.9431667765792,144.0 L 858.1742417671946,143.2310749906154 L 858.1742417671946,126.16589462905456 L 870.2411465230259,114.09898987322332 L 887.3063268845867,114.09898987322332 L 899.373231640418,126.16589462905456 L 899.373231640418,143.2310749906154 Z"
       id="path10"
       style="vector-effect:non-scaling-stroke;-inkscape-stroke:hairline;stroke-width:0.26458333;stroke-dasharray:none" />
    <path
       d="M 966.9712113868646,143.2310749906154 L 966.20228637748,144.0 L 926.5411465230259,144.0 L 925.7722215136413,143.2310749906154 L 925.7722215136413,126.16589462905456 L 937.8391262694726,114.09898987322332 L 954.9043066310334,114.09898987322332 L 966.9712113868646,126.16589462905456 L 966.9712113868646,143.2310749906154 Z"
       id="path11"
       style="vector-effect:non-scaling-stroke;-inkscape-stroke:hairline;stroke-width:0.26458333;stroke-dasharray:none" />
    <path
       d="M 1034.5691911333113,143.2310749906154 L 1033.8002661239266,144.0 L 994.1391262694725,144.0 L 993.3702012600879,143.2310749906154 L 993.3702012600879,126.16589462905456 L 1005.4371060159192,114.09898987322332 L 1022.50228637748,114.09898987322332 L 1034.5691911333113,126.16589462905456 L 1034.5691911333113,143.2310749906154 Z"
       id="path12"
       style="vector-effect:non-scaling-stroke;-inkscape-stroke:hairline;stroke-width:0.26458333;stroke-dasharray:none" />
    <path
       d="M 1102.167170879758,143.2310749906154 L 1101.3982458703733,144.0 L 1061.7371060159192,144.0 L 1060.9681810065345,143.2310749906154 L 1060.9681810065345,126.16589462905456 L 1073.0350857623657,114.09898987322332 L 1090.1002661239268,114.09898987322332 L 1102.167170879758,126.16589462905456 L 1102.167170879758,143.2310749906154 Z"
       id="path13"
       style="vector-effect:non-scaling-stroke;-inkscape-stroke:hairline;stroke-width:0.26458333;stroke-dasharray:none" />
    <path
       d="M 276.9914139223982,94.30000000000001 L 276.9914139223982,107.49898987322331 L 263.79242404917494,107.49898987322331 L 263.79242404917494,94.30000000000001 L 276.9914139223982,94.30000000000001 Z"
       id="path14"
       style="vector-effect:non-scaling-stroke;-inkscape-stroke:hairline;stroke-width:0.26458333;stroke-dasharray:none" />
    <path
       d="M 290.99141392239824,75.6330952441688 L 278.924509166567,87.69999999999999 L 262.37929240107815,87.69999999999999 L 262.37929240107815,46.50101012677669 L 278.924509166567,46.50101012677669 L 290.99141392239824,58.56791488260788 L 290.99141392239824,75.6330952441688 Z"
       id="path15"
       style="vector-effect:non-scaling-stroke;-inkscape-stroke:hairline;stroke-width:0.26458333;stroke-dasharray:none" />
    <path
       d="M 310.79040379562156,128.09898987322333 L 310.79040379562156,141.29797974644663 L 297.5914139223982,141.29797974644663 L 297.5914139223982,128.09898987322333 L 310.79040379562156,128.09898987322333 Z"
       id="path16"
       style="vector-effect:non-scaling-stroke;-inkscape-stroke:hairline;stroke-width:0.26458333;stroke-dasharray:none" />
    <path
       d="M 324.7904037956215,92.36690475583117 L 324.7904037956215,109.43208511739213 L 312.72349903979034,121.49898987322332 L 295.6583186782294,121.49898987322332 L 283.5914139223982,109.43208511739213 L 283.5914139223982,92.3669047558312 L 295.6583186782294,80.30000000000001 L 312.7234990397904,80.30000000000001 L 324.7904037956215,92.36690475583117 Z"
       id="path17"
       style="vector-effect:non-scaling-stroke;-inkscape-stroke:hairline;stroke-width:0.26458333;stroke-dasharray:none" />
    <path
       d="M 344.5893936688449,94.30000000000001 L 344.5893936688449,107.49898987322331 L 331.3904037956215,107.49898987322331 L 331.3904037956215,94.30000000000001 L 344.5893936688449,94.30000000000001 Z"
       id="path18"
       style="vector-effect:non-scaling-stroke;-inkscape-stroke:hairline;stroke-width:0.26458333;stroke-dasharray:none" />
    <path
       d="M 358.5893936688449,58.56791488260788 L 358.5893936688449,75.6330952441688 L 346.5224889130137,87.69999999999999 L 329.4573085514527,87.69999999999999 L 317.3904037956215,75.6330952441688 L 317.3904037956215,58.56791488260788 L 329.4573085514527,46.50101012677669 L 346.5224889130137,46.50101012677669 L 358.5893936688449,58.56791488260788 Z"
       id="path19"
       style="vector-effect:non-scaling-stroke;-inkscape-stroke:hairline;stroke-width:0.26458333;stroke-dasharray:none" />
    <path
       d="M 310.79040379562156,60.50101012677669 L 310.79040379562156,73.69999999999999 L 297.5914139223982,73.69999999999999 L 297.5914139223982,60.50101012677669 L 310.79040379562156,60.50101012677669 Z"
       id="path20"
       style="vector-effect:non-scaling-stroke;-inkscape-stroke:hairline;stroke-width:0.26458333;stroke-dasharray:none" />
    <path
       d="M 324.7904037956215,41.83410537094548 L 312.72349903979034,53.90101012677667 L 295.6583186782294,53.90101012677664 L 283.5914139223982,41.83410537094545 L 283.5914139223982,24.76892500938453 L 284.36033893178274,24.0 L 324.021478786237,24.0 L 324.7904037956215,24.768925009384503 L 324.7904037956215,41.83410537094548 Z"
       id="path21"
       style="vector-effect:non-scaling-stroke;-inkscape-stroke:hairline;stroke-width:0.26458333;stroke-dasharray:none" />
    <path
       d="M 378.3883835420682,128.09898987322333 L 378.3883835420682,141.29797974644663 L 365.18939366884484,141.29797974644663 L 365.18939366884484,128.09898987322333 L 378.3883835420682,128.09898987322333 Z"
       id="path22"
       style="vector-effect:non-scaling-stroke;-inkscape-stroke:hairline;stroke-width:0.26458333;stroke-dasharray:none" />
    <path
       d="M 392.38838354206814,92.36690475583117 L 392.38838354206814,109.43208511739213 L 380.321478786237,121.49898987322332 L 363.25629842467606,121.49898987322332 L 351.1893936688449,109.43208511739213 L 351.1893936688449,92.36690475583117 L 363.256298424676,80.30000000000001 L 380.32147878623704,80.30000000000001 L 392.38838354206814,92.36690475583117 Z"
       id="path23"
       style="vector-effect:non-scaling-stroke;-inkscape-stroke:hairline;stroke-width:0.26458333;stroke-dasharray:none" />
    <path
       d="M 412.1873734152915,94.30000000000001 L 412.1873734152915,107.49898987322331 L 398.98838354206816,107.49898987322331 L 398.98838354206816,94.30000000000001 L 412.1873734152915,94.30000000000001 Z"
       id="path24"
       style="vector-effect:non-scaling-stroke;-inkscape-stroke:hairline;stroke-width:0.26458333;stroke-dasharray:none" />
    <path
       d="M 426.1873734152915,58.56791488260788 L 426.1873734152915,75.6330952441688 L 414.12046865946036,87.69999999999999 L 397.0552882978993,87.69999999999999 L 384.98838354206816,75.6330952441688 L 384.98838354206816,58.56791488260788 L 397.0552882978993,46.50101012677669 L 414.12046865946036,46.50101012677669 L 426.1873734152915,58.56791488260788 Z"
       id="path25"
       style="vector-effect:non-scaling-stroke;-inkscape-stroke:hairline;stroke-width:0.26458333;stroke-dasharray:none" />
    <path
       d="M 378.3883835420682,60.50101012677669 L 378.3883835420682,73.69999999999999 L 365.18939366884484,73.69999999999999 L 365.18939366884484,60.50101012677669 L 378.3883835420682,60.50101012677669 Z"
       id="path26"
       style="vector-effect:non-scaling-stroke;-inkscape-stroke:hairline;stroke-width:0.26458333;stroke-dasharray:none" />
    <path
       d="M 392.38838354206814,41.83410537094548 L 380.321478786237,53.90101012677667 L 363.256298424676,53.90101012677664 L 351.1893936688449,41.83410537094548 L 351.1893936688449,24.768925009384503 L 351.9583186782294,24.0 L 391.61945853268367,24.0 L 392.38838354206814,24.768925009384503 L 392.38838354206814,41.83410537094548 Z"
       id="path27"
       style="vector-effect:non-scaling-stroke;-inkscape-stroke:hairline;stroke-width:0.26458333;stroke-dasharray:none" />
    <path
       d="M 445.98636328851484,128.09898987322333 L 445.98636328851484,141.29797974644663 L 432.7873734152915,141.29797974644663 L 432.7873734152915,128.09898987322333 L 445.98636328851484,128.09898987322333 Z"
       id="path28"
       style="vector-effect:non-scaling-stroke;-inkscape-stroke:hairline;stroke-width:0.26458333;stroke-dasharray:none" />
    <path
       d="M 459.9863632885148,92.36690475583117 L 459.9863632885148,109.43208511739213 L 447.9194585326836,121.49898987322332 L 430.8542781711227,121.49898987322332 L 418.78737341529154,109.43208511739213 L 418.78737341529154,92.36690475583117 L 430.85427817112264,80.30000000000001 L 447.9194585326837,80.30000000000001 L 459.9863632885148,92.36690475583117 Z"
       id="path29"
       style="vector-effect:non-scaling-stroke;-inkscape-stroke:hairline;stroke-width:0.26458333;stroke-dasharray:none" />
    <path
       d="M 479.78535316173816,94.30000000000001 L 479.78535316173816,107.49898987322331 L 466.5863632885148,107.49898987322331 L 466.5863632885148,94.30000000000001 L 479.78535316173816,94.30000000000001 Z"
       id="path30"
       style="vector-effect:non-scaling-stroke;-inkscape-stroke:hairline;stroke-width:0.26458333;stroke-dasharray:none" />
    <path
       d="M 493.78535316173816,58.56791488260788 L 493.78535316173816,75.6330952441688 L 481.718448405907,87.69999999999999 L 464.65326804434596,87.69999999999999 L 452.5863632885148,75.6330952441688 L 452.5863632885148,58.56791488260788 L 464.65326804434596,46.50101012677669 L 481.718448405907,46.50101012677669 L 493.78535316173816,58.56791488260788 Z"
       id="path31"
       style="vector-effect:non-scaling-stroke;-inkscape-stroke:hairline;stroke-width:0.26458333;stroke-dasharray:none" />
    <path
       d="M 445.98636328851484,60.50101012677669 L 445.98636328851484,73.69999999999999 L 432.7873734152915,73.69999999999999 L 432.7873734152915,60.50101012677669 L 445.98636328851484,60.50101012677669 Z"
       id="path32"
       style="vector-effect:non-scaling-stroke;-inkscape-stroke:hairline;stroke-width:0.26458333;stroke-dasharray:none" />
    <path
       d="M 459.9863632885148,41.83410537094548 L 447.9194585326836,53.90101012677667 L 430.85427817112264,53.90101012677664 L 418.78737341529154,41.83410537094548 L 418.78737341529154,24.768925009384503 L 419.556298424676,24.0 L 459.2174382791303,24.0 L 459.9863632885148,24.768925009384503 L 459.9863632885148,41.83410537094548 Z"
       id="path33"
       style="vector-effect:non-scaling-stroke;-inkscape-stroke:hairline;stroke-width:0.26458333;stroke-dasharray:none" />
    <path
       d="M 513.5843430349615,128.09898987322333 L 513.5843430349615,141.29797974644663 L 500.3853531617381,141.29797974644663 L 500.3853531617381,128.09898987322333 L 513.5843430349615,128.09898987322333 Z"
       id="path34"
       style="vector-effect:non-scaling-stroke;-inkscape-stroke:hairline;stroke-width:0.26458333;stroke-dasharray:none" />
    <path
       d="M 527.5843430349614,92.36690475583123 L 527.5843430349614,109.43208511739208 L 515.5174382791301,121.49898987322332 L 498.45225791756934,121.49898987322332 L 486.3853531617382,109.43208511739213 L 486.3853531617382,92.36690475583117 L 498.4522579175693,80.30000000000001 L 515.5174382791303,80.30000000000001 L 527.5843430349614,92.36690475583123 Z"
       id="path35"
       style="vector-effect:non-scaling-stroke;-inkscape-stroke:hairline;stroke-width:0.26458333;stroke-dasharray:none" />
    <path
       d="M 547.3833329081849,94.30000000000001 L 547.3833329081849,107.49898987322331 L 534.1843430349613,107.49898987322331 L 534.1843430349613,94.30000000000001 L 547.3833329081849,94.30000000000001 Z"
       id="path36"
       style="vector-effect:non-scaling-stroke;-inkscape-stroke:hairline;stroke-width:0.26458333;stroke-dasharray:none" />
    <path
       d="M 561.3833329081849,58.56791488260794 L 561.3833329081849,75.63309524416874 L 549.3164281523536,87.69999999999999 L 532.2512477907926,87.69999999999999 L 520.1843430349613,75.63309524416874 L 520.1843430349613,58.56791488260794 L 532.2512477907926,46.50101012677669 L 549.3164281523536,46.50101012677669 L 561.3833329081849,58.56791488260794 Z"
       id="path37"
       style="vector-effect:non-scaling-stroke;-inkscape-stroke:hairline;stroke-width:0.26458333;stroke-dasharray:none" />
    <path
       d="M 513.5843430349615,60.50101012677669 L 513.5843430349615,73.69999999999999 L 500.3853531617381,73.69999999999999 L 500.3853531617381,60.50101012677669 L 513.5843430349615,60.50101012677669 Z"
       id="path38"
       style="vector-effect:non-scaling-stroke;-inkscape-stroke:hairline;stroke-width:0.26458333;stroke-dasharray:none" />
    <path
       d="M 527.5843430349614,41.83410537094542 L 515.5174382791301,53.90101012677667 L 498.4522579175693,53.90101012677664 L 486.3853531617382,41.83410537094548 L 486.3853531617382,24.768925009384503 L 487.15427817112266,24.0 L 526.8154180255768,24.0 L 527.5843430349614,24.76892500938456 L 527.5843430349614,41.83410537094542 Z"
       id="path39"
       style="vector-effect:non-scaling-stroke;-inkscape-stroke:hairline;stroke-width:0.26458333;stroke-dasharray:none" />
    <path
       d="M 581.1823227814082,128.09898987322333 L 581.1823227814082,141.29797974644663 L 567.9833329081848,141.29797974644663 L 567.9833329081848,128.09898987322333 L 581.1823227814082,128.09898987322333 Z"
       id="path40"
       style="vector-effect:non-scaling-stroke;-inkscape-stroke:hairline;stroke-width:0.26458333;stroke-dasharray:none" />
    <path
       d="M 595.1823227814082,92.36690475583126 L 595.1823227814082,109.43208511739208 L 583.1154180255769,121.49898987322332 L 566.0502376640161,121.49898987322332 L 553.9833329081848,109.43208511739208 L 553.9833329081848,92.36690475583126 L 566.0502376640161,80.30000000000001 L 583.1154180255769,80.30000000000001 L 595.1823227814082,92.36690475583126 Z"
       id="path41"
       style="vector-effect:non-scaling-stroke;-inkscape-stroke:hairline;stroke-width:0.26458333;stroke-dasharray:none" />
    <path
       d="M 614.9813126546314,94.30000000000001 L 614.9813126546314,107.49898987322331 L 601.7823227814081,107.49898987322331 L 601.7823227814081,94.30000000000001 L 614.9813126546314,94.30000000000001 Z"
       id="path42"
       style="vector-effect:non-scaling-stroke;-inkscape-stroke:hairline;stroke-width:0.26458333;stroke-dasharray:none" />
    <path
       d="M 628.9813126546314,58.56791488260794 L 628.9813126546314,75.63309524416874 L 616.9144078988002,87.69999999999999 L 599.8492275372394,87.69999999999999 L 587.7823227814081,75.63309524416874 L 587.7823227814081,58.56791488260794 L 599.8492275372394,46.50101012677669 L 616.9144078988002,46.50101012677669 L 628.9813126546314,58.56791488260794 Z"
       id="path43"
       style="vector-effect:non-scaling-stroke;-inkscape-stroke:hairline;stroke-width:0.26458333;stroke-dasharray:none" />
    <path
       d="M 581.1823227814082,60.50101012677669 L 581.1823227814082,73.69999999999999 L 567.9833329081848,73.69999999999999 L 567.9833329081848,60.50101012677669 L 581.1823227814082,60.50101012677669 Z"
       id="path44"
       style="vector-effect:non-scaling-stroke;-inkscape-stroke:hairline;stroke-width:0.26458333;stroke-dasharray:none" />
    <path
       d="M 595.1823227814082,41.83410537094542 L 583.1154180255769,53.90101012677667 L 566.0502376640161,53.90101012677664 L 553.9833329081848,41.834105370945394 L 553.9833329081848,24.76892500938459 L 554.7522579175694,24.0 L 594.4133977720236,24.0 L 595.1823227814082,24.76892500938459 L 595.1823227814082,41.83410537094542 Z"
       id="path45"
       style="vector-effect:non-scaling-stroke;-inkscape-stroke:hairline;stroke-width:0.26458333;stroke-dasharray:none" />
    <path
       d="M 648.7803025278547,128.09898987322333 L 648.7803025278547,141.29797974644663 L 635.5813126546313,141.29797974644663 L 635.5813126546313,128.09898987322333 L 648.7803025278547,128.09898987322333 Z"
       id="path46"
       style="vector-effect:non-scaling-stroke;-inkscape-stroke:hairline;stroke-width:0.26458333;stroke-dasharray:none" />
    <path
       d="M 662.7803025278547,92.36690475583126 L 662.7803025278547,109.43208511739208 L 650.7133977720234,121.49898987322332 L 633.6482174104626,121.49898987322332 L 621.5813126546313,109.43208511739208 L 621.5813126546313,92.36690475583126 L 633.6482174104626,80.30000000000001 L 650.7133977720234,80.30000000000001 L 662.7803025278547,92.36690475583126 Z"
       id="path47"
       style="vector-effect:non-scaling-stroke;-inkscape-stroke:hairline;stroke-width:0.26458333;stroke-dasharray:none" />
    <path
       d="M 682.5792924010782,94.30000000000001 L 682.5792924010782,107.49898987322331 L 669.3803025278546,107.49898987322331 L 669.3803025278546,94.30000000000001 L 682.5792924010782,94.30000000000001 Z"
       id="path48"
       style="vector-effect:non-scaling-stroke;-inkscape-stroke:hairline;stroke-width:0.26458333;stroke-dasharray:none" />
    <path
       d="M 696.5792924010782,58.56791488260794 L 696.5792924010782,75.63309524416874 L 684.5123876452469,87.69999999999999 L 667.4472072836859,87.69999999999999 L 655.3803025278546,75.63309524416874 L 655.3803025278546,58.56791488260794 L 667.4472072836859,46.50101012677669 L 684.5123876452469,46.50101012677669 L 696.5792924010782,58.56791488260794 Z"
       id="path49"
       style="vector-effect:non-scaling-stroke;-inkscape-stroke:hairline;stroke-width:0.26458333;stroke-dasharray:none" />
    <path
       d="M 648.7803025278547,60.50101012677669 L 648.7803025278547,73.69999999999999 L 635.5813126546313,73.69999999999999 L 635.5813126546313,60.50101012677669 L 648.7803025278547,60.50101012677669 Z"
       id="path50"
       style="vector-effect:non-scaling-stroke;-inkscape-stroke:hairline;stroke-width:0.26458333;stroke-dasharray:none" />
    <path
       d="M 662.7803025278547,41.83410537094542 L 650.7133977720234,53.90101012677667 L 633.6482174104626,53.90101012677664 L 621.5813126546313,41.834105370945394 L 621.5813126546313,24.76892500938459 L 622.3502376640159,24.0 L 662.0113775184701,24.0 L 662.7803025278547,24.76892500938459 L 662.7803025278547,41.83410537094542 Z"
       id="path51"
       style="vector-effect:non-scaling-stroke;-inkscape-stroke:hairline;stroke-width:0.26458333;stroke-dasharray:none" />
    <path
       d="M 716.3782822743015,128.09898987322333 L 716.3782822743015,141.29797974644663 L 703.1792924010781,141.29797974644663 L 703.1792924010781,128.09898987322333 L 716.3782822743015,128.09898987322333 Z"
       id="path52"
       style="vector-effect:non-scaling-stroke;-inkscape-stroke:hairline;stroke-width:0.26458333;stroke-dasharray:none" />
    <path
       d="M 730.3782822743015,92.36690475583126 L 730.3782822743015,109.43208511739208 L 718.3113775184702,121.49898987322332 L 701.2461971569094,121.49898987322332 L 689.1792924010781,109.43208511739208 L 689.1792924010781,92.36690475583126 L 701.2461971569094,80.30000000000001 L 718.3113775184702,80.30000000000001 L 730.3782822743015,92.36690475583126 Z"
       id="path53"
       style="vector-effect:non-scaling-stroke;-inkscape-stroke:hairline;stroke-width:0.26458333;stroke-dasharray:none" />
    <path
       d="M 750.1772721475247,94.30000000000001 L 750.1772721475247,107.49898987322331 L 736.9782822743014,107.49898987322331 L 736.9782822743014,94.30000000000001 L 750.1772721475247,94.30000000000001 Z"
       id="path54"
       style="vector-effect:non-scaling-stroke;-inkscape-stroke:hairline;stroke-width:0.26458333;stroke-dasharray:none" />
    <path
       d="M 764.1772721475247,58.56791488260794 L 764.1772721475247,75.63309524416874 L 752.1103673916934,87.69999999999999 L 735.0451870301326,87.69999999999999 L 722.9782822743014,75.63309524416874 L 722.9782822743014,58.56791488260794 L 735.0451870301326,46.50101012677669 L 752.1103673916934,46.50101012677669 L 764.1772721475247,58.56791488260794 Z"
       id="path55"
       style="vector-effect:non-scaling-stroke;-inkscape-stroke:hairline;stroke-width:0.26458333;stroke-dasharray:none" />
    <path
       d="M 716.3782822743015,60.50101012677669 L 716.3782822743015,73.69999999999999 L 703.1792924010781,73.69999999999999 L 703.1792924010781,60.50101012677669 L 716.3782822743015,60.50101012677669 Z"
       id="path56"
       style="vector-effect:non-scaling-stroke;-inkscape-stroke:hairline;stroke-width:0.26458333;stroke-dasharray:none" />
    <path
       d="M 730.3782822743015,41.83410537094542 L 718.3113775184702,53.90101012677667 L 701.2461971569094,53.90101012677664 L 689.1792924010781,41.834105370945394 L 689.1792924010781,24.76892500938459 L 689.9482174104627,24.0 L 729.6093572649169,24.0 L 730.3782822743015,24.76892500938459 L 730.3782822743015,41.83410537094542 Z"
       id="path57"
       style="vector-effect:non-scaling-stroke;-inkscape-stroke:hairline;stroke-width:0.26458333;stroke-dasharray:none" />
    <path
       d="M 783.976262020748,128.09898987322333 L 783.976262020748,141.29797974644663 L 770.7772721475246,141.29797974644663 L 770.7772721475246,128.09898987322333 L 783.976262020748,128.09898987322333 Z"
       id="path58"
       style="vector-effect:non-scaling-stroke;-inkscape-stroke:hairline;stroke-width:0.26458333;stroke-dasharray:none" />
    <path
       d="M 797.976262020748,92.36690475583126 L 797.976262020748,109.43208511739208 L 785.9093572649167,121.49898987322332 L 768.8441769033559,121.49898987322332 L 756.7772721475246,109.43208511739208 L 756.7772721475246,92.36690475583126 L 768.8441769033559,80.30000000000001 L 785.9093572649167,80.30000000000001 L 797.976262020748,92.36690475583126 Z"
       id="path59"
       style="vector-effect:non-scaling-stroke;-inkscape-stroke:hairline;stroke-width:0.26458333;stroke-dasharray:none" />
    <path
       d="M 817.7752518939715,94.30000000000001 L 817.7752518939715,107.49898987322331 L 804.5762620207479,107.49898987322331 L 804.5762620207479,94.30000000000001 L 817.7752518939715,94.30000000000001 Z"
       id="path60"
       style="vector-effect:non-scaling-stroke;-inkscape-stroke:hairline;stroke-width:0.26458333;stroke-dasharray:none" />
    <path
       d="M 831.7752518939715,58.56791488260794 L 831.7752518939715,75.63309524416874 L 819.7083471381402,87.69999999999999 L 802.6431667765792,87.69999999999999 L 790.5762620207479,75.63309524416874 L 790.5762620207479,58.56791488260794 L 802.6431667765792,46.50101012677669 L 819.7083471381402,46.50101012677669 L 831.7752518939715,58.56791488260794 Z"
       id="path61"
       style="vector-effect:non-scaling-stroke;-inkscape-stroke:hairline;stroke-width:0.26458333;stroke-dasharray:none" />
    <path
       d="M 783.976262020748,60.50101012677669 L 783.976262020748,73.69999999999999 L 770.7772721475246,73.69999999999999 L 770.7772721475246,60.50101012677669 L 783.976262020748,60.50101012677669 Z"
       id="path62"
       style="vector-effect:non-scaling-stroke;-inkscape-stroke:hairline;stroke-width:0.26458333;stroke-dasharray:none" />
    <path
       d="M 797.976262020748,41.83410537094542 L 785.9093572649167,53.90101012677667 L 768.8441769033559,53.90101012677664 L 756.7772721475246,41.834105370945394 L 756.7772721475246,24.76892500938459 L 757.5461971569092,24.0 L 797.2073370113634,24.0 L 797.976262020748,24.76892500938459 L 797.976262020748,41.83410537094542 Z"
       id="path63"
       style="vector-effect:non-scaling-stroke;-inkscape-stroke:hairline;stroke-width:0.26458333;stroke-dasharray:none" />
    <path
       d="M 851.5742417671947,128.09898987322333 L 851.5742417671947,141.29797974644663 L 838.3752518939714,141.29797974644663 L 838.3752518939714,128.09898987322333 L 851.5742417671947,128.09898987322333 Z"
       id="path64"
       style="vector-effect:non-scaling-stroke;-inkscape-stroke:hairline;stroke-width:0.26458333;stroke-dasharray:none" />
    <path
       d="M 865.5742417671947,92.36690475583126 L 865.5742417671947,109.43208511739208 L 853.5073370113635,121.49898987322332 L 836.4421566498027,121.49898987322332 L 824.3752518939714,109.43208511739208 L 824.3752518939714,92.36690475583126 L 836.4421566498027,80.30000000000001 L 853.5073370113635,80.30000000000001 L 865.5742417671947,92.36690475583126 Z"
       id="path65"
       style="vector-effect:non-scaling-stroke;-inkscape-stroke:hairline;stroke-width:0.26458333;stroke-dasharray:none" />
    <path
       d="M 885.373231640418,94.30000000000001 L 885.373231640418,107.49898987322331 L 872.1742417671946,107.49898987322331 L 872.1742417671946,94.30000000000001 L 885.373231640418,94.30000000000001 Z"
       id="path66"
       style="vector-effect:non-scaling-stroke;-inkscape-stroke:hairline;stroke-width:0.26458333;stroke-dasharray:none" />
    <path
       d="M 899.373231640418,58.56791488260794 L 899.373231640418,75.63309524416874 L 887.3063268845867,87.69999999999999 L 870.2411465230259,87.69999999999999 L 858.1742417671946,75.63309524416874 L 858.1742417671946,58.56791488260794 L 870.2411465230259,46.50101012677669 L 887.3063268845867,46.50101012677669 L 899.373231640418,58.56791488260794 Z"
       id="path67"
       style="vector-effect:non-scaling-stroke;-inkscape-stroke:hairline;stroke-width:0.26458333;stroke-dasharray:none" />
    <path
       d="M 851.5742417671947,60.50101012677669 L 851.5742417671947,73.69999999999999 L 838.3752518939714,73.69999999999999 L 838.3752518939714,60.50101012677669 L 851.5742417671947,60.50101012677669 Z"
       id="path68"
       style="vector-effect:non-scaling-stroke;-inkscape-stroke:hairline;stroke-width:0.26458333;stroke-dasharray:none" />
    <path
       d="M 865.5742417671947,41.83410537094542 L 853.5073370113635,53.90101012677667 L 836.4421566498027,53.90101012677664 L 824.3752518939714,41.834105370945394 L 824.3752518939714,24.76892500938459 L 825.144176903356,24.0 L 864.8053167578101,24.0 L 865.5742417671947,24.76892500938459 L 865.5742417671947,41.83410537094542 Z"
       id="path69"
       style="vector-effect:non-scaling-stroke;-inkscape-stroke:hairline;stroke-width:0.26458333;stroke-dasharray:none" />
    <path
       d="M 919.1722215136413,128.09898987322333 L 919.1722215136413,141.29797974644663 L 905.9732316404179,141.29797974644663 L 905.9732316404179,128.09898987322333 L 919.1722215136413,128.09898987322333 Z"
       id="path70"
       style="vector-effect:non-scaling-stroke;-inkscape-stroke:hairline;stroke-width:0.26458333;stroke-dasharray:none" />
    <path
       d="M 933.1722215136413,92.36690475583126 L 933.1722215136413,109.43208511739208 L 921.10531675781,121.49898987322332 L 904.0401363962492,121.49898987322332 L 891.9732316404179,109.43208511739208 L 891.9732316404179,92.36690475583126 L 904.0401363962492,80.30000000000001 L 921.10531675781,80.30000000000001 L 933.1722215136413,92.36690475583126 Z"
       id="path71"
       style="vector-effect:non-scaling-stroke;-inkscape-stroke:hairline;stroke-width:0.26458333;stroke-dasharray:none" />
    <path
       d="M 952.9712113868648,94.30000000000001 L 952.9712113868648,107.49898987322331 L 939.7722215136412,107.49898987322331 L 939.7722215136412,94.30000000000001 L 952.9712113868648,94.30000000000001 Z"
       id="path72"
       style="vector-effect:non-scaling-stroke;-inkscape-stroke:hairline;stroke-width:0.26458333;stroke-dasharray:none" />
    <path
       d="M 966.9712113868648,58.56791488260794 L 966.9712113868648,75.63309524416874 L 954.9043066310335,87.69999999999999 L 937.8391262694724,87.69999999999999 L 925.7722215136412,75.63309524416874 L 925.7722215136412,58.56791488260794 L 937.8391262694724,46.50101012677669 L 954.9043066310335,46.50101012677669 L 966.9712113868648,58.56791488260794 Z"
       id="path73"
       style="vector-effect:non-scaling-stroke;-inkscape-stroke:hairline;stroke-width:0.26458333;stroke-dasharray:none" />
    <path
       d="M 919.1722215136413,60.50101012677669 L 919.1722215136413,73.69999999999999 L 905.9732316404179,73.69999999999999 L 905.9732316404179,60.50101012677669 L 919.1722215136413,60.50101012677669 Z"
       id="path74"
       style="vector-effect:non-scaling-stroke;-inkscape-stroke:hairline;stroke-width:0.26458333;stroke-dasharray:none" />
    <path
       d="M 933.1722215136413,41.83410537094542 L 921.10531675781,53.90101012677667 L 904.0401363962492,53.90101012677664 L 891.9732316404179,41.834105370945394 L 891.9732316404179,24.76892500938459 L 892.7421566498025,24.0 L 932.4032965042567,24.0 L 933.1722215136413,24.76892500938459 L 933.1722215136413,41.83410537094542 Z"
       id="path75"
       style="vector-effect:non-scaling-stroke;-inkscape-stroke:hairline;stroke-width:0.26458333;stroke-dasharray:none" />
    <path
       d="M 986.770201260088,128.09898987322333 L 986.770201260088,141.29797974644663 L 973.5712113868647,141.29797974644663 L 973.5712113868647,128.09898987322333 L 986.770201260088,128.09898987322333 Z"
       id="path76"
       style="vector-effect:non-scaling-stroke;-inkscape-stroke:hairline;stroke-width:0.26458333;stroke-dasharray:none" />
    <path
       d="M 1000.770201260088,92.36690475583126 L 1000.770201260088,109.43208511739208 L 988.7032965042567,121.49898987322332 L 971.6381161426959,121.49898987322332 L 959.5712113868647,109.43208511739208 L 959.5712113868647,92.36690475583126 L 971.6381161426959,80.30000000000001 L 988.7032965042567,80.30000000000001 L 1000.770201260088,92.36690475583126 Z"
       id="path77"
       style="vector-effect:non-scaling-stroke;-inkscape-stroke:hairline;stroke-width:0.26458333;stroke-dasharray:none" />
    <path
       d="M 1020.5691911333113,94.30000000000001 L 1020.5691911333113,107.49898987322331 L 1007.3702012600879,107.49898987322331 L 1007.3702012600879,94.30000000000001 L 1020.5691911333113,94.30000000000001 Z"
       id="path78"
       style="vector-effect:non-scaling-stroke;-inkscape-stroke:hairline;stroke-width:0.26458333;stroke-dasharray:none" />
    <path
       d="M 1034.5691911333113,58.56791488260794 L 1034.5691911333113,75.63309524416874 L 1022.50228637748,87.69999999999999 L 1005.4371060159192,87.69999999999999 L 993.3702012600879,75.63309524416874 L 993.3702012600879,58.56791488260794 L 1005.4371060159192,46.50101012677669 L 1022.50228637748,46.50101012677669 L 1034.5691911333113,58.56791488260794 Z"
       id="path79"
       style="vector-effect:non-scaling-stroke;-inkscape-stroke:hairline;stroke-width:0.26458333;stroke-dasharray:none" />
    <path
       d="M 986.770201260088,60.50101012677669 L 986.770201260088,73.69999999999999 L 973.5712113868647,73.69999999999999 L 973.5712113868647,60.50101012677669 L 986.770201260088,60.50101012677669 Z"
       id="path80"
       style="vector-effect:non-scaling-stroke;-inkscape-stroke:hairline;stroke-width:0.26458333;stroke-dasharray:none" />
    <path
       d="M 1000.770201260088,41.83410537094542 L 988.7032965042567,53.90101012677667 L 971.6381161426959,53.90101012677664 L 959.5712113868647,41.834105370945394 L 959.5712113868647,24.76892500938459 L 960.3401363962492,24.0 L 1000.0012762507034,24.0 L 1000.770201260088,24.76892500938459 L 1000.770201260088,41.83410537094542 Z"
       id="path81"
       style="vector-effect:non-scaling-stroke;-inkscape-stroke:hairline;stroke-width:0.26458333;stroke-dasharray:none" />
    <path
       d="M 1054.3681810065345,128.09898987322333 L 1054.3681810065345,141.29797974644663 L 1041.1691911333112,141.29797974644663 L 1041.1691911333112,128.09898987322333 L 1054.3681810065345,128.09898987322333 Z"
       id="path82"
       style="vector-effect:non-scaling-stroke;-inkscape-stroke:hairline;stroke-width:0.26458333;stroke-dasharray:none" />
    <path
       d="M 1068.3681810065345,92.36690475583126 L 1068.3681810065345,109.43208511739208 L 1056.3012762507033,121.49898987322332 L 1039.2360958891425,121.49898987322332 L 1027.1691911333112,109.43208511739208 L 1027.1691911333112,92.36690475583126 L 1039.2360958891425,80.30000000000001 L 1056.3012762507033,80.30000000000001 L 1068.3681810065345,92.36690475583126 Z"
       id="path83"
       style="vector-effect:non-scaling-stroke;-inkscape-stroke:hairline;stroke-width:0.26458333;stroke-dasharray:none" />
    <path
       d="M 1088.1671708797578,94.30000000000001 L 1088.1671708797578,107.49898987322331 L 1074.9681810065345,107.49898987322331 L 1074.9681810065345,94.30000000000001 L 1088.1671708797578,94.30000000000001 Z"
       id="path84"
       style="vector-effect:non-scaling-stroke;-inkscape-stroke:hairline;stroke-width:0.26458333;stroke-dasharray:none" />
    <path
       d="M 1102.1671708797578,58.56791488260794 L 1102.1671708797578,75.63309524416874 L 1090.1002661239265,87.69999999999999 L 1073.0350857623657,87.69999999999999 L 1060.9681810065345,75.63309524416874 L 1060.9681810065345,58.56791488260794 L 1073.0350857623657,46.50101012677669 L 1090.1002661239265,46.50101012677669 L 1102.1671708797578,58.56791488260794 Z"
       id="path85"
       style="vector-effect:non-scaling-stroke;-inkscape-stroke:hairline;stroke-width:0.26458333;stroke-dasharray:none" />
    <path
       d="M 1054.3681810065345,60.50101012677669 L 1054.3681810065345,73.69999999999999 L 1041.1691911333112,73.69999999999999 L 1041.1691911333112,60.50101012677669 L 1054.3681810065345,60.50101012677669 Z"
       id="path86"
       style="vector-effect:non-scaling-stroke;-inkscape-stroke:hairline;stroke-width:0.26458333;stroke-dasharray:none" />
    <path
       d="M 1068.3681810065345,41.83410537094542 L 1056.3012762507033,53.90101012677667 L 1039.2360958891425,53.90101012677664 L 1027.1691911333112,41.834105370945394 L 1027.1691911333112,24.76892500938459 L 1027.938116142696,24.0 L 1067.5992559971498,24.0 L 1068.3681810065345,24.76892500938459 L 1068.3681810065345,41.83410537094542 Z"
       id="path87"
       style="vector-effect:non-scaling-stroke;-inkscape-stroke:hairline;stroke-width:0.26458333;stroke-dasharray:none" />
    <path
       d="M 1121.9661607529813,128.09898987322333 L 1121.9661607529813,141.29797974644663 L 1108.7671708797577,141.29797974644663 L 1108.7671708797577,128.09898987322333 L 1121.9661607529813,128.09898987322333 Z"
       id="path88"
       style="vector-effect:non-scaling-stroke;-inkscape-stroke:hairline;stroke-width:0.26458333;stroke-dasharray:none" />
    <path
       d="M 1106.834075635589,121.49898987322332 L 1094.7671708797577,109.43208511739208 L 1094.7671708797577,92.36690475583126 L 1106.834075635589,80.30000000000001 L 1123.3792924010781,80.30000000000001 L 1123.3792924010781,121.49898987322332 L 1106.834075635589,121.49898987322332 Z"
       id="path89"
       style="vector-effect:non-scaling-stroke;-inkscape-stroke:hairline;stroke-width:0.26458333;stroke-dasharray:none" />
    <path
       d="M 1121.9661607529813,60.50101012677669 L 1121.9661607529813,73.69999999999999 L 1108.7671708797577,73.69999999999999 L 1108.7671708797577,60.50101012677669 L 1121.9661607529813,60.50101012677669 Z"
       id="path90"
       style="vector-effect:non-scaling-stroke;-inkscape-stroke:hairline;stroke-width:0.26458333;stroke-dasharray:none" />
    <path
       d="M 1106.834075635589,53.90101012677664 L 1094.7671708797577,41.834105370945394 L 1094.7671708797577,24.76892500938459 L 1095.5360958891424,24.0 L 1123.3792924010781,24.0 L 1123.3792924010781,53.90101012677667 L 1106.834075635589,53.90101012677664 Z"
       id="path91"
       style="vector-effect:non-scaling-stroke;-inkscape-stroke:hairline;stroke-width:0.26458333;stroke-dasharray:none" />
    <path
       d="M 276.9914139223982,26.702020253553343 L 276.9914139223982,39.90101012677664 L 263.79242404917494,39.90101012677664 L 263.79242404917494,26.702020253553343 L 276.9914139223982,26.702020253553343 Z"
       id="path92"
       style="vector-effect:non-scaling-stroke;-inkscape-stroke:hairline;stroke-width:0.26458333;stroke-dasharray:none" />
    <path
       d="M 344.5893936688449,26.702020253553343 L 344.5893936688449,39.90101012677664 L 331.3904037956215,39.90101012677664 L 331.3904037956215,26.702020253553343 L 344.5893936688449,26.702020253553343 Z"
       id="path93"
       style="vector-effect:non-scaling-stroke;-inkscape-stroke:hairline;stroke-width:0.26458333;stroke-dasharray:none" />
    <path
       d="M 412.1873734152915,26.702020253553343 L 412.1873734152915,39.90101012677664 L 398.98838354206816,39.90101012677664 L 398.98838354206816,26.702020253553343 L 412.1873734152915,26.702020253553343 Z"
       id="path94"
       style="vector-effect:non-scaling-stroke;-inkscape-stroke:hairline;stroke-width:0.26458333;stroke-dasharray:none" />
    <path
       d="M 479.78535316173816,26.702020253553343 L 479.78535316173816,39.90101012677664 L 466.5863632885148,39.90101012677664 L 466.5863632885148,26.702020253553343 L 479.78535316173816,26.702020253553343 Z"
       id="path95"
       style="vector-effect:non-scaling-stroke;-inkscape-stroke:hairline;stroke-width:0.26458333;stroke-dasharray:none" />
    <path
       d="M 547.3833329081849,26.702020253553343 L 547.3833329081849,39.90101012677664 L 534.1843430349613,39.90101012677664 L 534.1843430349613,26.702020253553343 L 547.3833329081849,26.702020253553343 Z"
       id="path96"
       style="vector-effect:non-scaling-stroke;-inkscape-stroke:hairline;stroke-width:0.26458333;stroke-dasharray:none" />
    <path
       d="M 614.9813126546314,26.702020253553343 L 614.9813126546314,39.90101012677664 L 601.7823227814081,39.90101012677664 L 601.7823227814081,26.702020253553343 L 614.9813126546314,26.702020253553343 Z"
       id="path97"
       style="vector-effect:non-scaling-stroke;-inkscape-stroke:hairline;stroke-width:0.26458333;stroke-dasharray:none" />
    <path
       d="M 682.5792924010781,26.702020253553343 L 682.5792924010781,39.90101012677664 L 669.3803025278547,39.90101012677664 L 669.3803025278547,26.702020253553343 L 682.5792924010781,26.702020253553343 Z"
       id="path98"
       style="vector-effect:non-scaling-stroke;-inkscape-stroke:hairline;stroke-width:0.26458333;stroke-dasharray:none" />
    <path
       d="M 750.1772721475247,26.702020253553343 L 750.1772721475247,39.90101012677664 L 736.9782822743014,39.90101012677664 L 736.9782822743014,26.702020253553343 L 750.1772721475247,26.702020253553343 Z"
       id="path99"
       style="vector-effect:non-scaling-stroke;-inkscape-stroke:hairline;stroke-width:0.26458333;stroke-dasharray:none" />
    <path
       d="M 817.7752518939714,26.702020253553343 L 817.7752518939714,39.90101012677664 L 804.576262020748,39.90101012677664 L 804.576262020748,26.702020253553343 L 817.7752518939714,26.702020253553343 Z"
       id="path100"
       style="vector-effect:non-scaling-stroke;-inkscape-stroke:hairline;stroke-width:0.26458333;stroke-dasharray:none" />
    <path
       d="M 885.373231640418,26.702020253553343 L 885.373231640418,39.90101012677664 L 872.1742417671946,39.90101012677664 L 872.1742417671946,26.702020253553343 L 885.373231640418,26.702020253553343 Z"
       id="path101"
       style="vector-effect:non-scaling-stroke;-inkscape-stroke:hairline;stroke-width:0.26458333;stroke-dasharray:none" />
    <path
       d="M 952.9712113868646,26.702020253553343 L 952.9712113868646,39.90101012677664 L 939.7722215136413,39.90101012677664 L 939.7722215136413,26.702020253553343 L 952.9712113868646,26.702020253553343 Z"
       id="path102"
       style="vector-effect:non-scaling-stroke;-inkscape-stroke:hairline;stroke-width:0.26458333;stroke-dasharray:none" />
    <path
       d="M 1020.5691911333113,26.702020253553343 L 1020.5691911333113,39.90101012677664 L 1007.3702012600879,39.90101012677664 L 1007.3702012600879,26.702020253553343 L 1020.5691911333113,26.702020253553343 Z"
       id="path103"
       style="vector-effect:non-scaling-stroke;-inkscape-stroke:hairline;stroke-width:0.26458333;stroke-dasharray:none" />
    <path
       d="M 1088.1671708797578,26.702020253553343 L 1088.1671708797578,39.90101012677664 L 1074.9681810065347,39.90101012677664 L 1074.9681810065347,26.702020253553343 L 1088.1671708797578,26.702020253553343 Z"
       id="path104"
       style="vector-effect:non-scaling-stroke;-inkscape-stroke:hairline;stroke-width:0.26458333;stroke-dasharray:none" />
    <path
       d="M 240.37929240107815,170.0 L 1145.3792924010781,170.0 L 1145.3792924010781,0.0 L 240.37929240107815,0.0 L 240.37929240107815,170.0 Z"
       id="path105"
       style="vector-effect:non-scaling-stroke;-inkscape-stroke:hairline;stroke-width:0.26458333;stroke-dasharray:none" />
  </g>
</svg>
