  0
SECTION
  2
HEADER
  9
$ACADVER
  1
AC1014
  9
$HANDSEED
  5
FFFF
  9
$INSUNITS
 70
     4
  9
$MEASUREMENT
 70
     1
  0
ENDSEC
  0
SECTION
  2
TABLES
  0
TABLE
  2
VPORT
  5
8
330
0
100
AcDbSymbolTable
 70
     4
  0
VPORT
  5
2E
330
8
100
AcDbSymbolTableRecord
100
AcDbViewportTableRecord
  2
*ACTIVE
 70
     0
 10
0.0
 20
0.0
 11
1.0
 21
1.0
 12
210.0
 22
148.5
 13
0.0
 23
0.0
 14
10.0
 24
10.0
 15
10.0
 25
10.0
 16
0.0
 26
0.0
 36
1.0
 17
0.0
 27
0.0
 37
0.0
 40
341.0
 41
1.24
 42
50.0
 43
0.0
 44
0.0
 50
0.0
 51
0.0
 71
     0
 72
   100
 73
     1
 74
     3
 75
     0
 76
     0
 77
     0
 78
     0
  0
ENDTAB
  0
TABLE
  2
LTYPE
  5
5
330
0
100
AcDbSymbolTable
 70
     1
  0
LTYPE
  5
14
330
5
100
AcDbSymbolTableRecord
100
AcDbLinetypeTableRecord
  2
BYBLOCK
 70
     0
  3

 72
    65
 73
     0
 40
0.0
  0
LTYPE
  5
15
330
5
100
AcDbSymbolTableRecord
100
AcDbLinetypeTableRecord
  2
BYLAYER
 70
     0
  3

 72
    65
 73
     0
 40
0.0
  0
LTYPE
  5
16
330
5
100
AcDbSymbolTableRecord
100
AcDbLinetypeTableRecord
  2
CONTINUOUS
 70
     0
  3
Solid line
 72
    65
 73
     0
 40
0.0
  0
ENDTAB
  0
TABLE
  2
LAYER
  5
2
100
AcDbSymbolTable
 70
2
  0
LAYER
  5
50
100
AcDbSymbolTableRecord
100
AcDbLayerTableRecord
  2
0
 70
0
  6
CONTINUOUS
  0
LAYER
  5
51
100
AcDbSymbolTableRecord
100
AcDbLayerTableRecord
  2
Layer_1
 70
0
  6
CONTINUOUS
  0
ENDTAB
  0
TABLE
  2
STYLE
  5
3
330
0
100
AcDbSymbolTable
 70
     1
  0
STYLE
  5
11
330
3
100
AcDbSymbolTableRecord
100
AcDbTextStyleTableRecord
  2
STANDARD
 70
     0
 40
0.0
 41
1.0
 50
0.0
 71
     0
 42
2.5
  3
txt
  4

  0
ENDTAB
  0
TABLE
  2
VIEW
  5
6
330
0
100
AcDbSymbolTable
 70
     0
  0
ENDTAB
  0
TABLE
  2
UCS
  5
7
330
0
100
AcDbSymbolTable
 70
     0
  0
ENDTAB
  0
TABLE
  2
APPID
  5
9
330
0
100
AcDbSymbolTable
 70
     2
  0
APPID
  5
12
330
9
100
AcDbSymbolTableRecord
100
AcDbRegAppTableRecord
  2
ACAD
 70
     0
  0
ENDTAB
  0
TABLE
  2
DIMSTYLE
  5
A
330
0
100
AcDbSymbolTable
 70
     1
  0
DIMSTYLE
105
27
330
A
100
AcDbSymbolTableRecord
100
AcDbDimStyleTableRecord
  2
ISO-25
 70
     0
  3

  4

  5

  6

  7

 40
1.0
 41
2.5
 42
0.625
 43
3.75
 44
1.25
 45
0.0
 46
0.0
 47
0.0
 48
0.0
140
2.5
141
2.5
142
0.0
143
0.03937007874016
144
1.0
145
0.0
146
1.0
147
0.625
 71
     0
 72
     0
 73
     0
 74
     0
 75
     0
 76
     0
 77
     1
 78
     8
170
     0
171
     3
172
     1
173
     0
174
     0
175
     0
176
     0
177
     0
178
     0
270
     2
271
     2
272
     2
273
     2
274
     3
340
11
275
     0
280
     0
281
     0
282
     0
283
     0
284
     8
285
     0
286
     0
287
     3
288
     0
  0
ENDTAB
  0
TABLE
  2
BLOCK_RECORD
  5
1
330
0
100
AcDbSymbolTable
 70
     1
  0
BLOCK_RECORD
  5
1F
330
1
100
AcDbSymbolTableRecord
100
AcDbBlockTableRecord
  2
*MODEL_SPACE
  0
BLOCK_RECORD
  5
1B
330
1
100
AcDbSymbolTableRecord
100
AcDbBlockTableRecord
  2
*PAPER_SPACE
  0
ENDTAB
  0
ENDSEC
  0
SECTION
  2
BLOCKS
  0
BLOCK
  5
20
330
1F
100
AcDbEntity
  8
0
100
AcDbBlockBegin
  2
*MODEL_SPACE
 70
     0
 10
0.0
 20
0.0
 30
0.0
  3
*MODEL_SPACE
  1

  0
ENDBLK
  5
21
330
1F
100
AcDbEntity
  8
0
100
AcDbBlockEnd
  0
BLOCK
  5
1C
330
1B
100
AcDbEntity
 67
     1
  8
0
100
AcDbBlockBegin
  2
*PAPER_SPACE
  1

  0
ENDBLK
  5
1D
330
1B
100
AcDbEntity
 67
     1
  8
0
100
AcDbBlockEnd
  0
ENDSEC
  0
SECTION
  2
ENTITIES
  0
LWPOLYLINE
  5
100
100
AcDbEntity
  8
Layer_1
 62
5
100
AcDbPolyline
 90
4
 70
1
 10
51.173990
 20
220.272246
 30
0.0
 10
1051.174010
 20
220.272246
 30
0.0
 10
1051.174010
 20
76.572250
 30
0.0
 10
51.173990
 20
76.572250
 30
0.0
  0
LWPOLYLINE
  5
101
100
AcDbEntity
  8
Layer_1
 62
5
100
AcDbPolyline
 90
4
 70
1
 10
63.821160
 20
204.375235
 30
0.0
 10
79.602990
 20
204.375235
 30
0.0
 10
79.602990
 20
188.567863
 30
0.0
 10
63.820380
 20
188.567863
 30
0.0
  0
LWPOLYLINE
  5
102
100
AcDbEntity
  8
Layer_1
 62
5
100
AcDbPolyline
 90
4
 70
1
 10
95.788810
 20
204.375235
 30
0.0
 10
111.570640
 20
204.375235
 30
0.0
 10
111.570640
 20
188.567803
 30
0.0
 10
95.788030
 20
188.567803
 30
0.0
  0
LWPOLYLINE
  5
103
100
AcDbEntity
  8
Layer_1
 62
5
100
AcDbPolyline
 90
4
 70
1
 10
127.756460
 20
204.375235
 30
0.0
 10
143.538290
 20
204.375235
 30
0.0
 10
143.538290
 20
188.567863
 30
0.0
 10
127.755680
 20
188.567863
 30
0.0
  0
LWPOLYLINE
  5
104
100
AcDbEntity
  8
Layer_1
 62
5
100
AcDbPolyline
 90
4
 70
1
 10
159.724110
 20
204.375235
 30
0.0
 10
175.505940
 20
204.375235
 30
0.0
 10
175.505940
 20
188.567803
 30
0.0
 10
159.723330
 20
188.567803
 30
0.0
  0
LWPOLYLINE
  5
105
100
AcDbEntity
  8
Layer_1
 62
5
100
AcDbPolyline
 90
4
 70
1
 10
191.691770
 20
204.375235
 30
0.0
 10
207.473600
 20
204.375235
 30
0.0
 10
207.473600
 20
188.567863
 30
0.0
 10
191.690990
 20
188.567863
 30
0.0
  0
LWPOLYLINE
  5
106
100
AcDbEntity
  8
Layer_1
 62
5
100
AcDbPolyline
 90
4
 70
1
 10
223.659420
 20
204.375235
 30
0.0
 10
239.441250
 20
204.375235
 30
0.0
 10
239.441250
 20
188.567803
 30
0.0
 10
223.658640
 20
188.567803
 30
0.0
  0
LWPOLYLINE
  5
107
100
AcDbEntity
  8
Layer_1
 62
5
100
AcDbPolyline
 90
4
 70
1
 10
255.627070
 20
204.375235
 30
0.0
 10
271.408900
 20
204.375235
 30
0.0
 10
271.408900
 20
188.567863
 30
0.0
 10
255.626290
 20
188.567863
 30
0.0
  0
LWPOLYLINE
  5
108
100
AcDbEntity
  8
Layer_1
 62
5
100
AcDbPolyline
 90
4
 70
1
 10
287.594720
 20
204.375235
 30
0.0
 10
303.376550
 20
204.375235
 30
0.0
 10
303.376550
 20
188.567813
 30
0.0
 10
287.593940
 20
188.567813
 30
0.0
  0
LWPOLYLINE
  5
109
100
AcDbEntity
  8
Layer_1
 62
5
100
AcDbPolyline
 90
4
 70
1
 10
319.562370
 20
204.375235
 30
0.0
 10
335.344205
 20
204.375235
 30
0.0
 10
335.344205
 20
188.567863
 30
0.0
 10
319.561590
 20
188.567863
 30
0.0
  0
LWPOLYLINE
  5
10a
100
AcDbEntity
  8
Layer_1
 62
5
100
AcDbPolyline
 90
4
 70
1
 10
351.530024
 20
204.375235
 30
0.0
 10
367.311855
 20
204.375235
 30
0.0
 10
367.311855
 20
188.567803
 30
0.0
 10
351.529243
 20
188.567803
 30
0.0
  0
LWPOLYLINE
  5
10b
100
AcDbEntity
  8
Layer_1
 62
5
100
AcDbPolyline
 90
4
 70
1
 10
383.497675
 20
204.375235
 30
0.0
 10
399.279506
 20
204.375235
 30
0.0
 10
399.279506
 20
188.567863
 30
0.0
 10
383.496894
 20
188.567863
 30
0.0
  0
LWPOLYLINE
  5
10c
100
AcDbEntity
  8
Layer_1
 62
5
100
AcDbPolyline
 90
4
 70
1
 10
415.465327
 20
204.375235
 30
0.0
 10
431.247158
 20
204.375235
 30
0.0
 10
431.247158
 20
188.567803
 30
0.0
 10
415.464547
 20
188.567803
 30
0.0
  0
LWPOLYLINE
  5
10d
100
AcDbEntity
  8
Layer_1
 62
5
100
AcDbPolyline
 90
4
 70
1
 10
447.432978
 20
204.375235
 30
0.0
 10
463.214809
 20
204.375235
 30
0.0
 10
463.214809
 20
188.567863
 30
0.0
 10
447.432198
 20
188.567863
 30
0.0
  0
LWPOLYLINE
  5
10e
100
AcDbEntity
  8
Layer_1
 62
5
100
AcDbPolyline
 90
4
 70
1
 10
479.400629
 20
204.375235
 30
0.0
 10
495.182460
 20
204.375235
 30
0.0
 10
495.182460
 20
188.567803
 30
0.0
 10
479.399849
 20
188.567803
 30
0.0
  0
LWPOLYLINE
  5
10f
100
AcDbEntity
  8
Layer_1
 62
5
100
AcDbPolyline
 90
4
 70
1
 10
511.368281
 20
204.375235
 30
0.0
 10
527.150112
 20
204.375235
 30
0.0
 10
527.150112
 20
188.567863
 30
0.0
 10
511.367501
 20
188.567863
 30
0.0
  0
LWPOLYLINE
  5
110
100
AcDbEntity
  8
Layer_1
 62
5
100
AcDbPolyline
 90
4
 70
1
 10
543.335930
 20
204.375235
 30
0.0
 10
559.117760
 20
204.375235
 30
0.0
 10
559.117760
 20
188.567813
 30
0.0
 10
543.335150
 20
188.567813
 30
0.0
  0
LWPOLYLINE
  5
111
100
AcDbEntity
  8
Layer_1
 62
5
100
AcDbPolyline
 90
4
 70
1
 10
575.303580
 20
204.375235
 30
0.0
 10
591.085410
 20
204.375235
 30
0.0
 10
591.085410
 20
188.567863
 30
0.0
 10
575.302800
 20
188.567863
 30
0.0
  0
LWPOLYLINE
  5
112
100
AcDbEntity
  8
Layer_1
 62
5
100
AcDbPolyline
 90
4
 70
1
 10
607.271230
 20
204.375235
 30
0.0
 10
623.053060
 20
204.375235
 30
0.0
 10
623.053060
 20
188.567803
 30
0.0
 10
607.270450
 20
188.567803
 30
0.0
  0
LWPOLYLINE
  5
113
100
AcDbEntity
  8
Layer_1
 62
5
100
AcDbPolyline
 90
4
 70
1
 10
639.238880
 20
204.375235
 30
0.0
 10
655.020710
 20
204.375235
 30
0.0
 10
655.020710
 20
188.567863
 30
0.0
 10
639.238100
 20
188.567863
 30
0.0
  0
LWPOLYLINE
  5
114
100
AcDbEntity
  8
Layer_1
 62
5
100
AcDbPolyline
 90
4
 70
1
 10
671.206540
 20
204.375235
 30
0.0
 10
686.988370
 20
204.375235
 30
0.0
 10
686.988370
 20
188.567803
 30
0.0
 10
671.205760
 20
188.567803
 30
0.0
  0
LWPOLYLINE
  5
115
100
AcDbEntity
  8
Layer_1
 62
5
100
AcDbPolyline
 90
4
 70
1
 10
703.174190
 20
204.375235
 30
0.0
 10
718.956020
 20
204.375235
 30
0.0
 10
718.956020
 20
188.567863
 30
0.0
 10
703.173410
 20
188.567863
 30
0.0
  0
LWPOLYLINE
  5
116
100
AcDbEntity
  8
Layer_1
 62
5
100
AcDbPolyline
 90
4
 70
1
 10
735.141840
 20
204.375235
 30
0.0
 10
750.923670
 20
204.375235
 30
0.0
 10
750.923670
 20
188.567803
 30
0.0
 10
735.141060
 20
188.567803
 30
0.0
  0
LWPOLYLINE
  5
117
100
AcDbEntity
  8
Layer_1
 62
5
100
AcDbPolyline
 90
4
 70
1
 10
767.109490
 20
204.375235
 30
0.0
 10
782.891320
 20
204.375235
 30
0.0
 10
782.891320
 20
188.567863
 30
0.0
 10
767.108710
 20
188.567863
 30
0.0
  0
LWPOLYLINE
  5
118
100
AcDbEntity
  8
Layer_1
 62
5
100
AcDbPolyline
 90
4
 70
1
 10
799.077140
 20
204.375235
 30
0.0
 10
814.858970
 20
204.375235
 30
0.0
 10
814.858970
 20
188.567813
 30
0.0
 10
799.076360
 20
188.567813
 30
0.0
  0
LWPOLYLINE
  5
119
100
AcDbEntity
  8
Layer_1
 62
5
100
AcDbPolyline
 90
4
 70
1
 10
831.044790
 20
204.375235
 30
0.0
 10
846.826630
 20
204.375235
 30
0.0
 10
846.826630
 20
188.567863
 30
0.0
 10
831.044010
 20
188.567863
 30
0.0
  0
LWPOLYLINE
  5
11a
100
AcDbEntity
  8
Layer_1
 62
5
100
AcDbPolyline
 90
4
 70
1
 10
863.012440
 20
204.375235
 30
0.0
 10
878.794270
 20
204.375235
 30
0.0
 10
878.794270
 20
188.567803
 30
0.0
 10
863.011660
 20
188.567803
 30
0.0
  0
LWPOLYLINE
  5
11b
100
AcDbEntity
  8
Layer_1
 62
5
100
AcDbPolyline
 90
4
 70
1
 10
894.980090
 20
204.375235
 30
0.0
 10
910.761920
 20
204.375235
 30
0.0
 10
910.761920
 20
188.567863
 30
0.0
 10
894.979310
 20
188.567863
 30
0.0
  0
LWPOLYLINE
  5
11c
100
AcDbEntity
  8
Layer_1
 62
5
100
AcDbPolyline
 90
4
 70
1
 10
926.947750
 20
204.375235
 30
0.0
 10
942.729580
 20
204.375235
 30
0.0
 10
942.729580
 20
188.567803
 30
0.0
 10
926.946970
 20
188.567803
 30
0.0
  0
LWPOLYLINE
  5
11d
100
AcDbEntity
  8
Layer_1
 62
5
100
AcDbPolyline
 90
4
 70
1
 10
958.915400
 20
204.375235
 30
0.0
 10
974.697230
 20
204.375235
 30
0.0
 10
974.697230
 20
188.567863
 30
0.0
 10
958.914620
 20
188.567863
 30
0.0
  0
LWPOLYLINE
  5
11e
100
AcDbEntity
  8
Layer_1
 62
5
100
AcDbPolyline
 90
4
 70
1
 10
990.883050
 20
204.375235
 30
0.0
 10
1006.664880
 20
204.375235
 30
0.0
 10
1006.664880
 20
188.567803
 30
0.0
 10
990.882270
 20
188.567803
 30
0.0
  0
LWPOLYLINE
  5
11f
100
AcDbEntity
  8
Layer_1
 62
5
100
AcDbPolyline
 90
4
 70
1
 10
1022.850700
 20
204.375235
 30
0.0
 10
1038.632530
 20
204.375235
 30
0.0
 10
1038.632530
 20
188.567863
 30
0.0
 10
1022.849920
 20
188.567863
 30
0.0
  0
LWPOLYLINE
  5
120
100
AcDbEntity
  8
Layer_1
 62
5
100
AcDbPolyline
 90
4
 70
1
 10
63.716250
 20
172.466050
 30
0.0
 10
79.498090
 20
172.466050
 30
0.0
 10
79.498090
 20
156.658670
 30
0.0
 10
63.715470
 20
156.658670
 30
0.0
  0
LWPOLYLINE
  5
121
100
AcDbEntity
  8
Layer_1
 62
5
100
AcDbPolyline
 90
4
 70
1
 10
95.683900
 20
172.466050
 30
0.0
 10
111.465740
 20
172.466050
 30
0.0
 10
111.465740
 20
156.658610
 30
0.0
 10
95.683120
 20
156.658610
 30
0.0
  0
LWPOLYLINE
  5
122
100
AcDbEntity
  8
Layer_1
 62
5
100
AcDbPolyline
 90
4
 70
1
 10
127.651550
 20
172.466050
 30
0.0
 10
143.433390
 20
172.466050
 30
0.0
 10
143.433390
 20
156.658670
 30
0.0
 10
127.650770
 20
156.658670
 30
0.0
  0
LWPOLYLINE
  5
123
100
AcDbEntity
  8
Layer_1
 62
5
100
AcDbPolyline
 90
4
 70
1
 10
159.619200
 20
172.466050
 30
0.0
 10
175.401040
 20
172.466050
 30
0.0
 10
175.401040
 20
156.658610
 30
0.0
 10
159.618420
 20
156.658610
 30
0.0
  0
LWPOLYLINE
  5
124
100
AcDbEntity
  8
Layer_1
 62
5
100
AcDbPolyline
 90
4
 70
1
 10
191.586860
 20
172.466050
 30
0.0
 10
207.368700
 20
172.466050
 30
0.0
 10
207.368700
 20
156.658670
 30
0.0
 10
191.586080
 20
156.658670
 30
0.0
  0
LWPOLYLINE
  5
125
100
AcDbEntity
  8
Layer_1
 62
5
100
AcDbPolyline
 90
4
 70
1
 10
223.554510
 20
172.466050
 30
0.0
 10
239.336350
 20
172.466050
 30
0.0
 10
239.336350
 20
156.658610
 30
0.0
 10
223.553730
 20
156.658610
 30
0.0
  0
LWPOLYLINE
  5
126
100
AcDbEntity
  8
Layer_1
 62
5
100
AcDbPolyline
 90
4
 70
1
 10
255.522160
 20
172.466050
 30
0.0
 10
271.304000
 20
172.466050
 30
0.0
 10
271.304000
 20
156.658670
 30
0.0
 10
255.521380
 20
156.658670
 30
0.0
  0
LWPOLYLINE
  5
127
100
AcDbEntity
  8
Layer_1
 62
5
100
AcDbPolyline
 90
4
 70
1
 10
287.489810
 20
172.466050
 30
0.0
 10
303.271650
 20
172.466050
 30
0.0
 10
303.271650
 20
156.658620
 30
0.0
 10
287.489030
 20
156.658620
 30
0.0
  0
LWPOLYLINE
  5
128
100
AcDbEntity
  8
Layer_1
 62
5
100
AcDbPolyline
 90
4
 70
1
 10
319.457460
 20
172.466050
 30
0.0
 10
335.239299
 20
172.466050
 30
0.0
 10
335.239299
 20
156.658670
 30
0.0
 10
319.456680
 20
156.658670
 30
0.0
  0
LWPOLYLINE
  5
129
100
AcDbEntity
  8
Layer_1
 62
5
100
AcDbPolyline
 90
4
 70
1
 10
351.425117
 20
172.466050
 30
0.0
 10
367.206949
 20
172.466050
 30
0.0
 10
367.206949
 20
156.658610
 30
0.0
 10
351.424337
 20
156.658610
 30
0.0
  0
LWPOLYLINE
  5
12a
100
AcDbEntity
  8
Layer_1
 62
5
100
AcDbPolyline
 90
4
 70
1
 10
383.392768
 20
172.466050
 30
0.0
 10
399.174600
 20
172.466050
 30
0.0
 10
399.174600
 20
156.658670
 30
0.0
 10
383.391988
 20
156.658670
 30
0.0
  0
LWPOLYLINE
  5
12b
100
AcDbEntity
  8
Layer_1
 62
5
100
AcDbPolyline
 90
4
 70
1
 10
415.360420
 20
172.466050
 30
0.0
 10
431.142251
 20
172.466050
 30
0.0
 10
431.142251
 20
156.658610
 30
0.0
 10
415.359640
 20
156.658610
 30
0.0
  0
LWPOLYLINE
  5
12c
100
AcDbEntity
  8
Layer_1
 62
5
100
AcDbPolyline
 90
4
 70
1
 10
447.328071
 20
172.466050
 30
0.0
 10
463.109903
 20
172.466050
 30
0.0
 10
463.109903
 20
156.658670
 30
0.0
 10
447.327291
 20
156.658670
 30
0.0
  0
LWPOLYLINE
  5
12d
100
AcDbEntity
  8
Layer_1
 62
5
100
AcDbPolyline
 90
4
 70
1
 10
479.295722
 20
172.466050
 30
0.0
 10
495.077554
 20
172.466050
 30
0.0
 10
495.077554
 20
156.658610
 30
0.0
 10
479.294942
 20
156.658610
 30
0.0
  0
LWPOLYLINE
  5
12e
100
AcDbEntity
  8
Layer_1
 62
5
100
AcDbPolyline
 90
4
 70
1
 10
511.263374
 20
172.466050
 30
0.0
 10
527.045206
 20
172.466050
 30
0.0
 10
527.045206
 20
156.658670
 30
0.0
 10
511.262594
 20
156.658670
 30
0.0
  0
LWPOLYLINE
  5
12f
100
AcDbEntity
  8
Layer_1
 62
5
100
AcDbPolyline
 90
4
 70
1
 10
543.231020
 20
172.466050
 30
0.0
 10
559.012860
 20
172.466050
 30
0.0
 10
559.012860
 20
156.658620
 30
0.0
 10
543.230240
 20
156.658620
 30
0.0
  0
LWPOLYLINE
  5
130
100
AcDbEntity
  8
Layer_1
 62
5
100
AcDbPolyline
 90
4
 70
1
 10
575.198670
 20
172.466050
 30
0.0
 10
590.980510
 20
172.466050
 30
0.0
 10
590.980510
 20
156.658670
 30
0.0
 10
575.197890
 20
156.658670
 30
0.0
  0
LWPOLYLINE
  5
131
100
AcDbEntity
  8
Layer_1
 62
5
100
AcDbPolyline
 90
4
 70
1
 10
607.166320
 20
172.466050
 30
0.0
 10
622.948160
 20
172.466050
 30
0.0
 10
622.948160
 20
156.658610
 30
0.0
 10
607.165540
 20
156.658610
 30
0.0
  0
LWPOLYLINE
  5
132
100
AcDbEntity
  8
Layer_1
 62
5
100
AcDbPolyline
 90
4
 70
1
 10
639.133970
 20
172.466050
 30
0.0
 10
654.915810
 20
172.466050
 30
0.0
 10
654.915810
 20
156.658670
 30
0.0
 10
639.133190
 20
156.658670
 30
0.0
  0
LWPOLYLINE
  5
133
100
AcDbEntity
  8
Layer_1
 62
5
100
AcDbPolyline
 90
4
 70
1
 10
671.101630
 20
172.466050
 30
0.0
 10
686.883470
 20
172.466050
 30
0.0
 10
686.883470
 20
156.658610
 30
0.0
 10
671.100850
 20
156.658610
 30
0.0
  0
LWPOLYLINE
  5
134
100
AcDbEntity
  8
Layer_1
 62
5
100
AcDbPolyline
 90
4
 70
1
 10
703.069280
 20
172.466050
 30
0.0
 10
718.851120
 20
172.466050
 30
0.0
 10
718.851120
 20
156.658670
 30
0.0
 10
703.068500
 20
156.658670
 30
0.0
  0
LWPOLYLINE
  5
135
100
AcDbEntity
  8
Layer_1
 62
5
100
AcDbPolyline
 90
4
 70
1
 10
735.036930
 20
172.466050
 30
0.0
 10
750.818770
 20
172.466050
 30
0.0
 10
750.818770
 20
156.658610
 30
0.0
 10
735.036150
 20
156.658610
 30
0.0
  0
LWPOLYLINE
  5
136
100
AcDbEntity
  8
Layer_1
 62
5
100
AcDbPolyline
 90
4
 70
1
 10
767.004580
 20
172.466050
 30
0.0
 10
782.786420
 20
172.466050
 30
0.0
 10
782.786420
 20
156.658670
 30
0.0
 10
767.003800
 20
156.658670
 30
0.0
  0
LWPOLYLINE
  5
137
100
AcDbEntity
  8
Layer_1
 62
5
100
AcDbPolyline
 90
4
 70
1
 10
798.972230
 20
172.466050
 30
0.0
 10
814.754070
 20
172.466050
 30
0.0
 10
814.754070
 20
156.658620
 30
0.0
 10
798.971450
 20
156.658620
 30
0.0
  0
LWPOLYLINE
  5
138
100
AcDbEntity
  8
Layer_1
 62
5
100
AcDbPolyline
 90
4
 70
1
 10
830.939880
 20
172.466050
 30
0.0
 10
846.721730
 20
172.466050
 30
0.0
 10
846.721730
 20
156.658670
 30
0.0
 10
830.939100
 20
156.658670
 30
0.0
  0
LWPOLYLINE
  5
139
100
AcDbEntity
  8
Layer_1
 62
5
100
AcDbPolyline
 90
4
 70
1
 10
862.907530
 20
172.466050
 30
0.0
 10
878.689370
 20
172.466050
 30
0.0
 10
878.689370
 20
156.658610
 30
0.0
 10
862.906750
 20
156.658610
 30
0.0
  0
LWPOLYLINE
  5
13a
100
AcDbEntity
  8
Layer_1
 62
5
100
AcDbPolyline
 90
4
 70
1
 10
894.875180
 20
172.466050
 30
0.0
 10
910.657020
 20
172.466050
 30
0.0
 10
910.657020
 20
156.658670
 30
0.0
 10
894.874400
 20
156.658670
 30
0.0
  0
LWPOLYLINE
  5
13b
100
AcDbEntity
  8
Layer_1
 62
5
100
AcDbPolyline
 90
4
 70
1
 10
926.842840
 20
172.466050
 30
0.0
 10
942.624680
 20
172.466050
 30
0.0
 10
942.624680
 20
156.658610
 30
0.0
 10
926.842060
 20
156.658610
 30
0.0
  0
LWPOLYLINE
  5
13c
100
AcDbEntity
  8
Layer_1
 62
5
100
AcDbPolyline
 90
4
 70
1
 10
958.810490
 20
172.466050
 30
0.0
 10
974.592330
 20
172.466050
 30
0.0
 10
974.592330
 20
156.658670
 30
0.0
 10
958.809710
 20
156.658670
 30
0.0
  0
LWPOLYLINE
  5
13d
100
AcDbEntity
  8
Layer_1
 62
5
100
AcDbPolyline
 90
4
 70
1
 10
990.778140
 20
172.466050
 30
0.0
 10
1006.559980
 20
172.466050
 30
0.0
 10
1006.559980
 20
156.658610
 30
0.0
 10
990.777360
 20
156.658610
 30
0.0
  0
LWPOLYLINE
  5
13e
100
AcDbEntity
  8
Layer_1
 62
5
100
AcDbPolyline
 90
4
 70
1
 10
1022.745790
 20
172.466050
 30
0.0
 10
1038.527630
 20
172.466050
 30
0.0
 10
1038.527630
 20
156.658670
 30
0.0
 10
1022.745010
 20
156.658670
 30
0.0
  0
LWPOLYLINE
  5
13f
100
AcDbEntity
  8
Layer_1
 62
5
100
AcDbPolyline
 90
4
 70
1
 10
63.716250
 20
140.451610
 30
0.0
 10
79.498090
 20
140.451610
 30
0.0
 10
79.498090
 20
124.644240
 30
0.0
 10
63.715470
 20
124.644240
 30
0.0
  0
LWPOLYLINE
  5
140
100
AcDbEntity
  8
Layer_1
 62
5
100
AcDbPolyline
 90
4
 70
1
 10
95.683900
 20
140.451610
 30
0.0
 10
111.465740
 20
140.451610
 30
0.0
 10
111.465740
 20
124.644180
 30
0.0
 10
95.683120
 20
124.644180
 30
0.0
  0
LWPOLYLINE
  5
141
100
AcDbEntity
  8
Layer_1
 62
5
100
AcDbPolyline
 90
4
 70
1
 10
127.651550
 20
140.451610
 30
0.0
 10
143.433390
 20
140.451610
 30
0.0
 10
143.433390
 20
124.644240
 30
0.0
 10
127.650770
 20
124.644240
 30
0.0
  0
LWPOLYLINE
  5
142
100
AcDbEntity
  8
Layer_1
 62
5
100
AcDbPolyline
 90
4
 70
1
 10
159.619200
 20
140.451610
 30
0.0
 10
175.401040
 20
140.451610
 30
0.0
 10
175.401040
 20
124.644180
 30
0.0
 10
159.618420
 20
124.644180
 30
0.0
  0
LWPOLYLINE
  5
143
100
AcDbEntity
  8
Layer_1
 62
5
100
AcDbPolyline
 90
4
 70
1
 10
191.586860
 20
140.451610
 30
0.0
 10
207.368700
 20
140.451610
 30
0.0
 10
207.368700
 20
124.644240
 30
0.0
 10
191.586080
 20
124.644240
 30
0.0
  0
LWPOLYLINE
  5
144
100
AcDbEntity
  8
Layer_1
 62
5
100
AcDbPolyline
 90
4
 70
1
 10
223.554510
 20
140.451610
 30
0.0
 10
239.336350
 20
140.451610
 30
0.0
 10
239.336350
 20
124.644180
 30
0.0
 10
223.553730
 20
124.644180
 30
0.0
  0
LWPOLYLINE
  5
145
100
AcDbEntity
  8
Layer_1
 62
5
100
AcDbPolyline
 90
4
 70
1
 10
255.522160
 20
140.451610
 30
0.0
 10
271.304000
 20
140.451610
 30
0.0
 10
271.304000
 20
124.644240
 30
0.0
 10
255.521380
 20
124.644240
 30
0.0
  0
LWPOLYLINE
  5
146
100
AcDbEntity
  8
Layer_1
 62
5
100
AcDbPolyline
 90
4
 70
1
 10
287.489810
 20
140.451610
 30
0.0
 10
303.271650
 20
140.451610
 30
0.0
 10
303.271650
 20
124.644190
 30
0.0
 10
287.489030
 20
124.644190
 30
0.0
  0
LWPOLYLINE
  5
147
100
AcDbEntity
  8
Layer_1
 62
5
100
AcDbPolyline
 90
4
 70
1
 10
319.457460
 20
140.451610
 30
0.0
 10
335.239300
 20
140.451610
 30
0.0
 10
335.239300
 20
124.644240
 30
0.0
 10
319.456680
 20
124.644240
 30
0.0
  0
LWPOLYLINE
  5
148
100
AcDbEntity
  8
Layer_1
 62
5
100
AcDbPolyline
 90
4
 70
1
 10
351.425118
 20
140.451610
 30
0.0
 10
367.206950
 20
140.451610
 30
0.0
 10
367.206950
 20
124.644180
 30
0.0
 10
351.424338
 20
124.644180
 30
0.0
  0
LWPOLYLINE
  5
149
100
AcDbEntity
  8
Layer_1
 62
5
100
AcDbPolyline
 90
4
 70
1
 10
383.392769
 20
140.451610
 30
0.0
 10
399.174601
 20
140.451610
 30
0.0
 10
399.174601
 20
124.644240
 30
0.0
 10
383.391989
 20
124.644240
 30
0.0
  0
LWPOLYLINE
  5
14a
100
AcDbEntity
  8
Layer_1
 62
5
100
AcDbPolyline
 90
4
 70
1
 10
415.360421
 20
140.451610
 30
0.0
 10
431.142252
 20
140.451610
 30
0.0
 10
431.142252
 20
124.644180
 30
0.0
 10
415.359641
 20
124.644180
 30
0.0
  0
LWPOLYLINE
  5
14b
100
AcDbEntity
  8
Layer_1
 62
5
100
AcDbPolyline
 90
4
 70
1
 10
447.328072
 20
140.451610
 30
0.0
 10
463.109904
 20
140.451610
 30
0.0
 10
463.109904
 20
124.644240
 30
0.0
 10
447.327292
 20
124.644240
 30
0.0
  0
LWPOLYLINE
  5
14c
100
AcDbEntity
  8
Layer_1
 62
5
100
AcDbPolyline
 90
4
 70
1
 10
479.295723
 20
140.451610
 30
0.0
 10
495.077555
 20
140.451610
 30
0.0
 10
495.077555
 20
124.644180
 30
0.0
 10
479.294943
 20
124.644180
 30
0.0
  0
LWPOLYLINE
  5
14d
100
AcDbEntity
  8
Layer_1
 62
5
100
AcDbPolyline
 90
4
 70
1
 10
511.263375
 20
140.451610
 30
0.0
 10
527.045207
 20
140.451610
 30
0.0
 10
527.045207
 20
124.644240
 30
0.0
 10
511.262595
 20
124.644240
 30
0.0
  0
LWPOLYLINE
  5
14e
100
AcDbEntity
  8
Layer_1
 62
5
100
AcDbPolyline
 90
4
 70
1
 10
543.231020
 20
140.451610
 30
0.0
 10
559.012860
 20
140.451610
 30
0.0
 10
559.012860
 20
124.644190
 30
0.0
 10
543.230240
 20
124.644190
 30
0.0
  0
LWPOLYLINE
  5
14f
100
AcDbEntity
  8
Layer_1
 62
5
100
AcDbPolyline
 90
4
 70
1
 10
575.198670
 20
140.451610
 30
0.0
 10
590.980510
 20
140.451610
 30
0.0
 10
590.980510
 20
124.644240
 30
0.0
 10
575.197890
 20
124.644240
 30
0.0
  0
LWPOLYLINE
  5
150
100
AcDbEntity
  8
Layer_1
 62
5
100
AcDbPolyline
 90
4
 70
1
 10
607.166320
 20
140.451610
 30
0.0
 10
622.948160
 20
140.451610
 30
0.0
 10
622.948160
 20
124.644180
 30
0.0
 10
607.165540
 20
124.644180
 30
0.0
  0
LWPOLYLINE
  5
151
100
AcDbEntity
  8
Layer_1
 62
5
100
AcDbPolyline
 90
4
 70
1
 10
639.133970
 20
140.451610
 30
0.0
 10
654.915810
 20
140.451610
 30
0.0
 10
654.915810
 20
124.644240
 30
0.0
 10
639.133190
 20
124.644240
 30
0.0
  0
LWPOLYLINE
  5
152
100
AcDbEntity
  8
Layer_1
 62
5
100
AcDbPolyline
 90
4
 70
1
 10
671.101630
 20
140.451610
 30
0.0
 10
686.883470
 20
140.451610
 30
0.0
 10
686.883470
 20
124.644180
 30
0.0
 10
671.100850
 20
124.644180
 30
0.0
  0
LWPOLYLINE
  5
153
100
AcDbEntity
  8
Layer_1
 62
5
100
AcDbPolyline
 90
4
 70
1
 10
703.069280
 20
140.451610
 30
0.0
 10
718.851120
 20
140.451610
 30
0.0
 10
718.851120
 20
124.644240
 30
0.0
 10
703.068500
 20
124.644240
 30
0.0
  0
LWPOLYLINE
  5
154
100
AcDbEntity
  8
Layer_1
 62
5
100
AcDbPolyline
 90
4
 70
1
 10
735.036930
 20
140.451610
 30
0.0
 10
750.818770
 20
140.451610
 30
0.0
 10
750.818770
 20
124.644180
 30
0.0
 10
735.036150
 20
124.644180
 30
0.0
  0
LWPOLYLINE
  5
155
100
AcDbEntity
  8
Layer_1
 62
5
100
AcDbPolyline
 90
4
 70
1
 10
767.004580
 20
140.451610
 30
0.0
 10
782.786420
 20
140.451610
 30
0.0
 10
782.786420
 20
124.644240
 30
0.0
 10
767.003800
 20
124.644240
 30
0.0
  0
LWPOLYLINE
  5
156
100
AcDbEntity
  8
Layer_1
 62
5
100
AcDbPolyline
 90
4
 70
1
 10
798.972230
 20
140.451610
 30
0.0
 10
814.754070
 20
140.451610
 30
0.0
 10
814.754070
 20
124.644190
 30
0.0
 10
798.971450
 20
124.644190
 30
0.0
  0
LWPOLYLINE
  5
157
100
AcDbEntity
  8
Layer_1
 62
5
100
AcDbPolyline
 90
4
 70
1
 10
830.939880
 20
140.451610
 30
0.0
 10
846.721730
 20
140.451610
 30
0.0
 10
846.721730
 20
124.644240
 30
0.0
 10
830.939100
 20
124.644240
 30
0.0
  0
LWPOLYLINE
  5
158
100
AcDbEntity
  8
Layer_1
 62
5
100
AcDbPolyline
 90
4
 70
1
 10
862.907530
 20
140.451610
 30
0.0
 10
878.689370
 20
140.451610
 30
0.0
 10
878.689370
 20
124.644180
 30
0.0
 10
862.906750
 20
124.644180
 30
0.0
  0
LWPOLYLINE
  5
159
100
AcDbEntity
  8
Layer_1
 62
5
100
AcDbPolyline
 90
4
 70
1
 10
894.875180
 20
140.451610
 30
0.0
 10
910.657020
 20
140.451610
 30
0.0
 10
910.657020
 20
124.644240
 30
0.0
 10
894.874400
 20
124.644240
 30
0.0
  0
LWPOLYLINE
  5
15a
100
AcDbEntity
  8
Layer_1
 62
5
100
AcDbPolyline
 90
4
 70
1
 10
926.842840
 20
140.451610
 30
0.0
 10
942.624680
 20
140.451610
 30
0.0
 10
942.624680
 20
124.644180
 30
0.0
 10
926.842060
 20
124.644180
 30
0.0
  0
LWPOLYLINE
  5
15b
100
AcDbEntity
  8
Layer_1
 62
5
100
AcDbPolyline
 90
4
 70
1
 10
958.810490
 20
140.451610
 30
0.0
 10
974.592330
 20
140.451610
 30
0.0
 10
974.592330
 20
124.644240
 30
0.0
 10
958.809710
 20
124.644240
 30
0.0
  0
LWPOLYLINE
  5
15c
100
AcDbEntity
  8
Layer_1
 62
5
100
AcDbPolyline
 90
4
 70
1
 10
990.778140
 20
140.451610
 30
0.0
 10
1006.559980
 20
140.451610
 30
0.0
 10
1006.559980
 20
124.644180
 30
0.0
 10
990.777360
 20
124.644180
 30
0.0
  0
LWPOLYLINE
  5
15d
100
AcDbEntity
  8
Layer_1
 62
5
100
AcDbPolyline
 90
4
 70
1
 10
1022.745790
 20
140.451610
 30
0.0
 10
1038.527630
 20
140.451610
 30
0.0
 10
1038.527630
 20
124.644240
 30
0.0
 10
1022.745010
 20
124.644240
 30
0.0
  0
LWPOLYLINE
  5
15e
100
AcDbEntity
  8
Layer_1
 62
5
100
AcDbPolyline
 90
4
 70
1
 10
63.716250
 20
108.276690
 30
0.0
 10
79.498090
 20
108.276690
 30
0.0
 10
79.498090
 20
92.469320
 30
0.0
 10
63.715470
 20
92.469320
 30
0.0
  0
LWPOLYLINE
  5
15f
100
AcDbEntity
  8
Layer_1
 62
5
100
AcDbPolyline
 90
4
 70
1
 10
95.683900
 20
108.276690
 30
0.0
 10
111.465740
 20
108.276690
 30
0.0
 10
111.465740
 20
92.469260
 30
0.0
 10
95.683120
 20
92.469260
 30
0.0
  0
LWPOLYLINE
  5
160
100
AcDbEntity
  8
Layer_1
 62
5
100
AcDbPolyline
 90
4
 70
1
 10
127.651550
 20
108.276690
 30
0.0
 10
143.433390
 20
108.276690
 30
0.0
 10
143.433390
 20
92.469320
 30
0.0
 10
127.650770
 20
92.469320
 30
0.0
  0
LWPOLYLINE
  5
161
100
AcDbEntity
  8
Layer_1
 62
5
100
AcDbPolyline
 90
4
 70
1
 10
159.619200
 20
108.276690
 30
0.0
 10
175.401040
 20
108.276690
 30
0.0
 10
175.401040
 20
92.469260
 30
0.0
 10
159.618420
 20
92.469260
 30
0.0
  0
LWPOLYLINE
  5
162
100
AcDbEntity
  8
Layer_1
 62
5
100
AcDbPolyline
 90
4
 70
1
 10
191.586860
 20
108.276690
 30
0.0
 10
207.368700
 20
108.276690
 30
0.0
 10
207.368700
 20
92.469320
 30
0.0
 10
191.586080
 20
92.469320
 30
0.0
  0
LWPOLYLINE
  5
163
100
AcDbEntity
  8
Layer_1
 62
5
100
AcDbPolyline
 90
4
 70
1
 10
223.554510
 20
108.276690
 30
0.0
 10
239.336350
 20
108.276690
 30
0.0
 10
239.336350
 20
92.469260
 30
0.0
 10
223.553730
 20
92.469260
 30
0.0
  0
LWPOLYLINE
  5
164
100
AcDbEntity
  8
Layer_1
 62
5
100
AcDbPolyline
 90
4
 70
1
 10
255.522160
 20
108.276690
 30
0.0
 10
271.304000
 20
108.276690
 30
0.0
 10
271.304000
 20
92.469320
 30
0.0
 10
255.521380
 20
92.469320
 30
0.0
  0
LWPOLYLINE
  5
165
100
AcDbEntity
  8
Layer_1
 62
5
100
AcDbPolyline
 90
4
 70
1
 10
287.489810
 20
108.276690
 30
0.0
 10
303.271650
 20
108.276690
 30
0.0
 10
303.271650
 20
92.469270
 30
0.0
 10
287.489030
 20
92.469270
 30
0.0
  0
LWPOLYLINE
  5
166
100
AcDbEntity
  8
Layer_1
 62
5
100
AcDbPolyline
 90
4
 70
1
 10
319.457460
 20
108.276690
 30
0.0
 10
335.239301
 20
108.276690
 30
0.0
 10
335.239301
 20
92.469320
 30
0.0
 10
319.456680
 20
92.469320
 30
0.0
  0
LWPOLYLINE
  5
167
100
AcDbEntity
  8
Layer_1
 62
5
100
AcDbPolyline
 90
4
 70
1
 10
351.425119
 20
108.276690
 30
0.0
 10
367.206951
 20
108.276690
 30
0.0
 10
367.206951
 20
92.469260
 30
0.0
 10
351.424339
 20
92.469260
 30
0.0
  0
LWPOLYLINE
  5
168
100
AcDbEntity
  8
Layer_1
 62
5
100
AcDbPolyline
 90
4
 70
1
 10
383.392770
 20
108.276690
 30
0.0
 10
399.174602
 20
108.276690
 30
0.0
 10
399.174602
 20
92.469320
 30
0.0
 10
383.391990
 20
92.469320
 30
0.0
  0
LWPOLYLINE
  5
169
100
AcDbEntity
  8
Layer_1
 62
5
100
AcDbPolyline
 90
4
 70
1
 10
415.360422
 20
108.276690
 30
0.0
 10
431.142252
 20
108.276690
 30
0.0
 10
431.142252
 20
92.469260
 30
0.0
 10
415.359642
 20
92.469260
 30
0.0
  0
LWPOLYLINE
  5
16a
100
AcDbEntity
  8
Layer_1
 62
5
100
AcDbPolyline
 90
4
 70
1
 10
447.328073
 20
108.276690
 30
0.0
 10
463.109905
 20
108.276690
 30
0.0
 10
463.109905
 20
92.469320
 30
0.0
 10
447.327293
 20
92.469320
 30
0.0
  0
LWPOLYLINE
  5
16b
100
AcDbEntity
  8
Layer_1
 62
5
100
AcDbPolyline
 90
4
 70
1
 10
479.295724
 20
108.276690
 30
0.0
 10
495.077556
 20
108.276690
 30
0.0
 10
495.077556
 20
92.469260
 30
0.0
 10
479.294944
 20
92.469260
 30
0.0
  0
LWPOLYLINE
  5
16c
100
AcDbEntity
  8
Layer_1
 62
5
100
AcDbPolyline
 90
4
 70
1
 10
511.263376
 20
108.276690
 30
0.0
 10
527.045208
 20
108.276690
 30
0.0
 10
527.045208
 20
92.469320
 30
0.0
 10
511.262596
 20
92.469320
 30
0.0
  0
LWPOLYLINE
  5
16d
100
AcDbEntity
  8
Layer_1
 62
5
100
AcDbPolyline
 90
4
 70
1
 10
543.231020
 20
108.276690
 30
0.0
 10
559.012860
 20
108.276690
 30
0.0
 10
559.012860
 20
92.469270
 30
0.0
 10
543.230240
 20
92.469270
 30
0.0
  0
LWPOLYLINE
  5
16e
100
AcDbEntity
  8
Layer_1
 62
5
100
AcDbPolyline
 90
4
 70
1
 10
575.198670
 20
108.276690
 30
0.0
 10
590.980510
 20
108.276690
 30
0.0
 10
590.980510
 20
92.469320
 30
0.0
 10
575.197890
 20
92.469320
 30
0.0
  0
LWPOLYLINE
  5
16f
100
AcDbEntity
  8
Layer_1
 62
5
100
AcDbPolyline
 90
4
 70
1
 10
607.166320
 20
108.276690
 30
0.0
 10
622.948160
 20
108.276690
 30
0.0
 10
622.948160
 20
92.469260
 30
0.0
 10
607.165540
 20
92.469260
 30
0.0
  0
LWPOLYLINE
  5
170
100
AcDbEntity
  8
Layer_1
 62
5
100
AcDbPolyline
 90
4
 70
1
 10
639.133970
 20
108.276690
 30
0.0
 10
654.915810
 20
108.276690
 30
0.0
 10
654.915810
 20
92.469320
 30
0.0
 10
639.133190
 20
92.469320
 30
0.0
  0
LWPOLYLINE
  5
171
100
AcDbEntity
  8
Layer_1
 62
5
100
AcDbPolyline
 90
4
 70
1
 10
671.101630
 20
108.276690
 30
0.0
 10
686.883470
 20
108.276690
 30
0.0
 10
686.883470
 20
92.469260
 30
0.0
 10
671.100850
 20
92.469260
 30
0.0
  0
LWPOLYLINE
  5
172
100
AcDbEntity
  8
Layer_1
 62
5
100
AcDbPolyline
 90
4
 70
1
 10
703.069280
 20
108.276690
 30
0.0
 10
718.851120
 20
108.276690
 30
0.0
 10
718.851120
 20
92.469320
 30
0.0
 10
703.068500
 20
92.469320
 30
0.0
  0
LWPOLYLINE
  5
173
100
AcDbEntity
  8
Layer_1
 62
5
100
AcDbPolyline
 90
4
 70
1
 10
735.036930
 20
108.276690
 30
0.0
 10
750.818770
 20
108.276690
 30
0.0
 10
750.818770
 20
92.469260
 30
0.0
 10
735.036150
 20
92.469260
 30
0.0
  0
LWPOLYLINE
  5
174
100
AcDbEntity
  8
Layer_1
 62
5
100
AcDbPolyline
 90
4
 70
1
 10
767.004580
 20
108.276690
 30
0.0
 10
782.786420
 20
108.276690
 30
0.0
 10
782.786420
 20
92.469320
 30
0.0
 10
767.003800
 20
92.469320
 30
0.0
  0
LWPOLYLINE
  5
175
100
AcDbEntity
  8
Layer_1
 62
5
100
AcDbPolyline
 90
4
 70
1
 10
798.972230
 20
108.276690
 30
0.0
 10
814.754070
 20
108.276690
 30
0.0
 10
814.754070
 20
92.469270
 30
0.0
 10
798.971450
 20
92.469270
 30
0.0
  0
LWPOLYLINE
  5
176
100
AcDbEntity
  8
Layer_1
 62
5
100
AcDbPolyline
 90
4
 70
1
 10
830.939880
 20
108.276690
 30
0.0
 10
846.721730
 20
108.276690
 30
0.0
 10
846.721730
 20
92.469320
 30
0.0
 10
830.939100
 20
92.469320
 30
0.0
  0
LWPOLYLINE
  5
177
100
AcDbEntity
  8
Layer_1
 62
5
100
AcDbPolyline
 90
4
 70
1
 10
862.907530
 20
108.276690
 30
0.0
 10
878.689370
 20
108.276690
 30
0.0
 10
878.689370
 20
92.469260
 30
0.0
 10
862.906750
 20
92.469260
 30
0.0
  0
LWPOLYLINE
  5
178
100
AcDbEntity
  8
Layer_1
 62
5
100
AcDbPolyline
 90
4
 70
1
 10
894.875180
 20
108.276690
 30
0.0
 10
910.657020
 20
108.276690
 30
0.0
 10
910.657020
 20
92.469320
 30
0.0
 10
894.874400
 20
92.469320
 30
0.0
  0
LWPOLYLINE
  5
179
100
AcDbEntity
  8
Layer_1
 62
5
100
AcDbPolyline
 90
4
 70
1
 10
926.842840
 20
108.276690
 30
0.0
 10
942.624680
 20
108.276690
 30
0.0
 10
942.624680
 20
92.469260
 30
0.0
 10
926.842060
 20
92.469260
 30
0.0
  0
LWPOLYLINE
  5
17a
100
AcDbEntity
  8
Layer_1
 62
5
100
AcDbPolyline
 90
4
 70
1
 10
958.810490
 20
108.276690
 30
0.0
 10
974.592330
 20
108.276690
 30
0.0
 10
974.592330
 20
92.469320
 30
0.0
 10
958.809710
 20
92.469320
 30
0.0
  0
LWPOLYLINE
  5
17b
100
AcDbEntity
  8
Layer_1
 62
5
100
AcDbPolyline
 90
4
 70
1
 10
990.778140
 20
108.276690
 30
0.0
 10
1006.559980
 20
108.276690
 30
0.0
 10
1006.559980
 20
92.469260
 30
0.0
 10
990.777360
 20
92.469260
 30
0.0
  0
LWPOLYLINE
  5
17c
100
AcDbEntity
  8
Layer_1
 62
5
100
AcDbPolyline
 90
4
 70
1
 10
1022.745790
 20
108.276690
 30
0.0
 10
1038.527630
 20
108.276690
 30
0.0
 10
1038.527630
 20
92.469320
 30
0.0
 10
1022.745010
 20
92.469320
 30
0.0
  0
ENDSEC
  0
SECTION
  2
OBJECTS
  0
DICTIONARY
  5
C
330
0
100
AcDbDictionary
  3
ACAD_GROUP
350
D
  3
ACAD_MLINESTYLE
350
17
  0
DICTIONARY
  5
D
330
C
100
AcDbDictionary
  0
DICTIONARY
  5
1A
330
C
100
AcDbDictionary
  0
DICTIONARY
  5
17
330
C
100
AcDbDictionary
  3
STANDARD
350
18
  0
DICTIONARY
  5
19
330
C
100
AcDbDictionary
  0
ENDSEC
  0
EOF
