  0
SECTION
  2
HEADER
  9
$ACADVER
  1
AC1014
  9
$HANDSEED
  5
FFFF
  9
$INSUNITS
 70
     4
  9
$MEASUREMENT
 70
     1
  0
ENDSEC
  0
SECTION
  2
TABLES
  0
TABLE
  2
VPORT
  5
8
330
0
100
AcDbSymbolTable
 70
     4
  0
VPORT
  5
2E
330
8
100
AcDbSymbolTableRecord
100
AcDbViewportTableRecord
  2
*ACTIVE
 70
     0
 10
0.0
 20
0.0
 11
1.0
 21
1.0
 12
210.0
 22
148.5
 13
0.0
 23
0.0
 14
10.0
 24
10.0
 15
10.0
 25
10.0
 16
0.0
 26
0.0
 36
1.0
 17
0.0
 27
0.0
 37
0.0
 40
341.0
 41
1.24
 42
50.0
 43
0.0
 44
0.0
 50
0.0
 51
0.0
 71
     0
 72
   100
 73
     1
 74
     3
 75
     0
 76
     0
 77
     0
 78
     0
  0
ENDTAB
  0
TABLE
  2
LTYPE
  5
5
330
0
100
AcDbSymbolTable
 70
     1
  0
LTYPE
  5
14
330
5
100
AcDbSymbolTableRecord
100
AcDbLinetypeTableRecord
  2
BYBLOCK
 70
     0
  3

 72
    65
 73
     0
 40
0.0
  0
LTYPE
  5
15
330
5
100
AcDbSymbolTableRecord
100
AcDbLinetypeTableRecord
  2
BYLAYER
 70
     0
  3

 72
    65
 73
     0
 40
0.0
  0
LTYPE
  5
16
330
5
100
AcDbSymbolTableRecord
100
AcDbLinetypeTableRecord
  2
CONTINUOUS
 70
     0
  3
Solid line
 72
    65
 73
     0
 40
0.0
  0
ENDTAB
  0
TABLE
  2
LAYER
  5
2
100
AcDbSymbolTable
 70
1
  0
LAYER
  5
50
100
AcDbSymbolTableRecord
100
AcDbLayerTableRecord
  2
0
 70
0
  6
CONTINUOUS
  0
ENDTAB
  0
TABLE
  2
STYLE
  5
3
330
0
100
AcDbSymbolTable
 70
     1
  0
STYLE
  5
11
330
3
100
AcDbSymbolTableRecord
100
AcDbTextStyleTableRecord
  2
STANDARD
 70
     0
 40
0.0
 41
1.0
 50
0.0
 71
     0
 42
2.5
  3
txt
  4

  0
ENDTAB
  0
TABLE
  2
VIEW
  5
6
330
0
100
AcDbSymbolTable
 70
     0
  0
ENDTAB
  0
TABLE
  2
UCS
  5
7
330
0
100
AcDbSymbolTable
 70
     0
  0
ENDTAB
  0
TABLE
  2
APPID
  5
9
330
0
100
AcDbSymbolTable
 70
     2
  0
APPID
  5
12
330
9
100
AcDbSymbolTableRecord
100
AcDbRegAppTableRecord
  2
ACAD
 70
     0
  0
ENDTAB
  0
TABLE
  2
DIMSTYLE
  5
A
330
0
100
AcDbSymbolTable
 70
     1
  0
DIMSTYLE
105
27
330
A
100
AcDbSymbolTableRecord
100
AcDbDimStyleTableRecord
  2
ISO-25
 70
     0
  3

  4

  5

  6

  7

 40
1.0
 41
2.5
 42
0.625
 43
3.75
 44
1.25
 45
0.0
 46
0.0
 47
0.0
 48
0.0
140
2.5
141
2.5
142
0.0
143
0.03937007874016
144
1.0
145
0.0
146
1.0
147
0.625
 71
     0
 72
     0
 73
     0
 74
     0
 75
     0
 76
     0
 77
     1
 78
     8
170
     0
171
     3
172
     1
173
     0
174
     0
175
     0
176
     0
177
     0
178
     0
270
     2
271
     2
272
     2
273
     2
274
     3
340
11
275
     0
280
     0
281
     0
282
     0
283
     0
284
     8
285
     0
286
     0
287
     3
288
     0
  0
ENDTAB
  0
TABLE
  2
BLOCK_RECORD
  5
1
330
0
100
AcDbSymbolTable
 70
     1
  0
BLOCK_RECORD
  5
1F
330
1
100
AcDbSymbolTableRecord
100
AcDbBlockTableRecord
  2
*MODEL_SPACE
  0
BLOCK_RECORD
  5
1B
330
1
100
AcDbSymbolTableRecord
100
AcDbBlockTableRecord
  2
*PAPER_SPACE
  0
ENDTAB
  0
ENDSEC
  0
SECTION
  2
BLOCKS
  0
BLOCK
  5
20
330
1F
100
AcDbEntity
  8
0
100
AcDbBlockBegin
  2
*MODEL_SPACE
 70
     0
 10
0.0
 20
0.0
 30
0.0
  3
*MODEL_SPACE
  1

  0
ENDBLK
  5
21
330
1F
100
AcDbEntity
  8
0
100
AcDbBlockEnd
  0
BLOCK
  5
1C
330
1B
100
AcDbEntity
 67
     1
  8
0
100
AcDbBlockBegin
  2
*PAPER_SPACE
  1

  0
ENDBLK
  5
1D
330
1B
100
AcDbEntity
 67
     1
  8
0
100
AcDbBlockEnd
  0
ENDSEC
  0
SECTION
  2
ENTITIES
  0
LWPOLYLINE
  5
100
100
AcDbEntity
  8
0
 62
7
100
AcDbPolyline
 90
6
 70
1
 10
188.678377
 20
105.055942
 30
0.0
 10
188.678377
 20
91.000000
 30
0.0
 10
169.499869
 20
91.000000
 30
0.0
 10
169.499869
 20
126.557078
 30
0.0
 10
179.647101
 20
120.698571
 30
0.0
 10
188.678377
 20
105.055942
 30
0.0
  0
LWPOLYLINE
  5
101
100
AcDbEntity
  8
0
 62
7
100
AcDbPolyline
 90
4
 70
1
 10
178.843253
 20
128.090876
 30
0.0
 10
170.808319
 20
132.729847
 30
0.0
 10
178.843253
 20
137.368819
 30
0.0
 10
178.843253
 20
128.090876
 30
0.0
  0
LWPOLYLINE
  5
102
100
AcDbEntity
  8
0
 62
7
100
AcDbPolyline
 90
7
 70
1
 10
188.678377
 20
178.466305
 30
0.0
 10
188.678377
 20
160.403753
 30
0.0
 10
179.647101
 20
144.761124
 30
0.0
 10
169.499869
 20
138.902617
 30
0.0
 10
169.499869
 20
199.967441
 30
0.0
 10
179.647101
 20
194.108934
 30
0.0
 10
188.678377
 20
178.466305
 30
0.0
  0
LWPOLYLINE
  5
103
100
AcDbEntity
  8
0
 62
7
100
AcDbPolyline
 90
4
 70
1
 10
178.843253
 20
201.501239
 30
0.0
 10
170.808319
 20
206.140210
 30
0.0
 10
178.843253
 20
210.779182
 30
0.0
 10
178.843253
 20
201.501239
 30
0.0
  0
LWPOLYLINE
  5
104
100
AcDbEntity
  8
0
 62
7
100
AcDbPolyline
 90
4
 70
1
 10
242.418492
 20
91.385695
 30
0.0
 10
234.383558
 20
96.024666
 30
0.0
 10
242.418492
 20
100.663637
 30
0.0
 10
242.418492
 20
91.385695
 30
0.0
  0
LWPOLYLINE
  5
105
100
AcDbEntity
  8
0
 62
7
100
AcDbPolyline
 90
4
 70
1
 10
202.713311
 20
96.024666
 30
0.0
 10
194.678377
 20
91.385695
 30
0.0
 10
194.678377
 20
100.663637
 30
0.0
 10
202.713311
 20
96.024666
 30
0.0
  0
LWPOLYLINE
  5
106
100
AcDbEntity
  8
0
 62
7
100
AcDbPolyline
 90
13
 70
1
 10
243.222340
 20
157.403753
 30
0.0
 10
252.253616
 20
141.761124
 30
0.0
 10
252.253616
 20
123.698571
 30
0.0
 10
243.222340
 20
108.055942
 30
0.0
 10
227.579711
 20
99.024666
 30
0.0
 10
209.517158
 20
99.024666
 30
0.0
 10
193.874529
 20
108.055942
 30
0.0
 10
184.843253
 20
123.698571
 30
0.0
 10
184.843253
 20
141.761124
 30
0.0
 10
193.874529
 20
157.403753
 30
0.0
 10
209.517158
 20
166.435029
 30
0.0
 10
227.579711
 20
166.435029
 30
0.0
 10
243.222340
 20
157.403753
 30
0.0
  0
LWPOLYLINE
  5
107
100
AcDbEntity
  8
0
 62
7
100
AcDbPolyline
 90
4
 70
1
 10
242.418492
 20
164.796058
 30
0.0
 10
234.383558
 20
169.435029
 30
0.0
 10
242.418492
 20
174.074000
 30
0.0
 10
242.418492
 20
164.796058
 30
0.0
  0
LWPOLYLINE
  5
108
100
AcDbEntity
  8
0
 62
7
100
AcDbPolyline
 90
4
 70
1
 10
202.713311
 20
169.435029
 30
0.0
 10
194.678377
 20
164.796058
 30
0.0
 10
194.678377
 20
174.074000
 30
0.0
 10
202.713311
 20
169.435029
 30
0.0
  0
LWPOLYLINE
  5
109
100
AcDbEntity
  8
0
 62
7
100
AcDbPolyline
 90
9
 70
1
 10
252.253616
 20
197.108934
 30
0.0
 10
243.222340
 20
181.466305
 30
0.0
 10
227.579711
 20
172.435029
 30
0.0
 10
209.517158
 20
172.435029
 30
0.0
 10
193.874529
 20
181.466305
 30
0.0
 10
184.843253
 20
197.108934
 30
0.0
 10
184.843253
 20
211.000000
 30
0.0
 10
252.253616
 20
211.000000
 30
0.0
 10
252.253616
 20
197.108934
 30
0.0
  0
LWPOLYLINE
  5
10a
100
AcDbEntity
  8
0
 62
7
100
AcDbPolyline
 90
9
 70
1
 10
315.828855
 20
105.055942
 30
0.0
 10
315.828855
 20
91.000000
 30
0.0
 10
248.418492
 20
91.000000
 30
0.0
 10
248.418492
 20
105.055942
 30
0.0
 10
257.449768
 20
120.698571
 30
0.0
 10
273.092397
 20
129.729847
 30
0.0
 10
291.154950
 20
129.729847
 30
0.0
 10
306.797579
 20
120.698571
 30
0.0
 10
315.828855
 20
105.055942
 30
0.0
  0
LWPOLYLINE
  5
10b
100
AcDbEntity
  8
0
 62
7
100
AcDbPolyline
 90
4
 70
1
 10
305.993731
 20
128.090876
 30
0.0
 10
297.958797
 20
132.729847
 30
0.0
 10
305.993731
 20
137.368819
 30
0.0
 10
305.993731
 20
128.090876
 30
0.0
  0
LWPOLYLINE
  5
10c
100
AcDbEntity
  8
0
 62
7
100
AcDbPolyline
 90
4
 70
1
 10
266.288550
 20
132.729847
 30
0.0
 10
258.253616
 20
128.090876
 30
0.0
 10
258.253616
 20
137.368819
 30
0.0
 10
266.288550
 20
132.729847
 30
0.0
  0
LWPOLYLINE
  5
10d
100
AcDbEntity
  8
0
 62
7
100
AcDbPolyline
 90
13
 70
1
 10
306.797579
 20
194.108934
 30
0.0
 10
315.828855
 20
178.466305
 30
0.0
 10
315.828855
 20
160.403753
 30
0.0
 10
306.797579
 20
144.761124
 30
0.0
 10
291.154950
 20
135.729847
 30
0.0
 10
273.092397
 20
135.729847
 30
0.0
 10
257.449768
 20
144.761124
 30
0.0
 10
248.418492
 20
160.403753
 30
0.0
 10
248.418492
 20
178.466305
 30
0.0
 10
257.449768
 20
194.108934
 30
0.0
 10
273.092397
 20
203.140210
 30
0.0
 10
291.154950
 20
203.140210
 30
0.0
 10
306.797579
 20
194.108934
 30
0.0
  0
LWPOLYLINE
  5
10e
100
AcDbEntity
  8
0
 62
7
100
AcDbPolyline
 90
4
 70
1
 10
305.993731
 20
201.501239
 30
0.0
 10
297.958797
 20
206.140210
 30
0.0
 10
305.993731
 20
210.779182
 30
0.0
 10
305.993731
 20
201.501239
 30
0.0
  0
LWPOLYLINE
  5
10f
100
AcDbEntity
  8
0
 62
7
100
AcDbPolyline
 90
4
 70
1
 10
266.288550
 20
206.140210
 30
0.0
 10
258.253616
 20
201.501239
 30
0.0
 10
258.253616
 20
210.779182
 30
0.0
 10
266.288550
 20
206.140210
 30
0.0
  0
LWPOLYLINE
  5
110
100
AcDbEntity
  8
0
 62
7
100
AcDbPolyline
 90
4
 70
1
 10
369.568970
 20
91.385695
 30
0.0
 10
361.534036
 20
96.024666
 30
0.0
 10
369.568970
 20
100.663637
 30
0.0
 10
369.568970
 20
91.385695
 30
0.0
  0
LWPOLYLINE
  5
111
100
AcDbEntity
  8
0
 62
7
100
AcDbPolyline
 90
4
 70
1
 10
329.863789
 20
96.024666
 30
0.0
 10
321.828855
 20
91.385695
 30
0.0
 10
321.828855
 20
100.663637
 30
0.0
 10
329.863789
 20
96.024666
 30
0.0
  0
LWPOLYLINE
  5
112
100
AcDbEntity
  8
0
 62
7
100
AcDbPolyline
 90
13
 70
1
 10
370.372818
 20
157.403753
 30
0.0
 10
379.404094
 20
141.761124
 30
0.0
 10
379.404094
 20
123.698571
 30
0.0
 10
370.372818
 20
108.055942
 30
0.0
 10
354.730189
 20
99.024666
 30
0.0
 10
336.667637
 20
99.024666
 30
0.0
 10
321.025007
 20
108.055942
 30
0.0
 10
311.993731
 20
123.698571
 30
0.0
 10
311.993731
 20
141.761124
 30
0.0
 10
321.025007
 20
157.403753
 30
0.0
 10
336.667637
 20
166.435029
 30
0.0
 10
354.730189
 20
166.435029
 30
0.0
 10
370.372818
 20
157.403753
 30
0.0
  0
LWPOLYLINE
  5
113
100
AcDbEntity
  8
0
 62
7
100
AcDbPolyline
 90
4
 70
1
 10
369.568970
 20
164.796058
 30
0.0
 10
361.534036
 20
169.435029
 30
0.0
 10
369.568970
 20
174.074000
 30
0.0
 10
369.568970
 20
164.796058
 30
0.0
  0
LWPOLYLINE
  5
114
100
AcDbEntity
  8
0
 62
7
100
AcDbPolyline
 90
4
 70
1
 10
329.863789
 20
169.435029
 30
0.0
 10
321.828855
 20
164.796058
 30
0.0
 10
321.828855
 20
174.074000
 30
0.0
 10
329.863789
 20
169.435029
 30
0.0
  0
LWPOLYLINE
  5
115
100
AcDbEntity
  8
0
 62
7
100
AcDbPolyline
 90
9
 70
1
 10
379.404094
 20
197.108934
 30
0.0
 10
370.372818
 20
181.466305
 30
0.0
 10
354.730189
 20
172.435029
 30
0.0
 10
336.667637
 20
172.435029
 30
0.0
 10
321.025007
 20
181.466305
 30
0.0
 10
311.993731
 20
197.108934
 30
0.0
 10
311.993731
 20
211.000000
 30
0.0
 10
379.404094
 20
211.000000
 30
0.0
 10
379.404094
 20
197.108934
 30
0.0
  0
LWPOLYLINE
  5
116
100
AcDbEntity
  8
0
 62
7
100
AcDbPolyline
 90
9
 70
1
 10
442.979333
 20
105.055942
 30
0.0
 10
442.979333
 20
91.000000
 30
0.0
 10
375.568970
 20
91.000000
 30
0.0
 10
375.568970
 20
105.055942
 30
0.0
 10
384.600246
 20
120.698571
 30
0.0
 10
400.242876
 20
129.729847
 30
0.0
 10
418.305428
 20
129.729847
 30
0.0
 10
433.948057
 20
120.698571
 30
0.0
 10
442.979333
 20
105.055942
 30
0.0
  0
LWPOLYLINE
  5
117
100
AcDbEntity
  8
0
 62
7
100
AcDbPolyline
 90
4
 70
1
 10
433.144209
 20
128.090876
 30
0.0
 10
425.109275
 20
132.729847
 30
0.0
 10
433.144209
 20
137.368819
 30
0.0
 10
433.144209
 20
128.090876
 30
0.0
  0
LWPOLYLINE
  5
118
100
AcDbEntity
  8
0
 62
7
100
AcDbPolyline
 90
4
 70
1
 10
393.439028
 20
132.729847
 30
0.0
 10
385.404094
 20
128.090876
 30
0.0
 10
385.404094
 20
137.368819
 30
0.0
 10
393.439028
 20
132.729847
 30
0.0
  0
LWPOLYLINE
  5
119
100
AcDbEntity
  8
0
 62
7
100
AcDbPolyline
 90
13
 70
1
 10
433.948057
 20
194.108934
 30
0.0
 10
442.979333
 20
178.466305
 30
0.0
 10
442.979333
 20
160.403753
 30
0.0
 10
433.948057
 20
144.761124
 30
0.0
 10
418.305428
 20
135.729847
 30
0.0
 10
400.242876
 20
135.729847
 30
0.0
 10
384.600246
 20
144.761124
 30
0.0
 10
375.568970
 20
160.403753
 30
0.0
 10
375.568970
 20
178.466305
 30
0.0
 10
384.600246
 20
194.108934
 30
0.0
 10
400.242876
 20
203.140210
 30
0.0
 10
418.305428
 20
203.140210
 30
0.0
 10
433.948057
 20
194.108934
 30
0.0
  0
LWPOLYLINE
  5
11a
100
AcDbEntity
  8
0
 62
7
100
AcDbPolyline
 90
4
 70
1
 10
433.144209
 20
201.501239
 30
0.0
 10
425.109275
 20
206.140210
 30
0.0
 10
433.144209
 20
210.779182
 30
0.0
 10
433.144209
 20
201.501239
 30
0.0
  0
LWPOLYLINE
  5
11b
100
AcDbEntity
  8
0
 62
7
100
AcDbPolyline
 90
4
 70
1
 10
393.439028
 20
206.140210
 30
0.0
 10
385.404094
 20
201.501239
 30
0.0
 10
385.404094
 20
210.779182
 30
0.0
 10
393.439028
 20
206.140210
 30
0.0
  0
LWPOLYLINE
  5
11c
100
AcDbEntity
  8
0
 62
7
100
AcDbPolyline
 90
4
 70
1
 10
496.719449
 20
91.385695
 30
0.0
 10
488.684515
 20
96.024666
 30
0.0
 10
496.719449
 20
100.663637
 30
0.0
 10
496.719449
 20
91.385695
 30
0.0
  0
LWPOLYLINE
  5
11d
100
AcDbEntity
  8
0
 62
7
100
AcDbPolyline
 90
4
 70
1
 10
457.014267
 20
96.024666
 30
0.0
 10
448.979333
 20
91.385695
 30
0.0
 10
448.979333
 20
100.663637
 30
0.0
 10
457.014267
 20
96.024666
 30
0.0
  0
LWPOLYLINE
  5
11e
100
AcDbEntity
  8
0
 62
7
100
AcDbPolyline
 90
13
 70
1
 10
497.523296
 20
157.403753
 30
0.0
 10
506.554572
 20
141.761124
 30
0.0
 10
506.554572
 20
123.698571
 30
0.0
 10
497.523296
 20
108.055942
 30
0.0
 10
481.880667
 20
99.024666
 30
0.0
 10
463.818115
 20
99.024666
 30
0.0
 10
448.175486
 20
108.055942
 30
0.0
 10
439.144209
 20
123.698571
 30
0.0
 10
439.144209
 20
141.761124
 30
0.0
 10
448.175486
 20
157.403753
 30
0.0
 10
463.818115
 20
166.435029
 30
0.0
 10
481.880667
 20
166.435029
 30
0.0
 10
497.523296
 20
157.403753
 30
0.0
  0
LWPOLYLINE
  5
11f
100
AcDbEntity
  8
0
 62
7
100
AcDbPolyline
 90
4
 70
1
 10
496.719449
 20
164.796058
 30
0.0
 10
488.684515
 20
169.435029
 30
0.0
 10
496.719449
 20
174.074000
 30
0.0
 10
496.719449
 20
164.796058
 30
0.0
  0
LWPOLYLINE
  5
120
100
AcDbEntity
  8
0
 62
7
100
AcDbPolyline
 90
4
 70
1
 10
457.014267
 20
169.435029
 30
0.0
 10
448.979333
 20
164.796058
 30
0.0
 10
448.979333
 20
174.074000
 30
0.0
 10
457.014267
 20
169.435029
 30
0.0
  0
LWPOLYLINE
  5
121
100
AcDbEntity
  8
0
 62
7
100
AcDbPolyline
 90
9
 70
1
 10
506.554572
 20
197.108934
 30
0.0
 10
497.523296
 20
181.466305
 30
0.0
 10
481.880667
 20
172.435029
 30
0.0
 10
463.818115
 20
172.435029
 30
0.0
 10
448.175486
 20
181.466305
 30
0.0
 10
439.144209
 20
197.108934
 30
0.0
 10
439.144209
 20
211.000000
 30
0.0
 10
506.554572
 20
211.000000
 30
0.0
 10
506.554572
 20
197.108934
 30
0.0
  0
LWPOLYLINE
  5
122
100
AcDbEntity
  8
0
 62
7
100
AcDbPolyline
 90
9
 70
1
 10
570.129811
 20
105.055942
 30
0.0
 10
570.129811
 20
91.000000
 30
0.0
 10
502.719449
 20
91.000000
 30
0.0
 10
502.719449
 20
105.055942
 30
0.0
 10
511.750725
 20
120.698571
 30
0.0
 10
527.393354
 20
129.729847
 30
0.0
 10
545.455906
 20
129.729847
 30
0.0
 10
561.098535
 20
120.698571
 30
0.0
 10
570.129811
 20
105.055942
 30
0.0
  0
LWPOLYLINE
  5
123
100
AcDbEntity
  8
0
 62
7
100
AcDbPolyline
 90
4
 70
1
 10
560.294688
 20
128.090876
 30
0.0
 10
552.259754
 20
132.729847
 30
0.0
 10
560.294688
 20
137.368819
 30
0.0
 10
560.294688
 20
128.090876
 30
0.0
  0
LWPOLYLINE
  5
124
100
AcDbEntity
  8
0
 62
7
100
AcDbPolyline
 90
4
 70
1
 10
520.589506
 20
132.729847
 30
0.0
 10
512.554572
 20
128.090876
 30
0.0
 10
512.554572
 20
137.368819
 30
0.0
 10
520.589506
 20
132.729847
 30
0.0
  0
LWPOLYLINE
  5
125
100
AcDbEntity
  8
0
 62
7
100
AcDbPolyline
 90
13
 70
1
 10
561.098535
 20
194.108934
 30
0.0
 10
570.129811
 20
178.466305
 30
0.0
 10
570.129811
 20
160.403753
 30
0.0
 10
561.098535
 20
144.761124
 30
0.0
 10
545.455906
 20
135.729847
 30
0.0
 10
527.393354
 20
135.729847
 30
0.0
 10
511.750725
 20
144.761124
 30
0.0
 10
502.719449
 20
160.403753
 30
0.0
 10
502.719449
 20
178.466305
 30
0.0
 10
511.750725
 20
194.108934
 30
0.0
 10
527.393354
 20
203.140210
 30
0.0
 10
545.455906
 20
203.140210
 30
0.0
 10
561.098535
 20
194.108934
 30
0.0
  0
LWPOLYLINE
  5
126
100
AcDbEntity
  8
0
 62
7
100
AcDbPolyline
 90
4
 70
1
 10
560.294688
 20
201.501239
 30
0.0
 10
552.259754
 20
206.140210
 30
0.0
 10
560.294688
 20
210.779182
 30
0.0
 10
560.294688
 20
201.501239
 30
0.0
  0
LWPOLYLINE
  5
127
100
AcDbEntity
  8
0
 62
7
100
AcDbPolyline
 90
4
 70
1
 10
520.589506
 20
206.140210
 30
0.0
 10
512.554572
 20
201.501239
 30
0.0
 10
512.554572
 20
210.779182
 30
0.0
 10
520.589506
 20
206.140210
 30
0.0
  0
LWPOLYLINE
  5
128
100
AcDbEntity
  8
0
 62
7
100
AcDbPolyline
 90
4
 70
1
 10
623.869927
 20
91.385695
 30
0.0
 10
615.834993
 20
96.024666
 30
0.0
 10
623.869927
 20
100.663637
 30
0.0
 10
623.869927
 20
91.385695
 30
0.0
  0
LWPOLYLINE
  5
129
100
AcDbEntity
  8
0
 62
7
100
AcDbPolyline
 90
4
 70
1
 10
584.164745
 20
96.024666
 30
0.0
 10
576.129811
 20
91.385695
 30
0.0
 10
576.129811
 20
100.663637
 30
0.0
 10
584.164745
 20
96.024666
 30
0.0
  0
LWPOLYLINE
  5
12a
100
AcDbEntity
  8
0
 62
7
100
AcDbPolyline
 90
13
 70
1
 10
624.673774
 20
157.403753
 30
0.0
 10
633.705050
 20
141.761124
 30
0.0
 10
633.705050
 20
123.698571
 30
0.0
 10
624.673774
 20
108.055942
 30
0.0
 10
609.031145
 20
99.024666
 30
0.0
 10
590.968593
 20
99.024666
 30
0.0
 10
575.325964
 20
108.055942
 30
0.0
 10
566.294688
 20
123.698571
 30
0.0
 10
566.294688
 20
141.761124
 30
0.0
 10
575.325964
 20
157.403753
 30
0.0
 10
590.968593
 20
166.435029
 30
0.0
 10
609.031145
 20
166.435029
 30
0.0
 10
624.673774
 20
157.403753
 30
0.0
  0
LWPOLYLINE
  5
12b
100
AcDbEntity
  8
0
 62
7
100
AcDbPolyline
 90
4
 70
1
 10
623.869927
 20
164.796058
 30
0.0
 10
615.834993
 20
169.435029
 30
0.0
 10
623.869927
 20
174.074000
 30
0.0
 10
623.869927
 20
164.796058
 30
0.0
  0
LWPOLYLINE
  5
12c
100
AcDbEntity
  8
0
 62
7
100
AcDbPolyline
 90
4
 70
1
 10
584.164745
 20
169.435029
 30
0.0
 10
576.129811
 20
164.796058
 30
0.0
 10
576.129811
 20
174.074000
 30
0.0
 10
584.164745
 20
169.435029
 30
0.0
  0
LWPOLYLINE
  5
12d
100
AcDbEntity
  8
0
 62
7
100
AcDbPolyline
 90
9
 70
1
 10
633.705050
 20
197.108934
 30
0.0
 10
624.673774
 20
181.466305
 30
0.0
 10
609.031145
 20
172.435029
 30
0.0
 10
590.968593
 20
172.435029
 30
0.0
 10
575.325964
 20
181.466305
 30
0.0
 10
566.294688
 20
197.108934
 30
0.0
 10
566.294688
 20
211.000000
 30
0.0
 10
633.705050
 20
211.000000
 30
0.0
 10
633.705050
 20
197.108934
 30
0.0
  0
LWPOLYLINE
  5
12e
100
AcDbEntity
  8
0
 62
7
100
AcDbPolyline
 90
9
 70
1
 10
697.280289
 20
105.055942
 30
0.0
 10
697.280289
 20
91.000000
 30
0.0
 10
629.869927
 20
91.000000
 30
0.0
 10
629.869927
 20
105.055942
 30
0.0
 10
638.901203
 20
120.698571
 30
0.0
 10
654.543832
 20
129.729847
 30
0.0
 10
672.606384
 20
129.729847
 30
0.0
 10
688.249013
 20
120.698571
 30
0.0
 10
697.280289
 20
105.055942
 30
0.0
  0
LWPOLYLINE
  5
12f
100
AcDbEntity
  8
0
 62
7
100
AcDbPolyline
 90
4
 70
1
 10
687.445166
 20
128.090876
 30
0.0
 10
679.410232
 20
132.729847
 30
0.0
 10
687.445166
 20
137.368819
 30
0.0
 10
687.445166
 20
128.090876
 30
0.0
  0
LWPOLYLINE
  5
130
100
AcDbEntity
  8
0
 62
7
100
AcDbPolyline
 90
4
 70
1
 10
647.739984
 20
132.729847
 30
0.0
 10
639.705050
 20
128.090876
 30
0.0
 10
639.705050
 20
137.368819
 30
0.0
 10
647.739984
 20
132.729847
 30
0.0
  0
LWPOLYLINE
  5
131
100
AcDbEntity
  8
0
 62
7
100
AcDbPolyline
 90
13
 70
1
 10
688.249013
 20
194.108934
 30
0.0
 10
697.280289
 20
178.466305
 30
0.0
 10
697.280289
 20
160.403753
 30
0.0
 10
688.249013
 20
144.761124
 30
0.0
 10
672.606384
 20
135.729847
 30
0.0
 10
654.543832
 20
135.729847
 30
0.0
 10
638.901203
 20
144.761124
 30
0.0
 10
629.869927
 20
160.403753
 30
0.0
 10
629.869927
 20
178.466305
 30
0.0
 10
638.901203
 20
194.108934
 30
0.0
 10
654.543832
 20
203.140210
 30
0.0
 10
672.606384
 20
203.140210
 30
0.0
 10
688.249013
 20
194.108934
 30
0.0
  0
LWPOLYLINE
  5
132
100
AcDbEntity
  8
0
 62
7
100
AcDbPolyline
 90
4
 70
1
 10
687.445166
 20
201.501239
 30
0.0
 10
679.410232
 20
206.140210
 30
0.0
 10
687.445166
 20
210.779182
 30
0.0
 10
687.445166
 20
201.501239
 30
0.0
  0
LWPOLYLINE
  5
133
100
AcDbEntity
  8
0
 62
7
100
AcDbPolyline
 90
4
 70
1
 10
647.739984
 20
206.140210
 30
0.0
 10
639.705050
 20
201.501239
 30
0.0
 10
639.705050
 20
210.779182
 30
0.0
 10
647.739984
 20
206.140210
 30
0.0
  0
LWPOLYLINE
  5
134
100
AcDbEntity
  8
0
 62
7
100
AcDbPolyline
 90
4
 70
1
 10
751.020405
 20
91.385695
 30
0.0
 10
742.985471
 20
96.024666
 30
0.0
 10
751.020405
 20
100.663637
 30
0.0
 10
751.020405
 20
91.385695
 30
0.0
  0
LWPOLYLINE
  5
135
100
AcDbEntity
  8
0
 62
7
100
AcDbPolyline
 90
4
 70
1
 10
711.315223
 20
96.024666
 30
0.0
 10
703.280289
 20
91.385695
 30
0.0
 10
703.280289
 20
100.663637
 30
0.0
 10
711.315223
 20
96.024666
 30
0.0
  0
LWPOLYLINE
  5
136
100
AcDbEntity
  8
0
 62
7
100
AcDbPolyline
 90
13
 70
1
 10
751.824252
 20
157.403753
 30
0.0
 10
760.855529
 20
141.761124
 30
0.0
 10
760.855529
 20
123.698571
 30
0.0
 10
751.824252
 20
108.055942
 30
0.0
 10
736.181623
 20
99.024666
 30
0.0
 10
718.119071
 20
99.024666
 30
0.0
 10
702.476442
 20
108.055942
 30
0.0
 10
693.445166
 20
123.698571
 30
0.0
 10
693.445166
 20
141.761124
 30
0.0
 10
702.476442
 20
157.403753
 30
0.0
 10
718.119071
 20
166.435029
 30
0.0
 10
736.181623
 20
166.435029
 30
0.0
 10
751.824252
 20
157.403753
 30
0.0
  0
LWPOLYLINE
  5
137
100
AcDbEntity
  8
0
 62
7
100
AcDbPolyline
 90
4
 70
1
 10
751.020405
 20
164.796058
 30
0.0
 10
742.985471
 20
169.435029
 30
0.0
 10
751.020405
 20
174.074000
 30
0.0
 10
751.020405
 20
164.796058
 30
0.0
  0
LWPOLYLINE
  5
138
100
AcDbEntity
  8
0
 62
7
100
AcDbPolyline
 90
4
 70
1
 10
711.315223
 20
169.435029
 30
0.0
 10
703.280289
 20
164.796058
 30
0.0
 10
703.280289
 20
174.074000
 30
0.0
 10
711.315223
 20
169.435029
 30
0.0
  0
LWPOLYLINE
  5
139
100
AcDbEntity
  8
0
 62
7
100
AcDbPolyline
 90
9
 70
1
 10
760.855529
 20
197.108934
 30
0.0
 10
751.824252
 20
181.466305
 30
0.0
 10
736.181623
 20
172.435029
 30
0.0
 10
718.119071
 20
172.435029
 30
0.0
 10
702.476442
 20
181.466305
 30
0.0
 10
693.445166
 20
197.108934
 30
0.0
 10
693.445166
 20
211.000000
 30
0.0
 10
760.855529
 20
211.000000
 30
0.0
 10
760.855529
 20
197.108934
 30
0.0
  0
LWPOLYLINE
  5
13a
100
AcDbEntity
  8
0
 62
7
100
AcDbPolyline
 90
9
 70
1
 10
824.430768
 20
105.055942
 30
0.0
 10
824.430768
 20
91.000000
 30
0.0
 10
757.020405
 20
91.000000
 30
0.0
 10
757.020405
 20
105.055942
 30
0.0
 10
766.051681
 20
120.698571
 30
0.0
 10
781.694310
 20
129.729847
 30
0.0
 10
799.756862
 20
129.729847
 30
0.0
 10
815.399492
 20
120.698571
 30
0.0
 10
824.430768
 20
105.055942
 30
0.0
  0
LWPOLYLINE
  5
13b
100
AcDbEntity
  8
0
 62
7
100
AcDbPolyline
 90
4
 70
1
 10
814.595644
 20
128.090876
 30
0.0
 10
806.560710
 20
132.729847
 30
0.0
 10
814.595644
 20
137.368819
 30
0.0
 10
814.595644
 20
128.090876
 30
0.0
  0
LWPOLYLINE
  5
13c
100
AcDbEntity
  8
0
 62
7
100
AcDbPolyline
 90
4
 70
1
 10
774.890463
 20
132.729847
 30
0.0
 10
766.855529
 20
128.090876
 30
0.0
 10
766.855529
 20
137.368819
 30
0.0
 10
774.890463
 20
132.729847
 30
0.0
  0
LWPOLYLINE
  5
13d
100
AcDbEntity
  8
0
 62
7
100
AcDbPolyline
 90
13
 70
1
 10
815.399492
 20
194.108934
 30
0.0
 10
824.430768
 20
178.466305
 30
0.0
 10
824.430768
 20
160.403753
 30
0.0
 10
815.399492
 20
144.761124
 30
0.0
 10
799.756862
 20
135.729847
 30
0.0
 10
781.694310
 20
135.729847
 30
0.0
 10
766.051681
 20
144.761124
 30
0.0
 10
757.020405
 20
160.403753
 30
0.0
 10
757.020405
 20
178.466305
 30
0.0
 10
766.051681
 20
194.108934
 30
0.0
 10
781.694310
 20
203.140210
 30
0.0
 10
799.756862
 20
203.140210
 30
0.0
 10
815.399492
 20
194.108934
 30
0.0
  0
LWPOLYLINE
  5
13e
100
AcDbEntity
  8
0
 62
7
100
AcDbPolyline
 90
4
 70
1
 10
814.595644
 20
201.501239
 30
0.0
 10
806.560710
 20
206.140210
 30
0.0
 10
814.595644
 20
210.779182
 30
0.0
 10
814.595644
 20
201.501239
 30
0.0
  0
LWPOLYLINE
  5
13f
100
AcDbEntity
  8
0
 62
7
100
AcDbPolyline
 90
4
 70
1
 10
774.890463
 20
206.140210
 30
0.0
 10
766.855529
 20
201.501239
 30
0.0
 10
766.855529
 20
210.779182
 30
0.0
 10
774.890463
 20
206.140210
 30
0.0
  0
LWPOLYLINE
  5
140
100
AcDbEntity
  8
0
 62
7
100
AcDbPolyline
 90
4
 70
1
 10
878.170883
 20
91.385695
 30
0.0
 10
870.135949
 20
96.024666
 30
0.0
 10
878.170883
 20
100.663637
 30
0.0
 10
878.170883
 20
91.385695
 30
0.0
  0
LWPOLYLINE
  5
141
100
AcDbEntity
  8
0
 62
7
100
AcDbPolyline
 90
4
 70
1
 10
838.465702
 20
96.024666
 30
0.0
 10
830.430768
 20
91.385695
 30
0.0
 10
830.430768
 20
100.663637
 30
0.0
 10
838.465702
 20
96.024666
 30
0.0
  0
LWPOLYLINE
  5
142
100
AcDbEntity
  8
0
 62
7
100
AcDbPolyline
 90
13
 70
1
 10
878.974731
 20
157.403753
 30
0.0
 10
888.006007
 20
141.761124
 30
0.0
 10
888.006007
 20
123.698571
 30
0.0
 10
878.974731
 20
108.055942
 30
0.0
 10
863.332101
 20
99.024666
 30
0.0
 10
845.269549
 20
99.024666
 30
0.0
 10
829.626920
 20
108.055942
 30
0.0
 10
820.595644
 20
123.698571
 30
0.0
 10
820.595644
 20
141.761124
 30
0.0
 10
829.626920
 20
157.403753
 30
0.0
 10
845.269549
 20
166.435029
 30
0.0
 10
863.332101
 20
166.435029
 30
0.0
 10
878.974731
 20
157.403753
 30
0.0
  0
LWPOLYLINE
  5
143
100
AcDbEntity
  8
0
 62
7
100
AcDbPolyline
 90
4
 70
1
 10
878.170883
 20
164.796058
 30
0.0
 10
870.135949
 20
169.435029
 30
0.0
 10
878.170883
 20
174.074000
 30
0.0
 10
878.170883
 20
164.796058
 30
0.0
  0
LWPOLYLINE
  5
144
100
AcDbEntity
  8
0
 62
7
100
AcDbPolyline
 90
4
 70
1
 10
838.465702
 20
169.435029
 30
0.0
 10
830.430768
 20
164.796058
 30
0.0
 10
830.430768
 20
174.074000
 30
0.0
 10
838.465702
 20
169.435029
 30
0.0
  0
LWPOLYLINE
  5
145
100
AcDbEntity
  8
0
 62
7
100
AcDbPolyline
 90
9
 70
1
 10
888.006007
 20
197.108934
 30
0.0
 10
878.974731
 20
181.466305
 30
0.0
 10
863.332101
 20
172.435029
 30
0.0
 10
845.269549
 20
172.435029
 30
0.0
 10
829.626920
 20
181.466305
 30
0.0
 10
820.595644
 20
197.108934
 30
0.0
 10
820.595644
 20
211.000000
 30
0.0
 10
888.006007
 20
211.000000
 30
0.0
 10
888.006007
 20
197.108934
 30
0.0
  0
LWPOLYLINE
  5
146
100
AcDbEntity
  8
0
 62
7
100
AcDbPolyline
 90
9
 70
1
 10
951.581246
 20
105.055942
 30
0.0
 10
951.581246
 20
91.000000
 30
0.0
 10
884.170883
 20
91.000000
 30
0.0
 10
884.170883
 20
105.055942
 30
0.0
 10
893.202159
 20
120.698571
 30
0.0
 10
908.844788
 20
129.729847
 30
0.0
 10
926.907341
 20
129.729847
 30
0.0
 10
942.549970
 20
120.698571
 30
0.0
 10
951.581246
 20
105.055942
 30
0.0
  0
LWPOLYLINE
  5
147
100
AcDbEntity
  8
0
 62
7
100
AcDbPolyline
 90
4
 70
1
 10
941.746122
 20
128.090876
 30
0.0
 10
933.711188
 20
132.729847
 30
0.0
 10
941.746122
 20
137.368819
 30
0.0
 10
941.746122
 20
128.090876
 30
0.0
  0
LWPOLYLINE
  5
148
100
AcDbEntity
  8
0
 62
7
100
AcDbPolyline
 90
4
 70
1
 10
902.040941
 20
132.729847
 30
0.0
 10
894.006007
 20
128.090876
 30
0.0
 10
894.006007
 20
137.368819
 30
0.0
 10
902.040941
 20
132.729847
 30
0.0
  0
LWPOLYLINE
  5
149
100
AcDbEntity
  8
0
 62
7
100
AcDbPolyline
 90
13
 70
1
 10
942.549970
 20
194.108934
 30
0.0
 10
951.581246
 20
178.466305
 30
0.0
 10
951.581246
 20
160.403753
 30
0.0
 10
942.549970
 20
144.761124
 30
0.0
 10
926.907341
 20
135.729847
 30
0.0
 10
908.844788
 20
135.729847
 30
0.0
 10
893.202159
 20
144.761124
 30
0.0
 10
884.170883
 20
160.403753
 30
0.0
 10
884.170883
 20
178.466305
 30
0.0
 10
893.202159
 20
194.108934
 30
0.0
 10
908.844788
 20
203.140210
 30
0.0
 10
926.907341
 20
203.140210
 30
0.0
 10
942.549970
 20
194.108934
 30
0.0
  0
LWPOLYLINE
  5
14a
100
AcDbEntity
  8
0
 62
7
100
AcDbPolyline
 90
4
 70
1
 10
941.746122
 20
201.501239
 30
0.0
 10
933.711188
 20
206.140210
 30
0.0
 10
941.746122
 20
210.779182
 30
0.0
 10
941.746122
 20
201.501239
 30
0.0
  0
LWPOLYLINE
  5
14b
100
AcDbEntity
  8
0
 62
7
100
AcDbPolyline
 90
4
 70
1
 10
902.040941
 20
206.140210
 30
0.0
 10
894.006007
 20
201.501239
 30
0.0
 10
894.006007
 20
210.779182
 30
0.0
 10
902.040941
 20
206.140210
 30
0.0
  0
LWPOLYLINE
  5
14c
100
AcDbEntity
  8
0
 62
7
100
AcDbPolyline
 90
4
 70
1
 10
1005.321361
 20
91.385695
 30
0.0
 10
997.286427
 20
96.024666
 30
0.0
 10
1005.321361
 20
100.663637
 30
0.0
 10
1005.321361
 20
91.385695
 30
0.0
  0
LWPOLYLINE
  5
14d
100
AcDbEntity
  8
0
 62
7
100
AcDbPolyline
 90
4
 70
1
 10
965.616180
 20
96.024666
 30
0.0
 10
957.581246
 20
91.385695
 30
0.0
 10
957.581246
 20
100.663637
 30
0.0
 10
965.616180
 20
96.024666
 30
0.0
  0
LWPOLYLINE
  5
14e
100
AcDbEntity
  8
0
 62
7
100
AcDbPolyline
 90
13
 70
1
 10
1006.125209
 20
157.403753
 30
0.0
 10
1015.156485
 20
141.761124
 30
0.0
 10
1015.156485
 20
123.698571
 30
0.0
 10
1006.125209
 20
108.055942
 30
0.0
 10
990.482580
 20
99.024666
 30
0.0
 10
972.420027
 20
99.024666
 30
0.0
 10
956.777398
 20
108.055942
 30
0.0
 10
947.746122
 20
123.698571
 30
0.0
 10
947.746122
 20
141.761124
 30
0.0
 10
956.777398
 20
157.403753
 30
0.0
 10
972.420027
 20
166.435029
 30
0.0
 10
990.482580
 20
166.435029
 30
0.0
 10
1006.125209
 20
157.403753
 30
0.0
  0
LWPOLYLINE
  5
14f
100
AcDbEntity
  8
0
 62
7
100
AcDbPolyline
 90
4
 70
1
 10
1005.321361
 20
164.796058
 30
0.0
 10
997.286427
 20
169.435029
 30
0.0
 10
1005.321361
 20
174.074000
 30
0.0
 10
1005.321361
 20
164.796058
 30
0.0
  0
LWPOLYLINE
  5
150
100
AcDbEntity
  8
0
 62
7
100
AcDbPolyline
 90
4
 70
1
 10
965.616180
 20
169.435029
 30
0.0
 10
957.581246
 20
164.796058
 30
0.0
 10
957.581246
 20
174.074000
 30
0.0
 10
965.616180
 20
169.435029
 30
0.0
  0
LWPOLYLINE
  5
151
100
AcDbEntity
  8
0
 62
7
100
AcDbPolyline
 90
9
 70
1
 10
1015.156485
 20
197.108934
 30
0.0
 10
1006.125209
 20
181.466305
 30
0.0
 10
990.482580
 20
172.435029
 30
0.0
 10
972.420027
 20
172.435029
 30
0.0
 10
956.777398
 20
181.466305
 30
0.0
 10
947.746122
 20
197.108934
 30
0.0
 10
947.746122
 20
211.000000
 30
0.0
 10
1015.156485
 20
211.000000
 30
0.0
 10
1015.156485
 20
197.108934
 30
0.0
  0
LWPOLYLINE
  5
152
100
AcDbEntity
  8
0
 62
7
100
AcDbPolyline
 90
6
 70
1
 10
1011.321361
 20
105.055942
 30
0.0
 10
1020.352637
 20
120.698571
 30
0.0
 10
1030.499869
 20
126.557078
 30
0.0
 10
1030.499869
 20
91.000000
 30
0.0
 10
1011.321361
 20
91.000000
 30
0.0
 10
1011.321361
 20
105.055942
 30
0.0
  0
LWPOLYLINE
  5
153
100
AcDbEntity
  8
0
 62
7
100
AcDbPolyline
 90
4
 70
1
 10
1029.191419
 20
132.729847
 30
0.0
 10
1021.156485
 20
128.090876
 30
0.0
 10
1021.156485
 20
137.368819
 30
0.0
 10
1029.191419
 20
132.729847
 30
0.0
  0
LWPOLYLINE
  5
154
100
AcDbEntity
  8
0
 62
7
100
AcDbPolyline
 90
7
 70
1
 10
1020.352637
 20
144.761124
 30
0.0
 10
1011.321361
 20
160.403753
 30
0.0
 10
1011.321361
 20
178.466305
 30
0.0
 10
1020.352637
 20
194.108934
 30
0.0
 10
1030.499869
 20
199.967441
 30
0.0
 10
1030.499869
 20
138.902617
 30
0.0
 10
1020.352637
 20
144.761124
 30
0.0
  0
LWPOLYLINE
  5
155
100
AcDbEntity
  8
0
 62
7
100
AcDbPolyline
 90
4
 70
1
 10
1029.191419
 20
206.140210
 30
0.0
 10
1021.156485
 20
201.501239
 30
0.0
 10
1021.156485
 20
210.779182
 30
0.0
 10
1029.191419
 20
206.140210
 30
0.0
  0
LWPOLYLINE
  5
156
100
AcDbEntity
  8
0
 62
7
100
AcDbPolyline
 90
5
 70
1
 10
147.499869
 20
65.000000
 30
0.0
 10
1052.499869
 20
65.000000
 30
0.0
 10
1052.499869
 20
235.000000
 30
0.0
 10
147.499869
 20
235.000000
 30
0.0
 10
147.499869
 20
65.000000
 30
0.0
  0
ENDSEC
  0
SECTION
  2
OBJECTS
  0
DICTIONARY
  5
C
330
0
100
AcDbDictionary
  3
ACAD_GROUP
350
D
  3
ACAD_MLINESTYLE
350
17
  0
DICTIONARY
  5
D
330
C
100
AcDbDictionary
  0
DICTIONARY
  5
1A
330
C
100
AcDbDictionary
  0
DICTIONARY
  5
17
330
C
100
AcDbDictionary
  3
STANDARD
350
18
  0
DICTIONARY
  5
19
330
C
100
AcDbDictionary
  0
ENDSEC
  0
EOF
