<?xml version="1.0" encoding="utf-8" ?>
<svg baseProfile="full" height="300mm" version="1.1" viewBox="0 0 1200 300" width="1200mm" xmlns="http://www.w3.org/2000/svg" xmlns:ev="http://www.w3.org/2001/xml-events" xmlns:xlink="http://www.w3.org/1999/xlink"><defs /><g fill="none" stroke="blue" stroke-width="0.5" transform="translate(-162.90286900888083,65.0)"><path d="M 351.58137681935165,129.9440578188224 L 351.58137681935165,144.0 L 332.4028690088809,144.0 L 332.4028690088809,108.44292175460524 L 342.55010068274925,114.30142869304262 L 351.58137681935165,129.9440578188224 Z" /><path d="M 341.7462531054559,106.90912384762936 L 333.71131913426285,102.2701525564402 L 341.7462531054559,97.63118126525106 L 341.7462531054559,106.90912384762936 Z" /><path d="M 351.58137681935165,56.5336950208532 L 351.58137681935165,74.59624729405806 L 342.5501006827492,90.2388764198378 L 332.4028690088809,96.09738335827515 L 332.4028690088809,35.03255895663605 L 342.55010068274925,40.89106589507344 L 351.58137681935165,56.5336950208532 Z" /><path d="M 341.7462531054559,33.498761049660175 L 333.71131913426285,28.85978975847101 L 341.7462531054559,24.220818467281845 L 341.7462531054559,33.498761049660175 Z" /><path d="M 405.3214921895293,143.61430524661395 L 397.28655821833627,138.9753339554248 L 405.3214921895293,134.33636266423565 L 405.3214921895293,143.61430524661395 Z" /><path d="M 365.6163107905447,138.9753339554248 L 357.58137681935165,143.61430524661392 L 357.58137681935165,134.33636266423562 L 365.6163107905447,138.9753339554248 Z" /><path d="M 406.12533976682266,77.59624729405803 L 415.15661590342506,93.2388764198378 L 415.15661590342506,111.30142869304265 L 406.1253397668226,126.94405781882239 L 390.48271064104284,135.9753339554248 L 372.42015836783804,135.9753339554248 L 356.7775292420583,126.94405781882236 L 347.7462531054559,111.3014286930426 L 347.7462531054559,93.23887641983777 L 356.7775292420583,77.59624729405803 L 372.42015836783804,68.5649711574556 L 390.4827106410429,68.5649711574556 L 406.12533976682266,77.59624729405803 Z" /><path d="M 405.3214921895293,70.20394244864477 L 397.28655821833627,65.5649711574556 L 405.3214921895293,60.92599986626644 L 405.3214921895293,70.20394244864477 Z" /><path d="M 365.6163107905447,65.5649711574556 L 357.58137681935165,70.20394244864477 L 357.58137681935165,60.92599986626644 L 365.6163107905447,65.5649711574556 Z" /><path d="M 415.15661590342506,37.89106589507347 L 406.1253397668226,53.53369502085317 L 390.48271064104284,62.5649711574556 L 372.42015836783804,62.5649711574556 L 356.7775292420583,53.53369502085317 L 347.7462531054559,37.89106589507341 L 347.7462531054559,24.0 L 415.15661590342506,24.0 L 415.15661590342506,37.89106589507347 Z" /><path d="M 478.7318549874985,129.9440578188224 L 478.7318549874985,144.0 L 411.3214921895293,144.0 L 411.3214921895293,129.94405781882236 L 420.3527683261317,114.3014286930426 L 435.99539745191146,105.2701525564402 L 454.0579497251163,105.2701525564402 L 469.7005788508961,114.30142869304262 L 478.7318549874985,129.9440578188224 Z" /><path d="M 468.8967312736027,106.90912384762936 L 460.8617973024097,102.2701525564402 L 468.8967312736027,97.63118126525106 L 468.8967312736027,106.90912384762936 Z" /><path d="M 429.1915498746181,102.2701525564402 L 421.15661590342506,106.90912384762933 L 421.15661590342506,97.63118126525103 L 429.1915498746181,102.2701525564402 Z" /><path d="M 469.7005788508961,40.89106589507344 L 478.7318549874985,56.5336950208532 L 478.7318549874985,74.59624729405806 L 469.700578850896,90.2388764198378 L 454.05794972511626,99.2701525564402 L 435.99539745191146,99.2701525564402 L 420.3527683261317,90.23887641983777 L 411.3214921895293,74.596247294058 L 411.3214921895293,56.53369502085317 L 420.3527683261317,40.89106589507344 L 435.99539745191146,31.85978975847101 L 454.0579497251163,31.85978975847101 L 469.7005788508961,40.89106589507344 Z" /><path d="M 468.8967312736027,33.498761049660175 L 460.8617973024097,28.85978975847101 L 468.8967312736027,24.220818467281845 L 468.8967312736027,33.498761049660175 Z" /><path d="M 429.1915498746181,28.85978975847101 L 421.15661590342506,33.498761049660175 L 421.15661590342506,24.220818467281845 L 429.1915498746181,28.85978975847101 Z" /><path d="M 532.4719703576761,143.61430524661395 L 524.4370363864831,138.9753339554248 L 532.4719703576761,134.33636266423565 L 532.4719703576761,143.61430524661395 Z" /><path d="M 492.7667889586915,138.9753339554248 L 484.7318549874985,143.61430524661392 L 484.7318549874985,134.33636266423562 L 492.7667889586915,138.9753339554248 Z" /><path d="M 533.2758179349694,77.59624729405797 L 542.3070940715719,93.23887641983788 L 542.3070940715719,111.30142869304274 L 533.2758179349695,126.94405781882234 L 517.6331888091896,135.9753339554248 L 499.5706365359849,135.9753339554248 L 483.9280074102051,126.94405781882236 L 474.8967312736027,111.3014286930426 L 474.8967312736027,93.23887641983777 L 483.9280074102051,77.59624729405803 L 499.5706365359849,68.5649711574556 L 517.6331888091897,68.5649711574556 L 533.2758179349694,77.59624729405797 Z" /><path d="M 532.4719703576761,70.20394244864477 L 524.4370363864831,65.5649711574556 L 532.4719703576761,60.92599986626644 L 532.4719703576761,70.20394244864477 Z" /><path d="M 492.7667889586915,65.5649711574556 L 484.7318549874985,70.20394244864477 L 484.7318549874985,60.92599986626644 L 492.7667889586915,65.5649711574556 Z" /><path d="M 542.3070940715719,37.89106589507355 L 533.2758179349695,53.533695020853116 L 517.6331888091896,62.5649711574556 L 499.5706365359849,62.5649711574556 L 483.9280074102051,53.53369502085317 L 474.8967312736027,37.89106589507341 L 474.8967312736027,24.0 L 542.3070940715719,24.0 L 542.3070940715719,37.89106589507355 Z" /><path d="M 605.8823331556453,129.9440578188225 L 605.8823331556453,144.0 L 538.4719703576761,144.0 L 538.4719703576761,129.94405781882244 L 547.5032464942786,114.30142869304254 L 563.1458756200583,105.2701525564402 L 581.2084278932631,105.2701525564402 L 596.8510570190427,114.30142869304257 L 605.8823331556453,129.9440578188225 Z" /><path d="M 596.0472094417495,106.90912384762936 L 588.0122754705565,102.2701525564402 L 596.0472094417495,97.63118126525106 L 596.0472094417495,106.90912384762936 Z" /><path d="M 556.3420280427649,102.2701525564402 L 548.3070940715719,106.90912384762933 L 548.3070940715719,97.63118126525103 L 556.3420280427649,102.2701525564402 Z" /><path d="M 596.8510570190427,40.89106589507338 L 605.8823331556453,56.53369502085329 L 605.8823331556453,74.59624729405814 L 596.8510570190429,90.23887641983774 L 581.208427893263,99.2701525564402 L 563.1458756200583,99.2701525564402 L 547.5032464942786,90.23887641983782 L 538.4719703576761,74.59624729405792 L 538.4719703576761,56.53369502085326 L 547.5032464942786,40.89106589507338 L 563.1458756200583,31.85978975847101 L 581.2084278932631,31.85978975847101 L 596.8510570190427,40.89106589507338 Z" /><path d="M 596.0472094417495,33.498761049660175 L 588.0122754705565,28.85978975847101 L 596.0472094417495,24.220818467281845 L 596.0472094417495,33.498761049660175 Z" /><path d="M 556.3420280427649,28.85978975847101 L 548.3070940715719,33.498761049660175 L 548.3070940715719,24.220818467281845 L 556.3420280427649,28.85978975847101 Z" /><path d="M 659.6224485258228,143.61430524661395 L 651.5875145546298,138.9753339554248 L 659.6224485258228,134.33636266423565 L 659.6224485258228,143.61430524661395 Z" /><path d="M 619.9172671268383,138.9753339554248 L 611.8823331556453,143.61430524661392 L 611.8823331556453,134.33636266423562 L 619.9172671268383,138.9753339554248 Z" /><path d="M 660.4262961031161,77.59624729405797 L 669.4575722397186,93.23887641983788 L 669.4575722397186,111.30142869304274 L 660.4262961031162,126.94405781882234 L 644.7836669773363,135.9753339554248 L 626.7211147041317,135.9753339554248 L 611.078485578352,126.94405781882242 L 602.0472094417495,111.30142869304251 L 602.0472094417495,93.23887641983785 L 611.078485578352,77.59624729405797 L 626.7211147041317,68.5649711574556 L 644.7836669773365,68.5649711574556 L 660.4262961031161,77.59624729405797 Z" /><path d="M 659.6224485258228,70.20394244864477 L 651.5875145546298,65.5649711574556 L 659.6224485258228,60.92599986626644 L 659.6224485258228,70.20394244864477 Z" /><path d="M 619.9172671268383,65.5649711574556 L 611.8823331556453,70.20394244864477 L 611.8823331556453,60.92599986626644 L 619.9172671268383,65.5649711574556 Z" /><path d="M 669.4575722397186,37.89106589507355 L 660.4262961031162,53.533695020853116 L 644.7836669773363,62.5649711574556 L 626.7211147041317,62.5649711574556 L 611.078485578352,53.53369502085323 L 602.0472094417495,37.891065895073325 L 602.0472094417495,24.0 L 669.4575722397186,24.0 L 669.4575722397186,37.89106589507355 Z" /><path d="M 733.032811323792,129.9440578188225 L 733.032811323792,144.0 L 665.6224485258228,144.0 L 665.6224485258228,129.94405781882244 L 674.6537246624254,114.30142869304254 L 690.296353788205,105.2701525564402 L 708.3589060614098,105.2701525564402 L 724.0015351871895,114.30142869304257 L 733.032811323792,129.9440578188225 Z" /><path d="M 723.1976876098962,106.90912384762936 L 715.1627536387032,102.2701525564402 L 723.1976876098962,97.63118126525106 L 723.1976876098962,106.90912384762936 Z" /><path d="M 683.4925062109116,102.2701525564402 L 675.4575722397186,106.90912384762933 L 675.4575722397186,97.63118126525103 L 683.4925062109116,102.2701525564402 Z" /><path d="M 724.0015351871895,40.89106589507338 L 733.032811323792,56.53369502085329 L 733.032811323792,74.59624729405814 L 724.0015351871896,90.23887641983774 L 708.3589060614097,99.2701525564402 L 690.296353788205,99.2701525564402 L 674.6537246624254,90.23887641983782 L 665.6224485258228,74.59624729405792 L 665.6224485258228,56.53369502085326 L 674.6537246624254,40.89106589507338 L 690.296353788205,31.85978975847101 L 708.3589060614098,31.85978975847101 L 724.0015351871895,40.89106589507338 Z" /><path d="M 723.1976876098962,33.498761049660175 L 715.1627536387032,28.85978975847101 L 723.1976876098962,24.220818467281845 L 723.1976876098962,33.498761049660175 Z" /><path d="M 683.4925062109116,28.85978975847101 L 675.4575722397186,33.498761049660175 L 675.4575722397186,24.220818467281845 L 683.4925062109116,28.85978975847101 Z" /><path d="M 786.7729266939696,143.61430524661395 L 778.7379927227765,138.9753339554248 L 786.7729266939696,134.33636266423565 L 786.7729266939696,143.61430524661395 Z" /><path d="M 747.067745294985,138.9753339554248 L 739.032811323792,143.61430524661392 L 739.032811323792,134.33636266423562 L 747.067745294985,138.9753339554248 Z" /><path d="M 787.5767742712628,77.59624729405797 L 796.6080504078653,93.23887641983788 L 796.6080504078653,111.30142869304274 L 787.5767742712629,126.94405781882234 L 771.9341451454831,135.9753339554248 L 753.8715928722784,135.9753339554248 L 738.2289637464987,126.94405781882242 L 729.1976876098962,111.30142869304251 L 729.1976876098962,93.23887641983785 L 738.2289637464987,77.59624729405797 L 753.8715928722784,68.5649711574556 L 771.9341451454832,68.5649711574556 L 787.5767742712628,77.59624729405797 Z" /><path d="M 786.7729266939696,70.20394244864477 L 778.7379927227765,65.5649711574556 L 786.7729266939696,60.92599986626644 L 786.7729266939696,70.20394244864477 Z" /><path d="M 747.067745294985,65.5649711574556 L 739.032811323792,70.20394244864477 L 739.032811323792,60.92599986626644 L 747.067745294985,65.5649711574556 Z" /><path d="M 796.6080504078653,37.89106589507355 L 787.5767742712629,53.533695020853116 L 771.9341451454831,62.5649711574556 L 753.8715928722784,62.5649711574556 L 738.2289637464987,53.53369502085323 L 729.1976876098962,37.891065895073325 L 729.1976876098962,24.0 L 796.6080504078653,24.0 L 796.6080504078653,37.89106589507355 Z" /><path d="M 860.1832894919387,129.9440578188225 L 860.1832894919387,144.0 L 792.7729266939696,144.0 L 792.7729266939696,129.94405781882244 L 801.8042028305721,114.30142869304254 L 817.4468319563517,105.2701525564402 L 835.5093842295565,105.2701525564402 L 851.1520133553362,114.30142869304257 L 860.1832894919387,129.9440578188225 Z" /><path d="M 850.3481657780429,106.90912384762936 L 842.3132318068499,102.2701525564402 L 850.3481657780429,97.63118126525106 L 850.3481657780429,106.90912384762936 Z" /><path d="M 810.6429843790584,102.2701525564402 L 802.6080504078653,106.90912384762933 L 802.6080504078653,97.63118126525103 L 810.6429843790584,102.2701525564402 Z" /><path d="M 851.1520133553362,40.89106589507338 L 860.1832894919387,56.53369502085329 L 860.1832894919387,74.59624729405814 L 851.1520133553363,90.23887641983774 L 835.5093842295564,99.2701525564402 L 817.4468319563517,99.2701525564402 L 801.8042028305721,90.23887641983782 L 792.7729266939696,74.59624729405792 L 792.7729266939696,56.53369502085326 L 801.8042028305721,40.89106589507338 L 817.4468319563517,31.85978975847101 L 835.5093842295565,31.85978975847101 L 851.1520133553362,40.89106589507338 Z" /><path d="M 850.3481657780429,33.498761049660175 L 842.3132318068499,28.85978975847101 L 850.3481657780429,24.220818467281845 L 850.3481657780429,33.498761049660175 Z" /><path d="M 810.6429843790584,28.85978975847101 L 802.6080504078653,33.498761049660175 L 802.6080504078653,24.220818467281845 L 810.6429843790584,28.85978975847101 Z" /><path d="M 913.9234048621163,143.61430524661395 L 905.8884708909233,138.9753339554248 L 913.9234048621163,134.33636266423565 L 913.9234048621163,143.61430524661395 Z" /><path d="M 874.2182234631317,138.9753339554248 L 866.1832894919387,143.61430524661392 L 866.1832894919387,134.33636266423562 L 874.2182234631317,138.9753339554248 Z" /><path d="M 914.7272524394095,77.59624729405797 L 923.758528576012,93.23887641983788 L 923.758528576012,111.30142869304274 L 914.7272524394097,126.94405781882234 L 899.0846233136298,135.9753339554248 L 881.0220710404251,135.9753339554248 L 865.3794419146454,126.94405781882242 L 856.3481657780429,111.30142869304251 L 856.3481657780429,93.23887641983785 L 865.3794419146454,77.59624729405797 L 881.0220710404251,68.5649711574556 L 899.0846233136299,68.5649711574556 L 914.7272524394095,77.59624729405797 Z" /><path d="M 913.9234048621163,70.20394244864477 L 905.8884708909233,65.5649711574556 L 913.9234048621163,60.92599986626644 L 913.9234048621163,70.20394244864477 Z" /><path d="M 874.2182234631317,65.5649711574556 L 866.1832894919387,70.20394244864477 L 866.1832894919387,60.92599986626644 L 874.2182234631317,65.5649711574556 Z" /><path d="M 923.758528576012,37.89106589507355 L 914.7272524394097,53.533695020853116 L 899.0846233136298,62.5649711574556 L 881.0220710404251,62.5649711574556 L 865.3794419146454,53.53369502085323 L 856.3481657780429,37.891065895073325 L 856.3481657780429,24.0 L 923.758528576012,24.0 L 923.758528576012,37.89106589507355 Z" /><path d="M 987.3337676600854,129.9440578188225 L 987.3337676600854,144.0 L 919.9234048621163,144.0 L 919.9234048621163,129.94405781882244 L 928.9546809987188,114.30142869304254 L 944.5973101244984,105.2701525564402 L 962.6598623977033,105.2701525564402 L 978.3024915234829,114.30142869304257 L 987.3337676600854,129.9440578188225 Z" /><path d="M 977.4986439461896,106.90912384762936 L 969.4637099749966,102.2701525564402 L 977.4986439461896,97.63118126525106 L 977.4986439461896,106.90912384762936 Z" /><path d="M 937.7934625472051,102.2701525564402 L 929.758528576012,106.90912384762933 L 929.758528576012,97.63118126525103 L 937.7934625472051,102.2701525564402 Z" /><path d="M 978.3024915234829,40.89106589507338 L 987.3337676600854,56.53369502085329 L 987.3337676600854,74.59624729405814 L 978.302491523483,90.23887641983774 L 962.6598623977031,99.2701525564402 L 944.5973101244984,99.2701525564402 L 928.9546809987188,90.23887641983782 L 919.9234048621163,74.59624729405792 L 919.9234048621163,56.53369502085326 L 928.9546809987188,40.89106589507338 L 944.5973101244984,31.85978975847101 L 962.6598623977033,31.85978975847101 L 978.3024915234829,40.89106589507338 Z" /><path d="M 977.4986439461896,33.498761049660175 L 969.4637099749966,28.85978975847101 L 977.4986439461896,24.220818467281845 L 977.4986439461896,33.498761049660175 Z" /><path d="M 937.7934625472051,28.85978975847101 L 929.758528576012,33.498761049660175 L 929.758528576012,24.220818467281845 L 937.7934625472051,28.85978975847101 Z" /><path d="M 1041.073883030263,143.61430524661392 L 1033.03894905907,138.9753339554248 L 1041.073883030263,134.33636266423565 L 1041.073883030263,143.61430524661392 Z" /><path d="M 1001.3687016312784,138.9753339554248 L 993.3337676600854,143.61430524661392 L 993.3337676600854,134.33636266423562 L 1001.3687016312784,138.9753339554248 Z" /><path d="M 1041.8777306075563,77.59624729405797 L 1050.909006744159,93.23887641983791 L 1050.909006744159,111.30142869304254 L 1041.8777306075563,126.94405781882243 L 1026.2351014817766,135.9753339554248 L 1008.1725492085718,135.9753339554248 L 992.5299200827922,126.94405781882242 L 983.4986439461896,111.30142869304251 L 983.4986439461896,93.23887641983785 L 992.5299200827922,77.59624729405797 L 1008.1725492085718,68.5649711574556 L 1026.2351014817766,68.5649711574556 L 1041.8777306075563,77.59624729405797 Z" /><path d="M 1041.073883030263,70.20394244864474 L 1033.03894905907,65.5649711574556 L 1041.073883030263,60.925999866266466 L 1041.073883030263,70.20394244864474 Z" /><path d="M 1001.3687016312784,65.5649711574556 L 993.3337676600854,70.20394244864477 L 993.3337676600854,60.92599986626644 L 1001.3687016312784,65.5649711574556 Z" /><path d="M 1050.909006744159,37.89106589507335 L 1041.8777306075563,53.5336950208532 L 1026.2351014817766,62.5649711574556 L 1008.1725492085718,62.5649711574556 L 992.5299200827922,53.53369502085323 L 983.4986439461896,37.891065895073325 L 983.4986439461896,24.0 L 1050.909006744159,24.0 L 1050.909006744159,37.89106589507335 Z" /><path d="M 1114.4842458282324,129.9440578188225 L 1114.4842458282324,144.0 L 1047.073883030263,144.0 L 1047.073883030263,129.94405781882247 L 1056.1051591668656,114.30142869304254 L 1071.7477882926453,105.2701525564402 L 1089.81034056585,105.2701525564402 L 1105.4529696916297,114.30142869304257 L 1114.4842458282324,129.9440578188225 Z" /><path d="M 1104.6491221143365,106.90912384762933 L 1096.6141881431436,102.2701525564402 L 1104.6491221143365,97.63118126525106 L 1104.6491221143365,106.90912384762933 Z" /><path d="M 1064.9439407153518,102.2701525564402 L 1056.909006744159,106.90912384762933 L 1056.909006744159,97.63118126525106 L 1064.9439407153518,102.2701525564402 Z" /><path d="M 1105.4529696916297,40.89106589507338 L 1114.4842458282324,56.533695020853315 L 1114.4842458282324,74.59624729405795 L 1105.4529696916297,90.23887641983782 L 1089.81034056585,99.2701525564402 L 1071.7477882926453,99.2701525564402 L 1056.1051591668656,90.23887641983782 L 1047.073883030263,74.59624729405789 L 1047.073883030263,56.53369502085329 L 1056.1051591668656,40.89106589507338 L 1071.7477882926453,31.85978975847101 L 1089.81034056585,31.85978975847101 L 1105.4529696916297,40.89106589507338 Z" /><path d="M 1104.6491221143365,33.498761049660146 L 1096.6141881431436,28.85978975847101 L 1104.6491221143365,24.220818467281873 L 1104.6491221143365,33.498761049660146 Z" /><path d="M 1064.9439407153518,28.85978975847101 L 1056.909006744159,33.498761049660146 L 1056.909006744159,24.220818467281873 L 1064.9439407153518,28.85978975847101 Z" /><path d="M 1168.22436119841,143.61430524661392 L 1160.189427227217,138.9753339554248 L 1168.22436119841,134.33636266423565 L 1168.22436119841,143.61430524661392 Z" /><path d="M 1128.5191797994253,138.9753339554248 L 1120.4842458282324,143.61430524661392 L 1120.4842458282324,134.33636266423565 L 1128.5191797994253,138.9753339554248 Z" /><path d="M 1169.0282087757032,77.59624729405797 L 1178.0594849123058,93.23887641983791 L 1178.0594849123058,111.30142869304254 L 1169.0282087757032,126.94405781882243 L 1153.3855796499236,135.9753339554248 L 1135.3230273767188,135.9753339554248 L 1119.680398250939,126.94405781882242 L 1110.6491221143365,111.30142869304248 L 1110.6491221143365,93.23887641983788 L 1119.680398250939,77.59624729405797 L 1135.3230273767188,68.5649711574556 L 1153.3855796499236,68.5649711574556 L 1169.0282087757032,77.59624729405797 Z" /><path d="M 1168.22436119841,70.20394244864474 L 1160.189427227217,65.5649711574556 L 1168.22436119841,60.925999866266466 L 1168.22436119841,70.20394244864474 Z" /><path d="M 1128.5191797994253,65.5649711574556 L 1120.4842458282324,70.20394244864474 L 1120.4842458282324,60.925999866266466 L 1128.5191797994253,65.5649711574556 Z" /><path d="M 1178.0594849123058,37.89106589507335 L 1169.0282087757032,53.5336950208532 L 1153.3855796499236,62.5649711574556 L 1135.3230273767188,62.5649711574556 L 1119.680398250939,53.53369502085323 L 1110.6491221143365,37.8910658950733 L 1110.6491221143365,24.0 L 1178.0594849123058,24.0 L 1178.0594849123058,37.89106589507335 Z" /><path d="M 1174.22436119841,129.94405781882247 L 1183.2556373350126,114.30142869304254 L 1193.4028690088808,108.44292175460527 L 1193.4028690088808,144.0 L 1174.22436119841,144.0 L 1174.22436119841,129.94405781882247 Z" /><path d="M 1192.0944188834987,102.2701525564402 L 1184.0594849123058,106.90912384762933 L 1184.0594849123058,97.63118126525106 L 1192.0944188834987,102.2701525564402 Z" /><path d="M 1183.2556373350126,90.23887641983782 L 1174.22436119841,74.59624729405789 L 1174.22436119841,56.53369502085329 L 1183.2556373350126,40.89106589507338 L 1193.4028690088808,35.03255895663608 L 1193.4028690088808,96.09738335827512 L 1183.2556373350126,90.23887641983782 Z" /><path d="M 1192.0944188834987,28.85978975847101 L 1184.0594849123058,33.498761049660146 L 1184.0594849123058,24.220818467281873 L 1192.0944188834987,28.85978975847101 Z" /><path d="M 310.4028690088809,170.0 L 1215.4028690088808,170.0 L 1215.4028690088808,0.0 L 310.4028690088809,0.0 L 310.4028690088809,170.0 Z" /></g></svg>