<?xml version="1.0" encoding="UTF-8" standalone="no"?>
<svg
   height="300mm"
   version="1.1"
   viewBox="0 0 1200 300"
   width="1200mm"
   id="svg286"
   sodipodi:docname="tabica_2.4_MEDIDAS.svg"
   inkscape:version="1.4.2 (1:1.4.2+202505120737+ebf0e940d0)"
   xmlns:inkscape="http://www.inkscape.org/namespaces/inkscape"
   xmlns:sodipodi="http://sodipodi.sourceforge.net/DTD/sodipodi-0.dtd"
   xmlns="http://www.w3.org/2000/svg"
   xmlns:svg="http://www.w3.org/2000/svg">
  <sodipodi:namedview
     id="namedview286"
     pagecolor="#ffffff"
     bordercolor="#666666"
     borderopacity="1.0"
     inkscape:showpageshadow="2"
     inkscape:pageopacity="0.0"
     inkscape:pagecheckerboard="0"
     inkscape:deskcolor="#d1d1d1"
     inkscape:document-units="mm"
     showgrid="false"
     inkscape:zoom="0.25833828"
     inkscape:cx="2450.2757"
     inkscape:cy="634.82655"
     inkscape:window-width="1920"
     inkscape:window-height="1011"
     inkscape:window-x="0"
     inkscape:window-y="0"
     inkscape:window-maximized="1"
     inkscape:current-layer="g1" />
  <defs
     id="defs1">
    <marker
       style="overflow:visible"
       id="Stop"
       refX="0"
       refY="0"
       orient="auto"
       inkscape:stockid="Stop"
       markerWidth="1"
       markerHeight="1"
       viewBox="0 0 1 1"
       inkscape:isstock="true"
       inkscape:collect="always"
       preserveAspectRatio="xMidYMid">
      <path
         style="fill:none;stroke:context-stroke;stroke-width:1"
         d="M 0,4 V -4"
         id="path203-7" />
    </marker>
  </defs>
  <g
     id="g1"
     transform="translate(-16.9871,0.94448495)">
    <path
       style="fill:none;stroke:#000000;stroke-width:1.265;stroke-linecap:butt;stroke-linejoin:miter;stroke-dasharray:none;stroke-opacity:1;marker-start:url(#Stop);marker-end:url(#Stop)"
       d="M 121.45103,64.53827 V 234.56732"
       id="path202-6"
       sodipodi:nodetypes="cc" />
    <text
       xml:space="preserve"
       style="font-size:25.4px;line-height:1.25;font-family:'Noto Mono';-inkscape-font-specification:'Noto Mono';word-spacing:0px;stroke-width:0.264583"
       x="66.370026"
       y="155.38345"
       id="text203"><tspan
         sodipodi:role="line"
         id="tspan203"
         style="stroke-width:0.264583"
         x="66.370026"
         y="155.38345">170</tspan></text>
    <text
       xml:space="preserve"
       style="font-size:25.4px;line-height:1.25;font-family:'Noto Mono';-inkscape-font-specification:'Noto Mono';word-spacing:0px;stroke-width:0.264583"
       x="131.98677"
       y="231.6404"
       id="text203-7"><tspan
         sodipodi:role="line"
         id="tspan203-9"
         style="stroke-width:0.264583"
         x="131.98677"
         y="231.6404">26</tspan></text>
    <text
       xml:space="preserve"
       style="font-size:25.4px;line-height:1.25;font-family:'Noto Mono';-inkscape-font-specification:'Noto Mono';word-spacing:0px;stroke-width:0.264583"
       x="554.61005"
       y="39.340687"
       id="text203-6"><tspan
         sodipodi:role="line"
         id="tspan203-7"
         style="stroke-width:0.264583"
         x="554.61005"
         y="39.340687">Tabica 2.5</tspan></text>
    <path
       style="fill:none;stroke:#000000;stroke-width:1.265;stroke-linecap:butt;stroke-linejoin:miter;stroke-dasharray:none;stroke-opacity:1;marker-start:url(#Stop);marker-end:url(#Stop)"
       d="M 1097.0957,87.75532 V 207.75532"
       id="path204-2"
       sodipodi:nodetypes="cc" />
    <text
       xml:space="preserve"
       style="font-size:25.4px;line-height:1.25;font-family:'Noto Mono';-inkscape-font-specification:'Noto Mono';word-spacing:0px;stroke-width:0.264583"
       x="1120.9218"
       y="155.51367"
       id="text204"><tspan
         sodipodi:role="line"
         id="tspan204"
         style="stroke-width:0.264583"
         x="1120.9218"
         y="155.51367">120</tspan></text>
    <path
       style="fill:none;stroke:#000000;stroke-width:1.265;stroke-linecap:butt;stroke-linejoin:miter;stroke-dasharray:none;stroke-opacity:1;marker-start:url(#Stop);marker-end:url(#Stop)"
       d="M 1069.2376,249.91325 H 164.73656"
       id="path205-6"
       sodipodi:nodetypes="cc" />
    <text
       xml:space="preserve"
       style="font-size:25.4px;line-height:1.25;font-family:'Noto Mono';-inkscape-font-specification:'Noto Mono';word-spacing:0px;stroke-width:0.264583"
       x="601.76196"
       y="277.82034"
       id="text205"><tspan
         sodipodi:role="line"
         id="tspan205"
         style="stroke-width:0.264583"
         x="601.76196"
         y="277.82034">905</tspan></text>
    <path
       style="fill:none;stroke:#000000;stroke-width:1.265;stroke-linecap:butt;stroke-linejoin:miter;stroke-dasharray:none;stroke-opacity:1;marker-start:url(#Stop);marker-end:url(#Stop)"
       d="M 164.73747,209 V 235"
       id="path246-6" />
  </g>
  <g
     fill="none"
     stroke="#0000ff"
     stroke-width="0.5"
     transform="translate(-162.90289,65)"
     id="g87"
     style="vector-effect:non-scaling-stroke;stroke-width:0.264583;stroke-dasharray:none;-inkscape-stroke:hairline">
    <path
       d="M 351.58138,129.94406 V 144 H 332.40287 V 108.44292 L 342.5501,114.30143 Z"
       id="path1"
       style="vector-effect:non-scaling-stroke;stroke-width:0.264583;stroke-dasharray:none;-inkscape-stroke:hairline" />
    <path
       d="M 341.74625,106.90912 333.71132,102.27015 341.74625,97.631181 Z"
       id="path2"
       style="vector-effect:non-scaling-stroke;stroke-width:0.264583;stroke-dasharray:none;-inkscape-stroke:hairline" />
    <path
       d="M 351.58138,56.533695 V 74.596247 L 342.5501,90.238876 332.40287,96.097383 V 35.032559 L 342.5501,40.891066 Z"
       id="path3"
       style="vector-effect:non-scaling-stroke;stroke-width:0.264583;stroke-dasharray:none;-inkscape-stroke:hairline" />
    <path
       d="M 341.74625,33.498761 333.71132,28.85979 341.74625,24.220818 Z"
       id="path4"
       style="vector-effect:non-scaling-stroke;stroke-width:0.264583;stroke-dasharray:none;-inkscape-stroke:hairline" />
    <path
       d="M 405.32149,143.61431 397.28656,138.97533 405.32149,134.33636 Z"
       id="path5"
       style="vector-effect:non-scaling-stroke;stroke-width:0.264583;stroke-dasharray:none;-inkscape-stroke:hairline" />
    <path
       d="M 365.61631,138.97533 357.58138,143.61431 V 134.33636 Z"
       id="path6"
       style="vector-effect:non-scaling-stroke;stroke-width:0.264583;stroke-dasharray:none;-inkscape-stroke:hairline" />
    <path
       d="M 406.12534,77.596247 415.15662,93.238876 V 111.30143 L 406.12534,126.94406 390.48271,135.97533 H 372.42016 L 356.77753,126.94406 347.74625,111.30143 V 93.238876 L 356.77753,77.596247 372.42016,68.564971 H 390.48271 Z"
       id="path7"
       style="vector-effect:non-scaling-stroke;stroke-width:0.264583;stroke-dasharray:none;-inkscape-stroke:hairline" />
    <path
       d="M 405.32149,70.203942 397.28656,65.564971 405.32149,60.926 Z"
       id="path8"
       style="vector-effect:non-scaling-stroke;stroke-width:0.264583;stroke-dasharray:none;-inkscape-stroke:hairline" />
    <path
       d="M 365.61631,65.564971 357.58138,70.203942 V 60.926 Z"
       id="path9"
       style="vector-effect:non-scaling-stroke;stroke-width:0.264583;stroke-dasharray:none;-inkscape-stroke:hairline" />
    <path
       d="M 415.15662,37.891066 406.12534,53.533695 390.48271,62.564971 H 372.42016 L 356.77753,53.533695 347.74625,37.891066 V 24 H 415.15662 Z"
       id="path10"
       style="vector-effect:non-scaling-stroke;stroke-width:0.264583;stroke-dasharray:none;-inkscape-stroke:hairline" />
    <path
       d="M 478.73185,129.94406 V 144 H 411.32149 V 129.94406 L 420.35277,114.30143 435.9954,105.27015 H 454.05795 L 469.70058,114.30143 Z"
       id="path11"
       style="vector-effect:non-scaling-stroke;stroke-width:0.264583;stroke-dasharray:none;-inkscape-stroke:hairline" />
    <path
       d="M 468.89673,106.90912 460.8618,102.27015 468.89673,97.631181 Z"
       id="path12"
       style="vector-effect:non-scaling-stroke;stroke-width:0.264583;stroke-dasharray:none;-inkscape-stroke:hairline" />
    <path
       d="M 429.19155,102.27015 421.15662,106.90912 V 97.631181 Z"
       id="path13"
       style="vector-effect:non-scaling-stroke;stroke-width:0.264583;stroke-dasharray:none;-inkscape-stroke:hairline" />
    <path
       d="M 469.70058,40.891066 478.73185,56.533695 V 74.596247 L 469.70058,90.238876 454.05795,99.270153 H 435.9954 L 420.35277,90.238876 411.32149,74.596247 V 56.533695 L 420.35277,40.891066 435.9954,31.85979 H 454.05795 Z"
       id="path14"
       style="vector-effect:non-scaling-stroke;stroke-width:0.264583;stroke-dasharray:none;-inkscape-stroke:hairline" />
    <path
       d="M 468.89673,33.498761 460.8618,28.85979 468.89673,24.220818 Z"
       id="path15"
       style="vector-effect:non-scaling-stroke;stroke-width:0.264583;stroke-dasharray:none;-inkscape-stroke:hairline" />
    <path
       d="M 429.19155,28.85979 421.15662,33.498761 V 24.220818 Z"
       id="path16"
       style="vector-effect:non-scaling-stroke;stroke-width:0.264583;stroke-dasharray:none;-inkscape-stroke:hairline" />
    <path
       d="M 532.47197,143.61431 524.43704,138.97533 532.47197,134.33636 Z"
       id="path17"
       style="vector-effect:non-scaling-stroke;stroke-width:0.264583;stroke-dasharray:none;-inkscape-stroke:hairline" />
    <path
       d="M 492.76679,138.97533 484.73185,143.61431 V 134.33636 Z"
       id="path18"
       style="vector-effect:non-scaling-stroke;stroke-width:0.264583;stroke-dasharray:none;-inkscape-stroke:hairline" />
    <path
       d="M 533.27582,77.596247 542.30709,93.238876 V 111.30143 L 533.27582,126.94406 517.63319,135.97533 H 499.57064 L 483.92801,126.94406 474.89673,111.30143 V 93.238876 L 483.92801,77.596247 499.57064,68.564971 H 517.63319 Z"
       id="path19"
       style="vector-effect:non-scaling-stroke;stroke-width:0.264583;stroke-dasharray:none;-inkscape-stroke:hairline" />
    <path
       d="M 532.47197,70.203942 524.43704,65.564971 532.47197,60.926 Z"
       id="path20"
       style="vector-effect:non-scaling-stroke;stroke-width:0.264583;stroke-dasharray:none;-inkscape-stroke:hairline" />
    <path
       d="M 492.76679,65.564971 484.73185,70.203942 V 60.926 Z"
       id="path21"
       style="vector-effect:non-scaling-stroke;stroke-width:0.264583;stroke-dasharray:none;-inkscape-stroke:hairline" />
    <path
       d="M 542.30709,37.891066 533.27582,53.533695 517.63319,62.564971 H 499.57064 L 483.92801,53.533695 474.89673,37.891066 V 24 H 542.30709 Z"
       id="path22"
       style="vector-effect:non-scaling-stroke;stroke-width:0.264583;stroke-dasharray:none;-inkscape-stroke:hairline" />
    <path
       d="M 605.88233,129.94406 V 144 H 538.47197 V 129.94406 L 547.50325,114.30143 563.14588,105.27015 H 581.20843 L 596.85106,114.30143 Z"
       id="path23"
       style="vector-effect:non-scaling-stroke;stroke-width:0.264583;stroke-dasharray:none;-inkscape-stroke:hairline" />
    <path
       d="M 596.04721,106.90912 588.01228,102.27015 596.04721,97.631181 Z"
       id="path24"
       style="vector-effect:non-scaling-stroke;stroke-width:0.264583;stroke-dasharray:none;-inkscape-stroke:hairline" />
    <path
       d="M 556.34203,102.27015 548.30709,106.90912 V 97.631181 Z"
       id="path25"
       style="vector-effect:non-scaling-stroke;stroke-width:0.264583;stroke-dasharray:none;-inkscape-stroke:hairline" />
    <path
       d="M 596.85106,40.891066 605.88233,56.533695 V 74.596247 L 596.85106,90.238876 581.20843,99.270153 H 563.14588 L 547.50325,90.238876 538.47197,74.596247 V 56.533695 L 547.50325,40.891066 563.14588,31.85979 H 581.20843 Z"
       id="path26"
       style="vector-effect:non-scaling-stroke;stroke-width:0.264583;stroke-dasharray:none;-inkscape-stroke:hairline" />
    <path
       d="M 596.04721,33.498761 588.01228,28.85979 596.04721,24.220818 Z"
       id="path27"
       style="vector-effect:non-scaling-stroke;stroke-width:0.264583;stroke-dasharray:none;-inkscape-stroke:hairline" />
    <path
       d="M 556.34203,28.85979 548.30709,33.498761 V 24.220818 Z"
       id="path28"
       style="vector-effect:non-scaling-stroke;stroke-width:0.264583;stroke-dasharray:none;-inkscape-stroke:hairline" />
    <path
       d="M 659.62245,143.61431 651.58751,138.97533 659.62245,134.33636 Z"
       id="path29"
       style="vector-effect:non-scaling-stroke;stroke-width:0.264583;stroke-dasharray:none;-inkscape-stroke:hairline" />
    <path
       d="M 619.91727,138.97533 611.88233,143.61431 V 134.33636 Z"
       id="path30"
       style="vector-effect:non-scaling-stroke;stroke-width:0.264583;stroke-dasharray:none;-inkscape-stroke:hairline" />
    <path
       d="M 660.4263,77.596247 669.45757,93.238876 V 111.30143 L 660.4263,126.94406 644.78367,135.97533 H 626.72111 L 611.07849,126.94406 602.04721,111.30143 V 93.238876 L 611.07849,77.596247 626.72111,68.564971 H 644.78367 Z"
       id="path31"
       style="vector-effect:non-scaling-stroke;stroke-width:0.264583;stroke-dasharray:none;-inkscape-stroke:hairline" />
    <path
       d="M 659.62245,70.203942 651.58751,65.564971 659.62245,60.926 Z"
       id="path32"
       style="vector-effect:non-scaling-stroke;stroke-width:0.264583;stroke-dasharray:none;-inkscape-stroke:hairline" />
    <path
       d="M 619.91727,65.564971 611.88233,70.203942 V 60.926 Z"
       id="path33"
       style="vector-effect:non-scaling-stroke;stroke-width:0.264583;stroke-dasharray:none;-inkscape-stroke:hairline" />
    <path
       d="M 669.45757,37.891066 660.4263,53.533695 644.78367,62.564971 H 626.72111 L 611.07849,53.533695 602.04721,37.891066 V 24 H 669.45757 Z"
       id="path34"
       style="vector-effect:non-scaling-stroke;stroke-width:0.264583;stroke-dasharray:none;-inkscape-stroke:hairline" />
    <path
       d="M 733.03281,129.94406 V 144 H 665.62245 V 129.94406 L 674.65372,114.30143 690.29635,105.27015 H 708.35891 L 724.00154,114.30143 Z"
       id="path35"
       style="vector-effect:non-scaling-stroke;stroke-width:0.264583;stroke-dasharray:none;-inkscape-stroke:hairline" />
    <path
       d="M 723.19769,106.90912 715.16275,102.27015 723.19769,97.631181 Z"
       id="path36"
       style="vector-effect:non-scaling-stroke;stroke-width:0.264583;stroke-dasharray:none;-inkscape-stroke:hairline" />
    <path
       d="M 683.49251,102.27015 675.45757,106.90912 V 97.631181 Z"
       id="path37"
       style="vector-effect:non-scaling-stroke;stroke-width:0.264583;stroke-dasharray:none;-inkscape-stroke:hairline" />
    <path
       d="M 724.00154,40.891066 733.03281,56.533695 V 74.596247 L 724.00154,90.238876 708.35891,99.270153 H 690.29635 L 674.65372,90.238876 665.62245,74.596247 V 56.533695 L 674.65372,40.891066 690.29635,31.85979 H 708.35891 Z"
       id="path38"
       style="vector-effect:non-scaling-stroke;stroke-width:0.264583;stroke-dasharray:none;-inkscape-stroke:hairline" />
    <path
       d="M 723.19769,33.498761 715.16275,28.85979 723.19769,24.220818 Z"
       id="path39"
       style="vector-effect:non-scaling-stroke;stroke-width:0.264583;stroke-dasharray:none;-inkscape-stroke:hairline" />
    <path
       d="M 683.49251,28.85979 675.45757,33.498761 V 24.220818 Z"
       id="path40"
       style="vector-effect:non-scaling-stroke;stroke-width:0.264583;stroke-dasharray:none;-inkscape-stroke:hairline" />
    <path
       d="M 786.77293,143.61431 778.73799,138.97533 786.77293,134.33636 Z"
       id="path41"
       style="vector-effect:non-scaling-stroke;stroke-width:0.264583;stroke-dasharray:none;-inkscape-stroke:hairline" />
    <path
       d="M 747.06775,138.97533 739.03281,143.61431 V 134.33636 Z"
       id="path42"
       style="vector-effect:non-scaling-stroke;stroke-width:0.264583;stroke-dasharray:none;-inkscape-stroke:hairline" />
    <path
       d="M 787.57677,77.596247 796.60805,93.238876 V 111.30143 L 787.57677,126.94406 771.93415,135.97533 H 753.87159 L 738.22896,126.94406 729.19769,111.30143 V 93.238876 L 738.22896,77.596247 753.87159,68.564971 H 771.93415 Z"
       id="path43"
       style="vector-effect:non-scaling-stroke;stroke-width:0.264583;stroke-dasharray:none;-inkscape-stroke:hairline" />
    <path
       d="M 786.77293,70.203942 778.73799,65.564971 786.77293,60.926 Z"
       id="path44"
       style="vector-effect:non-scaling-stroke;stroke-width:0.264583;stroke-dasharray:none;-inkscape-stroke:hairline" />
    <path
       d="M 747.06775,65.564971 739.03281,70.203942 V 60.926 Z"
       id="path45"
       style="vector-effect:non-scaling-stroke;stroke-width:0.264583;stroke-dasharray:none;-inkscape-stroke:hairline" />
    <path
       d="M 796.60805,37.891066 787.57677,53.533695 771.93415,62.564971 H 753.87159 L 738.22896,53.533695 729.19769,37.891066 V 24 H 796.60805 Z"
       id="path46"
       style="vector-effect:non-scaling-stroke;stroke-width:0.264583;stroke-dasharray:none;-inkscape-stroke:hairline" />
    <path
       d="M 860.18329,129.94406 V 144 H 792.77293 V 129.94406 L 801.8042,114.30143 817.44683,105.27015 H 835.50938 L 851.15201,114.30143 Z"
       id="path47"
       style="vector-effect:non-scaling-stroke;stroke-width:0.264583;stroke-dasharray:none;-inkscape-stroke:hairline" />
    <path
       d="M 850.34817,106.90912 842.31323,102.27015 850.34817,97.631181 Z"
       id="path48"
       style="vector-effect:non-scaling-stroke;stroke-width:0.264583;stroke-dasharray:none;-inkscape-stroke:hairline" />
    <path
       d="M 810.64298,102.27015 802.60805,106.90912 V 97.631181 Z"
       id="path49"
       style="vector-effect:non-scaling-stroke;stroke-width:0.264583;stroke-dasharray:none;-inkscape-stroke:hairline" />
    <path
       d="M 851.15201,40.891066 860.18329,56.533695 V 74.596247 L 851.15201,90.238876 835.50938,99.270153 H 817.44683 L 801.8042,90.238876 792.77293,74.596247 V 56.533695 L 801.8042,40.891066 817.44683,31.85979 H 835.50938 Z"
       id="path50"
       style="vector-effect:non-scaling-stroke;stroke-width:0.264583;stroke-dasharray:none;-inkscape-stroke:hairline" />
    <path
       d="M 850.34817,33.498761 842.31323,28.85979 850.34817,24.220818 Z"
       id="path51"
       style="vector-effect:non-scaling-stroke;stroke-width:0.264583;stroke-dasharray:none;-inkscape-stroke:hairline" />
    <path
       d="M 810.64298,28.85979 802.60805,33.498761 V 24.220818 Z"
       id="path52"
       style="vector-effect:non-scaling-stroke;stroke-width:0.264583;stroke-dasharray:none;-inkscape-stroke:hairline" />
    <path
       d="M 913.9234,143.61431 905.88847,138.97533 913.9234,134.33636 Z"
       id="path53"
       style="vector-effect:non-scaling-stroke;stroke-width:0.264583;stroke-dasharray:none;-inkscape-stroke:hairline" />
    <path
       d="M 874.21822,138.97533 866.18329,143.61431 V 134.33636 Z"
       id="path54"
       style="vector-effect:non-scaling-stroke;stroke-width:0.264583;stroke-dasharray:none;-inkscape-stroke:hairline" />
    <path
       d="M 914.72725,77.596247 923.75853,93.238876 V 111.30143 L 914.72725,126.94406 899.08462,135.97533 H 881.02207 L 865.37944,126.94406 856.34817,111.30143 V 93.238876 L 865.37944,77.596247 881.02207,68.564971 H 899.08462 Z"
       id="path55"
       style="vector-effect:non-scaling-stroke;stroke-width:0.264583;stroke-dasharray:none;-inkscape-stroke:hairline" />
    <path
       d="M 913.9234,70.203942 905.88847,65.564971 913.9234,60.926 Z"
       id="path56"
       style="vector-effect:non-scaling-stroke;stroke-width:0.264583;stroke-dasharray:none;-inkscape-stroke:hairline" />
    <path
       d="M 874.21822,65.564971 866.18329,70.203942 V 60.926 Z"
       id="path57"
       style="vector-effect:non-scaling-stroke;stroke-width:0.264583;stroke-dasharray:none;-inkscape-stroke:hairline" />
    <path
       d="M 923.75853,37.891066 914.72725,53.533695 899.08462,62.564971 H 881.02207 L 865.37944,53.533695 856.34817,37.891066 V 24 H 923.75853 Z"
       id="path58"
       style="vector-effect:non-scaling-stroke;stroke-width:0.264583;stroke-dasharray:none;-inkscape-stroke:hairline" />
    <path
       d="M 987.33377,129.94406 V 144 H 919.9234 V 129.94406 L 928.95468,114.30143 944.59731,105.27015 H 962.65986 L 978.30249,114.30143 Z"
       id="path59"
       style="vector-effect:non-scaling-stroke;stroke-width:0.264583;stroke-dasharray:none;-inkscape-stroke:hairline" />
    <path
       d="M 977.49864,106.90912 969.46371,102.27015 977.49864,97.631181 Z"
       id="path60"
       style="vector-effect:non-scaling-stroke;stroke-width:0.264583;stroke-dasharray:none;-inkscape-stroke:hairline" />
    <path
       d="M 937.79346,102.27015 929.75853,106.90912 V 97.631181 Z"
       id="path61"
       style="vector-effect:non-scaling-stroke;stroke-width:0.264583;stroke-dasharray:none;-inkscape-stroke:hairline" />
    <path
       d="M 978.30249,40.891066 987.33377,56.533695 V 74.596247 L 978.30249,90.238876 962.65986,99.270153 H 944.59731 L 928.95468,90.238876 919.9234,74.596247 V 56.533695 L 928.95468,40.891066 944.59731,31.85979 H 962.65986 Z"
       id="path62"
       style="vector-effect:non-scaling-stroke;stroke-width:0.264583;stroke-dasharray:none;-inkscape-stroke:hairline" />
    <path
       d="M 977.49864,33.498761 969.46371,28.85979 977.49864,24.220818 Z"
       id="path63"
       style="vector-effect:non-scaling-stroke;stroke-width:0.264583;stroke-dasharray:none;-inkscape-stroke:hairline" />
    <path
       d="M 937.79346,28.85979 929.75853,33.498761 V 24.220818 Z"
       id="path64"
       style="vector-effect:non-scaling-stroke;stroke-width:0.264583;stroke-dasharray:none;-inkscape-stroke:hairline" />
    <path
       d="M 1041.0739,143.61431 1033.0389,138.97533 1041.0739,134.33636 Z"
       id="path65"
       style="vector-effect:non-scaling-stroke;stroke-width:0.264583;stroke-dasharray:none;-inkscape-stroke:hairline" />
    <path
       d="M 1001.3687,138.97533 993.33377,143.61431 V 134.33636 Z"
       id="path66"
       style="vector-effect:non-scaling-stroke;stroke-width:0.264583;stroke-dasharray:none;-inkscape-stroke:hairline" />
    <path
       d="M 1041.8777,77.596247 1050.909,93.238876 V 111.30143 L 1041.8777,126.94406 1026.2351,135.97533 H 1008.1725 L 992.52992,126.94406 983.49864,111.30143 V 93.238876 L 992.52992,77.596247 1008.1725,68.564971 H 1026.2351 Z"
       id="path67"
       style="vector-effect:non-scaling-stroke;stroke-width:0.264583;stroke-dasharray:none;-inkscape-stroke:hairline" />
    <path
       d="M 1041.0739,70.203942 1033.0389,65.564971 1041.0739,60.926 Z"
       id="path68"
       style="vector-effect:non-scaling-stroke;stroke-width:0.264583;stroke-dasharray:none;-inkscape-stroke:hairline" />
    <path
       d="M 1001.3687,65.564971 993.33377,70.203942 V 60.926 Z"
       id="path69"
       style="vector-effect:non-scaling-stroke;stroke-width:0.264583;stroke-dasharray:none;-inkscape-stroke:hairline" />
    <path
       d="M 1050.909,37.891066 1041.8777,53.533695 1026.2351,62.564971 H 1008.1725 L 992.52992,53.533695 983.49864,37.891066 V 24 H 1050.909 Z"
       id="path70"
       style="vector-effect:non-scaling-stroke;stroke-width:0.264583;stroke-dasharray:none;-inkscape-stroke:hairline" />
    <path
       d="M 1114.4842,129.94406 V 144 H 1047.0739 V 129.94406 L 1056.1052,114.30143 1071.7478,105.27015 H 1089.8103 L 1105.453,114.30143 Z"
       id="path71"
       style="vector-effect:non-scaling-stroke;stroke-width:0.264583;stroke-dasharray:none;-inkscape-stroke:hairline" />
    <path
       d="M 1104.6491,106.90912 1096.6142,102.27015 1104.6491,97.631181 Z"
       id="path72"
       style="vector-effect:non-scaling-stroke;stroke-width:0.264583;stroke-dasharray:none;-inkscape-stroke:hairline" />
    <path
       d="M 1064.9439,102.27015 1056.909,106.90912 V 97.631181 Z"
       id="path73"
       style="vector-effect:non-scaling-stroke;stroke-width:0.264583;stroke-dasharray:none;-inkscape-stroke:hairline" />
    <path
       d="M 1105.453,40.891066 1114.4842,56.533695 V 74.596247 L 1105.453,90.238876 1089.8103,99.270153 H 1071.7478 L 1056.1052,90.238876 1047.0739,74.596247 V 56.533695 L 1056.1052,40.891066 1071.7478,31.85979 H 1089.8103 Z"
       id="path74"
       style="vector-effect:non-scaling-stroke;stroke-width:0.264583;stroke-dasharray:none;-inkscape-stroke:hairline" />
    <path
       d="M 1104.6491,33.498761 1096.6142,28.85979 1104.6491,24.220818 Z"
       id="path75"
       style="vector-effect:non-scaling-stroke;stroke-width:0.264583;stroke-dasharray:none;-inkscape-stroke:hairline" />
    <path
       d="M 1064.9439,28.85979 1056.909,33.498761 V 24.220818 Z"
       id="path76"
       style="vector-effect:non-scaling-stroke;stroke-width:0.264583;stroke-dasharray:none;-inkscape-stroke:hairline" />
    <path
       d="M 1168.2244,143.61431 1160.1894,138.97533 1168.2244,134.33636 Z"
       id="path77"
       style="vector-effect:non-scaling-stroke;stroke-width:0.264583;stroke-dasharray:none;-inkscape-stroke:hairline" />
    <path
       d="M 1128.5192,138.97533 1120.4842,143.61431 V 134.33636 Z"
       id="path78"
       style="vector-effect:non-scaling-stroke;stroke-width:0.264583;stroke-dasharray:none;-inkscape-stroke:hairline" />
    <path
       d="M 1169.0282,77.596247 1178.0595,93.238876 V 111.30143 L 1169.0282,126.94406 1153.3856,135.97533 H 1135.323 L 1119.6804,126.94406 1110.6491,111.30143 V 93.238876 L 1119.6804,77.596247 1135.323,68.564971 H 1153.3856 Z"
       id="path79"
       style="vector-effect:non-scaling-stroke;stroke-width:0.264583;stroke-dasharray:none;-inkscape-stroke:hairline" />
    <path
       d="M 1168.2244,70.203942 1160.1894,65.564971 1168.2244,60.926 Z"
       id="path80"
       style="vector-effect:non-scaling-stroke;stroke-width:0.264583;stroke-dasharray:none;-inkscape-stroke:hairline" />
    <path
       d="M 1128.5192,65.564971 1120.4842,70.203942 V 60.926 Z"
       id="path81"
       style="vector-effect:non-scaling-stroke;stroke-width:0.264583;stroke-dasharray:none;-inkscape-stroke:hairline" />
    <path
       d="M 1178.0595,37.891066 1169.0282,53.533695 1153.3856,62.564971 H 1135.323 L 1119.6804,53.533695 1110.6491,37.891066 V 24 H 1178.0595 Z"
       id="path82"
       style="vector-effect:non-scaling-stroke;stroke-width:0.264583;stroke-dasharray:none;-inkscape-stroke:hairline" />
    <path
       d="M 1174.2244,129.94406 1183.2556,114.30143 1193.4029,108.44292 V 144 H 1174.2244 Z"
       id="path83"
       style="vector-effect:non-scaling-stroke;stroke-width:0.264583;stroke-dasharray:none;-inkscape-stroke:hairline" />
    <path
       d="M 1192.0944,102.27015 1184.0595,106.90912 V 97.631181 Z"
       id="path84"
       style="vector-effect:non-scaling-stroke;stroke-width:0.264583;stroke-dasharray:none;-inkscape-stroke:hairline" />
    <path
       d="M 1183.2556,90.238876 1174.2244,74.596247 V 56.533695 L 1183.2556,40.891066 1193.4029,35.032559 V 96.097383 Z"
       id="path85"
       style="vector-effect:non-scaling-stroke;stroke-width:0.264583;stroke-dasharray:none;-inkscape-stroke:hairline" />
    <path
       d="M 1192.0944,28.85979 1184.0595,33.498761 V 24.220818 Z"
       id="path86"
       style="vector-effect:non-scaling-stroke;stroke-width:0.264583;stroke-dasharray:none;-inkscape-stroke:hairline" />
    <path
       d="M 310.40287,170 H 1215.4029 V 0 H 310.40287 Z"
       id="path87"
       style="vector-effect:non-scaling-stroke;stroke-width:0.264583;stroke-dasharray:none;-inkscape-stroke:hairline" />
  </g>
</svg>
