  0
SECTION
  2
HEADER
  9
$ACADVER
  1
AC1014
  9
$HANDSEED
  5
FFFF
  9
$INSUNITS
 70
     4
  9
$MEASUREMENT
 70
     1
  0
ENDSEC
  0
SECTION
  2
TABLES
  0
TABLE
  2
VPORT
  5
8
330
0
100
AcDbSymbolTable
 70
     4
  0
VPORT
  5
2E
330
8
100
AcDbSymbolTableRecord
100
AcDbViewportTableRecord
  2
*ACTIVE
 70
     0
 10
0.0
 20
0.0
 11
1.0
 21
1.0
 12
210.0
 22
148.5
 13
0.0
 23
0.0
 14
10.0
 24
10.0
 15
10.0
 25
10.0
 16
0.0
 26
0.0
 36
1.0
 17
0.0
 27
0.0
 37
0.0
 40
341.0
 41
1.24
 42
50.0
 43
0.0
 44
0.0
 50
0.0
 51
0.0
 71
     0
 72
   100
 73
     1
 74
     3
 75
     0
 76
     0
 77
     0
 78
     0
  0
ENDTAB
  0
TABLE
  2
LTYPE
  5
5
330
0
100
AcDbSymbolTable
 70
     1
  0
LTYPE
  5
14
330
5
100
AcDbSymbolTableRecord
100
AcDbLinetypeTableRecord
  2
BYBLOCK
 70
     0
  3

 72
    65
 73
     0
 40
0.0
  0
LTYPE
  5
15
330
5
100
AcDbSymbolTableRecord
100
AcDbLinetypeTableRecord
  2
BYLAYER
 70
     0
  3

 72
    65
 73
     0
 40
0.0
  0
LTYPE
  5
16
330
5
100
AcDbSymbolTableRecord
100
AcDbLinetypeTableRecord
  2
CONTINUOUS
 70
     0
  3
Solid line
 72
    65
 73
     0
 40
0.0
  0
ENDTAB
  0
TABLE
  2
LAYER
  5
2
100
AcDbSymbolTable
 70
1
  0
LAYER
  5
50
100
AcDbSymbolTableRecord
100
AcDbLayerTableRecord
  2
0
 70
0
  6
CONTINUOUS
  0
ENDTAB
  0
TABLE
  2
STYLE
  5
3
330
0
100
AcDbSymbolTable
 70
     1
  0
STYLE
  5
11
330
3
100
AcDbSymbolTableRecord
100
AcDbTextStyleTableRecord
  2
STANDARD
 70
     0
 40
0.0
 41
1.0
 50
0.0
 71
     0
 42
2.5
  3
txt
  4

  0
ENDTAB
  0
TABLE
  2
VIEW
  5
6
330
0
100
AcDbSymbolTable
 70
     0
  0
ENDTAB
  0
TABLE
  2
UCS
  5
7
330
0
100
AcDbSymbolTable
 70
     0
  0
ENDTAB
  0
TABLE
  2
APPID
  5
9
330
0
100
AcDbSymbolTable
 70
     2
  0
APPID
  5
12
330
9
100
AcDbSymbolTableRecord
100
AcDbRegAppTableRecord
  2
ACAD
 70
     0
  0
ENDTAB
  0
TABLE
  2
DIMSTYLE
  5
A
330
0
100
AcDbSymbolTable
 70
     1
  0
DIMSTYLE
105
27
330
A
100
AcDbSymbolTableRecord
100
AcDbDimStyleTableRecord
  2
ISO-25
 70
     0
  3

  4

  5

  6

  7

 40
1.0
 41
2.5
 42
0.625
 43
3.75
 44
1.25
 45
0.0
 46
0.0
 47
0.0
 48
0.0
140
2.5
141
2.5
142
0.0
143
0.03937007874016
144
1.0
145
0.0
146
1.0
147
0.625
 71
     0
 72
     0
 73
     0
 74
     0
 75
     0
 76
     0
 77
     1
 78
     8
170
     0
171
     3
172
     1
173
     0
174
     0
175
     0
176
     0
177
     0
178
     0
270
     2
271
     2
272
     2
273
     2
274
     3
340
11
275
     0
280
     0
281
     0
282
     0
283
     0
284
     8
285
     0
286
     0
287
     3
288
     0
  0
ENDTAB
  0
TABLE
  2
BLOCK_RECORD
  5
1
330
0
100
AcDbSymbolTable
 70
     1
  0
BLOCK_RECORD
  5
1F
330
1
100
AcDbSymbolTableRecord
100
AcDbBlockTableRecord
  2
*MODEL_SPACE
  0
BLOCK_RECORD
  5
1B
330
1
100
AcDbSymbolTableRecord
100
AcDbBlockTableRecord
  2
*PAPER_SPACE
  0
ENDTAB
  0
ENDSEC
  0
SECTION
  2
BLOCKS
  0
BLOCK
  5
20
330
1F
100
AcDbEntity
  8
0
100
AcDbBlockBegin
  2
*MODEL_SPACE
 70
     0
 10
0.0
 20
0.0
 30
0.0
  3
*MODEL_SPACE
  1

  0
ENDBLK
  5
21
330
1F
100
AcDbEntity
  8
0
100
AcDbBlockEnd
  0
BLOCK
  5
1C
330
1B
100
AcDbEntity
 67
     1
  8
0
100
AcDbBlockBegin
  2
*PAPER_SPACE
  1

  0
ENDBLK
  5
1D
330
1B
100
AcDbEntity
 67
     1
  8
0
100
AcDbBlockEnd
  0
ENDSEC
  0
SECTION
  2
ENTITIES
  0
LWPOLYLINE
  5
100
100
AcDbEntity
  8
0
 62
7
100
AcDbPolyline
 90
5
 70
1
 10
157.842997
 20
163.416408
 30
0.0
 10
180.668353
 20
180.000000
 30
0.0
 10
208.882045
 20
180.000000
 30
0.0
 10
186.056689
 20
163.416408
 30
0.0
 10
157.842997
 20
163.416408
 30
0.0
  0
LWPOLYLINE
  5
101
100
AcDbEntity
  8
0
 62
7
100
AcDbPolyline
 90
5
 70
1
 10
194.775199
 20
136.583592
 30
0.0
 10
222.988891
 20
136.583592
 30
0.0
 10
245.814248
 20
120.000000
 30
0.0
 10
217.600555
 20
120.000000
 30
0.0
 10
194.775199
 20
136.583592
 30
0.0
  0
LWPOLYLINE
  5
102
100
AcDbEntity
  8
0
 62
7
100
AcDbPolyline
 90
5
 70
1
 10
291.464960
 20
120.000000
 30
0.0
 10
314.290317
 20
136.583592
 30
0.0
 10
305.571806
 20
109.750776
 30
0.0
 10
282.746450
 20
93.167184
 30
0.0
 10
291.464960
 20
120.000000
 30
0.0
  0
LWPOLYLINE
  5
103
100
AcDbEntity
  8
0
 62
7
100
AcDbPolyline
 90
5
 70
1
 10
342.504009
 20
136.583592
 30
0.0
 10
365.329365
 20
120.000000
 30
0.0
 10
374.047876
 20
93.167184
 30
0.0
 10
351.222519
 20
109.750776
 30
0.0
 10
342.504009
 20
136.583592
 30
0.0
  0
LWPOLYLINE
  5
104
100
AcDbEntity
  8
0
 62
7
100
AcDbPolyline
 90
5
 70
1
 10
351.222519
 20
163.416408
 30
0.0
 10
374.047876
 20
180.000000
 30
0.0
 10
402.261568
 20
180.000000
 30
0.0
 10
379.436211
 20
163.416408
 30
0.0
 10
351.222519
 20
163.416408
 30
0.0
  0
LWPOLYLINE
  5
105
100
AcDbEntity
  8
0
 62
7
100
AcDbPolyline
 90
11
 70
1
 10
268.639604
 20
136.583592
 30
0.0
 10
277.358114
 20
163.416408
 30
0.0
 10
305.571806
 20
163.416408
 30
0.0
 10
282.746450
 20
180.000000
 30
0.0
 10
291.464960
 20
206.832816
 30
0.0
 10
268.639604
 20
190.249224
 30
0.0
 10
245.814248
 20
206.832816
 30
0.0
 10
254.532758
 20
180.000000
 30
0.0
 10
231.707402
 20
163.416408
 30
0.0
 10
259.921094
 20
163.416408
 30
0.0
 10
268.639604
 20
136.583592
 30
0.0
  0
LWPOLYLINE
  5
106
100
AcDbEntity
  8
0
 62
7
100
AcDbPolyline
 90
5
 70
1
 10
388.154722
 20
136.583592
 30
0.0
 10
416.368414
 20
136.583592
 30
0.0
 10
439.193770
 20
120.000000
 30
0.0
 10
410.980078
 20
120.000000
 30
0.0
 10
388.154722
 20
136.583592
 30
0.0
  0
LWPOLYLINE
  5
107
100
AcDbEntity
  8
0
 62
7
100
AcDbPolyline
 90
5
 70
1
 10
484.844483
 20
120.000000
 30
0.0
 10
507.669839
 20
136.583592
 30
0.0
 10
498.951329
 20
109.750776
 30
0.0
 10
476.125973
 20
93.167184
 30
0.0
 10
484.844483
 20
120.000000
 30
0.0
  0
LWPOLYLINE
  5
108
100
AcDbEntity
  8
0
 62
7
100
AcDbPolyline
 90
5
 70
1
 10
535.883531
 20
136.583592
 30
0.0
 10
558.708888
 20
120.000000
 30
0.0
 10
567.427398
 20
93.167184
 30
0.0
 10
544.602042
 20
109.750776
 30
0.0
 10
535.883531
 20
136.583592
 30
0.0
  0
LWPOLYLINE
  5
109
100
AcDbEntity
  8
0
 62
7
100
AcDbPolyline
 90
5
 70
1
 10
544.602042
 20
163.416408
 30
0.0
 10
567.427398
 20
180.000000
 30
0.0
 10
595.641090
 20
180.000000
 30
0.0
 10
572.815734
 20
163.416408
 30
0.0
 10
544.602042
 20
163.416408
 30
0.0
  0
LWPOLYLINE
  5
10a
100
AcDbEntity
  8
0
 62
7
100
AcDbPolyline
 90
11
 70
1
 10
462.019127
 20
136.583592
 30
0.0
 10
470.737637
 20
163.416408
 30
0.0
 10
498.951329
 20
163.416408
 30
0.0
 10
476.125973
 20
180.000000
 30
0.0
 10
484.844483
 20
206.832816
 30
0.0
 10
462.019127
 20
190.249224
 30
0.0
 10
439.193770
 20
206.832816
 30
0.0
 10
447.912280
 20
180.000000
 30
0.0
 10
425.086924
 20
163.416408
 30
0.0
 10
453.300616
 20
163.416408
 30
0.0
 10
462.019127
 20
136.583592
 30
0.0
  0
LWPOLYLINE
  5
10b
100
AcDbEntity
  8
0
 62
7
100
AcDbPolyline
 90
5
 70
1
 10
581.534244
 20
136.583592
 30
0.0
 10
609.747936
 20
136.583592
 30
0.0
 10
632.573293
 20
120.000000
 30
0.0
 10
604.359601
 20
120.000000
 30
0.0
 10
581.534244
 20
136.583592
 30
0.0
  0
LWPOLYLINE
  5
10c
100
AcDbEntity
  8
0
 62
7
100
AcDbPolyline
 90
5
 70
1
 10
678.224005
 20
120.000000
 30
0.0
 10
701.049362
 20
136.583592
 30
0.0
 10
692.330852
 20
109.750776
 30
0.0
 10
669.505495
 20
93.167184
 30
0.0
 10
678.224005
 20
120.000000
 30
0.0
  0
LWPOLYLINE
  5
10d
100
AcDbEntity
  8
0
 62
7
100
AcDbPolyline
 90
5
 70
1
 10
729.263054
 20
136.583592
 30
0.0
 10
752.088410
 20
120.000000
 30
0.0
 10
760.806921
 20
93.167184
 30
0.0
 10
737.981564
 20
109.750776
 30
0.0
 10
729.263054
 20
136.583592
 30
0.0
  0
LWPOLYLINE
  5
10e
100
AcDbEntity
  8
0
 62
7
100
AcDbPolyline
 90
5
 70
1
 10
737.981564
 20
163.416408
 30
0.0
 10
760.806921
 20
180.000000
 30
0.0
 10
789.020613
 20
180.000000
 30
0.0
 10
766.195256
 20
163.416408
 30
0.0
 10
737.981564
 20
163.416408
 30
0.0
  0
LWPOLYLINE
  5
10f
100
AcDbEntity
  8
0
 62
7
100
AcDbPolyline
 90
11
 70
1
 10
655.398649
 20
136.583592
 30
0.0
 10
664.117159
 20
163.416408
 30
0.0
 10
692.330852
 20
163.416408
 30
0.0
 10
669.505495
 20
180.000000
 30
0.0
 10
678.224005
 20
206.832816
 30
0.0
 10
655.398649
 20
190.249224
 30
0.0
 10
632.573293
 20
206.832816
 30
0.0
 10
641.291803
 20
180.000000
 30
0.0
 10
618.466447
 20
163.416408
 30
0.0
 10
646.680139
 20
163.416408
 30
0.0
 10
655.398649
 20
136.583592
 30
0.0
  0
LWPOLYLINE
  5
110
100
AcDbEntity
  8
0
 62
7
100
AcDbPolyline
 90
5
 70
1
 10
774.913767
 20
136.583592
 30
0.0
 10
803.127459
 20
136.583592
 30
0.0
 10
825.952815
 20
120.000000
 30
0.0
 10
797.739123
 20
120.000000
 30
0.0
 10
774.913767
 20
136.583592
 30
0.0
  0
LWPOLYLINE
  5
111
100
AcDbEntity
  8
0
 62
7
100
AcDbPolyline
 90
5
 70
1
 10
871.603528
 20
120.000000
 30
0.0
 10
894.428884
 20
136.583592
 30
0.0
 10
885.710374
 20
109.750776
 30
0.0
 10
862.885018
 20
93.167184
 30
0.0
 10
871.603528
 20
120.000000
 30
0.0
  0
LWPOLYLINE
  5
112
100
AcDbEntity
  8
0
 62
7
100
AcDbPolyline
 90
5
 70
1
 10
922.642577
 20
136.583592
 30
0.0
 10
945.467933
 20
120.000000
 30
0.0
 10
954.186443
 20
93.167184
 30
0.0
 10
931.361087
 20
109.750776
 30
0.0
 10
922.642577
 20
136.583592
 30
0.0
  0
LWPOLYLINE
  5
113
100
AcDbEntity
  8
0
 62
7
100
AcDbPolyline
 90
5
 70
1
 10
931.361087
 20
163.416408
 30
0.0
 10
954.186443
 20
180.000000
 30
0.0
 10
982.400135
 20
180.000000
 30
0.0
 10
959.574779
 20
163.416408
 30
0.0
 10
931.361087
 20
163.416408
 30
0.0
  0
LWPOLYLINE
  5
114
100
AcDbEntity
  8
0
 62
7
100
AcDbPolyline
 90
11
 70
1
 10
848.778172
 20
136.583592
 30
0.0
 10
857.496682
 20
163.416408
 30
0.0
 10
885.710374
 20
163.416408
 30
0.0
 10
862.885018
 20
180.000000
 30
0.0
 10
871.603528
 20
206.832816
 30
0.0
 10
848.778172
 20
190.249224
 30
0.0
 10
825.952815
 20
206.832816
 30
0.0
 10
834.671326
 20
180.000000
 30
0.0
 10
811.845969
 20
163.416408
 30
0.0
 10
840.059661
 20
163.416408
 30
0.0
 10
848.778172
 20
136.583592
 30
0.0
  0
LWPOLYLINE
  5
115
100
AcDbEntity
  8
0
 62
7
100
AcDbPolyline
 90
5
 70
1
 10
968.293289
 20
136.583592
 30
0.0
 10
996.506981
 20
136.583592
 30
0.0
 10
1019.332338
 20
120.000000
 30
0.0
 10
991.118646
 20
120.000000
 30
0.0
 10
968.293289
 20
136.583592
 30
0.0
  0
LWPOLYLINE
  5
116
100
AcDbEntity
  8
0
 62
7
100
AcDbPolyline
 90
6
 70
1
 10
641.291803
 20
93.167184
 30
0.0
 10
633.276949
 20
68.500000
 30
0.0
 10
603.655944
 20
68.500000
 30
0.0
 10
595.641090
 20
93.167184
 30
0.0
 10
618.466447
 20
76.583592
 30
0.0
 10
641.291803
 20
93.167184
 30
0.0
  0
LWPOLYLINE
  5
117
100
AcDbEntity
  8
0
 62
7
100
AcDbPolyline
 90
6
 70
1
 10
521.073029
 20
231.500000
 30
0.0
 10
522.480342
 20
231.500000
 30
0.0
 10
530.495196
 20
206.832816
 30
0.0
 10
521.776685
 20
180.000000
 30
0.0
 10
513.058175
 20
206.832816
 30
0.0
 10
521.073029
 20
231.500000
 30
0.0
  0
LWPOLYLINE
  5
118
100
AcDbEntity
  8
0
 62
7
100
AcDbPolyline
 90
6
 70
1
 10
179.964697
 20
231.500000
 30
0.0
 10
209.585701
 20
231.500000
 30
0.0
 10
217.600555
 20
206.832816
 30
0.0
 10
194.775199
 20
223.416408
 30
0.0
 10
171.949843
 20
206.832816
 30
0.0
 10
179.964697
 20
231.500000
 30
0.0
  0
LWPOLYLINE
  5
119
100
AcDbEntity
  8
0
 62
7
100
AcDbPolyline
 90
6
 70
1
 10
714.452552
 20
231.500000
 30
0.0
 10
715.859864
 20
231.500000
 30
0.0
 10
723.874718
 20
206.832816
 30
0.0
 10
715.156208
 20
180.000000
 30
0.0
 10
706.437698
 20
206.832816
 30
0.0
 10
714.452552
 20
231.500000
 30
0.0
  0
LWPOLYLINE
  5
11a
100
AcDbEntity
  8
0
 62
7
100
AcDbPolyline
 90
6
 70
1
 10
953.482787
 20
231.500000
 30
0.0
 10
983.103792
 20
231.500000
 30
0.0
 10
991.118646
 20
206.832816
 30
0.0
 10
968.293289
 20
223.416408
 30
0.0
 10
945.467933
 20
206.832816
 30
0.0
 10
953.482787
 20
231.500000
 30
0.0
  0
LWPOLYLINE
  5
11b
100
AcDbEntity
  8
0
 62
7
100
AcDbPolyline
 90
6
 70
1
 10
254.532758
 20
93.167184
 30
0.0
 10
246.517904
 20
68.500000
 30
0.0
 10
216.896899
 20
68.500000
 30
0.0
 10
208.882045
 20
93.167184
 30
0.0
 10
231.707402
 20
76.583592
 30
0.0
 10
254.532758
 20
93.167184
 30
0.0
  0
LWPOLYLINE
  5
11c
100
AcDbEntity
  8
0
 62
7
100
AcDbPolyline
 90
6
 70
1
 10
907.832074
 20
231.500000
 30
0.0
 10
909.239387
 20
231.500000
 30
0.0
 10
917.254241
 20
206.832816
 30
0.0
 10
908.535731
 20
180.000000
 30
0.0
 10
899.817220
 20
206.832816
 30
0.0
 10
907.832074
 20
231.500000
 30
0.0
  0
LWPOLYLINE
  5
11d
100
AcDbEntity
  8
0
 62
7
100
AcDbPolyline
 90
6
 70
1
 10
760.103264
 20
231.500000
 30
0.0
 10
789.724269
 20
231.500000
 30
0.0
 10
797.739123
 20
206.832816
 30
0.0
 10
774.913767
 20
223.416408
 30
0.0
 10
752.088410
 20
206.832816
 30
0.0
 10
760.103264
 20
231.500000
 30
0.0
  0
LWPOLYLINE
  5
11e
100
AcDbEntity
  8
0
 62
7
100
AcDbPolyline
 90
6
 70
1
 10
1028.050848
 20
93.167184
 30
0.0
 10
1020.035994
 20
68.500000
 30
0.0
 10
990.414989
 20
68.500000
 30
0.0
 10
982.400135
 20
93.167184
 30
0.0
 10
1005.225492
 20
76.583592
 30
0.0
 10
1028.050848
 20
93.167184
 30
0.0
  0
LWPOLYLINE
  5
11f
100
AcDbEntity
  8
0
 62
7
100
AcDbPolyline
 90
6
 70
1
 10
327.693506
 20
231.500000
 30
0.0
 10
329.100819
 20
231.500000
 30
0.0
 10
337.115673
 20
206.832816
 30
0.0
 10
328.397163
 20
180.000000
 30
0.0
 10
319.678652
 20
206.832816
 30
0.0
 10
327.693506
 20
231.500000
 30
0.0
  0
LWPOLYLINE
  5
120
100
AcDbEntity
  8
0
 62
7
100
AcDbPolyline
 90
6
 70
1
 10
834.671326
 20
93.167184
 30
0.0
 10
826.656472
 20
68.500000
 30
0.0
 10
797.035467
 20
68.500000
 30
0.0
 10
789.020613
 20
93.167184
 30
0.0
 10
811.845969
 20
76.583592
 30
0.0
 10
834.671326
 20
93.167184
 30
0.0
  0
LWPOLYLINE
  5
121
100
AcDbEntity
  8
0
 62
7
100
AcDbPolyline
 90
6
 70
1
 10
566.723742
 20
231.500000
 30
0.0
 10
596.344747
 20
231.500000
 30
0.0
 10
604.359601
 20
206.832816
 30
0.0
 10
581.534244
 20
223.416408
 30
0.0
 10
558.708888
 20
206.832816
 30
0.0
 10
566.723742
 20
231.500000
 30
0.0
  0
LWPOLYLINE
  5
122
100
AcDbEntity
  8
0
 62
7
100
AcDbPolyline
 90
6
 70
1
 10
153.000345
 20
124.654924
 30
0.0
 10
153.000345
 20
133.767616
 30
0.0
 10
171.949843
 20
120.000000
 30
0.0
 10
180.668353
 20
93.167184
 30
0.0
 10
157.842997
 20
109.750776
 30
0.0
 10
153.000345
 20
124.654924
 30
0.0
  0
LWPOLYLINE
  5
123
100
AcDbEntity
  8
0
 62
7
100
AcDbPolyline
 90
6
 70
1
 10
447.912280
 20
93.167184
 30
0.0
 10
439.897426
 20
68.500000
 30
0.0
 10
410.276422
 20
68.500000
 30
0.0
 10
402.261568
 20
93.167184
 30
0.0
 10
425.086924
 20
76.583592
 30
0.0
 10
447.912280
 20
93.167184
 30
0.0
  0
LWPOLYLINE
  5
124
100
AcDbEntity
  8
0
 62
7
100
AcDbPolyline
 90
6
 70
1
 10
373.344219
 20
231.500000
 30
0.0
 10
402.965224
 20
231.500000
 30
0.0
 10
410.980078
 20
206.832816
 30
0.0
 10
388.154722
 20
223.416408
 30
0.0
 10
365.329365
 20
206.832816
 30
0.0
 10
373.344219
 20
231.500000
 30
0.0
  0
LWPOLYLINE
  5
125
100
AcDbEntity
  8
0
 62
7
100
AcDbPolyline
 90
9
 70
1
 10
1019.332338
 20
206.832816
 30
0.0
 10
1042.157694
 20
190.249224
 30
0.0
 10
1047.000345
 20
193.767616
 30
0.0
 10
1047.000345
 20
151.487740
 30
0.0
 10
1042.157694
 20
136.583592
 30
0.0
 10
1033.439184
 20
163.416408
 30
0.0
 10
1005.225492
 20
163.416408
 30
0.0
 10
1028.050848
 20
180.000000
 30
0.0
 10
1019.332338
 20
206.832816
 30
0.0
  0
LWPOLYLINE
  5
126
100
AcDbEntity
  8
0
 62
7
100
AcDbPolyline
 90
5
 70
1
 10
146.000345
 20
55.500000
 30
0.0
 10
1054.000345
 20
55.500000
 30
0.0
 10
1054.000345
 20
244.500000
 30
0.0
 10
146.000345
 20
244.500000
 30
0.0
 10
146.000345
 20
55.500000
 30
0.0
  0
ENDSEC
  0
SECTION
  2
OBJECTS
  0
DICTIONARY
  5
C
330
0
100
AcDbDictionary
  3
ACAD_GROUP
350
D
  3
ACAD_MLINESTYLE
350
17
  0
DICTIONARY
  5
D
330
C
100
AcDbDictionary
  0
DICTIONARY
  5
1A
330
C
100
AcDbDictionary
  0
DICTIONARY
  5
17
330
C
100
AcDbDictionary
  3
STANDARD
350
18
  0
DICTIONARY
  5
19
330
C
100
AcDbDictionary
  0
ENDSEC
  0
EOF
