<?xml version="1.0" encoding="UTF-8" standalone="no"?>
<svg
   height="300mm"
   version="1.1"
   viewBox="0 0 1200 300"
   width="1200mm"
   id="svg42"
   sodipodi:docname="tramo1.8_corte.svg"
   inkscape:version="1.4.2 (2aeb623e1d, 2025-05-12)"
   xmlns:inkscape="http://www.inkscape.org/namespaces/inkscape"
   xmlns:sodipodi="http://sodipodi.sourceforge.net/DTD/sodipodi-0.dtd"
   xmlns="http://www.w3.org/2000/svg"
   xmlns:svg="http://www.w3.org/2000/svg">
  <sodipodi:namedview
     id="namedview42"
     pagecolor="#ffffff"
     bordercolor="#666666"
     borderopacity="1.0"
     inkscape:showpageshadow="2"
     inkscape:pageopacity="0.0"
     inkscape:pagecheckerboard="0"
     inkscape:deskcolor="#d1d1d1"
     inkscape:document-units="mm"
     showgrid="false"
     inkscape:zoom="0.37019618"
     inkscape:cx="2267.7165"
     inkscape:cy="567.26679"
     inkscape:window-width="1920"
     inkscape:window-height="1011"
     inkscape:window-x="0"
     inkscape:window-y="0"
     inkscape:window-maximized="1"
     inkscape:current-layer="svg42" />
  <defs
     id="defs1" />
  <g
     fill="none"
     stroke="blue"
     stroke-width="0.5"
     transform="translate(-81.18758415106049,54.0)"
     id="g42"
     style="vector-effect:non-scaling-stroke;-inkscape-stroke:hairline;stroke-width:0.26458333;stroke-dasharray:none">
    <path
       d="M 275.9624377948499,126.0 L 298.7877941859336,109.41640786499875 L 290.0692838498693,136.2492235949962 L 267.2439274587856,152.8328157299975 L 275.9624377948499,126.0 Z"
       id="path1"
       style="vector-effect:non-scaling-stroke;-inkscape-stroke:hairline;stroke-width:0.26458333;stroke-dasharray:none" />
    <path
       d="M 327.0014862959723,109.41640786499875 L 349.826842687056,126.0 L 358.54535302312036,152.8328157299975 L 335.71999663203667,136.2492235949962 L 327.0014862959723,109.41640786499875 Z"
       id="path2"
       style="vector-effect:non-scaling-stroke;-inkscape-stroke:hairline;stroke-width:0.26458333;stroke-dasharray:none" />
    <path
       d="M 335.71999663203667,82.58359213500125 L 358.54535302312036,66.0 L 386.759045133159,66.0 L 363.93368874207533,82.58359213500125 L 335.71999663203667,82.58359213500125 Z"
       id="path3"
       style="vector-effect:non-scaling-stroke;-inkscape-stroke:hairline;stroke-width:0.26458333;stroke-dasharray:none" />
    <path
       d="M 372.6521990781397,109.41640786499875 L 400.86589118817835,109.41640786499875 L 423.69124757926204,126.0 L 395.4775554692234,126.0 L 372.6521990781397,109.41640786499875 Z"
       id="path4"
       style="vector-effect:non-scaling-stroke;-inkscape-stroke:hairline;stroke-width:0.26458333;stroke-dasharray:none" />
    <path
       d="M 469.3419603614294,126.0 L 492.1673167525131,109.41640786499875 L 483.44880641644875,136.2492235949962 L 460.6234500253651,152.8328157299975 L 469.3419603614294,126.0 Z"
       id="path5"
       style="vector-effect:non-scaling-stroke;-inkscape-stroke:hairline;stroke-width:0.26458333;stroke-dasharray:none" />
    <path
       d="M 520.3810088625519,109.41640786499875 L 543.2063652536356,126.0 L 551.9248755896998,152.8328157299975 L 529.0995191986161,136.2492235949962 L 520.3810088625519,109.41640786499875 Z"
       id="path6"
       style="vector-effect:non-scaling-stroke;-inkscape-stroke:hairline;stroke-width:0.26458333;stroke-dasharray:none" />
    <path
       d="M 529.0995191986161,82.58359213500125 L 551.9248755896998,66.0 L 580.1385676997386,66.0 L 557.3132113086549,82.58359213500125 L 529.0995191986161,82.58359213500125 Z"
       id="path7"
       style="vector-effect:non-scaling-stroke;-inkscape-stroke:hairline;stroke-width:0.26458333;stroke-dasharray:none" />
    <path
       d="M 446.5166039703457,109.41640786499875 L 455.2351143064101,82.58359213500127 L 483.44880641644875,82.58359213500127 L 460.6234500253651,66.0 L 469.3419603614294,39.16718427000253 L 446.5166039703457,55.75077640500379 L 423.69124757926204,39.16718427000252 L 432.4097579153264,66.0 L 409.5844015242427,82.58359213500125 L 437.79809363428143,82.58359213500125 L 446.5166039703457,109.41640786499875 Z"
       id="path8"
       style="vector-effect:non-scaling-stroke;-inkscape-stroke:hairline;stroke-width:0.26458333;stroke-dasharray:none" />
    <path
       d="M 566.0317216447193,109.41640786499875 L 594.2454137547579,109.41640786499875 L 617.0707701458416,126.0 L 588.8570780358029,126.0 L 566.0317216447193,109.41640786499875 Z"
       id="path9"
       style="vector-effect:non-scaling-stroke;-inkscape-stroke:hairline;stroke-width:0.26458333;stroke-dasharray:none" />
    <path
       d="M 662.721482928009,126.0 L 685.5468393190927,109.41640786499875 L 676.8283289830283,136.2492235949962 L 654.0029725919446,152.8328157299975 L 662.721482928009,126.0 Z"
       id="path10"
       style="vector-effect:non-scaling-stroke;-inkscape-stroke:hairline;stroke-width:0.26458333;stroke-dasharray:none" />
    <path
       d="M 713.7605314291313,109.41640786499875 L 736.585887820215,126.0 L 745.3043981562794,152.8328157299975 L 722.4790417651957,136.2492235949962 L 713.7605314291313,109.41640786499875 Z"
       id="path11"
       style="vector-effect:non-scaling-stroke;-inkscape-stroke:hairline;stroke-width:0.26458333;stroke-dasharray:none" />
    <path
       d="M 722.4790417651957,82.58359213500125 L 745.3043981562794,66.0 L 773.518090266318,66.0 L 750.6927338752345,82.58359213500125 L 722.4790417651957,82.58359213500125 Z"
       id="path12"
       style="vector-effect:non-scaling-stroke;-inkscape-stroke:hairline;stroke-width:0.26458333;stroke-dasharray:none" />
    <path
       d="M 639.8961265369253,109.41640786499875 L 648.6146368729896,82.58359213500127 L 676.8283289830283,82.58359213500127 L 654.0029725919446,66.0 L 662.721482928009,39.16718427000253 L 639.8961265369253,55.75077640500379 L 617.0707701458416,39.16718427000252 L 625.789280481906,66.0 L 602.9639240908223,82.58359213500125 L 631.1776162008609,82.58359213500125 L 639.8961265369253,109.41640786499875 Z"
       id="path13"
       style="vector-effect:non-scaling-stroke;-inkscape-stroke:hairline;stroke-width:0.26458333;stroke-dasharray:none" />
    <path
       d="M 759.4112442112987,109.41640786499875 L 787.6249363213374,109.41640786499875 L 810.4502927124211,126.0 L 782.2366006023824,126.0 L 759.4112442112987,109.41640786499875 Z"
       id="path14"
       style="vector-effect:non-scaling-stroke;-inkscape-stroke:hairline;stroke-width:0.26458333;stroke-dasharray:none" />
    <path
       d="M 856.1010054945884,126.0 L 878.9263618856721,109.41640786499875 L 870.2078515496078,136.2492235949962 L 847.3824951585241,152.8328157299975 L 856.1010054945884,126.0 Z"
       id="path15"
       style="vector-effect:non-scaling-stroke;-inkscape-stroke:hairline;stroke-width:0.26458333;stroke-dasharray:none" />
    <path
       d="M 907.1400539957108,109.41640786499875 L 929.9654103867945,126.0 L 938.6839207228588,152.8328157299975 L 915.8585643317751,136.2492235949962 L 907.1400539957108,109.41640786499875 Z"
       id="path16"
       style="vector-effect:non-scaling-stroke;-inkscape-stroke:hairline;stroke-width:0.26458333;stroke-dasharray:none" />
    <path
       d="M 915.8585643317751,82.58359213500125 L 938.6839207228588,66.0 L 966.8976128328975,66.0 L 944.0722564418139,82.58359213500125 L 915.8585643317751,82.58359213500125 Z"
       id="path17"
       style="vector-effect:non-scaling-stroke;-inkscape-stroke:hairline;stroke-width:0.26458333;stroke-dasharray:none" />
    <path
       d="M 833.2756491035047,109.41640786499875 L 841.9941594395691,82.58359213500127 L 870.2078515496078,82.58359213500127 L 847.3824951585241,66.0 L 856.1010054945884,39.16718427000253 L 833.2756491035047,55.75077640500379 L 810.4502927124211,39.16718427000252 L 819.1688030484854,66.0 L 796.3434466574017,82.58359213500125 L 824.5571387674404,82.58359213500125 L 833.2756491035047,109.41640786499875 Z"
       id="path18"
       style="vector-effect:non-scaling-stroke;-inkscape-stroke:hairline;stroke-width:0.26458333;stroke-dasharray:none" />
    <path
       d="M 952.7907667778782,109.41640786499875 L 981.0044588879168,109.41640786499875 L 1003.8298152790005,126.0 L 975.6161231689618,126.0 L 952.7907667778782,109.41640786499875 Z"
       id="path19"
       style="vector-effect:non-scaling-stroke;-inkscape-stroke:hairline;stroke-width:0.26458333;stroke-dasharray:none" />
    <path
       d="M 1049.480528061168,126.0 L 1072.3058844522516,109.41640786499875 L 1063.5873741161872,136.2492235949962 L 1040.7620177251035,152.8328157299975 L 1049.480528061168,126.0 Z"
       id="path20"
       style="vector-effect:non-scaling-stroke;-inkscape-stroke:hairline;stroke-width:0.26458333;stroke-dasharray:none" />
    <path
       d="M 1026.6551716700842,109.41640786499875 L 1035.3736820061486,82.58359213500127 L 1063.5873741161872,82.58359213500127 L 1040.7620177251035,66.0 L 1049.480528061168,39.16718427000253 L 1026.6551716700842,55.75077640500379 L 1003.8298152790005,39.16718427000252 L 1012.5483256150649,66.0 L 989.7229692239812,82.58359213500125 L 1017.9366613340198,82.58359213500125 L 1026.6551716700842,109.41640786499875 Z"
       id="path21"
       style="vector-effect:non-scaling-stroke;-inkscape-stroke:hairline;stroke-width:0.26458333;stroke-dasharray:none" />
    <path
       d="M 1086.1964537354863,13.0 L 1086.6290072790555,13.0 L 1095.1312408433353,39.16718427000254 L 1086.412730507271,66.0 L 1077.6942201712066,39.16718427000254 L 1086.1964537354863,13.0 Z"
       id="path22"
       style="vector-effect:non-scaling-stroke;-inkscape-stroke:hairline;stroke-width:0.26458333;stroke-dasharray:none" />
    <path
       d="M 358.3290762513357,13.0 L 386.97532190494366,13.0 L 395.4775554692234,39.16718427000252 L 372.6521990781397,22.583592135001254 L 349.826842687056,39.167184270002515 L 358.3290762513357,13.0 Z"
       id="path23"
       style="vector-effect:non-scaling-stroke;-inkscape-stroke:hairline;stroke-width:0.26458333;stroke-dasharray:none" />
    <path
       d="M 304.39240667667326,179.0 L 312.894640240953,152.8328157299975 L 321.39687380523264,179.0 L 304.39240667667326,179.0 Z"
       id="path24"
       style="vector-effect:non-scaling-stroke;-inkscape-stroke:hairline;stroke-width:0.26458333;stroke-dasharray:none" />
    <path
       d="M 1100.5195765622902,109.41640786499875 L 1123.344932953374,126.0 L 1127.1875841510605,137.82646433022668 L 1127.1875841510605,149.29029670540245 L 1109.2380868983546,136.2492235949962 L 1100.5195765622902,109.41640786499875 Z"
       id="path25"
       style="vector-effect:non-scaling-stroke;-inkscape-stroke:hairline;stroke-width:0.26458333;stroke-dasharray:none" />
    <path
       d="M 625.789280481906,152.8328157299975 L 617.2870469176262,179.0 L 588.6408012640184,179.0 L 580.1385676997386,152.8328157299975 L 602.9639240908223,169.41640786499875 L 625.789280481906,152.8328157299975 Z"
       id="path26"
       style="vector-effect:non-scaling-stroke;-inkscape-stroke:hairline;stroke-width:0.26458333;stroke-dasharray:none" />
    <path
       d="M 691.1514518098322,179.0 L 699.653685374112,152.8328157299975 L 708.1559189383918,179.0 L 691.1514518098322,179.0 Z"
       id="path27"
       style="vector-effect:non-scaling-stroke;-inkscape-stroke:hairline;stroke-width:0.26458333;stroke-dasharray:none" />
    <path
       d="M 699.4374086023274,13.0 L 699.8699621458966,13.0 L 708.3721957101764,39.16718427000254 L 699.653685374112,66.0 L 690.9351750380478,39.16718427000254 L 699.4374086023274,13.0 Z"
       id="path28"
       style="vector-effect:non-scaling-stroke;-inkscape-stroke:hairline;stroke-width:0.26458333;stroke-dasharray:none" />
    <path
       d="M 432.4097579153264,152.8328157299975 L 423.9075243510467,179.0 L 395.26127869743874,179.0 L 386.759045133159,152.8328157299975 L 409.5844015242427,169.41640786499875 L 432.4097579153264,152.8328157299975 Z"
       id="path29"
       style="vector-effect:non-scaling-stroke;-inkscape-stroke:hairline;stroke-width:0.26458333;stroke-dasharray:none" />
    <path
       d="M 551.7085988179152,13.0 L 580.3548444715232,13.0 L 588.8570780358029,39.16718427000252 L 566.0317216447193,22.583592135001254 L 543.2063652536356,39.167184270002515 L 551.7085988179152,13.0 Z"
       id="path30"
       style="vector-effect:non-scaling-stroke;-inkscape-stroke:hairline;stroke-width:0.26458333;stroke-dasharray:none" />
    <path
       d="M 497.77192924325277,179.0 L 506.27416280753243,152.8328157299975 L 514.7763963718122,179.0 L 497.77192924325277,179.0 Z"
       id="path31"
       style="vector-effect:non-scaling-stroke;-inkscape-stroke:hairline;stroke-width:0.26458333;stroke-dasharray:none" />
    <path
       d="M 312.67836346916835,13.0 L 313.1109170127376,13.0 L 321.6131505770173,39.16718427000254 L 312.894640240953,66.0 L 304.1761299048886,39.16718427000254 L 312.67836346916835,13.0 Z"
       id="path32"
       style="vector-effect:non-scaling-stroke;-inkscape-stroke:hairline;stroke-width:0.26458333;stroke-dasharray:none" />
    <path
       d="M 745.0881213844948,13.0 L 773.7343670381027,13.0 L 782.2366006023824,39.16718427000252 L 759.4112442112987,22.583592135001254 L 736.585887820215,39.167184270002515 L 745.0881213844948,13.0 Z"
       id="path33"
       style="vector-effect:non-scaling-stroke;-inkscape-stroke:hairline;stroke-width:0.26458333;stroke-dasharray:none" />
    <path
       d="M 819.1688030484854,152.8328157299975 L 810.6665694842056,179.0 L 782.0203238305978,179.0 L 773.518090266318,152.8328157299975 L 796.3434466574017,169.41640786499875 L 819.1688030484854,152.8328157299975 Z"
       id="path34"
       style="vector-effect:non-scaling-stroke;-inkscape-stroke:hairline;stroke-width:0.26458333;stroke-dasharray:none" />
    <path
       d="M 1077.9104969429911,179.0 L 1086.412730507271,152.8328157299975 L 1094.9149640715507,179.0 L 1077.9104969429911,179.0 Z"
       id="path35"
       style="vector-effect:non-scaling-stroke;-inkscape-stroke:hairline;stroke-width:0.26458333;stroke-dasharray:none" />
    <path
       d="M 892.8169311689069,13.0 L 893.249484712476,13.0 L 901.7517182767558,39.16718427000254 L 893.0332079406915,66.0 L 884.3146976046272,39.16718427000254 L 892.8169311689069,13.0 Z"
       id="path36"
       style="vector-effect:non-scaling-stroke;-inkscape-stroke:hairline;stroke-width:0.26458333;stroke-dasharray:none" />
    <path
       d="M 506.0578860357478,13.0 L 506.49043957931707,13.0 L 514.9926731435968,39.16718427000254 L 506.2741628075325,66.0 L 497.55565247146814,39.16718427000254 L 506.0578860357478,13.0 Z"
       id="path37"
       style="vector-effect:non-scaling-stroke;-inkscape-stroke:hairline;stroke-width:0.26458333;stroke-dasharray:none" />
    <path
       d="M 1012.5483256150649,152.8328157299975 L 1004.0460920507851,179.0 L 975.3998463971773,179.0 L 966.8976128328975,152.8328157299975 L 989.7229692239812,169.41640786499875 L 1012.5483256150649,152.8328157299975 Z"
       id="path38"
       style="vector-effect:non-scaling-stroke;-inkscape-stroke:hairline;stroke-width:0.26458333;stroke-dasharray:none" />
    <path
       d="M 235.1875841510605,54.17353566977381 L 235.1875841510605,42.70970329459767 L 253.13708140376625,55.75077640500379 L 275.96243779484996,39.16718427000253 L 267.2439274587856,66.0 L 290.0692838498693,82.58359213500127 L 261.8555917398306,82.58359213500127 L 253.13708140376622,109.41640786499875 L 244.41857106770192,82.58359213500125 L 235.1875841510605,82.58359213500125 L 235.1875841510605,68.7918495154099 L 239.03023534874688,66.0 L 235.1875841510605,54.17353566977381 Z"
       id="path39"
       style="vector-effect:non-scaling-stroke;-inkscape-stroke:hairline;stroke-width:0.26458333;stroke-dasharray:none" />
    <path
       d="M 938.4676439510743,13.0 L 967.1138896046822,13.0 L 975.6161231689618,39.16718427000252 L 952.7907667778782,22.583592135001254 L 929.9654103867945,39.167184270002515 L 938.4676439510743,13.0 Z"
       id="path40"
       style="vector-effect:non-scaling-stroke;-inkscape-stroke:hairline;stroke-width:0.26458333;stroke-dasharray:none" />
    <path
       d="M 884.5309743764117,179.0 L 893.0332079406915,152.8328157299975 L 901.5354415049712,179.0 L 884.5309743764117,179.0 Z"
       id="path41"
       style="vector-effect:non-scaling-stroke;-inkscape-stroke:hairline;stroke-width:0.26458333;stroke-dasharray:none" />
    <path
       d="M 228.1875841510605,192.0 L 1134.1875841510605,192.0 L 1134.1875841510605,0.0 L 228.1875841510605,0.0 L 228.1875841510605,192.0 Z"
       id="path42"
       style="vector-effect:non-scaling-stroke;-inkscape-stroke:hairline;stroke-width:0.26458333;stroke-dasharray:none" />
  </g>
</svg>
