<?xml version="1.0" encoding="UTF-8" standalone="no"?>
<svg
   height="300mm"
   version="1.1"
   viewBox="0 0 1200 300"
   width="1200mm"
   id="svg99"
   sodipodi:docname="tramo1.8_MEDIDAS.svg"
   inkscape:version="1.4.2 (1:1.4.2+202505120737+ebf0e940d0)"
   xml:space="preserve"
   xmlns:inkscape="http://www.inkscape.org/namespaces/inkscape"
   xmlns:sodipodi="http://sodipodi.sourceforge.net/DTD/sodipodi-0.dtd"
   xmlns="http://www.w3.org/2000/svg"
   xmlns:svg="http://www.w3.org/2000/svg"><sodipodi:namedview
     id="namedview99"
     pagecolor="#ffffff"
     bordercolor="#666666"
     borderopacity="1.0"
     inkscape:showpageshadow="2"
     inkscape:pageopacity="0.0"
     inkscape:pagecheckerboard="0"
     inkscape:deskcolor="#d1d1d1"
     inkscape:document-units="mm"
     inkscape:zoom="0.18642101"
     inkscape:cx="1641.4459"
     inkscape:cy="509.59921"
     inkscape:window-width="1920"
     inkscape:window-height="1011"
     inkscape:window-x="0"
     inkscape:window-y="0"
     inkscape:window-maximized="1"
     inkscape:current-layer="svg99" /><defs
     id="defs1"><marker
       style="overflow:visible"
       id="Stop"
       refX="0"
       refY="0"
       orient="auto"
       inkscape:stockid="Stop"
       markerWidth="1"
       markerHeight="1"
       viewBox="0 0 1 1"
       inkscape:isstock="true"
       inkscape:collect="always"
       preserveAspectRatio="xMidYMid"><path
         style="fill:none;stroke:context-stroke;stroke-width:1"
         d="M 0,4 V -4"
         id="path203" /></marker></defs><path
     style="fill:none;stroke:#000000;stroke-width:1.265;stroke-linecap:butt;stroke-linejoin:miter;stroke-dasharray:none;stroke-opacity:1;marker-start:url(#Stop);marker-end:url(#Stop)"
     d="M 117.95401,55.5 V 244.47782"
     id="path202"
     sodipodi:nodetypes="cc" /><text
     xml:space="preserve"
     style="font-size:25.4px;line-height:1.25;font-family:'Noto Mono';-inkscape-font-specification:'Noto Mono';word-spacing:0px;stroke-width:0.264583"
     x="41.868011"
     y="165.22836"
     id="text203"><tspan
       sodipodi:role="line"
       id="tspan203"
       style="stroke-width:0.264583"
       x="41.868011"
       y="165.22836">189</tspan></text><text
     xml:space="preserve"
     style="font-size:25.4px;line-height:1.25;font-family:'Noto Mono';-inkscape-font-specification:'Noto Mono';word-spacing:0px;stroke-width:0.264583"
     x="543.79309"
     y="36.42308"
     id="text203-6"><tspan
       sodipodi:role="line"
       id="tspan203-7"
       style="stroke-width:0.264583"
       x="543.79309"
       y="36.42308">Tabica 1.8</tspan></text><path
     style="fill:none;stroke:#000000;stroke-width:1.265;stroke-linecap:butt;stroke-linejoin:miter;stroke-dasharray:none;stroke-opacity:1;marker-start:url(#Stop);marker-end:url(#Stop)"
     d="M 1082.5148,67 V 233.03758"
     id="path204"
     sodipodi:nodetypes="cc" /><text
     xml:space="preserve"
     style="font-size:25.4px;line-height:1.25;font-family:'Noto Mono';-inkscape-font-specification:'Noto Mono';word-spacing:0px;stroke-width:0.264583"
     x="1096.4199"
     y="165.35858"
     id="text204"><tspan
       sodipodi:role="line"
       id="tspan204"
       style="stroke-width:0.264583"
       x="1096.4199"
       y="165.35858">166</tspan></text><path
     style="fill:none;stroke:#000000;stroke-width:1.265;stroke-linecap:butt;stroke-linejoin:miter;stroke-dasharray:none;stroke-opacity:1;marker-start:url(#Stop);marker-end:url(#Stop)"
     d="M 1054,259.84593 H 146.00002"
     id="path205"
     sodipodi:nodetypes="cc" /><g
     fill="none"
     stroke="#0000ff"
     stroke-width="0.5"
     transform="translate(-177.87733,55.5)"
     id="g100"
     style="vector-effect:non-scaling-stroke;stroke:#ff00ff;stroke-width:0.264583;stroke-dasharray:none;stroke-opacity:1;-inkscape-stroke:hairline"><path
       d="M 372.6522,21.083592 349.82684,37.667184 358.54535,64.5 H 386.75905 L 395.47756,37.667184 Z"
       id="path1"
       style="vector-effect:non-scaling-stroke;stroke:#ff00ff;stroke-width:0.264583;stroke-dasharray:none;stroke-opacity:1;-inkscape-stroke:hairline" /><path
       d="M 372.6522,107.91641 349.82684,124.5 358.54535,151.33282 H 386.75905 L 395.47756,124.5 Z"
       id="path2"
       style="vector-effect:non-scaling-stroke;stroke:#ff00ff;stroke-width:0.264583;stroke-dasharray:none;stroke-opacity:1;-inkscape-stroke:hairline" /><path
       d="M 386.75905,64.5 363.93369,81.083592 372.6522,107.91641 H 400.86589 L 409.5844,81.083592 Z"
       id="path3"
       style="vector-effect:non-scaling-stroke;stroke:#ff00ff;stroke-width:0.264583;stroke-dasharray:none;stroke-opacity:1;-inkscape-stroke:hairline" /><path
       d="M 423.69125,124.5 446.5166,107.91641 437.79809,81.083592 H 409.5844 L 400.86589,107.91641 Z"
       id="path4"
       style="vector-effect:non-scaling-stroke;stroke:#ff00ff;stroke-width:0.264583;stroke-dasharray:none;stroke-opacity:1;-inkscape-stroke:hairline" /><path
       d="M 409.5844,81.083592 432.40976,64.5 423.69125,37.667184 H 395.47756 L 386.75905,64.5 Z"
       id="path5"
       style="vector-effect:non-scaling-stroke;stroke:#ff00ff;stroke-width:0.264583;stroke-dasharray:none;stroke-opacity:1;-inkscape-stroke:hairline" /><path
       d="M 446.5166,107.91641 423.69125,124.5 432.40976,151.33282 H 460.62345 L 469.34196,124.5 Z"
       id="path6"
       style="vector-effect:non-scaling-stroke;stroke:#ff00ff;stroke-width:0.264583;stroke-dasharray:none;stroke-opacity:1;-inkscape-stroke:hairline" /><path
       d="M 409.5844,167.91641 432.40976,151.33282 423.69125,124.5 H 395.47756 L 386.75905,151.33282 Z"
       id="path7"
       style="vector-effect:non-scaling-stroke;stroke:#ff00ff;stroke-width:0.264583;stroke-dasharray:none;stroke-opacity:1;-inkscape-stroke:hairline" /><path
       d="M 469.34196,124.5 492.16732,107.91641 483.44881,81.083592 H 455.23511 L 446.5166,107.91641 Z"
       id="path8"
       style="vector-effect:non-scaling-stroke;stroke:#ff00ff;stroke-width:0.264583;stroke-dasharray:none;stroke-opacity:1;-inkscape-stroke:hairline" /><path
       d="M 483.44881,81.083592 506.27416,64.5 497.55565,37.667184 H 469.34196 L 460.62345,64.5 Z"
       id="path9"
       style="vector-effect:non-scaling-stroke;stroke:#ff00ff;stroke-width:0.264583;stroke-dasharray:none;stroke-opacity:1;-inkscape-stroke:hairline" /><path
       d="M 506.27416,151.33282 529.09952,134.74922 520.38101,107.91641 H 492.16732 L 483.44881,134.74922 Z"
       id="path10"
       style="vector-effect:non-scaling-stroke;stroke:#ff00ff;stroke-width:0.264583;stroke-dasharray:none;stroke-opacity:1;-inkscape-stroke:hairline" /><path
       d="M 506.27416,64.5 483.44881,81.083592 492.16732,107.91641 H 520.38101 L 529.09952,81.083592 Z"
       id="path11"
       style="vector-effect:non-scaling-stroke;stroke:#ff00ff;stroke-width:0.264583;stroke-dasharray:none;stroke-opacity:1;-inkscape-stroke:hairline" /><path
       d="M 529.09952,81.083592 551.92488,64.5 543.20637,37.667184 H 514.99267 L 506.27416,64.5 Z"
       id="path12"
       style="vector-effect:non-scaling-stroke;stroke:#ff00ff;stroke-width:0.264583;stroke-dasharray:none;stroke-opacity:1;-inkscape-stroke:hairline" /><path
       d="M 543.20637,124.5 566.03172,107.91641 557.31321,81.083592 H 529.09952 L 520.38101,107.91641 Z"
       id="path13"
       style="vector-effect:non-scaling-stroke;stroke:#ff00ff;stroke-width:0.264583;stroke-dasharray:none;stroke-opacity:1;-inkscape-stroke:hairline" /><path
       d="M 566.03172,21.083592 543.20637,37.667184 551.92488,64.5 H 580.13857 L 588.85708,37.667184 Z"
       id="path14"
       style="vector-effect:non-scaling-stroke;stroke:#ff00ff;stroke-width:0.264583;stroke-dasharray:none;stroke-opacity:1;-inkscape-stroke:hairline" /><path
       d="M 566.03172,107.91641 543.20637,124.5 551.92488,151.33282 H 580.13857 L 588.85708,124.5 Z"
       id="path15"
       style="vector-effect:non-scaling-stroke;stroke:#ff00ff;stroke-width:0.264583;stroke-dasharray:none;stroke-opacity:1;-inkscape-stroke:hairline" /><path
       d="M 580.13857,64.5 557.31321,81.083592 566.03172,107.91641 H 594.24541 L 602.96392,81.083592 Z"
       id="path16"
       style="vector-effect:non-scaling-stroke;stroke:#ff00ff;stroke-width:0.264583;stroke-dasharray:none;stroke-opacity:1;-inkscape-stroke:hairline" /><path
       d="M 617.07077,124.5 639.89613,107.91641 631.17762,81.083592 H 602.96392 L 594.24541,107.91641 Z"
       id="path17"
       style="vector-effect:non-scaling-stroke;stroke:#ff00ff;stroke-width:0.264583;stroke-dasharray:none;stroke-opacity:1;-inkscape-stroke:hairline" /><path
       d="M 602.96392,81.083592 625.78928,64.5 617.07077,37.667184 H 588.85708 L 580.13857,64.5 Z"
       id="path18"
       style="vector-effect:non-scaling-stroke;stroke:#ff00ff;stroke-width:0.264583;stroke-dasharray:none;stroke-opacity:1;-inkscape-stroke:hairline" /><path
       d="M 639.89613,107.91641 617.07077,124.5 625.78928,151.33282 H 654.00297 L 662.72148,124.5 Z"
       id="path19"
       style="vector-effect:non-scaling-stroke;stroke:#ff00ff;stroke-width:0.264583;stroke-dasharray:none;stroke-opacity:1;-inkscape-stroke:hairline" /><path
       d="M 602.96392,167.91641 625.78928,151.33282 617.07077,124.5 H 588.85708 L 580.13857,151.33282 Z"
       id="path20"
       style="vector-effect:non-scaling-stroke;stroke:#ff00ff;stroke-width:0.264583;stroke-dasharray:none;stroke-opacity:1;-inkscape-stroke:hairline" /><path
       d="M 662.72148,124.5 685.54684,107.91641 676.82833,81.083592 H 648.61464 L 639.89613,107.91641 Z"
       id="path21"
       style="vector-effect:non-scaling-stroke;stroke:#ff00ff;stroke-width:0.264583;stroke-dasharray:none;stroke-opacity:1;-inkscape-stroke:hairline" /><path
       d="M 676.82833,81.083592 699.65369,64.5 690.93518,37.667184 H 662.72148 L 654.00297,64.5 Z"
       id="path22"
       style="vector-effect:non-scaling-stroke;stroke:#ff00ff;stroke-width:0.264583;stroke-dasharray:none;stroke-opacity:1;-inkscape-stroke:hairline" /><path
       d="M 699.65369,151.33282 722.47904,134.74922 713.76053,107.91641 H 685.54684 L 676.82833,134.74922 Z"
       id="path23"
       style="vector-effect:non-scaling-stroke;stroke:#ff00ff;stroke-width:0.264583;stroke-dasharray:none;stroke-opacity:1;-inkscape-stroke:hairline" /><path
       d="M 699.65369,64.5 676.82833,81.083592 685.54684,107.91641 H 713.76053 L 722.47904,81.083592 Z"
       id="path24"
       style="vector-effect:non-scaling-stroke;stroke:#ff00ff;stroke-width:0.264583;stroke-dasharray:none;stroke-opacity:1;-inkscape-stroke:hairline" /><path
       d="M 722.47904,81.083592 745.3044,64.5 736.58589,37.667184 H 708.3722 L 699.65369,64.5 Z"
       id="path25"
       style="vector-effect:non-scaling-stroke;stroke:#ff00ff;stroke-width:0.264583;stroke-dasharray:none;stroke-opacity:1;-inkscape-stroke:hairline" /><path
       d="M 736.58589,124.5 759.41124,107.91641 750.69273,81.083592 H 722.47904 L 713.76053,107.91641 Z"
       id="path26"
       style="vector-effect:non-scaling-stroke;stroke:#ff00ff;stroke-width:0.264583;stroke-dasharray:none;stroke-opacity:1;-inkscape-stroke:hairline" /><path
       d="M 759.41124,21.083592 736.58589,37.667184 745.3044,64.5 H 773.51809 L 782.2366,37.667184 Z"
       id="path27"
       style="vector-effect:non-scaling-stroke;stroke:#ff00ff;stroke-width:0.264583;stroke-dasharray:none;stroke-opacity:1;-inkscape-stroke:hairline" /><path
       d="M 759.41124,107.91641 736.58589,124.5 745.3044,151.33282 H 773.51809 L 782.2366,124.5 Z"
       id="path28"
       style="vector-effect:non-scaling-stroke;stroke:#ff00ff;stroke-width:0.264583;stroke-dasharray:none;stroke-opacity:1;-inkscape-stroke:hairline" /><path
       d="M 773.51809,64.5 750.69273,81.083592 759.41124,107.91641 H 787.62494 L 796.34345,81.083592 Z"
       id="path29"
       style="vector-effect:non-scaling-stroke;stroke:#ff00ff;stroke-width:0.264583;stroke-dasharray:none;stroke-opacity:1;-inkscape-stroke:hairline" /><path
       d="M 810.45029,124.5 833.27565,107.91641 824.55714,81.083592 H 796.34345 L 787.62494,107.91641 Z"
       id="path30"
       style="vector-effect:non-scaling-stroke;stroke:#ff00ff;stroke-width:0.264583;stroke-dasharray:none;stroke-opacity:1;-inkscape-stroke:hairline" /><path
       d="M 796.34345,81.083592 819.1688,64.5 810.45029,37.667184 H 782.2366 L 773.51809,64.5 Z"
       id="path31"
       style="vector-effect:non-scaling-stroke;stroke:#ff00ff;stroke-width:0.264583;stroke-dasharray:none;stroke-opacity:1;-inkscape-stroke:hairline" /><path
       d="M 833.27565,107.91641 810.45029,124.5 819.1688,151.33282 H 847.3825 L 856.10101,124.5 Z"
       id="path32"
       style="vector-effect:non-scaling-stroke;stroke:#ff00ff;stroke-width:0.264583;stroke-dasharray:none;stroke-opacity:1;-inkscape-stroke:hairline" /><path
       d="M 796.34345,167.91641 819.1688,151.33282 810.45029,124.5 H 782.2366 L 773.51809,151.33282 Z"
       id="path33"
       style="vector-effect:non-scaling-stroke;stroke:#ff00ff;stroke-width:0.264583;stroke-dasharray:none;stroke-opacity:1;-inkscape-stroke:hairline" /><path
       d="M 856.10101,124.5 878.92636,107.91641 870.20785,81.083592 H 841.99416 L 833.27565,107.91641 Z"
       id="path34"
       style="vector-effect:non-scaling-stroke;stroke:#ff00ff;stroke-width:0.264583;stroke-dasharray:none;stroke-opacity:1;-inkscape-stroke:hairline" /><path
       d="M 870.20785,81.083592 893.03321,64.5 884.3147,37.667184 H 856.10101 L 847.3825,64.5 Z"
       id="path35"
       style="vector-effect:non-scaling-stroke;stroke:#ff00ff;stroke-width:0.264583;stroke-dasharray:none;stroke-opacity:1;-inkscape-stroke:hairline" /><path
       d="M 893.03321,151.33282 915.85856,134.74922 907.14005,107.91641 H 878.92636 L 870.20785,134.74922 Z"
       id="path36"
       style="vector-effect:non-scaling-stroke;stroke:#ff00ff;stroke-width:0.264583;stroke-dasharray:none;stroke-opacity:1;-inkscape-stroke:hairline" /><path
       d="M 893.03321,64.5 870.20785,81.083592 878.92636,107.91641 H 907.14005 L 915.85856,81.083592 Z"
       id="path37"
       style="vector-effect:non-scaling-stroke;stroke:#ff00ff;stroke-width:0.264583;stroke-dasharray:none;stroke-opacity:1;-inkscape-stroke:hairline" /><path
       d="M 915.85856,81.083592 938.68392,64.5 929.96541,37.667184 H 901.75172 L 893.03321,64.5 Z"
       id="path38"
       style="vector-effect:non-scaling-stroke;stroke:#ff00ff;stroke-width:0.264583;stroke-dasharray:none;stroke-opacity:1;-inkscape-stroke:hairline" /><path
       d="M 929.96541,124.5 952.79077,107.91641 944.07226,81.083592 H 915.85856 L 907.14005,107.91641 Z"
       id="path39"
       style="vector-effect:non-scaling-stroke;stroke:#ff00ff;stroke-width:0.264583;stroke-dasharray:none;stroke-opacity:1;-inkscape-stroke:hairline" /><path
       d="M 952.79077,21.083592 929.96541,37.667184 938.68392,64.5 H 966.89761 L 975.61612,37.667184 Z"
       id="path40"
       style="vector-effect:non-scaling-stroke;stroke:#ff00ff;stroke-width:0.264583;stroke-dasharray:none;stroke-opacity:1;-inkscape-stroke:hairline" /><path
       d="M 952.79077,107.91641 929.96541,124.5 938.68392,151.33282 H 966.89761 L 975.61612,124.5 Z"
       id="path41"
       style="vector-effect:non-scaling-stroke;stroke:#ff00ff;stroke-width:0.264583;stroke-dasharray:none;stroke-opacity:1;-inkscape-stroke:hairline" /><path
       d="M 966.89761,64.5 944.07226,81.083592 952.79077,107.91641 H 981.00446 L 989.72297,81.083592 Z"
       id="path42"
       style="vector-effect:non-scaling-stroke;stroke:#ff00ff;stroke-width:0.264583;stroke-dasharray:none;stroke-opacity:1;-inkscape-stroke:hairline" /><path
       d="M 1003.8298,124.5 1026.6552,107.91641 1017.9367,81.083592 H 989.72297 L 981.00446,107.91641 Z"
       id="path43"
       style="vector-effect:non-scaling-stroke;stroke:#ff00ff;stroke-width:0.264583;stroke-dasharray:none;stroke-opacity:1;-inkscape-stroke:hairline" /><path
       d="M 989.72297,81.083592 1012.5483,64.5 1003.8298,37.667184 H 975.61612 L 966.89761,64.5 Z"
       id="path44"
       style="vector-effect:non-scaling-stroke;stroke:#ff00ff;stroke-width:0.264583;stroke-dasharray:none;stroke-opacity:1;-inkscape-stroke:hairline" /><path
       d="M 1026.6552,107.91641 1003.8298,124.5 1012.5483,151.33282 H 1040.762 L 1049.4805,124.5 Z"
       id="path45"
       style="vector-effect:non-scaling-stroke;stroke:#ff00ff;stroke-width:0.264583;stroke-dasharray:none;stroke-opacity:1;-inkscape-stroke:hairline" /><path
       d="M 989.72297,167.91641 1012.5483,151.33282 1003.8298,124.5 H 975.61612 L 966.89761,151.33282 Z"
       id="path46"
       style="vector-effect:non-scaling-stroke;stroke:#ff00ff;stroke-width:0.264583;stroke-dasharray:none;stroke-opacity:1;-inkscape-stroke:hairline" /><path
       d="M 1049.4805,124.5 1072.3059,107.91641 1063.5874,81.083592 H 1035.3737 L 1026.6552,107.91641 Z"
       id="path47"
       style="vector-effect:non-scaling-stroke;stroke:#ff00ff;stroke-width:0.264583;stroke-dasharray:none;stroke-opacity:1;-inkscape-stroke:hairline" /><path
       d="M 1063.5874,81.083592 1086.4127,64.5 1077.6942,37.667184 H 1049.4805 L 1040.762,64.5 Z"
       id="path48"
       style="vector-effect:non-scaling-stroke;stroke:#ff00ff;stroke-width:0.264583;stroke-dasharray:none;stroke-opacity:1;-inkscape-stroke:hairline" /><path
       d="M 1086.4127,151.33282 1109.2381,134.74922 1100.5196,107.91641 H 1072.3059 L 1063.5874,134.74922 Z"
       id="path49"
       style="vector-effect:non-scaling-stroke;stroke:#ff00ff;stroke-width:0.264583;stroke-dasharray:none;stroke-opacity:1;-inkscape-stroke:hairline" /><path
       d="M 1086.4127,64.5 1063.5874,81.083592 1072.3059,107.91641 H 1100.5196 L 1109.2381,81.083592 Z"
       id="path50"
       style="vector-effect:non-scaling-stroke;stroke:#ff00ff;stroke-width:0.264583;stroke-dasharray:none;stroke-opacity:1;-inkscape-stroke:hairline" /><path
       d="M 1109.2381,81.083592 1132.0634,64.5 1123.3449,37.667184 H 1095.1312 L 1086.4127,64.5 Z"
       id="path51"
       style="vector-effect:non-scaling-stroke;stroke:#ff00ff;stroke-width:0.264583;stroke-dasharray:none;stroke-opacity:1;-inkscape-stroke:hairline" /><path
       d="M 1123.3449,124.5 1146.1703,107.91641 1137.4518,81.083592 H 1109.2381 L 1100.5196,107.91641 Z"
       id="path52"
       style="vector-effect:non-scaling-stroke;stroke:#ff00ff;stroke-width:0.264583;stroke-dasharray:none;stroke-opacity:1;-inkscape-stroke:hairline" /><path
       d="M 1146.1703,21.083592 1123.3449,37.667184 1132.0634,64.5 H 1160.2771 L 1168.9956,37.667184 Z"
       id="path53"
       style="vector-effect:non-scaling-stroke;stroke:#ff00ff;stroke-width:0.264583;stroke-dasharray:none;stroke-opacity:1;-inkscape-stroke:hairline" /><path
       d="M 1146.1703,107.91641 1123.3449,124.5 1132.0634,151.33282 H 1160.2771 L 1168.9956,124.5 Z"
       id="path54"
       style="vector-effect:non-scaling-stroke;stroke:#ff00ff;stroke-width:0.264583;stroke-dasharray:none;stroke-opacity:1;-inkscape-stroke:hairline" /><path
       d="M 1160.2771,64.5 1137.4518,81.083592 1146.1703,107.91641 H 1174.384 L 1183.1025,81.083592 Z"
       id="path55"
       style="vector-effect:non-scaling-stroke;stroke:#ff00ff;stroke-width:0.264583;stroke-dasharray:none;stroke-opacity:1;-inkscape-stroke:hairline" /><path
       d="M 1197.2093,124.5 1220.0347,107.91641 1211.3162,81.083592 H 1183.1025 L 1174.384,107.91641 Z"
       id="path56"
       style="vector-effect:non-scaling-stroke;stroke:#ff00ff;stroke-width:0.264583;stroke-dasharray:none;stroke-opacity:1;-inkscape-stroke:hairline" /><path
       d="M 1183.1025,81.083592 1205.9278,64.5 1197.2093,37.667184 H 1168.9956 L 1160.2771,64.5 Z"
       id="path57"
       style="vector-effect:non-scaling-stroke;stroke:#ff00ff;stroke-width:0.264583;stroke-dasharray:none;stroke-opacity:1;-inkscape-stroke:hairline" /><path
       d="M 1183.1025,167.91641 1205.9278,151.33282 1197.2093,124.5 H 1168.9956 L 1160.2771,151.33282 Z"
       id="path58"
       style="vector-effect:non-scaling-stroke;stroke:#ff00ff;stroke-width:0.264583;stroke-dasharray:none;stroke-opacity:1;-inkscape-stroke:hairline" /><path
       d="M 892.32955,13 884.3147,37.667184 H 856.10101 L 848.08615,13 Z"
       id="path59"
       style="vector-effect:non-scaling-stroke;stroke:#ff00ff;stroke-width:0.264583;stroke-dasharray:none;stroke-opacity:1;-inkscape-stroke:hairline" /><path
       d="M 698.95003,13 690.93518,37.667184 H 662.72148 L 654.70663,13 Z"
       id="path60"
       style="vector-effect:non-scaling-stroke;stroke:#ff00ff;stroke-width:0.264583;stroke-dasharray:none;stroke-opacity:1;-inkscape-stroke:hairline" /><path
       d="M 1131.3598,13 1123.3449,37.667184 H 1095.1312 L 1087.1164,13 Z"
       id="path61"
       style="vector-effect:non-scaling-stroke;stroke:#ff00ff;stroke-width:0.264583;stroke-dasharray:none;stroke-opacity:1;-inkscape-stroke:hairline" /><path
       d="M 551.22122,13 543.20637,37.667184 H 514.99267 L 506.97782,13 Z"
       id="path62"
       style="vector-effect:non-scaling-stroke;stroke:#ff00ff;stroke-width:0.264583;stroke-dasharray:none;stroke-opacity:1;-inkscape-stroke:hairline" /><path
       d="M 468.6383,176 H 424.3949 L 432.40976,151.33282 H 460.62345 Z"
       id="path63"
       style="vector-effect:non-scaling-stroke;stroke:#ff00ff;stroke-width:0.264583;stroke-dasharray:none;stroke-opacity:1;-inkscape-stroke:hairline" /><path
       d="M 1011.8447,13 H 1041.4657 L 1049.4805,37.667184 1026.6552,54.250776 1003.8298,37.667184 Z"
       id="path64"
       style="vector-effect:non-scaling-stroke;stroke:#ff00ff;stroke-width:0.264583;stroke-dasharray:none;stroke-opacity:1;-inkscape-stroke:hairline" /><path
       d="M 625.08562,13 H 654.70663 L 662.72148,37.667184 639.89613,54.250776 617.07077,37.667184 Z"
       id="path65"
       style="vector-effect:non-scaling-stroke;stroke:#ff00ff;stroke-width:0.264583;stroke-dasharray:none;stroke-opacity:1;-inkscape-stroke:hairline" /><path
       d="M 349.82684,37.667184 H 330.87735 V 13 H 357.8417 Z"
       id="path66"
       style="vector-effect:non-scaling-stroke;stroke:#ff00ff;stroke-width:0.264583;stroke-dasharray:none;stroke-opacity:1;-inkscape-stroke:hairline" /><path
       d="M 505.57051,13 497.55565,37.667184 H 469.34196 L 461.32711,13 Z"
       id="path67"
       style="vector-effect:non-scaling-stroke;stroke:#ff00ff;stroke-width:0.264583;stroke-dasharray:none;stroke-opacity:1;-inkscape-stroke:hairline" /><path
       d="M 1048.7769,176 H 1004.5335 L 1012.5483,151.33282 H 1040.762 Z"
       id="path68"
       style="vector-effect:non-scaling-stroke;stroke:#ff00ff;stroke-width:0.264583;stroke-dasharray:none;stroke-opacity:1;-inkscape-stroke:hairline" /><path
       d="M 1168.292,176 H 1124.0486 L 1132.0634,151.33282 H 1160.2771 Z"
       id="path69"
       style="vector-effect:non-scaling-stroke;stroke:#ff00ff;stroke-width:0.264583;stroke-dasharray:none;stroke-opacity:1;-inkscape-stroke:hairline" /><path
       d="M 893.03321,151.33282 915.85856,134.74922 938.68392,151.33282 930.66907,176 H 901.04806 Z"
       id="path70"
       style="vector-effect:non-scaling-stroke;stroke:#ff00ff;stroke-width:0.264583;stroke-dasharray:none;stroke-opacity:1;-inkscape-stroke:hairline" /><path
       d="M 1205.2242,13 H 1224.8773 V 50.732384 L 1220.0347,54.250776 1197.2093,37.667184 Z"
       id="path71"
       style="vector-effect:non-scaling-stroke;stroke:#ff00ff;stroke-width:0.264583;stroke-dasharray:none;stroke-opacity:1;-inkscape-stroke:hairline" /><path
       d="M 937.98026,13 929.96541,37.667184 H 901.75172 L 893.73686,13 Z"
       id="path72"
       style="vector-effect:non-scaling-stroke;stroke:#ff00ff;stroke-width:0.264583;stroke-dasharray:none;stroke-opacity:1;-inkscape-stroke:hairline" /><path
       d="M 1205.2242,13 1197.2093,37.667184 H 1168.9956 L 1160.9808,13 Z"
       id="path73"
       style="vector-effect:non-scaling-stroke;stroke:#ff00ff;stroke-width:0.264583;stroke-dasharray:none;stroke-opacity:1;-inkscape-stroke:hairline" /><path
       d="M 394.7739,176 H 350.5305 L 358.54535,151.33282 H 386.75905 Z"
       id="path74"
       style="vector-effect:non-scaling-stroke;stroke:#ff00ff;stroke-width:0.264583;stroke-dasharray:none;stroke-opacity:1;-inkscape-stroke:hairline" /><path
       d="M 1086.4127,151.33282 1109.2381,134.74922 1132.0634,151.33282 1124.0486,176 H 1094.4276 Z"
       id="path75"
       style="vector-effect:non-scaling-stroke;stroke:#ff00ff;stroke-width:0.264583;stroke-dasharray:none;stroke-opacity:1;-inkscape-stroke:hairline" /><path
       d="M 855.39735,176 H 811.15395 L 819.1688,151.33282 H 847.3825 Z"
       id="path76"
       style="vector-effect:non-scaling-stroke;stroke:#ff00ff;stroke-width:0.264583;stroke-dasharray:none;stroke-opacity:1;-inkscape-stroke:hairline" /><path
       d="M 974.91247,176 H 930.66907 L 938.68392,151.33282 H 966.89761 Z"
       id="path77"
       style="vector-effect:non-scaling-stroke;stroke:#ff00ff;stroke-width:0.264583;stroke-dasharray:none;stroke-opacity:1;-inkscape-stroke:hairline" /><path
       d="M 625.08562,13 617.07077,37.667184 H 588.85708 L 580.84222,13 Z"
       id="path78"
       style="vector-effect:non-scaling-stroke;stroke:#ff00ff;stroke-width:0.264583;stroke-dasharray:none;stroke-opacity:1;-inkscape-stroke:hairline" /><path
       d="M 1197.2093,124.5 1220.0347,107.91641 1224.8773,111.4348 V 151.33282 H 1205.9278 Z"
       id="path79"
       style="vector-effect:non-scaling-stroke;stroke:#ff00ff;stroke-width:0.264583;stroke-dasharray:none;stroke-opacity:1;-inkscape-stroke:hairline" /><path
       d="M 372.6522,107.91641 349.82684,124.5 330.87735,110.73238 V 95.98774 L 335.72,81.083592 H 363.93369 Z"
       id="path80"
       style="vector-effect:non-scaling-stroke;stroke:#ff00ff;stroke-width:0.264583;stroke-dasharray:none;stroke-opacity:1;-inkscape-stroke:hairline" /><path
       d="M 330.87735,138.26762 335.72,134.74922 358.54535,151.33282 350.5305,176 H 330.87735 Z"
       id="path81"
       style="vector-effect:non-scaling-stroke;stroke:#ff00ff;stroke-width:0.264583;stroke-dasharray:none;stroke-opacity:1;-inkscape-stroke:hairline" /><path
       d="M 818.46515,13 810.45029,37.667184 H 782.2366 L 774.22175,13 Z"
       id="path82"
       style="vector-effect:non-scaling-stroke;stroke:#ff00ff;stroke-width:0.264583;stroke-dasharray:none;stroke-opacity:1;-inkscape-stroke:hairline" /><path
       d="M 358.54535,64.5 335.72,81.083592 330.87735,77.5652 V 37.667184 H 349.82684 Z"
       id="path83"
       style="vector-effect:non-scaling-stroke;stroke:#ff00ff;stroke-width:0.264583;stroke-dasharray:none;stroke-opacity:1;-inkscape-stroke:hairline" /><path
       d="M 460.62345,151.33282 483.44881,134.74922 506.27416,151.33282 498.25931,176 H 468.6383 Z"
       id="path84"
       style="vector-effect:non-scaling-stroke;stroke:#ff00ff;stroke-width:0.264583;stroke-dasharray:none;stroke-opacity:1;-inkscape-stroke:hairline" /><path
       d="M 1011.8447,13 1003.8298,37.667184 H 975.61612 L 967.60127,13 Z"
       id="path85"
       style="vector-effect:non-scaling-stroke;stroke:#ff00ff;stroke-width:0.264583;stroke-dasharray:none;stroke-opacity:1;-inkscape-stroke:hairline" /><path
       d="M 662.01783,176 H 617.77443 L 625.78928,151.33282 H 654.00297 Z"
       id="path86"
       style="vector-effect:non-scaling-stroke;stroke:#ff00ff;stroke-width:0.264583;stroke-dasharray:none;stroke-opacity:1;-inkscape-stroke:hairline" /><path
       d="M 744.60074,13 736.58589,37.667184 H 708.3722 L 700.35734,13 Z"
       id="path87"
       style="vector-effect:non-scaling-stroke;stroke:#ff00ff;stroke-width:0.264583;stroke-dasharray:none;stroke-opacity:1;-inkscape-stroke:hairline" /><path
       d="M 1085.7091,13 1077.6942,37.667184 H 1049.4805 L 1041.4657,13 Z"
       id="path88"
       style="vector-effect:non-scaling-stroke;stroke:#ff00ff;stroke-width:0.264583;stroke-dasharray:none;stroke-opacity:1;-inkscape-stroke:hairline" /><path
       d="M 699.65369,151.33282 722.47904,134.74922 745.3044,151.33282 737.28954,176 H 707.66854 Z"
       id="path89"
       style="vector-effect:non-scaling-stroke;stroke:#ff00ff;stroke-width:0.264583;stroke-dasharray:none;stroke-opacity:1;-inkscape-stroke:hairline" /><path
       d="M 818.46515,13 H 848.08615 L 856.10101,37.667184 833.27565,54.250776 810.45029,37.667184 Z"
       id="path90"
       style="vector-effect:non-scaling-stroke;stroke:#ff00ff;stroke-width:0.264583;stroke-dasharray:none;stroke-opacity:1;-inkscape-stroke:hairline" /><path
       d="M 506.27416,151.33282 529.09952,134.74922 551.92488,151.33282 543.91002,176 H 514.28902 Z"
       id="path91"
       style="vector-effect:non-scaling-stroke;stroke:#ff00ff;stroke-width:0.264583;stroke-dasharray:none;stroke-opacity:1;-inkscape-stroke:hairline" /><path
       d="M 588.15342,176 H 543.91002 L 551.92488,151.33282 H 580.13857 Z"
       id="path92"
       style="vector-effect:non-scaling-stroke;stroke:#ff00ff;stroke-width:0.264583;stroke-dasharray:none;stroke-opacity:1;-inkscape-stroke:hairline" /><path
       d="M 1197.913,176 1205.9278,151.33282 H 1224.8773 V 176 Z"
       id="path93"
       style="vector-effect:non-scaling-stroke;stroke:#ff00ff;stroke-width:0.264583;stroke-dasharray:none;stroke-opacity:1;-inkscape-stroke:hairline" /><path
       d="M 847.3825,151.33282 870.20785,134.74922 893.03321,151.33282 885.01835,176 H 855.39735 Z"
       id="path94"
       style="vector-effect:non-scaling-stroke;stroke:#ff00ff;stroke-width:0.264583;stroke-dasharray:none;stroke-opacity:1;-inkscape-stroke:hairline" /><path
       d="M 431.7061,13 423.69125,37.667184 H 395.47756 L 387.4627,13 Z"
       id="path95"
       style="vector-effect:non-scaling-stroke;stroke:#ff00ff;stroke-width:0.264583;stroke-dasharray:none;stroke-opacity:1;-inkscape-stroke:hairline" /><path
       d="M 781.53294,176 H 737.28954 L 745.3044,151.33282 H 773.51809 Z"
       id="path96"
       style="vector-effect:non-scaling-stroke;stroke:#ff00ff;stroke-width:0.264583;stroke-dasharray:none;stroke-opacity:1;-inkscape-stroke:hairline" /><path
       d="M 1040.762,151.33282 1063.5874,134.74922 1086.4127,151.33282 1078.3979,176 H 1048.7769 Z"
       id="path97"
       style="vector-effect:non-scaling-stroke;stroke:#ff00ff;stroke-width:0.264583;stroke-dasharray:none;stroke-opacity:1;-inkscape-stroke:hairline" /><path
       d="M 654.00297,151.33282 676.82833,134.74922 699.65369,151.33282 691.63883,176 H 662.01783 Z"
       id="path98"
       style="vector-effect:non-scaling-stroke;stroke:#ff00ff;stroke-width:0.264583;stroke-dasharray:none;stroke-opacity:1;-inkscape-stroke:hairline" /><path
       d="M 431.7061,13 H 461.32711 L 469.34196,37.667184 446.5166,54.250776 423.69125,37.667184 Z"
       id="path99"
       style="vector-effect:non-scaling-stroke;stroke:#ff00ff;stroke-width:0.264583;stroke-dasharray:none;stroke-opacity:1;-inkscape-stroke:hairline" /><path
       d="M 323.87735,189 H 1231.8773 V 0 H 323.87735 Z"
       id="path100"
       style="vector-effect:non-scaling-stroke;stroke:#ff00ff;stroke-width:0.264583;stroke-dasharray:none;stroke-opacity:1;-inkscape-stroke:hairline" /></g><text
     xml:space="preserve"
     style="font-size:25.4px;line-height:1.25;font-family:'Noto Mono';-inkscape-font-specification:'Noto Mono';word-spacing:0px;stroke-width:0.264583"
     x="577.25983"
     y="287.66565"
     id="text205"><tspan
       sodipodi:role="line"
       id="tspan205"
       style="stroke-width:0.264583"
       x="577.25983"
       y="287.66565">908</tspan></text><g
     fill="none"
     stroke="#0000ff"
     stroke-width="0.5"
     transform="translate(-177.87733,55.5)"
     id="g39"
     style="vector-effect:non-scaling-stroke;stroke-width:0.264583;stroke-dasharray:none;-inkscape-stroke:hairline"><path
       d="M 335.72,81.083592 358.54535,64.5 H 386.75905 L 363.93369,81.083592 Z"
       id="path1-1"
       style="vector-effect:non-scaling-stroke;stroke-width:0.264583;stroke-dasharray:none;-inkscape-stroke:hairline" /><path
       d="M 372.6522,107.91641 H 400.86589 L 423.69125,124.5 H 395.47756 Z"
       id="path2-5"
       style="vector-effect:non-scaling-stroke;stroke-width:0.264583;stroke-dasharray:none;-inkscape-stroke:hairline" /><path
       d="M 469.34196,124.5 492.16732,107.91641 483.44881,134.74922 460.62345,151.33282 Z"
       id="path3-9"
       style="vector-effect:non-scaling-stroke;stroke-width:0.264583;stroke-dasharray:none;-inkscape-stroke:hairline" /><path
       d="M 520.38101,107.91641 543.20637,124.5 551.92488,151.33282 529.09952,134.74922 Z"
       id="path4-1"
       style="vector-effect:non-scaling-stroke;stroke-width:0.264583;stroke-dasharray:none;-inkscape-stroke:hairline" /><path
       d="M 529.09952,81.083592 551.92488,64.5 H 580.13857 L 557.31321,81.083592 Z"
       id="path5-6"
       style="vector-effect:non-scaling-stroke;stroke-width:0.264583;stroke-dasharray:none;-inkscape-stroke:hairline" /><path
       d="M 446.5166,107.91641 455.23511,81.083592 H 483.44881 L 460.62345,64.5 469.34196,37.667184 446.5166,54.250776 423.69125,37.667184 432.40976,64.5 409.5844,81.083592 H 437.79809 Z"
       id="path6-4"
       style="vector-effect:non-scaling-stroke;stroke-width:0.264583;stroke-dasharray:none;-inkscape-stroke:hairline" /><path
       d="M 566.03172,107.91641 H 594.24541 L 617.07077,124.5 H 588.85708 Z"
       id="path7-0"
       style="vector-effect:non-scaling-stroke;stroke-width:0.264583;stroke-dasharray:none;-inkscape-stroke:hairline" /><path
       d="M 662.72148,124.5 685.54684,107.91641 676.82833,134.74922 654.00297,151.33282 Z"
       id="path8-4"
       style="vector-effect:non-scaling-stroke;stroke-width:0.264583;stroke-dasharray:none;-inkscape-stroke:hairline" /><path
       d="M 713.76053,107.91641 736.58589,124.5 745.3044,151.33282 722.47904,134.74922 Z"
       id="path9-4"
       style="vector-effect:non-scaling-stroke;stroke-width:0.264583;stroke-dasharray:none;-inkscape-stroke:hairline" /><path
       d="M 722.47904,81.083592 745.3044,64.5 H 773.51809 L 750.69273,81.083592 Z"
       id="path10-8"
       style="vector-effect:non-scaling-stroke;stroke-width:0.264583;stroke-dasharray:none;-inkscape-stroke:hairline" /><path
       d="M 639.89613,107.91641 648.61464,81.083592 H 676.82833 L 654.00297,64.5 662.72148,37.667184 639.89613,54.250776 617.07077,37.667184 625.78928,64.5 602.96392,81.083592 H 631.17762 Z"
       id="path11-7"
       style="vector-effect:non-scaling-stroke;stroke-width:0.264583;stroke-dasharray:none;-inkscape-stroke:hairline" /><path
       d="M 759.41124,107.91641 H 787.62494 L 810.45029,124.5 H 782.2366 Z"
       id="path12-2"
       style="vector-effect:non-scaling-stroke;stroke-width:0.264583;stroke-dasharray:none;-inkscape-stroke:hairline" /><path
       d="M 856.10101,124.5 878.92636,107.91641 870.20785,134.74922 847.3825,151.33282 Z"
       id="path13-7"
       style="vector-effect:non-scaling-stroke;stroke-width:0.264583;stroke-dasharray:none;-inkscape-stroke:hairline" /><path
       d="M 907.14005,107.91641 929.96541,124.5 938.68392,151.33282 915.85856,134.74922 Z"
       id="path14-7"
       style="vector-effect:non-scaling-stroke;stroke-width:0.264583;stroke-dasharray:none;-inkscape-stroke:hairline" /><path
       d="M 915.85856,81.083592 938.68392,64.5 H 966.89761 L 944.07226,81.083592 Z"
       id="path15-4"
       style="vector-effect:non-scaling-stroke;stroke-width:0.264583;stroke-dasharray:none;-inkscape-stroke:hairline" /><path
       d="M 833.27565,107.91641 841.99416,81.083592 H 870.20785 L 847.3825,64.5 856.10101,37.667184 833.27565,54.250776 810.45029,37.667184 819.1688,64.5 796.34345,81.083592 H 824.55714 Z"
       id="path16-1"
       style="vector-effect:non-scaling-stroke;stroke-width:0.264583;stroke-dasharray:none;-inkscape-stroke:hairline" /><path
       d="M 952.79077,107.91641 H 981.00446 L 1003.8298,124.5 H 975.61612 Z"
       id="path17-7"
       style="vector-effect:non-scaling-stroke;stroke-width:0.264583;stroke-dasharray:none;-inkscape-stroke:hairline" /><path
       d="M 1049.4805,124.5 1072.3059,107.91641 1063.5874,134.74922 1040.762,151.33282 Z"
       id="path18-6"
       style="vector-effect:non-scaling-stroke;stroke-width:0.264583;stroke-dasharray:none;-inkscape-stroke:hairline" /><path
       d="M 1100.5196,107.91641 1123.3449,124.5 1132.0634,151.33282 1109.2381,134.74922 Z"
       id="path19-6"
       style="vector-effect:non-scaling-stroke;stroke-width:0.264583;stroke-dasharray:none;-inkscape-stroke:hairline" /><path
       d="M 1109.2381,81.083592 1132.0634,64.5 H 1160.2771 L 1137.4518,81.083592 Z"
       id="path20-9"
       style="vector-effect:non-scaling-stroke;stroke-width:0.264583;stroke-dasharray:none;-inkscape-stroke:hairline" /><path
       d="M 1026.6552,107.91641 1035.3737,81.083592 H 1063.5874 L 1040.762,64.5 1049.4805,37.667184 1026.6552,54.250776 1003.8298,37.667184 1012.5483,64.5 989.72297,81.083592 H 1017.9367 Z"
       id="path21-4"
       style="vector-effect:non-scaling-stroke;stroke-width:0.264583;stroke-dasharray:none;-inkscape-stroke:hairline" /><path
       d="M 1146.1703,107.91641 H 1174.384 L 1197.2093,124.5 H 1168.9956 Z"
       id="path22-2"
       style="vector-effect:non-scaling-stroke;stroke-width:0.264583;stroke-dasharray:none;-inkscape-stroke:hairline" /><path
       d="M 819.1688,151.33282 811.15395,176 H 781.53294 L 773.51809,151.33282 796.34345,167.91641 Z"
       id="path23-1"
       style="vector-effect:non-scaling-stroke;stroke-width:0.264583;stroke-dasharray:none;-inkscape-stroke:hairline" /><path
       d="M 698.95003,13 H 700.35734 L 708.3722,37.667184 699.65369,64.5 690.93518,37.667184 Z"
       id="path24-0"
       style="vector-effect:non-scaling-stroke;stroke-width:0.264583;stroke-dasharray:none;-inkscape-stroke:hairline" /><path
       d="M 357.8417,13 H 387.4627 L 395.47756,37.667184 372.6522,21.083592 349.82684,37.667184 Z"
       id="path25-2"
       style="vector-effect:non-scaling-stroke;stroke-width:0.264583;stroke-dasharray:none;-inkscape-stroke:hairline" /><path
       d="M 892.32955,13 H 893.73686 L 901.75172,37.667184 893.03321,64.5 884.3147,37.667184 Z"
       id="path26-4"
       style="vector-effect:non-scaling-stroke;stroke-width:0.264583;stroke-dasharray:none;-inkscape-stroke:hairline" /><path
       d="M 1131.3598,13 H 1160.9808 L 1168.9956,37.667184 1146.1703,21.083592 1123.3449,37.667184 Z"
       id="path27-3"
       style="vector-effect:non-scaling-stroke;stroke-width:0.264583;stroke-dasharray:none;-inkscape-stroke:hairline" /><path
       d="M 432.40976,151.33282 424.3949,176 H 394.7739 L 386.75905,151.33282 409.5844,167.91641 Z"
       id="path28-4"
       style="vector-effect:non-scaling-stroke;stroke-width:0.264583;stroke-dasharray:none;-inkscape-stroke:hairline" /><path
       d="M 1085.7091,13 H 1087.1164 L 1095.1312,37.667184 1086.4127,64.5 1077.6942,37.667184 Z"
       id="path29-4"
       style="vector-effect:non-scaling-stroke;stroke-width:0.264583;stroke-dasharray:none;-inkscape-stroke:hairline" /><path
       d="M 937.98026,13 H 967.60127 L 975.61612,37.667184 952.79077,21.083592 929.96541,37.667184 Z"
       id="path30-5"
       style="vector-effect:non-scaling-stroke;stroke-width:0.264583;stroke-dasharray:none;-inkscape-stroke:hairline" /><path
       d="M 1205.9278,151.33282 1197.913,176 H 1168.292 L 1160.2771,151.33282 1183.1025,167.91641 Z"
       id="path31-0"
       style="vector-effect:non-scaling-stroke;stroke-width:0.264583;stroke-dasharray:none;-inkscape-stroke:hairline" /><path
       d="M 505.57051,13 H 506.97782 L 514.99267,37.667184 506.27416,64.5 497.55565,37.667184 Z"
       id="path32-5"
       style="vector-effect:non-scaling-stroke;stroke-width:0.264583;stroke-dasharray:none;-inkscape-stroke:hairline" /><path
       d="M 1012.5483,151.33282 1004.5335,176 H 974.91247 L 966.89761,151.33282 989.72297,167.91641 Z"
       id="path33-0"
       style="vector-effect:non-scaling-stroke;stroke-width:0.264583;stroke-dasharray:none;-inkscape-stroke:hairline" /><path
       d="M 744.60074,13 H 774.22175 L 782.2366,37.667184 759.41124,21.083592 736.58589,37.667184 Z"
       id="path34-1"
       style="vector-effect:non-scaling-stroke;stroke-width:0.264583;stroke-dasharray:none;-inkscape-stroke:hairline" /><path
       d="M 330.87735,119.84508 V 110.73238 L 349.82684,124.5 358.54535,151.33282 335.72,134.74922 Z"
       id="path35-8"
       style="vector-effect:non-scaling-stroke;stroke-width:0.264583;stroke-dasharray:none;-inkscape-stroke:hairline" /><path
       d="M 625.78928,151.33282 617.77443,176 H 588.15342 L 580.13857,151.33282 602.96392,167.91641 Z"
       id="path36-8"
       style="vector-effect:non-scaling-stroke;stroke-width:0.264583;stroke-dasharray:none;-inkscape-stroke:hairline" /><path
       d="M 551.22122,13 H 580.84222 L 588.85708,37.667184 566.03172,21.083592 543.20637,37.667184 Z"
       id="path37-5"
       style="vector-effect:non-scaling-stroke;stroke-width:0.264583;stroke-dasharray:none;-inkscape-stroke:hairline" /><path
       d="M 1197.2093,37.667184 1220.0347,54.250776 1224.8773,50.732384 V 93.01226 L 1220.0347,107.91641 1211.3162,81.083592 H 1183.1025 L 1205.9278,64.5 Z"
       id="path38-1"
       style="vector-effect:non-scaling-stroke;stroke-width:0.264583;stroke-dasharray:none;-inkscape-stroke:hairline" /><path
       d="M 323.87735,189 H 1231.8773 V 0 H 323.87735 Z"
       id="path39-4"
       style="vector-effect:non-scaling-stroke;stroke-width:0.264583;stroke-dasharray:none;-inkscape-stroke:hairline" /></g></svg>
