<?xml version="1.0" encoding="UTF-8" standalone="no"?>
<svg
   height="300mm"
   version="1.1"
   viewBox="0 0 1200 300"
   width="1200mm"
   id="svg39"
   sodipodi:docname="tramo1.8_corte.svg"
   inkscape:version="1.4.2 (1:1.4.2+202505120737+ebf0e940d0)"
   xmlns:inkscape="http://www.inkscape.org/namespaces/inkscape"
   xmlns:sodipodi="http://sodipodi.sourceforge.net/DTD/sodipodi-0.dtd"
   xmlns="http://www.w3.org/2000/svg"
   xmlns:svg="http://www.w3.org/2000/svg">
  <sodipodi:namedview
     id="namedview39"
     pagecolor="#ffffff"
     bordercolor="#666666"
     borderopacity="1.0"
     inkscape:showpageshadow="2"
     inkscape:pageopacity="0.0"
     inkscape:pagecheckerboard="0"
     inkscape:deskcolor="#d1d1d1"
     inkscape:document-units="mm"
     inkscape:zoom="0.1897283"
     inkscape:cx="2187.3384"
     inkscape:cy="943.45441"
     inkscape:window-width="1920"
     inkscape:window-height="1011"
     inkscape:window-x="0"
     inkscape:window-y="0"
     inkscape:window-maximized="1"
     inkscape:current-layer="svg39" />
  <defs
     id="defs1" />
  <g
     fill="none"
     stroke="blue"
     stroke-width="0.5"
     transform="translate(-177.87734543435022,55.5)"
     id="g39"
     style="vector-effect:non-scaling-stroke;-inkscape-stroke:hairline;stroke-width:0.26458333;stroke-dasharray:none">
    <path
       d="M 335.71999663203667,81.08359213500125 L 358.54535302312036,64.5 L 386.759045133159,64.5 L 363.93368874207533,81.08359213500125 L 335.71999663203667,81.08359213500125 Z"
       id="path1"
       style="vector-effect:non-scaling-stroke;-inkscape-stroke:hairline;stroke-width:0.26458333;stroke-dasharray:none" />
    <path
       d="M 372.6521990781397,107.91640786499875 L 400.86589118817835,107.91640786499875 L 423.69124757926204,124.5 L 395.4775554692234,124.5 L 372.6521990781397,107.91640786499875 Z"
       id="path2"
       style="vector-effect:non-scaling-stroke;-inkscape-stroke:hairline;stroke-width:0.26458333;stroke-dasharray:none" />
    <path
       d="M 469.3419603614294,124.5 L 492.1673167525131,107.91640786499875 L 483.44880641644875,134.7492235949962 L 460.6234500253651,151.3328157299975 L 469.3419603614294,124.5 Z"
       id="path3"
       style="vector-effect:non-scaling-stroke;-inkscape-stroke:hairline;stroke-width:0.26458333;stroke-dasharray:none" />
    <path
       d="M 520.3810088625519,107.91640786499875 L 543.2063652536356,124.5 L 551.9248755896998,151.3328157299975 L 529.0995191986161,134.7492235949962 L 520.3810088625519,107.91640786499875 Z"
       id="path4"
       style="vector-effect:non-scaling-stroke;-inkscape-stroke:hairline;stroke-width:0.26458333;stroke-dasharray:none" />
    <path
       d="M 529.0995191986161,81.08359213500125 L 551.9248755896998,64.5 L 580.1385676997386,64.5 L 557.3132113086549,81.08359213500125 L 529.0995191986161,81.08359213500125 Z"
       id="path5"
       style="vector-effect:non-scaling-stroke;-inkscape-stroke:hairline;stroke-width:0.26458333;stroke-dasharray:none" />
    <path
       d="M 446.5166039703457,107.91640786499875 L 455.2351143064101,81.08359213500127 L 483.44880641644875,81.08359213500127 L 460.6234500253651,64.5 L 469.3419603614294,37.66718427000253 L 446.5166039703457,54.25077640500379 L 423.69124757926204,37.66718427000252 L 432.4097579153264,64.5 L 409.5844015242427,81.08359213500125 L 437.79809363428143,81.08359213500125 L 446.5166039703457,107.91640786499875 Z"
       id="path6"
       style="vector-effect:non-scaling-stroke;-inkscape-stroke:hairline;stroke-width:0.26458333;stroke-dasharray:none" />
    <path
       d="M 566.0317216447193,107.91640786499875 L 594.2454137547579,107.91640786499875 L 617.0707701458416,124.5 L 588.8570780358029,124.5 L 566.0317216447193,107.91640786499875 Z"
       id="path7"
       style="vector-effect:non-scaling-stroke;-inkscape-stroke:hairline;stroke-width:0.26458333;stroke-dasharray:none" />
    <path
       d="M 662.721482928009,124.5 L 685.5468393190927,107.91640786499875 L 676.8283289830283,134.7492235949962 L 654.0029725919446,151.3328157299975 L 662.721482928009,124.5 Z"
       id="path8"
       style="vector-effect:non-scaling-stroke;-inkscape-stroke:hairline;stroke-width:0.26458333;stroke-dasharray:none" />
    <path
       d="M 713.7605314291313,107.91640786499875 L 736.585887820215,124.5 L 745.3043981562794,151.3328157299975 L 722.4790417651957,134.7492235949962 L 713.7605314291313,107.91640786499875 Z"
       id="path9"
       style="vector-effect:non-scaling-stroke;-inkscape-stroke:hairline;stroke-width:0.26458333;stroke-dasharray:none" />
    <path
       d="M 722.4790417651957,81.08359213500125 L 745.3043981562794,64.5 L 773.518090266318,64.5 L 750.6927338752345,81.08359213500125 L 722.4790417651957,81.08359213500125 Z"
       id="path10"
       style="vector-effect:non-scaling-stroke;-inkscape-stroke:hairline;stroke-width:0.26458333;stroke-dasharray:none" />
    <path
       d="M 639.8961265369253,107.91640786499875 L 648.6146368729896,81.08359213500127 L 676.8283289830283,81.08359213500127 L 654.0029725919446,64.5 L 662.721482928009,37.66718427000253 L 639.8961265369253,54.25077640500379 L 617.0707701458416,37.66718427000252 L 625.789280481906,64.5 L 602.9639240908223,81.08359213500125 L 631.1776162008609,81.08359213500125 L 639.8961265369253,107.91640786499875 Z"
       id="path11"
       style="vector-effect:non-scaling-stroke;-inkscape-stroke:hairline;stroke-width:0.26458333;stroke-dasharray:none" />
    <path
       d="M 759.4112442112987,107.91640786499875 L 787.6249363213374,107.91640786499875 L 810.4502927124211,124.5 L 782.2366006023824,124.5 L 759.4112442112987,107.91640786499875 Z"
       id="path12"
       style="vector-effect:non-scaling-stroke;-inkscape-stroke:hairline;stroke-width:0.26458333;stroke-dasharray:none" />
    <path
       d="M 856.1010054945884,124.5 L 878.9263618856721,107.91640786499875 L 870.2078515496078,134.7492235949962 L 847.3824951585241,151.3328157299975 L 856.1010054945884,124.5 Z"
       id="path13"
       style="vector-effect:non-scaling-stroke;-inkscape-stroke:hairline;stroke-width:0.26458333;stroke-dasharray:none" />
    <path
       d="M 907.1400539957108,107.91640786499875 L 929.9654103867945,124.5 L 938.6839207228588,151.3328157299975 L 915.8585643317751,134.7492235949962 L 907.1400539957108,107.91640786499875 Z"
       id="path14"
       style="vector-effect:non-scaling-stroke;-inkscape-stroke:hairline;stroke-width:0.26458333;stroke-dasharray:none" />
    <path
       d="M 915.8585643317751,81.08359213500125 L 938.6839207228588,64.5 L 966.8976128328975,64.5 L 944.0722564418139,81.08359213500125 L 915.8585643317751,81.08359213500125 Z"
       id="path15"
       style="vector-effect:non-scaling-stroke;-inkscape-stroke:hairline;stroke-width:0.26458333;stroke-dasharray:none" />
    <path
       d="M 833.2756491035047,107.91640786499875 L 841.9941594395691,81.08359213500127 L 870.2078515496078,81.08359213500127 L 847.3824951585241,64.5 L 856.1010054945884,37.66718427000253 L 833.2756491035047,54.25077640500379 L 810.4502927124211,37.66718427000252 L 819.1688030484854,64.5 L 796.3434466574017,81.08359213500125 L 824.5571387674404,81.08359213500125 L 833.2756491035047,107.91640786499875 Z"
       id="path16"
       style="vector-effect:non-scaling-stroke;-inkscape-stroke:hairline;stroke-width:0.26458333;stroke-dasharray:none" />
    <path
       d="M 952.7907667778782,107.91640786499875 L 981.0044588879168,107.91640786499875 L 1003.8298152790005,124.5 L 975.6161231689618,124.5 L 952.7907667778782,107.91640786499875 Z"
       id="path17"
       style="vector-effect:non-scaling-stroke;-inkscape-stroke:hairline;stroke-width:0.26458333;stroke-dasharray:none" />
    <path
       d="M 1049.480528061168,124.5 L 1072.3058844522516,107.91640786499875 L 1063.5873741161872,134.7492235949962 L 1040.7620177251035,151.3328157299975 L 1049.480528061168,124.5 Z"
       id="path18"
       style="vector-effect:non-scaling-stroke;-inkscape-stroke:hairline;stroke-width:0.26458333;stroke-dasharray:none" />
    <path
       d="M 1100.5195765622902,107.91640786499875 L 1123.344932953374,124.5 L 1132.0634432894383,151.3328157299975 L 1109.2380868983546,134.7492235949962 L 1100.5195765622902,107.91640786499875 Z"
       id="path19"
       style="vector-effect:non-scaling-stroke;-inkscape-stroke:hairline;stroke-width:0.26458333;stroke-dasharray:none" />
    <path
       d="M 1109.2380868983546,81.08359213500125 L 1132.0634432894383,64.5 L 1160.277135399477,64.5 L 1137.4517790083933,81.08359213500125 L 1109.2380868983546,81.08359213500125 Z"
       id="path20"
       style="vector-effect:non-scaling-stroke;-inkscape-stroke:hairline;stroke-width:0.26458333;stroke-dasharray:none" />
    <path
       d="M 1026.6551716700842,107.91640786499875 L 1035.3736820061486,81.08359213500127 L 1063.5873741161872,81.08359213500127 L 1040.7620177251035,64.5 L 1049.480528061168,37.66718427000253 L 1026.6551716700842,54.25077640500379 L 1003.8298152790005,37.66718427000252 L 1012.5483256150649,64.5 L 989.7229692239812,81.08359213500125 L 1017.9366613340198,81.08359213500125 L 1026.6551716700842,107.91640786499875 Z"
       id="path21"
       style="vector-effect:non-scaling-stroke;-inkscape-stroke:hairline;stroke-width:0.26458333;stroke-dasharray:none" />
    <path
       d="M 1146.1702893444578,107.91640786499875 L 1174.3839814544965,107.91640786499875 L 1197.2093378455802,124.5 L 1168.9956457355415,124.5 L 1146.1702893444578,107.91640786499875 Z"
       id="path22"
       style="vector-effect:non-scaling-stroke;-inkscape-stroke:hairline;stroke-width:0.26458333;stroke-dasharray:none" />
    <path
       d="M 819.1688030484854,151.3328157299975 L 811.1539490285551,176.0 L 781.5329442862484,176.0 L 773.518090266318,151.3328157299975 L 796.3434466574017,167.91640786499875 L 819.1688030484854,151.3328157299975 Z"
       id="path23"
       style="vector-effect:non-scaling-stroke;-inkscape-stroke:hairline;stroke-width:0.26458333;stroke-dasharray:none" />
    <path
       d="M 698.950029057978,13.0 L 700.357341690246,13.0 L 708.3721957101764,37.66718427000254 L 699.653685374112,64.5 L 690.9351750380478,37.66718427000254 L 698.950029057978,13.0 Z"
       id="path24"
       style="vector-effect:non-scaling-stroke;-inkscape-stroke:hairline;stroke-width:0.26458333;stroke-dasharray:none" />
    <path
       d="M 357.84169670698634,13.0 L 387.46270144929304,13.0 L 395.4775554692234,37.66718427000252 L 372.6521990781397,21.083592135001254 L 349.826842687056,37.667184270002515 L 357.84169670698634,13.0 Z"
       id="path25"
       style="vector-effect:non-scaling-stroke;-inkscape-stroke:hairline;stroke-width:0.26458333;stroke-dasharray:none" />
    <path
       d="M 892.3295516245574,13.0 L 893.7368642568255,13.0 L 901.7517182767558,37.66718427000254 L 893.0332079406915,64.5 L 884.3146976046272,37.66718427000254 L 892.3295516245574,13.0 Z"
       id="path26"
       style="vector-effect:non-scaling-stroke;-inkscape-stroke:hairline;stroke-width:0.26458333;stroke-dasharray:none" />
    <path
       d="M 1131.3597869733044,13.0 L 1160.9807917156108,13.0 L 1168.9956457355413,37.66718427000252 L 1146.1702893444576,21.083592135001254 L 1123.344932953374,37.667184270002515 L 1131.3597869733044,13.0 Z"
       id="path27"
       style="vector-effect:non-scaling-stroke;-inkscape-stroke:hairline;stroke-width:0.26458333;stroke-dasharray:none" />
    <path
       d="M 432.4097579153264,151.3328157299975 L 424.39490389539606,176.0 L 394.77389915308936,176.0 L 386.759045133159,151.3328157299975 L 409.5844015242427,167.91640786499875 L 432.4097579153264,151.3328157299975 Z"
       id="path28"
       style="vector-effect:non-scaling-stroke;-inkscape-stroke:hairline;stroke-width:0.26458333;stroke-dasharray:none" />
    <path
       d="M 1085.709074191137,13.0 L 1087.1163868234048,13.0 L 1095.1312408433353,37.66718427000254 L 1086.412730507271,64.5 L 1077.6942201712066,37.66718427000254 L 1085.709074191137,13.0 Z"
       id="path29"
       style="vector-effect:non-scaling-stroke;-inkscape-stroke:hairline;stroke-width:0.26458333;stroke-dasharray:none" />
    <path
       d="M 937.9802644067248,13.0 L 967.6012691490316,13.0 L 975.6161231689618,37.66718427000252 L 952.7907667778782,21.083592135001254 L 929.9654103867945,37.667184270002515 L 937.9802644067248,13.0 Z"
       id="path30"
       style="vector-effect:non-scaling-stroke;-inkscape-stroke:hairline;stroke-width:0.26458333;stroke-dasharray:none" />
    <path
       d="M 1205.9278481816445,151.3328157299975 L 1197.912994161714,176.0 L 1168.2919894194076,176.0 L 1160.2771353994772,151.3328157299975 L 1183.1024917905609,167.91640786499875 L 1205.9278481816445,151.3328157299975 Z"
       id="path31"
       style="vector-effect:non-scaling-stroke;-inkscape-stroke:hairline;stroke-width:0.26458333;stroke-dasharray:none" />
    <path
       d="M 505.5705064913985,13.0 L 506.9778191236664,13.0 L 514.9926731435968,37.66718427000254 L 506.2741628075325,64.5 L 497.55565247146814,37.66718427000254 L 505.5705064913985,13.0 Z"
       id="path32"
       style="vector-effect:non-scaling-stroke;-inkscape-stroke:hairline;stroke-width:0.26458333;stroke-dasharray:none" />
    <path
       d="M 1012.5483256150649,151.3328157299975 L 1004.5334715951345,176.0 L 974.9124668528278,176.0 L 966.8976128328975,151.3328157299975 L 989.7229692239812,167.91640786499875 L 1012.5483256150649,151.3328157299975 Z"
       id="path33"
       style="vector-effect:non-scaling-stroke;-inkscape-stroke:hairline;stroke-width:0.26458333;stroke-dasharray:none" />
    <path
       d="M 744.6007418401454,13.0 L 774.2217465824522,13.0 L 782.2366006023824,37.66718427000252 L 759.4112442112987,21.083592135001254 L 736.585887820215,37.667184270002515 L 744.6007418401454,13.0 Z"
       id="path34"
       style="vector-effect:non-scaling-stroke;-inkscape-stroke:hairline;stroke-width:0.26458333;stroke-dasharray:none" />
    <path
       d="M 330.8773454343502,119.84507572759465 L 330.8773454343502,110.7323843615885 L 349.826842687056,124.5 L 358.54535302312036,151.3328157299975 L 335.71999663203667,134.7492235949962 L 330.8773454343502,119.84507572759465 Z"
       id="path35"
       style="vector-effect:non-scaling-stroke;-inkscape-stroke:hairline;stroke-width:0.26458333;stroke-dasharray:none" />
    <path
       d="M 625.789280481906,151.3328157299975 L 617.7744264619756,176.0 L 588.1534217196689,176.0 L 580.1385676997386,151.3328157299975 L 602.9639240908223,167.91640786499875 L 625.789280481906,151.3328157299975 Z"
       id="path36"
       style="vector-effect:non-scaling-stroke;-inkscape-stroke:hairline;stroke-width:0.26458333;stroke-dasharray:none" />
    <path
       d="M 551.2212192735658,13.0 L 580.8422240158726,13.0 L 588.8570780358029,37.66718427000252 L 566.0317216447193,21.083592135001254 L 543.2063652536356,37.667184270002515 L 551.2212192735658,13.0 Z"
       id="path37"
       style="vector-effect:non-scaling-stroke;-inkscape-stroke:hairline;stroke-width:0.26458333;stroke-dasharray:none" />
    <path
       d="M 1197.2093378455802,37.66718427000252 L 1220.0346942366639,54.25077640500379 L 1224.8773454343502,50.73238436158857 L 1224.8773454343502,93.01225999759752 L 1220.0346942366639,107.91640786499875 L 1211.3161839005995,81.08359213500125 L 1183.1024917905609,81.08359213500125 L 1205.9278481816445,64.5 L 1197.2093378455802,37.66718427000252 Z"
       id="path38"
       style="vector-effect:non-scaling-stroke;-inkscape-stroke:hairline;stroke-width:0.26458333;stroke-dasharray:none" />
    <path
       d="M 323.8773454343502,189.0 L 1231.8773454343502,189.0 L 1231.8773454343502,0.0 L 323.8773454343502,0.0 L 323.8773454343502,189.0 Z"
       id="path39"
       style="vector-effect:non-scaling-stroke;-inkscape-stroke:hairline;stroke-width:0.26458333;stroke-dasharray:none" />
  </g>
</svg>
