999
"DXF R12 Output" (www.mydxf.blogspot.com)
 0 
SECTION
 2 
HEADER
 9 
$ACADVER
 1 
AC1009
 9 
$EXTMIN
 10 
 0 
 20 
 0 
 9 
$EXTMAX
 10 
 8.5 
 20 
 11 
 0 
ENDSEC
 0 
SECTION
 2 
ENTITIES
0
POLYLINE
8
Layer 1
62
7
70
1
10
0.000000
20
0.000000
66
1
0
VERTEX
8
Layer 1
10
194.774838
20
120.000000
70
0
0
VERTEX
8
Layer 1
10
217.600194
20
136.583592
70
0
0
VERTEX
8
Layer 1
10
208.881684
20
163.416408
70
0
0
VERTEX
8
Layer 1
10
180.667992
20
163.416408
70
0
0
VERTEX
8
Layer 1
10
171.949481
20
136.583592
70
0
0
VERTEX
8
Layer 1
10
194.774838
20
120.000000
70
0
0
VERTEX
8
Layer 1
10
194.774838
20
120.000000
70
0
0
SEQEND
8
Layer 1
0
POLYLINE
8
Layer 1
62
7
70
1
10
0.000000
20
0.000000
66
1
0
VERTEX
8
Layer 1
10
208.881684
20
163.416408
70
0
0
VERTEX
8
Layer 1
10
231.707040
20
180.000000
70
0
0
VERTEX
8
Layer 1
10
222.988530
20
206.832816
70
0
0
VERTEX
8
Layer 1
10
194.774838
20
206.832816
70
0
0
VERTEX
8
Layer 1
10
186.056327
20
180.000000
70
0
0
VERTEX
8
Layer 1
10
208.881684
20
163.416408
70
0
0
VERTEX
8
Layer 1
10
208.881684
20
163.416408
70
0
0
SEQEND
8
Layer 1
0
POLYLINE
8
Layer 1
62
7
70
1
10
0.000000
20
0.000000
66
1
0
VERTEX
8
Layer 1
10
231.707040
20
93.167184
70
0
0
VERTEX
8
Layer 1
10
254.532397
20
109.750776
70
0
0
VERTEX
8
Layer 1
10
245.813886
20
136.583592
70
0
0
VERTEX
8
Layer 1
10
217.600194
20
136.583592
70
0
0
VERTEX
8
Layer 1
10
208.881684
20
109.750776
70
0
0
VERTEX
8
Layer 1
10
231.707040
20
93.167184
70
0
0
VERTEX
8
Layer 1
10
231.707040
20
93.167184
70
0
0
SEQEND
8
Layer 1
0
POLYLINE
8
Layer 1
62
7
70
1
10
0.000000
20
0.000000
66
1
0
VERTEX
8
Layer 1
10
231.707040
20
180.000000
70
0
0
VERTEX
8
Layer 1
10
208.881684
20
163.416408
70
0
0
VERTEX
8
Layer 1
10
217.600194
20
136.583592
70
0
0
VERTEX
8
Layer 1
10
245.813886
20
136.583592
70
0
0
VERTEX
8
Layer 1
10
254.532397
20
163.416408
70
0
0
VERTEX
8
Layer 1
10
231.707040
20
180.000000
70
0
0
VERTEX
8
Layer 1
10
231.707040
20
180.000000
70
0
0
SEQEND
8
Layer 1
0
POLYLINE
8
Layer 1
62
7
70
1
10
0.000000
20
0.000000
66
1
0
VERTEX
8
Layer 1
10
254.532397
20
163.416408
70
0
0
VERTEX
8
Layer 1
10
277.357753
20
180.000000
70
0
0
VERTEX
8
Layer 1
10
268.639243
20
206.832816
70
0
0
VERTEX
8
Layer 1
10
240.425551
20
206.832816
70
0
0
VERTEX
8
Layer 1
10
231.707040
20
180.000000
70
0
0
VERTEX
8
Layer 1
10
254.532397
20
163.416408
70
0
0
VERTEX
8
Layer 1
10
254.532397
20
163.416408
70
0
0
SEQEND
8
Layer 1
0
POLYLINE
8
Layer 1
62
7
70
1
10
0.000000
20
0.000000
66
1
0
VERTEX
8
Layer 1
10
268.639243
20
120.000000
70
0
0
VERTEX
8
Layer 1
10
291.464599
20
136.583592
70
0
0
VERTEX
8
Layer 1
10
282.746089
20
163.416408
70
0
0
VERTEX
8
Layer 1
10
254.532397
20
163.416408
70
0
0
VERTEX
8
Layer 1
10
245.813886
20
136.583592
70
0
0
VERTEX
8
Layer 1
10
268.639243
20
120.000000
70
0
0
VERTEX
8
Layer 1
10
268.639243
20
120.000000
70
0
0
SEQEND
8
Layer 1
0
POLYLINE
8
Layer 1
62
7
70
1
10
0.000000
20
0.000000
66
1
0
VERTEX
8
Layer 1
10
291.464599
20
223.416408
70
0
0
VERTEX
8
Layer 1
10
268.639243
20
206.832816
70
0
0
VERTEX
8
Layer 1
10
277.357753
20
180.000000
70
0
0
VERTEX
8
Layer 1
10
305.571445
20
180.000000
70
0
0
VERTEX
8
Layer 1
10
314.289955
20
206.832816
70
0
0
VERTEX
8
Layer 1
10
291.464599
20
223.416408
70
0
0
VERTEX
8
Layer 1
10
291.464599
20
223.416408
70
0
0
SEQEND
8
Layer 1
0
POLYLINE
8
Layer 1
62
7
70
1
10
0.000000
20
0.000000
66
1
0
VERTEX
8
Layer 1
10
291.464599
20
136.583592
70
0
0
VERTEX
8
Layer 1
10
268.639243
20
120.000000
70
0
0
VERTEX
8
Layer 1
10
277.357753
20
93.167184
70
0
0
VERTEX
8
Layer 1
10
305.571445
20
93.167184
70
0
0
VERTEX
8
Layer 1
10
314.289955
20
120.000000
70
0
0
VERTEX
8
Layer 1
10
291.464599
20
136.583592
70
0
0
VERTEX
8
Layer 1
10
291.464599
20
136.583592
70
0
0
SEQEND
8
Layer 1
0
POLYLINE
8
Layer 1
62
7
70
1
10
0.000000
20
0.000000
66
1
0
VERTEX
8
Layer 1
10
305.571445
20
180.000000
70
0
0
VERTEX
8
Layer 1
10
282.746089
20
163.416408
70
0
0
VERTEX
8
Layer 1
10
291.464599
20
136.583592
70
0
0
VERTEX
8
Layer 1
10
319.678291
20
136.583592
70
0
0
VERTEX
8
Layer 1
10
328.396802
20
163.416408
70
0
0
VERTEX
8
Layer 1
10
305.571445
20
180.000000
70
0
0
VERTEX
8
Layer 1
10
305.571445
20
180.000000
70
0
0
SEQEND
8
Layer 1
0
POLYLINE
8
Layer 1
62
7
70
1
10
0.000000
20
0.000000
66
1
0
VERTEX
8
Layer 1
10
342.503648
20
120.000000
70
0
0
VERTEX
8
Layer 1
10
365.329004
20
136.583592
70
0
0
VERTEX
8
Layer 1
10
356.610494
20
163.416408
70
0
0
VERTEX
8
Layer 1
10
328.396802
20
163.416408
70
0
0
VERTEX
8
Layer 1
10
319.678291
20
136.583592
70
0
0
VERTEX
8
Layer 1
10
342.503648
20
120.000000
70
0
0
VERTEX
8
Layer 1
10
342.503648
20
120.000000
70
0
0
SEQEND
8
Layer 1
0
POLYLINE
8
Layer 1
62
7
70
1
10
0.000000
20
0.000000
66
1
0
VERTEX
8
Layer 1
10
328.396802
20
163.416408
70
0
0
VERTEX
8
Layer 1
10
351.222158
20
180.000000
70
0
0
VERTEX
8
Layer 1
10
342.503648
20
206.832816
70
0
0
VERTEX
8
Layer 1
10
314.289955
20
206.832816
70
0
0
VERTEX
8
Layer 1
10
305.571445
20
180.000000
70
0
0
VERTEX
8
Layer 1
10
328.396802
20
163.416408
70
0
0
VERTEX
8
Layer 1
10
328.396802
20
163.416408
70
0
0
SEQEND
8
Layer 1
0
POLYLINE
8
Layer 1
62
7
70
1
10
0.000000
20
0.000000
66
1
0
VERTEX
8
Layer 1
10
365.329004
20
136.583592
70
0
0
VERTEX
8
Layer 1
10
342.503648
20
120.000000
70
0
0
VERTEX
8
Layer 1
10
351.222158
20
93.167184
70
0
0
VERTEX
8
Layer 1
10
379.435850
20
93.167184
70
0
0
VERTEX
8
Layer 1
10
388.154360
20
120.000000
70
0
0
VERTEX
8
Layer 1
10
365.329004
20
136.583592
70
0
0
VERTEX
8
Layer 1
10
365.329004
20
136.583592
70
0
0
SEQEND
8
Layer 1
0
POLYLINE
8
Layer 1
62
7
70
1
10
0.000000
20
0.000000
66
1
0
VERTEX
8
Layer 1
10
328.396802
20
76.583592
70
0
0
VERTEX
8
Layer 1
10
351.222158
20
93.167184
70
0
0
VERTEX
8
Layer 1
10
342.503648
20
120.000000
70
0
0
VERTEX
8
Layer 1
10
314.289955
20
120.000000
70
0
0
VERTEX
8
Layer 1
10
305.571445
20
93.167184
70
0
0
VERTEX
8
Layer 1
10
328.396802
20
76.583592
70
0
0
VERTEX
8
Layer 1
10
328.396802
20
76.583592
70
0
0
SEQEND
8
Layer 1
0
POLYLINE
8
Layer 1
62
7
70
1
10
0.000000
20
0.000000
66
1
0
VERTEX
8
Layer 1
10
388.154360
20
120.000000
70
0
0
VERTEX
8
Layer 1
10
410.979717
20
136.583592
70
0
0
VERTEX
8
Layer 1
10
402.261206
20
163.416408
70
0
0
VERTEX
8
Layer 1
10
374.047514
20
163.416408
70
0
0
VERTEX
8
Layer 1
10
365.329004
20
136.583592
70
0
0
VERTEX
8
Layer 1
10
388.154360
20
120.000000
70
0
0
VERTEX
8
Layer 1
10
388.154360
20
120.000000
70
0
0
SEQEND
8
Layer 1
0
POLYLINE
8
Layer 1
62
7
70
1
10
0.000000
20
0.000000
66
1
0
VERTEX
8
Layer 1
10
402.261206
20
163.416408
70
0
0
VERTEX
8
Layer 1
10
425.086563
20
180.000000
70
0
0
VERTEX
8
Layer 1
10
416.368052
20
206.832816
70
0
0
VERTEX
8
Layer 1
10
388.154360
20
206.832816
70
0
0
VERTEX
8
Layer 1
10
379.435850
20
180.000000
70
0
0
VERTEX
8
Layer 1
10
402.261206
20
163.416408
70
0
0
VERTEX
8
Layer 1
10
402.261206
20
163.416408
70
0
0
SEQEND
8
Layer 1
0
POLYLINE
8
Layer 1
62
7
70
1
10
0.000000
20
0.000000
66
1
0
VERTEX
8
Layer 1
10
425.086563
20
93.167184
70
0
0
VERTEX
8
Layer 1
10
447.911919
20
109.750776
70
0
0
VERTEX
8
Layer 1
10
439.193409
20
136.583592
70
0
0
VERTEX
8
Layer 1
10
410.979717
20
136.583592
70
0
0
VERTEX
8
Layer 1
10
402.261206
20
109.750776
70
0
0
VERTEX
8
Layer 1
10
425.086563
20
93.167184
70
0
0
VERTEX
8
Layer 1
10
425.086563
20
93.167184
70
0
0
SEQEND
8
Layer 1
0
POLYLINE
8
Layer 1
62
7
70
1
10
0.000000
20
0.000000
66
1
0
VERTEX
8
Layer 1
10
425.086563
20
180.000000
70
0
0
VERTEX
8
Layer 1
10
402.261206
20
163.416408
70
0
0
VERTEX
8
Layer 1
10
410.979717
20
136.583592
70
0
0
VERTEX
8
Layer 1
10
439.193409
20
136.583592
70
0
0
VERTEX
8
Layer 1
10
447.911919
20
163.416408
70
0
0
VERTEX
8
Layer 1
10
425.086563
20
180.000000
70
0
0
VERTEX
8
Layer 1
10
425.086563
20
180.000000
70
0
0
SEQEND
8
Layer 1
0
POLYLINE
8
Layer 1
62
7
70
1
10
0.000000
20
0.000000
66
1
0
VERTEX
8
Layer 1
10
447.911919
20
163.416408
70
0
0
VERTEX
8
Layer 1
10
470.737276
20
180.000000
70
0
0
VERTEX
8
Layer 1
10
462.018765
20
206.832816
70
0
0
VERTEX
8
Layer 1
10
433.805073
20
206.832816
70
0
0
VERTEX
8
Layer 1
10
425.086563
20
180.000000
70
0
0
VERTEX
8
Layer 1
10
447.911919
20
163.416408
70
0
0
VERTEX
8
Layer 1
10
447.911919
20
163.416408
70
0
0
SEQEND
8
Layer 1
0
POLYLINE
8
Layer 1
62
7
70
1
10
0.000000
20
0.000000
66
1
0
VERTEX
8
Layer 1
10
462.018765
20
120.000000
70
0
0
VERTEX
8
Layer 1
10
484.844122
20
136.583592
70
0
0
VERTEX
8
Layer 1
10
476.125611
20
163.416408
70
0
0
VERTEX
8
Layer 1
10
447.911919
20
163.416408
70
0
0
VERTEX
8
Layer 1
10
439.193409
20
136.583592
70
0
0
VERTEX
8
Layer 1
10
462.018765
20
120.000000
70
0
0
VERTEX
8
Layer 1
10
462.018765
20
120.000000
70
0
0
SEQEND
8
Layer 1
0
POLYLINE
8
Layer 1
62
7
70
1
10
0.000000
20
0.000000
66
1
0
VERTEX
8
Layer 1
10
484.844122
20
223.416408
70
0
0
VERTEX
8
Layer 1
10
462.018765
20
206.832816
70
0
0
VERTEX
8
Layer 1
10
470.737276
20
180.000000
70
0
0
VERTEX
8
Layer 1
10
498.950968
20
180.000000
70
0
0
VERTEX
8
Layer 1
10
507.669478
20
206.832816
70
0
0
VERTEX
8
Layer 1
10
484.844122
20
223.416408
70
0
0
VERTEX
8
Layer 1
10
484.844122
20
223.416408
70
0
0
SEQEND
8
Layer 1
0
POLYLINE
8
Layer 1
62
7
70
1
10
0.000000
20
0.000000
66
1
0
VERTEX
8
Layer 1
10
484.844122
20
136.583592
70
0
0
VERTEX
8
Layer 1
10
462.018765
20
120.000000
70
0
0
VERTEX
8
Layer 1
10
470.737276
20
93.167184
70
0
0
VERTEX
8
Layer 1
10
498.950968
20
93.167184
70
0
0
VERTEX
8
Layer 1
10
507.669478
20
120.000000
70
0
0
VERTEX
8
Layer 1
10
484.844122
20
136.583592
70
0
0
VERTEX
8
Layer 1
10
484.844122
20
136.583592
70
0
0
SEQEND
8
Layer 1
0
POLYLINE
8
Layer 1
62
7
70
1
10
0.000000
20
0.000000
66
1
0
VERTEX
8
Layer 1
10
498.950968
20
180.000000
70
0
0
VERTEX
8
Layer 1
10
476.125611
20
163.416408
70
0
0
VERTEX
8
Layer 1
10
484.844122
20
136.583592
70
0
0
VERTEX
8
Layer 1
10
513.057814
20
136.583592
70
0
0
VERTEX
8
Layer 1
10
521.776324
20
163.416408
70
0
0
VERTEX
8
Layer 1
10
498.950968
20
180.000000
70
0
0
VERTEX
8
Layer 1
10
498.950968
20
180.000000
70
0
0
SEQEND
8
Layer 1
0
POLYLINE
8
Layer 1
62
7
70
1
10
0.000000
20
0.000000
66
1
0
VERTEX
8
Layer 1
10
535.883170
20
120.000000
70
0
0
VERTEX
8
Layer 1
10
558.708527
20
136.583592
70
0
0
VERTEX
8
Layer 1
10
549.990016
20
163.416408
70
0
0
VERTEX
8
Layer 1
10
521.776324
20
163.416408
70
0
0
VERTEX
8
Layer 1
10
513.057814
20
136.583592
70
0
0
VERTEX
8
Layer 1
10
535.883170
20
120.000000
70
0
0
VERTEX
8
Layer 1
10
535.883170
20
120.000000
70
0
0
SEQEND
8
Layer 1
0
POLYLINE
8
Layer 1
62
7
70
1
10
0.000000
20
0.000000
66
1
0
VERTEX
8
Layer 1
10
521.776324
20
163.416408
70
0
0
VERTEX
8
Layer 1
10
544.601680
20
180.000000
70
0
0
VERTEX
8
Layer 1
10
535.883170
20
206.832816
70
0
0
VERTEX
8
Layer 1
10
507.669478
20
206.832816
70
0
0
VERTEX
8
Layer 1
10
498.950968
20
180.000000
70
0
0
VERTEX
8
Layer 1
10
521.776324
20
163.416408
70
0
0
VERTEX
8
Layer 1
10
521.776324
20
163.416408
70
0
0
SEQEND
8
Layer 1
0
POLYLINE
8
Layer 1
62
7
70
1
10
0.000000
20
0.000000
66
1
0
VERTEX
8
Layer 1
10
558.708527
20
136.583592
70
0
0
VERTEX
8
Layer 1
10
535.883170
20
120.000000
70
0
0
VERTEX
8
Layer 1
10
544.601680
20
93.167184
70
0
0
VERTEX
8
Layer 1
10
572.815373
20
93.167184
70
0
0
VERTEX
8
Layer 1
10
581.533883
20
120.000000
70
0
0
VERTEX
8
Layer 1
10
558.708527
20
136.583592
70
0
0
VERTEX
8
Layer 1
10
558.708527
20
136.583592
70
0
0
SEQEND
8
Layer 1
0
POLYLINE
8
Layer 1
62
7
70
1
10
0.000000
20
0.000000
66
1
0
VERTEX
8
Layer 1
10
521.776324
20
76.583592
70
0
0
VERTEX
8
Layer 1
10
544.601680
20
93.167184
70
0
0
VERTEX
8
Layer 1
10
535.883170
20
120.000000
70
0
0
VERTEX
8
Layer 1
10
507.669478
20
120.000000
70
0
0
VERTEX
8
Layer 1
10
498.950968
20
93.167184
70
0
0
VERTEX
8
Layer 1
10
521.776324
20
76.583592
70
0
0
VERTEX
8
Layer 1
10
521.776324
20
76.583592
70
0
0
SEQEND
8
Layer 1
0
POLYLINE
8
Layer 1
62
7
70
1
10
0.000000
20
0.000000
66
1
0
VERTEX
8
Layer 1
10
581.533883
20
120.000000
70
0
0
VERTEX
8
Layer 1
10
604.359239
20
136.583592
70
0
0
VERTEX
8
Layer 1
10
595.640729
20
163.416408
70
0
0
VERTEX
8
Layer 1
10
567.427037
20
163.416408
70
0
0
VERTEX
8
Layer 1
10
558.708527
20
136.583592
70
0
0
VERTEX
8
Layer 1
10
581.533883
20
120.000000
70
0
0
VERTEX
8
Layer 1
10
581.533883
20
120.000000
70
0
0
SEQEND
8
Layer 1
0
POLYLINE
8
Layer 1
62
7
70
1
10
0.000000
20
0.000000
66
1
0
VERTEX
8
Layer 1
10
595.640729
20
163.416408
70
0
0
VERTEX
8
Layer 1
10
618.466085
20
180.000000
70
0
0
VERTEX
8
Layer 1
10
609.747575
20
206.832816
70
0
0
VERTEX
8
Layer 1
10
581.533883
20
206.832816
70
0
0
VERTEX
8
Layer 1
10
572.815373
20
180.000000
70
0
0
VERTEX
8
Layer 1
10
595.640729
20
163.416408
70
0
0
VERTEX
8
Layer 1
10
595.640729
20
163.416408
70
0
0
SEQEND
8
Layer 1
0
POLYLINE
8
Layer 1
62
7
70
1
10
0.000000
20
0.000000
66
1
0
VERTEX
8
Layer 1
10
618.466085
20
93.167184
70
0
0
VERTEX
8
Layer 1
10
641.291442
20
109.750776
70
0
0
VERTEX
8
Layer 1
10
632.572931
20
136.583592
70
0
0
VERTEX
8
Layer 1
10
604.359239
20
136.583592
70
0
0
VERTEX
8
Layer 1
10
595.640729
20
109.750776
70
0
0
VERTEX
8
Layer 1
10
618.466085
20
93.167184
70
0
0
VERTEX
8
Layer 1
10
618.466085
20
93.167184
70
0
0
SEQEND
8
Layer 1
0
POLYLINE
8
Layer 1
62
7
70
1
10
0.000000
20
0.000000
66
1
0
VERTEX
8
Layer 1
10
618.466085
20
180.000000
70
0
0
VERTEX
8
Layer 1
10
595.640729
20
163.416408
70
0
0
VERTEX
8
Layer 1
10
604.359239
20
136.583592
70
0
0
VERTEX
8
Layer 1
10
632.572931
20
136.583592
70
0
0
VERTEX
8
Layer 1
10
641.291442
20
163.416408
70
0
0
VERTEX
8
Layer 1
10
618.466085
20
180.000000
70
0
0
VERTEX
8
Layer 1
10
618.466085
20
180.000000
70
0
0
SEQEND
8
Layer 1
0
POLYLINE
8
Layer 1
62
7
70
1
10
0.000000
20
0.000000
66
1
0
VERTEX
8
Layer 1
10
641.291442
20
163.416408
70
0
0
VERTEX
8
Layer 1
10
664.116798
20
180.000000
70
0
0
VERTEX
8
Layer 1
10
655.398288
20
206.832816
70
0
0
VERTEX
8
Layer 1
10
627.184596
20
206.832816
70
0
0
VERTEX
8
Layer 1
10
618.466085
20
180.000000
70
0
0
VERTEX
8
Layer 1
10
641.291442
20
163.416408
70
0
0
VERTEX
8
Layer 1
10
641.291442
20
163.416408
70
0
0
SEQEND
8
Layer 1
0
POLYLINE
8
Layer 1
62
7
70
1
10
0.000000
20
0.000000
66
1
0
VERTEX
8
Layer 1
10
655.398288
20
120.000000
70
0
0
VERTEX
8
Layer 1
10
678.223644
20
136.583592
70
0
0
VERTEX
8
Layer 1
10
669.505134
20
163.416408
70
0
0
VERTEX
8
Layer 1
10
641.291442
20
163.416408
70
0
0
VERTEX
8
Layer 1
10
632.572931
20
136.583592
70
0
0
VERTEX
8
Layer 1
10
655.398288
20
120.000000
70
0
0
VERTEX
8
Layer 1
10
655.398288
20
120.000000
70
0
0
SEQEND
8
Layer 1
0
POLYLINE
8
Layer 1
62
7
70
1
10
0.000000
20
0.000000
66
1
0
VERTEX
8
Layer 1
10
678.223644
20
223.416408
70
0
0
VERTEX
8
Layer 1
10
655.398288
20
206.832816
70
0
0
VERTEX
8
Layer 1
10
664.116798
20
180.000000
70
0
0
VERTEX
8
Layer 1
10
692.330490
20
180.000000
70
0
0
VERTEX
8
Layer 1
10
701.049001
20
206.832816
70
0
0
VERTEX
8
Layer 1
10
678.223644
20
223.416408
70
0
0
VERTEX
8
Layer 1
10
678.223644
20
223.416408
70
0
0
SEQEND
8
Layer 1
0
POLYLINE
8
Layer 1
62
7
70
1
10
0.000000
20
0.000000
66
1
0
VERTEX
8
Layer 1
10
678.223644
20
136.583592
70
0
0
VERTEX
8
Layer 1
10
655.398288
20
120.000000
70
0
0
VERTEX
8
Layer 1
10
664.116798
20
93.167184
70
0
0
VERTEX
8
Layer 1
10
692.330490
20
93.167184
70
0
0
VERTEX
8
Layer 1
10
701.049001
20
120.000000
70
0
0
VERTEX
8
Layer 1
10
678.223644
20
136.583592
70
0
0
VERTEX
8
Layer 1
10
678.223644
20
136.583592
70
0
0
SEQEND
8
Layer 1
0
POLYLINE
8
Layer 1
62
7
70
1
10
0.000000
20
0.000000
66
1
0
VERTEX
8
Layer 1
10
692.330490
20
180.000000
70
0
0
VERTEX
8
Layer 1
10
669.505134
20
163.416408
70
0
0
VERTEX
8
Layer 1
10
678.223644
20
136.583592
70
0
0
VERTEX
8
Layer 1
10
706.437336
20
136.583592
70
0
0
VERTEX
8
Layer 1
10
715.155847
20
163.416408
70
0
0
VERTEX
8
Layer 1
10
692.330490
20
180.000000
70
0
0
VERTEX
8
Layer 1
10
692.330490
20
180.000000
70
0
0
SEQEND
8
Layer 1
0
POLYLINE
8
Layer 1
62
7
70
1
10
0.000000
20
0.000000
66
1
0
VERTEX
8
Layer 1
10
729.262693
20
120.000000
70
0
0
VERTEX
8
Layer 1
10
752.088049
20
136.583592
70
0
0
VERTEX
8
Layer 1
10
743.369539
20
163.416408
70
0
0
VERTEX
8
Layer 1
10
715.155847
20
163.416408
70
0
0
VERTEX
8
Layer 1
10
706.437336
20
136.583592
70
0
0
VERTEX
8
Layer 1
10
729.262693
20
120.000000
70
0
0
VERTEX
8
Layer 1
10
729.262693
20
120.000000
70
0
0
SEQEND
8
Layer 1
0
POLYLINE
8
Layer 1
62
7
70
1
10
0.000000
20
0.000000
66
1
0
VERTEX
8
Layer 1
10
715.155847
20
163.416408
70
0
0
VERTEX
8
Layer 1
10
737.981203
20
180.000000
70
0
0
VERTEX
8
Layer 1
10
729.262693
20
206.832816
70
0
0
VERTEX
8
Layer 1
10
701.049001
20
206.832816
70
0
0
VERTEX
8
Layer 1
10
692.330490
20
180.000000
70
0
0
VERTEX
8
Layer 1
10
715.155847
20
163.416408
70
0
0
VERTEX
8
Layer 1
10
715.155847
20
163.416408
70
0
0
SEQEND
8
Layer 1
0
POLYLINE
8
Layer 1
62
7
70
1
10
0.000000
20
0.000000
66
1
0
VERTEX
8
Layer 1
10
752.088049
20
136.583592
70
0
0
VERTEX
8
Layer 1
10
729.262693
20
120.000000
70
0
0
VERTEX
8
Layer 1
10
737.981203
20
93.167184
70
0
0
VERTEX
8
Layer 1
10
766.194895
20
93.167184
70
0
0
VERTEX
8
Layer 1
10
774.913405
20
120.000000
70
0
0
VERTEX
8
Layer 1
10
752.088049
20
136.583592
70
0
0
VERTEX
8
Layer 1
10
752.088049
20
136.583592
70
0
0
SEQEND
8
Layer 1
0
POLYLINE
8
Layer 1
62
7
70
1
10
0.000000
20
0.000000
66
1
0
VERTEX
8
Layer 1
10
715.155847
20
76.583592
70
0
0
VERTEX
8
Layer 1
10
737.981203
20
93.167184
70
0
0
VERTEX
8
Layer 1
10
729.262693
20
120.000000
70
0
0
VERTEX
8
Layer 1
10
701.049001
20
120.000000
70
0
0
VERTEX
8
Layer 1
10
692.330490
20
93.167184
70
0
0
VERTEX
8
Layer 1
10
715.155847
20
76.583592
70
0
0
VERTEX
8
Layer 1
10
715.155847
20
76.583592
70
0
0
SEQEND
8
Layer 1
0
POLYLINE
8
Layer 1
62
7
70
1
10
0.000000
20
0.000000
66
1
0
VERTEX
8
Layer 1
10
774.913405
20
120.000000
70
0
0
VERTEX
8
Layer 1
10
797.738762
20
136.583592
70
0
0
VERTEX
8
Layer 1
10
789.020252
20
163.416408
70
0
0
VERTEX
8
Layer 1
10
760.806559
20
163.416408
70
0
0
VERTEX
8
Layer 1
10
752.088049
20
136.583592
70
0
0
VERTEX
8
Layer 1
10
774.913405
20
120.000000
70
0
0
VERTEX
8
Layer 1
10
774.913405
20
120.000000
70
0
0
SEQEND
8
Layer 1
0
POLYLINE
8
Layer 1
62
7
70
1
10
0.000000
20
0.000000
66
1
0
VERTEX
8
Layer 1
10
789.020252
20
163.416408
70
0
0
VERTEX
8
Layer 1
10
811.845608
20
180.000000
70
0
0
VERTEX
8
Layer 1
10
803.127098
20
206.832816
70
0
0
VERTEX
8
Layer 1
10
774.913405
20
206.832816
70
0
0
VERTEX
8
Layer 1
10
766.194895
20
180.000000
70
0
0
VERTEX
8
Layer 1
10
789.020252
20
163.416408
70
0
0
VERTEX
8
Layer 1
10
789.020252
20
163.416408
70
0
0
SEQEND
8
Layer 1
0
POLYLINE
8
Layer 1
62
7
70
1
10
0.000000
20
0.000000
66
1
0
VERTEX
8
Layer 1
10
811.845608
20
93.167184
70
0
0
VERTEX
8
Layer 1
10
834.670964
20
109.750776
70
0
0
VERTEX
8
Layer 1
10
825.952454
20
136.583592
70
0
0
VERTEX
8
Layer 1
10
797.738762
20
136.583592
70
0
0
VERTEX
8
Layer 1
10
789.020252
20
109.750776
70
0
0
VERTEX
8
Layer 1
10
811.845608
20
93.167184
70
0
0
VERTEX
8
Layer 1
10
811.845608
20
93.167184
70
0
0
SEQEND
8
Layer 1
0
POLYLINE
8
Layer 1
62
7
70
1
10
0.000000
20
0.000000
66
1
0
VERTEX
8
Layer 1
10
811.845608
20
180.000000
70
0
0
VERTEX
8
Layer 1
10
789.020252
20
163.416408
70
0
0
VERTEX
8
Layer 1
10
797.738762
20
136.583592
70
0
0
VERTEX
8
Layer 1
10
825.952454
20
136.583592
70
0
0
VERTEX
8
Layer 1
10
834.670964
20
163.416408
70
0
0
VERTEX
8
Layer 1
10
811.845608
20
180.000000
70
0
0
VERTEX
8
Layer 1
10
811.845608
20
180.000000
70
0
0
SEQEND
8
Layer 1
0
POLYLINE
8
Layer 1
62
7
70
1
10
0.000000
20
0.000000
66
1
0
VERTEX
8
Layer 1
10
834.670964
20
163.416408
70
0
0
VERTEX
8
Layer 1
10
857.496321
20
180.000000
70
0
0
VERTEX
8
Layer 1
10
848.777810
20
206.832816
70
0
0
VERTEX
8
Layer 1
10
820.564118
20
206.832816
70
0
0
VERTEX
8
Layer 1
10
811.845608
20
180.000000
70
0
0
VERTEX
8
Layer 1
10
834.670964
20
163.416408
70
0
0
VERTEX
8
Layer 1
10
834.670964
20
163.416408
70
0
0
SEQEND
8
Layer 1
0
POLYLINE
8
Layer 1
62
7
70
1
10
0.000000
20
0.000000
66
1
0
VERTEX
8
Layer 1
10
848.777810
20
120.000000
70
0
0
VERTEX
8
Layer 1
10
871.603167
20
136.583592
70
0
0
VERTEX
8
Layer 1
10
862.884656
20
163.416408
70
0
0
VERTEX
8
Layer 1
10
834.670964
20
163.416408
70
0
0
VERTEX
8
Layer 1
10
825.952454
20
136.583592
70
0
0
VERTEX
8
Layer 1
10
848.777810
20
120.000000
70
0
0
VERTEX
8
Layer 1
10
848.777810
20
120.000000
70
0
0
SEQEND
8
Layer 1
0
POLYLINE
8
Layer 1
62
7
70
1
10
0.000000
20
0.000000
66
1
0
VERTEX
8
Layer 1
10
871.603167
20
223.416408
70
0
0
VERTEX
8
Layer 1
10
848.777810
20
206.832816
70
0
0
VERTEX
8
Layer 1
10
857.496321
20
180.000000
70
0
0
VERTEX
8
Layer 1
10
885.710013
20
180.000000
70
0
0
VERTEX
8
Layer 1
10
894.428523
20
206.832816
70
0
0
VERTEX
8
Layer 1
10
871.603167
20
223.416408
70
0
0
VERTEX
8
Layer 1
10
871.603167
20
223.416408
70
0
0
SEQEND
8
Layer 1
0
POLYLINE
8
Layer 1
62
7
70
1
10
0.000000
20
0.000000
66
1
0
VERTEX
8
Layer 1
10
871.603167
20
136.583592
70
0
0
VERTEX
8
Layer 1
10
848.777810
20
120.000000
70
0
0
VERTEX
8
Layer 1
10
857.496321
20
93.167184
70
0
0
VERTEX
8
Layer 1
10
885.710013
20
93.167184
70
0
0
VERTEX
8
Layer 1
10
894.428523
20
120.000000
70
0
0
VERTEX
8
Layer 1
10
871.603167
20
136.583592
70
0
0
VERTEX
8
Layer 1
10
871.603167
20
136.583592
70
0
0
SEQEND
8
Layer 1
0
POLYLINE
8
Layer 1
62
7
70
1
10
0.000000
20
0.000000
66
1
0
VERTEX
8
Layer 1
10
885.710013
20
180.000000
70
0
0
VERTEX
8
Layer 1
10
862.884656
20
163.416408
70
0
0
VERTEX
8
Layer 1
10
871.603167
20
136.583592
70
0
0
VERTEX
8
Layer 1
10
899.816859
20
136.583592
70
0
0
VERTEX
8
Layer 1
10
908.535369
20
163.416408
70
0
0
VERTEX
8
Layer 1
10
885.710013
20
180.000000
70
0
0
VERTEX
8
Layer 1
10
885.710013
20
180.000000
70
0
0
SEQEND
8
Layer 1
0
POLYLINE
8
Layer 1
62
7
70
1
10
0.000000
20
0.000000
66
1
0
VERTEX
8
Layer 1
10
922.642215
20
120.000000
70
0
0
VERTEX
8
Layer 1
10
945.467572
20
136.583592
70
0
0
VERTEX
8
Layer 1
10
936.749061
20
163.416408
70
0
0
VERTEX
8
Layer 1
10
908.535369
20
163.416408
70
0
0
VERTEX
8
Layer 1
10
899.816859
20
136.583592
70
0
0
VERTEX
8
Layer 1
10
922.642215
20
120.000000
70
0
0
VERTEX
8
Layer 1
10
922.642215
20
120.000000
70
0
0
SEQEND
8
Layer 1
0
POLYLINE
8
Layer 1
62
7
70
1
10
0.000000
20
0.000000
66
1
0
VERTEX
8
Layer 1
10
908.535369
20
163.416408
70
0
0
VERTEX
8
Layer 1
10
931.360726
20
180.000000
70
0
0
VERTEX
8
Layer 1
10
922.642215
20
206.832816
70
0
0
VERTEX
8
Layer 1
10
894.428523
20
206.832816
70
0
0
VERTEX
8
Layer 1
10
885.710013
20
180.000000
70
0
0
VERTEX
8
Layer 1
10
908.535369
20
163.416408
70
0
0
VERTEX
8
Layer 1
10
908.535369
20
163.416408
70
0
0
SEQEND
8
Layer 1
0
POLYLINE
8
Layer 1
62
7
70
1
10
0.000000
20
0.000000
66
1
0
VERTEX
8
Layer 1
10
945.467572
20
136.583592
70
0
0
VERTEX
8
Layer 1
10
922.642215
20
120.000000
70
0
0
VERTEX
8
Layer 1
10
931.360726
20
93.167184
70
0
0
VERTEX
8
Layer 1
10
959.574418
20
93.167184
70
0
0
VERTEX
8
Layer 1
10
968.292928
20
120.000000
70
0
0
VERTEX
8
Layer 1
10
945.467572
20
136.583592
70
0
0
VERTEX
8
Layer 1
10
945.467572
20
136.583592
70
0
0
SEQEND
8
Layer 1
0
POLYLINE
8
Layer 1
62
7
70
1
10
0.000000
20
0.000000
66
1
0
VERTEX
8
Layer 1
10
908.535369
20
76.583592
70
0
0
VERTEX
8
Layer 1
10
931.360726
20
93.167184
70
0
0
VERTEX
8
Layer 1
10
922.642215
20
120.000000
70
0
0
VERTEX
8
Layer 1
10
894.428523
20
120.000000
70
0
0
VERTEX
8
Layer 1
10
885.710013
20
93.167184
70
0
0
VERTEX
8
Layer 1
10
908.535369
20
76.583592
70
0
0
VERTEX
8
Layer 1
10
908.535369
20
76.583592
70
0
0
SEQEND
8
Layer 1
0
POLYLINE
8
Layer 1
62
7
70
1
10
0.000000
20
0.000000
66
1
0
VERTEX
8
Layer 1
10
968.292928
20
120.000000
70
0
0
VERTEX
8
Layer 1
10
991.118284
20
136.583592
70
0
0
VERTEX
8
Layer 1
10
982.399774
20
163.416408
70
0
0
VERTEX
8
Layer 1
10
954.186082
20
163.416408
70
0
0
VERTEX
8
Layer 1
10
945.467572
20
136.583592
70
0
0
VERTEX
8
Layer 1
10
968.292928
20
120.000000
70
0
0
VERTEX
8
Layer 1
10
968.292928
20
120.000000
70
0
0
SEQEND
8
Layer 1
0
POLYLINE
8
Layer 1
62
7
70
1
10
0.000000
20
0.000000
66
1
0
VERTEX
8
Layer 1
10
982.399774
20
163.416408
70
0
0
VERTEX
8
Layer 1
10
1005.225131
20
180.000000
70
0
0
VERTEX
8
Layer 1
10
996.506620
20
206.832816
70
0
0
VERTEX
8
Layer 1
10
968.292928
20
206.832816
70
0
0
VERTEX
8
Layer 1
10
959.574418
20
180.000000
70
0
0
VERTEX
8
Layer 1
10
982.399774
20
163.416408
70
0
0
VERTEX
8
Layer 1
10
982.399774
20
163.416408
70
0
0
SEQEND
8
Layer 1
0
POLYLINE
8
Layer 1
62
7
70
1
10
0.000000
20
0.000000
66
1
0
VERTEX
8
Layer 1
10
1005.225131
20
93.167184
70
0
0
VERTEX
8
Layer 1
10
1028.050487
20
109.750776
70
0
0
VERTEX
8
Layer 1
10
1019.331977
20
136.583592
70
0
0
VERTEX
8
Layer 1
10
991.118284
20
136.583592
70
0
0
VERTEX
8
Layer 1
10
982.399774
20
109.750776
70
0
0
VERTEX
8
Layer 1
10
1005.225131
20
93.167184
70
0
0
VERTEX
8
Layer 1
10
1005.225131
20
93.167184
70
0
0
SEQEND
8
Layer 1
0
POLYLINE
8
Layer 1
62
7
70
1
10
0.000000
20
0.000000
66
1
0
VERTEX
8
Layer 1
10
1005.225131
20
180.000000
70
0
0
VERTEX
8
Layer 1
10
982.399774
20
163.416408
70
0
0
VERTEX
8
Layer 1
10
991.118284
20
136.583592
70
0
0
VERTEX
8
Layer 1
10
1019.331977
20
136.583592
70
0
0
VERTEX
8
Layer 1
10
1028.050487
20
163.416408
70
0
0
VERTEX
8
Layer 1
10
1005.225131
20
180.000000
70
0
0
VERTEX
8
Layer 1
10
1005.225131
20
180.000000
70
0
0
SEQEND
8
Layer 1
0
POLYLINE
8
Layer 1
62
7
70
1
10
0.000000
20
0.000000
66
1
0
VERTEX
8
Layer 1
10
663.900521
20
233.000000
70
0
0
VERTEX
8
Layer 1
10
655.398288
20
206.832816
70
0
0
VERTEX
8
Layer 1
10
627.184596
20
206.832816
70
0
0
VERTEX
8
Layer 1
10
618.682362
20
233.000000
70
0
0
VERTEX
8
Layer 1
10
663.900521
20
233.000000
70
0
0
VERTEX
8
Layer 1
10
663.900521
20
233.000000
70
0
0
SEQEND
8
Layer 1
0
POLYLINE
8
Layer 1
62
7
70
1
10
0.000000
20
0.000000
66
1
0
VERTEX
8
Layer 1
10
811.629331
20
233.000000
70
0
0
VERTEX
8
Layer 1
10
803.127098
20
206.832816
70
0
0
VERTEX
8
Layer 1
10
774.913405
20
206.832816
70
0
0
VERTEX
8
Layer 1
10
766.411172
20
233.000000
70
0
0
VERTEX
8
Layer 1
10
811.629331
20
233.000000
70
0
0
VERTEX
8
Layer 1
10
811.629331
20
233.000000
70
0
0
SEQEND
8
Layer 1
0
POLYLINE
8
Layer 1
62
7
70
1
10
0.000000
20
0.000000
66
1
0
VERTEX
8
Layer 1
10
194.558561
20
67.000000
70
0
0
VERTEX
8
Layer 1
10
153.999984
20
67.000000
70
0
0
VERTEX
8
Layer 1
10
153.999984
20
81.340720
70
0
0
VERTEX
8
Layer 1
10
157.842635
20
93.167184
70
0
0
VERTEX
8
Layer 1
10
186.056327
20
93.167184
70
0
0
VERTEX
8
Layer 1
10
194.558561
20
67.000000
70
0
0
VERTEX
8
Layer 1
10
194.558561
20
67.000000
70
0
0
SEQEND
8
Layer 1
0
POLYLINE
8
Layer 1
62
7
70
1
10
0.000000
20
0.000000
66
1
0
VERTEX
8
Layer 1
10
774.697129
20
67.000000
70
0
0
VERTEX
8
Layer 1
10
729.478969
20
67.000000
70
0
0
VERTEX
8
Layer 1
10
737.981203
20
93.167184
70
0
0
VERTEX
8
Layer 1
10
766.194895
20
93.167184
70
0
0
VERTEX
8
Layer 1
10
774.697129
20
67.000000
70
0
0
VERTEX
8
Layer 1
10
774.697129
20
67.000000
70
0
0
SEQEND
8
Layer 1
0
POLYLINE
8
Layer 1
62
7
70
1
10
0.000000
20
0.000000
66
1
0
VERTEX
8
Layer 1
10
931.144449
20
233.000000
70
0
0
VERTEX
8
Layer 1
10
959.790694
20
233.000000
70
0
0
VERTEX
8
Layer 1
10
968.292928
20
206.832816
70
0
0
VERTEX
8
Layer 1
10
945.467572
20
190.249224
70
0
0
VERTEX
8
Layer 1
10
922.642215
20
206.832816
70
0
0
VERTEX
8
Layer 1
10
931.144449
20
233.000000
70
0
0
VERTEX
8
Layer 1
10
931.144449
20
233.000000
70
0
0
SEQEND
8
Layer 1
0
POLYLINE
8
Layer 1
62
7
70
1
10
0.000000
20
0.000000
66
1
0
VERTEX
8
Layer 1
10
153.999984
20
221.839167
70
0
0
VERTEX
8
Layer 1
10
157.626359
20
233.000000
70
0
0
VERTEX
8
Layer 1
10
186.272604
20
233.000000
70
0
0
VERTEX
8
Layer 1
10
194.774838
20
206.832816
70
0
0
VERTEX
8
Layer 1
10
171.949481
20
190.249224
70
0
0
VERTEX
8
Layer 1
10
153.999984
20
203.290297
70
0
0
VERTEX
8
Layer 1
10
153.999984
20
221.839167
70
0
0
VERTEX
8
Layer 1
10
153.999984
20
221.839167
70
0
0
SEQEND
8
Layer 1
0
POLYLINE
8
Layer 1
62
7
70
1
10
0.000000
20
0.000000
66
1
0
VERTEX
8
Layer 1
10
618.466085
20
93.167184
70
0
0
VERTEX
8
Layer 1
10
641.291442
20
109.750776
70
0
0
VERTEX
8
Layer 1
10
664.116798
20
93.167184
70
0
0
VERTEX
8
Layer 1
10
655.614565
20
67.000000
70
0
0
VERTEX
8
Layer 1
10
626.968319
20
67.000000
70
0
0
VERTEX
8
Layer 1
10
618.466085
20
93.167184
70
0
0
VERTEX
8
Layer 1
10
618.466085
20
93.167184
70
0
0
SEQEND
8
Layer 1
0
POLYLINE
8
Layer 1
62
7
70
1
10
0.000000
20
0.000000
66
1
0
VERTEX
8
Layer 1
10
737.764926
20
233.000000
70
0
0
VERTEX
8
Layer 1
10
729.262693
20
206.832816
70
0
0
VERTEX
8
Layer 1
10
701.049001
20
206.832816
70
0
0
VERTEX
8
Layer 1
10
692.546767
20
233.000000
70
0
0
VERTEX
8
Layer 1
10
737.764926
20
233.000000
70
0
0
VERTEX
8
Layer 1
10
737.764926
20
233.000000
70
0
0
SEQEND
8
Layer 1
0
POLYLINE
8
Layer 1
62
7
70
1
10
0.000000
20
0.000000
66
1
0
VERTEX
8
Layer 1
10
425.086563
20
93.167184
70
0
0
VERTEX
8
Layer 1
10
447.911919
20
109.750776
70
0
0
VERTEX
8
Layer 1
10
470.737276
20
93.167184
70
0
0
VERTEX
8
Layer 1
10
462.235042
20
67.000000
70
0
0
VERTEX
8
Layer 1
10
433.588796
20
67.000000
70
0
0
VERTEX
8
Layer 1
10
425.086563
20
93.167184
70
0
0
VERTEX
8
Layer 1
10
425.086563
20
93.167184
70
0
0
SEQEND
8
Layer 1
0
POLYLINE
8
Layer 1
62
7
70
1
10
0.000000
20
0.000000
66
1
0
VERTEX
8
Layer 1
10
581.317606
20
67.000000
70
0
0
VERTEX
8
Layer 1
10
536.099447
20
67.000000
70
0
0
VERTEX
8
Layer 1
10
544.601680
20
93.167184
70
0
0
VERTEX
8
Layer 1
10
572.815373
20
93.167184
70
0
0
VERTEX
8
Layer 1
10
581.317606
20
67.000000
70
0
0
VERTEX
8
Layer 1
10
581.317606
20
67.000000
70
0
0
SEQEND
8
Layer 1
0
POLYLINE
8
Layer 1
62
7
70
1
10
0.000000
20
0.000000
66
1
0
VERTEX
8
Layer 1
10
737.764926
20
233.000000
70
0
0
VERTEX
8
Layer 1
10
766.411172
20
233.000000
70
0
0
VERTEX
8
Layer 1
10
774.913405
20
206.832816
70
0
0
VERTEX
8
Layer 1
10
752.088049
20
190.249224
70
0
0
VERTEX
8
Layer 1
10
729.262693
20
206.832816
70
0
0
VERTEX
8
Layer 1
10
737.764926
20
233.000000
70
0
0
VERTEX
8
Layer 1
10
737.764926
20
233.000000
70
0
0
SEQEND
8
Layer 1
0
POLYLINE
8
Layer 1
62
7
70
1
10
0.000000
20
0.000000
66
1
0
VERTEX
8
Layer 1
10
277.141476
20
233.000000
70
0
0
VERTEX
8
Layer 1
10
268.639243
20
206.832816
70
0
0
VERTEX
8
Layer 1
10
240.425551
20
206.832816
70
0
0
VERTEX
8
Layer 1
10
231.923317
20
233.000000
70
0
0
VERTEX
8
Layer 1
10
277.141476
20
233.000000
70
0
0
VERTEX
8
Layer 1
10
277.141476
20
233.000000
70
0
0
SEQEND
8
Layer 1
0
POLYLINE
8
Layer 1
62
7
70
1
10
0.000000
20
0.000000
66
1
0
VERTEX
8
Layer 1
10
424.870286
20
233.000000
70
0
0
VERTEX
8
Layer 1
10
416.368052
20
206.832816
70
0
0
VERTEX
8
Layer 1
10
388.154360
20
206.832816
70
0
0
VERTEX
8
Layer 1
10
379.652127
20
233.000000
70
0
0
VERTEX
8
Layer 1
10
424.870286
20
233.000000
70
0
0
VERTEX
8
Layer 1
10
424.870286
20
233.000000
70
0
0
SEQEND
8
Layer 1
0
POLYLINE
8
Layer 1
62
7
70
1
10
0.000000
20
0.000000
66
1
0
VERTEX
8
Layer 1
10
171.949481
20
136.583592
70
0
0
VERTEX
8
Layer 1
10
153.999984
20
123.542519
70
0
0
VERTEX
8
Layer 1
10
153.999984
20
163.416408
70
0
0
VERTEX
8
Layer 1
10
163.230971
20
163.416408
70
0
0
VERTEX
8
Layer 1
10
171.949481
20
136.583592
70
0
0
VERTEX
8
Layer 1
10
171.949481
20
136.583592
70
0
0
SEQEND
8
Layer 1
0
POLYLINE
8
Layer 1
62
7
70
1
10
0.000000
20
0.000000
66
1
0
VERTEX
8
Layer 1
10
700.832724
20
67.000000
70
0
0
VERTEX
8
Layer 1
10
655.614565
20
67.000000
70
0
0
VERTEX
8
Layer 1
10
664.116798
20
93.167184
70
0
0
VERTEX
8
Layer 1
10
692.330490
20
93.167184
70
0
0
VERTEX
8
Layer 1
10
700.832724
20
67.000000
70
0
0
VERTEX
8
Layer 1
10
700.832724
20
67.000000
70
0
0
SEQEND
8
Layer 1
0
POLYLINE
8
Layer 1
62
7
70
1
10
0.000000
20
0.000000
66
1
0
VERTEX
8
Layer 1
10
544.385404
20
233.000000
70
0
0
VERTEX
8
Layer 1
10
535.883170
20
206.832816
70
0
0
VERTEX
8
Layer 1
10
507.669478
20
206.832816
70
0
0
VERTEX
8
Layer 1
10
499.167244
20
233.000000
70
0
0
VERTEX
8
Layer 1
10
544.385404
20
233.000000
70
0
0
VERTEX
8
Layer 1
10
544.385404
20
233.000000
70
0
0
SEQEND
8
Layer 1
0
POLYLINE
8
Layer 1
62
7
70
1
10
0.000000
20
0.000000
66
1
0
VERTEX
8
Layer 1
10
968.076651
20
67.000000
70
0
0
VERTEX
8
Layer 1
10
922.858492
20
67.000000
70
0
0
VERTEX
8
Layer 1
10
931.360726
20
93.167184
70
0
0
VERTEX
8
Layer 1
10
959.574418
20
93.167184
70
0
0
VERTEX
8
Layer 1
10
968.076651
20
67.000000
70
0
0
VERTEX
8
Layer 1
10
968.076651
20
67.000000
70
0
0
SEQEND
8
Layer 1
0
POLYLINE
8
Layer 1
62
7
70
1
10
0.000000
20
0.000000
66
1
0
VERTEX
8
Layer 1
10
766.194895
20
93.167184
70
0
0
VERTEX
8
Layer 1
10
789.020252
20
109.750776
70
0
0
VERTEX
8
Layer 1
10
811.845608
20
93.167184
70
0
0
VERTEX
8
Layer 1
10
803.343374
20
67.000000
70
0
0
VERTEX
8
Layer 1
10
774.697129
20
67.000000
70
0
0
VERTEX
8
Layer 1
10
766.194895
20
93.167184
70
0
0
VERTEX
8
Layer 1
10
766.194895
20
93.167184
70
0
0
SEQEND
8
Layer 1
0
POLYLINE
8
Layer 1
62
7
70
1
10
0.000000
20
0.000000
66
1
0
VERTEX
8
Layer 1
10
231.707040
20
93.167184
70
0
0
VERTEX
8
Layer 1
10
254.532397
20
109.750776
70
0
0
VERTEX
8
Layer 1
10
277.357753
20
93.167184
70
0
0
VERTEX
8
Layer 1
10
268.855519
20
67.000000
70
0
0
VERTEX
8
Layer 1
10
240.209274
20
67.000000
70
0
0
VERTEX
8
Layer 1
10
231.707040
20
93.167184
70
0
0
VERTEX
8
Layer 1
10
231.707040
20
93.167184
70
0
0
SEQEND
8
Layer 1
0
POLYLINE
8
Layer 1
62
7
70
1
10
0.000000
20
0.000000
66
1
0
VERTEX
8
Layer 1
10
507.453201
20
67.000000
70
0
0
VERTEX
8
Layer 1
10
462.235042
20
67.000000
70
0
0
VERTEX
8
Layer 1
10
470.737276
20
93.167184
70
0
0
VERTEX
8
Layer 1
10
498.950968
20
93.167184
70
0
0
VERTEX
8
Layer 1
10
507.453201
20
67.000000
70
0
0
VERTEX
8
Layer 1
10
507.453201
20
67.000000
70
0
0
SEQEND
8
Layer 1
0
POLYLINE
8
Layer 1
62
7
70
1
10
0.000000
20
0.000000
66
1
0
VERTEX
8
Layer 1
10
379.435850
20
93.167184
70
0
0
VERTEX
8
Layer 1
10
402.261206
20
109.750776
70
0
0
VERTEX
8
Layer 1
10
425.086563
20
93.167184
70
0
0
VERTEX
8
Layer 1
10
416.584329
20
67.000000
70
0
0
VERTEX
8
Layer 1
10
387.938084
20
67.000000
70
0
0
VERTEX
8
Layer 1
10
379.435850
20
93.167184
70
0
0
VERTEX
8
Layer 1
10
379.435850
20
93.167184
70
0
0
SEQEND
8
Layer 1
0
POLYLINE
8
Layer 1
62
7
70
1
10
0.000000
20
0.000000
66
1
0
VERTEX
8
Layer 1
10
1045.999984
20
233.000000
70
0
0
VERTEX
8
Layer 1
10
1045.999984
20
218.659280
70
0
0
VERTEX
8
Layer 1
10
1042.157333
20
206.832816
70
0
0
VERTEX
8
Layer 1
10
1013.943641
20
206.832816
70
0
0
VERTEX
8
Layer 1
10
1005.441407
20
233.000000
70
0
0
VERTEX
8
Layer 1
10
1045.999984
20
233.000000
70
0
0
VERTEX
8
Layer 1
10
1045.999984
20
233.000000
70
0
0
SEQEND
8
Layer 1
0
POLYLINE
8
Layer 1
62
7
70
1
10
0.000000
20
0.000000
66
1
0
VERTEX
8
Layer 1
10
811.845608
20
93.167184
70
0
0
VERTEX
8
Layer 1
10
834.670964
20
109.750776
70
0
0
VERTEX
8
Layer 1
10
857.496321
20
93.167184
70
0
0
VERTEX
8
Layer 1
10
848.994087
20
67.000000
70
0
0
VERTEX
8
Layer 1
10
820.347842
20
67.000000
70
0
0
VERTEX
8
Layer 1
10
811.845608
20
93.167184
70
0
0
VERTEX
8
Layer 1
10
811.845608
20
93.167184
70
0
0
SEQEND
8
Layer 1
0
POLYLINE
8
Layer 1
62
7
70
1
10
0.000000
20
0.000000
66
1
0
VERTEX
8
Layer 1
10
1005.225131
20
93.167184
70
0
0
VERTEX
8
Layer 1
10
1028.050487
20
109.750776
70
0
0
VERTEX
8
Layer 1
10
1045.999984
20
96.709703
70
0
0
VERTEX
8
Layer 1
10
1045.999984
20
78.160833
70
0
0
VERTEX
8
Layer 1
10
1042.373610
20
67.000000
70
0
0
VERTEX
8
Layer 1
10
1013.727364
20
67.000000
70
0
0
VERTEX
8
Layer 1
10
1005.225131
20
93.167184
70
0
0
VERTEX
8
Layer 1
10
1005.225131
20
93.167184
70
0
0
SEQEND
8
Layer 1
0
POLYLINE
8
Layer 1
62
7
70
1
10
0.000000
20
0.000000
66
1
0
VERTEX
8
Layer 1
10
351.005881
20
233.000000
70
0
0
VERTEX
8
Layer 1
10
342.503648
20
206.832816
70
0
0
VERTEX
8
Layer 1
10
314.289955
20
206.832816
70
0
0
VERTEX
8
Layer 1
10
305.787722
20
233.000000
70
0
0
VERTEX
8
Layer 1
10
351.005881
20
233.000000
70
0
0
VERTEX
8
Layer 1
10
351.005881
20
233.000000
70
0
0
SEQEND
8
Layer 1
0
POLYLINE
8
Layer 1
62
7
70
1
10
0.000000
20
0.000000
66
1
0
VERTEX
8
Layer 1
10
314.073679
20
67.000000
70
0
0
VERTEX
8
Layer 1
10
268.855519
20
67.000000
70
0
0
VERTEX
8
Layer 1
10
277.357753
20
93.167184
70
0
0
VERTEX
8
Layer 1
10
305.571445
20
93.167184
70
0
0
VERTEX
8
Layer 1
10
314.073679
20
67.000000
70
0
0
VERTEX
8
Layer 1
10
314.073679
20
67.000000
70
0
0
SEQEND
8
Layer 1
0
POLYLINE
8
Layer 1
62
7
70
1
10
0.000000
20
0.000000
66
1
0
VERTEX
8
Layer 1
10
894.212246
20
67.000000
70
0
0
VERTEX
8
Layer 1
10
848.994087
20
67.000000
70
0
0
VERTEX
8
Layer 1
10
857.496321
20
93.167184
70
0
0
VERTEX
8
Layer 1
10
885.710013
20
93.167184
70
0
0
VERTEX
8
Layer 1
10
894.212246
20
67.000000
70
0
0
VERTEX
8
Layer 1
10
894.212246
20
67.000000
70
0
0
SEQEND
8
Layer 1
0
POLYLINE
8
Layer 1
62
7
70
1
10
0.000000
20
0.000000
66
1
0
VERTEX
8
Layer 1
10
544.385404
20
233.000000
70
0
0
VERTEX
8
Layer 1
10
573.031649
20
233.000000
70
0
0
VERTEX
8
Layer 1
10
581.533883
20
206.832816
70
0
0
VERTEX
8
Layer 1
10
558.708527
20
190.249224
70
0
0
VERTEX
8
Layer 1
10
535.883170
20
206.832816
70
0
0
VERTEX
8
Layer 1
10
544.385404
20
233.000000
70
0
0
VERTEX
8
Layer 1
10
544.385404
20
233.000000
70
0
0
SEQEND
8
Layer 1
0
POLYLINE
8
Layer 1
62
7
70
1
10
0.000000
20
0.000000
66
1
0
VERTEX
8
Layer 1
10
572.815373
20
93.167184
70
0
0
VERTEX
8
Layer 1
10
595.640729
20
109.750776
70
0
0
VERTEX
8
Layer 1
10
618.466085
20
93.167184
70
0
0
VERTEX
8
Layer 1
10
609.963852
20
67.000000
70
0
0
VERTEX
8
Layer 1
10
581.317606
20
67.000000
70
0
0
VERTEX
8
Layer 1
10
572.815373
20
93.167184
70
0
0
VERTEX
8
Layer 1
10
572.815373
20
93.167184
70
0
0
SEQEND
8
Layer 1
0
POLYLINE
8
Layer 1
62
7
70
1
10
0.000000
20
0.000000
66
1
0
VERTEX
8
Layer 1
10
1042.157333
20
120.000000
70
0
0
VERTEX
8
Layer 1
10
1019.331977
20
136.583592
70
0
0
VERTEX
8
Layer 1
10
1028.050487
20
163.416408
70
0
0
VERTEX
8
Layer 1
10
1045.999984
20
163.416408
70
0
0
VERTEX
8
Layer 1
10
1045.999984
20
122.791850
70
0
0
VERTEX
8
Layer 1
10
1042.157333
20
120.000000
70
0
0
VERTEX
8
Layer 1
10
1042.157333
20
120.000000
70
0
0
SEQEND
8
Layer 1
0
POLYLINE
8
Layer 1
62
7
70
1
10
0.000000
20
0.000000
66
1
0
VERTEX
8
Layer 1
10
1005.008854
20
233.000000
70
0
0
VERTEX
8
Layer 1
10
996.506620
20
206.832816
70
0
0
VERTEX
8
Layer 1
10
968.292928
20
206.832816
70
0
0
VERTEX
8
Layer 1
10
959.790694
20
233.000000
70
0
0
VERTEX
8
Layer 1
10
1005.008854
20
233.000000
70
0
0
VERTEX
8
Layer 1
10
1005.008854
20
233.000000
70
0
0
SEQEND
8
Layer 1
0
POLYLINE
8
Layer 1
62
7
70
1
10
0.000000
20
0.000000
66
1
0
VERTEX
8
Layer 1
10
857.280044
20
233.000000
70
0
0
VERTEX
8
Layer 1
10
848.777810
20
206.832816
70
0
0
VERTEX
8
Layer 1
10
820.564118
20
206.832816
70
0
0
VERTEX
8
Layer 1
10
812.061885
20
233.000000
70
0
0
VERTEX
8
Layer 1
10
857.280044
20
233.000000
70
0
0
VERTEX
8
Layer 1
10
857.280044
20
233.000000
70
0
0
SEQEND
8
Layer 1
0
POLYLINE
8
Layer 1
62
7
70
1
10
0.000000
20
0.000000
66
1
0
VERTEX
8
Layer 1
10
618.249809
20
233.000000
70
0
0
VERTEX
8
Layer 1
10
609.747575
20
206.832816
70
0
0
VERTEX
8
Layer 1
10
581.533883
20
206.832816
70
0
0
VERTEX
8
Layer 1
10
573.031649
20
233.000000
70
0
0
VERTEX
8
Layer 1
10
618.249809
20
233.000000
70
0
0
VERTEX
8
Layer 1
10
618.249809
20
233.000000
70
0
0
SEQEND
8
Layer 1
0
POLYLINE
8
Layer 1
62
7
70
1
10
0.000000
20
0.000000
66
1
0
VERTEX
8
Layer 1
10
231.490763
20
233.000000
70
0
0
VERTEX
8
Layer 1
10
222.988530
20
206.832816
70
0
0
VERTEX
8
Layer 1
10
194.774838
20
206.832816
70
0
0
VERTEX
8
Layer 1
10
186.272604
20
233.000000
70
0
0
VERTEX
8
Layer 1
10
231.490763
20
233.000000
70
0
0
VERTEX
8
Layer 1
10
231.490763
20
233.000000
70
0
0
SEQEND
8
Layer 1
0
POLYLINE
8
Layer 1
62
7
70
1
10
0.000000
20
0.000000
66
1
0
VERTEX
8
Layer 1
10
387.938084
20
67.000000
70
0
0
VERTEX
8
Layer 1
10
342.719924
20
67.000000
70
0
0
VERTEX
8
Layer 1
10
351.222158
20
93.167184
70
0
0
VERTEX
8
Layer 1
10
379.435850
20
93.167184
70
0
0
VERTEX
8
Layer 1
10
387.938084
20
67.000000
70
0
0
VERTEX
8
Layer 1
10
387.938084
20
67.000000
70
0
0
SEQEND
8
Layer 1
0
POLYLINE
8
Layer 1
62
7
70
1
10
0.000000
20
0.000000
66
1
0
VERTEX
8
Layer 1
10
931.144449
20
233.000000
70
0
0
VERTEX
8
Layer 1
10
922.642215
20
206.832816
70
0
0
VERTEX
8
Layer 1
10
894.428523
20
206.832816
70
0
0
VERTEX
8
Layer 1
10
885.926290
20
233.000000
70
0
0
VERTEX
8
Layer 1
10
931.144449
20
233.000000
70
0
0
VERTEX
8
Layer 1
10
931.144449
20
233.000000
70
0
0
SEQEND
8
Layer 1
0
POLYLINE
8
Layer 1
62
7
70
1
10
0.000000
20
0.000000
66
1
0
VERTEX
8
Layer 1
10
959.574418
20
93.167184
70
0
0
VERTEX
8
Layer 1
10
982.399774
20
109.750776
70
0
0
VERTEX
8
Layer 1
10
1005.225131
20
93.167184
70
0
0
VERTEX
8
Layer 1
10
996.722897
20
67.000000
70
0
0
VERTEX
8
Layer 1
10
968.076651
20
67.000000
70
0
0
VERTEX
8
Layer 1
10
959.574418
20
93.167184
70
0
0
VERTEX
8
Layer 1
10
959.574418
20
93.167184
70
0
0
SEQEND
8
Layer 1
0
POLYLINE
8
Layer 1
62
7
70
1
10
0.000000
20
0.000000
66
1
0
VERTEX
8
Layer 1
10
1045.999984
20
195.006351
70
0
0
VERTEX
8
Layer 1
10
1045.999984
20
176.457481
70
0
0
VERTEX
8
Layer 1
10
1028.050487
20
163.416408
70
0
0
VERTEX
8
Layer 1
10
1005.225131
20
180.000000
70
0
0
VERTEX
8
Layer 1
10
1013.943641
20
206.832816
70
0
0
VERTEX
8
Layer 1
10
1042.157333
20
206.832816
70
0
0
VERTEX
8
Layer 1
10
1045.999984
20
195.006351
70
0
0
VERTEX
8
Layer 1
10
1045.999984
20
195.006351
70
0
0
SEQEND
8
Layer 1
0
POLYLINE
8
Layer 1
62
7
70
1
10
0.000000
20
0.000000
66
1
0
VERTEX
8
Layer 1
10
186.056327
20
93.167184
70
0
0
VERTEX
8
Layer 1
10
208.881684
20
109.750776
70
0
0
VERTEX
8
Layer 1
10
231.707040
20
93.167184
70
0
0
VERTEX
8
Layer 1
10
223.204807
20
67.000000
70
0
0
VERTEX
8
Layer 1
10
194.558561
20
67.000000
70
0
0
VERTEX
8
Layer 1
10
186.056327
20
93.167184
70
0
0
VERTEX
8
Layer 1
10
186.056327
20
93.167184
70
0
0
SEQEND
8
Layer 1
0
POLYLINE
8
Layer 1
62
7
70
1
10
0.000000
20
0.000000
66
1
0
VERTEX
8
Layer 1
10
153.999984
20
104.993649
70
0
0
VERTEX
8
Layer 1
10
153.999984
20
123.542519
70
0
0
VERTEX
8
Layer 1
10
171.949481
20
136.583592
70
0
0
VERTEX
8
Layer 1
10
194.774838
20
120.000000
70
0
0
VERTEX
8
Layer 1
10
186.056327
20
93.167184
70
0
0
VERTEX
8
Layer 1
10
157.842635
20
93.167184
70
0
0
VERTEX
8
Layer 1
10
153.999984
20
104.993649
70
0
0
VERTEX
8
Layer 1
10
153.999984
20
104.993649
70
0
0
SEQEND
8
Layer 1
0
POLYLINE
8
Layer 1
62
7
70
1
10
0.000000
20
0.000000
66
1
0
VERTEX
8
Layer 1
10
351.005881
20
233.000000
70
0
0
VERTEX
8
Layer 1
10
379.652127
20
233.000000
70
0
0
VERTEX
8
Layer 1
10
388.154360
20
206.832816
70
0
0
VERTEX
8
Layer 1
10
365.329004
20
190.249224
70
0
0
VERTEX
8
Layer 1
10
342.503648
20
206.832816
70
0
0
VERTEX
8
Layer 1
10
351.005881
20
233.000000
70
0
0
VERTEX
8
Layer 1
10
351.005881
20
233.000000
70
0
0
SEQEND
8
Layer 1
0
POLYLINE
8
Layer 1
62
7
70
1
10
0.000000
20
0.000000
66
1
0
VERTEX
8
Layer 1
10
470.520999
20
233.000000
70
0
0
VERTEX
8
Layer 1
10
462.018765
20
206.832816
70
0
0
VERTEX
8
Layer 1
10
433.805073
20
206.832816
70
0
0
VERTEX
8
Layer 1
10
425.302840
20
233.000000
70
0
0
VERTEX
8
Layer 1
10
470.520999
20
233.000000
70
0
0
VERTEX
8
Layer 1
10
470.520999
20
233.000000
70
0
0
SEQEND
8
Layer 1
0
POLYLINE
8
Layer 1
62
7
70
1
10
0.000000
20
0.000000
66
1
0
VERTEX
8
Layer 1
10
146.999984
20
54.000000
70
0
0
VERTEX
8
Layer 1
10
1052.999984
20
54.000000
70
0
0
VERTEX
8
Layer 1
10
1052.999984
20
246.000000
70
0
0
VERTEX
8
Layer 1
10
146.999984
20
246.000000
70
0
0
VERTEX
8
Layer 1
10
146.999984
20
54.000000
70
0
0
VERTEX
8
Layer 1
10
146.999984
20
54.000000
70
0
0
SEQEND
8
Layer 1
 0 
ENDSEC
 0 
EOF