  0
SECTION
  2
HEADER
  9
$ACADVER
  1
AC1014
  9
$HANDSEED
  5
FFFF
  9
$INSUNITS
 70
     4
  9
$MEASUREMENT
 70
     1
  0
ENDSEC
  0
SECTION
  2
TABLES
  0
TABLE
  2
VPORT
  5
8
330
0
100
AcDbSymbolTable
 70
     4
  0
VPORT
  5
2E
330
8
100
AcDbSymbolTableRecord
100
AcDbViewportTableRecord
  2
*ACTIVE
 70
     0
 10
0.0
 20
0.0
 11
1.0
 21
1.0
 12
210.0
 22
148.5
 13
0.0
 23
0.0
 14
10.0
 24
10.0
 15
10.0
 25
10.0
 16
0.0
 26
0.0
 36
1.0
 17
0.0
 27
0.0
 37
0.0
 40
341.0
 41
1.24
 42
50.0
 43
0.0
 44
0.0
 50
0.0
 51
0.0
 71
     0
 72
   100
 73
     1
 74
     3
 75
     0
 76
     0
 77
     0
 78
     0
  0
ENDTAB
  0
TABLE
  2
LTYPE
  5
5
330
0
100
AcDbSymbolTable
 70
     1
  0
LTYPE
  5
14
330
5
100
AcDbSymbolTableRecord
100
AcDbLinetypeTableRecord
  2
BYBLOCK
 70
     0
  3

 72
    65
 73
     0
 40
0.0
  0
LTYPE
  5
15
330
5
100
AcDbSymbolTableRecord
100
AcDbLinetypeTableRecord
  2
BYLAYER
 70
     0
  3

 72
    65
 73
     0
 40
0.0
  0
LTYPE
  5
16
330
5
100
AcDbSymbolTableRecord
100
AcDbLinetypeTableRecord
  2
CONTINUOUS
 70
     0
  3
Solid line
 72
    65
 73
     0
 40
0.0
  0
ENDTAB
  0
TABLE
  2
LAYER
  5
2
100
AcDbSymbolTable
 70
1
  0
LAYER
  5
50
100
AcDbSymbolTableRecord
100
AcDbLayerTableRecord
  2
0
 70
0
  6
CONTINUOUS
  0
ENDTAB
  0
TABLE
  2
STYLE
  5
3
330
0
100
AcDbSymbolTable
 70
     1
  0
STYLE
  5
11
330
3
100
AcDbSymbolTableRecord
100
AcDbTextStyleTableRecord
  2
STANDARD
 70
     0
 40
0.0
 41
1.0
 50
0.0
 71
     0
 42
2.5
  3
txt
  4

  0
ENDTAB
  0
TABLE
  2
VIEW
  5
6
330
0
100
AcDbSymbolTable
 70
     0
  0
ENDTAB
  0
TABLE
  2
UCS
  5
7
330
0
100
AcDbSymbolTable
 70
     0
  0
ENDTAB
  0
TABLE
  2
APPID
  5
9
330
0
100
AcDbSymbolTable
 70
     2
  0
APPID
  5
12
330
9
100
AcDbSymbolTableRecord
100
AcDbRegAppTableRecord
  2
ACAD
 70
     0
  0
ENDTAB
  0
TABLE
  2
DIMSTYLE
  5
A
330
0
100
AcDbSymbolTable
 70
     1
  0
DIMSTYLE
105
27
330
A
100
AcDbSymbolTableRecord
100
AcDbDimStyleTableRecord
  2
ISO-25
 70
     0
  3

  4

  5

  6

  7

 40
1.0
 41
2.5
 42
0.625
 43
3.75
 44
1.25
 45
0.0
 46
0.0
 47
0.0
 48
0.0
140
2.5
141
2.5
142
0.0
143
0.03937007874016
144
1.0
145
0.0
146
1.0
147
0.625
 71
     0
 72
     0
 73
     0
 74
     0
 75
     0
 76
     0
 77
     1
 78
     8
170
     0
171
     3
172
     1
173
     0
174
     0
175
     0
176
     0
177
     0
178
     0
270
     2
271
     2
272
     2
273
     2
274
     3
340
11
275
     0
280
     0
281
     0
282
     0
283
     0
284
     8
285
     0
286
     0
287
     3
288
     0
  0
ENDTAB
  0
TABLE
  2
BLOCK_RECORD
  5
1
330
0
100
AcDbSymbolTable
 70
     1
  0
BLOCK_RECORD
  5
1F
330
1
100
AcDbSymbolTableRecord
100
AcDbBlockTableRecord
  2
*MODEL_SPACE
  0
BLOCK_RECORD
  5
1B
330
1
100
AcDbSymbolTableRecord
100
AcDbBlockTableRecord
  2
*PAPER_SPACE
  0
ENDTAB
  0
ENDSEC
  0
SECTION
  2
BLOCKS
  0
BLOCK
  5
20
330
1F
100
AcDbEntity
  8
0
100
AcDbBlockBegin
  2
*MODEL_SPACE
 70
     0
 10
0.0
 20
0.0
 30
0.0
  3
*MODEL_SPACE
  1

  0
ENDBLK
  5
21
330
1F
100
AcDbEntity
  8
0
100
AcDbBlockEnd
  0
BLOCK
  5
1C
330
1B
100
AcDbEntity
 67
     1
  8
0
100
AcDbBlockBegin
  2
*PAPER_SPACE
  1

  0
ENDBLK
  5
1D
330
1B
100
AcDbEntity
 67
     1
  8
0
100
AcDbBlockEnd
  0
ENDSEC
  0
SECTION
  2
ENTITIES
  0
LWPOLYLINE
  5
100
100
AcDbEntity
  8
0
 62
7
100
AcDbPolyline
 90
5
 70
1
 10
194.774838
 20
120.000000
 30
0.0
 10
217.600194
 20
136.583592
 30
0.0
 10
208.881684
 20
109.750776
 30
0.0
 10
186.056327
 20
93.167184
 30
0.0
 10
194.774838
 20
120.000000
 30
0.0
  0
LWPOLYLINE
  5
101
100
AcDbEntity
  8
0
 62
7
100
AcDbPolyline
 90
5
 70
1
 10
245.813886
 20
136.583592
 30
0.0
 10
268.639243
 20
120.000000
 30
0.0
 10
277.357753
 20
93.167184
 30
0.0
 10
254.532397
 20
109.750776
 30
0.0
 10
245.813886
 20
136.583592
 30
0.0
  0
LWPOLYLINE
  5
102
100
AcDbEntity
  8
0
 62
7
100
AcDbPolyline
 90
5
 70
1
 10
254.532397
 20
163.416408
 30
0.0
 10
277.357753
 20
180.000000
 30
0.0
 10
305.571445
 20
180.000000
 30
0.0
 10
282.746089
 20
163.416408
 30
0.0
 10
254.532397
 20
163.416408
 30
0.0
  0
LWPOLYLINE
  5
103
100
AcDbEntity
  8
0
 62
7
100
AcDbPolyline
 90
5
 70
1
 10
291.464599
 20
136.583592
 30
0.0
 10
319.678291
 20
136.583592
 30
0.0
 10
342.503648
 20
120.000000
 30
0.0
 10
314.289955
 20
120.000000
 30
0.0
 10
291.464599
 20
136.583592
 30
0.0
  0
LWPOLYLINE
  5
104
100
AcDbEntity
  8
0
 62
7
100
AcDbPolyline
 90
5
 70
1
 10
388.154360
 20
120.000000
 30
0.0
 10
410.979717
 20
136.583592
 30
0.0
 10
402.261206
 20
109.750776
 30
0.0
 10
379.435850
 20
93.167184
 30
0.0
 10
388.154360
 20
120.000000
 30
0.0
  0
LWPOLYLINE
  5
105
100
AcDbEntity
  8
0
 62
7
100
AcDbPolyline
 90
5
 70
1
 10
439.193409
 20
136.583592
 30
0.0
 10
462.018765
 20
120.000000
 30
0.0
 10
470.737276
 20
93.167184
 30
0.0
 10
447.911919
 20
109.750776
 30
0.0
 10
439.193409
 20
136.583592
 30
0.0
  0
LWPOLYLINE
  5
106
100
AcDbEntity
  8
0
 62
7
100
AcDbPolyline
 90
5
 70
1
 10
447.911919
 20
163.416408
 30
0.0
 10
470.737276
 20
180.000000
 30
0.0
 10
498.950968
 20
180.000000
 30
0.0
 10
476.125611
 20
163.416408
 30
0.0
 10
447.911919
 20
163.416408
 30
0.0
  0
LWPOLYLINE
  5
107
100
AcDbEntity
  8
0
 62
7
100
AcDbPolyline
 90
11
 70
1
 10
365.329004
 20
136.583592
 30
0.0
 10
374.047514
 20
163.416408
 30
0.0
 10
402.261206
 20
163.416408
 30
0.0
 10
379.435850
 20
180.000000
 30
0.0
 10
388.154360
 20
206.832816
 30
0.0
 10
365.329004
 20
190.249224
 30
0.0
 10
342.503648
 20
206.832816
 30
0.0
 10
351.222158
 20
180.000000
 30
0.0
 10
328.396802
 20
163.416408
 30
0.0
 10
356.610494
 20
163.416408
 30
0.0
 10
365.329004
 20
136.583592
 30
0.0
  0
LWPOLYLINE
  5
108
100
AcDbEntity
  8
0
 62
7
100
AcDbPolyline
 90
5
 70
1
 10
484.844122
 20
136.583592
 30
0.0
 10
513.057814
 20
136.583592
 30
0.0
 10
535.883170
 20
120.000000
 30
0.0
 10
507.669478
 20
120.000000
 30
0.0
 10
484.844122
 20
136.583592
 30
0.0
  0
LWPOLYLINE
  5
109
100
AcDbEntity
  8
0
 62
7
100
AcDbPolyline
 90
5
 70
1
 10
581.533883
 20
120.000000
 30
0.0
 10
604.359239
 20
136.583592
 30
0.0
 10
595.640729
 20
109.750776
 30
0.0
 10
572.815373
 20
93.167184
 30
0.0
 10
581.533883
 20
120.000000
 30
0.0
  0
LWPOLYLINE
  5
10a
100
AcDbEntity
  8
0
 62
7
100
AcDbPolyline
 90
5
 70
1
 10
632.572931
 20
136.583592
 30
0.0
 10
655.398288
 20
120.000000
 30
0.0
 10
664.116798
 20
93.167184
 30
0.0
 10
641.291442
 20
109.750776
 30
0.0
 10
632.572931
 20
136.583592
 30
0.0
  0
LWPOLYLINE
  5
10b
100
AcDbEntity
  8
0
 62
7
100
AcDbPolyline
 90
5
 70
1
 10
641.291442
 20
163.416408
 30
0.0
 10
664.116798
 20
180.000000
 30
0.0
 10
692.330490
 20
180.000000
 30
0.0
 10
669.505134
 20
163.416408
 30
0.0
 10
641.291442
 20
163.416408
 30
0.0
  0
LWPOLYLINE
  5
10c
100
AcDbEntity
  8
0
 62
7
100
AcDbPolyline
 90
11
 70
1
 10
558.708527
 20
136.583592
 30
0.0
 10
567.427037
 20
163.416408
 30
0.0
 10
595.640729
 20
163.416408
 30
0.0
 10
572.815373
 20
180.000000
 30
0.0
 10
581.533883
 20
206.832816
 30
0.0
 10
558.708527
 20
190.249224
 30
0.0
 10
535.883170
 20
206.832816
 30
0.0
 10
544.601680
 20
180.000000
 30
0.0
 10
521.776324
 20
163.416408
 30
0.0
 10
549.990016
 20
163.416408
 30
0.0
 10
558.708527
 20
136.583592
 30
0.0
  0
LWPOLYLINE
  5
10d
100
AcDbEntity
  8
0
 62
7
100
AcDbPolyline
 90
5
 70
1
 10
678.223644
 20
136.583592
 30
0.0
 10
706.437336
 20
136.583592
 30
0.0
 10
729.262693
 20
120.000000
 30
0.0
 10
701.049001
 20
120.000000
 30
0.0
 10
678.223644
 20
136.583592
 30
0.0
  0
LWPOLYLINE
  5
10e
100
AcDbEntity
  8
0
 62
7
100
AcDbPolyline
 90
5
 70
1
 10
774.913405
 20
120.000000
 30
0.0
 10
797.738762
 20
136.583592
 30
0.0
 10
789.020252
 20
109.750776
 30
0.0
 10
766.194895
 20
93.167184
 30
0.0
 10
774.913405
 20
120.000000
 30
0.0
  0
LWPOLYLINE
  5
10f
100
AcDbEntity
  8
0
 62
7
100
AcDbPolyline
 90
5
 70
1
 10
825.952454
 20
136.583592
 30
0.0
 10
848.777810
 20
120.000000
 30
0.0
 10
857.496321
 20
93.167184
 30
0.0
 10
834.670964
 20
109.750776
 30
0.0
 10
825.952454
 20
136.583592
 30
0.0
  0
LWPOLYLINE
  5
110
100
AcDbEntity
  8
0
 62
7
100
AcDbPolyline
 90
5
 70
1
 10
834.670964
 20
163.416408
 30
0.0
 10
857.496321
 20
180.000000
 30
0.0
 10
885.710013
 20
180.000000
 30
0.0
 10
862.884656
 20
163.416408
 30
0.0
 10
834.670964
 20
163.416408
 30
0.0
  0
LWPOLYLINE
  5
111
100
AcDbEntity
  8
0
 62
7
100
AcDbPolyline
 90
11
 70
1
 10
752.088049
 20
136.583592
 30
0.0
 10
760.806559
 20
163.416408
 30
0.0
 10
789.020252
 20
163.416408
 30
0.0
 10
766.194895
 20
180.000000
 30
0.0
 10
774.913405
 20
206.832816
 30
0.0
 10
752.088049
 20
190.249224
 30
0.0
 10
729.262693
 20
206.832816
 30
0.0
 10
737.981203
 20
180.000000
 30
0.0
 10
715.155847
 20
163.416408
 30
0.0
 10
743.369539
 20
163.416408
 30
0.0
 10
752.088049
 20
136.583592
 30
0.0
  0
LWPOLYLINE
  5
112
100
AcDbEntity
  8
0
 62
7
100
AcDbPolyline
 90
5
 70
1
 10
871.603167
 20
136.583592
 30
0.0
 10
899.816859
 20
136.583592
 30
0.0
 10
922.642215
 20
120.000000
 30
0.0
 10
894.428523
 20
120.000000
 30
0.0
 10
871.603167
 20
136.583592
 30
0.0
  0
LWPOLYLINE
  5
113
100
AcDbEntity
  8
0
 62
7
100
AcDbPolyline
 90
5
 70
1
 10
968.292928
 20
120.000000
 30
0.0
 10
991.118284
 20
136.583592
 30
0.0
 10
982.399774
 20
109.750776
 30
0.0
 10
959.574418
 20
93.167184
 30
0.0
 10
968.292928
 20
120.000000
 30
0.0
  0
LWPOLYLINE
  5
114
100
AcDbEntity
  8
0
 62
7
100
AcDbPolyline
 90
11
 70
1
 10
945.467572
 20
136.583592
 30
0.0
 10
954.186082
 20
163.416408
 30
0.0
 10
982.399774
 20
163.416408
 30
0.0
 10
959.574418
 20
180.000000
 30
0.0
 10
968.292928
 20
206.832816
 30
0.0
 10
945.467572
 20
190.249224
 30
0.0
 10
922.642215
 20
206.832816
 30
0.0
 10
931.360726
 20
180.000000
 30
0.0
 10
908.535369
 20
163.416408
 30
0.0
 10
936.749061
 20
163.416408
 30
0.0
 10
945.467572
 20
136.583592
 30
0.0
  0
LWPOLYLINE
  5
115
100
AcDbEntity
  8
0
 62
7
100
AcDbPolyline
 90
6
 70
1
 10
1005.008854
 20
233.000000
 30
0.0
 10
1005.441407
 20
233.000000
 30
0.0
 10
1013.943641
 20
206.832816
 30
0.0
 10
1005.225131
 20
180.000000
 30
0.0
 10
996.506620
 20
206.832816
 30
0.0
 10
1005.008854
 20
233.000000
 30
0.0
  0
LWPOLYLINE
  5
116
100
AcDbEntity
  8
0
 62
7
100
AcDbPolyline
 90
6
 70
1
 10
277.141476
 20
233.000000
 30
0.0
 10
305.787722
 20
233.000000
 30
0.0
 10
314.289955
 20
206.832816
 30
0.0
 10
291.464599
 20
223.416408
 30
0.0
 10
268.639243
 20
206.832816
 30
0.0
 10
277.141476
 20
233.000000
 30
0.0
  0
LWPOLYLINE
  5
117
100
AcDbEntity
  8
0
 62
7
100
AcDbPolyline
 90
4
 70
1
 10
223.204807
 20
67.000000
 30
0.0
 10
231.707040
 20
93.167184
 30
0.0
 10
240.209274
 20
67.000000
 30
0.0
 10
223.204807
 20
67.000000
 30
0.0
  0
LWPOLYLINE
  5
118
100
AcDbEntity
  8
0
 62
7
100
AcDbPolyline
 90
6
 70
1
 10
1019.331977
 20
136.583592
 30
0.0
 10
1042.157333
 20
120.000000
 30
0.0
 10
1045.999984
 20
108.173536
 30
0.0
 10
1045.999984
 20
96.709703
 30
0.0
 10
1028.050487
 20
109.750776
 30
0.0
 10
1019.331977
 20
136.583592
 30
0.0
  0
LWPOLYLINE
  5
119
100
AcDbEntity
  8
0
 62
7
100
AcDbPolyline
 90
6
 70
1
 10
544.601680
 20
93.167184
 30
0.0
 10
536.099447
 20
67.000000
 30
0.0
 10
507.453201
 20
67.000000
 30
0.0
 10
498.950968
 20
93.167184
 30
0.0
 10
521.776324
 20
76.583592
 30
0.0
 10
544.601680
 20
93.167184
 30
0.0
  0
LWPOLYLINE
  5
11a
100
AcDbEntity
  8
0
 62
7
100
AcDbPolyline
 90
4
 70
1
 10
609.963852
 20
67.000000
 30
0.0
 10
618.466085
 20
93.167184
 30
0.0
 10
626.968319
 20
67.000000
 30
0.0
 10
609.963852
 20
67.000000
 30
0.0
  0
LWPOLYLINE
  5
11b
100
AcDbEntity
  8
0
 62
7
100
AcDbPolyline
 90
6
 70
1
 10
618.249809
 20
233.000000
 30
0.0
 10
618.682362
 20
233.000000
 30
0.0
 10
627.184596
 20
206.832816
 30
0.0
 10
618.466085
 20
180.000000
 30
0.0
 10
609.747575
 20
206.832816
 30
0.0
 10
618.249809
 20
233.000000
 30
0.0
  0
LWPOLYLINE
  5
11c
100
AcDbEntity
  8
0
 62
7
100
AcDbPolyline
 90
6
 70
1
 10
351.222158
 20
93.167184
 30
0.0
 10
342.719924
 20
67.000000
 30
0.0
 10
314.073679
 20
67.000000
 30
0.0
 10
305.571445
 20
93.167184
 30
0.0
 10
328.396802
 20
76.583592
 30
0.0
 10
351.222158
 20
93.167184
 30
0.0
  0
LWPOLYLINE
  5
11d
100
AcDbEntity
  8
0
 62
7
100
AcDbPolyline
 90
6
 70
1
 10
470.520999
 20
233.000000
 30
0.0
 10
499.167244
 20
233.000000
 30
0.0
 10
507.669478
 20
206.832816
 30
0.0
 10
484.844122
 20
223.416408
 30
0.0
 10
462.018765
 20
206.832816
 30
0.0
 10
470.520999
 20
233.000000
 30
0.0
  0
LWPOLYLINE
  5
11e
100
AcDbEntity
  8
0
 62
7
100
AcDbPolyline
 90
4
 70
1
 10
416.584329
 20
67.000000
 30
0.0
 10
425.086563
 20
93.167184
 30
0.0
 10
433.588796
 20
67.000000
 30
0.0
 10
416.584329
 20
67.000000
 30
0.0
  0
LWPOLYLINE
  5
11f
100
AcDbEntity
  8
0
 62
7
100
AcDbPolyline
 90
6
 70
1
 10
231.490763
 20
233.000000
 30
0.0
 10
231.923317
 20
233.000000
 30
0.0
 10
240.425551
 20
206.832816
 30
0.0
 10
231.707040
 20
180.000000
 30
0.0
 10
222.988530
 20
206.832816
 30
0.0
 10
231.490763
 20
233.000000
 30
0.0
  0
LWPOLYLINE
  5
120
100
AcDbEntity
  8
0
 62
7
100
AcDbPolyline
 90
6
 70
1
 10
663.900521
 20
233.000000
 30
0.0
 10
692.546767
 20
233.000000
 30
0.0
 10
701.049001
 20
206.832816
 30
0.0
 10
678.223644
 20
223.416408
 30
0.0
 10
655.398288
 20
206.832816
 30
0.0
 10
663.900521
 20
233.000000
 30
0.0
  0
LWPOLYLINE
  5
121
100
AcDbEntity
  8
0
 62
7
100
AcDbPolyline
 90
6
 70
1
 10
737.981203
 20
93.167184
 30
0.0
 10
729.478969
 20
67.000000
 30
0.0
 10
700.832724
 20
67.000000
 30
0.0
 10
692.330490
 20
93.167184
 30
0.0
 10
715.155847
 20
76.583592
 30
0.0
 10
737.981203
 20
93.167184
 30
0.0
  0
LWPOLYLINE
  5
122
100
AcDbEntity
  8
0
 62
7
100
AcDbPolyline
 90
4
 70
1
 10
996.722897
 20
67.000000
 30
0.0
 10
1005.225131
 20
93.167184
 30
0.0
 10
1013.727364
 20
67.000000
 30
0.0
 10
996.722897
 20
67.000000
 30
0.0
  0
LWPOLYLINE
  5
123
100
AcDbEntity
  8
0
 62
7
100
AcDbPolyline
 90
6
 70
1
 10
811.629331
 20
233.000000
 30
0.0
 10
812.061885
 20
233.000000
 30
0.0
 10
820.564118
 20
206.832816
 30
0.0
 10
811.845608
 20
180.000000
 30
0.0
 10
803.127098
 20
206.832816
 30
0.0
 10
811.629331
 20
233.000000
 30
0.0
  0
LWPOLYLINE
  5
124
100
AcDbEntity
  8
0
 62
7
100
AcDbPolyline
 90
6
 70
1
 10
424.870286
 20
233.000000
 30
0.0
 10
425.302840
 20
233.000000
 30
0.0
 10
433.805073
 20
206.832816
 30
0.0
 10
425.086563
 20
180.000000
 30
0.0
 10
416.368052
 20
206.832816
 30
0.0
 10
424.870286
 20
233.000000
 30
0.0
  0
LWPOLYLINE
  5
125
100
AcDbEntity
  8
0
 62
7
100
AcDbPolyline
 90
6
 70
1
 10
931.360726
 20
93.167184
 30
0.0
 10
922.858492
 20
67.000000
 30
0.0
 10
894.212246
 20
67.000000
 30
0.0
 10
885.710013
 20
93.167184
 30
0.0
 10
908.535369
 20
76.583592
 30
0.0
 10
931.360726
 20
93.167184
 30
0.0
  0
LWPOLYLINE
  5
126
100
AcDbEntity
  8
0
 62
7
100
AcDbPolyline
 90
13
 70
1
 10
153.999984
 20
191.826464
 30
0.0
 10
153.999984
 20
203.290297
 30
0.0
 10
171.949481
 20
190.249224
 30
0.0
 10
194.774838
 20
206.832816
 30
0.0
 10
186.056327
 20
180.000000
 30
0.0
 10
208.881684
 20
163.416408
 30
0.0
 10
180.667992
 20
163.416408
 30
0.0
 10
171.949481
 20
136.583592
 30
0.0
 10
163.230971
 20
163.416408
 30
0.0
 10
153.999984
 20
163.416408
 30
0.0
 10
153.999984
 20
177.208150
 30
0.0
 10
157.842635
 20
180.000000
 30
0.0
 10
153.999984
 20
191.826464
 30
0.0
  0
LWPOLYLINE
  5
127
100
AcDbEntity
  8
0
 62
7
100
AcDbPolyline
 90
6
 70
1
 10
857.280044
 20
233.000000
 30
0.0
 10
885.926290
 20
233.000000
 30
0.0
 10
894.428523
 20
206.832816
 30
0.0
 10
871.603167
 20
223.416408
 30
0.0
 10
848.777810
 20
206.832816
 30
0.0
 10
857.280044
 20
233.000000
 30
0.0
  0
LWPOLYLINE
  5
128
100
AcDbEntity
  8
0
 62
7
100
AcDbPolyline
 90
4
 70
1
 10
803.343374
 20
67.000000
 30
0.0
 10
811.845608
 20
93.167184
 30
0.0
 10
820.347842
 20
67.000000
 30
0.0
 10
803.343374
 20
67.000000
 30
0.0
  0
LWPOLYLINE
  5
129
100
AcDbEntity
  8
0
 62
7
100
AcDbPolyline
 90
5
 70
1
 10
146.999984
 20
54.000000
 30
0.0
 10
1052.999984
 20
54.000000
 30
0.0
 10
1052.999984
 20
246.000000
 30
0.0
 10
146.999984
 20
246.000000
 30
0.0
 10
146.999984
 20
54.000000
 30
0.0
  0
ENDSEC
  0
SECTION
  2
OBJECTS
  0
DICTIONARY
  5
C
330
0
100
AcDbDictionary
  3
ACAD_GROUP
350
D
  3
ACAD_MLINESTYLE
350
17
  0
DICTIONARY
  5
D
330
C
100
AcDbDictionary
  0
DICTIONARY
  5
1A
330
C
100
AcDbDictionary
  0
DICTIONARY
  5
17
330
C
100
AcDbDictionary
  3
STANDARD
350
18
  0
DICTIONARY
  5
19
330
C
100
AcDbDictionary
  0
ENDSEC
  0
EOF
