<?xml version="1.0" encoding="UTF-8" standalone="no"?>
<svg
   height="300mm"
   version="1.1"
   viewBox="0 0 1200 300"
   width="1200mm"
   id="svg99"
   sodipodi:docname="tramo1.8_MEDIDAS.svg"
   inkscape:version="1.4.2 (1:1.4.2+202505120737+ebf0e940d0)"
   xml:space="preserve"
   xmlns:inkscape="http://www.inkscape.org/namespaces/inkscape"
   xmlns:sodipodi="http://sodipodi.sourceforge.net/DTD/sodipodi-0.dtd"
   xmlns="http://www.w3.org/2000/svg"
   xmlns:svg="http://www.w3.org/2000/svg"><sodipodi:namedview
     id="namedview99"
     pagecolor="#ffffff"
     bordercolor="#666666"
     borderopacity="1.0"
     inkscape:showpageshadow="2"
     inkscape:pageopacity="0.0"
     inkscape:pagecheckerboard="0"
     inkscape:deskcolor="#d1d1d1"
     inkscape:document-units="mm"
     inkscape:zoom="0.18642101"
     inkscape:cx="2633.8233"
     inkscape:cy="-890.45757"
     inkscape:window-width="1920"
     inkscape:window-height="1011"
     inkscape:window-x="0"
     inkscape:window-y="0"
     inkscape:window-maximized="1"
     inkscape:current-layer="svg99" /><defs
     id="defs1"><marker
       style="overflow:visible"
       id="Stop"
       refX="0"
       refY="0"
       orient="auto"
       inkscape:stockid="Stop"
       markerWidth="1"
       markerHeight="1"
       viewBox="0 0 1 1"
       inkscape:isstock="true"
       inkscape:collect="always"
       preserveAspectRatio="xMidYMid"><path
         style="fill:none;stroke:context-stroke;stroke-width:1"
         d="M 0,4 V -4"
         id="path203" /></marker></defs><g
     fill="none"
     stroke="blue"
     stroke-width="0.5"
     transform="translate(-81.18758415106049,54.0)"
     id="g99"
     style="vector-effect:non-scaling-stroke;-inkscape-stroke:hairline;stroke-width:0.26458333;stroke-dasharray:none;stroke:#ff0000;stroke-opacity:1"><path
       d="M 275.9624377948499,126.0 L 298.7877941859336,109.41640786499875 L 290.0692838498693,82.58359213500127 L 261.8555917398306,82.58359213500125 L 253.13708140376622,109.41640786499873 L 275.9624377948499,126.0 Z"
       id="path1"
       style="vector-effect:non-scaling-stroke;-inkscape-stroke:hairline;stroke-width:0.26458333;stroke-dasharray:none;stroke:#ff0000;stroke-opacity:1" /><path
       d="M 290.0692838498693,82.58359213500127 L 312.894640240953,66.0 L 304.1761299048886,39.16718427000253 L 275.9624377948499,39.16718427000252 L 267.2439274587856,66.0 L 290.0692838498693,82.58359213500127 Z"
       id="path2"
       style="vector-effect:non-scaling-stroke;-inkscape-stroke:hairline;stroke-width:0.26458333;stroke-dasharray:none;stroke:#ff0000;stroke-opacity:1" /><path
       d="M 312.894640240953,152.8328157299975 L 335.71999663203667,136.2492235949962 L 327.0014862959723,109.41640786499875 L 298.7877941859336,109.41640786499875 L 290.0692838498693,136.2492235949962 L 312.894640240953,152.8328157299975 Z"
       id="path3"
       style="vector-effect:non-scaling-stroke;-inkscape-stroke:hairline;stroke-width:0.26458333;stroke-dasharray:none;stroke:#ff0000;stroke-opacity:1" /><path
       d="M 312.894640240953,66.0 L 290.0692838498693,82.58359213500127 L 298.7877941859336,109.41640786499873 L 327.0014862959723,109.41640786499875 L 335.71999663203667,82.58359213500127 L 312.894640240953,66.0 Z"
       id="path4"
       style="vector-effect:non-scaling-stroke;-inkscape-stroke:hairline;stroke-width:0.26458333;stroke-dasharray:none;stroke:#ff0000;stroke-opacity:1" /><path
       d="M 335.71999663203667,82.58359213500127 L 358.54535302312036,66.0 L 349.826842687056,39.16718427000253 L 321.6131505770173,39.16718427000252 L 312.894640240953,66.0 L 335.71999663203667,82.58359213500127 Z"
       id="path5"
       style="vector-effect:non-scaling-stroke;-inkscape-stroke:hairline;stroke-width:0.26458333;stroke-dasharray:none;stroke:#ff0000;stroke-opacity:1" /><path
       d="M 349.826842687056,126.0 L 372.6521990781397,109.41640786499875 L 363.93368874207533,82.58359213500127 L 335.71999663203667,82.58359213500125 L 327.0014862959723,109.41640786499873 L 349.826842687056,126.0 Z"
       id="path6"
       style="vector-effect:non-scaling-stroke;-inkscape-stroke:hairline;stroke-width:0.26458333;stroke-dasharray:none;stroke:#ff0000;stroke-opacity:1" /><path
       d="M 372.6521990781397,22.583592135001254 L 349.826842687056,39.16718427000252 L 358.54535302312036,66.0 L 386.759045133159,66.0 L 395.4775554692234,39.16718427000253 L 372.6521990781397,22.583592135001254 Z"
       id="path7"
       style="vector-effect:non-scaling-stroke;-inkscape-stroke:hairline;stroke-width:0.26458333;stroke-dasharray:none;stroke:#ff0000;stroke-opacity:1" /><path
       d="M 372.6521990781397,109.41640786499875 L 349.826842687056,126.0 L 358.54535302312036,152.8328157299975 L 386.759045133159,152.8328157299975 L 395.4775554692234,126.0 L 372.6521990781397,109.41640786499875 Z"
       id="path8"
       style="vector-effect:non-scaling-stroke;-inkscape-stroke:hairline;stroke-width:0.26458333;stroke-dasharray:none;stroke:#ff0000;stroke-opacity:1" /><path
       d="M 386.759045133159,66.0 L 363.93368874207533,82.58359213500127 L 372.6521990781397,109.41640786499873 L 400.86589118817835,109.41640786499875 L 409.5844015242427,82.58359213500127 L 386.759045133159,66.0 Z"
       id="path9"
       style="vector-effect:non-scaling-stroke;-inkscape-stroke:hairline;stroke-width:0.26458333;stroke-dasharray:none;stroke:#ff0000;stroke-opacity:1" /><path
       d="M 423.69124757926204,126.0 L 446.5166039703457,109.41640786499875 L 437.79809363428143,82.58359213500127 L 409.5844015242427,82.58359213500125 L 400.86589118817835,109.41640786499873 L 423.69124757926204,126.0 Z"
       id="path10"
       style="vector-effect:non-scaling-stroke;-inkscape-stroke:hairline;stroke-width:0.26458333;stroke-dasharray:none;stroke:#ff0000;stroke-opacity:1" /><path
       d="M 409.5844015242427,82.58359213500127 L 432.4097579153264,66.0 L 423.69124757926204,39.16718427000253 L 395.4775554692234,39.16718427000252 L 386.759045133159,66.0 L 409.5844015242427,82.58359213500127 Z"
       id="path11"
       style="vector-effect:non-scaling-stroke;-inkscape-stroke:hairline;stroke-width:0.26458333;stroke-dasharray:none;stroke:#ff0000;stroke-opacity:1" /><path
       d="M 446.5166039703457,109.41640786499875 L 423.69124757926204,126.0 L 432.4097579153264,152.8328157299975 L 460.62345002536506,152.8328157299975 L 469.3419603614294,126.0 L 446.5166039703457,109.41640786499875 Z"
       id="path12"
       style="vector-effect:non-scaling-stroke;-inkscape-stroke:hairline;stroke-width:0.26458333;stroke-dasharray:none;stroke:#ff0000;stroke-opacity:1" /><path
       d="M 409.5844015242427,169.41640786499875 L 432.4097579153264,152.8328157299975 L 423.69124757926204,126.0 L 395.4775554692234,126.0 L 386.759045133159,152.8328157299975 L 409.5844015242427,169.41640786499875 Z"
       id="path13"
       style="vector-effect:non-scaling-stroke;-inkscape-stroke:hairline;stroke-width:0.26458333;stroke-dasharray:none;stroke:#ff0000;stroke-opacity:1" /><path
       d="M 469.3419603614294,126.0 L 492.1673167525131,109.41640786499875 L 483.4488064164488,82.58359213500127 L 455.2351143064101,82.58359213500125 L 446.5166039703457,109.41640786499873 L 469.3419603614294,126.0 Z"
       id="path14"
       style="vector-effect:non-scaling-stroke;-inkscape-stroke:hairline;stroke-width:0.26458333;stroke-dasharray:none;stroke:#ff0000;stroke-opacity:1" /><path
       d="M 483.44880641644875,82.58359213500127 L 506.27416280753243,66.0 L 497.55565247146814,39.16718427000253 L 469.3419603614294,39.16718427000252 L 460.62345002536506,66.0 L 483.44880641644875,82.58359213500127 Z"
       id="path15"
       style="vector-effect:non-scaling-stroke;-inkscape-stroke:hairline;stroke-width:0.26458333;stroke-dasharray:none;stroke:#ff0000;stroke-opacity:1" /><path
       d="M 506.27416280753243,152.8328157299975 L 529.0995191986161,136.2492235949962 L 520.3810088625519,109.41640786499875 L 492.1673167525131,109.41640786499875 L 483.44880641644875,136.2492235949962 L 506.27416280753243,152.8328157299975 Z"
       id="path16"
       style="vector-effect:non-scaling-stroke;-inkscape-stroke:hairline;stroke-width:0.26458333;stroke-dasharray:none;stroke:#ff0000;stroke-opacity:1" /><path
       d="M 506.27416280753243,66.0 L 483.44880641644875,82.58359213500127 L 492.1673167525131,109.41640786499873 L 520.3810088625519,109.41640786499875 L 529.0995191986161,82.58359213500127 L 506.27416280753243,66.0 Z"
       id="path17"
       style="vector-effect:non-scaling-stroke;-inkscape-stroke:hairline;stroke-width:0.26458333;stroke-dasharray:none;stroke:#ff0000;stroke-opacity:1" /><path
       d="M 529.0995191986161,82.58359213500127 L 551.9248755896998,66.0 L 543.2063652536356,39.16718427000253 L 514.9926731435968,39.16718427000252 L 506.27416280753243,66.0 L 529.0995191986161,82.58359213500127 Z"
       id="path18"
       style="vector-effect:non-scaling-stroke;-inkscape-stroke:hairline;stroke-width:0.26458333;stroke-dasharray:none;stroke:#ff0000;stroke-opacity:1" /><path
       d="M 543.2063652536356,126.0 L 566.0317216447193,109.41640786499875 L 557.3132113086549,82.58359213500127 L 529.0995191986161,82.58359213500125 L 520.3810088625519,109.41640786499873 L 543.2063652536356,126.0 Z"
       id="path19"
       style="vector-effect:non-scaling-stroke;-inkscape-stroke:hairline;stroke-width:0.26458333;stroke-dasharray:none;stroke:#ff0000;stroke-opacity:1" /><path
       d="M 566.0317216447193,22.583592135001254 L 543.2063652536356,39.16718427000252 L 551.9248755896998,66.0 L 580.1385676997386,66.0 L 588.8570780358029,39.16718427000253 L 566.0317216447193,22.583592135001254 Z"
       id="path20"
       style="vector-effect:non-scaling-stroke;-inkscape-stroke:hairline;stroke-width:0.26458333;stroke-dasharray:none;stroke:#ff0000;stroke-opacity:1" /><path
       d="M 566.0317216447193,109.41640786499875 L 543.2063652536356,126.0 L 551.9248755896998,152.8328157299975 L 580.1385676997386,152.8328157299975 L 588.8570780358029,126.0 L 566.0317216447193,109.41640786499875 Z"
       id="path21"
       style="vector-effect:non-scaling-stroke;-inkscape-stroke:hairline;stroke-width:0.26458333;stroke-dasharray:none;stroke:#ff0000;stroke-opacity:1" /><path
       d="M 580.1385676997386,66.0 L 557.3132113086549,82.58359213500127 L 566.0317216447193,109.41640786499873 L 594.2454137547579,109.41640786499875 L 602.9639240908223,82.58359213500127 L 580.1385676997386,66.0 Z"
       id="path22"
       style="vector-effect:non-scaling-stroke;-inkscape-stroke:hairline;stroke-width:0.26458333;stroke-dasharray:none;stroke:#ff0000;stroke-opacity:1" /><path
       d="M 617.0707701458416,126.0 L 639.8961265369253,109.41640786499875 L 631.1776162008609,82.58359213500127 L 602.9639240908223,82.58359213500125 L 594.2454137547579,109.41640786499873 L 617.0707701458416,126.0 Z"
       id="path23"
       style="vector-effect:non-scaling-stroke;-inkscape-stroke:hairline;stroke-width:0.26458333;stroke-dasharray:none;stroke:#ff0000;stroke-opacity:1" /><path
       d="M 602.9639240908223,82.58359213500127 L 625.789280481906,66.0 L 617.0707701458416,39.16718427000253 L 588.8570780358029,39.16718427000252 L 580.1385676997386,66.0 L 602.9639240908223,82.58359213500127 Z"
       id="path24"
       style="vector-effect:non-scaling-stroke;-inkscape-stroke:hairline;stroke-width:0.26458333;stroke-dasharray:none;stroke:#ff0000;stroke-opacity:1" /><path
       d="M 639.8961265369253,109.41640786499875 L 617.0707701458416,126.0 L 625.789280481906,152.8328157299975 L 654.0029725919446,152.8328157299975 L 662.721482928009,126.0 L 639.8961265369253,109.41640786499875 Z"
       id="path25"
       style="vector-effect:non-scaling-stroke;-inkscape-stroke:hairline;stroke-width:0.26458333;stroke-dasharray:none;stroke:#ff0000;stroke-opacity:1" /><path
       d="M 602.9639240908223,169.41640786499875 L 625.789280481906,152.8328157299975 L 617.0707701458416,126.0 L 588.8570780358029,126.0 L 580.1385676997386,152.8328157299975 L 602.9639240908223,169.41640786499875 Z"
       id="path26"
       style="vector-effect:non-scaling-stroke;-inkscape-stroke:hairline;stroke-width:0.26458333;stroke-dasharray:none;stroke:#ff0000;stroke-opacity:1" /><path
       d="M 662.721482928009,126.0 L 685.5468393190927,109.41640786499875 L 676.8283289830283,82.58359213500127 L 648.6146368729896,82.58359213500125 L 639.8961265369253,109.41640786499873 L 662.721482928009,126.0 Z"
       id="path27"
       style="vector-effect:non-scaling-stroke;-inkscape-stroke:hairline;stroke-width:0.26458333;stroke-dasharray:none;stroke:#ff0000;stroke-opacity:1" /><path
       d="M 676.8283289830283,82.58359213500127 L 699.653685374112,66.0 L 690.9351750380476,39.16718427000253 L 662.721482928009,39.16718427000252 L 654.0029725919446,66.0 L 676.8283289830283,82.58359213500127 Z"
       id="path28"
       style="vector-effect:non-scaling-stroke;-inkscape-stroke:hairline;stroke-width:0.26458333;stroke-dasharray:none;stroke:#ff0000;stroke-opacity:1" /><path
       d="M 699.653685374112,152.8328157299975 L 722.4790417651957,136.2492235949962 L 713.7605314291313,109.41640786499875 L 685.5468393190927,109.41640786499875 L 676.8283289830283,136.2492235949962 L 699.653685374112,152.8328157299975 Z"
       id="path29"
       style="vector-effect:non-scaling-stroke;-inkscape-stroke:hairline;stroke-width:0.26458333;stroke-dasharray:none;stroke:#ff0000;stroke-opacity:1" /><path
       d="M 699.653685374112,66.0 L 676.8283289830283,82.58359213500127 L 685.5468393190927,109.41640786499873 L 713.7605314291313,109.41640786499875 L 722.4790417651957,82.58359213500127 L 699.653685374112,66.0 Z"
       id="path30"
       style="vector-effect:non-scaling-stroke;-inkscape-stroke:hairline;stroke-width:0.26458333;stroke-dasharray:none;stroke:#ff0000;stroke-opacity:1" /><path
       d="M 722.4790417651957,82.58359213500127 L 745.3043981562794,66.0 L 736.585887820215,39.16718427000253 L 708.3721957101764,39.16718427000252 L 699.653685374112,66.0 L 722.4790417651957,82.58359213500127 Z"
       id="path31"
       style="vector-effect:non-scaling-stroke;-inkscape-stroke:hairline;stroke-width:0.26458333;stroke-dasharray:none;stroke:#ff0000;stroke-opacity:1" /><path
       d="M 736.585887820215,126.0 L 759.4112442112987,109.41640786499875 L 750.6927338752345,82.58359213500127 L 722.4790417651957,82.58359213500125 L 713.7605314291313,109.41640786499873 L 736.585887820215,126.0 Z"
       id="path32"
       style="vector-effect:non-scaling-stroke;-inkscape-stroke:hairline;stroke-width:0.26458333;stroke-dasharray:none;stroke:#ff0000;stroke-opacity:1" /><path
       d="M 759.4112442112987,22.583592135001254 L 736.585887820215,39.16718427000252 L 745.3043981562794,66.0 L 773.5180902663182,66.0 L 782.2366006023824,39.16718427000253 L 759.4112442112987,22.583592135001254 Z"
       id="path33"
       style="vector-effect:non-scaling-stroke;-inkscape-stroke:hairline;stroke-width:0.26458333;stroke-dasharray:none;stroke:#ff0000;stroke-opacity:1" /><path
       d="M 759.4112442112987,109.41640786499875 L 736.585887820215,126.0 L 745.3043981562794,152.8328157299975 L 773.5180902663182,152.8328157299975 L 782.2366006023824,126.0 L 759.4112442112987,109.41640786499875 Z"
       id="path34"
       style="vector-effect:non-scaling-stroke;-inkscape-stroke:hairline;stroke-width:0.26458333;stroke-dasharray:none;stroke:#ff0000;stroke-opacity:1" /><path
       d="M 773.518090266318,66.0 L 750.6927338752344,82.58359213500127 L 759.4112442112987,109.41640786499873 L 787.6249363213374,109.41640786499875 L 796.3434466574017,82.58359213500127 L 773.518090266318,66.0 Z"
       id="path35"
       style="vector-effect:non-scaling-stroke;-inkscape-stroke:hairline;stroke-width:0.26458333;stroke-dasharray:none;stroke:#ff0000;stroke-opacity:1" /><path
       d="M 810.4502927124211,126.0 L 833.2756491035047,109.41640786499875 L 824.5571387674404,82.58359213500127 L 796.3434466574017,82.58359213500125 L 787.6249363213374,109.41640786499873 L 810.4502927124211,126.0 Z"
       id="path36"
       style="vector-effect:non-scaling-stroke;-inkscape-stroke:hairline;stroke-width:0.26458333;stroke-dasharray:none;stroke:#ff0000;stroke-opacity:1" /><path
       d="M 796.3434466574017,82.58359213500127 L 819.1688030484854,66.0 L 810.4502927124211,39.16718427000253 L 782.2366006023824,39.16718427000252 L 773.518090266318,66.0 L 796.3434466574017,82.58359213500127 Z"
       id="path37"
       style="vector-effect:non-scaling-stroke;-inkscape-stroke:hairline;stroke-width:0.26458333;stroke-dasharray:none;stroke:#ff0000;stroke-opacity:1" /><path
       d="M 833.2756491035047,109.41640786499875 L 810.4502927124211,126.0 L 819.1688030484854,152.8328157299975 L 847.3824951585241,152.8328157299975 L 856.1010054945884,126.0 L 833.2756491035047,109.41640786499875 Z"
       id="path38"
       style="vector-effect:non-scaling-stroke;-inkscape-stroke:hairline;stroke-width:0.26458333;stroke-dasharray:none;stroke:#ff0000;stroke-opacity:1" /><path
       d="M 796.3434466574017,169.41640786499875 L 819.1688030484854,152.8328157299975 L 810.4502927124211,126.0 L 782.2366006023824,126.0 L 773.518090266318,152.8328157299975 L 796.3434466574017,169.41640786499875 Z"
       id="path39"
       style="vector-effect:non-scaling-stroke;-inkscape-stroke:hairline;stroke-width:0.26458333;stroke-dasharray:none;stroke:#ff0000;stroke-opacity:1" /><path
       d="M 856.1010054945884,126.0 L 878.9263618856721,109.41640786499875 L 870.2078515496078,82.58359213500127 L 841.9941594395691,82.58359213500125 L 833.2756491035047,109.41640786499873 L 856.1010054945884,126.0 Z"
       id="path40"
       style="vector-effect:non-scaling-stroke;-inkscape-stroke:hairline;stroke-width:0.26458333;stroke-dasharray:none;stroke:#ff0000;stroke-opacity:1" /><path
       d="M 870.2078515496078,82.58359213500127 L 893.0332079406915,66.0 L 884.3146976046271,39.16718427000253 L 856.1010054945884,39.16718427000252 L 847.3824951585241,66.0 L 870.2078515496078,82.58359213500127 Z"
       id="path41"
       style="vector-effect:non-scaling-stroke;-inkscape-stroke:hairline;stroke-width:0.26458333;stroke-dasharray:none;stroke:#ff0000;stroke-opacity:1" /><path
       d="M 893.0332079406915,152.8328157299975 L 915.8585643317751,136.2492235949962 L 907.1400539957108,109.41640786499875 L 878.9263618856721,109.41640786499875 L 870.2078515496078,136.2492235949962 L 893.0332079406915,152.8328157299975 Z"
       id="path42"
       style="vector-effect:non-scaling-stroke;-inkscape-stroke:hairline;stroke-width:0.26458333;stroke-dasharray:none;stroke:#ff0000;stroke-opacity:1" /><path
       d="M 893.0332079406915,66.0 L 870.2078515496078,82.58359213500127 L 878.9263618856721,109.41640786499873 L 907.1400539957108,109.41640786499875 L 915.8585643317751,82.58359213500127 L 893.0332079406915,66.0 Z"
       id="path43"
       style="vector-effect:non-scaling-stroke;-inkscape-stroke:hairline;stroke-width:0.26458333;stroke-dasharray:none;stroke:#ff0000;stroke-opacity:1" /><path
       d="M 915.8585643317751,82.58359213500127 L 938.6839207228588,66.0 L 929.9654103867945,39.16718427000253 L 901.7517182767558,39.16718427000252 L 893.0332079406915,66.0 L 915.8585643317751,82.58359213500127 Z"
       id="path44"
       style="vector-effect:non-scaling-stroke;-inkscape-stroke:hairline;stroke-width:0.26458333;stroke-dasharray:none;stroke:#ff0000;stroke-opacity:1" /><path
       d="M 929.9654103867945,126.0 L 952.7907667778782,109.41640786499875 L 944.0722564418139,82.58359213500127 L 915.8585643317751,82.58359213500125 L 907.1400539957108,109.41640786499873 L 929.9654103867945,126.0 Z"
       id="path45"
       style="vector-effect:non-scaling-stroke;-inkscape-stroke:hairline;stroke-width:0.26458333;stroke-dasharray:none;stroke:#ff0000;stroke-opacity:1" /><path
       d="M 952.7907667778782,22.583592135001254 L 929.9654103867945,39.16718427000252 L 938.6839207228588,66.0 L 966.8976128328976,66.0 L 975.6161231689618,39.16718427000253 L 952.7907667778782,22.583592135001254 Z"
       id="path46"
       style="vector-effect:non-scaling-stroke;-inkscape-stroke:hairline;stroke-width:0.26458333;stroke-dasharray:none;stroke:#ff0000;stroke-opacity:1" /><path
       d="M 952.7907667778782,109.41640786499875 L 929.9654103867945,126.0 L 938.6839207228588,152.8328157299975 L 966.8976128328976,152.8328157299975 L 975.6161231689618,126.0 L 952.7907667778782,109.41640786499875 Z"
       id="path47"
       style="vector-effect:non-scaling-stroke;-inkscape-stroke:hairline;stroke-width:0.26458333;stroke-dasharray:none;stroke:#ff0000;stroke-opacity:1" /><path
       d="M 966.8976128328975,66.0 L 944.0722564418138,82.58359213500127 L 952.7907667778782,109.41640786499873 L 981.0044588879168,109.41640786499875 L 989.7229692239812,82.58359213500127 L 966.8976128328975,66.0 Z"
       id="path48"
       style="vector-effect:non-scaling-stroke;-inkscape-stroke:hairline;stroke-width:0.26458333;stroke-dasharray:none;stroke:#ff0000;stroke-opacity:1" /><path
       d="M 1003.8298152790005,126.0 L 1026.6551716700842,109.41640786499875 L 1017.9366613340198,82.58359213500127 L 989.7229692239812,82.58359213500125 L 981.0044588879168,109.41640786499873 L 1003.8298152790005,126.0 Z"
       id="path49"
       style="vector-effect:non-scaling-stroke;-inkscape-stroke:hairline;stroke-width:0.26458333;stroke-dasharray:none;stroke:#ff0000;stroke-opacity:1" /><path
       d="M 989.7229692239812,82.58359213500127 L 1012.5483256150649,66.0 L 1003.8298152790005,39.16718427000253 L 975.6161231689618,39.16718427000252 L 966.8976128328975,66.0 L 989.7229692239812,82.58359213500127 Z"
       id="path50"
       style="vector-effect:non-scaling-stroke;-inkscape-stroke:hairline;stroke-width:0.26458333;stroke-dasharray:none;stroke:#ff0000;stroke-opacity:1" /><path
       d="M 1026.6551716700842,109.41640786499875 L 1003.8298152790005,126.0 L 1012.5483256150649,152.8328157299975 L 1040.7620177251035,152.8328157299975 L 1049.480528061168,126.0 L 1026.6551716700842,109.41640786499875 Z"
       id="path51"
       style="vector-effect:non-scaling-stroke;-inkscape-stroke:hairline;stroke-width:0.26458333;stroke-dasharray:none;stroke:#ff0000;stroke-opacity:1" /><path
       d="M 989.7229692239812,169.41640786499875 L 1012.5483256150649,152.8328157299975 L 1003.8298152790005,126.0 L 975.6161231689618,126.0 L 966.8976128328975,152.8328157299975 L 989.7229692239812,169.41640786499875 Z"
       id="path52"
       style="vector-effect:non-scaling-stroke;-inkscape-stroke:hairline;stroke-width:0.26458333;stroke-dasharray:none;stroke:#ff0000;stroke-opacity:1" /><path
       d="M 1049.480528061168,126.0 L 1072.3058844522516,109.41640786499875 L 1063.5873741161872,82.58359213500127 L 1035.3736820061486,82.58359213500125 L 1026.6551716700842,109.41640786499873 L 1049.480528061168,126.0 Z"
       id="path53"
       style="vector-effect:non-scaling-stroke;-inkscape-stroke:hairline;stroke-width:0.26458333;stroke-dasharray:none;stroke:#ff0000;stroke-opacity:1" /><path
       d="M 1063.5873741161872,82.58359213500127 L 1086.412730507271,66.0 L 1077.6942201712066,39.16718427000253 L 1049.480528061168,39.16718427000252 L 1040.7620177251035,66.0 L 1063.5873741161872,82.58359213500127 Z"
       id="path54"
       style="vector-effect:non-scaling-stroke;-inkscape-stroke:hairline;stroke-width:0.26458333;stroke-dasharray:none;stroke:#ff0000;stroke-opacity:1" /><path
       d="M 1086.412730507271,152.8328157299975 L 1109.2380868983546,136.2492235949962 L 1100.5195765622902,109.41640786499875 L 1072.3058844522516,109.41640786499875 L 1063.5873741161872,136.2492235949962 L 1086.412730507271,152.8328157299975 Z"
       id="path55"
       style="vector-effect:non-scaling-stroke;-inkscape-stroke:hairline;stroke-width:0.26458333;stroke-dasharray:none;stroke:#ff0000;stroke-opacity:1" /><path
       d="M 1086.412730507271,66.0 L 1063.5873741161872,82.58359213500127 L 1072.3058844522516,109.41640786499873 L 1100.5195765622902,109.41640786499875 L 1109.2380868983546,82.58359213500127 L 1086.412730507271,66.0 Z"
       id="path56"
       style="vector-effect:non-scaling-stroke;-inkscape-stroke:hairline;stroke-width:0.26458333;stroke-dasharray:none;stroke:#ff0000;stroke-opacity:1" /><path
       d="M 745.0881213844948,13.0 L 736.585887820215,39.16718427000254 L 708.3721957101764,39.16718427000252 L 699.8699621458966,13.0 L 745.0881213844948,13.0 Z"
       id="path57"
       style="vector-effect:non-scaling-stroke;-inkscape-stroke:hairline;stroke-width:0.26458333;stroke-dasharray:none;stroke:#ff0000;stroke-opacity:1" /><path
       d="M 892.8169311689069,13.0 L 884.3146976046271,39.16718427000254 L 856.1010054945884,39.16718427000252 L 847.5987719303087,13.0 L 892.8169311689069,13.0 Z"
       id="path58"
       style="vector-effect:non-scaling-stroke;-inkscape-stroke:hairline;stroke-width:0.26458333;stroke-dasharray:none;stroke:#ff0000;stroke-opacity:1" /><path
       d="M 275.74616102306527,179.0 L 235.1875841510605,179.0 L 235.1875841510605,164.65928006022364 L 239.03023534874688,152.83281572999746 L 267.2439274587856,152.8328157299975 L 275.74616102306527,179.0 Z"
       id="path59"
       style="vector-effect:non-scaling-stroke;-inkscape-stroke:hairline;stroke-width:0.26458333;stroke-dasharray:none;stroke:#ff0000;stroke-opacity:1" /><path
       d="M 855.8847287228039,179.0 L 810.6665694842056,179.0 L 819.1688030484854,152.83281572999746 L 847.3824951585241,152.8328157299975 L 855.8847287228039,179.0 Z"
       id="path60"
       style="vector-effect:non-scaling-stroke;-inkscape-stroke:hairline;stroke-width:0.26458333;stroke-dasharray:none;stroke:#ff0000;stroke-opacity:1" /><path
       d="M 1012.3320488432803,13.0 L 1040.978294496888,13.0 L 1049.480528061168,39.16718427000252 L 1026.6551716700842,55.75077640500379 L 1003.8298152790005,39.16718427000252 L 1012.3320488432803,13.0 Z"
       id="path61"
       style="vector-effect:non-scaling-stroke;-inkscape-stroke:hairline;stroke-width:0.26458333;stroke-dasharray:none;stroke:#ff0000;stroke-opacity:1" /><path
       d="M 235.1875841510605,24.160832870231175 L 238.81395857696225,13.0 L 267.46020423057024,13.0 L 275.9624377948499,39.16718427000252 L 253.13708140376622,55.75077640500379 L 235.1875841510605,42.70970329459769 L 235.1875841510605,24.160832870231175 Z"
       id="path62"
       style="vector-effect:non-scaling-stroke;-inkscape-stroke:hairline;stroke-width:0.26458333;stroke-dasharray:none;stroke:#ff0000;stroke-opacity:1" /><path
       d="M 699.653685374112,152.83281572999746 L 722.4790417651957,136.2492235949962 L 745.3043981562794,152.8328157299975 L 736.8021645919996,179.0 L 708.1559189383918,179.0 L 699.653685374112,152.83281572999746 Z"
       id="path63"
       style="vector-effect:non-scaling-stroke;-inkscape-stroke:hairline;stroke-width:0.26458333;stroke-dasharray:none;stroke:#ff0000;stroke-opacity:1" /><path
       d="M 818.9525262767008,13.0 L 810.4502927124211,39.16718427000254 L 782.2366006023824,39.16718427000252 L 773.7343670381026,13.0 L 818.9525262767008,13.0 Z"
       id="path64"
       style="vector-effect:non-scaling-stroke;-inkscape-stroke:hairline;stroke-width:0.26458333;stroke-dasharray:none;stroke:#ff0000;stroke-opacity:1" /><path
       d="M 506.27416280753243,152.83281572999746 L 529.0995191986161,136.2492235949962 L 551.9248755896998,152.8328157299975 L 543.4226420254201,179.0 L 514.7763963718122,179.0 L 506.27416280753243,152.83281572999746 Z"
       id="path65"
       style="vector-effect:non-scaling-stroke;-inkscape-stroke:hairline;stroke-width:0.26458333;stroke-dasharray:none;stroke:#ff0000;stroke-opacity:1" /><path
       d="M 662.5052061562244,179.0 L 617.2870469176262,179.0 L 625.789280481906,152.83281572999746 L 654.0029725919446,152.8328157299975 L 662.5052061562244,179.0 Z"
       id="path66"
       style="vector-effect:non-scaling-stroke;-inkscape-stroke:hairline;stroke-width:0.26458333;stroke-dasharray:none;stroke:#ff0000;stroke-opacity:1" /><path
       d="M 818.9525262767008,13.0 L 847.5987719303087,13.0 L 856.1010054945884,39.16718427000252 L 833.2756491035047,55.75077640500379 L 810.4502927124211,39.16718427000252 L 818.9525262767008,13.0 Z"
       id="path67"
       style="vector-effect:non-scaling-stroke;-inkscape-stroke:hairline;stroke-width:0.26458333;stroke-dasharray:none;stroke:#ff0000;stroke-opacity:1" /><path
       d="M 358.3290762513357,13.0 L 349.826842687056,39.16718427000254 L 321.6131505770173,39.16718427000252 L 313.1109170127376,13.0 L 358.3290762513357,13.0 Z"
       id="path68"
       style="vector-effect:non-scaling-stroke;-inkscape-stroke:hairline;stroke-width:0.26458333;stroke-dasharray:none;stroke:#ff0000;stroke-opacity:1" /><path
       d="M 506.0578860357478,13.0 L 497.55565247146814,39.16718427000254 L 469.3419603614294,39.16718427000252 L 460.8397267971497,13.0 L 506.0578860357478,13.0 Z"
       id="path69"
       style="vector-effect:non-scaling-stroke;-inkscape-stroke:hairline;stroke-width:0.26458333;stroke-dasharray:none;stroke:#ff0000;stroke-opacity:1" /><path
       d="M 253.13708140376622,109.41640786499875 L 235.1875841510605,122.45748097540485 L 235.1875841510605,82.58359213500127 L 244.41857106770192,82.58359213500127 L 253.13708140376622,109.41640786499875 Z"
       id="path70"
       style="vector-effect:non-scaling-stroke;-inkscape-stroke:hairline;stroke-width:0.26458333;stroke-dasharray:none;stroke:#ff0000;stroke-opacity:1" /><path
       d="M 782.0203238305978,179.0 L 736.8021645919996,179.0 L 745.3043981562794,152.83281572999746 L 773.5180902663182,152.8328157299975 L 782.0203238305978,179.0 Z"
       id="path71"
       style="vector-effect:non-scaling-stroke;-inkscape-stroke:hairline;stroke-width:0.26458333;stroke-dasharray:none;stroke:#ff0000;stroke-opacity:1" /><path
       d="M 625.5730037101214,13.0 L 617.0707701458416,39.16718427000254 L 588.8570780358029,39.16718427000252 L 580.3548444715232,13.0 L 625.5730037101214,13.0 Z"
       id="path72"
       style="vector-effect:non-scaling-stroke;-inkscape-stroke:hairline;stroke-width:0.26458333;stroke-dasharray:none;stroke:#ff0000;stroke-opacity:1" /><path
       d="M 1049.2642512893833,179.0 L 1004.0460920507851,179.0 L 1012.5483256150649,152.83281572999746 L 1040.7620177251035,152.8328157299975 L 1049.2642512893833,179.0 Z"
       id="path73"
       style="vector-effect:non-scaling-stroke;-inkscape-stroke:hairline;stroke-width:0.26458333;stroke-dasharray:none;stroke:#ff0000;stroke-opacity:1" /><path
       d="M 847.3824951585241,152.83281572999746 L 870.2078515496078,136.2492235949962 L 893.0332079406915,152.8328157299975 L 884.5309743764117,179.0 L 855.8847287228039,179.0 L 847.3824951585241,152.83281572999746 Z"
       id="path74"
       style="vector-effect:non-scaling-stroke;-inkscape-stroke:hairline;stroke-width:0.26458333;stroke-dasharray:none;stroke:#ff0000;stroke-opacity:1" /><path
       d="M 312.894640240953,152.83281572999746 L 335.71999663203667,136.2492235949962 L 358.54535302312036,152.8328157299975 L 350.04311945884064,179.0 L 321.39687380523264,179.0 L 312.894640240953,152.83281572999746 Z"
       id="path75"
       style="vector-effect:non-scaling-stroke;-inkscape-stroke:hairline;stroke-width:0.26458333;stroke-dasharray:none;stroke:#ff0000;stroke-opacity:1" /><path
       d="M 588.6408012640184,179.0 L 543.4226420254201,179.0 L 551.9248755896998,152.83281572999746 L 580.1385676997386,152.8328157299975 L 588.6408012640184,179.0 Z"
       id="path76"
       style="vector-effect:non-scaling-stroke;-inkscape-stroke:hairline;stroke-width:0.26458333;stroke-dasharray:none;stroke:#ff0000;stroke-opacity:1" /><path
       d="M 460.62345002536506,152.83281572999746 L 483.44880641644875,136.2492235949962 L 506.27416280753243,152.8328157299975 L 497.77192924325277,179.0 L 469.1256835896448,179.0 L 460.62345002536506,152.83281572999746 Z"
       id="path77"
       style="vector-effect:non-scaling-stroke;-inkscape-stroke:hairline;stroke-width:0.26458333;stroke-dasharray:none;stroke:#ff0000;stroke-opacity:1" /><path
       d="M 1127.1875841510605,13.0 L 1127.1875841510605,27.340719939775923 L 1123.344932953374,39.16718427000254 L 1095.1312408433353,39.16718427000252 L 1086.6290072790555,13.0 L 1127.1875841510605,13.0 Z"
       id="path78"
       style="vector-effect:non-scaling-stroke;-inkscape-stroke:hairline;stroke-width:0.26458333;stroke-dasharray:none;stroke:#ff0000;stroke-opacity:1" /><path
       d="M 893.0332079406915,152.83281572999746 L 915.8585643317751,136.2492235949962 L 938.6839207228588,152.8328157299975 L 930.181687158579,179.0 L 901.5354415049712,179.0 L 893.0332079406915,152.83281572999746 Z"
       id="path79"
       style="vector-effect:non-scaling-stroke;-inkscape-stroke:hairline;stroke-width:0.26458333;stroke-dasharray:none;stroke:#ff0000;stroke-opacity:1" /><path
       d="M 1086.412730507271,152.83281572999746 L 1109.2380868983546,136.2492235949962 L 1127.1875841510605,149.29029670540243 L 1127.1875841510605,167.8391671297682 L 1123.5612097251585,179.0 L 1094.9149640715507,179.0 L 1086.412730507271,152.83281572999746 Z"
       id="path80"
       style="vector-effect:non-scaling-stroke;-inkscape-stroke:hairline;stroke-width:0.26458333;stroke-dasharray:none;stroke:#ff0000;stroke-opacity:1" /><path
       d="M 432.19348114354176,13.0 L 423.69124757926204,39.16718427000254 L 395.4775554692233,39.16718427000252 L 386.97532190494366,13.0 L 432.19348114354176,13.0 Z"
       id="path81"
       style="vector-effect:non-scaling-stroke;-inkscape-stroke:hairline;stroke-width:0.26458333;stroke-dasharray:none;stroke:#ff0000;stroke-opacity:1" /><path
       d="M 395.26127869743874,179.0 L 350.04311945884064,179.0 L 358.54535302312036,152.83281572999746 L 386.759045133159,152.8328157299975 L 395.26127869743874,179.0 Z"
       id="path82"
       style="vector-effect:non-scaling-stroke;-inkscape-stroke:hairline;stroke-width:0.26458333;stroke-dasharray:none;stroke:#ff0000;stroke-opacity:1" /><path
       d="M 975.3998463971773,179.0 L 930.181687158579,179.0 L 938.6839207228588,152.83281572999746 L 966.8976128328976,152.8328157299975 L 975.3998463971773,179.0 Z"
       id="path83"
       style="vector-effect:non-scaling-stroke;-inkscape-stroke:hairline;stroke-width:0.26458333;stroke-dasharray:none;stroke:#ff0000;stroke-opacity:1" /><path
       d="M 625.5730037101214,13.0 L 654.2192493637292,13.0 L 662.721482928009,39.16718427000252 L 639.8961265369253,55.75077640500379 L 617.0707701458416,39.16718427000252 L 625.5730037101214,13.0 Z"
       id="path84"
       style="vector-effect:non-scaling-stroke;-inkscape-stroke:hairline;stroke-width:0.26458333;stroke-dasharray:none;stroke:#ff0000;stroke-opacity:1" /><path
       d="M 654.0029725919446,152.83281572999746 L 676.8283289830283,136.2492235949962 L 699.653685374112,152.8328157299975 L 691.1514518098322,179.0 L 662.5052061562244,179.0 L 654.0029725919446,152.83281572999746 Z"
       id="path85"
       style="vector-effect:non-scaling-stroke;-inkscape-stroke:hairline;stroke-width:0.26458333;stroke-dasharray:none;stroke:#ff0000;stroke-opacity:1" /><path
       d="M 1123.344932953374,126.0 L 1100.5195765622902,109.41640786499873 L 1109.2380868983546,82.58359213500125 L 1127.1875841510605,82.58359213500127 L 1127.1875841510605,123.20815048458998 L 1123.344932953374,126.0 Z"
       id="path86"
       style="vector-effect:non-scaling-stroke;-inkscape-stroke:hairline;stroke-width:0.26458333;stroke-dasharray:none;stroke:#ff0000;stroke-opacity:1" /><path
       d="M 1086.1964537354863,13.0 L 1077.6942201712066,39.16718427000254 L 1049.480528061168,39.16718427000252 L 1040.978294496888,13.0 L 1086.1964537354863,13.0 Z"
       id="path87"
       style="vector-effect:non-scaling-stroke;-inkscape-stroke:hairline;stroke-width:0.26458333;stroke-dasharray:none;stroke:#ff0000;stroke-opacity:1" /><path
       d="M 938.4676439510743,13.0 L 929.9654103867945,39.16718427000254 L 901.7517182767558,39.16718427000252 L 893.249484712476,13.0 L 938.4676439510743,13.0 Z"
       id="path88"
       style="vector-effect:non-scaling-stroke;-inkscape-stroke:hairline;stroke-width:0.26458333;stroke-dasharray:none;stroke:#ff0000;stroke-opacity:1" /><path
       d="M 699.4374086023274,13.0 L 690.9351750380476,39.16718427000254 L 662.721482928009,39.16718427000252 L 654.2192493637292,13.0 L 699.4374086023274,13.0 Z"
       id="path89"
       style="vector-effect:non-scaling-stroke;-inkscape-stroke:hairline;stroke-width:0.26458333;stroke-dasharray:none;stroke:#ff0000;stroke-opacity:1" /><path
       d="M 312.67836346916835,13.0 L 304.1761299048886,39.16718427000254 L 275.9624377948499,39.16718427000252 L 267.46020423057024,13.0 L 312.67836346916835,13.0 Z"
       id="path90"
       style="vector-effect:non-scaling-stroke;-inkscape-stroke:hairline;stroke-width:0.26458333;stroke-dasharray:none;stroke:#ff0000;stroke-opacity:1" /><path
       d="M 469.1256835896448,179.0 L 423.9075243510467,179.0 L 432.4097579153264,152.83281572999746 L 460.6234500253651,152.8328157299975 L 469.1256835896448,179.0 Z"
       id="path91"
       style="vector-effect:non-scaling-stroke;-inkscape-stroke:hairline;stroke-width:0.26458333;stroke-dasharray:none;stroke:#ff0000;stroke-opacity:1" /><path
       d="M 1012.3320488432803,13.0 L 1003.8298152790005,39.16718427000254 L 975.6161231689618,39.16718427000252 L 967.1138896046821,13.0 L 1012.3320488432803,13.0 Z"
       id="path92"
       style="vector-effect:non-scaling-stroke;-inkscape-stroke:hairline;stroke-width:0.26458333;stroke-dasharray:none;stroke:#ff0000;stroke-opacity:1" /><path
       d="M 1040.7620177251035,152.83281572999746 L 1063.5873741161872,136.2492235949962 L 1086.412730507271,152.8328157299975 L 1077.9104969429911,179.0 L 1049.2642512893833,179.0 L 1040.7620177251035,152.83281572999746 Z"
       id="path93"
       style="vector-effect:non-scaling-stroke;-inkscape-stroke:hairline;stroke-width:0.26458333;stroke-dasharray:none;stroke:#ff0000;stroke-opacity:1" /><path
       d="M 1127.1875841510605,50.9936486002292 L 1127.1875841510605,69.54251902459504 L 1109.2380868983546,82.58359213500127 L 1086.412730507271,66.0 L 1095.1312408433353,39.16718427000252 L 1123.344932953374,39.16718427000253 L 1127.1875841510605,50.9936486002292 Z"
       id="path94"
       style="vector-effect:non-scaling-stroke;-inkscape-stroke:hairline;stroke-width:0.26458333;stroke-dasharray:none;stroke:#ff0000;stroke-opacity:1" /><path
       d="M 267.2439274587856,152.83281572999746 L 290.0692838498693,136.2492235949962 L 312.894640240953,152.8328157299975 L 304.39240667667326,179.0 L 275.74616102306527,179.0 L 267.2439274587856,152.83281572999746 Z"
       id="path95"
       style="vector-effect:non-scaling-stroke;-inkscape-stroke:hairline;stroke-width:0.26458333;stroke-dasharray:none;stroke:#ff0000;stroke-opacity:1" /><path
       d="M 235.1875841510605,141.00635139977132 L 235.1875841510605,122.45748097540483 L 253.13708140376622,109.41640786499875 L 275.9624377948499,126.0 L 267.2439274587856,152.8328157299975 L 239.03023534874688,152.8328157299975 L 235.1875841510605,141.00635139977132 Z"
       id="path96"
       style="vector-effect:non-scaling-stroke;-inkscape-stroke:hairline;stroke-width:0.26458333;stroke-dasharray:none;stroke:#ff0000;stroke-opacity:1" /><path
       d="M 432.19348114354176,13.0 L 460.83972679714975,13.0 L 469.3419603614294,39.16718427000252 L 446.5166039703457,55.75077640500379 L 423.69124757926204,39.16718427000252 L 432.19348114354176,13.0 Z"
       id="path97"
       style="vector-effect:non-scaling-stroke;-inkscape-stroke:hairline;stroke-width:0.26458333;stroke-dasharray:none;stroke:#ff0000;stroke-opacity:1" /><path
       d="M 551.7085988179152,13.0 L 543.2063652536356,39.16718427000254 L 514.9926731435968,39.16718427000252 L 506.49043957931707,13.0 L 551.7085988179152,13.0 Z"
       id="path98"
       style="vector-effect:non-scaling-stroke;-inkscape-stroke:hairline;stroke-width:0.26458333;stroke-dasharray:none;stroke:#ff0000;stroke-opacity:1" /><path
       d="M 228.1875841510605,192.0 L 1134.1875841510605,192.0 L 1134.1875841510605,0.0 L 228.1875841510605,0.0 L 228.1875841510605,192.0 Z"
       id="path99"
       style="vector-effect:non-scaling-stroke;-inkscape-stroke:hairline;stroke-width:0.26458333;stroke-dasharray:none;stroke:#ff0000;stroke-opacity:1" /></g><path
     style="fill:none;stroke:#000000;stroke-width:1.265;stroke-linecap:butt;stroke-linejoin:miter;stroke-dasharray:none;stroke-opacity:1;marker-start:url(#Stop);marker-end:url(#Stop)"
     d="M 117.36648,54 V 246"
     id="path202"
     sodipodi:nodetypes="cc" /><text
     xml:space="preserve"
     style="font-size:25.4px;line-height:1.25;font-family:'Noto Mono';-inkscape-font-specification:'Noto Mono';word-spacing:0px;stroke-width:0.264583"
     x="41.868011"
     y="165.22836"
     id="text203"><tspan
       sodipodi:role="line"
       id="tspan203"
       style="stroke-width:0.264583"
       x="41.868011"
       y="165.22836">192</tspan></text><text
     xml:space="preserve"
     style="font-size:25.4px;line-height:1.25;font-family:'Noto Mono';-inkscape-font-specification:'Noto Mono';word-spacing:0px;stroke-width:0.264583"
     x="543.79309"
     y="36.42308"
     id="text203-6"><tspan
       sodipodi:role="line"
       id="tspan203-7"
       style="stroke-width:0.264583"
       x="543.79309"
       y="36.42308">Tabica 1.8</tspan></text><path
     style="fill:none;stroke:#000000;stroke-width:1.265;stroke-linecap:butt;stroke-linejoin:miter;stroke-dasharray:none;stroke-opacity:1;marker-start:url(#Stop);marker-end:url(#Stop)"
     d="M 1082.5148,67 V 233.03758"
     id="path204"
     sodipodi:nodetypes="cc" /><text
     xml:space="preserve"
     style="font-size:25.4px;line-height:1.25;font-family:'Noto Mono';-inkscape-font-specification:'Noto Mono';word-spacing:0px;stroke-width:0.264583"
     x="1096.4199"
     y="165.35858"
     id="text204"><tspan
       sodipodi:role="line"
       id="tspan204"
       style="stroke-width:0.264583"
       x="1096.4199"
       y="165.35858">166</tspan></text><path
     style="fill:none;stroke:#000000;stroke-width:1.265;stroke-linecap:butt;stroke-linejoin:miter;stroke-dasharray:none;stroke-opacity:1;marker-start:url(#Stop);marker-end:url(#Stop)"
     d="M 1052.2506,259.75842 H 147.74941"
     id="path205"
     sodipodi:nodetypes="cc" /><text
     xml:space="preserve"
     style="font-size:25.4px;line-height:1.25;font-family:'Noto Mono';-inkscape-font-specification:'Noto Mono';word-spacing:0px;stroke-width:0.264583"
     x="577.25983"
     y="287.66565"
     id="text205"><tspan
       sodipodi:role="line"
       id="tspan205"
       style="stroke-width:0.264583"
       x="577.25983"
       y="287.66565">906</tspan></text><g
     fill="none"
     stroke="#0000ff"
     stroke-width="0.5"
     transform="translate(-81.187589,54)"
     id="g42"
     style="vector-effect:non-scaling-stroke;stroke-width:0.264583;stroke-dasharray:none;-inkscape-stroke:hairline"><path
       d="M 275.96244,126 298.78779,109.41641 290.06928,136.24922 267.24393,152.83282 Z"
       id="path1-5"
       style="vector-effect:non-scaling-stroke;stroke-width:0.264583;stroke-dasharray:none;-inkscape-stroke:hairline" /><path
       d="M 327.00149,109.41641 349.82684,126 358.54535,152.83282 335.72,136.24922 Z"
       id="path2-3"
       style="vector-effect:non-scaling-stroke;stroke-width:0.264583;stroke-dasharray:none;-inkscape-stroke:hairline" /><path
       d="M 335.72,82.583592 358.54535,66 H 386.75905 L 363.93369,82.583592 Z"
       id="path3-9"
       style="vector-effect:non-scaling-stroke;stroke-width:0.264583;stroke-dasharray:none;-inkscape-stroke:hairline" /><path
       d="M 372.6522,109.41641 H 400.86589 L 423.69125,126 H 395.47756 Z"
       id="path4-4"
       style="vector-effect:non-scaling-stroke;stroke-width:0.264583;stroke-dasharray:none;-inkscape-stroke:hairline" /><path
       d="M 469.34196,126 492.16732,109.41641 483.44881,136.24922 460.62345,152.83282 Z"
       id="path5-1"
       style="vector-effect:non-scaling-stroke;stroke-width:0.264583;stroke-dasharray:none;-inkscape-stroke:hairline" /><path
       d="M 520.38101,109.41641 543.20637,126 551.92488,152.83282 529.09952,136.24922 Z"
       id="path6-5"
       style="vector-effect:non-scaling-stroke;stroke-width:0.264583;stroke-dasharray:none;-inkscape-stroke:hairline" /><path
       d="M 529.09952,82.583592 551.92488,66 H 580.13857 L 557.31321,82.583592 Z"
       id="path7-4"
       style="vector-effect:non-scaling-stroke;stroke-width:0.264583;stroke-dasharray:none;-inkscape-stroke:hairline" /><path
       d="M 446.5166,109.41641 455.23511,82.583592 H 483.44881 L 460.62345,66 469.34196,39.167184 446.5166,55.750776 423.69125,39.167184 432.40976,66 409.5844,82.583592 H 437.79809 Z"
       id="path8-1"
       style="vector-effect:non-scaling-stroke;stroke-width:0.264583;stroke-dasharray:none;-inkscape-stroke:hairline" /><path
       d="M 566.03172,109.41641 H 594.24541 L 617.07077,126 H 588.85708 Z"
       id="path9-5"
       style="vector-effect:non-scaling-stroke;stroke-width:0.264583;stroke-dasharray:none;-inkscape-stroke:hairline" /><path
       d="M 662.72148,126 685.54684,109.41641 676.82833,136.24922 654.00297,152.83282 Z"
       id="path10-5"
       style="vector-effect:non-scaling-stroke;stroke-width:0.264583;stroke-dasharray:none;-inkscape-stroke:hairline" /><path
       d="M 713.76053,109.41641 736.58589,126 745.3044,152.83282 722.47904,136.24922 Z"
       id="path11-4"
       style="vector-effect:non-scaling-stroke;stroke-width:0.264583;stroke-dasharray:none;-inkscape-stroke:hairline" /><path
       d="M 722.47904,82.583592 745.3044,66 H 773.51809 L 750.69273,82.583592 Z"
       id="path12-9"
       style="vector-effect:non-scaling-stroke;stroke-width:0.264583;stroke-dasharray:none;-inkscape-stroke:hairline" /><path
       d="M 639.89613,109.41641 648.61464,82.583592 H 676.82833 L 654.00297,66 662.72148,39.167184 639.89613,55.750776 617.07077,39.167184 625.78928,66 602.96392,82.583592 H 631.17762 Z"
       id="path13-8"
       style="vector-effect:non-scaling-stroke;stroke-width:0.264583;stroke-dasharray:none;-inkscape-stroke:hairline" /><path
       d="M 759.41124,109.41641 H 787.62494 L 810.45029,126 H 782.2366 Z"
       id="path14-3"
       style="vector-effect:non-scaling-stroke;stroke-width:0.264583;stroke-dasharray:none;-inkscape-stroke:hairline" /><path
       d="M 856.10101,126 878.92636,109.41641 870.20785,136.24922 847.3825,152.83282 Z"
       id="path15-8"
       style="vector-effect:non-scaling-stroke;stroke-width:0.264583;stroke-dasharray:none;-inkscape-stroke:hairline" /><path
       d="M 907.14005,109.41641 929.96541,126 938.68392,152.83282 915.85856,136.24922 Z"
       id="path16-5"
       style="vector-effect:non-scaling-stroke;stroke-width:0.264583;stroke-dasharray:none;-inkscape-stroke:hairline" /><path
       d="M 915.85856,82.583592 938.68392,66 H 966.89761 L 944.07226,82.583592 Z"
       id="path17-2"
       style="vector-effect:non-scaling-stroke;stroke-width:0.264583;stroke-dasharray:none;-inkscape-stroke:hairline" /><path
       d="M 833.27565,109.41641 841.99416,82.583592 H 870.20785 L 847.3825,66 856.10101,39.167184 833.27565,55.750776 810.45029,39.167184 819.1688,66 796.34345,82.583592 H 824.55714 Z"
       id="path18-2"
       style="vector-effect:non-scaling-stroke;stroke-width:0.264583;stroke-dasharray:none;-inkscape-stroke:hairline" /><path
       d="M 952.79077,109.41641 H 981.00446 L 1003.8298,126 H 975.61612 Z"
       id="path19-2"
       style="vector-effect:non-scaling-stroke;stroke-width:0.264583;stroke-dasharray:none;-inkscape-stroke:hairline" /><path
       d="M 1049.4805,126 1072.3059,109.41641 1063.5874,136.24922 1040.762,152.83282 Z"
       id="path20-7"
       style="vector-effect:non-scaling-stroke;stroke-width:0.264583;stroke-dasharray:none;-inkscape-stroke:hairline" /><path
       d="M 1026.6552,109.41641 1035.3737,82.583592 H 1063.5874 L 1040.762,66 1049.4805,39.167184 1026.6552,55.750776 1003.8298,39.167184 1012.5483,66 989.72297,82.583592 H 1017.9367 Z"
       id="path21-0"
       style="vector-effect:non-scaling-stroke;stroke-width:0.264583;stroke-dasharray:none;-inkscape-stroke:hairline" /><path
       d="M 1086.1965,13 H 1086.629 L 1095.1312,39.167184 1086.4127,66 1077.6942,39.167184 Z"
       id="path22-3"
       style="vector-effect:non-scaling-stroke;stroke-width:0.264583;stroke-dasharray:none;-inkscape-stroke:hairline" /><path
       d="M 358.32908,13 H 386.97532 L 395.47756,39.167184 372.6522,22.583592 349.82684,39.167184 Z"
       id="path23-4"
       style="vector-effect:non-scaling-stroke;stroke-width:0.264583;stroke-dasharray:none;-inkscape-stroke:hairline" /><path
       d="M 304.39241,179 312.89464,152.83282 321.39687,179 Z"
       id="path24-6"
       style="vector-effect:non-scaling-stroke;stroke-width:0.264583;stroke-dasharray:none;-inkscape-stroke:hairline" /><path
       d="M 1100.5196,109.41641 1123.3449,126 1127.1876,137.82646 V 149.2903 L 1109.2381,136.24922 Z"
       id="path25-3"
       style="vector-effect:non-scaling-stroke;stroke-width:0.264583;stroke-dasharray:none;-inkscape-stroke:hairline" /><path
       d="M 625.78928,152.83282 617.28705,179 H 588.6408 L 580.13857,152.83282 602.96392,169.41641 Z"
       id="path26-6"
       style="vector-effect:non-scaling-stroke;stroke-width:0.264583;stroke-dasharray:none;-inkscape-stroke:hairline" /><path
       d="M 691.15145,179 699.65369,152.83282 708.15592,179 Z"
       id="path27-3"
       style="vector-effect:non-scaling-stroke;stroke-width:0.264583;stroke-dasharray:none;-inkscape-stroke:hairline" /><path
       d="M 699.43741,13 H 699.86996 L 708.3722,39.167184 699.65369,66 690.93518,39.167184 Z"
       id="path28-3"
       style="vector-effect:non-scaling-stroke;stroke-width:0.264583;stroke-dasharray:none;-inkscape-stroke:hairline" /><path
       d="M 432.40976,152.83282 423.90752,179 H 395.26128 L 386.75905,152.83282 409.5844,169.41641 Z"
       id="path29-4"
       style="vector-effect:non-scaling-stroke;stroke-width:0.264583;stroke-dasharray:none;-inkscape-stroke:hairline" /><path
       d="M 551.7086,13 H 580.35484 L 588.85708,39.167184 566.03172,22.583592 543.20637,39.167184 Z"
       id="path30-4"
       style="vector-effect:non-scaling-stroke;stroke-width:0.264583;stroke-dasharray:none;-inkscape-stroke:hairline" /><path
       d="M 497.77193,179 506.27416,152.83282 514.7764,179 Z"
       id="path31-3"
       style="vector-effect:non-scaling-stroke;stroke-width:0.264583;stroke-dasharray:none;-inkscape-stroke:hairline" /><path
       d="M 312.67836,13 H 313.11092 L 321.61315,39.167184 312.89464,66 304.17613,39.167184 Z"
       id="path32-9"
       style="vector-effect:non-scaling-stroke;stroke-width:0.264583;stroke-dasharray:none;-inkscape-stroke:hairline" /><path
       d="M 745.08812,13 H 773.73437 L 782.2366,39.167184 759.41124,22.583592 736.58589,39.167184 Z"
       id="path33-7"
       style="vector-effect:non-scaling-stroke;stroke-width:0.264583;stroke-dasharray:none;-inkscape-stroke:hairline" /><path
       d="M 819.1688,152.83282 810.66657,179 H 782.02032 L 773.51809,152.83282 796.34345,169.41641 Z"
       id="path34-2"
       style="vector-effect:non-scaling-stroke;stroke-width:0.264583;stroke-dasharray:none;-inkscape-stroke:hairline" /><path
       d="M 1077.9105,179 1086.4127,152.83282 1094.915,179 Z"
       id="path35-5"
       style="vector-effect:non-scaling-stroke;stroke-width:0.264583;stroke-dasharray:none;-inkscape-stroke:hairline" /><path
       d="M 892.81693,13 H 893.24948 L 901.75172,39.167184 893.03321,66 884.3147,39.167184 Z"
       id="path36-8"
       style="vector-effect:non-scaling-stroke;stroke-width:0.264583;stroke-dasharray:none;-inkscape-stroke:hairline" /><path
       d="M 506.05789,13 H 506.49044 L 514.99267,39.167184 506.27416,66 497.55565,39.167184 Z"
       id="path37-9"
       style="vector-effect:non-scaling-stroke;stroke-width:0.264583;stroke-dasharray:none;-inkscape-stroke:hairline" /><path
       d="M 1012.5483,152.83282 1004.0461,179 H 975.39985 L 966.89761,152.83282 989.72297,169.41641 Z"
       id="path38-0"
       style="vector-effect:non-scaling-stroke;stroke-width:0.264583;stroke-dasharray:none;-inkscape-stroke:hairline" /><path
       d="M 235.18758,54.173536 V 42.709703 L 253.13708,55.750776 275.96244,39.167184 267.24393,66 290.06928,82.583592 H 261.85559 L 253.13708,109.41641 244.41857,82.583592 H 235.18758 V 68.79185 L 239.03024,66 Z"
       id="path39-2"
       style="vector-effect:non-scaling-stroke;stroke-width:0.264583;stroke-dasharray:none;-inkscape-stroke:hairline" /><path
       d="M 938.46764,13 H 967.11389 L 975.61612,39.167184 952.79077,22.583592 929.96541,39.167184 Z"
       id="path40-4"
       style="vector-effect:non-scaling-stroke;stroke-width:0.264583;stroke-dasharray:none;-inkscape-stroke:hairline" /><path
       d="M 884.53097,179 893.03321,152.83282 901.53544,179 Z"
       id="path41-7"
       style="vector-effect:non-scaling-stroke;stroke-width:0.264583;stroke-dasharray:none;-inkscape-stroke:hairline" /><path
       d="M 228.18758,192 H 1134.1876 V 0 H 228.18758 Z"
       id="path42-6"
       style="vector-effect:non-scaling-stroke;stroke-width:0.264583;stroke-dasharray:none;-inkscape-stroke:hairline" /></g></svg>
