<?xml version="1.0" encoding="UTF-8" standalone="no"?>
<svg
   height="300mm"
   version="1.1"
   viewBox="0 0 1200 300"
   width="1200mm"
   id="svg201"
   sodipodi:docname="final_poly_combination.svg"
   inkscape:version="1.4.2 (1:1.4.2+202505120737+ebf0e940d0)"
   xmlns:inkscape="http://www.inkscape.org/namespaces/inkscape"
   xmlns:sodipodi="http://sodipodi.sourceforge.net/DTD/sodipodi-0.dtd"
   xmlns="http://www.w3.org/2000/svg"
   xmlns:svg="http://www.w3.org/2000/svg">
  <sodipodi:namedview
     id="namedview201"
     pagecolor="#ffffff"
     bordercolor="#666666"
     borderopacity="1.0"
     inkscape:showpageshadow="2"
     inkscape:pageopacity="0.0"
     inkscape:pagecheckerboard="0"
     inkscape:deskcolor="#d1d1d1"
     inkscape:document-units="mm"
     inkscape:zoom="0.36799132"
     inkscape:cx="2267.7165"
     inkscape:cy="567.94818"
     inkscape:window-width="1920"
     inkscape:window-height="1011"
     inkscape:window-x="0"
     inkscape:window-y="0"
     inkscape:window-maximized="1"
     inkscape:current-layer="svg201" />
  <defs
     id="defs1" />
  <g
     fill="none"
     stroke="blue"
     stroke-width="0.5"
     transform="translate(147.5,65.0)"
     id="g201"
     style="vector-effect:non-scaling-stroke;-inkscape-stroke:hairline;stroke-width:0.26458333;stroke-dasharray:none">
    <path
       d="M 31.507041555161987,143.99059892324146 L 26.434607047281705,143.99059892324146 L 16.0,125.91732936033333 L 16.0,117.13161507461905 L 31.507041555161987,143.99059892324146 Z"
       id="path1"
       style="vector-effect:non-scaling-stroke;-inkscape-stroke:hairline;stroke-width:0.26458333;stroke-dasharray:none" />
    <path
       d="M 21.753520777580984,87.1094010767585 L 30.630281166371482,102.4844010767585 L 21.753520777580988,117.8594010767585 L 16.0,107.89401076758504 L 16.0,87.1094010767585 L 21.753520777580984,87.1094010767585 Z"
       id="path2"
       style="vector-effect:non-scaling-stroke;-inkscape-stroke:hairline;stroke-width:0.26458333;stroke-dasharray:none" />
    <path
       d="M 35.50704155516199,141.681197846483 L 53.26056233274298,110.931197846483 L 35.50704155516198,110.931197846483 L 26.63028116637149,126.306197846483 L 35.50704155516199,141.681197846483 Z"
       id="path3"
       style="vector-effect:non-scaling-stroke;-inkscape-stroke:hairline;stroke-width:0.26458333;stroke-dasharray:none" />
    <path
       d="M 34.04325880910212,91.50225821961564 L 31.50704155516198,87.1094010767585 L 67.01408311032395,87.1094010767585 L 64.47786585638381,91.50225821961564 L 34.04325880910212,91.50225821961564 Z"
       id="path4"
       style="vector-effect:non-scaling-stroke;-inkscape-stroke:hairline;stroke-width:0.26458333;stroke-dasharray:none" />
    <path
       d="M 61.0962428511303,97.3594010767585 L 58.13732272153347,102.48440107675849 L 40.38380194395248,102.4844010767585 L 37.42488181435564,97.3594010767585 L 61.0962428511303,97.3594010767585 Z"
       id="path5"
       style="vector-effect:non-scaling-stroke;-inkscape-stroke:hairline;stroke-width:0.26458333;stroke-dasharray:none" />
    <path
       d="M 30.630281166371496,67.11559892324152 L 39.50704155516199,82.49059892324152 L 16.0,82.4905989232415 L 16.0,67.11559892324152 L 30.630281166371496,67.11559892324152 Z"
       id="path6"
       style="vector-effect:non-scaling-stroke;-inkscape-stroke:hairline;stroke-width:0.26458333;stroke-dasharray:none" />
    <path
       d="M 67.01408311032398,82.4905989232415 L 49.26056233274299,51.74059892324151 L 40.38380194395249,67.1155989232415 L 49.26056233274298,82.4905989232415 L 67.01408311032398,82.4905989232415 Z"
       id="path7"
       style="vector-effect:non-scaling-stroke;-inkscape-stroke:hairline;stroke-width:0.26458333;stroke-dasharray:none" />
    <path
       d="M 22.825955285461283,58.66880215351702 L 17.753520777581002,58.66880215351702 L 35.50704155516198,27.91880215351702 L 38.04325880910212,32.31165929637416 L 22.825955285461283,58.66880215351702 Z"
       id="path8"
       style="vector-effect:non-scaling-stroke;-inkscape-stroke:hairline;stroke-width:0.26458333;stroke-dasharray:none" />
    <path
       d="M 41.42488181435565,38.16880215351702 L 44.38380194395248,43.29380215351701 L 35.50704155516198,58.66880215351702 L 29.589201295968326,58.66880215351702 L 41.42488181435565,38.16880215351702 Z"
       id="path9"
       style="vector-effect:non-scaling-stroke;-inkscape-stroke:hairline;stroke-width:0.26458333;stroke-dasharray:none" />
    <path
       d="M 31.50704155516198,25.609401076758502 L 22.630281166371486,40.9844010767585 L 16.0,40.9844010767585 L 16.0,25.609401076758502 L 31.50704155516198,25.609401076758502 Z"
       id="path10"
       style="vector-effect:non-scaling-stroke;-inkscape-stroke:hairline;stroke-width:0.26458333;stroke-dasharray:none" />
    <path
       d="M 106.52112466548594,27.918802153516992 L 88.76760388790495,58.66880215351701 L 106.52112466548596,58.66880215351701 L 115.39788505427644,43.29380215351701 L 106.52112466548594,27.918802153516992 Z"
       id="path11"
       style="vector-effect:non-scaling-stroke;-inkscape-stroke:hairline;stroke-width:0.26458333;stroke-dasharray:none" />
    <path
       d="M 75.01408311032398,82.49059892324149 L 110.52112466548596,82.49059892324149 L 101.64436427669546,67.11559892324149 L 83.89084349911447,67.11559892324149 L 75.01408311032398,82.49059892324149 Z"
       id="path12"
       style="vector-effect:non-scaling-stroke;-inkscape-stroke:hairline;stroke-width:0.26458333;stroke-dasharray:none" />
    <path
       d="M 117.73842818912681,56.13345606609863 L 120.27464544306694,51.74059892324149 L 138.02816622064793,82.49059892324148 L 132.95573171276766,82.49059892324148 L 117.73842818912681,56.13345606609863 Z"
       id="path13"
       style="vector-effect:non-scaling-stroke;-inkscape-stroke:hairline;stroke-width:0.26458333;stroke-dasharray:none" />
    <path
       d="M 126.19248570226063,82.49059892324149 L 120.27464544306696,82.49059892324149 L 111.39788505427646,67.11559892324149 L 114.35680518387329,61.99059892324149 L 126.19248570226063,82.49059892324149 Z"
       id="path14"
       style="vector-effect:non-scaling-stroke;-inkscape-stroke:hairline;stroke-width:0.26458333;stroke-dasharray:none" />
    <path
       d="M 110.52112466548596,25.609401076758502 L 128.27464544306696,56.359401076758516 L 137.15140583185743,40.9844010767585 L 128.27464544306693,25.609401076758502 L 110.52112466548596,25.609401076758502 Z"
       id="path15"
       style="vector-effect:non-scaling-stroke;-inkscape-stroke:hairline;stroke-width:0.26458333;stroke-dasharray:none" />
    <path
       d="M 142.02816622064796,80.18119784648299 L 159.78168699822893,49.431197846483 L 142.02816622064793,49.43119784648299 L 133.15140583185746,64.806197846483 L 142.02816622064796,80.18119784648299 Z"
       id="path16"
       style="vector-effect:non-scaling-stroke;-inkscape-stroke:hairline;stroke-width:0.26458333;stroke-dasharray:none" />
    <path
       d="M 140.56438347458808,30.00225821961567 L 138.02816622064793,25.609401076758502 L 173.5352077758099,25.609401076758502 L 170.99899052186976,30.00225821961564 L 140.56438347458808,30.00225821961567 Z"
       id="path17"
       style="vector-effect:non-scaling-stroke;-inkscape-stroke:hairline;stroke-width:0.26458333;stroke-dasharray:none" />
    <path
       d="M 167.61736751661624,35.8594010767585 L 164.65844738701944,40.9844010767585 L 146.90492660943843,40.9844010767585 L 143.9460064798416,35.8594010767585 L 167.61736751661624,35.8594010767585 Z"
       id="path18"
       style="vector-effect:non-scaling-stroke;-inkscape-stroke:hairline;stroke-width:0.26458333;stroke-dasharray:none" />
    <path
       d="M 102.52112466548594,25.609401076758502 L 67.01408311032397,25.609401076758502 L 75.89084349911447,40.9844010767585 L 93.64436427669546,40.9844010767585 L 102.52112466548594,25.609401076758502 Z"
       id="path19"
       style="vector-effect:non-scaling-stroke;-inkscape-stroke:hairline;stroke-width:0.26458333;stroke-dasharray:none" />
    <path
       d="M 39.507041555161976,25.609401076758502 L 57.26056233274298,56.359401076758516 L 66.13732272153348,40.9844010767585 L 57.26056233274298,25.609401076758502 L 39.507041555161976,25.609401076758502 Z"
       id="path20"
       style="vector-effect:non-scaling-stroke;-inkscape-stroke:hairline;stroke-width:0.26458333;stroke-dasharray:none" />
    <path
       d="M 83.69516938002468,49.43119784648299 L 88.76760388790497,49.43119784648299 L 71.014083110324,80.18119784648299 L 68.47786585638386,75.78834070362585 L 83.69516938002468,49.43119784648299 Z"
       id="path21"
       style="vector-effect:non-scaling-stroke;-inkscape-stroke:hairline;stroke-width:0.26458333;stroke-dasharray:none" />
    <path
       d="M 65.09624285113031,69.931197846483 L 62.137322721533494,64.806197846483 L 71.01408311032398,49.43119784648299 L 76.93192336951765,49.43119784648299 L 65.09624285113031,69.931197846483 Z"
       id="path22"
       style="vector-effect:non-scaling-stroke;-inkscape-stroke:hairline;stroke-width:0.26458333;stroke-dasharray:none" />
    <path
       d="M 110.52112466548597,143.99059892324152 L 146.02816622064796,143.99059892324152 L 137.15140583185746,128.61559892324152 L 119.39788505427646,128.61559892324152 L 110.52112466548597,143.99059892324152 Z"
       id="path23"
       style="vector-effect:non-scaling-stroke;-inkscape-stroke:hairline;stroke-width:0.26458333;stroke-dasharray:none" />
    <path
       d="M 173.53520777580994,143.99059892324152 L 155.78168699822896,113.2405989232415 L 146.90492660943846,128.61559892324152 L 155.78168699822893,143.99059892324152 L 173.53520777580994,143.99059892324152 Z"
       id="path24"
       style="vector-effect:non-scaling-stroke;-inkscape-stroke:hairline;stroke-width:0.26458333;stroke-dasharray:none" />
    <path
       d="M 129.34707995094723,120.16880215351702 L 124.27464544306696,120.16880215351702 L 142.02816622064793,89.41880215351702 L 144.56438347458808,93.81165929637417 L 129.34707995094723,120.16880215351702 Z"
       id="path25"
       style="vector-effect:non-scaling-stroke;-inkscape-stroke:hairline;stroke-width:0.26458333;stroke-dasharray:none" />
    <path
       d="M 147.9460064798416,99.66880215351702 L 150.90492660943843,104.793802153517 L 142.02816622064793,120.16880215351702 L 136.1103259614543,120.16880215351702 L 147.9460064798416,99.66880215351702 Z"
       id="path26"
       style="vector-effect:non-scaling-stroke;-inkscape-stroke:hairline;stroke-width:0.26458333;stroke-dasharray:none" />
    <path
       d="M 102.52112466548596,143.9905989232415 L 84.76760388790495,113.2405989232415 L 75.89084349911447,128.61559892324152 L 84.76760388790497,143.9905989232415 L 102.52112466548596,143.9905989232415 Z"
       id="path27"
       style="vector-effect:non-scaling-stroke;-inkscape-stroke:hairline;stroke-width:0.26458333;stroke-dasharray:none" />
    <path
       d="M 71.01408311032395,89.41880215351702 L 53.260562332742964,120.16880215351702 L 71.01408311032397,120.16880215351702 L 79.89084349911445,104.79380215351702 L 71.01408311032395,89.41880215351702 Z"
       id="path28"
       style="vector-effect:non-scaling-stroke;-inkscape-stroke:hairline;stroke-width:0.26458333;stroke-dasharray:none" />
    <path
       d="M 72.47786585638383,139.59774178038435 L 75.01408311032398,143.9905989232415 L 39.507041555162004,143.99059892324152 L 42.04325880910214,139.59774178038438 L 72.47786585638383,139.59774178038435 Z"
       id="path29"
       style="vector-effect:non-scaling-stroke;-inkscape-stroke:hairline;stroke-width:0.26458333;stroke-dasharray:none" />
    <path
       d="M 45.42488181435565,133.74059892324152 L 48.38380194395248,128.61559892324152 L 66.13732272153348,128.61559892324152 L 69.09624285113031,133.74059892324152 L 45.42488181435565,133.74059892324152 Z"
       id="path30"
       style="vector-effect:non-scaling-stroke;-inkscape-stroke:hairline;stroke-width:0.26458333;stroke-dasharray:none" />
    <path
       d="M 106.52112466548597,141.68119784648297 L 124.27464544306696,110.93119784648299 L 106.52112466548596,110.93119784648299 L 97.64436427669547,126.306197846483 L 106.52112466548597,141.68119784648297 Z"
       id="path31"
       style="vector-effect:non-scaling-stroke;-inkscape-stroke:hairline;stroke-width:0.26458333;stroke-dasharray:none" />
    <path
       d="M 138.02816622064793,87.10940107675849 L 102.52112466548596,87.10940107675849 L 111.39788505427646,102.4844010767585 L 129.15140583185743,102.48440107675849 L 138.02816622064793,87.10940107675849 Z"
       id="path32"
       style="vector-effect:non-scaling-stroke;-inkscape-stroke:hairline;stroke-width:0.26458333;stroke-dasharray:none" />
    <path
       d="M 95.3038211418451,113.46654393390136 L 92.76760388790497,117.8594010767585 L 75.01408311032397,87.10940107675852 L 80.08651761820425,87.10940107675852 L 95.3038211418451,113.46654393390136 Z"
       id="path33"
       style="vector-effect:non-scaling-stroke;-inkscape-stroke:hairline;stroke-width:0.26458333;stroke-dasharray:none" />
    <path
       d="M 86.84976362871129,87.10940107675852 L 92.76760388790495,87.10940107675852 L 101.64436427669546,102.4844010767585 L 98.68544414709862,107.6094010767585 L 86.84976362871129,87.10940107675852 Z"
       id="path34"
       style="vector-effect:non-scaling-stroke;-inkscape-stroke:hairline;stroke-width:0.26458333;stroke-dasharray:none" />
    <path
       d="M 213.0422493309719,89.418802153517 L 195.2887285533909,120.168802153517 L 213.0422493309719,120.16880215351699 L 221.9190097197624,104.79380215351699 L 213.0422493309719,89.418802153517 Z"
       id="path35"
       style="vector-effect:non-scaling-stroke;-inkscape-stroke:hairline;stroke-width:0.26458333;stroke-dasharray:none" />
    <path
       d="M 181.53520777580994,143.9905989232415 L 217.0422493309719,143.9905989232415 L 208.1654889421814,128.6155989232415 L 190.41196816460044,128.6155989232415 L 181.53520777580994,143.9905989232415 Z"
       id="path36"
       style="vector-effect:non-scaling-stroke;-inkscape-stroke:hairline;stroke-width:0.26458333;stroke-dasharray:none" />
    <path
       d="M 224.25955285461276,117.63345606609863 L 226.7957701085529,113.24059892324149 L 244.5492908861339,143.99059892324146 L 239.47685637825361,143.99059892324146 L 224.25955285461276,117.63345606609863 Z"
       id="path37"
       style="vector-effect:non-scaling-stroke;-inkscape-stroke:hairline;stroke-width:0.26458333;stroke-dasharray:none" />
    <path
       d="M 232.71361036774658,143.9905989232415 L 226.79577010855292,143.9905989232415 L 217.9190097197624,128.6155989232415 L 220.87792984935925,123.49059892324149 L 232.71361036774658,143.9905989232415 Z"
       id="path38"
       style="vector-effect:non-scaling-stroke;-inkscape-stroke:hairline;stroke-width:0.26458333;stroke-dasharray:none" />
    <path
       d="M 217.0422493309719,87.10940107675852 L 234.79577010855292,117.8594010767585 L 243.6725304973434,102.4844010767585 L 234.7957701085529,87.1094010767585 L 217.0422493309719,87.10940107675852 Z"
       id="path39"
       style="vector-effect:non-scaling-stroke;-inkscape-stroke:hairline;stroke-width:0.26458333;stroke-dasharray:none" />
    <path
       d="M 248.54929088613392,141.681197846483 L 266.3028116637149,110.931197846483 L 248.5492908861339,110.931197846483 L 239.67253049734342,126.306197846483 L 248.54929088613392,141.681197846483 Z"
       id="path40"
       style="vector-effect:non-scaling-stroke;-inkscape-stroke:hairline;stroke-width:0.26458333;stroke-dasharray:none" />
    <path
       d="M 247.08550814007404,91.50225821961564 L 244.5492908861339,87.1094010767585 L 280.05633244129587,87.1094010767585 L 277.5201151873557,91.50225821961564 L 247.08550814007404,91.50225821961564 Z"
       id="path41"
       style="vector-effect:non-scaling-stroke;-inkscape-stroke:hairline;stroke-width:0.26458333;stroke-dasharray:none" />
    <path
       d="M 274.1384921821022,97.3594010767585 L 271.17957205250536,102.48440107675849 L 253.4260512749244,102.4844010767585 L 250.46713114532756,97.3594010767585 L 274.1384921821022,97.3594010767585 Z"
       id="path42"
       style="vector-effect:non-scaling-stroke;-inkscape-stroke:hairline;stroke-width:0.26458333;stroke-dasharray:none" />
    <path
       d="M 209.0422493309719,87.10940107675849 L 173.5352077758099,87.1094010767585 L 182.4119681646004,102.4844010767585 L 200.1654889421814,102.48440107675849 L 209.0422493309719,87.10940107675849 Z"
       id="path43"
       style="vector-effect:non-scaling-stroke;-inkscape-stroke:hairline;stroke-width:0.26458333;stroke-dasharray:none" />
    <path
       d="M 146.02816622064793,87.10940107675852 L 163.78168699822893,117.8594010767585 L 172.65844738701944,102.4844010767585 L 163.78168699822893,87.1094010767585 L 146.02816622064793,87.10940107675852 Z"
       id="path44"
       style="vector-effect:non-scaling-stroke;-inkscape-stroke:hairline;stroke-width:0.26458333;stroke-dasharray:none" />
    <path
       d="M 190.21629404551064,110.93119784648299 L 195.2887285533909,110.93119784648299 L 177.53520777580997,141.681197846483 L 174.9989905218698,137.28834070362586 L 190.21629404551064,110.93119784648299 Z"
       id="path45"
       style="vector-effect:non-scaling-stroke;-inkscape-stroke:hairline;stroke-width:0.26458333;stroke-dasharray:none" />
    <path
       d="M 171.61736751661627,131.431197846483 L 168.65844738701946,126.306197846483 L 177.53520777580994,110.931197846483 L 183.4530480350036,110.931197846483 L 171.61736751661627,131.431197846483 Z"
       id="path46"
       style="vector-effect:non-scaling-stroke;-inkscape-stroke:hairline;stroke-width:0.26458333;stroke-dasharray:none" />
    <path
       d="M 217.0422493309719,82.4905989232415 L 252.54929088613392,82.49059892324152 L 243.67253049734342,67.11559892324152 L 225.9190097197624,67.11559892324152 L 217.0422493309719,82.4905989232415 Z"
       id="path47"
       style="vector-effect:non-scaling-stroke;-inkscape-stroke:hairline;stroke-width:0.26458333;stroke-dasharray:none" />
    <path
       d="M 280.0563324412959,82.4905989232415 L 262.3028116637149,51.74059892324151 L 253.42605127492442,67.1155989232415 L 262.3028116637149,82.4905989232415 L 280.0563324412959,82.4905989232415 Z"
       id="path48"
       style="vector-effect:non-scaling-stroke;-inkscape-stroke:hairline;stroke-width:0.26458333;stroke-dasharray:none" />
    <path
       d="M 235.8682046164332,58.66880215351702 L 230.79577010855292,58.66880215351702 L 248.5492908861339,27.91880215351702 L 251.08550814007404,32.31165929637416 L 235.8682046164332,58.66880215351702 Z"
       id="path49"
       style="vector-effect:non-scaling-stroke;-inkscape-stroke:hairline;stroke-width:0.26458333;stroke-dasharray:none" />
    <path
       d="M 254.46713114532756,38.16880215351702 L 257.42605127492436,43.29380215351701 L 248.5492908861339,58.66880215351702 L 242.63145062694025,58.66880215351702 L 254.46713114532756,38.16880215351702 Z"
       id="path50"
       style="vector-effect:non-scaling-stroke;-inkscape-stroke:hairline;stroke-width:0.26458333;stroke-dasharray:none" />
    <path
       d="M 209.0422493309719,82.49059892324149 L 191.2887285533909,51.74059892324151 L 182.4119681646004,67.1155989232415 L 191.2887285533909,82.49059892324149 L 209.0422493309719,82.49059892324149 Z"
       id="path51"
       style="vector-effect:non-scaling-stroke;-inkscape-stroke:hairline;stroke-width:0.26458333;stroke-dasharray:none" />
    <path
       d="M 177.5352077758099,27.91880215351702 L 159.7816869982289,58.66880215351702 L 177.5352077758099,58.66880215351702 L 186.4119681646004,43.29380215351702 L 177.5352077758099,27.91880215351702 Z"
       id="path52"
       style="vector-effect:non-scaling-stroke;-inkscape-stroke:hairline;stroke-width:0.26458333;stroke-dasharray:none" />
    <path
       d="M 178.99899052186979,78.09774178038435 L 181.53520777580994,82.49059892324149 L 146.02816622064796,82.49059892324152 L 148.5643834745881,78.09774178038438 L 178.99899052186979,78.09774178038435 Z"
       id="path53"
       style="vector-effect:non-scaling-stroke;-inkscape-stroke:hairline;stroke-width:0.26458333;stroke-dasharray:none" />
    <path
       d="M 151.9460064798416,72.24059892324152 L 154.90492660943843,67.11559892324152 L 172.65844738701944,67.11559892324152 L 175.61736751661627,72.2405989232415 L 151.9460064798416,72.24059892324152 Z"
       id="path54"
       style="vector-effect:non-scaling-stroke;-inkscape-stroke:hairline;stroke-width:0.26458333;stroke-dasharray:none" />
    <path
       d="M 213.0422493309719,80.18119784648299 L 230.79577010855292,49.43119784648299 L 213.0422493309719,49.43119784648299 L 204.1654889421814,64.806197846483 L 213.0422493309719,80.18119784648299 Z"
       id="path55"
       style="vector-effect:non-scaling-stroke;-inkscape-stroke:hairline;stroke-width:0.26458333;stroke-dasharray:none" />
    <path
       d="M 244.5492908861339,25.609401076758502 L 209.0422493309719,25.609401076758502 L 217.9190097197624,40.9844010767585 L 235.6725304973434,40.9844010767585 L 244.5492908861339,25.609401076758502 Z"
       id="path56"
       style="vector-effect:non-scaling-stroke;-inkscape-stroke:hairline;stroke-width:0.26458333;stroke-dasharray:none" />
    <path
       d="M 201.82494580733106,51.96654393390136 L 199.28872855339094,56.3594010767585 L 181.53520777580994,25.609401076758502 L 186.6076422836902,25.609401076758502 L 201.82494580733106,51.96654393390136 Z"
       id="path57"
       style="vector-effect:non-scaling-stroke;-inkscape-stroke:hairline;stroke-width:0.26458333;stroke-dasharray:none" />
    <path
       d="M 193.37088829419724,25.609401076758502 L 199.2887285533909,25.609401076758502 L 208.1654889421814,40.9844010767585 L 205.20656881258458,46.1094010767585 L 193.37088829419724,25.609401076758502 Z"
       id="path58"
       style="vector-effect:non-scaling-stroke;-inkscape-stroke:hairline;stroke-width:0.26458333;stroke-dasharray:none" />
    <path
       d="M 319.56337399645787,27.918802153516992 L 301.80985321887687,58.66880215351701 L 319.56337399645787,58.66880215351701 L 328.44013438524837,43.29380215351701 L 319.56337399645787,27.918802153516992 Z"
       id="path59"
       style="vector-effect:non-scaling-stroke;-inkscape-stroke:hairline;stroke-width:0.26458333;stroke-dasharray:none" />
    <path
       d="M 288.0563324412959,82.49059892324149 L 323.56337399645787,82.49059892324149 L 314.68661360766737,67.11559892324149 L 296.93309283008637,67.11559892324149 L 288.0563324412959,82.49059892324149 Z"
       id="path60"
       style="vector-effect:non-scaling-stroke;-inkscape-stroke:hairline;stroke-width:0.26458333;stroke-dasharray:none" />
    <path
       d="M 330.7806775200987,56.13345606609863 L 333.3168947740389,51.74059892324149 L 351.0704155516198,82.49059892324148 L 345.99798104373957,82.49059892324148 L 330.7806775200987,56.13345606609863 Z"
       id="path61"
       style="vector-effect:non-scaling-stroke;-inkscape-stroke:hairline;stroke-width:0.26458333;stroke-dasharray:none" />
    <path
       d="M 339.23473503323254,82.49059892324149 L 333.3168947740389,82.49059892324149 L 324.44013438524837,67.11559892324149 L 327.3990545148452,61.99059892324149 L 339.23473503323254,82.49059892324149 Z"
       id="path62"
       style="vector-effect:non-scaling-stroke;-inkscape-stroke:hairline;stroke-width:0.26458333;stroke-dasharray:none" />
    <path
       d="M 323.56337399645787,25.609401076758502 L 341.3168947740389,56.359401076758516 L 350.1936551628294,40.9844010767585 L 341.3168947740388,25.609401076758502 L 323.56337399645787,25.609401076758502 Z"
       id="path63"
       style="vector-effect:non-scaling-stroke;-inkscape-stroke:hairline;stroke-width:0.26458333;stroke-dasharray:none" />
    <path
       d="M 355.0704155516199,80.18119784648299 L 372.8239363292008,49.431197846483 L 355.0704155516198,49.43119784648299 L 346.1936551628294,64.806197846483 L 355.0704155516199,80.18119784648299 Z"
       id="path64"
       style="vector-effect:non-scaling-stroke;-inkscape-stroke:hairline;stroke-width:0.26458333;stroke-dasharray:none" />
    <path
       d="M 353.60663280556,30.00225821961567 L 351.0704155516198,25.609401076758502 L 386.5774571067818,25.609401076758502 L 384.04123985284167,30.00225821961564 L 353.60663280556,30.00225821961567 Z"
       id="path65"
       style="vector-effect:non-scaling-stroke;-inkscape-stroke:hairline;stroke-width:0.26458333;stroke-dasharray:none" />
    <path
       d="M 380.65961684758815,35.8594010767585 L 377.7006967179914,40.9844010767585 L 359.9471759404104,40.9844010767585 L 356.9882558108135,35.8594010767585 L 380.65961684758815,35.8594010767585 Z"
       id="path66"
       style="vector-effect:non-scaling-stroke;-inkscape-stroke:hairline;stroke-width:0.26458333;stroke-dasharray:none" />
    <path
       d="M 315.56337399645787,25.609401076758502 L 280.05633244129587,25.609401076758502 L 288.93309283008637,40.9844010767585 L 306.68661360766737,40.9844010767585 L 315.56337399645787,25.609401076758502 Z"
       id="path67"
       style="vector-effect:non-scaling-stroke;-inkscape-stroke:hairline;stroke-width:0.26458333;stroke-dasharray:none" />
    <path
       d="M 252.5492908861339,25.609401076758502 L 270.3028116637149,56.359401076758516 L 279.17957205250536,40.9844010767585 L 270.3028116637149,25.609401076758502 L 252.5492908861339,25.609401076758502 Z"
       id="path68"
       style="vector-effect:non-scaling-stroke;-inkscape-stroke:hairline;stroke-width:0.26458333;stroke-dasharray:none" />
    <path
       d="M 296.7374187109966,49.43119784648299 L 301.80985321887687,49.43119784648299 L 284.0563324412959,80.18119784648299 L 281.52011518735577,75.78834070362585 L 296.7374187109966,49.43119784648299 Z"
       id="path69"
       style="vector-effect:non-scaling-stroke;-inkscape-stroke:hairline;stroke-width:0.26458333;stroke-dasharray:none" />
    <path
       d="M 278.13849218210225,69.931197846483 L 275.1795720525054,64.806197846483 L 284.0563324412959,49.43119784648299 L 289.9741727004896,49.43119784648299 L 278.13849218210225,69.931197846483 Z"
       id="path70"
       style="vector-effect:non-scaling-stroke;-inkscape-stroke:hairline;stroke-width:0.26458333;stroke-dasharray:none" />
    <path
       d="M 323.56337399645787,143.99059892324152 L 359.0704155516199,143.99059892324152 L 350.1936551628294,128.61559892324152 L 332.44013438524837,128.61559892324152 L 323.56337399645787,143.99059892324152 Z"
       id="path71"
       style="vector-effect:non-scaling-stroke;-inkscape-stroke:hairline;stroke-width:0.26458333;stroke-dasharray:none" />
    <path
       d="M 386.5774571067818,143.99059892324152 L 368.8239363292009,113.2405989232415 L 359.9471759404104,128.61559892324152 L 368.8239363292008,143.99059892324152 L 386.5774571067818,143.99059892324152 Z"
       id="path72"
       style="vector-effect:non-scaling-stroke;-inkscape-stroke:hairline;stroke-width:0.26458333;stroke-dasharray:none" />
    <path
       d="M 342.3893292819191,120.16880215351702 L 337.3168947740389,120.16880215351702 L 355.0704155516198,89.41880215351702 L 357.60663280556,93.81165929637417 L 342.3893292819191,120.16880215351702 Z"
       id="path73"
       style="vector-effect:non-scaling-stroke;-inkscape-stroke:hairline;stroke-width:0.26458333;stroke-dasharray:none" />
    <path
       d="M 360.9882558108135,99.66880215351702 L 363.9471759404104,104.793802153517 L 355.0704155516198,120.16880215351702 L 349.1525752924262,120.16880215351702 L 360.9882558108135,99.66880215351702 Z"
       id="path74"
       style="vector-effect:non-scaling-stroke;-inkscape-stroke:hairline;stroke-width:0.26458333;stroke-dasharray:none" />
    <path
       d="M 315.56337399645787,143.9905989232415 L 297.80985321887687,113.2405989232415 L 288.93309283008637,128.61559892324152 L 297.80985321887687,143.9905989232415 L 315.56337399645787,143.9905989232415 Z"
       id="path75"
       style="vector-effect:non-scaling-stroke;-inkscape-stroke:hairline;stroke-width:0.26458333;stroke-dasharray:none" />
    <path
       d="M 284.05633244129587,89.41880215351702 L 266.30281166371486,120.16880215351702 L 284.05633244129587,120.16880215351702 L 292.93309283008637,104.79380215351702 L 284.05633244129587,89.41880215351702 Z"
       id="path76"
       style="vector-effect:non-scaling-stroke;-inkscape-stroke:hairline;stroke-width:0.26458333;stroke-dasharray:none" />
    <path
       d="M 285.5201151873557,139.59774178038435 L 288.0563324412959,143.9905989232415 L 252.54929088613392,143.99059892324152 L 255.08550814007407,139.59774178038438 L 285.5201151873557,139.59774178038435 Z"
       id="path77"
       style="vector-effect:non-scaling-stroke;-inkscape-stroke:hairline;stroke-width:0.26458333;stroke-dasharray:none" />
    <path
       d="M 258.4671311453276,133.74059892324152 L 261.42605127492436,128.61559892324152 L 279.17957205250536,128.61559892324152 L 282.13849218210225,133.74059892324152 L 258.4671311453276,133.74059892324152 Z"
       id="path78"
       style="vector-effect:non-scaling-stroke;-inkscape-stroke:hairline;stroke-width:0.26458333;stroke-dasharray:none" />
    <path
       d="M 319.56337399645787,141.68119784648297 L 337.3168947740389,110.93119784648299 L 319.56337399645787,110.93119784648299 L 310.68661360766737,126.306197846483 L 319.56337399645787,141.68119784648297 Z"
       id="path79"
       style="vector-effect:non-scaling-stroke;-inkscape-stroke:hairline;stroke-width:0.26458333;stroke-dasharray:none" />
    <path
       d="M 351.0704155516198,87.10940107675849 L 315.56337399645787,87.10940107675849 L 324.44013438524837,102.4844010767585 L 342.1936551628294,102.48440107675849 L 351.0704155516198,87.10940107675849 Z"
       id="path80"
       style="vector-effect:non-scaling-stroke;-inkscape-stroke:hairline;stroke-width:0.26458333;stroke-dasharray:none" />
    <path
       d="M 308.346070472817,113.46654393390136 L 305.80985321887687,117.8594010767585 L 288.05633244129587,87.10940107675852 L 293.12876694917617,87.10940107675852 L 308.346070472817,113.46654393390136 Z"
       id="path81"
       style="vector-effect:non-scaling-stroke;-inkscape-stroke:hairline;stroke-width:0.26458333;stroke-dasharray:none" />
    <path
       d="M 299.8920129596832,87.10940107675852 L 305.80985321887687,87.10940107675852 L 314.68661360766737,102.4844010767585 L 311.72769347807053,107.6094010767585 L 299.8920129596832,87.10940107675852 Z"
       id="path82"
       style="vector-effect:non-scaling-stroke;-inkscape-stroke:hairline;stroke-width:0.26458333;stroke-dasharray:none" />
    <path
       d="M 426.0844986619438,89.418802153517 L 408.3309778843628,120.168802153517 L 426.0844986619438,120.16880215351699 L 434.9612590507343,104.79380215351699 L 426.0844986619438,89.418802153517 Z"
       id="path83"
       style="vector-effect:non-scaling-stroke;-inkscape-stroke:hairline;stroke-width:0.26458333;stroke-dasharray:none" />
    <path
       d="M 394.5774571067818,143.9905989232415 L 430.0844986619438,143.9905989232415 L 421.2077382731533,128.6155989232415 L 403.4542174955723,128.6155989232415 L 394.5774571067818,143.9905989232415 Z"
       id="path84"
       style="vector-effect:non-scaling-stroke;-inkscape-stroke:hairline;stroke-width:0.26458333;stroke-dasharray:none" />
    <path
       d="M 437.3018021855847,117.63345606609863 L 439.8380194395248,113.24059892324149 L 457.59154021710583,143.99059892324146 L 452.5191057092255,143.99059892324146 L 437.3018021855847,117.63345606609863 Z"
       id="path85"
       style="vector-effect:non-scaling-stroke;-inkscape-stroke:hairline;stroke-width:0.26458333;stroke-dasharray:none" />
    <path
       d="M 445.7558596987185,143.9905989232415 L 439.8380194395248,143.9905989232415 L 430.9612590507343,128.6155989232415 L 433.92017918033116,123.49059892324149 L 445.7558596987185,143.9905989232415 Z"
       id="path86"
       style="vector-effect:non-scaling-stroke;-inkscape-stroke:hairline;stroke-width:0.26458333;stroke-dasharray:none" />
    <path
       d="M 430.0844986619438,87.10940107675852 L 447.8380194395248,117.8594010767585 L 456.71477982831533,102.4844010767585 L 447.8380194395248,87.1094010767585 L 430.0844986619438,87.10940107675852 Z"
       id="path87"
       style="vector-effect:non-scaling-stroke;-inkscape-stroke:hairline;stroke-width:0.26458333;stroke-dasharray:none" />
    <path
       d="M 461.59154021710583,141.681197846483 L 479.34506099468683,110.931197846483 L 461.59154021710583,110.931197846483 L 452.71477982831533,126.306197846483 L 461.59154021710583,141.681197846483 Z"
       id="path88"
       style="vector-effect:non-scaling-stroke;-inkscape-stroke:hairline;stroke-width:0.26458333;stroke-dasharray:none" />
    <path
       d="M 460.1277574710459,91.50225821961564 L 457.59154021710583,87.1094010767585 L 493.0985817722678,87.1094010767585 L 490.5623645183276,91.50225821961564 L 460.1277574710459,91.50225821961564 Z"
       id="path89"
       style="vector-effect:non-scaling-stroke;-inkscape-stroke:hairline;stroke-width:0.26458333;stroke-dasharray:none" />
    <path
       d="M 487.1807415130741,97.3594010767585 L 484.2218213834773,102.48440107675849 L 466.4683006058963,102.4844010767585 L 463.5093804762995,97.3594010767585 L 487.1807415130741,97.3594010767585 Z"
       id="path90"
       style="vector-effect:non-scaling-stroke;-inkscape-stroke:hairline;stroke-width:0.26458333;stroke-dasharray:none" />
    <path
       d="M 422.0844986619438,87.10940107675849 L 386.5774571067818,87.1094010767585 L 395.4542174955723,102.4844010767585 L 413.2077382731533,102.48440107675849 L 422.0844986619438,87.10940107675849 Z"
       id="path91"
       style="vector-effect:non-scaling-stroke;-inkscape-stroke:hairline;stroke-width:0.26458333;stroke-dasharray:none" />
    <path
       d="M 359.0704155516198,87.10940107675852 L 376.8239363292008,117.8594010767585 L 385.7006967179913,102.4844010767585 L 376.8239363292008,87.1094010767585 L 359.0704155516198,87.10940107675852 Z"
       id="path92"
       style="vector-effect:non-scaling-stroke;-inkscape-stroke:hairline;stroke-width:0.26458333;stroke-dasharray:none" />
    <path
       d="M 403.2585433764826,110.93119784648299 L 408.3309778843628,110.93119784648299 L 390.5774571067819,141.681197846483 L 388.0412398528417,137.28834070362586 L 403.2585433764826,110.93119784648299 Z"
       id="path93"
       style="vector-effect:non-scaling-stroke;-inkscape-stroke:hairline;stroke-width:0.26458333;stroke-dasharray:none" />
    <path
       d="M 384.6596168475882,131.431197846483 L 381.7006967179914,126.306197846483 L 390.5774571067818,110.931197846483 L 396.4952973659755,110.931197846483 L 384.6596168475882,131.431197846483 Z"
       id="path94"
       style="vector-effect:non-scaling-stroke;-inkscape-stroke:hairline;stroke-width:0.26458333;stroke-dasharray:none" />
    <path
       d="M 430.0844986619438,82.4905989232415 L 465.59154021710583,82.49059892324152 L 456.71477982831533,67.11559892324152 L 438.9612590507343,67.11559892324152 L 430.0844986619438,82.4905989232415 Z"
       id="path95"
       style="vector-effect:non-scaling-stroke;-inkscape-stroke:hairline;stroke-width:0.26458333;stroke-dasharray:none" />
    <path
       d="M 493.09858177226783,82.4905989232415 L 475.34506099468683,51.74059892324151 L 466.46830060589633,67.1155989232415 L 475.34506099468683,82.4905989232415 L 493.09858177226783,82.4905989232415 Z"
       id="path96"
       style="vector-effect:non-scaling-stroke;-inkscape-stroke:hairline;stroke-width:0.26458333;stroke-dasharray:none" />
    <path
       d="M 448.91045394740513,58.66880215351702 L 443.8380194395248,58.66880215351702 L 461.59154021710583,27.91880215351702 L 464.1277574710459,32.31165929637416 L 448.91045394740513,58.66880215351702 Z"
       id="path97"
       style="vector-effect:non-scaling-stroke;-inkscape-stroke:hairline;stroke-width:0.26458333;stroke-dasharray:none" />
    <path
       d="M 467.5093804762995,38.16880215351702 L 470.4683006058963,43.29380215351701 L 461.59154021710583,58.66880215351702 L 455.67369995791216,58.66880215351702 L 467.5093804762995,38.16880215351702 Z"
       id="path98"
       style="vector-effect:non-scaling-stroke;-inkscape-stroke:hairline;stroke-width:0.26458333;stroke-dasharray:none" />
    <path
       d="M 422.0844986619438,82.49059892324149 L 404.3309778843628,51.74059892324151 L 395.4542174955723,67.1155989232415 L 404.3309778843628,82.49059892324149 L 422.0844986619438,82.49059892324149 Z"
       id="path99"
       style="vector-effect:non-scaling-stroke;-inkscape-stroke:hairline;stroke-width:0.26458333;stroke-dasharray:none" />
    <path
       d="M 390.5774571067818,27.91880215351702 L 372.8239363292008,58.66880215351702 L 390.5774571067818,58.66880215351702 L 399.4542174955723,43.29380215351702 L 390.5774571067818,27.91880215351702 Z"
       id="path100"
       style="vector-effect:non-scaling-stroke;-inkscape-stroke:hairline;stroke-width:0.26458333;stroke-dasharray:none" />
    <path
       d="M 392.0412398528417,78.09774178038435 L 394.5774571067818,82.49059892324149 L 359.0704155516199,82.49059892324152 L 361.60663280556,78.09774178038438 L 392.0412398528417,78.09774178038435 Z"
       id="path101"
       style="vector-effect:non-scaling-stroke;-inkscape-stroke:hairline;stroke-width:0.26458333;stroke-dasharray:none" />
    <path
       d="M 364.98825581081354,72.24059892324152 L 367.9471759404104,67.11559892324152 L 385.7006967179913,67.11559892324152 L 388.65961684758815,72.2405989232415 L 364.98825581081354,72.24059892324152 Z"
       id="path102"
       style="vector-effect:non-scaling-stroke;-inkscape-stroke:hairline;stroke-width:0.26458333;stroke-dasharray:none" />
    <path
       d="M 426.0844986619438,80.18119784648299 L 443.8380194395248,49.43119784648299 L 426.0844986619438,49.43119784648299 L 417.2077382731533,64.806197846483 L 426.0844986619438,80.18119784648299 Z"
       id="path103"
       style="vector-effect:non-scaling-stroke;-inkscape-stroke:hairline;stroke-width:0.26458333;stroke-dasharray:none" />
    <path
       d="M 457.59154021710583,25.609401076758502 L 422.0844986619438,25.609401076758502 L 430.9612590507343,40.9844010767585 L 448.71477982831533,40.9844010767585 L 457.59154021710583,25.609401076758502 Z"
       id="path104"
       style="vector-effect:non-scaling-stroke;-inkscape-stroke:hairline;stroke-width:0.26458333;stroke-dasharray:none" />
    <path
       d="M 414.867195138303,51.96654393390136 L 412.3309778843628,56.3594010767585 L 394.5774571067818,25.609401076758502 L 399.6498916146621,25.609401076758502 L 414.867195138303,51.96654393390136 Z"
       id="path105"
       style="vector-effect:non-scaling-stroke;-inkscape-stroke:hairline;stroke-width:0.26458333;stroke-dasharray:none" />
    <path
       d="M 406.41313762516916,25.609401076758502 L 412.3309778843628,25.609401076758502 L 421.2077382731533,40.9844010767585 L 418.2488181435565,46.1094010767585 L 406.41313762516916,25.609401076758502 Z"
       id="path106"
       style="vector-effect:non-scaling-stroke;-inkscape-stroke:hairline;stroke-width:0.26458333;stroke-dasharray:none" />
    <path
       d="M 532.6056233274297,27.918802153516992 L 514.8521025498487,58.66880215351701 L 532.6056233274298,58.66880215351701 L 541.4823837162203,43.29380215351701 L 532.6056233274297,27.918802153516992 Z"
       id="path107"
       style="vector-effect:non-scaling-stroke;-inkscape-stroke:hairline;stroke-width:0.26458333;stroke-dasharray:none" />
    <path
       d="M 501.09858177226783,82.49059892324149 L 536.6056233274298,82.49059892324149 L 527.7288629386393,67.11559892324149 L 509.9753421610583,67.11559892324149 L 501.09858177226783,82.49059892324149 Z"
       id="path108"
       style="vector-effect:non-scaling-stroke;-inkscape-stroke:hairline;stroke-width:0.26458333;stroke-dasharray:none" />
    <path
       d="M 543.8229268510706,56.13345606609863 L 546.3591441050107,51.74059892324149 L 564.1126648825917,82.49059892324148 L 559.0402303747114,82.49059892324148 L 543.8229268510706,56.13345606609863 Z"
       id="path109"
       style="vector-effect:non-scaling-stroke;-inkscape-stroke:hairline;stroke-width:0.26458333;stroke-dasharray:none" />
    <path
       d="M 552.2769843642045,82.49059892324149 L 546.3591441050107,82.49059892324149 L 537.4823837162203,67.11559892324149 L 540.4413038458172,61.99059892324149 L 552.2769843642045,82.49059892324149 Z"
       id="path110"
       style="vector-effect:non-scaling-stroke;-inkscape-stroke:hairline;stroke-width:0.26458333;stroke-dasharray:none" />
    <path
       d="M 536.6056233274298,25.609401076758502 L 554.3591441050107,56.359401076758516 L 563.2359044938013,40.9844010767585 L 554.3591441050107,25.609401076758502 L 536.6056233274298,25.609401076758502 Z"
       id="path111"
       style="vector-effect:non-scaling-stroke;-inkscape-stroke:hairline;stroke-width:0.26458333;stroke-dasharray:none" />
    <path
       d="M 568.1126648825918,80.18119784648299 L 585.8661856601727,49.431197846483 L 568.1126648825917,49.43119784648299 L 559.2359044938013,64.806197846483 L 568.1126648825918,80.18119784648299 Z"
       id="path112"
       style="vector-effect:non-scaling-stroke;-inkscape-stroke:hairline;stroke-width:0.26458333;stroke-dasharray:none" />
    <path
       d="M 566.6488821365319,30.00225821961567 L 564.1126648825917,25.609401076758502 L 599.6197064377537,25.609401076758502 L 597.0834891838135,30.00225821961564 L 566.6488821365319,30.00225821961567 Z"
       id="path113"
       style="vector-effect:non-scaling-stroke;-inkscape-stroke:hairline;stroke-width:0.26458333;stroke-dasharray:none" />
    <path
       d="M 593.7018661785601,35.8594010767585 L 590.7429460489633,40.9844010767585 L 572.9894252713823,40.9844010767585 L 570.0305051417854,35.8594010767585 L 593.7018661785601,35.8594010767585 Z"
       id="path114"
       style="vector-effect:non-scaling-stroke;-inkscape-stroke:hairline;stroke-width:0.26458333;stroke-dasharray:none" />
    <path
       d="M 528.6056233274297,25.609401076758502 L 493.0985817722678,25.609401076758502 L 501.9753421610583,40.9844010767585 L 519.7288629386393,40.9844010767585 L 528.6056233274297,25.609401076758502 Z"
       id="path115"
       style="vector-effect:non-scaling-stroke;-inkscape-stroke:hairline;stroke-width:0.26458333;stroke-dasharray:none" />
    <path
       d="M 465.59154021710583,25.609401076758502 L 483.34506099468683,56.359401076758516 L 492.2218213834773,40.9844010767585 L 483.34506099468683,25.609401076758502 L 465.59154021710583,25.609401076758502 Z"
       id="path116"
       style="vector-effect:non-scaling-stroke;-inkscape-stroke:hairline;stroke-width:0.26458333;stroke-dasharray:none" />
    <path
       d="M 509.77966804196853,49.43119784648299 L 514.8521025498488,49.43119784648299 L 497.09858177226783,80.18119784648299 L 494.5623645183277,75.78834070362585 L 509.77966804196853,49.43119784648299 Z"
       id="path117"
       style="vector-effect:non-scaling-stroke;-inkscape-stroke:hairline;stroke-width:0.26458333;stroke-dasharray:none" />
    <path
       d="M 491.18074151307417,69.931197846483 L 488.22182138347733,64.806197846483 L 497.09858177226783,49.43119784648299 L 503.0164220314615,49.43119784648299 L 491.18074151307417,69.931197846483 Z"
       id="path118"
       style="vector-effect:non-scaling-stroke;-inkscape-stroke:hairline;stroke-width:0.26458333;stroke-dasharray:none" />
    <path
       d="M 536.6056233274298,143.99059892324152 L 572.1126648825918,143.99059892324152 L 563.2359044938013,128.61559892324152 L 545.4823837162203,128.61559892324152 L 536.6056233274298,143.99059892324152 Z"
       id="path119"
       style="vector-effect:non-scaling-stroke;-inkscape-stroke:hairline;stroke-width:0.26458333;stroke-dasharray:none" />
    <path
       d="M 599.6197064377537,143.99059892324152 L 581.8661856601727,113.2405989232415 L 572.9894252713823,128.61559892324152 L 581.8661856601727,143.99059892324152 L 599.6197064377537,143.99059892324152 Z"
       id="path120"
       style="vector-effect:non-scaling-stroke;-inkscape-stroke:hairline;stroke-width:0.26458333;stroke-dasharray:none" />
    <path
       d="M 555.431578612891,120.16880215351702 L 550.3591441050107,120.16880215351702 L 568.1126648825917,89.41880215351702 L 570.6488821365319,93.81165929637417 L 555.431578612891,120.16880215351702 Z"
       id="path121"
       style="vector-effect:non-scaling-stroke;-inkscape-stroke:hairline;stroke-width:0.26458333;stroke-dasharray:none" />
    <path
       d="M 574.0305051417854,99.66880215351702 L 576.9894252713823,104.793802153517 L 568.1126648825917,120.16880215351702 L 562.1948246233981,120.16880215351702 L 574.0305051417854,99.66880215351702 Z"
       id="path122"
       style="vector-effect:non-scaling-stroke;-inkscape-stroke:hairline;stroke-width:0.26458333;stroke-dasharray:none" />
    <path
       d="M 528.6056233274298,143.9905989232415 L 510.8521025498488,113.2405989232415 L 501.9753421610583,128.61559892324152 L 510.8521025498488,143.9905989232415 L 528.6056233274298,143.9905989232415 Z"
       id="path123"
       style="vector-effect:non-scaling-stroke;-inkscape-stroke:hairline;stroke-width:0.26458333;stroke-dasharray:none" />
    <path
       d="M 497.0985817722678,89.41880215351702 L 479.3450609946868,120.16880215351702 L 497.0985817722678,120.16880215351702 L 505.9753421610583,104.79380215351702 L 497.0985817722678,89.41880215351702 Z"
       id="path124"
       style="vector-effect:non-scaling-stroke;-inkscape-stroke:hairline;stroke-width:0.26458333;stroke-dasharray:none" />
    <path
       d="M 498.5623645183276,139.59774178038435 L 501.09858177226783,143.9905989232415 L 465.59154021710583,143.99059892324152 L 468.127757471046,139.59774178038438 L 498.5623645183276,139.59774178038435 Z"
       id="path125"
       style="vector-effect:non-scaling-stroke;-inkscape-stroke:hairline;stroke-width:0.26458333;stroke-dasharray:none" />
    <path
       d="M 471.5093804762995,133.74059892324152 L 474.4683006058963,128.61559892324152 L 492.2218213834773,128.61559892324152 L 495.18074151307417,133.74059892324152 L 471.5093804762995,133.74059892324152 Z"
       id="path126"
       style="vector-effect:non-scaling-stroke;-inkscape-stroke:hairline;stroke-width:0.26458333;stroke-dasharray:none" />
    <path
       d="M 532.6056233274298,141.68119784648297 L 550.3591441050107,110.93119784648299 L 532.6056233274298,110.93119784648299 L 523.7288629386393,126.306197846483 L 532.6056233274298,141.68119784648297 Z"
       id="path127"
       style="vector-effect:non-scaling-stroke;-inkscape-stroke:hairline;stroke-width:0.26458333;stroke-dasharray:none" />
    <path
       d="M 564.1126648825917,87.10940107675849 L 528.6056233274298,87.10940107675849 L 537.4823837162203,102.4844010767585 L 555.2359044938013,102.48440107675849 L 564.1126648825917,87.10940107675849 Z"
       id="path128"
       style="vector-effect:non-scaling-stroke;-inkscape-stroke:hairline;stroke-width:0.26458333;stroke-dasharray:none" />
    <path
       d="M 521.3883198037889,113.46654393390136 L 518.8521025498488,117.8594010767585 L 501.0985817722678,87.10940107675852 L 506.1710162801481,87.10940107675852 L 521.3883198037889,113.46654393390136 Z"
       id="path129"
       style="vector-effect:non-scaling-stroke;-inkscape-stroke:hairline;stroke-width:0.26458333;stroke-dasharray:none" />
    <path
       d="M 512.9342622906552,87.10940107675852 L 518.8521025498487,87.10940107675852 L 527.7288629386393,102.4844010767585 L 524.7699428090425,107.6094010767585 L 512.9342622906552,87.10940107675852 Z"
       id="path130"
       style="vector-effect:non-scaling-stroke;-inkscape-stroke:hairline;stroke-width:0.26458333;stroke-dasharray:none" />
    <path
       d="M 639.1267479929157,89.418802153517 L 621.3732272153347,120.168802153517 L 639.1267479929157,120.16880215351699 L 648.0035083817062,104.79380215351699 L 639.1267479929157,89.418802153517 Z"
       id="path131"
       style="vector-effect:non-scaling-stroke;-inkscape-stroke:hairline;stroke-width:0.26458333;stroke-dasharray:none" />
    <path
       d="M 607.6197064377537,143.9905989232415 L 643.1267479929157,143.9905989232415 L 634.2499876041253,128.6155989232415 L 616.4964668265443,128.6155989232415 L 607.6197064377537,143.9905989232415 Z"
       id="path132"
       style="vector-effect:non-scaling-stroke;-inkscape-stroke:hairline;stroke-width:0.26458333;stroke-dasharray:none" />
    <path
       d="M 650.3440515165565,117.63345606609863 L 652.8802687704967,113.24059892324149 L 670.6337895480777,143.99059892324146 L 665.5613550401974,143.99059892324146 L 650.3440515165565,117.63345606609863 Z"
       id="path133"
       style="vector-effect:non-scaling-stroke;-inkscape-stroke:hairline;stroke-width:0.26458333;stroke-dasharray:none" />
    <path
       d="M 658.7981090296904,143.9905989232415 L 652.8802687704967,143.9905989232415 L 644.0035083817062,128.6155989232415 L 646.9624285113031,123.49059892324149 L 658.7981090296904,143.9905989232415 Z"
       id="path134"
       style="vector-effect:non-scaling-stroke;-inkscape-stroke:hairline;stroke-width:0.26458333;stroke-dasharray:none" />
    <path
       d="M 643.1267479929157,87.10940107675852 L 660.8802687704967,117.8594010767585 L 669.7570291592872,102.4844010767585 L 660.8802687704967,87.1094010767585 L 643.1267479929157,87.10940107675852 Z"
       id="path135"
       style="vector-effect:non-scaling-stroke;-inkscape-stroke:hairline;stroke-width:0.26458333;stroke-dasharray:none" />
    <path
       d="M 674.6337895480777,141.681197846483 L 692.3873103256587,110.931197846483 L 674.6337895480777,110.931197846483 L 665.7570291592872,126.306197846483 L 674.6337895480777,141.681197846483 Z"
       id="path136"
       style="vector-effect:non-scaling-stroke;-inkscape-stroke:hairline;stroke-width:0.26458333;stroke-dasharray:none" />
    <path
       d="M 673.1700068020178,91.50225821961564 L 670.6337895480777,87.1094010767585 L 706.1408311032396,87.1094010767585 L 703.6046138492995,91.50225821961564 L 673.1700068020178,91.50225821961564 Z"
       id="path137"
       style="vector-effect:non-scaling-stroke;-inkscape-stroke:hairline;stroke-width:0.26458333;stroke-dasharray:none" />
    <path
       d="M 700.2229908440461,97.3594010767585 L 697.2640707144492,102.48440107675849 L 679.5105499368682,102.4844010767585 L 676.5516298072714,97.3594010767585 L 700.2229908440461,97.3594010767585 Z"
       id="path138"
       style="vector-effect:non-scaling-stroke;-inkscape-stroke:hairline;stroke-width:0.26458333;stroke-dasharray:none" />
    <path
       d="M 635.1267479929157,87.10940107675849 L 599.6197064377537,87.1094010767585 L 608.4964668265443,102.4844010767585 L 626.2499876041253,102.48440107675849 L 635.1267479929157,87.10940107675849 Z"
       id="path139"
       style="vector-effect:non-scaling-stroke;-inkscape-stroke:hairline;stroke-width:0.26458333;stroke-dasharray:none" />
    <path
       d="M 572.1126648825917,87.10940107675852 L 589.8661856601727,117.8594010767585 L 598.7429460489633,102.4844010767585 L 589.8661856601727,87.1094010767585 L 572.1126648825917,87.10940107675852 Z"
       id="path140"
       style="vector-effect:non-scaling-stroke;-inkscape-stroke:hairline;stroke-width:0.26458333;stroke-dasharray:none" />
    <path
       d="M 616.3007927074544,110.93119784648299 L 621.3732272153347,110.93119784648299 L 603.6197064377537,141.681197846483 L 601.0834891838136,137.28834070362586 L 616.3007927074544,110.93119784648299 Z"
       id="path141"
       style="vector-effect:non-scaling-stroke;-inkscape-stroke:hairline;stroke-width:0.26458333;stroke-dasharray:none" />
    <path
       d="M 597.7018661785601,131.431197846483 L 594.7429460489633,126.306197846483 L 603.6197064377537,110.931197846483 L 609.5375466969474,110.931197846483 L 597.7018661785601,131.431197846483 Z"
       id="path142"
       style="vector-effect:non-scaling-stroke;-inkscape-stroke:hairline;stroke-width:0.26458333;stroke-dasharray:none" />
    <path
       d="M 643.1267479929157,82.4905989232415 L 678.6337895480777,82.49059892324152 L 669.7570291592872,67.11559892324152 L 652.0035083817063,67.11559892324152 L 643.1267479929157,82.4905989232415 Z"
       id="path143"
       style="vector-effect:non-scaling-stroke;-inkscape-stroke:hairline;stroke-width:0.26458333;stroke-dasharray:none" />
    <path
       d="M 706.1408311032397,82.4905989232415 L 688.3873103256587,51.74059892324151 L 679.5105499368682,67.1155989232415 L 688.3873103256587,82.4905989232415 L 706.1408311032397,82.4905989232415 Z"
       id="path144"
       style="vector-effect:non-scaling-stroke;-inkscape-stroke:hairline;stroke-width:0.26458333;stroke-dasharray:none" />
    <path
       d="M 661.952703278377,58.66880215351702 L 656.8802687704967,58.66880215351702 L 674.6337895480777,27.91880215351702 L 677.1700068020178,32.31165929637416 L 661.952703278377,58.66880215351702 Z"
       id="path145"
       style="vector-effect:non-scaling-stroke;-inkscape-stroke:hairline;stroke-width:0.26458333;stroke-dasharray:none" />
    <path
       d="M 680.5516298072714,38.16880215351702 L 683.5105499368682,43.29380215351701 L 674.6337895480777,58.66880215351702 L 668.7159492888841,58.66880215351702 L 680.5516298072714,38.16880215351702 Z"
       id="path146"
       style="vector-effect:non-scaling-stroke;-inkscape-stroke:hairline;stroke-width:0.26458333;stroke-dasharray:none" />
    <path
       d="M 635.1267479929157,82.49059892324149 L 617.3732272153347,51.74059892324151 L 608.4964668265443,67.1155989232415 L 617.3732272153347,82.49059892324149 L 635.1267479929157,82.49059892324149 Z"
       id="path147"
       style="vector-effect:non-scaling-stroke;-inkscape-stroke:hairline;stroke-width:0.26458333;stroke-dasharray:none" />
    <path
       d="M 603.6197064377537,27.91880215351702 L 585.8661856601727,58.66880215351702 L 603.6197064377537,58.66880215351702 L 612.4964668265443,43.29380215351702 L 603.6197064377537,27.91880215351702 Z"
       id="path148"
       style="vector-effect:non-scaling-stroke;-inkscape-stroke:hairline;stroke-width:0.26458333;stroke-dasharray:none" />
    <path
       d="M 605.0834891838136,78.09774178038435 L 607.6197064377537,82.49059892324149 L 572.1126648825918,82.49059892324152 L 574.6488821365319,78.09774178038438 L 605.0834891838136,78.09774178038435 Z"
       id="path149"
       style="vector-effect:non-scaling-stroke;-inkscape-stroke:hairline;stroke-width:0.26458333;stroke-dasharray:none" />
    <path
       d="M 578.0305051417854,72.24059892324152 L 580.9894252713823,67.11559892324152 L 598.7429460489633,67.11559892324152 L 601.7018661785601,72.2405989232415 L 578.0305051417854,72.24059892324152 Z"
       id="path150"
       style="vector-effect:non-scaling-stroke;-inkscape-stroke:hairline;stroke-width:0.26458333;stroke-dasharray:none" />
    <path
       d="M 639.1267479929157,80.18119784648299 L 656.8802687704967,49.43119784648299 L 639.1267479929157,49.43119784648299 L 630.2499876041253,64.806197846483 L 639.1267479929157,80.18119784648299 Z"
       id="path151"
       style="vector-effect:non-scaling-stroke;-inkscape-stroke:hairline;stroke-width:0.26458333;stroke-dasharray:none" />
    <path
       d="M 670.6337895480777,25.609401076758502 L 635.1267479929157,25.609401076758502 L 644.0035083817062,40.9844010767585 L 661.7570291592872,40.9844010767585 L 670.6337895480777,25.609401076758502 Z"
       id="path152"
       style="vector-effect:non-scaling-stroke;-inkscape-stroke:hairline;stroke-width:0.26458333;stroke-dasharray:none" />
    <path
       d="M 627.909444469275,51.96654393390136 L 625.3732272153347,56.3594010767585 L 607.6197064377537,25.609401076758502 L 612.692140945634,25.609401076758502 L 627.909444469275,51.96654393390136 Z"
       id="path153"
       style="vector-effect:non-scaling-stroke;-inkscape-stroke:hairline;stroke-width:0.26458333;stroke-dasharray:none" />
    <path
       d="M 619.4553869561411,25.609401076758502 L 625.3732272153347,25.609401076758502 L 634.2499876041253,40.9844010767585 L 631.2910674745284,46.1094010767585 L 619.4553869561411,25.609401076758502 Z"
       id="path154"
       style="vector-effect:non-scaling-stroke;-inkscape-stroke:hairline;stroke-width:0.26458333;stroke-dasharray:none" />
    <path
       d="M 745.6478726584016,27.918802153516992 L 727.8943518808208,58.66880215351701 L 745.6478726584016,58.66880215351701 L 754.5246330471922,43.29380215351701 L 745.6478726584016,27.918802153516992 Z"
       id="path155"
       style="vector-effect:non-scaling-stroke;-inkscape-stroke:hairline;stroke-width:0.26458333;stroke-dasharray:none" />
    <path
       d="M 714.1408311032397,82.49059892324149 L 749.6478726584016,82.49059892324149 L 740.7711122696112,67.11559892324149 L 723.0175914920302,67.11559892324149 L 714.1408311032397,82.49059892324149 Z"
       id="path156"
       style="vector-effect:non-scaling-stroke;-inkscape-stroke:hairline;stroke-width:0.26458333;stroke-dasharray:none" />
    <path
       d="M 756.8651761820425,56.13345606609863 L 759.4013934359826,51.74059892324149 L 777.1549142135636,82.49059892324148 L 772.0824797056835,82.49059892324148 L 756.8651761820425,56.13345606609863 Z"
       id="path157"
       style="vector-effect:non-scaling-stroke;-inkscape-stroke:hairline;stroke-width:0.26458333;stroke-dasharray:none" />
    <path
       d="M 765.3192336951763,82.49059892324149 L 759.4013934359828,82.49059892324149 L 750.5246330471922,67.11559892324149 L 753.483553176789,61.99059892324149 L 765.3192336951763,82.49059892324149 Z"
       id="path158"
       style="vector-effect:non-scaling-stroke;-inkscape-stroke:hairline;stroke-width:0.26458333;stroke-dasharray:none" />
    <path
       d="M 749.6478726584016,25.609401076758502 L 767.4013934359828,56.359401076758516 L 776.2781538247732,40.9844010767585 L 767.4013934359826,25.609401076758502 L 749.6478726584016,25.609401076758502 Z"
       id="path159"
       style="vector-effect:non-scaling-stroke;-inkscape-stroke:hairline;stroke-width:0.26458333;stroke-dasharray:none" />
    <path
       d="M 781.1549142135636,80.18119784648299 L 798.9084349911446,49.431197846483 L 781.1549142135636,49.43119784648299 L 772.2781538247732,64.806197846483 L 781.1549142135636,80.18119784648299 Z"
       id="path160"
       style="vector-effect:non-scaling-stroke;-inkscape-stroke:hairline;stroke-width:0.26458333;stroke-dasharray:none" />
    <path
       d="M 779.6911314675039,30.00225821961567 L 777.1549142135636,25.609401076758502 L 812.6619557687256,25.609401076758502 L 810.1257385147856,30.00225821961564 L 779.6911314675039,30.00225821961567 Z"
       id="path161"
       style="vector-effect:non-scaling-stroke;-inkscape-stroke:hairline;stroke-width:0.26458333;stroke-dasharray:none" />
    <path
       d="M 806.744115509532,35.8594010767585 L 803.7851953799352,40.9844010767585 L 786.0316746023542,40.9844010767585 L 783.0727544727573,35.8594010767585 L 806.744115509532,35.8594010767585 Z"
       id="path162"
       style="vector-effect:non-scaling-stroke;-inkscape-stroke:hairline;stroke-width:0.26458333;stroke-dasharray:none" />
    <path
       d="M 741.6478726584016,25.609401076758502 L 706.1408311032397,25.609401076758502 L 715.0175914920302,40.9844010767585 L 732.7711122696112,40.9844010767585 L 741.6478726584016,25.609401076758502 Z"
       id="path163"
       style="vector-effect:non-scaling-stroke;-inkscape-stroke:hairline;stroke-width:0.26458333;stroke-dasharray:none" />
    <path
       d="M 678.6337895480777,25.609401076758502 L 696.3873103256587,56.359401076758516 L 705.2640707144492,40.9844010767585 L 696.3873103256587,25.609401076758502 L 678.6337895480777,25.609401076758502 Z"
       id="path164"
       style="vector-effect:non-scaling-stroke;-inkscape-stroke:hairline;stroke-width:0.26458333;stroke-dasharray:none" />
    <path
       d="M 722.8219173729404,49.43119784648299 L 727.8943518808208,49.43119784648299 L 710.1408311032397,80.18119784648299 L 707.6046138492995,75.78834070362585 L 722.8219173729404,49.43119784648299 Z"
       id="path165"
       style="vector-effect:non-scaling-stroke;-inkscape-stroke:hairline;stroke-width:0.26458333;stroke-dasharray:none" />
    <path
       d="M 704.2229908440461,69.931197846483 L 701.2640707144492,64.806197846483 L 710.1408311032397,49.43119784648299 L 716.0586713624334,49.43119784648299 L 704.2229908440461,69.931197846483 Z"
       id="path166"
       style="vector-effect:non-scaling-stroke;-inkscape-stroke:hairline;stroke-width:0.26458333;stroke-dasharray:none" />
    <path
       d="M 749.6478726584018,143.99059892324152 L 785.1549142135636,143.99059892324152 L 776.2781538247732,128.61559892324152 L 758.5246330471922,128.61559892324152 L 749.6478726584018,143.99059892324152 Z"
       id="path167"
       style="vector-effect:non-scaling-stroke;-inkscape-stroke:hairline;stroke-width:0.26458333;stroke-dasharray:none" />
    <path
       d="M 812.6619557687256,143.99059892324152 L 794.9084349911448,113.2405989232415 L 786.0316746023542,128.61559892324152 L 794.9084349911446,143.99059892324152 L 812.6619557687256,143.99059892324152 Z"
       id="path168"
       style="vector-effect:non-scaling-stroke;-inkscape-stroke:hairline;stroke-width:0.26458333;stroke-dasharray:none" />
    <path
       d="M 768.473827943863,120.16880215351702 L 763.4013934359828,120.16880215351702 L 781.1549142135636,89.41880215351702 L 783.6911314675039,93.81165929637417 L 768.473827943863,120.16880215351702 Z"
       id="path169"
       style="vector-effect:non-scaling-stroke;-inkscape-stroke:hairline;stroke-width:0.26458333;stroke-dasharray:none" />
    <path
       d="M 787.0727544727573,99.66880215351702 L 790.0316746023542,104.793802153517 L 781.1549142135636,120.16880215351702 L 775.2370739543701,120.16880215351702 L 787.0727544727573,99.66880215351702 Z"
       id="path170"
       style="vector-effect:non-scaling-stroke;-inkscape-stroke:hairline;stroke-width:0.26458333;stroke-dasharray:none" />
    <path
       d="M 741.6478726584016,143.9905989232415 L 723.8943518808208,113.2405989232415 L 715.0175914920302,128.61559892324152 L 723.8943518808208,143.9905989232415 L 741.6478726584016,143.9905989232415 Z"
       id="path171"
       style="vector-effect:non-scaling-stroke;-inkscape-stroke:hairline;stroke-width:0.26458333;stroke-dasharray:none" />
    <path
       d="M 710.1408311032396,89.41880215351702 L 692.3873103256587,120.16880215351702 L 710.1408311032397,120.16880215351702 L 719.0175914920302,104.79380215351702 L 710.1408311032396,89.41880215351702 Z"
       id="path172"
       style="vector-effect:non-scaling-stroke;-inkscape-stroke:hairline;stroke-width:0.26458333;stroke-dasharray:none" />
    <path
       d="M 711.6046138492995,139.59774178038435 L 714.1408311032397,143.9905989232415 L 678.6337895480777,143.99059892324152 L 681.1700068020178,139.59774178038438 L 711.6046138492995,139.59774178038435 Z"
       id="path173"
       style="vector-effect:non-scaling-stroke;-inkscape-stroke:hairline;stroke-width:0.26458333;stroke-dasharray:none" />
    <path
       d="M 684.5516298072714,133.74059892324152 L 687.5105499368682,128.61559892324152 L 705.2640707144492,128.61559892324152 L 708.2229908440461,133.74059892324152 L 684.5516298072714,133.74059892324152 Z"
       id="path174"
       style="vector-effect:non-scaling-stroke;-inkscape-stroke:hairline;stroke-width:0.26458333;stroke-dasharray:none" />
    <path
       d="M 745.6478726584018,141.68119784648297 L 763.4013934359828,110.93119784648299 L 745.6478726584016,110.93119784648299 L 736.7711122696112,126.306197846483 L 745.6478726584018,141.68119784648297 Z"
       id="path175"
       style="vector-effect:non-scaling-stroke;-inkscape-stroke:hairline;stroke-width:0.26458333;stroke-dasharray:none" />
    <path
       d="M 777.1549142135636,87.10940107675849 L 741.6478726584016,87.10940107675849 L 750.5246330471922,102.4844010767585 L 768.2781538247732,102.48440107675849 L 777.1549142135636,87.10940107675849 Z"
       id="path176"
       style="vector-effect:non-scaling-stroke;-inkscape-stroke:hairline;stroke-width:0.26458333;stroke-dasharray:none" />
    <path
       d="M 734.4305691347608,113.46654393390136 L 731.8943518808208,117.8594010767585 L 714.1408311032397,87.10940107675852 L 719.21326561112,87.10940107675852 L 734.4305691347608,113.46654393390136 Z"
       id="path177"
       style="vector-effect:non-scaling-stroke;-inkscape-stroke:hairline;stroke-width:0.26458333;stroke-dasharray:none" />
    <path
       d="M 725.976511621627,87.10940107675852 L 731.8943518808208,87.10940107675852 L 740.7711122696112,102.4844010767585 L 737.8121921400143,107.6094010767585 L 725.976511621627,87.10940107675852 Z"
       id="path178"
       style="vector-effect:non-scaling-stroke;-inkscape-stroke:hairline;stroke-width:0.26458333;stroke-dasharray:none" />
    <path
       d="M 852.1689973238877,89.418802153517 L 834.4154765463066,120.168802153517 L 852.1689973238877,120.16880215351699 L 861.0457577126781,104.79380215351699 L 852.1689973238877,89.418802153517 Z"
       id="path179"
       style="vector-effect:non-scaling-stroke;-inkscape-stroke:hairline;stroke-width:0.26458333;stroke-dasharray:none" />
    <path
       d="M 820.6619557687256,143.9905989232415 L 856.1689973238877,143.9905989232415 L 847.2922369350972,128.6155989232415 L 829.5387161575162,128.6155989232415 L 820.6619557687256,143.9905989232415 Z"
       id="path180"
       style="vector-effect:non-scaling-stroke;-inkscape-stroke:hairline;stroke-width:0.26458333;stroke-dasharray:none" />
    <path
       d="M 863.3863008475284,117.63345606609863 L 865.9225181014687,113.24059892324149 L 883.6760388790497,143.99059892324146 L 878.6036043711694,143.99059892324146 L 863.3863008475284,117.63345606609863 Z"
       id="path181"
       style="vector-effect:non-scaling-stroke;-inkscape-stroke:hairline;stroke-width:0.26458333;stroke-dasharray:none" />
    <path
       d="M 871.8403583606623,143.9905989232415 L 865.9225181014687,143.9905989232415 L 857.0457577126781,128.6155989232415 L 860.004677842275,123.49059892324149 L 871.8403583606623,143.9905989232415 Z"
       id="path182"
       style="vector-effect:non-scaling-stroke;-inkscape-stroke:hairline;stroke-width:0.26458333;stroke-dasharray:none" />
    <path
       d="M 856.1689973238877,87.10940107675852 L 873.9225181014687,117.8594010767585 L 882.7992784902591,102.4844010767585 L 873.9225181014687,87.1094010767585 L 856.1689973238877,87.10940107675852 Z"
       id="path183"
       style="vector-effect:non-scaling-stroke;-inkscape-stroke:hairline;stroke-width:0.26458333;stroke-dasharray:none" />
    <path
       d="M 887.6760388790497,141.681197846483 L 878.7992784902591,126.306197846483 L 887.6760388790497,110.931197846483 L 890.0,110.931197846483 L 890.0,137.65597911018227 L 887.6760388790497,141.681197846483 Z"
       id="path184"
       style="vector-effect:non-scaling-stroke;-inkscape-stroke:hairline;stroke-width:0.26458333;stroke-dasharray:none" />
    <path
       d="M 883.6760388790497,87.1094010767585 L 890.0,87.1094010767585 L 890.0,91.50225821961564 L 886.2122561329898,91.50225821961564 L 883.6760388790497,87.1094010767585 Z"
       id="path185"
       style="vector-effect:non-scaling-stroke;-inkscape-stroke:hairline;stroke-width:0.26458333;stroke-dasharray:none" />
    <path
       d="M 848.1689973238877,87.10940107675849 L 812.6619557687256,87.1094010767585 L 821.5387161575162,102.4844010767585 L 839.2922369350972,102.48440107675849 L 848.1689973238877,87.10940107675849 Z"
       id="path186"
       style="vector-effect:non-scaling-stroke;-inkscape-stroke:hairline;stroke-width:0.26458333;stroke-dasharray:none" />
    <path
       d="M 785.1549142135636,87.10940107675852 L 802.9084349911446,117.8594010767585 L 811.7851953799352,102.4844010767585 L 802.9084349911446,87.1094010767585 L 785.1549142135636,87.10940107675852 Z"
       id="path187"
       style="vector-effect:non-scaling-stroke;-inkscape-stroke:hairline;stroke-width:0.26458333;stroke-dasharray:none" />
    <path
       d="M 829.3430420384263,110.93119784648299 L 834.4154765463066,110.93119784648299 L 816.6619557687256,141.681197846483 L 814.1257385147856,137.28834070362586 L 829.3430420384263,110.93119784648299 Z"
       id="path188"
       style="vector-effect:non-scaling-stroke;-inkscape-stroke:hairline;stroke-width:0.26458333;stroke-dasharray:none" />
    <path
       d="M 810.744115509532,131.431197846483 L 807.7851953799352,126.306197846483 L 816.6619557687256,110.931197846483 L 822.5797960279193,110.931197846483 L 810.744115509532,131.431197846483 Z"
       id="path189"
       style="vector-effect:non-scaling-stroke;-inkscape-stroke:hairline;stroke-width:0.26458333;stroke-dasharray:none" />
    <path
       d="M 856.1689973238877,82.4905989232415 L 865.0457577126781,67.11559892324152 L 882.7992784902591,67.11559892324152 L 890.0,79.58761442926675 L 890.0,82.49059892324152 L 856.1689973238877,82.4905989232415 Z"
       id="path190"
       style="vector-effect:non-scaling-stroke;-inkscape-stroke:hairline;stroke-width:0.26458333;stroke-dasharray:none" />
    <path
       d="M 869.9225181014687,58.66880215351702 L 887.6760388790497,27.91880215351702 L 890.0,31.944020889817807 L 890.0,32.67929770293051 L 874.994952609349,58.66880215351702 L 869.9225181014687,58.66880215351702 Z"
       id="path191"
       style="vector-effect:non-scaling-stroke;-inkscape-stroke:hairline;stroke-width:0.26458333;stroke-dasharray:none" />
    <path
       d="M 887.6760388790497,58.66880215351702 L 881.758198619856,58.66880215351702 L 890.0,44.393583417216306 L 890.0,54.64358341721628 L 887.6760388790497,58.66880215351702 Z"
       id="path192"
       style="vector-effect:non-scaling-stroke;-inkscape-stroke:hairline;stroke-width:0.26458333;stroke-dasharray:none" />
    <path
       d="M 848.1689973238877,82.49059892324149 L 830.4154765463066,51.74059892324151 L 821.5387161575162,67.1155989232415 L 830.4154765463066,82.49059892324149 L 848.1689973238877,82.49059892324149 Z"
       id="path193"
       style="vector-effect:non-scaling-stroke;-inkscape-stroke:hairline;stroke-width:0.26458333;stroke-dasharray:none" />
    <path
       d="M 816.6619557687256,27.91880215351702 L 798.9084349911446,58.66880215351702 L 816.6619557687256,58.66880215351702 L 825.5387161575161,43.29380215351702 L 816.6619557687256,27.91880215351702 Z"
       id="path194"
       style="vector-effect:non-scaling-stroke;-inkscape-stroke:hairline;stroke-width:0.26458333;stroke-dasharray:none" />
    <path
       d="M 818.1257385147856,78.09774178038435 L 820.6619557687256,82.49059892324149 L 785.1549142135636,82.49059892324152 L 787.6911314675039,78.09774178038438 L 818.1257385147856,78.09774178038435 Z"
       id="path195"
       style="vector-effect:non-scaling-stroke;-inkscape-stroke:hairline;stroke-width:0.26458333;stroke-dasharray:none" />
    <path
       d="M 791.0727544727573,72.24059892324152 L 794.0316746023542,67.11559892324152 L 811.7851953799352,67.11559892324152 L 814.744115509532,72.2405989232415 L 791.0727544727573,72.24059892324152 Z"
       id="path196"
       style="vector-effect:non-scaling-stroke;-inkscape-stroke:hairline;stroke-width:0.26458333;stroke-dasharray:none" />
    <path
       d="M 852.1689973238877,80.18119784648299 L 869.9225181014687,49.43119784648299 L 852.1689973238877,49.43119784648299 L 843.2922369350972,64.806197846483 L 852.1689973238877,80.18119784648299 Z"
       id="path197"
       style="vector-effect:non-scaling-stroke;-inkscape-stroke:hairline;stroke-width:0.26458333;stroke-dasharray:none" />
    <path
       d="M 883.6760388790497,25.609401076758502 L 848.1689973238877,25.609401076758502 L 857.0457577126781,40.9844010767585 L 874.7992784902591,40.9844010767585 L 883.6760388790497,25.609401076758502 Z"
       id="path198"
       style="vector-effect:non-scaling-stroke;-inkscape-stroke:hairline;stroke-width:0.26458333;stroke-dasharray:none" />
    <path
       d="M 840.9516938002469,51.96654393390136 L 838.4154765463066,56.3594010767585 L 820.6619557687256,25.609401076758502 L 825.734390276606,25.609401076758502 L 840.9516938002469,51.96654393390136 Z"
       id="path199"
       style="vector-effect:non-scaling-stroke;-inkscape-stroke:hairline;stroke-width:0.26458333;stroke-dasharray:none" />
    <path
       d="M 832.497636287113,25.609401076758502 L 838.4154765463066,25.609401076758502 L 847.2922369350972,40.9844010767585 L 844.3333168055003,46.1094010767585 L 832.497636287113,25.609401076758502 Z"
       id="path200"
       style="vector-effect:non-scaling-stroke;-inkscape-stroke:hairline;stroke-width:0.26458333;stroke-dasharray:none" />
    <path
       d="M 0.0,170.0 L 905.0,170.0 L 905.0,0.0 L 0.0,0.0 L 0.0,170.0 Z"
       id="path201"
       style="vector-effect:non-scaling-stroke;-inkscape-stroke:hairline;stroke-width:0.26458333;stroke-dasharray:none" />
  </g>
</svg>
