  0
SECTION
  2
HEADER
  9
$ACADVER
  1
AC1014
  9
$HANDSEED
  5
FFFF
  9
$INSUNITS
 70
     4
  9
$MEASUREMENT
 70
     1
  0
ENDSEC
  0
SECTION
  2
TABLES
  0
TABLE
  2
VPORT
  5
8
330
0
100
AcDbSymbolTable
 70
     4
  0
VPORT
  5
2E
330
8
100
AcDbSymbolTableRecord
100
AcDbViewportTableRecord
  2
*ACTIVE
 70
     0
 10
0.0
 20
0.0
 11
1.0
 21
1.0
 12
210.0
 22
148.5
 13
0.0
 23
0.0
 14
10.0
 24
10.0
 15
10.0
 25
10.0
 16
0.0
 26
0.0
 36
1.0
 17
0.0
 27
0.0
 37
0.0
 40
341.0
 41
1.24
 42
50.0
 43
0.0
 44
0.0
 50
0.0
 51
0.0
 71
     0
 72
   100
 73
     1
 74
     3
 75
     0
 76
     0
 77
     0
 78
     0
  0
ENDTAB
  0
TABLE
  2
LTYPE
  5
5
330
0
100
AcDbSymbolTable
 70
     1
  0
LTYPE
  5
14
330
5
100
AcDbSymbolTableRecord
100
AcDbLinetypeTableRecord
  2
BYBLOCK
 70
     0
  3

 72
    65
 73
     0
 40
0.0
  0
LTYPE
  5
15
330
5
100
AcDbSymbolTableRecord
100
AcDbLinetypeTableRecord
  2
BYLAYER
 70
     0
  3

 72
    65
 73
     0
 40
0.0
  0
LTYPE
  5
16
330
5
100
AcDbSymbolTableRecord
100
AcDbLinetypeTableRecord
  2
CONTINUOUS
 70
     0
  3
Solid line
 72
    65
 73
     0
 40
0.0
  0
ENDTAB
  0
TABLE
  2
LAYER
  5
2
100
AcDbSymbolTable
 70
1
  0
LAYER
  5
50
100
AcDbSymbolTableRecord
100
AcDbLayerTableRecord
  2
0
 70
0
  6
CONTINUOUS
  0
ENDTAB
  0
TABLE
  2
STYLE
  5
3
330
0
100
AcDbSymbolTable
 70
     1
  0
STYLE
  5
11
330
3
100
AcDbSymbolTableRecord
100
AcDbTextStyleTableRecord
  2
STANDARD
 70
     0
 40
0.0
 41
1.0
 50
0.0
 71
     0
 42
2.5
  3
txt
  4

  0
ENDTAB
  0
TABLE
  2
VIEW
  5
6
330
0
100
AcDbSymbolTable
 70
     0
  0
ENDTAB
  0
TABLE
  2
UCS
  5
7
330
0
100
AcDbSymbolTable
 70
     0
  0
ENDTAB
  0
TABLE
  2
APPID
  5
9
330
0
100
AcDbSymbolTable
 70
     2
  0
APPID
  5
12
330
9
100
AcDbSymbolTableRecord
100
AcDbRegAppTableRecord
  2
ACAD
 70
     0
  0
ENDTAB
  0
TABLE
  2
DIMSTYLE
  5
A
330
0
100
AcDbSymbolTable
 70
     1
  0
DIMSTYLE
105
27
330
A
100
AcDbSymbolTableRecord
100
AcDbDimStyleTableRecord
  2
ISO-25
 70
     0
  3

  4

  5

  6

  7

 40
1.0
 41
2.5
 42
0.625
 43
3.75
 44
1.25
 45
0.0
 46
0.0
 47
0.0
 48
0.0
140
2.5
141
2.5
142
0.0
143
0.03937007874016
144
1.0
145
0.0
146
1.0
147
0.625
 71
     0
 72
     0
 73
     0
 74
     0
 75
     0
 76
     0
 77
     1
 78
     8
170
     0
171
     3
172
     1
173
     0
174
     0
175
     0
176
     0
177
     0
178
     0
270
     2
271
     2
272
     2
273
     2
274
     3
340
11
275
     0
280
     0
281
     0
282
     0
283
     0
284
     8
285
     0
286
     0
287
     3
288
     0
  0
ENDTAB
  0
TABLE
  2
BLOCK_RECORD
  5
1
330
0
100
AcDbSymbolTable
 70
     1
  0
BLOCK_RECORD
  5
1F
330
1
100
AcDbSymbolTableRecord
100
AcDbBlockTableRecord
  2
*MODEL_SPACE
  0
BLOCK_RECORD
  5
1B
330
1
100
AcDbSymbolTableRecord
100
AcDbBlockTableRecord
  2
*PAPER_SPACE
  0
ENDTAB
  0
ENDSEC
  0
SECTION
  2
BLOCKS
  0
BLOCK
  5
20
330
1F
100
AcDbEntity
  8
0
100
AcDbBlockBegin
  2
*MODEL_SPACE
 70
     0
 10
0.0
 20
0.0
 30
0.0
  3
*MODEL_SPACE
  1

  0
ENDBLK
  5
21
330
1F
100
AcDbEntity
  8
0
100
AcDbBlockEnd
  0
BLOCK
  5
1C
330
1B
100
AcDbEntity
 67
     1
  8
0
100
AcDbBlockBegin
  2
*PAPER_SPACE
  1

  0
ENDBLK
  5
1D
330
1B
100
AcDbEntity
 67
     1
  8
0
100
AcDbBlockEnd
  0
ENDSEC
  0
SECTION
  2
ENTITIES
  0
LWPOLYLINE
  5
100
100
AcDbEntity
  8
0
 62
7
100
AcDbPolyline
 90
5
 70
1
 10
179.007042
 20
91.009401
 30
0.0
 10
173.934607
 20
91.009401
 30
0.0
 10
163.500000
 20
109.082671
 30
0.0
 10
163.500000
 20
117.868385
 30
0.0
 10
179.007042
 20
91.009401
 30
0.0
  0
LWPOLYLINE
  5
101
100
AcDbEntity
  8
0
 62
7
100
AcDbPolyline
 90
6
 70
1
 10
169.253521
 20
147.890599
 30
0.0
 10
178.130281
 20
132.515599
 30
0.0
 10
169.253521
 20
117.140599
 30
0.0
 10
163.500000
 20
127.105989
 30
0.0
 10
163.500000
 20
147.890599
 30
0.0
 10
169.253521
 20
147.890599
 30
0.0
  0
LWPOLYLINE
  5
102
100
AcDbEntity
  8
0
 62
7
100
AcDbPolyline
 90
5
 70
1
 10
183.007042
 20
93.318802
 30
0.0
 10
200.760562
 20
124.068802
 30
0.0
 10
183.007042
 20
124.068802
 30
0.0
 10
174.130281
 20
108.693802
 30
0.0
 10
183.007042
 20
93.318802
 30
0.0
  0
LWPOLYLINE
  5
103
100
AcDbEntity
  8
0
 62
7
100
AcDbPolyline
 90
5
 70
1
 10
181.543259
 20
143.497742
 30
0.0
 10
179.007042
 20
147.890599
 30
0.0
 10
214.514083
 20
147.890599
 30
0.0
 10
211.977866
 20
143.497742
 30
0.0
 10
181.543259
 20
143.497742
 30
0.0
  0
LWPOLYLINE
  5
104
100
AcDbEntity
  8
0
 62
7
100
AcDbPolyline
 90
5
 70
1
 10
208.596243
 20
137.640599
 30
0.0
 10
205.637323
 20
132.515599
 30
0.0
 10
187.883802
 20
132.515599
 30
0.0
 10
184.924882
 20
137.640599
 30
0.0
 10
208.596243
 20
137.640599
 30
0.0
  0
LWPOLYLINE
  5
105
100
AcDbEntity
  8
0
 62
7
100
AcDbPolyline
 90
5
 70
1
 10
178.130281
 20
167.884401
 30
0.0
 10
187.007042
 20
152.509401
 30
0.0
 10
163.500000
 20
152.509401
 30
0.0
 10
163.500000
 20
167.884401
 30
0.0
 10
178.130281
 20
167.884401
 30
0.0
  0
LWPOLYLINE
  5
106
100
AcDbEntity
  8
0
 62
7
100
AcDbPolyline
 90
5
 70
1
 10
214.514083
 20
152.509401
 30
0.0
 10
196.760562
 20
183.259401
 30
0.0
 10
187.883802
 20
167.884401
 30
0.0
 10
196.760562
 20
152.509401
 30
0.0
 10
214.514083
 20
152.509401
 30
0.0
  0
LWPOLYLINE
  5
107
100
AcDbEntity
  8
0
 62
7
100
AcDbPolyline
 90
5
 70
1
 10
170.325955
 20
176.331198
 30
0.0
 10
165.253521
 20
176.331198
 30
0.0
 10
183.007042
 20
207.081198
 30
0.0
 10
185.543259
 20
202.688341
 30
0.0
 10
170.325955
 20
176.331198
 30
0.0
  0
LWPOLYLINE
  5
108
100
AcDbEntity
  8
0
 62
7
100
AcDbPolyline
 90
5
 70
1
 10
188.924882
 20
196.831198
 30
0.0
 10
191.883802
 20
191.706198
 30
0.0
 10
183.007042
 20
176.331198
 30
0.0
 10
177.089201
 20
176.331198
 30
0.0
 10
188.924882
 20
196.831198
 30
0.0
  0
LWPOLYLINE
  5
109
100
AcDbEntity
  8
0
 62
7
100
AcDbPolyline
 90
5
 70
1
 10
179.007042
 20
209.390599
 30
0.0
 10
170.130281
 20
194.015599
 30
0.0
 10
163.500000
 20
194.015599
 30
0.0
 10
163.500000
 20
209.390599
 30
0.0
 10
179.007042
 20
209.390599
 30
0.0
  0
LWPOLYLINE
  5
10a
100
AcDbEntity
  8
0
 62
7
100
AcDbPolyline
 90
5
 70
1
 10
254.021125
 20
207.081198
 30
0.0
 10
236.267604
 20
176.331198
 30
0.0
 10
254.021125
 20
176.331198
 30
0.0
 10
262.897885
 20
191.706198
 30
0.0
 10
254.021125
 20
207.081198
 30
0.0
  0
LWPOLYLINE
  5
10b
100
AcDbEntity
  8
0
 62
7
100
AcDbPolyline
 90
5
 70
1
 10
222.514083
 20
152.509401
 30
0.0
 10
258.021125
 20
152.509401
 30
0.0
 10
249.144364
 20
167.884401
 30
0.0
 10
231.390843
 20
167.884401
 30
0.0
 10
222.514083
 20
152.509401
 30
0.0
  0
LWPOLYLINE
  5
10c
100
AcDbEntity
  8
0
 62
7
100
AcDbPolyline
 90
5
 70
1
 10
265.238428
 20
178.866544
 30
0.0
 10
267.774645
 20
183.259401
 30
0.0
 10
285.528166
 20
152.509401
 30
0.0
 10
280.455732
 20
152.509401
 30
0.0
 10
265.238428
 20
178.866544
 30
0.0
  0
LWPOLYLINE
  5
10d
100
AcDbEntity
  8
0
 62
7
100
AcDbPolyline
 90
5
 70
1
 10
273.692486
 20
152.509401
 30
0.0
 10
267.774645
 20
152.509401
 30
0.0
 10
258.897885
 20
167.884401
 30
0.0
 10
261.856805
 20
173.009401
 30
0.0
 10
273.692486
 20
152.509401
 30
0.0
  0
LWPOLYLINE
  5
10e
100
AcDbEntity
  8
0
 62
7
100
AcDbPolyline
 90
5
 70
1
 10
258.021125
 20
209.390599
 30
0.0
 10
275.774645
 20
178.640599
 30
0.0
 10
284.651406
 20
194.015599
 30
0.0
 10
275.774645
 20
209.390599
 30
0.0
 10
258.021125
 20
209.390599
 30
0.0
  0
LWPOLYLINE
  5
10f
100
AcDbEntity
  8
0
 62
7
100
AcDbPolyline
 90
5
 70
1
 10
289.528166
 20
154.818802
 30
0.0
 10
307.281687
 20
185.568802
 30
0.0
 10
289.528166
 20
185.568802
 30
0.0
 10
280.651406
 20
170.193802
 30
0.0
 10
289.528166
 20
154.818802
 30
0.0
  0
LWPOLYLINE
  5
110
100
AcDbEntity
  8
0
 62
7
100
AcDbPolyline
 90
5
 70
1
 10
288.064383
 20
204.997742
 30
0.0
 10
285.528166
 20
209.390599
 30
0.0
 10
321.035208
 20
209.390599
 30
0.0
 10
318.498991
 20
204.997742
 30
0.0
 10
288.064383
 20
204.997742
 30
0.0
  0
LWPOLYLINE
  5
111
100
AcDbEntity
  8
0
 62
7
100
AcDbPolyline
 90
5
 70
1
 10
315.117368
 20
199.140599
 30
0.0
 10
312.158447
 20
194.015599
 30
0.0
 10
294.404927
 20
194.015599
 30
0.0
 10
291.446006
 20
199.140599
 30
0.0
 10
315.117368
 20
199.140599
 30
0.0
  0
LWPOLYLINE
  5
112
100
AcDbEntity
  8
0
 62
7
100
AcDbPolyline
 90
5
 70
1
 10
250.021125
 20
209.390599
 30
0.0
 10
214.514083
 20
209.390599
 30
0.0
 10
223.390843
 20
194.015599
 30
0.0
 10
241.144364
 20
194.015599
 30
0.0
 10
250.021125
 20
209.390599
 30
0.0
  0
LWPOLYLINE
  5
113
100
AcDbEntity
  8
0
 62
7
100
AcDbPolyline
 90
5
 70
1
 10
187.007042
 20
209.390599
 30
0.0
 10
204.760562
 20
178.640599
 30
0.0
 10
213.637323
 20
194.015599
 30
0.0
 10
204.760562
 20
209.390599
 30
0.0
 10
187.007042
 20
209.390599
 30
0.0
  0
LWPOLYLINE
  5
114
100
AcDbEntity
  8
0
 62
7
100
AcDbPolyline
 90
5
 70
1
 10
231.195169
 20
185.568802
 30
0.0
 10
236.267604
 20
185.568802
 30
0.0
 10
218.514083
 20
154.818802
 30
0.0
 10
215.977866
 20
159.211659
 30
0.0
 10
231.195169
 20
185.568802
 30
0.0
  0
LWPOLYLINE
  5
115
100
AcDbEntity
  8
0
 62
7
100
AcDbPolyline
 90
5
 70
1
 10
212.596243
 20
165.068802
 30
0.0
 10
209.637323
 20
170.193802
 30
0.0
 10
218.514083
 20
185.568802
 30
0.0
 10
224.431923
 20
185.568802
 30
0.0
 10
212.596243
 20
165.068802
 30
0.0
  0
LWPOLYLINE
  5
116
100
AcDbEntity
  8
0
 62
7
100
AcDbPolyline
 90
5
 70
1
 10
258.021125
 20
91.009401
 30
0.0
 10
293.528166
 20
91.009401
 30
0.0
 10
284.651406
 20
106.384401
 30
0.0
 10
266.897885
 20
106.384401
 30
0.0
 10
258.021125
 20
91.009401
 30
0.0
  0
LWPOLYLINE
  5
117
100
AcDbEntity
  8
0
 62
7
100
AcDbPolyline
 90
5
 70
1
 10
321.035208
 20
91.009401
 30
0.0
 10
303.281687
 20
121.759401
 30
0.0
 10
294.404927
 20
106.384401
 30
0.0
 10
303.281687
 20
91.009401
 30
0.0
 10
321.035208
 20
91.009401
 30
0.0
  0
LWPOLYLINE
  5
118
100
AcDbEntity
  8
0
 62
7
100
AcDbPolyline
 90
5
 70
1
 10
276.847080
 20
114.831198
 30
0.0
 10
271.774645
 20
114.831198
 30
0.0
 10
289.528166
 20
145.581198
 30
0.0
 10
292.064383
 20
141.188341
 30
0.0
 10
276.847080
 20
114.831198
 30
0.0
  0
LWPOLYLINE
  5
119
100
AcDbEntity
  8
0
 62
7
100
AcDbPolyline
 90
5
 70
1
 10
295.446006
 20
135.331198
 30
0.0
 10
298.404927
 20
130.206198
 30
0.0
 10
289.528166
 20
114.831198
 30
0.0
 10
283.610326
 20
114.831198
 30
0.0
 10
295.446006
 20
135.331198
 30
0.0
  0
LWPOLYLINE
  5
11a
100
AcDbEntity
  8
0
 62
7
100
AcDbPolyline
 90
5
 70
1
 10
250.021125
 20
91.009401
 30
0.0
 10
232.267604
 20
121.759401
 30
0.0
 10
223.390843
 20
106.384401
 30
0.0
 10
232.267604
 20
91.009401
 30
0.0
 10
250.021125
 20
91.009401
 30
0.0
  0
LWPOLYLINE
  5
11b
100
AcDbEntity
  8
0
 62
7
100
AcDbPolyline
 90
5
 70
1
 10
218.514083
 20
145.581198
 30
0.0
 10
200.760562
 20
114.831198
 30
0.0
 10
218.514083
 20
114.831198
 30
0.0
 10
227.390843
 20
130.206198
 30
0.0
 10
218.514083
 20
145.581198
 30
0.0
  0
LWPOLYLINE
  5
11c
100
AcDbEntity
  8
0
 62
7
100
AcDbPolyline
 90
5
 70
1
 10
219.977866
 20
95.402258
 30
0.0
 10
222.514083
 20
91.009401
 30
0.0
 10
187.007042
 20
91.009401
 30
0.0
 10
189.543259
 20
95.402258
 30
0.0
 10
219.977866
 20
95.402258
 30
0.0
  0
LWPOLYLINE
  5
11d
100
AcDbEntity
  8
0
 62
7
100
AcDbPolyline
 90
5
 70
1
 10
192.924882
 20
101.259401
 30
0.0
 10
195.883802
 20
106.384401
 30
0.0
 10
213.637323
 20
106.384401
 30
0.0
 10
216.596243
 20
101.259401
 30
0.0
 10
192.924882
 20
101.259401
 30
0.0
  0
LWPOLYLINE
  5
11e
100
AcDbEntity
  8
0
 62
7
100
AcDbPolyline
 90
5
 70
1
 10
254.021125
 20
93.318802
 30
0.0
 10
271.774645
 20
124.068802
 30
0.0
 10
254.021125
 20
124.068802
 30
0.0
 10
245.144364
 20
108.693802
 30
0.0
 10
254.021125
 20
93.318802
 30
0.0
  0
LWPOLYLINE
  5
11f
100
AcDbEntity
  8
0
 62
7
100
AcDbPolyline
 90
5
 70
1
 10
285.528166
 20
147.890599
 30
0.0
 10
250.021125
 20
147.890599
 30
0.0
 10
258.897885
 20
132.515599
 30
0.0
 10
276.651406
 20
132.515599
 30
0.0
 10
285.528166
 20
147.890599
 30
0.0
  0
LWPOLYLINE
  5
120
100
AcDbEntity
  8
0
 62
7
100
AcDbPolyline
 90
5
 70
1
 10
242.803821
 20
121.533456
 30
0.0
 10
240.267604
 20
117.140599
 30
0.0
 10
222.514083
 20
147.890599
 30
0.0
 10
227.586518
 20
147.890599
 30
0.0
 10
242.803821
 20
121.533456
 30
0.0
  0
LWPOLYLINE
  5
121
100
AcDbEntity
  8
0
 62
7
100
AcDbPolyline
 90
5
 70
1
 10
234.349764
 20
147.890599
 30
0.0
 10
240.267604
 20
147.890599
 30
0.0
 10
249.144364
 20
132.515599
 30
0.0
 10
246.185444
 20
127.390599
 30
0.0
 10
234.349764
 20
147.890599
 30
0.0
  0
LWPOLYLINE
  5
122
100
AcDbEntity
  8
0
 62
7
100
AcDbPolyline
 90
5
 70
1
 10
360.542249
 20
145.581198
 30
0.0
 10
342.788729
 20
114.831198
 30
0.0
 10
360.542249
 20
114.831198
 30
0.0
 10
369.419010
 20
130.206198
 30
0.0
 10
360.542249
 20
145.581198
 30
0.0
  0
LWPOLYLINE
  5
123
100
AcDbEntity
  8
0
 62
7
100
AcDbPolyline
 90
5
 70
1
 10
329.035208
 20
91.009401
 30
0.0
 10
364.542249
 20
91.009401
 30
0.0
 10
355.665489
 20
106.384401
 30
0.0
 10
337.911968
 20
106.384401
 30
0.0
 10
329.035208
 20
91.009401
 30
0.0
  0
LWPOLYLINE
  5
124
100
AcDbEntity
  8
0
 62
7
100
AcDbPolyline
 90
5
 70
1
 10
371.759553
 20
117.366544
 30
0.0
 10
374.295770
 20
121.759401
 30
0.0
 10
392.049291
 20
91.009401
 30
0.0
 10
386.976856
 20
91.009401
 30
0.0
 10
371.759553
 20
117.366544
 30
0.0
  0
LWPOLYLINE
  5
125
100
AcDbEntity
  8
0
 62
7
100
AcDbPolyline
 90
5
 70
1
 10
380.213610
 20
91.009401
 30
0.0
 10
374.295770
 20
91.009401
 30
0.0
 10
365.419010
 20
106.384401
 30
0.0
 10
368.377930
 20
111.509401
 30
0.0
 10
380.213610
 20
91.009401
 30
0.0
  0
LWPOLYLINE
  5
126
100
AcDbEntity
  8
0
 62
7
100
AcDbPolyline
 90
5
 70
1
 10
364.542249
 20
147.890599
 30
0.0
 10
382.295770
 20
117.140599
 30
0.0
 10
391.172530
 20
132.515599
 30
0.0
 10
382.295770
 20
147.890599
 30
0.0
 10
364.542249
 20
147.890599
 30
0.0
  0
LWPOLYLINE
  5
127
100
AcDbEntity
  8
0
 62
7
100
AcDbPolyline
 90
5
 70
1
 10
396.049291
 20
93.318802
 30
0.0
 10
413.802812
 20
124.068802
 30
0.0
 10
396.049291
 20
124.068802
 30
0.0
 10
387.172530
 20
108.693802
 30
0.0
 10
396.049291
 20
93.318802
 30
0.0
  0
LWPOLYLINE
  5
128
100
AcDbEntity
  8
0
 62
7
100
AcDbPolyline
 90
5
 70
1
 10
394.585508
 20
143.497742
 30
0.0
 10
392.049291
 20
147.890599
 30
0.0
 10
427.556332
 20
147.890599
 30
0.0
 10
425.020115
 20
143.497742
 30
0.0
 10
394.585508
 20
143.497742
 30
0.0
  0
LWPOLYLINE
  5
129
100
AcDbEntity
  8
0
 62
7
100
AcDbPolyline
 90
5
 70
1
 10
421.638492
 20
137.640599
 30
0.0
 10
418.679572
 20
132.515599
 30
0.0
 10
400.926051
 20
132.515599
 30
0.0
 10
397.967131
 20
137.640599
 30
0.0
 10
421.638492
 20
137.640599
 30
0.0
  0
LWPOLYLINE
  5
12a
100
AcDbEntity
  8
0
 62
7
100
AcDbPolyline
 90
5
 70
1
 10
356.542249
 20
147.890599
 30
0.0
 10
321.035208
 20
147.890599
 30
0.0
 10
329.911968
 20
132.515599
 30
0.0
 10
347.665489
 20
132.515599
 30
0.0
 10
356.542249
 20
147.890599
 30
0.0
  0
LWPOLYLINE
  5
12b
100
AcDbEntity
  8
0
 62
7
100
AcDbPolyline
 90
5
 70
1
 10
293.528166
 20
147.890599
 30
0.0
 10
311.281687
 20
117.140599
 30
0.0
 10
320.158447
 20
132.515599
 30
0.0
 10
311.281687
 20
147.890599
 30
0.0
 10
293.528166
 20
147.890599
 30
0.0
  0
LWPOLYLINE
  5
12c
100
AcDbEntity
  8
0
 62
7
100
AcDbPolyline
 90
5
 70
1
 10
337.716294
 20
124.068802
 30
0.0
 10
342.788729
 20
124.068802
 30
0.0
 10
325.035208
 20
93.318802
 30
0.0
 10
322.498991
 20
97.711659
 30
0.0
 10
337.716294
 20
124.068802
 30
0.0
  0
LWPOLYLINE
  5
12d
100
AcDbEntity
  8
0
 62
7
100
AcDbPolyline
 90
5
 70
1
 10
319.117368
 20
103.568802
 30
0.0
 10
316.158447
 20
108.693802
 30
0.0
 10
325.035208
 20
124.068802
 30
0.0
 10
330.953048
 20
124.068802
 30
0.0
 10
319.117368
 20
103.568802
 30
0.0
  0
LWPOLYLINE
  5
12e
100
AcDbEntity
  8
0
 62
7
100
AcDbPolyline
 90
5
 70
1
 10
364.542249
 20
152.509401
 30
0.0
 10
400.049291
 20
152.509401
 30
0.0
 10
391.172530
 20
167.884401
 30
0.0
 10
373.419010
 20
167.884401
 30
0.0
 10
364.542249
 20
152.509401
 30
0.0
  0
LWPOLYLINE
  5
12f
100
AcDbEntity
  8
0
 62
7
100
AcDbPolyline
 90
5
 70
1
 10
427.556332
 20
152.509401
 30
0.0
 10
409.802812
 20
183.259401
 30
0.0
 10
400.926051
 20
167.884401
 30
0.0
 10
409.802812
 20
152.509401
 30
0.0
 10
427.556332
 20
152.509401
 30
0.0
  0
LWPOLYLINE
  5
130
100
AcDbEntity
  8
0
 62
7
100
AcDbPolyline
 90
5
 70
1
 10
383.368205
 20
176.331198
 30
0.0
 10
378.295770
 20
176.331198
 30
0.0
 10
396.049291
 20
207.081198
 30
0.0
 10
398.585508
 20
202.688341
 30
0.0
 10
383.368205
 20
176.331198
 30
0.0
  0
LWPOLYLINE
  5
131
100
AcDbEntity
  8
0
 62
7
100
AcDbPolyline
 90
5
 70
1
 10
401.967131
 20
196.831198
 30
0.0
 10
404.926051
 20
191.706198
 30
0.0
 10
396.049291
 20
176.331198
 30
0.0
 10
390.131451
 20
176.331198
 30
0.0
 10
401.967131
 20
196.831198
 30
0.0
  0
LWPOLYLINE
  5
132
100
AcDbEntity
  8
0
 62
7
100
AcDbPolyline
 90
5
 70
1
 10
356.542249
 20
152.509401
 30
0.0
 10
338.788729
 20
183.259401
 30
0.0
 10
329.911968
 20
167.884401
 30
0.0
 10
338.788729
 20
152.509401
 30
0.0
 10
356.542249
 20
152.509401
 30
0.0
  0
LWPOLYLINE
  5
133
100
AcDbEntity
  8
0
 62
7
100
AcDbPolyline
 90
5
 70
1
 10
325.035208
 20
207.081198
 30
0.0
 10
307.281687
 20
176.331198
 30
0.0
 10
325.035208
 20
176.331198
 30
0.0
 10
333.911968
 20
191.706198
 30
0.0
 10
325.035208
 20
207.081198
 30
0.0
  0
LWPOLYLINE
  5
134
100
AcDbEntity
  8
0
 62
7
100
AcDbPolyline
 90
5
 70
1
 10
326.498991
 20
156.902258
 30
0.0
 10
329.035208
 20
152.509401
 30
0.0
 10
293.528166
 20
152.509401
 30
0.0
 10
296.064383
 20
156.902258
 30
0.0
 10
326.498991
 20
156.902258
 30
0.0
  0
LWPOLYLINE
  5
135
100
AcDbEntity
  8
0
 62
7
100
AcDbPolyline
 90
5
 70
1
 10
299.446006
 20
162.759401
 30
0.0
 10
302.404927
 20
167.884401
 30
0.0
 10
320.158447
 20
167.884401
 30
0.0
 10
323.117368
 20
162.759401
 30
0.0
 10
299.446006
 20
162.759401
 30
0.0
  0
LWPOLYLINE
  5
136
100
AcDbEntity
  8
0
 62
7
100
AcDbPolyline
 90
5
 70
1
 10
360.542249
 20
154.818802
 30
0.0
 10
378.295770
 20
185.568802
 30
0.0
 10
360.542249
 20
185.568802
 30
0.0
 10
351.665489
 20
170.193802
 30
0.0
 10
360.542249
 20
154.818802
 30
0.0
  0
LWPOLYLINE
  5
137
100
AcDbEntity
  8
0
 62
7
100
AcDbPolyline
 90
5
 70
1
 10
392.049291
 20
209.390599
 30
0.0
 10
356.542249
 20
209.390599
 30
0.0
 10
365.419010
 20
194.015599
 30
0.0
 10
383.172530
 20
194.015599
 30
0.0
 10
392.049291
 20
209.390599
 30
0.0
  0
LWPOLYLINE
  5
138
100
AcDbEntity
  8
0
 62
7
100
AcDbPolyline
 90
5
 70
1
 10
349.324946
 20
183.033456
 30
0.0
 10
346.788729
 20
178.640599
 30
0.0
 10
329.035208
 20
209.390599
 30
0.0
 10
334.107642
 20
209.390599
 30
0.0
 10
349.324946
 20
183.033456
 30
0.0
  0
LWPOLYLINE
  5
139
100
AcDbEntity
  8
0
 62
7
100
AcDbPolyline
 90
5
 70
1
 10
340.870888
 20
209.390599
 30
0.0
 10
346.788729
 20
209.390599
 30
0.0
 10
355.665489
 20
194.015599
 30
0.0
 10
352.706569
 20
188.890599
 30
0.0
 10
340.870888
 20
209.390599
 30
0.0
  0
LWPOLYLINE
  5
13a
100
AcDbEntity
  8
0
 62
7
100
AcDbPolyline
 90
5
 70
1
 10
467.063374
 20
207.081198
 30
0.0
 10
449.309853
 20
176.331198
 30
0.0
 10
467.063374
 20
176.331198
 30
0.0
 10
475.940134
 20
191.706198
 30
0.0
 10
467.063374
 20
207.081198
 30
0.0
  0
LWPOLYLINE
  5
13b
100
AcDbEntity
  8
0
 62
7
100
AcDbPolyline
 90
5
 70
1
 10
435.556332
 20
152.509401
 30
0.0
 10
471.063374
 20
152.509401
 30
0.0
 10
462.186614
 20
167.884401
 30
0.0
 10
444.433093
 20
167.884401
 30
0.0
 10
435.556332
 20
152.509401
 30
0.0
  0
LWPOLYLINE
  5
13c
100
AcDbEntity
  8
0
 62
7
100
AcDbPolyline
 90
5
 70
1
 10
478.280678
 20
178.866544
 30
0.0
 10
480.816895
 20
183.259401
 30
0.0
 10
498.570416
 20
152.509401
 30
0.0
 10
493.497981
 20
152.509401
 30
0.0
 10
478.280678
 20
178.866544
 30
0.0
  0
LWPOLYLINE
  5
13d
100
AcDbEntity
  8
0
 62
7
100
AcDbPolyline
 90
5
 70
1
 10
486.734735
 20
152.509401
 30
0.0
 10
480.816895
 20
152.509401
 30
0.0
 10
471.940134
 20
167.884401
 30
0.0
 10
474.899055
 20
173.009401
 30
0.0
 10
486.734735
 20
152.509401
 30
0.0
  0
LWPOLYLINE
  5
13e
100
AcDbEntity
  8
0
 62
7
100
AcDbPolyline
 90
5
 70
1
 10
471.063374
 20
209.390599
 30
0.0
 10
488.816895
 20
178.640599
 30
0.0
 10
497.693655
 20
194.015599
 30
0.0
 10
488.816895
 20
209.390599
 30
0.0
 10
471.063374
 20
209.390599
 30
0.0
  0
LWPOLYLINE
  5
13f
100
AcDbEntity
  8
0
 62
7
100
AcDbPolyline
 90
5
 70
1
 10
502.570416
 20
154.818802
 30
0.0
 10
520.323936
 20
185.568802
 30
0.0
 10
502.570416
 20
185.568802
 30
0.0
 10
493.693655
 20
170.193802
 30
0.0
 10
502.570416
 20
154.818802
 30
0.0
  0
LWPOLYLINE
  5
140
100
AcDbEntity
  8
0
 62
7
100
AcDbPolyline
 90
5
 70
1
 10
501.106633
 20
204.997742
 30
0.0
 10
498.570416
 20
209.390599
 30
0.0
 10
534.077457
 20
209.390599
 30
0.0
 10
531.541240
 20
204.997742
 30
0.0
 10
501.106633
 20
204.997742
 30
0.0
  0
LWPOLYLINE
  5
141
100
AcDbEntity
  8
0
 62
7
100
AcDbPolyline
 90
5
 70
1
 10
528.159617
 20
199.140599
 30
0.0
 10
525.200697
 20
194.015599
 30
0.0
 10
507.447176
 20
194.015599
 30
0.0
 10
504.488256
 20
199.140599
 30
0.0
 10
528.159617
 20
199.140599
 30
0.0
  0
LWPOLYLINE
  5
142
100
AcDbEntity
  8
0
 62
7
100
AcDbPolyline
 90
5
 70
1
 10
463.063374
 20
209.390599
 30
0.0
 10
427.556332
 20
209.390599
 30
0.0
 10
436.433093
 20
194.015599
 30
0.0
 10
454.186614
 20
194.015599
 30
0.0
 10
463.063374
 20
209.390599
 30
0.0
  0
LWPOLYLINE
  5
143
100
AcDbEntity
  8
0
 62
7
100
AcDbPolyline
 90
5
 70
1
 10
400.049291
 20
209.390599
 30
0.0
 10
417.802812
 20
178.640599
 30
0.0
 10
426.679572
 20
194.015599
 30
0.0
 10
417.802812
 20
209.390599
 30
0.0
 10
400.049291
 20
209.390599
 30
0.0
  0
LWPOLYLINE
  5
144
100
AcDbEntity
  8
0
 62
7
100
AcDbPolyline
 90
5
 70
1
 10
444.237419
 20
185.568802
 30
0.0
 10
449.309853
 20
185.568802
 30
0.0
 10
431.556332
 20
154.818802
 30
0.0
 10
429.020115
 20
159.211659
 30
0.0
 10
444.237419
 20
185.568802
 30
0.0
  0
LWPOLYLINE
  5
145
100
AcDbEntity
  8
0
 62
7
100
AcDbPolyline
 90
5
 70
1
 10
425.638492
 20
165.068802
 30
0.0
 10
422.679572
 20
170.193802
 30
0.0
 10
431.556332
 20
185.568802
 30
0.0
 10
437.474173
 20
185.568802
 30
0.0
 10
425.638492
 20
165.068802
 30
0.0
  0
LWPOLYLINE
  5
146
100
AcDbEntity
  8
0
 62
7
100
AcDbPolyline
 90
5
 70
1
 10
471.063374
 20
91.009401
 30
0.0
 10
506.570416
 20
91.009401
 30
0.0
 10
497.693655
 20
106.384401
 30
0.0
 10
479.940134
 20
106.384401
 30
0.0
 10
471.063374
 20
91.009401
 30
0.0
  0
LWPOLYLINE
  5
147
100
AcDbEntity
  8
0
 62
7
100
AcDbPolyline
 90
5
 70
1
 10
534.077457
 20
91.009401
 30
0.0
 10
516.323936
 20
121.759401
 30
0.0
 10
507.447176
 20
106.384401
 30
0.0
 10
516.323936
 20
91.009401
 30
0.0
 10
534.077457
 20
91.009401
 30
0.0
  0
LWPOLYLINE
  5
148
100
AcDbEntity
  8
0
 62
7
100
AcDbPolyline
 90
5
 70
1
 10
489.889329
 20
114.831198
 30
0.0
 10
484.816895
 20
114.831198
 30
0.0
 10
502.570416
 20
145.581198
 30
0.0
 10
505.106633
 20
141.188341
 30
0.0
 10
489.889329
 20
114.831198
 30
0.0
  0
LWPOLYLINE
  5
149
100
AcDbEntity
  8
0
 62
7
100
AcDbPolyline
 90
5
 70
1
 10
508.488256
 20
135.331198
 30
0.0
 10
511.447176
 20
130.206198
 30
0.0
 10
502.570416
 20
114.831198
 30
0.0
 10
496.652575
 20
114.831198
 30
0.0
 10
508.488256
 20
135.331198
 30
0.0
  0
LWPOLYLINE
  5
14a
100
AcDbEntity
  8
0
 62
7
100
AcDbPolyline
 90
5
 70
1
 10
463.063374
 20
91.009401
 30
0.0
 10
445.309853
 20
121.759401
 30
0.0
 10
436.433093
 20
106.384401
 30
0.0
 10
445.309853
 20
91.009401
 30
0.0
 10
463.063374
 20
91.009401
 30
0.0
  0
LWPOLYLINE
  5
14b
100
AcDbEntity
  8
0
 62
7
100
AcDbPolyline
 90
5
 70
1
 10
431.556332
 20
145.581198
 30
0.0
 10
413.802812
 20
114.831198
 30
0.0
 10
431.556332
 20
114.831198
 30
0.0
 10
440.433093
 20
130.206198
 30
0.0
 10
431.556332
 20
145.581198
 30
0.0
  0
LWPOLYLINE
  5
14c
100
AcDbEntity
  8
0
 62
7
100
AcDbPolyline
 90
5
 70
1
 10
433.020115
 20
95.402258
 30
0.0
 10
435.556332
 20
91.009401
 30
0.0
 10
400.049291
 20
91.009401
 30
0.0
 10
402.585508
 20
95.402258
 30
0.0
 10
433.020115
 20
95.402258
 30
0.0
  0
LWPOLYLINE
  5
14d
100
AcDbEntity
  8
0
 62
7
100
AcDbPolyline
 90
5
 70
1
 10
405.967131
 20
101.259401
 30
0.0
 10
408.926051
 20
106.384401
 30
0.0
 10
426.679572
 20
106.384401
 30
0.0
 10
429.638492
 20
101.259401
 30
0.0
 10
405.967131
 20
101.259401
 30
0.0
  0
LWPOLYLINE
  5
14e
100
AcDbEntity
  8
0
 62
7
100
AcDbPolyline
 90
5
 70
1
 10
467.063374
 20
93.318802
 30
0.0
 10
484.816895
 20
124.068802
 30
0.0
 10
467.063374
 20
124.068802
 30
0.0
 10
458.186614
 20
108.693802
 30
0.0
 10
467.063374
 20
93.318802
 30
0.0
  0
LWPOLYLINE
  5
14f
100
AcDbEntity
  8
0
 62
7
100
AcDbPolyline
 90
5
 70
1
 10
498.570416
 20
147.890599
 30
0.0
 10
463.063374
 20
147.890599
 30
0.0
 10
471.940134
 20
132.515599
 30
0.0
 10
489.693655
 20
132.515599
 30
0.0
 10
498.570416
 20
147.890599
 30
0.0
  0
LWPOLYLINE
  5
150
100
AcDbEntity
  8
0
 62
7
100
AcDbPolyline
 90
5
 70
1
 10
455.846070
 20
121.533456
 30
0.0
 10
453.309853
 20
117.140599
 30
0.0
 10
435.556332
 20
147.890599
 30
0.0
 10
440.628767
 20
147.890599
 30
0.0
 10
455.846070
 20
121.533456
 30
0.0
  0
LWPOLYLINE
  5
151
100
AcDbEntity
  8
0
 62
7
100
AcDbPolyline
 90
5
 70
1
 10
447.392013
 20
147.890599
 30
0.0
 10
453.309853
 20
147.890599
 30
0.0
 10
462.186614
 20
132.515599
 30
0.0
 10
459.227693
 20
127.390599
 30
0.0
 10
447.392013
 20
147.890599
 30
0.0
  0
LWPOLYLINE
  5
152
100
AcDbEntity
  8
0
 62
7
100
AcDbPolyline
 90
5
 70
1
 10
573.584499
 20
145.581198
 30
0.0
 10
555.830978
 20
114.831198
 30
0.0
 10
573.584499
 20
114.831198
 30
0.0
 10
582.461259
 20
130.206198
 30
0.0
 10
573.584499
 20
145.581198
 30
0.0
  0
LWPOLYLINE
  5
153
100
AcDbEntity
  8
0
 62
7
100
AcDbPolyline
 90
5
 70
1
 10
542.077457
 20
91.009401
 30
0.0
 10
577.584499
 20
91.009401
 30
0.0
 10
568.707738
 20
106.384401
 30
0.0
 10
550.954217
 20
106.384401
 30
0.0
 10
542.077457
 20
91.009401
 30
0.0
  0
LWPOLYLINE
  5
154
100
AcDbEntity
  8
0
 62
7
100
AcDbPolyline
 90
5
 70
1
 10
584.801802
 20
117.366544
 30
0.0
 10
587.338019
 20
121.759401
 30
0.0
 10
605.091540
 20
91.009401
 30
0.0
 10
600.019106
 20
91.009401
 30
0.0
 10
584.801802
 20
117.366544
 30
0.0
  0
LWPOLYLINE
  5
155
100
AcDbEntity
  8
0
 62
7
100
AcDbPolyline
 90
5
 70
1
 10
593.255860
 20
91.009401
 30
0.0
 10
587.338019
 20
91.009401
 30
0.0
 10
578.461259
 20
106.384401
 30
0.0
 10
581.420179
 20
111.509401
 30
0.0
 10
593.255860
 20
91.009401
 30
0.0
  0
LWPOLYLINE
  5
156
100
AcDbEntity
  8
0
 62
7
100
AcDbPolyline
 90
5
 70
1
 10
577.584499
 20
147.890599
 30
0.0
 10
595.338019
 20
117.140599
 30
0.0
 10
604.214780
 20
132.515599
 30
0.0
 10
595.338019
 20
147.890599
 30
0.0
 10
577.584499
 20
147.890599
 30
0.0
  0
LWPOLYLINE
  5
157
100
AcDbEntity
  8
0
 62
7
100
AcDbPolyline
 90
5
 70
1
 10
609.091540
 20
93.318802
 30
0.0
 10
626.845061
 20
124.068802
 30
0.0
 10
609.091540
 20
124.068802
 30
0.0
 10
600.214780
 20
108.693802
 30
0.0
 10
609.091540
 20
93.318802
 30
0.0
  0
LWPOLYLINE
  5
158
100
AcDbEntity
  8
0
 62
7
100
AcDbPolyline
 90
5
 70
1
 10
607.627757
 20
143.497742
 30
0.0
 10
605.091540
 20
147.890599
 30
0.0
 10
640.598582
 20
147.890599
 30
0.0
 10
638.062365
 20
143.497742
 30
0.0
 10
607.627757
 20
143.497742
 30
0.0
  0
LWPOLYLINE
  5
159
100
AcDbEntity
  8
0
 62
7
100
AcDbPolyline
 90
5
 70
1
 10
634.680742
 20
137.640599
 30
0.0
 10
631.721821
 20
132.515599
 30
0.0
 10
613.968301
 20
132.515599
 30
0.0
 10
611.009380
 20
137.640599
 30
0.0
 10
634.680742
 20
137.640599
 30
0.0
  0
LWPOLYLINE
  5
15a
100
AcDbEntity
  8
0
 62
7
100
AcDbPolyline
 90
5
 70
1
 10
569.584499
 20
147.890599
 30
0.0
 10
534.077457
 20
147.890599
 30
0.0
 10
542.954217
 20
132.515599
 30
0.0
 10
560.707738
 20
132.515599
 30
0.0
 10
569.584499
 20
147.890599
 30
0.0
  0
LWPOLYLINE
  5
15b
100
AcDbEntity
  8
0
 62
7
100
AcDbPolyline
 90
5
 70
1
 10
506.570416
 20
147.890599
 30
0.0
 10
524.323936
 20
117.140599
 30
0.0
 10
533.200697
 20
132.515599
 30
0.0
 10
524.323936
 20
147.890599
 30
0.0
 10
506.570416
 20
147.890599
 30
0.0
  0
LWPOLYLINE
  5
15c
100
AcDbEntity
  8
0
 62
7
100
AcDbPolyline
 90
5
 70
1
 10
550.758543
 20
124.068802
 30
0.0
 10
555.830978
 20
124.068802
 30
0.0
 10
538.077457
 20
93.318802
 30
0.0
 10
535.541240
 20
97.711659
 30
0.0
 10
550.758543
 20
124.068802
 30
0.0
  0
LWPOLYLINE
  5
15d
100
AcDbEntity
  8
0
 62
7
100
AcDbPolyline
 90
5
 70
1
 10
532.159617
 20
103.568802
 30
0.0
 10
529.200697
 20
108.693802
 30
0.0
 10
538.077457
 20
124.068802
 30
0.0
 10
543.995297
 20
124.068802
 30
0.0
 10
532.159617
 20
103.568802
 30
0.0
  0
LWPOLYLINE
  5
15e
100
AcDbEntity
  8
0
 62
7
100
AcDbPolyline
 90
5
 70
1
 10
577.584499
 20
152.509401
 30
0.0
 10
613.091540
 20
152.509401
 30
0.0
 10
604.214780
 20
167.884401
 30
0.0
 10
586.461259
 20
167.884401
 30
0.0
 10
577.584499
 20
152.509401
 30
0.0
  0
LWPOLYLINE
  5
15f
100
AcDbEntity
  8
0
 62
7
100
AcDbPolyline
 90
5
 70
1
 10
640.598582
 20
152.509401
 30
0.0
 10
622.845061
 20
183.259401
 30
0.0
 10
613.968301
 20
167.884401
 30
0.0
 10
622.845061
 20
152.509401
 30
0.0
 10
640.598582
 20
152.509401
 30
0.0
  0
LWPOLYLINE
  5
160
100
AcDbEntity
  8
0
 62
7
100
AcDbPolyline
 90
5
 70
1
 10
596.410454
 20
176.331198
 30
0.0
 10
591.338019
 20
176.331198
 30
0.0
 10
609.091540
 20
207.081198
 30
0.0
 10
611.627757
 20
202.688341
 30
0.0
 10
596.410454
 20
176.331198
 30
0.0
  0
LWPOLYLINE
  5
161
100
AcDbEntity
  8
0
 62
7
100
AcDbPolyline
 90
5
 70
1
 10
615.009380
 20
196.831198
 30
0.0
 10
617.968301
 20
191.706198
 30
0.0
 10
609.091540
 20
176.331198
 30
0.0
 10
603.173700
 20
176.331198
 30
0.0
 10
615.009380
 20
196.831198
 30
0.0
  0
LWPOLYLINE
  5
162
100
AcDbEntity
  8
0
 62
7
100
AcDbPolyline
 90
5
 70
1
 10
569.584499
 20
152.509401
 30
0.0
 10
551.830978
 20
183.259401
 30
0.0
 10
542.954217
 20
167.884401
 30
0.0
 10
551.830978
 20
152.509401
 30
0.0
 10
569.584499
 20
152.509401
 30
0.0
  0
LWPOLYLINE
  5
163
100
AcDbEntity
  8
0
 62
7
100
AcDbPolyline
 90
5
 70
1
 10
538.077457
 20
207.081198
 30
0.0
 10
520.323936
 20
176.331198
 30
0.0
 10
538.077457
 20
176.331198
 30
0.0
 10
546.954217
 20
191.706198
 30
0.0
 10
538.077457
 20
207.081198
 30
0.0
  0
LWPOLYLINE
  5
164
100
AcDbEntity
  8
0
 62
7
100
AcDbPolyline
 90
5
 70
1
 10
539.541240
 20
156.902258
 30
0.0
 10
542.077457
 20
152.509401
 30
0.0
 10
506.570416
 20
152.509401
 30
0.0
 10
509.106633
 20
156.902258
 30
0.0
 10
539.541240
 20
156.902258
 30
0.0
  0
LWPOLYLINE
  5
165
100
AcDbEntity
  8
0
 62
7
100
AcDbPolyline
 90
5
 70
1
 10
512.488256
 20
162.759401
 30
0.0
 10
515.447176
 20
167.884401
 30
0.0
 10
533.200697
 20
167.884401
 30
0.0
 10
536.159617
 20
162.759401
 30
0.0
 10
512.488256
 20
162.759401
 30
0.0
  0
LWPOLYLINE
  5
166
100
AcDbEntity
  8
0
 62
7
100
AcDbPolyline
 90
5
 70
1
 10
573.584499
 20
154.818802
 30
0.0
 10
591.338019
 20
185.568802
 30
0.0
 10
573.584499
 20
185.568802
 30
0.0
 10
564.707738
 20
170.193802
 30
0.0
 10
573.584499
 20
154.818802
 30
0.0
  0
LWPOLYLINE
  5
167
100
AcDbEntity
  8
0
 62
7
100
AcDbPolyline
 90
5
 70
1
 10
605.091540
 20
209.390599
 30
0.0
 10
569.584499
 20
209.390599
 30
0.0
 10
578.461259
 20
194.015599
 30
0.0
 10
596.214780
 20
194.015599
 30
0.0
 10
605.091540
 20
209.390599
 30
0.0
  0
LWPOLYLINE
  5
168
100
AcDbEntity
  8
0
 62
7
100
AcDbPolyline
 90
5
 70
1
 10
562.367195
 20
183.033456
 30
0.0
 10
559.830978
 20
178.640599
 30
0.0
 10
542.077457
 20
209.390599
 30
0.0
 10
547.149892
 20
209.390599
 30
0.0
 10
562.367195
 20
183.033456
 30
0.0
  0
LWPOLYLINE
  5
169
100
AcDbEntity
  8
0
 62
7
100
AcDbPolyline
 90
5
 70
1
 10
553.913138
 20
209.390599
 30
0.0
 10
559.830978
 20
209.390599
 30
0.0
 10
568.707738
 20
194.015599
 30
0.0
 10
565.748818
 20
188.890599
 30
0.0
 10
553.913138
 20
209.390599
 30
0.0
  0
LWPOLYLINE
  5
16a
100
AcDbEntity
  8
0
 62
7
100
AcDbPolyline
 90
5
 70
1
 10
680.105623
 20
207.081198
 30
0.0
 10
662.352103
 20
176.331198
 30
0.0
 10
680.105623
 20
176.331198
 30
0.0
 10
688.982384
 20
191.706198
 30
0.0
 10
680.105623
 20
207.081198
 30
0.0
  0
LWPOLYLINE
  5
16b
100
AcDbEntity
  8
0
 62
7
100
AcDbPolyline
 90
5
 70
1
 10
648.598582
 20
152.509401
 30
0.0
 10
684.105623
 20
152.509401
 30
0.0
 10
675.228863
 20
167.884401
 30
0.0
 10
657.475342
 20
167.884401
 30
0.0
 10
648.598582
 20
152.509401
 30
0.0
  0
LWPOLYLINE
  5
16c
100
AcDbEntity
  8
0
 62
7
100
AcDbPolyline
 90
5
 70
1
 10
691.322927
 20
178.866544
 30
0.0
 10
693.859144
 20
183.259401
 30
0.0
 10
711.612665
 20
152.509401
 30
0.0
 10
706.540230
 20
152.509401
 30
0.0
 10
691.322927
 20
178.866544
 30
0.0
  0
LWPOLYLINE
  5
16d
100
AcDbEntity
  8
0
 62
7
100
AcDbPolyline
 90
5
 70
1
 10
699.776984
 20
152.509401
 30
0.0
 10
693.859144
 20
152.509401
 30
0.0
 10
684.982384
 20
167.884401
 30
0.0
 10
687.941304
 20
173.009401
 30
0.0
 10
699.776984
 20
152.509401
 30
0.0
  0
LWPOLYLINE
  5
16e
100
AcDbEntity
  8
0
 62
7
100
AcDbPolyline
 90
5
 70
1
 10
684.105623
 20
209.390599
 30
0.0
 10
701.859144
 20
178.640599
 30
0.0
 10
710.735904
 20
194.015599
 30
0.0
 10
701.859144
 20
209.390599
 30
0.0
 10
684.105623
 20
209.390599
 30
0.0
  0
LWPOLYLINE
  5
16f
100
AcDbEntity
  8
0
 62
7
100
AcDbPolyline
 90
5
 70
1
 10
715.612665
 20
154.818802
 30
0.0
 10
733.366186
 20
185.568802
 30
0.0
 10
715.612665
 20
185.568802
 30
0.0
 10
706.735904
 20
170.193802
 30
0.0
 10
715.612665
 20
154.818802
 30
0.0
  0
LWPOLYLINE
  5
170
100
AcDbEntity
  8
0
 62
7
100
AcDbPolyline
 90
5
 70
1
 10
714.148882
 20
204.997742
 30
0.0
 10
711.612665
 20
209.390599
 30
0.0
 10
747.119706
 20
209.390599
 30
0.0
 10
744.583489
 20
204.997742
 30
0.0
 10
714.148882
 20
204.997742
 30
0.0
  0
LWPOLYLINE
  5
171
100
AcDbEntity
  8
0
 62
7
100
AcDbPolyline
 90
5
 70
1
 10
741.201866
 20
199.140599
 30
0.0
 10
738.242946
 20
194.015599
 30
0.0
 10
720.489425
 20
194.015599
 30
0.0
 10
717.530505
 20
199.140599
 30
0.0
 10
741.201866
 20
199.140599
 30
0.0
  0
LWPOLYLINE
  5
172
100
AcDbEntity
  8
0
 62
7
100
AcDbPolyline
 90
5
 70
1
 10
676.105623
 20
209.390599
 30
0.0
 10
640.598582
 20
209.390599
 30
0.0
 10
649.475342
 20
194.015599
 30
0.0
 10
667.228863
 20
194.015599
 30
0.0
 10
676.105623
 20
209.390599
 30
0.0
  0
LWPOLYLINE
  5
173
100
AcDbEntity
  8
0
 62
7
100
AcDbPolyline
 90
5
 70
1
 10
613.091540
 20
209.390599
 30
0.0
 10
630.845061
 20
178.640599
 30
0.0
 10
639.721821
 20
194.015599
 30
0.0
 10
630.845061
 20
209.390599
 30
0.0
 10
613.091540
 20
209.390599
 30
0.0
  0
LWPOLYLINE
  5
174
100
AcDbEntity
  8
0
 62
7
100
AcDbPolyline
 90
5
 70
1
 10
657.279668
 20
185.568802
 30
0.0
 10
662.352103
 20
185.568802
 30
0.0
 10
644.598582
 20
154.818802
 30
0.0
 10
642.062365
 20
159.211659
 30
0.0
 10
657.279668
 20
185.568802
 30
0.0
  0
LWPOLYLINE
  5
175
100
AcDbEntity
  8
0
 62
7
100
AcDbPolyline
 90
5
 70
1
 10
638.680742
 20
165.068802
 30
0.0
 10
635.721821
 20
170.193802
 30
0.0
 10
644.598582
 20
185.568802
 30
0.0
 10
650.516422
 20
185.568802
 30
0.0
 10
638.680742
 20
165.068802
 30
0.0
  0
LWPOLYLINE
  5
176
100
AcDbEntity
  8
0
 62
7
100
AcDbPolyline
 90
5
 70
1
 10
684.105623
 20
91.009401
 30
0.0
 10
719.612665
 20
91.009401
 30
0.0
 10
710.735904
 20
106.384401
 30
0.0
 10
692.982384
 20
106.384401
 30
0.0
 10
684.105623
 20
91.009401
 30
0.0
  0
LWPOLYLINE
  5
177
100
AcDbEntity
  8
0
 62
7
100
AcDbPolyline
 90
5
 70
1
 10
747.119706
 20
91.009401
 30
0.0
 10
729.366186
 20
121.759401
 30
0.0
 10
720.489425
 20
106.384401
 30
0.0
 10
729.366186
 20
91.009401
 30
0.0
 10
747.119706
 20
91.009401
 30
0.0
  0
LWPOLYLINE
  5
178
100
AcDbEntity
  8
0
 62
7
100
AcDbPolyline
 90
5
 70
1
 10
702.931579
 20
114.831198
 30
0.0
 10
697.859144
 20
114.831198
 30
0.0
 10
715.612665
 20
145.581198
 30
0.0
 10
718.148882
 20
141.188341
 30
0.0
 10
702.931579
 20
114.831198
 30
0.0
  0
LWPOLYLINE
  5
179
100
AcDbEntity
  8
0
 62
7
100
AcDbPolyline
 90
5
 70
1
 10
721.530505
 20
135.331198
 30
0.0
 10
724.489425
 20
130.206198
 30
0.0
 10
715.612665
 20
114.831198
 30
0.0
 10
709.694825
 20
114.831198
 30
0.0
 10
721.530505
 20
135.331198
 30
0.0
  0
LWPOLYLINE
  5
17a
100
AcDbEntity
  8
0
 62
7
100
AcDbPolyline
 90
5
 70
1
 10
676.105623
 20
91.009401
 30
0.0
 10
658.352103
 20
121.759401
 30
0.0
 10
649.475342
 20
106.384401
 30
0.0
 10
658.352103
 20
91.009401
 30
0.0
 10
676.105623
 20
91.009401
 30
0.0
  0
LWPOLYLINE
  5
17b
100
AcDbEntity
  8
0
 62
7
100
AcDbPolyline
 90
5
 70
1
 10
644.598582
 20
145.581198
 30
0.0
 10
626.845061
 20
114.831198
 30
0.0
 10
644.598582
 20
114.831198
 30
0.0
 10
653.475342
 20
130.206198
 30
0.0
 10
644.598582
 20
145.581198
 30
0.0
  0
LWPOLYLINE
  5
17c
100
AcDbEntity
  8
0
 62
7
100
AcDbPolyline
 90
5
 70
1
 10
646.062365
 20
95.402258
 30
0.0
 10
648.598582
 20
91.009401
 30
0.0
 10
613.091540
 20
91.009401
 30
0.0
 10
615.627757
 20
95.402258
 30
0.0
 10
646.062365
 20
95.402258
 30
0.0
  0
LWPOLYLINE
  5
17d
100
AcDbEntity
  8
0
 62
7
100
AcDbPolyline
 90
5
 70
1
 10
619.009380
 20
101.259401
 30
0.0
 10
621.968301
 20
106.384401
 30
0.0
 10
639.721821
 20
106.384401
 30
0.0
 10
642.680742
 20
101.259401
 30
0.0
 10
619.009380
 20
101.259401
 30
0.0
  0
LWPOLYLINE
  5
17e
100
AcDbEntity
  8
0
 62
7
100
AcDbPolyline
 90
5
 70
1
 10
680.105623
 20
93.318802
 30
0.0
 10
697.859144
 20
124.068802
 30
0.0
 10
680.105623
 20
124.068802
 30
0.0
 10
671.228863
 20
108.693802
 30
0.0
 10
680.105623
 20
93.318802
 30
0.0
  0
LWPOLYLINE
  5
17f
100
AcDbEntity
  8
0
 62
7
100
AcDbPolyline
 90
5
 70
1
 10
711.612665
 20
147.890599
 30
0.0
 10
676.105623
 20
147.890599
 30
0.0
 10
684.982384
 20
132.515599
 30
0.0
 10
702.735904
 20
132.515599
 30
0.0
 10
711.612665
 20
147.890599
 30
0.0
  0
LWPOLYLINE
  5
180
100
AcDbEntity
  8
0
 62
7
100
AcDbPolyline
 90
5
 70
1
 10
668.888320
 20
121.533456
 30
0.0
 10
666.352103
 20
117.140599
 30
0.0
 10
648.598582
 20
147.890599
 30
0.0
 10
653.671016
 20
147.890599
 30
0.0
 10
668.888320
 20
121.533456
 30
0.0
  0
LWPOLYLINE
  5
181
100
AcDbEntity
  8
0
 62
7
100
AcDbPolyline
 90
5
 70
1
 10
660.434262
 20
147.890599
 30
0.0
 10
666.352103
 20
147.890599
 30
0.0
 10
675.228863
 20
132.515599
 30
0.0
 10
672.269943
 20
127.390599
 30
0.0
 10
660.434262
 20
147.890599
 30
0.0
  0
LWPOLYLINE
  5
182
100
AcDbEntity
  8
0
 62
7
100
AcDbPolyline
 90
5
 70
1
 10
786.626748
 20
145.581198
 30
0.0
 10
768.873227
 20
114.831198
 30
0.0
 10
786.626748
 20
114.831198
 30
0.0
 10
795.503508
 20
130.206198
 30
0.0
 10
786.626748
 20
145.581198
 30
0.0
  0
LWPOLYLINE
  5
183
100
AcDbEntity
  8
0
 62
7
100
AcDbPolyline
 90
5
 70
1
 10
755.119706
 20
91.009401
 30
0.0
 10
790.626748
 20
91.009401
 30
0.0
 10
781.749988
 20
106.384401
 30
0.0
 10
763.996467
 20
106.384401
 30
0.0
 10
755.119706
 20
91.009401
 30
0.0
  0
LWPOLYLINE
  5
184
100
AcDbEntity
  8
0
 62
7
100
AcDbPolyline
 90
5
 70
1
 10
797.844052
 20
117.366544
 30
0.0
 10
800.380269
 20
121.759401
 30
0.0
 10
818.133790
 20
91.009401
 30
0.0
 10
813.061355
 20
91.009401
 30
0.0
 10
797.844052
 20
117.366544
 30
0.0
  0
LWPOLYLINE
  5
185
100
AcDbEntity
  8
0
 62
7
100
AcDbPolyline
 90
5
 70
1
 10
806.298109
 20
91.009401
 30
0.0
 10
800.380269
 20
91.009401
 30
0.0
 10
791.503508
 20
106.384401
 30
0.0
 10
794.462429
 20
111.509401
 30
0.0
 10
806.298109
 20
91.009401
 30
0.0
  0
LWPOLYLINE
  5
186
100
AcDbEntity
  8
0
 62
7
100
AcDbPolyline
 90
5
 70
1
 10
790.626748
 20
147.890599
 30
0.0
 10
808.380269
 20
117.140599
 30
0.0
 10
817.257029
 20
132.515599
 30
0.0
 10
808.380269
 20
147.890599
 30
0.0
 10
790.626748
 20
147.890599
 30
0.0
  0
LWPOLYLINE
  5
187
100
AcDbEntity
  8
0
 62
7
100
AcDbPolyline
 90
5
 70
1
 10
822.133790
 20
93.318802
 30
0.0
 10
839.887310
 20
124.068802
 30
0.0
 10
822.133790
 20
124.068802
 30
0.0
 10
813.257029
 20
108.693802
 30
0.0
 10
822.133790
 20
93.318802
 30
0.0
  0
LWPOLYLINE
  5
188
100
AcDbEntity
  8
0
 62
7
100
AcDbPolyline
 90
5
 70
1
 10
820.670007
 20
143.497742
 30
0.0
 10
818.133790
 20
147.890599
 30
0.0
 10
853.640831
 20
147.890599
 30
0.0
 10
851.104614
 20
143.497742
 30
0.0
 10
820.670007
 20
143.497742
 30
0.0
  0
LWPOLYLINE
  5
189
100
AcDbEntity
  8
0
 62
7
100
AcDbPolyline
 90
5
 70
1
 10
847.722991
 20
137.640599
 30
0.0
 10
844.764071
 20
132.515599
 30
0.0
 10
827.010550
 20
132.515599
 30
0.0
 10
824.051630
 20
137.640599
 30
0.0
 10
847.722991
 20
137.640599
 30
0.0
  0
LWPOLYLINE
  5
18a
100
AcDbEntity
  8
0
 62
7
100
AcDbPolyline
 90
5
 70
1
 10
782.626748
 20
147.890599
 30
0.0
 10
747.119706
 20
147.890599
 30
0.0
 10
755.996467
 20
132.515599
 30
0.0
 10
773.749988
 20
132.515599
 30
0.0
 10
782.626748
 20
147.890599
 30
0.0
  0
LWPOLYLINE
  5
18b
100
AcDbEntity
  8
0
 62
7
100
AcDbPolyline
 90
5
 70
1
 10
719.612665
 20
147.890599
 30
0.0
 10
737.366186
 20
117.140599
 30
0.0
 10
746.242946
 20
132.515599
 30
0.0
 10
737.366186
 20
147.890599
 30
0.0
 10
719.612665
 20
147.890599
 30
0.0
  0
LWPOLYLINE
  5
18c
100
AcDbEntity
  8
0
 62
7
100
AcDbPolyline
 90
5
 70
1
 10
763.800793
 20
124.068802
 30
0.0
 10
768.873227
 20
124.068802
 30
0.0
 10
751.119706
 20
93.318802
 30
0.0
 10
748.583489
 20
97.711659
 30
0.0
 10
763.800793
 20
124.068802
 30
0.0
  0
LWPOLYLINE
  5
18d
100
AcDbEntity
  8
0
 62
7
100
AcDbPolyline
 90
5
 70
1
 10
745.201866
 20
103.568802
 30
0.0
 10
742.242946
 20
108.693802
 30
0.0
 10
751.119706
 20
124.068802
 30
0.0
 10
757.037547
 20
124.068802
 30
0.0
 10
745.201866
 20
103.568802
 30
0.0
  0
LWPOLYLINE
  5
18e
100
AcDbEntity
  8
0
 62
7
100
AcDbPolyline
 90
5
 70
1
 10
790.626748
 20
152.509401
 30
0.0
 10
826.133790
 20
152.509401
 30
0.0
 10
817.257029
 20
167.884401
 30
0.0
 10
799.503508
 20
167.884401
 30
0.0
 10
790.626748
 20
152.509401
 30
0.0
  0
LWPOLYLINE
  5
18f
100
AcDbEntity
  8
0
 62
7
100
AcDbPolyline
 90
5
 70
1
 10
853.640831
 20
152.509401
 30
0.0
 10
835.887310
 20
183.259401
 30
0.0
 10
827.010550
 20
167.884401
 30
0.0
 10
835.887310
 20
152.509401
 30
0.0
 10
853.640831
 20
152.509401
 30
0.0
  0
LWPOLYLINE
  5
190
100
AcDbEntity
  8
0
 62
7
100
AcDbPolyline
 90
5
 70
1
 10
809.452703
 20
176.331198
 30
0.0
 10
804.380269
 20
176.331198
 30
0.0
 10
822.133790
 20
207.081198
 30
0.0
 10
824.670007
 20
202.688341
 30
0.0
 10
809.452703
 20
176.331198
 30
0.0
  0
LWPOLYLINE
  5
191
100
AcDbEntity
  8
0
 62
7
100
AcDbPolyline
 90
5
 70
1
 10
828.051630
 20
196.831198
 30
0.0
 10
831.010550
 20
191.706198
 30
0.0
 10
822.133790
 20
176.331198
 30
0.0
 10
816.215949
 20
176.331198
 30
0.0
 10
828.051630
 20
196.831198
 30
0.0
  0
LWPOLYLINE
  5
192
100
AcDbEntity
  8
0
 62
7
100
AcDbPolyline
 90
5
 70
1
 10
782.626748
 20
152.509401
 30
0.0
 10
764.873227
 20
183.259401
 30
0.0
 10
755.996467
 20
167.884401
 30
0.0
 10
764.873227
 20
152.509401
 30
0.0
 10
782.626748
 20
152.509401
 30
0.0
  0
LWPOLYLINE
  5
193
100
AcDbEntity
  8
0
 62
7
100
AcDbPolyline
 90
5
 70
1
 10
751.119706
 20
207.081198
 30
0.0
 10
733.366186
 20
176.331198
 30
0.0
 10
751.119706
 20
176.331198
 30
0.0
 10
759.996467
 20
191.706198
 30
0.0
 10
751.119706
 20
207.081198
 30
0.0
  0
LWPOLYLINE
  5
194
100
AcDbEntity
  8
0
 62
7
100
AcDbPolyline
 90
5
 70
1
 10
752.583489
 20
156.902258
 30
0.0
 10
755.119706
 20
152.509401
 30
0.0
 10
719.612665
 20
152.509401
 30
0.0
 10
722.148882
 20
156.902258
 30
0.0
 10
752.583489
 20
156.902258
 30
0.0
  0
LWPOLYLINE
  5
195
100
AcDbEntity
  8
0
 62
7
100
AcDbPolyline
 90
5
 70
1
 10
725.530505
 20
162.759401
 30
0.0
 10
728.489425
 20
167.884401
 30
0.0
 10
746.242946
 20
167.884401
 30
0.0
 10
749.201866
 20
162.759401
 30
0.0
 10
725.530505
 20
162.759401
 30
0.0
  0
LWPOLYLINE
  5
196
100
AcDbEntity
  8
0
 62
7
100
AcDbPolyline
 90
5
 70
1
 10
786.626748
 20
154.818802
 30
0.0
 10
804.380269
 20
185.568802
 30
0.0
 10
786.626748
 20
185.568802
 30
0.0
 10
777.749988
 20
170.193802
 30
0.0
 10
786.626748
 20
154.818802
 30
0.0
  0
LWPOLYLINE
  5
197
100
AcDbEntity
  8
0
 62
7
100
AcDbPolyline
 90
5
 70
1
 10
818.133790
 20
209.390599
 30
0.0
 10
782.626748
 20
209.390599
 30
0.0
 10
791.503508
 20
194.015599
 30
0.0
 10
809.257029
 20
194.015599
 30
0.0
 10
818.133790
 20
209.390599
 30
0.0
  0
LWPOLYLINE
  5
198
100
AcDbEntity
  8
0
 62
7
100
AcDbPolyline
 90
5
 70
1
 10
775.409444
 20
183.033456
 30
0.0
 10
772.873227
 20
178.640599
 30
0.0
 10
755.119706
 20
209.390599
 30
0.0
 10
760.192141
 20
209.390599
 30
0.0
 10
775.409444
 20
183.033456
 30
0.0
  0
LWPOLYLINE
  5
199
100
AcDbEntity
  8
0
 62
7
100
AcDbPolyline
 90
5
 70
1
 10
766.955387
 20
209.390599
 30
0.0
 10
772.873227
 20
209.390599
 30
0.0
 10
781.749988
 20
194.015599
 30
0.0
 10
778.791067
 20
188.890599
 30
0.0
 10
766.955387
 20
209.390599
 30
0.0
  0
LWPOLYLINE
  5
19a
100
AcDbEntity
  8
0
 62
7
100
AcDbPolyline
 90
5
 70
1
 10
893.147873
 20
207.081198
 30
0.0
 10
875.394352
 20
176.331198
 30
0.0
 10
893.147873
 20
176.331198
 30
0.0
 10
902.024633
 20
191.706198
 30
0.0
 10
893.147873
 20
207.081198
 30
0.0
  0
LWPOLYLINE
  5
19b
100
AcDbEntity
  8
0
 62
7
100
AcDbPolyline
 90
5
 70
1
 10
861.640831
 20
152.509401
 30
0.0
 10
897.147873
 20
152.509401
 30
0.0
 10
888.271112
 20
167.884401
 30
0.0
 10
870.517591
 20
167.884401
 30
0.0
 10
861.640831
 20
152.509401
 30
0.0
  0
LWPOLYLINE
  5
19c
100
AcDbEntity
  8
0
 62
7
100
AcDbPolyline
 90
5
 70
1
 10
904.365176
 20
178.866544
 30
0.0
 10
906.901393
 20
183.259401
 30
0.0
 10
924.654914
 20
152.509401
 30
0.0
 10
919.582480
 20
152.509401
 30
0.0
 10
904.365176
 20
178.866544
 30
0.0
  0
LWPOLYLINE
  5
19d
100
AcDbEntity
  8
0
 62
7
100
AcDbPolyline
 90
5
 70
1
 10
912.819234
 20
152.509401
 30
0.0
 10
906.901393
 20
152.509401
 30
0.0
 10
898.024633
 20
167.884401
 30
0.0
 10
900.983553
 20
173.009401
 30
0.0
 10
912.819234
 20
152.509401
 30
0.0
  0
LWPOLYLINE
  5
19e
100
AcDbEntity
  8
0
 62
7
100
AcDbPolyline
 90
5
 70
1
 10
897.147873
 20
209.390599
 30
0.0
 10
914.901393
 20
178.640599
 30
0.0
 10
923.778154
 20
194.015599
 30
0.0
 10
914.901393
 20
209.390599
 30
0.0
 10
897.147873
 20
209.390599
 30
0.0
  0
LWPOLYLINE
  5
19f
100
AcDbEntity
  8
0
 62
7
100
AcDbPolyline
 90
5
 70
1
 10
928.654914
 20
154.818802
 30
0.0
 10
946.408435
 20
185.568802
 30
0.0
 10
928.654914
 20
185.568802
 30
0.0
 10
919.778154
 20
170.193802
 30
0.0
 10
928.654914
 20
154.818802
 30
0.0
  0
LWPOLYLINE
  5
1a0
100
AcDbEntity
  8
0
 62
7
100
AcDbPolyline
 90
5
 70
1
 10
927.191131
 20
204.997742
 30
0.0
 10
924.654914
 20
209.390599
 30
0.0
 10
960.161956
 20
209.390599
 30
0.0
 10
957.625739
 20
204.997742
 30
0.0
 10
927.191131
 20
204.997742
 30
0.0
  0
LWPOLYLINE
  5
1a1
100
AcDbEntity
  8
0
 62
7
100
AcDbPolyline
 90
5
 70
1
 10
954.244116
 20
199.140599
 30
0.0
 10
951.285195
 20
194.015599
 30
0.0
 10
933.531675
 20
194.015599
 30
0.0
 10
930.572754
 20
199.140599
 30
0.0
 10
954.244116
 20
199.140599
 30
0.0
  0
LWPOLYLINE
  5
1a2
100
AcDbEntity
  8
0
 62
7
100
AcDbPolyline
 90
5
 70
1
 10
889.147873
 20
209.390599
 30
0.0
 10
853.640831
 20
209.390599
 30
0.0
 10
862.517591
 20
194.015599
 30
0.0
 10
880.271112
 20
194.015599
 30
0.0
 10
889.147873
 20
209.390599
 30
0.0
  0
LWPOLYLINE
  5
1a3
100
AcDbEntity
  8
0
 62
7
100
AcDbPolyline
 90
5
 70
1
 10
826.133790
 20
209.390599
 30
0.0
 10
843.887310
 20
178.640599
 30
0.0
 10
852.764071
 20
194.015599
 30
0.0
 10
843.887310
 20
209.390599
 30
0.0
 10
826.133790
 20
209.390599
 30
0.0
  0
LWPOLYLINE
  5
1a4
100
AcDbEntity
  8
0
 62
7
100
AcDbPolyline
 90
5
 70
1
 10
870.321917
 20
185.568802
 30
0.0
 10
875.394352
 20
185.568802
 30
0.0
 10
857.640831
 20
154.818802
 30
0.0
 10
855.104614
 20
159.211659
 30
0.0
 10
870.321917
 20
185.568802
 30
0.0
  0
LWPOLYLINE
  5
1a5
100
AcDbEntity
  8
0
 62
7
100
AcDbPolyline
 90
5
 70
1
 10
851.722991
 20
165.068802
 30
0.0
 10
848.764071
 20
170.193802
 30
0.0
 10
857.640831
 20
185.568802
 30
0.0
 10
863.558671
 20
185.568802
 30
0.0
 10
851.722991
 20
165.068802
 30
0.0
  0
LWPOLYLINE
  5
1a6
100
AcDbEntity
  8
0
 62
7
100
AcDbPolyline
 90
5
 70
1
 10
897.147873
 20
91.009401
 30
0.0
 10
932.654914
 20
91.009401
 30
0.0
 10
923.778154
 20
106.384401
 30
0.0
 10
906.024633
 20
106.384401
 30
0.0
 10
897.147873
 20
91.009401
 30
0.0
  0
LWPOLYLINE
  5
1a7
100
AcDbEntity
  8
0
 62
7
100
AcDbPolyline
 90
5
 70
1
 10
960.161956
 20
91.009401
 30
0.0
 10
942.408435
 20
121.759401
 30
0.0
 10
933.531675
 20
106.384401
 30
0.0
 10
942.408435
 20
91.009401
 30
0.0
 10
960.161956
 20
91.009401
 30
0.0
  0
LWPOLYLINE
  5
1a8
100
AcDbEntity
  8
0
 62
7
100
AcDbPolyline
 90
5
 70
1
 10
915.973828
 20
114.831198
 30
0.0
 10
910.901393
 20
114.831198
 30
0.0
 10
928.654914
 20
145.581198
 30
0.0
 10
931.191131
 20
141.188341
 30
0.0
 10
915.973828
 20
114.831198
 30
0.0
  0
LWPOLYLINE
  5
1a9
100
AcDbEntity
  8
0
 62
7
100
AcDbPolyline
 90
5
 70
1
 10
934.572754
 20
135.331198
 30
0.0
 10
937.531675
 20
130.206198
 30
0.0
 10
928.654914
 20
114.831198
 30
0.0
 10
922.737074
 20
114.831198
 30
0.0
 10
934.572754
 20
135.331198
 30
0.0
  0
LWPOLYLINE
  5
1aa
100
AcDbEntity
  8
0
 62
7
100
AcDbPolyline
 90
5
 70
1
 10
889.147873
 20
91.009401
 30
0.0
 10
871.394352
 20
121.759401
 30
0.0
 10
862.517591
 20
106.384401
 30
0.0
 10
871.394352
 20
91.009401
 30
0.0
 10
889.147873
 20
91.009401
 30
0.0
  0
LWPOLYLINE
  5
1ab
100
AcDbEntity
  8
0
 62
7
100
AcDbPolyline
 90
5
 70
1
 10
857.640831
 20
145.581198
 30
0.0
 10
839.887310
 20
114.831198
 30
0.0
 10
857.640831
 20
114.831198
 30
0.0
 10
866.517591
 20
130.206198
 30
0.0
 10
857.640831
 20
145.581198
 30
0.0
  0
LWPOLYLINE
  5
1ac
100
AcDbEntity
  8
0
 62
7
100
AcDbPolyline
 90
5
 70
1
 10
859.104614
 20
95.402258
 30
0.0
 10
861.640831
 20
91.009401
 30
0.0
 10
826.133790
 20
91.009401
 30
0.0
 10
828.670007
 20
95.402258
 30
0.0
 10
859.104614
 20
95.402258
 30
0.0
  0
LWPOLYLINE
  5
1ad
100
AcDbEntity
  8
0
 62
7
100
AcDbPolyline
 90
5
 70
1
 10
832.051630
 20
101.259401
 30
0.0
 10
835.010550
 20
106.384401
 30
0.0
 10
852.764071
 20
106.384401
 30
0.0
 10
855.722991
 20
101.259401
 30
0.0
 10
832.051630
 20
101.259401
 30
0.0
  0
LWPOLYLINE
  5
1ae
100
AcDbEntity
  8
0
 62
7
100
AcDbPolyline
 90
5
 70
1
 10
893.147873
 20
93.318802
 30
0.0
 10
910.901393
 20
124.068802
 30
0.0
 10
893.147873
 20
124.068802
 30
0.0
 10
884.271112
 20
108.693802
 30
0.0
 10
893.147873
 20
93.318802
 30
0.0
  0
LWPOLYLINE
  5
1af
100
AcDbEntity
  8
0
 62
7
100
AcDbPolyline
 90
5
 70
1
 10
924.654914
 20
147.890599
 30
0.0
 10
889.147873
 20
147.890599
 30
0.0
 10
898.024633
 20
132.515599
 30
0.0
 10
915.778154
 20
132.515599
 30
0.0
 10
924.654914
 20
147.890599
 30
0.0
  0
LWPOLYLINE
  5
1b0
100
AcDbEntity
  8
0
 62
7
100
AcDbPolyline
 90
5
 70
1
 10
881.930569
 20
121.533456
 30
0.0
 10
879.394352
 20
117.140599
 30
0.0
 10
861.640831
 20
147.890599
 30
0.0
 10
866.713266
 20
147.890599
 30
0.0
 10
881.930569
 20
121.533456
 30
0.0
  0
LWPOLYLINE
  5
1b1
100
AcDbEntity
  8
0
 62
7
100
AcDbPolyline
 90
5
 70
1
 10
873.476512
 20
147.890599
 30
0.0
 10
879.394352
 20
147.890599
 30
0.0
 10
888.271112
 20
132.515599
 30
0.0
 10
885.312192
 20
127.390599
 30
0.0
 10
873.476512
 20
147.890599
 30
0.0
  0
LWPOLYLINE
  5
1b2
100
AcDbEntity
  8
0
 62
7
100
AcDbPolyline
 90
5
 70
1
 10
999.668997
 20
145.581198
 30
0.0
 10
981.915477
 20
114.831198
 30
0.0
 10
999.668997
 20
114.831198
 30
0.0
 10
1008.545758
 20
130.206198
 30
0.0
 10
999.668997
 20
145.581198
 30
0.0
  0
LWPOLYLINE
  5
1b3
100
AcDbEntity
  8
0
 62
7
100
AcDbPolyline
 90
5
 70
1
 10
968.161956
 20
91.009401
 30
0.0
 10
1003.668997
 20
91.009401
 30
0.0
 10
994.792237
 20
106.384401
 30
0.0
 10
977.038716
 20
106.384401
 30
0.0
 10
968.161956
 20
91.009401
 30
0.0
  0
LWPOLYLINE
  5
1b4
100
AcDbEntity
  8
0
 62
7
100
AcDbPolyline
 90
5
 70
1
 10
1010.886301
 20
117.366544
 30
0.0
 10
1013.422518
 20
121.759401
 30
0.0
 10
1031.176039
 20
91.009401
 30
0.0
 10
1026.103604
 20
91.009401
 30
0.0
 10
1010.886301
 20
117.366544
 30
0.0
  0
LWPOLYLINE
  5
1b5
100
AcDbEntity
  8
0
 62
7
100
AcDbPolyline
 90
5
 70
1
 10
1019.340358
 20
91.009401
 30
0.0
 10
1013.422518
 20
91.009401
 30
0.0
 10
1004.545758
 20
106.384401
 30
0.0
 10
1007.504678
 20
111.509401
 30
0.0
 10
1019.340358
 20
91.009401
 30
0.0
  0
LWPOLYLINE
  5
1b6
100
AcDbEntity
  8
0
 62
7
100
AcDbPolyline
 90
5
 70
1
 10
1003.668997
 20
147.890599
 30
0.0
 10
1021.422518
 20
117.140599
 30
0.0
 10
1030.299278
 20
132.515599
 30
0.0
 10
1021.422518
 20
147.890599
 30
0.0
 10
1003.668997
 20
147.890599
 30
0.0
  0
LWPOLYLINE
  5
1b7
100
AcDbEntity
  8
0
 62
7
100
AcDbPolyline
 90
6
 70
1
 10
1035.176039
 20
93.318802
 30
0.0
 10
1026.299278
 20
108.693802
 30
0.0
 10
1035.176039
 20
124.068802
 30
0.0
 10
1037.500000
 20
124.068802
 30
0.0
 10
1037.500000
 20
97.344021
 30
0.0
 10
1035.176039
 20
93.318802
 30
0.0
  0
LWPOLYLINE
  5
1b8
100
AcDbEntity
  8
0
 62
7
100
AcDbPolyline
 90
5
 70
1
 10
1031.176039
 20
147.890599
 30
0.0
 10
1037.500000
 20
147.890599
 30
0.0
 10
1037.500000
 20
143.497742
 30
0.0
 10
1033.712256
 20
143.497742
 30
0.0
 10
1031.176039
 20
147.890599
 30
0.0
  0
LWPOLYLINE
  5
1b9
100
AcDbEntity
  8
0
 62
7
100
AcDbPolyline
 90
5
 70
1
 10
995.668997
 20
147.890599
 30
0.0
 10
960.161956
 20
147.890599
 30
0.0
 10
969.038716
 20
132.515599
 30
0.0
 10
986.792237
 20
132.515599
 30
0.0
 10
995.668997
 20
147.890599
 30
0.0
  0
LWPOLYLINE
  5
1ba
100
AcDbEntity
  8
0
 62
7
100
AcDbPolyline
 90
5
 70
1
 10
932.654914
 20
147.890599
 30
0.0
 10
950.408435
 20
117.140599
 30
0.0
 10
959.285195
 20
132.515599
 30
0.0
 10
950.408435
 20
147.890599
 30
0.0
 10
932.654914
 20
147.890599
 30
0.0
  0
LWPOLYLINE
  5
1bb
100
AcDbEntity
  8
0
 62
7
100
AcDbPolyline
 90
5
 70
1
 10
976.843042
 20
124.068802
 30
0.0
 10
981.915477
 20
124.068802
 30
0.0
 10
964.161956
 20
93.318802
 30
0.0
 10
961.625739
 20
97.711659
 30
0.0
 10
976.843042
 20
124.068802
 30
0.0
  0
LWPOLYLINE
  5
1bc
100
AcDbEntity
  8
0
 62
7
100
AcDbPolyline
 90
5
 70
1
 10
958.244116
 20
103.568802
 30
0.0
 10
955.285195
 20
108.693802
 30
0.0
 10
964.161956
 20
124.068802
 30
0.0
 10
970.079796
 20
124.068802
 30
0.0
 10
958.244116
 20
103.568802
 30
0.0
  0
LWPOLYLINE
  5
1bd
100
AcDbEntity
  8
0
 62
7
100
AcDbPolyline
 90
6
 70
1
 10
1003.668997
 20
152.509401
 30
0.0
 10
1012.545758
 20
167.884401
 30
0.0
 10
1030.299278
 20
167.884401
 30
0.0
 10
1037.500000
 20
155.412386
 30
0.0
 10
1037.500000
 20
152.509401
 30
0.0
 10
1003.668997
 20
152.509401
 30
0.0
  0
LWPOLYLINE
  5
1be
100
AcDbEntity
  8
0
 62
7
100
AcDbPolyline
 90
6
 70
1
 10
1017.422518
 20
176.331198
 30
0.0
 10
1035.176039
 20
207.081198
 30
0.0
 10
1037.500000
 20
203.055979
 30
0.0
 10
1037.500000
 20
202.320702
 30
0.0
 10
1022.494953
 20
176.331198
 30
0.0
 10
1017.422518
 20
176.331198
 30
0.0
  0
LWPOLYLINE
  5
1bf
100
AcDbEntity
  8
0
 62
7
100
AcDbPolyline
 90
5
 70
1
 10
1035.176039
 20
176.331198
 30
0.0
 10
1029.258199
 20
176.331198
 30
0.0
 10
1037.500000
 20
190.606417
 30
0.0
 10
1037.500000
 20
180.356417
 30
0.0
 10
1035.176039
 20
176.331198
 30
0.0
  0
LWPOLYLINE
  5
1c0
100
AcDbEntity
  8
0
 62
7
100
AcDbPolyline
 90
5
 70
1
 10
995.668997
 20
152.509401
 30
0.0
 10
977.915477
 20
183.259401
 30
0.0
 10
969.038716
 20
167.884401
 30
0.0
 10
977.915477
 20
152.509401
 30
0.0
 10
995.668997
 20
152.509401
 30
0.0
  0
LWPOLYLINE
  5
1c1
100
AcDbEntity
  8
0
 62
7
100
AcDbPolyline
 90
5
 70
1
 10
964.161956
 20
207.081198
 30
0.0
 10
946.408435
 20
176.331198
 30
0.0
 10
964.161956
 20
176.331198
 30
0.0
 10
973.038716
 20
191.706198
 30
0.0
 10
964.161956
 20
207.081198
 30
0.0
  0
LWPOLYLINE
  5
1c2
100
AcDbEntity
  8
0
 62
7
100
AcDbPolyline
 90
5
 70
1
 10
965.625739
 20
156.902258
 30
0.0
 10
968.161956
 20
152.509401
 30
0.0
 10
932.654914
 20
152.509401
 30
0.0
 10
935.191131
 20
156.902258
 30
0.0
 10
965.625739
 20
156.902258
 30
0.0
  0
LWPOLYLINE
  5
1c3
100
AcDbEntity
  8
0
 62
7
100
AcDbPolyline
 90
5
 70
1
 10
938.572754
 20
162.759401
 30
0.0
 10
941.531675
 20
167.884401
 30
0.0
 10
959.285195
 20
167.884401
 30
0.0
 10
962.244116
 20
162.759401
 30
0.0
 10
938.572754
 20
162.759401
 30
0.0
  0
LWPOLYLINE
  5
1c4
100
AcDbEntity
  8
0
 62
7
100
AcDbPolyline
 90
5
 70
1
 10
999.668997
 20
154.818802
 30
0.0
 10
1017.422518
 20
185.568802
 30
0.0
 10
999.668997
 20
185.568802
 30
0.0
 10
990.792237
 20
170.193802
 30
0.0
 10
999.668997
 20
154.818802
 30
0.0
  0
LWPOLYLINE
  5
1c5
100
AcDbEntity
  8
0
 62
7
100
AcDbPolyline
 90
5
 70
1
 10
1031.176039
 20
209.390599
 30
0.0
 10
995.668997
 20
209.390599
 30
0.0
 10
1004.545758
 20
194.015599
 30
0.0
 10
1022.299278
 20
194.015599
 30
0.0
 10
1031.176039
 20
209.390599
 30
0.0
  0
LWPOLYLINE
  5
1c6
100
AcDbEntity
  8
0
 62
7
100
AcDbPolyline
 90
5
 70
1
 10
988.451694
 20
183.033456
 30
0.0
 10
985.915477
 20
178.640599
 30
0.0
 10
968.161956
 20
209.390599
 30
0.0
 10
973.234390
 20
209.390599
 30
0.0
 10
988.451694
 20
183.033456
 30
0.0
  0
LWPOLYLINE
  5
1c7
100
AcDbEntity
  8
0
 62
7
100
AcDbPolyline
 90
5
 70
1
 10
979.997636
 20
209.390599
 30
0.0
 10
985.915477
 20
209.390599
 30
0.0
 10
994.792237
 20
194.015599
 30
0.0
 10
991.833317
 20
188.890599
 30
0.0
 10
979.997636
 20
209.390599
 30
0.0
  0
LWPOLYLINE
  5
1c8
100
AcDbEntity
  8
0
 62
7
100
AcDbPolyline
 90
5
 70
1
 10
147.500000
 20
65.000000
 30
0.0
 10
1052.500000
 20
65.000000
 30
0.0
 10
1052.500000
 20
235.000000
 30
0.0
 10
147.500000
 20
235.000000
 30
0.0
 10
147.500000
 20
65.000000
 30
0.0
  0
ENDSEC
  0
SECTION
  2
OBJECTS
  0
DICTIONARY
  5
C
330
0
100
AcDbDictionary
  3
ACAD_GROUP
350
D
  3
ACAD_MLINESTYLE
350
17
  0
DICTIONARY
  5
D
330
C
100
AcDbDictionary
  0
DICTIONARY
  5
1A
330
C
100
AcDbDictionary
  0
DICTIONARY
  5
17
330
C
100
AcDbDictionary
  3
STANDARD
350
18
  0
DICTIONARY
  5
19
330
C
100
AcDbDictionary
  0
ENDSEC
  0
EOF
