<?xml version="1.0" encoding="UTF-8" standalone="no"?>
<svg
   height="300mm"
   version="1.1"
   viewBox="0 0 1200 300"
   width="1200mm"
   id="svg203"
   sodipodi:docname="final_poly_combination.svg"
   inkscape:version="1.4.2 (1:1.4.2+202505120737+ebf0e940d0)"
   xmlns:inkscape="http://www.inkscape.org/namespaces/inkscape"
   xmlns:sodipodi="http://sodipodi.sourceforge.net/DTD/sodipodi-0.dtd"
   xmlns="http://www.w3.org/2000/svg"
   xmlns:svg="http://www.w3.org/2000/svg">
  <sodipodi:namedview
     id="namedview203"
     pagecolor="#ffffff"
     bordercolor="#666666"
     borderopacity="1.0"
     inkscape:showpageshadow="2"
     inkscape:pageopacity="0.0"
     inkscape:pagecheckerboard="0"
     inkscape:deskcolor="#d1d1d1"
     inkscape:document-units="mm"
     inkscape:zoom="0.26020916"
     inkscape:cx="2188.624"
     inkscape:cy="488.06891"
     inkscape:window-width="1920"
     inkscape:window-height="1011"
     inkscape:window-x="0"
     inkscape:window-y="0"
     inkscape:window-maximized="1"
     inkscape:current-layer="g203" />
  <defs
     id="defs1" />
  <g
     fill="none"
     stroke="blue"
     stroke-width="0.5"
     transform="translate(147.5,65.0)"
     id="g203"
     style="vector-effect:non-scaling-stroke;-inkscape-stroke:hairline;stroke-width:0.26458333;stroke-dasharray:none">
    <g
       id="g1">
      <path
         d="M 31.507041555161983,143.9905989232415 L 16.0,143.9905989232415 L 16.0,117.13161507461902 L 31.507041555161983,143.9905989232415 Z"
         id="path1"
         style="vector-effect:non-scaling-stroke;-inkscape-stroke:hairline;stroke-width:0.26458333;stroke-dasharray:none" />
      <path
         d="M 31.507041555161983,25.609401076758502 L 22.63028116637149,40.9844010767585 L 16.0,40.9844010767585 L 16.0,25.609401076758502 L 31.507041555161983,25.609401076758502 Z"
         id="path2"
         style="vector-effect:non-scaling-stroke;-inkscape-stroke:hairline;stroke-width:0.26458333;stroke-dasharray:none" />
      <path
         d="M 35.50704155516198,27.918802153516992 L 53.26056233274298,58.66880215351699 L 35.50704155516198,58.66880215351701 L 26.63028116637149,43.29380215351699 L 35.50704155516198,27.918802153516992 Z"
         id="path3"
         style="vector-effect:non-scaling-stroke;-inkscape-stroke:hairline;stroke-width:0.26458333;stroke-dasharray:none" />
      <path
         d="M 67.01408311032398,82.49059892324149 L 31.50704155516199,82.49059892324149 L 40.38380194395248,67.11559892324149 L 58.13732272153347,67.11559892324149 L 67.01408311032398,82.49059892324149 Z"
         id="path4"
         style="vector-effect:non-scaling-stroke;-inkscape-stroke:hairline;stroke-width:0.26458333;stroke-dasharray:none" />
      <path
         d="M 21.753520777580995,51.74059892324149 L 24.289738031521132,56.13345606609863 L 16.0,70.49170351812924 L 16.0,61.705989232414964 L 21.753520777580995,51.74059892324149 Z"
         id="path5"
         style="vector-effect:non-scaling-stroke;-inkscape-stroke:hairline;stroke-width:0.26458333;stroke-dasharray:none" />
      <path
         d="M 27.671361036774655,61.99059892324149 L 30.630281166371482,67.11559892324149 L 21.753520777580984,82.49059892324149 L 16.0,82.49059892324149 L 16.0,82.20598923241496 L 27.671361036774655,61.99059892324149 Z"
         id="path6"
         style="vector-effect:non-scaling-stroke;-inkscape-stroke:hairline;stroke-width:0.26458333;stroke-dasharray:none" />
      <path
         d="M 67.01408311032397,87.1094010767585 L 31.507041555161983,87.1094010767585 L 40.38380194395248,102.4844010767585 L 58.13732272153347,102.4844010767585 L 67.01408311032397,87.1094010767585 Z"
         id="path7"
         style="vector-effect:non-scaling-stroke;-inkscape-stroke:hairline;stroke-width:0.26458333;stroke-dasharray:none" />
      <path
         d="M 21.75352077758099,87.1094010767585 L 30.630281166371486,102.4844010767585 L 21.753520777580984,117.8594010767585 L 16.0,107.89401076758503 L 16.0,87.1094010767585 L 21.75352077758099,87.1094010767585 Z"
         id="path8"
         style="vector-effect:non-scaling-stroke;-inkscape-stroke:hairline;stroke-width:0.26458333;stroke-dasharray:none" />
      <path
         d="M 48.18812782486269,110.93119784648299 L 53.26056233274297,110.93119784648299 L 35.50704155516199,141.68119784648297 L 32.97082430122185,137.28834070362586 L 48.18812782486269,110.93119784648299 Z"
         id="path9"
         style="vector-effect:non-scaling-stroke;-inkscape-stroke:hairline;stroke-width:0.26458333;stroke-dasharray:none" />
      <path
         d="M 29.589201295968326,131.43119784648297 L 26.630281166371496,126.30619784648299 L 35.50704155516199,110.93119784648299 L 41.42488181435564,110.93119784648299 L 29.589201295968326,131.43119784648297 Z"
         id="path10"
         style="vector-effect:non-scaling-stroke;-inkscape-stroke:hairline;stroke-width:0.26458333;stroke-dasharray:none" />
      <path
         d="M 71.01408311032397,89.41880215351699 L 88.76760388790495,120.16880215351699 L 71.01408311032397,120.168802153517 L 62.13732272153347,104.79380215351699 L 71.01408311032397,89.41880215351699 Z"
         id="path11"
         style="vector-effect:non-scaling-stroke;-inkscape-stroke:hairline;stroke-width:0.26458333;stroke-dasharray:none" />
      <path
         d="M 102.52112466548596,143.99059892324146 L 67.01408311032398,143.9905989232415 L 75.89084349911445,128.6155989232415 L 93.64436427669546,128.6155989232415 L 102.52112466548596,143.99059892324146 Z"
         id="path12"
         style="vector-effect:non-scaling-stroke;-inkscape-stroke:hairline;stroke-width:0.26458333;stroke-dasharray:none" />
      <path
         d="M 59.796779586683115,117.63345606609863 L 57.26056233274298,113.24059892324149 L 39.50704155516198,143.99059892324146 L 44.579476063042264,143.99059892324146 L 59.796779586683115,117.63345606609863 Z"
         id="path13"
         style="vector-effect:non-scaling-stroke;-inkscape-stroke:hairline;stroke-width:0.26458333;stroke-dasharray:none" />
      <path
         d="M 51.34272207354931,143.9905989232415 L 57.260562332742964,143.99059892324146 L 66.13732272153347,128.6155989232415 L 63.17840259193664,123.49059892324149 L 51.34272207354931,143.9905989232415 Z"
         id="path14"
         style="vector-effect:non-scaling-stroke;-inkscape-stroke:hairline;stroke-width:0.26458333;stroke-dasharray:none" />
      <path
         d="M 110.52112466548596,143.9905989232415 L 146.02816622064793,143.9905989232415 L 137.15140583185743,128.6155989232415 L 119.39788505427644,128.6155989232415 L 110.52112466548596,143.9905989232415 Z"
         id="path15"
         style="vector-effect:non-scaling-stroke;-inkscape-stroke:hairline;stroke-width:0.26458333;stroke-dasharray:none" />
      <path
         d="M 173.5352077758099,143.9905989232415 L 155.78168699822893,113.24059892324149 L 146.90492660943843,128.6155989232415 L 155.78168699822893,143.9905989232415 L 173.5352077758099,143.9905989232415 Z"
         id="path16"
         style="vector-effect:non-scaling-stroke;-inkscape-stroke:hairline;stroke-width:0.26458333;stroke-dasharray:none" />
      <path
         d="M 129.34707995094723,120.168802153517 L 124.27464544306694,120.168802153517 L 142.02816622064793,89.418802153517 L 144.56438347458806,93.81165929637415 L 129.34707995094723,120.168802153517 Z"
         id="path17"
         style="vector-effect:non-scaling-stroke;-inkscape-stroke:hairline;stroke-width:0.26458333;stroke-dasharray:none" />
      <path
         d="M 147.9460064798416,99.668802153517 L 150.9049266094384,104.79380215351699 L 142.02816622064793,120.16880215351699 L 136.11032596145427,120.168802153517 L 147.9460064798416,99.668802153517 Z"
         id="path18"
         style="vector-effect:non-scaling-stroke;-inkscape-stroke:hairline;stroke-width:0.26458333;stroke-dasharray:none" />
      <path
         d="M 106.52112466548596,141.681197846483 L 88.76760388790495,110.931197846483 L 106.52112466548596,110.931197846483 L 115.39788505427644,126.306197846483 L 106.52112466548596,141.681197846483 Z"
         id="path19"
         style="vector-effect:non-scaling-stroke;-inkscape-stroke:hairline;stroke-width:0.26458333;stroke-dasharray:none" />
      <path
         d="M 75.01408311032395,87.1094010767585 L 110.52112466548594,87.1094010767585 L 101.64436427669546,102.4844010767585 L 83.89084349911445,102.4844010767585 L 75.01408311032395,87.1094010767585 Z"
         id="path20"
         style="vector-effect:non-scaling-stroke;-inkscape-stroke:hairline;stroke-width:0.26458333;stroke-dasharray:none" />
      <path
         d="M 117.73842818912681,113.46654393390136 L 120.27464544306693,117.8594010767585 L 138.02816622064793,87.1094010767585 L 132.95573171276766,87.1094010767585 L 117.73842818912681,113.46654393390136 Z"
         id="path21"
         style="vector-effect:non-scaling-stroke;-inkscape-stroke:hairline;stroke-width:0.26458333;stroke-dasharray:none" />
      <path
         d="M 126.1924857022606,87.1094010767585 L 120.27464544306694,87.1094010767585 L 111.39788505427646,102.4844010767585 L 114.35680518387328,107.6094010767585 L 126.1924857022606,87.1094010767585 Z"
         id="path22"
         style="vector-effect:non-scaling-stroke;-inkscape-stroke:hairline;stroke-width:0.26458333;stroke-dasharray:none" />
      <path
         d="M 75.01408311032397,82.49059892324149 L 110.52112466548596,82.49059892324149 L 101.64436427669546,67.11559892324149 L 83.89084349911445,67.11559892324149 L 75.01408311032397,82.49059892324149 Z"
         id="path23"
         style="vector-effect:non-scaling-stroke;-inkscape-stroke:hairline;stroke-width:0.26458333;stroke-dasharray:none" />
      <path
         d="M 138.02816622064793,82.49059892324149 L 120.27464544306694,51.74059892324149 L 111.39788505427644,67.11559892324149 L 120.27464544306694,82.49059892324149 L 138.02816622064793,82.49059892324149 Z"
         id="path24"
         style="vector-effect:non-scaling-stroke;-inkscape-stroke:hairline;stroke-width:0.26458333;stroke-dasharray:none" />
      <path
         d="M 93.84003839578524,58.66880215351701 L 88.76760388790495,58.66880215351701 L 106.52112466548594,27.918802153516992 L 109.05734191942608,32.31165929637416 L 93.84003839578524,58.66880215351701 Z"
         id="path25"
         style="vector-effect:non-scaling-stroke;-inkscape-stroke:hairline;stroke-width:0.26458333;stroke-dasharray:none" />
      <path
         d="M 112.43896492467961,38.16880215351699 L 115.39788505427643,43.29380215351701 L 106.52112466548594,58.66880215351701 L 100.60328440629229,58.66880215351701 L 112.43896492467961,38.16880215351699 Z"
         id="path26"
         style="vector-effect:non-scaling-stroke;-inkscape-stroke:hairline;stroke-width:0.26458333;stroke-dasharray:none" />
      <path
         d="M 71.01408311032397,80.181197846483 L 53.26056233274298,49.431197846483 L 71.01408311032397,49.43119784648299 L 79.89084349911445,64.806197846483 L 71.01408311032397,80.181197846483 Z"
         id="path27"
         style="vector-effect:non-scaling-stroke;-inkscape-stroke:hairline;stroke-width:0.26458333;stroke-dasharray:none" />
      <path
         d="M 39.507041555161976,25.609401076758502 L 75.01408311032395,25.609401076758502 L 66.13732272153348,40.9844010767585 L 48.38380194395248,40.9844010767585 L 39.507041555161976,25.609401076758502 Z"
         id="path28"
         style="vector-effect:non-scaling-stroke;-inkscape-stroke:hairline;stroke-width:0.26458333;stroke-dasharray:none" />
      <path
         d="M 82.23138663396482,51.96654393390136 L 84.76760388790495,56.3594010767585 L 102.52112466548596,25.609401076758502 L 97.44869015760567,25.609401076758502 L 82.23138663396482,51.96654393390136 Z"
         id="path29"
         style="vector-effect:non-scaling-stroke;-inkscape-stroke:hairline;stroke-width:0.26458333;stroke-dasharray:none" />
      <path
         d="M 90.68544414709862,25.609401076758502 L 84.76760388790497,25.609401076758502 L 75.89084349911447,40.9844010767585 L 78.84976362871129,46.1094010767585 L 90.68544414709862,25.609401076758502 Z"
         id="path30"
         style="vector-effect:non-scaling-stroke;-inkscape-stroke:hairline;stroke-width:0.26458333;stroke-dasharray:none" />
      <path
         d="M 173.5352077758099,25.609401076758502 L 138.02816622064793,25.609401076758502 L 146.90492660943843,40.9844010767585 L 164.6584473870194,40.9844010767585 L 173.5352077758099,25.609401076758502 Z"
         id="path31"
         style="vector-effect:non-scaling-stroke;-inkscape-stroke:hairline;stroke-width:0.26458333;stroke-dasharray:none" />
      <path
         d="M 110.52112466548596,25.609401076758502 L 128.27464544306693,56.3594010767585 L 137.15140583185743,40.9844010767585 L 128.27464544306693,25.609401076758502 L 110.52112466548596,25.609401076758502 Z"
         id="path32"
         style="vector-effect:non-scaling-stroke;-inkscape-stroke:hairline;stroke-width:0.26458333;stroke-dasharray:none" />
      <path
         d="M 154.70925249034863,49.43119784648299 L 159.7816869982289,49.43119784648299 L 142.02816622064793,80.18119784648299 L 139.4919489667078,75.78834070362585 L 154.70925249034863,49.43119784648299 Z"
         id="path33"
         style="vector-effect:non-scaling-stroke;-inkscape-stroke:hairline;stroke-width:0.26458333;stroke-dasharray:none" />
      <path
         d="M 136.11032596145427,69.93119784648299 L 133.15140583185746,64.806197846483 L 142.02816622064793,49.43119784648299 L 147.9460064798416,49.43119784648299 L 136.11032596145427,69.93119784648299 Z"
         id="path34"
         style="vector-effect:non-scaling-stroke;-inkscape-stroke:hairline;stroke-width:0.26458333;stroke-dasharray:none" />
      <path
         d="M 177.5352077758099,27.918802153516992 L 195.2887285533909,58.66880215351699 L 177.5352077758099,58.66880215351701 L 168.6584473870194,43.29380215351699 L 177.5352077758099,27.918802153516992 Z"
         id="path35"
         style="vector-effect:non-scaling-stroke;-inkscape-stroke:hairline;stroke-width:0.26458333;stroke-dasharray:none" />
      <path
         d="M 209.0422493309719,82.49059892324149 L 173.5352077758099,82.49059892324149 L 182.4119681646004,67.11559892324149 L 200.1654889421814,67.11559892324149 L 209.0422493309719,82.49059892324149 Z"
         id="path36"
         style="vector-effect:non-scaling-stroke;-inkscape-stroke:hairline;stroke-width:0.26458333;stroke-dasharray:none" />
      <path
         d="M 166.31790425216906,56.13345606609863 L 163.78168699822893,51.74059892324149 L 146.02816622064793,82.49059892324149 L 151.1006007285282,82.49059892324149 L 166.31790425216906,56.13345606609863 Z"
         id="path37"
         style="vector-effect:non-scaling-stroke;-inkscape-stroke:hairline;stroke-width:0.26458333;stroke-dasharray:none" />
      <path
         d="M 157.86384673903527,82.49059892324149 L 163.7816869982289,82.49059892324149 L 172.6584473870194,67.11559892324149 L 169.69952725742257,61.99059892324149 L 157.86384673903527,82.49059892324149 Z"
         id="path38"
         style="vector-effect:non-scaling-stroke;-inkscape-stroke:hairline;stroke-width:0.26458333;stroke-dasharray:none" />
      <path
         d="M 209.0422493309719,87.1094010767585 L 173.5352077758099,87.1094010767585 L 182.4119681646004,102.4844010767585 L 200.1654889421814,102.4844010767585 L 209.0422493309719,87.1094010767585 Z"
         id="path39"
         style="vector-effect:non-scaling-stroke;-inkscape-stroke:hairline;stroke-width:0.26458333;stroke-dasharray:none" />
      <path
         d="M 146.02816622064793,87.1094010767585 L 163.7816869982289,117.8594010767585 L 172.6584473870194,102.4844010767585 L 163.78168699822893,87.1094010767585 L 146.02816622064793,87.1094010767585 Z"
         id="path40"
         style="vector-effect:non-scaling-stroke;-inkscape-stroke:hairline;stroke-width:0.26458333;stroke-dasharray:none" />
      <path
         d="M 190.2162940455106,110.93119784648299 L 195.2887285533909,110.93119784648299 L 177.5352077758099,141.68119784648297 L 174.99899052186979,137.28834070362586 L 190.2162940455106,110.93119784648299 Z"
         id="path41"
         style="vector-effect:non-scaling-stroke;-inkscape-stroke:hairline;stroke-width:0.26458333;stroke-dasharray:none" />
      <path
         d="M 171.61736751661627,131.43119784648297 L 168.65844738701944,126.30619784648299 L 177.5352077758099,110.93119784648299 L 183.45304803500358,110.93119784648299 L 171.61736751661627,131.43119784648297 Z"
         id="path42"
         style="vector-effect:non-scaling-stroke;-inkscape-stroke:hairline;stroke-width:0.26458333;stroke-dasharray:none" />
      <path
         d="M 213.0422493309719,89.41880215351699 L 230.7957701085529,120.16880215351699 L 213.0422493309719,120.168802153517 L 204.1654889421814,104.79380215351699 L 213.0422493309719,89.41880215351699 Z"
         id="path43"
         style="vector-effect:non-scaling-stroke;-inkscape-stroke:hairline;stroke-width:0.26458333;stroke-dasharray:none" />
      <path
         d="M 244.5492908861339,143.99059892324146 L 209.0422493309719,143.9905989232415 L 217.91900971976239,128.6155989232415 L 235.6725304973434,128.6155989232415 L 244.5492908861339,143.99059892324146 Z"
         id="path44"
         style="vector-effect:non-scaling-stroke;-inkscape-stroke:hairline;stroke-width:0.26458333;stroke-dasharray:none" />
      <path
         d="M 201.82494580733106,117.63345606609863 L 199.2887285533909,113.24059892324149 L 181.5352077758099,143.99059892324146 L 186.6076422836902,143.99059892324146 L 201.82494580733106,117.63345606609863 Z"
         id="path45"
         style="vector-effect:non-scaling-stroke;-inkscape-stroke:hairline;stroke-width:0.26458333;stroke-dasharray:none" />
      <path
         d="M 193.37088829419724,143.9905989232415 L 199.2887285533909,143.99059892324146 L 208.1654889421814,128.6155989232415 L 205.20656881258458,123.49059892324149 L 193.37088829419724,143.9905989232415 Z"
         id="path46"
         style="vector-effect:non-scaling-stroke;-inkscape-stroke:hairline;stroke-width:0.26458333;stroke-dasharray:none" />
      <path
         d="M 252.5492908861339,143.9905989232415 L 288.05633244129587,143.9905989232415 L 279.17957205250536,128.6155989232415 L 261.42605127492436,128.6155989232415 L 252.5492908861339,143.9905989232415 Z"
         id="path47"
         style="vector-effect:non-scaling-stroke;-inkscape-stroke:hairline;stroke-width:0.26458333;stroke-dasharray:none" />
      <path
         d="M 315.56337399645787,143.9905989232415 L 297.80985321887687,113.24059892324149 L 288.93309283008637,128.6155989232415 L 297.80985321887687,143.9905989232415 L 315.56337399645787,143.9905989232415 Z"
         id="path48"
         style="vector-effect:non-scaling-stroke;-inkscape-stroke:hairline;stroke-width:0.26458333;stroke-dasharray:none" />
      <path
         d="M 271.37524617159517,120.168802153517 L 266.30281166371486,120.168802153517 L 284.05633244129587,89.418802153517 L 286.592549695236,93.81165929637415 L 271.37524617159517,120.168802153517 Z"
         id="path49"
         style="vector-effect:non-scaling-stroke;-inkscape-stroke:hairline;stroke-width:0.26458333;stroke-dasharray:none" />
      <path
         d="M 289.97417270048953,99.668802153517 L 292.93309283008637,104.79380215351699 L 284.05633244129587,120.16880215351699 L 278.1384921821022,120.168802153517 L 289.97417270048953,99.668802153517 Z"
         id="path50"
         style="vector-effect:non-scaling-stroke;-inkscape-stroke:hairline;stroke-width:0.26458333;stroke-dasharray:none" />
      <path
         d="M 248.5492908861339,141.681197846483 L 230.7957701085529,110.931197846483 L 248.5492908861339,110.931197846483 L 257.42605127492436,126.306197846483 L 248.5492908861339,141.681197846483 Z"
         id="path51"
         style="vector-effect:non-scaling-stroke;-inkscape-stroke:hairline;stroke-width:0.26458333;stroke-dasharray:none" />
      <path
         d="M 217.04224933097188,87.1094010767585 L 252.54929088613386,87.1094010767585 L 243.6725304973434,102.4844010767585 L 225.91900971976239,102.4844010767585 L 217.04224933097188,87.1094010767585 Z"
         id="path52"
         style="vector-effect:non-scaling-stroke;-inkscape-stroke:hairline;stroke-width:0.26458333;stroke-dasharray:none" />
      <path
         d="M 259.7665944097747,113.46654393390136 L 262.30281166371486,117.8594010767585 L 280.05633244129587,87.1094010767585 L 274.98389793341556,87.1094010767585 L 259.7665944097747,113.46654393390136 Z"
         id="path53"
         style="vector-effect:non-scaling-stroke;-inkscape-stroke:hairline;stroke-width:0.26458333;stroke-dasharray:none" />
      <path
         d="M 268.22065192290853,87.1094010767585 L 262.30281166371486,87.1094010767585 L 253.4260512749244,102.4844010767585 L 256.3849714045212,107.6094010767585 L 268.22065192290853,87.1094010767585 Z"
         id="path54"
         style="vector-effect:non-scaling-stroke;-inkscape-stroke:hairline;stroke-width:0.26458333;stroke-dasharray:none" />
      <path
         d="M 217.0422493309719,82.49059892324149 L 252.5492908861339,82.49059892324149 L 243.6725304973434,67.11559892324149 L 225.91900971976239,67.11559892324149 L 217.0422493309719,82.49059892324149 Z"
         id="path55"
         style="vector-effect:non-scaling-stroke;-inkscape-stroke:hairline;stroke-width:0.26458333;stroke-dasharray:none" />
      <path
         d="M 280.05633244129587,82.49059892324149 L 262.30281166371486,51.74059892324149 L 253.4260512749244,67.11559892324149 L 262.30281166371486,82.49059892324149 L 280.05633244129587,82.49059892324149 Z"
         id="path56"
         style="vector-effect:non-scaling-stroke;-inkscape-stroke:hairline;stroke-width:0.26458333;stroke-dasharray:none" />
      <path
         d="M 235.86820461643316,58.66880215351701 L 230.7957701085529,58.66880215351701 L 248.54929088613386,27.918802153516992 L 251.085508140074,32.31165929637416 L 235.86820461643316,58.66880215351701 Z"
         id="path57"
         style="vector-effect:non-scaling-stroke;-inkscape-stroke:hairline;stroke-width:0.26458333;stroke-dasharray:none" />
      <path
         d="M 254.46713114532753,38.16880215351699 L 257.42605127492436,43.29380215351701 L 248.54929088613386,58.66880215351701 L 242.63145062694022,58.66880215351701 L 254.46713114532753,38.16880215351699 Z"
         id="path58"
         style="vector-effect:non-scaling-stroke;-inkscape-stroke:hairline;stroke-width:0.26458333;stroke-dasharray:none" />
      <path
         d="M 213.0422493309719,80.181197846483 L 195.2887285533909,49.431197846483 L 213.0422493309719,49.43119784648299 L 221.91900971976239,64.806197846483 L 213.0422493309719,80.181197846483 Z"
         id="path59"
         style="vector-effect:non-scaling-stroke;-inkscape-stroke:hairline;stroke-width:0.26458333;stroke-dasharray:none" />
      <path
         d="M 181.5352077758099,25.609401076758502 L 217.04224933097188,25.609401076758502 L 208.1654889421814,40.9844010767585 L 190.4119681646004,40.9844010767585 L 181.5352077758099,25.609401076758502 Z"
         id="path60"
         style="vector-effect:non-scaling-stroke;-inkscape-stroke:hairline;stroke-width:0.26458333;stroke-dasharray:none" />
      <path
         d="M 224.25955285461276,51.96654393390136 L 226.7957701085529,56.3594010767585 L 244.5492908861339,25.609401076758502 L 239.47685637825361,25.609401076758502 L 224.25955285461276,51.96654393390136 Z"
         id="path61"
         style="vector-effect:non-scaling-stroke;-inkscape-stroke:hairline;stroke-width:0.26458333;stroke-dasharray:none" />
      <path
         d="M 232.71361036774655,25.609401076758502 L 226.79577010855292,25.609401076758502 L 217.9190097197624,40.9844010767585 L 220.87792984935922,46.1094010767585 L 232.71361036774655,25.609401076758502 Z"
         id="path62"
         style="vector-effect:non-scaling-stroke;-inkscape-stroke:hairline;stroke-width:0.26458333;stroke-dasharray:none" />
      <path
         d="M 315.56337399645787,25.609401076758502 L 280.05633244129587,25.609401076758502 L 288.93309283008637,40.9844010767585 L 306.68661360766737,40.9844010767585 L 315.56337399645787,25.609401076758502 Z"
         id="path63"
         style="vector-effect:non-scaling-stroke;-inkscape-stroke:hairline;stroke-width:0.26458333;stroke-dasharray:none" />
      <path
         d="M 252.5492908861339,25.609401076758502 L 270.30281166371486,56.3594010767585 L 279.17957205250536,40.9844010767585 L 270.30281166371486,25.609401076758502 L 252.5492908861339,25.609401076758502 Z"
         id="path64"
         style="vector-effect:non-scaling-stroke;-inkscape-stroke:hairline;stroke-width:0.26458333;stroke-dasharray:none" />
      <path
         d="M 296.73741871099656,49.43119784648299 L 301.80985321887687,49.43119784648299 L 284.05633244129587,80.18119784648299 L 281.5201151873557,75.78834070362585 L 296.73741871099656,49.43119784648299 Z"
         id="path65"
         style="vector-effect:non-scaling-stroke;-inkscape-stroke:hairline;stroke-width:0.26458333;stroke-dasharray:none" />
      <path
         d="M 278.1384921821022,69.93119784648299 L 275.17957205250536,64.806197846483 L 284.05633244129587,49.43119784648299 L 289.97417270048953,49.43119784648299 L 278.1384921821022,69.93119784648299 Z"
         id="path66"
         style="vector-effect:non-scaling-stroke;-inkscape-stroke:hairline;stroke-width:0.26458333;stroke-dasharray:none" />
      <path
         d="M 319.56337399645787,27.918802153516992 L 337.3168947740388,58.66880215351699 L 319.56337399645787,58.66880215351701 L 310.68661360766737,43.29380215351699 L 319.56337399645787,27.918802153516992 Z"
         id="path67"
         style="vector-effect:non-scaling-stroke;-inkscape-stroke:hairline;stroke-width:0.26458333;stroke-dasharray:none" />
      <path
         d="M 351.0704155516198,82.49059892324149 L 315.56337399645787,82.49059892324149 L 324.44013438524837,67.11559892324149 L 342.1936551628293,67.11559892324149 L 351.0704155516198,82.49059892324149 Z"
         id="path68"
         style="vector-effect:non-scaling-stroke;-inkscape-stroke:hairline;stroke-width:0.26458333;stroke-dasharray:none" />
      <path
         d="M 308.346070472817,56.13345606609863 L 305.80985321887687,51.74059892324149 L 288.05633244129587,82.49059892324149 L 293.12876694917617,82.49059892324149 L 308.346070472817,56.13345606609863 Z"
         id="path69"
         style="vector-effect:non-scaling-stroke;-inkscape-stroke:hairline;stroke-width:0.26458333;stroke-dasharray:none" />
      <path
         d="M 299.8920129596832,82.49059892324149 L 305.80985321887687,82.49059892324149 L 314.68661360766737,67.11559892324149 L 311.72769347807053,61.99059892324149 L 299.8920129596832,82.49059892324149 Z"
         id="path70"
         style="vector-effect:non-scaling-stroke;-inkscape-stroke:hairline;stroke-width:0.26458333;stroke-dasharray:none" />
      <path
         d="M 351.0704155516198,87.1094010767585 L 315.56337399645787,87.1094010767585 L 324.44013438524837,102.4844010767585 L 342.1936551628293,102.4844010767585 L 351.0704155516198,87.1094010767585 Z"
         id="path71"
         style="vector-effect:non-scaling-stroke;-inkscape-stroke:hairline;stroke-width:0.26458333;stroke-dasharray:none" />
      <path
         d="M 288.05633244129587,87.1094010767585 L 305.80985321887687,117.8594010767585 L 314.68661360766737,102.4844010767585 L 305.80985321887687,87.1094010767585 L 288.05633244129587,87.1094010767585 Z"
         id="path72"
         style="vector-effect:non-scaling-stroke;-inkscape-stroke:hairline;stroke-width:0.26458333;stroke-dasharray:none" />
      <path
         d="M 332.24446026615857,110.93119784648299 L 337.3168947740388,110.93119784648299 L 319.56337399645787,141.68119784648297 L 317.0271567425177,137.28834070362586 L 332.24446026615857,110.93119784648299 Z"
         id="path73"
         style="vector-effect:non-scaling-stroke;-inkscape-stroke:hairline;stroke-width:0.26458333;stroke-dasharray:none" />
      <path
         d="M 313.6455337372642,131.43119784648297 L 310.68661360766737,126.30619784648299 L 319.56337399645787,110.93119784648299 L 325.4812142556515,110.93119784648299 L 313.6455337372642,131.43119784648297 Z"
         id="path74"
         style="vector-effect:non-scaling-stroke;-inkscape-stroke:hairline;stroke-width:0.26458333;stroke-dasharray:none" />
      <path
         d="M 355.0704155516198,89.41880215351699 L 372.8239363292008,120.16880215351699 L 355.0704155516198,120.168802153517 L 346.1936551628293,104.79380215351699 L 355.0704155516198,89.41880215351699 Z"
         id="path75"
         style="vector-effect:non-scaling-stroke;-inkscape-stroke:hairline;stroke-width:0.26458333;stroke-dasharray:none" />
      <path
         d="M 386.5774571067818,143.99059892324146 L 351.0704155516198,143.9905989232415 L 359.9471759404103,128.6155989232415 L 377.7006967179913,128.6155989232415 L 386.5774571067818,143.99059892324146 Z"
         id="path76"
         style="vector-effect:non-scaling-stroke;-inkscape-stroke:hairline;stroke-width:0.26458333;stroke-dasharray:none" />
      <path
         d="M 343.85311202797897,117.63345606609863 L 341.3168947740388,113.24059892324149 L 323.56337399645787,143.99059892324146 L 328.6358085043381,143.99059892324146 L 343.85311202797897,117.63345606609863 Z"
         id="path77"
         style="vector-effect:non-scaling-stroke;-inkscape-stroke:hairline;stroke-width:0.26458333;stroke-dasharray:none" />
      <path
         d="M 335.39905451484515,143.9905989232415 L 341.3168947740388,143.99059892324146 L 350.1936551628293,128.6155989232415 L 347.2347350332325,123.49059892324149 L 335.39905451484515,143.9905989232415 Z"
         id="path78"
         style="vector-effect:non-scaling-stroke;-inkscape-stroke:hairline;stroke-width:0.26458333;stroke-dasharray:none" />
      <path
         d="M 394.5774571067818,143.9905989232415 L 430.0844986619438,143.9905989232415 L 421.2077382731533,128.6155989232415 L 403.4542174955723,128.6155989232415 L 394.5774571067818,143.9905989232415 Z"
         id="path79"
         style="vector-effect:non-scaling-stroke;-inkscape-stroke:hairline;stroke-width:0.26458333;stroke-dasharray:none" />
      <path
         d="M 457.59154021710583,143.9905989232415 L 439.8380194395248,113.24059892324149 L 430.9612590507343,128.6155989232415 L 439.8380194395248,143.9905989232415 L 457.59154021710583,143.9905989232415 Z"
         id="path80"
         style="vector-effect:non-scaling-stroke;-inkscape-stroke:hairline;stroke-width:0.26458333;stroke-dasharray:none" />
      <path
         d="M 413.4034123922431,120.168802153517 L 408.3309778843628,120.168802153517 L 426.0844986619438,89.418802153517 L 428.620715915884,93.81165929637415 L 413.4034123922431,120.168802153517 Z"
         id="path81"
         style="vector-effect:non-scaling-stroke;-inkscape-stroke:hairline;stroke-width:0.26458333;stroke-dasharray:none" />
      <path
         d="M 432.0023389211375,99.668802153517 L 434.9612590507343,104.79380215351699 L 426.0844986619438,120.16880215351699 L 420.16665840275016,120.168802153517 L 432.0023389211375,99.668802153517 Z"
         id="path82"
         style="vector-effect:non-scaling-stroke;-inkscape-stroke:hairline;stroke-width:0.26458333;stroke-dasharray:none" />
      <path
         d="M 390.5774571067818,141.681197846483 L 372.8239363292008,110.931197846483 L 390.5774571067818,110.931197846483 L 399.4542174955723,126.306197846483 L 390.5774571067818,141.681197846483 Z"
         id="path83"
         style="vector-effect:non-scaling-stroke;-inkscape-stroke:hairline;stroke-width:0.26458333;stroke-dasharray:none" />
      <path
         d="M 359.0704155516198,87.1094010767585 L 394.5774571067818,87.1094010767585 L 385.7006967179914,102.4844010767585 L 367.9471759404104,102.4844010767585 L 359.0704155516198,87.1094010767585 Z"
         id="path84"
         style="vector-effect:non-scaling-stroke;-inkscape-stroke:hairline;stroke-width:0.26458333;stroke-dasharray:none" />
      <path
         d="M 401.7947606304227,113.46654393390136 L 404.3309778843628,117.8594010767585 L 422.0844986619438,87.1094010767585 L 417.0120641540635,87.1094010767585 L 401.7947606304227,113.46654393390136 Z"
         id="path85"
         style="vector-effect:non-scaling-stroke;-inkscape-stroke:hairline;stroke-width:0.26458333;stroke-dasharray:none" />
      <path
         d="M 410.2488181435565,87.1094010767585 L 404.3309778843628,87.1094010767585 L 395.4542174955723,102.4844010767585 L 398.41313762516916,107.6094010767585 L 410.2488181435565,87.1094010767585 Z"
         id="path86"
         style="vector-effect:non-scaling-stroke;-inkscape-stroke:hairline;stroke-width:0.26458333;stroke-dasharray:none" />
      <path
         d="M 359.0704155516199,82.49059892324149 L 394.5774571067818,82.49059892324149 L 385.7006967179914,67.11559892324149 L 367.9471759404104,67.11559892324149 L 359.0704155516199,82.49059892324149 Z"
         id="path87"
         style="vector-effect:non-scaling-stroke;-inkscape-stroke:hairline;stroke-width:0.26458333;stroke-dasharray:none" />
      <path
         d="M 422.0844986619438,82.49059892324149 L 404.3309778843628,51.74059892324149 L 395.4542174955723,67.11559892324149 L 404.3309778843628,82.49059892324149 L 422.0844986619438,82.49059892324149 Z"
         id="path88"
         style="vector-effect:non-scaling-stroke;-inkscape-stroke:hairline;stroke-width:0.26458333;stroke-dasharray:none" />
      <path
         d="M 377.8963708370811,58.66880215351701 L 372.8239363292009,58.66880215351701 L 390.5774571067818,27.918802153516992 L 393.113674360722,32.31165929637416 L 377.8963708370811,58.66880215351701 Z"
         id="path89"
         style="vector-effect:non-scaling-stroke;-inkscape-stroke:hairline;stroke-width:0.26458333;stroke-dasharray:none" />
      <path
         d="M 396.4952973659755,38.16880215351699 L 399.4542174955723,43.29380215351701 L 390.5774571067818,58.66880215351701 L 384.65961684758815,58.66880215351701 L 396.4952973659755,38.16880215351699 Z"
         id="path90"
         style="vector-effect:non-scaling-stroke;-inkscape-stroke:hairline;stroke-width:0.26458333;stroke-dasharray:none" />
      <path
         d="M 355.0704155516199,80.181197846483 L 337.3168947740389,49.431197846483 L 355.0704155516199,49.43119784648299 L 363.9471759404104,64.806197846483 L 355.0704155516199,80.181197846483 Z"
         id="path91"
         style="vector-effect:non-scaling-stroke;-inkscape-stroke:hairline;stroke-width:0.26458333;stroke-dasharray:none" />
      <path
         d="M 323.56337399645787,25.609401076758502 L 359.0704155516198,25.609401076758502 L 350.1936551628294,40.9844010767585 L 332.44013438524837,40.9844010767585 L 323.56337399645787,25.609401076758502 Z"
         id="path92"
         style="vector-effect:non-scaling-stroke;-inkscape-stroke:hairline;stroke-width:0.26458333;stroke-dasharray:none" />
      <path
         d="M 366.2877190752607,51.96654393390136 L 368.8239363292008,56.3594010767585 L 386.5774571067818,25.609401076758502 L 381.5050225989016,25.609401076758502 L 366.2877190752607,51.96654393390136 Z"
         id="path93"
         style="vector-effect:non-scaling-stroke;-inkscape-stroke:hairline;stroke-width:0.26458333;stroke-dasharray:none" />
      <path
         d="M 374.7417765883945,25.609401076758502 L 368.8239363292009,25.609401076758502 L 359.9471759404104,40.9844010767585 L 362.9060960700072,46.1094010767585 L 374.7417765883945,25.609401076758502 Z"
         id="path94"
         style="vector-effect:non-scaling-stroke;-inkscape-stroke:hairline;stroke-width:0.26458333;stroke-dasharray:none" />
      <path
         d="M 457.59154021710583,25.609401076758502 L 422.0844986619438,25.609401076758502 L 430.9612590507343,40.9844010767585 L 448.71477982831533,40.9844010767585 L 457.59154021710583,25.609401076758502 Z"
         id="path95"
         style="vector-effect:non-scaling-stroke;-inkscape-stroke:hairline;stroke-width:0.26458333;stroke-dasharray:none" />
      <path
         d="M 394.5774571067818,25.609401076758502 L 412.3309778843628,56.3594010767585 L 421.2077382731533,40.9844010767585 L 412.3309778843628,25.609401076758502 L 394.5774571067818,25.609401076758502 Z"
         id="path96"
         style="vector-effect:non-scaling-stroke;-inkscape-stroke:hairline;stroke-width:0.26458333;stroke-dasharray:none" />
      <path
         d="M 438.7655849316445,49.43119784648299 L 443.8380194395248,49.43119784648299 L 426.0844986619438,80.18119784648299 L 423.5482814080037,75.78834070362585 L 438.7655849316445,49.43119784648299 Z"
         id="path97"
         style="vector-effect:non-scaling-stroke;-inkscape-stroke:hairline;stroke-width:0.26458333;stroke-dasharray:none" />
      <path
         d="M 420.16665840275016,69.93119784648299 L 417.2077382731533,64.806197846483 L 426.0844986619438,49.43119784648299 L 432.0023389211375,49.43119784648299 L 420.16665840275016,69.93119784648299 Z"
         id="path98"
         style="vector-effect:non-scaling-stroke;-inkscape-stroke:hairline;stroke-width:0.26458333;stroke-dasharray:none" />
      <path
         d="M 461.59154021710583,27.918802153516992 L 479.34506099468683,58.66880215351699 L 461.59154021710583,58.66880215351701 L 452.71477982831533,43.29380215351699 L 461.59154021710583,27.918802153516992 Z"
         id="path99"
         style="vector-effect:non-scaling-stroke;-inkscape-stroke:hairline;stroke-width:0.26458333;stroke-dasharray:none" />
      <path
         d="M 493.09858177226783,82.49059892324149 L 457.59154021710583,82.49059892324149 L 466.4683006058963,67.11559892324149 L 484.2218213834773,67.11559892324149 L 493.09858177226783,82.49059892324149 Z"
         id="path100"
         style="vector-effect:non-scaling-stroke;-inkscape-stroke:hairline;stroke-width:0.26458333;stroke-dasharray:none" />
      <path
         d="M 450.374236693465,56.13345606609863 L 447.8380194395248,51.74059892324149 L 430.0844986619438,82.49059892324149 L 435.15693316982413,82.49059892324149 L 450.374236693465,56.13345606609863 Z"
         id="path101"
         style="vector-effect:non-scaling-stroke;-inkscape-stroke:hairline;stroke-width:0.26458333;stroke-dasharray:none" />
      <path
         d="M 441.92017918033116,82.49059892324149 L 447.8380194395248,82.49059892324149 L 456.71477982831533,67.11559892324149 L 453.7558596987185,61.99059892324149 L 441.92017918033116,82.49059892324149 Z"
         id="path102"
         style="vector-effect:non-scaling-stroke;-inkscape-stroke:hairline;stroke-width:0.26458333;stroke-dasharray:none" />
      <path
         d="M 493.0985817722678,87.1094010767585 L 457.59154021710583,87.1094010767585 L 466.4683006058963,102.4844010767585 L 484.2218213834773,102.4844010767585 L 493.0985817722678,87.1094010767585 Z"
         id="path103"
         style="vector-effect:non-scaling-stroke;-inkscape-stroke:hairline;stroke-width:0.26458333;stroke-dasharray:none" />
      <path
         d="M 430.0844986619438,87.1094010767585 L 447.8380194395248,117.8594010767585 L 456.71477982831533,102.4844010767585 L 447.8380194395248,87.1094010767585 L 430.0844986619438,87.1094010767585 Z"
         id="path104"
         style="vector-effect:non-scaling-stroke;-inkscape-stroke:hairline;stroke-width:0.26458333;stroke-dasharray:none" />
      <path
         d="M 474.27262648680653,110.93119784648299 L 479.3450609946868,110.93119784648299 L 461.59154021710583,141.68119784648297 L 459.0553229631657,137.28834070362586 L 474.27262648680653,110.93119784648299 Z"
         id="path105"
         style="vector-effect:non-scaling-stroke;-inkscape-stroke:hairline;stroke-width:0.26458333;stroke-dasharray:none" />
      <path
         d="M 455.67369995791216,131.43119784648297 L 452.71477982831533,126.30619784648299 L 461.59154021710583,110.93119784648299 L 467.5093804762995,110.93119784648299 L 455.67369995791216,131.43119784648297 Z"
         id="path106"
         style="vector-effect:non-scaling-stroke;-inkscape-stroke:hairline;stroke-width:0.26458333;stroke-dasharray:none" />
      <path
         d="M 497.0985817722678,89.41880215351699 L 514.8521025498487,120.16880215351699 L 497.0985817722678,120.168802153517 L 488.2218213834773,104.79380215351699 L 497.0985817722678,89.41880215351699 Z"
         id="path107"
         style="vector-effect:non-scaling-stroke;-inkscape-stroke:hairline;stroke-width:0.26458333;stroke-dasharray:none" />
      <path
         d="M 528.6056233274298,143.99059892324146 L 493.09858177226783,143.9905989232415 L 501.9753421610583,128.6155989232415 L 519.7288629386393,128.6155989232415 L 528.6056233274298,143.99059892324146 Z"
         id="path108"
         style="vector-effect:non-scaling-stroke;-inkscape-stroke:hairline;stroke-width:0.26458333;stroke-dasharray:none" />
      <path
         d="M 485.8812782486269,117.63345606609863 L 483.34506099468683,113.24059892324149 L 465.59154021710583,143.99059892324146 L 470.6639747249861,143.99059892324146 L 485.8812782486269,117.63345606609863 Z"
         id="path109"
         style="vector-effect:non-scaling-stroke;-inkscape-stroke:hairline;stroke-width:0.26458333;stroke-dasharray:none" />
      <path
         d="M 477.42722073549317,143.9905989232415 L 483.3450609946868,143.99059892324146 L 492.2218213834773,128.6155989232415 L 489.26290125388044,123.49059892324149 L 477.42722073549317,143.9905989232415 Z"
         id="path110"
         style="vector-effect:non-scaling-stroke;-inkscape-stroke:hairline;stroke-width:0.26458333;stroke-dasharray:none" />
      <path
         d="M 536.6056233274297,143.9905989232415 L 572.1126648825917,143.9905989232415 L 563.2359044938013,128.6155989232415 L 545.4823837162203,128.6155989232415 L 536.6056233274297,143.9905989232415 Z"
         id="path111"
         style="vector-effect:non-scaling-stroke;-inkscape-stroke:hairline;stroke-width:0.26458333;stroke-dasharray:none" />
      <path
         d="M 599.6197064377537,143.9905989232415 L 581.8661856601727,113.24059892324149 L 572.9894252713822,128.6155989232415 L 581.8661856601727,143.9905989232415 L 599.6197064377537,143.9905989232415 Z"
         id="path112"
         style="vector-effect:non-scaling-stroke;-inkscape-stroke:hairline;stroke-width:0.26458333;stroke-dasharray:none" />
      <path
         d="M 555.431578612891,120.168802153517 L 550.3591441050107,120.168802153517 L 568.1126648825917,89.418802153517 L 570.6488821365318,93.81165929637415 L 555.431578612891,120.168802153517 Z"
         id="path113"
         style="vector-effect:non-scaling-stroke;-inkscape-stroke:hairline;stroke-width:0.26458333;stroke-dasharray:none" />
      <path
         d="M 574.0305051417854,99.668802153517 L 576.9894252713822,104.79380215351699 L 568.1126648825917,120.16880215351699 L 562.1948246233981,120.168802153517 L 574.0305051417854,99.668802153517 Z"
         id="path114"
         style="vector-effect:non-scaling-stroke;-inkscape-stroke:hairline;stroke-width:0.26458333;stroke-dasharray:none" />
      <path
         d="M 532.6056233274297,141.681197846483 L 514.8521025498487,110.931197846483 L 532.6056233274297,110.931197846483 L 541.4823837162203,126.306197846483 L 532.6056233274297,141.681197846483 Z"
         id="path115"
         style="vector-effect:non-scaling-stroke;-inkscape-stroke:hairline;stroke-width:0.26458333;stroke-dasharray:none" />
      <path
         d="M 501.0985817722677,87.1094010767585 L 536.6056233274297,87.1094010767585 L 527.7288629386393,102.4844010767585 L 509.9753421610583,102.4844010767585 L 501.0985817722677,87.1094010767585 Z"
         id="path116"
         style="vector-effect:non-scaling-stroke;-inkscape-stroke:hairline;stroke-width:0.26458333;stroke-dasharray:none" />
      <path
         d="M 543.8229268510706,113.46654393390136 L 546.3591441050107,117.8594010767585 L 564.1126648825917,87.1094010767585 L 559.0402303747114,87.1094010767585 L 543.8229268510706,113.46654393390136 Z"
         id="path117"
         style="vector-effect:non-scaling-stroke;-inkscape-stroke:hairline;stroke-width:0.26458333;stroke-dasharray:none" />
      <path
         d="M 552.2769843642044,87.1094010767585 L 546.3591441050107,87.1094010767585 L 537.4823837162203,102.4844010767585 L 540.4413038458171,107.6094010767585 L 552.2769843642044,87.1094010767585 Z"
         id="path118"
         style="vector-effect:non-scaling-stroke;-inkscape-stroke:hairline;stroke-width:0.26458333;stroke-dasharray:none" />
      <path
         d="M 501.0985817722678,82.49059892324149 L 536.6056233274297,82.49059892324149 L 527.7288629386393,67.11559892324149 L 509.9753421610583,67.11559892324149 L 501.0985817722678,82.49059892324149 Z"
         id="path119"
         style="vector-effect:non-scaling-stroke;-inkscape-stroke:hairline;stroke-width:0.26458333;stroke-dasharray:none" />
      <path
         d="M 564.1126648825917,82.49059892324149 L 546.3591441050107,51.74059892324149 L 537.4823837162203,67.11559892324149 L 546.3591441050107,82.49059892324149 L 564.1126648825917,82.49059892324149 Z"
         id="path120"
         style="vector-effect:non-scaling-stroke;-inkscape-stroke:hairline;stroke-width:0.26458333;stroke-dasharray:none" />
      <path
         d="M 519.924537057729,58.66880215351701 L 514.8521025498487,58.66880215351701 L 532.6056233274297,27.918802153516992 L 535.1418405813699,32.31165929637416 L 519.924537057729,58.66880215351701 Z"
         id="path121"
         style="vector-effect:non-scaling-stroke;-inkscape-stroke:hairline;stroke-width:0.26458333;stroke-dasharray:none" />
      <path
         d="M 538.5234635866234,38.16880215351699 L 541.4823837162203,43.29380215351701 L 532.6056233274297,58.66880215351701 L 526.6877830682361,58.66880215351701 L 538.5234635866234,38.16880215351699 Z"
         id="path122"
         style="vector-effect:non-scaling-stroke;-inkscape-stroke:hairline;stroke-width:0.26458333;stroke-dasharray:none" />
      <path
         d="M 497.0985817722678,80.181197846483 L 479.3450609946868,49.431197846483 L 497.0985817722678,49.43119784648299 L 505.9753421610583,64.806197846483 L 497.0985817722678,80.181197846483 Z"
         id="path123"
         style="vector-effect:non-scaling-stroke;-inkscape-stroke:hairline;stroke-width:0.26458333;stroke-dasharray:none" />
      <path
         d="M 465.5915402171058,25.609401076758502 L 501.0985817722677,25.609401076758502 L 492.2218213834773,40.9844010767585 L 474.4683006058963,40.9844010767585 L 465.5915402171058,25.609401076758502 Z"
         id="path124"
         style="vector-effect:non-scaling-stroke;-inkscape-stroke:hairline;stroke-width:0.26458333;stroke-dasharray:none" />
      <path
         d="M 508.31588529590863,51.96654393390136 L 510.8521025498487,56.3594010767585 L 528.6056233274297,25.609401076758502 L 523.5331888195494,25.609401076758502 L 508.31588529590863,51.96654393390136 Z"
         id="path125"
         style="vector-effect:non-scaling-stroke;-inkscape-stroke:hairline;stroke-width:0.26458333;stroke-dasharray:none" />
      <path
         d="M 516.7699428090424,25.609401076758502 L 510.8521025498488,25.609401076758502 L 501.9753421610583,40.9844010767585 L 504.9342622906551,46.1094010767585 L 516.7699428090424,25.609401076758502 Z"
         id="path126"
         style="vector-effect:non-scaling-stroke;-inkscape-stroke:hairline;stroke-width:0.26458333;stroke-dasharray:none" />
      <path
         d="M 599.6197064377537,25.609401076758502 L 564.1126648825917,25.609401076758502 L 572.9894252713822,40.9844010767585 L 590.7429460489632,40.9844010767585 L 599.6197064377537,25.609401076758502 Z"
         id="path127"
         style="vector-effect:non-scaling-stroke;-inkscape-stroke:hairline;stroke-width:0.26458333;stroke-dasharray:none" />
      <path
         d="M 536.6056233274297,25.609401076758502 L 554.3591441050107,56.3594010767585 L 563.2359044938013,40.9844010767585 L 554.3591441050107,25.609401076758502 L 536.6056233274297,25.609401076758502 Z"
         id="path128"
         style="vector-effect:non-scaling-stroke;-inkscape-stroke:hairline;stroke-width:0.26458333;stroke-dasharray:none" />
      <path
         d="M 580.7937511522924,49.43119784648299 L 585.8661856601727,49.43119784648299 L 568.1126648825917,80.18119784648299 L 565.5764476286516,75.78834070362585 L 580.7937511522924,49.43119784648299 Z"
         id="path129"
         style="vector-effect:non-scaling-stroke;-inkscape-stroke:hairline;stroke-width:0.26458333;stroke-dasharray:none" />
      <path
         d="M 562.1948246233981,69.93119784648299 L 559.2359044938013,64.806197846483 L 568.1126648825917,49.43119784648299 L 574.0305051417854,49.43119784648299 L 562.1948246233981,69.93119784648299 Z"
         id="path130"
         style="vector-effect:non-scaling-stroke;-inkscape-stroke:hairline;stroke-width:0.26458333;stroke-dasharray:none" />
      <path
         d="M 603.6197064377537,27.918802153516992 L 621.3732272153347,58.66880215351699 L 603.6197064377537,58.66880215351701 L 594.7429460489632,43.29380215351699 L 603.6197064377537,27.918802153516992 Z"
         id="path131"
         style="vector-effect:non-scaling-stroke;-inkscape-stroke:hairline;stroke-width:0.26458333;stroke-dasharray:none" />
      <path
         d="M 635.1267479929157,82.49059892324149 L 599.6197064377537,82.49059892324149 L 608.4964668265442,67.11559892324149 L 626.2499876041252,67.11559892324149 L 635.1267479929157,82.49059892324149 Z"
         id="path132"
         style="vector-effect:non-scaling-stroke;-inkscape-stroke:hairline;stroke-width:0.26458333;stroke-dasharray:none" />
      <path
         d="M 592.4024029141128,56.13345606609863 L 589.8661856601727,51.74059892324149 L 572.1126648825917,82.49059892324149 L 577.185099390472,82.49059892324149 L 592.4024029141128,56.13345606609863 Z"
         id="path133"
         style="vector-effect:non-scaling-stroke;-inkscape-stroke:hairline;stroke-width:0.26458333;stroke-dasharray:none" />
      <path
         d="M 583.9483454009791,82.49059892324149 L 589.8661856601727,82.49059892324149 L 598.7429460489632,67.11559892324149 L 595.7840259193664,61.99059892324149 L 583.9483454009791,82.49059892324149 Z"
         id="path134"
         style="vector-effect:non-scaling-stroke;-inkscape-stroke:hairline;stroke-width:0.26458333;stroke-dasharray:none" />
      <path
         d="M 635.1267479929157,87.1094010767585 L 599.6197064377537,87.1094010767585 L 608.4964668265442,102.4844010767585 L 626.2499876041252,102.4844010767585 L 635.1267479929157,87.1094010767585 Z"
         id="path135"
         style="vector-effect:non-scaling-stroke;-inkscape-stroke:hairline;stroke-width:0.26458333;stroke-dasharray:none" />
      <path
         d="M 572.1126648825917,87.1094010767585 L 589.8661856601727,117.8594010767585 L 598.7429460489632,102.4844010767585 L 589.8661856601727,87.1094010767585 L 572.1126648825917,87.1094010767585 Z"
         id="path136"
         style="vector-effect:non-scaling-stroke;-inkscape-stroke:hairline;stroke-width:0.26458333;stroke-dasharray:none" />
      <path
         d="M 616.3007927074544,110.93119784648299 L 621.3732272153347,110.93119784648299 L 603.6197064377537,141.68119784648297 L 601.0834891838135,137.28834070362586 L 616.3007927074544,110.93119784648299 Z"
         id="path137"
         style="vector-effect:non-scaling-stroke;-inkscape-stroke:hairline;stroke-width:0.26458333;stroke-dasharray:none" />
      <path
         d="M 597.7018661785601,131.43119784648297 L 594.7429460489632,126.30619784648299 L 603.6197064377537,110.93119784648299 L 609.5375466969474,110.93119784648299 L 597.7018661785601,131.43119784648297 Z"
         id="path138"
         style="vector-effect:non-scaling-stroke;-inkscape-stroke:hairline;stroke-width:0.26458333;stroke-dasharray:none" />
      <path
         d="M 639.1267479929157,89.41880215351699 L 656.8802687704967,120.16880215351699 L 639.1267479929157,120.168802153517 L 630.2499876041252,104.79380215351699 L 639.1267479929157,89.41880215351699 Z"
         id="path139"
         style="vector-effect:non-scaling-stroke;-inkscape-stroke:hairline;stroke-width:0.26458333;stroke-dasharray:none" />
      <path
         d="M 670.6337895480776,143.99059892324146 L 635.1267479929157,143.9905989232415 L 644.0035083817062,128.6155989232415 L 661.7570291592872,128.6155989232415 L 670.6337895480776,143.99059892324146 Z"
         id="path140"
         style="vector-effect:non-scaling-stroke;-inkscape-stroke:hairline;stroke-width:0.26458333;stroke-dasharray:none" />
      <path
         d="M 627.9094444692748,117.63345606609863 L 625.3732272153347,113.24059892324149 L 607.6197064377537,143.99059892324146 L 612.692140945634,143.99059892324146 L 627.9094444692748,117.63345606609863 Z"
         id="path141"
         style="vector-effect:non-scaling-stroke;-inkscape-stroke:hairline;stroke-width:0.26458333;stroke-dasharray:none" />
      <path
         d="M 619.4553869561411,143.9905989232415 L 625.3732272153347,143.99059892324146 L 634.2499876041252,128.6155989232415 L 631.2910674745284,123.49059892324149 L 619.4553869561411,143.9905989232415 Z"
         id="path142"
         style="vector-effect:non-scaling-stroke;-inkscape-stroke:hairline;stroke-width:0.26458333;stroke-dasharray:none" />
      <path
         d="M 678.6337895480776,143.9905989232415 L 714.1408311032396,143.9905989232415 L 705.2640707144492,128.6155989232415 L 687.5105499368682,128.6155989232415 L 678.6337895480776,143.9905989232415 Z"
         id="path143"
         style="vector-effect:non-scaling-stroke;-inkscape-stroke:hairline;stroke-width:0.26458333;stroke-dasharray:none" />
      <path
         d="M 741.6478726584016,143.9905989232415 L 723.8943518808206,113.24059892324149 L 715.0175914920301,128.6155989232415 L 723.8943518808206,143.9905989232415 L 741.6478726584016,143.9905989232415 Z"
         id="path144"
         style="vector-effect:non-scaling-stroke;-inkscape-stroke:hairline;stroke-width:0.26458333;stroke-dasharray:none" />
      <path
         d="M 697.4597448335389,120.168802153517 L 692.3873103256586,120.168802153517 L 710.1408311032396,89.418802153517 L 712.6770483571797,93.81165929637415 L 697.4597448335389,120.168802153517 Z"
         id="path145"
         style="vector-effect:non-scaling-stroke;-inkscape-stroke:hairline;stroke-width:0.26458333;stroke-dasharray:none" />
      <path
         d="M 716.0586713624333,99.668802153517 L 719.0175914920301,104.79380215351699 L 710.1408311032396,120.16880215351699 L 704.222990844046,120.168802153517 L 716.0586713624333,99.668802153517 Z"
         id="path146"
         style="vector-effect:non-scaling-stroke;-inkscape-stroke:hairline;stroke-width:0.26458333;stroke-dasharray:none" />
      <path
         d="M 674.6337895480776,141.681197846483 L 656.8802687704966,110.931197846483 L 674.6337895480776,110.931197846483 L 683.5105499368682,126.306197846483 L 674.6337895480776,141.681197846483 Z"
         id="path147"
         style="vector-effect:non-scaling-stroke;-inkscape-stroke:hairline;stroke-width:0.26458333;stroke-dasharray:none" />
      <path
         d="M 643.1267479929156,87.1094010767585 L 678.6337895480776,87.1094010767585 L 669.7570291592872,102.4844010767585 L 652.0035083817062,102.4844010767585 L 643.1267479929156,87.1094010767585 Z"
         id="path148"
         style="vector-effect:non-scaling-stroke;-inkscape-stroke:hairline;stroke-width:0.26458333;stroke-dasharray:none" />
      <path
         d="M 685.8510930717185,113.46654393390136 L 688.3873103256586,117.8594010767585 L 706.1408311032396,87.1094010767585 L 701.0683965953593,87.1094010767585 L 685.8510930717185,113.46654393390136 Z"
         id="path149"
         style="vector-effect:non-scaling-stroke;-inkscape-stroke:hairline;stroke-width:0.26458333;stroke-dasharray:none" />
      <path
         d="M 694.3051505848523,87.1094010767585 L 688.3873103256586,87.1094010767585 L 679.5105499368682,102.4844010767585 L 682.469470066465,107.6094010767585 L 694.3051505848523,87.1094010767585 Z"
         id="path150"
         style="vector-effect:non-scaling-stroke;-inkscape-stroke:hairline;stroke-width:0.26458333;stroke-dasharray:none" />
      <path
         d="M 643.1267479929156,82.49059892324149 L 678.6337895480776,82.49059892324149 L 669.7570291592872,67.11559892324149 L 652.0035083817062,67.11559892324149 L 643.1267479929156,82.49059892324149 Z"
         id="path151"
         style="vector-effect:non-scaling-stroke;-inkscape-stroke:hairline;stroke-width:0.26458333;stroke-dasharray:none" />
      <path
         d="M 706.1408311032396,82.49059892324149 L 688.3873103256586,51.74059892324149 L 679.5105499368682,67.11559892324149 L 688.3873103256586,82.49059892324149 L 706.1408311032396,82.49059892324149 Z"
         id="path152"
         style="vector-effect:non-scaling-stroke;-inkscape-stroke:hairline;stroke-width:0.26458333;stroke-dasharray:none" />
      <path
         d="M 661.9527032783769,58.66880215351701 L 656.8802687704966,58.66880215351701 L 674.6337895480776,27.918802153516992 L 677.1700068020177,32.31165929637416 L 661.9527032783769,58.66880215351701 Z"
         id="path153"
         style="vector-effect:non-scaling-stroke;-inkscape-stroke:hairline;stroke-width:0.26458333;stroke-dasharray:none" />
      <path
         d="M 680.5516298072713,38.16880215351699 L 683.5105499368682,43.29380215351701 L 674.6337895480776,58.66880215351701 L 668.715949288884,58.66880215351701 L 680.5516298072713,38.16880215351699 Z"
         id="path154"
         style="vector-effect:non-scaling-stroke;-inkscape-stroke:hairline;stroke-width:0.26458333;stroke-dasharray:none" />
      <path
         d="M 639.1267479929156,80.181197846483 L 621.3732272153347,49.431197846483 L 639.1267479929156,49.43119784648299 L 648.0035083817062,64.806197846483 L 639.1267479929156,80.181197846483 Z"
         id="path155"
         style="vector-effect:non-scaling-stroke;-inkscape-stroke:hairline;stroke-width:0.26458333;stroke-dasharray:none" />
      <path
         d="M 607.6197064377536,25.609401076758502 L 643.1267479929156,25.609401076758502 L 634.2499876041252,40.9844010767585 L 616.4964668265442,40.9844010767585 L 607.6197064377536,25.609401076758502 Z"
         id="path156"
         style="vector-effect:non-scaling-stroke;-inkscape-stroke:hairline;stroke-width:0.26458333;stroke-dasharray:none" />
      <path
         d="M 650.3440515165565,51.96654393390136 L 652.8802687704966,56.3594010767585 L 670.6337895480776,25.609401076758502 L 665.5613550401973,25.609401076758502 L 650.3440515165565,51.96654393390136 Z"
         id="path157"
         style="vector-effect:non-scaling-stroke;-inkscape-stroke:hairline;stroke-width:0.26458333;stroke-dasharray:none" />
      <path
         d="M 658.7981090296903,25.609401076758502 L 652.8802687704966,25.609401076758502 L 644.0035083817062,40.9844010767585 L 646.962428511303,46.1094010767585 L 658.7981090296903,25.609401076758502 Z"
         id="path158"
         style="vector-effect:non-scaling-stroke;-inkscape-stroke:hairline;stroke-width:0.26458333;stroke-dasharray:none" />
      <path
         d="M 741.6478726584016,25.609401076758502 L 706.1408311032396,25.609401076758502 L 715.0175914920301,40.9844010767585 L 732.7711122696111,40.9844010767585 L 741.6478726584016,25.609401076758502 Z"
         id="path159"
         style="vector-effect:non-scaling-stroke;-inkscape-stroke:hairline;stroke-width:0.26458333;stroke-dasharray:none" />
      <path
         d="M 678.6337895480776,25.609401076758502 L 696.3873103256586,56.3594010767585 L 705.2640707144492,40.9844010767585 L 696.3873103256586,25.609401076758502 L 678.6337895480776,25.609401076758502 Z"
         id="path160"
         style="vector-effect:non-scaling-stroke;-inkscape-stroke:hairline;stroke-width:0.26458333;stroke-dasharray:none" />
      <path
         d="M 722.8219173729403,49.43119784648299 L 727.8943518808206,49.43119784648299 L 710.1408311032396,80.18119784648299 L 707.6046138492995,75.78834070362585 L 722.8219173729403,49.43119784648299 Z"
         id="path161"
         style="vector-effect:non-scaling-stroke;-inkscape-stroke:hairline;stroke-width:0.26458333;stroke-dasharray:none" />
      <path
         d="M 704.222990844046,69.93119784648299 L 701.2640707144492,64.806197846483 L 710.1408311032396,49.43119784648299 L 716.0586713624333,49.43119784648299 L 704.222990844046,69.93119784648299 Z"
         id="path162"
         style="vector-effect:non-scaling-stroke;-inkscape-stroke:hairline;stroke-width:0.26458333;stroke-dasharray:none" />
      <path
         d="M 745.6478726584016,27.918802153516992 L 763.4013934359826,58.66880215351699 L 745.6478726584016,58.66880215351701 L 736.7711122696111,43.29380215351699 L 745.6478726584016,27.918802153516992 Z"
         id="path163"
         style="vector-effect:non-scaling-stroke;-inkscape-stroke:hairline;stroke-width:0.26458333;stroke-dasharray:none" />
      <path
         d="M 777.1549142135636,82.49059892324149 L 741.6478726584016,82.49059892324149 L 750.5246330471921,67.11559892324149 L 768.2781538247731,67.11559892324149 L 777.1549142135636,82.49059892324149 Z"
         id="path164"
         style="vector-effect:non-scaling-stroke;-inkscape-stroke:hairline;stroke-width:0.26458333;stroke-dasharray:none" />
      <path
         d="M 734.4305691347607,56.13345606609863 L 731.8943518808206,51.74059892324149 L 714.1408311032396,82.49059892324149 L 719.2132656111199,82.49059892324149 L 734.4305691347607,56.13345606609863 Z"
         id="path165"
         style="vector-effect:non-scaling-stroke;-inkscape-stroke:hairline;stroke-width:0.26458333;stroke-dasharray:none" />
      <path
         d="M 725.976511621627,82.49059892324149 L 731.8943518808206,82.49059892324149 L 740.7711122696111,67.11559892324149 L 737.8121921400143,61.99059892324149 L 725.976511621627,82.49059892324149 Z"
         id="path166"
         style="vector-effect:non-scaling-stroke;-inkscape-stroke:hairline;stroke-width:0.26458333;stroke-dasharray:none" />
      <path
         d="M 777.1549142135636,87.1094010767585 L 741.6478726584016,87.1094010767585 L 750.5246330471921,102.4844010767585 L 768.2781538247731,102.4844010767585 L 777.1549142135636,87.1094010767585 Z"
         id="path167"
         style="vector-effect:non-scaling-stroke;-inkscape-stroke:hairline;stroke-width:0.26458333;stroke-dasharray:none" />
      <path
         d="M 714.1408311032396,87.1094010767585 L 731.8943518808206,117.8594010767585 L 740.7711122696111,102.4844010767585 L 731.8943518808206,87.1094010767585 L 714.1408311032396,87.1094010767585 Z"
         id="path168"
         style="vector-effect:non-scaling-stroke;-inkscape-stroke:hairline;stroke-width:0.26458333;stroke-dasharray:none" />
      <path
         d="M 758.3289589281023,110.93119784648299 L 763.4013934359826,110.93119784648299 L 745.6478726584016,141.68119784648297 L 743.1116554044615,137.28834070362586 L 758.3289589281023,110.93119784648299 Z"
         id="path169"
         style="vector-effect:non-scaling-stroke;-inkscape-stroke:hairline;stroke-width:0.26458333;stroke-dasharray:none" />
      <path
         d="M 739.730032399208,131.43119784648297 L 736.7711122696111,126.30619784648299 L 745.6478726584016,110.93119784648299 L 751.5657129175953,110.93119784648299 L 739.730032399208,131.43119784648297 Z"
         id="path170"
         style="vector-effect:non-scaling-stroke;-inkscape-stroke:hairline;stroke-width:0.26458333;stroke-dasharray:none" />
      <path
         d="M 781.1549142135636,89.41880215351699 L 798.9084349911445,120.16880215351699 L 781.1549142135636,120.168802153517 L 772.2781538247731,104.79380215351699 L 781.1549142135636,89.41880215351699 Z"
         id="path171"
         style="vector-effect:non-scaling-stroke;-inkscape-stroke:hairline;stroke-width:0.26458333;stroke-dasharray:none" />
      <path
         d="M 812.6619557687256,143.99059892324146 L 777.1549142135636,143.9905989232415 L 786.0316746023541,128.6155989232415 L 803.7851953799351,128.6155989232415 L 812.6619557687256,143.99059892324146 Z"
         id="path172"
         style="vector-effect:non-scaling-stroke;-inkscape-stroke:hairline;stroke-width:0.26458333;stroke-dasharray:none" />
      <path
         d="M 769.9376106899227,117.63345606609863 L 767.4013934359826,113.24059892324149 L 749.6478726584016,143.99059892324146 L 754.7203071662819,143.99059892324146 L 769.9376106899227,117.63345606609863 Z"
         id="path173"
         style="vector-effect:non-scaling-stroke;-inkscape-stroke:hairline;stroke-width:0.26458333;stroke-dasharray:none" />
      <path
         d="M 761.483553176789,143.9905989232415 L 767.4013934359826,143.99059892324146 L 776.2781538247731,128.6155989232415 L 773.3192336951763,123.49059892324149 L 761.483553176789,143.9905989232415 Z"
         id="path174"
         style="vector-effect:non-scaling-stroke;-inkscape-stroke:hairline;stroke-width:0.26458333;stroke-dasharray:none" />
      <path
         d="M 820.6619557687256,143.9905989232415 L 856.1689973238877,143.9905989232415 L 847.2922369350972,128.6155989232415 L 829.5387161575162,128.6155989232415 L 820.6619557687256,143.9905989232415 Z"
         id="path175"
         style="vector-effect:non-scaling-stroke;-inkscape-stroke:hairline;stroke-width:0.26458333;stroke-dasharray:none" />
      <path
         d="M 883.6760388790497,143.9905989232415 L 865.9225181014687,113.24059892324149 L 857.0457577126781,128.6155989232415 L 865.9225181014687,143.9905989232415 L 883.6760388790497,143.9905989232415 Z"
         id="path176"
         style="vector-effect:non-scaling-stroke;-inkscape-stroke:hairline;stroke-width:0.26458333;stroke-dasharray:none" />
      <path
         d="M 839.487911054187,120.168802153517 L 834.4154765463066,120.168802153517 L 852.1689973238877,89.418802153517 L 854.7052145778277,93.81165929637415 L 839.487911054187,120.168802153517 Z"
         id="path177"
         style="vector-effect:non-scaling-stroke;-inkscape-stroke:hairline;stroke-width:0.26458333;stroke-dasharray:none" />
      <path
         d="M 858.0868375830813,99.668802153517 L 861.0457577126781,104.79380215351699 L 852.1689973238877,120.16880215351699 L 846.251157064694,120.168802153517 L 858.0868375830813,99.668802153517 Z"
         id="path178"
         style="vector-effect:non-scaling-stroke;-inkscape-stroke:hairline;stroke-width:0.26458333;stroke-dasharray:none" />
      <path
         d="M 816.6619557687256,141.681197846483 L 798.9084349911446,110.931197846483 L 816.6619557687256,110.931197846483 L 825.5387161575162,126.306197846483 L 816.6619557687256,141.681197846483 Z"
         id="path179"
         style="vector-effect:non-scaling-stroke;-inkscape-stroke:hairline;stroke-width:0.26458333;stroke-dasharray:none" />
      <path
         d="M 785.1549142135636,87.1094010767585 L 820.6619557687256,87.1094010767585 L 811.7851953799352,102.4844010767585 L 794.0316746023542,102.4844010767585 L 785.1549142135636,87.1094010767585 Z"
         id="path180"
         style="vector-effect:non-scaling-stroke;-inkscape-stroke:hairline;stroke-width:0.26458333;stroke-dasharray:none" />
      <path
         d="M 827.8792592923666,113.46654393390136 L 830.4154765463066,117.8594010767585 L 848.1689973238877,87.1094010767585 L 843.0965628160073,87.1094010767585 L 827.8792592923666,113.46654393390136 Z"
         id="path181"
         style="vector-effect:non-scaling-stroke;-inkscape-stroke:hairline;stroke-width:0.26458333;stroke-dasharray:none" />
      <path
         d="M 836.3333168055003,87.1094010767585 L 830.4154765463066,87.1094010767585 L 821.5387161575162,102.4844010767585 L 824.497636287113,107.6094010767585 L 836.3333168055003,87.1094010767585 Z"
         id="path182"
         style="vector-effect:non-scaling-stroke;-inkscape-stroke:hairline;stroke-width:0.26458333;stroke-dasharray:none" />
      <path
         d="M 785.1549142135636,82.49059892324149 L 820.6619557687256,82.49059892324149 L 811.7851953799352,67.11559892324149 L 794.0316746023542,67.11559892324149 L 785.1549142135636,82.49059892324149 Z"
         id="path183"
         style="vector-effect:non-scaling-stroke;-inkscape-stroke:hairline;stroke-width:0.26458333;stroke-dasharray:none" />
      <path
         d="M 848.1689973238877,82.49059892324149 L 830.4154765463066,51.74059892324149 L 821.5387161575162,67.11559892324149 L 830.4154765463066,82.49059892324149 L 848.1689973238877,82.49059892324149 Z"
         id="path184"
         style="vector-effect:non-scaling-stroke;-inkscape-stroke:hairline;stroke-width:0.26458333;stroke-dasharray:none" />
      <path
         d="M 803.980869499025,58.66880215351701 L 798.9084349911446,58.66880215351701 L 816.6619557687256,27.918802153516992 L 819.1981730226657,32.31165929637416 L 803.980869499025,58.66880215351701 Z"
         id="path185"
         style="vector-effect:non-scaling-stroke;-inkscape-stroke:hairline;stroke-width:0.26458333;stroke-dasharray:none" />
      <path
         d="M 822.5797960279193,38.16880215351699 L 825.5387161575162,43.29380215351701 L 816.6619557687256,58.66880215351701 L 810.744115509532,58.66880215351701 L 822.5797960279193,38.16880215351699 Z"
         id="path186"
         style="vector-effect:non-scaling-stroke;-inkscape-stroke:hairline;stroke-width:0.26458333;stroke-dasharray:none" />
      <path
         d="M 781.1549142135636,80.181197846483 L 763.4013934359828,49.431197846483 L 781.1549142135636,49.43119784648299 L 790.0316746023542,64.806197846483 L 781.1549142135636,80.181197846483 Z"
         id="path187"
         style="vector-effect:non-scaling-stroke;-inkscape-stroke:hairline;stroke-width:0.26458333;stroke-dasharray:none" />
      <path
         d="M 749.6478726584016,25.609401076758502 L 785.1549142135636,25.609401076758502 L 776.2781538247732,40.9844010767585 L 758.5246330471922,40.9844010767585 L 749.6478726584016,25.609401076758502 Z"
         id="path188"
         style="vector-effect:non-scaling-stroke;-inkscape-stroke:hairline;stroke-width:0.26458333;stroke-dasharray:none" />
      <path
         d="M 792.3722177372046,51.96654393390136 L 794.9084349911446,56.3594010767585 L 812.6619557687256,25.609401076758502 L 807.5895212608453,25.609401076758502 L 792.3722177372046,51.96654393390136 Z"
         id="path189"
         style="vector-effect:non-scaling-stroke;-inkscape-stroke:hairline;stroke-width:0.26458333;stroke-dasharray:none" />
      <path
         d="M 800.8262752503383,25.609401076758502 L 794.9084349911446,25.609401076758502 L 786.0316746023542,40.9844010767585 L 788.990594731951,46.1094010767585 L 800.8262752503383,25.609401076758502 Z"
         id="path190"
         style="vector-effect:non-scaling-stroke;-inkscape-stroke:hairline;stroke-width:0.26458333;stroke-dasharray:none" />
      <path
         d="M 883.6760388790497,25.609401076758502 L 848.1689973238877,25.609401076758502 L 857.0457577126781,40.9844010767585 L 874.7992784902591,40.9844010767585 L 883.6760388790497,25.609401076758502 Z"
         id="path191"
         style="vector-effect:non-scaling-stroke;-inkscape-stroke:hairline;stroke-width:0.26458333;stroke-dasharray:none" />
      <path
         d="M 820.6619557687256,25.609401076758502 L 838.4154765463066,56.3594010767585 L 847.2922369350972,40.9844010767585 L 838.4154765463066,25.609401076758502 L 820.6619557687256,25.609401076758502 Z"
         id="path192"
         style="vector-effect:non-scaling-stroke;-inkscape-stroke:hairline;stroke-width:0.26458333;stroke-dasharray:none" />
      <path
         d="M 864.8500835935884,49.43119784648299 L 869.9225181014687,49.43119784648299 L 852.1689973238877,80.18119784648299 L 849.6327800699476,75.78834070362585 L 864.8500835935884,49.43119784648299 Z"
         id="path193"
         style="vector-effect:non-scaling-stroke;-inkscape-stroke:hairline;stroke-width:0.26458333;stroke-dasharray:none" />
      <path
         d="M 846.251157064694,69.93119784648299 L 843.2922369350972,64.806197846483 L 852.1689973238877,49.43119784648299 L 858.0868375830813,49.43119784648299 L 846.251157064694,69.93119784648299 Z"
         id="path194"
         style="vector-effect:non-scaling-stroke;-inkscape-stroke:hairline;stroke-width:0.26458333;stroke-dasharray:none" />
      <path
         d="M 890.0,31.944020889817693 L 890.0,58.66880215351701 L 887.6760388790497,58.66880215351701 L 878.7992784902591,43.29380215351699 L 887.6760388790497,27.918802153516992 L 890.0,31.944020889817693 Z"
         id="path195"
         style="vector-effect:non-scaling-stroke;-inkscape-stroke:hairline;stroke-width:0.26458333;stroke-dasharray:none" />
      <path
         d="M 883.6760388790497,82.49059892324149 L 890.0,71.5371769566652 L 890.0,82.49059892324149 L 883.6760388790497,82.49059892324149 Z"
         id="path196"
         style="vector-effect:non-scaling-stroke;-inkscape-stroke:hairline;stroke-width:0.26458333;stroke-dasharray:none" />
      <path
         d="M 876.4587353554087,56.13345606609863 L 873.9225181014687,51.74059892324149 L 856.1689973238877,82.49059892324149 L 861.241431831768,82.49059892324149 L 876.4587353554087,56.13345606609863 Z"
         id="path197"
         style="vector-effect:non-scaling-stroke;-inkscape-stroke:hairline;stroke-width:0.26458333;stroke-dasharray:none" />
      <path
         d="M 868.004677842275,82.49059892324149 L 873.9225181014687,82.49059892324149 L 882.7992784902591,67.11559892324149 L 879.8403583606623,61.99059892324149 L 868.004677842275,82.49059892324149 Z"
         id="path198"
         style="vector-effect:non-scaling-stroke;-inkscape-stroke:hairline;stroke-width:0.26458333;stroke-dasharray:none" />
      <path
         d="M 883.6760388790497,87.1094010767585 L 890.0,87.1094010767585 L 890.0,98.06282304333479 L 883.6760388790497,87.1094010767585 Z"
         id="path199"
         style="vector-effect:non-scaling-stroke;-inkscape-stroke:hairline;stroke-width:0.26458333;stroke-dasharray:none" />
      <path
         d="M 856.1689973238877,87.1094010767585 L 873.9225181014687,117.8594010767585 L 882.7992784902591,102.4844010767585 L 873.9225181014687,87.1094010767585 L 856.1689973238877,87.1094010767585 Z"
         id="path200"
         style="vector-effect:non-scaling-stroke;-inkscape-stroke:hairline;stroke-width:0.26458333;stroke-dasharray:none" />
      <path
         d="M 887.6760388790497,141.68119784648297 L 885.1398216251096,137.28834070362586 L 890.0,128.87026482446805 L 890.0,137.65597911018227 L 887.6760388790497,141.68119784648297 Z"
         id="path201"
         style="vector-effect:non-scaling-stroke;-inkscape-stroke:hairline;stroke-width:0.26458333;stroke-dasharray:none" />
      <path
         d="M 878.7992784902591,126.30619784648299 L 887.6760388790497,110.93119784648299 L 890.0,110.93119784648299 L 890.0,117.15597911018227 L 881.758198619856,131.43119784648297 L 878.7992784902591,126.30619784648299 Z"
         id="path202"
         style="vector-effect:non-scaling-stroke;-inkscape-stroke:hairline;stroke-width:0.26458333;stroke-dasharray:none" />
      <path
         d="M 0.0,170.0 L 905.0,170.0 L 905.0,0.0 L 0.0,0.0 L 0.0,170.0 Z"
         id="path203"
         style="vector-effect:non-scaling-stroke;-inkscape-stroke:hairline;stroke-width:0.26458333;stroke-dasharray:none" />
    </g>
  </g>
</svg>
