<?xml version="1.0" encoding="utf-8" ?>
<svg baseProfile="full" height="300mm" version="1.1" viewBox="0 0 1200 300" width="1200mm" xmlns="http://www.w3.org/2000/svg" xmlns:ev="http://www.w3.org/2001/xml-events" xmlns:xlink="http://www.w3.org/1999/xlink"><defs /><g fill="none" stroke="blue" stroke-width="0.5" transform="translate(-90.0,61.75)"><path d="M 299.0,93.76543289325505 L 316.484567106745,111.25 L 299.0,128.73456710674495 L 281.515432893255,111.25 L 299.0,93.76543289325505 Z" /><path d="M 345.0,93.76543289325505 L 362.484567106745,111.25 L 345.0,128.73456710674495 L 327.515432893255,111.25 L 345.0,93.76543289325505 Z" /><path d="M 391.0,93.76543289325505 L 408.484567106745,111.25 L 391.0,128.73456710674495 L 373.515432893255,111.25 L 391.0,93.76543289325505 Z" /><path d="M 437.0,93.76543289325505 L 454.484567106745,111.25 L 437.0,128.73456710674495 L 419.515432893255,111.25 L 437.0,93.76543289325505 Z" /><path d="M 483.0,93.76543289325505 L 500.484567106745,111.25 L 483.0,128.73456710674495 L 465.515432893255,111.25 L 483.0,93.76543289325505 Z" /><path d="M 529.0,93.76543289325511 L 546.4845671067449,111.25 L 529.0,128.7345671067449 L 511.5154328932551,111.25 L 529.0,93.76543289325511 Z" /><path d="M 575.0,93.76543289325511 L 592.4845671067449,111.25 L 575.0,128.7345671067449 L 557.5154328932551,111.25 L 575.0,93.76543289325511 Z" /><path d="M 621.0,93.76543289325511 L 638.4845671067449,111.25 L 621.0,128.7345671067449 L 603.5154328932551,111.25 L 621.0,93.76543289325511 Z" /><path d="M 667.0,93.76543289325511 L 684.4845671067449,111.25 L 667.0,128.7345671067449 L 649.5154328932551,111.25 L 667.0,93.76543289325511 Z" /><path d="M 713.0,93.76543289325511 L 730.4845671067449,111.25 L 713.0,128.7345671067449 L 695.5154328932551,111.25 L 713.0,93.76543289325511 Z" /><path d="M 759.0,93.76543289325511 L 776.4845671067449,111.25 L 759.0,128.7345671067449 L 741.5154328932551,111.25 L 759.0,93.76543289325511 Z" /><path d="M 805.0,93.76543289325511 L 822.4845671067449,111.25 L 805.0,128.7345671067449 L 787.5154328932551,111.25 L 805.0,93.76543289325511 Z" /><path d="M 851.0,93.76543289325511 L 868.4845671067449,111.25 L 851.0,128.7345671067449 L 833.5154328932551,111.25 L 851.0,93.76543289325511 Z" /><path d="M 897.0,93.76543289325511 L 914.4845671067449,111.25 L 897.0,128.7345671067449 L 879.5154328932551,111.25 L 897.0,93.76543289325511 Z" /><path d="M 943.0,93.76543289325511 L 960.4845671067449,111.25 L 943.0,128.7345671067449 L 925.5154328932551,111.25 L 943.0,93.76543289325511 Z" /><path d="M 989.0,93.76543289325511 L 1006.4845671067449,111.25 L 989.0,128.7345671067449 L 971.5154328932551,111.25 L 989.0,93.76543289325511 Z" /><path d="M 1035.0,93.765432893255 L 1052.484567106745,111.25 L 1035.0,128.734567106745 L 1017.5154328932551,111.25 L 1035.0,93.765432893255 Z" /><path d="M 1081.0,93.765432893255 L 1098.484567106745,111.25 L 1081.0,128.734567106745 L 1063.515432893255,111.25 L 1081.0,93.765432893255 Z" /><path d="M 276.0,70.76543289325505 L 293.484567106745,88.25 L 276.0,105.73456710674495 L 258.5154328932551,88.25 L 276.0,70.76543289325505 Z" /><path d="M 322.0,70.76543289325505 L 339.484567106745,88.25 L 322.0,105.73456710674495 L 304.515432893255,88.25 L 322.0,70.76543289325505 Z" /><path d="M 368.0,70.76543289325505 L 385.484567106745,88.25 L 368.0,105.73456710674495 L 350.515432893255,88.25 L 368.0,70.76543289325505 Z" /><path d="M 414.0,70.76543289325505 L 431.484567106745,88.25 L 414.0,105.73456710674495 L 396.515432893255,88.25 L 414.0,70.76543289325505 Z" /><path d="M 460.0,70.76543289325505 L 477.484567106745,88.25 L 460.0,105.73456710674495 L 442.515432893255,88.25 L 460.0,70.76543289325505 Z" /><path d="M 506.0,70.76543289325505 L 523.4845671067449,88.25 L 506.0,105.73456710674495 L 488.515432893255,88.25 L 506.0,70.76543289325505 Z" /><path d="M 552.0,70.76543289325511 L 569.4845671067449,88.25 L 552.0,105.73456710674489 L 534.5154328932551,88.25 L 552.0,70.76543289325511 Z" /><path d="M 598.0,70.76543289325511 L 615.4845671067449,88.25 L 598.0,105.73456710674489 L 580.5154328932551,88.25 L 598.0,70.76543289325511 Z" /><path d="M 644.0,70.76543289325511 L 661.4845671067449,88.25 L 644.0,105.73456710674489 L 626.5154328932551,88.25 L 644.0,70.76543289325511 Z" /><path d="M 690.0,70.76543289325511 L 707.4845671067449,88.25 L 690.0,105.73456710674489 L 672.5154328932551,88.25 L 690.0,70.76543289325511 Z" /><path d="M 736.0,70.76543289325511 L 753.4845671067449,88.25 L 736.0,105.73456710674489 L 718.5154328932551,88.25 L 736.0,70.76543289325511 Z" /><path d="M 782.0,70.76543289325511 L 799.4845671067449,88.25 L 782.0,105.73456710674489 L 764.5154328932551,88.25 L 782.0,70.76543289325511 Z" /><path d="M 828.0,70.76543289325511 L 845.4845671067449,88.25 L 828.0,105.73456710674489 L 810.5154328932551,88.25 L 828.0,70.76543289325511 Z" /><path d="M 874.0,70.76543289325511 L 891.4845671067449,88.25 L 874.0,105.73456710674489 L 856.5154328932551,88.25 L 874.0,70.76543289325511 Z" /><path d="M 920.0,70.76543289325511 L 937.4845671067449,88.25 L 920.0,105.73456710674489 L 902.5154328932551,88.25 L 920.0,70.76543289325511 Z" /><path d="M 966.0,70.76543289325511 L 983.4845671067449,88.25 L 966.0,105.73456710674489 L 948.5154328932551,88.25 L 966.0,70.76543289325511 Z" /><path d="M 1012.0,70.76543289325511 L 1029.484567106745,88.25 L 1012.0,105.73456710674489 L 994.5154328932551,88.25 L 1012.0,70.76543289325511 Z" /><path d="M 1058.0,70.765432893255 L 1075.484567106745,88.25 L 1058.0,105.734567106745 L 1040.515432893255,88.25 L 1058.0,70.765432893255 Z" /><path d="M 1104.0,70.765432893255 L 1121.484567106745,88.25 L 1104.0,105.734567106745 L 1086.515432893255,88.25 L 1104.0,70.765432893255 Z" /><path d="M 299.0,47.76543289325505 L 316.484567106745,65.25 L 299.0,82.73456710674495 L 281.515432893255,65.25 L 299.0,47.76543289325505 Z" /><path d="M 345.0,47.76543289325505 L 362.484567106745,65.25 L 345.0,82.73456710674495 L 327.515432893255,65.25 L 345.0,47.76543289325505 Z" /><path d="M 391.0,47.76543289325505 L 408.484567106745,65.25 L 391.0,82.73456710674495 L 373.515432893255,65.25 L 391.0,47.76543289325505 Z" /><path d="M 437.0,47.76543289325505 L 454.484567106745,65.25 L 437.0,82.73456710674495 L 419.515432893255,65.25 L 437.0,47.76543289325505 Z" /><path d="M 483.0,47.76543289325505 L 500.484567106745,65.25 L 483.0,82.73456710674495 L 465.515432893255,65.25 L 483.0,47.76543289325505 Z" /><path d="M 529.0,47.76543289325511 L 546.4845671067449,65.25 L 529.0,82.73456710674489 L 511.5154328932551,65.25 L 529.0,47.76543289325511 Z" /><path d="M 575.0,47.76543289325511 L 592.4845671067449,65.25 L 575.0,82.73456710674489 L 557.5154328932551,65.25 L 575.0,47.76543289325511 Z" /><path d="M 621.0,47.76543289325511 L 638.4845671067449,65.25 L 621.0,82.73456710674489 L 603.5154328932551,65.25 L 621.0,47.76543289325511 Z" /><path d="M 667.0,47.76543289325511 L 684.4845671067449,65.25 L 667.0,82.73456710674489 L 649.5154328932551,65.25 L 667.0,47.76543289325511 Z" /><path d="M 713.0,47.76543289325511 L 730.4845671067449,65.25 L 713.0,82.73456710674489 L 695.5154328932551,65.25 L 713.0,47.76543289325511 Z" /><path d="M 759.0,47.76543289325511 L 776.4845671067449,65.25 L 759.0,82.73456710674489 L 741.5154328932551,65.25 L 759.0,47.76543289325511 Z" /><path d="M 805.0,47.76543289325511 L 822.4845671067449,65.25 L 805.0,82.73456710674489 L 787.5154328932551,65.25 L 805.0,47.76543289325511 Z" /><path d="M 851.0,47.76543289325511 L 868.4845671067449,65.25 L 851.0,82.73456710674489 L 833.5154328932551,65.25 L 851.0,47.76543289325511 Z" /><path d="M 897.0,47.76543289325511 L 914.4845671067449,65.25 L 897.0,82.73456710674489 L 879.5154328932551,65.25 L 897.0,47.76543289325511 Z" /><path d="M 943.0,47.76543289325511 L 960.4845671067449,65.25 L 943.0,82.73456710674489 L 925.5154328932551,65.25 L 943.0,47.76543289325511 Z" /><path d="M 989.0,47.76543289325511 L 1006.4845671067449,65.25 L 989.0,82.73456710674489 L 971.5154328932551,65.25 L 989.0,47.76543289325511 Z" /><path d="M 1035.0,47.765432893254996 L 1052.484567106745,65.25 L 1035.0,82.734567106745 L 1017.5154328932551,65.25 L 1035.0,47.765432893254996 Z" /><path d="M 1081.0,47.765432893254996 L 1098.484567106745,65.25 L 1081.0,82.734567106745 L 1063.515432893255,65.25 L 1081.0,47.765432893254996 Z" /><path d="M 336.265432893255,148.5 L 345.0,139.76543289325505 L 353.734567106745,148.5 L 336.265432893255,148.5 Z" /><path d="M 442.515432893255,134.25 L 460.0,116.76543289325505 L 477.484567106745,134.25 L 463.234567106745,148.5 L 456.765432893255,148.5 L 442.515432893255,134.25 Z" /><path d="M 704.2654328932551,148.5 L 713.0,139.7654328932551 L 721.7345671067449,148.5 L 704.2654328932551,148.5 Z" /><path d="M 612.2654328932551,148.5 L 621.0,139.7654328932551 L 629.7345671067449,148.5 L 612.2654328932551,148.5 Z" /><path d="M 290.265432893255,148.5 L 299.0,139.76543289325505 L 307.734567106745,148.5 L 290.265432893255,148.5 Z" /><path d="M 658.2654328932551,148.5 L 667.0,139.7654328932551 L 675.7345671067449,148.5 L 658.2654328932551,148.5 Z" /><path d="M 989.0,36.73456710674489 L 980.2654328932551,28.0 L 997.7345671067449,28.0 L 989.0,36.73456710674489 Z" /><path d="M 382.265432893255,148.5 L 391.0,139.76543289325505 L 399.734567106745,148.5 L 382.265432893255,148.5 Z" /><path d="M 842.2654328932551,148.5 L 851.0,139.7654328932551 L 859.7345671067449,148.5 L 842.2654328932551,148.5 Z" /><path d="M 410.765432893255,28.0 L 417.234567106745,28.0 L 431.484567106745,42.25 L 414.0,59.73456710674495 L 396.515432893255,42.25 L 410.765432893255,28.0 Z" /><path d="M 750.2654328932551,148.5 L 759.0,139.7654328932551 L 767.7345671067449,148.5 L 750.2654328932551,148.5 Z" /><path d="M 243.75,57.01543289325508 L 253.0,47.76543289325508 L 270.4845671067449,65.25 L 253.0,82.73456710674492 L 243.75,73.48456710674492 L 243.75,57.01543289325508 Z" /><path d="M 934.2654328932551,148.5 L 943.0,139.7654328932551 L 951.7345671067449,148.5 L 934.2654328932551,148.5 Z" /><path d="M 851.0,36.73456710674489 L 842.2654328932551,28.0 L 859.7345671067449,28.0 L 851.0,36.73456710674489 Z" /><path d="M 304.515432893255,134.25 L 322.0,116.76543289325505 L 339.484567106745,134.25 L 325.234567106745,148.5 L 318.765432893255,148.5 L 304.515432893255,134.25 Z" /><path d="M 1035.0,36.734567106745004 L 1026.2654328932551,28.0 L 1043.734567106745,28.0 L 1035.0,36.734567106745004 Z" /><path d="M 474.265432893255,148.5 L 483.0,139.76543289325505 L 491.734567106745,148.5 L 474.265432893255,148.5 Z" /><path d="M 1072.265432893255,148.5 L 1081.0,139.765432893255 L 1089.734567106745,148.5 L 1072.265432893255,148.5 Z" /><path d="M 318.765432893255,28.0 L 325.234567106745,28.0 L 339.484567106745,42.25 L 322.0,59.73456710674495 L 304.515432893255,42.25 L 318.765432893255,28.0 Z" /><path d="M 994.5154328932551,134.25 L 1012.0,116.76543289325511 L 1029.484567106745,134.25 L 1015.234567106745,148.5 L 1008.7654328932551,148.5 L 994.5154328932551,134.25 Z" /><path d="M 575.0,36.73456710674489 L 566.2654328932551,28.0 L 583.7345671067449,28.0 L 575.0,36.73456710674489 Z" /><path d="M 916.7654328932551,28.0 L 923.2345671067449,28.0 L 937.4845671067449,42.25 L 920.0,59.73456710674489 L 902.5154328932551,42.25 L 916.7654328932551,28.0 Z" /><path d="M 732.7654328932551,28.0 L 739.2345671067449,28.0 L 753.4845671067449,42.25 L 736.0,59.73456710674489 L 718.5154328932551,42.25 L 732.7654328932551,28.0 Z" /><path d="M 580.5154328932551,134.25 L 598.0,116.76543289325511 L 615.4845671067449,134.25 L 601.2345671067449,148.5 L 594.7654328932551,148.5 L 580.5154328932551,134.25 Z" /><path d="M 258.5154328932551,134.25 L 276.0,116.76543289325505 L 293.484567106745,134.25 L 279.234567106745,148.5 L 272.7654328932551,148.5 L 258.5154328932551,134.25 Z" /><path d="M 534.5154328932551,134.25 L 552.0,116.76543289325511 L 569.4845671067449,134.25 L 555.2345671067449,148.5 L 548.7654328932551,148.5 L 534.5154328932551,134.25 Z" /><path d="M 488.515432893255,134.25 L 506.0,116.76543289325505 L 523.4845671067449,134.25 L 509.2345671067449,148.5 L 502.765432893255,148.5 L 488.515432893255,134.25 Z" /><path d="M 345.0,36.73456710674495 L 336.265432893255,28.0 L 353.734567106745,28.0 L 345.0,36.73456710674495 Z" /><path d="M 566.2654328932551,148.5 L 575.0,139.7654328932551 L 583.7345671067449,148.5 L 566.2654328932551,148.5 Z" /><path d="M 299.0,36.73456710674495 L 290.265432893255,28.0 L 307.734567106745,28.0 L 299.0,36.73456710674495 Z" /><path d="M 810.5154328932551,134.25 L 828.0,116.76543289325511 L 845.4845671067449,134.25 L 831.2345671067449,148.5 L 824.7654328932551,148.5 L 810.5154328932551,134.25 Z" /><path d="M 1127.0,93.765432893255 L 1136.25,103.01543289325495 L 1136.25,119.48456710674506 L 1127.0,128.734567106745 L 1109.515432893255,111.25 L 1127.0,93.765432893255 Z" /><path d="M 824.7654328932551,28.0 L 831.2345671067449,28.0 L 845.4845671067449,42.25 L 828.0,59.73456710674489 L 810.5154328932551,42.25 L 824.7654328932551,28.0 Z" /><path d="M 1081.0,36.734567106745004 L 1072.265432893255,28.0 L 1089.734567106745,28.0 L 1081.0,36.734567106745004 Z" /><path d="M 640.7654328932551,28.0 L 647.2345671067449,28.0 L 661.4845671067449,42.25 L 644.0,59.73456710674489 L 626.5154328932551,42.25 L 640.7654328932551,28.0 Z" /><path d="M 897.0,36.73456710674489 L 888.2654328932551,28.0 L 905.7345671067449,28.0 L 897.0,36.73456710674489 Z" /><path d="M 856.5154328932551,134.25 L 874.0,116.76543289325511 L 891.4845671067449,134.25 L 877.2345671067449,148.5 L 870.7654328932551,148.5 L 856.5154328932551,134.25 Z" /><path d="M 391.0,36.73456710674495 L 382.265432893255,28.0 L 399.734567106745,28.0 L 391.0,36.73456710674495 Z" /><path d="M 1008.7654328932551,28.0 L 1015.234567106745,28.0 L 1029.484567106745,42.25 L 1012.0,59.73456710674489 L 994.5154328932551,42.25 L 1008.7654328932551,28.0 Z" /><path d="M 502.765432893255,28.0 L 509.2345671067449,28.0 L 523.4845671067449,42.25 L 506.0,59.73456710674495 L 488.515432893255,42.25 L 502.765432893255,28.0 Z" /><path d="M 1118.265432893255,148.5 L 1127.0,139.765432893255 L 1135.734567106745,148.5 L 1118.265432893255,148.5 Z" /><path d="M 764.5154328932551,134.25 L 782.0,116.76543289325511 L 799.4845671067449,134.25 L 785.2345671067449,148.5 L 778.7654328932551,148.5 L 764.5154328932551,134.25 Z" /><path d="M 1040.515432893255,134.25 L 1058.0,116.765432893255 L 1075.484567106745,134.25 L 1061.234567106745,148.5 L 1054.765432893255,148.5 L 1040.515432893255,134.25 Z" /><path d="M 759.0,36.73456710674489 L 750.2654328932551,28.0 L 767.7345671067449,28.0 L 759.0,36.73456710674489 Z" /><path d="M 870.7654328932551,28.0 L 877.2345671067449,28.0 L 891.4845671067449,42.25 L 874.0,59.73456710674489 L 856.5154328932551,42.25 L 870.7654328932551,28.0 Z" /><path d="M 888.2654328932551,148.5 L 897.0,139.7654328932551 L 905.7345671067449,148.5 L 888.2654328932551,148.5 Z" /><path d="M 244.26543289325508,148.5 L 253.0,139.76543289325508 L 261.734567106745,148.5 L 244.26543289325508,148.5 Z" /><path d="M 594.7654328932551,28.0 L 601.2345671067449,28.0 L 615.4845671067449,42.25 L 598.0,59.73456710674489 L 580.5154328932551,42.25 L 594.7654328932551,28.0 Z" /><path d="M 796.2654328932551,148.5 L 805.0,139.7654328932551 L 813.7345671067449,148.5 L 796.2654328932551,148.5 Z" /><path d="M 437.0,36.73456710674495 L 428.265432893255,28.0 L 445.734567106745,28.0 L 437.0,36.73456710674495 Z" /><path d="M 778.7654328932551,28.0 L 785.2345671067449,28.0 L 799.4845671067449,42.25 L 782.0,59.73456710674489 L 764.5154328932551,42.25 L 778.7654328932551,28.0 Z" /><path d="M 272.7654328932551,28.0 L 279.234567106745,28.0 L 293.484567106745,42.25 L 276.0,59.73456710674495 L 258.5154328932551,42.25 L 272.7654328932551,28.0 Z" /><path d="M 1054.765432893255,28.0 L 1061.234567106745,28.0 L 1075.484567106745,42.25 L 1058.0,59.734567106745004 L 1040.515432893255,42.25 L 1054.765432893255,28.0 Z" /><path d="M 350.515432893255,134.25 L 368.0,116.76543289325505 L 385.484567106745,134.25 L 371.234567106745,148.5 L 364.765432893255,148.5 L 350.515432893255,134.25 Z" /><path d="M 364.765432893255,28.0 L 371.234567106745,28.0 L 385.484567106745,42.25 L 368.0,59.73456710674495 L 350.515432893255,42.25 L 364.765432893255,28.0 Z" /><path d="M 902.5154328932551,134.25 L 920.0,116.76543289325511 L 937.4845671067449,134.25 L 923.2345671067449,148.5 L 916.7654328932551,148.5 L 902.5154328932551,134.25 Z" /><path d="M 428.265432893255,148.5 L 437.0,139.76543289325505 L 445.734567106745,148.5 L 428.265432893255,148.5 Z" /><path d="M 1026.2654328932551,148.5 L 1035.0,139.765432893255 L 1043.734567106745,148.5 L 1026.2654328932551,148.5 Z" /><path d="M 805.0,36.73456710674489 L 796.2654328932551,28.0 L 813.7345671067449,28.0 L 805.0,36.73456710674489 Z" /><path d="M 396.515432893255,134.25 L 414.0,116.76543289325505 L 431.484567106745,134.25 L 417.234567106745,148.5 L 410.765432893255,148.5 L 396.515432893255,134.25 Z" /><path d="M 1127.0,47.765432893254996 L 1136.25,57.01543289325495 L 1136.25,73.48456710674505 L 1127.0,82.734567106745 L 1109.515432893255,65.25 L 1127.0,47.765432893254996 Z" /><path d="M 1086.515432893255,134.25 L 1104.0,116.765432893255 L 1121.484567106745,134.25 L 1107.234567106745,148.5 L 1100.765432893255,148.5 L 1086.515432893255,134.25 Z" /><path d="M 948.5154328932551,134.25 L 966.0,116.76543289325511 L 983.4845671067449,134.25 L 969.2345671067449,148.5 L 962.7654328932551,148.5 L 948.5154328932551,134.25 Z" /><path d="M 1127.0,36.734567106745004 L 1118.265432893255,28.0 L 1135.734567106745,28.0 L 1127.0,36.734567106745004 Z" /><path d="M 943.0,36.73456710674489 L 934.2654328932551,28.0 L 951.7345671067449,28.0 L 943.0,36.73456710674489 Z" /><path d="M 713.0,36.73456710674489 L 704.2654328932551,28.0 L 721.7345671067449,28.0 L 713.0,36.73456710674489 Z" /><path d="M 548.7654328932551,28.0 L 555.2345671067449,28.0 L 569.4845671067449,42.25 L 552.0,59.73456710674489 L 534.5154328932551,42.25 L 548.7654328932551,28.0 Z" /><path d="M 686.7654328932551,28.0 L 693.2345671067449,28.0 L 707.4845671067449,42.25 L 690.0,59.73456710674489 L 672.5154328932551,42.25 L 686.7654328932551,28.0 Z" /><path d="M 456.765432893255,28.0 L 463.234567106745,28.0 L 477.484567106745,42.25 L 460.0,59.73456710674495 L 442.515432893255,42.25 L 456.765432893255,28.0 Z" /><path d="M 672.5154328932551,134.25 L 690.0,116.76543289325511 L 707.4845671067449,134.25 L 693.2345671067449,148.5 L 686.7654328932551,148.5 L 672.5154328932551,134.25 Z" /><path d="M 483.0,36.73456710674495 L 474.265432893255,28.0 L 491.734567106745,28.0 L 483.0,36.73456710674495 Z" /><path d="M 243.75,103.01543289325508 L 253.0,93.76543289325508 L 270.4845671067449,111.25 L 253.0,128.73456710674492 L 243.75,119.48456710674492 L 243.75,103.01543289325508 Z" /><path d="M 1100.765432893255,28.0 L 1107.234567106745,28.0 L 1121.484567106745,42.25 L 1104.0,59.734567106745004 L 1086.515432893255,42.25 L 1100.765432893255,28.0 Z" /><path d="M 253.0,36.73456710674492 L 244.26543289325508,28.0 L 261.7345671067449,28.0 L 253.0,36.73456710674492 Z" /><path d="M 667.0,36.73456710674489 L 658.2654328932551,28.0 L 675.7345671067449,28.0 L 667.0,36.73456710674489 Z" /><path d="M 980.2654328932551,148.5 L 989.0,139.7654328932551 L 997.7345671067449,148.5 L 980.2654328932551,148.5 Z" /><path d="M 621.0,36.73456710674489 L 612.2654328932551,28.0 L 629.7345671067449,28.0 L 621.0,36.73456710674489 Z" /><path d="M 626.5154328932551,134.25 L 644.0,116.76543289325511 L 661.4845671067449,134.25 L 647.2345671067449,148.5 L 640.7654328932551,148.5 L 626.5154328932551,134.25 Z" /><path d="M 529.0,36.73456710674489 L 520.2654328932551,28.0 L 537.7345671067449,28.0 L 529.0,36.73456710674489 Z" /><path d="M 520.2654328932551,148.5 L 529.0,139.7654328932551 L 537.7345671067449,148.5 L 520.2654328932551,148.5 Z" /><path d="M 718.5154328932551,134.25 L 736.0,116.76543289325511 L 753.4845671067449,134.25 L 739.2345671067449,148.5 L 732.7654328932551,148.5 L 718.5154328932551,134.25 Z" /><path d="M 962.7654328932551,28.0 L 969.2345671067449,28.0 L 983.4845671067449,42.25 L 966.0,59.73456710674489 L 948.5154328932551,42.25 L 962.7654328932551,28.0 Z" /><path d="M 237.75,176.5 L 1142.25,176.5 L 1142.25,0.0 L 237.75,0.0 L 237.75,176.5 Z" /></g></svg>