<?xml version="1.0" encoding="UTF-8" standalone="no"?>
<svg
   height="300mm"
   version="1.1"
   viewBox="0 0 1200 300"
   width="1200mm"
   id="svg115"
   sodipodi:docname="tramo1.4_MEDIDAS.svg"
   inkscape:version="1.4.2 (1:1.4.2+202505120737+ebf0e940d0)"
   xmlns:inkscape="http://www.inkscape.org/namespaces/inkscape"
   xmlns:sodipodi="http://sodipodi.sourceforge.net/DTD/sodipodi-0.dtd"
   xmlns="http://www.w3.org/2000/svg"
   xmlns:svg="http://www.w3.org/2000/svg">
  <sodipodi:namedview
     id="namedview115"
     pagecolor="#ffffff"
     bordercolor="#666666"
     borderopacity="1.0"
     inkscape:showpageshadow="2"
     inkscape:pageopacity="0.0"
     inkscape:pagecheckerboard="0"
     inkscape:deskcolor="#d1d1d1"
     inkscape:document-units="mm"
     inkscape:zoom="1.4913681"
     inkscape:cx="800.94245"
     inkscape:cy="778.47985"
     inkscape:window-width="1920"
     inkscape:window-height="1011"
     inkscape:window-x="0"
     inkscape:window-y="0"
     inkscape:window-maximized="1"
     inkscape:current-layer="svg115" />
  <defs
     id="defs1">
    <marker
       style="overflow:visible"
       id="Stop"
       refX="0"
       refY="0"
       orient="auto"
       inkscape:stockid="Stop"
       markerWidth="1"
       markerHeight="1"
       viewBox="0 0 1 1"
       inkscape:isstock="true"
       inkscape:collect="always"
       preserveAspectRatio="xMidYMid">
      <path
         style="fill:none;stroke:context-stroke;stroke-width:1"
         d="M 0,4 V -4"
         id="path203" />
    </marker>
    <marker
       style="overflow:visible"
       id="Stop-5"
       refX="0"
       refY="0"
       orient="auto"
       inkscape:stockid="Stop"
       markerWidth="1"
       markerHeight="1"
       viewBox="0 0 1 1"
       inkscape:isstock="true"
       inkscape:collect="always"
       preserveAspectRatio="xMidYMid">
      <path
         style="fill:none;stroke:context-stroke;stroke-width:1"
         d="M 0,4 V -4"
         id="path203-6" />
    </marker>
  </defs>
  <path
     style="fill:none;stroke:#000000;stroke-width:1.265;stroke-linecap:butt;stroke-linejoin:miter;stroke-dasharray:none;stroke-opacity:1;marker-start:url(#Stop);marker-end:url(#Stop)"
     d="M 123.68735,64.856126 V 235"
     id="path202"
     sodipodi:nodetypes="cc" />
  <text
     xml:space="preserve"
     style="font-size:25.4px;line-height:1.25;font-family:'Noto Mono';-inkscape-font-specification:'Noto Mono';word-spacing:0px;stroke-width:0.264583"
     x="41.633839"
     y="159.06612"
     id="text203"><tspan
       sodipodi:role="line"
       id="tspan203"
       style="stroke-width:0.264583"
       x="41.633839"
       y="159.06612">170</tspan></text>
  <text
     xml:space="preserve"
     style="font-size:25.4px;line-height:1.25;font-family:'Noto Mono';-inkscape-font-specification:'Noto Mono';word-spacing:0px;stroke-width:0.264583"
     x="478.27206"
     y="40.147392"
     id="text203-6"><tspan
       sodipodi:role="line"
       id="tspan203-7"
       style="stroke-width:0.264583"
       x="478.27206"
       y="40.147392">Tabica 1.4 y 1.5</tspan></text>
  <path
     style="fill:none;stroke:#000000;stroke-width:1.265;stroke-linecap:butt;stroke-linejoin:miter;stroke-dasharray:none;stroke-opacity:1;marker-start:url(#Stop);marker-end:url(#Stop)"
     d="M 1072.3596,90 V 210"
     id="path204"
     sodipodi:nodetypes="cc" />
  <text
     xml:space="preserve"
     style="font-size:25.4px;line-height:1.25;font-family:'Noto Mono';-inkscape-font-specification:'Noto Mono';word-spacing:0px;stroke-width:0.264583"
     x="1096.1857"
     y="159.19633"
     id="text204"><tspan
       sodipodi:role="line"
       id="tspan204"
       style="stroke-width:0.264583"
       x="1096.1857"
       y="159.19633">120</tspan></text>
  <path
     style="fill:none;stroke:#000000;stroke-width:1.265;stroke-linecap:butt;stroke-linejoin:miter;stroke-dasharray:none;stroke-opacity:1;marker-start:url(#Stop);marker-end:url(#Stop)"
     d="M 1053.5796,253.59593 H 145.88438"
     id="path205"
     sodipodi:nodetypes="cc" />
  <text
     xml:space="preserve"
     style="font-size:25.4px;line-height:1.25;font-family:'Noto Mono';-inkscape-font-specification:'Noto Mono';word-spacing:0px;stroke-width:0.264583"
     x="577.0257"
     y="281.50305"
     id="text205"><tspan
       sodipodi:role="line"
       id="tspan205"
       style="stroke-width:0.264583"
       x="577.0257"
       y="281.50305">908</tspan></text>
  <g
     fill="none"
     stroke="#0000ff"
     stroke-width="0.5"
     transform="translate(-108,65)"
     id="g115"
     style="vector-effect:non-scaling-stroke;stroke-width:0.264583;stroke-dasharray:none;-inkscape-stroke:hairline">
    <path
       d="M 283.3331,121 266,138.3331 V 103.6669 Z"
       id="path1"
       style="vector-effect:non-scaling-stroke;stroke-width:0.264583;stroke-dasharray:none;-inkscape-stroke:hairline" />
    <path
       d="M 283.3331,73 266,90.333095 V 55.666905 Z"
       id="path2"
       style="vector-effect:non-scaling-stroke;stroke-width:0.264583;stroke-dasharray:none;-inkscape-stroke:hairline" />
    <path
       d="M 283.3331,25 266,42.333095 V 24 H 282.3331 Z"
       id="path3"
       style="vector-effect:non-scaling-stroke;stroke-width:0.264583;stroke-dasharray:none;-inkscape-stroke:hairline" />
    <path
       d="M 306.3331,144 H 269.6669 L 288,125.6669 Z"
       id="path4"
       style="vector-effect:non-scaling-stroke;stroke-width:0.264583;stroke-dasharray:none;-inkscape-stroke:hairline" />
    <path
       d="M 288,77.666905 307.3331,97 288,116.3331 268.6669,97 Z"
       id="path5"
       style="vector-effect:non-scaling-stroke;stroke-width:0.264583;stroke-dasharray:none;-inkscape-stroke:hairline" />
    <path
       d="M 288,29.666905 307.3331,49 288,68.333095 268.6669,49 Z"
       id="path6"
       style="vector-effect:non-scaling-stroke;stroke-width:0.264583;stroke-dasharray:none;-inkscape-stroke:hairline" />
    <path
       d="M 312,101.6669 331.3331,121 312,140.3331 292.6669,121 Z"
       id="path7"
       style="vector-effect:non-scaling-stroke;stroke-width:0.264583;stroke-dasharray:none;-inkscape-stroke:hairline" />
    <path
       d="M 312,53.666905 331.3331,73 312,92.333095 292.6669,73 Z"
       id="path8"
       style="vector-effect:non-scaling-stroke;stroke-width:0.264583;stroke-dasharray:none;-inkscape-stroke:hairline" />
    <path
       d="M 331.3331,25 312,44.333095 292.6669,25 293.6669,24 H 330.3331 Z"
       id="path9"
       style="vector-effect:non-scaling-stroke;stroke-width:0.264583;stroke-dasharray:none;-inkscape-stroke:hairline" />
    <path
       d="M 354.3331,144 H 317.6669 L 336,125.6669 Z"
       id="path10"
       style="vector-effect:non-scaling-stroke;stroke-width:0.264583;stroke-dasharray:none;-inkscape-stroke:hairline" />
    <path
       d="M 336,77.666905 355.3331,97 336,116.3331 316.6669,97 Z"
       id="path11"
       style="vector-effect:non-scaling-stroke;stroke-width:0.264583;stroke-dasharray:none;-inkscape-stroke:hairline" />
    <path
       d="M 336,29.666905 355.3331,49 336,68.333095 316.6669,49 Z"
       id="path12"
       style="vector-effect:non-scaling-stroke;stroke-width:0.264583;stroke-dasharray:none;-inkscape-stroke:hairline" />
    <path
       d="M 360,101.6669 379.3331,121 360,140.3331 340.6669,121 Z"
       id="path13"
       style="vector-effect:non-scaling-stroke;stroke-width:0.264583;stroke-dasharray:none;-inkscape-stroke:hairline" />
    <path
       d="M 360,53.666905 379.3331,73 360,92.333095 340.6669,73 Z"
       id="path14"
       style="vector-effect:non-scaling-stroke;stroke-width:0.264583;stroke-dasharray:none;-inkscape-stroke:hairline" />
    <path
       d="M 379.3331,25 360,44.333095 340.6669,25 341.6669,24 H 378.3331 Z"
       id="path15"
       style="vector-effect:non-scaling-stroke;stroke-width:0.264583;stroke-dasharray:none;-inkscape-stroke:hairline" />
    <path
       d="M 402.3331,144 H 365.6669 L 384,125.6669 Z"
       id="path16"
       style="vector-effect:non-scaling-stroke;stroke-width:0.264583;stroke-dasharray:none;-inkscape-stroke:hairline" />
    <path
       d="M 384,77.666905 403.3331,97 384,116.3331 364.6669,97 Z"
       id="path17"
       style="vector-effect:non-scaling-stroke;stroke-width:0.264583;stroke-dasharray:none;-inkscape-stroke:hairline" />
    <path
       d="M 384,29.666905 403.3331,49 384,68.333095 364.6669,49 Z"
       id="path18"
       style="vector-effect:non-scaling-stroke;stroke-width:0.264583;stroke-dasharray:none;-inkscape-stroke:hairline" />
    <path
       d="M 408,101.6669 427.3331,121 408,140.3331 388.6669,121 Z"
       id="path19"
       style="vector-effect:non-scaling-stroke;stroke-width:0.264583;stroke-dasharray:none;-inkscape-stroke:hairline" />
    <path
       d="M 408,53.666905 427.3331,73 408,92.333095 388.6669,73 Z"
       id="path20"
       style="vector-effect:non-scaling-stroke;stroke-width:0.264583;stroke-dasharray:none;-inkscape-stroke:hairline" />
    <path
       d="M 427.3331,25 408,44.333095 388.6669,25 389.6669,24 H 426.3331 Z"
       id="path21"
       style="vector-effect:non-scaling-stroke;stroke-width:0.264583;stroke-dasharray:none;-inkscape-stroke:hairline" />
    <path
       d="M 450.3331,144 H 413.6669 L 432,125.6669 Z"
       id="path22"
       style="vector-effect:non-scaling-stroke;stroke-width:0.264583;stroke-dasharray:none;-inkscape-stroke:hairline" />
    <path
       d="M 432,77.666905 451.3331,97 432,116.3331 412.6669,97 Z"
       id="path23"
       style="vector-effect:non-scaling-stroke;stroke-width:0.264583;stroke-dasharray:none;-inkscape-stroke:hairline" />
    <path
       d="M 432,29.666905 451.3331,49 432,68.333095 412.6669,49 Z"
       id="path24"
       style="vector-effect:non-scaling-stroke;stroke-width:0.264583;stroke-dasharray:none;-inkscape-stroke:hairline" />
    <path
       d="M 456,101.6669 475.3331,121 456,140.3331 436.6669,121 Z"
       id="path25"
       style="vector-effect:non-scaling-stroke;stroke-width:0.264583;stroke-dasharray:none;-inkscape-stroke:hairline" />
    <path
       d="M 456,53.666905 475.3331,73 456,92.333095 436.6669,73 Z"
       id="path26"
       style="vector-effect:non-scaling-stroke;stroke-width:0.264583;stroke-dasharray:none;-inkscape-stroke:hairline" />
    <path
       d="M 475.3331,25 456,44.333095 436.6669,25 437.6669,24 H 474.3331 Z"
       id="path27"
       style="vector-effect:non-scaling-stroke;stroke-width:0.264583;stroke-dasharray:none;-inkscape-stroke:hairline" />
    <path
       d="M 498.3331,144 H 461.6669 L 480,125.6669 Z"
       id="path28"
       style="vector-effect:non-scaling-stroke;stroke-width:0.264583;stroke-dasharray:none;-inkscape-stroke:hairline" />
    <path
       d="M 480,77.666905 499.3331,97 480,116.3331 460.6669,97 Z"
       id="path29"
       style="vector-effect:non-scaling-stroke;stroke-width:0.264583;stroke-dasharray:none;-inkscape-stroke:hairline" />
    <path
       d="M 480,29.666905 499.3331,49 480,68.333095 460.6669,49 Z"
       id="path30"
       style="vector-effect:non-scaling-stroke;stroke-width:0.264583;stroke-dasharray:none;-inkscape-stroke:hairline" />
    <path
       d="M 504,101.6669 523.3331,121 504,140.3331 484.6669,121 Z"
       id="path31"
       style="vector-effect:non-scaling-stroke;stroke-width:0.264583;stroke-dasharray:none;-inkscape-stroke:hairline" />
    <path
       d="M 504,53.666905 523.3331,73 504,92.333095 484.6669,73 Z"
       id="path32"
       style="vector-effect:non-scaling-stroke;stroke-width:0.264583;stroke-dasharray:none;-inkscape-stroke:hairline" />
    <path
       d="M 523.3331,25 504,44.333095 484.6669,25 485.6669,24 H 522.3331 Z"
       id="path33"
       style="vector-effect:non-scaling-stroke;stroke-width:0.264583;stroke-dasharray:none;-inkscape-stroke:hairline" />
    <path
       d="M 546.3331,144 H 509.6669 L 528,125.6669 Z"
       id="path34"
       style="vector-effect:non-scaling-stroke;stroke-width:0.264583;stroke-dasharray:none;-inkscape-stroke:hairline" />
    <path
       d="M 528,77.666905 547.3331,97 528,116.3331 508.6669,97 Z"
       id="path35"
       style="vector-effect:non-scaling-stroke;stroke-width:0.264583;stroke-dasharray:none;-inkscape-stroke:hairline" />
    <path
       d="M 528,29.666905 547.3331,49 528,68.333095 508.6669,49 Z"
       id="path36"
       style="vector-effect:non-scaling-stroke;stroke-width:0.264583;stroke-dasharray:none;-inkscape-stroke:hairline" />
    <path
       d="M 552,101.6669 571.3331,121 552,140.3331 532.6669,121 Z"
       id="path37"
       style="vector-effect:non-scaling-stroke;stroke-width:0.264583;stroke-dasharray:none;-inkscape-stroke:hairline" />
    <path
       d="M 552,53.666905 571.3331,73 552,92.333095 532.6669,73 Z"
       id="path38"
       style="vector-effect:non-scaling-stroke;stroke-width:0.264583;stroke-dasharray:none;-inkscape-stroke:hairline" />
    <path
       d="M 571.3331,25 552,44.333095 532.6669,25 533.6669,24 H 570.3331 Z"
       id="path39"
       style="vector-effect:non-scaling-stroke;stroke-width:0.264583;stroke-dasharray:none;-inkscape-stroke:hairline" />
    <path
       d="M 594.3331,144 H 557.6669 L 576,125.6669 Z"
       id="path40"
       style="vector-effect:non-scaling-stroke;stroke-width:0.264583;stroke-dasharray:none;-inkscape-stroke:hairline" />
    <path
       d="M 576,77.666905 595.3331,97 576,116.3331 556.6669,97 Z"
       id="path41"
       style="vector-effect:non-scaling-stroke;stroke-width:0.264583;stroke-dasharray:none;-inkscape-stroke:hairline" />
    <path
       d="M 576,29.666905 595.3331,49 576,68.333095 556.6669,49 Z"
       id="path42"
       style="vector-effect:non-scaling-stroke;stroke-width:0.264583;stroke-dasharray:none;-inkscape-stroke:hairline" />
    <path
       d="M 600,101.6669 619.3331,121 600,140.3331 580.6669,121 Z"
       id="path43"
       style="vector-effect:non-scaling-stroke;stroke-width:0.264583;stroke-dasharray:none;-inkscape-stroke:hairline" />
    <path
       d="M 600,53.666905 619.3331,73 600,92.333095 580.6669,73 Z"
       id="path44"
       style="vector-effect:non-scaling-stroke;stroke-width:0.264583;stroke-dasharray:none;-inkscape-stroke:hairline" />
    <path
       d="M 619.3331,25 600,44.333095 580.6669,25 581.6669,24 H 618.3331 Z"
       id="path45"
       style="vector-effect:non-scaling-stroke;stroke-width:0.264583;stroke-dasharray:none;-inkscape-stroke:hairline" />
    <path
       d="M 642.3331,144 H 605.6669 L 624,125.6669 Z"
       id="path46"
       style="vector-effect:non-scaling-stroke;stroke-width:0.264583;stroke-dasharray:none;-inkscape-stroke:hairline" />
    <path
       d="M 624,77.666905 643.3331,97 624,116.3331 604.6669,97 Z"
       id="path47"
       style="vector-effect:non-scaling-stroke;stroke-width:0.264583;stroke-dasharray:none;-inkscape-stroke:hairline" />
    <path
       d="M 624,29.666905 643.3331,49 624,68.333095 604.6669,49 Z"
       id="path48"
       style="vector-effect:non-scaling-stroke;stroke-width:0.264583;stroke-dasharray:none;-inkscape-stroke:hairline" />
    <path
       d="M 648,101.6669 667.3331,121 648,140.3331 628.6669,121 Z"
       id="path49"
       style="vector-effect:non-scaling-stroke;stroke-width:0.264583;stroke-dasharray:none;-inkscape-stroke:hairline" />
    <path
       d="M 648,53.666905 667.3331,73 648,92.333095 628.6669,73 Z"
       id="path50"
       style="vector-effect:non-scaling-stroke;stroke-width:0.264583;stroke-dasharray:none;-inkscape-stroke:hairline" />
    <path
       d="M 667.3331,25 648,44.333095 628.6669,25 629.6669,24 H 666.3331 Z"
       id="path51"
       style="vector-effect:non-scaling-stroke;stroke-width:0.264583;stroke-dasharray:none;-inkscape-stroke:hairline" />
    <path
       d="M 690.3331,144 H 653.6669 L 672,125.6669 Z"
       id="path52"
       style="vector-effect:non-scaling-stroke;stroke-width:0.264583;stroke-dasharray:none;-inkscape-stroke:hairline" />
    <path
       d="M 672,77.666905 691.3331,97 672,116.3331 652.6669,97 Z"
       id="path53"
       style="vector-effect:non-scaling-stroke;stroke-width:0.264583;stroke-dasharray:none;-inkscape-stroke:hairline" />
    <path
       d="M 672,29.666905 691.3331,49 672,68.333095 652.6669,49 Z"
       id="path54"
       style="vector-effect:non-scaling-stroke;stroke-width:0.264583;stroke-dasharray:none;-inkscape-stroke:hairline" />
    <path
       d="M 696,101.6669 715.3331,121 696,140.3331 676.6669,121 Z"
       id="path55"
       style="vector-effect:non-scaling-stroke;stroke-width:0.264583;stroke-dasharray:none;-inkscape-stroke:hairline" />
    <path
       d="M 696,53.666905 715.3331,73 696,92.333095 676.6669,73 Z"
       id="path56"
       style="vector-effect:non-scaling-stroke;stroke-width:0.264583;stroke-dasharray:none;-inkscape-stroke:hairline" />
    <path
       d="M 715.3331,25 696,44.333095 676.6669,25 677.6669,24 H 714.3331 Z"
       id="path57"
       style="vector-effect:non-scaling-stroke;stroke-width:0.264583;stroke-dasharray:none;-inkscape-stroke:hairline" />
    <path
       d="M 738.3331,144 H 701.6669 L 720,125.6669 Z"
       id="path58"
       style="vector-effect:non-scaling-stroke;stroke-width:0.264583;stroke-dasharray:none;-inkscape-stroke:hairline" />
    <path
       d="M 720,77.666905 739.3331,97 720,116.3331 700.6669,97 Z"
       id="path59"
       style="vector-effect:non-scaling-stroke;stroke-width:0.264583;stroke-dasharray:none;-inkscape-stroke:hairline" />
    <path
       d="M 720,29.666905 739.3331,49 720,68.333095 700.6669,49 Z"
       id="path60"
       style="vector-effect:non-scaling-stroke;stroke-width:0.264583;stroke-dasharray:none;-inkscape-stroke:hairline" />
    <path
       d="M 744,101.6669 763.3331,121 744,140.3331 724.6669,121 Z"
       id="path61"
       style="vector-effect:non-scaling-stroke;stroke-width:0.264583;stroke-dasharray:none;-inkscape-stroke:hairline" />
    <path
       d="M 744,53.666905 763.3331,73 744,92.333095 724.6669,73 Z"
       id="path62"
       style="vector-effect:non-scaling-stroke;stroke-width:0.264583;stroke-dasharray:none;-inkscape-stroke:hairline" />
    <path
       d="M 763.3331,25 744,44.333095 724.6669,25 725.6669,24 H 762.3331 Z"
       id="path63"
       style="vector-effect:non-scaling-stroke;stroke-width:0.264583;stroke-dasharray:none;-inkscape-stroke:hairline" />
    <path
       d="M 786.3331,144 H 749.6669 L 768,125.6669 Z"
       id="path64"
       style="vector-effect:non-scaling-stroke;stroke-width:0.264583;stroke-dasharray:none;-inkscape-stroke:hairline" />
    <path
       d="M 768,77.666905 787.3331,97 768,116.3331 748.6669,97 Z"
       id="path65"
       style="vector-effect:non-scaling-stroke;stroke-width:0.264583;stroke-dasharray:none;-inkscape-stroke:hairline" />
    <path
       d="M 768,29.666905 787.3331,49 768,68.333095 748.6669,49 Z"
       id="path66"
       style="vector-effect:non-scaling-stroke;stroke-width:0.264583;stroke-dasharray:none;-inkscape-stroke:hairline" />
    <path
       d="M 792,101.6669 811.3331,121 792,140.3331 772.6669,121 Z"
       id="path67"
       style="vector-effect:non-scaling-stroke;stroke-width:0.264583;stroke-dasharray:none;-inkscape-stroke:hairline" />
    <path
       d="M 792,53.666905 811.3331,73 792,92.333095 772.6669,73 Z"
       id="path68"
       style="vector-effect:non-scaling-stroke;stroke-width:0.264583;stroke-dasharray:none;-inkscape-stroke:hairline" />
    <path
       d="M 811.3331,25 792,44.333095 772.6669,25 773.6669,24 H 810.3331 Z"
       id="path69"
       style="vector-effect:non-scaling-stroke;stroke-width:0.264583;stroke-dasharray:none;-inkscape-stroke:hairline" />
    <path
       d="M 834.3331,144 H 797.6669 L 816,125.6669 Z"
       id="path70"
       style="vector-effect:non-scaling-stroke;stroke-width:0.264583;stroke-dasharray:none;-inkscape-stroke:hairline" />
    <path
       d="M 816,77.666905 835.3331,97 816,116.3331 796.6669,97 Z"
       id="path71"
       style="vector-effect:non-scaling-stroke;stroke-width:0.264583;stroke-dasharray:none;-inkscape-stroke:hairline" />
    <path
       d="M 816,29.666905 835.3331,49 816,68.333095 796.6669,49 Z"
       id="path72"
       style="vector-effect:non-scaling-stroke;stroke-width:0.264583;stroke-dasharray:none;-inkscape-stroke:hairline" />
    <path
       d="M 840,101.6669 859.3331,121 840,140.3331 820.6669,121 Z"
       id="path73"
       style="vector-effect:non-scaling-stroke;stroke-width:0.264583;stroke-dasharray:none;-inkscape-stroke:hairline" />
    <path
       d="M 840,53.666905 859.3331,73 840,92.333095 820.6669,73 Z"
       id="path74"
       style="vector-effect:non-scaling-stroke;stroke-width:0.264583;stroke-dasharray:none;-inkscape-stroke:hairline" />
    <path
       d="M 859.3331,25 840,44.333095 820.6669,25 821.6669,24 H 858.3331 Z"
       id="path75"
       style="vector-effect:non-scaling-stroke;stroke-width:0.264583;stroke-dasharray:none;-inkscape-stroke:hairline" />
    <path
       d="M 882.3331,144 H 845.6669 L 864,125.6669 Z"
       id="path76"
       style="vector-effect:non-scaling-stroke;stroke-width:0.264583;stroke-dasharray:none;-inkscape-stroke:hairline" />
    <path
       d="M 864,77.666905 883.3331,97 864,116.3331 844.6669,97 Z"
       id="path77"
       style="vector-effect:non-scaling-stroke;stroke-width:0.264583;stroke-dasharray:none;-inkscape-stroke:hairline" />
    <path
       d="M 864,29.666905 883.3331,49 864,68.333095 844.6669,49 Z"
       id="path78"
       style="vector-effect:non-scaling-stroke;stroke-width:0.264583;stroke-dasharray:none;-inkscape-stroke:hairline" />
    <path
       d="M 888,101.6669 907.3331,121 888,140.3331 868.6669,121 Z"
       id="path79"
       style="vector-effect:non-scaling-stroke;stroke-width:0.264583;stroke-dasharray:none;-inkscape-stroke:hairline" />
    <path
       d="M 888,53.666905 907.3331,73 888,92.333095 868.6669,73 Z"
       id="path80"
       style="vector-effect:non-scaling-stroke;stroke-width:0.264583;stroke-dasharray:none;-inkscape-stroke:hairline" />
    <path
       d="M 907.3331,25 888,44.333095 868.6669,25 869.6669,24 H 906.3331 Z"
       id="path81"
       style="vector-effect:non-scaling-stroke;stroke-width:0.264583;stroke-dasharray:none;-inkscape-stroke:hairline" />
    <path
       d="M 930.3331,144 H 893.6669 L 912,125.6669 Z"
       id="path82"
       style="vector-effect:non-scaling-stroke;stroke-width:0.264583;stroke-dasharray:none;-inkscape-stroke:hairline" />
    <path
       d="M 912,77.666905 931.3331,97 912,116.3331 892.6669,97 Z"
       id="path83"
       style="vector-effect:non-scaling-stroke;stroke-width:0.264583;stroke-dasharray:none;-inkscape-stroke:hairline" />
    <path
       d="M 912,29.666905 931.3331,49 912,68.333095 892.6669,49 Z"
       id="path84"
       style="vector-effect:non-scaling-stroke;stroke-width:0.264583;stroke-dasharray:none;-inkscape-stroke:hairline" />
    <path
       d="M 936,101.6669 955.3331,121 936,140.3331 916.6669,121 Z"
       id="path85"
       style="vector-effect:non-scaling-stroke;stroke-width:0.264583;stroke-dasharray:none;-inkscape-stroke:hairline" />
    <path
       d="M 936,53.666905 955.3331,73 936,92.333095 916.6669,73 Z"
       id="path86"
       style="vector-effect:non-scaling-stroke;stroke-width:0.264583;stroke-dasharray:none;-inkscape-stroke:hairline" />
    <path
       d="M 955.3331,25 936,44.333095 916.6669,25 917.6669,24 H 954.3331 Z"
       id="path87"
       style="vector-effect:non-scaling-stroke;stroke-width:0.264583;stroke-dasharray:none;-inkscape-stroke:hairline" />
    <path
       d="M 978.3331,144 H 941.6669 L 960,125.6669 Z"
       id="path88"
       style="vector-effect:non-scaling-stroke;stroke-width:0.264583;stroke-dasharray:none;-inkscape-stroke:hairline" />
    <path
       d="M 960,77.666905 979.3331,97 960,116.3331 940.6669,97 Z"
       id="path89"
       style="vector-effect:non-scaling-stroke;stroke-width:0.264583;stroke-dasharray:none;-inkscape-stroke:hairline" />
    <path
       d="M 960,29.666905 979.3331,49 960,68.333095 940.6669,49 Z"
       id="path90"
       style="vector-effect:non-scaling-stroke;stroke-width:0.264583;stroke-dasharray:none;-inkscape-stroke:hairline" />
    <path
       d="M 984,101.6669 1003.3331,121 984,140.3331 964.6669,121 Z"
       id="path91"
       style="vector-effect:non-scaling-stroke;stroke-width:0.264583;stroke-dasharray:none;-inkscape-stroke:hairline" />
    <path
       d="M 984,53.666905 1003.3331,73 984,92.333095 964.6669,73 Z"
       id="path92"
       style="vector-effect:non-scaling-stroke;stroke-width:0.264583;stroke-dasharray:none;-inkscape-stroke:hairline" />
    <path
       d="M 1003.3331,25 984,44.333095 964.6669,25 965.6669,24 H 1002.3331 Z"
       id="path93"
       style="vector-effect:non-scaling-stroke;stroke-width:0.264583;stroke-dasharray:none;-inkscape-stroke:hairline" />
    <path
       d="M 1026.3331,144 H 989.6669 L 1008,125.6669 Z"
       id="path94"
       style="vector-effect:non-scaling-stroke;stroke-width:0.264583;stroke-dasharray:none;-inkscape-stroke:hairline" />
    <path
       d="M 1008,77.666905 1027.3331,97 1008,116.3331 988.6669,97 Z"
       id="path95"
       style="vector-effect:non-scaling-stroke;stroke-width:0.264583;stroke-dasharray:none;-inkscape-stroke:hairline" />
    <path
       d="M 1008,29.666905 1027.3331,49 1008,68.333095 988.6669,49 Z"
       id="path96"
       style="vector-effect:non-scaling-stroke;stroke-width:0.264583;stroke-dasharray:none;-inkscape-stroke:hairline" />
    <path
       d="M 1032,101.6669 1051.3331,121 1032,140.3331 1012.6669,121 Z"
       id="path97"
       style="vector-effect:non-scaling-stroke;stroke-width:0.264583;stroke-dasharray:none;-inkscape-stroke:hairline" />
    <path
       d="M 1032,53.666905 1051.3331,73 1032,92.333095 1012.6669,73 Z"
       id="path98"
       style="vector-effect:non-scaling-stroke;stroke-width:0.264583;stroke-dasharray:none;-inkscape-stroke:hairline" />
    <path
       d="M 1051.3331,25 1032,44.333095 1012.6669,25 1013.6669,24 H 1050.3331 Z"
       id="path99"
       style="vector-effect:non-scaling-stroke;stroke-width:0.264583;stroke-dasharray:none;-inkscape-stroke:hairline" />
    <path
       d="M 1074.3331,144 H 1037.6669 L 1056,125.6669 Z"
       id="path100"
       style="vector-effect:non-scaling-stroke;stroke-width:0.264583;stroke-dasharray:none;-inkscape-stroke:hairline" />
    <path
       d="M 1056,77.666905 1075.3331,97 1056,116.3331 1036.6669,97 Z"
       id="path101"
       style="vector-effect:non-scaling-stroke;stroke-width:0.264583;stroke-dasharray:none;-inkscape-stroke:hairline" />
    <path
       d="M 1056,29.666905 1075.3331,49 1056,68.333095 1036.6669,49 Z"
       id="path102"
       style="vector-effect:non-scaling-stroke;stroke-width:0.264583;stroke-dasharray:none;-inkscape-stroke:hairline" />
    <path
       d="M 1080,101.6669 1099.3331,121 1080,140.3331 1060.6669,121 Z"
       id="path103"
       style="vector-effect:non-scaling-stroke;stroke-width:0.264583;stroke-dasharray:none;-inkscape-stroke:hairline" />
    <path
       d="M 1080,53.666905 1099.3331,73 1080,92.333095 1060.6669,73 Z"
       id="path104"
       style="vector-effect:non-scaling-stroke;stroke-width:0.264583;stroke-dasharray:none;-inkscape-stroke:hairline" />
    <path
       d="M 1099.3331,25 1080,44.333095 1060.6669,25 1061.6669,24 H 1098.3331 Z"
       id="path105"
       style="vector-effect:non-scaling-stroke;stroke-width:0.264583;stroke-dasharray:none;-inkscape-stroke:hairline" />
    <path
       d="M 1122.3331,144 H 1085.6669 L 1104,125.6669 Z"
       id="path106"
       style="vector-effect:non-scaling-stroke;stroke-width:0.264583;stroke-dasharray:none;-inkscape-stroke:hairline" />
    <path
       d="M 1104,77.666905 1123.3331,97 1104,116.3331 1084.6669,97 Z"
       id="path107"
       style="vector-effect:non-scaling-stroke;stroke-width:0.264583;stroke-dasharray:none;-inkscape-stroke:hairline" />
    <path
       d="M 1104,29.666905 1123.3331,49 1104,68.333095 1084.6669,49 Z"
       id="path108"
       style="vector-effect:non-scaling-stroke;stroke-width:0.264583;stroke-dasharray:none;-inkscape-stroke:hairline" />
    <path
       d="M 1128,101.6669 1147.3331,121 1128,140.3331 1108.6669,121 Z"
       id="path109"
       style="vector-effect:non-scaling-stroke;stroke-width:0.264583;stroke-dasharray:none;-inkscape-stroke:hairline" />
    <path
       d="M 1128,53.666905 1147.3331,73 1128,92.333095 1108.6669,73 Z"
       id="path110"
       style="vector-effect:non-scaling-stroke;stroke-width:0.264583;stroke-dasharray:none;-inkscape-stroke:hairline" />
    <path
       d="M 1147.3331,25 1128,44.333095 1108.6669,25 1109.6669,24 H 1146.3331 Z"
       id="path111"
       style="vector-effect:non-scaling-stroke;stroke-width:0.264583;stroke-dasharray:none;-inkscape-stroke:hairline" />
    <path
       d="M 1150,127.6669 V 144 H 1133.6669 Z"
       id="path112"
       style="vector-effect:non-scaling-stroke;stroke-width:0.264583;stroke-dasharray:none;-inkscape-stroke:hairline" />
    <path
       d="M 1132.6669,97 1150,79.666905 V 114.3331 Z"
       id="path113"
       style="vector-effect:non-scaling-stroke;stroke-width:0.264583;stroke-dasharray:none;-inkscape-stroke:hairline" />
    <path
       d="M 1132.6669,49 1150,31.666905 V 66.333095 Z"
       id="path114"
       style="vector-effect:non-scaling-stroke;stroke-width:0.264583;stroke-dasharray:none;-inkscape-stroke:hairline" />
    <path
       d="M 254,170 H 1162 V 0 H 254 Z"
       id="path115"
       style="vector-effect:non-scaling-stroke;stroke-width:0.264583;stroke-dasharray:none;-inkscape-stroke:hairline" />
  </g>
  <text
     xml:space="preserve"
     style="font-size:13.2731px;line-height:1.25;font-family:'Noto Mono';-inkscape-font-specification:'Noto Mono';word-spacing:0px;stroke-width:0.138261"
     x="144.51587"
     y="39.945091"
     id="text203-5"><tspan
       sodipodi:role="line"
       id="tspan203-3"
       style="stroke-width:0.138261"
       x="144.51587"
       y="39.945091">12</tspan></text>
  <path
     style="fill:none;stroke:#000000;stroke-width:1.165;stroke-linecap:butt;stroke-linejoin:miter;stroke-dasharray:none;stroke-opacity:1;marker-start:url(#Stop-5);marker-end:url(#Stop-5)"
     d="M 146.69599,52.11351 158.69599,52.11423"
     id="path194"
     sodipodi:nodetypes="cc" />
  <text
     xml:space="preserve"
     style="font-size:13.2731px;line-height:1.25;font-family:'Noto Mono';-inkscape-font-specification:'Noto Mono';word-spacing:0px;stroke-width:0.138261"
     x="152.64923"
     y="227.48499"
     id="text194"><tspan
       sodipodi:role="line"
       id="tspan194"
       style="stroke-width:0.138261"
       x="152.64923"
       y="227.48499">26</tspan></text>
  <path
     style="fill:none;stroke:#000000;stroke-width:1.165;stroke-linecap:butt;stroke-linejoin:miter;stroke-dasharray:none;stroke-opacity:1;marker-start:url(#Stop-5);marker-end:url(#Stop-5)"
     d="M 140.17985,209.76777 140.17913,235"
     id="path195"
     sodipodi:nodetypes="cc" />
</svg>
