<?xml version="1.0" encoding="utf-8" ?>
<svg baseProfile="full" height="300mm" version="1.1" viewBox="0 0 1200 300" width="1200mm" xmlns="http://www.w3.org/2000/svg" xmlns:ev="http://www.w3.org/2001/xml-events" xmlns:xlink="http://www.w3.org/1999/xlink"><defs /><g fill="none" stroke="blue" stroke-width="0.5" transform="translate(10.0,61.75)"><path d="M 160.0,102.7754833995939 L 175.4745166004061,118.25 L 160.0,133.7245166004061 L 144.5254833995939,118.25 L 160.0,102.7754833995939 Z" /><path d="M 160.0,62.775483399593895 L 175.4745166004061,78.25 L 160.0,93.7245166004061 L 144.5254833995939,78.25 L 160.0,62.775483399593895 Z" /><path d="M 180.0,82.7754833995939 L 195.4745166004061,98.25 L 180.0,113.7245166004061 L 164.5254833995939,98.25 L 180.0,82.7754833995939 Z" /><path d="M 180.0,42.775483399593895 L 195.4745166004061,58.25 L 180.0,73.7245166004061 L 164.5254833995939,58.25 L 180.0,42.775483399593895 Z" /><path d="M 200.0,102.7754833995939 L 215.4745166004061,118.25 L 200.0,133.7245166004061 L 184.5254833995939,118.25 L 200.0,102.7754833995939 Z" /><path d="M 200.0,62.775483399593895 L 215.4745166004061,78.25 L 200.0,93.7245166004061 L 184.5254833995939,78.25 L 200.0,62.775483399593895 Z" /><path d="M 220.0,82.7754833995939 L 235.4745166004061,98.25 L 220.0,113.7245166004061 L 204.5254833995939,98.25 L 220.0,82.7754833995939 Z" /><path d="M 220.0,42.775483399593895 L 235.4745166004061,58.25 L 220.0,73.7245166004061 L 204.5254833995939,58.25 L 220.0,42.775483399593895 Z" /><path d="M 240.0,102.7754833995939 L 255.4745166004061,118.25 L 240.0,133.7245166004061 L 224.5254833995939,118.25 L 240.0,102.7754833995939 Z" /><path d="M 240.0,62.775483399593895 L 255.4745166004061,78.25 L 240.0,93.7245166004061 L 224.5254833995939,78.25 L 240.0,62.775483399593895 Z" /><path d="M 260.0,82.7754833995939 L 275.4745166004061,98.25 L 260.0,113.7245166004061 L 244.5254833995939,98.25 L 260.0,82.7754833995939 Z" /><path d="M 260.0,42.775483399593895 L 275.4745166004061,58.25 L 260.0,73.7245166004061 L 244.5254833995939,58.25 L 260.0,42.775483399593895 Z" /><path d="M 280.0,102.7754833995939 L 295.4745166004061,118.25 L 280.0,133.7245166004061 L 264.5254833995939,118.25 L 280.0,102.7754833995939 Z" /><path d="M 280.0,62.775483399593895 L 295.4745166004061,78.25 L 280.0,93.7245166004061 L 264.5254833995939,78.25 L 280.0,62.775483399593895 Z" /><path d="M 300.0,82.7754833995939 L 315.4745166004061,98.25 L 300.0,113.7245166004061 L 284.5254833995939,98.25 L 300.0,82.7754833995939 Z" /><path d="M 300.0,42.775483399593895 L 315.4745166004061,58.25 L 300.0,73.7245166004061 L 284.5254833995939,58.25 L 300.0,42.775483399593895 Z" /><path d="M 320.0,102.7754833995939 L 335.4745166004061,118.25 L 320.0,133.7245166004061 L 304.5254833995939,118.25 L 320.0,102.7754833995939 Z" /><path d="M 320.0,62.775483399593895 L 335.4745166004061,78.25 L 320.0,93.7245166004061 L 304.5254833995939,78.25 L 320.0,62.775483399593895 Z" /><path d="M 340.0,82.7754833995939 L 355.4745166004061,98.25 L 340.0,113.7245166004061 L 324.5254833995939,98.25 L 340.0,82.7754833995939 Z" /><path d="M 340.0,42.775483399593895 L 355.4745166004061,58.25 L 340.0,73.7245166004061 L 324.5254833995939,58.25 L 340.0,42.775483399593895 Z" /><path d="M 360.0,102.7754833995939 L 375.4745166004061,118.25 L 360.0,133.7245166004061 L 344.5254833995939,118.25 L 360.0,102.7754833995939 Z" /><path d="M 360.0,62.775483399593895 L 375.4745166004061,78.25 L 360.0,93.7245166004061 L 344.5254833995939,78.25 L 360.0,62.775483399593895 Z" /><path d="M 380.0,82.7754833995939 L 395.4745166004061,98.25 L 380.0,113.7245166004061 L 364.5254833995939,98.25 L 380.0,82.7754833995939 Z" /><path d="M 380.0,42.775483399593895 L 395.4745166004061,58.25 L 380.0,73.7245166004061 L 364.5254833995939,58.25 L 380.0,42.775483399593895 Z" /><path d="M 400.0,102.7754833995939 L 415.4745166004061,118.25 L 400.0,133.7245166004061 L 384.5254833995939,118.25 L 400.0,102.7754833995939 Z" /><path d="M 400.0,62.775483399593895 L 415.4745166004061,78.25 L 400.0,93.7245166004061 L 384.5254833995939,78.25 L 400.0,62.775483399593895 Z" /><path d="M 420.0,82.7754833995939 L 435.4745166004061,98.25 L 420.0,113.7245166004061 L 404.5254833995939,98.25 L 420.0,82.7754833995939 Z" /><path d="M 420.0,42.775483399593895 L 435.4745166004061,58.25 L 420.0,73.7245166004061 L 404.5254833995939,58.25 L 420.0,42.775483399593895 Z" /><path d="M 440.0,102.7754833995939 L 455.4745166004061,118.25 L 440.0,133.7245166004061 L 424.5254833995939,118.25 L 440.0,102.7754833995939 Z" /><path d="M 440.0,62.775483399593895 L 455.4745166004061,78.25 L 440.0,93.7245166004061 L 424.5254833995939,78.25 L 440.0,62.775483399593895 Z" /><path d="M 460.0,82.7754833995939 L 475.4745166004061,98.25 L 460.0,113.7245166004061 L 444.5254833995939,98.25 L 460.0,82.7754833995939 Z" /><path d="M 460.0,42.775483399593895 L 475.4745166004061,58.25 L 460.0,73.7245166004061 L 444.5254833995939,58.25 L 460.0,42.775483399593895 Z" /><path d="M 480.0,102.7754833995939 L 495.4745166004061,118.25 L 480.0,133.7245166004061 L 464.5254833995939,118.25 L 480.0,102.7754833995939 Z" /><path d="M 480.0,62.775483399593895 L 495.4745166004061,78.25 L 480.0,93.7245166004061 L 464.5254833995939,78.25 L 480.0,62.775483399593895 Z" /><path d="M 500.0,82.7754833995939 L 515.4745166004061,98.25 L 500.0,113.7245166004061 L 484.5254833995939,98.25 L 500.0,82.7754833995939 Z" /><path d="M 500.0,42.775483399593895 L 515.4745166004061,58.25 L 500.0,73.7245166004061 L 484.5254833995939,58.25 L 500.0,42.775483399593895 Z" /><path d="M 520.0,102.7754833995939 L 535.4745166004061,118.25 L 520.0,133.7245166004061 L 504.5254833995939,118.25 L 520.0,102.7754833995939 Z" /><path d="M 520.0,62.775483399593895 L 535.4745166004061,78.25 L 520.0,93.7245166004061 L 504.5254833995939,78.25 L 520.0,62.775483399593895 Z" /><path d="M 540.0,82.7754833995939 L 555.4745166004061,98.25 L 540.0,113.7245166004061 L 524.5254833995939,98.25 L 540.0,82.7754833995939 Z" /><path d="M 540.0,42.775483399593895 L 555.4745166004061,58.25 L 540.0,73.7245166004061 L 524.5254833995939,58.25 L 540.0,42.775483399593895 Z" /><path d="M 560.0,102.7754833995939 L 575.4745166004061,118.25 L 560.0,133.7245166004061 L 544.5254833995939,118.25 L 560.0,102.7754833995939 Z" /><path d="M 560.0,62.775483399593895 L 575.4745166004061,78.25 L 560.0,93.7245166004061 L 544.5254833995939,78.25 L 560.0,62.775483399593895 Z" /><path d="M 580.0,82.7754833995939 L 595.4745166004061,98.25 L 580.0,113.7245166004061 L 564.5254833995939,98.25 L 580.0,82.7754833995939 Z" /><path d="M 580.0,42.775483399593895 L 595.4745166004061,58.25 L 580.0,73.7245166004061 L 564.5254833995939,58.25 L 580.0,42.775483399593895 Z" /><path d="M 600.0,102.7754833995939 L 615.4745166004061,118.25 L 600.0,133.7245166004061 L 584.5254833995939,118.25 L 600.0,102.7754833995939 Z" /><path d="M 600.0,62.775483399593895 L 615.4745166004061,78.25 L 600.0,93.7245166004061 L 584.5254833995939,78.25 L 600.0,62.775483399593895 Z" /><path d="M 620.0,82.7754833995939 L 635.4745166004061,98.25 L 620.0,113.7245166004061 L 604.5254833995939,98.25 L 620.0,82.7754833995939 Z" /><path d="M 620.0,42.775483399593895 L 635.4745166004061,58.25 L 620.0,73.7245166004061 L 604.5254833995939,58.25 L 620.0,42.775483399593895 Z" /><path d="M 640.0,102.7754833995939 L 655.4745166004061,118.25 L 640.0,133.7245166004061 L 624.5254833995939,118.25 L 640.0,102.7754833995939 Z" /><path d="M 640.0,62.775483399593895 L 655.4745166004061,78.25 L 640.0,93.7245166004061 L 624.5254833995939,78.25 L 640.0,62.775483399593895 Z" /><path d="M 660.0,82.7754833995939 L 675.4745166004061,98.25 L 660.0,113.7245166004061 L 644.5254833995939,98.25 L 660.0,82.7754833995939 Z" /><path d="M 660.0,42.775483399593895 L 675.4745166004061,58.25 L 660.0,73.7245166004061 L 644.5254833995939,58.25 L 660.0,42.775483399593895 Z" /><path d="M 680.0,102.7754833995939 L 695.4745166004061,118.25 L 680.0,133.7245166004061 L 664.5254833995939,118.25 L 680.0,102.7754833995939 Z" /><path d="M 680.0,62.775483399593895 L 695.4745166004061,78.25 L 680.0,93.7245166004061 L 664.5254833995939,78.25 L 680.0,62.775483399593895 Z" /><path d="M 700.0,82.7754833995939 L 715.4745166004061,98.25 L 700.0,113.7245166004061 L 684.5254833995939,98.25 L 700.0,82.7754833995939 Z" /><path d="M 700.0,42.775483399593895 L 715.4745166004061,58.25 L 700.0,73.7245166004061 L 684.5254833995939,58.25 L 700.0,42.775483399593895 Z" /><path d="M 720.0,102.7754833995939 L 735.4745166004061,118.25 L 720.0,133.7245166004061 L 704.5254833995939,118.25 L 720.0,102.7754833995939 Z" /><path d="M 720.0,62.775483399593895 L 735.4745166004061,78.25 L 720.0,93.7245166004061 L 704.5254833995939,78.25 L 720.0,62.775483399593895 Z" /><path d="M 740.0,82.7754833995939 L 755.4745166004061,98.25 L 740.0,113.7245166004061 L 724.5254833995939,98.25 L 740.0,82.7754833995939 Z" /><path d="M 740.0,42.775483399593895 L 755.4745166004061,58.25 L 740.0,73.7245166004061 L 724.5254833995939,58.25 L 740.0,42.775483399593895 Z" /><path d="M 760.0,102.7754833995939 L 775.4745166004061,118.25 L 760.0,133.7245166004061 L 744.5254833995939,118.25 L 760.0,102.7754833995939 Z" /><path d="M 760.0,62.775483399593895 L 775.4745166004061,78.25 L 760.0,93.7245166004061 L 744.5254833995939,78.25 L 760.0,62.775483399593895 Z" /><path d="M 780.0,82.7754833995939 L 795.4745166004061,98.25 L 780.0,113.7245166004061 L 764.5254833995939,98.25 L 780.0,82.7754833995939 Z" /><path d="M 780.0,42.775483399593895 L 795.4745166004061,58.25 L 780.0,73.7245166004061 L 764.5254833995939,58.25 L 780.0,42.775483399593895 Z" /><path d="M 800.0,102.7754833995939 L 815.4745166004061,118.25 L 800.0,133.7245166004061 L 784.5254833995939,118.25 L 800.0,102.7754833995939 Z" /><path d="M 800.0,62.775483399593895 L 815.4745166004061,78.25 L 800.0,93.7245166004061 L 784.5254833995939,78.25 L 800.0,62.775483399593895 Z" /><path d="M 820.0,82.7754833995939 L 835.4745166004061,98.25 L 820.0,113.7245166004061 L 804.5254833995939,98.25 L 820.0,82.7754833995939 Z" /><path d="M 820.0,42.775483399593895 L 835.4745166004061,58.25 L 820.0,73.7245166004061 L 804.5254833995939,58.25 L 820.0,42.775483399593895 Z" /><path d="M 840.0,102.7754833995939 L 855.4745166004061,118.25 L 840.0,133.7245166004061 L 824.5254833995939,118.25 L 840.0,102.7754833995939 Z" /><path d="M 840.0,62.775483399593895 L 855.4745166004061,78.25 L 840.0,93.7245166004061 L 824.5254833995939,78.25 L 840.0,62.775483399593895 Z" /><path d="M 860.0,82.7754833995939 L 875.4745166004061,98.25 L 860.0,113.7245166004061 L 844.5254833995939,98.25 L 860.0,82.7754833995939 Z" /><path d="M 860.0,42.775483399593895 L 875.4745166004061,58.25 L 860.0,73.7245166004061 L 844.5254833995939,58.25 L 860.0,42.775483399593895 Z" /><path d="M 880.0,102.7754833995939 L 895.4745166004061,118.25 L 880.0,133.7245166004061 L 864.5254833995939,118.25 L 880.0,102.7754833995939 Z" /><path d="M 880.0,62.775483399593895 L 895.4745166004061,78.25 L 880.0,93.7245166004061 L 864.5254833995939,78.25 L 880.0,62.775483399593895 Z" /><path d="M 900.0,82.7754833995939 L 915.4745166004061,98.25 L 900.0,113.7245166004061 L 884.5254833995939,98.25 L 900.0,82.7754833995939 Z" /><path d="M 900.0,42.775483399593895 L 915.4745166004061,58.25 L 900.0,73.7245166004061 L 884.5254833995939,58.25 L 900.0,42.775483399593895 Z" /><path d="M 920.0,102.7754833995939 L 935.4745166004061,118.25 L 920.0,133.7245166004061 L 904.5254833995939,118.25 L 920.0,102.7754833995939 Z" /><path d="M 920.0,62.775483399593895 L 935.4745166004061,78.25 L 920.0,93.7245166004061 L 904.5254833995939,78.25 L 920.0,62.775483399593895 Z" /><path d="M 940.0,82.7754833995939 L 955.4745166004061,98.25 L 940.0,113.7245166004061 L 924.5254833995939,98.25 L 940.0,82.7754833995939 Z" /><path d="M 940.0,42.775483399593895 L 955.4745166004061,58.25 L 940.0,73.7245166004061 L 924.5254833995939,58.25 L 940.0,42.775483399593895 Z" /><path d="M 960.0,102.7754833995939 L 975.4745166004061,118.25 L 960.0,133.7245166004061 L 944.5254833995939,118.25 L 960.0,102.7754833995939 Z" /><path d="M 960.0,62.775483399593895 L 975.4745166004061,78.25 L 960.0,93.7245166004061 L 944.5254833995939,78.25 L 960.0,62.775483399593895 Z" /><path d="M 980.0,82.7754833995939 L 995.4745166004061,98.25 L 980.0,113.7245166004061 L 964.5254833995939,98.25 L 980.0,82.7754833995939 Z" /><path d="M 980.0,42.775483399593895 L 995.4745166004061,58.25 L 980.0,73.7245166004061 L 964.5254833995939,58.25 L 980.0,42.775483399593895 Z" /><path d="M 1000.0,102.7754833995939 L 1015.4745166004061,118.25 L 1000.0,133.7245166004061 L 984.5254833995939,118.25 L 1000.0,102.7754833995939 Z" /><path d="M 1000.0,62.775483399593895 L 1015.4745166004061,78.25 L 1000.0,93.7245166004061 L 984.5254833995939,78.25 L 1000.0,62.775483399593895 Z" /><path d="M 1020.0,82.7754833995939 L 1035.474516600406,98.25 L 1020.0,113.7245166004061 L 1004.5254833995939,98.25 L 1020.0,82.7754833995939 Z" /><path d="M 1020.0,42.775483399593895 L 1035.474516600406,58.25 L 1020.0,73.7245166004061 L 1004.5254833995939,58.25 L 1020.0,42.775483399593895 Z" /><path d="M 554.2754833995939,148.5 L 560.0,142.7754833995939 L 565.7245166004061,148.5 L 554.2754833995939,148.5 Z" /><path d="M 380.0,33.724516600406105 L 374.2754833995939,28.0 L 385.7245166004061,28.0 L 380.0,33.724516600406105 Z" /><path d="M 834.7754833995939,28.0 L 845.2245166004061,28.0 L 855.4745166004061,38.25 L 840.0,53.724516600406105 L 824.5254833995939,38.25 L 834.7754833995939,28.0 Z" /><path d="M 714.2754833995939,148.5 L 720.0,142.7754833995939 L 725.7245166004061,148.5 L 714.2754833995939,148.5 Z" /><path d="M 474.7754833995939,28.0 L 485.2245166004061,28.0 L 495.4745166004061,38.25 L 480.0,53.724516600406105 L 464.5254833995939,38.25 L 474.7754833995939,28.0 Z" /><path d="M 940.0,33.724516600406105 L 934.2754833995939,28.0 L 945.7245166004061,28.0 L 940.0,33.724516600406105 Z" /><path d="M 143.75,126.5254833995939 L 155.4745166004061,138.25 L 145.2245166004061,148.5 L 143.75,148.5 L 143.75,126.5254833995939 Z" /><path d="M 860.0,33.724516600406105 L 854.2754833995939,28.0 L 865.7245166004061,28.0 L 860.0,33.724516600406105 Z" /><path d="M 143.75,109.9745166004061 L 143.75,86.5254833995939 L 155.4745166004061,98.25 L 143.75,109.9745166004061 Z" /><path d="M 764.5254833995939,138.25 L 780.0,122.7754833995939 L 795.4745166004061,138.25 L 785.2245166004061,148.5 L 774.7754833995939,148.5 L 764.5254833995939,138.25 Z" /><path d="M 354.2754833995939,148.5 L 360.0,142.7754833995939 L 365.7245166004061,148.5 L 354.2754833995939,148.5 Z" /><path d="M 754.2754833995939,148.5 L 760.0,142.7754833995939 L 765.7245166004061,148.5 L 754.2754833995939,148.5 Z" /><path d="M 420.0,33.724516600406105 L 414.2754833995939,28.0 L 425.7245166004061,28.0 L 420.0,33.724516600406105 Z" /><path d="M 954.2754833995939,148.5 L 960.0,142.7754833995939 L 965.7245166004061,148.5 L 954.2754833995939,148.5 Z" /><path d="M 674.2754833995939,148.5 L 680.0,142.7754833995939 L 685.7245166004061,148.5 L 674.2754833995939,148.5 Z" /><path d="M 274.2754833995939,148.5 L 280.0,142.7754833995939 L 285.7245166004061,148.5 L 274.2754833995939,148.5 Z" /><path d="M 434.7754833995939,28.0 L 445.2245166004061,28.0 L 455.4745166004061,38.25 L 440.0,53.724516600406105 L 424.5254833995939,38.25 L 434.7754833995939,28.0 Z" /><path d="M 994.2754833995939,148.5 L 1000.0,142.7754833995939 L 1005.7245166004061,148.5 L 994.2754833995939,148.5 Z" /><path d="M 820.0,33.724516600406105 L 814.2754833995939,28.0 L 825.7245166004061,28.0 L 820.0,33.724516600406105 Z" /><path d="M 834.2754833995939,148.5 L 840.0,142.7754833995939 L 845.7245166004061,148.5 L 834.2754833995939,148.5 Z" /><path d="M 714.7754833995939,28.0 L 725.2245166004061,28.0 L 735.4745166004061,38.25 L 720.0,53.724516600406105 L 704.5254833995939,38.25 L 714.7754833995939,28.0 Z" /><path d="M 1034.775483399594,28.0 L 1036.25,28.0 L 1036.25,49.97451660040602 L 1024.525483399594,38.25 L 1034.775483399594,28.0 Z" /><path d="M 444.5254833995939,138.25 L 460.0,122.7754833995939 L 475.4745166004061,138.25 L 465.2245166004061,148.5 L 454.7754833995939,148.5 L 444.5254833995939,138.25 Z" /><path d="M 143.75,69.9745166004061 L 143.75,46.525483399593895 L 155.4745166004061,58.25 L 143.75,69.9745166004061 Z" /><path d="M 884.5254833995939,138.25 L 900.0,122.7754833995939 L 915.4745166004061,138.25 L 905.2245166004061,148.5 L 894.7754833995939,148.5 L 884.5254833995939,138.25 Z" /><path d="M 634.7754833995939,28.0 L 645.2245166004061,28.0 L 655.4745166004061,38.25 L 640.0,53.724516600406105 L 624.5254833995939,38.25 L 634.7754833995939,28.0 Z" /><path d="M 914.2754833995939,148.5 L 920.0,142.7754833995939 L 925.7245166004061,148.5 L 914.2754833995939,148.5 Z" /><path d="M 980.0,33.724516600406105 L 974.2754833995939,28.0 L 985.7245166004061,28.0 L 980.0,33.724516600406105 Z" /><path d="M 900.0,33.724516600406105 L 894.2754833995939,28.0 L 905.7245166004061,28.0 L 900.0,33.724516600406105 Z" /><path d="M 274.7754833995939,28.0 L 285.2245166004061,28.0 L 295.4745166004061,38.25 L 280.0,53.724516600406105 L 264.5254833995939,38.25 L 274.7754833995939,28.0 Z" /><path d="M 724.5254833995939,138.25 L 740.0,122.7754833995939 L 755.4745166004061,138.25 L 745.2245166004061,148.5 L 734.7754833995939,148.5 L 724.5254833995939,138.25 Z" /><path d="M 394.7754833995939,28.0 L 405.2245166004061,28.0 L 415.4745166004061,38.25 L 400.0,53.724516600406105 L 384.5254833995939,38.25 L 394.7754833995939,28.0 Z" /><path d="M 804.5254833995939,138.25 L 820.0,122.7754833995939 L 835.4745166004061,138.25 L 825.2245166004061,148.5 L 814.7754833995939,148.5 L 804.5254833995939,138.25 Z" /><path d="M 340.0,33.724516600406105 L 334.2754833995939,28.0 L 345.7245166004061,28.0 L 340.0,33.724516600406105 Z" /><path d="M 474.2754833995939,148.5 L 480.0,142.7754833995939 L 485.7245166004061,148.5 L 474.2754833995939,148.5 Z" /><path d="M 234.7754833995939,28.0 L 245.2245166004061,28.0 L 255.4745166004061,38.25 L 240.0,53.724516600406105 L 224.5254833995939,38.25 L 234.7754833995939,28.0 Z" /><path d="M 154.7754833995939,28.0 L 165.2245166004061,28.0 L 175.4745166004061,38.25 L 160.0,53.724516600406105 L 144.5254833995939,38.25 L 154.7754833995939,28.0 Z" /><path d="M 514.7754833995939,28.0 L 525.2245166004061,28.0 L 535.4745166004061,38.25 L 520.0,53.724516600406105 L 504.5254833995939,38.25 L 514.7754833995939,28.0 Z" /><path d="M 194.2754833995939,148.5 L 200.0,142.7754833995939 L 205.7245166004061,148.5 L 194.2754833995939,148.5 Z" /><path d="M 354.7754833995939,28.0 L 365.2245166004061,28.0 L 375.4745166004061,38.25 L 360.0,53.724516600406105 L 344.5254833995939,38.25 L 354.7754833995939,28.0 Z" /><path d="M 844.5254833995939,138.25 L 860.0,122.7754833995939 L 875.4745166004061,138.25 L 865.2245166004061,148.5 L 854.7754833995939,148.5 L 844.5254833995939,138.25 Z" /><path d="M 164.5254833995939,138.25 L 180.0,122.7754833995939 L 195.4745166004061,138.25 L 185.2245166004061,148.5 L 174.7754833995939,148.5 L 164.5254833995939,138.25 Z" /><path d="M 740.0,33.724516600406105 L 734.2754833995939,28.0 L 745.7245166004061,28.0 L 740.0,33.724516600406105 Z" /><path d="M 180.0,33.724516600406105 L 174.2754833995939,28.0 L 185.7245166004061,28.0 L 180.0,33.724516600406105 Z" /><path d="M 1036.25,66.52548339959398 L 1036.25,89.97451660040602 L 1024.525483399594,78.25 L 1036.25,66.52548339959398 Z" /><path d="M 260.0,33.724516600406105 L 254.2754833995939,28.0 L 265.7245166004061,28.0 L 260.0,33.724516600406105 Z" /><path d="M 540.0,33.724516600406105 L 534.2754833995939,28.0 L 545.7245166004061,28.0 L 540.0,33.724516600406105 Z" /><path d="M 300.0,33.724516600406105 L 294.2754833995939,28.0 L 305.7245166004061,28.0 L 300.0,33.724516600406105 Z" /><path d="M 314.2754833995939,148.5 L 320.0,142.7754833995939 L 325.7245166004061,148.5 L 314.2754833995939,148.5 Z" /><path d="M 1036.25,106.52548339959398 L 1036.25,129.97451660040602 L 1024.525483399594,118.25 L 1036.25,106.52548339959398 Z" /><path d="M 394.2754833995939,148.5 L 400.0,142.7754833995939 L 405.7245166004061,148.5 L 394.2754833995939,148.5 Z" /><path d="M 1020.0,33.724516600406105 L 1014.2754833995939,28.0 L 1025.724516600406,28.0 L 1020.0,33.724516600406105 Z" /><path d="M 914.7754833995939,28.0 L 925.2245166004061,28.0 L 935.4745166004061,38.25 L 920.0,53.724516600406105 L 904.5254833995939,38.25 L 914.7754833995939,28.0 Z" /><path d="M 460.0,33.724516600406105 L 454.2754833995939,28.0 L 465.7245166004061,28.0 L 460.0,33.724516600406105 Z" /><path d="M 194.7754833995939,28.0 L 205.2245166004061,28.0 L 215.4745166004061,38.25 L 200.0,53.724516600406105 L 184.5254833995939,38.25 L 194.7754833995939,28.0 Z" /><path d="M 964.5254833995939,138.25 L 980.0,122.7754833995939 L 995.4745166004061,138.25 L 985.2245166004061,148.5 L 974.7754833995939,148.5 L 964.5254833995939,138.25 Z" /><path d="M 994.7754833995939,28.0 L 1005.2245166004061,28.0 L 1015.4745166004061,38.25 L 1000.0,53.724516600406105 L 984.5254833995939,38.25 L 994.7754833995939,28.0 Z" /><path d="M 874.2754833995939,148.5 L 880.0,142.7754833995939 L 885.7245166004061,148.5 L 874.2754833995939,148.5 Z" /><path d="M 604.5254833995939,138.25 L 620.0,122.7754833995939 L 635.4745166004061,138.25 L 625.2245166004061,148.5 L 614.7754833995939,148.5 L 604.5254833995939,138.25 Z" /><path d="M 484.5254833995939,138.25 L 500.0,122.7754833995939 L 515.4745166004061,138.25 L 505.2245166004061,148.5 L 494.7754833995939,148.5 L 484.5254833995939,138.25 Z" /><path d="M 924.5254833995939,138.25 L 940.0,122.7754833995939 L 955.4745166004061,138.25 L 945.2245166004061,148.5 L 934.7754833995939,148.5 L 924.5254833995939,138.25 Z" /><path d="M 794.7754833995939,28.0 L 805.2245166004061,28.0 L 815.4745166004061,38.25 L 800.0,53.724516600406105 L 784.5254833995939,38.25 L 794.7754833995939,28.0 Z" /><path d="M 404.5254833995939,138.25 L 420.0,122.7754833995939 L 435.4745166004061,138.25 L 425.2245166004061,148.5 L 414.7754833995939,148.5 L 404.5254833995939,138.25 Z" /><path d="M 660.0,33.724516600406105 L 654.2754833995939,28.0 L 665.7245166004061,28.0 L 660.0,33.724516600406105 Z" /><path d="M 954.7754833995939,28.0 L 965.2245166004061,28.0 L 975.4745166004061,38.25 L 960.0,53.724516600406105 L 944.5254833995939,38.25 L 954.7754833995939,28.0 Z" /><path d="M 564.5254833995939,138.25 L 580.0,122.7754833995939 L 595.4745166004061,138.25 L 585.2245166004061,148.5 L 574.7754833995939,148.5 L 564.5254833995939,138.25 Z" /><path d="M 514.2754833995939,148.5 L 520.0,142.7754833995939 L 525.7245166004061,148.5 L 514.2754833995939,148.5 Z" /><path d="M 874.7754833995939,28.0 L 885.2245166004061,28.0 L 895.4745166004061,38.25 L 880.0,53.724516600406105 L 864.5254833995939,38.25 L 874.7754833995939,28.0 Z" /><path d="M 204.5254833995939,138.25 L 220.0,122.7754833995939 L 235.4745166004061,138.25 L 225.2245166004061,148.5 L 214.7754833995939,148.5 L 204.5254833995939,138.25 Z" /><path d="M 644.5254833995939,138.25 L 660.0,122.7754833995939 L 675.4745166004061,138.25 L 665.2245166004061,148.5 L 654.7754833995939,148.5 L 644.5254833995939,138.25 Z" /><path d="M 684.5254833995939,138.25 L 700.0,122.7754833995939 L 715.4745166004061,138.25 L 705.2245166004061,148.5 L 694.7754833995939,148.5 L 684.5254833995939,138.25 Z" /><path d="M 284.5254833995939,138.25 L 300.0,122.7754833995939 L 315.4745166004061,138.25 L 305.2245166004061,148.5 L 294.7754833995939,148.5 L 284.5254833995939,138.25 Z" /><path d="M 580.0,33.724516600406105 L 574.2754833995939,28.0 L 585.7245166004061,28.0 L 580.0,33.724516600406105 Z" /><path d="M 554.7754833995939,28.0 L 565.2245166004061,28.0 L 575.4745166004061,38.25 L 560.0,53.724516600406105 L 544.5254833995939,38.25 L 554.7754833995939,28.0 Z" /><path d="M 634.2754833995939,148.5 L 640.0,142.7754833995939 L 645.7245166004061,148.5 L 634.2754833995939,148.5 Z" /><path d="M 1004.5254833995939,138.25 L 1020.0,122.77548339959391 L 1035.474516600406,138.25 L 1025.224516600406,148.5 L 1014.7754833995939,148.5 L 1004.5254833995939,138.25 Z" /><path d="M 244.5254833995939,138.25 L 260.0,122.7754833995939 L 275.4745166004061,138.25 L 265.2245166004061,148.5 L 254.7754833995939,148.5 L 244.5254833995939,138.25 Z" /><path d="M 500.0,33.724516600406105 L 494.2754833995939,28.0 L 505.7245166004061,28.0 L 500.0,33.724516600406105 Z" /><path d="M 754.7754833995939,28.0 L 765.2245166004061,28.0 L 775.4745166004061,38.25 L 760.0,53.724516600406105 L 744.5254833995939,38.25 L 754.7754833995939,28.0 Z" /><path d="M 594.2754833995939,148.5 L 600.0,142.7754833995939 L 605.7245166004061,148.5 L 594.2754833995939,148.5 Z" /><path d="M 154.2754833995939,148.5 L 160.0,142.7754833995939 L 165.7245166004061,148.5 L 154.2754833995939,148.5 Z" /><path d="M 220.0,33.724516600406105 L 214.2754833995939,28.0 L 225.7245166004061,28.0 L 220.0,33.724516600406105 Z" /><path d="M 524.5254833995939,138.25 L 540.0,122.7754833995939 L 555.4745166004061,138.25 L 545.2245166004061,148.5 L 534.7754833995939,148.5 L 524.5254833995939,138.25 Z" /><path d="M 780.0,33.724516600406105 L 774.2754833995939,28.0 L 785.7245166004061,28.0 L 780.0,33.724516600406105 Z" /><path d="M 700.0,33.724516600406105 L 694.2754833995939,28.0 L 705.7245166004061,28.0 L 700.0,33.724516600406105 Z" /><path d="M 364.5254833995939,138.25 L 380.0,122.7754833995939 L 395.4745166004061,138.25 L 385.2245166004061,148.5 L 374.7754833995939,148.5 L 364.5254833995939,138.25 Z" /><path d="M 434.2754833995939,148.5 L 440.0,142.7754833995939 L 445.7245166004061,148.5 L 434.2754833995939,148.5 Z" /><path d="M 620.0,33.724516600406105 L 614.2754833995939,28.0 L 625.7245166004061,28.0 L 620.0,33.724516600406105 Z" /><path d="M 674.7754833995939,28.0 L 685.2245166004061,28.0 L 695.4745166004061,38.25 L 680.0,53.724516600406105 L 664.5254833995939,38.25 L 674.7754833995939,28.0 Z" /><path d="M 594.7754833995939,28.0 L 605.2245166004061,28.0 L 615.4745166004061,38.25 L 600.0,53.724516600406105 L 584.5254833995939,38.25 L 594.7754833995939,28.0 Z" /><path d="M 314.7754833995939,28.0 L 325.2245166004061,28.0 L 335.4745166004061,38.25 L 320.0,53.724516600406105 L 304.5254833995939,38.25 L 314.7754833995939,28.0 Z" /><path d="M 324.5254833995939,138.25 L 340.0,122.7754833995939 L 355.4745166004061,138.25 L 345.2245166004061,148.5 L 334.7754833995939,148.5 L 324.5254833995939,138.25 Z" /><path d="M 794.2754833995939,148.5 L 800.0,142.7754833995939 L 805.7245166004061,148.5 L 794.2754833995939,148.5 Z" /><path d="M 234.2754833995939,148.5 L 240.0,142.7754833995939 L 245.7245166004061,148.5 L 234.2754833995939,148.5 Z" /><path d="M 137.75,176.5 L 1042.25,176.5 L 1042.25,0.0 L 137.75,0.0 L 137.75,176.5 Z" /></g></svg>