999
"DXF R12 Output" (www.mydxf.blogspot.com)
 0 
SECTION
 2 
HEADER
 9 
$ACADVER
 1 
AC1009
 9 
$EXTMIN
 10 
 0 
 20 
 0 
 9 
$EXTMAX
 10 
 8.5 
 20 
 11 
 0 
ENDSEC
 0 
SECTION
 2 
ENTITIES
0
POLYLINE
8
Layer 1
62
7
70
1
10
0.000000
20
0.000000
66
1
0
VERTEX
8
Layer 1
10
175.333095
20
114.000000
70
0
0
VERTEX
8
Layer 1
10
162.500000
20
101.166905
70
0
0
VERTEX
8
Layer 1
10
162.500000
20
126.833095
70
0
0
VERTEX
8
Layer 1
10
175.333095
20
114.000000
70
0
0
VERTEX
8
Layer 1
10
175.333095
20
114.000000
70
0
0
SEQEND
8
Layer 1
0
POLYLINE
8
Layer 1
62
7
70
1
10
0.000000
20
0.000000
66
1
0
VERTEX
8
Layer 1
10
175.333095
20
162.000000
70
0
0
VERTEX
8
Layer 1
10
162.500000
20
149.166905
70
0
0
VERTEX
8
Layer 1
10
162.500000
20
174.833095
70
0
0
VERTEX
8
Layer 1
10
175.333095
20
162.000000
70
0
0
VERTEX
8
Layer 1
10
175.333095
20
162.000000
70
0
0
SEQEND
8
Layer 1
0
POLYLINE
8
Layer 1
62
7
70
1
10
0.000000
20
0.000000
66
1
0
VERTEX
8
Layer 1
10
175.333095
20
210.000000
70
0
0
VERTEX
8
Layer 1
10
162.500000
20
197.166905
70
0
0
VERTEX
8
Layer 1
10
162.500000
20
211.000000
70
0
0
VERTEX
8
Layer 1
10
174.333095
20
211.000000
70
0
0
VERTEX
8
Layer 1
10
175.333095
20
210.000000
70
0
0
VERTEX
8
Layer 1
10
175.333095
20
210.000000
70
0
0
SEQEND
8
Layer 1
0
POLYLINE
8
Layer 1
62
7
70
1
10
0.000000
20
0.000000
66
1
0
VERTEX
8
Layer 1
10
198.333095
20
91.000000
70
0
0
VERTEX
8
Layer 1
10
162.500000
20
91.000000
70
0
0
VERTEX
8
Layer 1
10
162.500000
20
91.833095
70
0
0
VERTEX
8
Layer 1
10
180.000000
20
109.333095
70
0
0
VERTEX
8
Layer 1
10
198.333095
20
91.000000
70
0
0
VERTEX
8
Layer 1
10
198.333095
20
91.000000
70
0
0
SEQEND
8
Layer 1
0
POLYLINE
8
Layer 1
62
7
70
1
10
0.000000
20
0.000000
66
1
0
VERTEX
8
Layer 1
10
199.333095
20
138.000000
70
0
0
VERTEX
8
Layer 1
10
180.000000
20
118.666905
70
0
0
VERTEX
8
Layer 1
10
162.500000
20
136.166905
70
0
0
VERTEX
8
Layer 1
10
162.500000
20
139.833095
70
0
0
VERTEX
8
Layer 1
10
180.000000
20
157.333095
70
0
0
VERTEX
8
Layer 1
10
199.333095
20
138.000000
70
0
0
VERTEX
8
Layer 1
10
199.333095
20
138.000000
70
0
0
SEQEND
8
Layer 1
0
POLYLINE
8
Layer 1
62
7
70
1
10
0.000000
20
0.000000
66
1
0
VERTEX
8
Layer 1
10
199.333095
20
186.000000
70
0
0
VERTEX
8
Layer 1
10
180.000000
20
166.666905
70
0
0
VERTEX
8
Layer 1
10
162.500000
20
184.166905
70
0
0
VERTEX
8
Layer 1
10
162.500000
20
187.833095
70
0
0
VERTEX
8
Layer 1
10
180.000000
20
205.333095
70
0
0
VERTEX
8
Layer 1
10
199.333095
20
186.000000
70
0
0
VERTEX
8
Layer 1
10
199.333095
20
186.000000
70
0
0
SEQEND
8
Layer 1
0
POLYLINE
8
Layer 1
62
7
70
1
10
0.000000
20
0.000000
66
1
0
VERTEX
8
Layer 1
10
204.000000
20
133.333095
70
0
0
VERTEX
8
Layer 1
10
223.333095
20
114.000000
70
0
0
VERTEX
8
Layer 1
10
204.000000
20
94.666905
70
0
0
VERTEX
8
Layer 1
10
184.666905
20
114.000000
70
0
0
VERTEX
8
Layer 1
10
204.000000
20
133.333095
70
0
0
VERTEX
8
Layer 1
10
204.000000
20
133.333095
70
0
0
SEQEND
8
Layer 1
0
POLYLINE
8
Layer 1
62
7
70
1
10
0.000000
20
0.000000
66
1
0
VERTEX
8
Layer 1
10
204.000000
20
181.333095
70
0
0
VERTEX
8
Layer 1
10
223.333095
20
162.000000
70
0
0
VERTEX
8
Layer 1
10
204.000000
20
142.666905
70
0
0
VERTEX
8
Layer 1
10
184.666905
20
162.000000
70
0
0
VERTEX
8
Layer 1
10
204.000000
20
181.333095
70
0
0
VERTEX
8
Layer 1
10
204.000000
20
181.333095
70
0
0
SEQEND
8
Layer 1
0
POLYLINE
8
Layer 1
62
7
70
1
10
0.000000
20
0.000000
66
1
0
VERTEX
8
Layer 1
10
223.333095
20
210.000000
70
0
0
VERTEX
8
Layer 1
10
204.000000
20
190.666905
70
0
0
VERTEX
8
Layer 1
10
184.666905
20
210.000000
70
0
0
VERTEX
8
Layer 1
10
185.666905
20
211.000000
70
0
0
VERTEX
8
Layer 1
10
222.333095
20
211.000000
70
0
0
VERTEX
8
Layer 1
10
223.333095
20
210.000000
70
0
0
VERTEX
8
Layer 1
10
223.333095
20
210.000000
70
0
0
SEQEND
8
Layer 1
0
POLYLINE
8
Layer 1
62
7
70
1
10
0.000000
20
0.000000
66
1
0
VERTEX
8
Layer 1
10
246.333095
20
91.000000
70
0
0
VERTEX
8
Layer 1
10
209.666905
20
91.000000
70
0
0
VERTEX
8
Layer 1
10
228.000000
20
109.333095
70
0
0
VERTEX
8
Layer 1
10
246.333095
20
91.000000
70
0
0
VERTEX
8
Layer 1
10
246.333095
20
91.000000
70
0
0
SEQEND
8
Layer 1
0
POLYLINE
8
Layer 1
62
7
70
1
10
0.000000
20
0.000000
66
1
0
VERTEX
8
Layer 1
10
228.000000
20
157.333095
70
0
0
VERTEX
8
Layer 1
10
247.333095
20
138.000000
70
0
0
VERTEX
8
Layer 1
10
228.000000
20
118.666905
70
0
0
VERTEX
8
Layer 1
10
208.666905
20
138.000000
70
0
0
VERTEX
8
Layer 1
10
228.000000
20
157.333095
70
0
0
VERTEX
8
Layer 1
10
228.000000
20
157.333095
70
0
0
SEQEND
8
Layer 1
0
POLYLINE
8
Layer 1
62
7
70
1
10
0.000000
20
0.000000
66
1
0
VERTEX
8
Layer 1
10
228.000000
20
205.333095
70
0
0
VERTEX
8
Layer 1
10
247.333095
20
186.000000
70
0
0
VERTEX
8
Layer 1
10
228.000000
20
166.666905
70
0
0
VERTEX
8
Layer 1
10
208.666905
20
186.000000
70
0
0
VERTEX
8
Layer 1
10
228.000000
20
205.333095
70
0
0
VERTEX
8
Layer 1
10
228.000000
20
205.333095
70
0
0
SEQEND
8
Layer 1
0
POLYLINE
8
Layer 1
62
7
70
1
10
0.000000
20
0.000000
66
1
0
VERTEX
8
Layer 1
10
252.000000
20
133.333095
70
0
0
VERTEX
8
Layer 1
10
271.333095
20
114.000000
70
0
0
VERTEX
8
Layer 1
10
252.000000
20
94.666905
70
0
0
VERTEX
8
Layer 1
10
232.666905
20
114.000000
70
0
0
VERTEX
8
Layer 1
10
252.000000
20
133.333095
70
0
0
VERTEX
8
Layer 1
10
252.000000
20
133.333095
70
0
0
SEQEND
8
Layer 1
0
POLYLINE
8
Layer 1
62
7
70
1
10
0.000000
20
0.000000
66
1
0
VERTEX
8
Layer 1
10
252.000000
20
181.333095
70
0
0
VERTEX
8
Layer 1
10
271.333095
20
162.000000
70
0
0
VERTEX
8
Layer 1
10
252.000000
20
142.666905
70
0
0
VERTEX
8
Layer 1
10
232.666905
20
162.000000
70
0
0
VERTEX
8
Layer 1
10
252.000000
20
181.333095
70
0
0
VERTEX
8
Layer 1
10
252.000000
20
181.333095
70
0
0
SEQEND
8
Layer 1
0
POLYLINE
8
Layer 1
62
7
70
1
10
0.000000
20
0.000000
66
1
0
VERTEX
8
Layer 1
10
271.333095
20
210.000000
70
0
0
VERTEX
8
Layer 1
10
252.000000
20
190.666905
70
0
0
VERTEX
8
Layer 1
10
232.666905
20
210.000000
70
0
0
VERTEX
8
Layer 1
10
233.666905
20
211.000000
70
0
0
VERTEX
8
Layer 1
10
270.333095
20
211.000000
70
0
0
VERTEX
8
Layer 1
10
271.333095
20
210.000000
70
0
0
VERTEX
8
Layer 1
10
271.333095
20
210.000000
70
0
0
SEQEND
8
Layer 1
0
POLYLINE
8
Layer 1
62
7
70
1
10
0.000000
20
0.000000
66
1
0
VERTEX
8
Layer 1
10
294.333095
20
91.000000
70
0
0
VERTEX
8
Layer 1
10
257.666905
20
91.000000
70
0
0
VERTEX
8
Layer 1
10
276.000000
20
109.333095
70
0
0
VERTEX
8
Layer 1
10
294.333095
20
91.000000
70
0
0
VERTEX
8
Layer 1
10
294.333095
20
91.000000
70
0
0
SEQEND
8
Layer 1
0
POLYLINE
8
Layer 1
62
7
70
1
10
0.000000
20
0.000000
66
1
0
VERTEX
8
Layer 1
10
276.000000
20
157.333095
70
0
0
VERTEX
8
Layer 1
10
295.333095
20
138.000000
70
0
0
VERTEX
8
Layer 1
10
276.000000
20
118.666905
70
0
0
VERTEX
8
Layer 1
10
256.666905
20
138.000000
70
0
0
VERTEX
8
Layer 1
10
276.000000
20
157.333095
70
0
0
VERTEX
8
Layer 1
10
276.000000
20
157.333095
70
0
0
SEQEND
8
Layer 1
0
POLYLINE
8
Layer 1
62
7
70
1
10
0.000000
20
0.000000
66
1
0
VERTEX
8
Layer 1
10
276.000000
20
205.333095
70
0
0
VERTEX
8
Layer 1
10
295.333095
20
186.000000
70
0
0
VERTEX
8
Layer 1
10
276.000000
20
166.666905
70
0
0
VERTEX
8
Layer 1
10
256.666905
20
186.000000
70
0
0
VERTEX
8
Layer 1
10
276.000000
20
205.333095
70
0
0
VERTEX
8
Layer 1
10
276.000000
20
205.333095
70
0
0
SEQEND
8
Layer 1
0
POLYLINE
8
Layer 1
62
7
70
1
10
0.000000
20
0.000000
66
1
0
VERTEX
8
Layer 1
10
300.000000
20
133.333095
70
0
0
VERTEX
8
Layer 1
10
319.333095
20
114.000000
70
0
0
VERTEX
8
Layer 1
10
300.000000
20
94.666905
70
0
0
VERTEX
8
Layer 1
10
280.666905
20
114.000000
70
0
0
VERTEX
8
Layer 1
10
300.000000
20
133.333095
70
0
0
VERTEX
8
Layer 1
10
300.000000
20
133.333095
70
0
0
SEQEND
8
Layer 1
0
POLYLINE
8
Layer 1
62
7
70
1
10
0.000000
20
0.000000
66
1
0
VERTEX
8
Layer 1
10
300.000000
20
181.333095
70
0
0
VERTEX
8
Layer 1
10
319.333095
20
162.000000
70
0
0
VERTEX
8
Layer 1
10
300.000000
20
142.666905
70
0
0
VERTEX
8
Layer 1
10
280.666905
20
162.000000
70
0
0
VERTEX
8
Layer 1
10
300.000000
20
181.333095
70
0
0
VERTEX
8
Layer 1
10
300.000000
20
181.333095
70
0
0
SEQEND
8
Layer 1
0
POLYLINE
8
Layer 1
62
7
70
1
10
0.000000
20
0.000000
66
1
0
VERTEX
8
Layer 1
10
319.333095
20
210.000000
70
0
0
VERTEX
8
Layer 1
10
300.000000
20
190.666905
70
0
0
VERTEX
8
Layer 1
10
280.666905
20
210.000000
70
0
0
VERTEX
8
Layer 1
10
281.666905
20
211.000000
70
0
0
VERTEX
8
Layer 1
10
318.333095
20
211.000000
70
0
0
VERTEX
8
Layer 1
10
319.333095
20
210.000000
70
0
0
VERTEX
8
Layer 1
10
319.333095
20
210.000000
70
0
0
SEQEND
8
Layer 1
0
POLYLINE
8
Layer 1
62
7
70
1
10
0.000000
20
0.000000
66
1
0
VERTEX
8
Layer 1
10
342.333095
20
91.000000
70
0
0
VERTEX
8
Layer 1
10
305.666905
20
91.000000
70
0
0
VERTEX
8
Layer 1
10
324.000000
20
109.333095
70
0
0
VERTEX
8
Layer 1
10
342.333095
20
91.000000
70
0
0
VERTEX
8
Layer 1
10
342.333095
20
91.000000
70
0
0
SEQEND
8
Layer 1
0
POLYLINE
8
Layer 1
62
7
70
1
10
0.000000
20
0.000000
66
1
0
VERTEX
8
Layer 1
10
324.000000
20
157.333095
70
0
0
VERTEX
8
Layer 1
10
343.333095
20
138.000000
70
0
0
VERTEX
8
Layer 1
10
324.000000
20
118.666905
70
0
0
VERTEX
8
Layer 1
10
304.666905
20
138.000000
70
0
0
VERTEX
8
Layer 1
10
324.000000
20
157.333095
70
0
0
VERTEX
8
Layer 1
10
324.000000
20
157.333095
70
0
0
SEQEND
8
Layer 1
0
POLYLINE
8
Layer 1
62
7
70
1
10
0.000000
20
0.000000
66
1
0
VERTEX
8
Layer 1
10
324.000000
20
205.333095
70
0
0
VERTEX
8
Layer 1
10
343.333095
20
186.000000
70
0
0
VERTEX
8
Layer 1
10
324.000000
20
166.666905
70
0
0
VERTEX
8
Layer 1
10
304.666905
20
186.000000
70
0
0
VERTEX
8
Layer 1
10
324.000000
20
205.333095
70
0
0
VERTEX
8
Layer 1
10
324.000000
20
205.333095
70
0
0
SEQEND
8
Layer 1
0
POLYLINE
8
Layer 1
62
7
70
1
10
0.000000
20
0.000000
66
1
0
VERTEX
8
Layer 1
10
348.000000
20
133.333095
70
0
0
VERTEX
8
Layer 1
10
367.333095
20
114.000000
70
0
0
VERTEX
8
Layer 1
10
348.000000
20
94.666905
70
0
0
VERTEX
8
Layer 1
10
328.666905
20
114.000000
70
0
0
VERTEX
8
Layer 1
10
348.000000
20
133.333095
70
0
0
VERTEX
8
Layer 1
10
348.000000
20
133.333095
70
0
0
SEQEND
8
Layer 1
0
POLYLINE
8
Layer 1
62
7
70
1
10
0.000000
20
0.000000
66
1
0
VERTEX
8
Layer 1
10
348.000000
20
181.333095
70
0
0
VERTEX
8
Layer 1
10
367.333095
20
162.000000
70
0
0
VERTEX
8
Layer 1
10
348.000000
20
142.666905
70
0
0
VERTEX
8
Layer 1
10
328.666905
20
162.000000
70
0
0
VERTEX
8
Layer 1
10
348.000000
20
181.333095
70
0
0
VERTEX
8
Layer 1
10
348.000000
20
181.333095
70
0
0
SEQEND
8
Layer 1
0
POLYLINE
8
Layer 1
62
7
70
1
10
0.000000
20
0.000000
66
1
0
VERTEX
8
Layer 1
10
367.333095
20
210.000000
70
0
0
VERTEX
8
Layer 1
10
348.000000
20
190.666905
70
0
0
VERTEX
8
Layer 1
10
328.666905
20
210.000000
70
0
0
VERTEX
8
Layer 1
10
329.666905
20
211.000000
70
0
0
VERTEX
8
Layer 1
10
366.333095
20
211.000000
70
0
0
VERTEX
8
Layer 1
10
367.333095
20
210.000000
70
0
0
VERTEX
8
Layer 1
10
367.333095
20
210.000000
70
0
0
SEQEND
8
Layer 1
0
POLYLINE
8
Layer 1
62
7
70
1
10
0.000000
20
0.000000
66
1
0
VERTEX
8
Layer 1
10
390.333095
20
91.000000
70
0
0
VERTEX
8
Layer 1
10
353.666905
20
91.000000
70
0
0
VERTEX
8
Layer 1
10
372.000000
20
109.333095
70
0
0
VERTEX
8
Layer 1
10
390.333095
20
91.000000
70
0
0
VERTEX
8
Layer 1
10
390.333095
20
91.000000
70
0
0
SEQEND
8
Layer 1
0
POLYLINE
8
Layer 1
62
7
70
1
10
0.000000
20
0.000000
66
1
0
VERTEX
8
Layer 1
10
372.000000
20
157.333095
70
0
0
VERTEX
8
Layer 1
10
391.333095
20
138.000000
70
0
0
VERTEX
8
Layer 1
10
372.000000
20
118.666905
70
0
0
VERTEX
8
Layer 1
10
352.666905
20
138.000000
70
0
0
VERTEX
8
Layer 1
10
372.000000
20
157.333095
70
0
0
VERTEX
8
Layer 1
10
372.000000
20
157.333095
70
0
0
SEQEND
8
Layer 1
0
POLYLINE
8
Layer 1
62
7
70
1
10
0.000000
20
0.000000
66
1
0
VERTEX
8
Layer 1
10
372.000000
20
205.333095
70
0
0
VERTEX
8
Layer 1
10
391.333095
20
186.000000
70
0
0
VERTEX
8
Layer 1
10
372.000000
20
166.666905
70
0
0
VERTEX
8
Layer 1
10
352.666905
20
186.000000
70
0
0
VERTEX
8
Layer 1
10
372.000000
20
205.333095
70
0
0
VERTEX
8
Layer 1
10
372.000000
20
205.333095
70
0
0
SEQEND
8
Layer 1
0
POLYLINE
8
Layer 1
62
7
70
1
10
0.000000
20
0.000000
66
1
0
VERTEX
8
Layer 1
10
396.000000
20
133.333095
70
0
0
VERTEX
8
Layer 1
10
415.333095
20
114.000000
70
0
0
VERTEX
8
Layer 1
10
396.000000
20
94.666905
70
0
0
VERTEX
8
Layer 1
10
376.666905
20
114.000000
70
0
0
VERTEX
8
Layer 1
10
396.000000
20
133.333095
70
0
0
VERTEX
8
Layer 1
10
396.000000
20
133.333095
70
0
0
SEQEND
8
Layer 1
0
POLYLINE
8
Layer 1
62
7
70
1
10
0.000000
20
0.000000
66
1
0
VERTEX
8
Layer 1
10
396.000000
20
181.333095
70
0
0
VERTEX
8
Layer 1
10
415.333095
20
162.000000
70
0
0
VERTEX
8
Layer 1
10
396.000000
20
142.666905
70
0
0
VERTEX
8
Layer 1
10
376.666905
20
162.000000
70
0
0
VERTEX
8
Layer 1
10
396.000000
20
181.333095
70
0
0
VERTEX
8
Layer 1
10
396.000000
20
181.333095
70
0
0
SEQEND
8
Layer 1
0
POLYLINE
8
Layer 1
62
7
70
1
10
0.000000
20
0.000000
66
1
0
VERTEX
8
Layer 1
10
415.333095
20
210.000000
70
0
0
VERTEX
8
Layer 1
10
396.000000
20
190.666905
70
0
0
VERTEX
8
Layer 1
10
376.666905
20
210.000000
70
0
0
VERTEX
8
Layer 1
10
377.666905
20
211.000000
70
0
0
VERTEX
8
Layer 1
10
414.333095
20
211.000000
70
0
0
VERTEX
8
Layer 1
10
415.333095
20
210.000000
70
0
0
VERTEX
8
Layer 1
10
415.333095
20
210.000000
70
0
0
SEQEND
8
Layer 1
0
POLYLINE
8
Layer 1
62
7
70
1
10
0.000000
20
0.000000
66
1
0
VERTEX
8
Layer 1
10
438.333095
20
91.000000
70
0
0
VERTEX
8
Layer 1
10
401.666905
20
91.000000
70
0
0
VERTEX
8
Layer 1
10
420.000000
20
109.333095
70
0
0
VERTEX
8
Layer 1
10
438.333095
20
91.000000
70
0
0
VERTEX
8
Layer 1
10
438.333095
20
91.000000
70
0
0
SEQEND
8
Layer 1
0
POLYLINE
8
Layer 1
62
7
70
1
10
0.000000
20
0.000000
66
1
0
VERTEX
8
Layer 1
10
420.000000
20
157.333095
70
0
0
VERTEX
8
Layer 1
10
439.333095
20
138.000000
70
0
0
VERTEX
8
Layer 1
10
420.000000
20
118.666905
70
0
0
VERTEX
8
Layer 1
10
400.666905
20
138.000000
70
0
0
VERTEX
8
Layer 1
10
420.000000
20
157.333095
70
0
0
VERTEX
8
Layer 1
10
420.000000
20
157.333095
70
0
0
SEQEND
8
Layer 1
0
POLYLINE
8
Layer 1
62
7
70
1
10
0.000000
20
0.000000
66
1
0
VERTEX
8
Layer 1
10
420.000000
20
205.333095
70
0
0
VERTEX
8
Layer 1
10
439.333095
20
186.000000
70
0
0
VERTEX
8
Layer 1
10
420.000000
20
166.666905
70
0
0
VERTEX
8
Layer 1
10
400.666905
20
186.000000
70
0
0
VERTEX
8
Layer 1
10
420.000000
20
205.333095
70
0
0
VERTEX
8
Layer 1
10
420.000000
20
205.333095
70
0
0
SEQEND
8
Layer 1
0
POLYLINE
8
Layer 1
62
7
70
1
10
0.000000
20
0.000000
66
1
0
VERTEX
8
Layer 1
10
444.000000
20
133.333095
70
0
0
VERTEX
8
Layer 1
10
463.333095
20
114.000000
70
0
0
VERTEX
8
Layer 1
10
444.000000
20
94.666905
70
0
0
VERTEX
8
Layer 1
10
424.666905
20
114.000000
70
0
0
VERTEX
8
Layer 1
10
444.000000
20
133.333095
70
0
0
VERTEX
8
Layer 1
10
444.000000
20
133.333095
70
0
0
SEQEND
8
Layer 1
0
POLYLINE
8
Layer 1
62
7
70
1
10
0.000000
20
0.000000
66
1
0
VERTEX
8
Layer 1
10
444.000000
20
181.333095
70
0
0
VERTEX
8
Layer 1
10
463.333095
20
162.000000
70
0
0
VERTEX
8
Layer 1
10
444.000000
20
142.666905
70
0
0
VERTEX
8
Layer 1
10
424.666905
20
162.000000
70
0
0
VERTEX
8
Layer 1
10
444.000000
20
181.333095
70
0
0
VERTEX
8
Layer 1
10
444.000000
20
181.333095
70
0
0
SEQEND
8
Layer 1
0
POLYLINE
8
Layer 1
62
7
70
1
10
0.000000
20
0.000000
66
1
0
VERTEX
8
Layer 1
10
463.333095
20
210.000000
70
0
0
VERTEX
8
Layer 1
10
444.000000
20
190.666905
70
0
0
VERTEX
8
Layer 1
10
424.666905
20
210.000000
70
0
0
VERTEX
8
Layer 1
10
425.666905
20
211.000000
70
0
0
VERTEX
8
Layer 1
10
462.333095
20
211.000000
70
0
0
VERTEX
8
Layer 1
10
463.333095
20
210.000000
70
0
0
VERTEX
8
Layer 1
10
463.333095
20
210.000000
70
0
0
SEQEND
8
Layer 1
0
POLYLINE
8
Layer 1
62
7
70
1
10
0.000000
20
0.000000
66
1
0
VERTEX
8
Layer 1
10
486.333095
20
91.000000
70
0
0
VERTEX
8
Layer 1
10
449.666905
20
91.000000
70
0
0
VERTEX
8
Layer 1
10
468.000000
20
109.333095
70
0
0
VERTEX
8
Layer 1
10
486.333095
20
91.000000
70
0
0
VERTEX
8
Layer 1
10
486.333095
20
91.000000
70
0
0
SEQEND
8
Layer 1
0
POLYLINE
8
Layer 1
62
7
70
1
10
0.000000
20
0.000000
66
1
0
VERTEX
8
Layer 1
10
468.000000
20
157.333095
70
0
0
VERTEX
8
Layer 1
10
487.333095
20
138.000000
70
0
0
VERTEX
8
Layer 1
10
468.000000
20
118.666905
70
0
0
VERTEX
8
Layer 1
10
448.666905
20
138.000000
70
0
0
VERTEX
8
Layer 1
10
468.000000
20
157.333095
70
0
0
VERTEX
8
Layer 1
10
468.000000
20
157.333095
70
0
0
SEQEND
8
Layer 1
0
POLYLINE
8
Layer 1
62
7
70
1
10
0.000000
20
0.000000
66
1
0
VERTEX
8
Layer 1
10
468.000000
20
205.333095
70
0
0
VERTEX
8
Layer 1
10
487.333095
20
186.000000
70
0
0
VERTEX
8
Layer 1
10
468.000000
20
166.666905
70
0
0
VERTEX
8
Layer 1
10
448.666905
20
186.000000
70
0
0
VERTEX
8
Layer 1
10
468.000000
20
205.333095
70
0
0
VERTEX
8
Layer 1
10
468.000000
20
205.333095
70
0
0
SEQEND
8
Layer 1
0
POLYLINE
8
Layer 1
62
7
70
1
10
0.000000
20
0.000000
66
1
0
VERTEX
8
Layer 1
10
492.000000
20
133.333095
70
0
0
VERTEX
8
Layer 1
10
511.333095
20
114.000000
70
0
0
VERTEX
8
Layer 1
10
492.000000
20
94.666905
70
0
0
VERTEX
8
Layer 1
10
472.666905
20
114.000000
70
0
0
VERTEX
8
Layer 1
10
492.000000
20
133.333095
70
0
0
VERTEX
8
Layer 1
10
492.000000
20
133.333095
70
0
0
SEQEND
8
Layer 1
0
POLYLINE
8
Layer 1
62
7
70
1
10
0.000000
20
0.000000
66
1
0
VERTEX
8
Layer 1
10
492.000000
20
181.333095
70
0
0
VERTEX
8
Layer 1
10
511.333095
20
162.000000
70
0
0
VERTEX
8
Layer 1
10
492.000000
20
142.666905
70
0
0
VERTEX
8
Layer 1
10
472.666905
20
162.000000
70
0
0
VERTEX
8
Layer 1
10
492.000000
20
181.333095
70
0
0
VERTEX
8
Layer 1
10
492.000000
20
181.333095
70
0
0
SEQEND
8
Layer 1
0
POLYLINE
8
Layer 1
62
7
70
1
10
0.000000
20
0.000000
66
1
0
VERTEX
8
Layer 1
10
511.333095
20
210.000000
70
0
0
VERTEX
8
Layer 1
10
492.000000
20
190.666905
70
0
0
VERTEX
8
Layer 1
10
472.666905
20
210.000000
70
0
0
VERTEX
8
Layer 1
10
473.666905
20
211.000000
70
0
0
VERTEX
8
Layer 1
10
510.333095
20
211.000000
70
0
0
VERTEX
8
Layer 1
10
511.333095
20
210.000000
70
0
0
VERTEX
8
Layer 1
10
511.333095
20
210.000000
70
0
0
SEQEND
8
Layer 1
0
POLYLINE
8
Layer 1
62
7
70
1
10
0.000000
20
0.000000
66
1
0
VERTEX
8
Layer 1
10
534.333095
20
91.000000
70
0
0
VERTEX
8
Layer 1
10
497.666905
20
91.000000
70
0
0
VERTEX
8
Layer 1
10
516.000000
20
109.333095
70
0
0
VERTEX
8
Layer 1
10
534.333095
20
91.000000
70
0
0
VERTEX
8
Layer 1
10
534.333095
20
91.000000
70
0
0
SEQEND
8
Layer 1
0
POLYLINE
8
Layer 1
62
7
70
1
10
0.000000
20
0.000000
66
1
0
VERTEX
8
Layer 1
10
516.000000
20
157.333095
70
0
0
VERTEX
8
Layer 1
10
535.333095
20
138.000000
70
0
0
VERTEX
8
Layer 1
10
516.000000
20
118.666905
70
0
0
VERTEX
8
Layer 1
10
496.666905
20
138.000000
70
0
0
VERTEX
8
Layer 1
10
516.000000
20
157.333095
70
0
0
VERTEX
8
Layer 1
10
516.000000
20
157.333095
70
0
0
SEQEND
8
Layer 1
0
POLYLINE
8
Layer 1
62
7
70
1
10
0.000000
20
0.000000
66
1
0
VERTEX
8
Layer 1
10
516.000000
20
205.333095
70
0
0
VERTEX
8
Layer 1
10
535.333095
20
186.000000
70
0
0
VERTEX
8
Layer 1
10
516.000000
20
166.666905
70
0
0
VERTEX
8
Layer 1
10
496.666905
20
186.000000
70
0
0
VERTEX
8
Layer 1
10
516.000000
20
205.333095
70
0
0
VERTEX
8
Layer 1
10
516.000000
20
205.333095
70
0
0
SEQEND
8
Layer 1
0
POLYLINE
8
Layer 1
62
7
70
1
10
0.000000
20
0.000000
66
1
0
VERTEX
8
Layer 1
10
540.000000
20
133.333095
70
0
0
VERTEX
8
Layer 1
10
559.333095
20
114.000000
70
0
0
VERTEX
8
Layer 1
10
540.000000
20
94.666905
70
0
0
VERTEX
8
Layer 1
10
520.666905
20
114.000000
70
0
0
VERTEX
8
Layer 1
10
540.000000
20
133.333095
70
0
0
VERTEX
8
Layer 1
10
540.000000
20
133.333095
70
0
0
SEQEND
8
Layer 1
0
POLYLINE
8
Layer 1
62
7
70
1
10
0.000000
20
0.000000
66
1
0
VERTEX
8
Layer 1
10
540.000000
20
181.333095
70
0
0
VERTEX
8
Layer 1
10
559.333095
20
162.000000
70
0
0
VERTEX
8
Layer 1
10
540.000000
20
142.666905
70
0
0
VERTEX
8
Layer 1
10
520.666905
20
162.000000
70
0
0
VERTEX
8
Layer 1
10
540.000000
20
181.333095
70
0
0
VERTEX
8
Layer 1
10
540.000000
20
181.333095
70
0
0
SEQEND
8
Layer 1
0
POLYLINE
8
Layer 1
62
7
70
1
10
0.000000
20
0.000000
66
1
0
VERTEX
8
Layer 1
10
559.333095
20
210.000000
70
0
0
VERTEX
8
Layer 1
10
540.000000
20
190.666905
70
0
0
VERTEX
8
Layer 1
10
520.666905
20
210.000000
70
0
0
VERTEX
8
Layer 1
10
521.666905
20
211.000000
70
0
0
VERTEX
8
Layer 1
10
558.333095
20
211.000000
70
0
0
VERTEX
8
Layer 1
10
559.333095
20
210.000000
70
0
0
VERTEX
8
Layer 1
10
559.333095
20
210.000000
70
0
0
SEQEND
8
Layer 1
0
POLYLINE
8
Layer 1
62
7
70
1
10
0.000000
20
0.000000
66
1
0
VERTEX
8
Layer 1
10
582.333095
20
91.000000
70
0
0
VERTEX
8
Layer 1
10
545.666905
20
91.000000
70
0
0
VERTEX
8
Layer 1
10
564.000000
20
109.333095
70
0
0
VERTEX
8
Layer 1
10
582.333095
20
91.000000
70
0
0
VERTEX
8
Layer 1
10
582.333095
20
91.000000
70
0
0
SEQEND
8
Layer 1
0
POLYLINE
8
Layer 1
62
7
70
1
10
0.000000
20
0.000000
66
1
0
VERTEX
8
Layer 1
10
564.000000
20
157.333095
70
0
0
VERTEX
8
Layer 1
10
583.333095
20
138.000000
70
0
0
VERTEX
8
Layer 1
10
564.000000
20
118.666905
70
0
0
VERTEX
8
Layer 1
10
544.666905
20
138.000000
70
0
0
VERTEX
8
Layer 1
10
564.000000
20
157.333095
70
0
0
VERTEX
8
Layer 1
10
564.000000
20
157.333095
70
0
0
SEQEND
8
Layer 1
0
POLYLINE
8
Layer 1
62
7
70
1
10
0.000000
20
0.000000
66
1
0
VERTEX
8
Layer 1
10
564.000000
20
205.333095
70
0
0
VERTEX
8
Layer 1
10
583.333095
20
186.000000
70
0
0
VERTEX
8
Layer 1
10
564.000000
20
166.666905
70
0
0
VERTEX
8
Layer 1
10
544.666905
20
186.000000
70
0
0
VERTEX
8
Layer 1
10
564.000000
20
205.333095
70
0
0
VERTEX
8
Layer 1
10
564.000000
20
205.333095
70
0
0
SEQEND
8
Layer 1
0
POLYLINE
8
Layer 1
62
7
70
1
10
0.000000
20
0.000000
66
1
0
VERTEX
8
Layer 1
10
588.000000
20
133.333095
70
0
0
VERTEX
8
Layer 1
10
607.333095
20
114.000000
70
0
0
VERTEX
8
Layer 1
10
588.000000
20
94.666905
70
0
0
VERTEX
8
Layer 1
10
568.666905
20
114.000000
70
0
0
VERTEX
8
Layer 1
10
588.000000
20
133.333095
70
0
0
VERTEX
8
Layer 1
10
588.000000
20
133.333095
70
0
0
SEQEND
8
Layer 1
0
POLYLINE
8
Layer 1
62
7
70
1
10
0.000000
20
0.000000
66
1
0
VERTEX
8
Layer 1
10
588.000000
20
181.333095
70
0
0
VERTEX
8
Layer 1
10
607.333095
20
162.000000
70
0
0
VERTEX
8
Layer 1
10
588.000000
20
142.666905
70
0
0
VERTEX
8
Layer 1
10
568.666905
20
162.000000
70
0
0
VERTEX
8
Layer 1
10
588.000000
20
181.333095
70
0
0
VERTEX
8
Layer 1
10
588.000000
20
181.333095
70
0
0
SEQEND
8
Layer 1
0
POLYLINE
8
Layer 1
62
7
70
1
10
0.000000
20
0.000000
66
1
0
VERTEX
8
Layer 1
10
607.333095
20
210.000000
70
0
0
VERTEX
8
Layer 1
10
588.000000
20
190.666905
70
0
0
VERTEX
8
Layer 1
10
568.666905
20
210.000000
70
0
0
VERTEX
8
Layer 1
10
569.666905
20
211.000000
70
0
0
VERTEX
8
Layer 1
10
606.333095
20
211.000000
70
0
0
VERTEX
8
Layer 1
10
607.333095
20
210.000000
70
0
0
VERTEX
8
Layer 1
10
607.333095
20
210.000000
70
0
0
SEQEND
8
Layer 1
0
POLYLINE
8
Layer 1
62
7
70
1
10
0.000000
20
0.000000
66
1
0
VERTEX
8
Layer 1
10
630.333095
20
91.000000
70
0
0
VERTEX
8
Layer 1
10
593.666905
20
91.000000
70
0
0
VERTEX
8
Layer 1
10
612.000000
20
109.333095
70
0
0
VERTEX
8
Layer 1
10
630.333095
20
91.000000
70
0
0
VERTEX
8
Layer 1
10
630.333095
20
91.000000
70
0
0
SEQEND
8
Layer 1
0
POLYLINE
8
Layer 1
62
7
70
1
10
0.000000
20
0.000000
66
1
0
VERTEX
8
Layer 1
10
612.000000
20
157.333095
70
0
0
VERTEX
8
Layer 1
10
631.333095
20
138.000000
70
0
0
VERTEX
8
Layer 1
10
612.000000
20
118.666905
70
0
0
VERTEX
8
Layer 1
10
592.666905
20
138.000000
70
0
0
VERTEX
8
Layer 1
10
612.000000
20
157.333095
70
0
0
VERTEX
8
Layer 1
10
612.000000
20
157.333095
70
0
0
SEQEND
8
Layer 1
0
POLYLINE
8
Layer 1
62
7
70
1
10
0.000000
20
0.000000
66
1
0
VERTEX
8
Layer 1
10
612.000000
20
205.333095
70
0
0
VERTEX
8
Layer 1
10
631.333095
20
186.000000
70
0
0
VERTEX
8
Layer 1
10
612.000000
20
166.666905
70
0
0
VERTEX
8
Layer 1
10
592.666905
20
186.000000
70
0
0
VERTEX
8
Layer 1
10
612.000000
20
205.333095
70
0
0
VERTEX
8
Layer 1
10
612.000000
20
205.333095
70
0
0
SEQEND
8
Layer 1
0
POLYLINE
8
Layer 1
62
7
70
1
10
0.000000
20
0.000000
66
1
0
VERTEX
8
Layer 1
10
636.000000
20
133.333095
70
0
0
VERTEX
8
Layer 1
10
655.333095
20
114.000000
70
0
0
VERTEX
8
Layer 1
10
636.000000
20
94.666905
70
0
0
VERTEX
8
Layer 1
10
616.666905
20
114.000000
70
0
0
VERTEX
8
Layer 1
10
636.000000
20
133.333095
70
0
0
VERTEX
8
Layer 1
10
636.000000
20
133.333095
70
0
0
SEQEND
8
Layer 1
0
POLYLINE
8
Layer 1
62
7
70
1
10
0.000000
20
0.000000
66
1
0
VERTEX
8
Layer 1
10
636.000000
20
181.333095
70
0
0
VERTEX
8
Layer 1
10
655.333095
20
162.000000
70
0
0
VERTEX
8
Layer 1
10
636.000000
20
142.666905
70
0
0
VERTEX
8
Layer 1
10
616.666905
20
162.000000
70
0
0
VERTEX
8
Layer 1
10
636.000000
20
181.333095
70
0
0
VERTEX
8
Layer 1
10
636.000000
20
181.333095
70
0
0
SEQEND
8
Layer 1
0
POLYLINE
8
Layer 1
62
7
70
1
10
0.000000
20
0.000000
66
1
0
VERTEX
8
Layer 1
10
655.333095
20
210.000000
70
0
0
VERTEX
8
Layer 1
10
636.000000
20
190.666905
70
0
0
VERTEX
8
Layer 1
10
616.666905
20
210.000000
70
0
0
VERTEX
8
Layer 1
10
617.666905
20
211.000000
70
0
0
VERTEX
8
Layer 1
10
654.333095
20
211.000000
70
0
0
VERTEX
8
Layer 1
10
655.333095
20
210.000000
70
0
0
VERTEX
8
Layer 1
10
655.333095
20
210.000000
70
0
0
SEQEND
8
Layer 1
0
POLYLINE
8
Layer 1
62
7
70
1
10
0.000000
20
0.000000
66
1
0
VERTEX
8
Layer 1
10
678.333095
20
91.000000
70
0
0
VERTEX
8
Layer 1
10
641.666905
20
91.000000
70
0
0
VERTEX
8
Layer 1
10
660.000000
20
109.333095
70
0
0
VERTEX
8
Layer 1
10
678.333095
20
91.000000
70
0
0
VERTEX
8
Layer 1
10
678.333095
20
91.000000
70
0
0
SEQEND
8
Layer 1
0
POLYLINE
8
Layer 1
62
7
70
1
10
0.000000
20
0.000000
66
1
0
VERTEX
8
Layer 1
10
660.000000
20
157.333095
70
0
0
VERTEX
8
Layer 1
10
679.333095
20
138.000000
70
0
0
VERTEX
8
Layer 1
10
660.000000
20
118.666905
70
0
0
VERTEX
8
Layer 1
10
640.666905
20
138.000000
70
0
0
VERTEX
8
Layer 1
10
660.000000
20
157.333095
70
0
0
VERTEX
8
Layer 1
10
660.000000
20
157.333095
70
0
0
SEQEND
8
Layer 1
0
POLYLINE
8
Layer 1
62
7
70
1
10
0.000000
20
0.000000
66
1
0
VERTEX
8
Layer 1
10
660.000000
20
205.333095
70
0
0
VERTEX
8
Layer 1
10
679.333095
20
186.000000
70
0
0
VERTEX
8
Layer 1
10
660.000000
20
166.666905
70
0
0
VERTEX
8
Layer 1
10
640.666905
20
186.000000
70
0
0
VERTEX
8
Layer 1
10
660.000000
20
205.333095
70
0
0
VERTEX
8
Layer 1
10
660.000000
20
205.333095
70
0
0
SEQEND
8
Layer 1
0
POLYLINE
8
Layer 1
62
7
70
1
10
0.000000
20
0.000000
66
1
0
VERTEX
8
Layer 1
10
684.000000
20
133.333095
70
0
0
VERTEX
8
Layer 1
10
703.333095
20
114.000000
70
0
0
VERTEX
8
Layer 1
10
684.000000
20
94.666905
70
0
0
VERTEX
8
Layer 1
10
664.666905
20
114.000000
70
0
0
VERTEX
8
Layer 1
10
684.000000
20
133.333095
70
0
0
VERTEX
8
Layer 1
10
684.000000
20
133.333095
70
0
0
SEQEND
8
Layer 1
0
POLYLINE
8
Layer 1
62
7
70
1
10
0.000000
20
0.000000
66
1
0
VERTEX
8
Layer 1
10
684.000000
20
181.333095
70
0
0
VERTEX
8
Layer 1
10
703.333095
20
162.000000
70
0
0
VERTEX
8
Layer 1
10
684.000000
20
142.666905
70
0
0
VERTEX
8
Layer 1
10
664.666905
20
162.000000
70
0
0
VERTEX
8
Layer 1
10
684.000000
20
181.333095
70
0
0
VERTEX
8
Layer 1
10
684.000000
20
181.333095
70
0
0
SEQEND
8
Layer 1
0
POLYLINE
8
Layer 1
62
7
70
1
10
0.000000
20
0.000000
66
1
0
VERTEX
8
Layer 1
10
703.333095
20
210.000000
70
0
0
VERTEX
8
Layer 1
10
684.000000
20
190.666905
70
0
0
VERTEX
8
Layer 1
10
664.666905
20
210.000000
70
0
0
VERTEX
8
Layer 1
10
665.666905
20
211.000000
70
0
0
VERTEX
8
Layer 1
10
702.333095
20
211.000000
70
0
0
VERTEX
8
Layer 1
10
703.333095
20
210.000000
70
0
0
VERTEX
8
Layer 1
10
703.333095
20
210.000000
70
0
0
SEQEND
8
Layer 1
0
POLYLINE
8
Layer 1
62
7
70
1
10
0.000000
20
0.000000
66
1
0
VERTEX
8
Layer 1
10
726.333095
20
91.000000
70
0
0
VERTEX
8
Layer 1
10
689.666905
20
91.000000
70
0
0
VERTEX
8
Layer 1
10
708.000000
20
109.333095
70
0
0
VERTEX
8
Layer 1
10
726.333095
20
91.000000
70
0
0
VERTEX
8
Layer 1
10
726.333095
20
91.000000
70
0
0
SEQEND
8
Layer 1
0
POLYLINE
8
Layer 1
62
7
70
1
10
0.000000
20
0.000000
66
1
0
VERTEX
8
Layer 1
10
708.000000
20
157.333095
70
0
0
VERTEX
8
Layer 1
10
727.333095
20
138.000000
70
0
0
VERTEX
8
Layer 1
10
708.000000
20
118.666905
70
0
0
VERTEX
8
Layer 1
10
688.666905
20
138.000000
70
0
0
VERTEX
8
Layer 1
10
708.000000
20
157.333095
70
0
0
VERTEX
8
Layer 1
10
708.000000
20
157.333095
70
0
0
SEQEND
8
Layer 1
0
POLYLINE
8
Layer 1
62
7
70
1
10
0.000000
20
0.000000
66
1
0
VERTEX
8
Layer 1
10
708.000000
20
205.333095
70
0
0
VERTEX
8
Layer 1
10
727.333095
20
186.000000
70
0
0
VERTEX
8
Layer 1
10
708.000000
20
166.666905
70
0
0
VERTEX
8
Layer 1
10
688.666905
20
186.000000
70
0
0
VERTEX
8
Layer 1
10
708.000000
20
205.333095
70
0
0
VERTEX
8
Layer 1
10
708.000000
20
205.333095
70
0
0
SEQEND
8
Layer 1
0
POLYLINE
8
Layer 1
62
7
70
1
10
0.000000
20
0.000000
66
1
0
VERTEX
8
Layer 1
10
732.000000
20
133.333095
70
0
0
VERTEX
8
Layer 1
10
751.333095
20
114.000000
70
0
0
VERTEX
8
Layer 1
10
732.000000
20
94.666905
70
0
0
VERTEX
8
Layer 1
10
712.666905
20
114.000000
70
0
0
VERTEX
8
Layer 1
10
732.000000
20
133.333095
70
0
0
VERTEX
8
Layer 1
10
732.000000
20
133.333095
70
0
0
SEQEND
8
Layer 1
0
POLYLINE
8
Layer 1
62
7
70
1
10
0.000000
20
0.000000
66
1
0
VERTEX
8
Layer 1
10
732.000000
20
181.333095
70
0
0
VERTEX
8
Layer 1
10
751.333095
20
162.000000
70
0
0
VERTEX
8
Layer 1
10
732.000000
20
142.666905
70
0
0
VERTEX
8
Layer 1
10
712.666905
20
162.000000
70
0
0
VERTEX
8
Layer 1
10
732.000000
20
181.333095
70
0
0
VERTEX
8
Layer 1
10
732.000000
20
181.333095
70
0
0
SEQEND
8
Layer 1
0
POLYLINE
8
Layer 1
62
7
70
1
10
0.000000
20
0.000000
66
1
0
VERTEX
8
Layer 1
10
751.333095
20
210.000000
70
0
0
VERTEX
8
Layer 1
10
732.000000
20
190.666905
70
0
0
VERTEX
8
Layer 1
10
712.666905
20
210.000000
70
0
0
VERTEX
8
Layer 1
10
713.666905
20
211.000000
70
0
0
VERTEX
8
Layer 1
10
750.333095
20
211.000000
70
0
0
VERTEX
8
Layer 1
10
751.333095
20
210.000000
70
0
0
VERTEX
8
Layer 1
10
751.333095
20
210.000000
70
0
0
SEQEND
8
Layer 1
0
POLYLINE
8
Layer 1
62
7
70
1
10
0.000000
20
0.000000
66
1
0
VERTEX
8
Layer 1
10
774.333095
20
91.000000
70
0
0
VERTEX
8
Layer 1
10
737.666905
20
91.000000
70
0
0
VERTEX
8
Layer 1
10
756.000000
20
109.333095
70
0
0
VERTEX
8
Layer 1
10
774.333095
20
91.000000
70
0
0
VERTEX
8
Layer 1
10
774.333095
20
91.000000
70
0
0
SEQEND
8
Layer 1
0
POLYLINE
8
Layer 1
62
7
70
1
10
0.000000
20
0.000000
66
1
0
VERTEX
8
Layer 1
10
756.000000
20
157.333095
70
0
0
VERTEX
8
Layer 1
10
775.333095
20
138.000000
70
0
0
VERTEX
8
Layer 1
10
756.000000
20
118.666905
70
0
0
VERTEX
8
Layer 1
10
736.666905
20
138.000000
70
0
0
VERTEX
8
Layer 1
10
756.000000
20
157.333095
70
0
0
VERTEX
8
Layer 1
10
756.000000
20
157.333095
70
0
0
SEQEND
8
Layer 1
0
POLYLINE
8
Layer 1
62
7
70
1
10
0.000000
20
0.000000
66
1
0
VERTEX
8
Layer 1
10
756.000000
20
205.333095
70
0
0
VERTEX
8
Layer 1
10
775.333095
20
186.000000
70
0
0
VERTEX
8
Layer 1
10
756.000000
20
166.666905
70
0
0
VERTEX
8
Layer 1
10
736.666905
20
186.000000
70
0
0
VERTEX
8
Layer 1
10
756.000000
20
205.333095
70
0
0
VERTEX
8
Layer 1
10
756.000000
20
205.333095
70
0
0
SEQEND
8
Layer 1
0
POLYLINE
8
Layer 1
62
7
70
1
10
0.000000
20
0.000000
66
1
0
VERTEX
8
Layer 1
10
780.000000
20
133.333095
70
0
0
VERTEX
8
Layer 1
10
799.333095
20
114.000000
70
0
0
VERTEX
8
Layer 1
10
780.000000
20
94.666905
70
0
0
VERTEX
8
Layer 1
10
760.666905
20
114.000000
70
0
0
VERTEX
8
Layer 1
10
780.000000
20
133.333095
70
0
0
VERTEX
8
Layer 1
10
780.000000
20
133.333095
70
0
0
SEQEND
8
Layer 1
0
POLYLINE
8
Layer 1
62
7
70
1
10
0.000000
20
0.000000
66
1
0
VERTEX
8
Layer 1
10
780.000000
20
181.333095
70
0
0
VERTEX
8
Layer 1
10
799.333095
20
162.000000
70
0
0
VERTEX
8
Layer 1
10
780.000000
20
142.666905
70
0
0
VERTEX
8
Layer 1
10
760.666905
20
162.000000
70
0
0
VERTEX
8
Layer 1
10
780.000000
20
181.333095
70
0
0
VERTEX
8
Layer 1
10
780.000000
20
181.333095
70
0
0
SEQEND
8
Layer 1
0
POLYLINE
8
Layer 1
62
7
70
1
10
0.000000
20
0.000000
66
1
0
VERTEX
8
Layer 1
10
799.333095
20
210.000000
70
0
0
VERTEX
8
Layer 1
10
780.000000
20
190.666905
70
0
0
VERTEX
8
Layer 1
10
760.666905
20
210.000000
70
0
0
VERTEX
8
Layer 1
10
761.666905
20
211.000000
70
0
0
VERTEX
8
Layer 1
10
798.333095
20
211.000000
70
0
0
VERTEX
8
Layer 1
10
799.333095
20
210.000000
70
0
0
VERTEX
8
Layer 1
10
799.333095
20
210.000000
70
0
0
SEQEND
8
Layer 1
0
POLYLINE
8
Layer 1
62
7
70
1
10
0.000000
20
0.000000
66
1
0
VERTEX
8
Layer 1
10
822.333095
20
91.000000
70
0
0
VERTEX
8
Layer 1
10
785.666905
20
91.000000
70
0
0
VERTEX
8
Layer 1
10
804.000000
20
109.333095
70
0
0
VERTEX
8
Layer 1
10
822.333095
20
91.000000
70
0
0
VERTEX
8
Layer 1
10
822.333095
20
91.000000
70
0
0
SEQEND
8
Layer 1
0
POLYLINE
8
Layer 1
62
7
70
1
10
0.000000
20
0.000000
66
1
0
VERTEX
8
Layer 1
10
804.000000
20
157.333095
70
0
0
VERTEX
8
Layer 1
10
823.333095
20
138.000000
70
0
0
VERTEX
8
Layer 1
10
804.000000
20
118.666905
70
0
0
VERTEX
8
Layer 1
10
784.666905
20
138.000000
70
0
0
VERTEX
8
Layer 1
10
804.000000
20
157.333095
70
0
0
VERTEX
8
Layer 1
10
804.000000
20
157.333095
70
0
0
SEQEND
8
Layer 1
0
POLYLINE
8
Layer 1
62
7
70
1
10
0.000000
20
0.000000
66
1
0
VERTEX
8
Layer 1
10
804.000000
20
205.333095
70
0
0
VERTEX
8
Layer 1
10
823.333095
20
186.000000
70
0
0
VERTEX
8
Layer 1
10
804.000000
20
166.666905
70
0
0
VERTEX
8
Layer 1
10
784.666905
20
186.000000
70
0
0
VERTEX
8
Layer 1
10
804.000000
20
205.333095
70
0
0
VERTEX
8
Layer 1
10
804.000000
20
205.333095
70
0
0
SEQEND
8
Layer 1
0
POLYLINE
8
Layer 1
62
7
70
1
10
0.000000
20
0.000000
66
1
0
VERTEX
8
Layer 1
10
828.000000
20
133.333095
70
0
0
VERTEX
8
Layer 1
10
847.333095
20
114.000000
70
0
0
VERTEX
8
Layer 1
10
828.000000
20
94.666905
70
0
0
VERTEX
8
Layer 1
10
808.666905
20
114.000000
70
0
0
VERTEX
8
Layer 1
10
828.000000
20
133.333095
70
0
0
VERTEX
8
Layer 1
10
828.000000
20
133.333095
70
0
0
SEQEND
8
Layer 1
0
POLYLINE
8
Layer 1
62
7
70
1
10
0.000000
20
0.000000
66
1
0
VERTEX
8
Layer 1
10
828.000000
20
181.333095
70
0
0
VERTEX
8
Layer 1
10
847.333095
20
162.000000
70
0
0
VERTEX
8
Layer 1
10
828.000000
20
142.666905
70
0
0
VERTEX
8
Layer 1
10
808.666905
20
162.000000
70
0
0
VERTEX
8
Layer 1
10
828.000000
20
181.333095
70
0
0
VERTEX
8
Layer 1
10
828.000000
20
181.333095
70
0
0
SEQEND
8
Layer 1
0
POLYLINE
8
Layer 1
62
7
70
1
10
0.000000
20
0.000000
66
1
0
VERTEX
8
Layer 1
10
847.333095
20
210.000000
70
0
0
VERTEX
8
Layer 1
10
828.000000
20
190.666905
70
0
0
VERTEX
8
Layer 1
10
808.666905
20
210.000000
70
0
0
VERTEX
8
Layer 1
10
809.666905
20
211.000000
70
0
0
VERTEX
8
Layer 1
10
846.333095
20
211.000000
70
0
0
VERTEX
8
Layer 1
10
847.333095
20
210.000000
70
0
0
VERTEX
8
Layer 1
10
847.333095
20
210.000000
70
0
0
SEQEND
8
Layer 1
0
POLYLINE
8
Layer 1
62
7
70
1
10
0.000000
20
0.000000
66
1
0
VERTEX
8
Layer 1
10
870.333095
20
91.000000
70
0
0
VERTEX
8
Layer 1
10
833.666905
20
91.000000
70
0
0
VERTEX
8
Layer 1
10
852.000000
20
109.333095
70
0
0
VERTEX
8
Layer 1
10
870.333095
20
91.000000
70
0
0
VERTEX
8
Layer 1
10
870.333095
20
91.000000
70
0
0
SEQEND
8
Layer 1
0
POLYLINE
8
Layer 1
62
7
70
1
10
0.000000
20
0.000000
66
1
0
VERTEX
8
Layer 1
10
852.000000
20
157.333095
70
0
0
VERTEX
8
Layer 1
10
871.333095
20
138.000000
70
0
0
VERTEX
8
Layer 1
10
852.000000
20
118.666905
70
0
0
VERTEX
8
Layer 1
10
832.666905
20
138.000000
70
0
0
VERTEX
8
Layer 1
10
852.000000
20
157.333095
70
0
0
VERTEX
8
Layer 1
10
852.000000
20
157.333095
70
0
0
SEQEND
8
Layer 1
0
POLYLINE
8
Layer 1
62
7
70
1
10
0.000000
20
0.000000
66
1
0
VERTEX
8
Layer 1
10
852.000000
20
205.333095
70
0
0
VERTEX
8
Layer 1
10
871.333095
20
186.000000
70
0
0
VERTEX
8
Layer 1
10
852.000000
20
166.666905
70
0
0
VERTEX
8
Layer 1
10
832.666905
20
186.000000
70
0
0
VERTEX
8
Layer 1
10
852.000000
20
205.333095
70
0
0
VERTEX
8
Layer 1
10
852.000000
20
205.333095
70
0
0
SEQEND
8
Layer 1
0
POLYLINE
8
Layer 1
62
7
70
1
10
0.000000
20
0.000000
66
1
0
VERTEX
8
Layer 1
10
876.000000
20
133.333095
70
0
0
VERTEX
8
Layer 1
10
895.333095
20
114.000000
70
0
0
VERTEX
8
Layer 1
10
876.000000
20
94.666905
70
0
0
VERTEX
8
Layer 1
10
856.666905
20
114.000000
70
0
0
VERTEX
8
Layer 1
10
876.000000
20
133.333095
70
0
0
VERTEX
8
Layer 1
10
876.000000
20
133.333095
70
0
0
SEQEND
8
Layer 1
0
POLYLINE
8
Layer 1
62
7
70
1
10
0.000000
20
0.000000
66
1
0
VERTEX
8
Layer 1
10
876.000000
20
181.333095
70
0
0
VERTEX
8
Layer 1
10
895.333095
20
162.000000
70
0
0
VERTEX
8
Layer 1
10
876.000000
20
142.666905
70
0
0
VERTEX
8
Layer 1
10
856.666905
20
162.000000
70
0
0
VERTEX
8
Layer 1
10
876.000000
20
181.333095
70
0
0
VERTEX
8
Layer 1
10
876.000000
20
181.333095
70
0
0
SEQEND
8
Layer 1
0
POLYLINE
8
Layer 1
62
7
70
1
10
0.000000
20
0.000000
66
1
0
VERTEX
8
Layer 1
10
895.333095
20
210.000000
70
0
0
VERTEX
8
Layer 1
10
876.000000
20
190.666905
70
0
0
VERTEX
8
Layer 1
10
856.666905
20
210.000000
70
0
0
VERTEX
8
Layer 1
10
857.666905
20
211.000000
70
0
0
VERTEX
8
Layer 1
10
894.333095
20
211.000000
70
0
0
VERTEX
8
Layer 1
10
895.333095
20
210.000000
70
0
0
VERTEX
8
Layer 1
10
895.333095
20
210.000000
70
0
0
SEQEND
8
Layer 1
0
POLYLINE
8
Layer 1
62
7
70
1
10
0.000000
20
0.000000
66
1
0
VERTEX
8
Layer 1
10
918.333095
20
91.000000
70
0
0
VERTEX
8
Layer 1
10
881.666905
20
91.000000
70
0
0
VERTEX
8
Layer 1
10
900.000000
20
109.333095
70
0
0
VERTEX
8
Layer 1
10
918.333095
20
91.000000
70
0
0
VERTEX
8
Layer 1
10
918.333095
20
91.000000
70
0
0
SEQEND
8
Layer 1
0
POLYLINE
8
Layer 1
62
7
70
1
10
0.000000
20
0.000000
66
1
0
VERTEX
8
Layer 1
10
900.000000
20
157.333095
70
0
0
VERTEX
8
Layer 1
10
919.333095
20
138.000000
70
0
0
VERTEX
8
Layer 1
10
900.000000
20
118.666905
70
0
0
VERTEX
8
Layer 1
10
880.666905
20
138.000000
70
0
0
VERTEX
8
Layer 1
10
900.000000
20
157.333095
70
0
0
VERTEX
8
Layer 1
10
900.000000
20
157.333095
70
0
0
SEQEND
8
Layer 1
0
POLYLINE
8
Layer 1
62
7
70
1
10
0.000000
20
0.000000
66
1
0
VERTEX
8
Layer 1
10
900.000000
20
205.333095
70
0
0
VERTEX
8
Layer 1
10
919.333095
20
186.000000
70
0
0
VERTEX
8
Layer 1
10
900.000000
20
166.666905
70
0
0
VERTEX
8
Layer 1
10
880.666905
20
186.000000
70
0
0
VERTEX
8
Layer 1
10
900.000000
20
205.333095
70
0
0
VERTEX
8
Layer 1
10
900.000000
20
205.333095
70
0
0
SEQEND
8
Layer 1
0
POLYLINE
8
Layer 1
62
7
70
1
10
0.000000
20
0.000000
66
1
0
VERTEX
8
Layer 1
10
924.000000
20
133.333095
70
0
0
VERTEX
8
Layer 1
10
943.333095
20
114.000000
70
0
0
VERTEX
8
Layer 1
10
924.000000
20
94.666905
70
0
0
VERTEX
8
Layer 1
10
904.666905
20
114.000000
70
0
0
VERTEX
8
Layer 1
10
924.000000
20
133.333095
70
0
0
VERTEX
8
Layer 1
10
924.000000
20
133.333095
70
0
0
SEQEND
8
Layer 1
0
POLYLINE
8
Layer 1
62
7
70
1
10
0.000000
20
0.000000
66
1
0
VERTEX
8
Layer 1
10
924.000000
20
181.333095
70
0
0
VERTEX
8
Layer 1
10
943.333095
20
162.000000
70
0
0
VERTEX
8
Layer 1
10
924.000000
20
142.666905
70
0
0
VERTEX
8
Layer 1
10
904.666905
20
162.000000
70
0
0
VERTEX
8
Layer 1
10
924.000000
20
181.333095
70
0
0
VERTEX
8
Layer 1
10
924.000000
20
181.333095
70
0
0
SEQEND
8
Layer 1
0
POLYLINE
8
Layer 1
62
7
70
1
10
0.000000
20
0.000000
66
1
0
VERTEX
8
Layer 1
10
943.333095
20
210.000000
70
0
0
VERTEX
8
Layer 1
10
924.000000
20
190.666905
70
0
0
VERTEX
8
Layer 1
10
904.666905
20
210.000000
70
0
0
VERTEX
8
Layer 1
10
905.666905
20
211.000000
70
0
0
VERTEX
8
Layer 1
10
942.333095
20
211.000000
70
0
0
VERTEX
8
Layer 1
10
943.333095
20
210.000000
70
0
0
VERTEX
8
Layer 1
10
943.333095
20
210.000000
70
0
0
SEQEND
8
Layer 1
0
POLYLINE
8
Layer 1
62
7
70
1
10
0.000000
20
0.000000
66
1
0
VERTEX
8
Layer 1
10
966.333095
20
91.000000
70
0
0
VERTEX
8
Layer 1
10
929.666905
20
91.000000
70
0
0
VERTEX
8
Layer 1
10
948.000000
20
109.333095
70
0
0
VERTEX
8
Layer 1
10
966.333095
20
91.000000
70
0
0
VERTEX
8
Layer 1
10
966.333095
20
91.000000
70
0
0
SEQEND
8
Layer 1
0
POLYLINE
8
Layer 1
62
7
70
1
10
0.000000
20
0.000000
66
1
0
VERTEX
8
Layer 1
10
948.000000
20
157.333095
70
0
0
VERTEX
8
Layer 1
10
967.333095
20
138.000000
70
0
0
VERTEX
8
Layer 1
10
948.000000
20
118.666905
70
0
0
VERTEX
8
Layer 1
10
928.666905
20
138.000000
70
0
0
VERTEX
8
Layer 1
10
948.000000
20
157.333095
70
0
0
VERTEX
8
Layer 1
10
948.000000
20
157.333095
70
0
0
SEQEND
8
Layer 1
0
POLYLINE
8
Layer 1
62
7
70
1
10
0.000000
20
0.000000
66
1
0
VERTEX
8
Layer 1
10
948.000000
20
205.333095
70
0
0
VERTEX
8
Layer 1
10
967.333095
20
186.000000
70
0
0
VERTEX
8
Layer 1
10
948.000000
20
166.666905
70
0
0
VERTEX
8
Layer 1
10
928.666905
20
186.000000
70
0
0
VERTEX
8
Layer 1
10
948.000000
20
205.333095
70
0
0
VERTEX
8
Layer 1
10
948.000000
20
205.333095
70
0
0
SEQEND
8
Layer 1
0
POLYLINE
8
Layer 1
62
7
70
1
10
0.000000
20
0.000000
66
1
0
VERTEX
8
Layer 1
10
972.000000
20
133.333095
70
0
0
VERTEX
8
Layer 1
10
991.333095
20
114.000000
70
0
0
VERTEX
8
Layer 1
10
972.000000
20
94.666905
70
0
0
VERTEX
8
Layer 1
10
952.666905
20
114.000000
70
0
0
VERTEX
8
Layer 1
10
972.000000
20
133.333095
70
0
0
VERTEX
8
Layer 1
10
972.000000
20
133.333095
70
0
0
SEQEND
8
Layer 1
0
POLYLINE
8
Layer 1
62
7
70
1
10
0.000000
20
0.000000
66
1
0
VERTEX
8
Layer 1
10
972.000000
20
181.333095
70
0
0
VERTEX
8
Layer 1
10
991.333095
20
162.000000
70
0
0
VERTEX
8
Layer 1
10
972.000000
20
142.666905
70
0
0
VERTEX
8
Layer 1
10
952.666905
20
162.000000
70
0
0
VERTEX
8
Layer 1
10
972.000000
20
181.333095
70
0
0
VERTEX
8
Layer 1
10
972.000000
20
181.333095
70
0
0
SEQEND
8
Layer 1
0
POLYLINE
8
Layer 1
62
7
70
1
10
0.000000
20
0.000000
66
1
0
VERTEX
8
Layer 1
10
991.333095
20
210.000000
70
0
0
VERTEX
8
Layer 1
10
972.000000
20
190.666905
70
0
0
VERTEX
8
Layer 1
10
952.666905
20
210.000000
70
0
0
VERTEX
8
Layer 1
10
953.666905
20
211.000000
70
0
0
VERTEX
8
Layer 1
10
990.333095
20
211.000000
70
0
0
VERTEX
8
Layer 1
10
991.333095
20
210.000000
70
0
0
VERTEX
8
Layer 1
10
991.333095
20
210.000000
70
0
0
SEQEND
8
Layer 1
0
POLYLINE
8
Layer 1
62
7
70
1
10
0.000000
20
0.000000
66
1
0
VERTEX
8
Layer 1
10
1014.333095
20
91.000000
70
0
0
VERTEX
8
Layer 1
10
977.666905
20
91.000000
70
0
0
VERTEX
8
Layer 1
10
996.000000
20
109.333095
70
0
0
VERTEX
8
Layer 1
10
1014.333095
20
91.000000
70
0
0
VERTEX
8
Layer 1
10
1014.333095
20
91.000000
70
0
0
SEQEND
8
Layer 1
0
POLYLINE
8
Layer 1
62
7
70
1
10
0.000000
20
0.000000
66
1
0
VERTEX
8
Layer 1
10
996.000000
20
157.333095
70
0
0
VERTEX
8
Layer 1
10
1015.333095
20
138.000000
70
0
0
VERTEX
8
Layer 1
10
996.000000
20
118.666905
70
0
0
VERTEX
8
Layer 1
10
976.666905
20
138.000000
70
0
0
VERTEX
8
Layer 1
10
996.000000
20
157.333095
70
0
0
VERTEX
8
Layer 1
10
996.000000
20
157.333095
70
0
0
SEQEND
8
Layer 1
0
POLYLINE
8
Layer 1
62
7
70
1
10
0.000000
20
0.000000
66
1
0
VERTEX
8
Layer 1
10
996.000000
20
205.333095
70
0
0
VERTEX
8
Layer 1
10
1015.333095
20
186.000000
70
0
0
VERTEX
8
Layer 1
10
996.000000
20
166.666905
70
0
0
VERTEX
8
Layer 1
10
976.666905
20
186.000000
70
0
0
VERTEX
8
Layer 1
10
996.000000
20
205.333095
70
0
0
VERTEX
8
Layer 1
10
996.000000
20
205.333095
70
0
0
SEQEND
8
Layer 1
0
POLYLINE
8
Layer 1
62
7
70
1
10
0.000000
20
0.000000
66
1
0
VERTEX
8
Layer 1
10
1037.500000
20
115.833095
70
0
0
VERTEX
8
Layer 1
10
1037.500000
20
112.166905
70
0
0
VERTEX
8
Layer 1
10
1020.000000
20
94.666905
70
0
0
VERTEX
8
Layer 1
10
1000.666905
20
114.000000
70
0
0
VERTEX
8
Layer 1
10
1020.000000
20
133.333095
70
0
0
VERTEX
8
Layer 1
10
1037.500000
20
115.833095
70
0
0
VERTEX
8
Layer 1
10
1037.500000
20
115.833095
70
0
0
SEQEND
8
Layer 1
0
POLYLINE
8
Layer 1
62
7
70
1
10
0.000000
20
0.000000
66
1
0
VERTEX
8
Layer 1
10
1037.500000
20
163.833095
70
0
0
VERTEX
8
Layer 1
10
1037.500000
20
160.166905
70
0
0
VERTEX
8
Layer 1
10
1020.000000
20
142.666905
70
0
0
VERTEX
8
Layer 1
10
1000.666905
20
162.000000
70
0
0
VERTEX
8
Layer 1
10
1020.000000
20
181.333095
70
0
0
VERTEX
8
Layer 1
10
1037.500000
20
163.833095
70
0
0
VERTEX
8
Layer 1
10
1037.500000
20
163.833095
70
0
0
SEQEND
8
Layer 1
0
POLYLINE
8
Layer 1
62
7
70
1
10
0.000000
20
0.000000
66
1
0
VERTEX
8
Layer 1
10
1020.000000
20
190.666905
70
0
0
VERTEX
8
Layer 1
10
1000.666905
20
210.000000
70
0
0
VERTEX
8
Layer 1
10
1001.666905
20
211.000000
70
0
0
VERTEX
8
Layer 1
10
1037.500000
20
211.000000
70
0
0
VERTEX
8
Layer 1
10
1037.500000
20
208.166905
70
0
0
VERTEX
8
Layer 1
10
1020.000000
20
190.666905
70
0
0
VERTEX
8
Layer 1
10
1020.000000
20
190.666905
70
0
0
SEQEND
8
Layer 1
0
POLYLINE
8
Layer 1
62
7
70
1
10
0.000000
20
0.000000
66
1
0
VERTEX
8
Layer 1
10
1037.500000
20
102.833095
70
0
0
VERTEX
8
Layer 1
10
1037.500000
20
91.000000
70
0
0
VERTEX
8
Layer 1
10
1025.666905
20
91.000000
70
0
0
VERTEX
8
Layer 1
10
1037.500000
20
102.833095
70
0
0
VERTEX
8
Layer 1
10
1037.500000
20
102.833095
70
0
0
SEQEND
8
Layer 1
0
POLYLINE
8
Layer 1
62
7
70
1
10
0.000000
20
0.000000
66
1
0
VERTEX
8
Layer 1
10
1024.666905
20
138.000000
70
0
0
VERTEX
8
Layer 1
10
1037.500000
20
150.833095
70
0
0
VERTEX
8
Layer 1
10
1037.500000
20
125.166905
70
0
0
VERTEX
8
Layer 1
10
1024.666905
20
138.000000
70
0
0
VERTEX
8
Layer 1
10
1024.666905
20
138.000000
70
0
0
SEQEND
8
Layer 1
0
POLYLINE
8
Layer 1
62
7
70
1
10
0.000000
20
0.000000
66
1
0
VERTEX
8
Layer 1
10
1024.666905
20
186.000000
70
0
0
VERTEX
8
Layer 1
10
1037.500000
20
198.833095
70
0
0
VERTEX
8
Layer 1
10
1037.500000
20
173.166905
70
0
0
VERTEX
8
Layer 1
10
1024.666905
20
186.000000
70
0
0
VERTEX
8
Layer 1
10
1024.666905
20
186.000000
70
0
0
SEQEND
8
Layer 1
0
POLYLINE
8
Layer 1
62
7
70
1
10
0.000000
20
0.000000
66
1
0
VERTEX
8
Layer 1
10
147.500000
20
65.000000
70
0
0
VERTEX
8
Layer 1
10
1052.500000
20
65.000000
70
0
0
VERTEX
8
Layer 1
10
1052.500000
20
235.000000
70
0
0
VERTEX
8
Layer 1
10
147.500000
20
235.000000
70
0
0
VERTEX
8
Layer 1
10
147.500000
20
65.000000
70
0
0
VERTEX
8
Layer 1
10
147.500000
20
65.000000
70
0
0
SEQEND
8
Layer 1
 0 
ENDSEC
 0 
EOF