<?xml version="1.0" encoding="utf-8" ?>
<svg baseProfile="full" height="300mm" version="1.1" viewBox="0 0 1200 300" width="1200mm" xmlns="http://www.w3.org/2000/svg" xmlns:ev="http://www.w3.org/2001/xml-events" xmlns:xlink="http://www.w3.org/1999/xlink"><defs /><g fill="none" stroke="blue" stroke-width="0.5" transform="translate(10.0,60.0)"><path d="M 140.0,120.0 L 120.0,140.0 L 140.0,160.0 L 160.0,140.0 L 140.0,120.0 Z" /><path d="M 140.0,80.0 L 120.0,100.0 L 140.0,120.0 L 160.0,100.0 L 140.0,80.0 Z" /><path d="M 140.0,40.0 L 120.0,60.0 L 140.0,80.0 L 160.0,60.0 L 140.0,40.0 Z" /><path d="M 140.0,0.0 L 120.0,20.0 L 140.0,40.0 L 160.0,20.0 L 140.0,0.0 Z" /><path d="M 160.0,140.0 L 140.0,160.0 L 160.0,180.0 L 180.0,160.0 L 160.0,140.0 Z" /><path d="M 160.0,100.0 L 140.0,120.0 L 160.0,140.0 L 180.0,120.0 L 160.0,100.0 Z" /><path d="M 160.0,60.0 L 140.0,80.0 L 160.0,100.0 L 180.0,80.0 L 160.0,60.0 Z" /><path d="M 160.0,20.0 L 140.0,40.0 L 160.0,60.0 L 180.0,40.0 L 160.0,20.0 Z" /><path d="M 180.0,120.0 L 160.0,140.0 L 180.0,160.0 L 200.0,140.0 L 180.0,120.0 Z" /><path d="M 180.0,80.0 L 160.0,100.0 L 180.0,120.0 L 200.0,100.0 L 180.0,80.0 Z" /><path d="M 180.0,40.0 L 160.0,60.0 L 180.0,80.0 L 200.0,60.0 L 180.0,40.0 Z" /><path d="M 180.0,0.0 L 160.0,20.0 L 180.0,40.0 L 200.0,20.0 L 180.0,0.0 Z" /><path d="M 200.0,140.0 L 180.0,160.0 L 200.0,180.0 L 220.0,160.0 L 200.0,140.0 Z" /><path d="M 200.0,100.0 L 180.0,120.0 L 200.0,140.0 L 220.0,120.0 L 200.0,100.0 Z" /><path d="M 200.0,60.0 L 180.0,80.0 L 200.0,100.0 L 220.0,80.0 L 200.0,60.0 Z" /><path d="M 200.0,20.0 L 180.0,40.0 L 200.0,60.0 L 220.0,40.0 L 200.0,20.0 Z" /><path d="M 220.0,120.0 L 200.0,140.0 L 220.0,160.0 L 240.0,140.0 L 220.0,120.0 Z" /><path d="M 220.0,80.0 L 200.0,100.0 L 220.0,120.0 L 240.0,100.0 L 220.0,80.0 Z" /><path d="M 220.0,40.0 L 200.0,60.0 L 220.0,80.0 L 240.0,60.0 L 220.0,40.0 Z" /><path d="M 220.0,0.0 L 200.0,20.0 L 220.0,40.0 L 240.0,20.0 L 220.0,0.0 Z" /><path d="M 240.0,140.0 L 220.0,160.0 L 240.0,180.0 L 260.0,160.0 L 240.0,140.0 Z" /><path d="M 240.0,100.0 L 220.0,120.0 L 240.0,140.0 L 260.0,120.0 L 240.0,100.0 Z" /><path d="M 240.0,60.0 L 220.0,80.0 L 240.0,100.0 L 260.0,80.0 L 240.0,60.0 Z" /><path d="M 240.0,20.0 L 220.0,40.0 L 240.0,60.0 L 260.0,40.0 L 240.0,20.0 Z" /><path d="M 260.0,120.0 L 240.0,140.0 L 260.0,160.0 L 280.0,140.0 L 260.0,120.0 Z" /><path d="M 260.0,80.0 L 240.0,100.0 L 260.0,120.0 L 280.0,100.0 L 260.0,80.0 Z" /><path d="M 260.0,40.0 L 240.0,60.0 L 260.0,80.0 L 280.0,60.0 L 260.0,40.0 Z" /><path d="M 260.0,0.0 L 240.0,20.0 L 260.0,40.0 L 280.0,20.0 L 260.0,0.0 Z" /><path d="M 280.0,140.0 L 260.0,160.0 L 280.0,180.0 L 300.0,160.0 L 280.0,140.0 Z" /><path d="M 280.0,100.0 L 260.0,120.0 L 280.0,140.0 L 300.0,120.0 L 280.0,100.0 Z" /><path d="M 280.0,60.0 L 260.0,80.0 L 280.0,100.0 L 300.0,80.0 L 280.0,60.0 Z" /><path d="M 280.0,20.0 L 260.0,40.0 L 280.0,60.0 L 300.0,40.0 L 280.0,20.0 Z" /><path d="M 300.0,120.0 L 280.0,140.0 L 300.0,160.0 L 320.0,140.0 L 300.0,120.0 Z" /><path d="M 300.0,80.0 L 280.0,100.0 L 300.0,120.0 L 320.0,100.0 L 300.0,80.0 Z" /><path d="M 300.0,40.0 L 280.0,60.0 L 300.0,80.0 L 320.0,60.0 L 300.0,40.0 Z" /><path d="M 300.0,0.0 L 280.0,20.0 L 300.0,40.0 L 320.0,20.0 L 300.0,0.0 Z" /><path d="M 320.0,140.0 L 300.0,160.0 L 320.0,180.0 L 340.0,160.0 L 320.0,140.0 Z" /><path d="M 320.0,100.0 L 300.0,120.0 L 320.0,140.0 L 340.0,120.0 L 320.0,100.0 Z" /><path d="M 320.0,60.0 L 300.0,80.0 L 320.0,100.0 L 340.0,80.0 L 320.0,60.0 Z" /><path d="M 320.0,20.0 L 300.0,40.0 L 320.0,60.0 L 340.0,40.0 L 320.0,20.0 Z" /><path d="M 340.0,120.0 L 320.0,140.0 L 340.0,160.0 L 360.0,140.0 L 340.0,120.0 Z" /><path d="M 340.0,80.0 L 320.0,100.0 L 340.0,120.0 L 360.0,100.0 L 340.0,80.0 Z" /><path d="M 340.0,40.0 L 320.0,60.0 L 340.0,80.0 L 360.0,60.0 L 340.0,40.0 Z" /><path d="M 340.0,0.0 L 320.0,20.0 L 340.0,40.0 L 360.0,20.0 L 340.0,0.0 Z" /><path d="M 360.0,140.0 L 340.0,160.0 L 360.0,180.0 L 380.0,160.0 L 360.0,140.0 Z" /><path d="M 360.0,100.0 L 340.0,120.0 L 360.0,140.0 L 380.0,120.0 L 360.0,100.0 Z" /><path d="M 360.0,60.0 L 340.0,80.0 L 360.0,100.0 L 380.0,80.0 L 360.0,60.0 Z" /><path d="M 360.0,20.0 L 340.0,40.0 L 360.0,60.0 L 380.0,40.0 L 360.0,20.0 Z" /><path d="M 380.0,120.0 L 360.0,140.0 L 380.0,160.0 L 400.0,140.0 L 380.0,120.0 Z" /><path d="M 380.0,80.0 L 360.0,100.0 L 380.0,120.0 L 400.0,100.0 L 380.0,80.0 Z" /><path d="M 380.0,40.0 L 360.0,60.0 L 380.0,80.0 L 400.0,60.0 L 380.0,40.0 Z" /><path d="M 380.0,0.0 L 360.0,20.0 L 380.0,40.0 L 400.0,20.0 L 380.0,0.0 Z" /><path d="M 400.0,140.0 L 380.0,160.0 L 400.0,180.0 L 420.0,160.0 L 400.0,140.0 Z" /><path d="M 400.0,100.0 L 380.0,120.0 L 400.0,140.0 L 420.0,120.0 L 400.0,100.0 Z" /><path d="M 400.0,60.0 L 380.0,80.0 L 400.0,100.0 L 420.0,80.0 L 400.0,60.0 Z" /><path d="M 400.0,20.0 L 380.0,40.0 L 400.0,60.0 L 420.0,40.0 L 400.0,20.0 Z" /><path d="M 420.0,120.0 L 400.0,140.0 L 420.0,160.0 L 440.0,140.0 L 420.0,120.0 Z" /><path d="M 420.0,80.0 L 400.0,100.0 L 420.0,120.0 L 440.0,100.0 L 420.0,80.0 Z" /><path d="M 420.0,40.0 L 400.0,60.0 L 420.0,80.0 L 440.0,60.0 L 420.0,40.0 Z" /><path d="M 420.0,0.0 L 400.0,20.0 L 420.0,40.0 L 440.0,20.0 L 420.0,0.0 Z" /><path d="M 440.0,140.0 L 420.0,160.0 L 440.0,180.0 L 460.0,160.0 L 440.0,140.0 Z" /><path d="M 440.0,100.0 L 420.0,120.0 L 440.0,140.0 L 460.0,120.0 L 440.0,100.0 Z" /><path d="M 440.0,60.0 L 420.0,80.0 L 440.0,100.0 L 460.0,80.0 L 440.0,60.0 Z" /><path d="M 440.0,20.0 L 420.0,40.0 L 440.0,60.0 L 460.0,40.0 L 440.0,20.0 Z" /><path d="M 460.0,120.0 L 440.0,140.0 L 460.0,160.0 L 480.0,140.0 L 460.0,120.0 Z" /><path d="M 460.0,80.0 L 440.0,100.0 L 460.0,120.0 L 480.0,100.0 L 460.0,80.0 Z" /><path d="M 460.0,40.0 L 440.0,60.0 L 460.0,80.0 L 480.0,60.0 L 460.0,40.0 Z" /><path d="M 460.0,0.0 L 440.0,20.0 L 460.0,40.0 L 480.0,20.0 L 460.0,0.0 Z" /><path d="M 480.0,140.0 L 460.0,160.0 L 480.0,180.0 L 500.0,160.0 L 480.0,140.0 Z" /><path d="M 480.0,100.0 L 460.0,120.0 L 480.0,140.0 L 500.0,120.0 L 480.0,100.0 Z" /><path d="M 480.0,60.0 L 460.0,80.0 L 480.0,100.0 L 500.0,80.0 L 480.0,60.0 Z" /><path d="M 480.0,20.0 L 460.0,40.0 L 480.0,60.0 L 500.0,40.0 L 480.0,20.0 Z" /><path d="M 500.0,120.0 L 480.0,140.0 L 500.0,160.0 L 520.0,140.0 L 500.0,120.0 Z" /><path d="M 500.0,80.0 L 480.0,100.0 L 500.0,120.0 L 520.0,100.0 L 500.0,80.0 Z" /><path d="M 500.0,40.0 L 480.0,60.0 L 500.0,80.0 L 520.0,60.0 L 500.0,40.0 Z" /><path d="M 500.0,0.0 L 480.0,20.0 L 500.0,40.0 L 520.0,20.0 L 500.0,0.0 Z" /><path d="M 520.0,140.0 L 500.0,160.0 L 520.0,180.0 L 540.0,160.0 L 520.0,140.0 Z" /><path d="M 520.0,100.0 L 500.0,120.0 L 520.0,140.0 L 540.0,120.0 L 520.0,100.0 Z" /><path d="M 520.0,60.0 L 500.0,80.0 L 520.0,100.0 L 540.0,80.0 L 520.0,60.0 Z" /><path d="M 520.0,20.0 L 500.0,40.0 L 520.0,60.0 L 540.0,40.0 L 520.0,20.0 Z" /><path d="M 540.0,120.0 L 520.0,140.0 L 540.0,160.0 L 560.0,140.0 L 540.0,120.0 Z" /><path d="M 540.0,80.0 L 520.0,100.0 L 540.0,120.0 L 560.0,100.0 L 540.0,80.0 Z" /><path d="M 540.0,40.0 L 520.0,60.0 L 540.0,80.0 L 560.0,60.0 L 540.0,40.0 Z" /><path d="M 540.0,0.0 L 520.0,20.0 L 540.0,40.0 L 560.0,20.0 L 540.0,0.0 Z" /><path d="M 560.0,140.0 L 540.0,160.0 L 560.0,180.0 L 580.0,160.0 L 560.0,140.0 Z" /><path d="M 560.0,100.0 L 540.0,120.0 L 560.0,140.0 L 580.0,120.0 L 560.0,100.0 Z" /><path d="M 560.0,60.0 L 540.0,80.0 L 560.0,100.0 L 580.0,80.0 L 560.0,60.0 Z" /><path d="M 560.0,20.0 L 540.0,40.0 L 560.0,60.0 L 580.0,40.0 L 560.0,20.0 Z" /><path d="M 580.0,120.0 L 560.0,140.0 L 580.0,160.0 L 600.0,140.0 L 580.0,120.0 Z" /><path d="M 580.0,80.0 L 560.0,100.0 L 580.0,120.0 L 600.0,100.0 L 580.0,80.0 Z" /><path d="M 580.0,40.0 L 560.0,60.0 L 580.0,80.0 L 600.0,60.0 L 580.0,40.0 Z" /><path d="M 580.0,0.0 L 560.0,20.0 L 580.0,40.0 L 600.0,20.0 L 580.0,0.0 Z" /><path d="M 600.0,140.0 L 580.0,160.0 L 600.0,180.0 L 620.0,160.0 L 600.0,140.0 Z" /><path d="M 600.0,100.0 L 580.0,120.0 L 600.0,140.0 L 620.0,120.0 L 600.0,100.0 Z" /><path d="M 600.0,60.0 L 580.0,80.0 L 600.0,100.0 L 620.0,80.0 L 600.0,60.0 Z" /><path d="M 600.0,20.0 L 580.0,40.0 L 600.0,60.0 L 620.0,40.0 L 600.0,20.0 Z" /><path d="M 620.0,120.0 L 600.0,140.0 L 620.0,160.0 L 640.0,140.0 L 620.0,120.0 Z" /><path d="M 620.0,80.0 L 600.0,100.0 L 620.0,120.0 L 640.0,100.0 L 620.0,80.0 Z" /><path d="M 620.0,40.0 L 600.0,60.0 L 620.0,80.0 L 640.0,60.0 L 620.0,40.0 Z" /><path d="M 620.0,0.0 L 600.0,20.0 L 620.0,40.0 L 640.0,20.0 L 620.0,0.0 Z" /><path d="M 640.0,140.0 L 620.0,160.0 L 640.0,180.0 L 660.0,160.0 L 640.0,140.0 Z" /><path d="M 640.0,100.0 L 620.0,120.0 L 640.0,140.0 L 660.0,120.0 L 640.0,100.0 Z" /><path d="M 640.0,60.0 L 620.0,80.0 L 640.0,100.0 L 660.0,80.0 L 640.0,60.0 Z" /><path d="M 640.0,20.0 L 620.0,40.0 L 640.0,60.0 L 660.0,40.0 L 640.0,20.0 Z" /><path d="M 660.0,120.0 L 640.0,140.0 L 660.0,160.0 L 680.0,140.0 L 660.0,120.0 Z" /><path d="M 660.0,80.0 L 640.0,100.0 L 660.0,120.0 L 680.0,100.0 L 660.0,80.0 Z" /><path d="M 660.0,40.0 L 640.0,60.0 L 660.0,80.0 L 680.0,60.0 L 660.0,40.0 Z" /><path d="M 660.0,0.0 L 640.0,20.0 L 660.0,40.0 L 680.0,20.0 L 660.0,0.0 Z" /><path d="M 680.0,140.0 L 660.0,160.0 L 680.0,180.0 L 700.0,160.0 L 680.0,140.0 Z" /><path d="M 680.0,100.0 L 660.0,120.0 L 680.0,140.0 L 700.0,120.0 L 680.0,100.0 Z" /><path d="M 680.0,60.0 L 660.0,80.0 L 680.0,100.0 L 700.0,80.0 L 680.0,60.0 Z" /><path d="M 680.0,20.0 L 660.0,40.0 L 680.0,60.0 L 700.0,40.0 L 680.0,20.0 Z" /><path d="M 700.0,120.0 L 680.0,140.0 L 700.0,160.0 L 720.0,140.0 L 700.0,120.0 Z" /><path d="M 700.0,80.0 L 680.0,100.0 L 700.0,120.0 L 720.0,100.0 L 700.0,80.0 Z" /><path d="M 700.0,40.0 L 680.0,60.0 L 700.0,80.0 L 720.0,60.0 L 700.0,40.0 Z" /><path d="M 700.0,0.0 L 680.0,20.0 L 700.0,40.0 L 720.0,20.0 L 700.0,0.0 Z" /><path d="M 720.0,140.0 L 700.0,160.0 L 720.0,180.0 L 740.0,160.0 L 720.0,140.0 Z" /><path d="M 720.0,100.0 L 700.0,120.0 L 720.0,140.0 L 740.0,120.0 L 720.0,100.0 Z" /><path d="M 720.0,60.0 L 700.0,80.0 L 720.0,100.0 L 740.0,80.0 L 720.0,60.0 Z" /><path d="M 720.0,20.0 L 700.0,40.0 L 720.0,60.0 L 740.0,40.0 L 720.0,20.0 Z" /><path d="M 740.0,120.0 L 720.0,140.0 L 740.0,160.0 L 760.0,140.0 L 740.0,120.0 Z" /><path d="M 740.0,80.0 L 720.0,100.0 L 740.0,120.0 L 760.0,100.0 L 740.0,80.0 Z" /><path d="M 740.0,40.0 L 720.0,60.0 L 740.0,80.0 L 760.0,60.0 L 740.0,40.0 Z" /><path d="M 740.0,0.0 L 720.0,20.0 L 740.0,40.0 L 760.0,20.0 L 740.0,0.0 Z" /><path d="M 760.0,140.0 L 740.0,160.0 L 760.0,180.0 L 780.0,160.0 L 760.0,140.0 Z" /><path d="M 760.0,100.0 L 740.0,120.0 L 760.0,140.0 L 780.0,120.0 L 760.0,100.0 Z" /><path d="M 760.0,60.0 L 740.0,80.0 L 760.0,100.0 L 780.0,80.0 L 760.0,60.0 Z" /><path d="M 760.0,20.0 L 740.0,40.0 L 760.0,60.0 L 780.0,40.0 L 760.0,20.0 Z" /><path d="M 780.0,120.0 L 760.0,140.0 L 780.0,160.0 L 800.0,140.0 L 780.0,120.0 Z" /><path d="M 780.0,80.0 L 760.0,100.0 L 780.0,120.0 L 800.0,100.0 L 780.0,80.0 Z" /><path d="M 780.0,40.0 L 760.0,60.0 L 780.0,80.0 L 800.0,60.0 L 780.0,40.0 Z" /><path d="M 780.0,0.0 L 760.0,20.0 L 780.0,40.0 L 800.0,20.0 L 780.0,0.0 Z" /><path d="M 800.0,140.0 L 780.0,160.0 L 800.0,180.0 L 820.0,160.0 L 800.0,140.0 Z" /><path d="M 800.0,100.0 L 780.0,120.0 L 800.0,140.0 L 820.0,120.0 L 800.0,100.0 Z" /><path d="M 800.0,60.0 L 780.0,80.0 L 800.0,100.0 L 820.0,80.0 L 800.0,60.0 Z" /><path d="M 800.0,20.0 L 780.0,40.0 L 800.0,60.0 L 820.0,40.0 L 800.0,20.0 Z" /><path d="M 820.0,120.0 L 800.0,140.0 L 820.0,160.0 L 840.0,140.0 L 820.0,120.0 Z" /><path d="M 820.0,80.0 L 800.0,100.0 L 820.0,120.0 L 840.0,100.0 L 820.0,80.0 Z" /><path d="M 820.0,40.0 L 800.0,60.0 L 820.0,80.0 L 840.0,60.0 L 820.0,40.0 Z" /><path d="M 820.0,0.0 L 800.0,20.0 L 820.0,40.0 L 840.0,20.0 L 820.0,0.0 Z" /><path d="M 840.0,140.0 L 820.0,160.0 L 840.0,180.0 L 860.0,160.0 L 840.0,140.0 Z" /><path d="M 840.0,100.0 L 820.0,120.0 L 840.0,140.0 L 860.0,120.0 L 840.0,100.0 Z" /><path d="M 840.0,60.0 L 820.0,80.0 L 840.0,100.0 L 860.0,80.0 L 840.0,60.0 Z" /><path d="M 840.0,20.0 L 820.0,40.0 L 840.0,60.0 L 860.0,40.0 L 840.0,20.0 Z" /><path d="M 860.0,120.0 L 840.0,140.0 L 860.0,160.0 L 880.0,140.0 L 860.0,120.0 Z" /><path d="M 860.0,80.0 L 840.0,100.0 L 860.0,120.0 L 880.0,100.0 L 860.0,80.0 Z" /><path d="M 860.0,40.0 L 840.0,60.0 L 860.0,80.0 L 880.0,60.0 L 860.0,40.0 Z" /><path d="M 860.0,0.0 L 840.0,20.0 L 860.0,40.0 L 880.0,20.0 L 860.0,0.0 Z" /><path d="M 880.0,140.0 L 860.0,160.0 L 880.0,180.0 L 900.0,160.0 L 880.0,140.0 Z" /><path d="M 880.0,100.0 L 860.0,120.0 L 880.0,140.0 L 900.0,120.0 L 880.0,100.0 Z" /><path d="M 880.0,60.0 L 860.0,80.0 L 880.0,100.0 L 900.0,80.0 L 880.0,60.0 Z" /><path d="M 880.0,20.0 L 860.0,40.0 L 880.0,60.0 L 900.0,40.0 L 880.0,20.0 Z" /><path d="M 900.0,120.0 L 880.0,140.0 L 900.0,160.0 L 920.0,140.0 L 900.0,120.0 Z" /><path d="M 900.0,80.0 L 880.0,100.0 L 900.0,120.0 L 920.0,100.0 L 900.0,80.0 Z" /><path d="M 900.0,40.0 L 880.0,60.0 L 900.0,80.0 L 920.0,60.0 L 900.0,40.0 Z" /><path d="M 900.0,0.0 L 880.0,20.0 L 900.0,40.0 L 920.0,20.0 L 900.0,0.0 Z" /><path d="M 920.0,140.0 L 900.0,160.0 L 920.0,180.0 L 940.0,160.0 L 920.0,140.0 Z" /><path d="M 920.0,100.0 L 900.0,120.0 L 920.0,140.0 L 940.0,120.0 L 920.0,100.0 Z" /><path d="M 920.0,60.0 L 900.0,80.0 L 920.0,100.0 L 940.0,80.0 L 920.0,60.0 Z" /><path d="M 920.0,20.0 L 900.0,40.0 L 920.0,60.0 L 940.0,40.0 L 920.0,20.0 Z" /><path d="M 940.0,120.0 L 920.0,140.0 L 940.0,160.0 L 960.0,140.0 L 940.0,120.0 Z" /><path d="M 940.0,80.0 L 920.0,100.0 L 940.0,120.0 L 960.0,100.0 L 940.0,80.0 Z" /><path d="M 940.0,40.0 L 920.0,60.0 L 940.0,80.0 L 960.0,60.0 L 940.0,40.0 Z" /><path d="M 940.0,0.0 L 920.0,20.0 L 940.0,40.0 L 960.0,20.0 L 940.0,0.0 Z" /><path d="M 960.0,140.0 L 940.0,160.0 L 960.0,180.0 L 980.0,160.0 L 960.0,140.0 Z" /><path d="M 960.0,100.0 L 940.0,120.0 L 960.0,140.0 L 980.0,120.0 L 960.0,100.0 Z" /><path d="M 960.0,60.0 L 940.0,80.0 L 960.0,100.0 L 980.0,80.0 L 960.0,60.0 Z" /><path d="M 960.0,20.0 L 940.0,40.0 L 960.0,60.0 L 980.0,40.0 L 960.0,20.0 Z" /><path d="M 980.0,120.0 L 960.0,140.0 L 980.0,160.0 L 1000.0,140.0 L 980.0,120.0 Z" /><path d="M 980.0,80.0 L 960.0,100.0 L 980.0,120.0 L 1000.0,100.0 L 980.0,80.0 Z" /><path d="M 980.0,40.0 L 960.0,60.0 L 980.0,80.0 L 1000.0,60.0 L 980.0,40.0 Z" /><path d="M 980.0,0.0 L 960.0,20.0 L 980.0,40.0 L 1000.0,20.0 L 980.0,0.0 Z" /><path d="M 1000.0,140.0 L 980.0,160.0 L 1000.0,180.0 L 1020.0,160.0 L 1000.0,140.0 Z" /><path d="M 1000.0,100.0 L 980.0,120.0 L 1000.0,140.0 L 1020.0,120.0 L 1000.0,100.0 Z" /><path d="M 1000.0,60.0 L 980.0,80.0 L 1000.0,100.0 L 1020.0,80.0 L 1000.0,60.0 Z" /><path d="M 1000.0,20.0 L 980.0,40.0 L 1000.0,60.0 L 1020.0,40.0 L 1000.0,20.0 Z" /><path d="M 1020.0,120.0 L 1000.0,140.0 L 1020.0,160.0 L 1040.0,140.0 L 1020.0,120.0 Z" /><path d="M 1020.0,80.0 L 1000.0,100.0 L 1020.0,120.0 L 1040.0,100.0 L 1020.0,80.0 Z" /><path d="M 1020.0,40.0 L 1000.0,60.0 L 1020.0,80.0 L 1040.0,60.0 L 1020.0,40.0 Z" /><path d="M 1020.0,0.0 L 1000.0,20.0 L 1020.0,40.0 L 1040.0,20.0 L 1020.0,0.0 Z" /><path d="M 1040.0,140.0 L 1020.0,160.0 L 1040.0,180.0 L 1060.0,160.0 L 1040.0,140.0 Z" /><path d="M 1040.0,100.0 L 1020.0,120.0 L 1040.0,140.0 L 1060.0,120.0 L 1040.0,100.0 Z" /><path d="M 1040.0,60.0 L 1020.0,80.0 L 1040.0,100.0 L 1060.0,80.0 L 1040.0,60.0 Z" /><path d="M 1040.0,20.0 L 1020.0,40.0 L 1040.0,60.0 L 1060.0,40.0 L 1040.0,20.0 Z" /></g></svg>