  0
SECTION
  2
HEADER
  9
$ACADVER
  1
AC1014
  9
$HANDSEED
  5
FFFF
  9
$INSUNITS
 70
     4
  9
$MEASUREMENT
 70
     1
  0
ENDSEC
  0
SECTION
  2
TABLES
  0
TABLE
  2
VPORT
  5
8
330
0
100
AcDbSymbolTable
 70
     4
  0
VPORT
  5
2E
330
8
100
AcDbSymbolTableRecord
100
AcDbViewportTableRecord
  2
*ACTIVE
 70
     0
 10
0.0
 20
0.0
 11
1.0
 21
1.0
 12
210.0
 22
148.5
 13
0.0
 23
0.0
 14
10.0
 24
10.0
 15
10.0
 25
10.0
 16
0.0
 26
0.0
 36
1.0
 17
0.0
 27
0.0
 37
0.0
 40
341.0
 41
1.24
 42
50.0
 43
0.0
 44
0.0
 50
0.0
 51
0.0
 71
     0
 72
   100
 73
     1
 74
     3
 75
     0
 76
     0
 77
     0
 78
     0
  0
ENDTAB
  0
TABLE
  2
LTYPE
  5
5
330
0
100
AcDbSymbolTable
 70
     1
  0
LTYPE
  5
14
330
5
100
AcDbSymbolTableRecord
100
AcDbLinetypeTableRecord
  2
BYBLOCK
 70
     0
  3

 72
    65
 73
     0
 40
0.0
  0
LTYPE
  5
15
330
5
100
AcDbSymbolTableRecord
100
AcDbLinetypeTableRecord
  2
BYLAYER
 70
     0
  3

 72
    65
 73
     0
 40
0.0
  0
LTYPE
  5
16
330
5
100
AcDbSymbolTableRecord
100
AcDbLinetypeTableRecord
  2
CONTINUOUS
 70
     0
  3
Solid line
 72
    65
 73
     0
 40
0.0
  0
ENDTAB
  0
TABLE
  2
LAYER
  5
2
100
AcDbSymbolTable
 70
1
  0
LAYER
  5
50
100
AcDbSymbolTableRecord
100
AcDbLayerTableRecord
  2
0
 70
0
  6
CONTINUOUS
  0
ENDTAB
  0
TABLE
  2
STYLE
  5
3
330
0
100
AcDbSymbolTable
 70
     1
  0
STYLE
  5
11
330
3
100
AcDbSymbolTableRecord
100
AcDbTextStyleTableRecord
  2
STANDARD
 70
     0
 40
0.0
 41
1.0
 50
0.0
 71
     0
 42
2.5
  3
txt
  4

  0
ENDTAB
  0
TABLE
  2
VIEW
  5
6
330
0
100
AcDbSymbolTable
 70
     0
  0
ENDTAB
  0
TABLE
  2
UCS
  5
7
330
0
100
AcDbSymbolTable
 70
     0
  0
ENDTAB
  0
TABLE
  2
APPID
  5
9
330
0
100
AcDbSymbolTable
 70
     2
  0
APPID
  5
12
330
9
100
AcDbSymbolTableRecord
100
AcDbRegAppTableRecord
  2
ACAD
 70
     0
  0
ENDTAB
  0
TABLE
  2
DIMSTYLE
  5
A
330
0
100
AcDbSymbolTable
 70
     1
  0
DIMSTYLE
105
27
330
A
100
AcDbSymbolTableRecord
100
AcDbDimStyleTableRecord
  2
ISO-25
 70
     0
  3

  4

  5

  6

  7

 40
1.0
 41
2.5
 42
0.625
 43
3.75
 44
1.25
 45
0.0
 46
0.0
 47
0.0
 48
0.0
140
2.5
141
2.5
142
0.0
143
0.03937007874016
144
1.0
145
0.0
146
1.0
147
0.625
 71
     0
 72
     0
 73
     0
 74
     0
 75
     0
 76
     0
 77
     1
 78
     8
170
     0
171
     3
172
     1
173
     0
174
     0
175
     0
176
     0
177
     0
178
     0
270
     2
271
     2
272
     2
273
     2
274
     3
340
11
275
     0
280
     0
281
     0
282
     0
283
     0
284
     8
285
     0
286
     0
287
     3
288
     0
  0
ENDTAB
  0
TABLE
  2
BLOCK_RECORD
  5
1
330
0
100
AcDbSymbolTable
 70
     1
  0
BLOCK_RECORD
  5
1F
330
1
100
AcDbSymbolTableRecord
100
AcDbBlockTableRecord
  2
*MODEL_SPACE
  0
BLOCK_RECORD
  5
1B
330
1
100
AcDbSymbolTableRecord
100
AcDbBlockTableRecord
  2
*PAPER_SPACE
  0
ENDTAB
  0
ENDSEC
  0
SECTION
  2
BLOCKS
  0
BLOCK
  5
20
330
1F
100
AcDbEntity
  8
0
100
AcDbBlockBegin
  2
*MODEL_SPACE
 70
     0
 10
0.0
 20
0.0
 30
0.0
  3
*MODEL_SPACE
  1

  0
ENDBLK
  5
21
330
1F
100
AcDbEntity
  8
0
100
AcDbBlockEnd
  0
BLOCK
  5
1C
330
1B
100
AcDbEntity
 67
     1
  8
0
100
AcDbBlockBegin
  2
*PAPER_SPACE
  1

  0
ENDBLK
  5
1D
330
1B
100
AcDbEntity
 67
     1
  8
0
100
AcDbBlockEnd
  0
ENDSEC
  0
SECTION
  2
ENTITIES
  0
LWPOLYLINE
  5
100
100
AcDbEntity
  8
0
 62
7
100
AcDbPolyline
 90
5
 70
1
 10
180.000000
 20
133.333095
 30
0.0
 10
199.333095
 20
114.000000
 30
0.0
 10
180.000000
 20
94.666905
 30
0.0
 10
160.666905
 20
114.000000
 30
0.0
 10
180.000000
 20
133.333095
 30
0.0
  0
LWPOLYLINE
  5
101
100
AcDbEntity
  8
0
 62
7
100
AcDbPolyline
 90
5
 70
1
 10
180.000000
 20
181.333095
 30
0.0
 10
199.333095
 20
162.000000
 30
0.0
 10
180.000000
 20
142.666905
 30
0.0
 10
160.666905
 20
162.000000
 30
0.0
 10
180.000000
 20
181.333095
 30
0.0
  0
LWPOLYLINE
  5
102
100
AcDbEntity
  8
0
 62
7
100
AcDbPolyline
 90
5
 70
1
 10
204.000000
 20
157.333095
 30
0.0
 10
223.333095
 20
138.000000
 30
0.0
 10
204.000000
 20
118.666905
 30
0.0
 10
184.666905
 20
138.000000
 30
0.0
 10
204.000000
 20
157.333095
 30
0.0
  0
LWPOLYLINE
  5
103
100
AcDbEntity
  8
0
 62
7
100
AcDbPolyline
 90
5
 70
1
 10
204.000000
 20
205.333095
 30
0.0
 10
223.333095
 20
186.000000
 30
0.0
 10
204.000000
 20
166.666905
 30
0.0
 10
184.666905
 20
186.000000
 30
0.0
 10
204.000000
 20
205.333095
 30
0.0
  0
LWPOLYLINE
  5
104
100
AcDbEntity
  8
0
 62
7
100
AcDbPolyline
 90
5
 70
1
 10
228.000000
 20
133.333095
 30
0.0
 10
247.333095
 20
114.000000
 30
0.0
 10
228.000000
 20
94.666905
 30
0.0
 10
208.666905
 20
114.000000
 30
0.0
 10
228.000000
 20
133.333095
 30
0.0
  0
LWPOLYLINE
  5
105
100
AcDbEntity
  8
0
 62
7
100
AcDbPolyline
 90
5
 70
1
 10
228.000000
 20
181.333095
 30
0.0
 10
247.333095
 20
162.000000
 30
0.0
 10
228.000000
 20
142.666905
 30
0.0
 10
208.666905
 20
162.000000
 30
0.0
 10
228.000000
 20
181.333095
 30
0.0
  0
LWPOLYLINE
  5
106
100
AcDbEntity
  8
0
 62
7
100
AcDbPolyline
 90
5
 70
1
 10
252.000000
 20
157.333095
 30
0.0
 10
271.333095
 20
138.000000
 30
0.0
 10
252.000000
 20
118.666905
 30
0.0
 10
232.666905
 20
138.000000
 30
0.0
 10
252.000000
 20
157.333095
 30
0.0
  0
LWPOLYLINE
  5
107
100
AcDbEntity
  8
0
 62
7
100
AcDbPolyline
 90
5
 70
1
 10
252.000000
 20
205.333095
 30
0.0
 10
271.333095
 20
186.000000
 30
0.0
 10
252.000000
 20
166.666905
 30
0.0
 10
232.666905
 20
186.000000
 30
0.0
 10
252.000000
 20
205.333095
 30
0.0
  0
LWPOLYLINE
  5
108
100
AcDbEntity
  8
0
 62
7
100
AcDbPolyline
 90
5
 70
1
 10
276.000000
 20
133.333095
 30
0.0
 10
295.333095
 20
114.000000
 30
0.0
 10
276.000000
 20
94.666905
 30
0.0
 10
256.666905
 20
114.000000
 30
0.0
 10
276.000000
 20
133.333095
 30
0.0
  0
LWPOLYLINE
  5
109
100
AcDbEntity
  8
0
 62
7
100
AcDbPolyline
 90
5
 70
1
 10
276.000000
 20
181.333095
 30
0.0
 10
295.333095
 20
162.000000
 30
0.0
 10
276.000000
 20
142.666905
 30
0.0
 10
256.666905
 20
162.000000
 30
0.0
 10
276.000000
 20
181.333095
 30
0.0
  0
LWPOLYLINE
  5
10a
100
AcDbEntity
  8
0
 62
7
100
AcDbPolyline
 90
5
 70
1
 10
300.000000
 20
157.333095
 30
0.0
 10
319.333095
 20
138.000000
 30
0.0
 10
300.000000
 20
118.666905
 30
0.0
 10
280.666905
 20
138.000000
 30
0.0
 10
300.000000
 20
157.333095
 30
0.0
  0
LWPOLYLINE
  5
10b
100
AcDbEntity
  8
0
 62
7
100
AcDbPolyline
 90
5
 70
1
 10
300.000000
 20
205.333095
 30
0.0
 10
319.333095
 20
186.000000
 30
0.0
 10
300.000000
 20
166.666905
 30
0.0
 10
280.666905
 20
186.000000
 30
0.0
 10
300.000000
 20
205.333095
 30
0.0
  0
LWPOLYLINE
  5
10c
100
AcDbEntity
  8
0
 62
7
100
AcDbPolyline
 90
5
 70
1
 10
324.000000
 20
133.333095
 30
0.0
 10
343.333095
 20
114.000000
 30
0.0
 10
324.000000
 20
94.666905
 30
0.0
 10
304.666905
 20
114.000000
 30
0.0
 10
324.000000
 20
133.333095
 30
0.0
  0
LWPOLYLINE
  5
10d
100
AcDbEntity
  8
0
 62
7
100
AcDbPolyline
 90
5
 70
1
 10
324.000000
 20
181.333095
 30
0.0
 10
343.333095
 20
162.000000
 30
0.0
 10
324.000000
 20
142.666905
 30
0.0
 10
304.666905
 20
162.000000
 30
0.0
 10
324.000000
 20
181.333095
 30
0.0
  0
LWPOLYLINE
  5
10e
100
AcDbEntity
  8
0
 62
7
100
AcDbPolyline
 90
5
 70
1
 10
348.000000
 20
157.333095
 30
0.0
 10
367.333095
 20
138.000000
 30
0.0
 10
348.000000
 20
118.666905
 30
0.0
 10
328.666905
 20
138.000000
 30
0.0
 10
348.000000
 20
157.333095
 30
0.0
  0
LWPOLYLINE
  5
10f
100
AcDbEntity
  8
0
 62
7
100
AcDbPolyline
 90
5
 70
1
 10
348.000000
 20
205.333095
 30
0.0
 10
367.333095
 20
186.000000
 30
0.0
 10
348.000000
 20
166.666905
 30
0.0
 10
328.666905
 20
186.000000
 30
0.0
 10
348.000000
 20
205.333095
 30
0.0
  0
LWPOLYLINE
  5
110
100
AcDbEntity
  8
0
 62
7
100
AcDbPolyline
 90
5
 70
1
 10
372.000000
 20
133.333095
 30
0.0
 10
391.333095
 20
114.000000
 30
0.0
 10
372.000000
 20
94.666905
 30
0.0
 10
352.666905
 20
114.000000
 30
0.0
 10
372.000000
 20
133.333095
 30
0.0
  0
LWPOLYLINE
  5
111
100
AcDbEntity
  8
0
 62
7
100
AcDbPolyline
 90
5
 70
1
 10
372.000000
 20
181.333095
 30
0.0
 10
391.333095
 20
162.000000
 30
0.0
 10
372.000000
 20
142.666905
 30
0.0
 10
352.666905
 20
162.000000
 30
0.0
 10
372.000000
 20
181.333095
 30
0.0
  0
LWPOLYLINE
  5
112
100
AcDbEntity
  8
0
 62
7
100
AcDbPolyline
 90
5
 70
1
 10
396.000000
 20
157.333095
 30
0.0
 10
415.333095
 20
138.000000
 30
0.0
 10
396.000000
 20
118.666905
 30
0.0
 10
376.666905
 20
138.000000
 30
0.0
 10
396.000000
 20
157.333095
 30
0.0
  0
LWPOLYLINE
  5
113
100
AcDbEntity
  8
0
 62
7
100
AcDbPolyline
 90
5
 70
1
 10
396.000000
 20
205.333095
 30
0.0
 10
415.333095
 20
186.000000
 30
0.0
 10
396.000000
 20
166.666905
 30
0.0
 10
376.666905
 20
186.000000
 30
0.0
 10
396.000000
 20
205.333095
 30
0.0
  0
LWPOLYLINE
  5
114
100
AcDbEntity
  8
0
 62
7
100
AcDbPolyline
 90
5
 70
1
 10
420.000000
 20
133.333095
 30
0.0
 10
439.333095
 20
114.000000
 30
0.0
 10
420.000000
 20
94.666905
 30
0.0
 10
400.666905
 20
114.000000
 30
0.0
 10
420.000000
 20
133.333095
 30
0.0
  0
LWPOLYLINE
  5
115
100
AcDbEntity
  8
0
 62
7
100
AcDbPolyline
 90
5
 70
1
 10
420.000000
 20
181.333095
 30
0.0
 10
439.333095
 20
162.000000
 30
0.0
 10
420.000000
 20
142.666905
 30
0.0
 10
400.666905
 20
162.000000
 30
0.0
 10
420.000000
 20
181.333095
 30
0.0
  0
LWPOLYLINE
  5
116
100
AcDbEntity
  8
0
 62
7
100
AcDbPolyline
 90
5
 70
1
 10
444.000000
 20
157.333095
 30
0.0
 10
463.333095
 20
138.000000
 30
0.0
 10
444.000000
 20
118.666905
 30
0.0
 10
424.666905
 20
138.000000
 30
0.0
 10
444.000000
 20
157.333095
 30
0.0
  0
LWPOLYLINE
  5
117
100
AcDbEntity
  8
0
 62
7
100
AcDbPolyline
 90
5
 70
1
 10
444.000000
 20
205.333095
 30
0.0
 10
463.333095
 20
186.000000
 30
0.0
 10
444.000000
 20
166.666905
 30
0.0
 10
424.666905
 20
186.000000
 30
0.0
 10
444.000000
 20
205.333095
 30
0.0
  0
LWPOLYLINE
  5
118
100
AcDbEntity
  8
0
 62
7
100
AcDbPolyline
 90
5
 70
1
 10
468.000000
 20
133.333095
 30
0.0
 10
487.333095
 20
114.000000
 30
0.0
 10
468.000000
 20
94.666905
 30
0.0
 10
448.666905
 20
114.000000
 30
0.0
 10
468.000000
 20
133.333095
 30
0.0
  0
LWPOLYLINE
  5
119
100
AcDbEntity
  8
0
 62
7
100
AcDbPolyline
 90
5
 70
1
 10
468.000000
 20
181.333095
 30
0.0
 10
487.333095
 20
162.000000
 30
0.0
 10
468.000000
 20
142.666905
 30
0.0
 10
448.666905
 20
162.000000
 30
0.0
 10
468.000000
 20
181.333095
 30
0.0
  0
LWPOLYLINE
  5
11a
100
AcDbEntity
  8
0
 62
7
100
AcDbPolyline
 90
5
 70
1
 10
492.000000
 20
157.333095
 30
0.0
 10
511.333095
 20
138.000000
 30
0.0
 10
492.000000
 20
118.666905
 30
0.0
 10
472.666905
 20
138.000000
 30
0.0
 10
492.000000
 20
157.333095
 30
0.0
  0
LWPOLYLINE
  5
11b
100
AcDbEntity
  8
0
 62
7
100
AcDbPolyline
 90
5
 70
1
 10
492.000000
 20
205.333095
 30
0.0
 10
511.333095
 20
186.000000
 30
0.0
 10
492.000000
 20
166.666905
 30
0.0
 10
472.666905
 20
186.000000
 30
0.0
 10
492.000000
 20
205.333095
 30
0.0
  0
LWPOLYLINE
  5
11c
100
AcDbEntity
  8
0
 62
7
100
AcDbPolyline
 90
5
 70
1
 10
516.000000
 20
133.333095
 30
0.0
 10
535.333095
 20
114.000000
 30
0.0
 10
516.000000
 20
94.666905
 30
0.0
 10
496.666905
 20
114.000000
 30
0.0
 10
516.000000
 20
133.333095
 30
0.0
  0
LWPOLYLINE
  5
11d
100
AcDbEntity
  8
0
 62
7
100
AcDbPolyline
 90
5
 70
1
 10
516.000000
 20
181.333095
 30
0.0
 10
535.333095
 20
162.000000
 30
0.0
 10
516.000000
 20
142.666905
 30
0.0
 10
496.666905
 20
162.000000
 30
0.0
 10
516.000000
 20
181.333095
 30
0.0
  0
LWPOLYLINE
  5
11e
100
AcDbEntity
  8
0
 62
7
100
AcDbPolyline
 90
5
 70
1
 10
540.000000
 20
157.333095
 30
0.0
 10
559.333095
 20
138.000000
 30
0.0
 10
540.000000
 20
118.666905
 30
0.0
 10
520.666905
 20
138.000000
 30
0.0
 10
540.000000
 20
157.333095
 30
0.0
  0
LWPOLYLINE
  5
11f
100
AcDbEntity
  8
0
 62
7
100
AcDbPolyline
 90
5
 70
1
 10
540.000000
 20
205.333095
 30
0.0
 10
559.333095
 20
186.000000
 30
0.0
 10
540.000000
 20
166.666905
 30
0.0
 10
520.666905
 20
186.000000
 30
0.0
 10
540.000000
 20
205.333095
 30
0.0
  0
LWPOLYLINE
  5
120
100
AcDbEntity
  8
0
 62
7
100
AcDbPolyline
 90
5
 70
1
 10
564.000000
 20
133.333095
 30
0.0
 10
583.333095
 20
114.000000
 30
0.0
 10
564.000000
 20
94.666905
 30
0.0
 10
544.666905
 20
114.000000
 30
0.0
 10
564.000000
 20
133.333095
 30
0.0
  0
LWPOLYLINE
  5
121
100
AcDbEntity
  8
0
 62
7
100
AcDbPolyline
 90
5
 70
1
 10
564.000000
 20
181.333095
 30
0.0
 10
583.333095
 20
162.000000
 30
0.0
 10
564.000000
 20
142.666905
 30
0.0
 10
544.666905
 20
162.000000
 30
0.0
 10
564.000000
 20
181.333095
 30
0.0
  0
LWPOLYLINE
  5
122
100
AcDbEntity
  8
0
 62
7
100
AcDbPolyline
 90
5
 70
1
 10
588.000000
 20
157.333095
 30
0.0
 10
607.333095
 20
138.000000
 30
0.0
 10
588.000000
 20
118.666905
 30
0.0
 10
568.666905
 20
138.000000
 30
0.0
 10
588.000000
 20
157.333095
 30
0.0
  0
LWPOLYLINE
  5
123
100
AcDbEntity
  8
0
 62
7
100
AcDbPolyline
 90
5
 70
1
 10
588.000000
 20
205.333095
 30
0.0
 10
607.333095
 20
186.000000
 30
0.0
 10
588.000000
 20
166.666905
 30
0.0
 10
568.666905
 20
186.000000
 30
0.0
 10
588.000000
 20
205.333095
 30
0.0
  0
LWPOLYLINE
  5
124
100
AcDbEntity
  8
0
 62
7
100
AcDbPolyline
 90
5
 70
1
 10
612.000000
 20
133.333095
 30
0.0
 10
631.333095
 20
114.000000
 30
0.0
 10
612.000000
 20
94.666905
 30
0.0
 10
592.666905
 20
114.000000
 30
0.0
 10
612.000000
 20
133.333095
 30
0.0
  0
LWPOLYLINE
  5
125
100
AcDbEntity
  8
0
 62
7
100
AcDbPolyline
 90
5
 70
1
 10
612.000000
 20
181.333095
 30
0.0
 10
631.333095
 20
162.000000
 30
0.0
 10
612.000000
 20
142.666905
 30
0.0
 10
592.666905
 20
162.000000
 30
0.0
 10
612.000000
 20
181.333095
 30
0.0
  0
LWPOLYLINE
  5
126
100
AcDbEntity
  8
0
 62
7
100
AcDbPolyline
 90
5
 70
1
 10
636.000000
 20
157.333095
 30
0.0
 10
655.333095
 20
138.000000
 30
0.0
 10
636.000000
 20
118.666905
 30
0.0
 10
616.666905
 20
138.000000
 30
0.0
 10
636.000000
 20
157.333095
 30
0.0
  0
LWPOLYLINE
  5
127
100
AcDbEntity
  8
0
 62
7
100
AcDbPolyline
 90
5
 70
1
 10
636.000000
 20
205.333095
 30
0.0
 10
655.333095
 20
186.000000
 30
0.0
 10
636.000000
 20
166.666905
 30
0.0
 10
616.666905
 20
186.000000
 30
0.0
 10
636.000000
 20
205.333095
 30
0.0
  0
LWPOLYLINE
  5
128
100
AcDbEntity
  8
0
 62
7
100
AcDbPolyline
 90
5
 70
1
 10
660.000000
 20
133.333095
 30
0.0
 10
679.333095
 20
114.000000
 30
0.0
 10
660.000000
 20
94.666905
 30
0.0
 10
640.666905
 20
114.000000
 30
0.0
 10
660.000000
 20
133.333095
 30
0.0
  0
LWPOLYLINE
  5
129
100
AcDbEntity
  8
0
 62
7
100
AcDbPolyline
 90
5
 70
1
 10
660.000000
 20
181.333095
 30
0.0
 10
679.333095
 20
162.000000
 30
0.0
 10
660.000000
 20
142.666905
 30
0.0
 10
640.666905
 20
162.000000
 30
0.0
 10
660.000000
 20
181.333095
 30
0.0
  0
LWPOLYLINE
  5
12a
100
AcDbEntity
  8
0
 62
7
100
AcDbPolyline
 90
5
 70
1
 10
684.000000
 20
157.333095
 30
0.0
 10
703.333095
 20
138.000000
 30
0.0
 10
684.000000
 20
118.666905
 30
0.0
 10
664.666905
 20
138.000000
 30
0.0
 10
684.000000
 20
157.333095
 30
0.0
  0
LWPOLYLINE
  5
12b
100
AcDbEntity
  8
0
 62
7
100
AcDbPolyline
 90
5
 70
1
 10
684.000000
 20
205.333095
 30
0.0
 10
703.333095
 20
186.000000
 30
0.0
 10
684.000000
 20
166.666905
 30
0.0
 10
664.666905
 20
186.000000
 30
0.0
 10
684.000000
 20
205.333095
 30
0.0
  0
LWPOLYLINE
  5
12c
100
AcDbEntity
  8
0
 62
7
100
AcDbPolyline
 90
5
 70
1
 10
708.000000
 20
133.333095
 30
0.0
 10
727.333095
 20
114.000000
 30
0.0
 10
708.000000
 20
94.666905
 30
0.0
 10
688.666905
 20
114.000000
 30
0.0
 10
708.000000
 20
133.333095
 30
0.0
  0
LWPOLYLINE
  5
12d
100
AcDbEntity
  8
0
 62
7
100
AcDbPolyline
 90
5
 70
1
 10
708.000000
 20
181.333095
 30
0.0
 10
727.333095
 20
162.000000
 30
0.0
 10
708.000000
 20
142.666905
 30
0.0
 10
688.666905
 20
162.000000
 30
0.0
 10
708.000000
 20
181.333095
 30
0.0
  0
LWPOLYLINE
  5
12e
100
AcDbEntity
  8
0
 62
7
100
AcDbPolyline
 90
5
 70
1
 10
732.000000
 20
157.333095
 30
0.0
 10
751.333095
 20
138.000000
 30
0.0
 10
732.000000
 20
118.666905
 30
0.0
 10
712.666905
 20
138.000000
 30
0.0
 10
732.000000
 20
157.333095
 30
0.0
  0
LWPOLYLINE
  5
12f
100
AcDbEntity
  8
0
 62
7
100
AcDbPolyline
 90
5
 70
1
 10
732.000000
 20
205.333095
 30
0.0
 10
751.333095
 20
186.000000
 30
0.0
 10
732.000000
 20
166.666905
 30
0.0
 10
712.666905
 20
186.000000
 30
0.0
 10
732.000000
 20
205.333095
 30
0.0
  0
LWPOLYLINE
  5
130
100
AcDbEntity
  8
0
 62
7
100
AcDbPolyline
 90
5
 70
1
 10
756.000000
 20
133.333095
 30
0.0
 10
775.333095
 20
114.000000
 30
0.0
 10
756.000000
 20
94.666905
 30
0.0
 10
736.666905
 20
114.000000
 30
0.0
 10
756.000000
 20
133.333095
 30
0.0
  0
LWPOLYLINE
  5
131
100
AcDbEntity
  8
0
 62
7
100
AcDbPolyline
 90
5
 70
1
 10
756.000000
 20
181.333095
 30
0.0
 10
775.333095
 20
162.000000
 30
0.0
 10
756.000000
 20
142.666905
 30
0.0
 10
736.666905
 20
162.000000
 30
0.0
 10
756.000000
 20
181.333095
 30
0.0
  0
LWPOLYLINE
  5
132
100
AcDbEntity
  8
0
 62
7
100
AcDbPolyline
 90
5
 70
1
 10
780.000000
 20
157.333095
 30
0.0
 10
799.333095
 20
138.000000
 30
0.0
 10
780.000000
 20
118.666905
 30
0.0
 10
760.666905
 20
138.000000
 30
0.0
 10
780.000000
 20
157.333095
 30
0.0
  0
LWPOLYLINE
  5
133
100
AcDbEntity
  8
0
 62
7
100
AcDbPolyline
 90
5
 70
1
 10
780.000000
 20
205.333095
 30
0.0
 10
799.333095
 20
186.000000
 30
0.0
 10
780.000000
 20
166.666905
 30
0.0
 10
760.666905
 20
186.000000
 30
0.0
 10
780.000000
 20
205.333095
 30
0.0
  0
LWPOLYLINE
  5
134
100
AcDbEntity
  8
0
 62
7
100
AcDbPolyline
 90
5
 70
1
 10
804.000000
 20
133.333095
 30
0.0
 10
823.333095
 20
114.000000
 30
0.0
 10
804.000000
 20
94.666905
 30
0.0
 10
784.666905
 20
114.000000
 30
0.0
 10
804.000000
 20
133.333095
 30
0.0
  0
LWPOLYLINE
  5
135
100
AcDbEntity
  8
0
 62
7
100
AcDbPolyline
 90
5
 70
1
 10
804.000000
 20
181.333095
 30
0.0
 10
823.333095
 20
162.000000
 30
0.0
 10
804.000000
 20
142.666905
 30
0.0
 10
784.666905
 20
162.000000
 30
0.0
 10
804.000000
 20
181.333095
 30
0.0
  0
LWPOLYLINE
  5
136
100
AcDbEntity
  8
0
 62
7
100
AcDbPolyline
 90
5
 70
1
 10
828.000000
 20
157.333095
 30
0.0
 10
847.333095
 20
138.000000
 30
0.0
 10
828.000000
 20
118.666905
 30
0.0
 10
808.666905
 20
138.000000
 30
0.0
 10
828.000000
 20
157.333095
 30
0.0
  0
LWPOLYLINE
  5
137
100
AcDbEntity
  8
0
 62
7
100
AcDbPolyline
 90
5
 70
1
 10
828.000000
 20
205.333095
 30
0.0
 10
847.333095
 20
186.000000
 30
0.0
 10
828.000000
 20
166.666905
 30
0.0
 10
808.666905
 20
186.000000
 30
0.0
 10
828.000000
 20
205.333095
 30
0.0
  0
LWPOLYLINE
  5
138
100
AcDbEntity
  8
0
 62
7
100
AcDbPolyline
 90
5
 70
1
 10
852.000000
 20
133.333095
 30
0.0
 10
871.333095
 20
114.000000
 30
0.0
 10
852.000000
 20
94.666905
 30
0.0
 10
832.666905
 20
114.000000
 30
0.0
 10
852.000000
 20
133.333095
 30
0.0
  0
LWPOLYLINE
  5
139
100
AcDbEntity
  8
0
 62
7
100
AcDbPolyline
 90
5
 70
1
 10
852.000000
 20
181.333095
 30
0.0
 10
871.333095
 20
162.000000
 30
0.0
 10
852.000000
 20
142.666905
 30
0.0
 10
832.666905
 20
162.000000
 30
0.0
 10
852.000000
 20
181.333095
 30
0.0
  0
LWPOLYLINE
  5
13a
100
AcDbEntity
  8
0
 62
7
100
AcDbPolyline
 90
5
 70
1
 10
876.000000
 20
157.333095
 30
0.0
 10
895.333095
 20
138.000000
 30
0.0
 10
876.000000
 20
118.666905
 30
0.0
 10
856.666905
 20
138.000000
 30
0.0
 10
876.000000
 20
157.333095
 30
0.0
  0
LWPOLYLINE
  5
13b
100
AcDbEntity
  8
0
 62
7
100
AcDbPolyline
 90
5
 70
1
 10
876.000000
 20
205.333095
 30
0.0
 10
895.333095
 20
186.000000
 30
0.0
 10
876.000000
 20
166.666905
 30
0.0
 10
856.666905
 20
186.000000
 30
0.0
 10
876.000000
 20
205.333095
 30
0.0
  0
LWPOLYLINE
  5
13c
100
AcDbEntity
  8
0
 62
7
100
AcDbPolyline
 90
5
 70
1
 10
900.000000
 20
133.333095
 30
0.0
 10
919.333095
 20
114.000000
 30
0.0
 10
900.000000
 20
94.666905
 30
0.0
 10
880.666905
 20
114.000000
 30
0.0
 10
900.000000
 20
133.333095
 30
0.0
  0
LWPOLYLINE
  5
13d
100
AcDbEntity
  8
0
 62
7
100
AcDbPolyline
 90
5
 70
1
 10
900.000000
 20
181.333095
 30
0.0
 10
919.333095
 20
162.000000
 30
0.0
 10
900.000000
 20
142.666905
 30
0.0
 10
880.666905
 20
162.000000
 30
0.0
 10
900.000000
 20
181.333095
 30
0.0
  0
LWPOLYLINE
  5
13e
100
AcDbEntity
  8
0
 62
7
100
AcDbPolyline
 90
5
 70
1
 10
924.000000
 20
157.333095
 30
0.0
 10
943.333095
 20
138.000000
 30
0.0
 10
924.000000
 20
118.666905
 30
0.0
 10
904.666905
 20
138.000000
 30
0.0
 10
924.000000
 20
157.333095
 30
0.0
  0
LWPOLYLINE
  5
13f
100
AcDbEntity
  8
0
 62
7
100
AcDbPolyline
 90
5
 70
1
 10
924.000000
 20
205.333095
 30
0.0
 10
943.333095
 20
186.000000
 30
0.0
 10
924.000000
 20
166.666905
 30
0.0
 10
904.666905
 20
186.000000
 30
0.0
 10
924.000000
 20
205.333095
 30
0.0
  0
LWPOLYLINE
  5
140
100
AcDbEntity
  8
0
 62
7
100
AcDbPolyline
 90
5
 70
1
 10
948.000000
 20
133.333095
 30
0.0
 10
967.333095
 20
114.000000
 30
0.0
 10
948.000000
 20
94.666905
 30
0.0
 10
928.666905
 20
114.000000
 30
0.0
 10
948.000000
 20
133.333095
 30
0.0
  0
LWPOLYLINE
  5
141
100
AcDbEntity
  8
0
 62
7
100
AcDbPolyline
 90
5
 70
1
 10
948.000000
 20
181.333095
 30
0.0
 10
967.333095
 20
162.000000
 30
0.0
 10
948.000000
 20
142.666905
 30
0.0
 10
928.666905
 20
162.000000
 30
0.0
 10
948.000000
 20
181.333095
 30
0.0
  0
LWPOLYLINE
  5
142
100
AcDbEntity
  8
0
 62
7
100
AcDbPolyline
 90
5
 70
1
 10
972.000000
 20
157.333095
 30
0.0
 10
991.333095
 20
138.000000
 30
0.0
 10
972.000000
 20
118.666905
 30
0.0
 10
952.666905
 20
138.000000
 30
0.0
 10
972.000000
 20
157.333095
 30
0.0
  0
LWPOLYLINE
  5
143
100
AcDbEntity
  8
0
 62
7
100
AcDbPolyline
 90
5
 70
1
 10
972.000000
 20
205.333095
 30
0.0
 10
991.333095
 20
186.000000
 30
0.0
 10
972.000000
 20
166.666905
 30
0.0
 10
952.666905
 20
186.000000
 30
0.0
 10
972.000000
 20
205.333095
 30
0.0
  0
LWPOLYLINE
  5
144
100
AcDbEntity
  8
0
 62
7
100
AcDbPolyline
 90
5
 70
1
 10
996.000000
 20
133.333095
 30
0.0
 10
1015.333095
 20
114.000000
 30
0.0
 10
996.000000
 20
94.666905
 30
0.0
 10
976.666905
 20
114.000000
 30
0.0
 10
996.000000
 20
133.333095
 30
0.0
  0
LWPOLYLINE
  5
145
100
AcDbEntity
  8
0
 62
7
100
AcDbPolyline
 90
5
 70
1
 10
996.000000
 20
181.333095
 30
0.0
 10
1015.333095
 20
162.000000
 30
0.0
 10
996.000000
 20
142.666905
 30
0.0
 10
976.666905
 20
162.000000
 30
0.0
 10
996.000000
 20
181.333095
 30
0.0
  0
LWPOLYLINE
  5
146
100
AcDbEntity
  8
0
 62
7
100
AcDbPolyline
 90
5
 70
1
 10
1020.000000
 20
157.333095
 30
0.0
 10
1039.333095
 20
138.000000
 30
0.0
 10
1020.000000
 20
118.666905
 30
0.0
 10
1000.666905
 20
138.000000
 30
0.0
 10
1020.000000
 20
157.333095
 30
0.0
  0
LWPOLYLINE
  5
147
100
AcDbEntity
  8
0
 62
7
100
AcDbPolyline
 90
5
 70
1
 10
1020.000000
 20
205.333095
 30
0.0
 10
1039.333095
 20
186.000000
 30
0.0
 10
1020.000000
 20
166.666905
 30
0.0
 10
1000.666905
 20
186.000000
 30
0.0
 10
1020.000000
 20
205.333095
 30
0.0
  0
LWPOLYLINE
  5
148
100
AcDbEntity
  8
0
 62
7
100
AcDbPolyline
 90
6
 70
1
 10
1044.000000
 20
181.333095
 30
0.0
 10
1046.250000
 20
179.083095
 30
0.0
 10
1046.250000
 20
144.916905
 30
0.0
 10
1044.000000
 20
142.666905
 30
0.0
 10
1024.666905
 20
162.000000
 30
0.0
 10
1044.000000
 20
181.333095
 30
0.0
  0
LWPOLYLINE
  5
149
100
AcDbEntity
  8
0
 62
7
100
AcDbPolyline
 90
6
 70
1
 10
640.916905
 20
210.250000
 30
0.0
 10
679.083095
 20
210.250000
 30
0.0
 10
679.333095
 20
210.000000
 30
0.0
 10
660.000000
 20
190.666905
 30
0.0
 10
640.666905
 20
210.000000
 30
0.0
 10
640.916905
 20
210.250000
 30
0.0
  0
LWPOLYLINE
  5
14a
100
AcDbEntity
  8
0
 62
7
100
AcDbPolyline
 90
6
 70
1
 10
976.916905
 20
210.250000
 30
0.0
 10
1015.083095
 20
210.250000
 30
0.0
 10
1015.333095
 20
210.000000
 30
0.0
 10
996.000000
 20
190.666905
 30
0.0
 10
976.666905
 20
210.000000
 30
0.0
 10
976.916905
 20
210.250000
 30
0.0
  0
LWPOLYLINE
  5
14b
100
AcDbEntity
  8
0
 62
7
100
AcDbPolyline
 90
6
 70
1
 10
568.666905
 20
90.000000
 30
0.0
 10
588.000000
 20
109.333095
 30
0.0
 10
607.333095
 20
90.000000
 30
0.0
 10
607.083095
 20
89.750000
 30
0.0
 10
568.916905
 20
89.750000
 30
0.0
 10
568.666905
 20
90.000000
 30
0.0
  0
LWPOLYLINE
  5
14c
100
AcDbEntity
  8
0
 62
7
100
AcDbPolyline
 90
6
 70
1
 10
328.666905
 20
90.000000
 30
0.0
 10
348.000000
 20
109.333095
 30
0.0
 10
367.333095
 20
90.000000
 30
0.0
 10
367.083095
 20
89.750000
 30
0.0
 10
328.916905
 20
89.750000
 30
0.0
 10
328.666905
 20
90.000000
 30
0.0
  0
LWPOLYLINE
  5
14d
100
AcDbEntity
  8
0
 62
7
100
AcDbPolyline
 90
6
 70
1
 10
376.666905
 20
90.000000
 30
0.0
 10
396.000000
 20
109.333095
 30
0.0
 10
415.333095
 20
90.000000
 30
0.0
 10
415.083095
 20
89.750000
 30
0.0
 10
376.916905
 20
89.750000
 30
0.0
 10
376.666905
 20
90.000000
 30
0.0
  0
LWPOLYLINE
  5
14e
100
AcDbEntity
  8
0
 62
7
100
AcDbPolyline
 90
6
 70
1
 10
856.666905
 20
90.000000
 30
0.0
 10
876.000000
 20
109.333095
 30
0.0
 10
895.333095
 20
90.000000
 30
0.0
 10
895.083095
 20
89.750000
 30
0.0
 10
856.916905
 20
89.750000
 30
0.0
 10
856.666905
 20
90.000000
 30
0.0
  0
LWPOLYLINE
  5
14f
100
AcDbEntity
  8
0
 62
7
100
AcDbPolyline
 90
6
 70
1
 10
664.666905
 20
90.000000
 30
0.0
 10
684.000000
 20
109.333095
 30
0.0
 10
703.333095
 20
90.000000
 30
0.0
 10
703.083095
 20
89.750000
 30
0.0
 10
664.916905
 20
89.750000
 30
0.0
 10
664.666905
 20
90.000000
 30
0.0
  0
LWPOLYLINE
  5
150
100
AcDbEntity
  8
0
 62
7
100
AcDbPolyline
 90
6
 70
1
 10
352.916905
 20
210.250000
 30
0.0
 10
391.083095
 20
210.250000
 30
0.0
 10
391.333095
 20
210.000000
 30
0.0
 10
372.000000
 20
190.666905
 30
0.0
 10
352.666905
 20
210.000000
 30
0.0
 10
352.916905
 20
210.250000
 30
0.0
  0
LWPOLYLINE
  5
151
100
AcDbEntity
  8
0
 62
7
100
AcDbPolyline
 90
6
 70
1
 10
928.916905
 20
210.250000
 30
0.0
 10
967.083095
 20
210.250000
 30
0.0
 10
967.333095
 20
210.000000
 30
0.0
 10
948.000000
 20
190.666905
 30
0.0
 10
928.666905
 20
210.000000
 30
0.0
 10
928.916905
 20
210.250000
 30
0.0
  0
LWPOLYLINE
  5
152
100
AcDbEntity
  8
0
 62
7
100
AcDbPolyline
 90
6
 70
1
 10
784.916905
 20
210.250000
 30
0.0
 10
823.083095
 20
210.250000
 30
0.0
 10
823.333095
 20
210.000000
 30
0.0
 10
804.000000
 20
190.666905
 30
0.0
 10
784.666905
 20
210.000000
 30
0.0
 10
784.916905
 20
210.250000
 30
0.0
  0
LWPOLYLINE
  5
153
100
AcDbEntity
  8
0
 62
7
100
AcDbPolyline
 90
6
 70
1
 10
544.916905
 20
210.250000
 30
0.0
 10
583.083095
 20
210.250000
 30
0.0
 10
583.333095
 20
210.000000
 30
0.0
 10
564.000000
 20
190.666905
 30
0.0
 10
544.666905
 20
210.000000
 30
0.0
 10
544.916905
 20
210.250000
 30
0.0
  0
LWPOLYLINE
  5
154
100
AcDbEntity
  8
0
 62
7
100
AcDbPolyline
 90
6
 70
1
 10
184.666905
 20
90.000000
 30
0.0
 10
204.000000
 20
109.333095
 30
0.0
 10
223.333095
 20
90.000000
 30
0.0
 10
223.083095
 20
89.750000
 30
0.0
 10
184.916905
 20
89.750000
 30
0.0
 10
184.666905
 20
90.000000
 30
0.0
  0
LWPOLYLINE
  5
155
100
AcDbEntity
  8
0
 62
7
100
AcDbPolyline
 90
6
 70
1
 10
256.916905
 20
210.250000
 30
0.0
 10
295.083095
 20
210.250000
 30
0.0
 10
295.333095
 20
210.000000
 30
0.0
 10
276.000000
 20
190.666905
 30
0.0
 10
256.666905
 20
210.000000
 30
0.0
 10
256.916905
 20
210.250000
 30
0.0
  0
LWPOLYLINE
  5
156
100
AcDbEntity
  8
0
 62
7
100
AcDbPolyline
 90
6
 70
1
 10
904.666905
 20
90.000000
 30
0.0
 10
924.000000
 20
109.333095
 30
0.0
 10
943.333095
 20
90.000000
 30
0.0
 10
943.083095
 20
89.750000
 30
0.0
 10
904.916905
 20
89.750000
 30
0.0
 10
904.666905
 20
90.000000
 30
0.0
  0
LWPOLYLINE
  5
157
100
AcDbEntity
  8
0
 62
7
100
AcDbPolyline
 90
6
 70
1
 10
232.666905
 20
90.000000
 30
0.0
 10
252.000000
 20
109.333095
 30
0.0
 10
271.333095
 20
90.000000
 30
0.0
 10
271.083095
 20
89.750000
 30
0.0
 10
232.916905
 20
89.750000
 30
0.0
 10
232.666905
 20
90.000000
 30
0.0
  0
LWPOLYLINE
  5
158
100
AcDbEntity
  8
0
 62
7
100
AcDbPolyline
 90
6
 70
1
 10
712.666905
 20
90.000000
 30
0.0
 10
732.000000
 20
109.333095
 30
0.0
 10
751.333095
 20
90.000000
 30
0.0
 10
751.083095
 20
89.750000
 30
0.0
 10
712.916905
 20
89.750000
 30
0.0
 10
712.666905
 20
90.000000
 30
0.0
  0
LWPOLYLINE
  5
159
100
AcDbEntity
  8
0
 62
7
100
AcDbPolyline
 90
6
 70
1
 10
808.666905
 20
90.000000
 30
0.0
 10
828.000000
 20
109.333095
 30
0.0
 10
847.333095
 20
90.000000
 30
0.0
 10
847.083095
 20
89.750000
 30
0.0
 10
808.916905
 20
89.750000
 30
0.0
 10
808.666905
 20
90.000000
 30
0.0
  0
LWPOLYLINE
  5
15a
100
AcDbEntity
  8
0
 62
7
100
AcDbPolyline
 90
6
 70
1
 10
153.750000
 20
203.083095
 30
0.0
 10
156.000000
 20
205.333095
 30
0.0
 10
175.333095
 20
186.000000
 30
0.0
 10
156.000000
 20
166.666905
 30
0.0
 10
153.750000
 20
168.916905
 30
0.0
 10
153.750000
 20
203.083095
 30
0.0
  0
LWPOLYLINE
  5
15b
100
AcDbEntity
  8
0
 62
7
100
AcDbPolyline
 90
6
 70
1
 10
880.916905
 20
210.250000
 30
0.0
 10
919.083095
 20
210.250000
 30
0.0
 10
919.333095
 20
210.000000
 30
0.0
 10
900.000000
 20
190.666905
 30
0.0
 10
880.666905
 20
210.000000
 30
0.0
 10
880.916905
 20
210.250000
 30
0.0
  0
LWPOLYLINE
  5
15c
100
AcDbEntity
  8
0
 62
7
100
AcDbPolyline
 90
6
 70
1
 10
1024.916905
 20
210.250000
 30
0.0
 10
1046.250000
 20
210.250000
 30
0.0
 10
1046.250000
 20
192.916905
 30
0.0
 10
1044.000000
 20
190.666905
 30
0.0
 10
1024.666905
 20
210.000000
 30
0.0
 10
1024.916905
 20
210.250000
 30
0.0
  0
LWPOLYLINE
  5
15d
100
AcDbEntity
  8
0
 62
7
100
AcDbPolyline
 90
6
 70
1
 10
160.916905
 20
210.250000
 30
0.0
 10
199.083095
 20
210.250000
 30
0.0
 10
199.333095
 20
210.000000
 30
0.0
 10
180.000000
 20
190.666905
 30
0.0
 10
160.666905
 20
210.000000
 30
0.0
 10
160.916905
 20
210.250000
 30
0.0
  0
LWPOLYLINE
  5
15e
100
AcDbEntity
  8
0
 62
7
100
AcDbPolyline
 90
6
 70
1
 10
424.666905
 20
90.000000
 30
0.0
 10
444.000000
 20
109.333095
 30
0.0
 10
463.333095
 20
90.000000
 30
0.0
 10
463.083095
 20
89.750000
 30
0.0
 10
424.916905
 20
89.750000
 30
0.0
 10
424.666905
 20
90.000000
 30
0.0
  0
LWPOLYLINE
  5
15f
100
AcDbEntity
  8
0
 62
7
100
AcDbPolyline
 90
6
 70
1
 10
616.666905
 20
90.000000
 30
0.0
 10
636.000000
 20
109.333095
 30
0.0
 10
655.333095
 20
90.000000
 30
0.0
 10
655.083095
 20
89.750000
 30
0.0
 10
616.916905
 20
89.750000
 30
0.0
 10
616.666905
 20
90.000000
 30
0.0
  0
LWPOLYLINE
  5
160
100
AcDbEntity
  8
0
 62
7
100
AcDbPolyline
 90
6
 70
1
 10
592.916905
 20
210.250000
 30
0.0
 10
631.083095
 20
210.250000
 30
0.0
 10
631.333095
 20
210.000000
 30
0.0
 10
612.000000
 20
190.666905
 30
0.0
 10
592.666905
 20
210.000000
 30
0.0
 10
592.916905
 20
210.250000
 30
0.0
  0
LWPOLYLINE
  5
161
100
AcDbEntity
  8
0
 62
7
100
AcDbPolyline
 90
6
 70
1
 10
208.916905
 20
210.250000
 30
0.0
 10
247.083095
 20
210.250000
 30
0.0
 10
247.333095
 20
210.000000
 30
0.0
 10
228.000000
 20
190.666905
 30
0.0
 10
208.666905
 20
210.000000
 30
0.0
 10
208.916905
 20
210.250000
 30
0.0
  0
LWPOLYLINE
  5
162
100
AcDbEntity
  8
0
 62
7
100
AcDbPolyline
 90
6
 70
1
 10
1000.666905
 20
90.000000
 30
0.0
 10
1020.000000
 20
109.333095
 30
0.0
 10
1039.333095
 20
90.000000
 30
0.0
 10
1039.083095
 20
89.750000
 30
0.0
 10
1000.916905
 20
89.750000
 30
0.0
 10
1000.666905
 20
90.000000
 30
0.0
  0
LWPOLYLINE
  5
163
100
AcDbEntity
  8
0
 62
7
100
AcDbPolyline
 90
6
 70
1
 10
736.916905
 20
210.250000
 30
0.0
 10
775.083095
 20
210.250000
 30
0.0
 10
775.333095
 20
210.000000
 30
0.0
 10
756.000000
 20
190.666905
 30
0.0
 10
736.666905
 20
210.000000
 30
0.0
 10
736.916905
 20
210.250000
 30
0.0
  0
LWPOLYLINE
  5
164
100
AcDbEntity
  8
0
 62
7
100
AcDbPolyline
 90
6
 70
1
 10
400.916905
 20
210.250000
 30
0.0
 10
439.083095
 20
210.250000
 30
0.0
 10
439.333095
 20
210.000000
 30
0.0
 10
420.000000
 20
190.666905
 30
0.0
 10
400.666905
 20
210.000000
 30
0.0
 10
400.916905
 20
210.250000
 30
0.0
  0
LWPOLYLINE
  5
165
100
AcDbEntity
  8
0
 62
7
100
AcDbPolyline
 90
6
 70
1
 10
153.750000
 20
155.083095
 30
0.0
 10
156.000000
 20
157.333095
 30
0.0
 10
175.333095
 20
138.000000
 30
0.0
 10
156.000000
 20
118.666905
 30
0.0
 10
153.750000
 20
120.916905
 30
0.0
 10
153.750000
 20
155.083095
 30
0.0
  0
LWPOLYLINE
  5
166
100
AcDbEntity
  8
0
 62
7
100
AcDbPolyline
 90
6
 70
1
 10
760.666905
 20
90.000000
 30
0.0
 10
780.000000
 20
109.333095
 30
0.0
 10
799.333095
 20
90.000000
 30
0.0
 10
799.083095
 20
89.750000
 30
0.0
 10
760.916905
 20
89.750000
 30
0.0
 10
760.666905
 20
90.000000
 30
0.0
  0
LWPOLYLINE
  5
167
100
AcDbEntity
  8
0
 62
7
100
AcDbPolyline
 90
6
 70
1
 10
472.666905
 20
90.000000
 30
0.0
 10
492.000000
 20
109.333095
 30
0.0
 10
511.333095
 20
90.000000
 30
0.0
 10
511.083095
 20
89.750000
 30
0.0
 10
472.916905
 20
89.750000
 30
0.0
 10
472.666905
 20
90.000000
 30
0.0
  0
LWPOLYLINE
  5
168
100
AcDbEntity
  8
0
 62
7
100
AcDbPolyline
 90
6
 70
1
 10
520.666905
 20
90.000000
 30
0.0
 10
540.000000
 20
109.333095
 30
0.0
 10
559.333095
 20
90.000000
 30
0.0
 10
559.083095
 20
89.750000
 30
0.0
 10
520.916905
 20
89.750000
 30
0.0
 10
520.666905
 20
90.000000
 30
0.0
  0
LWPOLYLINE
  5
169
100
AcDbEntity
  8
0
 62
7
100
AcDbPolyline
 90
6
 70
1
 10
304.916905
 20
210.250000
 30
0.0
 10
343.083095
 20
210.250000
 30
0.0
 10
343.333095
 20
210.000000
 30
0.0
 10
324.000000
 20
190.666905
 30
0.0
 10
304.666905
 20
210.000000
 30
0.0
 10
304.916905
 20
210.250000
 30
0.0
  0
LWPOLYLINE
  5
16a
100
AcDbEntity
  8
0
 62
7
100
AcDbPolyline
 90
6
 70
1
 10
496.916905
 20
210.250000
 30
0.0
 10
535.083095
 20
210.250000
 30
0.0
 10
535.333095
 20
210.000000
 30
0.0
 10
516.000000
 20
190.666905
 30
0.0
 10
496.666905
 20
210.000000
 30
0.0
 10
496.916905
 20
210.250000
 30
0.0
  0
LWPOLYLINE
  5
16b
100
AcDbEntity
  8
0
 62
7
100
AcDbPolyline
 90
6
 70
1
 10
688.916905
 20
210.250000
 30
0.0
 10
727.083095
 20
210.250000
 30
0.0
 10
727.333095
 20
210.000000
 30
0.0
 10
708.000000
 20
190.666905
 30
0.0
 10
688.666905
 20
210.000000
 30
0.0
 10
688.916905
 20
210.250000
 30
0.0
  0
LWPOLYLINE
  5
16c
100
AcDbEntity
  8
0
 62
7
100
AcDbPolyline
 90
6
 70
1
 10
832.916905
 20
210.250000
 30
0.0
 10
871.083095
 20
210.250000
 30
0.0
 10
871.333095
 20
210.000000
 30
0.0
 10
852.000000
 20
190.666905
 30
0.0
 10
832.666905
 20
210.000000
 30
0.0
 10
832.916905
 20
210.250000
 30
0.0
  0
LWPOLYLINE
  5
16d
100
AcDbEntity
  8
0
 62
7
100
AcDbPolyline
 90
6
 70
1
 10
1044.000000
 20
133.333095
 30
0.0
 10
1046.250000
 20
131.083095
 30
0.0
 10
1046.250000
 20
96.916905
 30
0.0
 10
1044.000000
 20
94.666905
 30
0.0
 10
1024.666905
 20
114.000000
 30
0.0
 10
1044.000000
 20
133.333095
 30
0.0
  0
LWPOLYLINE
  5
16e
100
AcDbEntity
  8
0
 62
7
100
AcDbPolyline
 90
6
 70
1
 10
280.666905
 20
90.000000
 30
0.0
 10
300.000000
 20
109.333095
 30
0.0
 10
319.333095
 20
90.000000
 30
0.0
 10
319.083095
 20
89.750000
 30
0.0
 10
280.916905
 20
89.750000
 30
0.0
 10
280.666905
 20
90.000000
 30
0.0
  0
LWPOLYLINE
  5
16f
100
AcDbEntity
  8
0
 62
7
100
AcDbPolyline
 90
6
 70
1
 10
153.750000
 20
107.083095
 30
0.0
 10
156.000000
 20
109.333095
 30
0.0
 10
175.333095
 20
90.000000
 30
0.0
 10
175.083095
 20
89.750000
 30
0.0
 10
153.750000
 20
89.750000
 30
0.0
 10
153.750000
 20
107.083095
 30
0.0
  0
LWPOLYLINE
  5
170
100
AcDbEntity
  8
0
 62
7
100
AcDbPolyline
 90
6
 70
1
 10
448.916905
 20
210.250000
 30
0.0
 10
487.083095
 20
210.250000
 30
0.0
 10
487.333095
 20
210.000000
 30
0.0
 10
468.000000
 20
190.666905
 30
0.0
 10
448.666905
 20
210.000000
 30
0.0
 10
448.916905
 20
210.250000
 30
0.0
  0
LWPOLYLINE
  5
171
100
AcDbEntity
  8
0
 62
7
100
AcDbPolyline
 90
6
 70
1
 10
952.666905
 20
90.000000
 30
0.0
 10
972.000000
 20
109.333095
 30
0.0
 10
991.333095
 20
90.000000
 30
0.0
 10
991.083095
 20
89.750000
 30
0.0
 10
952.916905
 20
89.750000
 30
0.0
 10
952.666905
 20
90.000000
 30
0.0
  0
LWPOLYLINE
  5
172
100
AcDbEntity
  8
0
 62
7
100
AcDbPolyline
 90
5
 70
1
 10
147.750000
 20
61.750000
 30
0.0
 10
1052.250000
 20
61.750000
 30
0.0
 10
1052.250000
 20
238.250000
 30
0.0
 10
147.750000
 20
238.250000
 30
0.0
 10
147.750000
 20
61.750000
 30
0.0
  0
ENDSEC
  0
SECTION
  2
OBJECTS
  0
DICTIONARY
  5
C
330
0
100
AcDbDictionary
  3
ACAD_GROUP
350
D
  3
ACAD_MLINESTYLE
350
17
  0
DICTIONARY
  5
D
330
C
100
AcDbDictionary
  0
DICTIONARY
  5
1A
330
C
100
AcDbDictionary
  0
DICTIONARY
  5
17
330
C
100
AcDbDictionary
  3
STANDARD
350
18
  0
DICTIONARY
  5
19
330
C
100
AcDbDictionary
  0
ENDSEC
  0
EOF
