<?xml version="1.0" encoding="UTF-8" standalone="no"?>
<svg
   height="300mm"
   version="1.1"
   viewBox="0 0 1200 300"
   width="1200mm"
   id="svg115"
   sodipodi:docname="tramo1.4.svg"
   inkscape:version="1.4.2 (2aeb623e1d, 2025-05-12)"
   xmlns:inkscape="http://www.inkscape.org/namespaces/inkscape"
   xmlns:sodipodi="http://sodipodi.sourceforge.net/DTD/sodipodi-0.dtd"
   xmlns="http://www.w3.org/2000/svg"
   xmlns:svg="http://www.w3.org/2000/svg">
  <sodipodi:namedview
     id="namedview115"
     pagecolor="#ffffff"
     bordercolor="#666666"
     borderopacity="1.0"
     inkscape:showpageshadow="2"
     inkscape:pageopacity="0.0"
     inkscape:pagecheckerboard="0"
     inkscape:deskcolor="#d1d1d1"
     inkscape:document-units="mm"
     showgrid="false"
     inkscape:zoom="0.74039236"
     inkscape:cx="538.22814"
     inkscape:cy="321.45118"
     inkscape:window-width="1920"
     inkscape:window-height="1011"
     inkscape:window-x="0"
     inkscape:window-y="0"
     inkscape:window-maximized="1"
     inkscape:current-layer="svg115" />
  <defs
     id="defs1" />
  <g
     fill="none"
     stroke="blue"
     stroke-width="0.5"
     transform="translate(-108.0,61.0)"
     id="g115"
     style="vector-effect:non-scaling-stroke;-inkscape-stroke:hairline;stroke-width:0.26458333;stroke-dasharray:none">
    <path
       d="M 288.0,105.6669047558312 L 307.3330952441688,125.0 L 288.0,144.33309524416882 L 268.6669047558312,125.0 L 288.0,105.6669047558312 Z"
       id="path1"
       style="vector-effect:non-scaling-stroke;-inkscape-stroke:hairline;stroke-width:0.26458333;stroke-dasharray:none" />
    <path
       d="M 288.0,57.66690475583121 L 307.3330952441688,77.0 L 288.0,96.3330952441688 L 268.6669047558312,77.0 L 288.0,57.66690475583121 Z"
       id="path2"
       style="vector-effect:non-scaling-stroke;-inkscape-stroke:hairline;stroke-width:0.26458333;stroke-dasharray:none" />
    <path
       d="M 312.0,81.66690475583121 L 331.3330952441688,101.0 L 312.0,120.3330952441688 L 292.6669047558312,101.0 L 312.0,81.66690475583121 Z"
       id="path3"
       style="vector-effect:non-scaling-stroke;-inkscape-stroke:hairline;stroke-width:0.26458333;stroke-dasharray:none" />
    <path
       d="M 312.0,33.66690475583121 L 331.3330952441688,53.0 L 312.0,72.33309524416879 L 292.6669047558312,53.0 L 312.0,33.66690475583121 Z"
       id="path4"
       style="vector-effect:non-scaling-stroke;-inkscape-stroke:hairline;stroke-width:0.26458333;stroke-dasharray:none" />
    <path
       d="M 336.0,105.6669047558312 L 355.3330952441688,125.0 L 336.0,144.33309524416882 L 316.6669047558312,125.0 L 336.0,105.6669047558312 Z"
       id="path5"
       style="vector-effect:non-scaling-stroke;-inkscape-stroke:hairline;stroke-width:0.26458333;stroke-dasharray:none" />
    <path
       d="M 336.0,57.66690475583121 L 355.3330952441688,77.0 L 336.0,96.3330952441688 L 316.6669047558312,77.0 L 336.0,57.66690475583121 Z"
       id="path6"
       style="vector-effect:non-scaling-stroke;-inkscape-stroke:hairline;stroke-width:0.26458333;stroke-dasharray:none" />
    <path
       d="M 360.0,81.66690475583121 L 379.3330952441688,101.0 L 360.0,120.3330952441688 L 340.6669047558312,101.0 L 360.0,81.66690475583121 Z"
       id="path7"
       style="vector-effect:non-scaling-stroke;-inkscape-stroke:hairline;stroke-width:0.26458333;stroke-dasharray:none" />
    <path
       d="M 360.0,33.66690475583121 L 379.3330952441688,53.0 L 360.0,72.33309524416879 L 340.6669047558312,53.0 L 360.0,33.66690475583121 Z"
       id="path8"
       style="vector-effect:non-scaling-stroke;-inkscape-stroke:hairline;stroke-width:0.26458333;stroke-dasharray:none" />
    <path
       d="M 384.0,105.6669047558312 L 403.3330952441688,125.0 L 384.0,144.33309524416882 L 364.6669047558312,125.0 L 384.0,105.6669047558312 Z"
       id="path9"
       style="vector-effect:non-scaling-stroke;-inkscape-stroke:hairline;stroke-width:0.26458333;stroke-dasharray:none" />
    <path
       d="M 384.0,57.66690475583121 L 403.3330952441688,77.0 L 384.0,96.3330952441688 L 364.6669047558312,77.0 L 384.0,57.66690475583121 Z"
       id="path10"
       style="vector-effect:non-scaling-stroke;-inkscape-stroke:hairline;stroke-width:0.26458333;stroke-dasharray:none" />
    <path
       d="M 408.0,81.66690475583121 L 427.3330952441688,101.0 L 408.0,120.3330952441688 L 388.6669047558312,101.0 L 408.0,81.66690475583121 Z"
       id="path11"
       style="vector-effect:non-scaling-stroke;-inkscape-stroke:hairline;stroke-width:0.26458333;stroke-dasharray:none" />
    <path
       d="M 408.0,33.66690475583121 L 427.3330952441688,53.0 L 408.0,72.33309524416879 L 388.6669047558312,53.0 L 408.0,33.66690475583121 Z"
       id="path12"
       style="vector-effect:non-scaling-stroke;-inkscape-stroke:hairline;stroke-width:0.26458333;stroke-dasharray:none" />
    <path
       d="M 432.0,105.6669047558312 L 451.3330952441688,125.0 L 432.0,144.33309524416882 L 412.6669047558312,125.0 L 432.0,105.6669047558312 Z"
       id="path13"
       style="vector-effect:non-scaling-stroke;-inkscape-stroke:hairline;stroke-width:0.26458333;stroke-dasharray:none" />
    <path
       d="M 432.0,57.66690475583121 L 451.3330952441688,77.0 L 432.0,96.3330952441688 L 412.6669047558312,77.0 L 432.0,57.66690475583121 Z"
       id="path14"
       style="vector-effect:non-scaling-stroke;-inkscape-stroke:hairline;stroke-width:0.26458333;stroke-dasharray:none" />
    <path
       d="M 456.0,81.66690475583121 L 475.3330952441688,101.0 L 456.0,120.3330952441688 L 436.6669047558312,101.0 L 456.0,81.66690475583121 Z"
       id="path15"
       style="vector-effect:non-scaling-stroke;-inkscape-stroke:hairline;stroke-width:0.26458333;stroke-dasharray:none" />
    <path
       d="M 456.0,33.66690475583121 L 475.3330952441688,53.0 L 456.0,72.33309524416879 L 436.6669047558312,53.0 L 456.0,33.66690475583121 Z"
       id="path16"
       style="vector-effect:non-scaling-stroke;-inkscape-stroke:hairline;stroke-width:0.26458333;stroke-dasharray:none" />
    <path
       d="M 480.0,105.6669047558312 L 499.3330952441688,125.0 L 480.0,144.33309524416882 L 460.6669047558312,125.0 L 480.0,105.6669047558312 Z"
       id="path17"
       style="vector-effect:non-scaling-stroke;-inkscape-stroke:hairline;stroke-width:0.26458333;stroke-dasharray:none" />
    <path
       d="M 480.0,57.66690475583121 L 499.3330952441688,77.0 L 480.0,96.3330952441688 L 460.6669047558312,77.0 L 480.0,57.66690475583121 Z"
       id="path18"
       style="vector-effect:non-scaling-stroke;-inkscape-stroke:hairline;stroke-width:0.26458333;stroke-dasharray:none" />
    <path
       d="M 504.0,81.66690475583121 L 523.3330952441688,101.0 L 504.0,120.3330952441688 L 484.6669047558312,101.0 L 504.0,81.66690475583121 Z"
       id="path19"
       style="vector-effect:non-scaling-stroke;-inkscape-stroke:hairline;stroke-width:0.26458333;stroke-dasharray:none" />
    <path
       d="M 504.0,33.66690475583121 L 523.3330952441688,53.0 L 504.0,72.33309524416879 L 484.6669047558312,53.0 L 504.0,33.66690475583121 Z"
       id="path20"
       style="vector-effect:non-scaling-stroke;-inkscape-stroke:hairline;stroke-width:0.26458333;stroke-dasharray:none" />
    <path
       d="M 528.0,105.6669047558312 L 547.3330952441688,125.0 L 528.0,144.33309524416882 L 508.6669047558312,125.0 L 528.0,105.6669047558312 Z"
       id="path21"
       style="vector-effect:non-scaling-stroke;-inkscape-stroke:hairline;stroke-width:0.26458333;stroke-dasharray:none" />
    <path
       d="M 528.0,57.66690475583121 L 547.3330952441688,77.0 L 528.0,96.3330952441688 L 508.6669047558312,77.0 L 528.0,57.66690475583121 Z"
       id="path22"
       style="vector-effect:non-scaling-stroke;-inkscape-stroke:hairline;stroke-width:0.26458333;stroke-dasharray:none" />
    <path
       d="M 552.0,81.66690475583121 L 571.3330952441688,101.0 L 552.0,120.3330952441688 L 532.6669047558312,101.0 L 552.0,81.66690475583121 Z"
       id="path23"
       style="vector-effect:non-scaling-stroke;-inkscape-stroke:hairline;stroke-width:0.26458333;stroke-dasharray:none" />
    <path
       d="M 552.0,33.66690475583121 L 571.3330952441688,53.0 L 552.0,72.33309524416879 L 532.6669047558312,53.0 L 552.0,33.66690475583121 Z"
       id="path24"
       style="vector-effect:non-scaling-stroke;-inkscape-stroke:hairline;stroke-width:0.26458333;stroke-dasharray:none" />
    <path
       d="M 576.0,105.6669047558312 L 595.3330952441688,125.0 L 576.0,144.33309524416882 L 556.6669047558312,125.0 L 576.0,105.6669047558312 Z"
       id="path25"
       style="vector-effect:non-scaling-stroke;-inkscape-stroke:hairline;stroke-width:0.26458333;stroke-dasharray:none" />
    <path
       d="M 576.0,57.66690475583121 L 595.3330952441688,77.0 L 576.0,96.3330952441688 L 556.6669047558312,77.0 L 576.0,57.66690475583121 Z"
       id="path26"
       style="vector-effect:non-scaling-stroke;-inkscape-stroke:hairline;stroke-width:0.26458333;stroke-dasharray:none" />
    <path
       d="M 600.0,81.66690475583121 L 619.3330952441688,101.0 L 600.0,120.3330952441688 L 580.6669047558312,101.0 L 600.0,81.66690475583121 Z"
       id="path27"
       style="vector-effect:non-scaling-stroke;-inkscape-stroke:hairline;stroke-width:0.26458333;stroke-dasharray:none" />
    <path
       d="M 600.0,33.66690475583121 L 619.3330952441688,53.0 L 600.0,72.33309524416879 L 580.6669047558312,53.0 L 600.0,33.66690475583121 Z"
       id="path28"
       style="vector-effect:non-scaling-stroke;-inkscape-stroke:hairline;stroke-width:0.26458333;stroke-dasharray:none" />
    <path
       d="M 624.0,105.6669047558312 L 643.3330952441688,125.0 L 624.0,144.33309524416882 L 604.6669047558312,125.0 L 624.0,105.6669047558312 Z"
       id="path29"
       style="vector-effect:non-scaling-stroke;-inkscape-stroke:hairline;stroke-width:0.26458333;stroke-dasharray:none" />
    <path
       d="M 624.0,57.66690475583121 L 643.3330952441688,77.0 L 624.0,96.3330952441688 L 604.6669047558312,77.0 L 624.0,57.66690475583121 Z"
       id="path30"
       style="vector-effect:non-scaling-stroke;-inkscape-stroke:hairline;stroke-width:0.26458333;stroke-dasharray:none" />
    <path
       d="M 648.0,81.66690475583121 L 667.3330952441688,101.0 L 648.0,120.3330952441688 L 628.6669047558312,101.0 L 648.0,81.66690475583121 Z"
       id="path31"
       style="vector-effect:non-scaling-stroke;-inkscape-stroke:hairline;stroke-width:0.26458333;stroke-dasharray:none" />
    <path
       d="M 648.0,33.66690475583121 L 667.3330952441688,53.0 L 648.0,72.33309524416879 L 628.6669047558312,53.0 L 648.0,33.66690475583121 Z"
       id="path32"
       style="vector-effect:non-scaling-stroke;-inkscape-stroke:hairline;stroke-width:0.26458333;stroke-dasharray:none" />
    <path
       d="M 672.0,105.6669047558312 L 691.3330952441688,125.0 L 672.0,144.33309524416882 L 652.6669047558312,125.0 L 672.0,105.6669047558312 Z"
       id="path33"
       style="vector-effect:non-scaling-stroke;-inkscape-stroke:hairline;stroke-width:0.26458333;stroke-dasharray:none" />
    <path
       d="M 672.0,57.66690475583121 L 691.3330952441688,77.0 L 672.0,96.3330952441688 L 652.6669047558312,77.0 L 672.0,57.66690475583121 Z"
       id="path34"
       style="vector-effect:non-scaling-stroke;-inkscape-stroke:hairline;stroke-width:0.26458333;stroke-dasharray:none" />
    <path
       d="M 696.0,81.66690475583121 L 715.3330952441688,101.0 L 696.0,120.3330952441688 L 676.6669047558312,101.0 L 696.0,81.66690475583121 Z"
       id="path35"
       style="vector-effect:non-scaling-stroke;-inkscape-stroke:hairline;stroke-width:0.26458333;stroke-dasharray:none" />
    <path
       d="M 696.0,33.66690475583121 L 715.3330952441688,53.0 L 696.0,72.33309524416879 L 676.6669047558312,53.0 L 696.0,33.66690475583121 Z"
       id="path36"
       style="vector-effect:non-scaling-stroke;-inkscape-stroke:hairline;stroke-width:0.26458333;stroke-dasharray:none" />
    <path
       d="M 720.0,105.6669047558312 L 739.3330952441688,125.0 L 720.0,144.33309524416882 L 700.6669047558312,125.0 L 720.0,105.6669047558312 Z"
       id="path37"
       style="vector-effect:non-scaling-stroke;-inkscape-stroke:hairline;stroke-width:0.26458333;stroke-dasharray:none" />
    <path
       d="M 720.0,57.66690475583121 L 739.3330952441688,77.0 L 720.0,96.3330952441688 L 700.6669047558312,77.0 L 720.0,57.66690475583121 Z"
       id="path38"
       style="vector-effect:non-scaling-stroke;-inkscape-stroke:hairline;stroke-width:0.26458333;stroke-dasharray:none" />
    <path
       d="M 744.0,81.66690475583121 L 763.3330952441688,101.0 L 744.0,120.3330952441688 L 724.6669047558312,101.0 L 744.0,81.66690475583121 Z"
       id="path39"
       style="vector-effect:non-scaling-stroke;-inkscape-stroke:hairline;stroke-width:0.26458333;stroke-dasharray:none" />
    <path
       d="M 744.0,33.66690475583121 L 763.3330952441688,53.0 L 744.0,72.33309524416879 L 724.6669047558312,53.0 L 744.0,33.66690475583121 Z"
       id="path40"
       style="vector-effect:non-scaling-stroke;-inkscape-stroke:hairline;stroke-width:0.26458333;stroke-dasharray:none" />
    <path
       d="M 768.0,105.6669047558312 L 787.3330952441688,125.0 L 768.0,144.33309524416882 L 748.6669047558312,125.0 L 768.0,105.6669047558312 Z"
       id="path41"
       style="vector-effect:non-scaling-stroke;-inkscape-stroke:hairline;stroke-width:0.26458333;stroke-dasharray:none" />
    <path
       d="M 768.0,57.66690475583121 L 787.3330952441688,77.0 L 768.0,96.3330952441688 L 748.6669047558312,77.0 L 768.0,57.66690475583121 Z"
       id="path42"
       style="vector-effect:non-scaling-stroke;-inkscape-stroke:hairline;stroke-width:0.26458333;stroke-dasharray:none" />
    <path
       d="M 792.0,81.66690475583121 L 811.3330952441688,101.0 L 792.0,120.3330952441688 L 772.6669047558312,101.0 L 792.0,81.66690475583121 Z"
       id="path43"
       style="vector-effect:non-scaling-stroke;-inkscape-stroke:hairline;stroke-width:0.26458333;stroke-dasharray:none" />
    <path
       d="M 792.0,33.66690475583121 L 811.3330952441688,53.0 L 792.0,72.33309524416879 L 772.6669047558312,53.0 L 792.0,33.66690475583121 Z"
       id="path44"
       style="vector-effect:non-scaling-stroke;-inkscape-stroke:hairline;stroke-width:0.26458333;stroke-dasharray:none" />
    <path
       d="M 816.0,105.6669047558312 L 835.3330952441688,125.0 L 816.0,144.33309524416882 L 796.6669047558312,125.0 L 816.0,105.6669047558312 Z"
       id="path45"
       style="vector-effect:non-scaling-stroke;-inkscape-stroke:hairline;stroke-width:0.26458333;stroke-dasharray:none" />
    <path
       d="M 816.0,57.66690475583121 L 835.3330952441688,77.0 L 816.0,96.3330952441688 L 796.6669047558312,77.0 L 816.0,57.66690475583121 Z"
       id="path46"
       style="vector-effect:non-scaling-stroke;-inkscape-stroke:hairline;stroke-width:0.26458333;stroke-dasharray:none" />
    <path
       d="M 840.0,81.66690475583121 L 859.3330952441688,101.0 L 840.0,120.3330952441688 L 820.6669047558312,101.0 L 840.0,81.66690475583121 Z"
       id="path47"
       style="vector-effect:non-scaling-stroke;-inkscape-stroke:hairline;stroke-width:0.26458333;stroke-dasharray:none" />
    <path
       d="M 840.0,33.66690475583121 L 859.3330952441688,53.0 L 840.0,72.33309524416879 L 820.6669047558312,53.0 L 840.0,33.66690475583121 Z"
       id="path48"
       style="vector-effect:non-scaling-stroke;-inkscape-stroke:hairline;stroke-width:0.26458333;stroke-dasharray:none" />
    <path
       d="M 864.0,105.6669047558312 L 883.3330952441688,125.0 L 864.0,144.33309524416882 L 844.6669047558312,125.0 L 864.0,105.6669047558312 Z"
       id="path49"
       style="vector-effect:non-scaling-stroke;-inkscape-stroke:hairline;stroke-width:0.26458333;stroke-dasharray:none" />
    <path
       d="M 864.0,57.66690475583121 L 883.3330952441688,77.0 L 864.0,96.3330952441688 L 844.6669047558312,77.0 L 864.0,57.66690475583121 Z"
       id="path50"
       style="vector-effect:non-scaling-stroke;-inkscape-stroke:hairline;stroke-width:0.26458333;stroke-dasharray:none" />
    <path
       d="M 888.0,81.66690475583121 L 907.3330952441688,101.0 L 888.0,120.3330952441688 L 868.6669047558312,101.0 L 888.0,81.66690475583121 Z"
       id="path51"
       style="vector-effect:non-scaling-stroke;-inkscape-stroke:hairline;stroke-width:0.26458333;stroke-dasharray:none" />
    <path
       d="M 888.0,33.66690475583121 L 907.3330952441688,53.0 L 888.0,72.33309524416879 L 868.6669047558312,53.0 L 888.0,33.66690475583121 Z"
       id="path52"
       style="vector-effect:non-scaling-stroke;-inkscape-stroke:hairline;stroke-width:0.26458333;stroke-dasharray:none" />
    <path
       d="M 912.0,105.6669047558312 L 931.3330952441688,125.0 L 912.0,144.33309524416882 L 892.6669047558312,125.0 L 912.0,105.6669047558312 Z"
       id="path53"
       style="vector-effect:non-scaling-stroke;-inkscape-stroke:hairline;stroke-width:0.26458333;stroke-dasharray:none" />
    <path
       d="M 912.0,57.66690475583121 L 931.3330952441688,77.0 L 912.0,96.3330952441688 L 892.6669047558312,77.0 L 912.0,57.66690475583121 Z"
       id="path54"
       style="vector-effect:non-scaling-stroke;-inkscape-stroke:hairline;stroke-width:0.26458333;stroke-dasharray:none" />
    <path
       d="M 936.0,81.66690475583121 L 955.3330952441688,101.0 L 936.0,120.3330952441688 L 916.6669047558312,101.0 L 936.0,81.66690475583121 Z"
       id="path55"
       style="vector-effect:non-scaling-stroke;-inkscape-stroke:hairline;stroke-width:0.26458333;stroke-dasharray:none" />
    <path
       d="M 936.0,33.66690475583121 L 955.3330952441688,53.0 L 936.0,72.33309524416879 L 916.6669047558312,53.0 L 936.0,33.66690475583121 Z"
       id="path56"
       style="vector-effect:non-scaling-stroke;-inkscape-stroke:hairline;stroke-width:0.26458333;stroke-dasharray:none" />
    <path
       d="M 960.0,105.6669047558312 L 979.3330952441688,125.0 L 960.0,144.33309524416882 L 940.6669047558312,125.0 L 960.0,105.6669047558312 Z"
       id="path57"
       style="vector-effect:non-scaling-stroke;-inkscape-stroke:hairline;stroke-width:0.26458333;stroke-dasharray:none" />
    <path
       d="M 960.0,57.66690475583121 L 979.3330952441688,77.0 L 960.0,96.3330952441688 L 940.6669047558312,77.0 L 960.0,57.66690475583121 Z"
       id="path58"
       style="vector-effect:non-scaling-stroke;-inkscape-stroke:hairline;stroke-width:0.26458333;stroke-dasharray:none" />
    <path
       d="M 984.0,81.66690475583121 L 1003.3330952441688,101.0 L 984.0,120.3330952441688 L 964.6669047558312,101.0 L 984.0,81.66690475583121 Z"
       id="path59"
       style="vector-effect:non-scaling-stroke;-inkscape-stroke:hairline;stroke-width:0.26458333;stroke-dasharray:none" />
    <path
       d="M 984.0,33.66690475583121 L 1003.3330952441688,53.0 L 984.0,72.33309524416879 L 964.6669047558312,53.0 L 984.0,33.66690475583121 Z"
       id="path60"
       style="vector-effect:non-scaling-stroke;-inkscape-stroke:hairline;stroke-width:0.26458333;stroke-dasharray:none" />
    <path
       d="M 1008.0,105.6669047558312 L 1027.3330952441688,125.0 L 1008.0,144.33309524416882 L 988.6669047558312,125.0 L 1008.0,105.6669047558312 Z"
       id="path61"
       style="vector-effect:non-scaling-stroke;-inkscape-stroke:hairline;stroke-width:0.26458333;stroke-dasharray:none" />
    <path
       d="M 1008.0,57.66690475583121 L 1027.3330952441688,77.0 L 1008.0,96.3330952441688 L 988.6669047558312,77.0 L 1008.0,57.66690475583121 Z"
       id="path62"
       style="vector-effect:non-scaling-stroke;-inkscape-stroke:hairline;stroke-width:0.26458333;stroke-dasharray:none" />
    <path
       d="M 1032.0,81.66690475583121 L 1051.3330952441688,101.0 L 1032.0,120.3330952441688 L 1012.6669047558312,101.0 L 1032.0,81.66690475583121 Z"
       id="path63"
       style="vector-effect:non-scaling-stroke;-inkscape-stroke:hairline;stroke-width:0.26458333;stroke-dasharray:none" />
    <path
       d="M 1032.0,33.66690475583121 L 1051.3330952441688,53.0 L 1032.0,72.33309524416879 L 1012.6669047558312,53.0 L 1032.0,33.66690475583121 Z"
       id="path64"
       style="vector-effect:non-scaling-stroke;-inkscape-stroke:hairline;stroke-width:0.26458333;stroke-dasharray:none" />
    <path
       d="M 1056.0,105.6669047558312 L 1075.3330952441688,125.0 L 1056.0,144.33309524416882 L 1036.6669047558312,125.0 L 1056.0,105.6669047558312 Z"
       id="path65"
       style="vector-effect:non-scaling-stroke;-inkscape-stroke:hairline;stroke-width:0.26458333;stroke-dasharray:none" />
    <path
       d="M 1056.0,57.66690475583121 L 1075.3330952441688,77.0 L 1056.0,96.3330952441688 L 1036.6669047558312,77.0 L 1056.0,57.66690475583121 Z"
       id="path66"
       style="vector-effect:non-scaling-stroke;-inkscape-stroke:hairline;stroke-width:0.26458333;stroke-dasharray:none" />
    <path
       d="M 1080.0,81.66690475583121 L 1099.3330952441688,101.0 L 1080.0,120.3330952441688 L 1060.6669047558312,101.0 L 1080.0,81.66690475583121 Z"
       id="path67"
       style="vector-effect:non-scaling-stroke;-inkscape-stroke:hairline;stroke-width:0.26458333;stroke-dasharray:none" />
    <path
       d="M 1080.0,33.66690475583121 L 1099.3330952441688,53.0 L 1080.0,72.33309524416879 L 1060.6669047558312,53.0 L 1080.0,33.66690475583121 Z"
       id="path68"
       style="vector-effect:non-scaling-stroke;-inkscape-stroke:hairline;stroke-width:0.26458333;stroke-dasharray:none" />
    <path
       d="M 1104.0,105.6669047558312 L 1123.3330952441688,125.0 L 1104.0,144.33309524416882 L 1084.6669047558312,125.0 L 1104.0,105.6669047558312 Z"
       id="path69"
       style="vector-effect:non-scaling-stroke;-inkscape-stroke:hairline;stroke-width:0.26458333;stroke-dasharray:none" />
    <path
       d="M 1104.0,57.66690475583121 L 1123.3330952441688,77.0 L 1104.0,96.3330952441688 L 1084.6669047558312,77.0 L 1104.0,57.66690475583121 Z"
       id="path70"
       style="vector-effect:non-scaling-stroke;-inkscape-stroke:hairline;stroke-width:0.26458333;stroke-dasharray:none" />
    <path
       d="M 1128.0,81.66690475583121 L 1147.3330952441688,101.0 L 1128.0,120.3330952441688 L 1108.6669047558312,101.0 L 1128.0,81.66690475583121 Z"
       id="path71"
       style="vector-effect:non-scaling-stroke;-inkscape-stroke:hairline;stroke-width:0.26458333;stroke-dasharray:none" />
    <path
       d="M 1128.0,33.66690475583121 L 1147.3330952441688,53.0 L 1128.0,72.33309524416879 L 1108.6669047558312,53.0 L 1128.0,33.66690475583121 Z"
       id="path72"
       style="vector-effect:non-scaling-stroke;-inkscape-stroke:hairline;stroke-width:0.26458333;stroke-dasharray:none" />
    <path
       d="M 624.0,48.33309524416879 L 604.6669047558312,29.0 L 643.3330952441688,29.0 L 624.0,48.33309524416879 Z"
       id="path73"
       style="vector-effect:non-scaling-stroke;-inkscape-stroke:hairline;stroke-width:0.26458333;stroke-dasharray:none" />
    <path
       d="M 262.0,149.0 L 262.0,131.66690475583118 L 264.0,129.66690475583118 L 283.3330952441688,149.0 L 262.0,149.0 Z"
       id="path74"
       style="vector-effect:non-scaling-stroke;-inkscape-stroke:hairline;stroke-width:0.26458333;stroke-dasharray:none" />
    <path
       d="M 336.0,48.33309524416879 L 316.6669047558312,29.0 L 355.3330952441688,29.0 L 336.0,48.33309524416879 Z"
       id="path75"
       style="vector-effect:non-scaling-stroke;-inkscape-stroke:hairline;stroke-width:0.26458333;stroke-dasharray:none" />
    <path
       d="M 672.0,48.33309524416879 L 652.6669047558312,29.0 L 691.3330952441688,29.0 L 672.0,48.33309524416879 Z"
       id="path76"
       style="vector-effect:non-scaling-stroke;-inkscape-stroke:hairline;stroke-width:0.26458333;stroke-dasharray:none" />
    <path
       d="M 772.6669047558312,149.0 L 792.0,129.66690475583118 L 811.3330952441688,149.0 L 772.6669047558312,149.0 Z"
       id="path77"
       style="vector-effect:non-scaling-stroke;-inkscape-stroke:hairline;stroke-width:0.26458333;stroke-dasharray:none" />
    <path
       d="M 384.0,48.33309524416879 L 364.6669047558312,29.0 L 403.3330952441688,29.0 L 384.0,48.33309524416879 Z"
       id="path78"
       style="vector-effect:non-scaling-stroke;-inkscape-stroke:hairline;stroke-width:0.26458333;stroke-dasharray:none" />
    <path
       d="M 820.6669047558312,149.0 L 840.0,129.66690475583118 L 859.3330952441688,149.0 L 820.6669047558312,149.0 Z"
       id="path79"
       style="vector-effect:non-scaling-stroke;-inkscape-stroke:hairline;stroke-width:0.26458333;stroke-dasharray:none" />
    <path
       d="M 1104.0,48.33309524416879 L 1084.6669047558312,29.0 L 1123.3330952441688,29.0 L 1104.0,48.33309524416879 Z"
       id="path80"
       style="vector-effect:non-scaling-stroke;-inkscape-stroke:hairline;stroke-width:0.26458333;stroke-dasharray:none" />
    <path
       d="M 720.0,48.33309524416879 L 700.6669047558312,29.0 L 739.3330952441688,29.0 L 720.0,48.33309524416879 Z"
       id="path81"
       style="vector-effect:non-scaling-stroke;-inkscape-stroke:hairline;stroke-width:0.26458333;stroke-dasharray:none" />
    <path
       d="M 1060.6669047558312,149.0 L 1080.0,129.66690475583118 L 1099.3330952441688,149.0 L 1060.6669047558312,149.0 Z"
       id="path82"
       style="vector-effect:non-scaling-stroke;-inkscape-stroke:hairline;stroke-width:0.26458333;stroke-dasharray:none" />
    <path
       d="M 916.6669047558312,149.0 L 936.0,129.66690475583118 L 955.3330952441688,149.0 L 916.6669047558312,149.0 Z"
       id="path83"
       style="vector-effect:non-scaling-stroke;-inkscape-stroke:hairline;stroke-width:0.26458333;stroke-dasharray:none" />
    <path
       d="M 580.6669047558312,149.0 L 600.0,129.66690475583118 L 619.3330952441688,149.0 L 580.6669047558312,149.0 Z"
       id="path84"
       style="vector-effect:non-scaling-stroke;-inkscape-stroke:hairline;stroke-width:0.26458333;stroke-dasharray:none" />
    <path
       d="M 768.0,48.33309524416879 L 748.6669047558312,29.0 L 787.3330952441688,29.0 L 768.0,48.33309524416879 Z"
       id="path85"
       style="vector-effect:non-scaling-stroke;-inkscape-stroke:hairline;stroke-width:0.26458333;stroke-dasharray:none" />
    <path
       d="M 576.0,48.33309524416879 L 556.6669047558312,29.0 L 595.3330952441688,29.0 L 576.0,48.33309524416879 Z"
       id="path86"
       style="vector-effect:non-scaling-stroke;-inkscape-stroke:hairline;stroke-width:0.26458333;stroke-dasharray:none" />
    <path
       d="M 628.6669047558312,149.0 L 648.0,129.66690475583118 L 667.3330952441688,149.0 L 628.6669047558312,149.0 Z"
       id="path87"
       style="vector-effect:non-scaling-stroke;-inkscape-stroke:hairline;stroke-width:0.26458333;stroke-dasharray:none" />
    <path
       d="M 288.0,48.33309524416879 L 268.6669047558312,29.0 L 307.3330952441688,29.0 L 288.0,48.33309524416879 Z"
       id="path88"
       style="vector-effect:non-scaling-stroke;-inkscape-stroke:hairline;stroke-width:0.26458333;stroke-dasharray:none" />
    <path
       d="M 960.0,48.33309524416879 L 940.6669047558312,29.0 L 979.3330952441688,29.0 L 960.0,48.33309524416879 Z"
       id="path89"
       style="vector-effect:non-scaling-stroke;-inkscape-stroke:hairline;stroke-width:0.26458333;stroke-dasharray:none" />
    <path
       d="M 340.6669047558312,149.0 L 360.0,129.66690475583118 L 379.3330952441688,149.0 L 340.6669047558312,149.0 Z"
       id="path90"
       style="vector-effect:non-scaling-stroke;-inkscape-stroke:hairline;stroke-width:0.26458333;stroke-dasharray:none" />
    <path
       d="M 1152.0,57.66690475583121 L 1154.0,59.66690475583121 L 1154.0,94.3330952441688 L 1152.0,96.3330952441688 L 1132.6669047558312,77.0 L 1152.0,57.66690475583121 Z"
       id="path91"
       style="vector-effect:non-scaling-stroke;-inkscape-stroke:hairline;stroke-width:0.26458333;stroke-dasharray:none" />
    <path
       d="M 864.0,48.33309524416879 L 844.6669047558312,29.0 L 883.3330952441688,29.0 L 864.0,48.33309524416879 Z"
       id="path92"
       style="vector-effect:non-scaling-stroke;-inkscape-stroke:hairline;stroke-width:0.26458333;stroke-dasharray:none" />
    <path
       d="M 432.0,48.33309524416879 L 412.6669047558312,29.0 L 451.3330952441688,29.0 L 432.0,48.33309524416879 Z"
       id="path93"
       style="vector-effect:non-scaling-stroke;-inkscape-stroke:hairline;stroke-width:0.26458333;stroke-dasharray:none" />
    <path
       d="M 724.6669047558312,149.0 L 744.0,129.66690475583118 L 763.3330952441688,149.0 L 724.6669047558312,149.0 Z"
       id="path94"
       style="vector-effect:non-scaling-stroke;-inkscape-stroke:hairline;stroke-width:0.26458333;stroke-dasharray:none" />
    <path
       d="M 484.6669047558312,149.0 L 504.0,129.66690475583118 L 523.3330952441688,149.0 L 484.6669047558312,149.0 Z"
       id="path95"
       style="vector-effect:non-scaling-stroke;-inkscape-stroke:hairline;stroke-width:0.26458333;stroke-dasharray:none" />
    <path
       d="M 964.6669047558312,149.0 L 984.0,129.66690475583118 L 1003.3330952441688,149.0 L 964.6669047558312,149.0 Z"
       id="path96"
       style="vector-effect:non-scaling-stroke;-inkscape-stroke:hairline;stroke-width:0.26458333;stroke-dasharray:none" />
    <path
       d="M 1056.0,48.33309524416879 L 1036.6669047558312,29.0 L 1075.3330952441688,29.0 L 1056.0,48.33309524416879 Z"
       id="path97"
       style="vector-effect:non-scaling-stroke;-inkscape-stroke:hairline;stroke-width:0.26458333;stroke-dasharray:none" />
    <path
       d="M 528.0,48.33309524416879 L 508.6669047558312,29.0 L 547.3330952441688,29.0 L 528.0,48.33309524416879 Z"
       id="path98"
       style="vector-effect:non-scaling-stroke;-inkscape-stroke:hairline;stroke-width:0.26458333;stroke-dasharray:none" />
    <path
       d="M 480.0,48.33309524416879 L 460.6669047558312,29.0 L 499.3330952441688,29.0 L 480.0,48.33309524416879 Z"
       id="path99"
       style="vector-effect:non-scaling-stroke;-inkscape-stroke:hairline;stroke-width:0.26458333;stroke-dasharray:none" />
    <path
       d="M 816.0,48.33309524416879 L 796.6669047558312,29.0 L 835.3330952441688,29.0 L 816.0,48.33309524416879 Z"
       id="path100"
       style="vector-effect:non-scaling-stroke;-inkscape-stroke:hairline;stroke-width:0.26458333;stroke-dasharray:none" />
    <path
       d="M 262.0,35.66690475583121 L 264.0,33.66690475583121 L 283.3330952441688,53.0 L 264.0,72.33309524416879 L 262.0,70.33309524416879 L 262.0,35.66690475583121 Z"
       id="path101"
       style="vector-effect:non-scaling-stroke;-inkscape-stroke:hairline;stroke-width:0.26458333;stroke-dasharray:none" />
    <path
       d="M 532.6669047558312,149.0 L 552.0,129.66690475583118 L 571.3330952441688,149.0 L 532.6669047558312,149.0 Z"
       id="path102"
       style="vector-effect:non-scaling-stroke;-inkscape-stroke:hairline;stroke-width:0.26458333;stroke-dasharray:none" />
    <path
       d="M 292.6669047558312,149.0 L 312.0,129.66690475583118 L 331.3330952441688,149.0 L 292.6669047558312,149.0 Z"
       id="path103"
       style="vector-effect:non-scaling-stroke;-inkscape-stroke:hairline;stroke-width:0.26458333;stroke-dasharray:none" />
    <path
       d="M 868.6669047558312,149.0 L 888.0,129.66690475583118 L 907.3330952441688,149.0 L 868.6669047558312,149.0 Z"
       id="path104"
       style="vector-effect:non-scaling-stroke;-inkscape-stroke:hairline;stroke-width:0.26458333;stroke-dasharray:none" />
    <path
       d="M 388.6669047558312,149.0 L 408.0,129.66690475583118 L 427.3330952441688,149.0 L 388.6669047558312,149.0 Z"
       id="path105"
       style="vector-effect:non-scaling-stroke;-inkscape-stroke:hairline;stroke-width:0.26458333;stroke-dasharray:none" />
    <path
       d="M 1012.6669047558312,149.0 L 1032.0,129.66690475583118 L 1051.3330952441688,149.0 L 1012.6669047558312,149.0 Z"
       id="path106"
       style="vector-effect:non-scaling-stroke;-inkscape-stroke:hairline;stroke-width:0.26458333;stroke-dasharray:none" />
    <path
       d="M 1108.6669047558312,149.0 L 1128.0,129.66690475583118 L 1147.3330952441688,149.0 L 1108.6669047558312,149.0 Z"
       id="path107"
       style="vector-effect:non-scaling-stroke;-inkscape-stroke:hairline;stroke-width:0.26458333;stroke-dasharray:none" />
    <path
       d="M 1152.0,105.6669047558312 L 1154.0,107.6669047558312 L 1154.0,142.33309524416882 L 1152.0,144.33309524416882 L 1132.6669047558312,125.0 L 1152.0,105.6669047558312 Z"
       id="path108"
       style="vector-effect:non-scaling-stroke;-inkscape-stroke:hairline;stroke-width:0.26458333;stroke-dasharray:none" />
    <path
       d="M 262.0,83.66690475583121 L 264.0,81.66690475583121 L 283.3330952441688,101.0 L 264.0,120.3330952441688 L 262.0,118.3330952441688 L 262.0,83.66690475583121 Z"
       id="path109"
       style="vector-effect:non-scaling-stroke;-inkscape-stroke:hairline;stroke-width:0.26458333;stroke-dasharray:none" />
    <path
       d="M 912.0,48.33309524416879 L 892.6669047558312,29.0 L 931.3330952441688,29.0 L 912.0,48.33309524416879 Z"
       id="path110"
       style="vector-effect:non-scaling-stroke;-inkscape-stroke:hairline;stroke-width:0.26458333;stroke-dasharray:none" />
    <path
       d="M 1152.0,48.33309524416879 L 1132.6669047558312,29.0 L 1154.0,29.0 L 1154.0,46.33309524416879 L 1152.0,48.33309524416879 Z"
       id="path111"
       style="vector-effect:non-scaling-stroke;-inkscape-stroke:hairline;stroke-width:0.26458333;stroke-dasharray:none" />
    <path
       d="M 1008.0,48.33309524416879 L 988.6669047558312,29.0 L 1027.3330952441688,29.0 L 1008.0,48.33309524416879 Z"
       id="path112"
       style="vector-effect:non-scaling-stroke;-inkscape-stroke:hairline;stroke-width:0.26458333;stroke-dasharray:none" />
    <path
       d="M 676.6669047558312,149.0 L 696.0,129.66690475583118 L 715.3330952441688,149.0 L 676.6669047558312,149.0 Z"
       id="path113"
       style="vector-effect:non-scaling-stroke;-inkscape-stroke:hairline;stroke-width:0.26458333;stroke-dasharray:none" />
    <path
       d="M 436.6669047558312,149.0 L 456.0,129.66690475583118 L 475.3330952441688,149.0 L 436.6669047558312,149.0 Z"
       id="path114"
       style="vector-effect:non-scaling-stroke;-inkscape-stroke:hairline;stroke-width:0.26458333;stroke-dasharray:none" />
    <path
       d="M 255.0,178.0 L 1161.0,178.0 L 1161.0,0.0 L 255.0,0.0 L 255.0,178.0 Z"
       id="path115"
       style="vector-effect:non-scaling-stroke;-inkscape-stroke:hairline;stroke-width:0.26458333;stroke-dasharray:none" />
  </g>
</svg>
