<?xml version="1.0" encoding="utf-8" ?>
<svg baseProfile="full" height="300mm" version="1.1" viewBox="0 0 1200 300" width="1200mm" xmlns="http://www.w3.org/2000/svg" xmlns:ev="http://www.w3.org/2001/xml-events" xmlns:xlink="http://www.w3.org/1999/xlink"><defs /><g fill="none" stroke="blue" stroke-width="0.5" transform="translate(-108.0,42.0)"><path d="M 264.0,144.0 L 240.0,168.0 L 264.0,192.0 L 288.0,168.0 L 264.0,144.0 Z" /><path d="M 264.0,96.0 L 240.0,120.0 L 264.0,144.0 L 288.0,120.0 L 264.0,96.0 Z" /><path d="M 264.0,48.0 L 240.0,72.0 L 264.0,96.0 L 288.0,72.0 L 264.0,48.0 Z" /><path d="M 264.0,0.0 L 240.0,24.0 L 264.0,48.0 L 288.0,24.0 L 264.0,0.0 Z" /><path d="M 288.0,168.0 L 264.0,192.0 L 288.0,216.0 L 312.0,192.0 L 288.0,168.0 Z" /><path d="M 288.0,120.0 L 264.0,144.0 L 288.0,168.0 L 312.0,144.0 L 288.0,120.0 Z" /><path d="M 288.0,72.0 L 264.0,96.0 L 288.0,120.0 L 312.0,96.0 L 288.0,72.0 Z" /><path d="M 288.0,24.0 L 264.0,48.0 L 288.0,72.0 L 312.0,48.0 L 288.0,24.0 Z" /><path d="M 312.0,144.0 L 288.0,168.0 L 312.0,192.0 L 336.0,168.0 L 312.0,144.0 Z" /><path d="M 312.0,96.0 L 288.0,120.0 L 312.0,144.0 L 336.0,120.0 L 312.0,96.0 Z" /><path d="M 312.0,48.0 L 288.0,72.0 L 312.0,96.0 L 336.0,72.0 L 312.0,48.0 Z" /><path d="M 312.0,0.0 L 288.0,24.0 L 312.0,48.0 L 336.0,24.0 L 312.0,0.0 Z" /><path d="M 336.0,168.0 L 312.0,192.0 L 336.0,216.0 L 360.0,192.0 L 336.0,168.0 Z" /><path d="M 336.0,120.0 L 312.0,144.0 L 336.0,168.0 L 360.0,144.0 L 336.0,120.0 Z" /><path d="M 336.0,72.0 L 312.0,96.0 L 336.0,120.0 L 360.0,96.0 L 336.0,72.0 Z" /><path d="M 336.0,24.0 L 312.0,48.0 L 336.0,72.0 L 360.0,48.0 L 336.0,24.0 Z" /><path d="M 360.0,144.0 L 336.0,168.0 L 360.0,192.0 L 384.0,168.0 L 360.0,144.0 Z" /><path d="M 360.0,96.0 L 336.0,120.0 L 360.0,144.0 L 384.0,120.0 L 360.0,96.0 Z" /><path d="M 360.0,48.0 L 336.0,72.0 L 360.0,96.0 L 384.0,72.0 L 360.0,48.0 Z" /><path d="M 360.0,0.0 L 336.0,24.0 L 360.0,48.0 L 384.0,24.0 L 360.0,0.0 Z" /><path d="M 384.0,168.0 L 360.0,192.0 L 384.0,216.0 L 408.0,192.0 L 384.0,168.0 Z" /><path d="M 384.0,120.0 L 360.0,144.0 L 384.0,168.0 L 408.0,144.0 L 384.0,120.0 Z" /><path d="M 384.0,72.0 L 360.0,96.0 L 384.0,120.0 L 408.0,96.0 L 384.0,72.0 Z" /><path d="M 384.0,24.0 L 360.0,48.0 L 384.0,72.0 L 408.0,48.0 L 384.0,24.0 Z" /><path d="M 408.0,144.0 L 384.0,168.0 L 408.0,192.0 L 432.0,168.0 L 408.0,144.0 Z" /><path d="M 408.0,96.0 L 384.0,120.0 L 408.0,144.0 L 432.0,120.0 L 408.0,96.0 Z" /><path d="M 408.0,48.0 L 384.0,72.0 L 408.0,96.0 L 432.0,72.0 L 408.0,48.0 Z" /><path d="M 408.0,0.0 L 384.0,24.0 L 408.0,48.0 L 432.0,24.0 L 408.0,0.0 Z" /><path d="M 432.0,168.0 L 408.0,192.0 L 432.0,216.0 L 456.0,192.0 L 432.0,168.0 Z" /><path d="M 432.0,120.0 L 408.0,144.0 L 432.0,168.0 L 456.0,144.0 L 432.0,120.0 Z" /><path d="M 432.0,72.0 L 408.0,96.0 L 432.0,120.0 L 456.0,96.0 L 432.0,72.0 Z" /><path d="M 432.0,24.0 L 408.0,48.0 L 432.0,72.0 L 456.0,48.0 L 432.0,24.0 Z" /><path d="M 456.0,144.0 L 432.0,168.0 L 456.0,192.0 L 480.0,168.0 L 456.0,144.0 Z" /><path d="M 456.0,96.0 L 432.0,120.0 L 456.0,144.0 L 480.0,120.0 L 456.0,96.0 Z" /><path d="M 456.0,48.0 L 432.0,72.0 L 456.0,96.0 L 480.0,72.0 L 456.0,48.0 Z" /><path d="M 456.0,0.0 L 432.0,24.0 L 456.0,48.0 L 480.0,24.0 L 456.0,0.0 Z" /><path d="M 480.0,168.0 L 456.0,192.0 L 480.0,216.0 L 504.0,192.0 L 480.0,168.0 Z" /><path d="M 480.0,120.0 L 456.0,144.0 L 480.0,168.0 L 504.0,144.0 L 480.0,120.0 Z" /><path d="M 480.0,72.0 L 456.0,96.0 L 480.0,120.0 L 504.0,96.0 L 480.0,72.0 Z" /><path d="M 480.0,24.0 L 456.0,48.0 L 480.0,72.0 L 504.0,48.0 L 480.0,24.0 Z" /><path d="M 504.0,144.0 L 480.0,168.0 L 504.0,192.0 L 528.0,168.0 L 504.0,144.0 Z" /><path d="M 504.0,96.0 L 480.0,120.0 L 504.0,144.0 L 528.0,120.0 L 504.0,96.0 Z" /><path d="M 504.0,48.0 L 480.0,72.0 L 504.0,96.0 L 528.0,72.0 L 504.0,48.0 Z" /><path d="M 504.0,0.0 L 480.0,24.0 L 504.0,48.0 L 528.0,24.0 L 504.0,0.0 Z" /><path d="M 528.0,168.0 L 504.0,192.0 L 528.0,216.0 L 552.0,192.0 L 528.0,168.0 Z" /><path d="M 528.0,120.0 L 504.0,144.0 L 528.0,168.0 L 552.0,144.0 L 528.0,120.0 Z" /><path d="M 528.0,72.0 L 504.0,96.0 L 528.0,120.0 L 552.0,96.0 L 528.0,72.0 Z" /><path d="M 528.0,24.0 L 504.0,48.0 L 528.0,72.0 L 552.0,48.0 L 528.0,24.0 Z" /><path d="M 552.0,144.0 L 528.0,168.0 L 552.0,192.0 L 576.0,168.0 L 552.0,144.0 Z" /><path d="M 552.0,96.0 L 528.0,120.0 L 552.0,144.0 L 576.0,120.0 L 552.0,96.0 Z" /><path d="M 552.0,48.0 L 528.0,72.0 L 552.0,96.0 L 576.0,72.0 L 552.0,48.0 Z" /><path d="M 552.0,0.0 L 528.0,24.0 L 552.0,48.0 L 576.0,24.0 L 552.0,0.0 Z" /><path d="M 576.0,168.0 L 552.0,192.0 L 576.0,216.0 L 600.0,192.0 L 576.0,168.0 Z" /><path d="M 576.0,120.0 L 552.0,144.0 L 576.0,168.0 L 600.0,144.0 L 576.0,120.0 Z" /><path d="M 576.0,72.0 L 552.0,96.0 L 576.0,120.0 L 600.0,96.0 L 576.0,72.0 Z" /><path d="M 576.0,24.0 L 552.0,48.0 L 576.0,72.0 L 600.0,48.0 L 576.0,24.0 Z" /><path d="M 600.0,144.0 L 576.0,168.0 L 600.0,192.0 L 624.0,168.0 L 600.0,144.0 Z" /><path d="M 600.0,96.0 L 576.0,120.0 L 600.0,144.0 L 624.0,120.0 L 600.0,96.0 Z" /><path d="M 600.0,48.0 L 576.0,72.0 L 600.0,96.0 L 624.0,72.0 L 600.0,48.0 Z" /><path d="M 600.0,0.0 L 576.0,24.0 L 600.0,48.0 L 624.0,24.0 L 600.0,0.0 Z" /><path d="M 624.0,168.0 L 600.0,192.0 L 624.0,216.0 L 648.0,192.0 L 624.0,168.0 Z" /><path d="M 624.0,120.0 L 600.0,144.0 L 624.0,168.0 L 648.0,144.0 L 624.0,120.0 Z" /><path d="M 624.0,72.0 L 600.0,96.0 L 624.0,120.0 L 648.0,96.0 L 624.0,72.0 Z" /><path d="M 624.0,24.0 L 600.0,48.0 L 624.0,72.0 L 648.0,48.0 L 624.0,24.0 Z" /><path d="M 648.0,144.0 L 624.0,168.0 L 648.0,192.0 L 672.0,168.0 L 648.0,144.0 Z" /><path d="M 648.0,96.0 L 624.0,120.0 L 648.0,144.0 L 672.0,120.0 L 648.0,96.0 Z" /><path d="M 648.0,48.0 L 624.0,72.0 L 648.0,96.0 L 672.0,72.0 L 648.0,48.0 Z" /><path d="M 648.0,0.0 L 624.0,24.0 L 648.0,48.0 L 672.0,24.0 L 648.0,0.0 Z" /><path d="M 672.0,168.0 L 648.0,192.0 L 672.0,216.0 L 696.0,192.0 L 672.0,168.0 Z" /><path d="M 672.0,120.0 L 648.0,144.0 L 672.0,168.0 L 696.0,144.0 L 672.0,120.0 Z" /><path d="M 672.0,72.0 L 648.0,96.0 L 672.0,120.0 L 696.0,96.0 L 672.0,72.0 Z" /><path d="M 672.0,24.0 L 648.0,48.0 L 672.0,72.0 L 696.0,48.0 L 672.0,24.0 Z" /><path d="M 696.0,144.0 L 672.0,168.0 L 696.0,192.0 L 720.0,168.0 L 696.0,144.0 Z" /><path d="M 696.0,96.0 L 672.0,120.0 L 696.0,144.0 L 720.0,120.0 L 696.0,96.0 Z" /><path d="M 696.0,48.0 L 672.0,72.0 L 696.0,96.0 L 720.0,72.0 L 696.0,48.0 Z" /><path d="M 696.0,0.0 L 672.0,24.0 L 696.0,48.0 L 720.0,24.0 L 696.0,0.0 Z" /><path d="M 720.0,168.0 L 696.0,192.0 L 720.0,216.0 L 744.0,192.0 L 720.0,168.0 Z" /><path d="M 720.0,120.0 L 696.0,144.0 L 720.0,168.0 L 744.0,144.0 L 720.0,120.0 Z" /><path d="M 720.0,72.0 L 696.0,96.0 L 720.0,120.0 L 744.0,96.0 L 720.0,72.0 Z" /><path d="M 720.0,24.0 L 696.0,48.0 L 720.0,72.0 L 744.0,48.0 L 720.0,24.0 Z" /><path d="M 744.0,144.0 L 720.0,168.0 L 744.0,192.0 L 768.0,168.0 L 744.0,144.0 Z" /><path d="M 744.0,96.0 L 720.0,120.0 L 744.0,144.0 L 768.0,120.0 L 744.0,96.0 Z" /><path d="M 744.0,48.0 L 720.0,72.0 L 744.0,96.0 L 768.0,72.0 L 744.0,48.0 Z" /><path d="M 744.0,0.0 L 720.0,24.0 L 744.0,48.0 L 768.0,24.0 L 744.0,0.0 Z" /><path d="M 768.0,168.0 L 744.0,192.0 L 768.0,216.0 L 792.0,192.0 L 768.0,168.0 Z" /><path d="M 768.0,120.0 L 744.0,144.0 L 768.0,168.0 L 792.0,144.0 L 768.0,120.0 Z" /><path d="M 768.0,72.0 L 744.0,96.0 L 768.0,120.0 L 792.0,96.0 L 768.0,72.0 Z" /><path d="M 768.0,24.0 L 744.0,48.0 L 768.0,72.0 L 792.0,48.0 L 768.0,24.0 Z" /><path d="M 792.0,144.0 L 768.0,168.0 L 792.0,192.0 L 816.0,168.0 L 792.0,144.0 Z" /><path d="M 792.0,96.0 L 768.0,120.0 L 792.0,144.0 L 816.0,120.0 L 792.0,96.0 Z" /><path d="M 792.0,48.0 L 768.0,72.0 L 792.0,96.0 L 816.0,72.0 L 792.0,48.0 Z" /><path d="M 792.0,0.0 L 768.0,24.0 L 792.0,48.0 L 816.0,24.0 L 792.0,0.0 Z" /><path d="M 816.0,168.0 L 792.0,192.0 L 816.0,216.0 L 840.0,192.0 L 816.0,168.0 Z" /><path d="M 816.0,120.0 L 792.0,144.0 L 816.0,168.0 L 840.0,144.0 L 816.0,120.0 Z" /><path d="M 816.0,72.0 L 792.0,96.0 L 816.0,120.0 L 840.0,96.0 L 816.0,72.0 Z" /><path d="M 816.0,24.0 L 792.0,48.0 L 816.0,72.0 L 840.0,48.0 L 816.0,24.0 Z" /><path d="M 840.0,144.0 L 816.0,168.0 L 840.0,192.0 L 864.0,168.0 L 840.0,144.0 Z" /><path d="M 840.0,96.0 L 816.0,120.0 L 840.0,144.0 L 864.0,120.0 L 840.0,96.0 Z" /><path d="M 840.0,48.0 L 816.0,72.0 L 840.0,96.0 L 864.0,72.0 L 840.0,48.0 Z" /><path d="M 840.0,0.0 L 816.0,24.0 L 840.0,48.0 L 864.0,24.0 L 840.0,0.0 Z" /><path d="M 864.0,168.0 L 840.0,192.0 L 864.0,216.0 L 888.0,192.0 L 864.0,168.0 Z" /><path d="M 864.0,120.0 L 840.0,144.0 L 864.0,168.0 L 888.0,144.0 L 864.0,120.0 Z" /><path d="M 864.0,72.0 L 840.0,96.0 L 864.0,120.0 L 888.0,96.0 L 864.0,72.0 Z" /><path d="M 864.0,24.0 L 840.0,48.0 L 864.0,72.0 L 888.0,48.0 L 864.0,24.0 Z" /><path d="M 888.0,144.0 L 864.0,168.0 L 888.0,192.0 L 912.0,168.0 L 888.0,144.0 Z" /><path d="M 888.0,96.0 L 864.0,120.0 L 888.0,144.0 L 912.0,120.0 L 888.0,96.0 Z" /><path d="M 888.0,48.0 L 864.0,72.0 L 888.0,96.0 L 912.0,72.0 L 888.0,48.0 Z" /><path d="M 888.0,0.0 L 864.0,24.0 L 888.0,48.0 L 912.0,24.0 L 888.0,0.0 Z" /><path d="M 912.0,168.0 L 888.0,192.0 L 912.0,216.0 L 936.0,192.0 L 912.0,168.0 Z" /><path d="M 912.0,120.0 L 888.0,144.0 L 912.0,168.0 L 936.0,144.0 L 912.0,120.0 Z" /><path d="M 912.0,72.0 L 888.0,96.0 L 912.0,120.0 L 936.0,96.0 L 912.0,72.0 Z" /><path d="M 912.0,24.0 L 888.0,48.0 L 912.0,72.0 L 936.0,48.0 L 912.0,24.0 Z" /><path d="M 936.0,144.0 L 912.0,168.0 L 936.0,192.0 L 960.0,168.0 L 936.0,144.0 Z" /><path d="M 936.0,96.0 L 912.0,120.0 L 936.0,144.0 L 960.0,120.0 L 936.0,96.0 Z" /><path d="M 936.0,48.0 L 912.0,72.0 L 936.0,96.0 L 960.0,72.0 L 936.0,48.0 Z" /><path d="M 936.0,0.0 L 912.0,24.0 L 936.0,48.0 L 960.0,24.0 L 936.0,0.0 Z" /><path d="M 960.0,168.0 L 936.0,192.0 L 960.0,216.0 L 984.0,192.0 L 960.0,168.0 Z" /><path d="M 960.0,120.0 L 936.0,144.0 L 960.0,168.0 L 984.0,144.0 L 960.0,120.0 Z" /><path d="M 960.0,72.0 L 936.0,96.0 L 960.0,120.0 L 984.0,96.0 L 960.0,72.0 Z" /><path d="M 960.0,24.0 L 936.0,48.0 L 960.0,72.0 L 984.0,48.0 L 960.0,24.0 Z" /><path d="M 984.0,144.0 L 960.0,168.0 L 984.0,192.0 L 1008.0,168.0 L 984.0,144.0 Z" /><path d="M 984.0,96.0 L 960.0,120.0 L 984.0,144.0 L 1008.0,120.0 L 984.0,96.0 Z" /><path d="M 984.0,48.0 L 960.0,72.0 L 984.0,96.0 L 1008.0,72.0 L 984.0,48.0 Z" /><path d="M 984.0,0.0 L 960.0,24.0 L 984.0,48.0 L 1008.0,24.0 L 984.0,0.0 Z" /><path d="M 1008.0,168.0 L 984.0,192.0 L 1008.0,216.0 L 1032.0,192.0 L 1008.0,168.0 Z" /><path d="M 1008.0,120.0 L 984.0,144.0 L 1008.0,168.0 L 1032.0,144.0 L 1008.0,120.0 Z" /><path d="M 1008.0,72.0 L 984.0,96.0 L 1008.0,120.0 L 1032.0,96.0 L 1008.0,72.0 Z" /><path d="M 1008.0,24.0 L 984.0,48.0 L 1008.0,72.0 L 1032.0,48.0 L 1008.0,24.0 Z" /><path d="M 1032.0,144.0 L 1008.0,168.0 L 1032.0,192.0 L 1056.0,168.0 L 1032.0,144.0 Z" /><path d="M 1032.0,96.0 L 1008.0,120.0 L 1032.0,144.0 L 1056.0,120.0 L 1032.0,96.0 Z" /><path d="M 1032.0,48.0 L 1008.0,72.0 L 1032.0,96.0 L 1056.0,72.0 L 1032.0,48.0 Z" /><path d="M 1032.0,0.0 L 1008.0,24.0 L 1032.0,48.0 L 1056.0,24.0 L 1032.0,0.0 Z" /><path d="M 1056.0,168.0 L 1032.0,192.0 L 1056.0,216.0 L 1080.0,192.0 L 1056.0,168.0 Z" /><path d="M 1056.0,120.0 L 1032.0,144.0 L 1056.0,168.0 L 1080.0,144.0 L 1056.0,120.0 Z" /><path d="M 1056.0,72.0 L 1032.0,96.0 L 1056.0,120.0 L 1080.0,96.0 L 1056.0,72.0 Z" /><path d="M 1056.0,24.0 L 1032.0,48.0 L 1056.0,72.0 L 1080.0,48.0 L 1056.0,24.0 Z" /><path d="M 1080.0,144.0 L 1056.0,168.0 L 1080.0,192.0 L 1104.0,168.0 L 1080.0,144.0 Z" /><path d="M 1080.0,96.0 L 1056.0,120.0 L 1080.0,144.0 L 1104.0,120.0 L 1080.0,96.0 Z" /><path d="M 1080.0,48.0 L 1056.0,72.0 L 1080.0,96.0 L 1104.0,72.0 L 1080.0,48.0 Z" /><path d="M 1080.0,0.0 L 1056.0,24.0 L 1080.0,48.0 L 1104.0,24.0 L 1080.0,0.0 Z" /><path d="M 1104.0,168.0 L 1080.0,192.0 L 1104.0,216.0 L 1128.0,192.0 L 1104.0,168.0 Z" /><path d="M 1104.0,120.0 L 1080.0,144.0 L 1104.0,168.0 L 1128.0,144.0 L 1104.0,120.0 Z" /><path d="M 1104.0,72.0 L 1080.0,96.0 L 1104.0,120.0 L 1128.0,96.0 L 1104.0,72.0 Z" /><path d="M 1104.0,24.0 L 1080.0,48.0 L 1104.0,72.0 L 1128.0,48.0 L 1104.0,24.0 Z" /><path d="M 1128.0,144.0 L 1104.0,168.0 L 1128.0,192.0 L 1152.0,168.0 L 1128.0,144.0 Z" /><path d="M 1128.0,96.0 L 1104.0,120.0 L 1128.0,144.0 L 1152.0,120.0 L 1128.0,96.0 Z" /><path d="M 1128.0,48.0 L 1104.0,72.0 L 1128.0,96.0 L 1152.0,72.0 L 1128.0,48.0 Z" /><path d="M 1128.0,0.0 L 1104.0,24.0 L 1128.0,48.0 L 1152.0,24.0 L 1128.0,0.0 Z" /><path d="M 1152.0,168.0 L 1128.0,192.0 L 1152.0,216.0 L 1176.0,192.0 L 1152.0,168.0 Z" /><path d="M 1152.0,120.0 L 1128.0,144.0 L 1152.0,168.0 L 1176.0,144.0 L 1152.0,120.0 Z" /><path d="M 1152.0,72.0 L 1128.0,96.0 L 1152.0,120.0 L 1176.0,96.0 L 1152.0,72.0 Z" /><path d="M 1152.0,24.0 L 1128.0,48.0 L 1152.0,72.0 L 1176.0,48.0 L 1152.0,24.0 Z" /></g></svg>