<?xml version="1.0" encoding="UTF-8" standalone="no"?>
<svg
   height="300mm"
   version="1.1"
   viewBox="0 0 1200 300"
   width="1200mm"
   id="svg115"
   sodipodi:docname="tramo1.4_MEDIDAS.svg"
   inkscape:version="1.4.2 (2aeb623e1d, 2025-05-12)"
   xmlns:inkscape="http://www.inkscape.org/namespaces/inkscape"
   xmlns:sodipodi="http://sodipodi.sourceforge.net/DTD/sodipodi-0.dtd"
   xmlns="http://www.w3.org/2000/svg"
   xmlns:svg="http://www.w3.org/2000/svg">
  <sodipodi:namedview
     id="namedview115"
     pagecolor="#ffffff"
     bordercolor="#666666"
     borderopacity="1.0"
     inkscape:showpageshadow="2"
     inkscape:pageopacity="0.0"
     inkscape:pagecheckerboard="0"
     inkscape:deskcolor="#d1d1d1"
     inkscape:document-units="mm"
     inkscape:zoom="0.18642101"
     inkscape:cx="2124.2241"
     inkscape:cy="-85.827236"
     inkscape:window-width="1920"
     inkscape:window-height="1011"
     inkscape:window-x="0"
     inkscape:window-y="0"
     inkscape:window-maximized="1"
     inkscape:current-layer="svg115" />
  <defs
     id="defs1">
    <marker
       style="overflow:visible"
       id="Stop"
       refX="0"
       refY="0"
       orient="auto"
       inkscape:stockid="Stop"
       markerWidth="1"
       markerHeight="1"
       viewBox="0 0 1 1"
       inkscape:isstock="true"
       inkscape:collect="always"
       preserveAspectRatio="xMidYMid">
      <path
         style="fill:none;stroke:context-stroke;stroke-width:1"
         d="M 0,4 V -4"
         id="path203" />
    </marker>
  </defs>
  <path
     style="fill:none;stroke:#000000;stroke-width:1.265;stroke-linecap:butt;stroke-linejoin:miter;stroke-dasharray:none;stroke-opacity:1;marker-start:url(#Stop);marker-end:url(#Stop)"
     d="M 106.23989,61.75 V 238.25"
     id="path202" />
  <text
     xml:space="preserve"
     style="font-size:25.4px;line-height:1.25;font-family:'Noto Mono';-inkscape-font-specification:'Noto Mono';word-spacing:0px;stroke-width:0.264583"
     x="41.633839"
     y="159.06612"
     id="text203"><tspan
       sodipodi:role="line"
       id="tspan203"
       style="stroke-width:0.264583"
       x="41.633839"
       y="159.06612">178</tspan></text>
  <text
     xml:space="preserve"
     style="font-size:25.4px;line-height:1.25;font-family:'Noto Mono';-inkscape-font-specification:'Noto Mono';word-spacing:0px;stroke-width:0.264583"
     x="478.27206"
     y="40.147392"
     id="text203-6"><tspan
       sodipodi:role="line"
       id="tspan203-7"
       style="stroke-width:0.264583"
       x="478.27206"
       y="40.147392">Tabica 1.4 y 1.5</tspan></text>
  <path
     style="fill:none;stroke:#000000;stroke-width:1.265;stroke-linecap:butt;stroke-linejoin:miter;stroke-dasharray:none;stroke-opacity:1;marker-start:url(#Stop);marker-end:url(#Stop)"
     d="M 1072.3596,90 V 210"
     id="path204"
     sodipodi:nodetypes="cc" />
  <text
     xml:space="preserve"
     style="font-size:25.4px;line-height:1.25;font-family:'Noto Mono';-inkscape-font-specification:'Noto Mono';word-spacing:0px;stroke-width:0.264583"
     x="1096.1857"
     y="159.19633"
     id="text204"><tspan
       sodipodi:role="line"
       id="tspan204"
       style="stroke-width:0.264583"
       x="1096.1857"
       y="159.19633">120</tspan></text>
  <path
     style="fill:none;stroke:#000000;stroke-width:1.265;stroke-linecap:butt;stroke-linejoin:miter;stroke-dasharray:none;stroke-opacity:1;marker-start:url(#Stop);marker-end:url(#Stop)"
     d="M 1052.0164,253.59593 H 147.51523"
     id="path205"
     sodipodi:nodetypes="cc" />
  <text
     xml:space="preserve"
     style="font-size:25.4px;line-height:1.25;font-family:'Noto Mono';-inkscape-font-specification:'Noto Mono';word-spacing:0px;stroke-width:0.264583"
     x="577.0257"
     y="281.50305"
     id="text205"><tspan
       sodipodi:role="line"
       id="tspan205"
       style="stroke-width:0.264583"
       x="577.0257"
       y="281.50305">906</tspan></text>
  <g
     fill="none"
     stroke="#0000ff"
     stroke-width="0.5"
     transform="translate(-108.23418,61)"
     id="g115"
     style="vector-effect:non-scaling-stroke;stroke-width:0.264583;stroke-dasharray:none;-inkscape-stroke:hairline">
    <path
       d="M 288,105.6669 307.3331,125 288,144.3331 268.6669,125 Z"
       id="path1"
       style="vector-effect:non-scaling-stroke;stroke-width:0.264583;stroke-dasharray:none;-inkscape-stroke:hairline" />
    <path
       d="M 288,57.666905 307.3331,77 288,96.333095 268.6669,77 Z"
       id="path2"
       style="vector-effect:non-scaling-stroke;stroke-width:0.264583;stroke-dasharray:none;-inkscape-stroke:hairline" />
    <path
       d="M 312,81.666905 331.3331,101 312,120.3331 292.6669,101 Z"
       id="path3"
       style="vector-effect:non-scaling-stroke;stroke-width:0.264583;stroke-dasharray:none;-inkscape-stroke:hairline" />
    <path
       d="M 312,33.666905 331.3331,53 312,72.333095 292.6669,53 Z"
       id="path4"
       style="vector-effect:non-scaling-stroke;stroke-width:0.264583;stroke-dasharray:none;-inkscape-stroke:hairline" />
    <path
       d="M 336,105.6669 355.3331,125 336,144.3331 316.6669,125 Z"
       id="path5"
       style="vector-effect:non-scaling-stroke;stroke-width:0.264583;stroke-dasharray:none;-inkscape-stroke:hairline" />
    <path
       d="M 336,57.666905 355.3331,77 336,96.333095 316.6669,77 Z"
       id="path6"
       style="vector-effect:non-scaling-stroke;stroke-width:0.264583;stroke-dasharray:none;-inkscape-stroke:hairline" />
    <path
       d="M 360,81.666905 379.3331,101 360,120.3331 340.6669,101 Z"
       id="path7"
       style="vector-effect:non-scaling-stroke;stroke-width:0.264583;stroke-dasharray:none;-inkscape-stroke:hairline" />
    <path
       d="M 360,33.666905 379.3331,53 360,72.333095 340.6669,53 Z"
       id="path8"
       style="vector-effect:non-scaling-stroke;stroke-width:0.264583;stroke-dasharray:none;-inkscape-stroke:hairline" />
    <path
       d="M 384,105.6669 403.3331,125 384,144.3331 364.6669,125 Z"
       id="path9"
       style="vector-effect:non-scaling-stroke;stroke-width:0.264583;stroke-dasharray:none;-inkscape-stroke:hairline" />
    <path
       d="M 384,57.666905 403.3331,77 384,96.333095 364.6669,77 Z"
       id="path10"
       style="vector-effect:non-scaling-stroke;stroke-width:0.264583;stroke-dasharray:none;-inkscape-stroke:hairline" />
    <path
       d="M 408,81.666905 427.3331,101 408,120.3331 388.6669,101 Z"
       id="path11"
       style="vector-effect:non-scaling-stroke;stroke-width:0.264583;stroke-dasharray:none;-inkscape-stroke:hairline" />
    <path
       d="M 408,33.666905 427.3331,53 408,72.333095 388.6669,53 Z"
       id="path12"
       style="vector-effect:non-scaling-stroke;stroke-width:0.264583;stroke-dasharray:none;-inkscape-stroke:hairline" />
    <path
       d="M 432,105.6669 451.3331,125 432,144.3331 412.6669,125 Z"
       id="path13"
       style="vector-effect:non-scaling-stroke;stroke-width:0.264583;stroke-dasharray:none;-inkscape-stroke:hairline" />
    <path
       d="M 432,57.666905 451.3331,77 432,96.333095 412.6669,77 Z"
       id="path14"
       style="vector-effect:non-scaling-stroke;stroke-width:0.264583;stroke-dasharray:none;-inkscape-stroke:hairline" />
    <path
       d="M 456,81.666905 475.3331,101 456,120.3331 436.6669,101 Z"
       id="path15"
       style="vector-effect:non-scaling-stroke;stroke-width:0.264583;stroke-dasharray:none;-inkscape-stroke:hairline" />
    <path
       d="M 456,33.666905 475.3331,53 456,72.333095 436.6669,53 Z"
       id="path16"
       style="vector-effect:non-scaling-stroke;stroke-width:0.264583;stroke-dasharray:none;-inkscape-stroke:hairline" />
    <path
       d="M 480,105.6669 499.3331,125 480,144.3331 460.6669,125 Z"
       id="path17"
       style="vector-effect:non-scaling-stroke;stroke-width:0.264583;stroke-dasharray:none;-inkscape-stroke:hairline" />
    <path
       d="M 480,57.666905 499.3331,77 480,96.333095 460.6669,77 Z"
       id="path18"
       style="vector-effect:non-scaling-stroke;stroke-width:0.264583;stroke-dasharray:none;-inkscape-stroke:hairline" />
    <path
       d="M 504,81.666905 523.3331,101 504,120.3331 484.6669,101 Z"
       id="path19"
       style="vector-effect:non-scaling-stroke;stroke-width:0.264583;stroke-dasharray:none;-inkscape-stroke:hairline" />
    <path
       d="M 504,33.666905 523.3331,53 504,72.333095 484.6669,53 Z"
       id="path20"
       style="vector-effect:non-scaling-stroke;stroke-width:0.264583;stroke-dasharray:none;-inkscape-stroke:hairline" />
    <path
       d="M 528,105.6669 547.3331,125 528,144.3331 508.6669,125 Z"
       id="path21"
       style="vector-effect:non-scaling-stroke;stroke-width:0.264583;stroke-dasharray:none;-inkscape-stroke:hairline" />
    <path
       d="M 528,57.666905 547.3331,77 528,96.333095 508.6669,77 Z"
       id="path22"
       style="vector-effect:non-scaling-stroke;stroke-width:0.264583;stroke-dasharray:none;-inkscape-stroke:hairline" />
    <path
       d="M 552,81.666905 571.3331,101 552,120.3331 532.6669,101 Z"
       id="path23"
       style="vector-effect:non-scaling-stroke;stroke-width:0.264583;stroke-dasharray:none;-inkscape-stroke:hairline" />
    <path
       d="M 552,33.666905 571.3331,53 552,72.333095 532.6669,53 Z"
       id="path24"
       style="vector-effect:non-scaling-stroke;stroke-width:0.264583;stroke-dasharray:none;-inkscape-stroke:hairline" />
    <path
       d="M 576,105.6669 595.3331,125 576,144.3331 556.6669,125 Z"
       id="path25"
       style="vector-effect:non-scaling-stroke;stroke-width:0.264583;stroke-dasharray:none;-inkscape-stroke:hairline" />
    <path
       d="M 576,57.666905 595.3331,77 576,96.333095 556.6669,77 Z"
       id="path26"
       style="vector-effect:non-scaling-stroke;stroke-width:0.264583;stroke-dasharray:none;-inkscape-stroke:hairline" />
    <path
       d="M 600,81.666905 619.3331,101 600,120.3331 580.6669,101 Z"
       id="path27"
       style="vector-effect:non-scaling-stroke;stroke-width:0.264583;stroke-dasharray:none;-inkscape-stroke:hairline" />
    <path
       d="M 600,33.666905 619.3331,53 600,72.333095 580.6669,53 Z"
       id="path28"
       style="vector-effect:non-scaling-stroke;stroke-width:0.264583;stroke-dasharray:none;-inkscape-stroke:hairline" />
    <path
       d="M 624,105.6669 643.3331,125 624,144.3331 604.6669,125 Z"
       id="path29"
       style="vector-effect:non-scaling-stroke;stroke-width:0.264583;stroke-dasharray:none;-inkscape-stroke:hairline" />
    <path
       d="M 624,57.666905 643.3331,77 624,96.333095 604.6669,77 Z"
       id="path30"
       style="vector-effect:non-scaling-stroke;stroke-width:0.264583;stroke-dasharray:none;-inkscape-stroke:hairline" />
    <path
       d="M 648,81.666905 667.3331,101 648,120.3331 628.6669,101 Z"
       id="path31"
       style="vector-effect:non-scaling-stroke;stroke-width:0.264583;stroke-dasharray:none;-inkscape-stroke:hairline" />
    <path
       d="M 648,33.666905 667.3331,53 648,72.333095 628.6669,53 Z"
       id="path32"
       style="vector-effect:non-scaling-stroke;stroke-width:0.264583;stroke-dasharray:none;-inkscape-stroke:hairline" />
    <path
       d="M 672,105.6669 691.3331,125 672,144.3331 652.6669,125 Z"
       id="path33"
       style="vector-effect:non-scaling-stroke;stroke-width:0.264583;stroke-dasharray:none;-inkscape-stroke:hairline" />
    <path
       d="M 672,57.666905 691.3331,77 672,96.333095 652.6669,77 Z"
       id="path34"
       style="vector-effect:non-scaling-stroke;stroke-width:0.264583;stroke-dasharray:none;-inkscape-stroke:hairline" />
    <path
       d="M 696,81.666905 715.3331,101 696,120.3331 676.6669,101 Z"
       id="path35"
       style="vector-effect:non-scaling-stroke;stroke-width:0.264583;stroke-dasharray:none;-inkscape-stroke:hairline" />
    <path
       d="M 696,33.666905 715.3331,53 696,72.333095 676.6669,53 Z"
       id="path36"
       style="vector-effect:non-scaling-stroke;stroke-width:0.264583;stroke-dasharray:none;-inkscape-stroke:hairline" />
    <path
       d="M 720,105.6669 739.3331,125 720,144.3331 700.6669,125 Z"
       id="path37"
       style="vector-effect:non-scaling-stroke;stroke-width:0.264583;stroke-dasharray:none;-inkscape-stroke:hairline" />
    <path
       d="M 720,57.666905 739.3331,77 720,96.333095 700.6669,77 Z"
       id="path38"
       style="vector-effect:non-scaling-stroke;stroke-width:0.264583;stroke-dasharray:none;-inkscape-stroke:hairline" />
    <path
       d="M 744,81.666905 763.3331,101 744,120.3331 724.6669,101 Z"
       id="path39"
       style="vector-effect:non-scaling-stroke;stroke-width:0.264583;stroke-dasharray:none;-inkscape-stroke:hairline" />
    <path
       d="M 744,33.666905 763.3331,53 744,72.333095 724.6669,53 Z"
       id="path40"
       style="vector-effect:non-scaling-stroke;stroke-width:0.264583;stroke-dasharray:none;-inkscape-stroke:hairline" />
    <path
       d="M 768,105.6669 787.3331,125 768,144.3331 748.6669,125 Z"
       id="path41"
       style="vector-effect:non-scaling-stroke;stroke-width:0.264583;stroke-dasharray:none;-inkscape-stroke:hairline" />
    <path
       d="M 768,57.666905 787.3331,77 768,96.333095 748.6669,77 Z"
       id="path42"
       style="vector-effect:non-scaling-stroke;stroke-width:0.264583;stroke-dasharray:none;-inkscape-stroke:hairline" />
    <path
       d="M 792,81.666905 811.3331,101 792,120.3331 772.6669,101 Z"
       id="path43"
       style="vector-effect:non-scaling-stroke;stroke-width:0.264583;stroke-dasharray:none;-inkscape-stroke:hairline" />
    <path
       d="M 792,33.666905 811.3331,53 792,72.333095 772.6669,53 Z"
       id="path44"
       style="vector-effect:non-scaling-stroke;stroke-width:0.264583;stroke-dasharray:none;-inkscape-stroke:hairline" />
    <path
       d="M 816,105.6669 835.3331,125 816,144.3331 796.6669,125 Z"
       id="path45"
       style="vector-effect:non-scaling-stroke;stroke-width:0.264583;stroke-dasharray:none;-inkscape-stroke:hairline" />
    <path
       d="M 816,57.666905 835.3331,77 816,96.333095 796.6669,77 Z"
       id="path46"
       style="vector-effect:non-scaling-stroke;stroke-width:0.264583;stroke-dasharray:none;-inkscape-stroke:hairline" />
    <path
       d="M 840,81.666905 859.3331,101 840,120.3331 820.6669,101 Z"
       id="path47"
       style="vector-effect:non-scaling-stroke;stroke-width:0.264583;stroke-dasharray:none;-inkscape-stroke:hairline" />
    <path
       d="M 840,33.666905 859.3331,53 840,72.333095 820.6669,53 Z"
       id="path48"
       style="vector-effect:non-scaling-stroke;stroke-width:0.264583;stroke-dasharray:none;-inkscape-stroke:hairline" />
    <path
       d="M 864,105.6669 883.3331,125 864,144.3331 844.6669,125 Z"
       id="path49"
       style="vector-effect:non-scaling-stroke;stroke-width:0.264583;stroke-dasharray:none;-inkscape-stroke:hairline" />
    <path
       d="M 864,57.666905 883.3331,77 864,96.333095 844.6669,77 Z"
       id="path50"
       style="vector-effect:non-scaling-stroke;stroke-width:0.264583;stroke-dasharray:none;-inkscape-stroke:hairline" />
    <path
       d="M 888,81.666905 907.3331,101 888,120.3331 868.6669,101 Z"
       id="path51"
       style="vector-effect:non-scaling-stroke;stroke-width:0.264583;stroke-dasharray:none;-inkscape-stroke:hairline" />
    <path
       d="M 888,33.666905 907.3331,53 888,72.333095 868.6669,53 Z"
       id="path52"
       style="vector-effect:non-scaling-stroke;stroke-width:0.264583;stroke-dasharray:none;-inkscape-stroke:hairline" />
    <path
       d="M 912,105.6669 931.3331,125 912,144.3331 892.6669,125 Z"
       id="path53"
       style="vector-effect:non-scaling-stroke;stroke-width:0.264583;stroke-dasharray:none;-inkscape-stroke:hairline" />
    <path
       d="M 912,57.666905 931.3331,77 912,96.333095 892.6669,77 Z"
       id="path54"
       style="vector-effect:non-scaling-stroke;stroke-width:0.264583;stroke-dasharray:none;-inkscape-stroke:hairline" />
    <path
       d="M 936,81.666905 955.3331,101 936,120.3331 916.6669,101 Z"
       id="path55"
       style="vector-effect:non-scaling-stroke;stroke-width:0.264583;stroke-dasharray:none;-inkscape-stroke:hairline" />
    <path
       d="M 936,33.666905 955.3331,53 936,72.333095 916.6669,53 Z"
       id="path56"
       style="vector-effect:non-scaling-stroke;stroke-width:0.264583;stroke-dasharray:none;-inkscape-stroke:hairline" />
    <path
       d="M 960,105.6669 979.3331,125 960,144.3331 940.6669,125 Z"
       id="path57"
       style="vector-effect:non-scaling-stroke;stroke-width:0.264583;stroke-dasharray:none;-inkscape-stroke:hairline" />
    <path
       d="M 960,57.666905 979.3331,77 960,96.333095 940.6669,77 Z"
       id="path58"
       style="vector-effect:non-scaling-stroke;stroke-width:0.264583;stroke-dasharray:none;-inkscape-stroke:hairline" />
    <path
       d="M 984,81.666905 1003.3331,101 984,120.3331 964.6669,101 Z"
       id="path59"
       style="vector-effect:non-scaling-stroke;stroke-width:0.264583;stroke-dasharray:none;-inkscape-stroke:hairline" />
    <path
       d="M 984,33.666905 1003.3331,53 984,72.333095 964.6669,53 Z"
       id="path60"
       style="vector-effect:non-scaling-stroke;stroke-width:0.264583;stroke-dasharray:none;-inkscape-stroke:hairline" />
    <path
       d="M 1008,105.6669 1027.3331,125 1008,144.3331 988.6669,125 Z"
       id="path61"
       style="vector-effect:non-scaling-stroke;stroke-width:0.264583;stroke-dasharray:none;-inkscape-stroke:hairline" />
    <path
       d="M 1008,57.666905 1027.3331,77 1008,96.333095 988.6669,77 Z"
       id="path62"
       style="vector-effect:non-scaling-stroke;stroke-width:0.264583;stroke-dasharray:none;-inkscape-stroke:hairline" />
    <path
       d="M 1032,81.666905 1051.3331,101 1032,120.3331 1012.6669,101 Z"
       id="path63"
       style="vector-effect:non-scaling-stroke;stroke-width:0.264583;stroke-dasharray:none;-inkscape-stroke:hairline" />
    <path
       d="M 1032,33.666905 1051.3331,53 1032,72.333095 1012.6669,53 Z"
       id="path64"
       style="vector-effect:non-scaling-stroke;stroke-width:0.264583;stroke-dasharray:none;-inkscape-stroke:hairline" />
    <path
       d="M 1056,105.6669 1075.3331,125 1056,144.3331 1036.6669,125 Z"
       id="path65"
       style="vector-effect:non-scaling-stroke;stroke-width:0.264583;stroke-dasharray:none;-inkscape-stroke:hairline" />
    <path
       d="M 1056,57.666905 1075.3331,77 1056,96.333095 1036.6669,77 Z"
       id="path66"
       style="vector-effect:non-scaling-stroke;stroke-width:0.264583;stroke-dasharray:none;-inkscape-stroke:hairline" />
    <path
       d="M 1080,81.666905 1099.3331,101 1080,120.3331 1060.6669,101 Z"
       id="path67"
       style="vector-effect:non-scaling-stroke;stroke-width:0.264583;stroke-dasharray:none;-inkscape-stroke:hairline" />
    <path
       d="M 1080,33.666905 1099.3331,53 1080,72.333095 1060.6669,53 Z"
       id="path68"
       style="vector-effect:non-scaling-stroke;stroke-width:0.264583;stroke-dasharray:none;-inkscape-stroke:hairline" />
    <path
       d="M 1104,105.6669 1123.3331,125 1104,144.3331 1084.6669,125 Z"
       id="path69"
       style="vector-effect:non-scaling-stroke;stroke-width:0.264583;stroke-dasharray:none;-inkscape-stroke:hairline" />
    <path
       d="M 1104,57.666905 1123.3331,77 1104,96.333095 1084.6669,77 Z"
       id="path70"
       style="vector-effect:non-scaling-stroke;stroke-width:0.264583;stroke-dasharray:none;-inkscape-stroke:hairline" />
    <path
       d="M 1128,81.666905 1147.3331,101 1128,120.3331 1108.6669,101 Z"
       id="path71"
       style="vector-effect:non-scaling-stroke;stroke-width:0.264583;stroke-dasharray:none;-inkscape-stroke:hairline" />
    <path
       d="M 1128,33.666905 1147.3331,53 1128,72.333095 1108.6669,53 Z"
       id="path72"
       style="vector-effect:non-scaling-stroke;stroke-width:0.264583;stroke-dasharray:none;-inkscape-stroke:hairline" />
    <path
       d="M 624,48.333095 604.6669,29 H 643.3331 Z"
       id="path73"
       style="vector-effect:non-scaling-stroke;stroke-width:0.264583;stroke-dasharray:none;-inkscape-stroke:hairline" />
    <path
       d="M 262,149 V 131.6669 L 264,129.6669 283.3331,149 Z"
       id="path74"
       style="vector-effect:non-scaling-stroke;stroke-width:0.264583;stroke-dasharray:none;-inkscape-stroke:hairline" />
    <path
       d="M 336,48.333095 316.6669,29 H 355.3331 Z"
       id="path75"
       style="vector-effect:non-scaling-stroke;stroke-width:0.264583;stroke-dasharray:none;-inkscape-stroke:hairline" />
    <path
       d="M 672,48.333095 652.6669,29 H 691.3331 Z"
       id="path76"
       style="vector-effect:non-scaling-stroke;stroke-width:0.264583;stroke-dasharray:none;-inkscape-stroke:hairline" />
    <path
       d="M 772.6669,149 792,129.6669 811.3331,149 Z"
       id="path77"
       style="vector-effect:non-scaling-stroke;stroke-width:0.264583;stroke-dasharray:none;-inkscape-stroke:hairline" />
    <path
       d="M 384,48.333095 364.6669,29 H 403.3331 Z"
       id="path78"
       style="vector-effect:non-scaling-stroke;stroke-width:0.264583;stroke-dasharray:none;-inkscape-stroke:hairline" />
    <path
       d="M 820.6669,149 840,129.6669 859.3331,149 Z"
       id="path79"
       style="vector-effect:non-scaling-stroke;stroke-width:0.264583;stroke-dasharray:none;-inkscape-stroke:hairline" />
    <path
       d="M 1104,48.333095 1084.6669,29 H 1123.3331 Z"
       id="path80"
       style="vector-effect:non-scaling-stroke;stroke-width:0.264583;stroke-dasharray:none;-inkscape-stroke:hairline" />
    <path
       d="M 720,48.333095 700.6669,29 H 739.3331 Z"
       id="path81"
       style="vector-effect:non-scaling-stroke;stroke-width:0.264583;stroke-dasharray:none;-inkscape-stroke:hairline" />
    <path
       d="M 1060.6669,149 1080,129.6669 1099.3331,149 Z"
       id="path82"
       style="vector-effect:non-scaling-stroke;stroke-width:0.264583;stroke-dasharray:none;-inkscape-stroke:hairline" />
    <path
       d="M 916.6669,149 936,129.6669 955.3331,149 Z"
       id="path83"
       style="vector-effect:non-scaling-stroke;stroke-width:0.264583;stroke-dasharray:none;-inkscape-stroke:hairline" />
    <path
       d="M 580.6669,149 600,129.6669 619.3331,149 Z"
       id="path84"
       style="vector-effect:non-scaling-stroke;stroke-width:0.264583;stroke-dasharray:none;-inkscape-stroke:hairline" />
    <path
       d="M 768,48.333095 748.6669,29 H 787.3331 Z"
       id="path85"
       style="vector-effect:non-scaling-stroke;stroke-width:0.264583;stroke-dasharray:none;-inkscape-stroke:hairline" />
    <path
       d="M 576,48.333095 556.6669,29 H 595.3331 Z"
       id="path86"
       style="vector-effect:non-scaling-stroke;stroke-width:0.264583;stroke-dasharray:none;-inkscape-stroke:hairline" />
    <path
       d="M 628.6669,149 648,129.6669 667.3331,149 Z"
       id="path87"
       style="vector-effect:non-scaling-stroke;stroke-width:0.264583;stroke-dasharray:none;-inkscape-stroke:hairline" />
    <path
       d="M 288,48.333095 268.6669,29 H 307.3331 Z"
       id="path88"
       style="vector-effect:non-scaling-stroke;stroke-width:0.264583;stroke-dasharray:none;-inkscape-stroke:hairline" />
    <path
       d="M 960,48.333095 940.6669,29 H 979.3331 Z"
       id="path89"
       style="vector-effect:non-scaling-stroke;stroke-width:0.264583;stroke-dasharray:none;-inkscape-stroke:hairline" />
    <path
       d="M 340.6669,149 360,129.6669 379.3331,149 Z"
       id="path90"
       style="vector-effect:non-scaling-stroke;stroke-width:0.264583;stroke-dasharray:none;-inkscape-stroke:hairline" />
    <path
       d="M 1152,57.666905 1154,59.666905 V 94.333095 L 1152,96.333095 1132.6669,77 Z"
       id="path91"
       style="vector-effect:non-scaling-stroke;stroke-width:0.264583;stroke-dasharray:none;-inkscape-stroke:hairline" />
    <path
       d="M 864,48.333095 844.6669,29 H 883.3331 Z"
       id="path92"
       style="vector-effect:non-scaling-stroke;stroke-width:0.264583;stroke-dasharray:none;-inkscape-stroke:hairline" />
    <path
       d="M 432,48.333095 412.6669,29 H 451.3331 Z"
       id="path93"
       style="vector-effect:non-scaling-stroke;stroke-width:0.264583;stroke-dasharray:none;-inkscape-stroke:hairline" />
    <path
       d="M 724.6669,149 744,129.6669 763.3331,149 Z"
       id="path94"
       style="vector-effect:non-scaling-stroke;stroke-width:0.264583;stroke-dasharray:none;-inkscape-stroke:hairline" />
    <path
       d="M 484.6669,149 504,129.6669 523.3331,149 Z"
       id="path95"
       style="vector-effect:non-scaling-stroke;stroke-width:0.264583;stroke-dasharray:none;-inkscape-stroke:hairline" />
    <path
       d="M 964.6669,149 984,129.6669 1003.3331,149 Z"
       id="path96"
       style="vector-effect:non-scaling-stroke;stroke-width:0.264583;stroke-dasharray:none;-inkscape-stroke:hairline" />
    <path
       d="M 1056,48.333095 1036.6669,29 H 1075.3331 Z"
       id="path97"
       style="vector-effect:non-scaling-stroke;stroke-width:0.264583;stroke-dasharray:none;-inkscape-stroke:hairline" />
    <path
       d="M 528,48.333095 508.6669,29 H 547.3331 Z"
       id="path98"
       style="vector-effect:non-scaling-stroke;stroke-width:0.264583;stroke-dasharray:none;-inkscape-stroke:hairline" />
    <path
       d="M 480,48.333095 460.6669,29 H 499.3331 Z"
       id="path99"
       style="vector-effect:non-scaling-stroke;stroke-width:0.264583;stroke-dasharray:none;-inkscape-stroke:hairline" />
    <path
       d="M 816,48.333095 796.6669,29 H 835.3331 Z"
       id="path100"
       style="vector-effect:non-scaling-stroke;stroke-width:0.264583;stroke-dasharray:none;-inkscape-stroke:hairline" />
    <path
       d="M 262,35.666905 264,33.666905 283.3331,53 264,72.333095 262,70.333095 Z"
       id="path101"
       style="vector-effect:non-scaling-stroke;stroke-width:0.264583;stroke-dasharray:none;-inkscape-stroke:hairline" />
    <path
       d="M 532.6669,149 552,129.6669 571.3331,149 Z"
       id="path102"
       style="vector-effect:non-scaling-stroke;stroke-width:0.264583;stroke-dasharray:none;-inkscape-stroke:hairline" />
    <path
       d="M 292.6669,149 312,129.6669 331.3331,149 Z"
       id="path103"
       style="vector-effect:non-scaling-stroke;stroke-width:0.264583;stroke-dasharray:none;-inkscape-stroke:hairline" />
    <path
       d="M 868.6669,149 888,129.6669 907.3331,149 Z"
       id="path104"
       style="vector-effect:non-scaling-stroke;stroke-width:0.264583;stroke-dasharray:none;-inkscape-stroke:hairline" />
    <path
       d="M 388.6669,149 408,129.6669 427.3331,149 Z"
       id="path105"
       style="vector-effect:non-scaling-stroke;stroke-width:0.264583;stroke-dasharray:none;-inkscape-stroke:hairline" />
    <path
       d="M 1012.6669,149 1032,129.6669 1051.3331,149 Z"
       id="path106"
       style="vector-effect:non-scaling-stroke;stroke-width:0.264583;stroke-dasharray:none;-inkscape-stroke:hairline" />
    <path
       d="M 1108.6669,149 1128,129.6669 1147.3331,149 Z"
       id="path107"
       style="vector-effect:non-scaling-stroke;stroke-width:0.264583;stroke-dasharray:none;-inkscape-stroke:hairline" />
    <path
       d="M 1152,105.6669 1154,107.6669 V 142.3331 L 1152,144.3331 1132.6669,125 Z"
       id="path108"
       style="vector-effect:non-scaling-stroke;stroke-width:0.264583;stroke-dasharray:none;-inkscape-stroke:hairline" />
    <path
       d="M 262,83.666905 264,81.666905 283.3331,101 264,120.3331 262,118.3331 Z"
       id="path109"
       style="vector-effect:non-scaling-stroke;stroke-width:0.264583;stroke-dasharray:none;-inkscape-stroke:hairline" />
    <path
       d="M 912,48.333095 892.6669,29 H 931.3331 Z"
       id="path110"
       style="vector-effect:non-scaling-stroke;stroke-width:0.264583;stroke-dasharray:none;-inkscape-stroke:hairline" />
    <path
       d="M 1152,48.333095 1132.6669,29 H 1154 V 46.333095 Z"
       id="path111"
       style="vector-effect:non-scaling-stroke;stroke-width:0.264583;stroke-dasharray:none;-inkscape-stroke:hairline" />
    <path
       d="M 1008,48.333095 988.6669,29 H 1027.3331 Z"
       id="path112"
       style="vector-effect:non-scaling-stroke;stroke-width:0.264583;stroke-dasharray:none;-inkscape-stroke:hairline" />
    <path
       d="M 676.6669,149 696,129.6669 715.3331,149 Z"
       id="path113"
       style="vector-effect:non-scaling-stroke;stroke-width:0.264583;stroke-dasharray:none;-inkscape-stroke:hairline" />
    <path
       d="M 436.6669,149 456,129.6669 475.3331,149 Z"
       id="path114"
       style="vector-effect:non-scaling-stroke;stroke-width:0.264583;stroke-dasharray:none;-inkscape-stroke:hairline" />
    <path
       d="M 255,178 H 1161 V 0 H 255 Z"
       id="path115"
       style="vector-effect:non-scaling-stroke;stroke-width:0.264583;stroke-dasharray:none;-inkscape-stroke:hairline" />
  </g>
</svg>
