<?xml version="1.0" encoding="UTF-8" standalone="no"?>
<svg
   height="300mm"
   version="1.1"
   viewBox="0 0 1200 300"
   width="1200mm"
   id="svg115"
   sodipodi:docname="tramo1.4.svg"
   inkscape:version="1.4.2 (1:1.4.2+202505120737+ebf0e940d0)"
   xmlns:inkscape="http://www.inkscape.org/namespaces/inkscape"
   xmlns:sodipodi="http://sodipodi.sourceforge.net/DTD/sodipodi-0.dtd"
   xmlns="http://www.w3.org/2000/svg"
   xmlns:svg="http://www.w3.org/2000/svg">
  <sodipodi:namedview
     id="namedview115"
     pagecolor="#ffffff"
     bordercolor="#666666"
     borderopacity="1.0"
     inkscape:showpageshadow="2"
     inkscape:pageopacity="0.0"
     inkscape:pagecheckerboard="0"
     inkscape:deskcolor="#d1d1d1"
     inkscape:document-units="mm"
     showgrid="false"
     inkscape:zoom="0.27693056"
     inkscape:cx="2459.1003"
     inkscape:cy="1112.1922"
     inkscape:window-width="1920"
     inkscape:window-height="1011"
     inkscape:window-x="0"
     inkscape:window-y="0"
     inkscape:window-maximized="1"
     inkscape:current-layer="svg115" />
  <defs
     id="defs1" />
  <g
     fill="none"
     stroke="blue"
     stroke-width="0.5"
     transform="translate(-108.0,65.0)"
     id="g115"
     style="vector-effect:non-scaling-stroke;-inkscape-stroke:hairline;stroke-width:0.26458333;stroke-dasharray:none">
    <path
       d="M 283.3330952441688,121.0 L 266.0,138.33309524416882 L 266.0,103.6669047558312 L 283.3330952441688,121.0 Z"
       id="path1"
       style="vector-effect:non-scaling-stroke;-inkscape-stroke:hairline;stroke-width:0.26458333;stroke-dasharray:none" />
    <path
       d="M 283.3330952441688,73.0 L 266.0,90.3330952441688 L 266.0,55.66690475583121 L 283.3330952441688,73.0 Z"
       id="path2"
       style="vector-effect:non-scaling-stroke;-inkscape-stroke:hairline;stroke-width:0.26458333;stroke-dasharray:none" />
    <path
       d="M 283.3330952441688,25.0 L 266.0,42.33309524416879 L 266.0,24.0 L 282.3330952441688,24.0 L 283.3330952441688,25.0 Z"
       id="path3"
       style="vector-effect:non-scaling-stroke;-inkscape-stroke:hairline;stroke-width:0.26458333;stroke-dasharray:none" />
    <path
       d="M 306.3330952441688,144.0 L 269.6669047558312,144.0 L 288.0,125.6669047558312 L 306.3330952441688,144.0 Z"
       id="path4"
       style="vector-effect:non-scaling-stroke;-inkscape-stroke:hairline;stroke-width:0.26458333;stroke-dasharray:none" />
    <path
       d="M 288.0,77.6669047558312 L 307.3330952441688,97.0 L 288.0,116.3330952441688 L 268.6669047558312,97.0 L 288.0,77.6669047558312 Z"
       id="path5"
       style="vector-effect:non-scaling-stroke;-inkscape-stroke:hairline;stroke-width:0.26458333;stroke-dasharray:none" />
    <path
       d="M 288.0,29.66690475583121 L 307.3330952441688,49.0 L 288.0,68.3330952441688 L 268.6669047558312,49.0 L 288.0,29.66690475583121 Z"
       id="path6"
       style="vector-effect:non-scaling-stroke;-inkscape-stroke:hairline;stroke-width:0.26458333;stroke-dasharray:none" />
    <path
       d="M 312.0,101.6669047558312 L 331.3330952441688,121.0 L 312.0,140.33309524416882 L 292.6669047558312,121.0 L 312.0,101.6669047558312 Z"
       id="path7"
       style="vector-effect:non-scaling-stroke;-inkscape-stroke:hairline;stroke-width:0.26458333;stroke-dasharray:none" />
    <path
       d="M 312.0,53.66690475583121 L 331.3330952441688,73.0 L 312.0,92.3330952441688 L 292.6669047558312,73.0 L 312.0,53.66690475583121 Z"
       id="path8"
       style="vector-effect:non-scaling-stroke;-inkscape-stroke:hairline;stroke-width:0.26458333;stroke-dasharray:none" />
    <path
       d="M 331.3330952441688,25.0 L 312.0,44.33309524416879 L 292.6669047558312,25.0 L 293.6669047558312,24.0 L 330.3330952441688,24.0 L 331.3330952441688,25.0 Z"
       id="path9"
       style="vector-effect:non-scaling-stroke;-inkscape-stroke:hairline;stroke-width:0.26458333;stroke-dasharray:none" />
    <path
       d="M 354.3330952441688,144.0 L 317.6669047558312,144.0 L 336.0,125.6669047558312 L 354.3330952441688,144.0 Z"
       id="path10"
       style="vector-effect:non-scaling-stroke;-inkscape-stroke:hairline;stroke-width:0.26458333;stroke-dasharray:none" />
    <path
       d="M 336.0,77.6669047558312 L 355.3330952441688,97.0 L 336.0,116.3330952441688 L 316.6669047558312,97.0 L 336.0,77.6669047558312 Z"
       id="path11"
       style="vector-effect:non-scaling-stroke;-inkscape-stroke:hairline;stroke-width:0.26458333;stroke-dasharray:none" />
    <path
       d="M 336.0,29.66690475583121 L 355.3330952441688,49.0 L 336.0,68.3330952441688 L 316.6669047558312,49.0 L 336.0,29.66690475583121 Z"
       id="path12"
       style="vector-effect:non-scaling-stroke;-inkscape-stroke:hairline;stroke-width:0.26458333;stroke-dasharray:none" />
    <path
       d="M 360.0,101.6669047558312 L 379.3330952441688,121.0 L 360.0,140.33309524416882 L 340.6669047558312,121.0 L 360.0,101.6669047558312 Z"
       id="path13"
       style="vector-effect:non-scaling-stroke;-inkscape-stroke:hairline;stroke-width:0.26458333;stroke-dasharray:none" />
    <path
       d="M 360.0,53.66690475583121 L 379.3330952441688,73.0 L 360.0,92.3330952441688 L 340.6669047558312,73.0 L 360.0,53.66690475583121 Z"
       id="path14"
       style="vector-effect:non-scaling-stroke;-inkscape-stroke:hairline;stroke-width:0.26458333;stroke-dasharray:none" />
    <path
       d="M 379.3330952441688,25.0 L 360.0,44.33309524416879 L 340.6669047558312,25.0 L 341.6669047558312,24.0 L 378.3330952441688,24.0 L 379.3330952441688,25.0 Z"
       id="path15"
       style="vector-effect:non-scaling-stroke;-inkscape-stroke:hairline;stroke-width:0.26458333;stroke-dasharray:none" />
    <path
       d="M 402.3330952441688,144.0 L 365.6669047558312,144.0 L 384.0,125.6669047558312 L 402.3330952441688,144.0 Z"
       id="path16"
       style="vector-effect:non-scaling-stroke;-inkscape-stroke:hairline;stroke-width:0.26458333;stroke-dasharray:none" />
    <path
       d="M 384.0,77.6669047558312 L 403.3330952441688,97.0 L 384.0,116.3330952441688 L 364.6669047558312,97.0 L 384.0,77.6669047558312 Z"
       id="path17"
       style="vector-effect:non-scaling-stroke;-inkscape-stroke:hairline;stroke-width:0.26458333;stroke-dasharray:none" />
    <path
       d="M 384.0,29.66690475583121 L 403.3330952441688,49.0 L 384.0,68.3330952441688 L 364.6669047558312,49.0 L 384.0,29.66690475583121 Z"
       id="path18"
       style="vector-effect:non-scaling-stroke;-inkscape-stroke:hairline;stroke-width:0.26458333;stroke-dasharray:none" />
    <path
       d="M 408.0,101.6669047558312 L 427.3330952441688,121.0 L 408.0,140.33309524416882 L 388.6669047558312,121.0 L 408.0,101.6669047558312 Z"
       id="path19"
       style="vector-effect:non-scaling-stroke;-inkscape-stroke:hairline;stroke-width:0.26458333;stroke-dasharray:none" />
    <path
       d="M 408.0,53.66690475583121 L 427.3330952441688,73.0 L 408.0,92.3330952441688 L 388.6669047558312,73.0 L 408.0,53.66690475583121 Z"
       id="path20"
       style="vector-effect:non-scaling-stroke;-inkscape-stroke:hairline;stroke-width:0.26458333;stroke-dasharray:none" />
    <path
       d="M 427.3330952441688,25.0 L 408.0,44.33309524416879 L 388.6669047558312,25.0 L 389.6669047558312,24.0 L 426.3330952441688,24.0 L 427.3330952441688,25.0 Z"
       id="path21"
       style="vector-effect:non-scaling-stroke;-inkscape-stroke:hairline;stroke-width:0.26458333;stroke-dasharray:none" />
    <path
       d="M 450.3330952441688,144.0 L 413.6669047558312,144.0 L 432.0,125.6669047558312 L 450.3330952441688,144.0 Z"
       id="path22"
       style="vector-effect:non-scaling-stroke;-inkscape-stroke:hairline;stroke-width:0.26458333;stroke-dasharray:none" />
    <path
       d="M 432.0,77.6669047558312 L 451.3330952441688,97.0 L 432.0,116.3330952441688 L 412.6669047558312,97.0 L 432.0,77.6669047558312 Z"
       id="path23"
       style="vector-effect:non-scaling-stroke;-inkscape-stroke:hairline;stroke-width:0.26458333;stroke-dasharray:none" />
    <path
       d="M 432.0,29.66690475583121 L 451.3330952441688,49.0 L 432.0,68.3330952441688 L 412.6669047558312,49.0 L 432.0,29.66690475583121 Z"
       id="path24"
       style="vector-effect:non-scaling-stroke;-inkscape-stroke:hairline;stroke-width:0.26458333;stroke-dasharray:none" />
    <path
       d="M 456.0,101.6669047558312 L 475.3330952441688,121.0 L 456.0,140.33309524416882 L 436.6669047558312,121.0 L 456.0,101.6669047558312 Z"
       id="path25"
       style="vector-effect:non-scaling-stroke;-inkscape-stroke:hairline;stroke-width:0.26458333;stroke-dasharray:none" />
    <path
       d="M 456.0,53.66690475583121 L 475.3330952441688,73.0 L 456.0,92.3330952441688 L 436.6669047558312,73.0 L 456.0,53.66690475583121 Z"
       id="path26"
       style="vector-effect:non-scaling-stroke;-inkscape-stroke:hairline;stroke-width:0.26458333;stroke-dasharray:none" />
    <path
       d="M 475.3330952441688,25.0 L 456.0,44.33309524416879 L 436.6669047558312,25.0 L 437.6669047558312,24.0 L 474.3330952441688,24.0 L 475.3330952441688,25.0 Z"
       id="path27"
       style="vector-effect:non-scaling-stroke;-inkscape-stroke:hairline;stroke-width:0.26458333;stroke-dasharray:none" />
    <path
       d="M 498.3330952441688,144.0 L 461.6669047558312,144.0 L 480.0,125.6669047558312 L 498.3330952441688,144.0 Z"
       id="path28"
       style="vector-effect:non-scaling-stroke;-inkscape-stroke:hairline;stroke-width:0.26458333;stroke-dasharray:none" />
    <path
       d="M 480.0,77.6669047558312 L 499.3330952441688,97.0 L 480.0,116.3330952441688 L 460.6669047558312,97.0 L 480.0,77.6669047558312 Z"
       id="path29"
       style="vector-effect:non-scaling-stroke;-inkscape-stroke:hairline;stroke-width:0.26458333;stroke-dasharray:none" />
    <path
       d="M 480.0,29.66690475583121 L 499.3330952441688,49.0 L 480.0,68.3330952441688 L 460.6669047558312,49.0 L 480.0,29.66690475583121 Z"
       id="path30"
       style="vector-effect:non-scaling-stroke;-inkscape-stroke:hairline;stroke-width:0.26458333;stroke-dasharray:none" />
    <path
       d="M 504.0,101.6669047558312 L 523.3330952441688,121.0 L 504.0,140.33309524416882 L 484.6669047558312,121.0 L 504.0,101.6669047558312 Z"
       id="path31"
       style="vector-effect:non-scaling-stroke;-inkscape-stroke:hairline;stroke-width:0.26458333;stroke-dasharray:none" />
    <path
       d="M 504.0,53.66690475583121 L 523.3330952441688,73.0 L 504.0,92.3330952441688 L 484.6669047558312,73.0 L 504.0,53.66690475583121 Z"
       id="path32"
       style="vector-effect:non-scaling-stroke;-inkscape-stroke:hairline;stroke-width:0.26458333;stroke-dasharray:none" />
    <path
       d="M 523.3330952441688,25.0 L 504.0,44.33309524416879 L 484.6669047558312,25.0 L 485.6669047558312,24.0 L 522.3330952441688,24.0 L 523.3330952441688,25.0 Z"
       id="path33"
       style="vector-effect:non-scaling-stroke;-inkscape-stroke:hairline;stroke-width:0.26458333;stroke-dasharray:none" />
    <path
       d="M 546.3330952441688,144.0 L 509.6669047558312,144.0 L 528.0,125.6669047558312 L 546.3330952441688,144.0 Z"
       id="path34"
       style="vector-effect:non-scaling-stroke;-inkscape-stroke:hairline;stroke-width:0.26458333;stroke-dasharray:none" />
    <path
       d="M 528.0,77.6669047558312 L 547.3330952441688,97.0 L 528.0,116.3330952441688 L 508.6669047558312,97.0 L 528.0,77.6669047558312 Z"
       id="path35"
       style="vector-effect:non-scaling-stroke;-inkscape-stroke:hairline;stroke-width:0.26458333;stroke-dasharray:none" />
    <path
       d="M 528.0,29.66690475583121 L 547.3330952441688,49.0 L 528.0,68.3330952441688 L 508.6669047558312,49.0 L 528.0,29.66690475583121 Z"
       id="path36"
       style="vector-effect:non-scaling-stroke;-inkscape-stroke:hairline;stroke-width:0.26458333;stroke-dasharray:none" />
    <path
       d="M 552.0,101.6669047558312 L 571.3330952441688,121.0 L 552.0,140.33309524416882 L 532.6669047558312,121.0 L 552.0,101.6669047558312 Z"
       id="path37"
       style="vector-effect:non-scaling-stroke;-inkscape-stroke:hairline;stroke-width:0.26458333;stroke-dasharray:none" />
    <path
       d="M 552.0,53.66690475583121 L 571.3330952441688,73.0 L 552.0,92.3330952441688 L 532.6669047558312,73.0 L 552.0,53.66690475583121 Z"
       id="path38"
       style="vector-effect:non-scaling-stroke;-inkscape-stroke:hairline;stroke-width:0.26458333;stroke-dasharray:none" />
    <path
       d="M 571.3330952441688,25.0 L 552.0,44.33309524416879 L 532.6669047558312,25.0 L 533.6669047558312,24.0 L 570.3330952441688,24.0 L 571.3330952441688,25.0 Z"
       id="path39"
       style="vector-effect:non-scaling-stroke;-inkscape-stroke:hairline;stroke-width:0.26458333;stroke-dasharray:none" />
    <path
       d="M 594.3330952441688,144.0 L 557.6669047558312,144.0 L 576.0,125.6669047558312 L 594.3330952441688,144.0 Z"
       id="path40"
       style="vector-effect:non-scaling-stroke;-inkscape-stroke:hairline;stroke-width:0.26458333;stroke-dasharray:none" />
    <path
       d="M 576.0,77.6669047558312 L 595.3330952441688,97.0 L 576.0,116.3330952441688 L 556.6669047558312,97.0 L 576.0,77.6669047558312 Z"
       id="path41"
       style="vector-effect:non-scaling-stroke;-inkscape-stroke:hairline;stroke-width:0.26458333;stroke-dasharray:none" />
    <path
       d="M 576.0,29.66690475583121 L 595.3330952441688,49.0 L 576.0,68.3330952441688 L 556.6669047558312,49.0 L 576.0,29.66690475583121 Z"
       id="path42"
       style="vector-effect:non-scaling-stroke;-inkscape-stroke:hairline;stroke-width:0.26458333;stroke-dasharray:none" />
    <path
       d="M 600.0,101.6669047558312 L 619.3330952441688,121.0 L 600.0,140.33309524416882 L 580.6669047558312,121.0 L 600.0,101.6669047558312 Z"
       id="path43"
       style="vector-effect:non-scaling-stroke;-inkscape-stroke:hairline;stroke-width:0.26458333;stroke-dasharray:none" />
    <path
       d="M 600.0,53.66690475583121 L 619.3330952441688,73.0 L 600.0,92.3330952441688 L 580.6669047558312,73.0 L 600.0,53.66690475583121 Z"
       id="path44"
       style="vector-effect:non-scaling-stroke;-inkscape-stroke:hairline;stroke-width:0.26458333;stroke-dasharray:none" />
    <path
       d="M 619.3330952441688,25.0 L 600.0,44.33309524416879 L 580.6669047558312,25.0 L 581.6669047558312,24.0 L 618.3330952441688,24.0 L 619.3330952441688,25.0 Z"
       id="path45"
       style="vector-effect:non-scaling-stroke;-inkscape-stroke:hairline;stroke-width:0.26458333;stroke-dasharray:none" />
    <path
       d="M 642.3330952441688,144.0 L 605.6669047558312,144.0 L 624.0,125.6669047558312 L 642.3330952441688,144.0 Z"
       id="path46"
       style="vector-effect:non-scaling-stroke;-inkscape-stroke:hairline;stroke-width:0.26458333;stroke-dasharray:none" />
    <path
       d="M 624.0,77.6669047558312 L 643.3330952441688,97.0 L 624.0,116.3330952441688 L 604.6669047558312,97.0 L 624.0,77.6669047558312 Z"
       id="path47"
       style="vector-effect:non-scaling-stroke;-inkscape-stroke:hairline;stroke-width:0.26458333;stroke-dasharray:none" />
    <path
       d="M 624.0,29.66690475583121 L 643.3330952441688,49.0 L 624.0,68.3330952441688 L 604.6669047558312,49.0 L 624.0,29.66690475583121 Z"
       id="path48"
       style="vector-effect:non-scaling-stroke;-inkscape-stroke:hairline;stroke-width:0.26458333;stroke-dasharray:none" />
    <path
       d="M 648.0,101.6669047558312 L 667.3330952441688,121.0 L 648.0,140.33309524416882 L 628.6669047558312,121.0 L 648.0,101.6669047558312 Z"
       id="path49"
       style="vector-effect:non-scaling-stroke;-inkscape-stroke:hairline;stroke-width:0.26458333;stroke-dasharray:none" />
    <path
       d="M 648.0,53.66690475583121 L 667.3330952441688,73.0 L 648.0,92.3330952441688 L 628.6669047558312,73.0 L 648.0,53.66690475583121 Z"
       id="path50"
       style="vector-effect:non-scaling-stroke;-inkscape-stroke:hairline;stroke-width:0.26458333;stroke-dasharray:none" />
    <path
       d="M 667.3330952441688,25.0 L 648.0,44.33309524416879 L 628.6669047558312,25.0 L 629.6669047558312,24.0 L 666.3330952441688,24.0 L 667.3330952441688,25.0 Z"
       id="path51"
       style="vector-effect:non-scaling-stroke;-inkscape-stroke:hairline;stroke-width:0.26458333;stroke-dasharray:none" />
    <path
       d="M 690.3330952441688,144.0 L 653.6669047558312,144.0 L 672.0,125.6669047558312 L 690.3330952441688,144.0 Z"
       id="path52"
       style="vector-effect:non-scaling-stroke;-inkscape-stroke:hairline;stroke-width:0.26458333;stroke-dasharray:none" />
    <path
       d="M 672.0,77.6669047558312 L 691.3330952441688,97.0 L 672.0,116.3330952441688 L 652.6669047558312,97.0 L 672.0,77.6669047558312 Z"
       id="path53"
       style="vector-effect:non-scaling-stroke;-inkscape-stroke:hairline;stroke-width:0.26458333;stroke-dasharray:none" />
    <path
       d="M 672.0,29.66690475583121 L 691.3330952441688,49.0 L 672.0,68.3330952441688 L 652.6669047558312,49.0 L 672.0,29.66690475583121 Z"
       id="path54"
       style="vector-effect:non-scaling-stroke;-inkscape-stroke:hairline;stroke-width:0.26458333;stroke-dasharray:none" />
    <path
       d="M 696.0,101.6669047558312 L 715.3330952441688,121.0 L 696.0,140.33309524416882 L 676.6669047558312,121.0 L 696.0,101.6669047558312 Z"
       id="path55"
       style="vector-effect:non-scaling-stroke;-inkscape-stroke:hairline;stroke-width:0.26458333;stroke-dasharray:none" />
    <path
       d="M 696.0,53.66690475583121 L 715.3330952441688,73.0 L 696.0,92.3330952441688 L 676.6669047558312,73.0 L 696.0,53.66690475583121 Z"
       id="path56"
       style="vector-effect:non-scaling-stroke;-inkscape-stroke:hairline;stroke-width:0.26458333;stroke-dasharray:none" />
    <path
       d="M 715.3330952441688,25.0 L 696.0,44.33309524416879 L 676.6669047558312,25.0 L 677.6669047558312,24.0 L 714.3330952441688,24.0 L 715.3330952441688,25.0 Z"
       id="path57"
       style="vector-effect:non-scaling-stroke;-inkscape-stroke:hairline;stroke-width:0.26458333;stroke-dasharray:none" />
    <path
       d="M 738.3330952441688,144.0 L 701.6669047558312,144.0 L 720.0,125.6669047558312 L 738.3330952441688,144.0 Z"
       id="path58"
       style="vector-effect:non-scaling-stroke;-inkscape-stroke:hairline;stroke-width:0.26458333;stroke-dasharray:none" />
    <path
       d="M 720.0,77.6669047558312 L 739.3330952441688,97.0 L 720.0,116.3330952441688 L 700.6669047558312,97.0 L 720.0,77.6669047558312 Z"
       id="path59"
       style="vector-effect:non-scaling-stroke;-inkscape-stroke:hairline;stroke-width:0.26458333;stroke-dasharray:none" />
    <path
       d="M 720.0,29.66690475583121 L 739.3330952441688,49.0 L 720.0,68.3330952441688 L 700.6669047558312,49.0 L 720.0,29.66690475583121 Z"
       id="path60"
       style="vector-effect:non-scaling-stroke;-inkscape-stroke:hairline;stroke-width:0.26458333;stroke-dasharray:none" />
    <path
       d="M 744.0,101.6669047558312 L 763.3330952441688,121.0 L 744.0,140.33309524416882 L 724.6669047558312,121.0 L 744.0,101.6669047558312 Z"
       id="path61"
       style="vector-effect:non-scaling-stroke;-inkscape-stroke:hairline;stroke-width:0.26458333;stroke-dasharray:none" />
    <path
       d="M 744.0,53.66690475583121 L 763.3330952441688,73.0 L 744.0,92.3330952441688 L 724.6669047558312,73.0 L 744.0,53.66690475583121 Z"
       id="path62"
       style="vector-effect:non-scaling-stroke;-inkscape-stroke:hairline;stroke-width:0.26458333;stroke-dasharray:none" />
    <path
       d="M 763.3330952441688,25.0 L 744.0,44.33309524416879 L 724.6669047558312,25.0 L 725.6669047558312,24.0 L 762.3330952441688,24.0 L 763.3330952441688,25.0 Z"
       id="path63"
       style="vector-effect:non-scaling-stroke;-inkscape-stroke:hairline;stroke-width:0.26458333;stroke-dasharray:none" />
    <path
       d="M 786.3330952441688,144.0 L 749.6669047558312,144.0 L 768.0,125.6669047558312 L 786.3330952441688,144.0 Z"
       id="path64"
       style="vector-effect:non-scaling-stroke;-inkscape-stroke:hairline;stroke-width:0.26458333;stroke-dasharray:none" />
    <path
       d="M 768.0,77.6669047558312 L 787.3330952441688,97.0 L 768.0,116.3330952441688 L 748.6669047558312,97.0 L 768.0,77.6669047558312 Z"
       id="path65"
       style="vector-effect:non-scaling-stroke;-inkscape-stroke:hairline;stroke-width:0.26458333;stroke-dasharray:none" />
    <path
       d="M 768.0,29.66690475583121 L 787.3330952441688,49.0 L 768.0,68.3330952441688 L 748.6669047558312,49.0 L 768.0,29.66690475583121 Z"
       id="path66"
       style="vector-effect:non-scaling-stroke;-inkscape-stroke:hairline;stroke-width:0.26458333;stroke-dasharray:none" />
    <path
       d="M 792.0,101.6669047558312 L 811.3330952441688,121.0 L 792.0,140.33309524416882 L 772.6669047558312,121.0 L 792.0,101.6669047558312 Z"
       id="path67"
       style="vector-effect:non-scaling-stroke;-inkscape-stroke:hairline;stroke-width:0.26458333;stroke-dasharray:none" />
    <path
       d="M 792.0,53.66690475583121 L 811.3330952441688,73.0 L 792.0,92.3330952441688 L 772.6669047558312,73.0 L 792.0,53.66690475583121 Z"
       id="path68"
       style="vector-effect:non-scaling-stroke;-inkscape-stroke:hairline;stroke-width:0.26458333;stroke-dasharray:none" />
    <path
       d="M 811.3330952441688,25.0 L 792.0,44.33309524416879 L 772.6669047558312,25.0 L 773.6669047558312,24.0 L 810.3330952441688,24.0 L 811.3330952441688,25.0 Z"
       id="path69"
       style="vector-effect:non-scaling-stroke;-inkscape-stroke:hairline;stroke-width:0.26458333;stroke-dasharray:none" />
    <path
       d="M 834.3330952441688,144.0 L 797.6669047558312,144.0 L 816.0,125.6669047558312 L 834.3330952441688,144.0 Z"
       id="path70"
       style="vector-effect:non-scaling-stroke;-inkscape-stroke:hairline;stroke-width:0.26458333;stroke-dasharray:none" />
    <path
       d="M 816.0,77.6669047558312 L 835.3330952441688,97.0 L 816.0,116.3330952441688 L 796.6669047558312,97.0 L 816.0,77.6669047558312 Z"
       id="path71"
       style="vector-effect:non-scaling-stroke;-inkscape-stroke:hairline;stroke-width:0.26458333;stroke-dasharray:none" />
    <path
       d="M 816.0,29.66690475583121 L 835.3330952441688,49.0 L 816.0,68.3330952441688 L 796.6669047558312,49.0 L 816.0,29.66690475583121 Z"
       id="path72"
       style="vector-effect:non-scaling-stroke;-inkscape-stroke:hairline;stroke-width:0.26458333;stroke-dasharray:none" />
    <path
       d="M 840.0,101.6669047558312 L 859.3330952441688,121.0 L 840.0,140.33309524416882 L 820.6669047558312,121.0 L 840.0,101.6669047558312 Z"
       id="path73"
       style="vector-effect:non-scaling-stroke;-inkscape-stroke:hairline;stroke-width:0.26458333;stroke-dasharray:none" />
    <path
       d="M 840.0,53.66690475583121 L 859.3330952441688,73.0 L 840.0,92.3330952441688 L 820.6669047558312,73.0 L 840.0,53.66690475583121 Z"
       id="path74"
       style="vector-effect:non-scaling-stroke;-inkscape-stroke:hairline;stroke-width:0.26458333;stroke-dasharray:none" />
    <path
       d="M 859.3330952441688,25.0 L 840.0,44.33309524416879 L 820.6669047558312,25.0 L 821.6669047558312,24.0 L 858.3330952441688,24.0 L 859.3330952441688,25.0 Z"
       id="path75"
       style="vector-effect:non-scaling-stroke;-inkscape-stroke:hairline;stroke-width:0.26458333;stroke-dasharray:none" />
    <path
       d="M 882.3330952441688,144.0 L 845.6669047558312,144.0 L 864.0,125.6669047558312 L 882.3330952441688,144.0 Z"
       id="path76"
       style="vector-effect:non-scaling-stroke;-inkscape-stroke:hairline;stroke-width:0.26458333;stroke-dasharray:none" />
    <path
       d="M 864.0,77.6669047558312 L 883.3330952441688,97.0 L 864.0,116.3330952441688 L 844.6669047558312,97.0 L 864.0,77.6669047558312 Z"
       id="path77"
       style="vector-effect:non-scaling-stroke;-inkscape-stroke:hairline;stroke-width:0.26458333;stroke-dasharray:none" />
    <path
       d="M 864.0,29.66690475583121 L 883.3330952441688,49.0 L 864.0,68.3330952441688 L 844.6669047558312,49.0 L 864.0,29.66690475583121 Z"
       id="path78"
       style="vector-effect:non-scaling-stroke;-inkscape-stroke:hairline;stroke-width:0.26458333;stroke-dasharray:none" />
    <path
       d="M 888.0,101.6669047558312 L 907.3330952441688,121.0 L 888.0,140.33309524416882 L 868.6669047558312,121.0 L 888.0,101.6669047558312 Z"
       id="path79"
       style="vector-effect:non-scaling-stroke;-inkscape-stroke:hairline;stroke-width:0.26458333;stroke-dasharray:none" />
    <path
       d="M 888.0,53.66690475583121 L 907.3330952441688,73.0 L 888.0,92.3330952441688 L 868.6669047558312,73.0 L 888.0,53.66690475583121 Z"
       id="path80"
       style="vector-effect:non-scaling-stroke;-inkscape-stroke:hairline;stroke-width:0.26458333;stroke-dasharray:none" />
    <path
       d="M 907.3330952441688,25.0 L 888.0,44.33309524416879 L 868.6669047558312,25.0 L 869.6669047558312,24.0 L 906.3330952441688,24.0 L 907.3330952441688,25.0 Z"
       id="path81"
       style="vector-effect:non-scaling-stroke;-inkscape-stroke:hairline;stroke-width:0.26458333;stroke-dasharray:none" />
    <path
       d="M 930.3330952441688,144.0 L 893.6669047558312,144.0 L 912.0,125.6669047558312 L 930.3330952441688,144.0 Z"
       id="path82"
       style="vector-effect:non-scaling-stroke;-inkscape-stroke:hairline;stroke-width:0.26458333;stroke-dasharray:none" />
    <path
       d="M 912.0,77.6669047558312 L 931.3330952441688,97.0 L 912.0,116.3330952441688 L 892.6669047558312,97.0 L 912.0,77.6669047558312 Z"
       id="path83"
       style="vector-effect:non-scaling-stroke;-inkscape-stroke:hairline;stroke-width:0.26458333;stroke-dasharray:none" />
    <path
       d="M 912.0,29.66690475583121 L 931.3330952441688,49.0 L 912.0,68.3330952441688 L 892.6669047558312,49.0 L 912.0,29.66690475583121 Z"
       id="path84"
       style="vector-effect:non-scaling-stroke;-inkscape-stroke:hairline;stroke-width:0.26458333;stroke-dasharray:none" />
    <path
       d="M 936.0,101.6669047558312 L 955.3330952441688,121.0 L 936.0,140.33309524416882 L 916.6669047558312,121.0 L 936.0,101.6669047558312 Z"
       id="path85"
       style="vector-effect:non-scaling-stroke;-inkscape-stroke:hairline;stroke-width:0.26458333;stroke-dasharray:none" />
    <path
       d="M 936.0,53.66690475583121 L 955.3330952441688,73.0 L 936.0,92.3330952441688 L 916.6669047558312,73.0 L 936.0,53.66690475583121 Z"
       id="path86"
       style="vector-effect:non-scaling-stroke;-inkscape-stroke:hairline;stroke-width:0.26458333;stroke-dasharray:none" />
    <path
       d="M 955.3330952441688,25.0 L 936.0,44.33309524416879 L 916.6669047558312,25.0 L 917.6669047558312,24.0 L 954.3330952441688,24.0 L 955.3330952441688,25.0 Z"
       id="path87"
       style="vector-effect:non-scaling-stroke;-inkscape-stroke:hairline;stroke-width:0.26458333;stroke-dasharray:none" />
    <path
       d="M 978.3330952441688,144.0 L 941.6669047558312,144.0 L 960.0,125.6669047558312 L 978.3330952441688,144.0 Z"
       id="path88"
       style="vector-effect:non-scaling-stroke;-inkscape-stroke:hairline;stroke-width:0.26458333;stroke-dasharray:none" />
    <path
       d="M 960.0,77.6669047558312 L 979.3330952441688,97.0 L 960.0,116.3330952441688 L 940.6669047558312,97.0 L 960.0,77.6669047558312 Z"
       id="path89"
       style="vector-effect:non-scaling-stroke;-inkscape-stroke:hairline;stroke-width:0.26458333;stroke-dasharray:none" />
    <path
       d="M 960.0,29.66690475583121 L 979.3330952441688,49.0 L 960.0,68.3330952441688 L 940.6669047558312,49.0 L 960.0,29.66690475583121 Z"
       id="path90"
       style="vector-effect:non-scaling-stroke;-inkscape-stroke:hairline;stroke-width:0.26458333;stroke-dasharray:none" />
    <path
       d="M 984.0,101.6669047558312 L 1003.3330952441688,121.0 L 984.0,140.33309524416882 L 964.6669047558312,121.0 L 984.0,101.6669047558312 Z"
       id="path91"
       style="vector-effect:non-scaling-stroke;-inkscape-stroke:hairline;stroke-width:0.26458333;stroke-dasharray:none" />
    <path
       d="M 984.0,53.66690475583121 L 1003.3330952441688,73.0 L 984.0,92.3330952441688 L 964.6669047558312,73.0 L 984.0,53.66690475583121 Z"
       id="path92"
       style="vector-effect:non-scaling-stroke;-inkscape-stroke:hairline;stroke-width:0.26458333;stroke-dasharray:none" />
    <path
       d="M 1003.3330952441688,25.0 L 984.0,44.33309524416879 L 964.6669047558312,25.0 L 965.6669047558312,24.0 L 1002.3330952441688,24.0 L 1003.3330952441688,25.0 Z"
       id="path93"
       style="vector-effect:non-scaling-stroke;-inkscape-stroke:hairline;stroke-width:0.26458333;stroke-dasharray:none" />
    <path
       d="M 1026.3330952441688,144.0 L 989.6669047558312,144.0 L 1008.0,125.6669047558312 L 1026.3330952441688,144.0 Z"
       id="path94"
       style="vector-effect:non-scaling-stroke;-inkscape-stroke:hairline;stroke-width:0.26458333;stroke-dasharray:none" />
    <path
       d="M 1008.0,77.6669047558312 L 1027.3330952441688,97.0 L 1008.0,116.3330952441688 L 988.6669047558312,97.0 L 1008.0,77.6669047558312 Z"
       id="path95"
       style="vector-effect:non-scaling-stroke;-inkscape-stroke:hairline;stroke-width:0.26458333;stroke-dasharray:none" />
    <path
       d="M 1008.0,29.66690475583121 L 1027.3330952441688,49.0 L 1008.0,68.3330952441688 L 988.6669047558312,49.0 L 1008.0,29.66690475583121 Z"
       id="path96"
       style="vector-effect:non-scaling-stroke;-inkscape-stroke:hairline;stroke-width:0.26458333;stroke-dasharray:none" />
    <path
       d="M 1032.0,101.6669047558312 L 1051.3330952441688,121.0 L 1032.0,140.33309524416882 L 1012.6669047558312,121.0 L 1032.0,101.6669047558312 Z"
       id="path97"
       style="vector-effect:non-scaling-stroke;-inkscape-stroke:hairline;stroke-width:0.26458333;stroke-dasharray:none" />
    <path
       d="M 1032.0,53.66690475583121 L 1051.3330952441688,73.0 L 1032.0,92.3330952441688 L 1012.6669047558312,73.0 L 1032.0,53.66690475583121 Z"
       id="path98"
       style="vector-effect:non-scaling-stroke;-inkscape-stroke:hairline;stroke-width:0.26458333;stroke-dasharray:none" />
    <path
       d="M 1051.3330952441688,25.0 L 1032.0,44.33309524416879 L 1012.6669047558312,25.0 L 1013.6669047558312,24.0 L 1050.3330952441688,24.0 L 1051.3330952441688,25.0 Z"
       id="path99"
       style="vector-effect:non-scaling-stroke;-inkscape-stroke:hairline;stroke-width:0.26458333;stroke-dasharray:none" />
    <path
       d="M 1074.3330952441688,144.0 L 1037.6669047558312,144.0 L 1056.0,125.6669047558312 L 1074.3330952441688,144.0 Z"
       id="path100"
       style="vector-effect:non-scaling-stroke;-inkscape-stroke:hairline;stroke-width:0.26458333;stroke-dasharray:none" />
    <path
       d="M 1056.0,77.6669047558312 L 1075.3330952441688,97.0 L 1056.0,116.3330952441688 L 1036.6669047558312,97.0 L 1056.0,77.6669047558312 Z"
       id="path101"
       style="vector-effect:non-scaling-stroke;-inkscape-stroke:hairline;stroke-width:0.26458333;stroke-dasharray:none" />
    <path
       d="M 1056.0,29.66690475583121 L 1075.3330952441688,49.0 L 1056.0,68.3330952441688 L 1036.6669047558312,49.0 L 1056.0,29.66690475583121 Z"
       id="path102"
       style="vector-effect:non-scaling-stroke;-inkscape-stroke:hairline;stroke-width:0.26458333;stroke-dasharray:none" />
    <path
       d="M 1080.0,101.6669047558312 L 1099.3330952441688,121.0 L 1080.0,140.33309524416882 L 1060.6669047558312,121.0 L 1080.0,101.6669047558312 Z"
       id="path103"
       style="vector-effect:non-scaling-stroke;-inkscape-stroke:hairline;stroke-width:0.26458333;stroke-dasharray:none" />
    <path
       d="M 1080.0,53.66690475583121 L 1099.3330952441688,73.0 L 1080.0,92.3330952441688 L 1060.6669047558312,73.0 L 1080.0,53.66690475583121 Z"
       id="path104"
       style="vector-effect:non-scaling-stroke;-inkscape-stroke:hairline;stroke-width:0.26458333;stroke-dasharray:none" />
    <path
       d="M 1099.3330952441688,25.0 L 1080.0,44.33309524416879 L 1060.6669047558312,25.0 L 1061.6669047558312,24.0 L 1098.3330952441688,24.0 L 1099.3330952441688,25.0 Z"
       id="path105"
       style="vector-effect:non-scaling-stroke;-inkscape-stroke:hairline;stroke-width:0.26458333;stroke-dasharray:none" />
    <path
       d="M 1122.3330952441688,144.0 L 1085.6669047558312,144.0 L 1104.0,125.6669047558312 L 1122.3330952441688,144.0 Z"
       id="path106"
       style="vector-effect:non-scaling-stroke;-inkscape-stroke:hairline;stroke-width:0.26458333;stroke-dasharray:none" />
    <path
       d="M 1104.0,77.6669047558312 L 1123.3330952441688,97.0 L 1104.0,116.3330952441688 L 1084.6669047558312,97.0 L 1104.0,77.6669047558312 Z"
       id="path107"
       style="vector-effect:non-scaling-stroke;-inkscape-stroke:hairline;stroke-width:0.26458333;stroke-dasharray:none" />
    <path
       d="M 1104.0,29.66690475583121 L 1123.3330952441688,49.0 L 1104.0,68.3330952441688 L 1084.6669047558312,49.0 L 1104.0,29.66690475583121 Z"
       id="path108"
       style="vector-effect:non-scaling-stroke;-inkscape-stroke:hairline;stroke-width:0.26458333;stroke-dasharray:none" />
    <path
       d="M 1128.0,101.6669047558312 L 1147.3330952441688,121.0 L 1128.0,140.33309524416882 L 1108.6669047558312,121.0 L 1128.0,101.6669047558312 Z"
       id="path109"
       style="vector-effect:non-scaling-stroke;-inkscape-stroke:hairline;stroke-width:0.26458333;stroke-dasharray:none" />
    <path
       d="M 1128.0,53.66690475583121 L 1147.3330952441688,73.0 L 1128.0,92.3330952441688 L 1108.6669047558312,73.0 L 1128.0,53.66690475583121 Z"
       id="path110"
       style="vector-effect:non-scaling-stroke;-inkscape-stroke:hairline;stroke-width:0.26458333;stroke-dasharray:none" />
    <path
       d="M 1147.3330952441688,25.0 L 1128.0,44.33309524416879 L 1108.6669047558312,25.0 L 1109.6669047558312,24.0 L 1146.3330952441688,24.0 L 1147.3330952441688,25.0 Z"
       id="path111"
       style="vector-effect:non-scaling-stroke;-inkscape-stroke:hairline;stroke-width:0.26458333;stroke-dasharray:none" />
    <path
       d="M 1150.0,127.6669047558312 L 1150.0,144.0 L 1133.6669047558312,144.0 L 1150.0,127.6669047558312 Z"
       id="path112"
       style="vector-effect:non-scaling-stroke;-inkscape-stroke:hairline;stroke-width:0.26458333;stroke-dasharray:none" />
    <path
       d="M 1132.6669047558312,97.0 L 1150.0,79.6669047558312 L 1150.0,114.3330952441688 L 1132.6669047558312,97.0 Z"
       id="path113"
       style="vector-effect:non-scaling-stroke;-inkscape-stroke:hairline;stroke-width:0.26458333;stroke-dasharray:none" />
    <path
       d="M 1132.6669047558312,49.0 L 1150.0,31.66690475583121 L 1150.0,66.3330952441688 L 1132.6669047558312,49.0 Z"
       id="path114"
       style="vector-effect:non-scaling-stroke;-inkscape-stroke:hairline;stroke-width:0.26458333;stroke-dasharray:none" />
    <path
       d="M 254.0,170.0 L 1162.0,170.0 L 1162.0,0.0 L 254.0,0.0 L 254.0,170.0 Z"
       id="path115"
       style="vector-effect:non-scaling-stroke;-inkscape-stroke:hairline;stroke-width:0.26458333;stroke-dasharray:none" />
  </g>
</svg>
