999
"DXF R12 Output" (www.mydxf.blogspot.com)
 0 
SECTION
 2 
HEADER
 9 
$ACADVER
 1 
AC1009
 9 
$EXTMIN
 10 
 0 
 20 
 0 
 9 
$EXTMAX
 10 
 8.5 
 20 
 11 
 0 
ENDSEC
 0 
SECTION
 2 
ENTITIES
0
POLYLINE
8
Layer 1
62
7
70
1
10
0.000000
20
0.000000
66
1
0
VERTEX
8
Layer 1
10
180.000000
20
133.333095
70
0
0
VERTEX
8
Layer 1
10
199.333095
20
114.000000
70
0
0
VERTEX
8
Layer 1
10
180.000000
20
94.666905
70
0
0
VERTEX
8
Layer 1
10
160.666905
20
114.000000
70
0
0
VERTEX
8
Layer 1
10
180.000000
20
133.333095
70
0
0
VERTEX
8
Layer 1
10
180.000000
20
133.333095
70
0
0
SEQEND
8
Layer 1
0
POLYLINE
8
Layer 1
62
7
70
1
10
0.000000
20
0.000000
66
1
0
VERTEX
8
Layer 1
10
180.000000
20
181.333095
70
0
0
VERTEX
8
Layer 1
10
199.333095
20
162.000000
70
0
0
VERTEX
8
Layer 1
10
180.000000
20
142.666905
70
0
0
VERTEX
8
Layer 1
10
160.666905
20
162.000000
70
0
0
VERTEX
8
Layer 1
10
180.000000
20
181.333095
70
0
0
VERTEX
8
Layer 1
10
180.000000
20
181.333095
70
0
0
SEQEND
8
Layer 1
0
POLYLINE
8
Layer 1
62
7
70
1
10
0.000000
20
0.000000
66
1
0
VERTEX
8
Layer 1
10
204.000000
20
157.333095
70
0
0
VERTEX
8
Layer 1
10
223.333095
20
138.000000
70
0
0
VERTEX
8
Layer 1
10
204.000000
20
118.666905
70
0
0
VERTEX
8
Layer 1
10
184.666905
20
138.000000
70
0
0
VERTEX
8
Layer 1
10
204.000000
20
157.333095
70
0
0
VERTEX
8
Layer 1
10
204.000000
20
157.333095
70
0
0
SEQEND
8
Layer 1
0
POLYLINE
8
Layer 1
62
7
70
1
10
0.000000
20
0.000000
66
1
0
VERTEX
8
Layer 1
10
204.000000
20
205.333095
70
0
0
VERTEX
8
Layer 1
10
223.333095
20
186.000000
70
0
0
VERTEX
8
Layer 1
10
204.000000
20
166.666905
70
0
0
VERTEX
8
Layer 1
10
184.666905
20
186.000000
70
0
0
VERTEX
8
Layer 1
10
204.000000
20
205.333095
70
0
0
VERTEX
8
Layer 1
10
204.000000
20
205.333095
70
0
0
SEQEND
8
Layer 1
0
POLYLINE
8
Layer 1
62
7
70
1
10
0.000000
20
0.000000
66
1
0
VERTEX
8
Layer 1
10
228.000000
20
133.333095
70
0
0
VERTEX
8
Layer 1
10
247.333095
20
114.000000
70
0
0
VERTEX
8
Layer 1
10
228.000000
20
94.666905
70
0
0
VERTEX
8
Layer 1
10
208.666905
20
114.000000
70
0
0
VERTEX
8
Layer 1
10
228.000000
20
133.333095
70
0
0
VERTEX
8
Layer 1
10
228.000000
20
133.333095
70
0
0
SEQEND
8
Layer 1
0
POLYLINE
8
Layer 1
62
7
70
1
10
0.000000
20
0.000000
66
1
0
VERTEX
8
Layer 1
10
228.000000
20
181.333095
70
0
0
VERTEX
8
Layer 1
10
247.333095
20
162.000000
70
0
0
VERTEX
8
Layer 1
10
228.000000
20
142.666905
70
0
0
VERTEX
8
Layer 1
10
208.666905
20
162.000000
70
0
0
VERTEX
8
Layer 1
10
228.000000
20
181.333095
70
0
0
VERTEX
8
Layer 1
10
228.000000
20
181.333095
70
0
0
SEQEND
8
Layer 1
0
POLYLINE
8
Layer 1
62
7
70
1
10
0.000000
20
0.000000
66
1
0
VERTEX
8
Layer 1
10
252.000000
20
157.333095
70
0
0
VERTEX
8
Layer 1
10
271.333095
20
138.000000
70
0
0
VERTEX
8
Layer 1
10
252.000000
20
118.666905
70
0
0
VERTEX
8
Layer 1
10
232.666905
20
138.000000
70
0
0
VERTEX
8
Layer 1
10
252.000000
20
157.333095
70
0
0
VERTEX
8
Layer 1
10
252.000000
20
157.333095
70
0
0
SEQEND
8
Layer 1
0
POLYLINE
8
Layer 1
62
7
70
1
10
0.000000
20
0.000000
66
1
0
VERTEX
8
Layer 1
10
252.000000
20
205.333095
70
0
0
VERTEX
8
Layer 1
10
271.333095
20
186.000000
70
0
0
VERTEX
8
Layer 1
10
252.000000
20
166.666905
70
0
0
VERTEX
8
Layer 1
10
232.666905
20
186.000000
70
0
0
VERTEX
8
Layer 1
10
252.000000
20
205.333095
70
0
0
VERTEX
8
Layer 1
10
252.000000
20
205.333095
70
0
0
SEQEND
8
Layer 1
0
POLYLINE
8
Layer 1
62
7
70
1
10
0.000000
20
0.000000
66
1
0
VERTEX
8
Layer 1
10
276.000000
20
133.333095
70
0
0
VERTEX
8
Layer 1
10
295.333095
20
114.000000
70
0
0
VERTEX
8
Layer 1
10
276.000000
20
94.666905
70
0
0
VERTEX
8
Layer 1
10
256.666905
20
114.000000
70
0
0
VERTEX
8
Layer 1
10
276.000000
20
133.333095
70
0
0
VERTEX
8
Layer 1
10
276.000000
20
133.333095
70
0
0
SEQEND
8
Layer 1
0
POLYLINE
8
Layer 1
62
7
70
1
10
0.000000
20
0.000000
66
1
0
VERTEX
8
Layer 1
10
276.000000
20
181.333095
70
0
0
VERTEX
8
Layer 1
10
295.333095
20
162.000000
70
0
0
VERTEX
8
Layer 1
10
276.000000
20
142.666905
70
0
0
VERTEX
8
Layer 1
10
256.666905
20
162.000000
70
0
0
VERTEX
8
Layer 1
10
276.000000
20
181.333095
70
0
0
VERTEX
8
Layer 1
10
276.000000
20
181.333095
70
0
0
SEQEND
8
Layer 1
0
POLYLINE
8
Layer 1
62
7
70
1
10
0.000000
20
0.000000
66
1
0
VERTEX
8
Layer 1
10
300.000000
20
157.333095
70
0
0
VERTEX
8
Layer 1
10
319.333095
20
138.000000
70
0
0
VERTEX
8
Layer 1
10
300.000000
20
118.666905
70
0
0
VERTEX
8
Layer 1
10
280.666905
20
138.000000
70
0
0
VERTEX
8
Layer 1
10
300.000000
20
157.333095
70
0
0
VERTEX
8
Layer 1
10
300.000000
20
157.333095
70
0
0
SEQEND
8
Layer 1
0
POLYLINE
8
Layer 1
62
7
70
1
10
0.000000
20
0.000000
66
1
0
VERTEX
8
Layer 1
10
300.000000
20
205.333095
70
0
0
VERTEX
8
Layer 1
10
319.333095
20
186.000000
70
0
0
VERTEX
8
Layer 1
10
300.000000
20
166.666905
70
0
0
VERTEX
8
Layer 1
10
280.666905
20
186.000000
70
0
0
VERTEX
8
Layer 1
10
300.000000
20
205.333095
70
0
0
VERTEX
8
Layer 1
10
300.000000
20
205.333095
70
0
0
SEQEND
8
Layer 1
0
POLYLINE
8
Layer 1
62
7
70
1
10
0.000000
20
0.000000
66
1
0
VERTEX
8
Layer 1
10
324.000000
20
133.333095
70
0
0
VERTEX
8
Layer 1
10
343.333095
20
114.000000
70
0
0
VERTEX
8
Layer 1
10
324.000000
20
94.666905
70
0
0
VERTEX
8
Layer 1
10
304.666905
20
114.000000
70
0
0
VERTEX
8
Layer 1
10
324.000000
20
133.333095
70
0
0
VERTEX
8
Layer 1
10
324.000000
20
133.333095
70
0
0
SEQEND
8
Layer 1
0
POLYLINE
8
Layer 1
62
7
70
1
10
0.000000
20
0.000000
66
1
0
VERTEX
8
Layer 1
10
324.000000
20
181.333095
70
0
0
VERTEX
8
Layer 1
10
343.333095
20
162.000000
70
0
0
VERTEX
8
Layer 1
10
324.000000
20
142.666905
70
0
0
VERTEX
8
Layer 1
10
304.666905
20
162.000000
70
0
0
VERTEX
8
Layer 1
10
324.000000
20
181.333095
70
0
0
VERTEX
8
Layer 1
10
324.000000
20
181.333095
70
0
0
SEQEND
8
Layer 1
0
POLYLINE
8
Layer 1
62
7
70
1
10
0.000000
20
0.000000
66
1
0
VERTEX
8
Layer 1
10
348.000000
20
157.333095
70
0
0
VERTEX
8
Layer 1
10
367.333095
20
138.000000
70
0
0
VERTEX
8
Layer 1
10
348.000000
20
118.666905
70
0
0
VERTEX
8
Layer 1
10
328.666905
20
138.000000
70
0
0
VERTEX
8
Layer 1
10
348.000000
20
157.333095
70
0
0
VERTEX
8
Layer 1
10
348.000000
20
157.333095
70
0
0
SEQEND
8
Layer 1
0
POLYLINE
8
Layer 1
62
7
70
1
10
0.000000
20
0.000000
66
1
0
VERTEX
8
Layer 1
10
348.000000
20
205.333095
70
0
0
VERTEX
8
Layer 1
10
367.333095
20
186.000000
70
0
0
VERTEX
8
Layer 1
10
348.000000
20
166.666905
70
0
0
VERTEX
8
Layer 1
10
328.666905
20
186.000000
70
0
0
VERTEX
8
Layer 1
10
348.000000
20
205.333095
70
0
0
VERTEX
8
Layer 1
10
348.000000
20
205.333095
70
0
0
SEQEND
8
Layer 1
0
POLYLINE
8
Layer 1
62
7
70
1
10
0.000000
20
0.000000
66
1
0
VERTEX
8
Layer 1
10
372.000000
20
133.333095
70
0
0
VERTEX
8
Layer 1
10
391.333095
20
114.000000
70
0
0
VERTEX
8
Layer 1
10
372.000000
20
94.666905
70
0
0
VERTEX
8
Layer 1
10
352.666905
20
114.000000
70
0
0
VERTEX
8
Layer 1
10
372.000000
20
133.333095
70
0
0
VERTEX
8
Layer 1
10
372.000000
20
133.333095
70
0
0
SEQEND
8
Layer 1
0
POLYLINE
8
Layer 1
62
7
70
1
10
0.000000
20
0.000000
66
1
0
VERTEX
8
Layer 1
10
372.000000
20
181.333095
70
0
0
VERTEX
8
Layer 1
10
391.333095
20
162.000000
70
0
0
VERTEX
8
Layer 1
10
372.000000
20
142.666905
70
0
0
VERTEX
8
Layer 1
10
352.666905
20
162.000000
70
0
0
VERTEX
8
Layer 1
10
372.000000
20
181.333095
70
0
0
VERTEX
8
Layer 1
10
372.000000
20
181.333095
70
0
0
SEQEND
8
Layer 1
0
POLYLINE
8
Layer 1
62
7
70
1
10
0.000000
20
0.000000
66
1
0
VERTEX
8
Layer 1
10
396.000000
20
157.333095
70
0
0
VERTEX
8
Layer 1
10
415.333095
20
138.000000
70
0
0
VERTEX
8
Layer 1
10
396.000000
20
118.666905
70
0
0
VERTEX
8
Layer 1
10
376.666905
20
138.000000
70
0
0
VERTEX
8
Layer 1
10
396.000000
20
157.333095
70
0
0
VERTEX
8
Layer 1
10
396.000000
20
157.333095
70
0
0
SEQEND
8
Layer 1
0
POLYLINE
8
Layer 1
62
7
70
1
10
0.000000
20
0.000000
66
1
0
VERTEX
8
Layer 1
10
396.000000
20
205.333095
70
0
0
VERTEX
8
Layer 1
10
415.333095
20
186.000000
70
0
0
VERTEX
8
Layer 1
10
396.000000
20
166.666905
70
0
0
VERTEX
8
Layer 1
10
376.666905
20
186.000000
70
0
0
VERTEX
8
Layer 1
10
396.000000
20
205.333095
70
0
0
VERTEX
8
Layer 1
10
396.000000
20
205.333095
70
0
0
SEQEND
8
Layer 1
0
POLYLINE
8
Layer 1
62
7
70
1
10
0.000000
20
0.000000
66
1
0
VERTEX
8
Layer 1
10
420.000000
20
133.333095
70
0
0
VERTEX
8
Layer 1
10
439.333095
20
114.000000
70
0
0
VERTEX
8
Layer 1
10
420.000000
20
94.666905
70
0
0
VERTEX
8
Layer 1
10
400.666905
20
114.000000
70
0
0
VERTEX
8
Layer 1
10
420.000000
20
133.333095
70
0
0
VERTEX
8
Layer 1
10
420.000000
20
133.333095
70
0
0
SEQEND
8
Layer 1
0
POLYLINE
8
Layer 1
62
7
70
1
10
0.000000
20
0.000000
66
1
0
VERTEX
8
Layer 1
10
420.000000
20
181.333095
70
0
0
VERTEX
8
Layer 1
10
439.333095
20
162.000000
70
0
0
VERTEX
8
Layer 1
10
420.000000
20
142.666905
70
0
0
VERTEX
8
Layer 1
10
400.666905
20
162.000000
70
0
0
VERTEX
8
Layer 1
10
420.000000
20
181.333095
70
0
0
VERTEX
8
Layer 1
10
420.000000
20
181.333095
70
0
0
SEQEND
8
Layer 1
0
POLYLINE
8
Layer 1
62
7
70
1
10
0.000000
20
0.000000
66
1
0
VERTEX
8
Layer 1
10
444.000000
20
157.333095
70
0
0
VERTEX
8
Layer 1
10
463.333095
20
138.000000
70
0
0
VERTEX
8
Layer 1
10
444.000000
20
118.666905
70
0
0
VERTEX
8
Layer 1
10
424.666905
20
138.000000
70
0
0
VERTEX
8
Layer 1
10
444.000000
20
157.333095
70
0
0
VERTEX
8
Layer 1
10
444.000000
20
157.333095
70
0
0
SEQEND
8
Layer 1
0
POLYLINE
8
Layer 1
62
7
70
1
10
0.000000
20
0.000000
66
1
0
VERTEX
8
Layer 1
10
444.000000
20
205.333095
70
0
0
VERTEX
8
Layer 1
10
463.333095
20
186.000000
70
0
0
VERTEX
8
Layer 1
10
444.000000
20
166.666905
70
0
0
VERTEX
8
Layer 1
10
424.666905
20
186.000000
70
0
0
VERTEX
8
Layer 1
10
444.000000
20
205.333095
70
0
0
VERTEX
8
Layer 1
10
444.000000
20
205.333095
70
0
0
SEQEND
8
Layer 1
0
POLYLINE
8
Layer 1
62
7
70
1
10
0.000000
20
0.000000
66
1
0
VERTEX
8
Layer 1
10
468.000000
20
133.333095
70
0
0
VERTEX
8
Layer 1
10
487.333095
20
114.000000
70
0
0
VERTEX
8
Layer 1
10
468.000000
20
94.666905
70
0
0
VERTEX
8
Layer 1
10
448.666905
20
114.000000
70
0
0
VERTEX
8
Layer 1
10
468.000000
20
133.333095
70
0
0
VERTEX
8
Layer 1
10
468.000000
20
133.333095
70
0
0
SEQEND
8
Layer 1
0
POLYLINE
8
Layer 1
62
7
70
1
10
0.000000
20
0.000000
66
1
0
VERTEX
8
Layer 1
10
468.000000
20
181.333095
70
0
0
VERTEX
8
Layer 1
10
487.333095
20
162.000000
70
0
0
VERTEX
8
Layer 1
10
468.000000
20
142.666905
70
0
0
VERTEX
8
Layer 1
10
448.666905
20
162.000000
70
0
0
VERTEX
8
Layer 1
10
468.000000
20
181.333095
70
0
0
VERTEX
8
Layer 1
10
468.000000
20
181.333095
70
0
0
SEQEND
8
Layer 1
0
POLYLINE
8
Layer 1
62
7
70
1
10
0.000000
20
0.000000
66
1
0
VERTEX
8
Layer 1
10
492.000000
20
157.333095
70
0
0
VERTEX
8
Layer 1
10
511.333095
20
138.000000
70
0
0
VERTEX
8
Layer 1
10
492.000000
20
118.666905
70
0
0
VERTEX
8
Layer 1
10
472.666905
20
138.000000
70
0
0
VERTEX
8
Layer 1
10
492.000000
20
157.333095
70
0
0
VERTEX
8
Layer 1
10
492.000000
20
157.333095
70
0
0
SEQEND
8
Layer 1
0
POLYLINE
8
Layer 1
62
7
70
1
10
0.000000
20
0.000000
66
1
0
VERTEX
8
Layer 1
10
492.000000
20
205.333095
70
0
0
VERTEX
8
Layer 1
10
511.333095
20
186.000000
70
0
0
VERTEX
8
Layer 1
10
492.000000
20
166.666905
70
0
0
VERTEX
8
Layer 1
10
472.666905
20
186.000000
70
0
0
VERTEX
8
Layer 1
10
492.000000
20
205.333095
70
0
0
VERTEX
8
Layer 1
10
492.000000
20
205.333095
70
0
0
SEQEND
8
Layer 1
0
POLYLINE
8
Layer 1
62
7
70
1
10
0.000000
20
0.000000
66
1
0
VERTEX
8
Layer 1
10
516.000000
20
133.333095
70
0
0
VERTEX
8
Layer 1
10
535.333095
20
114.000000
70
0
0
VERTEX
8
Layer 1
10
516.000000
20
94.666905
70
0
0
VERTEX
8
Layer 1
10
496.666905
20
114.000000
70
0
0
VERTEX
8
Layer 1
10
516.000000
20
133.333095
70
0
0
VERTEX
8
Layer 1
10
516.000000
20
133.333095
70
0
0
SEQEND
8
Layer 1
0
POLYLINE
8
Layer 1
62
7
70
1
10
0.000000
20
0.000000
66
1
0
VERTEX
8
Layer 1
10
516.000000
20
181.333095
70
0
0
VERTEX
8
Layer 1
10
535.333095
20
162.000000
70
0
0
VERTEX
8
Layer 1
10
516.000000
20
142.666905
70
0
0
VERTEX
8
Layer 1
10
496.666905
20
162.000000
70
0
0
VERTEX
8
Layer 1
10
516.000000
20
181.333095
70
0
0
VERTEX
8
Layer 1
10
516.000000
20
181.333095
70
0
0
SEQEND
8
Layer 1
0
POLYLINE
8
Layer 1
62
7
70
1
10
0.000000
20
0.000000
66
1
0
VERTEX
8
Layer 1
10
540.000000
20
157.333095
70
0
0
VERTEX
8
Layer 1
10
559.333095
20
138.000000
70
0
0
VERTEX
8
Layer 1
10
540.000000
20
118.666905
70
0
0
VERTEX
8
Layer 1
10
520.666905
20
138.000000
70
0
0
VERTEX
8
Layer 1
10
540.000000
20
157.333095
70
0
0
VERTEX
8
Layer 1
10
540.000000
20
157.333095
70
0
0
SEQEND
8
Layer 1
0
POLYLINE
8
Layer 1
62
7
70
1
10
0.000000
20
0.000000
66
1
0
VERTEX
8
Layer 1
10
540.000000
20
205.333095
70
0
0
VERTEX
8
Layer 1
10
559.333095
20
186.000000
70
0
0
VERTEX
8
Layer 1
10
540.000000
20
166.666905
70
0
0
VERTEX
8
Layer 1
10
520.666905
20
186.000000
70
0
0
VERTEX
8
Layer 1
10
540.000000
20
205.333095
70
0
0
VERTEX
8
Layer 1
10
540.000000
20
205.333095
70
0
0
SEQEND
8
Layer 1
0
POLYLINE
8
Layer 1
62
7
70
1
10
0.000000
20
0.000000
66
1
0
VERTEX
8
Layer 1
10
564.000000
20
133.333095
70
0
0
VERTEX
8
Layer 1
10
583.333095
20
114.000000
70
0
0
VERTEX
8
Layer 1
10
564.000000
20
94.666905
70
0
0
VERTEX
8
Layer 1
10
544.666905
20
114.000000
70
0
0
VERTEX
8
Layer 1
10
564.000000
20
133.333095
70
0
0
VERTEX
8
Layer 1
10
564.000000
20
133.333095
70
0
0
SEQEND
8
Layer 1
0
POLYLINE
8
Layer 1
62
7
70
1
10
0.000000
20
0.000000
66
1
0
VERTEX
8
Layer 1
10
564.000000
20
181.333095
70
0
0
VERTEX
8
Layer 1
10
583.333095
20
162.000000
70
0
0
VERTEX
8
Layer 1
10
564.000000
20
142.666905
70
0
0
VERTEX
8
Layer 1
10
544.666905
20
162.000000
70
0
0
VERTEX
8
Layer 1
10
564.000000
20
181.333095
70
0
0
VERTEX
8
Layer 1
10
564.000000
20
181.333095
70
0
0
SEQEND
8
Layer 1
0
POLYLINE
8
Layer 1
62
7
70
1
10
0.000000
20
0.000000
66
1
0
VERTEX
8
Layer 1
10
588.000000
20
157.333095
70
0
0
VERTEX
8
Layer 1
10
607.333095
20
138.000000
70
0
0
VERTEX
8
Layer 1
10
588.000000
20
118.666905
70
0
0
VERTEX
8
Layer 1
10
568.666905
20
138.000000
70
0
0
VERTEX
8
Layer 1
10
588.000000
20
157.333095
70
0
0
VERTEX
8
Layer 1
10
588.000000
20
157.333095
70
0
0
SEQEND
8
Layer 1
0
POLYLINE
8
Layer 1
62
7
70
1
10
0.000000
20
0.000000
66
1
0
VERTEX
8
Layer 1
10
588.000000
20
205.333095
70
0
0
VERTEX
8
Layer 1
10
607.333095
20
186.000000
70
0
0
VERTEX
8
Layer 1
10
588.000000
20
166.666905
70
0
0
VERTEX
8
Layer 1
10
568.666905
20
186.000000
70
0
0
VERTEX
8
Layer 1
10
588.000000
20
205.333095
70
0
0
VERTEX
8
Layer 1
10
588.000000
20
205.333095
70
0
0
SEQEND
8
Layer 1
0
POLYLINE
8
Layer 1
62
7
70
1
10
0.000000
20
0.000000
66
1
0
VERTEX
8
Layer 1
10
612.000000
20
133.333095
70
0
0
VERTEX
8
Layer 1
10
631.333095
20
114.000000
70
0
0
VERTEX
8
Layer 1
10
612.000000
20
94.666905
70
0
0
VERTEX
8
Layer 1
10
592.666905
20
114.000000
70
0
0
VERTEX
8
Layer 1
10
612.000000
20
133.333095
70
0
0
VERTEX
8
Layer 1
10
612.000000
20
133.333095
70
0
0
SEQEND
8
Layer 1
0
POLYLINE
8
Layer 1
62
7
70
1
10
0.000000
20
0.000000
66
1
0
VERTEX
8
Layer 1
10
612.000000
20
181.333095
70
0
0
VERTEX
8
Layer 1
10
631.333095
20
162.000000
70
0
0
VERTEX
8
Layer 1
10
612.000000
20
142.666905
70
0
0
VERTEX
8
Layer 1
10
592.666905
20
162.000000
70
0
0
VERTEX
8
Layer 1
10
612.000000
20
181.333095
70
0
0
VERTEX
8
Layer 1
10
612.000000
20
181.333095
70
0
0
SEQEND
8
Layer 1
0
POLYLINE
8
Layer 1
62
7
70
1
10
0.000000
20
0.000000
66
1
0
VERTEX
8
Layer 1
10
636.000000
20
157.333095
70
0
0
VERTEX
8
Layer 1
10
655.333095
20
138.000000
70
0
0
VERTEX
8
Layer 1
10
636.000000
20
118.666905
70
0
0
VERTEX
8
Layer 1
10
616.666905
20
138.000000
70
0
0
VERTEX
8
Layer 1
10
636.000000
20
157.333095
70
0
0
VERTEX
8
Layer 1
10
636.000000
20
157.333095
70
0
0
SEQEND
8
Layer 1
0
POLYLINE
8
Layer 1
62
7
70
1
10
0.000000
20
0.000000
66
1
0
VERTEX
8
Layer 1
10
636.000000
20
205.333095
70
0
0
VERTEX
8
Layer 1
10
655.333095
20
186.000000
70
0
0
VERTEX
8
Layer 1
10
636.000000
20
166.666905
70
0
0
VERTEX
8
Layer 1
10
616.666905
20
186.000000
70
0
0
VERTEX
8
Layer 1
10
636.000000
20
205.333095
70
0
0
VERTEX
8
Layer 1
10
636.000000
20
205.333095
70
0
0
SEQEND
8
Layer 1
0
POLYLINE
8
Layer 1
62
7
70
1
10
0.000000
20
0.000000
66
1
0
VERTEX
8
Layer 1
10
660.000000
20
133.333095
70
0
0
VERTEX
8
Layer 1
10
679.333095
20
114.000000
70
0
0
VERTEX
8
Layer 1
10
660.000000
20
94.666905
70
0
0
VERTEX
8
Layer 1
10
640.666905
20
114.000000
70
0
0
VERTEX
8
Layer 1
10
660.000000
20
133.333095
70
0
0
VERTEX
8
Layer 1
10
660.000000
20
133.333095
70
0
0
SEQEND
8
Layer 1
0
POLYLINE
8
Layer 1
62
7
70
1
10
0.000000
20
0.000000
66
1
0
VERTEX
8
Layer 1
10
660.000000
20
181.333095
70
0
0
VERTEX
8
Layer 1
10
679.333095
20
162.000000
70
0
0
VERTEX
8
Layer 1
10
660.000000
20
142.666905
70
0
0
VERTEX
8
Layer 1
10
640.666905
20
162.000000
70
0
0
VERTEX
8
Layer 1
10
660.000000
20
181.333095
70
0
0
VERTEX
8
Layer 1
10
660.000000
20
181.333095
70
0
0
SEQEND
8
Layer 1
0
POLYLINE
8
Layer 1
62
7
70
1
10
0.000000
20
0.000000
66
1
0
VERTEX
8
Layer 1
10
684.000000
20
157.333095
70
0
0
VERTEX
8
Layer 1
10
703.333095
20
138.000000
70
0
0
VERTEX
8
Layer 1
10
684.000000
20
118.666905
70
0
0
VERTEX
8
Layer 1
10
664.666905
20
138.000000
70
0
0
VERTEX
8
Layer 1
10
684.000000
20
157.333095
70
0
0
VERTEX
8
Layer 1
10
684.000000
20
157.333095
70
0
0
SEQEND
8
Layer 1
0
POLYLINE
8
Layer 1
62
7
70
1
10
0.000000
20
0.000000
66
1
0
VERTEX
8
Layer 1
10
684.000000
20
205.333095
70
0
0
VERTEX
8
Layer 1
10
703.333095
20
186.000000
70
0
0
VERTEX
8
Layer 1
10
684.000000
20
166.666905
70
0
0
VERTEX
8
Layer 1
10
664.666905
20
186.000000
70
0
0
VERTEX
8
Layer 1
10
684.000000
20
205.333095
70
0
0
VERTEX
8
Layer 1
10
684.000000
20
205.333095
70
0
0
SEQEND
8
Layer 1
0
POLYLINE
8
Layer 1
62
7
70
1
10
0.000000
20
0.000000
66
1
0
VERTEX
8
Layer 1
10
708.000000
20
133.333095
70
0
0
VERTEX
8
Layer 1
10
727.333095
20
114.000000
70
0
0
VERTEX
8
Layer 1
10
708.000000
20
94.666905
70
0
0
VERTEX
8
Layer 1
10
688.666905
20
114.000000
70
0
0
VERTEX
8
Layer 1
10
708.000000
20
133.333095
70
0
0
VERTEX
8
Layer 1
10
708.000000
20
133.333095
70
0
0
SEQEND
8
Layer 1
0
POLYLINE
8
Layer 1
62
7
70
1
10
0.000000
20
0.000000
66
1
0
VERTEX
8
Layer 1
10
708.000000
20
181.333095
70
0
0
VERTEX
8
Layer 1
10
727.333095
20
162.000000
70
0
0
VERTEX
8
Layer 1
10
708.000000
20
142.666905
70
0
0
VERTEX
8
Layer 1
10
688.666905
20
162.000000
70
0
0
VERTEX
8
Layer 1
10
708.000000
20
181.333095
70
0
0
VERTEX
8
Layer 1
10
708.000000
20
181.333095
70
0
0
SEQEND
8
Layer 1
0
POLYLINE
8
Layer 1
62
7
70
1
10
0.000000
20
0.000000
66
1
0
VERTEX
8
Layer 1
10
732.000000
20
157.333095
70
0
0
VERTEX
8
Layer 1
10
751.333095
20
138.000000
70
0
0
VERTEX
8
Layer 1
10
732.000000
20
118.666905
70
0
0
VERTEX
8
Layer 1
10
712.666905
20
138.000000
70
0
0
VERTEX
8
Layer 1
10
732.000000
20
157.333095
70
0
0
VERTEX
8
Layer 1
10
732.000000
20
157.333095
70
0
0
SEQEND
8
Layer 1
0
POLYLINE
8
Layer 1
62
7
70
1
10
0.000000
20
0.000000
66
1
0
VERTEX
8
Layer 1
10
732.000000
20
205.333095
70
0
0
VERTEX
8
Layer 1
10
751.333095
20
186.000000
70
0
0
VERTEX
8
Layer 1
10
732.000000
20
166.666905
70
0
0
VERTEX
8
Layer 1
10
712.666905
20
186.000000
70
0
0
VERTEX
8
Layer 1
10
732.000000
20
205.333095
70
0
0
VERTEX
8
Layer 1
10
732.000000
20
205.333095
70
0
0
SEQEND
8
Layer 1
0
POLYLINE
8
Layer 1
62
7
70
1
10
0.000000
20
0.000000
66
1
0
VERTEX
8
Layer 1
10
756.000000
20
133.333095
70
0
0
VERTEX
8
Layer 1
10
775.333095
20
114.000000
70
0
0
VERTEX
8
Layer 1
10
756.000000
20
94.666905
70
0
0
VERTEX
8
Layer 1
10
736.666905
20
114.000000
70
0
0
VERTEX
8
Layer 1
10
756.000000
20
133.333095
70
0
0
VERTEX
8
Layer 1
10
756.000000
20
133.333095
70
0
0
SEQEND
8
Layer 1
0
POLYLINE
8
Layer 1
62
7
70
1
10
0.000000
20
0.000000
66
1
0
VERTEX
8
Layer 1
10
756.000000
20
181.333095
70
0
0
VERTEX
8
Layer 1
10
775.333095
20
162.000000
70
0
0
VERTEX
8
Layer 1
10
756.000000
20
142.666905
70
0
0
VERTEX
8
Layer 1
10
736.666905
20
162.000000
70
0
0
VERTEX
8
Layer 1
10
756.000000
20
181.333095
70
0
0
VERTEX
8
Layer 1
10
756.000000
20
181.333095
70
0
0
SEQEND
8
Layer 1
0
POLYLINE
8
Layer 1
62
7
70
1
10
0.000000
20
0.000000
66
1
0
VERTEX
8
Layer 1
10
780.000000
20
157.333095
70
0
0
VERTEX
8
Layer 1
10
799.333095
20
138.000000
70
0
0
VERTEX
8
Layer 1
10
780.000000
20
118.666905
70
0
0
VERTEX
8
Layer 1
10
760.666905
20
138.000000
70
0
0
VERTEX
8
Layer 1
10
780.000000
20
157.333095
70
0
0
VERTEX
8
Layer 1
10
780.000000
20
157.333095
70
0
0
SEQEND
8
Layer 1
0
POLYLINE
8
Layer 1
62
7
70
1
10
0.000000
20
0.000000
66
1
0
VERTEX
8
Layer 1
10
780.000000
20
205.333095
70
0
0
VERTEX
8
Layer 1
10
799.333095
20
186.000000
70
0
0
VERTEX
8
Layer 1
10
780.000000
20
166.666905
70
0
0
VERTEX
8
Layer 1
10
760.666905
20
186.000000
70
0
0
VERTEX
8
Layer 1
10
780.000000
20
205.333095
70
0
0
VERTEX
8
Layer 1
10
780.000000
20
205.333095
70
0
0
SEQEND
8
Layer 1
0
POLYLINE
8
Layer 1
62
7
70
1
10
0.000000
20
0.000000
66
1
0
VERTEX
8
Layer 1
10
804.000000
20
133.333095
70
0
0
VERTEX
8
Layer 1
10
823.333095
20
114.000000
70
0
0
VERTEX
8
Layer 1
10
804.000000
20
94.666905
70
0
0
VERTEX
8
Layer 1
10
784.666905
20
114.000000
70
0
0
VERTEX
8
Layer 1
10
804.000000
20
133.333095
70
0
0
VERTEX
8
Layer 1
10
804.000000
20
133.333095
70
0
0
SEQEND
8
Layer 1
0
POLYLINE
8
Layer 1
62
7
70
1
10
0.000000
20
0.000000
66
1
0
VERTEX
8
Layer 1
10
804.000000
20
181.333095
70
0
0
VERTEX
8
Layer 1
10
823.333095
20
162.000000
70
0
0
VERTEX
8
Layer 1
10
804.000000
20
142.666905
70
0
0
VERTEX
8
Layer 1
10
784.666905
20
162.000000
70
0
0
VERTEX
8
Layer 1
10
804.000000
20
181.333095
70
0
0
VERTEX
8
Layer 1
10
804.000000
20
181.333095
70
0
0
SEQEND
8
Layer 1
0
POLYLINE
8
Layer 1
62
7
70
1
10
0.000000
20
0.000000
66
1
0
VERTEX
8
Layer 1
10
828.000000
20
157.333095
70
0
0
VERTEX
8
Layer 1
10
847.333095
20
138.000000
70
0
0
VERTEX
8
Layer 1
10
828.000000
20
118.666905
70
0
0
VERTEX
8
Layer 1
10
808.666905
20
138.000000
70
0
0
VERTEX
8
Layer 1
10
828.000000
20
157.333095
70
0
0
VERTEX
8
Layer 1
10
828.000000
20
157.333095
70
0
0
SEQEND
8
Layer 1
0
POLYLINE
8
Layer 1
62
7
70
1
10
0.000000
20
0.000000
66
1
0
VERTEX
8
Layer 1
10
828.000000
20
205.333095
70
0
0
VERTEX
8
Layer 1
10
847.333095
20
186.000000
70
0
0
VERTEX
8
Layer 1
10
828.000000
20
166.666905
70
0
0
VERTEX
8
Layer 1
10
808.666905
20
186.000000
70
0
0
VERTEX
8
Layer 1
10
828.000000
20
205.333095
70
0
0
VERTEX
8
Layer 1
10
828.000000
20
205.333095
70
0
0
SEQEND
8
Layer 1
0
POLYLINE
8
Layer 1
62
7
70
1
10
0.000000
20
0.000000
66
1
0
VERTEX
8
Layer 1
10
852.000000
20
133.333095
70
0
0
VERTEX
8
Layer 1
10
871.333095
20
114.000000
70
0
0
VERTEX
8
Layer 1
10
852.000000
20
94.666905
70
0
0
VERTEX
8
Layer 1
10
832.666905
20
114.000000
70
0
0
VERTEX
8
Layer 1
10
852.000000
20
133.333095
70
0
0
VERTEX
8
Layer 1
10
852.000000
20
133.333095
70
0
0
SEQEND
8
Layer 1
0
POLYLINE
8
Layer 1
62
7
70
1
10
0.000000
20
0.000000
66
1
0
VERTEX
8
Layer 1
10
852.000000
20
181.333095
70
0
0
VERTEX
8
Layer 1
10
871.333095
20
162.000000
70
0
0
VERTEX
8
Layer 1
10
852.000000
20
142.666905
70
0
0
VERTEX
8
Layer 1
10
832.666905
20
162.000000
70
0
0
VERTEX
8
Layer 1
10
852.000000
20
181.333095
70
0
0
VERTEX
8
Layer 1
10
852.000000
20
181.333095
70
0
0
SEQEND
8
Layer 1
0
POLYLINE
8
Layer 1
62
7
70
1
10
0.000000
20
0.000000
66
1
0
VERTEX
8
Layer 1
10
876.000000
20
157.333095
70
0
0
VERTEX
8
Layer 1
10
895.333095
20
138.000000
70
0
0
VERTEX
8
Layer 1
10
876.000000
20
118.666905
70
0
0
VERTEX
8
Layer 1
10
856.666905
20
138.000000
70
0
0
VERTEX
8
Layer 1
10
876.000000
20
157.333095
70
0
0
VERTEX
8
Layer 1
10
876.000000
20
157.333095
70
0
0
SEQEND
8
Layer 1
0
POLYLINE
8
Layer 1
62
7
70
1
10
0.000000
20
0.000000
66
1
0
VERTEX
8
Layer 1
10
876.000000
20
205.333095
70
0
0
VERTEX
8
Layer 1
10
895.333095
20
186.000000
70
0
0
VERTEX
8
Layer 1
10
876.000000
20
166.666905
70
0
0
VERTEX
8
Layer 1
10
856.666905
20
186.000000
70
0
0
VERTEX
8
Layer 1
10
876.000000
20
205.333095
70
0
0
VERTEX
8
Layer 1
10
876.000000
20
205.333095
70
0
0
SEQEND
8
Layer 1
0
POLYLINE
8
Layer 1
62
7
70
1
10
0.000000
20
0.000000
66
1
0
VERTEX
8
Layer 1
10
900.000000
20
133.333095
70
0
0
VERTEX
8
Layer 1
10
919.333095
20
114.000000
70
0
0
VERTEX
8
Layer 1
10
900.000000
20
94.666905
70
0
0
VERTEX
8
Layer 1
10
880.666905
20
114.000000
70
0
0
VERTEX
8
Layer 1
10
900.000000
20
133.333095
70
0
0
VERTEX
8
Layer 1
10
900.000000
20
133.333095
70
0
0
SEQEND
8
Layer 1
0
POLYLINE
8
Layer 1
62
7
70
1
10
0.000000
20
0.000000
66
1
0
VERTEX
8
Layer 1
10
900.000000
20
181.333095
70
0
0
VERTEX
8
Layer 1
10
919.333095
20
162.000000
70
0
0
VERTEX
8
Layer 1
10
900.000000
20
142.666905
70
0
0
VERTEX
8
Layer 1
10
880.666905
20
162.000000
70
0
0
VERTEX
8
Layer 1
10
900.000000
20
181.333095
70
0
0
VERTEX
8
Layer 1
10
900.000000
20
181.333095
70
0
0
SEQEND
8
Layer 1
0
POLYLINE
8
Layer 1
62
7
70
1
10
0.000000
20
0.000000
66
1
0
VERTEX
8
Layer 1
10
924.000000
20
157.333095
70
0
0
VERTEX
8
Layer 1
10
943.333095
20
138.000000
70
0
0
VERTEX
8
Layer 1
10
924.000000
20
118.666905
70
0
0
VERTEX
8
Layer 1
10
904.666905
20
138.000000
70
0
0
VERTEX
8
Layer 1
10
924.000000
20
157.333095
70
0
0
VERTEX
8
Layer 1
10
924.000000
20
157.333095
70
0
0
SEQEND
8
Layer 1
0
POLYLINE
8
Layer 1
62
7
70
1
10
0.000000
20
0.000000
66
1
0
VERTEX
8
Layer 1
10
924.000000
20
205.333095
70
0
0
VERTEX
8
Layer 1
10
943.333095
20
186.000000
70
0
0
VERTEX
8
Layer 1
10
924.000000
20
166.666905
70
0
0
VERTEX
8
Layer 1
10
904.666905
20
186.000000
70
0
0
VERTEX
8
Layer 1
10
924.000000
20
205.333095
70
0
0
VERTEX
8
Layer 1
10
924.000000
20
205.333095
70
0
0
SEQEND
8
Layer 1
0
POLYLINE
8
Layer 1
62
7
70
1
10
0.000000
20
0.000000
66
1
0
VERTEX
8
Layer 1
10
948.000000
20
133.333095
70
0
0
VERTEX
8
Layer 1
10
967.333095
20
114.000000
70
0
0
VERTEX
8
Layer 1
10
948.000000
20
94.666905
70
0
0
VERTEX
8
Layer 1
10
928.666905
20
114.000000
70
0
0
VERTEX
8
Layer 1
10
948.000000
20
133.333095
70
0
0
VERTEX
8
Layer 1
10
948.000000
20
133.333095
70
0
0
SEQEND
8
Layer 1
0
POLYLINE
8
Layer 1
62
7
70
1
10
0.000000
20
0.000000
66
1
0
VERTEX
8
Layer 1
10
948.000000
20
181.333095
70
0
0
VERTEX
8
Layer 1
10
967.333095
20
162.000000
70
0
0
VERTEX
8
Layer 1
10
948.000000
20
142.666905
70
0
0
VERTEX
8
Layer 1
10
928.666905
20
162.000000
70
0
0
VERTEX
8
Layer 1
10
948.000000
20
181.333095
70
0
0
VERTEX
8
Layer 1
10
948.000000
20
181.333095
70
0
0
SEQEND
8
Layer 1
0
POLYLINE
8
Layer 1
62
7
70
1
10
0.000000
20
0.000000
66
1
0
VERTEX
8
Layer 1
10
972.000000
20
157.333095
70
0
0
VERTEX
8
Layer 1
10
991.333095
20
138.000000
70
0
0
VERTEX
8
Layer 1
10
972.000000
20
118.666905
70
0
0
VERTEX
8
Layer 1
10
952.666905
20
138.000000
70
0
0
VERTEX
8
Layer 1
10
972.000000
20
157.333095
70
0
0
VERTEX
8
Layer 1
10
972.000000
20
157.333095
70
0
0
SEQEND
8
Layer 1
0
POLYLINE
8
Layer 1
62
7
70
1
10
0.000000
20
0.000000
66
1
0
VERTEX
8
Layer 1
10
972.000000
20
205.333095
70
0
0
VERTEX
8
Layer 1
10
991.333095
20
186.000000
70
0
0
VERTEX
8
Layer 1
10
972.000000
20
166.666905
70
0
0
VERTEX
8
Layer 1
10
952.666905
20
186.000000
70
0
0
VERTEX
8
Layer 1
10
972.000000
20
205.333095
70
0
0
VERTEX
8
Layer 1
10
972.000000
20
205.333095
70
0
0
SEQEND
8
Layer 1
0
POLYLINE
8
Layer 1
62
7
70
1
10
0.000000
20
0.000000
66
1
0
VERTEX
8
Layer 1
10
996.000000
20
133.333095
70
0
0
VERTEX
8
Layer 1
10
1015.333095
20
114.000000
70
0
0
VERTEX
8
Layer 1
10
996.000000
20
94.666905
70
0
0
VERTEX
8
Layer 1
10
976.666905
20
114.000000
70
0
0
VERTEX
8
Layer 1
10
996.000000
20
133.333095
70
0
0
VERTEX
8
Layer 1
10
996.000000
20
133.333095
70
0
0
SEQEND
8
Layer 1
0
POLYLINE
8
Layer 1
62
7
70
1
10
0.000000
20
0.000000
66
1
0
VERTEX
8
Layer 1
10
996.000000
20
181.333095
70
0
0
VERTEX
8
Layer 1
10
1015.333095
20
162.000000
70
0
0
VERTEX
8
Layer 1
10
996.000000
20
142.666905
70
0
0
VERTEX
8
Layer 1
10
976.666905
20
162.000000
70
0
0
VERTEX
8
Layer 1
10
996.000000
20
181.333095
70
0
0
VERTEX
8
Layer 1
10
996.000000
20
181.333095
70
0
0
SEQEND
8
Layer 1
0
POLYLINE
8
Layer 1
62
7
70
1
10
0.000000
20
0.000000
66
1
0
VERTEX
8
Layer 1
10
1020.000000
20
157.333095
70
0
0
VERTEX
8
Layer 1
10
1039.333095
20
138.000000
70
0
0
VERTEX
8
Layer 1
10
1020.000000
20
118.666905
70
0
0
VERTEX
8
Layer 1
10
1000.666905
20
138.000000
70
0
0
VERTEX
8
Layer 1
10
1020.000000
20
157.333095
70
0
0
VERTEX
8
Layer 1
10
1020.000000
20
157.333095
70
0
0
SEQEND
8
Layer 1
0
POLYLINE
8
Layer 1
62
7
70
1
10
0.000000
20
0.000000
66
1
0
VERTEX
8
Layer 1
10
1020.000000
20
205.333095
70
0
0
VERTEX
8
Layer 1
10
1039.333095
20
186.000000
70
0
0
VERTEX
8
Layer 1
10
1020.000000
20
166.666905
70
0
0
VERTEX
8
Layer 1
10
1000.666905
20
186.000000
70
0
0
VERTEX
8
Layer 1
10
1020.000000
20
205.333095
70
0
0
VERTEX
8
Layer 1
10
1020.000000
20
205.333095
70
0
0
SEQEND
8
Layer 1
0
POLYLINE
8
Layer 1
62
7
70
1
10
0.000000
20
0.000000
66
1
0
VERTEX
8
Layer 1
10
516.000000
20
190.666905
70
0
0
VERTEX
8
Layer 1
10
496.666905
20
210.000000
70
0
0
VERTEX
8
Layer 1
10
535.333095
20
210.000000
70
0
0
VERTEX
8
Layer 1
10
516.000000
20
190.666905
70
0
0
VERTEX
8
Layer 1
10
516.000000
20
190.666905
70
0
0
SEQEND
8
Layer 1
0
POLYLINE
8
Layer 1
62
7
70
1
10
0.000000
20
0.000000
66
1
0
VERTEX
8
Layer 1
10
154.000000
20
90.000000
70
0
0
VERTEX
8
Layer 1
10
154.000000
20
107.333095
70
0
0
VERTEX
8
Layer 1
10
156.000000
20
109.333095
70
0
0
VERTEX
8
Layer 1
10
175.333095
20
90.000000
70
0
0
VERTEX
8
Layer 1
10
154.000000
20
90.000000
70
0
0
VERTEX
8
Layer 1
10
154.000000
20
90.000000
70
0
0
SEQEND
8
Layer 1
0
POLYLINE
8
Layer 1
62
7
70
1
10
0.000000
20
0.000000
66
1
0
VERTEX
8
Layer 1
10
228.000000
20
190.666905
70
0
0
VERTEX
8
Layer 1
10
208.666905
20
210.000000
70
0
0
VERTEX
8
Layer 1
10
247.333095
20
210.000000
70
0
0
VERTEX
8
Layer 1
10
228.000000
20
190.666905
70
0
0
VERTEX
8
Layer 1
10
228.000000
20
190.666905
70
0
0
SEQEND
8
Layer 1
0
POLYLINE
8
Layer 1
62
7
70
1
10
0.000000
20
0.000000
66
1
0
VERTEX
8
Layer 1
10
564.000000
20
190.666905
70
0
0
VERTEX
8
Layer 1
10
544.666905
20
210.000000
70
0
0
VERTEX
8
Layer 1
10
583.333095
20
210.000000
70
0
0
VERTEX
8
Layer 1
10
564.000000
20
190.666905
70
0
0
VERTEX
8
Layer 1
10
564.000000
20
190.666905
70
0
0
SEQEND
8
Layer 1
0
POLYLINE
8
Layer 1
62
7
70
1
10
0.000000
20
0.000000
66
1
0
VERTEX
8
Layer 1
10
664.666905
20
90.000000
70
0
0
VERTEX
8
Layer 1
10
684.000000
20
109.333095
70
0
0
VERTEX
8
Layer 1
10
703.333095
20
90.000000
70
0
0
VERTEX
8
Layer 1
10
664.666905
20
90.000000
70
0
0
VERTEX
8
Layer 1
10
664.666905
20
90.000000
70
0
0
SEQEND
8
Layer 1
0
POLYLINE
8
Layer 1
62
7
70
1
10
0.000000
20
0.000000
66
1
0
VERTEX
8
Layer 1
10
276.000000
20
190.666905
70
0
0
VERTEX
8
Layer 1
10
256.666905
20
210.000000
70
0
0
VERTEX
8
Layer 1
10
295.333095
20
210.000000
70
0
0
VERTEX
8
Layer 1
10
276.000000
20
190.666905
70
0
0
VERTEX
8
Layer 1
10
276.000000
20
190.666905
70
0
0
SEQEND
8
Layer 1
0
POLYLINE
8
Layer 1
62
7
70
1
10
0.000000
20
0.000000
66
1
0
VERTEX
8
Layer 1
10
712.666905
20
90.000000
70
0
0
VERTEX
8
Layer 1
10
732.000000
20
109.333095
70
0
0
VERTEX
8
Layer 1
10
751.333095
20
90.000000
70
0
0
VERTEX
8
Layer 1
10
712.666905
20
90.000000
70
0
0
VERTEX
8
Layer 1
10
712.666905
20
90.000000
70
0
0
SEQEND
8
Layer 1
0
POLYLINE
8
Layer 1
62
7
70
1
10
0.000000
20
0.000000
66
1
0
VERTEX
8
Layer 1
10
996.000000
20
190.666905
70
0
0
VERTEX
8
Layer 1
10
976.666905
20
210.000000
70
0
0
VERTEX
8
Layer 1
10
1015.333095
20
210.000000
70
0
0
VERTEX
8
Layer 1
10
996.000000
20
190.666905
70
0
0
VERTEX
8
Layer 1
10
996.000000
20
190.666905
70
0
0
SEQEND
8
Layer 1
0
POLYLINE
8
Layer 1
62
7
70
1
10
0.000000
20
0.000000
66
1
0
VERTEX
8
Layer 1
10
612.000000
20
190.666905
70
0
0
VERTEX
8
Layer 1
10
592.666905
20
210.000000
70
0
0
VERTEX
8
Layer 1
10
631.333095
20
210.000000
70
0
0
VERTEX
8
Layer 1
10
612.000000
20
190.666905
70
0
0
VERTEX
8
Layer 1
10
612.000000
20
190.666905
70
0
0
SEQEND
8
Layer 1
0
POLYLINE
8
Layer 1
62
7
70
1
10
0.000000
20
0.000000
66
1
0
VERTEX
8
Layer 1
10
952.666905
20
90.000000
70
0
0
VERTEX
8
Layer 1
10
972.000000
20
109.333095
70
0
0
VERTEX
8
Layer 1
10
991.333095
20
90.000000
70
0
0
VERTEX
8
Layer 1
10
952.666905
20
90.000000
70
0
0
VERTEX
8
Layer 1
10
952.666905
20
90.000000
70
0
0
SEQEND
8
Layer 1
0
POLYLINE
8
Layer 1
62
7
70
1
10
0.000000
20
0.000000
66
1
0
VERTEX
8
Layer 1
10
808.666905
20
90.000000
70
0
0
VERTEX
8
Layer 1
10
828.000000
20
109.333095
70
0
0
VERTEX
8
Layer 1
10
847.333095
20
90.000000
70
0
0
VERTEX
8
Layer 1
10
808.666905
20
90.000000
70
0
0
VERTEX
8
Layer 1
10
808.666905
20
90.000000
70
0
0
SEQEND
8
Layer 1
0
POLYLINE
8
Layer 1
62
7
70
1
10
0.000000
20
0.000000
66
1
0
VERTEX
8
Layer 1
10
472.666905
20
90.000000
70
0
0
VERTEX
8
Layer 1
10
492.000000
20
109.333095
70
0
0
VERTEX
8
Layer 1
10
511.333095
20
90.000000
70
0
0
VERTEX
8
Layer 1
10
472.666905
20
90.000000
70
0
0
VERTEX
8
Layer 1
10
472.666905
20
90.000000
70
0
0
SEQEND
8
Layer 1
0
POLYLINE
8
Layer 1
62
7
70
1
10
0.000000
20
0.000000
66
1
0
VERTEX
8
Layer 1
10
660.000000
20
190.666905
70
0
0
VERTEX
8
Layer 1
10
640.666905
20
210.000000
70
0
0
VERTEX
8
Layer 1
10
679.333095
20
210.000000
70
0
0
VERTEX
8
Layer 1
10
660.000000
20
190.666905
70
0
0
VERTEX
8
Layer 1
10
660.000000
20
190.666905
70
0
0
SEQEND
8
Layer 1
0
POLYLINE
8
Layer 1
62
7
70
1
10
0.000000
20
0.000000
66
1
0
VERTEX
8
Layer 1
10
468.000000
20
190.666905
70
0
0
VERTEX
8
Layer 1
10
448.666905
20
210.000000
70
0
0
VERTEX
8
Layer 1
10
487.333095
20
210.000000
70
0
0
VERTEX
8
Layer 1
10
468.000000
20
190.666905
70
0
0
VERTEX
8
Layer 1
10
468.000000
20
190.666905
70
0
0
SEQEND
8
Layer 1
0
POLYLINE
8
Layer 1
62
7
70
1
10
0.000000
20
0.000000
66
1
0
VERTEX
8
Layer 1
10
520.666905
20
90.000000
70
0
0
VERTEX
8
Layer 1
10
540.000000
20
109.333095
70
0
0
VERTEX
8
Layer 1
10
559.333095
20
90.000000
70
0
0
VERTEX
8
Layer 1
10
520.666905
20
90.000000
70
0
0
VERTEX
8
Layer 1
10
520.666905
20
90.000000
70
0
0
SEQEND
8
Layer 1
0
POLYLINE
8
Layer 1
62
7
70
1
10
0.000000
20
0.000000
66
1
0
VERTEX
8
Layer 1
10
180.000000
20
190.666905
70
0
0
VERTEX
8
Layer 1
10
160.666905
20
210.000000
70
0
0
VERTEX
8
Layer 1
10
199.333095
20
210.000000
70
0
0
VERTEX
8
Layer 1
10
180.000000
20
190.666905
70
0
0
VERTEX
8
Layer 1
10
180.000000
20
190.666905
70
0
0
SEQEND
8
Layer 1
0
POLYLINE
8
Layer 1
62
7
70
1
10
0.000000
20
0.000000
66
1
0
VERTEX
8
Layer 1
10
852.000000
20
190.666905
70
0
0
VERTEX
8
Layer 1
10
832.666905
20
210.000000
70
0
0
VERTEX
8
Layer 1
10
871.333095
20
210.000000
70
0
0
VERTEX
8
Layer 1
10
852.000000
20
190.666905
70
0
0
VERTEX
8
Layer 1
10
852.000000
20
190.666905
70
0
0
SEQEND
8
Layer 1
0
POLYLINE
8
Layer 1
62
7
70
1
10
0.000000
20
0.000000
66
1
0
VERTEX
8
Layer 1
10
232.666905
20
90.000000
70
0
0
VERTEX
8
Layer 1
10
252.000000
20
109.333095
70
0
0
VERTEX
8
Layer 1
10
271.333095
20
90.000000
70
0
0
VERTEX
8
Layer 1
10
232.666905
20
90.000000
70
0
0
VERTEX
8
Layer 1
10
232.666905
20
90.000000
70
0
0
SEQEND
8
Layer 1
0
POLYLINE
8
Layer 1
62
7
70
1
10
0.000000
20
0.000000
66
1
0
VERTEX
8
Layer 1
10
1044.000000
20
181.333095
70
0
0
VERTEX
8
Layer 1
10
1046.000000
20
179.333095
70
0
0
VERTEX
8
Layer 1
10
1046.000000
20
144.666905
70
0
0
VERTEX
8
Layer 1
10
1044.000000
20
142.666905
70
0
0
VERTEX
8
Layer 1
10
1024.666905
20
162.000000
70
0
0
VERTEX
8
Layer 1
10
1044.000000
20
181.333095
70
0
0
VERTEX
8
Layer 1
10
1044.000000
20
181.333095
70
0
0
SEQEND
8
Layer 1
0
POLYLINE
8
Layer 1
62
7
70
1
10
0.000000
20
0.000000
66
1
0
VERTEX
8
Layer 1
10
756.000000
20
190.666905
70
0
0
VERTEX
8
Layer 1
10
736.666905
20
210.000000
70
0
0
VERTEX
8
Layer 1
10
775.333095
20
210.000000
70
0
0
VERTEX
8
Layer 1
10
756.000000
20
190.666905
70
0
0
VERTEX
8
Layer 1
10
756.000000
20
190.666905
70
0
0
SEQEND
8
Layer 1
0
POLYLINE
8
Layer 1
62
7
70
1
10
0.000000
20
0.000000
66
1
0
VERTEX
8
Layer 1
10
324.000000
20
190.666905
70
0
0
VERTEX
8
Layer 1
10
304.666905
20
210.000000
70
0
0
VERTEX
8
Layer 1
10
343.333095
20
210.000000
70
0
0
VERTEX
8
Layer 1
10
324.000000
20
190.666905
70
0
0
VERTEX
8
Layer 1
10
324.000000
20
190.666905
70
0
0
SEQEND
8
Layer 1
0
POLYLINE
8
Layer 1
62
7
70
1
10
0.000000
20
0.000000
66
1
0
VERTEX
8
Layer 1
10
616.666905
20
90.000000
70
0
0
VERTEX
8
Layer 1
10
636.000000
20
109.333095
70
0
0
VERTEX
8
Layer 1
10
655.333095
20
90.000000
70
0
0
VERTEX
8
Layer 1
10
616.666905
20
90.000000
70
0
0
VERTEX
8
Layer 1
10
616.666905
20
90.000000
70
0
0
SEQEND
8
Layer 1
0
POLYLINE
8
Layer 1
62
7
70
1
10
0.000000
20
0.000000
66
1
0
VERTEX
8
Layer 1
10
376.666905
20
90.000000
70
0
0
VERTEX
8
Layer 1
10
396.000000
20
109.333095
70
0
0
VERTEX
8
Layer 1
10
415.333095
20
90.000000
70
0
0
VERTEX
8
Layer 1
10
376.666905
20
90.000000
70
0
0
VERTEX
8
Layer 1
10
376.666905
20
90.000000
70
0
0
SEQEND
8
Layer 1
0
POLYLINE
8
Layer 1
62
7
70
1
10
0.000000
20
0.000000
66
1
0
VERTEX
8
Layer 1
10
856.666905
20
90.000000
70
0
0
VERTEX
8
Layer 1
10
876.000000
20
109.333095
70
0
0
VERTEX
8
Layer 1
10
895.333095
20
90.000000
70
0
0
VERTEX
8
Layer 1
10
856.666905
20
90.000000
70
0
0
VERTEX
8
Layer 1
10
856.666905
20
90.000000
70
0
0
SEQEND
8
Layer 1
0
POLYLINE
8
Layer 1
62
7
70
1
10
0.000000
20
0.000000
66
1
0
VERTEX
8
Layer 1
10
948.000000
20
190.666905
70
0
0
VERTEX
8
Layer 1
10
928.666905
20
210.000000
70
0
0
VERTEX
8
Layer 1
10
967.333095
20
210.000000
70
0
0
VERTEX
8
Layer 1
10
948.000000
20
190.666905
70
0
0
VERTEX
8
Layer 1
10
948.000000
20
190.666905
70
0
0
SEQEND
8
Layer 1
0
POLYLINE
8
Layer 1
62
7
70
1
10
0.000000
20
0.000000
66
1
0
VERTEX
8
Layer 1
10
420.000000
20
190.666905
70
0
0
VERTEX
8
Layer 1
10
400.666905
20
210.000000
70
0
0
VERTEX
8
Layer 1
10
439.333095
20
210.000000
70
0
0
VERTEX
8
Layer 1
10
420.000000
20
190.666905
70
0
0
VERTEX
8
Layer 1
10
420.000000
20
190.666905
70
0
0
SEQEND
8
Layer 1
0
POLYLINE
8
Layer 1
62
7
70
1
10
0.000000
20
0.000000
66
1
0
VERTEX
8
Layer 1
10
372.000000
20
190.666905
70
0
0
VERTEX
8
Layer 1
10
352.666905
20
210.000000
70
0
0
VERTEX
8
Layer 1
10
391.333095
20
210.000000
70
0
0
VERTEX
8
Layer 1
10
372.000000
20
190.666905
70
0
0
VERTEX
8
Layer 1
10
372.000000
20
190.666905
70
0
0
SEQEND
8
Layer 1
0
POLYLINE
8
Layer 1
62
7
70
1
10
0.000000
20
0.000000
66
1
0
VERTEX
8
Layer 1
10
708.000000
20
190.666905
70
0
0
VERTEX
8
Layer 1
10
688.666905
20
210.000000
70
0
0
VERTEX
8
Layer 1
10
727.333095
20
210.000000
70
0
0
VERTEX
8
Layer 1
10
708.000000
20
190.666905
70
0
0
VERTEX
8
Layer 1
10
708.000000
20
190.666905
70
0
0
SEQEND
8
Layer 1
0
POLYLINE
8
Layer 1
62
7
70
1
10
0.000000
20
0.000000
66
1
0
VERTEX
8
Layer 1
10
154.000000
20
203.333095
70
0
0
VERTEX
8
Layer 1
10
156.000000
20
205.333095
70
0
0
VERTEX
8
Layer 1
10
175.333095
20
186.000000
70
0
0
VERTEX
8
Layer 1
10
156.000000
20
166.666905
70
0
0
VERTEX
8
Layer 1
10
154.000000
20
168.666905
70
0
0
VERTEX
8
Layer 1
10
154.000000
20
203.333095
70
0
0
VERTEX
8
Layer 1
10
154.000000
20
203.333095
70
0
0
SEQEND
8
Layer 1
0
POLYLINE
8
Layer 1
62
7
70
1
10
0.000000
20
0.000000
66
1
0
VERTEX
8
Layer 1
10
424.666905
20
90.000000
70
0
0
VERTEX
8
Layer 1
10
444.000000
20
109.333095
70
0
0
VERTEX
8
Layer 1
10
463.333095
20
90.000000
70
0
0
VERTEX
8
Layer 1
10
424.666905
20
90.000000
70
0
0
VERTEX
8
Layer 1
10
424.666905
20
90.000000
70
0
0
SEQEND
8
Layer 1
0
POLYLINE
8
Layer 1
62
7
70
1
10
0.000000
20
0.000000
66
1
0
VERTEX
8
Layer 1
10
184.666905
20
90.000000
70
0
0
VERTEX
8
Layer 1
10
204.000000
20
109.333095
70
0
0
VERTEX
8
Layer 1
10
223.333095
20
90.000000
70
0
0
VERTEX
8
Layer 1
10
184.666905
20
90.000000
70
0
0
VERTEX
8
Layer 1
10
184.666905
20
90.000000
70
0
0
SEQEND
8
Layer 1
0
POLYLINE
8
Layer 1
62
7
70
1
10
0.000000
20
0.000000
66
1
0
VERTEX
8
Layer 1
10
760.666905
20
90.000000
70
0
0
VERTEX
8
Layer 1
10
780.000000
20
109.333095
70
0
0
VERTEX
8
Layer 1
10
799.333095
20
90.000000
70
0
0
VERTEX
8
Layer 1
10
760.666905
20
90.000000
70
0
0
VERTEX
8
Layer 1
10
760.666905
20
90.000000
70
0
0
SEQEND
8
Layer 1
0
POLYLINE
8
Layer 1
62
7
70
1
10
0.000000
20
0.000000
66
1
0
VERTEX
8
Layer 1
10
280.666905
20
90.000000
70
0
0
VERTEX
8
Layer 1
10
300.000000
20
109.333095
70
0
0
VERTEX
8
Layer 1
10
319.333095
20
90.000000
70
0
0
VERTEX
8
Layer 1
10
280.666905
20
90.000000
70
0
0
VERTEX
8
Layer 1
10
280.666905
20
90.000000
70
0
0
SEQEND
8
Layer 1
0
POLYLINE
8
Layer 1
62
7
70
1
10
0.000000
20
0.000000
66
1
0
VERTEX
8
Layer 1
10
904.666905
20
90.000000
70
0
0
VERTEX
8
Layer 1
10
924.000000
20
109.333095
70
0
0
VERTEX
8
Layer 1
10
943.333095
20
90.000000
70
0
0
VERTEX
8
Layer 1
10
904.666905
20
90.000000
70
0
0
VERTEX
8
Layer 1
10
904.666905
20
90.000000
70
0
0
SEQEND
8
Layer 1
0
POLYLINE
8
Layer 1
62
7
70
1
10
0.000000
20
0.000000
66
1
0
VERTEX
8
Layer 1
10
1000.666905
20
90.000000
70
0
0
VERTEX
8
Layer 1
10
1020.000000
20
109.333095
70
0
0
VERTEX
8
Layer 1
10
1039.333095
20
90.000000
70
0
0
VERTEX
8
Layer 1
10
1000.666905
20
90.000000
70
0
0
VERTEX
8
Layer 1
10
1000.666905
20
90.000000
70
0
0
SEQEND
8
Layer 1
0
POLYLINE
8
Layer 1
62
7
70
1
10
0.000000
20
0.000000
66
1
0
VERTEX
8
Layer 1
10
1044.000000
20
133.333095
70
0
0
VERTEX
8
Layer 1
10
1046.000000
20
131.333095
70
0
0
VERTEX
8
Layer 1
10
1046.000000
20
96.666905
70
0
0
VERTEX
8
Layer 1
10
1044.000000
20
94.666905
70
0
0
VERTEX
8
Layer 1
10
1024.666905
20
114.000000
70
0
0
VERTEX
8
Layer 1
10
1044.000000
20
133.333095
70
0
0
VERTEX
8
Layer 1
10
1044.000000
20
133.333095
70
0
0
SEQEND
8
Layer 1
0
POLYLINE
8
Layer 1
62
7
70
1
10
0.000000
20
0.000000
66
1
0
VERTEX
8
Layer 1
10
154.000000
20
155.333095
70
0
0
VERTEX
8
Layer 1
10
156.000000
20
157.333095
70
0
0
VERTEX
8
Layer 1
10
175.333095
20
138.000000
70
0
0
VERTEX
8
Layer 1
10
156.000000
20
118.666905
70
0
0
VERTEX
8
Layer 1
10
154.000000
20
120.666905
70
0
0
VERTEX
8
Layer 1
10
154.000000
20
155.333095
70
0
0
VERTEX
8
Layer 1
10
154.000000
20
155.333095
70
0
0
SEQEND
8
Layer 1
0
POLYLINE
8
Layer 1
62
7
70
1
10
0.000000
20
0.000000
66
1
0
VERTEX
8
Layer 1
10
804.000000
20
190.666905
70
0
0
VERTEX
8
Layer 1
10
784.666905
20
210.000000
70
0
0
VERTEX
8
Layer 1
10
823.333095
20
210.000000
70
0
0
VERTEX
8
Layer 1
10
804.000000
20
190.666905
70
0
0
VERTEX
8
Layer 1
10
804.000000
20
190.666905
70
0
0
SEQEND
8
Layer 1
0
POLYLINE
8
Layer 1
62
7
70
1
10
0.000000
20
0.000000
66
1
0
VERTEX
8
Layer 1
10
1044.000000
20
190.666905
70
0
0
VERTEX
8
Layer 1
10
1024.666905
20
210.000000
70
0
0
VERTEX
8
Layer 1
10
1046.000000
20
210.000000
70
0
0
VERTEX
8
Layer 1
10
1046.000000
20
192.666905
70
0
0
VERTEX
8
Layer 1
10
1044.000000
20
190.666905
70
0
0
VERTEX
8
Layer 1
10
1044.000000
20
190.666905
70
0
0
SEQEND
8
Layer 1
0
POLYLINE
8
Layer 1
62
7
70
1
10
0.000000
20
0.000000
66
1
0
VERTEX
8
Layer 1
10
900.000000
20
190.666905
70
0
0
VERTEX
8
Layer 1
10
880.666905
20
210.000000
70
0
0
VERTEX
8
Layer 1
10
919.333095
20
210.000000
70
0
0
VERTEX
8
Layer 1
10
900.000000
20
190.666905
70
0
0
VERTEX
8
Layer 1
10
900.000000
20
190.666905
70
0
0
SEQEND
8
Layer 1
0
POLYLINE
8
Layer 1
62
7
70
1
10
0.000000
20
0.000000
66
1
0
VERTEX
8
Layer 1
10
568.666905
20
90.000000
70
0
0
VERTEX
8
Layer 1
10
588.000000
20
109.333095
70
0
0
VERTEX
8
Layer 1
10
607.333095
20
90.000000
70
0
0
VERTEX
8
Layer 1
10
568.666905
20
90.000000
70
0
0
VERTEX
8
Layer 1
10
568.666905
20
90.000000
70
0
0
SEQEND
8
Layer 1
0
POLYLINE
8
Layer 1
62
7
70
1
10
0.000000
20
0.000000
66
1
0
VERTEX
8
Layer 1
10
328.666905
20
90.000000
70
0
0
VERTEX
8
Layer 1
10
348.000000
20
109.333095
70
0
0
VERTEX
8
Layer 1
10
367.333095
20
90.000000
70
0
0
VERTEX
8
Layer 1
10
328.666905
20
90.000000
70
0
0
VERTEX
8
Layer 1
10
328.666905
20
90.000000
70
0
0
SEQEND
8
Layer 1
0
POLYLINE
8
Layer 1
62
7
70
1
10
0.000000
20
0.000000
66
1
0
VERTEX
8
Layer 1
10
147.000000
20
61.000000
70
0
0
VERTEX
8
Layer 1
10
1053.000000
20
61.000000
70
0
0
VERTEX
8
Layer 1
10
1053.000000
20
239.000000
70
0
0
VERTEX
8
Layer 1
10
147.000000
20
239.000000
70
0
0
VERTEX
8
Layer 1
10
147.000000
20
61.000000
70
0
0
VERTEX
8
Layer 1
10
147.000000
20
61.000000
70
0
0
SEQEND
8
Layer 1
 0 
ENDSEC
 0 
EOF